<!-- 03088 -->
<svg width="218px" height="109px" viewBox="0 0 218px 109px" xmlns="http://www.w3.org/2000/svg" xmlns:xlink="http://www.w3.org/1999/xlink" xml:space="preserve" version="1.1"  baseProfile="full">
<line x1="1" y1="1" x2="217" y2="1" style="stroke:#ddd;stroke-width:2" />
<line x1="1" y1="1" x2="1" y2="108" style="stroke:#ddd;stroke-width:2" />
<line x1="1" y1="108" x2="217" y2="108" style="stroke:#ddd;stroke-width:2" />
<line x1="217" y1="1" x2="217" y2="108" style="stroke:#ddd;stroke-width:2" />
<line x1="109" y1="1" x2="109" y2="108" style="stroke:#ddd;stroke-width:2" />
<line x1="1" y1="54" x2="217" y2="54" style="stroke:#ddd;stroke-width:2;stroke-dasharray:3 3" />
<line x1="55" y1="1" x2="55" y2="108" style="stroke:#ddd;stroke-width:2;stroke-dasharray:3 3" />
<line x1="164" y1="1" x2="164" y2="108" style="stroke:#ddd;stroke-width:2;stroke-dasharray:3 3" />
<path d="M58.24,35.38c7.5-1.28,13.74-2.63,18.5-4.1c2.5-0.77,4.77-1.15,6.25-1.15" style="fill:none;stroke:black;stroke-width:3" />
<circle cx="58.24" cy="35.38" r="5" stroke-width="0" fill="#FF2A00" opacity="0.7" />
<path d="M167.24,35.38c7.5-1.28,13.74-2.63,18.5-4.1c2.5-0.77,4.77-1.15,6.25-1.15" style="fill:none;stroke:#999;stroke-width:3" />
<path d="M163.62,13.88c2.25,2.12,2.98,4.13,2.88,6.5c-0.75,17-0.12,34.88,1.39,53.5c1.88,23.07-34.89,20.88-34.89,11.5c0-12,26.25-8,35.98-4.12c8.1,3.23,11.52,4.88,18.52,10.38" style="fill:none;stroke:black;stroke-width:3" />
<circle cx="163.62" cy="13.88" r="5" stroke-width="0" fill="#FF2A00" opacity="0.7" />
</svg>