<!-- 030cf -->
<svg width="218px" height="109px" viewBox="0 0 218px 109px" xmlns="http://www.w3.org/2000/svg" xmlns:xlink="http://www.w3.org/1999/xlink" xml:space="preserve" version="1.1"  baseProfile="full">
<line x1="1" y1="1" x2="217" y2="1" style="stroke:#ddd;stroke-width:2" />
<line x1="1" y1="1" x2="1" y2="108" style="stroke:#ddd;stroke-width:2" />
<line x1="1" y1="108" x2="217" y2="108" style="stroke:#ddd;stroke-width:2" />
<line x1="217" y1="1" x2="217" y2="108" style="stroke:#ddd;stroke-width:2" />
<line x1="109" y1="1" x2="109" y2="108" style="stroke:#ddd;stroke-width:2" />
<line x1="1" y1="54" x2="217" y2="54" style="stroke:#ddd;stroke-width:2;stroke-dasharray:3 3" />
<line x1="55" y1="1" x2="55" y2="108" style="stroke:#ddd;stroke-width:2;stroke-dasharray:3 3" />
<line x1="164" y1="1" x2="164" y2="108" style="stroke:#ddd;stroke-width:2;stroke-dasharray:3 3" />
<path d="M39.33,36.88c0.38,1.14,0.46,2.88-0.12,4.14c-6.33,13.73-13.33,23.86-22.21,32.23" style="fill:none;stroke:black;stroke-width:3" />
<circle cx="39.33" cy="36.88" r="5" stroke-width="0" fill="#FF2A00" opacity="0.7" />
<path d="M148.32999999999998,36.88c0.38,1.14,0.46,2.88-0.12,4.14c-6.33,13.73-13.33,23.86-22.21,32.23" style="fill:none;stroke:#999;stroke-width:3" />
<path d="M174.5,36.38c13,9.12,23.12,22.62,28,33.38" style="fill:none;stroke:black;stroke-width:3" />
<circle cx="174.5" cy="36.38" r="5" stroke-width="0" fill="#FF2A00" opacity="0.7" />
</svg>