<!-- 030ee -->
<svg width="218px" height="109px" viewBox="0 0 218px 109px" xmlns="http://www.w3.org/2000/svg" xmlns:xlink="http://www.w3.org/1999/xlink" xml:space="preserve" version="1.1"  baseProfile="full">
<line x1="1" y1="1" x2="217" y2="1" style="stroke:#ddd;stroke-width:2" />
<line x1="1" y1="1" x2="1" y2="108" style="stroke:#ddd;stroke-width:2" />
<line x1="1" y1="108" x2="217" y2="108" style="stroke:#ddd;stroke-width:2" />
<line x1="217" y1="1" x2="217" y2="108" style="stroke:#ddd;stroke-width:2" />
<line x1="109" y1="1" x2="109" y2="108" style="stroke:#ddd;stroke-width:2" />
<line x1="1" y1="54" x2="217" y2="54" style="stroke:#ddd;stroke-width:2;stroke-dasharray:3 3" />
<line x1="55" y1="1" x2="55" y2="108" style="stroke:#ddd;stroke-width:2;stroke-dasharray:3 3" />
<line x1="164" y1="1" x2="164" y2="108" style="stroke:#ddd;stroke-width:2;stroke-dasharray:3 3" />
<path d="M28.5,42.89c1.2,1,1.73,2.51,1.9,4.3c0.77,8.05,0.71,6.53,1.51,15.49c0.25,2.72,0.47,5.26,0.69,7.5" style="fill:none;stroke:black;stroke-width:3" />
<circle cx="28.5" cy="42.89" r="5" stroke-width="0" fill="#FF2A00" opacity="0.7" />
<path d="M137.5,42.89c1.2,1,1.73,2.51,1.9,4.3c0.77,8.05,0.71,6.53,1.51,15.49c0.25,2.72,0.47,5.26,0.69,7.5" style="fill:none;stroke:#999;stroke-width:3" />
<path d="M139.7,45.1c2.49,0.3,4.12,0.18,6.58-0.05c11.01-1.03,21.7-1.85,33.29-2.96c6.43-0.61,7.55,0.41,6.7,5.29c-3.8,21.79-16.5,38.08-35.07,49.16" style="fill:none;stroke:black;stroke-width:3" />
<circle cx="139.7" cy="45.1" r="5" stroke-width="0" fill="#FF2A00" opacity="0.7" />
</svg>