<!-- 030f5 -->
<svg width="218px" height="109px" viewBox="0 0 218px 109px" xmlns="http://www.w3.org/2000/svg" xmlns:xlink="http://www.w3.org/1999/xlink" xml:space="preserve" version="1.1"  baseProfile="full">
<line x1="1" y1="1" x2="217" y2="1" style="stroke:#ddd;stroke-width:2" />
<line x1="1" y1="1" x2="1" y2="108" style="stroke:#ddd;stroke-width:2" />
<line x1="1" y1="108" x2="217" y2="108" style="stroke:#ddd;stroke-width:2" />
<line x1="217" y1="1" x2="217" y2="108" style="stroke:#ddd;stroke-width:2" />
<line x1="109" y1="1" x2="109" y2="108" style="stroke:#ddd;stroke-width:2" />
<line x1="1" y1="54" x2="217" y2="54" style="stroke:#ddd;stroke-width:2;stroke-dasharray:3 3" />
<line x1="55" y1="1" x2="55" y2="108" style="stroke:#ddd;stroke-width:2;stroke-dasharray:3 3" />
<line x1="164" y1="1" x2="164" y2="108" style="stroke:#ddd;stroke-width:2;stroke-dasharray:3 3" />
<path d="M33.27,53.74c1.54,1.03,3.72,1.54,5.87,1.23c14.73-2.06,25.51-3.22,33.51-4.34c5.87-0.82,8.73,0.45,7.11,6.74c-1.75,6.8-3.69,14.67-7.62,24c-8.65,20.49-11.14,10.45-15.36,8.28" style="fill:none;stroke:black;stroke-width:3" />
<circle cx="33.27" cy="53.74" r="5" stroke-width="0" fill="#FF2A00" opacity="0.7" />
<path d="M142.27,53.74c1.54,1.03,3.72,1.54,5.87,1.23c14.73-2.06,25.51-3.22,33.51-4.34c5.87-0.82,8.73,0.45,7.11,6.74c-1.75,6.8-3.69,14.67-7.62,24c-8.65,20.49-11.14,10.45-15.36,8.28" style="fill:none;stroke:#999;stroke-width:3" />
<path d="M166.16,35.12c0.73,1.34,1.08,3.15,0.63,5.56c-3.55,18.85-13.27,37.28-25.29,48.5" style="fill:none;stroke:black;stroke-width:3" />
<circle cx="166.16" cy="35.12" r="5" stroke-width="0" fill="#FF2A00" opacity="0.7" />
</svg>