<!-- 04ece -->
<svg width="436px" height="109px" viewBox="0 0 436px 109px" xmlns="http://www.w3.org/2000/svg" xmlns:xlink="http://www.w3.org/1999/xlink" xml:space="preserve" version="1.1"  baseProfile="full">
<line x1="1" y1="1" x2="435" y2="1" style="stroke:#ddd;stroke-width:2" />
<line x1="1" y1="1" x2="1" y2="108" style="stroke:#ddd;stroke-width:2" />
<line x1="1" y1="108" x2="435" y2="108" style="stroke:#ddd;stroke-width:2" />
<line x1="435" y1="1" x2="435" y2="108" style="stroke:#ddd;stroke-width:2" />
<line x1="109" y1="1" x2="109" y2="108" style="stroke:#ddd;stroke-width:2" />
<line x1="218" y1="1" x2="218" y2="108" style="stroke:#ddd;stroke-width:2" />
<line x1="327" y1="1" x2="327" y2="108" style="stroke:#ddd;stroke-width:2" />
<line x1="1" y1="54" x2="435" y2="54" style="stroke:#ddd;stroke-width:2;stroke-dasharray:3 3" />
<line x1="55" y1="1" x2="55" y2="108" style="stroke:#ddd;stroke-width:2;stroke-dasharray:3 3" />
<line x1="164" y1="1" x2="164" y2="108" style="stroke:#ddd;stroke-width:2;stroke-dasharray:3 3" />
<line x1="273" y1="1" x2="273" y2="108" style="stroke:#ddd;stroke-width:2;stroke-dasharray:3 3" />
<line x1="382" y1="1" x2="382" y2="108" style="stroke:#ddd;stroke-width:2;stroke-dasharray:3 3" />
<path d="M30.25,23.24c0.5,1.01,0.39,3.06,0.34,5.12C30.25,45 24.75,75.75 10.72,90.38" style="fill:none;stroke:black;stroke-width:3" />
<circle cx="30.25" cy="23.24" r="5" stroke-width="0" fill="#FF2A00" opacity="0.7" />
<path d="M139.25,23.24c0.5,1.01,0.39,3.06,0.34,5.12C139.25,45 133.75,75.75 119.72,90.38" style="fill:none;stroke:#999;stroke-width:3" />
<path d="M138.89,55.21c6.1,3.2,13.89,11.72,16.86,19.79" style="fill:none;stroke:black;stroke-width:3" />
<circle cx="138.89" cy="55.21" r="5" stroke-width="0" fill="#FF2A00" opacity="0.7" />
<path d="M248.25,23.24c0.5,1.01,0.39,3.06,0.34,5.12C248.25,45 242.75,75.75 228.72,90.38" style="fill:none;stroke:#999;stroke-width:3" />
<path d="M247.89,55.21c6.1,3.2,13.89,11.72,16.86,19.79" style="fill:none;stroke:#999;stroke-width:3" />
<path d="M286.25,20.24c0.5,1.26,0.52,3.72,0.3,5.88C285.25,38.5 278.25,77.5 260.97,91.88" style="fill:none;stroke:black;stroke-width:3" />
<circle cx="286.25" cy="20.24" r="5" stroke-width="0" fill="#FF2A00" opacity="0.7" />
<path d="M357.25,23.24c0.5,1.01,0.39,3.06,0.34,5.12C357.25,45 351.75,75.75 337.72,90.38" style="fill:none;stroke:#999;stroke-width:3" />
<path d="M356.89,55.21c6.1,3.2,13.89,11.72,16.86,19.79" style="fill:none;stroke:#999;stroke-width:3" />
<path d="M395.25,20.24c0.5,1.26,0.52,3.72,0.3,5.88C394.25,38.5 387.25,77.5 369.97,91.88" style="fill:none;stroke:#999;stroke-width:3" />
<path d="M391.0,53.75C394.89,59 411.93,83.84 416.15999999999997,89c1.43,1.75,2.66,2.5,4.09,3" style="fill:none;stroke:black;stroke-width:3" />
<circle cx="391.0" cy="53.75" r="5" stroke-width="0" fill="#FF2A00" opacity="0.7" />
</svg>