<!-- 04eca -->
<svg width="436px" height="109px" viewBox="0 0 436px 109px" xmlns="http://www.w3.org/2000/svg" xmlns:xlink="http://www.w3.org/1999/xlink" xml:space="preserve" version="1.1"  baseProfile="full">
<line x1="1" y1="1" x2="435" y2="1" style="stroke:#ddd;stroke-width:2" />
<line x1="1" y1="1" x2="1" y2="108" style="stroke:#ddd;stroke-width:2" />
<line x1="1" y1="108" x2="435" y2="108" style="stroke:#ddd;stroke-width:2" />
<line x1="435" y1="1" x2="435" y2="108" style="stroke:#ddd;stroke-width:2" />
<line x1="109" y1="1" x2="109" y2="108" style="stroke:#ddd;stroke-width:2" />
<line x1="218" y1="1" x2="218" y2="108" style="stroke:#ddd;stroke-width:2" />
<line x1="327" y1="1" x2="327" y2="108" style="stroke:#ddd;stroke-width:2" />
<line x1="1" y1="54" x2="435" y2="54" style="stroke:#ddd;stroke-width:2;stroke-dasharray:3 3" />
<line x1="55" y1="1" x2="55" y2="108" style="stroke:#ddd;stroke-width:2;stroke-dasharray:3 3" />
<line x1="164" y1="1" x2="164" y2="108" style="stroke:#ddd;stroke-width:2;stroke-dasharray:3 3" />
<line x1="273" y1="1" x2="273" y2="108" style="stroke:#ddd;stroke-width:2;stroke-dasharray:3 3" />
<line x1="382" y1="1" x2="382" y2="108" style="stroke:#ddd;stroke-width:2;stroke-dasharray:3 3" />
<path d="M49.42,14.25c0.1,1.11-0.11,2.93-0.71,4.47C44.5,29.5 32.0,47.25 11.5,61.75" style="fill:none;stroke:black;stroke-width:3" />
<circle cx="49.42" cy="14.25" r="5" stroke-width="0" fill="#FF2A00" opacity="0.7" />
<path d="M158.42000000000002,14.25c0.1,1.11-0.11,2.93-0.71,4.47C153.5,29.5 141.0,47.25 120.5,61.75" style="fill:none;stroke:#999;stroke-width:3" />
<path d="M159.66,18.99c6.1,7.28,32.37,31.03,39.1,36.36c2.28,1.81,5.21,2.58,7.49,3.09" style="fill:none;stroke:black;stroke-width:3" />
<circle cx="159.66" cy="18.99" r="5" stroke-width="0" fill="#FF2A00" opacity="0.7" />
<path d="M267.42,14.25c0.1,1.11-0.11,2.93-0.71,4.47C262.5,29.5 250.0,47.25 229.5,61.75" style="fill:none;stroke:#999;stroke-width:3" />
<path d="M268.65999999999997,18.99c6.1,7.28,32.37,31.03,39.1,36.36c2.28,1.81,5.21,2.58,7.49,3.09" style="fill:none;stroke:#999;stroke-width:3" />
<path d="M257.23,50.26c1.27,0.24,2.64,0.37,4.13,0.18c5.39-0.68,11.02-1.69,15.86-2.31c1.8-0.23,3.66-0.38,4.8-0.08" style="fill:none;stroke:black;stroke-width:3" />
<circle cx="257.23" cy="50.26" r="5" stroke-width="0" fill="#FF2A00" opacity="0.7" />
<path d="M376.42,14.25c0.1,1.11-0.11,2.93-0.71,4.47C371.5,29.5 359.0,47.25 338.5,61.75" style="fill:none;stroke:#999;stroke-width:3" />
<path d="M377.65999999999997,18.99c6.1,7.28,32.37,31.03,39.1,36.36c2.28,1.81,5.21,2.58,7.49,3.09" style="fill:none;stroke:#999;stroke-width:3" />
<path d="M366.23,50.26c1.27,0.24,2.64,0.37,4.13,0.18c5.39-0.68,11.02-1.69,15.86-2.31c1.8-0.23,3.66-0.38,4.8-0.08" style="fill:none;stroke:#999;stroke-width:3" />
<path d="M360.25,67.75c2.12,0.38,3.57,0.61,6,0.25c6.31-0.93,18.5-3.25,25.24-4.44C395.48,62.85 397.0,65 395.0,68.75C390.33,77.5 385.75,85 380.0,94.5" style="fill:none;stroke:black;stroke-width:3" />
<circle cx="360.25" cy="67.75" r="5" stroke-width="0" fill="#FF2A00" opacity="0.7" />
</svg>