<!-- 04f1d -->
<svg width="654px" height="109px" viewBox="0 0 654px 109px" xmlns="http://www.w3.org/2000/svg" xmlns:xlink="http://www.w3.org/1999/xlink" xml:space="preserve" version="1.1"  baseProfile="full">
<line x1="1" y1="1" x2="653" y2="1" style="stroke:#ddd;stroke-width:2" />
<line x1="1" y1="1" x2="1" y2="108" style="stroke:#ddd;stroke-width:2" />
<line x1="1" y1="108" x2="653" y2="108" style="stroke:#ddd;stroke-width:2" />
<line x1="653" y1="1" x2="653" y2="108" style="stroke:#ddd;stroke-width:2" />
<line x1="109" y1="1" x2="109" y2="108" style="stroke:#ddd;stroke-width:2" />
<line x1="218" y1="1" x2="218" y2="108" style="stroke:#ddd;stroke-width:2" />
<line x1="327" y1="1" x2="327" y2="108" style="stroke:#ddd;stroke-width:2" />
<line x1="436" y1="1" x2="436" y2="108" style="stroke:#ddd;stroke-width:2" />
<line x1="545" y1="1" x2="545" y2="108" style="stroke:#ddd;stroke-width:2" />
<line x1="1" y1="54" x2="653" y2="54" style="stroke:#ddd;stroke-width:2;stroke-dasharray:3 3" />
<line x1="55" y1="1" x2="55" y2="108" style="stroke:#ddd;stroke-width:2;stroke-dasharray:3 3" />
<line x1="164" y1="1" x2="164" y2="108" style="stroke:#ddd;stroke-width:2;stroke-dasharray:3 3" />
<line x1="273" y1="1" x2="273" y2="108" style="stroke:#ddd;stroke-width:2;stroke-dasharray:3 3" />
<line x1="382" y1="1" x2="382" y2="108" style="stroke:#ddd;stroke-width:2;stroke-dasharray:3 3" />
<line x1="491" y1="1" x2="491" y2="108" style="stroke:#ddd;stroke-width:2;stroke-dasharray:3 3" />
<line x1="600" y1="1" x2="600" y2="108" style="stroke:#ddd;stroke-width:2;stroke-dasharray:3 3" />
<path d="M31.61,20c0.14,1.25,0.07,2.47-0.47,3.93c-4.39,11.82-9.77,22.13-19.64,36.36" style="fill:none;stroke:black;stroke-width:3" />
<circle cx="31.61" cy="20.0" r="5" stroke-width="0" fill="#FF2A00" opacity="0.7" />
<path d="M140.61,20c0.14,1.25,0.07,2.47-0.47,3.93c-4.39,11.82-9.77,22.13-19.64,36.36" style="fill:none;stroke:#999;stroke-width:3" />
<path d="M135.03,41.5c0.97,1,1.5,2.42,1.5,3.88c0,10.94-0.02,30.36-0.03,41.25c0,2.61,0,4.73,0,6.12" style="fill:none;stroke:black;stroke-width:3" />
<circle cx="135.03" cy="41.5" r="5" stroke-width="0" fill="#FF2A00" opacity="0.7" />
<path d="M249.61,20c0.14,1.25,0.07,2.47-0.47,3.93c-4.39,11.82-9.77,22.13-19.64,36.36" style="fill:none;stroke:#999;stroke-width:3" />
<path d="M244.03,41.5c0.97,1,1.5,2.42,1.5,3.88c0,10.94-0.02,30.36-0.03,41.25c0,2.61,0,4.73,0,6.12" style="fill:none;stroke:#999;stroke-width:3" />
<path d="M264.39,25.58c2.11,0.42,4.35,0.41,6.1,0.18c8.38-1.09,19.82-2.35,27.9-2.79c1.69-0.09,3.39-0.24,5.04,0.19" style="fill:none;stroke:black;stroke-width:3" />
<circle cx="264.39" cy="25.58" r="5" stroke-width="0" fill="#FF2A00" opacity="0.7" />
<path d="M358.61,20c0.14,1.25,0.07,2.47-0.47,3.93c-4.39,11.82-9.77,22.13-19.64,36.36" style="fill:none;stroke:#999;stroke-width:3" />
<path d="M353.03,41.5c0.97,1,1.5,2.42,1.5,3.88c0,10.94-0.02,30.36-0.03,41.25c0,2.61,0,4.73,0,6.12" style="fill:none;stroke:#999;stroke-width:3" />
<path d="M373.39,25.58c2.11,0.42,4.35,0.41,6.1,0.18c8.38-1.09,19.82-2.35,27.9-2.79c1.69-0.09,3.39-0.24,5.04,0.19" style="fill:none;stroke:#999;stroke-width:3" />
<path d="M365.25,48.83c2.48,0.78,5.36,0.65,7.88,0.36c13.62-1.57,30.24-3.32,42.37-4.31c2.51-0.21,5.01-0.22,7.5,0.25" style="fill:none;stroke:black;stroke-width:3" />
<circle cx="365.25" cy="48.83" r="5" stroke-width="0" fill="#FF2A00" opacity="0.7" />
<path d="M467.61,20c0.14,1.25,0.07,2.47-0.47,3.93c-4.39,11.82-9.77,22.13-19.64,36.36" style="fill:none;stroke:#999;stroke-width:3" />
<path d="M462.03,41.5c0.97,1,1.5,2.42,1.5,3.88c0,10.94-0.02,30.36-0.03,41.25c0,2.61,0,4.73,0,6.12" style="fill:none;stroke:#999;stroke-width:3" />
<path d="M482.39,25.58c2.11,0.42,4.35,0.41,6.1,0.18c8.38-1.09,19.82-2.35,27.9-2.79c1.69-0.09,3.39-0.24,5.04,0.19" style="fill:none;stroke:#999;stroke-width:3" />
<path d="M474.25,48.83c2.48,0.78,5.36,0.65,7.88,0.36c13.62-1.57,30.24-3.32,42.37-4.31c2.51-0.21,5.01-0.22,7.5,0.25" style="fill:none;stroke:#999;stroke-width:3" />
<path d="M500.15,50.85c0.37,1.15,0.35,2.59-0.3,4.04C495.75,64 490.75,73.75 483.43,84.62c-1.94,2.87-1.37,4.72,2.14,3.73c12.31-3.48,20.31-5.98,36.04-10.09" style="fill:none;stroke:black;stroke-width:3" />
<circle cx="500.15" cy="50.85" r="5" stroke-width="0" fill="#FF2A00" opacity="0.7" />
<path d="M576.61,20c0.14,1.25,0.07,2.47-0.47,3.93c-4.39,11.82-9.77,22.13-19.64,36.36" style="fill:none;stroke:#999;stroke-width:3" />
<path d="M571.03,41.5c0.97,1,1.5,2.42,1.5,3.88c0,10.94-0.02,30.36-0.03,41.25c0,2.61,0,4.73,0,6.12" style="fill:none;stroke:#999;stroke-width:3" />
<path d="M591.39,25.58c2.11,0.42,4.35,0.41,6.1,0.18c8.38-1.09,19.82-2.35,27.9-2.79c1.69-0.09,3.39-0.24,5.04,0.19" style="fill:none;stroke:#999;stroke-width:3" />
<path d="M583.25,48.83c2.48,0.78,5.36,0.65,7.88,0.36c13.62-1.57,30.24-3.32,42.37-4.31c2.51-0.21,5.01-0.22,7.5,0.25" style="fill:none;stroke:#999;stroke-width:3" />
<path d="M609.15,50.85c0.37,1.15,0.35,2.59-0.3,4.04C604.75,64 599.75,73.75 592.4300000000001,84.62c-1.94,2.87-1.37,4.72,2.14,3.73c12.31-3.48,20.31-5.98,36.04-10.09" style="fill:none;stroke:#999;stroke-width:3" />
<path d="M624.75,68.21c4.66,3.92,11.41,16.05,12.57,22.15" style="fill:none;stroke:black;stroke-width:3" />
<circle cx="624.75" cy="68.21" r="5" stroke-width="0" fill="#FF2A00" opacity="0.7" />
</svg>