<!-- 04fdf -->
<svg width="981px" height="109px" viewBox="0 0 981px 109px" xmlns="http://www.w3.org/2000/svg" xmlns:xlink="http://www.w3.org/1999/xlink" xml:space="preserve" version="1.1"  baseProfile="full">
<line x1="1" y1="1" x2="980" y2="1" style="stroke:#ddd;stroke-width:2" />
<line x1="1" y1="1" x2="1" y2="108" style="stroke:#ddd;stroke-width:2" />
<line x1="1" y1="108" x2="980" y2="108" style="stroke:#ddd;stroke-width:2" />
<line x1="980" y1="1" x2="980" y2="108" style="stroke:#ddd;stroke-width:2" />
<line x1="109" y1="1" x2="109" y2="108" style="stroke:#ddd;stroke-width:2" />
<line x1="218" y1="1" x2="218" y2="108" style="stroke:#ddd;stroke-width:2" />
<line x1="327" y1="1" x2="327" y2="108" style="stroke:#ddd;stroke-width:2" />
<line x1="436" y1="1" x2="436" y2="108" style="stroke:#ddd;stroke-width:2" />
<line x1="545" y1="1" x2="545" y2="108" style="stroke:#ddd;stroke-width:2" />
<line x1="654" y1="1" x2="654" y2="108" style="stroke:#ddd;stroke-width:2" />
<line x1="763" y1="1" x2="763" y2="108" style="stroke:#ddd;stroke-width:2" />
<line x1="872" y1="1" x2="872" y2="108" style="stroke:#ddd;stroke-width:2" />
<line x1="1" y1="54" x2="980" y2="54" style="stroke:#ddd;stroke-width:2;stroke-dasharray:3 3" />
<line x1="55" y1="1" x2="55" y2="108" style="stroke:#ddd;stroke-width:2;stroke-dasharray:3 3" />
<line x1="164" y1="1" x2="164" y2="108" style="stroke:#ddd;stroke-width:2;stroke-dasharray:3 3" />
<line x1="273" y1="1" x2="273" y2="108" style="stroke:#ddd;stroke-width:2;stroke-dasharray:3 3" />
<line x1="382" y1="1" x2="382" y2="108" style="stroke:#ddd;stroke-width:2;stroke-dasharray:3 3" />
<line x1="491" y1="1" x2="491" y2="108" style="stroke:#ddd;stroke-width:2;stroke-dasharray:3 3" />
<line x1="600" y1="1" x2="600" y2="108" style="stroke:#ddd;stroke-width:2;stroke-dasharray:3 3" />
<line x1="709" y1="1" x2="709" y2="108" style="stroke:#ddd;stroke-width:2;stroke-dasharray:3 3" />
<line x1="818" y1="1" x2="818" y2="108" style="stroke:#ddd;stroke-width:2;stroke-dasharray:3 3" />
<line x1="927" y1="1" x2="927" y2="108" style="stroke:#ddd;stroke-width:2;stroke-dasharray:3 3" />
<path d="M30.5,16.39c0.13,1.19,0.22,2.68-0.11,4.15c-2.11,9.25-10.26,27.14-20.08,39.68" style="fill:none;stroke:black;stroke-width:3" />
<circle cx="30.5" cy="16.39" r="5" stroke-width="0" fill="#FF2A00" opacity="0.7" />
<path d="M139.5,16.39c0.13,1.19,0.22,2.68-0.11,4.15c-2.11,9.25-10.26,27.14-20.08,39.68" style="fill:none;stroke:#999;stroke-width:3" />
<path d="M133.99,41c0.66,0.68,0.84,2.19,0.84,3.58c0,14.46-0.32,43.08-0.32,52.79" style="fill:none;stroke:black;stroke-width:3" />
<circle cx="133.99" cy="41.0" r="5" stroke-width="0" fill="#FF2A00" opacity="0.7" />
<path d="M248.5,16.39c0.13,1.19,0.22,2.68-0.11,4.15c-2.11,9.25-10.26,27.14-20.08,39.68" style="fill:none;stroke:#999;stroke-width:3" />
<path d="M242.99,41c0.66,0.68,0.84,2.19,0.84,3.58c0,14.46-0.32,43.08-0.32,52.79" style="fill:none;stroke:#999;stroke-width:3" />
<path d="M276.04,11.5c0.05,0.71,0.08,2.06-0.25,2.61C271.0,22 265.81,27 260.29,32.27c-1.75,1.67-1.68,3.27,0.81,2.58c7.65-2.11,31.22-7.3,38.4-8.86" style="fill:none;stroke:black;stroke-width:3" />
<circle cx="276.04" cy="11.5" r="5" stroke-width="0" fill="#FF2A00" opacity="0.7" />
<path d="M357.5,16.39c0.13,1.19,0.22,2.68-0.11,4.15c-2.11,9.25-10.26,27.14-20.08,39.68" style="fill:none;stroke:#999;stroke-width:3" />
<path d="M351.99,41c0.66,0.68,0.84,2.19,0.84,3.58c0,14.46-0.32,43.08-0.32,52.79" style="fill:none;stroke:#999;stroke-width:3" />
<path d="M385.04,11.5c0.05,0.71,0.08,2.06-0.25,2.61C380.0,22 374.81,27 369.29,32.27c-1.75,1.67-1.68,3.27,0.81,2.58c7.65-2.11,31.22-7.3,38.4-8.86" style="fill:none;stroke:#999;stroke-width:3" />
<path d="M399.51,18.7C405.12,21.47 414.0,30.08 415.4,34.38" style="fill:none;stroke:black;stroke-width:3" />
<circle cx="399.51" cy="18.7" r="5" stroke-width="0" fill="#FF2A00" opacity="0.7" />
<path d="M466.5,16.39c0.13,1.19,0.22,2.68-0.11,4.15c-2.11,9.25-10.26,27.14-20.08,39.68" style="fill:none;stroke:#999;stroke-width:3" />
<path d="M460.99,41c0.66,0.68,0.84,2.19,0.84,3.58c0,14.46-0.32,43.08-0.32,52.79" style="fill:none;stroke:#999;stroke-width:3" />
<path d="M494.04,11.5c0.05,0.71,0.08,2.06-0.25,2.61C489.0,22 483.81,27 478.29,32.27c-1.75,1.67-1.68,3.27,0.81,2.58c7.65-2.11,31.22-7.3,38.4-8.86" style="fill:none;stroke:#999;stroke-width:3" />
<path d="M508.51,18.7C514.12,21.47 523.0,30.08 524.4,34.38" style="fill:none;stroke:#999;stroke-width:3" />
<path d="M487.3,41.02c0.04,0.5,0.07,1.28-0.07,2c-0.84,4.21-6.12,14.58-11.38,18.42" style="fill:none;stroke:black;stroke-width:3" />
<circle cx="487.3" cy="41.02" r="5" stroke-width="0" fill="#FF2A00" opacity="0.7" />
<path d="M575.5,16.39c0.13,1.19,0.22,2.68-0.11,4.15c-2.11,9.25-10.26,27.14-20.08,39.68" style="fill:none;stroke:#999;stroke-width:3" />
<path d="M569.99,41c0.66,0.68,0.84,2.19,0.84,3.58c0,14.46-0.32,43.08-0.32,52.79" style="fill:none;stroke:#999;stroke-width:3" />
<path d="M603.04,11.5c0.05,0.71,0.08,2.06-0.25,2.61C598.0,22 592.81,27 587.29,32.27c-1.75,1.67-1.68,3.27,0.81,2.58c7.65-2.11,31.22-7.3,38.4-8.86" style="fill:none;stroke:#999;stroke-width:3" />
<path d="M617.51,18.7C623.12,21.47 632.0,30.08 633.4,34.38" style="fill:none;stroke:#999;stroke-width:3" />
<path d="M596.3,41.02c0.04,0.5,0.07,1.28-0.07,2c-0.84,4.21-6.12,14.58-11.38,18.42" style="fill:none;stroke:#999;stroke-width:3" />
<path d="M596.55,50.81c1.4,0.05,3.55,0.07,4.51-0.03c3.96-0.41,15.93-3.03,22.03-3.74c1.6-0.19,2.62-0.24,3.44-0.14" style="fill:none;stroke:black;stroke-width:3" />
<circle cx="596.55" cy="50.81" r="5" stroke-width="0" fill="#FF2A00" opacity="0.7" />
<path d="M684.5,16.39c0.13,1.19,0.22,2.68-0.11,4.15c-2.11,9.25-10.26,27.14-20.08,39.68" style="fill:none;stroke:#999;stroke-width:3" />
<path d="M678.99,41c0.66,0.68,0.84,2.19,0.84,3.58c0,14.46-0.32,43.08-0.32,52.79" style="fill:none;stroke:#999;stroke-width:3" />
<path d="M712.04,11.5c0.05,0.71,0.08,2.06-0.25,2.61C707.0,22 701.81,27 696.29,32.27c-1.75,1.67-1.68,3.27,0.81,2.58c7.65-2.11,31.22-7.3,38.4-8.86" style="fill:none;stroke:#999;stroke-width:3" />
<path d="M726.51,18.7C732.12,21.47 741.0,30.08 742.4,34.38" style="fill:none;stroke:#999;stroke-width:3" />
<path d="M705.3,41.02c0.04,0.5,0.07,1.28-0.07,2c-0.84,4.21-6.12,14.58-11.38,18.42" style="fill:none;stroke:#999;stroke-width:3" />
<path d="M705.55,50.81c1.4,0.05,3.55,0.07,4.51-0.03c3.96-0.41,15.93-3.03,22.03-3.74c1.6-0.19,2.62-0.24,3.44-0.14" style="fill:none;stroke:#999;stroke-width:3" />
<path d="M689.16,69.13c1.48,0.39,4.6,0.47,5.56,0.38c16.25-1.61,37.35-4.05,48.9-4.31c1.23-0.03,2.97,0.1,5.71,0.57" style="fill:none;stroke:black;stroke-width:3" />
<circle cx="689.16" cy="69.13" r="5" stroke-width="0" fill="#FF2A00" opacity="0.7" />
<path d="M793.5,16.39c0.13,1.19,0.22,2.68-0.11,4.15c-2.11,9.25-10.26,27.14-20.08,39.68" style="fill:none;stroke:#999;stroke-width:3" />
<path d="M787.99,41c0.66,0.68,0.84,2.19,0.84,3.58c0,14.46-0.32,43.08-0.32,52.79" style="fill:none;stroke:#999;stroke-width:3" />
<path d="M821.04,11.5c0.05,0.71,0.08,2.06-0.25,2.61C816.0,22 810.81,27 805.29,32.27c-1.75,1.67-1.68,3.27,0.81,2.58c7.65-2.11,31.22-7.3,38.4-8.86" style="fill:none;stroke:#999;stroke-width:3" />
<path d="M835.51,18.7C841.12,21.47 850.0,30.08 851.4,34.38" style="fill:none;stroke:#999;stroke-width:3" />
<path d="M814.3,41.02c0.04,0.5,0.07,1.28-0.07,2c-0.84,4.21-6.12,14.58-11.38,18.42" style="fill:none;stroke:#999;stroke-width:3" />
<path d="M814.55,50.81c1.4,0.05,3.55,0.07,4.51-0.03c3.96-0.41,15.93-3.03,22.03-3.74c1.6-0.19,2.62-0.24,3.44-0.14" style="fill:none;stroke:#999;stroke-width:3" />
<path d="M798.16,69.13c1.48,0.39,4.6,0.47,5.56,0.38c16.25-1.61,37.35-4.05,48.9-4.31c1.23-0.03,2.97,0.1,5.71,0.57" style="fill:none;stroke:#999;stroke-width:3" />
<path d="M826.38,52.71c0.31,0.68,0.63,1.31,0.61,2.63c-0.2,22.82-10.12,34.5-26.44,41.51" style="fill:none;stroke:black;stroke-width:3" />
<circle cx="826.38" cy="52.71" r="5" stroke-width="0" fill="#FF2A00" opacity="0.7" />
<path d="M902.5,16.39c0.13,1.19,0.22,2.68-0.11,4.15c-2.11,9.25-10.26,27.14-20.08,39.68" style="fill:none;stroke:#999;stroke-width:3" />
<path d="M896.99,41c0.66,0.68,0.84,2.19,0.84,3.58c0,14.46-0.32,43.08-0.32,52.79" style="fill:none;stroke:#999;stroke-width:3" />
<path d="M930.04,11.5c0.05,0.71,0.08,2.06-0.25,2.61C925.0,22 919.81,27 914.29,32.27c-1.75,1.67-1.68,3.27,0.81,2.58c7.65-2.11,31.22-7.3,38.4-8.86" style="fill:none;stroke:#999;stroke-width:3" />
<path d="M944.51,18.7C950.12,21.47 959.0,30.08 960.4,34.38" style="fill:none;stroke:#999;stroke-width:3" />
<path d="M923.3,41.02c0.04,0.5,0.07,1.28-0.07,2c-0.84,4.21-6.12,14.58-11.38,18.42" style="fill:none;stroke:#999;stroke-width:3" />
<path d="M923.55,50.81c1.4,0.05,3.55,0.07,4.51-0.03c3.96-0.41,15.93-3.03,22.03-3.74c1.6-0.19,2.62-0.24,3.44-0.14" style="fill:none;stroke:#999;stroke-width:3" />
<path d="M907.16,69.13c1.48,0.39,4.6,0.47,5.56,0.38c16.25-1.61,37.35-4.05,48.9-4.31c1.23-0.03,2.97,0.1,5.71,0.57" style="fill:none;stroke:#999;stroke-width:3" />
<path d="M935.38,52.71c0.31,0.68,0.63,1.31,0.61,2.63c-0.2,22.82-10.12,34.5-26.44,41.51" style="fill:none;stroke:#999;stroke-width:3" />
<path d="M936.3,67.33C944.25,77 957.39,88.8 964.04,93.08c2.26,1.46,3.05,1.67,4.08,1.81" style="fill:none;stroke:black;stroke-width:3" />
<circle cx="936.3" cy="67.33" r="5" stroke-width="0" fill="#FF2A00" opacity="0.7" />
</svg>