<!-- 04fdb -->
<svg width="981px" height="109px" viewBox="0 0 981px 109px" xmlns="http://www.w3.org/2000/svg" xmlns:xlink="http://www.w3.org/1999/xlink" xml:space="preserve" version="1.1"  baseProfile="full">
<line x1="1" y1="1" x2="980" y2="1" style="stroke:#ddd;stroke-width:2" />
<line x1="1" y1="1" x2="1" y2="108" style="stroke:#ddd;stroke-width:2" />
<line x1="1" y1="108" x2="980" y2="108" style="stroke:#ddd;stroke-width:2" />
<line x1="980" y1="1" x2="980" y2="108" style="stroke:#ddd;stroke-width:2" />
<line x1="109" y1="1" x2="109" y2="108" style="stroke:#ddd;stroke-width:2" />
<line x1="218" y1="1" x2="218" y2="108" style="stroke:#ddd;stroke-width:2" />
<line x1="327" y1="1" x2="327" y2="108" style="stroke:#ddd;stroke-width:2" />
<line x1="436" y1="1" x2="436" y2="108" style="stroke:#ddd;stroke-width:2" />
<line x1="545" y1="1" x2="545" y2="108" style="stroke:#ddd;stroke-width:2" />
<line x1="654" y1="1" x2="654" y2="108" style="stroke:#ddd;stroke-width:2" />
<line x1="763" y1="1" x2="763" y2="108" style="stroke:#ddd;stroke-width:2" />
<line x1="872" y1="1" x2="872" y2="108" style="stroke:#ddd;stroke-width:2" />
<line x1="1" y1="54" x2="980" y2="54" style="stroke:#ddd;stroke-width:2;stroke-dasharray:3 3" />
<line x1="55" y1="1" x2="55" y2="108" style="stroke:#ddd;stroke-width:2;stroke-dasharray:3 3" />
<line x1="164" y1="1" x2="164" y2="108" style="stroke:#ddd;stroke-width:2;stroke-dasharray:3 3" />
<line x1="273" y1="1" x2="273" y2="108" style="stroke:#ddd;stroke-width:2;stroke-dasharray:3 3" />
<line x1="382" y1="1" x2="382" y2="108" style="stroke:#ddd;stroke-width:2;stroke-dasharray:3 3" />
<line x1="491" y1="1" x2="491" y2="108" style="stroke:#ddd;stroke-width:2;stroke-dasharray:3 3" />
<line x1="600" y1="1" x2="600" y2="108" style="stroke:#ddd;stroke-width:2;stroke-dasharray:3 3" />
<line x1="709" y1="1" x2="709" y2="108" style="stroke:#ddd;stroke-width:2;stroke-dasharray:3 3" />
<line x1="818" y1="1" x2="818" y2="108" style="stroke:#ddd;stroke-width:2;stroke-dasharray:3 3" />
<line x1="927" y1="1" x2="927" y2="108" style="stroke:#ddd;stroke-width:2;stroke-dasharray:3 3" />
<path d="M30.5,16.39c0.12,1.15,0.22,2.59-0.11,4.01c-2.08,8.93-10.13,26.21-19.83,38.32" style="fill:none;stroke:black;stroke-width:3" />
<circle cx="30.5" cy="16.39" r="5" stroke-width="0" fill="#FF2A00" opacity="0.7" />
<path d="M139.5,16.39c0.12,1.15,0.22,2.59-0.11,4.01c-2.08,8.93-10.13,26.21-19.83,38.32" style="fill:none;stroke:#999;stroke-width:3" />
<path d="M134.49,39c0.66,0.68,0.84,2.19,0.84,3.58c0,14.46-0.32,43.08-0.32,52.79" style="fill:none;stroke:black;stroke-width:3" />
<circle cx="134.49" cy="39.0" r="5" stroke-width="0" fill="#FF2A00" opacity="0.7" />
<path d="M248.5,16.39c0.12,1.15,0.22,2.59-0.11,4.01c-2.08,8.93-10.13,26.21-19.83,38.32" style="fill:none;stroke:#999;stroke-width:3" />
<path d="M243.49,39c0.66,0.68,0.84,2.19,0.84,3.58c0,14.46-0.32,43.08-0.32,52.79" style="fill:none;stroke:#999;stroke-width:3" />
<path d="M271.22,11.4c0.05,0.56,0.21,1.47-0.1,2.23C269.0,19 262.25,27.5 254.32999999999998,34.97" style="fill:none;stroke:black;stroke-width:3" />
<circle cx="271.22" cy="11.4" r="5" stroke-width="0" fill="#FF2A00" opacity="0.7" />
<path d="M357.5,16.39c0.12,1.15,0.22,2.59-0.11,4.01c-2.08,8.93-10.13,26.21-19.83,38.32" style="fill:none;stroke:#999;stroke-width:3" />
<path d="M352.49,39c0.66,0.68,0.84,2.19,0.84,3.58c0,14.46-0.32,43.08-0.32,52.79" style="fill:none;stroke:#999;stroke-width:3" />
<path d="M380.22,11.4c0.05,0.56,0.21,1.47-0.1,2.23C378.0,19 371.25,27.5 363.33,34.97" style="fill:none;stroke:#999;stroke-width:3" />
<path d="M379.54,19.76c1.83,0,18.15-2.89,20.07-3.1c1.65-0.18,2.54,1.44,1.82,2.3C398.0,23 392.75,29.25 388.03,36.8" style="fill:none;stroke:black;stroke-width:3" />
<circle cx="379.54" cy="19.76" r="5" stroke-width="0" fill="#FF2A00" opacity="0.7" />
<path d="M466.5,16.39c0.12,1.15,0.22,2.59-0.11,4.01c-2.08,8.93-10.13,26.21-19.83,38.32" style="fill:none;stroke:#999;stroke-width:3" />
<path d="M461.49,39c0.66,0.68,0.84,2.19,0.84,3.58c0,14.46-0.32,43.08-0.32,52.79" style="fill:none;stroke:#999;stroke-width:3" />
<path d="M489.22,11.4c0.05,0.56,0.21,1.47-0.1,2.23C487.0,19 480.25,27.5 472.33,34.97" style="fill:none;stroke:#999;stroke-width:3" />
<path d="M488.54,19.76c1.83,0,18.15-2.89,20.07-3.1c1.65-0.18,2.54,1.44,1.82,2.3C507.0,23 501.75,29.25 497.03,36.8" style="fill:none;stroke:#999;stroke-width:3" />
<path d="M475.73,38.1c0.44,0.47,0.89,0.86,1.08,1.45c1.52,4.66,2.5,13.82,3.54,22.19" style="fill:none;stroke:black;stroke-width:3" />
<circle cx="475.73" cy="38.1" r="5" stroke-width="0" fill="#FF2A00" opacity="0.7" />
<path d="M575.5,16.39c0.12,1.15,0.22,2.59-0.11,4.01c-2.08,8.93-10.13,26.21-19.83,38.32" style="fill:none;stroke:#999;stroke-width:3" />
<path d="M570.49,39c0.66,0.68,0.84,2.19,0.84,3.58c0,14.46-0.32,43.08-0.32,52.79" style="fill:none;stroke:#999;stroke-width:3" />
<path d="M598.22,11.4c0.05,0.56,0.21,1.47-0.1,2.23C596.0,19 589.25,27.5 581.3299999999999,34.97" style="fill:none;stroke:#999;stroke-width:3" />
<path d="M597.54,19.76c1.83,0,18.15-2.89,20.07-3.1c1.65-0.18,2.54,1.44,1.82,2.3C616.0,23 610.75,29.25 606.03,36.8" style="fill:none;stroke:#999;stroke-width:3" />
<path d="M584.73,38.1c0.44,0.47,0.89,0.86,1.08,1.45c1.52,4.66,2.5,13.82,3.54,22.19" style="fill:none;stroke:#999;stroke-width:3" />
<path d="M587.45,39.71c10.71-1.96,36.97-4.03,42.49-4.69c2.02-0.24,3.23,2.43,2.95,3.85c-1.2,5.87-2.14,11.38-4.63,18.4" style="fill:none;stroke:black;stroke-width:3" />
<circle cx="587.45" cy="39.71" r="5" stroke-width="0" fill="#FF2A00" opacity="0.7" />
<path d="M684.5,16.39c0.12,1.15,0.22,2.59-0.11,4.01c-2.08,8.93-10.13,26.21-19.83,38.32" style="fill:none;stroke:#999;stroke-width:3" />
<path d="M679.49,39c0.66,0.68,0.84,2.19,0.84,3.58c0,14.46-0.32,43.08-0.32,52.79" style="fill:none;stroke:#999;stroke-width:3" />
<path d="M707.22,11.4c0.05,0.56,0.21,1.47-0.1,2.23C705.0,19 698.25,27.5 690.3299999999999,34.97" style="fill:none;stroke:#999;stroke-width:3" />
<path d="M706.54,19.76c1.83,0,18.15-2.89,20.07-3.1c1.65-0.18,2.54,1.44,1.82,2.3C725.0,23 719.75,29.25 715.03,36.8" style="fill:none;stroke:#999;stroke-width:3" />
<path d="M693.73,38.1c0.44,0.47,0.89,0.86,1.08,1.45c1.52,4.66,2.5,13.82,3.54,22.19" style="fill:none;stroke:#999;stroke-width:3" />
<path d="M696.45,39.71c10.71-1.96,36.97-4.03,42.49-4.69c2.02-0.24,3.23,2.43,2.95,3.85c-1.2,5.87-2.14,11.38-4.63,18.4" style="fill:none;stroke:#999;stroke-width:3" />
<path d="M698.21,59.25c4.33-0.5,34.7-3.25,39.47-3.5" style="fill:none;stroke:black;stroke-width:3" />
<circle cx="698.21" cy="59.25" r="5" stroke-width="0" fill="#FF2A00" opacity="0.7" />
<path d="M793.5,16.39c0.12,1.15,0.22,2.59-0.11,4.01c-2.08,8.93-10.13,26.21-19.83,38.32" style="fill:none;stroke:#999;stroke-width:3" />
<path d="M788.49,39c0.66,0.68,0.84,2.19,0.84,3.58c0,14.46-0.32,43.08-0.32,52.79" style="fill:none;stroke:#999;stroke-width:3" />
<path d="M816.22,11.4c0.05,0.56,0.21,1.47-0.1,2.23C814.0,19 807.25,27.5 799.3299999999999,34.97" style="fill:none;stroke:#999;stroke-width:3" />
<path d="M815.54,19.76c1.83,0,18.15-2.89,20.07-3.1c1.65-0.18,2.54,1.44,1.82,2.3C834.0,23 828.75,29.25 824.03,36.8" style="fill:none;stroke:#999;stroke-width:3" />
<path d="M802.73,38.1c0.44,0.47,0.89,0.86,1.08,1.45c1.52,4.66,2.5,13.82,3.54,22.19" style="fill:none;stroke:#999;stroke-width:3" />
<path d="M805.45,39.71c10.71-1.96,36.97-4.03,42.49-4.69c2.02-0.24,3.23,2.43,2.95,3.85c-1.2,5.87-2.14,11.38-4.63,18.4" style="fill:none;stroke:#999;stroke-width:3" />
<path d="M807.21,59.25c4.33-0.5,34.7-3.25,39.47-3.5" style="fill:none;stroke:#999;stroke-width:3" />
<path d="M823.38,40c0.87,1.25,0.81,3.42,0.84,5.36C824.5,66.75 816.5,87.75 796.0,97.17" style="fill:none;stroke:black;stroke-width:3" />
<circle cx="823.38" cy="40.0" r="5" stroke-width="0" fill="#FF2A00" opacity="0.7" />
<path d="M902.5,16.39c0.12,1.15,0.22,2.59-0.11,4.01c-2.08,8.93-10.13,26.21-19.83,38.32" style="fill:none;stroke:#999;stroke-width:3" />
<path d="M897.49,39c0.66,0.68,0.84,2.19,0.84,3.58c0,14.46-0.32,43.08-0.32,52.79" style="fill:none;stroke:#999;stroke-width:3" />
<path d="M925.22,11.4c0.05,0.56,0.21,1.47-0.1,2.23C923.0,19 916.25,27.5 908.3299999999999,34.97" style="fill:none;stroke:#999;stroke-width:3" />
<path d="M924.54,19.76c1.83,0,18.15-2.89,20.07-3.1c1.65-0.18,2.54,1.44,1.82,2.3C943.0,23 937.75,29.25 933.03,36.8" style="fill:none;stroke:#999;stroke-width:3" />
<path d="M911.73,38.1c0.44,0.47,0.89,0.86,1.08,1.45c1.52,4.66,2.5,13.82,3.54,22.19" style="fill:none;stroke:#999;stroke-width:3" />
<path d="M914.45,39.71c10.71-1.96,36.97-4.03,42.49-4.69c2.02-0.24,3.23,2.43,2.95,3.85c-1.2,5.87-2.14,11.38-4.63,18.4" style="fill:none;stroke:#999;stroke-width:3" />
<path d="M916.21,59.25c4.33-0.5,34.7-3.25,39.47-3.5" style="fill:none;stroke:#999;stroke-width:3" />
<path d="M932.38,40c0.87,1.25,0.81,3.42,0.84,5.36C933.5,66.75 925.5,87.75 905.0,97.17" style="fill:none;stroke:#999;stroke-width:3" />
<path d="M938.79,59.37c0.64,1.19,1.19,2.59,1.19,4.43c0,9.95-0.46,16.14-0.46,21.7c0,10.5,3.22,11.03,15.32,11.03c11.4,0,12.88-1.53,12.88-8.62" style="fill:none;stroke:black;stroke-width:3" />
<circle cx="938.79" cy="59.37" r="5" stroke-width="0" fill="#FF2A00" opacity="0.7" />
</svg>