<!-- 05076 -->
<svg width="1199px" height="109px" viewBox="0 0 1199px 109px" xmlns="http://www.w3.org/2000/svg" xmlns:xlink="http://www.w3.org/1999/xlink" xml:space="preserve" version="1.1"  baseProfile="full">
<line x1="1" y1="1" x2="1198" y2="1" style="stroke:#ddd;stroke-width:2" />
<line x1="1" y1="1" x2="1" y2="108" style="stroke:#ddd;stroke-width:2" />
<line x1="1" y1="108" x2="1198" y2="108" style="stroke:#ddd;stroke-width:2" />
<line x1="1198" y1="1" x2="1198" y2="108" style="stroke:#ddd;stroke-width:2" />
<line x1="109" y1="1" x2="109" y2="108" style="stroke:#ddd;stroke-width:2" />
<line x1="218" y1="1" x2="218" y2="108" style="stroke:#ddd;stroke-width:2" />
<line x1="327" y1="1" x2="327" y2="108" style="stroke:#ddd;stroke-width:2" />
<line x1="436" y1="1" x2="436" y2="108" style="stroke:#ddd;stroke-width:2" />
<line x1="545" y1="1" x2="545" y2="108" style="stroke:#ddd;stroke-width:2" />
<line x1="654" y1="1" x2="654" y2="108" style="stroke:#ddd;stroke-width:2" />
<line x1="763" y1="1" x2="763" y2="108" style="stroke:#ddd;stroke-width:2" />
<line x1="872" y1="1" x2="872" y2="108" style="stroke:#ddd;stroke-width:2" />
<line x1="981" y1="1" x2="981" y2="108" style="stroke:#ddd;stroke-width:2" />
<line x1="1090" y1="1" x2="1090" y2="108" style="stroke:#ddd;stroke-width:2" />
<line x1="1" y1="54" x2="1198" y2="54" style="stroke:#ddd;stroke-width:2;stroke-dasharray:3 3" />
<line x1="55" y1="1" x2="55" y2="108" style="stroke:#ddd;stroke-width:2;stroke-dasharray:3 3" />
<line x1="164" y1="1" x2="164" y2="108" style="stroke:#ddd;stroke-width:2;stroke-dasharray:3 3" />
<line x1="273" y1="1" x2="273" y2="108" style="stroke:#ddd;stroke-width:2;stroke-dasharray:3 3" />
<line x1="382" y1="1" x2="382" y2="108" style="stroke:#ddd;stroke-width:2;stroke-dasharray:3 3" />
<line x1="491" y1="1" x2="491" y2="108" style="stroke:#ddd;stroke-width:2;stroke-dasharray:3 3" />
<line x1="600" y1="1" x2="600" y2="108" style="stroke:#ddd;stroke-width:2;stroke-dasharray:3 3" />
<line x1="709" y1="1" x2="709" y2="108" style="stroke:#ddd;stroke-width:2;stroke-dasharray:3 3" />
<line x1="818" y1="1" x2="818" y2="108" style="stroke:#ddd;stroke-width:2;stroke-dasharray:3 3" />
<line x1="927" y1="1" x2="927" y2="108" style="stroke:#ddd;stroke-width:2;stroke-dasharray:3 3" />
<line x1="1036" y1="1" x2="1036" y2="108" style="stroke:#ddd;stroke-width:2;stroke-dasharray:3 3" />
<line x1="1145" y1="1" x2="1145" y2="108" style="stroke:#ddd;stroke-width:2;stroke-dasharray:3 3" />
<path d="M29.52,15c0.2,1.98-0.06,3.56-0.69,5.25C24.75,31.04 19.34,42.16 10.0,55.29" style="fill:none;stroke:black;stroke-width:3" />
<circle cx="29.52" cy="15.0" r="5" stroke-width="0" fill="#FF2A00" opacity="0.7" />
<path d="M138.52,15c0.2,1.98-0.06,3.56-0.69,5.25C133.75,31.04 128.34,42.16 119.0,55.29" style="fill:none;stroke:#999;stroke-width:3" />
<path d="M132.45,37.25c0.96,0.96,1.4,2.35,1.4,3.86c0,14.3,0.07,35,0.09,47.64c0.01,2.96,0.01,5.51,0.01,7.5" style="fill:none;stroke:black;stroke-width:3" />
<circle cx="132.45" cy="37.25" r="5" stroke-width="0" fill="#FF2A00" opacity="0.7" />
<path d="M247.52,15c0.2,1.98-0.06,3.56-0.69,5.25C242.75,31.04 237.34,42.16 228.0,55.29" style="fill:none;stroke:#999;stroke-width:3" />
<path d="M241.45,37.25c0.96,0.96,1.4,2.35,1.4,3.86c0,14.3,0.07,35,0.09,47.64c0.01,2.96,0.01,5.51,0.01,7.5" style="fill:none;stroke:#999;stroke-width:3" />
<path d="M261.42,18.93c0.89,0.89,1.68,1.92,1.95,3.15c1.09,5.05,2.71,13.7,3.69,19.38c0.49,2.8,0.82,4.88,0.87,5.44" style="fill:none;stroke:black;stroke-width:3" />
<circle cx="261.42" cy="18.93" r="5" stroke-width="0" fill="#FF2A00" opacity="0.7" />
<path d="M356.52,15c0.2,1.98-0.06,3.56-0.69,5.25C351.75,31.04 346.34000000000003,42.16 337.0,55.29" style="fill:none;stroke:#999;stroke-width:3" />
<path d="M350.45,37.25c0.96,0.96,1.4,2.35,1.4,3.86c0,14.3,0.07,35,0.09,47.64c0.01,2.96,0.01,5.51,0.01,7.5" style="fill:none;stroke:#999;stroke-width:3" />
<path d="M370.42,18.93c0.89,0.89,1.68,1.92,1.95,3.15c1.09,5.05,2.71,13.7,3.69,19.38c0.49,2.8,0.82,4.88,0.87,5.44" style="fill:none;stroke:#999;stroke-width:3" />
<path d="M372.02,20.12c16.06-2.68,29.71-4.1,38.54-4.65c2.78-0.17,4.28,0.97,4.05,3.95c-0.31,4.03-1.62,11.34-3,19.12c-0.28,1.57-0.56,3.15-0.83,4.74" style="fill:none;stroke:black;stroke-width:3" />
<circle cx="372.02" cy="20.12" r="5" stroke-width="0" fill="#FF2A00" opacity="0.7" />
<path d="M465.52,15c0.2,1.98-0.06,3.56-0.69,5.25C460.75,31.04 455.34000000000003,42.16 446.0,55.29" style="fill:none;stroke:#999;stroke-width:3" />
<path d="M459.45,37.25c0.96,0.96,1.4,2.35,1.4,3.86c0,14.3,0.07,35,0.09,47.64c0.01,2.96,0.01,5.51,0.01,7.5" style="fill:none;stroke:#999;stroke-width:3" />
<path d="M479.42,18.93c0.89,0.89,1.68,1.92,1.95,3.15c1.09,5.05,2.71,13.7,3.69,19.38c0.49,2.8,0.82,4.88,0.87,5.44" style="fill:none;stroke:#999;stroke-width:3" />
<path d="M481.02,20.12c16.06-2.68,29.71-4.1,38.54-4.65c2.78-0.17,4.28,0.97,4.05,3.95c-0.31,4.03-1.62,11.34-3,19.12c-0.28,1.57-0.56,3.15-0.83,4.74" style="fill:none;stroke:#999;stroke-width:3" />
<path d="M484.45,32.2c14.05-1.82,31.67-3.82,37.4-4.06" style="fill:none;stroke:black;stroke-width:3" />
<circle cx="484.45" cy="32.2" r="5" stroke-width="0" fill="#FF2A00" opacity="0.7" />
<path d="M574.52,15c0.2,1.98-0.06,3.56-0.69,5.25C569.75,31.04 564.34,42.16 555.0,55.29" style="fill:none;stroke:#999;stroke-width:3" />
<path d="M568.45,37.25c0.96,0.96,1.4,2.35,1.4,3.86c0,14.3,0.07,35,0.09,47.64c0.01,2.96,0.01,5.51,0.01,7.5" style="fill:none;stroke:#999;stroke-width:3" />
<path d="M588.4200000000001,18.93c0.89,0.89,1.68,1.92,1.95,3.15c1.09,5.05,2.71,13.7,3.69,19.38c0.49,2.8,0.82,4.88,0.87,5.44" style="fill:none;stroke:#999;stroke-width:3" />
<path d="M590.02,20.12c16.06-2.68,29.71-4.1,38.54-4.65c2.78-0.17,4.28,0.97,4.05,3.95c-0.31,4.03-1.62,11.34-3,19.12c-0.28,1.57-0.56,3.15-0.83,4.74" style="fill:none;stroke:#999;stroke-width:3" />
<path d="M593.45,32.2c14.05-1.82,31.67-3.82,37.4-4.06" style="fill:none;stroke:#999;stroke-width:3" />
<path d="M595.83,44.24c10.38-1.19,20.92-2.74,32.29-3.37" style="fill:none;stroke:black;stroke-width:3" />
<circle cx="595.83" cy="44.24" r="5" stroke-width="0" fill="#FF2A00" opacity="0.7" />
<path d="M683.52,15c0.2,1.98-0.06,3.56-0.69,5.25C678.75,31.04 673.34,42.16 664.0,55.29" style="fill:none;stroke:#999;stroke-width:3" />
<path d="M677.45,37.25c0.96,0.96,1.4,2.35,1.4,3.86c0,14.3,0.07,35,0.09,47.64c0.01,2.96,0.01,5.51,0.01,7.5" style="fill:none;stroke:#999;stroke-width:3" />
<path d="M697.4200000000001,18.93c0.89,0.89,1.68,1.92,1.95,3.15c1.09,5.05,2.71,13.7,3.69,19.38c0.49,2.8,0.82,4.88,0.87,5.44" style="fill:none;stroke:#999;stroke-width:3" />
<path d="M699.02,20.12c16.06-2.68,29.71-4.1,38.54-4.65c2.78-0.17,4.28,0.97,4.05,3.95c-0.31,4.03-1.62,11.34-3,19.12c-0.28,1.57-0.56,3.15-0.83,4.74" style="fill:none;stroke:#999;stroke-width:3" />
<path d="M702.45,32.2c14.05-1.82,31.67-3.82,37.4-4.06" style="fill:none;stroke:#999;stroke-width:3" />
<path d="M704.83,44.24c10.38-1.19,20.92-2.74,32.29-3.37" style="fill:none;stroke:#999;stroke-width:3" />
<path d="M692.38,55.34c1.2,1.2,1.71,2.58,1.91,3.81c1.11,6.71,2.26,20.24,3.12,29.34c0.27,2.91,0.52,5.37,0.72,7.01" style="fill:none;stroke:black;stroke-width:3" />
<circle cx="692.38" cy="55.34" r="5" stroke-width="0" fill="#FF2A00" opacity="0.7" />
<path d="M792.52,15c0.2,1.98-0.06,3.56-0.69,5.25C787.75,31.04 782.34,42.16 773.0,55.29" style="fill:none;stroke:#999;stroke-width:3" />
<path d="M786.45,37.25c0.96,0.96,1.4,2.35,1.4,3.86c0,14.3,0.07,35,0.09,47.64c0.01,2.96,0.01,5.51,0.01,7.5" style="fill:none;stroke:#999;stroke-width:3" />
<path d="M806.4200000000001,18.93c0.89,0.89,1.68,1.92,1.95,3.15c1.09,5.05,2.71,13.7,3.69,19.38c0.49,2.8,0.82,4.88,0.87,5.44" style="fill:none;stroke:#999;stroke-width:3" />
<path d="M808.02,20.12c16.06-2.68,29.71-4.1,38.54-4.65c2.78-0.17,4.28,0.97,4.05,3.95c-0.31,4.03-1.62,11.34-3,19.12c-0.28,1.57-0.56,3.15-0.83,4.74" style="fill:none;stroke:#999;stroke-width:3" />
<path d="M811.45,32.2c14.05-1.82,31.67-3.82,37.4-4.06" style="fill:none;stroke:#999;stroke-width:3" />
<path d="M813.83,44.24c10.38-1.19,20.92-2.74,32.29-3.37" style="fill:none;stroke:#999;stroke-width:3" />
<path d="M801.38,55.34c1.2,1.2,1.71,2.58,1.91,3.81c1.11,6.71,2.26,20.24,3.12,29.34c0.27,2.91,0.52,5.37,0.72,7.01" style="fill:none;stroke:#999;stroke-width:3" />
<path d="M803.99,58.23c7.39-0.96,45.01-4.86,49.42-5.31c3.18-0.32,5.17,1.76,5.06,3.88c-0.27,5.13-3.36,27.11-5.67,33.67c-2.3,6.52-3.17,5-5.92-0.06" style="fill:none;stroke:black;stroke-width:3" />
<circle cx="803.99" cy="58.23" r="5" stroke-width="0" fill="#FF2A00" opacity="0.7" />
<path d="M901.52,15c0.2,1.98-0.06,3.56-0.69,5.25C896.75,31.04 891.34,42.16 882.0,55.29" style="fill:none;stroke:#999;stroke-width:3" />
<path d="M895.45,37.25c0.96,0.96,1.4,2.35,1.4,3.86c0,14.3,0.07,35,0.09,47.64c0.01,2.96,0.01,5.51,0.01,7.5" style="fill:none;stroke:#999;stroke-width:3" />
<path d="M915.4200000000001,18.93c0.89,0.89,1.68,1.92,1.95,3.15c1.09,5.05,2.71,13.7,3.69,19.38c0.49,2.8,0.82,4.88,0.87,5.44" style="fill:none;stroke:#999;stroke-width:3" />
<path d="M917.02,20.12c16.06-2.68,29.71-4.1,38.54-4.65c2.78-0.17,4.28,0.97,4.05,3.95c-0.31,4.03-1.62,11.34-3,19.12c-0.28,1.57-0.56,3.15-0.83,4.74" style="fill:none;stroke:#999;stroke-width:3" />
<path d="M920.45,32.2c14.05-1.82,31.67-3.82,37.4-4.06" style="fill:none;stroke:#999;stroke-width:3" />
<path d="M922.83,44.24c10.38-1.19,20.92-2.74,32.29-3.37" style="fill:none;stroke:#999;stroke-width:3" />
<path d="M910.38,55.34c1.2,1.2,1.71,2.58,1.91,3.81c1.11,6.71,2.26,20.24,3.12,29.34c0.27,2.91,0.52,5.37,0.72,7.01" style="fill:none;stroke:#999;stroke-width:3" />
<path d="M912.99,58.23c7.39-0.96,45.01-4.86,49.42-5.31c3.18-0.32,5.17,1.76,5.06,3.88c-0.27,5.13-3.36,27.11-5.67,33.67c-2.3,6.52-3.17,5-5.92-0.06" style="fill:none;stroke:#999;stroke-width:3" />
<path d="M936.27,19.48c0.81,0.81,1.4,1.75,1.4,3.3c-0.01,6.8-0.04,49.88-0.04,51.97" style="fill:none;stroke:black;stroke-width:3" />
<circle cx="936.27" cy="19.48" r="5" stroke-width="0" fill="#FF2A00" opacity="0.7" />
<path d="M1010.52,15c0.2,1.98-0.06,3.56-0.69,5.25C1005.75,31.04 1000.34,42.16 991.0,55.29" style="fill:none;stroke:#999;stroke-width:3" />
<path d="M1004.45,37.25c0.96,0.96,1.4,2.35,1.4,3.86c0,14.3,0.07,35,0.09,47.64c0.01,2.96,0.01,5.51,0.01,7.5" style="fill:none;stroke:#999;stroke-width:3" />
<path d="M1024.42,18.93c0.89,0.89,1.68,1.92,1.95,3.15c1.09,5.05,2.71,13.7,3.69,19.38c0.49,2.8,0.82,4.88,0.87,5.44" style="fill:none;stroke:#999;stroke-width:3" />
<path d="M1026.02,20.12c16.06-2.68,29.71-4.1,38.54-4.65c2.78-0.17,4.28,0.97,4.05,3.95c-0.31,4.03-1.62,11.34-3,19.12c-0.28,1.57-0.56,3.15-0.83,4.74" style="fill:none;stroke:#999;stroke-width:3" />
<path d="M1029.45,32.2c14.05-1.82,31.67-3.82,37.4-4.06" style="fill:none;stroke:#999;stroke-width:3" />
<path d="M1031.83,44.24c10.38-1.19,20.92-2.74,32.29-3.37" style="fill:none;stroke:#999;stroke-width:3" />
<path d="M1019.38,55.34c1.2,1.2,1.71,2.58,1.91,3.81c1.11,6.71,2.26,20.24,3.12,29.34c0.27,2.91,0.52,5.37,0.72,7.01" style="fill:none;stroke:#999;stroke-width:3" />
<path d="M1021.99,58.23c7.39-0.96,45.01-4.86,49.42-5.31c3.18-0.32,5.17,1.76,5.06,3.88c-0.27,5.13-3.36,27.11-5.67,33.67c-2.3,6.52-3.17,5-5.92-0.06" style="fill:none;stroke:#999;stroke-width:3" />
<path d="M1045.27,19.48c0.81,0.81,1.4,1.75,1.4,3.3c-0.01,6.8-0.04,49.88-0.04,51.97" style="fill:none;stroke:#999;stroke-width:3" />
<path d="M1032.79,78.2c1.21,1.18,2.57,0.88,3.86,0.45c3.63-1.21,14.98-5.15,23.63-7.95" style="fill:none;stroke:black;stroke-width:3" />
<circle cx="1032.79" cy="78.2" r="5" stroke-width="0" fill="#FF2A00" opacity="0.7" />
<path d="M1119.52,15c0.2,1.98-0.06,3.56-0.69,5.25C1114.75,31.04 1109.3400000000001,42.16 1100.0,55.29" style="fill:none;stroke:#999;stroke-width:3" />
<path d="M1113.45,37.25c0.96,0.96,1.4,2.35,1.4,3.86c0,14.3,0.07,35,0.09,47.64c0.01,2.96,0.01,5.51,0.01,7.5" style="fill:none;stroke:#999;stroke-width:3" />
<path d="M1133.42,18.93c0.89,0.89,1.68,1.92,1.95,3.15c1.09,5.05,2.71,13.7,3.69,19.38c0.49,2.8,0.82,4.88,0.87,5.44" style="fill:none;stroke:#999;stroke-width:3" />
<path d="M1135.02,20.12c16.06-2.68,29.71-4.1,38.54-4.65c2.78-0.17,4.28,0.97,4.05,3.95c-0.31,4.03-1.62,11.34-3,19.12c-0.28,1.57-0.56,3.15-0.83,4.74" style="fill:none;stroke:#999;stroke-width:3" />
<path d="M1138.45,32.2c14.05-1.82,31.67-3.82,37.4-4.06" style="fill:none;stroke:#999;stroke-width:3" />
<path d="M1140.83,44.24c10.38-1.19,20.92-2.74,32.29-3.37" style="fill:none;stroke:#999;stroke-width:3" />
<path d="M1128.38,55.34c1.2,1.2,1.71,2.58,1.91,3.81c1.11,6.71,2.26,20.24,3.12,29.34c0.27,2.91,0.52,5.37,0.72,7.01" style="fill:none;stroke:#999;stroke-width:3" />
<path d="M1130.99,58.23c7.39-0.96,45.01-4.86,49.42-5.31c3.18-0.32,5.17,1.76,5.06,3.88c-0.27,5.13-3.36,27.11-5.67,33.67c-2.3,6.52-3.17,5-5.92-0.06" style="fill:none;stroke:#999;stroke-width:3" />
<path d="M1154.27,19.48c0.81,0.81,1.4,1.75,1.4,3.3c-0.01,6.8-0.04,49.88-0.04,51.97" style="fill:none;stroke:#999;stroke-width:3" />
<path d="M1141.79,78.2c1.21,1.18,2.57,0.88,3.86,0.45c3.63-1.21,14.98-5.15,23.63-7.95" style="fill:none;stroke:#999;stroke-width:3" />
<path d="M1165.5,64c3.17,2.49,8.18,10.24,8.97,14.12" style="fill:none;stroke:black;stroke-width:3" />
<circle cx="1165.5" cy="64.0" r="5" stroke-width="0" fill="#FF2A00" opacity="0.7" />
</svg>