<!-- 05098 -->
<svg width="1308px" height="109px" viewBox="0 0 1308px 109px" xmlns="http://www.w3.org/2000/svg" xmlns:xlink="http://www.w3.org/1999/xlink" xml:space="preserve" version="1.1"  baseProfile="full">
<line x1="1" y1="1" x2="1307" y2="1" style="stroke:#ddd;stroke-width:2" />
<line x1="1" y1="1" x2="1" y2="108" style="stroke:#ddd;stroke-width:2" />
<line x1="1" y1="108" x2="1307" y2="108" style="stroke:#ddd;stroke-width:2" />
<line x1="1307" y1="1" x2="1307" y2="108" style="stroke:#ddd;stroke-width:2" />
<line x1="109" y1="1" x2="109" y2="108" style="stroke:#ddd;stroke-width:2" />
<line x1="218" y1="1" x2="218" y2="108" style="stroke:#ddd;stroke-width:2" />
<line x1="327" y1="1" x2="327" y2="108" style="stroke:#ddd;stroke-width:2" />
<line x1="436" y1="1" x2="436" y2="108" style="stroke:#ddd;stroke-width:2" />
<line x1="545" y1="1" x2="545" y2="108" style="stroke:#ddd;stroke-width:2" />
<line x1="654" y1="1" x2="654" y2="108" style="stroke:#ddd;stroke-width:2" />
<line x1="763" y1="1" x2="763" y2="108" style="stroke:#ddd;stroke-width:2" />
<line x1="872" y1="1" x2="872" y2="108" style="stroke:#ddd;stroke-width:2" />
<line x1="981" y1="1" x2="981" y2="108" style="stroke:#ddd;stroke-width:2" />
<line x1="1090" y1="1" x2="1090" y2="108" style="stroke:#ddd;stroke-width:2" />
<line x1="1199" y1="1" x2="1199" y2="108" style="stroke:#ddd;stroke-width:2" />
<line x1="1" y1="54" x2="1307" y2="54" style="stroke:#ddd;stroke-width:2;stroke-dasharray:3 3" />
<line x1="55" y1="1" x2="55" y2="108" style="stroke:#ddd;stroke-width:2;stroke-dasharray:3 3" />
<line x1="164" y1="1" x2="164" y2="108" style="stroke:#ddd;stroke-width:2;stroke-dasharray:3 3" />
<line x1="273" y1="1" x2="273" y2="108" style="stroke:#ddd;stroke-width:2;stroke-dasharray:3 3" />
<line x1="382" y1="1" x2="382" y2="108" style="stroke:#ddd;stroke-width:2;stroke-dasharray:3 3" />
<line x1="491" y1="1" x2="491" y2="108" style="stroke:#ddd;stroke-width:2;stroke-dasharray:3 3" />
<line x1="600" y1="1" x2="600" y2="108" style="stroke:#ddd;stroke-width:2;stroke-dasharray:3 3" />
<line x1="709" y1="1" x2="709" y2="108" style="stroke:#ddd;stroke-width:2;stroke-dasharray:3 3" />
<line x1="818" y1="1" x2="818" y2="108" style="stroke:#ddd;stroke-width:2;stroke-dasharray:3 3" />
<line x1="927" y1="1" x2="927" y2="108" style="stroke:#ddd;stroke-width:2;stroke-dasharray:3 3" />
<line x1="1036" y1="1" x2="1036" y2="108" style="stroke:#ddd;stroke-width:2;stroke-dasharray:3 3" />
<line x1="1145" y1="1" x2="1145" y2="108" style="stroke:#ddd;stroke-width:2;stroke-dasharray:3 3" />
<line x1="1254" y1="1" x2="1254" y2="108" style="stroke:#ddd;stroke-width:2;stroke-dasharray:3 3" />
<path d="M53.99,9.75c0.12,0.89-0.15,2.25-1,3.35C46.5,21.5 32.0,37.75 9.75,47.75" style="fill:none;stroke:black;stroke-width:3" />
<circle cx="53.99" cy="9.75" r="5" stroke-width="0" fill="#FF2A00" opacity="0.7" />
<path d="M162.99,9.75c0.12,0.89-0.15,2.25-1,3.35C155.5,21.5 141.0,37.75 118.75,47.75" style="fill:none;stroke:#999;stroke-width:3" />
<path d="M164.25,13.38c4.8,4.77,22.51,17.93,31.54,24.38c3.36,2.4,5.21,3.88,9.96,5.35" style="fill:none;stroke:black;stroke-width:3" />
<circle cx="164.25" cy="13.38" r="5" stroke-width="0" fill="#FF2A00" opacity="0.7" />
<path d="M271.99,9.75c0.12,0.89-0.15,2.25-1,3.35C264.5,21.5 250.0,37.75 227.75,47.75" style="fill:none;stroke:#999;stroke-width:3" />
<path d="M273.25,13.38c4.8,4.77,22.51,17.93,31.54,24.38c3.36,2.4,5.21,3.88,9.96,5.35" style="fill:none;stroke:#999;stroke-width:3" />
<path d="M256.02,37.89c0.1,1.04-0.06,1.66-0.55,2.6c-1.91,3.71-6.38,9.47-13.41,14.47" style="fill:none;stroke:black;stroke-width:3" />
<circle cx="256.02" cy="37.89" r="5" stroke-width="0" fill="#FF2A00" opacity="0.7" />
<path d="M380.99,9.75c0.12,0.89-0.15,2.25-1,3.35C373.5,21.5 359.0,37.75 336.75,47.75" style="fill:none;stroke:#999;stroke-width:3" />
<path d="M382.25,13.38c4.8,4.77,22.51,17.93,31.54,24.38c3.36,2.4,5.21,3.88,9.96,5.35" style="fill:none;stroke:#999;stroke-width:3" />
<path d="M365.02,37.89c0.1,1.04-0.06,1.66-0.55,2.6c-1.91,3.71-6.38,9.47-13.41,14.47" style="fill:none;stroke:#999;stroke-width:3" />
<path d="M363.88,45c3.59,1.63,9.28,6.69,10.18,9.22" style="fill:none;stroke:black;stroke-width:3" />
<circle cx="363.88" cy="45.0" r="5" stroke-width="0" fill="#FF2A00" opacity="0.7" />
<path d="M489.99,9.75c0.12,0.89-0.15,2.25-1,3.35C482.5,21.5 468.0,37.75 445.75,47.75" style="fill:none;stroke:#999;stroke-width:3" />
<path d="M491.25,13.38c4.8,4.77,22.51,17.93,31.54,24.38c3.36,2.4,5.21,3.88,9.96,5.35" style="fill:none;stroke:#999;stroke-width:3" />
<path d="M474.02,37.89c0.1,1.04-0.06,1.66-0.55,2.6c-1.91,3.71-6.38,9.47-13.41,14.47" style="fill:none;stroke:#999;stroke-width:3" />
<path d="M472.88,45c3.59,1.63,9.28,6.69,10.18,9.22" style="fill:none;stroke:#999;stroke-width:3" />
<path d="M472.27,55.39c0.11,0.83,0,1.63-0.33,2.38c-1.38,3.55-5.99,9.51-13.37,14.95" style="fill:none;stroke:black;stroke-width:3" />
<circle cx="472.27" cy="55.39" r="5" stroke-width="0" fill="#FF2A00" opacity="0.7" />
<path d="M598.99,9.75c0.12,0.89-0.15,2.25-1,3.35C591.5,21.5 577.0,37.75 554.75,47.75" style="fill:none;stroke:#999;stroke-width:3" />
<path d="M600.25,13.38c4.8,4.77,22.51,17.93,31.54,24.38c3.36,2.4,5.21,3.88,9.96,5.35" style="fill:none;stroke:#999;stroke-width:3" />
<path d="M583.02,37.89c0.1,1.04-0.06,1.66-0.55,2.6c-1.91,3.71-6.38,9.47-13.41,14.47" style="fill:none;stroke:#999;stroke-width:3" />
<path d="M581.88,45c3.59,1.63,9.28,6.69,10.18,9.22" style="fill:none;stroke:#999;stroke-width:3" />
<path d="M581.27,55.39c0.11,0.83,0,1.63-0.33,2.38c-1.38,3.55-5.99,9.51-13.37,14.95" style="fill:none;stroke:#999;stroke-width:3" />
<path d="M581.5,63.38c3.37,1.38,8.71,5.69,9.56,7.84" style="fill:none;stroke:black;stroke-width:3" />
<circle cx="581.5" cy="63.38" r="5" stroke-width="0" fill="#FF2A00" opacity="0.7" />
<path d="M707.99,9.75c0.12,0.89-0.15,2.25-1,3.35C700.5,21.5 686.0,37.75 663.75,47.75" style="fill:none;stroke:#999;stroke-width:3" />
<path d="M709.25,13.38c4.8,4.77,22.51,17.93,31.54,24.38c3.36,2.4,5.21,3.88,9.96,5.35" style="fill:none;stroke:#999;stroke-width:3" />
<path d="M692.02,37.89c0.1,1.04-0.06,1.66-0.55,2.6c-1.91,3.71-6.38,9.47-13.41,14.47" style="fill:none;stroke:#999;stroke-width:3" />
<path d="M690.88,45c3.59,1.63,9.28,6.69,10.18,9.22" style="fill:none;stroke:#999;stroke-width:3" />
<path d="M690.27,55.39c0.11,0.83,0,1.63-0.33,2.38c-1.38,3.55-5.99,9.51-13.37,14.95" style="fill:none;stroke:#999;stroke-width:3" />
<path d="M690.5,63.38c3.37,1.38,8.71,5.69,9.56,7.84" style="fill:none;stroke:#999;stroke-width:3" />
<path d="M727.16,36.89c0.11,0.82,0,1.59-0.33,2.32c-1.29,3.16-5.57,8.7-11.45,12.91" style="fill:none;stroke:black;stroke-width:3" />
<circle cx="727.16" cy="36.89" r="5" stroke-width="0" fill="#FF2A00" opacity="0.7" />
<path d="M816.99,9.75c0.12,0.89-0.15,2.25-1,3.35C809.5,21.5 795.0,37.75 772.75,47.75" style="fill:none;stroke:#999;stroke-width:3" />
<path d="M818.25,13.38c4.8,4.77,22.51,17.93,31.54,24.38c3.36,2.4,5.21,3.88,9.96,5.35" style="fill:none;stroke:#999;stroke-width:3" />
<path d="M801.02,37.89c0.1,1.04-0.06,1.66-0.55,2.6c-1.91,3.71-6.38,9.47-13.41,14.47" style="fill:none;stroke:#999;stroke-width:3" />
<path d="M799.88,45c3.59,1.63,9.28,6.69,10.18,9.22" style="fill:none;stroke:#999;stroke-width:3" />
<path d="M799.27,55.39c0.11,0.83,0,1.63-0.33,2.38c-1.38,3.55-5.99,9.51-13.37,14.95" style="fill:none;stroke:#999;stroke-width:3" />
<path d="M799.5,63.38c3.37,1.38,8.71,5.69,9.56,7.84" style="fill:none;stroke:#999;stroke-width:3" />
<path d="M836.16,36.89c0.11,0.82,0,1.59-0.33,2.32c-1.29,3.16-5.57,8.7-11.45,12.91" style="fill:none;stroke:#999;stroke-width:3" />
<path d="M836.75,44c3.72,1.49,9.62,6.14,10.55,8.47" style="fill:none;stroke:black;stroke-width:3" />
<circle cx="836.75" cy="44.0" r="5" stroke-width="0" fill="#FF2A00" opacity="0.7" />
<path d="M925.99,9.75c0.12,0.89-0.15,2.25-1,3.35C918.5,21.5 904.0,37.75 881.75,47.75" style="fill:none;stroke:#999;stroke-width:3" />
<path d="M927.25,13.38c4.8,4.77,22.51,17.93,31.54,24.38c3.36,2.4,5.21,3.88,9.96,5.35" style="fill:none;stroke:#999;stroke-width:3" />
<path d="M910.02,37.89c0.1,1.04-0.06,1.66-0.55,2.6c-1.91,3.71-6.38,9.47-13.41,14.47" style="fill:none;stroke:#999;stroke-width:3" />
<path d="M908.88,45c3.59,1.63,9.28,6.69,10.18,9.22" style="fill:none;stroke:#999;stroke-width:3" />
<path d="M908.27,55.39c0.11,0.83,0,1.63-0.33,2.38c-1.38,3.55-5.99,9.51-13.37,14.95" style="fill:none;stroke:#999;stroke-width:3" />
<path d="M908.5,63.38c3.37,1.38,8.71,5.69,9.56,7.84" style="fill:none;stroke:#999;stroke-width:3" />
<path d="M945.16,36.89c0.11,0.82,0,1.59-0.33,2.32c-1.29,3.16-5.57,8.7-11.45,12.91" style="fill:none;stroke:#999;stroke-width:3" />
<path d="M945.75,44c3.72,1.49,9.62,6.14,10.55,8.47" style="fill:none;stroke:#999;stroke-width:3" />
<path d="M946.02,53.64c0.11,0.86-0.02,1.66-0.4,2.42c-1.53,3.53-6.7,9.89-13.56,13.91" style="fill:none;stroke:black;stroke-width:3" />
<circle cx="946.02" cy="53.64" r="5" stroke-width="0" fill="#FF2A00" opacity="0.7" />
<path d="M1034.99,9.75c0.12,0.89-0.15,2.25-1,3.35C1027.5,21.5 1013.0,37.75 990.75,47.75" style="fill:none;stroke:#999;stroke-width:3" />
<path d="M1036.25,13.38c4.8,4.77,22.51,17.93,31.54,24.38c3.36,2.4,5.21,3.88,9.96,5.35" style="fill:none;stroke:#999;stroke-width:3" />
<path d="M1019.02,37.89c0.1,1.04-0.06,1.66-0.55,2.6c-1.91,3.71-6.38,9.47-13.41,14.47" style="fill:none;stroke:#999;stroke-width:3" />
<path d="M1017.88,45c3.59,1.63,9.28,6.69,10.18,9.22" style="fill:none;stroke:#999;stroke-width:3" />
<path d="M1017.27,55.39c0.11,0.83,0,1.63-0.33,2.38c-1.38,3.55-5.99,9.51-13.37,14.95" style="fill:none;stroke:#999;stroke-width:3" />
<path d="M1017.5,63.38c3.37,1.38,8.71,5.69,9.56,7.84" style="fill:none;stroke:#999;stroke-width:3" />
<path d="M1054.1599999999999,36.89c0.11,0.82,0,1.59-0.33,2.32c-1.29,3.16-5.57,8.7-11.45,12.91" style="fill:none;stroke:#999;stroke-width:3" />
<path d="M1054.75,44c3.72,1.49,9.62,6.14,10.55,8.47" style="fill:none;stroke:#999;stroke-width:3" />
<path d="M1055.02,53.64c0.11,0.86-0.02,1.66-0.4,2.42c-1.53,3.53-6.7,9.89-13.56,13.91" style="fill:none;stroke:#999;stroke-width:3" />
<path d="M1055.25,60.5c3.64,1.54,9.4,6.32,10.31,8.72" style="fill:none;stroke:black;stroke-width:3" />
<circle cx="1055.25" cy="60.5" r="5" stroke-width="0" fill="#FF2A00" opacity="0.7" />
<path d="M1143.99,9.75c0.12,0.89-0.15,2.25-1,3.35C1136.5,21.5 1122.0,37.75 1099.75,47.75" style="fill:none;stroke:#999;stroke-width:3" />
<path d="M1145.25,13.38c4.8,4.77,22.51,17.93,31.54,24.38c3.36,2.4,5.21,3.88,9.96,5.35" style="fill:none;stroke:#999;stroke-width:3" />
<path d="M1128.02,37.89c0.1,1.04-0.06,1.66-0.55,2.6c-1.91,3.71-6.38,9.47-13.41,14.47" style="fill:none;stroke:#999;stroke-width:3" />
<path d="M1126.88,45c3.59,1.63,9.28,6.69,10.18,9.22" style="fill:none;stroke:#999;stroke-width:3" />
<path d="M1126.27,55.39c0.11,0.83,0,1.63-0.33,2.38c-1.38,3.55-5.99,9.51-13.37,14.95" style="fill:none;stroke:#999;stroke-width:3" />
<path d="M1126.5,63.38c3.37,1.38,8.71,5.69,9.56,7.84" style="fill:none;stroke:#999;stroke-width:3" />
<path d="M1163.1599999999999,36.89c0.11,0.82,0,1.59-0.33,2.32c-1.29,3.16-5.57,8.7-11.45,12.91" style="fill:none;stroke:#999;stroke-width:3" />
<path d="M1163.75,44c3.72,1.49,9.62,6.14,10.55,8.47" style="fill:none;stroke:#999;stroke-width:3" />
<path d="M1164.02,53.64c0.11,0.86-0.02,1.66-0.4,2.42c-1.53,3.53-6.7,9.89-13.56,13.91" style="fill:none;stroke:#999;stroke-width:3" />
<path d="M1164.25,60.5c3.64,1.54,9.4,6.32,10.31,8.72" style="fill:none;stroke:#999;stroke-width:3" />
<path d="M1105.31,78.74c3.16,0.98,7.31,0.75,10.56,0.39c16.2-1.77,38.59-3.46,54.88-3.94c3.66-0.11,7.58,0.17,11.19,0.84" style="fill:none;stroke:black;stroke-width:3" />
<circle cx="1105.31" cy="78.74" r="5" stroke-width="0" fill="#FF2A00" opacity="0.7" />
<path d="M1252.99,9.75c0.12,0.89-0.15,2.25-1,3.35C1245.5,21.5 1231.0,37.75 1208.75,47.75" style="fill:none;stroke:#999;stroke-width:3" />
<path d="M1254.25,13.38c4.8,4.77,22.51,17.93,31.54,24.38c3.36,2.4,5.21,3.88,9.96,5.35" style="fill:none;stroke:#999;stroke-width:3" />
<path d="M1237.02,37.89c0.1,1.04-0.06,1.66-0.55,2.6c-1.91,3.71-6.38,9.47-13.41,14.47" style="fill:none;stroke:#999;stroke-width:3" />
<path d="M1235.88,45c3.59,1.63,9.28,6.69,10.18,9.22" style="fill:none;stroke:#999;stroke-width:3" />
<path d="M1235.27,55.39c0.11,0.83,0,1.63-0.33,2.38c-1.38,3.55-5.99,9.51-13.37,14.95" style="fill:none;stroke:#999;stroke-width:3" />
<path d="M1235.5,63.38c3.37,1.38,8.71,5.69,9.56,7.84" style="fill:none;stroke:#999;stroke-width:3" />
<path d="M1272.1599999999999,36.89c0.11,0.82,0,1.59-0.33,2.32c-1.29,3.16-5.57,8.7-11.45,12.91" style="fill:none;stroke:#999;stroke-width:3" />
<path d="M1272.75,44c3.72,1.49,9.62,6.14,10.55,8.47" style="fill:none;stroke:#999;stroke-width:3" />
<path d="M1273.02,53.64c0.11,0.86-0.02,1.66-0.4,2.42c-1.53,3.53-6.7,9.89-13.56,13.91" style="fill:none;stroke:#999;stroke-width:3" />
<path d="M1273.25,60.5c3.64,1.54,9.4,6.32,10.31,8.72" style="fill:none;stroke:#999;stroke-width:3" />
<path d="M1214.31,78.74c3.16,0.98,7.31,0.75,10.56,0.39c16.2-1.77,38.59-3.46,54.88-3.94c3.66-0.11,7.58,0.17,11.19,0.84" style="fill:none;stroke:#999;stroke-width:3" />
<path d="M1251.83,32.12c0.67,0.63,1.74,1.87,1.74,4.17c0,11.59,0.05,42.86-0.04,57.22c-0.02,2.79-0.03,5.03-0.03,6.5" style="fill:none;stroke:black;stroke-width:3" />
<circle cx="1251.83" cy="32.12" r="5" stroke-width="0" fill="#FF2A00" opacity="0.7" />
</svg>