<!-- 05102 -->
<svg width="1635px" height="109px" viewBox="0 0 1635px 109px" xmlns="http://www.w3.org/2000/svg" xmlns:xlink="http://www.w3.org/1999/xlink" xml:space="preserve" version="1.1"  baseProfile="full">
<line x1="1" y1="1" x2="1634" y2="1" style="stroke:#ddd;stroke-width:2" />
<line x1="1" y1="1" x2="1" y2="108" style="stroke:#ddd;stroke-width:2" />
<line x1="1" y1="108" x2="1634" y2="108" style="stroke:#ddd;stroke-width:2" />
<line x1="1634" y1="1" x2="1634" y2="108" style="stroke:#ddd;stroke-width:2" />
<line x1="109" y1="1" x2="109" y2="108" style="stroke:#ddd;stroke-width:2" />
<line x1="218" y1="1" x2="218" y2="108" style="stroke:#ddd;stroke-width:2" />
<line x1="327" y1="1" x2="327" y2="108" style="stroke:#ddd;stroke-width:2" />
<line x1="436" y1="1" x2="436" y2="108" style="stroke:#ddd;stroke-width:2" />
<line x1="545" y1="1" x2="545" y2="108" style="stroke:#ddd;stroke-width:2" />
<line x1="654" y1="1" x2="654" y2="108" style="stroke:#ddd;stroke-width:2" />
<line x1="763" y1="1" x2="763" y2="108" style="stroke:#ddd;stroke-width:2" />
<line x1="872" y1="1" x2="872" y2="108" style="stroke:#ddd;stroke-width:2" />
<line x1="981" y1="1" x2="981" y2="108" style="stroke:#ddd;stroke-width:2" />
<line x1="1090" y1="1" x2="1090" y2="108" style="stroke:#ddd;stroke-width:2" />
<line x1="1199" y1="1" x2="1199" y2="108" style="stroke:#ddd;stroke-width:2" />
<line x1="1308" y1="1" x2="1308" y2="108" style="stroke:#ddd;stroke-width:2" />
<line x1="1417" y1="1" x2="1417" y2="108" style="stroke:#ddd;stroke-width:2" />
<line x1="1526" y1="1" x2="1526" y2="108" style="stroke:#ddd;stroke-width:2" />
<line x1="1" y1="54" x2="1634" y2="54" style="stroke:#ddd;stroke-width:2;stroke-dasharray:3 3" />
<line x1="55" y1="1" x2="55" y2="108" style="stroke:#ddd;stroke-width:2;stroke-dasharray:3 3" />
<line x1="164" y1="1" x2="164" y2="108" style="stroke:#ddd;stroke-width:2;stroke-dasharray:3 3" />
<line x1="273" y1="1" x2="273" y2="108" style="stroke:#ddd;stroke-width:2;stroke-dasharray:3 3" />
<line x1="382" y1="1" x2="382" y2="108" style="stroke:#ddd;stroke-width:2;stroke-dasharray:3 3" />
<line x1="491" y1="1" x2="491" y2="108" style="stroke:#ddd;stroke-width:2;stroke-dasharray:3 3" />
<line x1="600" y1="1" x2="600" y2="108" style="stroke:#ddd;stroke-width:2;stroke-dasharray:3 3" />
<line x1="709" y1="1" x2="709" y2="108" style="stroke:#ddd;stroke-width:2;stroke-dasharray:3 3" />
<line x1="818" y1="1" x2="818" y2="108" style="stroke:#ddd;stroke-width:2;stroke-dasharray:3 3" />
<line x1="927" y1="1" x2="927" y2="108" style="stroke:#ddd;stroke-width:2;stroke-dasharray:3 3" />
<line x1="1036" y1="1" x2="1036" y2="108" style="stroke:#ddd;stroke-width:2;stroke-dasharray:3 3" />
<line x1="1145" y1="1" x2="1145" y2="108" style="stroke:#ddd;stroke-width:2;stroke-dasharray:3 3" />
<line x1="1254" y1="1" x2="1254" y2="108" style="stroke:#ddd;stroke-width:2;stroke-dasharray:3 3" />
<line x1="1363" y1="1" x2="1363" y2="108" style="stroke:#ddd;stroke-width:2;stroke-dasharray:3 3" />
<line x1="1472" y1="1" x2="1472" y2="108" style="stroke:#ddd;stroke-width:2;stroke-dasharray:3 3" />
<line x1="1581" y1="1" x2="1581" y2="108" style="stroke:#ddd;stroke-width:2;stroke-dasharray:3 3" />
<path d="M33.43,15c0.14,1.19,0.24,2.68-0.13,4.15C30.96,28.4 21.91,46.29 11.0,58.82" style="fill:none;stroke:black;stroke-width:3" />
<circle cx="33.43" cy="15.0" r="5" stroke-width="0" fill="#FF2A00" opacity="0.7" />
<path d="M142.43,15c0.14,1.19,0.24,2.68-0.13,4.15C139.96,28.4 130.91,46.29 120.0,58.82" style="fill:none;stroke:#999;stroke-width:3" />
<path d="M135.48,39.61c0.59,0.61,0.76,1.97,0.76,3.23c0,13.02-0.29,45.15-0.29,53.9" style="fill:none;stroke:black;stroke-width:3" />
<circle cx="135.48" cy="39.61" r="5" stroke-width="0" fill="#FF2A00" opacity="0.7" />
<path d="M251.43,15c0.14,1.19,0.24,2.68-0.13,4.15C248.96,28.4 239.91,46.29 229.0,58.82" style="fill:none;stroke:#999;stroke-width:3" />
<path d="M244.48,39.61c0.59,0.61,0.76,1.97,0.76,3.23c0,13.02-0.29,45.15-0.29,53.9" style="fill:none;stroke:#999;stroke-width:3" />
<path d="M261.17,20.55c0.29,0.51,0.89,1.79,1.08,2.44c1,3.26,3.79,18.23,3.89,18.91" style="fill:none;stroke:black;stroke-width:3" />
<circle cx="261.17" cy="20.55" r="5" stroke-width="0" fill="#FF2A00" opacity="0.7" />
<path d="M360.43,15c0.14,1.19,0.24,2.68-0.13,4.15C357.96000000000004,28.4 348.90999999999997,46.29 338.0,58.82" style="fill:none;stroke:#999;stroke-width:3" />
<path d="M353.48,39.61c0.59,0.61,0.76,1.97,0.76,3.23c0,13.02-0.29,45.15-0.29,53.9" style="fill:none;stroke:#999;stroke-width:3" />
<path d="M370.17,20.55c0.29,0.51,0.89,1.79,1.08,2.44c1,3.26,3.79,18.23,3.89,18.91" style="fill:none;stroke:#999;stroke-width:3" />
<path d="M372.24,21.5c2.68-0.32,36.07-3.15,38.44-3.24c2.4-0.1,3.03,1.39,2.77,3.14c-0.51,3.45-2.94,10.1-5.01,17.08" style="fill:none;stroke:black;stroke-width:3" />
<circle cx="372.24" cy="21.5" r="5" stroke-width="0" fill="#FF2A00" opacity="0.7" />
<path d="M469.43,15c0.14,1.19,0.24,2.68-0.13,4.15C466.96000000000004,28.4 457.90999999999997,46.29 447.0,58.82" style="fill:none;stroke:#999;stroke-width:3" />
<path d="M462.48,39.61c0.59,0.61,0.76,1.97,0.76,3.23c0,13.02-0.29,45.15-0.29,53.9" style="fill:none;stroke:#999;stroke-width:3" />
<path d="M479.17,20.55c0.29,0.51,0.89,1.79,1.08,2.44c1,3.26,3.79,18.23,3.89,18.91" style="fill:none;stroke:#999;stroke-width:3" />
<path d="M481.24,21.5c2.68-0.32,36.07-3.15,38.44-3.24c2.4-0.1,3.03,1.39,2.77,3.14c-0.51,3.45-2.94,10.1-5.01,17.08" style="fill:none;stroke:#999;stroke-width:3" />
<path d="M491.15999999999997,10.89c0.84,0.46,1.86,2.05,1.92,2.98C493.5,19.5 494.0,30.5 494.68,38.63" style="fill:none;stroke:black;stroke-width:3" />
<circle cx="491.15999999999997" cy="10.89" r="5" stroke-width="0" fill="#FF2A00" opacity="0.7" />
<path d="M578.4300000000001,15c0.14,1.19,0.24,2.68-0.13,4.15C575.96,28.4 566.91,46.29 556.0,58.82" style="fill:none;stroke:#999;stroke-width:3" />
<path d="M571.48,39.61c0.59,0.61,0.76,1.97,0.76,3.23c0,13.02-0.29,45.15-0.29,53.9" style="fill:none;stroke:#999;stroke-width:3" />
<path d="M588.1700000000001,20.55c0.29,0.51,0.89,1.79,1.08,2.44c1,3.26,3.79,18.23,3.89,18.91" style="fill:none;stroke:#999;stroke-width:3" />
<path d="M590.24,21.5c2.68-0.32,36.07-3.15,38.44-3.24c2.4-0.1,3.03,1.39,2.77,3.14c-0.51,3.45-2.94,10.1-5.01,17.08" style="fill:none;stroke:#999;stroke-width:3" />
<path d="M600.16,10.89c0.84,0.46,1.86,2.05,1.92,2.98C602.5,19.5 603.0,30.5 603.6800000000001,38.63" style="fill:none;stroke:#999;stroke-width:3" />
<path d="M615.73,9.73c0.84,0.46,1.18,2.05,1.09,2.98c-0.78,8.9-2.03,19.03-2.65,24.22" style="fill:none;stroke:black;stroke-width:3" />
<circle cx="615.73" cy="9.73" r="5" stroke-width="0" fill="#FF2A00" opacity="0.7" />
<path d="M687.4300000000001,15c0.14,1.19,0.24,2.68-0.13,4.15C684.96,28.4 675.91,46.29 665.0,58.82" style="fill:none;stroke:#999;stroke-width:3" />
<path d="M680.48,39.61c0.59,0.61,0.76,1.97,0.76,3.23c0,13.02-0.29,45.15-0.29,53.9" style="fill:none;stroke:#999;stroke-width:3" />
<path d="M697.1700000000001,20.55c0.29,0.51,0.89,1.79,1.08,2.44c1,3.26,3.79,18.23,3.89,18.91" style="fill:none;stroke:#999;stroke-width:3" />
<path d="M699.24,21.5c2.68-0.32,36.07-3.15,38.44-3.24c2.4-0.1,3.03,1.39,2.77,3.14c-0.51,3.45-2.94,10.1-5.01,17.08" style="fill:none;stroke:#999;stroke-width:3" />
<path d="M709.16,10.89c0.84,0.46,1.86,2.05,1.92,2.98C711.5,19.5 712.0,30.5 712.6800000000001,38.63" style="fill:none;stroke:#999;stroke-width:3" />
<path d="M724.73,9.73c0.84,0.46,1.18,2.05,1.09,2.98c-0.78,8.9-2.03,19.03-2.65,24.22" style="fill:none;stroke:#999;stroke-width:3" />
<path d="M700.41,29.63c2.23,0,35.44-2.6,37.96-2.6" style="fill:none;stroke:black;stroke-width:3" />
<circle cx="700.41" cy="29.63" r="5" stroke-width="0" fill="#FF2A00" opacity="0.7" />
<path d="M796.4300000000001,15c0.14,1.19,0.24,2.68-0.13,4.15C793.96,28.4 784.91,46.29 774.0,58.82" style="fill:none;stroke:#999;stroke-width:3" />
<path d="M789.48,39.61c0.59,0.61,0.76,1.97,0.76,3.23c0,13.02-0.29,45.15-0.29,53.9" style="fill:none;stroke:#999;stroke-width:3" />
<path d="M806.1700000000001,20.55c0.29,0.51,0.89,1.79,1.08,2.44c1,3.26,3.79,18.23,3.89,18.91" style="fill:none;stroke:#999;stroke-width:3" />
<path d="M808.24,21.5c2.68-0.32,36.07-3.15,38.44-3.24c2.4-0.1,3.03,1.39,2.77,3.14c-0.51,3.45-2.94,10.1-5.01,17.08" style="fill:none;stroke:#999;stroke-width:3" />
<path d="M818.16,10.89c0.84,0.46,1.86,2.05,1.92,2.98C820.5,19.5 821.0,30.5 821.6800000000001,38.63" style="fill:none;stroke:#999;stroke-width:3" />
<path d="M833.73,9.73c0.84,0.46,1.18,2.05,1.09,2.98c-0.78,8.9-2.03,19.03-2.65,24.22" style="fill:none;stroke:#999;stroke-width:3" />
<path d="M809.41,29.63c2.23,0,35.44-2.6,37.96-2.6" style="fill:none;stroke:#999;stroke-width:3" />
<path d="M811.81,39.69c4.53-0.33,27.04-2.18,32.69-2.46" style="fill:none;stroke:black;stroke-width:3" />
<circle cx="811.81" cy="39.69" r="5" stroke-width="0" fill="#FF2A00" opacity="0.7" />
<path d="M905.4300000000001,15c0.14,1.19,0.24,2.68-0.13,4.15C902.96,28.4 893.91,46.29 883.0,58.82" style="fill:none;stroke:#999;stroke-width:3" />
<path d="M898.48,39.61c0.59,0.61,0.76,1.97,0.76,3.23c0,13.02-0.29,45.15-0.29,53.9" style="fill:none;stroke:#999;stroke-width:3" />
<path d="M915.1700000000001,20.55c0.29,0.51,0.89,1.79,1.08,2.44c1,3.26,3.79,18.23,3.89,18.91" style="fill:none;stroke:#999;stroke-width:3" />
<path d="M917.24,21.5c2.68-0.32,36.07-3.15,38.44-3.24c2.4-0.1,3.03,1.39,2.77,3.14c-0.51,3.45-2.94,10.1-5.01,17.08" style="fill:none;stroke:#999;stroke-width:3" />
<path d="M927.16,10.89c0.84,0.46,1.86,2.05,1.92,2.98C929.5,19.5 930.0,30.5 930.6800000000001,38.63" style="fill:none;stroke:#999;stroke-width:3" />
<path d="M942.73,9.73c0.84,0.46,1.18,2.05,1.09,2.98c-0.78,8.9-2.03,19.03-2.65,24.22" style="fill:none;stroke:#999;stroke-width:3" />
<path d="M918.41,29.63c2.23,0,35.44-2.6,37.96-2.6" style="fill:none;stroke:#999;stroke-width:3" />
<path d="M920.81,39.69c4.53-0.33,27.04-2.18,32.69-2.46" style="fill:none;stroke:#999;stroke-width:3" />
<path d="M913.15,48.5c1.3,0.44,3.69,0.54,4.99,0.44c10.55-0.82,33.42-3.18,39.04-3.55c2.16-0.14,2.37,0.23,4.55,0.43" style="fill:none;stroke:black;stroke-width:3" />
<circle cx="913.15" cy="48.5" r="5" stroke-width="0" fill="#FF2A00" opacity="0.7" />
<path d="M1014.4300000000001,15c0.14,1.19,0.24,2.68-0.13,4.15C1011.96,28.4 1002.91,46.29 992.0,58.82" style="fill:none;stroke:#999;stroke-width:3" />
<path d="M1007.48,39.61c0.59,0.61,0.76,1.97,0.76,3.23c0,13.02-0.29,45.15-0.29,53.9" style="fill:none;stroke:#999;stroke-width:3" />
<path d="M1024.17,20.55c0.29,0.51,0.89,1.79,1.08,2.44c1,3.26,3.79,18.23,3.89,18.91" style="fill:none;stroke:#999;stroke-width:3" />
<path d="M1026.24,21.5c2.68-0.32,36.07-3.15,38.44-3.24c2.4-0.1,3.03,1.39,2.77,3.14c-0.51,3.45-2.94,10.1-5.01,17.08" style="fill:none;stroke:#999;stroke-width:3" />
<path d="M1036.1599999999999,10.89c0.84,0.46,1.86,2.05,1.92,2.98C1038.5,19.5 1039.0,30.5 1039.68,38.63" style="fill:none;stroke:#999;stroke-width:3" />
<path d="M1051.73,9.73c0.84,0.46,1.18,2.05,1.09,2.98c-0.78,8.9-2.03,19.03-2.65,24.22" style="fill:none;stroke:#999;stroke-width:3" />
<path d="M1027.4099999999999,29.63c2.23,0,35.44-2.6,37.96-2.6" style="fill:none;stroke:#999;stroke-width:3" />
<path d="M1029.81,39.69c4.53-0.33,27.04-2.18,32.69-2.46" style="fill:none;stroke:#999;stroke-width:3" />
<path d="M1022.15,48.5c1.3,0.44,3.69,0.54,4.99,0.44c10.55-0.82,33.42-3.18,39.04-3.55c2.16-0.14,2.37,0.23,4.55,0.43" style="fill:none;stroke:#999;stroke-width:3" />
<path d="M1027.51,49.14C1026.5,67.25 1020.5,82.25 1015.56,90.13" style="fill:none;stroke:black;stroke-width:3" />
<circle cx="1027.51" cy="49.14" r="5" stroke-width="0" fill="#FF2A00" opacity="0.7" />
<path d="M1123.43,15c0.14,1.19,0.24,2.68-0.13,4.15C1120.96,28.4 1111.9099999999999,46.29 1101.0,58.82" style="fill:none;stroke:#999;stroke-width:3" />
<path d="M1116.48,39.61c0.59,0.61,0.76,1.97,0.76,3.23c0,13.02-0.29,45.15-0.29,53.9" style="fill:none;stroke:#999;stroke-width:3" />
<path d="M1133.17,20.55c0.29,0.51,0.89,1.79,1.08,2.44c1,3.26,3.79,18.23,3.89,18.91" style="fill:none;stroke:#999;stroke-width:3" />
<path d="M1135.24,21.5c2.68-0.32,36.07-3.15,38.44-3.24c2.4-0.1,3.03,1.39,2.77,3.14c-0.51,3.45-2.94,10.1-5.01,17.08" style="fill:none;stroke:#999;stroke-width:3" />
<path d="M1145.1599999999999,10.89c0.84,0.46,1.86,2.05,1.92,2.98C1147.5,19.5 1148.0,30.5 1148.68,38.63" style="fill:none;stroke:#999;stroke-width:3" />
<path d="M1160.73,9.73c0.84,0.46,1.18,2.05,1.09,2.98c-0.78,8.9-2.03,19.03-2.65,24.22" style="fill:none;stroke:#999;stroke-width:3" />
<path d="M1136.4099999999999,29.63c2.23,0,35.44-2.6,37.96-2.6" style="fill:none;stroke:#999;stroke-width:3" />
<path d="M1138.81,39.69c4.53-0.33,27.04-2.18,32.69-2.46" style="fill:none;stroke:#999;stroke-width:3" />
<path d="M1131.15,48.5c1.3,0.44,3.69,0.54,4.99,0.44c10.55-0.82,33.42-3.18,39.04-3.55c2.16-0.14,2.37,0.23,4.55,0.43" style="fill:none;stroke:#999;stroke-width:3" />
<path d="M1136.51,49.14C1135.5,67.25 1129.5,82.25 1124.56,90.13" style="fill:none;stroke:#999;stroke-width:3" />
<path d="M1145.01,56.15c0.77,0.32,2.19,0.41,2.96,0.32c4.92-0.56,17.39-2.78,22.29-3.3c1.28-0.13,2.06,0.16,2.7,0.32" style="fill:none;stroke:black;stroke-width:3" />
<circle cx="1145.01" cy="56.15" r="5" stroke-width="0" fill="#FF2A00" opacity="0.7" />
<path d="M1232.43,15c0.14,1.19,0.24,2.68-0.13,4.15C1229.96,28.4 1220.9099999999999,46.29 1210.0,58.82" style="fill:none;stroke:#999;stroke-width:3" />
<path d="M1225.48,39.61c0.59,0.61,0.76,1.97,0.76,3.23c0,13.02-0.29,45.15-0.29,53.9" style="fill:none;stroke:#999;stroke-width:3" />
<path d="M1242.17,20.55c0.29,0.51,0.89,1.79,1.08,2.44c1,3.26,3.79,18.23,3.89,18.91" style="fill:none;stroke:#999;stroke-width:3" />
<path d="M1244.24,21.5c2.68-0.32,36.07-3.15,38.44-3.24c2.4-0.1,3.03,1.39,2.77,3.14c-0.51,3.45-2.94,10.1-5.01,17.08" style="fill:none;stroke:#999;stroke-width:3" />
<path d="M1254.1599999999999,10.89c0.84,0.46,1.86,2.05,1.92,2.98C1256.5,19.5 1257.0,30.5 1257.68,38.63" style="fill:none;stroke:#999;stroke-width:3" />
<path d="M1269.73,9.73c0.84,0.46,1.18,2.05,1.09,2.98c-0.78,8.9-2.03,19.03-2.65,24.22" style="fill:none;stroke:#999;stroke-width:3" />
<path d="M1245.4099999999999,29.63c2.23,0,35.44-2.6,37.96-2.6" style="fill:none;stroke:#999;stroke-width:3" />
<path d="M1247.81,39.69c4.53-0.33,27.04-2.18,32.69-2.46" style="fill:none;stroke:#999;stroke-width:3" />
<path d="M1240.15,48.5c1.3,0.44,3.69,0.54,4.99,0.44c10.55-0.82,33.42-3.18,39.04-3.55c2.16-0.14,2.37,0.23,4.55,0.43" style="fill:none;stroke:#999;stroke-width:3" />
<path d="M1245.51,49.14C1244.5,67.25 1238.5,82.25 1233.56,90.13" style="fill:none;stroke:#999;stroke-width:3" />
<path d="M1254.01,56.15c0.77,0.32,2.19,0.41,2.96,0.32c4.92-0.56,17.39-2.78,22.29-3.3c1.28-0.13,2.06,0.16,2.7,0.32" style="fill:none;stroke:#999;stroke-width:3" />
<path d="M1246.54,66.72c0.82,0.29,2.33,0.37,3.15,0.29c5.23-0.5,34.26-3.49,39.92-3.58c1.37-0.02,3.94,0.14,4.63,0.28" style="fill:none;stroke:black;stroke-width:3" />
<circle cx="1246.54" cy="66.72" r="5" stroke-width="0" fill="#FF2A00" opacity="0.7" />
<path d="M1341.43,15c0.14,1.19,0.24,2.68-0.13,4.15C1338.96,28.4 1329.9099999999999,46.29 1319.0,58.82" style="fill:none;stroke:#999;stroke-width:3" />
<path d="M1334.48,39.61c0.59,0.61,0.76,1.97,0.76,3.23c0,13.02-0.29,45.15-0.29,53.9" style="fill:none;stroke:#999;stroke-width:3" />
<path d="M1351.17,20.55c0.29,0.51,0.89,1.79,1.08,2.44c1,3.26,3.79,18.23,3.89,18.91" style="fill:none;stroke:#999;stroke-width:3" />
<path d="M1353.24,21.5c2.68-0.32,36.07-3.15,38.44-3.24c2.4-0.1,3.03,1.39,2.77,3.14c-0.51,3.45-2.94,10.1-5.01,17.08" style="fill:none;stroke:#999;stroke-width:3" />
<path d="M1363.1599999999999,10.89c0.84,0.46,1.86,2.05,1.92,2.98C1365.5,19.5 1366.0,30.5 1366.68,38.63" style="fill:none;stroke:#999;stroke-width:3" />
<path d="M1378.73,9.73c0.84,0.46,1.18,2.05,1.09,2.98c-0.78,8.9-2.03,19.03-2.65,24.22" style="fill:none;stroke:#999;stroke-width:3" />
<path d="M1354.4099999999999,29.63c2.23,0,35.44-2.6,37.96-2.6" style="fill:none;stroke:#999;stroke-width:3" />
<path d="M1356.81,39.69c4.53-0.33,27.04-2.18,32.69-2.46" style="fill:none;stroke:#999;stroke-width:3" />
<path d="M1349.15,48.5c1.3,0.44,3.69,0.54,4.99,0.44c10.55-0.82,33.42-3.18,39.04-3.55c2.16-0.14,2.37,0.23,4.55,0.43" style="fill:none;stroke:#999;stroke-width:3" />
<path d="M1354.51,49.14C1353.5,67.25 1347.5,82.25 1342.56,90.13" style="fill:none;stroke:#999;stroke-width:3" />
<path d="M1363.01,56.15c0.77,0.32,2.19,0.41,2.96,0.32c4.92-0.56,17.39-2.78,22.29-3.3c1.28-0.13,2.06,0.16,2.7,0.32" style="fill:none;stroke:#999;stroke-width:3" />
<path d="M1355.54,66.72c0.82,0.29,2.33,0.37,3.15,0.29c5.23-0.5,34.26-3.49,39.92-3.58c1.37-0.02,3.94,0.14,4.63,0.28" style="fill:none;stroke:#999;stroke-width:3" />
<path d="M1361.91,69.57c1.13,1.32,1.05,1.89,1.05,3.78c0,8.94-0.26,15.89-0.26,20.9c0,1.46,0.83,2.87,2.41,1.73c1.58-1.13,9.78-9.08,11.88-10.21" style="fill:none;stroke:black;stroke-width:3" />
<circle cx="1361.91" cy="69.57" r="5" stroke-width="0" fill="#FF2A00" opacity="0.7" />
<path d="M1450.43,15c0.14,1.19,0.24,2.68-0.13,4.15C1447.96,28.4 1438.9099999999999,46.29 1428.0,58.82" style="fill:none;stroke:#999;stroke-width:3" />
<path d="M1443.48,39.61c0.59,0.61,0.76,1.97,0.76,3.23c0,13.02-0.29,45.15-0.29,53.9" style="fill:none;stroke:#999;stroke-width:3" />
<path d="M1460.17,20.55c0.29,0.51,0.89,1.79,1.08,2.44c1,3.26,3.79,18.23,3.89,18.91" style="fill:none;stroke:#999;stroke-width:3" />
<path d="M1462.24,21.5c2.68-0.32,36.07-3.15,38.44-3.24c2.4-0.1,3.03,1.39,2.77,3.14c-0.51,3.45-2.94,10.1-5.01,17.08" style="fill:none;stroke:#999;stroke-width:3" />
<path d="M1472.1599999999999,10.89c0.84,0.46,1.86,2.05,1.92,2.98C1474.5,19.5 1475.0,30.5 1475.68,38.63" style="fill:none;stroke:#999;stroke-width:3" />
<path d="M1487.73,9.73c0.84,0.46,1.18,2.05,1.09,2.98c-0.78,8.9-2.03,19.03-2.65,24.22" style="fill:none;stroke:#999;stroke-width:3" />
<path d="M1463.4099999999999,29.63c2.23,0,35.44-2.6,37.96-2.6" style="fill:none;stroke:#999;stroke-width:3" />
<path d="M1465.81,39.69c4.53-0.33,27.04-2.18,32.69-2.46" style="fill:none;stroke:#999;stroke-width:3" />
<path d="M1458.15,48.5c1.3,0.44,3.69,0.54,4.99,0.44c10.55-0.82,33.42-3.18,39.04-3.55c2.16-0.14,2.37,0.23,4.55,0.43" style="fill:none;stroke:#999;stroke-width:3" />
<path d="M1463.51,49.14C1462.5,67.25 1456.5,82.25 1451.56,90.13" style="fill:none;stroke:#999;stroke-width:3" />
<path d="M1472.01,56.15c0.77,0.32,2.19,0.41,2.96,0.32c4.92-0.56,17.39-2.78,22.29-3.3c1.28-0.13,2.06,0.16,2.7,0.32" style="fill:none;stroke:#999;stroke-width:3" />
<path d="M1464.54,66.72c0.82,0.29,2.33,0.37,3.15,0.29c5.23-0.5,34.26-3.49,39.92-3.58c1.37-0.02,3.94,0.14,4.63,0.28" style="fill:none;stroke:#999;stroke-width:3" />
<path d="M1470.91,69.57c1.13,1.32,1.05,1.89,1.05,3.78c0,8.94-0.26,15.89-0.26,20.9c0,1.46,0.83,2.87,2.41,1.73c1.58-1.13,9.78-9.08,11.88-10.21" style="fill:none;stroke:#999;stroke-width:3" />
<path d="M1498.33,69.74c0.02,0.2,0.04,0.51-0.04,0.8c-0.47,1.68-3.2,5.38-6.93,7.65" style="fill:none;stroke:black;stroke-width:3" />
<circle cx="1498.33" cy="69.74" r="5" stroke-width="0" fill="#FF2A00" opacity="0.7" />
<path d="M1559.43,15c0.14,1.19,0.24,2.68-0.13,4.15C1556.96,28.4 1547.9099999999999,46.29 1537.0,58.82" style="fill:none;stroke:#999;stroke-width:3" />
<path d="M1552.48,39.61c0.59,0.61,0.76,1.97,0.76,3.23c0,13.02-0.29,45.15-0.29,53.9" style="fill:none;stroke:#999;stroke-width:3" />
<path d="M1569.17,20.55c0.29,0.51,0.89,1.79,1.08,2.44c1,3.26,3.79,18.23,3.89,18.91" style="fill:none;stroke:#999;stroke-width:3" />
<path d="M1571.24,21.5c2.68-0.32,36.07-3.15,38.44-3.24c2.4-0.1,3.03,1.39,2.77,3.14c-0.51,3.45-2.94,10.1-5.01,17.08" style="fill:none;stroke:#999;stroke-width:3" />
<path d="M1581.1599999999999,10.89c0.84,0.46,1.86,2.05,1.92,2.98C1583.5,19.5 1584.0,30.5 1584.68,38.63" style="fill:none;stroke:#999;stroke-width:3" />
<path d="M1596.73,9.73c0.84,0.46,1.18,2.05,1.09,2.98c-0.78,8.9-2.03,19.03-2.65,24.22" style="fill:none;stroke:#999;stroke-width:3" />
<path d="M1572.4099999999999,29.63c2.23,0,35.44-2.6,37.96-2.6" style="fill:none;stroke:#999;stroke-width:3" />
<path d="M1574.81,39.69c4.53-0.33,27.04-2.18,32.69-2.46" style="fill:none;stroke:#999;stroke-width:3" />
<path d="M1567.15,48.5c1.3,0.44,3.69,0.54,4.99,0.44c10.55-0.82,33.42-3.18,39.04-3.55c2.16-0.14,2.37,0.23,4.55,0.43" style="fill:none;stroke:#999;stroke-width:3" />
<path d="M1572.51,49.14C1571.5,67.25 1565.5,82.25 1560.56,90.13" style="fill:none;stroke:#999;stroke-width:3" />
<path d="M1581.01,56.15c0.77,0.32,2.19,0.41,2.96,0.32c4.92-0.56,17.39-2.78,22.29-3.3c1.28-0.13,2.06,0.16,2.7,0.32" style="fill:none;stroke:#999;stroke-width:3" />
<path d="M1573.54,66.72c0.82,0.29,2.33,0.37,3.15,0.29c5.23-0.5,34.26-3.49,39.92-3.58c1.37-0.02,3.94,0.14,4.63,0.28" style="fill:none;stroke:#999;stroke-width:3" />
<path d="M1579.91,69.57c1.13,1.32,1.05,1.89,1.05,3.78c0,8.94-0.26,15.89-0.26,20.9c0,1.46,0.83,2.87,2.41,1.73c1.58-1.13,9.78-9.08,11.88-10.21" style="fill:none;stroke:#999;stroke-width:3" />
<path d="M1607.33,69.74c0.02,0.2,0.04,0.51-0.04,0.8c-0.47,1.68-3.2,5.38-6.93,7.65" style="fill:none;stroke:#999;stroke-width:3" />
<path d="M1588.16,71.19C1591.75,71.25 1609.5,87 1616.35,91.12c1.64,0.99,2.98,1.51,4.58,1.81" style="fill:none;stroke:black;stroke-width:3" />
<circle cx="1588.16" cy="71.19" r="5" stroke-width="0" fill="#FF2A00" opacity="0.7" />
</svg>