<!-- 051a5 -->
<svg width="1090px" height="109px" viewBox="0 0 1090px 109px" xmlns="http://www.w3.org/2000/svg" xmlns:xlink="http://www.w3.org/1999/xlink" xml:space="preserve" version="1.1"  baseProfile="full">
<line x1="1" y1="1" x2="1089" y2="1" style="stroke:#ddd;stroke-width:2" />
<line x1="1" y1="1" x2="1" y2="108" style="stroke:#ddd;stroke-width:2" />
<line x1="1" y1="108" x2="1089" y2="108" style="stroke:#ddd;stroke-width:2" />
<line x1="1089" y1="1" x2="1089" y2="108" style="stroke:#ddd;stroke-width:2" />
<line x1="109" y1="1" x2="109" y2="108" style="stroke:#ddd;stroke-width:2" />
<line x1="218" y1="1" x2="218" y2="108" style="stroke:#ddd;stroke-width:2" />
<line x1="327" y1="1" x2="327" y2="108" style="stroke:#ddd;stroke-width:2" />
<line x1="436" y1="1" x2="436" y2="108" style="stroke:#ddd;stroke-width:2" />
<line x1="545" y1="1" x2="545" y2="108" style="stroke:#ddd;stroke-width:2" />
<line x1="654" y1="1" x2="654" y2="108" style="stroke:#ddd;stroke-width:2" />
<line x1="763" y1="1" x2="763" y2="108" style="stroke:#ddd;stroke-width:2" />
<line x1="872" y1="1" x2="872" y2="108" style="stroke:#ddd;stroke-width:2" />
<line x1="981" y1="1" x2="981" y2="108" style="stroke:#ddd;stroke-width:2" />
<line x1="1" y1="54" x2="1089" y2="54" style="stroke:#ddd;stroke-width:2;stroke-dasharray:3 3" />
<line x1="55" y1="1" x2="55" y2="108" style="stroke:#ddd;stroke-width:2;stroke-dasharray:3 3" />
<line x1="164" y1="1" x2="164" y2="108" style="stroke:#ddd;stroke-width:2;stroke-dasharray:3 3" />
<line x1="273" y1="1" x2="273" y2="108" style="stroke:#ddd;stroke-width:2;stroke-dasharray:3 3" />
<line x1="382" y1="1" x2="382" y2="108" style="stroke:#ddd;stroke-width:2;stroke-dasharray:3 3" />
<line x1="491" y1="1" x2="491" y2="108" style="stroke:#ddd;stroke-width:2;stroke-dasharray:3 3" />
<line x1="600" y1="1" x2="600" y2="108" style="stroke:#ddd;stroke-width:2;stroke-dasharray:3 3" />
<line x1="709" y1="1" x2="709" y2="108" style="stroke:#ddd;stroke-width:2;stroke-dasharray:3 3" />
<line x1="818" y1="1" x2="818" y2="108" style="stroke:#ddd;stroke-width:2;stroke-dasharray:3 3" />
<line x1="927" y1="1" x2="927" y2="108" style="stroke:#ddd;stroke-width:2;stroke-dasharray:3 3" />
<line x1="1036" y1="1" x2="1036" y2="108" style="stroke:#ddd;stroke-width:2;stroke-dasharray:3 3" />
<path d="M20.66,15.88c0,4.1-3.55,15.38-5.16,18.12" style="fill:none;stroke:black;stroke-width:3" />
<circle cx="20.66" cy="15.88" r="5" stroke-width="0" fill="#FF2A00" opacity="0.7" />
<path d="M129.66,15.88c0,4.1-3.55,15.38-5.16,18.12" style="fill:none;stroke:#999;stroke-width:3" />
<path d="M129.74,18.24c9.51-0.99,56.74-4.53,64.45-4.9c12.05-0.59,2.55,7.16-0.45,9.28" style="fill:none;stroke:black;stroke-width:3" />
<circle cx="129.74" cy="18.24" r="5" stroke-width="0" fill="#FF2A00" opacity="0.7" />
<path d="M238.66,15.88c0,4.1-3.55,15.38-5.16,18.12" style="fill:none;stroke:#999;stroke-width:3" />
<path d="M238.74,18.24c9.51-0.99,56.74-4.53,64.45-4.9c12.05-0.59,2.55,7.16-0.45,9.28" style="fill:none;stroke:#999;stroke-width:3" />
<path d="M250.32,30.7c0.19,0.25,0.66,1.22,0.98,2.19c1.38,4.19,2.67,14.26,3.52,22.07" style="fill:none;stroke:black;stroke-width:3" />
<circle cx="250.32" cy="30.7" r="5" stroke-width="0" fill="#FF2A00" opacity="0.7" />
<path d="M347.65999999999997,15.88c0,4.1-3.55,15.38-5.16,18.12" style="fill:none;stroke:#999;stroke-width:3" />
<path d="M347.74,18.24c9.51-0.99,56.74-4.53,64.45-4.9c12.05-0.59,2.55,7.16-0.45,9.28" style="fill:none;stroke:#999;stroke-width:3" />
<path d="M359.32,30.7c0.19,0.25,0.66,1.22,0.98,2.19c1.38,4.19,2.67,14.26,3.52,22.07" style="fill:none;stroke:#999;stroke-width:3" />
<path d="M361.25,31.76c10.66-1.05,29.94-2.84,37.9-3.73c2.92-0.33,4.42,0.82,4.27,1.98c-0.55,4.22-2.42,15.74-5.25,23.77" style="fill:none;stroke:black;stroke-width:3" />
<circle cx="361.25" cy="31.76" r="5" stroke-width="0" fill="#FF2A00" opacity="0.7" />
<path d="M456.65999999999997,15.88c0,4.1-3.55,15.38-5.16,18.12" style="fill:none;stroke:#999;stroke-width:3" />
<path d="M456.74,18.24c9.51-0.99,56.74-4.53,64.45-4.9c12.05-0.59,2.55,7.16-0.45,9.28" style="fill:none;stroke:#999;stroke-width:3" />
<path d="M468.32,30.7c0.19,0.25,0.66,1.22,0.98,2.19c1.38,4.19,2.67,14.26,3.52,22.07" style="fill:none;stroke:#999;stroke-width:3" />
<path d="M470.25,31.76c10.66-1.05,29.94-2.84,37.9-3.73c2.92-0.33,4.42,0.82,4.27,1.98c-0.55,4.22-2.42,15.74-5.25,23.77" style="fill:none;stroke:#999;stroke-width:3" />
<path d="M472.24,42.59c3.47-0.41,35.49-2.93,38.36-3.1" style="fill:none;stroke:black;stroke-width:3" />
<circle cx="472.24" cy="42.59" r="5" stroke-width="0" fill="#FF2A00" opacity="0.7" />
<path d="M565.66,15.88c0,4.1-3.55,15.38-5.16,18.12" style="fill:none;stroke:#999;stroke-width:3" />
<path d="M565.74,18.24c9.51-0.99,56.74-4.53,64.45-4.9c12.05-0.59,2.55,7.16-0.45,9.28" style="fill:none;stroke:#999;stroke-width:3" />
<path d="M577.3199999999999,30.7c0.19,0.25,0.66,1.22,0.98,2.19c1.38,4.19,2.67,14.26,3.52,22.07" style="fill:none;stroke:#999;stroke-width:3" />
<path d="M579.25,31.76c10.66-1.05,29.94-2.84,37.9-3.73c2.92-0.33,4.42,0.82,4.27,1.98c-0.55,4.22-2.42,15.74-5.25,23.77" style="fill:none;stroke:#999;stroke-width:3" />
<path d="M581.24,42.59c3.47-0.41,35.49-2.93,38.36-3.1" style="fill:none;stroke:#999;stroke-width:3" />
<path d="M581.88,54.32c7.68-0.45,24.2-2.32,34.8-3.06" style="fill:none;stroke:black;stroke-width:3" />
<circle cx="581.88" cy="54.32" r="5" stroke-width="0" fill="#FF2A00" opacity="0.7" />
<path d="M674.66,15.88c0,4.1-3.55,15.38-5.16,18.12" style="fill:none;stroke:#999;stroke-width:3" />
<path d="M674.74,18.24c9.51-0.99,56.74-4.53,64.45-4.9c12.05-0.59,2.55,7.16-0.45,9.28" style="fill:none;stroke:#999;stroke-width:3" />
<path d="M686.3199999999999,30.7c0.19,0.25,0.66,1.22,0.98,2.19c1.38,4.19,2.67,14.26,3.52,22.07" style="fill:none;stroke:#999;stroke-width:3" />
<path d="M688.25,31.76c10.66-1.05,29.94-2.84,37.9-3.73c2.92-0.33,4.42,0.82,4.27,1.98c-0.55,4.22-2.42,15.74-5.25,23.77" style="fill:none;stroke:#999;stroke-width:3" />
<path d="M690.24,42.59c3.47-0.41,35.49-2.93,38.36-3.1" style="fill:none;stroke:#999;stroke-width:3" />
<path d="M690.88,54.32c7.68-0.45,24.2-2.32,34.8-3.06" style="fill:none;stroke:#999;stroke-width:3" />
<path d="M706.85,59c0.61,0.43,1.61,2.11,1.61,2.97c0,3.42-0.02,6.26-0.08,8.71" style="fill:none;stroke:black;stroke-width:3" />
<circle cx="706.85" cy="59.0" r="5" stroke-width="0" fill="#FF2A00" opacity="0.7" />
<path d="M783.66,15.88c0,4.1-3.55,15.38-5.16,18.12" style="fill:none;stroke:#999;stroke-width:3" />
<path d="M783.74,18.24c9.51-0.99,56.74-4.53,64.45-4.9c12.05-0.59,2.55,7.16-0.45,9.28" style="fill:none;stroke:#999;stroke-width:3" />
<path d="M795.3199999999999,30.7c0.19,0.25,0.66,1.22,0.98,2.19c1.38,4.19,2.67,14.26,3.52,22.07" style="fill:none;stroke:#999;stroke-width:3" />
<path d="M797.25,31.76c10.66-1.05,29.94-2.84,37.9-3.73c2.92-0.33,4.42,0.82,4.27,1.98c-0.55,4.22-2.42,15.74-5.25,23.77" style="fill:none;stroke:#999;stroke-width:3" />
<path d="M799.24,42.59c3.47-0.41,35.49-2.93,38.36-3.1" style="fill:none;stroke:#999;stroke-width:3" />
<path d="M799.88,54.32c7.68-0.45,24.2-2.32,34.8-3.06" style="fill:none;stroke:#999;stroke-width:3" />
<path d="M815.85,59c0.61,0.43,1.61,2.11,1.61,2.97c0,3.42-0.02,6.26-0.08,8.71" style="fill:none;stroke:#999;stroke-width:3" />
<path d="M781.5,73.45c1.23,0.1,4.03,0.66,5.22,0.55c12.9-1.1,49.3-6.07,64.36-5.37c2.03,0.09,3.06,0.05,4.57,0.7" style="fill:none;stroke:black;stroke-width:3" />
<circle cx="781.5" cy="73.45" r="5" stroke-width="0" fill="#FF2A00" opacity="0.7" />
<path d="M892.66,15.88c0,4.1-3.55,15.38-5.16,18.12" style="fill:none;stroke:#999;stroke-width:3" />
<path d="M892.74,18.24c9.51-0.99,56.74-4.53,64.45-4.9c12.05-0.59,2.55,7.16-0.45,9.28" style="fill:none;stroke:#999;stroke-width:3" />
<path d="M904.3199999999999,30.7c0.19,0.25,0.66,1.22,0.98,2.19c1.38,4.19,2.67,14.26,3.52,22.07" style="fill:none;stroke:#999;stroke-width:3" />
<path d="M906.25,31.76c10.66-1.05,29.94-2.84,37.9-3.73c2.92-0.33,4.42,0.82,4.27,1.98c-0.55,4.22-2.42,15.74-5.25,23.77" style="fill:none;stroke:#999;stroke-width:3" />
<path d="M908.24,42.59c3.47-0.41,35.49-2.93,38.36-3.1" style="fill:none;stroke:#999;stroke-width:3" />
<path d="M908.88,54.32c7.68-0.45,24.2-2.32,34.8-3.06" style="fill:none;stroke:#999;stroke-width:3" />
<path d="M924.85,59c0.61,0.43,1.61,2.11,1.61,2.97c0,3.42-0.02,6.26-0.08,8.71" style="fill:none;stroke:#999;stroke-width:3" />
<path d="M890.5,73.45c1.23,0.1,4.03,0.66,5.22,0.55c12.9-1.1,49.3-6.07,64.36-5.37c2.03,0.09,3.06,0.05,4.57,0.7" style="fill:none;stroke:#999;stroke-width:3" />
<path d="M915.6,79.49c0.59,0.84,0.31,3.06-0.7,4.07c-5.49,5.47-12.92,9.93-24.3,14.69" style="fill:none;stroke:black;stroke-width:3" />
<circle cx="915.6" cy="79.49" r="5" stroke-width="0" fill="#FF2A00" opacity="0.7" />
<path d="M1001.66,15.88c0,4.1-3.55,15.38-5.16,18.12" style="fill:none;stroke:#999;stroke-width:3" />
<path d="M1001.74,18.24c9.51-0.99,56.74-4.53,64.45-4.9c12.05-0.59,2.55,7.16-0.45,9.28" style="fill:none;stroke:#999;stroke-width:3" />
<path d="M1013.3199999999999,30.7c0.19,0.25,0.66,1.22,0.98,2.19c1.38,4.19,2.67,14.26,3.52,22.07" style="fill:none;stroke:#999;stroke-width:3" />
<path d="M1015.25,31.76c10.66-1.05,29.94-2.84,37.9-3.73c2.92-0.33,4.42,0.82,4.27,1.98c-0.55,4.22-2.42,15.74-5.25,23.77" style="fill:none;stroke:#999;stroke-width:3" />
<path d="M1017.24,42.59c3.47-0.41,35.49-2.93,38.36-3.1" style="fill:none;stroke:#999;stroke-width:3" />
<path d="M1017.88,54.32c7.68-0.45,24.2-2.32,34.8-3.06" style="fill:none;stroke:#999;stroke-width:3" />
<path d="M1033.85,59c0.61,0.43,1.61,2.11,1.61,2.97c0,3.42-0.02,6.26-0.08,8.71" style="fill:none;stroke:#999;stroke-width:3" />
<path d="M999.5,73.45c1.23,0.1,4.03,0.66,5.22,0.55c12.9-1.1,49.3-6.07,64.36-5.37c2.03,0.09,3.06,0.05,4.57,0.7" style="fill:none;stroke:#999;stroke-width:3" />
<path d="M1024.6,79.49c0.59,0.84,0.31,3.06-0.7,4.07c-5.49,5.47-12.92,9.93-24.3,14.69" style="fill:none;stroke:#999;stroke-width:3" />
<path d="M1047.47,78.86c9.35,5.33,17.07,11.48,21.75,17.95" style="fill:none;stroke:black;stroke-width:3" />
<circle cx="1047.47" cy="78.86" r="5" stroke-width="0" fill="#FF2A00" opacity="0.7" />
</svg>