<!-- 051bd -->
<svg width="872px" height="109px" viewBox="0 0 872px 109px" xmlns="http://www.w3.org/2000/svg" xmlns:xlink="http://www.w3.org/1999/xlink" xml:space="preserve" version="1.1"  baseProfile="full">
<line x1="1" y1="1" x2="871" y2="1" style="stroke:#ddd;stroke-width:2" />
<line x1="1" y1="1" x2="1" y2="108" style="stroke:#ddd;stroke-width:2" />
<line x1="1" y1="108" x2="871" y2="108" style="stroke:#ddd;stroke-width:2" />
<line x1="871" y1="1" x2="871" y2="108" style="stroke:#ddd;stroke-width:2" />
<line x1="109" y1="1" x2="109" y2="108" style="stroke:#ddd;stroke-width:2" />
<line x1="218" y1="1" x2="218" y2="108" style="stroke:#ddd;stroke-width:2" />
<line x1="327" y1="1" x2="327" y2="108" style="stroke:#ddd;stroke-width:2" />
<line x1="436" y1="1" x2="436" y2="108" style="stroke:#ddd;stroke-width:2" />
<line x1="545" y1="1" x2="545" y2="108" style="stroke:#ddd;stroke-width:2" />
<line x1="654" y1="1" x2="654" y2="108" style="stroke:#ddd;stroke-width:2" />
<line x1="763" y1="1" x2="763" y2="108" style="stroke:#ddd;stroke-width:2" />
<line x1="1" y1="54" x2="871" y2="54" style="stroke:#ddd;stroke-width:2;stroke-dasharray:3 3" />
<line x1="55" y1="1" x2="55" y2="108" style="stroke:#ddd;stroke-width:2;stroke-dasharray:3 3" />
<line x1="164" y1="1" x2="164" y2="108" style="stroke:#ddd;stroke-width:2;stroke-dasharray:3 3" />
<line x1="273" y1="1" x2="273" y2="108" style="stroke:#ddd;stroke-width:2;stroke-dasharray:3 3" />
<line x1="382" y1="1" x2="382" y2="108" style="stroke:#ddd;stroke-width:2;stroke-dasharray:3 3" />
<line x1="491" y1="1" x2="491" y2="108" style="stroke:#ddd;stroke-width:2;stroke-dasharray:3 3" />
<line x1="600" y1="1" x2="600" y2="108" style="stroke:#ddd;stroke-width:2;stroke-dasharray:3 3" />
<line x1="709" y1="1" x2="709" y2="108" style="stroke:#ddd;stroke-width:2;stroke-dasharray:3 3" />
<line x1="818" y1="1" x2="818" y2="108" style="stroke:#ddd;stroke-width:2;stroke-dasharray:3 3" />
<path d="M16.29,19.25c3.99,2.19,10.3,9,11.29,12.41" style="fill:none;stroke:black;stroke-width:3" />
<circle cx="16.29" cy="19.25" r="5" stroke-width="0" fill="#FF2A00" opacity="0.7" />
<path d="M125.28999999999999,19.25c3.99,2.19,10.3,9,11.29,12.41" style="fill:none;stroke:#999;stroke-width:3" />
<path d="M120.98,83.17c1.77,1.08,3.94,0.23,5.13-1.5C127.27,79.99 132.5,69 136.77,59.67" style="fill:none;stroke:black;stroke-width:3" />
<circle cx="120.98" cy="83.17" r="5" stroke-width="0" fill="#FF2A00" opacity="0.7" />
<path d="M234.29,19.25c3.99,2.19,10.3,9,11.29,12.41" style="fill:none;stroke:#999;stroke-width:3" />
<path d="M229.98000000000002,83.17c1.77,1.08,3.94,0.23,5.13-1.5C236.26999999999998,79.99 241.5,69 245.77,59.67" style="fill:none;stroke:#999;stroke-width:3" />
<path d="M251.99,23.73c0.94,0.52,2.65,0.63,3.6,0.52C261.75,23.5 275.0,21 281.23,20.26c1.55-0.18,2.5,0.25,3.28,0.51" style="fill:none;stroke:black;stroke-width:3" />
<circle cx="251.99" cy="23.73" r="5" stroke-width="0" fill="#FF2A00" opacity="0.7" />
<path d="M343.28999999999996,19.25c3.99,2.19,10.3,9,11.29,12.41" style="fill:none;stroke:#999;stroke-width:3" />
<path d="M338.98,83.17c1.77,1.08,3.94,0.23,5.13-1.5C345.27,79.99 350.5,69 354.77,59.67" style="fill:none;stroke:#999;stroke-width:3" />
<path d="M360.99,23.73c0.94,0.52,2.65,0.63,3.6,0.52C370.75,23.5 384.0,21 390.23,20.26c1.55-0.18,2.5,0.25,3.28,0.51" style="fill:none;stroke:#999;stroke-width:3" />
<path d="M376.93,25.65c0.18,0.6,0.73,2.41,0.34,3.54c-2.52,7.31-9.02,22.56-16.94,31.36" style="fill:none;stroke:black;stroke-width:3" />
<circle cx="376.93" cy="25.65" r="5" stroke-width="0" fill="#FF2A00" opacity="0.7" />
<path d="M452.28999999999996,19.25c3.99,2.19,10.3,9,11.29,12.41" style="fill:none;stroke:#999;stroke-width:3" />
<path d="M447.98,83.17c1.77,1.08,3.94,0.23,5.13-1.5C454.27,79.99 459.5,69 463.77,59.67" style="fill:none;stroke:#999;stroke-width:3" />
<path d="M469.99,23.73c0.94,0.52,2.65,0.63,3.6,0.52C479.75,23.5 493.0,21 499.23,20.26c1.55-0.18,2.5,0.25,3.28,0.51" style="fill:none;stroke:#999;stroke-width:3" />
<path d="M485.93,25.65c0.18,0.6,0.73,2.41,0.34,3.54c-2.52,7.31-9.02,22.56-16.94,31.36" style="fill:none;stroke:#999;stroke-width:3" />
<path d="M483.62,42.03c0.26,0.04,3.26-0.36,3.95-0.63c2.94-1.15,4.63-1.6,8.72-2.29c2.41-0.41,4.36,1.01,3.72,3.33c-4.25,15.32-16.25,37.82-33.75,49.82" style="fill:none;stroke:black;stroke-width:3" />
<circle cx="483.62" cy="42.03" r="5" stroke-width="0" fill="#FF2A00" opacity="0.7" />
<path d="M561.29,19.25c3.99,2.19,10.3,9,11.29,12.41" style="fill:none;stroke:#999;stroke-width:3" />
<path d="M556.98,83.17c1.77,1.08,3.94,0.23,5.13-1.5C563.27,79.99 568.5,69 572.77,59.67" style="fill:none;stroke:#999;stroke-width:3" />
<path d="M578.99,23.73c0.94,0.52,2.65,0.63,3.6,0.52C588.75,23.5 602.0,21 608.23,20.26c1.55-0.18,2.5,0.25,3.28,0.51" style="fill:none;stroke:#999;stroke-width:3" />
<path d="M594.9300000000001,25.65c0.18,0.6,0.73,2.41,0.34,3.54c-2.52,7.31-9.02,22.56-16.94,31.36" style="fill:none;stroke:#999;stroke-width:3" />
<path d="M592.62,42.03c0.26,0.04,3.26-0.36,3.95-0.63c2.94-1.15,4.63-1.6,8.72-2.29c2.41-0.41,4.36,1.01,3.72,3.33c-4.25,15.32-16.25,37.82-33.75,49.82" style="fill:none;stroke:#999;stroke-width:3" />
<path d="M585.8,55.34c3.56,1.84,9.19,7.58,10.08,10.45" style="fill:none;stroke:black;stroke-width:3" />
<circle cx="585.8" cy="55.34" r="5" stroke-width="0" fill="#FF2A00" opacity="0.7" />
<path d="M670.29,19.25c3.99,2.19,10.3,9,11.29,12.41" style="fill:none;stroke:#999;stroke-width:3" />
<path d="M665.98,83.17c1.77,1.08,3.94,0.23,5.13-1.5C672.27,79.99 677.5,69 681.77,59.67" style="fill:none;stroke:#999;stroke-width:3" />
<path d="M687.99,23.73c0.94,0.52,2.65,0.63,3.6,0.52C697.75,23.5 711.0,21 717.23,20.26c1.55-0.18,2.5,0.25,3.28,0.51" style="fill:none;stroke:#999;stroke-width:3" />
<path d="M703.9300000000001,25.65c0.18,0.6,0.73,2.41,0.34,3.54c-2.52,7.31-9.02,22.56-16.94,31.36" style="fill:none;stroke:#999;stroke-width:3" />
<path d="M701.62,42.03c0.26,0.04,3.26-0.36,3.95-0.63c2.94-1.15,4.63-1.6,8.72-2.29c2.41-0.41,4.36,1.01,3.72,3.33c-4.25,15.32-16.25,37.82-33.75,49.82" style="fill:none;stroke:#999;stroke-width:3" />
<path d="M694.8,55.34c3.56,1.84,9.19,7.58,10.08,10.45" style="fill:none;stroke:#999;stroke-width:3" />
<path d="M727.89,26.37c0.63,0.63,1.43,1.49,1.51,4.52c0.34,14.55-0.22,34.16-0.22,39.12" style="fill:none;stroke:black;stroke-width:3" />
<circle cx="727.89" cy="26.37" r="5" stroke-width="0" fill="#FF2A00" opacity="0.7" />
<path d="M779.29,19.25c3.99,2.19,10.3,9,11.29,12.41" style="fill:none;stroke:#999;stroke-width:3" />
<path d="M774.98,83.17c1.77,1.08,3.94,0.23,5.13-1.5C781.27,79.99 786.5,69 790.77,59.67" style="fill:none;stroke:#999;stroke-width:3" />
<path d="M796.99,23.73c0.94,0.52,2.65,0.63,3.6,0.52C806.75,23.5 820.0,21 826.23,20.26c1.55-0.18,2.5,0.25,3.28,0.51" style="fill:none;stroke:#999;stroke-width:3" />
<path d="M812.9300000000001,25.65c0.18,0.6,0.73,2.41,0.34,3.54c-2.52,7.31-9.02,22.56-16.94,31.36" style="fill:none;stroke:#999;stroke-width:3" />
<path d="M810.62,42.03c0.26,0.04,3.26-0.36,3.95-0.63c2.94-1.15,4.63-1.6,8.72-2.29c2.41-0.41,4.36,1.01,3.72,3.33c-4.25,15.32-16.25,37.82-33.75,49.82" style="fill:none;stroke:#999;stroke-width:3" />
<path d="M803.8,55.34c3.56,1.84,9.19,7.58,10.08,10.45" style="fill:none;stroke:#999;stroke-width:3" />
<path d="M836.89,26.37c0.63,0.63,1.43,1.49,1.51,4.52c0.34,14.55-0.22,34.16-0.22,39.12" style="fill:none;stroke:#999;stroke-width:3" />
<path d="M853.26,15.33c0.63,0.92,1.43,2.49,1.51,5.52c0.34,14.55-0.22,60.16-0.22,65.12c0,11.53-5.3,3.53-7.47,0.75" style="fill:none;stroke:black;stroke-width:3" />
<circle cx="853.26" cy="15.33" r="5" stroke-width="0" fill="#FF2A00" opacity="0.7" />
</svg>