<!-- 051cc -->
<svg width="1090px" height="109px" viewBox="0 0 1090px 109px" xmlns="http://www.w3.org/2000/svg" xmlns:xlink="http://www.w3.org/1999/xlink" xml:space="preserve" version="1.1"  baseProfile="full">
<line x1="1" y1="1" x2="1089" y2="1" style="stroke:#ddd;stroke-width:2" />
<line x1="1" y1="1" x2="1" y2="108" style="stroke:#ddd;stroke-width:2" />
<line x1="1" y1="108" x2="1089" y2="108" style="stroke:#ddd;stroke-width:2" />
<line x1="1089" y1="1" x2="1089" y2="108" style="stroke:#ddd;stroke-width:2" />
<line x1="109" y1="1" x2="109" y2="108" style="stroke:#ddd;stroke-width:2" />
<line x1="218" y1="1" x2="218" y2="108" style="stroke:#ddd;stroke-width:2" />
<line x1="327" y1="1" x2="327" y2="108" style="stroke:#ddd;stroke-width:2" />
<line x1="436" y1="1" x2="436" y2="108" style="stroke:#ddd;stroke-width:2" />
<line x1="545" y1="1" x2="545" y2="108" style="stroke:#ddd;stroke-width:2" />
<line x1="654" y1="1" x2="654" y2="108" style="stroke:#ddd;stroke-width:2" />
<line x1="763" y1="1" x2="763" y2="108" style="stroke:#ddd;stroke-width:2" />
<line x1="872" y1="1" x2="872" y2="108" style="stroke:#ddd;stroke-width:2" />
<line x1="981" y1="1" x2="981" y2="108" style="stroke:#ddd;stroke-width:2" />
<line x1="1" y1="54" x2="1089" y2="54" style="stroke:#ddd;stroke-width:2;stroke-dasharray:3 3" />
<line x1="55" y1="1" x2="55" y2="108" style="stroke:#ddd;stroke-width:2;stroke-dasharray:3 3" />
<line x1="164" y1="1" x2="164" y2="108" style="stroke:#ddd;stroke-width:2;stroke-dasharray:3 3" />
<line x1="273" y1="1" x2="273" y2="108" style="stroke:#ddd;stroke-width:2;stroke-dasharray:3 3" />
<line x1="382" y1="1" x2="382" y2="108" style="stroke:#ddd;stroke-width:2;stroke-dasharray:3 3" />
<line x1="491" y1="1" x2="491" y2="108" style="stroke:#ddd;stroke-width:2;stroke-dasharray:3 3" />
<line x1="600" y1="1" x2="600" y2="108" style="stroke:#ddd;stroke-width:2;stroke-dasharray:3 3" />
<line x1="709" y1="1" x2="709" y2="108" style="stroke:#ddd;stroke-width:2;stroke-dasharray:3 3" />
<line x1="818" y1="1" x2="818" y2="108" style="stroke:#ddd;stroke-width:2;stroke-dasharray:3 3" />
<line x1="927" y1="1" x2="927" y2="108" style="stroke:#ddd;stroke-width:2;stroke-dasharray:3 3" />
<line x1="1036" y1="1" x2="1036" y2="108" style="stroke:#ddd;stroke-width:2;stroke-dasharray:3 3" />
<path d="M17.5,24.5c3,1.85,7.75,7.62,8.5,10.5" style="fill:none;stroke:black;stroke-width:3" />
<circle cx="17.5" cy="24.5" r="5" stroke-width="0" fill="#FF2A00" opacity="0.7" />
<path d="M126.5,24.5c3,1.85,7.75,7.62,8.5,10.5" style="fill:none;stroke:#999;stroke-width:3" />
<path d="M123.25,82.21C125.0,83 126.56,82.32 127.5,80.7c2.75-4.7,10-18.95,12.5-24.95" style="fill:none;stroke:black;stroke-width:3" />
<circle cx="123.25" cy="82.21" r="5" stroke-width="0" fill="#FF2A00" opacity="0.7" />
<path d="M235.5,24.5c3,1.85,7.75,7.62,8.5,10.5" style="fill:none;stroke:#999;stroke-width:3" />
<path d="M232.25,82.21C234.0,83 235.56,82.32 236.5,80.7c2.75-4.7,10-18.95,12.5-24.95" style="fill:none;stroke:#999;stroke-width:3" />
<path d="M261.94,23.95c2.05,0.8,4.58,0.34,6.69,0.09c6.54-0.76,16.45-2.22,23.63-2.81c2.07-0.17,4.26-0.47,6.31,0.01" style="fill:none;stroke:black;stroke-width:3" />
<circle cx="261.94" cy="23.95" r="5" stroke-width="0" fill="#FF2A00" opacity="0.7" />
<path d="M344.5,24.5c3,1.85,7.75,7.62,8.5,10.5" style="fill:none;stroke:#999;stroke-width:3" />
<path d="M341.25,82.21C343.0,83 344.56,82.32 345.5,80.7c2.75-4.7,10-18.95,12.5-24.95" style="fill:none;stroke:#999;stroke-width:3" />
<path d="M370.94,23.95c2.05,0.8,4.58,0.34,6.69,0.09c6.54-0.76,16.45-2.22,23.63-2.81c2.07-0.17,4.26-0.47,6.31,0.01" style="fill:none;stroke:#999;stroke-width:3" />
<path d="M386.87,11.37c1.07,1.07,1.55,2.08,1.55,3.71c0,5.12-0.03,12.9-0.03,20.61" style="fill:none;stroke:black;stroke-width:3" />
<circle cx="386.87" cy="11.37" r="5" stroke-width="0" fill="#FF2A00" opacity="0.7" />
<path d="M453.5,24.5c3,1.85,7.75,7.62,8.5,10.5" style="fill:none;stroke:#999;stroke-width:3" />
<path d="M450.25,82.21C452.0,83 453.56,82.32 454.5,80.7c2.75-4.7,10-18.95,12.5-24.95" style="fill:none;stroke:#999;stroke-width:3" />
<path d="M479.94,23.95c2.05,0.8,4.58,0.34,6.69,0.09c6.54-0.76,16.45-2.22,23.63-2.81c2.07-0.17,4.26-0.47,6.31,0.01" style="fill:none;stroke:#999;stroke-width:3" />
<path d="M495.87,11.37c1.07,1.07,1.55,2.08,1.55,3.71c0,5.12-0.03,12.9-0.03,20.61" style="fill:none;stroke:#999;stroke-width:3" />
<path d="M472.01,38.82c3.12,0.8,6.14,0.34,8.63,0.02c11.93-1.53,28.79-3.61,40-4.58c2.83-0.25,5.61-0.69,8.36,0.23" style="fill:none;stroke:black;stroke-width:3" />
<circle cx="472.01" cy="38.82" r="5" stroke-width="0" fill="#FF2A00" opacity="0.7" />
<path d="M562.5,24.5c3,1.85,7.75,7.62,8.5,10.5" style="fill:none;stroke:#999;stroke-width:3" />
<path d="M559.25,82.21C561.0,83 562.56,82.32 563.5,80.7c2.75-4.7,10-18.95,12.5-24.95" style="fill:none;stroke:#999;stroke-width:3" />
<path d="M588.94,23.95c2.05,0.8,4.58,0.34,6.69,0.09c6.54-0.76,16.45-2.22,23.63-2.81c2.07-0.17,4.26-0.47,6.31,0.01" style="fill:none;stroke:#999;stroke-width:3" />
<path d="M604.87,11.37c1.07,1.07,1.55,2.08,1.55,3.71c0,5.12-0.03,12.9-0.03,20.61" style="fill:none;stroke:#999;stroke-width:3" />
<path d="M581.01,38.82c3.12,0.8,6.14,0.34,8.63,0.02c11.93-1.53,28.79-3.61,40-4.58c2.83-0.25,5.61-0.69,8.36,0.23" style="fill:none;stroke:#999;stroke-width:3" />
<path d="M598.38,41.25c0.11,1.01-0.05,1.96-0.5,2.86c-1.66,4.01-5.39,10.14-13.36,14.81" style="fill:none;stroke:black;stroke-width:3" />
<circle cx="598.38" cy="41.25" r="5" stroke-width="0" fill="#FF2A00" opacity="0.7" />
<path d="M671.5,24.5c3,1.85,7.75,7.62,8.5,10.5" style="fill:none;stroke:#999;stroke-width:3" />
<path d="M668.25,82.21C670.0,83 671.56,82.32 672.5,80.7c2.75-4.7,10-18.95,12.5-24.95" style="fill:none;stroke:#999;stroke-width:3" />
<path d="M697.94,23.95c2.05,0.8,4.58,0.34,6.69,0.09c6.54-0.76,16.45-2.22,23.63-2.81c2.07-0.17,4.26-0.47,6.31,0.01" style="fill:none;stroke:#999;stroke-width:3" />
<path d="M713.87,11.37c1.07,1.07,1.55,2.08,1.55,3.71c0,5.12-0.03,12.9-0.03,20.61" style="fill:none;stroke:#999;stroke-width:3" />
<path d="M690.01,38.82c3.12,0.8,6.14,0.34,8.63,0.02c11.93-1.53,28.79-3.61,40-4.58c2.83-0.25,5.61-0.69,8.36,0.23" style="fill:none;stroke:#999;stroke-width:3" />
<path d="M707.38,41.25c0.11,1.01-0.05,1.96-0.5,2.86c-1.66,4.01-5.39,10.14-13.36,14.81" style="fill:none;stroke:#999;stroke-width:3" />
<path d="M722.6,38.37c0.89,0.89,1.06,1.63,1.06,3.08c0,1.68-0.03,3.69-0.03,5.68c0,3.25,1.12,4.94,10.1,4.94c5.43,0,9.26-1.1,10.02-1.44" style="fill:none;stroke:black;stroke-width:3" />
<circle cx="722.6" cy="38.37" r="5" stroke-width="0" fill="#FF2A00" opacity="0.7" />
<path d="M780.5,24.5c3,1.85,7.75,7.62,8.5,10.5" style="fill:none;stroke:#999;stroke-width:3" />
<path d="M777.25,82.21C779.0,83 780.56,82.32 781.5,80.7c2.75-4.7,10-18.95,12.5-24.95" style="fill:none;stroke:#999;stroke-width:3" />
<path d="M806.94,23.95c2.05,0.8,4.58,0.34,6.69,0.09c6.54-0.76,16.45-2.22,23.63-2.81c2.07-0.17,4.26-0.47,6.31,0.01" style="fill:none;stroke:#999;stroke-width:3" />
<path d="M822.87,11.37c1.07,1.07,1.55,2.08,1.55,3.71c0,5.12-0.03,12.9-0.03,20.61" style="fill:none;stroke:#999;stroke-width:3" />
<path d="M799.01,38.82c3.12,0.8,6.14,0.34,8.63,0.02c11.93-1.53,28.79-3.61,40-4.58c2.83-0.25,5.61-0.69,8.36,0.23" style="fill:none;stroke:#999;stroke-width:3" />
<path d="M816.38,41.25c0.11,1.01-0.05,1.96-0.5,2.86c-1.66,4.01-5.39,10.14-13.36,14.81" style="fill:none;stroke:#999;stroke-width:3" />
<path d="M831.6,38.37c0.89,0.89,1.06,1.63,1.06,3.08c0,1.68-0.03,3.69-0.03,5.68c0,3.25,1.12,4.94,10.1,4.94c5.43,0,9.26-1.1,10.02-1.44" style="fill:none;stroke:#999;stroke-width:3" />
<path d="M818.23,56.5c0.13,1.22-0.15,2.49-0.77,3.61c-2.99,5.42-8.85,14.25-19.76,22.53" style="fill:none;stroke:black;stroke-width:3" />
<circle cx="818.23" cy="56.5" r="5" stroke-width="0" fill="#FF2A00" opacity="0.7" />
<path d="M889.5,24.5c3,1.85,7.75,7.62,8.5,10.5" style="fill:none;stroke:#999;stroke-width:3" />
<path d="M886.25,82.21C888.0,83 889.56,82.32 890.5,80.7c2.75-4.7,10-18.95,12.5-24.95" style="fill:none;stroke:#999;stroke-width:3" />
<path d="M915.94,23.95c2.05,0.8,4.58,0.34,6.69,0.09c6.54-0.76,16.45-2.22,23.63-2.81c2.07-0.17,4.26-0.47,6.31,0.01" style="fill:none;stroke:#999;stroke-width:3" />
<path d="M931.87,11.37c1.07,1.07,1.55,2.08,1.55,3.71c0,5.12-0.03,12.9-0.03,20.61" style="fill:none;stroke:#999;stroke-width:3" />
<path d="M908.01,38.82c3.12,0.8,6.14,0.34,8.63,0.02c11.93-1.53,28.79-3.61,40-4.58c2.83-0.25,5.61-0.69,8.36,0.23" style="fill:none;stroke:#999;stroke-width:3" />
<path d="M925.38,41.25c0.11,1.01-0.05,1.96-0.5,2.86c-1.66,4.01-5.39,10.14-13.36,14.81" style="fill:none;stroke:#999;stroke-width:3" />
<path d="M940.6,38.37c0.89,0.89,1.06,1.63,1.06,3.08c0,1.68-0.03,3.69-0.03,5.68c0,3.25,1.12,4.94,10.1,4.94c5.43,0,9.26-1.1,10.02-1.44" style="fill:none;stroke:#999;stroke-width:3" />
<path d="M927.23,56.5c0.13,1.22-0.15,2.49-0.77,3.61c-2.99,5.42-8.85,14.25-19.76,22.53" style="fill:none;stroke:#999;stroke-width:3" />
<path d="M928.92,62.17c1.95,0.21,3.82,0.06,5.75-0.51c4.33-1.28,9.02-2.44,12.15-3.14c2.76-0.61,3.79,1.2,3.09,2.86C946.04,70.48 926.87,91.64 907.33,98" style="fill:none;stroke:black;stroke-width:3" />
<circle cx="928.92" cy="62.17" r="5" stroke-width="0" fill="#FF2A00" opacity="0.7" />
<path d="M998.5,24.5c3,1.85,7.75,7.62,8.5,10.5" style="fill:none;stroke:#999;stroke-width:3" />
<path d="M995.25,82.21C997.0,83 998.56,82.32 999.5,80.7c2.75-4.7,10-18.95,12.5-24.95" style="fill:none;stroke:#999;stroke-width:3" />
<path d="M1024.94,23.95c2.05,0.8,4.58,0.34,6.69,0.09c6.54-0.76,16.45-2.22,23.63-2.81c2.07-0.17,4.26-0.47,6.31,0.01" style="fill:none;stroke:#999;stroke-width:3" />
<path d="M1040.87,11.37c1.07,1.07,1.55,2.08,1.55,3.71c0,5.12-0.03,12.9-0.03,20.61" style="fill:none;stroke:#999;stroke-width:3" />
<path d="M1017.01,38.82c3.12,0.8,6.14,0.34,8.63,0.02c11.93-1.53,28.79-3.61,40-4.58c2.83-0.25,5.61-0.69,8.36,0.23" style="fill:none;stroke:#999;stroke-width:3" />
<path d="M1034.38,41.25c0.11,1.01-0.05,1.96-0.5,2.86c-1.66,4.01-5.39,10.14-13.36,14.81" style="fill:none;stroke:#999;stroke-width:3" />
<path d="M1049.6,38.37c0.89,0.89,1.06,1.63,1.06,3.08c0,1.68-0.03,3.69-0.03,5.68c0,3.25,1.12,4.94,10.1,4.94c5.43,0,9.26-1.1,10.02-1.44" style="fill:none;stroke:#999;stroke-width:3" />
<path d="M1036.23,56.5c0.13,1.22-0.15,2.49-0.77,3.61c-2.99,5.42-8.85,14.25-19.76,22.53" style="fill:none;stroke:#999;stroke-width:3" />
<path d="M1037.92,62.17c1.95,0.21,3.82,0.06,5.75-0.51c4.33-1.28,9.02-2.44,12.15-3.14c2.76-0.61,3.79,1.2,3.09,2.86C1055.04,70.48 1035.87,91.64 1016.33,98" style="fill:none;stroke:#999;stroke-width:3" />
<path d="M1032.13,68.14c7.37,5.23,22.74,16.48,34.19,23.59c2.38,1.48,5.31,2.9,9.18,4.02" style="fill:none;stroke:black;stroke-width:3" />
<circle cx="1032.13" cy="68.14" r="5" stroke-width="0" fill="#FF2A00" opacity="0.7" />
</svg>