<!-- 051dc -->
<svg width="1635px" height="109px" viewBox="0 0 1635px 109px" xmlns="http://www.w3.org/2000/svg" xmlns:xlink="http://www.w3.org/1999/xlink" xml:space="preserve" version="1.1"  baseProfile="full">
<line x1="1" y1="1" x2="1634" y2="1" style="stroke:#ddd;stroke-width:2" />
<line x1="1" y1="1" x2="1" y2="108" style="stroke:#ddd;stroke-width:2" />
<line x1="1" y1="108" x2="1634" y2="108" style="stroke:#ddd;stroke-width:2" />
<line x1="1634" y1="1" x2="1634" y2="108" style="stroke:#ddd;stroke-width:2" />
<line x1="109" y1="1" x2="109" y2="108" style="stroke:#ddd;stroke-width:2" />
<line x1="218" y1="1" x2="218" y2="108" style="stroke:#ddd;stroke-width:2" />
<line x1="327" y1="1" x2="327" y2="108" style="stroke:#ddd;stroke-width:2" />
<line x1="436" y1="1" x2="436" y2="108" style="stroke:#ddd;stroke-width:2" />
<line x1="545" y1="1" x2="545" y2="108" style="stroke:#ddd;stroke-width:2" />
<line x1="654" y1="1" x2="654" y2="108" style="stroke:#ddd;stroke-width:2" />
<line x1="763" y1="1" x2="763" y2="108" style="stroke:#ddd;stroke-width:2" />
<line x1="872" y1="1" x2="872" y2="108" style="stroke:#ddd;stroke-width:2" />
<line x1="981" y1="1" x2="981" y2="108" style="stroke:#ddd;stroke-width:2" />
<line x1="1090" y1="1" x2="1090" y2="108" style="stroke:#ddd;stroke-width:2" />
<line x1="1199" y1="1" x2="1199" y2="108" style="stroke:#ddd;stroke-width:2" />
<line x1="1308" y1="1" x2="1308" y2="108" style="stroke:#ddd;stroke-width:2" />
<line x1="1417" y1="1" x2="1417" y2="108" style="stroke:#ddd;stroke-width:2" />
<line x1="1526" y1="1" x2="1526" y2="108" style="stroke:#ddd;stroke-width:2" />
<line x1="1" y1="54" x2="1634" y2="54" style="stroke:#ddd;stroke-width:2;stroke-dasharray:3 3" />
<line x1="55" y1="1" x2="55" y2="108" style="stroke:#ddd;stroke-width:2;stroke-dasharray:3 3" />
<line x1="164" y1="1" x2="164" y2="108" style="stroke:#ddd;stroke-width:2;stroke-dasharray:3 3" />
<line x1="273" y1="1" x2="273" y2="108" style="stroke:#ddd;stroke-width:2;stroke-dasharray:3 3" />
<line x1="382" y1="1" x2="382" y2="108" style="stroke:#ddd;stroke-width:2;stroke-dasharray:3 3" />
<line x1="491" y1="1" x2="491" y2="108" style="stroke:#ddd;stroke-width:2;stroke-dasharray:3 3" />
<line x1="600" y1="1" x2="600" y2="108" style="stroke:#ddd;stroke-width:2;stroke-dasharray:3 3" />
<line x1="709" y1="1" x2="709" y2="108" style="stroke:#ddd;stroke-width:2;stroke-dasharray:3 3" />
<line x1="818" y1="1" x2="818" y2="108" style="stroke:#ddd;stroke-width:2;stroke-dasharray:3 3" />
<line x1="927" y1="1" x2="927" y2="108" style="stroke:#ddd;stroke-width:2;stroke-dasharray:3 3" />
<line x1="1036" y1="1" x2="1036" y2="108" style="stroke:#ddd;stroke-width:2;stroke-dasharray:3 3" />
<line x1="1145" y1="1" x2="1145" y2="108" style="stroke:#ddd;stroke-width:2;stroke-dasharray:3 3" />
<line x1="1254" y1="1" x2="1254" y2="108" style="stroke:#ddd;stroke-width:2;stroke-dasharray:3 3" />
<line x1="1363" y1="1" x2="1363" y2="108" style="stroke:#ddd;stroke-width:2;stroke-dasharray:3 3" />
<line x1="1472" y1="1" x2="1472" y2="108" style="stroke:#ddd;stroke-width:2;stroke-dasharray:3 3" />
<line x1="1581" y1="1" x2="1581" y2="108" style="stroke:#ddd;stroke-width:2;stroke-dasharray:3 3" />
<path d="M15.54,22.25c3.37,1.84,8.7,7.55,9.54,10.41" style="fill:none;stroke:black;stroke-width:3" />
<circle cx="15.54" cy="22.25" r="5" stroke-width="0" fill="#FF2A00" opacity="0.7" />
<path d="M124.53999999999999,22.25c3.37,1.84,8.7,7.55,9.54,10.41" style="fill:none;stroke:#999;stroke-width:3" />
<path d="M121.98,80.32c2.02,1.05,3.38,0.11,4.56-1.75c1.15-1.8,7.77-13.67,11.99-23.66" style="fill:none;stroke:black;stroke-width:3" />
<circle cx="121.98" cy="80.32" r="5" stroke-width="0" fill="#FF2A00" opacity="0.7" />
<path d="M233.54,22.25c3.37,1.84,8.7,7.55,9.54,10.41" style="fill:none;stroke:#999;stroke-width:3" />
<path d="M230.98000000000002,80.32c2.02,1.05,3.38,0.11,4.56-1.75c1.15-1.8,7.77-13.67,11.99-23.66" style="fill:none;stroke:#999;stroke-width:3" />
<path d="M278.89,9.5c1.18,1.18,1.3,2.25,1.3,3.87c0,3.07-0.07,3.45-0.07,6.01" style="fill:none;stroke:black;stroke-width:3" />
<circle cx="278.89" cy="9.5" r="5" stroke-width="0" fill="#FF2A00" opacity="0.7" />
<path d="M342.53999999999996,22.25c3.37,1.84,8.7,7.55,9.54,10.41" style="fill:none;stroke:#999;stroke-width:3" />
<path d="M339.98,80.32c2.02,1.05,3.38,0.11,4.56-1.75c1.15-1.8,7.77-13.67,11.99-23.66" style="fill:none;stroke:#999;stroke-width:3" />
<path d="M387.89,9.5c1.18,1.18,1.3,2.25,1.3,3.87c0,3.07-0.07,3.45-0.07,6.01" style="fill:none;stroke:#999;stroke-width:3" />
<path d="M361.42,21.21c3.57,0.7,7.01,0.64,10.6,0.32c11.49-1.03,26.45-2.15,37.86-2.75c3.33-0.18,6.52-0.63,9.71,0.56" style="fill:none;stroke:black;stroke-width:3" />
<circle cx="361.42" cy="21.21" r="5" stroke-width="0" fill="#FF2A00" opacity="0.7" />
<path d="M451.53999999999996,22.25c3.37,1.84,8.7,7.55,9.54,10.41" style="fill:none;stroke:#999;stroke-width:3" />
<path d="M448.98,80.32c2.02,1.05,3.38,0.11,4.56-1.75c1.15-1.8,7.77-13.67,11.99-23.66" style="fill:none;stroke:#999;stroke-width:3" />
<path d="M496.89,9.5c1.18,1.18,1.3,2.25,1.3,3.87c0,3.07-0.07,3.45-0.07,6.01" style="fill:none;stroke:#999;stroke-width:3" />
<path d="M470.42,21.21c3.57,0.7,7.01,0.64,10.6,0.32c11.49-1.03,26.45-2.15,37.86-2.75c3.33-0.18,6.52-0.63,9.71,0.56" style="fill:none;stroke:#999;stroke-width:3" />
<path d="M477.62,29.12c0.95,1,1.2,2.12,1.4,3.35c0.72,4.33,1.62,10.71,2.53,18.02c0.23,1.87,0.46,3.79,0.69,5.76" style="fill:none;stroke:black;stroke-width:3" />
<circle cx="477.62" cy="29.12" r="5" stroke-width="0" fill="#FF2A00" opacity="0.7" />
<path d="M560.54,22.25c3.37,1.84,8.7,7.55,9.54,10.41" style="fill:none;stroke:#999;stroke-width:3" />
<path d="M557.98,80.32c2.02,1.05,3.38,0.11,4.56-1.75c1.15-1.8,7.77-13.67,11.99-23.66" style="fill:none;stroke:#999;stroke-width:3" />
<path d="M605.89,9.5c1.18,1.18,1.3,2.25,1.3,3.87c0,3.07-0.07,3.45-0.07,6.01" style="fill:none;stroke:#999;stroke-width:3" />
<path d="M579.4200000000001,21.21c3.57,0.7,7.01,0.64,10.6,0.32c11.49-1.03,26.45-2.15,37.86-2.75c3.33-0.18,6.52-0.63,9.71,0.56" style="fill:none;stroke:#999;stroke-width:3" />
<path d="M586.62,29.12c0.95,1,1.2,2.12,1.4,3.35c0.72,4.33,1.62,10.71,2.53,18.02c0.23,1.87,0.46,3.79,0.69,5.76" style="fill:none;stroke:#999;stroke-width:3" />
<path d="M588.49,30.86c11.8-1.13,32.21-3.29,41.27-3.57c3.47-0.11,4.59,1.45,4.05,4.64c-0.74,4.4-1.85,9.73-3.06,15.25c-0.39,1.77-0.79,3.56-1.19,5.34" style="fill:none;stroke:black;stroke-width:3" />
<circle cx="588.49" cy="30.86" r="5" stroke-width="0" fill="#FF2A00" opacity="0.7" />
<path d="M669.54,22.25c3.37,1.84,8.7,7.55,9.54,10.41" style="fill:none;stroke:#999;stroke-width:3" />
<path d="M666.98,80.32c2.02,1.05,3.38,0.11,4.56-1.75c1.15-1.8,7.77-13.67,11.99-23.66" style="fill:none;stroke:#999;stroke-width:3" />
<path d="M714.89,9.5c1.18,1.18,1.3,2.25,1.3,3.87c0,3.07-0.07,3.45-0.07,6.01" style="fill:none;stroke:#999;stroke-width:3" />
<path d="M688.4200000000001,21.21c3.57,0.7,7.01,0.64,10.6,0.32c11.49-1.03,26.45-2.15,37.86-2.75c3.33-0.18,6.52-0.63,9.71,0.56" style="fill:none;stroke:#999;stroke-width:3" />
<path d="M695.62,29.12c0.95,1,1.2,2.12,1.4,3.35c0.72,4.33,1.62,10.71,2.53,18.02c0.23,1.87,0.46,3.79,0.69,5.76" style="fill:none;stroke:#999;stroke-width:3" />
<path d="M697.49,30.86c11.8-1.13,32.21-3.29,41.27-3.57c3.47-0.11,4.59,1.45,4.05,4.64c-0.74,4.4-1.85,9.73-3.06,15.25c-0.39,1.77-0.79,3.56-1.19,5.34" style="fill:none;stroke:#999;stroke-width:3" />
<path d="M707.52,37.05c0.59,0.59,0.86,1.2,1.07,1.96c0.37,1.37,0.81,3.41,1.19,5.36c0.27,1.37,0.51,2.69,0.7,3.69" style="fill:none;stroke:black;stroke-width:3" />
<circle cx="707.52" cy="37.05" r="5" stroke-width="0" fill="#FF2A00" opacity="0.7" />
<path d="M778.54,22.25c3.37,1.84,8.7,7.55,9.54,10.41" style="fill:none;stroke:#999;stroke-width:3" />
<path d="M775.98,80.32c2.02,1.05,3.38,0.11,4.56-1.75c1.15-1.8,7.77-13.67,11.99-23.66" style="fill:none;stroke:#999;stroke-width:3" />
<path d="M823.89,9.5c1.18,1.18,1.3,2.25,1.3,3.87c0,3.07-0.07,3.45-0.07,6.01" style="fill:none;stroke:#999;stroke-width:3" />
<path d="M797.4200000000001,21.21c3.57,0.7,7.01,0.64,10.6,0.32c11.49-1.03,26.45-2.15,37.86-2.75c3.33-0.18,6.52-0.63,9.71,0.56" style="fill:none;stroke:#999;stroke-width:3" />
<path d="M804.62,29.12c0.95,1,1.2,2.12,1.4,3.35c0.72,4.33,1.62,10.71,2.53,18.02c0.23,1.87,0.46,3.79,0.69,5.76" style="fill:none;stroke:#999;stroke-width:3" />
<path d="M806.49,30.86c11.8-1.13,32.21-3.29,41.27-3.57c3.47-0.11,4.59,1.45,4.05,4.64c-0.74,4.4-1.85,9.73-3.06,15.25c-0.39,1.77-0.79,3.56-1.19,5.34" style="fill:none;stroke:#999;stroke-width:3" />
<path d="M816.52,37.05c0.59,0.59,0.86,1.2,1.07,1.96c0.37,1.37,0.81,3.41,1.19,5.36c0.27,1.37,0.51,2.69,0.7,3.69" style="fill:none;stroke:#999;stroke-width:3" />
<path d="M818.15,38.25c3.65-0.52,12.12-1.7,16-2.11c1.76-0.19,3,0.07,2.56,2.01c-0.41,1.84-0.88,3.44-1.46,5.68" style="fill:none;stroke:black;stroke-width:3" />
<circle cx="818.15" cy="38.25" r="5" stroke-width="0" fill="#FF2A00" opacity="0.7" />
<path d="M887.54,22.25c3.37,1.84,8.7,7.55,9.54,10.41" style="fill:none;stroke:#999;stroke-width:3" />
<path d="M884.98,80.32c2.02,1.05,3.38,0.11,4.56-1.75c1.15-1.8,7.77-13.67,11.99-23.66" style="fill:none;stroke:#999;stroke-width:3" />
<path d="M932.89,9.5c1.18,1.18,1.3,2.25,1.3,3.87c0,3.07-0.07,3.45-0.07,6.01" style="fill:none;stroke:#999;stroke-width:3" />
<path d="M906.4200000000001,21.21c3.57,0.7,7.01,0.64,10.6,0.32c11.49-1.03,26.45-2.15,37.86-2.75c3.33-0.18,6.52-0.63,9.71,0.56" style="fill:none;stroke:#999;stroke-width:3" />
<path d="M913.62,29.12c0.95,1,1.2,2.12,1.4,3.35c0.72,4.33,1.62,10.71,2.53,18.02c0.23,1.87,0.46,3.79,0.69,5.76" style="fill:none;stroke:#999;stroke-width:3" />
<path d="M915.49,30.86c11.8-1.13,32.21-3.29,41.27-3.57c3.47-0.11,4.59,1.45,4.05,4.64c-0.74,4.4-1.85,9.73-3.06,15.25c-0.39,1.77-0.79,3.56-1.19,5.34" style="fill:none;stroke:#999;stroke-width:3" />
<path d="M925.52,37.05c0.59,0.59,0.86,1.2,1.07,1.96c0.37,1.37,0.81,3.41,1.19,5.36c0.27,1.37,0.51,2.69,0.7,3.69" style="fill:none;stroke:#999;stroke-width:3" />
<path d="M927.15,38.25c3.65-0.52,12.12-1.7,16-2.11c1.76-0.19,3,0.07,2.56,2.01c-0.41,1.84-0.88,3.44-1.46,5.68" style="fill:none;stroke:#999;stroke-width:3" />
<path d="M929.39,46.4c2-0.31,8.4-0.96,13-1.42c1.62-0.16,3.01-0.31,3.9-0.41" style="fill:none;stroke:black;stroke-width:3" />
<circle cx="929.39" cy="46.4" r="5" stroke-width="0" fill="#FF2A00" opacity="0.7" />
<path d="M996.54,22.25c3.37,1.84,8.7,7.55,9.54,10.41" style="fill:none;stroke:#999;stroke-width:3" />
<path d="M993.98,80.32c2.02,1.05,3.38,0.11,4.56-1.75c1.15-1.8,7.77-13.67,11.99-23.66" style="fill:none;stroke:#999;stroke-width:3" />
<path d="M1041.8899999999999,9.5c1.18,1.18,1.3,2.25,1.3,3.87c0,3.07-0.07,3.45-0.07,6.01" style="fill:none;stroke:#999;stroke-width:3" />
<path d="M1015.4200000000001,21.21c3.57,0.7,7.01,0.64,10.6,0.32c11.49-1.03,26.45-2.15,37.86-2.75c3.33-0.18,6.52-0.63,9.71,0.56" style="fill:none;stroke:#999;stroke-width:3" />
<path d="M1022.62,29.12c0.95,1,1.2,2.12,1.4,3.35c0.72,4.33,1.62,10.71,2.53,18.02c0.23,1.87,0.46,3.79,0.69,5.76" style="fill:none;stroke:#999;stroke-width:3" />
<path d="M1024.49,30.86c11.8-1.13,32.21-3.29,41.27-3.57c3.47-0.11,4.59,1.45,4.05,4.64c-0.74,4.4-1.85,9.73-3.06,15.25c-0.39,1.77-0.79,3.56-1.19,5.34" style="fill:none;stroke:#999;stroke-width:3" />
<path d="M1034.52,37.05c0.59,0.59,0.86,1.2,1.07,1.96c0.37,1.37,0.81,3.41,1.19,5.36c0.27,1.37,0.51,2.69,0.7,3.69" style="fill:none;stroke:#999;stroke-width:3" />
<path d="M1036.15,38.25c3.65-0.52,12.12-1.7,16-2.11c1.76-0.19,3,0.07,2.56,2.01c-0.41,1.84-0.88,3.44-1.46,5.68" style="fill:none;stroke:#999;stroke-width:3" />
<path d="M1038.3899999999999,46.4c2-0.31,8.4-0.96,13-1.42c1.62-0.16,3.01-0.31,3.9-0.41" style="fill:none;stroke:#999;stroke-width:3" />
<path d="M1028.09,54.73c11.79-1.36,26.23-2.82,37.03-3.41" style="fill:none;stroke:black;stroke-width:3" />
<circle cx="1028.09" cy="54.73" r="5" stroke-width="0" fill="#FF2A00" opacity="0.7" />
<path d="M1105.54,22.25c3.37,1.84,8.7,7.55,9.54,10.41" style="fill:none;stroke:#999;stroke-width:3" />
<path d="M1102.98,80.32c2.02,1.05,3.38,0.11,4.56-1.75c1.15-1.8,7.77-13.67,11.99-23.66" style="fill:none;stroke:#999;stroke-width:3" />
<path d="M1150.8899999999999,9.5c1.18,1.18,1.3,2.25,1.3,3.87c0,3.07-0.07,3.45-0.07,6.01" style="fill:none;stroke:#999;stroke-width:3" />
<path d="M1124.42,21.21c3.57,0.7,7.01,0.64,10.6,0.32c11.49-1.03,26.45-2.15,37.86-2.75c3.33-0.18,6.52-0.63,9.71,0.56" style="fill:none;stroke:#999;stroke-width:3" />
<path d="M1131.62,29.12c0.95,1,1.2,2.12,1.4,3.35c0.72,4.33,1.62,10.71,2.53,18.02c0.23,1.87,0.46,3.79,0.69,5.76" style="fill:none;stroke:#999;stroke-width:3" />
<path d="M1133.49,30.86c11.8-1.13,32.21-3.29,41.27-3.57c3.47-0.11,4.59,1.45,4.05,4.64c-0.74,4.4-1.85,9.73-3.06,15.25c-0.39,1.77-0.79,3.56-1.19,5.34" style="fill:none;stroke:#999;stroke-width:3" />
<path d="M1143.52,37.05c0.59,0.59,0.86,1.2,1.07,1.96c0.37,1.37,0.81,3.41,1.19,5.36c0.27,1.37,0.51,2.69,0.7,3.69" style="fill:none;stroke:#999;stroke-width:3" />
<path d="M1145.15,38.25c3.65-0.52,12.12-1.7,16-2.11c1.76-0.19,3,0.07,2.56,2.01c-0.41,1.84-0.88,3.44-1.46,5.68" style="fill:none;stroke:#999;stroke-width:3" />
<path d="M1147.3899999999999,46.4c2-0.31,8.4-0.96,13-1.42c1.62-0.16,3.01-0.31,3.9-0.41" style="fill:none;stroke:#999;stroke-width:3" />
<path d="M1137.09,54.73c11.79-1.36,26.23-2.82,37.03-3.41" style="fill:none;stroke:#999;stroke-width:3" />
<path d="M1169.03,55c0,1.19-1.31,1.86-2.21,2.35c-4.75,2.59-16.33,6.02-34.44,9.35" style="fill:none;stroke:black;stroke-width:3" />
<circle cx="1169.03" cy="55.0" r="5" stroke-width="0" fill="#FF2A00" opacity="0.7" />
<path d="M1214.54,22.25c3.37,1.84,8.7,7.55,9.54,10.41" style="fill:none;stroke:#999;stroke-width:3" />
<path d="M1211.98,80.32c2.02,1.05,3.38,0.11,4.56-1.75c1.15-1.8,7.77-13.67,11.99-23.66" style="fill:none;stroke:#999;stroke-width:3" />
<path d="M1259.8899999999999,9.5c1.18,1.18,1.3,2.25,1.3,3.87c0,3.07-0.07,3.45-0.07,6.01" style="fill:none;stroke:#999;stroke-width:3" />
<path d="M1233.42,21.21c3.57,0.7,7.01,0.64,10.6,0.32c11.49-1.03,26.45-2.15,37.86-2.75c3.33-0.18,6.52-0.63,9.71,0.56" style="fill:none;stroke:#999;stroke-width:3" />
<path d="M1240.62,29.12c0.95,1,1.2,2.12,1.4,3.35c0.72,4.33,1.62,10.71,2.53,18.02c0.23,1.87,0.46,3.79,0.69,5.76" style="fill:none;stroke:#999;stroke-width:3" />
<path d="M1242.49,30.86c11.8-1.13,32.21-3.29,41.27-3.57c3.47-0.11,4.59,1.45,4.05,4.64c-0.74,4.4-1.85,9.73-3.06,15.25c-0.39,1.77-0.79,3.56-1.19,5.34" style="fill:none;stroke:#999;stroke-width:3" />
<path d="M1252.52,37.05c0.59,0.59,0.86,1.2,1.07,1.96c0.37,1.37,0.81,3.41,1.19,5.36c0.27,1.37,0.51,2.69,0.7,3.69" style="fill:none;stroke:#999;stroke-width:3" />
<path d="M1254.15,38.25c3.65-0.52,12.12-1.7,16-2.11c1.76-0.19,3,0.07,2.56,2.01c-0.41,1.84-0.88,3.44-1.46,5.68" style="fill:none;stroke:#999;stroke-width:3" />
<path d="M1256.3899999999999,46.4c2-0.31,8.4-0.96,13-1.42c1.62-0.16,3.01-0.31,3.9-0.41" style="fill:none;stroke:#999;stroke-width:3" />
<path d="M1246.09,54.73c11.79-1.36,26.23-2.82,37.03-3.41" style="fill:none;stroke:#999;stroke-width:3" />
<path d="M1278.03,55c0,1.19-1.31,1.86-2.21,2.35c-4.75,2.59-16.33,6.02-34.44,9.35" style="fill:none;stroke:#999;stroke-width:3" />
<path d="M1233.32,72.94c3.43,1.44,6.46,0.77,9.66,0.37c9.92-1.23,29.12-3.38,40.9-4.49c3.49-0.33,6.95-0.89,10.34,0.27" style="fill:none;stroke:black;stroke-width:3" />
<circle cx="1233.32" cy="72.94" r="5" stroke-width="0" fill="#FF2A00" opacity="0.7" />
<path d="M1323.54,22.25c3.37,1.84,8.7,7.55,9.54,10.41" style="fill:none;stroke:#999;stroke-width:3" />
<path d="M1320.98,80.32c2.02,1.05,3.38,0.11,4.56-1.75c1.15-1.8,7.77-13.67,11.99-23.66" style="fill:none;stroke:#999;stroke-width:3" />
<path d="M1368.8899999999999,9.5c1.18,1.18,1.3,2.25,1.3,3.87c0,3.07-0.07,3.45-0.07,6.01" style="fill:none;stroke:#999;stroke-width:3" />
<path d="M1342.42,21.21c3.57,0.7,7.01,0.64,10.6,0.32c11.49-1.03,26.45-2.15,37.86-2.75c3.33-0.18,6.52-0.63,9.71,0.56" style="fill:none;stroke:#999;stroke-width:3" />
<path d="M1349.62,29.12c0.95,1,1.2,2.12,1.4,3.35c0.72,4.33,1.62,10.71,2.53,18.02c0.23,1.87,0.46,3.79,0.69,5.76" style="fill:none;stroke:#999;stroke-width:3" />
<path d="M1351.49,30.86c11.8-1.13,32.21-3.29,41.27-3.57c3.47-0.11,4.59,1.45,4.05,4.64c-0.74,4.4-1.85,9.73-3.06,15.25c-0.39,1.77-0.79,3.56-1.19,5.34" style="fill:none;stroke:#999;stroke-width:3" />
<path d="M1361.52,37.05c0.59,0.59,0.86,1.2,1.07,1.96c0.37,1.37,0.81,3.41,1.19,5.36c0.27,1.37,0.51,2.69,0.7,3.69" style="fill:none;stroke:#999;stroke-width:3" />
<path d="M1363.15,38.25c3.65-0.52,12.12-1.7,16-2.11c1.76-0.19,3,0.07,2.56,2.01c-0.41,1.84-0.88,3.44-1.46,5.68" style="fill:none;stroke:#999;stroke-width:3" />
<path d="M1365.3899999999999,46.4c2-0.31,8.4-0.96,13-1.42c1.62-0.16,3.01-0.31,3.9-0.41" style="fill:none;stroke:#999;stroke-width:3" />
<path d="M1355.09,54.73c11.79-1.36,26.23-2.82,37.03-3.41" style="fill:none;stroke:#999;stroke-width:3" />
<path d="M1387.03,55c0,1.19-1.31,1.86-2.21,2.35c-4.75,2.59-16.33,6.02-34.44,9.35" style="fill:none;stroke:#999;stroke-width:3" />
<path d="M1342.32,72.94c3.43,1.44,6.46,0.77,9.66,0.37c9.92-1.23,29.12-3.38,40.9-4.49c3.49-0.33,6.95-0.89,10.34,0.27" style="fill:none;stroke:#999;stroke-width:3" />
<path d="M1371.15,64.98c0.81,0.81,1.06,1.77,1.06,3.13c0,3.54-0.04,14.27-0.07,22.02c-0.01,2.96-0.02,5.48-0.02,7" style="fill:none;stroke:black;stroke-width:3" />
<circle cx="1371.15" cy="64.98" r="5" stroke-width="0" fill="#FF2A00" opacity="0.7" />
<path d="M1432.54,22.25c3.37,1.84,8.7,7.55,9.54,10.41" style="fill:none;stroke:#999;stroke-width:3" />
<path d="M1429.98,80.32c2.02,1.05,3.38,0.11,4.56-1.75c1.15-1.8,7.77-13.67,11.99-23.66" style="fill:none;stroke:#999;stroke-width:3" />
<path d="M1477.8899999999999,9.5c1.18,1.18,1.3,2.25,1.3,3.87c0,3.07-0.07,3.45-0.07,6.01" style="fill:none;stroke:#999;stroke-width:3" />
<path d="M1451.42,21.21c3.57,0.7,7.01,0.64,10.6,0.32c11.49-1.03,26.45-2.15,37.86-2.75c3.33-0.18,6.52-0.63,9.71,0.56" style="fill:none;stroke:#999;stroke-width:3" />
<path d="M1458.62,29.12c0.95,1,1.2,2.12,1.4,3.35c0.72,4.33,1.62,10.71,2.53,18.02c0.23,1.87,0.46,3.79,0.69,5.76" style="fill:none;stroke:#999;stroke-width:3" />
<path d="M1460.49,30.86c11.8-1.13,32.21-3.29,41.27-3.57c3.47-0.11,4.59,1.45,4.05,4.64c-0.74,4.4-1.85,9.73-3.06,15.25c-0.39,1.77-0.79,3.56-1.19,5.34" style="fill:none;stroke:#999;stroke-width:3" />
<path d="M1470.52,37.05c0.59,0.59,0.86,1.2,1.07,1.96c0.37,1.37,0.81,3.41,1.19,5.36c0.27,1.37,0.51,2.69,0.7,3.69" style="fill:none;stroke:#999;stroke-width:3" />
<path d="M1472.15,38.25c3.65-0.52,12.12-1.7,16-2.11c1.76-0.19,3,0.07,2.56,2.01c-0.41,1.84-0.88,3.44-1.46,5.68" style="fill:none;stroke:#999;stroke-width:3" />
<path d="M1474.3899999999999,46.4c2-0.31,8.4-0.96,13-1.42c1.62-0.16,3.01-0.31,3.9-0.41" style="fill:none;stroke:#999;stroke-width:3" />
<path d="M1464.09,54.73c11.79-1.36,26.23-2.82,37.03-3.41" style="fill:none;stroke:#999;stroke-width:3" />
<path d="M1496.03,55c0,1.19-1.31,1.86-2.21,2.35c-4.75,2.59-16.33,6.02-34.44,9.35" style="fill:none;stroke:#999;stroke-width:3" />
<path d="M1451.32,72.94c3.43,1.44,6.46,0.77,9.66,0.37c9.92-1.23,29.12-3.38,40.9-4.49c3.49-0.33,6.95-0.89,10.34,0.27" style="fill:none;stroke:#999;stroke-width:3" />
<path d="M1480.15,64.98c0.81,0.81,1.06,1.77,1.06,3.13c0,3.54-0.04,14.27-0.07,22.02c-0.01,2.96-0.02,5.48-0.02,7" style="fill:none;stroke:#999;stroke-width:3" />
<path d="M1478.25,72.01c0,0.87-0.85,2.48-2.01,3.71c-6.88,7.35-16.46,14.33-27.11,18.96" style="fill:none;stroke:black;stroke-width:3" />
<circle cx="1478.25" cy="72.01" r="5" stroke-width="0" fill="#FF2A00" opacity="0.7" />
<path d="M1541.54,22.25c3.37,1.84,8.7,7.55,9.54,10.41" style="fill:none;stroke:#999;stroke-width:3" />
<path d="M1538.98,80.32c2.02,1.05,3.38,0.11,4.56-1.75c1.15-1.8,7.77-13.67,11.99-23.66" style="fill:none;stroke:#999;stroke-width:3" />
<path d="M1586.8899999999999,9.5c1.18,1.18,1.3,2.25,1.3,3.87c0,3.07-0.07,3.45-0.07,6.01" style="fill:none;stroke:#999;stroke-width:3" />
<path d="M1560.42,21.21c3.57,0.7,7.01,0.64,10.6,0.32c11.49-1.03,26.45-2.15,37.86-2.75c3.33-0.18,6.52-0.63,9.71,0.56" style="fill:none;stroke:#999;stroke-width:3" />
<path d="M1567.62,29.12c0.95,1,1.2,2.12,1.4,3.35c0.72,4.33,1.62,10.71,2.53,18.02c0.23,1.87,0.46,3.79,0.69,5.76" style="fill:none;stroke:#999;stroke-width:3" />
<path d="M1569.49,30.86c11.8-1.13,32.21-3.29,41.27-3.57c3.47-0.11,4.59,1.45,4.05,4.64c-0.74,4.4-1.85,9.73-3.06,15.25c-0.39,1.77-0.79,3.56-1.19,5.34" style="fill:none;stroke:#999;stroke-width:3" />
<path d="M1579.52,37.05c0.59,0.59,0.86,1.2,1.07,1.96c0.37,1.37,0.81,3.41,1.19,5.36c0.27,1.37,0.51,2.69,0.7,3.69" style="fill:none;stroke:#999;stroke-width:3" />
<path d="M1581.15,38.25c3.65-0.52,12.12-1.7,16-2.11c1.76-0.19,3,0.07,2.56,2.01c-0.41,1.84-0.88,3.44-1.46,5.68" style="fill:none;stroke:#999;stroke-width:3" />
<path d="M1583.3899999999999,46.4c2-0.31,8.4-0.96,13-1.42c1.62-0.16,3.01-0.31,3.9-0.41" style="fill:none;stroke:#999;stroke-width:3" />
<path d="M1573.09,54.73c11.79-1.36,26.23-2.82,37.03-3.41" style="fill:none;stroke:#999;stroke-width:3" />
<path d="M1605.03,55c0,1.19-1.31,1.86-2.21,2.35c-4.75,2.59-16.33,6.02-34.44,9.35" style="fill:none;stroke:#999;stroke-width:3" />
<path d="M1560.32,72.94c3.43,1.44,6.46,0.77,9.66,0.37c9.92-1.23,29.12-3.38,40.9-4.49c3.49-0.33,6.95-0.89,10.34,0.27" style="fill:none;stroke:#999;stroke-width:3" />
<path d="M1589.15,64.98c0.81,0.81,1.06,1.77,1.06,3.13c0,3.54-0.04,14.27-0.07,22.02c-0.01,2.96-0.02,5.48-0.02,7" style="fill:none;stroke:#999;stroke-width:3" />
<path d="M1587.25,72.01c0,0.87-0.85,2.48-2.01,3.71c-6.88,7.35-16.46,14.33-27.11,18.96" style="fill:none;stroke:#999;stroke-width:3" />
<path d="M1590.86,72.61c2.99,2.33,13.84,11.16,20.35,16.18c2.29,1.76,4.71,3.11,7.29,4.38" style="fill:none;stroke:black;stroke-width:3" />
<circle cx="1590.86" cy="72.61" r="5" stroke-width="0" fill="#FF2A00" opacity="0.7" />
</svg>