<!-- 051fd -->
<svg width="872px" height="109px" viewBox="0 0 872px 109px" xmlns="http://www.w3.org/2000/svg" xmlns:xlink="http://www.w3.org/1999/xlink" xml:space="preserve" version="1.1"  baseProfile="full">
<line x1="1" y1="1" x2="871" y2="1" style="stroke:#ddd;stroke-width:2" />
<line x1="1" y1="1" x2="1" y2="108" style="stroke:#ddd;stroke-width:2" />
<line x1="1" y1="108" x2="871" y2="108" style="stroke:#ddd;stroke-width:2" />
<line x1="871" y1="1" x2="871" y2="108" style="stroke:#ddd;stroke-width:2" />
<line x1="109" y1="1" x2="109" y2="108" style="stroke:#ddd;stroke-width:2" />
<line x1="218" y1="1" x2="218" y2="108" style="stroke:#ddd;stroke-width:2" />
<line x1="327" y1="1" x2="327" y2="108" style="stroke:#ddd;stroke-width:2" />
<line x1="436" y1="1" x2="436" y2="108" style="stroke:#ddd;stroke-width:2" />
<line x1="545" y1="1" x2="545" y2="108" style="stroke:#ddd;stroke-width:2" />
<line x1="654" y1="1" x2="654" y2="108" style="stroke:#ddd;stroke-width:2" />
<line x1="763" y1="1" x2="763" y2="108" style="stroke:#ddd;stroke-width:2" />
<line x1="1" y1="54" x2="871" y2="54" style="stroke:#ddd;stroke-width:2;stroke-dasharray:3 3" />
<line x1="55" y1="1" x2="55" y2="108" style="stroke:#ddd;stroke-width:2;stroke-dasharray:3 3" />
<line x1="164" y1="1" x2="164" y2="108" style="stroke:#ddd;stroke-width:2;stroke-dasharray:3 3" />
<line x1="273" y1="1" x2="273" y2="108" style="stroke:#ddd;stroke-width:2;stroke-dasharray:3 3" />
<line x1="382" y1="1" x2="382" y2="108" style="stroke:#ddd;stroke-width:2;stroke-dasharray:3 3" />
<line x1="491" y1="1" x2="491" y2="108" style="stroke:#ddd;stroke-width:2;stroke-dasharray:3 3" />
<line x1="600" y1="1" x2="600" y2="108" style="stroke:#ddd;stroke-width:2;stroke-dasharray:3 3" />
<line x1="709" y1="1" x2="709" y2="108" style="stroke:#ddd;stroke-width:2;stroke-dasharray:3 3" />
<line x1="818" y1="1" x2="818" y2="108" style="stroke:#ddd;stroke-width:2;stroke-dasharray:3 3" />
<path d="M21.25,20.33c1.15,0.43,3.25,0.55,4.39,0.43c7.3-0.74,45.53-4.86,52.6-4.36c1.9,0.13,3.06,0.2,4.01,0.42" style="fill:none;stroke:black;stroke-width:3" />
<circle cx="21.25" cy="20.33" r="5" stroke-width="0" fill="#FF2A00" opacity="0.7" />
<path d="M130.25,20.33c1.15,0.43,3.25,0.55,4.39,0.43c7.3-0.74,45.53-4.86,52.6-4.36c1.9,0.13,3.06,0.2,4.01,0.42" style="fill:none;stroke:#999;stroke-width:3" />
<path d="M153.11,20.05c1.02,0.8,0.86,2.97,0.2,4.23c-0.76,1.45-5.58,11.48-6.03,12.23c-1.03,1.74,0.14,2.84,2.71,1.9c1.94-0.71,7.52-2.35,12.63-3.67c2.87-0.74,3.61,1.46,3.71,2.95c0.66,9.56-1.09,29.11-3.57,39.78c-1.52,6.52-5.5,1.37-7.04-0.18" style="fill:none;stroke:black;stroke-width:3" />
<circle cx="153.11" cy="20.05" r="5" stroke-width="0" fill="#FF2A00" opacity="0.7" />
<path d="M239.25,20.33c1.15,0.43,3.25,0.55,4.39,0.43c7.3-0.74,45.53-4.86,52.6-4.36c1.9,0.13,3.06,0.2,4.01,0.42" style="fill:none;stroke:#999;stroke-width:3" />
<path d="M262.11,20.05c1.02,0.8,0.86,2.97,0.2,4.23c-0.76,1.45-5.58,11.48-6.03,12.23c-1.03,1.74,0.14,2.84,2.71,1.9c1.94-0.71,7.52-2.35,12.63-3.67c2.87-0.74,3.61,1.46,3.71,2.95c0.66,9.56-1.09,29.11-3.57,39.78c-1.52,6.52-5.5,1.37-7.04-0.18" style="fill:none;stroke:#999;stroke-width:3" />
<path d="M250.5,46c3.18,1.37,8.21,5.62,9,7.75" style="fill:none;stroke:black;stroke-width:3" />
<circle cx="250.5" cy="46.0" r="5" stroke-width="0" fill="#FF2A00" opacity="0.7" />
<path d="M348.25,20.33c1.15,0.43,3.25,0.55,4.39,0.43c7.3-0.74,45.53-4.86,52.6-4.36c1.9,0.13,3.06,0.2,4.01,0.42" style="fill:none;stroke:#999;stroke-width:3" />
<path d="M371.11,20.05c1.02,0.8,0.86,2.97,0.2,4.23c-0.76,1.45-5.58,11.48-6.03,12.23c-1.03,1.74,0.14,2.84,2.71,1.9c1.94-0.71,7.52-2.35,12.63-3.67c2.87-0.74,3.61,1.46,3.71,2.95c0.66,9.56-1.09,29.11-3.57,39.78c-1.52,6.52-5.5,1.37-7.04-0.18" style="fill:none;stroke:#999;stroke-width:3" />
<path d="M359.5,46c3.18,1.37,8.21,5.62,9,7.75" style="fill:none;stroke:#999;stroke-width:3" />
<path d="M355.0,72.16c1.71,1.59,3.14,2.27,4.85,0.91c1.01-0.8,9.12-7.96,13.4-11.82" style="fill:none;stroke:black;stroke-width:3" />
<circle cx="355.0" cy="72.16" r="5" stroke-width="0" fill="#FF2A00" opacity="0.7" />
<path d="M457.25,20.33c1.15,0.43,3.25,0.55,4.39,0.43c7.3-0.74,45.53-4.86,52.6-4.36c1.9,0.13,3.06,0.2,4.01,0.42" style="fill:none;stroke:#999;stroke-width:3" />
<path d="M480.11,20.05c1.02,0.8,0.86,2.97,0.2,4.23c-0.76,1.45-5.58,11.48-6.03,12.23c-1.03,1.74,0.14,2.84,2.71,1.9c1.94-0.71,7.52-2.35,12.63-3.67c2.87-0.74,3.61,1.46,3.71,2.95c0.66,9.56-1.09,29.11-3.57,39.78c-1.52,6.52-5.5,1.37-7.04-0.18" style="fill:none;stroke:#999;stroke-width:3" />
<path d="M468.5,46c3.18,1.37,8.21,5.62,9,7.75" style="fill:none;stroke:#999;stroke-width:3" />
<path d="M464.0,72.16c1.71,1.59,3.14,2.27,4.85,0.91c1.01-0.8,9.12-7.96,13.4-11.82" style="fill:none;stroke:#999;stroke-width:3" />
<path d="M511.27,39.64c0.03,0.3,0.07,0.76-0.06,1.19c-0.76,2.51-5.15,8.02-11.15,11.38" style="fill:none;stroke:black;stroke-width:3" />
<circle cx="511.27" cy="39.64" r="5" stroke-width="0" fill="#FF2A00" opacity="0.7" />
<path d="M566.25,20.33c1.15,0.43,3.25,0.55,4.39,0.43c7.3-0.74,45.53-4.86,52.6-4.36c1.9,0.13,3.06,0.2,4.01,0.42" style="fill:none;stroke:#999;stroke-width:3" />
<path d="M589.11,20.05c1.02,0.8,0.86,2.97,0.2,4.23c-0.76,1.45-5.58,11.48-6.03,12.23c-1.03,1.74,0.14,2.84,2.71,1.9c1.94-0.71,7.52-2.35,12.63-3.67c2.87-0.74,3.61,1.46,3.71,2.95c0.66,9.56-1.09,29.11-3.57,39.78c-1.52,6.52-5.5,1.37-7.04-0.18" style="fill:none;stroke:#999;stroke-width:3" />
<path d="M577.5,46c3.18,1.37,8.21,5.62,9,7.75" style="fill:none;stroke:#999;stroke-width:3" />
<path d="M573.0,72.16c1.71,1.59,3.14,2.27,4.85,0.91c1.01-0.8,9.12-7.96,13.4-11.82" style="fill:none;stroke:#999;stroke-width:3" />
<path d="M620.27,39.64c0.03,0.3,0.07,0.76-0.06,1.19c-0.76,2.51-5.15,8.02-11.15,11.38" style="fill:none;stroke:#999;stroke-width:3" />
<path d="M608.25,60c5.47,2.42,14.13,9.98,15.5,13.75" style="fill:none;stroke:black;stroke-width:3" />
<circle cx="608.25" cy="60.0" r="5" stroke-width="0" fill="#FF2A00" opacity="0.7" />
<path d="M675.25,20.33c1.15,0.43,3.25,0.55,4.39,0.43c7.3-0.74,45.53-4.86,52.6-4.36c1.9,0.13,3.06,0.2,4.01,0.42" style="fill:none;stroke:#999;stroke-width:3" />
<path d="M698.11,20.05c1.02,0.8,0.86,2.97,0.2,4.23c-0.76,1.45-5.58,11.48-6.03,12.23c-1.03,1.74,0.14,2.84,2.71,1.9c1.94-0.71,7.52-2.35,12.63-3.67c2.87-0.74,3.61,1.46,3.71,2.95c0.66,9.56-1.09,29.11-3.57,39.78c-1.52,6.52-5.5,1.37-7.04-0.18" style="fill:none;stroke:#999;stroke-width:3" />
<path d="M686.5,46c3.18,1.37,8.21,5.62,9,7.75" style="fill:none;stroke:#999;stroke-width:3" />
<path d="M682.0,72.16c1.71,1.59,3.14,2.27,4.85,0.91c1.01-0.8,9.12-7.96,13.4-11.82" style="fill:none;stroke:#999;stroke-width:3" />
<path d="M729.27,39.64c0.03,0.3,0.07,0.76-0.06,1.19c-0.76,2.51-5.15,8.02-11.15,11.38" style="fill:none;stroke:#999;stroke-width:3" />
<path d="M717.25,60c5.47,2.42,14.13,9.98,15.5,13.75" style="fill:none;stroke:#999;stroke-width:3" />
<path d="M672.56,55.13c0.76,0.45,1.56,3.34,1.51,4.25C673.75,65.25 672.5,74.5 671.32,88c-0.57,2.75,0.68,2.75,3.16,2.52c13.75-1.26,60.4-4.32,68.27-4.77" style="fill:none;stroke:black;stroke-width:3" />
<circle cx="672.56" cy="55.13" r="5" stroke-width="0" fill="#FF2A00" opacity="0.7" />
<path d="M784.25,20.33c1.15,0.43,3.25,0.55,4.39,0.43c7.3-0.74,45.53-4.86,52.6-4.36c1.9,0.13,3.06,0.2,4.01,0.42" style="fill:none;stroke:#999;stroke-width:3" />
<path d="M807.11,20.05c1.02,0.8,0.86,2.97,0.2,4.23c-0.76,1.45-5.58,11.48-6.03,12.23c-1.03,1.74,0.14,2.84,2.71,1.9c1.94-0.71,7.52-2.35,12.63-3.67c2.87-0.74,3.61,1.46,3.71,2.95c0.66,9.56-1.09,29.11-3.57,39.78c-1.52,6.52-5.5,1.37-7.04-0.18" style="fill:none;stroke:#999;stroke-width:3" />
<path d="M795.5,46c3.18,1.37,8.21,5.62,9,7.75" style="fill:none;stroke:#999;stroke-width:3" />
<path d="M791.0,72.16c1.71,1.59,3.14,2.27,4.85,0.91c1.01-0.8,9.12-7.96,13.4-11.82" style="fill:none;stroke:#999;stroke-width:3" />
<path d="M838.27,39.64c0.03,0.3,0.07,0.76-0.06,1.19c-0.76,2.51-5.15,8.02-11.15,11.38" style="fill:none;stroke:#999;stroke-width:3" />
<path d="M826.25,60c5.47,2.42,14.13,9.98,15.5,13.75" style="fill:none;stroke:#999;stroke-width:3" />
<path d="M781.56,55.13c0.76,0.45,1.56,3.34,1.51,4.25C782.75,65.25 781.5,74.5 780.32,88c-0.57,2.75,0.68,2.75,3.16,2.52c13.75-1.26,60.4-4.32,68.27-4.77" style="fill:none;stroke:#999;stroke-width:3" />
<path d="M851.81,47.88c0.76,0.45,2.06,3.34,2.01,4.25c-0.32,6.37-1.07,23.12-1.75,37.25" style="fill:none;stroke:black;stroke-width:3" />
<circle cx="851.81" cy="47.88" r="5" stroke-width="0" fill="#FF2A00" opacity="0.7" />
</svg>