<!-- 05211 -->
<svg width="654px" height="109px" viewBox="0 0 654px 109px" xmlns="http://www.w3.org/2000/svg" xmlns:xlink="http://www.w3.org/1999/xlink" xml:space="preserve" version="1.1"  baseProfile="full">
<line x1="1" y1="1" x2="653" y2="1" style="stroke:#ddd;stroke-width:2" />
<line x1="1" y1="1" x2="1" y2="108" style="stroke:#ddd;stroke-width:2" />
<line x1="1" y1="108" x2="653" y2="108" style="stroke:#ddd;stroke-width:2" />
<line x1="653" y1="1" x2="653" y2="108" style="stroke:#ddd;stroke-width:2" />
<line x1="109" y1="1" x2="109" y2="108" style="stroke:#ddd;stroke-width:2" />
<line x1="218" y1="1" x2="218" y2="108" style="stroke:#ddd;stroke-width:2" />
<line x1="327" y1="1" x2="327" y2="108" style="stroke:#ddd;stroke-width:2" />
<line x1="436" y1="1" x2="436" y2="108" style="stroke:#ddd;stroke-width:2" />
<line x1="545" y1="1" x2="545" y2="108" style="stroke:#ddd;stroke-width:2" />
<line x1="1" y1="54" x2="653" y2="54" style="stroke:#ddd;stroke-width:2;stroke-dasharray:3 3" />
<line x1="55" y1="1" x2="55" y2="108" style="stroke:#ddd;stroke-width:2;stroke-dasharray:3 3" />
<line x1="164" y1="1" x2="164" y2="108" style="stroke:#ddd;stroke-width:2;stroke-dasharray:3 3" />
<line x1="273" y1="1" x2="273" y2="108" style="stroke:#ddd;stroke-width:2;stroke-dasharray:3 3" />
<line x1="382" y1="1" x2="382" y2="108" style="stroke:#ddd;stroke-width:2;stroke-dasharray:3 3" />
<line x1="491" y1="1" x2="491" y2="108" style="stroke:#ddd;stroke-width:2;stroke-dasharray:3 3" />
<line x1="600" y1="1" x2="600" y2="108" style="stroke:#ddd;stroke-width:2;stroke-dasharray:3 3" />
<path d="M15.75,23.39c1.97,0.8,4.94,0.48,6.98,0.23c7.31-0.91,21.32-2.67,28.78-3.29c2.18-0.18,4.34-0.34,6.49,0.19" style="fill:none;stroke:black;stroke-width:3" />
<circle cx="15.75" cy="23.39" r="5" stroke-width="0" fill="#FF2A00" opacity="0.7" />
<path d="M124.75,23.39c1.97,0.8,4.94,0.48,6.98,0.23c7.31-0.91,21.32-2.67,28.78-3.29c2.18-0.18,4.34-0.34,6.49,0.19" style="fill:none;stroke:#999;stroke-width:3" />
<path d="M120.75,50.64c2.16,0.88,5.4,0.42,7.65,0.13c8.6-1.12,26.45-3.44,35.35-4.32c2.4-0.24,5.14-0.26,7.5,0.32" style="fill:none;stroke:black;stroke-width:3" />
<circle cx="120.75" cy="50.64" r="5" stroke-width="0" fill="#FF2A00" opacity="0.7" />
<path d="M233.75,23.39c1.97,0.8,4.94,0.48,6.98,0.23c7.31-0.91,21.32-2.67,28.78-3.29c2.18-0.18,4.34-0.34,6.49,0.19" style="fill:none;stroke:#999;stroke-width:3" />
<path d="M229.75,50.64c2.16,0.88,5.4,0.42,7.65,0.13c8.6-1.12,26.45-3.44,35.35-4.32c2.4-0.24,5.14-0.26,7.5,0.32" style="fill:none;stroke:#999;stroke-width:3" />
<path d="M246.22,25.82c1.23,1.23,1.4,2.69,1.44,4.5c0.84,40.93-2.53,51.8-14.91,62.93" style="fill:none;stroke:black;stroke-width:3" />
<circle cx="246.22" cy="25.82" r="5" stroke-width="0" fill="#FF2A00" opacity="0.7" />
<path d="M342.75,23.39c1.97,0.8,4.94,0.48,6.98,0.23c7.31-0.91,21.32-2.67,28.78-3.29c2.18-0.18,4.34-0.34,6.49,0.19" style="fill:none;stroke:#999;stroke-width:3" />
<path d="M338.75,50.64c2.16,0.88,5.4,0.42,7.65,0.13c8.6-1.12,26.45-3.44,35.35-4.32c2.4-0.24,5.14-0.26,7.5,0.32" style="fill:none;stroke:#999;stroke-width:3" />
<path d="M355.22,25.82c1.23,1.23,1.4,2.69,1.44,4.5c0.84,40.93-2.53,51.8-14.91,62.93" style="fill:none;stroke:#999;stroke-width:3" />
<path d="M373.25,23.13c0.75,0.75,1.16,2.74,1.16,4.24c0,6.5-0.02,41.77-0.03,57.13c0,3.8,0,6.38,0,7" style="fill:none;stroke:black;stroke-width:3" />
<circle cx="373.25" cy="23.13" r="5" stroke-width="0" fill="#FF2A00" opacity="0.7" />
<path d="M451.75,23.39c1.97,0.8,4.94,0.48,6.98,0.23c7.31-0.91,21.32-2.67,28.78-3.29c2.18-0.18,4.34-0.34,6.49,0.19" style="fill:none;stroke:#999;stroke-width:3" />
<path d="M447.75,50.64c2.16,0.88,5.4,0.42,7.65,0.13c8.6-1.12,26.45-3.44,35.35-4.32c2.4-0.24,5.14-0.26,7.5,0.32" style="fill:none;stroke:#999;stroke-width:3" />
<path d="M464.22,25.82c1.23,1.23,1.4,2.69,1.44,4.5c0.84,40.93-2.53,51.8-14.91,62.93" style="fill:none;stroke:#999;stroke-width:3" />
<path d="M482.25,23.13c0.75,0.75,1.16,2.74,1.16,4.24c0,6.5-0.02,41.77-0.03,57.13c0,3.8,0,6.38,0,7" style="fill:none;stroke:#999;stroke-width:3" />
<path d="M507.02,26.33c0.98,0.92,1.76,2.67,1.76,5.02c0,10.52,0.06,22.4,0.06,30.65c0,3.5-0.08,6.24-0.08,7.75" style="fill:none;stroke:black;stroke-width:3" />
<circle cx="507.02" cy="26.33" r="5" stroke-width="0" fill="#FF2A00" opacity="0.7" />
<path d="M560.75,23.39c1.97,0.8,4.94,0.48,6.98,0.23c7.31-0.91,21.32-2.67,28.78-3.29c2.18-0.18,4.34-0.34,6.49,0.19" style="fill:none;stroke:#999;stroke-width:3" />
<path d="M556.75,50.64c2.16,0.88,5.4,0.42,7.65,0.13c8.6-1.12,26.45-3.44,35.35-4.32c2.4-0.24,5.14-0.26,7.5,0.32" style="fill:none;stroke:#999;stroke-width:3" />
<path d="M573.22,25.82c1.23,1.23,1.4,2.69,1.44,4.5c0.84,40.93-2.53,51.8-14.91,62.93" style="fill:none;stroke:#999;stroke-width:3" />
<path d="M591.25,23.13c0.75,0.75,1.16,2.74,1.16,4.24c0,6.5-0.02,41.77-0.03,57.13c0,3.8,0,6.38,0,7" style="fill:none;stroke:#999;stroke-width:3" />
<path d="M616.02,26.33c0.98,0.92,1.76,2.67,1.76,5.02c0,10.52,0.06,22.4,0.06,30.65c0,3.5-0.08,6.24-0.08,7.75" style="fill:none;stroke:#999;stroke-width:3" />
<path d="M635.77,15.83c1.2,1.2,1.76,2.67,1.76,5.02c0,14.56-0.01,62.41-0.01,67.37c0,8.12-5.52,5.41-9.96,0.75" style="fill:none;stroke:black;stroke-width:3" />
<circle cx="635.77" cy="15.83" r="5" stroke-width="0" fill="#FF2A00" opacity="0.7" />
</svg>