<!-- 05243 -->
<svg width="981px" height="109px" viewBox="0 0 981px 109px" xmlns="http://www.w3.org/2000/svg" xmlns:xlink="http://www.w3.org/1999/xlink" xml:space="preserve" version="1.1"  baseProfile="full">
<line x1="1" y1="1" x2="980" y2="1" style="stroke:#ddd;stroke-width:2" />
<line x1="1" y1="1" x2="1" y2="108" style="stroke:#ddd;stroke-width:2" />
<line x1="1" y1="108" x2="980" y2="108" style="stroke:#ddd;stroke-width:2" />
<line x1="980" y1="1" x2="980" y2="108" style="stroke:#ddd;stroke-width:2" />
<line x1="109" y1="1" x2="109" y2="108" style="stroke:#ddd;stroke-width:2" />
<line x1="218" y1="1" x2="218" y2="108" style="stroke:#ddd;stroke-width:2" />
<line x1="327" y1="1" x2="327" y2="108" style="stroke:#ddd;stroke-width:2" />
<line x1="436" y1="1" x2="436" y2="108" style="stroke:#ddd;stroke-width:2" />
<line x1="545" y1="1" x2="545" y2="108" style="stroke:#ddd;stroke-width:2" />
<line x1="654" y1="1" x2="654" y2="108" style="stroke:#ddd;stroke-width:2" />
<line x1="763" y1="1" x2="763" y2="108" style="stroke:#ddd;stroke-width:2" />
<line x1="872" y1="1" x2="872" y2="108" style="stroke:#ddd;stroke-width:2" />
<line x1="1" y1="54" x2="980" y2="54" style="stroke:#ddd;stroke-width:2;stroke-dasharray:3 3" />
<line x1="55" y1="1" x2="55" y2="108" style="stroke:#ddd;stroke-width:2;stroke-dasharray:3 3" />
<line x1="164" y1="1" x2="164" y2="108" style="stroke:#ddd;stroke-width:2;stroke-dasharray:3 3" />
<line x1="273" y1="1" x2="273" y2="108" style="stroke:#ddd;stroke-width:2;stroke-dasharray:3 3" />
<line x1="382" y1="1" x2="382" y2="108" style="stroke:#ddd;stroke-width:2;stroke-dasharray:3 3" />
<line x1="491" y1="1" x2="491" y2="108" style="stroke:#ddd;stroke-width:2;stroke-dasharray:3 3" />
<line x1="600" y1="1" x2="600" y2="108" style="stroke:#ddd;stroke-width:2;stroke-dasharray:3 3" />
<line x1="709" y1="1" x2="709" y2="108" style="stroke:#ddd;stroke-width:2;stroke-dasharray:3 3" />
<line x1="818" y1="1" x2="818" y2="108" style="stroke:#ddd;stroke-width:2;stroke-dasharray:3 3" />
<line x1="927" y1="1" x2="927" y2="108" style="stroke:#ddd;stroke-width:2;stroke-dasharray:3 3" />
<path d="M21.16,15.25c2.62,1.63,6.78,6.69,7.43,9.22" style="fill:none;stroke:black;stroke-width:3" />
<circle cx="21.16" cy="15.25" r="5" stroke-width="0" fill="#FF2A00" opacity="0.7" />
<path d="M130.16,15.25c2.62,1.63,6.78,6.69,7.43,9.22" style="fill:none;stroke:#999;stroke-width:3" />
<path d="M156.85,12c0.08,1.05-0.09,2.06-0.49,3.04C155.2,18.43 153.0,21.5 148.36,27.25" style="fill:none;stroke:black;stroke-width:3" />
<circle cx="156.85" cy="12.0" r="5" stroke-width="0" fill="#FF2A00" opacity="0.7" />
<path d="M239.16,15.25c2.62,1.63,6.78,6.69,7.43,9.22" style="fill:none;stroke:#999;stroke-width:3" />
<path d="M265.85,12c0.08,1.05-0.09,2.06-0.49,3.04C264.2,18.43 262.0,21.5 257.36,27.25" style="fill:none;stroke:#999;stroke-width:3" />
<path d="M233.18,30.54c1.17,1.07,3.25,1.31,4.75,1.19c6.07-0.48,30.13-4.17,33.11-4.76c2.98-0.59,2.72,2.15,2.19,4.05c-0.55,1.97-1.56,5.47-2.29,8.28c-0.37,1.45-0.67,2.72-0.78,3.51" style="fill:none;stroke:black;stroke-width:3" />
<circle cx="233.18" cy="30.54" r="5" stroke-width="0" fill="#FF2A00" opacity="0.7" />
<path d="M348.15999999999997,15.25c2.62,1.63,6.78,6.69,7.43,9.22" style="fill:none;stroke:#999;stroke-width:3" />
<path d="M374.85,12c0.08,1.05-0.09,2.06-0.49,3.04C373.2,18.43 371.0,21.5 366.36,27.25" style="fill:none;stroke:#999;stroke-width:3" />
<path d="M342.18,30.54c1.17,1.07,3.25,1.31,4.75,1.19c6.07-0.48,30.13-4.17,33.11-4.76c2.98-0.59,2.72,2.15,2.19,4.05c-0.55,1.97-1.56,5.47-2.29,8.28c-0.37,1.45-0.67,2.72-0.78,3.51" style="fill:none;stroke:#999;stroke-width:3" />
<path d="M347.25,46.75c5-0.75,27.39-4,29.19-4s3.61,0,5.06,0" style="fill:none;stroke:black;stroke-width:3" />
<circle cx="347.25" cy="46.75" r="5" stroke-width="0" fill="#FF2A00" opacity="0.7" />
<path d="M457.15999999999997,15.25c2.62,1.63,6.78,6.69,7.43,9.22" style="fill:none;stroke:#999;stroke-width:3" />
<path d="M483.85,12c0.08,1.05-0.09,2.06-0.49,3.04C482.2,18.43 480.0,21.5 475.36,27.25" style="fill:none;stroke:#999;stroke-width:3" />
<path d="M451.18,30.54c1.17,1.07,3.25,1.31,4.75,1.19c6.07-0.48,30.13-4.17,33.11-4.76c2.98-0.59,2.72,2.15,2.19,4.05c-0.55,1.97-1.56,5.47-2.29,8.28c-0.37,1.45-0.67,2.72-0.78,3.51" style="fill:none;stroke:#999;stroke-width:3" />
<path d="M456.25,46.75c5-0.75,27.39-4,29.19-4s3.61,0,5.06,0" style="fill:none;stroke:#999;stroke-width:3" />
<path d="M455.48,45.92c0.89,0.79,0.76,2.95,0.18,4.21c-0.66,1.44-3.27,7.54-3.64,8.34c-1.29,2.78-0.94,4.19,0.95,3.88c1.8-0.29,35.07-5.03,39.84-5.62c4.77-0.6,3.6,3.99,3.26,5.42c-0.65,2.74-3.06,11.6-5.74,17.29c-3.68,7.8-5.3,1.05-6.66-0.48" style="fill:none;stroke:black;stroke-width:3" />
<circle cx="455.48" cy="45.92" r="5" stroke-width="0" fill="#FF2A00" opacity="0.7" />
<path d="M566.16,15.25c2.62,1.63,6.78,6.69,7.43,9.22" style="fill:none;stroke:#999;stroke-width:3" />
<path d="M592.85,12c0.08,1.05-0.09,2.06-0.49,3.04C591.2,18.43 589.0,21.5 584.36,27.25" style="fill:none;stroke:#999;stroke-width:3" />
<path d="M560.1800000000001,30.54c1.17,1.07,3.25,1.31,4.75,1.19c6.07-0.48,30.13-4.17,33.11-4.76c2.98-0.59,2.72,2.15,2.19,4.05c-0.55,1.97-1.56,5.47-2.29,8.28c-0.37,1.45-0.67,2.72-0.78,3.51" style="fill:none;stroke:#999;stroke-width:3" />
<path d="M565.25,46.75c5-0.75,27.39-4,29.19-4s3.61,0,5.06,0" style="fill:none;stroke:#999;stroke-width:3" />
<path d="M564.48,45.92c0.89,0.79,0.76,2.95,0.18,4.21c-0.66,1.44-3.27,7.54-3.64,8.34c-1.29,2.78-0.94,4.19,0.95,3.88c1.8-0.29,35.07-5.03,39.84-5.62c4.77-0.6,3.6,3.99,3.26,5.42c-0.65,2.74-3.06,11.6-5.74,17.29c-3.68,7.8-5.3,1.05-6.66-0.48" style="fill:none;stroke:#999;stroke-width:3" />
<path d="M580.87,31.41c1.22,1.15,1.45,2.48,1.48,4.09c0.14,9.47-0.07,40.65-0.14,57.25c-0.01,2.89-0.04,4.08-0.09,5.25" style="fill:none;stroke:black;stroke-width:3" />
<circle cx="580.87" cy="31.41" r="5" stroke-width="0" fill="#FF2A00" opacity="0.7" />
<path d="M675.16,15.25c2.62,1.63,6.78,6.69,7.43,9.22" style="fill:none;stroke:#999;stroke-width:3" />
<path d="M701.85,12c0.08,1.05-0.09,2.06-0.49,3.04C700.2,18.43 698.0,21.5 693.36,27.25" style="fill:none;stroke:#999;stroke-width:3" />
<path d="M669.1800000000001,30.54c1.17,1.07,3.25,1.31,4.75,1.19c6.07-0.48,30.13-4.17,33.11-4.76c2.98-0.59,2.72,2.15,2.19,4.05c-0.55,1.97-1.56,5.47-2.29,8.28c-0.37,1.45-0.67,2.72-0.78,3.51" style="fill:none;stroke:#999;stroke-width:3" />
<path d="M674.25,46.75c5-0.75,27.39-4,29.19-4s3.61,0,5.06,0" style="fill:none;stroke:#999;stroke-width:3" />
<path d="M673.48,45.92c0.89,0.79,0.76,2.95,0.18,4.21c-0.66,1.44-3.27,7.54-3.64,8.34c-1.29,2.78-0.94,4.19,0.95,3.88c1.8-0.29,35.07-5.03,39.84-5.62c4.77-0.6,3.6,3.99,3.26,5.42c-0.65,2.74-3.06,11.6-5.74,17.29c-3.68,7.8-5.3,1.05-6.66-0.48" style="fill:none;stroke:#999;stroke-width:3" />
<path d="M689.87,31.41c1.22,1.15,1.45,2.48,1.48,4.09c0.14,9.47-0.07,40.65-0.14,57.25c-0.01,2.89-0.04,4.08-0.09,5.25" style="fill:none;stroke:#999;stroke-width:3" />
<path d="M688.94,60.5c0.06,0.62,0.13,1.6-0.14,2.49c-1.6,5.25-10.99,17.71-23.55,24.76" style="fill:none;stroke:black;stroke-width:3" />
<circle cx="688.94" cy="60.5" r="5" stroke-width="0" fill="#FF2A00" opacity="0.7" />
<path d="M784.16,15.25c2.62,1.63,6.78,6.69,7.43,9.22" style="fill:none;stroke:#999;stroke-width:3" />
<path d="M810.85,12c0.08,1.05-0.09,2.06-0.49,3.04C809.2,18.43 807.0,21.5 802.36,27.25" style="fill:none;stroke:#999;stroke-width:3" />
<path d="M778.1800000000001,30.54c1.17,1.07,3.25,1.31,4.75,1.19c6.07-0.48,30.13-4.17,33.11-4.76c2.98-0.59,2.72,2.15,2.19,4.05c-0.55,1.97-1.56,5.47-2.29,8.28c-0.37,1.45-0.67,2.72-0.78,3.51" style="fill:none;stroke:#999;stroke-width:3" />
<path d="M783.25,46.75c5-0.75,27.39-4,29.19-4s3.61,0,5.06,0" style="fill:none;stroke:#999;stroke-width:3" />
<path d="M782.48,45.92c0.89,0.79,0.76,2.95,0.18,4.21c-0.66,1.44-3.27,7.54-3.64,8.34c-1.29,2.78-0.94,4.19,0.95,3.88c1.8-0.29,35.07-5.03,39.84-5.62c4.77-0.6,3.6,3.99,3.26,5.42c-0.65,2.74-3.06,11.6-5.74,17.29c-3.68,7.8-5.3,1.05-6.66-0.48" style="fill:none;stroke:#999;stroke-width:3" />
<path d="M798.87,31.41c1.22,1.15,1.45,2.48,1.48,4.09c0.14,9.47-0.07,40.65-0.14,57.25c-0.01,2.89-0.04,4.08-0.09,5.25" style="fill:none;stroke:#999;stroke-width:3" />
<path d="M797.94,60.5c0.06,0.62,0.13,1.6-0.14,2.49c-1.6,5.25-10.99,17.71-23.55,24.76" style="fill:none;stroke:#999;stroke-width:3" />
<path d="M833.77,25.33c0.98,0.92,1.67,1.99,1.76,5.02c0.31,11.1,0.13,23.12,0.03,30.4c-0.03,2.27-0.05,4.07-0.05,5.25" style="fill:none;stroke:black;stroke-width:3" />
<circle cx="833.77" cy="25.33" r="5" stroke-width="0" fill="#FF2A00" opacity="0.7" />
<path d="M893.16,15.25c2.62,1.63,6.78,6.69,7.43,9.22" style="fill:none;stroke:#999;stroke-width:3" />
<path d="M919.85,12c0.08,1.05-0.09,2.06-0.49,3.04C918.2,18.43 916.0,21.5 911.36,27.25" style="fill:none;stroke:#999;stroke-width:3" />
<path d="M887.1800000000001,30.54c1.17,1.07,3.25,1.31,4.75,1.19c6.07-0.48,30.13-4.17,33.11-4.76c2.98-0.59,2.72,2.15,2.19,4.05c-0.55,1.97-1.56,5.47-2.29,8.28c-0.37,1.45-0.67,2.72-0.78,3.51" style="fill:none;stroke:#999;stroke-width:3" />
<path d="M892.25,46.75c5-0.75,27.39-4,29.19-4s3.61,0,5.06,0" style="fill:none;stroke:#999;stroke-width:3" />
<path d="M891.48,45.92c0.89,0.79,0.76,2.95,0.18,4.21c-0.66,1.44-3.27,7.54-3.64,8.34c-1.29,2.78-0.94,4.19,0.95,3.88c1.8-0.29,35.07-5.03,39.84-5.62c4.77-0.6,3.6,3.99,3.26,5.42c-0.65,2.74-3.06,11.6-5.74,17.29c-3.68,7.8-5.3,1.05-6.66-0.48" style="fill:none;stroke:#999;stroke-width:3" />
<path d="M907.87,31.41c1.22,1.15,1.45,2.48,1.48,4.09c0.14,9.47-0.07,40.65-0.14,57.25c-0.01,2.89-0.04,4.08-0.09,5.25" style="fill:none;stroke:#999;stroke-width:3" />
<path d="M906.94,60.5c0.06,0.62,0.13,1.6-0.14,2.49c-1.6,5.25-10.99,17.71-23.55,24.76" style="fill:none;stroke:#999;stroke-width:3" />
<path d="M942.77,25.33c0.98,0.92,1.67,1.99,1.76,5.02c0.31,11.1,0.13,23.12,0.03,30.4c-0.03,2.27-0.05,4.07-0.05,5.25" style="fill:none;stroke:#999;stroke-width:3" />
<path d="M961.27,13.33c0.98,0.92,1.67,1.99,1.76,5.02c0.4,14.55-0.26,65.66-0.26,70.62c0,13.14-7.21,1.5-8.71,0.25" style="fill:none;stroke:black;stroke-width:3" />
<circle cx="961.27" cy="13.33" r="5" stroke-width="0" fill="#FF2A00" opacity="0.7" />
</svg>