<!-- 0529f -->
<svg width="545px" height="109px" viewBox="0 0 545px 109px" xmlns="http://www.w3.org/2000/svg" xmlns:xlink="http://www.w3.org/1999/xlink" xml:space="preserve" version="1.1"  baseProfile="full">
<line x1="1" y1="1" x2="544" y2="1" style="stroke:#ddd;stroke-width:2" />
<line x1="1" y1="1" x2="1" y2="108" style="stroke:#ddd;stroke-width:2" />
<line x1="1" y1="108" x2="544" y2="108" style="stroke:#ddd;stroke-width:2" />
<line x1="544" y1="1" x2="544" y2="108" style="stroke:#ddd;stroke-width:2" />
<line x1="109" y1="1" x2="109" y2="108" style="stroke:#ddd;stroke-width:2" />
<line x1="218" y1="1" x2="218" y2="108" style="stroke:#ddd;stroke-width:2" />
<line x1="327" y1="1" x2="327" y2="108" style="stroke:#ddd;stroke-width:2" />
<line x1="436" y1="1" x2="436" y2="108" style="stroke:#ddd;stroke-width:2" />
<line x1="1" y1="54" x2="544" y2="54" style="stroke:#ddd;stroke-width:2;stroke-dasharray:3 3" />
<line x1="55" y1="1" x2="55" y2="108" style="stroke:#ddd;stroke-width:2;stroke-dasharray:3 3" />
<line x1="164" y1="1" x2="164" y2="108" style="stroke:#ddd;stroke-width:2;stroke-dasharray:3 3" />
<line x1="273" y1="1" x2="273" y2="108" style="stroke:#ddd;stroke-width:2;stroke-dasharray:3 3" />
<line x1="382" y1="1" x2="382" y2="108" style="stroke:#ddd;stroke-width:2;stroke-dasharray:3 3" />
<line x1="491" y1="1" x2="491" y2="108" style="stroke:#ddd;stroke-width:2;stroke-dasharray:3 3" />
<path d="M14.0,33.9c1.75,0.46,3.95,0.37,5.4,0.15c4.58-0.7,12.28-2.56,18.23-3.11c1.31-0.12,3.37-0.06,4.49,0.17" style="fill:none;stroke:black;stroke-width:3" />
<circle cx="14.0" cy="33.9" r="5" stroke-width="0" fill="#FF2A00" opacity="0.7" />
<path d="M123.0,33.9c1.75,0.46,3.95,0.37,5.4,0.15c4.58-0.7,12.28-2.56,18.23-3.11c1.31-0.12,3.37-0.06,4.49,0.17" style="fill:none;stroke:#999;stroke-width:3" />
<path d="M137.57,35.52c1.02,1.02,1.48,1.86,1.48,3.48c0,5.95,0.1,23.88,0.1,28.82" style="fill:none;stroke:black;stroke-width:3" />
<circle cx="137.57" cy="35.52" r="5" stroke-width="0" fill="#FF2A00" opacity="0.7" />
<path d="M232.0,33.9c1.75,0.46,3.95,0.37,5.4,0.15c4.58-0.7,12.28-2.56,18.23-3.11c1.31-0.12,3.37-0.06,4.49,0.17" style="fill:none;stroke:#999;stroke-width:3" />
<path d="M246.57,35.52c1.02,1.02,1.48,1.86,1.48,3.48c0,5.95,0.1,23.88,0.1,28.82" style="fill:none;stroke:#999;stroke-width:3" />
<path d="M233.25,74.25c1.38,0.88,2.25,0.62,4-0.25c5.3-2.65,10.88-5.38,20-10.25" style="fill:none;stroke:black;stroke-width:3" />
<circle cx="233.25" cy="74.25" r="5" stroke-width="0" fill="#FF2A00" opacity="0.7" />
<path d="M341.0,33.9c1.75,0.46,3.95,0.37,5.4,0.15c4.58-0.7,12.28-2.56,18.23-3.11c1.31-0.12,3.37-0.06,4.49,0.17" style="fill:none;stroke:#999;stroke-width:3" />
<path d="M355.57,35.52c1.02,1.02,1.48,1.86,1.48,3.48c0,5.95,0.1,23.88,0.1,28.82" style="fill:none;stroke:#999;stroke-width:3" />
<path d="M342.25,74.25c1.38,0.88,2.25,0.62,4-0.25c5.3-2.65,10.88-5.38,20-10.25" style="fill:none;stroke:#999;stroke-width:3" />
<path d="M375.15,39.31c2.47,0.81,5.87,0.79,8.27,0.38c10.11-1.71,27.41-6.1,31.98-7c4.11-0.82,5.01,1.96,4.87,5.41C419.75,50 411.88,77.75 404.35,90.01c-4.34,7.08-7.85,1.74-9.93-0.49" style="fill:none;stroke:black;stroke-width:3" />
<circle cx="375.15" cy="39.31" r="5" stroke-width="0" fill="#FF2A00" opacity="0.7" />
<path d="M450.0,33.9c1.75,0.46,3.95,0.37,5.4,0.15c4.58-0.7,12.28-2.56,18.23-3.11c1.31-0.12,3.37-0.06,4.49,0.17" style="fill:none;stroke:#999;stroke-width:3" />
<path d="M464.57,35.52c1.02,1.02,1.48,1.86,1.48,3.48c0,5.95,0.1,23.88,0.1,28.82" style="fill:none;stroke:#999;stroke-width:3" />
<path d="M451.25,74.25c1.38,0.88,2.25,0.62,4-0.25c5.3-2.65,10.88-5.38,20-10.25" style="fill:none;stroke:#999;stroke-width:3" />
<path d="M484.15,39.31c2.47,0.81,5.87,0.79,8.27,0.38c10.11-1.71,27.41-6.1,31.98-7c4.11-0.82,5.01,1.96,4.87,5.41C528.75,50 520.88,77.75 513.35,90.01c-4.34,7.08-7.85,1.74-9.93-0.49" style="fill:none;stroke:#999;stroke-width:3" />
<path d="M506.89,14.13c0.99,1.24,1.29,3.07,0.83,5.57C502.62,47 495.62,72.88 476.22,89.17" style="fill:none;stroke:black;stroke-width:3" />
<circle cx="506.89" cy="14.13" r="5" stroke-width="0" fill="#FF2A00" opacity="0.7" />
</svg>