<!-- 052c3 -->
<svg width="981px" height="109px" viewBox="0 0 981px 109px" xmlns="http://www.w3.org/2000/svg" xmlns:xlink="http://www.w3.org/1999/xlink" xml:space="preserve" version="1.1"  baseProfile="full">
<line x1="1" y1="1" x2="980" y2="1" style="stroke:#ddd;stroke-width:2" />
<line x1="1" y1="1" x2="1" y2="108" style="stroke:#ddd;stroke-width:2" />
<line x1="1" y1="108" x2="980" y2="108" style="stroke:#ddd;stroke-width:2" />
<line x1="980" y1="1" x2="980" y2="108" style="stroke:#ddd;stroke-width:2" />
<line x1="109" y1="1" x2="109" y2="108" style="stroke:#ddd;stroke-width:2" />
<line x1="218" y1="1" x2="218" y2="108" style="stroke:#ddd;stroke-width:2" />
<line x1="327" y1="1" x2="327" y2="108" style="stroke:#ddd;stroke-width:2" />
<line x1="436" y1="1" x2="436" y2="108" style="stroke:#ddd;stroke-width:2" />
<line x1="545" y1="1" x2="545" y2="108" style="stroke:#ddd;stroke-width:2" />
<line x1="654" y1="1" x2="654" y2="108" style="stroke:#ddd;stroke-width:2" />
<line x1="763" y1="1" x2="763" y2="108" style="stroke:#ddd;stroke-width:2" />
<line x1="872" y1="1" x2="872" y2="108" style="stroke:#ddd;stroke-width:2" />
<line x1="1" y1="54" x2="980" y2="54" style="stroke:#ddd;stroke-width:2;stroke-dasharray:3 3" />
<line x1="55" y1="1" x2="55" y2="108" style="stroke:#ddd;stroke-width:2;stroke-dasharray:3 3" />
<line x1="164" y1="1" x2="164" y2="108" style="stroke:#ddd;stroke-width:2;stroke-dasharray:3 3" />
<line x1="273" y1="1" x2="273" y2="108" style="stroke:#ddd;stroke-width:2;stroke-dasharray:3 3" />
<line x1="382" y1="1" x2="382" y2="108" style="stroke:#ddd;stroke-width:2;stroke-dasharray:3 3" />
<line x1="491" y1="1" x2="491" y2="108" style="stroke:#ddd;stroke-width:2;stroke-dasharray:3 3" />
<line x1="600" y1="1" x2="600" y2="108" style="stroke:#ddd;stroke-width:2;stroke-dasharray:3 3" />
<line x1="709" y1="1" x2="709" y2="108" style="stroke:#ddd;stroke-width:2;stroke-dasharray:3 3" />
<line x1="818" y1="1" x2="818" y2="108" style="stroke:#ddd;stroke-width:2;stroke-dasharray:3 3" />
<line x1="927" y1="1" x2="927" y2="108" style="stroke:#ddd;stroke-width:2;stroke-dasharray:3 3" />
<path d="M12.57,23c1.01,0.47,3,0.57,4.02,0.44c6.45-0.81,24.29-2.62,31.46-3.37c1.68-0.18,3.51,0.25,4.35,0.48" style="fill:none;stroke:black;stroke-width:3" />
<circle cx="12.57" cy="23.0" r="5" stroke-width="0" fill="#FF2A00" opacity="0.7" />
<path d="M121.57,23c1.01,0.47,3,0.57,4.02,0.44c6.45-0.81,24.29-2.62,31.46-3.37c1.68-0.18,3.51,0.25,4.35,0.48" style="fill:none;stroke:#999;stroke-width:3" />
<path d="M140.16,11c0.94,0.5,1.69,2.23,1.69,3.25c0,7.25,0.03,14.5,0.03,20" style="fill:none;stroke:black;stroke-width:3" />
<circle cx="140.16" cy="11.0" r="5" stroke-width="0" fill="#FF2A00" opacity="0.7" />
<path d="M230.57,23c1.01,0.47,3,0.57,4.02,0.44c6.45-0.81,24.29-2.62,31.46-3.37c1.68-0.18,3.51,0.25,4.35,0.48" style="fill:none;stroke:#999;stroke-width:3" />
<path d="M249.16,11c0.94,0.5,1.69,2.23,1.69,3.25c0,7.25,0.03,14.5,0.03,20" style="fill:none;stroke:#999;stroke-width:3" />
<path d="M231.8,34.88c0,3.2-2.5,11.98-3.64,14.12" style="fill:none;stroke:black;stroke-width:3" />
<circle cx="231.8" cy="34.88" r="5" stroke-width="0" fill="#FF2A00" opacity="0.7" />
<path d="M339.57,23c1.01,0.47,3,0.57,4.02,0.44c6.45-0.81,24.29-2.62,31.46-3.37c1.68-0.18,3.51,0.25,4.35,0.48" style="fill:none;stroke:#999;stroke-width:3" />
<path d="M358.15999999999997,11c0.94,0.5,1.69,2.23,1.69,3.25c0,7.25,0.03,14.5,0.03,20" style="fill:none;stroke:#999;stroke-width:3" />
<path d="M340.8,34.88c0,3.2-2.5,11.98-3.64,14.12" style="fill:none;stroke:#999;stroke-width:3" />
<path d="M340.65,37.24c8.05-0.99,31.25-4.53,35.39-4.9c6.47-0.59,4.46,3.66-0.74,8.28" style="fill:none;stroke:black;stroke-width:3" />
<circle cx="340.65" cy="37.24" r="5" stroke-width="0" fill="#FF2A00" opacity="0.7" />
<path d="M448.57,23c1.01,0.47,3,0.57,4.02,0.44c6.45-0.81,24.29-2.62,31.46-3.37c1.68-0.18,3.51,0.25,4.35,0.48" style="fill:none;stroke:#999;stroke-width:3" />
<path d="M467.15999999999997,11c0.94,0.5,1.69,2.23,1.69,3.25c0,7.25,0.03,14.5,0.03,20" style="fill:none;stroke:#999;stroke-width:3" />
<path d="M449.8,34.88c0,3.2-2.5,11.98-3.64,14.12" style="fill:none;stroke:#999;stroke-width:3" />
<path d="M449.65,37.24c8.05-0.99,31.25-4.53,35.39-4.9c6.47-0.59,4.46,3.66-0.74,8.28" style="fill:none;stroke:#999;stroke-width:3" />
<path d="M455.8,48.65c0.66,0.24,1.92,0.63,2.93,0.42c1.22-0.26,16.39-4.76,17.55-4.76s2.43,0.74,1.26,2.21c-1.16,1.47-6.52,7.73-9.47,10.4" style="fill:none;stroke:black;stroke-width:3" />
<circle cx="455.8" cy="48.65" r="5" stroke-width="0" fill="#FF2A00" opacity="0.7" />
<path d="M557.5699999999999,23c1.01,0.47,3,0.57,4.02,0.44c6.45-0.81,24.29-2.62,31.46-3.37c1.68-0.18,3.51,0.25,4.35,0.48" style="fill:none;stroke:#999;stroke-width:3" />
<path d="M576.16,11c0.94,0.5,1.69,2.23,1.69,3.25c0,7.25,0.03,14.5,0.03,20" style="fill:none;stroke:#999;stroke-width:3" />
<path d="M558.8,34.88c0,3.2-2.5,11.98-3.64,14.12" style="fill:none;stroke:#999;stroke-width:3" />
<path d="M558.65,37.24c8.05-0.99,31.25-4.53,35.39-4.9c6.47-0.59,4.46,3.66-0.74,8.28" style="fill:none;stroke:#999;stroke-width:3" />
<path d="M564.8,48.65c0.66,0.24,1.92,0.63,2.93,0.42c1.22-0.26,16.39-4.76,17.55-4.76s2.43,0.74,1.26,2.21c-1.16,1.47-6.52,7.73-9.47,10.4" style="fill:none;stroke:#999;stroke-width:3" />
<path d="M574.21,57.65C581.25,62 585.52,76.49 580.03,89.2c-3.01,6.95-6.16,5.22-8.92,0.51" style="fill:none;stroke:black;stroke-width:3" />
<circle cx="574.21" cy="57.65" r="5" stroke-width="0" fill="#FF2A00" opacity="0.7" />
<path d="M666.5699999999999,23c1.01,0.47,3,0.57,4.02,0.44c6.45-0.81,24.29-2.62,31.46-3.37c1.68-0.18,3.51,0.25,4.35,0.48" style="fill:none;stroke:#999;stroke-width:3" />
<path d="M685.16,11c0.94,0.5,1.69,2.23,1.69,3.25c0,7.25,0.03,14.5,0.03,20" style="fill:none;stroke:#999;stroke-width:3" />
<path d="M667.8,34.88c0,3.2-2.5,11.98-3.64,14.12" style="fill:none;stroke:#999;stroke-width:3" />
<path d="M667.65,37.24c8.05-0.99,31.25-4.53,35.39-4.9c6.47-0.59,4.46,3.66-0.74,8.28" style="fill:none;stroke:#999;stroke-width:3" />
<path d="M673.8,48.65c0.66,0.24,1.92,0.63,2.93,0.42c1.22-0.26,16.39-4.76,17.55-4.76s2.43,0.74,1.26,2.21c-1.16,1.47-6.52,7.73-9.47,10.4" style="fill:none;stroke:#999;stroke-width:3" />
<path d="M683.21,57.65C690.25,62 694.52,76.49 689.03,89.2c-3.01,6.95-6.16,5.22-8.92,0.51" style="fill:none;stroke:#999;stroke-width:3" />
<path d="M669.33,73.42c0.92,1.33,2.61,1.53,4.54,0.71c4.13-1.74,24.38-10.87,30.4-13.46" style="fill:none;stroke:black;stroke-width:3" />
<circle cx="669.33" cy="73.42" r="5" stroke-width="0" fill="#FF2A00" opacity="0.7" />
<path d="M775.5699999999999,23c1.01,0.47,3,0.57,4.02,0.44c6.45-0.81,24.29-2.62,31.46-3.37c1.68-0.18,3.51,0.25,4.35,0.48" style="fill:none;stroke:#999;stroke-width:3" />
<path d="M794.16,11c0.94,0.5,1.69,2.23,1.69,3.25c0,7.25,0.03,14.5,0.03,20" style="fill:none;stroke:#999;stroke-width:3" />
<path d="M776.8,34.88c0,3.2-2.5,11.98-3.64,14.12" style="fill:none;stroke:#999;stroke-width:3" />
<path d="M776.65,37.24c8.05-0.99,31.25-4.53,35.39-4.9c6.47-0.59,4.46,3.66-0.74,8.28" style="fill:none;stroke:#999;stroke-width:3" />
<path d="M782.8,48.65c0.66,0.24,1.92,0.63,2.93,0.42c1.22-0.26,16.39-4.76,17.55-4.76s2.43,0.74,1.26,2.21c-1.16,1.47-6.52,7.73-9.47,10.4" style="fill:none;stroke:#999;stroke-width:3" />
<path d="M792.21,57.65C799.25,62 803.52,76.49 798.03,89.2c-3.01,6.95-6.16,5.22-8.92,0.51" style="fill:none;stroke:#999;stroke-width:3" />
<path d="M778.33,73.42c0.92,1.33,2.61,1.53,4.54,0.71c4.13-1.74,24.38-10.87,30.4-13.46" style="fill:none;stroke:#999;stroke-width:3" />
<path d="M823.28,41.97c1.47,0.28,2.97,0.53,4.81,0.36c7.61-0.69,21.51-4.34,25.1-4.59c3.58-0.24,3.69,2.03,3.66,5.19C856.75,53 851.25,79 843.75,91.03c-3.7,5.94-5.75,1.47-7.16-1.18" style="fill:none;stroke:black;stroke-width:3" />
<circle cx="823.28" cy="41.97" r="5" stroke-width="0" fill="#FF2A00" opacity="0.7" />
<path d="M884.5699999999999,23c1.01,0.47,3,0.57,4.02,0.44c6.45-0.81,24.29-2.62,31.46-3.37c1.68-0.18,3.51,0.25,4.35,0.48" style="fill:none;stroke:#999;stroke-width:3" />
<path d="M903.16,11c0.94,0.5,1.69,2.23,1.69,3.25c0,7.25,0.03,14.5,0.03,20" style="fill:none;stroke:#999;stroke-width:3" />
<path d="M885.8,34.88c0,3.2-2.5,11.98-3.64,14.12" style="fill:none;stroke:#999;stroke-width:3" />
<path d="M885.65,37.24c8.05-0.99,31.25-4.53,35.39-4.9c6.47-0.59,4.46,3.66-0.74,8.28" style="fill:none;stroke:#999;stroke-width:3" />
<path d="M891.8,48.65c0.66,0.24,1.92,0.63,2.93,0.42c1.22-0.26,16.39-4.76,17.55-4.76s2.43,0.74,1.26,2.21c-1.16,1.47-6.52,7.73-9.47,10.4" style="fill:none;stroke:#999;stroke-width:3" />
<path d="M901.21,57.65C908.25,62 912.52,76.49 907.03,89.2c-3.01,6.95-6.16,5.22-8.92,0.51" style="fill:none;stroke:#999;stroke-width:3" />
<path d="M887.33,73.42c0.92,1.33,2.61,1.53,4.54,0.71c4.13-1.74,24.38-10.87,30.4-13.46" style="fill:none;stroke:#999;stroke-width:3" />
<path d="M932.28,41.97c1.47,0.28,2.97,0.53,4.81,0.36c7.61-0.69,21.51-4.34,25.1-4.59c3.58-0.24,3.69,2.03,3.66,5.19C965.75,53 960.25,79 952.75,91.03c-3.7,5.94-5.75,1.47-7.16-1.18" style="fill:none;stroke:#999;stroke-width:3" />
<path d="M947.78,13.18c0.72,1.57,0.94,2.84,0.83,5.65c-0.86,22.93-9.83,61.4-29.97,77.08" style="fill:none;stroke:black;stroke-width:3" />
<circle cx="947.78" cy="13.18" r="5" stroke-width="0" fill="#FF2A00" opacity="0.7" />
</svg>