<!-- 052f5 -->
<svg width="1744px" height="109px" viewBox="0 0 1744px 109px" xmlns="http://www.w3.org/2000/svg" xmlns:xlink="http://www.w3.org/1999/xlink" xml:space="preserve" version="1.1"  baseProfile="full">
<line x1="1" y1="1" x2="1743" y2="1" style="stroke:#ddd;stroke-width:2" />
<line x1="1" y1="1" x2="1" y2="108" style="stroke:#ddd;stroke-width:2" />
<line x1="1" y1="108" x2="1743" y2="108" style="stroke:#ddd;stroke-width:2" />
<line x1="1743" y1="1" x2="1743" y2="108" style="stroke:#ddd;stroke-width:2" />
<line x1="109" y1="1" x2="109" y2="108" style="stroke:#ddd;stroke-width:2" />
<line x1="218" y1="1" x2="218" y2="108" style="stroke:#ddd;stroke-width:2" />
<line x1="327" y1="1" x2="327" y2="108" style="stroke:#ddd;stroke-width:2" />
<line x1="436" y1="1" x2="436" y2="108" style="stroke:#ddd;stroke-width:2" />
<line x1="545" y1="1" x2="545" y2="108" style="stroke:#ddd;stroke-width:2" />
<line x1="654" y1="1" x2="654" y2="108" style="stroke:#ddd;stroke-width:2" />
<line x1="763" y1="1" x2="763" y2="108" style="stroke:#ddd;stroke-width:2" />
<line x1="872" y1="1" x2="872" y2="108" style="stroke:#ddd;stroke-width:2" />
<line x1="981" y1="1" x2="981" y2="108" style="stroke:#ddd;stroke-width:2" />
<line x1="1090" y1="1" x2="1090" y2="108" style="stroke:#ddd;stroke-width:2" />
<line x1="1199" y1="1" x2="1199" y2="108" style="stroke:#ddd;stroke-width:2" />
<line x1="1308" y1="1" x2="1308" y2="108" style="stroke:#ddd;stroke-width:2" />
<line x1="1417" y1="1" x2="1417" y2="108" style="stroke:#ddd;stroke-width:2" />
<line x1="1526" y1="1" x2="1526" y2="108" style="stroke:#ddd;stroke-width:2" />
<line x1="1635" y1="1" x2="1635" y2="108" style="stroke:#ddd;stroke-width:2" />
<line x1="1" y1="54" x2="1743" y2="54" style="stroke:#ddd;stroke-width:2;stroke-dasharray:3 3" />
<line x1="55" y1="1" x2="55" y2="108" style="stroke:#ddd;stroke-width:2;stroke-dasharray:3 3" />
<line x1="164" y1="1" x2="164" y2="108" style="stroke:#ddd;stroke-width:2;stroke-dasharray:3 3" />
<line x1="273" y1="1" x2="273" y2="108" style="stroke:#ddd;stroke-width:2;stroke-dasharray:3 3" />
<line x1="382" y1="1" x2="382" y2="108" style="stroke:#ddd;stroke-width:2;stroke-dasharray:3 3" />
<line x1="491" y1="1" x2="491" y2="108" style="stroke:#ddd;stroke-width:2;stroke-dasharray:3 3" />
<line x1="600" y1="1" x2="600" y2="108" style="stroke:#ddd;stroke-width:2;stroke-dasharray:3 3" />
<line x1="709" y1="1" x2="709" y2="108" style="stroke:#ddd;stroke-width:2;stroke-dasharray:3 3" />
<line x1="818" y1="1" x2="818" y2="108" style="stroke:#ddd;stroke-width:2;stroke-dasharray:3 3" />
<line x1="927" y1="1" x2="927" y2="108" style="stroke:#ddd;stroke-width:2;stroke-dasharray:3 3" />
<line x1="1036" y1="1" x2="1036" y2="108" style="stroke:#ddd;stroke-width:2;stroke-dasharray:3 3" />
<line x1="1145" y1="1" x2="1145" y2="108" style="stroke:#ddd;stroke-width:2;stroke-dasharray:3 3" />
<line x1="1254" y1="1" x2="1254" y2="108" style="stroke:#ddd;stroke-width:2;stroke-dasharray:3 3" />
<line x1="1363" y1="1" x2="1363" y2="108" style="stroke:#ddd;stroke-width:2;stroke-dasharray:3 3" />
<line x1="1472" y1="1" x2="1472" y2="108" style="stroke:#ddd;stroke-width:2;stroke-dasharray:3 3" />
<line x1="1581" y1="1" x2="1581" y2="108" style="stroke:#ddd;stroke-width:2;stroke-dasharray:3 3" />
<line x1="1690" y1="1" x2="1690" y2="108" style="stroke:#ddd;stroke-width:2;stroke-dasharray:3 3" />
<path d="M14.58,19.73c1.11,0.54,3.14,0.63,4.25,0.54c11.52-0.91,25.67-3.02,35.92-3.73c1.84-0.13,2.95,0.26,3.88,0.53" style="fill:none;stroke:black;stroke-width:3" />
<circle cx="14.58" cy="19.73" r="5" stroke-width="0" fill="#FF2A00" opacity="0.7" />
<path d="M123.58,19.73c1.11,0.54,3.14,0.63,4.25,0.54c11.52-0.91,25.67-3.02,35.92-3.73c1.84-0.13,2.95,0.26,3.88,0.53" style="fill:none;stroke:#999;stroke-width:3" />
<path d="M128.73,20.5c-0.98,29.75-2.82,48.07-12.67,65.47" style="fill:none;stroke:black;stroke-width:3" />
<circle cx="128.73" cy="20.5" r="5" stroke-width="0" fill="#FF2A00" opacity="0.7" />
<path d="M232.57999999999998,19.73c1.11,0.54,3.14,0.63,4.25,0.54c11.52-0.91,25.67-3.02,35.92-3.73c1.84-0.13,2.95,0.26,3.88,0.53" style="fill:none;stroke:#999;stroke-width:3" />
<path d="M237.73,20.5c-0.98,29.75-2.82,48.07-12.67,65.47" style="fill:none;stroke:#999;stroke-width:3" />
<path d="M241.32999999999998,32.07c0.88,0.43,1.9,0.43,2.79,0.43c5.63,0,21.63-3.75,28.46-3.72c1.47,0.01,2.35,0.21,3.08,0.42" style="fill:none;stroke:black;stroke-width:3" />
<circle cx="241.32999999999998" cy="32.07" r="5" stroke-width="0" fill="#FF2A00" opacity="0.7" />
<path d="M341.58,19.73c1.11,0.54,3.14,0.63,4.25,0.54c11.52-0.91,25.67-3.02,35.92-3.73c1.84-0.13,2.95,0.26,3.88,0.53" style="fill:none;stroke:#999;stroke-width:3" />
<path d="M346.73,20.5c-0.98,29.75-2.82,48.07-12.67,65.47" style="fill:none;stroke:#999;stroke-width:3" />
<path d="M350.33,32.07c0.88,0.43,1.9,0.43,2.79,0.43c5.63,0,21.63-3.75,28.46-3.72c1.47,0.01,2.35,0.21,3.08,0.42" style="fill:none;stroke:#999;stroke-width:3" />
<path d="M358.27,24.19c0.93,1.18,1.23,1.53,1.33,2.26c0.93,6.77,1.2,9.42,1.46,11.88" style="fill:none;stroke:black;stroke-width:3" />
<circle cx="358.27" cy="24.19" r="5" stroke-width="0" fill="#FF2A00" opacity="0.7" />
<path d="M450.58,19.73c1.11,0.54,3.14,0.63,4.25,0.54c11.52-0.91,25.67-3.02,35.92-3.73c1.84-0.13,2.95,0.26,3.88,0.53" style="fill:none;stroke:#999;stroke-width:3" />
<path d="M455.73,20.5c-0.98,29.75-2.82,48.07-12.67,65.47" style="fill:none;stroke:#999;stroke-width:3" />
<path d="M459.33,32.07c0.88,0.43,1.9,0.43,2.79,0.43c5.63,0,21.63-3.75,28.46-3.72c1.47,0.01,2.35,0.21,3.08,0.42" style="fill:none;stroke:#999;stroke-width:3" />
<path d="M467.27,24.19c0.93,1.18,1.23,1.53,1.33,2.26c0.93,6.77,1.2,9.42,1.46,11.88" style="fill:none;stroke:#999;stroke-width:3" />
<path d="M481.93,22.75c0.6,0.82,0.99,2.07,0.8,3.28c-0.6,3.69-1,6.84-1.86,11.56" style="fill:none;stroke:black;stroke-width:3" />
<circle cx="481.93" cy="22.75" r="5" stroke-width="0" fill="#FF2A00" opacity="0.7" />
<path d="M559.5799999999999,19.73c1.11,0.54,3.14,0.63,4.25,0.54c11.52-0.91,25.67-3.02,35.92-3.73c1.84-0.13,2.95,0.26,3.88,0.53" style="fill:none;stroke:#999;stroke-width:3" />
<path d="M564.73,20.5c-0.98,29.75-2.82,48.07-12.67,65.47" style="fill:none;stroke:#999;stroke-width:3" />
<path d="M568.3299999999999,32.07c0.88,0.43,1.9,0.43,2.79,0.43c5.63,0,21.63-3.75,28.46-3.72c1.47,0.01,2.35,0.21,3.08,0.42" style="fill:none;stroke:#999;stroke-width:3" />
<path d="M576.27,24.19c0.93,1.18,1.23,1.53,1.33,2.26c0.93,6.77,1.2,9.42,1.46,11.88" style="fill:none;stroke:#999;stroke-width:3" />
<path d="M590.9300000000001,22.75c0.6,0.82,0.99,2.07,0.8,3.28c-0.6,3.69-1,6.84-1.86,11.56" style="fill:none;stroke:#999;stroke-width:3" />
<path d="M570.5,41.45c0.2,0.31,0.21,0.52,0.31,0.9c0.9,3.17,2.67,11.31,3.2,17.19" style="fill:none;stroke:black;stroke-width:3" />
<circle cx="570.5" cy="41.45" r="5" stroke-width="0" fill="#FF2A00" opacity="0.7" />
<path d="M668.5799999999999,19.73c1.11,0.54,3.14,0.63,4.25,0.54c11.52-0.91,25.67-3.02,35.92-3.73c1.84-0.13,2.95,0.26,3.88,0.53" style="fill:none;stroke:#999;stroke-width:3" />
<path d="M673.73,20.5c-0.98,29.75-2.82,48.07-12.67,65.47" style="fill:none;stroke:#999;stroke-width:3" />
<path d="M677.3299999999999,32.07c0.88,0.43,1.9,0.43,2.79,0.43c5.63,0,21.63-3.75,28.46-3.72c1.47,0.01,2.35,0.21,3.08,0.42" style="fill:none;stroke:#999;stroke-width:3" />
<path d="M685.27,24.19c0.93,1.18,1.23,1.53,1.33,2.26c0.93,6.77,1.2,9.42,1.46,11.88" style="fill:none;stroke:#999;stroke-width:3" />
<path d="M699.9300000000001,22.75c0.6,0.82,0.99,2.07,0.8,3.28c-0.6,3.69-1,6.84-1.86,11.56" style="fill:none;stroke:#999;stroke-width:3" />
<path d="M679.5,41.45c0.2,0.31,0.21,0.52,0.31,0.9c0.9,3.17,2.67,11.31,3.2,17.19" style="fill:none;stroke:#999;stroke-width:3" />
<path d="M680.45,42.19c7.14-0.64,21.3-3.44,26.64-3.99c1.96-0.2,2.4,1.38,2.24,3.34c-0.26,3.18-1.19,9-2.34,15.23" style="fill:none;stroke:black;stroke-width:3" />
<circle cx="680.45" cy="42.19" r="5" stroke-width="0" fill="#FF2A00" opacity="0.7" />
<path d="M777.5799999999999,19.73c1.11,0.54,3.14,0.63,4.25,0.54c11.52-0.91,25.67-3.02,35.92-3.73c1.84-0.13,2.95,0.26,3.88,0.53" style="fill:none;stroke:#999;stroke-width:3" />
<path d="M782.73,20.5c-0.98,29.75-2.82,48.07-12.67,65.47" style="fill:none;stroke:#999;stroke-width:3" />
<path d="M786.3299999999999,32.07c0.88,0.43,1.9,0.43,2.79,0.43c5.63,0,21.63-3.75,28.46-3.72c1.47,0.01,2.35,0.21,3.08,0.42" style="fill:none;stroke:#999;stroke-width:3" />
<path d="M794.27,24.19c0.93,1.18,1.23,1.53,1.33,2.26c0.93,6.77,1.2,9.42,1.46,11.88" style="fill:none;stroke:#999;stroke-width:3" />
<path d="M808.9300000000001,22.75c0.6,0.82,0.99,2.07,0.8,3.28c-0.6,3.69-1,6.84-1.86,11.56" style="fill:none;stroke:#999;stroke-width:3" />
<path d="M788.5,41.45c0.2,0.31,0.21,0.52,0.31,0.9c0.9,3.17,2.67,11.31,3.2,17.19" style="fill:none;stroke:#999;stroke-width:3" />
<path d="M789.45,42.19c7.14-0.64,21.3-3.44,26.64-3.99c1.96-0.2,2.4,1.38,2.24,3.34c-0.26,3.18-1.19,9-2.34,15.23" style="fill:none;stroke:#999;stroke-width:3" />
<path d="M790.96,49.56c2.33-0.26,24.38-2.75,26.31-2.83" style="fill:none;stroke:black;stroke-width:3" />
<circle cx="790.96" cy="49.56" r="5" stroke-width="0" fill="#FF2A00" opacity="0.7" />
<path d="M886.5799999999999,19.73c1.11,0.54,3.14,0.63,4.25,0.54c11.52-0.91,25.67-3.02,35.92-3.73c1.84-0.13,2.95,0.26,3.88,0.53" style="fill:none;stroke:#999;stroke-width:3" />
<path d="M891.73,20.5c-0.98,29.75-2.82,48.07-12.67,65.47" style="fill:none;stroke:#999;stroke-width:3" />
<path d="M895.3299999999999,32.07c0.88,0.43,1.9,0.43,2.79,0.43c5.63,0,21.63-3.75,28.46-3.72c1.47,0.01,2.35,0.21,3.08,0.42" style="fill:none;stroke:#999;stroke-width:3" />
<path d="M903.27,24.19c0.93,1.18,1.23,1.53,1.33,2.26c0.93,6.77,1.2,9.42,1.46,11.88" style="fill:none;stroke:#999;stroke-width:3" />
<path d="M917.9300000000001,22.75c0.6,0.82,0.99,2.07,0.8,3.28c-0.6,3.69-1,6.84-1.86,11.56" style="fill:none;stroke:#999;stroke-width:3" />
<path d="M897.5,41.45c0.2,0.31,0.21,0.52,0.31,0.9c0.9,3.17,2.67,11.31,3.2,17.19" style="fill:none;stroke:#999;stroke-width:3" />
<path d="M898.45,42.19c7.14-0.64,21.3-3.44,26.64-3.99c1.96-0.2,2.4,1.38,2.24,3.34c-0.26,3.18-1.19,9-2.34,15.23" style="fill:none;stroke:#999;stroke-width:3" />
<path d="M899.96,49.56c2.33-0.26,24.38-2.75,26.31-2.83" style="fill:none;stroke:#999;stroke-width:3" />
<path d="M900.62,57.72c7.3-1.1,17.32-2.45,24.43-2.85" style="fill:none;stroke:black;stroke-width:3" />
<circle cx="900.62" cy="57.72" r="5" stroke-width="0" fill="#FF2A00" opacity="0.7" />
<path d="M995.5799999999999,19.73c1.11,0.54,3.14,0.63,4.25,0.54c11.52-0.91,25.67-3.02,35.92-3.73c1.84-0.13,2.95,0.26,3.88,0.53" style="fill:none;stroke:#999;stroke-width:3" />
<path d="M1000.73,20.5c-0.98,29.75-2.82,48.07-12.67,65.47" style="fill:none;stroke:#999;stroke-width:3" />
<path d="M1004.3299999999999,32.07c0.88,0.43,1.9,0.43,2.79,0.43c5.63,0,21.63-3.75,28.46-3.72c1.47,0.01,2.35,0.21,3.08,0.42" style="fill:none;stroke:#999;stroke-width:3" />
<path d="M1012.27,24.19c0.93,1.18,1.23,1.53,1.33,2.26c0.93,6.77,1.2,9.42,1.46,11.88" style="fill:none;stroke:#999;stroke-width:3" />
<path d="M1026.93,22.75c0.6,0.82,0.99,2.07,0.8,3.28c-0.6,3.69-1,6.84-1.86,11.56" style="fill:none;stroke:#999;stroke-width:3" />
<path d="M1006.5,41.45c0.2,0.31,0.21,0.52,0.31,0.9c0.9,3.17,2.67,11.31,3.2,17.19" style="fill:none;stroke:#999;stroke-width:3" />
<path d="M1007.45,42.19c7.14-0.64,21.3-3.44,26.64-3.99c1.96-0.2,2.4,1.38,2.24,3.34c-0.26,3.18-1.19,9-2.34,15.23" style="fill:none;stroke:#999;stroke-width:3" />
<path d="M1008.96,49.56c2.33-0.26,24.38-2.75,26.31-2.83" style="fill:none;stroke:#999;stroke-width:3" />
<path d="M1009.62,57.72c7.3-1.1,17.32-2.45,24.43-2.85" style="fill:none;stroke:#999;stroke-width:3" />
<path d="M1003.38,65.11c0.59,0.34,1,1.34,1.04,2.01c0.2,3.31,1.37,19.97,1.7,23.64" style="fill:none;stroke:black;stroke-width:3" />
<circle cx="1003.38" cy="65.11" r="5" stroke-width="0" fill="#FF2A00" opacity="0.7" />
<path d="M1104.58,19.73c1.11,0.54,3.14,0.63,4.25,0.54c11.52-0.91,25.67-3.02,35.92-3.73c1.84-0.13,2.95,0.26,3.88,0.53" style="fill:none;stroke:#999;stroke-width:3" />
<path d="M1109.73,20.5c-0.98,29.75-2.82,48.07-12.67,65.47" style="fill:none;stroke:#999;stroke-width:3" />
<path d="M1113.33,32.07c0.88,0.43,1.9,0.43,2.79,0.43c5.63,0,21.63-3.75,28.46-3.72c1.47,0.01,2.35,0.21,3.08,0.42" style="fill:none;stroke:#999;stroke-width:3" />
<path d="M1121.27,24.19c0.93,1.18,1.23,1.53,1.33,2.26c0.93,6.77,1.2,9.42,1.46,11.88" style="fill:none;stroke:#999;stroke-width:3" />
<path d="M1135.93,22.75c0.6,0.82,0.99,2.07,0.8,3.28c-0.6,3.69-1,6.84-1.86,11.56" style="fill:none;stroke:#999;stroke-width:3" />
<path d="M1115.5,41.45c0.2,0.31,0.21,0.52,0.31,0.9c0.9,3.17,2.67,11.31,3.2,17.19" style="fill:none;stroke:#999;stroke-width:3" />
<path d="M1116.45,42.19c7.14-0.64,21.3-3.44,26.64-3.99c1.96-0.2,2.4,1.38,2.24,3.34c-0.26,3.18-1.19,9-2.34,15.23" style="fill:none;stroke:#999;stroke-width:3" />
<path d="M1117.96,49.56c2.33-0.26,24.38-2.75,26.31-2.83" style="fill:none;stroke:#999;stroke-width:3" />
<path d="M1118.62,57.72c7.3-1.1,17.32-2.45,24.43-2.85" style="fill:none;stroke:#999;stroke-width:3" />
<path d="M1112.38,65.11c0.59,0.34,1,1.34,1.04,2.01c0.2,3.31,1.37,19.97,1.7,23.64" style="fill:none;stroke:#999;stroke-width:3" />
<path d="M1113.42,66.16c4.66-0.79,31.52-4.03,32.45-4.08c1.4-0.08,2.62,1.05,2.58,3.12c-0.12,5.48-2.22,16.95-3.72,21.93c-1.57,5.24-3.83,3.61-5.56,0.66" style="fill:none;stroke:black;stroke-width:3" />
<circle cx="1113.42" cy="66.16" r="5" stroke-width="0" fill="#FF2A00" opacity="0.7" />
<path d="M1213.58,19.73c1.11,0.54,3.14,0.63,4.25,0.54c11.52-0.91,25.67-3.02,35.92-3.73c1.84-0.13,2.95,0.26,3.88,0.53" style="fill:none;stroke:#999;stroke-width:3" />
<path d="M1218.73,20.5c-0.98,29.75-2.82,48.07-12.67,65.47" style="fill:none;stroke:#999;stroke-width:3" />
<path d="M1222.33,32.07c0.88,0.43,1.9,0.43,2.79,0.43c5.63,0,21.63-3.75,28.46-3.72c1.47,0.01,2.35,0.21,3.08,0.42" style="fill:none;stroke:#999;stroke-width:3" />
<path d="M1230.27,24.19c0.93,1.18,1.23,1.53,1.33,2.26c0.93,6.77,1.2,9.42,1.46,11.88" style="fill:none;stroke:#999;stroke-width:3" />
<path d="M1244.93,22.75c0.6,0.82,0.99,2.07,0.8,3.28c-0.6,3.69-1,6.84-1.86,11.56" style="fill:none;stroke:#999;stroke-width:3" />
<path d="M1224.5,41.45c0.2,0.31,0.21,0.52,0.31,0.9c0.9,3.17,2.67,11.31,3.2,17.19" style="fill:none;stroke:#999;stroke-width:3" />
<path d="M1225.45,42.19c7.14-0.64,21.3-3.44,26.64-3.99c1.96-0.2,2.4,1.38,2.24,3.34c-0.26,3.18-1.19,9-2.34,15.23" style="fill:none;stroke:#999;stroke-width:3" />
<path d="M1226.96,49.56c2.33-0.26,24.38-2.75,26.31-2.83" style="fill:none;stroke:#999;stroke-width:3" />
<path d="M1227.62,57.72c7.3-1.1,17.32-2.45,24.43-2.85" style="fill:none;stroke:#999;stroke-width:3" />
<path d="M1221.38,65.11c0.59,0.34,1,1.34,1.04,2.01c0.2,3.31,1.37,19.97,1.7,23.64" style="fill:none;stroke:#999;stroke-width:3" />
<path d="M1222.42,66.16c4.66-0.79,31.52-4.03,32.45-4.08c1.4-0.08,2.62,1.05,2.58,3.12c-0.12,5.48-2.22,16.95-3.72,21.93c-1.57,5.24-3.83,3.61-5.56,0.66" style="fill:none;stroke:#999;stroke-width:3" />
<path d="M1238.33,42.55c0.3,0.6,0.78,1.19,0.78,2.28c0,4.79,0.13,29.7,0.13,31.17" style="fill:none;stroke:black;stroke-width:3" />
<circle cx="1238.33" cy="42.55" r="5" stroke-width="0" fill="#FF2A00" opacity="0.7" />
<path d="M1322.58,19.73c1.11,0.54,3.14,0.63,4.25,0.54c11.52-0.91,25.67-3.02,35.92-3.73c1.84-0.13,2.95,0.26,3.88,0.53" style="fill:none;stroke:#999;stroke-width:3" />
<path d="M1327.73,20.5c-0.98,29.75-2.82,48.07-12.67,65.47" style="fill:none;stroke:#999;stroke-width:3" />
<path d="M1331.33,32.07c0.88,0.43,1.9,0.43,2.79,0.43c5.63,0,21.63-3.75,28.46-3.72c1.47,0.01,2.35,0.21,3.08,0.42" style="fill:none;stroke:#999;stroke-width:3" />
<path d="M1339.27,24.19c0.93,1.18,1.23,1.53,1.33,2.26c0.93,6.77,1.2,9.42,1.46,11.88" style="fill:none;stroke:#999;stroke-width:3" />
<path d="M1353.93,22.75c0.6,0.82,0.99,2.07,0.8,3.28c-0.6,3.69-1,6.84-1.86,11.56" style="fill:none;stroke:#999;stroke-width:3" />
<path d="M1333.5,41.45c0.2,0.31,0.21,0.52,0.31,0.9c0.9,3.17,2.67,11.31,3.2,17.19" style="fill:none;stroke:#999;stroke-width:3" />
<path d="M1334.45,42.19c7.14-0.64,21.3-3.44,26.64-3.99c1.96-0.2,2.4,1.38,2.24,3.34c-0.26,3.18-1.19,9-2.34,15.23" style="fill:none;stroke:#999;stroke-width:3" />
<path d="M1335.96,49.56c2.33-0.26,24.38-2.75,26.31-2.83" style="fill:none;stroke:#999;stroke-width:3" />
<path d="M1336.62,57.72c7.3-1.1,17.32-2.45,24.43-2.85" style="fill:none;stroke:#999;stroke-width:3" />
<path d="M1330.38,65.11c0.59,0.34,1,1.34,1.04,2.01c0.2,3.31,1.37,19.97,1.7,23.64" style="fill:none;stroke:#999;stroke-width:3" />
<path d="M1331.42,66.16c4.66-0.79,31.52-4.03,32.45-4.08c1.4-0.08,2.62,1.05,2.58,3.12c-0.12,5.48-2.22,16.95-3.72,21.93c-1.57,5.24-3.83,3.61-5.56,0.66" style="fill:none;stroke:#999;stroke-width:3" />
<path d="M1347.33,42.55c0.3,0.6,0.78,1.19,0.78,2.28c0,4.79,0.13,29.7,0.13,31.17" style="fill:none;stroke:#999;stroke-width:3" />
<path d="M1338.55,78.83c0.81,0.81,1.71,1.24,2.42,0.9c2.02-0.95,10.32-5.3,14.55-7.04" style="fill:none;stroke:black;stroke-width:3" />
<circle cx="1338.55" cy="78.83" r="5" stroke-width="0" fill="#FF2A00" opacity="0.7" />
<path d="M1431.58,19.73c1.11,0.54,3.14,0.63,4.25,0.54c11.52-0.91,25.67-3.02,35.92-3.73c1.84-0.13,2.95,0.26,3.88,0.53" style="fill:none;stroke:#999;stroke-width:3" />
<path d="M1436.73,20.5c-0.98,29.75-2.82,48.07-12.67,65.47" style="fill:none;stroke:#999;stroke-width:3" />
<path d="M1440.33,32.07c0.88,0.43,1.9,0.43,2.79,0.43c5.63,0,21.63-3.75,28.46-3.72c1.47,0.01,2.35,0.21,3.08,0.42" style="fill:none;stroke:#999;stroke-width:3" />
<path d="M1448.27,24.19c0.93,1.18,1.23,1.53,1.33,2.26c0.93,6.77,1.2,9.42,1.46,11.88" style="fill:none;stroke:#999;stroke-width:3" />
<path d="M1462.93,22.75c0.6,0.82,0.99,2.07,0.8,3.28c-0.6,3.69-1,6.84-1.86,11.56" style="fill:none;stroke:#999;stroke-width:3" />
<path d="M1442.5,41.45c0.2,0.31,0.21,0.52,0.31,0.9c0.9,3.17,2.67,11.31,3.2,17.19" style="fill:none;stroke:#999;stroke-width:3" />
<path d="M1443.45,42.19c7.14-0.64,21.3-3.44,26.64-3.99c1.96-0.2,2.4,1.38,2.24,3.34c-0.26,3.18-1.19,9-2.34,15.23" style="fill:none;stroke:#999;stroke-width:3" />
<path d="M1444.96,49.56c2.33-0.26,24.38-2.75,26.31-2.83" style="fill:none;stroke:#999;stroke-width:3" />
<path d="M1445.62,57.72c7.3-1.1,17.32-2.45,24.43-2.85" style="fill:none;stroke:#999;stroke-width:3" />
<path d="M1439.38,65.11c0.59,0.34,1,1.34,1.04,2.01c0.2,3.31,1.37,19.97,1.7,23.64" style="fill:none;stroke:#999;stroke-width:3" />
<path d="M1440.42,66.16c4.66-0.79,31.52-4.03,32.45-4.08c1.4-0.08,2.62,1.05,2.58,3.12c-0.12,5.48-2.22,16.95-3.72,21.93c-1.57,5.24-3.83,3.61-5.56,0.66" style="fill:none;stroke:#999;stroke-width:3" />
<path d="M1456.33,42.55c0.3,0.6,0.78,1.19,0.78,2.28c0,4.79,0.13,29.7,0.13,31.17" style="fill:none;stroke:#999;stroke-width:3" />
<path d="M1447.55,78.83c0.81,0.81,1.71,1.24,2.42,0.9c2.02-0.95,10.32-5.3,14.55-7.04" style="fill:none;stroke:#999;stroke-width:3" />
<path d="M1462.72,68.62c1.75,1.53,4.52,6.39,4.96,8.86" style="fill:none;stroke:black;stroke-width:3" />
<circle cx="1462.72" cy="68.62" r="5" stroke-width="0" fill="#FF2A00" opacity="0.7" />
<path d="M1540.58,19.73c1.11,0.54,3.14,0.63,4.25,0.54c11.52-0.91,25.67-3.02,35.92-3.73c1.84-0.13,2.95,0.26,3.88,0.53" style="fill:none;stroke:#999;stroke-width:3" />
<path d="M1545.73,20.5c-0.98,29.75-2.82,48.07-12.67,65.47" style="fill:none;stroke:#999;stroke-width:3" />
<path d="M1549.33,32.07c0.88,0.43,1.9,0.43,2.79,0.43c5.63,0,21.63-3.75,28.46-3.72c1.47,0.01,2.35,0.21,3.08,0.42" style="fill:none;stroke:#999;stroke-width:3" />
<path d="M1557.27,24.19c0.93,1.18,1.23,1.53,1.33,2.26c0.93,6.77,1.2,9.42,1.46,11.88" style="fill:none;stroke:#999;stroke-width:3" />
<path d="M1571.93,22.75c0.6,0.82,0.99,2.07,0.8,3.28c-0.6,3.69-1,6.84-1.86,11.56" style="fill:none;stroke:#999;stroke-width:3" />
<path d="M1551.5,41.45c0.2,0.31,0.21,0.52,0.31,0.9c0.9,3.17,2.67,11.31,3.2,17.19" style="fill:none;stroke:#999;stroke-width:3" />
<path d="M1552.45,42.19c7.14-0.64,21.3-3.44,26.64-3.99c1.96-0.2,2.4,1.38,2.24,3.34c-0.26,3.18-1.19,9-2.34,15.23" style="fill:none;stroke:#999;stroke-width:3" />
<path d="M1553.96,49.56c2.33-0.26,24.38-2.75,26.31-2.83" style="fill:none;stroke:#999;stroke-width:3" />
<path d="M1554.62,57.72c7.3-1.1,17.32-2.45,24.43-2.85" style="fill:none;stroke:#999;stroke-width:3" />
<path d="M1548.38,65.11c0.59,0.34,1,1.34,1.04,2.01c0.2,3.31,1.37,19.97,1.7,23.64" style="fill:none;stroke:#999;stroke-width:3" />
<path d="M1549.42,66.16c4.66-0.79,31.52-4.03,32.45-4.08c1.4-0.08,2.62,1.05,2.58,3.12c-0.12,5.48-2.22,16.95-3.72,21.93c-1.57,5.24-3.83,3.61-5.56,0.66" style="fill:none;stroke:#999;stroke-width:3" />
<path d="M1565.33,42.55c0.3,0.6,0.78,1.19,0.78,2.28c0,4.79,0.13,29.7,0.13,31.17" style="fill:none;stroke:#999;stroke-width:3" />
<path d="M1556.55,78.83c0.81,0.81,1.71,1.24,2.42,0.9c2.02-0.95,10.32-5.3,14.55-7.04" style="fill:none;stroke:#999;stroke-width:3" />
<path d="M1571.72,68.62c1.75,1.53,4.52,6.39,4.96,8.86" style="fill:none;stroke:#999;stroke-width:3" />
<path d="M1589.01,40.31c1.09,0.55,2.45,0.48,3.4,0.29c7.09-1.36,21.89-3.56,26.18-4.12c2.79-0.36,3.77,1.66,3.41,4.19c-1.26,9.08-5.26,36.58-12.72,49.3c-2.97,5.07-6.32,0.25-7.45-0.55" style="fill:none;stroke:black;stroke-width:3" />
<circle cx="1589.01" cy="40.31" r="5" stroke-width="0" fill="#FF2A00" opacity="0.7" />
<path d="M1649.58,19.73c1.11,0.54,3.14,0.63,4.25,0.54c11.52-0.91,25.67-3.02,35.92-3.73c1.84-0.13,2.95,0.26,3.88,0.53" style="fill:none;stroke:#999;stroke-width:3" />
<path d="M1654.73,20.5c-0.98,29.75-2.82,48.07-12.67,65.47" style="fill:none;stroke:#999;stroke-width:3" />
<path d="M1658.33,32.07c0.88,0.43,1.9,0.43,2.79,0.43c5.63,0,21.63-3.75,28.46-3.72c1.47,0.01,2.35,0.21,3.08,0.42" style="fill:none;stroke:#999;stroke-width:3" />
<path d="M1666.27,24.19c0.93,1.18,1.23,1.53,1.33,2.26c0.93,6.77,1.2,9.42,1.46,11.88" style="fill:none;stroke:#999;stroke-width:3" />
<path d="M1680.93,22.75c0.6,0.82,0.99,2.07,0.8,3.28c-0.6,3.69-1,6.84-1.86,11.56" style="fill:none;stroke:#999;stroke-width:3" />
<path d="M1660.5,41.45c0.2,0.31,0.21,0.52,0.31,0.9c0.9,3.17,2.67,11.31,3.2,17.19" style="fill:none;stroke:#999;stroke-width:3" />
<path d="M1661.45,42.19c7.14-0.64,21.3-3.44,26.64-3.99c1.96-0.2,2.4,1.38,2.24,3.34c-0.26,3.18-1.19,9-2.34,15.23" style="fill:none;stroke:#999;stroke-width:3" />
<path d="M1662.96,49.56c2.33-0.26,24.38-2.75,26.31-2.83" style="fill:none;stroke:#999;stroke-width:3" />
<path d="M1663.62,57.72c7.3-1.1,17.32-2.45,24.43-2.85" style="fill:none;stroke:#999;stroke-width:3" />
<path d="M1657.38,65.11c0.59,0.34,1,1.34,1.04,2.01c0.2,3.31,1.37,19.97,1.7,23.64" style="fill:none;stroke:#999;stroke-width:3" />
<path d="M1658.42,66.16c4.66-0.79,31.52-4.03,32.45-4.08c1.4-0.08,2.62,1.05,2.58,3.12c-0.12,5.48-2.22,16.95-3.72,21.93c-1.57,5.24-3.83,3.61-5.56,0.66" style="fill:none;stroke:#999;stroke-width:3" />
<path d="M1674.33,42.55c0.3,0.6,0.78,1.19,0.78,2.28c0,4.79,0.13,29.7,0.13,31.17" style="fill:none;stroke:#999;stroke-width:3" />
<path d="M1665.55,78.83c0.81,0.81,1.71,1.24,2.42,0.9c2.02-0.95,10.32-5.3,14.55-7.04" style="fill:none;stroke:#999;stroke-width:3" />
<path d="M1680.72,68.62c1.75,1.53,4.52,6.39,4.96,8.86" style="fill:none;stroke:#999;stroke-width:3" />
<path d="M1698.01,40.31c1.09,0.55,2.45,0.48,3.4,0.29c7.09-1.36,21.89-3.56,26.18-4.12c2.79-0.36,3.77,1.66,3.41,4.19c-1.26,9.08-5.26,36.58-12.72,49.3c-2.97,5.07-6.32,0.25-7.45-0.55" style="fill:none;stroke:#999;stroke-width:3" />
<path d="M1713.21,15.18c0.54,1.32,0.65,1.28,0.38,3.92C1711.53,38.69 1705.75,79 1691.64,93.65" style="fill:none;stroke:black;stroke-width:3" />
<circle cx="1713.21" cy="15.18" r="5" stroke-width="0" fill="#FF2A00" opacity="0.7" />
</svg>