<!-- 052f2 -->
<svg width="1635px" height="109px" viewBox="0 0 1635px 109px" xmlns="http://www.w3.org/2000/svg" xmlns:xlink="http://www.w3.org/1999/xlink" xml:space="preserve" version="1.1"  baseProfile="full">
<line x1="1" y1="1" x2="1634" y2="1" style="stroke:#ddd;stroke-width:2" />
<line x1="1" y1="1" x2="1" y2="108" style="stroke:#ddd;stroke-width:2" />
<line x1="1" y1="108" x2="1634" y2="108" style="stroke:#ddd;stroke-width:2" />
<line x1="1634" y1="1" x2="1634" y2="108" style="stroke:#ddd;stroke-width:2" />
<line x1="109" y1="1" x2="109" y2="108" style="stroke:#ddd;stroke-width:2" />
<line x1="218" y1="1" x2="218" y2="108" style="stroke:#ddd;stroke-width:2" />
<line x1="327" y1="1" x2="327" y2="108" style="stroke:#ddd;stroke-width:2" />
<line x1="436" y1="1" x2="436" y2="108" style="stroke:#ddd;stroke-width:2" />
<line x1="545" y1="1" x2="545" y2="108" style="stroke:#ddd;stroke-width:2" />
<line x1="654" y1="1" x2="654" y2="108" style="stroke:#ddd;stroke-width:2" />
<line x1="763" y1="1" x2="763" y2="108" style="stroke:#ddd;stroke-width:2" />
<line x1="872" y1="1" x2="872" y2="108" style="stroke:#ddd;stroke-width:2" />
<line x1="981" y1="1" x2="981" y2="108" style="stroke:#ddd;stroke-width:2" />
<line x1="1090" y1="1" x2="1090" y2="108" style="stroke:#ddd;stroke-width:2" />
<line x1="1199" y1="1" x2="1199" y2="108" style="stroke:#ddd;stroke-width:2" />
<line x1="1308" y1="1" x2="1308" y2="108" style="stroke:#ddd;stroke-width:2" />
<line x1="1417" y1="1" x2="1417" y2="108" style="stroke:#ddd;stroke-width:2" />
<line x1="1526" y1="1" x2="1526" y2="108" style="stroke:#ddd;stroke-width:2" />
<line x1="1" y1="54" x2="1634" y2="54" style="stroke:#ddd;stroke-width:2;stroke-dasharray:3 3" />
<line x1="55" y1="1" x2="55" y2="108" style="stroke:#ddd;stroke-width:2;stroke-dasharray:3 3" />
<line x1="164" y1="1" x2="164" y2="108" style="stroke:#ddd;stroke-width:2;stroke-dasharray:3 3" />
<line x1="273" y1="1" x2="273" y2="108" style="stroke:#ddd;stroke-width:2;stroke-dasharray:3 3" />
<line x1="382" y1="1" x2="382" y2="108" style="stroke:#ddd;stroke-width:2;stroke-dasharray:3 3" />
<line x1="491" y1="1" x2="491" y2="108" style="stroke:#ddd;stroke-width:2;stroke-dasharray:3 3" />
<line x1="600" y1="1" x2="600" y2="108" style="stroke:#ddd;stroke-width:2;stroke-dasharray:3 3" />
<line x1="709" y1="1" x2="709" y2="108" style="stroke:#ddd;stroke-width:2;stroke-dasharray:3 3" />
<line x1="818" y1="1" x2="818" y2="108" style="stroke:#ddd;stroke-width:2;stroke-dasharray:3 3" />
<line x1="927" y1="1" x2="927" y2="108" style="stroke:#ddd;stroke-width:2;stroke-dasharray:3 3" />
<line x1="1036" y1="1" x2="1036" y2="108" style="stroke:#ddd;stroke-width:2;stroke-dasharray:3 3" />
<line x1="1145" y1="1" x2="1145" y2="108" style="stroke:#ddd;stroke-width:2;stroke-dasharray:3 3" />
<line x1="1254" y1="1" x2="1254" y2="108" style="stroke:#ddd;stroke-width:2;stroke-dasharray:3 3" />
<line x1="1363" y1="1" x2="1363" y2="108" style="stroke:#ddd;stroke-width:2;stroke-dasharray:3 3" />
<line x1="1472" y1="1" x2="1472" y2="108" style="stroke:#ddd;stroke-width:2;stroke-dasharray:3 3" />
<line x1="1581" y1="1" x2="1581" y2="108" style="stroke:#ddd;stroke-width:2;stroke-dasharray:3 3" />
<path d="M49.29,13.14c0,1.24-1.44,2.18-2.06,2.54c-3.81,2.16-11.99,5.23-24.81,8.21" style="fill:none;stroke:black;stroke-width:3" />
<circle cx="49.29" cy="13.14" r="5" stroke-width="0" fill="#FF2A00" opacity="0.7" />
<path d="M158.29,13.14c0,1.24-1.44,2.18-2.06,2.54c-3.81,2.16-11.99,5.23-24.81,8.21" style="fill:none;stroke:#999;stroke-width:3" />
<path d="M123.97,30.29c2.43,0.3,4.76,0.15,7.17-0.18c7.99-1.1,18.77-2.15,26.5-2.94c2.58-0.26,5.07-0.6,7.64-0.09" style="fill:none;stroke:black;stroke-width:3" />
<circle cx="123.97" cy="30.29" r="5" stroke-width="0" fill="#FF2A00" opacity="0.7" />
<path d="M267.28999999999996,13.14c0,1.24-1.44,2.18-2.06,2.54c-3.81,2.16-11.99,5.23-24.81,8.21" style="fill:none;stroke:#999;stroke-width:3" />
<path d="M232.97,30.29c2.43,0.3,4.76,0.15,7.17-0.18c7.99-1.1,18.77-2.15,26.5-2.94c2.58-0.26,5.07-0.6,7.64-0.09" style="fill:none;stroke:#999;stroke-width:3" />
<path d="M238.29,38.85c0.68,0.68,1.15,1.63,1.32,2.51c1.02,5.52,1.49,8.6,2.25,13.34c0.26,1.6,0.47,3.15,0.63,4.53" style="fill:none;stroke:black;stroke-width:3" />
<circle cx="238.29" cy="38.85" r="5" stroke-width="0" fill="#FF2A00" opacity="0.7" />
<path d="M376.28999999999996,13.14c0,1.24-1.44,2.18-2.06,2.54c-3.81,2.16-11.99,5.23-24.81,8.21" style="fill:none;stroke:#999;stroke-width:3" />
<path d="M341.97,30.29c2.43,0.3,4.76,0.15,7.17-0.18c7.99-1.1,18.77-2.15,26.5-2.94c2.58-0.26,5.07-0.6,7.64-0.09" style="fill:none;stroke:#999;stroke-width:3" />
<path d="M347.28999999999996,38.85c0.68,0.68,1.15,1.63,1.32,2.51c1.02,5.52,1.49,8.6,2.25,13.34c0.26,1.6,0.47,3.15,0.63,4.53" style="fill:none;stroke:#999;stroke-width:3" />
<path d="M349.2,40.16c10.21-1.86,19.18-3.17,27.18-4.1c3.52-0.41,5.76,0.13,5.11,4.31c-0.43,2.74-1.12,6.6-1.88,10.69c-0.27,1.46-0.55,2.92-0.81,4.29" style="fill:none;stroke:black;stroke-width:3" />
<circle cx="349.2" cy="40.16" r="5" stroke-width="0" fill="#FF2A00" opacity="0.7" />
<path d="M485.28999999999996,13.14c0,1.24-1.44,2.18-2.06,2.54c-3.81,2.16-11.99,5.23-24.81,8.21" style="fill:none;stroke:#999;stroke-width:3" />
<path d="M450.97,30.29c2.43,0.3,4.76,0.15,7.17-0.18c7.99-1.1,18.77-2.15,26.5-2.94c2.58-0.26,5.07-0.6,7.64-0.09" style="fill:none;stroke:#999;stroke-width:3" />
<path d="M456.28999999999996,38.85c0.68,0.68,1.15,1.63,1.32,2.51c1.02,5.52,1.49,8.6,2.25,13.34c0.26,1.6,0.47,3.15,0.63,4.53" style="fill:none;stroke:#999;stroke-width:3" />
<path d="M458.2,40.16c10.21-1.86,19.18-3.17,27.18-4.1c3.52-0.41,5.76,0.13,5.11,4.31c-0.43,2.74-1.12,6.6-1.88,10.69c-0.27,1.46-0.55,2.92-0.81,4.29" style="fill:none;stroke:#999;stroke-width:3" />
<path d="M459.74,47.85c2.83-0.41,24.76-3.23,28.72-3.23" style="fill:none;stroke:black;stroke-width:3" />
<circle cx="459.74" cy="47.85" r="5" stroke-width="0" fill="#FF2A00" opacity="0.7" />
<path d="M594.29,13.14c0,1.24-1.44,2.18-2.06,2.54c-3.81,2.16-11.99,5.23-24.81,8.21" style="fill:none;stroke:#999;stroke-width:3" />
<path d="M559.97,30.29c2.43,0.3,4.76,0.15,7.17-0.18c7.99-1.1,18.77-2.15,26.5-2.94c2.58-0.26,5.07-0.6,7.64-0.09" style="fill:none;stroke:#999;stroke-width:3" />
<path d="M565.29,38.85c0.68,0.68,1.15,1.63,1.32,2.51c1.02,5.52,1.49,8.6,2.25,13.34c0.26,1.6,0.47,3.15,0.63,4.53" style="fill:none;stroke:#999;stroke-width:3" />
<path d="M567.2,40.16c10.21-1.86,19.18-3.17,27.18-4.1c3.52-0.41,5.76,0.13,5.11,4.31c-0.43,2.74-1.12,6.6-1.88,10.69c-0.27,1.46-0.55,2.92-0.81,4.29" style="fill:none;stroke:#999;stroke-width:3" />
<path d="M568.74,47.85c2.83-0.41,24.76-3.23,28.72-3.23" style="fill:none;stroke:#999;stroke-width:3" />
<path d="M570.35,56.85c9.23-1.62,17.09-2.53,25.72-3.37" style="fill:none;stroke:black;stroke-width:3" />
<circle cx="570.35" cy="56.85" r="5" stroke-width="0" fill="#FF2A00" opacity="0.7" />
<path d="M703.29,13.14c0,1.24-1.44,2.18-2.06,2.54c-3.81,2.16-11.99,5.23-24.81,8.21" style="fill:none;stroke:#999;stroke-width:3" />
<path d="M668.97,30.29c2.43,0.3,4.76,0.15,7.17-0.18c7.99-1.1,18.77-2.15,26.5-2.94c2.58-0.26,5.07-0.6,7.64-0.09" style="fill:none;stroke:#999;stroke-width:3" />
<path d="M674.29,38.85c0.68,0.68,1.15,1.63,1.32,2.51c1.02,5.52,1.49,8.6,2.25,13.34c0.26,1.6,0.47,3.15,0.63,4.53" style="fill:none;stroke:#999;stroke-width:3" />
<path d="M676.2,40.16c10.21-1.86,19.18-3.17,27.18-4.1c3.52-0.41,5.76,0.13,5.11,4.31c-0.43,2.74-1.12,6.6-1.88,10.69c-0.27,1.46-0.55,2.92-0.81,4.29" style="fill:none;stroke:#999;stroke-width:3" />
<path d="M677.74,47.85c2.83-0.41,24.76-3.23,28.72-3.23" style="fill:none;stroke:#999;stroke-width:3" />
<path d="M679.35,56.85c9.23-1.62,17.09-2.53,25.72-3.37" style="fill:none;stroke:#999;stroke-width:3" />
<path d="M691.08,22.38c0.64,0.64,1.03,1.75,1.03,3.02c0,0.72-0.12,40.21-0.12,46.73" style="fill:none;stroke:black;stroke-width:3" />
<circle cx="691.08" cy="22.38" r="5" stroke-width="0" fill="#FF2A00" opacity="0.7" />
<path d="M812.29,13.14c0,1.24-1.44,2.18-2.06,2.54c-3.81,2.16-11.99,5.23-24.81,8.21" style="fill:none;stroke:#999;stroke-width:3" />
<path d="M777.97,30.29c2.43,0.3,4.76,0.15,7.17-0.18c7.99-1.1,18.77-2.15,26.5-2.94c2.58-0.26,5.07-0.6,7.64-0.09" style="fill:none;stroke:#999;stroke-width:3" />
<path d="M783.29,38.85c0.68,0.68,1.15,1.63,1.32,2.51c1.02,5.52,1.49,8.6,2.25,13.34c0.26,1.6,0.47,3.15,0.63,4.53" style="fill:none;stroke:#999;stroke-width:3" />
<path d="M785.2,40.16c10.21-1.86,19.18-3.17,27.18-4.1c3.52-0.41,5.76,0.13,5.11,4.31c-0.43,2.74-1.12,6.6-1.88,10.69c-0.27,1.46-0.55,2.92-0.81,4.29" style="fill:none;stroke:#999;stroke-width:3" />
<path d="M786.74,47.85c2.83-0.41,24.76-3.23,28.72-3.23" style="fill:none;stroke:#999;stroke-width:3" />
<path d="M788.35,56.85c9.23-1.62,17.09-2.53,25.72-3.37" style="fill:none;stroke:#999;stroke-width:3" />
<path d="M800.08,22.38c0.64,0.64,1.03,1.75,1.03,3.02c0,0.72-0.12,40.21-0.12,46.73" style="fill:none;stroke:#999;stroke-width:3" />
<path d="M785.57,66.52c1.53,0.53,3.91,0.18,5.46-0.08c7.73-1.32,14.35-2.94,18.98-3.82c1.03-0.2,2.62-0.35,3.14-0.25" style="fill:none;stroke:black;stroke-width:3" />
<circle cx="785.57" cy="66.52" r="5" stroke-width="0" fill="#FF2A00" opacity="0.7" />
<path d="M921.29,13.14c0,1.24-1.44,2.18-2.06,2.54c-3.81,2.16-11.99,5.23-24.81,8.21" style="fill:none;stroke:#999;stroke-width:3" />
<path d="M886.97,30.29c2.43,0.3,4.76,0.15,7.17-0.18c7.99-1.1,18.77-2.15,26.5-2.94c2.58-0.26,5.07-0.6,7.64-0.09" style="fill:none;stroke:#999;stroke-width:3" />
<path d="M892.29,38.85c0.68,0.68,1.15,1.63,1.32,2.51c1.02,5.52,1.49,8.6,2.25,13.34c0.26,1.6,0.47,3.15,0.63,4.53" style="fill:none;stroke:#999;stroke-width:3" />
<path d="M894.2,40.16c10.21-1.86,19.18-3.17,27.18-4.1c3.52-0.41,5.76,0.13,5.11,4.31c-0.43,2.74-1.12,6.6-1.88,10.69c-0.27,1.46-0.55,2.92-0.81,4.29" style="fill:none;stroke:#999;stroke-width:3" />
<path d="M895.74,47.85c2.83-0.41,24.76-3.23,28.72-3.23" style="fill:none;stroke:#999;stroke-width:3" />
<path d="M897.35,56.85c9.23-1.62,17.09-2.53,25.72-3.37" style="fill:none;stroke:#999;stroke-width:3" />
<path d="M909.08,22.38c0.64,0.64,1.03,1.75,1.03,3.02c0,0.72-0.12,40.21-0.12,46.73" style="fill:none;stroke:#999;stroke-width:3" />
<path d="M894.57,66.52c1.53,0.53,3.91,0.18,5.46-0.08c7.73-1.32,14.35-2.94,18.98-3.82c1.03-0.2,2.62-0.35,3.14-0.25" style="fill:none;stroke:#999;stroke-width:3" />
<path d="M890.7,77.2c0.8,0.93,1.82,1.51,3.86,0.89c10.44-3.21,14.19-4.33,27.35-8.41" style="fill:none;stroke:black;stroke-width:3" />
<circle cx="890.7" cy="77.2" r="5" stroke-width="0" fill="#FF2A00" opacity="0.7" />
<path d="M1030.29,13.14c0,1.24-1.44,2.18-2.06,2.54c-3.81,2.16-11.99,5.23-24.81,8.21" style="fill:none;stroke:#999;stroke-width:3" />
<path d="M995.97,30.29c2.43,0.3,4.76,0.15,7.17-0.18c7.99-1.1,18.77-2.15,26.5-2.94c2.58-0.26,5.07-0.6,7.64-0.09" style="fill:none;stroke:#999;stroke-width:3" />
<path d="M1001.29,38.85c0.68,0.68,1.15,1.63,1.32,2.51c1.02,5.52,1.49,8.6,2.25,13.34c0.26,1.6,0.47,3.15,0.63,4.53" style="fill:none;stroke:#999;stroke-width:3" />
<path d="M1003.2,40.16c10.21-1.86,19.18-3.17,27.18-4.1c3.52-0.41,5.76,0.13,5.11,4.31c-0.43,2.74-1.12,6.6-1.88,10.69c-0.27,1.46-0.55,2.92-0.81,4.29" style="fill:none;stroke:#999;stroke-width:3" />
<path d="M1004.74,47.85c2.83-0.41,24.76-3.23,28.72-3.23" style="fill:none;stroke:#999;stroke-width:3" />
<path d="M1006.35,56.85c9.23-1.62,17.09-2.53,25.72-3.37" style="fill:none;stroke:#999;stroke-width:3" />
<path d="M1018.08,22.38c0.64,0.64,1.03,1.75,1.03,3.02c0,0.72-0.12,40.21-0.12,46.73" style="fill:none;stroke:#999;stroke-width:3" />
<path d="M1003.57,66.52c1.53,0.53,3.91,0.18,5.46-0.08c7.73-1.32,14.35-2.94,18.98-3.82c1.03-0.2,2.62-0.35,3.14-0.25" style="fill:none;stroke:#999;stroke-width:3" />
<path d="M999.7,77.2c0.8,0.93,1.82,1.51,3.86,0.89c10.44-3.21,14.19-4.33,27.35-8.41" style="fill:none;stroke:#999;stroke-width:3" />
<path d="M1042.97,34.72c2.03,0.53,4.48,0.81,6.27,0.47c6.86-1.31,15.93-3.2,20.63-3.99c4.92-0.83,5.51,1.51,4.88,5.93c-1.3,9.07-6.12,27.25-10.59,34.55c-3.78,6.17-5.4,2.7-7.06-0.05" style="fill:none;stroke:black;stroke-width:3" />
<circle cx="1042.97" cy="34.72" r="5" stroke-width="0" fill="#FF2A00" opacity="0.7" />
<path d="M1139.29,13.14c0,1.24-1.44,2.18-2.06,2.54c-3.81,2.16-11.99,5.23-24.81,8.21" style="fill:none;stroke:#999;stroke-width:3" />
<path d="M1104.97,30.29c2.43,0.3,4.76,0.15,7.17-0.18c7.99-1.1,18.77-2.15,26.5-2.94c2.58-0.26,5.07-0.6,7.64-0.09" style="fill:none;stroke:#999;stroke-width:3" />
<path d="M1110.29,38.85c0.68,0.68,1.15,1.63,1.32,2.51c1.02,5.52,1.49,8.6,2.25,13.34c0.26,1.6,0.47,3.15,0.63,4.53" style="fill:none;stroke:#999;stroke-width:3" />
<path d="M1112.2,40.16c10.21-1.86,19.18-3.17,27.18-4.1c3.52-0.41,5.76,0.13,5.11,4.31c-0.43,2.74-1.12,6.6-1.88,10.69c-0.27,1.46-0.55,2.92-0.81,4.29" style="fill:none;stroke:#999;stroke-width:3" />
<path d="M1113.74,47.85c2.83-0.41,24.76-3.23,28.72-3.23" style="fill:none;stroke:#999;stroke-width:3" />
<path d="M1115.35,56.85c9.23-1.62,17.09-2.53,25.72-3.37" style="fill:none;stroke:#999;stroke-width:3" />
<path d="M1127.08,22.38c0.64,0.64,1.03,1.75,1.03,3.02c0,0.72-0.12,40.21-0.12,46.73" style="fill:none;stroke:#999;stroke-width:3" />
<path d="M1112.5700000000002,66.52c1.53,0.53,3.91,0.18,5.46-0.08c7.73-1.32,14.35-2.94,18.98-3.82c1.03-0.2,2.62-0.35,3.14-0.25" style="fill:none;stroke:#999;stroke-width:3" />
<path d="M1108.7,77.2c0.8,0.93,1.82,1.51,3.86,0.89c10.44-3.21,14.19-4.33,27.35-8.41" style="fill:none;stroke:#999;stroke-width:3" />
<path d="M1151.97,34.72c2.03,0.53,4.48,0.81,6.27,0.47c6.86-1.31,15.93-3.2,20.63-3.99c4.92-0.83,5.51,1.51,4.88,5.93c-1.3,9.07-6.12,27.25-10.59,34.55c-3.78,6.17-5.4,2.7-7.06-0.05" style="fill:none;stroke:#999;stroke-width:3" />
<path d="M1167.14,15.17c0.86,1.21,0.83,2.29,0.52,4.24c-2.29,14.35-5.91,37.35-20.29,53" style="fill:none;stroke:black;stroke-width:3" />
<circle cx="1167.14" cy="15.17" r="5" stroke-width="0" fill="#FF2A00" opacity="0.7" />
<path d="M1248.29,13.14c0,1.24-1.44,2.18-2.06,2.54c-3.81,2.16-11.99,5.23-24.81,8.21" style="fill:none;stroke:#999;stroke-width:3" />
<path d="M1213.97,30.29c2.43,0.3,4.76,0.15,7.17-0.18c7.99-1.1,18.77-2.15,26.5-2.94c2.58-0.26,5.07-0.6,7.64-0.09" style="fill:none;stroke:#999;stroke-width:3" />
<path d="M1219.29,38.85c0.68,0.68,1.15,1.63,1.32,2.51c1.02,5.52,1.49,8.6,2.25,13.34c0.26,1.6,0.47,3.15,0.63,4.53" style="fill:none;stroke:#999;stroke-width:3" />
<path d="M1221.2,40.16c10.21-1.86,19.18-3.17,27.18-4.1c3.52-0.41,5.76,0.13,5.11,4.31c-0.43,2.74-1.12,6.6-1.88,10.69c-0.27,1.46-0.55,2.92-0.81,4.29" style="fill:none;stroke:#999;stroke-width:3" />
<path d="M1222.74,47.85c2.83-0.41,24.76-3.23,28.72-3.23" style="fill:none;stroke:#999;stroke-width:3" />
<path d="M1224.35,56.85c9.23-1.62,17.09-2.53,25.72-3.37" style="fill:none;stroke:#999;stroke-width:3" />
<path d="M1236.08,22.38c0.64,0.64,1.03,1.75,1.03,3.02c0,0.72-0.12,40.21-0.12,46.73" style="fill:none;stroke:#999;stroke-width:3" />
<path d="M1221.5700000000002,66.52c1.53,0.53,3.91,0.18,5.46-0.08c7.73-1.32,14.35-2.94,18.98-3.82c1.03-0.2,2.62-0.35,3.14-0.25" style="fill:none;stroke:#999;stroke-width:3" />
<path d="M1217.7,77.2c0.8,0.93,1.82,1.51,3.86,0.89c10.44-3.21,14.19-4.33,27.35-8.41" style="fill:none;stroke:#999;stroke-width:3" />
<path d="M1260.97,34.72c2.03,0.53,4.48,0.81,6.27,0.47c6.86-1.31,15.93-3.2,20.63-3.99c4.92-0.83,5.51,1.51,4.88,5.93c-1.3,9.07-6.12,27.25-10.59,34.55c-3.78,6.17-5.4,2.7-7.06-0.05" style="fill:none;stroke:#999;stroke-width:3" />
<path d="M1276.14,15.17c0.86,1.21,0.83,2.29,0.52,4.24c-2.29,14.35-5.91,37.35-20.29,53" style="fill:none;stroke:#999;stroke-width:3" />
<path d="M1222.19,83.71c0,5.18-3.92,12.82-4.94,14.29" style="fill:none;stroke:black;stroke-width:3" />
<circle cx="1222.19" cy="83.71" r="5" stroke-width="0" fill="#FF2A00" opacity="0.7" />
<path d="M1357.29,13.14c0,1.24-1.44,2.18-2.06,2.54c-3.81,2.16-11.99,5.23-24.81,8.21" style="fill:none;stroke:#999;stroke-width:3" />
<path d="M1322.97,30.29c2.43,0.3,4.76,0.15,7.17-0.18c7.99-1.1,18.77-2.15,26.5-2.94c2.58-0.26,5.07-0.6,7.64-0.09" style="fill:none;stroke:#999;stroke-width:3" />
<path d="M1328.29,38.85c0.68,0.68,1.15,1.63,1.32,2.51c1.02,5.52,1.49,8.6,2.25,13.34c0.26,1.6,0.47,3.15,0.63,4.53" style="fill:none;stroke:#999;stroke-width:3" />
<path d="M1330.2,40.16c10.21-1.86,19.18-3.17,27.18-4.1c3.52-0.41,5.76,0.13,5.11,4.31c-0.43,2.74-1.12,6.6-1.88,10.69c-0.27,1.46-0.55,2.92-0.81,4.29" style="fill:none;stroke:#999;stroke-width:3" />
<path d="M1331.74,47.85c2.83-0.41,24.76-3.23,28.72-3.23" style="fill:none;stroke:#999;stroke-width:3" />
<path d="M1333.35,56.85c9.23-1.62,17.09-2.53,25.72-3.37" style="fill:none;stroke:#999;stroke-width:3" />
<path d="M1345.08,22.38c0.64,0.64,1.03,1.75,1.03,3.02c0,0.72-0.12,40.21-0.12,46.73" style="fill:none;stroke:#999;stroke-width:3" />
<path d="M1330.5700000000002,66.52c1.53,0.53,3.91,0.18,5.46-0.08c7.73-1.32,14.35-2.94,18.98-3.82c1.03-0.2,2.62-0.35,3.14-0.25" style="fill:none;stroke:#999;stroke-width:3" />
<path d="M1326.7,77.2c0.8,0.93,1.82,1.51,3.86,0.89c10.44-3.21,14.19-4.33,27.35-8.41" style="fill:none;stroke:#999;stroke-width:3" />
<path d="M1369.97,34.72c2.03,0.53,4.48,0.81,6.27,0.47c6.86-1.31,15.93-3.2,20.63-3.99c4.92-0.83,5.51,1.51,4.88,5.93c-1.3,9.07-6.12,27.25-10.59,34.55c-3.78,6.17-5.4,2.7-7.06-0.05" style="fill:none;stroke:#999;stroke-width:3" />
<path d="M1385.14,15.17c0.86,1.21,0.83,2.29,0.52,4.24c-2.29,14.35-5.91,37.35-20.29,53" style="fill:none;stroke:#999;stroke-width:3" />
<path d="M1331.19,83.71c0,5.18-3.92,12.82-4.94,14.29" style="fill:none;stroke:#999;stroke-width:3" />
<path d="M1348.52,82.57c2.45,2.62,4.78,9.84,5.39,13.93" style="fill:none;stroke:black;stroke-width:3" />
<circle cx="1348.52" cy="82.57" r="5" stroke-width="0" fill="#FF2A00" opacity="0.7" />
<path d="M1466.29,13.14c0,1.24-1.44,2.18-2.06,2.54c-3.81,2.16-11.99,5.23-24.81,8.21" style="fill:none;stroke:#999;stroke-width:3" />
<path d="M1431.97,30.29c2.43,0.3,4.76,0.15,7.17-0.18c7.99-1.1,18.77-2.15,26.5-2.94c2.58-0.26,5.07-0.6,7.64-0.09" style="fill:none;stroke:#999;stroke-width:3" />
<path d="M1437.29,38.85c0.68,0.68,1.15,1.63,1.32,2.51c1.02,5.52,1.49,8.6,2.25,13.34c0.26,1.6,0.47,3.15,0.63,4.53" style="fill:none;stroke:#999;stroke-width:3" />
<path d="M1439.2,40.16c10.21-1.86,19.18-3.17,27.18-4.1c3.52-0.41,5.76,0.13,5.11,4.31c-0.43,2.74-1.12,6.6-1.88,10.69c-0.27,1.46-0.55,2.92-0.81,4.29" style="fill:none;stroke:#999;stroke-width:3" />
<path d="M1440.74,47.85c2.83-0.41,24.76-3.23,28.72-3.23" style="fill:none;stroke:#999;stroke-width:3" />
<path d="M1442.35,56.85c9.23-1.62,17.09-2.53,25.72-3.37" style="fill:none;stroke:#999;stroke-width:3" />
<path d="M1454.08,22.38c0.64,0.64,1.03,1.75,1.03,3.02c0,0.72-0.12,40.21-0.12,46.73" style="fill:none;stroke:#999;stroke-width:3" />
<path d="M1439.5700000000002,66.52c1.53,0.53,3.91,0.18,5.46-0.08c7.73-1.32,14.35-2.94,18.98-3.82c1.03-0.2,2.62-0.35,3.14-0.25" style="fill:none;stroke:#999;stroke-width:3" />
<path d="M1435.7,77.2c0.8,0.93,1.82,1.51,3.86,0.89c10.44-3.21,14.19-4.33,27.35-8.41" style="fill:none;stroke:#999;stroke-width:3" />
<path d="M1478.97,34.72c2.03,0.53,4.48,0.81,6.27,0.47c6.86-1.31,15.93-3.2,20.63-3.99c4.92-0.83,5.51,1.51,4.88,5.93c-1.3,9.07-6.12,27.25-10.59,34.55c-3.78,6.17-5.4,2.7-7.06-0.05" style="fill:none;stroke:#999;stroke-width:3" />
<path d="M1494.14,15.17c0.86,1.21,0.83,2.29,0.52,4.24c-2.29,14.35-5.91,37.35-20.29,53" style="fill:none;stroke:#999;stroke-width:3" />
<path d="M1440.19,83.71c0,5.18-3.92,12.82-4.94,14.29" style="fill:none;stroke:#999;stroke-width:3" />
<path d="M1457.52,82.57c2.45,2.62,4.78,9.84,5.39,13.93" style="fill:none;stroke:#999;stroke-width:3" />
<path d="M1478.17,82.46c2.27,2.56,5.86,10.55,6.43,14.54" style="fill:none;stroke:black;stroke-width:3" />
<circle cx="1478.17" cy="82.46" r="5" stroke-width="0" fill="#FF2A00" opacity="0.7" />
<path d="M1575.29,13.14c0,1.24-1.44,2.18-2.06,2.54c-3.81,2.16-11.99,5.23-24.81,8.21" style="fill:none;stroke:#999;stroke-width:3" />
<path d="M1540.97,30.29c2.43,0.3,4.76,0.15,7.17-0.18c7.99-1.1,18.77-2.15,26.5-2.94c2.58-0.26,5.07-0.6,7.64-0.09" style="fill:none;stroke:#999;stroke-width:3" />
<path d="M1546.29,38.85c0.68,0.68,1.15,1.63,1.32,2.51c1.02,5.52,1.49,8.6,2.25,13.34c0.26,1.6,0.47,3.15,0.63,4.53" style="fill:none;stroke:#999;stroke-width:3" />
<path d="M1548.2,40.16c10.21-1.86,19.18-3.17,27.18-4.1c3.52-0.41,5.76,0.13,5.11,4.31c-0.43,2.74-1.12,6.6-1.88,10.69c-0.27,1.46-0.55,2.92-0.81,4.29" style="fill:none;stroke:#999;stroke-width:3" />
<path d="M1549.74,47.85c2.83-0.41,24.76-3.23,28.72-3.23" style="fill:none;stroke:#999;stroke-width:3" />
<path d="M1551.35,56.85c9.23-1.62,17.09-2.53,25.72-3.37" style="fill:none;stroke:#999;stroke-width:3" />
<path d="M1563.08,22.38c0.64,0.64,1.03,1.75,1.03,3.02c0,0.72-0.12,40.21-0.12,46.73" style="fill:none;stroke:#999;stroke-width:3" />
<path d="M1548.5700000000002,66.52c1.53,0.53,3.91,0.18,5.46-0.08c7.73-1.32,14.35-2.94,18.98-3.82c1.03-0.2,2.62-0.35,3.14-0.25" style="fill:none;stroke:#999;stroke-width:3" />
<path d="M1544.7,77.2c0.8,0.93,1.82,1.51,3.86,0.89c10.44-3.21,14.19-4.33,27.35-8.41" style="fill:none;stroke:#999;stroke-width:3" />
<path d="M1587.97,34.72c2.03,0.53,4.48,0.81,6.27,0.47c6.86-1.31,15.93-3.2,20.63-3.99c4.92-0.83,5.51,1.51,4.88,5.93c-1.3,9.07-6.12,27.25-10.59,34.55c-3.78,6.17-5.4,2.7-7.06-0.05" style="fill:none;stroke:#999;stroke-width:3" />
<path d="M1603.14,15.17c0.86,1.21,0.83,2.29,0.52,4.24c-2.29,14.35-5.91,37.35-20.29,53" style="fill:none;stroke:#999;stroke-width:3" />
<path d="M1549.19,83.71c0,5.18-3.92,12.82-4.94,14.29" style="fill:none;stroke:#999;stroke-width:3" />
<path d="M1566.52,82.57c2.45,2.62,4.78,9.84,5.39,13.93" style="fill:none;stroke:#999;stroke-width:3" />
<path d="M1587.17,82.46c2.27,2.56,5.86,10.55,6.43,14.54" style="fill:none;stroke:#999;stroke-width:3" />
<path d="M1607.88,82.38c3.59,2.53,9.28,10.42,10.18,14.36" style="fill:none;stroke:black;stroke-width:3" />
<circle cx="1607.88" cy="82.38" r="5" stroke-width="0" fill="#FF2A00" opacity="0.7" />
</svg>