<!-- 05352 -->
<svg width="872px" height="109px" viewBox="0 0 872px 109px" xmlns="http://www.w3.org/2000/svg" xmlns:xlink="http://www.w3.org/1999/xlink" xml:space="preserve" version="1.1"  baseProfile="full">
<line x1="1" y1="1" x2="871" y2="1" style="stroke:#ddd;stroke-width:2" />
<line x1="1" y1="1" x2="1" y2="108" style="stroke:#ddd;stroke-width:2" />
<line x1="1" y1="108" x2="871" y2="108" style="stroke:#ddd;stroke-width:2" />
<line x1="871" y1="1" x2="871" y2="108" style="stroke:#ddd;stroke-width:2" />
<line x1="109" y1="1" x2="109" y2="108" style="stroke:#ddd;stroke-width:2" />
<line x1="218" y1="1" x2="218" y2="108" style="stroke:#ddd;stroke-width:2" />
<line x1="327" y1="1" x2="327" y2="108" style="stroke:#ddd;stroke-width:2" />
<line x1="436" y1="1" x2="436" y2="108" style="stroke:#ddd;stroke-width:2" />
<line x1="545" y1="1" x2="545" y2="108" style="stroke:#ddd;stroke-width:2" />
<line x1="654" y1="1" x2="654" y2="108" style="stroke:#ddd;stroke-width:2" />
<line x1="763" y1="1" x2="763" y2="108" style="stroke:#ddd;stroke-width:2" />
<line x1="1" y1="54" x2="871" y2="54" style="stroke:#ddd;stroke-width:2;stroke-dasharray:3 3" />
<line x1="55" y1="1" x2="55" y2="108" style="stroke:#ddd;stroke-width:2;stroke-dasharray:3 3" />
<line x1="164" y1="1" x2="164" y2="108" style="stroke:#ddd;stroke-width:2;stroke-dasharray:3 3" />
<line x1="273" y1="1" x2="273" y2="108" style="stroke:#ddd;stroke-width:2;stroke-dasharray:3 3" />
<line x1="382" y1="1" x2="382" y2="108" style="stroke:#ddd;stroke-width:2;stroke-dasharray:3 3" />
<line x1="491" y1="1" x2="491" y2="108" style="stroke:#ddd;stroke-width:2;stroke-dasharray:3 3" />
<line x1="600" y1="1" x2="600" y2="108" style="stroke:#ddd;stroke-width:2;stroke-dasharray:3 3" />
<line x1="709" y1="1" x2="709" y2="108" style="stroke:#ddd;stroke-width:2;stroke-dasharray:3 3" />
<line x1="818" y1="1" x2="818" y2="108" style="stroke:#ddd;stroke-width:2;stroke-dasharray:3 3" />
<path d="M52.72,11.25c1.02,1.02,1.53,2.25,1.53,3.44c0,3.41-0.27,5.94-0.11,8.82" style="fill:none;stroke:black;stroke-width:3" />
<circle cx="52.72" cy="11.25" r="5" stroke-width="0" fill="#FF2A00" opacity="0.7" />
<path d="M161.72,11.25c1.02,1.02,1.53,2.25,1.53,3.44c0,3.41-0.27,5.94-0.11,8.82" style="fill:none;stroke:#999;stroke-width:3" />
<path d="M133.45,26.31c2.52,0.57,5.57,0.35,7.22,0.19c12.83-1.24,33.45-2.99,47.31-3.66c2.79-0.14,4.47,0.04,6.56,0.55" style="fill:none;stroke:black;stroke-width:3" />
<circle cx="133.45" cy="26.31" r="5" stroke-width="0" fill="#FF2A00" opacity="0.7" />
<path d="M270.72,11.25c1.02,1.02,1.53,2.25,1.53,3.44c0,3.41-0.27,5.94-0.11,8.82" style="fill:none;stroke:#999;stroke-width:3" />
<path d="M242.45,26.31c2.52,0.57,5.57,0.35,7.22,0.19c12.83-1.24,33.45-2.99,47.31-3.66c2.79-0.14,4.47,0.04,6.56,0.55" style="fill:none;stroke:#999;stroke-width:3" />
<path d="M257.5,32.24c0,0.61-0.09,1.39-0.44,2.09c-2.05,4.04-9.3,12.42-18.3,17.97" style="fill:none;stroke:black;stroke-width:3" />
<circle cx="257.5" cy="32.24" r="5" stroke-width="0" fill="#FF2A00" opacity="0.7" />
<path d="M379.72,11.25c1.02,1.02,1.53,2.25,1.53,3.44c0,3.41-0.27,5.94-0.11,8.82" style="fill:none;stroke:#999;stroke-width:3" />
<path d="M351.45,26.31c2.52,0.57,5.57,0.35,7.22,0.19c12.83-1.24,33.45-2.99,47.31-3.66c2.79-0.14,4.47,0.04,6.56,0.55" style="fill:none;stroke:#999;stroke-width:3" />
<path d="M366.5,32.24c0,0.61-0.09,1.39-0.44,2.09c-2.05,4.04-9.3,12.42-18.3,17.97" style="fill:none;stroke:#999;stroke-width:3" />
<path d="M366.62,40.62c3.39,1.6,7.72,5.85,9.38,9.88" style="fill:none;stroke:black;stroke-width:3" />
<circle cx="366.62" cy="40.62" r="5" stroke-width="0" fill="#FF2A00" opacity="0.7" />
<path d="M488.72,11.25c1.02,1.02,1.53,2.25,1.53,3.44c0,3.41-0.27,5.94-0.11,8.82" style="fill:none;stroke:#999;stroke-width:3" />
<path d="M460.45,26.31c2.52,0.57,5.57,0.35,7.22,0.19c12.83-1.24,33.45-2.99,47.31-3.66c2.79-0.14,4.47,0.04,6.56,0.55" style="fill:none;stroke:#999;stroke-width:3" />
<path d="M475.5,32.24c0,0.61-0.09,1.39-0.44,2.09c-2.05,4.04-9.3,12.42-18.3,17.97" style="fill:none;stroke:#999;stroke-width:3" />
<path d="M475.62,40.62c3.39,1.6,7.72,5.85,9.38,9.88" style="fill:none;stroke:#999;stroke-width:3" />
<path d="M506.0,30.74c0,0.61,0.16,1.38-0.17,2.08c-1.66,3.54-5.92,9.98-13.82,16.34" style="fill:none;stroke:black;stroke-width:3" />
<circle cx="506.0" cy="30.74" r="5" stroke-width="0" fill="#FF2A00" opacity="0.7" />
<path d="M597.72,11.25c1.02,1.02,1.53,2.25,1.53,3.44c0,3.41-0.27,5.94-0.11,8.82" style="fill:none;stroke:#999;stroke-width:3" />
<path d="M569.45,26.31c2.52,0.57,5.57,0.35,7.22,0.19c12.83-1.24,33.45-2.99,47.31-3.66c2.79-0.14,4.47,0.04,6.56,0.55" style="fill:none;stroke:#999;stroke-width:3" />
<path d="M584.5,32.24c0,0.61-0.09,1.39-0.44,2.09c-2.05,4.04-9.3,12.42-18.3,17.97" style="fill:none;stroke:#999;stroke-width:3" />
<path d="M584.62,40.62c3.39,1.6,7.72,5.85,9.38,9.88" style="fill:none;stroke:#999;stroke-width:3" />
<path d="M615.0,30.74c0,0.61,0.16,1.38-0.17,2.08c-1.66,3.54-5.92,9.98-13.82,16.34" style="fill:none;stroke:#999;stroke-width:3" />
<path d="M615.38,39.25c7.38,2.62,14.5,7,18.62,11.75" style="fill:none;stroke:black;stroke-width:3" />
<circle cx="615.38" cy="39.25" r="5" stroke-width="0" fill="#FF2A00" opacity="0.7" />
<path d="M706.72,11.25c1.02,1.02,1.53,2.25,1.53,3.44c0,3.41-0.27,5.94-0.11,8.82" style="fill:none;stroke:#999;stroke-width:3" />
<path d="M678.45,26.31c2.52,0.57,5.57,0.35,7.22,0.19c12.83-1.24,33.45-2.99,47.31-3.66c2.79-0.14,4.47,0.04,6.56,0.55" style="fill:none;stroke:#999;stroke-width:3" />
<path d="M693.5,32.24c0,0.61-0.09,1.39-0.44,2.09c-2.05,4.04-9.3,12.42-18.3,17.97" style="fill:none;stroke:#999;stroke-width:3" />
<path d="M693.62,40.62c3.39,1.6,7.72,5.85,9.38,9.88" style="fill:none;stroke:#999;stroke-width:3" />
<path d="M724.0,30.74c0,0.61,0.16,1.38-0.17,2.08c-1.66,3.54-5.92,9.98-13.82,16.34" style="fill:none;stroke:#999;stroke-width:3" />
<path d="M724.38,39.25c7.38,2.62,14.5,7,18.62,11.75" style="fill:none;stroke:#999;stroke-width:3" />
<path d="M668.88,67.59c2.46,0.54,6.98,0.76,9.42,0.54c18.45-1.63,47.82-3.63,61.72-3.98c3.88-0.1,6.23,0.34,8.6,1.03" style="fill:none;stroke:black;stroke-width:3" />
<circle cx="668.88" cy="67.59" r="5" stroke-width="0" fill="#FF2A00" opacity="0.7" />
<path d="M815.72,11.25c1.02,1.02,1.53,2.25,1.53,3.44c0,3.41-0.27,5.94-0.11,8.82" style="fill:none;stroke:#999;stroke-width:3" />
<path d="M787.45,26.31c2.52,0.57,5.57,0.35,7.22,0.19c12.83-1.24,33.45-2.99,47.31-3.66c2.79-0.14,4.47,0.04,6.56,0.55" style="fill:none;stroke:#999;stroke-width:3" />
<path d="M802.5,32.24c0,0.61-0.09,1.39-0.44,2.09c-2.05,4.04-9.3,12.42-18.3,17.97" style="fill:none;stroke:#999;stroke-width:3" />
<path d="M802.62,40.62c3.39,1.6,7.72,5.85,9.38,9.88" style="fill:none;stroke:#999;stroke-width:3" />
<path d="M833.0,30.74c0,0.61,0.16,1.38-0.17,2.08c-1.66,3.54-5.92,9.98-13.82,16.34" style="fill:none;stroke:#999;stroke-width:3" />
<path d="M833.38,39.25c7.38,2.62,14.5,7,18.62,11.75" style="fill:none;stroke:#999;stroke-width:3" />
<path d="M777.88,67.59c2.46,0.54,6.98,0.76,9.42,0.54c18.45-1.63,47.82-3.63,61.72-3.98c3.88-0.1,6.23,0.34,8.6,1.03" style="fill:none;stroke:#999;stroke-width:3" />
<path d="M815.84,55c1.02,1.02,1.73,2.38,1.73,4.23c0,4.77-0.11,20.96-0.15,32.89c-0.01,2.92-0.02,5.35-0.02,6.88" style="fill:none;stroke:black;stroke-width:3" />
<circle cx="815.84" cy="55.0" r="5" stroke-width="0" fill="#FF2A00" opacity="0.7" />
</svg>