<!-- 05354 -->
<svg width="872px" height="109px" viewBox="0 0 872px 109px" xmlns="http://www.w3.org/2000/svg" xmlns:xlink="http://www.w3.org/1999/xlink" xml:space="preserve" version="1.1"  baseProfile="full">
<line x1="1" y1="1" x2="871" y2="1" style="stroke:#ddd;stroke-width:2" />
<line x1="1" y1="1" x2="1" y2="108" style="stroke:#ddd;stroke-width:2" />
<line x1="1" y1="108" x2="871" y2="108" style="stroke:#ddd;stroke-width:2" />
<line x1="871" y1="1" x2="871" y2="108" style="stroke:#ddd;stroke-width:2" />
<line x1="109" y1="1" x2="109" y2="108" style="stroke:#ddd;stroke-width:2" />
<line x1="218" y1="1" x2="218" y2="108" style="stroke:#ddd;stroke-width:2" />
<line x1="327" y1="1" x2="327" y2="108" style="stroke:#ddd;stroke-width:2" />
<line x1="436" y1="1" x2="436" y2="108" style="stroke:#ddd;stroke-width:2" />
<line x1="545" y1="1" x2="545" y2="108" style="stroke:#ddd;stroke-width:2" />
<line x1="654" y1="1" x2="654" y2="108" style="stroke:#ddd;stroke-width:2" />
<line x1="763" y1="1" x2="763" y2="108" style="stroke:#ddd;stroke-width:2" />
<line x1="1" y1="54" x2="871" y2="54" style="stroke:#ddd;stroke-width:2;stroke-dasharray:3 3" />
<line x1="55" y1="1" x2="55" y2="108" style="stroke:#ddd;stroke-width:2;stroke-dasharray:3 3" />
<line x1="164" y1="1" x2="164" y2="108" style="stroke:#ddd;stroke-width:2;stroke-dasharray:3 3" />
<line x1="273" y1="1" x2="273" y2="108" style="stroke:#ddd;stroke-width:2;stroke-dasharray:3 3" />
<line x1="382" y1="1" x2="382" y2="108" style="stroke:#ddd;stroke-width:2;stroke-dasharray:3 3" />
<line x1="491" y1="1" x2="491" y2="108" style="stroke:#ddd;stroke-width:2;stroke-dasharray:3 3" />
<line x1="600" y1="1" x2="600" y2="108" style="stroke:#ddd;stroke-width:2;stroke-dasharray:3 3" />
<line x1="709" y1="1" x2="709" y2="108" style="stroke:#ddd;stroke-width:2;stroke-dasharray:3 3" />
<line x1="818" y1="1" x2="818" y2="108" style="stroke:#ddd;stroke-width:2;stroke-dasharray:3 3" />
<path d="M10.75,43.28c1.69,0.46,3.66,0.26,5.4,0.11c6.1-0.53,14.22-2.39,20.81-3.46c1.53-0.25,3.25-0.21,4.04-0.09" style="fill:none;stroke:black;stroke-width:3" />
<circle cx="10.75" cy="43.28" r="5" stroke-width="0" fill="#FF2A00" opacity="0.7" />
<path d="M119.75,43.28c1.69,0.46,3.66,0.26,5.4,0.11c6.1-0.53,14.22-2.39,20.81-3.46c1.53-0.25,3.25-0.21,4.04-0.09" style="fill:none;stroke:#999;stroke-width:3" />
<path d="M134.62,17.5c0.88,0.88,1.46,2.48,1.46,3.5c0,8.41,0.02,47.7,0.03,67c0,3.08,0,5.64,0,7.5" style="fill:none;stroke:black;stroke-width:3" />
<circle cx="134.62" cy="17.5" r="5" stroke-width="0" fill="#FF2A00" opacity="0.7" />
<path d="M228.75,43.28c1.69,0.46,3.66,0.26,5.4,0.11c6.1-0.53,14.22-2.39,20.81-3.46c1.53-0.25,3.25-0.21,4.04-0.09" style="fill:none;stroke:#999;stroke-width:3" />
<path d="M243.62,17.5c0.88,0.88,1.46,2.48,1.46,3.5c0,8.41,0.02,47.7,0.03,67c0,3.08,0,5.64,0,7.5" style="fill:none;stroke:#999;stroke-width:3" />
<path d="M265.42,28.61c1.95,0.84,3.8,1.03,5.84,0.82c8.74-0.92,26.03-4.34,29.22-4.69c2.32-0.26,2.96,1.16,2.84,2.97c-0.34,4.76-5.96,18.49-9.57,21.71c-2.7,2.41-3.38,1.3-6.19-0.39" style="fill:none;stroke:black;stroke-width:3" />
<circle cx="265.42" cy="28.61" r="5" stroke-width="0" fill="#FF2A00" opacity="0.7" />
<path d="M337.75,43.28c1.69,0.46,3.66,0.26,5.4,0.11c6.1-0.53,14.22-2.39,20.81-3.46c1.53-0.25,3.25-0.21,4.04-0.09" style="fill:none;stroke:#999;stroke-width:3" />
<path d="M352.62,17.5c0.88,0.88,1.46,2.48,1.46,3.5c0,8.41,0.02,47.7,0.03,67c0,3.08,0,5.64,0,7.5" style="fill:none;stroke:#999;stroke-width:3" />
<path d="M374.42,28.61c1.95,0.84,3.8,1.03,5.84,0.82c8.74-0.92,26.03-4.34,29.22-4.69c2.32-0.26,2.96,1.16,2.84,2.97c-0.34,4.76-5.96,18.49-9.57,21.71c-2.7,2.41-3.38,1.3-6.19-0.39" style="fill:none;stroke:#999;stroke-width:3" />
<path d="M393.37,12c0.47,1.09,0.64,2.25,0.4,3.64c-1.79,10.27-7.3,26.67-19.02,37.24" style="fill:none;stroke:black;stroke-width:3" />
<circle cx="393.37" cy="12.0" r="5" stroke-width="0" fill="#FF2A00" opacity="0.7" />
<path d="M446.75,43.28c1.69,0.46,3.66,0.26,5.4,0.11c6.1-0.53,14.22-2.39,20.81-3.46c1.53-0.25,3.25-0.21,4.04-0.09" style="fill:none;stroke:#999;stroke-width:3" />
<path d="M461.62,17.5c0.88,0.88,1.46,2.48,1.46,3.5c0,8.41,0.02,47.7,0.03,67c0,3.08,0,5.64,0,7.5" style="fill:none;stroke:#999;stroke-width:3" />
<path d="M483.42,28.61c1.95,0.84,3.8,1.03,5.84,0.82c8.74-0.92,26.03-4.34,29.22-4.69c2.32-0.26,2.96,1.16,2.84,2.97c-0.34,4.76-5.96,18.49-9.57,21.71c-2.7,2.41-3.38,1.3-6.19-0.39" style="fill:none;stroke:#999;stroke-width:3" />
<path d="M502.37,12c0.47,1.09,0.64,2.25,0.4,3.64c-1.79,10.27-7.3,26.67-19.02,37.24" style="fill:none;stroke:#999;stroke-width:3" />
<path d="M471.82,70.33c0.86,0.41,3.76,0.66,4.69,0.49c6.14-1.14,16.76-3.12,19.28-3.43c1.88-0.23,2.4,1.04,2.3,2.65c-0.28,4.26-5.89,19.17-8.82,22.05c-2.21,2.17-2.8,1.12-5.01-0.35" style="fill:none;stroke:black;stroke-width:3" />
<circle cx="471.82" cy="70.33" r="5" stroke-width="0" fill="#FF2A00" opacity="0.7" />
<path d="M555.75,43.28c1.69,0.46,3.66,0.26,5.4,0.11c6.1-0.53,14.22-2.39,20.81-3.46c1.53-0.25,3.25-0.21,4.04-0.09" style="fill:none;stroke:#999;stroke-width:3" />
<path d="M570.62,17.5c0.88,0.88,1.46,2.48,1.46,3.5c0,8.41,0.02,47.7,0.03,67c0,3.08,0,5.64,0,7.5" style="fill:none;stroke:#999;stroke-width:3" />
<path d="M592.4200000000001,28.61c1.95,0.84,3.8,1.03,5.84,0.82c8.74-0.92,26.03-4.34,29.22-4.69c2.32-0.26,2.96,1.16,2.84,2.97c-0.34,4.76-5.96,18.49-9.57,21.71c-2.7,2.41-3.38,1.3-6.19-0.39" style="fill:none;stroke:#999;stroke-width:3" />
<path d="M611.37,12c0.47,1.09,0.64,2.25,0.4,3.64c-1.79,10.27-7.3,26.67-19.02,37.24" style="fill:none;stroke:#999;stroke-width:3" />
<path d="M580.8199999999999,70.33c0.86,0.41,3.76,0.66,4.69,0.49c6.14-1.14,16.76-3.12,19.28-3.43c1.88-0.23,2.4,1.04,2.3,2.65c-0.28,4.26-5.89,19.17-8.82,22.05c-2.21,2.17-2.8,1.12-5.01-0.35" style="fill:none;stroke:#999;stroke-width:3" />
<path d="M594.5,58.43c0.38,1.2,0.38,2.31,0.14,3.58c-1.76,9.46-4.89,24.87-17.51,33.56" style="fill:none;stroke:black;stroke-width:3" />
<circle cx="594.5" cy="58.43" r="5" stroke-width="0" fill="#FF2A00" opacity="0.7" />
<path d="M664.75,43.28c1.69,0.46,3.66,0.26,5.4,0.11c6.1-0.53,14.22-2.39,20.81-3.46c1.53-0.25,3.25-0.21,4.04-0.09" style="fill:none;stroke:#999;stroke-width:3" />
<path d="M679.62,17.5c0.88,0.88,1.46,2.48,1.46,3.5c0,8.41,0.02,47.7,0.03,67c0,3.08,0,5.64,0,7.5" style="fill:none;stroke:#999;stroke-width:3" />
<path d="M701.4200000000001,28.61c1.95,0.84,3.8,1.03,5.84,0.82c8.74-0.92,26.03-4.34,29.22-4.69c2.32-0.26,2.96,1.16,2.84,2.97c-0.34,4.76-5.96,18.49-9.57,21.71c-2.7,2.41-3.38,1.3-6.19-0.39" style="fill:none;stroke:#999;stroke-width:3" />
<path d="M720.37,12c0.47,1.09,0.64,2.25,0.4,3.64c-1.79,10.27-7.3,26.67-19.02,37.24" style="fill:none;stroke:#999;stroke-width:3" />
<path d="M689.8199999999999,70.33c0.86,0.41,3.76,0.66,4.69,0.49c6.14-1.14,16.76-3.12,19.28-3.43c1.88-0.23,2.4,1.04,2.3,2.65c-0.28,4.26-5.89,19.17-8.82,22.05c-2.21,2.17-2.8,1.12-5.01-0.35" style="fill:none;stroke:#999;stroke-width:3" />
<path d="M703.5,58.43c0.38,1.2,0.38,2.31,0.14,3.58c-1.76,9.46-4.89,24.87-17.51,33.56" style="fill:none;stroke:#999;stroke-width:3" />
<path d="M722.84,66.61c0.83,0.46,3.21,0.49,4.16,0.27c5.91-1.35,16.1-4.04,18.56-4.4c1.81-0.26,2.88,0.92,2.71,2.71c-0.89,9.05-5.52,22.3-9.22,27.71c-1.84,2.68-2.56,1.35-4.81-0.39" style="fill:none;stroke:black;stroke-width:3" />
<circle cx="722.84" cy="66.61" r="5" stroke-width="0" fill="#FF2A00" opacity="0.7" />
<path d="M773.75,43.28c1.69,0.46,3.66,0.26,5.4,0.11c6.1-0.53,14.22-2.39,20.81-3.46c1.53-0.25,3.25-0.21,4.04-0.09" style="fill:none;stroke:#999;stroke-width:3" />
<path d="M788.62,17.5c0.88,0.88,1.46,2.48,1.46,3.5c0,8.41,0.02,47.7,0.03,67c0,3.08,0,5.64,0,7.5" style="fill:none;stroke:#999;stroke-width:3" />
<path d="M810.4200000000001,28.61c1.95,0.84,3.8,1.03,5.84,0.82c8.74-0.92,26.03-4.34,29.22-4.69c2.32-0.26,2.96,1.16,2.84,2.97c-0.34,4.76-5.96,18.49-9.57,21.71c-2.7,2.41-3.38,1.3-6.19-0.39" style="fill:none;stroke:#999;stroke-width:3" />
<path d="M829.37,12c0.47,1.09,0.64,2.25,0.4,3.64c-1.79,10.27-7.3,26.67-19.02,37.24" style="fill:none;stroke:#999;stroke-width:3" />
<path d="M798.8199999999999,70.33c0.86,0.41,3.76,0.66,4.69,0.49c6.14-1.14,16.76-3.12,19.28-3.43c1.88-0.23,2.4,1.04,2.3,2.65c-0.28,4.26-5.89,19.17-8.82,22.05c-2.21,2.17-2.8,1.12-5.01-0.35" style="fill:none;stroke:#999;stroke-width:3" />
<path d="M812.5,58.43c0.38,1.2,0.38,2.31,0.14,3.58c-1.76,9.46-4.89,24.87-17.51,33.56" style="fill:none;stroke:#999;stroke-width:3" />
<path d="M831.84,66.61c0.83,0.46,3.21,0.49,4.16,0.27c5.91-1.35,16.1-4.04,18.56-4.4c1.81-0.26,2.88,0.92,2.71,2.71c-0.89,9.05-5.52,22.3-9.22,27.71c-1.84,2.68-2.56,1.35-4.81-0.39" style="fill:none;stroke:#999;stroke-width:3" />
<path d="M843.53,55.43c0.6,0.95,0.59,2.15,0.39,3.49c-1.42,9.46-6.04,26.83-19.42,35.83" style="fill:none;stroke:black;stroke-width:3" />
<circle cx="843.53" cy="55.43" r="5" stroke-width="0" fill="#FF2A00" opacity="0.7" />
</svg>