<!-- 053d9 -->
<svg width="981px" height="109px" viewBox="0 0 981px 109px" xmlns="http://www.w3.org/2000/svg" xmlns:xlink="http://www.w3.org/1999/xlink" xml:space="preserve" version="1.1"  baseProfile="full">
<line x1="1" y1="1" x2="980" y2="1" style="stroke:#ddd;stroke-width:2" />
<line x1="1" y1="1" x2="1" y2="108" style="stroke:#ddd;stroke-width:2" />
<line x1="1" y1="108" x2="980" y2="108" style="stroke:#ddd;stroke-width:2" />
<line x1="980" y1="1" x2="980" y2="108" style="stroke:#ddd;stroke-width:2" />
<line x1="109" y1="1" x2="109" y2="108" style="stroke:#ddd;stroke-width:2" />
<line x1="218" y1="1" x2="218" y2="108" style="stroke:#ddd;stroke-width:2" />
<line x1="327" y1="1" x2="327" y2="108" style="stroke:#ddd;stroke-width:2" />
<line x1="436" y1="1" x2="436" y2="108" style="stroke:#ddd;stroke-width:2" />
<line x1="545" y1="1" x2="545" y2="108" style="stroke:#ddd;stroke-width:2" />
<line x1="654" y1="1" x2="654" y2="108" style="stroke:#ddd;stroke-width:2" />
<line x1="763" y1="1" x2="763" y2="108" style="stroke:#ddd;stroke-width:2" />
<line x1="872" y1="1" x2="872" y2="108" style="stroke:#ddd;stroke-width:2" />
<line x1="1" y1="54" x2="980" y2="54" style="stroke:#ddd;stroke-width:2;stroke-dasharray:3 3" />
<line x1="55" y1="1" x2="55" y2="108" style="stroke:#ddd;stroke-width:2;stroke-dasharray:3 3" />
<line x1="164" y1="1" x2="164" y2="108" style="stroke:#ddd;stroke-width:2;stroke-dasharray:3 3" />
<line x1="273" y1="1" x2="273" y2="108" style="stroke:#ddd;stroke-width:2;stroke-dasharray:3 3" />
<line x1="382" y1="1" x2="382" y2="108" style="stroke:#ddd;stroke-width:2;stroke-dasharray:3 3" />
<line x1="491" y1="1" x2="491" y2="108" style="stroke:#ddd;stroke-width:2;stroke-dasharray:3 3" />
<line x1="600" y1="1" x2="600" y2="108" style="stroke:#ddd;stroke-width:2;stroke-dasharray:3 3" />
<line x1="709" y1="1" x2="709" y2="108" style="stroke:#ddd;stroke-width:2;stroke-dasharray:3 3" />
<line x1="818" y1="1" x2="818" y2="108" style="stroke:#ddd;stroke-width:2;stroke-dasharray:3 3" />
<line x1="927" y1="1" x2="927" y2="108" style="stroke:#ddd;stroke-width:2;stroke-dasharray:3 3" />
<path d="M32.06,15.75c0.08,0.72,0.28,1.9-0.16,2.89c-3.41,7.86-9.28,18.24-21.28,27.61" style="fill:none;stroke:black;stroke-width:3" />
<circle cx="32.06" cy="15.75" r="5" stroke-width="0" fill="#FF2A00" opacity="0.7" />
<path d="M141.06,15.75c0.08,0.72,0.28,1.9-0.16,2.89c-3.41,7.86-9.28,18.24-21.28,27.61" style="fill:none;stroke:#999;stroke-width:3" />
<path d="M143.38,22.62c5.07,3.03,11.21,7.88,13.88,12.12" style="fill:none;stroke:black;stroke-width:3" />
<circle cx="143.38" cy="22.62" r="5" stroke-width="0" fill="#FF2A00" opacity="0.7" />
<path d="M250.06,15.75c0.08,0.72,0.28,1.9-0.16,2.89c-3.41,7.86-9.28,18.24-21.28,27.61" style="fill:none;stroke:#999;stroke-width:3" />
<path d="M252.38,22.62c5.07,3.03,11.21,7.88,13.88,12.12" style="fill:none;stroke:#999;stroke-width:3" />
<path d="M238.5,44.52c0.98,0.39,3.19,0.4,4.13,0.3c4.68-0.51,10.39-1.86,14.5-2.35c1.18-0.14,2.22-0.23,3.37,0.07" style="fill:none;stroke:black;stroke-width:3" />
<circle cx="238.5" cy="44.52" r="5" stroke-width="0" fill="#FF2A00" opacity="0.7" />
<path d="M359.06,15.75c0.08,0.72,0.28,1.9-0.16,2.89c-3.41,7.86-9.28,18.24-21.28,27.61" style="fill:none;stroke:#999;stroke-width:3" />
<path d="M361.38,22.62c5.07,3.03,11.21,7.88,13.88,12.12" style="fill:none;stroke:#999;stroke-width:3" />
<path d="M347.5,44.52c0.98,0.39,3.19,0.4,4.13,0.3c4.68-0.51,10.39-1.86,14.5-2.35c1.18-0.14,2.22-0.23,3.37,0.07" style="fill:none;stroke:#999;stroke-width:3" />
<path d="M339.73,61.42c2.04,0.72,4.46,0.29,6.54,0.1c7.5-0.71,14.73-1.64,23.09-3.06c2-0.34,3.82-0.57,5.82-0.32" style="fill:none;stroke:black;stroke-width:3" />
<circle cx="339.73" cy="61.42" r="5" stroke-width="0" fill="#FF2A00" opacity="0.7" />
<path d="M468.06,15.75c0.08,0.72,0.28,1.9-0.16,2.89c-3.41,7.86-9.28,18.24-21.28,27.61" style="fill:none;stroke:#999;stroke-width:3" />
<path d="M470.38,22.62c5.07,3.03,11.21,7.88,13.88,12.12" style="fill:none;stroke:#999;stroke-width:3" />
<path d="M456.5,44.52c0.98,0.39,3.19,0.4,4.13,0.3c4.68-0.51,10.39-1.86,14.5-2.35c1.18-0.14,2.22-0.23,3.37,0.07" style="fill:none;stroke:#999;stroke-width:3" />
<path d="M448.73,61.42c2.04,0.72,4.46,0.29,6.54,0.1c7.5-0.71,14.73-1.64,23.09-3.06c2-0.34,3.82-0.57,5.82-0.32" style="fill:none;stroke:#999;stroke-width:3" />
<path d="M468.04,46.05c0.83,0.83,1.21,2.32,1.21,4.3c0,18.93,0,32.01,0,36.77c0,10.8-5.96,1.92-7.4,0.72" style="fill:none;stroke:black;stroke-width:3" />
<circle cx="468.04" cy="46.05" r="5" stroke-width="0" fill="#FF2A00" opacity="0.7" />
<path d="M577.06,15.75c0.08,0.72,0.28,1.9-0.16,2.89c-3.41,7.86-9.28,18.24-21.28,27.61" style="fill:none;stroke:#999;stroke-width:3" />
<path d="M579.38,22.62c5.07,3.03,11.21,7.88,13.88,12.12" style="fill:none;stroke:#999;stroke-width:3" />
<path d="M565.5,44.52c0.98,0.39,3.19,0.4,4.13,0.3c4.68-0.51,10.39-1.86,14.5-2.35c1.18-0.14,2.22-0.23,3.37,0.07" style="fill:none;stroke:#999;stroke-width:3" />
<path d="M557.73,61.42c2.04,0.72,4.46,0.29,6.54,0.1c7.5-0.71,14.73-1.64,23.09-3.06c2-0.34,3.82-0.57,5.82-0.32" style="fill:none;stroke:#999;stroke-width:3" />
<path d="M577.04,46.05c0.83,0.83,1.21,2.32,1.21,4.3c0,18.93,0,32.01,0,36.77c0,10.8-5.96,1.92-7.4,0.72" style="fill:none;stroke:#999;stroke-width:3" />
<path d="M565.5,71.25c0.08,1.15-0.08,1.88-0.51,2.97c-1.55,4.01-4.78,9.47-9.61,15.04" style="fill:none;stroke:black;stroke-width:3" />
<circle cx="565.5" cy="71.25" r="5" stroke-width="0" fill="#FF2A00" opacity="0.7" />
<path d="M686.06,15.75c0.08,0.72,0.28,1.9-0.16,2.89c-3.41,7.86-9.28,18.24-21.28,27.61" style="fill:none;stroke:#999;stroke-width:3" />
<path d="M688.38,22.62c5.07,3.03,11.21,7.88,13.88,12.12" style="fill:none;stroke:#999;stroke-width:3" />
<path d="M674.5,44.52c0.98,0.39,3.19,0.4,4.13,0.3c4.68-0.51,10.39-1.86,14.5-2.35c1.18-0.14,2.22-0.23,3.37,0.07" style="fill:none;stroke:#999;stroke-width:3" />
<path d="M666.73,61.42c2.04,0.72,4.46,0.29,6.54,0.1c7.5-0.71,14.73-1.64,23.09-3.06c2-0.34,3.82-0.57,5.82-0.32" style="fill:none;stroke:#999;stroke-width:3" />
<path d="M686.04,46.05c0.83,0.83,1.21,2.32,1.21,4.3c0,18.93,0,32.01,0,36.77c0,10.8-5.96,1.92-7.4,0.72" style="fill:none;stroke:#999;stroke-width:3" />
<path d="M674.5,71.25c0.08,1.15-0.08,1.88-0.51,2.97c-1.55,4.01-4.78,9.47-9.61,15.04" style="fill:none;stroke:#999;stroke-width:3" />
<path d="M695.5,68.75c2.02,2.33,5.21,9.58,5.71,13.2" style="fill:none;stroke:black;stroke-width:3" />
<circle cx="695.5" cy="68.75" r="5" stroke-width="0" fill="#FF2A00" opacity="0.7" />
<path d="M795.06,15.75c0.08,0.72,0.28,1.9-0.16,2.89c-3.41,7.86-9.28,18.24-21.28,27.61" style="fill:none;stroke:#999;stroke-width:3" />
<path d="M797.38,22.62c5.07,3.03,11.21,7.88,13.88,12.12" style="fill:none;stroke:#999;stroke-width:3" />
<path d="M783.5,44.52c0.98,0.39,3.19,0.4,4.13,0.3c4.68-0.51,10.39-1.86,14.5-2.35c1.18-0.14,2.22-0.23,3.37,0.07" style="fill:none;stroke:#999;stroke-width:3" />
<path d="M775.73,61.42c2.04,0.72,4.46,0.29,6.54,0.1c7.5-0.71,14.73-1.64,23.09-3.06c2-0.34,3.82-0.57,5.82-0.32" style="fill:none;stroke:#999;stroke-width:3" />
<path d="M795.04,46.05c0.83,0.83,1.21,2.32,1.21,4.3c0,18.93,0,32.01,0,36.77c0,10.8-5.96,1.92-7.4,0.72" style="fill:none;stroke:#999;stroke-width:3" />
<path d="M783.5,71.25c0.08,1.15-0.08,1.88-0.51,2.97c-1.55,4.01-4.78,9.47-9.61,15.04" style="fill:none;stroke:#999;stroke-width:3" />
<path d="M804.5,68.75c2.02,2.33,5.21,9.58,5.71,13.2" style="fill:none;stroke:#999;stroke-width:3" />
<path d="M818.57,31.69c1.38,0.43,3.25,0.52,6.05,0.18c6.13-0.74,14.87-2.89,17.7-3.88c2.81-0.99,4.68,0.64,3.83,4.23C840.16,57.54 829.5,81.5 808.77,92.5" style="fill:none;stroke:black;stroke-width:3" />
<circle cx="818.57" cy="31.69" r="5" stroke-width="0" fill="#FF2A00" opacity="0.7" />
<path d="M904.06,15.75c0.08,0.72,0.28,1.9-0.16,2.89c-3.41,7.86-9.28,18.24-21.28,27.61" style="fill:none;stroke:#999;stroke-width:3" />
<path d="M906.38,22.62c5.07,3.03,11.21,7.88,13.88,12.12" style="fill:none;stroke:#999;stroke-width:3" />
<path d="M892.5,44.52c0.98,0.39,3.19,0.4,4.13,0.3c4.68-0.51,10.39-1.86,14.5-2.35c1.18-0.14,2.22-0.23,3.37,0.07" style="fill:none;stroke:#999;stroke-width:3" />
<path d="M884.73,61.42c2.04,0.72,4.46,0.29,6.54,0.1c7.5-0.71,14.73-1.64,23.09-3.06c2-0.34,3.82-0.57,5.82-0.32" style="fill:none;stroke:#999;stroke-width:3" />
<path d="M904.04,46.05c0.83,0.83,1.21,2.32,1.21,4.3c0,18.93,0,32.01,0,36.77c0,10.8-5.96,1.92-7.4,0.72" style="fill:none;stroke:#999;stroke-width:3" />
<path d="M892.5,71.25c0.08,1.15-0.08,1.88-0.51,2.97c-1.55,4.01-4.78,9.47-9.61,15.04" style="fill:none;stroke:#999;stroke-width:3" />
<path d="M913.5,68.75c2.02,2.33,5.21,9.58,5.71,13.2" style="fill:none;stroke:#999;stroke-width:3" />
<path d="M927.57,31.69c1.38,0.43,3.25,0.52,6.05,0.18c6.13-0.74,14.87-2.89,17.7-3.88c2.81-0.99,4.68,0.64,3.83,4.23C949.16,57.54 938.5,81.5 917.77,92.5" style="fill:none;stroke:#999;stroke-width:3" />
<path d="M926.51,41.64c3.5,1.06,18.44,25.24,31.37,39.86c2.8,3.16,5.99,7.31,9.85,9.22" style="fill:none;stroke:black;stroke-width:3" />
<circle cx="926.51" cy="41.64" r="5" stroke-width="0" fill="#FF2A00" opacity="0.7" />
</svg>