<!-- 0540b -->
<svg width="654px" height="109px" viewBox="0 0 654px 109px" xmlns="http://www.w3.org/2000/svg" xmlns:xlink="http://www.w3.org/1999/xlink" xml:space="preserve" version="1.1"  baseProfile="full">
<line x1="1" y1="1" x2="653" y2="1" style="stroke:#ddd;stroke-width:2" />
<line x1="1" y1="1" x2="1" y2="108" style="stroke:#ddd;stroke-width:2" />
<line x1="1" y1="108" x2="653" y2="108" style="stroke:#ddd;stroke-width:2" />
<line x1="653" y1="1" x2="653" y2="108" style="stroke:#ddd;stroke-width:2" />
<line x1="109" y1="1" x2="109" y2="108" style="stroke:#ddd;stroke-width:2" />
<line x1="218" y1="1" x2="218" y2="108" style="stroke:#ddd;stroke-width:2" />
<line x1="327" y1="1" x2="327" y2="108" style="stroke:#ddd;stroke-width:2" />
<line x1="436" y1="1" x2="436" y2="108" style="stroke:#ddd;stroke-width:2" />
<line x1="545" y1="1" x2="545" y2="108" style="stroke:#ddd;stroke-width:2" />
<line x1="1" y1="54" x2="653" y2="54" style="stroke:#ddd;stroke-width:2;stroke-dasharray:3 3" />
<line x1="55" y1="1" x2="55" y2="108" style="stroke:#ddd;stroke-width:2;stroke-dasharray:3 3" />
<line x1="164" y1="1" x2="164" y2="108" style="stroke:#ddd;stroke-width:2;stroke-dasharray:3 3" />
<line x1="273" y1="1" x2="273" y2="108" style="stroke:#ddd;stroke-width:2;stroke-dasharray:3 3" />
<line x1="382" y1="1" x2="382" y2="108" style="stroke:#ddd;stroke-width:2;stroke-dasharray:3 3" />
<line x1="491" y1="1" x2="491" y2="108" style="stroke:#ddd;stroke-width:2;stroke-dasharray:3 3" />
<line x1="600" y1="1" x2="600" y2="108" style="stroke:#ddd;stroke-width:2;stroke-dasharray:3 3" />
<path d="M13.5,37.82c0.82,0.85,1.28,1.87,1.39,3.05c0.87,5.92,1.7,10.83,2.4,15.72c0.29,2.03,0.56,4.06,0.8,6.16" style="fill:none;stroke:black;stroke-width:3" />
<circle cx="13.5" cy="37.82" r="5" stroke-width="0" fill="#FF2A00" opacity="0.7" />
<path d="M122.5,37.82c0.82,0.85,1.28,1.87,1.39,3.05c0.87,5.92,1.7,10.83,2.4,15.72c0.29,2.03,0.56,4.06,0.8,6.16" style="fill:none;stroke:#999;stroke-width:3" />
<path d="M124.67,38.72c8.58-1.71,14.15-2.34,18.44-3c3.88-0.59,4.5,0.67,4.01,3.39c-0.94,5.15-2.04,12.17-3.4,18.9" style="fill:none;stroke:black;stroke-width:3" />
<circle cx="124.67" cy="38.72" r="5" stroke-width="0" fill="#FF2A00" opacity="0.7" />
<path d="M231.5,37.82c0.82,0.85,1.28,1.87,1.39,3.05c0.87,5.92,1.7,10.83,2.4,15.72c0.29,2.03,0.56,4.06,0.8,6.16" style="fill:none;stroke:#999;stroke-width:3" />
<path d="M233.67000000000002,38.72c8.58-1.71,14.15-2.34,18.44-3c3.88-0.59,4.5,0.67,4.01,3.39c-0.94,5.15-2.04,12.17-3.4,18.9" style="fill:none;stroke:#999;stroke-width:3" />
<path d="M236.27,60.59c4.25-0.53,9.2-0.8,14.74-1.4c1.43-0.16,2.9-0.33,4.41-0.54" style="fill:none;stroke:black;stroke-width:3" />
<circle cx="236.27" cy="60.59" r="5" stroke-width="0" fill="#FF2A00" opacity="0.7" />
<path d="M340.5,37.82c0.82,0.85,1.28,1.87,1.39,3.05c0.87,5.92,1.7,10.83,2.4,15.72c0.29,2.03,0.56,4.06,0.8,6.16" style="fill:none;stroke:#999;stroke-width:3" />
<path d="M342.67,38.72c8.58-1.71,14.15-2.34,18.44-3c3.88-0.59,4.5,0.67,4.01,3.39c-0.94,5.15-2.04,12.17-3.4,18.9" style="fill:none;stroke:#999;stroke-width:3" />
<path d="M345.27,60.59c4.25-0.53,9.2-0.8,14.74-1.4c1.43-0.16,2.9-0.33,4.41-0.54" style="fill:none;stroke:#999;stroke-width:3" />
<path d="M373.5,43.22c3.28,0.52,6.52,0.49,9.73-0.12c10.35-1.56,18.72-2.89,30.27-3.84c3.33-0.35,6.66-0.26,10,0.27" style="fill:none;stroke:black;stroke-width:3" />
<circle cx="373.5" cy="43.22" r="5" stroke-width="0" fill="#FF2A00" opacity="0.7" />
<path d="M449.5,37.82c0.82,0.85,1.28,1.87,1.39,3.05c0.87,5.92,1.7,10.83,2.4,15.72c0.29,2.03,0.56,4.06,0.8,6.16" style="fill:none;stroke:#999;stroke-width:3" />
<path d="M451.67,38.72c8.58-1.71,14.15-2.34,18.44-3c3.88-0.59,4.5,0.67,4.01,3.39c-0.94,5.15-2.04,12.17-3.4,18.9" style="fill:none;stroke:#999;stroke-width:3" />
<path d="M454.27,60.59c4.25-0.53,9.2-0.8,14.74-1.4c1.43-0.16,2.9-0.33,4.41-0.54" style="fill:none;stroke:#999;stroke-width:3" />
<path d="M482.5,43.22c3.28,0.52,6.52,0.49,9.73-0.12c10.35-1.56,18.72-2.89,30.27-3.84c3.33-0.35,6.66-0.26,10,0.27" style="fill:none;stroke:#999;stroke-width:3" />
<path d="M514.14,13.58c0.89,0.89,1.26,2.17,1.26,4.77c0,20.4-0.01,65.66-0.01,70.62c0,12.03-5.64,4.03-7.71,1.25" style="fill:none;stroke:black;stroke-width:3" />
<circle cx="514.14" cy="13.58" r="5" stroke-width="0" fill="#FF2A00" opacity="0.7" />
<path d="M558.5,37.82c0.82,0.85,1.28,1.87,1.39,3.05c0.87,5.92,1.7,10.83,2.4,15.72c0.29,2.03,0.56,4.06,0.8,6.16" style="fill:none;stroke:#999;stroke-width:3" />
<path d="M560.6700000000001,38.72c8.58-1.71,14.15-2.34,18.44-3c3.88-0.59,4.5,0.67,4.01,3.39c-0.94,5.15-2.04,12.17-3.4,18.9" style="fill:none;stroke:#999;stroke-width:3" />
<path d="M563.27,60.59c4.25-0.53,9.2-0.8,14.74-1.4c1.43-0.16,2.9-0.33,4.41-0.54" style="fill:none;stroke:#999;stroke-width:3" />
<path d="M591.5,43.22c3.28,0.52,6.52,0.49,9.73-0.12c10.35-1.56,18.72-2.89,30.27-3.84c3.33-0.35,6.66-0.26,10,0.27" style="fill:none;stroke:#999;stroke-width:3" />
<path d="M623.14,13.58c0.89,0.89,1.26,2.17,1.26,4.77c0,20.4-0.01,65.66-0.01,70.62c0,12.03-5.64,4.03-7.71,1.25" style="fill:none;stroke:#999;stroke-width:3" />
<path d="M599.58,58.12c3.18,2.12,8.21,8.71,9,12" style="fill:none;stroke:black;stroke-width:3" />
<circle cx="599.58" cy="58.12" r="5" stroke-width="0" fill="#FF2A00" opacity="0.7" />
</svg>