<!-- 05411 -->
<svg width="654px" height="109px" viewBox="0 0 654px 109px" xmlns="http://www.w3.org/2000/svg" xmlns:xlink="http://www.w3.org/1999/xlink" xml:space="preserve" version="1.1"  baseProfile="full">
<line x1="1" y1="1" x2="653" y2="1" style="stroke:#ddd;stroke-width:2" />
<line x1="1" y1="1" x2="1" y2="108" style="stroke:#ddd;stroke-width:2" />
<line x1="1" y1="108" x2="653" y2="108" style="stroke:#ddd;stroke-width:2" />
<line x1="653" y1="1" x2="653" y2="108" style="stroke:#ddd;stroke-width:2" />
<line x1="109" y1="1" x2="109" y2="108" style="stroke:#ddd;stroke-width:2" />
<line x1="218" y1="1" x2="218" y2="108" style="stroke:#ddd;stroke-width:2" />
<line x1="327" y1="1" x2="327" y2="108" style="stroke:#ddd;stroke-width:2" />
<line x1="436" y1="1" x2="436" y2="108" style="stroke:#ddd;stroke-width:2" />
<line x1="545" y1="1" x2="545" y2="108" style="stroke:#ddd;stroke-width:2" />
<line x1="1" y1="54" x2="653" y2="54" style="stroke:#ddd;stroke-width:2;stroke-dasharray:3 3" />
<line x1="55" y1="1" x2="55" y2="108" style="stroke:#ddd;stroke-width:2;stroke-dasharray:3 3" />
<line x1="164" y1="1" x2="164" y2="108" style="stroke:#ddd;stroke-width:2;stroke-dasharray:3 3" />
<line x1="273" y1="1" x2="273" y2="108" style="stroke:#ddd;stroke-width:2;stroke-dasharray:3 3" />
<line x1="382" y1="1" x2="382" y2="108" style="stroke:#ddd;stroke-width:2;stroke-dasharray:3 3" />
<line x1="491" y1="1" x2="491" y2="108" style="stroke:#ddd;stroke-width:2;stroke-dasharray:3 3" />
<line x1="600" y1="1" x2="600" y2="108" style="stroke:#ddd;stroke-width:2;stroke-dasharray:3 3" />
<path d="M49.51,18.39c0.24,0.98,0.04,2.08-0.33,2.85C45.62,28.5 43.0,32.75 34.06,42.97" style="fill:none;stroke:black;stroke-width:3" />
<circle cx="49.51" cy="18.39" r="5" stroke-width="0" fill="#FF2A00" opacity="0.7" />
<path d="M158.51,18.39c0.24,0.98,0.04,2.08-0.33,2.85C154.62,28.5 152.0,32.75 143.06,42.97" style="fill:none;stroke:#999;stroke-width:3" />
<path d="M127.75,42.5c1,1,1.66,2.28,1.78,3.64c0.41,4.91,1.18,24.14,1.58,36.73c0.06,1.78,0.1,3.42,0.14,4.87" style="fill:none;stroke:black;stroke-width:3" />
<circle cx="127.75" cy="42.5" r="5" stroke-width="0" fill="#FF2A00" opacity="0.7" />
<path d="M267.51,18.39c0.24,0.98,0.04,2.08-0.33,2.85C263.62,28.5 261.0,32.75 252.06,42.97" style="fill:none;stroke:#999;stroke-width:3" />
<path d="M236.75,42.5c1,1,1.66,2.28,1.78,3.64c0.41,4.91,1.18,24.14,1.58,36.73c0.06,1.78,0.1,3.42,0.14,4.87" style="fill:none;stroke:#999;stroke-width:3" />
<path d="M239.35,45.1c16.03-1.85,61.13-7.17,62.97-7.43c2.93-0.42,6.74,1.55,6.66,5.33c-0.22,9.76-3.67,33.44-6.49,42.28C299.12,95.75 296.62,90.12 294.0,86" style="fill:none;stroke:black;stroke-width:3" />
<circle cx="239.35" cy="45.1" r="5" stroke-width="0" fill="#FF2A00" opacity="0.7" />
<path d="M376.51,18.39c0.24,0.98,0.04,2.08-0.33,2.85C372.62,28.5 370.0,32.75 361.06,42.97" style="fill:none;stroke:#999;stroke-width:3" />
<path d="M345.75,42.5c1,1,1.66,2.28,1.78,3.64c0.41,4.91,1.18,24.14,1.58,36.73c0.06,1.78,0.1,3.42,0.14,4.87" style="fill:none;stroke:#999;stroke-width:3" />
<path d="M348.35,45.1c16.03-1.85,61.13-7.17,62.97-7.43c2.93-0.42,6.74,1.55,6.66,5.33c-0.22,9.76-3.67,33.44-6.49,42.28C408.12,95.75 405.62,90.12 403.0,86" style="fill:none;stroke:#999;stroke-width:3" />
<path d="M365.75,55.53c0.8,0.8,1.29,1.9,1.35,2.4c0.67,5.55,1.13,8.83,1.97,14.58c0.13,0.93,0.28,1.92,0.43,2.99" style="fill:none;stroke:black;stroke-width:3" />
<circle cx="365.75" cy="55.53" r="5" stroke-width="0" fill="#FF2A00" opacity="0.7" />
<path d="M485.51,18.39c0.24,0.98,0.04,2.08-0.33,2.85C481.62,28.5 479.0,32.75 470.06,42.97" style="fill:none;stroke:#999;stroke-width:3" />
<path d="M454.75,42.5c1,1,1.66,2.28,1.78,3.64c0.41,4.91,1.18,24.14,1.58,36.73c0.06,1.78,0.1,3.42,0.14,4.87" style="fill:none;stroke:#999;stroke-width:3" />
<path d="M457.35,45.1c16.03-1.85,61.13-7.17,62.97-7.43c2.93-0.42,6.74,1.55,6.66,5.33c-0.22,9.76-3.67,33.44-6.49,42.28C517.12,95.75 514.62,90.12 512.0,86" style="fill:none;stroke:#999;stroke-width:3" />
<path d="M474.75,55.53c0.8,0.8,1.29,1.9,1.35,2.4c0.67,5.55,1.13,8.83,1.97,14.58c0.13,0.93,0.28,1.92,0.43,2.99" style="fill:none;stroke:#999;stroke-width:3" />
<path d="M477.03,57.28c10.34-1.53,17.23-2.44,24.75-3.54c2.47-0.36,3.35,1.14,2.97,2.76c-1,4.35-2.25,7.5-3.33,13.38" style="fill:none;stroke:black;stroke-width:3" />
<circle cx="477.03" cy="57.28" r="5" stroke-width="0" fill="#FF2A00" opacity="0.7" />
<path d="M594.51,18.39c0.24,0.98,0.04,2.08-0.33,2.85C590.62,28.5 588.0,32.75 579.06,42.97" style="fill:none;stroke:#999;stroke-width:3" />
<path d="M563.75,42.5c1,1,1.66,2.28,1.78,3.64c0.41,4.91,1.18,24.14,1.58,36.73c0.06,1.78,0.1,3.42,0.14,4.87" style="fill:none;stroke:#999;stroke-width:3" />
<path d="M566.35,45.1c16.03-1.85,61.13-7.17,62.97-7.43c2.93-0.42,6.74,1.55,6.66,5.33c-0.22,9.76-3.67,33.44-6.49,42.28C626.12,95.75 623.62,90.12 621.0,86" style="fill:none;stroke:#999;stroke-width:3" />
<path d="M583.75,55.53c0.8,0.8,1.29,1.9,1.35,2.4c0.67,5.55,1.13,8.83,1.97,14.58c0.13,0.93,0.28,1.92,0.43,2.99" style="fill:none;stroke:#999;stroke-width:3" />
<path d="M586.03,57.28c10.34-1.53,17.23-2.44,24.75-3.54c2.47-0.36,3.35,1.14,2.97,2.76c-1,4.35-2.25,7.5-3.33,13.38" style="fill:none;stroke:#999;stroke-width:3" />
<path d="M588.52,73.26c5.61-0.5,12.98-1.38,21.6-2.24c1.16-0.12,2.32-0.09,3.46-0.11" style="fill:none;stroke:black;stroke-width:3" />
<circle cx="588.52" cy="73.26" r="5" stroke-width="0" fill="#FF2A00" opacity="0.7" />
</svg>