<!-- 054af -->
<svg width="981px" height="109px" viewBox="0 0 981px 109px" xmlns="http://www.w3.org/2000/svg" xmlns:xlink="http://www.w3.org/1999/xlink" xml:space="preserve" version="1.1"  baseProfile="full">
<line x1="1" y1="1" x2="980" y2="1" style="stroke:#ddd;stroke-width:2" />
<line x1="1" y1="1" x2="1" y2="108" style="stroke:#ddd;stroke-width:2" />
<line x1="1" y1="108" x2="980" y2="108" style="stroke:#ddd;stroke-width:2" />
<line x1="980" y1="1" x2="980" y2="108" style="stroke:#ddd;stroke-width:2" />
<line x1="109" y1="1" x2="109" y2="108" style="stroke:#ddd;stroke-width:2" />
<line x1="218" y1="1" x2="218" y2="108" style="stroke:#ddd;stroke-width:2" />
<line x1="327" y1="1" x2="327" y2="108" style="stroke:#ddd;stroke-width:2" />
<line x1="436" y1="1" x2="436" y2="108" style="stroke:#ddd;stroke-width:2" />
<line x1="545" y1="1" x2="545" y2="108" style="stroke:#ddd;stroke-width:2" />
<line x1="654" y1="1" x2="654" y2="108" style="stroke:#ddd;stroke-width:2" />
<line x1="763" y1="1" x2="763" y2="108" style="stroke:#ddd;stroke-width:2" />
<line x1="872" y1="1" x2="872" y2="108" style="stroke:#ddd;stroke-width:2" />
<line x1="1" y1="54" x2="980" y2="54" style="stroke:#ddd;stroke-width:2;stroke-dasharray:3 3" />
<line x1="55" y1="1" x2="55" y2="108" style="stroke:#ddd;stroke-width:2;stroke-dasharray:3 3" />
<line x1="164" y1="1" x2="164" y2="108" style="stroke:#ddd;stroke-width:2;stroke-dasharray:3 3" />
<line x1="273" y1="1" x2="273" y2="108" style="stroke:#ddd;stroke-width:2;stroke-dasharray:3 3" />
<line x1="382" y1="1" x2="382" y2="108" style="stroke:#ddd;stroke-width:2;stroke-dasharray:3 3" />
<line x1="491" y1="1" x2="491" y2="108" style="stroke:#ddd;stroke-width:2;stroke-dasharray:3 3" />
<line x1="600" y1="1" x2="600" y2="108" style="stroke:#ddd;stroke-width:2;stroke-dasharray:3 3" />
<line x1="709" y1="1" x2="709" y2="108" style="stroke:#ddd;stroke-width:2;stroke-dasharray:3 3" />
<line x1="818" y1="1" x2="818" y2="108" style="stroke:#ddd;stroke-width:2;stroke-dasharray:3 3" />
<line x1="927" y1="1" x2="927" y2="108" style="stroke:#ddd;stroke-width:2;stroke-dasharray:3 3" />
<path d="M9.75,34.06c0.35,0.45,0.72,0.82,0.87,1.38c1.23,4.42,3.7,18.12,4.54,26.06" style="fill:none;stroke:black;stroke-width:3" />
<circle cx="9.75" cy="34.06" r="5" stroke-width="0" fill="#FF2A00" opacity="0.7" />
<path d="M118.75,34.06c0.35,0.45,0.72,0.82,0.87,1.38c1.23,4.42,3.7,18.12,4.54,26.06" style="fill:none;stroke:#999;stroke-width:3" />
<path d="M120.96000000000001,36.18c8.94-1.94,15.27-3.11,19.41-3.69c1.52-0.21,2.43,1.26,2.21,2.51c-0.9,5.17-2.45,12.65-3.78,19.8" style="fill:none;stroke:black;stroke-width:3" />
<circle cx="120.96000000000001" cy="36.18" r="5" stroke-width="0" fill="#FF2A00" opacity="0.7" />
<path d="M227.75,34.06c0.35,0.45,0.72,0.82,0.87,1.38c1.23,4.42,3.7,18.12,4.54,26.06" style="fill:none;stroke:#999;stroke-width:3" />
<path d="M229.96,36.18c8.94-1.94,15.27-3.11,19.41-3.69c1.52-0.21,2.43,1.26,2.21,2.51c-0.9,5.17-2.45,12.65-3.78,19.8" style="fill:none;stroke:#999;stroke-width:3" />
<path d="M232.82,57.86c4.87-0.66,10.75-1.42,17.43-2.43" style="fill:none;stroke:black;stroke-width:3" />
<circle cx="232.82" cy="57.86" r="5" stroke-width="0" fill="#FF2A00" opacity="0.7" />
<path d="M336.75,34.06c0.35,0.45,0.72,0.82,0.87,1.38c1.23,4.42,3.7,18.12,4.54,26.06" style="fill:none;stroke:#999;stroke-width:3" />
<path d="M338.96000000000004,36.18c8.94-1.94,15.27-3.11,19.41-3.69c1.52-0.21,2.43,1.26,2.21,2.51c-0.9,5.17-2.45,12.65-3.78,19.8" style="fill:none;stroke:#999;stroke-width:3" />
<path d="M341.82,57.86c4.87-0.66,10.75-1.42,17.43-2.43" style="fill:none;stroke:#999;stroke-width:3" />
<path d="M386.77,14.75c0.06,0.83,0.31,2.2-0.12,3.33c-3.27,8.69-10.57,21.65-20.82,32.49" style="fill:none;stroke:black;stroke-width:3" />
<circle cx="386.77" cy="14.75" r="5" stroke-width="0" fill="#FF2A00" opacity="0.7" />
<path d="M445.75,34.06c0.35,0.45,0.72,0.82,0.87,1.38c1.23,4.42,3.7,18.12,4.54,26.06" style="fill:none;stroke:#999;stroke-width:3" />
<path d="M447.96000000000004,36.18c8.94-1.94,15.27-3.11,19.41-3.69c1.52-0.21,2.43,1.26,2.21,2.51c-0.9,5.17-2.45,12.65-3.78,19.8" style="fill:none;stroke:#999;stroke-width:3" />
<path d="M450.82,57.86c4.87-0.66,10.75-1.42,17.43-2.43" style="fill:none;stroke:#999;stroke-width:3" />
<path d="M495.77,14.75c0.06,0.83,0.31,2.2-0.12,3.33c-3.27,8.69-10.57,21.65-20.82,32.49" style="fill:none;stroke:#999;stroke-width:3" />
<path d="M494.76,26.41c0.33,0.04,1.76,0,2.71-0.11c3.14-0.35,11.46-2.59,15.94-3.68c3.08-0.75,3.95,0.85,3.16,2.89C512.28,36.64 492.5,63.75 472.94,72.53" style="fill:none;stroke:black;stroke-width:3" />
<circle cx="494.76" cy="26.41" r="5" stroke-width="0" fill="#FF2A00" opacity="0.7" />
<path d="M554.75,34.06c0.35,0.45,0.72,0.82,0.87,1.38c1.23,4.42,3.7,18.12,4.54,26.06" style="fill:none;stroke:#999;stroke-width:3" />
<path d="M556.96,36.18c8.94-1.94,15.27-3.11,19.41-3.69c1.52-0.21,2.43,1.26,2.21,2.51c-0.9,5.17-2.45,12.65-3.78,19.8" style="fill:none;stroke:#999;stroke-width:3" />
<path d="M559.8199999999999,57.86c4.87-0.66,10.75-1.42,17.43-2.43" style="fill:none;stroke:#999;stroke-width:3" />
<path d="M604.77,14.75c0.06,0.83,0.31,2.2-0.12,3.33c-3.27,8.69-10.57,21.65-20.82,32.49" style="fill:none;stroke:#999;stroke-width:3" />
<path d="M603.76,26.41c0.33,0.04,1.76,0,2.71-0.11c3.14-0.35,11.46-2.59,15.94-3.68c3.08-0.75,3.95,0.85,3.16,2.89C621.28,36.64 601.5,63.75 581.94,72.53" style="fill:none;stroke:#999;stroke-width:3" />
<path d="M598.15,33.08c5.52,5.62,30.55,26.99,37.99,32.13c2.22,1.53,4.01,2.28,6.18,2.73" style="fill:none;stroke:black;stroke-width:3" />
<circle cx="598.15" cy="33.08" r="5" stroke-width="0" fill="#FF2A00" opacity="0.7" />
<path d="M663.75,34.06c0.35,0.45,0.72,0.82,0.87,1.38c1.23,4.42,3.7,18.12,4.54,26.06" style="fill:none;stroke:#999;stroke-width:3" />
<path d="M665.96,36.18c8.94-1.94,15.27-3.11,19.41-3.69c1.52-0.21,2.43,1.26,2.21,2.51c-0.9,5.17-2.45,12.65-3.78,19.8" style="fill:none;stroke:#999;stroke-width:3" />
<path d="M668.8199999999999,57.86c4.87-0.66,10.75-1.42,17.43-2.43" style="fill:none;stroke:#999;stroke-width:3" />
<path d="M713.77,14.75c0.06,0.83,0.31,2.2-0.12,3.33c-3.27,8.69-10.57,21.65-20.82,32.49" style="fill:none;stroke:#999;stroke-width:3" />
<path d="M712.76,26.41c0.33,0.04,1.76,0,2.71-0.11c3.14-0.35,11.46-2.59,15.94-3.68c3.08-0.75,3.95,0.85,3.16,2.89C730.28,36.64 710.5,63.75 690.94,72.53" style="fill:none;stroke:#999;stroke-width:3" />
<path d="M707.15,33.08c5.52,5.62,30.55,26.99,37.99,32.13c2.22,1.53,4.01,2.28,6.18,2.73" style="fill:none;stroke:#999;stroke-width:3" />
<path d="M702.83,71.01c0.36,0.44,0.73,0.8,0.89,1.35c1.25,4.34,3.25,16.81,4.11,24.6" style="fill:none;stroke:black;stroke-width:3" />
<circle cx="702.83" cy="71.01" r="5" stroke-width="0" fill="#FF2A00" opacity="0.7" />
<path d="M772.75,34.06c0.35,0.45,0.72,0.82,0.87,1.38c1.23,4.42,3.7,18.12,4.54,26.06" style="fill:none;stroke:#999;stroke-width:3" />
<path d="M774.96,36.18c8.94-1.94,15.27-3.11,19.41-3.69c1.52-0.21,2.43,1.26,2.21,2.51c-0.9,5.17-2.45,12.65-3.78,19.8" style="fill:none;stroke:#999;stroke-width:3" />
<path d="M777.8199999999999,57.86c4.87-0.66,10.75-1.42,17.43-2.43" style="fill:none;stroke:#999;stroke-width:3" />
<path d="M822.77,14.75c0.06,0.83,0.31,2.2-0.12,3.33c-3.27,8.69-10.57,21.65-20.82,32.49" style="fill:none;stroke:#999;stroke-width:3" />
<path d="M821.76,26.41c0.33,0.04,1.76,0,2.71-0.11c3.14-0.35,11.46-2.59,15.94-3.68c3.08-0.75,3.95,0.85,3.16,2.89C839.28,36.64 819.5,63.75 799.94,72.53" style="fill:none;stroke:#999;stroke-width:3" />
<path d="M816.15,33.08c5.52,5.62,30.55,26.99,37.99,32.13c2.22,1.53,4.01,2.28,6.18,2.73" style="fill:none;stroke:#999;stroke-width:3" />
<path d="M811.83,71.01c0.36,0.44,0.73,0.8,0.89,1.35c1.25,4.34,3.25,16.81,4.11,24.6" style="fill:none;stroke:#999;stroke-width:3" />
<path d="M814.08,72.97c10.17-1.47,27.09-2.79,31.33-3.36c1.55-0.21,2.48,1.23,2.25,2.46c-0.92,5.07-2.99,12.17-4.35,19.18" style="fill:none;stroke:black;stroke-width:3" />
<circle cx="814.08" cy="72.97" r="5" stroke-width="0" fill="#FF2A00" opacity="0.7" />
<path d="M881.75,34.06c0.35,0.45,0.72,0.82,0.87,1.38c1.23,4.42,3.7,18.12,4.54,26.06" style="fill:none;stroke:#999;stroke-width:3" />
<path d="M883.96,36.18c8.94-1.94,15.27-3.11,19.41-3.69c1.52-0.21,2.43,1.26,2.21,2.51c-0.9,5.17-2.45,12.65-3.78,19.8" style="fill:none;stroke:#999;stroke-width:3" />
<path d="M886.8199999999999,57.86c4.87-0.66,10.75-1.42,17.43-2.43" style="fill:none;stroke:#999;stroke-width:3" />
<path d="M931.77,14.75c0.06,0.83,0.31,2.2-0.12,3.33c-3.27,8.69-10.57,21.65-20.82,32.49" style="fill:none;stroke:#999;stroke-width:3" />
<path d="M930.76,26.41c0.33,0.04,1.76,0,2.71-0.11c3.14-0.35,11.46-2.59,15.94-3.68c3.08-0.75,3.95,0.85,3.16,2.89C948.28,36.64 928.5,63.75 908.94,72.53" style="fill:none;stroke:#999;stroke-width:3" />
<path d="M925.15,33.08c5.52,5.62,30.55,26.99,37.99,32.13c2.22,1.53,4.01,2.28,6.18,2.73" style="fill:none;stroke:#999;stroke-width:3" />
<path d="M920.83,71.01c0.36,0.44,0.73,0.8,0.89,1.35c1.25,4.34,3.25,16.81,4.11,24.6" style="fill:none;stroke:#999;stroke-width:3" />
<path d="M923.08,72.97c10.17-1.47,27.09-2.79,31.33-3.36c1.55-0.21,2.48,1.23,2.25,2.46c-0.92,5.07-2.99,12.17-4.35,19.18" style="fill:none;stroke:#999;stroke-width:3" />
<path d="M926.01,94.63c4.97-0.65,19.74-1.63,28.36-2.25" style="fill:none;stroke:black;stroke-width:3" />
<circle cx="926.01" cy="94.63" r="5" stroke-width="0" fill="#FF2A00" opacity="0.7" />
</svg>