<!-- 054fa -->
<svg width="1090px" height="109px" viewBox="0 0 1090px 109px" xmlns="http://www.w3.org/2000/svg" xmlns:xlink="http://www.w3.org/1999/xlink" xml:space="preserve" version="1.1"  baseProfile="full">
<line x1="1" y1="1" x2="1089" y2="1" style="stroke:#ddd;stroke-width:2" />
<line x1="1" y1="1" x2="1" y2="108" style="stroke:#ddd;stroke-width:2" />
<line x1="1" y1="108" x2="1089" y2="108" style="stroke:#ddd;stroke-width:2" />
<line x1="1089" y1="1" x2="1089" y2="108" style="stroke:#ddd;stroke-width:2" />
<line x1="109" y1="1" x2="109" y2="108" style="stroke:#ddd;stroke-width:2" />
<line x1="218" y1="1" x2="218" y2="108" style="stroke:#ddd;stroke-width:2" />
<line x1="327" y1="1" x2="327" y2="108" style="stroke:#ddd;stroke-width:2" />
<line x1="436" y1="1" x2="436" y2="108" style="stroke:#ddd;stroke-width:2" />
<line x1="545" y1="1" x2="545" y2="108" style="stroke:#ddd;stroke-width:2" />
<line x1="654" y1="1" x2="654" y2="108" style="stroke:#ddd;stroke-width:2" />
<line x1="763" y1="1" x2="763" y2="108" style="stroke:#ddd;stroke-width:2" />
<line x1="872" y1="1" x2="872" y2="108" style="stroke:#ddd;stroke-width:2" />
<line x1="981" y1="1" x2="981" y2="108" style="stroke:#ddd;stroke-width:2" />
<line x1="1" y1="54" x2="1089" y2="54" style="stroke:#ddd;stroke-width:2;stroke-dasharray:3 3" />
<line x1="55" y1="1" x2="55" y2="108" style="stroke:#ddd;stroke-width:2;stroke-dasharray:3 3" />
<line x1="164" y1="1" x2="164" y2="108" style="stroke:#ddd;stroke-width:2;stroke-dasharray:3 3" />
<line x1="273" y1="1" x2="273" y2="108" style="stroke:#ddd;stroke-width:2;stroke-dasharray:3 3" />
<line x1="382" y1="1" x2="382" y2="108" style="stroke:#ddd;stroke-width:2;stroke-dasharray:3 3" />
<line x1="491" y1="1" x2="491" y2="108" style="stroke:#ddd;stroke-width:2;stroke-dasharray:3 3" />
<line x1="600" y1="1" x2="600" y2="108" style="stroke:#ddd;stroke-width:2;stroke-dasharray:3 3" />
<line x1="709" y1="1" x2="709" y2="108" style="stroke:#ddd;stroke-width:2;stroke-dasharray:3 3" />
<line x1="818" y1="1" x2="818" y2="108" style="stroke:#ddd;stroke-width:2;stroke-dasharray:3 3" />
<line x1="927" y1="1" x2="927" y2="108" style="stroke:#ddd;stroke-width:2;stroke-dasharray:3 3" />
<line x1="1036" y1="1" x2="1036" y2="108" style="stroke:#ddd;stroke-width:2;stroke-dasharray:3 3" />
<path d="M12.25,35.29c0.37,0.51,0.76,0.94,0.92,1.58c1.29,5.07,2.84,15.54,3.73,24.63" style="fill:none;stroke:black;stroke-width:3" />
<circle cx="12.25" cy="35.29" r="5" stroke-width="0" fill="#FF2A00" opacity="0.7" />
<path d="M121.25,35.29c0.37,0.51,0.76,0.94,0.92,1.58c1.29,5.07,2.84,15.54,3.73,24.63" style="fill:none;stroke:#999;stroke-width:3" />
<path d="M122.58,37.22c8.92-1.97,16.55-3.06,20.92-3.73c1.6-0.24,2.56,1.44,2.33,2.87c-0.95,5.92-2.05,12.07-3.46,20.25" style="fill:none;stroke:black;stroke-width:3" />
<circle cx="122.58" cy="37.22" r="5" stroke-width="0" fill="#FF2A00" opacity="0.7" />
<path d="M230.25,35.29c0.37,0.51,0.76,0.94,0.92,1.58c1.29,5.07,2.84,15.54,3.73,24.63" style="fill:none;stroke:#999;stroke-width:3" />
<path d="M231.57999999999998,37.22c8.92-1.97,16.55-3.06,20.92-3.73c1.6-0.24,2.56,1.44,2.33,2.87c-0.95,5.92-2.05,12.07-3.46,20.25" style="fill:none;stroke:#999;stroke-width:3" />
<path d="M235.07,58.55c5.14-0.75,11.33-1.05,18.39-2.21" style="fill:none;stroke:black;stroke-width:3" />
<circle cx="235.07" cy="58.55" r="5" stroke-width="0" fill="#FF2A00" opacity="0.7" />
<path d="M339.25,35.29c0.37,0.51,0.76,0.94,0.92,1.58c1.29,5.07,2.84,15.54,3.73,24.63" style="fill:none;stroke:#999;stroke-width:3" />
<path d="M340.58,37.22c8.92-1.97,16.55-3.06,20.92-3.73c1.6-0.24,2.56,1.44,2.33,2.87c-0.95,5.92-2.05,12.07-3.46,20.25" style="fill:none;stroke:#999;stroke-width:3" />
<path d="M344.07,58.55c5.14-0.75,11.33-1.05,18.39-2.21" style="fill:none;stroke:#999;stroke-width:3" />
<path d="M370.25,28.95c1.14,0.48,3.24,0.56,4.39,0.48c9.4-0.67,30.23-3.17,43.1-3.59c1.91-0.06,3.05,0.23,4.01,0.46" style="fill:none;stroke:black;stroke-width:3" />
<circle cx="370.25" cy="28.95" r="5" stroke-width="0" fill="#FF2A00" opacity="0.7" />
<path d="M448.25,35.29c0.37,0.51,0.76,0.94,0.92,1.58c1.29,5.07,2.84,15.54,3.73,24.63" style="fill:none;stroke:#999;stroke-width:3" />
<path d="M449.58,37.22c8.92-1.97,16.55-3.06,20.92-3.73c1.6-0.24,2.56,1.44,2.33,2.87c-0.95,5.92-2.05,12.07-3.46,20.25" style="fill:none;stroke:#999;stroke-width:3" />
<path d="M453.07,58.55c5.14-0.75,11.33-1.05,18.39-2.21" style="fill:none;stroke:#999;stroke-width:3" />
<path d="M479.25,28.95c1.14,0.48,3.24,0.56,4.39,0.48c9.4-0.67,30.23-3.17,43.1-3.59c1.91-0.06,3.05,0.23,4.01,0.46" style="fill:none;stroke:#999;stroke-width:3" />
<path d="M482.40999999999997,41.86c0.55,0.73,0.91,1.47,1.09,2.2c0.18,0.74-0.22,47.44-0.2,54.06" style="fill:none;stroke:black;stroke-width:3" />
<circle cx="482.40999999999997" cy="41.86" r="5" stroke-width="0" fill="#FF2A00" opacity="0.7" />
<path d="M557.25,35.29c0.37,0.51,0.76,0.94,0.92,1.58c1.29,5.07,2.84,15.54,3.73,24.63" style="fill:none;stroke:#999;stroke-width:3" />
<path d="M558.5799999999999,37.22c8.92-1.97,16.55-3.06,20.92-3.73c1.6-0.24,2.56,1.44,2.33,2.87c-0.95,5.92-2.05,12.07-3.46,20.25" style="fill:none;stroke:#999;stroke-width:3" />
<path d="M562.0699999999999,58.55c5.14-0.75,11.33-1.05,18.39-2.21" style="fill:none;stroke:#999;stroke-width:3" />
<path d="M588.25,28.95c1.14,0.48,3.24,0.56,4.39,0.48c9.4-0.67,30.23-3.17,43.1-3.59c1.91-0.06,3.05,0.23,4.01,0.46" style="fill:none;stroke:#999;stroke-width:3" />
<path d="M591.41,41.86c0.55,0.73,0.91,1.47,1.09,2.2c0.18,0.74-0.22,47.44-0.2,54.06" style="fill:none;stroke:#999;stroke-width:3" />
<path d="M593.6,43.8c6.14-0.31,38.13-3.31,39.76-3.51c2.92-0.37,4.01,2.39,3.65,3.49c-0.04,2.48-0.62,30.89-0.62,47.69c0,11.98-6.5,2.29-7.79,1.57" style="fill:none;stroke:black;stroke-width:3" />
<circle cx="593.6" cy="43.8" r="5" stroke-width="0" fill="#FF2A00" opacity="0.7" />
<path d="M666.25,35.29c0.37,0.51,0.76,0.94,0.92,1.58c1.29,5.07,2.84,15.54,3.73,24.63" style="fill:none;stroke:#999;stroke-width:3" />
<path d="M667.5799999999999,37.22c8.92-1.97,16.55-3.06,20.92-3.73c1.6-0.24,2.56,1.44,2.33,2.87c-0.95,5.92-2.05,12.07-3.46,20.25" style="fill:none;stroke:#999;stroke-width:3" />
<path d="M671.0699999999999,58.55c5.14-0.75,11.33-1.05,18.39-2.21" style="fill:none;stroke:#999;stroke-width:3" />
<path d="M697.25,28.95c1.14,0.48,3.24,0.56,4.39,0.48c9.4-0.67,30.23-3.17,43.1-3.59c1.91-0.06,3.05,0.23,4.01,0.46" style="fill:none;stroke:#999;stroke-width:3" />
<path d="M700.41,41.86c0.55,0.73,0.91,1.47,1.09,2.2c0.18,0.74-0.22,47.44-0.2,54.06" style="fill:none;stroke:#999;stroke-width:3" />
<path d="M702.6,43.8c6.14-0.31,38.13-3.31,39.76-3.51c2.92-0.37,4.01,2.39,3.65,3.49c-0.04,2.48-0.62,30.89-0.62,47.69c0,11.98-6.5,2.29-7.79,1.57" style="fill:none;stroke:#999;stroke-width:3" />
<path d="M702.6,57.36c8.13-0.64,35.57-2.28,42.13-2.83" style="fill:none;stroke:black;stroke-width:3" />
<circle cx="702.6" cy="57.36" r="5" stroke-width="0" fill="#FF2A00" opacity="0.7" />
<path d="M775.25,35.29c0.37,0.51,0.76,0.94,0.92,1.58c1.29,5.07,2.84,15.54,3.73,24.63" style="fill:none;stroke:#999;stroke-width:3" />
<path d="M776.5799999999999,37.22c8.92-1.97,16.55-3.06,20.92-3.73c1.6-0.24,2.56,1.44,2.33,2.87c-0.95,5.92-2.05,12.07-3.46,20.25" style="fill:none;stroke:#999;stroke-width:3" />
<path d="M780.0699999999999,58.55c5.14-0.75,11.33-1.05,18.39-2.21" style="fill:none;stroke:#999;stroke-width:3" />
<path d="M806.25,28.95c1.14,0.48,3.24,0.56,4.39,0.48c9.4-0.67,30.23-3.17,43.1-3.59c1.91-0.06,3.05,0.23,4.01,0.46" style="fill:none;stroke:#999;stroke-width:3" />
<path d="M809.41,41.86c0.55,0.73,0.91,1.47,1.09,2.2c0.18,0.74-0.22,47.44-0.2,54.06" style="fill:none;stroke:#999;stroke-width:3" />
<path d="M811.6,43.8c6.14-0.31,38.13-3.31,39.76-3.51c2.92-0.37,4.01,2.39,3.65,3.49c-0.04,2.48-0.62,30.89-0.62,47.69c0,11.98-6.5,2.29-7.79,1.57" style="fill:none;stroke:#999;stroke-width:3" />
<path d="M811.6,57.36c8.13-0.64,35.57-2.28,42.13-2.83" style="fill:none;stroke:#999;stroke-width:3" />
<path d="M811.77,71.29c5.83-0.55,35.71-2.29,42.46-2.66" style="fill:none;stroke:black;stroke-width:3" />
<circle cx="811.77" cy="71.29" r="5" stroke-width="0" fill="#FF2A00" opacity="0.7" />
<path d="M884.25,35.29c0.37,0.51,0.76,0.94,0.92,1.58c1.29,5.07,2.84,15.54,3.73,24.63" style="fill:none;stroke:#999;stroke-width:3" />
<path d="M885.5799999999999,37.22c8.92-1.97,16.55-3.06,20.92-3.73c1.6-0.24,2.56,1.44,2.33,2.87c-0.95,5.92-2.05,12.07-3.46,20.25" style="fill:none;stroke:#999;stroke-width:3" />
<path d="M889.0699999999999,58.55c5.14-0.75,11.33-1.05,18.39-2.21" style="fill:none;stroke:#999;stroke-width:3" />
<path d="M915.25,28.95c1.14,0.48,3.24,0.56,4.39,0.48c9.4-0.67,30.23-3.17,43.1-3.59c1.91-0.06,3.05,0.23,4.01,0.46" style="fill:none;stroke:#999;stroke-width:3" />
<path d="M918.41,41.86c0.55,0.73,0.91,1.47,1.09,2.2c0.18,0.74-0.22,47.44-0.2,54.06" style="fill:none;stroke:#999;stroke-width:3" />
<path d="M920.6,43.8c6.14-0.31,38.13-3.31,39.76-3.51c2.92-0.37,4.01,2.39,3.65,3.49c-0.04,2.48-0.62,30.89-0.62,47.69c0,11.98-6.5,2.29-7.79,1.57" style="fill:none;stroke:#999;stroke-width:3" />
<path d="M920.6,57.36c8.13-0.64,35.57-2.28,42.13-2.83" style="fill:none;stroke:#999;stroke-width:3" />
<path d="M920.77,71.29c5.83-0.55,35.71-2.29,42.46-2.66" style="fill:none;stroke:#999;stroke-width:3" />
<path d="M938.2,11.3c1.29,0.59,2.06,2.67,2.32,3.85c0.26,1.19,0,74.07-0.26,81.48" style="fill:none;stroke:black;stroke-width:3" />
<circle cx="938.2" cy="11.3" r="5" stroke-width="0" fill="#FF2A00" opacity="0.7" />
<path d="M993.25,35.29c0.37,0.51,0.76,0.94,0.92,1.58c1.29,5.07,2.84,15.54,3.73,24.63" style="fill:none;stroke:#999;stroke-width:3" />
<path d="M994.5799999999999,37.22c8.92-1.97,16.55-3.06,20.92-3.73c1.6-0.24,2.56,1.44,2.33,2.87c-0.95,5.92-2.05,12.07-3.46,20.25" style="fill:none;stroke:#999;stroke-width:3" />
<path d="M998.0699999999999,58.55c5.14-0.75,11.33-1.05,18.39-2.21" style="fill:none;stroke:#999;stroke-width:3" />
<path d="M1024.25,28.95c1.14,0.48,3.24,0.56,4.39,0.48c9.4-0.67,30.23-3.17,43.1-3.59c1.91-0.06,3.05,0.23,4.01,0.46" style="fill:none;stroke:#999;stroke-width:3" />
<path d="M1027.4099999999999,41.86c0.55,0.73,0.91,1.47,1.09,2.2c0.18,0.74-0.22,47.44-0.2,54.06" style="fill:none;stroke:#999;stroke-width:3" />
<path d="M1029.6,43.8c6.14-0.31,38.13-3.31,39.76-3.51c2.92-0.37,4.01,2.39,3.65,3.49c-0.04,2.48-0.62,30.89-0.62,47.69c0,11.98-6.5,2.29-7.79,1.57" style="fill:none;stroke:#999;stroke-width:3" />
<path d="M1029.6,57.36c8.13-0.64,35.57-2.28,42.13-2.83" style="fill:none;stroke:#999;stroke-width:3" />
<path d="M1029.77,71.29c5.83-0.55,35.71-2.29,42.46-2.66" style="fill:none;stroke:#999;stroke-width:3" />
<path d="M1047.2,11.3c1.29,0.59,2.06,2.67,2.32,3.85c0.26,1.19,0,74.07-0.26,81.48" style="fill:none;stroke:#999;stroke-width:3" />
<path d="M1063.5,11.5c3,1.41,7.25,5.3,8,7.5" style="fill:none;stroke:black;stroke-width:3" />
<circle cx="1063.5" cy="11.5" r="5" stroke-width="0" fill="#FF2A00" opacity="0.7" />
</svg>