<!-- 0554f -->
<svg width="1199px" height="109px" viewBox="0 0 1199px 109px" xmlns="http://www.w3.org/2000/svg" xmlns:xlink="http://www.w3.org/1999/xlink" xml:space="preserve" version="1.1"  baseProfile="full">
<line x1="1" y1="1" x2="1198" y2="1" style="stroke:#ddd;stroke-width:2" />
<line x1="1" y1="1" x2="1" y2="108" style="stroke:#ddd;stroke-width:2" />
<line x1="1" y1="108" x2="1198" y2="108" style="stroke:#ddd;stroke-width:2" />
<line x1="1198" y1="1" x2="1198" y2="108" style="stroke:#ddd;stroke-width:2" />
<line x1="109" y1="1" x2="109" y2="108" style="stroke:#ddd;stroke-width:2" />
<line x1="218" y1="1" x2="218" y2="108" style="stroke:#ddd;stroke-width:2" />
<line x1="327" y1="1" x2="327" y2="108" style="stroke:#ddd;stroke-width:2" />
<line x1="436" y1="1" x2="436" y2="108" style="stroke:#ddd;stroke-width:2" />
<line x1="545" y1="1" x2="545" y2="108" style="stroke:#ddd;stroke-width:2" />
<line x1="654" y1="1" x2="654" y2="108" style="stroke:#ddd;stroke-width:2" />
<line x1="763" y1="1" x2="763" y2="108" style="stroke:#ddd;stroke-width:2" />
<line x1="872" y1="1" x2="872" y2="108" style="stroke:#ddd;stroke-width:2" />
<line x1="981" y1="1" x2="981" y2="108" style="stroke:#ddd;stroke-width:2" />
<line x1="1090" y1="1" x2="1090" y2="108" style="stroke:#ddd;stroke-width:2" />
<line x1="1" y1="54" x2="1198" y2="54" style="stroke:#ddd;stroke-width:2;stroke-dasharray:3 3" />
<line x1="55" y1="1" x2="55" y2="108" style="stroke:#ddd;stroke-width:2;stroke-dasharray:3 3" />
<line x1="164" y1="1" x2="164" y2="108" style="stroke:#ddd;stroke-width:2;stroke-dasharray:3 3" />
<line x1="273" y1="1" x2="273" y2="108" style="stroke:#ddd;stroke-width:2;stroke-dasharray:3 3" />
<line x1="382" y1="1" x2="382" y2="108" style="stroke:#ddd;stroke-width:2;stroke-dasharray:3 3" />
<line x1="491" y1="1" x2="491" y2="108" style="stroke:#ddd;stroke-width:2;stroke-dasharray:3 3" />
<line x1="600" y1="1" x2="600" y2="108" style="stroke:#ddd;stroke-width:2;stroke-dasharray:3 3" />
<line x1="709" y1="1" x2="709" y2="108" style="stroke:#ddd;stroke-width:2;stroke-dasharray:3 3" />
<line x1="818" y1="1" x2="818" y2="108" style="stroke:#ddd;stroke-width:2;stroke-dasharray:3 3" />
<line x1="927" y1="1" x2="927" y2="108" style="stroke:#ddd;stroke-width:2;stroke-dasharray:3 3" />
<line x1="1036" y1="1" x2="1036" y2="108" style="stroke:#ddd;stroke-width:2;stroke-dasharray:3 3" />
<line x1="1145" y1="1" x2="1145" y2="108" style="stroke:#ddd;stroke-width:2;stroke-dasharray:3 3" />
<path d="M18.39,15.04c1.22,1.22,1.93,3.12,1.93,4.92c0,0.89,0.01,50,0.01,70.67c0,3.77,0,6.6,0,8.01" style="fill:none;stroke:black;stroke-width:3" />
<circle cx="18.39" cy="15.04" r="5" stroke-width="0" fill="#FF2A00" opacity="0.7" />
<path d="M127.39,15.04c1.22,1.22,1.93,3.12,1.93,4.92c0,0.89,0.01,50,0.01,70.67c0,3.77,0,6.6,0,8.01" style="fill:none;stroke:#999;stroke-width:3" />
<path d="M129.52,16.91c6.35-1.16,14.8-2.87,19.12-3.56c2.64-0.42,4.88-0.16,4.75,3.02c-0.13,2.95-0.88,15.16-1.28,21.75c-0.14,2.41-0.24,4.08-0.24,4.26" style="fill:none;stroke:black;stroke-width:3" />
<circle cx="129.52" cy="16.91" r="5" stroke-width="0" fill="#FF2A00" opacity="0.7" />
<path d="M236.39,15.04c1.22,1.22,1.93,3.12,1.93,4.92c0,0.89,0.01,50,0.01,70.67c0,3.77,0,6.6,0,8.01" style="fill:none;stroke:#999;stroke-width:3" />
<path d="M238.52,16.91c6.35-1.16,14.8-2.87,19.12-3.56c2.64-0.42,4.88-0.16,4.75,3.02c-0.13,2.95-0.88,15.16-1.28,21.75c-0.14,2.41-0.24,4.08-0.24,4.26" style="fill:none;stroke:#999;stroke-width:3" />
<path d="M239.2,29.49c6.8-1.24,14.3-2.24,21.38-2.83" style="fill:none;stroke:black;stroke-width:3" />
<circle cx="239.2" cy="29.49" r="5" stroke-width="0" fill="#FF2A00" opacity="0.7" />
<path d="M345.39,15.04c1.22,1.22,1.93,3.12,1.93,4.92c0,0.89,0.01,50,0.01,70.67c0,3.77,0,6.6,0,8.01" style="fill:none;stroke:#999;stroke-width:3" />
<path d="M347.52,16.91c6.35-1.16,14.8-2.87,19.12-3.56c2.64-0.42,4.88-0.16,4.75,3.02c-0.13,2.95-0.88,15.16-1.28,21.75c-0.14,2.41-0.24,4.08-0.24,4.26" style="fill:none;stroke:#999;stroke-width:3" />
<path d="M348.2,29.49c6.8-1.24,14.3-2.24,21.38-2.83" style="fill:none;stroke:#999;stroke-width:3" />
<path d="M348.27,42.06c8.11-1.29,13.14-1.76,20.31-2.36" style="fill:none;stroke:black;stroke-width:3" />
<circle cx="348.27" cy="42.06" r="5" stroke-width="0" fill="#FF2A00" opacity="0.7" />
<path d="M454.39,15.04c1.22,1.22,1.93,3.12,1.93,4.92c0,0.89,0.01,50,0.01,70.67c0,3.77,0,6.6,0,8.01" style="fill:none;stroke:#999;stroke-width:3" />
<path d="M456.52,16.91c6.35-1.16,14.8-2.87,19.12-3.56c2.64-0.42,4.88-0.16,4.75,3.02c-0.13,2.95-0.88,15.16-1.28,21.75c-0.14,2.41-0.24,4.08-0.24,4.26" style="fill:none;stroke:#999;stroke-width:3" />
<path d="M457.2,29.49c6.8-1.24,14.3-2.24,21.38-2.83" style="fill:none;stroke:#999;stroke-width:3" />
<path d="M457.27,42.06c8.11-1.29,13.14-1.76,20.31-2.36" style="fill:none;stroke:#999;stroke-width:3" />
<path d="M500.36,12.26c1,1,1.54,2.24,1.54,3.65c0,0.68-0.06,12.96-0.08,19.84c-0.01,1.89-0.01,3.38-0.01,4.1" style="fill:none;stroke:black;stroke-width:3" />
<circle cx="500.36" cy="12.26" r="5" stroke-width="0" fill="#FF2A00" opacity="0.7" />
<path d="M563.39,15.04c1.22,1.22,1.93,3.12,1.93,4.92c0,0.89,0.01,50,0.01,70.67c0,3.77,0,6.6,0,8.01" style="fill:none;stroke:#999;stroke-width:3" />
<path d="M565.52,16.91c6.35-1.16,14.8-2.87,19.12-3.56c2.64-0.42,4.88-0.16,4.75,3.02c-0.13,2.95-0.88,15.16-1.28,21.75c-0.14,2.41-0.24,4.08-0.24,4.26" style="fill:none;stroke:#999;stroke-width:3" />
<path d="M566.2,29.49c6.8-1.24,14.3-2.24,21.38-2.83" style="fill:none;stroke:#999;stroke-width:3" />
<path d="M566.27,42.06c8.11-1.29,13.14-1.76,20.31-2.36" style="fill:none;stroke:#999;stroke-width:3" />
<path d="M609.36,12.26c1,1,1.54,2.24,1.54,3.65c0,0.68-0.06,12.96-0.08,19.84c-0.01,1.89-0.01,3.38-0.01,4.1" style="fill:none;stroke:#999;stroke-width:3" />
<path d="M611.55,14.16c5.82-1.03,14.49-2.29,19.57-2.95c2.67-0.35,4.85,0.79,4.85,2.92c0,20.13,0.04,63.76,0.04,77.56c0,8.69-5.51,3.56-9.9-0.64" style="fill:none;stroke:black;stroke-width:3" />
<circle cx="611.55" cy="14.16" r="5" stroke-width="0" fill="#FF2A00" opacity="0.7" />
<path d="M672.39,15.04c1.22,1.22,1.93,3.12,1.93,4.92c0,0.89,0.01,50,0.01,70.67c0,3.77,0,6.6,0,8.01" style="fill:none;stroke:#999;stroke-width:3" />
<path d="M674.52,16.91c6.35-1.16,14.8-2.87,19.12-3.56c2.64-0.42,4.88-0.16,4.75,3.02c-0.13,2.95-0.88,15.16-1.28,21.75c-0.14,2.41-0.24,4.08-0.24,4.26" style="fill:none;stroke:#999;stroke-width:3" />
<path d="M675.2,29.49c6.8-1.24,14.3-2.24,21.38-2.83" style="fill:none;stroke:#999;stroke-width:3" />
<path d="M675.27,42.06c8.11-1.29,13.14-1.76,20.31-2.36" style="fill:none;stroke:#999;stroke-width:3" />
<path d="M718.36,12.26c1,1,1.54,2.24,1.54,3.65c0,0.68-0.06,12.96-0.08,19.84c-0.01,1.89-0.01,3.38-0.01,4.1" style="fill:none;stroke:#999;stroke-width:3" />
<path d="M720.55,14.16c5.82-1.03,14.49-2.29,19.57-2.95c2.67-0.35,4.85,0.79,4.85,2.92c0,20.13,0.04,63.76,0.04,77.56c0,8.69-5.51,3.56-9.9-0.64" style="fill:none;stroke:#999;stroke-width:3" />
<path d="M721.24,25.22c6.63-0.84,17.38-1.84,22.15-2.24" style="fill:none;stroke:black;stroke-width:3" />
<circle cx="721.24" cy="25.22" r="5" stroke-width="0" fill="#FF2A00" opacity="0.7" />
<path d="M781.39,15.04c1.22,1.22,1.93,3.12,1.93,4.92c0,0.89,0.01,50,0.01,70.67c0,3.77,0,6.6,0,8.01" style="fill:none;stroke:#999;stroke-width:3" />
<path d="M783.52,16.91c6.35-1.16,14.8-2.87,19.12-3.56c2.64-0.42,4.88-0.16,4.75,3.02c-0.13,2.95-0.88,15.16-1.28,21.75c-0.14,2.41-0.24,4.08-0.24,4.26" style="fill:none;stroke:#999;stroke-width:3" />
<path d="M784.2,29.49c6.8-1.24,14.3-2.24,21.38-2.83" style="fill:none;stroke:#999;stroke-width:3" />
<path d="M784.27,42.06c8.11-1.29,13.14-1.76,20.31-2.36" style="fill:none;stroke:#999;stroke-width:3" />
<path d="M827.36,12.26c1,1,1.54,2.24,1.54,3.65c0,0.68-0.06,12.96-0.08,19.84c-0.01,1.89-0.01,3.38-0.01,4.1" style="fill:none;stroke:#999;stroke-width:3" />
<path d="M829.55,14.16c5.82-1.03,14.49-2.29,19.57-2.95c2.67-0.35,4.85,0.79,4.85,2.92c0,20.13,0.04,63.76,0.04,77.56c0,8.69-5.51,3.56-9.9-0.64" style="fill:none;stroke:#999;stroke-width:3" />
<path d="M830.24,25.22c6.63-0.84,17.38-1.84,22.15-2.24" style="fill:none;stroke:#999;stroke-width:3" />
<path d="M830.05,36.76c6.2-0.51,15.45-1.51,22.55-2.06" style="fill:none;stroke:black;stroke-width:3" />
<circle cx="830.05" cy="36.76" r="5" stroke-width="0" fill="#FF2A00" opacity="0.7" />
<path d="M890.39,15.04c1.22,1.22,1.93,3.12,1.93,4.92c0,0.89,0.01,50,0.01,70.67c0,3.77,0,6.6,0,8.01" style="fill:none;stroke:#999;stroke-width:3" />
<path d="M892.52,16.91c6.35-1.16,14.8-2.87,19.12-3.56c2.64-0.42,4.88-0.16,4.75,3.02c-0.13,2.95-0.88,15.16-1.28,21.75c-0.14,2.41-0.24,4.08-0.24,4.26" style="fill:none;stroke:#999;stroke-width:3" />
<path d="M893.2,29.49c6.8-1.24,14.3-2.24,21.38-2.83" style="fill:none;stroke:#999;stroke-width:3" />
<path d="M893.27,42.06c8.11-1.29,13.14-1.76,20.31-2.36" style="fill:none;stroke:#999;stroke-width:3" />
<path d="M936.36,12.26c1,1,1.54,2.24,1.54,3.65c0,0.68-0.06,12.96-0.08,19.84c-0.01,1.89-0.01,3.38-0.01,4.1" style="fill:none;stroke:#999;stroke-width:3" />
<path d="M938.55,14.16c5.82-1.03,14.49-2.29,19.57-2.95c2.67-0.35,4.85,0.79,4.85,2.92c0,20.13,0.04,63.76,0.04,77.56c0,8.69-5.51,3.56-9.9-0.64" style="fill:none;stroke:#999;stroke-width:3" />
<path d="M939.24,25.22c6.63-0.84,17.38-1.84,22.15-2.24" style="fill:none;stroke:#999;stroke-width:3" />
<path d="M939.05,36.76c6.2-0.51,15.45-1.51,22.55-2.06" style="fill:none;stroke:#999;stroke-width:3" />
<path d="M908.25,57.11c0.88,0.64,1.62,1.76,1.87,2.92c0.92,4.35,1.84,11.03,2.61,17.07c0.15,1.17,0.29,2.31,0.43,3.41" style="fill:none;stroke:black;stroke-width:3" />
<circle cx="908.25" cy="57.11" r="5" stroke-width="0" fill="#FF2A00" opacity="0.7" />
<path d="M999.39,15.04c1.22,1.22,1.93,3.12,1.93,4.92c0,0.89,0.01,50,0.01,70.67c0,3.77,0,6.6,0,8.01" style="fill:none;stroke:#999;stroke-width:3" />
<path d="M1001.52,16.91c6.35-1.16,14.8-2.87,19.12-3.56c2.64-0.42,4.88-0.16,4.75,3.02c-0.13,2.95-0.88,15.16-1.28,21.75c-0.14,2.41-0.24,4.08-0.24,4.26" style="fill:none;stroke:#999;stroke-width:3" />
<path d="M1002.2,29.49c6.8-1.24,14.3-2.24,21.38-2.83" style="fill:none;stroke:#999;stroke-width:3" />
<path d="M1002.27,42.06c8.11-1.29,13.14-1.76,20.31-2.36" style="fill:none;stroke:#999;stroke-width:3" />
<path d="M1045.3600000000001,12.26c1,1,1.54,2.24,1.54,3.65c0,0.68-0.06,12.96-0.08,19.84c-0.01,1.89-0.01,3.38-0.01,4.1" style="fill:none;stroke:#999;stroke-width:3" />
<path d="M1047.55,14.16c5.82-1.03,14.49-2.29,19.57-2.95c2.67-0.35,4.85,0.79,4.85,2.92c0,20.13,0.04,63.76,0.04,77.56c0,8.69-5.51,3.56-9.9-0.64" style="fill:none;stroke:#999;stroke-width:3" />
<path d="M1048.24,25.22c6.63-0.84,17.38-1.84,22.15-2.24" style="fill:none;stroke:#999;stroke-width:3" />
<path d="M1048.05,36.76c6.2-0.51,15.45-1.51,22.55-2.06" style="fill:none;stroke:#999;stroke-width:3" />
<path d="M1017.25,57.11c0.88,0.64,1.62,1.76,1.87,2.92c0.92,4.35,1.84,11.03,2.61,17.07c0.15,1.17,0.29,2.31,0.43,3.41" style="fill:none;stroke:#999;stroke-width:3" />
<path d="M1019.71,59.66c9.11-1.03,21.45-2.32,27.33-2.98c3.34-0.37,4.76,0.9,4.01,4.37c-0.9,4.17-1.73,8.1-3.59,14.23" style="fill:none;stroke:black;stroke-width:3" />
<circle cx="1019.71" cy="59.66" r="5" stroke-width="0" fill="#FF2A00" opacity="0.7" />
<path d="M1108.3899999999999,15.04c1.22,1.22,1.93,3.12,1.93,4.92c0,0.89,0.01,50,0.01,70.67c0,3.77,0,6.6,0,8.01" style="fill:none;stroke:#999;stroke-width:3" />
<path d="M1110.52,16.91c6.35-1.16,14.8-2.87,19.12-3.56c2.64-0.42,4.88-0.16,4.75,3.02c-0.13,2.95-0.88,15.16-1.28,21.75c-0.14,2.41-0.24,4.08-0.24,4.26" style="fill:none;stroke:#999;stroke-width:3" />
<path d="M1111.2,29.49c6.8-1.24,14.3-2.24,21.38-2.83" style="fill:none;stroke:#999;stroke-width:3" />
<path d="M1111.27,42.06c8.11-1.29,13.14-1.76,20.31-2.36" style="fill:none;stroke:#999;stroke-width:3" />
<path d="M1154.3600000000001,12.26c1,1,1.54,2.24,1.54,3.65c0,0.68-0.06,12.96-0.08,19.84c-0.01,1.89-0.01,3.38-0.01,4.1" style="fill:none;stroke:#999;stroke-width:3" />
<path d="M1156.55,14.16c5.82-1.03,14.49-2.29,19.57-2.95c2.67-0.35,4.85,0.79,4.85,2.92c0,20.13,0.04,63.76,0.04,77.56c0,8.69-5.51,3.56-9.9-0.64" style="fill:none;stroke:#999;stroke-width:3" />
<path d="M1157.24,25.22c6.63-0.84,17.38-1.84,22.15-2.24" style="fill:none;stroke:#999;stroke-width:3" />
<path d="M1157.05,36.76c6.2-0.51,15.45-1.51,22.55-2.06" style="fill:none;stroke:#999;stroke-width:3" />
<path d="M1126.25,57.11c0.88,0.64,1.62,1.76,1.87,2.92c0.92,4.35,1.84,11.03,2.61,17.07c0.15,1.17,0.29,2.31,0.43,3.41" style="fill:none;stroke:#999;stroke-width:3" />
<path d="M1128.71,59.66c9.11-1.03,21.45-2.32,27.33-2.98c3.34-0.37,4.76,0.9,4.01,4.37c-0.9,4.17-1.73,8.1-3.59,14.23" style="fill:none;stroke:#999;stroke-width:3" />
<path d="M1132.01,78.52c4.47-0.52,15.74-1.45,23.11-2.08c1.29-0.11,2.46-0.22,3.46-0.31" style="fill:none;stroke:black;stroke-width:3" />
<circle cx="1132.01" cy="78.52" r="5" stroke-width="0" fill="#FF2A00" opacity="0.7" />
</svg>