<!-- 05553 -->
<svg width="1199px" height="109px" viewBox="0 0 1199px 109px" xmlns="http://www.w3.org/2000/svg" xmlns:xlink="http://www.w3.org/1999/xlink" xml:space="preserve" version="1.1"  baseProfile="full">
<line x1="1" y1="1" x2="1198" y2="1" style="stroke:#ddd;stroke-width:2" />
<line x1="1" y1="1" x2="1" y2="108" style="stroke:#ddd;stroke-width:2" />
<line x1="1" y1="108" x2="1198" y2="108" style="stroke:#ddd;stroke-width:2" />
<line x1="1198" y1="1" x2="1198" y2="108" style="stroke:#ddd;stroke-width:2" />
<line x1="109" y1="1" x2="109" y2="108" style="stroke:#ddd;stroke-width:2" />
<line x1="218" y1="1" x2="218" y2="108" style="stroke:#ddd;stroke-width:2" />
<line x1="327" y1="1" x2="327" y2="108" style="stroke:#ddd;stroke-width:2" />
<line x1="436" y1="1" x2="436" y2="108" style="stroke:#ddd;stroke-width:2" />
<line x1="545" y1="1" x2="545" y2="108" style="stroke:#ddd;stroke-width:2" />
<line x1="654" y1="1" x2="654" y2="108" style="stroke:#ddd;stroke-width:2" />
<line x1="763" y1="1" x2="763" y2="108" style="stroke:#ddd;stroke-width:2" />
<line x1="872" y1="1" x2="872" y2="108" style="stroke:#ddd;stroke-width:2" />
<line x1="981" y1="1" x2="981" y2="108" style="stroke:#ddd;stroke-width:2" />
<line x1="1090" y1="1" x2="1090" y2="108" style="stroke:#ddd;stroke-width:2" />
<line x1="1" y1="54" x2="1198" y2="54" style="stroke:#ddd;stroke-width:2;stroke-dasharray:3 3" />
<line x1="55" y1="1" x2="55" y2="108" style="stroke:#ddd;stroke-width:2;stroke-dasharray:3 3" />
<line x1="164" y1="1" x2="164" y2="108" style="stroke:#ddd;stroke-width:2;stroke-dasharray:3 3" />
<line x1="273" y1="1" x2="273" y2="108" style="stroke:#ddd;stroke-width:2;stroke-dasharray:3 3" />
<line x1="382" y1="1" x2="382" y2="108" style="stroke:#ddd;stroke-width:2;stroke-dasharray:3 3" />
<line x1="491" y1="1" x2="491" y2="108" style="stroke:#ddd;stroke-width:2;stroke-dasharray:3 3" />
<line x1="600" y1="1" x2="600" y2="108" style="stroke:#ddd;stroke-width:2;stroke-dasharray:3 3" />
<line x1="709" y1="1" x2="709" y2="108" style="stroke:#ddd;stroke-width:2;stroke-dasharray:3 3" />
<line x1="818" y1="1" x2="818" y2="108" style="stroke:#ddd;stroke-width:2;stroke-dasharray:3 3" />
<line x1="927" y1="1" x2="927" y2="108" style="stroke:#ddd;stroke-width:2;stroke-dasharray:3 3" />
<line x1="1036" y1="1" x2="1036" y2="108" style="stroke:#ddd;stroke-width:2;stroke-dasharray:3 3" />
<line x1="1145" y1="1" x2="1145" y2="108" style="stroke:#ddd;stroke-width:2;stroke-dasharray:3 3" />
<path d="M16.67,20.56c1.39,0.55,3.78,0.39,5.21,0.22c5.32-0.63,13.87-1.9,20.62-2.52c1.72-0.16,3.55-0.27,5.25,0.13" style="fill:none;stroke:black;stroke-width:3" />
<circle cx="16.67" cy="20.56" r="5" stroke-width="0" fill="#FF2A00" opacity="0.7" />
<path d="M125.67,20.56c1.39,0.55,3.78,0.39,5.21,0.22c5.32-0.63,13.87-1.9,20.62-2.52c1.72-0.16,3.55-0.27,5.25,0.13" style="fill:none;stroke:#999;stroke-width:3" />
<path d="M129.07,33.61c1.18,0.26,2.53,0.35,3.75,0.19c5.05-0.62,13.85-2.17,18.44-2.85c2.13-0.32,4.22-0.08,3.59,2.82c-0.71,3.32-1.61,6.97-3.41,12.62" style="fill:none;stroke:black;stroke-width:3" />
<circle cx="129.07" cy="33.61" r="5" stroke-width="0" fill="#FF2A00" opacity="0.7" />
<path d="M234.67000000000002,20.56c1.39,0.55,3.78,0.39,5.21,0.22c5.32-0.63,13.87-1.9,20.62-2.52c1.72-0.16,3.55-0.27,5.25,0.13" style="fill:none;stroke:#999;stroke-width:3" />
<path d="M238.07,33.61c1.18,0.26,2.53,0.35,3.75,0.19c5.05-0.62,13.85-2.17,18.44-2.85c2.13-0.32,4.22-0.08,3.59,2.82c-0.71,3.32-1.61,6.97-3.41,12.62" style="fill:none;stroke:#999;stroke-width:3" />
<path d="M241.0,49.56c4.5-0.56,10.2-1.14,16.72-1.98c1.72-0.22,3.36-0.43,4.83-0.58" style="fill:none;stroke:black;stroke-width:3" />
<circle cx="241.0" cy="49.56" r="5" stroke-width="0" fill="#FF2A00" opacity="0.7" />
<path d="M343.67,20.56c1.39,0.55,3.78,0.39,5.21,0.22c5.32-0.63,13.87-1.9,20.62-2.52c1.72-0.16,3.55-0.27,5.25,0.13" style="fill:none;stroke:#999;stroke-width:3" />
<path d="M347.07,33.61c1.18,0.26,2.53,0.35,3.75,0.19c5.05-0.62,13.85-2.17,18.44-2.85c2.13-0.32,4.22-0.08,3.59,2.82c-0.71,3.32-1.61,6.97-3.41,12.62" style="fill:none;stroke:#999;stroke-width:3" />
<path d="M350.0,49.56c4.5-0.56,10.2-1.14,16.72-1.98c1.72-0.22,3.36-0.43,4.83-0.58" style="fill:none;stroke:#999;stroke-width:3" />
<path d="M348.21,34.51c0.77,0.77,0.9,1.69,0.92,3.03C349.25,50.12 349.5,61 338.62,71.75" style="fill:none;stroke:black;stroke-width:3" />
<circle cx="348.21" cy="34.51" r="5" stroke-width="0" fill="#FF2A00" opacity="0.7" />
<path d="M452.67,20.56c1.39,0.55,3.78,0.39,5.21,0.22c5.32-0.63,13.87-1.9,20.62-2.52c1.72-0.16,3.55-0.27,5.25,0.13" style="fill:none;stroke:#999;stroke-width:3" />
<path d="M456.07,33.61c1.18,0.26,2.53,0.35,3.75,0.19c5.05-0.62,13.85-2.17,18.44-2.85c2.13-0.32,4.22-0.08,3.59,2.82c-0.71,3.32-1.61,6.97-3.41,12.62" style="fill:none;stroke:#999;stroke-width:3" />
<path d="M459.0,49.56c4.5-0.56,10.2-1.14,16.72-1.98c1.72-0.22,3.36-0.43,4.83-0.58" style="fill:none;stroke:#999;stroke-width:3" />
<path d="M457.21,34.51c0.77,0.77,0.9,1.69,0.92,3.03C458.25,50.12 458.5,61 447.62,71.75" style="fill:none;stroke:#999;stroke-width:3" />
<path d="M498.52,12.39c0.23,0.86,0.15,1.96-0.06,2.73c-1.59,6-3.96,12-10.3,20.1" style="fill:none;stroke:black;stroke-width:3" />
<circle cx="498.52" cy="12.39" r="5" stroke-width="0" fill="#FF2A00" opacity="0.7" />
<path d="M561.6700000000001,20.56c1.39,0.55,3.78,0.39,5.21,0.22c5.32-0.63,13.87-1.9,20.62-2.52c1.72-0.16,3.55-0.27,5.25,0.13" style="fill:none;stroke:#999;stroke-width:3" />
<path d="M565.0699999999999,33.61c1.18,0.26,2.53,0.35,3.75,0.19c5.05-0.62,13.85-2.17,18.44-2.85c2.13-0.32,4.22-0.08,3.59,2.82c-0.71,3.32-1.61,6.97-3.41,12.62" style="fill:none;stroke:#999;stroke-width:3" />
<path d="M568.0,49.56c4.5-0.56,10.2-1.14,16.72-1.98c1.72-0.22,3.36-0.43,4.83-0.58" style="fill:none;stroke:#999;stroke-width:3" />
<path d="M566.21,34.51c0.77,0.77,0.9,1.69,0.92,3.03C567.25,50.12 567.5,61 556.62,71.75" style="fill:none;stroke:#999;stroke-width:3" />
<path d="M607.52,12.39c0.23,0.86,0.15,1.96-0.06,2.73c-1.59,6-3.96,12-10.3,20.1" style="fill:none;stroke:#999;stroke-width:3" />
<path d="M607.82,24.22c1.5,0.22,2.94,0.1,4.44-0.1c5.01-0.67,12.19-2.29,17.36-3.48c1.41-0.33,3.55-0.53,4.99-0.04" style="fill:none;stroke:black;stroke-width:3" />
<circle cx="607.82" cy="24.22" r="5" stroke-width="0" fill="#FF2A00" opacity="0.7" />
<path d="M670.6700000000001,20.56c1.39,0.55,3.78,0.39,5.21,0.22c5.32-0.63,13.87-1.9,20.62-2.52c1.72-0.16,3.55-0.27,5.25,0.13" style="fill:none;stroke:#999;stroke-width:3" />
<path d="M674.0699999999999,33.61c1.18,0.26,2.53,0.35,3.75,0.19c5.05-0.62,13.85-2.17,18.44-2.85c2.13-0.32,4.22-0.08,3.59,2.82c-0.71,3.32-1.61,6.97-3.41,12.62" style="fill:none;stroke:#999;stroke-width:3" />
<path d="M677.0,49.56c4.5-0.56,10.2-1.14,16.72-1.98c1.72-0.22,3.36-0.43,4.83-0.58" style="fill:none;stroke:#999;stroke-width:3" />
<path d="M675.21,34.51c0.77,0.77,0.9,1.69,0.92,3.03C676.25,50.12 676.5,61 665.62,71.75" style="fill:none;stroke:#999;stroke-width:3" />
<path d="M716.52,12.39c0.23,0.86,0.15,1.96-0.06,2.73c-1.59,6-3.96,12-10.3,20.1" style="fill:none;stroke:#999;stroke-width:3" />
<path d="M716.82,24.22c1.5,0.22,2.94,0.1,4.44-0.1c5.01-0.67,12.19-2.29,17.36-3.48c1.41-0.33,3.55-0.53,4.99-0.04" style="fill:none;stroke:#999;stroke-width:3" />
<path d="M729.47,28.72c0.45,0.76,0.48,1.82-0.03,3.2C725.38,43 716.88,53.62 701.09,59.25" style="fill:none;stroke:black;stroke-width:3" />
<circle cx="729.47" cy="28.72" r="5" stroke-width="0" fill="#FF2A00" opacity="0.7" />
<path d="M779.6700000000001,20.56c1.39,0.55,3.78,0.39,5.21,0.22c5.32-0.63,13.87-1.9,20.62-2.52c1.72-0.16,3.55-0.27,5.25,0.13" style="fill:none;stroke:#999;stroke-width:3" />
<path d="M783.0699999999999,33.61c1.18,0.26,2.53,0.35,3.75,0.19c5.05-0.62,13.85-2.17,18.44-2.85c2.13-0.32,4.22-0.08,3.59,2.82c-0.71,3.32-1.61,6.97-3.41,12.62" style="fill:none;stroke:#999;stroke-width:3" />
<path d="M786.0,49.56c4.5-0.56,10.2-1.14,16.72-1.98c1.72-0.22,3.36-0.43,4.83-0.58" style="fill:none;stroke:#999;stroke-width:3" />
<path d="M784.21,34.51c0.77,0.77,0.9,1.69,0.92,3.03C785.25,50.12 785.5,61 774.62,71.75" style="fill:none;stroke:#999;stroke-width:3" />
<path d="M825.52,12.39c0.23,0.86,0.15,1.96-0.06,2.73c-1.59,6-3.96,12-10.3,20.1" style="fill:none;stroke:#999;stroke-width:3" />
<path d="M825.82,24.22c1.5,0.22,2.94,0.1,4.44-0.1c5.01-0.67,12.19-2.29,17.36-3.48c1.41-0.33,3.55-0.53,4.99-0.04" style="fill:none;stroke:#999;stroke-width:3" />
<path d="M838.47,28.72c0.45,0.76,0.48,1.82-0.03,3.2C834.38,43 825.88,53.62 810.09,59.25" style="fill:none;stroke:#999;stroke-width:3" />
<path d="M821.86,37.92c4.64,0.43,18.32,12.71,28.28,19.14c2.36,1.52,5.49,3.06,8.13,3.96" style="fill:none;stroke:black;stroke-width:3" />
<circle cx="821.86" cy="37.92" r="5" stroke-width="0" fill="#FF2A00" opacity="0.7" />
<path d="M888.6700000000001,20.56c1.39,0.55,3.78,0.39,5.21,0.22c5.32-0.63,13.87-1.9,20.62-2.52c1.72-0.16,3.55-0.27,5.25,0.13" style="fill:none;stroke:#999;stroke-width:3" />
<path d="M892.0699999999999,33.61c1.18,0.26,2.53,0.35,3.75,0.19c5.05-0.62,13.85-2.17,18.44-2.85c2.13-0.32,4.22-0.08,3.59,2.82c-0.71,3.32-1.61,6.97-3.41,12.62" style="fill:none;stroke:#999;stroke-width:3" />
<path d="M895.0,49.56c4.5-0.56,10.2-1.14,16.72-1.98c1.72-0.22,3.36-0.43,4.83-0.58" style="fill:none;stroke:#999;stroke-width:3" />
<path d="M893.21,34.51c0.77,0.77,0.9,1.69,0.92,3.03C894.25,50.12 894.5,61 883.62,71.75" style="fill:none;stroke:#999;stroke-width:3" />
<path d="M934.52,12.39c0.23,0.86,0.15,1.96-0.06,2.73c-1.59,6-3.96,12-10.3,20.1" style="fill:none;stroke:#999;stroke-width:3" />
<path d="M934.82,24.22c1.5,0.22,2.94,0.1,4.44-0.1c5.01-0.67,12.19-2.29,17.36-3.48c1.41-0.33,3.55-0.53,4.99-0.04" style="fill:none;stroke:#999;stroke-width:3" />
<path d="M947.47,28.72c0.45,0.76,0.48,1.82-0.03,3.2C943.38,43 934.88,53.62 919.09,59.25" style="fill:none;stroke:#999;stroke-width:3" />
<path d="M930.86,37.92c4.64,0.43,18.32,12.71,28.28,19.14c2.36,1.52,5.49,3.06,8.13,3.96" style="fill:none;stroke:#999;stroke-width:3" />
<path d="M905.75,70.44c0.97,1.05,1.28,2.02,1.64,3.39c1.17,4.49,2.62,12.3,3.64,19.13c0.29,1.94,0.55,3.81,0.76,5.5" style="fill:none;stroke:black;stroke-width:3" />
<circle cx="905.75" cy="70.44" r="5" stroke-width="0" fill="#FF2A00" opacity="0.7" />
<path d="M997.6700000000001,20.56c1.39,0.55,3.78,0.39,5.21,0.22c5.32-0.63,13.87-1.9,20.62-2.52c1.72-0.16,3.55-0.27,5.25,0.13" style="fill:none;stroke:#999;stroke-width:3" />
<path d="M1001.0699999999999,33.61c1.18,0.26,2.53,0.35,3.75,0.19c5.05-0.62,13.85-2.17,18.44-2.85c2.13-0.32,4.22-0.08,3.59,2.82c-0.71,3.32-1.61,6.97-3.41,12.62" style="fill:none;stroke:#999;stroke-width:3" />
<path d="M1004.0,49.56c4.5-0.56,10.2-1.14,16.72-1.98c1.72-0.22,3.36-0.43,4.83-0.58" style="fill:none;stroke:#999;stroke-width:3" />
<path d="M1002.21,34.51c0.77,0.77,0.9,1.69,0.92,3.03C1003.25,50.12 1003.5,61 992.62,71.75" style="fill:none;stroke:#999;stroke-width:3" />
<path d="M1043.52,12.39c0.23,0.86,0.15,1.96-0.06,2.73c-1.59,6-3.96,12-10.3,20.1" style="fill:none;stroke:#999;stroke-width:3" />
<path d="M1043.8200000000002,24.22c1.5,0.22,2.94,0.1,4.44-0.1c5.01-0.67,12.19-2.29,17.36-3.48c1.41-0.33,3.55-0.53,4.99-0.04" style="fill:none;stroke:#999;stroke-width:3" />
<path d="M1056.47,28.72c0.45,0.76,0.48,1.82-0.03,3.2C1052.38,43 1043.88,53.62 1028.0900000000001,59.25" style="fill:none;stroke:#999;stroke-width:3" />
<path d="M1039.8600000000001,37.92c4.64,0.43,18.32,12.71,28.28,19.14c2.36,1.52,5.49,3.06,8.13,3.96" style="fill:none;stroke:#999;stroke-width:3" />
<path d="M1014.75,70.44c0.97,1.05,1.28,2.02,1.64,3.39c1.17,4.49,2.62,12.3,3.64,19.13c0.29,1.94,0.55,3.81,0.76,5.5" style="fill:none;stroke:#999;stroke-width:3" />
<path d="M1017.02,71.58c10.73-1.3,27.67-3.39,35.13-4.3c3.44-0.42,5.76,0.45,4.95,4.39c-1.16,5.61-2.29,11.32-4.72,19.41" style="fill:none;stroke:black;stroke-width:3" />
<circle cx="1017.02" cy="71.58" r="5" stroke-width="0" fill="#FF2A00" opacity="0.7" />
<path d="M1106.67,20.56c1.39,0.55,3.78,0.39,5.21,0.22c5.32-0.63,13.87-1.9,20.62-2.52c1.72-0.16,3.55-0.27,5.25,0.13" style="fill:none;stroke:#999;stroke-width:3" />
<path d="M1110.07,33.61c1.18,0.26,2.53,0.35,3.75,0.19c5.05-0.62,13.85-2.17,18.44-2.85c2.13-0.32,4.22-0.08,3.59,2.82c-0.71,3.32-1.61,6.97-3.41,12.62" style="fill:none;stroke:#999;stroke-width:3" />
<path d="M1113.0,49.56c4.5-0.56,10.2-1.14,16.72-1.98c1.72-0.22,3.36-0.43,4.83-0.58" style="fill:none;stroke:#999;stroke-width:3" />
<path d="M1111.21,34.51c0.77,0.77,0.9,1.69,0.92,3.03C1112.25,50.12 1112.5,61 1101.62,71.75" style="fill:none;stroke:#999;stroke-width:3" />
<path d="M1152.52,12.39c0.23,0.86,0.15,1.96-0.06,2.73c-1.59,6-3.96,12-10.3,20.1" style="fill:none;stroke:#999;stroke-width:3" />
<path d="M1152.8200000000002,24.22c1.5,0.22,2.94,0.1,4.44-0.1c5.01-0.67,12.19-2.29,17.36-3.48c1.41-0.33,3.55-0.53,4.99-0.04" style="fill:none;stroke:#999;stroke-width:3" />
<path d="M1165.47,28.72c0.45,0.76,0.48,1.82-0.03,3.2C1161.38,43 1152.88,53.62 1137.0900000000001,59.25" style="fill:none;stroke:#999;stroke-width:3" />
<path d="M1148.8600000000001,37.92c4.64,0.43,18.32,12.71,28.28,19.14c2.36,1.52,5.49,3.06,8.13,3.96" style="fill:none;stroke:#999;stroke-width:3" />
<path d="M1123.75,70.44c0.97,1.05,1.28,2.02,1.64,3.39c1.17,4.49,2.62,12.3,3.64,19.13c0.29,1.94,0.55,3.81,0.76,5.5" style="fill:none;stroke:#999;stroke-width:3" />
<path d="M1126.02,71.58c10.73-1.3,27.67-3.39,35.13-4.3c3.44-0.42,5.76,0.45,4.95,4.39c-1.16,5.61-2.29,11.32-4.72,19.41" style="fill:none;stroke:#999;stroke-width:3" />
<path d="M1130.73,94.8c5.35-0.62,17.57-1.51,26.76-2.42c2.15-0.21,4.1-0.4,5.69-0.55" style="fill:none;stroke:black;stroke-width:3" />
<circle cx="1130.73" cy="94.8" r="5" stroke-width="0" fill="#FF2A00" opacity="0.7" />
</svg>