<!-- 055a8 -->
<svg width="1308px" height="109px" viewBox="0 0 1308px 109px" xmlns="http://www.w3.org/2000/svg" xmlns:xlink="http://www.w3.org/1999/xlink" xml:space="preserve" version="1.1"  baseProfile="full">
<line x1="1" y1="1" x2="1307" y2="1" style="stroke:#ddd;stroke-width:2" />
<line x1="1" y1="1" x2="1" y2="108" style="stroke:#ddd;stroke-width:2" />
<line x1="1" y1="108" x2="1307" y2="108" style="stroke:#ddd;stroke-width:2" />
<line x1="1307" y1="1" x2="1307" y2="108" style="stroke:#ddd;stroke-width:2" />
<line x1="109" y1="1" x2="109" y2="108" style="stroke:#ddd;stroke-width:2" />
<line x1="218" y1="1" x2="218" y2="108" style="stroke:#ddd;stroke-width:2" />
<line x1="327" y1="1" x2="327" y2="108" style="stroke:#ddd;stroke-width:2" />
<line x1="436" y1="1" x2="436" y2="108" style="stroke:#ddd;stroke-width:2" />
<line x1="545" y1="1" x2="545" y2="108" style="stroke:#ddd;stroke-width:2" />
<line x1="654" y1="1" x2="654" y2="108" style="stroke:#ddd;stroke-width:2" />
<line x1="763" y1="1" x2="763" y2="108" style="stroke:#ddd;stroke-width:2" />
<line x1="872" y1="1" x2="872" y2="108" style="stroke:#ddd;stroke-width:2" />
<line x1="981" y1="1" x2="981" y2="108" style="stroke:#ddd;stroke-width:2" />
<line x1="1090" y1="1" x2="1090" y2="108" style="stroke:#ddd;stroke-width:2" />
<line x1="1199" y1="1" x2="1199" y2="108" style="stroke:#ddd;stroke-width:2" />
<line x1="1" y1="54" x2="1307" y2="54" style="stroke:#ddd;stroke-width:2;stroke-dasharray:3 3" />
<line x1="55" y1="1" x2="55" y2="108" style="stroke:#ddd;stroke-width:2;stroke-dasharray:3 3" />
<line x1="164" y1="1" x2="164" y2="108" style="stroke:#ddd;stroke-width:2;stroke-dasharray:3 3" />
<line x1="273" y1="1" x2="273" y2="108" style="stroke:#ddd;stroke-width:2;stroke-dasharray:3 3" />
<line x1="382" y1="1" x2="382" y2="108" style="stroke:#ddd;stroke-width:2;stroke-dasharray:3 3" />
<line x1="491" y1="1" x2="491" y2="108" style="stroke:#ddd;stroke-width:2;stroke-dasharray:3 3" />
<line x1="600" y1="1" x2="600" y2="108" style="stroke:#ddd;stroke-width:2;stroke-dasharray:3 3" />
<line x1="709" y1="1" x2="709" y2="108" style="stroke:#ddd;stroke-width:2;stroke-dasharray:3 3" />
<line x1="818" y1="1" x2="818" y2="108" style="stroke:#ddd;stroke-width:2;stroke-dasharray:3 3" />
<line x1="927" y1="1" x2="927" y2="108" style="stroke:#ddd;stroke-width:2;stroke-dasharray:3 3" />
<line x1="1036" y1="1" x2="1036" y2="108" style="stroke:#ddd;stroke-width:2;stroke-dasharray:3 3" />
<line x1="1145" y1="1" x2="1145" y2="108" style="stroke:#ddd;stroke-width:2;stroke-dasharray:3 3" />
<line x1="1254" y1="1" x2="1254" y2="108" style="stroke:#ddd;stroke-width:2;stroke-dasharray:3 3" />
<path d="M9.75,34.56c0.35,0.45,0.72,0.82,0.87,1.38c1.23,4.42,3.7,18.12,4.54,26.06" style="fill:none;stroke:black;stroke-width:3" />
<circle cx="9.75" cy="34.56" r="5" stroke-width="0" fill="#FF2A00" opacity="0.7" />
<path d="M118.75,34.56c0.35,0.45,0.72,0.82,0.87,1.38c1.23,4.42,3.7,18.12,4.54,26.06" style="fill:none;stroke:#999;stroke-width:3" />
<path d="M120.96000000000001,36.68c8.94-1.94,15.27-3.11,19.41-3.69c1.52-0.21,2.43,1.26,2.21,2.51c-0.9,5.17-2.45,12.65-3.78,19.8" style="fill:none;stroke:black;stroke-width:3" />
<circle cx="120.96000000000001" cy="36.68" r="5" stroke-width="0" fill="#FF2A00" opacity="0.7" />
<path d="M227.75,34.56c0.35,0.45,0.72,0.82,0.87,1.38c1.23,4.42,3.7,18.12,4.54,26.06" style="fill:none;stroke:#999;stroke-width:3" />
<path d="M229.96,36.68c8.94-1.94,15.27-3.11,19.41-3.69c1.52-0.21,2.43,1.26,2.21,2.51c-0.9,5.17-2.45,12.65-3.78,19.8" style="fill:none;stroke:#999;stroke-width:3" />
<path d="M232.82,58.36c4.87-0.66,10.75-1.42,17.43-2.43" style="fill:none;stroke:black;stroke-width:3" />
<circle cx="232.82" cy="58.36" r="5" stroke-width="0" fill="#FF2A00" opacity="0.7" />
<path d="M336.75,34.56c0.35,0.45,0.72,0.82,0.87,1.38c1.23,4.42,3.7,18.12,4.54,26.06" style="fill:none;stroke:#999;stroke-width:3" />
<path d="M338.96000000000004,36.68c8.94-1.94,15.27-3.11,19.41-3.69c1.52-0.21,2.43,1.26,2.21,2.51c-0.9,5.17-2.45,12.65-3.78,19.8" style="fill:none;stroke:#999;stroke-width:3" />
<path d="M341.82,58.36c4.87-0.66,10.75-1.42,17.43-2.43" style="fill:none;stroke:#999;stroke-width:3" />
<path d="M390.78,10.5c0.74,0.45,1.95,2.17,1.95,3.05c0,3.27-0.23,6.38-0.1,9.14" style="fill:none;stroke:black;stroke-width:3" />
<circle cx="390.78" cy="10.5" r="5" stroke-width="0" fill="#FF2A00" opacity="0.7" />
<path d="M445.75,34.56c0.35,0.45,0.72,0.82,0.87,1.38c1.23,4.42,3.7,18.12,4.54,26.06" style="fill:none;stroke:#999;stroke-width:3" />
<path d="M447.96000000000004,36.68c8.94-1.94,15.27-3.11,19.41-3.69c1.52-0.21,2.43,1.26,2.21,2.51c-0.9,5.17-2.45,12.65-3.78,19.8" style="fill:none;stroke:#999;stroke-width:3" />
<path d="M450.82,58.36c4.87-0.66,10.75-1.42,17.43-2.43" style="fill:none;stroke:#999;stroke-width:3" />
<path d="M499.78,10.5c0.74,0.45,1.95,2.17,1.95,3.05c0,3.27-0.23,6.38-0.1,9.14" style="fill:none;stroke:#999;stroke-width:3" />
<path d="M476.3,25.03c1.31,0.29,2.47,0.61,3.97,0.4c8.97-1.21,34.51-3.96,44.96-4.55c1.54-0.09,2.32,0.03,3.47,0.51" style="fill:none;stroke:black;stroke-width:3" />
<circle cx="476.3" cy="25.03" r="5" stroke-width="0" fill="#FF2A00" opacity="0.7" />
<path d="M554.75,34.56c0.35,0.45,0.72,0.82,0.87,1.38c1.23,4.42,3.7,18.12,4.54,26.06" style="fill:none;stroke:#999;stroke-width:3" />
<path d="M556.96,36.68c8.94-1.94,15.27-3.11,19.41-3.69c1.52-0.21,2.43,1.26,2.21,2.51c-0.9,5.17-2.45,12.65-3.78,19.8" style="fill:none;stroke:#999;stroke-width:3" />
<path d="M559.8199999999999,58.36c4.87-0.66,10.75-1.42,17.43-2.43" style="fill:none;stroke:#999;stroke-width:3" />
<path d="M608.78,10.5c0.74,0.45,1.95,2.17,1.95,3.05c0,3.27-0.23,6.38-0.1,9.14" style="fill:none;stroke:#999;stroke-width:3" />
<path d="M585.3,25.03c1.31,0.29,2.47,0.61,3.97,0.4c8.97-1.21,34.51-3.96,44.96-4.55c1.54-0.09,2.32,0.03,3.47,0.51" style="fill:none;stroke:#999;stroke-width:3" />
<path d="M595.17,32.48c0.26,0.26,0.53,0.47,0.64,0.8c0.9,2.56,1.99,8.1,2.61,12.69" style="fill:none;stroke:black;stroke-width:3" />
<circle cx="595.17" cy="32.48" r="5" stroke-width="0" fill="#FF2A00" opacity="0.7" />
<path d="M663.75,34.56c0.35,0.45,0.72,0.82,0.87,1.38c1.23,4.42,3.7,18.12,4.54,26.06" style="fill:none;stroke:#999;stroke-width:3" />
<path d="M665.96,36.68c8.94-1.94,15.27-3.11,19.41-3.69c1.52-0.21,2.43,1.26,2.21,2.51c-0.9,5.17-2.45,12.65-3.78,19.8" style="fill:none;stroke:#999;stroke-width:3" />
<path d="M668.8199999999999,58.36c4.87-0.66,10.75-1.42,17.43-2.43" style="fill:none;stroke:#999;stroke-width:3" />
<path d="M717.78,10.5c0.74,0.45,1.95,2.17,1.95,3.05c0,3.27-0.23,6.38-0.1,9.14" style="fill:none;stroke:#999;stroke-width:3" />
<path d="M694.3,25.03c1.31,0.29,2.47,0.61,3.97,0.4c8.97-1.21,34.51-3.96,44.96-4.55c1.54-0.09,2.32,0.03,3.47,0.51" style="fill:none;stroke:#999;stroke-width:3" />
<path d="M704.17,32.48c0.26,0.26,0.53,0.47,0.64,0.8c0.9,2.56,1.99,8.1,2.61,12.69" style="fill:none;stroke:#999;stroke-width:3" />
<path d="M705.79,33.85c6.39-1.07,25.11-3.48,28.41-3.84c1.21-0.13,1.93,1.33,1.76,2.11c-0.71,3.22-1.53,4.49-3.06,9.13" style="fill:none;stroke:black;stroke-width:3" />
<circle cx="705.79" cy="33.85" r="5" stroke-width="0" fill="#FF2A00" opacity="0.7" />
<path d="M772.75,34.56c0.35,0.45,0.72,0.82,0.87,1.38c1.23,4.42,3.7,18.12,4.54,26.06" style="fill:none;stroke:#999;stroke-width:3" />
<path d="M774.96,36.68c8.94-1.94,15.27-3.11,19.41-3.69c1.52-0.21,2.43,1.26,2.21,2.51c-0.9,5.17-2.45,12.65-3.78,19.8" style="fill:none;stroke:#999;stroke-width:3" />
<path d="M777.8199999999999,58.36c4.87-0.66,10.75-1.42,17.43-2.43" style="fill:none;stroke:#999;stroke-width:3" />
<path d="M826.78,10.5c0.74,0.45,1.95,2.17,1.95,3.05c0,3.27-0.23,6.38-0.1,9.14" style="fill:none;stroke:#999;stroke-width:3" />
<path d="M803.3,25.03c1.31,0.29,2.47,0.61,3.97,0.4c8.97-1.21,34.51-3.96,44.96-4.55c1.54-0.09,2.32,0.03,3.47,0.51" style="fill:none;stroke:#999;stroke-width:3" />
<path d="M813.17,32.48c0.26,0.26,0.53,0.47,0.64,0.8c0.9,2.56,1.99,8.1,2.61,12.69" style="fill:none;stroke:#999;stroke-width:3" />
<path d="M814.79,33.85c6.39-1.07,25.11-3.48,28.41-3.84c1.21-0.13,1.93,1.33,1.76,2.11c-0.71,3.22-1.53,4.49-3.06,9.13" style="fill:none;stroke:#999;stroke-width:3" />
<path d="M816.68,44.27c3.87-0.41,21.51-2.21,26.42-2.62" style="fill:none;stroke:black;stroke-width:3" />
<circle cx="816.68" cy="44.27" r="5" stroke-width="0" fill="#FF2A00" opacity="0.7" />
<path d="M881.75,34.56c0.35,0.45,0.72,0.82,0.87,1.38c1.23,4.42,3.7,18.12,4.54,26.06" style="fill:none;stroke:#999;stroke-width:3" />
<path d="M883.96,36.68c8.94-1.94,15.27-3.11,19.41-3.69c1.52-0.21,2.43,1.26,2.21,2.51c-0.9,5.17-2.45,12.65-3.78,19.8" style="fill:none;stroke:#999;stroke-width:3" />
<path d="M886.8199999999999,58.36c4.87-0.66,10.75-1.42,17.43-2.43" style="fill:none;stroke:#999;stroke-width:3" />
<path d="M935.78,10.5c0.74,0.45,1.95,2.17,1.95,3.05c0,3.27-0.23,6.38-0.1,9.14" style="fill:none;stroke:#999;stroke-width:3" />
<path d="M912.3,25.03c1.31,0.29,2.47,0.61,3.97,0.4c8.97-1.21,34.51-3.96,44.96-4.55c1.54-0.09,2.32,0.03,3.47,0.51" style="fill:none;stroke:#999;stroke-width:3" />
<path d="M922.17,32.48c0.26,0.26,0.53,0.47,0.64,0.8c0.9,2.56,1.99,8.1,2.61,12.69" style="fill:none;stroke:#999;stroke-width:3" />
<path d="M923.79,33.85c6.39-1.07,25.11-3.48,28.41-3.84c1.21-0.13,1.93,1.33,1.76,2.11c-0.71,3.22-1.53,4.49-3.06,9.13" style="fill:none;stroke:#999;stroke-width:3" />
<path d="M925.68,44.27c3.87-0.41,21.51-2.21,26.42-2.62" style="fill:none;stroke:#999;stroke-width:3" />
<path d="M913.83,50.74c-0.13,3.79-3.23,13.7-4.33,15.96" style="fill:none;stroke:black;stroke-width:3" />
<circle cx="913.83" cy="50.74" r="5" stroke-width="0" fill="#FF2A00" opacity="0.7" />
<path d="M990.75,34.56c0.35,0.45,0.72,0.82,0.87,1.38c1.23,4.42,3.7,18.12,4.54,26.06" style="fill:none;stroke:#999;stroke-width:3" />
<path d="M992.96,36.68c8.94-1.94,15.27-3.11,19.41-3.69c1.52-0.21,2.43,1.26,2.21,2.51c-0.9,5.17-2.45,12.65-3.78,19.8" style="fill:none;stroke:#999;stroke-width:3" />
<path d="M995.8199999999999,58.36c4.87-0.66,10.75-1.42,17.43-2.43" style="fill:none;stroke:#999;stroke-width:3" />
<path d="M1044.78,10.5c0.74,0.45,1.95,2.17,1.95,3.05c0,3.27-0.23,6.38-0.1,9.14" style="fill:none;stroke:#999;stroke-width:3" />
<path d="M1021.3,25.03c1.31,0.29,2.47,0.61,3.97,0.4c8.97-1.21,34.51-3.96,44.96-4.55c1.54-0.09,2.32,0.03,3.47,0.51" style="fill:none;stroke:#999;stroke-width:3" />
<path d="M1031.17,32.48c0.26,0.26,0.53,0.47,0.64,0.8c0.9,2.56,1.99,8.1,2.61,12.69" style="fill:none;stroke:#999;stroke-width:3" />
<path d="M1032.79,33.85c6.39-1.07,25.11-3.48,28.41-3.84c1.21-0.13,1.93,1.33,1.76,2.11c-0.71,3.22-1.53,4.49-3.06,9.13" style="fill:none;stroke:#999;stroke-width:3" />
<path d="M1034.6799999999998,44.27c3.87-0.41,21.51-2.21,26.42-2.62" style="fill:none;stroke:#999;stroke-width:3" />
<path d="M1022.83,50.74c-0.13,3.79-3.23,13.7-4.33,15.96" style="fill:none;stroke:#999;stroke-width:3" />
<path d="M1023.08,53.85c9.67-0.6,33.83-3.31,48.83-3.31c10.21,0,3.22,4.99-0.59,8.24" style="fill:none;stroke:black;stroke-width:3" />
<circle cx="1023.08" cy="53.85" r="5" stroke-width="0" fill="#FF2A00" opacity="0.7" />
<path d="M1099.75,34.56c0.35,0.45,0.72,0.82,0.87,1.38c1.23,4.42,3.7,18.12,4.54,26.06" style="fill:none;stroke:#999;stroke-width:3" />
<path d="M1101.96,36.68c8.94-1.94,15.27-3.11,19.41-3.69c1.52-0.21,2.43,1.26,2.21,2.51c-0.9,5.17-2.45,12.65-3.78,19.8" style="fill:none;stroke:#999;stroke-width:3" />
<path d="M1104.82,58.36c4.87-0.66,10.75-1.42,17.43-2.43" style="fill:none;stroke:#999;stroke-width:3" />
<path d="M1153.78,10.5c0.74,0.45,1.95,2.17,1.95,3.05c0,3.27-0.23,6.38-0.1,9.14" style="fill:none;stroke:#999;stroke-width:3" />
<path d="M1130.3,25.03c1.31,0.29,2.47,0.61,3.97,0.4c8.97-1.21,34.51-3.96,44.96-4.55c1.54-0.09,2.32,0.03,3.47,0.51" style="fill:none;stroke:#999;stroke-width:3" />
<path d="M1140.17,32.48c0.26,0.26,0.53,0.47,0.64,0.8c0.9,2.56,1.99,8.1,2.61,12.69" style="fill:none;stroke:#999;stroke-width:3" />
<path d="M1141.79,33.85c6.39-1.07,25.11-3.48,28.41-3.84c1.21-0.13,1.93,1.33,1.76,2.11c-0.71,3.22-1.53,4.49-3.06,9.13" style="fill:none;stroke:#999;stroke-width:3" />
<path d="M1143.6799999999998,44.27c3.87-0.41,21.51-2.21,26.42-2.62" style="fill:none;stroke:#999;stroke-width:3" />
<path d="M1131.83,50.74c-0.13,3.79-3.23,13.7-4.33,15.96" style="fill:none;stroke:#999;stroke-width:3" />
<path d="M1132.08,53.85c9.67-0.6,33.83-3.31,48.83-3.31c10.21,0,3.22,4.99-0.59,8.24" style="fill:none;stroke:#999;stroke-width:3" />
<path d="M1145.3,61.5c0.2,1,0.41,2.27,0.38,3.56c-0.18,9.19-4.18,28.44-22.05,34.1" style="fill:none;stroke:black;stroke-width:3" />
<circle cx="1145.3" cy="61.5" r="5" stroke-width="0" fill="#FF2A00" opacity="0.7" />
<path d="M1208.75,34.56c0.35,0.45,0.72,0.82,0.87,1.38c1.23,4.42,3.7,18.12,4.54,26.06" style="fill:none;stroke:#999;stroke-width:3" />
<path d="M1210.96,36.68c8.94-1.94,15.27-3.11,19.41-3.69c1.52-0.21,2.43,1.26,2.21,2.51c-0.9,5.17-2.45,12.65-3.78,19.8" style="fill:none;stroke:#999;stroke-width:3" />
<path d="M1213.82,58.36c4.87-0.66,10.75-1.42,17.43-2.43" style="fill:none;stroke:#999;stroke-width:3" />
<path d="M1262.78,10.5c0.74,0.45,1.95,2.17,1.95,3.05c0,3.27-0.23,6.38-0.1,9.14" style="fill:none;stroke:#999;stroke-width:3" />
<path d="M1239.3,25.03c1.31,0.29,2.47,0.61,3.97,0.4c8.97-1.21,34.51-3.96,44.96-4.55c1.54-0.09,2.32,0.03,3.47,0.51" style="fill:none;stroke:#999;stroke-width:3" />
<path d="M1249.17,32.48c0.26,0.26,0.53,0.47,0.64,0.8c0.9,2.56,1.99,8.1,2.61,12.69" style="fill:none;stroke:#999;stroke-width:3" />
<path d="M1250.79,33.85c6.39-1.07,25.11-3.48,28.41-3.84c1.21-0.13,1.93,1.33,1.76,2.11c-0.71,3.22-1.53,4.49-3.06,9.13" style="fill:none;stroke:#999;stroke-width:3" />
<path d="M1252.6799999999998,44.27c3.87-0.41,21.51-2.21,26.42-2.62" style="fill:none;stroke:#999;stroke-width:3" />
<path d="M1240.83,50.74c-0.13,3.79-3.23,13.7-4.33,15.96" style="fill:none;stroke:#999;stroke-width:3" />
<path d="M1241.08,53.85c9.67-0.6,33.83-3.31,48.83-3.31c10.21,0,3.22,4.99-0.59,8.24" style="fill:none;stroke:#999;stroke-width:3" />
<path d="M1254.3,61.5c0.2,1,0.41,2.27,0.38,3.56c-0.18,9.19-4.18,28.44-22.05,34.1" style="fill:none;stroke:#999;stroke-width:3" />
<path d="M1270.79,59.37c0.61,1.13,1.1,2.45,1.13,4.19c0.16,7.75,0,14.78,0,20.05c0,13.39,0.33,14.42,11.89,14.42c10.44,0,11.76-3.28,11.76-12.14" style="fill:none;stroke:black;stroke-width:3" />
<circle cx="1270.79" cy="59.37" r="5" stroke-width="0" fill="#FF2A00" opacity="0.7" />
</svg>