<!-- 056da -->
<svg width="545px" height="109px" viewBox="0 0 545px 109px" xmlns="http://www.w3.org/2000/svg" xmlns:xlink="http://www.w3.org/1999/xlink" xml:space="preserve" version="1.1"  baseProfile="full">
<line x1="1" y1="1" x2="544" y2="1" style="stroke:#ddd;stroke-width:2" />
<line x1="1" y1="1" x2="1" y2="108" style="stroke:#ddd;stroke-width:2" />
<line x1="1" y1="108" x2="544" y2="108" style="stroke:#ddd;stroke-width:2" />
<line x1="544" y1="1" x2="544" y2="108" style="stroke:#ddd;stroke-width:2" />
<line x1="109" y1="1" x2="109" y2="108" style="stroke:#ddd;stroke-width:2" />
<line x1="218" y1="1" x2="218" y2="108" style="stroke:#ddd;stroke-width:2" />
<line x1="327" y1="1" x2="327" y2="108" style="stroke:#ddd;stroke-width:2" />
<line x1="436" y1="1" x2="436" y2="108" style="stroke:#ddd;stroke-width:2" />
<line x1="1" y1="54" x2="544" y2="54" style="stroke:#ddd;stroke-width:2;stroke-dasharray:3 3" />
<line x1="55" y1="1" x2="55" y2="108" style="stroke:#ddd;stroke-width:2;stroke-dasharray:3 3" />
<line x1="164" y1="1" x2="164" y2="108" style="stroke:#ddd;stroke-width:2;stroke-dasharray:3 3" />
<line x1="273" y1="1" x2="273" y2="108" style="stroke:#ddd;stroke-width:2;stroke-dasharray:3 3" />
<line x1="382" y1="1" x2="382" y2="108" style="stroke:#ddd;stroke-width:2;stroke-dasharray:3 3" />
<line x1="491" y1="1" x2="491" y2="108" style="stroke:#ddd;stroke-width:2;stroke-dasharray:3 3" />
<path d="M19.25,18.07c1.03,1.03,1.36,2.26,1.36,4.16c0,12.63-0.14,46.59-0.17,66.77c-0.01,3.24-0.01,6.12-0.01,8.5" style="fill:none;stroke:black;stroke-width:3" />
<circle cx="19.25" cy="18.07" r="5" stroke-width="0" fill="#FF2A00" opacity="0.7" />
<path d="M128.25,18.07c1.03,1.03,1.36,2.26,1.36,4.16c0,12.63-0.14,46.59-0.17,66.77c-0.01,3.24-0.01,6.12-0.01,8.5" style="fill:none;stroke:#999;stroke-width:3" />
<path d="M130.73,20.15c19.4-1.52,49.52-3.9,63.27-4.65c2.75-0.15,4.5,0.88,4.5,4.5c0,11.21,0.08,50.57,0.1,68.62c0.01,4.05,0.01,7.02,0.01,8.38" style="fill:none;stroke:black;stroke-width:3" />
<circle cx="130.73" cy="20.15" r="5" stroke-width="0" fill="#FF2A00" opacity="0.7" />
<path d="M237.25,18.07c1.03,1.03,1.36,2.26,1.36,4.16c0,12.63-0.14,46.59-0.17,66.77c-0.01,3.24-0.01,6.12-0.01,8.5" style="fill:none;stroke:#999;stroke-width:3" />
<path d="M239.73,20.15c19.4-1.52,49.52-3.9,63.27-4.65c2.75-0.15,4.5,0.88,4.5,4.5c0,11.21,0.08,50.57,0.1,68.62c0.01,4.05,0.01,7.02,0.01,8.38" style="fill:none;stroke:#999;stroke-width:3" />
<path d="M272.08,26c0.55,1.5,0.9,3.7,0.61,5.61C270.96,42.92 264.0,71 247.82999999999998,82.68" style="fill:none;stroke:black;stroke-width:3" />
<circle cx="272.08" cy="26.0" r="5" stroke-width="0" fill="#FF2A00" opacity="0.7" />
<path d="M346.25,18.07c1.03,1.03,1.36,2.26,1.36,4.16c0,12.63-0.14,46.59-0.17,66.77c-0.01,3.24-0.01,6.12-0.01,8.5" style="fill:none;stroke:#999;stroke-width:3" />
<path d="M348.73,20.15c19.4-1.52,49.52-3.9,63.27-4.65c2.75-0.15,4.5,0.88,4.5,4.5c0,11.21,0.08,50.57,0.1,68.62c0.01,4.05,0.01,7.02,0.01,8.38" style="fill:none;stroke:#999;stroke-width:3" />
<path d="M381.08,26c0.55,1.5,0.9,3.7,0.61,5.61C379.96,42.92 373.0,71 356.83,82.68" style="fill:none;stroke:#999;stroke-width:3" />
<path d="M379.36,47.24c5.02,6.63,13.14,17.01,19.81,24.72c2.19,2.54,3.96,4.29,6.75,6.29" style="fill:none;stroke:black;stroke-width:3" />
<circle cx="379.36" cy="47.24" r="5" stroke-width="0" fill="#FF2A00" opacity="0.7" />
<path d="M455.25,18.07c1.03,1.03,1.36,2.26,1.36,4.16c0,12.63-0.14,46.59-0.17,66.77c-0.01,3.24-0.01,6.12-0.01,8.5" style="fill:none;stroke:#999;stroke-width:3" />
<path d="M457.73,20.15c19.4-1.52,49.52-3.9,63.27-4.65c2.75-0.15,4.5,0.88,4.5,4.5c0,11.21,0.08,50.57,0.1,68.62c0.01,4.05,0.01,7.02,0.01,8.38" style="fill:none;stroke:#999;stroke-width:3" />
<path d="M490.08,26c0.55,1.5,0.9,3.7,0.61,5.61C488.96,42.92 482.0,71 465.83,82.68" style="fill:none;stroke:#999;stroke-width:3" />
<path d="M488.36,47.24c5.02,6.63,13.14,17.01,19.81,24.72c2.19,2.54,3.96,4.29,6.75,6.29" style="fill:none;stroke:#999;stroke-width:3" />
<path d="M457.5,93.51c16.25-0.51,48.71-2.6,66.75-3.01" style="fill:none;stroke:black;stroke-width:3" />
<circle cx="457.5" cy="93.51" r="5" stroke-width="0" fill="#FF2A00" opacity="0.7" />
</svg>