<!-- 056fd -->
<svg width="872px" height="109px" viewBox="0 0 872px 109px" xmlns="http://www.w3.org/2000/svg" xmlns:xlink="http://www.w3.org/1999/xlink" xml:space="preserve" version="1.1"  baseProfile="full">
<line x1="1" y1="1" x2="871" y2="1" style="stroke:#ddd;stroke-width:2" />
<line x1="1" y1="1" x2="1" y2="108" style="stroke:#ddd;stroke-width:2" />
<line x1="1" y1="108" x2="871" y2="108" style="stroke:#ddd;stroke-width:2" />
<line x1="871" y1="1" x2="871" y2="108" style="stroke:#ddd;stroke-width:2" />
<line x1="109" y1="1" x2="109" y2="108" style="stroke:#ddd;stroke-width:2" />
<line x1="218" y1="1" x2="218" y2="108" style="stroke:#ddd;stroke-width:2" />
<line x1="327" y1="1" x2="327" y2="108" style="stroke:#ddd;stroke-width:2" />
<line x1="436" y1="1" x2="436" y2="108" style="stroke:#ddd;stroke-width:2" />
<line x1="545" y1="1" x2="545" y2="108" style="stroke:#ddd;stroke-width:2" />
<line x1="654" y1="1" x2="654" y2="108" style="stroke:#ddd;stroke-width:2" />
<line x1="763" y1="1" x2="763" y2="108" style="stroke:#ddd;stroke-width:2" />
<line x1="1" y1="54" x2="871" y2="54" style="stroke:#ddd;stroke-width:2;stroke-dasharray:3 3" />
<line x1="55" y1="1" x2="55" y2="108" style="stroke:#ddd;stroke-width:2;stroke-dasharray:3 3" />
<line x1="164" y1="1" x2="164" y2="108" style="stroke:#ddd;stroke-width:2;stroke-dasharray:3 3" />
<line x1="273" y1="1" x2="273" y2="108" style="stroke:#ddd;stroke-width:2;stroke-dasharray:3 3" />
<line x1="382" y1="1" x2="382" y2="108" style="stroke:#ddd;stroke-width:2;stroke-dasharray:3 3" />
<line x1="491" y1="1" x2="491" y2="108" style="stroke:#ddd;stroke-width:2;stroke-dasharray:3 3" />
<line x1="600" y1="1" x2="600" y2="108" style="stroke:#ddd;stroke-width:2;stroke-dasharray:3 3" />
<line x1="709" y1="1" x2="709" y2="108" style="stroke:#ddd;stroke-width:2;stroke-dasharray:3 3" />
<line x1="818" y1="1" x2="818" y2="108" style="stroke:#ddd;stroke-width:2;stroke-dasharray:3 3" />
<path d="M19.0,16.82c1.09,1.09,1.61,2.51,1.61,4.41c0,14.65-0.22,44.9-0.22,71.53c0,1.95-0.06,3.86-0.09,5.75" style="fill:none;stroke:black;stroke-width:3" />
<circle cx="19.0" cy="16.82" r="5" stroke-width="0" fill="#FF2A00" opacity="0.7" />
<path d="M128.0,16.82c1.09,1.09,1.61,2.51,1.61,4.41c0,14.65-0.22,44.9-0.22,71.53c0,1.95-0.06,3.86-0.09,5.75" style="fill:none;stroke:#999;stroke-width:3" />
<path d="M130.52,18.67C150.38,16.75 183.03,13.5 194.0,13.5c3.38,0,5,1.85,5,5.25c0,15.36-0.04,47.89-0.08,70.62c0,1.68,0,3.31,0,4.88" style="fill:none;stroke:black;stroke-width:3" />
<circle cx="130.52" cy="18.67" r="5" stroke-width="0" fill="#FF2A00" opacity="0.7" />
<path d="M237.0,16.82c1.09,1.09,1.61,2.51,1.61,4.41c0,14.65-0.22,44.9-0.22,71.53c0,1.95-0.06,3.86-0.09,5.75" style="fill:none;stroke:#999;stroke-width:3" />
<path d="M239.52,18.67C259.38,16.75 292.03,13.5 303.0,13.5c3.38,0,5,1.85,5,5.25c0,15.36-0.04,47.89-0.08,70.62c0,1.68,0,3.31,0,4.88" style="fill:none;stroke:#999;stroke-width:3" />
<path d="M253.12,33.88c1.32,0.28,4.2,0.44,5.51,0.28c10.47-1.29,20.62-2.54,28.62-3.13c2.02-0.15,3.88-0.19,5.56,0.04" style="fill:none;stroke:black;stroke-width:3" />
<circle cx="253.12" cy="33.88" r="5" stroke-width="0" fill="#FF2A00" opacity="0.7" />
<path d="M346.0,16.82c1.09,1.09,1.61,2.51,1.61,4.41c0,14.65-0.22,44.9-0.22,71.53c0,1.95-0.06,3.86-0.09,5.75" style="fill:none;stroke:#999;stroke-width:3" />
<path d="M348.52,18.67C368.38,16.75 401.03,13.5 412.0,13.5c3.38,0,5,1.85,5,5.25c0,15.36-0.04,47.89-0.08,70.62c0,1.68,0,3.31,0,4.88" style="fill:none;stroke:#999;stroke-width:3" />
<path d="M362.12,33.88c1.32,0.28,4.2,0.44,5.51,0.28c10.47-1.29,20.62-2.54,28.62-3.13c2.02-0.15,3.88-0.19,5.56,0.04" style="fill:none;stroke:#999;stroke-width:3" />
<path d="M379.8,34.89c0.96,0.97,1.47,2.48,1.47,3.81c0,3.99-0.13,24.74-0.09,33.55" style="fill:none;stroke:black;stroke-width:3" />
<circle cx="379.8" cy="34.89" r="5" stroke-width="0" fill="#FF2A00" opacity="0.7" />
<path d="M455.0,16.82c1.09,1.09,1.61,2.51,1.61,4.41c0,14.65-0.22,44.9-0.22,71.53c0,1.95-0.06,3.86-0.09,5.75" style="fill:none;stroke:#999;stroke-width:3" />
<path d="M457.52,18.67C477.38,16.75 510.03,13.5 521.0,13.5c3.38,0,5,1.85,5,5.25c0,15.36-0.04,47.89-0.08,70.62c0,1.68,0,3.31,0,4.88" style="fill:none;stroke:#999;stroke-width:3" />
<path d="M471.12,33.88c1.32,0.28,4.2,0.44,5.51,0.28c10.47-1.29,20.62-2.54,28.62-3.13c2.02-0.15,3.88-0.19,5.56,0.04" style="fill:none;stroke:#999;stroke-width:3" />
<path d="M488.8,34.89c0.96,0.97,1.47,2.48,1.47,3.81c0,3.99-0.13,24.74-0.09,33.55" style="fill:none;stroke:#999;stroke-width:3" />
<path d="M473.58,52.16c1.79,0.22,3.41,0.14,5.36-0.08c7.56-0.83,17.56-1.99,25.38-2.8c1.25-0.13,4.02-0.15,5.89,0.17" style="fill:none;stroke:black;stroke-width:3" />
<circle cx="473.58" cy="52.16" r="5" stroke-width="0" fill="#FF2A00" opacity="0.7" />
<path d="M564.0,16.82c1.09,1.09,1.61,2.51,1.61,4.41c0,14.65-0.22,44.9-0.22,71.53c0,1.95-0.06,3.86-0.09,5.75" style="fill:none;stroke:#999;stroke-width:3" />
<path d="M566.52,18.67C586.38,16.75 619.03,13.5 630.0,13.5c3.38,0,5,1.85,5,5.25c0,15.36-0.04,47.89-0.08,70.62c0,1.68,0,3.31,0,4.88" style="fill:none;stroke:#999;stroke-width:3" />
<path d="M580.12,33.88c1.32,0.28,4.2,0.44,5.51,0.28c10.47-1.29,20.62-2.54,28.62-3.13c2.02-0.15,3.88-0.19,5.56,0.04" style="fill:none;stroke:#999;stroke-width:3" />
<path d="M597.8,34.89c0.96,0.97,1.47,2.48,1.47,3.81c0,3.99-0.13,24.74-0.09,33.55" style="fill:none;stroke:#999;stroke-width:3" />
<path d="M582.5799999999999,52.16c1.79,0.22,3.41,0.14,5.36-0.08c7.56-0.83,17.56-1.99,25.38-2.8c1.25-0.13,4.02-0.15,5.89,0.17" style="fill:none;stroke:#999;stroke-width:3" />
<path d="M576.08,75.14c1.54,0.36,3.85,0.28,5.19,0.16c9.98-0.92,25.85-2.67,37.03-3.54c2.15-0.17,5.04-0.18,6.12,0.13" style="fill:none;stroke:black;stroke-width:3" />
<circle cx="576.08" cy="75.14" r="5" stroke-width="0" fill="#FF2A00" opacity="0.7" />
<path d="M673.0,16.82c1.09,1.09,1.61,2.51,1.61,4.41c0,14.65-0.22,44.9-0.22,71.53c0,1.95-0.06,3.86-0.09,5.75" style="fill:none;stroke:#999;stroke-width:3" />
<path d="M675.52,18.67C695.38,16.75 728.03,13.5 739.0,13.5c3.38,0,5,1.85,5,5.25c0,15.36-0.04,47.89-0.08,70.62c0,1.68,0,3.31,0,4.88" style="fill:none;stroke:#999;stroke-width:3" />
<path d="M689.12,33.88c1.32,0.28,4.2,0.44,5.51,0.28c10.47-1.29,20.62-2.54,28.62-3.13c2.02-0.15,3.88-0.19,5.56,0.04" style="fill:none;stroke:#999;stroke-width:3" />
<path d="M706.8,34.89c0.96,0.97,1.47,2.48,1.47,3.81c0,3.99-0.13,24.74-0.09,33.55" style="fill:none;stroke:#999;stroke-width:3" />
<path d="M691.5799999999999,52.16c1.79,0.22,3.41,0.14,5.36-0.08c7.56-0.83,17.56-1.99,25.38-2.8c1.25-0.13,4.02-0.15,5.89,0.17" style="fill:none;stroke:#999;stroke-width:3" />
<path d="M685.08,75.14c1.54,0.36,3.85,0.28,5.19,0.16c9.98-0.92,25.85-2.67,37.03-3.54c2.15-0.17,5.04-0.18,6.12,0.13" style="fill:none;stroke:#999;stroke-width:3" />
<path d="M721.75,56.62c3,1.75,6.12,5.12,8,8.38" style="fill:none;stroke:black;stroke-width:3" />
<circle cx="721.75" cy="56.62" r="5" stroke-width="0" fill="#FF2A00" opacity="0.7" />
<path d="M782.0,16.82c1.09,1.09,1.61,2.51,1.61,4.41c0,14.65-0.22,44.9-0.22,71.53c0,1.95-0.06,3.86-0.09,5.75" style="fill:none;stroke:#999;stroke-width:3" />
<path d="M784.52,18.67C804.38,16.75 837.03,13.5 848.0,13.5c3.38,0,5,1.85,5,5.25c0,15.36-0.04,47.89-0.08,70.62c0,1.68,0,3.31,0,4.88" style="fill:none;stroke:#999;stroke-width:3" />
<path d="M798.12,33.88c1.32,0.28,4.2,0.44,5.51,0.28c10.47-1.29,20.62-2.54,28.62-3.13c2.02-0.15,3.88-0.19,5.56,0.04" style="fill:none;stroke:#999;stroke-width:3" />
<path d="M815.8,34.89c0.96,0.97,1.47,2.48,1.47,3.81c0,3.99-0.13,24.74-0.09,33.55" style="fill:none;stroke:#999;stroke-width:3" />
<path d="M800.5799999999999,52.16c1.79,0.22,3.41,0.14,5.36-0.08c7.56-0.83,17.56-1.99,25.38-2.8c1.25-0.13,4.02-0.15,5.89,0.17" style="fill:none;stroke:#999;stroke-width:3" />
<path d="M794.08,75.14c1.54,0.36,3.85,0.28,5.19,0.16c9.98-0.92,25.85-2.67,37.03-3.54c2.15-0.17,5.04-0.18,6.12,0.13" style="fill:none;stroke:#999;stroke-width:3" />
<path d="M830.75,56.62c3,1.75,6.12,5.12,8,8.38" style="fill:none;stroke:#999;stroke-width:3" />
<path d="M784.5,93.01c14.25-0.51,48.38-1.89,67-2.51" style="fill:none;stroke:black;stroke-width:3" />
<circle cx="784.5" cy="93.01" r="5" stroke-width="0" fill="#FF2A00" opacity="0.7" />
</svg>