<!-- 05726 -->
<svg width="545px" height="109px" viewBox="0 0 545px 109px" xmlns="http://www.w3.org/2000/svg" xmlns:xlink="http://www.w3.org/1999/xlink" xml:space="preserve" version="1.1"  baseProfile="full">
<line x1="1" y1="1" x2="544" y2="1" style="stroke:#ddd;stroke-width:2" />
<line x1="1" y1="1" x2="1" y2="108" style="stroke:#ddd;stroke-width:2" />
<line x1="1" y1="108" x2="544" y2="108" style="stroke:#ddd;stroke-width:2" />
<line x1="544" y1="1" x2="544" y2="108" style="stroke:#ddd;stroke-width:2" />
<line x1="109" y1="1" x2="109" y2="108" style="stroke:#ddd;stroke-width:2" />
<line x1="218" y1="1" x2="218" y2="108" style="stroke:#ddd;stroke-width:2" />
<line x1="327" y1="1" x2="327" y2="108" style="stroke:#ddd;stroke-width:2" />
<line x1="436" y1="1" x2="436" y2="108" style="stroke:#ddd;stroke-width:2" />
<line x1="1" y1="54" x2="544" y2="54" style="stroke:#ddd;stroke-width:2;stroke-dasharray:3 3" />
<line x1="55" y1="1" x2="55" y2="108" style="stroke:#ddd;stroke-width:2;stroke-dasharray:3 3" />
<line x1="164" y1="1" x2="164" y2="108" style="stroke:#ddd;stroke-width:2;stroke-dasharray:3 3" />
<line x1="273" y1="1" x2="273" y2="108" style="stroke:#ddd;stroke-width:2;stroke-dasharray:3 3" />
<line x1="382" y1="1" x2="382" y2="108" style="stroke:#ddd;stroke-width:2;stroke-dasharray:3 3" />
<line x1="491" y1="1" x2="491" y2="108" style="stroke:#ddd;stroke-width:2;stroke-dasharray:3 3" />
<path d="M11.5,47.64c0.79,0.38,2.36,0.46,3.15,0.36c5.06-0.66,19.06-3.39,24.68-4c1.32-0.14,2.75-0.18,3.41,0.01" style="fill:none;stroke:black;stroke-width:3" />
<circle cx="11.5" cy="47.64" r="5" stroke-width="0" fill="#FF2A00" opacity="0.7" />
<path d="M120.5,47.64c0.79,0.38,2.36,0.46,3.15,0.36c5.06-0.66,19.06-3.39,24.68-4c1.32-0.14,2.75-0.18,3.41,0.01" style="fill:none;stroke:#999;stroke-width:3" />
<path d="M134.37,22c1.09,0.5,1.96,2.23,1.96,3.25c0,7.25,0.03,38.75,0.03,49.5" style="fill:none;stroke:black;stroke-width:3" />
<circle cx="134.37" cy="22.0" r="5" stroke-width="0" fill="#FF2A00" opacity="0.7" />
<path d="M229.5,47.64c0.79,0.38,2.36,0.46,3.15,0.36c5.06-0.66,19.06-3.39,24.68-4c1.32-0.14,2.75-0.18,3.41,0.01" style="fill:none;stroke:#999;stroke-width:3" />
<path d="M243.37,22c1.09,0.5,1.96,2.23,1.96,3.25c0,7.25,0.03,38.75,0.03,49.5" style="fill:none;stroke:#999;stroke-width:3" />
<path d="M229.25,81.05c0.97,1.2,2.9,1.83,5.79,0.26c8.05-4.38,16.41-8.44,24.46-12.81" style="fill:none;stroke:black;stroke-width:3" />
<circle cx="229.25" cy="81.05" r="5" stroke-width="0" fill="#FF2A00" opacity="0.7" />
<path d="M338.5,47.64c0.79,0.38,2.36,0.46,3.15,0.36c5.06-0.66,19.06-3.39,24.68-4c1.32-0.14,2.75-0.18,3.41,0.01" style="fill:none;stroke:#999;stroke-width:3" />
<path d="M352.37,22c1.09,0.5,1.96,2.23,1.96,3.25c0,7.25,0.03,38.75,0.03,49.5" style="fill:none;stroke:#999;stroke-width:3" />
<path d="M338.25,81.05c0.97,1.2,2.9,1.83,5.79,0.26c8.05-4.38,16.41-8.44,24.46-12.81" style="fill:none;stroke:#999;stroke-width:3" />
<path d="M395.21,41.93C389.89,58.36 376.06,81.6 365.0,90.89" style="fill:none;stroke:black;stroke-width:3" />
<circle cx="395.21" cy="41.93" r="5" stroke-width="0" fill="#FF2A00" opacity="0.7" />
<path d="M447.5,47.64c0.79,0.38,2.36,0.46,3.15,0.36c5.06-0.66,19.06-3.39,24.68-4c1.32-0.14,2.75-0.18,3.41,0.01" style="fill:none;stroke:#999;stroke-width:3" />
<path d="M461.37,22c1.09,0.5,1.96,2.23,1.96,3.25c0,7.25,0.03,38.75,0.03,49.5" style="fill:none;stroke:#999;stroke-width:3" />
<path d="M447.25,81.05c0.97,1.2,2.9,1.83,5.79,0.26c8.05-4.38,16.41-8.44,24.46-12.81" style="fill:none;stroke:#999;stroke-width:3" />
<path d="M504.21,41.93C498.89,58.36 485.06,81.6 474.0,90.89" style="fill:none;stroke:#999;stroke-width:3" />
<path d="M495.1,14c1.26,0,3.11,1.47,3.49,3.18C504.5,43.75 511.25,71.5 527.6,88.36c1.49,1.54,3.04,2.83,4.15,3.39" style="fill:none;stroke:black;stroke-width:3" />
<circle cx="495.1" cy="14.0" r="5" stroke-width="0" fill="#FF2A00" opacity="0.7" />
</svg>