<!-- 05742 -->
<svg width="763px" height="109px" viewBox="0 0 763px 109px" xmlns="http://www.w3.org/2000/svg" xmlns:xlink="http://www.w3.org/1999/xlink" xml:space="preserve" version="1.1"  baseProfile="full">
<line x1="1" y1="1" x2="762" y2="1" style="stroke:#ddd;stroke-width:2" />
<line x1="1" y1="1" x2="1" y2="108" style="stroke:#ddd;stroke-width:2" />
<line x1="1" y1="108" x2="762" y2="108" style="stroke:#ddd;stroke-width:2" />
<line x1="762" y1="1" x2="762" y2="108" style="stroke:#ddd;stroke-width:2" />
<line x1="109" y1="1" x2="109" y2="108" style="stroke:#ddd;stroke-width:2" />
<line x1="218" y1="1" x2="218" y2="108" style="stroke:#ddd;stroke-width:2" />
<line x1="327" y1="1" x2="327" y2="108" style="stroke:#ddd;stroke-width:2" />
<line x1="436" y1="1" x2="436" y2="108" style="stroke:#ddd;stroke-width:2" />
<line x1="545" y1="1" x2="545" y2="108" style="stroke:#ddd;stroke-width:2" />
<line x1="654" y1="1" x2="654" y2="108" style="stroke:#ddd;stroke-width:2" />
<line x1="1" y1="54" x2="762" y2="54" style="stroke:#ddd;stroke-width:2;stroke-dasharray:3 3" />
<line x1="55" y1="1" x2="55" y2="108" style="stroke:#ddd;stroke-width:2;stroke-dasharray:3 3" />
<line x1="164" y1="1" x2="164" y2="108" style="stroke:#ddd;stroke-width:2;stroke-dasharray:3 3" />
<line x1="273" y1="1" x2="273" y2="108" style="stroke:#ddd;stroke-width:2;stroke-dasharray:3 3" />
<line x1="382" y1="1" x2="382" y2="108" style="stroke:#ddd;stroke-width:2;stroke-dasharray:3 3" />
<line x1="491" y1="1" x2="491" y2="108" style="stroke:#ddd;stroke-width:2;stroke-dasharray:3 3" />
<line x1="600" y1="1" x2="600" y2="108" style="stroke:#ddd;stroke-width:2;stroke-dasharray:3 3" />
<line x1="709" y1="1" x2="709" y2="108" style="stroke:#ddd;stroke-width:2;stroke-dasharray:3 3" />
<path d="M10.88,40.23c1.5,0.39,3.08,0.53,4.05,0.41c5.33-0.65,15.9-2.52,20.48-3.36c1.62-0.29,2.64-0.17,3.47-0.09" style="fill:none;stroke:black;stroke-width:3" />
<circle cx="10.88" cy="40.23" r="5" stroke-width="0" fill="#FF2A00" opacity="0.7" />
<path d="M119.88,40.23c1.5,0.39,3.08,0.53,4.05,0.41c5.33-0.65,15.9-2.52,20.48-3.36c1.62-0.29,2.64-0.17,3.47-0.09" style="fill:none;stroke:#999;stroke-width:3" />
<path d="M134.62,18.5c0.88,0.88,1.46,2.5,1.46,3.5c0,1.02-0.08,27.75-0.08,43.25" style="fill:none;stroke:black;stroke-width:3" />
<circle cx="134.62" cy="18.5" r="5" stroke-width="0" fill="#FF2A00" opacity="0.7" />
<path d="M228.88,40.23c1.5,0.39,3.08,0.53,4.05,0.41c5.33-0.65,15.9-2.52,20.48-3.36c1.62-0.29,2.64-0.17,3.47-0.09" style="fill:none;stroke:#999;stroke-width:3" />
<path d="M243.62,18.5c0.88,0.88,1.46,2.5,1.46,3.5c0,1.02-0.08,27.75-0.08,43.25" style="fill:none;stroke:#999;stroke-width:3" />
<path d="M229.38,72.97c1.57,0.71,3.14,0.45,4.69-0.37c1.57-0.83,14.25-8.14,20.93-12.1" style="fill:none;stroke:black;stroke-width:3" />
<circle cx="229.38" cy="72.97" r="5" stroke-width="0" fill="#FF2A00" opacity="0.7" />
<path d="M337.88,40.23c1.5,0.39,3.08,0.53,4.05,0.41c5.33-0.65,15.9-2.52,20.48-3.36c1.62-0.29,2.64-0.17,3.47-0.09" style="fill:none;stroke:#999;stroke-width:3" />
<path d="M352.62,18.5c0.88,0.88,1.46,2.5,1.46,3.5c0,1.02-0.08,27.75-0.08,43.25" style="fill:none;stroke:#999;stroke-width:3" />
<path d="M338.38,72.97c1.57,0.71,3.14,0.45,4.69-0.37c1.57-0.83,14.25-8.14,20.93-12.1" style="fill:none;stroke:#999;stroke-width:3" />
<path d="M374.75,23.49c1.79,0.13,2.63,0.31,4.19,0.17c11.37-1.09,27.32-4.14,35.75-4.36c2.6-0.07,0.67-0.04,3.57-0.04" style="fill:none;stroke:black;stroke-width:3" />
<circle cx="374.75" cy="23.49" r="5" stroke-width="0" fill="#FF2A00" opacity="0.7" />
<path d="M446.88,40.23c1.5,0.39,3.08,0.53,4.05,0.41c5.33-0.65,15.9-2.52,20.48-3.36c1.62-0.29,2.64-0.17,3.47-0.09" style="fill:none;stroke:#999;stroke-width:3" />
<path d="M461.62,18.5c0.88,0.88,1.46,2.5,1.46,3.5c0,1.02-0.08,27.75-0.08,43.25" style="fill:none;stroke:#999;stroke-width:3" />
<path d="M447.38,72.97c1.57,0.71,3.14,0.45,4.69-0.37c1.57-0.83,14.25-8.14,20.93-12.1" style="fill:none;stroke:#999;stroke-width:3" />
<path d="M483.75,23.49c1.79,0.13,2.63,0.31,4.19,0.17c11.37-1.09,27.32-4.14,35.75-4.36c2.6-0.07,0.67-0.04,3.57-0.04" style="fill:none;stroke:#999;stroke-width:3" />
<path d="M487.25,24.12c0.5,1,0.9,2.12,0.9,3.87c0,22.05-3.53,45.95-17.9,59.25" style="fill:none;stroke:black;stroke-width:3" />
<circle cx="487.25" cy="24.12" r="5" stroke-width="0" fill="#FF2A00" opacity="0.7" />
<path d="M555.88,40.23c1.5,0.39,3.08,0.53,4.05,0.41c5.33-0.65,15.9-2.52,20.48-3.36c1.62-0.29,2.64-0.17,3.47-0.09" style="fill:none;stroke:#999;stroke-width:3" />
<path d="M570.62,18.5c0.88,0.88,1.46,2.5,1.46,3.5c0,1.02-0.08,27.75-0.08,43.25" style="fill:none;stroke:#999;stroke-width:3" />
<path d="M556.38,72.97c1.57,0.71,3.14,0.45,4.69-0.37c1.57-0.83,14.25-8.14,20.93-12.1" style="fill:none;stroke:#999;stroke-width:3" />
<path d="M592.75,23.49c1.79,0.13,2.63,0.31,4.19,0.17c11.37-1.09,27.32-4.14,35.75-4.36c2.6-0.07,0.67-0.04,3.57-0.04" style="fill:none;stroke:#999;stroke-width:3" />
<path d="M596.25,24.12c0.5,1,0.9,2.12,0.9,3.87c0,22.05-3.53,45.95-17.9,59.25" style="fill:none;stroke:#999;stroke-width:3" />
<path d="M599.09,47c1.3,0.31,2.96,0.28,5.56-0.19c2.6-0.47,17.78-4.25,19.62-4.48C627.0,42 628.5,44.5 627.45,47.25c-7.68,20.2-15.7,35.12-34.97,43.74" style="fill:none;stroke:black;stroke-width:3" />
<circle cx="599.09" cy="47.0" r="5" stroke-width="0" fill="#FF2A00" opacity="0.7" />
<path d="M664.88,40.23c1.5,0.39,3.08,0.53,4.05,0.41c5.33-0.65,15.9-2.52,20.48-3.36c1.62-0.29,2.64-0.17,3.47-0.09" style="fill:none;stroke:#999;stroke-width:3" />
<path d="M679.62,18.5c0.88,0.88,1.46,2.5,1.46,3.5c0,1.02-0.08,27.75-0.08,43.25" style="fill:none;stroke:#999;stroke-width:3" />
<path d="M665.38,72.97c1.57,0.71,3.14,0.45,4.69-0.37c1.57-0.83,14.25-8.14,20.93-12.1" style="fill:none;stroke:#999;stroke-width:3" />
<path d="M701.75,23.49c1.79,0.13,2.63,0.31,4.19,0.17c11.37-1.09,27.32-4.14,35.75-4.36c2.6-0.07,0.67-0.04,3.57-0.04" style="fill:none;stroke:#999;stroke-width:3" />
<path d="M705.25,24.12c0.5,1,0.9,2.12,0.9,3.87c0,22.05-3.53,45.95-17.9,59.25" style="fill:none;stroke:#999;stroke-width:3" />
<path d="M708.09,47c1.3,0.31,2.96,0.28,5.56-0.19c2.6-0.47,17.78-4.25,19.62-4.48C736.0,42 737.5,44.5 736.45,47.25c-7.68,20.2-15.7,35.12-34.97,43.74" style="fill:none;stroke:#999;stroke-width:3" />
<path d="M709.88,56.12c5.5,0.5,19.57,22.76,31.54,32.09c1.86,1.45,3.22,2.42,4.96,2.91" style="fill:none;stroke:black;stroke-width:3" />
<circle cx="709.88" cy="56.12" r="5" stroke-width="0" fill="#FF2A00" opacity="0.7" />
</svg>