<!-- 05761 -->
<svg width="872px" height="109px" viewBox="0 0 872px 109px" xmlns="http://www.w3.org/2000/svg" xmlns:xlink="http://www.w3.org/1999/xlink" xml:space="preserve" version="1.1"  baseProfile="full">
<line x1="1" y1="1" x2="871" y2="1" style="stroke:#ddd;stroke-width:2" />
<line x1="1" y1="1" x2="1" y2="108" style="stroke:#ddd;stroke-width:2" />
<line x1="1" y1="108" x2="871" y2="108" style="stroke:#ddd;stroke-width:2" />
<line x1="871" y1="1" x2="871" y2="108" style="stroke:#ddd;stroke-width:2" />
<line x1="109" y1="1" x2="109" y2="108" style="stroke:#ddd;stroke-width:2" />
<line x1="218" y1="1" x2="218" y2="108" style="stroke:#ddd;stroke-width:2" />
<line x1="327" y1="1" x2="327" y2="108" style="stroke:#ddd;stroke-width:2" />
<line x1="436" y1="1" x2="436" y2="108" style="stroke:#ddd;stroke-width:2" />
<line x1="545" y1="1" x2="545" y2="108" style="stroke:#ddd;stroke-width:2" />
<line x1="654" y1="1" x2="654" y2="108" style="stroke:#ddd;stroke-width:2" />
<line x1="763" y1="1" x2="763" y2="108" style="stroke:#ddd;stroke-width:2" />
<line x1="1" y1="54" x2="871" y2="54" style="stroke:#ddd;stroke-width:2;stroke-dasharray:3 3" />
<line x1="55" y1="1" x2="55" y2="108" style="stroke:#ddd;stroke-width:2;stroke-dasharray:3 3" />
<line x1="164" y1="1" x2="164" y2="108" style="stroke:#ddd;stroke-width:2;stroke-dasharray:3 3" />
<line x1="273" y1="1" x2="273" y2="108" style="stroke:#ddd;stroke-width:2;stroke-dasharray:3 3" />
<line x1="382" y1="1" x2="382" y2="108" style="stroke:#ddd;stroke-width:2;stroke-dasharray:3 3" />
<line x1="491" y1="1" x2="491" y2="108" style="stroke:#ddd;stroke-width:2;stroke-dasharray:3 3" />
<line x1="600" y1="1" x2="600" y2="108" style="stroke:#ddd;stroke-width:2;stroke-dasharray:3 3" />
<line x1="709" y1="1" x2="709" y2="108" style="stroke:#ddd;stroke-width:2;stroke-dasharray:3 3" />
<line x1="818" y1="1" x2="818" y2="108" style="stroke:#ddd;stroke-width:2;stroke-dasharray:3 3" />
<path d="M9.25,44.19c0.78,0.34,2.8,0.4,3.58,0.32c7.42-0.75,16.59-2.98,22.08-3.52c1.29-0.13,2.69-0.16,3.34,0.01" style="fill:none;stroke:black;stroke-width:3" />
<circle cx="9.25" cy="44.19" r="5" stroke-width="0" fill="#FF2A00" opacity="0.7" />
<path d="M118.25,44.19c0.78,0.34,2.8,0.4,3.58,0.32c7.42-0.75,16.59-2.98,22.08-3.52c1.29-0.13,2.69-0.16,3.34,0.01" style="fill:none;stroke:#999;stroke-width:3" />
<path d="M132.37,19c1.09,0.5,1.96,2.23,1.96,3.25c0,7.25,0.03,37.75,0.03,48.5" style="fill:none;stroke:black;stroke-width:3" />
<circle cx="132.37" cy="19.0" r="5" stroke-width="0" fill="#FF2A00" opacity="0.7" />
<path d="M227.25,44.19c0.78,0.34,2.8,0.4,3.58,0.32c7.42-0.75,16.59-2.98,22.08-3.52c1.29-0.13,2.69-0.16,3.34,0.01" style="fill:none;stroke:#999;stroke-width:3" />
<path d="M241.37,19c1.09,0.5,1.96,2.23,1.96,3.25c0,7.25,0.03,37.75,0.03,48.5" style="fill:none;stroke:#999;stroke-width:3" />
<path d="M228.0,79.23c0.73,1.02,2.22,1.62,4.38,0.22C239.25,75 248.25,69.5 255.5,64.25" style="fill:none;stroke:black;stroke-width:3" />
<circle cx="228.0" cy="79.23" r="5" stroke-width="0" fill="#FF2A00" opacity="0.7" />
<path d="M336.25,44.19c0.78,0.34,2.8,0.4,3.58,0.32c7.42-0.75,16.59-2.98,22.08-3.52c1.29-0.13,2.69-0.16,3.34,0.01" style="fill:none;stroke:#999;stroke-width:3" />
<path d="M350.37,19c1.09,0.5,1.96,2.23,1.96,3.25c0,7.25,0.03,37.75,0.03,48.5" style="fill:none;stroke:#999;stroke-width:3" />
<path d="M337.0,79.23c0.73,1.02,2.22,1.62,4.38,0.22C348.25,75 357.25,69.5 364.5,64.25" style="fill:none;stroke:#999;stroke-width:3" />
<path d="M371.9,32.87c0.67,1.09,1.17,2.07,1.16,4.35C372.92,62.88 372.36,82 360.62,90.63" style="fill:none;stroke:black;stroke-width:3" />
<circle cx="371.9" cy="32.87" r="5" stroke-width="0" fill="#FF2A00" opacity="0.7" />
<path d="M445.25,44.19c0.78,0.34,2.8,0.4,3.58,0.32c7.42-0.75,16.59-2.98,22.08-3.52c1.29-0.13,2.69-0.16,3.34,0.01" style="fill:none;stroke:#999;stroke-width:3" />
<path d="M459.37,19c1.09,0.5,1.96,2.23,1.96,3.25c0,7.25,0.03,37.75,0.03,48.5" style="fill:none;stroke:#999;stroke-width:3" />
<path d="M446.0,79.23c0.73,1.02,2.22,1.62,4.38,0.22C457.25,75 466.25,69.5 473.5,64.25" style="fill:none;stroke:#999;stroke-width:3" />
<path d="M480.9,32.87c0.67,1.09,1.17,2.07,1.16,4.35C481.92,62.88 481.36,82 469.62,90.63" style="fill:none;stroke:#999;stroke-width:3" />
<path d="M481.89,35.51c14.61-2.26,33.75-5.34,39.28-5.68c9.75-0.59,2.33,6.41-0.1,8.78" style="fill:none;stroke:black;stroke-width:3" />
<circle cx="481.89" cy="35.51" r="5" stroke-width="0" fill="#FF2A00" opacity="0.7" />
<path d="M554.25,44.19c0.78,0.34,2.8,0.4,3.58,0.32c7.42-0.75,16.59-2.98,22.08-3.52c1.29-0.13,2.69-0.16,3.34,0.01" style="fill:none;stroke:#999;stroke-width:3" />
<path d="M568.37,19c1.09,0.5,1.96,2.23,1.96,3.25c0,7.25,0.03,37.75,0.03,48.5" style="fill:none;stroke:#999;stroke-width:3" />
<path d="M555.0,79.23c0.73,1.02,2.22,1.62,4.38,0.22C566.25,75 575.25,69.5 582.5,64.25" style="fill:none;stroke:#999;stroke-width:3" />
<path d="M589.9,32.87c0.67,1.09,1.17,2.07,1.16,4.35C590.9200000000001,62.88 590.36,82 578.62,90.63" style="fill:none;stroke:#999;stroke-width:3" />
<path d="M590.89,35.51c14.61-2.26,33.75-5.34,39.28-5.68c9.75-0.59,2.33,6.41-0.1,8.78" style="fill:none;stroke:#999;stroke-width:3" />
<path d="M608.98,13.75c1.61,0.5,2.58,2.25,2.9,3.25c0.32,1-0.12,26.5-0.12,36.75" style="fill:none;stroke:black;stroke-width:3" />
<circle cx="608.98" cy="13.75" r="5" stroke-width="0" fill="#FF2A00" opacity="0.7" />
<path d="M663.25,44.19c0.78,0.34,2.8,0.4,3.58,0.32c7.42-0.75,16.59-2.98,22.08-3.52c1.29-0.13,2.69-0.16,3.34,0.01" style="fill:none;stroke:#999;stroke-width:3" />
<path d="M677.37,19c1.09,0.5,1.96,2.23,1.96,3.25c0,7.25,0.03,37.75,0.03,48.5" style="fill:none;stroke:#999;stroke-width:3" />
<path d="M664.0,79.23c0.73,1.02,2.22,1.62,4.38,0.22C675.25,75 684.25,69.5 691.5,64.25" style="fill:none;stroke:#999;stroke-width:3" />
<path d="M698.9,32.87c0.67,1.09,1.17,2.07,1.16,4.35C699.9200000000001,62.88 699.36,82 687.62,90.63" style="fill:none;stroke:#999;stroke-width:3" />
<path d="M699.89,35.51c14.61-2.26,33.75-5.34,39.28-5.68c9.75-0.59,2.33,6.41-0.1,8.78" style="fill:none;stroke:#999;stroke-width:3" />
<path d="M717.98,13.75c1.61,0.5,2.58,2.25,2.9,3.25c0.32,1-0.12,26.5-0.12,36.75" style="fill:none;stroke:#999;stroke-width:3" />
<path d="M706.0,55.67c1.27,0.33,1.55,0.87,4.08,0.38c5.4-1.05,17.38-3.8,22.76-4.57c1.79-0.26,3.14,1.91,2.37,3.61c-8,17.58-17.95,30.9-35.94,40.54" style="fill:none;stroke:black;stroke-width:3" />
<circle cx="706.0" cy="55.67" r="5" stroke-width="0" fill="#FF2A00" opacity="0.7" />
<path d="M772.25,44.19c0.78,0.34,2.8,0.4,3.58,0.32c7.42-0.75,16.59-2.98,22.08-3.52c1.29-0.13,2.69-0.16,3.34,0.01" style="fill:none;stroke:#999;stroke-width:3" />
<path d="M786.37,19c1.09,0.5,1.96,2.23,1.96,3.25c0,7.25,0.03,37.75,0.03,48.5" style="fill:none;stroke:#999;stroke-width:3" />
<path d="M773.0,79.23c0.73,1.02,2.22,1.62,4.38,0.22C784.25,75 793.25,69.5 800.5,64.25" style="fill:none;stroke:#999;stroke-width:3" />
<path d="M807.9,32.87c0.67,1.09,1.17,2.07,1.16,4.35C808.9200000000001,62.88 808.36,82 796.62,90.63" style="fill:none;stroke:#999;stroke-width:3" />
<path d="M808.89,35.51c14.61-2.26,33.75-5.34,39.28-5.68c9.75-0.59,2.33,6.41-0.1,8.78" style="fill:none;stroke:#999;stroke-width:3" />
<path d="M826.98,13.75c1.61,0.5,2.58,2.25,2.9,3.25c0.32,1-0.12,26.5-0.12,36.75" style="fill:none;stroke:#999;stroke-width:3" />
<path d="M815.0,55.67c1.27,0.33,1.55,0.87,4.08,0.38c5.4-1.05,17.38-3.8,22.76-4.57c1.79-0.26,3.14,1.91,2.37,3.61c-8,17.58-17.95,30.9-35.94,40.54" style="fill:none;stroke:#999;stroke-width:3" />
<path d="M815.81,62.62C819.71,63.4 838.8,84.4 852.4,93c2.12,1.34,3.66,2.23,5.63,2.68" style="fill:none;stroke:black;stroke-width:3" />
<circle cx="815.81" cy="62.62" r="5" stroke-width="0" fill="#FF2A00" opacity="0.7" />
</svg>