<!-- 0578b -->
<svg width="981px" height="109px" viewBox="0 0 981px 109px" xmlns="http://www.w3.org/2000/svg" xmlns:xlink="http://www.w3.org/1999/xlink" xml:space="preserve" version="1.1"  baseProfile="full">
<line x1="1" y1="1" x2="980" y2="1" style="stroke:#ddd;stroke-width:2" />
<line x1="1" y1="1" x2="1" y2="108" style="stroke:#ddd;stroke-width:2" />
<line x1="1" y1="108" x2="980" y2="108" style="stroke:#ddd;stroke-width:2" />
<line x1="980" y1="1" x2="980" y2="108" style="stroke:#ddd;stroke-width:2" />
<line x1="109" y1="1" x2="109" y2="108" style="stroke:#ddd;stroke-width:2" />
<line x1="218" y1="1" x2="218" y2="108" style="stroke:#ddd;stroke-width:2" />
<line x1="327" y1="1" x2="327" y2="108" style="stroke:#ddd;stroke-width:2" />
<line x1="436" y1="1" x2="436" y2="108" style="stroke:#ddd;stroke-width:2" />
<line x1="545" y1="1" x2="545" y2="108" style="stroke:#ddd;stroke-width:2" />
<line x1="654" y1="1" x2="654" y2="108" style="stroke:#ddd;stroke-width:2" />
<line x1="763" y1="1" x2="763" y2="108" style="stroke:#ddd;stroke-width:2" />
<line x1="872" y1="1" x2="872" y2="108" style="stroke:#ddd;stroke-width:2" />
<line x1="1" y1="54" x2="980" y2="54" style="stroke:#ddd;stroke-width:2;stroke-dasharray:3 3" />
<line x1="55" y1="1" x2="55" y2="108" style="stroke:#ddd;stroke-width:2;stroke-dasharray:3 3" />
<line x1="164" y1="1" x2="164" y2="108" style="stroke:#ddd;stroke-width:2;stroke-dasharray:3 3" />
<line x1="273" y1="1" x2="273" y2="108" style="stroke:#ddd;stroke-width:2;stroke-dasharray:3 3" />
<line x1="382" y1="1" x2="382" y2="108" style="stroke:#ddd;stroke-width:2;stroke-dasharray:3 3" />
<line x1="491" y1="1" x2="491" y2="108" style="stroke:#ddd;stroke-width:2;stroke-dasharray:3 3" />
<line x1="600" y1="1" x2="600" y2="108" style="stroke:#ddd;stroke-width:2;stroke-dasharray:3 3" />
<line x1="709" y1="1" x2="709" y2="108" style="stroke:#ddd;stroke-width:2;stroke-dasharray:3 3" />
<line x1="818" y1="1" x2="818" y2="108" style="stroke:#ddd;stroke-width:2;stroke-dasharray:3 3" />
<line x1="927" y1="1" x2="927" y2="108" style="stroke:#ddd;stroke-width:2;stroke-dasharray:3 3" />
<path d="M17.54,22.38c1.11,0.38,3.15,0.44,4.27,0.38c8.24-0.43,18.19-1.89,26.67-2.98c1.84-0.24,2.97-0.07,3.9,0.12" style="fill:none;stroke:black;stroke-width:3" />
<circle cx="17.54" cy="22.38" r="5" stroke-width="0" fill="#FF2A00" opacity="0.7" />
<path d="M126.53999999999999,22.38c1.11,0.38,3.15,0.44,4.27,0.38c8.24-0.43,18.19-1.89,26.67-2.98c1.84-0.24,2.97-0.07,3.9,0.12" style="fill:none;stroke:#999;stroke-width:3" />
<path d="M121.61,39.56c1.9,0.52,3.99,0.44,5.91,0.23c7.52-0.84,24.67-3.51,33.12-4.47c2.11-0.24,4.1-0.43,6.21-0.08" style="fill:none;stroke:black;stroke-width:3" />
<circle cx="121.61" cy="39.56" r="5" stroke-width="0" fill="#FF2A00" opacity="0.7" />
<path d="M235.54,22.38c1.11,0.38,3.15,0.44,4.27,0.38c8.24-0.43,18.19-1.89,26.67-2.98c1.84-0.24,2.97-0.07,3.9,0.12" style="fill:none;stroke:#999;stroke-width:3" />
<path d="M230.61,39.56c1.9,0.52,3.99,0.44,5.91,0.23c7.52-0.84,24.67-3.51,33.12-4.47c2.11-0.24,4.1-0.43,6.21-0.08" style="fill:none;stroke:#999;stroke-width:3" />
<path d="M246.06,25.73c0.62,1.04,0.94,2.29,0.99,3.39C248.0,49.5 244.5,59.38 235.57999999999998,65.46" style="fill:none;stroke:black;stroke-width:3" />
<circle cx="246.06" cy="25.73" r="5" stroke-width="0" fill="#FF2A00" opacity="0.7" />
<path d="M344.53999999999996,22.38c1.11,0.38,3.15,0.44,4.27,0.38c8.24-0.43,18.19-1.89,26.67-2.98c1.84-0.24,2.97-0.07,3.9,0.12" style="fill:none;stroke:#999;stroke-width:3" />
<path d="M339.61,39.56c1.9,0.52,3.99,0.44,5.91,0.23c7.52-0.84,24.67-3.51,33.12-4.47c2.11-0.24,4.1-0.43,6.21-0.08" style="fill:none;stroke:#999;stroke-width:3" />
<path d="M355.06,25.73c0.62,1.04,0.94,2.29,0.99,3.39C357.0,49.5 353.5,59.38 344.58,65.46" style="fill:none;stroke:#999;stroke-width:3" />
<path d="M368.84000000000003,23.81c0.74,0.74,1.3,2.19,1.3,3.49c0,2.66-0.08,18.19-0.12,27.07c-0.01,2.2-0.01,4-0.01,5.08" style="fill:none;stroke:black;stroke-width:3" />
<circle cx="368.84000000000003" cy="23.81" r="5" stroke-width="0" fill="#FF2A00" opacity="0.7" />
<path d="M453.53999999999996,22.38c1.11,0.38,3.15,0.44,4.27,0.38c8.24-0.43,18.19-1.89,26.67-2.98c1.84-0.24,2.97-0.07,3.9,0.12" style="fill:none;stroke:#999;stroke-width:3" />
<path d="M448.61,39.56c1.9,0.52,3.99,0.44,5.91,0.23c7.52-0.84,24.67-3.51,33.12-4.47c2.11-0.24,4.1-0.43,6.21-0.08" style="fill:none;stroke:#999;stroke-width:3" />
<path d="M464.06,25.73c0.62,1.04,0.94,2.29,0.99,3.39C466.0,49.5 462.5,59.38 453.58,65.46" style="fill:none;stroke:#999;stroke-width:3" />
<path d="M477.84000000000003,23.81c0.74,0.74,1.3,2.19,1.3,3.49c0,2.66-0.08,18.19-0.12,27.07c-0.01,2.2-0.01,4-0.01,5.08" style="fill:none;stroke:#999;stroke-width:3" />
<path d="M502.4,20.05c0.91,0.81,1.62,2.2,1.62,4.44c0,4.77-0.01,14.36-0.02,20.63c0,1.63,0,3.07,0,4.2" style="fill:none;stroke:black;stroke-width:3" />
<circle cx="502.4" cy="20.05" r="5" stroke-width="0" fill="#FF2A00" opacity="0.7" />
<path d="M562.54,22.38c1.11,0.38,3.15,0.44,4.27,0.38c8.24-0.43,18.19-1.89,26.67-2.98c1.84-0.24,2.97-0.07,3.9,0.12" style="fill:none;stroke:#999;stroke-width:3" />
<path d="M557.61,39.56c1.9,0.52,3.99,0.44,5.91,0.23c7.52-0.84,24.67-3.51,33.12-4.47c2.11-0.24,4.1-0.43,6.21-0.08" style="fill:none;stroke:#999;stroke-width:3" />
<path d="M573.06,25.73c0.62,1.04,0.94,2.29,0.99,3.39C575.0,49.5 571.5,59.38 562.5799999999999,65.46" style="fill:none;stroke:#999;stroke-width:3" />
<path d="M586.84,23.81c0.74,0.74,1.3,2.19,1.3,3.49c0,2.66-0.08,18.19-0.12,27.07c-0.01,2.2-0.01,4-0.01,5.08" style="fill:none;stroke:#999;stroke-width:3" />
<path d="M611.4,20.05c0.91,0.81,1.62,2.2,1.62,4.44c0,4.77-0.01,14.36-0.02,20.63c0,1.63,0,3.07,0,4.2" style="fill:none;stroke:#999;stroke-width:3" />
<path d="M631.56,13.58c0.93,0.93,1.62,2.29,1.62,3.87c0,9.05,0.02,34.57,0.02,37.65c0,8.77-4.08,2.34-6.44-0.35" style="fill:none;stroke:black;stroke-width:3" />
<circle cx="631.56" cy="13.58" r="5" stroke-width="0" fill="#FF2A00" opacity="0.7" />
<path d="M671.54,22.38c1.11,0.38,3.15,0.44,4.27,0.38c8.24-0.43,18.19-1.89,26.67-2.98c1.84-0.24,2.97-0.07,3.9,0.12" style="fill:none;stroke:#999;stroke-width:3" />
<path d="M666.61,39.56c1.9,0.52,3.99,0.44,5.91,0.23c7.52-0.84,24.67-3.51,33.12-4.47c2.11-0.24,4.1-0.43,6.21-0.08" style="fill:none;stroke:#999;stroke-width:3" />
<path d="M682.06,25.73c0.62,1.04,0.94,2.29,0.99,3.39C684.0,49.5 680.5,59.38 671.5799999999999,65.46" style="fill:none;stroke:#999;stroke-width:3" />
<path d="M695.84,23.81c0.74,0.74,1.3,2.19,1.3,3.49c0,2.66-0.08,18.19-0.12,27.07c-0.01,2.2-0.01,4-0.01,5.08" style="fill:none;stroke:#999;stroke-width:3" />
<path d="M720.4,20.05c0.91,0.81,1.62,2.2,1.62,4.44c0,4.77-0.01,14.36-0.02,20.63c0,1.63,0,3.07,0,4.2" style="fill:none;stroke:#999;stroke-width:3" />
<path d="M740.56,13.58c0.93,0.93,1.62,2.29,1.62,3.87c0,9.05,0.02,34.57,0.02,37.65c0,8.77-4.08,2.34-6.44-0.35" style="fill:none;stroke:#999;stroke-width:3" />
<path d="M687.13,70.42c2.37,0.46,4.68,0.29,6.87,0.06c10.41-1.06,21.21-2.06,30.25-2.64c2.18-0.14,4.24-0.31,6.38,0.2" style="fill:none;stroke:black;stroke-width:3" />
<circle cx="687.13" cy="70.42" r="5" stroke-width="0" fill="#FF2A00" opacity="0.7" />
<path d="M780.54,22.38c1.11,0.38,3.15,0.44,4.27,0.38c8.24-0.43,18.19-1.89,26.67-2.98c1.84-0.24,2.97-0.07,3.9,0.12" style="fill:none;stroke:#999;stroke-width:3" />
<path d="M775.61,39.56c1.9,0.52,3.99,0.44,5.91,0.23c7.52-0.84,24.67-3.51,33.12-4.47c2.11-0.24,4.1-0.43,6.21-0.08" style="fill:none;stroke:#999;stroke-width:3" />
<path d="M791.06,25.73c0.62,1.04,0.94,2.29,0.99,3.39C793.0,49.5 789.5,59.38 780.5799999999999,65.46" style="fill:none;stroke:#999;stroke-width:3" />
<path d="M804.84,23.81c0.74,0.74,1.3,2.19,1.3,3.49c0,2.66-0.08,18.19-0.12,27.07c-0.01,2.2-0.01,4-0.01,5.08" style="fill:none;stroke:#999;stroke-width:3" />
<path d="M829.4,20.05c0.91,0.81,1.62,2.2,1.62,4.44c0,4.77-0.01,14.36-0.02,20.63c0,1.63,0,3.07,0,4.2" style="fill:none;stroke:#999;stroke-width:3" />
<path d="M849.56,13.58c0.93,0.93,1.62,2.29,1.62,3.87c0,9.05,0.02,34.57,0.02,37.65c0,8.77-4.08,2.34-6.44-0.35" style="fill:none;stroke:#999;stroke-width:3" />
<path d="M796.13,70.42c2.37,0.46,4.68,0.29,6.87,0.06c10.41-1.06,21.21-2.06,30.25-2.64c2.18-0.14,4.24-0.31,6.38,0.2" style="fill:none;stroke:#999;stroke-width:3" />
<path d="M815.67,53.62c0.98,0.98,2.02,2.77,2.02,4.64c0,11-0.11,25.75-0.11,30.11" style="fill:none;stroke:black;stroke-width:3" />
<circle cx="815.67" cy="53.62" r="5" stroke-width="0" fill="#FF2A00" opacity="0.7" />
<path d="M889.54,22.38c1.11,0.38,3.15,0.44,4.27,0.38c8.24-0.43,18.19-1.89,26.67-2.98c1.84-0.24,2.97-0.07,3.9,0.12" style="fill:none;stroke:#999;stroke-width:3" />
<path d="M884.61,39.56c1.9,0.52,3.99,0.44,5.91,0.23c7.52-0.84,24.67-3.51,33.12-4.47c2.11-0.24,4.1-0.43,6.21-0.08" style="fill:none;stroke:#999;stroke-width:3" />
<path d="M900.06,25.73c0.62,1.04,0.94,2.29,0.99,3.39C902.0,49.5 898.5,59.38 889.5799999999999,65.46" style="fill:none;stroke:#999;stroke-width:3" />
<path d="M913.84,23.81c0.74,0.74,1.3,2.19,1.3,3.49c0,2.66-0.08,18.19-0.12,27.07c-0.01,2.2-0.01,4-0.01,5.08" style="fill:none;stroke:#999;stroke-width:3" />
<path d="M938.4,20.05c0.91,0.81,1.62,2.2,1.62,4.44c0,4.77-0.01,14.36-0.02,20.63c0,1.63,0,3.07,0,4.2" style="fill:none;stroke:#999;stroke-width:3" />
<path d="M958.56,13.58c0.93,0.93,1.62,2.29,1.62,3.87c0,9.05,0.02,34.57,0.02,37.65c0,8.77-4.08,2.34-6.44-0.35" style="fill:none;stroke:#999;stroke-width:3" />
<path d="M905.13,70.42c2.37,0.46,4.68,0.29,6.87,0.06c10.41-1.06,21.21-2.06,30.25-2.64c2.18-0.14,4.24-0.31,6.38,0.2" style="fill:none;stroke:#999;stroke-width:3" />
<path d="M924.67,53.62c0.98,0.98,2.02,2.77,2.02,4.64c0,11-0.11,25.75-0.11,30.11" style="fill:none;stroke:#999;stroke-width:3" />
<path d="M889.38,90.48c3.33,1.19,7.09,1.13,10.5,0.83c14.22-1.27,39.81-2.83,56.25-3.19c3.27-0.07,6.53,0.01,9.75,0.7" style="fill:none;stroke:black;stroke-width:3" />
<circle cx="889.38" cy="90.48" r="5" stroke-width="0" fill="#FF2A00" opacity="0.7" />
</svg>