<!-- 0582a -->
<svg width="1308px" height="109px" viewBox="0 0 1308px 109px" xmlns="http://www.w3.org/2000/svg" xmlns:xlink="http://www.w3.org/1999/xlink" xml:space="preserve" version="1.1"  baseProfile="full">
<line x1="1" y1="1" x2="1307" y2="1" style="stroke:#ddd;stroke-width:2" />
<line x1="1" y1="1" x2="1" y2="108" style="stroke:#ddd;stroke-width:2" />
<line x1="1" y1="108" x2="1307" y2="108" style="stroke:#ddd;stroke-width:2" />
<line x1="1307" y1="1" x2="1307" y2="108" style="stroke:#ddd;stroke-width:2" />
<line x1="109" y1="1" x2="109" y2="108" style="stroke:#ddd;stroke-width:2" />
<line x1="218" y1="1" x2="218" y2="108" style="stroke:#ddd;stroke-width:2" />
<line x1="327" y1="1" x2="327" y2="108" style="stroke:#ddd;stroke-width:2" />
<line x1="436" y1="1" x2="436" y2="108" style="stroke:#ddd;stroke-width:2" />
<line x1="545" y1="1" x2="545" y2="108" style="stroke:#ddd;stroke-width:2" />
<line x1="654" y1="1" x2="654" y2="108" style="stroke:#ddd;stroke-width:2" />
<line x1="763" y1="1" x2="763" y2="108" style="stroke:#ddd;stroke-width:2" />
<line x1="872" y1="1" x2="872" y2="108" style="stroke:#ddd;stroke-width:2" />
<line x1="981" y1="1" x2="981" y2="108" style="stroke:#ddd;stroke-width:2" />
<line x1="1090" y1="1" x2="1090" y2="108" style="stroke:#ddd;stroke-width:2" />
<line x1="1199" y1="1" x2="1199" y2="108" style="stroke:#ddd;stroke-width:2" />
<line x1="1" y1="54" x2="1307" y2="54" style="stroke:#ddd;stroke-width:2;stroke-dasharray:3 3" />
<line x1="55" y1="1" x2="55" y2="108" style="stroke:#ddd;stroke-width:2;stroke-dasharray:3 3" />
<line x1="164" y1="1" x2="164" y2="108" style="stroke:#ddd;stroke-width:2;stroke-dasharray:3 3" />
<line x1="273" y1="1" x2="273" y2="108" style="stroke:#ddd;stroke-width:2;stroke-dasharray:3 3" />
<line x1="382" y1="1" x2="382" y2="108" style="stroke:#ddd;stroke-width:2;stroke-dasharray:3 3" />
<line x1="491" y1="1" x2="491" y2="108" style="stroke:#ddd;stroke-width:2;stroke-dasharray:3 3" />
<line x1="600" y1="1" x2="600" y2="108" style="stroke:#ddd;stroke-width:2;stroke-dasharray:3 3" />
<line x1="709" y1="1" x2="709" y2="108" style="stroke:#ddd;stroke-width:2;stroke-dasharray:3 3" />
<line x1="818" y1="1" x2="818" y2="108" style="stroke:#ddd;stroke-width:2;stroke-dasharray:3 3" />
<line x1="927" y1="1" x2="927" y2="108" style="stroke:#ddd;stroke-width:2;stroke-dasharray:3 3" />
<line x1="1036" y1="1" x2="1036" y2="108" style="stroke:#ddd;stroke-width:2;stroke-dasharray:3 3" />
<line x1="1145" y1="1" x2="1145" y2="108" style="stroke:#ddd;stroke-width:2;stroke-dasharray:3 3" />
<line x1="1254" y1="1" x2="1254" y2="108" style="stroke:#ddd;stroke-width:2;stroke-dasharray:3 3" />
<path d="M13.0,44.14c2,0.61,4.03,0.53,5.74,0.3c5.89-0.81,13.43-2.87,19.01-3.94c1.24-0.24,2.75-0.38,3.75-0.24" style="fill:none;stroke:black;stroke-width:3" />
<circle cx="13.0" cy="44.14" r="5" stroke-width="0" fill="#FF2A00" opacity="0.7" />
<path d="M122.0,44.14c2,0.61,4.03,0.53,5.74,0.3c5.89-0.81,13.43-2.87,19.01-3.94c1.24-0.24,2.75-0.38,3.75-0.24" style="fill:none;stroke:#999;stroke-width:3" />
<path d="M136.12,18c0.81,0.81,1.21,2,1.21,3.5c0,7.25,0.03,36.5,0.03,47.25" style="fill:none;stroke:black;stroke-width:3" />
<circle cx="136.12" cy="18.0" r="5" stroke-width="0" fill="#FF2A00" opacity="0.7" />
<path d="M231.0,44.14c2,0.61,4.03,0.53,5.74,0.3c5.89-0.81,13.43-2.87,19.01-3.94c1.24-0.24,2.75-0.38,3.75-0.24" style="fill:none;stroke:#999;stroke-width:3" />
<path d="M245.12,18c0.81,0.81,1.21,2,1.21,3.5c0,7.25,0.03,36.5,0.03,47.25" style="fill:none;stroke:#999;stroke-width:3" />
<path d="M232.0,77.85c1.25,1.4,2.34,1.39,4.43-0.45C242.24,72.28 252.19,63.88 258.0,58.75" style="fill:none;stroke:black;stroke-width:3" />
<circle cx="232.0" cy="77.85" r="5" stroke-width="0" fill="#FF2A00" opacity="0.7" />
<path d="M340.0,44.14c2,0.61,4.03,0.53,5.74,0.3c5.89-0.81,13.43-2.87,19.01-3.94c1.24-0.24,2.75-0.38,3.75-0.24" style="fill:none;stroke:#999;stroke-width:3" />
<path d="M354.12,18c0.81,0.81,1.21,2,1.21,3.5c0,7.25,0.03,36.5,0.03,47.25" style="fill:none;stroke:#999;stroke-width:3" />
<path d="M341.0,77.85c1.25,1.4,2.34,1.39,4.43-0.45C351.24,72.28 361.19,63.88 367.0,58.75" style="fill:none;stroke:#999;stroke-width:3" />
<path d="M371.7,27.91c2.68,0.59,4.74,0.18,6.93-0.07c8.14-0.93,23.42-2.85,34.13-3.65c2.2-0.16,4.99-0.07,6.6,0.31" style="fill:none;stroke:black;stroke-width:3" />
<circle cx="371.7" cy="27.91" r="5" stroke-width="0" fill="#FF2A00" opacity="0.7" />
<path d="M449.0,44.14c2,0.61,4.03,0.53,5.74,0.3c5.89-0.81,13.43-2.87,19.01-3.94c1.24-0.24,2.75-0.38,3.75-0.24" style="fill:none;stroke:#999;stroke-width:3" />
<path d="M463.12,18c0.81,0.81,1.21,2,1.21,3.5c0,7.25,0.03,36.5,0.03,47.25" style="fill:none;stroke:#999;stroke-width:3" />
<path d="M450.0,77.85c1.25,1.4,2.34,1.39,4.43-0.45C460.24,72.28 470.19,63.88 476.0,58.75" style="fill:none;stroke:#999;stroke-width:3" />
<path d="M480.7,27.91c2.68,0.59,4.74,0.18,6.93-0.07c8.14-0.93,23.42-2.85,34.13-3.65c2.2-0.16,4.99-0.07,6.6,0.31" style="fill:none;stroke:#999;stroke-width:3" />
<path d="M491.3,14.89c0.91,0.91,1.26,2.14,1.26,3.63S492.5,55.31 492.5,61.5" style="fill:none;stroke:black;stroke-width:3" />
<circle cx="491.3" cy="14.89" r="5" stroke-width="0" fill="#FF2A00" opacity="0.7" />
<path d="M558.0,44.14c2,0.61,4.03,0.53,5.74,0.3c5.89-0.81,13.43-2.87,19.01-3.94c1.24-0.24,2.75-0.38,3.75-0.24" style="fill:none;stroke:#999;stroke-width:3" />
<path d="M572.12,18c0.81,0.81,1.21,2,1.21,3.5c0,7.25,0.03,36.5,0.03,47.25" style="fill:none;stroke:#999;stroke-width:3" />
<path d="M559.0,77.85c1.25,1.4,2.34,1.39,4.43-0.45C569.24,72.28 579.19,63.88 585.0,58.75" style="fill:none;stroke:#999;stroke-width:3" />
<path d="M589.7,27.91c2.68,0.59,4.74,0.18,6.93-0.07c8.14-0.93,23.42-2.85,34.13-3.65c2.2-0.16,4.99-0.07,6.6,0.31" style="fill:none;stroke:#999;stroke-width:3" />
<path d="M600.3,14.89c0.91,0.91,1.26,2.14,1.26,3.63S601.5,55.31 601.5,61.5" style="fill:none;stroke:#999;stroke-width:3" />
<path d="M622.83,12.02c1.01,1.01,1.3,2.48,1.3,3.73s-0.01,37.13-0.01,43.5" style="fill:none;stroke:black;stroke-width:3" />
<circle cx="622.83" cy="12.02" r="5" stroke-width="0" fill="#FF2A00" opacity="0.7" />
<path d="M667.0,44.14c2,0.61,4.03,0.53,5.74,0.3c5.89-0.81,13.43-2.87,19.01-3.94c1.24-0.24,2.75-0.38,3.75-0.24" style="fill:none;stroke:#999;stroke-width:3" />
<path d="M681.12,18c0.81,0.81,1.21,2,1.21,3.5c0,7.25,0.03,36.5,0.03,47.25" style="fill:none;stroke:#999;stroke-width:3" />
<path d="M668.0,77.85c1.25,1.4,2.34,1.39,4.43-0.45C678.24,72.28 688.19,63.88 694.0,58.75" style="fill:none;stroke:#999;stroke-width:3" />
<path d="M698.7,27.91c2.68,0.59,4.74,0.18,6.93-0.07c8.14-0.93,23.42-2.85,34.13-3.65c2.2-0.16,4.99-0.07,6.6,0.31" style="fill:none;stroke:#999;stroke-width:3" />
<path d="M709.3,14.89c0.91,0.91,1.26,2.14,1.26,3.63S710.5,55.31 710.5,61.5" style="fill:none;stroke:#999;stroke-width:3" />
<path d="M731.83,12.02c1.01,1.01,1.3,2.48,1.3,3.73s-0.01,37.13-0.01,43.5" style="fill:none;stroke:#999;stroke-width:3" />
<path d="M711.45,37.82c2.68-0.32,18.92-1.6,20.81-1.55" style="fill:none;stroke:black;stroke-width:3" />
<circle cx="711.45" cy="37.82" r="5" stroke-width="0" fill="#FF2A00" opacity="0.7" />
<path d="M776.0,44.14c2,0.61,4.03,0.53,5.74,0.3c5.89-0.81,13.43-2.87,19.01-3.94c1.24-0.24,2.75-0.38,3.75-0.24" style="fill:none;stroke:#999;stroke-width:3" />
<path d="M790.12,18c0.81,0.81,1.21,2,1.21,3.5c0,7.25,0.03,36.5,0.03,47.25" style="fill:none;stroke:#999;stroke-width:3" />
<path d="M777.0,77.85c1.25,1.4,2.34,1.39,4.43-0.45C787.24,72.28 797.19,63.88 803.0,58.75" style="fill:none;stroke:#999;stroke-width:3" />
<path d="M807.7,27.91c2.68,0.59,4.74,0.18,6.93-0.07c8.14-0.93,23.42-2.85,34.13-3.65c2.2-0.16,4.99-0.07,6.6,0.31" style="fill:none;stroke:#999;stroke-width:3" />
<path d="M818.3,14.89c0.91,0.91,1.26,2.14,1.26,3.63S819.5,55.31 819.5,61.5" style="fill:none;stroke:#999;stroke-width:3" />
<path d="M840.83,12.02c1.01,1.01,1.3,2.48,1.3,3.73s-0.01,37.13-0.01,43.5" style="fill:none;stroke:#999;stroke-width:3" />
<path d="M820.45,37.82c2.68-0.32,18.92-1.6,20.81-1.55" style="fill:none;stroke:#999;stroke-width:3" />
<path d="M820.48,49.38c4.09-0.09,17.12-1.66,20.9-1.76" style="fill:none;stroke:black;stroke-width:3" />
<circle cx="820.48" cy="49.38" r="5" stroke-width="0" fill="#FF2A00" opacity="0.7" />
<path d="M885.0,44.14c2,0.61,4.03,0.53,5.74,0.3c5.89-0.81,13.43-2.87,19.01-3.94c1.24-0.24,2.75-0.38,3.75-0.24" style="fill:none;stroke:#999;stroke-width:3" />
<path d="M899.12,18c0.81,0.81,1.21,2,1.21,3.5c0,7.25,0.03,36.5,0.03,47.25" style="fill:none;stroke:#999;stroke-width:3" />
<path d="M886.0,77.85c1.25,1.4,2.34,1.39,4.43-0.45C896.24,72.28 906.19,63.88 912.0,58.75" style="fill:none;stroke:#999;stroke-width:3" />
<path d="M916.7,27.91c2.68,0.59,4.74,0.18,6.93-0.07c8.14-0.93,23.42-2.85,34.13-3.65c2.2-0.16,4.99-0.07,6.6,0.31" style="fill:none;stroke:#999;stroke-width:3" />
<path d="M927.3,14.89c0.91,0.91,1.26,2.14,1.26,3.63S928.5,55.31 928.5,61.5" style="fill:none;stroke:#999;stroke-width:3" />
<path d="M949.83,12.02c1.01,1.01,1.3,2.48,1.3,3.73s-0.01,37.13-0.01,43.5" style="fill:none;stroke:#999;stroke-width:3" />
<path d="M929.45,37.82c2.68-0.32,18.92-1.6,20.81-1.55" style="fill:none;stroke:#999;stroke-width:3" />
<path d="M929.48,49.38c4.09-0.09,17.12-1.66,20.9-1.76" style="fill:none;stroke:#999;stroke-width:3" />
<path d="M913.75,63c2.5,0.62,5.61,0.31,8.12,0.08c12.63-1.13,29.24-3.13,39.89-3.75c2.12-0.12,3.99-0.11,6.04,0.42" style="fill:none;stroke:black;stroke-width:3" />
<circle cx="913.75" cy="63.0" r="5" stroke-width="0" fill="#FF2A00" opacity="0.7" />
<path d="M994.0,44.14c2,0.61,4.03,0.53,5.74,0.3c5.89-0.81,13.43-2.87,19.01-3.94c1.24-0.24,2.75-0.38,3.75-0.24" style="fill:none;stroke:#999;stroke-width:3" />
<path d="M1008.12,18c0.81,0.81,1.21,2,1.21,3.5c0,7.25,0.03,36.5,0.03,47.25" style="fill:none;stroke:#999;stroke-width:3" />
<path d="M995.0,77.85c1.25,1.4,2.34,1.39,4.43-0.45C1005.24,72.28 1015.19,63.88 1021.0,58.75" style="fill:none;stroke:#999;stroke-width:3" />
<path d="M1025.7,27.91c2.68,0.59,4.74,0.18,6.93-0.07c8.14-0.93,23.42-2.85,34.13-3.65c2.2-0.16,4.99-0.07,6.6,0.31" style="fill:none;stroke:#999;stroke-width:3" />
<path d="M1036.3,14.89c0.91,0.91,1.26,2.14,1.26,3.63S1037.5,55.31 1037.5,61.5" style="fill:none;stroke:#999;stroke-width:3" />
<path d="M1058.83,12.02c1.01,1.01,1.3,2.48,1.3,3.73s-0.01,37.13-0.01,43.5" style="fill:none;stroke:#999;stroke-width:3" />
<path d="M1038.45,37.82c2.68-0.32,18.92-1.6,20.81-1.55" style="fill:none;stroke:#999;stroke-width:3" />
<path d="M1038.48,49.38c4.09-0.09,17.12-1.66,20.9-1.76" style="fill:none;stroke:#999;stroke-width:3" />
<path d="M1022.75,63c2.5,0.62,5.61,0.31,8.12,0.08c12.63-1.13,29.24-3.13,39.89-3.75c2.12-0.12,3.99-0.11,6.04,0.42" style="fill:none;stroke:#999;stroke-width:3" />
<path d="M1044.82,64.89c0.3,0.86,0.34,2.16,0.16,2.87c-1.23,4.73-2.35,9.36-6.65,14.95" style="fill:none;stroke:black;stroke-width:3" />
<circle cx="1044.82" cy="64.89" r="5" stroke-width="0" fill="#FF2A00" opacity="0.7" />
<path d="M1103.0,44.14c2,0.61,4.03,0.53,5.74,0.3c5.89-0.81,13.43-2.87,19.01-3.94c1.24-0.24,2.75-0.38,3.75-0.24" style="fill:none;stroke:#999;stroke-width:3" />
<path d="M1117.12,18c0.81,0.81,1.21,2,1.21,3.5c0,7.25,0.03,36.5,0.03,47.25" style="fill:none;stroke:#999;stroke-width:3" />
<path d="M1104.0,77.85c1.25,1.4,2.34,1.39,4.43-0.45C1114.24,72.28 1124.19,63.88 1130.0,58.75" style="fill:none;stroke:#999;stroke-width:3" />
<path d="M1134.7,27.91c2.68,0.59,4.74,0.18,6.93-0.07c8.14-0.93,23.42-2.85,34.13-3.65c2.2-0.16,4.99-0.07,6.6,0.31" style="fill:none;stroke:#999;stroke-width:3" />
<path d="M1145.3,14.89c0.91,0.91,1.26,2.14,1.26,3.63S1146.5,55.31 1146.5,61.5" style="fill:none;stroke:#999;stroke-width:3" />
<path d="M1167.83,12.02c1.01,1.01,1.3,2.48,1.3,3.73s-0.01,37.13-0.01,43.5" style="fill:none;stroke:#999;stroke-width:3" />
<path d="M1147.45,37.82c2.68-0.32,18.92-1.6,20.81-1.55" style="fill:none;stroke:#999;stroke-width:3" />
<path d="M1147.48,49.38c4.09-0.09,17.12-1.66,20.9-1.76" style="fill:none;stroke:#999;stroke-width:3" />
<path d="M1131.75,63c2.5,0.62,5.61,0.31,8.12,0.08c12.63-1.13,29.24-3.13,39.89-3.75c2.12-0.12,3.99-0.11,6.04,0.42" style="fill:none;stroke:#999;stroke-width:3" />
<path d="M1153.82,64.89c0.3,0.86,0.34,2.16,0.16,2.87c-1.23,4.73-2.35,9.36-6.65,14.95" style="fill:none;stroke:#999;stroke-width:3" />
<path d="M1164.9,63.43c0.78,0.78,0.89,2.07,0.89,3.51c0,1.93-0.13,3.82-0.13,7.75s0.52,5.26,7.12,5.26s8.42-0.75,9.18-1.55" style="fill:none;stroke:black;stroke-width:3" />
<circle cx="1164.9" cy="63.43" r="5" stroke-width="0" fill="#FF2A00" opacity="0.7" />
<path d="M1212.0,44.14c2,0.61,4.03,0.53,5.74,0.3c5.89-0.81,13.43-2.87,19.01-3.94c1.24-0.24,2.75-0.38,3.75-0.24" style="fill:none;stroke:#999;stroke-width:3" />
<path d="M1226.12,18c0.81,0.81,1.21,2,1.21,3.5c0,7.25,0.03,36.5,0.03,47.25" style="fill:none;stroke:#999;stroke-width:3" />
<path d="M1213.0,77.85c1.25,1.4,2.34,1.39,4.43-0.45C1223.24,72.28 1233.19,63.88 1239.0,58.75" style="fill:none;stroke:#999;stroke-width:3" />
<path d="M1243.7,27.91c2.68,0.59,4.74,0.18,6.93-0.07c8.14-0.93,23.42-2.85,34.13-3.65c2.2-0.16,4.99-0.07,6.6,0.31" style="fill:none;stroke:#999;stroke-width:3" />
<path d="M1254.3,14.89c0.91,0.91,1.26,2.14,1.26,3.63S1255.5,55.31 1255.5,61.5" style="fill:none;stroke:#999;stroke-width:3" />
<path d="M1276.83,12.02c1.01,1.01,1.3,2.48,1.3,3.73s-0.01,37.13-0.01,43.5" style="fill:none;stroke:#999;stroke-width:3" />
<path d="M1256.45,37.82c2.68-0.32,18.92-1.6,20.81-1.55" style="fill:none;stroke:#999;stroke-width:3" />
<path d="M1256.48,49.38c4.09-0.09,17.12-1.66,20.9-1.76" style="fill:none;stroke:#999;stroke-width:3" />
<path d="M1240.75,63c2.5,0.62,5.61,0.31,8.12,0.08c12.63-1.13,29.24-3.13,39.89-3.75c2.12-0.12,3.99-0.11,6.04,0.42" style="fill:none;stroke:#999;stroke-width:3" />
<path d="M1262.82,64.89c0.3,0.86,0.34,2.16,0.16,2.87c-1.23,4.73-2.35,9.36-6.65,14.95" style="fill:none;stroke:#999;stroke-width:3" />
<path d="M1273.9,63.43c0.78,0.78,0.89,2.07,0.89,3.51c0,1.93-0.13,3.82-0.13,7.75s0.52,5.26,7.12,5.26s8.42-0.75,9.18-1.55" style="fill:none;stroke:#999;stroke-width:3" />
<path d="M1248.87,66.11c0.95,0.95,1.39,2.27,1.39,4.81c0,2.99-0.01,11.79-0.01,14.45c0,7.5,1,9.25,21.07,9.25c12.33,0,17.29-1.47,19.66-2.49" style="fill:none;stroke:black;stroke-width:3" />
<circle cx="1248.87" cy="66.11" r="5" stroke-width="0" fill="#FF2A00" opacity="0.7" />
</svg>