<!-- 058d8 -->
<svg width="1962px" height="109px" viewBox="0 0 1962px 109px" xmlns="http://www.w3.org/2000/svg" xmlns:xlink="http://www.w3.org/1999/xlink" xml:space="preserve" version="1.1"  baseProfile="full">
<line x1="1" y1="1" x2="1961" y2="1" style="stroke:#ddd;stroke-width:2" />
<line x1="1" y1="1" x2="1" y2="108" style="stroke:#ddd;stroke-width:2" />
<line x1="1" y1="108" x2="1961" y2="108" style="stroke:#ddd;stroke-width:2" />
<line x1="1961" y1="1" x2="1961" y2="108" style="stroke:#ddd;stroke-width:2" />
<line x1="109" y1="1" x2="109" y2="108" style="stroke:#ddd;stroke-width:2" />
<line x1="218" y1="1" x2="218" y2="108" style="stroke:#ddd;stroke-width:2" />
<line x1="327" y1="1" x2="327" y2="108" style="stroke:#ddd;stroke-width:2" />
<line x1="436" y1="1" x2="436" y2="108" style="stroke:#ddd;stroke-width:2" />
<line x1="545" y1="1" x2="545" y2="108" style="stroke:#ddd;stroke-width:2" />
<line x1="654" y1="1" x2="654" y2="108" style="stroke:#ddd;stroke-width:2" />
<line x1="763" y1="1" x2="763" y2="108" style="stroke:#ddd;stroke-width:2" />
<line x1="872" y1="1" x2="872" y2="108" style="stroke:#ddd;stroke-width:2" />
<line x1="981" y1="1" x2="981" y2="108" style="stroke:#ddd;stroke-width:2" />
<line x1="1090" y1="1" x2="1090" y2="108" style="stroke:#ddd;stroke-width:2" />
<line x1="1199" y1="1" x2="1199" y2="108" style="stroke:#ddd;stroke-width:2" />
<line x1="1308" y1="1" x2="1308" y2="108" style="stroke:#ddd;stroke-width:2" />
<line x1="1417" y1="1" x2="1417" y2="108" style="stroke:#ddd;stroke-width:2" />
<line x1="1526" y1="1" x2="1526" y2="108" style="stroke:#ddd;stroke-width:2" />
<line x1="1635" y1="1" x2="1635" y2="108" style="stroke:#ddd;stroke-width:2" />
<line x1="1744" y1="1" x2="1744" y2="108" style="stroke:#ddd;stroke-width:2" />
<line x1="1853" y1="1" x2="1853" y2="108" style="stroke:#ddd;stroke-width:2" />
<line x1="1" y1="54" x2="1961" y2="54" style="stroke:#ddd;stroke-width:2;stroke-dasharray:3 3" />
<line x1="55" y1="1" x2="55" y2="108" style="stroke:#ddd;stroke-width:2;stroke-dasharray:3 3" />
<line x1="164" y1="1" x2="164" y2="108" style="stroke:#ddd;stroke-width:2;stroke-dasharray:3 3" />
<line x1="273" y1="1" x2="273" y2="108" style="stroke:#ddd;stroke-width:2;stroke-dasharray:3 3" />
<line x1="382" y1="1" x2="382" y2="108" style="stroke:#ddd;stroke-width:2;stroke-dasharray:3 3" />
<line x1="491" y1="1" x2="491" y2="108" style="stroke:#ddd;stroke-width:2;stroke-dasharray:3 3" />
<line x1="600" y1="1" x2="600" y2="108" style="stroke:#ddd;stroke-width:2;stroke-dasharray:3 3" />
<line x1="709" y1="1" x2="709" y2="108" style="stroke:#ddd;stroke-width:2;stroke-dasharray:3 3" />
<line x1="818" y1="1" x2="818" y2="108" style="stroke:#ddd;stroke-width:2;stroke-dasharray:3 3" />
<line x1="927" y1="1" x2="927" y2="108" style="stroke:#ddd;stroke-width:2;stroke-dasharray:3 3" />
<line x1="1036" y1="1" x2="1036" y2="108" style="stroke:#ddd;stroke-width:2;stroke-dasharray:3 3" />
<line x1="1145" y1="1" x2="1145" y2="108" style="stroke:#ddd;stroke-width:2;stroke-dasharray:3 3" />
<line x1="1254" y1="1" x2="1254" y2="108" style="stroke:#ddd;stroke-width:2;stroke-dasharray:3 3" />
<line x1="1363" y1="1" x2="1363" y2="108" style="stroke:#ddd;stroke-width:2;stroke-dasharray:3 3" />
<line x1="1472" y1="1" x2="1472" y2="108" style="stroke:#ddd;stroke-width:2;stroke-dasharray:3 3" />
<line x1="1581" y1="1" x2="1581" y2="108" style="stroke:#ddd;stroke-width:2;stroke-dasharray:3 3" />
<line x1="1690" y1="1" x2="1690" y2="108" style="stroke:#ddd;stroke-width:2;stroke-dasharray:3 3" />
<line x1="1799" y1="1" x2="1799" y2="108" style="stroke:#ddd;stroke-width:2;stroke-dasharray:3 3" />
<line x1="1908" y1="1" x2="1908" y2="108" style="stroke:#ddd;stroke-width:2;stroke-dasharray:3 3" />
<path d="M34.27,15.76c0.27,0.46,0.77,1.27,0.92,1.83c1.19,4.65,2.76,12.83,3.47,21.39" style="fill:none;stroke:black;stroke-width:3" />
<circle cx="34.27" cy="15.76" r="5" stroke-width="0" fill="#FF2A00" opacity="0.7" />
<path d="M143.27,15.76c0.27,0.46,0.77,1.27,0.92,1.83c1.19,4.65,2.76,12.83,3.47,21.39" style="fill:none;stroke:#999;stroke-width:3" />
<path d="M144.03,16.46c9.97-1.21,28.7-2.76,35.77-3.21c2.6-0.17,3.92,1.18,3.78,2.43c-0.52,4.56-2.58,13.07-4.34,20.39" style="fill:none;stroke:black;stroke-width:3" />
<circle cx="144.03" cy="16.46" r="5" stroke-width="0" fill="#FF2A00" opacity="0.7" />
<path d="M252.27,15.76c0.27,0.46,0.77,1.27,0.92,1.83c1.19,4.65,2.76,12.83,3.47,21.39" style="fill:none;stroke:#999;stroke-width:3" />
<path d="M253.03,16.46c9.97-1.21,28.7-2.76,35.77-3.21c2.6-0.17,3.92,1.18,3.78,2.43c-0.52,4.56-2.58,13.07-4.34,20.39" style="fill:none;stroke:#999;stroke-width:3" />
<path d="M270.5,15.75c0.75,1,1.29,2.06,1.29,2.88c-0.04,5.39,0.17,14.73,0.17,16.69" style="fill:none;stroke:black;stroke-width:3" />
<circle cx="270.5" cy="15.75" r="5" stroke-width="0" fill="#FF2A00" opacity="0.7" />
<path d="M361.27,15.76c0.27,0.46,0.77,1.27,0.92,1.83c1.19,4.65,2.76,12.83,3.47,21.39" style="fill:none;stroke:#999;stroke-width:3" />
<path d="M362.03,16.46c9.97-1.21,28.7-2.76,35.77-3.21c2.6-0.17,3.92,1.18,3.78,2.43c-0.52,4.56-2.58,13.07-4.34,20.39" style="fill:none;stroke:#999;stroke-width:3" />
<path d="M379.5,15.75c0.75,1,1.29,2.06,1.29,2.88c-0.04,5.39,0.17,14.73,0.17,16.69" style="fill:none;stroke:#999;stroke-width:3" />
<path d="M364.72,26.39c3.08-0.23,32.18-2.58,34.73-2.58" style="fill:none;stroke:black;stroke-width:3" />
<circle cx="364.72" cy="26.39" r="5" stroke-width="0" fill="#FF2A00" opacity="0.7" />
<path d="M470.27,15.76c0.27,0.46,0.77,1.27,0.92,1.83c1.19,4.65,2.76,12.83,3.47,21.39" style="fill:none;stroke:#999;stroke-width:3" />
<path d="M471.03,16.46c9.97-1.21,28.7-2.76,35.77-3.21c2.6-0.17,3.92,1.18,3.78,2.43c-0.52,4.56-2.58,13.07-4.34,20.39" style="fill:none;stroke:#999;stroke-width:3" />
<path d="M488.5,15.75c0.75,1,1.29,2.06,1.29,2.88c-0.04,5.39,0.17,14.73,0.17,16.69" style="fill:none;stroke:#999;stroke-width:3" />
<path d="M473.72,26.39c3.08-0.23,32.18-2.58,34.73-2.58" style="fill:none;stroke:#999;stroke-width:3" />
<path d="M474.65,36.78c6.82,0,22.76-2.32,32.17-2.44" style="fill:none;stroke:black;stroke-width:3" />
<circle cx="474.65" cy="36.78" r="5" stroke-width="0" fill="#FF2A00" opacity="0.7" />
<path d="M579.27,15.76c0.27,0.46,0.77,1.27,0.92,1.83c1.19,4.65,2.76,12.83,3.47,21.39" style="fill:none;stroke:#999;stroke-width:3" />
<path d="M580.03,16.46c9.97-1.21,28.7-2.76,35.77-3.21c2.6-0.17,3.92,1.18,3.78,2.43c-0.52,4.56-2.58,13.07-4.34,20.39" style="fill:none;stroke:#999;stroke-width:3" />
<path d="M597.5,15.75c0.75,1,1.29,2.06,1.29,2.88c-0.04,5.39,0.17,14.73,0.17,16.69" style="fill:none;stroke:#999;stroke-width:3" />
<path d="M582.72,26.39c3.08-0.23,32.18-2.58,34.73-2.58" style="fill:none;stroke:#999;stroke-width:3" />
<path d="M583.65,36.78c6.82,0,22.76-2.32,32.17-2.44" style="fill:none;stroke:#999;stroke-width:3" />
<path d="M563.77,45.82c0.2,0.38,0.57,1.04,0.68,1.51c0.88,3.84,2.54,10.59,3.06,17.65" style="fill:none;stroke:black;stroke-width:3" />
<circle cx="563.77" cy="45.82" r="5" stroke-width="0" fill="#FF2A00" opacity="0.7" />
<path d="M688.27,15.76c0.27,0.46,0.77,1.27,0.92,1.83c1.19,4.65,2.76,12.83,3.47,21.39" style="fill:none;stroke:#999;stroke-width:3" />
<path d="M689.03,16.46c9.97-1.21,28.7-2.76,35.77-3.21c2.6-0.17,3.92,1.18,3.78,2.43c-0.52,4.56-2.58,13.07-4.34,20.39" style="fill:none;stroke:#999;stroke-width:3" />
<path d="M706.5,15.75c0.75,1,1.29,2.06,1.29,2.88c-0.04,5.39,0.17,14.73,0.17,16.69" style="fill:none;stroke:#999;stroke-width:3" />
<path d="M691.72,26.39c3.08-0.23,32.18-2.58,34.73-2.58" style="fill:none;stroke:#999;stroke-width:3" />
<path d="M692.65,36.78c6.82,0,22.76-2.32,32.17-2.44" style="fill:none;stroke:#999;stroke-width:3" />
<path d="M672.77,45.82c0.2,0.38,0.57,1.04,0.68,1.51c0.88,3.84,2.54,10.59,3.06,17.65" style="fill:none;stroke:#999;stroke-width:3" />
<path d="M673.34,46.4c7.37-1,21.23-2.78,26.45-3.15c1.92-0.14,2.9,0.97,2.79,2c-0.38,3.77-1.41,11.29-2.71,17.32" style="fill:none;stroke:black;stroke-width:3" />
<circle cx="673.34" cy="46.4" r="5" stroke-width="0" fill="#FF2A00" opacity="0.7" />
<path d="M797.27,15.76c0.27,0.46,0.77,1.27,0.92,1.83c1.19,4.65,2.76,12.83,3.47,21.39" style="fill:none;stroke:#999;stroke-width:3" />
<path d="M798.03,16.46c9.97-1.21,28.7-2.76,35.77-3.21c2.6-0.17,3.92,1.18,3.78,2.43c-0.52,4.56-2.58,13.07-4.34,20.39" style="fill:none;stroke:#999;stroke-width:3" />
<path d="M815.5,15.75c0.75,1,1.29,2.06,1.29,2.88c-0.04,5.39,0.17,14.73,0.17,16.69" style="fill:none;stroke:#999;stroke-width:3" />
<path d="M800.72,26.39c3.08-0.23,32.18-2.58,34.73-2.58" style="fill:none;stroke:#999;stroke-width:3" />
<path d="M801.65,36.78c6.82,0,22.76-2.32,32.17-2.44" style="fill:none;stroke:#999;stroke-width:3" />
<path d="M781.77,45.82c0.2,0.38,0.57,1.04,0.68,1.51c0.88,3.84,2.54,10.59,3.06,17.65" style="fill:none;stroke:#999;stroke-width:3" />
<path d="M782.34,46.4c7.37-1,21.23-2.78,26.45-3.15c1.92-0.14,2.9,0.97,2.79,2c-0.38,3.77-1.41,11.29-2.71,17.32" style="fill:none;stroke:#999;stroke-width:3" />
<path d="M796.12,45.81c0.55,0.83,0.95,1.7,0.95,2.38c-0.03,4.45-0.25,12.16-0.25,13.77" style="fill:none;stroke:black;stroke-width:3" />
<circle cx="796.12" cy="45.81" r="5" stroke-width="0" fill="#FF2A00" opacity="0.7" />
<path d="M906.27,15.76c0.27,0.46,0.77,1.27,0.92,1.83c1.19,4.65,2.76,12.83,3.47,21.39" style="fill:none;stroke:#999;stroke-width:3" />
<path d="M907.03,16.46c9.97-1.21,28.7-2.76,35.77-3.21c2.6-0.17,3.92,1.18,3.78,2.43c-0.52,4.56-2.58,13.07-4.34,20.39" style="fill:none;stroke:#999;stroke-width:3" />
<path d="M924.5,15.75c0.75,1,1.29,2.06,1.29,2.88c-0.04,5.39,0.17,14.73,0.17,16.69" style="fill:none;stroke:#999;stroke-width:3" />
<path d="M909.72,26.39c3.08-0.23,32.18-2.58,34.73-2.58" style="fill:none;stroke:#999;stroke-width:3" />
<path d="M910.65,36.78c6.82,0,22.76-2.32,32.17-2.44" style="fill:none;stroke:#999;stroke-width:3" />
<path d="M890.77,45.82c0.2,0.38,0.57,1.04,0.68,1.51c0.88,3.84,2.54,10.59,3.06,17.65" style="fill:none;stroke:#999;stroke-width:3" />
<path d="M891.34,46.4c7.37-1,21.23-2.78,26.45-3.15c1.92-0.14,2.9,0.97,2.79,2c-0.38,3.77-1.41,11.29-2.71,17.32" style="fill:none;stroke:#999;stroke-width:3" />
<path d="M905.12,45.81c0.55,0.83,0.95,1.7,0.95,2.38c-0.03,4.45-0.25,12.16-0.25,13.77" style="fill:none;stroke:#999;stroke-width:3" />
<path d="M893.83,54.59c2.28-0.19,23.8-2.13,25.68-2.13" style="fill:none;stroke:black;stroke-width:3" />
<circle cx="893.83" cy="54.59" r="5" stroke-width="0" fill="#FF2A00" opacity="0.7" />
<path d="M1015.27,15.76c0.27,0.46,0.77,1.27,0.92,1.83c1.19,4.65,2.76,12.83,3.47,21.39" style="fill:none;stroke:#999;stroke-width:3" />
<path d="M1016.03,16.46c9.97-1.21,28.7-2.76,35.77-3.21c2.6-0.17,3.92,1.18,3.78,2.43c-0.52,4.56-2.58,13.07-4.34,20.39" style="fill:none;stroke:#999;stroke-width:3" />
<path d="M1033.5,15.75c0.75,1,1.29,2.06,1.29,2.88c-0.04,5.39,0.17,14.73,0.17,16.69" style="fill:none;stroke:#999;stroke-width:3" />
<path d="M1018.72,26.39c3.08-0.23,32.18-2.58,34.73-2.58" style="fill:none;stroke:#999;stroke-width:3" />
<path d="M1019.65,36.78c6.82,0,22.76-2.32,32.17-2.44" style="fill:none;stroke:#999;stroke-width:3" />
<path d="M999.77,45.82c0.2,0.38,0.57,1.04,0.68,1.51c0.88,3.84,2.54,10.59,3.06,17.65" style="fill:none;stroke:#999;stroke-width:3" />
<path d="M1000.34,46.4c7.37-1,21.23-2.78,26.45-3.15c1.92-0.14,2.9,0.97,2.79,2c-0.38,3.77-1.41,11.29-2.71,17.32" style="fill:none;stroke:#999;stroke-width:3" />
<path d="M1014.12,45.81c0.55,0.83,0.95,1.7,0.95,2.38c-0.03,4.45-0.25,12.16-0.25,13.77" style="fill:none;stroke:#999;stroke-width:3" />
<path d="M1002.83,54.59c2.28-0.19,23.8-2.13,25.68-2.13" style="fill:none;stroke:#999;stroke-width:3" />
<path d="M1003.51,63.16c5.04,0,16.83-1.92,23.79-2.02" style="fill:none;stroke:black;stroke-width:3" />
<circle cx="1003.51" cy="63.16" r="5" stroke-width="0" fill="#FF2A00" opacity="0.7" />
<path d="M1124.27,15.76c0.27,0.46,0.77,1.27,0.92,1.83c1.19,4.65,2.76,12.83,3.47,21.39" style="fill:none;stroke:#999;stroke-width:3" />
<path d="M1125.03,16.46c9.97-1.21,28.7-2.76,35.77-3.21c2.6-0.17,3.92,1.18,3.78,2.43c-0.52,4.56-2.58,13.07-4.34,20.39" style="fill:none;stroke:#999;stroke-width:3" />
<path d="M1142.5,15.75c0.75,1,1.29,2.06,1.29,2.88c-0.04,5.39,0.17,14.73,0.17,16.69" style="fill:none;stroke:#999;stroke-width:3" />
<path d="M1127.72,26.39c3.08-0.23,32.18-2.58,34.73-2.58" style="fill:none;stroke:#999;stroke-width:3" />
<path d="M1128.65,36.78c6.82,0,22.76-2.32,32.17-2.44" style="fill:none;stroke:#999;stroke-width:3" />
<path d="M1108.77,45.82c0.2,0.38,0.57,1.04,0.68,1.51c0.88,3.84,2.54,10.59,3.06,17.65" style="fill:none;stroke:#999;stroke-width:3" />
<path d="M1109.3400000000001,46.4c7.37-1,21.23-2.78,26.45-3.15c1.92-0.14,2.9,0.97,2.79,2c-0.38,3.77-1.41,11.29-2.71,17.32" style="fill:none;stroke:#999;stroke-width:3" />
<path d="M1123.12,45.81c0.55,0.83,0.95,1.7,0.95,2.38c-0.03,4.45-0.25,12.16-0.25,13.77" style="fill:none;stroke:#999;stroke-width:3" />
<path d="M1111.83,54.59c2.28-0.19,23.8-2.13,25.68-2.13" style="fill:none;stroke:#999;stroke-width:3" />
<path d="M1112.51,63.16c5.04,0,16.83-1.92,23.79-2.02" style="fill:none;stroke:#999;stroke-width:3" />
<path d="M1148.77,42.84c0.21,0.38,0.6,1.56,0.71,2.03c0.93,3.88,2.15,10.71,2.69,17.86" style="fill:none;stroke:black;stroke-width:3" />
<circle cx="1148.77" cy="42.84" r="5" stroke-width="0" fill="#FF2A00" opacity="0.7" />
<path d="M1233.27,15.76c0.27,0.46,0.77,1.27,0.92,1.83c1.19,4.65,2.76,12.83,3.47,21.39" style="fill:none;stroke:#999;stroke-width:3" />
<path d="M1234.03,16.46c9.97-1.21,28.7-2.76,35.77-3.21c2.6-0.17,3.92,1.18,3.78,2.43c-0.52,4.56-2.58,13.07-4.34,20.39" style="fill:none;stroke:#999;stroke-width:3" />
<path d="M1251.5,15.75c0.75,1,1.29,2.06,1.29,2.88c-0.04,5.39,0.17,14.73,0.17,16.69" style="fill:none;stroke:#999;stroke-width:3" />
<path d="M1236.72,26.39c3.08-0.23,32.18-2.58,34.73-2.58" style="fill:none;stroke:#999;stroke-width:3" />
<path d="M1237.65,36.78c6.82,0,22.76-2.32,32.17-2.44" style="fill:none;stroke:#999;stroke-width:3" />
<path d="M1217.77,45.82c0.2,0.38,0.57,1.04,0.68,1.51c0.88,3.84,2.54,10.59,3.06,17.65" style="fill:none;stroke:#999;stroke-width:3" />
<path d="M1218.3400000000001,46.4c7.37-1,21.23-2.78,26.45-3.15c1.92-0.14,2.9,0.97,2.79,2c-0.38,3.77-1.41,11.29-2.71,17.32" style="fill:none;stroke:#999;stroke-width:3" />
<path d="M1232.12,45.81c0.55,0.83,0.95,1.7,0.95,2.38c-0.03,4.45-0.25,12.16-0.25,13.77" style="fill:none;stroke:#999;stroke-width:3" />
<path d="M1220.83,54.59c2.28-0.19,23.8-2.13,25.68-2.13" style="fill:none;stroke:#999;stroke-width:3" />
<path d="M1221.51,63.16c5.04,0,16.83-1.92,23.79-2.02" style="fill:none;stroke:#999;stroke-width:3" />
<path d="M1257.77,42.84c0.21,0.38,0.6,1.56,0.71,2.03c0.93,3.88,2.15,10.71,2.69,17.86" style="fill:none;stroke:#999;stroke-width:3" />
<path d="M1258.37,43.93c7.74-1.01,22.79-2.8,28.28-3.18c2.02-0.14,3.04,0.98,2.93,2.03c-0.4,3.81-2.5,11.42-3.87,17.52" style="fill:none;stroke:black;stroke-width:3" />
<circle cx="1258.37" cy="43.93" r="5" stroke-width="0" fill="#FF2A00" opacity="0.7" />
<path d="M1342.27,15.76c0.27,0.46,0.77,1.27,0.92,1.83c1.19,4.65,2.76,12.83,3.47,21.39" style="fill:none;stroke:#999;stroke-width:3" />
<path d="M1343.03,16.46c9.97-1.21,28.7-2.76,35.77-3.21c2.6-0.17,3.92,1.18,3.78,2.43c-0.52,4.56-2.58,13.07-4.34,20.39" style="fill:none;stroke:#999;stroke-width:3" />
<path d="M1360.5,15.75c0.75,1,1.29,2.06,1.29,2.88c-0.04,5.39,0.17,14.73,0.17,16.69" style="fill:none;stroke:#999;stroke-width:3" />
<path d="M1345.72,26.39c3.08-0.23,32.18-2.58,34.73-2.58" style="fill:none;stroke:#999;stroke-width:3" />
<path d="M1346.65,36.78c6.82,0,22.76-2.32,32.17-2.44" style="fill:none;stroke:#999;stroke-width:3" />
<path d="M1326.77,45.82c0.2,0.38,0.57,1.04,0.68,1.51c0.88,3.84,2.54,10.59,3.06,17.65" style="fill:none;stroke:#999;stroke-width:3" />
<path d="M1327.3400000000001,46.4c7.37-1,21.23-2.78,26.45-3.15c1.92-0.14,2.9,0.97,2.79,2c-0.38,3.77-1.41,11.29-2.71,17.32" style="fill:none;stroke:#999;stroke-width:3" />
<path d="M1341.12,45.81c0.55,0.83,0.95,1.7,0.95,2.38c-0.03,4.45-0.25,12.16-0.25,13.77" style="fill:none;stroke:#999;stroke-width:3" />
<path d="M1329.83,54.59c2.28-0.19,23.8-2.13,25.68-2.13" style="fill:none;stroke:#999;stroke-width:3" />
<path d="M1330.51,63.16c5.04,0,16.83-1.92,23.79-2.02" style="fill:none;stroke:#999;stroke-width:3" />
<path d="M1366.77,42.84c0.21,0.38,0.6,1.56,0.71,2.03c0.93,3.88,2.15,10.71,2.69,17.86" style="fill:none;stroke:#999;stroke-width:3" />
<path d="M1367.37,43.93c7.74-1.01,22.79-2.8,28.28-3.18c2.02-0.14,3.04,0.98,2.93,2.03c-0.4,3.81-2.5,11.42-3.87,17.52" style="fill:none;stroke:#999;stroke-width:3" />
<path d="M1381.32,43.33c0.58,0.83,1,1.72,1,2.41c-0.03,4.5-0.26,12.3-0.26,13.93" style="fill:none;stroke:black;stroke-width:3" />
<circle cx="1381.32" cy="43.33" r="5" stroke-width="0" fill="#FF2A00" opacity="0.7" />
<path d="M1451.27,15.76c0.27,0.46,0.77,1.27,0.92,1.83c1.19,4.65,2.76,12.83,3.47,21.39" style="fill:none;stroke:#999;stroke-width:3" />
<path d="M1452.03,16.46c9.97-1.21,28.7-2.76,35.77-3.21c2.6-0.17,3.92,1.18,3.78,2.43c-0.52,4.56-2.58,13.07-4.34,20.39" style="fill:none;stroke:#999;stroke-width:3" />
<path d="M1469.5,15.75c0.75,1,1.29,2.06,1.29,2.88c-0.04,5.39,0.17,14.73,0.17,16.69" style="fill:none;stroke:#999;stroke-width:3" />
<path d="M1454.72,26.39c3.08-0.23,32.18-2.58,34.73-2.58" style="fill:none;stroke:#999;stroke-width:3" />
<path d="M1455.65,36.78c6.82,0,22.76-2.32,32.17-2.44" style="fill:none;stroke:#999;stroke-width:3" />
<path d="M1435.77,45.82c0.2,0.38,0.57,1.04,0.68,1.51c0.88,3.84,2.54,10.59,3.06,17.65" style="fill:none;stroke:#999;stroke-width:3" />
<path d="M1436.3400000000001,46.4c7.37-1,21.23-2.78,26.45-3.15c1.92-0.14,2.9,0.97,2.79,2c-0.38,3.77-1.41,11.29-2.71,17.32" style="fill:none;stroke:#999;stroke-width:3" />
<path d="M1450.12,45.81c0.55,0.83,0.95,1.7,0.95,2.38c-0.03,4.45-0.25,12.16-0.25,13.77" style="fill:none;stroke:#999;stroke-width:3" />
<path d="M1438.83,54.59c2.28-0.19,23.8-2.13,25.68-2.13" style="fill:none;stroke:#999;stroke-width:3" />
<path d="M1439.51,63.16c5.04,0,16.83-1.92,23.79-2.02" style="fill:none;stroke:#999;stroke-width:3" />
<path d="M1475.77,42.84c0.21,0.38,0.6,1.56,0.71,2.03c0.93,3.88,2.15,10.71,2.69,17.86" style="fill:none;stroke:#999;stroke-width:3" />
<path d="M1476.37,43.93c7.74-1.01,22.79-2.8,28.28-3.18c2.02-0.14,3.04,0.98,2.93,2.03c-0.4,3.81-2.5,11.42-3.87,17.52" style="fill:none;stroke:#999;stroke-width:3" />
<path d="M1490.32,43.33c0.58,0.83,1,1.72,1,2.41c-0.03,4.5-0.26,12.3-0.26,13.93" style="fill:none;stroke:#999;stroke-width:3" />
<path d="M1478.45,52.22c2.4-0.19,25-2.15,26.98-2.15" style="fill:none;stroke:black;stroke-width:3" />
<circle cx="1478.45" cy="52.22" r="5" stroke-width="0" fill="#FF2A00" opacity="0.7" />
<path d="M1560.27,15.76c0.27,0.46,0.77,1.27,0.92,1.83c1.19,4.65,2.76,12.83,3.47,21.39" style="fill:none;stroke:#999;stroke-width:3" />
<path d="M1561.03,16.46c9.97-1.21,28.7-2.76,35.77-3.21c2.6-0.17,3.92,1.18,3.78,2.43c-0.52,4.56-2.58,13.07-4.34,20.39" style="fill:none;stroke:#999;stroke-width:3" />
<path d="M1578.5,15.75c0.75,1,1.29,2.06,1.29,2.88c-0.04,5.39,0.17,14.73,0.17,16.69" style="fill:none;stroke:#999;stroke-width:3" />
<path d="M1563.72,26.39c3.08-0.23,32.18-2.58,34.73-2.58" style="fill:none;stroke:#999;stroke-width:3" />
<path d="M1564.65,36.78c6.82,0,22.76-2.32,32.17-2.44" style="fill:none;stroke:#999;stroke-width:3" />
<path d="M1544.77,45.82c0.2,0.38,0.57,1.04,0.68,1.51c0.88,3.84,2.54,10.59,3.06,17.65" style="fill:none;stroke:#999;stroke-width:3" />
<path d="M1545.3400000000001,46.4c7.37-1,21.23-2.78,26.45-3.15c1.92-0.14,2.9,0.97,2.79,2c-0.38,3.77-1.41,11.29-2.71,17.32" style="fill:none;stroke:#999;stroke-width:3" />
<path d="M1559.12,45.81c0.55,0.83,0.95,1.7,0.95,2.38c-0.03,4.45-0.25,12.16-0.25,13.77" style="fill:none;stroke:#999;stroke-width:3" />
<path d="M1547.83,54.59c2.28-0.19,23.8-2.13,25.68-2.13" style="fill:none;stroke:#999;stroke-width:3" />
<path d="M1548.51,63.16c5.04,0,16.83-1.92,23.79-2.02" style="fill:none;stroke:#999;stroke-width:3" />
<path d="M1584.77,42.84c0.21,0.38,0.6,1.56,0.71,2.03c0.93,3.88,2.15,10.71,2.69,17.86" style="fill:none;stroke:#999;stroke-width:3" />
<path d="M1585.37,43.93c7.74-1.01,22.79-2.8,28.28-3.18c2.02-0.14,3.04,0.98,2.93,2.03c-0.4,3.81-2.5,11.42-3.87,17.52" style="fill:none;stroke:#999;stroke-width:3" />
<path d="M1599.32,43.33c0.58,0.83,1,1.72,1,2.41c-0.03,4.5-0.26,12.3-0.26,13.93" style="fill:none;stroke:#999;stroke-width:3" />
<path d="M1587.45,52.22c2.4-0.19,25-2.15,26.98-2.15" style="fill:none;stroke:#999;stroke-width:3" />
<path d="M1588.17,60.89c5.29,0,17.68-1.94,24.99-2.04" style="fill:none;stroke:black;stroke-width:3" />
<circle cx="1588.17" cy="60.89" r="5" stroke-width="0" fill="#FF2A00" opacity="0.7" />
<path d="M1669.27,15.76c0.27,0.46,0.77,1.27,0.92,1.83c1.19,4.65,2.76,12.83,3.47,21.39" style="fill:none;stroke:#999;stroke-width:3" />
<path d="M1670.03,16.46c9.97-1.21,28.7-2.76,35.77-3.21c2.6-0.17,3.92,1.18,3.78,2.43c-0.52,4.56-2.58,13.07-4.34,20.39" style="fill:none;stroke:#999;stroke-width:3" />
<path d="M1687.5,15.75c0.75,1,1.29,2.06,1.29,2.88c-0.04,5.39,0.17,14.73,0.17,16.69" style="fill:none;stroke:#999;stroke-width:3" />
<path d="M1672.72,26.39c3.08-0.23,32.18-2.58,34.73-2.58" style="fill:none;stroke:#999;stroke-width:3" />
<path d="M1673.65,36.78c6.82,0,22.76-2.32,32.17-2.44" style="fill:none;stroke:#999;stroke-width:3" />
<path d="M1653.77,45.82c0.2,0.38,0.57,1.04,0.68,1.51c0.88,3.84,2.54,10.59,3.06,17.65" style="fill:none;stroke:#999;stroke-width:3" />
<path d="M1654.3400000000001,46.4c7.37-1,21.23-2.78,26.45-3.15c1.92-0.14,2.9,0.97,2.79,2c-0.38,3.77-1.41,11.29-2.71,17.32" style="fill:none;stroke:#999;stroke-width:3" />
<path d="M1668.12,45.81c0.55,0.83,0.95,1.7,0.95,2.38c-0.03,4.45-0.25,12.16-0.25,13.77" style="fill:none;stroke:#999;stroke-width:3" />
<path d="M1656.83,54.59c2.28-0.19,23.8-2.13,25.68-2.13" style="fill:none;stroke:#999;stroke-width:3" />
<path d="M1657.51,63.16c5.04,0,16.83-1.92,23.79-2.02" style="fill:none;stroke:#999;stroke-width:3" />
<path d="M1693.77,42.84c0.21,0.38,0.6,1.56,0.71,2.03c0.93,3.88,2.15,10.71,2.69,17.86" style="fill:none;stroke:#999;stroke-width:3" />
<path d="M1694.37,43.93c7.74-1.01,22.79-2.8,28.28-3.18c2.02-0.14,3.04,0.98,2.93,2.03c-0.4,3.81-2.5,11.42-3.87,17.52" style="fill:none;stroke:#999;stroke-width:3" />
<path d="M1708.32,43.33c0.58,0.83,1,1.72,1,2.41c-0.03,4.5-0.26,12.3-0.26,13.93" style="fill:none;stroke:#999;stroke-width:3" />
<path d="M1696.45,52.22c2.4-0.19,25-2.15,26.98-2.15" style="fill:none;stroke:#999;stroke-width:3" />
<path d="M1697.17,60.89c5.29,0,17.68-1.94,24.99-2.04" style="fill:none;stroke:#999;stroke-width:3" />
<path d="M1666.19,78.25c0.88,0.34,2.51,0.44,3.39,0.34c11.37-1.17,31.21-3.15,42.65-3.45c1.47-0.04,2.36,0.16,3.1,0.34" style="fill:none;stroke:black;stroke-width:3" />
<circle cx="1666.19" cy="78.25" r="5" stroke-width="0" fill="#FF2A00" opacity="0.7" />
<path d="M1778.27,15.76c0.27,0.46,0.77,1.27,0.92,1.83c1.19,4.65,2.76,12.83,3.47,21.39" style="fill:none;stroke:#999;stroke-width:3" />
<path d="M1779.03,16.46c9.97-1.21,28.7-2.76,35.77-3.21c2.6-0.17,3.92,1.18,3.78,2.43c-0.52,4.56-2.58,13.07-4.34,20.39" style="fill:none;stroke:#999;stroke-width:3" />
<path d="M1796.5,15.75c0.75,1,1.29,2.06,1.29,2.88c-0.04,5.39,0.17,14.73,0.17,16.69" style="fill:none;stroke:#999;stroke-width:3" />
<path d="M1781.72,26.39c3.08-0.23,32.18-2.58,34.73-2.58" style="fill:none;stroke:#999;stroke-width:3" />
<path d="M1782.65,36.78c6.82,0,22.76-2.32,32.17-2.44" style="fill:none;stroke:#999;stroke-width:3" />
<path d="M1762.77,45.82c0.2,0.38,0.57,1.04,0.68,1.51c0.88,3.84,2.54,10.59,3.06,17.65" style="fill:none;stroke:#999;stroke-width:3" />
<path d="M1763.3400000000001,46.4c7.37-1,21.23-2.78,26.45-3.15c1.92-0.14,2.9,0.97,2.79,2c-0.38,3.77-1.41,11.29-2.71,17.32" style="fill:none;stroke:#999;stroke-width:3" />
<path d="M1777.12,45.81c0.55,0.83,0.95,1.7,0.95,2.38c-0.03,4.45-0.25,12.16-0.25,13.77" style="fill:none;stroke:#999;stroke-width:3" />
<path d="M1765.83,54.59c2.28-0.19,23.8-2.13,25.68-2.13" style="fill:none;stroke:#999;stroke-width:3" />
<path d="M1766.51,63.16c5.04,0,16.83-1.92,23.79-2.02" style="fill:none;stroke:#999;stroke-width:3" />
<path d="M1802.77,42.84c0.21,0.38,0.6,1.56,0.71,2.03c0.93,3.88,2.15,10.71,2.69,17.86" style="fill:none;stroke:#999;stroke-width:3" />
<path d="M1803.37,43.93c7.74-1.01,22.79-2.8,28.28-3.18c2.02-0.14,3.04,0.98,2.93,2.03c-0.4,3.81-2.5,11.42-3.87,17.52" style="fill:none;stroke:#999;stroke-width:3" />
<path d="M1817.32,43.33c0.58,0.83,1,1.72,1,2.41c-0.03,4.5-0.26,12.3-0.26,13.93" style="fill:none;stroke:#999;stroke-width:3" />
<path d="M1805.45,52.22c2.4-0.19,25-2.15,26.98-2.15" style="fill:none;stroke:#999;stroke-width:3" />
<path d="M1806.17,60.89c5.29,0,17.68-1.94,24.99-2.04" style="fill:none;stroke:#999;stroke-width:3" />
<path d="M1775.19,78.25c0.88,0.34,2.51,0.44,3.39,0.34c11.37-1.17,31.21-3.15,42.65-3.45c1.47-0.04,2.36,0.16,3.1,0.34" style="fill:none;stroke:#999;stroke-width:3" />
<path d="M1796.95,63c0.11,0.26,1.6,1.37,1.6,3.05c0,10.82-0.32,13.68-0.32,27.98" style="fill:none;stroke:black;stroke-width:3" />
<circle cx="1796.95" cy="63.0" r="5" stroke-width="0" fill="#FF2A00" opacity="0.7" />
<path d="M1887.27,15.76c0.27,0.46,0.77,1.27,0.92,1.83c1.19,4.65,2.76,12.83,3.47,21.39" style="fill:none;stroke:#999;stroke-width:3" />
<path d="M1888.03,16.46c9.97-1.21,28.7-2.76,35.77-3.21c2.6-0.17,3.92,1.18,3.78,2.43c-0.52,4.56-2.58,13.07-4.34,20.39" style="fill:none;stroke:#999;stroke-width:3" />
<path d="M1905.5,15.75c0.75,1,1.29,2.06,1.29,2.88c-0.04,5.39,0.17,14.73,0.17,16.69" style="fill:none;stroke:#999;stroke-width:3" />
<path d="M1890.72,26.39c3.08-0.23,32.18-2.58,34.73-2.58" style="fill:none;stroke:#999;stroke-width:3" />
<path d="M1891.65,36.78c6.82,0,22.76-2.32,32.17-2.44" style="fill:none;stroke:#999;stroke-width:3" />
<path d="M1871.77,45.82c0.2,0.38,0.57,1.04,0.68,1.51c0.88,3.84,2.54,10.59,3.06,17.65" style="fill:none;stroke:#999;stroke-width:3" />
<path d="M1872.3400000000001,46.4c7.37-1,21.23-2.78,26.45-3.15c1.92-0.14,2.9,0.97,2.79,2c-0.38,3.77-1.41,11.29-2.71,17.32" style="fill:none;stroke:#999;stroke-width:3" />
<path d="M1886.12,45.81c0.55,0.83,0.95,1.7,0.95,2.38c-0.03,4.45-0.25,12.16-0.25,13.77" style="fill:none;stroke:#999;stroke-width:3" />
<path d="M1874.83,54.59c2.28-0.19,23.8-2.13,25.68-2.13" style="fill:none;stroke:#999;stroke-width:3" />
<path d="M1875.51,63.16c5.04,0,16.83-1.92,23.79-2.02" style="fill:none;stroke:#999;stroke-width:3" />
<path d="M1911.77,42.84c0.21,0.38,0.6,1.56,0.71,2.03c0.93,3.88,2.15,10.71,2.69,17.86" style="fill:none;stroke:#999;stroke-width:3" />
<path d="M1912.37,43.93c7.74-1.01,22.79-2.8,28.28-3.18c2.02-0.14,3.04,0.98,2.93,2.03c-0.4,3.81-2.5,11.42-3.87,17.52" style="fill:none;stroke:#999;stroke-width:3" />
<path d="M1926.32,43.33c0.58,0.83,1,1.72,1,2.41c-0.03,4.5-0.26,12.3-0.26,13.93" style="fill:none;stroke:#999;stroke-width:3" />
<path d="M1914.45,52.22c2.4-0.19,25-2.15,26.98-2.15" style="fill:none;stroke:#999;stroke-width:3" />
<path d="M1915.17,60.89c5.29,0,17.68-1.94,24.99-2.04" style="fill:none;stroke:#999;stroke-width:3" />
<path d="M1884.19,78.25c0.88,0.34,2.51,0.44,3.39,0.34c11.37-1.17,31.21-3.15,42.65-3.45c1.47-0.04,2.36,0.16,3.1,0.34" style="fill:none;stroke:#999;stroke-width:3" />
<path d="M1905.95,63c0.11,0.26,1.6,1.37,1.6,3.05c0,10.82-0.32,13.68-0.32,27.98" style="fill:none;stroke:#999;stroke-width:3" />
<path d="M1871.04,95.67c1.37,0.49,3.88,0.6,5.25,0.49c16.95-1.37,50.96-3.07,66.12-3.71c2.28-0.1,3.65,0.23,4.79,0.48" style="fill:none;stroke:black;stroke-width:3" />
<circle cx="1871.04" cy="95.67" r="5" stroke-width="0" fill="#FF2A00" opacity="0.7" />
</svg>