<!-- 05915 -->
<svg width="327px" height="109px" viewBox="0 0 327px 109px" xmlns="http://www.w3.org/2000/svg" xmlns:xlink="http://www.w3.org/1999/xlink" xml:space="preserve" version="1.1"  baseProfile="full">
<line x1="1" y1="1" x2="326" y2="1" style="stroke:#ddd;stroke-width:2" />
<line x1="1" y1="1" x2="1" y2="108" style="stroke:#ddd;stroke-width:2" />
<line x1="1" y1="108" x2="326" y2="108" style="stroke:#ddd;stroke-width:2" />
<line x1="326" y1="1" x2="326" y2="108" style="stroke:#ddd;stroke-width:2" />
<line x1="109" y1="1" x2="109" y2="108" style="stroke:#ddd;stroke-width:2" />
<line x1="218" y1="1" x2="218" y2="108" style="stroke:#ddd;stroke-width:2" />
<line x1="1" y1="54" x2="326" y2="54" style="stroke:#ddd;stroke-width:2;stroke-dasharray:3 3" />
<line x1="55" y1="1" x2="55" y2="108" style="stroke:#ddd;stroke-width:2;stroke-dasharray:3 3" />
<line x1="164" y1="1" x2="164" y2="108" style="stroke:#ddd;stroke-width:2;stroke-dasharray:3 3" />
<line x1="273" y1="1" x2="273" y2="108" style="stroke:#ddd;stroke-width:2;stroke-dasharray:3 3" />
<path d="M52.99,13.14c0.26,1.61,0,3.47-0.49,4.61C49.0,26 41.38,39.25 27.56,48.97" style="fill:none;stroke:black;stroke-width:3" />
<circle cx="52.99" cy="13.14" r="5" stroke-width="0" fill="#FF2A00" opacity="0.7" />
<path d="M161.99,13.14c0.26,1.61,0,3.47-0.49,4.61C158.0,26 150.38,39.25 136.56,48.97" style="fill:none;stroke:#999;stroke-width:3" />
<path d="M163.0,23.5c1.75,0.5,3.47,0.6,4.78,0.33c5.22-1.08,10.97-2.58,17.56-4.58c4.26-1.29,6.14,0.55,4.41,4.53C179.0,48.5 157.62,78.38 126.75,93" style="fill:none;stroke:black;stroke-width:3" />
<circle cx="163.0" cy="23.5" r="5" stroke-width="0" fill="#FF2A00" opacity="0.7" />
<path d="M270.99,13.14c0.26,1.61,0,3.47-0.49,4.61C267.0,26 259.38,39.25 245.56,48.97" style="fill:none;stroke:#999;stroke-width:3" />
<path d="M272.0,23.5c1.75,0.5,3.47,0.6,4.78,0.33c5.22-1.08,10.97-2.58,17.56-4.58c4.26-1.29,6.14,0.55,4.41,4.53C288.0,48.5 266.62,78.38 235.75,93" style="fill:none;stroke:#999;stroke-width:3" />
<path d="M263.25,42.62c4.84,2.36,12.04,9.2,13.25,12.88" style="fill:none;stroke:black;stroke-width:3" />
<circle cx="263.25" cy="42.62" r="5" stroke-width="0" fill="#FF2A00" opacity="0.7" />
</svg>