<!-- 05932 -->
<svg width="545px" height="109px" viewBox="0 0 545px 109px" xmlns="http://www.w3.org/2000/svg" xmlns:xlink="http://www.w3.org/1999/xlink" xml:space="preserve" version="1.1"  baseProfile="full">
<line x1="1" y1="1" x2="544" y2="1" style="stroke:#ddd;stroke-width:2" />
<line x1="1" y1="1" x2="1" y2="108" style="stroke:#ddd;stroke-width:2" />
<line x1="1" y1="108" x2="544" y2="108" style="stroke:#ddd;stroke-width:2" />
<line x1="544" y1="1" x2="544" y2="108" style="stroke:#ddd;stroke-width:2" />
<line x1="109" y1="1" x2="109" y2="108" style="stroke:#ddd;stroke-width:2" />
<line x1="218" y1="1" x2="218" y2="108" style="stroke:#ddd;stroke-width:2" />
<line x1="327" y1="1" x2="327" y2="108" style="stroke:#ddd;stroke-width:2" />
<line x1="436" y1="1" x2="436" y2="108" style="stroke:#ddd;stroke-width:2" />
<line x1="1" y1="54" x2="544" y2="54" style="stroke:#ddd;stroke-width:2;stroke-dasharray:3 3" />
<line x1="55" y1="1" x2="55" y2="108" style="stroke:#ddd;stroke-width:2;stroke-dasharray:3 3" />
<line x1="164" y1="1" x2="164" y2="108" style="stroke:#ddd;stroke-width:2;stroke-dasharray:3 3" />
<line x1="273" y1="1" x2="273" y2="108" style="stroke:#ddd;stroke-width:2;stroke-dasharray:3 3" />
<line x1="382" y1="1" x2="382" y2="108" style="stroke:#ddd;stroke-width:2;stroke-dasharray:3 3" />
<line x1="491" y1="1" x2="491" y2="108" style="stroke:#ddd;stroke-width:2;stroke-dasharray:3 3" />
<path d="M17.99,30.95c1.26,0.48,4.6,1.04,7.27,0.83c18.03-1.43,41.71-4.28,57.89-4.97c2.78-0.12,5.02-0.06,7.53,0.31" style="fill:none;stroke:black;stroke-width:3" />
<circle cx="17.99" cy="30.95" r="5" stroke-width="0" fill="#FF2A00" opacity="0.7" />
<path d="M126.99,30.95c1.26,0.48,4.6,1.04,7.27,0.83c18.03-1.43,41.71-4.28,57.89-4.97c2.78-0.12,5.02-0.06,7.53,0.31" style="fill:none;stroke:#999;stroke-width:3" />
<path d="M160.36,12c0.58,0.75,1.02,1.63,0.87,3.26C159.25,36 144.75,58.75 124.0,66.57" style="fill:none;stroke:black;stroke-width:3" />
<circle cx="160.36" cy="12.0" r="5" stroke-width="0" fill="#FF2A00" opacity="0.7" />
<path d="M235.99,30.95c1.26,0.48,4.6,1.04,7.27,0.83c18.03-1.43,41.71-4.28,57.89-4.97c2.78-0.12,5.02-0.06,7.53,0.31" style="fill:none;stroke:#999;stroke-width:3" />
<path d="M269.36,12c0.58,0.75,1.02,1.63,0.87,3.26C268.25,36 253.75,58.75 233.0,66.57" style="fill:none;stroke:#999;stroke-width:3" />
<path d="M275.19,29.15c7.75,6.47,25.82,22.94,33.56,27.27c2.63,1.47,3.55,1.69,4.75,1.83" style="fill:none;stroke:black;stroke-width:3" />
<circle cx="275.19" cy="29.15" r="5" stroke-width="0" fill="#FF2A00" opacity="0.7" />
<path d="M344.99,30.95c1.26,0.48,4.6,1.04,7.27,0.83c18.03-1.43,41.71-4.28,57.89-4.97c2.78-0.12,5.02-0.06,7.53,0.31" style="fill:none;stroke:#999;stroke-width:3" />
<path d="M378.36,12c0.58,0.75,1.02,1.63,0.87,3.26C377.25,36 362.75,58.75 342.0,66.57" style="fill:none;stroke:#999;stroke-width:3" />
<path d="M384.19,29.15c7.75,6.47,25.82,22.94,33.56,27.27c2.63,1.47,3.55,1.69,4.75,1.83" style="fill:none;stroke:#999;stroke-width:3" />
<path d="M356.61,70.03c0.9,0.3,2.57,0.38,3.47,0.3c11.5-0.99,34.73-3.37,42.66-3.48c1.51-0.02,2.41,0.14,3.17,0.3" style="fill:none;stroke:black;stroke-width:3" />
<circle cx="356.61" cy="70.03" r="5" stroke-width="0" fill="#FF2A00" opacity="0.7" />
<path d="M453.99,30.95c1.26,0.48,4.6,1.04,7.27,0.83c18.03-1.43,41.71-4.28,57.89-4.97c2.78-0.12,5.02-0.06,7.53,0.31" style="fill:none;stroke:#999;stroke-width:3" />
<path d="M487.36,12c0.58,0.75,1.02,1.63,0.87,3.26C486.25,36 471.75,58.75 451.0,66.57" style="fill:none;stroke:#999;stroke-width:3" />
<path d="M493.19,29.15c7.75,6.47,25.82,22.94,33.56,27.27c2.63,1.47,3.55,1.69,4.75,1.83" style="fill:none;stroke:#999;stroke-width:3" />
<path d="M465.61,70.03c0.9,0.3,2.57,0.38,3.47,0.3c11.5-0.99,34.73-3.37,42.66-3.48c1.51-0.02,2.41,0.14,3.17,0.3" style="fill:none;stroke:#999;stroke-width:3" />
<path d="M488.89,51.88c0.42,0.34,1.32,2.53,1.41,3.2c0.08,0.68-0.05,40.83-0.14,45.05" style="fill:none;stroke:black;stroke-width:3" />
<circle cx="488.89" cy="51.88" r="5" stroke-width="0" fill="#FF2A00" opacity="0.7" />
</svg>