<!-- 05a09 -->
<svg width="1090px" height="109px" viewBox="0 0 1090px 109px" xmlns="http://www.w3.org/2000/svg" xmlns:xlink="http://www.w3.org/1999/xlink" xml:space="preserve" version="1.1"  baseProfile="full">
<line x1="1" y1="1" x2="1089" y2="1" style="stroke:#ddd;stroke-width:2" />
<line x1="1" y1="1" x2="1" y2="108" style="stroke:#ddd;stroke-width:2" />
<line x1="1" y1="108" x2="1089" y2="108" style="stroke:#ddd;stroke-width:2" />
<line x1="1089" y1="1" x2="1089" y2="108" style="stroke:#ddd;stroke-width:2" />
<line x1="109" y1="1" x2="109" y2="108" style="stroke:#ddd;stroke-width:2" />
<line x1="218" y1="1" x2="218" y2="108" style="stroke:#ddd;stroke-width:2" />
<line x1="327" y1="1" x2="327" y2="108" style="stroke:#ddd;stroke-width:2" />
<line x1="436" y1="1" x2="436" y2="108" style="stroke:#ddd;stroke-width:2" />
<line x1="545" y1="1" x2="545" y2="108" style="stroke:#ddd;stroke-width:2" />
<line x1="654" y1="1" x2="654" y2="108" style="stroke:#ddd;stroke-width:2" />
<line x1="763" y1="1" x2="763" y2="108" style="stroke:#ddd;stroke-width:2" />
<line x1="872" y1="1" x2="872" y2="108" style="stroke:#ddd;stroke-width:2" />
<line x1="981" y1="1" x2="981" y2="108" style="stroke:#ddd;stroke-width:2" />
<line x1="1" y1="54" x2="1089" y2="54" style="stroke:#ddd;stroke-width:2;stroke-dasharray:3 3" />
<line x1="55" y1="1" x2="55" y2="108" style="stroke:#ddd;stroke-width:2;stroke-dasharray:3 3" />
<line x1="164" y1="1" x2="164" y2="108" style="stroke:#ddd;stroke-width:2;stroke-dasharray:3 3" />
<line x1="273" y1="1" x2="273" y2="108" style="stroke:#ddd;stroke-width:2;stroke-dasharray:3 3" />
<line x1="382" y1="1" x2="382" y2="108" style="stroke:#ddd;stroke-width:2;stroke-dasharray:3 3" />
<line x1="491" y1="1" x2="491" y2="108" style="stroke:#ddd;stroke-width:2;stroke-dasharray:3 3" />
<line x1="600" y1="1" x2="600" y2="108" style="stroke:#ddd;stroke-width:2;stroke-dasharray:3 3" />
<line x1="709" y1="1" x2="709" y2="108" style="stroke:#ddd;stroke-width:2;stroke-dasharray:3 3" />
<line x1="818" y1="1" x2="818" y2="108" style="stroke:#ddd;stroke-width:2;stroke-dasharray:3 3" />
<line x1="927" y1="1" x2="927" y2="108" style="stroke:#ddd;stroke-width:2;stroke-dasharray:3 3" />
<line x1="1036" y1="1" x2="1036" y2="108" style="stroke:#ddd;stroke-width:2;stroke-dasharray:3 3" />
<path d="M28.48,17.37c0.39,1.04,1.08,2.74,0.89,4.24C28.38,29 22.05,54.77 17.73,63.4c-0.89,1.77,0.4,2.46,0.89,2.63C28.0,69.25 36.5,76.66 41.75,84.28" style="fill:none;stroke:black;stroke-width:3" />
<circle cx="28.48" cy="17.37" r="5" stroke-width="0" fill="#FF2A00" opacity="0.7" />
<path d="M137.48,17.37c0.39,1.04,1.08,2.74,0.89,4.24C137.38,29 131.05,54.77 126.73,63.4c-0.89,1.77,0.4,2.46,0.89,2.63C137.0,69.25 145.5,76.66 150.75,84.28" style="fill:none;stroke:#999;stroke-width:3" />
<path d="M149.75,37.39c0.08,1.27,0.14,4.34-0.16,6.18C147.18,58.41 140.23,79.46 123.0,90.5" style="fill:none;stroke:black;stroke-width:3" />
<circle cx="149.75" cy="37.39" r="5" stroke-width="0" fill="#FF2A00" opacity="0.7" />
<path d="M246.48,17.37c0.39,1.04,1.08,2.74,0.89,4.24C246.38,29 240.05,54.77 235.73000000000002,63.4c-0.89,1.77,0.4,2.46,0.89,2.63C246.0,69.25 254.5,76.66 259.75,84.28" style="fill:none;stroke:#999;stroke-width:3" />
<path d="M258.75,37.39c0.08,1.27,0.14,4.34-0.16,6.18C256.18,58.41 249.23,79.46 232.0,90.5" style="fill:none;stroke:#999;stroke-width:3" />
<path d="M227.5,46.92c0.77,0.81,1.8,1.4,3.86,1.2c2.22-0.21,21.97-4.18,31.14-6.24" style="fill:none;stroke:black;stroke-width:3" />
<circle cx="227.5" cy="46.92" r="5" stroke-width="0" fill="#FF2A00" opacity="0.7" />
<path d="M355.48,17.37c0.39,1.04,1.08,2.74,0.89,4.24C355.38,29 349.05,54.77 344.73,63.4c-0.89,1.77,0.4,2.46,0.89,2.63C355.0,69.25 363.5,76.66 368.75,84.28" style="fill:none;stroke:#999;stroke-width:3" />
<path d="M367.75,37.39c0.08,1.27,0.14,4.34-0.16,6.18C365.18,58.41 358.23,79.46 341.0,90.5" style="fill:none;stroke:#999;stroke-width:3" />
<path d="M336.5,46.92c0.77,0.81,1.8,1.4,3.86,1.2c2.22-0.21,21.97-4.18,31.14-6.24" style="fill:none;stroke:#999;stroke-width:3" />
<path d="M376.56,22.83c0.51,0.62,0.91,1.27,1.03,1.81c0.98,4.47,2.84,14.1,3.42,22.32" style="fill:none;stroke:black;stroke-width:3" />
<circle cx="376.56" cy="22.83" r="5" stroke-width="0" fill="#FF2A00" opacity="0.7" />
<path d="M464.48,17.37c0.39,1.04,1.08,2.74,0.89,4.24C464.38,29 458.05,54.77 453.73,63.4c-0.89,1.77,0.4,2.46,0.89,2.63C464.0,69.25 472.5,76.66 477.75,84.28" style="fill:none;stroke:#999;stroke-width:3" />
<path d="M476.75,37.39c0.08,1.27,0.14,4.34-0.16,6.18C474.18,58.41 467.23,79.46 450.0,90.5" style="fill:none;stroke:#999;stroke-width:3" />
<path d="M445.5,46.92c0.77,0.81,1.8,1.4,3.86,1.2c2.22-0.21,21.97-4.18,31.14-6.24" style="fill:none;stroke:#999;stroke-width:3" />
<path d="M485.56,22.83c0.51,0.62,0.91,1.27,1.03,1.81c0.98,4.47,2.84,14.1,3.42,22.32" style="fill:none;stroke:#999;stroke-width:3" />
<path d="M487.28,24.04c9.17-1.12,31.52-3.19,37.32-3.63c2.13-0.16,2.93,1.13,2.81,2.33c-0.43,4.38-1.71,14.74-3.05,21.96" style="fill:none;stroke:black;stroke-width:3" />
<circle cx="487.28" cy="24.04" r="5" stroke-width="0" fill="#FF2A00" opacity="0.7" />
<path d="M573.48,17.37c0.39,1.04,1.08,2.74,0.89,4.24C573.38,29 567.05,54.77 562.73,63.4c-0.89,1.77,0.4,2.46,0.89,2.63C573.0,69.25 581.5,76.66 586.75,84.28" style="fill:none;stroke:#999;stroke-width:3" />
<path d="M585.75,37.39c0.08,1.27,0.14,4.34-0.16,6.18C583.1800000000001,58.41 576.23,79.46 559.0,90.5" style="fill:none;stroke:#999;stroke-width:3" />
<path d="M554.5,46.92c0.77,0.81,1.8,1.4,3.86,1.2c2.22-0.21,21.97-4.18,31.14-6.24" style="fill:none;stroke:#999;stroke-width:3" />
<path d="M594.56,22.83c0.51,0.62,0.91,1.27,1.03,1.81c0.98,4.47,2.84,14.1,3.42,22.32" style="fill:none;stroke:#999;stroke-width:3" />
<path d="M596.28,24.04c9.17-1.12,31.52-3.19,37.32-3.63c2.13-0.16,2.93,1.13,2.81,2.33c-0.43,4.38-1.71,14.74-3.05,21.96" style="fill:none;stroke:#999;stroke-width:3" />
<path d="M613.71,10.11c1.22,0.97,1.94,2.38,1.95,3.65C615.7,26.4 615.88,41.4 615.88,44.7" style="fill:none;stroke:black;stroke-width:3" />
<circle cx="613.71" cy="10.11" r="5" stroke-width="0" fill="#FF2A00" opacity="0.7" />
<path d="M682.48,17.37c0.39,1.04,1.08,2.74,0.89,4.24C682.38,29 676.05,54.77 671.73,63.4c-0.89,1.77,0.4,2.46,0.89,2.63C682.0,69.25 690.5,76.66 695.75,84.28" style="fill:none;stroke:#999;stroke-width:3" />
<path d="M694.75,37.39c0.08,1.27,0.14,4.34-0.16,6.18C692.1800000000001,58.41 685.23,79.46 668.0,90.5" style="fill:none;stroke:#999;stroke-width:3" />
<path d="M663.5,46.92c0.77,0.81,1.8,1.4,3.86,1.2c2.22-0.21,21.97-4.18,31.14-6.24" style="fill:none;stroke:#999;stroke-width:3" />
<path d="M703.56,22.83c0.51,0.62,0.91,1.27,1.03,1.81c0.98,4.47,2.84,14.1,3.42,22.32" style="fill:none;stroke:#999;stroke-width:3" />
<path d="M705.28,24.04c9.17-1.12,31.52-3.19,37.32-3.63c2.13-0.16,2.93,1.13,2.81,2.33c-0.43,4.38-1.71,14.74-3.05,21.96" style="fill:none;stroke:#999;stroke-width:3" />
<path d="M722.71,10.11c1.22,0.97,1.94,2.38,1.95,3.65C724.7,26.4 724.88,41.4 724.88,44.7" style="fill:none;stroke:#999;stroke-width:3" />
<path d="M706.66,34.02c2.53-0.22,35.66-3.01,37.75-3.01" style="fill:none;stroke:black;stroke-width:3" />
<circle cx="706.66" cy="34.02" r="5" stroke-width="0" fill="#FF2A00" opacity="0.7" />
<path d="M791.48,17.37c0.39,1.04,1.08,2.74,0.89,4.24C791.38,29 785.05,54.77 780.73,63.4c-0.89,1.77,0.4,2.46,0.89,2.63C791.0,69.25 799.5,76.66 804.75,84.28" style="fill:none;stroke:#999;stroke-width:3" />
<path d="M803.75,37.39c0.08,1.27,0.14,4.34-0.16,6.18C801.1800000000001,58.41 794.23,79.46 777.0,90.5" style="fill:none;stroke:#999;stroke-width:3" />
<path d="M772.5,46.92c0.77,0.81,1.8,1.4,3.86,1.2c2.22-0.21,21.97-4.18,31.14-6.24" style="fill:none;stroke:#999;stroke-width:3" />
<path d="M812.56,22.83c0.51,0.62,0.91,1.27,1.03,1.81c0.98,4.47,2.84,14.1,3.42,22.32" style="fill:none;stroke:#999;stroke-width:3" />
<path d="M814.28,24.04c9.17-1.12,31.52-3.19,37.32-3.63c2.13-0.16,2.93,1.13,2.81,2.33c-0.43,4.38-1.71,14.74-3.05,21.96" style="fill:none;stroke:#999;stroke-width:3" />
<path d="M831.71,10.11c1.22,0.97,1.94,2.38,1.95,3.65C833.7,26.4 833.88,41.4 833.88,44.7" style="fill:none;stroke:#999;stroke-width:3" />
<path d="M815.66,34.02c2.53-0.22,35.66-3.01,37.75-3.01" style="fill:none;stroke:#999;stroke-width:3" />
<path d="M817.41,45.85c6.4-0.32,26.3-2.22,34.03-2.34" style="fill:none;stroke:black;stroke-width:3" />
<circle cx="817.41" cy="45.85" r="5" stroke-width="0" fill="#FF2A00" opacity="0.7" />
<path d="M900.48,17.37c0.39,1.04,1.08,2.74,0.89,4.24C900.38,29 894.05,54.77 889.73,63.4c-0.89,1.77,0.4,2.46,0.89,2.63C900.0,69.25 908.5,76.66 913.75,84.28" style="fill:none;stroke:#999;stroke-width:3" />
<path d="M912.75,37.39c0.08,1.27,0.14,4.34-0.16,6.18C910.1800000000001,58.41 903.23,79.46 886.0,90.5" style="fill:none;stroke:#999;stroke-width:3" />
<path d="M881.5,46.92c0.77,0.81,1.8,1.4,3.86,1.2c2.22-0.21,21.97-4.18,31.14-6.24" style="fill:none;stroke:#999;stroke-width:3" />
<path d="M921.56,22.83c0.51,0.62,0.91,1.27,1.03,1.81c0.98,4.47,2.84,14.1,3.42,22.32" style="fill:none;stroke:#999;stroke-width:3" />
<path d="M923.28,24.04c9.17-1.12,31.52-3.19,37.32-3.63c2.13-0.16,2.93,1.13,2.81,2.33c-0.43,4.38-1.71,14.74-3.05,21.96" style="fill:none;stroke:#999;stroke-width:3" />
<path d="M940.71,10.11c1.22,0.97,1.94,2.38,1.95,3.65C942.7,26.4 942.88,41.4 942.88,44.7" style="fill:none;stroke:#999;stroke-width:3" />
<path d="M924.66,34.02c2.53-0.22,35.66-3.01,37.75-3.01" style="fill:none;stroke:#999;stroke-width:3" />
<path d="M926.41,45.85c6.4-0.32,26.3-2.22,34.03-2.34" style="fill:none;stroke:#999;stroke-width:3" />
<path d="M916.54,55.69c1.37,0.26,3.88,0.29,5.24,0.26c10.59-0.23,31.42-2.64,46.63-3c2.28-0.05,3.65,0.12,4.79,0.26" style="fill:none;stroke:black;stroke-width:3" />
<circle cx="916.54" cy="55.69" r="5" stroke-width="0" fill="#FF2A00" opacity="0.7" />
<path d="M1009.48,17.37c0.39,1.04,1.08,2.74,0.89,4.24C1009.38,29 1003.05,54.77 998.73,63.4c-0.89,1.77,0.4,2.46,0.89,2.63C1009.0,69.25 1017.5,76.66 1022.75,84.28" style="fill:none;stroke:#999;stroke-width:3" />
<path d="M1021.75,37.39c0.08,1.27,0.14,4.34-0.16,6.18C1019.1800000000001,58.41 1012.23,79.46 995.0,90.5" style="fill:none;stroke:#999;stroke-width:3" />
<path d="M990.5,46.92c0.77,0.81,1.8,1.4,3.86,1.2c2.22-0.21,21.97-4.18,31.14-6.24" style="fill:none;stroke:#999;stroke-width:3" />
<path d="M1030.56,22.83c0.51,0.62,0.91,1.27,1.03,1.81c0.98,4.47,2.84,14.1,3.42,22.32" style="fill:none;stroke:#999;stroke-width:3" />
<path d="M1032.28,24.04c9.17-1.12,31.52-3.19,37.32-3.63c2.13-0.16,2.93,1.13,2.81,2.33c-0.43,4.38-1.71,14.74-3.05,21.96" style="fill:none;stroke:#999;stroke-width:3" />
<path d="M1049.71,10.11c1.22,0.97,1.94,2.38,1.95,3.65C1051.7,26.4 1051.88,41.4 1051.88,44.7" style="fill:none;stroke:#999;stroke-width:3" />
<path d="M1033.6599999999999,34.02c2.53-0.22,35.66-3.01,37.75-3.01" style="fill:none;stroke:#999;stroke-width:3" />
<path d="M1035.4099999999999,45.85c6.4-0.32,26.3-2.22,34.03-2.34" style="fill:none;stroke:#999;stroke-width:3" />
<path d="M1025.54,55.69c1.37,0.26,3.88,0.29,5.24,0.26c10.59-0.23,31.42-2.64,46.63-3c2.28-0.05,3.65,0.12,4.79,0.26" style="fill:none;stroke:#999;stroke-width:3" />
<path d="M1044.45,57.02c0.31,0.59,0.48,1.34,0.06,2.18c-1.17,2.34-4.54,8.17-6.1,10.52c-0.88,1.33-0.28,2.56,1.84,2.18c3.86-0.69,18.34-2.7,23.11-3.56c4.63-0.83,4.6,1.67,4.03,4.82c-1.21,6.67-5.37,14.8-9.79,20.69c-3.86,5.15-6.11,1.65-7.93-1.21" style="fill:none;stroke:black;stroke-width:3" />
<circle cx="1044.45" cy="57.02" r="5" stroke-width="0" fill="#FF2A00" opacity="0.7" />
</svg>