<!-- 05a9b -->
<svg width="1308px" height="109px" viewBox="0 0 1308px 109px" xmlns="http://www.w3.org/2000/svg" xmlns:xlink="http://www.w3.org/1999/xlink" xml:space="preserve" version="1.1"  baseProfile="full">
<line x1="1" y1="1" x2="1307" y2="1" style="stroke:#ddd;stroke-width:2" />
<line x1="1" y1="1" x2="1" y2="108" style="stroke:#ddd;stroke-width:2" />
<line x1="1" y1="108" x2="1307" y2="108" style="stroke:#ddd;stroke-width:2" />
<line x1="1307" y1="1" x2="1307" y2="108" style="stroke:#ddd;stroke-width:2" />
<line x1="109" y1="1" x2="109" y2="108" style="stroke:#ddd;stroke-width:2" />
<line x1="218" y1="1" x2="218" y2="108" style="stroke:#ddd;stroke-width:2" />
<line x1="327" y1="1" x2="327" y2="108" style="stroke:#ddd;stroke-width:2" />
<line x1="436" y1="1" x2="436" y2="108" style="stroke:#ddd;stroke-width:2" />
<line x1="545" y1="1" x2="545" y2="108" style="stroke:#ddd;stroke-width:2" />
<line x1="654" y1="1" x2="654" y2="108" style="stroke:#ddd;stroke-width:2" />
<line x1="763" y1="1" x2="763" y2="108" style="stroke:#ddd;stroke-width:2" />
<line x1="872" y1="1" x2="872" y2="108" style="stroke:#ddd;stroke-width:2" />
<line x1="981" y1="1" x2="981" y2="108" style="stroke:#ddd;stroke-width:2" />
<line x1="1090" y1="1" x2="1090" y2="108" style="stroke:#ddd;stroke-width:2" />
<line x1="1199" y1="1" x2="1199" y2="108" style="stroke:#ddd;stroke-width:2" />
<line x1="1" y1="54" x2="1307" y2="54" style="stroke:#ddd;stroke-width:2;stroke-dasharray:3 3" />
<line x1="55" y1="1" x2="55" y2="108" style="stroke:#ddd;stroke-width:2;stroke-dasharray:3 3" />
<line x1="164" y1="1" x2="164" y2="108" style="stroke:#ddd;stroke-width:2;stroke-dasharray:3 3" />
<line x1="273" y1="1" x2="273" y2="108" style="stroke:#ddd;stroke-width:2;stroke-dasharray:3 3" />
<line x1="382" y1="1" x2="382" y2="108" style="stroke:#ddd;stroke-width:2;stroke-dasharray:3 3" />
<line x1="491" y1="1" x2="491" y2="108" style="stroke:#ddd;stroke-width:2;stroke-dasharray:3 3" />
<line x1="600" y1="1" x2="600" y2="108" style="stroke:#ddd;stroke-width:2;stroke-dasharray:3 3" />
<line x1="709" y1="1" x2="709" y2="108" style="stroke:#ddd;stroke-width:2;stroke-dasharray:3 3" />
<line x1="818" y1="1" x2="818" y2="108" style="stroke:#ddd;stroke-width:2;stroke-dasharray:3 3" />
<line x1="927" y1="1" x2="927" y2="108" style="stroke:#ddd;stroke-width:2;stroke-dasharray:3 3" />
<line x1="1036" y1="1" x2="1036" y2="108" style="stroke:#ddd;stroke-width:2;stroke-dasharray:3 3" />
<line x1="1145" y1="1" x2="1145" y2="108" style="stroke:#ddd;stroke-width:2;stroke-dasharray:3 3" />
<line x1="1254" y1="1" x2="1254" y2="108" style="stroke:#ddd;stroke-width:2;stroke-dasharray:3 3" />
<path d="M26.87,22.87c0.38,1.13,0.57,2.74,0.38,4.38c-0.93,7.78-5.18,26.61-9.32,36.4c-0.82,1.93-1.19,3.53,1.16,4.06c5.05,1.14,10.74,3.74,15.2,7.64c1.94,1.7,3.64,3.85,4.96,5.9" style="fill:none;stroke:black;stroke-width:3" />
<circle cx="26.87" cy="22.87" r="5" stroke-width="0" fill="#FF2A00" opacity="0.7" />
<path d="M135.87,22.87c0.38,1.13,0.57,2.74,0.38,4.38c-0.93,7.78-5.18,26.61-9.32,36.4c-0.82,1.93-1.19,3.53,1.16,4.06c5.05,1.14,10.74,3.74,15.2,7.64c1.94,1.7,3.64,3.85,4.96,5.9" style="fill:none;stroke:#999;stroke-width:3" />
<path d="M148.75,39.75c0.37,1.75,0.39,3.21,0.09,4.99C146.4,59.13 139.39,80.54 122.0,91.25" style="fill:none;stroke:black;stroke-width:3" />
<circle cx="148.75" cy="39.75" r="5" stroke-width="0" fill="#FF2A00" opacity="0.7" />
<path d="M244.87,22.87c0.38,1.13,0.57,2.74,0.38,4.38c-0.93,7.78-5.18,26.61-9.32,36.4c-0.82,1.93-1.19,3.53,1.16,4.06c5.05,1.14,10.74,3.74,15.2,7.64c1.94,1.7,3.64,3.85,4.96,5.9" style="fill:none;stroke:#999;stroke-width:3" />
<path d="M257.75,39.75c0.37,1.75,0.39,3.21,0.09,4.99C255.4,59.13 248.39,80.54 231.0,91.25" style="fill:none;stroke:#999;stroke-width:3" />
<path d="M228.5,50.46c0.88,1.29,2.28,1.49,4.25,1.04c7.12-1.62,17.5-4.12,29-7.03" style="fill:none;stroke:black;stroke-width:3" />
<circle cx="228.5" cy="50.46" r="5" stroke-width="0" fill="#FF2A00" opacity="0.7" />
<path d="M353.87,22.87c0.38,1.13,0.57,2.74,0.38,4.38c-0.93,7.78-5.18,26.61-9.32,36.4c-0.82,1.93-1.19,3.53,1.16,4.06c5.05,1.14,10.74,3.74,15.2,7.64c1.94,1.7,3.64,3.85,4.96,5.9" style="fill:none;stroke:#999;stroke-width:3" />
<path d="M366.75,39.75c0.37,1.75,0.39,3.21,0.09,4.99C364.4,59.13 357.39,80.54 340.0,91.25" style="fill:none;stroke:#999;stroke-width:3" />
<path d="M337.5,50.46c0.88,1.29,2.28,1.49,4.25,1.04c7.12-1.62,17.5-4.12,29-7.03" style="fill:none;stroke:#999;stroke-width:3" />
<path d="M406.48,11.29c-0.23,1.18-1.09,1.9-1.91,2.48c-3.95,2.76-14.59,7.09-29.17,10.03" style="fill:none;stroke:black;stroke-width:3" />
<circle cx="406.48" cy="11.29" r="5" stroke-width="0" fill="#FF2A00" opacity="0.7" />
<path d="M462.87,22.87c0.38,1.13,0.57,2.74,0.38,4.38c-0.93,7.78-5.18,26.61-9.32,36.4c-0.82,1.93-1.19,3.53,1.16,4.06c5.05,1.14,10.74,3.74,15.2,7.64c1.94,1.7,3.64,3.85,4.96,5.9" style="fill:none;stroke:#999;stroke-width:3" />
<path d="M475.75,39.75c0.37,1.75,0.39,3.21,0.09,4.99C473.4,59.13 466.39,80.54 449.0,91.25" style="fill:none;stroke:#999;stroke-width:3" />
<path d="M446.5,50.46c0.88,1.29,2.28,1.49,4.25,1.04c7.12-1.62,17.5-4.12,29-7.03" style="fill:none;stroke:#999;stroke-width:3" />
<path d="M515.48,11.29c-0.23,1.18-1.09,1.9-1.91,2.48c-3.95,2.76-14.59,7.09-29.17,10.03" style="fill:none;stroke:#999;stroke-width:3" />
<path d="M484.27,28.4c1.95,1.66,5.03,6.84,5.52,9.43" style="fill:none;stroke:black;stroke-width:3" />
<circle cx="484.27" cy="28.4" r="5" stroke-width="0" fill="#FF2A00" opacity="0.7" />
<path d="M571.87,22.87c0.38,1.13,0.57,2.74,0.38,4.38c-0.93,7.78-5.18,26.61-9.32,36.4c-0.82,1.93-1.19,3.53,1.16,4.06c5.05,1.14,10.74,3.74,15.2,7.64c1.94,1.7,3.64,3.85,4.96,5.9" style="fill:none;stroke:#999;stroke-width:3" />
<path d="M584.75,39.75c0.37,1.75,0.39,3.21,0.09,4.99C582.4,59.13 575.39,80.54 558.0,91.25" style="fill:none;stroke:#999;stroke-width:3" />
<path d="M555.5,50.46c0.88,1.29,2.28,1.49,4.25,1.04c7.12-1.62,17.5-4.12,29-7.03" style="fill:none;stroke:#999;stroke-width:3" />
<path d="M624.48,11.29c-0.23,1.18-1.09,1.9-1.91,2.48c-3.95,2.76-14.59,7.09-29.17,10.03" style="fill:none;stroke:#999;stroke-width:3" />
<path d="M593.27,28.4c1.95,1.66,5.03,6.84,5.52,9.43" style="fill:none;stroke:#999;stroke-width:3" />
<path d="M606.87,26c2.41,1.72,6.24,7.07,6.84,9.75" style="fill:none;stroke:black;stroke-width:3" />
<circle cx="606.87" cy="26.0" r="5" stroke-width="0" fill="#FF2A00" opacity="0.7" />
<path d="M680.87,22.87c0.38,1.13,0.57,2.74,0.38,4.38c-0.93,7.78-5.18,26.61-9.32,36.4c-0.82,1.93-1.19,3.53,1.16,4.06c5.05,1.14,10.74,3.74,15.2,7.64c1.94,1.7,3.64,3.85,4.96,5.9" style="fill:none;stroke:#999;stroke-width:3" />
<path d="M693.75,39.75c0.37,1.75,0.39,3.21,0.09,4.99C691.4,59.13 684.39,80.54 667.0,91.25" style="fill:none;stroke:#999;stroke-width:3" />
<path d="M664.5,50.46c0.88,1.29,2.28,1.49,4.25,1.04c7.12-1.62,17.5-4.12,29-7.03" style="fill:none;stroke:#999;stroke-width:3" />
<path d="M733.48,11.29c-0.23,1.18-1.09,1.9-1.91,2.48c-3.95,2.76-14.59,7.09-29.17,10.03" style="fill:none;stroke:#999;stroke-width:3" />
<path d="M702.27,28.4c1.95,1.66,5.03,6.84,5.52,9.43" style="fill:none;stroke:#999;stroke-width:3" />
<path d="M715.87,26c2.41,1.72,6.24,7.07,6.84,9.75" style="fill:none;stroke:#999;stroke-width:3" />
<path d="M740.03,21.64c0.08,0.93,0.03,1.87-0.37,2.71c-1.66,3.52-3.37,6.27-6.85,10.78" style="fill:none;stroke:black;stroke-width:3" />
<circle cx="740.03" cy="21.64" r="5" stroke-width="0" fill="#FF2A00" opacity="0.7" />
<path d="M789.87,22.87c0.38,1.13,0.57,2.74,0.38,4.38c-0.93,7.78-5.18,26.61-9.32,36.4c-0.82,1.93-1.19,3.53,1.16,4.06c5.05,1.14,10.74,3.74,15.2,7.64c1.94,1.7,3.64,3.85,4.96,5.9" style="fill:none;stroke:#999;stroke-width:3" />
<path d="M802.75,39.75c0.37,1.75,0.39,3.21,0.09,4.99C800.4,59.13 793.39,80.54 776.0,91.25" style="fill:none;stroke:#999;stroke-width:3" />
<path d="M773.5,50.46c0.88,1.29,2.28,1.49,4.25,1.04c7.12-1.62,17.5-4.12,29-7.03" style="fill:none;stroke:#999;stroke-width:3" />
<path d="M842.48,11.29c-0.23,1.18-1.09,1.9-1.91,2.48c-3.95,2.76-14.59,7.09-29.17,10.03" style="fill:none;stroke:#999;stroke-width:3" />
<path d="M811.27,28.4c1.95,1.66,5.03,6.84,5.52,9.43" style="fill:none;stroke:#999;stroke-width:3" />
<path d="M824.87,26c2.41,1.72,6.24,7.07,6.84,9.75" style="fill:none;stroke:#999;stroke-width:3" />
<path d="M849.03,21.64c0.08,0.93,0.03,1.87-0.37,2.71c-1.66,3.52-3.37,6.27-6.85,10.78" style="fill:none;stroke:#999;stroke-width:3" />
<path d="M815.04,45.97c2.34,0.53,4.5,0.32,6.46-0.01c6.35-1.08,15.26-2.35,20.52-3.09c2.01-0.28,4.1-0.4,6.06,0.11" style="fill:none;stroke:black;stroke-width:3" />
<circle cx="815.04" cy="45.97" r="5" stroke-width="0" fill="#FF2A00" opacity="0.7" />
<path d="M898.87,22.87c0.38,1.13,0.57,2.74,0.38,4.38c-0.93,7.78-5.18,26.61-9.32,36.4c-0.82,1.93-1.19,3.53,1.16,4.06c5.05,1.14,10.74,3.74,15.2,7.64c1.94,1.7,3.64,3.85,4.96,5.9" style="fill:none;stroke:#999;stroke-width:3" />
<path d="M911.75,39.75c0.37,1.75,0.39,3.21,0.09,4.99C909.4,59.13 902.39,80.54 885.0,91.25" style="fill:none;stroke:#999;stroke-width:3" />
<path d="M882.5,50.46c0.88,1.29,2.28,1.49,4.25,1.04c7.12-1.62,17.5-4.12,29-7.03" style="fill:none;stroke:#999;stroke-width:3" />
<path d="M951.48,11.29c-0.23,1.18-1.09,1.9-1.91,2.48c-3.95,2.76-14.59,7.09-29.17,10.03" style="fill:none;stroke:#999;stroke-width:3" />
<path d="M920.27,28.4c1.95,1.66,5.03,6.84,5.52,9.43" style="fill:none;stroke:#999;stroke-width:3" />
<path d="M933.87,26c2.41,1.72,6.24,7.07,6.84,9.75" style="fill:none;stroke:#999;stroke-width:3" />
<path d="M958.03,21.64c0.08,0.93,0.03,1.87-0.37,2.71c-1.66,3.52-3.37,6.27-6.85,10.78" style="fill:none;stroke:#999;stroke-width:3" />
<path d="M924.04,45.97c2.34,0.53,4.5,0.32,6.46-0.01c6.35-1.08,15.26-2.35,20.52-3.09c2.01-0.28,4.1-0.4,6.06,0.11" style="fill:none;stroke:#999;stroke-width:3" />
<path d="M917.11,58.78c2.55,0.98,6.02,0.67,8.65,0.28c10.49-1.56,19.49-2.93,32.37-3.73c2.65-0.16,5.42-0.38,8,0.22" style="fill:none;stroke:black;stroke-width:3" />
<circle cx="917.11" cy="58.78" r="5" stroke-width="0" fill="#FF2A00" opacity="0.7" />
<path d="M1007.87,22.87c0.38,1.13,0.57,2.74,0.38,4.38c-0.93,7.78-5.18,26.61-9.32,36.4c-0.82,1.93-1.19,3.53,1.16,4.06c5.05,1.14,10.74,3.74,15.2,7.64c1.94,1.7,3.64,3.85,4.96,5.9" style="fill:none;stroke:#999;stroke-width:3" />
<path d="M1020.75,39.75c0.37,1.75,0.39,3.21,0.09,4.99C1018.4,59.13 1011.39,80.54 994.0,91.25" style="fill:none;stroke:#999;stroke-width:3" />
<path d="M991.5,50.46c0.88,1.29,2.28,1.49,4.25,1.04c7.12-1.62,17.5-4.12,29-7.03" style="fill:none;stroke:#999;stroke-width:3" />
<path d="M1060.48,11.29c-0.23,1.18-1.09,1.9-1.91,2.48c-3.95,2.76-14.59,7.09-29.17,10.03" style="fill:none;stroke:#999;stroke-width:3" />
<path d="M1029.27,28.4c1.95,1.66,5.03,6.84,5.52,9.43" style="fill:none;stroke:#999;stroke-width:3" />
<path d="M1042.87,26c2.41,1.72,6.24,7.07,6.84,9.75" style="fill:none;stroke:#999;stroke-width:3" />
<path d="M1067.03,21.64c0.08,0.93,0.03,1.87-0.37,2.71c-1.66,3.52-3.37,6.27-6.85,10.78" style="fill:none;stroke:#999;stroke-width:3" />
<path d="M1033.04,45.97c2.34,0.53,4.5,0.32,6.46-0.01c6.35-1.08,15.26-2.35,20.52-3.09c2.01-0.28,4.1-0.4,6.06,0.11" style="fill:none;stroke:#999;stroke-width:3" />
<path d="M1026.1100000000001,58.78c2.55,0.98,6.02,0.67,8.65,0.28c10.49-1.56,19.49-2.93,32.37-3.73c2.65-0.16,5.42-0.38,8,0.22" style="fill:none;stroke:#999;stroke-width:3" />
<path d="M1043.96,48.79c0.27,0.9,0.47,2.16,0.07,3.76C1040.88,65.12 1033.38,81.38 1015.5,95.98" style="fill:none;stroke:black;stroke-width:3" />
<circle cx="1043.96" cy="48.79" r="5" stroke-width="0" fill="#FF2A00" opacity="0.7" />
<path d="M1116.87,22.87c0.38,1.13,0.57,2.74,0.38,4.38c-0.93,7.78-5.18,26.61-9.32,36.4c-0.82,1.93-1.19,3.53,1.16,4.06c5.05,1.14,10.74,3.74,15.2,7.64c1.94,1.7,3.64,3.85,4.96,5.9" style="fill:none;stroke:#999;stroke-width:3" />
<path d="M1129.75,39.75c0.37,1.75,0.39,3.21,0.09,4.99C1127.4,59.13 1120.3899999999999,80.54 1103.0,91.25" style="fill:none;stroke:#999;stroke-width:3" />
<path d="M1100.5,50.46c0.88,1.29,2.28,1.49,4.25,1.04c7.12-1.62,17.5-4.12,29-7.03" style="fill:none;stroke:#999;stroke-width:3" />
<path d="M1169.48,11.29c-0.23,1.18-1.09,1.9-1.91,2.48c-3.95,2.76-14.59,7.09-29.17,10.03" style="fill:none;stroke:#999;stroke-width:3" />
<path d="M1138.27,28.4c1.95,1.66,5.03,6.84,5.52,9.43" style="fill:none;stroke:#999;stroke-width:3" />
<path d="M1151.87,26c2.41,1.72,6.24,7.07,6.84,9.75" style="fill:none;stroke:#999;stroke-width:3" />
<path d="M1176.03,21.64c0.08,0.93,0.03,1.87-0.37,2.71c-1.66,3.52-3.37,6.27-6.85,10.78" style="fill:none;stroke:#999;stroke-width:3" />
<path d="M1142.04,45.97c2.34,0.53,4.5,0.32,6.46-0.01c6.35-1.08,15.26-2.35,20.52-3.09c2.01-0.28,4.1-0.4,6.06,0.11" style="fill:none;stroke:#999;stroke-width:3" />
<path d="M1135.1100000000001,58.78c2.55,0.98,6.02,0.67,8.65,0.28c10.49-1.56,19.49-2.93,32.37-3.73c2.65-0.16,5.42-0.38,8,0.22" style="fill:none;stroke:#999;stroke-width:3" />
<path d="M1152.96,48.79c0.27,0.9,0.47,2.16,0.07,3.76C1149.88,65.12 1142.38,81.38 1124.5,95.98" style="fill:none;stroke:#999;stroke-width:3" />
<path d="M1150.3,68.92c1.39,0.17,3.77-0.33,5.09-0.71c5.11-1.46,10.98-2.94,14.24-3.75c2.71-0.68,3.53,1.59,2.61,3.33C1167.25,77.25 1150.19,94.81 1133.23,100" style="fill:none;stroke:black;stroke-width:3" />
<circle cx="1150.3" cy="68.92" r="5" stroke-width="0" fill="#FF2A00" opacity="0.7" />
<path d="M1225.87,22.87c0.38,1.13,0.57,2.74,0.38,4.38c-0.93,7.78-5.18,26.61-9.32,36.4c-0.82,1.93-1.19,3.53,1.16,4.06c5.05,1.14,10.74,3.74,15.2,7.64c1.94,1.7,3.64,3.85,4.96,5.9" style="fill:none;stroke:#999;stroke-width:3" />
<path d="M1238.75,39.75c0.37,1.75,0.39,3.21,0.09,4.99C1236.4,59.13 1229.3899999999999,80.54 1212.0,91.25" style="fill:none;stroke:#999;stroke-width:3" />
<path d="M1209.5,50.46c0.88,1.29,2.28,1.49,4.25,1.04c7.12-1.62,17.5-4.12,29-7.03" style="fill:none;stroke:#999;stroke-width:3" />
<path d="M1278.48,11.29c-0.23,1.18-1.09,1.9-1.91,2.48c-3.95,2.76-14.59,7.09-29.17,10.03" style="fill:none;stroke:#999;stroke-width:3" />
<path d="M1247.27,28.4c1.95,1.66,5.03,6.84,5.52,9.43" style="fill:none;stroke:#999;stroke-width:3" />
<path d="M1260.87,26c2.41,1.72,6.24,7.07,6.84,9.75" style="fill:none;stroke:#999;stroke-width:3" />
<path d="M1285.03,21.64c0.08,0.93,0.03,1.87-0.37,2.71c-1.66,3.52-3.37,6.27-6.85,10.78" style="fill:none;stroke:#999;stroke-width:3" />
<path d="M1251.04,45.97c2.34,0.53,4.5,0.32,6.46-0.01c6.35-1.08,15.26-2.35,20.52-3.09c2.01-0.28,4.1-0.4,6.06,0.11" style="fill:none;stroke:#999;stroke-width:3" />
<path d="M1244.1100000000001,58.78c2.55,0.98,6.02,0.67,8.65,0.28c10.49-1.56,19.49-2.93,32.37-3.73c2.65-0.16,5.42-0.38,8,0.22" style="fill:none;stroke:#999;stroke-width:3" />
<path d="M1261.96,48.79c0.27,0.9,0.47,2.16,0.07,3.76C1258.88,65.12 1251.38,81.38 1233.5,95.98" style="fill:none;stroke:#999;stroke-width:3" />
<path d="M1259.3,68.92c1.39,0.17,3.77-0.33,5.09-0.71c5.11-1.46,10.98-2.94,14.24-3.75c2.71-0.68,3.53,1.59,2.61,3.33C1276.25,77.25 1259.19,94.81 1242.23,100" style="fill:none;stroke:#999;stroke-width:3" />
<path d="M1254.4,73c3.55,0.66,21.36,15.08,28.17,19.29c5.07,3.13,7.3,4.08,10.23,4.87" style="fill:none;stroke:black;stroke-width:3" />
<circle cx="1254.4" cy="73.0" r="5" stroke-width="0" fill="#FF2A00" opacity="0.7" />
</svg>