<!-- 05b64 -->
<svg width="981px" height="109px" viewBox="0 0 981px 109px" xmlns="http://www.w3.org/2000/svg" xmlns:xlink="http://www.w3.org/1999/xlink" xml:space="preserve" version="1.1"  baseProfile="full">
<line x1="1" y1="1" x2="980" y2="1" style="stroke:#ddd;stroke-width:2" />
<line x1="1" y1="1" x2="1" y2="108" style="stroke:#ddd;stroke-width:2" />
<line x1="1" y1="108" x2="980" y2="108" style="stroke:#ddd;stroke-width:2" />
<line x1="980" y1="1" x2="980" y2="108" style="stroke:#ddd;stroke-width:2" />
<line x1="109" y1="1" x2="109" y2="108" style="stroke:#ddd;stroke-width:2" />
<line x1="218" y1="1" x2="218" y2="108" style="stroke:#ddd;stroke-width:2" />
<line x1="327" y1="1" x2="327" y2="108" style="stroke:#ddd;stroke-width:2" />
<line x1="436" y1="1" x2="436" y2="108" style="stroke:#ddd;stroke-width:2" />
<line x1="545" y1="1" x2="545" y2="108" style="stroke:#ddd;stroke-width:2" />
<line x1="654" y1="1" x2="654" y2="108" style="stroke:#ddd;stroke-width:2" />
<line x1="763" y1="1" x2="763" y2="108" style="stroke:#ddd;stroke-width:2" />
<line x1="872" y1="1" x2="872" y2="108" style="stroke:#ddd;stroke-width:2" />
<line x1="1" y1="54" x2="980" y2="54" style="stroke:#ddd;stroke-width:2;stroke-dasharray:3 3" />
<line x1="55" y1="1" x2="55" y2="108" style="stroke:#ddd;stroke-width:2;stroke-dasharray:3 3" />
<line x1="164" y1="1" x2="164" y2="108" style="stroke:#ddd;stroke-width:2;stroke-dasharray:3 3" />
<line x1="273" y1="1" x2="273" y2="108" style="stroke:#ddd;stroke-width:2;stroke-dasharray:3 3" />
<line x1="382" y1="1" x2="382" y2="108" style="stroke:#ddd;stroke-width:2;stroke-dasharray:3 3" />
<line x1="491" y1="1" x2="491" y2="108" style="stroke:#ddd;stroke-width:2;stroke-dasharray:3 3" />
<line x1="600" y1="1" x2="600" y2="108" style="stroke:#ddd;stroke-width:2;stroke-dasharray:3 3" />
<line x1="709" y1="1" x2="709" y2="108" style="stroke:#ddd;stroke-width:2;stroke-dasharray:3 3" />
<line x1="818" y1="1" x2="818" y2="108" style="stroke:#ddd;stroke-width:2;stroke-dasharray:3 3" />
<line x1="927" y1="1" x2="927" y2="108" style="stroke:#ddd;stroke-width:2;stroke-dasharray:3 3" />
<path d="M11.29,27.74c2.13,0.74,3.98,0.91,6.12,0.38c6.1-1.5,15.64-3.98,18.72-4.62c1.61-0.33,3.28,0.86,1.78,2.91C36.0,29 30.5,35.5 24.81,42.61" style="fill:none;stroke:black;stroke-width:3" />
<circle cx="11.29" cy="27.74" r="5" stroke-width="0" fill="#FF2A00" opacity="0.7" />
<path d="M120.28999999999999,27.74c2.13,0.74,3.98,0.91,6.12,0.38c6.1-1.5,15.64-3.98,18.72-4.62c1.61-0.33,3.28,0.86,1.78,2.91C145.0,29 139.5,35.5 133.81,42.61" style="fill:none;stroke:#999;stroke-width:3" />
<path d="M133.02,43.24c6.88,2.84,10.48,23.8,4.97,41.99c-2.97,9.79-8.21,2.06-9.46,1.26" style="fill:none;stroke:black;stroke-width:3" />
<circle cx="133.02" cy="43.24" r="5" stroke-width="0" fill="#FF2A00" opacity="0.7" />
<path d="M229.29,27.74c2.13,0.74,3.98,0.91,6.12,0.38c6.1-1.5,15.64-3.98,18.72-4.62c1.61-0.33,3.28,0.86,1.78,2.91C254.0,29 248.5,35.5 242.81,42.61" style="fill:none;stroke:#999;stroke-width:3" />
<path d="M242.02,43.24c6.88,2.84,10.48,23.8,4.97,41.99c-2.97,9.79-8.21,2.06-9.46,1.26" style="fill:none;stroke:#999;stroke-width:3" />
<path d="M228.5,61.33c1.34,0.97,2.54,1.09,4.73,0.09C244.0,56.5 249.5,53.5 258.25,49.4" style="fill:none;stroke:black;stroke-width:3" />
<circle cx="228.5" cy="61.33" r="5" stroke-width="0" fill="#FF2A00" opacity="0.7" />
<path d="M338.28999999999996,27.74c2.13,0.74,3.98,0.91,6.12,0.38c6.1-1.5,15.64-3.98,18.72-4.62c1.61-0.33,3.28,0.86,1.78,2.91C363.0,29 357.5,35.5 351.81,42.61" style="fill:none;stroke:#999;stroke-width:3" />
<path d="M351.02,43.24c6.88,2.84,10.48,23.8,4.97,41.99c-2.97,9.79-8.21,2.06-9.46,1.26" style="fill:none;stroke:#999;stroke-width:3" />
<path d="M337.5,61.33c1.34,0.97,2.54,1.09,4.73,0.09C353.0,56.5 358.5,53.5 367.25,49.4" style="fill:none;stroke:#999;stroke-width:3" />
<path d="M406.05,16.5c0,0.88-0.3,1.62-1.07,2.29c-6.41,5.53-12.86,9.84-27.83,15.4" style="fill:none;stroke:black;stroke-width:3" />
<circle cx="406.05" cy="16.5" r="5" stroke-width="0" fill="#FF2A00" opacity="0.7" />
<path d="M447.28999999999996,27.74c2.13,0.74,3.98,0.91,6.12,0.38c6.1-1.5,15.64-3.98,18.72-4.62c1.61-0.33,3.28,0.86,1.78,2.91C472.0,29 466.5,35.5 460.81,42.61" style="fill:none;stroke:#999;stroke-width:3" />
<path d="M460.02,43.24c6.88,2.84,10.48,23.8,4.97,41.99c-2.97,9.79-8.21,2.06-9.46,1.26" style="fill:none;stroke:#999;stroke-width:3" />
<path d="M446.5,61.33c1.34,0.97,2.54,1.09,4.73,0.09C462.0,56.5 467.5,53.5 476.25,49.4" style="fill:none;stroke:#999;stroke-width:3" />
<path d="M515.05,16.5c0,0.88-0.3,1.62-1.07,2.29c-6.41,5.53-12.86,9.84-27.83,15.4" style="fill:none;stroke:#999;stroke-width:3" />
<path d="M482.11,34.13c0.82,0.82,1.05,2,1.09,3.46C483.75,58 483.62,79.75 470.06,92.72" style="fill:none;stroke:black;stroke-width:3" />
<circle cx="482.11" cy="34.13" r="5" stroke-width="0" fill="#FF2A00" opacity="0.7" />
<path d="M556.29,27.74c2.13,0.74,3.98,0.91,6.12,0.38c6.1-1.5,15.64-3.98,18.72-4.62c1.61-0.33,3.28,0.86,1.78,2.91C581.0,29 575.5,35.5 569.81,42.61" style="fill:none;stroke:#999;stroke-width:3" />
<path d="M569.02,43.24c6.88,2.84,10.48,23.8,4.97,41.99c-2.97,9.79-8.21,2.06-9.46,1.26" style="fill:none;stroke:#999;stroke-width:3" />
<path d="M555.5,61.33c1.34,0.97,2.54,1.09,4.73,0.09C571.0,56.5 576.5,53.5 585.25,49.4" style="fill:none;stroke:#999;stroke-width:3" />
<path d="M624.05,16.5c0,0.88-0.3,1.62-1.07,2.29c-6.41,5.53-12.86,9.84-27.83,15.4" style="fill:none;stroke:#999;stroke-width:3" />
<path d="M591.11,34.13c0.82,0.82,1.05,2,1.09,3.46C592.75,58 592.62,79.75 579.06,92.72" style="fill:none;stroke:#999;stroke-width:3" />
<path d="M607.22,32.43c0.99,0.99,1.4,2.57,1.4,4.31c0,6.12-0.11,32.32-0.11,42.26" style="fill:none;stroke:black;stroke-width:3" />
<circle cx="607.22" cy="32.43" r="5" stroke-width="0" fill="#FF2A00" opacity="0.7" />
<path d="M665.29,27.74c2.13,0.74,3.98,0.91,6.12,0.38c6.1-1.5,15.64-3.98,18.72-4.62c1.61-0.33,3.28,0.86,1.78,2.91C690.0,29 684.5,35.5 678.81,42.61" style="fill:none;stroke:#999;stroke-width:3" />
<path d="M678.02,43.24c6.88,2.84,10.48,23.8,4.97,41.99c-2.97,9.79-8.21,2.06-9.46,1.26" style="fill:none;stroke:#999;stroke-width:3" />
<path d="M664.5,61.33c1.34,0.97,2.54,1.09,4.73,0.09C680.0,56.5 685.5,53.5 694.25,49.4" style="fill:none;stroke:#999;stroke-width:3" />
<path d="M733.05,16.5c0,0.88-0.3,1.62-1.07,2.29c-6.41,5.53-12.86,9.84-27.83,15.4" style="fill:none;stroke:#999;stroke-width:3" />
<path d="M700.11,34.13c0.82,0.82,1.05,2,1.09,3.46C701.75,58 701.62,79.75 688.06,92.72" style="fill:none;stroke:#999;stroke-width:3" />
<path d="M716.22,32.43c0.99,0.99,1.4,2.57,1.4,4.31c0,6.12-0.11,32.32-0.11,42.26" style="fill:none;stroke:#999;stroke-width:3" />
<path d="M704.43,83.51c0.72,0.58,2.13,1.23,3.62,0.57c8.7-3.84,11.7-5.09,20.19-8.78" style="fill:none;stroke:black;stroke-width:3" />
<circle cx="704.43" cy="83.51" r="5" stroke-width="0" fill="#FF2A00" opacity="0.7" />
<path d="M774.29,27.74c2.13,0.74,3.98,0.91,6.12,0.38c6.1-1.5,15.64-3.98,18.72-4.62c1.61-0.33,3.28,0.86,1.78,2.91C799.0,29 793.5,35.5 787.81,42.61" style="fill:none;stroke:#999;stroke-width:3" />
<path d="M787.02,43.24c6.88,2.84,10.48,23.8,4.97,41.99c-2.97,9.79-8.21,2.06-9.46,1.26" style="fill:none;stroke:#999;stroke-width:3" />
<path d="M773.5,61.33c1.34,0.97,2.54,1.09,4.73,0.09C789.0,56.5 794.5,53.5 803.25,49.4" style="fill:none;stroke:#999;stroke-width:3" />
<path d="M842.05,16.5c0,0.88-0.3,1.62-1.07,2.29c-6.41,5.53-12.86,9.84-27.83,15.4" style="fill:none;stroke:#999;stroke-width:3" />
<path d="M809.11,34.13c0.82,0.82,1.05,2,1.09,3.46C810.75,58 810.62,79.75 797.06,92.72" style="fill:none;stroke:#999;stroke-width:3" />
<path d="M825.22,32.43c0.99,0.99,1.4,2.57,1.4,4.31c0,6.12-0.11,32.32-0.11,42.26" style="fill:none;stroke:#999;stroke-width:3" />
<path d="M813.43,83.51c0.72,0.58,2.13,1.23,3.62,0.57c8.7-3.84,11.7-5.09,20.19-8.78" style="fill:none;stroke:#999;stroke-width:3" />
<path d="M835.26,69.14c2.37,2.54,6.11,10.43,6.71,14.37" style="fill:none;stroke:black;stroke-width:3" />
<circle cx="835.26" cy="69.14" r="5" stroke-width="0" fill="#FF2A00" opacity="0.7" />
<path d="M883.29,27.74c2.13,0.74,3.98,0.91,6.12,0.38c6.1-1.5,15.64-3.98,18.72-4.62c1.61-0.33,3.28,0.86,1.78,2.91C908.0,29 902.5,35.5 896.81,42.61" style="fill:none;stroke:#999;stroke-width:3" />
<path d="M896.02,43.24c6.88,2.84,10.48,23.8,4.97,41.99c-2.97,9.79-8.21,2.06-9.46,1.26" style="fill:none;stroke:#999;stroke-width:3" />
<path d="M882.5,61.33c1.34,0.97,2.54,1.09,4.73,0.09C898.0,56.5 903.5,53.5 912.25,49.4" style="fill:none;stroke:#999;stroke-width:3" />
<path d="M951.05,16.5c0,0.88-0.3,1.62-1.07,2.29c-6.41,5.53-12.86,9.84-27.83,15.4" style="fill:none;stroke:#999;stroke-width:3" />
<path d="M918.11,34.13c0.82,0.82,1.05,2,1.09,3.46C919.75,58 919.62,79.75 906.06,92.72" style="fill:none;stroke:#999;stroke-width:3" />
<path d="M934.22,32.43c0.99,0.99,1.4,2.57,1.4,4.31c0,6.12-0.11,32.32-0.11,42.26" style="fill:none;stroke:#999;stroke-width:3" />
<path d="M922.43,83.51c0.72,0.58,2.13,1.23,3.62,0.57c8.7-3.84,11.7-5.09,20.19-8.78" style="fill:none;stroke:#999;stroke-width:3" />
<path d="M944.26,69.14c2.37,2.54,6.11,10.43,6.71,14.37" style="fill:none;stroke:#999;stroke-width:3" />
<path d="M948.1800000000001,28.08c1.64,0.38,6.48,35.09,14.38,53.76c1.57,3.71,3.31,6.53,6.19,9.8" style="fill:none;stroke:black;stroke-width:3" />
<circle cx="948.1800000000001" cy="28.08" r="5" stroke-width="0" fill="#FF2A00" opacity="0.7" />
</svg>