<!-- 05b70 -->
<svg width="1199px" height="109px" viewBox="0 0 1199px 109px" xmlns="http://www.w3.org/2000/svg" xmlns:xlink="http://www.w3.org/1999/xlink" xml:space="preserve" version="1.1"  baseProfile="full">
<line x1="1" y1="1" x2="1198" y2="1" style="stroke:#ddd;stroke-width:2" />
<line x1="1" y1="1" x2="1" y2="108" style="stroke:#ddd;stroke-width:2" />
<line x1="1" y1="108" x2="1198" y2="108" style="stroke:#ddd;stroke-width:2" />
<line x1="1198" y1="1" x2="1198" y2="108" style="stroke:#ddd;stroke-width:2" />
<line x1="109" y1="1" x2="109" y2="108" style="stroke:#ddd;stroke-width:2" />
<line x1="218" y1="1" x2="218" y2="108" style="stroke:#ddd;stroke-width:2" />
<line x1="327" y1="1" x2="327" y2="108" style="stroke:#ddd;stroke-width:2" />
<line x1="436" y1="1" x2="436" y2="108" style="stroke:#ddd;stroke-width:2" />
<line x1="545" y1="1" x2="545" y2="108" style="stroke:#ddd;stroke-width:2" />
<line x1="654" y1="1" x2="654" y2="108" style="stroke:#ddd;stroke-width:2" />
<line x1="763" y1="1" x2="763" y2="108" style="stroke:#ddd;stroke-width:2" />
<line x1="872" y1="1" x2="872" y2="108" style="stroke:#ddd;stroke-width:2" />
<line x1="981" y1="1" x2="981" y2="108" style="stroke:#ddd;stroke-width:2" />
<line x1="1090" y1="1" x2="1090" y2="108" style="stroke:#ddd;stroke-width:2" />
<line x1="1" y1="54" x2="1198" y2="54" style="stroke:#ddd;stroke-width:2;stroke-dasharray:3 3" />
<line x1="55" y1="1" x2="55" y2="108" style="stroke:#ddd;stroke-width:2;stroke-dasharray:3 3" />
<line x1="164" y1="1" x2="164" y2="108" style="stroke:#ddd;stroke-width:2;stroke-dasharray:3 3" />
<line x1="273" y1="1" x2="273" y2="108" style="stroke:#ddd;stroke-width:2;stroke-dasharray:3 3" />
<line x1="382" y1="1" x2="382" y2="108" style="stroke:#ddd;stroke-width:2;stroke-dasharray:3 3" />
<line x1="491" y1="1" x2="491" y2="108" style="stroke:#ddd;stroke-width:2;stroke-dasharray:3 3" />
<line x1="600" y1="1" x2="600" y2="108" style="stroke:#ddd;stroke-width:2;stroke-dasharray:3 3" />
<line x1="709" y1="1" x2="709" y2="108" style="stroke:#ddd;stroke-width:2;stroke-dasharray:3 3" />
<line x1="818" y1="1" x2="818" y2="108" style="stroke:#ddd;stroke-width:2;stroke-dasharray:3 3" />
<line x1="927" y1="1" x2="927" y2="108" style="stroke:#ddd;stroke-width:2;stroke-dasharray:3 3" />
<line x1="1036" y1="1" x2="1036" y2="108" style="stroke:#ddd;stroke-width:2;stroke-dasharray:3 3" />
<line x1="1145" y1="1" x2="1145" y2="108" style="stroke:#ddd;stroke-width:2;stroke-dasharray:3 3" />
<path d="M31.11,11.5c0.91,0.49,2.4,2.38,2.4,3.35c0,3.59-0.12,4.4-0.12,7.88" style="fill:none;stroke:black;stroke-width:3" />
<circle cx="31.11" cy="11.5" r="5" stroke-width="0" fill="#FF2A00" opacity="0.7" />
<path d="M140.11,11.5c0.91,0.49,2.4,2.38,2.4,3.35c0,3.59-0.12,4.4-0.12,7.88" style="fill:none;stroke:#999;stroke-width:3" />
<path d="M120.37,24.87c0.85,0.06,2.8,0.41,3.63,0.33c6.7-0.69,25.57-3.24,35.13-3.72c1.41-0.07,2.13,0.03,3.17,0.42" style="fill:none;stroke:black;stroke-width:3" />
<circle cx="120.37" cy="24.87" r="5" stroke-width="0" fill="#FF2A00" opacity="0.7" />
<path d="M249.11,11.5c0.91,0.49,2.4,2.38,2.4,3.35c0,3.59-0.12,4.4-0.12,7.88" style="fill:none;stroke:#999;stroke-width:3" />
<path d="M229.37,24.87c0.85,0.06,2.8,0.41,3.63,0.33c6.7-0.69,25.57-3.24,35.13-3.72c1.41-0.07,2.13,0.03,3.17,0.42" style="fill:none;stroke:#999;stroke-width:3" />
<path d="M237.3,33.2c0.28,0.26,0.57,0.48,0.7,0.8c0.98,2.57,2,7.79,2.67,12.41" style="fill:none;stroke:black;stroke-width:3" />
<circle cx="237.3" cy="33.2" r="5" stroke-width="0" fill="#FF2A00" opacity="0.7" />
<path d="M358.11,11.5c0.91,0.49,2.4,2.38,2.4,3.35c0,3.59-0.12,4.4-0.12,7.88" style="fill:none;stroke:#999;stroke-width:3" />
<path d="M338.37,24.87c0.85,0.06,2.8,0.41,3.63,0.33c6.7-0.69,25.57-3.24,35.13-3.72c1.41-0.07,2.13,0.03,3.17,0.42" style="fill:none;stroke:#999;stroke-width:3" />
<path d="M346.3,33.2c0.28,0.26,0.57,0.48,0.7,0.8c0.98,2.57,2,7.79,2.67,12.41" style="fill:none;stroke:#999;stroke-width:3" />
<path d="M348.07,34.09c6.94-1.08,19.2-2.87,22.78-3.24c1.31-0.13,2.09,1.34,1.91,2.12c-0.78,3.24-0.98,5.15-2.64,9.82" style="fill:none;stroke:black;stroke-width:3" />
<circle cx="348.07" cy="34.09" r="5" stroke-width="0" fill="#FF2A00" opacity="0.7" />
<path d="M467.11,11.5c0.91,0.49,2.4,2.38,2.4,3.35c0,3.59-0.12,4.4-0.12,7.88" style="fill:none;stroke:#999;stroke-width:3" />
<path d="M447.37,24.87c0.85,0.06,2.8,0.41,3.63,0.33c6.7-0.69,25.57-3.24,35.13-3.72c1.41-0.07,2.13,0.03,3.17,0.42" style="fill:none;stroke:#999;stroke-width:3" />
<path d="M455.3,33.2c0.28,0.26,0.57,0.48,0.7,0.8c0.98,2.57,2,7.79,2.67,12.41" style="fill:none;stroke:#999;stroke-width:3" />
<path d="M457.07,34.09c6.94-1.08,19.2-2.87,22.78-3.24c1.31-0.13,2.09,1.34,1.91,2.12c-0.78,3.24-0.98,5.15-2.64,9.82" style="fill:none;stroke:#999;stroke-width:3" />
<path d="M459.46,45.72c4.2-0.41,15.63-2.1,20.96-2.52" style="fill:none;stroke:black;stroke-width:3" />
<circle cx="459.46" cy="45.72" r="5" stroke-width="0" fill="#FF2A00" opacity="0.7" />
<path d="M576.11,11.5c0.91,0.49,2.4,2.38,2.4,3.35c0,3.59-0.12,4.4-0.12,7.88" style="fill:none;stroke:#999;stroke-width:3" />
<path d="M556.37,24.87c0.85,0.06,2.8,0.41,3.63,0.33c6.7-0.69,25.57-3.24,35.13-3.72c1.41-0.07,2.13,0.03,3.17,0.42" style="fill:none;stroke:#999;stroke-width:3" />
<path d="M564.3,33.2c0.28,0.26,0.57,0.48,0.7,0.8c0.98,2.57,2,7.79,2.67,12.41" style="fill:none;stroke:#999;stroke-width:3" />
<path d="M566.0699999999999,34.09c6.94-1.08,19.2-2.87,22.78-3.24c1.31-0.13,2.09,1.34,1.91,2.12c-0.78,3.24-0.98,5.15-2.64,9.82" style="fill:none;stroke:#999;stroke-width:3" />
<path d="M568.46,45.72c4.2-0.41,15.63-2.1,20.96-2.52" style="fill:none;stroke:#999;stroke-width:3" />
<path d="M562.87,54.24c0.96,0.19,2.76,0.5,4.2,0.33c1.75-0.21,20.73-3.42,22.4-3.42c1.67,0,2.55,1.05,0.88,2.21c-1.67,1.16-6.67,5.62-12.83,10.12" style="fill:none;stroke:black;stroke-width:3" />
<circle cx="562.87" cy="54.24" r="5" stroke-width="0" fill="#FF2A00" opacity="0.7" />
<path d="M685.11,11.5c0.91,0.49,2.4,2.38,2.4,3.35c0,3.59-0.12,4.4-0.12,7.88" style="fill:none;stroke:#999;stroke-width:3" />
<path d="M665.37,24.87c0.85,0.06,2.8,0.41,3.63,0.33c6.7-0.69,25.57-3.24,35.13-3.72c1.41-0.07,2.13,0.03,3.17,0.42" style="fill:none;stroke:#999;stroke-width:3" />
<path d="M673.3,33.2c0.28,0.26,0.57,0.48,0.7,0.8c0.98,2.57,2,7.79,2.67,12.41" style="fill:none;stroke:#999;stroke-width:3" />
<path d="M675.0699999999999,34.09c6.94-1.08,19.2-2.87,22.78-3.24c1.31-0.13,2.09,1.34,1.91,2.12c-0.78,3.24-0.98,5.15-2.64,9.82" style="fill:none;stroke:#999;stroke-width:3" />
<path d="M677.46,45.72c4.2-0.41,15.63-2.1,20.96-2.52" style="fill:none;stroke:#999;stroke-width:3" />
<path d="M671.87,54.24c0.96,0.19,2.76,0.5,4.2,0.33c1.75-0.21,20.73-3.42,22.4-3.42c1.67,0,2.55,1.05,0.88,2.21c-1.67,1.16-6.67,5.62-12.83,10.12" style="fill:none;stroke:#999;stroke-width:3" />
<path d="M685.95,63.08c4.12,3.61,7.88,17.38,2.71,27.96c-3.06,6.26-5.82,1.05-7.3,0.53" style="fill:none;stroke:black;stroke-width:3" />
<circle cx="685.95" cy="63.08" r="5" stroke-width="0" fill="#FF2A00" opacity="0.7" />
<path d="M794.11,11.5c0.91,0.49,2.4,2.38,2.4,3.35c0,3.59-0.12,4.4-0.12,7.88" style="fill:none;stroke:#999;stroke-width:3" />
<path d="M774.37,24.87c0.85,0.06,2.8,0.41,3.63,0.33c6.7-0.69,25.57-3.24,35.13-3.72c1.41-0.07,2.13,0.03,3.17,0.42" style="fill:none;stroke:#999;stroke-width:3" />
<path d="M782.3,33.2c0.28,0.26,0.57,0.48,0.7,0.8c0.98,2.57,2,7.79,2.67,12.41" style="fill:none;stroke:#999;stroke-width:3" />
<path d="M784.0699999999999,34.09c6.94-1.08,19.2-2.87,22.78-3.24c1.31-0.13,2.09,1.34,1.91,2.12c-0.78,3.24-0.98,5.15-2.64,9.82" style="fill:none;stroke:#999;stroke-width:3" />
<path d="M786.46,45.72c4.2-0.41,15.63-2.1,20.96-2.52" style="fill:none;stroke:#999;stroke-width:3" />
<path d="M780.87,54.24c0.96,0.19,2.76,0.5,4.2,0.33c1.75-0.21,20.73-3.42,22.4-3.42c1.67,0,2.55,1.05,0.88,2.21c-1.67,1.16-6.67,5.62-12.83,10.12" style="fill:none;stroke:#999;stroke-width:3" />
<path d="M794.95,63.08c4.12,3.61,7.88,17.38,2.71,27.96c-3.06,6.26-5.82,1.05-7.3,0.53" style="fill:none;stroke:#999;stroke-width:3" />
<path d="M777.5,78c1.28,0.68,3.06,0.91,5.25,0c9-3.75,18.75-8.5,30-13.63" style="fill:none;stroke:black;stroke-width:3" />
<circle cx="777.5" cy="78.0" r="5" stroke-width="0" fill="#FF2A00" opacity="0.7" />
<path d="M903.11,11.5c0.91,0.49,2.4,2.38,2.4,3.35c0,3.59-0.12,4.4-0.12,7.88" style="fill:none;stroke:#999;stroke-width:3" />
<path d="M883.37,24.87c0.85,0.06,2.8,0.41,3.63,0.33c6.7-0.69,25.57-3.24,35.13-3.72c1.41-0.07,2.13,0.03,3.17,0.42" style="fill:none;stroke:#999;stroke-width:3" />
<path d="M891.3,33.2c0.28,0.26,0.57,0.48,0.7,0.8c0.98,2.57,2,7.79,2.67,12.41" style="fill:none;stroke:#999;stroke-width:3" />
<path d="M893.0699999999999,34.09c6.94-1.08,19.2-2.87,22.78-3.24c1.31-0.13,2.09,1.34,1.91,2.12c-0.78,3.24-0.98,5.15-2.64,9.82" style="fill:none;stroke:#999;stroke-width:3" />
<path d="M895.46,45.72c4.2-0.41,15.63-2.1,20.96-2.52" style="fill:none;stroke:#999;stroke-width:3" />
<path d="M889.87,54.24c0.96,0.19,2.76,0.5,4.2,0.33c1.75-0.21,20.73-3.42,22.4-3.42c1.67,0,2.55,1.05,0.88,2.21c-1.67,1.16-6.67,5.62-12.83,10.12" style="fill:none;stroke:#999;stroke-width:3" />
<path d="M903.95,63.08c4.12,3.61,7.88,17.38,2.71,27.96c-3.06,6.26-5.82,1.05-7.3,0.53" style="fill:none;stroke:#999;stroke-width:3" />
<path d="M886.5,78c1.28,0.68,3.06,0.91,5.25,0c9-3.75,18.75-8.5,30-13.63" style="fill:none;stroke:#999;stroke-width:3" />
<path d="M941.02,13.88c0.58,0.69,1.39,2.16,1.36,3.41C941.5,51 932.25,78.75 915.88,94.25" style="fill:none;stroke:black;stroke-width:3" />
<circle cx="941.02" cy="13.88" r="5" stroke-width="0" fill="#FF2A00" opacity="0.7" />
<path d="M1012.11,11.5c0.91,0.49,2.4,2.38,2.4,3.35c0,3.59-0.12,4.4-0.12,7.88" style="fill:none;stroke:#999;stroke-width:3" />
<path d="M992.37,24.87c0.85,0.06,2.8,0.41,3.63,0.33c6.7-0.69,25.57-3.24,35.13-3.72c1.41-0.07,2.13,0.03,3.17,0.42" style="fill:none;stroke:#999;stroke-width:3" />
<path d="M1000.3,33.2c0.28,0.26,0.57,0.48,0.7,0.8c0.98,2.57,2,7.79,2.67,12.41" style="fill:none;stroke:#999;stroke-width:3" />
<path d="M1002.0699999999999,34.09c6.94-1.08,19.2-2.87,22.78-3.24c1.31-0.13,2.09,1.34,1.91,2.12c-0.78,3.24-0.98,5.15-2.64,9.82" style="fill:none;stroke:#999;stroke-width:3" />
<path d="M1004.46,45.72c4.2-0.41,15.63-2.1,20.96-2.52" style="fill:none;stroke:#999;stroke-width:3" />
<path d="M998.87,54.24c0.96,0.19,2.76,0.5,4.2,0.33c1.75-0.21,20.73-3.42,22.4-3.42c1.67,0,2.55,1.05,0.88,2.21c-1.67,1.16-6.67,5.62-12.83,10.12" style="fill:none;stroke:#999;stroke-width:3" />
<path d="M1012.95,63.08c4.12,3.61,7.88,17.38,2.71,27.96c-3.06,6.26-5.82,1.05-7.3,0.53" style="fill:none;stroke:#999;stroke-width:3" />
<path d="M995.5,78c1.28,0.68,3.06,0.91,5.25,0c9-3.75,18.75-8.5,30-13.63" style="fill:none;stroke:#999;stroke-width:3" />
<path d="M1050.02,13.88c0.58,0.69,1.39,2.16,1.36,3.41C1050.5,51 1041.25,78.75 1024.88,94.25" style="fill:none;stroke:#999;stroke-width:3" />
<path d="M1034.75,37.85c0.74,0.82,3.52,0.27,4.45,0c0.93-0.27,23.74-6.53,24.57-6.59c1.85-0.14,3.71,1.04,3.15,4.11c-0.83,4.52-5.48,27.69-6.33,38.88c-0.79,10.4,0.91,19.17,8.22,19.17c11.44,0,8.93-1.9,8.93-9.27" style="fill:none;stroke:black;stroke-width:3" />
<circle cx="1034.75" cy="37.85" r="5" stroke-width="0" fill="#FF2A00" opacity="0.7" />
<path d="M1121.1100000000001,11.5c0.91,0.49,2.4,2.38,2.4,3.35c0,3.59-0.12,4.4-0.12,7.88" style="fill:none;stroke:#999;stroke-width:3" />
<path d="M1101.37,24.87c0.85,0.06,2.8,0.41,3.63,0.33c6.7-0.69,25.57-3.24,35.13-3.72c1.41-0.07,2.13,0.03,3.17,0.42" style="fill:none;stroke:#999;stroke-width:3" />
<path d="M1109.3,33.2c0.28,0.26,0.57,0.48,0.7,0.8c0.98,2.57,2,7.79,2.67,12.41" style="fill:none;stroke:#999;stroke-width:3" />
<path d="M1111.07,34.09c6.94-1.08,19.2-2.87,22.78-3.24c1.31-0.13,2.09,1.34,1.91,2.12c-0.78,3.24-0.98,5.15-2.64,9.82" style="fill:none;stroke:#999;stroke-width:3" />
<path d="M1113.46,45.72c4.2-0.41,15.63-2.1,20.96-2.52" style="fill:none;stroke:#999;stroke-width:3" />
<path d="M1107.87,54.24c0.96,0.19,2.76,0.5,4.2,0.33c1.75-0.21,20.73-3.42,22.4-3.42c1.67,0,2.55,1.05,0.88,2.21c-1.67,1.16-6.67,5.62-12.83,10.12" style="fill:none;stroke:#999;stroke-width:3" />
<path d="M1121.95,63.08c4.12,3.61,7.88,17.38,2.71,27.96c-3.06,6.26-5.82,1.05-7.3,0.53" style="fill:none;stroke:#999;stroke-width:3" />
<path d="M1104.5,78c1.28,0.68,3.06,0.91,5.25,0c9-3.75,18.75-8.5,30-13.63" style="fill:none;stroke:#999;stroke-width:3" />
<path d="M1159.02,13.88c0.58,0.69,1.39,2.16,1.36,3.41C1159.5,51 1150.25,78.75 1133.88,94.25" style="fill:none;stroke:#999;stroke-width:3" />
<path d="M1143.75,37.85c0.74,0.82,3.52,0.27,4.45,0c0.93-0.27,23.74-6.53,24.57-6.59c1.85-0.14,3.71,1.04,3.15,4.11c-0.83,4.52-5.48,27.69-6.33,38.88c-0.79,10.4,0.91,19.17,8.22,19.17c11.44,0,8.93-1.9,8.93-9.27" style="fill:none;stroke:#999;stroke-width:3" />
<path d="M1144.0,57.5c6.02,2.2,15.55,9.05,17.06,12.47" style="fill:none;stroke:black;stroke-width:3" />
<circle cx="1144.0" cy="57.5" r="5" stroke-width="0" fill="#FF2A00" opacity="0.7" />
</svg>