<!-- 05b75 -->
<svg width="1526px" height="109px" viewBox="0 0 1526px 109px" xmlns="http://www.w3.org/2000/svg" xmlns:xlink="http://www.w3.org/1999/xlink" xml:space="preserve" version="1.1"  baseProfile="full">
<line x1="1" y1="1" x2="1525" y2="1" style="stroke:#ddd;stroke-width:2" />
<line x1="1" y1="1" x2="1" y2="108" style="stroke:#ddd;stroke-width:2" />
<line x1="1" y1="108" x2="1525" y2="108" style="stroke:#ddd;stroke-width:2" />
<line x1="1525" y1="1" x2="1525" y2="108" style="stroke:#ddd;stroke-width:2" />
<line x1="109" y1="1" x2="109" y2="108" style="stroke:#ddd;stroke-width:2" />
<line x1="218" y1="1" x2="218" y2="108" style="stroke:#ddd;stroke-width:2" />
<line x1="327" y1="1" x2="327" y2="108" style="stroke:#ddd;stroke-width:2" />
<line x1="436" y1="1" x2="436" y2="108" style="stroke:#ddd;stroke-width:2" />
<line x1="545" y1="1" x2="545" y2="108" style="stroke:#ddd;stroke-width:2" />
<line x1="654" y1="1" x2="654" y2="108" style="stroke:#ddd;stroke-width:2" />
<line x1="763" y1="1" x2="763" y2="108" style="stroke:#ddd;stroke-width:2" />
<line x1="872" y1="1" x2="872" y2="108" style="stroke:#ddd;stroke-width:2" />
<line x1="981" y1="1" x2="981" y2="108" style="stroke:#ddd;stroke-width:2" />
<line x1="1090" y1="1" x2="1090" y2="108" style="stroke:#ddd;stroke-width:2" />
<line x1="1199" y1="1" x2="1199" y2="108" style="stroke:#ddd;stroke-width:2" />
<line x1="1308" y1="1" x2="1308" y2="108" style="stroke:#ddd;stroke-width:2" />
<line x1="1417" y1="1" x2="1417" y2="108" style="stroke:#ddd;stroke-width:2" />
<line x1="1" y1="54" x2="1525" y2="54" style="stroke:#ddd;stroke-width:2;stroke-dasharray:3 3" />
<line x1="55" y1="1" x2="55" y2="108" style="stroke:#ddd;stroke-width:2;stroke-dasharray:3 3" />
<line x1="164" y1="1" x2="164" y2="108" style="stroke:#ddd;stroke-width:2;stroke-dasharray:3 3" />
<line x1="273" y1="1" x2="273" y2="108" style="stroke:#ddd;stroke-width:2;stroke-dasharray:3 3" />
<line x1="382" y1="1" x2="382" y2="108" style="stroke:#ddd;stroke-width:2;stroke-dasharray:3 3" />
<line x1="491" y1="1" x2="491" y2="108" style="stroke:#ddd;stroke-width:2;stroke-dasharray:3 3" />
<line x1="600" y1="1" x2="600" y2="108" style="stroke:#ddd;stroke-width:2;stroke-dasharray:3 3" />
<line x1="709" y1="1" x2="709" y2="108" style="stroke:#ddd;stroke-width:2;stroke-dasharray:3 3" />
<line x1="818" y1="1" x2="818" y2="108" style="stroke:#ddd;stroke-width:2;stroke-dasharray:3 3" />
<line x1="927" y1="1" x2="927" y2="108" style="stroke:#ddd;stroke-width:2;stroke-dasharray:3 3" />
<line x1="1036" y1="1" x2="1036" y2="108" style="stroke:#ddd;stroke-width:2;stroke-dasharray:3 3" />
<line x1="1145" y1="1" x2="1145" y2="108" style="stroke:#ddd;stroke-width:2;stroke-dasharray:3 3" />
<line x1="1254" y1="1" x2="1254" y2="108" style="stroke:#ddd;stroke-width:2;stroke-dasharray:3 3" />
<line x1="1363" y1="1" x2="1363" y2="108" style="stroke:#ddd;stroke-width:2;stroke-dasharray:3 3" />
<line x1="1472" y1="1" x2="1472" y2="108" style="stroke:#ddd;stroke-width:2;stroke-dasharray:3 3" />
<path d="M26.49,16c0.03,0.31,0.12,0.89-0.06,1.23c-2.34,4.33-5.79,8.31-11.89,11.81" style="fill:none;stroke:black;stroke-width:3" />
<circle cx="26.49" cy="16.0" r="5" stroke-width="0" fill="#FF2A00" opacity="0.7" />
<path d="M135.49,16c0.03,0.31,0.12,0.89-0.06,1.23c-2.34,4.33-5.79,8.31-11.89,11.81" style="fill:none;stroke:#999;stroke-width:3" />
<path d="M121.37,30.01c0.46,0.46,0.73,2.07,0.83,2.99c0.09,0.92,0.37,35.14-0.18,37.44c-0.55,2.3,0.74,2.81,3.05,1.15c1.58-1.14,6.44-7.08,10.16-10.33" style="fill:none;stroke:black;stroke-width:3" />
<circle cx="121.37" cy="30.01" r="5" stroke-width="0" fill="#FF2A00" opacity="0.7" />
<path d="M244.49,16c0.03,0.31,0.12,0.89-0.06,1.23c-2.34,4.33-5.79,8.31-11.89,11.81" style="fill:none;stroke:#999;stroke-width:3" />
<path d="M230.37,30.01c0.46,0.46,0.73,2.07,0.83,2.99c0.09,0.92,0.37,35.14-0.18,37.44c-0.55,2.3,0.74,2.81,3.05,1.15c1.58-1.14,6.44-7.08,10.16-10.33" style="fill:none;stroke:#999;stroke-width:3" />
<path d="M236.26,41.83c1.25,1.92,3.22,7.9,3.54,10.88" style="fill:none;stroke:black;stroke-width:3" />
<circle cx="236.26" cy="41.83" r="5" stroke-width="0" fill="#FF2A00" opacity="0.7" />
<path d="M353.49,16c0.03,0.31,0.12,0.89-0.06,1.23c-2.34,4.33-5.79,8.31-11.89,11.81" style="fill:none;stroke:#999;stroke-width:3" />
<path d="M339.37,30.01c0.46,0.46,0.73,2.07,0.83,2.99c0.09,0.92,0.37,35.14-0.18,37.44c-0.55,2.3,0.74,2.81,3.05,1.15c1.58-1.14,6.44-7.08,10.16-10.33" style="fill:none;stroke:#999;stroke-width:3" />
<path d="M345.26,41.83c1.25,1.92,3.22,7.9,3.54,10.88" style="fill:none;stroke:#999;stroke-width:3" />
<path d="M353.4,28.93c0.59,0.88,1.07,4.57,1.07,6.82c0,27.76,2.28,49.76-11.62,60.16" style="fill:none;stroke:black;stroke-width:3" />
<circle cx="353.4" cy="28.93" r="5" stroke-width="0" fill="#FF2A00" opacity="0.7" />
<path d="M462.49,16c0.03,0.31,0.12,0.89-0.06,1.23c-2.34,4.33-5.79,8.31-11.89,11.81" style="fill:none;stroke:#999;stroke-width:3" />
<path d="M448.37,30.01c0.46,0.46,0.73,2.07,0.83,2.99c0.09,0.92,0.37,35.14-0.18,37.44c-0.55,2.3,0.74,2.81,3.05,1.15c1.58-1.14,6.44-7.08,10.16-10.33" style="fill:none;stroke:#999;stroke-width:3" />
<path d="M454.26,41.83c1.25,1.92,3.22,7.9,3.54,10.88" style="fill:none;stroke:#999;stroke-width:3" />
<path d="M462.4,28.93c0.59,0.88,1.07,4.57,1.07,6.82c0,27.76,2.28,49.76-11.62,60.16" style="fill:none;stroke:#999;stroke-width:3" />
<path d="M469.81,26.74c0.61,0.21,1.81,0.9,3.03,0.78c2.91-0.28,8.71-2.14,10.22-2.35c1.52-0.21,3.79-0.43,3.94,4.07c0.07,2.15-0.28,25.01-0.28,36.38c0,11.52-6.2,2.07-6.65,1.64" style="fill:none;stroke:black;stroke-width:3" />
<circle cx="469.81" cy="26.74" r="5" stroke-width="0" fill="#FF2A00" opacity="0.7" />
<path d="M571.49,16c0.03,0.31,0.12,0.89-0.06,1.23c-2.34,4.33-5.79,8.31-11.89,11.81" style="fill:none;stroke:#999;stroke-width:3" />
<path d="M557.37,30.01c0.46,0.46,0.73,2.07,0.83,2.99c0.09,0.92,0.37,35.14-0.18,37.44c-0.55,2.3,0.74,2.81,3.05,1.15c1.58-1.14,6.44-7.08,10.16-10.33" style="fill:none;stroke:#999;stroke-width:3" />
<path d="M563.26,41.83c1.25,1.92,3.22,7.9,3.54,10.88" style="fill:none;stroke:#999;stroke-width:3" />
<path d="M571.4,28.93c0.59,0.88,1.07,4.57,1.07,6.82c0,27.76,2.28,49.76-11.62,60.16" style="fill:none;stroke:#999;stroke-width:3" />
<path d="M578.81,26.74c0.61,0.21,1.81,0.9,3.03,0.78c2.91-0.28,8.71-2.14,10.22-2.35c1.52-0.21,3.79-0.43,3.94,4.07c0.07,2.15-0.28,25.01-0.28,36.38c0,11.52-6.2,2.07-6.65,1.64" style="fill:none;stroke:#999;stroke-width:3" />
<path d="M584.94,39.58c1.54,1.88,3.97,7.72,4.36,10.63" style="fill:none;stroke:black;stroke-width:3" />
<circle cx="584.94" cy="39.58" r="5" stroke-width="0" fill="#FF2A00" opacity="0.7" />
<path d="M680.49,16c0.03,0.31,0.12,0.89-0.06,1.23c-2.34,4.33-5.79,8.31-11.89,11.81" style="fill:none;stroke:#999;stroke-width:3" />
<path d="M666.37,30.01c0.46,0.46,0.73,2.07,0.83,2.99c0.09,0.92,0.37,35.14-0.18,37.44c-0.55,2.3,0.74,2.81,3.05,1.15c1.58-1.14,6.44-7.08,10.16-10.33" style="fill:none;stroke:#999;stroke-width:3" />
<path d="M672.26,41.83c1.25,1.92,3.22,7.9,3.54,10.88" style="fill:none;stroke:#999;stroke-width:3" />
<path d="M680.4,28.93c0.59,0.88,1.07,4.57,1.07,6.82c0,27.76,2.28,49.76-11.62,60.16" style="fill:none;stroke:#999;stroke-width:3" />
<path d="M687.81,26.74c0.61,0.21,1.81,0.9,3.03,0.78c2.91-0.28,8.71-2.14,10.22-2.35c1.52-0.21,3.79-0.43,3.94,4.07c0.07,2.15-0.28,25.01-0.28,36.38c0,11.52-6.2,2.07-6.65,1.64" style="fill:none;stroke:#999;stroke-width:3" />
<path d="M693.94,39.58c1.54,1.88,3.97,7.72,4.36,10.63" style="fill:none;stroke:#999;stroke-width:3" />
<path d="M691.14,28.86c0.02,7.39,0,62.84-0.11,68.64" style="fill:none;stroke:black;stroke-width:3" />
<circle cx="691.14" cy="28.86" r="5" stroke-width="0" fill="#FF2A00" opacity="0.7" />
<path d="M789.49,16c0.03,0.31,0.12,0.89-0.06,1.23c-2.34,4.33-5.79,8.31-11.89,11.81" style="fill:none;stroke:#999;stroke-width:3" />
<path d="M775.37,30.01c0.46,0.46,0.73,2.07,0.83,2.99c0.09,0.92,0.37,35.14-0.18,37.44c-0.55,2.3,0.74,2.81,3.05,1.15c1.58-1.14,6.44-7.08,10.16-10.33" style="fill:none;stroke:#999;stroke-width:3" />
<path d="M781.26,41.83c1.25,1.92,3.22,7.9,3.54,10.88" style="fill:none;stroke:#999;stroke-width:3" />
<path d="M789.4,28.93c0.59,0.88,1.07,4.57,1.07,6.82c0,27.76,2.28,49.76-11.62,60.16" style="fill:none;stroke:#999;stroke-width:3" />
<path d="M796.81,26.74c0.61,0.21,1.81,0.9,3.03,0.78c2.91-0.28,8.71-2.14,10.22-2.35c1.52-0.21,3.79-0.43,3.94,4.07c0.07,2.15-0.28,25.01-0.28,36.38c0,11.52-6.2,2.07-6.65,1.64" style="fill:none;stroke:#999;stroke-width:3" />
<path d="M802.94,39.58c1.54,1.88,3.97,7.72,4.36,10.63" style="fill:none;stroke:#999;stroke-width:3" />
<path d="M800.14,28.86c0.02,7.39,0,62.84-0.11,68.64" style="fill:none;stroke:#999;stroke-width:3" />
<path d="M848.26,10.04c0.07,0.26,0.14,0.68-0.13,1.06c-1.61,2.23-11.31,8.14-23.48,10.13" style="fill:none;stroke:black;stroke-width:3" />
<circle cx="848.26" cy="10.04" r="5" stroke-width="0" fill="#FF2A00" opacity="0.7" />
<path d="M898.49,16c0.03,0.31,0.12,0.89-0.06,1.23c-2.34,4.33-5.79,8.31-11.89,11.81" style="fill:none;stroke:#999;stroke-width:3" />
<path d="M884.37,30.01c0.46,0.46,0.73,2.07,0.83,2.99c0.09,0.92,0.37,35.14-0.18,37.44c-0.55,2.3,0.74,2.81,3.05,1.15c1.58-1.14,6.44-7.08,10.16-10.33" style="fill:none;stroke:#999;stroke-width:3" />
<path d="M890.26,41.83c1.25,1.92,3.22,7.9,3.54,10.88" style="fill:none;stroke:#999;stroke-width:3" />
<path d="M898.4,28.93c0.59,0.88,1.07,4.57,1.07,6.82c0,27.76,2.28,49.76-11.62,60.16" style="fill:none;stroke:#999;stroke-width:3" />
<path d="M905.81,26.74c0.61,0.21,1.81,0.9,3.03,0.78c2.91-0.28,8.71-2.14,10.22-2.35c1.52-0.21,3.79-0.43,3.94,4.07c0.07,2.15-0.28,25.01-0.28,36.38c0,11.52-6.2,2.07-6.65,1.64" style="fill:none;stroke:#999;stroke-width:3" />
<path d="M911.94,39.58c1.54,1.88,3.97,7.72,4.36,10.63" style="fill:none;stroke:#999;stroke-width:3" />
<path d="M909.14,28.86c0.02,7.39,0,62.84-0.11,68.64" style="fill:none;stroke:#999;stroke-width:3" />
<path d="M957.26,10.04c0.07,0.26,0.14,0.68-0.13,1.06c-1.61,2.23-11.31,8.14-23.48,10.13" style="fill:none;stroke:#999;stroke-width:3" />
<path d="M935.19,24.84c0.02,0.37,0.04,0.96-0.04,1.49c-0.43,3.14-2.89,10.04-6.25,14.25" style="fill:none;stroke:black;stroke-width:3" />
<circle cx="935.19" cy="24.84" r="5" stroke-width="0" fill="#FF2A00" opacity="0.7" />
<path d="M1007.49,16c0.03,0.31,0.12,0.89-0.06,1.23c-2.34,4.33-5.79,8.31-11.89,11.81" style="fill:none;stroke:#999;stroke-width:3" />
<path d="M993.37,30.01c0.46,0.46,0.73,2.07,0.83,2.99c0.09,0.92,0.37,35.14-0.18,37.44c-0.55,2.3,0.74,2.81,3.05,1.15c1.58-1.14,6.44-7.08,10.16-10.33" style="fill:none;stroke:#999;stroke-width:3" />
<path d="M999.26,41.83c1.25,1.92,3.22,7.9,3.54,10.88" style="fill:none;stroke:#999;stroke-width:3" />
<path d="M1007.4,28.93c0.59,0.88,1.07,4.57,1.07,6.82c0,27.76,2.28,49.76-11.62,60.16" style="fill:none;stroke:#999;stroke-width:3" />
<path d="M1014.81,26.74c0.61,0.21,1.81,0.9,3.03,0.78c2.91-0.28,8.71-2.14,10.22-2.35c1.52-0.21,3.79-0.43,3.94,4.07c0.07,2.15-0.28,25.01-0.28,36.38c0,11.52-6.2,2.07-6.65,1.64" style="fill:none;stroke:#999;stroke-width:3" />
<path d="M1020.94,39.58c1.54,1.88,3.97,7.72,4.36,10.63" style="fill:none;stroke:#999;stroke-width:3" />
<path d="M1018.14,28.86c0.02,7.39,0,62.84-0.11,68.64" style="fill:none;stroke:#999;stroke-width:3" />
<path d="M1066.26,10.04c0.07,0.26,0.14,0.68-0.13,1.06c-1.61,2.23-11.31,8.14-23.48,10.13" style="fill:none;stroke:#999;stroke-width:3" />
<path d="M1044.19,24.84c0.02,0.37,0.04,0.96-0.04,1.49c-0.43,3.14-2.89,10.04-6.25,14.25" style="fill:none;stroke:#999;stroke-width:3" />
<path d="M1052.89,24.74c1.94,1.87,5.02,7.68,5.5,10.59" style="fill:none;stroke:black;stroke-width:3" />
<circle cx="1052.89" cy="24.74" r="5" stroke-width="0" fill="#FF2A00" opacity="0.7" />
<path d="M1116.49,16c0.03,0.31,0.12,0.89-0.06,1.23c-2.34,4.33-5.79,8.31-11.89,11.81" style="fill:none;stroke:#999;stroke-width:3" />
<path d="M1102.37,30.01c0.46,0.46,0.73,2.07,0.83,2.99c0.09,0.92,0.37,35.14-0.18,37.44c-0.55,2.3,0.74,2.81,3.05,1.15c1.58-1.14,6.44-7.08,10.16-10.33" style="fill:none;stroke:#999;stroke-width:3" />
<path d="M1108.26,41.83c1.25,1.92,3.22,7.9,3.54,10.88" style="fill:none;stroke:#999;stroke-width:3" />
<path d="M1116.4,28.93c0.59,0.88,1.07,4.57,1.07,6.82c0,27.76,2.28,49.76-11.62,60.16" style="fill:none;stroke:#999;stroke-width:3" />
<path d="M1123.81,26.74c0.61,0.21,1.81,0.9,3.03,0.78c2.91-0.28,8.71-2.14,10.22-2.35c1.52-0.21,3.79-0.43,3.94,4.07c0.07,2.15-0.28,25.01-0.28,36.38c0,11.52-6.2,2.07-6.65,1.64" style="fill:none;stroke:#999;stroke-width:3" />
<path d="M1129.94,39.58c1.54,1.88,3.97,7.72,4.36,10.63" style="fill:none;stroke:#999;stroke-width:3" />
<path d="M1127.1399999999999,28.86c0.02,7.39,0,62.84-0.11,68.64" style="fill:none;stroke:#999;stroke-width:3" />
<path d="M1175.26,10.04c0.07,0.26,0.14,0.68-0.13,1.06c-1.61,2.23-11.31,8.14-23.48,10.13" style="fill:none;stroke:#999;stroke-width:3" />
<path d="M1153.19,24.84c0.02,0.37,0.04,0.96-0.04,1.49c-0.43,3.14-2.89,10.04-6.25,14.25" style="fill:none;stroke:#999;stroke-width:3" />
<path d="M1161.89,24.74c1.94,1.87,5.02,7.68,5.5,10.59" style="fill:none;stroke:#999;stroke-width:3" />
<path d="M1172.51,20.51c4.28,2.57,11.05,10.59,12.12,14.59" style="fill:none;stroke:black;stroke-width:3" />
<circle cx="1172.51" cy="20.51" r="5" stroke-width="0" fill="#FF2A00" opacity="0.7" />
<path d="M1225.49,16c0.03,0.31,0.12,0.89-0.06,1.23c-2.34,4.33-5.79,8.31-11.89,11.81" style="fill:none;stroke:#999;stroke-width:3" />
<path d="M1211.37,30.01c0.46,0.46,0.73,2.07,0.83,2.99c0.09,0.92,0.37,35.14-0.18,37.44c-0.55,2.3,0.74,2.81,3.05,1.15c1.58-1.14,6.44-7.08,10.16-10.33" style="fill:none;stroke:#999;stroke-width:3" />
<path d="M1217.26,41.83c1.25,1.92,3.22,7.9,3.54,10.88" style="fill:none;stroke:#999;stroke-width:3" />
<path d="M1225.4,28.93c0.59,0.88,1.07,4.57,1.07,6.82c0,27.76,2.28,49.76-11.62,60.16" style="fill:none;stroke:#999;stroke-width:3" />
<path d="M1232.81,26.74c0.61,0.21,1.81,0.9,3.03,0.78c2.91-0.28,8.71-2.14,10.22-2.35c1.52-0.21,3.79-0.43,3.94,4.07c0.07,2.15-0.28,25.01-0.28,36.38c0,11.52-6.2,2.07-6.65,1.64" style="fill:none;stroke:#999;stroke-width:3" />
<path d="M1238.94,39.58c1.54,1.88,3.97,7.72,4.36,10.63" style="fill:none;stroke:#999;stroke-width:3" />
<path d="M1236.1399999999999,28.86c0.02,7.39,0,62.84-0.11,68.64" style="fill:none;stroke:#999;stroke-width:3" />
<path d="M1284.26,10.04c0.07,0.26,0.14,0.68-0.13,1.06c-1.61,2.23-11.31,8.14-23.48,10.13" style="fill:none;stroke:#999;stroke-width:3" />
<path d="M1262.19,24.84c0.02,0.37,0.04,0.96-0.04,1.49c-0.43,3.14-2.89,10.04-6.25,14.25" style="fill:none;stroke:#999;stroke-width:3" />
<path d="M1270.89,24.74c1.94,1.87,5.02,7.68,5.5,10.59" style="fill:none;stroke:#999;stroke-width:3" />
<path d="M1281.51,20.51c4.28,2.57,11.05,10.59,12.12,14.59" style="fill:none;stroke:#999;stroke-width:3" />
<path d="M1260.42,43.72c0.72,0.3,2.08,0.77,3.17,0.51c1.32-0.32,22.7-3.93,23.92-4.23c2-0.5,2.86,1.4,1.6,3.19c-1.26,1.79-12.96,11.74-16.16,14.98" style="fill:none;stroke:black;stroke-width:3" />
<circle cx="1260.42" cy="43.72" r="5" stroke-width="0" fill="#FF2A00" opacity="0.7" />
<path d="M1334.49,16c0.03,0.31,0.12,0.89-0.06,1.23c-2.34,4.33-5.79,8.31-11.89,11.81" style="fill:none;stroke:#999;stroke-width:3" />
<path d="M1320.37,30.01c0.46,0.46,0.73,2.07,0.83,2.99c0.09,0.92,0.37,35.14-0.18,37.44c-0.55,2.3,0.74,2.81,3.05,1.15c1.58-1.14,6.44-7.08,10.16-10.33" style="fill:none;stroke:#999;stroke-width:3" />
<path d="M1326.26,41.83c1.25,1.92,3.22,7.9,3.54,10.88" style="fill:none;stroke:#999;stroke-width:3" />
<path d="M1334.4,28.93c0.59,0.88,1.07,4.57,1.07,6.82c0,27.76,2.28,49.76-11.62,60.16" style="fill:none;stroke:#999;stroke-width:3" />
<path d="M1341.81,26.74c0.61,0.21,1.81,0.9,3.03,0.78c2.91-0.28,8.71-2.14,10.22-2.35c1.52-0.21,3.79-0.43,3.94,4.07c0.07,2.15-0.28,25.01-0.28,36.38c0,11.52-6.2,2.07-6.65,1.64" style="fill:none;stroke:#999;stroke-width:3" />
<path d="M1347.94,39.58c1.54,1.88,3.97,7.72,4.36,10.63" style="fill:none;stroke:#999;stroke-width:3" />
<path d="M1345.1399999999999,28.86c0.02,7.39,0,62.84-0.11,68.64" style="fill:none;stroke:#999;stroke-width:3" />
<path d="M1393.26,10.04c0.07,0.26,0.14,0.68-0.13,1.06c-1.61,2.23-11.31,8.14-23.48,10.13" style="fill:none;stroke:#999;stroke-width:3" />
<path d="M1371.19,24.84c0.02,0.37,0.04,0.96-0.04,1.49c-0.43,3.14-2.89,10.04-6.25,14.25" style="fill:none;stroke:#999;stroke-width:3" />
<path d="M1379.89,24.74c1.94,1.87,5.02,7.68,5.5,10.59" style="fill:none;stroke:#999;stroke-width:3" />
<path d="M1390.51,20.51c4.28,2.57,11.05,10.59,12.12,14.59" style="fill:none;stroke:#999;stroke-width:3" />
<path d="M1369.42,43.72c0.72,0.3,2.08,0.77,3.17,0.51c1.32-0.32,22.7-3.93,23.92-4.23c2-0.5,2.86,1.4,1.6,3.19c-1.26,1.79-12.96,11.74-16.16,14.98" style="fill:none;stroke:#999;stroke-width:3" />
<path d="M1380.91,57.41c12.84,11.09,9.34,53.59-3.72,34.6" style="fill:none;stroke:black;stroke-width:3" />
<circle cx="1380.91" cy="57.41" r="5" stroke-width="0" fill="#FF2A00" opacity="0.7" />
<path d="M1443.49,16c0.03,0.31,0.12,0.89-0.06,1.23c-2.34,4.33-5.79,8.31-11.89,11.81" style="fill:none;stroke:#999;stroke-width:3" />
<path d="M1429.37,30.01c0.46,0.46,0.73,2.07,0.83,2.99c0.09,0.92,0.37,35.14-0.18,37.44c-0.55,2.3,0.74,2.81,3.05,1.15c1.58-1.14,6.44-7.08,10.16-10.33" style="fill:none;stroke:#999;stroke-width:3" />
<path d="M1435.26,41.83c1.25,1.92,3.22,7.9,3.54,10.88" style="fill:none;stroke:#999;stroke-width:3" />
<path d="M1443.4,28.93c0.59,0.88,1.07,4.57,1.07,6.82c0,27.76,2.28,49.76-11.62,60.16" style="fill:none;stroke:#999;stroke-width:3" />
<path d="M1450.81,26.74c0.61,0.21,1.81,0.9,3.03,0.78c2.91-0.28,8.71-2.14,10.22-2.35c1.52-0.21,3.79-0.43,3.94,4.07c0.07,2.15-0.28,25.01-0.28,36.38c0,11.52-6.2,2.07-6.65,1.64" style="fill:none;stroke:#999;stroke-width:3" />
<path d="M1456.94,39.58c1.54,1.88,3.97,7.72,4.36,10.63" style="fill:none;stroke:#999;stroke-width:3" />
<path d="M1454.1399999999999,28.86c0.02,7.39,0,62.84-0.11,68.64" style="fill:none;stroke:#999;stroke-width:3" />
<path d="M1502.26,10.04c0.07,0.26,0.14,0.68-0.13,1.06c-1.61,2.23-11.31,8.14-23.48,10.13" style="fill:none;stroke:#999;stroke-width:3" />
<path d="M1480.19,24.84c0.02,0.37,0.04,0.96-0.04,1.49c-0.43,3.14-2.89,10.04-6.25,14.25" style="fill:none;stroke:#999;stroke-width:3" />
<path d="M1488.89,24.74c1.94,1.87,5.02,7.68,5.5,10.59" style="fill:none;stroke:#999;stroke-width:3" />
<path d="M1499.51,20.51c4.28,2.57,11.05,10.59,12.12,14.59" style="fill:none;stroke:#999;stroke-width:3" />
<path d="M1478.42,43.72c0.72,0.3,2.08,0.77,3.17,0.51c1.32-0.32,22.7-3.93,23.92-4.23c2-0.5,2.86,1.4,1.6,3.19c-1.26,1.79-12.96,11.74-16.16,14.98" style="fill:none;stroke:#999;stroke-width:3" />
<path d="M1489.91,57.41c12.84,11.09,9.34,53.59-3.72,34.6" style="fill:none;stroke:#999;stroke-width:3" />
<path d="M1472.84,65.67c1.04,0.65,2.93,0.75,3.97,0.65c8.74-0.81,27.16-4.17,35.57-3.98c1.73,0.04,2.76,0.31,3.63,0.63" style="fill:none;stroke:black;stroke-width:3" />
<circle cx="1472.84" cy="65.67" r="5" stroke-width="0" fill="#FF2A00" opacity="0.7" />
</svg>