<!-- 05bbf -->
<svg width="1199px" height="109px" viewBox="0 0 1199px 109px" xmlns="http://www.w3.org/2000/svg" xmlns:xlink="http://www.w3.org/1999/xlink" xml:space="preserve" version="1.1"  baseProfile="full">
<line x1="1" y1="1" x2="1198" y2="1" style="stroke:#ddd;stroke-width:2" />
<line x1="1" y1="1" x2="1" y2="108" style="stroke:#ddd;stroke-width:2" />
<line x1="1" y1="108" x2="1198" y2="108" style="stroke:#ddd;stroke-width:2" />
<line x1="1198" y1="1" x2="1198" y2="108" style="stroke:#ddd;stroke-width:2" />
<line x1="109" y1="1" x2="109" y2="108" style="stroke:#ddd;stroke-width:2" />
<line x1="218" y1="1" x2="218" y2="108" style="stroke:#ddd;stroke-width:2" />
<line x1="327" y1="1" x2="327" y2="108" style="stroke:#ddd;stroke-width:2" />
<line x1="436" y1="1" x2="436" y2="108" style="stroke:#ddd;stroke-width:2" />
<line x1="545" y1="1" x2="545" y2="108" style="stroke:#ddd;stroke-width:2" />
<line x1="654" y1="1" x2="654" y2="108" style="stroke:#ddd;stroke-width:2" />
<line x1="763" y1="1" x2="763" y2="108" style="stroke:#ddd;stroke-width:2" />
<line x1="872" y1="1" x2="872" y2="108" style="stroke:#ddd;stroke-width:2" />
<line x1="981" y1="1" x2="981" y2="108" style="stroke:#ddd;stroke-width:2" />
<line x1="1090" y1="1" x2="1090" y2="108" style="stroke:#ddd;stroke-width:2" />
<line x1="1" y1="54" x2="1198" y2="54" style="stroke:#ddd;stroke-width:2;stroke-dasharray:3 3" />
<line x1="55" y1="1" x2="55" y2="108" style="stroke:#ddd;stroke-width:2;stroke-dasharray:3 3" />
<line x1="164" y1="1" x2="164" y2="108" style="stroke:#ddd;stroke-width:2;stroke-dasharray:3 3" />
<line x1="273" y1="1" x2="273" y2="108" style="stroke:#ddd;stroke-width:2;stroke-dasharray:3 3" />
<line x1="382" y1="1" x2="382" y2="108" style="stroke:#ddd;stroke-width:2;stroke-dasharray:3 3" />
<line x1="491" y1="1" x2="491" y2="108" style="stroke:#ddd;stroke-width:2;stroke-dasharray:3 3" />
<line x1="600" y1="1" x2="600" y2="108" style="stroke:#ddd;stroke-width:2;stroke-dasharray:3 3" />
<line x1="709" y1="1" x2="709" y2="108" style="stroke:#ddd;stroke-width:2;stroke-dasharray:3 3" />
<line x1="818" y1="1" x2="818" y2="108" style="stroke:#ddd;stroke-width:2;stroke-dasharray:3 3" />
<line x1="927" y1="1" x2="927" y2="108" style="stroke:#ddd;stroke-width:2;stroke-dasharray:3 3" />
<line x1="1036" y1="1" x2="1036" y2="108" style="stroke:#ddd;stroke-width:2;stroke-dasharray:3 3" />
<line x1="1145" y1="1" x2="1145" y2="108" style="stroke:#ddd;stroke-width:2;stroke-dasharray:3 3" />
<path d="M53.25,10.5c1,1,1.74,2.53,1.71,3.77c-0.09,3.9-0.1,6.23-0.1,8.83" style="fill:none;stroke:black;stroke-width:3" />
<circle cx="53.25" cy="10.5" r="5" stroke-width="0" fill="#FF2A00" opacity="0.7" />
<path d="M162.25,10.5c1,1,1.74,2.53,1.71,3.77c-0.09,3.9-0.1,6.23-0.1,8.83" style="fill:none;stroke:#999;stroke-width:3" />
<path d="M130.75,24.75c0,3.89-3.25,15.16-4.5,17.75" style="fill:none;stroke:black;stroke-width:3" />
<circle cx="130.75" cy="24.75" r="5" stroke-width="0" fill="#FF2A00" opacity="0.7" />
<path d="M271.25,10.5c1,1,1.74,2.53,1.71,3.77c-0.09,3.9-0.1,6.23-0.1,8.83" style="fill:none;stroke:#999;stroke-width:3" />
<path d="M239.75,24.75c0,3.89-3.25,15.16-4.5,17.75" style="fill:none;stroke:#999;stroke-width:3" />
<path d="M240.72,27.76c18.03-2.01,43.91-5.26,63.12-5.93c12.16-0.42,3.17,7.41-0.42,9.28" style="fill:none;stroke:black;stroke-width:3" />
<circle cx="240.72" cy="27.76" r="5" stroke-width="0" fill="#FF2A00" opacity="0.7" />
<path d="M380.25,10.5c1,1,1.74,2.53,1.71,3.77c-0.09,3.9-0.1,6.23-0.1,8.83" style="fill:none;stroke:#999;stroke-width:3" />
<path d="M348.75,24.75c0,3.89-3.25,15.16-4.5,17.75" style="fill:none;stroke:#999;stroke-width:3" />
<path d="M349.72,27.76c18.03-2.01,43.91-5.26,63.12-5.93c12.16-0.42,3.17,7.41-0.42,9.28" style="fill:none;stroke:#999;stroke-width:3" />
<path d="M359.77,37.81c0.21,1.75-0.06,3.54-0.73,5.04C354.77,52.4 349.79,61.21 340.0,72.83" style="fill:none;stroke:black;stroke-width:3" />
<circle cx="359.77" cy="37.81" r="5" stroke-width="0" fill="#FF2A00" opacity="0.7" />
<path d="M489.25,10.5c1,1,1.74,2.53,1.71,3.77c-0.09,3.9-0.1,6.23-0.1,8.83" style="fill:none;stroke:#999;stroke-width:3" />
<path d="M457.75,24.75c0,3.89-3.25,15.16-4.5,17.75" style="fill:none;stroke:#999;stroke-width:3" />
<path d="M458.72,27.76c18.03-2.01,43.91-5.26,63.12-5.93c12.16-0.42,3.17,7.41-0.42,9.28" style="fill:none;stroke:#999;stroke-width:3" />
<path d="M468.77,37.81c0.21,1.75-0.06,3.54-0.73,5.04C463.77,52.4 458.79,61.21 449.0,72.83" style="fill:none;stroke:#999;stroke-width:3" />
<path d="M461.71,59.44c0.99,0.99,1.65,2.31,1.65,4.06c0,9.93-0.1,23.35-0.14,31.25c-0.01,1.55-0.01,2.88-0.01,3.94" style="fill:none;stroke:black;stroke-width:3" />
<circle cx="461.71" cy="59.44" r="5" stroke-width="0" fill="#FF2A00" opacity="0.7" />
<path d="M598.25,10.5c1,1,1.74,2.53,1.71,3.77c-0.09,3.9-0.1,6.23-0.1,8.83" style="fill:none;stroke:#999;stroke-width:3" />
<path d="M566.75,24.75c0,3.89-3.25,15.16-4.5,17.75" style="fill:none;stroke:#999;stroke-width:3" />
<path d="M567.72,27.76c18.03-2.01,43.91-5.26,63.12-5.93c12.16-0.42,3.17,7.41-0.42,9.28" style="fill:none;stroke:#999;stroke-width:3" />
<path d="M577.77,37.81c0.21,1.75-0.06,3.54-0.73,5.04C572.77,52.4 567.79,61.21 558.0,72.83" style="fill:none;stroke:#999;stroke-width:3" />
<path d="M570.71,59.44c0.99,0.99,1.65,2.31,1.65,4.06c0,9.93-0.1,23.35-0.14,31.25c-0.01,1.55-0.01,2.88-0.01,3.94" style="fill:none;stroke:#999;stroke-width:3" />
<path d="M588.62,44.56c2.26,0.56,5.09,0.25,7.53-0.05c8.81-1.11,20.6-2.76,30.35-3.68c2.29-0.22,4.53-0.24,6.79,0.2" style="fill:none;stroke:black;stroke-width:3" />
<circle cx="588.62" cy="44.56" r="5" stroke-width="0" fill="#FF2A00" opacity="0.7" />
<path d="M707.25,10.5c1,1,1.74,2.53,1.71,3.77c-0.09,3.9-0.1,6.23-0.1,8.83" style="fill:none;stroke:#999;stroke-width:3" />
<path d="M675.75,24.75c0,3.89-3.25,15.16-4.5,17.75" style="fill:none;stroke:#999;stroke-width:3" />
<path d="M676.72,27.76c18.03-2.01,43.91-5.26,63.12-5.93c12.16-0.42,3.17,7.41-0.42,9.28" style="fill:none;stroke:#999;stroke-width:3" />
<path d="M686.77,37.81c0.21,1.75-0.06,3.54-0.73,5.04C681.77,52.4 676.79,61.21 667.0,72.83" style="fill:none;stroke:#999;stroke-width:3" />
<path d="M679.71,59.44c0.99,0.99,1.65,2.31,1.65,4.06c0,9.93-0.1,23.35-0.14,31.25c-0.01,1.55-0.01,2.88-0.01,3.94" style="fill:none;stroke:#999;stroke-width:3" />
<path d="M697.62,44.56c2.26,0.56,5.09,0.25,7.53-0.05c8.81-1.11,20.6-2.76,30.35-3.68c2.29-0.22,4.53-0.24,6.79,0.2" style="fill:none;stroke:#999;stroke-width:3" />
<path d="M718.17,45.27c0.36,0.8,0.38,1.59,0.08,2.38c-0.54,2.37-1.87,5.47-4.72,10.48" style="fill:none;stroke:black;stroke-width:3" />
<circle cx="718.17" cy="45.27" r="5" stroke-width="0" fill="#FF2A00" opacity="0.7" />
<path d="M816.25,10.5c1,1,1.74,2.53,1.71,3.77c-0.09,3.9-0.1,6.23-0.1,8.83" style="fill:none;stroke:#999;stroke-width:3" />
<path d="M784.75,24.75c0,3.89-3.25,15.16-4.5,17.75" style="fill:none;stroke:#999;stroke-width:3" />
<path d="M785.72,27.76c18.03-2.01,43.91-5.26,63.12-5.93c12.16-0.42,3.17,7.41-0.42,9.28" style="fill:none;stroke:#999;stroke-width:3" />
<path d="M795.77,37.81c0.21,1.75-0.06,3.54-0.73,5.04C790.77,52.4 785.79,61.21 776.0,72.83" style="fill:none;stroke:#999;stroke-width:3" />
<path d="M788.71,59.44c0.99,0.99,1.65,2.31,1.65,4.06c0,9.93-0.1,23.35-0.14,31.25c-0.01,1.55-0.01,2.88-0.01,3.94" style="fill:none;stroke:#999;stroke-width:3" />
<path d="M806.62,44.56c2.26,0.56,5.09,0.25,7.53-0.05c8.81-1.11,20.6-2.76,30.35-3.68c2.29-0.22,4.53-0.24,6.79,0.2" style="fill:none;stroke:#999;stroke-width:3" />
<path d="M827.17,45.27c0.36,0.8,0.38,1.59,0.08,2.38c-0.54,2.37-1.87,5.47-4.72,10.48" style="fill:none;stroke:#999;stroke-width:3" />
<path d="M811.26,59.41c0.92,0.92,1.62,2.44,1.64,3.73c0.09,8.52-0.06,20.6-0.11,29.74c-0.01,1.44-0.01,2.8-0.01,4.06" style="fill:none;stroke:black;stroke-width:3" />
<circle cx="811.26" cy="59.41" r="5" stroke-width="0" fill="#FF2A00" opacity="0.7" />
<path d="M925.25,10.5c1,1,1.74,2.53,1.71,3.77c-0.09,3.9-0.1,6.23-0.1,8.83" style="fill:none;stroke:#999;stroke-width:3" />
<path d="M893.75,24.75c0,3.89-3.25,15.16-4.5,17.75" style="fill:none;stroke:#999;stroke-width:3" />
<path d="M894.72,27.76c18.03-2.01,43.91-5.26,63.12-5.93c12.16-0.42,3.17,7.41-0.42,9.28" style="fill:none;stroke:#999;stroke-width:3" />
<path d="M904.77,37.81c0.21,1.75-0.06,3.54-0.73,5.04C899.77,52.4 894.79,61.21 885.0,72.83" style="fill:none;stroke:#999;stroke-width:3" />
<path d="M897.71,59.44c0.99,0.99,1.65,2.31,1.65,4.06c0,9.93-0.1,23.35-0.14,31.25c-0.01,1.55-0.01,2.88-0.01,3.94" style="fill:none;stroke:#999;stroke-width:3" />
<path d="M915.62,44.56c2.26,0.56,5.09,0.25,7.53-0.05c8.81-1.11,20.6-2.76,30.35-3.68c2.29-0.22,4.53-0.24,6.79,0.2" style="fill:none;stroke:#999;stroke-width:3" />
<path d="M936.17,45.27c0.36,0.8,0.38,1.59,0.08,2.38c-0.54,2.37-1.87,5.47-4.72,10.48" style="fill:none;stroke:#999;stroke-width:3" />
<path d="M920.26,59.41c0.92,0.92,1.62,2.44,1.64,3.73c0.09,8.52-0.06,20.6-0.11,29.74c-0.01,1.44-0.01,2.8-0.01,4.06" style="fill:none;stroke:#999;stroke-width:3" />
<path d="M922.98,61.44c2.99-0.15,22.75-2.59,27.9-3.08c3.26-0.31,5.17,0.94,4.95,4.28c-0.46,6.99-1.54,18.46-1.97,27.74c-0.08,1.61-0.13,3.09-0.17,4.39" style="fill:none;stroke:black;stroke-width:3" />
<circle cx="922.98" cy="61.44" r="5" stroke-width="0" fill="#FF2A00" opacity="0.7" />
<path d="M1034.25,10.5c1,1,1.74,2.53,1.71,3.77c-0.09,3.9-0.1,6.23-0.1,8.83" style="fill:none;stroke:#999;stroke-width:3" />
<path d="M1002.75,24.75c0,3.89-3.25,15.16-4.5,17.75" style="fill:none;stroke:#999;stroke-width:3" />
<path d="M1003.72,27.76c18.03-2.01,43.91-5.26,63.12-5.93c12.16-0.42,3.17,7.41-0.42,9.28" style="fill:none;stroke:#999;stroke-width:3" />
<path d="M1013.77,37.81c0.21,1.75-0.06,3.54-0.73,5.04C1008.77,52.4 1003.79,61.21 994.0,72.83" style="fill:none;stroke:#999;stroke-width:3" />
<path d="M1006.71,59.44c0.99,0.99,1.65,2.31,1.65,4.06c0,9.93-0.1,23.35-0.14,31.25c-0.01,1.55-0.01,2.88-0.01,3.94" style="fill:none;stroke:#999;stroke-width:3" />
<path d="M1024.62,44.56c2.26,0.56,5.09,0.25,7.53-0.05c8.81-1.11,20.6-2.76,30.35-3.68c2.29-0.22,4.53-0.24,6.79,0.2" style="fill:none;stroke:#999;stroke-width:3" />
<path d="M1045.17,45.27c0.36,0.8,0.38,1.59,0.08,2.38c-0.54,2.37-1.87,5.47-4.72,10.48" style="fill:none;stroke:#999;stroke-width:3" />
<path d="M1029.26,59.41c0.92,0.92,1.62,2.44,1.64,3.73c0.09,8.52-0.06,20.6-0.11,29.74c-0.01,1.44-0.01,2.8-0.01,4.06" style="fill:none;stroke:#999;stroke-width:3" />
<path d="M1031.98,61.44c2.99-0.15,22.75-2.59,27.9-3.08c3.26-0.31,5.17,0.94,4.95,4.28c-0.46,6.99-1.54,18.46-1.97,27.74c-0.08,1.61-0.13,3.09-0.17,4.39" style="fill:none;stroke:#999;stroke-width:3" />
<path d="M1032.08,76.19c11.67-1.07,21.8-2.32,30.73-2.65" style="fill:none;stroke:black;stroke-width:3" />
<circle cx="1032.08" cy="76.19" r="5" stroke-width="0" fill="#FF2A00" opacity="0.7" />
<path d="M1143.25,10.5c1,1,1.74,2.53,1.71,3.77c-0.09,3.9-0.1,6.23-0.1,8.83" style="fill:none;stroke:#999;stroke-width:3" />
<path d="M1111.75,24.75c0,3.89-3.25,15.16-4.5,17.75" style="fill:none;stroke:#999;stroke-width:3" />
<path d="M1112.72,27.76c18.03-2.01,43.91-5.26,63.12-5.93c12.16-0.42,3.17,7.41-0.42,9.28" style="fill:none;stroke:#999;stroke-width:3" />
<path d="M1122.77,37.81c0.21,1.75-0.06,3.54-0.73,5.04C1117.77,52.4 1112.79,61.21 1103.0,72.83" style="fill:none;stroke:#999;stroke-width:3" />
<path d="M1115.71,59.44c0.99,0.99,1.65,2.31,1.65,4.06c0,9.93-0.1,23.35-0.14,31.25c-0.01,1.55-0.01,2.88-0.01,3.94" style="fill:none;stroke:#999;stroke-width:3" />
<path d="M1133.62,44.56c2.26,0.56,5.09,0.25,7.53-0.05c8.81-1.11,20.6-2.76,30.35-3.68c2.29-0.22,4.53-0.24,6.79,0.2" style="fill:none;stroke:#999;stroke-width:3" />
<path d="M1154.17,45.27c0.36,0.8,0.38,1.59,0.08,2.38c-0.54,2.37-1.87,5.47-4.72,10.48" style="fill:none;stroke:#999;stroke-width:3" />
<path d="M1138.26,59.41c0.92,0.92,1.62,2.44,1.64,3.73c0.09,8.52-0.06,20.6-0.11,29.74c-0.01,1.44-0.01,2.8-0.01,4.06" style="fill:none;stroke:#999;stroke-width:3" />
<path d="M1140.98,61.44c2.99-0.15,22.75-2.59,27.9-3.08c3.26-0.31,5.17,0.94,4.95,4.28c-0.46,6.99-1.54,18.46-1.97,27.74c-0.08,1.61-0.13,3.09-0.17,4.39" style="fill:none;stroke:#999;stroke-width:3" />
<path d="M1141.08,76.19c11.67-1.07,21.8-2.32,30.73-2.65" style="fill:none;stroke:#999;stroke-width:3" />
<path d="M1140.97,93.8c10.54-0.64,19.9-1.68,29.68-2.21" style="fill:none;stroke:black;stroke-width:3" />
<circle cx="1140.97" cy="93.8" r="5" stroke-width="0" fill="#FF2A00" opacity="0.7" />
</svg>