<!-- 05bf3 -->
<svg width="2071px" height="109px" viewBox="0 0 2071px 109px" xmlns="http://www.w3.org/2000/svg" xmlns:xlink="http://www.w3.org/1999/xlink" xml:space="preserve" version="1.1"  baseProfile="full">
<line x1="1" y1="1" x2="2070" y2="1" style="stroke:#ddd;stroke-width:2" />
<line x1="1" y1="1" x2="1" y2="108" style="stroke:#ddd;stroke-width:2" />
<line x1="1" y1="108" x2="2070" y2="108" style="stroke:#ddd;stroke-width:2" />
<line x1="2070" y1="1" x2="2070" y2="108" style="stroke:#ddd;stroke-width:2" />
<line x1="109" y1="1" x2="109" y2="108" style="stroke:#ddd;stroke-width:2" />
<line x1="218" y1="1" x2="218" y2="108" style="stroke:#ddd;stroke-width:2" />
<line x1="327" y1="1" x2="327" y2="108" style="stroke:#ddd;stroke-width:2" />
<line x1="436" y1="1" x2="436" y2="108" style="stroke:#ddd;stroke-width:2" />
<line x1="545" y1="1" x2="545" y2="108" style="stroke:#ddd;stroke-width:2" />
<line x1="654" y1="1" x2="654" y2="108" style="stroke:#ddd;stroke-width:2" />
<line x1="763" y1="1" x2="763" y2="108" style="stroke:#ddd;stroke-width:2" />
<line x1="872" y1="1" x2="872" y2="108" style="stroke:#ddd;stroke-width:2" />
<line x1="981" y1="1" x2="981" y2="108" style="stroke:#ddd;stroke-width:2" />
<line x1="1090" y1="1" x2="1090" y2="108" style="stroke:#ddd;stroke-width:2" />
<line x1="1199" y1="1" x2="1199" y2="108" style="stroke:#ddd;stroke-width:2" />
<line x1="1308" y1="1" x2="1308" y2="108" style="stroke:#ddd;stroke-width:2" />
<line x1="1417" y1="1" x2="1417" y2="108" style="stroke:#ddd;stroke-width:2" />
<line x1="1526" y1="1" x2="1526" y2="108" style="stroke:#ddd;stroke-width:2" />
<line x1="1635" y1="1" x2="1635" y2="108" style="stroke:#ddd;stroke-width:2" />
<line x1="1744" y1="1" x2="1744" y2="108" style="stroke:#ddd;stroke-width:2" />
<line x1="1853" y1="1" x2="1853" y2="108" style="stroke:#ddd;stroke-width:2" />
<line x1="1962" y1="1" x2="1962" y2="108" style="stroke:#ddd;stroke-width:2" />
<line x1="1" y1="54" x2="2070" y2="54" style="stroke:#ddd;stroke-width:2;stroke-dasharray:3 3" />
<line x1="55" y1="1" x2="55" y2="108" style="stroke:#ddd;stroke-width:2;stroke-dasharray:3 3" />
<line x1="164" y1="1" x2="164" y2="108" style="stroke:#ddd;stroke-width:2;stroke-dasharray:3 3" />
<line x1="273" y1="1" x2="273" y2="108" style="stroke:#ddd;stroke-width:2;stroke-dasharray:3 3" />
<line x1="382" y1="1" x2="382" y2="108" style="stroke:#ddd;stroke-width:2;stroke-dasharray:3 3" />
<line x1="491" y1="1" x2="491" y2="108" style="stroke:#ddd;stroke-width:2;stroke-dasharray:3 3" />
<line x1="600" y1="1" x2="600" y2="108" style="stroke:#ddd;stroke-width:2;stroke-dasharray:3 3" />
<line x1="709" y1="1" x2="709" y2="108" style="stroke:#ddd;stroke-width:2;stroke-dasharray:3 3" />
<line x1="818" y1="1" x2="818" y2="108" style="stroke:#ddd;stroke-width:2;stroke-dasharray:3 3" />
<line x1="927" y1="1" x2="927" y2="108" style="stroke:#ddd;stroke-width:2;stroke-dasharray:3 3" />
<line x1="1036" y1="1" x2="1036" y2="108" style="stroke:#ddd;stroke-width:2;stroke-dasharray:3 3" />
<line x1="1145" y1="1" x2="1145" y2="108" style="stroke:#ddd;stroke-width:2;stroke-dasharray:3 3" />
<line x1="1254" y1="1" x2="1254" y2="108" style="stroke:#ddd;stroke-width:2;stroke-dasharray:3 3" />
<line x1="1363" y1="1" x2="1363" y2="108" style="stroke:#ddd;stroke-width:2;stroke-dasharray:3 3" />
<line x1="1472" y1="1" x2="1472" y2="108" style="stroke:#ddd;stroke-width:2;stroke-dasharray:3 3" />
<line x1="1581" y1="1" x2="1581" y2="108" style="stroke:#ddd;stroke-width:2;stroke-dasharray:3 3" />
<line x1="1690" y1="1" x2="1690" y2="108" style="stroke:#ddd;stroke-width:2;stroke-dasharray:3 3" />
<line x1="1799" y1="1" x2="1799" y2="108" style="stroke:#ddd;stroke-width:2;stroke-dasharray:3 3" />
<line x1="1908" y1="1" x2="1908" y2="108" style="stroke:#ddd;stroke-width:2;stroke-dasharray:3 3" />
<line x1="2017" y1="1" x2="2017" y2="108" style="stroke:#ddd;stroke-width:2;stroke-dasharray:3 3" />
<path d="M52.08,9.78c0.82,0.27,1.98,1.57,1.96,2.34c-0.06,2.42-0.06,4.53-0.06,6.74" style="fill:none;stroke:black;stroke-width:3" />
<circle cx="52.08" cy="9.78" r="5" stroke-width="0" fill="#FF2A00" opacity="0.7" />
<path d="M161.07999999999998,9.78c0.82,0.27,1.98,1.57,1.96,2.34c-0.06,2.42-0.06,4.53-0.06,6.74" style="fill:none;stroke:#999;stroke-width:3" />
<path d="M129.47,19.78c0,3.61-3.42,13.54-4.97,15.94" style="fill:none;stroke:black;stroke-width:3" />
<circle cx="129.47" cy="19.78" r="5" stroke-width="0" fill="#FF2A00" opacity="0.7" />
<path d="M270.08,9.78c0.82,0.27,1.98,1.57,1.96,2.34c-0.06,2.42-0.06,4.53-0.06,6.74" style="fill:none;stroke:#999;stroke-width:3" />
<path d="M238.47,19.78c0,3.61-3.42,13.54-4.97,15.94" style="fill:none;stroke:#999;stroke-width:3" />
<path d="M239.47,21.59c9.09-0.95,57.61-4.33,64.99-4.69c11.53-0.56,2.44,6.85-0.43,8.87" style="fill:none;stroke:black;stroke-width:3" />
<circle cx="239.47" cy="21.59" r="5" stroke-width="0" fill="#FF2A00" opacity="0.7" />
<path d="M379.08,9.78c0.82,0.27,1.98,1.57,1.96,2.34c-0.06,2.42-0.06,4.53-0.06,6.74" style="fill:none;stroke:#999;stroke-width:3" />
<path d="M347.47,19.78c0,3.61-3.42,13.54-4.97,15.94" style="fill:none;stroke:#999;stroke-width:3" />
<path d="M348.47,21.59c9.09-0.95,57.61-4.33,64.99-4.69c11.53-0.56,2.44,6.85-0.43,8.87" style="fill:none;stroke:#999;stroke-width:3" />
<path d="M351.09,30.13c0.49,0.18,3.16,0.22,3.66,0.17c2.31-0.24,11.72-1.53,17.28-1.79c0.76-0.04,2.16-0.13,2.79,0.02" style="fill:none;stroke:black;stroke-width:3" />
<circle cx="351.09" cy="30.13" r="5" stroke-width="0" fill="#FF2A00" opacity="0.7" />
<path d="M488.08,9.78c0.82,0.27,1.98,1.57,1.96,2.34c-0.06,2.42-0.06,4.53-0.06,6.74" style="fill:none;stroke:#999;stroke-width:3" />
<path d="M456.47,19.78c0,3.61-3.42,13.54-4.97,15.94" style="fill:none;stroke:#999;stroke-width:3" />
<path d="M457.47,21.59c9.09-0.95,57.61-4.33,64.99-4.69c11.53-0.56,2.44,6.85-0.43,8.87" style="fill:none;stroke:#999;stroke-width:3" />
<path d="M460.09,30.13c0.49,0.18,3.16,0.22,3.66,0.17c2.31-0.24,11.72-1.53,17.28-1.79c0.76-0.04,2.16-0.13,2.79,0.02" style="fill:none;stroke:#999;stroke-width:3" />
<path d="M470.52,30.06c0.73,0.32,1.24,0.99,1.24,1.24c0,2.12,0.43,11.92,0.29,13.33" style="fill:none;stroke:black;stroke-width:3" />
<circle cx="470.52" cy="30.06" r="5" stroke-width="0" fill="#FF2A00" opacity="0.7" />
<path d="M597.0799999999999,9.78c0.82,0.27,1.98,1.57,1.96,2.34c-0.06,2.42-0.06,4.53-0.06,6.74" style="fill:none;stroke:#999;stroke-width:3" />
<path d="M565.47,19.78c0,3.61-3.42,13.54-4.97,15.94" style="fill:none;stroke:#999;stroke-width:3" />
<path d="M566.47,21.59c9.09-0.95,57.61-4.33,64.99-4.69c11.53-0.56,2.44,6.85-0.43,8.87" style="fill:none;stroke:#999;stroke-width:3" />
<path d="M569.0899999999999,30.13c0.49,0.18,3.16,0.22,3.66,0.17c2.31-0.24,11.72-1.53,17.28-1.79c0.76-0.04,2.16-0.13,2.79,0.02" style="fill:none;stroke:#999;stroke-width:3" />
<path d="M579.52,30.06c0.73,0.32,1.24,0.99,1.24,1.24c0,2.12,0.43,11.92,0.29,13.33" style="fill:none;stroke:#999;stroke-width:3" />
<path d="M568.8,38.43c0.46,0.14,3.71,0.17,4.17,0.13c2.71-0.19,9.69-2.29,13.43-2.5c0.58-0.03,2.68-0.06,3.54,0.07" style="fill:none;stroke:black;stroke-width:3" />
<circle cx="568.8" cy="38.43" r="5" stroke-width="0" fill="#FF2A00" opacity="0.7" />
<path d="M706.0799999999999,9.78c0.82,0.27,1.98,1.57,1.96,2.34c-0.06,2.42-0.06,4.53-0.06,6.74" style="fill:none;stroke:#999;stroke-width:3" />
<path d="M674.47,19.78c0,3.61-3.42,13.54-4.97,15.94" style="fill:none;stroke:#999;stroke-width:3" />
<path d="M675.47,21.59c9.09-0.95,57.61-4.33,64.99-4.69c11.53-0.56,2.44,6.85-0.43,8.87" style="fill:none;stroke:#999;stroke-width:3" />
<path d="M678.0899999999999,30.13c0.49,0.18,3.16,0.22,3.66,0.17c2.31-0.24,11.72-1.53,17.28-1.79c0.76-0.04,2.16-0.13,2.79,0.02" style="fill:none;stroke:#999;stroke-width:3" />
<path d="M688.52,30.06c0.73,0.32,1.24,0.99,1.24,1.24c0,2.12,0.43,11.92,0.29,13.33" style="fill:none;stroke:#999;stroke-width:3" />
<path d="M677.8,38.43c0.46,0.14,3.71,0.17,4.17,0.13c2.71-0.19,9.69-2.29,13.43-2.5c0.58-0.03,2.68-0.06,3.54,0.07" style="fill:none;stroke:#999;stroke-width:3" />
<path d="M672.84,48.27c0.57,0.1,2.81,0.9,3.67,0.7c5.51-1.28,13.38-3.14,21.77-5.34" style="fill:none;stroke:black;stroke-width:3" />
<circle cx="672.84" cy="48.27" r="5" stroke-width="0" fill="#FF2A00" opacity="0.7" />
<path d="M815.0799999999999,9.78c0.82,0.27,1.98,1.57,1.96,2.34c-0.06,2.42-0.06,4.53-0.06,6.74" style="fill:none;stroke:#999;stroke-width:3" />
<path d="M783.47,19.78c0,3.61-3.42,13.54-4.97,15.94" style="fill:none;stroke:#999;stroke-width:3" />
<path d="M784.47,21.59c9.09-0.95,57.61-4.33,64.99-4.69c11.53-0.56,2.44,6.85-0.43,8.87" style="fill:none;stroke:#999;stroke-width:3" />
<path d="M787.0899999999999,30.13c0.49,0.18,3.16,0.22,3.66,0.17c2.31-0.24,11.72-1.53,17.28-1.79c0.76-0.04,2.16-0.13,2.79,0.02" style="fill:none;stroke:#999;stroke-width:3" />
<path d="M797.52,30.06c0.73,0.32,1.24,0.99,1.24,1.24c0,2.12,0.43,11.92,0.29,13.33" style="fill:none;stroke:#999;stroke-width:3" />
<path d="M786.8,38.43c0.46,0.14,3.71,0.17,4.17,0.13c2.71-0.19,9.69-2.29,13.43-2.5c0.58-0.03,2.68-0.06,3.54,0.07" style="fill:none;stroke:#999;stroke-width:3" />
<path d="M781.84,48.27c0.57,0.1,2.81,0.9,3.67,0.7c5.51-1.28,13.38-3.14,21.77-5.34" style="fill:none;stroke:#999;stroke-width:3" />
<path d="M821.41,22.89c0.02,0.25,0.08,0.65-0.03,1c-0.67,2.12-2.78,6.76-6.01,9.6" style="fill:none;stroke:black;stroke-width:3" />
<circle cx="821.41" cy="22.89" r="5" stroke-width="0" fill="#FF2A00" opacity="0.7" />
<path d="M924.0799999999999,9.78c0.82,0.27,1.98,1.57,1.96,2.34c-0.06,2.42-0.06,4.53-0.06,6.74" style="fill:none;stroke:#999;stroke-width:3" />
<path d="M892.47,19.78c0,3.61-3.42,13.54-4.97,15.94" style="fill:none;stroke:#999;stroke-width:3" />
<path d="M893.47,21.59c9.09-0.95,57.61-4.33,64.99-4.69c11.53-0.56,2.44,6.85-0.43,8.87" style="fill:none;stroke:#999;stroke-width:3" />
<path d="M896.0899999999999,30.13c0.49,0.18,3.16,0.22,3.66,0.17c2.31-0.24,11.72-1.53,17.28-1.79c0.76-0.04,2.16-0.13,2.79,0.02" style="fill:none;stroke:#999;stroke-width:3" />
<path d="M906.52,30.06c0.73,0.32,1.24,0.99,1.24,1.24c0,2.12,0.43,11.92,0.29,13.33" style="fill:none;stroke:#999;stroke-width:3" />
<path d="M895.8,38.43c0.46,0.14,3.71,0.17,4.17,0.13c2.71-0.19,9.69-2.29,13.43-2.5c0.58-0.03,2.68-0.06,3.54,0.07" style="fill:none;stroke:#999;stroke-width:3" />
<path d="M890.84,48.27c0.57,0.1,2.81,0.9,3.67,0.7c5.51-1.28,13.38-3.14,21.77-5.34" style="fill:none;stroke:#999;stroke-width:3" />
<path d="M930.41,22.89c0.02,0.25,0.08,0.65-0.03,1c-0.67,2.12-2.78,6.76-6.01,9.6" style="fill:none;stroke:#999;stroke-width:3" />
<path d="M928.51,28.89c1.02,0.05,1.79,0,2.43-0.03c8.41-0.4,15.84-2.31,20.17-2.53c1.05-0.05,1.69,0.1,2.22,0.21" style="fill:none;stroke:black;stroke-width:3" />
<circle cx="928.51" cy="28.89" r="5" stroke-width="0" fill="#FF2A00" opacity="0.7" />
<path d="M1033.08,9.78c0.82,0.27,1.98,1.57,1.96,2.34c-0.06,2.42-0.06,4.53-0.06,6.74" style="fill:none;stroke:#999;stroke-width:3" />
<path d="M1001.47,19.78c0,3.61-3.42,13.54-4.97,15.94" style="fill:none;stroke:#999;stroke-width:3" />
<path d="M1002.47,21.59c9.09-0.95,57.61-4.33,64.99-4.69c11.53-0.56,2.44,6.85-0.43,8.87" style="fill:none;stroke:#999;stroke-width:3" />
<path d="M1005.0899999999999,30.13c0.49,0.18,3.16,0.22,3.66,0.17c2.31-0.24,11.72-1.53,17.28-1.79c0.76-0.04,2.16-0.13,2.79,0.02" style="fill:none;stroke:#999;stroke-width:3" />
<path d="M1015.52,30.06c0.73,0.32,1.24,0.99,1.24,1.24c0,2.12,0.43,11.92,0.29,13.33" style="fill:none;stroke:#999;stroke-width:3" />
<path d="M1004.8,38.43c0.46,0.14,3.71,0.17,4.17,0.13c2.71-0.19,9.69-2.29,13.43-2.5c0.58-0.03,2.68-0.06,3.54,0.07" style="fill:none;stroke:#999;stroke-width:3" />
<path d="M999.84,48.27c0.57,0.1,2.81,0.9,3.67,0.7c5.51-1.28,13.38-3.14,21.77-5.34" style="fill:none;stroke:#999;stroke-width:3" />
<path d="M1039.4099999999999,22.89c0.02,0.25,0.08,0.65-0.03,1c-0.67,2.12-2.78,6.76-6.01,9.6" style="fill:none;stroke:#999;stroke-width:3" />
<path d="M1037.51,28.89c1.02,0.05,1.79,0,2.43-0.03c8.41-0.4,15.84-2.31,20.17-2.53c1.05-0.05,1.69,0.1,2.22,0.21" style="fill:none;stroke:#999;stroke-width:3" />
<path d="M1047.29,30.54c0.06,0.14,0.83,0.75,0.88,1.67c0.28,4.4-0.18,11.54-0.18,13.04c0,5.26-3.24,1.26-4.64,0.08" style="fill:none;stroke:black;stroke-width:3" />
<circle cx="1047.29" cy="30.54" r="5" stroke-width="0" fill="#FF2A00" opacity="0.7" />
<path d="M1142.08,9.78c0.82,0.27,1.98,1.57,1.96,2.34c-0.06,2.42-0.06,4.53-0.06,6.74" style="fill:none;stroke:#999;stroke-width:3" />
<path d="M1110.47,19.78c0,3.61-3.42,13.54-4.97,15.94" style="fill:none;stroke:#999;stroke-width:3" />
<path d="M1111.47,21.59c9.09-0.95,57.61-4.33,64.99-4.69c11.53-0.56,2.44,6.85-0.43,8.87" style="fill:none;stroke:#999;stroke-width:3" />
<path d="M1114.09,30.13c0.49,0.18,3.16,0.22,3.66,0.17c2.31-0.24,11.72-1.53,17.28-1.79c0.76-0.04,2.16-0.13,2.79,0.02" style="fill:none;stroke:#999;stroke-width:3" />
<path d="M1124.52,30.06c0.73,0.32,1.24,0.99,1.24,1.24c0,2.12,0.43,11.92,0.29,13.33" style="fill:none;stroke:#999;stroke-width:3" />
<path d="M1113.8,38.43c0.46,0.14,3.71,0.17,4.17,0.13c2.71-0.19,9.69-2.29,13.43-2.5c0.58-0.03,2.68-0.06,3.54,0.07" style="fill:none;stroke:#999;stroke-width:3" />
<path d="M1108.8400000000001,48.27c0.57,0.1,2.81,0.9,3.67,0.7c5.51-1.28,13.38-3.14,21.77-5.34" style="fill:none;stroke:#999;stroke-width:3" />
<path d="M1148.4099999999999,22.89c0.02,0.25,0.08,0.65-0.03,1c-0.67,2.12-2.78,6.76-6.01,9.6" style="fill:none;stroke:#999;stroke-width:3" />
<path d="M1146.51,28.89c1.02,0.05,1.79,0,2.43-0.03c8.41-0.4,15.84-2.31,20.17-2.53c1.05-0.05,1.69,0.1,2.22,0.21" style="fill:none;stroke:#999;stroke-width:3" />
<path d="M1156.29,30.54c0.06,0.14,0.83,0.75,0.88,1.67c0.28,4.4-0.18,11.54-0.18,13.04c0,5.26-3.24,1.26-4.64,0.08" style="fill:none;stroke:#999;stroke-width:3" />
<path d="M1148.91,34.99c0.02,0.26,0.04,0.67-0.04,1.04c-0.51,2.19-3.47,7-7.51,9.94" style="fill:none;stroke:black;stroke-width:3" />
<circle cx="1148.91" cy="34.99" r="5" stroke-width="0" fill="#FF2A00" opacity="0.7" />
<path d="M1251.08,9.78c0.82,0.27,1.98,1.57,1.96,2.34c-0.06,2.42-0.06,4.53-0.06,6.74" style="fill:none;stroke:#999;stroke-width:3" />
<path d="M1219.47,19.78c0,3.61-3.42,13.54-4.97,15.94" style="fill:none;stroke:#999;stroke-width:3" />
<path d="M1220.47,21.59c9.09-0.95,57.61-4.33,64.99-4.69c11.53-0.56,2.44,6.85-0.43,8.87" style="fill:none;stroke:#999;stroke-width:3" />
<path d="M1223.09,30.13c0.49,0.18,3.16,0.22,3.66,0.17c2.31-0.24,11.72-1.53,17.28-1.79c0.76-0.04,2.16-0.13,2.79,0.02" style="fill:none;stroke:#999;stroke-width:3" />
<path d="M1233.52,30.06c0.73,0.32,1.24,0.99,1.24,1.24c0,2.12,0.43,11.92,0.29,13.33" style="fill:none;stroke:#999;stroke-width:3" />
<path d="M1222.8,38.43c0.46,0.14,3.71,0.17,4.17,0.13c2.71-0.19,9.69-2.29,13.43-2.5c0.58-0.03,2.68-0.06,3.54,0.07" style="fill:none;stroke:#999;stroke-width:3" />
<path d="M1217.8400000000001,48.27c0.57,0.1,2.81,0.9,3.67,0.7c5.51-1.28,13.38-3.14,21.77-5.34" style="fill:none;stroke:#999;stroke-width:3" />
<path d="M1257.4099999999999,22.89c0.02,0.25,0.08,0.65-0.03,1c-0.67,2.12-2.78,6.76-6.01,9.6" style="fill:none;stroke:#999;stroke-width:3" />
<path d="M1255.51,28.89c1.02,0.05,1.79,0,2.43-0.03c8.41-0.4,15.84-2.31,20.17-2.53c1.05-0.05,1.69,0.1,2.22,0.21" style="fill:none;stroke:#999;stroke-width:3" />
<path d="M1265.29,30.54c0.06,0.14,0.83,0.75,0.88,1.67c0.28,4.4-0.18,11.54-0.18,13.04c0,5.26-3.24,1.26-4.64,0.08" style="fill:none;stroke:#999;stroke-width:3" />
<path d="M1257.91,34.99c0.02,0.26,0.04,0.67-0.04,1.04c-0.51,2.19-3.47,7-7.51,9.94" style="fill:none;stroke:#999;stroke-width:3" />
<path d="M1272.93,36.22c3.63,1.72,9.38,7.07,10.29,9.75" style="fill:none;stroke:black;stroke-width:3" />
<circle cx="1272.93" cy="36.22" r="5" stroke-width="0" fill="#FF2A00" opacity="0.7" />
<path d="M1360.08,9.78c0.82,0.27,1.98,1.57,1.96,2.34c-0.06,2.42-0.06,4.53-0.06,6.74" style="fill:none;stroke:#999;stroke-width:3" />
<path d="M1328.47,19.78c0,3.61-3.42,13.54-4.97,15.94" style="fill:none;stroke:#999;stroke-width:3" />
<path d="M1329.47,21.59c9.09-0.95,57.61-4.33,64.99-4.69c11.53-0.56,2.44,6.85-0.43,8.87" style="fill:none;stroke:#999;stroke-width:3" />
<path d="M1332.09,30.13c0.49,0.18,3.16,0.22,3.66,0.17c2.31-0.24,11.72-1.53,17.28-1.79c0.76-0.04,2.16-0.13,2.79,0.02" style="fill:none;stroke:#999;stroke-width:3" />
<path d="M1342.52,30.06c0.73,0.32,1.24,0.99,1.24,1.24c0,2.12,0.43,11.92,0.29,13.33" style="fill:none;stroke:#999;stroke-width:3" />
<path d="M1331.8,38.43c0.46,0.14,3.71,0.17,4.17,0.13c2.71-0.19,9.69-2.29,13.43-2.5c0.58-0.03,2.68-0.06,3.54,0.07" style="fill:none;stroke:#999;stroke-width:3" />
<path d="M1326.8400000000001,48.27c0.57,0.1,2.81,0.9,3.67,0.7c5.51-1.28,13.38-3.14,21.77-5.34" style="fill:none;stroke:#999;stroke-width:3" />
<path d="M1366.4099999999999,22.89c0.02,0.25,0.08,0.65-0.03,1c-0.67,2.12-2.78,6.76-6.01,9.6" style="fill:none;stroke:#999;stroke-width:3" />
<path d="M1364.51,28.89c1.02,0.05,1.79,0,2.43-0.03c8.41-0.4,15.84-2.31,20.17-2.53c1.05-0.05,1.69,0.1,2.22,0.21" style="fill:none;stroke:#999;stroke-width:3" />
<path d="M1374.29,30.54c0.06,0.14,0.83,0.75,0.88,1.67c0.28,4.4-0.18,11.54-0.18,13.04c0,5.26-3.24,1.26-4.64,0.08" style="fill:none;stroke:#999;stroke-width:3" />
<path d="M1366.91,34.99c0.02,0.26,0.04,0.67-0.04,1.04c-0.51,2.19-3.47,7-7.51,9.94" style="fill:none;stroke:#999;stroke-width:3" />
<path d="M1381.93,36.22c3.63,1.72,9.38,7.07,10.29,9.75" style="fill:none;stroke:#999;stroke-width:3" />
<path d="M1340.75,53.93c0.68,0.7,1.68,2.73,1.68,3.66c0,0.94,0.32,23.51-0.5,27.43" style="fill:none;stroke:black;stroke-width:3" />
<circle cx="1340.75" cy="53.93" r="5" stroke-width="0" fill="#FF2A00" opacity="0.7" />
<path d="M1469.08,9.78c0.82,0.27,1.98,1.57,1.96,2.34c-0.06,2.42-0.06,4.53-0.06,6.74" style="fill:none;stroke:#999;stroke-width:3" />
<path d="M1437.47,19.78c0,3.61-3.42,13.54-4.97,15.94" style="fill:none;stroke:#999;stroke-width:3" />
<path d="M1438.47,21.59c9.09-0.95,57.61-4.33,64.99-4.69c11.53-0.56,2.44,6.85-0.43,8.87" style="fill:none;stroke:#999;stroke-width:3" />
<path d="M1441.09,30.13c0.49,0.18,3.16,0.22,3.66,0.17c2.31-0.24,11.72-1.53,17.28-1.79c0.76-0.04,2.16-0.13,2.79,0.02" style="fill:none;stroke:#999;stroke-width:3" />
<path d="M1451.52,30.06c0.73,0.32,1.24,0.99,1.24,1.24c0,2.12,0.43,11.92,0.29,13.33" style="fill:none;stroke:#999;stroke-width:3" />
<path d="M1440.8,38.43c0.46,0.14,3.71,0.17,4.17,0.13c2.71-0.19,9.69-2.29,13.43-2.5c0.58-0.03,2.68-0.06,3.54,0.07" style="fill:none;stroke:#999;stroke-width:3" />
<path d="M1435.8400000000001,48.27c0.57,0.1,2.81,0.9,3.67,0.7c5.51-1.28,13.38-3.14,21.77-5.34" style="fill:none;stroke:#999;stroke-width:3" />
<path d="M1475.4099999999999,22.89c0.02,0.25,0.08,0.65-0.03,1c-0.67,2.12-2.78,6.76-6.01,9.6" style="fill:none;stroke:#999;stroke-width:3" />
<path d="M1473.51,28.89c1.02,0.05,1.79,0,2.43-0.03c8.41-0.4,15.84-2.31,20.17-2.53c1.05-0.05,1.69,0.1,2.22,0.21" style="fill:none;stroke:#999;stroke-width:3" />
<path d="M1483.29,30.54c0.06,0.14,0.83,0.75,0.88,1.67c0.28,4.4-0.18,11.54-0.18,13.04c0,5.26-3.24,1.26-4.64,0.08" style="fill:none;stroke:#999;stroke-width:3" />
<path d="M1475.91,34.99c0.02,0.26,0.04,0.67-0.04,1.04c-0.51,2.19-3.47,7-7.51,9.94" style="fill:none;stroke:#999;stroke-width:3" />
<path d="M1490.93,36.22c3.63,1.72,9.38,7.07,10.29,9.75" style="fill:none;stroke:#999;stroke-width:3" />
<path d="M1449.75,53.93c0.68,0.7,1.68,2.73,1.68,3.66c0,0.94,0.32,23.51-0.5,27.43" style="fill:none;stroke:#999;stroke-width:3" />
<path d="M1452.57,55.74c3.87-0.12,33.89-3.26,37.42-3.26c1.76,0,2.51,1.65,2.51,2.52c0,2.14-0.87,28.08-0.87,28.79" style="fill:none;stroke:black;stroke-width:3" />
<circle cx="1452.57" cy="55.74" r="5" stroke-width="0" fill="#FF2A00" opacity="0.7" />
<path d="M1578.08,9.78c0.82,0.27,1.98,1.57,1.96,2.34c-0.06,2.42-0.06,4.53-0.06,6.74" style="fill:none;stroke:#999;stroke-width:3" />
<path d="M1546.47,19.78c0,3.61-3.42,13.54-4.97,15.94" style="fill:none;stroke:#999;stroke-width:3" />
<path d="M1547.47,21.59c9.09-0.95,57.61-4.33,64.99-4.69c11.53-0.56,2.44,6.85-0.43,8.87" style="fill:none;stroke:#999;stroke-width:3" />
<path d="M1550.09,30.13c0.49,0.18,3.16,0.22,3.66,0.17c2.31-0.24,11.72-1.53,17.28-1.79c0.76-0.04,2.16-0.13,2.79,0.02" style="fill:none;stroke:#999;stroke-width:3" />
<path d="M1560.52,30.06c0.73,0.32,1.24,0.99,1.24,1.24c0,2.12,0.43,11.92,0.29,13.33" style="fill:none;stroke:#999;stroke-width:3" />
<path d="M1549.8,38.43c0.46,0.14,3.71,0.17,4.17,0.13c2.71-0.19,9.69-2.29,13.43-2.5c0.58-0.03,2.68-0.06,3.54,0.07" style="fill:none;stroke:#999;stroke-width:3" />
<path d="M1544.8400000000001,48.27c0.57,0.1,2.81,0.9,3.67,0.7c5.51-1.28,13.38-3.14,21.77-5.34" style="fill:none;stroke:#999;stroke-width:3" />
<path d="M1584.4099999999999,22.89c0.02,0.25,0.08,0.65-0.03,1c-0.67,2.12-2.78,6.76-6.01,9.6" style="fill:none;stroke:#999;stroke-width:3" />
<path d="M1582.51,28.89c1.02,0.05,1.79,0,2.43-0.03c8.41-0.4,15.84-2.31,20.17-2.53c1.05-0.05,1.69,0.1,2.22,0.21" style="fill:none;stroke:#999;stroke-width:3" />
<path d="M1592.29,30.54c0.06,0.14,0.83,0.75,0.88,1.67c0.28,4.4-0.18,11.54-0.18,13.04c0,5.26-3.24,1.26-4.64,0.08" style="fill:none;stroke:#999;stroke-width:3" />
<path d="M1584.91,34.99c0.02,0.26,0.04,0.67-0.04,1.04c-0.51,2.19-3.47,7-7.51,9.94" style="fill:none;stroke:#999;stroke-width:3" />
<path d="M1599.93,36.22c3.63,1.72,9.38,7.07,10.29,9.75" style="fill:none;stroke:#999;stroke-width:3" />
<path d="M1558.75,53.93c0.68,0.7,1.68,2.73,1.68,3.66c0,0.94,0.32,23.51-0.5,27.43" style="fill:none;stroke:#999;stroke-width:3" />
<path d="M1561.57,55.74c3.87-0.12,33.89-3.26,37.42-3.26c1.76,0,2.51,1.65,2.51,2.52c0,2.14-0.87,28.08-0.87,28.79" style="fill:none;stroke:#999;stroke-width:3" />
<path d="M1560.51,64.13c7.24-0.27,34.32-2.9,40.53-2.9" style="fill:none;stroke:black;stroke-width:3" />
<circle cx="1560.51" cy="64.13" r="5" stroke-width="0" fill="#FF2A00" opacity="0.7" />
<path d="M1687.08,9.78c0.82,0.27,1.98,1.57,1.96,2.34c-0.06,2.42-0.06,4.53-0.06,6.74" style="fill:none;stroke:#999;stroke-width:3" />
<path d="M1655.47,19.78c0,3.61-3.42,13.54-4.97,15.94" style="fill:none;stroke:#999;stroke-width:3" />
<path d="M1656.47,21.59c9.09-0.95,57.61-4.33,64.99-4.69c11.53-0.56,2.44,6.85-0.43,8.87" style="fill:none;stroke:#999;stroke-width:3" />
<path d="M1659.09,30.13c0.49,0.18,3.16,0.22,3.66,0.17c2.31-0.24,11.72-1.53,17.28-1.79c0.76-0.04,2.16-0.13,2.79,0.02" style="fill:none;stroke:#999;stroke-width:3" />
<path d="M1669.52,30.06c0.73,0.32,1.24,0.99,1.24,1.24c0,2.12,0.43,11.92,0.29,13.33" style="fill:none;stroke:#999;stroke-width:3" />
<path d="M1658.8,38.43c0.46,0.14,3.71,0.17,4.17,0.13c2.71-0.19,9.69-2.29,13.43-2.5c0.58-0.03,2.68-0.06,3.54,0.07" style="fill:none;stroke:#999;stroke-width:3" />
<path d="M1653.8400000000001,48.27c0.57,0.1,2.81,0.9,3.67,0.7c5.51-1.28,13.38-3.14,21.77-5.34" style="fill:none;stroke:#999;stroke-width:3" />
<path d="M1693.4099999999999,22.89c0.02,0.25,0.08,0.65-0.03,1c-0.67,2.12-2.78,6.76-6.01,9.6" style="fill:none;stroke:#999;stroke-width:3" />
<path d="M1691.51,28.89c1.02,0.05,1.79,0,2.43-0.03c8.41-0.4,15.84-2.31,20.17-2.53c1.05-0.05,1.69,0.1,2.22,0.21" style="fill:none;stroke:#999;stroke-width:3" />
<path d="M1701.29,30.54c0.06,0.14,0.83,0.75,0.88,1.67c0.28,4.4-0.18,11.54-0.18,13.04c0,5.26-3.24,1.26-4.64,0.08" style="fill:none;stroke:#999;stroke-width:3" />
<path d="M1693.91,34.99c0.02,0.26,0.04,0.67-0.04,1.04c-0.51,2.19-3.47,7-7.51,9.94" style="fill:none;stroke:#999;stroke-width:3" />
<path d="M1708.93,36.22c3.63,1.72,9.38,7.07,10.29,9.75" style="fill:none;stroke:#999;stroke-width:3" />
<path d="M1667.75,53.93c0.68,0.7,1.68,2.73,1.68,3.66c0,0.94,0.32,23.51-0.5,27.43" style="fill:none;stroke:#999;stroke-width:3" />
<path d="M1670.57,55.74c3.87-0.12,33.89-3.26,37.42-3.26c1.76,0,2.51,1.65,2.51,2.52c0,2.14-0.87,28.08-0.87,28.79" style="fill:none;stroke:#999;stroke-width:3" />
<path d="M1669.51,64.13c7.24-0.27,34.32-2.9,40.53-2.9" style="fill:none;stroke:#999;stroke-width:3" />
<path d="M1669.82,73.51C1680.75,73 1698.5,70.95 1710.08,70.85" style="fill:none;stroke:black;stroke-width:3" />
<circle cx="1669.82" cy="73.51" r="5" stroke-width="0" fill="#FF2A00" opacity="0.7" />
<path d="M1796.08,9.78c0.82,0.27,1.98,1.57,1.96,2.34c-0.06,2.42-0.06,4.53-0.06,6.74" style="fill:none;stroke:#999;stroke-width:3" />
<path d="M1764.47,19.78c0,3.61-3.42,13.54-4.97,15.94" style="fill:none;stroke:#999;stroke-width:3" />
<path d="M1765.47,21.59c9.09-0.95,57.61-4.33,64.99-4.69c11.53-0.56,2.44,6.85-0.43,8.87" style="fill:none;stroke:#999;stroke-width:3" />
<path d="M1768.09,30.13c0.49,0.18,3.16,0.22,3.66,0.17c2.31-0.24,11.72-1.53,17.28-1.79c0.76-0.04,2.16-0.13,2.79,0.02" style="fill:none;stroke:#999;stroke-width:3" />
<path d="M1778.52,30.06c0.73,0.32,1.24,0.99,1.24,1.24c0,2.12,0.43,11.92,0.29,13.33" style="fill:none;stroke:#999;stroke-width:3" />
<path d="M1767.8,38.43c0.46,0.14,3.71,0.17,4.17,0.13c2.71-0.19,9.69-2.29,13.43-2.5c0.58-0.03,2.68-0.06,3.54,0.07" style="fill:none;stroke:#999;stroke-width:3" />
<path d="M1762.8400000000001,48.27c0.57,0.1,2.81,0.9,3.67,0.7c5.51-1.28,13.38-3.14,21.77-5.34" style="fill:none;stroke:#999;stroke-width:3" />
<path d="M1802.4099999999999,22.89c0.02,0.25,0.08,0.65-0.03,1c-0.67,2.12-2.78,6.76-6.01,9.6" style="fill:none;stroke:#999;stroke-width:3" />
<path d="M1800.51,28.89c1.02,0.05,1.79,0,2.43-0.03c8.41-0.4,15.84-2.31,20.17-2.53c1.05-0.05,1.69,0.1,2.22,0.21" style="fill:none;stroke:#999;stroke-width:3" />
<path d="M1810.29,30.54c0.06,0.14,0.83,0.75,0.88,1.67c0.28,4.4-0.18,11.54-0.18,13.04c0,5.26-3.24,1.26-4.64,0.08" style="fill:none;stroke:#999;stroke-width:3" />
<path d="M1802.91,34.99c0.02,0.26,0.04,0.67-0.04,1.04c-0.51,2.19-3.47,7-7.51,9.94" style="fill:none;stroke:#999;stroke-width:3" />
<path d="M1817.93,36.22c3.63,1.72,9.38,7.07,10.29,9.75" style="fill:none;stroke:#999;stroke-width:3" />
<path d="M1776.75,53.93c0.68,0.7,1.68,2.73,1.68,3.66c0,0.94,0.32,23.51-0.5,27.43" style="fill:none;stroke:#999;stroke-width:3" />
<path d="M1779.57,55.74c3.87-0.12,33.89-3.26,37.42-3.26c1.76,0,2.51,1.65,2.51,2.52c0,2.14-0.87,28.08-0.87,28.79" style="fill:none;stroke:#999;stroke-width:3" />
<path d="M1778.51,64.13c7.24-0.27,34.32-2.9,40.53-2.9" style="fill:none;stroke:#999;stroke-width:3" />
<path d="M1778.82,73.51C1789.75,73 1807.5,70.95 1819.08,70.85" style="fill:none;stroke:#999;stroke-width:3" />
<path d="M1778.32,83.19c10.93-0.38,30.3-1.9,40.26-1.9" style="fill:none;stroke:black;stroke-width:3" />
<circle cx="1778.32" cy="83.19" r="5" stroke-width="0" fill="#FF2A00" opacity="0.7" />
<path d="M1905.08,9.78c0.82,0.27,1.98,1.57,1.96,2.34c-0.06,2.42-0.06,4.53-0.06,6.74" style="fill:none;stroke:#999;stroke-width:3" />
<path d="M1873.47,19.78c0,3.61-3.42,13.54-4.97,15.94" style="fill:none;stroke:#999;stroke-width:3" />
<path d="M1874.47,21.59c9.09-0.95,57.61-4.33,64.99-4.69c11.53-0.56,2.44,6.85-0.43,8.87" style="fill:none;stroke:#999;stroke-width:3" />
<path d="M1877.09,30.13c0.49,0.18,3.16,0.22,3.66,0.17c2.31-0.24,11.72-1.53,17.28-1.79c0.76-0.04,2.16-0.13,2.79,0.02" style="fill:none;stroke:#999;stroke-width:3" />
<path d="M1887.52,30.06c0.73,0.32,1.24,0.99,1.24,1.24c0,2.12,0.43,11.92,0.29,13.33" style="fill:none;stroke:#999;stroke-width:3" />
<path d="M1876.8,38.43c0.46,0.14,3.71,0.17,4.17,0.13c2.71-0.19,9.69-2.29,13.43-2.5c0.58-0.03,2.68-0.06,3.54,0.07" style="fill:none;stroke:#999;stroke-width:3" />
<path d="M1871.8400000000001,48.27c0.57,0.1,2.81,0.9,3.67,0.7c5.51-1.28,13.38-3.14,21.77-5.34" style="fill:none;stroke:#999;stroke-width:3" />
<path d="M1911.4099999999999,22.89c0.02,0.25,0.08,0.65-0.03,1c-0.67,2.12-2.78,6.76-6.01,9.6" style="fill:none;stroke:#999;stroke-width:3" />
<path d="M1909.51,28.89c1.02,0.05,1.79,0,2.43-0.03c8.41-0.4,15.84-2.31,20.17-2.53c1.05-0.05,1.69,0.1,2.22,0.21" style="fill:none;stroke:#999;stroke-width:3" />
<path d="M1919.29,30.54c0.06,0.14,0.83,0.75,0.88,1.67c0.28,4.4-0.18,11.54-0.18,13.04c0,5.26-3.24,1.26-4.64,0.08" style="fill:none;stroke:#999;stroke-width:3" />
<path d="M1911.91,34.99c0.02,0.26,0.04,0.67-0.04,1.04c-0.51,2.19-3.47,7-7.51,9.94" style="fill:none;stroke:#999;stroke-width:3" />
<path d="M1926.93,36.22c3.63,1.72,9.38,7.07,10.29,9.75" style="fill:none;stroke:#999;stroke-width:3" />
<path d="M1885.75,53.93c0.68,0.7,1.68,2.73,1.68,3.66c0,0.94,0.32,23.51-0.5,27.43" style="fill:none;stroke:#999;stroke-width:3" />
<path d="M1888.57,55.74c3.87-0.12,33.89-3.26,37.42-3.26c1.76,0,2.51,1.65,2.51,2.52c0,2.14-0.87,28.08-0.87,28.79" style="fill:none;stroke:#999;stroke-width:3" />
<path d="M1887.51,64.13c7.24-0.27,34.32-2.9,40.53-2.9" style="fill:none;stroke:#999;stroke-width:3" />
<path d="M1887.82,73.51C1898.75,73 1916.5,70.95 1928.08,70.85" style="fill:none;stroke:#999;stroke-width:3" />
<path d="M1887.32,83.19c10.93-0.38,30.3-1.9,40.26-1.9" style="fill:none;stroke:#999;stroke-width:3" />
<path d="M1892.95,88.23c0.53,0.95,0.1,1.87-0.94,2.56c-3.16,2.08-11.95,6.51-18.26,8.97" style="fill:none;stroke:black;stroke-width:3" />
<circle cx="1892.95" cy="88.23" r="5" stroke-width="0" fill="#FF2A00" opacity="0.7" />
<path d="M2014.08,9.78c0.82,0.27,1.98,1.57,1.96,2.34c-0.06,2.42-0.06,4.53-0.06,6.74" style="fill:none;stroke:#999;stroke-width:3" />
<path d="M1982.47,19.78c0,3.61-3.42,13.54-4.97,15.94" style="fill:none;stroke:#999;stroke-width:3" />
<path d="M1983.47,21.59c9.09-0.95,57.61-4.33,64.99-4.69c11.53-0.56,2.44,6.85-0.43,8.87" style="fill:none;stroke:#999;stroke-width:3" />
<path d="M1986.09,30.13c0.49,0.18,3.16,0.22,3.66,0.17c2.31-0.24,11.72-1.53,17.28-1.79c0.76-0.04,2.16-0.13,2.79,0.02" style="fill:none;stroke:#999;stroke-width:3" />
<path d="M1996.52,30.06c0.73,0.32,1.24,0.99,1.24,1.24c0,2.12,0.43,11.92,0.29,13.33" style="fill:none;stroke:#999;stroke-width:3" />
<path d="M1985.8,38.43c0.46,0.14,3.71,0.17,4.17,0.13c2.71-0.19,9.69-2.29,13.43-2.5c0.58-0.03,2.68-0.06,3.54,0.07" style="fill:none;stroke:#999;stroke-width:3" />
<path d="M1980.8400000000001,48.27c0.57,0.1,2.81,0.9,3.67,0.7c5.51-1.28,13.38-3.14,21.77-5.34" style="fill:none;stroke:#999;stroke-width:3" />
<path d="M2020.4099999999999,22.89c0.02,0.25,0.08,0.65-0.03,1c-0.67,2.12-2.78,6.76-6.01,9.6" style="fill:none;stroke:#999;stroke-width:3" />
<path d="M2018.51,28.89c1.02,0.05,1.79,0,2.43-0.03c8.41-0.4,15.84-2.31,20.17-2.53c1.05-0.05,1.69,0.1,2.22,0.21" style="fill:none;stroke:#999;stroke-width:3" />
<path d="M2028.29,30.54c0.06,0.14,0.83,0.75,0.88,1.67c0.28,4.4-0.18,11.54-0.18,13.04c0,5.26-3.24,1.26-4.64,0.08" style="fill:none;stroke:#999;stroke-width:3" />
<path d="M2020.91,34.99c0.02,0.26,0.04,0.67-0.04,1.04c-0.51,2.19-3.47,7-7.51,9.94" style="fill:none;stroke:#999;stroke-width:3" />
<path d="M2035.93,36.22c3.63,1.72,9.38,7.07,10.29,9.75" style="fill:none;stroke:#999;stroke-width:3" />
<path d="M1994.75,53.93c0.68,0.7,1.68,2.73,1.68,3.66c0,0.94,0.32,23.51-0.5,27.43" style="fill:none;stroke:#999;stroke-width:3" />
<path d="M1997.57,55.74c3.87-0.12,33.89-3.26,37.42-3.26c1.76,0,2.51,1.65,2.51,2.52c0,2.14-0.87,28.08-0.87,28.79" style="fill:none;stroke:#999;stroke-width:3" />
<path d="M1996.51,64.13c7.24-0.27,34.32-2.9,40.53-2.9" style="fill:none;stroke:#999;stroke-width:3" />
<path d="M1996.82,73.51C2007.75,73 2025.5,70.95 2037.08,70.85" style="fill:none;stroke:#999;stroke-width:3" />
<path d="M1996.32,83.19c10.93-0.38,30.3-1.9,40.26-1.9" style="fill:none;stroke:#999;stroke-width:3" />
<path d="M2001.95,88.23c0.53,0.95,0.1,1.87-0.94,2.56c-3.16,2.08-11.95,6.51-18.26,8.97" style="fill:none;stroke:#999;stroke-width:3" />
<path d="M2025.75,86.72c8.66,3.5,18.89,9.84,21.25,12.9" style="fill:none;stroke:black;stroke-width:3" />
<circle cx="2025.75" cy="86.72" r="5" stroke-width="0" fill="#FF2A00" opacity="0.7" />
</svg>