<!-- 05c39 -->
<svg width="436px" height="109px" viewBox="0 0 436px 109px" xmlns="http://www.w3.org/2000/svg" xmlns:xlink="http://www.w3.org/1999/xlink" xml:space="preserve" version="1.1"  baseProfile="full">
<line x1="1" y1="1" x2="435" y2="1" style="stroke:#ddd;stroke-width:2" />
<line x1="1" y1="1" x2="1" y2="108" style="stroke:#ddd;stroke-width:2" />
<line x1="1" y1="108" x2="435" y2="108" style="stroke:#ddd;stroke-width:2" />
<line x1="435" y1="1" x2="435" y2="108" style="stroke:#ddd;stroke-width:2" />
<line x1="109" y1="1" x2="109" y2="108" style="stroke:#ddd;stroke-width:2" />
<line x1="218" y1="1" x2="218" y2="108" style="stroke:#ddd;stroke-width:2" />
<line x1="327" y1="1" x2="327" y2="108" style="stroke:#ddd;stroke-width:2" />
<line x1="1" y1="54" x2="435" y2="54" style="stroke:#ddd;stroke-width:2;stroke-dasharray:3 3" />
<line x1="55" y1="1" x2="55" y2="108" style="stroke:#ddd;stroke-width:2;stroke-dasharray:3 3" />
<line x1="164" y1="1" x2="164" y2="108" style="stroke:#ddd;stroke-width:2;stroke-dasharray:3 3" />
<line x1="273" y1="1" x2="273" y2="108" style="stroke:#ddd;stroke-width:2;stroke-dasharray:3 3" />
<line x1="382" y1="1" x2="382" y2="108" style="stroke:#ddd;stroke-width:2;stroke-dasharray:3 3" />
<path d="M27.49,17.75c3.58,1.25,3.78,1.16,6.14,1C47.95,17.75 67.0,15 78.08,14.5c3.32-0.15,4.12,1.75,3.61,4.25c-1.34,6.54-2.55,22.75-4.34,34" style="fill:none;stroke:black;stroke-width:3" />
<circle cx="27.49" cy="17.75" r="5" stroke-width="0" fill="#FF2A00" opacity="0.7" />
<path d="M136.49,17.75c3.58,1.25,3.78,1.16,6.14,1C156.95,17.75 176.0,15 187.07999999999998,14.5c3.32-0.15,4.12,1.75,3.61,4.25c-1.34,6.54-2.55,22.75-4.34,34" style="fill:none;stroke:#999;stroke-width:3" />
<path d="M125.75,38.5c2.3,0.25,4.1,0.73,6.65,0.5c22.24-2,49.82-5,67.46-5.75c2.82-0.12,5.11,0.5,6.39,0.75" style="fill:none;stroke:black;stroke-width:3" />
<circle cx="125.75" cy="38.5" r="5" stroke-width="0" fill="#FF2A00" opacity="0.7" />
<path d="M245.49,17.75c3.58,1.25,3.78,1.16,6.14,1C265.95,17.75 285.0,15 296.08,14.5c3.32-0.15,4.12,1.75,3.61,4.25c-1.34,6.54-2.55,22.75-4.34,34" style="fill:none;stroke:#999;stroke-width:3" />
<path d="M234.75,38.5c2.3,0.25,4.1,0.73,6.65,0.5c22.24-2,49.82-5,67.46-5.75c2.82-0.12,5.11,0.5,6.39,0.75" style="fill:none;stroke:#999;stroke-width:3" />
<path d="M244.78,57.5c1.28,0.25,3.59,0.89,5.11,0.75C263.95,57 280.27,55 293.05,54.5c2.04-0.08,3.32,0,4.86,0.25" style="fill:none;stroke:black;stroke-width:3" />
<circle cx="244.78" cy="57.5" r="5" stroke-width="0" fill="#FF2A00" opacity="0.7" />
<path d="M354.49,17.75c3.58,1.25,3.78,1.16,6.14,1C374.95,17.75 394.0,15 405.08,14.5c3.32-0.15,4.12,1.75,3.61,4.25c-1.34,6.54-2.55,22.75-4.34,34" style="fill:none;stroke:#999;stroke-width:3" />
<path d="M343.75,38.5c2.3,0.25,4.1,0.73,6.65,0.5c22.24-2,49.82-5,67.46-5.75c2.82-0.12,5.11,0.5,6.39,0.75" style="fill:none;stroke:#999;stroke-width:3" />
<path d="M353.78,57.5c1.28,0.25,3.59,0.89,5.11,0.75C372.95,57 389.27,55 402.05,54.5c2.04-0.08,3.32,0,4.86,0.25" style="fill:none;stroke:#999;stroke-width:3" />
<path d="M379.25,19.5c1,1.25,1.51,2.75,1.52,4C380.84000000000003,29.36 381.03,39.91 381.0,43c-0.25,23.5-9.75,44.25-30.25,53.75" style="fill:none;stroke:black;stroke-width:3" />
<circle cx="379.25" cy="19.5" r="5" stroke-width="0" fill="#FF2A00" opacity="0.7" />
</svg>