<!-- 05c3b -->
<svg width="545px" height="109px" viewBox="0 0 545px 109px" xmlns="http://www.w3.org/2000/svg" xmlns:xlink="http://www.w3.org/1999/xlink" xml:space="preserve" version="1.1"  baseProfile="full">
<line x1="1" y1="1" x2="544" y2="1" style="stroke:#ddd;stroke-width:2" />
<line x1="1" y1="1" x2="1" y2="108" style="stroke:#ddd;stroke-width:2" />
<line x1="1" y1="108" x2="544" y2="108" style="stroke:#ddd;stroke-width:2" />
<line x1="544" y1="1" x2="544" y2="108" style="stroke:#ddd;stroke-width:2" />
<line x1="109" y1="1" x2="109" y2="108" style="stroke:#ddd;stroke-width:2" />
<line x1="218" y1="1" x2="218" y2="108" style="stroke:#ddd;stroke-width:2" />
<line x1="327" y1="1" x2="327" y2="108" style="stroke:#ddd;stroke-width:2" />
<line x1="436" y1="1" x2="436" y2="108" style="stroke:#ddd;stroke-width:2" />
<line x1="1" y1="54" x2="544" y2="54" style="stroke:#ddd;stroke-width:2;stroke-dasharray:3 3" />
<line x1="55" y1="1" x2="55" y2="108" style="stroke:#ddd;stroke-width:2;stroke-dasharray:3 3" />
<line x1="164" y1="1" x2="164" y2="108" style="stroke:#ddd;stroke-width:2;stroke-dasharray:3 3" />
<line x1="273" y1="1" x2="273" y2="108" style="stroke:#ddd;stroke-width:2;stroke-dasharray:3 3" />
<line x1="382" y1="1" x2="382" y2="108" style="stroke:#ddd;stroke-width:2;stroke-dasharray:3 3" />
<line x1="491" y1="1" x2="491" y2="108" style="stroke:#ddd;stroke-width:2;stroke-dasharray:3 3" />
<path d="M25.18,18.9c3.26,0.79,6.51,0.79,9.81,0.43c12.82-1.42,30.89-3.58,43.01-4.46c3.99-0.29,5.5,0.88,5,3.75c-0.63,3.61-2,6.38-2.87,10.69" style="fill:none;stroke:black;stroke-width:3" />
<circle cx="25.18" cy="18.9" r="5" stroke-width="0" fill="#FF2A00" opacity="0.7" />
<path d="M134.18,18.9c3.26,0.79,6.51,0.79,9.81,0.43c12.82-1.42,30.89-3.58,43.01-4.46c3.99-0.29,5.5,0.88,5,3.75c-0.63,3.61-2,6.38-2.87,10.69" style="fill:none;stroke:#999;stroke-width:3" />
<path d="M138.9,34.67c8.26-0.59,30.16-2.88,44.28-4.19c4.04-0.37,7.1-0.88,8.38-0.94" style="fill:none;stroke:black;stroke-width:3" />
<circle cx="138.9" cy="34.67" r="5" stroke-width="0" fill="#FF2A00" opacity="0.7" />
<path d="M243.18,18.9c3.26,0.79,6.51,0.79,9.81,0.43c12.82-1.42,30.89-3.58,43.01-4.46c3.99-0.29,5.5,0.88,5,3.75c-0.63,3.61-2,6.38-2.87,10.69" style="fill:none;stroke:#999;stroke-width:3" />
<path d="M247.9,34.67c8.26-0.59,30.16-2.88,44.28-4.19c4.04-0.37,7.1-0.88,8.38-0.94" style="fill:none;stroke:#999;stroke-width:3" />
<path d="M246.63,20.08c0.87,0.87,1.04,2.42,1.01,4.26C247.0,54.5 243.25,76.75 229.75,93.5" style="fill:none;stroke:black;stroke-width:3" />
<circle cx="246.63" cy="20.08" r="5" stroke-width="0" fill="#FF2A00" opacity="0.7" />
<path d="M352.18,18.9c3.26,0.79,6.51,0.79,9.81,0.43c12.82-1.42,30.89-3.58,43.01-4.46c3.99-0.29,5.5,0.88,5,3.75c-0.63,3.61-2,6.38-2.87,10.69" style="fill:none;stroke:#999;stroke-width:3" />
<path d="M356.9,34.67c8.26-0.59,30.16-2.88,44.28-4.19c4.04-0.37,7.1-0.88,8.38-0.94" style="fill:none;stroke:#999;stroke-width:3" />
<path d="M355.63,20.08c0.87,0.87,1.04,2.42,1.01,4.26C356.0,54.5 352.25,76.75 338.75,93.5" style="fill:none;stroke:#999;stroke-width:3" />
<path d="M382.04,39.38c0.76,1.19,0.92,2.43,0.87,3.76c-1.2,30.23-11.77,44.94-26.35,52.64" style="fill:none;stroke:black;stroke-width:3" />
<circle cx="382.04" cy="39.38" r="5" stroke-width="0" fill="#FF2A00" opacity="0.7" />
<path d="M461.18,18.9c3.26,0.79,6.51,0.79,9.81,0.43c12.82-1.42,30.89-3.58,43.01-4.46c3.99-0.29,5.5,0.88,5,3.75c-0.63,3.61-2,6.38-2.87,10.69" style="fill:none;stroke:#999;stroke-width:3" />
<path d="M465.9,34.67c8.26-0.59,30.16-2.88,44.28-4.19c4.04-0.37,7.1-0.88,8.38-0.94" style="fill:none;stroke:#999;stroke-width:3" />
<path d="M464.63,20.08c0.87,0.87,1.04,2.42,1.01,4.26C465.0,54.5 461.25,76.75 447.75,93.5" style="fill:none;stroke:#999;stroke-width:3" />
<path d="M491.04,39.38c0.76,1.19,0.92,2.43,0.87,3.76c-1.2,30.23-11.77,44.94-26.35,52.64" style="fill:none;stroke:#999;stroke-width:3" />
<path d="M473.75,57.26c2.89,0.62,5.73,0.54,8.53-0.25c6.89-1.33,20.87-4.06,25.45-5.05c3.94-0.85,5.3,0.45,4.38,3.79c-1.6,5.75-3.85,16.38-5.07,24.72c-1.74,11.88,1.42,14.41,12.69,14.41c8.28,0,12.01-0.63,12.01-7.41" style="fill:none;stroke:black;stroke-width:3" />
<circle cx="473.75" cy="57.26" r="5" stroke-width="0" fill="#FF2A00" opacity="0.7" />
</svg>