<!-- 05c91 -->
<svg width="763px" height="109px" viewBox="0 0 763px 109px" xmlns="http://www.w3.org/2000/svg" xmlns:xlink="http://www.w3.org/1999/xlink" xml:space="preserve" version="1.1"  baseProfile="full">
<line x1="1" y1="1" x2="762" y2="1" style="stroke:#ddd;stroke-width:2" />
<line x1="1" y1="1" x2="1" y2="108" style="stroke:#ddd;stroke-width:2" />
<line x1="1" y1="108" x2="762" y2="108" style="stroke:#ddd;stroke-width:2" />
<line x1="762" y1="1" x2="762" y2="108" style="stroke:#ddd;stroke-width:2" />
<line x1="109" y1="1" x2="109" y2="108" style="stroke:#ddd;stroke-width:2" />
<line x1="218" y1="1" x2="218" y2="108" style="stroke:#ddd;stroke-width:2" />
<line x1="327" y1="1" x2="327" y2="108" style="stroke:#ddd;stroke-width:2" />
<line x1="436" y1="1" x2="436" y2="108" style="stroke:#ddd;stroke-width:2" />
<line x1="545" y1="1" x2="545" y2="108" style="stroke:#ddd;stroke-width:2" />
<line x1="654" y1="1" x2="654" y2="108" style="stroke:#ddd;stroke-width:2" />
<line x1="1" y1="54" x2="762" y2="54" style="stroke:#ddd;stroke-width:2;stroke-dasharray:3 3" />
<line x1="55" y1="1" x2="55" y2="108" style="stroke:#ddd;stroke-width:2;stroke-dasharray:3 3" />
<line x1="164" y1="1" x2="164" y2="108" style="stroke:#ddd;stroke-width:2;stroke-dasharray:3 3" />
<line x1="273" y1="1" x2="273" y2="108" style="stroke:#ddd;stroke-width:2;stroke-dasharray:3 3" />
<line x1="382" y1="1" x2="382" y2="108" style="stroke:#ddd;stroke-width:2;stroke-dasharray:3 3" />
<line x1="491" y1="1" x2="491" y2="108" style="stroke:#ddd;stroke-width:2;stroke-dasharray:3 3" />
<line x1="600" y1="1" x2="600" y2="108" style="stroke:#ddd;stroke-width:2;stroke-dasharray:3 3" />
<line x1="709" y1="1" x2="709" y2="108" style="stroke:#ddd;stroke-width:2;stroke-dasharray:3 3" />
<path d="M52.51,9.88c0.56,0.33,1.86,1.87,1.86,3.65c0,0.67-0.07,10.58-0.18,14.73" style="fill:none;stroke:black;stroke-width:3" />
<circle cx="52.51" cy="9.88" r="5" stroke-width="0" fill="#FF2A00" opacity="0.7" />
<path d="M161.51,9.88c0.56,0.33,1.86,1.87,1.86,3.65c0,0.67-0.07,10.58-0.18,14.73" style="fill:none;stroke:#999;stroke-width:3" />
<path d="M134.93,15.75c0.56,0.33,1.12,1.73,1.12,2.41c0,2.59-0.3,7.84-1.59,11.76c-0.48,1.45,0.83,2.6,2.11,2.28C152.0,28.25 186.9,26.28 191.92000000000002,26.15" style="fill:none;stroke:black;stroke-width:3" />
<circle cx="134.93" cy="15.75" r="5" stroke-width="0" fill="#FF2A00" opacity="0.7" />
<path d="M270.51,9.88c0.56,0.33,1.86,1.87,1.86,3.65c0,0.67-0.07,10.58-0.18,14.73" style="fill:none;stroke:#999;stroke-width:3" />
<path d="M243.93,15.75c0.56,0.33,1.12,1.73,1.12,2.41c0,2.59-0.3,7.84-1.59,11.76c-0.48,1.45,0.83,2.6,2.11,2.28C261.0,28.25 295.9,26.28 300.92,26.15" style="fill:none;stroke:#999;stroke-width:3" />
<path d="M301.49,13.12c0.42,0.34,0.91,2.56,0.84,3.25c-0.42,4.2-1.23,9-1.9,13.09" style="fill:none;stroke:black;stroke-width:3" />
<circle cx="301.49" cy="13.12" r="5" stroke-width="0" fill="#FF2A00" opacity="0.7" />
<path d="M379.51,9.88c0.56,0.33,1.86,1.87,1.86,3.65c0,0.67-0.07,10.58-0.18,14.73" style="fill:none;stroke:#999;stroke-width:3" />
<path d="M352.93,15.75c0.56,0.33,1.12,1.73,1.12,2.41c0,2.59-0.3,7.84-1.59,11.76c-0.48,1.45,0.83,2.6,2.11,2.28C370.0,28.25 404.9,26.28 409.92,26.15" style="fill:none;stroke:#999;stroke-width:3" />
<path d="M410.49,13.12c0.42,0.34,0.91,2.56,0.84,3.25c-0.42,4.2-1.23,9-1.9,13.09" style="fill:none;stroke:#999;stroke-width:3" />
<path d="M379.90999999999997,32.5c0.11,0.85,0.53,2.28-0.22,3.42c-5.19,7.88-17.49,21.62-38.94,32.7" style="fill:none;stroke:black;stroke-width:3" />
<circle cx="379.90999999999997" cy="32.5" r="5" stroke-width="0" fill="#FF2A00" opacity="0.7" />
<path d="M488.51,9.88c0.56,0.33,1.86,1.87,1.86,3.65c0,0.67-0.07,10.58-0.18,14.73" style="fill:none;stroke:#999;stroke-width:3" />
<path d="M461.93,15.75c0.56,0.33,1.12,1.73,1.12,2.41c0,2.59-0.3,7.84-1.59,11.76c-0.48,1.45,0.83,2.6,2.11,2.28C479.0,28.25 513.9,26.28 518.9200000000001,26.15" style="fill:none;stroke:#999;stroke-width:3" />
<path d="M519.49,13.12c0.42,0.34,0.91,2.56,0.84,3.25c-0.42,4.2-1.23,9-1.9,13.09" style="fill:none;stroke:#999;stroke-width:3" />
<path d="M488.90999999999997,32.5c0.11,0.85,0.53,2.28-0.22,3.42c-5.19,7.88-17.49,21.62-38.94,32.7" style="fill:none;stroke:#999;stroke-width:3" />
<path d="M488.65999999999997,36.4c5.71,5.18,30.29,22.1,36.58,25.89c2.14,1.29,4.88,1.84,7.01,2.2" style="fill:none;stroke:black;stroke-width:3" />
<circle cx="488.65999999999997" cy="36.4" r="5" stroke-width="0" fill="#FF2A00" opacity="0.7" />
<path d="M597.51,9.88c0.56,0.33,1.86,1.87,1.86,3.65c0,0.67-0.07,10.58-0.18,14.73" style="fill:none;stroke:#999;stroke-width:3" />
<path d="M570.9300000000001,15.75c0.56,0.33,1.12,1.73,1.12,2.41c0,2.59-0.3,7.84-1.59,11.76c-0.48,1.45,0.83,2.6,2.11,2.28C588.0,28.25 622.9,26.28 627.9200000000001,26.15" style="fill:none;stroke:#999;stroke-width:3" />
<path d="M628.49,13.12c0.42,0.34,0.91,2.56,0.84,3.25c-0.42,4.2-1.23,9-1.9,13.09" style="fill:none;stroke:#999;stroke-width:3" />
<path d="M597.91,32.5c0.11,0.85,0.53,2.28-0.22,3.42c-5.19,7.88-17.49,21.62-38.94,32.7" style="fill:none;stroke:#999;stroke-width:3" />
<path d="M597.66,36.4c5.71,5.18,30.29,22.1,36.58,25.89c2.14,1.29,4.88,1.84,7.01,2.2" style="fill:none;stroke:#999;stroke-width:3" />
<path d="M585.23,59.79c0.44,0.22,3.13,0.24,3.58,0.22c4.58-0.25,17.66-3.05,22.18-3.03c0.73,0.01,3.8,0.11,4.16,0.21" style="fill:none;stroke:black;stroke-width:3" />
<circle cx="585.23" cy="59.79" r="5" stroke-width="0" fill="#FF2A00" opacity="0.7" />
<path d="M706.51,9.88c0.56,0.33,1.86,1.87,1.86,3.65c0,0.67-0.07,10.58-0.18,14.73" style="fill:none;stroke:#999;stroke-width:3" />
<path d="M679.9300000000001,15.75c0.56,0.33,1.12,1.73,1.12,2.41c0,2.59-0.3,7.84-1.59,11.76c-0.48,1.45,0.83,2.6,2.11,2.28C697.0,28.25 731.9,26.28 736.9200000000001,26.15" style="fill:none;stroke:#999;stroke-width:3" />
<path d="M737.49,13.12c0.42,0.34,0.91,2.56,0.84,3.25c-0.42,4.2-1.23,9-1.9,13.09" style="fill:none;stroke:#999;stroke-width:3" />
<path d="M706.91,32.5c0.11,0.85,0.53,2.28-0.22,3.42c-5.19,7.88-17.49,21.62-38.94,32.7" style="fill:none;stroke:#999;stroke-width:3" />
<path d="M706.66,36.4c5.71,5.18,30.29,22.1,36.58,25.89c2.14,1.29,4.88,1.84,7.01,2.2" style="fill:none;stroke:#999;stroke-width:3" />
<path d="M694.23,59.79c0.44,0.22,3.13,0.24,3.58,0.22c4.58-0.25,17.66-3.05,22.18-3.03c0.73,0.01,3.8,0.11,4.16,0.21" style="fill:none;stroke:#999;stroke-width:3" />
<path d="M684.0,73.24c1.5,0.51,4.07,1.1,6.5,0.75c6.31-0.91,27.75-3.7,34.49-4.87c3.99-0.69,4.52,0.44,2.51,4.12c-4.5,8.25-8,14.5-14.75,26.25" style="fill:none;stroke:black;stroke-width:3" />
<circle cx="684.0" cy="73.24" r="5" stroke-width="0" fill="#FF2A00" opacity="0.7" />
</svg>