<!-- 05e2d -->
<svg width="1090px" height="109px" viewBox="0 0 1090px 109px" xmlns="http://www.w3.org/2000/svg" xmlns:xlink="http://www.w3.org/1999/xlink" xml:space="preserve" version="1.1"  baseProfile="full">
<line x1="1" y1="1" x2="1089" y2="1" style="stroke:#ddd;stroke-width:2" />
<line x1="1" y1="1" x2="1" y2="108" style="stroke:#ddd;stroke-width:2" />
<line x1="1" y1="108" x2="1089" y2="108" style="stroke:#ddd;stroke-width:2" />
<line x1="1089" y1="1" x2="1089" y2="108" style="stroke:#ddd;stroke-width:2" />
<line x1="109" y1="1" x2="109" y2="108" style="stroke:#ddd;stroke-width:2" />
<line x1="218" y1="1" x2="218" y2="108" style="stroke:#ddd;stroke-width:2" />
<line x1="327" y1="1" x2="327" y2="108" style="stroke:#ddd;stroke-width:2" />
<line x1="436" y1="1" x2="436" y2="108" style="stroke:#ddd;stroke-width:2" />
<line x1="545" y1="1" x2="545" y2="108" style="stroke:#ddd;stroke-width:2" />
<line x1="654" y1="1" x2="654" y2="108" style="stroke:#ddd;stroke-width:2" />
<line x1="763" y1="1" x2="763" y2="108" style="stroke:#ddd;stroke-width:2" />
<line x1="872" y1="1" x2="872" y2="108" style="stroke:#ddd;stroke-width:2" />
<line x1="981" y1="1" x2="981" y2="108" style="stroke:#ddd;stroke-width:2" />
<line x1="1" y1="54" x2="1089" y2="54" style="stroke:#ddd;stroke-width:2;stroke-dasharray:3 3" />
<line x1="55" y1="1" x2="55" y2="108" style="stroke:#ddd;stroke-width:2;stroke-dasharray:3 3" />
<line x1="164" y1="1" x2="164" y2="108" style="stroke:#ddd;stroke-width:2;stroke-dasharray:3 3" />
<line x1="273" y1="1" x2="273" y2="108" style="stroke:#ddd;stroke-width:2;stroke-dasharray:3 3" />
<line x1="382" y1="1" x2="382" y2="108" style="stroke:#ddd;stroke-width:2;stroke-dasharray:3 3" />
<line x1="491" y1="1" x2="491" y2="108" style="stroke:#ddd;stroke-width:2;stroke-dasharray:3 3" />
<line x1="600" y1="1" x2="600" y2="108" style="stroke:#ddd;stroke-width:2;stroke-dasharray:3 3" />
<line x1="709" y1="1" x2="709" y2="108" style="stroke:#ddd;stroke-width:2;stroke-dasharray:3 3" />
<line x1="818" y1="1" x2="818" y2="108" style="stroke:#ddd;stroke-width:2;stroke-dasharray:3 3" />
<line x1="927" y1="1" x2="927" y2="108" style="stroke:#ddd;stroke-width:2;stroke-dasharray:3 3" />
<line x1="1036" y1="1" x2="1036" y2="108" style="stroke:#ddd;stroke-width:2;stroke-dasharray:3 3" />
<path d="M54.81,9.63c1.03,1.03,1.51,2.37,1.51,3.65c0,2.34-0.07,5.09-0.07,7.46" style="fill:none;stroke:black;stroke-width:3" />
<circle cx="54.81" cy="9.63" r="5" stroke-width="0" fill="#FF2A00" opacity="0.7" />
<path d="M163.81,9.63c1.03,1.03,1.51,2.37,1.51,3.65c0,2.34-0.07,5.09-0.07,7.46" style="fill:none;stroke:#999;stroke-width:3" />
<path d="M131.63,24.23c3.87,0.65,7,0.61,10.25,0.25c14.62-1.6,32.52-3.47,47.87-4.6c3.14-0.23,6.02-0.22,9.12,0.44" style="fill:none;stroke:black;stroke-width:3" />
<circle cx="131.63" cy="24.23" r="5" stroke-width="0" fill="#FF2A00" opacity="0.7" />
<path d="M272.81,9.63c1.03,1.03,1.51,2.37,1.51,3.65c0,2.34-0.07,5.09-0.07,7.46" style="fill:none;stroke:#999;stroke-width:3" />
<path d="M240.63,24.23c3.87,0.65,7,0.61,10.25,0.25c14.62-1.6,32.52-3.47,47.87-4.6c3.14-0.23,6.02-0.22,9.12,0.44" style="fill:none;stroke:#999;stroke-width:3" />
<path d="M243.99,24.75c0.82,0.82,0.93,2.12,0.9,3.52c-0.39,21.1-3.77,45.48-16.84,60.44" style="fill:none;stroke:black;stroke-width:3" />
<circle cx="243.99" cy="24.75" r="5" stroke-width="0" fill="#FF2A00" opacity="0.7" />
<path d="M381.81,9.63c1.03,1.03,1.51,2.37,1.51,3.65c0,2.34-0.07,5.09-0.07,7.46" style="fill:none;stroke:#999;stroke-width:3" />
<path d="M349.63,24.23c3.87,0.65,7,0.61,10.25,0.25c14.62-1.6,32.52-3.47,47.87-4.6c3.14-0.23,6.02-0.22,9.12,0.44" style="fill:none;stroke:#999;stroke-width:3" />
<path d="M352.99,24.75c0.82,0.82,0.93,2.12,0.9,3.52c-0.39,21.1-3.77,45.48-16.84,60.44" style="fill:none;stroke:#999;stroke-width:3" />
<path d="M357.53,40.5c2.73,0.66,5.76,0.21,8.51-0.07c9.04-0.9,27.83-3.28,39.84-4.24c2.97-0.24,5.88-0.49,8.85-0.06" style="fill:none;stroke:black;stroke-width:3" />
<circle cx="357.53" cy="40.5" r="5" stroke-width="0" fill="#FF2A00" opacity="0.7" />
<path d="M490.81,9.63c1.03,1.03,1.51,2.37,1.51,3.65c0,2.34-0.07,5.09-0.07,7.46" style="fill:none;stroke:#999;stroke-width:3" />
<path d="M458.63,24.23c3.87,0.65,7,0.61,10.25,0.25c14.62-1.6,32.52-3.47,47.87-4.6c3.14-0.23,6.02-0.22,9.12,0.44" style="fill:none;stroke:#999;stroke-width:3" />
<path d="M461.99,24.75c0.82,0.82,0.93,2.12,0.9,3.52c-0.39,21.1-3.77,45.48-16.84,60.44" style="fill:none;stroke:#999;stroke-width:3" />
<path d="M466.53,40.5c2.73,0.66,5.76,0.21,8.51-0.07c9.04-0.9,27.83-3.28,39.84-4.24c2.97-0.24,5.88-0.49,8.85-0.06" style="fill:none;stroke:#999;stroke-width:3" />
<path d="M479.65999999999997,30.79c0.77,0.77,1.34,1.87,1.43,2.4c0.57,3.52,1.4,15.08,1.93,21.18c0.08,0.94,0.16,1.74,0.22,2.37" style="fill:none;stroke:black;stroke-width:3" />
<circle cx="479.65999999999997" cy="30.79" r="5" stroke-width="0" fill="#FF2A00" opacity="0.7" />
<path d="M599.81,9.63c1.03,1.03,1.51,2.37,1.51,3.65c0,2.34-0.07,5.09-0.07,7.46" style="fill:none;stroke:#999;stroke-width:3" />
<path d="M567.63,24.23c3.87,0.65,7,0.61,10.25,0.25c14.62-1.6,32.52-3.47,47.87-4.6c3.14-0.23,6.02-0.22,9.12,0.44" style="fill:none;stroke:#999;stroke-width:3" />
<path d="M570.99,24.75c0.82,0.82,0.93,2.12,0.9,3.52c-0.39,21.1-3.77,45.48-16.84,60.44" style="fill:none;stroke:#999;stroke-width:3" />
<path d="M575.53,40.5c2.73,0.66,5.76,0.21,8.51-0.07c9.04-0.9,27.83-3.28,39.84-4.24c2.97-0.24,5.88-0.49,8.85-0.06" style="fill:none;stroke:#999;stroke-width:3" />
<path d="M588.66,30.79c0.77,0.77,1.34,1.87,1.43,2.4c0.57,3.52,1.4,15.08,1.93,21.18c0.08,0.94,0.16,1.74,0.22,2.37" style="fill:none;stroke:#999;stroke-width:3" />
<path d="M613.4,26.75c0.86,0.86,1.1,2.12,0.93,3.4C613.53,36.29 611.62,47.3 611.0,52.5" style="fill:none;stroke:black;stroke-width:3" />
<circle cx="613.4" cy="26.75" r="5" stroke-width="0" fill="#FF2A00" opacity="0.7" />
<path d="M708.81,9.63c1.03,1.03,1.51,2.37,1.51,3.65c0,2.34-0.07,5.09-0.07,7.46" style="fill:none;stroke:#999;stroke-width:3" />
<path d="M676.63,24.23c3.87,0.65,7,0.61,10.25,0.25c14.62-1.6,32.52-3.47,47.87-4.6c3.14-0.23,6.02-0.22,9.12,0.44" style="fill:none;stroke:#999;stroke-width:3" />
<path d="M679.99,24.75c0.82,0.82,0.93,2.12,0.9,3.52c-0.39,21.1-3.77,45.48-16.84,60.44" style="fill:none;stroke:#999;stroke-width:3" />
<path d="M684.53,40.5c2.73,0.66,5.76,0.21,8.51-0.07c9.04-0.9,27.83-3.28,39.84-4.24c2.97-0.24,5.88-0.49,8.85-0.06" style="fill:none;stroke:#999;stroke-width:3" />
<path d="M697.66,30.79c0.77,0.77,1.34,1.87,1.43,2.4c0.57,3.52,1.4,15.08,1.93,21.18c0.08,0.94,0.16,1.74,0.22,2.37" style="fill:none;stroke:#999;stroke-width:3" />
<path d="M722.4,26.75c0.86,0.86,1.1,2.12,0.93,3.4C722.53,36.29 720.62,47.3 720.0,52.5" style="fill:none;stroke:#999;stroke-width:3" />
<path d="M702.25,56c3.59-0.38,11.4-1.8,16.5-2.4c1.64-0.19,2.98-0.08,3.75-0.1" style="fill:none;stroke:black;stroke-width:3" />
<circle cx="702.25" cy="56.0" r="5" stroke-width="0" fill="#FF2A00" opacity="0.7" />
<path d="M817.81,9.63c1.03,1.03,1.51,2.37,1.51,3.65c0,2.34-0.07,5.09-0.07,7.46" style="fill:none;stroke:#999;stroke-width:3" />
<path d="M785.63,24.23c3.87,0.65,7,0.61,10.25,0.25c14.62-1.6,32.52-3.47,47.87-4.6c3.14-0.23,6.02-0.22,9.12,0.44" style="fill:none;stroke:#999;stroke-width:3" />
<path d="M788.99,24.75c0.82,0.82,0.93,2.12,0.9,3.52c-0.39,21.1-3.77,45.48-16.84,60.44" style="fill:none;stroke:#999;stroke-width:3" />
<path d="M793.53,40.5c2.73,0.66,5.76,0.21,8.51-0.07c9.04-0.9,27.83-3.28,39.84-4.24c2.97-0.24,5.88-0.49,8.85-0.06" style="fill:none;stroke:#999;stroke-width:3" />
<path d="M806.66,30.79c0.77,0.77,1.34,1.87,1.43,2.4c0.57,3.52,1.4,15.08,1.93,21.18c0.08,0.94,0.16,1.74,0.22,2.37" style="fill:none;stroke:#999;stroke-width:3" />
<path d="M831.4,26.75c0.86,0.86,1.1,2.12,0.93,3.4C831.53,36.29 829.62,47.3 829.0,52.5" style="fill:none;stroke:#999;stroke-width:3" />
<path d="M811.25,56c3.59-0.38,11.4-1.8,16.5-2.4c1.64-0.19,2.98-0.08,3.75-0.1" style="fill:none;stroke:#999;stroke-width:3" />
<path d="M797.13,68.3c0.91,0.91,1.62,1.95,1.85,3.13c0.78,4.07,1.58,9.52,2.67,18.81c0.13,1.09,0.26,2.22,0.39,3.42" style="fill:none;stroke:black;stroke-width:3" />
<circle cx="797.13" cy="68.3" r="5" stroke-width="0" fill="#FF2A00" opacity="0.7" />
<path d="M926.81,9.63c1.03,1.03,1.51,2.37,1.51,3.65c0,2.34-0.07,5.09-0.07,7.46" style="fill:none;stroke:#999;stroke-width:3" />
<path d="M894.63,24.23c3.87,0.65,7,0.61,10.25,0.25c14.62-1.6,32.52-3.47,47.87-4.6c3.14-0.23,6.02-0.22,9.12,0.44" style="fill:none;stroke:#999;stroke-width:3" />
<path d="M897.99,24.75c0.82,0.82,0.93,2.12,0.9,3.52c-0.39,21.1-3.77,45.48-16.84,60.44" style="fill:none;stroke:#999;stroke-width:3" />
<path d="M902.53,40.5c2.73,0.66,5.76,0.21,8.51-0.07c9.04-0.9,27.83-3.28,39.84-4.24c2.97-0.24,5.88-0.49,8.85-0.06" style="fill:none;stroke:#999;stroke-width:3" />
<path d="M915.66,30.79c0.77,0.77,1.34,1.87,1.43,2.4c0.57,3.52,1.4,15.08,1.93,21.18c0.08,0.94,0.16,1.74,0.22,2.37" style="fill:none;stroke:#999;stroke-width:3" />
<path d="M940.4,26.75c0.86,0.86,1.1,2.12,0.93,3.4C940.53,36.29 938.62,47.3 938.0,52.5" style="fill:none;stroke:#999;stroke-width:3" />
<path d="M920.25,56c3.59-0.38,11.4-1.8,16.5-2.4c1.64-0.19,2.98-0.08,3.75-0.1" style="fill:none;stroke:#999;stroke-width:3" />
<path d="M906.13,68.3c0.91,0.91,1.62,1.95,1.85,3.13c0.78,4.07,1.58,9.52,2.67,18.81c0.13,1.09,0.26,2.22,0.39,3.42" style="fill:none;stroke:#999;stroke-width:3" />
<path d="M908.47,69.56C914.0,69 950.71,65.05 953.3199999999999,64.9c3.06-0.17,3.73,2.9,3.62,4.41c-0.55,7.57-1.28,10.85-3.3,18.21c-1.17,4.24-4.27,0.94-5.82-0.6" style="fill:none;stroke:black;stroke-width:3" />
<circle cx="908.47" cy="69.56" r="5" stroke-width="0" fill="#FF2A00" opacity="0.7" />
<path d="M1035.81,9.63c1.03,1.03,1.51,2.37,1.51,3.65c0,2.34-0.07,5.09-0.07,7.46" style="fill:none;stroke:#999;stroke-width:3" />
<path d="M1003.63,24.23c3.87,0.65,7,0.61,10.25,0.25c14.62-1.6,32.52-3.47,47.87-4.6c3.14-0.23,6.02-0.22,9.12,0.44" style="fill:none;stroke:#999;stroke-width:3" />
<path d="M1006.99,24.75c0.82,0.82,0.93,2.12,0.9,3.52c-0.39,21.1-3.77,45.48-16.84,60.44" style="fill:none;stroke:#999;stroke-width:3" />
<path d="M1011.53,40.5c2.73,0.66,5.76,0.21,8.51-0.07c9.04-0.9,27.83-3.28,39.84-4.24c2.97-0.24,5.88-0.49,8.85-0.06" style="fill:none;stroke:#999;stroke-width:3" />
<path d="M1024.6599999999999,30.79c0.77,0.77,1.34,1.87,1.43,2.4c0.57,3.52,1.4,15.08,1.93,21.18c0.08,0.94,0.16,1.74,0.22,2.37" style="fill:none;stroke:#999;stroke-width:3" />
<path d="M1049.4,26.75c0.86,0.86,1.1,2.12,0.93,3.4C1049.53,36.29 1047.62,47.3 1047.0,52.5" style="fill:none;stroke:#999;stroke-width:3" />
<path d="M1029.25,56c3.59-0.38,11.4-1.8,16.5-2.4c1.64-0.19,2.98-0.08,3.75-0.1" style="fill:none;stroke:#999;stroke-width:3" />
<path d="M1015.13,68.3c0.91,0.91,1.62,1.95,1.85,3.13c0.78,4.07,1.58,9.52,2.67,18.81c0.13,1.09,0.26,2.22,0.39,3.42" style="fill:none;stroke:#999;stroke-width:3" />
<path d="M1017.47,69.56C1023.0,69 1059.71,65.05 1062.32,64.9c3.06-0.17,3.73,2.9,3.62,4.41c-0.55,7.57-1.28,10.85-3.3,18.21c-1.17,4.24-4.27,0.94-5.82-0.6" style="fill:none;stroke:#999;stroke-width:3" />
<path d="M1038.23,58c1.07,1.07,1.35,2.5,1.35,3.63c0,4.25,0.04,22.84,0.06,34.25c0,2.38,0,4.2,0,5.12" style="fill:none;stroke:black;stroke-width:3" />
<circle cx="1038.23" cy="58.0" r="5" stroke-width="0" fill="#FF2A00" opacity="0.7" />
</svg>