<!-- 05e55 -->
<svg width="1417px" height="109px" viewBox="0 0 1417px 109px" xmlns="http://www.w3.org/2000/svg" xmlns:xlink="http://www.w3.org/1999/xlink" xml:space="preserve" version="1.1"  baseProfile="full">
<line x1="1" y1="1" x2="1416" y2="1" style="stroke:#ddd;stroke-width:2" />
<line x1="1" y1="1" x2="1" y2="108" style="stroke:#ddd;stroke-width:2" />
<line x1="1" y1="108" x2="1416" y2="108" style="stroke:#ddd;stroke-width:2" />
<line x1="1416" y1="1" x2="1416" y2="108" style="stroke:#ddd;stroke-width:2" />
<line x1="109" y1="1" x2="109" y2="108" style="stroke:#ddd;stroke-width:2" />
<line x1="218" y1="1" x2="218" y2="108" style="stroke:#ddd;stroke-width:2" />
<line x1="327" y1="1" x2="327" y2="108" style="stroke:#ddd;stroke-width:2" />
<line x1="436" y1="1" x2="436" y2="108" style="stroke:#ddd;stroke-width:2" />
<line x1="545" y1="1" x2="545" y2="108" style="stroke:#ddd;stroke-width:2" />
<line x1="654" y1="1" x2="654" y2="108" style="stroke:#ddd;stroke-width:2" />
<line x1="763" y1="1" x2="763" y2="108" style="stroke:#ddd;stroke-width:2" />
<line x1="872" y1="1" x2="872" y2="108" style="stroke:#ddd;stroke-width:2" />
<line x1="981" y1="1" x2="981" y2="108" style="stroke:#ddd;stroke-width:2" />
<line x1="1090" y1="1" x2="1090" y2="108" style="stroke:#ddd;stroke-width:2" />
<line x1="1199" y1="1" x2="1199" y2="108" style="stroke:#ddd;stroke-width:2" />
<line x1="1308" y1="1" x2="1308" y2="108" style="stroke:#ddd;stroke-width:2" />
<line x1="1" y1="54" x2="1416" y2="54" style="stroke:#ddd;stroke-width:2;stroke-dasharray:3 3" />
<line x1="55" y1="1" x2="55" y2="108" style="stroke:#ddd;stroke-width:2;stroke-dasharray:3 3" />
<line x1="164" y1="1" x2="164" y2="108" style="stroke:#ddd;stroke-width:2;stroke-dasharray:3 3" />
<line x1="273" y1="1" x2="273" y2="108" style="stroke:#ddd;stroke-width:2;stroke-dasharray:3 3" />
<line x1="382" y1="1" x2="382" y2="108" style="stroke:#ddd;stroke-width:2;stroke-dasharray:3 3" />
<line x1="491" y1="1" x2="491" y2="108" style="stroke:#ddd;stroke-width:2;stroke-dasharray:3 3" />
<line x1="600" y1="1" x2="600" y2="108" style="stroke:#ddd;stroke-width:2;stroke-dasharray:3 3" />
<line x1="709" y1="1" x2="709" y2="108" style="stroke:#ddd;stroke-width:2;stroke-dasharray:3 3" />
<line x1="818" y1="1" x2="818" y2="108" style="stroke:#ddd;stroke-width:2;stroke-dasharray:3 3" />
<line x1="927" y1="1" x2="927" y2="108" style="stroke:#ddd;stroke-width:2;stroke-dasharray:3 3" />
<line x1="1036" y1="1" x2="1036" y2="108" style="stroke:#ddd;stroke-width:2;stroke-dasharray:3 3" />
<line x1="1145" y1="1" x2="1145" y2="108" style="stroke:#ddd;stroke-width:2;stroke-dasharray:3 3" />
<line x1="1254" y1="1" x2="1254" y2="108" style="stroke:#ddd;stroke-width:2;stroke-dasharray:3 3" />
<line x1="1363" y1="1" x2="1363" y2="108" style="stroke:#ddd;stroke-width:2;stroke-dasharray:3 3" />
<path d="M21.5,18.06c3,0.57,5.48,0.35,8.11,0.16c12.18-0.92,34.11-2.52,47.14-2.83c2.68-0.06,5.35-0.16,7.99,0.38" style="fill:none;stroke:black;stroke-width:3" />
<circle cx="21.5" cy="18.06" r="5" stroke-width="0" fill="#FF2A00" opacity="0.7" />
<path d="M130.5,18.06c3,0.57,5.48,0.35,8.11,0.16c12.18-0.92,34.11-2.52,47.14-2.83c2.68-0.06,5.35-0.16,7.99,0.38" style="fill:none;stroke:#999;stroke-width:3" />
<path d="M146.75,11.24c1.12,0.51,1.61,1.44,1.75,2.03c1.25,5.36,2,8.87,2.5,10.81" style="fill:none;stroke:black;stroke-width:3" />
<circle cx="146.75" cy="11.24" r="5" stroke-width="0" fill="#FF2A00" opacity="0.7" />
<path d="M239.5,18.06c3,0.57,5.48,0.35,8.11,0.16c12.18-0.92,34.11-2.52,47.14-2.83c2.68-0.06,5.35-0.16,7.99,0.38" style="fill:none;stroke:#999;stroke-width:3" />
<path d="M255.75,11.24c1.12,0.51,1.61,1.44,1.75,2.03c1.25,5.36,2,8.87,2.5,10.81" style="fill:none;stroke:#999;stroke-width:3" />
<path d="M284.1,8.75c0.35,0.81,0.48,1.89,0.17,2.9c-1.47,4.79-1.85,5.86-3.52,10.65" style="fill:none;stroke:black;stroke-width:3" />
<circle cx="284.1" cy="8.75" r="5" stroke-width="0" fill="#FF2A00" opacity="0.7" />
<path d="M348.5,18.06c3,0.57,5.48,0.35,8.11,0.16c12.18-0.92,34.11-2.52,47.14-2.83c2.68-0.06,5.35-0.16,7.99,0.38" style="fill:none;stroke:#999;stroke-width:3" />
<path d="M364.75,11.24c1.12,0.51,1.61,1.44,1.75,2.03c1.25,5.36,2,8.87,2.5,10.81" style="fill:none;stroke:#999;stroke-width:3" />
<path d="M393.1,8.75c0.35,0.81,0.48,1.89,0.17,2.9c-1.47,4.79-1.85,5.86-3.52,10.65" style="fill:none;stroke:#999;stroke-width:3" />
<path d="M358.02,29.46c0.83,0.83,1.34,1.91,1.44,2.49c0.67,4.05,2.17,9.88,2.76,13.77c0.28,1.85,0.47,3.13,0.47,3.23" style="fill:none;stroke:black;stroke-width:3" />
<circle cx="358.02" cy="29.46" r="5" stroke-width="0" fill="#FF2A00" opacity="0.7" />
<path d="M457.5,18.06c3,0.57,5.48,0.35,8.11,0.16c12.18-0.92,34.11-2.52,47.14-2.83c2.68-0.06,5.35-0.16,7.99,0.38" style="fill:none;stroke:#999;stroke-width:3" />
<path d="M473.75,11.24c1.12,0.51,1.61,1.44,1.75,2.03c1.25,5.36,2,8.87,2.5,10.81" style="fill:none;stroke:#999;stroke-width:3" />
<path d="M502.1,8.75c0.35,0.81,0.48,1.89,0.17,2.9c-1.47,4.79-1.85,5.86-3.52,10.65" style="fill:none;stroke:#999;stroke-width:3" />
<path d="M467.02,29.46c0.83,0.83,1.34,1.91,1.44,2.49c0.67,4.05,2.17,9.88,2.76,13.77c0.28,1.85,0.47,3.13,0.47,3.23" style="fill:none;stroke:#999;stroke-width:3" />
<path d="M469.0,31.03c7.62-1,29.26-3.43,36.36-4.1c3.47-0.33,5.81,0.17,5.12,4.22c-0.51,3-1.67,7.57-2.5,11.6c-0.28,1.35-0.67,2.5-0.94,3.36" style="fill:none;stroke:black;stroke-width:3" />
<circle cx="469.0" cy="31.03" r="5" stroke-width="0" fill="#FF2A00" opacity="0.7" />
<path d="M566.5,18.06c3,0.57,5.48,0.35,8.11,0.16c12.18-0.92,34.11-2.52,47.14-2.83c2.68-0.06,5.35-0.16,7.99,0.38" style="fill:none;stroke:#999;stroke-width:3" />
<path d="M582.75,11.24c1.12,0.51,1.61,1.44,1.75,2.03c1.25,5.36,2,8.87,2.5,10.81" style="fill:none;stroke:#999;stroke-width:3" />
<path d="M611.1,8.75c0.35,0.81,0.48,1.89,0.17,2.9c-1.47,4.79-1.85,5.86-3.52,10.65" style="fill:none;stroke:#999;stroke-width:3" />
<path d="M576.02,29.46c0.83,0.83,1.34,1.91,1.44,2.49c0.67,4.05,2.17,9.88,2.76,13.77c0.28,1.85,0.47,3.13,0.47,3.23" style="fill:none;stroke:#999;stroke-width:3" />
<path d="M578.0,31.03c7.62-1,29.26-3.43,36.36-4.1c3.47-0.33,5.81,0.17,5.12,4.22c-0.51,3-1.67,7.57-2.5,11.6c-0.28,1.35-0.67,2.5-0.94,3.36" style="fill:none;stroke:#999;stroke-width:3" />
<path d="M579.98,38.88c7.39-0.76,33.3-3.4,37.48-3.4" style="fill:none;stroke:black;stroke-width:3" />
<circle cx="579.98" cy="38.88" r="5" stroke-width="0" fill="#FF2A00" opacity="0.7" />
<path d="M675.5,18.06c3,0.57,5.48,0.35,8.11,0.16c12.18-0.92,34.11-2.52,47.14-2.83c2.68-0.06,5.35-0.16,7.99,0.38" style="fill:none;stroke:#999;stroke-width:3" />
<path d="M691.75,11.24c1.12,0.51,1.61,1.44,1.75,2.03c1.25,5.36,2,8.87,2.5,10.81" style="fill:none;stroke:#999;stroke-width:3" />
<path d="M720.1,8.75c0.35,0.81,0.48,1.89,0.17,2.9c-1.47,4.79-1.85,5.86-3.52,10.65" style="fill:none;stroke:#999;stroke-width:3" />
<path d="M685.02,29.46c0.83,0.83,1.34,1.91,1.44,2.49c0.67,4.05,2.17,9.88,2.76,13.77c0.28,1.85,0.47,3.13,0.47,3.23" style="fill:none;stroke:#999;stroke-width:3" />
<path d="M687.0,31.03c7.62-1,29.26-3.43,36.36-4.1c3.47-0.33,5.81,0.17,5.12,4.22c-0.51,3-1.67,7.57-2.5,11.6c-0.28,1.35-0.67,2.5-0.94,3.36" style="fill:none;stroke:#999;stroke-width:3" />
<path d="M688.98,38.88c7.39-0.76,33.3-3.4,37.48-3.4" style="fill:none;stroke:#999;stroke-width:3" />
<path d="M690.93,47.34c9.82-1.09,23.82-2.57,33.18-2.84" style="fill:none;stroke:black;stroke-width:3" />
<circle cx="690.93" cy="47.34" r="5" stroke-width="0" fill="#FF2A00" opacity="0.7" />
<path d="M784.5,18.06c3,0.57,5.48,0.35,8.11,0.16c12.18-0.92,34.11-2.52,47.14-2.83c2.68-0.06,5.35-0.16,7.99,0.38" style="fill:none;stroke:#999;stroke-width:3" />
<path d="M800.75,11.24c1.12,0.51,1.61,1.44,1.75,2.03c1.25,5.36,2,8.87,2.5,10.81" style="fill:none;stroke:#999;stroke-width:3" />
<path d="M829.1,8.75c0.35,0.81,0.48,1.89,0.17,2.9c-1.47,4.79-1.85,5.86-3.52,10.65" style="fill:none;stroke:#999;stroke-width:3" />
<path d="M794.02,29.46c0.83,0.83,1.34,1.91,1.44,2.49c0.67,4.05,2.17,9.88,2.76,13.77c0.28,1.85,0.47,3.13,0.47,3.23" style="fill:none;stroke:#999;stroke-width:3" />
<path d="M796.0,31.03c7.62-1,29.26-3.43,36.36-4.1c3.47-0.33,5.81,0.17,5.12,4.22c-0.51,3-1.67,7.57-2.5,11.6c-0.28,1.35-0.67,2.5-0.94,3.36" style="fill:none;stroke:#999;stroke-width:3" />
<path d="M797.98,38.88c7.39-0.76,33.3-3.4,37.48-3.4" style="fill:none;stroke:#999;stroke-width:3" />
<path d="M799.93,47.34c9.82-1.09,23.82-2.57,33.18-2.84" style="fill:none;stroke:#999;stroke-width:3" />
<path d="M777.88,59.24c2.8,0.57,5.91,0.47,8.74,0.25c18.6-1.49,46.42-3.25,61.88-4.08c2.72-0.15,5.75-0.03,8.75,0.5" style="fill:none;stroke:black;stroke-width:3" />
<circle cx="777.88" cy="59.24" r="5" stroke-width="0" fill="#FF2A00" opacity="0.7" />
<path d="M893.5,18.06c3,0.57,5.48,0.35,8.11,0.16c12.18-0.92,34.11-2.52,47.14-2.83c2.68-0.06,5.35-0.16,7.99,0.38" style="fill:none;stroke:#999;stroke-width:3" />
<path d="M909.75,11.24c1.12,0.51,1.61,1.44,1.75,2.03c1.25,5.36,2,8.87,2.5,10.81" style="fill:none;stroke:#999;stroke-width:3" />
<path d="M938.1,8.75c0.35,0.81,0.48,1.89,0.17,2.9c-1.47,4.79-1.85,5.86-3.52,10.65" style="fill:none;stroke:#999;stroke-width:3" />
<path d="M903.02,29.46c0.83,0.83,1.34,1.91,1.44,2.49c0.67,4.05,2.17,9.88,2.76,13.77c0.28,1.85,0.47,3.13,0.47,3.23" style="fill:none;stroke:#999;stroke-width:3" />
<path d="M905.0,31.03c7.62-1,29.26-3.43,36.36-4.1c3.47-0.33,5.81,0.17,5.12,4.22c-0.51,3-1.67,7.57-2.5,11.6c-0.28,1.35-0.67,2.5-0.94,3.36" style="fill:none;stroke:#999;stroke-width:3" />
<path d="M906.98,38.88c7.39-0.76,33.3-3.4,37.48-3.4" style="fill:none;stroke:#999;stroke-width:3" />
<path d="M908.93,47.34c9.82-1.09,23.82-2.57,33.18-2.84" style="fill:none;stroke:#999;stroke-width:3" />
<path d="M886.88,59.24c2.8,0.57,5.91,0.47,8.74,0.25c18.6-1.49,46.42-3.25,61.88-4.08c2.72-0.15,5.75-0.03,8.75,0.5" style="fill:none;stroke:#999;stroke-width:3" />
<path d="M919.13,49.43c-0.1,1.18-0.35,2.46-0.89,3.35C910.88,65 901.5,75.25 884.25,84.5" style="fill:none;stroke:black;stroke-width:3" />
<circle cx="919.13" cy="49.43" r="5" stroke-width="0" fill="#FF2A00" opacity="0.7" />
<path d="M1002.5,18.06c3,0.57,5.48,0.35,8.11,0.16c12.18-0.92,34.11-2.52,47.14-2.83c2.68-0.06,5.35-0.16,7.99,0.38" style="fill:none;stroke:#999;stroke-width:3" />
<path d="M1018.75,11.24c1.12,0.51,1.61,1.44,1.75,2.03c1.25,5.36,2,8.87,2.5,10.81" style="fill:none;stroke:#999;stroke-width:3" />
<path d="M1047.1,8.75c0.35,0.81,0.48,1.89,0.17,2.9c-1.47,4.79-1.85,5.86-3.52,10.65" style="fill:none;stroke:#999;stroke-width:3" />
<path d="M1012.02,29.46c0.83,0.83,1.34,1.91,1.44,2.49c0.67,4.05,2.17,9.88,2.76,13.77c0.28,1.85,0.47,3.13,0.47,3.23" style="fill:none;stroke:#999;stroke-width:3" />
<path d="M1014.0,31.03c7.62-1,29.26-3.43,36.36-4.1c3.47-0.33,5.81,0.17,5.12,4.22c-0.51,3-1.67,7.57-2.5,11.6c-0.28,1.35-0.67,2.5-0.94,3.36" style="fill:none;stroke:#999;stroke-width:3" />
<path d="M1015.98,38.88c7.39-0.76,33.3-3.4,37.48-3.4" style="fill:none;stroke:#999;stroke-width:3" />
<path d="M1017.93,47.34c9.82-1.09,23.82-2.57,33.18-2.84" style="fill:none;stroke:#999;stroke-width:3" />
<path d="M995.88,59.24c2.8,0.57,5.91,0.47,8.74,0.25c18.6-1.49,46.42-3.25,61.88-4.08c2.72-0.15,5.75-0.03,8.75,0.5" style="fill:none;stroke:#999;stroke-width:3" />
<path d="M1028.13,49.43c-0.1,1.18-0.35,2.46-0.89,3.35C1019.88,65 1010.5,75.25 993.25,84.5" style="fill:none;stroke:#999;stroke-width:3" />
<path d="M1042.25,52.35c5.07,2.24,17.82,15.84,25.89,22.48c1.49,1.22,4.73,3.29,7.36,4.57" style="fill:none;stroke:black;stroke-width:3" />
<circle cx="1042.25" cy="52.35" r="5" stroke-width="0" fill="#FF2A00" opacity="0.7" />
<path d="M1111.5,18.06c3,0.57,5.48,0.35,8.11,0.16c12.18-0.92,34.11-2.52,47.14-2.83c2.68-0.06,5.35-0.16,7.99,0.38" style="fill:none;stroke:#999;stroke-width:3" />
<path d="M1127.75,11.24c1.12,0.51,1.61,1.44,1.75,2.03c1.25,5.36,2,8.87,2.5,10.81" style="fill:none;stroke:#999;stroke-width:3" />
<path d="M1156.1,8.75c0.35,0.81,0.48,1.89,0.17,2.9c-1.47,4.79-1.85,5.86-3.52,10.65" style="fill:none;stroke:#999;stroke-width:3" />
<path d="M1121.02,29.46c0.83,0.83,1.34,1.91,1.44,2.49c0.67,4.05,2.17,9.88,2.76,13.77c0.28,1.85,0.47,3.13,0.47,3.23" style="fill:none;stroke:#999;stroke-width:3" />
<path d="M1123.0,31.03c7.62-1,29.26-3.43,36.36-4.1c3.47-0.33,5.81,0.17,5.12,4.22c-0.51,3-1.67,7.57-2.5,11.6c-0.28,1.35-0.67,2.5-0.94,3.36" style="fill:none;stroke:#999;stroke-width:3" />
<path d="M1124.98,38.88c7.39-0.76,33.3-3.4,37.48-3.4" style="fill:none;stroke:#999;stroke-width:3" />
<path d="M1126.9299999999998,47.34c9.82-1.09,23.82-2.57,33.18-2.84" style="fill:none;stroke:#999;stroke-width:3" />
<path d="M1104.88,59.24c2.8,0.57,5.91,0.47,8.74,0.25c18.6-1.49,46.42-3.25,61.88-4.08c2.72-0.15,5.75-0.03,8.75,0.5" style="fill:none;stroke:#999;stroke-width:3" />
<path d="M1137.13,49.43c-0.1,1.18-0.35,2.46-0.89,3.35C1128.88,65 1119.5,75.25 1102.25,84.5" style="fill:none;stroke:#999;stroke-width:3" />
<path d="M1151.25,52.35c5.07,2.24,17.82,15.84,25.89,22.48c1.49,1.22,4.73,3.29,7.36,4.57" style="fill:none;stroke:#999;stroke-width:3" />
<path d="M1127.99,74.8c0.73,0.73,1,1.83,1,2.54c0,0.42,0,8.45-0.08,13.67c-0.02,1.58-0.05,2.9-0.07,3.67" style="fill:none;stroke:black;stroke-width:3" />
<circle cx="1127.99" cy="74.8" r="5" stroke-width="0" fill="#FF2A00" opacity="0.7" />
<path d="M1220.5,18.06c3,0.57,5.48,0.35,8.11,0.16c12.18-0.92,34.11-2.52,47.14-2.83c2.68-0.06,5.35-0.16,7.99,0.38" style="fill:none;stroke:#999;stroke-width:3" />
<path d="M1236.75,11.24c1.12,0.51,1.61,1.44,1.75,2.03c1.25,5.36,2,8.87,2.5,10.81" style="fill:none;stroke:#999;stroke-width:3" />
<path d="M1265.1,8.75c0.35,0.81,0.48,1.89,0.17,2.9c-1.47,4.79-1.85,5.86-3.52,10.65" style="fill:none;stroke:#999;stroke-width:3" />
<path d="M1230.02,29.46c0.83,0.83,1.34,1.91,1.44,2.49c0.67,4.05,2.17,9.88,2.76,13.77c0.28,1.85,0.47,3.13,0.47,3.23" style="fill:none;stroke:#999;stroke-width:3" />
<path d="M1232.0,31.03c7.62-1,29.26-3.43,36.36-4.1c3.47-0.33,5.81,0.17,5.12,4.22c-0.51,3-1.67,7.57-2.5,11.6c-0.28,1.35-0.67,2.5-0.94,3.36" style="fill:none;stroke:#999;stroke-width:3" />
<path d="M1233.98,38.88c7.39-0.76,33.3-3.4,37.48-3.4" style="fill:none;stroke:#999;stroke-width:3" />
<path d="M1235.9299999999998,47.34c9.82-1.09,23.82-2.57,33.18-2.84" style="fill:none;stroke:#999;stroke-width:3" />
<path d="M1213.88,59.24c2.8,0.57,5.91,0.47,8.74,0.25c18.6-1.49,46.42-3.25,61.88-4.08c2.72-0.15,5.75-0.03,8.75,0.5" style="fill:none;stroke:#999;stroke-width:3" />
<path d="M1246.13,49.43c-0.1,1.18-0.35,2.46-0.89,3.35C1237.88,65 1228.5,75.25 1211.25,84.5" style="fill:none;stroke:#999;stroke-width:3" />
<path d="M1260.25,52.35c5.07,2.24,17.82,15.84,25.89,22.48c1.49,1.22,4.73,3.29,7.36,4.57" style="fill:none;stroke:#999;stroke-width:3" />
<path d="M1236.99,74.8c0.73,0.73,1,1.83,1,2.54c0,0.42,0,8.45-0.08,13.67c-0.02,1.58-0.05,2.9-0.07,3.67" style="fill:none;stroke:#999;stroke-width:3" />
<path d="M1239.14,75.99c4.23-0.61,27.63-3.96,29.75-4.08c2.49-0.14,2.91,1.35,2.94,2.58c0.17,6.76-0.08,12.01-1.04,17.32c-0.79,4.38-3.73,0.6-4.93-0.9" style="fill:none;stroke:black;stroke-width:3" />
<circle cx="1239.14" cy="75.99" r="5" stroke-width="0" fill="#FF2A00" opacity="0.7" />
<path d="M1329.5,18.06c3,0.57,5.48,0.35,8.11,0.16c12.18-0.92,34.11-2.52,47.14-2.83c2.68-0.06,5.35-0.16,7.99,0.38" style="fill:none;stroke:#999;stroke-width:3" />
<path d="M1345.75,11.24c1.12,0.51,1.61,1.44,1.75,2.03c1.25,5.36,2,8.87,2.5,10.81" style="fill:none;stroke:#999;stroke-width:3" />
<path d="M1374.1,8.75c0.35,0.81,0.48,1.89,0.17,2.9c-1.47,4.79-1.85,5.86-3.52,10.65" style="fill:none;stroke:#999;stroke-width:3" />
<path d="M1339.02,29.46c0.83,0.83,1.34,1.91,1.44,2.49c0.67,4.05,2.17,9.88,2.76,13.77c0.28,1.85,0.47,3.13,0.47,3.23" style="fill:none;stroke:#999;stroke-width:3" />
<path d="M1341.0,31.03c7.62-1,29.26-3.43,36.36-4.1c3.47-0.33,5.81,0.17,5.12,4.22c-0.51,3-1.67,7.57-2.5,11.6c-0.28,1.35-0.67,2.5-0.94,3.36" style="fill:none;stroke:#999;stroke-width:3" />
<path d="M1342.98,38.88c7.39-0.76,33.3-3.4,37.48-3.4" style="fill:none;stroke:#999;stroke-width:3" />
<path d="M1344.9299999999998,47.34c9.82-1.09,23.82-2.57,33.18-2.84" style="fill:none;stroke:#999;stroke-width:3" />
<path d="M1322.88,59.24c2.8,0.57,5.91,0.47,8.74,0.25c18.6-1.49,46.42-3.25,61.88-4.08c2.72-0.15,5.75-0.03,8.75,0.5" style="fill:none;stroke:#999;stroke-width:3" />
<path d="M1355.13,49.43c-0.1,1.18-0.35,2.46-0.89,3.35C1346.88,65 1337.5,75.25 1320.25,84.5" style="fill:none;stroke:#999;stroke-width:3" />
<path d="M1369.25,52.35c5.07,2.24,17.82,15.84,25.89,22.48c1.49,1.22,4.73,3.29,7.36,4.57" style="fill:none;stroke:#999;stroke-width:3" />
<path d="M1345.99,74.8c0.73,0.73,1,1.83,1,2.54c0,0.42,0,8.45-0.08,13.67c-0.02,1.58-0.05,2.9-0.07,3.67" style="fill:none;stroke:#999;stroke-width:3" />
<path d="M1348.14,75.99c4.23-0.61,27.63-3.96,29.75-4.08c2.49-0.14,2.91,1.35,2.94,2.58c0.17,6.76-0.08,12.01-1.04,17.32c-0.79,4.38-3.73,0.6-4.93-0.9" style="fill:none;stroke:#999;stroke-width:3" />
<path d="M1361.88,63.88c0.99,0.99,1.24,2.24,1.24,3.45c0,2.17-0.02,20.18-0.11,29.42c-0.02,1.97-0.04,3.45-0.06,4.13" style="fill:none;stroke:black;stroke-width:3" />
<circle cx="1361.88" cy="63.88" r="5" stroke-width="0" fill="#FF2A00" opacity="0.7" />
</svg>