<!-- 05e9a -->
<svg width="872px" height="109px" viewBox="0 0 872px 109px" xmlns="http://www.w3.org/2000/svg" xmlns:xlink="http://www.w3.org/1999/xlink" xml:space="preserve" version="1.1"  baseProfile="full">
<line x1="1" y1="1" x2="871" y2="1" style="stroke:#ddd;stroke-width:2" />
<line x1="1" y1="1" x2="1" y2="108" style="stroke:#ddd;stroke-width:2" />
<line x1="1" y1="108" x2="871" y2="108" style="stroke:#ddd;stroke-width:2" />
<line x1="871" y1="1" x2="871" y2="108" style="stroke:#ddd;stroke-width:2" />
<line x1="109" y1="1" x2="109" y2="108" style="stroke:#ddd;stroke-width:2" />
<line x1="218" y1="1" x2="218" y2="108" style="stroke:#ddd;stroke-width:2" />
<line x1="327" y1="1" x2="327" y2="108" style="stroke:#ddd;stroke-width:2" />
<line x1="436" y1="1" x2="436" y2="108" style="stroke:#ddd;stroke-width:2" />
<line x1="545" y1="1" x2="545" y2="108" style="stroke:#ddd;stroke-width:2" />
<line x1="654" y1="1" x2="654" y2="108" style="stroke:#ddd;stroke-width:2" />
<line x1="763" y1="1" x2="763" y2="108" style="stroke:#ddd;stroke-width:2" />
<line x1="1" y1="54" x2="871" y2="54" style="stroke:#ddd;stroke-width:2;stroke-dasharray:3 3" />
<line x1="55" y1="1" x2="55" y2="108" style="stroke:#ddd;stroke-width:2;stroke-dasharray:3 3" />
<line x1="164" y1="1" x2="164" y2="108" style="stroke:#ddd;stroke-width:2;stroke-dasharray:3 3" />
<line x1="273" y1="1" x2="273" y2="108" style="stroke:#ddd;stroke-width:2;stroke-dasharray:3 3" />
<line x1="382" y1="1" x2="382" y2="108" style="stroke:#ddd;stroke-width:2;stroke-dasharray:3 3" />
<line x1="491" y1="1" x2="491" y2="108" style="stroke:#ddd;stroke-width:2;stroke-dasharray:3 3" />
<line x1="600" y1="1" x2="600" y2="108" style="stroke:#ddd;stroke-width:2;stroke-dasharray:3 3" />
<line x1="709" y1="1" x2="709" y2="108" style="stroke:#ddd;stroke-width:2;stroke-dasharray:3 3" />
<line x1="818" y1="1" x2="818" y2="108" style="stroke:#ddd;stroke-width:2;stroke-dasharray:3 3" />
<path d="M53.81,12.38c0.84,0.84,1.26,2.37,1.26,3.9C55.07,17.07 55.0,21 55.0,24" style="fill:none;stroke:black;stroke-width:3" />
<circle cx="53.81" cy="12.38" r="5" stroke-width="0" fill="#FF2A00" opacity="0.7" />
<path d="M162.81,12.38c0.84,0.84,1.26,2.37,1.26,3.9C164.07,17.07 164.0,21 164.0,24" style="fill:none;stroke:#999;stroke-width:3" />
<path d="M133.13,26.73c2.75,0.77,6.22,1.17,9.39,0.82c15.86-1.79,30.87-3.38,44.48-4.25c3.39-0.16,6.77,0.01,10.13,0.53" style="fill:none;stroke:black;stroke-width:3" />
<circle cx="133.13" cy="26.73" r="5" stroke-width="0" fill="#FF2A00" opacity="0.7" />
<path d="M271.81,12.38c0.84,0.84,1.26,2.37,1.26,3.9C273.07,17.07 273.0,21 273.0,24" style="fill:none;stroke:#999;stroke-width:3" />
<path d="M242.13,26.73c2.75,0.77,6.22,1.17,9.39,0.82c15.86-1.79,30.87-3.38,44.48-4.25c3.39-0.16,6.77,0.01,10.13,0.53" style="fill:none;stroke:#999;stroke-width:3" />
<path d="M244.49,28c0.94,0.94,0.98,2.5,0.9,4.21c-0.76,15.91-4.76,41.79-16.83,59" style="fill:none;stroke:black;stroke-width:3" />
<circle cx="244.49" cy="28.0" r="5" stroke-width="0" fill="#FF2A00" opacity="0.7" />
<path d="M380.81,12.38c0.84,0.84,1.26,2.37,1.26,3.9C382.07,17.07 382.0,21 382.0,24" style="fill:none;stroke:#999;stroke-width:3" />
<path d="M351.13,26.73c2.75,0.77,6.22,1.17,9.39,0.82c15.86-1.79,30.87-3.38,44.48-4.25c3.39-0.16,6.77,0.01,10.13,0.53" style="fill:none;stroke:#999;stroke-width:3" />
<path d="M353.49,28c0.94,0.94,0.98,2.5,0.9,4.21c-0.76,15.91-4.76,41.79-16.83,59" style="fill:none;stroke:#999;stroke-width:3" />
<path d="M365.67,42.75c2.87,0.64,5.74,0.67,8.61,0.09c9.46-1.09,19.96-3.01,27.6-3.3c4.14-0.16,6.28,1.08,5.51,5.46c-0.96,5.54-1.89,11-3.34,19.25" style="fill:none;stroke:black;stroke-width:3" />
<circle cx="365.67" cy="42.75" r="5" stroke-width="0" fill="#FF2A00" opacity="0.7" />
<path d="M489.81,12.38c0.84,0.84,1.26,2.37,1.26,3.9C491.07,17.07 491.0,21 491.0,24" style="fill:none;stroke:#999;stroke-width:3" />
<path d="M460.13,26.73c2.75,0.77,6.22,1.17,9.39,0.82c15.86-1.79,30.87-3.38,44.48-4.25c3.39-0.16,6.77,0.01,10.13,0.53" style="fill:none;stroke:#999;stroke-width:3" />
<path d="M462.49,28c0.94,0.94,0.98,2.5,0.9,4.21c-0.76,15.91-4.76,41.79-16.83,59" style="fill:none;stroke:#999;stroke-width:3" />
<path d="M474.67,42.75c2.87,0.64,5.74,0.67,8.61,0.09c9.46-1.09,19.96-3.01,27.6-3.3c4.14-0.16,6.28,1.08,5.51,5.46c-0.96,5.54-1.89,11-3.34,19.25" style="fill:none;stroke:#999;stroke-width:3" />
<path d="M467.25,54.5c3.34,0.68,6.62,0.32,10.01-0.05c13.73-1.49,29.99-2.95,42.38-3.42c3.28-0.13,6.44-0.36,9.62,0.48" style="fill:none;stroke:black;stroke-width:3" />
<circle cx="467.25" cy="54.5" r="5" stroke-width="0" fill="#FF2A00" opacity="0.7" />
<path d="M598.81,12.38c0.84,0.84,1.26,2.37,1.26,3.9C600.0699999999999,17.07 600.0,21 600.0,24" style="fill:none;stroke:#999;stroke-width:3" />
<path d="M569.13,26.73c2.75,0.77,6.22,1.17,9.39,0.82c15.86-1.79,30.87-3.38,44.48-4.25c3.39-0.16,6.77,0.01,10.13,0.53" style="fill:none;stroke:#999;stroke-width:3" />
<path d="M571.49,28c0.94,0.94,0.98,2.5,0.9,4.21c-0.76,15.91-4.76,41.79-16.83,59" style="fill:none;stroke:#999;stroke-width:3" />
<path d="M583.6700000000001,42.75c2.87,0.64,5.74,0.67,8.61,0.09c9.46-1.09,19.96-3.01,27.6-3.3c4.14-0.16,6.28,1.08,5.51,5.46c-0.96,5.54-1.89,11-3.34,19.25" style="fill:none;stroke:#999;stroke-width:3" />
<path d="M576.25,54.5c3.34,0.68,6.62,0.32,10.01-0.05c13.73-1.49,29.99-2.95,42.38-3.42c3.28-0.13,6.44-0.36,9.62,0.48" style="fill:none;stroke:#999;stroke-width:3" />
<path d="M581.84,67.69c3.04,0.69,6.05,0.41,9.16,0.13c9.44-0.85,18.07-1.84,26.75-2.39c2.33-0.23,4.66-0.22,7,0.02" style="fill:none;stroke:black;stroke-width:3" />
<circle cx="581.84" cy="67.69" r="5" stroke-width="0" fill="#FF2A00" opacity="0.7" />
<path d="M707.81,12.38c0.84,0.84,1.26,2.37,1.26,3.9C709.0699999999999,17.07 709.0,21 709.0,24" style="fill:none;stroke:#999;stroke-width:3" />
<path d="M678.13,26.73c2.75,0.77,6.22,1.17,9.39,0.82c15.86-1.79,30.87-3.38,44.48-4.25c3.39-0.16,6.77,0.01,10.13,0.53" style="fill:none;stroke:#999;stroke-width:3" />
<path d="M680.49,28c0.94,0.94,0.98,2.5,0.9,4.21c-0.76,15.91-4.76,41.79-16.83,59" style="fill:none;stroke:#999;stroke-width:3" />
<path d="M692.6700000000001,42.75c2.87,0.64,5.74,0.67,8.61,0.09c9.46-1.09,19.96-3.01,27.6-3.3c4.14-0.16,6.28,1.08,5.51,5.46c-0.96,5.54-1.89,11-3.34,19.25" style="fill:none;stroke:#999;stroke-width:3" />
<path d="M685.25,54.5c3.34,0.68,6.62,0.32,10.01-0.05c13.73-1.49,29.99-2.95,42.38-3.42c3.28-0.13,6.44-0.36,9.62,0.48" style="fill:none;stroke:#999;stroke-width:3" />
<path d="M690.84,67.69c3.04,0.69,6.05,0.41,9.16,0.13c9.44-0.85,18.07-1.84,26.75-2.39c2.33-0.23,4.66-0.22,7,0.02" style="fill:none;stroke:#999;stroke-width:3" />
<path d="M711.51,30.25c0.93,0.93,1.2,2.38,1.3,4.22c2.44,43.41-5.31,50.41-35.31,62.78" style="fill:none;stroke:black;stroke-width:3" />
<circle cx="711.51" cy="30.25" r="5" stroke-width="0" fill="#FF2A00" opacity="0.7" />
<path d="M816.81,12.38c0.84,0.84,1.26,2.37,1.26,3.9C818.0699999999999,17.07 818.0,21 818.0,24" style="fill:none;stroke:#999;stroke-width:3" />
<path d="M787.13,26.73c2.75,0.77,6.22,1.17,9.39,0.82c15.86-1.79,30.87-3.38,44.48-4.25c3.39-0.16,6.77,0.01,10.13,0.53" style="fill:none;stroke:#999;stroke-width:3" />
<path d="M789.49,28c0.94,0.94,0.98,2.5,0.9,4.21c-0.76,15.91-4.76,41.79-16.83,59" style="fill:none;stroke:#999;stroke-width:3" />
<path d="M801.6700000000001,42.75c2.87,0.64,5.74,0.67,8.61,0.09c9.46-1.09,19.96-3.01,27.6-3.3c4.14-0.16,6.28,1.08,5.51,5.46c-0.96,5.54-1.89,11-3.34,19.25" style="fill:none;stroke:#999;stroke-width:3" />
<path d="M794.25,54.5c3.34,0.68,6.62,0.32,10.01-0.05c13.73-1.49,29.99-2.95,42.38-3.42c3.28-0.13,6.44-0.36,9.62,0.48" style="fill:none;stroke:#999;stroke-width:3" />
<path d="M799.84,67.69c3.04,0.69,6.05,0.41,9.16,0.13c9.44-0.85,18.07-1.84,26.75-2.39c2.33-0.23,4.66-0.22,7,0.02" style="fill:none;stroke:#999;stroke-width:3" />
<path d="M820.51,30.25c0.93,0.93,1.2,2.38,1.3,4.22c2.44,43.41-5.31,50.41-35.31,62.78" style="fill:none;stroke:#999;stroke-width:3" />
<path d="M821.75,69.12c3.26,3.74,12.82,12.45,20.31,19.07C846.38,92 849.38,94 854.0,95.5" style="fill:none;stroke:black;stroke-width:3" />
<circle cx="821.75" cy="69.12" r="5" stroke-width="0" fill="#FF2A00" opacity="0.7" />
</svg>