<!-- 05ea6 -->
<svg width="981px" height="109px" viewBox="0 0 981px 109px" xmlns="http://www.w3.org/2000/svg" xmlns:xlink="http://www.w3.org/1999/xlink" xml:space="preserve" version="1.1"  baseProfile="full">
<line x1="1" y1="1" x2="980" y2="1" style="stroke:#ddd;stroke-width:2" />
<line x1="1" y1="1" x2="1" y2="108" style="stroke:#ddd;stroke-width:2" />
<line x1="1" y1="108" x2="980" y2="108" style="stroke:#ddd;stroke-width:2" />
<line x1="980" y1="1" x2="980" y2="108" style="stroke:#ddd;stroke-width:2" />
<line x1="109" y1="1" x2="109" y2="108" style="stroke:#ddd;stroke-width:2" />
<line x1="218" y1="1" x2="218" y2="108" style="stroke:#ddd;stroke-width:2" />
<line x1="327" y1="1" x2="327" y2="108" style="stroke:#ddd;stroke-width:2" />
<line x1="436" y1="1" x2="436" y2="108" style="stroke:#ddd;stroke-width:2" />
<line x1="545" y1="1" x2="545" y2="108" style="stroke:#ddd;stroke-width:2" />
<line x1="654" y1="1" x2="654" y2="108" style="stroke:#ddd;stroke-width:2" />
<line x1="763" y1="1" x2="763" y2="108" style="stroke:#ddd;stroke-width:2" />
<line x1="872" y1="1" x2="872" y2="108" style="stroke:#ddd;stroke-width:2" />
<line x1="1" y1="54" x2="980" y2="54" style="stroke:#ddd;stroke-width:2;stroke-dasharray:3 3" />
<line x1="55" y1="1" x2="55" y2="108" style="stroke:#ddd;stroke-width:2;stroke-dasharray:3 3" />
<line x1="164" y1="1" x2="164" y2="108" style="stroke:#ddd;stroke-width:2;stroke-dasharray:3 3" />
<line x1="273" y1="1" x2="273" y2="108" style="stroke:#ddd;stroke-width:2;stroke-dasharray:3 3" />
<line x1="382" y1="1" x2="382" y2="108" style="stroke:#ddd;stroke-width:2;stroke-dasharray:3 3" />
<line x1="491" y1="1" x2="491" y2="108" style="stroke:#ddd;stroke-width:2;stroke-dasharray:3 3" />
<line x1="600" y1="1" x2="600" y2="108" style="stroke:#ddd;stroke-width:2;stroke-dasharray:3 3" />
<line x1="709" y1="1" x2="709" y2="108" style="stroke:#ddd;stroke-width:2;stroke-dasharray:3 3" />
<line x1="818" y1="1" x2="818" y2="108" style="stroke:#ddd;stroke-width:2;stroke-dasharray:3 3" />
<line x1="927" y1="1" x2="927" y2="108" style="stroke:#ddd;stroke-width:2;stroke-dasharray:3 3" />
<path d="M54.81,11.63c0.97,0.97,1.51,1.99,1.51,3.15c0,1.71-0.07,5.46-0.07,8.71" style="fill:none;stroke:black;stroke-width:3" />
<circle cx="54.81" cy="11.63" r="5" stroke-width="0" fill="#FF2A00" opacity="0.7" />
<path d="M163.81,11.63c0.97,0.97,1.51,1.99,1.51,3.15c0,1.71-0.07,5.46-0.07,8.71" style="fill:none;stroke:#999;stroke-width:3" />
<path d="M130.63,26.73c2.75,0.4,5.81,0.21,7.86,0.04c15.39-1.27,37.89-3.64,52.47-4.73c3.4-0.25,5.47,0.01,7.17,0.28" style="fill:none;stroke:black;stroke-width:3" />
<circle cx="130.63" cy="26.73" r="5" stroke-width="0" fill="#FF2A00" opacity="0.7" />
<path d="M272.81,11.63c0.97,0.97,1.51,1.99,1.51,3.15c0,1.71-0.07,5.46-0.07,8.71" style="fill:none;stroke:#999;stroke-width:3" />
<path d="M239.63,26.73c2.75,0.4,5.81,0.21,7.86,0.04c15.39-1.27,37.89-3.64,52.47-4.73c3.4-0.25,5.47,0.01,7.17,0.28" style="fill:none;stroke:#999;stroke-width:3" />
<path d="M244.24,27.75c0.88,0.88,1.19,2,1.16,3.63c-0.53,29.74-5.53,50.12-16.6,65.09" style="fill:none;stroke:black;stroke-width:3" />
<circle cx="244.24" cy="27.75" r="5" stroke-width="0" fill="#FF2A00" opacity="0.7" />
<path d="M381.81,11.63c0.97,0.97,1.51,1.99,1.51,3.15c0,1.71-0.07,5.46-0.07,8.71" style="fill:none;stroke:#999;stroke-width:3" />
<path d="M348.63,26.73c2.75,0.4,5.81,0.21,7.86,0.04c15.39-1.27,37.89-3.64,52.47-4.73c3.4-0.25,5.47,0.01,7.17,0.28" style="fill:none;stroke:#999;stroke-width:3" />
<path d="M353.24,27.75c0.88,0.88,1.19,2,1.16,3.63c-0.53,29.74-5.53,50.12-16.6,65.09" style="fill:none;stroke:#999;stroke-width:3" />
<path d="M360.0,41.46c2.62,0.54,5.58,0.22,8.25-0.01c9.59-0.84,32.97-3.49,42-4.09c2.38-0.16,4.66-0.1,7,0.33" style="fill:none;stroke:black;stroke-width:3" />
<circle cx="360.0" cy="41.46" r="5" stroke-width="0" fill="#FF2A00" opacity="0.7" />
<path d="M490.81,11.63c0.97,0.97,1.51,1.99,1.51,3.15c0,1.71-0.07,5.46-0.07,8.71" style="fill:none;stroke:#999;stroke-width:3" />
<path d="M457.63,26.73c2.75,0.4,5.81,0.21,7.86,0.04c15.39-1.27,37.89-3.64,52.47-4.73c3.4-0.25,5.47,0.01,7.17,0.28" style="fill:none;stroke:#999;stroke-width:3" />
<path d="M462.24,27.75c0.88,0.88,1.19,2,1.16,3.63c-0.53,29.74-5.53,50.12-16.6,65.09" style="fill:none;stroke:#999;stroke-width:3" />
<path d="M469.0,41.46c2.62,0.54,5.58,0.22,8.25-0.01c9.59-0.84,32.97-3.49,42-4.09c2.38-0.16,4.66-0.1,7,0.33" style="fill:none;stroke:#999;stroke-width:3" />
<path d="M482.35,31.39c1.03,0.86,1.59,2.29,1.65,3.13c0.21,2.95,0.7,11.1,1.07,17.85c0.07,1.19,0.13,2.33,0.19,3.38" style="fill:none;stroke:black;stroke-width:3" />
<circle cx="482.35" cy="31.39" r="5" stroke-width="0" fill="#FF2A00" opacity="0.7" />
<path d="M599.81,11.63c0.97,0.97,1.51,1.99,1.51,3.15c0,1.71-0.07,5.46-0.07,8.71" style="fill:none;stroke:#999;stroke-width:3" />
<path d="M566.63,26.73c2.75,0.4,5.81,0.21,7.86,0.04c15.39-1.27,37.89-3.64,52.47-4.73c3.4-0.25,5.47,0.01,7.17,0.28" style="fill:none;stroke:#999;stroke-width:3" />
<path d="M571.24,27.75c0.88,0.88,1.19,2,1.16,3.63c-0.53,29.74-5.53,50.12-16.6,65.09" style="fill:none;stroke:#999;stroke-width:3" />
<path d="M578.0,41.46c2.62,0.54,5.58,0.22,8.25-0.01c9.59-0.84,32.97-3.49,42-4.09c2.38-0.16,4.66-0.1,7,0.33" style="fill:none;stroke:#999;stroke-width:3" />
<path d="M591.35,31.39c1.03,0.86,1.59,2.29,1.65,3.13c0.21,2.95,0.7,11.1,1.07,17.85c0.07,1.19,0.13,2.33,0.19,3.38" style="fill:none;stroke:#999;stroke-width:3" />
<path d="M614.71,29.25c0.77,0.77,1.31,2.05,1.15,2.88c-0.73,3.87-1.61,10.62-2.63,18.32" style="fill:none;stroke:black;stroke-width:3" />
<circle cx="614.71" cy="29.25" r="5" stroke-width="0" fill="#FF2A00" opacity="0.7" />
<path d="M708.81,11.63c0.97,0.97,1.51,1.99,1.51,3.15c0,1.71-0.07,5.46-0.07,8.71" style="fill:none;stroke:#999;stroke-width:3" />
<path d="M675.63,26.73c2.75,0.4,5.81,0.21,7.86,0.04c15.39-1.27,37.89-3.64,52.47-4.73c3.4-0.25,5.47,0.01,7.17,0.28" style="fill:none;stroke:#999;stroke-width:3" />
<path d="M680.24,27.75c0.88,0.88,1.19,2,1.16,3.63c-0.53,29.74-5.53,50.12-16.6,65.09" style="fill:none;stroke:#999;stroke-width:3" />
<path d="M687.0,41.46c2.62,0.54,5.58,0.22,8.25-0.01c9.59-0.84,32.97-3.49,42-4.09c2.38-0.16,4.66-0.1,7,0.33" style="fill:none;stroke:#999;stroke-width:3" />
<path d="M700.35,31.39c1.03,0.86,1.59,2.29,1.65,3.13c0.21,2.95,0.7,11.1,1.07,17.85c0.07,1.19,0.13,2.33,0.19,3.38" style="fill:none;stroke:#999;stroke-width:3" />
<path d="M723.71,29.25c0.77,0.77,1.31,2.05,1.15,2.88c-0.73,3.87-1.61,10.62-2.63,18.32" style="fill:none;stroke:#999;stroke-width:3" />
<path d="M704.26,53.33c6.43-0.67,9.92-1.04,16.62-1.65c1.11-0.1,2.3-0.21,3.61-0.33" style="fill:none;stroke:black;stroke-width:3" />
<circle cx="704.26" cy="53.33" r="5" stroke-width="0" fill="#FF2A00" opacity="0.7" />
<path d="M817.81,11.63c0.97,0.97,1.51,1.99,1.51,3.15c0,1.71-0.07,5.46-0.07,8.71" style="fill:none;stroke:#999;stroke-width:3" />
<path d="M784.63,26.73c2.75,0.4,5.81,0.21,7.86,0.04c15.39-1.27,37.89-3.64,52.47-4.73c3.4-0.25,5.47,0.01,7.17,0.28" style="fill:none;stroke:#999;stroke-width:3" />
<path d="M789.24,27.75c0.88,0.88,1.19,2,1.16,3.63c-0.53,29.74-5.53,50.12-16.6,65.09" style="fill:none;stroke:#999;stroke-width:3" />
<path d="M796.0,41.46c2.62,0.54,5.58,0.22,8.25-0.01c9.59-0.84,32.97-3.49,42-4.09c2.38-0.16,4.66-0.1,7,0.33" style="fill:none;stroke:#999;stroke-width:3" />
<path d="M809.35,31.39c1.03,0.86,1.59,2.29,1.65,3.13c0.21,2.95,0.7,11.1,1.07,17.85c0.07,1.19,0.13,2.33,0.19,3.38" style="fill:none;stroke:#999;stroke-width:3" />
<path d="M832.71,29.25c0.77,0.77,1.31,2.05,1.15,2.88c-0.73,3.87-1.61,10.62-2.63,18.32" style="fill:none;stroke:#999;stroke-width:3" />
<path d="M813.26,53.33c6.43-0.67,9.92-1.04,16.62-1.65c1.11-0.1,2.3-0.21,3.61-0.33" style="fill:none;stroke:#999;stroke-width:3" />
<path d="M805.11,64.16c1.89,0.47,3.2,0.41,6.22,0.01c3.02-0.4,17.29-3.9,19.33-4.47c2.97-0.83,4.47,1.05,3.08,3.15C822.9,79.33 807.38,92.88 789.68,98.75" style="fill:none;stroke:black;stroke-width:3" />
<circle cx="805.11" cy="64.16" r="5" stroke-width="0" fill="#FF2A00" opacity="0.7" />
<path d="M926.81,11.63c0.97,0.97,1.51,1.99,1.51,3.15c0,1.71-0.07,5.46-0.07,8.71" style="fill:none;stroke:#999;stroke-width:3" />
<path d="M893.63,26.73c2.75,0.4,5.81,0.21,7.86,0.04c15.39-1.27,37.89-3.64,52.47-4.73c3.4-0.25,5.47,0.01,7.17,0.28" style="fill:none;stroke:#999;stroke-width:3" />
<path d="M898.24,27.75c0.88,0.88,1.19,2,1.16,3.63c-0.53,29.74-5.53,50.12-16.6,65.09" style="fill:none;stroke:#999;stroke-width:3" />
<path d="M905.0,41.46c2.62,0.54,5.58,0.22,8.25-0.01c9.59-0.84,32.97-3.49,42-4.09c2.38-0.16,4.66-0.1,7,0.33" style="fill:none;stroke:#999;stroke-width:3" />
<path d="M918.35,31.39c1.03,0.86,1.59,2.29,1.65,3.13c0.21,2.95,0.7,11.1,1.07,17.85c0.07,1.19,0.13,2.33,0.19,3.38" style="fill:none;stroke:#999;stroke-width:3" />
<path d="M941.71,29.25c0.77,0.77,1.31,2.05,1.15,2.88c-0.73,3.87-1.61,10.62-2.63,18.32" style="fill:none;stroke:#999;stroke-width:3" />
<path d="M922.26,53.33c6.43-0.67,9.92-1.04,16.62-1.65c1.11-0.1,2.3-0.21,3.61-0.33" style="fill:none;stroke:#999;stroke-width:3" />
<path d="M914.11,64.16c1.89,0.47,3.2,0.41,6.22,0.01c3.02-0.4,17.29-3.9,19.33-4.47c2.97-0.83,4.47,1.05,3.08,3.15C931.9,79.33 916.38,92.88 898.68,98.75" style="fill:none;stroke:#999;stroke-width:3" />
<path d="M912.91,69.78c6.56,0.2,24.27,16.4,39.39,24.35c2.89,1.52,5.95,3.07,9.2,3.61" style="fill:none;stroke:black;stroke-width:3" />
<circle cx="912.91" cy="69.78" r="5" stroke-width="0" fill="#FF2A00" opacity="0.7" />
</svg>