<!-- 05efb -->
<svg width="981px" height="109px" viewBox="0 0 981px 109px" xmlns="http://www.w3.org/2000/svg" xmlns:xlink="http://www.w3.org/1999/xlink" xml:space="preserve" version="1.1"  baseProfile="full">
<line x1="1" y1="1" x2="980" y2="1" style="stroke:#ddd;stroke-width:2" />
<line x1="1" y1="1" x2="1" y2="108" style="stroke:#ddd;stroke-width:2" />
<line x1="1" y1="108" x2="980" y2="108" style="stroke:#ddd;stroke-width:2" />
<line x1="980" y1="1" x2="980" y2="108" style="stroke:#ddd;stroke-width:2" />
<line x1="109" y1="1" x2="109" y2="108" style="stroke:#ddd;stroke-width:2" />
<line x1="218" y1="1" x2="218" y2="108" style="stroke:#ddd;stroke-width:2" />
<line x1="327" y1="1" x2="327" y2="108" style="stroke:#ddd;stroke-width:2" />
<line x1="436" y1="1" x2="436" y2="108" style="stroke:#ddd;stroke-width:2" />
<line x1="545" y1="1" x2="545" y2="108" style="stroke:#ddd;stroke-width:2" />
<line x1="654" y1="1" x2="654" y2="108" style="stroke:#ddd;stroke-width:2" />
<line x1="763" y1="1" x2="763" y2="108" style="stroke:#ddd;stroke-width:2" />
<line x1="872" y1="1" x2="872" y2="108" style="stroke:#ddd;stroke-width:2" />
<line x1="1" y1="54" x2="980" y2="54" style="stroke:#ddd;stroke-width:2;stroke-dasharray:3 3" />
<line x1="55" y1="1" x2="55" y2="108" style="stroke:#ddd;stroke-width:2;stroke-dasharray:3 3" />
<line x1="164" y1="1" x2="164" y2="108" style="stroke:#ddd;stroke-width:2;stroke-dasharray:3 3" />
<line x1="273" y1="1" x2="273" y2="108" style="stroke:#ddd;stroke-width:2;stroke-dasharray:3 3" />
<line x1="382" y1="1" x2="382" y2="108" style="stroke:#ddd;stroke-width:2;stroke-dasharray:3 3" />
<line x1="491" y1="1" x2="491" y2="108" style="stroke:#ddd;stroke-width:2;stroke-dasharray:3 3" />
<line x1="600" y1="1" x2="600" y2="108" style="stroke:#ddd;stroke-width:2;stroke-dasharray:3 3" />
<line x1="709" y1="1" x2="709" y2="108" style="stroke:#ddd;stroke-width:2;stroke-dasharray:3 3" />
<line x1="818" y1="1" x2="818" y2="108" style="stroke:#ddd;stroke-width:2;stroke-dasharray:3 3" />
<line x1="927" y1="1" x2="927" y2="108" style="stroke:#ddd;stroke-width:2;stroke-dasharray:3 3" />
<path d="M49.5,21.97c0.95,0.95,1.19,1.9,1.24,3.23c0.56,14.21,0.91,22.7,1.23,31.68c0.11,3.14,0.22,6.34,0.33,9.88" style="fill:none;stroke:black;stroke-width:3" />
<circle cx="49.5" cy="21.97" r="5" stroke-width="0" fill="#FF2A00" opacity="0.7" />
<path d="M158.5,21.97c0.95,0.95,1.19,1.9,1.24,3.23c0.56,14.21,0.91,22.7,1.23,31.68c0.11,3.14,0.22,6.34,0.33,9.88" style="fill:none;stroke:#999;stroke-width:3" />
<path d="M160.25,23.25c10.48-1.23,25.76-2.19,33.75-2.94c3.25-0.31,5,0.57,4.78,4.04c-0.49,7.49-1.6,20.61-2.61,31.78c-0.33,3.7-0.66,7.18-0.95,10.18" style="fill:none;stroke:black;stroke-width:3" />
<circle cx="160.25" cy="23.25" r="5" stroke-width="0" fill="#FF2A00" opacity="0.7" />
<path d="M267.5,21.97c0.95,0.95,1.19,1.9,1.24,3.23c0.56,14.21,0.91,22.7,1.23,31.68c0.11,3.14,0.22,6.34,0.33,9.88" style="fill:none;stroke:#999;stroke-width:3" />
<path d="M269.25,23.25c10.48-1.23,25.76-2.19,33.75-2.94c3.25-0.31,5,0.57,4.78,4.04c-0.49,7.49-1.6,20.61-2.61,31.78c-0.33,3.7-0.66,7.18-0.95,10.18" style="fill:none;stroke:#999;stroke-width:3" />
<path d="M278.17,33.7c0.75,0.75,0.92,1.38,1.03,2.16c0.58,4.11,1.01,7.74,1.56,11.9c0.21,1.55,0.43,3.17,0.68,4.92" style="fill:none;stroke:black;stroke-width:3" />
<circle cx="278.17" cy="33.7" r="5" stroke-width="0" fill="#FF2A00" opacity="0.7" />
<path d="M376.5,21.97c0.95,0.95,1.19,1.9,1.24,3.23c0.56,14.21,0.91,22.7,1.23,31.68c0.11,3.14,0.22,6.34,0.33,9.88" style="fill:none;stroke:#999;stroke-width:3" />
<path d="M378.25,23.25c10.48-1.23,25.76-2.19,33.75-2.94c3.25-0.31,5,0.57,4.78,4.04c-0.49,7.49-1.6,20.61-2.61,31.78c-0.33,3.7-0.66,7.18-0.95,10.18" style="fill:none;stroke:#999;stroke-width:3" />
<path d="M387.17,33.7c0.75,0.75,0.92,1.38,1.03,2.16c0.58,4.11,1.01,7.74,1.56,11.9c0.21,1.55,0.43,3.17,0.68,4.92" style="fill:none;stroke:#999;stroke-width:3" />
<path d="M388.8,35.38c4.93-0.89,9.08-1.63,11.99-2.31c2.41-0.57,3.51,0.16,3.16,2.32c-0.73,4.53-1.13,7.26-1.92,12.44" style="fill:none;stroke:black;stroke-width:3" />
<circle cx="388.8" cy="35.38" r="5" stroke-width="0" fill="#FF2A00" opacity="0.7" />
<path d="M485.5,21.97c0.95,0.95,1.19,1.9,1.24,3.23c0.56,14.21,0.91,22.7,1.23,31.68c0.11,3.14,0.22,6.34,0.33,9.88" style="fill:none;stroke:#999;stroke-width:3" />
<path d="M487.25,23.25c10.48-1.23,25.76-2.19,33.75-2.94c3.25-0.31,5,0.57,4.78,4.04c-0.49,7.49-1.6,20.61-2.61,31.78c-0.33,3.7-0.66,7.18-0.95,10.18" style="fill:none;stroke:#999;stroke-width:3" />
<path d="M496.17,33.7c0.75,0.75,0.92,1.38,1.03,2.16c0.58,4.11,1.01,7.74,1.56,11.9c0.21,1.55,0.43,3.17,0.68,4.92" style="fill:none;stroke:#999;stroke-width:3" />
<path d="M497.8,35.38c4.93-0.89,9.08-1.63,11.99-2.31c2.41-0.57,3.51,0.16,3.16,2.32c-0.73,4.53-1.13,7.26-1.92,12.44" style="fill:none;stroke:#999;stroke-width:3" />
<path d="M500.08,50.29c2.75-0.39,5.8-0.63,9.07-1c1.24-0.14,2.52-0.29,3.82-0.48" style="fill:none;stroke:black;stroke-width:3" />
<circle cx="500.08" cy="50.29" r="5" stroke-width="0" fill="#FF2A00" opacity="0.7" />
<path d="M594.5,21.97c0.95,0.95,1.19,1.9,1.24,3.23c0.56,14.21,0.91,22.7,1.23,31.68c0.11,3.14,0.22,6.34,0.33,9.88" style="fill:none;stroke:#999;stroke-width:3" />
<path d="M596.25,23.25c10.48-1.23,25.76-2.19,33.75-2.94c3.25-0.31,5,0.57,4.78,4.04c-0.49,7.49-1.6,20.61-2.61,31.78c-0.33,3.7-0.66,7.18-0.95,10.18" style="fill:none;stroke:#999;stroke-width:3" />
<path d="M605.1700000000001,33.7c0.75,0.75,0.92,1.38,1.03,2.16c0.58,4.11,1.01,7.74,1.56,11.9c0.21,1.55,0.43,3.17,0.68,4.92" style="fill:none;stroke:#999;stroke-width:3" />
<path d="M606.8,35.38c4.93-0.89,9.08-1.63,11.99-2.31c2.41-0.57,3.51,0.16,3.16,2.32c-0.73,4.53-1.13,7.26-1.92,12.44" style="fill:none;stroke:#999;stroke-width:3" />
<path d="M609.0799999999999,50.29c2.75-0.39,5.8-0.63,9.07-1c1.24-0.14,2.52-0.29,3.82-0.48" style="fill:none;stroke:#999;stroke-width:3" />
<path d="M598.58,64.41c7.8-0.36,19.67-1.16,31.89-1.65" style="fill:none;stroke:black;stroke-width:3" />
<circle cx="598.58" cy="64.41" r="5" stroke-width="0" fill="#FF2A00" opacity="0.7" />
<path d="M703.5,21.97c0.95,0.95,1.19,1.9,1.24,3.23c0.56,14.21,0.91,22.7,1.23,31.68c0.11,3.14,0.22,6.34,0.33,9.88" style="fill:none;stroke:#999;stroke-width:3" />
<path d="M705.25,23.25c10.48-1.23,25.76-2.19,33.75-2.94c3.25-0.31,5,0.57,4.78,4.04c-0.49,7.49-1.6,20.61-2.61,31.78c-0.33,3.7-0.66,7.18-0.95,10.18" style="fill:none;stroke:#999;stroke-width:3" />
<path d="M714.1700000000001,33.7c0.75,0.75,0.92,1.38,1.03,2.16c0.58,4.11,1.01,7.74,1.56,11.9c0.21,1.55,0.43,3.17,0.68,4.92" style="fill:none;stroke:#999;stroke-width:3" />
<path d="M715.8,35.38c4.93-0.89,9.08-1.63,11.99-2.31c2.41-0.57,3.51,0.16,3.16,2.32c-0.73,4.53-1.13,7.26-1.92,12.44" style="fill:none;stroke:#999;stroke-width:3" />
<path d="M718.0799999999999,50.29c2.75-0.39,5.8-0.63,9.07-1c1.24-0.14,2.52-0.29,3.82-0.48" style="fill:none;stroke:#999;stroke-width:3" />
<path d="M707.58,64.41c7.8-0.36,19.67-1.16,31.89-1.65" style="fill:none;stroke:#999;stroke-width:3" />
<path d="M666.75,23.95c2.21,0.97,4.28,0.81,6.44,0.26c4.31-1.09,9.81-2.46,13.56-3.99c3.34-1.37,4.07,0.99,3,2.29c-3.5,4.25-12.88,18.75-17.25,25.11" style="fill:none;stroke:black;stroke-width:3" />
<circle cx="666.75" cy="23.95" r="5" stroke-width="0" fill="#FF2A00" opacity="0.7" />
<path d="M812.5,21.97c0.95,0.95,1.19,1.9,1.24,3.23c0.56,14.21,0.91,22.7,1.23,31.68c0.11,3.14,0.22,6.34,0.33,9.88" style="fill:none;stroke:#999;stroke-width:3" />
<path d="M814.25,23.25c10.48-1.23,25.76-2.19,33.75-2.94c3.25-0.31,5,0.57,4.78,4.04c-0.49,7.49-1.6,20.61-2.61,31.78c-0.33,3.7-0.66,7.18-0.95,10.18" style="fill:none;stroke:#999;stroke-width:3" />
<path d="M823.1700000000001,33.7c0.75,0.75,0.92,1.38,1.03,2.16c0.58,4.11,1.01,7.74,1.56,11.9c0.21,1.55,0.43,3.17,0.68,4.92" style="fill:none;stroke:#999;stroke-width:3" />
<path d="M824.8,35.38c4.93-0.89,9.08-1.63,11.99-2.31c2.41-0.57,3.51,0.16,3.16,2.32c-0.73,4.53-1.13,7.26-1.92,12.44" style="fill:none;stroke:#999;stroke-width:3" />
<path d="M827.0799999999999,50.29c2.75-0.39,5.8-0.63,9.07-1c1.24-0.14,2.52-0.29,3.82-0.48" style="fill:none;stroke:#999;stroke-width:3" />
<path d="M816.58,64.41c7.8-0.36,19.67-1.16,31.89-1.65" style="fill:none;stroke:#999;stroke-width:3" />
<path d="M775.75,23.95c2.21,0.97,4.28,0.81,6.44,0.26c4.31-1.09,9.81-2.46,13.56-3.99c3.34-1.37,4.07,0.99,3,2.29c-3.5,4.25-12.88,18.75-17.25,25.11" style="fill:none;stroke:#999;stroke-width:3" />
<path d="M781.59,47.87c1.59-0.48,3.28-0.99,4.95-1.48c4.81-1.4,9.48-2.65,11.29-2.81c2.45-0.22,3.43,0.44,2.95,3.2C797.75,64.38 789.0,82.38 775.0,89.33" style="fill:none;stroke:black;stroke-width:3" />
<circle cx="781.59" cy="47.87" r="5" stroke-width="0" fill="#FF2A00" opacity="0.7" />
<path d="M921.5,21.97c0.95,0.95,1.19,1.9,1.24,3.23c0.56,14.21,0.91,22.7,1.23,31.68c0.11,3.14,0.22,6.34,0.33,9.88" style="fill:none;stroke:#999;stroke-width:3" />
<path d="M923.25,23.25c10.48-1.23,25.76-2.19,33.75-2.94c3.25-0.31,5,0.57,4.78,4.04c-0.49,7.49-1.6,20.61-2.61,31.78c-0.33,3.7-0.66,7.18-0.95,10.18" style="fill:none;stroke:#999;stroke-width:3" />
<path d="M932.1700000000001,33.7c0.75,0.75,0.92,1.38,1.03,2.16c0.58,4.11,1.01,7.74,1.56,11.9c0.21,1.55,0.43,3.17,0.68,4.92" style="fill:none;stroke:#999;stroke-width:3" />
<path d="M933.8,35.38c4.93-0.89,9.08-1.63,11.99-2.31c2.41-0.57,3.51,0.16,3.16,2.32c-0.73,4.53-1.13,7.26-1.92,12.44" style="fill:none;stroke:#999;stroke-width:3" />
<path d="M936.0799999999999,50.29c2.75-0.39,5.8-0.63,9.07-1c1.24-0.14,2.52-0.29,3.82-0.48" style="fill:none;stroke:#999;stroke-width:3" />
<path d="M925.58,64.41c7.8-0.36,19.67-1.16,31.89-1.65" style="fill:none;stroke:#999;stroke-width:3" />
<path d="M884.75,23.95c2.21,0.97,4.28,0.81,6.44,0.26c4.31-1.09,9.81-2.46,13.56-3.99c3.34-1.37,4.07,0.99,3,2.29c-3.5,4.25-12.88,18.75-17.25,25.11" style="fill:none;stroke:#999;stroke-width:3" />
<path d="M890.59,47.87c1.59-0.48,3.28-0.99,4.95-1.48c4.81-1.4,9.48-2.65,11.29-2.81c2.45-0.22,3.43,0.44,2.95,3.2C906.75,64.38 898.0,82.38 884.0,89.33" style="fill:none;stroke:#999;stroke-width:3" />
<path d="M884.25,57.71c9.26,0,31.92,20.47,53.87,29.21c8.25,3.29,17.15,4.88,25.88,6.33" style="fill:none;stroke:black;stroke-width:3" />
<circle cx="884.25" cy="57.71" r="5" stroke-width="0" fill="#FF2A00" opacity="0.7" />
</svg>