<!-- 05f37 -->
<svg width="1199px" height="109px" viewBox="0 0 1199px 109px" xmlns="http://www.w3.org/2000/svg" xmlns:xlink="http://www.w3.org/1999/xlink" xml:space="preserve" version="1.1"  baseProfile="full">
<line x1="1" y1="1" x2="1198" y2="1" style="stroke:#ddd;stroke-width:2" />
<line x1="1" y1="1" x2="1" y2="108" style="stroke:#ddd;stroke-width:2" />
<line x1="1" y1="108" x2="1198" y2="108" style="stroke:#ddd;stroke-width:2" />
<line x1="1198" y1="1" x2="1198" y2="108" style="stroke:#ddd;stroke-width:2" />
<line x1="109" y1="1" x2="109" y2="108" style="stroke:#ddd;stroke-width:2" />
<line x1="218" y1="1" x2="218" y2="108" style="stroke:#ddd;stroke-width:2" />
<line x1="327" y1="1" x2="327" y2="108" style="stroke:#ddd;stroke-width:2" />
<line x1="436" y1="1" x2="436" y2="108" style="stroke:#ddd;stroke-width:2" />
<line x1="545" y1="1" x2="545" y2="108" style="stroke:#ddd;stroke-width:2" />
<line x1="654" y1="1" x2="654" y2="108" style="stroke:#ddd;stroke-width:2" />
<line x1="763" y1="1" x2="763" y2="108" style="stroke:#ddd;stroke-width:2" />
<line x1="872" y1="1" x2="872" y2="108" style="stroke:#ddd;stroke-width:2" />
<line x1="981" y1="1" x2="981" y2="108" style="stroke:#ddd;stroke-width:2" />
<line x1="1090" y1="1" x2="1090" y2="108" style="stroke:#ddd;stroke-width:2" />
<line x1="1" y1="54" x2="1198" y2="54" style="stroke:#ddd;stroke-width:2;stroke-dasharray:3 3" />
<line x1="55" y1="1" x2="55" y2="108" style="stroke:#ddd;stroke-width:2;stroke-dasharray:3 3" />
<line x1="164" y1="1" x2="164" y2="108" style="stroke:#ddd;stroke-width:2;stroke-dasharray:3 3" />
<line x1="273" y1="1" x2="273" y2="108" style="stroke:#ddd;stroke-width:2;stroke-dasharray:3 3" />
<line x1="382" y1="1" x2="382" y2="108" style="stroke:#ddd;stroke-width:2;stroke-dasharray:3 3" />
<line x1="491" y1="1" x2="491" y2="108" style="stroke:#ddd;stroke-width:2;stroke-dasharray:3 3" />
<line x1="600" y1="1" x2="600" y2="108" style="stroke:#ddd;stroke-width:2;stroke-dasharray:3 3" />
<line x1="709" y1="1" x2="709" y2="108" style="stroke:#ddd;stroke-width:2;stroke-dasharray:3 3" />
<line x1="818" y1="1" x2="818" y2="108" style="stroke:#ddd;stroke-width:2;stroke-dasharray:3 3" />
<line x1="927" y1="1" x2="927" y2="108" style="stroke:#ddd;stroke-width:2;stroke-dasharray:3 3" />
<line x1="1036" y1="1" x2="1036" y2="108" style="stroke:#ddd;stroke-width:2;stroke-dasharray:3 3" />
<line x1="1145" y1="1" x2="1145" y2="108" style="stroke:#ddd;stroke-width:2;stroke-dasharray:3 3" />
<path d="M17.5,19.84c1,0.66,3.5,0.95,4.69,0.79c5.81-0.76,13.69-2.51,18.27-3.79c2.42-0.67,4.29,0.78,3.24,3.39c-0.61,1.53-3.39,9.93-4.37,13.78" style="fill:none;stroke:black;stroke-width:3" />
<circle cx="17.5" cy="19.84" r="5" stroke-width="0" fill="#FF2A00" opacity="0.7" />
<path d="M126.5,19.84c1,0.66,3.5,0.95,4.69,0.79c5.81-0.76,13.69-2.51,18.27-3.79c2.42-0.67,4.29,0.78,3.24,3.39c-0.61,1.53-3.39,9.93-4.37,13.78" style="fill:none;stroke:#999;stroke-width:3" />
<path d="M127.38,37.25c0.75,0.25,2.03,0.43,3.26,0.32c5.34-0.49,14.24-2.32,15.87-2.32c2,0,2.75-0.25,4,0" style="fill:none;stroke:black;stroke-width:3" />
<circle cx="127.38" cy="37.25" r="5" stroke-width="0" fill="#FF2A00" opacity="0.7" />
<path d="M235.5,19.84c1,0.66,3.5,0.95,4.69,0.79c5.81-0.76,13.69-2.51,18.27-3.79c2.42-0.67,4.29,0.78,3.24,3.39c-0.61,1.53-3.39,9.93-4.37,13.78" style="fill:none;stroke:#999;stroke-width:3" />
<path d="M236.38,37.25c0.75,0.25,2.03,0.43,3.26,0.32c5.34-0.49,14.24-2.32,15.87-2.32c2,0,2.75-0.25,4,0" style="fill:none;stroke:#999;stroke-width:3" />
<path d="M236.88,37.43c0.84,0.84,0.71,2.31,0.36,3.83C236.82999999999998,43 234.35,50.03 234.0,50.94c-1,2.56-0.53,3.75,2.75,3.06c3-0.62,12.25-2.3,16.46-2.69c2.04-0.19,3.29,1.56,3.04,4.19c-0.85,8.9-5.22,29.45-9,35.75c-3.75,6.25-6.36-0.31-7.19-2.17" style="fill:none;stroke:black;stroke-width:3" />
<circle cx="236.88" cy="37.43" r="5" stroke-width="0" fill="#FF2A00" opacity="0.7" />
<path d="M344.5,19.84c1,0.66,3.5,0.95,4.69,0.79c5.81-0.76,13.69-2.51,18.27-3.79c2.42-0.67,4.29,0.78,3.24,3.39c-0.61,1.53-3.39,9.93-4.37,13.78" style="fill:none;stroke:#999;stroke-width:3" />
<path d="M345.38,37.25c0.75,0.25,2.03,0.43,3.26,0.32c5.34-0.49,14.24-2.32,15.87-2.32c2,0,2.75-0.25,4,0" style="fill:none;stroke:#999;stroke-width:3" />
<path d="M345.88,37.43c0.84,0.84,0.71,2.31,0.36,3.83C345.83,43 343.35,50.03 343.0,50.94c-1,2.56-0.53,3.75,2.75,3.06c3-0.62,12.25-2.3,16.46-2.69c2.04-0.19,3.29,1.56,3.04,4.19c-0.85,8.9-5.22,29.45-9,35.75c-3.75,6.25-6.36-0.31-7.19-2.17" style="fill:none;stroke:#999;stroke-width:3" />
<path d="M394.75,12.75c0.38,1.75-0.25,4-1.25,5.25c-5.49,6.86-7.25,8.5-13.32,15.09C378.39,35.05 379.0,36.63 382.0,36c9.5-2,21.25-4.25,32.85-6.25" style="fill:none;stroke:black;stroke-width:3" />
<circle cx="394.75" cy="12.75" r="5" stroke-width="0" fill="#FF2A00" opacity="0.7" />
<path d="M453.5,19.84c1,0.66,3.5,0.95,4.69,0.79c5.81-0.76,13.69-2.51,18.27-3.79c2.42-0.67,4.29,0.78,3.24,3.39c-0.61,1.53-3.39,9.93-4.37,13.78" style="fill:none;stroke:#999;stroke-width:3" />
<path d="M454.38,37.25c0.75,0.25,2.03,0.43,3.26,0.32c5.34-0.49,14.24-2.32,15.87-2.32c2,0,2.75-0.25,4,0" style="fill:none;stroke:#999;stroke-width:3" />
<path d="M454.88,37.43c0.84,0.84,0.71,2.31,0.36,3.83C454.83,43 452.35,50.03 452.0,50.94c-1,2.56-0.53,3.75,2.75,3.06c3-0.62,12.25-2.3,16.46-2.69c2.04-0.19,3.29,1.56,3.04,4.19c-0.85,8.9-5.22,29.45-9,35.75c-3.75,6.25-6.36-0.31-7.19-2.17" style="fill:none;stroke:#999;stroke-width:3" />
<path d="M503.75,12.75c0.38,1.75-0.25,4-1.25,5.25c-5.49,6.86-7.25,8.5-13.32,15.09C487.39,35.05 488.0,36.63 491.0,36c9.5-2,21.25-4.25,32.85-6.25" style="fill:none;stroke:#999;stroke-width:3" />
<path d="M515.88,20.5c4.46,2.6,11.51,10.7,12.62,14.75" style="fill:none;stroke:black;stroke-width:3" />
<circle cx="515.88" cy="20.5" r="5" stroke-width="0" fill="#FF2A00" opacity="0.7" />
<path d="M562.5,19.84c1,0.66,3.5,0.95,4.69,0.79c5.81-0.76,13.69-2.51,18.27-3.79c2.42-0.67,4.29,0.78,3.24,3.39c-0.61,1.53-3.39,9.93-4.37,13.78" style="fill:none;stroke:#999;stroke-width:3" />
<path d="M563.38,37.25c0.75,0.25,2.03,0.43,3.26,0.32c5.34-0.49,14.24-2.32,15.87-2.32c2,0,2.75-0.25,4,0" style="fill:none;stroke:#999;stroke-width:3" />
<path d="M563.88,37.43c0.84,0.84,0.71,2.31,0.36,3.83C563.8299999999999,43 561.35,50.03 561.0,50.94c-1,2.56-0.53,3.75,2.75,3.06c3-0.62,12.25-2.3,16.46-2.69c2.04-0.19,3.29,1.56,3.04,4.19c-0.85,8.9-5.22,29.45-9,35.75c-3.75,6.25-6.36-0.31-7.19-2.17" style="fill:none;stroke:#999;stroke-width:3" />
<path d="M612.75,12.75c0.38,1.75-0.25,4-1.25,5.25c-5.49,6.86-7.25,8.5-13.32,15.09C596.39,35.05 597.0,36.63 600.0,36c9.5-2,21.25-4.25,32.85-6.25" style="fill:none;stroke:#999;stroke-width:3" />
<path d="M624.88,20.5c4.46,2.6,11.51,10.7,12.62,14.75" style="fill:none;stroke:#999;stroke-width:3" />
<path d="M593.25,51.62c0.5,0.19,1.67,1.53,1.8,2.1c0.75,3.36,1.54,7.11,2.52,12.81c0.23,1.32,0.47,2.72,0.72,4.2" style="fill:none;stroke:black;stroke-width:3" />
<circle cx="593.25" cy="51.62" r="5" stroke-width="0" fill="#FF2A00" opacity="0.7" />
<path d="M671.5,19.84c1,0.66,3.5,0.95,4.69,0.79c5.81-0.76,13.69-2.51,18.27-3.79c2.42-0.67,4.29,0.78,3.24,3.39c-0.61,1.53-3.39,9.93-4.37,13.78" style="fill:none;stroke:#999;stroke-width:3" />
<path d="M672.38,37.25c0.75,0.25,2.03,0.43,3.26,0.32c5.34-0.49,14.24-2.32,15.87-2.32c2,0,2.75-0.25,4,0" style="fill:none;stroke:#999;stroke-width:3" />
<path d="M672.88,37.43c0.84,0.84,0.71,2.31,0.36,3.83C672.8299999999999,43 670.35,50.03 670.0,50.94c-1,2.56-0.53,3.75,2.75,3.06c3-0.62,12.25-2.3,16.46-2.69c2.04-0.19,3.29,1.56,3.04,4.19c-0.85,8.9-5.22,29.45-9,35.75c-3.75,6.25-6.36-0.31-7.19-2.17" style="fill:none;stroke:#999;stroke-width:3" />
<path d="M721.75,12.75c0.38,1.75-0.25,4-1.25,5.25c-5.49,6.86-7.25,8.5-13.32,15.09C705.39,35.05 706.0,36.63 709.0,36c9.5-2,21.25-4.25,32.85-6.25" style="fill:none;stroke:#999;stroke-width:3" />
<path d="M733.88,20.5c4.46,2.6,11.51,10.7,12.62,14.75" style="fill:none;stroke:#999;stroke-width:3" />
<path d="M702.25,51.62c0.5,0.19,1.67,1.53,1.8,2.1c0.75,3.36,1.54,7.11,2.52,12.81c0.23,1.32,0.47,2.72,0.72,4.2" style="fill:none;stroke:#999;stroke-width:3" />
<path d="M704.99,52.97c11.63-2.34,27.88-4.72,36.57-5.39c2.74-0.21,4.5,2.38,4.18,3.67c-0.91,3.67-2.48,7.26-3.53,11.24" style="fill:none;stroke:black;stroke-width:3" />
<circle cx="704.99" cy="52.97" r="5" stroke-width="0" fill="#FF2A00" opacity="0.7" />
<path d="M780.5,19.84c1,0.66,3.5,0.95,4.69,0.79c5.81-0.76,13.69-2.51,18.27-3.79c2.42-0.67,4.29,0.78,3.24,3.39c-0.61,1.53-3.39,9.93-4.37,13.78" style="fill:none;stroke:#999;stroke-width:3" />
<path d="M781.38,37.25c0.75,0.25,2.03,0.43,3.26,0.32c5.34-0.49,14.24-2.32,15.87-2.32c2,0,2.75-0.25,4,0" style="fill:none;stroke:#999;stroke-width:3" />
<path d="M781.88,37.43c0.84,0.84,0.71,2.31,0.36,3.83C781.8299999999999,43 779.35,50.03 779.0,50.94c-1,2.56-0.53,3.75,2.75,3.06c3-0.62,12.25-2.3,16.46-2.69c2.04-0.19,3.29,1.56,3.04,4.19c-0.85,8.9-5.22,29.45-9,35.75c-3.75,6.25-6.36-0.31-7.19-2.17" style="fill:none;stroke:#999;stroke-width:3" />
<path d="M830.75,12.75c0.38,1.75-0.25,4-1.25,5.25c-5.49,6.86-7.25,8.5-13.32,15.09C814.39,35.05 815.0,36.63 818.0,36c9.5-2,21.25-4.25,32.85-6.25" style="fill:none;stroke:#999;stroke-width:3" />
<path d="M842.88,20.5c4.46,2.6,11.51,10.7,12.62,14.75" style="fill:none;stroke:#999;stroke-width:3" />
<path d="M811.25,51.62c0.5,0.19,1.67,1.53,1.8,2.1c0.75,3.36,1.54,7.11,2.52,12.81c0.23,1.32,0.47,2.72,0.72,4.2" style="fill:none;stroke:#999;stroke-width:3" />
<path d="M813.99,52.97c11.63-2.34,27.88-4.72,36.57-5.39c2.74-0.21,4.5,2.38,4.18,3.67c-0.91,3.67-2.48,7.26-3.53,11.24" style="fill:none;stroke:#999;stroke-width:3" />
<path d="M816.62,69c6.93-1.31,21.4-3.19,32.15-4.76c1.29-0.19,2.53-0.37,3.7-0.55" style="fill:none;stroke:black;stroke-width:3" />
<circle cx="816.62" cy="69.0" r="5" stroke-width="0" fill="#FF2A00" opacity="0.7" />
<path d="M889.5,19.84c1,0.66,3.5,0.95,4.69,0.79c5.81-0.76,13.69-2.51,18.27-3.79c2.42-0.67,4.29,0.78,3.24,3.39c-0.61,1.53-3.39,9.93-4.37,13.78" style="fill:none;stroke:#999;stroke-width:3" />
<path d="M890.38,37.25c0.75,0.25,2.03,0.43,3.26,0.32c5.34-0.49,14.24-2.32,15.87-2.32c2,0,2.75-0.25,4,0" style="fill:none;stroke:#999;stroke-width:3" />
<path d="M890.88,37.43c0.84,0.84,0.71,2.31,0.36,3.83C890.8299999999999,43 888.35,50.03 888.0,50.94c-1,2.56-0.53,3.75,2.75,3.06c3-0.62,12.25-2.3,16.46-2.69c2.04-0.19,3.29,1.56,3.04,4.19c-0.85,8.9-5.22,29.45-9,35.75c-3.75,6.25-6.36-0.31-7.19-2.17" style="fill:none;stroke:#999;stroke-width:3" />
<path d="M939.75,12.75c0.38,1.75-0.25,4-1.25,5.25c-5.49,6.86-7.25,8.5-13.32,15.09C923.39,35.05 924.0,36.63 927.0,36c9.5-2,21.25-4.25,32.85-6.25" style="fill:none;stroke:#999;stroke-width:3" />
<path d="M951.88,20.5c4.46,2.6,11.51,10.7,12.62,14.75" style="fill:none;stroke:#999;stroke-width:3" />
<path d="M920.25,51.62c0.5,0.19,1.67,1.53,1.8,2.1c0.75,3.36,1.54,7.11,2.52,12.81c0.23,1.32,0.47,2.72,0.72,4.2" style="fill:none;stroke:#999;stroke-width:3" />
<path d="M922.99,52.97c11.63-2.34,27.88-4.72,36.57-5.39c2.74-0.21,4.5,2.38,4.18,3.67c-0.91,3.67-2.48,7.26-3.53,11.24" style="fill:none;stroke:#999;stroke-width:3" />
<path d="M925.62,69c6.93-1.31,21.4-3.19,32.15-4.76c1.29-0.19,2.53-0.37,3.7-0.55" style="fill:none;stroke:#999;stroke-width:3" />
<path d="M938.97,37c1.28,1,2.07,2.5,2.07,4.26c0,3.99,0.05,32.54-0.08,45.24" style="fill:none;stroke:black;stroke-width:3" />
<circle cx="938.97" cy="37.0" r="5" stroke-width="0" fill="#FF2A00" opacity="0.7" />
<path d="M998.5,19.84c1,0.66,3.5,0.95,4.69,0.79c5.81-0.76,13.69-2.51,18.27-3.79c2.42-0.67,4.29,0.78,3.24,3.39c-0.61,1.53-3.39,9.93-4.37,13.78" style="fill:none;stroke:#999;stroke-width:3" />
<path d="M999.38,37.25c0.75,0.25,2.03,0.43,3.26,0.32c5.34-0.49,14.24-2.32,15.87-2.32c2,0,2.75-0.25,4,0" style="fill:none;stroke:#999;stroke-width:3" />
<path d="M999.88,37.43c0.84,0.84,0.71,2.31,0.36,3.83C999.8299999999999,43 997.35,50.03 997.0,50.94c-1,2.56-0.53,3.75,2.75,3.06c3-0.62,12.25-2.3,16.46-2.69c2.04-0.19,3.29,1.56,3.04,4.19c-0.85,8.9-5.22,29.45-9,35.75c-3.75,6.25-6.36-0.31-7.19-2.17" style="fill:none;stroke:#999;stroke-width:3" />
<path d="M1048.75,12.75c0.38,1.75-0.25,4-1.25,5.25c-5.49,6.86-7.25,8.5-13.32,15.09C1032.3899999999999,35.05 1033.0,36.63 1036.0,36c9.5-2,21.25-4.25,32.85-6.25" style="fill:none;stroke:#999;stroke-width:3" />
<path d="M1060.88,20.5c4.46,2.6,11.51,10.7,12.62,14.75" style="fill:none;stroke:#999;stroke-width:3" />
<path d="M1029.25,51.62c0.5,0.19,1.67,1.53,1.8,2.1c0.75,3.36,1.54,7.11,2.52,12.81c0.23,1.32,0.47,2.72,0.72,4.2" style="fill:none;stroke:#999;stroke-width:3" />
<path d="M1031.99,52.97c11.63-2.34,27.88-4.72,36.57-5.39c2.74-0.21,4.5,2.38,4.18,3.67c-0.91,3.67-2.48,7.26-3.53,11.24" style="fill:none;stroke:#999;stroke-width:3" />
<path d="M1034.62,69c6.93-1.31,21.4-3.19,32.15-4.76c1.29-0.19,2.53-0.37,3.7-0.55" style="fill:none;stroke:#999;stroke-width:3" />
<path d="M1047.97,37c1.28,1,2.07,2.5,2.07,4.26c0,3.99,0.05,32.54-0.08,45.24" style="fill:none;stroke:#999;stroke-width:3" />
<path d="M1026.98,91.04c1.02,1.21,2.87,1.16,3.88,0.97s37.61-8.34,40.65-9.26" style="fill:none;stroke:black;stroke-width:3" />
<circle cx="1026.98" cy="91.04" r="5" stroke-width="0" fill="#FF2A00" opacity="0.7" />
<path d="M1107.5,19.84c1,0.66,3.5,0.95,4.69,0.79c5.81-0.76,13.69-2.51,18.27-3.79c2.42-0.67,4.29,0.78,3.24,3.39c-0.61,1.53-3.39,9.93-4.37,13.78" style="fill:none;stroke:#999;stroke-width:3" />
<path d="M1108.38,37.25c0.75,0.25,2.03,0.43,3.26,0.32c5.34-0.49,14.24-2.32,15.87-2.32c2,0,2.75-0.25,4,0" style="fill:none;stroke:#999;stroke-width:3" />
<path d="M1108.88,37.43c0.84,0.84,0.71,2.31,0.36,3.83C1108.83,43 1106.35,50.03 1106.0,50.94c-1,2.56-0.53,3.75,2.75,3.06c3-0.62,12.25-2.3,16.46-2.69c2.04-0.19,3.29,1.56,3.04,4.19c-0.85,8.9-5.22,29.45-9,35.75c-3.75,6.25-6.36-0.31-7.19-2.17" style="fill:none;stroke:#999;stroke-width:3" />
<path d="M1157.75,12.75c0.38,1.75-0.25,4-1.25,5.25c-5.49,6.86-7.25,8.5-13.32,15.09C1141.3899999999999,35.05 1142.0,36.63 1145.0,36c9.5-2,21.25-4.25,32.85-6.25" style="fill:none;stroke:#999;stroke-width:3" />
<path d="M1169.88,20.5c4.46,2.6,11.51,10.7,12.62,14.75" style="fill:none;stroke:#999;stroke-width:3" />
<path d="M1138.25,51.62c0.5,0.19,1.67,1.53,1.8,2.1c0.75,3.36,1.54,7.11,2.52,12.81c0.23,1.32,0.47,2.72,0.72,4.2" style="fill:none;stroke:#999;stroke-width:3" />
<path d="M1140.99,52.97c11.63-2.34,27.88-4.72,36.57-5.39c2.74-0.21,4.5,2.38,4.18,3.67c-0.91,3.67-2.48,7.26-3.53,11.24" style="fill:none;stroke:#999;stroke-width:3" />
<path d="M1143.62,69c6.93-1.31,21.4-3.19,32.15-4.76c1.29-0.19,2.53-0.37,3.7-0.55" style="fill:none;stroke:#999;stroke-width:3" />
<path d="M1156.97,37c1.28,1,2.07,2.5,2.07,4.26c0,3.99,0.05,32.54-0.08,45.24" style="fill:none;stroke:#999;stroke-width:3" />
<path d="M1135.98,91.04c1.02,1.21,2.87,1.16,3.88,0.97s37.61-8.34,40.65-9.26" style="fill:none;stroke:#999;stroke-width:3" />
<path d="M1177.0,75.5c3.53,3.18,9.12,13.06,10,18" style="fill:none;stroke:black;stroke-width:3" />
<circle cx="1177.0" cy="75.5" r="5" stroke-width="0" fill="#FF2A00" opacity="0.7" />
</svg>