<!-- 05f50 -->
<svg width="327px" height="109px" viewBox="0 0 327px 109px" xmlns="http://www.w3.org/2000/svg" xmlns:xlink="http://www.w3.org/1999/xlink" xml:space="preserve" version="1.1"  baseProfile="full">
<line x1="1" y1="1" x2="326" y2="1" style="stroke:#ddd;stroke-width:2" />
<line x1="1" y1="1" x2="1" y2="108" style="stroke:#ddd;stroke-width:2" />
<line x1="1" y1="108" x2="326" y2="108" style="stroke:#ddd;stroke-width:2" />
<line x1="326" y1="1" x2="326" y2="108" style="stroke:#ddd;stroke-width:2" />
<line x1="109" y1="1" x2="109" y2="108" style="stroke:#ddd;stroke-width:2" />
<line x1="218" y1="1" x2="218" y2="108" style="stroke:#ddd;stroke-width:2" />
<line x1="1" y1="54" x2="326" y2="54" style="stroke:#ddd;stroke-width:2;stroke-dasharray:3 3" />
<line x1="55" y1="1" x2="55" y2="108" style="stroke:#ddd;stroke-width:2;stroke-dasharray:3 3" />
<line x1="164" y1="1" x2="164" y2="108" style="stroke:#ddd;stroke-width:2;stroke-dasharray:3 3" />
<line x1="273" y1="1" x2="273" y2="108" style="stroke:#ddd;stroke-width:2;stroke-dasharray:3 3" />
<path d="M26.75,40.5c2.5,0.25,3.7,0.66,6,0.5c14-1,31-3.25,42-3.25c3.25,0,5.5,1.25,5,3.75c-1.31,6.54-2.25,9.75-4,21" style="fill:none;stroke:black;stroke-width:3" />
<circle cx="26.75" cy="40.5" r="5" stroke-width="0" fill="#FF2A00" opacity="0.7" />
<path d="M135.75,40.5c2.5,0.25,3.7,0.66,6,0.5c14-1,31-3.25,42-3.25c3.25,0,5.5,1.25,5,3.75c-1.31,6.54-2.25,9.75-4,21" style="fill:none;stroke:#999;stroke-width:3" />
<path d="M125.0,54.75c2.25,0.25,4.01,0.73,6.5,0.5c21.75-2,47.25-5.5,64.5-6.25c2.76-0.12,5,0.5,6.25,0.75" style="fill:none;stroke:black;stroke-width:3" />
<circle cx="125.0" cy="54.75" r="5" stroke-width="0" fill="#FF2A00" opacity="0.7" />
<path d="M244.75,40.5c2.5,0.25,3.7,0.66,6,0.5c14-1,31-3.25,42-3.25c3.25,0,5.5,1.25,5,3.75c-1.31,6.54-2.25,9.75-4,21" style="fill:none;stroke:#999;stroke-width:3" />
<path d="M234.0,54.75c2.25,0.25,4.01,0.73,6.5,0.5c21.75-2,47.25-5.5,64.5-6.25c2.76-0.12,5,0.5,6.25,0.75" style="fill:none;stroke:#999;stroke-width:3" />
<path d="M246.25,65.93c1.25,0.15,3.51,0.54,5,0.46C265.0,65.63 279.0,64.41 291.5,64.11c2-0.05,3.25,0,4.75,0.15" style="fill:none;stroke:black;stroke-width:3" />
<circle cx="246.25" cy="65.93" r="5" stroke-width="0" fill="#FF2A00" opacity="0.7" />
</svg>