<!-- 05fff -->
<svg width="872px" height="109px" viewBox="0 0 872px 109px" xmlns="http://www.w3.org/2000/svg" xmlns:xlink="http://www.w3.org/1999/xlink" xml:space="preserve" version="1.1"  baseProfile="full">
<line x1="1" y1="1" x2="871" y2="1" style="stroke:#ddd;stroke-width:2" />
<line x1="1" y1="1" x2="1" y2="108" style="stroke:#ddd;stroke-width:2" />
<line x1="1" y1="108" x2="871" y2="108" style="stroke:#ddd;stroke-width:2" />
<line x1="871" y1="1" x2="871" y2="108" style="stroke:#ddd;stroke-width:2" />
<line x1="109" y1="1" x2="109" y2="108" style="stroke:#ddd;stroke-width:2" />
<line x1="218" y1="1" x2="218" y2="108" style="stroke:#ddd;stroke-width:2" />
<line x1="327" y1="1" x2="327" y2="108" style="stroke:#ddd;stroke-width:2" />
<line x1="436" y1="1" x2="436" y2="108" style="stroke:#ddd;stroke-width:2" />
<line x1="545" y1="1" x2="545" y2="108" style="stroke:#ddd;stroke-width:2" />
<line x1="654" y1="1" x2="654" y2="108" style="stroke:#ddd;stroke-width:2" />
<line x1="763" y1="1" x2="763" y2="108" style="stroke:#ddd;stroke-width:2" />
<line x1="1" y1="54" x2="871" y2="54" style="stroke:#ddd;stroke-width:2;stroke-dasharray:3 3" />
<line x1="55" y1="1" x2="55" y2="108" style="stroke:#ddd;stroke-width:2;stroke-dasharray:3 3" />
<line x1="164" y1="1" x2="164" y2="108" style="stroke:#ddd;stroke-width:2;stroke-dasharray:3 3" />
<line x1="273" y1="1" x2="273" y2="108" style="stroke:#ddd;stroke-width:2;stroke-dasharray:3 3" />
<line x1="382" y1="1" x2="382" y2="108" style="stroke:#ddd;stroke-width:2;stroke-dasharray:3 3" />
<line x1="491" y1="1" x2="491" y2="108" style="stroke:#ddd;stroke-width:2;stroke-dasharray:3 3" />
<line x1="600" y1="1" x2="600" y2="108" style="stroke:#ddd;stroke-width:2;stroke-dasharray:3 3" />
<line x1="709" y1="1" x2="709" y2="108" style="stroke:#ddd;stroke-width:2;stroke-dasharray:3 3" />
<line x1="818" y1="1" x2="818" y2="108" style="stroke:#ddd;stroke-width:2;stroke-dasharray:3 3" />
<path d="M40.95,15.64c0.41,0.84-0.09,1.78-0.58,2.82c-3.99,8.58-15.24,21.47-23.62,25.13" style="fill:none;stroke:black;stroke-width:3" />
<circle cx="40.95" cy="15.64" r="5" stroke-width="0" fill="#FF2A00" opacity="0.7" />
<path d="M149.95,15.64c0.41,0.84-0.09,1.78-0.58,2.82c-3.99,8.58-15.24,21.47-23.62,25.13" style="fill:none;stroke:#999;stroke-width:3" />
<path d="M165.69,11c10.48,3.11,20.96,22.83,29.7,27.8c3.38,1.92,4.59,2.95,7.86,3.57" style="fill:none;stroke:black;stroke-width:3" />
<circle cx="165.69" cy="11.0" r="5" stroke-width="0" fill="#FF2A00" opacity="0.7" />
<path d="M258.95,15.64c0.41,0.84-0.09,1.78-0.58,2.82c-3.99,8.58-15.24,21.47-23.62,25.13" style="fill:none;stroke:#999;stroke-width:3" />
<path d="M274.69,11c10.48,3.11,20.96,22.83,29.7,27.8c3.38,1.92,4.59,2.95,7.86,3.57" style="fill:none;stroke:#999;stroke-width:3" />
<path d="M252.6,40.41c1.4,0.84,2.76,0.77,3.83,0.67c8.71-0.87,26.38-2.59,31.21-2.91c3.14-0.21,4.03,1.62,3.86,3.08c-0.46,3.84-3.75,16.01-7.72,22.36c-3.5,5.59-4.28,4.15-7.37-0.31" style="fill:none;stroke:black;stroke-width:3" />
<circle cx="252.6" cy="40.41" r="5" stroke-width="0" fill="#FF2A00" opacity="0.7" />
<path d="M367.95,15.64c0.41,0.84-0.09,1.78-0.58,2.82c-3.99,8.58-15.24,21.47-23.62,25.13" style="fill:none;stroke:#999;stroke-width:3" />
<path d="M383.69,11c10.48,3.11,20.96,22.83,29.7,27.8c3.38,1.92,4.59,2.95,7.86,3.57" style="fill:none;stroke:#999;stroke-width:3" />
<path d="M361.6,40.41c1.4,0.84,2.76,0.77,3.83,0.67c8.71-0.87,26.38-2.59,31.21-2.91c3.14-0.21,4.03,1.62,3.86,3.08c-0.46,3.84-3.75,16.01-7.72,22.36c-3.5,5.59-4.28,4.15-7.37-0.31" style="fill:none;stroke:#999;stroke-width:3" />
<path d="M379.0,43.15c0.07,0.54,0.24,1.44-0.15,2.19c-4.35,8.44-11.1,15.47-25.35,22.32" style="fill:none;stroke:black;stroke-width:3" />
<circle cx="379.0" cy="43.15" r="5" stroke-width="0" fill="#FF2A00" opacity="0.7" />
<path d="M476.95,15.64c0.41,0.84-0.09,1.78-0.58,2.82c-3.99,8.58-15.24,21.47-23.62,25.13" style="fill:none;stroke:#999;stroke-width:3" />
<path d="M492.69,11c10.48,3.11,20.96,22.83,29.7,27.8c3.38,1.92,4.59,2.95,7.86,3.57" style="fill:none;stroke:#999;stroke-width:3" />
<path d="M470.6,40.41c1.4,0.84,2.76,0.77,3.83,0.67c8.71-0.87,26.38-2.59,31.21-2.91c3.14-0.21,4.03,1.62,3.86,3.08c-0.46,3.84-3.75,16.01-7.72,22.36c-3.5,5.59-4.28,4.15-7.37-0.31" style="fill:none;stroke:#999;stroke-width:3" />
<path d="M488.0,43.15c0.07,0.54,0.24,1.44-0.15,2.19c-4.35,8.44-11.1,15.47-25.35,22.32" style="fill:none;stroke:#999;stroke-width:3" />
<path d="M462.14,80.07c0.42,2.35-4.2,12.75-7.56,16.67" style="fill:none;stroke:black;stroke-width:3" />
<circle cx="462.14" cy="80.07" r="5" stroke-width="0" fill="#FF2A00" opacity="0.7" />
<path d="M585.95,15.64c0.41,0.84-0.09,1.78-0.58,2.82c-3.99,8.58-15.24,21.47-23.62,25.13" style="fill:none;stroke:#999;stroke-width:3" />
<path d="M601.69,11c10.48,3.11,20.96,22.83,29.7,27.8c3.38,1.92,4.59,2.95,7.86,3.57" style="fill:none;stroke:#999;stroke-width:3" />
<path d="M579.6,40.41c1.4,0.84,2.76,0.77,3.83,0.67c8.71-0.87,26.38-2.59,31.21-2.91c3.14-0.21,4.03,1.62,3.86,3.08c-0.46,3.84-3.75,16.01-7.72,22.36c-3.5,5.59-4.28,4.15-7.37-0.31" style="fill:none;stroke:#999;stroke-width:3" />
<path d="M597.0,43.15c0.07,0.54,0.24,1.44-0.15,2.19c-4.35,8.44-11.1,15.47-25.35,22.32" style="fill:none;stroke:#999;stroke-width:3" />
<path d="M571.14,80.07c0.42,2.35-4.2,12.75-7.56,16.67" style="fill:none;stroke:#999;stroke-width:3" />
<path d="M579.58,76.75c6.8,11,17.54,20.55,43.75,20.68c12.64,0.07,13.47-3.93,2.92-8.94" style="fill:none;stroke:black;stroke-width:3" />
<circle cx="579.58" cy="76.75" r="5" stroke-width="0" fill="#FF2A00" opacity="0.7" />
<path d="M694.95,15.64c0.41,0.84-0.09,1.78-0.58,2.82c-3.99,8.58-15.24,21.47-23.62,25.13" style="fill:none;stroke:#999;stroke-width:3" />
<path d="M710.69,11c10.48,3.11,20.96,22.83,29.7,27.8c3.38,1.92,4.59,2.95,7.86,3.57" style="fill:none;stroke:#999;stroke-width:3" />
<path d="M688.6,40.41c1.4,0.84,2.76,0.77,3.83,0.67c8.71-0.87,26.38-2.59,31.21-2.91c3.14-0.21,4.03,1.62,3.86,3.08c-0.46,3.84-3.75,16.01-7.72,22.36c-3.5,5.59-4.28,4.15-7.37-0.31" style="fill:none;stroke:#999;stroke-width:3" />
<path d="M706.0,43.15c0.07,0.54,0.24,1.44-0.15,2.19c-4.35,8.44-11.1,15.47-25.35,22.32" style="fill:none;stroke:#999;stroke-width:3" />
<path d="M680.14,80.07c0.42,2.35-4.2,12.75-7.56,16.67" style="fill:none;stroke:#999;stroke-width:3" />
<path d="M688.58,76.75c6.8,11,17.54,20.55,43.75,20.68c12.64,0.07,13.47-3.93,2.92-8.94" style="fill:none;stroke:#999;stroke-width:3" />
<path d="M707.91,75.75c2.17,5.25,5.32,10.5,7.63,2.46" style="fill:none;stroke:black;stroke-width:3" />
<circle cx="707.91" cy="75.75" r="5" stroke-width="0" fill="#FF2A00" opacity="0.7" />
<path d="M803.95,15.64c0.41,0.84-0.09,1.78-0.58,2.82c-3.99,8.58-15.24,21.47-23.62,25.13" style="fill:none;stroke:#999;stroke-width:3" />
<path d="M819.69,11c10.48,3.11,20.96,22.83,29.7,27.8c3.38,1.92,4.59,2.95,7.86,3.57" style="fill:none;stroke:#999;stroke-width:3" />
<path d="M797.6,40.41c1.4,0.84,2.76,0.77,3.83,0.67c8.71-0.87,26.38-2.59,31.21-2.91c3.14-0.21,4.03,1.62,3.86,3.08c-0.46,3.84-3.75,16.01-7.72,22.36c-3.5,5.59-4.28,4.15-7.37-0.31" style="fill:none;stroke:#999;stroke-width:3" />
<path d="M815.0,43.15c0.07,0.54,0.24,1.44-0.15,2.19c-4.35,8.44-11.1,15.47-25.35,22.32" style="fill:none;stroke:#999;stroke-width:3" />
<path d="M789.14,80.07c0.42,2.35-4.2,12.75-7.56,16.67" style="fill:none;stroke:#999;stroke-width:3" />
<path d="M797.58,76.75c6.8,11,17.54,20.55,43.75,20.68c12.64,0.07,13.47-3.93,2.92-8.94" style="fill:none;stroke:#999;stroke-width:3" />
<path d="M816.91,75.75c2.17,5.25,5.32,10.5,7.63,2.46" style="fill:none;stroke:#999;stroke-width:3" />
<path d="M843.38,69.98c5.02,2.32,8.78,4.43,12.85,11.61" style="fill:none;stroke:black;stroke-width:3" />
<circle cx="843.38" cy="69.98" r="5" stroke-width="0" fill="#FF2A00" opacity="0.7" />
</svg>