<!-- 0605a -->
<svg width="1090px" height="109px" viewBox="0 0 1090px 109px" xmlns="http://www.w3.org/2000/svg" xmlns:xlink="http://www.w3.org/1999/xlink" xml:space="preserve" version="1.1"  baseProfile="full">
<line x1="1" y1="1" x2="1089" y2="1" style="stroke:#ddd;stroke-width:2" />
<line x1="1" y1="1" x2="1" y2="108" style="stroke:#ddd;stroke-width:2" />
<line x1="1" y1="108" x2="1089" y2="108" style="stroke:#ddd;stroke-width:2" />
<line x1="1089" y1="1" x2="1089" y2="108" style="stroke:#ddd;stroke-width:2" />
<line x1="109" y1="1" x2="109" y2="108" style="stroke:#ddd;stroke-width:2" />
<line x1="218" y1="1" x2="218" y2="108" style="stroke:#ddd;stroke-width:2" />
<line x1="327" y1="1" x2="327" y2="108" style="stroke:#ddd;stroke-width:2" />
<line x1="436" y1="1" x2="436" y2="108" style="stroke:#ddd;stroke-width:2" />
<line x1="545" y1="1" x2="545" y2="108" style="stroke:#ddd;stroke-width:2" />
<line x1="654" y1="1" x2="654" y2="108" style="stroke:#ddd;stroke-width:2" />
<line x1="763" y1="1" x2="763" y2="108" style="stroke:#ddd;stroke-width:2" />
<line x1="872" y1="1" x2="872" y2="108" style="stroke:#ddd;stroke-width:2" />
<line x1="981" y1="1" x2="981" y2="108" style="stroke:#ddd;stroke-width:2" />
<line x1="1" y1="54" x2="1089" y2="54" style="stroke:#ddd;stroke-width:2;stroke-dasharray:3 3" />
<line x1="55" y1="1" x2="55" y2="108" style="stroke:#ddd;stroke-width:2;stroke-dasharray:3 3" />
<line x1="164" y1="1" x2="164" y2="108" style="stroke:#ddd;stroke-width:2;stroke-dasharray:3 3" />
<line x1="273" y1="1" x2="273" y2="108" style="stroke:#ddd;stroke-width:2;stroke-dasharray:3 3" />
<line x1="382" y1="1" x2="382" y2="108" style="stroke:#ddd;stroke-width:2;stroke-dasharray:3 3" />
<line x1="491" y1="1" x2="491" y2="108" style="stroke:#ddd;stroke-width:2;stroke-dasharray:3 3" />
<line x1="600" y1="1" x2="600" y2="108" style="stroke:#ddd;stroke-width:2;stroke-dasharray:3 3" />
<line x1="709" y1="1" x2="709" y2="108" style="stroke:#ddd;stroke-width:2;stroke-dasharray:3 3" />
<line x1="818" y1="1" x2="818" y2="108" style="stroke:#ddd;stroke-width:2;stroke-dasharray:3 3" />
<line x1="927" y1="1" x2="927" y2="108" style="stroke:#ddd;stroke-width:2;stroke-dasharray:3 3" />
<line x1="1036" y1="1" x2="1036" y2="108" style="stroke:#ddd;stroke-width:2;stroke-dasharray:3 3" />
<path d="M29.18,22.6c1.12,0.4,3.17,0.5,4.28,0.4c14.36-1.35,27.18-3.62,41.63-3.97c1.86-0.04,2.98,0.19,3.91,0.39" style="fill:none;stroke:black;stroke-width:3" />
<circle cx="29.18" cy="22.6" r="5" stroke-width="0" fill="#FF2A00" opacity="0.7" />
<path d="M138.18,22.6c1.12,0.4,3.17,0.5,4.28,0.4c14.36-1.35,27.18-3.62,41.63-3.97c1.86-0.04,2.98,0.19,3.91,0.39" style="fill:none;stroke:#999;stroke-width:3" />
<path d="M161.66,9.62c0.09,0.22,1.35,1.16,1.35,2.57c0,9.12,0.11,11.4,0.11,23.46" style="fill:none;stroke:black;stroke-width:3" />
<circle cx="161.66" cy="9.62" r="5" stroke-width="0" fill="#FF2A00" opacity="0.7" />
<path d="M247.18,22.6c1.12,0.4,3.17,0.5,4.28,0.4c14.36-1.35,27.18-3.62,41.63-3.97c1.86-0.04,2.98,0.19,3.91,0.39" style="fill:none;stroke:#999;stroke-width:3" />
<path d="M270.65999999999997,9.62c0.09,0.22,1.35,1.16,1.35,2.57c0,9.12,0.11,11.4,0.11,23.46" style="fill:none;stroke:#999;stroke-width:3" />
<path d="M240.42000000000002,37.69c1.43,0.57,4.05,0.69,5.47,0.57c17.66-1.59,37.87-3.15,53.66-3.9c2.38-0.11,3.8,0.27,4.99,0.55" style="fill:none;stroke:black;stroke-width:3" />
<circle cx="240.42000000000002" cy="37.69" r="5" stroke-width="0" fill="#FF2A00" opacity="0.7" />
<path d="M356.18,22.6c1.12,0.4,3.17,0.5,4.28,0.4c14.36-1.35,27.18-3.62,41.63-3.97c1.86-0.04,2.98,0.19,3.91,0.39" style="fill:none;stroke:#999;stroke-width:3" />
<path d="M379.65999999999997,9.62c0.09,0.22,1.35,1.16,1.35,2.57c0,9.12,0.11,11.4,0.11,23.46" style="fill:none;stroke:#999;stroke-width:3" />
<path d="M349.42,37.69c1.43,0.57,4.05,0.69,5.47,0.57c17.66-1.59,37.87-3.15,53.66-3.9c2.38-0.11,3.8,0.27,4.99,0.55" style="fill:none;stroke:#999;stroke-width:3" />
<path d="M356.55,53.2c0.93,0.36,2.63,0.46,3.56,0.36c11.93-1.23,31.4-3.83,43.41-4.15c1.55-0.04,2.48,0.17,3.25,0.35" style="fill:none;stroke:black;stroke-width:3" />
<circle cx="356.55" cy="53.2" r="5" stroke-width="0" fill="#FF2A00" opacity="0.7" />
<path d="M465.18,22.6c1.12,0.4,3.17,0.5,4.28,0.4c14.36-1.35,27.18-3.62,41.63-3.97c1.86-0.04,2.98,0.19,3.91,0.39" style="fill:none;stroke:#999;stroke-width:3" />
<path d="M488.65999999999997,9.62c0.09,0.22,1.35,1.16,1.35,2.57c0,9.12,0.11,11.4,0.11,23.46" style="fill:none;stroke:#999;stroke-width:3" />
<path d="M458.42,37.69c1.43,0.57,4.05,0.69,5.47,0.57c17.66-1.59,37.87-3.15,53.66-3.9c2.38-0.11,3.8,0.27,4.99,0.55" style="fill:none;stroke:#999;stroke-width:3" />
<path d="M465.55,53.2c0.93,0.36,2.63,0.46,3.56,0.36c11.93-1.23,31.4-3.83,43.41-4.15c1.55-0.04,2.48,0.17,3.25,0.35" style="fill:none;stroke:#999;stroke-width:3" />
<path d="M488.78,39.9c0.09,0.22,1.35,1.16,1.35,2.58c0,9.12,0.11,18.78,0.11,22.48" style="fill:none;stroke:black;stroke-width:3" />
<circle cx="488.78" cy="39.9" r="5" stroke-width="0" fill="#FF2A00" opacity="0.7" />
<path d="M574.1800000000001,22.6c1.12,0.4,3.17,0.5,4.28,0.4c14.36-1.35,27.18-3.62,41.63-3.97c1.86-0.04,2.98,0.19,3.91,0.39" style="fill:none;stroke:#999;stroke-width:3" />
<path d="M597.66,9.62c0.09,0.22,1.35,1.16,1.35,2.57c0,9.12,0.11,11.4,0.11,23.46" style="fill:none;stroke:#999;stroke-width:3" />
<path d="M567.4200000000001,37.69c1.43,0.57,4.05,0.69,5.47,0.57c17.66-1.59,37.87-3.15,53.66-3.9c2.38-0.11,3.8,0.27,4.99,0.55" style="fill:none;stroke:#999;stroke-width:3" />
<path d="M574.55,53.2c0.93,0.36,2.63,0.46,3.56,0.36c11.93-1.23,31.4-3.83,43.41-4.15c1.55-0.04,2.48,0.17,3.25,0.35" style="fill:none;stroke:#999;stroke-width:3" />
<path d="M597.78,39.9c0.09,0.22,1.35,1.16,1.35,2.58c0,9.12,0.11,18.78,0.11,22.48" style="fill:none;stroke:#999;stroke-width:3" />
<path d="M566.27,67.26c1.63,0.68,4.64,0.83,6.27,0.68c20.25-1.9,37.85-3.78,55.96-4.67c2.72-0.13,4.36,0.32,5.73,0.66" style="fill:none;stroke:black;stroke-width:3" />
<circle cx="566.27" cy="67.26" r="5" stroke-width="0" fill="#FF2A00" opacity="0.7" />
<path d="M683.1800000000001,22.6c1.12,0.4,3.17,0.5,4.28,0.4c14.36-1.35,27.18-3.62,41.63-3.97c1.86-0.04,2.98,0.19,3.91,0.39" style="fill:none;stroke:#999;stroke-width:3" />
<path d="M706.66,9.62c0.09,0.22,1.35,1.16,1.35,2.57c0,9.12,0.11,11.4,0.11,23.46" style="fill:none;stroke:#999;stroke-width:3" />
<path d="M676.4200000000001,37.69c1.43,0.57,4.05,0.69,5.47,0.57c17.66-1.59,37.87-3.15,53.66-3.9c2.38-0.11,3.8,0.27,4.99,0.55" style="fill:none;stroke:#999;stroke-width:3" />
<path d="M683.55,53.2c0.93,0.36,2.63,0.46,3.56,0.36c11.93-1.23,31.4-3.83,43.41-4.15c1.55-0.04,2.48,0.17,3.25,0.35" style="fill:none;stroke:#999;stroke-width:3" />
<path d="M706.78,39.9c0.09,0.22,1.35,1.16,1.35,2.58c0,9.12,0.11,18.78,0.11,22.48" style="fill:none;stroke:#999;stroke-width:3" />
<path d="M675.27,67.26c1.63,0.68,4.64,0.83,6.27,0.68c20.25-1.9,37.85-3.78,55.96-4.67c2.72-0.13,4.36,0.32,5.73,0.66" style="fill:none;stroke:#999;stroke-width:3" />
<path d="M679.14,81.07c0.47,2.21-4.75,11.98-8.56,15.67" style="fill:none;stroke:black;stroke-width:3" />
<circle cx="679.14" cy="81.07" r="5" stroke-width="0" fill="#FF2A00" opacity="0.7" />
<path d="M792.1800000000001,22.6c1.12,0.4,3.17,0.5,4.28,0.4c14.36-1.35,27.18-3.62,41.63-3.97c1.86-0.04,2.98,0.19,3.91,0.39" style="fill:none;stroke:#999;stroke-width:3" />
<path d="M815.66,9.62c0.09,0.22,1.35,1.16,1.35,2.57c0,9.12,0.11,11.4,0.11,23.46" style="fill:none;stroke:#999;stroke-width:3" />
<path d="M785.4200000000001,37.69c1.43,0.57,4.05,0.69,5.47,0.57c17.66-1.59,37.87-3.15,53.66-3.9c2.38-0.11,3.8,0.27,4.99,0.55" style="fill:none;stroke:#999;stroke-width:3" />
<path d="M792.55,53.2c0.93,0.36,2.63,0.46,3.56,0.36c11.93-1.23,31.4-3.83,43.41-4.15c1.55-0.04,2.48,0.17,3.25,0.35" style="fill:none;stroke:#999;stroke-width:3" />
<path d="M815.78,39.9c0.09,0.22,1.35,1.16,1.35,2.58c0,9.12,0.11,18.78,0.11,22.48" style="fill:none;stroke:#999;stroke-width:3" />
<path d="M784.27,67.26c1.63,0.68,4.64,0.83,6.27,0.68c20.25-1.9,37.85-3.78,55.96-4.67c2.72-0.13,4.36,0.32,5.73,0.66" style="fill:none;stroke:#999;stroke-width:3" />
<path d="M788.14,81.07c0.47,2.21-4.75,11.98-8.56,15.67" style="fill:none;stroke:#999;stroke-width:3" />
<path d="M797.58,74.75c6.07,13.13,15.67,24.52,39.09,24.68c11.3,0.08,12.04-3.5,2.61-9.47" style="fill:none;stroke:black;stroke-width:3" />
<circle cx="797.58" cy="74.75" r="5" stroke-width="0" fill="#FF2A00" opacity="0.7" />
<path d="M901.1800000000001,22.6c1.12,0.4,3.17,0.5,4.28,0.4c14.36-1.35,27.18-3.62,41.63-3.97c1.86-0.04,2.98,0.19,3.91,0.39" style="fill:none;stroke:#999;stroke-width:3" />
<path d="M924.66,9.62c0.09,0.22,1.35,1.16,1.35,2.57c0,9.12,0.11,11.4,0.11,23.46" style="fill:none;stroke:#999;stroke-width:3" />
<path d="M894.4200000000001,37.69c1.43,0.57,4.05,0.69,5.47,0.57c17.66-1.59,37.87-3.15,53.66-3.9c2.38-0.11,3.8,0.27,4.99,0.55" style="fill:none;stroke:#999;stroke-width:3" />
<path d="M901.55,53.2c0.93,0.36,2.63,0.46,3.56,0.36c11.93-1.23,31.4-3.83,43.41-4.15c1.55-0.04,2.48,0.17,3.25,0.35" style="fill:none;stroke:#999;stroke-width:3" />
<path d="M924.78,39.9c0.09,0.22,1.35,1.16,1.35,2.58c0,9.12,0.11,18.78,0.11,22.48" style="fill:none;stroke:#999;stroke-width:3" />
<path d="M893.27,67.26c1.63,0.68,4.64,0.83,6.27,0.68c20.25-1.9,37.85-3.78,55.96-4.67c2.72-0.13,4.36,0.32,5.73,0.66" style="fill:none;stroke:#999;stroke-width:3" />
<path d="M897.14,81.07c0.47,2.21-4.75,11.98-8.56,15.67" style="fill:none;stroke:#999;stroke-width:3" />
<path d="M906.58,74.75c6.07,13.13,15.67,24.52,39.09,24.68c11.3,0.08,12.04-3.5,2.61-9.47" style="fill:none;stroke:#999;stroke-width:3" />
<path d="M926.41,74.75c2.17,5.25,5.32,10.5,7.63,2.46" style="fill:none;stroke:black;stroke-width:3" />
<circle cx="926.41" cy="74.75" r="5" stroke-width="0" fill="#FF2A00" opacity="0.7" />
<path d="M1010.1800000000001,22.6c1.12,0.4,3.17,0.5,4.28,0.4c14.36-1.35,27.18-3.62,41.63-3.97c1.86-0.04,2.98,0.19,3.91,0.39" style="fill:none;stroke:#999;stroke-width:3" />
<path d="M1033.6599999999999,9.62c0.09,0.22,1.35,1.16,1.35,2.57c0,9.12,0.11,11.4,0.11,23.46" style="fill:none;stroke:#999;stroke-width:3" />
<path d="M1003.4200000000001,37.69c1.43,0.57,4.05,0.69,5.47,0.57c17.66-1.59,37.87-3.15,53.66-3.9c2.38-0.11,3.8,0.27,4.99,0.55" style="fill:none;stroke:#999;stroke-width:3" />
<path d="M1010.55,53.2c0.93,0.36,2.63,0.46,3.56,0.36c11.93-1.23,31.4-3.83,43.41-4.15c1.55-0.04,2.48,0.17,3.25,0.35" style="fill:none;stroke:#999;stroke-width:3" />
<path d="M1033.78,39.9c0.09,0.22,1.35,1.16,1.35,2.58c0,9.12,0.11,18.78,0.11,22.48" style="fill:none;stroke:#999;stroke-width:3" />
<path d="M1002.27,67.26c1.63,0.68,4.64,0.83,6.27,0.68c20.25-1.9,37.85-3.78,55.96-4.67c2.72-0.13,4.36,0.32,5.73,0.66" style="fill:none;stroke:#999;stroke-width:3" />
<path d="M1006.14,81.07c0.47,2.21-4.75,11.98-8.56,15.67" style="fill:none;stroke:#999;stroke-width:3" />
<path d="M1015.58,74.75c6.07,13.13,15.67,24.52,39.09,24.68c11.3,0.08,12.04-3.5,2.61-9.47" style="fill:none;stroke:#999;stroke-width:3" />
<path d="M1035.4099999999999,74.75c2.17,5.25,5.32,10.5,7.63,2.46" style="fill:none;stroke:#999;stroke-width:3" />
<path d="M1061.88,74.73c4.63,2.07,8.09,3.96,11.85,10.36" style="fill:none;stroke:black;stroke-width:3" />
<circle cx="1061.88" cy="74.73" r="5" stroke-width="0" fill="#FF2A00" opacity="0.7" />
</svg>