<!-- 0606d -->
<svg width="1090px" height="109px" viewBox="0 0 1090px 109px" xmlns="http://www.w3.org/2000/svg" xmlns:xlink="http://www.w3.org/1999/xlink" xml:space="preserve" version="1.1"  baseProfile="full">
<line x1="1" y1="1" x2="1089" y2="1" style="stroke:#ddd;stroke-width:2" />
<line x1="1" y1="1" x2="1" y2="108" style="stroke:#ddd;stroke-width:2" />
<line x1="1" y1="108" x2="1089" y2="108" style="stroke:#ddd;stroke-width:2" />
<line x1="1089" y1="1" x2="1089" y2="108" style="stroke:#ddd;stroke-width:2" />
<line x1="109" y1="1" x2="109" y2="108" style="stroke:#ddd;stroke-width:2" />
<line x1="218" y1="1" x2="218" y2="108" style="stroke:#ddd;stroke-width:2" />
<line x1="327" y1="1" x2="327" y2="108" style="stroke:#ddd;stroke-width:2" />
<line x1="436" y1="1" x2="436" y2="108" style="stroke:#ddd;stroke-width:2" />
<line x1="545" y1="1" x2="545" y2="108" style="stroke:#ddd;stroke-width:2" />
<line x1="654" y1="1" x2="654" y2="108" style="stroke:#ddd;stroke-width:2" />
<line x1="763" y1="1" x2="763" y2="108" style="stroke:#ddd;stroke-width:2" />
<line x1="872" y1="1" x2="872" y2="108" style="stroke:#ddd;stroke-width:2" />
<line x1="981" y1="1" x2="981" y2="108" style="stroke:#ddd;stroke-width:2" />
<line x1="1" y1="54" x2="1089" y2="54" style="stroke:#ddd;stroke-width:2;stroke-dasharray:3 3" />
<line x1="55" y1="1" x2="55" y2="108" style="stroke:#ddd;stroke-width:2;stroke-dasharray:3 3" />
<line x1="164" y1="1" x2="164" y2="108" style="stroke:#ddd;stroke-width:2;stroke-dasharray:3 3" />
<line x1="273" y1="1" x2="273" y2="108" style="stroke:#ddd;stroke-width:2;stroke-dasharray:3 3" />
<line x1="382" y1="1" x2="382" y2="108" style="stroke:#ddd;stroke-width:2;stroke-dasharray:3 3" />
<line x1="491" y1="1" x2="491" y2="108" style="stroke:#ddd;stroke-width:2;stroke-dasharray:3 3" />
<line x1="600" y1="1" x2="600" y2="108" style="stroke:#ddd;stroke-width:2;stroke-dasharray:3 3" />
<line x1="709" y1="1" x2="709" y2="108" style="stroke:#ddd;stroke-width:2;stroke-dasharray:3 3" />
<line x1="818" y1="1" x2="818" y2="108" style="stroke:#ddd;stroke-width:2;stroke-dasharray:3 3" />
<line x1="927" y1="1" x2="927" y2="108" style="stroke:#ddd;stroke-width:2;stroke-dasharray:3 3" />
<line x1="1036" y1="1" x2="1036" y2="108" style="stroke:#ddd;stroke-width:2;stroke-dasharray:3 3" />
<path d="M26.43,28c2.29,0.67,5.23,0.35,7.57,0.06c8.77-1.07,28.93-3.27,39.25-3.94c2.41-0.16,4.85-0.29,7.24,0.13" style="fill:none;stroke:black;stroke-width:3" />
<circle cx="26.43" cy="28.0" r="5" stroke-width="0" fill="#FF2A00" opacity="0.7" />
<path d="M135.43,28c2.29,0.67,5.23,0.35,7.57,0.06c8.77-1.07,28.93-3.27,39.25-3.94c2.41-0.16,4.85-0.29,7.24,0.13" style="fill:none;stroke:#999;stroke-width:3" />
<path d="M147.45,14.98c1.43,0.77,1.94,1.96,2,3.24c0.3,6.28,1.28,19.58,1.76,26" style="fill:none;stroke:black;stroke-width:3" />
<circle cx="147.45" cy="14.98" r="5" stroke-width="0" fill="#FF2A00" opacity="0.7" />
<path d="M244.43,28c2.29,0.67,5.23,0.35,7.57,0.06c8.77-1.07,28.93-3.27,39.25-3.94c2.41-0.16,4.85-0.29,7.24,0.13" style="fill:none;stroke:#999;stroke-width:3" />
<path d="M256.45,14.98c1.43,0.77,1.94,1.96,2,3.24c0.3,6.28,1.28,19.58,1.76,26" style="fill:none;stroke:#999;stroke-width:3" />
<path d="M285.18,12.75c0.82,1,0.97,2.27,0.65,4.03C284.0,26.88 283.0,32.62 281.31,42.61" style="fill:none;stroke:black;stroke-width:3" />
<circle cx="285.18" cy="12.75" r="5" stroke-width="0" fill="#FF2A00" opacity="0.7" />
<path d="M353.43,28c2.29,0.67,5.23,0.35,7.57,0.06c8.77-1.07,28.93-3.27,39.25-3.94c2.41-0.16,4.85-0.29,7.24,0.13" style="fill:none;stroke:#999;stroke-width:3" />
<path d="M365.45,14.98c1.43,0.77,1.94,1.96,2,3.24c0.3,6.28,1.28,19.58,1.76,26" style="fill:none;stroke:#999;stroke-width:3" />
<path d="M394.18,12.75c0.82,1,0.97,2.27,0.65,4.03C393.0,26.88 392.0,32.62 390.31,42.61" style="fill:none;stroke:#999;stroke-width:3" />
<path d="M342.25,47.41c3.21,0.92,6.74,0.34,9.99,0.03c13.44-1.28,45.33-4.91,59.26-5.8c2.96-0.19,5.82-0.27,8.75,0.23" style="fill:none;stroke:black;stroke-width:3" />
<circle cx="342.25" cy="47.41" r="5" stroke-width="0" fill="#FF2A00" opacity="0.7" />
<path d="M462.43,28c2.29,0.67,5.23,0.35,7.57,0.06c8.77-1.07,28.93-3.27,39.25-3.94c2.41-0.16,4.85-0.29,7.24,0.13" style="fill:none;stroke:#999;stroke-width:3" />
<path d="M474.45,14.98c1.43,0.77,1.94,1.96,2,3.24c0.3,6.28,1.28,19.58,1.76,26" style="fill:none;stroke:#999;stroke-width:3" />
<path d="M503.18,12.75c0.82,1,0.97,2.27,0.65,4.03C502.0,26.88 501.0,32.62 499.31,42.61" style="fill:none;stroke:#999;stroke-width:3" />
<path d="M451.25,47.41c3.21,0.92,6.74,0.34,9.99,0.03c13.44-1.28,45.33-4.91,59.26-5.8c2.96-0.19,5.82-0.27,8.75,0.23" style="fill:none;stroke:#999;stroke-width:3" />
<path d="M475.47,49.59c0.1,0.81-0.38,2.34-0.91,2.93c-4.8,5.35-13.98,13.92-25.73,21.31" style="fill:none;stroke:black;stroke-width:3" />
<circle cx="475.47" cy="49.59" r="5" stroke-width="0" fill="#FF2A00" opacity="0.7" />
<path d="M571.4300000000001,28c2.29,0.67,5.23,0.35,7.57,0.06c8.77-1.07,28.93-3.27,39.25-3.94c2.41-0.16,4.85-0.29,7.24,0.13" style="fill:none;stroke:#999;stroke-width:3" />
<path d="M583.45,14.98c1.43,0.77,1.94,1.96,2,3.24c0.3,6.28,1.28,19.58,1.76,26" style="fill:none;stroke:#999;stroke-width:3" />
<path d="M612.1800000000001,12.75c0.82,1,0.97,2.27,0.65,4.03C611.0,26.88 610.0,32.62 608.31,42.61" style="fill:none;stroke:#999;stroke-width:3" />
<path d="M560.25,47.41c3.21,0.92,6.74,0.34,9.99,0.03c13.44-1.28,45.33-4.91,59.26-5.8c2.96-0.19,5.82-0.27,8.75,0.23" style="fill:none;stroke:#999;stroke-width:3" />
<path d="M584.47,49.59c0.1,0.81-0.38,2.34-0.91,2.93c-4.8,5.35-13.98,13.92-25.73,21.31" style="fill:none;stroke:#999;stroke-width:3" />
<path d="M602.25,45c4.62,4.25,17.02,14.26,25.08,20.54c2.83,2.21,5.54,3.83,9.17,5.21" style="fill:none;stroke:black;stroke-width:3" />
<circle cx="602.25" cy="45.0" r="5" stroke-width="0" fill="#FF2A00" opacity="0.7" />
<path d="M680.4300000000001,28c2.29,0.67,5.23,0.35,7.57,0.06c8.77-1.07,28.93-3.27,39.25-3.94c2.41-0.16,4.85-0.29,7.24,0.13" style="fill:none;stroke:#999;stroke-width:3" />
<path d="M692.45,14.98c1.43,0.77,1.94,1.96,2,3.24c0.3,6.28,1.28,19.58,1.76,26" style="fill:none;stroke:#999;stroke-width:3" />
<path d="M721.1800000000001,12.75c0.82,1,0.97,2.27,0.65,4.03C720.0,26.88 719.0,32.62 717.31,42.61" style="fill:none;stroke:#999;stroke-width:3" />
<path d="M669.25,47.41c3.21,0.92,6.74,0.34,9.99,0.03c13.44-1.28,45.33-4.91,59.26-5.8c2.96-0.19,5.82-0.27,8.75,0.23" style="fill:none;stroke:#999;stroke-width:3" />
<path d="M693.47,49.59c0.1,0.81-0.38,2.34-0.91,2.93c-4.8,5.35-13.98,13.92-25.73,21.31" style="fill:none;stroke:#999;stroke-width:3" />
<path d="M711.25,45c4.62,4.25,17.02,14.26,25.08,20.54c2.83,2.21,5.54,3.83,9.17,5.21" style="fill:none;stroke:#999;stroke-width:3" />
<path d="M699.49,57.83c1.03,1.03,1.32,2.54,1.32,4.5c0,6.29,0.02,23.71,0.02,28.15c0,9.31-5.71,1.34-7.05,0.22" style="fill:none;stroke:black;stroke-width:3" />
<circle cx="699.49" cy="57.83" r="5" stroke-width="0" fill="#FF2A00" opacity="0.7" />
<path d="M789.4300000000001,28c2.29,0.67,5.23,0.35,7.57,0.06c8.77-1.07,28.93-3.27,39.25-3.94c2.41-0.16,4.85-0.29,7.24,0.13" style="fill:none;stroke:#999;stroke-width:3" />
<path d="M801.45,14.98c1.43,0.77,1.94,1.96,2,3.24c0.3,6.28,1.28,19.58,1.76,26" style="fill:none;stroke:#999;stroke-width:3" />
<path d="M830.1800000000001,12.75c0.82,1,0.97,2.27,0.65,4.03C829.0,26.88 828.0,32.62 826.31,42.61" style="fill:none;stroke:#999;stroke-width:3" />
<path d="M778.25,47.41c3.21,0.92,6.74,0.34,9.99,0.03c13.44-1.28,45.33-4.91,59.26-5.8c2.96-0.19,5.82-0.27,8.75,0.23" style="fill:none;stroke:#999;stroke-width:3" />
<path d="M802.47,49.59c0.1,0.81-0.38,2.34-0.91,2.93c-4.8,5.35-13.98,13.92-25.73,21.31" style="fill:none;stroke:#999;stroke-width:3" />
<path d="M820.25,45c4.62,4.25,17.02,14.26,25.08,20.54c2.83,2.21,5.54,3.83,9.17,5.21" style="fill:none;stroke:#999;stroke-width:3" />
<path d="M808.49,57.83c1.03,1.03,1.32,2.54,1.32,4.5c0,6.29,0.02,23.71,0.02,28.15c0,9.31-5.71,1.34-7.05,0.22" style="fill:none;stroke:#999;stroke-width:3" />
<path d="M793.38,75.62c0,5.29-5.85,13.11-7.38,14.62" style="fill:none;stroke:black;stroke-width:3" />
<circle cx="793.38" cy="75.62" r="5" stroke-width="0" fill="#FF2A00" opacity="0.7" />
<path d="M898.4300000000001,28c2.29,0.67,5.23,0.35,7.57,0.06c8.77-1.07,28.93-3.27,39.25-3.94c2.41-0.16,4.85-0.29,7.24,0.13" style="fill:none;stroke:#999;stroke-width:3" />
<path d="M910.45,14.98c1.43,0.77,1.94,1.96,2,3.24c0.3,6.28,1.28,19.58,1.76,26" style="fill:none;stroke:#999;stroke-width:3" />
<path d="M939.1800000000001,12.75c0.82,1,0.97,2.27,0.65,4.03C938.0,26.88 937.0,32.62 935.31,42.61" style="fill:none;stroke:#999;stroke-width:3" />
<path d="M887.25,47.41c3.21,0.92,6.74,0.34,9.99,0.03c13.44-1.28,45.33-4.91,59.26-5.8c2.96-0.19,5.82-0.27,8.75,0.23" style="fill:none;stroke:#999;stroke-width:3" />
<path d="M911.47,49.59c0.1,0.81-0.38,2.34-0.91,2.93c-4.8,5.35-13.98,13.92-25.73,21.31" style="fill:none;stroke:#999;stroke-width:3" />
<path d="M929.25,45c4.62,4.25,17.02,14.26,25.08,20.54c2.83,2.21,5.54,3.83,9.17,5.21" style="fill:none;stroke:#999;stroke-width:3" />
<path d="M917.49,57.83c1.03,1.03,1.32,2.54,1.32,4.5c0,6.29,0.02,23.71,0.02,28.15c0,9.31-5.71,1.34-7.05,0.22" style="fill:none;stroke:#999;stroke-width:3" />
<path d="M902.38,75.62c0,5.29-5.85,13.11-7.38,14.62" style="fill:none;stroke:#999;stroke-width:3" />
<path d="M931.0,71.75c2.32,3.08,5.98,12.67,6.56,17.47" style="fill:none;stroke:black;stroke-width:3" />
<circle cx="931.0" cy="71.75" r="5" stroke-width="0" fill="#FF2A00" opacity="0.7" />
<path d="M1007.4300000000001,28c2.29,0.67,5.23,0.35,7.57,0.06c8.77-1.07,28.93-3.27,39.25-3.94c2.41-0.16,4.85-0.29,7.24,0.13" style="fill:none;stroke:#999;stroke-width:3" />
<path d="M1019.45,14.98c1.43,0.77,1.94,1.96,2,3.24c0.3,6.28,1.28,19.58,1.76,26" style="fill:none;stroke:#999;stroke-width:3" />
<path d="M1048.18,12.75c0.82,1,0.97,2.27,0.65,4.03C1047.0,26.88 1046.0,32.62 1044.31,42.61" style="fill:none;stroke:#999;stroke-width:3" />
<path d="M996.25,47.41c3.21,0.92,6.74,0.34,9.99,0.03c13.44-1.28,45.33-4.91,59.26-5.8c2.96-0.19,5.82-0.27,8.75,0.23" style="fill:none;stroke:#999;stroke-width:3" />
<path d="M1020.47,49.59c0.1,0.81-0.38,2.34-0.91,2.93c-4.8,5.35-13.98,13.92-25.73,21.31" style="fill:none;stroke:#999;stroke-width:3" />
<path d="M1038.25,45c4.62,4.25,17.02,14.26,25.08,20.54c2.83,2.21,5.54,3.83,9.17,5.21" style="fill:none;stroke:#999;stroke-width:3" />
<path d="M1026.49,57.83c1.03,1.03,1.32,2.54,1.32,4.5c0,6.29,0.02,23.71,0.02,28.15c0,9.31-5.71,1.34-7.05,0.22" style="fill:none;stroke:#999;stroke-width:3" />
<path d="M1011.38,75.62c0,5.29-5.85,13.11-7.38,14.62" style="fill:none;stroke:#999;stroke-width:3" />
<path d="M1040.0,71.75c2.32,3.08,5.98,12.67,6.56,17.47" style="fill:none;stroke:#999;stroke-width:3" />
<path d="M1053.12,71.38c3.24,2.79,8.37,11.49,9.18,15.84" style="fill:none;stroke:black;stroke-width:3" />
<circle cx="1053.12" cy="71.38" r="5" stroke-width="0" fill="#FF2A00" opacity="0.7" />
</svg>