<!-- 06089 -->
<svg width="1199px" height="109px" viewBox="0 0 1199px 109px" xmlns="http://www.w3.org/2000/svg" xmlns:xlink="http://www.w3.org/1999/xlink" xml:space="preserve" version="1.1"  baseProfile="full">
<line x1="1" y1="1" x2="1198" y2="1" style="stroke:#ddd;stroke-width:2" />
<line x1="1" y1="1" x2="1" y2="108" style="stroke:#ddd;stroke-width:2" />
<line x1="1" y1="108" x2="1198" y2="108" style="stroke:#ddd;stroke-width:2" />
<line x1="1198" y1="1" x2="1198" y2="108" style="stroke:#ddd;stroke-width:2" />
<line x1="109" y1="1" x2="109" y2="108" style="stroke:#ddd;stroke-width:2" />
<line x1="218" y1="1" x2="218" y2="108" style="stroke:#ddd;stroke-width:2" />
<line x1="327" y1="1" x2="327" y2="108" style="stroke:#ddd;stroke-width:2" />
<line x1="436" y1="1" x2="436" y2="108" style="stroke:#ddd;stroke-width:2" />
<line x1="545" y1="1" x2="545" y2="108" style="stroke:#ddd;stroke-width:2" />
<line x1="654" y1="1" x2="654" y2="108" style="stroke:#ddd;stroke-width:2" />
<line x1="763" y1="1" x2="763" y2="108" style="stroke:#ddd;stroke-width:2" />
<line x1="872" y1="1" x2="872" y2="108" style="stroke:#ddd;stroke-width:2" />
<line x1="981" y1="1" x2="981" y2="108" style="stroke:#ddd;stroke-width:2" />
<line x1="1090" y1="1" x2="1090" y2="108" style="stroke:#ddd;stroke-width:2" />
<line x1="1" y1="54" x2="1198" y2="54" style="stroke:#ddd;stroke-width:2;stroke-dasharray:3 3" />
<line x1="55" y1="1" x2="55" y2="108" style="stroke:#ddd;stroke-width:2;stroke-dasharray:3 3" />
<line x1="164" y1="1" x2="164" y2="108" style="stroke:#ddd;stroke-width:2;stroke-dasharray:3 3" />
<line x1="273" y1="1" x2="273" y2="108" style="stroke:#ddd;stroke-width:2;stroke-dasharray:3 3" />
<line x1="382" y1="1" x2="382" y2="108" style="stroke:#ddd;stroke-width:2;stroke-dasharray:3 3" />
<line x1="491" y1="1" x2="491" y2="108" style="stroke:#ddd;stroke-width:2;stroke-dasharray:3 3" />
<line x1="600" y1="1" x2="600" y2="108" style="stroke:#ddd;stroke-width:2;stroke-dasharray:3 3" />
<line x1="709" y1="1" x2="709" y2="108" style="stroke:#ddd;stroke-width:2;stroke-dasharray:3 3" />
<line x1="818" y1="1" x2="818" y2="108" style="stroke:#ddd;stroke-width:2;stroke-dasharray:3 3" />
<line x1="927" y1="1" x2="927" y2="108" style="stroke:#ddd;stroke-width:2;stroke-dasharray:3 3" />
<line x1="1036" y1="1" x2="1036" y2="108" style="stroke:#ddd;stroke-width:2;stroke-dasharray:3 3" />
<line x1="1145" y1="1" x2="1145" y2="108" style="stroke:#ddd;stroke-width:2;stroke-dasharray:3 3" />
<path d="M73.43,10.89c-0.43,0.98-1.34,1.86-2.68,2.47c-7.12,3.26-24.97,7.53-44.25,8.89" style="fill:none;stroke:black;stroke-width:3" />
<circle cx="73.43" cy="10.89" r="5" stroke-width="0" fill="#FF2A00" opacity="0.7" />
<path d="M182.43,10.89c-0.43,0.98-1.34,1.86-2.68,2.47c-7.12,3.26-24.97,7.53-44.25,8.89" style="fill:none;stroke:#999;stroke-width:3" />
<path d="M140.5,26.25c2.45,1.82,6.14,6.95,6.75,9.77" style="fill:none;stroke:black;stroke-width:3" />
<circle cx="140.5" cy="26.25" r="5" stroke-width="0" fill="#FF2A00" opacity="0.7" />
<path d="M291.43,10.89c-0.43,0.98-1.34,1.86-2.68,2.47c-7.12,3.26-24.97,7.53-44.25,8.89" style="fill:none;stroke:#999;stroke-width:3" />
<path d="M249.5,26.25c2.45,1.82,6.14,6.95,6.75,9.77" style="fill:none;stroke:#999;stroke-width:3" />
<path d="M295.26,20.5c0,1-0.23,1.69-0.67,2.3c-1.81,3.42-4.1,6.33-9.47,10.95" style="fill:none;stroke:black;stroke-width:3" />
<circle cx="295.26" cy="20.5" r="5" stroke-width="0" fill="#FF2A00" opacity="0.7" />
<path d="M400.43,10.89c-0.43,0.98-1.34,1.86-2.68,2.47c-7.12,3.26-24.97,7.53-44.25,8.89" style="fill:none;stroke:#999;stroke-width:3" />
<path d="M358.5,26.25c2.45,1.82,6.14,6.95,6.75,9.77" style="fill:none;stroke:#999;stroke-width:3" />
<path d="M404.26,20.5c0,1-0.23,1.69-0.67,2.3c-1.81,3.42-4.1,6.33-9.47,10.95" style="fill:none;stroke:#999;stroke-width:3" />
<path d="M343.75,40.42c4.84,0.42,9.68,0.27,14.52-0.3c13.44-1.59,34.23-3,47.35-3.96c4.41-0.32,8.76-0.63,13.13-0.19" style="fill:none;stroke:black;stroke-width:3" />
<circle cx="343.75" cy="40.42" r="5" stroke-width="0" fill="#FF2A00" opacity="0.7" />
<path d="M509.43,10.89c-0.43,0.98-1.34,1.86-2.68,2.47c-7.12,3.26-24.97,7.53-44.25,8.89" style="fill:none;stroke:#999;stroke-width:3" />
<path d="M467.5,26.25c2.45,1.82,6.14,6.95,6.75,9.77" style="fill:none;stroke:#999;stroke-width:3" />
<path d="M513.26,20.5c0,1-0.23,1.69-0.67,2.3c-1.81,3.42-4.1,6.33-9.47,10.95" style="fill:none;stroke:#999;stroke-width:3" />
<path d="M452.75,40.42c4.84,0.42,9.68,0.27,14.52-0.3c13.44-1.59,34.23-3,47.35-3.96c4.41-0.32,8.76-0.63,13.13-0.19" style="fill:none;stroke:#999;stroke-width:3" />
<path d="M489.25,21c0.94,0.94,1.25,2.12,1.25,3.22c0,0.78,0,21.36,0,34.28c0,4.08,0,7.38,0,9" style="fill:none;stroke:black;stroke-width:3" />
<circle cx="489.25" cy="21.0" r="5" stroke-width="0" fill="#FF2A00" opacity="0.7" />
<path d="M618.4300000000001,10.89c-0.43,0.98-1.34,1.86-2.68,2.47c-7.12,3.26-24.97,7.53-44.25,8.89" style="fill:none;stroke:#999;stroke-width:3" />
<path d="M576.5,26.25c2.45,1.82,6.14,6.95,6.75,9.77" style="fill:none;stroke:#999;stroke-width:3" />
<path d="M622.26,20.5c0,1-0.23,1.69-0.67,2.3c-1.81,3.42-4.1,6.33-9.47,10.95" style="fill:none;stroke:#999;stroke-width:3" />
<path d="M561.75,40.42c4.84,0.42,9.68,0.27,14.52-0.3c13.44-1.59,34.23-3,47.35-3.96c4.41-0.32,8.76-0.63,13.13-0.19" style="fill:none;stroke:#999;stroke-width:3" />
<path d="M598.25,21c0.94,0.94,1.25,2.12,1.25,3.22c0,0.78,0,21.36,0,34.28c0,4.08,0,7.38,0,9" style="fill:none;stroke:#999;stroke-width:3" />
<path d="M597.25,38.69C597.0,40 596.0,41.25 594.98,42.54c-7.09,8.9-19.44,17.82-34.73,22.05" style="fill:none;stroke:black;stroke-width:3" />
<circle cx="597.25" cy="38.69" r="5" stroke-width="0" fill="#FF2A00" opacity="0.7" />
<path d="M727.4300000000001,10.89c-0.43,0.98-1.34,1.86-2.68,2.47c-7.12,3.26-24.97,7.53-44.25,8.89" style="fill:none;stroke:#999;stroke-width:3" />
<path d="M685.5,26.25c2.45,1.82,6.14,6.95,6.75,9.77" style="fill:none;stroke:#999;stroke-width:3" />
<path d="M731.26,20.5c0,1-0.23,1.69-0.67,2.3c-1.81,3.42-4.1,6.33-9.47,10.95" style="fill:none;stroke:#999;stroke-width:3" />
<path d="M670.75,40.42c4.84,0.42,9.68,0.27,14.52-0.3c13.44-1.59,34.23-3,47.35-3.96c4.41-0.32,8.76-0.63,13.13-0.19" style="fill:none;stroke:#999;stroke-width:3" />
<path d="M707.25,21c0.94,0.94,1.25,2.12,1.25,3.22c0,0.78,0,21.36,0,34.28c0,4.08,0,7.38,0,9" style="fill:none;stroke:#999;stroke-width:3" />
<path d="M706.25,38.69C706.0,40 705.0,41.25 703.98,42.54c-7.09,8.9-19.44,17.82-34.73,22.05" style="fill:none;stroke:#999;stroke-width:3" />
<path d="M710.0,38.68c3.62,2.45,13.75,9.82,22.13,15.51c4.29,2.91,8.91,5.07,13.87,6.43" style="fill:none;stroke:black;stroke-width:3" />
<circle cx="710.0" cy="38.68" r="5" stroke-width="0" fill="#FF2A00" opacity="0.7" />
<path d="M836.4300000000001,10.89c-0.43,0.98-1.34,1.86-2.68,2.47c-7.12,3.26-24.97,7.53-44.25,8.89" style="fill:none;stroke:#999;stroke-width:3" />
<path d="M794.5,26.25c2.45,1.82,6.14,6.95,6.75,9.77" style="fill:none;stroke:#999;stroke-width:3" />
<path d="M840.26,20.5c0,1-0.23,1.69-0.67,2.3c-1.81,3.42-4.1,6.33-9.47,10.95" style="fill:none;stroke:#999;stroke-width:3" />
<path d="M779.75,40.42c4.84,0.42,9.68,0.27,14.52-0.3c13.44-1.59,34.23-3,47.35-3.96c4.41-0.32,8.76-0.63,13.13-0.19" style="fill:none;stroke:#999;stroke-width:3" />
<path d="M816.25,21c0.94,0.94,1.25,2.12,1.25,3.22c0,0.78,0,21.36,0,34.28c0,4.08,0,7.38,0,9" style="fill:none;stroke:#999;stroke-width:3" />
<path d="M815.25,38.69C815.0,40 814.0,41.25 812.98,42.54c-7.09,8.9-19.44,17.82-34.73,22.05" style="fill:none;stroke:#999;stroke-width:3" />
<path d="M819.0,38.68c3.62,2.45,13.75,9.82,22.13,15.51c4.29,2.91,8.91,5.07,13.87,6.43" style="fill:none;stroke:#999;stroke-width:3" />
<path d="M787.4,79.45c0.32,2.39-3.73,12.68-6.32,16.67" style="fill:none;stroke:black;stroke-width:3" />
<circle cx="787.4" cy="79.45" r="5" stroke-width="0" fill="#FF2A00" opacity="0.7" />
<path d="M945.4300000000001,10.89c-0.43,0.98-1.34,1.86-2.68,2.47c-7.12,3.26-24.97,7.53-44.25,8.89" style="fill:none;stroke:#999;stroke-width:3" />
<path d="M903.5,26.25c2.45,1.82,6.14,6.95,6.75,9.77" style="fill:none;stroke:#999;stroke-width:3" />
<path d="M949.26,20.5c0,1-0.23,1.69-0.67,2.3c-1.81,3.42-4.1,6.33-9.47,10.95" style="fill:none;stroke:#999;stroke-width:3" />
<path d="M888.75,40.42c4.84,0.42,9.68,0.27,14.52-0.3c13.44-1.59,34.23-3,47.35-3.96c4.41-0.32,8.76-0.63,13.13-0.19" style="fill:none;stroke:#999;stroke-width:3" />
<path d="M925.25,21c0.94,0.94,1.25,2.12,1.25,3.22c0,0.78,0,21.36,0,34.28c0,4.08,0,7.38,0,9" style="fill:none;stroke:#999;stroke-width:3" />
<path d="M924.25,38.69C924.0,40 923.0,41.25 921.98,42.54c-7.09,8.9-19.44,17.82-34.73,22.05" style="fill:none;stroke:#999;stroke-width:3" />
<path d="M928.0,38.68c3.62,2.45,13.75,9.82,22.13,15.51c4.29,2.91,8.91,5.07,13.87,6.43" style="fill:none;stroke:#999;stroke-width:3" />
<path d="M896.4,79.45c0.32,2.39-3.73,12.68-6.32,16.67" style="fill:none;stroke:#999;stroke-width:3" />
<path d="M908.58,74.8c6.61,12.44,17.06,23.23,42.53,23.39c12.29,0.08,13.6-3.57,3.34-9.23" style="fill:none;stroke:black;stroke-width:3" />
<circle cx="908.58" cy="74.8" r="5" stroke-width="0" fill="#FF2A00" opacity="0.7" />
<path d="M1054.43,10.89c-0.43,0.98-1.34,1.86-2.68,2.47c-7.12,3.26-24.97,7.53-44.25,8.89" style="fill:none;stroke:#999;stroke-width:3" />
<path d="M1012.5,26.25c2.45,1.82,6.14,6.95,6.75,9.77" style="fill:none;stroke:#999;stroke-width:3" />
<path d="M1058.26,20.5c0,1-0.23,1.69-0.67,2.3c-1.81,3.42-4.1,6.33-9.47,10.95" style="fill:none;stroke:#999;stroke-width:3" />
<path d="M997.75,40.42c4.84,0.42,9.68,0.27,14.52-0.3c13.44-1.59,34.23-3,47.35-3.96c4.41-0.32,8.76-0.63,13.13-0.19" style="fill:none;stroke:#999;stroke-width:3" />
<path d="M1034.25,21c0.94,0.94,1.25,2.12,1.25,3.22c0,0.78,0,21.36,0,34.28c0,4.08,0,7.38,0,9" style="fill:none;stroke:#999;stroke-width:3" />
<path d="M1033.25,38.69C1033.0,40 1032.0,41.25 1030.98,42.54c-7.09,8.9-19.44,17.82-34.73,22.05" style="fill:none;stroke:#999;stroke-width:3" />
<path d="M1037.0,38.68c3.62,2.45,13.75,9.82,22.13,15.51c4.29,2.91,8.91,5.07,13.87,6.43" style="fill:none;stroke:#999;stroke-width:3" />
<path d="M1005.4,79.45c0.32,2.39-3.73,12.68-6.32,16.67" style="fill:none;stroke:#999;stroke-width:3" />
<path d="M1017.58,74.8c6.61,12.44,17.06,23.23,42.53,23.39c12.29,0.08,13.6-3.57,3.34-9.23" style="fill:none;stroke:#999;stroke-width:3" />
<path d="M1036.41,75.25c1.88,4.3,4.12,8.1,6.13,1.52" style="fill:none;stroke:black;stroke-width:3" />
<circle cx="1036.41" cy="75.25" r="5" stroke-width="0" fill="#FF2A00" opacity="0.7" />
<path d="M1163.43,10.89c-0.43,0.98-1.34,1.86-2.68,2.47c-7.12,3.26-24.97,7.53-44.25,8.89" style="fill:none;stroke:#999;stroke-width:3" />
<path d="M1121.5,26.25c2.45,1.82,6.14,6.95,6.75,9.77" style="fill:none;stroke:#999;stroke-width:3" />
<path d="M1167.26,20.5c0,1-0.23,1.69-0.67,2.3c-1.81,3.42-4.1,6.33-9.47,10.95" style="fill:none;stroke:#999;stroke-width:3" />
<path d="M1106.75,40.42c4.84,0.42,9.68,0.27,14.52-0.3c13.44-1.59,34.23-3,47.35-3.96c4.41-0.32,8.76-0.63,13.13-0.19" style="fill:none;stroke:#999;stroke-width:3" />
<path d="M1143.25,21c0.94,0.94,1.25,2.12,1.25,3.22c0,0.78,0,21.36,0,34.28c0,4.08,0,7.38,0,9" style="fill:none;stroke:#999;stroke-width:3" />
<path d="M1142.25,38.69C1142.0,40 1141.0,41.25 1139.98,42.54c-7.09,8.9-19.44,17.82-34.73,22.05" style="fill:none;stroke:#999;stroke-width:3" />
<path d="M1146.0,38.68c3.62,2.45,13.75,9.82,22.13,15.51c4.29,2.91,8.91,5.07,13.87,6.43" style="fill:none;stroke:#999;stroke-width:3" />
<path d="M1114.4,79.45c0.32,2.39-3.73,12.68-6.32,16.67" style="fill:none;stroke:#999;stroke-width:3" />
<path d="M1126.58,74.8c6.61,12.44,17.06,23.23,42.53,23.39c12.29,0.08,13.6-3.57,3.34-9.23" style="fill:none;stroke:#999;stroke-width:3" />
<path d="M1145.41,75.25c1.88,4.3,4.12,8.1,6.13,1.52" style="fill:none;stroke:#999;stroke-width:3" />
<path d="M1168.38,68.98c5.62,2.64,9.74,5.39,13.6,10.34" style="fill:none;stroke:black;stroke-width:3" />
<circle cx="1168.38" cy="68.98" r="5" stroke-width="0" fill="#FF2A00" opacity="0.7" />
</svg>