<!-- 0611f -->
<svg width="1417px" height="109px" viewBox="0 0 1417px 109px" xmlns="http://www.w3.org/2000/svg" xmlns:xlink="http://www.w3.org/1999/xlink" xml:space="preserve" version="1.1"  baseProfile="full">
<line x1="1" y1="1" x2="1416" y2="1" style="stroke:#ddd;stroke-width:2" />
<line x1="1" y1="1" x2="1" y2="108" style="stroke:#ddd;stroke-width:2" />
<line x1="1" y1="108" x2="1416" y2="108" style="stroke:#ddd;stroke-width:2" />
<line x1="1416" y1="1" x2="1416" y2="108" style="stroke:#ddd;stroke-width:2" />
<line x1="109" y1="1" x2="109" y2="108" style="stroke:#ddd;stroke-width:2" />
<line x1="218" y1="1" x2="218" y2="108" style="stroke:#ddd;stroke-width:2" />
<line x1="327" y1="1" x2="327" y2="108" style="stroke:#ddd;stroke-width:2" />
<line x1="436" y1="1" x2="436" y2="108" style="stroke:#ddd;stroke-width:2" />
<line x1="545" y1="1" x2="545" y2="108" style="stroke:#ddd;stroke-width:2" />
<line x1="654" y1="1" x2="654" y2="108" style="stroke:#ddd;stroke-width:2" />
<line x1="763" y1="1" x2="763" y2="108" style="stroke:#ddd;stroke-width:2" />
<line x1="872" y1="1" x2="872" y2="108" style="stroke:#ddd;stroke-width:2" />
<line x1="981" y1="1" x2="981" y2="108" style="stroke:#ddd;stroke-width:2" />
<line x1="1090" y1="1" x2="1090" y2="108" style="stroke:#ddd;stroke-width:2" />
<line x1="1199" y1="1" x2="1199" y2="108" style="stroke:#ddd;stroke-width:2" />
<line x1="1308" y1="1" x2="1308" y2="108" style="stroke:#ddd;stroke-width:2" />
<line x1="1" y1="54" x2="1416" y2="54" style="stroke:#ddd;stroke-width:2;stroke-dasharray:3 3" />
<line x1="55" y1="1" x2="55" y2="108" style="stroke:#ddd;stroke-width:2;stroke-dasharray:3 3" />
<line x1="164" y1="1" x2="164" y2="108" style="stroke:#ddd;stroke-width:2;stroke-dasharray:3 3" />
<line x1="273" y1="1" x2="273" y2="108" style="stroke:#ddd;stroke-width:2;stroke-dasharray:3 3" />
<line x1="382" y1="1" x2="382" y2="108" style="stroke:#ddd;stroke-width:2;stroke-dasharray:3 3" />
<line x1="491" y1="1" x2="491" y2="108" style="stroke:#ddd;stroke-width:2;stroke-dasharray:3 3" />
<line x1="600" y1="1" x2="600" y2="108" style="stroke:#ddd;stroke-width:2;stroke-dasharray:3 3" />
<line x1="709" y1="1" x2="709" y2="108" style="stroke:#ddd;stroke-width:2;stroke-dasharray:3 3" />
<line x1="818" y1="1" x2="818" y2="108" style="stroke:#ddd;stroke-width:2;stroke-dasharray:3 3" />
<line x1="927" y1="1" x2="927" y2="108" style="stroke:#ddd;stroke-width:2;stroke-dasharray:3 3" />
<line x1="1036" y1="1" x2="1036" y2="108" style="stroke:#ddd;stroke-width:2;stroke-dasharray:3 3" />
<line x1="1145" y1="1" x2="1145" y2="108" style="stroke:#ddd;stroke-width:2;stroke-dasharray:3 3" />
<line x1="1254" y1="1" x2="1254" y2="108" style="stroke:#ddd;stroke-width:2;stroke-dasharray:3 3" />
<line x1="1363" y1="1" x2="1363" y2="108" style="stroke:#ddd;stroke-width:2;stroke-dasharray:3 3" />
<path d="M24.0,28.32c0.5,1,0.67,2.26,0.75,3.75c0.75,14.75-1.5,36-12.25,42.75" style="fill:none;stroke:black;stroke-width:3" />
<circle cx="24.0" cy="28.32" r="5" stroke-width="0" fill="#FF2A00" opacity="0.7" />
<path d="M133.0,28.32c0.5,1,0.67,2.26,0.75,3.75c0.75,14.75-1.5,36-12.25,42.75" style="fill:none;stroke:#999;stroke-width:3" />
<path d="M133.65,29.11c1.6,0.4,4.54,0.32,6.12,0.15c9.85-1.07,30.48-4.07,41.83-6.2c2.61-0.49,4.4-0.5,6.4-0.5" style="fill:none;stroke:black;stroke-width:3" />
<circle cx="133.65" cy="29.11" r="5" stroke-width="0" fill="#FF2A00" opacity="0.7" />
<path d="M242.0,28.32c0.5,1,0.67,2.26,0.75,3.75c0.75,14.75-1.5,36-12.25,42.75" style="fill:none;stroke:#999;stroke-width:3" />
<path d="M242.65,29.11c1.6,0.4,4.54,0.32,6.12,0.15c9.85-1.07,30.48-4.07,41.83-6.2c2.61-0.49,4.4-0.5,6.4-0.5" style="fill:none;stroke:#999;stroke-width:3" />
<path d="M248.52,42.97c1.09,0.35,1.97,0.42,4.17,0.1C257.0,42.44 262.62,41.19 266.0,40.63c1.78-0.3,3.36-0.29,4.26-0.11" style="fill:none;stroke:black;stroke-width:3" />
<circle cx="248.52" cy="42.97" r="5" stroke-width="0" fill="#FF2A00" opacity="0.7" />
<path d="M351.0,28.32c0.5,1,0.67,2.26,0.75,3.75c0.75,14.75-1.5,36-12.25,42.75" style="fill:none;stroke:#999;stroke-width:3" />
<path d="M351.65,29.11c1.6,0.4,4.54,0.32,6.12,0.15c9.85-1.07,30.48-4.07,41.83-6.2c2.61-0.49,4.4-0.5,6.4-0.5" style="fill:none;stroke:#999;stroke-width:3" />
<path d="M357.52,42.97c1.09,0.35,1.97,0.42,4.17,0.1C366.0,42.44 371.62,41.19 375.0,40.63c1.78-0.3,3.36-0.29,4.26-0.11" style="fill:none;stroke:#999;stroke-width:3" />
<path d="M357.39,53.41c0.74,0.47,1.18,1.14,1.33,2c0.85,2.51,1.52,6.36,2.16,10.11c0.13,0.77,0.26,1.53,0.39,2.27" style="fill:none;stroke:black;stroke-width:3" />
<circle cx="357.39" cy="53.41" r="5" stroke-width="0" fill="#FF2A00" opacity="0.7" />
<path d="M460.0,28.32c0.5,1,0.67,2.26,0.75,3.75c0.75,14.75-1.5,36-12.25,42.75" style="fill:none;stroke:#999;stroke-width:3" />
<path d="M460.65,29.11c1.6,0.4,4.54,0.32,6.12,0.15c9.85-1.07,30.48-4.07,41.83-6.2c2.61-0.49,4.4-0.5,6.4-0.5" style="fill:none;stroke:#999;stroke-width:3" />
<path d="M466.52,42.97c1.09,0.35,1.97,0.42,4.17,0.1C475.0,42.44 480.62,41.19 484.0,40.63c1.78-0.3,3.36-0.29,4.26-0.11" style="fill:none;stroke:#999;stroke-width:3" />
<path d="M466.39,53.41c0.74,0.47,1.18,1.14,1.33,2c0.85,2.51,1.52,6.36,2.16,10.11c0.13,0.77,0.26,1.53,0.39,2.27" style="fill:none;stroke:#999;stroke-width:3" />
<path d="M468.62,54.26c7.71-1.24,13.96-2.53,18.61-2.94c1.9-0.17,3.45,0.6,2.76,2.86c-0.95,3.13-1.52,5.37-2.57,9.39" style="fill:none;stroke:black;stroke-width:3" />
<circle cx="468.62" cy="54.26" r="5" stroke-width="0" fill="#FF2A00" opacity="0.7" />
<path d="M569.0,28.32c0.5,1,0.67,2.26,0.75,3.75c0.75,14.75-1.5,36-12.25,42.75" style="fill:none;stroke:#999;stroke-width:3" />
<path d="M569.65,29.11c1.6,0.4,4.54,0.32,6.12,0.15c9.85-1.07,30.48-4.07,41.83-6.2c2.61-0.49,4.4-0.5,6.4-0.5" style="fill:none;stroke:#999;stroke-width:3" />
<path d="M575.52,42.97c1.09,0.35,1.97,0.42,4.17,0.1C584.0,42.44 589.62,41.19 593.0,40.63c1.78-0.3,3.36-0.29,4.26-0.11" style="fill:none;stroke:#999;stroke-width:3" />
<path d="M575.39,53.41c0.74,0.47,1.18,1.14,1.33,2c0.85,2.51,1.52,6.36,2.16,10.11c0.13,0.77,0.26,1.53,0.39,2.27" style="fill:none;stroke:#999;stroke-width:3" />
<path d="M577.62,54.26c7.71-1.24,13.96-2.53,18.61-2.94c1.9-0.17,3.45,0.6,2.76,2.86c-0.95,3.13-1.52,5.37-2.57,9.39" style="fill:none;stroke:#999;stroke-width:3" />
<path d="M579.54,65.82c4.95-0.24,9-1.09,15.72-1.1c0.72,0,1.46,0,2.24,0.01" style="fill:none;stroke:black;stroke-width:3" />
<circle cx="579.54" cy="65.82" r="5" stroke-width="0" fill="#FF2A00" opacity="0.7" />
<path d="M678.0,28.32c0.5,1,0.67,2.26,0.75,3.75c0.75,14.75-1.5,36-12.25,42.75" style="fill:none;stroke:#999;stroke-width:3" />
<path d="M678.65,29.11c1.6,0.4,4.54,0.32,6.12,0.15c9.85-1.07,30.48-4.07,41.83-6.2c2.61-0.49,4.4-0.5,6.4-0.5" style="fill:none;stroke:#999;stroke-width:3" />
<path d="M684.52,42.97c1.09,0.35,1.97,0.42,4.17,0.1C693.0,42.44 698.62,41.19 702.0,40.63c1.78-0.3,3.36-0.29,4.26-0.11" style="fill:none;stroke:#999;stroke-width:3" />
<path d="M684.39,53.41c0.74,0.47,1.18,1.14,1.33,2c0.85,2.51,1.52,6.36,2.16,10.11c0.13,0.77,0.26,1.53,0.39,2.27" style="fill:none;stroke:#999;stroke-width:3" />
<path d="M686.62,54.26c7.71-1.24,13.96-2.53,18.61-2.94c1.9-0.17,3.45,0.6,2.76,2.86c-0.95,3.13-1.52,5.37-2.57,9.39" style="fill:none;stroke:#999;stroke-width:3" />
<path d="M688.54,65.82c4.95-0.24,9-1.09,15.72-1.1c0.72,0,1.46,0,2.24,0.01" style="fill:none;stroke:#999;stroke-width:3" />
<path d="M706.78,10.57c1.22,0.75,2.52,1.82,2.97,4.5c3.5,21,12.34,43.98,32.04,52.35c6.51,2.76,5.21,0.28,3.72-8.05" style="fill:none;stroke:black;stroke-width:3" />
<circle cx="706.78" cy="10.57" r="5" stroke-width="0" fill="#FF2A00" opacity="0.7" />
<path d="M787.0,28.32c0.5,1,0.67,2.26,0.75,3.75c0.75,14.75-1.5,36-12.25,42.75" style="fill:none;stroke:#999;stroke-width:3" />
<path d="M787.65,29.11c1.6,0.4,4.54,0.32,6.12,0.15c9.85-1.07,30.48-4.07,41.83-6.2c2.61-0.49,4.4-0.5,6.4-0.5" style="fill:none;stroke:#999;stroke-width:3" />
<path d="M793.52,42.97c1.09,0.35,1.97,0.42,4.17,0.1C802.0,42.44 807.62,41.19 811.0,40.63c1.78-0.3,3.36-0.29,4.26-0.11" style="fill:none;stroke:#999;stroke-width:3" />
<path d="M793.39,53.41c0.74,0.47,1.18,1.14,1.33,2c0.85,2.51,1.52,6.36,2.16,10.11c0.13,0.77,0.26,1.53,0.39,2.27" style="fill:none;stroke:#999;stroke-width:3" />
<path d="M795.62,54.26c7.71-1.24,13.96-2.53,18.61-2.94c1.9-0.17,3.45,0.6,2.76,2.86c-0.95,3.13-1.52,5.37-2.57,9.39" style="fill:none;stroke:#999;stroke-width:3" />
<path d="M797.54,65.82c4.95-0.24,9-1.09,15.72-1.1c0.72,0,1.46,0,2.24,0.01" style="fill:none;stroke:#999;stroke-width:3" />
<path d="M815.78,10.57c1.22,0.75,2.52,1.82,2.97,4.5c3.5,21,12.34,43.98,32.04,52.35c6.51,2.76,5.21,0.28,3.72-8.05" style="fill:none;stroke:#999;stroke-width:3" />
<path d="M841.74,36.83c0.05,0.74,0.1,1.92-0.1,2.99c-1.21,6.31-7.76,19.87-17.16,29.64" style="fill:none;stroke:black;stroke-width:3" />
<circle cx="841.74" cy="36.83" r="5" stroke-width="0" fill="#FF2A00" opacity="0.7" />
<path d="M896.0,28.32c0.5,1,0.67,2.26,0.75,3.75c0.75,14.75-1.5,36-12.25,42.75" style="fill:none;stroke:#999;stroke-width:3" />
<path d="M896.65,29.11c1.6,0.4,4.54,0.32,6.12,0.15c9.85-1.07,30.48-4.07,41.83-6.2c2.61-0.49,4.4-0.5,6.4-0.5" style="fill:none;stroke:#999;stroke-width:3" />
<path d="M902.52,42.97c1.09,0.35,1.97,0.42,4.17,0.1C911.0,42.44 916.62,41.19 920.0,40.63c1.78-0.3,3.36-0.29,4.26-0.11" style="fill:none;stroke:#999;stroke-width:3" />
<path d="M902.39,53.41c0.74,0.47,1.18,1.14,1.33,2c0.85,2.51,1.52,6.36,2.16,10.11c0.13,0.77,0.26,1.53,0.39,2.27" style="fill:none;stroke:#999;stroke-width:3" />
<path d="M904.62,54.26c7.71-1.24,13.96-2.53,18.61-2.94c1.9-0.17,3.45,0.6,2.76,2.86c-0.95,3.13-1.52,5.37-2.57,9.39" style="fill:none;stroke:#999;stroke-width:3" />
<path d="M906.54,65.82c4.95-0.24,9-1.09,15.72-1.1c0.72,0,1.46,0,2.24,0.01" style="fill:none;stroke:#999;stroke-width:3" />
<path d="M924.78,10.57c1.22,0.75,2.52,1.82,2.97,4.5c3.5,21,12.34,43.98,32.04,52.35c6.51,2.76,5.21,0.28,3.72-8.05" style="fill:none;stroke:#999;stroke-width:3" />
<path d="M950.74,36.83c0.05,0.74,0.1,1.92-0.1,2.99c-1.21,6.31-7.76,19.87-17.16,29.64" style="fill:none;stroke:#999;stroke-width:3" />
<path d="M944.17,9.93c3.35,1.53,8.71,5.04,10.27,7.67" style="fill:none;stroke:black;stroke-width:3" />
<circle cx="944.17" cy="9.93" r="5" stroke-width="0" fill="#FF2A00" opacity="0.7" />
<path d="M1005.0,28.32c0.5,1,0.67,2.26,0.75,3.75c0.75,14.75-1.5,36-12.25,42.75" style="fill:none;stroke:#999;stroke-width:3" />
<path d="M1005.65,29.11c1.6,0.4,4.54,0.32,6.12,0.15c9.85-1.07,30.48-4.07,41.83-6.2c2.61-0.49,4.4-0.5,6.4-0.5" style="fill:none;stroke:#999;stroke-width:3" />
<path d="M1011.52,42.97c1.09,0.35,1.97,0.42,4.17,0.1C1020.0,42.44 1025.62,41.19 1029.0,40.63c1.78-0.3,3.36-0.29,4.26-0.11" style="fill:none;stroke:#999;stroke-width:3" />
<path d="M1011.39,53.41c0.74,0.47,1.18,1.14,1.33,2c0.85,2.51,1.52,6.36,2.16,10.11c0.13,0.77,0.26,1.53,0.39,2.27" style="fill:none;stroke:#999;stroke-width:3" />
<path d="M1013.62,54.26c7.71-1.24,13.96-2.53,18.61-2.94c1.9-0.17,3.45,0.6,2.76,2.86c-0.95,3.13-1.52,5.37-2.57,9.39" style="fill:none;stroke:#999;stroke-width:3" />
<path d="M1015.54,65.82c4.95-0.24,9-1.09,15.72-1.1c0.72,0,1.46,0,2.24,0.01" style="fill:none;stroke:#999;stroke-width:3" />
<path d="M1033.78,10.57c1.22,0.75,2.52,1.82,2.97,4.5c3.5,21,12.34,43.98,32.04,52.35c6.51,2.76,5.21,0.28,3.72-8.05" style="fill:none;stroke:#999;stroke-width:3" />
<path d="M1059.74,36.83c0.05,0.74,0.1,1.92-0.1,2.99c-1.21,6.31-7.76,19.87-17.16,29.64" style="fill:none;stroke:#999;stroke-width:3" />
<path d="M1053.17,9.93c3.35,1.53,8.71,5.04,10.27,7.67" style="fill:none;stroke:#999;stroke-width:3" />
<path d="M1003.31,83.96c-0.69,4.48-3.97,12.45-7.15,16.28" style="fill:none;stroke:black;stroke-width:3" />
<circle cx="1003.31" cy="83.96" r="5" stroke-width="0" fill="#FF2A00" opacity="0.7" />
<path d="M1114.0,28.32c0.5,1,0.67,2.26,0.75,3.75c0.75,14.75-1.5,36-12.25,42.75" style="fill:none;stroke:#999;stroke-width:3" />
<path d="M1114.65,29.11c1.6,0.4,4.54,0.32,6.12,0.15c9.85-1.07,30.48-4.07,41.83-6.2c2.61-0.49,4.4-0.5,6.4-0.5" style="fill:none;stroke:#999;stroke-width:3" />
<path d="M1120.52,42.97c1.09,0.35,1.97,0.42,4.17,0.1C1129.0,42.44 1134.62,41.19 1138.0,40.63c1.78-0.3,3.36-0.29,4.26-0.11" style="fill:none;stroke:#999;stroke-width:3" />
<path d="M1120.3899999999999,53.41c0.74,0.47,1.18,1.14,1.33,2c0.85,2.51,1.52,6.36,2.16,10.11c0.13,0.77,0.26,1.53,0.39,2.27" style="fill:none;stroke:#999;stroke-width:3" />
<path d="M1122.62,54.26c7.71-1.24,13.96-2.53,18.61-2.94c1.9-0.17,3.45,0.6,2.76,2.86c-0.95,3.13-1.52,5.37-2.57,9.39" style="fill:none;stroke:#999;stroke-width:3" />
<path d="M1124.54,65.82c4.95-0.24,9-1.09,15.72-1.1c0.72,0,1.46,0,2.24,0.01" style="fill:none;stroke:#999;stroke-width:3" />
<path d="M1142.78,10.57c1.22,0.75,2.52,1.82,2.97,4.5c3.5,21,12.34,43.98,32.04,52.35c6.51,2.76,5.21,0.28,3.72-8.05" style="fill:none;stroke:#999;stroke-width:3" />
<path d="M1168.74,36.83c0.05,0.74,0.1,1.92-0.1,2.99c-1.21,6.31-7.76,19.87-17.16,29.64" style="fill:none;stroke:#999;stroke-width:3" />
<path d="M1162.17,9.93c3.35,1.53,8.71,5.04,10.27,7.67" style="fill:none;stroke:#999;stroke-width:3" />
<path d="M1112.31,83.96c-0.69,4.48-3.97,12.45-7.15,16.28" style="fill:none;stroke:#999;stroke-width:3" />
<path d="M1126.01,81.44c8.74,13.88,17.99,19.4,42.42,19c7.7-0.13,7.7-2.25,1.9-7.55" style="fill:none;stroke:black;stroke-width:3" />
<circle cx="1126.01" cy="81.44" r="5" stroke-width="0" fill="#FF2A00" opacity="0.7" />
<path d="M1223.0,28.32c0.5,1,0.67,2.26,0.75,3.75c0.75,14.75-1.5,36-12.25,42.75" style="fill:none;stroke:#999;stroke-width:3" />
<path d="M1223.65,29.11c1.6,0.4,4.54,0.32,6.12,0.15c9.85-1.07,30.48-4.07,41.83-6.2c2.61-0.49,4.4-0.5,6.4-0.5" style="fill:none;stroke:#999;stroke-width:3" />
<path d="M1229.52,42.97c1.09,0.35,1.97,0.42,4.17,0.1C1238.0,42.44 1243.62,41.19 1247.0,40.63c1.78-0.3,3.36-0.29,4.26-0.11" style="fill:none;stroke:#999;stroke-width:3" />
<path d="M1229.3899999999999,53.41c0.74,0.47,1.18,1.14,1.33,2c0.85,2.51,1.52,6.36,2.16,10.11c0.13,0.77,0.26,1.53,0.39,2.27" style="fill:none;stroke:#999;stroke-width:3" />
<path d="M1231.62,54.26c7.71-1.24,13.96-2.53,18.61-2.94c1.9-0.17,3.45,0.6,2.76,2.86c-0.95,3.13-1.52,5.37-2.57,9.39" style="fill:none;stroke:#999;stroke-width:3" />
<path d="M1233.54,65.82c4.95-0.24,9-1.09,15.72-1.1c0.72,0,1.46,0,2.24,0.01" style="fill:none;stroke:#999;stroke-width:3" />
<path d="M1251.78,10.57c1.22,0.75,2.52,1.82,2.97,4.5c3.5,21,12.34,43.98,32.04,52.35c6.51,2.76,5.21,0.28,3.72-8.05" style="fill:none;stroke:#999;stroke-width:3" />
<path d="M1277.74,36.83c0.05,0.74,0.1,1.92-0.1,2.99c-1.21,6.31-7.76,19.87-17.16,29.64" style="fill:none;stroke:#999;stroke-width:3" />
<path d="M1271.17,9.93c3.35,1.53,8.71,5.04,10.27,7.67" style="fill:none;stroke:#999;stroke-width:3" />
<path d="M1221.31,83.96c-0.69,4.48-3.97,12.45-7.15,16.28" style="fill:none;stroke:#999;stroke-width:3" />
<path d="M1235.01,81.44c8.74,13.88,17.99,19.4,42.42,19c7.7-0.13,7.7-2.25,1.9-7.55" style="fill:none;stroke:#999;stroke-width:3" />
<path d="M1254.06,77.57c1.19,3.12,4.19,7.5,5.3,3.51" style="fill:none;stroke:black;stroke-width:3" />
<circle cx="1254.06" cy="77.57" r="5" stroke-width="0" fill="#FF2A00" opacity="0.7" />
<path d="M1332.0,28.32c0.5,1,0.67,2.26,0.75,3.75c0.75,14.75-1.5,36-12.25,42.75" style="fill:none;stroke:#999;stroke-width:3" />
<path d="M1332.65,29.11c1.6,0.4,4.54,0.32,6.12,0.15c9.85-1.07,30.48-4.07,41.83-6.2c2.61-0.49,4.4-0.5,6.4-0.5" style="fill:none;stroke:#999;stroke-width:3" />
<path d="M1338.52,42.97c1.09,0.35,1.97,0.42,4.17,0.1C1347.0,42.44 1352.62,41.19 1356.0,40.63c1.78-0.3,3.36-0.29,4.26-0.11" style="fill:none;stroke:#999;stroke-width:3" />
<path d="M1338.3899999999999,53.41c0.74,0.47,1.18,1.14,1.33,2c0.85,2.51,1.52,6.36,2.16,10.11c0.13,0.77,0.26,1.53,0.39,2.27" style="fill:none;stroke:#999;stroke-width:3" />
<path d="M1340.62,54.26c7.71-1.24,13.96-2.53,18.61-2.94c1.9-0.17,3.45,0.6,2.76,2.86c-0.95,3.13-1.52,5.37-2.57,9.39" style="fill:none;stroke:#999;stroke-width:3" />
<path d="M1342.54,65.82c4.95-0.24,9-1.09,15.72-1.1c0.72,0,1.46,0,2.24,0.01" style="fill:none;stroke:#999;stroke-width:3" />
<path d="M1360.78,10.57c1.22,0.75,2.52,1.82,2.97,4.5c3.5,21,12.34,43.98,32.04,52.35c6.51,2.76,5.21,0.28,3.72-8.05" style="fill:none;stroke:#999;stroke-width:3" />
<path d="M1386.74,36.83c0.05,0.74,0.1,1.92-0.1,2.99c-1.21,6.31-7.76,19.87-17.16,29.64" style="fill:none;stroke:#999;stroke-width:3" />
<path d="M1380.17,9.93c3.35,1.53,8.71,5.04,10.27,7.67" style="fill:none;stroke:#999;stroke-width:3" />
<path d="M1330.31,83.96c-0.69,4.48-3.97,12.45-7.15,16.28" style="fill:none;stroke:#999;stroke-width:3" />
<path d="M1344.01,81.44c8.74,13.88,17.99,19.4,42.42,19c7.7-0.13,7.7-2.25,1.9-7.55" style="fill:none;stroke:#999;stroke-width:3" />
<path d="M1363.06,77.57c1.19,3.12,4.19,7.5,5.3,3.51" style="fill:none;stroke:#999;stroke-width:3" />
<path d="M1394.5,77.75C1398.0,80.32 1400.25,82.82 1403.0,87" style="fill:none;stroke:black;stroke-width:3" />
<circle cx="1394.5" cy="77.75" r="5" stroke-width="0" fill="#FF2A00" opacity="0.7" />
</svg>