<!-- 0615f -->
<svg width="1526px" height="109px" viewBox="0 0 1526px 109px" xmlns="http://www.w3.org/2000/svg" xmlns:xlink="http://www.w3.org/1999/xlink" xml:space="preserve" version="1.1"  baseProfile="full">
<line x1="1" y1="1" x2="1525" y2="1" style="stroke:#ddd;stroke-width:2" />
<line x1="1" y1="1" x2="1" y2="108" style="stroke:#ddd;stroke-width:2" />
<line x1="1" y1="108" x2="1525" y2="108" style="stroke:#ddd;stroke-width:2" />
<line x1="1525" y1="1" x2="1525" y2="108" style="stroke:#ddd;stroke-width:2" />
<line x1="109" y1="1" x2="109" y2="108" style="stroke:#ddd;stroke-width:2" />
<line x1="218" y1="1" x2="218" y2="108" style="stroke:#ddd;stroke-width:2" />
<line x1="327" y1="1" x2="327" y2="108" style="stroke:#ddd;stroke-width:2" />
<line x1="436" y1="1" x2="436" y2="108" style="stroke:#ddd;stroke-width:2" />
<line x1="545" y1="1" x2="545" y2="108" style="stroke:#ddd;stroke-width:2" />
<line x1="654" y1="1" x2="654" y2="108" style="stroke:#ddd;stroke-width:2" />
<line x1="763" y1="1" x2="763" y2="108" style="stroke:#ddd;stroke-width:2" />
<line x1="872" y1="1" x2="872" y2="108" style="stroke:#ddd;stroke-width:2" />
<line x1="981" y1="1" x2="981" y2="108" style="stroke:#ddd;stroke-width:2" />
<line x1="1090" y1="1" x2="1090" y2="108" style="stroke:#ddd;stroke-width:2" />
<line x1="1199" y1="1" x2="1199" y2="108" style="stroke:#ddd;stroke-width:2" />
<line x1="1308" y1="1" x2="1308" y2="108" style="stroke:#ddd;stroke-width:2" />
<line x1="1417" y1="1" x2="1417" y2="108" style="stroke:#ddd;stroke-width:2" />
<line x1="1" y1="54" x2="1525" y2="54" style="stroke:#ddd;stroke-width:2;stroke-dasharray:3 3" />
<line x1="55" y1="1" x2="55" y2="108" style="stroke:#ddd;stroke-width:2;stroke-dasharray:3 3" />
<line x1="164" y1="1" x2="164" y2="108" style="stroke:#ddd;stroke-width:2;stroke-dasharray:3 3" />
<line x1="273" y1="1" x2="273" y2="108" style="stroke:#ddd;stroke-width:2;stroke-dasharray:3 3" />
<line x1="382" y1="1" x2="382" y2="108" style="stroke:#ddd;stroke-width:2;stroke-dasharray:3 3" />
<line x1="491" y1="1" x2="491" y2="108" style="stroke:#ddd;stroke-width:2;stroke-dasharray:3 3" />
<line x1="600" y1="1" x2="600" y2="108" style="stroke:#ddd;stroke-width:2;stroke-dasharray:3 3" />
<line x1="709" y1="1" x2="709" y2="108" style="stroke:#ddd;stroke-width:2;stroke-dasharray:3 3" />
<line x1="818" y1="1" x2="818" y2="108" style="stroke:#ddd;stroke-width:2;stroke-dasharray:3 3" />
<line x1="927" y1="1" x2="927" y2="108" style="stroke:#ddd;stroke-width:2;stroke-dasharray:3 3" />
<line x1="1036" y1="1" x2="1036" y2="108" style="stroke:#ddd;stroke-width:2;stroke-dasharray:3 3" />
<line x1="1145" y1="1" x2="1145" y2="108" style="stroke:#ddd;stroke-width:2;stroke-dasharray:3 3" />
<line x1="1254" y1="1" x2="1254" y2="108" style="stroke:#ddd;stroke-width:2;stroke-dasharray:3 3" />
<line x1="1363" y1="1" x2="1363" y2="108" style="stroke:#ddd;stroke-width:2;stroke-dasharray:3 3" />
<line x1="1472" y1="1" x2="1472" y2="108" style="stroke:#ddd;stroke-width:2;stroke-dasharray:3 3" />
<path d="M14.47,36.5c0.02,4.31-1.81,14.14-3.44,17.5" style="fill:none;stroke:black;stroke-width:3" />
<circle cx="14.47" cy="36.5" r="5" stroke-width="0" fill="#FF2A00" opacity="0.7" />
<path d="M123.47,36.5c0.02,4.31-1.81,14.14-3.44,17.5" style="fill:none;stroke:#999;stroke-width:3" />
<path d="M133.52,33.58c2.13,1.74,5.51,7.17,6.04,9.88" style="fill:none;stroke:black;stroke-width:3" />
<circle cx="133.52" cy="33.58" r="5" stroke-width="0" fill="#FF2A00" opacity="0.7" />
<path d="M232.47,36.5c0.02,4.31-1.81,14.14-3.44,17.5" style="fill:none;stroke:#999;stroke-width:3" />
<path d="M242.52,33.58c2.13,1.74,5.51,7.17,6.04,9.88" style="fill:none;stroke:#999;stroke-width:3" />
<path d="M237.37,13.25c1.09,0.5,1.74,2.25,1.96,3.25c0.22,1,0,75.25-0.22,81.5" style="fill:none;stroke:black;stroke-width:3" />
<circle cx="237.37" cy="13.25" r="5" stroke-width="0" fill="#FF2A00" opacity="0.7" />
<path d="M341.47,36.5c0.02,4.31-1.81,14.14-3.44,17.5" style="fill:none;stroke:#999;stroke-width:3" />
<path d="M351.52,33.58c2.13,1.74,5.51,7.17,6.04,9.88" style="fill:none;stroke:#999;stroke-width:3" />
<path d="M346.37,13.25c1.09,0.5,1.74,2.25,1.96,3.25c0.22,1,0,75.25-0.22,81.5" style="fill:none;stroke:#999;stroke-width:3" />
<path d="M390.64,15.39c0.06,0.26-0.51,1.65-0.87,1.94c-2.81,2.24-11.61,6.02-24.08,9.43" style="fill:none;stroke:black;stroke-width:3" />
<circle cx="390.64" cy="15.39" r="5" stroke-width="0" fill="#FF2A00" opacity="0.7" />
<path d="M450.47,36.5c0.02,4.31-1.81,14.14-3.44,17.5" style="fill:none;stroke:#999;stroke-width:3" />
<path d="M460.52,33.58c2.13,1.74,5.51,7.17,6.04,9.88" style="fill:none;stroke:#999;stroke-width:3" />
<path d="M455.37,13.25c1.09,0.5,1.74,2.25,1.96,3.25c0.22,1,0,75.25-0.22,81.5" style="fill:none;stroke:#999;stroke-width:3" />
<path d="M499.64,15.39c0.06,0.26-0.51,1.65-0.87,1.94c-2.81,2.24-11.61,6.02-24.08,9.43" style="fill:none;stroke:#999;stroke-width:3" />
<path d="M470.97,35.56c1.06,0.19,2.48,0.34,3.37,0.35C481.0,36 496.15,33.25 502.99,32.44c1.46-0.17,2.35,0.14,3.08,0.35" style="fill:none;stroke:black;stroke-width:3" />
<circle cx="470.97" cy="35.56" r="5" stroke-width="0" fill="#FF2A00" opacity="0.7" />
<path d="M559.47,36.5c0.02,4.31-1.81,14.14-3.44,17.5" style="fill:none;stroke:#999;stroke-width:3" />
<path d="M569.52,33.58c2.13,1.74,5.51,7.17,6.04,9.88" style="fill:none;stroke:#999;stroke-width:3" />
<path d="M564.37,13.25c1.09,0.5,1.74,2.25,1.96,3.25c0.22,1,0,75.25-0.22,81.5" style="fill:none;stroke:#999;stroke-width:3" />
<path d="M608.64,15.39c0.06,0.26-0.51,1.65-0.87,1.94c-2.81,2.24-11.61,6.02-24.08,9.43" style="fill:none;stroke:#999;stroke-width:3" />
<path d="M579.97,35.56c1.06,0.19,2.48,0.34,3.37,0.35C590.0,36 605.15,33.25 611.99,32.44c1.46-0.17,2.35,0.14,3.08,0.35" style="fill:none;stroke:#999;stroke-width:3" />
<path d="M583.43,45.4c0.22,0.35,0.22,0.6,0.35,1.05c1,3.71,2.25,12.88,2.87,19.83" style="fill:none;stroke:black;stroke-width:3" />
<circle cx="583.43" cy="45.4" r="5" stroke-width="0" fill="#FF2A00" opacity="0.7" />
<path d="M668.47,36.5c0.02,4.31-1.81,14.14-3.44,17.5" style="fill:none;stroke:#999;stroke-width:3" />
<path d="M678.52,33.58c2.13,1.74,5.51,7.17,6.04,9.88" style="fill:none;stroke:#999;stroke-width:3" />
<path d="M673.37,13.25c1.09,0.5,1.74,2.25,1.96,3.25c0.22,1,0,75.25-0.22,81.5" style="fill:none;stroke:#999;stroke-width:3" />
<path d="M717.64,15.39c0.06,0.26-0.51,1.65-0.87,1.94c-2.81,2.24-11.61,6.02-24.08,9.43" style="fill:none;stroke:#999;stroke-width:3" />
<path d="M688.97,35.56c1.06,0.19,2.48,0.34,3.37,0.35C699.0,36 714.15,33.25 720.99,32.44c1.46-0.17,2.35,0.14,3.08,0.35" style="fill:none;stroke:#999;stroke-width:3" />
<path d="M692.43,45.4c0.22,0.35,0.22,0.6,0.35,1.05c1,3.71,2.25,12.88,2.87,19.83" style="fill:none;stroke:#999;stroke-width:3" />
<path d="M693.46,47.2c7.57-1.18,20.17-2.49,25.82-3.45c2.07-0.36,2.73,2.08,2.63,3.09c-0.39,3.7-1.52,10.41-2.47,16.6" style="fill:none;stroke:black;stroke-width:3" />
<circle cx="693.46" cy="47.2" r="5" stroke-width="0" fill="#FF2A00" opacity="0.7" />
<path d="M777.47,36.5c0.02,4.31-1.81,14.14-3.44,17.5" style="fill:none;stroke:#999;stroke-width:3" />
<path d="M787.52,33.58c2.13,1.74,5.51,7.17,6.04,9.88" style="fill:none;stroke:#999;stroke-width:3" />
<path d="M782.37,13.25c1.09,0.5,1.74,2.25,1.96,3.25c0.22,1,0,75.25-0.22,81.5" style="fill:none;stroke:#999;stroke-width:3" />
<path d="M826.64,15.39c0.06,0.26-0.51,1.65-0.87,1.94c-2.81,2.24-11.61,6.02-24.08,9.43" style="fill:none;stroke:#999;stroke-width:3" />
<path d="M797.97,35.56c1.06,0.19,2.48,0.34,3.37,0.35C808.0,36 823.15,33.25 829.99,32.44c1.46-0.17,2.35,0.14,3.08,0.35" style="fill:none;stroke:#999;stroke-width:3" />
<path d="M801.43,45.4c0.22,0.35,0.22,0.6,0.35,1.05c1,3.71,2.25,12.88,2.87,19.83" style="fill:none;stroke:#999;stroke-width:3" />
<path d="M802.46,47.2c7.57-1.18,20.17-2.49,25.82-3.45c2.07-0.36,2.73,2.08,2.63,3.09c-0.39,3.7-1.52,10.41-2.47,16.6" style="fill:none;stroke:#999;stroke-width:3" />
<path d="M803.6,55.14c4.4-0.39,23.96-2.43,26.03-2.65" style="fill:none;stroke:black;stroke-width:3" />
<circle cx="803.6" cy="55.14" r="5" stroke-width="0" fill="#FF2A00" opacity="0.7" />
<path d="M886.47,36.5c0.02,4.31-1.81,14.14-3.44,17.5" style="fill:none;stroke:#999;stroke-width:3" />
<path d="M896.52,33.58c2.13,1.74,5.51,7.17,6.04,9.88" style="fill:none;stroke:#999;stroke-width:3" />
<path d="M891.37,13.25c1.09,0.5,1.74,2.25,1.96,3.25c0.22,1,0,75.25-0.22,81.5" style="fill:none;stroke:#999;stroke-width:3" />
<path d="M935.64,15.39c0.06,0.26-0.51,1.65-0.87,1.94c-2.81,2.24-11.61,6.02-24.08,9.43" style="fill:none;stroke:#999;stroke-width:3" />
<path d="M906.97,35.56c1.06,0.19,2.48,0.34,3.37,0.35C917.0,36 932.15,33.25 938.99,32.44c1.46-0.17,2.35,0.14,3.08,0.35" style="fill:none;stroke:#999;stroke-width:3" />
<path d="M910.43,45.4c0.22,0.35,0.22,0.6,0.35,1.05c1,3.71,2.25,12.88,2.87,19.83" style="fill:none;stroke:#999;stroke-width:3" />
<path d="M911.46,47.2c7.57-1.18,20.17-2.49,25.82-3.45c2.07-0.36,2.73,2.08,2.63,3.09c-0.39,3.7-1.52,10.41-2.47,16.6" style="fill:none;stroke:#999;stroke-width:3" />
<path d="M912.6,55.14c4.4-0.39,23.96-2.43,26.03-2.65" style="fill:none;stroke:#999;stroke-width:3" />
<path d="M914.25,64.09c6-0.59,14.98-1.54,22.64-2.46" style="fill:none;stroke:black;stroke-width:3" />
<circle cx="914.25" cy="64.09" r="5" stroke-width="0" fill="#FF2A00" opacity="0.7" />
<path d="M995.47,36.5c0.02,4.31-1.81,14.14-3.44,17.5" style="fill:none;stroke:#999;stroke-width:3" />
<path d="M1005.52,33.58c2.13,1.74,5.51,7.17,6.04,9.88" style="fill:none;stroke:#999;stroke-width:3" />
<path d="M1000.37,13.25c1.09,0.5,1.74,2.25,1.96,3.25c0.22,1,0,75.25-0.22,81.5" style="fill:none;stroke:#999;stroke-width:3" />
<path d="M1044.6399999999999,15.39c0.06,0.26-0.51,1.65-0.87,1.94c-2.81,2.24-11.61,6.02-24.08,9.43" style="fill:none;stroke:#999;stroke-width:3" />
<path d="M1015.97,35.56c1.06,0.19,2.48,0.34,3.37,0.35C1026.0,36 1041.15,33.25 1047.99,32.44c1.46-0.17,2.35,0.14,3.08,0.35" style="fill:none;stroke:#999;stroke-width:3" />
<path d="M1019.43,45.4c0.22,0.35,0.22,0.6,0.35,1.05c1,3.71,2.25,12.88,2.87,19.83" style="fill:none;stroke:#999;stroke-width:3" />
<path d="M1020.46,47.2c7.57-1.18,20.17-2.49,25.82-3.45c2.07-0.36,2.73,2.08,2.63,3.09c-0.39,3.7-1.52,10.41-2.47,16.6" style="fill:none;stroke:#999;stroke-width:3" />
<path d="M1021.6,55.14c4.4-0.39,23.96-2.43,26.03-2.65" style="fill:none;stroke:#999;stroke-width:3" />
<path d="M1023.25,64.09c6-0.59,14.98-1.54,22.64-2.46" style="fill:none;stroke:#999;stroke-width:3" />
<path d="M1032.99,24.91c0.72,0.41,1.16,1.92,1.3,2.79c0.14,0.87,0.5,52.69,0.35,58.14" style="fill:none;stroke:black;stroke-width:3" />
<circle cx="1032.99" cy="24.91" r="5" stroke-width="0" fill="#FF2A00" opacity="0.7" />
<path d="M1104.47,36.5c0.02,4.31-1.81,14.14-3.44,17.5" style="fill:none;stroke:#999;stroke-width:3" />
<path d="M1114.52,33.58c2.13,1.74,5.51,7.17,6.04,9.88" style="fill:none;stroke:#999;stroke-width:3" />
<path d="M1109.37,13.25c1.09,0.5,1.74,2.25,1.96,3.25c0.22,1,0,75.25-0.22,81.5" style="fill:none;stroke:#999;stroke-width:3" />
<path d="M1153.6399999999999,15.39c0.06,0.26-0.51,1.65-0.87,1.94c-2.81,2.24-11.61,6.02-24.08,9.43" style="fill:none;stroke:#999;stroke-width:3" />
<path d="M1124.97,35.56c1.06,0.19,2.48,0.34,3.37,0.35C1135.0,36 1150.15,33.25 1156.99,32.44c1.46-0.17,2.35,0.14,3.08,0.35" style="fill:none;stroke:#999;stroke-width:3" />
<path d="M1128.4299999999998,45.4c0.22,0.35,0.22,0.6,0.35,1.05c1,3.71,2.25,12.88,2.87,19.83" style="fill:none;stroke:#999;stroke-width:3" />
<path d="M1129.46,47.2c7.57-1.18,20.17-2.49,25.82-3.45c2.07-0.36,2.73,2.08,2.63,3.09c-0.39,3.7-1.52,10.41-2.47,16.6" style="fill:none;stroke:#999;stroke-width:3" />
<path d="M1130.6,55.14c4.4-0.39,23.96-2.43,26.03-2.65" style="fill:none;stroke:#999;stroke-width:3" />
<path d="M1132.25,64.09c6-0.59,14.98-1.54,22.64-2.46" style="fill:none;stroke:#999;stroke-width:3" />
<path d="M1141.99,24.91c0.72,0.41,1.16,1.92,1.3,2.79c0.14,0.87,0.5,52.69,0.35,58.14" style="fill:none;stroke:#999;stroke-width:3" />
<path d="M1127.56,74.94c0.65,0.2,2.83,0.7,3.47,0.66c6.71-0.39,17.91-2.55,22.64-3.12c1.06-0.13,2.21-0.1,2.74,0" style="fill:none;stroke:black;stroke-width:3" />
<circle cx="1127.56" cy="74.94" r="5" stroke-width="0" fill="#FF2A00" opacity="0.7" />
<path d="M1213.47,36.5c0.02,4.31-1.81,14.14-3.44,17.5" style="fill:none;stroke:#999;stroke-width:3" />
<path d="M1223.52,33.58c2.13,1.74,5.51,7.17,6.04,9.88" style="fill:none;stroke:#999;stroke-width:3" />
<path d="M1218.37,13.25c1.09,0.5,1.74,2.25,1.96,3.25c0.22,1,0,75.25-0.22,81.5" style="fill:none;stroke:#999;stroke-width:3" />
<path d="M1262.6399999999999,15.39c0.06,0.26-0.51,1.65-0.87,1.94c-2.81,2.24-11.61,6.02-24.08,9.43" style="fill:none;stroke:#999;stroke-width:3" />
<path d="M1233.97,35.56c1.06,0.19,2.48,0.34,3.37,0.35C1244.0,36 1259.15,33.25 1265.99,32.44c1.46-0.17,2.35,0.14,3.08,0.35" style="fill:none;stroke:#999;stroke-width:3" />
<path d="M1237.4299999999998,45.4c0.22,0.35,0.22,0.6,0.35,1.05c1,3.71,2.25,12.88,2.87,19.83" style="fill:none;stroke:#999;stroke-width:3" />
<path d="M1238.46,47.2c7.57-1.18,20.17-2.49,25.82-3.45c2.07-0.36,2.73,2.08,2.63,3.09c-0.39,3.7-1.52,10.41-2.47,16.6" style="fill:none;stroke:#999;stroke-width:3" />
<path d="M1239.6,55.14c4.4-0.39,23.96-2.43,26.03-2.65" style="fill:none;stroke:#999;stroke-width:3" />
<path d="M1241.25,64.09c6-0.59,14.98-1.54,22.64-2.46" style="fill:none;stroke:#999;stroke-width:3" />
<path d="M1250.99,24.91c0.72,0.41,1.16,1.92,1.3,2.79c0.14,0.87,0.5,52.69,0.35,58.14" style="fill:none;stroke:#999;stroke-width:3" />
<path d="M1236.56,74.94c0.65,0.2,2.83,0.7,3.47,0.66c6.71-0.39,17.91-2.55,22.64-3.12c1.06-0.13,2.21-0.1,2.74,0" style="fill:none;stroke:#999;stroke-width:3" />
<path d="M1236.22,90.66c0.6,1.03,1.67,2.18,4.28,0.9c10.04-4.92,11.93-5.37,23.66-10.54" style="fill:none;stroke:black;stroke-width:3" />
<circle cx="1236.22" cy="90.66" r="5" stroke-width="0" fill="#FF2A00" opacity="0.7" />
<path d="M1322.47,36.5c0.02,4.31-1.81,14.14-3.44,17.5" style="fill:none;stroke:#999;stroke-width:3" />
<path d="M1332.52,33.58c2.13,1.74,5.51,7.17,6.04,9.88" style="fill:none;stroke:#999;stroke-width:3" />
<path d="M1327.37,13.25c1.09,0.5,1.74,2.25,1.96,3.25c0.22,1,0,75.25-0.22,81.5" style="fill:none;stroke:#999;stroke-width:3" />
<path d="M1371.6399999999999,15.39c0.06,0.26-0.51,1.65-0.87,1.94c-2.81,2.24-11.61,6.02-24.08,9.43" style="fill:none;stroke:#999;stroke-width:3" />
<path d="M1342.97,35.56c1.06,0.19,2.48,0.34,3.37,0.35C1353.0,36 1368.15,33.25 1374.99,32.44c1.46-0.17,2.35,0.14,3.08,0.35" style="fill:none;stroke:#999;stroke-width:3" />
<path d="M1346.4299999999998,45.4c0.22,0.35,0.22,0.6,0.35,1.05c1,3.71,2.25,12.88,2.87,19.83" style="fill:none;stroke:#999;stroke-width:3" />
<path d="M1347.46,47.2c7.57-1.18,20.17-2.49,25.82-3.45c2.07-0.36,2.73,2.08,2.63,3.09c-0.39,3.7-1.52,10.41-2.47,16.6" style="fill:none;stroke:#999;stroke-width:3" />
<path d="M1348.6,55.14c4.4-0.39,23.96-2.43,26.03-2.65" style="fill:none;stroke:#999;stroke-width:3" />
<path d="M1350.25,64.09c6-0.59,14.98-1.54,22.64-2.46" style="fill:none;stroke:#999;stroke-width:3" />
<path d="M1359.99,24.91c0.72,0.41,1.16,1.92,1.3,2.79c0.14,0.87,0.5,52.69,0.35,58.14" style="fill:none;stroke:#999;stroke-width:3" />
<path d="M1345.56,74.94c0.65,0.2,2.83,0.7,3.47,0.66c6.71-0.39,17.91-2.55,22.64-3.12c1.06-0.13,2.21-0.1,2.74,0" style="fill:none;stroke:#999;stroke-width:3" />
<path d="M1345.22,90.66c0.6,1.03,1.67,2.18,4.28,0.9c10.04-4.92,11.93-5.37,23.66-10.54" style="fill:none;stroke:#999;stroke-width:3" />
<path d="M1380.59,40.4c0.84,0.67,1.87,0.49,2.62,0.36c7.29-1.26,13.87-3.34,17.18-4.03c2.15-0.45,3.61,1.02,3.63,3.15C1404.1,51 1399.5,81.5 1393.41,91.6c-3.34,5.54-4.87,0.31-5.74-0.67" style="fill:none;stroke:black;stroke-width:3" />
<circle cx="1380.59" cy="40.4" r="5" stroke-width="0" fill="#FF2A00" opacity="0.7" />
<path d="M1431.47,36.5c0.02,4.31-1.81,14.14-3.44,17.5" style="fill:none;stroke:#999;stroke-width:3" />
<path d="M1441.52,33.58c2.13,1.74,5.51,7.17,6.04,9.88" style="fill:none;stroke:#999;stroke-width:3" />
<path d="M1436.37,13.25c1.09,0.5,1.74,2.25,1.96,3.25c0.22,1,0,75.25-0.22,81.5" style="fill:none;stroke:#999;stroke-width:3" />
<path d="M1480.6399999999999,15.39c0.06,0.26-0.51,1.65-0.87,1.94c-2.81,2.24-11.61,6.02-24.08,9.43" style="fill:none;stroke:#999;stroke-width:3" />
<path d="M1451.97,35.56c1.06,0.19,2.48,0.34,3.37,0.35C1462.0,36 1477.15,33.25 1483.99,32.44c1.46-0.17,2.35,0.14,3.08,0.35" style="fill:none;stroke:#999;stroke-width:3" />
<path d="M1455.4299999999998,45.4c0.22,0.35,0.22,0.6,0.35,1.05c1,3.71,2.25,12.88,2.87,19.83" style="fill:none;stroke:#999;stroke-width:3" />
<path d="M1456.46,47.2c7.57-1.18,20.17-2.49,25.82-3.45c2.07-0.36,2.73,2.08,2.63,3.09c-0.39,3.7-1.52,10.41-2.47,16.6" style="fill:none;stroke:#999;stroke-width:3" />
<path d="M1457.6,55.14c4.4-0.39,23.96-2.43,26.03-2.65" style="fill:none;stroke:#999;stroke-width:3" />
<path d="M1459.25,64.09c6-0.59,14.98-1.54,22.64-2.46" style="fill:none;stroke:#999;stroke-width:3" />
<path d="M1468.99,24.91c0.72,0.41,1.16,1.92,1.3,2.79c0.14,0.87,0.5,52.69,0.35,58.14" style="fill:none;stroke:#999;stroke-width:3" />
<path d="M1454.56,74.94c0.65,0.2,2.83,0.7,3.47,0.66c6.71-0.39,17.91-2.55,22.64-3.12c1.06-0.13,2.21-0.1,2.74,0" style="fill:none;stroke:#999;stroke-width:3" />
<path d="M1454.22,90.66c0.6,1.03,1.67,2.18,4.28,0.9c10.04-4.92,11.93-5.37,23.66-10.54" style="fill:none;stroke:#999;stroke-width:3" />
<path d="M1489.59,40.4c0.84,0.67,1.87,0.49,2.62,0.36c7.29-1.26,13.87-3.34,17.18-4.03c2.15-0.45,3.61,1.02,3.63,3.15C1513.1,51 1508.5,81.5 1502.41,91.6c-3.34,5.54-4.87,0.31-5.74-0.67" style="fill:none;stroke:#999;stroke-width:3" />
<path d="M1501.48,13.93c0.81,0.93,0.77,2.82,0.82,4.58c0.62,20.85-5.55,57.5-21.66,75.52" style="fill:none;stroke:black;stroke-width:3" />
<circle cx="1501.48" cy="13.93" r="5" stroke-width="0" fill="#FF2A00" opacity="0.7" />
</svg>