<!-- 0616b -->
<svg width="1635px" height="109px" viewBox="0 0 1635px 109px" xmlns="http://www.w3.org/2000/svg" xmlns:xlink="http://www.w3.org/1999/xlink" xml:space="preserve" version="1.1"  baseProfile="full">
<line x1="1" y1="1" x2="1634" y2="1" style="stroke:#ddd;stroke-width:2" />
<line x1="1" y1="1" x2="1" y2="108" style="stroke:#ddd;stroke-width:2" />
<line x1="1" y1="108" x2="1634" y2="108" style="stroke:#ddd;stroke-width:2" />
<line x1="1634" y1="1" x2="1634" y2="108" style="stroke:#ddd;stroke-width:2" />
<line x1="109" y1="1" x2="109" y2="108" style="stroke:#ddd;stroke-width:2" />
<line x1="218" y1="1" x2="218" y2="108" style="stroke:#ddd;stroke-width:2" />
<line x1="327" y1="1" x2="327" y2="108" style="stroke:#ddd;stroke-width:2" />
<line x1="436" y1="1" x2="436" y2="108" style="stroke:#ddd;stroke-width:2" />
<line x1="545" y1="1" x2="545" y2="108" style="stroke:#ddd;stroke-width:2" />
<line x1="654" y1="1" x2="654" y2="108" style="stroke:#ddd;stroke-width:2" />
<line x1="763" y1="1" x2="763" y2="108" style="stroke:#ddd;stroke-width:2" />
<line x1="872" y1="1" x2="872" y2="108" style="stroke:#ddd;stroke-width:2" />
<line x1="981" y1="1" x2="981" y2="108" style="stroke:#ddd;stroke-width:2" />
<line x1="1090" y1="1" x2="1090" y2="108" style="stroke:#ddd;stroke-width:2" />
<line x1="1199" y1="1" x2="1199" y2="108" style="stroke:#ddd;stroke-width:2" />
<line x1="1308" y1="1" x2="1308" y2="108" style="stroke:#ddd;stroke-width:2" />
<line x1="1417" y1="1" x2="1417" y2="108" style="stroke:#ddd;stroke-width:2" />
<line x1="1526" y1="1" x2="1526" y2="108" style="stroke:#ddd;stroke-width:2" />
<line x1="1" y1="54" x2="1634" y2="54" style="stroke:#ddd;stroke-width:2;stroke-dasharray:3 3" />
<line x1="55" y1="1" x2="55" y2="108" style="stroke:#ddd;stroke-width:2;stroke-dasharray:3 3" />
<line x1="164" y1="1" x2="164" y2="108" style="stroke:#ddd;stroke-width:2;stroke-dasharray:3 3" />
<line x1="273" y1="1" x2="273" y2="108" style="stroke:#ddd;stroke-width:2;stroke-dasharray:3 3" />
<line x1="382" y1="1" x2="382" y2="108" style="stroke:#ddd;stroke-width:2;stroke-dasharray:3 3" />
<line x1="491" y1="1" x2="491" y2="108" style="stroke:#ddd;stroke-width:2;stroke-dasharray:3 3" />
<line x1="600" y1="1" x2="600" y2="108" style="stroke:#ddd;stroke-width:2;stroke-dasharray:3 3" />
<line x1="709" y1="1" x2="709" y2="108" style="stroke:#ddd;stroke-width:2;stroke-dasharray:3 3" />
<line x1="818" y1="1" x2="818" y2="108" style="stroke:#ddd;stroke-width:2;stroke-dasharray:3 3" />
<line x1="927" y1="1" x2="927" y2="108" style="stroke:#ddd;stroke-width:2;stroke-dasharray:3 3" />
<line x1="1036" y1="1" x2="1036" y2="108" style="stroke:#ddd;stroke-width:2;stroke-dasharray:3 3" />
<line x1="1145" y1="1" x2="1145" y2="108" style="stroke:#ddd;stroke-width:2;stroke-dasharray:3 3" />
<line x1="1254" y1="1" x2="1254" y2="108" style="stroke:#ddd;stroke-width:2;stroke-dasharray:3 3" />
<line x1="1363" y1="1" x2="1363" y2="108" style="stroke:#ddd;stroke-width:2;stroke-dasharray:3 3" />
<line x1="1472" y1="1" x2="1472" y2="108" style="stroke:#ddd;stroke-width:2;stroke-dasharray:3 3" />
<line x1="1581" y1="1" x2="1581" y2="108" style="stroke:#ddd;stroke-width:2;stroke-dasharray:3 3" />
<path d="M33.3,12.25c0.05,0.37,0.24,1.03-0.1,1.48c-2.36,3.2-9.47,10.93-16.4,14.19" style="fill:none;stroke:black;stroke-width:3" />
<circle cx="33.3" cy="12.25" r="5" stroke-width="0" fill="#FF2A00" opacity="0.7" />
<path d="M142.3,12.25c0.05,0.37,0.24,1.03-0.1,1.48c-2.36,3.2-9.47,10.93-16.4,14.19" style="fill:none;stroke:#999;stroke-width:3" />
<path d="M143.9,28.17c0.06,0.56,0.28,1.54-0.11,2.23c-2.75,4.81-10.33,14.45-20.04,21.32" style="fill:none;stroke:black;stroke-width:3" />
<circle cx="143.9" cy="28.17" r="5" stroke-width="0" fill="#FF2A00" opacity="0.7" />
<path d="M251.3,12.25c0.05,0.37,0.24,1.03-0.1,1.48c-2.36,3.2-9.47,10.93-16.4,14.19" style="fill:none;stroke:#999;stroke-width:3" />
<path d="M252.9,28.17c0.06,0.56,0.28,1.54-0.11,2.23c-2.75,4.81-10.33,14.45-20.04,21.32" style="fill:none;stroke:#999;stroke-width:3" />
<path d="M246.67000000000002,41.49c0.35,0.17,1.03,1.12,1.1,1.47c0.07,0.35,0,23.36-0.07,25.54" style="fill:none;stroke:black;stroke-width:3" />
<circle cx="246.67000000000002" cy="41.49" r="5" stroke-width="0" fill="#FF2A00" opacity="0.7" />
<path d="M360.3,12.25c0.05,0.37,0.24,1.03-0.1,1.48c-2.36,3.2-9.47,10.93-16.4,14.19" style="fill:none;stroke:#999;stroke-width:3" />
<path d="M361.9,28.17c0.06,0.56,0.28,1.54-0.11,2.23c-2.75,4.81-10.33,14.45-20.04,21.32" style="fill:none;stroke:#999;stroke-width:3" />
<path d="M355.67,41.49c0.35,0.17,1.03,1.12,1.1,1.47c0.07,0.35,0,23.36-0.07,25.54" style="fill:none;stroke:#999;stroke-width:3" />
<path d="M381.45,11.42c0,0.56,0.03,1-0.1,1.67c-0.66,3.48-6.95,15.07-12.34,20.21" style="fill:none;stroke:black;stroke-width:3" />
<circle cx="381.45" cy="11.42" r="5" stroke-width="0" fill="#FF2A00" opacity="0.7" />
<path d="M469.3,12.25c0.05,0.37,0.24,1.03-0.1,1.48c-2.36,3.2-9.47,10.93-16.4,14.19" style="fill:none;stroke:#999;stroke-width:3" />
<path d="M470.9,28.17c0.06,0.56,0.28,1.54-0.11,2.23c-2.75,4.81-10.33,14.45-20.04,21.32" style="fill:none;stroke:#999;stroke-width:3" />
<path d="M464.67,41.49c0.35,0.17,1.03,1.12,1.1,1.47c0.07,0.35,0,23.36-0.07,25.54" style="fill:none;stroke:#999;stroke-width:3" />
<path d="M490.45,11.42c0,0.56,0.03,1-0.1,1.67c-0.66,3.48-6.95,15.07-12.34,20.21" style="fill:none;stroke:#999;stroke-width:3" />
<path d="M489.7,21.62c2.68,1.24,6.11,4.55,7.42,7.68" style="fill:none;stroke:black;stroke-width:3" />
<circle cx="489.7" cy="21.62" r="5" stroke-width="0" fill="#FF2A00" opacity="0.7" />
<path d="M578.3,12.25c0.05,0.37,0.24,1.03-0.1,1.48c-2.36,3.2-9.47,10.93-16.4,14.19" style="fill:none;stroke:#999;stroke-width:3" />
<path d="M579.9,28.17c0.06,0.56,0.28,1.54-0.11,2.23c-2.75,4.81-10.33,14.45-20.04,21.32" style="fill:none;stroke:#999;stroke-width:3" />
<path d="M573.6700000000001,41.49c0.35,0.17,1.03,1.12,1.1,1.47c0.07,0.35,0,23.36-0.07,25.54" style="fill:none;stroke:#999;stroke-width:3" />
<path d="M599.45,11.42c0,0.56,0.03,1-0.1,1.67c-0.66,3.48-6.95,15.07-12.34,20.21" style="fill:none;stroke:#999;stroke-width:3" />
<path d="M598.7,21.62c2.68,1.24,6.11,4.55,7.42,7.68" style="fill:none;stroke:#999;stroke-width:3" />
<path d="M624.22,10.26c0,0.53,0.03,0.95-0.1,1.59c-0.67,3.32-7.1,14.38-12.59,19.29" style="fill:none;stroke:black;stroke-width:3" />
<circle cx="624.22" cy="10.26" r="5" stroke-width="0" fill="#FF2A00" opacity="0.7" />
<path d="M687.3,12.25c0.05,0.37,0.24,1.03-0.1,1.48c-2.36,3.2-9.47,10.93-16.4,14.19" style="fill:none;stroke:#999;stroke-width:3" />
<path d="M688.9,28.17c0.06,0.56,0.28,1.54-0.11,2.23c-2.75,4.81-10.33,14.45-20.04,21.32" style="fill:none;stroke:#999;stroke-width:3" />
<path d="M682.6700000000001,41.49c0.35,0.17,1.03,1.12,1.1,1.47c0.07,0.35,0,23.36-0.07,25.54" style="fill:none;stroke:#999;stroke-width:3" />
<path d="M708.45,11.42c0,0.56,0.03,1-0.1,1.67c-0.66,3.48-6.95,15.07-12.34,20.21" style="fill:none;stroke:#999;stroke-width:3" />
<path d="M707.7,21.62c2.68,1.24,6.11,4.55,7.42,7.68" style="fill:none;stroke:#999;stroke-width:3" />
<path d="M733.22,10.26c0,0.53,0.03,0.95-0.1,1.59c-0.67,3.32-7.1,14.38-12.59,19.29" style="fill:none;stroke:#999;stroke-width:3" />
<path d="M730.33,21.93c3.83,1.6,8.73,5.85,10.59,9.89" style="fill:none;stroke:black;stroke-width:3" />
<circle cx="730.33" cy="21.93" r="5" stroke-width="0" fill="#FF2A00" opacity="0.7" />
<path d="M796.3,12.25c0.05,0.37,0.24,1.03-0.1,1.48c-2.36,3.2-9.47,10.93-16.4,14.19" style="fill:none;stroke:#999;stroke-width:3" />
<path d="M797.9,28.17c0.06,0.56,0.28,1.54-0.11,2.23c-2.75,4.81-10.33,14.45-20.04,21.32" style="fill:none;stroke:#999;stroke-width:3" />
<path d="M791.6700000000001,41.49c0.35,0.17,1.03,1.12,1.1,1.47c0.07,0.35,0,23.36-0.07,25.54" style="fill:none;stroke:#999;stroke-width:3" />
<path d="M817.45,11.42c0,0.56,0.03,1-0.1,1.67c-0.66,3.48-6.95,15.07-12.34,20.21" style="fill:none;stroke:#999;stroke-width:3" />
<path d="M816.7,21.62c2.68,1.24,6.11,4.55,7.42,7.68" style="fill:none;stroke:#999;stroke-width:3" />
<path d="M842.22,10.26c0,0.53,0.03,0.95-0.1,1.59c-0.67,3.32-7.1,14.38-12.59,19.29" style="fill:none;stroke:#999;stroke-width:3" />
<path d="M839.33,21.93c3.83,1.6,8.73,5.85,10.59,9.89" style="fill:none;stroke:#999;stroke-width:3" />
<path d="M825.38,37.4c0.38,0.31,1.26,1.69,1.26,2.32c0,4.26,0.34,15.03,0.27,18.93" style="fill:none;stroke:black;stroke-width:3" />
<circle cx="825.38" cy="37.4" r="5" stroke-width="0" fill="#FF2A00" opacity="0.7" />
<path d="M905.3,12.25c0.05,0.37,0.24,1.03-0.1,1.48c-2.36,3.2-9.47,10.93-16.4,14.19" style="fill:none;stroke:#999;stroke-width:3" />
<path d="M906.9,28.17c0.06,0.56,0.28,1.54-0.11,2.23c-2.75,4.81-10.33,14.45-20.04,21.32" style="fill:none;stroke:#999;stroke-width:3" />
<path d="M900.6700000000001,41.49c0.35,0.17,1.03,1.12,1.1,1.47c0.07,0.35,0,23.36-0.07,25.54" style="fill:none;stroke:#999;stroke-width:3" />
<path d="M926.45,11.42c0,0.56,0.03,1-0.1,1.67c-0.66,3.48-6.95,15.07-12.34,20.21" style="fill:none;stroke:#999;stroke-width:3" />
<path d="M925.7,21.62c2.68,1.24,6.11,4.55,7.42,7.68" style="fill:none;stroke:#999;stroke-width:3" />
<path d="M951.22,10.26c0,0.53,0.03,0.95-0.1,1.59c-0.67,3.32-7.1,14.38-12.59,19.29" style="fill:none;stroke:#999;stroke-width:3" />
<path d="M948.33,21.93c3.83,1.6,8.73,5.85,10.59,9.89" style="fill:none;stroke:#999;stroke-width:3" />
<path d="M934.38,37.4c0.38,0.31,1.26,1.69,1.26,2.32c0,4.26,0.34,15.03,0.27,18.93" style="fill:none;stroke:#999;stroke-width:3" />
<path d="M957.46,43.89c-1.24,0-2.73,0.01-4.31,0.21c-7.45,0.92-15.95,2.04-17.16,2.04" style="fill:none;stroke:black;stroke-width:3" />
<circle cx="957.46" cy="43.89" r="5" stroke-width="0" fill="#FF2A00" opacity="0.7" />
<path d="M1014.3,12.25c0.05,0.37,0.24,1.03-0.1,1.48c-2.36,3.2-9.47,10.93-16.4,14.19" style="fill:none;stroke:#999;stroke-width:3" />
<path d="M1015.9,28.17c0.06,0.56,0.28,1.54-0.11,2.23c-2.75,4.81-10.33,14.45-20.04,21.32" style="fill:none;stroke:#999;stroke-width:3" />
<path d="M1009.6700000000001,41.49c0.35,0.17,1.03,1.12,1.1,1.47c0.07,0.35,0,23.36-0.07,25.54" style="fill:none;stroke:#999;stroke-width:3" />
<path d="M1035.45,11.42c0,0.56,0.03,1-0.1,1.67c-0.66,3.48-6.95,15.07-12.34,20.21" style="fill:none;stroke:#999;stroke-width:3" />
<path d="M1034.7,21.62c2.68,1.24,6.11,4.55,7.42,7.68" style="fill:none;stroke:#999;stroke-width:3" />
<path d="M1060.22,10.26c0,0.53,0.03,0.95-0.1,1.59c-0.67,3.32-7.1,14.38-12.59,19.29" style="fill:none;stroke:#999;stroke-width:3" />
<path d="M1057.33,21.93c3.83,1.6,8.73,5.85,10.59,9.89" style="fill:none;stroke:#999;stroke-width:3" />
<path d="M1043.38,37.4c0.38,0.31,1.26,1.69,1.26,2.32c0,4.26,0.34,15.03,0.27,18.93" style="fill:none;stroke:#999;stroke-width:3" />
<path d="M1066.46,43.89c-1.24,0-2.73,0.01-4.31,0.21c-7.45,0.92-15.95,2.04-17.16,2.04" style="fill:none;stroke:#999;stroke-width:3" />
<path d="M1030.95,40.32c0.07,0.53,0.5,1.36,0.34,2.13c-1.41,6.7-3.79,14.29-13.21,24.46" style="fill:none;stroke:black;stroke-width:3" />
<circle cx="1030.95" cy="40.32" r="5" stroke-width="0" fill="#FF2A00" opacity="0.7" />
<path d="M1123.3,12.25c0.05,0.37,0.24,1.03-0.1,1.48c-2.36,3.2-9.47,10.93-16.4,14.19" style="fill:none;stroke:#999;stroke-width:3" />
<path d="M1124.9,28.17c0.06,0.56,0.28,1.54-0.11,2.23c-2.75,4.81-10.33,14.45-20.04,21.32" style="fill:none;stroke:#999;stroke-width:3" />
<path d="M1118.67,41.49c0.35,0.17,1.03,1.12,1.1,1.47c0.07,0.35,0,23.36-0.07,25.54" style="fill:none;stroke:#999;stroke-width:3" />
<path d="M1144.45,11.42c0,0.56,0.03,1-0.1,1.67c-0.66,3.48-6.95,15.07-12.34,20.21" style="fill:none;stroke:#999;stroke-width:3" />
<path d="M1143.7,21.62c2.68,1.24,6.11,4.55,7.42,7.68" style="fill:none;stroke:#999;stroke-width:3" />
<path d="M1169.22,10.26c0,0.53,0.03,0.95-0.1,1.59c-0.67,3.32-7.1,14.38-12.59,19.29" style="fill:none;stroke:#999;stroke-width:3" />
<path d="M1166.33,21.93c3.83,1.6,8.73,5.85,10.59,9.89" style="fill:none;stroke:#999;stroke-width:3" />
<path d="M1152.38,37.4c0.38,0.31,1.26,1.69,1.26,2.32c0,4.26,0.34,15.03,0.27,18.93" style="fill:none;stroke:#999;stroke-width:3" />
<path d="M1175.46,43.89c-1.24,0-2.73,0.01-4.31,0.21c-7.45,0.92-15.95,2.04-17.16,2.04" style="fill:none;stroke:#999;stroke-width:3" />
<path d="M1139.95,40.32c0.07,0.53,0.5,1.36,0.34,2.13c-1.41,6.7-3.79,14.29-13.21,24.46" style="fill:none;stroke:#999;stroke-width:3" />
<path d="M1136.97,53.65c11.41,2.62,30.97,10.47,38.42,11.82c2.36,0.43,4.33,0.83,6.61,1" style="fill:none;stroke:black;stroke-width:3" />
<circle cx="1136.97" cy="53.65" r="5" stroke-width="0" fill="#FF2A00" opacity="0.7" />
<path d="M1232.3,12.25c0.05,0.37,0.24,1.03-0.1,1.48c-2.36,3.2-9.47,10.93-16.4,14.19" style="fill:none;stroke:#999;stroke-width:3" />
<path d="M1233.9,28.17c0.06,0.56,0.28,1.54-0.11,2.23c-2.75,4.81-10.33,14.45-20.04,21.32" style="fill:none;stroke:#999;stroke-width:3" />
<path d="M1227.67,41.49c0.35,0.17,1.03,1.12,1.1,1.47c0.07,0.35,0,23.36-0.07,25.54" style="fill:none;stroke:#999;stroke-width:3" />
<path d="M1253.45,11.42c0,0.56,0.03,1-0.1,1.67c-0.66,3.48-6.95,15.07-12.34,20.21" style="fill:none;stroke:#999;stroke-width:3" />
<path d="M1252.7,21.62c2.68,1.24,6.11,4.55,7.42,7.68" style="fill:none;stroke:#999;stroke-width:3" />
<path d="M1278.22,10.26c0,0.53,0.03,0.95-0.1,1.59c-0.67,3.32-7.1,14.38-12.59,19.29" style="fill:none;stroke:#999;stroke-width:3" />
<path d="M1275.33,21.93c3.83,1.6,8.73,5.85,10.59,9.89" style="fill:none;stroke:#999;stroke-width:3" />
<path d="M1261.38,37.4c0.38,0.31,1.26,1.69,1.26,2.32c0,4.26,0.34,15.03,0.27,18.93" style="fill:none;stroke:#999;stroke-width:3" />
<path d="M1284.46,43.89c-1.24,0-2.73,0.01-4.31,0.21c-7.45,0.92-15.95,2.04-17.16,2.04" style="fill:none;stroke:#999;stroke-width:3" />
<path d="M1248.95,40.32c0.07,0.53,0.5,1.36,0.34,2.13c-1.41,6.7-3.79,14.29-13.21,24.46" style="fill:none;stroke:#999;stroke-width:3" />
<path d="M1245.97,53.65c11.41,2.62,30.97,10.47,38.42,11.82c2.36,0.43,4.33,0.83,6.61,1" style="fill:none;stroke:#999;stroke-width:3" />
<path d="M1222.81,81.88c0.4,2.25-4.06,12.17-7.31,15.92" style="fill:none;stroke:black;stroke-width:3" />
<circle cx="1222.81" cy="81.88" r="5" stroke-width="0" fill="#FF2A00" opacity="0.7" />
<path d="M1341.3,12.25c0.05,0.37,0.24,1.03-0.1,1.48c-2.36,3.2-9.47,10.93-16.4,14.19" style="fill:none;stroke:#999;stroke-width:3" />
<path d="M1342.9,28.17c0.06,0.56,0.28,1.54-0.11,2.23c-2.75,4.81-10.33,14.45-20.04,21.32" style="fill:none;stroke:#999;stroke-width:3" />
<path d="M1336.67,41.49c0.35,0.17,1.03,1.12,1.1,1.47c0.07,0.35,0,23.36-0.07,25.54" style="fill:none;stroke:#999;stroke-width:3" />
<path d="M1362.45,11.42c0,0.56,0.03,1-0.1,1.67c-0.66,3.48-6.95,15.07-12.34,20.21" style="fill:none;stroke:#999;stroke-width:3" />
<path d="M1361.7,21.62c2.68,1.24,6.11,4.55,7.42,7.68" style="fill:none;stroke:#999;stroke-width:3" />
<path d="M1387.22,10.26c0,0.53,0.03,0.95-0.1,1.59c-0.67,3.32-7.1,14.38-12.59,19.29" style="fill:none;stroke:#999;stroke-width:3" />
<path d="M1384.33,21.93c3.83,1.6,8.73,5.85,10.59,9.89" style="fill:none;stroke:#999;stroke-width:3" />
<path d="M1370.38,37.4c0.38,0.31,1.26,1.69,1.26,2.32c0,4.26,0.34,15.03,0.27,18.93" style="fill:none;stroke:#999;stroke-width:3" />
<path d="M1393.46,43.89c-1.24,0-2.73,0.01-4.31,0.21c-7.45,0.92-15.95,2.04-17.16,2.04" style="fill:none;stroke:#999;stroke-width:3" />
<path d="M1357.95,40.32c0.07,0.53,0.5,1.36,0.34,2.13c-1.41,6.7-3.79,14.29-13.21,24.46" style="fill:none;stroke:#999;stroke-width:3" />
<path d="M1354.97,53.65c11.41,2.62,30.97,10.47,38.42,11.82c2.36,0.43,4.33,0.83,6.61,1" style="fill:none;stroke:#999;stroke-width:3" />
<path d="M1331.81,81.88c0.4,2.25-4.06,12.17-7.31,15.92" style="fill:none;stroke:#999;stroke-width:3" />
<path d="M1342.5,76.82c6.7,11.93,17.3,22.29,43.14,22.43c12.47,0.07,13.28-3.18,2.88-8.61" style="fill:none;stroke:black;stroke-width:3" />
<circle cx="1342.5" cy="76.82" r="5" stroke-width="0" fill="#FF2A00" opacity="0.7" />
<path d="M1450.3,12.25c0.05,0.37,0.24,1.03-0.1,1.48c-2.36,3.2-9.47,10.93-16.4,14.19" style="fill:none;stroke:#999;stroke-width:3" />
<path d="M1451.9,28.17c0.06,0.56,0.28,1.54-0.11,2.23c-2.75,4.81-10.33,14.45-20.04,21.32" style="fill:none;stroke:#999;stroke-width:3" />
<path d="M1445.67,41.49c0.35,0.17,1.03,1.12,1.1,1.47c0.07,0.35,0,23.36-0.07,25.54" style="fill:none;stroke:#999;stroke-width:3" />
<path d="M1471.45,11.42c0,0.56,0.03,1-0.1,1.67c-0.66,3.48-6.95,15.07-12.34,20.21" style="fill:none;stroke:#999;stroke-width:3" />
<path d="M1470.7,21.62c2.68,1.24,6.11,4.55,7.42,7.68" style="fill:none;stroke:#999;stroke-width:3" />
<path d="M1496.22,10.26c0,0.53,0.03,0.95-0.1,1.59c-0.67,3.32-7.1,14.38-12.59,19.29" style="fill:none;stroke:#999;stroke-width:3" />
<path d="M1493.33,21.93c3.83,1.6,8.73,5.85,10.59,9.89" style="fill:none;stroke:#999;stroke-width:3" />
<path d="M1479.38,37.4c0.38,0.31,1.26,1.69,1.26,2.32c0,4.26,0.34,15.03,0.27,18.93" style="fill:none;stroke:#999;stroke-width:3" />
<path d="M1502.46,43.89c-1.24,0-2.73,0.01-4.31,0.21c-7.45,0.92-15.95,2.04-17.16,2.04" style="fill:none;stroke:#999;stroke-width:3" />
<path d="M1466.95,40.32c0.07,0.53,0.5,1.36,0.34,2.13c-1.41,6.7-3.79,14.29-13.21,24.46" style="fill:none;stroke:#999;stroke-width:3" />
<path d="M1463.97,53.65c11.41,2.62,30.97,10.47,38.42,11.82c2.36,0.43,4.33,0.83,6.61,1" style="fill:none;stroke:#999;stroke-width:3" />
<path d="M1440.81,81.88c0.4,2.25-4.06,12.17-7.31,15.92" style="fill:none;stroke:#999;stroke-width:3" />
<path d="M1451.5,76.82c6.7,11.93,17.3,22.29,43.14,22.43c12.47,0.07,13.28-3.18,2.88-8.61" style="fill:none;stroke:#999;stroke-width:3" />
<path d="M1472.33,75.32c2.17,5.25,5.32,10.5,7.63,2.46" style="fill:none;stroke:black;stroke-width:3" />
<circle cx="1472.33" cy="75.32" r="5" stroke-width="0" fill="#FF2A00" opacity="0.7" />
<path d="M1559.3,12.25c0.05,0.37,0.24,1.03-0.1,1.48c-2.36,3.2-9.47,10.93-16.4,14.19" style="fill:none;stroke:#999;stroke-width:3" />
<path d="M1560.9,28.17c0.06,0.56,0.28,1.54-0.11,2.23c-2.75,4.81-10.33,14.45-20.04,21.32" style="fill:none;stroke:#999;stroke-width:3" />
<path d="M1554.67,41.49c0.35,0.17,1.03,1.12,1.1,1.47c0.07,0.35,0,23.36-0.07,25.54" style="fill:none;stroke:#999;stroke-width:3" />
<path d="M1580.45,11.42c0,0.56,0.03,1-0.1,1.67c-0.66,3.48-6.95,15.07-12.34,20.21" style="fill:none;stroke:#999;stroke-width:3" />
<path d="M1579.7,21.62c2.68,1.24,6.11,4.55,7.42,7.68" style="fill:none;stroke:#999;stroke-width:3" />
<path d="M1605.22,10.26c0,0.53,0.03,0.95-0.1,1.59c-0.67,3.32-7.1,14.38-12.59,19.29" style="fill:none;stroke:#999;stroke-width:3" />
<path d="M1602.33,21.93c3.83,1.6,8.73,5.85,10.59,9.89" style="fill:none;stroke:#999;stroke-width:3" />
<path d="M1588.38,37.4c0.38,0.31,1.26,1.69,1.26,2.32c0,4.26,0.34,15.03,0.27,18.93" style="fill:none;stroke:#999;stroke-width:3" />
<path d="M1611.46,43.89c-1.24,0-2.73,0.01-4.31,0.21c-7.45,0.92-15.95,2.04-17.16,2.04" style="fill:none;stroke:#999;stroke-width:3" />
<path d="M1575.95,40.32c0.07,0.53,0.5,1.36,0.34,2.13c-1.41,6.7-3.79,14.29-13.21,24.46" style="fill:none;stroke:#999;stroke-width:3" />
<path d="M1572.97,53.65c11.41,2.62,30.97,10.47,38.42,11.82c2.36,0.43,4.33,0.83,6.61,1" style="fill:none;stroke:#999;stroke-width:3" />
<path d="M1549.81,81.88c0.4,2.25-4.06,12.17-7.31,15.92" style="fill:none;stroke:#999;stroke-width:3" />
<path d="M1560.5,76.82c6.7,11.93,17.3,22.29,43.14,22.43c12.47,0.07,13.28-3.18,2.88-8.61" style="fill:none;stroke:#999;stroke-width:3" />
<path d="M1581.33,75.32c2.17,5.25,5.32,10.5,7.63,2.46" style="fill:none;stroke:#999;stroke-width:3" />
<path d="M1606.55,74.8c5.7,2.07,9.97,3.96,14.6,10.36" style="fill:none;stroke:black;stroke-width:3" />
<circle cx="1606.55" cy="74.8" r="5" stroke-width="0" fill="#FF2A00" opacity="0.7" />
</svg>