<!-- 0618a -->
<svg width="1744px" height="109px" viewBox="0 0 1744px 109px" xmlns="http://www.w3.org/2000/svg" xmlns:xlink="http://www.w3.org/1999/xlink" xml:space="preserve" version="1.1"  baseProfile="full">
<line x1="1" y1="1" x2="1743" y2="1" style="stroke:#ddd;stroke-width:2" />
<line x1="1" y1="1" x2="1" y2="108" style="stroke:#ddd;stroke-width:2" />
<line x1="1" y1="108" x2="1743" y2="108" style="stroke:#ddd;stroke-width:2" />
<line x1="1743" y1="1" x2="1743" y2="108" style="stroke:#ddd;stroke-width:2" />
<line x1="109" y1="1" x2="109" y2="108" style="stroke:#ddd;stroke-width:2" />
<line x1="218" y1="1" x2="218" y2="108" style="stroke:#ddd;stroke-width:2" />
<line x1="327" y1="1" x2="327" y2="108" style="stroke:#ddd;stroke-width:2" />
<line x1="436" y1="1" x2="436" y2="108" style="stroke:#ddd;stroke-width:2" />
<line x1="545" y1="1" x2="545" y2="108" style="stroke:#ddd;stroke-width:2" />
<line x1="654" y1="1" x2="654" y2="108" style="stroke:#ddd;stroke-width:2" />
<line x1="763" y1="1" x2="763" y2="108" style="stroke:#ddd;stroke-width:2" />
<line x1="872" y1="1" x2="872" y2="108" style="stroke:#ddd;stroke-width:2" />
<line x1="981" y1="1" x2="981" y2="108" style="stroke:#ddd;stroke-width:2" />
<line x1="1090" y1="1" x2="1090" y2="108" style="stroke:#ddd;stroke-width:2" />
<line x1="1199" y1="1" x2="1199" y2="108" style="stroke:#ddd;stroke-width:2" />
<line x1="1308" y1="1" x2="1308" y2="108" style="stroke:#ddd;stroke-width:2" />
<line x1="1417" y1="1" x2="1417" y2="108" style="stroke:#ddd;stroke-width:2" />
<line x1="1526" y1="1" x2="1526" y2="108" style="stroke:#ddd;stroke-width:2" />
<line x1="1635" y1="1" x2="1635" y2="108" style="stroke:#ddd;stroke-width:2" />
<line x1="1" y1="54" x2="1743" y2="54" style="stroke:#ddd;stroke-width:2;stroke-dasharray:3 3" />
<line x1="55" y1="1" x2="55" y2="108" style="stroke:#ddd;stroke-width:2;stroke-dasharray:3 3" />
<line x1="164" y1="1" x2="164" y2="108" style="stroke:#ddd;stroke-width:2;stroke-dasharray:3 3" />
<line x1="273" y1="1" x2="273" y2="108" style="stroke:#ddd;stroke-width:2;stroke-dasharray:3 3" />
<line x1="382" y1="1" x2="382" y2="108" style="stroke:#ddd;stroke-width:2;stroke-dasharray:3 3" />
<line x1="491" y1="1" x2="491" y2="108" style="stroke:#ddd;stroke-width:2;stroke-dasharray:3 3" />
<line x1="600" y1="1" x2="600" y2="108" style="stroke:#ddd;stroke-width:2;stroke-dasharray:3 3" />
<line x1="709" y1="1" x2="709" y2="108" style="stroke:#ddd;stroke-width:2;stroke-dasharray:3 3" />
<line x1="818" y1="1" x2="818" y2="108" style="stroke:#ddd;stroke-width:2;stroke-dasharray:3 3" />
<line x1="927" y1="1" x2="927" y2="108" style="stroke:#ddd;stroke-width:2;stroke-dasharray:3 3" />
<line x1="1036" y1="1" x2="1036" y2="108" style="stroke:#ddd;stroke-width:2;stroke-dasharray:3 3" />
<line x1="1145" y1="1" x2="1145" y2="108" style="stroke:#ddd;stroke-width:2;stroke-dasharray:3 3" />
<line x1="1254" y1="1" x2="1254" y2="108" style="stroke:#ddd;stroke-width:2;stroke-dasharray:3 3" />
<line x1="1363" y1="1" x2="1363" y2="108" style="stroke:#ddd;stroke-width:2;stroke-dasharray:3 3" />
<line x1="1472" y1="1" x2="1472" y2="108" style="stroke:#ddd;stroke-width:2;stroke-dasharray:3 3" />
<line x1="1581" y1="1" x2="1581" y2="108" style="stroke:#ddd;stroke-width:2;stroke-dasharray:3 3" />
<line x1="1690" y1="1" x2="1690" y2="108" style="stroke:#ddd;stroke-width:2;stroke-dasharray:3 3" />
<path d="M34.28,12.11c0.22,1.65-0.06,3.81-0.77,5.23c-4.5,9.02-10.2,17.48-20.51,28.46" style="fill:none;stroke:black;stroke-width:3" />
<circle cx="34.28" cy="12.11" r="5" stroke-width="0" fill="#FF2A00" opacity="0.7" />
<path d="M143.28,12.11c0.22,1.65-0.06,3.81-0.77,5.23c-4.5,9.02-10.2,17.48-20.51,28.46" style="fill:none;stroke:#999;stroke-width:3" />
<path d="M136.23,34.09c0.54,0.41,0.64,1.32,0.7,2.17c0.51,7.92-0.48,28.29-0.04,33.15" style="fill:none;stroke:black;stroke-width:3" />
<circle cx="136.23" cy="34.09" r="5" stroke-width="0" fill="#FF2A00" opacity="0.7" />
<path d="M252.28,12.11c0.22,1.65-0.06,3.81-0.77,5.23c-4.5,9.02-10.2,17.48-20.51,28.46" style="fill:none;stroke:#999;stroke-width:3" />
<path d="M245.23,34.09c0.54,0.41,0.64,1.32,0.7,2.17c0.51,7.92-0.48,28.29-0.04,33.15" style="fill:none;stroke:#999;stroke-width:3" />
<path d="M261.15999999999997,19.61c1.15,0.38,2.49,0.45,3.65,0.38c10.6-0.69,26.44-1.98,34.74-2.53c1.92-0.13,3.08,0.18,4.04,0.37" style="fill:none;stroke:black;stroke-width:3" />
<circle cx="261.15999999999997" cy="19.61" r="5" stroke-width="0" fill="#FF2A00" opacity="0.7" />
<path d="M361.28,12.11c0.22,1.65-0.06,3.81-0.77,5.23c-4.5,9.02-10.2,17.48-20.51,28.46" style="fill:none;stroke:#999;stroke-width:3" />
<path d="M354.23,34.09c0.54,0.41,0.64,1.32,0.7,2.17c0.51,7.92-0.48,28.29-0.04,33.15" style="fill:none;stroke:#999;stroke-width:3" />
<path d="M370.15999999999997,19.61c1.15,0.38,2.49,0.45,3.65,0.38c10.6-0.69,26.44-1.98,34.74-2.53c1.92-0.13,3.08,0.18,4.04,0.37" style="fill:none;stroke:#999;stroke-width:3" />
<path d="M379.46,12.09c1.22,0.96,1.66,1.25,1.74,1.85c0.86,6.56,1.15,10.31,1.15,16.8" style="fill:none;stroke:black;stroke-width:3" />
<circle cx="379.46" cy="12.09" r="5" stroke-width="0" fill="#FF2A00" opacity="0.7" />
<path d="M470.28,12.11c0.22,1.65-0.06,3.81-0.77,5.23c-4.5,9.02-10.2,17.48-20.51,28.46" style="fill:none;stroke:#999;stroke-width:3" />
<path d="M463.23,34.09c0.54,0.41,0.64,1.32,0.7,2.17c0.51,7.92-0.48,28.29-0.04,33.15" style="fill:none;stroke:#999;stroke-width:3" />
<path d="M479.15999999999997,19.61c1.15,0.38,2.49,0.45,3.65,0.38c10.6-0.69,26.44-1.98,34.74-2.53c1.92-0.13,3.08,0.18,4.04,0.37" style="fill:none;stroke:#999;stroke-width:3" />
<path d="M488.46,12.09c1.22,0.96,1.66,1.25,1.74,1.85c0.86,6.56,1.15,10.31,1.15,16.8" style="fill:none;stroke:#999;stroke-width:3" />
<path d="M509.38,10.75c0.36,0.5,0.88,1.35,0.82,1.85c-0.71,6.15-0.96,10.65-1.55,16.8" style="fill:none;stroke:black;stroke-width:3" />
<circle cx="509.38" cy="10.75" r="5" stroke-width="0" fill="#FF2A00" opacity="0.7" />
<path d="M579.28,12.11c0.22,1.65-0.06,3.81-0.77,5.23c-4.5,9.02-10.2,17.48-20.51,28.46" style="fill:none;stroke:#999;stroke-width:3" />
<path d="M572.23,34.09c0.54,0.41,0.64,1.32,0.7,2.17c0.51,7.92-0.48,28.29-0.04,33.15" style="fill:none;stroke:#999;stroke-width:3" />
<path d="M588.16,19.61c1.15,0.38,2.49,0.45,3.65,0.38c10.6-0.69,26.44-1.98,34.74-2.53c1.92-0.13,3.08,0.18,4.04,0.37" style="fill:none;stroke:#999;stroke-width:3" />
<path d="M597.46,12.09c1.22,0.96,1.66,1.25,1.74,1.85c0.86,6.56,1.15,10.31,1.15,16.8" style="fill:none;stroke:#999;stroke-width:3" />
<path d="M618.38,10.75c0.36,0.5,0.88,1.35,0.82,1.85c-0.71,6.15-0.96,10.65-1.55,16.8" style="fill:none;stroke:#999;stroke-width:3" />
<path d="M581.49,31.8c1.41,0.37,3.99,0.47,5.39,0.37C603.0,31 616.99,29.27 634.15,28.36c2.34-0.12,3.75,0.18,4.92,0.36" style="fill:none;stroke:black;stroke-width:3" />
<circle cx="581.49" cy="31.8" r="5" stroke-width="0" fill="#FF2A00" opacity="0.7" />
<path d="M688.28,12.11c0.22,1.65-0.06,3.81-0.77,5.23c-4.5,9.02-10.2,17.48-20.51,28.46" style="fill:none;stroke:#999;stroke-width:3" />
<path d="M681.23,34.09c0.54,0.41,0.64,1.32,0.7,2.17c0.51,7.92-0.48,28.29-0.04,33.15" style="fill:none;stroke:#999;stroke-width:3" />
<path d="M697.16,19.61c1.15,0.38,2.49,0.45,3.65,0.38c10.6-0.69,26.44-1.98,34.74-2.53c1.92-0.13,3.08,0.18,4.04,0.37" style="fill:none;stroke:#999;stroke-width:3" />
<path d="M706.46,12.09c1.22,0.96,1.66,1.25,1.74,1.85c0.86,6.56,1.15,10.31,1.15,16.8" style="fill:none;stroke:#999;stroke-width:3" />
<path d="M727.38,10.75c0.36,0.5,0.88,1.35,0.82,1.85c-0.71,6.15-0.96,10.65-1.55,16.8" style="fill:none;stroke:#999;stroke-width:3" />
<path d="M690.49,31.8c1.41,0.37,3.99,0.47,5.39,0.37C712.0,31 725.99,29.27 743.15,28.36c2.34-0.12,3.75,0.18,4.92,0.36" style="fill:none;stroke:#999;stroke-width:3" />
<path d="M701.4,35.27c0.04,0.61,0.01,1.74-0.07,2.46c-1.08,9.52-4.83,18.02-13.09,24.57" style="fill:none;stroke:black;stroke-width:3" />
<circle cx="701.4" cy="35.27" r="5" stroke-width="0" fill="#FF2A00" opacity="0.7" />
<path d="M797.28,12.11c0.22,1.65-0.06,3.81-0.77,5.23c-4.5,9.02-10.2,17.48-20.51,28.46" style="fill:none;stroke:#999;stroke-width:3" />
<path d="M790.23,34.09c0.54,0.41,0.64,1.32,0.7,2.17c0.51,7.92-0.48,28.29-0.04,33.15" style="fill:none;stroke:#999;stroke-width:3" />
<path d="M806.16,19.61c1.15,0.38,2.49,0.45,3.65,0.38c10.6-0.69,26.44-1.98,34.74-2.53c1.92-0.13,3.08,0.18,4.04,0.37" style="fill:none;stroke:#999;stroke-width:3" />
<path d="M815.46,12.09c1.22,0.96,1.66,1.25,1.74,1.85c0.86,6.56,1.15,10.31,1.15,16.8" style="fill:none;stroke:#999;stroke-width:3" />
<path d="M836.38,10.75c0.36,0.5,0.88,1.35,0.82,1.85c-0.71,6.15-0.96,10.65-1.55,16.8" style="fill:none;stroke:#999;stroke-width:3" />
<path d="M799.49,31.8c1.41,0.37,3.99,0.47,5.39,0.37C821.0,31 834.99,29.27 852.15,28.36c2.34-0.12,3.75,0.18,4.92,0.36" style="fill:none;stroke:#999;stroke-width:3" />
<path d="M810.4,35.27c0.04,0.61,0.01,1.74-0.07,2.46c-1.08,9.52-4.83,18.02-13.09,24.57" style="fill:none;stroke:#999;stroke-width:3" />
<path d="M814.93,39.97c0.57,1.03,0.99,1.39,1.01,2.81c0.09,6.14,0.09,25.75,0.09,26.48" style="fill:none;stroke:black;stroke-width:3" />
<circle cx="814.93" cy="39.97" r="5" stroke-width="0" fill="#FF2A00" opacity="0.7" />
<path d="M906.28,12.11c0.22,1.65-0.06,3.81-0.77,5.23c-4.5,9.02-10.2,17.48-20.51,28.46" style="fill:none;stroke:#999;stroke-width:3" />
<path d="M899.23,34.09c0.54,0.41,0.64,1.32,0.7,2.17c0.51,7.92-0.48,28.29-0.04,33.15" style="fill:none;stroke:#999;stroke-width:3" />
<path d="M915.16,19.61c1.15,0.38,2.49,0.45,3.65,0.38c10.6-0.69,26.44-1.98,34.74-2.53c1.92-0.13,3.08,0.18,4.04,0.37" style="fill:none;stroke:#999;stroke-width:3" />
<path d="M924.46,12.09c1.22,0.96,1.66,1.25,1.74,1.85c0.86,6.56,1.15,10.31,1.15,16.8" style="fill:none;stroke:#999;stroke-width:3" />
<path d="M945.38,10.75c0.36,0.5,0.88,1.35,0.82,1.85c-0.71,6.15-0.96,10.65-1.55,16.8" style="fill:none;stroke:#999;stroke-width:3" />
<path d="M908.49,31.8c1.41,0.37,3.99,0.47,5.39,0.37C930.0,31 943.99,29.27 961.15,28.36c2.34-0.12,3.75,0.18,4.92,0.36" style="fill:none;stroke:#999;stroke-width:3" />
<path d="M919.4,35.27c0.04,0.61,0.01,1.74-0.07,2.46c-1.08,9.52-4.83,18.02-13.09,24.57" style="fill:none;stroke:#999;stroke-width:3" />
<path d="M923.93,39.97c0.57,1.03,0.99,1.39,1.01,2.81c0.09,6.14,0.09,25.75,0.09,26.48" style="fill:none;stroke:#999;stroke-width:3" />
<path d="M925.33,40.9c4.81-0.16,28.43-2.36,29.7-2.46c2.29-0.19,3.14,1.24,2.86,1.81c-0.27,0.55-0.43,14.75-0.43,22.47c0,5.94-4.46,0.82-5.37,0.49" style="fill:none;stroke:black;stroke-width:3" />
<circle cx="925.33" cy="40.9" r="5" stroke-width="0" fill="#FF2A00" opacity="0.7" />
<path d="M1015.28,12.11c0.22,1.65-0.06,3.81-0.77,5.23c-4.5,9.02-10.2,17.48-20.51,28.46" style="fill:none;stroke:#999;stroke-width:3" />
<path d="M1008.23,34.09c0.54,0.41,0.64,1.32,0.7,2.17c0.51,7.92-0.48,28.29-0.04,33.15" style="fill:none;stroke:#999;stroke-width:3" />
<path d="M1024.1599999999999,19.61c1.15,0.38,2.49,0.45,3.65,0.38c10.6-0.69,26.44-1.98,34.74-2.53c1.92-0.13,3.08,0.18,4.04,0.37" style="fill:none;stroke:#999;stroke-width:3" />
<path d="M1033.46,12.09c1.22,0.96,1.66,1.25,1.74,1.85c0.86,6.56,1.15,10.31,1.15,16.8" style="fill:none;stroke:#999;stroke-width:3" />
<path d="M1054.38,10.75c0.36,0.5,0.88,1.35,0.82,1.85c-0.71,6.15-0.96,10.65-1.55,16.8" style="fill:none;stroke:#999;stroke-width:3" />
<path d="M1017.49,31.8c1.41,0.37,3.99,0.47,5.39,0.37C1039.0,31 1052.99,29.27 1070.15,28.36c2.34-0.12,3.75,0.18,4.92,0.36" style="fill:none;stroke:#999;stroke-width:3" />
<path d="M1028.4,35.27c0.04,0.61,0.01,1.74-0.07,2.46c-1.08,9.52-4.83,18.02-13.09,24.57" style="fill:none;stroke:#999;stroke-width:3" />
<path d="M1032.9299999999998,39.97c0.57,1.03,0.99,1.39,1.01,2.81c0.09,6.14,0.09,25.75,0.09,26.48" style="fill:none;stroke:#999;stroke-width:3" />
<path d="M1034.33,40.9c4.81-0.16,28.43-2.36,29.7-2.46c2.29-0.19,3.14,1.24,2.86,1.81c-0.27,0.55-0.43,14.75-0.43,22.47c0,5.94-4.46,0.82-5.37,0.49" style="fill:none;stroke:#999;stroke-width:3" />
<path d="M1034.33,48.97c6.37-0.33,26.84-1.76,31.98-2.05" style="fill:none;stroke:black;stroke-width:3" />
<circle cx="1034.33" cy="48.97" r="5" stroke-width="0" fill="#FF2A00" opacity="0.7" />
<path d="M1124.28,12.11c0.22,1.65-0.06,3.81-0.77,5.23c-4.5,9.02-10.2,17.48-20.51,28.46" style="fill:none;stroke:#999;stroke-width:3" />
<path d="M1117.23,34.09c0.54,0.41,0.64,1.32,0.7,2.17c0.51,7.92-0.48,28.29-0.04,33.15" style="fill:none;stroke:#999;stroke-width:3" />
<path d="M1133.1599999999999,19.61c1.15,0.38,2.49,0.45,3.65,0.38c10.6-0.69,26.44-1.98,34.74-2.53c1.92-0.13,3.08,0.18,4.04,0.37" style="fill:none;stroke:#999;stroke-width:3" />
<path d="M1142.46,12.09c1.22,0.96,1.66,1.25,1.74,1.85c0.86,6.56,1.15,10.31,1.15,16.8" style="fill:none;stroke:#999;stroke-width:3" />
<path d="M1163.38,10.75c0.36,0.5,0.88,1.35,0.82,1.85c-0.71,6.15-0.96,10.65-1.55,16.8" style="fill:none;stroke:#999;stroke-width:3" />
<path d="M1126.49,31.8c1.41,0.37,3.99,0.47,5.39,0.37C1148.0,31 1161.99,29.27 1179.15,28.36c2.34-0.12,3.75,0.18,4.92,0.36" style="fill:none;stroke:#999;stroke-width:3" />
<path d="M1137.4,35.27c0.04,0.61,0.01,1.74-0.07,2.46c-1.08,9.52-4.83,18.02-13.09,24.57" style="fill:none;stroke:#999;stroke-width:3" />
<path d="M1141.9299999999998,39.97c0.57,1.03,0.99,1.39,1.01,2.81c0.09,6.14,0.09,25.75,0.09,26.48" style="fill:none;stroke:#999;stroke-width:3" />
<path d="M1143.33,40.9c4.81-0.16,28.43-2.36,29.7-2.46c2.29-0.19,3.14,1.24,2.86,1.81c-0.27,0.55-0.43,14.75-0.43,22.47c0,5.94-4.46,0.82-5.37,0.49" style="fill:none;stroke:#999;stroke-width:3" />
<path d="M1143.33,48.97c6.37-0.33,26.84-1.76,31.98-2.05" style="fill:none;stroke:#999;stroke-width:3" />
<path d="M1143.46,57.67c4.57-0.29,26.53-1.83,31.81-2.02" style="fill:none;stroke:black;stroke-width:3" />
<circle cx="1143.46" cy="57.67" r="5" stroke-width="0" fill="#FF2A00" opacity="0.7" />
<path d="M1233.28,12.11c0.22,1.65-0.06,3.81-0.77,5.23c-4.5,9.02-10.2,17.48-20.51,28.46" style="fill:none;stroke:#999;stroke-width:3" />
<path d="M1226.23,34.09c0.54,0.41,0.64,1.32,0.7,2.17c0.51,7.92-0.48,28.29-0.04,33.15" style="fill:none;stroke:#999;stroke-width:3" />
<path d="M1242.1599999999999,19.61c1.15,0.38,2.49,0.45,3.65,0.38c10.6-0.69,26.44-1.98,34.74-2.53c1.92-0.13,3.08,0.18,4.04,0.37" style="fill:none;stroke:#999;stroke-width:3" />
<path d="M1251.46,12.09c1.22,0.96,1.66,1.25,1.74,1.85c0.86,6.56,1.15,10.31,1.15,16.8" style="fill:none;stroke:#999;stroke-width:3" />
<path d="M1272.38,10.75c0.36,0.5,0.88,1.35,0.82,1.85c-0.71,6.15-0.96,10.65-1.55,16.8" style="fill:none;stroke:#999;stroke-width:3" />
<path d="M1235.49,31.8c1.41,0.37,3.99,0.47,5.39,0.37C1257.0,31 1270.99,29.27 1288.15,28.36c2.34-0.12,3.75,0.18,4.92,0.36" style="fill:none;stroke:#999;stroke-width:3" />
<path d="M1246.4,35.27c0.04,0.61,0.01,1.74-0.07,2.46c-1.08,9.52-4.83,18.02-13.09,24.57" style="fill:none;stroke:#999;stroke-width:3" />
<path d="M1250.9299999999998,39.97c0.57,1.03,0.99,1.39,1.01,2.81c0.09,6.14,0.09,25.75,0.09,26.48" style="fill:none;stroke:#999;stroke-width:3" />
<path d="M1252.33,40.9c4.81-0.16,28.43-2.36,29.7-2.46c2.29-0.19,3.14,1.24,2.86,1.81c-0.27,0.55-0.43,14.75-0.43,22.47c0,5.94-4.46,0.82-5.37,0.49" style="fill:none;stroke:#999;stroke-width:3" />
<path d="M1252.33,48.97c6.37-0.33,26.84-1.76,31.98-2.05" style="fill:none;stroke:#999;stroke-width:3" />
<path d="M1252.46,57.67c4.57-0.29,26.53-1.83,31.81-2.02" style="fill:none;stroke:#999;stroke-width:3" />
<path d="M1267.32,39.98c0.11,0.37,0,24.99-0.11,27.29" style="fill:none;stroke:black;stroke-width:3" />
<circle cx="1267.32" cy="39.98" r="5" stroke-width="0" fill="#FF2A00" opacity="0.7" />
<path d="M1342.28,12.11c0.22,1.65-0.06,3.81-0.77,5.23c-4.5,9.02-10.2,17.48-20.51,28.46" style="fill:none;stroke:#999;stroke-width:3" />
<path d="M1335.23,34.09c0.54,0.41,0.64,1.32,0.7,2.17c0.51,7.92-0.48,28.29-0.04,33.15" style="fill:none;stroke:#999;stroke-width:3" />
<path d="M1351.1599999999999,19.61c1.15,0.38,2.49,0.45,3.65,0.38c10.6-0.69,26.44-1.98,34.74-2.53c1.92-0.13,3.08,0.18,4.04,0.37" style="fill:none;stroke:#999;stroke-width:3" />
<path d="M1360.46,12.09c1.22,0.96,1.66,1.25,1.74,1.85c0.86,6.56,1.15,10.31,1.15,16.8" style="fill:none;stroke:#999;stroke-width:3" />
<path d="M1381.38,10.75c0.36,0.5,0.88,1.35,0.82,1.85c-0.71,6.15-0.96,10.65-1.55,16.8" style="fill:none;stroke:#999;stroke-width:3" />
<path d="M1344.49,31.8c1.41,0.37,3.99,0.47,5.39,0.37C1366.0,31 1379.99,29.27 1397.15,28.36c2.34-0.12,3.75,0.18,4.92,0.36" style="fill:none;stroke:#999;stroke-width:3" />
<path d="M1355.4,35.27c0.04,0.61,0.01,1.74-0.07,2.46c-1.08,9.52-4.83,18.02-13.09,24.57" style="fill:none;stroke:#999;stroke-width:3" />
<path d="M1359.9299999999998,39.97c0.57,1.03,0.99,1.39,1.01,2.81c0.09,6.14,0.09,25.75,0.09,26.48" style="fill:none;stroke:#999;stroke-width:3" />
<path d="M1361.33,40.9c4.81-0.16,28.43-2.36,29.7-2.46c2.29-0.19,3.14,1.24,2.86,1.81c-0.27,0.55-0.43,14.75-0.43,22.47c0,5.94-4.46,0.82-5.37,0.49" style="fill:none;stroke:#999;stroke-width:3" />
<path d="M1361.33,48.97c6.37-0.33,26.84-1.76,31.98-2.05" style="fill:none;stroke:#999;stroke-width:3" />
<path d="M1361.46,57.67c4.57-0.29,26.53-1.83,31.81-2.02" style="fill:none;stroke:#999;stroke-width:3" />
<path d="M1376.32,39.98c0.11,0.37,0,24.99-0.11,27.29" style="fill:none;stroke:#999;stroke-width:3" />
<path d="M1333.82,81.63C1334.14,83.92 1330.59,94 1328.0,97.8" style="fill:none;stroke:black;stroke-width:3" />
<circle cx="1333.82" cy="81.63" r="5" stroke-width="0" fill="#FF2A00" opacity="0.7" />
<path d="M1451.28,12.11c0.22,1.65-0.06,3.81-0.77,5.23c-4.5,9.02-10.2,17.48-20.51,28.46" style="fill:none;stroke:#999;stroke-width:3" />
<path d="M1444.23,34.09c0.54,0.41,0.64,1.32,0.7,2.17c0.51,7.92-0.48,28.29-0.04,33.15" style="fill:none;stroke:#999;stroke-width:3" />
<path d="M1460.1599999999999,19.61c1.15,0.38,2.49,0.45,3.65,0.38c10.6-0.69,26.44-1.98,34.74-2.53c1.92-0.13,3.08,0.18,4.04,0.37" style="fill:none;stroke:#999;stroke-width:3" />
<path d="M1469.46,12.09c1.22,0.96,1.66,1.25,1.74,1.85c0.86,6.56,1.15,10.31,1.15,16.8" style="fill:none;stroke:#999;stroke-width:3" />
<path d="M1490.38,10.75c0.36,0.5,0.88,1.35,0.82,1.85c-0.71,6.15-0.96,10.65-1.55,16.8" style="fill:none;stroke:#999;stroke-width:3" />
<path d="M1453.49,31.8c1.41,0.37,3.99,0.47,5.39,0.37C1475.0,31 1488.99,29.27 1506.15,28.36c2.34-0.12,3.75,0.18,4.92,0.36" style="fill:none;stroke:#999;stroke-width:3" />
<path d="M1464.4,35.27c0.04,0.61,0.01,1.74-0.07,2.46c-1.08,9.52-4.83,18.02-13.09,24.57" style="fill:none;stroke:#999;stroke-width:3" />
<path d="M1468.9299999999998,39.97c0.57,1.03,0.99,1.39,1.01,2.81c0.09,6.14,0.09,25.75,0.09,26.48" style="fill:none;stroke:#999;stroke-width:3" />
<path d="M1470.33,40.9c4.81-0.16,28.43-2.36,29.7-2.46c2.29-0.19,3.14,1.24,2.86,1.81c-0.27,0.55-0.43,14.75-0.43,22.47c0,5.94-4.46,0.82-5.37,0.49" style="fill:none;stroke:#999;stroke-width:3" />
<path d="M1470.33,48.97c6.37-0.33,26.84-1.76,31.98-2.05" style="fill:none;stroke:#999;stroke-width:3" />
<path d="M1470.46,57.67c4.57-0.29,26.53-1.83,31.81-2.02" style="fill:none;stroke:#999;stroke-width:3" />
<path d="M1485.32,39.98c0.11,0.37,0,24.99-0.11,27.29" style="fill:none;stroke:#999;stroke-width:3" />
<path d="M1442.82,81.63C1443.14,83.92 1439.59,94 1437.0,97.8" style="fill:none;stroke:#999;stroke-width:3" />
<path d="M1452.5,75.82c7.75,12.93,16.25,23.93,44.76,23.68c12.94-0.11,13.78-3.36,2.99-9.09" style="fill:none;stroke:black;stroke-width:3" />
<circle cx="1452.5" cy="75.82" r="5" stroke-width="0" fill="#FF2A00" opacity="0.7" />
<path d="M1560.28,12.11c0.22,1.65-0.06,3.81-0.77,5.23c-4.5,9.02-10.2,17.48-20.51,28.46" style="fill:none;stroke:#999;stroke-width:3" />
<path d="M1553.23,34.09c0.54,0.41,0.64,1.32,0.7,2.17c0.51,7.92-0.48,28.29-0.04,33.15" style="fill:none;stroke:#999;stroke-width:3" />
<path d="M1569.1599999999999,19.61c1.15,0.38,2.49,0.45,3.65,0.38c10.6-0.69,26.44-1.98,34.74-2.53c1.92-0.13,3.08,0.18,4.04,0.37" style="fill:none;stroke:#999;stroke-width:3" />
<path d="M1578.46,12.09c1.22,0.96,1.66,1.25,1.74,1.85c0.86,6.56,1.15,10.31,1.15,16.8" style="fill:none;stroke:#999;stroke-width:3" />
<path d="M1599.38,10.75c0.36,0.5,0.88,1.35,0.82,1.85c-0.71,6.15-0.96,10.65-1.55,16.8" style="fill:none;stroke:#999;stroke-width:3" />
<path d="M1562.49,31.8c1.41,0.37,3.99,0.47,5.39,0.37C1584.0,31 1597.99,29.27 1615.15,28.36c2.34-0.12,3.75,0.18,4.92,0.36" style="fill:none;stroke:#999;stroke-width:3" />
<path d="M1573.4,35.27c0.04,0.61,0.01,1.74-0.07,2.46c-1.08,9.52-4.83,18.02-13.09,24.57" style="fill:none;stroke:#999;stroke-width:3" />
<path d="M1577.9299999999998,39.97c0.57,1.03,0.99,1.39,1.01,2.81c0.09,6.14,0.09,25.75,0.09,26.48" style="fill:none;stroke:#999;stroke-width:3" />
<path d="M1579.33,40.9c4.81-0.16,28.43-2.36,29.7-2.46c2.29-0.19,3.14,1.24,2.86,1.81c-0.27,0.55-0.43,14.75-0.43,22.47c0,5.94-4.46,0.82-5.37,0.49" style="fill:none;stroke:#999;stroke-width:3" />
<path d="M1579.33,48.97c6.37-0.33,26.84-1.76,31.98-2.05" style="fill:none;stroke:#999;stroke-width:3" />
<path d="M1579.46,57.67c4.57-0.29,26.53-1.83,31.81-2.02" style="fill:none;stroke:#999;stroke-width:3" />
<path d="M1594.32,39.98c0.11,0.37,0,24.99-0.11,27.29" style="fill:none;stroke:#999;stroke-width:3" />
<path d="M1551.82,81.63C1552.14,83.92 1548.59,94 1546.0,97.8" style="fill:none;stroke:#999;stroke-width:3" />
<path d="M1561.5,75.82c7.75,12.93,16.25,23.93,44.76,23.68c12.94-0.11,13.78-3.36,2.99-9.09" style="fill:none;stroke:#999;stroke-width:3" />
<path d="M1583.33,74.82c1.88,4.56,4.62,9.12,6.63,2.14" style="fill:none;stroke:black;stroke-width:3" />
<circle cx="1583.33" cy="74.82" r="5" stroke-width="0" fill="#FF2A00" opacity="0.7" />
<path d="M1669.28,12.11c0.22,1.65-0.06,3.81-0.77,5.23c-4.5,9.02-10.2,17.48-20.51,28.46" style="fill:none;stroke:#999;stroke-width:3" />
<path d="M1662.23,34.09c0.54,0.41,0.64,1.32,0.7,2.17c0.51,7.92-0.48,28.29-0.04,33.15" style="fill:none;stroke:#999;stroke-width:3" />
<path d="M1678.1599999999999,19.61c1.15,0.38,2.49,0.45,3.65,0.38c10.6-0.69,26.44-1.98,34.74-2.53c1.92-0.13,3.08,0.18,4.04,0.37" style="fill:none;stroke:#999;stroke-width:3" />
<path d="M1687.46,12.09c1.22,0.96,1.66,1.25,1.74,1.85c0.86,6.56,1.15,10.31,1.15,16.8" style="fill:none;stroke:#999;stroke-width:3" />
<path d="M1708.38,10.75c0.36,0.5,0.88,1.35,0.82,1.85c-0.71,6.15-0.96,10.65-1.55,16.8" style="fill:none;stroke:#999;stroke-width:3" />
<path d="M1671.49,31.8c1.41,0.37,3.99,0.47,5.39,0.37C1693.0,31 1706.99,29.27 1724.15,28.36c2.34-0.12,3.75,0.18,4.92,0.36" style="fill:none;stroke:#999;stroke-width:3" />
<path d="M1682.4,35.27c0.04,0.61,0.01,1.74-0.07,2.46c-1.08,9.52-4.83,18.02-13.09,24.57" style="fill:none;stroke:#999;stroke-width:3" />
<path d="M1686.9299999999998,39.97c0.57,1.03,0.99,1.39,1.01,2.81c0.09,6.14,0.09,25.75,0.09,26.48" style="fill:none;stroke:#999;stroke-width:3" />
<path d="M1688.33,40.9c4.81-0.16,28.43-2.36,29.7-2.46c2.29-0.19,3.14,1.24,2.86,1.81c-0.27,0.55-0.43,14.75-0.43,22.47c0,5.94-4.46,0.82-5.37,0.49" style="fill:none;stroke:#999;stroke-width:3" />
<path d="M1688.33,48.97c6.37-0.33,26.84-1.76,31.98-2.05" style="fill:none;stroke:#999;stroke-width:3" />
<path d="M1688.46,57.67c4.57-0.29,26.53-1.83,31.81-2.02" style="fill:none;stroke:#999;stroke-width:3" />
<path d="M1703.32,39.98c0.11,0.37,0,24.99-0.11,27.29" style="fill:none;stroke:#999;stroke-width:3" />
<path d="M1660.82,81.63C1661.14,83.92 1657.59,94 1655.0,97.8" style="fill:none;stroke:#999;stroke-width:3" />
<path d="M1670.5,75.82c7.75,12.93,16.25,23.93,44.76,23.68c12.94-0.11,13.78-3.36,2.99-9.09" style="fill:none;stroke:#999;stroke-width:3" />
<path d="M1692.33,74.82c1.88,4.56,4.62,9.12,6.63,2.14" style="fill:none;stroke:#999;stroke-width:3" />
<path d="M1717.05,74.3c4.92,1.97,8.61,3.76,12.6,9.86" style="fill:none;stroke:black;stroke-width:3" />
<circle cx="1717.05" cy="74.3" r="5" stroke-width="0" fill="#FF2A00" opacity="0.7" />
</svg>