<!-- 0618e -->
<svg width="1526px" height="109px" viewBox="0 0 1526px 109px" xmlns="http://www.w3.org/2000/svg" xmlns:xlink="http://www.w3.org/1999/xlink" xml:space="preserve" version="1.1"  baseProfile="full">
<line x1="1" y1="1" x2="1525" y2="1" style="stroke:#ddd;stroke-width:2" />
<line x1="1" y1="1" x2="1" y2="108" style="stroke:#ddd;stroke-width:2" />
<line x1="1" y1="108" x2="1525" y2="108" style="stroke:#ddd;stroke-width:2" />
<line x1="1525" y1="1" x2="1525" y2="108" style="stroke:#ddd;stroke-width:2" />
<line x1="109" y1="1" x2="109" y2="108" style="stroke:#ddd;stroke-width:2" />
<line x1="218" y1="1" x2="218" y2="108" style="stroke:#ddd;stroke-width:2" />
<line x1="327" y1="1" x2="327" y2="108" style="stroke:#ddd;stroke-width:2" />
<line x1="436" y1="1" x2="436" y2="108" style="stroke:#ddd;stroke-width:2" />
<line x1="545" y1="1" x2="545" y2="108" style="stroke:#ddd;stroke-width:2" />
<line x1="654" y1="1" x2="654" y2="108" style="stroke:#ddd;stroke-width:2" />
<line x1="763" y1="1" x2="763" y2="108" style="stroke:#ddd;stroke-width:2" />
<line x1="872" y1="1" x2="872" y2="108" style="stroke:#ddd;stroke-width:2" />
<line x1="981" y1="1" x2="981" y2="108" style="stroke:#ddd;stroke-width:2" />
<line x1="1090" y1="1" x2="1090" y2="108" style="stroke:#ddd;stroke-width:2" />
<line x1="1199" y1="1" x2="1199" y2="108" style="stroke:#ddd;stroke-width:2" />
<line x1="1308" y1="1" x2="1308" y2="108" style="stroke:#ddd;stroke-width:2" />
<line x1="1417" y1="1" x2="1417" y2="108" style="stroke:#ddd;stroke-width:2" />
<line x1="1" y1="54" x2="1525" y2="54" style="stroke:#ddd;stroke-width:2;stroke-dasharray:3 3" />
<line x1="55" y1="1" x2="55" y2="108" style="stroke:#ddd;stroke-width:2;stroke-dasharray:3 3" />
<line x1="164" y1="1" x2="164" y2="108" style="stroke:#ddd;stroke-width:2;stroke-dasharray:3 3" />
<line x1="273" y1="1" x2="273" y2="108" style="stroke:#ddd;stroke-width:2;stroke-dasharray:3 3" />
<line x1="382" y1="1" x2="382" y2="108" style="stroke:#ddd;stroke-width:2;stroke-dasharray:3 3" />
<line x1="491" y1="1" x2="491" y2="108" style="stroke:#ddd;stroke-width:2;stroke-dasharray:3 3" />
<line x1="600" y1="1" x2="600" y2="108" style="stroke:#ddd;stroke-width:2;stroke-dasharray:3 3" />
<line x1="709" y1="1" x2="709" y2="108" style="stroke:#ddd;stroke-width:2;stroke-dasharray:3 3" />
<line x1="818" y1="1" x2="818" y2="108" style="stroke:#ddd;stroke-width:2;stroke-dasharray:3 3" />
<line x1="927" y1="1" x2="927" y2="108" style="stroke:#ddd;stroke-width:2;stroke-dasharray:3 3" />
<line x1="1036" y1="1" x2="1036" y2="108" style="stroke:#ddd;stroke-width:2;stroke-dasharray:3 3" />
<line x1="1145" y1="1" x2="1145" y2="108" style="stroke:#ddd;stroke-width:2;stroke-dasharray:3 3" />
<line x1="1254" y1="1" x2="1254" y2="108" style="stroke:#ddd;stroke-width:2;stroke-dasharray:3 3" />
<line x1="1363" y1="1" x2="1363" y2="108" style="stroke:#ddd;stroke-width:2;stroke-dasharray:3 3" />
<line x1="1472" y1="1" x2="1472" y2="108" style="stroke:#ddd;stroke-width:2;stroke-dasharray:3 3" />
<path d="M17.47,40.25C17.5,44.63 15.4,54.6 13.53,58" style="fill:none;stroke:black;stroke-width:3" />
<circle cx="17.47" cy="40.25" r="5" stroke-width="0" fill="#FF2A00" opacity="0.7" />
<path d="M126.47,40.25C126.5,44.63 124.4,54.6 122.53,58" style="fill:none;stroke:#999;stroke-width:3" />
<path d="M139.02,34.58c2.84,1.74,7.33,7.17,8.04,9.88" style="fill:none;stroke:black;stroke-width:3" />
<circle cx="139.02" cy="34.58" r="5" stroke-width="0" fill="#FF2A00" opacity="0.7" />
<path d="M235.47,40.25C235.5,44.63 233.4,54.6 231.53,58" style="fill:none;stroke:#999;stroke-width:3" />
<path d="M248.02,34.58c2.84,1.74,7.33,7.17,8.04,9.88" style="fill:none;stroke:#999;stroke-width:3" />
<path d="M243.62,14.75c1.06,1.06,1.21,2.5,1.21,4.25c0,0.67,0.05,49.81,0.04,70c0,5.04,0,8.28-0.01,8.5" style="fill:none;stroke:black;stroke-width:3" />
<circle cx="243.62" cy="14.75" r="5" stroke-width="0" fill="#FF2A00" opacity="0.7" />
<path d="M344.47,40.25C344.5,44.63 342.4,54.6 340.53,58" style="fill:none;stroke:#999;stroke-width:3" />
<path d="M357.02,34.58c2.84,1.74,7.33,7.17,8.04,9.88" style="fill:none;stroke:#999;stroke-width:3" />
<path d="M352.62,14.75c1.06,1.06,1.21,2.5,1.21,4.25c0,0.67,0.05,49.81,0.04,70c0,5.04,0,8.28-0.01,8.5" style="fill:none;stroke:#999;stroke-width:3" />
<path d="M376.38,14.38c3.17,2.05,8.19,8.41,8.99,11.6" style="fill:none;stroke:black;stroke-width:3" />
<circle cx="376.38" cy="14.38" r="5" stroke-width="0" fill="#FF2A00" opacity="0.7" />
<path d="M453.47,40.25C453.5,44.63 451.4,54.6 449.53,58" style="fill:none;stroke:#999;stroke-width:3" />
<path d="M466.02,34.58c2.84,1.74,7.33,7.17,8.04,9.88" style="fill:none;stroke:#999;stroke-width:3" />
<path d="M461.62,14.75c1.06,1.06,1.21,2.5,1.21,4.25c0,0.67,0.05,49.81,0.04,70c0,5.04,0,8.28-0.01,8.5" style="fill:none;stroke:#999;stroke-width:3" />
<path d="M485.38,14.38c3.17,2.05,8.19,8.41,8.99,11.6" style="fill:none;stroke:#999;stroke-width:3" />
<path d="M518.04,11.06c0.09,0.82-0.01,1.61-0.28,2.37C516.0,16.5 513.3,20.35 508.64,25.19" style="fill:none;stroke:black;stroke-width:3" />
<circle cx="518.04" cy="11.06" r="5" stroke-width="0" fill="#FF2A00" opacity="0.7" />
<path d="M562.47,40.25C562.5,44.63 560.4,54.6 558.53,58" style="fill:none;stroke:#999;stroke-width:3" />
<path d="M575.02,34.58c2.84,1.74,7.33,7.17,8.04,9.88" style="fill:none;stroke:#999;stroke-width:3" />
<path d="M570.62,14.75c1.06,1.06,1.21,2.5,1.21,4.25c0,0.67,0.05,49.81,0.04,70c0,5.04,0,8.28-0.01,8.5" style="fill:none;stroke:#999;stroke-width:3" />
<path d="M594.38,14.38c3.17,2.05,8.19,8.41,8.99,11.6" style="fill:none;stroke:#999;stroke-width:3" />
<path d="M627.04,11.06c0.09,0.82-0.01,1.61-0.28,2.37C625.0,16.5 622.3,20.35 617.64,25.19" style="fill:none;stroke:#999;stroke-width:3" />
<path d="M587.91,32.05c0.9,0.9,1.44,2.1,1.59,3.07c1.01,6.5,2.05,12.27,2.8,18.87c0.17,1.53,0.34,3.01,0.48,4.39" style="fill:none;stroke:black;stroke-width:3" />
<circle cx="587.91" cy="32.05" r="5" stroke-width="0" fill="#FF2A00" opacity="0.7" />
<path d="M671.47,40.25C671.5,44.63 669.4,54.6 667.53,58" style="fill:none;stroke:#999;stroke-width:3" />
<path d="M684.02,34.58c2.84,1.74,7.33,7.17,8.04,9.88" style="fill:none;stroke:#999;stroke-width:3" />
<path d="M679.62,14.75c1.06,1.06,1.21,2.5,1.21,4.25c0,0.67,0.05,49.81,0.04,70c0,5.04,0,8.28-0.01,8.5" style="fill:none;stroke:#999;stroke-width:3" />
<path d="M703.38,14.38c3.17,2.05,8.19,8.41,8.99,11.6" style="fill:none;stroke:#999;stroke-width:3" />
<path d="M736.04,11.06c0.09,0.82-0.01,1.61-0.28,2.37C734.0,16.5 731.3,20.35 726.64,25.19" style="fill:none;stroke:#999;stroke-width:3" />
<path d="M696.91,32.05c0.9,0.9,1.44,2.1,1.59,3.07c1.01,6.5,2.05,12.27,2.8,18.87c0.17,1.53,0.34,3.01,0.48,4.39" style="fill:none;stroke:#999;stroke-width:3" />
<path d="M698.99,32.92c14.13-1.79,31.96-3.62,43.53-4.58c3.97-0.33,5.72,2.17,5,5.43c-0.85,3.78-2.07,9.6-3.26,15.49c-0.36,1.79-0.71,3.59-1.02,5.35" style="fill:none;stroke:black;stroke-width:3" />
<circle cx="698.99" cy="32.92" r="5" stroke-width="0" fill="#FF2A00" opacity="0.7" />
<path d="M780.47,40.25C780.5,44.63 778.4,54.6 776.53,58" style="fill:none;stroke:#999;stroke-width:3" />
<path d="M793.02,34.58c2.84,1.74,7.33,7.17,8.04,9.88" style="fill:none;stroke:#999;stroke-width:3" />
<path d="M788.62,14.75c1.06,1.06,1.21,2.5,1.21,4.25c0,0.67,0.05,49.81,0.04,70c0,5.04,0,8.28-0.01,8.5" style="fill:none;stroke:#999;stroke-width:3" />
<path d="M812.38,14.38c3.17,2.05,8.19,8.41,8.99,11.6" style="fill:none;stroke:#999;stroke-width:3" />
<path d="M845.04,11.06c0.09,0.82-0.01,1.61-0.28,2.37C843.0,16.5 840.3,20.35 835.64,25.19" style="fill:none;stroke:#999;stroke-width:3" />
<path d="M805.91,32.05c0.9,0.9,1.44,2.1,1.59,3.07c1.01,6.5,2.05,12.27,2.8,18.87c0.17,1.53,0.34,3.01,0.48,4.39" style="fill:none;stroke:#999;stroke-width:3" />
<path d="M807.99,32.92c14.13-1.79,31.96-3.62,43.53-4.58c3.97-0.33,5.72,2.17,5,5.43c-0.85,3.78-2.07,9.6-3.26,15.49c-0.36,1.79-0.71,3.59-1.02,5.35" style="fill:none;stroke:#999;stroke-width:3" />
<path d="M829.8,32.03c0.84,0.84,0.98,1.6,0.98,2.98c0,5.16,0.04,10.55,0.04,17.95" style="fill:none;stroke:black;stroke-width:3" />
<circle cx="829.8" cy="32.03" r="5" stroke-width="0" fill="#FF2A00" opacity="0.7" />
<path d="M889.47,40.25C889.5,44.63 887.4,54.6 885.53,58" style="fill:none;stroke:#999;stroke-width:3" />
<path d="M902.02,34.58c2.84,1.74,7.33,7.17,8.04,9.88" style="fill:none;stroke:#999;stroke-width:3" />
<path d="M897.62,14.75c1.06,1.06,1.21,2.5,1.21,4.25c0,0.67,0.05,49.81,0.04,70c0,5.04,0,8.28-0.01,8.5" style="fill:none;stroke:#999;stroke-width:3" />
<path d="M921.38,14.38c3.17,2.05,8.19,8.41,8.99,11.6" style="fill:none;stroke:#999;stroke-width:3" />
<path d="M954.04,11.06c0.09,0.82-0.01,1.61-0.28,2.37C952.0,16.5 949.3,20.35 944.64,25.19" style="fill:none;stroke:#999;stroke-width:3" />
<path d="M914.91,32.05c0.9,0.9,1.44,2.1,1.59,3.07c1.01,6.5,2.05,12.27,2.8,18.87c0.17,1.53,0.34,3.01,0.48,4.39" style="fill:none;stroke:#999;stroke-width:3" />
<path d="M916.99,32.92c14.13-1.79,31.96-3.62,43.53-4.58c3.97-0.33,5.72,2.17,5,5.43c-0.85,3.78-2.07,9.6-3.26,15.49c-0.36,1.79-0.71,3.59-1.02,5.35" style="fill:none;stroke:#999;stroke-width:3" />
<path d="M938.8,32.03c0.84,0.84,0.98,1.6,0.98,2.98c0,5.16,0.04,10.55,0.04,17.95" style="fill:none;stroke:#999;stroke-width:3" />
<path d="M919.23,44.35c8.9-1.1,33.15-3.47,43.83-3.9" style="fill:none;stroke:black;stroke-width:3" />
<circle cx="919.23" cy="44.35" r="5" stroke-width="0" fill="#FF2A00" opacity="0.7" />
<path d="M998.47,40.25C998.5,44.63 996.4,54.6 994.53,58" style="fill:none;stroke:#999;stroke-width:3" />
<path d="M1011.02,34.58c2.84,1.74,7.33,7.17,8.04,9.88" style="fill:none;stroke:#999;stroke-width:3" />
<path d="M1006.62,14.75c1.06,1.06,1.21,2.5,1.21,4.25c0,0.67,0.05,49.81,0.04,70c0,5.04,0,8.28-0.01,8.5" style="fill:none;stroke:#999;stroke-width:3" />
<path d="M1030.38,14.38c3.17,2.05,8.19,8.41,8.99,11.6" style="fill:none;stroke:#999;stroke-width:3" />
<path d="M1063.04,11.06c0.09,0.82-0.01,1.61-0.28,2.37C1061.0,16.5 1058.3,20.35 1053.6399999999999,25.19" style="fill:none;stroke:#999;stroke-width:3" />
<path d="M1023.91,32.05c0.9,0.9,1.44,2.1,1.59,3.07c1.01,6.5,2.05,12.27,2.8,18.87c0.17,1.53,0.34,3.01,0.48,4.39" style="fill:none;stroke:#999;stroke-width:3" />
<path d="M1025.99,32.92c14.13-1.79,31.96-3.62,43.53-4.58c3.97-0.33,5.72,2.17,5,5.43c-0.85,3.78-2.07,9.6-3.26,15.49c-0.36,1.79-0.71,3.59-1.02,5.35" style="fill:none;stroke:#999;stroke-width:3" />
<path d="M1047.8,32.03c0.84,0.84,0.98,1.6,0.98,2.98c0,5.16,0.04,10.55,0.04,17.95" style="fill:none;stroke:#999;stroke-width:3" />
<path d="M1028.23,44.35c8.9-1.1,33.15-3.47,43.83-3.9" style="fill:none;stroke:#999;stroke-width:3" />
<path d="M1029.9,55.92c11-1.03,27.59-3.03,39.44-3.68" style="fill:none;stroke:black;stroke-width:3" />
<circle cx="1029.9" cy="55.92" r="5" stroke-width="0" fill="#FF2A00" opacity="0.7" />
<path d="M1107.47,40.25C1107.5,44.63 1105.4,54.6 1103.53,58" style="fill:none;stroke:#999;stroke-width:3" />
<path d="M1120.02,34.58c2.84,1.74,7.33,7.17,8.04,9.88" style="fill:none;stroke:#999;stroke-width:3" />
<path d="M1115.62,14.75c1.06,1.06,1.21,2.5,1.21,4.25c0,0.67,0.05,49.81,0.04,70c0,5.04,0,8.28-0.01,8.5" style="fill:none;stroke:#999;stroke-width:3" />
<path d="M1139.38,14.38c3.17,2.05,8.19,8.41,8.99,11.6" style="fill:none;stroke:#999;stroke-width:3" />
<path d="M1172.04,11.06c0.09,0.82-0.01,1.61-0.28,2.37C1170.0,16.5 1167.3,20.35 1162.6399999999999,25.19" style="fill:none;stroke:#999;stroke-width:3" />
<path d="M1132.9099999999999,32.05c0.9,0.9,1.44,2.1,1.59,3.07c1.01,6.5,2.05,12.27,2.8,18.87c0.17,1.53,0.34,3.01,0.48,4.39" style="fill:none;stroke:#999;stroke-width:3" />
<path d="M1134.99,32.92c14.13-1.79,31.96-3.62,43.53-4.58c3.97-0.33,5.72,2.17,5,5.43c-0.85,3.78-2.07,9.6-3.26,15.49c-0.36,1.79-0.71,3.59-1.02,5.35" style="fill:none;stroke:#999;stroke-width:3" />
<path d="M1156.8,32.03c0.84,0.84,0.98,1.6,0.98,2.98c0,5.16,0.04,10.55,0.04,17.95" style="fill:none;stroke:#999;stroke-width:3" />
<path d="M1137.23,44.35c8.9-1.1,33.15-3.47,43.83-3.9" style="fill:none;stroke:#999;stroke-width:3" />
<path d="M1138.9,55.92c11-1.03,27.59-3.03,39.44-3.68" style="fill:none;stroke:#999;stroke-width:3" />
<path d="M1142.12,65.65c0.86,0.86,1.06,2.22,1.06,3.87c0,8.98,0.06,13.58,0.05,21.48c0,1.87,0,3.78,0,5.75" style="fill:none;stroke:black;stroke-width:3" />
<circle cx="1142.12" cy="65.65" r="5" stroke-width="0" fill="#FF2A00" opacity="0.7" />
<path d="M1216.47,40.25C1216.5,44.63 1214.4,54.6 1212.53,58" style="fill:none;stroke:#999;stroke-width:3" />
<path d="M1229.02,34.58c2.84,1.74,7.33,7.17,8.04,9.88" style="fill:none;stroke:#999;stroke-width:3" />
<path d="M1224.62,14.75c1.06,1.06,1.21,2.5,1.21,4.25c0,0.67,0.05,49.81,0.04,70c0,5.04,0,8.28-0.01,8.5" style="fill:none;stroke:#999;stroke-width:3" />
<path d="M1248.38,14.38c3.17,2.05,8.19,8.41,8.99,11.6" style="fill:none;stroke:#999;stroke-width:3" />
<path d="M1281.04,11.06c0.09,0.82-0.01,1.61-0.28,2.37C1279.0,16.5 1276.3,20.35 1271.6399999999999,25.19" style="fill:none;stroke:#999;stroke-width:3" />
<path d="M1241.9099999999999,32.05c0.9,0.9,1.44,2.1,1.59,3.07c1.01,6.5,2.05,12.27,2.8,18.87c0.17,1.53,0.34,3.01,0.48,4.39" style="fill:none;stroke:#999;stroke-width:3" />
<path d="M1243.99,32.92c14.13-1.79,31.96-3.62,43.53-4.58c3.97-0.33,5.72,2.17,5,5.43c-0.85,3.78-2.07,9.6-3.26,15.49c-0.36,1.79-0.71,3.59-1.02,5.35" style="fill:none;stroke:#999;stroke-width:3" />
<path d="M1265.8,32.03c0.84,0.84,0.98,1.6,0.98,2.98c0,5.16,0.04,10.55,0.04,17.95" style="fill:none;stroke:#999;stroke-width:3" />
<path d="M1246.23,44.35c8.9-1.1,33.15-3.47,43.83-3.9" style="fill:none;stroke:#999;stroke-width:3" />
<path d="M1247.9,55.92c11-1.03,27.59-3.03,39.44-3.68" style="fill:none;stroke:#999;stroke-width:3" />
<path d="M1251.12,65.65c0.86,0.86,1.06,2.22,1.06,3.87c0,8.98,0.06,13.58,0.05,21.48c0,1.87,0,3.78,0,5.75" style="fill:none;stroke:#999;stroke-width:3" />
<path d="M1252.35,66.67c5.3-0.47,20.25-2.28,26.15-2.86c3.43-0.33,4.93,0.95,4.83,4.45c-0.12,4.55-0.03,11.5-0.03,21.5c0,1.93-0.03,3.94-0.03,6.03" style="fill:none;stroke:black;stroke-width:3" />
<circle cx="1252.35" cy="66.67" r="5" stroke-width="0" fill="#FF2A00" opacity="0.7" />
<path d="M1325.47,40.25C1325.5,44.63 1323.4,54.6 1321.53,58" style="fill:none;stroke:#999;stroke-width:3" />
<path d="M1338.02,34.58c2.84,1.74,7.33,7.17,8.04,9.88" style="fill:none;stroke:#999;stroke-width:3" />
<path d="M1333.62,14.75c1.06,1.06,1.21,2.5,1.21,4.25c0,0.67,0.05,49.81,0.04,70c0,5.04,0,8.28-0.01,8.5" style="fill:none;stroke:#999;stroke-width:3" />
<path d="M1357.38,14.38c3.17,2.05,8.19,8.41,8.99,11.6" style="fill:none;stroke:#999;stroke-width:3" />
<path d="M1390.04,11.06c0.09,0.82-0.01,1.61-0.28,2.37C1388.0,16.5 1385.3,20.35 1380.6399999999999,25.19" style="fill:none;stroke:#999;stroke-width:3" />
<path d="M1350.9099999999999,32.05c0.9,0.9,1.44,2.1,1.59,3.07c1.01,6.5,2.05,12.27,2.8,18.87c0.17,1.53,0.34,3.01,0.48,4.39" style="fill:none;stroke:#999;stroke-width:3" />
<path d="M1352.99,32.92c14.13-1.79,31.96-3.62,43.53-4.58c3.97-0.33,5.72,2.17,5,5.43c-0.85,3.78-2.07,9.6-3.26,15.49c-0.36,1.79-0.71,3.59-1.02,5.35" style="fill:none;stroke:#999;stroke-width:3" />
<path d="M1374.8,32.03c0.84,0.84,0.98,1.6,0.98,2.98c0,5.16,0.04,10.55,0.04,17.95" style="fill:none;stroke:#999;stroke-width:3" />
<path d="M1355.23,44.35c8.9-1.1,33.15-3.47,43.83-3.9" style="fill:none;stroke:#999;stroke-width:3" />
<path d="M1356.9,55.92c11-1.03,27.59-3.03,39.44-3.68" style="fill:none;stroke:#999;stroke-width:3" />
<path d="M1360.12,65.65c0.86,0.86,1.06,2.22,1.06,3.87c0,8.98,0.06,13.58,0.05,21.48c0,1.87,0,3.78,0,5.75" style="fill:none;stroke:#999;stroke-width:3" />
<path d="M1361.35,66.67c5.3-0.47,20.25-2.28,26.15-2.86c3.43-0.33,4.93,0.95,4.83,4.45c-0.12,4.55-0.03,11.5-0.03,21.5c0,1.93-0.03,3.94-0.03,6.03" style="fill:none;stroke:#999;stroke-width:3" />
<path d="M1362.34,80.37c7.66-0.87,24.24-2.66,28.82-2.66" style="fill:none;stroke:black;stroke-width:3" />
<circle cx="1362.34" cy="80.37" r="5" stroke-width="0" fill="#FF2A00" opacity="0.7" />
<path d="M1434.47,40.25C1434.5,44.63 1432.4,54.6 1430.53,58" style="fill:none;stroke:#999;stroke-width:3" />
<path d="M1447.02,34.58c2.84,1.74,7.33,7.17,8.04,9.88" style="fill:none;stroke:#999;stroke-width:3" />
<path d="M1442.62,14.75c1.06,1.06,1.21,2.5,1.21,4.25c0,0.67,0.05,49.81,0.04,70c0,5.04,0,8.28-0.01,8.5" style="fill:none;stroke:#999;stroke-width:3" />
<path d="M1466.38,14.38c3.17,2.05,8.19,8.41,8.99,11.6" style="fill:none;stroke:#999;stroke-width:3" />
<path d="M1499.04,11.06c0.09,0.82-0.01,1.61-0.28,2.37C1497.0,16.5 1494.3,20.35 1489.6399999999999,25.19" style="fill:none;stroke:#999;stroke-width:3" />
<path d="M1459.9099999999999,32.05c0.9,0.9,1.44,2.1,1.59,3.07c1.01,6.5,2.05,12.27,2.8,18.87c0.17,1.53,0.34,3.01,0.48,4.39" style="fill:none;stroke:#999;stroke-width:3" />
<path d="M1461.99,32.92c14.13-1.79,31.96-3.62,43.53-4.58c3.97-0.33,5.72,2.17,5,5.43c-0.85,3.78-2.07,9.6-3.26,15.49c-0.36,1.79-0.71,3.59-1.02,5.35" style="fill:none;stroke:#999;stroke-width:3" />
<path d="M1483.8,32.03c0.84,0.84,0.98,1.6,0.98,2.98c0,5.16,0.04,10.55,0.04,17.95" style="fill:none;stroke:#999;stroke-width:3" />
<path d="M1464.23,44.35c8.9-1.1,33.15-3.47,43.83-3.9" style="fill:none;stroke:#999;stroke-width:3" />
<path d="M1465.9,55.92c11-1.03,27.59-3.03,39.44-3.68" style="fill:none;stroke:#999;stroke-width:3" />
<path d="M1469.12,65.65c0.86,0.86,1.06,2.22,1.06,3.87c0,8.98,0.06,13.58,0.05,21.48c0,1.87,0,3.78,0,5.75" style="fill:none;stroke:#999;stroke-width:3" />
<path d="M1470.35,66.67c5.3-0.47,20.25-2.28,26.15-2.86c3.43-0.33,4.93,0.95,4.83,4.45c-0.12,4.55-0.03,11.5-0.03,21.5c0,1.93-0.03,3.94-0.03,6.03" style="fill:none;stroke:#999;stroke-width:3" />
<path d="M1471.34,80.37c7.66-0.87,24.24-2.66,28.82-2.66" style="fill:none;stroke:#999;stroke-width:3" />
<path d="M1471.48,94.29c9.64-0.79,19.39-1.79,28.67-2.16" style="fill:none;stroke:black;stroke-width:3" />
<circle cx="1471.48" cy="94.29" r="5" stroke-width="0" fill="#FF2A00" opacity="0.7" />
</svg>