<!-- 06255 -->
<svg width="545px" height="109px" viewBox="0 0 545px 109px" xmlns="http://www.w3.org/2000/svg" xmlns:xlink="http://www.w3.org/1999/xlink" xml:space="preserve" version="1.1"  baseProfile="full">
<line x1="1" y1="1" x2="544" y2="1" style="stroke:#ddd;stroke-width:2" />
<line x1="1" y1="1" x2="1" y2="108" style="stroke:#ddd;stroke-width:2" />
<line x1="1" y1="108" x2="544" y2="108" style="stroke:#ddd;stroke-width:2" />
<line x1="544" y1="1" x2="544" y2="108" style="stroke:#ddd;stroke-width:2" />
<line x1="109" y1="1" x2="109" y2="108" style="stroke:#ddd;stroke-width:2" />
<line x1="218" y1="1" x2="218" y2="108" style="stroke:#ddd;stroke-width:2" />
<line x1="327" y1="1" x2="327" y2="108" style="stroke:#ddd;stroke-width:2" />
<line x1="436" y1="1" x2="436" y2="108" style="stroke:#ddd;stroke-width:2" />
<line x1="1" y1="54" x2="544" y2="54" style="stroke:#ddd;stroke-width:2;stroke-dasharray:3 3" />
<line x1="55" y1="1" x2="55" y2="108" style="stroke:#ddd;stroke-width:2;stroke-dasharray:3 3" />
<line x1="164" y1="1" x2="164" y2="108" style="stroke:#ddd;stroke-width:2;stroke-dasharray:3 3" />
<line x1="273" y1="1" x2="273" y2="108" style="stroke:#ddd;stroke-width:2;stroke-dasharray:3 3" />
<line x1="382" y1="1" x2="382" y2="108" style="stroke:#ddd;stroke-width:2;stroke-dasharray:3 3" />
<line x1="491" y1="1" x2="491" y2="108" style="stroke:#ddd;stroke-width:2;stroke-dasharray:3 3" />
<path d="M14.5,38.17c1.88,0.58,3.51,0.74,5.75,0.5c5.12-0.54,14.96-2.42,23.76-4.08c1.54-0.29,2.74-0.33,4.41-0.33" style="fill:none;stroke:black;stroke-width:3" />
<circle cx="14.5" cy="38.17" r="5" stroke-width="0" fill="#FF2A00" opacity="0.7" />
<path d="M123.5,38.17c1.88,0.58,3.51,0.74,5.75,0.5c5.12-0.54,14.96-2.42,23.76-4.08c1.54-0.29,2.74-0.33,4.41-0.33" style="fill:none;stroke:#999;stroke-width:3" />
<path d="M143.02,15.25c1.24,1.24,1.51,2.75,1.51,4.77c0,15.23-0.01,54.46-0.01,65.9c0,14.25-6.32,3.53-7.77,2" style="fill:none;stroke:black;stroke-width:3" />
<circle cx="143.02" cy="15.25" r="5" stroke-width="0" fill="#FF2A00" opacity="0.7" />
<path d="M232.5,38.17c1.88,0.58,3.51,0.74,5.75,0.5c5.12-0.54,14.96-2.42,23.76-4.08c1.54-0.29,2.74-0.33,4.41-0.33" style="fill:none;stroke:#999;stroke-width:3" />
<path d="M252.02,15.25c1.24,1.24,1.51,2.75,1.51,4.77c0,15.23-0.01,54.46-0.01,65.9c0,14.25-6.32,3.53-7.77,2" style="fill:none;stroke:#999;stroke-width:3" />
<path d="M232.0,73.18c1.5,0.7,2.62,0.45,4.25-0.68c4.95-3.43,14.5-10.67,27.5-20.5" style="fill:none;stroke:black;stroke-width:3" />
<circle cx="232.0" cy="73.18" r="5" stroke-width="0" fill="#FF2A00" opacity="0.7" />
<path d="M341.5,38.17c1.88,0.58,3.51,0.74,5.75,0.5c5.12-0.54,14.96-2.42,23.76-4.08c1.54-0.29,2.74-0.33,4.41-0.33" style="fill:none;stroke:#999;stroke-width:3" />
<path d="M361.02,15.25c1.24,1.24,1.51,2.75,1.51,4.77c0,15.23-0.01,54.46-0.01,65.9c0,14.25-6.32,3.53-7.77,2" style="fill:none;stroke:#999;stroke-width:3" />
<path d="M341.0,73.18c1.5,0.7,2.62,0.45,4.25-0.68c4.95-3.43,14.5-10.67,27.5-20.5" style="fill:none;stroke:#999;stroke-width:3" />
<path d="M400.21,26c0.55,1.17,0.41,2.53-0.09,3.99c-5.49,16.14-13.49,36.26-20.73,51.78c-2.04,4.38-1.57,4.72,2.59,3.46c9.77-2.98,21.02-6.1,35.27-10.6" style="fill:none;stroke:black;stroke-width:3" />
<circle cx="400.21" cy="26.0" r="5" stroke-width="0" fill="#FF2A00" opacity="0.7" />
<path d="M450.5,38.17c1.88,0.58,3.51,0.74,5.75,0.5c5.12-0.54,14.96-2.42,23.76-4.08c1.54-0.29,2.74-0.33,4.41-0.33" style="fill:none;stroke:#999;stroke-width:3" />
<path d="M470.02,15.25c1.24,1.24,1.51,2.75,1.51,4.77c0,15.23-0.01,54.46-0.01,65.9c0,14.25-6.32,3.53-7.77,2" style="fill:none;stroke:#999;stroke-width:3" />
<path d="M450.0,73.18c1.5,0.7,2.62,0.45,4.25-0.68c4.95-3.43,14.5-10.67,27.5-20.5" style="fill:none;stroke:#999;stroke-width:3" />
<path d="M509.21,26c0.55,1.17,0.41,2.53-0.09,3.99c-5.49,16.14-13.49,36.26-20.73,51.78c-2.04,4.38-1.57,4.72,2.59,3.46c9.77-2.98,21.02-6.1,35.27-10.6" style="fill:none;stroke:#999;stroke-width:3" />
<path d="M519.2,60.03c4.67,4.93,12.06,20.27,13.23,27.94" style="fill:none;stroke:black;stroke-width:3" />
<circle cx="519.2" cy="60.03" r="5" stroke-width="0" fill="#FF2A00" opacity="0.7" />
</svg>