<!-- 06280 -->
<svg width="763px" height="109px" viewBox="0 0 763px 109px" xmlns="http://www.w3.org/2000/svg" xmlns:xlink="http://www.w3.org/1999/xlink" xml:space="preserve" version="1.1"  baseProfile="full">
<line x1="1" y1="1" x2="762" y2="1" style="stroke:#ddd;stroke-width:2" />
<line x1="1" y1="1" x2="1" y2="108" style="stroke:#ddd;stroke-width:2" />
<line x1="1" y1="108" x2="762" y2="108" style="stroke:#ddd;stroke-width:2" />
<line x1="762" y1="1" x2="762" y2="108" style="stroke:#ddd;stroke-width:2" />
<line x1="109" y1="1" x2="109" y2="108" style="stroke:#ddd;stroke-width:2" />
<line x1="218" y1="1" x2="218" y2="108" style="stroke:#ddd;stroke-width:2" />
<line x1="327" y1="1" x2="327" y2="108" style="stroke:#ddd;stroke-width:2" />
<line x1="436" y1="1" x2="436" y2="108" style="stroke:#ddd;stroke-width:2" />
<line x1="545" y1="1" x2="545" y2="108" style="stroke:#ddd;stroke-width:2" />
<line x1="654" y1="1" x2="654" y2="108" style="stroke:#ddd;stroke-width:2" />
<line x1="1" y1="54" x2="762" y2="54" style="stroke:#ddd;stroke-width:2;stroke-dasharray:3 3" />
<line x1="55" y1="1" x2="55" y2="108" style="stroke:#ddd;stroke-width:2;stroke-dasharray:3 3" />
<line x1="164" y1="1" x2="164" y2="108" style="stroke:#ddd;stroke-width:2;stroke-dasharray:3 3" />
<line x1="273" y1="1" x2="273" y2="108" style="stroke:#ddd;stroke-width:2;stroke-dasharray:3 3" />
<line x1="382" y1="1" x2="382" y2="108" style="stroke:#ddd;stroke-width:2;stroke-dasharray:3 3" />
<line x1="491" y1="1" x2="491" y2="108" style="stroke:#ddd;stroke-width:2;stroke-dasharray:3 3" />
<line x1="600" y1="1" x2="600" y2="108" style="stroke:#ddd;stroke-width:2;stroke-dasharray:3 3" />
<line x1="709" y1="1" x2="709" y2="108" style="stroke:#ddd;stroke-width:2;stroke-dasharray:3 3" />
<path d="M13.75,39.67c1.5,0.33,2.77,0.3,5,0c4.77-0.65,11.96-2.11,18.12-3.18c1.38-0.24,2.63-0.36,4.04-0.24" style="fill:none;stroke:black;stroke-width:3" />
<circle cx="13.75" cy="39.67" r="5" stroke-width="0" fill="#FF2A00" opacity="0.7" />
<path d="M122.75,39.67c1.5,0.33,2.77,0.3,5,0c4.77-0.65,11.96-2.11,18.12-3.18c1.38-0.24,2.63-0.36,4.04-0.24" style="fill:none;stroke:#999;stroke-width:3" />
<path d="M138.52,15.5c0.99,0.99,1.76,2.62,1.76,5.02c0,15.23,0.24,53.46,0.24,64.9c0,12.83-6.32,3.78-7.77,2.25" style="fill:none;stroke:black;stroke-width:3" />
<circle cx="138.52" cy="15.5" r="5" stroke-width="0" fill="#FF2A00" opacity="0.7" />
<path d="M231.75,39.67c1.5,0.33,2.77,0.3,5,0c4.77-0.65,11.96-2.11,18.12-3.18c1.38-0.24,2.63-0.36,4.04-0.24" style="fill:none;stroke:#999;stroke-width:3" />
<path d="M247.52,15.5c0.99,0.99,1.76,2.62,1.76,5.02c0,15.23,0.24,53.46,0.24,64.9c0,12.83-6.32,3.78-7.77,2.25" style="fill:none;stroke:#999;stroke-width:3" />
<path d="M231.47,67.24c1.02,0.79,2.66,0.89,4.03-0.24c8.13-6.65,11.5-9.25,21.75-17.58" style="fill:none;stroke:black;stroke-width:3" />
<circle cx="231.47" cy="67.24" r="5" stroke-width="0" fill="#FF2A00" opacity="0.7" />
<path d="M340.75,39.67c1.5,0.33,2.77,0.3,5,0c4.77-0.65,11.96-2.11,18.12-3.18c1.38-0.24,2.63-0.36,4.04-0.24" style="fill:none;stroke:#999;stroke-width:3" />
<path d="M356.52,15.5c0.99,0.99,1.76,2.62,1.76,5.02c0,15.23,0.24,53.46,0.24,64.9c0,12.83-6.32,3.78-7.77,2.25" style="fill:none;stroke:#999;stroke-width:3" />
<path d="M340.47,67.24c1.02,0.79,2.66,0.89,4.03-0.24c8.13-6.65,11.5-9.25,21.75-17.58" style="fill:none;stroke:#999;stroke-width:3" />
<path d="M373.35,35.08c2.65,0.54,4.32,0.46,6.65-0.03c7.49-1.56,20.68-3.82,27.89-4.77c2.23-0.3,4.73-0.28,6.45,0.12" style="fill:none;stroke:black;stroke-width:3" />
<circle cx="373.35" cy="35.08" r="5" stroke-width="0" fill="#FF2A00" opacity="0.7" />
<path d="M449.75,39.67c1.5,0.33,2.77,0.3,5,0c4.77-0.65,11.96-2.11,18.12-3.18c1.38-0.24,2.63-0.36,4.04-0.24" style="fill:none;stroke:#999;stroke-width:3" />
<path d="M465.52,15.5c0.99,0.99,1.76,2.62,1.76,5.02c0,15.23,0.24,53.46,0.24,64.9c0,12.83-6.32,3.78-7.77,2.25" style="fill:none;stroke:#999;stroke-width:3" />
<path d="M449.47,67.24c1.02,0.79,2.66,0.89,4.03-0.24c8.13-6.65,11.5-9.25,21.75-17.58" style="fill:none;stroke:#999;stroke-width:3" />
<path d="M482.35,35.08c2.65,0.54,4.32,0.46,6.65-0.03c7.49-1.56,20.68-3.82,27.89-4.77c2.23-0.3,4.73-0.28,6.45,0.12" style="fill:none;stroke:#999;stroke-width:3" />
<path d="M499.59000000000003,13.34c1.29,1.29,1.74,2.91,1.74,4.36c0,0.93,0.03,26.18,0.03,32.49" style="fill:none;stroke:black;stroke-width:3" />
<circle cx="499.59000000000003" cy="13.34" r="5" stroke-width="0" fill="#FF2A00" opacity="0.7" />
<path d="M558.75,39.67c1.5,0.33,2.77,0.3,5,0c4.77-0.65,11.96-2.11,18.12-3.18c1.38-0.24,2.63-0.36,4.04-0.24" style="fill:none;stroke:#999;stroke-width:3" />
<path d="M574.52,15.5c0.99,0.99,1.76,2.62,1.76,5.02c0,15.23,0.24,53.46,0.24,64.9c0,12.83-6.32,3.78-7.77,2.25" style="fill:none;stroke:#999;stroke-width:3" />
<path d="M558.47,67.24c1.02,0.79,2.66,0.89,4.03-0.24c8.13-6.65,11.5-9.25,21.75-17.58" style="fill:none;stroke:#999;stroke-width:3" />
<path d="M591.35,35.08c2.65,0.54,4.32,0.46,6.65-0.03c7.49-1.56,20.68-3.82,27.89-4.77c2.23-0.3,4.73-0.28,6.45,0.12" style="fill:none;stroke:#999;stroke-width:3" />
<path d="M608.59,13.34c1.29,1.29,1.74,2.91,1.74,4.36c0,0.93,0.03,26.18,0.03,32.49" style="fill:none;stroke:#999;stroke-width:3" />
<path d="M594.48,53.7c1.58,0.39,3.52,0.48,6.67-0.11c3.15-0.59,20.2-4.77,22.32-5.5c2.78-0.97,4.03,1.41,2.8,3.93C618.12,68.71 605.75,86.5 585.09,95.07" style="fill:none;stroke:black;stroke-width:3" />
<circle cx="594.48" cy="53.7" r="5" stroke-width="0" fill="#FF2A00" opacity="0.7" />
<path d="M667.75,39.67c1.5,0.33,2.77,0.3,5,0c4.77-0.65,11.96-2.11,18.12-3.18c1.38-0.24,2.63-0.36,4.04-0.24" style="fill:none;stroke:#999;stroke-width:3" />
<path d="M683.52,15.5c0.99,0.99,1.76,2.62,1.76,5.02c0,15.23,0.24,53.46,0.24,64.9c0,12.83-6.32,3.78-7.77,2.25" style="fill:none;stroke:#999;stroke-width:3" />
<path d="M667.47,67.24c1.02,0.79,2.66,0.89,4.03-0.24c8.13-6.65,11.5-9.25,21.75-17.58" style="fill:none;stroke:#999;stroke-width:3" />
<path d="M700.35,35.08c2.65,0.54,4.32,0.46,6.65-0.03c7.49-1.56,20.68-3.82,27.89-4.77c2.23-0.3,4.73-0.28,6.45,0.12" style="fill:none;stroke:#999;stroke-width:3" />
<path d="M717.59,13.34c1.29,1.29,1.74,2.91,1.74,4.36c0,0.93,0.03,26.18,0.03,32.49" style="fill:none;stroke:#999;stroke-width:3" />
<path d="M703.48,53.7c1.58,0.39,3.52,0.48,6.67-0.11c3.15-0.59,20.2-4.77,22.32-5.5c2.78-0.97,4.03,1.41,2.8,3.93C727.12,68.71 714.75,86.5 694.09,95.07" style="fill:none;stroke:#999;stroke-width:3" />
<path d="M701.44,59.93c5.31,0.32,22.68,17.94,37.29,28.53c2.6,1.88,5.26,3.28,8.26,4.28" style="fill:none;stroke:black;stroke-width:3" />
<circle cx="701.44" cy="59.93" r="5" stroke-width="0" fill="#FF2A00" opacity="0.7" />
</svg>