<!-- 063d6 -->
<svg width="1308px" height="109px" viewBox="0 0 1308px 109px" xmlns="http://www.w3.org/2000/svg" xmlns:xlink="http://www.w3.org/1999/xlink" xml:space="preserve" version="1.1"  baseProfile="full">
<line x1="1" y1="1" x2="1307" y2="1" style="stroke:#ddd;stroke-width:2" />
<line x1="1" y1="1" x2="1" y2="108" style="stroke:#ddd;stroke-width:2" />
<line x1="1" y1="108" x2="1307" y2="108" style="stroke:#ddd;stroke-width:2" />
<line x1="1307" y1="1" x2="1307" y2="108" style="stroke:#ddd;stroke-width:2" />
<line x1="109" y1="1" x2="109" y2="108" style="stroke:#ddd;stroke-width:2" />
<line x1="218" y1="1" x2="218" y2="108" style="stroke:#ddd;stroke-width:2" />
<line x1="327" y1="1" x2="327" y2="108" style="stroke:#ddd;stroke-width:2" />
<line x1="436" y1="1" x2="436" y2="108" style="stroke:#ddd;stroke-width:2" />
<line x1="545" y1="1" x2="545" y2="108" style="stroke:#ddd;stroke-width:2" />
<line x1="654" y1="1" x2="654" y2="108" style="stroke:#ddd;stroke-width:2" />
<line x1="763" y1="1" x2="763" y2="108" style="stroke:#ddd;stroke-width:2" />
<line x1="872" y1="1" x2="872" y2="108" style="stroke:#ddd;stroke-width:2" />
<line x1="981" y1="1" x2="981" y2="108" style="stroke:#ddd;stroke-width:2" />
<line x1="1090" y1="1" x2="1090" y2="108" style="stroke:#ddd;stroke-width:2" />
<line x1="1199" y1="1" x2="1199" y2="108" style="stroke:#ddd;stroke-width:2" />
<line x1="1" y1="54" x2="1307" y2="54" style="stroke:#ddd;stroke-width:2;stroke-dasharray:3 3" />
<line x1="55" y1="1" x2="55" y2="108" style="stroke:#ddd;stroke-width:2;stroke-dasharray:3 3" />
<line x1="164" y1="1" x2="164" y2="108" style="stroke:#ddd;stroke-width:2;stroke-dasharray:3 3" />
<line x1="273" y1="1" x2="273" y2="108" style="stroke:#ddd;stroke-width:2;stroke-dasharray:3 3" />
<line x1="382" y1="1" x2="382" y2="108" style="stroke:#ddd;stroke-width:2;stroke-dasharray:3 3" />
<line x1="491" y1="1" x2="491" y2="108" style="stroke:#ddd;stroke-width:2;stroke-dasharray:3 3" />
<line x1="600" y1="1" x2="600" y2="108" style="stroke:#ddd;stroke-width:2;stroke-dasharray:3 3" />
<line x1="709" y1="1" x2="709" y2="108" style="stroke:#ddd;stroke-width:2;stroke-dasharray:3 3" />
<line x1="818" y1="1" x2="818" y2="108" style="stroke:#ddd;stroke-width:2;stroke-dasharray:3 3" />
<line x1="927" y1="1" x2="927" y2="108" style="stroke:#ddd;stroke-width:2;stroke-dasharray:3 3" />
<line x1="1036" y1="1" x2="1036" y2="108" style="stroke:#ddd;stroke-width:2;stroke-dasharray:3 3" />
<line x1="1145" y1="1" x2="1145" y2="108" style="stroke:#ddd;stroke-width:2;stroke-dasharray:3 3" />
<line x1="1254" y1="1" x2="1254" y2="108" style="stroke:#ddd;stroke-width:2;stroke-dasharray:3 3" />
<path d="M12.5,38.42c2.08,0.25,1.27,0.55,3.5,0.25c5.5-0.75,15.5-2.5,24.67-3.67" style="fill:none;stroke:black;stroke-width:3" />
<circle cx="12.5" cy="38.42" r="5" stroke-width="0" fill="#FF2A00" opacity="0.7" />
<path d="M121.5,38.42c2.08,0.25,1.27,0.55,3.5,0.25c5.5-0.75,15.5-2.5,24.67-3.67" style="fill:none;stroke:#999;stroke-width:3" />
<path d="M135.77,14.5c0.48,0.92,1.67,2.49,1.76,5.52c0.4,14.55,0.24,61.94,0.24,66.9c0,14.25-6.32,3.53-7.77,2" style="fill:none;stroke:black;stroke-width:3" />
<circle cx="135.77" cy="14.5" r="5" stroke-width="0" fill="#FF2A00" opacity="0.7" />
<path d="M230.5,38.42c2.08,0.25,1.27,0.55,3.5,0.25c5.5-0.75,15.5-2.5,24.67-3.67" style="fill:none;stroke:#999;stroke-width:3" />
<path d="M244.77,14.5c0.48,0.92,1.67,2.49,1.76,5.52c0.4,14.55,0.24,61.94,0.24,66.9c0,14.25-6.32,3.53-7.77,2" style="fill:none;stroke:#999;stroke-width:3" />
<path d="M230.5,65.42c1.25,1.33,2.4,1.96,5.08,0.44c1.58-0.89,13.22-7.39,19.92-11.7" style="fill:none;stroke:black;stroke-width:3" />
<circle cx="230.5" cy="65.42" r="5" stroke-width="0" fill="#FF2A00" opacity="0.7" />
<path d="M339.5,38.42c2.08,0.25,1.27,0.55,3.5,0.25c5.5-0.75,15.5-2.5,24.67-3.67" style="fill:none;stroke:#999;stroke-width:3" />
<path d="M353.77,14.5c0.48,0.92,1.67,2.49,1.76,5.52c0.4,14.55,0.24,61.94,0.24,66.9c0,14.25-6.32,3.53-7.77,2" style="fill:none;stroke:#999;stroke-width:3" />
<path d="M339.5,65.42c1.25,1.33,2.4,1.96,5.08,0.44c1.58-0.89,13.22-7.39,19.92-11.7" style="fill:none;stroke:#999;stroke-width:3" />
<path d="M377.73,15.77c0.45,0.31,0.92,0.56,1.12,0.94c1.58,3.03,2.38,11.92,3.46,17.36" style="fill:none;stroke:black;stroke-width:3" />
<circle cx="377.73" cy="15.77" r="5" stroke-width="0" fill="#FF2A00" opacity="0.7" />
<path d="M448.5,38.42c2.08,0.25,1.27,0.55,3.5,0.25c5.5-0.75,15.5-2.5,24.67-3.67" style="fill:none;stroke:#999;stroke-width:3" />
<path d="M462.77,14.5c0.48,0.92,1.67,2.49,1.76,5.52c0.4,14.55,0.24,61.94,0.24,66.9c0,14.25-6.32,3.53-7.77,2" style="fill:none;stroke:#999;stroke-width:3" />
<path d="M448.5,65.42c1.25,1.33,2.4,1.96,5.08,0.44c1.58-0.89,13.22-7.39,19.92-11.7" style="fill:none;stroke:#999;stroke-width:3" />
<path d="M486.73,15.77c0.45,0.31,0.92,0.56,1.12,0.94c1.58,3.03,2.38,11.92,3.46,17.36" style="fill:none;stroke:#999;stroke-width:3" />
<path d="M488.49,18.36c9.29-1.58,23.8-3.83,29.12-4.22c1.94-0.15,2.61,1.36,2.33,2.22c-1.15,3.54-2.5,8.27-4.21,13.16" style="fill:none;stroke:black;stroke-width:3" />
<circle cx="488.49" cy="18.36" r="5" stroke-width="0" fill="#FF2A00" opacity="0.7" />
<path d="M557.5,38.42c2.08,0.25,1.27,0.55,3.5,0.25c5.5-0.75,15.5-2.5,24.67-3.67" style="fill:none;stroke:#999;stroke-width:3" />
<path d="M571.77,14.5c0.48,0.92,1.67,2.49,1.76,5.52c0.4,14.55,0.24,61.94,0.24,66.9c0,14.25-6.32,3.53-7.77,2" style="fill:none;stroke:#999;stroke-width:3" />
<path d="M557.5,65.42c1.25,1.33,2.4,1.96,5.08,0.44c1.58-0.89,13.22-7.39,19.92-11.7" style="fill:none;stroke:#999;stroke-width:3" />
<path d="M595.73,15.77c0.45,0.31,0.92,0.56,1.12,0.94c1.58,3.03,2.38,11.92,3.46,17.36" style="fill:none;stroke:#999;stroke-width:3" />
<path d="M597.49,18.36c9.29-1.58,23.8-3.83,29.12-4.22c1.94-0.15,2.61,1.36,2.33,2.22c-1.15,3.54-2.5,8.27-4.21,13.16" style="fill:none;stroke:#999;stroke-width:3" />
<path d="M600.53,31.87c6.25-0.45,19.18-1.77,27.76-2.46" style="fill:none;stroke:black;stroke-width:3" />
<circle cx="600.53" cy="31.87" r="5" stroke-width="0" fill="#FF2A00" opacity="0.7" />
<path d="M666.5,38.42c2.08,0.25,1.27,0.55,3.5,0.25c5.5-0.75,15.5-2.5,24.67-3.67" style="fill:none;stroke:#999;stroke-width:3" />
<path d="M680.77,14.5c0.48,0.92,1.67,2.49,1.76,5.52c0.4,14.55,0.24,61.94,0.24,66.9c0,14.25-6.32,3.53-7.77,2" style="fill:none;stroke:#999;stroke-width:3" />
<path d="M666.5,65.42c1.25,1.33,2.4,1.96,5.08,0.44c1.58-0.89,13.22-7.39,19.92-11.7" style="fill:none;stroke:#999;stroke-width:3" />
<path d="M704.73,15.77c0.45,0.31,0.92,0.56,1.12,0.94c1.58,3.03,2.38,11.92,3.46,17.36" style="fill:none;stroke:#999;stroke-width:3" />
<path d="M706.49,18.36c9.29-1.58,23.8-3.83,29.12-4.22c1.94-0.15,2.61,1.36,2.33,2.22c-1.15,3.54-2.5,8.27-4.21,13.16" style="fill:none;stroke:#999;stroke-width:3" />
<path d="M709.53,31.87c6.25-0.45,19.18-1.77,27.76-2.46" style="fill:none;stroke:#999;stroke-width:3" />
<path d="M697.27,45.86c1.11,0.33,3.14,0.42,4.25,0.33c10.48-0.88,27.6-4.08,42.6-4.45c1.84-0.05,2.95,0.16,3.88,0.32" style="fill:none;stroke:black;stroke-width:3" />
<circle cx="697.27" cy="45.86" r="5" stroke-width="0" fill="#FF2A00" opacity="0.7" />
<path d="M775.5,38.42c2.08,0.25,1.27,0.55,3.5,0.25c5.5-0.75,15.5-2.5,24.67-3.67" style="fill:none;stroke:#999;stroke-width:3" />
<path d="M789.77,14.5c0.48,0.92,1.67,2.49,1.76,5.52c0.4,14.55,0.24,61.94,0.24,66.9c0,14.25-6.32,3.53-7.77,2" style="fill:none;stroke:#999;stroke-width:3" />
<path d="M775.5,65.42c1.25,1.33,2.4,1.96,5.08,0.44c1.58-0.89,13.22-7.39,19.92-11.7" style="fill:none;stroke:#999;stroke-width:3" />
<path d="M813.73,15.77c0.45,0.31,0.92,0.56,1.12,0.94c1.58,3.03,2.38,11.92,3.46,17.36" style="fill:none;stroke:#999;stroke-width:3" />
<path d="M815.49,18.36c9.29-1.58,23.8-3.83,29.12-4.22c1.94-0.15,2.61,1.36,2.33,2.22c-1.15,3.54-2.5,8.27-4.21,13.16" style="fill:none;stroke:#999;stroke-width:3" />
<path d="M818.53,31.87c6.25-0.45,19.18-1.77,27.76-2.46" style="fill:none;stroke:#999;stroke-width:3" />
<path d="M806.27,45.86c1.11,0.33,3.14,0.42,4.25,0.33c10.48-0.88,27.6-4.08,42.6-4.45c1.84-0.05,2.95,0.16,3.88,0.32" style="fill:none;stroke:#999;stroke-width:3" />
<path d="M816.97,47.18c0.64,0.61,1.44,2.76,1.44,3.82c0,1.06-0.18,29.45-0.18,33.29" style="fill:none;stroke:black;stroke-width:3" />
<circle cx="816.97" cy="47.18" r="5" stroke-width="0" fill="#FF2A00" opacity="0.7" />
<path d="M884.5,38.42c2.08,0.25,1.27,0.55,3.5,0.25c5.5-0.75,15.5-2.5,24.67-3.67" style="fill:none;stroke:#999;stroke-width:3" />
<path d="M898.77,14.5c0.48,0.92,1.67,2.49,1.76,5.52c0.4,14.55,0.24,61.94,0.24,66.9c0,14.25-6.32,3.53-7.77,2" style="fill:none;stroke:#999;stroke-width:3" />
<path d="M884.5,65.42c1.25,1.33,2.4,1.96,5.08,0.44c1.58-0.89,13.22-7.39,19.92-11.7" style="fill:none;stroke:#999;stroke-width:3" />
<path d="M922.73,15.77c0.45,0.31,0.92,0.56,1.12,0.94c1.58,3.03,2.38,11.92,3.46,17.36" style="fill:none;stroke:#999;stroke-width:3" />
<path d="M924.49,18.36c9.29-1.58,23.8-3.83,29.12-4.22c1.94-0.15,2.61,1.36,2.33,2.22c-1.15,3.54-2.5,8.27-4.21,13.16" style="fill:none;stroke:#999;stroke-width:3" />
<path d="M927.53,31.87c6.25-0.45,19.18-1.77,27.76-2.46" style="fill:none;stroke:#999;stroke-width:3" />
<path d="M915.27,45.86c1.11,0.33,3.14,0.42,4.25,0.33c10.48-0.88,27.6-4.08,42.6-4.45c1.84-0.05,2.95,0.16,3.88,0.32" style="fill:none;stroke:#999;stroke-width:3" />
<path d="M925.97,47.18c0.64,0.61,1.44,2.76,1.44,3.82c0,1.06-0.18,29.45-0.18,33.29" style="fill:none;stroke:#999;stroke-width:3" />
<path d="M927.71,57.67c10.37-1.33,15.68-2.02,24.85-2.67" style="fill:none;stroke:black;stroke-width:3" />
<circle cx="927.71" cy="57.67" r="5" stroke-width="0" fill="#FF2A00" opacity="0.7" />
<path d="M993.5,38.42c2.08,0.25,1.27,0.55,3.5,0.25c5.5-0.75,15.5-2.5,24.67-3.67" style="fill:none;stroke:#999;stroke-width:3" />
<path d="M1007.77,14.5c0.48,0.92,1.67,2.49,1.76,5.52c0.4,14.55,0.24,61.94,0.24,66.9c0,14.25-6.32,3.53-7.77,2" style="fill:none;stroke:#999;stroke-width:3" />
<path d="M993.5,65.42c1.25,1.33,2.4,1.96,5.08,0.44c1.58-0.89,13.22-7.39,19.92-11.7" style="fill:none;stroke:#999;stroke-width:3" />
<path d="M1031.73,15.77c0.45,0.31,0.92,0.56,1.12,0.94c1.58,3.03,2.38,11.92,3.46,17.36" style="fill:none;stroke:#999;stroke-width:3" />
<path d="M1033.49,18.36c9.29-1.58,23.8-3.83,29.12-4.22c1.94-0.15,2.61,1.36,2.33,2.22c-1.15,3.54-2.5,8.27-4.21,13.16" style="fill:none;stroke:#999;stroke-width:3" />
<path d="M1036.53,31.87c6.25-0.45,19.18-1.77,27.76-2.46" style="fill:none;stroke:#999;stroke-width:3" />
<path d="M1024.27,45.86c1.11,0.33,3.14,0.42,4.25,0.33c10.48-0.88,27.6-4.08,42.6-4.45c1.84-0.05,2.95,0.16,3.88,0.32" style="fill:none;stroke:#999;stroke-width:3" />
<path d="M1034.97,47.18c0.64,0.61,1.44,2.76,1.44,3.82c0,1.06-0.18,29.45-0.18,33.29" style="fill:none;stroke:#999;stroke-width:3" />
<path d="M1036.71,57.67c10.37-1.33,15.68-2.02,24.85-2.67" style="fill:none;stroke:#999;stroke-width:3" />
<path d="M1036.36,68.83c8.46-0.92,14.35-1.81,24.67-2.46" style="fill:none;stroke:black;stroke-width:3" />
<circle cx="1036.36" cy="68.83" r="5" stroke-width="0" fill="#FF2A00" opacity="0.7" />
<path d="M1102.5,38.42c2.08,0.25,1.27,0.55,3.5,0.25c5.5-0.75,15.5-2.5,24.67-3.67" style="fill:none;stroke:#999;stroke-width:3" />
<path d="M1116.77,14.5c0.48,0.92,1.67,2.49,1.76,5.52c0.4,14.55,0.24,61.94,0.24,66.9c0,14.25-6.32,3.53-7.77,2" style="fill:none;stroke:#999;stroke-width:3" />
<path d="M1102.5,65.42c1.25,1.33,2.4,1.96,5.08,0.44c1.58-0.89,13.22-7.39,19.92-11.7" style="fill:none;stroke:#999;stroke-width:3" />
<path d="M1140.73,15.77c0.45,0.31,0.92,0.56,1.12,0.94c1.58,3.03,2.38,11.92,3.46,17.36" style="fill:none;stroke:#999;stroke-width:3" />
<path d="M1142.49,18.36c9.29-1.58,23.8-3.83,29.12-4.22c1.94-0.15,2.61,1.36,2.33,2.22c-1.15,3.54-2.5,8.27-4.21,13.16" style="fill:none;stroke:#999;stroke-width:3" />
<path d="M1145.53,31.87c6.25-0.45,19.18-1.77,27.76-2.46" style="fill:none;stroke:#999;stroke-width:3" />
<path d="M1133.27,45.86c1.11,0.33,3.14,0.42,4.25,0.33c10.48-0.88,27.6-4.08,42.6-4.45c1.84-0.05,2.95,0.16,3.88,0.32" style="fill:none;stroke:#999;stroke-width:3" />
<path d="M1143.97,47.18c0.64,0.61,1.44,2.76,1.44,3.82c0,1.06-0.18,29.45-0.18,33.29" style="fill:none;stroke:#999;stroke-width:3" />
<path d="M1145.71,57.67c10.37-1.33,15.68-2.02,24.85-2.67" style="fill:none;stroke:#999;stroke-width:3" />
<path d="M1145.36,68.83c8.46-0.92,14.35-1.81,24.67-2.46" style="fill:none;stroke:#999;stroke-width:3" />
<path d="M1133.5,85.18c0.36,0.58,1.96,1.39,3.2,1.15c4.98-0.96,33.46-7.69,41.12-9.23" style="fill:none;stroke:black;stroke-width:3" />
<circle cx="1133.5" cy="85.18" r="5" stroke-width="0" fill="#FF2A00" opacity="0.7" />
<path d="M1211.5,38.42c2.08,0.25,1.27,0.55,3.5,0.25c5.5-0.75,15.5-2.5,24.67-3.67" style="fill:none;stroke:#999;stroke-width:3" />
<path d="M1225.77,14.5c0.48,0.92,1.67,2.49,1.76,5.52c0.4,14.55,0.24,61.94,0.24,66.9c0,14.25-6.32,3.53-7.77,2" style="fill:none;stroke:#999;stroke-width:3" />
<path d="M1211.5,65.42c1.25,1.33,2.4,1.96,5.08,0.44c1.58-0.89,13.22-7.39,19.92-11.7" style="fill:none;stroke:#999;stroke-width:3" />
<path d="M1249.73,15.77c0.45,0.31,0.92,0.56,1.12,0.94c1.58,3.03,2.38,11.92,3.46,17.36" style="fill:none;stroke:#999;stroke-width:3" />
<path d="M1251.49,18.36c9.29-1.58,23.8-3.83,29.12-4.22c1.94-0.15,2.61,1.36,2.33,2.22c-1.15,3.54-2.5,8.27-4.21,13.16" style="fill:none;stroke:#999;stroke-width:3" />
<path d="M1254.53,31.87c6.25-0.45,19.18-1.77,27.76-2.46" style="fill:none;stroke:#999;stroke-width:3" />
<path d="M1242.27,45.86c1.11,0.33,3.14,0.42,4.25,0.33c10.48-0.88,27.6-4.08,42.6-4.45c1.84-0.05,2.95,0.16,3.88,0.32" style="fill:none;stroke:#999;stroke-width:3" />
<path d="M1252.97,47.18c0.64,0.61,1.44,2.76,1.44,3.82c0,1.06-0.18,29.45-0.18,33.29" style="fill:none;stroke:#999;stroke-width:3" />
<path d="M1254.71,57.67c10.37-1.33,15.68-2.02,24.85-2.67" style="fill:none;stroke:#999;stroke-width:3" />
<path d="M1254.36,68.83c8.46-0.92,14.35-1.81,24.67-2.46" style="fill:none;stroke:#999;stroke-width:3" />
<path d="M1242.5,85.18c0.36,0.58,1.96,1.39,3.2,1.15c4.98-0.96,33.46-7.69,41.12-9.23" style="fill:none;stroke:#999;stroke-width:3" />
<path d="M1278.35,45.2c1.13,0.96,1.24,2.57,1.24,3.64s0.18,40.27,0.18,49" style="fill:none;stroke:black;stroke-width:3" />
<circle cx="1278.35" cy="45.2" r="5" stroke-width="0" fill="#FF2A00" opacity="0.7" />
</svg>