<!-- 063e1 -->
<svg width="1308px" height="109px" viewBox="0 0 1308px 109px" xmlns="http://www.w3.org/2000/svg" xmlns:xlink="http://www.w3.org/1999/xlink" xml:space="preserve" version="1.1"  baseProfile="full">
<line x1="1" y1="1" x2="1307" y2="1" style="stroke:#ddd;stroke-width:2" />
<line x1="1" y1="1" x2="1" y2="108" style="stroke:#ddd;stroke-width:2" />
<line x1="1" y1="108" x2="1307" y2="108" style="stroke:#ddd;stroke-width:2" />
<line x1="1307" y1="1" x2="1307" y2="108" style="stroke:#ddd;stroke-width:2" />
<line x1="109" y1="1" x2="109" y2="108" style="stroke:#ddd;stroke-width:2" />
<line x1="218" y1="1" x2="218" y2="108" style="stroke:#ddd;stroke-width:2" />
<line x1="327" y1="1" x2="327" y2="108" style="stroke:#ddd;stroke-width:2" />
<line x1="436" y1="1" x2="436" y2="108" style="stroke:#ddd;stroke-width:2" />
<line x1="545" y1="1" x2="545" y2="108" style="stroke:#ddd;stroke-width:2" />
<line x1="654" y1="1" x2="654" y2="108" style="stroke:#ddd;stroke-width:2" />
<line x1="763" y1="1" x2="763" y2="108" style="stroke:#ddd;stroke-width:2" />
<line x1="872" y1="1" x2="872" y2="108" style="stroke:#ddd;stroke-width:2" />
<line x1="981" y1="1" x2="981" y2="108" style="stroke:#ddd;stroke-width:2" />
<line x1="1090" y1="1" x2="1090" y2="108" style="stroke:#ddd;stroke-width:2" />
<line x1="1199" y1="1" x2="1199" y2="108" style="stroke:#ddd;stroke-width:2" />
<line x1="1" y1="54" x2="1307" y2="54" style="stroke:#ddd;stroke-width:2;stroke-dasharray:3 3" />
<line x1="55" y1="1" x2="55" y2="108" style="stroke:#ddd;stroke-width:2;stroke-dasharray:3 3" />
<line x1="164" y1="1" x2="164" y2="108" style="stroke:#ddd;stroke-width:2;stroke-dasharray:3 3" />
<line x1="273" y1="1" x2="273" y2="108" style="stroke:#ddd;stroke-width:2;stroke-dasharray:3 3" />
<line x1="382" y1="1" x2="382" y2="108" style="stroke:#ddd;stroke-width:2;stroke-dasharray:3 3" />
<line x1="491" y1="1" x2="491" y2="108" style="stroke:#ddd;stroke-width:2;stroke-dasharray:3 3" />
<line x1="600" y1="1" x2="600" y2="108" style="stroke:#ddd;stroke-width:2;stroke-dasharray:3 3" />
<line x1="709" y1="1" x2="709" y2="108" style="stroke:#ddd;stroke-width:2;stroke-dasharray:3 3" />
<line x1="818" y1="1" x2="818" y2="108" style="stroke:#ddd;stroke-width:2;stroke-dasharray:3 3" />
<line x1="927" y1="1" x2="927" y2="108" style="stroke:#ddd;stroke-width:2;stroke-dasharray:3 3" />
<line x1="1036" y1="1" x2="1036" y2="108" style="stroke:#ddd;stroke-width:2;stroke-dasharray:3 3" />
<line x1="1145" y1="1" x2="1145" y2="108" style="stroke:#ddd;stroke-width:2;stroke-dasharray:3 3" />
<line x1="1254" y1="1" x2="1254" y2="108" style="stroke:#ddd;stroke-width:2;stroke-dasharray:3 3" />
<path d="M13.0,39.67c1.84,0.22,3.47,0.5,5.36,0.25c4.94-0.64,13.98-2.48,21.17-3.47c1.13-0.16,2.34-0.2,3.39-0.2" style="fill:none;stroke:black;stroke-width:3" />
<circle cx="13.0" cy="39.67" r="5" stroke-width="0" fill="#FF2A00" opacity="0.7" />
<path d="M122.0,39.67c1.84,0.22,3.47,0.5,5.36,0.25c4.94-0.64,13.98-2.48,21.17-3.47c1.13-0.16,2.34-0.2,3.39-0.2" style="fill:none;stroke:#999;stroke-width:3" />
<path d="M137.52,16c1.05,1.05,1.76,3.12,1.76,5.52c0,15.23-0.01,52.46-0.01,63.9c0,14.25-6.32,3.53-7.77,2" style="fill:none;stroke:black;stroke-width:3" />
<circle cx="137.52" cy="16.0" r="5" stroke-width="0" fill="#FF2A00" opacity="0.7" />
<path d="M231.0,39.67c1.84,0.22,3.47,0.5,5.36,0.25c4.94-0.64,13.98-2.48,21.17-3.47c1.13-0.16,2.34-0.2,3.39-0.2" style="fill:none;stroke:#999;stroke-width:3" />
<path d="M246.52,16c1.05,1.05,1.76,3.12,1.76,5.52c0,15.23-0.01,52.46-0.01,63.9c0,14.25-6.32,3.53-7.77,2" style="fill:none;stroke:#999;stroke-width:3" />
<path d="M231.7,65.22c1.13,0.57,2.38,0.5,3.78-0.48c2.65-1.86,9.02-6.24,20.27-14.32" style="fill:none;stroke:black;stroke-width:3" />
<circle cx="231.7" cy="65.22" r="5" stroke-width="0" fill="#FF2A00" opacity="0.7" />
<path d="M340.0,39.67c1.84,0.22,3.47,0.5,5.36,0.25c4.94-0.64,13.98-2.48,21.17-3.47c1.13-0.16,2.34-0.2,3.39-0.2" style="fill:none;stroke:#999;stroke-width:3" />
<path d="M355.52,16c1.05,1.05,1.76,3.12,1.76,5.52c0,15.23-0.01,52.46-0.01,63.9c0,14.25-6.32,3.53-7.77,2" style="fill:none;stroke:#999;stroke-width:3" />
<path d="M340.7,65.22c1.13,0.57,2.38,0.5,3.78-0.48c2.65-1.86,9.02-6.24,20.27-14.32" style="fill:none;stroke:#999;stroke-width:3" />
<path d="M375.01,20.33c1.24,0.54,3.65,1.01,4.97,0.9c6.07-0.51,22.22-2.78,28.64-3.57c2.85-0.35,4.58,0.02,4.31,3.45c-0.14,1.79-0.99,4.6-2.08,10.31" style="fill:none;stroke:black;stroke-width:3" />
<circle cx="375.01" cy="20.33" r="5" stroke-width="0" fill="#FF2A00" opacity="0.7" />
<path d="M449.0,39.67c1.84,0.22,3.47,0.5,5.36,0.25c4.94-0.64,13.98-2.48,21.17-3.47c1.13-0.16,2.34-0.2,3.39-0.2" style="fill:none;stroke:#999;stroke-width:3" />
<path d="M464.52,16c1.05,1.05,1.76,3.12,1.76,5.52c0,15.23-0.01,52.46-0.01,63.9c0,14.25-6.32,3.53-7.77,2" style="fill:none;stroke:#999;stroke-width:3" />
<path d="M449.7,65.22c1.13,0.57,2.38,0.5,3.78-0.48c2.65-1.86,9.02-6.24,20.27-14.32" style="fill:none;stroke:#999;stroke-width:3" />
<path d="M484.01,20.33c1.24,0.54,3.65,1.01,4.97,0.9c6.07-0.51,22.22-2.78,28.64-3.57c2.85-0.35,4.58,0.02,4.31,3.45c-0.14,1.79-0.99,4.6-2.08,10.31" style="fill:none;stroke:#999;stroke-width:3" />
<path d="M488.79,35.62c5.71-0.37,20.05-1.7,28.71-2.62c1.91-0.2,3.45-0.36,4.43-0.44" style="fill:none;stroke:black;stroke-width:3" />
<circle cx="488.79" cy="35.62" r="5" stroke-width="0" fill="#FF2A00" opacity="0.7" />
<path d="M558.0,39.67c1.84,0.22,3.47,0.5,5.36,0.25c4.94-0.64,13.98-2.48,21.17-3.47c1.13-0.16,2.34-0.2,3.39-0.2" style="fill:none;stroke:#999;stroke-width:3" />
<path d="M573.52,16c1.05,1.05,1.76,3.12,1.76,5.52c0,15.23-0.01,52.46-0.01,63.9c0,14.25-6.32,3.53-7.77,2" style="fill:none;stroke:#999;stroke-width:3" />
<path d="M558.7,65.22c1.13,0.57,2.38,0.5,3.78-0.48c2.65-1.86,9.02-6.24,20.27-14.32" style="fill:none;stroke:#999;stroke-width:3" />
<path d="M593.01,20.33c1.24,0.54,3.65,1.01,4.97,0.9c6.07-0.51,22.22-2.78,28.64-3.57c2.85-0.35,4.58,0.02,4.31,3.45c-0.14,1.79-0.99,4.6-2.08,10.31" style="fill:none;stroke:#999;stroke-width:3" />
<path d="M597.79,35.62c5.71-0.37,20.05-1.7,28.71-2.62c1.91-0.2,3.45-0.36,4.43-0.44" style="fill:none;stroke:#999;stroke-width:3" />
<path d="M595.56,21.45c0.8,0.8,0.95,1.92,0.93,3.05c-0.37,18.75-1.37,42-14.91,64.3" style="fill:none;stroke:black;stroke-width:3" />
<circle cx="595.56" cy="21.45" r="5" stroke-width="0" fill="#FF2A00" opacity="0.7" />
<path d="M667.0,39.67c1.84,0.22,3.47,0.5,5.36,0.25c4.94-0.64,13.98-2.48,21.17-3.47c1.13-0.16,2.34-0.2,3.39-0.2" style="fill:none;stroke:#999;stroke-width:3" />
<path d="M682.52,16c1.05,1.05,1.76,3.12,1.76,5.52c0,15.23-0.01,52.46-0.01,63.9c0,14.25-6.32,3.53-7.77,2" style="fill:none;stroke:#999;stroke-width:3" />
<path d="M667.7,65.22c1.13,0.57,2.38,0.5,3.78-0.48c2.65-1.86,9.02-6.24,20.27-14.32" style="fill:none;stroke:#999;stroke-width:3" />
<path d="M702.01,20.33c1.24,0.54,3.65,1.01,4.97,0.9c6.07-0.51,22.22-2.78,28.64-3.57c2.85-0.35,4.58,0.02,4.31,3.45c-0.14,1.79-0.99,4.6-2.08,10.31" style="fill:none;stroke:#999;stroke-width:3" />
<path d="M706.79,35.62c5.71-0.37,20.05-1.7,28.71-2.62c1.91-0.2,3.45-0.36,4.43-0.44" style="fill:none;stroke:#999;stroke-width:3" />
<path d="M704.56,21.45c0.8,0.8,0.95,1.92,0.93,3.05c-0.37,18.75-1.37,42-14.91,64.3" style="fill:none;stroke:#999;stroke-width:3" />
<path d="M709.53,46.27c1.61,0.57,3.93,0.33,5.59,0.11c8.38-1.12,14.63-2.01,22.38-3.08c1.87-0.26,3.84-0.37,5.7,0.02" style="fill:none;stroke:black;stroke-width:3" />
<circle cx="709.53" cy="46.27" r="5" stroke-width="0" fill="#FF2A00" opacity="0.7" />
<path d="M776.0,39.67c1.84,0.22,3.47,0.5,5.36,0.25c4.94-0.64,13.98-2.48,21.17-3.47c1.13-0.16,2.34-0.2,3.39-0.2" style="fill:none;stroke:#999;stroke-width:3" />
<path d="M791.52,16c1.05,1.05,1.76,3.12,1.76,5.52c0,15.23-0.01,52.46-0.01,63.9c0,14.25-6.32,3.53-7.77,2" style="fill:none;stroke:#999;stroke-width:3" />
<path d="M776.7,65.22c1.13,0.57,2.38,0.5,3.78-0.48c2.65-1.86,9.02-6.24,20.27-14.32" style="fill:none;stroke:#999;stroke-width:3" />
<path d="M811.01,20.33c1.24,0.54,3.65,1.01,4.97,0.9c6.07-0.51,22.22-2.78,28.64-3.57c2.85-0.35,4.58,0.02,4.31,3.45c-0.14,1.79-0.99,4.6-2.08,10.31" style="fill:none;stroke:#999;stroke-width:3" />
<path d="M815.79,35.62c5.71-0.37,20.05-1.7,28.71-2.62c1.91-0.2,3.45-0.36,4.43-0.44" style="fill:none;stroke:#999;stroke-width:3" />
<path d="M813.56,21.45c0.8,0.8,0.95,1.92,0.93,3.05c-0.37,18.75-1.37,42-14.91,64.3" style="fill:none;stroke:#999;stroke-width:3" />
<path d="M818.53,46.27c1.61,0.57,3.93,0.33,5.59,0.11c8.38-1.12,14.63-2.01,22.38-3.08c1.87-0.26,3.84-0.37,5.7,0.02" style="fill:none;stroke:#999;stroke-width:3" />
<path d="M833.4300000000001,47.79c0.07,0.96-0.32,1.71-0.97,2.41c-3.96,4.3-6.43,6.46-11.13,10.29c-1.58,1.29-1.66,2.67,0.85,2.11c8.19-1.85,15.94-3.23,25.43-5.31" style="fill:none;stroke:black;stroke-width:3" />
<circle cx="833.4300000000001" cy="47.79" r="5" stroke-width="0" fill="#FF2A00" opacity="0.7" />
<path d="M885.0,39.67c1.84,0.22,3.47,0.5,5.36,0.25c4.94-0.64,13.98-2.48,21.17-3.47c1.13-0.16,2.34-0.2,3.39-0.2" style="fill:none;stroke:#999;stroke-width:3" />
<path d="M900.52,16c1.05,1.05,1.76,3.12,1.76,5.52c0,15.23-0.01,52.46-0.01,63.9c0,14.25-6.32,3.53-7.77,2" style="fill:none;stroke:#999;stroke-width:3" />
<path d="M885.7,65.22c1.13,0.57,2.38,0.5,3.78-0.48c2.65-1.86,9.02-6.24,20.27-14.32" style="fill:none;stroke:#999;stroke-width:3" />
<path d="M920.01,20.33c1.24,0.54,3.65,1.01,4.97,0.9c6.07-0.51,22.22-2.78,28.64-3.57c2.85-0.35,4.58,0.02,4.31,3.45c-0.14,1.79-0.99,4.6-2.08,10.31" style="fill:none;stroke:#999;stroke-width:3" />
<path d="M924.79,35.62c5.71-0.37,20.05-1.7,28.71-2.62c1.91-0.2,3.45-0.36,4.43-0.44" style="fill:none;stroke:#999;stroke-width:3" />
<path d="M922.56,21.45c0.8,0.8,0.95,1.92,0.93,3.05c-0.37,18.75-1.37,42-14.91,64.3" style="fill:none;stroke:#999;stroke-width:3" />
<path d="M927.53,46.27c1.61,0.57,3.93,0.33,5.59,0.11c8.38-1.12,14.63-2.01,22.38-3.08c1.87-0.26,3.84-0.37,5.7,0.02" style="fill:none;stroke:#999;stroke-width:3" />
<path d="M942.4300000000001,47.79c0.07,0.96-0.32,1.71-0.97,2.41c-3.96,4.3-6.43,6.46-11.13,10.29c-1.58,1.29-1.66,2.67,0.85,2.11c8.19-1.85,15.94-3.23,25.43-5.31" style="fill:none;stroke:#999;stroke-width:3" />
<path d="M952.62,52.25c2.92,1.89,7.53,7.77,8.26,10.72" style="fill:none;stroke:black;stroke-width:3" />
<circle cx="952.62" cy="52.25" r="5" stroke-width="0" fill="#FF2A00" opacity="0.7" />
<path d="M994.0,39.67c1.84,0.22,3.47,0.5,5.36,0.25c4.94-0.64,13.98-2.48,21.17-3.47c1.13-0.16,2.34-0.2,3.39-0.2" style="fill:none;stroke:#999;stroke-width:3" />
<path d="M1009.52,16c1.05,1.05,1.76,3.12,1.76,5.52c0,15.23-0.01,52.46-0.01,63.9c0,14.25-6.32,3.53-7.77,2" style="fill:none;stroke:#999;stroke-width:3" />
<path d="M994.7,65.22c1.13,0.57,2.38,0.5,3.78-0.48c2.65-1.86,9.02-6.24,20.27-14.32" style="fill:none;stroke:#999;stroke-width:3" />
<path d="M1029.01,20.33c1.24,0.54,3.65,1.01,4.97,0.9c6.07-0.51,22.22-2.78,28.64-3.57c2.85-0.35,4.58,0.02,4.31,3.45c-0.14,1.79-0.99,4.6-2.08,10.31" style="fill:none;stroke:#999;stroke-width:3" />
<path d="M1033.79,35.62c5.71-0.37,20.05-1.7,28.71-2.62c1.91-0.2,3.45-0.36,4.43-0.44" style="fill:none;stroke:#999;stroke-width:3" />
<path d="M1031.56,21.45c0.8,0.8,0.95,1.92,0.93,3.05c-0.37,18.75-1.37,42-14.91,64.3" style="fill:none;stroke:#999;stroke-width:3" />
<path d="M1036.53,46.27c1.61,0.57,3.93,0.33,5.59,0.11c8.38-1.12,14.63-2.01,22.38-3.08c1.87-0.26,3.84-0.37,5.7,0.02" style="fill:none;stroke:#999;stroke-width:3" />
<path d="M1051.43,47.79c0.07,0.96-0.32,1.71-0.97,2.41c-3.96,4.3-6.43,6.46-11.13,10.29c-1.58,1.29-1.66,2.67,0.85,2.11c8.19-1.85,15.94-3.23,25.43-5.31" style="fill:none;stroke:#999;stroke-width:3" />
<path d="M1061.62,52.25c2.92,1.89,7.53,7.77,8.26,10.72" style="fill:none;stroke:#999;stroke-width:3" />
<path d="M1034.57,76.26c1.61,0.49,3.91,0.29,5.55,0.1c5.99-0.7,19.14-2,26-2.41c1.72-0.1,3.47-0.21,5.17,0.1" style="fill:none;stroke:black;stroke-width:3" />
<circle cx="1034.57" cy="76.26" r="5" stroke-width="0" fill="#FF2A00" opacity="0.7" />
<path d="M1103.0,39.67c1.84,0.22,3.47,0.5,5.36,0.25c4.94-0.64,13.98-2.48,21.17-3.47c1.13-0.16,2.34-0.2,3.39-0.2" style="fill:none;stroke:#999;stroke-width:3" />
<path d="M1118.52,16c1.05,1.05,1.76,3.12,1.76,5.52c0,15.23-0.01,52.46-0.01,63.9c0,14.25-6.32,3.53-7.77,2" style="fill:none;stroke:#999;stroke-width:3" />
<path d="M1103.7,65.22c1.13,0.57,2.38,0.5,3.78-0.48c2.65-1.86,9.02-6.24,20.27-14.32" style="fill:none;stroke:#999;stroke-width:3" />
<path d="M1138.01,20.33c1.24,0.54,3.65,1.01,4.97,0.9c6.07-0.51,22.22-2.78,28.64-3.57c2.85-0.35,4.58,0.02,4.31,3.45c-0.14,1.79-0.99,4.6-2.08,10.31" style="fill:none;stroke:#999;stroke-width:3" />
<path d="M1142.79,35.62c5.71-0.37,20.05-1.7,28.71-2.62c1.91-0.2,3.45-0.36,4.43-0.44" style="fill:none;stroke:#999;stroke-width:3" />
<path d="M1140.56,21.45c0.8,0.8,0.95,1.92,0.93,3.05c-0.37,18.75-1.37,42-14.91,64.3" style="fill:none;stroke:#999;stroke-width:3" />
<path d="M1145.53,46.27c1.61,0.57,3.93,0.33,5.59,0.11c8.38-1.12,14.63-2.01,22.38-3.08c1.87-0.26,3.84-0.37,5.7,0.02" style="fill:none;stroke:#999;stroke-width:3" />
<path d="M1160.43,47.79c0.07,0.96-0.32,1.71-0.97,2.41c-3.96,4.3-6.43,6.46-11.13,10.29c-1.58,1.29-1.66,2.67,0.85,2.11c8.19-1.85,15.94-3.23,25.43-5.31" style="fill:none;stroke:#999;stroke-width:3" />
<path d="M1170.62,52.25c2.92,1.89,7.53,7.77,8.26,10.72" style="fill:none;stroke:#999;stroke-width:3" />
<path d="M1143.57,76.26c1.61,0.49,3.91,0.29,5.55,0.1c5.99-0.7,19.14-2,26-2.41c1.72-0.1,3.47-0.21,5.17,0.1" style="fill:none;stroke:#999;stroke-width:3" />
<path d="M1159.84,64.12c0.77,0.77,1.24,2.07,1.24,3.08C1161.08,73 1161.0,87 1161.0,89.12" style="fill:none;stroke:black;stroke-width:3" />
<circle cx="1159.84" cy="64.12" r="5" stroke-width="0" fill="#FF2A00" opacity="0.7" />
<path d="M1212.0,39.67c1.84,0.22,3.47,0.5,5.36,0.25c4.94-0.64,13.98-2.48,21.17-3.47c1.13-0.16,2.34-0.2,3.39-0.2" style="fill:none;stroke:#999;stroke-width:3" />
<path d="M1227.52,16c1.05,1.05,1.76,3.12,1.76,5.52c0,15.23-0.01,52.46-0.01,63.9c0,14.25-6.32,3.53-7.77,2" style="fill:none;stroke:#999;stroke-width:3" />
<path d="M1212.7,65.22c1.13,0.57,2.38,0.5,3.78-0.48c2.65-1.86,9.02-6.24,20.27-14.32" style="fill:none;stroke:#999;stroke-width:3" />
<path d="M1247.01,20.33c1.24,0.54,3.65,1.01,4.97,0.9c6.07-0.51,22.22-2.78,28.64-3.57c2.85-0.35,4.58,0.02,4.31,3.45c-0.14,1.79-0.99,4.6-2.08,10.31" style="fill:none;stroke:#999;stroke-width:3" />
<path d="M1251.79,35.62c5.71-0.37,20.05-1.7,28.71-2.62c1.91-0.2,3.45-0.36,4.43-0.44" style="fill:none;stroke:#999;stroke-width:3" />
<path d="M1249.56,21.45c0.8,0.8,0.95,1.92,0.93,3.05c-0.37,18.75-1.37,42-14.91,64.3" style="fill:none;stroke:#999;stroke-width:3" />
<path d="M1254.53,46.27c1.61,0.57,3.93,0.33,5.59,0.11c8.38-1.12,14.63-2.01,22.38-3.08c1.87-0.26,3.84-0.37,5.7,0.02" style="fill:none;stroke:#999;stroke-width:3" />
<path d="M1269.43,47.79c0.07,0.96-0.32,1.71-0.97,2.41c-3.96,4.3-6.43,6.46-11.13,10.29c-1.58,1.29-1.66,2.67,0.85,2.11c8.19-1.85,15.94-3.23,25.43-5.31" style="fill:none;stroke:#999;stroke-width:3" />
<path d="M1279.62,52.25c2.92,1.89,7.53,7.77,8.26,10.72" style="fill:none;stroke:#999;stroke-width:3" />
<path d="M1252.57,76.26c1.61,0.49,3.91,0.29,5.55,0.1c5.99-0.7,19.14-2,26-2.41c1.72-0.1,3.47-0.21,5.17,0.1" style="fill:none;stroke:#999;stroke-width:3" />
<path d="M1268.84,64.12c0.77,0.77,1.24,2.07,1.24,3.08C1270.08,73 1270.0,87 1270.0,89.12" style="fill:none;stroke:#999;stroke-width:3" />
<path d="M1245.08,91.27c2.43,0.67,5.45,0.61,7.93,0.34c7.31-0.78,21.75-2.14,37.11-2.34c2.54-0.03,4.84,0.09,7.33,0.5" style="fill:none;stroke:black;stroke-width:3" />
<circle cx="1245.08" cy="91.27" r="5" stroke-width="0" fill="#FF2A00" opacity="0.7" />
</svg>