<!-- 063f6 -->
<svg width="1308px" height="109px" viewBox="0 0 1308px 109px" xmlns="http://www.w3.org/2000/svg" xmlns:xlink="http://www.w3.org/1999/xlink" xml:space="preserve" version="1.1"  baseProfile="full">
<line x1="1" y1="1" x2="1307" y2="1" style="stroke:#ddd;stroke-width:2" />
<line x1="1" y1="1" x2="1" y2="108" style="stroke:#ddd;stroke-width:2" />
<line x1="1" y1="108" x2="1307" y2="108" style="stroke:#ddd;stroke-width:2" />
<line x1="1307" y1="1" x2="1307" y2="108" style="stroke:#ddd;stroke-width:2" />
<line x1="109" y1="1" x2="109" y2="108" style="stroke:#ddd;stroke-width:2" />
<line x1="218" y1="1" x2="218" y2="108" style="stroke:#ddd;stroke-width:2" />
<line x1="327" y1="1" x2="327" y2="108" style="stroke:#ddd;stroke-width:2" />
<line x1="436" y1="1" x2="436" y2="108" style="stroke:#ddd;stroke-width:2" />
<line x1="545" y1="1" x2="545" y2="108" style="stroke:#ddd;stroke-width:2" />
<line x1="654" y1="1" x2="654" y2="108" style="stroke:#ddd;stroke-width:2" />
<line x1="763" y1="1" x2="763" y2="108" style="stroke:#ddd;stroke-width:2" />
<line x1="872" y1="1" x2="872" y2="108" style="stroke:#ddd;stroke-width:2" />
<line x1="981" y1="1" x2="981" y2="108" style="stroke:#ddd;stroke-width:2" />
<line x1="1090" y1="1" x2="1090" y2="108" style="stroke:#ddd;stroke-width:2" />
<line x1="1199" y1="1" x2="1199" y2="108" style="stroke:#ddd;stroke-width:2" />
<line x1="1" y1="54" x2="1307" y2="54" style="stroke:#ddd;stroke-width:2;stroke-dasharray:3 3" />
<line x1="55" y1="1" x2="55" y2="108" style="stroke:#ddd;stroke-width:2;stroke-dasharray:3 3" />
<line x1="164" y1="1" x2="164" y2="108" style="stroke:#ddd;stroke-width:2;stroke-dasharray:3 3" />
<line x1="273" y1="1" x2="273" y2="108" style="stroke:#ddd;stroke-width:2;stroke-dasharray:3 3" />
<line x1="382" y1="1" x2="382" y2="108" style="stroke:#ddd;stroke-width:2;stroke-dasharray:3 3" />
<line x1="491" y1="1" x2="491" y2="108" style="stroke:#ddd;stroke-width:2;stroke-dasharray:3 3" />
<line x1="600" y1="1" x2="600" y2="108" style="stroke:#ddd;stroke-width:2;stroke-dasharray:3 3" />
<line x1="709" y1="1" x2="709" y2="108" style="stroke:#ddd;stroke-width:2;stroke-dasharray:3 3" />
<line x1="818" y1="1" x2="818" y2="108" style="stroke:#ddd;stroke-width:2;stroke-dasharray:3 3" />
<line x1="927" y1="1" x2="927" y2="108" style="stroke:#ddd;stroke-width:2;stroke-dasharray:3 3" />
<line x1="1036" y1="1" x2="1036" y2="108" style="stroke:#ddd;stroke-width:2;stroke-dasharray:3 3" />
<line x1="1145" y1="1" x2="1145" y2="108" style="stroke:#ddd;stroke-width:2;stroke-dasharray:3 3" />
<line x1="1254" y1="1" x2="1254" y2="108" style="stroke:#ddd;stroke-width:2;stroke-dasharray:3 3" />
<path d="M12.0,37.92c2.08,0.25,1.27,0.55,3.5,0.25c5.5-0.75,15.5-2.5,24.67-3.67" style="fill:none;stroke:black;stroke-width:3" />
<circle cx="12.0" cy="37.92" r="5" stroke-width="0" fill="#FF2A00" opacity="0.7" />
<path d="M121.0,37.92c2.08,0.25,1.27,0.55,3.5,0.25c5.5-0.75,15.5-2.5,24.67-3.67" style="fill:none;stroke:#999;stroke-width:3" />
<path d="M136.77,14c0.48,0.92,1.76,2.49,1.76,5.52c0,15.23,0.24,55.96,0.24,67.4c0,14.25-6.32,3.53-7.77,2" style="fill:none;stroke:black;stroke-width:3" />
<circle cx="136.77" cy="14.0" r="5" stroke-width="0" fill="#FF2A00" opacity="0.7" />
<path d="M230.0,37.92c2.08,0.25,1.27,0.55,3.5,0.25c5.5-0.75,15.5-2.5,24.67-3.67" style="fill:none;stroke:#999;stroke-width:3" />
<path d="M245.77,14c0.48,0.92,1.76,2.49,1.76,5.52c0,15.23,0.24,55.96,0.24,67.4c0,14.25-6.32,3.53-7.77,2" style="fill:none;stroke:#999;stroke-width:3" />
<path d="M230.5,65.53c0.85,1.03,2.2,1.63,4.08,0.68c1.1-0.56,18.73-12.35,23.42-15.04" style="fill:none;stroke:black;stroke-width:3" />
<circle cx="230.5" cy="65.53" r="5" stroke-width="0" fill="#FF2A00" opacity="0.7" />
<path d="M339.0,37.92c2.08,0.25,1.27,0.55,3.5,0.25c5.5-0.75,15.5-2.5,24.67-3.67" style="fill:none;stroke:#999;stroke-width:3" />
<path d="M354.77,14c0.48,0.92,1.76,2.49,1.76,5.52c0,15.23,0.24,55.96,0.24,67.4c0,14.25-6.32,3.53-7.77,2" style="fill:none;stroke:#999;stroke-width:3" />
<path d="M339.5,65.53c0.85,1.03,2.2,1.63,4.08,0.68c1.1-0.56,18.73-12.35,23.42-15.04" style="fill:none;stroke:#999;stroke-width:3" />
<path d="M367.96,19.69c0.65,0.34,1.83,0.38,2.49,0.34c5.15-0.32,15.38-2.02,23.01-2.61c1.08-0.08,1.73,0.16,2.27,0.33" style="fill:none;stroke:black;stroke-width:3" />
<circle cx="367.96" cy="19.69" r="5" stroke-width="0" fill="#FF2A00" opacity="0.7" />
<path d="M448.0,37.92c2.08,0.25,1.27,0.55,3.5,0.25c5.5-0.75,15.5-2.5,24.67-3.67" style="fill:none;stroke:#999;stroke-width:3" />
<path d="M463.77,14c0.48,0.92,1.76,2.49,1.76,5.52c0,15.23,0.24,55.96,0.24,67.4c0,14.25-6.32,3.53-7.77,2" style="fill:none;stroke:#999;stroke-width:3" />
<path d="M448.5,65.53c0.85,1.03,2.2,1.63,4.08,0.68c1.1-0.56,18.73-12.35,23.42-15.04" style="fill:none;stroke:#999;stroke-width:3" />
<path d="M476.96,19.69c0.65,0.34,1.83,0.38,2.49,0.34c5.15-0.32,15.38-2.02,23.01-2.61c1.08-0.08,1.73,0.16,2.27,0.33" style="fill:none;stroke:#999;stroke-width:3" />
<path d="M482.73,21.92c0.21,1.17,0.85,2.3,0.85,3.67c0,1.37-0.1,44.32-0.1,49.25" style="fill:none;stroke:black;stroke-width:3" />
<circle cx="482.73" cy="21.92" r="5" stroke-width="0" fill="#FF2A00" opacity="0.7" />
<path d="M557.0,37.92c2.08,0.25,1.27,0.55,3.5,0.25c5.5-0.75,15.5-2.5,24.67-3.67" style="fill:none;stroke:#999;stroke-width:3" />
<path d="M572.77,14c0.48,0.92,1.76,2.49,1.76,5.52c0,15.23,0.24,55.96,0.24,67.4c0,14.25-6.32,3.53-7.77,2" style="fill:none;stroke:#999;stroke-width:3" />
<path d="M557.5,65.53c0.85,1.03,2.2,1.63,4.08,0.68c1.1-0.56,18.73-12.35,23.42-15.04" style="fill:none;stroke:#999;stroke-width:3" />
<path d="M585.96,19.69c0.65,0.34,1.83,0.38,2.49,0.34c5.15-0.32,15.38-2.02,23.01-2.61c1.08-0.08,1.73,0.16,2.27,0.33" style="fill:none;stroke:#999;stroke-width:3" />
<path d="M591.73,21.92c0.21,1.17,0.85,2.3,0.85,3.67c0,1.37-0.1,44.32-0.1,49.25" style="fill:none;stroke:#999;stroke-width:3" />
<path d="M593.8,37.67c3.7-0.34,10.2-1.1,13.09-1.27" style="fill:none;stroke:black;stroke-width:3" />
<circle cx="593.8" cy="37.67" r="5" stroke-width="0" fill="#FF2A00" opacity="0.7" />
<path d="M666.0,37.92c2.08,0.25,1.27,0.55,3.5,0.25c5.5-0.75,15.5-2.5,24.67-3.67" style="fill:none;stroke:#999;stroke-width:3" />
<path d="M681.77,14c0.48,0.92,1.76,2.49,1.76,5.52c0,15.23,0.24,55.96,0.24,67.4c0,14.25-6.32,3.53-7.77,2" style="fill:none;stroke:#999;stroke-width:3" />
<path d="M666.5,65.53c0.85,1.03,2.2,1.63,4.08,0.68c1.1-0.56,18.73-12.35,23.42-15.04" style="fill:none;stroke:#999;stroke-width:3" />
<path d="M694.96,19.69c0.65,0.34,1.83,0.38,2.49,0.34c5.15-0.32,15.38-2.02,23.01-2.61c1.08-0.08,1.73,0.16,2.27,0.33" style="fill:none;stroke:#999;stroke-width:3" />
<path d="M700.73,21.92c0.21,1.17,0.85,2.3,0.85,3.67c0,1.37-0.1,44.32-0.1,49.25" style="fill:none;stroke:#999;stroke-width:3" />
<path d="M702.8,37.67c3.7-0.34,10.2-1.1,13.09-1.27" style="fill:none;stroke:#999;stroke-width:3" />
<path d="M702.59,53.97c3.66-0.16,10.16-1.43,13.49-1.49" style="fill:none;stroke:black;stroke-width:3" />
<circle cx="702.59" cy="53.97" r="5" stroke-width="0" fill="#FF2A00" opacity="0.7" />
<path d="M775.0,37.92c2.08,0.25,1.27,0.55,3.5,0.25c5.5-0.75,15.5-2.5,24.67-3.67" style="fill:none;stroke:#999;stroke-width:3" />
<path d="M790.77,14c0.48,0.92,1.76,2.49,1.76,5.52c0,15.23,0.24,55.96,0.24,67.4c0,14.25-6.32,3.53-7.77,2" style="fill:none;stroke:#999;stroke-width:3" />
<path d="M775.5,65.53c0.85,1.03,2.2,1.63,4.08,0.68c1.1-0.56,18.73-12.35,23.42-15.04" style="fill:none;stroke:#999;stroke-width:3" />
<path d="M803.96,19.69c0.65,0.34,1.83,0.38,2.49,0.34c5.15-0.32,15.38-2.02,23.01-2.61c1.08-0.08,1.73,0.16,2.27,0.33" style="fill:none;stroke:#999;stroke-width:3" />
<path d="M809.73,21.92c0.21,1.17,0.85,2.3,0.85,3.67c0,1.37-0.1,44.32-0.1,49.25" style="fill:none;stroke:#999;stroke-width:3" />
<path d="M811.8,37.67c3.7-0.34,10.2-1.1,13.09-1.27" style="fill:none;stroke:#999;stroke-width:3" />
<path d="M811.59,53.97c3.66-0.16,10.16-1.43,13.49-1.49" style="fill:none;stroke:#999;stroke-width:3" />
<path d="M802.1,78.07c0.61,0.36,1.72,0.45,2.24,0.19c2.06-1.04,17.72-9.34,20.88-11.01" style="fill:none;stroke:black;stroke-width:3" />
<circle cx="802.1" cy="78.07" r="5" stroke-width="0" fill="#FF2A00" opacity="0.7" />
<path d="M884.0,37.92c2.08,0.25,1.27,0.55,3.5,0.25c5.5-0.75,15.5-2.5,24.67-3.67" style="fill:none;stroke:#999;stroke-width:3" />
<path d="M899.77,14c0.48,0.92,1.76,2.49,1.76,5.52c0,15.23,0.24,55.96,0.24,67.4c0,14.25-6.32,3.53-7.77,2" style="fill:none;stroke:#999;stroke-width:3" />
<path d="M884.5,65.53c0.85,1.03,2.2,1.63,4.08,0.68c1.1-0.56,18.73-12.35,23.42-15.04" style="fill:none;stroke:#999;stroke-width:3" />
<path d="M912.96,19.69c0.65,0.34,1.83,0.38,2.49,0.34c5.15-0.32,15.38-2.02,23.01-2.61c1.08-0.08,1.73,0.16,2.27,0.33" style="fill:none;stroke:#999;stroke-width:3" />
<path d="M918.73,21.92c0.21,1.17,0.85,2.3,0.85,3.67c0,1.37-0.1,44.32-0.1,49.25" style="fill:none;stroke:#999;stroke-width:3" />
<path d="M920.8,37.67c3.7-0.34,10.2-1.1,13.09-1.27" style="fill:none;stroke:#999;stroke-width:3" />
<path d="M920.59,53.97c3.66-0.16,10.16-1.43,13.49-1.49" style="fill:none;stroke:#999;stroke-width:3" />
<path d="M911.1,78.07c0.61,0.36,1.72,0.45,2.24,0.19c2.06-1.04,17.72-9.34,20.88-11.01" style="fill:none;stroke:#999;stroke-width:3" />
<path d="M933.47,19.38c0.66,1.24,0.73,1.45,0.73,2.82s0.1,61.36,0.1,72.6" style="fill:none;stroke:black;stroke-width:3" />
<circle cx="933.47" cy="19.38" r="5" stroke-width="0" fill="#FF2A00" opacity="0.7" />
<path d="M993.0,37.92c2.08,0.25,1.27,0.55,3.5,0.25c5.5-0.75,15.5-2.5,24.67-3.67" style="fill:none;stroke:#999;stroke-width:3" />
<path d="M1008.77,14c0.48,0.92,1.76,2.49,1.76,5.52c0,15.23,0.24,55.96,0.24,67.4c0,14.25-6.32,3.53-7.77,2" style="fill:none;stroke:#999;stroke-width:3" />
<path d="M993.5,65.53c0.85,1.03,2.2,1.63,4.08,0.68c1.1-0.56,18.73-12.35,23.42-15.04" style="fill:none;stroke:#999;stroke-width:3" />
<path d="M1021.96,19.69c0.65,0.34,1.83,0.38,2.49,0.34c5.15-0.32,15.38-2.02,23.01-2.61c1.08-0.08,1.73,0.16,2.27,0.33" style="fill:none;stroke:#999;stroke-width:3" />
<path d="M1027.73,21.92c0.21,1.17,0.85,2.3,0.85,3.67c0,1.37-0.1,44.32-0.1,49.25" style="fill:none;stroke:#999;stroke-width:3" />
<path d="M1029.8,37.67c3.7-0.34,10.2-1.1,13.09-1.27" style="fill:none;stroke:#999;stroke-width:3" />
<path d="M1029.5900000000001,53.97c3.66-0.16,10.16-1.43,13.49-1.49" style="fill:none;stroke:#999;stroke-width:3" />
<path d="M1020.1,78.07c0.61,0.36,1.72,0.45,2.24,0.19c2.06-1.04,17.72-9.34,20.88-11.01" style="fill:none;stroke:#999;stroke-width:3" />
<path d="M1042.47,19.38c0.66,1.24,0.73,1.45,0.73,2.82s0.1,61.36,0.1,72.6" style="fill:none;stroke:#999;stroke-width:3" />
<path d="M1054.6,17.36c0.62,0.08,2.2,0.48,3.01,0.43c5.14-0.29,10.39-1.77,15.51-2.88c2.37-0.51,4.44,0.99,3.45,3.29c-0.99,2.31-8.4,18.52-10.13,21.81" style="fill:none;stroke:black;stroke-width:3" />
<circle cx="1054.6" cy="17.36" r="5" stroke-width="0" fill="#FF2A00" opacity="0.7" />
<path d="M1102.0,37.92c2.08,0.25,1.27,0.55,3.5,0.25c5.5-0.75,15.5-2.5,24.67-3.67" style="fill:none;stroke:#999;stroke-width:3" />
<path d="M1117.77,14c0.48,0.92,1.76,2.49,1.76,5.52c0,15.23,0.24,55.96,0.24,67.4c0,14.25-6.32,3.53-7.77,2" style="fill:none;stroke:#999;stroke-width:3" />
<path d="M1102.5,65.53c0.85,1.03,2.2,1.63,4.08,0.68c1.1-0.56,18.73-12.35,23.42-15.04" style="fill:none;stroke:#999;stroke-width:3" />
<path d="M1130.96,19.69c0.65,0.34,1.83,0.38,2.49,0.34c5.15-0.32,15.38-2.02,23.01-2.61c1.08-0.08,1.73,0.16,2.27,0.33" style="fill:none;stroke:#999;stroke-width:3" />
<path d="M1136.73,21.92c0.21,1.17,0.85,2.3,0.85,3.67c0,1.37-0.1,44.32-0.1,49.25" style="fill:none;stroke:#999;stroke-width:3" />
<path d="M1138.8,37.67c3.7-0.34,10.2-1.1,13.09-1.27" style="fill:none;stroke:#999;stroke-width:3" />
<path d="M1138.5900000000001,53.97c3.66-0.16,10.16-1.43,13.49-1.49" style="fill:none;stroke:#999;stroke-width:3" />
<path d="M1129.1,78.07c0.61,0.36,1.72,0.45,2.24,0.19c2.06-1.04,17.72-9.34,20.88-11.01" style="fill:none;stroke:#999;stroke-width:3" />
<path d="M1151.47,19.38c0.66,1.24,0.73,1.45,0.73,2.82s0.1,61.36,0.1,72.6" style="fill:none;stroke:#999;stroke-width:3" />
<path d="M1163.6,17.36c0.62,0.08,2.2,0.48,3.01,0.43c5.14-0.29,10.39-1.77,15.51-2.88c2.37-0.51,4.44,0.99,3.45,3.29c-0.99,2.31-8.4,18.52-10.13,21.81" style="fill:none;stroke:#999;stroke-width:3" />
<path d="M1175.08,40.51c16.1,11.86,13.45,42.31,2.89,34.81" style="fill:none;stroke:black;stroke-width:3" />
<circle cx="1175.08" cy="40.51" r="5" stroke-width="0" fill="#FF2A00" opacity="0.7" />
<path d="M1211.0,37.92c2.08,0.25,1.27,0.55,3.5,0.25c5.5-0.75,15.5-2.5,24.67-3.67" style="fill:none;stroke:#999;stroke-width:3" />
<path d="M1226.77,14c0.48,0.92,1.76,2.49,1.76,5.52c0,15.23,0.24,55.96,0.24,67.4c0,14.25-6.32,3.53-7.77,2" style="fill:none;stroke:#999;stroke-width:3" />
<path d="M1211.5,65.53c0.85,1.03,2.2,1.63,4.08,0.68c1.1-0.56,18.73-12.35,23.42-15.04" style="fill:none;stroke:#999;stroke-width:3" />
<path d="M1239.96,19.69c0.65,0.34,1.83,0.38,2.49,0.34c5.15-0.32,15.38-2.02,23.01-2.61c1.08-0.08,1.73,0.16,2.27,0.33" style="fill:none;stroke:#999;stroke-width:3" />
<path d="M1245.73,21.92c0.21,1.17,0.85,2.3,0.85,3.67c0,1.37-0.1,44.32-0.1,49.25" style="fill:none;stroke:#999;stroke-width:3" />
<path d="M1247.8,37.67c3.7-0.34,10.2-1.1,13.09-1.27" style="fill:none;stroke:#999;stroke-width:3" />
<path d="M1247.5900000000001,53.97c3.66-0.16,10.16-1.43,13.49-1.49" style="fill:none;stroke:#999;stroke-width:3" />
<path d="M1238.1,78.07c0.61,0.36,1.72,0.45,2.24,0.19c2.06-1.04,17.72-9.34,20.88-11.01" style="fill:none;stroke:#999;stroke-width:3" />
<path d="M1260.47,19.38c0.66,1.24,0.73,1.45,0.73,2.82s0.1,61.36,0.1,72.6" style="fill:none;stroke:#999;stroke-width:3" />
<path d="M1272.6,17.36c0.62,0.08,2.2,0.48,3.01,0.43c5.14-0.29,10.39-1.77,15.51-2.88c2.37-0.51,4.44,0.99,3.45,3.29c-0.99,2.31-8.4,18.52-10.13,21.81" style="fill:none;stroke:#999;stroke-width:3" />
<path d="M1284.08,40.51c16.1,11.86,13.45,42.31,2.89,34.81" style="fill:none;stroke:#999;stroke-width:3" />
<path d="M1276.81,19.18c0.16,0.99,0,71.38-0.16,77.56" style="fill:none;stroke:black;stroke-width:3" />
<circle cx="1276.81" cy="19.18" r="5" stroke-width="0" fill="#FF2A00" opacity="0.7" />
</svg>