<!-- 06428 -->
<svg width="1417px" height="109px" viewBox="0 0 1417px 109px" xmlns="http://www.w3.org/2000/svg" xmlns:xlink="http://www.w3.org/1999/xlink" xml:space="preserve" version="1.1"  baseProfile="full">
<line x1="1" y1="1" x2="1416" y2="1" style="stroke:#ddd;stroke-width:2" />
<line x1="1" y1="1" x2="1" y2="108" style="stroke:#ddd;stroke-width:2" />
<line x1="1" y1="108" x2="1416" y2="108" style="stroke:#ddd;stroke-width:2" />
<line x1="1416" y1="1" x2="1416" y2="108" style="stroke:#ddd;stroke-width:2" />
<line x1="109" y1="1" x2="109" y2="108" style="stroke:#ddd;stroke-width:2" />
<line x1="218" y1="1" x2="218" y2="108" style="stroke:#ddd;stroke-width:2" />
<line x1="327" y1="1" x2="327" y2="108" style="stroke:#ddd;stroke-width:2" />
<line x1="436" y1="1" x2="436" y2="108" style="stroke:#ddd;stroke-width:2" />
<line x1="545" y1="1" x2="545" y2="108" style="stroke:#ddd;stroke-width:2" />
<line x1="654" y1="1" x2="654" y2="108" style="stroke:#ddd;stroke-width:2" />
<line x1="763" y1="1" x2="763" y2="108" style="stroke:#ddd;stroke-width:2" />
<line x1="872" y1="1" x2="872" y2="108" style="stroke:#ddd;stroke-width:2" />
<line x1="981" y1="1" x2="981" y2="108" style="stroke:#ddd;stroke-width:2" />
<line x1="1090" y1="1" x2="1090" y2="108" style="stroke:#ddd;stroke-width:2" />
<line x1="1199" y1="1" x2="1199" y2="108" style="stroke:#ddd;stroke-width:2" />
<line x1="1308" y1="1" x2="1308" y2="108" style="stroke:#ddd;stroke-width:2" />
<line x1="1" y1="54" x2="1416" y2="54" style="stroke:#ddd;stroke-width:2;stroke-dasharray:3 3" />
<line x1="55" y1="1" x2="55" y2="108" style="stroke:#ddd;stroke-width:2;stroke-dasharray:3 3" />
<line x1="164" y1="1" x2="164" y2="108" style="stroke:#ddd;stroke-width:2;stroke-dasharray:3 3" />
<line x1="273" y1="1" x2="273" y2="108" style="stroke:#ddd;stroke-width:2;stroke-dasharray:3 3" />
<line x1="382" y1="1" x2="382" y2="108" style="stroke:#ddd;stroke-width:2;stroke-dasharray:3 3" />
<line x1="491" y1="1" x2="491" y2="108" style="stroke:#ddd;stroke-width:2;stroke-dasharray:3 3" />
<line x1="600" y1="1" x2="600" y2="108" style="stroke:#ddd;stroke-width:2;stroke-dasharray:3 3" />
<line x1="709" y1="1" x2="709" y2="108" style="stroke:#ddd;stroke-width:2;stroke-dasharray:3 3" />
<line x1="818" y1="1" x2="818" y2="108" style="stroke:#ddd;stroke-width:2;stroke-dasharray:3 3" />
<line x1="927" y1="1" x2="927" y2="108" style="stroke:#ddd;stroke-width:2;stroke-dasharray:3 3" />
<line x1="1036" y1="1" x2="1036" y2="108" style="stroke:#ddd;stroke-width:2;stroke-dasharray:3 3" />
<line x1="1145" y1="1" x2="1145" y2="108" style="stroke:#ddd;stroke-width:2;stroke-dasharray:3 3" />
<line x1="1254" y1="1" x2="1254" y2="108" style="stroke:#ddd;stroke-width:2;stroke-dasharray:3 3" />
<line x1="1363" y1="1" x2="1363" y2="108" style="stroke:#ddd;stroke-width:2;stroke-dasharray:3 3" />
<path d="M12.5,35.92c2.08,0.25,1.27,0.55,3.5,0.25c5.5-0.75,15.5-2,24.67-3.17" style="fill:none;stroke:black;stroke-width:3" />
<circle cx="12.5" cy="35.92" r="5" stroke-width="0" fill="#FF2A00" opacity="0.7" />
<path d="M121.5,35.92c2.08,0.25,1.27,0.55,3.5,0.25c5.5-0.75,15.5-2,24.67-3.17" style="fill:none;stroke:#999;stroke-width:3" />
<path d="M135.77,13.5c0.48,0.92,1.76,2.99,1.76,6.02c0,15.23,0.24,57.46,0.24,68.9c0,14.25-6.32,3.53-7.77,2" style="fill:none;stroke:black;stroke-width:3" />
<circle cx="135.77" cy="13.5" r="5" stroke-width="0" fill="#FF2A00" opacity="0.7" />
<path d="M230.5,35.92c2.08,0.25,1.27,0.55,3.5,0.25c5.5-0.75,15.5-2,24.67-3.17" style="fill:none;stroke:#999;stroke-width:3" />
<path d="M244.77,13.5c0.48,0.92,1.76,2.99,1.76,6.02c0,15.23,0.24,57.46,0.24,68.9c0,14.25-6.32,3.53-7.77,2" style="fill:none;stroke:#999;stroke-width:3" />
<path d="M229.25,64.6c1.2,1.63,2.62,1.59,5.27,0.08c1.56-0.89,13.85-9.49,20.48-13.76" style="fill:none;stroke:black;stroke-width:3" />
<circle cx="229.25" cy="64.6" r="5" stroke-width="0" fill="#FF2A00" opacity="0.7" />
<path d="M339.5,35.92c2.08,0.25,1.27,0.55,3.5,0.25c5.5-0.75,15.5-2,24.67-3.17" style="fill:none;stroke:#999;stroke-width:3" />
<path d="M353.77,13.5c0.48,0.92,1.76,2.99,1.76,6.02c0,15.23,0.24,57.46,0.24,68.9c0,14.25-6.32,3.53-7.77,2" style="fill:none;stroke:#999;stroke-width:3" />
<path d="M338.25,64.6c1.2,1.63,2.62,1.59,5.27,0.08c1.56-0.89,13.85-9.49,20.48-13.76" style="fill:none;stroke:#999;stroke-width:3" />
<path d="M374.99,17.09c0.28,0.41,0.78,1.69,0.94,2.21c1.25,4.23,2.43,14.92,3.21,22.81" style="fill:none;stroke:black;stroke-width:3" />
<circle cx="374.99" cy="17.09" r="5" stroke-width="0" fill="#FF2A00" opacity="0.7" />
<path d="M448.5,35.92c2.08,0.25,1.27,0.55,3.5,0.25c5.5-0.75,15.5-2,24.67-3.17" style="fill:none;stroke:#999;stroke-width:3" />
<path d="M462.77,13.5c0.48,0.92,1.76,2.99,1.76,6.02c0,15.23,0.24,57.46,0.24,68.9c0,14.25-6.32,3.53-7.77,2" style="fill:none;stroke:#999;stroke-width:3" />
<path d="M447.25,64.6c1.2,1.63,2.62,1.59,5.27,0.08c1.56-0.89,13.85-9.49,20.48-13.76" style="fill:none;stroke:#999;stroke-width:3" />
<path d="M483.99,17.09c0.28,0.41,0.78,1.69,0.94,2.21c1.25,4.23,2.43,14.92,3.21,22.81" style="fill:none;stroke:#999;stroke-width:3" />
<path d="M485.79,18.66c9.7-1.07,26.83-2.38,34.08-3.27c2.66-0.33,4.13,0.61,3.89,3c-0.44,4.27-2.74,14.89-3.96,22.02" style="fill:none;stroke:black;stroke-width:3" />
<circle cx="485.79" cy="18.66" r="5" stroke-width="0" fill="#FF2A00" opacity="0.7" />
<path d="M557.5,35.92c2.08,0.25,1.27,0.55,3.5,0.25c5.5-0.75,15.5-2,24.67-3.17" style="fill:none;stroke:#999;stroke-width:3" />
<path d="M571.77,13.5c0.48,0.92,1.76,2.99,1.76,6.02c0,15.23,0.24,57.46,0.24,68.9c0,14.25-6.32,3.53-7.77,2" style="fill:none;stroke:#999;stroke-width:3" />
<path d="M556.25,64.6c1.2,1.63,2.62,1.59,5.27,0.08c1.56-0.89,13.85-9.49,20.48-13.76" style="fill:none;stroke:#999;stroke-width:3" />
<path d="M592.99,17.09c0.28,0.41,0.78,1.69,0.94,2.21c1.25,4.23,2.43,14.92,3.21,22.81" style="fill:none;stroke:#999;stroke-width:3" />
<path d="M594.79,18.66c9.7-1.07,26.83-2.38,34.08-3.27c2.66-0.33,4.13,0.61,3.89,3c-0.44,4.27-2.74,14.89-3.96,22.02" style="fill:none;stroke:#999;stroke-width:3" />
<path d="M596.6,29.6c3.16-0.41,30.92-3.47,33.54-3.64" style="fill:none;stroke:black;stroke-width:3" />
<circle cx="596.6" cy="29.6" r="5" stroke-width="0" fill="#FF2A00" opacity="0.7" />
<path d="M666.5,35.92c2.08,0.25,1.27,0.55,3.5,0.25c5.5-0.75,15.5-2,24.67-3.17" style="fill:none;stroke:#999;stroke-width:3" />
<path d="M680.77,13.5c0.48,0.92,1.76,2.99,1.76,6.02c0,15.23,0.24,57.46,0.24,68.9c0,14.25-6.32,3.53-7.77,2" style="fill:none;stroke:#999;stroke-width:3" />
<path d="M665.25,64.6c1.2,1.63,2.62,1.59,5.27,0.08c1.56-0.89,13.85-9.49,20.48-13.76" style="fill:none;stroke:#999;stroke-width:3" />
<path d="M701.99,17.09c0.28,0.41,0.78,1.69,0.94,2.21c1.25,4.23,2.43,14.92,3.21,22.81" style="fill:none;stroke:#999;stroke-width:3" />
<path d="M703.79,18.66c9.7-1.07,26.83-2.38,34.08-3.27c2.66-0.33,4.13,0.61,3.89,3c-0.44,4.27-2.74,14.89-3.96,22.02" style="fill:none;stroke:#999;stroke-width:3" />
<path d="M705.6,29.6c3.16-0.41,30.92-3.47,33.54-3.64" style="fill:none;stroke:#999;stroke-width:3" />
<path d="M706.64,40.96c6.99-0.45,22.02-2.35,31.66-3.09" style="fill:none;stroke:black;stroke-width:3" />
<circle cx="706.64" cy="40.96" r="5" stroke-width="0" fill="#FF2A00" opacity="0.7" />
<path d="M775.5,35.92c2.08,0.25,1.27,0.55,3.5,0.25c5.5-0.75,15.5-2,24.67-3.17" style="fill:none;stroke:#999;stroke-width:3" />
<path d="M789.77,13.5c0.48,0.92,1.76,2.99,1.76,6.02c0,15.23,0.24,57.46,0.24,68.9c0,14.25-6.32,3.53-7.77,2" style="fill:none;stroke:#999;stroke-width:3" />
<path d="M774.25,64.6c1.2,1.63,2.62,1.59,5.27,0.08c1.56-0.89,13.85-9.49,20.48-13.76" style="fill:none;stroke:#999;stroke-width:3" />
<path d="M810.99,17.09c0.28,0.41,0.78,1.69,0.94,2.21c1.25,4.23,2.43,14.92,3.21,22.81" style="fill:none;stroke:#999;stroke-width:3" />
<path d="M812.79,18.66c9.7-1.07,26.83-2.38,34.08-3.27c2.66-0.33,4.13,0.61,3.89,3c-0.44,4.27-2.74,14.89-3.96,22.02" style="fill:none;stroke:#999;stroke-width:3" />
<path d="M814.6,29.6c3.16-0.41,30.92-3.47,33.54-3.64" style="fill:none;stroke:#999;stroke-width:3" />
<path d="M815.64,40.96c6.99-0.45,22.02-2.35,31.66-3.09" style="fill:none;stroke:#999;stroke-width:3" />
<path d="M805.41,53.21c1.9,0.92,2.23,0.92,5.02,0.61c5.67-0.61,12.24-2.79,13.98-2.92c1.96-0.15,3.09,1.22,3.16,3.69c0.07,2.74-0.23,29.56-0.23,38.27c0,9.21-6.67,0.23-7.65-0.31" style="fill:none;stroke:black;stroke-width:3" />
<circle cx="805.41" cy="53.21" r="5" stroke-width="0" fill="#FF2A00" opacity="0.7" />
<path d="M884.5,35.92c2.08,0.25,1.27,0.55,3.5,0.25c5.5-0.75,15.5-2,24.67-3.17" style="fill:none;stroke:#999;stroke-width:3" />
<path d="M898.77,13.5c0.48,0.92,1.76,2.99,1.76,6.02c0,15.23,0.24,57.46,0.24,68.9c0,14.25-6.32,3.53-7.77,2" style="fill:none;stroke:#999;stroke-width:3" />
<path d="M883.25,64.6c1.2,1.63,2.62,1.59,5.27,0.08c1.56-0.89,13.85-9.49,20.48-13.76" style="fill:none;stroke:#999;stroke-width:3" />
<path d="M919.99,17.09c0.28,0.41,0.78,1.69,0.94,2.21c1.25,4.23,2.43,14.92,3.21,22.81" style="fill:none;stroke:#999;stroke-width:3" />
<path d="M921.79,18.66c9.7-1.07,26.83-2.38,34.08-3.27c2.66-0.33,4.13,0.61,3.89,3c-0.44,4.27-2.74,14.89-3.96,22.02" style="fill:none;stroke:#999;stroke-width:3" />
<path d="M923.6,29.6c3.16-0.41,30.92-3.47,33.54-3.64" style="fill:none;stroke:#999;stroke-width:3" />
<path d="M924.64,40.96c6.99-0.45,22.02-2.35,31.66-3.09" style="fill:none;stroke:#999;stroke-width:3" />
<path d="M914.41,53.21c1.9,0.92,2.23,0.92,5.02,0.61c5.67-0.61,12.24-2.79,13.98-2.92c1.96-0.15,3.09,1.22,3.16,3.69c0.07,2.74-0.23,29.56-0.23,38.27c0,9.21-6.67,0.23-7.65-0.31" style="fill:none;stroke:#999;stroke-width:3" />
<path d="M926.92,55.41c0.05,0.37,0.09,0.97-0.08,1.51c-1.03,3.18-6.94,10.17-15.02,14.44" style="fill:none;stroke:black;stroke-width:3" />
<circle cx="926.92" cy="55.41" r="5" stroke-width="0" fill="#FF2A00" opacity="0.7" />
<path d="M993.5,35.92c2.08,0.25,1.27,0.55,3.5,0.25c5.5-0.75,15.5-2,24.67-3.17" style="fill:none;stroke:#999;stroke-width:3" />
<path d="M1007.77,13.5c0.48,0.92,1.76,2.99,1.76,6.02c0,15.23,0.24,57.46,0.24,68.9c0,14.25-6.32,3.53-7.77,2" style="fill:none;stroke:#999;stroke-width:3" />
<path d="M992.25,64.6c1.2,1.63,2.62,1.59,5.27,0.08c1.56-0.89,13.85-9.49,20.48-13.76" style="fill:none;stroke:#999;stroke-width:3" />
<path d="M1028.99,17.09c0.28,0.41,0.78,1.69,0.94,2.21c1.25,4.23,2.43,14.92,3.21,22.81" style="fill:none;stroke:#999;stroke-width:3" />
<path d="M1030.79,18.66c9.7-1.07,26.83-2.38,34.08-3.27c2.66-0.33,4.13,0.61,3.89,3c-0.44,4.27-2.74,14.89-3.96,22.02" style="fill:none;stroke:#999;stroke-width:3" />
<path d="M1032.6,29.6c3.16-0.41,30.92-3.47,33.54-3.64" style="fill:none;stroke:#999;stroke-width:3" />
<path d="M1033.6399999999999,40.96c6.99-0.45,22.02-2.35,31.66-3.09" style="fill:none;stroke:#999;stroke-width:3" />
<path d="M1023.41,53.21c1.9,0.92,2.23,0.92,5.02,0.61c5.67-0.61,12.24-2.79,13.98-2.92c1.96-0.15,3.09,1.22,3.16,3.69c0.07,2.74-0.23,29.56-0.23,38.27c0,9.21-6.67,0.23-7.65-0.31" style="fill:none;stroke:#999;stroke-width:3" />
<path d="M1035.92,55.41c0.05,0.37,0.09,0.97-0.08,1.51c-1.03,3.18-6.94,10.17-15.02,14.44" style="fill:none;stroke:#999;stroke-width:3" />
<path d="M1040.81,65.88c0.06,0.56,0.28,1.5-0.11,2.24c-2.7,5.13-8.95,12.63-20.17,21.43" style="fill:none;stroke:black;stroke-width:3" />
<circle cx="1040.81" cy="65.88" r="5" stroke-width="0" fill="#FF2A00" opacity="0.7" />
<path d="M1102.5,35.92c2.08,0.25,1.27,0.55,3.5,0.25c5.5-0.75,15.5-2,24.67-3.17" style="fill:none;stroke:#999;stroke-width:3" />
<path d="M1116.77,13.5c0.48,0.92,1.76,2.99,1.76,6.02c0,15.23,0.24,57.46,0.24,68.9c0,14.25-6.32,3.53-7.77,2" style="fill:none;stroke:#999;stroke-width:3" />
<path d="M1101.25,64.6c1.2,1.63,2.62,1.59,5.27,0.08c1.56-0.89,13.85-9.49,20.48-13.76" style="fill:none;stroke:#999;stroke-width:3" />
<path d="M1137.99,17.09c0.28,0.41,0.78,1.69,0.94,2.21c1.25,4.23,2.43,14.92,3.21,22.81" style="fill:none;stroke:#999;stroke-width:3" />
<path d="M1139.79,18.66c9.7-1.07,26.83-2.38,34.08-3.27c2.66-0.33,4.13,0.61,3.89,3c-0.44,4.27-2.74,14.89-3.96,22.02" style="fill:none;stroke:#999;stroke-width:3" />
<path d="M1141.6,29.6c3.16-0.41,30.92-3.47,33.54-3.64" style="fill:none;stroke:#999;stroke-width:3" />
<path d="M1142.6399999999999,40.96c6.99-0.45,22.02-2.35,31.66-3.09" style="fill:none;stroke:#999;stroke-width:3" />
<path d="M1132.4099999999999,53.21c1.9,0.92,2.23,0.92,5.02,0.61c5.67-0.61,12.24-2.79,13.98-2.92c1.96-0.15,3.09,1.22,3.16,3.69c0.07,2.74-0.23,29.56-0.23,38.27c0,9.21-6.67,0.23-7.65-0.31" style="fill:none;stroke:#999;stroke-width:3" />
<path d="M1144.92,55.41c0.05,0.37,0.09,0.97-0.08,1.51c-1.03,3.18-6.94,10.17-15.02,14.44" style="fill:none;stroke:#999;stroke-width:3" />
<path d="M1149.81,65.88c0.06,0.56,0.28,1.5-0.11,2.24c-2.7,5.13-8.95,12.63-20.17,21.43" style="fill:none;stroke:#999;stroke-width:3" />
<path d="M1160.69,50.77c1.89,0.94,1.56,0.94,4.33,0.63c5.64-0.64,11.7-2.59,13.43-2.69c3.87-0.22,3.71,1.12,3.71,3.74c0,4.2-0.41,31.49-0.41,40.48c0,9.54-6.63,1.21-7.6,0.65" style="fill:none;stroke:black;stroke-width:3" />
<circle cx="1160.69" cy="50.77" r="5" stroke-width="0" fill="#FF2A00" opacity="0.7" />
<path d="M1211.5,35.92c2.08,0.25,1.27,0.55,3.5,0.25c5.5-0.75,15.5-2,24.67-3.17" style="fill:none;stroke:#999;stroke-width:3" />
<path d="M1225.77,13.5c0.48,0.92,1.76,2.99,1.76,6.02c0,15.23,0.24,57.46,0.24,68.9c0,14.25-6.32,3.53-7.77,2" style="fill:none;stroke:#999;stroke-width:3" />
<path d="M1210.25,64.6c1.2,1.63,2.62,1.59,5.27,0.08c1.56-0.89,13.85-9.49,20.48-13.76" style="fill:none;stroke:#999;stroke-width:3" />
<path d="M1246.99,17.09c0.28,0.41,0.78,1.69,0.94,2.21c1.25,4.23,2.43,14.92,3.21,22.81" style="fill:none;stroke:#999;stroke-width:3" />
<path d="M1248.79,18.66c9.7-1.07,26.83-2.38,34.08-3.27c2.66-0.33,4.13,0.61,3.89,3c-0.44,4.27-2.74,14.89-3.96,22.02" style="fill:none;stroke:#999;stroke-width:3" />
<path d="M1250.6,29.6c3.16-0.41,30.92-3.47,33.54-3.64" style="fill:none;stroke:#999;stroke-width:3" />
<path d="M1251.6399999999999,40.96c6.99-0.45,22.02-2.35,31.66-3.09" style="fill:none;stroke:#999;stroke-width:3" />
<path d="M1241.4099999999999,53.21c1.9,0.92,2.23,0.92,5.02,0.61c5.67-0.61,12.24-2.79,13.98-2.92c1.96-0.15,3.09,1.22,3.16,3.69c0.07,2.74-0.23,29.56-0.23,38.27c0,9.21-6.67,0.23-7.65-0.31" style="fill:none;stroke:#999;stroke-width:3" />
<path d="M1253.92,55.41c0.05,0.37,0.09,0.97-0.08,1.51c-1.03,3.18-6.94,10.17-15.02,14.44" style="fill:none;stroke:#999;stroke-width:3" />
<path d="M1258.81,65.88c0.06,0.56,0.28,1.5-0.11,2.24c-2.7,5.13-8.95,12.63-20.17,21.43" style="fill:none;stroke:#999;stroke-width:3" />
<path d="M1269.69,50.77c1.89,0.94,1.56,0.94,4.33,0.63c5.64-0.64,11.7-2.59,13.43-2.69c3.87-0.22,3.71,1.12,3.71,3.74c0,4.2-0.41,31.49-0.41,40.48c0,9.54-6.63,1.21-7.6,0.65" style="fill:none;stroke:#999;stroke-width:3" />
<path d="M1282.3,52.99c0.03,0.37,0.07,0.97-0.07,1.5C1281.39,57.66 1276.58,64.62 1270.0,68.87" style="fill:none;stroke:black;stroke-width:3" />
<circle cx="1282.3" cy="52.99" r="5" stroke-width="0" fill="#FF2A00" opacity="0.7" />
<path d="M1320.5,35.92c2.08,0.25,1.27,0.55,3.5,0.25c5.5-0.75,15.5-2,24.67-3.17" style="fill:none;stroke:#999;stroke-width:3" />
<path d="M1334.77,13.5c0.48,0.92,1.76,2.99,1.76,6.02c0,15.23,0.24,57.46,0.24,68.9c0,14.25-6.32,3.53-7.77,2" style="fill:none;stroke:#999;stroke-width:3" />
<path d="M1319.25,64.6c1.2,1.63,2.62,1.59,5.27,0.08c1.56-0.89,13.85-9.49,20.48-13.76" style="fill:none;stroke:#999;stroke-width:3" />
<path d="M1355.99,17.09c0.28,0.41,0.78,1.69,0.94,2.21c1.25,4.23,2.43,14.92,3.21,22.81" style="fill:none;stroke:#999;stroke-width:3" />
<path d="M1357.79,18.66c9.7-1.07,26.83-2.38,34.08-3.27c2.66-0.33,4.13,0.61,3.89,3c-0.44,4.27-2.74,14.89-3.96,22.02" style="fill:none;stroke:#999;stroke-width:3" />
<path d="M1359.6,29.6c3.16-0.41,30.92-3.47,33.54-3.64" style="fill:none;stroke:#999;stroke-width:3" />
<path d="M1360.6399999999999,40.96c6.99-0.45,22.02-2.35,31.66-3.09" style="fill:none;stroke:#999;stroke-width:3" />
<path d="M1350.4099999999999,53.21c1.9,0.92,2.23,0.92,5.02,0.61c5.67-0.61,12.24-2.79,13.98-2.92c1.96-0.15,3.09,1.22,3.16,3.69c0.07,2.74-0.23,29.56-0.23,38.27c0,9.21-6.67,0.23-7.65-0.31" style="fill:none;stroke:#999;stroke-width:3" />
<path d="M1362.92,55.41c0.05,0.37,0.09,0.97-0.08,1.51c-1.03,3.18-6.94,10.17-15.02,14.44" style="fill:none;stroke:#999;stroke-width:3" />
<path d="M1367.81,65.88c0.06,0.56,0.28,1.5-0.11,2.24c-2.7,5.13-8.95,12.63-20.17,21.43" style="fill:none;stroke:#999;stroke-width:3" />
<path d="M1378.69,50.77c1.89,0.94,1.56,0.94,4.33,0.63c5.64-0.64,11.7-2.59,13.43-2.69c3.87-0.22,3.71,1.12,3.71,3.74c0,4.2-0.41,31.49-0.41,40.48c0,9.54-6.63,1.21-7.6,0.65" style="fill:none;stroke:#999;stroke-width:3" />
<path d="M1391.3,52.99c0.03,0.37,0.07,0.97-0.07,1.5C1390.39,57.66 1385.58,64.62 1379.0,68.87" style="fill:none;stroke:#999;stroke-width:3" />
<path d="M1395.74,64.24c0.05,0.52,0.1,1.33-0.09,2.08c-1.16,4.38-7.8,14.49-16.88,20.38" style="fill:none;stroke:black;stroke-width:3" />
<circle cx="1395.74" cy="64.24" r="5" stroke-width="0" fill="#FF2A00" opacity="0.7" />
</svg>