<!-- 0646f -->
<svg width="1635px" height="109px" viewBox="0 0 1635px 109px" xmlns="http://www.w3.org/2000/svg" xmlns:xlink="http://www.w3.org/1999/xlink" xml:space="preserve" version="1.1"  baseProfile="full">
<line x1="1" y1="1" x2="1634" y2="1" style="stroke:#ddd;stroke-width:2" />
<line x1="1" y1="1" x2="1" y2="108" style="stroke:#ddd;stroke-width:2" />
<line x1="1" y1="108" x2="1634" y2="108" style="stroke:#ddd;stroke-width:2" />
<line x1="1634" y1="1" x2="1634" y2="108" style="stroke:#ddd;stroke-width:2" />
<line x1="109" y1="1" x2="109" y2="108" style="stroke:#ddd;stroke-width:2" />
<line x1="218" y1="1" x2="218" y2="108" style="stroke:#ddd;stroke-width:2" />
<line x1="327" y1="1" x2="327" y2="108" style="stroke:#ddd;stroke-width:2" />
<line x1="436" y1="1" x2="436" y2="108" style="stroke:#ddd;stroke-width:2" />
<line x1="545" y1="1" x2="545" y2="108" style="stroke:#ddd;stroke-width:2" />
<line x1="654" y1="1" x2="654" y2="108" style="stroke:#ddd;stroke-width:2" />
<line x1="763" y1="1" x2="763" y2="108" style="stroke:#ddd;stroke-width:2" />
<line x1="872" y1="1" x2="872" y2="108" style="stroke:#ddd;stroke-width:2" />
<line x1="981" y1="1" x2="981" y2="108" style="stroke:#ddd;stroke-width:2" />
<line x1="1090" y1="1" x2="1090" y2="108" style="stroke:#ddd;stroke-width:2" />
<line x1="1199" y1="1" x2="1199" y2="108" style="stroke:#ddd;stroke-width:2" />
<line x1="1308" y1="1" x2="1308" y2="108" style="stroke:#ddd;stroke-width:2" />
<line x1="1417" y1="1" x2="1417" y2="108" style="stroke:#ddd;stroke-width:2" />
<line x1="1526" y1="1" x2="1526" y2="108" style="stroke:#ddd;stroke-width:2" />
<line x1="1" y1="54" x2="1634" y2="54" style="stroke:#ddd;stroke-width:2;stroke-dasharray:3 3" />
<line x1="55" y1="1" x2="55" y2="108" style="stroke:#ddd;stroke-width:2;stroke-dasharray:3 3" />
<line x1="164" y1="1" x2="164" y2="108" style="stroke:#ddd;stroke-width:2;stroke-dasharray:3 3" />
<line x1="273" y1="1" x2="273" y2="108" style="stroke:#ddd;stroke-width:2;stroke-dasharray:3 3" />
<line x1="382" y1="1" x2="382" y2="108" style="stroke:#ddd;stroke-width:2;stroke-dasharray:3 3" />
<line x1="491" y1="1" x2="491" y2="108" style="stroke:#ddd;stroke-width:2;stroke-dasharray:3 3" />
<line x1="600" y1="1" x2="600" y2="108" style="stroke:#ddd;stroke-width:2;stroke-dasharray:3 3" />
<line x1="709" y1="1" x2="709" y2="108" style="stroke:#ddd;stroke-width:2;stroke-dasharray:3 3" />
<line x1="818" y1="1" x2="818" y2="108" style="stroke:#ddd;stroke-width:2;stroke-dasharray:3 3" />
<line x1="927" y1="1" x2="927" y2="108" style="stroke:#ddd;stroke-width:2;stroke-dasharray:3 3" />
<line x1="1036" y1="1" x2="1036" y2="108" style="stroke:#ddd;stroke-width:2;stroke-dasharray:3 3" />
<line x1="1145" y1="1" x2="1145" y2="108" style="stroke:#ddd;stroke-width:2;stroke-dasharray:3 3" />
<line x1="1254" y1="1" x2="1254" y2="108" style="stroke:#ddd;stroke-width:2;stroke-dasharray:3 3" />
<line x1="1363" y1="1" x2="1363" y2="108" style="stroke:#ddd;stroke-width:2;stroke-dasharray:3 3" />
<line x1="1472" y1="1" x2="1472" y2="108" style="stroke:#ddd;stroke-width:2;stroke-dasharray:3 3" />
<line x1="1581" y1="1" x2="1581" y2="108" style="stroke:#ddd;stroke-width:2;stroke-dasharray:3 3" />
<path d="M18.9,17.63c0.73,0.23,2.07,0.27,2.8,0.23c5.2-0.26,17.89-1.77,22.92-1.89c1.22-0.03,1.95,0.11,2.56,0.22" style="fill:none;stroke:black;stroke-width:3" />
<circle cx="18.9" cy="17.63" r="5" stroke-width="0" fill="#FF2A00" opacity="0.7" />
<path d="M127.9,17.63c0.73,0.23,2.07,0.27,2.8,0.23c5.2-0.26,17.89-1.77,22.92-1.89c1.22-0.03,1.95,0.11,2.56,0.22" style="fill:none;stroke:#999;stroke-width:3" />
<path d="M141.88,9.52c0.1,0.19,1.39,0.98,1.39,2.17c0,7.76-0.15,12.99-0.15,14.94" style="fill:none;stroke:black;stroke-width:3" />
<circle cx="141.88" cy="9.52" r="5" stroke-width="0" fill="#FF2A00" opacity="0.7" />
<path d="M236.9,17.63c0.73,0.23,2.07,0.27,2.8,0.23c5.2-0.26,17.89-1.77,22.92-1.89c1.22-0.03,1.95,0.11,2.56,0.22" style="fill:none;stroke:#999;stroke-width:3" />
<path d="M250.88,9.52c0.1,0.19,1.39,0.98,1.39,2.17c0,7.76-0.15,12.99-0.15,14.94" style="fill:none;stroke:#999;stroke-width:3" />
<path d="M233.53,27.96c1.05,0.31,2.98,0.39,4.03,0.31c11.5-0.93,20.08-2.21,27.86-2.39c1.75-0.04,2.8,0.15,3.68,0.3" style="fill:none;stroke:black;stroke-width:3" />
<circle cx="233.53" cy="27.96" r="5" stroke-width="0" fill="#FF2A00" opacity="0.7" />
<path d="M345.9,17.63c0.73,0.23,2.07,0.27,2.8,0.23c5.2-0.26,17.89-1.77,22.92-1.89c1.22-0.03,1.95,0.11,2.56,0.22" style="fill:none;stroke:#999;stroke-width:3" />
<path d="M359.88,9.52c0.1,0.19,1.39,0.98,1.39,2.17c0,7.76-0.15,12.99-0.15,14.94" style="fill:none;stroke:#999;stroke-width:3" />
<path d="M342.53,27.96c1.05,0.31,2.98,0.39,4.03,0.31c11.5-0.93,20.08-2.21,27.86-2.39c1.75-0.04,2.8,0.15,3.68,0.3" style="fill:none;stroke:#999;stroke-width:3" />
<path d="M351.32,31.34c1.56,1.02,4.04,4.18,4.43,5.76" style="fill:none;stroke:black;stroke-width:3" />
<circle cx="351.32" cy="31.34" r="5" stroke-width="0" fill="#FF2A00" opacity="0.7" />
<path d="M454.9,17.63c0.73,0.23,2.07,0.27,2.8,0.23c5.2-0.26,17.89-1.77,22.92-1.89c1.22-0.03,1.95,0.11,2.56,0.22" style="fill:none;stroke:#999;stroke-width:3" />
<path d="M468.88,9.52c0.1,0.19,1.39,0.98,1.39,2.17c0,7.76-0.15,12.99-0.15,14.94" style="fill:none;stroke:#999;stroke-width:3" />
<path d="M451.53,27.96c1.05,0.31,2.98,0.39,4.03,0.31c11.5-0.93,20.08-2.21,27.86-2.39c1.75-0.04,2.8,0.15,3.68,0.3" style="fill:none;stroke:#999;stroke-width:3" />
<path d="M460.32,31.34c1.56,1.02,4.04,4.18,4.43,5.76" style="fill:none;stroke:#999;stroke-width:3" />
<path d="M478.79,29.28c0.01,0.18,0.02,0.46-0.02,0.71c-0.26,1.5-1.76,4.51-4.19,7.4" style="fill:none;stroke:black;stroke-width:3" />
<circle cx="478.79" cy="29.28" r="5" stroke-width="0" fill="#FF2A00" opacity="0.7" />
<path d="M563.9,17.63c0.73,0.23,2.07,0.27,2.8,0.23c5.2-0.26,17.89-1.77,22.92-1.89c1.22-0.03,1.95,0.11,2.56,0.22" style="fill:none;stroke:#999;stroke-width:3" />
<path d="M577.88,9.52c0.1,0.19,1.39,0.98,1.39,2.17c0,7.76-0.15,12.99-0.15,14.94" style="fill:none;stroke:#999;stroke-width:3" />
<path d="M560.53,27.96c1.05,0.31,2.98,0.39,4.03,0.31c11.5-0.93,20.08-2.21,27.86-2.39c1.75-0.04,2.8,0.15,3.68,0.3" style="fill:none;stroke:#999;stroke-width:3" />
<path d="M569.3199999999999,31.34c1.56,1.02,4.04,4.18,4.43,5.76" style="fill:none;stroke:#999;stroke-width:3" />
<path d="M587.79,29.28c0.01,0.18,0.02,0.46-0.02,0.71c-0.26,1.5-1.76,4.51-4.19,7.4" style="fill:none;stroke:#999;stroke-width:3" />
<path d="M561.89,39.87c0.61,0.23,2.69,0.23,3.3,0.2c8.65-0.37,15.77-1.23,26.03-1.69c1.01-0.05,3.12-0.14,3.62-0.03" style="fill:none;stroke:black;stroke-width:3" />
<circle cx="561.89" cy="39.87" r="5" stroke-width="0" fill="#FF2A00" opacity="0.7" />
<path d="M672.9,17.63c0.73,0.23,2.07,0.27,2.8,0.23c5.2-0.26,17.89-1.77,22.92-1.89c1.22-0.03,1.95,0.11,2.56,0.22" style="fill:none;stroke:#999;stroke-width:3" />
<path d="M686.88,9.52c0.1,0.19,1.39,0.98,1.39,2.17c0,7.76-0.15,12.99-0.15,14.94" style="fill:none;stroke:#999;stroke-width:3" />
<path d="M669.53,27.96c1.05,0.31,2.98,0.39,4.03,0.31c11.5-0.93,20.08-2.21,27.86-2.39c1.75-0.04,2.8,0.15,3.68,0.3" style="fill:none;stroke:#999;stroke-width:3" />
<path d="M678.3199999999999,31.34c1.56,1.02,4.04,4.18,4.43,5.76" style="fill:none;stroke:#999;stroke-width:3" />
<path d="M696.79,29.28c0.01,0.18,0.02,0.46-0.02,0.71c-0.26,1.5-1.76,4.51-4.19,7.4" style="fill:none;stroke:#999;stroke-width:3" />
<path d="M670.89,39.87c0.61,0.23,2.69,0.23,3.3,0.2c8.65-0.37,15.77-1.23,26.03-1.69c1.01-0.05,3.12-0.14,3.62-0.03" style="fill:none;stroke:#999;stroke-width:3" />
<path d="M669.32,49.46c1.03,0.27,2.92,0.34,3.95,0.27c8.66-0.66,20.21-2.31,29.07-2.73c1.71-0.08,2.75,0.13,3.6,0.26" style="fill:none;stroke:black;stroke-width:3" />
<circle cx="669.32" cy="49.46" r="5" stroke-width="0" fill="#FF2A00" opacity="0.7" />
<path d="M781.9,17.63c0.73,0.23,2.07,0.27,2.8,0.23c5.2-0.26,17.89-1.77,22.92-1.89c1.22-0.03,1.95,0.11,2.56,0.22" style="fill:none;stroke:#999;stroke-width:3" />
<path d="M795.88,9.52c0.1,0.19,1.39,0.98,1.39,2.17c0,7.76-0.15,12.99-0.15,14.94" style="fill:none;stroke:#999;stroke-width:3" />
<path d="M778.53,27.96c1.05,0.31,2.98,0.39,4.03,0.31c11.5-0.93,20.08-2.21,27.86-2.39c1.75-0.04,2.8,0.15,3.68,0.3" style="fill:none;stroke:#999;stroke-width:3" />
<path d="M787.3199999999999,31.34c1.56,1.02,4.04,4.18,4.43,5.76" style="fill:none;stroke:#999;stroke-width:3" />
<path d="M805.79,29.28c0.01,0.18,0.02,0.46-0.02,0.71c-0.26,1.5-1.76,4.51-4.19,7.4" style="fill:none;stroke:#999;stroke-width:3" />
<path d="M779.89,39.87c0.61,0.23,2.69,0.23,3.3,0.2c8.65-0.37,15.77-1.23,26.03-1.69c1.01-0.05,3.12-0.14,3.62-0.03" style="fill:none;stroke:#999;stroke-width:3" />
<path d="M778.32,49.46c1.03,0.27,2.92,0.34,3.95,0.27c8.66-0.66,20.21-2.31,29.07-2.73c1.71-0.08,2.75,0.13,3.6,0.26" style="fill:none;stroke:#999;stroke-width:3" />
<path d="M796.7,40.59c0.37,0.29,1.16,1.59,1.24,2.17c0.08,0.58-0.05,14.13-0.12,17.73" style="fill:none;stroke:black;stroke-width:3" />
<circle cx="796.7" cy="40.59" r="5" stroke-width="0" fill="#FF2A00" opacity="0.7" />
<path d="M890.9,17.63c0.73,0.23,2.07,0.27,2.8,0.23c5.2-0.26,17.89-1.77,22.92-1.89c1.22-0.03,1.95,0.11,2.56,0.22" style="fill:none;stroke:#999;stroke-width:3" />
<path d="M904.88,9.52c0.1,0.19,1.39,0.98,1.39,2.17c0,7.76-0.15,12.99-0.15,14.94" style="fill:none;stroke:#999;stroke-width:3" />
<path d="M887.53,27.96c1.05,0.31,2.98,0.39,4.03,0.31c11.5-0.93,20.08-2.21,27.86-2.39c1.75-0.04,2.8,0.15,3.68,0.3" style="fill:none;stroke:#999;stroke-width:3" />
<path d="M896.3199999999999,31.34c1.56,1.02,4.04,4.18,4.43,5.76" style="fill:none;stroke:#999;stroke-width:3" />
<path d="M914.79,29.28c0.01,0.18,0.02,0.46-0.02,0.71c-0.26,1.5-1.76,4.51-4.19,7.4" style="fill:none;stroke:#999;stroke-width:3" />
<path d="M888.89,39.87c0.61,0.23,2.69,0.23,3.3,0.2c8.65-0.37,15.77-1.23,26.03-1.69c1.01-0.05,3.12-0.14,3.62-0.03" style="fill:none;stroke:#999;stroke-width:3" />
<path d="M887.32,49.46c1.03,0.27,2.92,0.34,3.95,0.27c8.66-0.66,20.21-2.31,29.07-2.73c1.71-0.08,2.75,0.13,3.6,0.26" style="fill:none;stroke:#999;stroke-width:3" />
<path d="M905.7,40.59c0.37,0.29,1.16,1.59,1.24,2.17c0.08,0.58-0.05,14.13-0.12,17.73" style="fill:none;stroke:#999;stroke-width:3" />
<path d="M942.15,9.18c0.46,0.4,0.65,1.77,0.61,2.49c-1.17,22.78-5.01,35.08-19.91,44.18" style="fill:none;stroke:black;stroke-width:3" />
<circle cx="942.15" cy="9.18" r="5" stroke-width="0" fill="#FF2A00" opacity="0.7" />
<path d="M999.9,17.63c0.73,0.23,2.07,0.27,2.8,0.23c5.2-0.26,17.89-1.77,22.92-1.89c1.22-0.03,1.95,0.11,2.56,0.22" style="fill:none;stroke:#999;stroke-width:3" />
<path d="M1013.88,9.52c0.1,0.19,1.39,0.98,1.39,2.17c0,7.76-0.15,12.99-0.15,14.94" style="fill:none;stroke:#999;stroke-width:3" />
<path d="M996.53,27.96c1.05,0.31,2.98,0.39,4.03,0.31c11.5-0.93,20.08-2.21,27.86-2.39c1.75-0.04,2.8,0.15,3.68,0.3" style="fill:none;stroke:#999;stroke-width:3" />
<path d="M1005.3199999999999,31.34c1.56,1.02,4.04,4.18,4.43,5.76" style="fill:none;stroke:#999;stroke-width:3" />
<path d="M1023.79,29.28c0.01,0.18,0.02,0.46-0.02,0.71c-0.26,1.5-1.76,4.51-4.19,7.4" style="fill:none;stroke:#999;stroke-width:3" />
<path d="M997.89,39.87c0.61,0.23,2.69,0.23,3.3,0.2c8.65-0.37,15.77-1.23,26.03-1.69c1.01-0.05,3.12-0.14,3.62-0.03" style="fill:none;stroke:#999;stroke-width:3" />
<path d="M996.32,49.46c1.03,0.27,2.92,0.34,3.95,0.27c8.66-0.66,20.21-2.31,29.07-2.73c1.71-0.08,2.75,0.13,3.6,0.26" style="fill:none;stroke:#999;stroke-width:3" />
<path d="M1014.7,40.59c0.37,0.29,1.16,1.59,1.24,2.17c0.08,0.58-0.05,14.13-0.12,17.73" style="fill:none;stroke:#999;stroke-width:3" />
<path d="M1051.15,9.18c0.46,0.4,0.65,1.77,0.61,2.49c-1.17,22.78-5.01,35.08-19.91,44.18" style="fill:none;stroke:#999;stroke-width:3" />
<path d="M1037.46,23.11c0.83,0.38,3.09,0.13,4.12,0c1.04-0.13,17.09-3.3,20.35-4.06c2.39-0.56,3.74,1.22,3.1,2.65c-0.93,2.1-3.19,12.61-3.99,17.82c-1.29,8.4-0.3,12.46,8.75,12.46c8.39,0,7.24-2.47,7.24-6.96" style="fill:none;stroke:black;stroke-width:3" />
<circle cx="1037.46" cy="23.11" r="5" stroke-width="0" fill="#FF2A00" opacity="0.7" />
<path d="M1108.9,17.63c0.73,0.23,2.07,0.27,2.8,0.23c5.2-0.26,17.89-1.77,22.92-1.89c1.22-0.03,1.95,0.11,2.56,0.22" style="fill:none;stroke:#999;stroke-width:3" />
<path d="M1122.88,9.52c0.1,0.19,1.39,0.98,1.39,2.17c0,7.76-0.15,12.99-0.15,14.94" style="fill:none;stroke:#999;stroke-width:3" />
<path d="M1105.53,27.96c1.05,0.31,2.98,0.39,4.03,0.31c11.5-0.93,20.08-2.21,27.86-2.39c1.75-0.04,2.8,0.15,3.68,0.3" style="fill:none;stroke:#999;stroke-width:3" />
<path d="M1114.32,31.34c1.56,1.02,4.04,4.18,4.43,5.76" style="fill:none;stroke:#999;stroke-width:3" />
<path d="M1132.79,29.28c0.01,0.18,0.02,0.46-0.02,0.71c-0.26,1.5-1.76,4.51-4.19,7.4" style="fill:none;stroke:#999;stroke-width:3" />
<path d="M1106.8899999999999,39.87c0.61,0.23,2.69,0.23,3.3,0.2c8.65-0.37,15.77-1.23,26.03-1.69c1.01-0.05,3.12-0.14,3.62-0.03" style="fill:none;stroke:#999;stroke-width:3" />
<path d="M1105.3200000000002,49.46c1.03,0.27,2.92,0.34,3.95,0.27c8.66-0.66,20.21-2.31,29.07-2.73c1.71-0.08,2.75,0.13,3.6,0.26" style="fill:none;stroke:#999;stroke-width:3" />
<path d="M1123.7,40.59c0.37,0.29,1.16,1.59,1.24,2.17c0.08,0.58-0.05,14.13-0.12,17.73" style="fill:none;stroke:#999;stroke-width:3" />
<path d="M1160.15,9.18c0.46,0.4,0.65,1.77,0.61,2.49c-1.17,22.78-5.01,35.08-19.91,44.18" style="fill:none;stroke:#999;stroke-width:3" />
<path d="M1146.46,23.11c0.83,0.38,3.09,0.13,4.12,0c1.04-0.13,17.09-3.3,20.35-4.06c2.39-0.56,3.74,1.22,3.1,2.65c-0.93,2.1-3.19,12.61-3.99,17.82c-1.29,8.4-0.3,12.46,8.75,12.46c8.39,0,7.24-2.47,7.24-6.96" style="fill:none;stroke:#999;stroke-width:3" />
<path d="M1148.78,33.14c6.14,1.95,12.44,8.91,13.64,12.11" style="fill:none;stroke:black;stroke-width:3" />
<circle cx="1148.78" cy="33.14" r="5" stroke-width="0" fill="#FF2A00" opacity="0.7" />
<path d="M1217.9,17.63c0.73,0.23,2.07,0.27,2.8,0.23c5.2-0.26,17.89-1.77,22.92-1.89c1.22-0.03,1.95,0.11,2.56,0.22" style="fill:none;stroke:#999;stroke-width:3" />
<path d="M1231.88,9.52c0.1,0.19,1.39,0.98,1.39,2.17c0,7.76-0.15,12.99-0.15,14.94" style="fill:none;stroke:#999;stroke-width:3" />
<path d="M1214.53,27.96c1.05,0.31,2.98,0.39,4.03,0.31c11.5-0.93,20.08-2.21,27.86-2.39c1.75-0.04,2.8,0.15,3.68,0.3" style="fill:none;stroke:#999;stroke-width:3" />
<path d="M1223.32,31.34c1.56,1.02,4.04,4.18,4.43,5.76" style="fill:none;stroke:#999;stroke-width:3" />
<path d="M1241.79,29.28c0.01,0.18,0.02,0.46-0.02,0.71c-0.26,1.5-1.76,4.51-4.19,7.4" style="fill:none;stroke:#999;stroke-width:3" />
<path d="M1215.8899999999999,39.87c0.61,0.23,2.69,0.23,3.3,0.2c8.65-0.37,15.77-1.23,26.03-1.69c1.01-0.05,3.12-0.14,3.62-0.03" style="fill:none;stroke:#999;stroke-width:3" />
<path d="M1214.3200000000002,49.46c1.03,0.27,2.92,0.34,3.95,0.27c8.66-0.66,20.21-2.31,29.07-2.73c1.71-0.08,2.75,0.13,3.6,0.26" style="fill:none;stroke:#999;stroke-width:3" />
<path d="M1232.7,40.59c0.37,0.29,1.16,1.59,1.24,2.17c0.08,0.58-0.05,14.13-0.12,17.73" style="fill:none;stroke:#999;stroke-width:3" />
<path d="M1269.15,9.18c0.46,0.4,0.65,1.77,0.61,2.49c-1.17,22.78-5.01,35.08-19.91,44.18" style="fill:none;stroke:#999;stroke-width:3" />
<path d="M1255.46,23.11c0.83,0.38,3.09,0.13,4.12,0c1.04-0.13,17.09-3.3,20.35-4.06c2.39-0.56,3.74,1.22,3.1,2.65c-0.93,2.1-3.19,12.61-3.99,17.82c-1.29,8.4-0.3,12.46,8.75,12.46c8.39,0,7.24-2.47,7.24-6.96" style="fill:none;stroke:#999;stroke-width:3" />
<path d="M1257.78,33.14c6.14,1.95,12.44,8.91,13.64,12.11" style="fill:none;stroke:#999;stroke-width:3" />
<path d="M1266.98,53c0.09,0.28,0.19,0.73-0.18,1.14c-2.2,2.4-14.8,7.65-32.05,10.87" style="fill:none;stroke:black;stroke-width:3" />
<circle cx="1266.98" cy="53.0" r="5" stroke-width="0" fill="#FF2A00" opacity="0.7" />
<path d="M1326.9,17.63c0.73,0.23,2.07,0.27,2.8,0.23c5.2-0.26,17.89-1.77,22.92-1.89c1.22-0.03,1.95,0.11,2.56,0.22" style="fill:none;stroke:#999;stroke-width:3" />
<path d="M1340.88,9.52c0.1,0.19,1.39,0.98,1.39,2.17c0,7.76-0.15,12.99-0.15,14.94" style="fill:none;stroke:#999;stroke-width:3" />
<path d="M1323.53,27.96c1.05,0.31,2.98,0.39,4.03,0.31c11.5-0.93,20.08-2.21,27.86-2.39c1.75-0.04,2.8,0.15,3.68,0.3" style="fill:none;stroke:#999;stroke-width:3" />
<path d="M1332.32,31.34c1.56,1.02,4.04,4.18,4.43,5.76" style="fill:none;stroke:#999;stroke-width:3" />
<path d="M1350.79,29.28c0.01,0.18,0.02,0.46-0.02,0.71c-0.26,1.5-1.76,4.51-4.19,7.4" style="fill:none;stroke:#999;stroke-width:3" />
<path d="M1324.8899999999999,39.87c0.61,0.23,2.69,0.23,3.3,0.2c8.65-0.37,15.77-1.23,26.03-1.69c1.01-0.05,3.12-0.14,3.62-0.03" style="fill:none;stroke:#999;stroke-width:3" />
<path d="M1323.3200000000002,49.46c1.03,0.27,2.92,0.34,3.95,0.27c8.66-0.66,20.21-2.31,29.07-2.73c1.71-0.08,2.75,0.13,3.6,0.26" style="fill:none;stroke:#999;stroke-width:3" />
<path d="M1341.7,40.59c0.37,0.29,1.16,1.59,1.24,2.17c0.08,0.58-0.05,14.13-0.12,17.73" style="fill:none;stroke:#999;stroke-width:3" />
<path d="M1378.15,9.18c0.46,0.4,0.65,1.77,0.61,2.49c-1.17,22.78-5.01,35.08-19.91,44.18" style="fill:none;stroke:#999;stroke-width:3" />
<path d="M1364.46,23.11c0.83,0.38,3.09,0.13,4.12,0c1.04-0.13,17.09-3.3,20.35-4.06c2.39-0.56,3.74,1.22,3.1,2.65c-0.93,2.1-3.19,12.61-3.99,17.82c-1.29,8.4-0.3,12.46,8.75,12.46c8.39,0,7.24-2.47,7.24-6.96" style="fill:none;stroke:#999;stroke-width:3" />
<path d="M1366.78,33.14c6.14,1.95,12.44,8.91,13.64,12.11" style="fill:none;stroke:#999;stroke-width:3" />
<path d="M1375.98,53c0.09,0.28,0.19,0.73-0.18,1.14c-2.2,2.4-14.8,7.65-32.05,10.87" style="fill:none;stroke:#999;stroke-width:3" />
<path d="M1338.88,72.36c0.94,0.32,2.66,0.4,3.6,0.32c11.77-0.89,24.68-2.79,42.77-4.13c1.56-0.12,4.1-0.13,4.88,0.03" style="fill:none;stroke:black;stroke-width:3" />
<circle cx="1338.88" cy="72.36" r="5" stroke-width="0" fill="#FF2A00" opacity="0.7" />
<path d="M1435.9,17.63c0.73,0.23,2.07,0.27,2.8,0.23c5.2-0.26,17.89-1.77,22.92-1.89c1.22-0.03,1.95,0.11,2.56,0.22" style="fill:none;stroke:#999;stroke-width:3" />
<path d="M1449.88,9.52c0.1,0.19,1.39,0.98,1.39,2.17c0,7.76-0.15,12.99-0.15,14.94" style="fill:none;stroke:#999;stroke-width:3" />
<path d="M1432.53,27.96c1.05,0.31,2.98,0.39,4.03,0.31c11.5-0.93,20.08-2.21,27.86-2.39c1.75-0.04,2.8,0.15,3.68,0.3" style="fill:none;stroke:#999;stroke-width:3" />
<path d="M1441.32,31.34c1.56,1.02,4.04,4.18,4.43,5.76" style="fill:none;stroke:#999;stroke-width:3" />
<path d="M1459.79,29.28c0.01,0.18,0.02,0.46-0.02,0.71c-0.26,1.5-1.76,4.51-4.19,7.4" style="fill:none;stroke:#999;stroke-width:3" />
<path d="M1433.8899999999999,39.87c0.61,0.23,2.69,0.23,3.3,0.2c8.65-0.37,15.77-1.23,26.03-1.69c1.01-0.05,3.12-0.14,3.62-0.03" style="fill:none;stroke:#999;stroke-width:3" />
<path d="M1432.3200000000002,49.46c1.03,0.27,2.92,0.34,3.95,0.27c8.66-0.66,20.21-2.31,29.07-2.73c1.71-0.08,2.75,0.13,3.6,0.26" style="fill:none;stroke:#999;stroke-width:3" />
<path d="M1450.7,40.59c0.37,0.29,1.16,1.59,1.24,2.17c0.08,0.58-0.05,14.13-0.12,17.73" style="fill:none;stroke:#999;stroke-width:3" />
<path d="M1487.15,9.18c0.46,0.4,0.65,1.77,0.61,2.49c-1.17,22.78-5.01,35.08-19.91,44.18" style="fill:none;stroke:#999;stroke-width:3" />
<path d="M1473.46,23.11c0.83,0.38,3.09,0.13,4.12,0c1.04-0.13,17.09-3.3,20.35-4.06c2.39-0.56,3.74,1.22,3.1,2.65c-0.93,2.1-3.19,12.61-3.99,17.82c-1.29,8.4-0.3,12.46,8.75,12.46c8.39,0,7.24-2.47,7.24-6.96" style="fill:none;stroke:#999;stroke-width:3" />
<path d="M1475.78,33.14c6.14,1.95,12.44,8.91,13.64,12.11" style="fill:none;stroke:#999;stroke-width:3" />
<path d="M1484.98,53c0.09,0.28,0.19,0.73-0.18,1.14c-2.2,2.4-14.8,7.65-32.05,10.87" style="fill:none;stroke:#999;stroke-width:3" />
<path d="M1447.88,72.36c0.94,0.32,2.66,0.4,3.6,0.32c11.77-0.89,24.68-2.79,42.77-4.13c1.56-0.12,4.1-0.13,4.88,0.03" style="fill:none;stroke:#999;stroke-width:3" />
<path d="M1435.4,81.82c1.66,0.41,4.69,0.5,6.35,0.41c12.5-0.68,39.75-2.98,62.24-3.65c2.76-0.08,4.42,0.19,5.8,0.4" style="fill:none;stroke:black;stroke-width:3" />
<circle cx="1435.4" cy="81.82" r="5" stroke-width="0" fill="#FF2A00" opacity="0.7" />
<path d="M1544.9,17.63c0.73,0.23,2.07,0.27,2.8,0.23c5.2-0.26,17.89-1.77,22.92-1.89c1.22-0.03,1.95,0.11,2.56,0.22" style="fill:none;stroke:#999;stroke-width:3" />
<path d="M1558.88,9.52c0.1,0.19,1.39,0.98,1.39,2.17c0,7.76-0.15,12.99-0.15,14.94" style="fill:none;stroke:#999;stroke-width:3" />
<path d="M1541.53,27.96c1.05,0.31,2.98,0.39,4.03,0.31c11.5-0.93,20.08-2.21,27.86-2.39c1.75-0.04,2.8,0.15,3.68,0.3" style="fill:none;stroke:#999;stroke-width:3" />
<path d="M1550.32,31.34c1.56,1.02,4.04,4.18,4.43,5.76" style="fill:none;stroke:#999;stroke-width:3" />
<path d="M1568.79,29.28c0.01,0.18,0.02,0.46-0.02,0.71c-0.26,1.5-1.76,4.51-4.19,7.4" style="fill:none;stroke:#999;stroke-width:3" />
<path d="M1542.8899999999999,39.87c0.61,0.23,2.69,0.23,3.3,0.2c8.65-0.37,15.77-1.23,26.03-1.69c1.01-0.05,3.12-0.14,3.62-0.03" style="fill:none;stroke:#999;stroke-width:3" />
<path d="M1541.3200000000002,49.46c1.03,0.27,2.92,0.34,3.95,0.27c8.66-0.66,20.21-2.31,29.07-2.73c1.71-0.08,2.75,0.13,3.6,0.26" style="fill:none;stroke:#999;stroke-width:3" />
<path d="M1559.7,40.59c0.37,0.29,1.16,1.59,1.24,2.17c0.08,0.58-0.05,14.13-0.12,17.73" style="fill:none;stroke:#999;stroke-width:3" />
<path d="M1596.15,9.18c0.46,0.4,0.65,1.77,0.61,2.49c-1.17,22.78-5.01,35.08-19.91,44.18" style="fill:none;stroke:#999;stroke-width:3" />
<path d="M1582.46,23.11c0.83,0.38,3.09,0.13,4.12,0c1.04-0.13,17.09-3.3,20.35-4.06c2.39-0.56,3.74,1.22,3.1,2.65c-0.93,2.1-3.19,12.61-3.99,17.82c-1.29,8.4-0.3,12.46,8.75,12.46c8.39,0,7.24-2.47,7.24-6.96" style="fill:none;stroke:#999;stroke-width:3" />
<path d="M1584.78,33.14c6.14,1.95,12.44,8.91,13.64,12.11" style="fill:none;stroke:#999;stroke-width:3" />
<path d="M1593.98,53c0.09,0.28,0.19,0.73-0.18,1.14c-2.2,2.4-14.8,7.65-32.05,10.87" style="fill:none;stroke:#999;stroke-width:3" />
<path d="M1556.88,72.36c0.94,0.32,2.66,0.4,3.6,0.32c11.77-0.89,24.68-2.79,42.77-4.13c1.56-0.12,4.1-0.13,4.88,0.03" style="fill:none;stroke:#999;stroke-width:3" />
<path d="M1544.4,81.82c1.66,0.41,4.69,0.5,6.35,0.41c12.5-0.68,39.75-2.98,62.24-3.65c2.76-0.08,4.42,0.19,5.8,0.4" style="fill:none;stroke:#999;stroke-width:3" />
<path d="M1580.26,62.72c5.99,5.28,7.99,21.78,4.16,31.89c-3.18,8.4-6.42,3.64-8.48,0.43" style="fill:none;stroke:black;stroke-width:3" />
<circle cx="1580.26" cy="62.72" r="5" stroke-width="0" fill="#FF2A00" opacity="0.7" />
</svg>