<!-- 0649a -->
<svg width="1635px" height="109px" viewBox="0 0 1635px 109px" xmlns="http://www.w3.org/2000/svg" xmlns:xlink="http://www.w3.org/1999/xlink" xml:space="preserve" version="1.1"  baseProfile="full">
<line x1="1" y1="1" x2="1634" y2="1" style="stroke:#ddd;stroke-width:2" />
<line x1="1" y1="1" x2="1" y2="108" style="stroke:#ddd;stroke-width:2" />
<line x1="1" y1="108" x2="1634" y2="108" style="stroke:#ddd;stroke-width:2" />
<line x1="1634" y1="1" x2="1634" y2="108" style="stroke:#ddd;stroke-width:2" />
<line x1="109" y1="1" x2="109" y2="108" style="stroke:#ddd;stroke-width:2" />
<line x1="218" y1="1" x2="218" y2="108" style="stroke:#ddd;stroke-width:2" />
<line x1="327" y1="1" x2="327" y2="108" style="stroke:#ddd;stroke-width:2" />
<line x1="436" y1="1" x2="436" y2="108" style="stroke:#ddd;stroke-width:2" />
<line x1="545" y1="1" x2="545" y2="108" style="stroke:#ddd;stroke-width:2" />
<line x1="654" y1="1" x2="654" y2="108" style="stroke:#ddd;stroke-width:2" />
<line x1="763" y1="1" x2="763" y2="108" style="stroke:#ddd;stroke-width:2" />
<line x1="872" y1="1" x2="872" y2="108" style="stroke:#ddd;stroke-width:2" />
<line x1="981" y1="1" x2="981" y2="108" style="stroke:#ddd;stroke-width:2" />
<line x1="1090" y1="1" x2="1090" y2="108" style="stroke:#ddd;stroke-width:2" />
<line x1="1199" y1="1" x2="1199" y2="108" style="stroke:#ddd;stroke-width:2" />
<line x1="1308" y1="1" x2="1308" y2="108" style="stroke:#ddd;stroke-width:2" />
<line x1="1417" y1="1" x2="1417" y2="108" style="stroke:#ddd;stroke-width:2" />
<line x1="1526" y1="1" x2="1526" y2="108" style="stroke:#ddd;stroke-width:2" />
<line x1="1" y1="54" x2="1634" y2="54" style="stroke:#ddd;stroke-width:2;stroke-dasharray:3 3" />
<line x1="55" y1="1" x2="55" y2="108" style="stroke:#ddd;stroke-width:2;stroke-dasharray:3 3" />
<line x1="164" y1="1" x2="164" y2="108" style="stroke:#ddd;stroke-width:2;stroke-dasharray:3 3" />
<line x1="273" y1="1" x2="273" y2="108" style="stroke:#ddd;stroke-width:2;stroke-dasharray:3 3" />
<line x1="382" y1="1" x2="382" y2="108" style="stroke:#ddd;stroke-width:2;stroke-dasharray:3 3" />
<line x1="491" y1="1" x2="491" y2="108" style="stroke:#ddd;stroke-width:2;stroke-dasharray:3 3" />
<line x1="600" y1="1" x2="600" y2="108" style="stroke:#ddd;stroke-width:2;stroke-dasharray:3 3" />
<line x1="709" y1="1" x2="709" y2="108" style="stroke:#ddd;stroke-width:2;stroke-dasharray:3 3" />
<line x1="818" y1="1" x2="818" y2="108" style="stroke:#ddd;stroke-width:2;stroke-dasharray:3 3" />
<line x1="927" y1="1" x2="927" y2="108" style="stroke:#ddd;stroke-width:2;stroke-dasharray:3 3" />
<line x1="1036" y1="1" x2="1036" y2="108" style="stroke:#ddd;stroke-width:2;stroke-dasharray:3 3" />
<line x1="1145" y1="1" x2="1145" y2="108" style="stroke:#ddd;stroke-width:2;stroke-dasharray:3 3" />
<line x1="1254" y1="1" x2="1254" y2="108" style="stroke:#ddd;stroke-width:2;stroke-dasharray:3 3" />
<line x1="1363" y1="1" x2="1363" y2="108" style="stroke:#ddd;stroke-width:2;stroke-dasharray:3 3" />
<line x1="1472" y1="1" x2="1472" y2="108" style="stroke:#ddd;stroke-width:2;stroke-dasharray:3 3" />
<line x1="1581" y1="1" x2="1581" y2="108" style="stroke:#ddd;stroke-width:2;stroke-dasharray:3 3" />
<path d="M11.5,37.92c2.08,0.25,1.27,0.55,3.5,0.25c5.5-0.75,11-2,20.17-3.17" style="fill:none;stroke:black;stroke-width:3" />
<circle cx="11.5" cy="37.92" r="5" stroke-width="0" fill="#FF2A00" opacity="0.7" />
<path d="M120.5,37.92c2.08,0.25,1.27,0.55,3.5,0.25c5.5-0.75,11-2,20.17-3.17" style="fill:none;stroke:#999;stroke-width:3" />
<path d="M134.27,14.5c0.48,0.92,1.67,2.49,1.76,5.52c0.4,14.55,0.24,62.94,0.24,67.9c0,14.25-6.32,3.53-7.77,2" style="fill:none;stroke:black;stroke-width:3" />
<circle cx="134.27" cy="14.5" r="5" stroke-width="0" fill="#FF2A00" opacity="0.7" />
<path d="M229.5,37.92c2.08,0.25,1.27,0.55,3.5,0.25c5.5-0.75,11-2,20.17-3.17" style="fill:none;stroke:#999;stroke-width:3" />
<path d="M243.27,14.5c0.48,0.92,1.67,2.49,1.76,5.52c0.4,14.55,0.24,62.94,0.24,67.9c0,14.25-6.32,3.53-7.77,2" style="fill:none;stroke:#999;stroke-width:3" />
<path d="M229.0,66.44c2.54,1.74,4.18,0.94,6.73-0.55c1.5-0.88,10.66-6.76,17.02-10.98" style="fill:none;stroke:black;stroke-width:3" />
<circle cx="229.0" cy="66.44" r="5" stroke-width="0" fill="#FF2A00" opacity="0.7" />
<path d="M338.5,37.92c2.08,0.25,1.27,0.55,3.5,0.25c5.5-0.75,11-2,20.17-3.17" style="fill:none;stroke:#999;stroke-width:3" />
<path d="M352.27,14.5c0.48,0.92,1.67,2.49,1.76,5.52c0.4,14.55,0.24,62.94,0.24,67.9c0,14.25-6.32,3.53-7.77,2" style="fill:none;stroke:#999;stroke-width:3" />
<path d="M338.0,66.44c2.54,1.74,4.18,0.94,6.73-0.55c1.5-0.88,10.66-6.76,17.02-10.98" style="fill:none;stroke:#999;stroke-width:3" />
<path d="M374.04,21.5c0.54,1.05-0.27,4.2-0.8,5.52c-2.98,7.59-7.79,16.18-11.07,20.12" style="fill:none;stroke:black;stroke-width:3" />
<circle cx="374.04" cy="21.5" r="5" stroke-width="0" fill="#FF2A00" opacity="0.7" />
<path d="M447.5,37.92c2.08,0.25,1.27,0.55,3.5,0.25c5.5-0.75,11-2,20.17-3.17" style="fill:none;stroke:#999;stroke-width:3" />
<path d="M461.27,14.5c0.48,0.92,1.67,2.49,1.76,5.52c0.4,14.55,0.24,62.94,0.24,67.9c0,14.25-6.32,3.53-7.77,2" style="fill:none;stroke:#999;stroke-width:3" />
<path d="M447.0,66.44c2.54,1.74,4.18,0.94,6.73-0.55c1.5-0.88,10.66-6.76,17.02-10.98" style="fill:none;stroke:#999;stroke-width:3" />
<path d="M483.04,21.5c0.54,1.05-0.27,4.2-0.8,5.52c-2.98,7.59-7.79,16.18-11.07,20.12" style="fill:none;stroke:#999;stroke-width:3" />
<path d="M484.99,25.95c1.62-0.26,7.19-2.37,9.53-2.89c2.34-0.53,3.14,0.85,2.52,3.42C494.25,38 488.0,54.5 475.19,65.53" style="fill:none;stroke:black;stroke-width:3" />
<circle cx="484.99" cy="25.95" r="5" stroke-width="0" fill="#FF2A00" opacity="0.7" />
<path d="M556.5,37.92c2.08,0.25,1.27,0.55,3.5,0.25c5.5-0.75,11-2,20.17-3.17" style="fill:none;stroke:#999;stroke-width:3" />
<path d="M570.27,14.5c0.48,0.92,1.67,2.49,1.76,5.52c0.4,14.55,0.24,62.94,0.24,67.9c0,14.25-6.32,3.53-7.77,2" style="fill:none;stroke:#999;stroke-width:3" />
<path d="M556.0,66.44c2.54,1.74,4.18,0.94,6.73-0.55c1.5-0.88,10.66-6.76,17.02-10.98" style="fill:none;stroke:#999;stroke-width:3" />
<path d="M592.04,21.5c0.54,1.05-0.27,4.2-0.8,5.52c-2.98,7.59-7.79,16.18-11.07,20.12" style="fill:none;stroke:#999;stroke-width:3" />
<path d="M593.99,25.95c1.62-0.26,7.19-2.37,9.53-2.89c2.34-0.53,3.14,0.85,2.52,3.42C603.25,38 597.0,54.5 584.19,65.53" style="fill:none;stroke:#999;stroke-width:3" />
<path d="M591.08,33.88c1.16,0.31,5.81,2.18,8.14,4.05" style="fill:none;stroke:black;stroke-width:3" />
<circle cx="591.08" cy="33.88" r="5" stroke-width="0" fill="#FF2A00" opacity="0.7" />
<path d="M665.5,37.92c2.08,0.25,1.27,0.55,3.5,0.25c5.5-0.75,11-2,20.17-3.17" style="fill:none;stroke:#999;stroke-width:3" />
<path d="M679.27,14.5c0.48,0.92,1.67,2.49,1.76,5.52c0.4,14.55,0.24,62.94,0.24,67.9c0,14.25-6.32,3.53-7.77,2" style="fill:none;stroke:#999;stroke-width:3" />
<path d="M665.0,66.44c2.54,1.74,4.18,0.94,6.73-0.55c1.5-0.88,10.66-6.76,17.02-10.98" style="fill:none;stroke:#999;stroke-width:3" />
<path d="M701.04,21.5c0.54,1.05-0.27,4.2-0.8,5.52c-2.98,7.59-7.79,16.18-11.07,20.12" style="fill:none;stroke:#999;stroke-width:3" />
<path d="M702.99,25.95c1.62-0.26,7.19-2.37,9.53-2.89c2.34-0.53,3.14,0.85,2.52,3.42C712.25,38 706.0,54.5 693.19,65.53" style="fill:none;stroke:#999;stroke-width:3" />
<path d="M700.08,33.88c1.16,0.31,5.81,2.18,8.14,4.05" style="fill:none;stroke:#999;stroke-width:3" />
<path d="M696.09,43.52c1.44,0.81,5.75,4.26,6.95,6.08" style="fill:none;stroke:black;stroke-width:3" />
<circle cx="696.09" cy="43.52" r="5" stroke-width="0" fill="#FF2A00" opacity="0.7" />
<path d="M774.5,37.92c2.08,0.25,1.27,0.55,3.5,0.25c5.5-0.75,11-2,20.17-3.17" style="fill:none;stroke:#999;stroke-width:3" />
<path d="M788.27,14.5c0.48,0.92,1.67,2.49,1.76,5.52c0.4,14.55,0.24,62.94,0.24,67.9c0,14.25-6.32,3.53-7.77,2" style="fill:none;stroke:#999;stroke-width:3" />
<path d="M774.0,66.44c2.54,1.74,4.18,0.94,6.73-0.55c1.5-0.88,10.66-6.76,17.02-10.98" style="fill:none;stroke:#999;stroke-width:3" />
<path d="M810.04,21.5c0.54,1.05-0.27,4.2-0.8,5.52c-2.98,7.59-7.79,16.18-11.07,20.12" style="fill:none;stroke:#999;stroke-width:3" />
<path d="M811.99,25.95c1.62-0.26,7.19-2.37,9.53-2.89c2.34-0.53,3.14,0.85,2.52,3.42C821.25,38 815.0,54.5 802.19,65.53" style="fill:none;stroke:#999;stroke-width:3" />
<path d="M809.08,33.88c1.16,0.31,5.81,2.18,8.14,4.05" style="fill:none;stroke:#999;stroke-width:3" />
<path d="M805.09,43.52c1.44,0.81,5.75,4.26,6.95,6.08" style="fill:none;stroke:#999;stroke-width:3" />
<path d="M826.58,37.36c0.53,0.18,2.34,0.41,3.37,0.3c5.36-0.56,14.88-2.54,18.47-2.77c0.74-0.05,1.78-0.21,3.43,0.1" style="fill:none;stroke:black;stroke-width:3" />
<circle cx="826.58" cy="37.36" r="5" stroke-width="0" fill="#FF2A00" opacity="0.7" />
<path d="M883.5,37.92c2.08,0.25,1.27,0.55,3.5,0.25c5.5-0.75,11-2,20.17-3.17" style="fill:none;stroke:#999;stroke-width:3" />
<path d="M897.27,14.5c0.48,0.92,1.67,2.49,1.76,5.52c0.4,14.55,0.24,62.94,0.24,67.9c0,14.25-6.32,3.53-7.77,2" style="fill:none;stroke:#999;stroke-width:3" />
<path d="M883.0,66.44c2.54,1.74,4.18,0.94,6.73-0.55c1.5-0.88,10.66-6.76,17.02-10.98" style="fill:none;stroke:#999;stroke-width:3" />
<path d="M919.04,21.5c0.54,1.05-0.27,4.2-0.8,5.52c-2.98,7.59-7.79,16.18-11.07,20.12" style="fill:none;stroke:#999;stroke-width:3" />
<path d="M920.99,25.95c1.62-0.26,7.19-2.37,9.53-2.89c2.34-0.53,3.14,0.85,2.52,3.42C930.25,38 924.0,54.5 911.19,65.53" style="fill:none;stroke:#999;stroke-width:3" />
<path d="M918.08,33.88c1.16,0.31,5.81,2.18,8.14,4.05" style="fill:none;stroke:#999;stroke-width:3" />
<path d="M914.09,43.52c1.44,0.81,5.75,4.26,6.95,6.08" style="fill:none;stroke:#999;stroke-width:3" />
<path d="M935.58,37.36c0.53,0.18,2.34,0.41,3.37,0.3c5.36-0.56,14.88-2.54,18.47-2.77c0.74-0.05,1.78-0.21,3.43,0.1" style="fill:none;stroke:#999;stroke-width:3" />
<path d="M946.19,17.8c0.62,0.73,1,1.45,1.08,2.89c1.09,18.87-5.53,39.5-20.21,45.52" style="fill:none;stroke:black;stroke-width:3" />
<circle cx="946.19" cy="17.8" r="5" stroke-width="0" fill="#FF2A00" opacity="0.7" />
<path d="M992.5,37.92c2.08,0.25,1.27,0.55,3.5,0.25c5.5-0.75,11-2,20.17-3.17" style="fill:none;stroke:#999;stroke-width:3" />
<path d="M1006.27,14.5c0.48,0.92,1.67,2.49,1.76,5.52c0.4,14.55,0.24,62.94,0.24,67.9c0,14.25-6.32,3.53-7.77,2" style="fill:none;stroke:#999;stroke-width:3" />
<path d="M992.0,66.44c2.54,1.74,4.18,0.94,6.73-0.55c1.5-0.88,10.66-6.76,17.02-10.98" style="fill:none;stroke:#999;stroke-width:3" />
<path d="M1028.04,21.5c0.54,1.05-0.27,4.2-0.8,5.52c-2.98,7.59-7.79,16.18-11.07,20.12" style="fill:none;stroke:#999;stroke-width:3" />
<path d="M1029.99,25.95c1.62-0.26,7.19-2.37,9.53-2.89c2.34-0.53,3.14,0.85,2.52,3.42C1039.25,38 1033.0,54.5 1020.19,65.53" style="fill:none;stroke:#999;stroke-width:3" />
<path d="M1027.08,33.88c1.16,0.31,5.81,2.18,8.14,4.05" style="fill:none;stroke:#999;stroke-width:3" />
<path d="M1023.09,43.52c1.44,0.81,5.75,4.26,6.95,6.08" style="fill:none;stroke:#999;stroke-width:3" />
<path d="M1044.58,37.36c0.53,0.18,2.34,0.41,3.37,0.3c5.36-0.56,14.88-2.54,18.47-2.77c0.74-0.05,1.78-0.21,3.43,0.1" style="fill:none;stroke:#999;stroke-width:3" />
<path d="M1055.19,17.8c0.62,0.73,1,1.45,1.08,2.89c1.09,18.87-5.53,39.5-20.21,45.52" style="fill:none;stroke:#999;stroke-width:3" />
<path d="M1055.37,36.75c4.38,7.83,12.47,20.03,17.77,25.99c1.38,1.56,1.95,1.69,2.61,1.82" style="fill:none;stroke:black;stroke-width:3" />
<circle cx="1055.37" cy="36.75" r="5" stroke-width="0" fill="#FF2A00" opacity="0.7" />
<path d="M1101.5,37.92c2.08,0.25,1.27,0.55,3.5,0.25c5.5-0.75,11-2,20.17-3.17" style="fill:none;stroke:#999;stroke-width:3" />
<path d="M1115.27,14.5c0.48,0.92,1.67,2.49,1.76,5.52c0.4,14.55,0.24,62.94,0.24,67.9c0,14.25-6.32,3.53-7.77,2" style="fill:none;stroke:#999;stroke-width:3" />
<path d="M1101.0,66.44c2.54,1.74,4.18,0.94,6.73-0.55c1.5-0.88,10.66-6.76,17.02-10.98" style="fill:none;stroke:#999;stroke-width:3" />
<path d="M1137.04,21.5c0.54,1.05-0.27,4.2-0.8,5.52c-2.98,7.59-7.79,16.18-11.07,20.12" style="fill:none;stroke:#999;stroke-width:3" />
<path d="M1138.99,25.95c1.62-0.26,7.19-2.37,9.53-2.89c2.34-0.53,3.14,0.85,2.52,3.42C1148.25,38 1142.0,54.5 1129.19,65.53" style="fill:none;stroke:#999;stroke-width:3" />
<path d="M1136.08,33.88c1.16,0.31,5.81,2.18,8.14,4.05" style="fill:none;stroke:#999;stroke-width:3" />
<path d="M1132.0900000000001,43.52c1.44,0.81,5.75,4.26,6.95,6.08" style="fill:none;stroke:#999;stroke-width:3" />
<path d="M1153.58,37.36c0.53,0.18,2.34,0.41,3.37,0.3c5.36-0.56,14.88-2.54,18.47-2.77c0.74-0.05,1.78-0.21,3.43,0.1" style="fill:none;stroke:#999;stroke-width:3" />
<path d="M1164.19,17.8c0.62,0.73,1,1.45,1.08,2.89c1.09,18.87-5.53,39.5-20.21,45.52" style="fill:none;stroke:#999;stroke-width:3" />
<path d="M1164.37,36.75c4.38,7.83,12.47,20.03,17.77,25.99c1.38,1.56,1.95,1.69,2.61,1.82" style="fill:none;stroke:#999;stroke-width:3" />
<path d="M1173.68,19.94c4.91,3.25,6.26,5.74,7.78,8.79" style="fill:none;stroke:black;stroke-width:3" />
<circle cx="1173.68" cy="19.94" r="5" stroke-width="0" fill="#FF2A00" opacity="0.7" />
<path d="M1210.5,37.92c2.08,0.25,1.27,0.55,3.5,0.25c5.5-0.75,11-2,20.17-3.17" style="fill:none;stroke:#999;stroke-width:3" />
<path d="M1224.27,14.5c0.48,0.92,1.67,2.49,1.76,5.52c0.4,14.55,0.24,62.94,0.24,67.9c0,14.25-6.32,3.53-7.77,2" style="fill:none;stroke:#999;stroke-width:3" />
<path d="M1210.0,66.44c2.54,1.74,4.18,0.94,6.73-0.55c1.5-0.88,10.66-6.76,17.02-10.98" style="fill:none;stroke:#999;stroke-width:3" />
<path d="M1246.04,21.5c0.54,1.05-0.27,4.2-0.8,5.52c-2.98,7.59-7.79,16.18-11.07,20.12" style="fill:none;stroke:#999;stroke-width:3" />
<path d="M1247.99,25.95c1.62-0.26,7.19-2.37,9.53-2.89c2.34-0.53,3.14,0.85,2.52,3.42C1257.25,38 1251.0,54.5 1238.19,65.53" style="fill:none;stroke:#999;stroke-width:3" />
<path d="M1245.08,33.88c1.16,0.31,5.81,2.18,8.14,4.05" style="fill:none;stroke:#999;stroke-width:3" />
<path d="M1241.0900000000001,43.52c1.44,0.81,5.75,4.26,6.95,6.08" style="fill:none;stroke:#999;stroke-width:3" />
<path d="M1262.58,37.36c0.53,0.18,2.34,0.41,3.37,0.3c5.36-0.56,14.88-2.54,18.47-2.77c0.74-0.05,1.78-0.21,3.43,0.1" style="fill:none;stroke:#999;stroke-width:3" />
<path d="M1273.19,17.8c0.62,0.73,1,1.45,1.08,2.89c1.09,18.87-5.53,39.5-20.21,45.52" style="fill:none;stroke:#999;stroke-width:3" />
<path d="M1273.37,36.75c4.38,7.83,12.47,20.03,17.77,25.99c1.38,1.56,1.95,1.69,2.61,1.82" style="fill:none;stroke:#999;stroke-width:3" />
<path d="M1282.68,19.94c4.91,3.25,6.26,5.74,7.78,8.79" style="fill:none;stroke:#999;stroke-width:3" />
<path d="M1241.62,77.96c0,4.81-5.45,11.92-6.87,13.29" style="fill:none;stroke:black;stroke-width:3" />
<circle cx="1241.62" cy="77.96" r="5" stroke-width="0" fill="#FF2A00" opacity="0.7" />
<path d="M1319.5,37.92c2.08,0.25,1.27,0.55,3.5,0.25c5.5-0.75,11-2,20.17-3.17" style="fill:none;stroke:#999;stroke-width:3" />
<path d="M1333.27,14.5c0.48,0.92,1.67,2.49,1.76,5.52c0.4,14.55,0.24,62.94,0.24,67.9c0,14.25-6.32,3.53-7.77,2" style="fill:none;stroke:#999;stroke-width:3" />
<path d="M1319.0,66.44c2.54,1.74,4.18,0.94,6.73-0.55c1.5-0.88,10.66-6.76,17.02-10.98" style="fill:none;stroke:#999;stroke-width:3" />
<path d="M1355.04,21.5c0.54,1.05-0.27,4.2-0.8,5.52c-2.98,7.59-7.79,16.18-11.07,20.12" style="fill:none;stroke:#999;stroke-width:3" />
<path d="M1356.99,25.95c1.62-0.26,7.19-2.37,9.53-2.89c2.34-0.53,3.14,0.85,2.52,3.42C1366.25,38 1360.0,54.5 1347.19,65.53" style="fill:none;stroke:#999;stroke-width:3" />
<path d="M1354.08,33.88c1.16,0.31,5.81,2.18,8.14,4.05" style="fill:none;stroke:#999;stroke-width:3" />
<path d="M1350.0900000000001,43.52c1.44,0.81,5.75,4.26,6.95,6.08" style="fill:none;stroke:#999;stroke-width:3" />
<path d="M1371.58,37.36c0.53,0.18,2.34,0.41,3.37,0.3c5.36-0.56,14.88-2.54,18.47-2.77c0.74-0.05,1.78-0.21,3.43,0.1" style="fill:none;stroke:#999;stroke-width:3" />
<path d="M1382.19,17.8c0.62,0.73,1,1.45,1.08,2.89c1.09,18.87-5.53,39.5-20.21,45.52" style="fill:none;stroke:#999;stroke-width:3" />
<path d="M1382.37,36.75c4.38,7.83,12.47,20.03,17.77,25.99c1.38,1.56,1.95,1.69,2.61,1.82" style="fill:none;stroke:#999;stroke-width:3" />
<path d="M1391.68,19.94c4.91,3.25,6.26,5.74,7.78,8.79" style="fill:none;stroke:#999;stroke-width:3" />
<path d="M1350.62,77.96c0,4.81-5.45,11.92-6.87,13.29" style="fill:none;stroke:#999;stroke-width:3" />
<path d="M1362.7,76.58c1.93,2.75,3.01,10.15,3.02,13.83" style="fill:none;stroke:black;stroke-width:3" />
<circle cx="1362.7" cy="76.58" r="5" stroke-width="0" fill="#FF2A00" opacity="0.7" />
<path d="M1428.5,37.92c2.08,0.25,1.27,0.55,3.5,0.25c5.5-0.75,11-2,20.17-3.17" style="fill:none;stroke:#999;stroke-width:3" />
<path d="M1442.27,14.5c0.48,0.92,1.67,2.49,1.76,5.52c0.4,14.55,0.24,62.94,0.24,67.9c0,14.25-6.32,3.53-7.77,2" style="fill:none;stroke:#999;stroke-width:3" />
<path d="M1428.0,66.44c2.54,1.74,4.18,0.94,6.73-0.55c1.5-0.88,10.66-6.76,17.02-10.98" style="fill:none;stroke:#999;stroke-width:3" />
<path d="M1464.04,21.5c0.54,1.05-0.27,4.2-0.8,5.52c-2.98,7.59-7.79,16.18-11.07,20.12" style="fill:none;stroke:#999;stroke-width:3" />
<path d="M1465.99,25.95c1.62-0.26,7.19-2.37,9.53-2.89c2.34-0.53,3.14,0.85,2.52,3.42C1475.25,38 1469.0,54.5 1456.19,65.53" style="fill:none;stroke:#999;stroke-width:3" />
<path d="M1463.08,33.88c1.16,0.31,5.81,2.18,8.14,4.05" style="fill:none;stroke:#999;stroke-width:3" />
<path d="M1459.0900000000001,43.52c1.44,0.81,5.75,4.26,6.95,6.08" style="fill:none;stroke:#999;stroke-width:3" />
<path d="M1480.58,37.36c0.53,0.18,2.34,0.41,3.37,0.3c5.36-0.56,14.88-2.54,18.47-2.77c0.74-0.05,1.78-0.21,3.43,0.1" style="fill:none;stroke:#999;stroke-width:3" />
<path d="M1491.19,17.8c0.62,0.73,1,1.45,1.08,2.89c1.09,18.87-5.53,39.5-20.21,45.52" style="fill:none;stroke:#999;stroke-width:3" />
<path d="M1491.37,36.75c4.38,7.83,12.47,20.03,17.77,25.99c1.38,1.56,1.95,1.69,2.61,1.82" style="fill:none;stroke:#999;stroke-width:3" />
<path d="M1500.68,19.94c4.91,3.25,6.26,5.74,7.78,8.79" style="fill:none;stroke:#999;stroke-width:3" />
<path d="M1459.62,77.96c0,4.81-5.45,11.92-6.87,13.29" style="fill:none;stroke:#999;stroke-width:3" />
<path d="M1471.7,76.58c1.93,2.75,3.01,10.15,3.02,13.83" style="fill:none;stroke:#999;stroke-width:3" />
<path d="M1486.7,75.61c2.33,2.3,5.34,9.42,5.35,12.95" style="fill:none;stroke:black;stroke-width:3" />
<circle cx="1486.7" cy="75.61" r="5" stroke-width="0" fill="#FF2A00" opacity="0.7" />
<path d="M1537.5,37.92c2.08,0.25,1.27,0.55,3.5,0.25c5.5-0.75,11-2,20.17-3.17" style="fill:none;stroke:#999;stroke-width:3" />
<path d="M1551.27,14.5c0.48,0.92,1.67,2.49,1.76,5.52c0.4,14.55,0.24,62.94,0.24,67.9c0,14.25-6.32,3.53-7.77,2" style="fill:none;stroke:#999;stroke-width:3" />
<path d="M1537.0,66.44c2.54,1.74,4.18,0.94,6.73-0.55c1.5-0.88,10.66-6.76,17.02-10.98" style="fill:none;stroke:#999;stroke-width:3" />
<path d="M1573.04,21.5c0.54,1.05-0.27,4.2-0.8,5.52c-2.98,7.59-7.79,16.18-11.07,20.12" style="fill:none;stroke:#999;stroke-width:3" />
<path d="M1574.99,25.95c1.62-0.26,7.19-2.37,9.53-2.89c2.34-0.53,3.14,0.85,2.52,3.42C1584.25,38 1578.0,54.5 1565.19,65.53" style="fill:none;stroke:#999;stroke-width:3" />
<path d="M1572.08,33.88c1.16,0.31,5.81,2.18,8.14,4.05" style="fill:none;stroke:#999;stroke-width:3" />
<path d="M1568.0900000000001,43.52c1.44,0.81,5.75,4.26,6.95,6.08" style="fill:none;stroke:#999;stroke-width:3" />
<path d="M1589.58,37.36c0.53,0.18,2.34,0.41,3.37,0.3c5.36-0.56,14.88-2.54,18.47-2.77c0.74-0.05,1.78-0.21,3.43,0.1" style="fill:none;stroke:#999;stroke-width:3" />
<path d="M1600.19,17.8c0.62,0.73,1,1.45,1.08,2.89c1.09,18.87-5.53,39.5-20.21,45.52" style="fill:none;stroke:#999;stroke-width:3" />
<path d="M1600.37,36.75c4.38,7.83,12.47,20.03,17.77,25.99c1.38,1.56,1.95,1.69,2.61,1.82" style="fill:none;stroke:#999;stroke-width:3" />
<path d="M1609.68,19.94c4.91,3.25,6.26,5.74,7.78,8.79" style="fill:none;stroke:#999;stroke-width:3" />
<path d="M1568.62,77.96c0,4.81-5.45,11.92-6.87,13.29" style="fill:none;stroke:#999;stroke-width:3" />
<path d="M1580.7,76.58c1.93,2.75,3.01,10.15,3.02,13.83" style="fill:none;stroke:#999;stroke-width:3" />
<path d="M1595.7,75.61c2.33,2.3,5.34,9.42,5.35,12.95" style="fill:none;stroke:#999;stroke-width:3" />
<path d="M1612.23,75.14c3.51,2.62,8.38,10.71,8.66,14.73" style="fill:none;stroke:black;stroke-width:3" />
<circle cx="1612.23" cy="75.14" r="5" stroke-width="0" fill="#FF2A00" opacity="0.7" />
</svg>