<!-- 064c7 -->
<svg width="1744px" height="109px" viewBox="0 0 1744px 109px" xmlns="http://www.w3.org/2000/svg" xmlns:xlink="http://www.w3.org/1999/xlink" xml:space="preserve" version="1.1"  baseProfile="full">
<line x1="1" y1="1" x2="1743" y2="1" style="stroke:#ddd;stroke-width:2" />
<line x1="1" y1="1" x2="1" y2="108" style="stroke:#ddd;stroke-width:2" />
<line x1="1" y1="108" x2="1743" y2="108" style="stroke:#ddd;stroke-width:2" />
<line x1="1743" y1="1" x2="1743" y2="108" style="stroke:#ddd;stroke-width:2" />
<line x1="109" y1="1" x2="109" y2="108" style="stroke:#ddd;stroke-width:2" />
<line x1="218" y1="1" x2="218" y2="108" style="stroke:#ddd;stroke-width:2" />
<line x1="327" y1="1" x2="327" y2="108" style="stroke:#ddd;stroke-width:2" />
<line x1="436" y1="1" x2="436" y2="108" style="stroke:#ddd;stroke-width:2" />
<line x1="545" y1="1" x2="545" y2="108" style="stroke:#ddd;stroke-width:2" />
<line x1="654" y1="1" x2="654" y2="108" style="stroke:#ddd;stroke-width:2" />
<line x1="763" y1="1" x2="763" y2="108" style="stroke:#ddd;stroke-width:2" />
<line x1="872" y1="1" x2="872" y2="108" style="stroke:#ddd;stroke-width:2" />
<line x1="981" y1="1" x2="981" y2="108" style="stroke:#ddd;stroke-width:2" />
<line x1="1090" y1="1" x2="1090" y2="108" style="stroke:#ddd;stroke-width:2" />
<line x1="1199" y1="1" x2="1199" y2="108" style="stroke:#ddd;stroke-width:2" />
<line x1="1308" y1="1" x2="1308" y2="108" style="stroke:#ddd;stroke-width:2" />
<line x1="1417" y1="1" x2="1417" y2="108" style="stroke:#ddd;stroke-width:2" />
<line x1="1526" y1="1" x2="1526" y2="108" style="stroke:#ddd;stroke-width:2" />
<line x1="1635" y1="1" x2="1635" y2="108" style="stroke:#ddd;stroke-width:2" />
<line x1="1" y1="54" x2="1743" y2="54" style="stroke:#ddd;stroke-width:2;stroke-dasharray:3 3" />
<line x1="55" y1="1" x2="55" y2="108" style="stroke:#ddd;stroke-width:2;stroke-dasharray:3 3" />
<line x1="164" y1="1" x2="164" y2="108" style="stroke:#ddd;stroke-width:2;stroke-dasharray:3 3" />
<line x1="273" y1="1" x2="273" y2="108" style="stroke:#ddd;stroke-width:2;stroke-dasharray:3 3" />
<line x1="382" y1="1" x2="382" y2="108" style="stroke:#ddd;stroke-width:2;stroke-dasharray:3 3" />
<line x1="491" y1="1" x2="491" y2="108" style="stroke:#ddd;stroke-width:2;stroke-dasharray:3 3" />
<line x1="600" y1="1" x2="600" y2="108" style="stroke:#ddd;stroke-width:2;stroke-dasharray:3 3" />
<line x1="709" y1="1" x2="709" y2="108" style="stroke:#ddd;stroke-width:2;stroke-dasharray:3 3" />
<line x1="818" y1="1" x2="818" y2="108" style="stroke:#ddd;stroke-width:2;stroke-dasharray:3 3" />
<line x1="927" y1="1" x2="927" y2="108" style="stroke:#ddd;stroke-width:2;stroke-dasharray:3 3" />
<line x1="1036" y1="1" x2="1036" y2="108" style="stroke:#ddd;stroke-width:2;stroke-dasharray:3 3" />
<line x1="1145" y1="1" x2="1145" y2="108" style="stroke:#ddd;stroke-width:2;stroke-dasharray:3 3" />
<line x1="1254" y1="1" x2="1254" y2="108" style="stroke:#ddd;stroke-width:2;stroke-dasharray:3 3" />
<line x1="1363" y1="1" x2="1363" y2="108" style="stroke:#ddd;stroke-width:2;stroke-dasharray:3 3" />
<line x1="1472" y1="1" x2="1472" y2="108" style="stroke:#ddd;stroke-width:2;stroke-dasharray:3 3" />
<line x1="1581" y1="1" x2="1581" y2="108" style="stroke:#ddd;stroke-width:2;stroke-dasharray:3 3" />
<line x1="1690" y1="1" x2="1690" y2="108" style="stroke:#ddd;stroke-width:2;stroke-dasharray:3 3" />
<path d="M11.5,35.92c2.08,0.3,1.25,0.3,3.5,0.3c4.26,0,17.5-2.97,26.67-4.35" style="fill:none;stroke:black;stroke-width:3" />
<circle cx="11.5" cy="35.92" r="5" stroke-width="0" fill="#FF2A00" opacity="0.7" />
<path d="M120.5,35.92c2.08,0.3,1.25,0.3,3.5,0.3c4.26,0,17.5-2.97,26.67-4.35" style="fill:none;stroke:#999;stroke-width:3" />
<path d="M136.89,14.83c0.51,0.97,1.77,2.63,1.85,5.83c0.43,15.38-0.27,63.55-0.27,68.79c0,10.8-6.56,2.64-8.14,1.32" style="fill:none;stroke:black;stroke-width:3" />
<circle cx="136.89" cy="14.83" r="5" stroke-width="0" fill="#FF2A00" opacity="0.7" />
<path d="M229.5,35.92c2.08,0.3,1.25,0.3,3.5,0.3c4.26,0,17.5-2.97,26.67-4.35" style="fill:none;stroke:#999;stroke-width:3" />
<path d="M245.89,14.83c0.51,0.97,1.77,2.63,1.85,5.83c0.43,15.38-0.27,63.55-0.27,68.79c0,10.8-6.56,2.64-8.14,1.32" style="fill:none;stroke:#999;stroke-width:3" />
<path d="M231.5,65.87c1.9,1.56,3.13,0.85,5.03-0.49c1.12-0.79,14.15-10.83,18.91-14.63" style="fill:none;stroke:black;stroke-width:3" />
<circle cx="231.5" cy="65.87" r="5" stroke-width="0" fill="#FF2A00" opacity="0.7" />
<path d="M338.5,35.92c2.08,0.3,1.25,0.3,3.5,0.3c4.26,0,17.5-2.97,26.67-4.35" style="fill:none;stroke:#999;stroke-width:3" />
<path d="M354.89,14.83c0.51,0.97,1.77,2.63,1.85,5.83c0.43,15.38-0.27,63.55-0.27,68.79c0,10.8-6.56,2.64-8.14,1.32" style="fill:none;stroke:#999;stroke-width:3" />
<path d="M340.5,65.87c1.9,1.56,3.13,0.85,5.03-0.49c1.12-0.79,14.15-10.83,18.91-14.63" style="fill:none;stroke:#999;stroke-width:3" />
<path d="M371.5,14.48c0.23,0.28,1.47,1.9,1.58,2.25c0.81,2.77,2.28,9.04,2.84,14.02" style="fill:none;stroke:black;stroke-width:3" />
<circle cx="371.5" cy="14.48" r="5" stroke-width="0" fill="#FF2A00" opacity="0.7" />
<path d="M447.5,35.92c2.08,0.3,1.25,0.3,3.5,0.3c4.26,0,17.5-2.97,26.67-4.35" style="fill:none;stroke:#999;stroke-width:3" />
<path d="M463.89,14.83c0.51,0.97,1.77,2.63,1.85,5.83c0.43,15.38-0.27,63.55-0.27,68.79c0,10.8-6.56,2.64-8.14,1.32" style="fill:none;stroke:#999;stroke-width:3" />
<path d="M449.5,65.87c1.9,1.56,3.13,0.85,5.03-0.49c1.12-0.79,14.15-10.83,18.91-14.63" style="fill:none;stroke:#999;stroke-width:3" />
<path d="M480.5,14.48c0.23,0.28,1.47,1.9,1.58,2.25c0.81,2.77,2.28,9.04,2.84,14.02" style="fill:none;stroke:#999;stroke-width:3" />
<path d="M481.96,16.36c9.04-1.09,40.81-3.51,43.55-3.87c1-0.13,2.36,0.94,2.09,2.5c-0.56,3.25-1.94,8.38-3.43,13.02" style="fill:none;stroke:black;stroke-width:3" />
<circle cx="481.96" cy="16.36" r="5" stroke-width="0" fill="#FF2A00" opacity="0.7" />
<path d="M556.5,35.92c2.08,0.3,1.25,0.3,3.5,0.3c4.26,0,17.5-2.97,26.67-4.35" style="fill:none;stroke:#999;stroke-width:3" />
<path d="M572.89,14.83c0.51,0.97,1.77,2.63,1.85,5.83c0.43,15.38-0.27,63.55-0.27,68.79c0,10.8-6.56,2.64-8.14,1.32" style="fill:none;stroke:#999;stroke-width:3" />
<path d="M558.5,65.87c1.9,1.56,3.13,0.85,5.03-0.49c1.12-0.79,14.15-10.83,18.91-14.63" style="fill:none;stroke:#999;stroke-width:3" />
<path d="M589.5,14.48c0.23,0.28,1.47,1.9,1.58,2.25c0.81,2.77,2.28,9.04,2.84,14.02" style="fill:none;stroke:#999;stroke-width:3" />
<path d="M590.96,16.36c9.04-1.09,40.81-3.51,43.55-3.87c1-0.13,2.36,0.94,2.09,2.5c-0.56,3.25-1.94,8.38-3.43,13.02" style="fill:none;stroke:#999;stroke-width:3" />
<path d="M605.48,15.73c0.16,1.85,1.26,9.93,1.42,12.01" style="fill:none;stroke:black;stroke-width:3" />
<circle cx="605.48" cy="15.73" r="5" stroke-width="0" fill="#FF2A00" opacity="0.7" />
<path d="M665.5,35.92c2.08,0.3,1.25,0.3,3.5,0.3c4.26,0,17.5-2.97,26.67-4.35" style="fill:none;stroke:#999;stroke-width:3" />
<path d="M681.89,14.83c0.51,0.97,1.77,2.63,1.85,5.83c0.43,15.38-0.27,63.55-0.27,68.79c0,10.8-6.56,2.64-8.14,1.32" style="fill:none;stroke:#999;stroke-width:3" />
<path d="M667.5,65.87c1.9,1.56,3.13,0.85,5.03-0.49c1.12-0.79,14.15-10.83,18.91-14.63" style="fill:none;stroke:#999;stroke-width:3" />
<path d="M698.5,14.48c0.23,0.28,1.47,1.9,1.58,2.25c0.81,2.77,2.28,9.04,2.84,14.02" style="fill:none;stroke:#999;stroke-width:3" />
<path d="M699.96,16.36c9.04-1.09,40.81-3.51,43.55-3.87c1-0.13,2.36,0.94,2.09,2.5c-0.56,3.25-1.94,8.38-3.43,13.02" style="fill:none;stroke:#999;stroke-width:3" />
<path d="M714.48,15.73c0.16,1.85,1.26,9.93,1.42,12.01" style="fill:none;stroke:#999;stroke-width:3" />
<path d="M728.78,14.58c-0.16,3-0.44,9.93-0.76,11.78" style="fill:none;stroke:black;stroke-width:3" />
<circle cx="728.78" cy="14.58" r="5" stroke-width="0" fill="#FF2A00" opacity="0.7" />
<path d="M774.5,35.92c2.08,0.3,1.25,0.3,3.5,0.3c4.26,0,17.5-2.97,26.67-4.35" style="fill:none;stroke:#999;stroke-width:3" />
<path d="M790.89,14.83c0.51,0.97,1.77,2.63,1.85,5.83c0.43,15.38-0.27,63.55-0.27,68.79c0,10.8-6.56,2.64-8.14,1.32" style="fill:none;stroke:#999;stroke-width:3" />
<path d="M776.5,65.87c1.9,1.56,3.13,0.85,5.03-0.49c1.12-0.79,14.15-10.83,18.91-14.63" style="fill:none;stroke:#999;stroke-width:3" />
<path d="M807.5,14.48c0.23,0.28,1.47,1.9,1.58,2.25c0.81,2.77,2.28,9.04,2.84,14.02" style="fill:none;stroke:#999;stroke-width:3" />
<path d="M808.96,16.36c9.04-1.09,40.81-3.51,43.55-3.87c1-0.13,2.36,0.94,2.09,2.5c-0.56,3.25-1.94,8.38-3.43,13.02" style="fill:none;stroke:#999;stroke-width:3" />
<path d="M823.48,15.73c0.16,1.85,1.26,9.93,1.42,12.01" style="fill:none;stroke:#999;stroke-width:3" />
<path d="M837.78,14.58c-0.16,3-0.44,9.93-0.76,11.78" style="fill:none;stroke:#999;stroke-width:3" />
<path d="M812.15,28.78c5.6-0.34,29.6-2.42,39.39-2.68" style="fill:none;stroke:black;stroke-width:3" />
<circle cx="812.15" cy="28.78" r="5" stroke-width="0" fill="#FF2A00" opacity="0.7" />
<path d="M883.5,35.92c2.08,0.3,1.25,0.3,3.5,0.3c4.26,0,17.5-2.97,26.67-4.35" style="fill:none;stroke:#999;stroke-width:3" />
<path d="M899.89,14.83c0.51,0.97,1.77,2.63,1.85,5.83c0.43,15.38-0.27,63.55-0.27,68.79c0,10.8-6.56,2.64-8.14,1.32" style="fill:none;stroke:#999;stroke-width:3" />
<path d="M885.5,65.87c1.9,1.56,3.13,0.85,5.03-0.49c1.12-0.79,14.15-10.83,18.91-14.63" style="fill:none;stroke:#999;stroke-width:3" />
<path d="M916.5,14.48c0.23,0.28,1.47,1.9,1.58,2.25c0.81,2.77,2.28,9.04,2.84,14.02" style="fill:none;stroke:#999;stroke-width:3" />
<path d="M917.96,16.36c9.04-1.09,40.81-3.51,43.55-3.87c1-0.13,2.36,0.94,2.09,2.5c-0.56,3.25-1.94,8.38-3.43,13.02" style="fill:none;stroke:#999;stroke-width:3" />
<path d="M932.48,15.73c0.16,1.85,1.26,9.93,1.42,12.01" style="fill:none;stroke:#999;stroke-width:3" />
<path d="M946.78,14.58c-0.16,3-0.44,9.93-0.76,11.78" style="fill:none;stroke:#999;stroke-width:3" />
<path d="M921.15,28.78c5.6-0.34,29.6-2.42,39.39-2.68" style="fill:none;stroke:#999;stroke-width:3" />
<path d="M921.82,41.44c0.95,0.26,2.68,0.33,3.63,0.26c12.16-0.89,17.9-2.59,30.15-2.82c1.58-0.03,2.53,0.12,3.31,0.25" style="fill:none;stroke:black;stroke-width:3" />
<circle cx="921.82" cy="41.44" r="5" stroke-width="0" fill="#FF2A00" opacity="0.7" />
<path d="M992.5,35.92c2.08,0.3,1.25,0.3,3.5,0.3c4.26,0,17.5-2.97,26.67-4.35" style="fill:none;stroke:#999;stroke-width:3" />
<path d="M1008.89,14.83c0.51,0.97,1.77,2.63,1.85,5.83c0.43,15.38-0.27,63.55-0.27,68.79c0,10.8-6.56,2.64-8.14,1.32" style="fill:none;stroke:#999;stroke-width:3" />
<path d="M994.5,65.87c1.9,1.56,3.13,0.85,5.03-0.49c1.12-0.79,14.15-10.83,18.91-14.63" style="fill:none;stroke:#999;stroke-width:3" />
<path d="M1025.5,14.48c0.23,0.28,1.47,1.9,1.58,2.25c0.81,2.77,2.28,9.04,2.84,14.02" style="fill:none;stroke:#999;stroke-width:3" />
<path d="M1026.96,16.36c9.04-1.09,40.81-3.51,43.55-3.87c1-0.13,2.36,0.94,2.09,2.5c-0.56,3.25-1.94,8.38-3.43,13.02" style="fill:none;stroke:#999;stroke-width:3" />
<path d="M1041.48,15.73c0.16,1.85,1.26,9.93,1.42,12.01" style="fill:none;stroke:#999;stroke-width:3" />
<path d="M1055.78,14.58c-0.16,3-0.44,9.93-0.76,11.78" style="fill:none;stroke:#999;stroke-width:3" />
<path d="M1030.15,28.78c5.6-0.34,29.6-2.42,39.39-2.68" style="fill:none;stroke:#999;stroke-width:3" />
<path d="M1030.8200000000002,41.44c0.95,0.26,2.68,0.33,3.63,0.26c12.16-0.89,17.9-2.59,30.15-2.82c1.58-0.03,2.53,0.12,3.31,0.25" style="fill:none;stroke:#999;stroke-width:3" />
<path d="M1047.31,30.75c0.07,0.23,0.98,1.21,0.98,2.69c0,9.6-0.11,15.9-0.11,18.31" style="fill:none;stroke:black;stroke-width:3" />
<circle cx="1047.31" cy="30.75" r="5" stroke-width="0" fill="#FF2A00" opacity="0.7" />
<path d="M1101.5,35.92c2.08,0.3,1.25,0.3,3.5,0.3c4.26,0,17.5-2.97,26.67-4.35" style="fill:none;stroke:#999;stroke-width:3" />
<path d="M1117.8899999999999,14.83c0.51,0.97,1.77,2.63,1.85,5.83c0.43,15.38-0.27,63.55-0.27,68.79c0,10.8-6.56,2.64-8.14,1.32" style="fill:none;stroke:#999;stroke-width:3" />
<path d="M1103.5,65.87c1.9,1.56,3.13,0.85,5.03-0.49c1.12-0.79,14.15-10.83,18.91-14.63" style="fill:none;stroke:#999;stroke-width:3" />
<path d="M1134.5,14.48c0.23,0.28,1.47,1.9,1.58,2.25c0.81,2.77,2.28,9.04,2.84,14.02" style="fill:none;stroke:#999;stroke-width:3" />
<path d="M1135.96,16.36c9.04-1.09,40.81-3.51,43.55-3.87c1-0.13,2.36,0.94,2.09,2.5c-0.56,3.25-1.94,8.38-3.43,13.02" style="fill:none;stroke:#999;stroke-width:3" />
<path d="M1150.48,15.73c0.16,1.85,1.26,9.93,1.42,12.01" style="fill:none;stroke:#999;stroke-width:3" />
<path d="M1164.78,14.58c-0.16,3-0.44,9.93-0.76,11.78" style="fill:none;stroke:#999;stroke-width:3" />
<path d="M1139.15,28.78c5.6-0.34,29.6-2.42,39.39-2.68" style="fill:none;stroke:#999;stroke-width:3" />
<path d="M1139.8200000000002,41.44c0.95,0.26,2.68,0.33,3.63,0.26c12.16-0.89,17.9-2.59,30.15-2.82c1.58-0.03,2.53,0.12,3.31,0.25" style="fill:none;stroke:#999;stroke-width:3" />
<path d="M1156.31,30.75c0.07,0.23,0.98,1.21,0.98,2.69c0,9.6-0.11,15.9-0.11,18.31" style="fill:none;stroke:#999;stroke-width:3" />
<path d="M1132.13,52.42c1.31,0.61,3.7,0.65,5.02,0.61c10.02-0.27,27.86-2.57,44.65-3.58c2.18-0.13,3.49,0.29,4.58,0.6" style="fill:none;stroke:black;stroke-width:3" />
<circle cx="1132.13" cy="52.42" r="5" stroke-width="0" fill="#FF2A00" opacity="0.7" />
<path d="M1210.5,35.92c2.08,0.3,1.25,0.3,3.5,0.3c4.26,0,17.5-2.97,26.67-4.35" style="fill:none;stroke:#999;stroke-width:3" />
<path d="M1226.8899999999999,14.83c0.51,0.97,1.77,2.63,1.85,5.83c0.43,15.38-0.27,63.55-0.27,68.79c0,10.8-6.56,2.64-8.14,1.32" style="fill:none;stroke:#999;stroke-width:3" />
<path d="M1212.5,65.87c1.9,1.56,3.13,0.85,5.03-0.49c1.12-0.79,14.15-10.83,18.91-14.63" style="fill:none;stroke:#999;stroke-width:3" />
<path d="M1243.5,14.48c0.23,0.28,1.47,1.9,1.58,2.25c0.81,2.77,2.28,9.04,2.84,14.02" style="fill:none;stroke:#999;stroke-width:3" />
<path d="M1244.96,16.36c9.04-1.09,40.81-3.51,43.55-3.87c1-0.13,2.36,0.94,2.09,2.5c-0.56,3.25-1.94,8.38-3.43,13.02" style="fill:none;stroke:#999;stroke-width:3" />
<path d="M1259.48,15.73c0.16,1.85,1.26,9.93,1.42,12.01" style="fill:none;stroke:#999;stroke-width:3" />
<path d="M1273.78,14.58c-0.16,3-0.44,9.93-0.76,11.78" style="fill:none;stroke:#999;stroke-width:3" />
<path d="M1248.15,28.78c5.6-0.34,29.6-2.42,39.39-2.68" style="fill:none;stroke:#999;stroke-width:3" />
<path d="M1248.8200000000002,41.44c0.95,0.26,2.68,0.33,3.63,0.26c12.16-0.89,17.9-2.59,30.15-2.82c1.58-0.03,2.53,0.12,3.31,0.25" style="fill:none;stroke:#999;stroke-width:3" />
<path d="M1265.31,30.75c0.07,0.23,0.98,1.21,0.98,2.69c0,9.6-0.11,15.9-0.11,18.31" style="fill:none;stroke:#999;stroke-width:3" />
<path d="M1241.13,52.42c1.31,0.61,3.7,0.65,5.02,0.61c10.02-0.27,27.86-2.57,44.65-3.58c2.18-0.13,3.49,0.29,4.58,0.6" style="fill:none;stroke:#999;stroke-width:3" />
<path d="M1253.16,54.48c2.01,1.77,5.19,7.26,5.69,10" style="fill:none;stroke:black;stroke-width:3" />
<circle cx="1253.16" cy="54.48" r="5" stroke-width="0" fill="#FF2A00" opacity="0.7" />
<path d="M1319.5,35.92c2.08,0.3,1.25,0.3,3.5,0.3c4.26,0,17.5-2.97,26.67-4.35" style="fill:none;stroke:#999;stroke-width:3" />
<path d="M1335.8899999999999,14.83c0.51,0.97,1.77,2.63,1.85,5.83c0.43,15.38-0.27,63.55-0.27,68.79c0,10.8-6.56,2.64-8.14,1.32" style="fill:none;stroke:#999;stroke-width:3" />
<path d="M1321.5,65.87c1.9,1.56,3.13,0.85,5.03-0.49c1.12-0.79,14.15-10.83,18.91-14.63" style="fill:none;stroke:#999;stroke-width:3" />
<path d="M1352.5,14.48c0.23,0.28,1.47,1.9,1.58,2.25c0.81,2.77,2.28,9.04,2.84,14.02" style="fill:none;stroke:#999;stroke-width:3" />
<path d="M1353.96,16.36c9.04-1.09,40.81-3.51,43.55-3.87c1-0.13,2.36,0.94,2.09,2.5c-0.56,3.25-1.94,8.38-3.43,13.02" style="fill:none;stroke:#999;stroke-width:3" />
<path d="M1368.48,15.73c0.16,1.85,1.26,9.93,1.42,12.01" style="fill:none;stroke:#999;stroke-width:3" />
<path d="M1382.78,14.58c-0.16,3-0.44,9.93-0.76,11.78" style="fill:none;stroke:#999;stroke-width:3" />
<path d="M1357.15,28.78c5.6-0.34,29.6-2.42,39.39-2.68" style="fill:none;stroke:#999;stroke-width:3" />
<path d="M1357.8200000000002,41.44c0.95,0.26,2.68,0.33,3.63,0.26c12.16-0.89,17.9-2.59,30.15-2.82c1.58-0.03,2.53,0.12,3.31,0.25" style="fill:none;stroke:#999;stroke-width:3" />
<path d="M1374.31,30.75c0.07,0.23,0.98,1.21,0.98,2.69c0,9.6-0.11,15.9-0.11,18.31" style="fill:none;stroke:#999;stroke-width:3" />
<path d="M1350.13,52.42c1.31,0.61,3.7,0.65,5.02,0.61c10.02-0.27,27.86-2.57,44.65-3.58c2.18-0.13,3.49,0.29,4.58,0.6" style="fill:none;stroke:#999;stroke-width:3" />
<path d="M1362.16,54.48c2.01,1.77,5.19,7.26,5.69,10" style="fill:none;stroke:#999;stroke-width:3" />
<path d="M1387.72,52.25c0.01,0.28,0.03,0.74-0.02,1.15c-0.28,2.42-1.89,7.71-4.1,10.96" style="fill:none;stroke:black;stroke-width:3" />
<circle cx="1387.72" cy="52.25" r="5" stroke-width="0" fill="#FF2A00" opacity="0.7" />
<path d="M1428.5,35.92c2.08,0.3,1.25,0.3,3.5,0.3c4.26,0,17.5-2.97,26.67-4.35" style="fill:none;stroke:#999;stroke-width:3" />
<path d="M1444.8899999999999,14.83c0.51,0.97,1.77,2.63,1.85,5.83c0.43,15.38-0.27,63.55-0.27,68.79c0,10.8-6.56,2.64-8.14,1.32" style="fill:none;stroke:#999;stroke-width:3" />
<path d="M1430.5,65.87c1.9,1.56,3.13,0.85,5.03-0.49c1.12-0.79,14.15-10.83,18.91-14.63" style="fill:none;stroke:#999;stroke-width:3" />
<path d="M1461.5,14.48c0.23,0.28,1.47,1.9,1.58,2.25c0.81,2.77,2.28,9.04,2.84,14.02" style="fill:none;stroke:#999;stroke-width:3" />
<path d="M1462.96,16.36c9.04-1.09,40.81-3.51,43.55-3.87c1-0.13,2.36,0.94,2.09,2.5c-0.56,3.25-1.94,8.38-3.43,13.02" style="fill:none;stroke:#999;stroke-width:3" />
<path d="M1477.48,15.73c0.16,1.85,1.26,9.93,1.42,12.01" style="fill:none;stroke:#999;stroke-width:3" />
<path d="M1491.78,14.58c-0.16,3-0.44,9.93-0.76,11.78" style="fill:none;stroke:#999;stroke-width:3" />
<path d="M1466.15,28.78c5.6-0.34,29.6-2.42,39.39-2.68" style="fill:none;stroke:#999;stroke-width:3" />
<path d="M1466.8200000000002,41.44c0.95,0.26,2.68,0.33,3.63,0.26c12.16-0.89,17.9-2.59,30.15-2.82c1.58-0.03,2.53,0.12,3.31,0.25" style="fill:none;stroke:#999;stroke-width:3" />
<path d="M1483.31,30.75c0.07,0.23,0.98,1.21,0.98,2.69c0,9.6-0.11,15.9-0.11,18.31" style="fill:none;stroke:#999;stroke-width:3" />
<path d="M1459.13,52.42c1.31,0.61,3.7,0.65,5.02,0.61c10.02-0.27,27.86-2.57,44.65-3.58c2.18-0.13,3.49,0.29,4.58,0.6" style="fill:none;stroke:#999;stroke-width:3" />
<path d="M1471.16,54.48c2.01,1.77,5.19,7.26,5.69,10" style="fill:none;stroke:#999;stroke-width:3" />
<path d="M1496.72,52.25c0.01,0.28,0.03,0.74-0.02,1.15c-0.28,2.42-1.89,7.71-4.1,10.96" style="fill:none;stroke:#999;stroke-width:3" />
<path d="M1462.71,68.35c0.72,0.42,3.19,0.45,3.92,0.38c4.97-0.49,31.09-3.1,39.57-3.92c1.19-0.11,3.7,0.36,4.3,0.57" style="fill:none;stroke:black;stroke-width:3" />
<circle cx="1462.71" cy="68.35" r="5" stroke-width="0" fill="#FF2A00" opacity="0.7" />
<path d="M1537.5,35.92c2.08,0.3,1.25,0.3,3.5,0.3c4.26,0,17.5-2.97,26.67-4.35" style="fill:none;stroke:#999;stroke-width:3" />
<path d="M1553.8899999999999,14.83c0.51,0.97,1.77,2.63,1.85,5.83c0.43,15.38-0.27,63.55-0.27,68.79c0,10.8-6.56,2.64-8.14,1.32" style="fill:none;stroke:#999;stroke-width:3" />
<path d="M1539.5,65.87c1.9,1.56,3.13,0.85,5.03-0.49c1.12-0.79,14.15-10.83,18.91-14.63" style="fill:none;stroke:#999;stroke-width:3" />
<path d="M1570.5,14.48c0.23,0.28,1.47,1.9,1.58,2.25c0.81,2.77,2.28,9.04,2.84,14.02" style="fill:none;stroke:#999;stroke-width:3" />
<path d="M1571.96,16.36c9.04-1.09,40.81-3.51,43.55-3.87c1-0.13,2.36,0.94,2.09,2.5c-0.56,3.25-1.94,8.38-3.43,13.02" style="fill:none;stroke:#999;stroke-width:3" />
<path d="M1586.48,15.73c0.16,1.85,1.26,9.93,1.42,12.01" style="fill:none;stroke:#999;stroke-width:3" />
<path d="M1600.78,14.58c-0.16,3-0.44,9.93-0.76,11.78" style="fill:none;stroke:#999;stroke-width:3" />
<path d="M1575.15,28.78c5.6-0.34,29.6-2.42,39.39-2.68" style="fill:none;stroke:#999;stroke-width:3" />
<path d="M1575.8200000000002,41.44c0.95,0.26,2.68,0.33,3.63,0.26c12.16-0.89,17.9-2.59,30.15-2.82c1.58-0.03,2.53,0.12,3.31,0.25" style="fill:none;stroke:#999;stroke-width:3" />
<path d="M1592.31,30.75c0.07,0.23,0.98,1.21,0.98,2.69c0,9.6-0.11,15.9-0.11,18.31" style="fill:none;stroke:#999;stroke-width:3" />
<path d="M1568.13,52.42c1.31,0.61,3.7,0.65,5.02,0.61c10.02-0.27,27.86-2.57,44.65-3.58c2.18-0.13,3.49,0.29,4.58,0.6" style="fill:none;stroke:#999;stroke-width:3" />
<path d="M1580.16,54.48c2.01,1.77,5.19,7.26,5.69,10" style="fill:none;stroke:#999;stroke-width:3" />
<path d="M1605.72,52.25c0.01,0.28,0.03,0.74-0.02,1.15c-0.28,2.42-1.89,7.71-4.1,10.96" style="fill:none;stroke:#999;stroke-width:3" />
<path d="M1571.71,68.35c0.72,0.42,3.19,0.45,3.92,0.38c4.97-0.49,31.09-3.1,39.57-3.92c1.19-0.11,3.7,0.36,4.3,0.57" style="fill:none;stroke:#999;stroke-width:3" />
<path d="M1573.74,80.38c1.53,0.47,4.36,0.6,5.89,0.47c10.54-0.89,19.3-2.45,31.44-2.77c2.56-0.07,4.09,0.23,5.37,0.46" style="fill:none;stroke:black;stroke-width:3" />
<circle cx="1573.74" cy="80.38" r="5" stroke-width="0" fill="#FF2A00" opacity="0.7" />
<path d="M1646.5,35.92c2.08,0.3,1.25,0.3,3.5,0.3c4.26,0,17.5-2.97,26.67-4.35" style="fill:none;stroke:#999;stroke-width:3" />
<path d="M1662.8899999999999,14.83c0.51,0.97,1.77,2.63,1.85,5.83c0.43,15.38-0.27,63.55-0.27,68.79c0,10.8-6.56,2.64-8.14,1.32" style="fill:none;stroke:#999;stroke-width:3" />
<path d="M1648.5,65.87c1.9,1.56,3.13,0.85,5.03-0.49c1.12-0.79,14.15-10.83,18.91-14.63" style="fill:none;stroke:#999;stroke-width:3" />
<path d="M1679.5,14.48c0.23,0.28,1.47,1.9,1.58,2.25c0.81,2.77,2.28,9.04,2.84,14.02" style="fill:none;stroke:#999;stroke-width:3" />
<path d="M1680.96,16.36c9.04-1.09,40.81-3.51,43.55-3.87c1-0.13,2.36,0.94,2.09,2.5c-0.56,3.25-1.94,8.38-3.43,13.02" style="fill:none;stroke:#999;stroke-width:3" />
<path d="M1695.48,15.73c0.16,1.85,1.26,9.93,1.42,12.01" style="fill:none;stroke:#999;stroke-width:3" />
<path d="M1709.78,14.58c-0.16,3-0.44,9.93-0.76,11.78" style="fill:none;stroke:#999;stroke-width:3" />
<path d="M1684.15,28.78c5.6-0.34,29.6-2.42,39.39-2.68" style="fill:none;stroke:#999;stroke-width:3" />
<path d="M1684.8200000000002,41.44c0.95,0.26,2.68,0.33,3.63,0.26c12.16-0.89,17.9-2.59,30.15-2.82c1.58-0.03,2.53,0.12,3.31,0.25" style="fill:none;stroke:#999;stroke-width:3" />
<path d="M1701.31,30.75c0.07,0.23,0.98,1.21,0.98,2.69c0,9.6-0.11,15.9-0.11,18.31" style="fill:none;stroke:#999;stroke-width:3" />
<path d="M1677.13,52.42c1.31,0.61,3.7,0.65,5.02,0.61c10.02-0.27,27.86-2.57,44.65-3.58c2.18-0.13,3.49,0.29,4.58,0.6" style="fill:none;stroke:#999;stroke-width:3" />
<path d="M1689.16,54.48c2.01,1.77,5.19,7.26,5.69,10" style="fill:none;stroke:#999;stroke-width:3" />
<path d="M1714.72,52.25c0.01,0.28,0.03,0.74-0.02,1.15c-0.28,2.42-1.89,7.71-4.1,10.96" style="fill:none;stroke:#999;stroke-width:3" />
<path d="M1680.71,68.35c0.72,0.42,3.19,0.45,3.92,0.38c4.97-0.49,31.09-3.1,39.57-3.92c1.19-0.11,3.7,0.36,4.3,0.57" style="fill:none;stroke:#999;stroke-width:3" />
<path d="M1682.74,80.38c1.53,0.47,4.36,0.6,5.89,0.47c10.54-0.89,19.3-2.45,31.44-2.77c2.56-0.07,4.09,0.23,5.37,0.46" style="fill:none;stroke:#999;stroke-width:3" />
<path d="M1701.52,67.99c0.3,0.4,0.93,2.23,0.99,3.04c0.06,0.81-0.04,23.43-0.1,28.47" style="fill:none;stroke:black;stroke-width:3" />
<circle cx="1701.52" cy="67.99" r="5" stroke-width="0" fill="#FF2A00" opacity="0.7" />
</svg>