<!-- 064e6 -->
<svg width="1853px" height="109px" viewBox="0 0 1853px 109px" xmlns="http://www.w3.org/2000/svg" xmlns:xlink="http://www.w3.org/1999/xlink" xml:space="preserve" version="1.1"  baseProfile="full">
<line x1="1" y1="1" x2="1852" y2="1" style="stroke:#ddd;stroke-width:2" />
<line x1="1" y1="1" x2="1" y2="108" style="stroke:#ddd;stroke-width:2" />
<line x1="1" y1="108" x2="1852" y2="108" style="stroke:#ddd;stroke-width:2" />
<line x1="1852" y1="1" x2="1852" y2="108" style="stroke:#ddd;stroke-width:2" />
<line x1="109" y1="1" x2="109" y2="108" style="stroke:#ddd;stroke-width:2" />
<line x1="218" y1="1" x2="218" y2="108" style="stroke:#ddd;stroke-width:2" />
<line x1="327" y1="1" x2="327" y2="108" style="stroke:#ddd;stroke-width:2" />
<line x1="436" y1="1" x2="436" y2="108" style="stroke:#ddd;stroke-width:2" />
<line x1="545" y1="1" x2="545" y2="108" style="stroke:#ddd;stroke-width:2" />
<line x1="654" y1="1" x2="654" y2="108" style="stroke:#ddd;stroke-width:2" />
<line x1="763" y1="1" x2="763" y2="108" style="stroke:#ddd;stroke-width:2" />
<line x1="872" y1="1" x2="872" y2="108" style="stroke:#ddd;stroke-width:2" />
<line x1="981" y1="1" x2="981" y2="108" style="stroke:#ddd;stroke-width:2" />
<line x1="1090" y1="1" x2="1090" y2="108" style="stroke:#ddd;stroke-width:2" />
<line x1="1199" y1="1" x2="1199" y2="108" style="stroke:#ddd;stroke-width:2" />
<line x1="1308" y1="1" x2="1308" y2="108" style="stroke:#ddd;stroke-width:2" />
<line x1="1417" y1="1" x2="1417" y2="108" style="stroke:#ddd;stroke-width:2" />
<line x1="1526" y1="1" x2="1526" y2="108" style="stroke:#ddd;stroke-width:2" />
<line x1="1635" y1="1" x2="1635" y2="108" style="stroke:#ddd;stroke-width:2" />
<line x1="1744" y1="1" x2="1744" y2="108" style="stroke:#ddd;stroke-width:2" />
<line x1="1" y1="54" x2="1852" y2="54" style="stroke:#ddd;stroke-width:2;stroke-dasharray:3 3" />
<line x1="55" y1="1" x2="55" y2="108" style="stroke:#ddd;stroke-width:2;stroke-dasharray:3 3" />
<line x1="164" y1="1" x2="164" y2="108" style="stroke:#ddd;stroke-width:2;stroke-dasharray:3 3" />
<line x1="273" y1="1" x2="273" y2="108" style="stroke:#ddd;stroke-width:2;stroke-dasharray:3 3" />
<line x1="382" y1="1" x2="382" y2="108" style="stroke:#ddd;stroke-width:2;stroke-dasharray:3 3" />
<line x1="491" y1="1" x2="491" y2="108" style="stroke:#ddd;stroke-width:2;stroke-dasharray:3 3" />
<line x1="600" y1="1" x2="600" y2="108" style="stroke:#ddd;stroke-width:2;stroke-dasharray:3 3" />
<line x1="709" y1="1" x2="709" y2="108" style="stroke:#ddd;stroke-width:2;stroke-dasharray:3 3" />
<line x1="818" y1="1" x2="818" y2="108" style="stroke:#ddd;stroke-width:2;stroke-dasharray:3 3" />
<line x1="927" y1="1" x2="927" y2="108" style="stroke:#ddd;stroke-width:2;stroke-dasharray:3 3" />
<line x1="1036" y1="1" x2="1036" y2="108" style="stroke:#ddd;stroke-width:2;stroke-dasharray:3 3" />
<line x1="1145" y1="1" x2="1145" y2="108" style="stroke:#ddd;stroke-width:2;stroke-dasharray:3 3" />
<line x1="1254" y1="1" x2="1254" y2="108" style="stroke:#ddd;stroke-width:2;stroke-dasharray:3 3" />
<line x1="1363" y1="1" x2="1363" y2="108" style="stroke:#ddd;stroke-width:2;stroke-dasharray:3 3" />
<line x1="1472" y1="1" x2="1472" y2="108" style="stroke:#ddd;stroke-width:2;stroke-dasharray:3 3" />
<line x1="1581" y1="1" x2="1581" y2="108" style="stroke:#ddd;stroke-width:2;stroke-dasharray:3 3" />
<line x1="1690" y1="1" x2="1690" y2="108" style="stroke:#ddd;stroke-width:2;stroke-dasharray:3 3" />
<line x1="1799" y1="1" x2="1799" y2="108" style="stroke:#ddd;stroke-width:2;stroke-dasharray:3 3" />
<path d="M11.75,37.42c2.27,0.27,4.33,0.43,6.64-0.08c4.41-0.98,9.11-1.96,15.36-3.34c0.97-0.22,1.96-0.21,2.92-0.24" style="fill:none;stroke:black;stroke-width:3" />
<circle cx="11.75" cy="37.42" r="5" stroke-width="0" fill="#FF2A00" opacity="0.7" />
<path d="M120.75,37.42c2.27,0.27,4.33,0.43,6.64-0.08c4.41-0.98,9.11-1.96,15.36-3.34c0.97-0.22,1.96-0.21,2.92-0.24" style="fill:none;stroke:#999;stroke-width:3" />
<path d="M134.52,13.5c1.05,1.05,1.51,2.75,1.51,4.77c0,15.23-0.01,54.21-0.01,65.65c0,14.25-6.32,3.53-7.77,2" style="fill:none;stroke:black;stroke-width:3" />
<circle cx="134.52" cy="13.5" r="5" stroke-width="0" fill="#FF2A00" opacity="0.7" />
<path d="M229.75,37.42c2.27,0.27,4.33,0.43,6.64-0.08c4.41-0.98,9.11-1.96,15.36-3.34c0.97-0.22,1.96-0.21,2.92-0.24" style="fill:none;stroke:#999;stroke-width:3" />
<path d="M243.52,13.5c1.05,1.05,1.51,2.75,1.51,4.77c0,15.23-0.01,54.21-0.01,65.65c0,14.25-6.32,3.53-7.77,2" style="fill:none;stroke:#999;stroke-width:3" />
<path d="M228.13,63.25c1.12,1,2.84,0.76,4.42-0.3c4.96-3.33,8.96-6.46,20.21-14.54" style="fill:none;stroke:black;stroke-width:3" />
<circle cx="228.13" cy="63.25" r="5" stroke-width="0" fill="#FF2A00" opacity="0.7" />
<path d="M338.75,37.42c2.27,0.27,4.33,0.43,6.64-0.08c4.41-0.98,9.11-1.96,15.36-3.34c0.97-0.22,1.96-0.21,2.92-0.24" style="fill:none;stroke:#999;stroke-width:3" />
<path d="M352.52,13.5c1.05,1.05,1.51,2.75,1.51,4.77c0,15.23-0.01,54.21-0.01,65.65c0,14.25-6.32,3.53-7.77,2" style="fill:none;stroke:#999;stroke-width:3" />
<path d="M337.13,63.25c1.12,1,2.84,0.76,4.42-0.3c4.96-3.33,8.96-6.46,20.21-14.54" style="fill:none;stroke:#999;stroke-width:3" />
<path d="M392.53,12.29c0.9,0.9,1.17,2.09,1.17,3.52c0,1.57-0.06,3.81-0.06,7.04" style="fill:none;stroke:black;stroke-width:3" />
<circle cx="392.53" cy="12.29" r="5" stroke-width="0" fill="#FF2A00" opacity="0.7" />
<path d="M447.75,37.42c2.27,0.27,4.33,0.43,6.64-0.08c4.41-0.98,9.11-1.96,15.36-3.34c0.97-0.22,1.96-0.21,2.92-0.24" style="fill:none;stroke:#999;stroke-width:3" />
<path d="M461.52,13.5c1.05,1.05,1.51,2.75,1.51,4.77c0,15.23-0.01,54.21-0.01,65.65c0,14.25-6.32,3.53-7.77,2" style="fill:none;stroke:#999;stroke-width:3" />
<path d="M446.13,63.25c1.12,1,2.84,0.76,4.42-0.3c4.96-3.33,8.96-6.46,20.21-14.54" style="fill:none;stroke:#999;stroke-width:3" />
<path d="M501.53,12.29c0.9,0.9,1.17,2.09,1.17,3.52c0,1.57-0.06,3.81-0.06,7.04" style="fill:none;stroke:#999;stroke-width:3" />
<path d="M480.65,25.66c0,2.65-1.84,9.93-2.67,11.69" style="fill:none;stroke:black;stroke-width:3" />
<circle cx="480.65" cy="25.66" r="5" stroke-width="0" fill="#FF2A00" opacity="0.7" />
<path d="M556.75,37.42c2.27,0.27,4.33,0.43,6.64-0.08c4.41-0.98,9.11-1.96,15.36-3.34c0.97-0.22,1.96-0.21,2.92-0.24" style="fill:none;stroke:#999;stroke-width:3" />
<path d="M570.52,13.5c1.05,1.05,1.51,2.75,1.51,4.77c0,15.23-0.01,54.21-0.01,65.65c0,14.25-6.32,3.53-7.77,2" style="fill:none;stroke:#999;stroke-width:3" />
<path d="M555.13,63.25c1.12,1,2.84,0.76,4.42-0.3c4.96-3.33,8.96-6.46,20.21-14.54" style="fill:none;stroke:#999;stroke-width:3" />
<path d="M610.53,12.29c0.9,0.9,1.17,2.09,1.17,3.52c0,1.57-0.06,3.81-0.06,7.04" style="fill:none;stroke:#999;stroke-width:3" />
<path d="M589.65,25.66c0,2.65-1.84,9.93-2.67,11.69" style="fill:none;stroke:#999;stroke-width:3" />
<path d="M590.36,26.91c8.76-1.28,37.03-4.36,41.7-4.45c11.44-0.21,0.9,6.63-0.27,7.42" style="fill:none;stroke:black;stroke-width:3" />
<circle cx="590.36" cy="26.91" r="5" stroke-width="0" fill="#FF2A00" opacity="0.7" />
<path d="M665.75,37.42c2.27,0.27,4.33,0.43,6.64-0.08c4.41-0.98,9.11-1.96,15.36-3.34c0.97-0.22,1.96-0.21,2.92-0.24" style="fill:none;stroke:#999;stroke-width:3" />
<path d="M679.52,13.5c1.05,1.05,1.51,2.75,1.51,4.77c0,15.23-0.01,54.21-0.01,65.65c0,14.25-6.32,3.53-7.77,2" style="fill:none;stroke:#999;stroke-width:3" />
<path d="M664.13,63.25c1.12,1,2.84,0.76,4.42-0.3c4.96-3.33,8.96-6.46,20.21-14.54" style="fill:none;stroke:#999;stroke-width:3" />
<path d="M719.53,12.29c0.9,0.9,1.17,2.09,1.17,3.52c0,1.57-0.06,3.81-0.06,7.04" style="fill:none;stroke:#999;stroke-width:3" />
<path d="M698.65,25.66c0,2.65-1.84,9.93-2.67,11.69" style="fill:none;stroke:#999;stroke-width:3" />
<path d="M699.36,26.91c8.76-1.28,37.03-4.36,41.7-4.45c11.44-0.21,0.9,6.63-0.27,7.42" style="fill:none;stroke:#999;stroke-width:3" />
<path d="M707.66,31.9c0.46,1.22-0.24,2.62-0.83,3.63c-1.96,3.34-7.21,11.2-11.44,14.75" style="fill:none;stroke:black;stroke-width:3" />
<circle cx="707.66" cy="31.9" r="5" stroke-width="0" fill="#FF2A00" opacity="0.7" />
<path d="M774.75,37.42c2.27,0.27,4.33,0.43,6.64-0.08c4.41-0.98,9.11-1.96,15.36-3.34c0.97-0.22,1.96-0.21,2.92-0.24" style="fill:none;stroke:#999;stroke-width:3" />
<path d="M788.52,13.5c1.05,1.05,1.51,2.75,1.51,4.77c0,15.23-0.01,54.21-0.01,65.65c0,14.25-6.32,3.53-7.77,2" style="fill:none;stroke:#999;stroke-width:3" />
<path d="M773.13,63.25c1.12,1,2.84,0.76,4.42-0.3c4.96-3.33,8.96-6.46,20.21-14.54" style="fill:none;stroke:#999;stroke-width:3" />
<path d="M828.53,12.29c0.9,0.9,1.17,2.09,1.17,3.52c0,1.57-0.06,3.81-0.06,7.04" style="fill:none;stroke:#999;stroke-width:3" />
<path d="M807.65,25.66c0,2.65-1.84,9.93-2.67,11.69" style="fill:none;stroke:#999;stroke-width:3" />
<path d="M808.36,26.91c8.76-1.28,37.03-4.36,41.7-4.45c11.44-0.21,0.9,6.63-0.27,7.42" style="fill:none;stroke:#999;stroke-width:3" />
<path d="M816.66,31.9c0.46,1.22-0.24,2.62-0.83,3.63c-1.96,3.34-7.21,11.2-11.44,14.75" style="fill:none;stroke:#999;stroke-width:3" />
<path d="M818.0,36.9c1.93-0.19,4.51-0.99,7.52-1.71c2.74-0.66,3.68,0.62,3.01,2.52C825.74,45.64 816.66,56.45 802.25,64" style="fill:none;stroke:black;stroke-width:3" />
<circle cx="818.0" cy="36.9" r="5" stroke-width="0" fill="#FF2A00" opacity="0.7" />
<path d="M883.75,37.42c2.27,0.27,4.33,0.43,6.64-0.08c4.41-0.98,9.11-1.96,15.36-3.34c0.97-0.22,1.96-0.21,2.92-0.24" style="fill:none;stroke:#999;stroke-width:3" />
<path d="M897.52,13.5c1.05,1.05,1.51,2.75,1.51,4.77c0,15.23-0.01,54.21-0.01,65.65c0,14.25-6.32,3.53-7.77,2" style="fill:none;stroke:#999;stroke-width:3" />
<path d="M882.13,63.25c1.12,1,2.84,0.76,4.42-0.3c4.96-3.33,8.96-6.46,20.21-14.54" style="fill:none;stroke:#999;stroke-width:3" />
<path d="M937.53,12.29c0.9,0.9,1.17,2.09,1.17,3.52c0,1.57-0.06,3.81-0.06,7.04" style="fill:none;stroke:#999;stroke-width:3" />
<path d="M916.65,25.66c0,2.65-1.84,9.93-2.67,11.69" style="fill:none;stroke:#999;stroke-width:3" />
<path d="M917.36,26.91c8.76-1.28,37.03-4.36,41.7-4.45c11.44-0.21,0.9,6.63-0.27,7.42" style="fill:none;stroke:#999;stroke-width:3" />
<path d="M925.66,31.9c0.46,1.22-0.24,2.62-0.83,3.63c-1.96,3.34-7.21,11.2-11.44,14.75" style="fill:none;stroke:#999;stroke-width:3" />
<path d="M927.0,36.9c1.93-0.19,4.51-0.99,7.52-1.71c2.74-0.66,3.68,0.62,3.01,2.52C934.74,45.64 925.66,56.45 911.25,64" style="fill:none;stroke:#999;stroke-width:3" />
<path d="M923.38,42.75c0.64,0.25,2.41,1.73,3.68,3.21" style="fill:none;stroke:black;stroke-width:3" />
<circle cx="923.38" cy="42.75" r="5" stroke-width="0" fill="#FF2A00" opacity="0.7" />
<path d="M992.75,37.42c2.27,0.27,4.33,0.43,6.64-0.08c4.41-0.98,9.11-1.96,15.36-3.34c0.97-0.22,1.96-0.21,2.92-0.24" style="fill:none;stroke:#999;stroke-width:3" />
<path d="M1006.52,13.5c1.05,1.05,1.51,2.75,1.51,4.77c0,15.23-0.01,54.21-0.01,65.65c0,14.25-6.32,3.53-7.77,2" style="fill:none;stroke:#999;stroke-width:3" />
<path d="M991.13,63.25c1.12,1,2.84,0.76,4.42-0.3c4.96-3.33,8.96-6.46,20.21-14.54" style="fill:none;stroke:#999;stroke-width:3" />
<path d="M1046.53,12.29c0.9,0.9,1.17,2.09,1.17,3.52c0,1.57-0.06,3.81-0.06,7.04" style="fill:none;stroke:#999;stroke-width:3" />
<path d="M1025.65,25.66c0,2.65-1.84,9.93-2.67,11.69" style="fill:none;stroke:#999;stroke-width:3" />
<path d="M1026.3600000000001,26.91c8.76-1.28,37.03-4.36,41.7-4.45c11.44-0.21,0.9,6.63-0.27,7.42" style="fill:none;stroke:#999;stroke-width:3" />
<path d="M1034.6599999999999,31.9c0.46,1.22-0.24,2.62-0.83,3.63c-1.96,3.34-7.21,11.2-11.44,14.75" style="fill:none;stroke:#999;stroke-width:3" />
<path d="M1036.0,36.9c1.93-0.19,4.51-0.99,7.52-1.71c2.74-0.66,3.68,0.62,3.01,2.52C1043.74,45.64 1034.6599999999999,56.45 1020.25,64" style="fill:none;stroke:#999;stroke-width:3" />
<path d="M1032.38,42.75c0.64,0.25,2.41,1.73,3.68,3.21" style="fill:none;stroke:#999;stroke-width:3" />
<path d="M1027.12,48.5c0.86,0.52,2.58,2.72,3.29,3.88" style="fill:none;stroke:black;stroke-width:3" />
<circle cx="1027.12" cy="48.5" r="5" stroke-width="0" fill="#FF2A00" opacity="0.7" />
<path d="M1101.75,37.42c2.27,0.27,4.33,0.43,6.64-0.08c4.41-0.98,9.11-1.96,15.36-3.34c0.97-0.22,1.96-0.21,2.92-0.24" style="fill:none;stroke:#999;stroke-width:3" />
<path d="M1115.52,13.5c1.05,1.05,1.51,2.75,1.51,4.77c0,15.23-0.01,54.21-0.01,65.65c0,14.25-6.32,3.53-7.77,2" style="fill:none;stroke:#999;stroke-width:3" />
<path d="M1100.13,63.25c1.12,1,2.84,0.76,4.42-0.3c4.96-3.33,8.96-6.46,20.21-14.54" style="fill:none;stroke:#999;stroke-width:3" />
<path d="M1155.53,12.29c0.9,0.9,1.17,2.09,1.17,3.52c0,1.57-0.06,3.81-0.06,7.04" style="fill:none;stroke:#999;stroke-width:3" />
<path d="M1134.65,25.66c0,2.65-1.84,9.93-2.67,11.69" style="fill:none;stroke:#999;stroke-width:3" />
<path d="M1135.3600000000001,26.91c8.76-1.28,37.03-4.36,41.7-4.45c11.44-0.21,0.9,6.63-0.27,7.42" style="fill:none;stroke:#999;stroke-width:3" />
<path d="M1143.6599999999999,31.9c0.46,1.22-0.24,2.62-0.83,3.63c-1.96,3.34-7.21,11.2-11.44,14.75" style="fill:none;stroke:#999;stroke-width:3" />
<path d="M1145.0,36.9c1.93-0.19,4.51-0.99,7.52-1.71c2.74-0.66,3.68,0.62,3.01,2.52C1152.74,45.64 1143.6599999999999,56.45 1129.25,64" style="fill:none;stroke:#999;stroke-width:3" />
<path d="M1141.38,42.75c0.64,0.25,2.41,1.73,3.68,3.21" style="fill:none;stroke:#999;stroke-width:3" />
<path d="M1136.12,48.5c0.86,0.52,2.58,2.72,3.29,3.88" style="fill:none;stroke:#999;stroke-width:3" />
<path d="M1159.45,37.14c1.65,0.56,3.19,0.37,4.43,0c1.24-0.37,5.38-1.38,9.34-2.36c1.67-0.41,3.1,0.61,1.96,2.68C1173.0,41.38 1166.92,47.71 1162.59,50.89" style="fill:none;stroke:black;stroke-width:3" />
<circle cx="1159.45" cy="37.14" r="5" stroke-width="0" fill="#FF2A00" opacity="0.7" />
<path d="M1210.75,37.42c2.27,0.27,4.33,0.43,6.64-0.08c4.41-0.98,9.11-1.96,15.36-3.34c0.97-0.22,1.96-0.21,2.92-0.24" style="fill:none;stroke:#999;stroke-width:3" />
<path d="M1224.52,13.5c1.05,1.05,1.51,2.75,1.51,4.77c0,15.23-0.01,54.21-0.01,65.65c0,14.25-6.32,3.53-7.77,2" style="fill:none;stroke:#999;stroke-width:3" />
<path d="M1209.13,63.25c1.12,1,2.84,0.76,4.42-0.3c4.96-3.33,8.96-6.46,20.21-14.54" style="fill:none;stroke:#999;stroke-width:3" />
<path d="M1264.53,12.29c0.9,0.9,1.17,2.09,1.17,3.52c0,1.57-0.06,3.81-0.06,7.04" style="fill:none;stroke:#999;stroke-width:3" />
<path d="M1243.65,25.66c0,2.65-1.84,9.93-2.67,11.69" style="fill:none;stroke:#999;stroke-width:3" />
<path d="M1244.3600000000001,26.91c8.76-1.28,37.03-4.36,41.7-4.45c11.44-0.21,0.9,6.63-0.27,7.42" style="fill:none;stroke:#999;stroke-width:3" />
<path d="M1252.6599999999999,31.9c0.46,1.22-0.24,2.62-0.83,3.63c-1.96,3.34-7.21,11.2-11.44,14.75" style="fill:none;stroke:#999;stroke-width:3" />
<path d="M1254.0,36.9c1.93-0.19,4.51-0.99,7.52-1.71c2.74-0.66,3.68,0.62,3.01,2.52C1261.74,45.64 1252.6599999999999,56.45 1238.25,64" style="fill:none;stroke:#999;stroke-width:3" />
<path d="M1250.38,42.75c0.64,0.25,2.41,1.73,3.68,3.21" style="fill:none;stroke:#999;stroke-width:3" />
<path d="M1245.12,48.5c0.86,0.52,2.58,2.72,3.29,3.88" style="fill:none;stroke:#999;stroke-width:3" />
<path d="M1268.45,37.14c1.65,0.56,3.19,0.37,4.43,0c1.24-0.37,5.38-1.38,9.34-2.36c1.67-0.41,3.1,0.61,1.96,2.68C1282.0,41.38 1275.92,47.71 1271.59,50.89" style="fill:none;stroke:#999;stroke-width:3" />
<path d="M1267.51,43.23c2.49,0,17.04,11.29,18.65,12.37c1.61,1.08,5.54,3.23,7.86,3.77" style="fill:none;stroke:black;stroke-width:3" />
<circle cx="1267.51" cy="43.23" r="5" stroke-width="0" fill="#FF2A00" opacity="0.7" />
<path d="M1319.75,37.42c2.27,0.27,4.33,0.43,6.64-0.08c4.41-0.98,9.11-1.96,15.36-3.34c0.97-0.22,1.96-0.21,2.92-0.24" style="fill:none;stroke:#999;stroke-width:3" />
<path d="M1333.52,13.5c1.05,1.05,1.51,2.75,1.51,4.77c0,15.23-0.01,54.21-0.01,65.65c0,14.25-6.32,3.53-7.77,2" style="fill:none;stroke:#999;stroke-width:3" />
<path d="M1318.13,63.25c1.12,1,2.84,0.76,4.42-0.3c4.96-3.33,8.96-6.46,20.21-14.54" style="fill:none;stroke:#999;stroke-width:3" />
<path d="M1373.53,12.29c0.9,0.9,1.17,2.09,1.17,3.52c0,1.57-0.06,3.81-0.06,7.04" style="fill:none;stroke:#999;stroke-width:3" />
<path d="M1352.65,25.66c0,2.65-1.84,9.93-2.67,11.69" style="fill:none;stroke:#999;stroke-width:3" />
<path d="M1353.3600000000001,26.91c8.76-1.28,37.03-4.36,41.7-4.45c11.44-0.21,0.9,6.63-0.27,7.42" style="fill:none;stroke:#999;stroke-width:3" />
<path d="M1361.6599999999999,31.9c0.46,1.22-0.24,2.62-0.83,3.63c-1.96,3.34-7.21,11.2-11.44,14.75" style="fill:none;stroke:#999;stroke-width:3" />
<path d="M1363.0,36.9c1.93-0.19,4.51-0.99,7.52-1.71c2.74-0.66,3.68,0.62,3.01,2.52C1370.74,45.64 1361.6599999999999,56.45 1347.25,64" style="fill:none;stroke:#999;stroke-width:3" />
<path d="M1359.38,42.75c0.64,0.25,2.41,1.73,3.68,3.21" style="fill:none;stroke:#999;stroke-width:3" />
<path d="M1354.12,48.5c0.86,0.52,2.58,2.72,3.29,3.88" style="fill:none;stroke:#999;stroke-width:3" />
<path d="M1377.45,37.14c1.65,0.56,3.19,0.37,4.43,0c1.24-0.37,5.38-1.38,9.34-2.36c1.67-0.41,3.1,0.61,1.96,2.68C1391.0,41.38 1384.92,47.71 1380.59,50.89" style="fill:none;stroke:#999;stroke-width:3" />
<path d="M1376.51,43.23c2.49,0,17.04,11.29,18.65,12.37c1.61,1.08,5.54,3.23,7.86,3.77" style="fill:none;stroke:#999;stroke-width:3" />
<path d="M1362.22,61.71c1.78,0.41,3.46,0.19,5.07-0.06c4.1-0.64,9.62-1.36,14.09-1.81c1.68-0.17,3.38-0.29,5.05,0.09" style="fill:none;stroke:black;stroke-width:3" />
<circle cx="1362.22" cy="61.71" r="5" stroke-width="0" fill="#FF2A00" opacity="0.7" />
<path d="M1428.75,37.42c2.27,0.27,4.33,0.43,6.64-0.08c4.41-0.98,9.11-1.96,15.36-3.34c0.97-0.22,1.96-0.21,2.92-0.24" style="fill:none;stroke:#999;stroke-width:3" />
<path d="M1442.52,13.5c1.05,1.05,1.51,2.75,1.51,4.77c0,15.23-0.01,54.21-0.01,65.65c0,14.25-6.32,3.53-7.77,2" style="fill:none;stroke:#999;stroke-width:3" />
<path d="M1427.13,63.25c1.12,1,2.84,0.76,4.42-0.3c4.96-3.33,8.96-6.46,20.21-14.54" style="fill:none;stroke:#999;stroke-width:3" />
<path d="M1482.53,12.29c0.9,0.9,1.17,2.09,1.17,3.52c0,1.57-0.06,3.81-0.06,7.04" style="fill:none;stroke:#999;stroke-width:3" />
<path d="M1461.65,25.66c0,2.65-1.84,9.93-2.67,11.69" style="fill:none;stroke:#999;stroke-width:3" />
<path d="M1462.3600000000001,26.91c8.76-1.28,37.03-4.36,41.7-4.45c11.44-0.21,0.9,6.63-0.27,7.42" style="fill:none;stroke:#999;stroke-width:3" />
<path d="M1470.6599999999999,31.9c0.46,1.22-0.24,2.62-0.83,3.63c-1.96,3.34-7.21,11.2-11.44,14.75" style="fill:none;stroke:#999;stroke-width:3" />
<path d="M1472.0,36.9c1.93-0.19,4.51-0.99,7.52-1.71c2.74-0.66,3.68,0.62,3.01,2.52C1479.74,45.64 1470.6599999999999,56.45 1456.25,64" style="fill:none;stroke:#999;stroke-width:3" />
<path d="M1468.38,42.75c0.64,0.25,2.41,1.73,3.68,3.21" style="fill:none;stroke:#999;stroke-width:3" />
<path d="M1463.12,48.5c0.86,0.52,2.58,2.72,3.29,3.88" style="fill:none;stroke:#999;stroke-width:3" />
<path d="M1486.45,37.14c1.65,0.56,3.19,0.37,4.43,0c1.24-0.37,5.38-1.38,9.34-2.36c1.67-0.41,3.1,0.61,1.96,2.68C1500.0,41.38 1493.92,47.71 1489.59,50.89" style="fill:none;stroke:#999;stroke-width:3" />
<path d="M1485.51,43.23c2.49,0,17.04,11.29,18.65,12.37c1.61,1.08,5.54,3.23,7.86,3.77" style="fill:none;stroke:#999;stroke-width:3" />
<path d="M1471.22,61.71c1.78,0.41,3.46,0.19,5.07-0.06c4.1-0.64,9.62-1.36,14.09-1.81c1.68-0.17,3.38-0.29,5.05,0.09" style="fill:none;stroke:#999;stroke-width:3" />
<path d="M1461.78,72.7c2.47,0.83,5.43,0.32,7.97,0.07c6.86-0.69,19.03-2.05,27.87-2.44c2.68-0.12,5.41-0.27,8.06,0.26" style="fill:none;stroke:black;stroke-width:3" />
<circle cx="1461.78" cy="72.7" r="5" stroke-width="0" fill="#FF2A00" opacity="0.7" />
<path d="M1537.75,37.42c2.27,0.27,4.33,0.43,6.64-0.08c4.41-0.98,9.11-1.96,15.36-3.34c0.97-0.22,1.96-0.21,2.92-0.24" style="fill:none;stroke:#999;stroke-width:3" />
<path d="M1551.52,13.5c1.05,1.05,1.51,2.75,1.51,4.77c0,15.23-0.01,54.21-0.01,65.65c0,14.25-6.32,3.53-7.77,2" style="fill:none;stroke:#999;stroke-width:3" />
<path d="M1536.13,63.25c1.12,1,2.84,0.76,4.42-0.3c4.96-3.33,8.96-6.46,20.21-14.54" style="fill:none;stroke:#999;stroke-width:3" />
<path d="M1591.53,12.29c0.9,0.9,1.17,2.09,1.17,3.52c0,1.57-0.06,3.81-0.06,7.04" style="fill:none;stroke:#999;stroke-width:3" />
<path d="M1570.65,25.66c0,2.65-1.84,9.93-2.67,11.69" style="fill:none;stroke:#999;stroke-width:3" />
<path d="M1571.3600000000001,26.91c8.76-1.28,37.03-4.36,41.7-4.45c11.44-0.21,0.9,6.63-0.27,7.42" style="fill:none;stroke:#999;stroke-width:3" />
<path d="M1579.6599999999999,31.9c0.46,1.22-0.24,2.62-0.83,3.63c-1.96,3.34-7.21,11.2-11.44,14.75" style="fill:none;stroke:#999;stroke-width:3" />
<path d="M1581.0,36.9c1.93-0.19,4.51-0.99,7.52-1.71c2.74-0.66,3.68,0.62,3.01,2.52C1588.74,45.64 1579.6599999999999,56.45 1565.25,64" style="fill:none;stroke:#999;stroke-width:3" />
<path d="M1577.38,42.75c0.64,0.25,2.41,1.73,3.68,3.21" style="fill:none;stroke:#999;stroke-width:3" />
<path d="M1572.12,48.5c0.86,0.52,2.58,2.72,3.29,3.88" style="fill:none;stroke:#999;stroke-width:3" />
<path d="M1595.45,37.14c1.65,0.56,3.19,0.37,4.43,0c1.24-0.37,5.38-1.38,9.34-2.36c1.67-0.41,3.1,0.61,1.96,2.68C1609.0,41.38 1602.92,47.71 1598.59,50.89" style="fill:none;stroke:#999;stroke-width:3" />
<path d="M1594.51,43.23c2.49,0,17.04,11.29,18.65,12.37c1.61,1.08,5.54,3.23,7.86,3.77" style="fill:none;stroke:#999;stroke-width:3" />
<path d="M1580.22,61.71c1.78,0.41,3.46,0.19,5.07-0.06c4.1-0.64,9.62-1.36,14.09-1.81c1.68-0.17,3.38-0.29,5.05,0.09" style="fill:none;stroke:#999;stroke-width:3" />
<path d="M1570.78,72.7c2.47,0.83,5.43,0.32,7.97,0.07c6.86-0.69,19.03-2.05,27.87-2.44c2.68-0.12,5.41-0.27,8.06,0.26" style="fill:none;stroke:#999;stroke-width:3" />
<path d="M1592.17,73.66c0.64,0.65,1.01,1.71,1.01,3.38c0,6.71,0.04,11.65,0.04,15.36c0,7.34-4.79,0.87-6-0.06" style="fill:none;stroke:black;stroke-width:3" />
<circle cx="1592.17" cy="73.66" r="5" stroke-width="0" fill="#FF2A00" opacity="0.7" />
<path d="M1646.75,37.42c2.27,0.27,4.33,0.43,6.64-0.08c4.41-0.98,9.11-1.96,15.36-3.34c0.97-0.22,1.96-0.21,2.92-0.24" style="fill:none;stroke:#999;stroke-width:3" />
<path d="M1660.52,13.5c1.05,1.05,1.51,2.75,1.51,4.77c0,15.23-0.01,54.21-0.01,65.65c0,14.25-6.32,3.53-7.77,2" style="fill:none;stroke:#999;stroke-width:3" />
<path d="M1645.13,63.25c1.12,1,2.84,0.76,4.42-0.3c4.96-3.33,8.96-6.46,20.21-14.54" style="fill:none;stroke:#999;stroke-width:3" />
<path d="M1700.53,12.29c0.9,0.9,1.17,2.09,1.17,3.52c0,1.57-0.06,3.81-0.06,7.04" style="fill:none;stroke:#999;stroke-width:3" />
<path d="M1679.65,25.66c0,2.65-1.84,9.93-2.67,11.69" style="fill:none;stroke:#999;stroke-width:3" />
<path d="M1680.3600000000001,26.91c8.76-1.28,37.03-4.36,41.7-4.45c11.44-0.21,0.9,6.63-0.27,7.42" style="fill:none;stroke:#999;stroke-width:3" />
<path d="M1688.6599999999999,31.9c0.46,1.22-0.24,2.62-0.83,3.63c-1.96,3.34-7.21,11.2-11.44,14.75" style="fill:none;stroke:#999;stroke-width:3" />
<path d="M1690.0,36.9c1.93-0.19,4.51-0.99,7.52-1.71c2.74-0.66,3.68,0.62,3.01,2.52C1697.74,45.64 1688.6599999999999,56.45 1674.25,64" style="fill:none;stroke:#999;stroke-width:3" />
<path d="M1686.38,42.75c0.64,0.25,2.41,1.73,3.68,3.21" style="fill:none;stroke:#999;stroke-width:3" />
<path d="M1681.12,48.5c0.86,0.52,2.58,2.72,3.29,3.88" style="fill:none;stroke:#999;stroke-width:3" />
<path d="M1704.45,37.14c1.65,0.56,3.19,0.37,4.43,0c1.24-0.37,5.38-1.38,9.34-2.36c1.67-0.41,3.1,0.61,1.96,2.68C1718.0,41.38 1711.92,47.71 1707.59,50.89" style="fill:none;stroke:#999;stroke-width:3" />
<path d="M1703.51,43.23c2.49,0,17.04,11.29,18.65,12.37c1.61,1.08,5.54,3.23,7.86,3.77" style="fill:none;stroke:#999;stroke-width:3" />
<path d="M1689.22,61.71c1.78,0.41,3.46,0.19,5.07-0.06c4.1-0.64,9.62-1.36,14.09-1.81c1.68-0.17,3.38-0.29,5.05,0.09" style="fill:none;stroke:#999;stroke-width:3" />
<path d="M1679.78,72.7c2.47,0.83,5.43,0.32,7.97,0.07c6.86-0.69,19.03-2.05,27.87-2.44c2.68-0.12,5.41-0.27,8.06,0.26" style="fill:none;stroke:#999;stroke-width:3" />
<path d="M1701.17,73.66c0.64,0.65,1.01,1.71,1.01,3.38c0,6.71,0.04,11.65,0.04,15.36c0,7.34-4.79,0.87-6-0.06" style="fill:none;stroke:#999;stroke-width:3" />
<path d="M1688.44,80.67c0.1,0.94,0.02,1.28-0.58,2.04c-2.33,2.94-6.32,6.41-12.97,10.03" style="fill:none;stroke:black;stroke-width:3" />
<circle cx="1688.44" cy="80.67" r="5" stroke-width="0" fill="#FF2A00" opacity="0.7" />
<path d="M1755.75,37.42c2.27,0.27,4.33,0.43,6.64-0.08c4.41-0.98,9.11-1.96,15.36-3.34c0.97-0.22,1.96-0.21,2.92-0.24" style="fill:none;stroke:#999;stroke-width:3" />
<path d="M1769.52,13.5c1.05,1.05,1.51,2.75,1.51,4.77c0,15.23-0.01,54.21-0.01,65.65c0,14.25-6.32,3.53-7.77,2" style="fill:none;stroke:#999;stroke-width:3" />
<path d="M1754.13,63.25c1.12,1,2.84,0.76,4.42-0.3c4.96-3.33,8.96-6.46,20.21-14.54" style="fill:none;stroke:#999;stroke-width:3" />
<path d="M1809.53,12.29c0.9,0.9,1.17,2.09,1.17,3.52c0,1.57-0.06,3.81-0.06,7.04" style="fill:none;stroke:#999;stroke-width:3" />
<path d="M1788.65,25.66c0,2.65-1.84,9.93-2.67,11.69" style="fill:none;stroke:#999;stroke-width:3" />
<path d="M1789.3600000000001,26.91c8.76-1.28,37.03-4.36,41.7-4.45c11.44-0.21,0.9,6.63-0.27,7.42" style="fill:none;stroke:#999;stroke-width:3" />
<path d="M1797.6599999999999,31.9c0.46,1.22-0.24,2.62-0.83,3.63c-1.96,3.34-7.21,11.2-11.44,14.75" style="fill:none;stroke:#999;stroke-width:3" />
<path d="M1799.0,36.9c1.93-0.19,4.51-0.99,7.52-1.71c2.74-0.66,3.68,0.62,3.01,2.52C1806.74,45.64 1797.6599999999999,56.45 1783.25,64" style="fill:none;stroke:#999;stroke-width:3" />
<path d="M1795.38,42.75c0.64,0.25,2.41,1.73,3.68,3.21" style="fill:none;stroke:#999;stroke-width:3" />
<path d="M1790.12,48.5c0.86,0.52,2.58,2.72,3.29,3.88" style="fill:none;stroke:#999;stroke-width:3" />
<path d="M1813.45,37.14c1.65,0.56,3.19,0.37,4.43,0c1.24-0.37,5.38-1.38,9.34-2.36c1.67-0.41,3.1,0.61,1.96,2.68C1827.0,41.38 1820.92,47.71 1816.59,50.89" style="fill:none;stroke:#999;stroke-width:3" />
<path d="M1812.51,43.23c2.49,0,17.04,11.29,18.65,12.37c1.61,1.08,5.54,3.23,7.86,3.77" style="fill:none;stroke:#999;stroke-width:3" />
<path d="M1798.22,61.71c1.78,0.41,3.46,0.19,5.07-0.06c4.1-0.64,9.62-1.36,14.09-1.81c1.68-0.17,3.38-0.29,5.05,0.09" style="fill:none;stroke:#999;stroke-width:3" />
<path d="M1788.78,72.7c2.47,0.83,5.43,0.32,7.97,0.07c6.86-0.69,19.03-2.05,27.87-2.44c2.68-0.12,5.41-0.27,8.06,0.26" style="fill:none;stroke:#999;stroke-width:3" />
<path d="M1810.17,73.66c0.64,0.65,1.01,1.71,1.01,3.38c0,6.71,0.04,11.65,0.04,15.36c0,7.34-4.79,0.87-6-0.06" style="fill:none;stroke:#999;stroke-width:3" />
<path d="M1797.44,80.67c0.1,0.94,0.02,1.28-0.58,2.04c-2.33,2.94-6.32,6.41-12.97,10.03" style="fill:none;stroke:#999;stroke-width:3" />
<path d="M1820.38,79.97c3.88,1.88,10.22,7.53,11.19,10.46" style="fill:none;stroke:black;stroke-width:3" />
<circle cx="1820.38" cy="79.97" r="5" stroke-width="0" fill="#FF2A00" opacity="0.7" />
</svg>