<!-- 064ef -->
<svg width="1853px" height="109px" viewBox="0 0 1853px 109px" xmlns="http://www.w3.org/2000/svg" xmlns:xlink="http://www.w3.org/1999/xlink" xml:space="preserve" version="1.1"  baseProfile="full">
<line x1="1" y1="1" x2="1852" y2="1" style="stroke:#ddd;stroke-width:2" />
<line x1="1" y1="1" x2="1" y2="108" style="stroke:#ddd;stroke-width:2" />
<line x1="1" y1="108" x2="1852" y2="108" style="stroke:#ddd;stroke-width:2" />
<line x1="1852" y1="1" x2="1852" y2="108" style="stroke:#ddd;stroke-width:2" />
<line x1="109" y1="1" x2="109" y2="108" style="stroke:#ddd;stroke-width:2" />
<line x1="218" y1="1" x2="218" y2="108" style="stroke:#ddd;stroke-width:2" />
<line x1="327" y1="1" x2="327" y2="108" style="stroke:#ddd;stroke-width:2" />
<line x1="436" y1="1" x2="436" y2="108" style="stroke:#ddd;stroke-width:2" />
<line x1="545" y1="1" x2="545" y2="108" style="stroke:#ddd;stroke-width:2" />
<line x1="654" y1="1" x2="654" y2="108" style="stroke:#ddd;stroke-width:2" />
<line x1="763" y1="1" x2="763" y2="108" style="stroke:#ddd;stroke-width:2" />
<line x1="872" y1="1" x2="872" y2="108" style="stroke:#ddd;stroke-width:2" />
<line x1="981" y1="1" x2="981" y2="108" style="stroke:#ddd;stroke-width:2" />
<line x1="1090" y1="1" x2="1090" y2="108" style="stroke:#ddd;stroke-width:2" />
<line x1="1199" y1="1" x2="1199" y2="108" style="stroke:#ddd;stroke-width:2" />
<line x1="1308" y1="1" x2="1308" y2="108" style="stroke:#ddd;stroke-width:2" />
<line x1="1417" y1="1" x2="1417" y2="108" style="stroke:#ddd;stroke-width:2" />
<line x1="1526" y1="1" x2="1526" y2="108" style="stroke:#ddd;stroke-width:2" />
<line x1="1635" y1="1" x2="1635" y2="108" style="stroke:#ddd;stroke-width:2" />
<line x1="1744" y1="1" x2="1744" y2="108" style="stroke:#ddd;stroke-width:2" />
<line x1="1" y1="54" x2="1852" y2="54" style="stroke:#ddd;stroke-width:2;stroke-dasharray:3 3" />
<line x1="55" y1="1" x2="55" y2="108" style="stroke:#ddd;stroke-width:2;stroke-dasharray:3 3" />
<line x1="164" y1="1" x2="164" y2="108" style="stroke:#ddd;stroke-width:2;stroke-dasharray:3 3" />
<line x1="273" y1="1" x2="273" y2="108" style="stroke:#ddd;stroke-width:2;stroke-dasharray:3 3" />
<line x1="382" y1="1" x2="382" y2="108" style="stroke:#ddd;stroke-width:2;stroke-dasharray:3 3" />
<line x1="491" y1="1" x2="491" y2="108" style="stroke:#ddd;stroke-width:2;stroke-dasharray:3 3" />
<line x1="600" y1="1" x2="600" y2="108" style="stroke:#ddd;stroke-width:2;stroke-dasharray:3 3" />
<line x1="709" y1="1" x2="709" y2="108" style="stroke:#ddd;stroke-width:2;stroke-dasharray:3 3" />
<line x1="818" y1="1" x2="818" y2="108" style="stroke:#ddd;stroke-width:2;stroke-dasharray:3 3" />
<line x1="927" y1="1" x2="927" y2="108" style="stroke:#ddd;stroke-width:2;stroke-dasharray:3 3" />
<line x1="1036" y1="1" x2="1036" y2="108" style="stroke:#ddd;stroke-width:2;stroke-dasharray:3 3" />
<line x1="1145" y1="1" x2="1145" y2="108" style="stroke:#ddd;stroke-width:2;stroke-dasharray:3 3" />
<line x1="1254" y1="1" x2="1254" y2="108" style="stroke:#ddd;stroke-width:2;stroke-dasharray:3 3" />
<line x1="1363" y1="1" x2="1363" y2="108" style="stroke:#ddd;stroke-width:2;stroke-dasharray:3 3" />
<line x1="1472" y1="1" x2="1472" y2="108" style="stroke:#ddd;stroke-width:2;stroke-dasharray:3 3" />
<line x1="1581" y1="1" x2="1581" y2="108" style="stroke:#ddd;stroke-width:2;stroke-dasharray:3 3" />
<line x1="1690" y1="1" x2="1690" y2="108" style="stroke:#ddd;stroke-width:2;stroke-dasharray:3 3" />
<line x1="1799" y1="1" x2="1799" y2="108" style="stroke:#ddd;stroke-width:2;stroke-dasharray:3 3" />
<path d="M11.0,34.92c2.08,0.25,1.27,0.55,3.5,0.25c5.5-0.75,12.5-1.5,21.67-2.67" style="fill:none;stroke:black;stroke-width:3" />
<circle cx="11.0" cy="34.92" r="5" stroke-width="0" fill="#FF2A00" opacity="0.7" />
<path d="M120.0,34.92c2.08,0.25,1.27,0.55,3.5,0.25c5.5-0.75,12.5-1.5,21.67-2.67" style="fill:none;stroke:#999;stroke-width:3" />
<path d="M134.32,13c0.5,0.94,1.81,2.56,1.81,5.69c0,15.7,0.25,58.21,0.25,70c0,14.69-6.52,3.64-8.01,2.06" style="fill:none;stroke:black;stroke-width:3" />
<circle cx="134.32" cy="13.0" r="5" stroke-width="0" fill="#FF2A00" opacity="0.7" />
<path d="M229.0,34.92c2.08,0.25,1.27,0.55,3.5,0.25c5.5-0.75,12.5-1.5,21.67-2.67" style="fill:none;stroke:#999;stroke-width:3" />
<path d="M243.32,13c0.5,0.94,1.81,2.56,1.81,5.69c0,15.7,0.25,58.21,0.25,70c0,14.69-6.52,3.64-8.01,2.06" style="fill:none;stroke:#999;stroke-width:3" />
<path d="M229.0,62.46c0.92,1.09,2.38,1.73,4.41,0.72c1.2-0.59,16.84-10.43,23.02-14.52" style="fill:none;stroke:black;stroke-width:3" />
<circle cx="229.0" cy="62.46" r="5" stroke-width="0" fill="#FF2A00" opacity="0.7" />
<path d="M338.0,34.92c2.08,0.25,1.27,0.55,3.5,0.25c5.5-0.75,12.5-1.5,21.67-2.67" style="fill:none;stroke:#999;stroke-width:3" />
<path d="M352.32,13c0.5,0.94,1.81,2.56,1.81,5.69c0,15.7,0.25,58.21,0.25,70c0,14.69-6.52,3.64-8.01,2.06" style="fill:none;stroke:#999;stroke-width:3" />
<path d="M338.0,62.46c0.92,1.09,2.38,1.73,4.41,0.72c1.2-0.59,16.84-10.43,23.02-14.52" style="fill:none;stroke:#999;stroke-width:3" />
<path d="M392.15,10.55c0.87,0.34,2.11,2.02,2.09,3c-0.06,3.1-0.06,7.63-0.07,10.46" style="fill:none;stroke:black;stroke-width:3" />
<circle cx="392.15" cy="10.55" r="5" stroke-width="0" fill="#FF2A00" opacity="0.7" />
<path d="M447.0,34.92c2.08,0.25,1.27,0.55,3.5,0.25c5.5-0.75,12.5-1.5,21.67-2.67" style="fill:none;stroke:#999;stroke-width:3" />
<path d="M461.32,13c0.5,0.94,1.81,2.56,1.81,5.69c0,15.7,0.25,58.21,0.25,70c0,14.69-6.52,3.64-8.01,2.06" style="fill:none;stroke:#999;stroke-width:3" />
<path d="M447.0,62.46c0.92,1.09,2.38,1.73,4.41,0.72c1.2-0.59,16.84-10.43,23.02-14.52" style="fill:none;stroke:#999;stroke-width:3" />
<path d="M501.15,10.55c0.87,0.34,2.11,2.02,2.09,3c-0.06,3.1-0.06,7.63-0.07,10.46" style="fill:none;stroke:#999;stroke-width:3" />
<path d="M481.65,23.89c0,3.19-2.99,13.03-4.13,15.16" style="fill:none;stroke:black;stroke-width:3" />
<circle cx="481.65" cy="23.89" r="5" stroke-width="0" fill="#FF2A00" opacity="0.7" />
<path d="M556.0,34.92c2.08,0.25,1.27,0.55,3.5,0.25c5.5-0.75,12.5-1.5,21.67-2.67" style="fill:none;stroke:#999;stroke-width:3" />
<path d="M570.3199999999999,13c0.5,0.94,1.81,2.56,1.81,5.69c0,15.7,0.25,58.21,0.25,70c0,14.69-6.52,3.64-8.01,2.06" style="fill:none;stroke:#999;stroke-width:3" />
<path d="M556.0,62.46c0.92,1.09,2.38,1.73,4.41,0.72c1.2-0.59,16.84-10.43,23.02-14.52" style="fill:none;stroke:#999;stroke-width:3" />
<path d="M610.15,10.55c0.87,0.34,2.11,2.02,2.09,3c-0.06,3.1-0.06,7.63-0.07,10.46" style="fill:none;stroke:#999;stroke-width:3" />
<path d="M590.65,23.89c0,3.19-2.99,13.03-4.13,15.16" style="fill:none;stroke:#999;stroke-width:3" />
<path d="M590.56,26.21c6.48-0.83,41.03-3.79,46.28-4.1c8.21-0.49,1.24,7-0.81,8.76" style="fill:none;stroke:black;stroke-width:3" />
<circle cx="590.56" cy="26.21" r="5" stroke-width="0" fill="#FF2A00" opacity="0.7" />
<path d="M665.0,34.92c2.08,0.25,1.27,0.55,3.5,0.25c5.5-0.75,12.5-1.5,21.67-2.67" style="fill:none;stroke:#999;stroke-width:3" />
<path d="M679.3199999999999,13c0.5,0.94,1.81,2.56,1.81,5.69c0,15.7,0.25,58.21,0.25,70c0,14.69-6.52,3.64-8.01,2.06" style="fill:none;stroke:#999;stroke-width:3" />
<path d="M665.0,62.46c0.92,1.09,2.38,1.73,4.41,0.72c1.2-0.59,16.84-10.43,23.02-14.52" style="fill:none;stroke:#999;stroke-width:3" />
<path d="M719.15,10.55c0.87,0.34,2.11,2.02,2.09,3c-0.06,3.1-0.06,7.63-0.07,10.46" style="fill:none;stroke:#999;stroke-width:3" />
<path d="M699.65,23.89c0,3.19-2.99,13.03-4.13,15.16" style="fill:none;stroke:#999;stroke-width:3" />
<path d="M699.56,26.21c6.48-0.83,41.03-3.79,46.28-4.1c8.21-0.49,1.24,7-0.81,8.76" style="fill:none;stroke:#999;stroke-width:3" />
<path d="M705.58,32.31c0.73,0.35,2.05,0.39,2.78,0.35c4.94-0.25,22.3-2.81,26.32-3.15c1.2-0.1,1.93,0.17,2.54,0.35" style="fill:none;stroke:black;stroke-width:3" />
<circle cx="705.58" cy="32.31" r="5" stroke-width="0" fill="#FF2A00" opacity="0.7" />
<path d="M774.0,34.92c2.08,0.25,1.27,0.55,3.5,0.25c5.5-0.75,12.5-1.5,21.67-2.67" style="fill:none;stroke:#999;stroke-width:3" />
<path d="M788.3199999999999,13c0.5,0.94,1.81,2.56,1.81,5.69c0,15.7,0.25,58.21,0.25,70c0,14.69-6.52,3.64-8.01,2.06" style="fill:none;stroke:#999;stroke-width:3" />
<path d="M774.0,62.46c0.92,1.09,2.38,1.73,4.41,0.72c1.2-0.59,16.84-10.43,23.02-14.52" style="fill:none;stroke:#999;stroke-width:3" />
<path d="M828.15,10.55c0.87,0.34,2.11,2.02,2.09,3c-0.06,3.1-0.06,7.63-0.07,10.46" style="fill:none;stroke:#999;stroke-width:3" />
<path d="M808.65,23.89c0,3.19-2.99,13.03-4.13,15.16" style="fill:none;stroke:#999;stroke-width:3" />
<path d="M808.56,26.21c6.48-0.83,41.03-3.79,46.28-4.1c8.21-0.49,1.24,7-0.81,8.76" style="fill:none;stroke:#999;stroke-width:3" />
<path d="M814.58,32.31c0.73,0.35,2.05,0.39,2.78,0.35c4.94-0.25,22.3-2.81,26.32-3.15c1.2-0.1,1.93,0.17,2.54,0.35" style="fill:none;stroke:#999;stroke-width:3" />
<path d="M829.7,34.11c0.05,0.21,0.63,1.12,0.67,2.48c0.22,6.54-0.14,5.97-0.14,8.2c0,6.32-3.87,0.67-4.68,0.11" style="fill:none;stroke:black;stroke-width:3" />
<circle cx="829.7" cy="34.11" r="5" stroke-width="0" fill="#FF2A00" opacity="0.7" />
<path d="M883.0,34.92c2.08,0.25,1.27,0.55,3.5,0.25c5.5-0.75,12.5-1.5,21.67-2.67" style="fill:none;stroke:#999;stroke-width:3" />
<path d="M897.3199999999999,13c0.5,0.94,1.81,2.56,1.81,5.69c0,15.7,0.25,58.21,0.25,70c0,14.69-6.52,3.64-8.01,2.06" style="fill:none;stroke:#999;stroke-width:3" />
<path d="M883.0,62.46c0.92,1.09,2.38,1.73,4.41,0.72c1.2-0.59,16.84-10.43,23.02-14.52" style="fill:none;stroke:#999;stroke-width:3" />
<path d="M937.15,10.55c0.87,0.34,2.11,2.02,2.09,3c-0.06,3.1-0.06,7.63-0.07,10.46" style="fill:none;stroke:#999;stroke-width:3" />
<path d="M917.65,23.89c0,3.19-2.99,13.03-4.13,15.16" style="fill:none;stroke:#999;stroke-width:3" />
<path d="M917.56,26.21c6.48-0.83,41.03-3.79,46.28-4.1c8.21-0.49,1.24,7-0.81,8.76" style="fill:none;stroke:#999;stroke-width:3" />
<path d="M923.58,32.31c0.73,0.35,2.05,0.39,2.78,0.35c4.94-0.25,22.3-2.81,26.32-3.15c1.2-0.1,1.93,0.17,2.54,0.35" style="fill:none;stroke:#999;stroke-width:3" />
<path d="M938.7,34.11c0.05,0.21,0.63,1.12,0.67,2.48c0.22,6.54-0.14,5.97-0.14,8.2c0,6.32-3.87,0.67-4.68,0.11" style="fill:none;stroke:#999;stroke-width:3" />
<path d="M925.95,39.54c0.03,0.31,0.11,0.82-0.06,1.25c-1.24,3.11-6.46,9.1-10.71,11.96" style="fill:none;stroke:black;stroke-width:3" />
<circle cx="925.95" cy="39.54" r="5" stroke-width="0" fill="#FF2A00" opacity="0.7" />
<path d="M992.0,34.92c2.08,0.25,1.27,0.55,3.5,0.25c5.5-0.75,12.5-1.5,21.67-2.67" style="fill:none;stroke:#999;stroke-width:3" />
<path d="M1006.3199999999999,13c0.5,0.94,1.81,2.56,1.81,5.69c0,15.7,0.25,58.21,0.25,70c0,14.69-6.52,3.64-8.01,2.06" style="fill:none;stroke:#999;stroke-width:3" />
<path d="M992.0,62.46c0.92,1.09,2.38,1.73,4.41,0.72c1.2-0.59,16.84-10.43,23.02-14.52" style="fill:none;stroke:#999;stroke-width:3" />
<path d="M1046.15,10.55c0.87,0.34,2.11,2.02,2.09,3c-0.06,3.1-0.06,7.63-0.07,10.46" style="fill:none;stroke:#999;stroke-width:3" />
<path d="M1026.65,23.89c0,3.19-2.99,13.03-4.13,15.16" style="fill:none;stroke:#999;stroke-width:3" />
<path d="M1026.56,26.21c6.48-0.83,41.03-3.79,46.28-4.1c8.21-0.49,1.24,7-0.81,8.76" style="fill:none;stroke:#999;stroke-width:3" />
<path d="M1032.58,32.31c0.73,0.35,2.05,0.39,2.78,0.35c4.94-0.25,22.3-2.81,26.32-3.15c1.2-0.1,1.93,0.17,2.54,0.35" style="fill:none;stroke:#999;stroke-width:3" />
<path d="M1047.7,34.11c0.05,0.21,0.63,1.12,0.67,2.48c0.22,6.54-0.14,5.97-0.14,8.2c0,6.32-3.87,0.67-4.68,0.11" style="fill:none;stroke:#999;stroke-width:3" />
<path d="M1034.95,39.54c0.03,0.31,0.11,0.82-0.06,1.25c-1.24,3.11-6.46,9.1-10.71,11.96" style="fill:none;stroke:#999;stroke-width:3" />
<path d="M1063.17,36.8c0.12,0.61,0.01,2.14-0.69,2.9c-6.36,6.88-22.28,16.03-42.23,22.83" style="fill:none;stroke:black;stroke-width:3" />
<circle cx="1063.17" cy="36.8" r="5" stroke-width="0" fill="#FF2A00" opacity="0.7" />
<path d="M1101.0,34.92c2.08,0.25,1.27,0.55,3.5,0.25c5.5-0.75,12.5-1.5,21.67-2.67" style="fill:none;stroke:#999;stroke-width:3" />
<path d="M1115.32,13c0.5,0.94,1.81,2.56,1.81,5.69c0,15.7,0.25,58.21,0.25,70c0,14.69-6.52,3.64-8.01,2.06" style="fill:none;stroke:#999;stroke-width:3" />
<path d="M1101.0,62.46c0.92,1.09,2.38,1.73,4.41,0.72c1.2-0.59,16.84-10.43,23.02-14.52" style="fill:none;stroke:#999;stroke-width:3" />
<path d="M1155.15,10.55c0.87,0.34,2.11,2.02,2.09,3c-0.06,3.1-0.06,7.63-0.07,10.46" style="fill:none;stroke:#999;stroke-width:3" />
<path d="M1135.65,23.89c0,3.19-2.99,13.03-4.13,15.16" style="fill:none;stroke:#999;stroke-width:3" />
<path d="M1135.56,26.21c6.48-0.83,41.03-3.79,46.28-4.1c8.21-0.49,1.24,7-0.81,8.76" style="fill:none;stroke:#999;stroke-width:3" />
<path d="M1141.58,32.31c0.73,0.35,2.05,0.39,2.78,0.35c4.94-0.25,22.3-2.81,26.32-3.15c1.2-0.1,1.93,0.17,2.54,0.35" style="fill:none;stroke:#999;stroke-width:3" />
<path d="M1156.7,34.11c0.05,0.21,0.63,1.12,0.67,2.48c0.22,6.54-0.14,5.97-0.14,8.2c0,6.32-3.87,0.67-4.68,0.11" style="fill:none;stroke:#999;stroke-width:3" />
<path d="M1143.95,39.54c0.03,0.31,0.11,0.82-0.06,1.25c-1.24,3.11-6.46,9.1-10.71,11.96" style="fill:none;stroke:#999;stroke-width:3" />
<path d="M1172.17,36.8c0.12,0.61,0.01,2.14-0.69,2.9c-6.36,6.88-22.28,16.03-42.23,22.83" style="fill:none;stroke:#999;stroke-width:3" />
<path d="M1146.55,56.48c0.77,1.08,1.17,1.84,1.17,3.59c0,3.99-0.35,13.7-0.35,25.22" style="fill:none;stroke:black;stroke-width:3" />
<circle cx="1146.55" cy="56.48" r="5" stroke-width="0" fill="#FF2A00" opacity="0.7" />
<path d="M1210.0,34.92c2.08,0.25,1.27,0.55,3.5,0.25c5.5-0.75,12.5-1.5,21.67-2.67" style="fill:none;stroke:#999;stroke-width:3" />
<path d="M1224.32,13c0.5,0.94,1.81,2.56,1.81,5.69c0,15.7,0.25,58.21,0.25,70c0,14.69-6.52,3.64-8.01,2.06" style="fill:none;stroke:#999;stroke-width:3" />
<path d="M1210.0,62.46c0.92,1.09,2.38,1.73,4.41,0.72c1.2-0.59,16.84-10.43,23.02-14.52" style="fill:none;stroke:#999;stroke-width:3" />
<path d="M1264.15,10.55c0.87,0.34,2.11,2.02,2.09,3c-0.06,3.1-0.06,7.63-0.07,10.46" style="fill:none;stroke:#999;stroke-width:3" />
<path d="M1244.65,23.89c0,3.19-2.99,13.03-4.13,15.16" style="fill:none;stroke:#999;stroke-width:3" />
<path d="M1244.56,26.21c6.48-0.83,41.03-3.79,46.28-4.1c8.21-0.49,1.24,7-0.81,8.76" style="fill:none;stroke:#999;stroke-width:3" />
<path d="M1250.58,32.31c0.73,0.35,2.05,0.39,2.78,0.35c4.94-0.25,22.3-2.81,26.32-3.15c1.2-0.1,1.93,0.17,2.54,0.35" style="fill:none;stroke:#999;stroke-width:3" />
<path d="M1265.7,34.11c0.05,0.21,0.63,1.12,0.67,2.48c0.22,6.54-0.14,5.97-0.14,8.2c0,6.32-3.87,0.67-4.68,0.11" style="fill:none;stroke:#999;stroke-width:3" />
<path d="M1252.95,39.54c0.03,0.31,0.11,0.82-0.06,1.25c-1.24,3.11-6.46,9.1-10.71,11.96" style="fill:none;stroke:#999;stroke-width:3" />
<path d="M1281.17,36.8c0.12,0.61,0.01,2.14-0.69,2.9c-6.36,6.88-22.28,16.03-42.23,22.83" style="fill:none;stroke:#999;stroke-width:3" />
<path d="M1255.55,56.48c0.77,1.08,1.17,1.84,1.17,3.59c0,3.99-0.35,13.7-0.35,25.22" style="fill:none;stroke:#999;stroke-width:3" />
<path d="M1257.51,57.47c2.68-0.22,23.12-2.5,25.56-2.76c2.04-0.22,3.12,1.21,3.12,2.86c0,4.02-0.6,25.04-0.6,26.36" style="fill:none;stroke:black;stroke-width:3" />
<circle cx="1257.51" cy="57.47" r="5" stroke-width="0" fill="#FF2A00" opacity="0.7" />
<path d="M1319.0,34.92c2.08,0.25,1.27,0.55,3.5,0.25c5.5-0.75,12.5-1.5,21.67-2.67" style="fill:none;stroke:#999;stroke-width:3" />
<path d="M1333.32,13c0.5,0.94,1.81,2.56,1.81,5.69c0,15.7,0.25,58.21,0.25,70c0,14.69-6.52,3.64-8.01,2.06" style="fill:none;stroke:#999;stroke-width:3" />
<path d="M1319.0,62.46c0.92,1.09,2.38,1.73,4.41,0.72c1.2-0.59,16.84-10.43,23.02-14.52" style="fill:none;stroke:#999;stroke-width:3" />
<path d="M1373.15,10.55c0.87,0.34,2.11,2.02,2.09,3c-0.06,3.1-0.06,7.63-0.07,10.46" style="fill:none;stroke:#999;stroke-width:3" />
<path d="M1353.65,23.89c0,3.19-2.99,13.03-4.13,15.16" style="fill:none;stroke:#999;stroke-width:3" />
<path d="M1353.56,26.21c6.48-0.83,41.03-3.79,46.28-4.1c8.21-0.49,1.24,7-0.81,8.76" style="fill:none;stroke:#999;stroke-width:3" />
<path d="M1359.58,32.31c0.73,0.35,2.05,0.39,2.78,0.35c4.94-0.25,22.3-2.81,26.32-3.15c1.2-0.1,1.93,0.17,2.54,0.35" style="fill:none;stroke:#999;stroke-width:3" />
<path d="M1374.7,34.11c0.05,0.21,0.63,1.12,0.67,2.48c0.22,6.54-0.14,5.97-0.14,8.2c0,6.32-3.87,0.67-4.68,0.11" style="fill:none;stroke:#999;stroke-width:3" />
<path d="M1361.95,39.54c0.03,0.31,0.11,0.82-0.06,1.25c-1.24,3.11-6.46,9.1-10.71,11.96" style="fill:none;stroke:#999;stroke-width:3" />
<path d="M1390.17,36.8c0.12,0.61,0.01,2.14-0.69,2.9c-6.36,6.88-22.28,16.03-42.23,22.83" style="fill:none;stroke:#999;stroke-width:3" />
<path d="M1364.55,56.48c0.77,1.08,1.17,1.84,1.17,3.59c0,3.99-0.35,13.7-0.35,25.22" style="fill:none;stroke:#999;stroke-width:3" />
<path d="M1366.51,57.47c2.68-0.22,23.12-2.5,25.56-2.76c2.04-0.22,3.12,1.21,3.12,2.86c0,4.02-0.6,25.04-0.6,26.36" style="fill:none;stroke:#999;stroke-width:3" />
<path d="M1365.77,65.97c5.01-0.33,24.46-2.37,28.76-2.37" style="fill:none;stroke:black;stroke-width:3" />
<circle cx="1365.77" cy="65.97" r="5" stroke-width="0" fill="#FF2A00" opacity="0.7" />
<path d="M1428.0,34.92c2.08,0.25,1.27,0.55,3.5,0.25c5.5-0.75,12.5-1.5,21.67-2.67" style="fill:none;stroke:#999;stroke-width:3" />
<path d="M1442.32,13c0.5,0.94,1.81,2.56,1.81,5.69c0,15.7,0.25,58.21,0.25,70c0,14.69-6.52,3.64-8.01,2.06" style="fill:none;stroke:#999;stroke-width:3" />
<path d="M1428.0,62.46c0.92,1.09,2.38,1.73,4.41,0.72c1.2-0.59,16.84-10.43,23.02-14.52" style="fill:none;stroke:#999;stroke-width:3" />
<path d="M1482.15,10.55c0.87,0.34,2.11,2.02,2.09,3c-0.06,3.1-0.06,7.63-0.07,10.46" style="fill:none;stroke:#999;stroke-width:3" />
<path d="M1462.65,23.89c0,3.19-2.99,13.03-4.13,15.16" style="fill:none;stroke:#999;stroke-width:3" />
<path d="M1462.56,26.21c6.48-0.83,41.03-3.79,46.28-4.1c8.21-0.49,1.24,7-0.81,8.76" style="fill:none;stroke:#999;stroke-width:3" />
<path d="M1468.58,32.31c0.73,0.35,2.05,0.39,2.78,0.35c4.94-0.25,22.3-2.81,26.32-3.15c1.2-0.1,1.93,0.17,2.54,0.35" style="fill:none;stroke:#999;stroke-width:3" />
<path d="M1483.7,34.11c0.05,0.21,0.63,1.12,0.67,2.48c0.22,6.54-0.14,5.97-0.14,8.2c0,6.32-3.87,0.67-4.68,0.11" style="fill:none;stroke:#999;stroke-width:3" />
<path d="M1470.95,39.54c0.03,0.31,0.11,0.82-0.06,1.25c-1.24,3.11-6.46,9.1-10.71,11.96" style="fill:none;stroke:#999;stroke-width:3" />
<path d="M1499.17,36.8c0.12,0.61,0.01,2.14-0.69,2.9c-6.36,6.88-22.28,16.03-42.23,22.83" style="fill:none;stroke:#999;stroke-width:3" />
<path d="M1473.55,56.48c0.77,1.08,1.17,1.84,1.17,3.59c0,3.99-0.35,13.7-0.35,25.22" style="fill:none;stroke:#999;stroke-width:3" />
<path d="M1475.51,57.47c2.68-0.22,23.12-2.5,25.56-2.76c2.04-0.22,3.12,1.21,3.12,2.86c0,4.02-0.6,25.04-0.6,26.36" style="fill:none;stroke:#999;stroke-width:3" />
<path d="M1474.77,65.97c5.01-0.33,24.46-2.37,28.76-2.37" style="fill:none;stroke:#999;stroke-width:3" />
<path d="M1474.99,74.58c7.57-0.64,20.55-1.94,28.57-2.07" style="fill:none;stroke:black;stroke-width:3" />
<circle cx="1474.99" cy="74.58" r="5" stroke-width="0" fill="#FF2A00" opacity="0.7" />
<path d="M1537.0,34.92c2.08,0.25,1.27,0.55,3.5,0.25c5.5-0.75,12.5-1.5,21.67-2.67" style="fill:none;stroke:#999;stroke-width:3" />
<path d="M1551.32,13c0.5,0.94,1.81,2.56,1.81,5.69c0,15.7,0.25,58.21,0.25,70c0,14.69-6.52,3.64-8.01,2.06" style="fill:none;stroke:#999;stroke-width:3" />
<path d="M1537.0,62.46c0.92,1.09,2.38,1.73,4.41,0.72c1.2-0.59,16.84-10.43,23.02-14.52" style="fill:none;stroke:#999;stroke-width:3" />
<path d="M1591.15,10.55c0.87,0.34,2.11,2.02,2.09,3c-0.06,3.1-0.06,7.63-0.07,10.46" style="fill:none;stroke:#999;stroke-width:3" />
<path d="M1571.65,23.89c0,3.19-2.99,13.03-4.13,15.16" style="fill:none;stroke:#999;stroke-width:3" />
<path d="M1571.56,26.21c6.48-0.83,41.03-3.79,46.28-4.1c8.21-0.49,1.24,7-0.81,8.76" style="fill:none;stroke:#999;stroke-width:3" />
<path d="M1577.58,32.31c0.73,0.35,2.05,0.39,2.78,0.35c4.94-0.25,22.3-2.81,26.32-3.15c1.2-0.1,1.93,0.17,2.54,0.35" style="fill:none;stroke:#999;stroke-width:3" />
<path d="M1592.7,34.11c0.05,0.21,0.63,1.12,0.67,2.48c0.22,6.54-0.14,5.97-0.14,8.2c0,6.32-3.87,0.67-4.68,0.11" style="fill:none;stroke:#999;stroke-width:3" />
<path d="M1579.95,39.54c0.03,0.31,0.11,0.82-0.06,1.25c-1.24,3.11-6.46,9.1-10.71,11.96" style="fill:none;stroke:#999;stroke-width:3" />
<path d="M1608.17,36.8c0.12,0.61,0.01,2.14-0.69,2.9c-6.36,6.88-22.28,16.03-42.23,22.83" style="fill:none;stroke:#999;stroke-width:3" />
<path d="M1582.55,56.48c0.77,1.08,1.17,1.84,1.17,3.59c0,3.99-0.35,13.7-0.35,25.22" style="fill:none;stroke:#999;stroke-width:3" />
<path d="M1584.51,57.47c2.68-0.22,23.12-2.5,25.56-2.76c2.04-0.22,3.12,1.21,3.12,2.86c0,4.02-0.6,25.04-0.6,26.36" style="fill:none;stroke:#999;stroke-width:3" />
<path d="M1583.77,65.97c5.01-0.33,24.46-2.37,28.76-2.37" style="fill:none;stroke:#999;stroke-width:3" />
<path d="M1583.99,74.58c7.57-0.64,20.55-1.94,28.57-2.07" style="fill:none;stroke:#999;stroke-width:3" />
<path d="M1583.64,83.3c7.57-0.48,22.02-1.75,28.92-1.75" style="fill:none;stroke:black;stroke-width:3" />
<circle cx="1583.64" cy="83.3" r="5" stroke-width="0" fill="#FF2A00" opacity="0.7" />
<path d="M1646.0,34.92c2.08,0.25,1.27,0.55,3.5,0.25c5.5-0.75,12.5-1.5,21.67-2.67" style="fill:none;stroke:#999;stroke-width:3" />
<path d="M1660.32,13c0.5,0.94,1.81,2.56,1.81,5.69c0,15.7,0.25,58.21,0.25,70c0,14.69-6.52,3.64-8.01,2.06" style="fill:none;stroke:#999;stroke-width:3" />
<path d="M1646.0,62.46c0.92,1.09,2.38,1.73,4.41,0.72c1.2-0.59,16.84-10.43,23.02-14.52" style="fill:none;stroke:#999;stroke-width:3" />
<path d="M1700.15,10.55c0.87,0.34,2.11,2.02,2.09,3c-0.06,3.1-0.06,7.63-0.07,10.46" style="fill:none;stroke:#999;stroke-width:3" />
<path d="M1680.65,23.89c0,3.19-2.99,13.03-4.13,15.16" style="fill:none;stroke:#999;stroke-width:3" />
<path d="M1680.56,26.21c6.48-0.83,41.03-3.79,46.28-4.1c8.21-0.49,1.24,7-0.81,8.76" style="fill:none;stroke:#999;stroke-width:3" />
<path d="M1686.58,32.31c0.73,0.35,2.05,0.39,2.78,0.35c4.94-0.25,22.3-2.81,26.32-3.15c1.2-0.1,1.93,0.17,2.54,0.35" style="fill:none;stroke:#999;stroke-width:3" />
<path d="M1701.7,34.11c0.05,0.21,0.63,1.12,0.67,2.48c0.22,6.54-0.14,5.97-0.14,8.2c0,6.32-3.87,0.67-4.68,0.11" style="fill:none;stroke:#999;stroke-width:3" />
<path d="M1688.95,39.54c0.03,0.31,0.11,0.82-0.06,1.25c-1.24,3.11-6.46,9.1-10.71,11.96" style="fill:none;stroke:#999;stroke-width:3" />
<path d="M1717.17,36.8c0.12,0.61,0.01,2.14-0.69,2.9c-6.36,6.88-22.28,16.03-42.23,22.83" style="fill:none;stroke:#999;stroke-width:3" />
<path d="M1691.55,56.48c0.77,1.08,1.17,1.84,1.17,3.59c0,3.99-0.35,13.7-0.35,25.22" style="fill:none;stroke:#999;stroke-width:3" />
<path d="M1693.51,57.47c2.68-0.22,23.12-2.5,25.56-2.76c2.04-0.22,3.12,1.21,3.12,2.86c0,4.02-0.6,25.04-0.6,26.36" style="fill:none;stroke:#999;stroke-width:3" />
<path d="M1692.77,65.97c5.01-0.33,24.46-2.37,28.76-2.37" style="fill:none;stroke:#999;stroke-width:3" />
<path d="M1692.99,74.58c7.57-0.64,20.55-1.94,28.57-2.07" style="fill:none;stroke:#999;stroke-width:3" />
<path d="M1692.64,83.3c7.57-0.48,22.02-1.75,28.92-1.75" style="fill:none;stroke:#999;stroke-width:3" />
<path d="M1698.34,88.84c0.38,0.92-0.25,2.17-1,2.84c-2.27,2.02-8.27,5.49-12.81,7.88" style="fill:none;stroke:black;stroke-width:3" />
<circle cx="1698.34" cy="88.84" r="5" stroke-width="0" fill="#FF2A00" opacity="0.7" />
<path d="M1755.0,34.92c2.08,0.25,1.27,0.55,3.5,0.25c5.5-0.75,12.5-1.5,21.67-2.67" style="fill:none;stroke:#999;stroke-width:3" />
<path d="M1769.32,13c0.5,0.94,1.81,2.56,1.81,5.69c0,15.7,0.25,58.21,0.25,70c0,14.69-6.52,3.64-8.01,2.06" style="fill:none;stroke:#999;stroke-width:3" />
<path d="M1755.0,62.46c0.92,1.09,2.38,1.73,4.41,0.72c1.2-0.59,16.84-10.43,23.02-14.52" style="fill:none;stroke:#999;stroke-width:3" />
<path d="M1809.15,10.55c0.87,0.34,2.11,2.02,2.09,3c-0.06,3.1-0.06,7.63-0.07,10.46" style="fill:none;stroke:#999;stroke-width:3" />
<path d="M1789.65,23.89c0,3.19-2.99,13.03-4.13,15.16" style="fill:none;stroke:#999;stroke-width:3" />
<path d="M1789.56,26.21c6.48-0.83,41.03-3.79,46.28-4.1c8.21-0.49,1.24,7-0.81,8.76" style="fill:none;stroke:#999;stroke-width:3" />
<path d="M1795.58,32.31c0.73,0.35,2.05,0.39,2.78,0.35c4.94-0.25,22.3-2.81,26.32-3.15c1.2-0.1,1.93,0.17,2.54,0.35" style="fill:none;stroke:#999;stroke-width:3" />
<path d="M1810.7,34.11c0.05,0.21,0.63,1.12,0.67,2.48c0.22,6.54-0.14,5.97-0.14,8.2c0,6.32-3.87,0.67-4.68,0.11" style="fill:none;stroke:#999;stroke-width:3" />
<path d="M1797.95,39.54c0.03,0.31,0.11,0.82-0.06,1.25c-1.24,3.11-6.46,9.1-10.71,11.96" style="fill:none;stroke:#999;stroke-width:3" />
<path d="M1826.17,36.8c0.12,0.61,0.01,2.14-0.69,2.9c-6.36,6.88-22.28,16.03-42.23,22.83" style="fill:none;stroke:#999;stroke-width:3" />
<path d="M1800.55,56.48c0.77,1.08,1.17,1.84,1.17,3.59c0,3.99-0.35,13.7-0.35,25.22" style="fill:none;stroke:#999;stroke-width:3" />
<path d="M1802.51,57.47c2.68-0.22,23.12-2.5,25.56-2.76c2.04-0.22,3.12,1.21,3.12,2.86c0,4.02-0.6,25.04-0.6,26.36" style="fill:none;stroke:#999;stroke-width:3" />
<path d="M1801.77,65.97c5.01-0.33,24.46-2.37,28.76-2.37" style="fill:none;stroke:#999;stroke-width:3" />
<path d="M1801.99,74.58c7.57-0.64,20.55-1.94,28.57-2.07" style="fill:none;stroke:#999;stroke-width:3" />
<path d="M1801.64,83.3c7.57-0.48,22.02-1.75,28.92-1.75" style="fill:none;stroke:#999;stroke-width:3" />
<path d="M1807.34,88.84c0.38,0.92-0.25,2.17-1,2.84c-2.27,2.02-8.27,5.49-12.81,7.88" style="fill:none;stroke:#999;stroke-width:3" />
<path d="M1822.5,88.11c5.56,2.94,12.14,8.26,13.66,10.83" style="fill:none;stroke:black;stroke-width:3" />
<circle cx="1822.5" cy="88.11" r="5" stroke-width="0" fill="#FF2A00" opacity="0.7" />
</svg>