<!-- 06505 -->
<svg width="1962px" height="109px" viewBox="0 0 1962px 109px" xmlns="http://www.w3.org/2000/svg" xmlns:xlink="http://www.w3.org/1999/xlink" xml:space="preserve" version="1.1"  baseProfile="full">
<line x1="1" y1="1" x2="1961" y2="1" style="stroke:#ddd;stroke-width:2" />
<line x1="1" y1="1" x2="1" y2="108" style="stroke:#ddd;stroke-width:2" />
<line x1="1" y1="108" x2="1961" y2="108" style="stroke:#ddd;stroke-width:2" />
<line x1="1961" y1="1" x2="1961" y2="108" style="stroke:#ddd;stroke-width:2" />
<line x1="109" y1="1" x2="109" y2="108" style="stroke:#ddd;stroke-width:2" />
<line x1="218" y1="1" x2="218" y2="108" style="stroke:#ddd;stroke-width:2" />
<line x1="327" y1="1" x2="327" y2="108" style="stroke:#ddd;stroke-width:2" />
<line x1="436" y1="1" x2="436" y2="108" style="stroke:#ddd;stroke-width:2" />
<line x1="545" y1="1" x2="545" y2="108" style="stroke:#ddd;stroke-width:2" />
<line x1="654" y1="1" x2="654" y2="108" style="stroke:#ddd;stroke-width:2" />
<line x1="763" y1="1" x2="763" y2="108" style="stroke:#ddd;stroke-width:2" />
<line x1="872" y1="1" x2="872" y2="108" style="stroke:#ddd;stroke-width:2" />
<line x1="981" y1="1" x2="981" y2="108" style="stroke:#ddd;stroke-width:2" />
<line x1="1090" y1="1" x2="1090" y2="108" style="stroke:#ddd;stroke-width:2" />
<line x1="1199" y1="1" x2="1199" y2="108" style="stroke:#ddd;stroke-width:2" />
<line x1="1308" y1="1" x2="1308" y2="108" style="stroke:#ddd;stroke-width:2" />
<line x1="1417" y1="1" x2="1417" y2="108" style="stroke:#ddd;stroke-width:2" />
<line x1="1526" y1="1" x2="1526" y2="108" style="stroke:#ddd;stroke-width:2" />
<line x1="1635" y1="1" x2="1635" y2="108" style="stroke:#ddd;stroke-width:2" />
<line x1="1744" y1="1" x2="1744" y2="108" style="stroke:#ddd;stroke-width:2" />
<line x1="1853" y1="1" x2="1853" y2="108" style="stroke:#ddd;stroke-width:2" />
<line x1="1" y1="54" x2="1961" y2="54" style="stroke:#ddd;stroke-width:2;stroke-dasharray:3 3" />
<line x1="55" y1="1" x2="55" y2="108" style="stroke:#ddd;stroke-width:2;stroke-dasharray:3 3" />
<line x1="164" y1="1" x2="164" y2="108" style="stroke:#ddd;stroke-width:2;stroke-dasharray:3 3" />
<line x1="273" y1="1" x2="273" y2="108" style="stroke:#ddd;stroke-width:2;stroke-dasharray:3 3" />
<line x1="382" y1="1" x2="382" y2="108" style="stroke:#ddd;stroke-width:2;stroke-dasharray:3 3" />
<line x1="491" y1="1" x2="491" y2="108" style="stroke:#ddd;stroke-width:2;stroke-dasharray:3 3" />
<line x1="600" y1="1" x2="600" y2="108" style="stroke:#ddd;stroke-width:2;stroke-dasharray:3 3" />
<line x1="709" y1="1" x2="709" y2="108" style="stroke:#ddd;stroke-width:2;stroke-dasharray:3 3" />
<line x1="818" y1="1" x2="818" y2="108" style="stroke:#ddd;stroke-width:2;stroke-dasharray:3 3" />
<line x1="927" y1="1" x2="927" y2="108" style="stroke:#ddd;stroke-width:2;stroke-dasharray:3 3" />
<line x1="1036" y1="1" x2="1036" y2="108" style="stroke:#ddd;stroke-width:2;stroke-dasharray:3 3" />
<line x1="1145" y1="1" x2="1145" y2="108" style="stroke:#ddd;stroke-width:2;stroke-dasharray:3 3" />
<line x1="1254" y1="1" x2="1254" y2="108" style="stroke:#ddd;stroke-width:2;stroke-dasharray:3 3" />
<line x1="1363" y1="1" x2="1363" y2="108" style="stroke:#ddd;stroke-width:2;stroke-dasharray:3 3" />
<line x1="1472" y1="1" x2="1472" y2="108" style="stroke:#ddd;stroke-width:2;stroke-dasharray:3 3" />
<line x1="1581" y1="1" x2="1581" y2="108" style="stroke:#ddd;stroke-width:2;stroke-dasharray:3 3" />
<line x1="1690" y1="1" x2="1690" y2="108" style="stroke:#ddd;stroke-width:2;stroke-dasharray:3 3" />
<line x1="1799" y1="1" x2="1799" y2="108" style="stroke:#ddd;stroke-width:2;stroke-dasharray:3 3" />
<line x1="1908" y1="1" x2="1908" y2="108" style="stroke:#ddd;stroke-width:2;stroke-dasharray:3 3" />
<path d="M13.5,37.42c2.08,0.25,1.27,0.55,3.5,0.25c5.5-0.75,13-2,22.17-3.17" style="fill:none;stroke:black;stroke-width:3" />
<circle cx="13.5" cy="37.42" r="5" stroke-width="0" fill="#FF2A00" opacity="0.7" />
<path d="M122.5,37.42c2.08,0.25,1.27,0.55,3.5,0.25c5.5-0.75,13-2,22.17-3.17" style="fill:none;stroke:#999;stroke-width:3" />
<path d="M137.27,13.5c0.48,0.92,1.76,2.49,1.76,5.52c0,15.23,0.24,56.96,0.24,68.4c0,14.25-6.32,3.53-7.77,2" style="fill:none;stroke:black;stroke-width:3" />
<circle cx="137.27" cy="13.5" r="5" stroke-width="0" fill="#FF2A00" opacity="0.7" />
<path d="M231.5,37.42c2.08,0.25,1.27,0.55,3.5,0.25c5.5-0.75,13-2,22.17-3.17" style="fill:none;stroke:#999;stroke-width:3" />
<path d="M246.27,13.5c0.48,0.92,1.76,2.49,1.76,5.52c0,15.23,0.24,56.96,0.24,68.4c0,14.25-6.32,3.53-7.77,2" style="fill:none;stroke:#999;stroke-width:3" />
<path d="M231.5,64.3c0.8,0.79,2.08,1.25,3.86,0.52c1.05-0.43,18.26-9.59,22.7-11.65" style="fill:none;stroke:black;stroke-width:3" />
<circle cx="231.5" cy="64.3" r="5" stroke-width="0" fill="#FF2A00" opacity="0.7" />
<path d="M340.5,37.42c2.08,0.25,1.27,0.55,3.5,0.25c5.5-0.75,13-2,22.17-3.17" style="fill:none;stroke:#999;stroke-width:3" />
<path d="M355.27,13.5c0.48,0.92,1.76,2.49,1.76,5.52c0,15.23,0.24,56.96,0.24,68.4c0,14.25-6.32,3.53-7.77,2" style="fill:none;stroke:#999;stroke-width:3" />
<path d="M340.5,64.3c0.8,0.79,2.08,1.25,3.86,0.52c1.05-0.43,18.26-9.59,22.7-11.65" style="fill:none;stroke:#999;stroke-width:3" />
<path d="M369.88,20.7c0.56,0.15,1.58,0.16,2.14,0.15c3.98-0.1,10.73-1.35,15.18-1.94c0.92-0.12,1.49,0.07,1.95,0.14" style="fill:none;stroke:black;stroke-width:3" />
<circle cx="369.88" cy="20.7" r="5" stroke-width="0" fill="#FF2A00" opacity="0.7" />
<path d="M449.5,37.42c2.08,0.25,1.27,0.55,3.5,0.25c5.5-0.75,13-2,22.17-3.17" style="fill:none;stroke:#999;stroke-width:3" />
<path d="M464.27,13.5c0.48,0.92,1.76,2.49,1.76,5.52c0,15.23,0.24,56.96,0.24,68.4c0,14.25-6.32,3.53-7.77,2" style="fill:none;stroke:#999;stroke-width:3" />
<path d="M449.5,64.3c0.8,0.79,2.08,1.25,3.86,0.52c1.05-0.43,18.26-9.59,22.7-11.65" style="fill:none;stroke:#999;stroke-width:3" />
<path d="M478.88,20.7c0.56,0.15,1.58,0.16,2.14,0.15c3.98-0.1,10.73-1.35,15.18-1.94c0.92-0.12,1.49,0.07,1.95,0.14" style="fill:none;stroke:#999;stroke-width:3" />
<path d="M478.22,31.18c0.54,0.19,1.51,0.22,2.05,0.19c5.3-0.27,10.3-1.96,16.09-2.37c0.89-0.06,1.43,0.09,1.87,0.19" style="fill:none;stroke:black;stroke-width:3" />
<circle cx="478.22" cy="31.18" r="5" stroke-width="0" fill="#FF2A00" opacity="0.7" />
<path d="M558.5,37.42c2.08,0.25,1.27,0.55,3.5,0.25c5.5-0.75,13-2,22.17-3.17" style="fill:none;stroke:#999;stroke-width:3" />
<path d="M573.27,13.5c0.48,0.92,1.76,2.49,1.76,5.52c0,15.23,0.24,56.96,0.24,68.4c0,14.25-6.32,3.53-7.77,2" style="fill:none;stroke:#999;stroke-width:3" />
<path d="M558.5,64.3c0.8,0.79,2.08,1.25,3.86,0.52c1.05-0.43,18.26-9.59,22.7-11.65" style="fill:none;stroke:#999;stroke-width:3" />
<path d="M587.88,20.7c0.56,0.15,1.58,0.16,2.14,0.15c3.98-0.1,10.73-1.35,15.18-1.94c0.92-0.12,1.49,0.07,1.95,0.14" style="fill:none;stroke:#999;stroke-width:3" />
<path d="M587.22,31.18c0.54,0.19,1.51,0.22,2.05,0.19c5.3-0.27,10.3-1.96,16.09-2.37c0.89-0.06,1.43,0.09,1.87,0.19" style="fill:none;stroke:#999;stroke-width:3" />
<path d="M597.95,11.5c0.21,0.52,0.29,1,0.29,2.01c0.05,15.41-4.26,27.95-12.16,31.99" style="fill:none;stroke:black;stroke-width:3" />
<circle cx="597.95" cy="11.5" r="5" stroke-width="0" fill="#FF2A00" opacity="0.7" />
<path d="M667.5,37.42c2.08,0.25,1.27,0.55,3.5,0.25c5.5-0.75,13-2,22.17-3.17" style="fill:none;stroke:#999;stroke-width:3" />
<path d="M682.27,13.5c0.48,0.92,1.76,2.49,1.76,5.52c0,15.23,0.24,56.96,0.24,68.4c0,14.25-6.32,3.53-7.77,2" style="fill:none;stroke:#999;stroke-width:3" />
<path d="M667.5,64.3c0.8,0.79,2.08,1.25,3.86,0.52c1.05-0.43,18.26-9.59,22.7-11.65" style="fill:none;stroke:#999;stroke-width:3" />
<path d="M696.88,20.7c0.56,0.15,1.58,0.16,2.14,0.15c3.98-0.1,10.73-1.35,15.18-1.94c0.92-0.12,1.49,0.07,1.95,0.14" style="fill:none;stroke:#999;stroke-width:3" />
<path d="M696.22,31.18c0.54,0.19,1.51,0.22,2.05,0.19c5.3-0.27,10.3-1.96,16.09-2.37c0.89-0.06,1.43,0.09,1.87,0.19" style="fill:none;stroke:#999;stroke-width:3" />
<path d="M706.95,11.5c0.21,0.52,0.29,1,0.29,2.01c0.05,15.41-4.26,27.95-12.16,31.99" style="fill:none;stroke:#999;stroke-width:3" />
<path d="M706.61,32.38c3.59,1.51,7.49,6.23,8.88,8.56" style="fill:none;stroke:black;stroke-width:3" />
<circle cx="706.61" cy="32.38" r="5" stroke-width="0" fill="#FF2A00" opacity="0.7" />
<path d="M776.5,37.42c2.08,0.25,1.27,0.55,3.5,0.25c5.5-0.75,13-2,22.17-3.17" style="fill:none;stroke:#999;stroke-width:3" />
<path d="M791.27,13.5c0.48,0.92,1.76,2.49,1.76,5.52c0,15.23,0.24,56.96,0.24,68.4c0,14.25-6.32,3.53-7.77,2" style="fill:none;stroke:#999;stroke-width:3" />
<path d="M776.5,64.3c0.8,0.79,2.08,1.25,3.86,0.52c1.05-0.43,18.26-9.59,22.7-11.65" style="fill:none;stroke:#999;stroke-width:3" />
<path d="M805.88,20.7c0.56,0.15,1.58,0.16,2.14,0.15c3.98-0.1,10.73-1.35,15.18-1.94c0.92-0.12,1.49,0.07,1.95,0.14" style="fill:none;stroke:#999;stroke-width:3" />
<path d="M805.22,31.18c0.54,0.19,1.51,0.22,2.05,0.19c5.3-0.27,10.3-1.96,16.09-2.37c0.89-0.06,1.43,0.09,1.87,0.19" style="fill:none;stroke:#999;stroke-width:3" />
<path d="M815.95,11.5c0.21,0.52,0.29,1,0.29,2.01c0.05,15.41-4.26,27.95-12.16,31.99" style="fill:none;stroke:#999;stroke-width:3" />
<path d="M815.61,32.38c3.59,1.51,7.49,6.23,8.88,8.56" style="fill:none;stroke:#999;stroke-width:3" />
<path d="M831.36,18.89c0.46,0.14,1.3,0.13,1.76,0.14c4.43,0.08,11.64-1.23,16.3-1.82c0.75-0.09,1.23,0.06,1.61,0.13" style="fill:none;stroke:black;stroke-width:3" />
<circle cx="831.36" cy="18.89" r="5" stroke-width="0" fill="#FF2A00" opacity="0.7" />
<path d="M885.5,37.42c2.08,0.25,1.27,0.55,3.5,0.25c5.5-0.75,13-2,22.17-3.17" style="fill:none;stroke:#999;stroke-width:3" />
<path d="M900.27,13.5c0.48,0.92,1.76,2.49,1.76,5.52c0,15.23,0.24,56.96,0.24,68.4c0,14.25-6.32,3.53-7.77,2" style="fill:none;stroke:#999;stroke-width:3" />
<path d="M885.5,64.3c0.8,0.79,2.08,1.25,3.86,0.52c1.05-0.43,18.26-9.59,22.7-11.65" style="fill:none;stroke:#999;stroke-width:3" />
<path d="M914.88,20.7c0.56,0.15,1.58,0.16,2.14,0.15c3.98-0.1,10.73-1.35,15.18-1.94c0.92-0.12,1.49,0.07,1.95,0.14" style="fill:none;stroke:#999;stroke-width:3" />
<path d="M914.22,31.18c0.54,0.19,1.51,0.22,2.05,0.19c5.3-0.27,10.3-1.96,16.09-2.37c0.89-0.06,1.43,0.09,1.87,0.19" style="fill:none;stroke:#999;stroke-width:3" />
<path d="M924.95,11.5c0.21,0.52,0.29,1,0.29,2.01c0.05,15.41-4.26,27.95-12.16,31.99" style="fill:none;stroke:#999;stroke-width:3" />
<path d="M924.61,32.38c3.59,1.51,7.49,6.23,8.88,8.56" style="fill:none;stroke:#999;stroke-width:3" />
<path d="M940.36,18.89c0.46,0.14,1.3,0.13,1.76,0.14c4.43,0.08,11.64-1.23,16.3-1.82c0.75-0.09,1.23,0.06,1.61,0.13" style="fill:none;stroke:#999;stroke-width:3" />
<path d="M940.21,29.2c0.44,0.16,1.24,0.14,1.68,0.16c3.86,0.14,15.8-1.95,19.75-1.89c0.73,0.01,1.17,0.07,1.54,0.15" style="fill:none;stroke:black;stroke-width:3" />
<circle cx="940.21" cy="29.2" r="5" stroke-width="0" fill="#FF2A00" opacity="0.7" />
<path d="M994.5,37.42c2.08,0.25,1.27,0.55,3.5,0.25c5.5-0.75,13-2,22.17-3.17" style="fill:none;stroke:#999;stroke-width:3" />
<path d="M1009.27,13.5c0.48,0.92,1.76,2.49,1.76,5.52c0,15.23,0.24,56.96,0.24,68.4c0,14.25-6.32,3.53-7.77,2" style="fill:none;stroke:#999;stroke-width:3" />
<path d="M994.5,64.3c0.8,0.79,2.08,1.25,3.86,0.52c1.05-0.43,18.26-9.59,22.7-11.65" style="fill:none;stroke:#999;stroke-width:3" />
<path d="M1023.88,20.7c0.56,0.15,1.58,0.16,2.14,0.15c3.98-0.1,10.73-1.35,15.18-1.94c0.92-0.12,1.49,0.07,1.95,0.14" style="fill:none;stroke:#999;stroke-width:3" />
<path d="M1023.22,31.18c0.54,0.19,1.51,0.22,2.05,0.19c5.3-0.27,10.3-1.96,16.09-2.37c0.89-0.06,1.43,0.09,1.87,0.19" style="fill:none;stroke:#999;stroke-width:3" />
<path d="M1033.95,11.5c0.21,0.52,0.29,1,0.29,2.01c0.05,15.41-4.26,27.95-12.16,31.99" style="fill:none;stroke:#999;stroke-width:3" />
<path d="M1033.6100000000001,32.38c3.59,1.51,7.49,6.23,8.88,8.56" style="fill:none;stroke:#999;stroke-width:3" />
<path d="M1049.3600000000001,18.89c0.46,0.14,1.3,0.13,1.76,0.14c4.43,0.08,11.64-1.23,16.3-1.82c0.75-0.09,1.23,0.06,1.61,0.13" style="fill:none;stroke:#999;stroke-width:3" />
<path d="M1049.21,29.2c0.44,0.16,1.24,0.14,1.68,0.16c3.86,0.14,15.8-1.95,19.75-1.89c0.73,0.01,1.17,0.07,1.54,0.15" style="fill:none;stroke:#999;stroke-width:3" />
<path d="M1060.0,10.25c0.2,0.47,0.3,0.92,0.28,1.83C1060.0,25.5 1056.75,34.25 1048.61,41.25" style="fill:none;stroke:black;stroke-width:3" />
<circle cx="1060.0" cy="10.25" r="5" stroke-width="0" fill="#FF2A00" opacity="0.7" />
<path d="M1103.5,37.42c2.08,0.25,1.27,0.55,3.5,0.25c5.5-0.75,13-2,22.17-3.17" style="fill:none;stroke:#999;stroke-width:3" />
<path d="M1118.27,13.5c0.48,0.92,1.76,2.49,1.76,5.52c0,15.23,0.24,56.96,0.24,68.4c0,14.25-6.32,3.53-7.77,2" style="fill:none;stroke:#999;stroke-width:3" />
<path d="M1103.5,64.3c0.8,0.79,2.08,1.25,3.86,0.52c1.05-0.43,18.26-9.59,22.7-11.65" style="fill:none;stroke:#999;stroke-width:3" />
<path d="M1132.88,20.7c0.56,0.15,1.58,0.16,2.14,0.15c3.98-0.1,10.73-1.35,15.18-1.94c0.92-0.12,1.49,0.07,1.95,0.14" style="fill:none;stroke:#999;stroke-width:3" />
<path d="M1132.22,31.18c0.54,0.19,1.51,0.22,2.05,0.19c5.3-0.27,10.3-1.96,16.09-2.37c0.89-0.06,1.43,0.09,1.87,0.19" style="fill:none;stroke:#999;stroke-width:3" />
<path d="M1142.95,11.5c0.21,0.52,0.29,1,0.29,2.01c0.05,15.41-4.26,27.95-12.16,31.99" style="fill:none;stroke:#999;stroke-width:3" />
<path d="M1142.6100000000001,32.38c3.59,1.51,7.49,6.23,8.88,8.56" style="fill:none;stroke:#999;stroke-width:3" />
<path d="M1158.3600000000001,18.89c0.46,0.14,1.3,0.13,1.76,0.14c4.43,0.08,11.64-1.23,16.3-1.82c0.75-0.09,1.23,0.06,1.61,0.13" style="fill:none;stroke:#999;stroke-width:3" />
<path d="M1158.21,29.2c0.44,0.16,1.24,0.14,1.68,0.16c3.86,0.14,15.8-1.95,19.75-1.89c0.73,0.01,1.17,0.07,1.54,0.15" style="fill:none;stroke:#999;stroke-width:3" />
<path d="M1169.0,10.25c0.2,0.47,0.3,0.92,0.28,1.83C1169.0,25.5 1165.75,34.25 1157.61,41.25" style="fill:none;stroke:#999;stroke-width:3" />
<path d="M1166.85,29.92c3.71,3.38,10.6,9.39,14.4,10.79c1.28,0.47,1.49,0.81,2,0.87" style="fill:none;stroke:black;stroke-width:3" />
<circle cx="1166.85" cy="29.92" r="5" stroke-width="0" fill="#FF2A00" opacity="0.7" />
<path d="M1212.5,37.42c2.08,0.25,1.27,0.55,3.5,0.25c5.5-0.75,13-2,22.17-3.17" style="fill:none;stroke:#999;stroke-width:3" />
<path d="M1227.27,13.5c0.48,0.92,1.76,2.49,1.76,5.52c0,15.23,0.24,56.96,0.24,68.4c0,14.25-6.32,3.53-7.77,2" style="fill:none;stroke:#999;stroke-width:3" />
<path d="M1212.5,64.3c0.8,0.79,2.08,1.25,3.86,0.52c1.05-0.43,18.26-9.59,22.7-11.65" style="fill:none;stroke:#999;stroke-width:3" />
<path d="M1241.88,20.7c0.56,0.15,1.58,0.16,2.14,0.15c3.98-0.1,10.73-1.35,15.18-1.94c0.92-0.12,1.49,0.07,1.95,0.14" style="fill:none;stroke:#999;stroke-width:3" />
<path d="M1241.22,31.18c0.54,0.19,1.51,0.22,2.05,0.19c5.3-0.27,10.3-1.96,16.09-2.37c0.89-0.06,1.43,0.09,1.87,0.19" style="fill:none;stroke:#999;stroke-width:3" />
<path d="M1251.95,11.5c0.21,0.52,0.29,1,0.29,2.01c0.05,15.41-4.26,27.95-12.16,31.99" style="fill:none;stroke:#999;stroke-width:3" />
<path d="M1251.6100000000001,32.38c3.59,1.51,7.49,6.23,8.88,8.56" style="fill:none;stroke:#999;stroke-width:3" />
<path d="M1267.3600000000001,18.89c0.46,0.14,1.3,0.13,1.76,0.14c4.43,0.08,11.64-1.23,16.3-1.82c0.75-0.09,1.23,0.06,1.61,0.13" style="fill:none;stroke:#999;stroke-width:3" />
<path d="M1267.21,29.2c0.44,0.16,1.24,0.14,1.68,0.16c3.86,0.14,15.8-1.95,19.75-1.89c0.73,0.01,1.17,0.07,1.54,0.15" style="fill:none;stroke:#999;stroke-width:3" />
<path d="M1278.0,10.25c0.2,0.47,0.3,0.92,0.28,1.83C1278.0,25.5 1274.75,34.25 1266.61,41.25" style="fill:none;stroke:#999;stroke-width:3" />
<path d="M1275.85,29.92c3.71,3.38,10.6,9.39,14.4,10.79c1.28,0.47,1.49,0.81,2,0.87" style="fill:none;stroke:#999;stroke-width:3" />
<path d="M1250.56,47.37c0.45,0.78,0.62,1.86,0.62,2.91c0,1.04-0.15,32.7,0,33.75" style="fill:none;stroke:black;stroke-width:3" />
<circle cx="1250.56" cy="47.37" r="5" stroke-width="0" fill="#FF2A00" opacity="0.7" />
<path d="M1321.5,37.42c2.08,0.25,1.27,0.55,3.5,0.25c5.5-0.75,13-2,22.17-3.17" style="fill:none;stroke:#999;stroke-width:3" />
<path d="M1336.27,13.5c0.48,0.92,1.76,2.49,1.76,5.52c0,15.23,0.24,56.96,0.24,68.4c0,14.25-6.32,3.53-7.77,2" style="fill:none;stroke:#999;stroke-width:3" />
<path d="M1321.5,64.3c0.8,0.79,2.08,1.25,3.86,0.52c1.05-0.43,18.26-9.59,22.7-11.65" style="fill:none;stroke:#999;stroke-width:3" />
<path d="M1350.88,20.7c0.56,0.15,1.58,0.16,2.14,0.15c3.98-0.1,10.73-1.35,15.18-1.94c0.92-0.12,1.49,0.07,1.95,0.14" style="fill:none;stroke:#999;stroke-width:3" />
<path d="M1350.22,31.18c0.54,0.19,1.51,0.22,2.05,0.19c5.3-0.27,10.3-1.96,16.09-2.37c0.89-0.06,1.43,0.09,1.87,0.19" style="fill:none;stroke:#999;stroke-width:3" />
<path d="M1360.95,11.5c0.21,0.52,0.29,1,0.29,2.01c0.05,15.41-4.26,27.95-12.16,31.99" style="fill:none;stroke:#999;stroke-width:3" />
<path d="M1360.6100000000001,32.38c3.59,1.51,7.49,6.23,8.88,8.56" style="fill:none;stroke:#999;stroke-width:3" />
<path d="M1376.3600000000001,18.89c0.46,0.14,1.3,0.13,1.76,0.14c4.43,0.08,11.64-1.23,16.3-1.82c0.75-0.09,1.23,0.06,1.61,0.13" style="fill:none;stroke:#999;stroke-width:3" />
<path d="M1376.21,29.2c0.44,0.16,1.24,0.14,1.68,0.16c3.86,0.14,15.8-1.95,19.75-1.89c0.73,0.01,1.17,0.07,1.54,0.15" style="fill:none;stroke:#999;stroke-width:3" />
<path d="M1387.0,10.25c0.2,0.47,0.3,0.92,0.28,1.83C1387.0,25.5 1383.75,34.25 1375.61,41.25" style="fill:none;stroke:#999;stroke-width:3" />
<path d="M1384.85,29.92c3.71,3.38,10.6,9.39,14.4,10.79c1.28,0.47,1.49,0.81,2,0.87" style="fill:none;stroke:#999;stroke-width:3" />
<path d="M1359.56,47.37c0.45,0.78,0.62,1.86,0.62,2.91c0,1.04-0.15,32.7,0,33.75" style="fill:none;stroke:#999;stroke-width:3" />
<path d="M1360.93,48.69c2.57-0.13,23.15-2.3,25.49-2.45c1.95-0.13,3.49,1.23,3.32,2.19c-0.21,1.23-0.41,31.79-0.41,32.57" style="fill:none;stroke:black;stroke-width:3" />
<circle cx="1360.93" cy="48.69" r="5" stroke-width="0" fill="#FF2A00" opacity="0.7" />
<path d="M1430.5,37.42c2.08,0.25,1.27,0.55,3.5,0.25c5.5-0.75,13-2,22.17-3.17" style="fill:none;stroke:#999;stroke-width:3" />
<path d="M1445.27,13.5c0.48,0.92,1.76,2.49,1.76,5.52c0,15.23,0.24,56.96,0.24,68.4c0,14.25-6.32,3.53-7.77,2" style="fill:none;stroke:#999;stroke-width:3" />
<path d="M1430.5,64.3c0.8,0.79,2.08,1.25,3.86,0.52c1.05-0.43,18.26-9.59,22.7-11.65" style="fill:none;stroke:#999;stroke-width:3" />
<path d="M1459.88,20.7c0.56,0.15,1.58,0.16,2.14,0.15c3.98-0.1,10.73-1.35,15.18-1.94c0.92-0.12,1.49,0.07,1.95,0.14" style="fill:none;stroke:#999;stroke-width:3" />
<path d="M1459.22,31.18c0.54,0.19,1.51,0.22,2.05,0.19c5.3-0.27,10.3-1.96,16.09-2.37c0.89-0.06,1.43,0.09,1.87,0.19" style="fill:none;stroke:#999;stroke-width:3" />
<path d="M1469.95,11.5c0.21,0.52,0.29,1,0.29,2.01c0.05,15.41-4.26,27.95-12.16,31.99" style="fill:none;stroke:#999;stroke-width:3" />
<path d="M1469.6100000000001,32.38c3.59,1.51,7.49,6.23,8.88,8.56" style="fill:none;stroke:#999;stroke-width:3" />
<path d="M1485.3600000000001,18.89c0.46,0.14,1.3,0.13,1.76,0.14c4.43,0.08,11.64-1.23,16.3-1.82c0.75-0.09,1.23,0.06,1.61,0.13" style="fill:none;stroke:#999;stroke-width:3" />
<path d="M1485.21,29.2c0.44,0.16,1.24,0.14,1.68,0.16c3.86,0.14,15.8-1.95,19.75-1.89c0.73,0.01,1.17,0.07,1.54,0.15" style="fill:none;stroke:#999;stroke-width:3" />
<path d="M1496.0,10.25c0.2,0.47,0.3,0.92,0.28,1.83C1496.0,25.5 1492.75,34.25 1484.61,41.25" style="fill:none;stroke:#999;stroke-width:3" />
<path d="M1493.85,29.92c3.71,3.38,10.6,9.39,14.4,10.79c1.28,0.47,1.49,0.81,2,0.87" style="fill:none;stroke:#999;stroke-width:3" />
<path d="M1468.56,47.37c0.45,0.78,0.62,1.86,0.62,2.91c0,1.04-0.15,32.7,0,33.75" style="fill:none;stroke:#999;stroke-width:3" />
<path d="M1469.93,48.69c2.57-0.13,23.15-2.3,25.49-2.45c1.95-0.13,3.49,1.23,3.32,2.19c-0.21,1.23-0.41,31.79-0.41,32.57" style="fill:none;stroke:#999;stroke-width:3" />
<path d="M1469.89,59.2c3.67,0,23.78-2.12,27.9-2.12" style="fill:none;stroke:black;stroke-width:3" />
<circle cx="1469.89" cy="59.2" r="5" stroke-width="0" fill="#FF2A00" opacity="0.7" />
<path d="M1539.5,37.42c2.08,0.25,1.27,0.55,3.5,0.25c5.5-0.75,13-2,22.17-3.17" style="fill:none;stroke:#999;stroke-width:3" />
<path d="M1554.27,13.5c0.48,0.92,1.76,2.49,1.76,5.52c0,15.23,0.24,56.96,0.24,68.4c0,14.25-6.32,3.53-7.77,2" style="fill:none;stroke:#999;stroke-width:3" />
<path d="M1539.5,64.3c0.8,0.79,2.08,1.25,3.86,0.52c1.05-0.43,18.26-9.59,22.7-11.65" style="fill:none;stroke:#999;stroke-width:3" />
<path d="M1568.88,20.7c0.56,0.15,1.58,0.16,2.14,0.15c3.98-0.1,10.73-1.35,15.18-1.94c0.92-0.12,1.49,0.07,1.95,0.14" style="fill:none;stroke:#999;stroke-width:3" />
<path d="M1568.22,31.18c0.54,0.19,1.51,0.22,2.05,0.19c5.3-0.27,10.3-1.96,16.09-2.37c0.89-0.06,1.43,0.09,1.87,0.19" style="fill:none;stroke:#999;stroke-width:3" />
<path d="M1578.95,11.5c0.21,0.52,0.29,1,0.29,2.01c0.05,15.41-4.26,27.95-12.16,31.99" style="fill:none;stroke:#999;stroke-width:3" />
<path d="M1578.6100000000001,32.38c3.59,1.51,7.49,6.23,8.88,8.56" style="fill:none;stroke:#999;stroke-width:3" />
<path d="M1594.3600000000001,18.89c0.46,0.14,1.3,0.13,1.76,0.14c4.43,0.08,11.64-1.23,16.3-1.82c0.75-0.09,1.23,0.06,1.61,0.13" style="fill:none;stroke:#999;stroke-width:3" />
<path d="M1594.21,29.2c0.44,0.16,1.24,0.14,1.68,0.16c3.86,0.14,15.8-1.95,19.75-1.89c0.73,0.01,1.17,0.07,1.54,0.15" style="fill:none;stroke:#999;stroke-width:3" />
<path d="M1605.0,10.25c0.2,0.47,0.3,0.92,0.28,1.83C1605.0,25.5 1601.75,34.25 1593.61,41.25" style="fill:none;stroke:#999;stroke-width:3" />
<path d="M1602.85,29.92c3.71,3.38,10.6,9.39,14.4,10.79c1.28,0.47,1.49,0.81,2,0.87" style="fill:none;stroke:#999;stroke-width:3" />
<path d="M1577.56,47.37c0.45,0.78,0.62,1.86,0.62,2.91c0,1.04-0.15,32.7,0,33.75" style="fill:none;stroke:#999;stroke-width:3" />
<path d="M1578.93,48.69c2.57-0.13,23.15-2.3,25.49-2.45c1.95-0.13,3.49,1.23,3.32,2.19c-0.21,1.23-0.41,31.79-0.41,32.57" style="fill:none;stroke:#999;stroke-width:3" />
<path d="M1578.89,59.2c3.67,0,23.78-2.12,27.9-2.12" style="fill:none;stroke:#999;stroke-width:3" />
<path d="M1579.1,69.29c5.1,0,20.77-2.06,27.38-2.06" style="fill:none;stroke:black;stroke-width:3" />
<circle cx="1579.1" cy="69.29" r="5" stroke-width="0" fill="#FF2A00" opacity="0.7" />
<path d="M1648.5,37.42c2.08,0.25,1.27,0.55,3.5,0.25c5.5-0.75,13-2,22.17-3.17" style="fill:none;stroke:#999;stroke-width:3" />
<path d="M1663.27,13.5c0.48,0.92,1.76,2.49,1.76,5.52c0,15.23,0.24,56.96,0.24,68.4c0,14.25-6.32,3.53-7.77,2" style="fill:none;stroke:#999;stroke-width:3" />
<path d="M1648.5,64.3c0.8,0.79,2.08,1.25,3.86,0.52c1.05-0.43,18.26-9.59,22.7-11.65" style="fill:none;stroke:#999;stroke-width:3" />
<path d="M1677.88,20.7c0.56,0.15,1.58,0.16,2.14,0.15c3.98-0.1,10.73-1.35,15.18-1.94c0.92-0.12,1.49,0.07,1.95,0.14" style="fill:none;stroke:#999;stroke-width:3" />
<path d="M1677.22,31.18c0.54,0.19,1.51,0.22,2.05,0.19c5.3-0.27,10.3-1.96,16.09-2.37c0.89-0.06,1.43,0.09,1.87,0.19" style="fill:none;stroke:#999;stroke-width:3" />
<path d="M1687.95,11.5c0.21,0.52,0.29,1,0.29,2.01c0.05,15.41-4.26,27.95-12.16,31.99" style="fill:none;stroke:#999;stroke-width:3" />
<path d="M1687.6100000000001,32.38c3.59,1.51,7.49,6.23,8.88,8.56" style="fill:none;stroke:#999;stroke-width:3" />
<path d="M1703.3600000000001,18.89c0.46,0.14,1.3,0.13,1.76,0.14c4.43,0.08,11.64-1.23,16.3-1.82c0.75-0.09,1.23,0.06,1.61,0.13" style="fill:none;stroke:#999;stroke-width:3" />
<path d="M1703.21,29.2c0.44,0.16,1.24,0.14,1.68,0.16c3.86,0.14,15.8-1.95,19.75-1.89c0.73,0.01,1.17,0.07,1.54,0.15" style="fill:none;stroke:#999;stroke-width:3" />
<path d="M1714.0,10.25c0.2,0.47,0.3,0.92,0.28,1.83C1714.0,25.5 1710.75,34.25 1702.61,41.25" style="fill:none;stroke:#999;stroke-width:3" />
<path d="M1711.85,29.92c3.71,3.38,10.6,9.39,14.4,10.79c1.28,0.47,1.49,0.81,2,0.87" style="fill:none;stroke:#999;stroke-width:3" />
<path d="M1686.56,47.37c0.45,0.78,0.62,1.86,0.62,2.91c0,1.04-0.15,32.7,0,33.75" style="fill:none;stroke:#999;stroke-width:3" />
<path d="M1687.93,48.69c2.57-0.13,23.15-2.3,25.49-2.45c1.95-0.13,3.49,1.23,3.32,2.19c-0.21,1.23-0.41,31.79-0.41,32.57" style="fill:none;stroke:#999;stroke-width:3" />
<path d="M1687.89,59.2c3.67,0,23.78-2.12,27.9-2.12" style="fill:none;stroke:#999;stroke-width:3" />
<path d="M1688.1,69.29c5.1,0,20.77-2.06,27.38-2.06" style="fill:none;stroke:#999;stroke-width:3" />
<path d="M1688.76,80.35c5.11,0,20.27-2.06,26.88-2.06" style="fill:none;stroke:black;stroke-width:3" />
<circle cx="1688.76" cy="80.35" r="5" stroke-width="0" fill="#FF2A00" opacity="0.7" />
<path d="M1757.5,37.42c2.08,0.25,1.27,0.55,3.5,0.25c5.5-0.75,13-2,22.17-3.17" style="fill:none;stroke:#999;stroke-width:3" />
<path d="M1772.27,13.5c0.48,0.92,1.76,2.49,1.76,5.52c0,15.23,0.24,56.96,0.24,68.4c0,14.25-6.32,3.53-7.77,2" style="fill:none;stroke:#999;stroke-width:3" />
<path d="M1757.5,64.3c0.8,0.79,2.08,1.25,3.86,0.52c1.05-0.43,18.26-9.59,22.7-11.65" style="fill:none;stroke:#999;stroke-width:3" />
<path d="M1786.88,20.7c0.56,0.15,1.58,0.16,2.14,0.15c3.98-0.1,10.73-1.35,15.18-1.94c0.92-0.12,1.49,0.07,1.95,0.14" style="fill:none;stroke:#999;stroke-width:3" />
<path d="M1786.22,31.18c0.54,0.19,1.51,0.22,2.05,0.19c5.3-0.27,10.3-1.96,16.09-2.37c0.89-0.06,1.43,0.09,1.87,0.19" style="fill:none;stroke:#999;stroke-width:3" />
<path d="M1796.95,11.5c0.21,0.52,0.29,1,0.29,2.01c0.05,15.41-4.26,27.95-12.16,31.99" style="fill:none;stroke:#999;stroke-width:3" />
<path d="M1796.6100000000001,32.38c3.59,1.51,7.49,6.23,8.88,8.56" style="fill:none;stroke:#999;stroke-width:3" />
<path d="M1812.3600000000001,18.89c0.46,0.14,1.3,0.13,1.76,0.14c4.43,0.08,11.64-1.23,16.3-1.82c0.75-0.09,1.23,0.06,1.61,0.13" style="fill:none;stroke:#999;stroke-width:3" />
<path d="M1812.21,29.2c0.44,0.16,1.24,0.14,1.68,0.16c3.86,0.14,15.8-1.95,19.75-1.89c0.73,0.01,1.17,0.07,1.54,0.15" style="fill:none;stroke:#999;stroke-width:3" />
<path d="M1823.0,10.25c0.2,0.47,0.3,0.92,0.28,1.83C1823.0,25.5 1819.75,34.25 1811.61,41.25" style="fill:none;stroke:#999;stroke-width:3" />
<path d="M1820.85,29.92c3.71,3.38,10.6,9.39,14.4,10.79c1.28,0.47,1.49,0.81,2,0.87" style="fill:none;stroke:#999;stroke-width:3" />
<path d="M1795.56,47.37c0.45,0.78,0.62,1.86,0.62,2.91c0,1.04-0.15,32.7,0,33.75" style="fill:none;stroke:#999;stroke-width:3" />
<path d="M1796.93,48.69c2.57-0.13,23.15-2.3,25.49-2.45c1.95-0.13,3.49,1.23,3.32,2.19c-0.21,1.23-0.41,31.79-0.41,32.57" style="fill:none;stroke:#999;stroke-width:3" />
<path d="M1796.89,59.2c3.67,0,23.78-2.12,27.9-2.12" style="fill:none;stroke:#999;stroke-width:3" />
<path d="M1797.1,69.29c5.1,0,20.77-2.06,27.38-2.06" style="fill:none;stroke:#999;stroke-width:3" />
<path d="M1797.76,80.35c5.11,0,20.27-2.06,26.88-2.06" style="fill:none;stroke:#999;stroke-width:3" />
<path d="M1802.99,86.37c0.44,1.12,0.37,1.92-0.5,2.73c-2.64,2.46-10.29,7.99-15.58,10.89" style="fill:none;stroke:black;stroke-width:3" />
<circle cx="1802.99" cy="86.37" r="5" stroke-width="0" fill="#FF2A00" opacity="0.7" />
<path d="M1866.5,37.42c2.08,0.25,1.27,0.55,3.5,0.25c5.5-0.75,13-2,22.17-3.17" style="fill:none;stroke:#999;stroke-width:3" />
<path d="M1881.27,13.5c0.48,0.92,1.76,2.49,1.76,5.52c0,15.23,0.24,56.96,0.24,68.4c0,14.25-6.32,3.53-7.77,2" style="fill:none;stroke:#999;stroke-width:3" />
<path d="M1866.5,64.3c0.8,0.79,2.08,1.25,3.86,0.52c1.05-0.43,18.26-9.59,22.7-11.65" style="fill:none;stroke:#999;stroke-width:3" />
<path d="M1895.88,20.7c0.56,0.15,1.58,0.16,2.14,0.15c3.98-0.1,10.73-1.35,15.18-1.94c0.92-0.12,1.49,0.07,1.95,0.14" style="fill:none;stroke:#999;stroke-width:3" />
<path d="M1895.22,31.18c0.54,0.19,1.51,0.22,2.05,0.19c5.3-0.27,10.3-1.96,16.09-2.37c0.89-0.06,1.43,0.09,1.87,0.19" style="fill:none;stroke:#999;stroke-width:3" />
<path d="M1905.95,11.5c0.21,0.52,0.29,1,0.29,2.01c0.05,15.41-4.26,27.95-12.16,31.99" style="fill:none;stroke:#999;stroke-width:3" />
<path d="M1905.6100000000001,32.38c3.59,1.51,7.49,6.23,8.88,8.56" style="fill:none;stroke:#999;stroke-width:3" />
<path d="M1921.3600000000001,18.89c0.46,0.14,1.3,0.13,1.76,0.14c4.43,0.08,11.64-1.23,16.3-1.82c0.75-0.09,1.23,0.06,1.61,0.13" style="fill:none;stroke:#999;stroke-width:3" />
<path d="M1921.21,29.2c0.44,0.16,1.24,0.14,1.68,0.16c3.86,0.14,15.8-1.95,19.75-1.89c0.73,0.01,1.17,0.07,1.54,0.15" style="fill:none;stroke:#999;stroke-width:3" />
<path d="M1932.0,10.25c0.2,0.47,0.3,0.92,0.28,1.83C1932.0,25.5 1928.75,34.25 1920.61,41.25" style="fill:none;stroke:#999;stroke-width:3" />
<path d="M1929.85,29.92c3.71,3.38,10.6,9.39,14.4,10.79c1.28,0.47,1.49,0.81,2,0.87" style="fill:none;stroke:#999;stroke-width:3" />
<path d="M1904.56,47.37c0.45,0.78,0.62,1.86,0.62,2.91c0,1.04-0.15,32.7,0,33.75" style="fill:none;stroke:#999;stroke-width:3" />
<path d="M1905.93,48.69c2.57-0.13,23.15-2.3,25.49-2.45c1.95-0.13,3.49,1.23,3.32,2.19c-0.21,1.23-0.41,31.79-0.41,32.57" style="fill:none;stroke:#999;stroke-width:3" />
<path d="M1905.89,59.2c3.67,0,23.78-2.12,27.9-2.12" style="fill:none;stroke:#999;stroke-width:3" />
<path d="M1906.1,69.29c5.1,0,20.77-2.06,27.38-2.06" style="fill:none;stroke:#999;stroke-width:3" />
<path d="M1906.76,80.35c5.11,0,20.27-2.06,26.88-2.06" style="fill:none;stroke:#999;stroke-width:3" />
<path d="M1911.99,86.37c0.44,1.12,0.37,1.92-0.5,2.73c-2.64,2.46-10.29,7.99-15.58,10.89" style="fill:none;stroke:#999;stroke-width:3" />
<path d="M1926.23,85.77c6.08,3.48,13.28,9.79,14.94,12.84" style="fill:none;stroke:black;stroke-width:3" />
<circle cx="1926.23" cy="85.77" r="5" stroke-width="0" fill="#FF2A00" opacity="0.7" />
</svg>