<!-- 065e8 -->
<svg width="654px" height="109px" viewBox="0 0 654px 109px" xmlns="http://www.w3.org/2000/svg" xmlns:xlink="http://www.w3.org/1999/xlink" xml:space="preserve" version="1.1"  baseProfile="full">
<line x1="1" y1="1" x2="653" y2="1" style="stroke:#ddd;stroke-width:2" />
<line x1="1" y1="1" x2="1" y2="108" style="stroke:#ddd;stroke-width:2" />
<line x1="1" y1="108" x2="653" y2="108" style="stroke:#ddd;stroke-width:2" />
<line x1="653" y1="1" x2="653" y2="108" style="stroke:#ddd;stroke-width:2" />
<line x1="109" y1="1" x2="109" y2="108" style="stroke:#ddd;stroke-width:2" />
<line x1="218" y1="1" x2="218" y2="108" style="stroke:#ddd;stroke-width:2" />
<line x1="327" y1="1" x2="327" y2="108" style="stroke:#ddd;stroke-width:2" />
<line x1="436" y1="1" x2="436" y2="108" style="stroke:#ddd;stroke-width:2" />
<line x1="545" y1="1" x2="545" y2="108" style="stroke:#ddd;stroke-width:2" />
<line x1="1" y1="54" x2="653" y2="54" style="stroke:#ddd;stroke-width:2;stroke-dasharray:3 3" />
<line x1="55" y1="1" x2="55" y2="108" style="stroke:#ddd;stroke-width:2;stroke-dasharray:3 3" />
<line x1="164" y1="1" x2="164" y2="108" style="stroke:#ddd;stroke-width:2;stroke-dasharray:3 3" />
<line x1="273" y1="1" x2="273" y2="108" style="stroke:#ddd;stroke-width:2;stroke-dasharray:3 3" />
<line x1="382" y1="1" x2="382" y2="108" style="stroke:#ddd;stroke-width:2;stroke-dasharray:3 3" />
<line x1="491" y1="1" x2="491" y2="108" style="stroke:#ddd;stroke-width:2;stroke-dasharray:3 3" />
<line x1="600" y1="1" x2="600" y2="108" style="stroke:#ddd;stroke-width:2;stroke-dasharray:3 3" />
<path d="M73.8,13.56c0,1.31-0.68,2.39-1.58,2.92c-10.47,6.26-23.35,10.64-43.35,15.64" style="fill:none;stroke:black;stroke-width:3" />
<circle cx="73.8" cy="13.56" r="5" stroke-width="0" fill="#FF2A00" opacity="0.7" />
<path d="M182.8,13.56c0,1.31-0.68,2.39-1.58,2.92c-10.47,6.26-23.35,10.64-43.35,15.64" style="fill:none;stroke:#999;stroke-width:3" />
<path d="M134.23,12.75c0.95,0.95,1.14,2.25,1.14,3.54c0,3.71-0.11,9.71-0.11,17.11c0,11.59,2,12.66,28.91,12.66C190.0,46.06 191.75,44 191.75,35.25" style="fill:none;stroke:black;stroke-width:3" />
<circle cx="134.23" cy="12.75" r="5" stroke-width="0" fill="#FF2A00" opacity="0.7" />
<path d="M291.8,13.56c0,1.31-0.68,2.39-1.58,2.92c-10.47,6.26-23.35,10.64-43.35,15.64" style="fill:none;stroke:#999;stroke-width:3" />
<path d="M243.23,12.75c0.95,0.95,1.14,2.25,1.14,3.54c0,3.71-0.11,9.71-0.11,17.11c0,11.59,2,12.66,28.91,12.66C299.0,46.06 300.75,44 300.75,35.25" style="fill:none;stroke:#999;stroke-width:3" />
<path d="M249.52,60.05c0.73,0.95,0.98,2.18,0.98,3.33c0,0.85,0.11,19.25,0.11,29.11c0,3.17-0.06,5.34-0.06,5.49" style="fill:none;stroke:black;stroke-width:3" />
<circle cx="249.52" cy="60.05" r="5" stroke-width="0" fill="#FF2A00" opacity="0.7" />
<path d="M400.8,13.56c0,1.31-0.68,2.39-1.58,2.92c-10.47,6.26-23.35,10.64-43.35,15.64" style="fill:none;stroke:#999;stroke-width:3" />
<path d="M352.23,12.75c0.95,0.95,1.14,2.25,1.14,3.54c0,3.71-0.11,9.71-0.11,17.11c0,11.59,2,12.66,28.91,12.66C408.0,46.06 409.75,44 409.75,35.25" style="fill:none;stroke:#999;stroke-width:3" />
<path d="M358.52,60.05c0.73,0.95,0.98,2.18,0.98,3.33c0,0.85,0.11,19.25,0.11,29.11c0,3.17-0.06,5.34-0.06,5.49" style="fill:none;stroke:#999;stroke-width:3" />
<path d="M360.4,62.19c2.94-0.13,30.17-2.82,37.85-3.49c3.82-0.33,5.37,0.3,5.37,4.18c0,5.74,0.05,19.8,0.06,27.88c0,3.27,0.01,5.51,0.01,5.73" style="fill:none;stroke:black;stroke-width:3" />
<circle cx="360.4" cy="62.19" r="5" stroke-width="0" fill="#FF2A00" opacity="0.7" />
<path d="M509.8,13.56c0,1.31-0.68,2.39-1.58,2.92c-10.47,6.26-23.35,10.64-43.35,15.64" style="fill:none;stroke:#999;stroke-width:3" />
<path d="M461.23,12.75c0.95,0.95,1.14,2.25,1.14,3.54c0,3.71-0.11,9.71-0.11,17.11c0,11.59,2,12.66,28.91,12.66C517.0,46.06 518.75,44 518.75,35.25" style="fill:none;stroke:#999;stroke-width:3" />
<path d="M467.52,60.05c0.73,0.95,0.98,2.18,0.98,3.33c0,0.85,0.11,19.25,0.11,29.11c0,3.17-0.06,5.34-0.06,5.49" style="fill:none;stroke:#999;stroke-width:3" />
<path d="M469.4,62.19c2.94-0.13,30.17-2.82,37.85-3.49c3.82-0.33,5.37,0.3,5.37,4.18c0,5.74,0.05,19.8,0.06,27.88c0,3.27,0.01,5.51,0.01,5.73" style="fill:none;stroke:#999;stroke-width:3" />
<path d="M469.72,77.42c6.65-0.67,35.03-2.42,41.63-2.57" style="fill:none;stroke:black;stroke-width:3" />
<circle cx="469.72" cy="77.42" r="5" stroke-width="0" fill="#FF2A00" opacity="0.7" />
<path d="M618.8,13.56c0,1.31-0.68,2.39-1.58,2.92c-10.47,6.26-23.35,10.64-43.35,15.64" style="fill:none;stroke:#999;stroke-width:3" />
<path d="M570.23,12.75c0.95,0.95,1.14,2.25,1.14,3.54c0,3.71-0.11,9.71-0.11,17.11c0,11.59,2,12.66,28.91,12.66C626.0,46.06 627.75,44 627.75,35.25" style="fill:none;stroke:#999;stroke-width:3" />
<path d="M576.52,60.05c0.73,0.95,0.98,2.18,0.98,3.33c0,0.85,0.11,19.25,0.11,29.11c0,3.17-0.06,5.34-0.06,5.49" style="fill:none;stroke:#999;stroke-width:3" />
<path d="M578.4,62.19c2.94-0.13,30.17-2.82,37.85-3.49c3.82-0.33,5.37,0.3,5.37,4.18c0,5.74,0.05,19.8,0.06,27.88c0,3.27,0.01,5.51,0.01,5.73" style="fill:none;stroke:#999;stroke-width:3" />
<path d="M578.72,77.42c6.65-0.67,35.03-2.42,41.63-2.57" style="fill:none;stroke:#999;stroke-width:3" />
<path d="M578.77,94.48c9.04-0.61,30.56-1.75,41.82-2.28" style="fill:none;stroke:black;stroke-width:3" />
<circle cx="578.77" cy="94.48" r="5" stroke-width="0" fill="#FF2A00" opacity="0.7" />
</svg>