<!-- 06636 -->
<svg width="981px" height="109px" viewBox="0 0 981px 109px" xmlns="http://www.w3.org/2000/svg" xmlns:xlink="http://www.w3.org/1999/xlink" xml:space="preserve" version="1.1"  baseProfile="full">
<line x1="1" y1="1" x2="980" y2="1" style="stroke:#ddd;stroke-width:2" />
<line x1="1" y1="1" x2="1" y2="108" style="stroke:#ddd;stroke-width:2" />
<line x1="1" y1="108" x2="980" y2="108" style="stroke:#ddd;stroke-width:2" />
<line x1="980" y1="1" x2="980" y2="108" style="stroke:#ddd;stroke-width:2" />
<line x1="109" y1="1" x2="109" y2="108" style="stroke:#ddd;stroke-width:2" />
<line x1="218" y1="1" x2="218" y2="108" style="stroke:#ddd;stroke-width:2" />
<line x1="327" y1="1" x2="327" y2="108" style="stroke:#ddd;stroke-width:2" />
<line x1="436" y1="1" x2="436" y2="108" style="stroke:#ddd;stroke-width:2" />
<line x1="545" y1="1" x2="545" y2="108" style="stroke:#ddd;stroke-width:2" />
<line x1="654" y1="1" x2="654" y2="108" style="stroke:#ddd;stroke-width:2" />
<line x1="763" y1="1" x2="763" y2="108" style="stroke:#ddd;stroke-width:2" />
<line x1="872" y1="1" x2="872" y2="108" style="stroke:#ddd;stroke-width:2" />
<line x1="1" y1="54" x2="980" y2="54" style="stroke:#ddd;stroke-width:2;stroke-dasharray:3 3" />
<line x1="55" y1="1" x2="55" y2="108" style="stroke:#ddd;stroke-width:2;stroke-dasharray:3 3" />
<line x1="164" y1="1" x2="164" y2="108" style="stroke:#ddd;stroke-width:2;stroke-dasharray:3 3" />
<line x1="273" y1="1" x2="273" y2="108" style="stroke:#ddd;stroke-width:2;stroke-dasharray:3 3" />
<line x1="382" y1="1" x2="382" y2="108" style="stroke:#ddd;stroke-width:2;stroke-dasharray:3 3" />
<line x1="491" y1="1" x2="491" y2="108" style="stroke:#ddd;stroke-width:2;stroke-dasharray:3 3" />
<line x1="600" y1="1" x2="600" y2="108" style="stroke:#ddd;stroke-width:2;stroke-dasharray:3 3" />
<line x1="709" y1="1" x2="709" y2="108" style="stroke:#ddd;stroke-width:2;stroke-dasharray:3 3" />
<line x1="818" y1="1" x2="818" y2="108" style="stroke:#ddd;stroke-width:2;stroke-dasharray:3 3" />
<line x1="927" y1="1" x2="927" y2="108" style="stroke:#ddd;stroke-width:2;stroke-dasharray:3 3" />
<path d="M27.0,13c6.02,2.6,10.84,6.17,12.64,9.75" style="fill:none;stroke:black;stroke-width:3" />
<circle cx="27.0" cy="13.0" r="5" stroke-width="0" fill="#FF2A00" opacity="0.7" />
<path d="M136.0,13c6.02,2.6,10.84,6.17,12.64,9.75" style="fill:none;stroke:#999;stroke-width:3" />
<path d="M130.69,35.75c0.02,0.12,1.78,1.12,3.63,0.81C137.75,36 144.66,33.5 148.0,33.5c1.77,0,3.94,1.01,3.75,4.25c-0.8,13.75-0.99,48.72-0.99,53.27c0,7.73-5.01,2.98-7.97,0.92" style="fill:none;stroke:black;stroke-width:3" />
<circle cx="130.69" cy="35.75" r="5" stroke-width="0" fill="#FF2A00" opacity="0.7" />
<path d="M245.0,13c6.02,2.6,10.84,6.17,12.64,9.75" style="fill:none;stroke:#999;stroke-width:3" />
<path d="M239.69,35.75c0.02,0.12,1.78,1.12,3.63,0.81C246.75,36 253.66,33.5 257.0,33.5c1.77,0,3.94,1.01,3.75,4.25c-0.8,13.75-0.99,48.72-0.99,53.27c0,7.73-5.01,2.98-7.97,0.92" style="fill:none;stroke:#999;stroke-width:3" />
<path d="M232.5,53.96c1.27,0.23,2.76,0.91,4.03,0.45c1.27-0.45,10.39-2.35,12.5-3.25c2.12-0.91,3.94,0.73,3.18,2.72c-4.1,10.72-11.67,24.69-19.94,31" style="fill:none;stroke:black;stroke-width:3" />
<circle cx="232.5" cy="53.96" r="5" stroke-width="0" fill="#FF2A00" opacity="0.7" />
<path d="M354.0,13c6.02,2.6,10.84,6.17,12.64,9.75" style="fill:none;stroke:#999;stroke-width:3" />
<path d="M348.69,35.75c0.02,0.12,1.78,1.12,3.63,0.81C355.75,36 362.65999999999997,33.5 366.0,33.5c1.77,0,3.94,1.01,3.75,4.25c-0.8,13.75-0.99,48.72-0.99,53.27c0,7.73-5.01,2.98-7.97,0.92" style="fill:none;stroke:#999;stroke-width:3" />
<path d="M341.5,53.96c1.27,0.23,2.76,0.91,4.03,0.45c1.27-0.45,10.39-2.35,12.5-3.25c2.12-0.91,3.94,0.73,3.18,2.72c-4.1,10.72-11.67,24.69-19.94,31" style="fill:none;stroke:#999;stroke-width:3" />
<path d="M385.25,40.1c0.06,0.41,0.11,1.11-0.12,1.65C383.0,46.8 378.22,53.5 374.36,56.14" style="fill:none;stroke:black;stroke-width:3" />
<circle cx="385.25" cy="40.1" r="5" stroke-width="0" fill="#FF2A00" opacity="0.7" />
<path d="M463.0,13c6.02,2.6,10.84,6.17,12.64,9.75" style="fill:none;stroke:#999;stroke-width:3" />
<path d="M457.69,35.75c0.02,0.12,1.78,1.12,3.63,0.81C464.75,36 471.65999999999997,33.5 475.0,33.5c1.77,0,3.94,1.01,3.75,4.25c-0.8,13.75-0.99,48.72-0.99,53.27c0,7.73-5.01,2.98-7.97,0.92" style="fill:none;stroke:#999;stroke-width:3" />
<path d="M450.5,53.96c1.27,0.23,2.76,0.91,4.03,0.45c1.27-0.45,10.39-2.35,12.5-3.25c2.12-0.91,3.94,0.73,3.18,2.72c-4.1,10.72-11.67,24.69-19.94,31" style="fill:none;stroke:#999;stroke-width:3" />
<path d="M494.25,40.1c0.06,0.41,0.11,1.11-0.12,1.65C492.0,46.8 487.22,53.5 483.36,56.14" style="fill:none;stroke:#999;stroke-width:3" />
<path d="M479.40999999999997,55.24C489.55,66.91 506.56,82.66 517.9,89.38c2.39,1.42,4.66,2.13,6.85,2.62" style="fill:none;stroke:black;stroke-width:3" />
<circle cx="479.40999999999997" cy="55.24" r="5" stroke-width="0" fill="#FF2A00" opacity="0.7" />
<path d="M572.0,13c6.02,2.6,10.84,6.17,12.64,9.75" style="fill:none;stroke:#999;stroke-width:3" />
<path d="M566.69,35.75c0.02,0.12,1.78,1.12,3.63,0.81C573.75,36 580.66,33.5 584.0,33.5c1.77,0,3.94,1.01,3.75,4.25c-0.8,13.75-0.99,48.72-0.99,53.27c0,7.73-5.01,2.98-7.97,0.92" style="fill:none;stroke:#999;stroke-width:3" />
<path d="M559.5,53.96c1.27,0.23,2.76,0.91,4.03,0.45c1.27-0.45,10.39-2.35,12.5-3.25c2.12-0.91,3.94,0.73,3.18,2.72c-4.1,10.72-11.67,24.69-19.94,31" style="fill:none;stroke:#999;stroke-width:3" />
<path d="M603.25,40.1c0.06,0.41,0.11,1.11-0.12,1.65C601.0,46.8 596.22,53.5 592.36,56.14" style="fill:none;stroke:#999;stroke-width:3" />
<path d="M588.41,55.24C598.55,66.91 615.56,82.66 626.9,89.38c2.39,1.42,4.66,2.13,6.85,2.62" style="fill:none;stroke:#999;stroke-width:3" />
<path d="M613.27,24.44c0.39,0.78,0.78,1.18,0.78,2.22c0,1.04-0.13,47.29,0,48.34" style="fill:none;stroke:black;stroke-width:3" />
<circle cx="613.27" cy="24.44" r="5" stroke-width="0" fill="#FF2A00" opacity="0.7" />
<path d="M681.0,13c6.02,2.6,10.84,6.17,12.64,9.75" style="fill:none;stroke:#999;stroke-width:3" />
<path d="M675.69,35.75c0.02,0.12,1.78,1.12,3.63,0.81C682.75,36 689.66,33.5 693.0,33.5c1.77,0,3.94,1.01,3.75,4.25c-0.8,13.75-0.99,48.72-0.99,53.27c0,7.73-5.01,2.98-7.97,0.92" style="fill:none;stroke:#999;stroke-width:3" />
<path d="M668.5,53.96c1.27,0.23,2.76,0.91,4.03,0.45c1.27-0.45,10.39-2.35,12.5-3.25c2.12-0.91,3.94,0.73,3.18,2.72c-4.1,10.72-11.67,24.69-19.94,31" style="fill:none;stroke:#999;stroke-width:3" />
<path d="M712.25,40.1c0.06,0.41,0.11,1.11-0.12,1.65C710.0,46.8 705.22,53.5 701.36,56.14" style="fill:none;stroke:#999;stroke-width:3" />
<path d="M697.41,55.24C707.55,66.91 724.56,82.66 735.9,89.38c2.39,1.42,4.66,2.13,6.85,2.62" style="fill:none;stroke:#999;stroke-width:3" />
<path d="M722.27,24.44c0.39,0.78,0.78,1.18,0.78,2.22c0,1.04-0.13,47.29,0,48.34" style="fill:none;stroke:#999;stroke-width:3" />
<path d="M723.69,26.07c2.2-0.13,18.41-2.17,20.42-2.33c1.67-0.13,2.74,1.45,2.61,2.22c-0.26,1.57-0.52,47.23-0.52,48.01" style="fill:none;stroke:black;stroke-width:3" />
<circle cx="723.69" cy="26.07" r="5" stroke-width="0" fill="#FF2A00" opacity="0.7" />
<path d="M790.0,13c6.02,2.6,10.84,6.17,12.64,9.75" style="fill:none;stroke:#999;stroke-width:3" />
<path d="M784.69,35.75c0.02,0.12,1.78,1.12,3.63,0.81C791.75,36 798.66,33.5 802.0,33.5c1.77,0,3.94,1.01,3.75,4.25c-0.8,13.75-0.99,48.72-0.99,53.27c0,7.73-5.01,2.98-7.97,0.92" style="fill:none;stroke:#999;stroke-width:3" />
<path d="M777.5,53.96c1.27,0.23,2.76,0.91,4.03,0.45c1.27-0.45,10.39-2.35,12.5-3.25c2.12-0.91,3.94,0.73,3.18,2.72c-4.1,10.72-11.67,24.69-19.94,31" style="fill:none;stroke:#999;stroke-width:3" />
<path d="M821.25,40.1c0.06,0.41,0.11,1.11-0.12,1.65C819.0,46.8 814.22,53.5 810.36,56.14" style="fill:none;stroke:#999;stroke-width:3" />
<path d="M806.41,55.24C816.55,66.91 833.56,82.66 844.9,89.38c2.39,1.42,4.66,2.13,6.85,2.62" style="fill:none;stroke:#999;stroke-width:3" />
<path d="M831.27,24.44c0.39,0.78,0.78,1.18,0.78,2.22c0,1.04-0.13,47.29,0,48.34" style="fill:none;stroke:#999;stroke-width:3" />
<path d="M832.69,26.07c2.2-0.13,18.41-2.17,20.42-2.33c1.67-0.13,2.74,1.45,2.61,2.22c-0.26,1.57-0.52,47.23-0.52,48.01" style="fill:none;stroke:#999;stroke-width:3" />
<path d="M833.08,47.73c2.97,0,17.86-1.81,21.22-1.81" style="fill:none;stroke:black;stroke-width:3" />
<circle cx="833.08" cy="47.73" r="5" stroke-width="0" fill="#FF2A00" opacity="0.7" />
<path d="M899.0,13c6.02,2.6,10.84,6.17,12.64,9.75" style="fill:none;stroke:#999;stroke-width:3" />
<path d="M893.69,35.75c0.02,0.12,1.78,1.12,3.63,0.81C900.75,36 907.66,33.5 911.0,33.5c1.77,0,3.94,1.01,3.75,4.25c-0.8,13.75-0.99,48.72-0.99,53.27c0,7.73-5.01,2.98-7.97,0.92" style="fill:none;stroke:#999;stroke-width:3" />
<path d="M886.5,53.96c1.27,0.23,2.76,0.91,4.03,0.45c1.27-0.45,10.39-2.35,12.5-3.25c2.12-0.91,3.94,0.73,3.18,2.72c-4.1,10.72-11.67,24.69-19.94,31" style="fill:none;stroke:#999;stroke-width:3" />
<path d="M930.25,40.1c0.06,0.41,0.11,1.11-0.12,1.65C928.0,46.8 923.22,53.5 919.36,56.14" style="fill:none;stroke:#999;stroke-width:3" />
<path d="M915.41,55.24C925.55,66.91 942.56,82.66 953.9,89.38c2.39,1.42,4.66,2.13,6.85,2.62" style="fill:none;stroke:#999;stroke-width:3" />
<path d="M940.27,24.44c0.39,0.78,0.78,1.18,0.78,2.22c0,1.04-0.13,47.29,0,48.34" style="fill:none;stroke:#999;stroke-width:3" />
<path d="M941.69,26.07c2.2-0.13,18.41-2.17,20.42-2.33c1.67-0.13,2.74,1.45,2.61,2.22c-0.26,1.57-0.52,47.23-0.52,48.01" style="fill:none;stroke:#999;stroke-width:3" />
<path d="M942.08,47.73c2.97,0,17.86-1.81,21.22-1.81" style="fill:none;stroke:#999;stroke-width:3" />
<path d="M941.94,72.06C948.0,71.5 955.75,71 963.29,70.52" style="fill:none;stroke:black;stroke-width:3" />
<circle cx="941.94" cy="72.06" r="5" stroke-width="0" fill="#FF2A00" opacity="0.7" />
</svg>