<!-- 06829 -->
<svg width="1090px" height="109px" viewBox="0 0 1090px 109px" xmlns="http://www.w3.org/2000/svg" xmlns:xlink="http://www.w3.org/1999/xlink" xml:space="preserve" version="1.1"  baseProfile="full">
<line x1="1" y1="1" x2="1089" y2="1" style="stroke:#ddd;stroke-width:2" />
<line x1="1" y1="1" x2="1" y2="108" style="stroke:#ddd;stroke-width:2" />
<line x1="1" y1="108" x2="1089" y2="108" style="stroke:#ddd;stroke-width:2" />
<line x1="1089" y1="1" x2="1089" y2="108" style="stroke:#ddd;stroke-width:2" />
<line x1="109" y1="1" x2="109" y2="108" style="stroke:#ddd;stroke-width:2" />
<line x1="218" y1="1" x2="218" y2="108" style="stroke:#ddd;stroke-width:2" />
<line x1="327" y1="1" x2="327" y2="108" style="stroke:#ddd;stroke-width:2" />
<line x1="436" y1="1" x2="436" y2="108" style="stroke:#ddd;stroke-width:2" />
<line x1="545" y1="1" x2="545" y2="108" style="stroke:#ddd;stroke-width:2" />
<line x1="654" y1="1" x2="654" y2="108" style="stroke:#ddd;stroke-width:2" />
<line x1="763" y1="1" x2="763" y2="108" style="stroke:#ddd;stroke-width:2" />
<line x1="872" y1="1" x2="872" y2="108" style="stroke:#ddd;stroke-width:2" />
<line x1="981" y1="1" x2="981" y2="108" style="stroke:#ddd;stroke-width:2" />
<line x1="1" y1="54" x2="1089" y2="54" style="stroke:#ddd;stroke-width:2;stroke-dasharray:3 3" />
<line x1="55" y1="1" x2="55" y2="108" style="stroke:#ddd;stroke-width:2;stroke-dasharray:3 3" />
<line x1="164" y1="1" x2="164" y2="108" style="stroke:#ddd;stroke-width:2;stroke-dasharray:3 3" />
<line x1="273" y1="1" x2="273" y2="108" style="stroke:#ddd;stroke-width:2;stroke-dasharray:3 3" />
<line x1="382" y1="1" x2="382" y2="108" style="stroke:#ddd;stroke-width:2;stroke-dasharray:3 3" />
<line x1="491" y1="1" x2="491" y2="108" style="stroke:#ddd;stroke-width:2;stroke-dasharray:3 3" />
<line x1="600" y1="1" x2="600" y2="108" style="stroke:#ddd;stroke-width:2;stroke-dasharray:3 3" />
<line x1="709" y1="1" x2="709" y2="108" style="stroke:#ddd;stroke-width:2;stroke-dasharray:3 3" />
<line x1="818" y1="1" x2="818" y2="108" style="stroke:#ddd;stroke-width:2;stroke-dasharray:3 3" />
<line x1="927" y1="1" x2="927" y2="108" style="stroke:#ddd;stroke-width:2;stroke-dasharray:3 3" />
<line x1="1036" y1="1" x2="1036" y2="108" style="stroke:#ddd;stroke-width:2;stroke-dasharray:3 3" />
<path d="M10.28,38.72c0.36,0.24,2.47,0.41,3.42,0.31c4.07-0.41,17.7-1.71,24.25-2.91c0.95-0.17,2.22-0.24,2.82,0" style="fill:none;stroke:black;stroke-width:3" />
<circle cx="10.28" cy="38.72" r="5" stroke-width="0" fill="#FF2A00" opacity="0.7" />
<path d="M119.28,38.72c0.36,0.24,2.47,0.41,3.42,0.31c4.07-0.41,17.7-1.71,24.25-2.91c0.95-0.17,2.22-0.24,2.82,0" style="fill:none;stroke:#999;stroke-width:3" />
<path d="M134.86,15.5c0.91,0.47,2.39,2,2.54,4.42c0.06,0.95-0.12,68.75-0.3,74.58" style="fill:none;stroke:black;stroke-width:3" />
<circle cx="134.86" cy="15.5" r="5" stroke-width="0" fill="#FF2A00" opacity="0.7" />
<path d="M228.28,38.72c0.36,0.24,2.47,0.41,3.42,0.31c4.07-0.41,17.7-1.71,24.25-2.91c0.95-0.17,2.22-0.24,2.82,0" style="fill:none;stroke:#999;stroke-width:3" />
<path d="M243.86,15.5c0.91,0.47,2.39,2,2.54,4.42c0.06,0.95-0.12,68.75-0.3,74.58" style="fill:none;stroke:#999;stroke-width:3" />
<path d="M245.94,38.78C240.2,55.24 237.0,62.19 228.11,76.59" style="fill:none;stroke:black;stroke-width:3" />
<circle cx="245.94" cy="38.78" r="5" stroke-width="0" fill="#FF2A00" opacity="0.7" />
<path d="M337.28,38.72c0.36,0.24,2.47,0.41,3.42,0.31c4.07-0.41,17.7-1.71,24.25-2.91c0.95-0.17,2.22-0.24,2.82,0" style="fill:none;stroke:#999;stroke-width:3" />
<path d="M352.86,15.5c0.91,0.47,2.39,2,2.54,4.42c0.06,0.95-0.12,68.75-0.3,74.58" style="fill:none;stroke:#999;stroke-width:3" />
<path d="M354.94,38.78C349.2,55.24 346.0,62.19 337.11,76.59" style="fill:none;stroke:#999;stroke-width:3" />
<path d="M357.97,47.9c2.52,1.77,6.66,6.42,8.78,9.85" style="fill:none;stroke:black;stroke-width:3" />
<circle cx="357.97" cy="47.9" r="5" stroke-width="0" fill="#FF2A00" opacity="0.7" />
<path d="M446.28,38.72c0.36,0.24,2.47,0.41,3.42,0.31c4.07-0.41,17.7-1.71,24.25-2.91c0.95-0.17,2.22-0.24,2.82,0" style="fill:none;stroke:#999;stroke-width:3" />
<path d="M461.86,15.5c0.91,0.47,2.39,2,2.54,4.42c0.06,0.95-0.12,68.75-0.3,74.58" style="fill:none;stroke:#999;stroke-width:3" />
<path d="M463.94,38.78C458.2,55.24 455.0,62.19 446.11,76.59" style="fill:none;stroke:#999;stroke-width:3" />
<path d="M466.97,47.9c2.52,1.77,6.66,6.42,8.78,9.85" style="fill:none;stroke:#999;stroke-width:3" />
<path d="M475.0,23.4c1.96,0.95,2.3,0.95,5.19,0.63c5.86-0.64,15.16-3.38,16.95-3.52c2.02-0.16,3.2,1.26,3.26,3.82c0.07,2.83-0.75,56.21-0.75,65.22c0,9.52-6.9,0.24-7.91-0.32" style="fill:none;stroke:black;stroke-width:3" />
<circle cx="475.0" cy="23.4" r="5" stroke-width="0" fill="#FF2A00" opacity="0.7" />
<path d="M555.28,38.72c0.36,0.24,2.47,0.41,3.42,0.31c4.07-0.41,17.7-1.71,24.25-2.91c0.95-0.17,2.22-0.24,2.82,0" style="fill:none;stroke:#999;stroke-width:3" />
<path d="M570.86,15.5c0.91,0.47,2.39,2,2.54,4.42c0.06,0.95-0.12,68.75-0.3,74.58" style="fill:none;stroke:#999;stroke-width:3" />
<path d="M572.94,38.78C567.2,55.24 564.0,62.19 555.11,76.59" style="fill:none;stroke:#999;stroke-width:3" />
<path d="M575.97,47.9c2.52,1.77,6.66,6.42,8.78,9.85" style="fill:none;stroke:#999;stroke-width:3" />
<path d="M584.0,23.4c1.96,0.95,2.3,0.95,5.19,0.63c5.86-0.64,15.16-3.38,16.95-3.52c2.02-0.16,3.2,1.26,3.26,3.82c0.07,2.83-0.75,56.21-0.75,65.22c0,9.52-6.9,0.24-7.91-0.32" style="fill:none;stroke:#999;stroke-width:3" />
<path d="M599.48,25.66c0.04,0.42,0.07,1.1-0.07,1.71c-0.84,3.61-5.65,11.52-12.24,16.37" style="fill:none;stroke:black;stroke-width:3" />
<circle cx="599.48" cy="25.66" r="5" stroke-width="0" fill="#FF2A00" opacity="0.7" />
<path d="M664.28,38.72c0.36,0.24,2.47,0.41,3.42,0.31c4.07-0.41,17.7-1.71,24.25-2.91c0.95-0.17,2.22-0.24,2.82,0" style="fill:none;stroke:#999;stroke-width:3" />
<path d="M679.86,15.5c0.91,0.47,2.39,2,2.54,4.42c0.06,0.95-0.12,68.75-0.3,74.58" style="fill:none;stroke:#999;stroke-width:3" />
<path d="M681.94,38.78C676.2,55.24 673.0,62.19 664.11,76.59" style="fill:none;stroke:#999;stroke-width:3" />
<path d="M684.97,47.9c2.52,1.77,6.66,6.42,8.78,9.85" style="fill:none;stroke:#999;stroke-width:3" />
<path d="M693.0,23.4c1.96,0.95,2.3,0.95,5.19,0.63c5.86-0.64,15.16-3.38,16.95-3.52c2.02-0.16,3.2,1.26,3.26,3.82c0.07,2.83-0.75,56.21-0.75,65.22c0,9.52-6.9,0.24-7.91-0.32" style="fill:none;stroke:#999;stroke-width:3" />
<path d="M708.48,25.66c0.04,0.42,0.07,1.1-0.07,1.71c-0.84,3.61-5.65,11.52-12.24,16.37" style="fill:none;stroke:#999;stroke-width:3" />
<path d="M713.5,45.75c0.06,0.68,0.12,1.76-0.11,2.73c-1.41,5.76-9.51,18.4-20.6,26.14" style="fill:none;stroke:black;stroke-width:3" />
<circle cx="713.5" cy="45.75" r="5" stroke-width="0" fill="#FF2A00" opacity="0.7" />
<path d="M773.28,38.72c0.36,0.24,2.47,0.41,3.42,0.31c4.07-0.41,17.7-1.71,24.25-2.91c0.95-0.17,2.22-0.24,2.82,0" style="fill:none;stroke:#999;stroke-width:3" />
<path d="M788.86,15.5c0.91,0.47,2.39,2,2.54,4.42c0.06,0.95-0.12,68.75-0.3,74.58" style="fill:none;stroke:#999;stroke-width:3" />
<path d="M790.94,38.78C785.2,55.24 782.0,62.19 773.11,76.59" style="fill:none;stroke:#999;stroke-width:3" />
<path d="M793.97,47.9c2.52,1.77,6.66,6.42,8.78,9.85" style="fill:none;stroke:#999;stroke-width:3" />
<path d="M802.0,23.4c1.96,0.95,2.3,0.95,5.19,0.63c5.86-0.64,15.16-3.38,16.95-3.52c2.02-0.16,3.2,1.26,3.26,3.82c0.07,2.83-0.75,56.21-0.75,65.22c0,9.52-6.9,0.24-7.91-0.32" style="fill:none;stroke:#999;stroke-width:3" />
<path d="M817.48,25.66c0.04,0.42,0.07,1.1-0.07,1.71c-0.84,3.61-5.65,11.52-12.24,16.37" style="fill:none;stroke:#999;stroke-width:3" />
<path d="M822.5,45.75c0.06,0.68,0.12,1.76-0.11,2.73c-1.41,5.76-9.51,18.4-20.6,26.14" style="fill:none;stroke:#999;stroke-width:3" />
<path d="M833.26,19.84c1.95,0.98,1.61,0.98,4.48,0.65c5.83-0.66,13.55-2.16,15.33-2.26c4-0.23,3.83,1.16,3.83,3.87c0,4.34-0.42,55.92-0.42,65.21c0,9.87-8.36,0.75-9.36,0.17" style="fill:none;stroke:black;stroke-width:3" />
<circle cx="833.26" cy="19.84" r="5" stroke-width="0" fill="#FF2A00" opacity="0.7" />
<path d="M882.28,38.72c0.36,0.24,2.47,0.41,3.42,0.31c4.07-0.41,17.7-1.71,24.25-2.91c0.95-0.17,2.22-0.24,2.82,0" style="fill:none;stroke:#999;stroke-width:3" />
<path d="M897.86,15.5c0.91,0.47,2.39,2,2.54,4.42c0.06,0.95-0.12,68.75-0.3,74.58" style="fill:none;stroke:#999;stroke-width:3" />
<path d="M899.94,38.78C894.2,55.24 891.0,62.19 882.11,76.59" style="fill:none;stroke:#999;stroke-width:3" />
<path d="M902.97,47.9c2.52,1.77,6.66,6.42,8.78,9.85" style="fill:none;stroke:#999;stroke-width:3" />
<path d="M911.0,23.4c1.96,0.95,2.3,0.95,5.19,0.63c5.86-0.64,15.16-3.38,16.95-3.52c2.02-0.16,3.2,1.26,3.26,3.82c0.07,2.83-0.75,56.21-0.75,65.22c0,9.52-6.9,0.24-7.91-0.32" style="fill:none;stroke:#999;stroke-width:3" />
<path d="M926.48,25.66c0.04,0.42,0.07,1.1-0.07,1.71c-0.84,3.61-5.65,11.52-12.24,16.37" style="fill:none;stroke:#999;stroke-width:3" />
<path d="M931.5,45.75c0.06,0.68,0.12,1.76-0.11,2.73c-1.41,5.76-9.51,18.4-20.6,26.14" style="fill:none;stroke:#999;stroke-width:3" />
<path d="M942.26,19.84c1.95,0.98,1.61,0.98,4.48,0.65c5.83-0.66,13.55-2.16,15.33-2.26c4-0.23,3.83,1.16,3.83,3.87c0,4.34-0.42,55.92-0.42,65.21c0,9.87-8.36,0.75-9.36,0.17" style="fill:none;stroke:#999;stroke-width:3" />
<path d="M955.25,22.13c0.04,0.48,0.07,1.25-0.07,1.95c-0.88,4.1-5.95,13.11-12.89,18.63" style="fill:none;stroke:black;stroke-width:3" />
<circle cx="955.25" cy="22.13" r="5" stroke-width="0" fill="#FF2A00" opacity="0.7" />
<path d="M991.28,38.72c0.36,0.24,2.47,0.41,3.42,0.31c4.07-0.41,17.7-1.71,24.25-2.91c0.95-0.17,2.22-0.24,2.82,0" style="fill:none;stroke:#999;stroke-width:3" />
<path d="M1006.86,15.5c0.91,0.47,2.39,2,2.54,4.42c0.06,0.95-0.12,68.75-0.3,74.58" style="fill:none;stroke:#999;stroke-width:3" />
<path d="M1008.94,38.78C1003.2,55.24 1000.0,62.19 991.11,76.59" style="fill:none;stroke:#999;stroke-width:3" />
<path d="M1011.97,47.9c2.52,1.77,6.66,6.42,8.78,9.85" style="fill:none;stroke:#999;stroke-width:3" />
<path d="M1020.0,23.4c1.96,0.95,2.3,0.95,5.19,0.63c5.86-0.64,15.16-3.38,16.95-3.52c2.02-0.16,3.2,1.26,3.26,3.82c0.07,2.83-0.75,56.21-0.75,65.22c0,9.52-6.9,0.24-7.91-0.32" style="fill:none;stroke:#999;stroke-width:3" />
<path d="M1035.48,25.66c0.04,0.42,0.07,1.1-0.07,1.71c-0.84,3.61-5.65,11.52-12.24,16.37" style="fill:none;stroke:#999;stroke-width:3" />
<path d="M1040.5,45.75c0.06,0.68,0.12,1.76-0.11,2.73c-1.41,5.76-9.51,18.4-20.6,26.14" style="fill:none;stroke:#999;stroke-width:3" />
<path d="M1051.26,19.84c1.95,0.98,1.61,0.98,4.48,0.65c5.83-0.66,13.55-2.16,15.33-2.26c4-0.23,3.83,1.16,3.83,3.87c0,4.34-0.42,55.92-0.42,65.21c0,9.87-8.36,0.75-9.36,0.17" style="fill:none;stroke:#999;stroke-width:3" />
<path d="M1064.25,22.13c0.04,0.48,0.07,1.25-0.07,1.95c-0.88,4.1-5.95,13.11-12.89,18.63" style="fill:none;stroke:#999;stroke-width:3" />
<path d="M1069.35,45.07c0.05,0.64,0.11,1.67-0.1,2.59c-1.2,5.47-8.06,17.47-17.45,24.81" style="fill:none;stroke:black;stroke-width:3" />
<circle cx="1069.35" cy="45.07" r="5" stroke-width="0" fill="#FF2A00" opacity="0.7" />
</svg>