<!-- 0685d -->
<svg width="1199px" height="109px" viewBox="0 0 1199px 109px" xmlns="http://www.w3.org/2000/svg" xmlns:xlink="http://www.w3.org/1999/xlink" xml:space="preserve" version="1.1"  baseProfile="full">
<line x1="1" y1="1" x2="1198" y2="1" style="stroke:#ddd;stroke-width:2" />
<line x1="1" y1="1" x2="1" y2="108" style="stroke:#ddd;stroke-width:2" />
<line x1="1" y1="108" x2="1198" y2="108" style="stroke:#ddd;stroke-width:2" />
<line x1="1198" y1="1" x2="1198" y2="108" style="stroke:#ddd;stroke-width:2" />
<line x1="109" y1="1" x2="109" y2="108" style="stroke:#ddd;stroke-width:2" />
<line x1="218" y1="1" x2="218" y2="108" style="stroke:#ddd;stroke-width:2" />
<line x1="327" y1="1" x2="327" y2="108" style="stroke:#ddd;stroke-width:2" />
<line x1="436" y1="1" x2="436" y2="108" style="stroke:#ddd;stroke-width:2" />
<line x1="545" y1="1" x2="545" y2="108" style="stroke:#ddd;stroke-width:2" />
<line x1="654" y1="1" x2="654" y2="108" style="stroke:#ddd;stroke-width:2" />
<line x1="763" y1="1" x2="763" y2="108" style="stroke:#ddd;stroke-width:2" />
<line x1="872" y1="1" x2="872" y2="108" style="stroke:#ddd;stroke-width:2" />
<line x1="981" y1="1" x2="981" y2="108" style="stroke:#ddd;stroke-width:2" />
<line x1="1090" y1="1" x2="1090" y2="108" style="stroke:#ddd;stroke-width:2" />
<line x1="1" y1="54" x2="1198" y2="54" style="stroke:#ddd;stroke-width:2;stroke-dasharray:3 3" />
<line x1="55" y1="1" x2="55" y2="108" style="stroke:#ddd;stroke-width:2;stroke-dasharray:3 3" />
<line x1="164" y1="1" x2="164" y2="108" style="stroke:#ddd;stroke-width:2;stroke-dasharray:3 3" />
<line x1="273" y1="1" x2="273" y2="108" style="stroke:#ddd;stroke-width:2;stroke-dasharray:3 3" />
<line x1="382" y1="1" x2="382" y2="108" style="stroke:#ddd;stroke-width:2;stroke-dasharray:3 3" />
<line x1="491" y1="1" x2="491" y2="108" style="stroke:#ddd;stroke-width:2;stroke-dasharray:3 3" />
<line x1="600" y1="1" x2="600" y2="108" style="stroke:#ddd;stroke-width:2;stroke-dasharray:3 3" />
<line x1="709" y1="1" x2="709" y2="108" style="stroke:#ddd;stroke-width:2;stroke-dasharray:3 3" />
<line x1="818" y1="1" x2="818" y2="108" style="stroke:#ddd;stroke-width:2;stroke-dasharray:3 3" />
<line x1="927" y1="1" x2="927" y2="108" style="stroke:#ddd;stroke-width:2;stroke-dasharray:3 3" />
<line x1="1036" y1="1" x2="1036" y2="108" style="stroke:#ddd;stroke-width:2;stroke-dasharray:3 3" />
<line x1="1145" y1="1" x2="1145" y2="108" style="stroke:#ddd;stroke-width:2;stroke-dasharray:3 3" />
<path d="M11.78,37.72c0.35,0.24,2.39,0.41,3.31,0.31c3.94-0.41,16.12-1.71,22.45-2.91c0.92-0.17,1.15-0.24,1.73,0" style="fill:none;stroke:black;stroke-width:3" />
<circle cx="11.78" cy="37.72" r="5" stroke-width="0" fill="#FF2A00" opacity="0.7" />
<path d="M120.78,37.72c0.35,0.24,2.39,0.41,3.31,0.31c3.94-0.41,16.12-1.71,22.45-2.91c0.92-0.17,1.15-0.24,1.73,0" style="fill:none;stroke:#999;stroke-width:3" />
<path d="M135.36,14.5c0.91,0.47,2.04,2.5,2.04,4.92c0,0.95-0.12,71.25-0.3,77.08" style="fill:none;stroke:black;stroke-width:3" />
<circle cx="135.36" cy="14.5" r="5" stroke-width="0" fill="#FF2A00" opacity="0.7" />
<path d="M229.78,37.72c0.35,0.24,2.39,0.41,3.31,0.31c3.94-0.41,16.12-1.71,22.45-2.91c0.92-0.17,1.15-0.24,1.73,0" style="fill:none;stroke:#999;stroke-width:3" />
<path d="M244.36,14.5c0.91,0.47,2.04,2.5,2.04,4.92c0,0.95-0.12,71.25-0.3,77.08" style="fill:none;stroke:#999;stroke-width:3" />
<path d="M245.94,39.28C240.52,54.1 237.5,60.37 229.11,73.34" style="fill:none;stroke:black;stroke-width:3" />
<circle cx="245.94" cy="39.28" r="5" stroke-width="0" fill="#FF2A00" opacity="0.7" />
<path d="M338.78,37.72c0.35,0.24,2.39,0.41,3.31,0.31c3.94-0.41,16.12-1.71,22.45-2.91c0.92-0.17,1.15-0.24,1.73,0" style="fill:none;stroke:#999;stroke-width:3" />
<path d="M353.36,14.5c0.91,0.47,2.04,2.5,2.04,4.92c0,0.95-0.12,71.25-0.3,77.08" style="fill:none;stroke:#999;stroke-width:3" />
<path d="M354.94,39.28C349.52,54.1 346.5,60.37 338.11,73.34" style="fill:none;stroke:#999;stroke-width:3" />
<path d="M357.97,44.15c2.06,1.44,4.92,6.36,6.66,9.14" style="fill:none;stroke:black;stroke-width:3" />
<circle cx="357.97" cy="44.15" r="5" stroke-width="0" fill="#FF2A00" opacity="0.7" />
<path d="M447.78,37.72c0.35,0.24,2.39,0.41,3.31,0.31c3.94-0.41,16.12-1.71,22.45-2.91c0.92-0.17,1.15-0.24,1.73,0" style="fill:none;stroke:#999;stroke-width:3" />
<path d="M462.36,14.5c0.91,0.47,2.04,2.5,2.04,4.92c0,0.95-0.12,71.25-0.3,77.08" style="fill:none;stroke:#999;stroke-width:3" />
<path d="M463.94,39.28C458.52,54.1 455.5,60.37 447.11,73.34" style="fill:none;stroke:#999;stroke-width:3" />
<path d="M466.97,44.15c2.06,1.44,4.92,6.36,6.66,9.14" style="fill:none;stroke:#999;stroke-width:3" />
<path d="M489.04,15.61c0.15,0.76,0.45,3.03,0.3,4.5C488.25,31 484.5,46.5 474.46,59.96" style="fill:none;stroke:black;stroke-width:3" />
<circle cx="489.04" cy="15.61" r="5" stroke-width="0" fill="#FF2A00" opacity="0.7" />
<path d="M556.78,37.72c0.35,0.24,2.39,0.41,3.31,0.31c3.94-0.41,16.12-1.71,22.45-2.91c0.92-0.17,1.15-0.24,1.73,0" style="fill:none;stroke:#999;stroke-width:3" />
<path d="M571.36,14.5c0.91,0.47,2.04,2.5,2.04,4.92c0,0.95-0.12,71.25-0.3,77.08" style="fill:none;stroke:#999;stroke-width:3" />
<path d="M572.94,39.28C567.52,54.1 564.5,60.37 556.11,73.34" style="fill:none;stroke:#999;stroke-width:3" />
<path d="M575.97,44.15c2.06,1.44,4.92,6.36,6.66,9.14" style="fill:none;stroke:#999;stroke-width:3" />
<path d="M598.04,15.61c0.15,0.76,0.45,3.03,0.3,4.5C597.25,31 593.5,46.5 583.46,59.96" style="fill:none;stroke:#999;stroke-width:3" />
<path d="M596.51,34.32c0.23,0.04,2.22,0,2.87-0.13c2.14-0.42,5.62-1.69,9.33-2.42c2.31-0.45,2.7,1.01,2.16,3.41c-2.94,13.16-16.28,45.37-29.4,52.15" style="fill:none;stroke:black;stroke-width:3" />
<circle cx="596.51" cy="34.32" r="5" stroke-width="0" fill="#FF2A00" opacity="0.7" />
<path d="M665.78,37.72c0.35,0.24,2.39,0.41,3.31,0.31c3.94-0.41,16.12-1.71,22.45-2.91c0.92-0.17,1.15-0.24,1.73,0" style="fill:none;stroke:#999;stroke-width:3" />
<path d="M680.36,14.5c0.91,0.47,2.04,2.5,2.04,4.92c0,0.95-0.12,71.25-0.3,77.08" style="fill:none;stroke:#999;stroke-width:3" />
<path d="M681.94,39.28C676.52,54.1 673.5,60.37 665.11,73.34" style="fill:none;stroke:#999;stroke-width:3" />
<path d="M684.97,44.15c2.06,1.44,4.92,6.36,6.66,9.14" style="fill:none;stroke:#999;stroke-width:3" />
<path d="M707.04,15.61c0.15,0.76,0.45,3.03,0.3,4.5C706.25,31 702.5,46.5 692.46,59.96" style="fill:none;stroke:#999;stroke-width:3" />
<path d="M705.51,34.32c0.23,0.04,2.22,0,2.87-0.13c2.14-0.42,5.62-1.69,9.33-2.42c2.31-0.45,2.7,1.01,2.16,3.41c-2.94,13.16-16.28,45.37-29.4,52.15" style="fill:none;stroke:#999;stroke-width:3" />
<path d="M701.65,51.49c1.96,1.34,5.07,5.53,5.56,7.62" style="fill:none;stroke:black;stroke-width:3" />
<circle cx="701.65" cy="51.49" r="5" stroke-width="0" fill="#FF2A00" opacity="0.7" />
<path d="M774.78,37.72c0.35,0.24,2.39,0.41,3.31,0.31c3.94-0.41,16.12-1.71,22.45-2.91c0.92-0.17,1.15-0.24,1.73,0" style="fill:none;stroke:#999;stroke-width:3" />
<path d="M789.36,14.5c0.91,0.47,2.04,2.5,2.04,4.92c0,0.95-0.12,71.25-0.3,77.08" style="fill:none;stroke:#999;stroke-width:3" />
<path d="M790.94,39.28C785.52,54.1 782.5,60.37 774.11,73.34" style="fill:none;stroke:#999;stroke-width:3" />
<path d="M793.97,44.15c2.06,1.44,4.92,6.36,6.66,9.14" style="fill:none;stroke:#999;stroke-width:3" />
<path d="M816.04,15.61c0.15,0.76,0.45,3.03,0.3,4.5C815.25,31 811.5,46.5 801.46,59.96" style="fill:none;stroke:#999;stroke-width:3" />
<path d="M814.51,34.32c0.23,0.04,2.22,0,2.87-0.13c2.14-0.42,5.62-1.69,9.33-2.42c2.31-0.45,2.7,1.01,2.16,3.41c-2.94,13.16-16.28,45.37-29.4,52.15" style="fill:none;stroke:#999;stroke-width:3" />
<path d="M810.65,51.49c1.96,1.34,5.07,5.53,5.56,7.62" style="fill:none;stroke:#999;stroke-width:3" />
<path d="M832.66,37.47c0.68,0.18,1.93,0.23,2.62,0.18C839.63,37.33 853.0,36 857.91,35.18c1.12-0.19,1.82,0.09,2.39,0.18" style="fill:none;stroke:black;stroke-width:3" />
<circle cx="832.66" cy="37.47" r="5" stroke-width="0" fill="#FF2A00" opacity="0.7" />
<path d="M883.78,37.72c0.35,0.24,2.39,0.41,3.31,0.31c3.94-0.41,16.12-1.71,22.45-2.91c0.92-0.17,1.15-0.24,1.73,0" style="fill:none;stroke:#999;stroke-width:3" />
<path d="M898.36,14.5c0.91,0.47,2.04,2.5,2.04,4.92c0,0.95-0.12,71.25-0.3,77.08" style="fill:none;stroke:#999;stroke-width:3" />
<path d="M899.94,39.28C894.52,54.1 891.5,60.37 883.11,73.34" style="fill:none;stroke:#999;stroke-width:3" />
<path d="M902.97,44.15c2.06,1.44,4.92,6.36,6.66,9.14" style="fill:none;stroke:#999;stroke-width:3" />
<path d="M925.04,15.61c0.15,0.76,0.45,3.03,0.3,4.5C924.25,31 920.5,46.5 910.46,59.96" style="fill:none;stroke:#999;stroke-width:3" />
<path d="M923.51,34.32c0.23,0.04,2.22,0,2.87-0.13c2.14-0.42,5.62-1.69,9.33-2.42c2.31-0.45,2.7,1.01,2.16,3.41c-2.94,13.16-16.28,45.37-29.4,52.15" style="fill:none;stroke:#999;stroke-width:3" />
<path d="M919.65,51.49c1.96,1.34,5.07,5.53,5.56,7.62" style="fill:none;stroke:#999;stroke-width:3" />
<path d="M941.66,37.47c0.68,0.18,1.93,0.23,2.62,0.18C948.63,37.33 962.0,36 966.91,35.18c1.12-0.19,1.82,0.09,2.39,0.18" style="fill:none;stroke:#999;stroke-width:3" />
<path d="M945.89,37.74c0.79,0.42,1.26,1.89,1.42,2.73c0.16,0.84,0,16.6-0.16,21.85" style="fill:none;stroke:black;stroke-width:3" />
<circle cx="945.89" cy="37.74" r="5" stroke-width="0" fill="#FF2A00" opacity="0.7" />
<path d="M992.78,37.72c0.35,0.24,2.39,0.41,3.31,0.31c3.94-0.41,16.12-1.71,22.45-2.91c0.92-0.17,1.15-0.24,1.73,0" style="fill:none;stroke:#999;stroke-width:3" />
<path d="M1007.36,14.5c0.91,0.47,2.04,2.5,2.04,4.92c0,0.95-0.12,71.25-0.3,77.08" style="fill:none;stroke:#999;stroke-width:3" />
<path d="M1008.94,39.28C1003.52,54.1 1000.5,60.37 992.11,73.34" style="fill:none;stroke:#999;stroke-width:3" />
<path d="M1011.97,44.15c2.06,1.44,4.92,6.36,6.66,9.14" style="fill:none;stroke:#999;stroke-width:3" />
<path d="M1034.04,15.61c0.15,0.76,0.45,3.03,0.3,4.5C1033.25,31 1029.5,46.5 1019.46,59.96" style="fill:none;stroke:#999;stroke-width:3" />
<path d="M1032.51,34.32c0.23,0.04,2.22,0,2.87-0.13c2.14-0.42,5.62-1.69,9.33-2.42c2.31-0.45,2.7,1.01,2.16,3.41c-2.94,13.16-16.28,45.37-29.4,52.15" style="fill:none;stroke:#999;stroke-width:3" />
<path d="M1028.65,51.49c1.96,1.34,5.07,5.53,5.56,7.62" style="fill:none;stroke:#999;stroke-width:3" />
<path d="M1050.6599999999999,37.47c0.68,0.18,1.93,0.23,2.62,0.18C1057.63,37.33 1071.0,36 1075.9099999999999,35.18c1.12-0.19,1.82,0.09,2.39,0.18" style="fill:none;stroke:#999;stroke-width:3" />
<path d="M1054.8899999999999,37.74c0.79,0.42,1.26,1.89,1.42,2.73c0.16,0.84,0,16.6-0.16,21.85" style="fill:none;stroke:#999;stroke-width:3" />
<path d="M1043.8,63c0.91,0.43,2.57,0.49,3.48,0.43c6.47-0.42,24.25-2.54,31.24-3.02c1.51-0.1,2.42,0.2,3.18,0.42" style="fill:none;stroke:black;stroke-width:3" />
<circle cx="1043.8" cy="63.0" r="5" stroke-width="0" fill="#FF2A00" opacity="0.7" />
<path d="M1101.78,37.72c0.35,0.24,2.39,0.41,3.31,0.31c3.94-0.41,16.12-1.71,22.45-2.91c0.92-0.17,1.15-0.24,1.73,0" style="fill:none;stroke:#999;stroke-width:3" />
<path d="M1116.3600000000001,14.5c0.91,0.47,2.04,2.5,2.04,4.92c0,0.95-0.12,71.25-0.3,77.08" style="fill:none;stroke:#999;stroke-width:3" />
<path d="M1117.94,39.28C1112.52,54.1 1109.5,60.37 1101.1100000000001,73.34" style="fill:none;stroke:#999;stroke-width:3" />
<path d="M1120.97,44.15c2.06,1.44,4.92,6.36,6.66,9.14" style="fill:none;stroke:#999;stroke-width:3" />
<path d="M1143.04,15.61c0.15,0.76,0.45,3.03,0.3,4.5C1142.25,31 1138.5,46.5 1128.46,59.96" style="fill:none;stroke:#999;stroke-width:3" />
<path d="M1141.51,34.32c0.23,0.04,2.22,0,2.87-0.13c2.14-0.42,5.62-1.69,9.33-2.42c2.31-0.45,2.7,1.01,2.16,3.41c-2.94,13.16-16.28,45.37-29.4,52.15" style="fill:none;stroke:#999;stroke-width:3" />
<path d="M1137.65,51.49c1.96,1.34,5.07,5.53,5.56,7.62" style="fill:none;stroke:#999;stroke-width:3" />
<path d="M1159.6599999999999,37.47c0.68,0.18,1.93,0.23,2.62,0.18C1166.63,37.33 1180.0,36 1184.9099999999999,35.18c1.12-0.19,1.82,0.09,2.39,0.18" style="fill:none;stroke:#999;stroke-width:3" />
<path d="M1163.8899999999999,37.74c0.79,0.42,1.26,1.89,1.42,2.73c0.16,0.84,0,16.6-0.16,21.85" style="fill:none;stroke:#999;stroke-width:3" />
<path d="M1152.8,63c0.91,0.43,2.57,0.49,3.48,0.43c6.47-0.42,24.25-2.54,31.24-3.02c1.51-0.1,2.42,0.2,3.18,0.42" style="fill:none;stroke:#999;stroke-width:3" />
<path d="M1174.99,13.92c1.04,0.49,1.66,3.07,1.87,4.06c0.21,0.99,0,72.3-0.21,78.46" style="fill:none;stroke:black;stroke-width:3" />
<circle cx="1174.99" cy="13.92" r="5" stroke-width="0" fill="#FF2A00" opacity="0.7" />
</svg>