<!-- 0692a -->
<svg width="1308px" height="109px" viewBox="0 0 1308px 109px" xmlns="http://www.w3.org/2000/svg" xmlns:xlink="http://www.w3.org/1999/xlink" xml:space="preserve" version="1.1"  baseProfile="full">
<line x1="1" y1="1" x2="1307" y2="1" style="stroke:#ddd;stroke-width:2" />
<line x1="1" y1="1" x2="1" y2="108" style="stroke:#ddd;stroke-width:2" />
<line x1="1" y1="108" x2="1307" y2="108" style="stroke:#ddd;stroke-width:2" />
<line x1="1307" y1="1" x2="1307" y2="108" style="stroke:#ddd;stroke-width:2" />
<line x1="109" y1="1" x2="109" y2="108" style="stroke:#ddd;stroke-width:2" />
<line x1="218" y1="1" x2="218" y2="108" style="stroke:#ddd;stroke-width:2" />
<line x1="327" y1="1" x2="327" y2="108" style="stroke:#ddd;stroke-width:2" />
<line x1="436" y1="1" x2="436" y2="108" style="stroke:#ddd;stroke-width:2" />
<line x1="545" y1="1" x2="545" y2="108" style="stroke:#ddd;stroke-width:2" />
<line x1="654" y1="1" x2="654" y2="108" style="stroke:#ddd;stroke-width:2" />
<line x1="763" y1="1" x2="763" y2="108" style="stroke:#ddd;stroke-width:2" />
<line x1="872" y1="1" x2="872" y2="108" style="stroke:#ddd;stroke-width:2" />
<line x1="981" y1="1" x2="981" y2="108" style="stroke:#ddd;stroke-width:2" />
<line x1="1090" y1="1" x2="1090" y2="108" style="stroke:#ddd;stroke-width:2" />
<line x1="1199" y1="1" x2="1199" y2="108" style="stroke:#ddd;stroke-width:2" />
<line x1="1" y1="54" x2="1307" y2="54" style="stroke:#ddd;stroke-width:2;stroke-dasharray:3 3" />
<line x1="55" y1="1" x2="55" y2="108" style="stroke:#ddd;stroke-width:2;stroke-dasharray:3 3" />
<line x1="164" y1="1" x2="164" y2="108" style="stroke:#ddd;stroke-width:2;stroke-dasharray:3 3" />
<line x1="273" y1="1" x2="273" y2="108" style="stroke:#ddd;stroke-width:2;stroke-dasharray:3 3" />
<line x1="382" y1="1" x2="382" y2="108" style="stroke:#ddd;stroke-width:2;stroke-dasharray:3 3" />
<line x1="491" y1="1" x2="491" y2="108" style="stroke:#ddd;stroke-width:2;stroke-dasharray:3 3" />
<line x1="600" y1="1" x2="600" y2="108" style="stroke:#ddd;stroke-width:2;stroke-dasharray:3 3" />
<line x1="709" y1="1" x2="709" y2="108" style="stroke:#ddd;stroke-width:2;stroke-dasharray:3 3" />
<line x1="818" y1="1" x2="818" y2="108" style="stroke:#ddd;stroke-width:2;stroke-dasharray:3 3" />
<line x1="927" y1="1" x2="927" y2="108" style="stroke:#ddd;stroke-width:2;stroke-dasharray:3 3" />
<line x1="1036" y1="1" x2="1036" y2="108" style="stroke:#ddd;stroke-width:2;stroke-dasharray:3 3" />
<line x1="1145" y1="1" x2="1145" y2="108" style="stroke:#ddd;stroke-width:2;stroke-dasharray:3 3" />
<line x1="1254" y1="1" x2="1254" y2="108" style="stroke:#ddd;stroke-width:2;stroke-dasharray:3 3" />
<path d="M10.78,38.22c0.35,0.24,2.39,0.41,3.31,0.31c3.94-0.41,16.12-1.71,22.45-2.91c0.92-0.17,2.15-0.24,2.73,0" style="fill:none;stroke:black;stroke-width:3" />
<circle cx="10.78" cy="38.22" r="5" stroke-width="0" fill="#FF2A00" opacity="0.7" />
<path d="M119.78,38.22c0.35,0.24,2.39,0.41,3.31,0.31c3.94-0.41,16.12-1.71,22.45-2.91c0.92-0.17,2.15-0.24,2.73,0" style="fill:none;stroke:#999;stroke-width:3" />
<path d="M134.86,15c0.91,0.47,2.54,2.25,2.54,4.42c0,0.95-0.12,70.25-0.3,76.08" style="fill:none;stroke:black;stroke-width:3" />
<circle cx="134.86" cy="15.0" r="5" stroke-width="0" fill="#FF2A00" opacity="0.7" />
<path d="M228.78,38.22c0.35,0.24,2.39,0.41,3.31,0.31c3.94-0.41,16.12-1.71,22.45-2.91c0.92-0.17,2.15-0.24,2.73,0" style="fill:none;stroke:#999;stroke-width:3" />
<path d="M243.86,15c0.91,0.47,2.54,2.25,2.54,4.42c0,0.95-0.12,70.25-0.3,76.08" style="fill:none;stroke:#999;stroke-width:3" />
<path d="M245.94,39.28C242.0,51 234.75,63.25 228.61,71.84" style="fill:none;stroke:black;stroke-width:3" />
<circle cx="245.94" cy="39.28" r="5" stroke-width="0" fill="#FF2A00" opacity="0.7" />
<path d="M337.78,38.22c0.35,0.24,2.39,0.41,3.31,0.31c3.94-0.41,16.12-1.71,22.45-2.91c0.92-0.17,2.15-0.24,2.73,0" style="fill:none;stroke:#999;stroke-width:3" />
<path d="M352.86,15c0.91,0.47,2.54,2.25,2.54,4.42c0,0.95-0.12,70.25-0.3,76.08" style="fill:none;stroke:#999;stroke-width:3" />
<path d="M354.94,39.28C351.0,51 343.75,63.25 337.61,71.84" style="fill:none;stroke:#999;stroke-width:3" />
<path d="M358.72,48.15c2.01,1.31,5.33,5.56,7.03,8.1" style="fill:none;stroke:black;stroke-width:3" />
<circle cx="358.72" cy="48.15" r="5" stroke-width="0" fill="#FF2A00" opacity="0.7" />
<path d="M446.78,38.22c0.35,0.24,2.39,0.41,3.31,0.31c3.94-0.41,16.12-1.71,22.45-2.91c0.92-0.17,2.15-0.24,2.73,0" style="fill:none;stroke:#999;stroke-width:3" />
<path d="M461.86,15c0.91,0.47,2.54,2.25,2.54,4.42c0,0.95-0.12,70.25-0.3,76.08" style="fill:none;stroke:#999;stroke-width:3" />
<path d="M463.94,39.28C460.0,51 452.75,63.25 446.61,71.84" style="fill:none;stroke:#999;stroke-width:3" />
<path d="M467.72,48.15c2.01,1.31,5.33,5.56,7.03,8.1" style="fill:none;stroke:#999;stroke-width:3" />
<path d="M488.33,18.59c2.5,1.77,6.47,7.3,7.1,10.06" style="fill:none;stroke:black;stroke-width:3" />
<circle cx="488.33" cy="18.59" r="5" stroke-width="0" fill="#FF2A00" opacity="0.7" />
<path d="M555.78,38.22c0.35,0.24,2.39,0.41,3.31,0.31c3.94-0.41,16.12-1.71,22.45-2.91c0.92-0.17,2.15-0.24,2.73,0" style="fill:none;stroke:#999;stroke-width:3" />
<path d="M570.86,15c0.91,0.47,2.54,2.25,2.54,4.42c0,0.95-0.12,70.25-0.3,76.08" style="fill:none;stroke:#999;stroke-width:3" />
<path d="M572.94,39.28C569.0,51 561.75,63.25 555.61,71.84" style="fill:none;stroke:#999;stroke-width:3" />
<path d="M576.72,48.15c2.01,1.31,5.33,5.56,7.03,8.1" style="fill:none;stroke:#999;stroke-width:3" />
<path d="M597.3299999999999,18.59c2.5,1.77,6.47,7.3,7.1,10.06" style="fill:none;stroke:#999;stroke-width:3" />
<path d="M624.35,15.01c0.02,0.38,0.04,0.98-0.04,1.52c-0.52,3.21-2.73,8.82-6.93,14.57" style="fill:none;stroke:black;stroke-width:3" />
<circle cx="624.35" cy="15.01" r="5" stroke-width="0" fill="#FF2A00" opacity="0.7" />
<path d="M664.78,38.22c0.35,0.24,2.39,0.41,3.31,0.31c3.94-0.41,16.12-1.71,22.45-2.91c0.92-0.17,2.15-0.24,2.73,0" style="fill:none;stroke:#999;stroke-width:3" />
<path d="M679.86,15c0.91,0.47,2.54,2.25,2.54,4.42c0,0.95-0.12,70.25-0.3,76.08" style="fill:none;stroke:#999;stroke-width:3" />
<path d="M681.94,39.28C678.0,51 670.75,63.25 664.61,71.84" style="fill:none;stroke:#999;stroke-width:3" />
<path d="M685.72,48.15c2.01,1.31,5.33,5.56,7.03,8.1" style="fill:none;stroke:#999;stroke-width:3" />
<path d="M706.3299999999999,18.59c2.5,1.77,6.47,7.3,7.1,10.06" style="fill:none;stroke:#999;stroke-width:3" />
<path d="M733.35,15.01c0.02,0.38,0.04,0.98-0.04,1.52c-0.52,3.21-2.73,8.82-6.93,14.57" style="fill:none;stroke:#999;stroke-width:3" />
<path d="M700.58,35.6c1.09,0.47,3.07,0.52,4.16,0.47c7.91-0.36,29.64-3.55,37.25-3.74c1.81-0.05,2.9,0.22,3.8,0.46" style="fill:none;stroke:black;stroke-width:3" />
<circle cx="700.58" cy="35.6" r="5" stroke-width="0" fill="#FF2A00" opacity="0.7" />
<path d="M773.78,38.22c0.35,0.24,2.39,0.41,3.31,0.31c3.94-0.41,16.12-1.71,22.45-2.91c0.92-0.17,2.15-0.24,2.73,0" style="fill:none;stroke:#999;stroke-width:3" />
<path d="M788.86,15c0.91,0.47,2.54,2.25,2.54,4.42c0,0.95-0.12,70.25-0.3,76.08" style="fill:none;stroke:#999;stroke-width:3" />
<path d="M790.94,39.28C787.0,51 779.75,63.25 773.61,71.84" style="fill:none;stroke:#999;stroke-width:3" />
<path d="M794.72,48.15c2.01,1.31,5.33,5.56,7.03,8.1" style="fill:none;stroke:#999;stroke-width:3" />
<path d="M815.3299999999999,18.59c2.5,1.77,6.47,7.3,7.1,10.06" style="fill:none;stroke:#999;stroke-width:3" />
<path d="M842.35,15.01c0.02,0.38,0.04,0.98-0.04,1.52c-0.52,3.21-2.73,8.82-6.93,14.57" style="fill:none;stroke:#999;stroke-width:3" />
<path d="M809.58,35.6c1.09,0.47,3.07,0.52,4.16,0.47c7.91-0.36,29.64-3.55,37.25-3.74c1.81-0.05,2.9,0.22,3.8,0.46" style="fill:none;stroke:#999;stroke-width:3" />
<path d="M821.91,38.25c0.96,0.5,1.53,2.25,1.72,3.25S823.44,84.25 823.44,91" style="fill:none;stroke:black;stroke-width:3" />
<circle cx="821.91" cy="38.25" r="5" stroke-width="0" fill="#FF2A00" opacity="0.7" />
<path d="M882.78,38.22c0.35,0.24,2.39,0.41,3.31,0.31c3.94-0.41,16.12-1.71,22.45-2.91c0.92-0.17,2.15-0.24,2.73,0" style="fill:none;stroke:#999;stroke-width:3" />
<path d="M897.86,15c0.91,0.47,2.54,2.25,2.54,4.42c0,0.95-0.12,70.25-0.3,76.08" style="fill:none;stroke:#999;stroke-width:3" />
<path d="M899.94,39.28C896.0,51 888.75,63.25 882.61,71.84" style="fill:none;stroke:#999;stroke-width:3" />
<path d="M903.72,48.15c2.01,1.31,5.33,5.56,7.03,8.1" style="fill:none;stroke:#999;stroke-width:3" />
<path d="M924.3299999999999,18.59c2.5,1.77,6.47,7.3,7.1,10.06" style="fill:none;stroke:#999;stroke-width:3" />
<path d="M951.35,15.01c0.02,0.38,0.04,0.98-0.04,1.52c-0.52,3.21-2.73,8.82-6.93,14.57" style="fill:none;stroke:#999;stroke-width:3" />
<path d="M918.58,35.6c1.09,0.47,3.07,0.52,4.16,0.47c7.91-0.36,29.64-3.55,37.25-3.74c1.81-0.05,2.9,0.22,3.8,0.46" style="fill:none;stroke:#999;stroke-width:3" />
<path d="M930.91,38.25c0.96,0.5,1.53,2.25,1.72,3.25S932.44,84.25 932.44,91" style="fill:none;stroke:#999;stroke-width:3" />
<path d="M945.69,36.75c0.96,0.5,1.53,2.25,1.72,3.25c0.19,1-0.19,45-0.19,50.5" style="fill:none;stroke:black;stroke-width:3" />
<circle cx="945.69" cy="36.75" r="5" stroke-width="0" fill="#FF2A00" opacity="0.7" />
<path d="M991.78,38.22c0.35,0.24,2.39,0.41,3.31,0.31c3.94-0.41,16.12-1.71,22.45-2.91c0.92-0.17,2.15-0.24,2.73,0" style="fill:none;stroke:#999;stroke-width:3" />
<path d="M1006.86,15c0.91,0.47,2.54,2.25,2.54,4.42c0,0.95-0.12,70.25-0.3,76.08" style="fill:none;stroke:#999;stroke-width:3" />
<path d="M1008.94,39.28C1005.0,51 997.75,63.25 991.61,71.84" style="fill:none;stroke:#999;stroke-width:3" />
<path d="M1012.72,48.15c2.01,1.31,5.33,5.56,7.03,8.1" style="fill:none;stroke:#999;stroke-width:3" />
<path d="M1033.33,18.59c2.5,1.77,6.47,7.3,7.1,10.06" style="fill:none;stroke:#999;stroke-width:3" />
<path d="M1060.35,15.01c0.02,0.38,0.04,0.98-0.04,1.52c-0.52,3.21-2.73,8.82-6.93,14.57" style="fill:none;stroke:#999;stroke-width:3" />
<path d="M1027.58,35.6c1.09,0.47,3.07,0.52,4.16,0.47c7.91-0.36,29.64-3.55,37.25-3.74c1.81-0.05,2.9,0.22,3.8,0.46" style="fill:none;stroke:#999;stroke-width:3" />
<path d="M1039.9099999999999,38.25c0.96,0.5,1.53,2.25,1.72,3.25S1041.44,84.25 1041.44,91" style="fill:none;stroke:#999;stroke-width:3" />
<path d="M1054.69,36.75c0.96,0.5,1.53,2.25,1.72,3.25c0.19,1-0.19,45-0.19,50.5" style="fill:none;stroke:#999;stroke-width:3" />
<path d="M1027.12,55.34c2.22,2.26,5.73,9.29,6.28,12.8" style="fill:none;stroke:black;stroke-width:3" />
<circle cx="1027.12" cy="55.34" r="5" stroke-width="0" fill="#FF2A00" opacity="0.7" />
<path d="M1100.78,38.22c0.35,0.24,2.39,0.41,3.31,0.31c3.94-0.41,16.12-1.71,22.45-2.91c0.92-0.17,2.15-0.24,2.73,0" style="fill:none;stroke:#999;stroke-width:3" />
<path d="M1115.8600000000001,15c0.91,0.47,2.54,2.25,2.54,4.42c0,0.95-0.12,70.25-0.3,76.08" style="fill:none;stroke:#999;stroke-width:3" />
<path d="M1117.94,39.28C1114.0,51 1106.75,63.25 1100.6100000000001,71.84" style="fill:none;stroke:#999;stroke-width:3" />
<path d="M1121.72,48.15c2.01,1.31,5.33,5.56,7.03,8.1" style="fill:none;stroke:#999;stroke-width:3" />
<path d="M1142.33,18.59c2.5,1.77,6.47,7.3,7.1,10.06" style="fill:none;stroke:#999;stroke-width:3" />
<path d="M1169.35,15.01c0.02,0.38,0.04,0.98-0.04,1.52c-0.52,3.21-2.73,8.82-6.93,14.57" style="fill:none;stroke:#999;stroke-width:3" />
<path d="M1136.58,35.6c1.09,0.47,3.07,0.52,4.16,0.47c7.91-0.36,29.64-3.55,37.25-3.74c1.81-0.05,2.9,0.22,3.8,0.46" style="fill:none;stroke:#999;stroke-width:3" />
<path d="M1148.9099999999999,38.25c0.96,0.5,1.53,2.25,1.72,3.25S1150.44,84.25 1150.44,91" style="fill:none;stroke:#999;stroke-width:3" />
<path d="M1163.69,36.75c0.96,0.5,1.53,2.25,1.72,3.25c0.19,1-0.19,45-0.19,50.5" style="fill:none;stroke:#999;stroke-width:3" />
<path d="M1136.12,55.34c2.22,2.26,5.73,9.29,6.28,12.8" style="fill:none;stroke:#999;stroke-width:3" />
<path d="M1178.43,49.51c0.04,0.46,0.08,1.18-0.07,1.83c-0.89,3.86-4.7,10.6-11.93,17.51" style="fill:none;stroke:black;stroke-width:3" />
<circle cx="1178.43" cy="49.51" r="5" stroke-width="0" fill="#FF2A00" opacity="0.7" />
<path d="M1209.78,38.22c0.35,0.24,2.39,0.41,3.31,0.31c3.94-0.41,16.12-1.71,22.45-2.91c0.92-0.17,2.15-0.24,2.73,0" style="fill:none;stroke:#999;stroke-width:3" />
<path d="M1224.8600000000001,15c0.91,0.47,2.54,2.25,2.54,4.42c0,0.95-0.12,70.25-0.3,76.08" style="fill:none;stroke:#999;stroke-width:3" />
<path d="M1226.94,39.28C1223.0,51 1215.75,63.25 1209.6100000000001,71.84" style="fill:none;stroke:#999;stroke-width:3" />
<path d="M1230.72,48.15c2.01,1.31,5.33,5.56,7.03,8.1" style="fill:none;stroke:#999;stroke-width:3" />
<path d="M1251.33,18.59c2.5,1.77,6.47,7.3,7.1,10.06" style="fill:none;stroke:#999;stroke-width:3" />
<path d="M1278.35,15.01c0.02,0.38,0.04,0.98-0.04,1.52c-0.52,3.21-2.73,8.82-6.93,14.57" style="fill:none;stroke:#999;stroke-width:3" />
<path d="M1245.58,35.6c1.09,0.47,3.07,0.52,4.16,0.47c7.91-0.36,29.64-3.55,37.25-3.74c1.81-0.05,2.9,0.22,3.8,0.46" style="fill:none;stroke:#999;stroke-width:3" />
<path d="M1257.9099999999999,38.25c0.96,0.5,1.53,2.25,1.72,3.25S1259.44,84.25 1259.44,91" style="fill:none;stroke:#999;stroke-width:3" />
<path d="M1272.69,36.75c0.96,0.5,1.53,2.25,1.72,3.25c0.19,1-0.19,45-0.19,50.5" style="fill:none;stroke:#999;stroke-width:3" />
<path d="M1245.12,55.34c2.22,2.26,5.73,9.29,6.28,12.8" style="fill:none;stroke:#999;stroke-width:3" />
<path d="M1287.43,49.51c0.04,0.46,0.08,1.18-0.07,1.83c-0.89,3.86-4.7,10.6-11.93,17.51" style="fill:none;stroke:#999;stroke-width:3" />
<path d="M1238.25,91.7c1.33,0.54,3.77,0.58,5.1,0.54C1252.5,92 1277.27,90 1292.34,89.51c2.22-0.07,3.55,0.26,4.66,0.53" style="fill:none;stroke:black;stroke-width:3" />
<circle cx="1238.25" cy="91.7" r="5" stroke-width="0" fill="#FF2A00" opacity="0.7" />
</svg>