<!-- 0694a -->
<svg width="1417px" height="109px" viewBox="0 0 1417px 109px" xmlns="http://www.w3.org/2000/svg" xmlns:xlink="http://www.w3.org/1999/xlink" xml:space="preserve" version="1.1"  baseProfile="full">
<line x1="1" y1="1" x2="1416" y2="1" style="stroke:#ddd;stroke-width:2" />
<line x1="1" y1="1" x2="1" y2="108" style="stroke:#ddd;stroke-width:2" />
<line x1="1" y1="108" x2="1416" y2="108" style="stroke:#ddd;stroke-width:2" />
<line x1="1416" y1="1" x2="1416" y2="108" style="stroke:#ddd;stroke-width:2" />
<line x1="109" y1="1" x2="109" y2="108" style="stroke:#ddd;stroke-width:2" />
<line x1="218" y1="1" x2="218" y2="108" style="stroke:#ddd;stroke-width:2" />
<line x1="327" y1="1" x2="327" y2="108" style="stroke:#ddd;stroke-width:2" />
<line x1="436" y1="1" x2="436" y2="108" style="stroke:#ddd;stroke-width:2" />
<line x1="545" y1="1" x2="545" y2="108" style="stroke:#ddd;stroke-width:2" />
<line x1="654" y1="1" x2="654" y2="108" style="stroke:#ddd;stroke-width:2" />
<line x1="763" y1="1" x2="763" y2="108" style="stroke:#ddd;stroke-width:2" />
<line x1="872" y1="1" x2="872" y2="108" style="stroke:#ddd;stroke-width:2" />
<line x1="981" y1="1" x2="981" y2="108" style="stroke:#ddd;stroke-width:2" />
<line x1="1090" y1="1" x2="1090" y2="108" style="stroke:#ddd;stroke-width:2" />
<line x1="1199" y1="1" x2="1199" y2="108" style="stroke:#ddd;stroke-width:2" />
<line x1="1308" y1="1" x2="1308" y2="108" style="stroke:#ddd;stroke-width:2" />
<line x1="1" y1="54" x2="1416" y2="54" style="stroke:#ddd;stroke-width:2;stroke-dasharray:3 3" />
<line x1="55" y1="1" x2="55" y2="108" style="stroke:#ddd;stroke-width:2;stroke-dasharray:3 3" />
<line x1="164" y1="1" x2="164" y2="108" style="stroke:#ddd;stroke-width:2;stroke-dasharray:3 3" />
<line x1="273" y1="1" x2="273" y2="108" style="stroke:#ddd;stroke-width:2;stroke-dasharray:3 3" />
<line x1="382" y1="1" x2="382" y2="108" style="stroke:#ddd;stroke-width:2;stroke-dasharray:3 3" />
<line x1="491" y1="1" x2="491" y2="108" style="stroke:#ddd;stroke-width:2;stroke-dasharray:3 3" />
<line x1="600" y1="1" x2="600" y2="108" style="stroke:#ddd;stroke-width:2;stroke-dasharray:3 3" />
<line x1="709" y1="1" x2="709" y2="108" style="stroke:#ddd;stroke-width:2;stroke-dasharray:3 3" />
<line x1="818" y1="1" x2="818" y2="108" style="stroke:#ddd;stroke-width:2;stroke-dasharray:3 3" />
<line x1="927" y1="1" x2="927" y2="108" style="stroke:#ddd;stroke-width:2;stroke-dasharray:3 3" />
<line x1="1036" y1="1" x2="1036" y2="108" style="stroke:#ddd;stroke-width:2;stroke-dasharray:3 3" />
<line x1="1145" y1="1" x2="1145" y2="108" style="stroke:#ddd;stroke-width:2;stroke-dasharray:3 3" />
<line x1="1254" y1="1" x2="1254" y2="108" style="stroke:#ddd;stroke-width:2;stroke-dasharray:3 3" />
<line x1="1363" y1="1" x2="1363" y2="108" style="stroke:#ddd;stroke-width:2;stroke-dasharray:3 3" />
<path d="M12.03,39.22c1.72,0.78,4.3,0.74,5.98,0.58c5.13-0.49,14.88-2.6,20.77-3.78c1.4-0.28,3.47-0.76,4.74-0.4" style="fill:none;stroke:black;stroke-width:3" />
<circle cx="12.03" cy="39.22" r="5" stroke-width="0" fill="#FF2A00" opacity="0.7" />
<path d="M121.03,39.22c1.72,0.78,4.3,0.74,5.98,0.58c5.13-0.49,14.88-2.6,20.77-3.78c1.4-0.28,3.47-0.76,4.74-0.4" style="fill:none;stroke:#999;stroke-width:3" />
<path d="M138.11,15.25c1.19,1.19,1.54,2.88,1.54,4.92c0,0.79-0.02,48.24-0.02,68.33c0,4.1,0,7.06,0,8.25" style="fill:none;stroke:black;stroke-width:3" />
<circle cx="138.11" cy="15.25" r="5" stroke-width="0" fill="#FF2A00" opacity="0.7" />
<path d="M230.03,39.22c1.72,0.78,4.3,0.74,5.98,0.58c5.13-0.49,14.88-2.6,20.77-3.78c1.4-0.28,3.47-0.76,4.74-0.4" style="fill:none;stroke:#999;stroke-width:3" />
<path d="M247.11,15.25c1.19,1.19,1.54,2.88,1.54,4.92c0,0.79-0.02,48.24-0.02,68.33c0,4.1,0,7.06,0,8.25" style="fill:none;stroke:#999;stroke-width:3" />
<path d="M247.44,39.53c0,1.34-0.89,4.35-1.43,5.65c-4.38,10.44-7.63,17.06-16.15,28.91" style="fill:none;stroke:black;stroke-width:3" />
<circle cx="247.44" cy="39.53" r="5" stroke-width="0" fill="#FF2A00" opacity="0.7" />
<path d="M339.03,39.22c1.72,0.78,4.3,0.74,5.98,0.58c5.13-0.49,14.88-2.6,20.77-3.78c1.4-0.28,3.47-0.76,4.74-0.4" style="fill:none;stroke:#999;stroke-width:3" />
<path d="M356.11,15.25c1.19,1.19,1.54,2.88,1.54,4.92c0,0.79-0.02,48.24-0.02,68.33c0,4.1,0,7.06,0,8.25" style="fill:none;stroke:#999;stroke-width:3" />
<path d="M356.44,39.53c0,1.34-0.89,4.35-1.43,5.65c-4.38,10.44-7.63,17.06-16.15,28.91" style="fill:none;stroke:#999;stroke-width:3" />
<path d="M360.25,48.38c2.25,2.25,5.5,6.88,7,10.88" style="fill:none;stroke:black;stroke-width:3" />
<circle cx="360.25" cy="48.38" r="5" stroke-width="0" fill="#FF2A00" opacity="0.7" />
<path d="M448.03,39.22c1.72,0.78,4.3,0.74,5.98,0.58c5.13-0.49,14.88-2.6,20.77-3.78c1.4-0.28,3.47-0.76,4.74-0.4" style="fill:none;stroke:#999;stroke-width:3" />
<path d="M465.11,15.25c1.19,1.19,1.54,2.88,1.54,4.92c0,0.79-0.02,48.24-0.02,68.33c0,4.1,0,7.06,0,8.25" style="fill:none;stroke:#999;stroke-width:3" />
<path d="M465.44,39.53c0,1.34-0.89,4.35-1.43,5.65c-4.38,10.44-7.63,17.06-16.15,28.91" style="fill:none;stroke:#999;stroke-width:3" />
<path d="M469.25,48.38c2.25,2.25,5.5,6.88,7,10.88" style="fill:none;stroke:#999;stroke-width:3" />
<path d="M487.88,14.88c1.06,1.06,1.46,2.39,1.67,3.88c0.62,4.41,1.79,12.88,2.55,18.38c0.39,2.86,0.68,4.92,0.71,5.19" style="fill:none;stroke:black;stroke-width:3" />
<circle cx="487.88" cy="14.88" r="5" stroke-width="0" fill="#FF2A00" opacity="0.7" />
<path d="M557.03,39.22c1.72,0.78,4.3,0.74,5.98,0.58c5.13-0.49,14.88-2.6,20.77-3.78c1.4-0.28,3.47-0.76,4.74-0.4" style="fill:none;stroke:#999;stroke-width:3" />
<path d="M574.11,15.25c1.19,1.19,1.54,2.88,1.54,4.92c0,0.79-0.02,48.24-0.02,68.33c0,4.1,0,7.06,0,8.25" style="fill:none;stroke:#999;stroke-width:3" />
<path d="M574.44,39.53c0,1.34-0.89,4.35-1.43,5.65c-4.38,10.44-7.63,17.06-16.15,28.91" style="fill:none;stroke:#999;stroke-width:3" />
<path d="M578.25,48.38c2.25,2.25,5.5,6.88,7,10.88" style="fill:none;stroke:#999;stroke-width:3" />
<path d="M596.88,14.88c1.06,1.06,1.46,2.39,1.67,3.88c0.62,4.41,1.79,12.88,2.55,18.38c0.39,2.86,0.68,4.92,0.71,5.19" style="fill:none;stroke:#999;stroke-width:3" />
<path d="M599.12,17c6.09-0.87,18.3-2.14,25.9-2.82c2.97-0.27,5.16-0.2,4.87,3.44c-0.45,5.7-1.39,13.46-2.04,18.62c-0.28,2.18-0.51,3.89-0.63,4.8" style="fill:none;stroke:black;stroke-width:3" />
<circle cx="599.12" cy="17.0" r="5" stroke-width="0" fill="#FF2A00" opacity="0.7" />
<path d="M666.03,39.22c1.72,0.78,4.3,0.74,5.98,0.58c5.13-0.49,14.88-2.6,20.77-3.78c1.4-0.28,3.47-0.76,4.74-0.4" style="fill:none;stroke:#999;stroke-width:3" />
<path d="M683.11,15.25c1.19,1.19,1.54,2.88,1.54,4.92c0,0.79-0.02,48.24-0.02,68.33c0,4.1,0,7.06,0,8.25" style="fill:none;stroke:#999;stroke-width:3" />
<path d="M683.44,39.53c0,1.34-0.89,4.35-1.43,5.65c-4.38,10.44-7.63,17.06-16.15,28.91" style="fill:none;stroke:#999;stroke-width:3" />
<path d="M687.25,48.38c2.25,2.25,5.5,6.88,7,10.88" style="fill:none;stroke:#999;stroke-width:3" />
<path d="M705.88,14.88c1.06,1.06,1.46,2.39,1.67,3.88c0.62,4.41,1.79,12.88,2.55,18.38c0.39,2.86,0.68,4.92,0.71,5.19" style="fill:none;stroke:#999;stroke-width:3" />
<path d="M708.12,17c6.09-0.87,18.3-2.14,25.9-2.82c2.97-0.27,5.16-0.2,4.87,3.44c-0.45,5.7-1.39,13.46-2.04,18.62c-0.28,2.18-0.51,3.89-0.63,4.8" style="fill:none;stroke:#999;stroke-width:3" />
<path d="M709.94,28.55c6.68-0.68,21.06-2.18,26.91-2.5" style="fill:none;stroke:black;stroke-width:3" />
<circle cx="709.94" cy="28.55" r="5" stroke-width="0" fill="#FF2A00" opacity="0.7" />
<path d="M775.03,39.22c1.72,0.78,4.3,0.74,5.98,0.58c5.13-0.49,14.88-2.6,20.77-3.78c1.4-0.28,3.47-0.76,4.74-0.4" style="fill:none;stroke:#999;stroke-width:3" />
<path d="M792.11,15.25c1.19,1.19,1.54,2.88,1.54,4.92c0,0.79-0.02,48.24-0.02,68.33c0,4.1,0,7.06,0,8.25" style="fill:none;stroke:#999;stroke-width:3" />
<path d="M792.44,39.53c0,1.34-0.89,4.35-1.43,5.65c-4.38,10.44-7.63,17.06-16.15,28.91" style="fill:none;stroke:#999;stroke-width:3" />
<path d="M796.25,48.38c2.25,2.25,5.5,6.88,7,10.88" style="fill:none;stroke:#999;stroke-width:3" />
<path d="M814.88,14.88c1.06,1.06,1.46,2.39,1.67,3.88c0.62,4.41,1.79,12.88,2.55,18.38c0.39,2.86,0.68,4.92,0.71,5.19" style="fill:none;stroke:#999;stroke-width:3" />
<path d="M817.12,17c6.09-0.87,18.3-2.14,25.9-2.82c2.97-0.27,5.16-0.2,4.87,3.44c-0.45,5.7-1.39,13.46-2.04,18.62c-0.28,2.18-0.51,3.89-0.63,4.8" style="fill:none;stroke:#999;stroke-width:3" />
<path d="M818.94,28.55c6.68-0.68,21.06-2.18,26.91-2.5" style="fill:none;stroke:#999;stroke-width:3" />
<path d="M820.88,40.9c4.33-0.62,17-1.52,23.37-1.96" style="fill:none;stroke:black;stroke-width:3" />
<circle cx="820.88" cy="40.9" r="5" stroke-width="0" fill="#FF2A00" opacity="0.7" />
<path d="M884.03,39.22c1.72,0.78,4.3,0.74,5.98,0.58c5.13-0.49,14.88-2.6,20.77-3.78c1.4-0.28,3.47-0.76,4.74-0.4" style="fill:none;stroke:#999;stroke-width:3" />
<path d="M901.11,15.25c1.19,1.19,1.54,2.88,1.54,4.92c0,0.79-0.02,48.24-0.02,68.33c0,4.1,0,7.06,0,8.25" style="fill:none;stroke:#999;stroke-width:3" />
<path d="M901.44,39.53c0,1.34-0.89,4.35-1.43,5.65c-4.38,10.44-7.63,17.06-16.15,28.91" style="fill:none;stroke:#999;stroke-width:3" />
<path d="M905.25,48.38c2.25,2.25,5.5,6.88,7,10.88" style="fill:none;stroke:#999;stroke-width:3" />
<path d="M923.88,14.88c1.06,1.06,1.46,2.39,1.67,3.88c0.62,4.41,1.79,12.88,2.55,18.38c0.39,2.86,0.68,4.92,0.71,5.19" style="fill:none;stroke:#999;stroke-width:3" />
<path d="M926.12,17c6.09-0.87,18.3-2.14,25.9-2.82c2.97-0.27,5.16-0.2,4.87,3.44c-0.45,5.7-1.39,13.46-2.04,18.62c-0.28,2.18-0.51,3.89-0.63,4.8" style="fill:none;stroke:#999;stroke-width:3" />
<path d="M927.94,28.55c6.68-0.68,21.06-2.18,26.91-2.5" style="fill:none;stroke:#999;stroke-width:3" />
<path d="M929.88,40.9c4.33-0.62,17-1.52,23.37-1.96" style="fill:none;stroke:#999;stroke-width:3" />
<path d="M916.6,51.15c2.5,0.72,5.63,0.41,8.17,0.11c12.99-1.51,23.74-2.89,38.11-3.52c2.65-0.12,5.25-0.12,8,0.54" style="fill:none;stroke:black;stroke-width:3" />
<circle cx="916.6" cy="51.15" r="5" stroke-width="0" fill="#FF2A00" opacity="0.7" />
<path d="M993.03,39.22c1.72,0.78,4.3,0.74,5.98,0.58c5.13-0.49,14.88-2.6,20.77-3.78c1.4-0.28,3.47-0.76,4.74-0.4" style="fill:none;stroke:#999;stroke-width:3" />
<path d="M1010.11,15.25c1.19,1.19,1.54,2.88,1.54,4.92c0,0.79-0.02,48.24-0.02,68.33c0,4.1,0,7.06,0,8.25" style="fill:none;stroke:#999;stroke-width:3" />
<path d="M1010.44,39.53c0,1.34-0.89,4.35-1.43,5.65c-4.38,10.44-7.63,17.06-16.15,28.91" style="fill:none;stroke:#999;stroke-width:3" />
<path d="M1014.25,48.38c2.25,2.25,5.5,6.88,7,10.88" style="fill:none;stroke:#999;stroke-width:3" />
<path d="M1032.88,14.88c1.06,1.06,1.46,2.39,1.67,3.88c0.62,4.41,1.79,12.88,2.55,18.38c0.39,2.86,0.68,4.92,0.71,5.19" style="fill:none;stroke:#999;stroke-width:3" />
<path d="M1035.12,17c6.09-0.87,18.3-2.14,25.9-2.82c2.97-0.27,5.16-0.2,4.87,3.44c-0.45,5.7-1.39,13.46-2.04,18.62c-0.28,2.18-0.51,3.89-0.63,4.8" style="fill:none;stroke:#999;stroke-width:3" />
<path d="M1036.94,28.55c6.68-0.68,21.06-2.18,26.91-2.5" style="fill:none;stroke:#999;stroke-width:3" />
<path d="M1038.88,40.9c4.33-0.62,17-1.52,23.37-1.96" style="fill:none;stroke:#999;stroke-width:3" />
<path d="M1025.6,51.15c2.5,0.72,5.63,0.41,8.17,0.11c12.99-1.51,23.74-2.89,38.11-3.52c2.65-0.12,5.25-0.12,8,0.54" style="fill:none;stroke:#999;stroke-width:3" />
<path d="M1039.19,53.59c0.08,0.9-0.14,2.12-0.63,2.93C1035.62,61.25 1031.0,67.25 1023.5,72.5" style="fill:none;stroke:black;stroke-width:3" />
<circle cx="1039.19" cy="53.59" r="5" stroke-width="0" fill="#FF2A00" opacity="0.7" />
<path d="M1102.03,39.22c1.72,0.78,4.3,0.74,5.98,0.58c5.13-0.49,14.88-2.6,20.77-3.78c1.4-0.28,3.47-0.76,4.74-0.4" style="fill:none;stroke:#999;stroke-width:3" />
<path d="M1119.1100000000001,15.25c1.19,1.19,1.54,2.88,1.54,4.92c0,0.79-0.02,48.24-0.02,68.33c0,4.1,0,7.06,0,8.25" style="fill:none;stroke:#999;stroke-width:3" />
<path d="M1119.44,39.53c0,1.34-0.89,4.35-1.43,5.65c-4.38,10.44-7.63,17.06-16.15,28.91" style="fill:none;stroke:#999;stroke-width:3" />
<path d="M1123.25,48.38c2.25,2.25,5.5,6.88,7,10.88" style="fill:none;stroke:#999;stroke-width:3" />
<path d="M1141.88,14.88c1.06,1.06,1.46,2.39,1.67,3.88c0.62,4.41,1.79,12.88,2.55,18.38c0.39,2.86,0.68,4.92,0.71,5.19" style="fill:none;stroke:#999;stroke-width:3" />
<path d="M1144.12,17c6.09-0.87,18.3-2.14,25.9-2.82c2.97-0.27,5.16-0.2,4.87,3.44c-0.45,5.7-1.39,13.46-2.04,18.62c-0.28,2.18-0.51,3.89-0.63,4.8" style="fill:none;stroke:#999;stroke-width:3" />
<path d="M1145.94,28.55c6.68-0.68,21.06-2.18,26.91-2.5" style="fill:none;stroke:#999;stroke-width:3" />
<path d="M1147.88,40.9c4.33-0.62,17-1.52,23.37-1.96" style="fill:none;stroke:#999;stroke-width:3" />
<path d="M1134.6,51.15c2.5,0.72,5.63,0.41,8.17,0.11c12.99-1.51,23.74-2.89,38.11-3.52c2.65-0.12,5.25-0.12,8,0.54" style="fill:none;stroke:#999;stroke-width:3" />
<path d="M1148.19,53.59c0.08,0.9-0.14,2.12-0.63,2.93C1144.62,61.25 1140.0,67.25 1132.5,72.5" style="fill:none;stroke:#999;stroke-width:3" />
<path d="M1147.87,61.96c2.38,0.54,4.2,0.34,5.9,0.13c6.38-0.8,19.79-2.84,24.73-3.37c3.79-0.41,5.4,0.95,4.83,4.82c-0.43,2.93-2.73,18.82-8.15,28.84c-3.1,5.75-3.96,5.43-7.85,1.43" style="fill:none;stroke:black;stroke-width:3" />
<circle cx="1147.87" cy="61.96" r="5" stroke-width="0" fill="#FF2A00" opacity="0.7" />
<path d="M1211.03,39.22c1.72,0.78,4.3,0.74,5.98,0.58c5.13-0.49,14.88-2.6,20.77-3.78c1.4-0.28,3.47-0.76,4.74-0.4" style="fill:none;stroke:#999;stroke-width:3" />
<path d="M1228.1100000000001,15.25c1.19,1.19,1.54,2.88,1.54,4.92c0,0.79-0.02,48.24-0.02,68.33c0,4.1,0,7.06,0,8.25" style="fill:none;stroke:#999;stroke-width:3" />
<path d="M1228.44,39.53c0,1.34-0.89,4.35-1.43,5.65c-4.38,10.44-7.63,17.06-16.15,28.91" style="fill:none;stroke:#999;stroke-width:3" />
<path d="M1232.25,48.38c2.25,2.25,5.5,6.88,7,10.88" style="fill:none;stroke:#999;stroke-width:3" />
<path d="M1250.88,14.88c1.06,1.06,1.46,2.39,1.67,3.88c0.62,4.41,1.79,12.88,2.55,18.38c0.39,2.86,0.68,4.92,0.71,5.19" style="fill:none;stroke:#999;stroke-width:3" />
<path d="M1253.12,17c6.09-0.87,18.3-2.14,25.9-2.82c2.97-0.27,5.16-0.2,4.87,3.44c-0.45,5.7-1.39,13.46-2.04,18.62c-0.28,2.18-0.51,3.89-0.63,4.8" style="fill:none;stroke:#999;stroke-width:3" />
<path d="M1254.94,28.55c6.68-0.68,21.06-2.18,26.91-2.5" style="fill:none;stroke:#999;stroke-width:3" />
<path d="M1256.88,40.9c4.33-0.62,17-1.52,23.37-1.96" style="fill:none;stroke:#999;stroke-width:3" />
<path d="M1243.6,51.15c2.5,0.72,5.63,0.41,8.17,0.11c12.99-1.51,23.74-2.89,38.11-3.52c2.65-0.12,5.25-0.12,8,0.54" style="fill:none;stroke:#999;stroke-width:3" />
<path d="M1257.19,53.59c0.08,0.9-0.14,2.12-0.63,2.93C1253.62,61.25 1249.0,67.25 1241.5,72.5" style="fill:none;stroke:#999;stroke-width:3" />
<path d="M1256.87,61.96c2.38,0.54,4.2,0.34,5.9,0.13c6.38-0.8,19.79-2.84,24.73-3.37c3.79-0.41,5.4,0.95,4.83,4.82c-0.43,2.93-2.73,18.82-8.15,28.84c-3.1,5.75-3.96,5.43-7.85,1.43" style="fill:none;stroke:#999;stroke-width:3" />
<path d="M1263.12,65.56c0.14,1.19-0.29,2.19-0.8,3.23C1259.59,74.3 1254.0,80.65 1244.75,86.25" style="fill:none;stroke:black;stroke-width:3" />
<circle cx="1263.12" cy="65.56" r="5" stroke-width="0" fill="#FF2A00" opacity="0.7" />
<path d="M1320.03,39.22c1.72,0.78,4.3,0.74,5.98,0.58c5.13-0.49,14.88-2.6,20.77-3.78c1.4-0.28,3.47-0.76,4.74-0.4" style="fill:none;stroke:#999;stroke-width:3" />
<path d="M1337.1100000000001,15.25c1.19,1.19,1.54,2.88,1.54,4.92c0,0.79-0.02,48.24-0.02,68.33c0,4.1,0,7.06,0,8.25" style="fill:none;stroke:#999;stroke-width:3" />
<path d="M1337.44,39.53c0,1.34-0.89,4.35-1.43,5.65c-4.38,10.44-7.63,17.06-16.15,28.91" style="fill:none;stroke:#999;stroke-width:3" />
<path d="M1341.25,48.38c2.25,2.25,5.5,6.88,7,10.88" style="fill:none;stroke:#999;stroke-width:3" />
<path d="M1359.88,14.88c1.06,1.06,1.46,2.39,1.67,3.88c0.62,4.41,1.79,12.88,2.55,18.38c0.39,2.86,0.68,4.92,0.71,5.19" style="fill:none;stroke:#999;stroke-width:3" />
<path d="M1362.12,17c6.09-0.87,18.3-2.14,25.9-2.82c2.97-0.27,5.16-0.2,4.87,3.44c-0.45,5.7-1.39,13.46-2.04,18.62c-0.28,2.18-0.51,3.89-0.63,4.8" style="fill:none;stroke:#999;stroke-width:3" />
<path d="M1363.94,28.55c6.68-0.68,21.06-2.18,26.91-2.5" style="fill:none;stroke:#999;stroke-width:3" />
<path d="M1365.88,40.9c4.33-0.62,17-1.52,23.37-1.96" style="fill:none;stroke:#999;stroke-width:3" />
<path d="M1352.6,51.15c2.5,0.72,5.63,0.41,8.17,0.11c12.99-1.51,23.74-2.89,38.11-3.52c2.65-0.12,5.25-0.12,8,0.54" style="fill:none;stroke:#999;stroke-width:3" />
<path d="M1366.19,53.59c0.08,0.9-0.14,2.12-0.63,2.93C1362.62,61.25 1358.0,67.25 1350.5,72.5" style="fill:none;stroke:#999;stroke-width:3" />
<path d="M1365.87,61.96c2.38,0.54,4.2,0.34,5.9,0.13c6.38-0.8,19.79-2.84,24.73-3.37c3.79-0.41,5.4,0.95,4.83,4.82c-0.43,2.93-2.73,18.82-8.15,28.84c-3.1,5.75-3.96,5.43-7.85,1.43" style="fill:none;stroke:#999;stroke-width:3" />
<path d="M1372.12,65.56c0.14,1.19-0.29,2.19-0.8,3.23C1368.59,74.3 1363.0,80.65 1353.75,86.25" style="fill:none;stroke:#999;stroke-width:3" />
<path d="M1386.63,63.44c0.09,0.85,0.04,2.22-0.44,3.41c-3.19,7.9-11.19,19.4-23.99,28" style="fill:none;stroke:black;stroke-width:3" />
<circle cx="1386.63" cy="63.44" r="5" stroke-width="0" fill="#FF2A00" opacity="0.7" />
</svg>