<!-- 0696a -->
<svg width="1417px" height="109px" viewBox="0 0 1417px 109px" xmlns="http://www.w3.org/2000/svg" xmlns:xlink="http://www.w3.org/1999/xlink" xml:space="preserve" version="1.1"  baseProfile="full">
<line x1="1" y1="1" x2="1416" y2="1" style="stroke:#ddd;stroke-width:2" />
<line x1="1" y1="1" x2="1" y2="108" style="stroke:#ddd;stroke-width:2" />
<line x1="1" y1="108" x2="1416" y2="108" style="stroke:#ddd;stroke-width:2" />
<line x1="1416" y1="1" x2="1416" y2="108" style="stroke:#ddd;stroke-width:2" />
<line x1="109" y1="1" x2="109" y2="108" style="stroke:#ddd;stroke-width:2" />
<line x1="218" y1="1" x2="218" y2="108" style="stroke:#ddd;stroke-width:2" />
<line x1="327" y1="1" x2="327" y2="108" style="stroke:#ddd;stroke-width:2" />
<line x1="436" y1="1" x2="436" y2="108" style="stroke:#ddd;stroke-width:2" />
<line x1="545" y1="1" x2="545" y2="108" style="stroke:#ddd;stroke-width:2" />
<line x1="654" y1="1" x2="654" y2="108" style="stroke:#ddd;stroke-width:2" />
<line x1="763" y1="1" x2="763" y2="108" style="stroke:#ddd;stroke-width:2" />
<line x1="872" y1="1" x2="872" y2="108" style="stroke:#ddd;stroke-width:2" />
<line x1="981" y1="1" x2="981" y2="108" style="stroke:#ddd;stroke-width:2" />
<line x1="1090" y1="1" x2="1090" y2="108" style="stroke:#ddd;stroke-width:2" />
<line x1="1199" y1="1" x2="1199" y2="108" style="stroke:#ddd;stroke-width:2" />
<line x1="1308" y1="1" x2="1308" y2="108" style="stroke:#ddd;stroke-width:2" />
<line x1="1" y1="54" x2="1416" y2="54" style="stroke:#ddd;stroke-width:2;stroke-dasharray:3 3" />
<line x1="55" y1="1" x2="55" y2="108" style="stroke:#ddd;stroke-width:2;stroke-dasharray:3 3" />
<line x1="164" y1="1" x2="164" y2="108" style="stroke:#ddd;stroke-width:2;stroke-dasharray:3 3" />
<line x1="273" y1="1" x2="273" y2="108" style="stroke:#ddd;stroke-width:2;stroke-dasharray:3 3" />
<line x1="382" y1="1" x2="382" y2="108" style="stroke:#ddd;stroke-width:2;stroke-dasharray:3 3" />
<line x1="491" y1="1" x2="491" y2="108" style="stroke:#ddd;stroke-width:2;stroke-dasharray:3 3" />
<line x1="600" y1="1" x2="600" y2="108" style="stroke:#ddd;stroke-width:2;stroke-dasharray:3 3" />
<line x1="709" y1="1" x2="709" y2="108" style="stroke:#ddd;stroke-width:2;stroke-dasharray:3 3" />
<line x1="818" y1="1" x2="818" y2="108" style="stroke:#ddd;stroke-width:2;stroke-dasharray:3 3" />
<line x1="927" y1="1" x2="927" y2="108" style="stroke:#ddd;stroke-width:2;stroke-dasharray:3 3" />
<line x1="1036" y1="1" x2="1036" y2="108" style="stroke:#ddd;stroke-width:2;stroke-dasharray:3 3" />
<line x1="1145" y1="1" x2="1145" y2="108" style="stroke:#ddd;stroke-width:2;stroke-dasharray:3 3" />
<line x1="1254" y1="1" x2="1254" y2="108" style="stroke:#ddd;stroke-width:2;stroke-dasharray:3 3" />
<line x1="1363" y1="1" x2="1363" y2="108" style="stroke:#ddd;stroke-width:2;stroke-dasharray:3 3" />
<path d="M10.78,37.72c0.35,0.24,2.39,0.41,3.31,0.31c3.94-0.41,15.62-1.71,21.95-2.91c0.92-0.17,2.15-0.24,2.73,0" style="fill:none;stroke:black;stroke-width:3" />
<circle cx="10.78" cy="37.72" r="5" stroke-width="0" fill="#FF2A00" opacity="0.7" />
<path d="M119.78,37.72c0.35,0.24,2.39,0.41,3.31,0.31c3.94-0.41,15.62-1.71,21.95-2.91c0.92-0.17,2.15-0.24,2.73,0" style="fill:none;stroke:#999;stroke-width:3" />
<path d="M134.36,15c0.91,0.47,2.04,2.25,2.04,4.92c0,0.95-0.12,67.75-0.3,73.58" style="fill:none;stroke:black;stroke-width:3" />
<circle cx="134.36" cy="15.0" r="5" stroke-width="0" fill="#FF2A00" opacity="0.7" />
<path d="M228.78,37.72c0.35,0.24,2.39,0.41,3.31,0.31c3.94-0.41,15.62-1.71,21.95-2.91c0.92-0.17,2.15-0.24,2.73,0" style="fill:none;stroke:#999;stroke-width:3" />
<path d="M243.36,15c0.91,0.47,2.04,2.25,2.04,4.92c0,0.95-0.12,67.75-0.3,73.58" style="fill:none;stroke:#999;stroke-width:3" />
<path d="M244.94,39.28c-5.1,15.04-7.94,21.4-15.83,34.56" style="fill:none;stroke:black;stroke-width:3" />
<circle cx="244.94" cy="39.28" r="5" stroke-width="0" fill="#FF2A00" opacity="0.7" />
<path d="M337.78,37.72c0.35,0.24,2.39,0.41,3.31,0.31c3.94-0.41,15.62-1.71,21.95-2.91c0.92-0.17,2.15-0.24,2.73,0" style="fill:none;stroke:#999;stroke-width:3" />
<path d="M352.36,15c0.91,0.47,2.04,2.25,2.04,4.92c0,0.95-0.12,67.75-0.3,73.58" style="fill:none;stroke:#999;stroke-width:3" />
<path d="M353.94,39.28c-5.1,15.04-7.94,21.4-15.83,34.56" style="fill:none;stroke:#999;stroke-width:3" />
<path d="M356.97,46.4c2.52,1.76,6.66,7.45,8.78,10.85" style="fill:none;stroke:black;stroke-width:3" />
<circle cx="356.97" cy="46.4" r="5" stroke-width="0" fill="#FF2A00" opacity="0.7" />
<path d="M446.78,37.72c0.35,0.24,2.39,0.41,3.31,0.31c3.94-0.41,15.62-1.71,21.95-2.91c0.92-0.17,2.15-0.24,2.73,0" style="fill:none;stroke:#999;stroke-width:3" />
<path d="M461.36,15c0.91,0.47,2.04,2.25,2.04,4.92c0,0.95-0.12,67.75-0.3,73.58" style="fill:none;stroke:#999;stroke-width:3" />
<path d="M462.94,39.28c-5.1,15.04-7.94,21.4-15.83,34.56" style="fill:none;stroke:#999;stroke-width:3" />
<path d="M465.97,46.4c2.52,1.76,6.66,7.45,8.78,10.85" style="fill:none;stroke:#999;stroke-width:3" />
<path d="M478.75,32.36c0.94,0.33,2.66,0.37,3.6,0.33c7.23-0.3,33.9-2.85,45.11-3.46c1.56-0.08,2.5,0.16,3.29,0.32" style="fill:none;stroke:black;stroke-width:3" />
<circle cx="478.75" cy="32.36" r="5" stroke-width="0" fill="#FF2A00" opacity="0.7" />
<path d="M555.78,37.72c0.35,0.24,2.39,0.41,3.31,0.31c3.94-0.41,15.62-1.71,21.95-2.91c0.92-0.17,2.15-0.24,2.73,0" style="fill:none;stroke:#999;stroke-width:3" />
<path d="M570.36,15c0.91,0.47,2.04,2.25,2.04,4.92c0,0.95-0.12,67.75-0.3,73.58" style="fill:none;stroke:#999;stroke-width:3" />
<path d="M571.94,39.28c-5.1,15.04-7.94,21.4-15.83,34.56" style="fill:none;stroke:#999;stroke-width:3" />
<path d="M574.97,46.4c2.52,1.76,6.66,7.45,8.78,10.85" style="fill:none;stroke:#999;stroke-width:3" />
<path d="M587.75,32.36c0.94,0.33,2.66,0.37,3.6,0.33c7.23-0.3,33.9-2.85,45.11-3.46c1.56-0.08,2.5,0.16,3.29,0.32" style="fill:none;stroke:#999;stroke-width:3" />
<path d="M610.39,15.45c0.86,0.8,1.21,2.05,1.21,3.48c0,0.62-0.57,20.52-0.71,24.32" style="fill:none;stroke:black;stroke-width:3" />
<circle cx="610.39" cy="15.45" r="5" stroke-width="0" fill="#FF2A00" opacity="0.7" />
<path d="M664.78,37.72c0.35,0.24,2.39,0.41,3.31,0.31c3.94-0.41,15.62-1.71,21.95-2.91c0.92-0.17,2.15-0.24,2.73,0" style="fill:none;stroke:#999;stroke-width:3" />
<path d="M679.36,15c0.91,0.47,2.04,2.25,2.04,4.92c0,0.95-0.12,67.75-0.3,73.58" style="fill:none;stroke:#999;stroke-width:3" />
<path d="M680.94,39.28c-5.1,15.04-7.94,21.4-15.83,34.56" style="fill:none;stroke:#999;stroke-width:3" />
<path d="M683.97,46.4c2.52,1.76,6.66,7.45,8.78,10.85" style="fill:none;stroke:#999;stroke-width:3" />
<path d="M696.75,32.36c0.94,0.33,2.66,0.37,3.6,0.33c7.23-0.3,33.9-2.85,45.11-3.46c1.56-0.08,2.5,0.16,3.29,0.32" style="fill:none;stroke:#999;stroke-width:3" />
<path d="M719.39,15.45c0.86,0.8,1.21,2.05,1.21,3.48c0,0.62-0.57,20.52-0.71,24.32" style="fill:none;stroke:#999;stroke-width:3" />
<path d="M734.05,13.75c0.7,1,1.22,2.35,1.21,2.98C735.25,20 733.98,33.52 733.58,39.9" style="fill:none;stroke:black;stroke-width:3" />
<circle cx="734.05" cy="13.75" r="5" stroke-width="0" fill="#FF2A00" opacity="0.7" />
<path d="M773.78,37.72c0.35,0.24,2.39,0.41,3.31,0.31c3.94-0.41,15.62-1.71,21.95-2.91c0.92-0.17,2.15-0.24,2.73,0" style="fill:none;stroke:#999;stroke-width:3" />
<path d="M788.36,15c0.91,0.47,2.04,2.25,2.04,4.92c0,0.95-0.12,67.75-0.3,73.58" style="fill:none;stroke:#999;stroke-width:3" />
<path d="M789.94,39.28c-5.1,15.04-7.94,21.4-15.83,34.56" style="fill:none;stroke:#999;stroke-width:3" />
<path d="M792.97,46.4c2.52,1.76,6.66,7.45,8.78,10.85" style="fill:none;stroke:#999;stroke-width:3" />
<path d="M805.75,32.36c0.94,0.33,2.66,0.37,3.6,0.33c7.23-0.3,33.9-2.85,45.11-3.46c1.56-0.08,2.5,0.16,3.29,0.32" style="fill:none;stroke:#999;stroke-width:3" />
<path d="M828.39,15.45c0.86,0.8,1.21,2.05,1.21,3.48c0,0.62-0.57,20.52-0.71,24.32" style="fill:none;stroke:#999;stroke-width:3" />
<path d="M843.05,13.75c0.7,1,1.22,2.35,1.21,2.98C844.25,20 842.98,33.52 842.58,39.9" style="fill:none;stroke:#999;stroke-width:3" />
<path d="M829.29,41.3c2.48,0,12.84-1.22,14.24-1.22" style="fill:none;stroke:black;stroke-width:3" />
<circle cx="829.29" cy="41.3" r="5" stroke-width="0" fill="#FF2A00" opacity="0.7" />
<path d="M882.78,37.72c0.35,0.24,2.39,0.41,3.31,0.31c3.94-0.41,15.62-1.71,21.95-2.91c0.92-0.17,2.15-0.24,2.73,0" style="fill:none;stroke:#999;stroke-width:3" />
<path d="M897.36,15c0.91,0.47,2.04,2.25,2.04,4.92c0,0.95-0.12,67.75-0.3,73.58" style="fill:none;stroke:#999;stroke-width:3" />
<path d="M898.94,39.28c-5.1,15.04-7.94,21.4-15.83,34.56" style="fill:none;stroke:#999;stroke-width:3" />
<path d="M901.97,46.4c2.52,1.76,6.66,7.45,8.78,10.85" style="fill:none;stroke:#999;stroke-width:3" />
<path d="M914.75,32.36c0.94,0.33,2.66,0.37,3.6,0.33c7.23-0.3,33.9-2.85,45.11-3.46c1.56-0.08,2.5,0.16,3.29,0.32" style="fill:none;stroke:#999;stroke-width:3" />
<path d="M937.39,15.45c0.86,0.8,1.21,2.05,1.21,3.48c0,0.62-0.57,20.52-0.71,24.32" style="fill:none;stroke:#999;stroke-width:3" />
<path d="M952.05,13.75c0.7,1,1.22,2.35,1.21,2.98C953.25,20 951.98,33.52 951.58,39.9" style="fill:none;stroke:#999;stroke-width:3" />
<path d="M938.29,41.3c2.48,0,12.84-1.22,14.24-1.22" style="fill:none;stroke:#999;stroke-width:3" />
<path d="M923.5,20.39c0.67,0.3,1.71,1.61,1.71,3.48c0,0.62,0,17.75-0.48,24.74c-0.15,2.28-0.24,4,2.32,3.8c10.87-0.86,17.69-2.47,28.41-2.77c2.02-0.06,3.71,0.12,4.49,0.27" style="fill:none;stroke:black;stroke-width:3" />
<circle cx="923.5" cy="20.39" r="5" stroke-width="0" fill="#FF2A00" opacity="0.7" />
<path d="M991.78,37.72c0.35,0.24,2.39,0.41,3.31,0.31c3.94-0.41,15.62-1.71,21.95-2.91c0.92-0.17,2.15-0.24,2.73,0" style="fill:none;stroke:#999;stroke-width:3" />
<path d="M1006.36,15c0.91,0.47,2.04,2.25,2.04,4.92c0,0.95-0.12,67.75-0.3,73.58" style="fill:none;stroke:#999;stroke-width:3" />
<path d="M1007.94,39.28c-5.1,15.04-7.94,21.4-15.83,34.56" style="fill:none;stroke:#999;stroke-width:3" />
<path d="M1010.97,46.4c2.52,1.76,6.66,7.45,8.78,10.85" style="fill:none;stroke:#999;stroke-width:3" />
<path d="M1023.75,32.36c0.94,0.33,2.66,0.37,3.6,0.33c7.23-0.3,33.9-2.85,45.11-3.46c1.56-0.08,2.5,0.16,3.29,0.32" style="fill:none;stroke:#999;stroke-width:3" />
<path d="M1046.3899999999999,15.45c0.86,0.8,1.21,2.05,1.21,3.48c0,0.62-0.57,20.52-0.71,24.32" style="fill:none;stroke:#999;stroke-width:3" />
<path d="M1061.05,13.75c0.7,1,1.22,2.35,1.21,2.98C1062.25,20 1060.98,33.52 1060.58,39.9" style="fill:none;stroke:#999;stroke-width:3" />
<path d="M1047.29,41.3c2.48,0,12.84-1.22,14.24-1.22" style="fill:none;stroke:#999;stroke-width:3" />
<path d="M1032.5,20.39c0.67,0.3,1.71,1.61,1.71,3.48c0,0.62,0,17.75-0.48,24.74c-0.15,2.28-0.24,4,2.32,3.8c10.87-0.86,17.69-2.47,28.41-2.77c2.02-0.06,3.71,0.12,4.49,0.27" style="fill:none;stroke:#999;stroke-width:3" />
<path d="M1025.99,68.11c1.36,0.44,2.91,0.58,4.47,0.44c7.96-0.71,26.08-2.72,38.12-3.55c1.55-0.11,2.53,0.07,4.08,0.38" style="fill:none;stroke:black;stroke-width:3" />
<circle cx="1025.99" cy="68.11" r="5" stroke-width="0" fill="#FF2A00" opacity="0.7" />
<path d="M1100.78,37.72c0.35,0.24,2.39,0.41,3.31,0.31c3.94-0.41,15.62-1.71,21.95-2.91c0.92-0.17,2.15-0.24,2.73,0" style="fill:none;stroke:#999;stroke-width:3" />
<path d="M1115.3600000000001,15c0.91,0.47,2.04,2.25,2.04,4.92c0,0.95-0.12,67.75-0.3,73.58" style="fill:none;stroke:#999;stroke-width:3" />
<path d="M1116.94,39.28c-5.1,15.04-7.94,21.4-15.83,34.56" style="fill:none;stroke:#999;stroke-width:3" />
<path d="M1119.97,46.4c2.52,1.76,6.66,7.45,8.78,10.85" style="fill:none;stroke:#999;stroke-width:3" />
<path d="M1132.75,32.36c0.94,0.33,2.66,0.37,3.6,0.33c7.23-0.3,33.9-2.85,45.11-3.46c1.56-0.08,2.5,0.16,3.29,0.32" style="fill:none;stroke:#999;stroke-width:3" />
<path d="M1155.3899999999999,15.45c0.86,0.8,1.21,2.05,1.21,3.48c0,0.62-0.57,20.52-0.71,24.32" style="fill:none;stroke:#999;stroke-width:3" />
<path d="M1170.05,13.75c0.7,1,1.22,2.35,1.21,2.98C1171.25,20 1169.98,33.52 1169.58,39.9" style="fill:none;stroke:#999;stroke-width:3" />
<path d="M1156.29,41.3c2.48,0,12.84-1.22,14.24-1.22" style="fill:none;stroke:#999;stroke-width:3" />
<path d="M1141.5,20.39c0.67,0.3,1.71,1.61,1.71,3.48c0,0.62,0,17.75-0.48,24.74c-0.15,2.28-0.24,4,2.32,3.8c10.87-0.86,17.69-2.47,28.41-2.77c2.02-0.06,3.71,0.12,4.49,0.27" style="fill:none;stroke:#999;stroke-width:3" />
<path d="M1134.99,68.11c1.36,0.44,2.91,0.58,4.47,0.44c7.96-0.71,26.08-2.72,38.12-3.55c1.55-0.11,2.53,0.07,4.08,0.38" style="fill:none;stroke:#999;stroke-width:3" />
<path d="M1156.52,55.76c1.05,0.41,1.89,2.33,1.89,3.18c0,8.65-0.21,26.56-0.21,36.31" style="fill:none;stroke:black;stroke-width:3" />
<circle cx="1156.52" cy="55.76" r="5" stroke-width="0" fill="#FF2A00" opacity="0.7" />
<path d="M1209.78,37.72c0.35,0.24,2.39,0.41,3.31,0.31c3.94-0.41,15.62-1.71,21.95-2.91c0.92-0.17,2.15-0.24,2.73,0" style="fill:none;stroke:#999;stroke-width:3" />
<path d="M1224.3600000000001,15c0.91,0.47,2.04,2.25,2.04,4.92c0,0.95-0.12,67.75-0.3,73.58" style="fill:none;stroke:#999;stroke-width:3" />
<path d="M1225.94,39.28c-5.1,15.04-7.94,21.4-15.83,34.56" style="fill:none;stroke:#999;stroke-width:3" />
<path d="M1228.97,46.4c2.52,1.76,6.66,7.45,8.78,10.85" style="fill:none;stroke:#999;stroke-width:3" />
<path d="M1241.75,32.36c0.94,0.33,2.66,0.37,3.6,0.33c7.23-0.3,33.9-2.85,45.11-3.46c1.56-0.08,2.5,0.16,3.29,0.32" style="fill:none;stroke:#999;stroke-width:3" />
<path d="M1264.3899999999999,15.45c0.86,0.8,1.21,2.05,1.21,3.48c0,0.62-0.57,20.52-0.71,24.32" style="fill:none;stroke:#999;stroke-width:3" />
<path d="M1279.05,13.75c0.7,1,1.22,2.35,1.21,2.98C1280.25,20 1278.98,33.52 1278.58,39.9" style="fill:none;stroke:#999;stroke-width:3" />
<path d="M1265.29,41.3c2.48,0,12.84-1.22,14.24-1.22" style="fill:none;stroke:#999;stroke-width:3" />
<path d="M1250.5,20.39c0.67,0.3,1.71,1.61,1.71,3.48c0,0.62,0,17.75-0.48,24.74c-0.15,2.28-0.24,4,2.32,3.8c10.87-0.86,17.69-2.47,28.41-2.77c2.02-0.06,3.71,0.12,4.49,0.27" style="fill:none;stroke:#999;stroke-width:3" />
<path d="M1243.99,68.11c1.36,0.44,2.91,0.58,4.47,0.44c7.96-0.71,26.08-2.72,38.12-3.55c1.55-0.11,2.53,0.07,4.08,0.38" style="fill:none;stroke:#999;stroke-width:3" />
<path d="M1265.52,55.76c1.05,0.41,1.89,2.33,1.89,3.18c0,8.65-0.21,26.56-0.21,36.31" style="fill:none;stroke:#999;stroke-width:3" />
<path d="M1265.1,67.2c-4.24,7.62-15.6,19.27-24.41,23.59" style="fill:none;stroke:black;stroke-width:3" />
<circle cx="1265.1" cy="67.2" r="5" stroke-width="0" fill="#FF2A00" opacity="0.7" />
<path d="M1318.78,37.72c0.35,0.24,2.39,0.41,3.31,0.31c3.94-0.41,15.62-1.71,21.95-2.91c0.92-0.17,2.15-0.24,2.73,0" style="fill:none;stroke:#999;stroke-width:3" />
<path d="M1333.3600000000001,15c0.91,0.47,2.04,2.25,2.04,4.92c0,0.95-0.12,67.75-0.3,73.58" style="fill:none;stroke:#999;stroke-width:3" />
<path d="M1334.94,39.28c-5.1,15.04-7.94,21.4-15.83,34.56" style="fill:none;stroke:#999;stroke-width:3" />
<path d="M1337.97,46.4c2.52,1.76,6.66,7.45,8.78,10.85" style="fill:none;stroke:#999;stroke-width:3" />
<path d="M1350.75,32.36c0.94,0.33,2.66,0.37,3.6,0.33c7.23-0.3,33.9-2.85,45.11-3.46c1.56-0.08,2.5,0.16,3.29,0.32" style="fill:none;stroke:#999;stroke-width:3" />
<path d="M1373.3899999999999,15.45c0.86,0.8,1.21,2.05,1.21,3.48c0,0.62-0.57,20.52-0.71,24.32" style="fill:none;stroke:#999;stroke-width:3" />
<path d="M1388.05,13.75c0.7,1,1.22,2.35,1.21,2.98C1389.25,20 1387.98,33.52 1387.58,39.9" style="fill:none;stroke:#999;stroke-width:3" />
<path d="M1374.29,41.3c2.48,0,12.84-1.22,14.24-1.22" style="fill:none;stroke:#999;stroke-width:3" />
<path d="M1359.5,20.39c0.67,0.3,1.71,1.61,1.71,3.48c0,0.62,0,17.75-0.48,24.74c-0.15,2.28-0.24,4,2.32,3.8c10.87-0.86,17.69-2.47,28.41-2.77c2.02-0.06,3.71,0.12,4.49,0.27" style="fill:none;stroke:#999;stroke-width:3" />
<path d="M1352.99,68.11c1.36,0.44,2.91,0.58,4.47,0.44c7.96-0.71,26.08-2.72,38.12-3.55c1.55-0.11,2.53,0.07,4.08,0.38" style="fill:none;stroke:#999;stroke-width:3" />
<path d="M1374.52,55.76c1.05,0.41,1.89,2.33,1.89,3.18c0,8.65-0.21,26.56-0.21,36.31" style="fill:none;stroke:#999;stroke-width:3" />
<path d="M1374.1,67.2c-4.24,7.62-15.6,19.27-24.41,23.59" style="fill:none;stroke:#999;stroke-width:3" />
<path d="M1376.68,67.04c3.3,3.08,18.82,18.56,22.4,21.6c1.22,1.03,2.26,1.47,3.47,1.76" style="fill:none;stroke:black;stroke-width:3" />
<circle cx="1376.68" cy="67.04" r="5" stroke-width="0" fill="#FF2A00" opacity="0.7" />
</svg>