<!-- 06994 -->
<svg width="1526px" height="109px" viewBox="0 0 1526px 109px" xmlns="http://www.w3.org/2000/svg" xmlns:xlink="http://www.w3.org/1999/xlink" xml:space="preserve" version="1.1"  baseProfile="full">
<line x1="1" y1="1" x2="1525" y2="1" style="stroke:#ddd;stroke-width:2" />
<line x1="1" y1="1" x2="1" y2="108" style="stroke:#ddd;stroke-width:2" />
<line x1="1" y1="108" x2="1525" y2="108" style="stroke:#ddd;stroke-width:2" />
<line x1="1525" y1="1" x2="1525" y2="108" style="stroke:#ddd;stroke-width:2" />
<line x1="109" y1="1" x2="109" y2="108" style="stroke:#ddd;stroke-width:2" />
<line x1="218" y1="1" x2="218" y2="108" style="stroke:#ddd;stroke-width:2" />
<line x1="327" y1="1" x2="327" y2="108" style="stroke:#ddd;stroke-width:2" />
<line x1="436" y1="1" x2="436" y2="108" style="stroke:#ddd;stroke-width:2" />
<line x1="545" y1="1" x2="545" y2="108" style="stroke:#ddd;stroke-width:2" />
<line x1="654" y1="1" x2="654" y2="108" style="stroke:#ddd;stroke-width:2" />
<line x1="763" y1="1" x2="763" y2="108" style="stroke:#ddd;stroke-width:2" />
<line x1="872" y1="1" x2="872" y2="108" style="stroke:#ddd;stroke-width:2" />
<line x1="981" y1="1" x2="981" y2="108" style="stroke:#ddd;stroke-width:2" />
<line x1="1090" y1="1" x2="1090" y2="108" style="stroke:#ddd;stroke-width:2" />
<line x1="1199" y1="1" x2="1199" y2="108" style="stroke:#ddd;stroke-width:2" />
<line x1="1308" y1="1" x2="1308" y2="108" style="stroke:#ddd;stroke-width:2" />
<line x1="1417" y1="1" x2="1417" y2="108" style="stroke:#ddd;stroke-width:2" />
<line x1="1" y1="54" x2="1525" y2="54" style="stroke:#ddd;stroke-width:2;stroke-dasharray:3 3" />
<line x1="55" y1="1" x2="55" y2="108" style="stroke:#ddd;stroke-width:2;stroke-dasharray:3 3" />
<line x1="164" y1="1" x2="164" y2="108" style="stroke:#ddd;stroke-width:2;stroke-dasharray:3 3" />
<line x1="273" y1="1" x2="273" y2="108" style="stroke:#ddd;stroke-width:2;stroke-dasharray:3 3" />
<line x1="382" y1="1" x2="382" y2="108" style="stroke:#ddd;stroke-width:2;stroke-dasharray:3 3" />
<line x1="491" y1="1" x2="491" y2="108" style="stroke:#ddd;stroke-width:2;stroke-dasharray:3 3" />
<line x1="600" y1="1" x2="600" y2="108" style="stroke:#ddd;stroke-width:2;stroke-dasharray:3 3" />
<line x1="709" y1="1" x2="709" y2="108" style="stroke:#ddd;stroke-width:2;stroke-dasharray:3 3" />
<line x1="818" y1="1" x2="818" y2="108" style="stroke:#ddd;stroke-width:2;stroke-dasharray:3 3" />
<line x1="927" y1="1" x2="927" y2="108" style="stroke:#ddd;stroke-width:2;stroke-dasharray:3 3" />
<line x1="1036" y1="1" x2="1036" y2="108" style="stroke:#ddd;stroke-width:2;stroke-dasharray:3 3" />
<line x1="1145" y1="1" x2="1145" y2="108" style="stroke:#ddd;stroke-width:2;stroke-dasharray:3 3" />
<line x1="1254" y1="1" x2="1254" y2="108" style="stroke:#ddd;stroke-width:2;stroke-dasharray:3 3" />
<line x1="1363" y1="1" x2="1363" y2="108" style="stroke:#ddd;stroke-width:2;stroke-dasharray:3 3" />
<line x1="1472" y1="1" x2="1472" y2="108" style="stroke:#ddd;stroke-width:2;stroke-dasharray:3 3" />
<path d="M13.28,35.72c0.35,0.24,2.39,0.41,3.31,0.31c3.94-0.41,14.62-1.21,20.95-2.41c0.92-0.17,1.15-0.24,1.73,0" style="fill:none;stroke:black;stroke-width:3" />
<circle cx="13.28" cy="35.72" r="5" stroke-width="0" fill="#FF2A00" opacity="0.7" />
<path d="M122.28,35.72c0.35,0.24,2.39,0.41,3.31,0.31c3.94-0.41,14.62-1.21,20.95-2.41c0.92-0.17,1.15-0.24,1.73,0" style="fill:none;stroke:#999;stroke-width:3" />
<path d="M136.36,13.5c0.91,0.47,2.04,2.25,2.04,4.92c0,0.95-0.12,70.75-0.3,76.58" style="fill:none;stroke:black;stroke-width:3" />
<circle cx="136.36" cy="13.5" r="5" stroke-width="0" fill="#FF2A00" opacity="0.7" />
<path d="M231.28,35.72c0.35,0.24,2.39,0.41,3.31,0.31c3.94-0.41,14.62-1.21,20.95-2.41c0.92-0.17,1.15-0.24,1.73,0" style="fill:none;stroke:#999;stroke-width:3" />
<path d="M245.36,13.5c0.91,0.47,2.04,2.25,2.04,4.92c0,0.95-0.12,70.75-0.3,76.58" style="fill:none;stroke:#999;stroke-width:3" />
<path d="M246.94,37.78c-5.66,15.8-8.81,22.48-17.58,36.31" style="fill:none;stroke:black;stroke-width:3" />
<circle cx="246.94" cy="37.78" r="5" stroke-width="0" fill="#FF2A00" opacity="0.7" />
<path d="M340.28,35.72c0.35,0.24,2.39,0.41,3.31,0.31c3.94-0.41,14.62-1.21,20.95-2.41c0.92-0.17,1.15-0.24,1.73,0" style="fill:none;stroke:#999;stroke-width:3" />
<path d="M354.36,13.5c0.91,0.47,2.04,2.25,2.04,4.92c0,0.95-0.12,70.75-0.3,76.58" style="fill:none;stroke:#999;stroke-width:3" />
<path d="M355.94,37.78c-5.66,15.8-8.81,22.48-17.58,36.31" style="fill:none;stroke:#999;stroke-width:3" />
<path d="M359.47,48.9c2.37,1.59,5.66,6.05,7.66,9.14" style="fill:none;stroke:black;stroke-width:3" />
<circle cx="359.47" cy="48.9" r="5" stroke-width="0" fill="#FF2A00" opacity="0.7" />
<path d="M449.28,35.72c0.35,0.24,2.39,0.41,3.31,0.31c3.94-0.41,14.62-1.21,20.95-2.41c0.92-0.17,1.15-0.24,1.73,0" style="fill:none;stroke:#999;stroke-width:3" />
<path d="M463.36,13.5c0.91,0.47,2.04,2.25,2.04,4.92c0,0.95-0.12,70.75-0.3,76.58" style="fill:none;stroke:#999;stroke-width:3" />
<path d="M464.94,37.78c-5.66,15.8-8.81,22.48-17.58,36.31" style="fill:none;stroke:#999;stroke-width:3" />
<path d="M468.47,48.9c2.37,1.59,5.66,6.05,7.66,9.14" style="fill:none;stroke:#999;stroke-width:3" />
<path d="M489.22,14.51c0.75,0.56,1.2,1.39,1.34,2.5c0.15,1.11,0.15,8.05,0.15,10.82" style="fill:none;stroke:black;stroke-width:3" />
<circle cx="489.22" cy="14.51" r="5" stroke-width="0" fill="#FF2A00" opacity="0.7" />
<path d="M558.28,35.72c0.35,0.24,2.39,0.41,3.31,0.31c3.94-0.41,14.62-1.21,20.95-2.41c0.92-0.17,1.15-0.24,1.73,0" style="fill:none;stroke:#999;stroke-width:3" />
<path d="M572.36,13.5c0.91,0.47,2.04,2.25,2.04,4.92c0,0.95-0.12,70.75-0.3,76.58" style="fill:none;stroke:#999;stroke-width:3" />
<path d="M573.94,37.78c-5.66,15.8-8.81,22.48-17.58,36.31" style="fill:none;stroke:#999;stroke-width:3" />
<path d="M577.47,48.9c2.37,1.59,5.66,6.05,7.66,9.14" style="fill:none;stroke:#999;stroke-width:3" />
<path d="M598.22,14.51c0.75,0.56,1.2,1.39,1.34,2.5c0.15,1.11,0.15,8.05,0.15,10.82" style="fill:none;stroke:#999;stroke-width:3" />
<path d="M591.5,29.22c1.31-0.12,15.77-2.94,16.96-3.16c2.02-0.38,2.52,1.4,2.44,3.18c-0.33,7.51-1.38,19.26-2.07,26.87" style="fill:none;stroke:black;stroke-width:3" />
<circle cx="591.5" cy="29.22" r="5" stroke-width="0" fill="#FF2A00" opacity="0.7" />
<path d="M667.28,35.72c0.35,0.24,2.39,0.41,3.31,0.31c3.94-0.41,14.62-1.21,20.95-2.41c0.92-0.17,1.15-0.24,1.73,0" style="fill:none;stroke:#999;stroke-width:3" />
<path d="M681.36,13.5c0.91,0.47,2.04,2.25,2.04,4.92c0,0.95-0.12,70.75-0.3,76.58" style="fill:none;stroke:#999;stroke-width:3" />
<path d="M682.94,37.78c-5.66,15.8-8.81,22.48-17.58,36.31" style="fill:none;stroke:#999;stroke-width:3" />
<path d="M686.47,48.9c2.37,1.59,5.66,6.05,7.66,9.14" style="fill:none;stroke:#999;stroke-width:3" />
<path d="M707.22,14.51c0.75,0.56,1.2,1.39,1.34,2.5c0.15,1.11,0.15,8.05,0.15,10.82" style="fill:none;stroke:#999;stroke-width:3" />
<path d="M700.5,29.22c1.31-0.12,15.77-2.94,16.96-3.16c2.02-0.38,2.52,1.4,2.44,3.18c-0.33,7.51-1.38,19.26-2.07,26.87" style="fill:none;stroke:#999;stroke-width:3" />
<path d="M700.73,41.73c3.35-0.48,12.64-1.98,17.7-2.32" style="fill:none;stroke:black;stroke-width:3" />
<circle cx="700.73" cy="41.73" r="5" stroke-width="0" fill="#FF2A00" opacity="0.7" />
<path d="M776.28,35.72c0.35,0.24,2.39,0.41,3.31,0.31c3.94-0.41,14.62-1.21,20.95-2.41c0.92-0.17,1.15-0.24,1.73,0" style="fill:none;stroke:#999;stroke-width:3" />
<path d="M790.36,13.5c0.91,0.47,2.04,2.25,2.04,4.92c0,0.95-0.12,70.75-0.3,76.58" style="fill:none;stroke:#999;stroke-width:3" />
<path d="M791.94,37.78c-5.66,15.8-8.81,22.48-17.58,36.31" style="fill:none;stroke:#999;stroke-width:3" />
<path d="M795.47,48.9c2.37,1.59,5.66,6.05,7.66,9.14" style="fill:none;stroke:#999;stroke-width:3" />
<path d="M816.22,14.51c0.75,0.56,1.2,1.39,1.34,2.5c0.15,1.11,0.15,8.05,0.15,10.82" style="fill:none;stroke:#999;stroke-width:3" />
<path d="M809.5,29.22c1.31-0.12,15.77-2.94,16.96-3.16c2.02-0.38,2.52,1.4,2.44,3.18c-0.33,7.51-1.38,19.26-2.07,26.87" style="fill:none;stroke:#999;stroke-width:3" />
<path d="M809.73,41.73c3.35-0.48,12.64-1.98,17.7-2.32" style="fill:none;stroke:#999;stroke-width:3" />
<path d="M809.65,55.71c3.62-0.52,11.26-1.71,17.49-2.59" style="fill:none;stroke:black;stroke-width:3" />
<circle cx="809.65" cy="55.71" r="5" stroke-width="0" fill="#FF2A00" opacity="0.7" />
<path d="M885.28,35.72c0.35,0.24,2.39,0.41,3.31,0.31c3.94-0.41,14.62-1.21,20.95-2.41c0.92-0.17,1.15-0.24,1.73,0" style="fill:none;stroke:#999;stroke-width:3" />
<path d="M899.36,13.5c0.91,0.47,2.04,2.25,2.04,4.92c0,0.95-0.12,70.75-0.3,76.58" style="fill:none;stroke:#999;stroke-width:3" />
<path d="M900.94,37.78c-5.66,15.8-8.81,22.48-17.58,36.31" style="fill:none;stroke:#999;stroke-width:3" />
<path d="M904.47,48.9c2.37,1.59,5.66,6.05,7.66,9.14" style="fill:none;stroke:#999;stroke-width:3" />
<path d="M925.22,14.51c0.75,0.56,1.2,1.39,1.34,2.5c0.15,1.11,0.15,8.05,0.15,10.82" style="fill:none;stroke:#999;stroke-width:3" />
<path d="M918.5,29.22c1.31-0.12,15.77-2.94,16.96-3.16c2.02-0.38,2.52,1.4,2.44,3.18c-0.33,7.51-1.38,19.26-2.07,26.87" style="fill:none;stroke:#999;stroke-width:3" />
<path d="M918.73,41.73c3.35-0.48,12.64-1.98,17.7-2.32" style="fill:none;stroke:#999;stroke-width:3" />
<path d="M918.65,55.71c3.62-0.52,11.26-1.71,17.49-2.59" style="fill:none;stroke:#999;stroke-width:3" />
<path d="M 916.89,27.11 c 0.75,0.56 1.2,2.5 1.35,3.61 0.13,1.01 -0.08,47.44 -0.08,57.28 0,2.61 0.91,2.5 1.78,1.65 3.03,-2.98 10.166978,-9.132699 13.536978,-11.852699" style="fill:none;stroke:black;stroke-width:3" />
<circle cx="916.89" cy="27.11" r="5" stroke-width="0" fill="#FF2A00" opacity="0.7" />
<path d="M994.28,35.72c0.35,0.24,2.39,0.41,3.31,0.31c3.94-0.41,14.62-1.21,20.95-2.41c0.92-0.17,1.15-0.24,1.73,0" style="fill:none;stroke:#999;stroke-width:3" />
<path d="M1008.36,13.5c0.91,0.47,2.04,2.25,2.04,4.92c0,0.95-0.12,70.75-0.3,76.58" style="fill:none;stroke:#999;stroke-width:3" />
<path d="M1009.94,37.78c-5.66,15.8-8.81,22.48-17.58,36.31" style="fill:none;stroke:#999;stroke-width:3" />
<path d="M1013.47,48.9c2.37,1.59,5.66,6.05,7.66,9.14" style="fill:none;stroke:#999;stroke-width:3" />
<path d="M1034.22,14.51c0.75,0.56,1.2,1.39,1.34,2.5c0.15,1.11,0.15,8.05,0.15,10.82" style="fill:none;stroke:#999;stroke-width:3" />
<path d="M1027.5,29.22c1.31-0.12,15.77-2.94,16.96-3.16c2.02-0.38,2.52,1.4,2.44,3.18c-0.33,7.51-1.38,19.26-2.07,26.87" style="fill:none;stroke:#999;stroke-width:3" />
<path d="M1027.73,41.73c3.35-0.48,12.64-1.98,17.7-2.32" style="fill:none;stroke:#999;stroke-width:3" />
<path d="M1027.65,55.71c3.62-0.52,11.26-1.71,17.49-2.59" style="fill:none;stroke:#999;stroke-width:3" />
<path d="M 1025.8899999999999,27.11 c 0.75,0.56 1.2,2.5 1.35,3.61 0.13,1.01 -0.08,47.44 -0.08,57.28 0,2.61 0.91,2.5 1.78,1.65 3.03,-2.98 10.166978,-9.132699 13.536978,-11.852699" style="fill:none;stroke:#999;stroke-width:3" />
<path d="M 1048.448685,65.746113 c 0.02,0.417151 0.07087,0.624918 -0.08143,0.987139 -1.070583,2.546168 -1.813422,4.16842 -6.282745,7.13842" style="fill:none;stroke:black;stroke-width:3" />
<circle cx="1048.448685" cy="65.746113" r="5" stroke-width="0" fill="#FF2A00" opacity="0.7" />
<path d="M1103.28,35.72c0.35,0.24,2.39,0.41,3.31,0.31c3.94-0.41,14.62-1.21,20.95-2.41c0.92-0.17,1.15-0.24,1.73,0" style="fill:none;stroke:#999;stroke-width:3" />
<path d="M1117.3600000000001,13.5c0.91,0.47,2.04,2.25,2.04,4.92c0,0.95-0.12,70.75-0.3,76.58" style="fill:none;stroke:#999;stroke-width:3" />
<path d="M1118.94,37.78c-5.66,15.8-8.81,22.48-17.58,36.31" style="fill:none;stroke:#999;stroke-width:3" />
<path d="M1122.47,48.9c2.37,1.59,5.66,6.05,7.66,9.14" style="fill:none;stroke:#999;stroke-width:3" />
<path d="M1143.22,14.51c0.75,0.56,1.2,1.39,1.34,2.5c0.15,1.11,0.15,8.05,0.15,10.82" style="fill:none;stroke:#999;stroke-width:3" />
<path d="M1136.5,29.22c1.31-0.12,15.77-2.94,16.96-3.16c2.02-0.38,2.52,1.4,2.44,3.18c-0.33,7.51-1.38,19.26-2.07,26.87" style="fill:none;stroke:#999;stroke-width:3" />
<path d="M1136.73,41.73c3.35-0.48,12.64-1.98,17.7-2.32" style="fill:none;stroke:#999;stroke-width:3" />
<path d="M1136.65,55.71c3.62-0.52,11.26-1.71,17.49-2.59" style="fill:none;stroke:#999;stroke-width:3" />
<path d="M 1134.8899999999999,27.11 c 0.75,0.56 1.2,2.5 1.35,3.61 0.13,1.01 -0.08,47.44 -0.08,57.28 0,2.61 0.91,2.5 1.78,1.65 3.03,-2.98 10.166978,-9.132699 13.536978,-11.852699" style="fill:none;stroke:#999;stroke-width:3" />
<path d="M 1157.448685,65.746113 c 0.02,0.417151 0.07087,0.624918 -0.08143,0.987139 -1.070583,2.546168 -1.813422,4.16842 -6.282745,7.13842" style="fill:none;stroke:#999;stroke-width:3" />
<path d="M 1144.864371,70.260046 c 4.79,3.08 9.42842,8.39842 12.15842,14.90842" style="fill:none;stroke:black;stroke-width:3" />
<circle cx="1144.864371" cy="70.260046" r="5" stroke-width="0" fill="#FF2A00" opacity="0.7" />
<path d="M1212.28,35.72c0.35,0.24,2.39,0.41,3.31,0.31c3.94-0.41,14.62-1.21,20.95-2.41c0.92-0.17,1.15-0.24,1.73,0" style="fill:none;stroke:#999;stroke-width:3" />
<path d="M1226.3600000000001,13.5c0.91,0.47,2.04,2.25,2.04,4.92c0,0.95-0.12,70.75-0.3,76.58" style="fill:none;stroke:#999;stroke-width:3" />
<path d="M1227.94,37.78c-5.66,15.8-8.81,22.48-17.58,36.31" style="fill:none;stroke:#999;stroke-width:3" />
<path d="M1231.47,48.9c2.37,1.59,5.66,6.05,7.66,9.14" style="fill:none;stroke:#999;stroke-width:3" />
<path d="M1252.22,14.51c0.75,0.56,1.2,1.39,1.34,2.5c0.15,1.11,0.15,8.05,0.15,10.82" style="fill:none;stroke:#999;stroke-width:3" />
<path d="M1245.5,29.22c1.31-0.12,15.77-2.94,16.96-3.16c2.02-0.38,2.52,1.4,2.44,3.18c-0.33,7.51-1.38,19.26-2.07,26.87" style="fill:none;stroke:#999;stroke-width:3" />
<path d="M1245.73,41.73c3.35-0.48,12.64-1.98,17.7-2.32" style="fill:none;stroke:#999;stroke-width:3" />
<path d="M1245.65,55.71c3.62-0.52,11.26-1.71,17.49-2.59" style="fill:none;stroke:#999;stroke-width:3" />
<path d="M 1243.8899999999999,27.11 c 0.75,0.56 1.2,2.5 1.35,3.61 0.13,1.01 -0.08,47.44 -0.08,57.28 0,2.61 0.91,2.5 1.78,1.65 3.03,-2.98 10.166978,-9.132699 13.536978,-11.852699" style="fill:none;stroke:#999;stroke-width:3" />
<path d="M 1266.448685,65.746113 c 0.02,0.417151 0.07087,0.624918 -0.08143,0.987139 -1.070583,2.546168 -1.813422,4.16842 -6.282745,7.13842" style="fill:none;stroke:#999;stroke-width:3" />
<path d="M 1253.864371,70.260046 c 4.79,3.08 9.42842,8.39842 12.15842,14.90842" style="fill:none;stroke:#999;stroke-width:3" />
<path d="M1273.32,21.76c1.09,0.27,1.76,0.54,2.64,0.48c5.68-0.44,11.33-1.55,13.77-2.52c2.85-1.14,4.33,1.6,3.06,4.27c-1.27,2.67-6.65,14.7-8.87,18.51" style="fill:none;stroke:black;stroke-width:3" />
<circle cx="1273.32" cy="21.76" r="5" stroke-width="0" fill="#FF2A00" opacity="0.7" />
<path d="M1321.28,35.72c0.35,0.24,2.39,0.41,3.31,0.31c3.94-0.41,14.62-1.21,20.95-2.41c0.92-0.17,1.15-0.24,1.73,0" style="fill:none;stroke:#999;stroke-width:3" />
<path d="M1335.3600000000001,13.5c0.91,0.47,2.04,2.25,2.04,4.92c0,0.95-0.12,70.75-0.3,76.58" style="fill:none;stroke:#999;stroke-width:3" />
<path d="M1336.94,37.78c-5.66,15.8-8.81,22.48-17.58,36.31" style="fill:none;stroke:#999;stroke-width:3" />
<path d="M1340.47,48.9c2.37,1.59,5.66,6.05,7.66,9.14" style="fill:none;stroke:#999;stroke-width:3" />
<path d="M1361.22,14.51c0.75,0.56,1.2,1.39,1.34,2.5c0.15,1.11,0.15,8.05,0.15,10.82" style="fill:none;stroke:#999;stroke-width:3" />
<path d="M1354.5,29.22c1.31-0.12,15.77-2.94,16.96-3.16c2.02-0.38,2.52,1.4,2.44,3.18c-0.33,7.51-1.38,19.26-2.07,26.87" style="fill:none;stroke:#999;stroke-width:3" />
<path d="M1354.73,41.73c3.35-0.48,12.64-1.98,17.7-2.32" style="fill:none;stroke:#999;stroke-width:3" />
<path d="M1354.65,55.71c3.62-0.52,11.26-1.71,17.49-2.59" style="fill:none;stroke:#999;stroke-width:3" />
<path d="M 1352.8899999999999,27.11 c 0.75,0.56 1.2,2.5 1.35,3.61 0.13,1.01 -0.08,47.44 -0.08,57.28 0,2.61 0.91,2.5 1.78,1.65 3.03,-2.98 10.166978,-9.132699 13.536978,-11.852699" style="fill:none;stroke:#999;stroke-width:3" />
<path d="M 1375.448685,65.746113 c 0.02,0.417151 0.07087,0.624918 -0.08143,0.987139 -1.070583,2.546168 -1.813422,4.16842 -6.282745,7.13842" style="fill:none;stroke:#999;stroke-width:3" />
<path d="M 1362.864371,70.260046 c 4.79,3.08 9.42842,8.39842 12.15842,14.90842" style="fill:none;stroke:#999;stroke-width:3" />
<path d="M1382.32,21.76c1.09,0.27,1.76,0.54,2.64,0.48c5.68-0.44,11.33-1.55,13.77-2.52c2.85-1.14,4.33,1.6,3.06,4.27c-1.27,2.67-6.65,14.7-8.87,18.51" style="fill:none;stroke:#999;stroke-width:3" />
<path d="M1392.56,42.61c19.94,16.64,13.19,46.14,3.64,32.63" style="fill:none;stroke:black;stroke-width:3" />
<circle cx="1392.56" cy="42.61" r="5" stroke-width="0" fill="#FF2A00" opacity="0.7" />
<path d="M1430.28,35.72c0.35,0.24,2.39,0.41,3.31,0.31c3.94-0.41,14.62-1.21,20.95-2.41c0.92-0.17,1.15-0.24,1.73,0" style="fill:none;stroke:#999;stroke-width:3" />
<path d="M1444.3600000000001,13.5c0.91,0.47,2.04,2.25,2.04,4.92c0,0.95-0.12,70.75-0.3,76.58" style="fill:none;stroke:#999;stroke-width:3" />
<path d="M1445.94,37.78c-5.66,15.8-8.81,22.48-17.58,36.31" style="fill:none;stroke:#999;stroke-width:3" />
<path d="M1449.47,48.9c2.37,1.59,5.66,6.05,7.66,9.14" style="fill:none;stroke:#999;stroke-width:3" />
<path d="M1470.22,14.51c0.75,0.56,1.2,1.39,1.34,2.5c0.15,1.11,0.15,8.05,0.15,10.82" style="fill:none;stroke:#999;stroke-width:3" />
<path d="M1463.5,29.22c1.31-0.12,15.77-2.94,16.96-3.16c2.02-0.38,2.52,1.4,2.44,3.18c-0.33,7.51-1.38,19.26-2.07,26.87" style="fill:none;stroke:#999;stroke-width:3" />
<path d="M1463.73,41.73c3.35-0.48,12.64-1.98,17.7-2.32" style="fill:none;stroke:#999;stroke-width:3" />
<path d="M1463.65,55.71c3.62-0.52,11.26-1.71,17.49-2.59" style="fill:none;stroke:#999;stroke-width:3" />
<path d="M 1461.8899999999999,27.11 c 0.75,0.56 1.2,2.5 1.35,3.61 0.13,1.01 -0.08,47.44 -0.08,57.28 0,2.61 0.91,2.5 1.78,1.65 3.03,-2.98 10.166978,-9.132699 13.536978,-11.852699" style="fill:none;stroke:#999;stroke-width:3" />
<path d="M 1484.448685,65.746113 c 0.02,0.417151 0.07087,0.624918 -0.08143,0.987139 -1.070583,2.546168 -1.813422,4.16842 -6.282745,7.13842" style="fill:none;stroke:#999;stroke-width:3" />
<path d="M 1471.864371,70.260046 c 4.79,3.08 9.42842,8.39842 12.15842,14.90842" style="fill:none;stroke:#999;stroke-width:3" />
<path d="M1491.32,21.76c1.09,0.27,1.76,0.54,2.64,0.48c5.68-0.44,11.33-1.55,13.77-2.52c2.85-1.14,4.33,1.6,3.06,4.27c-1.27,2.67-6.65,14.7-8.87,18.51" style="fill:none;stroke:#999;stroke-width:3" />
<path d="M1501.56,42.61c19.94,16.64,13.19,46.14,3.64,32.63" style="fill:none;stroke:#999;stroke-width:3" />
<path d="M1492.95,22.75c0.79,0.5,1.27,2.25,1.43,3.25c0.16,1,0,64.25-0.16,70.5" style="fill:none;stroke:black;stroke-width:3" />
<circle cx="1492.95" cy="22.75" r="5" stroke-width="0" fill="#FF2A00" opacity="0.7" />
</svg>