<!-- 06a2e -->
<svg width="1526px" height="109px" viewBox="0 0 1526px 109px" xmlns="http://www.w3.org/2000/svg" xmlns:xlink="http://www.w3.org/1999/xlink" xml:space="preserve" version="1.1"  baseProfile="full">
<line x1="1" y1="1" x2="1525" y2="1" style="stroke:#ddd;stroke-width:2" />
<line x1="1" y1="1" x2="1" y2="108" style="stroke:#ddd;stroke-width:2" />
<line x1="1" y1="108" x2="1525" y2="108" style="stroke:#ddd;stroke-width:2" />
<line x1="1525" y1="1" x2="1525" y2="108" style="stroke:#ddd;stroke-width:2" />
<line x1="109" y1="1" x2="109" y2="108" style="stroke:#ddd;stroke-width:2" />
<line x1="218" y1="1" x2="218" y2="108" style="stroke:#ddd;stroke-width:2" />
<line x1="327" y1="1" x2="327" y2="108" style="stroke:#ddd;stroke-width:2" />
<line x1="436" y1="1" x2="436" y2="108" style="stroke:#ddd;stroke-width:2" />
<line x1="545" y1="1" x2="545" y2="108" style="stroke:#ddd;stroke-width:2" />
<line x1="654" y1="1" x2="654" y2="108" style="stroke:#ddd;stroke-width:2" />
<line x1="763" y1="1" x2="763" y2="108" style="stroke:#ddd;stroke-width:2" />
<line x1="872" y1="1" x2="872" y2="108" style="stroke:#ddd;stroke-width:2" />
<line x1="981" y1="1" x2="981" y2="108" style="stroke:#ddd;stroke-width:2" />
<line x1="1090" y1="1" x2="1090" y2="108" style="stroke:#ddd;stroke-width:2" />
<line x1="1199" y1="1" x2="1199" y2="108" style="stroke:#ddd;stroke-width:2" />
<line x1="1308" y1="1" x2="1308" y2="108" style="stroke:#ddd;stroke-width:2" />
<line x1="1417" y1="1" x2="1417" y2="108" style="stroke:#ddd;stroke-width:2" />
<line x1="1" y1="54" x2="1525" y2="54" style="stroke:#ddd;stroke-width:2;stroke-dasharray:3 3" />
<line x1="55" y1="1" x2="55" y2="108" style="stroke:#ddd;stroke-width:2;stroke-dasharray:3 3" />
<line x1="164" y1="1" x2="164" y2="108" style="stroke:#ddd;stroke-width:2;stroke-dasharray:3 3" />
<line x1="273" y1="1" x2="273" y2="108" style="stroke:#ddd;stroke-width:2;stroke-dasharray:3 3" />
<line x1="382" y1="1" x2="382" y2="108" style="stroke:#ddd;stroke-width:2;stroke-dasharray:3 3" />
<line x1="491" y1="1" x2="491" y2="108" style="stroke:#ddd;stroke-width:2;stroke-dasharray:3 3" />
<line x1="600" y1="1" x2="600" y2="108" style="stroke:#ddd;stroke-width:2;stroke-dasharray:3 3" />
<line x1="709" y1="1" x2="709" y2="108" style="stroke:#ddd;stroke-width:2;stroke-dasharray:3 3" />
<line x1="818" y1="1" x2="818" y2="108" style="stroke:#ddd;stroke-width:2;stroke-dasharray:3 3" />
<line x1="927" y1="1" x2="927" y2="108" style="stroke:#ddd;stroke-width:2;stroke-dasharray:3 3" />
<line x1="1036" y1="1" x2="1036" y2="108" style="stroke:#ddd;stroke-width:2;stroke-dasharray:3 3" />
<line x1="1145" y1="1" x2="1145" y2="108" style="stroke:#ddd;stroke-width:2;stroke-dasharray:3 3" />
<line x1="1254" y1="1" x2="1254" y2="108" style="stroke:#ddd;stroke-width:2;stroke-dasharray:3 3" />
<line x1="1363" y1="1" x2="1363" y2="108" style="stroke:#ddd;stroke-width:2;stroke-dasharray:3 3" />
<line x1="1472" y1="1" x2="1472" y2="108" style="stroke:#ddd;stroke-width:2;stroke-dasharray:3 3" />
<path d="M12.28,36.72c0.35,0.24,2.39,0.41,3.31,0.31c3.94-0.41,15.12-1.21,21.45-2.41c0.92-0.17,2.15-0.24,2.73,0" style="fill:none;stroke:black;stroke-width:3" />
<circle cx="12.28" cy="36.72" r="5" stroke-width="0" fill="#FF2A00" opacity="0.7" />
<path d="M121.28,36.72c0.35,0.24,2.39,0.41,3.31,0.31c3.94-0.41,15.12-1.21,21.45-2.41c0.92-0.17,2.15-0.24,2.73,0" style="fill:none;stroke:#999;stroke-width:3" />
<path d="M136.36,15.5c0.91,0.47,2.04,2.25,2.04,4.42c0,0.95-0.12,69.75-0.3,75.58" style="fill:none;stroke:black;stroke-width:3" />
<circle cx="136.36" cy="15.5" r="5" stroke-width="0" fill="#FF2A00" opacity="0.7" />
<path d="M230.28,36.72c0.35,0.24,2.39,0.41,3.31,0.31c3.94-0.41,15.12-1.21,21.45-2.41c0.92-0.17,2.15-0.24,2.73,0" style="fill:none;stroke:#999;stroke-width:3" />
<path d="M245.36,15.5c0.91,0.47,2.04,2.25,2.04,4.42c0,0.95-0.12,69.75-0.3,75.58" style="fill:none;stroke:#999;stroke-width:3" />
<path d="M246.94,38.78c-6.06,16.56-9.44,23.56-18.83,38.06" style="fill:none;stroke:black;stroke-width:3" />
<circle cx="246.94" cy="38.78" r="5" stroke-width="0" fill="#FF2A00" opacity="0.7" />
<path d="M339.28,36.72c0.35,0.24,2.39,0.41,3.31,0.31c3.94-0.41,15.12-1.21,21.45-2.41c0.92-0.17,2.15-0.24,2.73,0" style="fill:none;stroke:#999;stroke-width:3" />
<path d="M354.36,15.5c0.91,0.47,2.04,2.25,2.04,4.42c0,0.95-0.12,69.75-0.3,75.58" style="fill:none;stroke:#999;stroke-width:3" />
<path d="M355.94,38.78c-6.06,16.56-9.44,23.56-18.83,38.06" style="fill:none;stroke:#999;stroke-width:3" />
<path d="M358.22,47.15c2.59,1.55,6.85,6.59,9.03,9.6" style="fill:none;stroke:black;stroke-width:3" />
<circle cx="358.22" cy="47.15" r="5" stroke-width="0" fill="#FF2A00" opacity="0.7" />
<path d="M448.28,36.72c0.35,0.24,2.39,0.41,3.31,0.31c3.94-0.41,15.12-1.21,21.45-2.41c0.92-0.17,2.15-0.24,2.73,0" style="fill:none;stroke:#999;stroke-width:3" />
<path d="M463.36,15.5c0.91,0.47,2.04,2.25,2.04,4.42c0,0.95-0.12,69.75-0.3,75.58" style="fill:none;stroke:#999;stroke-width:3" />
<path d="M464.94,38.78c-6.06,16.56-9.44,23.56-18.83,38.06" style="fill:none;stroke:#999;stroke-width:3" />
<path d="M467.22,47.15c2.59,1.55,6.85,6.59,9.03,9.6" style="fill:none;stroke:#999;stroke-width:3" />
<path d="M478.62,18.9c1.22,0.38,3.46,0.49,4.68,0.38c7.79-0.66,34.69-3.82,42.23-3.38c2.03,0.12,3.26,0.18,4.28,0.37" style="fill:none;stroke:black;stroke-width:3" />
<circle cx="478.62" cy="18.9" r="5" stroke-width="0" fill="#FF2A00" opacity="0.7" />
<path d="M557.28,36.72c0.35,0.24,2.39,0.41,3.31,0.31c3.94-0.41,15.12-1.21,21.45-2.41c0.92-0.17,2.15-0.24,2.73,0" style="fill:none;stroke:#999;stroke-width:3" />
<path d="M572.36,15.5c0.91,0.47,2.04,2.25,2.04,4.42c0,0.95-0.12,69.75-0.3,75.58" style="fill:none;stroke:#999;stroke-width:3" />
<path d="M573.94,38.78c-6.06,16.56-9.44,23.56-18.83,38.06" style="fill:none;stroke:#999;stroke-width:3" />
<path d="M576.22,47.15c2.59,1.55,6.85,6.59,9.03,9.6" style="fill:none;stroke:#999;stroke-width:3" />
<path d="M587.62,18.9c1.22,0.38,3.46,0.49,4.68,0.38c7.79-0.66,34.69-3.82,42.23-3.38c2.03,0.12,3.26,0.18,4.28,0.37" style="fill:none;stroke:#999;stroke-width:3" />
<path d="M591.57,29.26c0.29,0.34,0.59,0.62,0.71,1.05c1.01,3.37,2.71,12.68,3.4,18.74" style="fill:none;stroke:black;stroke-width:3" />
<circle cx="591.57" cy="29.26" r="5" stroke-width="0" fill="#FF2A00" opacity="0.7" />
<path d="M666.28,36.72c0.35,0.24,2.39,0.41,3.31,0.31c3.94-0.41,15.12-1.21,21.45-2.41c0.92-0.17,2.15-0.24,2.73,0" style="fill:none;stroke:#999;stroke-width:3" />
<path d="M681.36,15.5c0.91,0.47,2.04,2.25,2.04,4.42c0,0.95-0.12,69.75-0.3,75.58" style="fill:none;stroke:#999;stroke-width:3" />
<path d="M682.94,38.78c-6.06,16.56-9.44,23.56-18.83,38.06" style="fill:none;stroke:#999;stroke-width:3" />
<path d="M685.22,47.15c2.59,1.55,6.85,6.59,9.03,9.6" style="fill:none;stroke:#999;stroke-width:3" />
<path d="M696.62,18.9c1.22,0.38,3.46,0.49,4.68,0.38c7.79-0.66,34.69-3.82,42.23-3.38c2.03,0.12,3.26,0.18,4.28,0.37" style="fill:none;stroke:#999;stroke-width:3" />
<path d="M700.57,29.26c0.29,0.34,0.59,0.62,0.71,1.05c1.01,3.37,2.71,12.68,3.4,18.74" style="fill:none;stroke:#999;stroke-width:3" />
<path d="M702.38,31.78c7.11-1.25,35.57-3.8,39.23-4.22c1.34-0.15,2.14,1.56,1.95,2.47c-0.79,3.76-1.56,8.82-3.26,14.25" style="fill:none;stroke:black;stroke-width:3" />
<circle cx="702.38" cy="31.78" r="5" stroke-width="0" fill="#FF2A00" opacity="0.7" />
<path d="M775.28,36.72c0.35,0.24,2.39,0.41,3.31,0.31c3.94-0.41,15.12-1.21,21.45-2.41c0.92-0.17,2.15-0.24,2.73,0" style="fill:none;stroke:#999;stroke-width:3" />
<path d="M790.36,15.5c0.91,0.47,2.04,2.25,2.04,4.42c0,0.95-0.12,69.75-0.3,75.58" style="fill:none;stroke:#999;stroke-width:3" />
<path d="M791.94,38.78c-6.06,16.56-9.44,23.56-18.83,38.06" style="fill:none;stroke:#999;stroke-width:3" />
<path d="M794.22,47.15c2.59,1.55,6.85,6.59,9.03,9.6" style="fill:none;stroke:#999;stroke-width:3" />
<path d="M805.62,18.9c1.22,0.38,3.46,0.49,4.68,0.38c7.79-0.66,34.69-3.82,42.23-3.38c2.03,0.12,3.26,0.18,4.28,0.37" style="fill:none;stroke:#999;stroke-width:3" />
<path d="M809.57,29.26c0.29,0.34,0.59,0.62,0.71,1.05c1.01,3.37,2.71,12.68,3.4,18.74" style="fill:none;stroke:#999;stroke-width:3" />
<path d="M811.38,31.78c7.11-1.25,35.57-3.8,39.23-4.22c1.34-0.15,2.14,1.56,1.95,2.47c-0.79,3.76-1.56,8.82-3.26,14.25" style="fill:none;stroke:#999;stroke-width:3" />
<path d="M821.83,20.11c0.58,0.47,0.97,2.12,1.04,3.08c0.22,2.84,1.26,14.99,1.79,21.62" style="fill:none;stroke:black;stroke-width:3" />
<circle cx="821.83" cy="20.11" r="5" stroke-width="0" fill="#FF2A00" opacity="0.7" />
<path d="M884.28,36.72c0.35,0.24,2.39,0.41,3.31,0.31c3.94-0.41,15.12-1.21,21.45-2.41c0.92-0.17,2.15-0.24,2.73,0" style="fill:none;stroke:#999;stroke-width:3" />
<path d="M899.36,15.5c0.91,0.47,2.04,2.25,2.04,4.42c0,0.95-0.12,69.75-0.3,75.58" style="fill:none;stroke:#999;stroke-width:3" />
<path d="M900.94,38.78c-6.06,16.56-9.44,23.56-18.83,38.06" style="fill:none;stroke:#999;stroke-width:3" />
<path d="M903.22,47.15c2.59,1.55,6.85,6.59,9.03,9.6" style="fill:none;stroke:#999;stroke-width:3" />
<path d="M914.62,18.9c1.22,0.38,3.46,0.49,4.68,0.38c7.79-0.66,34.69-3.82,42.23-3.38c2.03,0.12,3.26,0.18,4.28,0.37" style="fill:none;stroke:#999;stroke-width:3" />
<path d="M918.57,29.26c0.29,0.34,0.59,0.62,0.71,1.05c1.01,3.37,2.71,12.68,3.4,18.74" style="fill:none;stroke:#999;stroke-width:3" />
<path d="M920.38,31.78c7.11-1.25,35.57-3.8,39.23-4.22c1.34-0.15,2.14,1.56,1.95,2.47c-0.79,3.76-1.56,8.82-3.26,14.25" style="fill:none;stroke:#999;stroke-width:3" />
<path d="M930.83,20.11c0.58,0.47,0.97,2.12,1.04,3.08c0.22,2.84,1.26,14.99,1.79,21.62" style="fill:none;stroke:#999;stroke-width:3" />
<path d="M946.98,19.04c0.44,0.38,0.7,2.1,0.45,3.81c-0.68,4.64-0.93,12.89-1.8,21.32" style="fill:none;stroke:black;stroke-width:3" />
<circle cx="946.98" cy="19.04" r="5" stroke-width="0" fill="#FF2A00" opacity="0.7" />
<path d="M993.28,36.72c0.35,0.24,2.39,0.41,3.31,0.31c3.94-0.41,15.12-1.21,21.45-2.41c0.92-0.17,2.15-0.24,2.73,0" style="fill:none;stroke:#999;stroke-width:3" />
<path d="M1008.36,15.5c0.91,0.47,2.04,2.25,2.04,4.42c0,0.95-0.12,69.75-0.3,75.58" style="fill:none;stroke:#999;stroke-width:3" />
<path d="M1009.94,38.78c-6.06,16.56-9.44,23.56-18.83,38.06" style="fill:none;stroke:#999;stroke-width:3" />
<path d="M1012.22,47.15c2.59,1.55,6.85,6.59,9.03,9.6" style="fill:none;stroke:#999;stroke-width:3" />
<path d="M1023.62,18.9c1.22,0.38,3.46,0.49,4.68,0.38c7.79-0.66,34.69-3.82,42.23-3.38c2.03,0.12,3.26,0.18,4.28,0.37" style="fill:none;stroke:#999;stroke-width:3" />
<path d="M1027.5700000000002,29.26c0.29,0.34,0.59,0.62,0.71,1.05c1.01,3.37,2.71,12.68,3.4,18.74" style="fill:none;stroke:#999;stroke-width:3" />
<path d="M1029.38,31.78c7.11-1.25,35.57-3.8,39.23-4.22c1.34-0.15,2.14,1.56,1.95,2.47c-0.79,3.76-1.56,8.82-3.26,14.25" style="fill:none;stroke:#999;stroke-width:3" />
<path d="M1039.83,20.11c0.58,0.47,0.97,2.12,1.04,3.08c0.22,2.84,1.26,14.99,1.79,21.62" style="fill:none;stroke:#999;stroke-width:3" />
<path d="M1055.98,19.04c0.44,0.38,0.7,2.1,0.45,3.81c-0.68,4.64-0.93,12.89-1.8,21.32" style="fill:none;stroke:#999;stroke-width:3" />
<path d="M1031.98,45.82c4.3-0.48,30-1.95,35.46-2.43" style="fill:none;stroke:black;stroke-width:3" />
<circle cx="1031.98" cy="45.82" r="5" stroke-width="0" fill="#FF2A00" opacity="0.7" />
<path d="M1102.28,36.72c0.35,0.24,2.39,0.41,3.31,0.31c3.94-0.41,15.12-1.21,21.45-2.41c0.92-0.17,2.15-0.24,2.73,0" style="fill:none;stroke:#999;stroke-width:3" />
<path d="M1117.3600000000001,15.5c0.91,0.47,2.04,2.25,2.04,4.42c0,0.95-0.12,69.75-0.3,75.58" style="fill:none;stroke:#999;stroke-width:3" />
<path d="M1118.94,38.78c-6.06,16.56-9.44,23.56-18.83,38.06" style="fill:none;stroke:#999;stroke-width:3" />
<path d="M1121.22,47.15c2.59,1.55,6.85,6.59,9.03,9.6" style="fill:none;stroke:#999;stroke-width:3" />
<path d="M1132.62,18.9c1.22,0.38,3.46,0.49,4.68,0.38c7.79-0.66,34.69-3.82,42.23-3.38c2.03,0.12,3.26,0.18,4.28,0.37" style="fill:none;stroke:#999;stroke-width:3" />
<path d="M1136.5700000000002,29.26c0.29,0.34,0.59,0.62,0.71,1.05c1.01,3.37,2.71,12.68,3.4,18.74" style="fill:none;stroke:#999;stroke-width:3" />
<path d="M1138.38,31.78c7.11-1.25,35.57-3.8,39.23-4.22c1.34-0.15,2.14,1.56,1.95,2.47c-0.79,3.76-1.56,8.82-3.26,14.25" style="fill:none;stroke:#999;stroke-width:3" />
<path d="M1148.83,20.11c0.58,0.47,0.97,2.12,1.04,3.08c0.22,2.84,1.26,14.99,1.79,21.62" style="fill:none;stroke:#999;stroke-width:3" />
<path d="M1164.98,19.04c0.44,0.38,0.7,2.1,0.45,3.81c-0.68,4.64-0.93,12.89-1.8,21.32" style="fill:none;stroke:#999;stroke-width:3" />
<path d="M1140.98,45.82c4.3-0.48,30-1.95,35.46-2.43" style="fill:none;stroke:#999;stroke-width:3" />
<path d="M1138.51,61.8c2.54,2.06,6.69,8.92,7.38,10.98" style="fill:none;stroke:black;stroke-width:3" />
<circle cx="1138.51" cy="61.8" r="5" stroke-width="0" fill="#FF2A00" opacity="0.7" />
<path d="M1211.28,36.72c0.35,0.24,2.39,0.41,3.31,0.31c3.94-0.41,15.12-1.21,21.45-2.41c0.92-0.17,2.15-0.24,2.73,0" style="fill:none;stroke:#999;stroke-width:3" />
<path d="M1226.3600000000001,15.5c0.91,0.47,2.04,2.25,2.04,4.42c0,0.95-0.12,69.75-0.3,75.58" style="fill:none;stroke:#999;stroke-width:3" />
<path d="M1227.94,38.78c-6.06,16.56-9.44,23.56-18.83,38.06" style="fill:none;stroke:#999;stroke-width:3" />
<path d="M1230.22,47.15c2.59,1.55,6.85,6.59,9.03,9.6" style="fill:none;stroke:#999;stroke-width:3" />
<path d="M1241.62,18.9c1.22,0.38,3.46,0.49,4.68,0.38c7.79-0.66,34.69-3.82,42.23-3.38c2.03,0.12,3.26,0.18,4.28,0.37" style="fill:none;stroke:#999;stroke-width:3" />
<path d="M1245.5700000000002,29.26c0.29,0.34,0.59,0.62,0.71,1.05c1.01,3.37,2.71,12.68,3.4,18.74" style="fill:none;stroke:#999;stroke-width:3" />
<path d="M1247.38,31.78c7.11-1.25,35.57-3.8,39.23-4.22c1.34-0.15,2.14,1.56,1.95,2.47c-0.79,3.76-1.56,8.82-3.26,14.25" style="fill:none;stroke:#999;stroke-width:3" />
<path d="M1257.83,20.11c0.58,0.47,0.97,2.12,1.04,3.08c0.22,2.84,1.26,14.99,1.79,21.62" style="fill:none;stroke:#999;stroke-width:3" />
<path d="M1273.98,19.04c0.44,0.38,0.7,2.1,0.45,3.81c-0.68,4.64-0.93,12.89-1.8,21.32" style="fill:none;stroke:#999;stroke-width:3" />
<path d="M1249.98,45.82c4.3-0.48,30-1.95,35.46-2.43" style="fill:none;stroke:#999;stroke-width:3" />
<path d="M1247.51,61.8c2.54,2.06,6.69,8.92,7.38,10.98" style="fill:none;stroke:#999;stroke-width:3" />
<path d="M1287.51,54.69c0.49,1.31,0.2,2.45-0.5,3.51c-0.7,1.06-7.91,9.24-11.41,11.72" style="fill:none;stroke:black;stroke-width:3" />
<circle cx="1287.51" cy="54.69" r="5" stroke-width="0" fill="#FF2A00" opacity="0.7" />
<path d="M1320.28,36.72c0.35,0.24,2.39,0.41,3.31,0.31c3.94-0.41,15.12-1.21,21.45-2.41c0.92-0.17,2.15-0.24,2.73,0" style="fill:none;stroke:#999;stroke-width:3" />
<path d="M1335.3600000000001,15.5c0.91,0.47,2.04,2.25,2.04,4.42c0,0.95-0.12,69.75-0.3,75.58" style="fill:none;stroke:#999;stroke-width:3" />
<path d="M1336.94,38.78c-6.06,16.56-9.44,23.56-18.83,38.06" style="fill:none;stroke:#999;stroke-width:3" />
<path d="M1339.22,47.15c2.59,1.55,6.85,6.59,9.03,9.6" style="fill:none;stroke:#999;stroke-width:3" />
<path d="M1350.62,18.9c1.22,0.38,3.46,0.49,4.68,0.38c7.79-0.66,34.69-3.82,42.23-3.38c2.03,0.12,3.26,0.18,4.28,0.37" style="fill:none;stroke:#999;stroke-width:3" />
<path d="M1354.5700000000002,29.26c0.29,0.34,0.59,0.62,0.71,1.05c1.01,3.37,2.71,12.68,3.4,18.74" style="fill:none;stroke:#999;stroke-width:3" />
<path d="M1356.38,31.78c7.11-1.25,35.57-3.8,39.23-4.22c1.34-0.15,2.14,1.56,1.95,2.47c-0.79,3.76-1.56,8.82-3.26,14.25" style="fill:none;stroke:#999;stroke-width:3" />
<path d="M1366.83,20.11c0.58,0.47,0.97,2.12,1.04,3.08c0.22,2.84,1.26,14.99,1.79,21.62" style="fill:none;stroke:#999;stroke-width:3" />
<path d="M1382.98,19.04c0.44,0.38,0.7,2.1,0.45,3.81c-0.68,4.64-0.93,12.89-1.8,21.32" style="fill:none;stroke:#999;stroke-width:3" />
<path d="M1358.98,45.82c4.3-0.48,30-1.95,35.46-2.43" style="fill:none;stroke:#999;stroke-width:3" />
<path d="M1356.51,61.8c2.54,2.06,6.69,8.92,7.38,10.98" style="fill:none;stroke:#999;stroke-width:3" />
<path d="M1396.51,54.69c0.49,1.31,0.2,2.45-0.5,3.51c-0.7,1.06-7.91,9.24-11.41,11.72" style="fill:none;stroke:#999;stroke-width:3" />
<path d="M1375.3,52.25c0.86,0.43,1.04,1.57,1.04,2.28c0,25.47-11.59,34.72-22.84,41.72" style="fill:none;stroke:black;stroke-width:3" />
<circle cx="1375.3" cy="52.25" r="5" stroke-width="0" fill="#FF2A00" opacity="0.7" />
<path d="M1429.28,36.72c0.35,0.24,2.39,0.41,3.31,0.31c3.94-0.41,15.12-1.21,21.45-2.41c0.92-0.17,2.15-0.24,2.73,0" style="fill:none;stroke:#999;stroke-width:3" />
<path d="M1444.3600000000001,15.5c0.91,0.47,2.04,2.25,2.04,4.42c0,0.95-0.12,69.75-0.3,75.58" style="fill:none;stroke:#999;stroke-width:3" />
<path d="M1445.94,38.78c-6.06,16.56-9.44,23.56-18.83,38.06" style="fill:none;stroke:#999;stroke-width:3" />
<path d="M1448.22,47.15c2.59,1.55,6.85,6.59,9.03,9.6" style="fill:none;stroke:#999;stroke-width:3" />
<path d="M1459.62,18.9c1.22,0.38,3.46,0.49,4.68,0.38c7.79-0.66,34.69-3.82,42.23-3.38c2.03,0.12,3.26,0.18,4.28,0.37" style="fill:none;stroke:#999;stroke-width:3" />
<path d="M1463.5700000000002,29.26c0.29,0.34,0.59,0.62,0.71,1.05c1.01,3.37,2.71,12.68,3.4,18.74" style="fill:none;stroke:#999;stroke-width:3" />
<path d="M1465.38,31.78c7.11-1.25,35.57-3.8,39.23-4.22c1.34-0.15,2.14,1.56,1.95,2.47c-0.79,3.76-1.56,8.82-3.26,14.25" style="fill:none;stroke:#999;stroke-width:3" />
<path d="M1475.83,20.11c0.58,0.47,0.97,2.12,1.04,3.08c0.22,2.84,1.26,14.99,1.79,21.62" style="fill:none;stroke:#999;stroke-width:3" />
<path d="M1491.98,19.04c0.44,0.38,0.7,2.1,0.45,3.81c-0.68,4.64-0.93,12.89-1.8,21.32" style="fill:none;stroke:#999;stroke-width:3" />
<path d="M1467.98,45.82c4.3-0.48,30-1.95,35.46-2.43" style="fill:none;stroke:#999;stroke-width:3" />
<path d="M1465.51,61.8c2.54,2.06,6.69,8.92,7.38,10.98" style="fill:none;stroke:#999;stroke-width:3" />
<path d="M1505.51,54.69c0.49,1.31,0.2,2.45-0.5,3.51c-0.7,1.06-7.91,9.24-11.41,11.72" style="fill:none;stroke:#999;stroke-width:3" />
<path d="M1484.3,52.25c0.86,0.43,1.04,1.57,1.04,2.28c0,25.47-11.59,34.72-22.84,41.72" style="fill:none;stroke:#999;stroke-width:3" />
<path d="M1484.66,66.84c8.21,10.85,18.18,21.88,23.59,26.4c1.7,1.42,2.1,1.27,3.49,1.63" style="fill:none;stroke:black;stroke-width:3" />
<circle cx="1484.66" cy="66.84" r="5" stroke-width="0" fill="#FF2A00" opacity="0.7" />
</svg>