<!-- 06a3a -->
<svg width="1526px" height="109px" viewBox="0 0 1526px 109px" xmlns="http://www.w3.org/2000/svg" xmlns:xlink="http://www.w3.org/1999/xlink" xml:space="preserve" version="1.1"  baseProfile="full">
<line x1="1" y1="1" x2="1525" y2="1" style="stroke:#ddd;stroke-width:2" />
<line x1="1" y1="1" x2="1" y2="108" style="stroke:#ddd;stroke-width:2" />
<line x1="1" y1="108" x2="1525" y2="108" style="stroke:#ddd;stroke-width:2" />
<line x1="1525" y1="1" x2="1525" y2="108" style="stroke:#ddd;stroke-width:2" />
<line x1="109" y1="1" x2="109" y2="108" style="stroke:#ddd;stroke-width:2" />
<line x1="218" y1="1" x2="218" y2="108" style="stroke:#ddd;stroke-width:2" />
<line x1="327" y1="1" x2="327" y2="108" style="stroke:#ddd;stroke-width:2" />
<line x1="436" y1="1" x2="436" y2="108" style="stroke:#ddd;stroke-width:2" />
<line x1="545" y1="1" x2="545" y2="108" style="stroke:#ddd;stroke-width:2" />
<line x1="654" y1="1" x2="654" y2="108" style="stroke:#ddd;stroke-width:2" />
<line x1="763" y1="1" x2="763" y2="108" style="stroke:#ddd;stroke-width:2" />
<line x1="872" y1="1" x2="872" y2="108" style="stroke:#ddd;stroke-width:2" />
<line x1="981" y1="1" x2="981" y2="108" style="stroke:#ddd;stroke-width:2" />
<line x1="1090" y1="1" x2="1090" y2="108" style="stroke:#ddd;stroke-width:2" />
<line x1="1199" y1="1" x2="1199" y2="108" style="stroke:#ddd;stroke-width:2" />
<line x1="1308" y1="1" x2="1308" y2="108" style="stroke:#ddd;stroke-width:2" />
<line x1="1417" y1="1" x2="1417" y2="108" style="stroke:#ddd;stroke-width:2" />
<line x1="1" y1="54" x2="1525" y2="54" style="stroke:#ddd;stroke-width:2;stroke-dasharray:3 3" />
<line x1="55" y1="1" x2="55" y2="108" style="stroke:#ddd;stroke-width:2;stroke-dasharray:3 3" />
<line x1="164" y1="1" x2="164" y2="108" style="stroke:#ddd;stroke-width:2;stroke-dasharray:3 3" />
<line x1="273" y1="1" x2="273" y2="108" style="stroke:#ddd;stroke-width:2;stroke-dasharray:3 3" />
<line x1="382" y1="1" x2="382" y2="108" style="stroke:#ddd;stroke-width:2;stroke-dasharray:3 3" />
<line x1="491" y1="1" x2="491" y2="108" style="stroke:#ddd;stroke-width:2;stroke-dasharray:3 3" />
<line x1="600" y1="1" x2="600" y2="108" style="stroke:#ddd;stroke-width:2;stroke-dasharray:3 3" />
<line x1="709" y1="1" x2="709" y2="108" style="stroke:#ddd;stroke-width:2;stroke-dasharray:3 3" />
<line x1="818" y1="1" x2="818" y2="108" style="stroke:#ddd;stroke-width:2;stroke-dasharray:3 3" />
<line x1="927" y1="1" x2="927" y2="108" style="stroke:#ddd;stroke-width:2;stroke-dasharray:3 3" />
<line x1="1036" y1="1" x2="1036" y2="108" style="stroke:#ddd;stroke-width:2;stroke-dasharray:3 3" />
<line x1="1145" y1="1" x2="1145" y2="108" style="stroke:#ddd;stroke-width:2;stroke-dasharray:3 3" />
<line x1="1254" y1="1" x2="1254" y2="108" style="stroke:#ddd;stroke-width:2;stroke-dasharray:3 3" />
<line x1="1363" y1="1" x2="1363" y2="108" style="stroke:#ddd;stroke-width:2;stroke-dasharray:3 3" />
<line x1="1472" y1="1" x2="1472" y2="108" style="stroke:#ddd;stroke-width:2;stroke-dasharray:3 3" />
<path d="M12.53,37.97c1.85,0.41,4.47,0.39,5.84,0.24c4.71-0.52,12.65-1.22,17.91-2.07c1.24-0.2,3-0.78,4.24-0.27" style="fill:none;stroke:black;stroke-width:3" />
<circle cx="12.53" cy="37.97" r="5" stroke-width="0" fill="#FF2A00" opacity="0.7" />
<path d="M121.53,37.97c1.85,0.41,4.47,0.39,5.84,0.24c4.71-0.52,12.65-1.22,17.91-2.07c1.24-0.2,3-0.78,4.24-0.27" style="fill:none;stroke:#999;stroke-width:3" />
<path d="M137.61,15.75c1.07,1.07,1.29,2.62,1.29,4.42c0,0.79,0.04,50.08,0.04,67.08c0,4.1-0.06,6.5-0.06,8.25" style="fill:none;stroke:black;stroke-width:3" />
<circle cx="137.61" cy="15.75" r="5" stroke-width="0" fill="#FF2A00" opacity="0.7" />
<path d="M230.53,37.97c1.85,0.41,4.47,0.39,5.84,0.24c4.71-0.52,12.65-1.22,17.91-2.07c1.24-0.2,3-0.78,4.24-0.27" style="fill:none;stroke:#999;stroke-width:3" />
<path d="M246.61,15.75c1.07,1.07,1.29,2.62,1.29,4.42c0,0.79,0.04,50.08,0.04,67.08c0,4.1-0.06,6.5-0.06,8.25" style="fill:none;stroke:#999;stroke-width:3" />
<path d="M247.19,38.78c0,2.09-1.1,6.06-1.85,7.98c-4.43,11.42-8.59,19.61-15.47,29.11" style="fill:none;stroke:black;stroke-width:3" />
<circle cx="247.19" cy="38.78" r="5" stroke-width="0" fill="#FF2A00" opacity="0.7" />
<path d="M339.53,37.97c1.85,0.41,4.47,0.39,5.84,0.24c4.71-0.52,12.65-1.22,17.91-2.07c1.24-0.2,3-0.78,4.24-0.27" style="fill:none;stroke:#999;stroke-width:3" />
<path d="M355.61,15.75c1.07,1.07,1.29,2.62,1.29,4.42c0,0.79,0.04,50.08,0.04,67.08c0,4.1-0.06,6.5-0.06,8.25" style="fill:none;stroke:#999;stroke-width:3" />
<path d="M356.19,38.78c0,2.09-1.1,6.06-1.85,7.98c-4.43,11.42-8.59,19.61-15.47,29.11" style="fill:none;stroke:#999;stroke-width:3" />
<path d="M359.22,47.65c2.37,1.59,5.28,5.76,7.28,8.85" style="fill:none;stroke:black;stroke-width:3" />
<circle cx="359.22" cy="47.65" r="5" stroke-width="0" fill="#FF2A00" opacity="0.7" />
<path d="M448.53,37.97c1.85,0.41,4.47,0.39,5.84,0.24c4.71-0.52,12.65-1.22,17.91-2.07c1.24-0.2,3-0.78,4.24-0.27" style="fill:none;stroke:#999;stroke-width:3" />
<path d="M464.61,15.75c1.07,1.07,1.29,2.62,1.29,4.42c0,0.79,0.04,50.08,0.04,67.08c0,4.1-0.06,6.5-0.06,8.25" style="fill:none;stroke:#999;stroke-width:3" />
<path d="M465.19,38.78c0,2.09-1.1,6.06-1.85,7.98c-4.43,11.42-8.59,19.61-15.47,29.11" style="fill:none;stroke:#999;stroke-width:3" />
<path d="M468.22,47.65c2.37,1.59,5.28,5.76,7.28,8.85" style="fill:none;stroke:#999;stroke-width:3" />
<path d="M480.78,23.02c2.47,0.6,4.79,0.59,6.96,0.39c9-0.83,24.57-2.61,34.63-3.05c2.5-0.11,5.14-0.32,7.59,0.29" style="fill:none;stroke:black;stroke-width:3" />
<circle cx="480.78" cy="23.02" r="5" stroke-width="0" fill="#FF2A00" opacity="0.7" />
<path d="M557.53,37.97c1.85,0.41,4.47,0.39,5.84,0.24c4.71-0.52,12.65-1.22,17.91-2.07c1.24-0.2,3-0.78,4.24-0.27" style="fill:none;stroke:#999;stroke-width:3" />
<path d="M573.61,15.75c1.07,1.07,1.29,2.62,1.29,4.42c0,0.79,0.04,50.08,0.04,67.08c0,4.1-0.06,6.5-0.06,8.25" style="fill:none;stroke:#999;stroke-width:3" />
<path d="M574.19,38.78c0,2.09-1.1,6.06-1.85,7.98c-4.43,11.42-8.59,19.61-15.47,29.11" style="fill:none;stroke:#999;stroke-width:3" />
<path d="M577.22,47.65c2.37,1.59,5.28,5.76,7.28,8.85" style="fill:none;stroke:#999;stroke-width:3" />
<path d="M589.78,23.02c2.47,0.6,4.79,0.59,6.96,0.39c9-0.83,24.57-2.61,34.63-3.05c2.5-0.11,5.14-0.32,7.59,0.29" style="fill:none;stroke:#999;stroke-width:3" />
<path d="M600.73,12.38c1.01,1.08,1.58,2.41,1.68,3.07c1,6.21,1.62,11.61,1.9,13.87" style="fill:none;stroke:black;stroke-width:3" />
<circle cx="600.73" cy="12.38" r="5" stroke-width="0" fill="#FF2A00" opacity="0.7" />
<path d="M666.53,37.97c1.85,0.41,4.47,0.39,5.84,0.24c4.71-0.52,12.65-1.22,17.91-2.07c1.24-0.2,3-0.78,4.24-0.27" style="fill:none;stroke:#999;stroke-width:3" />
<path d="M682.61,15.75c1.07,1.07,1.29,2.62,1.29,4.42c0,0.79,0.04,50.08,0.04,67.08c0,4.1-0.06,6.5-0.06,8.25" style="fill:none;stroke:#999;stroke-width:3" />
<path d="M683.19,38.78c0,2.09-1.1,6.06-1.85,7.98c-4.43,11.42-8.59,19.61-15.47,29.11" style="fill:none;stroke:#999;stroke-width:3" />
<path d="M686.22,47.65c2.37,1.59,5.28,5.76,7.28,8.85" style="fill:none;stroke:#999;stroke-width:3" />
<path d="M698.78,23.02c2.47,0.6,4.79,0.59,6.96,0.39c9-0.83,24.57-2.61,34.63-3.05c2.5-0.11,5.14-0.32,7.59,0.29" style="fill:none;stroke:#999;stroke-width:3" />
<path d="M709.73,12.38c1.01,1.08,1.58,2.41,1.68,3.07c1,6.21,1.62,11.61,1.9,13.87" style="fill:none;stroke:#999;stroke-width:3" />
<path d="M733.11,10.88c0.47,1.05,0.3,2.24-0.02,3.57c-1.12,4.69-1.4,6.92-2.8,13.62" style="fill:none;stroke:black;stroke-width:3" />
<circle cx="733.11" cy="10.88" r="5" stroke-width="0" fill="#FF2A00" opacity="0.7" />
<path d="M775.53,37.97c1.85,0.41,4.47,0.39,5.84,0.24c4.71-0.52,12.65-1.22,17.91-2.07c1.24-0.2,3-0.78,4.24-0.27" style="fill:none;stroke:#999;stroke-width:3" />
<path d="M791.61,15.75c1.07,1.07,1.29,2.62,1.29,4.42c0,0.79,0.04,50.08,0.04,67.08c0,4.1-0.06,6.5-0.06,8.25" style="fill:none;stroke:#999;stroke-width:3" />
<path d="M792.19,38.78c0,2.09-1.1,6.06-1.85,7.98c-4.43,11.42-8.59,19.61-15.47,29.11" style="fill:none;stroke:#999;stroke-width:3" />
<path d="M795.22,47.65c2.37,1.59,5.28,5.76,7.28,8.85" style="fill:none;stroke:#999;stroke-width:3" />
<path d="M807.78,23.02c2.47,0.6,4.79,0.59,6.96,0.39c9-0.83,24.57-2.61,34.63-3.05c2.5-0.11,5.14-0.32,7.59,0.29" style="fill:none;stroke:#999;stroke-width:3" />
<path d="M818.73,12.38c1.01,1.08,1.58,2.41,1.68,3.07c1,6.21,1.62,11.61,1.9,13.87" style="fill:none;stroke:#999;stroke-width:3" />
<path d="M842.11,10.88c0.47,1.05,0.3,2.24-0.02,3.57c-1.12,4.69-1.4,6.92-2.8,13.62" style="fill:none;stroke:#999;stroke-width:3" />
<path d="M810.89,34.97c2.74,0.66,4.84,0.47,7.1,0.14c7.63-1.11,16.95-1.73,26.14-2.43c2.46-0.19,5.07-0.19,7.47,0.4" style="fill:none;stroke:black;stroke-width:3" />
<circle cx="810.89" cy="34.97" r="5" stroke-width="0" fill="#FF2A00" opacity="0.7" />
<path d="M884.53,37.97c1.85,0.41,4.47,0.39,5.84,0.24c4.71-0.52,12.65-1.22,17.91-2.07c1.24-0.2,3-0.78,4.24-0.27" style="fill:none;stroke:#999;stroke-width:3" />
<path d="M900.61,15.75c1.07,1.07,1.29,2.62,1.29,4.42c0,0.79,0.04,50.08,0.04,67.08c0,4.1-0.06,6.5-0.06,8.25" style="fill:none;stroke:#999;stroke-width:3" />
<path d="M901.19,38.78c0,2.09-1.1,6.06-1.85,7.98c-4.43,11.42-8.59,19.61-15.47,29.11" style="fill:none;stroke:#999;stroke-width:3" />
<path d="M904.22,47.65c2.37,1.59,5.28,5.76,7.28,8.85" style="fill:none;stroke:#999;stroke-width:3" />
<path d="M916.78,23.02c2.47,0.6,4.79,0.59,6.96,0.39c9-0.83,24.57-2.61,34.63-3.05c2.5-0.11,5.14-0.32,7.59,0.29" style="fill:none;stroke:#999;stroke-width:3" />
<path d="M927.73,12.38c1.01,1.08,1.58,2.41,1.68,3.07c1,6.21,1.62,11.61,1.9,13.87" style="fill:none;stroke:#999;stroke-width:3" />
<path d="M951.11,10.88c0.47,1.05,0.3,2.24-0.02,3.57c-1.12,4.69-1.4,6.92-2.8,13.62" style="fill:none;stroke:#999;stroke-width:3" />
<path d="M919.89,34.97c2.74,0.66,4.84,0.47,7.1,0.14c7.63-1.11,16.95-1.73,26.14-2.43c2.46-0.19,5.07-0.19,7.47,0.4" style="fill:none;stroke:#999;stroke-width:3" />
<path d="M914.09,51.76c2.75,0.98,5.85,0.55,8.67,0.28c14.2-1.36,24.74-2.42,40.86-2.97c2.62-0.09,5.21-0.03,7.79,0.52" style="fill:none;stroke:black;stroke-width:3" />
<circle cx="914.09" cy="51.76" r="5" stroke-width="0" fill="#FF2A00" opacity="0.7" />
<path d="M993.53,37.97c1.85,0.41,4.47,0.39,5.84,0.24c4.71-0.52,12.65-1.22,17.91-2.07c1.24-0.2,3-0.78,4.24-0.27" style="fill:none;stroke:#999;stroke-width:3" />
<path d="M1009.61,15.75c1.07,1.07,1.29,2.62,1.29,4.42c0,0.79,0.04,50.08,0.04,67.08c0,4.1-0.06,6.5-0.06,8.25" style="fill:none;stroke:#999;stroke-width:3" />
<path d="M1010.19,38.78c0,2.09-1.1,6.06-1.85,7.98c-4.43,11.42-8.59,19.61-15.47,29.11" style="fill:none;stroke:#999;stroke-width:3" />
<path d="M1013.22,47.65c2.37,1.59,5.28,5.76,7.28,8.85" style="fill:none;stroke:#999;stroke-width:3" />
<path d="M1025.78,23.02c2.47,0.6,4.79,0.59,6.96,0.39c9-0.83,24.57-2.61,34.63-3.05c2.5-0.11,5.14-0.32,7.59,0.29" style="fill:none;stroke:#999;stroke-width:3" />
<path d="M1036.73,12.38c1.01,1.08,1.58,2.41,1.68,3.07c1,6.21,1.62,11.61,1.9,13.87" style="fill:none;stroke:#999;stroke-width:3" />
<path d="M1060.1100000000001,10.88c0.47,1.05,0.3,2.24-0.02,3.57c-1.12,4.69-1.4,6.92-2.8,13.62" style="fill:none;stroke:#999;stroke-width:3" />
<path d="M1028.8899999999999,34.97c2.74,0.66,4.84,0.47,7.1,0.14c7.63-1.11,16.95-1.73,26.14-2.43c2.46-0.19,5.07-0.19,7.47,0.4" style="fill:none;stroke:#999;stroke-width:3" />
<path d="M1023.09,51.76c2.75,0.98,5.85,0.55,8.67,0.28c14.2-1.36,24.74-2.42,40.86-2.97c2.62-0.09,5.21-0.03,7.79,0.52" style="fill:none;stroke:#999;stroke-width:3" />
<path d="M1033.4,42.53c0.85,0.97,1.59,2.31,1.7,3.06c1.15,7.66,1.52,11.04,2.32,15.51" style="fill:none;stroke:black;stroke-width:3" />
<circle cx="1033.4" cy="42.53" r="5" stroke-width="0" fill="#FF2A00" opacity="0.7" />
<path d="M1102.53,37.97c1.85,0.41,4.47,0.39,5.84,0.24c4.71-0.52,12.65-1.22,17.91-2.07c1.24-0.2,3-0.78,4.24-0.27" style="fill:none;stroke:#999;stroke-width:3" />
<path d="M1118.6100000000001,15.75c1.07,1.07,1.29,2.62,1.29,4.42c0,0.79,0.04,50.08,0.04,67.08c0,4.1-0.06,6.5-0.06,8.25" style="fill:none;stroke:#999;stroke-width:3" />
<path d="M1119.19,38.78c0,2.09-1.1,6.06-1.85,7.98c-4.43,11.42-8.59,19.61-15.47,29.11" style="fill:none;stroke:#999;stroke-width:3" />
<path d="M1122.22,47.65c2.37,1.59,5.28,5.76,7.28,8.85" style="fill:none;stroke:#999;stroke-width:3" />
<path d="M1134.78,23.02c2.47,0.6,4.79,0.59,6.96,0.39c9-0.83,24.57-2.61,34.63-3.05c2.5-0.11,5.14-0.32,7.59,0.29" style="fill:none;stroke:#999;stroke-width:3" />
<path d="M1145.73,12.38c1.01,1.08,1.58,2.41,1.68,3.07c1,6.21,1.62,11.61,1.9,13.87" style="fill:none;stroke:#999;stroke-width:3" />
<path d="M1169.1100000000001,10.88c0.47,1.05,0.3,2.24-0.02,3.57c-1.12,4.69-1.4,6.92-2.8,13.62" style="fill:none;stroke:#999;stroke-width:3" />
<path d="M1137.8899999999999,34.97c2.74,0.66,4.84,0.47,7.1,0.14c7.63-1.11,16.95-1.73,26.14-2.43c2.46-0.19,5.07-0.19,7.47,0.4" style="fill:none;stroke:#999;stroke-width:3" />
<path d="M1132.0900000000001,51.76c2.75,0.98,5.85,0.55,8.67,0.28c14.2-1.36,24.74-2.42,40.86-2.97c2.62-0.09,5.21-0.03,7.79,0.52" style="fill:none;stroke:#999;stroke-width:3" />
<path d="M1142.4,42.53c0.85,0.97,1.59,2.31,1.7,3.06c1.15,7.66,1.52,11.04,2.32,15.51" style="fill:none;stroke:#999;stroke-width:3" />
<path d="M1174.94,38.76c0.55,1.09,0.52,2.54,0.25,3.95c-1.09,5.79-1.64,9.68-3.28,16.62" style="fill:none;stroke:black;stroke-width:3" />
<circle cx="1174.94" cy="38.76" r="5" stroke-width="0" fill="#FF2A00" opacity="0.7" />
<path d="M1211.53,37.97c1.85,0.41,4.47,0.39,5.84,0.24c4.71-0.52,12.65-1.22,17.91-2.07c1.24-0.2,3-0.78,4.24-0.27" style="fill:none;stroke:#999;stroke-width:3" />
<path d="M1227.6100000000001,15.75c1.07,1.07,1.29,2.62,1.29,4.42c0,0.79,0.04,50.08,0.04,67.08c0,4.1-0.06,6.5-0.06,8.25" style="fill:none;stroke:#999;stroke-width:3" />
<path d="M1228.19,38.78c0,2.09-1.1,6.06-1.85,7.98c-4.43,11.42-8.59,19.61-15.47,29.11" style="fill:none;stroke:#999;stroke-width:3" />
<path d="M1231.22,47.65c2.37,1.59,5.28,5.76,7.28,8.85" style="fill:none;stroke:#999;stroke-width:3" />
<path d="M1243.78,23.02c2.47,0.6,4.79,0.59,6.96,0.39c9-0.83,24.57-2.61,34.63-3.05c2.5-0.11,5.14-0.32,7.59,0.29" style="fill:none;stroke:#999;stroke-width:3" />
<path d="M1254.73,12.38c1.01,1.08,1.58,2.41,1.68,3.07c1,6.21,1.62,11.61,1.9,13.87" style="fill:none;stroke:#999;stroke-width:3" />
<path d="M1278.1100000000001,10.88c0.47,1.05,0.3,2.24-0.02,3.57c-1.12,4.69-1.4,6.92-2.8,13.62" style="fill:none;stroke:#999;stroke-width:3" />
<path d="M1246.8899999999999,34.97c2.74,0.66,4.84,0.47,7.1,0.14c7.63-1.11,16.95-1.73,26.14-2.43c2.46-0.19,5.07-0.19,7.47,0.4" style="fill:none;stroke:#999;stroke-width:3" />
<path d="M1241.0900000000001,51.76c2.75,0.98,5.85,0.55,8.67,0.28c14.2-1.36,24.74-2.42,40.86-2.97c2.62-0.09,5.21-0.03,7.79,0.52" style="fill:none;stroke:#999;stroke-width:3" />
<path d="M1251.4,42.53c0.85,0.97,1.59,2.31,1.7,3.06c1.15,7.66,1.52,11.04,2.32,15.51" style="fill:none;stroke:#999;stroke-width:3" />
<path d="M1283.94,38.76c0.55,1.09,0.52,2.54,0.25,3.95c-1.09,5.79-1.64,9.68-3.28,16.62" style="fill:none;stroke:#999;stroke-width:3" />
<path d="M1247.9,66.83c2.6,0.67,4.64,0.58,6.85,0.38c8.04-0.74,19.49-1.87,26.38-2.13c2.17-0.08,4.35,0.1,6.47,0.62" style="fill:none;stroke:black;stroke-width:3" />
<circle cx="1247.9" cy="66.83" r="5" stroke-width="0" fill="#FF2A00" opacity="0.7" />
<path d="M1320.53,37.97c1.85,0.41,4.47,0.39,5.84,0.24c4.71-0.52,12.65-1.22,17.91-2.07c1.24-0.2,3-0.78,4.24-0.27" style="fill:none;stroke:#999;stroke-width:3" />
<path d="M1336.6100000000001,15.75c1.07,1.07,1.29,2.62,1.29,4.42c0,0.79,0.04,50.08,0.04,67.08c0,4.1-0.06,6.5-0.06,8.25" style="fill:none;stroke:#999;stroke-width:3" />
<path d="M1337.19,38.78c0,2.09-1.1,6.06-1.85,7.98c-4.43,11.42-8.59,19.61-15.47,29.11" style="fill:none;stroke:#999;stroke-width:3" />
<path d="M1340.22,47.65c2.37,1.59,5.28,5.76,7.28,8.85" style="fill:none;stroke:#999;stroke-width:3" />
<path d="M1352.78,23.02c2.47,0.6,4.79,0.59,6.96,0.39c9-0.83,24.57-2.61,34.63-3.05c2.5-0.11,5.14-0.32,7.59,0.29" style="fill:none;stroke:#999;stroke-width:3" />
<path d="M1363.73,12.38c1.01,1.08,1.58,2.41,1.68,3.07c1,6.21,1.62,11.61,1.9,13.87" style="fill:none;stroke:#999;stroke-width:3" />
<path d="M1387.1100000000001,10.88c0.47,1.05,0.3,2.24-0.02,3.57c-1.12,4.69-1.4,6.92-2.8,13.62" style="fill:none;stroke:#999;stroke-width:3" />
<path d="M1355.8899999999999,34.97c2.74,0.66,4.84,0.47,7.1,0.14c7.63-1.11,16.95-1.73,26.14-2.43c2.46-0.19,5.07-0.19,7.47,0.4" style="fill:none;stroke:#999;stroke-width:3" />
<path d="M1350.0900000000001,51.76c2.75,0.98,5.85,0.55,8.67,0.28c14.2-1.36,24.74-2.42,40.86-2.97c2.62-0.09,5.21-0.03,7.79,0.52" style="fill:none;stroke:#999;stroke-width:3" />
<path d="M1360.4,42.53c0.85,0.97,1.59,2.31,1.7,3.06c1.15,7.66,1.52,11.04,2.32,15.51" style="fill:none;stroke:#999;stroke-width:3" />
<path d="M1392.94,38.76c0.55,1.09,0.52,2.54,0.25,3.95c-1.09,5.79-1.64,9.68-3.28,16.62" style="fill:none;stroke:#999;stroke-width:3" />
<path d="M1356.9,66.83c2.6,0.67,4.64,0.58,6.85,0.38c8.04-0.74,19.49-1.87,26.38-2.13c2.17-0.08,4.35,0.1,6.47,0.62" style="fill:none;stroke:#999;stroke-width:3" />
<path d="M1353.0,79.14c2.23,0.74,4.59,0.73,6.87,0.49c9.38-1,22.75-2,35.63-2.36c2.65-0.07,5.13-0.04,7.75,0.48" style="fill:none;stroke:black;stroke-width:3" />
<circle cx="1353.0" cy="79.14" r="5" stroke-width="0" fill="#FF2A00" opacity="0.7" />
<path d="M1429.53,37.97c1.85,0.41,4.47,0.39,5.84,0.24c4.71-0.52,12.65-1.22,17.91-2.07c1.24-0.2,3-0.78,4.24-0.27" style="fill:none;stroke:#999;stroke-width:3" />
<path d="M1445.6100000000001,15.75c1.07,1.07,1.29,2.62,1.29,4.42c0,0.79,0.04,50.08,0.04,67.08c0,4.1-0.06,6.5-0.06,8.25" style="fill:none;stroke:#999;stroke-width:3" />
<path d="M1446.19,38.78c0,2.09-1.1,6.06-1.85,7.98c-4.43,11.42-8.59,19.61-15.47,29.11" style="fill:none;stroke:#999;stroke-width:3" />
<path d="M1449.22,47.65c2.37,1.59,5.28,5.76,7.28,8.85" style="fill:none;stroke:#999;stroke-width:3" />
<path d="M1461.78,23.02c2.47,0.6,4.79,0.59,6.96,0.39c9-0.83,24.57-2.61,34.63-3.05c2.5-0.11,5.14-0.32,7.59,0.29" style="fill:none;stroke:#999;stroke-width:3" />
<path d="M1472.73,12.38c1.01,1.08,1.58,2.41,1.68,3.07c1,6.21,1.62,11.61,1.9,13.87" style="fill:none;stroke:#999;stroke-width:3" />
<path d="M1496.1100000000001,10.88c0.47,1.05,0.3,2.24-0.02,3.57c-1.12,4.69-1.4,6.92-2.8,13.62" style="fill:none;stroke:#999;stroke-width:3" />
<path d="M1464.8899999999999,34.97c2.74,0.66,4.84,0.47,7.1,0.14c7.63-1.11,16.95-1.73,26.14-2.43c2.46-0.19,5.07-0.19,7.47,0.4" style="fill:none;stroke:#999;stroke-width:3" />
<path d="M1459.0900000000001,51.76c2.75,0.98,5.85,0.55,8.67,0.28c14.2-1.36,24.74-2.42,40.86-2.97c2.62-0.09,5.21-0.03,7.79,0.52" style="fill:none;stroke:#999;stroke-width:3" />
<path d="M1469.4,42.53c0.85,0.97,1.59,2.31,1.7,3.06c1.15,7.66,1.52,11.04,2.32,15.51" style="fill:none;stroke:#999;stroke-width:3" />
<path d="M1501.94,38.76c0.55,1.09,0.52,2.54,0.25,3.95c-1.09,5.79-1.64,9.68-3.28,16.62" style="fill:none;stroke:#999;stroke-width:3" />
<path d="M1465.9,66.83c2.6,0.67,4.64,0.58,6.85,0.38c8.04-0.74,19.49-1.87,26.38-2.13c2.17-0.08,4.35,0.1,6.47,0.62" style="fill:none;stroke:#999;stroke-width:3" />
<path d="M1462.0,79.14c2.23,0.74,4.59,0.73,6.87,0.49c9.38-1,22.75-2,35.63-2.36c2.65-0.07,5.13-0.04,7.75,0.48" style="fill:none;stroke:#999;stroke-width:3" />
<path d="M1484.11,36.76c1,1,1.22,2.49,1.22,4.01c0,0.66,0.04,34.15,0.04,49.48c0,4.36,0,7.25-0.01,7.5" style="fill:none;stroke:black;stroke-width:3" />
<circle cx="1484.11" cy="36.76" r="5" stroke-width="0" fill="#FF2A00" opacity="0.7" />
</svg>