<!-- 06a7f -->
<svg width="1853px" height="109px" viewBox="0 0 1853px 109px" xmlns="http://www.w3.org/2000/svg" xmlns:xlink="http://www.w3.org/1999/xlink" xml:space="preserve" version="1.1"  baseProfile="full">
<line x1="1" y1="1" x2="1852" y2="1" style="stroke:#ddd;stroke-width:2" />
<line x1="1" y1="1" x2="1" y2="108" style="stroke:#ddd;stroke-width:2" />
<line x1="1" y1="108" x2="1852" y2="108" style="stroke:#ddd;stroke-width:2" />
<line x1="1852" y1="1" x2="1852" y2="108" style="stroke:#ddd;stroke-width:2" />
<line x1="109" y1="1" x2="109" y2="108" style="stroke:#ddd;stroke-width:2" />
<line x1="218" y1="1" x2="218" y2="108" style="stroke:#ddd;stroke-width:2" />
<line x1="327" y1="1" x2="327" y2="108" style="stroke:#ddd;stroke-width:2" />
<line x1="436" y1="1" x2="436" y2="108" style="stroke:#ddd;stroke-width:2" />
<line x1="545" y1="1" x2="545" y2="108" style="stroke:#ddd;stroke-width:2" />
<line x1="654" y1="1" x2="654" y2="108" style="stroke:#ddd;stroke-width:2" />
<line x1="763" y1="1" x2="763" y2="108" style="stroke:#ddd;stroke-width:2" />
<line x1="872" y1="1" x2="872" y2="108" style="stroke:#ddd;stroke-width:2" />
<line x1="981" y1="1" x2="981" y2="108" style="stroke:#ddd;stroke-width:2" />
<line x1="1090" y1="1" x2="1090" y2="108" style="stroke:#ddd;stroke-width:2" />
<line x1="1199" y1="1" x2="1199" y2="108" style="stroke:#ddd;stroke-width:2" />
<line x1="1308" y1="1" x2="1308" y2="108" style="stroke:#ddd;stroke-width:2" />
<line x1="1417" y1="1" x2="1417" y2="108" style="stroke:#ddd;stroke-width:2" />
<line x1="1526" y1="1" x2="1526" y2="108" style="stroke:#ddd;stroke-width:2" />
<line x1="1635" y1="1" x2="1635" y2="108" style="stroke:#ddd;stroke-width:2" />
<line x1="1744" y1="1" x2="1744" y2="108" style="stroke:#ddd;stroke-width:2" />
<line x1="1" y1="54" x2="1852" y2="54" style="stroke:#ddd;stroke-width:2;stroke-dasharray:3 3" />
<line x1="55" y1="1" x2="55" y2="108" style="stroke:#ddd;stroke-width:2;stroke-dasharray:3 3" />
<line x1="164" y1="1" x2="164" y2="108" style="stroke:#ddd;stroke-width:2;stroke-dasharray:3 3" />
<line x1="273" y1="1" x2="273" y2="108" style="stroke:#ddd;stroke-width:2;stroke-dasharray:3 3" />
<line x1="382" y1="1" x2="382" y2="108" style="stroke:#ddd;stroke-width:2;stroke-dasharray:3 3" />
<line x1="491" y1="1" x2="491" y2="108" style="stroke:#ddd;stroke-width:2;stroke-dasharray:3 3" />
<line x1="600" y1="1" x2="600" y2="108" style="stroke:#ddd;stroke-width:2;stroke-dasharray:3 3" />
<line x1="709" y1="1" x2="709" y2="108" style="stroke:#ddd;stroke-width:2;stroke-dasharray:3 3" />
<line x1="818" y1="1" x2="818" y2="108" style="stroke:#ddd;stroke-width:2;stroke-dasharray:3 3" />
<line x1="927" y1="1" x2="927" y2="108" style="stroke:#ddd;stroke-width:2;stroke-dasharray:3 3" />
<line x1="1036" y1="1" x2="1036" y2="108" style="stroke:#ddd;stroke-width:2;stroke-dasharray:3 3" />
<line x1="1145" y1="1" x2="1145" y2="108" style="stroke:#ddd;stroke-width:2;stroke-dasharray:3 3" />
<line x1="1254" y1="1" x2="1254" y2="108" style="stroke:#ddd;stroke-width:2;stroke-dasharray:3 3" />
<line x1="1363" y1="1" x2="1363" y2="108" style="stroke:#ddd;stroke-width:2;stroke-dasharray:3 3" />
<line x1="1472" y1="1" x2="1472" y2="108" style="stroke:#ddd;stroke-width:2;stroke-dasharray:3 3" />
<line x1="1581" y1="1" x2="1581" y2="108" style="stroke:#ddd;stroke-width:2;stroke-dasharray:3 3" />
<line x1="1690" y1="1" x2="1690" y2="108" style="stroke:#ddd;stroke-width:2;stroke-dasharray:3 3" />
<line x1="1799" y1="1" x2="1799" y2="108" style="stroke:#ddd;stroke-width:2;stroke-dasharray:3 3" />
<path d="M11.03,38.11c2.02,0.42,4.06,0.55,6.11,0.4c4.74-0.54,12.78-1.89,18.25-2.63c1.45-0.29,2.91-0.4,4.37-0.33" style="fill:none;stroke:black;stroke-width:3" />
<circle cx="11.03" cy="38.11" r="5" stroke-width="0" fill="#FF2A00" opacity="0.7" />
<path d="M120.03,38.11c2.02,0.42,4.06,0.55,6.11,0.4c4.74-0.54,12.78-1.89,18.25-2.63c1.45-0.29,2.91-0.4,4.37-0.33" style="fill:none;stroke:#999;stroke-width:3" />
<path d="M136.61,15.5c1.07,1.07,1.54,2.75,1.54,4.92c0,1.59-0.04,46.38-0.05,66.08c0,4.18,0,7.23,0,8.5" style="fill:none;stroke:black;stroke-width:3" />
<circle cx="136.61" cy="15.5" r="5" stroke-width="0" fill="#FF2A00" opacity="0.7" />
<path d="M229.03,38.11c2.02,0.42,4.06,0.55,6.11,0.4c4.74-0.54,12.78-1.89,18.25-2.63c1.45-0.29,2.91-0.4,4.37-0.33" style="fill:none;stroke:#999;stroke-width:3" />
<path d="M245.61,15.5c1.07,1.07,1.54,2.75,1.54,4.92c0,1.59-0.04,46.38-0.05,66.08c0,4.18,0,7.23,0,8.5" style="fill:none;stroke:#999;stroke-width:3" />
<path d="M246.69,37.53c0,2.84-1.4,7.26-2.22,9.25C239.5,58.75 235.88,65.5 228.36,75.84" style="fill:none;stroke:black;stroke-width:3" />
<circle cx="246.69" cy="37.53" r="5" stroke-width="0" fill="#FF2A00" opacity="0.7" />
<path d="M338.03,38.11c2.02,0.42,4.06,0.55,6.11,0.4c4.74-0.54,12.78-1.89,18.25-2.63c1.45-0.29,2.91-0.4,4.37-0.33" style="fill:none;stroke:#999;stroke-width:3" />
<path d="M354.61,15.5c1.07,1.07,1.54,2.75,1.54,4.92c0,1.59-0.04,46.38-0.05,66.08c0,4.18,0,7.23,0,8.5" style="fill:none;stroke:#999;stroke-width:3" />
<path d="M355.69,37.53c0,2.84-1.4,7.26-2.22,9.25C348.5,58.75 344.88,65.5 337.36,75.84" style="fill:none;stroke:#999;stroke-width:3" />
<path d="M359.22,49.65c2.68,1.59,6.28,6.6,7.91,9.89" style="fill:none;stroke:black;stroke-width:3" />
<circle cx="359.22" cy="49.65" r="5" stroke-width="0" fill="#FF2A00" opacity="0.7" />
<path d="M447.03,38.11c2.02,0.42,4.06,0.55,6.11,0.4c4.74-0.54,12.78-1.89,18.25-2.63c1.45-0.29,2.91-0.4,4.37-0.33" style="fill:none;stroke:#999;stroke-width:3" />
<path d="M463.61,15.5c1.07,1.07,1.54,2.75,1.54,4.92c0,1.59-0.04,46.38-0.05,66.08c0,4.18,0,7.23,0,8.5" style="fill:none;stroke:#999;stroke-width:3" />
<path d="M464.69,37.53c0,2.84-1.4,7.26-2.22,9.25C457.5,58.75 453.88,65.5 446.36,75.84" style="fill:none;stroke:#999;stroke-width:3" />
<path d="M468.22,49.65c2.68,1.59,6.28,6.6,7.91,9.89" style="fill:none;stroke:#999;stroke-width:3" />
<path d="M482.75,20.48c2.75,0.39,5.5,0.34,8.25-0.14c8.78-0.83,22.08-2.63,30.26-3.15c2.42-0.29,4.83-0.27,7.24,0.08" style="fill:none;stroke:black;stroke-width:3" />
<circle cx="482.75" cy="20.48" r="5" stroke-width="0" fill="#FF2A00" opacity="0.7" />
<path d="M556.03,38.11c2.02,0.42,4.06,0.55,6.11,0.4c4.74-0.54,12.78-1.89,18.25-2.63c1.45-0.29,2.91-0.4,4.37-0.33" style="fill:none;stroke:#999;stroke-width:3" />
<path d="M572.61,15.5c1.07,1.07,1.54,2.75,1.54,4.92c0,1.59-0.04,46.38-0.05,66.08c0,4.18,0,7.23,0,8.5" style="fill:none;stroke:#999;stroke-width:3" />
<path d="M573.69,37.53c0,2.84-1.4,7.26-2.22,9.25C566.5,58.75 562.88,65.5 555.36,75.84" style="fill:none;stroke:#999;stroke-width:3" />
<path d="M577.22,49.65c2.68,1.59,6.28,6.6,7.91,9.89" style="fill:none;stroke:#999;stroke-width:3" />
<path d="M591.75,20.48c2.75,0.39,5.5,0.34,8.25-0.14c8.78-0.83,22.08-2.63,30.26-3.15c2.42-0.29,4.83-0.27,7.24,0.08" style="fill:none;stroke:#999;stroke-width:3" />
<path d="M594.31,27.85c0.8,0.8,1.43,1.89,1.55,2.65c0.9,5.6,1.47,9.25,1.97,12.99c0.2,1.52,0.4,3.05,0.6,4.74" style="fill:none;stroke:black;stroke-width:3" />
<circle cx="594.31" cy="27.85" r="5" stroke-width="0" fill="#FF2A00" opacity="0.7" />
<path d="M665.03,38.11c2.02,0.42,4.06,0.55,6.11,0.4c4.74-0.54,12.78-1.89,18.25-2.63c1.45-0.29,2.91-0.4,4.37-0.33" style="fill:none;stroke:#999;stroke-width:3" />
<path d="M681.61,15.5c1.07,1.07,1.54,2.75,1.54,4.92c0,1.59-0.04,46.38-0.05,66.08c0,4.18,0,7.23,0,8.5" style="fill:none;stroke:#999;stroke-width:3" />
<path d="M682.69,37.53c0,2.84-1.4,7.26-2.22,9.25C675.5,58.75 671.88,65.5 664.36,75.84" style="fill:none;stroke:#999;stroke-width:3" />
<path d="M686.22,49.65c2.68,1.59,6.28,6.6,7.91,9.89" style="fill:none;stroke:#999;stroke-width:3" />
<path d="M700.75,20.48c2.75,0.39,5.5,0.34,8.25-0.14c8.78-0.83,22.08-2.63,30.26-3.15c2.42-0.29,4.83-0.27,7.24,0.08" style="fill:none;stroke:#999;stroke-width:3" />
<path d="M703.31,27.85c0.8,0.8,1.43,1.89,1.55,2.65c0.9,5.6,1.47,9.25,1.97,12.99c0.2,1.52,0.4,3.05,0.6,4.74" style="fill:none;stroke:#999;stroke-width:3" />
<path d="M705.11,29.05c11.2-1.22,25.52-2.71,31.99-3.4c2.44-0.26,5.37,1.12,5.15,3.86c-0.23,2.93-1.38,7.76-2.16,12.08c-0.29,1.59-0.53,3.12-0.65,4.45" style="fill:none;stroke:black;stroke-width:3" />
<circle cx="705.11" cy="29.05" r="5" stroke-width="0" fill="#FF2A00" opacity="0.7" />
<path d="M774.03,38.11c2.02,0.42,4.06,0.55,6.11,0.4c4.74-0.54,12.78-1.89,18.25-2.63c1.45-0.29,2.91-0.4,4.37-0.33" style="fill:none;stroke:#999;stroke-width:3" />
<path d="M790.61,15.5c1.07,1.07,1.54,2.75,1.54,4.92c0,1.59-0.04,46.38-0.05,66.08c0,4.18,0,7.23,0,8.5" style="fill:none;stroke:#999;stroke-width:3" />
<path d="M791.69,37.53c0,2.84-1.4,7.26-2.22,9.25C784.5,58.75 780.88,65.5 773.36,75.84" style="fill:none;stroke:#999;stroke-width:3" />
<path d="M795.22,49.65c2.68,1.59,6.28,6.6,7.91,9.89" style="fill:none;stroke:#999;stroke-width:3" />
<path d="M809.75,20.48c2.75,0.39,5.5,0.34,8.25-0.14c8.78-0.83,22.08-2.63,30.26-3.15c2.42-0.29,4.83-0.27,7.24,0.08" style="fill:none;stroke:#999;stroke-width:3" />
<path d="M812.31,27.85c0.8,0.8,1.43,1.89,1.55,2.65c0.9,5.6,1.47,9.25,1.97,12.99c0.2,1.52,0.4,3.05,0.6,4.74" style="fill:none;stroke:#999;stroke-width:3" />
<path d="M814.11,29.05c11.2-1.22,25.52-2.71,31.99-3.4c2.44-0.26,5.37,1.12,5.15,3.86c-0.23,2.93-1.38,7.76-2.16,12.08c-0.29,1.59-0.53,3.12-0.65,4.45" style="fill:none;stroke:#999;stroke-width:3" />
<path d="M830.95,28.88c0.84,0.84,0.97,1.75,0.97,2.87c0,4.09,0.03,10.63,0.03,13.06" style="fill:none;stroke:black;stroke-width:3" />
<circle cx="830.95" cy="28.88" r="5" stroke-width="0" fill="#FF2A00" opacity="0.7" />
<path d="M883.03,38.11c2.02,0.42,4.06,0.55,6.11,0.4c4.74-0.54,12.78-1.89,18.25-2.63c1.45-0.29,2.91-0.4,4.37-0.33" style="fill:none;stroke:#999;stroke-width:3" />
<path d="M899.61,15.5c1.07,1.07,1.54,2.75,1.54,4.92c0,1.59-0.04,46.38-0.05,66.08c0,4.18,0,7.23,0,8.5" style="fill:none;stroke:#999;stroke-width:3" />
<path d="M900.69,37.53c0,2.84-1.4,7.26-2.22,9.25C893.5,58.75 889.88,65.5 882.36,75.84" style="fill:none;stroke:#999;stroke-width:3" />
<path d="M904.22,49.65c2.68,1.59,6.28,6.6,7.91,9.89" style="fill:none;stroke:#999;stroke-width:3" />
<path d="M918.75,20.48c2.75,0.39,5.5,0.34,8.25-0.14c8.78-0.83,22.08-2.63,30.26-3.15c2.42-0.29,4.83-0.27,7.24,0.08" style="fill:none;stroke:#999;stroke-width:3" />
<path d="M921.31,27.85c0.8,0.8,1.43,1.89,1.55,2.65c0.9,5.6,1.47,9.25,1.97,12.99c0.2,1.52,0.4,3.05,0.6,4.74" style="fill:none;stroke:#999;stroke-width:3" />
<path d="M923.11,29.05c11.2-1.22,25.52-2.71,31.99-3.4c2.44-0.26,5.37,1.12,5.15,3.86c-0.23,2.93-1.38,7.76-2.16,12.08c-0.29,1.59-0.53,3.12-0.65,4.45" style="fill:none;stroke:#999;stroke-width:3" />
<path d="M939.95,28.88c0.84,0.84,0.97,1.75,0.97,2.87c0,4.09,0.03,10.63,0.03,13.06" style="fill:none;stroke:#999;stroke-width:3" />
<path d="M924.92,37.5c7.96-0.75,21.21-2.25,33.49-2.68" style="fill:none;stroke:black;stroke-width:3" />
<circle cx="924.92" cy="37.5" r="5" stroke-width="0" fill="#FF2A00" opacity="0.7" />
<path d="M992.03,38.11c2.02,0.42,4.06,0.55,6.11,0.4c4.74-0.54,12.78-1.89,18.25-2.63c1.45-0.29,2.91-0.4,4.37-0.33" style="fill:none;stroke:#999;stroke-width:3" />
<path d="M1008.61,15.5c1.07,1.07,1.54,2.75,1.54,4.92c0,1.59-0.04,46.38-0.05,66.08c0,4.18,0,7.23,0,8.5" style="fill:none;stroke:#999;stroke-width:3" />
<path d="M1009.69,37.53c0,2.84-1.4,7.26-2.22,9.25C1002.5,58.75 998.88,65.5 991.36,75.84" style="fill:none;stroke:#999;stroke-width:3" />
<path d="M1013.22,49.65c2.68,1.59,6.28,6.6,7.91,9.89" style="fill:none;stroke:#999;stroke-width:3" />
<path d="M1027.75,20.48c2.75,0.39,5.5,0.34,8.25-0.14c8.78-0.83,22.08-2.63,30.26-3.15c2.42-0.29,4.83-0.27,7.24,0.08" style="fill:none;stroke:#999;stroke-width:3" />
<path d="M1030.31,27.85c0.8,0.8,1.43,1.89,1.55,2.65c0.9,5.6,1.47,9.25,1.97,12.99c0.2,1.52,0.4,3.05,0.6,4.74" style="fill:none;stroke:#999;stroke-width:3" />
<path d="M1032.1100000000001,29.05c11.2-1.22,25.52-2.71,31.99-3.4c2.44-0.26,5.37,1.12,5.15,3.86c-0.23,2.93-1.38,7.76-2.16,12.08c-0.29,1.59-0.53,3.12-0.65,4.45" style="fill:none;stroke:#999;stroke-width:3" />
<path d="M1048.95,28.88c0.84,0.84,0.97,1.75,0.97,2.87c0,4.09,0.03,10.63,0.03,13.06" style="fill:none;stroke:#999;stroke-width:3" />
<path d="M1033.92,37.5c7.96-0.75,21.21-2.25,33.49-2.68" style="fill:none;stroke:#999;stroke-width:3" />
<path d="M1035.18,46.78c8.32-0.9,18.94-1.65,30.09-2.3" style="fill:none;stroke:black;stroke-width:3" />
<circle cx="1035.18" cy="46.78" r="5" stroke-width="0" fill="#FF2A00" opacity="0.7" />
<path d="M1101.03,38.11c2.02,0.42,4.06,0.55,6.11,0.4c4.74-0.54,12.78-1.89,18.25-2.63c1.45-0.29,2.91-0.4,4.37-0.33" style="fill:none;stroke:#999;stroke-width:3" />
<path d="M1117.6100000000001,15.5c1.07,1.07,1.54,2.75,1.54,4.92c0,1.59-0.04,46.38-0.05,66.08c0,4.18,0,7.23,0,8.5" style="fill:none;stroke:#999;stroke-width:3" />
<path d="M1118.69,37.53c0,2.84-1.4,7.26-2.22,9.25C1111.5,58.75 1107.88,65.5 1100.3600000000001,75.84" style="fill:none;stroke:#999;stroke-width:3" />
<path d="M1122.22,49.65c2.68,1.59,6.28,6.6,7.91,9.89" style="fill:none;stroke:#999;stroke-width:3" />
<path d="M1136.75,20.48c2.75,0.39,5.5,0.34,8.25-0.14c8.78-0.83,22.08-2.63,30.26-3.15c2.42-0.29,4.83-0.27,7.24,0.08" style="fill:none;stroke:#999;stroke-width:3" />
<path d="M1139.31,27.85c0.8,0.8,1.43,1.89,1.55,2.65c0.9,5.6,1.47,9.25,1.97,12.99c0.2,1.52,0.4,3.05,0.6,4.74" style="fill:none;stroke:#999;stroke-width:3" />
<path d="M1141.1100000000001,29.05c11.2-1.22,25.52-2.71,31.99-3.4c2.44-0.26,5.37,1.12,5.15,3.86c-0.23,2.93-1.38,7.76-2.16,12.08c-0.29,1.59-0.53,3.12-0.65,4.45" style="fill:none;stroke:#999;stroke-width:3" />
<path d="M1157.95,28.88c0.84,0.84,0.97,1.75,0.97,2.87c0,4.09,0.03,10.63,0.03,13.06" style="fill:none;stroke:#999;stroke-width:3" />
<path d="M1142.92,37.5c7.96-0.75,21.21-2.25,33.49-2.68" style="fill:none;stroke:#999;stroke-width:3" />
<path d="M1144.18,46.78c8.32-0.9,18.94-1.65,30.09-2.3" style="fill:none;stroke:#999;stroke-width:3" />
<path d="M1134.75,55.44c2.92,0.42,5.83,0.39,8.75-0.08c9.75-0.83,24.02-2.34,33.5-2.88c2.93-0.34,5.85-0.32,8.75,0.09" style="fill:none;stroke:black;stroke-width:3" />
<circle cx="1134.75" cy="55.44" r="5" stroke-width="0" fill="#FF2A00" opacity="0.7" />
<path d="M1210.03,38.11c2.02,0.42,4.06,0.55,6.11,0.4c4.74-0.54,12.78-1.89,18.25-2.63c1.45-0.29,2.91-0.4,4.37-0.33" style="fill:none;stroke:#999;stroke-width:3" />
<path d="M1226.6100000000001,15.5c1.07,1.07,1.54,2.75,1.54,4.92c0,1.59-0.04,46.38-0.05,66.08c0,4.18,0,7.23,0,8.5" style="fill:none;stroke:#999;stroke-width:3" />
<path d="M1227.69,37.53c0,2.84-1.4,7.26-2.22,9.25C1220.5,58.75 1216.88,65.5 1209.3600000000001,75.84" style="fill:none;stroke:#999;stroke-width:3" />
<path d="M1231.22,49.65c2.68,1.59,6.28,6.6,7.91,9.89" style="fill:none;stroke:#999;stroke-width:3" />
<path d="M1245.75,20.48c2.75,0.39,5.5,0.34,8.25-0.14c8.78-0.83,22.08-2.63,30.26-3.15c2.42-0.29,4.83-0.27,7.24,0.08" style="fill:none;stroke:#999;stroke-width:3" />
<path d="M1248.31,27.85c0.8,0.8,1.43,1.89,1.55,2.65c0.9,5.6,1.47,9.25,1.97,12.99c0.2,1.52,0.4,3.05,0.6,4.74" style="fill:none;stroke:#999;stroke-width:3" />
<path d="M1250.1100000000001,29.05c11.2-1.22,25.52-2.71,31.99-3.4c2.44-0.26,5.37,1.12,5.15,3.86c-0.23,2.93-1.38,7.76-2.16,12.08c-0.29,1.59-0.53,3.12-0.65,4.45" style="fill:none;stroke:#999;stroke-width:3" />
<path d="M1266.95,28.88c0.84,0.84,0.97,1.75,0.97,2.87c0,4.09,0.03,10.63,0.03,13.06" style="fill:none;stroke:#999;stroke-width:3" />
<path d="M1251.92,37.5c7.96-0.75,21.21-2.25,33.49-2.68" style="fill:none;stroke:#999;stroke-width:3" />
<path d="M1253.18,46.78c8.32-0.9,18.94-1.65,30.09-2.3" style="fill:none;stroke:#999;stroke-width:3" />
<path d="M1243.75,55.44c2.92,0.42,5.83,0.39,8.75-0.08c9.75-0.83,24.02-2.34,33.5-2.88c2.93-0.34,5.85-0.32,8.75,0.09" style="fill:none;stroke:#999;stroke-width:3" />
<path d="M1249.56,62.6c0.91,1.12,1.39,2.38,1.42,3.79c0.56,3.96,1.09,9.19,1.6,13.99c0.2,1.88,0.4,3.7,0.59,5.35" style="fill:none;stroke:black;stroke-width:3" />
<circle cx="1249.56" cy="62.6" r="5" stroke-width="0" fill="#FF2A00" opacity="0.7" />
<path d="M1319.03,38.11c2.02,0.42,4.06,0.55,6.11,0.4c4.74-0.54,12.78-1.89,18.25-2.63c1.45-0.29,2.91-0.4,4.37-0.33" style="fill:none;stroke:#999;stroke-width:3" />
<path d="M1335.6100000000001,15.5c1.07,1.07,1.54,2.75,1.54,4.92c0,1.59-0.04,46.38-0.05,66.08c0,4.18,0,7.23,0,8.5" style="fill:none;stroke:#999;stroke-width:3" />
<path d="M1336.69,37.53c0,2.84-1.4,7.26-2.22,9.25C1329.5,58.75 1325.88,65.5 1318.3600000000001,75.84" style="fill:none;stroke:#999;stroke-width:3" />
<path d="M1340.22,49.65c2.68,1.59,6.28,6.6,7.91,9.89" style="fill:none;stroke:#999;stroke-width:3" />
<path d="M1354.75,20.48c2.75,0.39,5.5,0.34,8.25-0.14c8.78-0.83,22.08-2.63,30.26-3.15c2.42-0.29,4.83-0.27,7.24,0.08" style="fill:none;stroke:#999;stroke-width:3" />
<path d="M1357.31,27.85c0.8,0.8,1.43,1.89,1.55,2.65c0.9,5.6,1.47,9.25,1.97,12.99c0.2,1.52,0.4,3.05,0.6,4.74" style="fill:none;stroke:#999;stroke-width:3" />
<path d="M1359.1100000000001,29.05c11.2-1.22,25.52-2.71,31.99-3.4c2.44-0.26,5.37,1.12,5.15,3.86c-0.23,2.93-1.38,7.76-2.16,12.08c-0.29,1.59-0.53,3.12-0.65,4.45" style="fill:none;stroke:#999;stroke-width:3" />
<path d="M1375.95,28.88c0.84,0.84,0.97,1.75,0.97,2.87c0,4.09,0.03,10.63,0.03,13.06" style="fill:none;stroke:#999;stroke-width:3" />
<path d="M1360.92,37.5c7.96-0.75,21.21-2.25,33.49-2.68" style="fill:none;stroke:#999;stroke-width:3" />
<path d="M1362.18,46.78c8.32-0.9,18.94-1.65,30.09-2.3" style="fill:none;stroke:#999;stroke-width:3" />
<path d="M1352.75,55.44c2.92,0.42,5.83,0.39,8.75-0.08c9.75-0.83,24.02-2.34,33.5-2.88c2.93-0.34,5.85-0.32,8.75,0.09" style="fill:none;stroke:#999;stroke-width:3" />
<path d="M1358.56,62.6c0.91,1.12,1.39,2.38,1.42,3.79c0.56,3.96,1.09,9.19,1.6,13.99c0.2,1.88,0.4,3.7,0.59,5.35" style="fill:none;stroke:#999;stroke-width:3" />
<path d="M1360.36,63.8c10.39-1.43,22.51-2.18,31.25-3.12c4.04-0.44,5.56,1.06,5.39,3.94c-0.19,3.07-0.93,8.38-1.54,13.03c-0.32,2.45-0.61,4.72-0.77,6.39" style="fill:none;stroke:black;stroke-width:3" />
<circle cx="1360.36" cy="63.8" r="5" stroke-width="0" fill="#FF2A00" opacity="0.7" />
<path d="M1428.03,38.11c2.02,0.42,4.06,0.55,6.11,0.4c4.74-0.54,12.78-1.89,18.25-2.63c1.45-0.29,2.91-0.4,4.37-0.33" style="fill:none;stroke:#999;stroke-width:3" />
<path d="M1444.6100000000001,15.5c1.07,1.07,1.54,2.75,1.54,4.92c0,1.59-0.04,46.38-0.05,66.08c0,4.18,0,7.23,0,8.5" style="fill:none;stroke:#999;stroke-width:3" />
<path d="M1445.69,37.53c0,2.84-1.4,7.26-2.22,9.25C1438.5,58.75 1434.88,65.5 1427.3600000000001,75.84" style="fill:none;stroke:#999;stroke-width:3" />
<path d="M1449.22,49.65c2.68,1.59,6.28,6.6,7.91,9.89" style="fill:none;stroke:#999;stroke-width:3" />
<path d="M1463.75,20.48c2.75,0.39,5.5,0.34,8.25-0.14c8.78-0.83,22.08-2.63,30.26-3.15c2.42-0.29,4.83-0.27,7.24,0.08" style="fill:none;stroke:#999;stroke-width:3" />
<path d="M1466.31,27.85c0.8,0.8,1.43,1.89,1.55,2.65c0.9,5.6,1.47,9.25,1.97,12.99c0.2,1.52,0.4,3.05,0.6,4.74" style="fill:none;stroke:#999;stroke-width:3" />
<path d="M1468.1100000000001,29.05c11.2-1.22,25.52-2.71,31.99-3.4c2.44-0.26,5.37,1.12,5.15,3.86c-0.23,2.93-1.38,7.76-2.16,12.08c-0.29,1.59-0.53,3.12-0.65,4.45" style="fill:none;stroke:#999;stroke-width:3" />
<path d="M1484.95,28.88c0.84,0.84,0.97,1.75,0.97,2.87c0,4.09,0.03,10.63,0.03,13.06" style="fill:none;stroke:#999;stroke-width:3" />
<path d="M1469.92,37.5c7.96-0.75,21.21-2.25,33.49-2.68" style="fill:none;stroke:#999;stroke-width:3" />
<path d="M1471.18,46.78c8.32-0.9,18.94-1.65,30.09-2.3" style="fill:none;stroke:#999;stroke-width:3" />
<path d="M1461.75,55.44c2.92,0.42,5.83,0.39,8.75-0.08c9.75-0.83,24.02-2.34,33.5-2.88c2.93-0.34,5.85-0.32,8.75,0.09" style="fill:none;stroke:#999;stroke-width:3" />
<path d="M1467.56,62.6c0.91,1.12,1.39,2.38,1.42,3.79c0.56,3.96,1.09,9.19,1.6,13.99c0.2,1.88,0.4,3.7,0.59,5.35" style="fill:none;stroke:#999;stroke-width:3" />
<path d="M1469.36,63.8c10.39-1.43,22.51-2.18,31.25-3.12c4.04-0.44,5.56,1.06,5.39,3.94c-0.19,3.07-0.93,8.38-1.54,13.03c-0.32,2.45-0.61,4.72-0.77,6.39" style="fill:none;stroke:#999;stroke-width:3" />
<path d="M1485.2,64.13c0.55,0.37,0.97,1.57,0.97,2.37c-0.01,4.09,0.02,13.07,0.03,14.56" style="fill:none;stroke:black;stroke-width:3" />
<circle cx="1485.2" cy="64.13" r="5" stroke-width="0" fill="#FF2A00" opacity="0.7" />
<path d="M1537.03,38.11c2.02,0.42,4.06,0.55,6.11,0.4c4.74-0.54,12.78-1.89,18.25-2.63c1.45-0.29,2.91-0.4,4.37-0.33" style="fill:none;stroke:#999;stroke-width:3" />
<path d="M1553.6100000000001,15.5c1.07,1.07,1.54,2.75,1.54,4.92c0,1.59-0.04,46.38-0.05,66.08c0,4.18,0,7.23,0,8.5" style="fill:none;stroke:#999;stroke-width:3" />
<path d="M1554.69,37.53c0,2.84-1.4,7.26-2.22,9.25C1547.5,58.75 1543.88,65.5 1536.3600000000001,75.84" style="fill:none;stroke:#999;stroke-width:3" />
<path d="M1558.22,49.65c2.68,1.59,6.28,6.6,7.91,9.89" style="fill:none;stroke:#999;stroke-width:3" />
<path d="M1572.75,20.48c2.75,0.39,5.5,0.34,8.25-0.14c8.78-0.83,22.08-2.63,30.26-3.15c2.42-0.29,4.83-0.27,7.24,0.08" style="fill:none;stroke:#999;stroke-width:3" />
<path d="M1575.31,27.85c0.8,0.8,1.43,1.89,1.55,2.65c0.9,5.6,1.47,9.25,1.97,12.99c0.2,1.52,0.4,3.05,0.6,4.74" style="fill:none;stroke:#999;stroke-width:3" />
<path d="M1577.1100000000001,29.05c11.2-1.22,25.52-2.71,31.99-3.4c2.44-0.26,5.37,1.12,5.15,3.86c-0.23,2.93-1.38,7.76-2.16,12.08c-0.29,1.59-0.53,3.12-0.65,4.45" style="fill:none;stroke:#999;stroke-width:3" />
<path d="M1593.95,28.88c0.84,0.84,0.97,1.75,0.97,2.87c0,4.09,0.03,10.63,0.03,13.06" style="fill:none;stroke:#999;stroke-width:3" />
<path d="M1578.92,37.5c7.96-0.75,21.21-2.25,33.49-2.68" style="fill:none;stroke:#999;stroke-width:3" />
<path d="M1580.18,46.78c8.32-0.9,18.94-1.65,30.09-2.3" style="fill:none;stroke:#999;stroke-width:3" />
<path d="M1570.75,55.44c2.92,0.42,5.83,0.39,8.75-0.08c9.75-0.83,24.02-2.34,33.5-2.88c2.93-0.34,5.85-0.32,8.75,0.09" style="fill:none;stroke:#999;stroke-width:3" />
<path d="M1576.56,62.6c0.91,1.12,1.39,2.38,1.42,3.79c0.56,3.96,1.09,9.19,1.6,13.99c0.2,1.88,0.4,3.7,0.59,5.35" style="fill:none;stroke:#999;stroke-width:3" />
<path d="M1578.36,63.8c10.39-1.43,22.51-2.18,31.25-3.12c4.04-0.44,5.56,1.06,5.39,3.94c-0.19,3.07-0.93,8.38-1.54,13.03c-0.32,2.45-0.61,4.72-0.77,6.39" style="fill:none;stroke:#999;stroke-width:3" />
<path d="M1594.2,64.13c0.55,0.37,0.97,1.57,0.97,2.37c-0.01,4.09,0.02,13.07,0.03,14.56" style="fill:none;stroke:#999;stroke-width:3" />
<path d="M1579.92,73.25c6.82-0.77,24.61-2.55,33.49-2.93" style="fill:none;stroke:black;stroke-width:3" />
<circle cx="1579.92" cy="73.25" r="5" stroke-width="0" fill="#FF2A00" opacity="0.7" />
<path d="M1646.03,38.11c2.02,0.42,4.06,0.55,6.11,0.4c4.74-0.54,12.78-1.89,18.25-2.63c1.45-0.29,2.91-0.4,4.37-0.33" style="fill:none;stroke:#999;stroke-width:3" />
<path d="M1662.6100000000001,15.5c1.07,1.07,1.54,2.75,1.54,4.92c0,1.59-0.04,46.38-0.05,66.08c0,4.18,0,7.23,0,8.5" style="fill:none;stroke:#999;stroke-width:3" />
<path d="M1663.69,37.53c0,2.84-1.4,7.26-2.22,9.25C1656.5,58.75 1652.88,65.5 1645.3600000000001,75.84" style="fill:none;stroke:#999;stroke-width:3" />
<path d="M1667.22,49.65c2.68,1.59,6.28,6.6,7.91,9.89" style="fill:none;stroke:#999;stroke-width:3" />
<path d="M1681.75,20.48c2.75,0.39,5.5,0.34,8.25-0.14c8.78-0.83,22.08-2.63,30.26-3.15c2.42-0.29,4.83-0.27,7.24,0.08" style="fill:none;stroke:#999;stroke-width:3" />
<path d="M1684.31,27.85c0.8,0.8,1.43,1.89,1.55,2.65c0.9,5.6,1.47,9.25,1.97,12.99c0.2,1.52,0.4,3.05,0.6,4.74" style="fill:none;stroke:#999;stroke-width:3" />
<path d="M1686.1100000000001,29.05c11.2-1.22,25.52-2.71,31.99-3.4c2.44-0.26,5.37,1.12,5.15,3.86c-0.23,2.93-1.38,7.76-2.16,12.08c-0.29,1.59-0.53,3.12-0.65,4.45" style="fill:none;stroke:#999;stroke-width:3" />
<path d="M1702.95,28.88c0.84,0.84,0.97,1.75,0.97,2.87c0,4.09,0.03,10.63,0.03,13.06" style="fill:none;stroke:#999;stroke-width:3" />
<path d="M1687.92,37.5c7.96-0.75,21.21-2.25,33.49-2.68" style="fill:none;stroke:#999;stroke-width:3" />
<path d="M1689.18,46.78c8.32-0.9,18.94-1.65,30.09-2.3" style="fill:none;stroke:#999;stroke-width:3" />
<path d="M1679.75,55.44c2.92,0.42,5.83,0.39,8.75-0.08c9.75-0.83,24.02-2.34,33.5-2.88c2.93-0.34,5.85-0.32,8.75,0.09" style="fill:none;stroke:#999;stroke-width:3" />
<path d="M1685.56,62.6c0.91,1.12,1.39,2.38,1.42,3.79c0.56,3.96,1.09,9.19,1.6,13.99c0.2,1.88,0.4,3.7,0.59,5.35" style="fill:none;stroke:#999;stroke-width:3" />
<path d="M1687.36,63.8c10.39-1.43,22.51-2.18,31.25-3.12c4.04-0.44,5.56,1.06,5.39,3.94c-0.19,3.07-0.93,8.38-1.54,13.03c-0.32,2.45-0.61,4.72-0.77,6.39" style="fill:none;stroke:#999;stroke-width:3" />
<path d="M1703.2,64.13c0.55,0.37,0.97,1.57,0.97,2.37c-0.01,4.09,0.02,13.07,0.03,14.56" style="fill:none;stroke:#999;stroke-width:3" />
<path d="M1688.92,73.25c6.82-0.77,24.61-2.55,33.49-2.93" style="fill:none;stroke:#999;stroke-width:3" />
<path d="M1690.18,83.53c12.19-1.28,20.89-2.1,31.09-2.8" style="fill:none;stroke:black;stroke-width:3" />
<circle cx="1690.18" cy="83.53" r="5" stroke-width="0" fill="#FF2A00" opacity="0.7" />
<path d="M1755.03,38.11c2.02,0.42,4.06,0.55,6.11,0.4c4.74-0.54,12.78-1.89,18.25-2.63c1.45-0.29,2.91-0.4,4.37-0.33" style="fill:none;stroke:#999;stroke-width:3" />
<path d="M1771.6100000000001,15.5c1.07,1.07,1.54,2.75,1.54,4.92c0,1.59-0.04,46.38-0.05,66.08c0,4.18,0,7.23,0,8.5" style="fill:none;stroke:#999;stroke-width:3" />
<path d="M1772.69,37.53c0,2.84-1.4,7.26-2.22,9.25C1765.5,58.75 1761.88,65.5 1754.3600000000001,75.84" style="fill:none;stroke:#999;stroke-width:3" />
<path d="M1776.22,49.65c2.68,1.59,6.28,6.6,7.91,9.89" style="fill:none;stroke:#999;stroke-width:3" />
<path d="M1790.75,20.48c2.75,0.39,5.5,0.34,8.25-0.14c8.78-0.83,22.08-2.63,30.26-3.15c2.42-0.29,4.83-0.27,7.24,0.08" style="fill:none;stroke:#999;stroke-width:3" />
<path d="M1793.31,27.85c0.8,0.8,1.43,1.89,1.55,2.65c0.9,5.6,1.47,9.25,1.97,12.99c0.2,1.52,0.4,3.05,0.6,4.74" style="fill:none;stroke:#999;stroke-width:3" />
<path d="M1795.1100000000001,29.05c11.2-1.22,25.52-2.71,31.99-3.4c2.44-0.26,5.37,1.12,5.15,3.86c-0.23,2.93-1.38,7.76-2.16,12.08c-0.29,1.59-0.53,3.12-0.65,4.45" style="fill:none;stroke:#999;stroke-width:3" />
<path d="M1811.95,28.88c0.84,0.84,0.97,1.75,0.97,2.87c0,4.09,0.03,10.63,0.03,13.06" style="fill:none;stroke:#999;stroke-width:3" />
<path d="M1796.92,37.5c7.96-0.75,21.21-2.25,33.49-2.68" style="fill:none;stroke:#999;stroke-width:3" />
<path d="M1798.18,46.78c8.32-0.9,18.94-1.65,30.09-2.3" style="fill:none;stroke:#999;stroke-width:3" />
<path d="M1788.75,55.44c2.92,0.42,5.83,0.39,8.75-0.08c9.75-0.83,24.02-2.34,33.5-2.88c2.93-0.34,5.85-0.32,8.75,0.09" style="fill:none;stroke:#999;stroke-width:3" />
<path d="M1794.56,62.6c0.91,1.12,1.39,2.38,1.42,3.79c0.56,3.96,1.09,9.19,1.6,13.99c0.2,1.88,0.4,3.7,0.59,5.35" style="fill:none;stroke:#999;stroke-width:3" />
<path d="M1796.36,63.8c10.39-1.43,22.51-2.18,31.25-3.12c4.04-0.44,5.56,1.06,5.39,3.94c-0.19,3.07-0.93,8.38-1.54,13.03c-0.32,2.45-0.61,4.72-0.77,6.39" style="fill:none;stroke:#999;stroke-width:3" />
<path d="M1812.2,64.13c0.55,0.37,0.97,1.57,0.97,2.37c-0.01,4.09,0.02,13.07,0.03,14.56" style="fill:none;stroke:#999;stroke-width:3" />
<path d="M1797.92,73.25c6.82-0.77,24.61-2.55,33.49-2.93" style="fill:none;stroke:#999;stroke-width:3" />
<path d="M1799.18,83.53c12.19-1.28,20.89-2.1,31.09-2.8" style="fill:none;stroke:#999;stroke-width:3" />
<path d="M1789.0,93.69c3.09,0.43,6.18,0.39,9.27-0.11c10.53-0.98,23.86-2.09,34.61-2.4c3.27-0.1,6.47,0.03,9.62,0.88" style="fill:none;stroke:black;stroke-width:3" />
<circle cx="1789.0" cy="93.69" r="5" stroke-width="0" fill="#FF2A00" opacity="0.7" />
</svg>