<!-- 06ab3 -->
<svg width="1962px" height="109px" viewBox="0 0 1962px 109px" xmlns="http://www.w3.org/2000/svg" xmlns:xlink="http://www.w3.org/1999/xlink" xml:space="preserve" version="1.1"  baseProfile="full">
<line x1="1" y1="1" x2="1961" y2="1" style="stroke:#ddd;stroke-width:2" />
<line x1="1" y1="1" x2="1" y2="108" style="stroke:#ddd;stroke-width:2" />
<line x1="1" y1="108" x2="1961" y2="108" style="stroke:#ddd;stroke-width:2" />
<line x1="1961" y1="1" x2="1961" y2="108" style="stroke:#ddd;stroke-width:2" />
<line x1="109" y1="1" x2="109" y2="108" style="stroke:#ddd;stroke-width:2" />
<line x1="218" y1="1" x2="218" y2="108" style="stroke:#ddd;stroke-width:2" />
<line x1="327" y1="1" x2="327" y2="108" style="stroke:#ddd;stroke-width:2" />
<line x1="436" y1="1" x2="436" y2="108" style="stroke:#ddd;stroke-width:2" />
<line x1="545" y1="1" x2="545" y2="108" style="stroke:#ddd;stroke-width:2" />
<line x1="654" y1="1" x2="654" y2="108" style="stroke:#ddd;stroke-width:2" />
<line x1="763" y1="1" x2="763" y2="108" style="stroke:#ddd;stroke-width:2" />
<line x1="872" y1="1" x2="872" y2="108" style="stroke:#ddd;stroke-width:2" />
<line x1="981" y1="1" x2="981" y2="108" style="stroke:#ddd;stroke-width:2" />
<line x1="1090" y1="1" x2="1090" y2="108" style="stroke:#ddd;stroke-width:2" />
<line x1="1199" y1="1" x2="1199" y2="108" style="stroke:#ddd;stroke-width:2" />
<line x1="1308" y1="1" x2="1308" y2="108" style="stroke:#ddd;stroke-width:2" />
<line x1="1417" y1="1" x2="1417" y2="108" style="stroke:#ddd;stroke-width:2" />
<line x1="1526" y1="1" x2="1526" y2="108" style="stroke:#ddd;stroke-width:2" />
<line x1="1635" y1="1" x2="1635" y2="108" style="stroke:#ddd;stroke-width:2" />
<line x1="1744" y1="1" x2="1744" y2="108" style="stroke:#ddd;stroke-width:2" />
<line x1="1853" y1="1" x2="1853" y2="108" style="stroke:#ddd;stroke-width:2" />
<line x1="1" y1="54" x2="1961" y2="54" style="stroke:#ddd;stroke-width:2;stroke-dasharray:3 3" />
<line x1="55" y1="1" x2="55" y2="108" style="stroke:#ddd;stroke-width:2;stroke-dasharray:3 3" />
<line x1="164" y1="1" x2="164" y2="108" style="stroke:#ddd;stroke-width:2;stroke-dasharray:3 3" />
<line x1="273" y1="1" x2="273" y2="108" style="stroke:#ddd;stroke-width:2;stroke-dasharray:3 3" />
<line x1="382" y1="1" x2="382" y2="108" style="stroke:#ddd;stroke-width:2;stroke-dasharray:3 3" />
<line x1="491" y1="1" x2="491" y2="108" style="stroke:#ddd;stroke-width:2;stroke-dasharray:3 3" />
<line x1="600" y1="1" x2="600" y2="108" style="stroke:#ddd;stroke-width:2;stroke-dasharray:3 3" />
<line x1="709" y1="1" x2="709" y2="108" style="stroke:#ddd;stroke-width:2;stroke-dasharray:3 3" />
<line x1="818" y1="1" x2="818" y2="108" style="stroke:#ddd;stroke-width:2;stroke-dasharray:3 3" />
<line x1="927" y1="1" x2="927" y2="108" style="stroke:#ddd;stroke-width:2;stroke-dasharray:3 3" />
<line x1="1036" y1="1" x2="1036" y2="108" style="stroke:#ddd;stroke-width:2;stroke-dasharray:3 3" />
<line x1="1145" y1="1" x2="1145" y2="108" style="stroke:#ddd;stroke-width:2;stroke-dasharray:3 3" />
<line x1="1254" y1="1" x2="1254" y2="108" style="stroke:#ddd;stroke-width:2;stroke-dasharray:3 3" />
<line x1="1363" y1="1" x2="1363" y2="108" style="stroke:#ddd;stroke-width:2;stroke-dasharray:3 3" />
<line x1="1472" y1="1" x2="1472" y2="108" style="stroke:#ddd;stroke-width:2;stroke-dasharray:3 3" />
<line x1="1581" y1="1" x2="1581" y2="108" style="stroke:#ddd;stroke-width:2;stroke-dasharray:3 3" />
<line x1="1690" y1="1" x2="1690" y2="108" style="stroke:#ddd;stroke-width:2;stroke-dasharray:3 3" />
<line x1="1799" y1="1" x2="1799" y2="108" style="stroke:#ddd;stroke-width:2;stroke-dasharray:3 3" />
<line x1="1908" y1="1" x2="1908" y2="108" style="stroke:#ddd;stroke-width:2;stroke-dasharray:3 3" />
<path d="M11.28,38.22c0.35,0.24,2.39,0.41,3.31,0.31c3.94-0.41,15.12-0.71,21.45-1.91c0.92-0.17,2.15-0.24,2.73,0" style="fill:none;stroke:black;stroke-width:3" />
<circle cx="11.28" cy="38.22" r="5" stroke-width="0" fill="#FF2A00" opacity="0.7" />
<path d="M120.28,38.22c0.35,0.24,2.39,0.41,3.31,0.31c3.94-0.41,15.12-0.71,21.45-1.91c0.92-0.17,2.15-0.24,2.73,0" style="fill:none;stroke:#999;stroke-width:3" />
<path d="M135.86,13.5c0.91,0.47,2.04,1.75,2.04,4.42c0,0.95-0.12,74.25-0.3,80.08" style="fill:none;stroke:black;stroke-width:3" />
<circle cx="135.86" cy="13.5" r="5" stroke-width="0" fill="#FF2A00" opacity="0.7" />
<path d="M229.28,38.22c0.35,0.24,2.39,0.41,3.31,0.31c3.94-0.41,15.12-0.71,21.45-1.91c0.92-0.17,2.15-0.24,2.73,0" style="fill:none;stroke:#999;stroke-width:3" />
<path d="M244.86,13.5c0.91,0.47,2.04,1.75,2.04,4.42c0,0.95-0.12,74.25-0.3,80.08" style="fill:none;stroke:#999;stroke-width:3" />
<path d="M245.94,40.28c-5.82,14.49-9.06,20.62-18.08,33.31" style="fill:none;stroke:black;stroke-width:3" />
<circle cx="245.94" cy="40.28" r="5" stroke-width="0" fill="#FF2A00" opacity="0.7" />
<path d="M338.28,38.22c0.35,0.24,2.39,0.41,3.31,0.31c3.94-0.41,15.12-0.71,21.45-1.91c0.92-0.17,2.15-0.24,2.73,0" style="fill:none;stroke:#999;stroke-width:3" />
<path d="M353.86,13.5c0.91,0.47,2.04,1.75,2.04,4.42c0,0.95-0.12,74.25-0.3,80.08" style="fill:none;stroke:#999;stroke-width:3" />
<path d="M354.94,40.28c-5.82,14.49-9.06,20.62-18.08,33.31" style="fill:none;stroke:#999;stroke-width:3" />
<path d="M357.97,47.9c2.09,1.71,5.52,7.28,7.28,10.6" style="fill:none;stroke:black;stroke-width:3" />
<circle cx="357.97" cy="47.9" r="5" stroke-width="0" fill="#FF2A00" opacity="0.7" />
<path d="M447.28,38.22c0.35,0.24,2.39,0.41,3.31,0.31c3.94-0.41,15.12-0.71,21.45-1.91c0.92-0.17,2.15-0.24,2.73,0" style="fill:none;stroke:#999;stroke-width:3" />
<path d="M462.86,13.5c0.91,0.47,2.04,1.75,2.04,4.42c0,0.95-0.12,74.25-0.3,80.08" style="fill:none;stroke:#999;stroke-width:3" />
<path d="M463.94,40.28c-5.82,14.49-9.06,20.62-18.08,33.31" style="fill:none;stroke:#999;stroke-width:3" />
<path d="M466.97,47.9c2.09,1.71,5.52,7.28,7.28,10.6" style="fill:none;stroke:#999;stroke-width:3" />
<path d="M503.15,11.05c0.87,0.34,2.11,2.02,2.09,3c-0.06,3.1-0.06,5.13-0.07,7.96" style="fill:none;stroke:black;stroke-width:3" />
<circle cx="503.15" cy="11.05" r="5" stroke-width="0" fill="#FF2A00" opacity="0.7" />
<path d="M556.28,38.22c0.35,0.24,2.39,0.41,3.31,0.31c3.94-0.41,15.12-0.71,21.45-1.91c0.92-0.17,2.15-0.24,2.73,0" style="fill:none;stroke:#999;stroke-width:3" />
<path d="M571.86,13.5c0.91,0.47,2.04,1.75,2.04,4.42c0,0.95-0.12,74.25-0.3,80.08" style="fill:none;stroke:#999;stroke-width:3" />
<path d="M572.94,40.28c-5.82,14.49-9.06,20.62-18.08,33.31" style="fill:none;stroke:#999;stroke-width:3" />
<path d="M575.97,47.9c2.09,1.71,5.52,7.28,7.28,10.6" style="fill:none;stroke:#999;stroke-width:3" />
<path d="M612.15,11.05c0.87,0.34,2.11,2.02,2.09,3c-0.06,3.1-0.06,5.13-0.07,7.96" style="fill:none;stroke:#999;stroke-width:3" />
<path d="M594.24,21.39c0,2.77-2.39,11.31-3.3,13.16" style="fill:none;stroke:black;stroke-width:3" />
<circle cx="594.24" cy="21.39" r="5" stroke-width="0" fill="#FF2A00" opacity="0.7" />
<path d="M665.28,38.22c0.35,0.24,2.39,0.41,3.31,0.31c3.94-0.41,15.12-0.71,21.45-1.91c0.92-0.17,2.15-0.24,2.73,0" style="fill:none;stroke:#999;stroke-width:3" />
<path d="M680.86,13.5c0.91,0.47,2.04,1.75,2.04,4.42c0,0.95-0.12,74.25-0.3,80.08" style="fill:none;stroke:#999;stroke-width:3" />
<path d="M681.94,40.28c-5.82,14.49-9.06,20.62-18.08,33.31" style="fill:none;stroke:#999;stroke-width:3" />
<path d="M684.97,47.9c2.09,1.71,5.52,7.28,7.28,10.6" style="fill:none;stroke:#999;stroke-width:3" />
<path d="M721.15,11.05c0.87,0.34,2.11,2.02,2.09,3c-0.06,3.1-0.06,5.13-0.07,7.96" style="fill:none;stroke:#999;stroke-width:3" />
<path d="M703.24,21.39c0,2.77-2.39,11.31-3.3,13.16" style="fill:none;stroke:#999;stroke-width:3" />
<path d="M703.56,24.2c6.28-0.79,35.81-2.6,40.9-2.9c7.97-0.47,1.69,5.7-0.3,7.39" style="fill:none;stroke:black;stroke-width:3" />
<circle cx="703.56" cy="24.2" r="5" stroke-width="0" fill="#FF2A00" opacity="0.7" />
<path d="M774.28,38.22c0.35,0.24,2.39,0.41,3.31,0.31c3.94-0.41,15.12-0.71,21.45-1.91c0.92-0.17,2.15-0.24,2.73,0" style="fill:none;stroke:#999;stroke-width:3" />
<path d="M789.86,13.5c0.91,0.47,2.04,1.75,2.04,4.42c0,0.95-0.12,74.25-0.3,80.08" style="fill:none;stroke:#999;stroke-width:3" />
<path d="M790.94,40.28c-5.82,14.49-9.06,20.62-18.08,33.31" style="fill:none;stroke:#999;stroke-width:3" />
<path d="M793.97,47.9c2.09,1.71,5.52,7.28,7.28,10.6" style="fill:none;stroke:#999;stroke-width:3" />
<path d="M830.15,11.05c0.87,0.34,2.11,2.02,2.09,3c-0.06,3.1-0.06,5.13-0.07,7.96" style="fill:none;stroke:#999;stroke-width:3" />
<path d="M812.24,21.39c0,2.77-2.39,11.31-3.3,13.16" style="fill:none;stroke:#999;stroke-width:3" />
<path d="M812.56,24.2c6.28-0.79,35.81-2.6,40.9-2.9c7.97-0.47,1.69,5.7-0.3,7.39" style="fill:none;stroke:#999;stroke-width:3" />
<path d="M817.58,32.31c0.73,0.35,2.05,0.39,2.78,0.35c4.94-0.25,19.8-1.31,23.82-1.65c1.2-0.1,1.93,0.17,2.54,0.35" style="fill:none;stroke:black;stroke-width:3" />
<circle cx="817.58" cy="32.31" r="5" stroke-width="0" fill="#FF2A00" opacity="0.7" />
<path d="M883.28,38.22c0.35,0.24,2.39,0.41,3.31,0.31c3.94-0.41,15.12-0.71,21.45-1.91c0.92-0.17,2.15-0.24,2.73,0" style="fill:none;stroke:#999;stroke-width:3" />
<path d="M898.86,13.5c0.91,0.47,2.04,1.75,2.04,4.42c0,0.95-0.12,74.25-0.3,80.08" style="fill:none;stroke:#999;stroke-width:3" />
<path d="M899.94,40.28c-5.82,14.49-9.06,20.62-18.08,33.31" style="fill:none;stroke:#999;stroke-width:3" />
<path d="M902.97,47.9c2.09,1.71,5.52,7.28,7.28,10.6" style="fill:none;stroke:#999;stroke-width:3" />
<path d="M939.15,11.05c0.87,0.34,2.11,2.02,2.09,3c-0.06,3.1-0.06,5.13-0.07,7.96" style="fill:none;stroke:#999;stroke-width:3" />
<path d="M921.24,21.39c0,2.77-2.39,11.31-3.3,13.16" style="fill:none;stroke:#999;stroke-width:3" />
<path d="M921.56,24.2c6.28-0.79,35.81-2.6,40.9-2.9c7.97-0.47,1.69,5.7-0.3,7.39" style="fill:none;stroke:#999;stroke-width:3" />
<path d="M926.58,32.31c0.73,0.35,2.05,0.39,2.78,0.35c4.94-0.25,19.8-1.31,23.82-1.65c1.2-0.1,1.93,0.17,2.54,0.35" style="fill:none;stroke:#999;stroke-width:3" />
<path d="M939.94,34.61c0.05,0.21,0.67,1.11,0.67,2.46c0,2.93-0.14,6.92-0.14,9.14c0,6.27-3.84,0.67-4.64,0.11" style="fill:none;stroke:black;stroke-width:3" />
<circle cx="939.94" cy="34.61" r="5" stroke-width="0" fill="#FF2A00" opacity="0.7" />
<path d="M992.28,38.22c0.35,0.24,2.39,0.41,3.31,0.31c3.94-0.41,15.12-0.71,21.45-1.91c0.92-0.17,2.15-0.24,2.73,0" style="fill:none;stroke:#999;stroke-width:3" />
<path d="M1007.86,13.5c0.91,0.47,2.04,1.75,2.04,4.42c0,0.95-0.12,74.25-0.3,80.08" style="fill:none;stroke:#999;stroke-width:3" />
<path d="M1008.94,40.28c-5.82,14.49-9.06,20.62-18.08,33.31" style="fill:none;stroke:#999;stroke-width:3" />
<path d="M1011.97,47.9c2.09,1.71,5.52,7.28,7.28,10.6" style="fill:none;stroke:#999;stroke-width:3" />
<path d="M1048.15,11.05c0.87,0.34,2.11,2.02,2.09,3c-0.06,3.1-0.06,5.13-0.07,7.96" style="fill:none;stroke:#999;stroke-width:3" />
<path d="M1030.24,21.39c0,2.77-2.39,11.31-3.3,13.16" style="fill:none;stroke:#999;stroke-width:3" />
<path d="M1030.56,24.2c6.28-0.79,35.81-2.6,40.9-2.9c7.97-0.47,1.69,5.7-0.3,7.39" style="fill:none;stroke:#999;stroke-width:3" />
<path d="M1035.58,32.31c0.73,0.35,2.05,0.39,2.78,0.35c4.94-0.25,19.8-1.31,23.82-1.65c1.2-0.1,1.93,0.17,2.54,0.35" style="fill:none;stroke:#999;stroke-width:3" />
<path d="M1048.94,34.61c0.05,0.21,0.67,1.11,0.67,2.46c0,2.93-0.14,6.92-0.14,9.14c0,6.27-3.84,0.67-4.64,0.11" style="fill:none;stroke:#999;stroke-width:3" />
<path d="M1036.45,40.54c0.03,0.26,0.11,0.69-0.06,1.06c-1.18,2.64-6.16,7.72-10.21,10.15" style="fill:none;stroke:black;stroke-width:3" />
<circle cx="1036.45" cy="40.54" r="5" stroke-width="0" fill="#FF2A00" opacity="0.7" />
<path d="M1101.28,38.22c0.35,0.24,2.39,0.41,3.31,0.31c3.94-0.41,15.12-0.71,21.45-1.91c0.92-0.17,2.15-0.24,2.73,0" style="fill:none;stroke:#999;stroke-width:3" />
<path d="M1116.8600000000001,13.5c0.91,0.47,2.04,1.75,2.04,4.42c0,0.95-0.12,74.25-0.3,80.08" style="fill:none;stroke:#999;stroke-width:3" />
<path d="M1117.94,40.28c-5.82,14.49-9.06,20.62-18.08,33.31" style="fill:none;stroke:#999;stroke-width:3" />
<path d="M1120.97,47.9c2.09,1.71,5.52,7.28,7.28,10.6" style="fill:none;stroke:#999;stroke-width:3" />
<path d="M1157.15,11.05c0.87,0.34,2.11,2.02,2.09,3c-0.06,3.1-0.06,5.13-0.07,7.96" style="fill:none;stroke:#999;stroke-width:3" />
<path d="M1139.24,21.39c0,2.77-2.39,11.31-3.3,13.16" style="fill:none;stroke:#999;stroke-width:3" />
<path d="M1139.56,24.2c6.28-0.79,35.81-2.6,40.9-2.9c7.97-0.47,1.69,5.7-0.3,7.39" style="fill:none;stroke:#999;stroke-width:3" />
<path d="M1144.58,32.31c0.73,0.35,2.05,0.39,2.78,0.35c4.94-0.25,19.8-1.31,23.82-1.65c1.2-0.1,1.93,0.17,2.54,0.35" style="fill:none;stroke:#999;stroke-width:3" />
<path d="M1157.94,34.61c0.05,0.21,0.67,1.11,0.67,2.46c0,2.93-0.14,6.92-0.14,9.14c0,6.27-3.84,0.67-4.64,0.11" style="fill:none;stroke:#999;stroke-width:3" />
<path d="M1145.45,40.54c0.03,0.26,0.11,0.69-0.06,1.06c-1.18,2.64-6.16,7.72-10.21,10.15" style="fill:none;stroke:#999;stroke-width:3" />
<path d="M1174.42,38.3c0.11,0.56,0.01,1.97-0.66,2.68c-6.1,6.34-21.37,14.78-40.51,21.05" style="fill:none;stroke:black;stroke-width:3" />
<circle cx="1174.42" cy="38.3" r="5" stroke-width="0" fill="#FF2A00" opacity="0.7" />
<path d="M1210.28,38.22c0.35,0.24,2.39,0.41,3.31,0.31c3.94-0.41,15.12-0.71,21.45-1.91c0.92-0.17,2.15-0.24,2.73,0" style="fill:none;stroke:#999;stroke-width:3" />
<path d="M1225.8600000000001,13.5c0.91,0.47,2.04,1.75,2.04,4.42c0,0.95-0.12,74.25-0.3,80.08" style="fill:none;stroke:#999;stroke-width:3" />
<path d="M1226.94,40.28c-5.82,14.49-9.06,20.62-18.08,33.31" style="fill:none;stroke:#999;stroke-width:3" />
<path d="M1229.97,47.9c2.09,1.71,5.52,7.28,7.28,10.6" style="fill:none;stroke:#999;stroke-width:3" />
<path d="M1266.15,11.05c0.87,0.34,2.11,2.02,2.09,3c-0.06,3.1-0.06,5.13-0.07,7.96" style="fill:none;stroke:#999;stroke-width:3" />
<path d="M1248.24,21.39c0,2.77-2.39,11.31-3.3,13.16" style="fill:none;stroke:#999;stroke-width:3" />
<path d="M1248.56,24.2c6.28-0.79,35.81-2.6,40.9-2.9c7.97-0.47,1.69,5.7-0.3,7.39" style="fill:none;stroke:#999;stroke-width:3" />
<path d="M1253.58,32.31c0.73,0.35,2.05,0.39,2.78,0.35c4.94-0.25,19.8-1.31,23.82-1.65c1.2-0.1,1.93,0.17,2.54,0.35" style="fill:none;stroke:#999;stroke-width:3" />
<path d="M1266.94,34.61c0.05,0.21,0.67,1.11,0.67,2.46c0,2.93-0.14,6.92-0.14,9.14c0,6.27-3.84,0.67-4.64,0.11" style="fill:none;stroke:#999;stroke-width:3" />
<path d="M1254.45,40.54c0.03,0.26,0.11,0.69-0.06,1.06c-1.18,2.64-6.16,7.72-10.21,10.15" style="fill:none;stroke:#999;stroke-width:3" />
<path d="M1283.42,38.3c0.11,0.56,0.01,1.97-0.66,2.68c-6.1,6.34-21.37,14.78-40.51,21.05" style="fill:none;stroke:#999;stroke-width:3" />
<path d="M1254.55,58.04c0.77,0.96,1.17,1.64,1.17,3.2c0,3.56-0.35,14.78-0.35,25.06" style="fill:none;stroke:black;stroke-width:3" />
<circle cx="1254.55" cy="58.04" r="5" stroke-width="0" fill="#FF2A00" opacity="0.7" />
<path d="M1319.28,38.22c0.35,0.24,2.39,0.41,3.31,0.31c3.94-0.41,15.12-0.71,21.45-1.91c0.92-0.17,2.15-0.24,2.73,0" style="fill:none;stroke:#999;stroke-width:3" />
<path d="M1334.8600000000001,13.5c0.91,0.47,2.04,1.75,2.04,4.42c0,0.95-0.12,74.25-0.3,80.08" style="fill:none;stroke:#999;stroke-width:3" />
<path d="M1335.94,40.28c-5.82,14.49-9.06,20.62-18.08,33.31" style="fill:none;stroke:#999;stroke-width:3" />
<path d="M1338.97,47.9c2.09,1.71,5.52,7.28,7.28,10.6" style="fill:none;stroke:#999;stroke-width:3" />
<path d="M1375.15,11.05c0.87,0.34,2.11,2.02,2.09,3c-0.06,3.1-0.06,5.13-0.07,7.96" style="fill:none;stroke:#999;stroke-width:3" />
<path d="M1357.24,21.39c0,2.77-2.39,11.31-3.3,13.16" style="fill:none;stroke:#999;stroke-width:3" />
<path d="M1357.56,24.2c6.28-0.79,35.81-2.6,40.9-2.9c7.97-0.47,1.69,5.7-0.3,7.39" style="fill:none;stroke:#999;stroke-width:3" />
<path d="M1362.58,32.31c0.73,0.35,2.05,0.39,2.78,0.35c4.94-0.25,19.8-1.31,23.82-1.65c1.2-0.1,1.93,0.17,2.54,0.35" style="fill:none;stroke:#999;stroke-width:3" />
<path d="M1375.94,34.61c0.05,0.21,0.67,1.11,0.67,2.46c0,2.93-0.14,6.92-0.14,9.14c0,6.27-3.84,0.67-4.64,0.11" style="fill:none;stroke:#999;stroke-width:3" />
<path d="M1363.45,40.54c0.03,0.26,0.11,0.69-0.06,1.06c-1.18,2.64-6.16,7.72-10.21,10.15" style="fill:none;stroke:#999;stroke-width:3" />
<path d="M1392.42,38.3c0.11,0.56,0.01,1.97-0.66,2.68c-6.1,6.34-21.37,14.78-40.51,21.05" style="fill:none;stroke:#999;stroke-width:3" />
<path d="M1363.55,58.04c0.77,0.96,1.17,1.64,1.17,3.2c0,3.56-0.35,14.78-0.35,25.06" style="fill:none;stroke:#999;stroke-width:3" />
<path d="M1365.51,57.31c2.68-0.2,23.62-2.12,26.06-2.35c2.04-0.2,3.12,1.08,3.12,2.55c0,3.58-0.6,25.9-0.6,27.07" style="fill:none;stroke:black;stroke-width:3" />
<circle cx="1365.51" cy="57.31" r="5" stroke-width="0" fill="#FF2A00" opacity="0.7" />
<path d="M1428.28,38.22c0.35,0.24,2.39,0.41,3.31,0.31c3.94-0.41,15.12-0.71,21.45-1.91c0.92-0.17,2.15-0.24,2.73,0" style="fill:none;stroke:#999;stroke-width:3" />
<path d="M1443.8600000000001,13.5c0.91,0.47,2.04,1.75,2.04,4.42c0,0.95-0.12,74.25-0.3,80.08" style="fill:none;stroke:#999;stroke-width:3" />
<path d="M1444.94,40.28c-5.82,14.49-9.06,20.62-18.08,33.31" style="fill:none;stroke:#999;stroke-width:3" />
<path d="M1447.97,47.9c2.09,1.71,5.52,7.28,7.28,10.6" style="fill:none;stroke:#999;stroke-width:3" />
<path d="M1484.15,11.05c0.87,0.34,2.11,2.02,2.09,3c-0.06,3.1-0.06,5.13-0.07,7.96" style="fill:none;stroke:#999;stroke-width:3" />
<path d="M1466.24,21.39c0,2.77-2.39,11.31-3.3,13.16" style="fill:none;stroke:#999;stroke-width:3" />
<path d="M1466.56,24.2c6.28-0.79,35.81-2.6,40.9-2.9c7.97-0.47,1.69,5.7-0.3,7.39" style="fill:none;stroke:#999;stroke-width:3" />
<path d="M1471.58,32.31c0.73,0.35,2.05,0.39,2.78,0.35c4.94-0.25,19.8-1.31,23.82-1.65c1.2-0.1,1.93,0.17,2.54,0.35" style="fill:none;stroke:#999;stroke-width:3" />
<path d="M1484.94,34.61c0.05,0.21,0.67,1.11,0.67,2.46c0,2.93-0.14,6.92-0.14,9.14c0,6.27-3.84,0.67-4.64,0.11" style="fill:none;stroke:#999;stroke-width:3" />
<path d="M1472.45,40.54c0.03,0.26,0.11,0.69-0.06,1.06c-1.18,2.64-6.16,7.72-10.21,10.15" style="fill:none;stroke:#999;stroke-width:3" />
<path d="M1501.42,38.3c0.11,0.56,0.01,1.97-0.66,2.68c-6.1,6.34-21.37,14.78-40.51,21.05" style="fill:none;stroke:#999;stroke-width:3" />
<path d="M1472.55,58.04c0.77,0.96,1.17,1.64,1.17,3.2c0,3.56-0.35,14.78-0.35,25.06" style="fill:none;stroke:#999;stroke-width:3" />
<path d="M1474.51,57.31c2.68-0.2,23.62-2.12,26.06-2.35c2.04-0.2,3.12,1.08,3.12,2.55c0,3.58-0.6,25.9-0.6,27.07" style="fill:none;stroke:#999;stroke-width:3" />
<path d="M1473.77,65.33c5.01-0.3,24.96-1.61,29.26-1.61" style="fill:none;stroke:black;stroke-width:3" />
<circle cx="1473.77" cy="65.33" r="5" stroke-width="0" fill="#FF2A00" opacity="0.7" />
<path d="M1537.28,38.22c0.35,0.24,2.39,0.41,3.31,0.31c3.94-0.41,15.12-0.71,21.45-1.91c0.92-0.17,2.15-0.24,2.73,0" style="fill:none;stroke:#999;stroke-width:3" />
<path d="M1552.8600000000001,13.5c0.91,0.47,2.04,1.75,2.04,4.42c0,0.95-0.12,74.25-0.3,80.08" style="fill:none;stroke:#999;stroke-width:3" />
<path d="M1553.94,40.28c-5.82,14.49-9.06,20.62-18.08,33.31" style="fill:none;stroke:#999;stroke-width:3" />
<path d="M1556.97,47.9c2.09,1.71,5.52,7.28,7.28,10.6" style="fill:none;stroke:#999;stroke-width:3" />
<path d="M1593.15,11.05c0.87,0.34,2.11,2.02,2.09,3c-0.06,3.1-0.06,5.13-0.07,7.96" style="fill:none;stroke:#999;stroke-width:3" />
<path d="M1575.24,21.39c0,2.77-2.39,11.31-3.3,13.16" style="fill:none;stroke:#999;stroke-width:3" />
<path d="M1575.56,24.2c6.28-0.79,35.81-2.6,40.9-2.9c7.97-0.47,1.69,5.7-0.3,7.39" style="fill:none;stroke:#999;stroke-width:3" />
<path d="M1580.58,32.31c0.73,0.35,2.05,0.39,2.78,0.35c4.94-0.25,19.8-1.31,23.82-1.65c1.2-0.1,1.93,0.17,2.54,0.35" style="fill:none;stroke:#999;stroke-width:3" />
<path d="M1593.94,34.61c0.05,0.21,0.67,1.11,0.67,2.46c0,2.93-0.14,6.92-0.14,9.14c0,6.27-3.84,0.67-4.64,0.11" style="fill:none;stroke:#999;stroke-width:3" />
<path d="M1581.45,40.54c0.03,0.26,0.11,0.69-0.06,1.06c-1.18,2.64-6.16,7.72-10.21,10.15" style="fill:none;stroke:#999;stroke-width:3" />
<path d="M1610.42,38.3c0.11,0.56,0.01,1.97-0.66,2.68c-6.1,6.34-21.37,14.78-40.51,21.05" style="fill:none;stroke:#999;stroke-width:3" />
<path d="M1581.55,58.04c0.77,0.96,1.17,1.64,1.17,3.2c0,3.56-0.35,14.78-0.35,25.06" style="fill:none;stroke:#999;stroke-width:3" />
<path d="M1583.51,57.31c2.68-0.2,23.62-2.12,26.06-2.35c2.04-0.2,3.12,1.08,3.12,2.55c0,3.58-0.6,25.9-0.6,27.07" style="fill:none;stroke:#999;stroke-width:3" />
<path d="M1582.77,65.33c5.01-0.3,24.96-1.61,29.26-1.61" style="fill:none;stroke:#999;stroke-width:3" />
<path d="M1582.99,73.85c7.57-0.57,21.05-1.23,29.07-1.35" style="fill:none;stroke:black;stroke-width:3" />
<circle cx="1582.99" cy="73.85" r="5" stroke-width="0" fill="#FF2A00" opacity="0.7" />
<path d="M1646.28,38.22c0.35,0.24,2.39,0.41,3.31,0.31c3.94-0.41,15.12-0.71,21.45-1.91c0.92-0.17,2.15-0.24,2.73,0" style="fill:none;stroke:#999;stroke-width:3" />
<path d="M1661.8600000000001,13.5c0.91,0.47,2.04,1.75,2.04,4.42c0,0.95-0.12,74.25-0.3,80.08" style="fill:none;stroke:#999;stroke-width:3" />
<path d="M1662.94,40.28c-5.82,14.49-9.06,20.62-18.08,33.31" style="fill:none;stroke:#999;stroke-width:3" />
<path d="M1665.97,47.9c2.09,1.71,5.52,7.28,7.28,10.6" style="fill:none;stroke:#999;stroke-width:3" />
<path d="M1702.15,11.05c0.87,0.34,2.11,2.02,2.09,3c-0.06,3.1-0.06,5.13-0.07,7.96" style="fill:none;stroke:#999;stroke-width:3" />
<path d="M1684.24,21.39c0,2.77-2.39,11.31-3.3,13.16" style="fill:none;stroke:#999;stroke-width:3" />
<path d="M1684.56,24.2c6.28-0.79,35.81-2.6,40.9-2.9c7.97-0.47,1.69,5.7-0.3,7.39" style="fill:none;stroke:#999;stroke-width:3" />
<path d="M1689.58,32.31c0.73,0.35,2.05,0.39,2.78,0.35c4.94-0.25,19.8-1.31,23.82-1.65c1.2-0.1,1.93,0.17,2.54,0.35" style="fill:none;stroke:#999;stroke-width:3" />
<path d="M1702.94,34.61c0.05,0.21,0.67,1.11,0.67,2.46c0,2.93-0.14,6.92-0.14,9.14c0,6.27-3.84,0.67-4.64,0.11" style="fill:none;stroke:#999;stroke-width:3" />
<path d="M1690.45,40.54c0.03,0.26,0.11,0.69-0.06,1.06c-1.18,2.64-6.16,7.72-10.21,10.15" style="fill:none;stroke:#999;stroke-width:3" />
<path d="M1719.42,38.3c0.11,0.56,0.01,1.97-0.66,2.68c-6.1,6.34-21.37,14.78-40.51,21.05" style="fill:none;stroke:#999;stroke-width:3" />
<path d="M1690.55,58.04c0.77,0.96,1.17,1.64,1.17,3.2c0,3.56-0.35,14.78-0.35,25.06" style="fill:none;stroke:#999;stroke-width:3" />
<path d="M1692.51,57.31c2.68-0.2,23.62-2.12,26.06-2.35c2.04-0.2,3.12,1.08,3.12,2.55c0,3.58-0.6,25.9-0.6,27.07" style="fill:none;stroke:#999;stroke-width:3" />
<path d="M1691.77,65.33c5.01-0.3,24.96-1.61,29.26-1.61" style="fill:none;stroke:#999;stroke-width:3" />
<path d="M1691.99,73.85c7.57-0.57,21.05-1.23,29.07-1.35" style="fill:none;stroke:#999;stroke-width:3" />
<path d="M1691.64,83.01c7.57-0.43,22.52-1.56,29.42-1.56" style="fill:none;stroke:black;stroke-width:3" />
<circle cx="1691.64" cy="83.01" r="5" stroke-width="0" fill="#FF2A00" opacity="0.7" />
<path d="M1755.28,38.22c0.35,0.24,2.39,0.41,3.31,0.31c3.94-0.41,15.12-0.71,21.45-1.91c0.92-0.17,2.15-0.24,2.73,0" style="fill:none;stroke:#999;stroke-width:3" />
<path d="M1770.8600000000001,13.5c0.91,0.47,2.04,1.75,2.04,4.42c0,0.95-0.12,74.25-0.3,80.08" style="fill:none;stroke:#999;stroke-width:3" />
<path d="M1771.94,40.28c-5.82,14.49-9.06,20.62-18.08,33.31" style="fill:none;stroke:#999;stroke-width:3" />
<path d="M1774.97,47.9c2.09,1.71,5.52,7.28,7.28,10.6" style="fill:none;stroke:#999;stroke-width:3" />
<path d="M1811.15,11.05c0.87,0.34,2.11,2.02,2.09,3c-0.06,3.1-0.06,5.13-0.07,7.96" style="fill:none;stroke:#999;stroke-width:3" />
<path d="M1793.24,21.39c0,2.77-2.39,11.31-3.3,13.16" style="fill:none;stroke:#999;stroke-width:3" />
<path d="M1793.56,24.2c6.28-0.79,35.81-2.6,40.9-2.9c7.97-0.47,1.69,5.7-0.3,7.39" style="fill:none;stroke:#999;stroke-width:3" />
<path d="M1798.58,32.31c0.73,0.35,2.05,0.39,2.78,0.35c4.94-0.25,19.8-1.31,23.82-1.65c1.2-0.1,1.93,0.17,2.54,0.35" style="fill:none;stroke:#999;stroke-width:3" />
<path d="M1811.94,34.61c0.05,0.21,0.67,1.11,0.67,2.46c0,2.93-0.14,6.92-0.14,9.14c0,6.27-3.84,0.67-4.64,0.11" style="fill:none;stroke:#999;stroke-width:3" />
<path d="M1799.45,40.54c0.03,0.26,0.11,0.69-0.06,1.06c-1.18,2.64-6.16,7.72-10.21,10.15" style="fill:none;stroke:#999;stroke-width:3" />
<path d="M1828.42,38.3c0.11,0.56,0.01,1.97-0.66,2.68c-6.1,6.34-21.37,14.78-40.51,21.05" style="fill:none;stroke:#999;stroke-width:3" />
<path d="M1799.55,58.04c0.77,0.96,1.17,1.64,1.17,3.2c0,3.56-0.35,14.78-0.35,25.06" style="fill:none;stroke:#999;stroke-width:3" />
<path d="M1801.51,57.31c2.68-0.2,23.62-2.12,26.06-2.35c2.04-0.2,3.12,1.08,3.12,2.55c0,3.58-0.6,25.9-0.6,27.07" style="fill:none;stroke:#999;stroke-width:3" />
<path d="M1800.77,65.33c5.01-0.3,24.96-1.61,29.26-1.61" style="fill:none;stroke:#999;stroke-width:3" />
<path d="M1800.99,73.85c7.57-0.57,21.05-1.23,29.07-1.35" style="fill:none;stroke:#999;stroke-width:3" />
<path d="M1800.64,83.01c7.57-0.43,22.52-1.56,29.42-1.56" style="fill:none;stroke:#999;stroke-width:3" />
<path d="M1807.32,87.84c0.4,0.88-0.21,2.12-1,2.76c-2.39,1.93-9.32,5.9-14.04,7.46" style="fill:none;stroke:black;stroke-width:3" />
<circle cx="1807.32" cy="87.84" r="5" stroke-width="0" fill="#FF2A00" opacity="0.7" />
<path d="M1864.28,38.22c0.35,0.24,2.39,0.41,3.31,0.31c3.94-0.41,15.12-0.71,21.45-1.91c0.92-0.17,2.15-0.24,2.73,0" style="fill:none;stroke:#999;stroke-width:3" />
<path d="M1879.8600000000001,13.5c0.91,0.47,2.04,1.75,2.04,4.42c0,0.95-0.12,74.25-0.3,80.08" style="fill:none;stroke:#999;stroke-width:3" />
<path d="M1880.94,40.28c-5.82,14.49-9.06,20.62-18.08,33.31" style="fill:none;stroke:#999;stroke-width:3" />
<path d="M1883.97,47.9c2.09,1.71,5.52,7.28,7.28,10.6" style="fill:none;stroke:#999;stroke-width:3" />
<path d="M1920.15,11.05c0.87,0.34,2.11,2.02,2.09,3c-0.06,3.1-0.06,5.13-0.07,7.96" style="fill:none;stroke:#999;stroke-width:3" />
<path d="M1902.24,21.39c0,2.77-2.39,11.31-3.3,13.16" style="fill:none;stroke:#999;stroke-width:3" />
<path d="M1902.56,24.2c6.28-0.79,35.81-2.6,40.9-2.9c7.97-0.47,1.69,5.7-0.3,7.39" style="fill:none;stroke:#999;stroke-width:3" />
<path d="M1907.58,32.31c0.73,0.35,2.05,0.39,2.78,0.35c4.94-0.25,19.8-1.31,23.82-1.65c1.2-0.1,1.93,0.17,2.54,0.35" style="fill:none;stroke:#999;stroke-width:3" />
<path d="M1920.94,34.61c0.05,0.21,0.67,1.11,0.67,2.46c0,2.93-0.14,6.92-0.14,9.14c0,6.27-3.84,0.67-4.64,0.11" style="fill:none;stroke:#999;stroke-width:3" />
<path d="M1908.45,40.54c0.03,0.26,0.11,0.69-0.06,1.06c-1.18,2.64-6.16,7.72-10.21,10.15" style="fill:none;stroke:#999;stroke-width:3" />
<path d="M1937.42,38.3c0.11,0.56,0.01,1.97-0.66,2.68c-6.1,6.34-21.37,14.78-40.51,21.05" style="fill:none;stroke:#999;stroke-width:3" />
<path d="M1908.55,58.04c0.77,0.96,1.17,1.64,1.17,3.2c0,3.56-0.35,14.78-0.35,25.06" style="fill:none;stroke:#999;stroke-width:3" />
<path d="M1910.51,57.31c2.68-0.2,23.62-2.12,26.06-2.35c2.04-0.2,3.12,1.08,3.12,2.55c0,3.58-0.6,25.9-0.6,27.07" style="fill:none;stroke:#999;stroke-width:3" />
<path d="M1909.77,65.33c5.01-0.3,24.96-1.61,29.26-1.61" style="fill:none;stroke:#999;stroke-width:3" />
<path d="M1909.99,73.85c7.57-0.57,21.05-1.23,29.07-1.35" style="fill:none;stroke:#999;stroke-width:3" />
<path d="M1909.64,83.01c7.57-0.43,22.52-1.56,29.42-1.56" style="fill:none;stroke:#999;stroke-width:3" />
<path d="M1916.32,87.84c0.4,0.88-0.21,2.12-1,2.76c-2.39,1.93-9.32,5.9-14.04,7.46" style="fill:none;stroke:#999;stroke-width:3" />
<path d="M1932.5,88.11c5.97,2.8,13.03,7.88,14.66,10.33" style="fill:none;stroke:black;stroke-width:3" />
<circle cx="1932.5" cy="88.11" r="5" stroke-width="0" fill="#FF2A00" opacity="0.7" />
</svg>