<!-- 06ad1 -->
<svg width="2071px" height="109px" viewBox="0 0 2071px 109px" xmlns="http://www.w3.org/2000/svg" xmlns:xlink="http://www.w3.org/1999/xlink" xml:space="preserve" version="1.1"  baseProfile="full">
<line x1="1" y1="1" x2="2070" y2="1" style="stroke:#ddd;stroke-width:2" />
<line x1="1" y1="1" x2="1" y2="108" style="stroke:#ddd;stroke-width:2" />
<line x1="1" y1="108" x2="2070" y2="108" style="stroke:#ddd;stroke-width:2" />
<line x1="2070" y1="1" x2="2070" y2="108" style="stroke:#ddd;stroke-width:2" />
<line x1="109" y1="1" x2="109" y2="108" style="stroke:#ddd;stroke-width:2" />
<line x1="218" y1="1" x2="218" y2="108" style="stroke:#ddd;stroke-width:2" />
<line x1="327" y1="1" x2="327" y2="108" style="stroke:#ddd;stroke-width:2" />
<line x1="436" y1="1" x2="436" y2="108" style="stroke:#ddd;stroke-width:2" />
<line x1="545" y1="1" x2="545" y2="108" style="stroke:#ddd;stroke-width:2" />
<line x1="654" y1="1" x2="654" y2="108" style="stroke:#ddd;stroke-width:2" />
<line x1="763" y1="1" x2="763" y2="108" style="stroke:#ddd;stroke-width:2" />
<line x1="872" y1="1" x2="872" y2="108" style="stroke:#ddd;stroke-width:2" />
<line x1="981" y1="1" x2="981" y2="108" style="stroke:#ddd;stroke-width:2" />
<line x1="1090" y1="1" x2="1090" y2="108" style="stroke:#ddd;stroke-width:2" />
<line x1="1199" y1="1" x2="1199" y2="108" style="stroke:#ddd;stroke-width:2" />
<line x1="1308" y1="1" x2="1308" y2="108" style="stroke:#ddd;stroke-width:2" />
<line x1="1417" y1="1" x2="1417" y2="108" style="stroke:#ddd;stroke-width:2" />
<line x1="1526" y1="1" x2="1526" y2="108" style="stroke:#ddd;stroke-width:2" />
<line x1="1635" y1="1" x2="1635" y2="108" style="stroke:#ddd;stroke-width:2" />
<line x1="1744" y1="1" x2="1744" y2="108" style="stroke:#ddd;stroke-width:2" />
<line x1="1853" y1="1" x2="1853" y2="108" style="stroke:#ddd;stroke-width:2" />
<line x1="1962" y1="1" x2="1962" y2="108" style="stroke:#ddd;stroke-width:2" />
<line x1="1" y1="54" x2="2070" y2="54" style="stroke:#ddd;stroke-width:2;stroke-dasharray:3 3" />
<line x1="55" y1="1" x2="55" y2="108" style="stroke:#ddd;stroke-width:2;stroke-dasharray:3 3" />
<line x1="164" y1="1" x2="164" y2="108" style="stroke:#ddd;stroke-width:2;stroke-dasharray:3 3" />
<line x1="273" y1="1" x2="273" y2="108" style="stroke:#ddd;stroke-width:2;stroke-dasharray:3 3" />
<line x1="382" y1="1" x2="382" y2="108" style="stroke:#ddd;stroke-width:2;stroke-dasharray:3 3" />
<line x1="491" y1="1" x2="491" y2="108" style="stroke:#ddd;stroke-width:2;stroke-dasharray:3 3" />
<line x1="600" y1="1" x2="600" y2="108" style="stroke:#ddd;stroke-width:2;stroke-dasharray:3 3" />
<line x1="709" y1="1" x2="709" y2="108" style="stroke:#ddd;stroke-width:2;stroke-dasharray:3 3" />
<line x1="818" y1="1" x2="818" y2="108" style="stroke:#ddd;stroke-width:2;stroke-dasharray:3 3" />
<line x1="927" y1="1" x2="927" y2="108" style="stroke:#ddd;stroke-width:2;stroke-dasharray:3 3" />
<line x1="1036" y1="1" x2="1036" y2="108" style="stroke:#ddd;stroke-width:2;stroke-dasharray:3 3" />
<line x1="1145" y1="1" x2="1145" y2="108" style="stroke:#ddd;stroke-width:2;stroke-dasharray:3 3" />
<line x1="1254" y1="1" x2="1254" y2="108" style="stroke:#ddd;stroke-width:2;stroke-dasharray:3 3" />
<line x1="1363" y1="1" x2="1363" y2="108" style="stroke:#ddd;stroke-width:2;stroke-dasharray:3 3" />
<line x1="1472" y1="1" x2="1472" y2="108" style="stroke:#ddd;stroke-width:2;stroke-dasharray:3 3" />
<line x1="1581" y1="1" x2="1581" y2="108" style="stroke:#ddd;stroke-width:2;stroke-dasharray:3 3" />
<line x1="1690" y1="1" x2="1690" y2="108" style="stroke:#ddd;stroke-width:2;stroke-dasharray:3 3" />
<line x1="1799" y1="1" x2="1799" y2="108" style="stroke:#ddd;stroke-width:2;stroke-dasharray:3 3" />
<line x1="1908" y1="1" x2="1908" y2="108" style="stroke:#ddd;stroke-width:2;stroke-dasharray:3 3" />
<line x1="2017" y1="1" x2="2017" y2="108" style="stroke:#ddd;stroke-width:2;stroke-dasharray:3 3" />
<path d="M11.28,37.72c0.35,0.24,2.39,0.41,3.31,0.31c3.94-0.41,16.12-1.21,22.45-2.41c0.92-0.17,2.15-0.24,2.73,0" style="fill:none;stroke:black;stroke-width:3" />
<circle cx="11.28" cy="37.72" r="5" stroke-width="0" fill="#FF2A00" opacity="0.7" />
<path d="M120.28,37.72c0.35,0.24,2.39,0.41,3.31,0.31c3.94-0.41,16.12-1.21,22.45-2.41c0.92-0.17,2.15-0.24,2.73,0" style="fill:none;stroke:#999;stroke-width:3" />
<path d="M134.86,14.5c0.91,0.47,2.04,2.25,2.04,4.42c0,0.95-0.12,69.75-0.3,75.58" style="fill:none;stroke:black;stroke-width:3" />
<circle cx="134.86" cy="14.5" r="5" stroke-width="0" fill="#FF2A00" opacity="0.7" />
<path d="M229.28,37.72c0.35,0.24,2.39,0.41,3.31,0.31c3.94-0.41,16.12-1.21,22.45-2.41c0.92-0.17,2.15-0.24,2.73,0" style="fill:none;stroke:#999;stroke-width:3" />
<path d="M243.86,14.5c0.91,0.47,2.04,2.25,2.04,4.42c0,0.95-0.12,69.75-0.3,75.58" style="fill:none;stroke:#999;stroke-width:3" />
<path d="M245.94,39.28c-5.42,15.94-8.44,21.61-16.83,35.56" style="fill:none;stroke:black;stroke-width:3" />
<circle cx="245.94" cy="39.28" r="5" stroke-width="0" fill="#FF2A00" opacity="0.7" />
<path d="M338.28,37.72c0.35,0.24,2.39,0.41,3.31,0.31c3.94-0.41,16.12-1.21,22.45-2.41c0.92-0.17,2.15-0.24,2.73,0" style="fill:none;stroke:#999;stroke-width:3" />
<path d="M352.86,14.5c0.91,0.47,2.04,2.25,2.04,4.42c0,0.95-0.12,69.75-0.3,75.58" style="fill:none;stroke:#999;stroke-width:3" />
<path d="M354.94,39.28c-5.42,15.94-8.44,21.61-16.83,35.56" style="fill:none;stroke:#999;stroke-width:3" />
<path d="M357.47,43.9c2.23,1.77,5.9,6.42,7.78,9.85" style="fill:none;stroke:black;stroke-width:3" />
<circle cx="357.47" cy="43.9" r="5" stroke-width="0" fill="#FF2A00" opacity="0.7" />
<path d="M447.28,37.72c0.35,0.24,2.39,0.41,3.31,0.31c3.94-0.41,16.12-1.21,22.45-2.41c0.92-0.17,2.15-0.24,2.73,0" style="fill:none;stroke:#999;stroke-width:3" />
<path d="M461.86,14.5c0.91,0.47,2.04,2.25,2.04,4.42c0,0.95-0.12,69.75-0.3,75.58" style="fill:none;stroke:#999;stroke-width:3" />
<path d="M463.94,39.28c-5.42,15.94-8.44,21.61-16.83,35.56" style="fill:none;stroke:#999;stroke-width:3" />
<path d="M466.47,43.9c2.23,1.77,5.9,6.42,7.78,9.85" style="fill:none;stroke:#999;stroke-width:3" />
<path d="M482.0,16.41c0.3,0.54,0.81,1.4,0.97,2.06C484.31,23.9 486.01,36.98 486.8,47" style="fill:none;stroke:black;stroke-width:3" />
<circle cx="482.0" cy="16.41" r="5" stroke-width="0" fill="#FF2A00" opacity="0.7" />
<path d="M556.28,37.72c0.35,0.24,2.39,0.41,3.31,0.31c3.94-0.41,16.12-1.21,22.45-2.41c0.92-0.17,2.15-0.24,2.73,0" style="fill:none;stroke:#999;stroke-width:3" />
<path d="M570.86,14.5c0.91,0.47,2.04,2.25,2.04,4.42c0,0.95-0.12,69.75-0.3,75.58" style="fill:none;stroke:#999;stroke-width:3" />
<path d="M572.94,39.28c-5.42,15.94-8.44,21.61-16.83,35.56" style="fill:none;stroke:#999;stroke-width:3" />
<path d="M575.47,43.9c2.23,1.77,5.9,6.42,7.78,9.85" style="fill:none;stroke:#999;stroke-width:3" />
<path d="M591.0,16.41c0.3,0.54,0.81,1.4,0.97,2.06C593.31,23.9 595.01,36.98 595.8,47" style="fill:none;stroke:#999;stroke-width:3" />
<path d="M592.92,18.23c13.33-1.73,27.37-2.47,35.31-3c2.92-0.2,4.4,1.38,4.24,2.84C631.89,23.4 630.0,34.5 627.79,44.58" style="fill:none;stroke:black;stroke-width:3" />
<circle cx="592.92" cy="18.23" r="5" stroke-width="0" fill="#FF2A00" opacity="0.7" />
<path d="M665.28,37.72c0.35,0.24,2.39,0.41,3.31,0.31c3.94-0.41,16.12-1.21,22.45-2.41c0.92-0.17,2.15-0.24,2.73,0" style="fill:none;stroke:#999;stroke-width:3" />
<path d="M679.86,14.5c0.91,0.47,2.04,2.25,2.04,4.42c0,0.95-0.12,69.75-0.3,75.58" style="fill:none;stroke:#999;stroke-width:3" />
<path d="M681.94,39.28c-5.42,15.94-8.44,21.61-16.83,35.56" style="fill:none;stroke:#999;stroke-width:3" />
<path d="M684.47,43.9c2.23,1.77,5.9,6.42,7.78,9.85" style="fill:none;stroke:#999;stroke-width:3" />
<path d="M700.0,16.41c0.3,0.54,0.81,1.4,0.97,2.06C702.31,23.9 704.01,36.98 704.8,47" style="fill:none;stroke:#999;stroke-width:3" />
<path d="M701.92,18.23c13.33-1.73,27.37-2.47,35.31-3c2.92-0.2,4.4,1.38,4.24,2.84C740.89,23.4 739.0,34.5 736.79,44.58" style="fill:none;stroke:#999;stroke-width:3" />
<path d="M718.9,17.58c1.1,0.17,1.47,1.15,1.46,2.11c-0.04,6.31,0.19,21.5,0.19,23.78" style="fill:none;stroke:black;stroke-width:3" />
<circle cx="718.9" cy="17.58" r="5" stroke-width="0" fill="#FF2A00" opacity="0.7" />
<path d="M774.28,37.72c0.35,0.24,2.39,0.41,3.31,0.31c3.94-0.41,16.12-1.21,22.45-2.41c0.92-0.17,2.15-0.24,2.73,0" style="fill:none;stroke:#999;stroke-width:3" />
<path d="M788.86,14.5c0.91,0.47,2.04,2.25,2.04,4.42c0,0.95-0.12,69.75-0.3,75.58" style="fill:none;stroke:#999;stroke-width:3" />
<path d="M790.94,39.28c-5.42,15.94-8.44,21.61-16.83,35.56" style="fill:none;stroke:#999;stroke-width:3" />
<path d="M793.47,43.9c2.23,1.77,5.9,6.42,7.78,9.85" style="fill:none;stroke:#999;stroke-width:3" />
<path d="M809.0,16.41c0.3,0.54,0.81,1.4,0.97,2.06C811.31,23.9 813.01,36.98 813.8,47" style="fill:none;stroke:#999;stroke-width:3" />
<path d="M810.92,18.23c13.33-1.73,27.37-2.47,35.31-3c2.92-0.2,4.4,1.38,4.24,2.84C849.89,23.4 848.0,34.5 845.79,44.58" style="fill:none;stroke:#999;stroke-width:3" />
<path d="M827.9,17.58c1.1,0.17,1.47,1.15,1.46,2.11c-0.04,6.31,0.19,21.5,0.19,23.78" style="fill:none;stroke:#999;stroke-width:3" />
<path d="M813.32,31.68c3.47-0.26,31.91-2.85,34.77-2.85" style="fill:none;stroke:black;stroke-width:3" />
<circle cx="813.32" cy="31.68" r="5" stroke-width="0" fill="#FF2A00" opacity="0.7" />
<path d="M883.28,37.72c0.35,0.24,2.39,0.41,3.31,0.31c3.94-0.41,16.12-1.21,22.45-2.41c0.92-0.17,2.15-0.24,2.73,0" style="fill:none;stroke:#999;stroke-width:3" />
<path d="M897.86,14.5c0.91,0.47,2.04,2.25,2.04,4.42c0,0.95-0.12,69.75-0.3,75.58" style="fill:none;stroke:#999;stroke-width:3" />
<path d="M899.94,39.28c-5.42,15.94-8.44,21.61-16.83,35.56" style="fill:none;stroke:#999;stroke-width:3" />
<path d="M902.47,43.9c2.23,1.77,5.9,6.42,7.78,9.85" style="fill:none;stroke:#999;stroke-width:3" />
<path d="M918.0,16.41c0.3,0.54,0.81,1.4,0.97,2.06C920.31,23.9 922.01,36.98 922.8,47" style="fill:none;stroke:#999;stroke-width:3" />
<path d="M919.92,18.23c13.33-1.73,27.37-2.47,35.31-3c2.92-0.2,4.4,1.38,4.24,2.84C958.89,23.4 957.0,34.5 954.79,44.58" style="fill:none;stroke:#999;stroke-width:3" />
<path d="M936.9,17.58c1.1,0.17,1.47,1.15,1.46,2.11c-0.04,6.31,0.19,21.5,0.19,23.78" style="fill:none;stroke:#999;stroke-width:3" />
<path d="M922.32,31.68c3.47-0.26,31.91-2.85,34.77-2.85" style="fill:none;stroke:#999;stroke-width:3" />
<path d="M923.36,45.09c9.89-0.84,19.39-1.84,31.02-2.36" style="fill:none;stroke:black;stroke-width:3" />
<circle cx="923.36" cy="45.09" r="5" stroke-width="0" fill="#FF2A00" opacity="0.7" />
<path d="M992.28,37.72c0.35,0.24,2.39,0.41,3.31,0.31c3.94-0.41,16.12-1.21,22.45-2.41c0.92-0.17,2.15-0.24,2.73,0" style="fill:none;stroke:#999;stroke-width:3" />
<path d="M1006.86,14.5c0.91,0.47,2.04,2.25,2.04,4.42c0,0.95-0.12,69.75-0.3,75.58" style="fill:none;stroke:#999;stroke-width:3" />
<path d="M1008.94,39.28c-5.42,15.94-8.44,21.61-16.83,35.56" style="fill:none;stroke:#999;stroke-width:3" />
<path d="M1011.47,43.9c2.23,1.77,5.9,6.42,7.78,9.85" style="fill:none;stroke:#999;stroke-width:3" />
<path d="M1027.0,16.41c0.3,0.54,0.81,1.4,0.97,2.06C1029.31,23.9 1031.01,36.98 1031.8,47" style="fill:none;stroke:#999;stroke-width:3" />
<path d="M1028.92,18.23c13.33-1.73,27.37-2.47,35.31-3c2.92-0.2,4.4,1.38,4.24,2.84C1067.8899999999999,23.4 1066.0,34.5 1063.79,44.58" style="fill:none;stroke:#999;stroke-width:3" />
<path d="M1045.9,17.58c1.1,0.17,1.47,1.15,1.46,2.11c-0.04,6.31,0.19,21.5,0.19,23.78" style="fill:none;stroke:#999;stroke-width:3" />
<path d="M1031.3200000000002,31.68c3.47-0.26,31.91-2.85,34.77-2.85" style="fill:none;stroke:#999;stroke-width:3" />
<path d="M1032.3600000000001,45.09c9.89-0.84,19.39-1.84,31.02-2.36" style="fill:none;stroke:#999;stroke-width:3" />
<path d="M1023.5,59.58c0.16,0.61,0.67,1.52,0.75,2.28c0.72,6.21,1.88,21.21,2.3,32.65" style="fill:none;stroke:black;stroke-width:3" />
<circle cx="1023.5" cy="59.58" r="5" stroke-width="0" fill="#FF2A00" opacity="0.7" />
<path d="M1101.28,37.72c0.35,0.24,2.39,0.41,3.31,0.31c3.94-0.41,16.12-1.21,22.45-2.41c0.92-0.17,2.15-0.24,2.73,0" style="fill:none;stroke:#999;stroke-width:3" />
<path d="M1115.8600000000001,14.5c0.91,0.47,2.04,2.25,2.04,4.42c0,0.95-0.12,69.75-0.3,75.58" style="fill:none;stroke:#999;stroke-width:3" />
<path d="M1117.94,39.28c-5.42,15.94-8.44,21.61-16.83,35.56" style="fill:none;stroke:#999;stroke-width:3" />
<path d="M1120.47,43.9c2.23,1.77,5.9,6.42,7.78,9.85" style="fill:none;stroke:#999;stroke-width:3" />
<path d="M1136.0,16.41c0.3,0.54,0.81,1.4,0.97,2.06C1138.31,23.9 1140.01,36.98 1140.8,47" style="fill:none;stroke:#999;stroke-width:3" />
<path d="M1137.92,18.23c13.33-1.73,27.37-2.47,35.31-3c2.92-0.2,4.4,1.38,4.24,2.84C1176.8899999999999,23.4 1175.0,34.5 1172.79,44.58" style="fill:none;stroke:#999;stroke-width:3" />
<path d="M1154.9,17.58c1.1,0.17,1.47,1.15,1.46,2.11c-0.04,6.31,0.19,21.5,0.19,23.78" style="fill:none;stroke:#999;stroke-width:3" />
<path d="M1140.3200000000002,31.68c3.47-0.26,31.91-2.85,34.77-2.85" style="fill:none;stroke:#999;stroke-width:3" />
<path d="M1141.3600000000001,45.09c9.89-0.84,19.39-1.84,31.02-2.36" style="fill:none;stroke:#999;stroke-width:3" />
<path d="M1132.5,59.58c0.16,0.61,0.67,1.52,0.75,2.28c0.72,6.21,1.88,21.21,2.3,32.65" style="fill:none;stroke:#999;stroke-width:3" />
<path d="M1133.27,60.51c5.75-0.63,15.62-2.18,19.92-2.79c1.58-0.22,2.38,1.58,2.3,3.24c-0.31,6.1-1.63,22.8-1.95,32.35" style="fill:none;stroke:black;stroke-width:3" />
<circle cx="1133.27" cy="60.51" r="5" stroke-width="0" fill="#FF2A00" opacity="0.7" />
<path d="M1210.28,37.72c0.35,0.24,2.39,0.41,3.31,0.31c3.94-0.41,16.12-1.21,22.45-2.41c0.92-0.17,2.15-0.24,2.73,0" style="fill:none;stroke:#999;stroke-width:3" />
<path d="M1224.8600000000001,14.5c0.91,0.47,2.04,2.25,2.04,4.42c0,0.95-0.12,69.75-0.3,75.58" style="fill:none;stroke:#999;stroke-width:3" />
<path d="M1226.94,39.28c-5.42,15.94-8.44,21.61-16.83,35.56" style="fill:none;stroke:#999;stroke-width:3" />
<path d="M1229.47,43.9c2.23,1.77,5.9,6.42,7.78,9.85" style="fill:none;stroke:#999;stroke-width:3" />
<path d="M1245.0,16.41c0.3,0.54,0.81,1.4,0.97,2.06C1247.31,23.9 1249.01,36.98 1249.8,47" style="fill:none;stroke:#999;stroke-width:3" />
<path d="M1246.92,18.23c13.33-1.73,27.37-2.47,35.31-3c2.92-0.2,4.4,1.38,4.24,2.84C1285.8899999999999,23.4 1284.0,34.5 1281.79,44.58" style="fill:none;stroke:#999;stroke-width:3" />
<path d="M1263.9,17.58c1.1,0.17,1.47,1.15,1.46,2.11c-0.04,6.31,0.19,21.5,0.19,23.78" style="fill:none;stroke:#999;stroke-width:3" />
<path d="M1249.3200000000002,31.68c3.47-0.26,31.91-2.85,34.77-2.85" style="fill:none;stroke:#999;stroke-width:3" />
<path d="M1250.3600000000001,45.09c9.89-0.84,19.39-1.84,31.02-2.36" style="fill:none;stroke:#999;stroke-width:3" />
<path d="M1241.5,59.58c0.16,0.61,0.67,1.52,0.75,2.28c0.72,6.21,1.88,21.21,2.3,32.65" style="fill:none;stroke:#999;stroke-width:3" />
<path d="M1242.27,60.51c5.75-0.63,15.62-2.18,19.92-2.79c1.58-0.22,2.38,1.58,2.3,3.24c-0.31,6.1-1.63,22.8-1.95,32.35" style="fill:none;stroke:#999;stroke-width:3" />
<path d="M1252.08,60.34c0.42,0.41,0.98,1.31,0.98,2.41c-0.02,7.2,0.1,25.68,0.1,28.29" style="fill:none;stroke:black;stroke-width:3" />
<circle cx="1252.08" cy="60.34" r="5" stroke-width="0" fill="#FF2A00" opacity="0.7" />
<path d="M1319.28,37.72c0.35,0.24,2.39,0.41,3.31,0.31c3.94-0.41,16.12-1.21,22.45-2.41c0.92-0.17,2.15-0.24,2.73,0" style="fill:none;stroke:#999;stroke-width:3" />
<path d="M1333.8600000000001,14.5c0.91,0.47,2.04,2.25,2.04,4.42c0,0.95-0.12,69.75-0.3,75.58" style="fill:none;stroke:#999;stroke-width:3" />
<path d="M1335.94,39.28c-5.42,15.94-8.44,21.61-16.83,35.56" style="fill:none;stroke:#999;stroke-width:3" />
<path d="M1338.47,43.9c2.23,1.77,5.9,6.42,7.78,9.85" style="fill:none;stroke:#999;stroke-width:3" />
<path d="M1354.0,16.41c0.3,0.54,0.81,1.4,0.97,2.06C1356.31,23.9 1358.01,36.98 1358.8,47" style="fill:none;stroke:#999;stroke-width:3" />
<path d="M1355.92,18.23c13.33-1.73,27.37-2.47,35.31-3c2.92-0.2,4.4,1.38,4.24,2.84C1394.8899999999999,23.4 1393.0,34.5 1390.79,44.58" style="fill:none;stroke:#999;stroke-width:3" />
<path d="M1372.9,17.58c1.1,0.17,1.47,1.15,1.46,2.11c-0.04,6.31,0.19,21.5,0.19,23.78" style="fill:none;stroke:#999;stroke-width:3" />
<path d="M1358.3200000000002,31.68c3.47-0.26,31.91-2.85,34.77-2.85" style="fill:none;stroke:#999;stroke-width:3" />
<path d="M1359.3600000000001,45.09c9.89-0.84,19.39-1.84,31.02-2.36" style="fill:none;stroke:#999;stroke-width:3" />
<path d="M1350.5,59.58c0.16,0.61,0.67,1.52,0.75,2.28c0.72,6.21,1.88,21.21,2.3,32.65" style="fill:none;stroke:#999;stroke-width:3" />
<path d="M1351.27,60.51c5.75-0.63,15.62-2.18,19.92-2.79c1.58-0.22,2.38,1.58,2.3,3.24c-0.31,6.1-1.63,22.8-1.95,32.35" style="fill:none;stroke:#999;stroke-width:3" />
<path d="M1361.08,60.34c0.42,0.41,0.98,1.31,0.98,2.41c-0.02,7.2,0.1,25.68,0.1,28.29" style="fill:none;stroke:#999;stroke-width:3" />
<path d="M1352.79,75.94c1.88-0.3,17.84-1.61,19.39-1.61" style="fill:none;stroke:black;stroke-width:3" />
<circle cx="1352.79" cy="75.94" r="5" stroke-width="0" fill="#FF2A00" opacity="0.7" />
<path d="M1428.28,37.72c0.35,0.24,2.39,0.41,3.31,0.31c3.94-0.41,16.12-1.21,22.45-2.41c0.92-0.17,2.15-0.24,2.73,0" style="fill:none;stroke:#999;stroke-width:3" />
<path d="M1442.8600000000001,14.5c0.91,0.47,2.04,2.25,2.04,4.42c0,0.95-0.12,69.75-0.3,75.58" style="fill:none;stroke:#999;stroke-width:3" />
<path d="M1444.94,39.28c-5.42,15.94-8.44,21.61-16.83,35.56" style="fill:none;stroke:#999;stroke-width:3" />
<path d="M1447.47,43.9c2.23,1.77,5.9,6.42,7.78,9.85" style="fill:none;stroke:#999;stroke-width:3" />
<path d="M1463.0,16.41c0.3,0.54,0.81,1.4,0.97,2.06C1465.31,23.9 1467.01,36.98 1467.8,47" style="fill:none;stroke:#999;stroke-width:3" />
<path d="M1464.92,18.23c13.33-1.73,27.37-2.47,35.31-3c2.92-0.2,4.4,1.38,4.24,2.84C1503.8899999999999,23.4 1502.0,34.5 1499.79,44.58" style="fill:none;stroke:#999;stroke-width:3" />
<path d="M1481.9,17.58c1.1,0.17,1.47,1.15,1.46,2.11c-0.04,6.31,0.19,21.5,0.19,23.78" style="fill:none;stroke:#999;stroke-width:3" />
<path d="M1467.3200000000002,31.68c3.47-0.26,31.91-2.85,34.77-2.85" style="fill:none;stroke:#999;stroke-width:3" />
<path d="M1468.3600000000001,45.09c9.89-0.84,19.39-1.84,31.02-2.36" style="fill:none;stroke:#999;stroke-width:3" />
<path d="M1459.5,59.58c0.16,0.61,0.67,1.52,0.75,2.28c0.72,6.21,1.88,21.21,2.3,32.65" style="fill:none;stroke:#999;stroke-width:3" />
<path d="M1460.27,60.51c5.75-0.63,15.62-2.18,19.92-2.79c1.58-0.22,2.38,1.58,2.3,3.24c-0.31,6.1-1.63,22.8-1.95,32.35" style="fill:none;stroke:#999;stroke-width:3" />
<path d="M1470.08,60.34c0.42,0.41,0.98,1.31,0.98,2.41c-0.02,7.2,0.1,25.68,0.1,28.29" style="fill:none;stroke:#999;stroke-width:3" />
<path d="M1461.79,75.94c1.88-0.3,17.84-1.61,19.39-1.61" style="fill:none;stroke:#999;stroke-width:3" />
<path d="M1462.86,91.89c4.14,0,12-1.39,17.72-1.55" style="fill:none;stroke:black;stroke-width:3" />
<circle cx="1462.86" cy="91.89" r="5" stroke-width="0" fill="#FF2A00" opacity="0.7" />
<path d="M1537.28,37.72c0.35,0.24,2.39,0.41,3.31,0.31c3.94-0.41,16.12-1.21,22.45-2.41c0.92-0.17,2.15-0.24,2.73,0" style="fill:none;stroke:#999;stroke-width:3" />
<path d="M1551.8600000000001,14.5c0.91,0.47,2.04,2.25,2.04,4.42c0,0.95-0.12,69.75-0.3,75.58" style="fill:none;stroke:#999;stroke-width:3" />
<path d="M1553.94,39.28c-5.42,15.94-8.44,21.61-16.83,35.56" style="fill:none;stroke:#999;stroke-width:3" />
<path d="M1556.47,43.9c2.23,1.77,5.9,6.42,7.78,9.85" style="fill:none;stroke:#999;stroke-width:3" />
<path d="M1572.0,16.41c0.3,0.54,0.81,1.4,0.97,2.06C1574.31,23.9 1576.01,36.98 1576.8,47" style="fill:none;stroke:#999;stroke-width:3" />
<path d="M1573.92,18.23c13.33-1.73,27.37-2.47,35.31-3c2.92-0.2,4.4,1.38,4.24,2.84C1612.8899999999999,23.4 1611.0,34.5 1608.79,44.58" style="fill:none;stroke:#999;stroke-width:3" />
<path d="M1590.9,17.58c1.1,0.17,1.47,1.15,1.46,2.11c-0.04,6.31,0.19,21.5,0.19,23.78" style="fill:none;stroke:#999;stroke-width:3" />
<path d="M1576.3200000000002,31.68c3.47-0.26,31.91-2.85,34.77-2.85" style="fill:none;stroke:#999;stroke-width:3" />
<path d="M1577.3600000000001,45.09c9.89-0.84,19.39-1.84,31.02-2.36" style="fill:none;stroke:#999;stroke-width:3" />
<path d="M1568.5,59.58c0.16,0.61,0.67,1.52,0.75,2.28c0.72,6.21,1.88,21.21,2.3,32.65" style="fill:none;stroke:#999;stroke-width:3" />
<path d="M1569.27,60.51c5.75-0.63,15.62-2.18,19.92-2.79c1.58-0.22,2.38,1.58,2.3,3.24c-0.31,6.1-1.63,22.8-1.95,32.35" style="fill:none;stroke:#999;stroke-width:3" />
<path d="M1579.08,60.34c0.42,0.41,0.98,1.31,0.98,2.41c-0.02,7.2,0.1,25.68,0.1,28.29" style="fill:none;stroke:#999;stroke-width:3" />
<path d="M1570.79,75.94c1.88-0.3,17.84-1.61,19.39-1.61" style="fill:none;stroke:#999;stroke-width:3" />
<path d="M1571.86,91.89c4.14,0,12-1.39,17.72-1.55" style="fill:none;stroke:#999;stroke-width:3" />
<path d="M1598.25,57.4c0.19,0.65,0.69,1.58,0.79,2.37c0.83,6.55,2.09,21.41,2.58,33.47" style="fill:none;stroke:black;stroke-width:3" />
<circle cx="1598.25" cy="57.4" r="5" stroke-width="0" fill="#FF2A00" opacity="0.7" />
<path d="M1646.28,37.72c0.35,0.24,2.39,0.41,3.31,0.31c3.94-0.41,16.12-1.21,22.45-2.41c0.92-0.17,2.15-0.24,2.73,0" style="fill:none;stroke:#999;stroke-width:3" />
<path d="M1660.8600000000001,14.5c0.91,0.47,2.04,2.25,2.04,4.42c0,0.95-0.12,69.75-0.3,75.58" style="fill:none;stroke:#999;stroke-width:3" />
<path d="M1662.94,39.28c-5.42,15.94-8.44,21.61-16.83,35.56" style="fill:none;stroke:#999;stroke-width:3" />
<path d="M1665.47,43.9c2.23,1.77,5.9,6.42,7.78,9.85" style="fill:none;stroke:#999;stroke-width:3" />
<path d="M1681.0,16.41c0.3,0.54,0.81,1.4,0.97,2.06C1683.31,23.9 1685.01,36.98 1685.8,47" style="fill:none;stroke:#999;stroke-width:3" />
<path d="M1682.92,18.23c13.33-1.73,27.37-2.47,35.31-3c2.92-0.2,4.4,1.38,4.24,2.84C1721.8899999999999,23.4 1720.0,34.5 1717.79,44.58" style="fill:none;stroke:#999;stroke-width:3" />
<path d="M1699.9,17.58c1.1,0.17,1.47,1.15,1.46,2.11c-0.04,6.31,0.19,21.5,0.19,23.78" style="fill:none;stroke:#999;stroke-width:3" />
<path d="M1685.3200000000002,31.68c3.47-0.26,31.91-2.85,34.77-2.85" style="fill:none;stroke:#999;stroke-width:3" />
<path d="M1686.3600000000001,45.09c9.89-0.84,19.39-1.84,31.02-2.36" style="fill:none;stroke:#999;stroke-width:3" />
<path d="M1677.5,59.58c0.16,0.61,0.67,1.52,0.75,2.28c0.72,6.21,1.88,21.21,2.3,32.65" style="fill:none;stroke:#999;stroke-width:3" />
<path d="M1678.27,60.51c5.75-0.63,15.62-2.18,19.92-2.79c1.58-0.22,2.38,1.58,2.3,3.24c-0.31,6.1-1.63,22.8-1.95,32.35" style="fill:none;stroke:#999;stroke-width:3" />
<path d="M1688.08,60.34c0.42,0.41,0.98,1.31,0.98,2.41c-0.02,7.2,0.1,25.68,0.1,28.29" style="fill:none;stroke:#999;stroke-width:3" />
<path d="M1679.79,75.94c1.88-0.3,17.84-1.61,19.39-1.61" style="fill:none;stroke:#999;stroke-width:3" />
<path d="M1680.86,91.89c4.14,0,12-1.39,17.72-1.55" style="fill:none;stroke:#999;stroke-width:3" />
<path d="M1707.25,57.4c0.19,0.65,0.69,1.58,0.79,2.37c0.83,6.55,2.09,21.41,2.58,33.47" style="fill:none;stroke:#999;stroke-width:3" />
<path d="M1708.13,58.89c6.63-0.66,16-2.77,20.95-3.41c1.82-0.23,2.74,1.66,2.65,3.42c-0.36,6.43-2.23,21.35-3.18,32.55" style="fill:none;stroke:black;stroke-width:3" />
<circle cx="1708.13" cy="58.89" r="5" stroke-width="0" fill="#FF2A00" opacity="0.7" />
<path d="M1755.28,37.72c0.35,0.24,2.39,0.41,3.31,0.31c3.94-0.41,16.12-1.21,22.45-2.41c0.92-0.17,2.15-0.24,2.73,0" style="fill:none;stroke:#999;stroke-width:3" />
<path d="M1769.8600000000001,14.5c0.91,0.47,2.04,2.25,2.04,4.42c0,0.95-0.12,69.75-0.3,75.58" style="fill:none;stroke:#999;stroke-width:3" />
<path d="M1771.94,39.28c-5.42,15.94-8.44,21.61-16.83,35.56" style="fill:none;stroke:#999;stroke-width:3" />
<path d="M1774.47,43.9c2.23,1.77,5.9,6.42,7.78,9.85" style="fill:none;stroke:#999;stroke-width:3" />
<path d="M1790.0,16.41c0.3,0.54,0.81,1.4,0.97,2.06C1792.31,23.9 1794.01,36.98 1794.8,47" style="fill:none;stroke:#999;stroke-width:3" />
<path d="M1791.92,18.23c13.33-1.73,27.37-2.47,35.31-3c2.92-0.2,4.4,1.38,4.24,2.84C1830.8899999999999,23.4 1829.0,34.5 1826.79,44.58" style="fill:none;stroke:#999;stroke-width:3" />
<path d="M1808.9,17.58c1.1,0.17,1.47,1.15,1.46,2.11c-0.04,6.31,0.19,21.5,0.19,23.78" style="fill:none;stroke:#999;stroke-width:3" />
<path d="M1794.3200000000002,31.68c3.47-0.26,31.91-2.85,34.77-2.85" style="fill:none;stroke:#999;stroke-width:3" />
<path d="M1795.3600000000001,45.09c9.89-0.84,19.39-1.84,31.02-2.36" style="fill:none;stroke:#999;stroke-width:3" />
<path d="M1786.5,59.58c0.16,0.61,0.67,1.52,0.75,2.28c0.72,6.21,1.88,21.21,2.3,32.65" style="fill:none;stroke:#999;stroke-width:3" />
<path d="M1787.27,60.51c5.75-0.63,15.62-2.18,19.92-2.79c1.58-0.22,2.38,1.58,2.3,3.24c-0.31,6.1-1.63,22.8-1.95,32.35" style="fill:none;stroke:#999;stroke-width:3" />
<path d="M1797.08,60.34c0.42,0.41,0.98,1.31,0.98,2.41c-0.02,7.2,0.1,25.68,0.1,28.29" style="fill:none;stroke:#999;stroke-width:3" />
<path d="M1788.79,75.94c1.88-0.3,17.84-1.61,19.39-1.61" style="fill:none;stroke:#999;stroke-width:3" />
<path d="M1789.86,91.89c4.14,0,12-1.39,17.72-1.55" style="fill:none;stroke:#999;stroke-width:3" />
<path d="M1816.25,57.4c0.19,0.65,0.69,1.58,0.79,2.37c0.83,6.55,2.09,21.41,2.58,33.47" style="fill:none;stroke:#999;stroke-width:3" />
<path d="M1817.13,58.89c6.63-0.66,16-2.77,20.95-3.41c1.82-0.23,2.74,1.66,2.65,3.42c-0.36,6.43-2.23,21.35-3.18,32.55" style="fill:none;stroke:#999;stroke-width:3" />
<path d="M1827.09,58.71c0.66,0.54,0.98,1.38,0.98,2.54c-0.02,7.59,0.12,25.59,0.12,28.35" style="fill:none;stroke:black;stroke-width:3" />
<circle cx="1827.09" cy="58.71" r="5" stroke-width="0" fill="#FF2A00" opacity="0.7" />
<path d="M1864.28,37.72c0.35,0.24,2.39,0.41,3.31,0.31c3.94-0.41,16.12-1.21,22.45-2.41c0.92-0.17,2.15-0.24,2.73,0" style="fill:none;stroke:#999;stroke-width:3" />
<path d="M1878.8600000000001,14.5c0.91,0.47,2.04,2.25,2.04,4.42c0,0.95-0.12,69.75-0.3,75.58" style="fill:none;stroke:#999;stroke-width:3" />
<path d="M1880.94,39.28c-5.42,15.94-8.44,21.61-16.83,35.56" style="fill:none;stroke:#999;stroke-width:3" />
<path d="M1883.47,43.9c2.23,1.77,5.9,6.42,7.78,9.85" style="fill:none;stroke:#999;stroke-width:3" />
<path d="M1899.0,16.41c0.3,0.54,0.81,1.4,0.97,2.06C1901.31,23.9 1903.01,36.98 1903.8,47" style="fill:none;stroke:#999;stroke-width:3" />
<path d="M1900.92,18.23c13.33-1.73,27.37-2.47,35.31-3c2.92-0.2,4.4,1.38,4.24,2.84C1939.8899999999999,23.4 1938.0,34.5 1935.79,44.58" style="fill:none;stroke:#999;stroke-width:3" />
<path d="M1917.9,17.58c1.1,0.17,1.47,1.15,1.46,2.11c-0.04,6.31,0.19,21.5,0.19,23.78" style="fill:none;stroke:#999;stroke-width:3" />
<path d="M1903.3200000000002,31.68c3.47-0.26,31.91-2.85,34.77-2.85" style="fill:none;stroke:#999;stroke-width:3" />
<path d="M1904.3600000000001,45.09c9.89-0.84,19.39-1.84,31.02-2.36" style="fill:none;stroke:#999;stroke-width:3" />
<path d="M1895.5,59.58c0.16,0.61,0.67,1.52,0.75,2.28c0.72,6.21,1.88,21.21,2.3,32.65" style="fill:none;stroke:#999;stroke-width:3" />
<path d="M1896.27,60.51c5.75-0.63,15.62-2.18,19.92-2.79c1.58-0.22,2.38,1.58,2.3,3.24c-0.31,6.1-1.63,22.8-1.95,32.35" style="fill:none;stroke:#999;stroke-width:3" />
<path d="M1906.08,60.34c0.42,0.41,0.98,1.31,0.98,2.41c-0.02,7.2,0.1,25.68,0.1,28.29" style="fill:none;stroke:#999;stroke-width:3" />
<path d="M1897.79,75.94c1.88-0.3,17.84-1.61,19.39-1.61" style="fill:none;stroke:#999;stroke-width:3" />
<path d="M1898.86,91.89c4.14,0,12-1.39,17.72-1.55" style="fill:none;stroke:#999;stroke-width:3" />
<path d="M1925.25,57.4c0.19,0.65,0.69,1.58,0.79,2.37c0.83,6.55,2.09,21.41,2.58,33.47" style="fill:none;stroke:#999;stroke-width:3" />
<path d="M1926.13,58.89c6.63-0.66,16-2.77,20.95-3.41c1.82-0.23,2.74,1.66,2.65,3.42c-0.36,6.43-2.23,21.35-3.18,32.55" style="fill:none;stroke:#999;stroke-width:3" />
<path d="M1936.09,58.71c0.66,0.54,0.98,1.38,0.98,2.54c-0.02,7.59,0.12,25.59,0.12,28.35" style="fill:none;stroke:#999;stroke-width:3" />
<path d="M1927.32,74.2c2.16-0.32,18.14-2.22,19.92-2.22" style="fill:none;stroke:black;stroke-width:3" />
<circle cx="1927.32" cy="74.2" r="5" stroke-width="0" fill="#FF2A00" opacity="0.7" />
<path d="M1973.28,37.72c0.35,0.24,2.39,0.41,3.31,0.31c3.94-0.41,16.12-1.21,22.45-2.41c0.92-0.17,2.15-0.24,2.73,0" style="fill:none;stroke:#999;stroke-width:3" />
<path d="M1987.8600000000001,14.5c0.91,0.47,2.04,2.25,2.04,4.42c0,0.95-0.12,69.75-0.3,75.58" style="fill:none;stroke:#999;stroke-width:3" />
<path d="M1989.94,39.28c-5.42,15.94-8.44,21.61-16.83,35.56" style="fill:none;stroke:#999;stroke-width:3" />
<path d="M1992.47,43.9c2.23,1.77,5.9,6.42,7.78,9.85" style="fill:none;stroke:#999;stroke-width:3" />
<path d="M2008.0,16.41c0.3,0.54,0.81,1.4,0.97,2.06C2010.31,23.9 2012.01,36.98 2012.8,47" style="fill:none;stroke:#999;stroke-width:3" />
<path d="M2009.92,18.23c13.33-1.73,27.37-2.47,35.31-3c2.92-0.2,4.4,1.38,4.24,2.84C2048.89,23.4 2047.0,34.5 2044.79,44.58" style="fill:none;stroke:#999;stroke-width:3" />
<path d="M2026.9,17.58c1.1,0.17,1.47,1.15,1.46,2.11c-0.04,6.31,0.19,21.5,0.19,23.78" style="fill:none;stroke:#999;stroke-width:3" />
<path d="M2012.3200000000002,31.68c3.47-0.26,31.91-2.85,34.77-2.85" style="fill:none;stroke:#999;stroke-width:3" />
<path d="M2013.3600000000001,45.09c9.89-0.84,19.39-1.84,31.02-2.36" style="fill:none;stroke:#999;stroke-width:3" />
<path d="M2004.5,59.58c0.16,0.61,0.67,1.52,0.75,2.28c0.72,6.21,1.88,21.21,2.3,32.65" style="fill:none;stroke:#999;stroke-width:3" />
<path d="M2005.27,60.51c5.75-0.63,15.62-2.18,19.92-2.79c1.58-0.22,2.38,1.58,2.3,3.24c-0.31,6.1-1.63,22.8-1.95,32.35" style="fill:none;stroke:#999;stroke-width:3" />
<path d="M2015.08,60.34c0.42,0.41,0.98,1.31,0.98,2.41c-0.02,7.2,0.1,25.68,0.1,28.29" style="fill:none;stroke:#999;stroke-width:3" />
<path d="M2006.79,75.94c1.88-0.3,17.84-1.61,19.39-1.61" style="fill:none;stroke:#999;stroke-width:3" />
<path d="M2007.86,91.89c4.14,0,12-1.39,17.72-1.55" style="fill:none;stroke:#999;stroke-width:3" />
<path d="M2034.25,57.4c0.19,0.65,0.69,1.58,0.79,2.37c0.83,6.55,2.09,21.41,2.58,33.47" style="fill:none;stroke:#999;stroke-width:3" />
<path d="M2035.13,58.89c6.63-0.66,16-2.77,20.95-3.41c1.82-0.23,2.74,1.66,2.65,3.42c-0.36,6.43-2.23,21.35-3.18,32.55" style="fill:none;stroke:#999;stroke-width:3" />
<path d="M2045.09,58.71c0.66,0.54,0.98,1.38,0.98,2.54c-0.02,7.59,0.12,25.59,0.12,28.35" style="fill:none;stroke:#999;stroke-width:3" />
<path d="M2036.32,74.2c2.16-0.32,18.14-2.22,19.92-2.22" style="fill:none;stroke:#999;stroke-width:3" />
<path d="M2037.97,90.55c4.77,0,11.05-0.96,17.64-1.14" style="fill:none;stroke:black;stroke-width:3" />
<circle cx="2037.97" cy="90.55" r="5" stroke-width="0" fill="#FF2A00" opacity="0.7" />
</svg>