<!-- 06b89 -->
<svg width="1090px" height="109px" viewBox="0 0 1090px 109px" xmlns="http://www.w3.org/2000/svg" xmlns:xlink="http://www.w3.org/1999/xlink" xml:space="preserve" version="1.1"  baseProfile="full">
<line x1="1" y1="1" x2="1089" y2="1" style="stroke:#ddd;stroke-width:2" />
<line x1="1" y1="1" x2="1" y2="108" style="stroke:#ddd;stroke-width:2" />
<line x1="1" y1="108" x2="1089" y2="108" style="stroke:#ddd;stroke-width:2" />
<line x1="1089" y1="1" x2="1089" y2="108" style="stroke:#ddd;stroke-width:2" />
<line x1="109" y1="1" x2="109" y2="108" style="stroke:#ddd;stroke-width:2" />
<line x1="218" y1="1" x2="218" y2="108" style="stroke:#ddd;stroke-width:2" />
<line x1="327" y1="1" x2="327" y2="108" style="stroke:#ddd;stroke-width:2" />
<line x1="436" y1="1" x2="436" y2="108" style="stroke:#ddd;stroke-width:2" />
<line x1="545" y1="1" x2="545" y2="108" style="stroke:#ddd;stroke-width:2" />
<line x1="654" y1="1" x2="654" y2="108" style="stroke:#ddd;stroke-width:2" />
<line x1="763" y1="1" x2="763" y2="108" style="stroke:#ddd;stroke-width:2" />
<line x1="872" y1="1" x2="872" y2="108" style="stroke:#ddd;stroke-width:2" />
<line x1="981" y1="1" x2="981" y2="108" style="stroke:#ddd;stroke-width:2" />
<line x1="1" y1="54" x2="1089" y2="54" style="stroke:#ddd;stroke-width:2;stroke-dasharray:3 3" />
<line x1="55" y1="1" x2="55" y2="108" style="stroke:#ddd;stroke-width:2;stroke-dasharray:3 3" />
<line x1="164" y1="1" x2="164" y2="108" style="stroke:#ddd;stroke-width:2;stroke-dasharray:3 3" />
<line x1="273" y1="1" x2="273" y2="108" style="stroke:#ddd;stroke-width:2;stroke-dasharray:3 3" />
<line x1="382" y1="1" x2="382" y2="108" style="stroke:#ddd;stroke-width:2;stroke-dasharray:3 3" />
<line x1="491" y1="1" x2="491" y2="108" style="stroke:#ddd;stroke-width:2;stroke-dasharray:3 3" />
<line x1="600" y1="1" x2="600" y2="108" style="stroke:#ddd;stroke-width:2;stroke-dasharray:3 3" />
<line x1="709" y1="1" x2="709" y2="108" style="stroke:#ddd;stroke-width:2;stroke-dasharray:3 3" />
<line x1="818" y1="1" x2="818" y2="108" style="stroke:#ddd;stroke-width:2;stroke-dasharray:3 3" />
<line x1="927" y1="1" x2="927" y2="108" style="stroke:#ddd;stroke-width:2;stroke-dasharray:3 3" />
<line x1="1036" y1="1" x2="1036" y2="108" style="stroke:#ddd;stroke-width:2;stroke-dasharray:3 3" />
<path d="M15.5,27.41c2,0.34,4.07,0.33,6.14-0.06c5.75-1.06,14.65-2.47,20.49-3.1c2.05-0.22,3.86-0.35,5.88,0.17" style="fill:none;stroke:black;stroke-width:3" />
<circle cx="15.5" cy="27.41" r="5" stroke-width="0" fill="#FF2A00" opacity="0.7" />
<path d="M124.5,27.41c2,0.34,4.07,0.33,6.14-0.06c5.75-1.06,14.65-2.47,20.49-3.1c2.05-0.22,3.86-0.35,5.88,0.17" style="fill:none;stroke:#999;stroke-width:3" />
<path d="M138.41,30.74c0.2,0.55,0.29,2.22-0.12,3.27c-2.79,7.08-6.04,13.87-15.62,24.34" style="fill:none;stroke:black;stroke-width:3" />
<circle cx="138.41" cy="30.74" r="5" stroke-width="0" fill="#FF2A00" opacity="0.7" />
<path d="M233.5,27.41c2,0.34,4.07,0.33,6.14-0.06c5.75-1.06,14.65-2.47,20.49-3.1c2.05-0.22,3.86-0.35,5.88,0.17" style="fill:none;stroke:#999;stroke-width:3" />
<path d="M247.41,30.74c0.2,0.55,0.29,2.22-0.12,3.27c-2.79,7.08-6.04,13.87-15.62,24.34" style="fill:none;stroke:#999;stroke-width:3" />
<path d="M246.64,43.05c0.26,0.04,1.39,0,2.14-0.12c2.11-0.31,4.78-0.97,8.13-1.64c2.72-0.54,4.6,1.46,3.43,4.49C255.99,57.06 249.75,73.38 231.61,87" style="fill:none;stroke:black;stroke-width:3" />
<circle cx="246.64" cy="43.05" r="5" stroke-width="0" fill="#FF2A00" opacity="0.7" />
<path d="M342.5,27.41c2,0.34,4.07,0.33,6.14-0.06c5.75-1.06,14.65-2.47,20.49-3.1c2.05-0.22,3.86-0.35,5.88,0.17" style="fill:none;stroke:#999;stroke-width:3" />
<path d="M356.40999999999997,30.74c0.2,0.55,0.29,2.22-0.12,3.27c-2.79,7.08-6.04,13.87-15.62,24.34" style="fill:none;stroke:#999;stroke-width:3" />
<path d="M355.64,43.05c0.26,0.04,1.39,0,2.14-0.12c2.11-0.31,4.78-0.97,8.13-1.64c2.72-0.54,4.6,1.46,3.43,4.49C364.99,57.06 358.75,73.38 340.61,87" style="fill:none;stroke:#999;stroke-width:3" />
<path d="M348.46,56.85c2.85,1.26,7.35,5.2,8.06,7.17" style="fill:none;stroke:black;stroke-width:3" />
<circle cx="348.46" cy="56.85" r="5" stroke-width="0" fill="#FF2A00" opacity="0.7" />
<path d="M451.5,27.41c2,0.34,4.07,0.33,6.14-0.06c5.75-1.06,14.65-2.47,20.49-3.1c2.05-0.22,3.86-0.35,5.88,0.17" style="fill:none;stroke:#999;stroke-width:3" />
<path d="M465.40999999999997,30.74c0.2,0.55,0.29,2.22-0.12,3.27c-2.79,7.08-6.04,13.87-15.62,24.34" style="fill:none;stroke:#999;stroke-width:3" />
<path d="M464.64,43.05c0.26,0.04,1.39,0,2.14-0.12c2.11-0.31,4.78-0.97,8.13-1.64c2.72-0.54,4.6,1.46,3.43,4.49C473.99,57.06 467.75,73.38 449.61,87" style="fill:none;stroke:#999;stroke-width:3" />
<path d="M457.46,56.85c2.85,1.26,7.35,5.2,8.06,7.17" style="fill:none;stroke:#999;stroke-width:3" />
<path d="M497.06,14.75c0.03,0.6,0.18,1.58-0.06,2.42C495.0,24 491.62,32 485.53,40.13" style="fill:none;stroke:black;stroke-width:3" />
<circle cx="497.06" cy="14.75" r="5" stroke-width="0" fill="#FF2A00" opacity="0.7" />
<path d="M560.5,27.41c2,0.34,4.07,0.33,6.14-0.06c5.75-1.06,14.65-2.47,20.49-3.1c2.05-0.22,3.86-0.35,5.88,0.17" style="fill:none;stroke:#999;stroke-width:3" />
<path d="M574.41,30.74c0.2,0.55,0.29,2.22-0.12,3.27c-2.79,7.08-6.04,13.87-15.62,24.34" style="fill:none;stroke:#999;stroke-width:3" />
<path d="M573.64,43.05c0.26,0.04,1.39,0,2.14-0.12c2.11-0.31,4.78-0.97,8.13-1.64c2.72-0.54,4.6,1.46,3.43,4.49C582.99,57.06 576.75,73.38 558.61,87" style="fill:none;stroke:#999;stroke-width:3" />
<path d="M566.46,56.85c2.85,1.26,7.35,5.2,8.06,7.17" style="fill:none;stroke:#999;stroke-width:3" />
<path d="M606.06,14.75c0.03,0.6,0.18,1.58-0.06,2.42C604.0,24 600.62,32 594.53,40.13" style="fill:none;stroke:#999;stroke-width:3" />
<path d="M602.28,31c2.2,0.86,4.81,0.75,7.09,0.33c5.33-0.98,18.97-3.37,23.16-3.58c5-0.25,6.03,1.45,5.75,6.75c-0.26,4.88-3.09,38.75-8.29,55.32c-2.09,6.66-4.53,7.13-9.21,2.18" style="fill:none;stroke:black;stroke-width:3" />
<circle cx="602.28" cy="31.0" r="5" stroke-width="0" fill="#FF2A00" opacity="0.7" />
<path d="M669.5,27.41c2,0.34,4.07,0.33,6.14-0.06c5.75-1.06,14.65-2.47,20.49-3.1c2.05-0.22,3.86-0.35,5.88,0.17" style="fill:none;stroke:#999;stroke-width:3" />
<path d="M683.41,30.74c0.2,0.55,0.29,2.22-0.12,3.27c-2.79,7.08-6.04,13.87-15.62,24.34" style="fill:none;stroke:#999;stroke-width:3" />
<path d="M682.64,43.05c0.26,0.04,1.39,0,2.14-0.12c2.11-0.31,4.78-0.97,8.13-1.64c2.72-0.54,4.6,1.46,3.43,4.49C691.99,57.06 685.75,73.38 667.61,87" style="fill:none;stroke:#999;stroke-width:3" />
<path d="M675.46,56.85c2.85,1.26,7.35,5.2,8.06,7.17" style="fill:none;stroke:#999;stroke-width:3" />
<path d="M715.06,14.75c0.03,0.6,0.18,1.58-0.06,2.42C713.0,24 709.62,32 703.53,40.13" style="fill:none;stroke:#999;stroke-width:3" />
<path d="M711.28,31c2.2,0.86,4.81,0.75,7.09,0.33c5.33-0.98,18.97-3.37,23.16-3.58c5-0.25,6.03,1.45,5.75,6.75c-0.26,4.88-3.09,38.75-8.29,55.32c-2.09,6.66-4.53,7.13-9.21,2.18" style="fill:none;stroke:#999;stroke-width:3" />
<path d="M708.04,45.39c0.66,0.66,1.02,1.64,1.02,2.66c0,0.77-0.05,16.75-0.04,25.44c0,2.81,0.01,4.75,0.04,5" style="fill:none;stroke:black;stroke-width:3" />
<circle cx="708.04" cy="45.39" r="5" stroke-width="0" fill="#FF2A00" opacity="0.7" />
<path d="M778.5,27.41c2,0.34,4.07,0.33,6.14-0.06c5.75-1.06,14.65-2.47,20.49-3.1c2.05-0.22,3.86-0.35,5.88,0.17" style="fill:none;stroke:#999;stroke-width:3" />
<path d="M792.41,30.74c0.2,0.55,0.29,2.22-0.12,3.27c-2.79,7.08-6.04,13.87-15.62,24.34" style="fill:none;stroke:#999;stroke-width:3" />
<path d="M791.64,43.05c0.26,0.04,1.39,0,2.14-0.12c2.11-0.31,4.78-0.97,8.13-1.64c2.72-0.54,4.6,1.46,3.43,4.49C800.99,57.06 794.75,73.38 776.61,87" style="fill:none;stroke:#999;stroke-width:3" />
<path d="M784.46,56.85c2.85,1.26,7.35,5.2,8.06,7.17" style="fill:none;stroke:#999;stroke-width:3" />
<path d="M824.06,14.75c0.03,0.6,0.18,1.58-0.06,2.42C822.0,24 818.62,32 812.53,40.13" style="fill:none;stroke:#999;stroke-width:3" />
<path d="M820.28,31c2.2,0.86,4.81,0.75,7.09,0.33c5.33-0.98,18.97-3.37,23.16-3.58c5-0.25,6.03,1.45,5.75,6.75c-0.26,4.88-3.09,38.75-8.29,55.32c-2.09,6.66-4.53,7.13-9.21,2.18" style="fill:none;stroke:#999;stroke-width:3" />
<path d="M817.04,45.39c0.66,0.66,1.02,1.64,1.02,2.66c0,0.77-0.05,16.75-0.04,25.44c0,2.81,0.01,4.75,0.04,5" style="fill:none;stroke:#999;stroke-width:3" />
<path d="M819.0,46.98c2.31-0.49,10.43-2.1,14.52-2.89c2.3-0.44,3.7,0.4,3.7,3.28c0,3.46-0.03,17-0.03,25.13c0,2.73-0.03,4.6-0.03,4.78" style="fill:none;stroke:black;stroke-width:3" />
<circle cx="819.0" cy="46.98" r="5" stroke-width="0" fill="#FF2A00" opacity="0.7" />
<path d="M887.5,27.41c2,0.34,4.07,0.33,6.14-0.06c5.75-1.06,14.65-2.47,20.49-3.1c2.05-0.22,3.86-0.35,5.88,0.17" style="fill:none;stroke:#999;stroke-width:3" />
<path d="M901.41,30.74c0.2,0.55,0.29,2.22-0.12,3.27c-2.79,7.08-6.04,13.87-15.62,24.34" style="fill:none;stroke:#999;stroke-width:3" />
<path d="M900.64,43.05c0.26,0.04,1.39,0,2.14-0.12c2.11-0.31,4.78-0.97,8.13-1.64c2.72-0.54,4.6,1.46,3.43,4.49C909.99,57.06 903.75,73.38 885.61,87" style="fill:none;stroke:#999;stroke-width:3" />
<path d="M893.46,56.85c2.85,1.26,7.35,5.2,8.06,7.17" style="fill:none;stroke:#999;stroke-width:3" />
<path d="M933.06,14.75c0.03,0.6,0.18,1.58-0.06,2.42C931.0,24 927.62,32 921.53,40.13" style="fill:none;stroke:#999;stroke-width:3" />
<path d="M929.28,31c2.2,0.86,4.81,0.75,7.09,0.33c5.33-0.98,18.97-3.37,23.16-3.58c5-0.25,6.03,1.45,5.75,6.75c-0.26,4.88-3.09,38.75-8.29,55.32c-2.09,6.66-4.53,7.13-9.21,2.18" style="fill:none;stroke:#999;stroke-width:3" />
<path d="M926.04,45.39c0.66,0.66,1.02,1.64,1.02,2.66c0,0.77-0.05,16.75-0.04,25.44c0,2.81,0.01,4.75,0.04,5" style="fill:none;stroke:#999;stroke-width:3" />
<path d="M928.0,46.98c2.31-0.49,10.43-2.1,14.52-2.89c2.3-0.44,3.7,0.4,3.7,3.28c0,3.46-0.03,17-0.03,25.13c0,2.73-0.03,4.6-0.03,4.78" style="fill:none;stroke:#999;stroke-width:3" />
<path d="M928.51,60.23C932.25,59.75 941.0,58.62 944.8,58.5" style="fill:none;stroke:black;stroke-width:3" />
<circle cx="928.51" cy="60.23" r="5" stroke-width="0" fill="#FF2A00" opacity="0.7" />
<path d="M996.5,27.41c2,0.34,4.07,0.33,6.14-0.06c5.75-1.06,14.65-2.47,20.49-3.1c2.05-0.22,3.86-0.35,5.88,0.17" style="fill:none;stroke:#999;stroke-width:3" />
<path d="M1010.41,30.74c0.2,0.55,0.29,2.22-0.12,3.27c-2.79,7.08-6.04,13.87-15.62,24.34" style="fill:none;stroke:#999;stroke-width:3" />
<path d="M1009.64,43.05c0.26,0.04,1.39,0,2.14-0.12c2.11-0.31,4.78-0.97,8.13-1.64c2.72-0.54,4.6,1.46,3.43,4.49C1018.99,57.06 1012.75,73.38 994.61,87" style="fill:none;stroke:#999;stroke-width:3" />
<path d="M1002.46,56.85c2.85,1.26,7.35,5.2,8.06,7.17" style="fill:none;stroke:#999;stroke-width:3" />
<path d="M1042.06,14.75c0.03,0.6,0.18,1.58-0.06,2.42C1040.0,24 1036.62,32 1030.53,40.13" style="fill:none;stroke:#999;stroke-width:3" />
<path d="M1038.28,31c2.2,0.86,4.81,0.75,7.09,0.33c5.33-0.98,18.97-3.37,23.16-3.58c5-0.25,6.03,1.45,5.75,6.75c-0.26,4.88-3.09,38.75-8.29,55.32c-2.09,6.66-4.53,7.13-9.21,2.18" style="fill:none;stroke:#999;stroke-width:3" />
<path d="M1035.04,45.39c0.66,0.66,1.02,1.64,1.02,2.66c0,0.77-0.05,16.75-0.04,25.44c0,2.81,0.01,4.75,0.04,5" style="fill:none;stroke:#999;stroke-width:3" />
<path d="M1037.0,46.98c2.31-0.49,10.43-2.1,14.52-2.89c2.3-0.44,3.7,0.4,3.7,3.28c0,3.46-0.03,17-0.03,25.13c0,2.73-0.03,4.6-0.03,4.78" style="fill:none;stroke:#999;stroke-width:3" />
<path d="M1037.51,60.23C1041.25,59.75 1050.0,58.62 1053.8,58.5" style="fill:none;stroke:#999;stroke-width:3" />
<path d="M1037.17,75.14c4.07-0.55,11.81-1.28,16.87-1.75" style="fill:none;stroke:black;stroke-width:3" />
<circle cx="1037.17" cy="75.14" r="5" stroke-width="0" fill="#FF2A00" opacity="0.7" />
</svg>