<!-- 06bef -->
<svg width="1308px" height="109px" viewBox="0 0 1308px 109px" xmlns="http://www.w3.org/2000/svg" xmlns:xlink="http://www.w3.org/1999/xlink" xml:space="preserve" version="1.1"  baseProfile="full">
<line x1="1" y1="1" x2="1307" y2="1" style="stroke:#ddd;stroke-width:2" />
<line x1="1" y1="1" x2="1" y2="108" style="stroke:#ddd;stroke-width:2" />
<line x1="1" y1="108" x2="1307" y2="108" style="stroke:#ddd;stroke-width:2" />
<line x1="1307" y1="1" x2="1307" y2="108" style="stroke:#ddd;stroke-width:2" />
<line x1="109" y1="1" x2="109" y2="108" style="stroke:#ddd;stroke-width:2" />
<line x1="218" y1="1" x2="218" y2="108" style="stroke:#ddd;stroke-width:2" />
<line x1="327" y1="1" x2="327" y2="108" style="stroke:#ddd;stroke-width:2" />
<line x1="436" y1="1" x2="436" y2="108" style="stroke:#ddd;stroke-width:2" />
<line x1="545" y1="1" x2="545" y2="108" style="stroke:#ddd;stroke-width:2" />
<line x1="654" y1="1" x2="654" y2="108" style="stroke:#ddd;stroke-width:2" />
<line x1="763" y1="1" x2="763" y2="108" style="stroke:#ddd;stroke-width:2" />
<line x1="872" y1="1" x2="872" y2="108" style="stroke:#ddd;stroke-width:2" />
<line x1="981" y1="1" x2="981" y2="108" style="stroke:#ddd;stroke-width:2" />
<line x1="1090" y1="1" x2="1090" y2="108" style="stroke:#ddd;stroke-width:2" />
<line x1="1199" y1="1" x2="1199" y2="108" style="stroke:#ddd;stroke-width:2" />
<line x1="1" y1="54" x2="1307" y2="54" style="stroke:#ddd;stroke-width:2;stroke-dasharray:3 3" />
<line x1="55" y1="1" x2="55" y2="108" style="stroke:#ddd;stroke-width:2;stroke-dasharray:3 3" />
<line x1="164" y1="1" x2="164" y2="108" style="stroke:#ddd;stroke-width:2;stroke-dasharray:3 3" />
<line x1="273" y1="1" x2="273" y2="108" style="stroke:#ddd;stroke-width:2;stroke-dasharray:3 3" />
<line x1="382" y1="1" x2="382" y2="108" style="stroke:#ddd;stroke-width:2;stroke-dasharray:3 3" />
<line x1="491" y1="1" x2="491" y2="108" style="stroke:#ddd;stroke-width:2;stroke-dasharray:3 3" />
<line x1="600" y1="1" x2="600" y2="108" style="stroke:#ddd;stroke-width:2;stroke-dasharray:3 3" />
<line x1="709" y1="1" x2="709" y2="108" style="stroke:#ddd;stroke-width:2;stroke-dasharray:3 3" />
<line x1="818" y1="1" x2="818" y2="108" style="stroke:#ddd;stroke-width:2;stroke-dasharray:3 3" />
<line x1="927" y1="1" x2="927" y2="108" style="stroke:#ddd;stroke-width:2;stroke-dasharray:3 3" />
<line x1="1036" y1="1" x2="1036" y2="108" style="stroke:#ddd;stroke-width:2;stroke-dasharray:3 3" />
<line x1="1145" y1="1" x2="1145" y2="108" style="stroke:#ddd;stroke-width:2;stroke-dasharray:3 3" />
<line x1="1254" y1="1" x2="1254" y2="108" style="stroke:#ddd;stroke-width:2;stroke-dasharray:3 3" />
<path d="M40.28,15c0.08,0.41,0.32,1.17-0.15,1.63C35.75,21 25.75,27.75 14.25,32.25" style="fill:none;stroke:black;stroke-width:3" />
<circle cx="40.28" cy="15.0" r="5" stroke-width="0" fill="#FF2A00" opacity="0.7" />
<path d="M149.28,15c0.08,0.41,0.32,1.17-0.15,1.63C144.75,21 134.75,27.75 123.25,32.25" style="fill:none;stroke:#999;stroke-width:3" />
<path d="M120.0,47.21c0.89,0.28,2.53,0.36,3.42,0.28c9.26-0.89,20.94-3.44,28.59-4.09c1.47-0.12,2.38,0.13,3.12,0.27" style="fill:none;stroke:black;stroke-width:3" />
<circle cx="120.0" cy="47.21" r="5" stroke-width="0" fill="#FF2A00" opacity="0.7" />
<path d="M258.28,15c0.08,0.41,0.32,1.17-0.15,1.63C253.75,21 243.75,27.75 232.25,32.25" style="fill:none;stroke:#999;stroke-width:3" />
<path d="M229.0,47.21c0.89,0.28,2.53,0.36,3.42,0.28c9.26-0.89,20.94-3.44,28.59-4.09c1.47-0.12,2.38,0.13,3.12,0.27" style="fill:none;stroke:#999;stroke-width:3" />
<path d="M226.38,65.06c0.94,0.25,3.69,0.38,4.63,0.25c10-1.31,22.93-3.87,31.47-4.45c1.57-0.11,3.52,0.12,4.31,0.25" style="fill:none;stroke:black;stroke-width:3" />
<circle cx="226.38" cy="65.06" r="5" stroke-width="0" fill="#FF2A00" opacity="0.7" />
<path d="M367.28,15c0.08,0.41,0.32,1.17-0.15,1.63C362.75,21 352.75,27.75 341.25,32.25" style="fill:none;stroke:#999;stroke-width:3" />
<path d="M338.0,47.21c0.89,0.28,2.53,0.36,3.42,0.28c9.26-0.89,20.94-3.44,28.59-4.09c1.47-0.12,2.38,0.13,3.12,0.27" style="fill:none;stroke:#999;stroke-width:3" />
<path d="M335.38,65.06c0.94,0.25,3.69,0.38,4.63,0.25c10-1.31,22.93-3.87,31.47-4.45c1.57-0.11,3.52,0.12,4.31,0.25" style="fill:none;stroke:#999;stroke-width:3" />
<path d="M354.99,30.37c0.59,1.19,1.06,2.59,1.1,4.43c0.16,8.19-0.58,38.93-0.58,43.95c0,16.5,3.5,17.78,35.74,17.78c34.01,0,33.26-4.53,33.26-13.28" style="fill:none;stroke:black;stroke-width:3" />
<circle cx="354.99" cy="30.37" r="5" stroke-width="0" fill="#FF2A00" opacity="0.7" />
<path d="M476.28,15c0.08,0.41,0.32,1.17-0.15,1.63C471.75,21 461.75,27.75 450.25,32.25" style="fill:none;stroke:#999;stroke-width:3" />
<path d="M447.0,47.21c0.89,0.28,2.53,0.36,3.42,0.28c9.26-0.89,20.94-3.44,28.59-4.09c1.47-0.12,2.38,0.13,3.12,0.27" style="fill:none;stroke:#999;stroke-width:3" />
<path d="M444.38,65.06c0.94,0.25,3.69,0.38,4.63,0.25c10-1.31,22.93-3.87,31.47-4.45c1.57-0.11,3.52,0.12,4.31,0.25" style="fill:none;stroke:#999;stroke-width:3" />
<path d="M463.99,30.37c0.59,1.19,1.06,2.59,1.1,4.43c0.16,8.19-0.58,38.93-0.58,43.95c0,16.5,3.5,17.78,35.74,17.78c34.01,0,33.26-4.53,33.26-13.28" style="fill:none;stroke:#999;stroke-width:3" />
<path d="M491.21,22.67c2.42,2.11,5.95,8.09,6.61,10.2" style="fill:none;stroke:black;stroke-width:3" />
<circle cx="491.21" cy="22.67" r="5" stroke-width="0" fill="#FF2A00" opacity="0.7" />
<path d="M585.28,15c0.08,0.41,0.32,1.17-0.15,1.63C580.75,21 570.75,27.75 559.25,32.25" style="fill:none;stroke:#999;stroke-width:3" />
<path d="M556.0,47.21c0.89,0.28,2.53,0.36,3.42,0.28c9.26-0.89,20.94-3.44,28.59-4.09c1.47-0.12,2.38,0.13,3.12,0.27" style="fill:none;stroke:#999;stroke-width:3" />
<path d="M553.38,65.06c0.94,0.25,3.69,0.38,4.63,0.25c10-1.31,22.93-3.87,31.47-4.45c1.57-0.11,3.52,0.12,4.31,0.25" style="fill:none;stroke:#999;stroke-width:3" />
<path d="M572.99,30.37c0.59,1.19,1.06,2.59,1.1,4.43c0.16,8.19-0.58,38.93-0.58,43.95c0,16.5,3.5,17.78,35.74,17.78c34.01,0,33.26-4.53,33.26-13.28" style="fill:none;stroke:#999;stroke-width:3" />
<path d="M600.21,22.67c2.42,2.11,5.95,8.09,6.61,10.2" style="fill:none;stroke:#999;stroke-width:3" />
<path d="M630.15,17.31c0.43,0.48,0.39,1.99,0,2.74s-5.17,6.75-7.12,8.5" style="fill:none;stroke:black;stroke-width:3" />
<circle cx="630.15" cy="17.31" r="5" stroke-width="0" fill="#FF2A00" opacity="0.7" />
<path d="M694.28,15c0.08,0.41,0.32,1.17-0.15,1.63C689.75,21 679.75,27.75 668.25,32.25" style="fill:none;stroke:#999;stroke-width:3" />
<path d="M665.0,47.21c0.89,0.28,2.53,0.36,3.42,0.28c9.26-0.89,20.94-3.44,28.59-4.09c1.47-0.12,2.38,0.13,3.12,0.27" style="fill:none;stroke:#999;stroke-width:3" />
<path d="M662.38,65.06c0.94,0.25,3.69,0.38,4.63,0.25c10-1.31,22.93-3.87,31.47-4.45c1.57-0.11,3.52,0.12,4.31,0.25" style="fill:none;stroke:#999;stroke-width:3" />
<path d="M681.99,30.37c0.59,1.19,1.06,2.59,1.1,4.43c0.16,8.19-0.58,38.93-0.58,43.95c0,16.5,3.5,17.78,35.74,17.78c34.01,0,33.26-4.53,33.26-13.28" style="fill:none;stroke:#999;stroke-width:3" />
<path d="M709.21,22.67c2.42,2.11,5.95,8.09,6.61,10.2" style="fill:none;stroke:#999;stroke-width:3" />
<path d="M739.15,17.31c0.43,0.48,0.39,1.99,0,2.74s-5.17,6.75-7.12,8.5" style="fill:none;stroke:#999;stroke-width:3" />
<path d="M724.4,13.25c0.65,0.37,0.78,1.31,0.78,1.93c0,21.82-6.62,29.95-16.92,36.07" style="fill:none;stroke:black;stroke-width:3" />
<circle cx="724.4" cy="13.25" r="5" stroke-width="0" fill="#FF2A00" opacity="0.7" />
<path d="M803.28,15c0.08,0.41,0.32,1.17-0.15,1.63C798.75,21 788.75,27.75 777.25,32.25" style="fill:none;stroke:#999;stroke-width:3" />
<path d="M774.0,47.21c0.89,0.28,2.53,0.36,3.42,0.28c9.26-0.89,20.94-3.44,28.59-4.09c1.47-0.12,2.38,0.13,3.12,0.27" style="fill:none;stroke:#999;stroke-width:3" />
<path d="M771.38,65.06c0.94,0.25,3.69,0.38,4.63,0.25c10-1.31,22.93-3.87,31.47-4.45c1.57-0.11,3.52,0.12,4.31,0.25" style="fill:none;stroke:#999;stroke-width:3" />
<path d="M790.99,30.37c0.59,1.19,1.06,2.59,1.1,4.43c0.16,8.19-0.58,38.93-0.58,43.95c0,16.5,3.5,17.78,35.74,17.78c34.01,0,33.26-4.53,33.26-13.28" style="fill:none;stroke:#999;stroke-width:3" />
<path d="M818.21,22.67c2.42,2.11,5.95,8.09,6.61,10.2" style="fill:none;stroke:#999;stroke-width:3" />
<path d="M848.15,17.31c0.43,0.48,0.39,1.99,0,2.74s-5.17,6.75-7.12,8.5" style="fill:none;stroke:#999;stroke-width:3" />
<path d="M833.4,13.25c0.65,0.37,0.78,1.31,0.78,1.93c0,21.82-6.62,29.95-16.92,36.07" style="fill:none;stroke:#999;stroke-width:3" />
<path d="M834.1800000000001,34.65c7.13,3.07,12.6,8.62,15.57,12.23" style="fill:none;stroke:black;stroke-width:3" />
<circle cx="834.1800000000001" cy="34.65" r="5" stroke-width="0" fill="#FF2A00" opacity="0.7" />
<path d="M912.28,15c0.08,0.41,0.32,1.17-0.15,1.63C907.75,21 897.75,27.75 886.25,32.25" style="fill:none;stroke:#999;stroke-width:3" />
<path d="M883.0,47.21c0.89,0.28,2.53,0.36,3.42,0.28c9.26-0.89,20.94-3.44,28.59-4.09c1.47-0.12,2.38,0.13,3.12,0.27" style="fill:none;stroke:#999;stroke-width:3" />
<path d="M880.38,65.06c0.94,0.25,3.69,0.38,4.63,0.25c10-1.31,22.93-3.87,31.47-4.45c1.57-0.11,3.52,0.12,4.31,0.25" style="fill:none;stroke:#999;stroke-width:3" />
<path d="M899.99,30.37c0.59,1.19,1.06,2.59,1.1,4.43c0.16,8.19-0.58,38.93-0.58,43.95c0,16.5,3.5,17.78,35.74,17.78c34.01,0,33.26-4.53,33.26-13.28" style="fill:none;stroke:#999;stroke-width:3" />
<path d="M927.21,22.67c2.42,2.11,5.95,8.09,6.61,10.2" style="fill:none;stroke:#999;stroke-width:3" />
<path d="M957.15,17.31c0.43,0.48,0.39,1.99,0,2.74s-5.17,6.75-7.12,8.5" style="fill:none;stroke:#999;stroke-width:3" />
<path d="M942.4,13.25c0.65,0.37,0.78,1.31,0.78,1.93c0,21.82-6.62,29.95-16.92,36.07" style="fill:none;stroke:#999;stroke-width:3" />
<path d="M943.1800000000001,34.65c7.13,3.07,12.6,8.62,15.57,12.23" style="fill:none;stroke:#999;stroke-width:3" />
<path d="M927.43,59.92c2.36,2.37,5.79,9.09,6.43,11.46" style="fill:none;stroke:black;stroke-width:3" />
<circle cx="927.43" cy="59.92" r="5" stroke-width="0" fill="#FF2A00" opacity="0.7" />
<path d="M1021.28,15c0.08,0.41,0.32,1.17-0.15,1.63C1016.75,21 1006.75,27.75 995.25,32.25" style="fill:none;stroke:#999;stroke-width:3" />
<path d="M992.0,47.21c0.89,0.28,2.53,0.36,3.42,0.28c9.26-0.89,20.94-3.44,28.59-4.09c1.47-0.12,2.38,0.13,3.12,0.27" style="fill:none;stroke:#999;stroke-width:3" />
<path d="M989.38,65.06c0.94,0.25,3.69,0.38,4.63,0.25c10-1.31,22.93-3.87,31.47-4.45c1.57-0.11,3.52,0.12,4.31,0.25" style="fill:none;stroke:#999;stroke-width:3" />
<path d="M1008.99,30.37c0.59,1.19,1.06,2.59,1.1,4.43c0.16,8.19-0.58,38.93-0.58,43.95c0,16.5,3.5,17.78,35.74,17.78c34.01,0,33.26-4.53,33.26-13.28" style="fill:none;stroke:#999;stroke-width:3" />
<path d="M1036.21,22.67c2.42,2.11,5.95,8.09,6.61,10.2" style="fill:none;stroke:#999;stroke-width:3" />
<path d="M1066.15,17.31c0.43,0.48,0.39,1.99,0,2.74s-5.17,6.75-7.12,8.5" style="fill:none;stroke:#999;stroke-width:3" />
<path d="M1051.4,13.25c0.65,0.37,0.78,1.31,0.78,1.93c0,21.82-6.62,29.95-16.92,36.07" style="fill:none;stroke:#999;stroke-width:3" />
<path d="M1052.18,34.65c7.13,3.07,12.6,8.62,15.57,12.23" style="fill:none;stroke:#999;stroke-width:3" />
<path d="M1036.4299999999998,59.92c2.36,2.37,5.79,9.09,6.43,11.46" style="fill:none;stroke:#999;stroke-width:3" />
<path d="M1069.65,54.31c0.43,0.48,0.39,1.99,0,2.74s-7.67,7.75-9.62,9.5" style="fill:none;stroke:black;stroke-width:3" />
<circle cx="1069.65" cy="54.31" r="5" stroke-width="0" fill="#FF2A00" opacity="0.7" />
<path d="M1130.28,15c0.08,0.41,0.32,1.17-0.15,1.63C1125.75,21 1115.75,27.75 1104.25,32.25" style="fill:none;stroke:#999;stroke-width:3" />
<path d="M1101.0,47.21c0.89,0.28,2.53,0.36,3.42,0.28c9.26-0.89,20.94-3.44,28.59-4.09c1.47-0.12,2.38,0.13,3.12,0.27" style="fill:none;stroke:#999;stroke-width:3" />
<path d="M1098.38,65.06c0.94,0.25,3.69,0.38,4.63,0.25c10-1.31,22.93-3.87,31.47-4.45c1.57-0.11,3.52,0.12,4.31,0.25" style="fill:none;stroke:#999;stroke-width:3" />
<path d="M1117.99,30.37c0.59,1.19,1.06,2.59,1.1,4.43c0.16,8.19-0.58,38.93-0.58,43.95c0,16.5,3.5,17.78,35.74,17.78c34.01,0,33.26-4.53,33.26-13.28" style="fill:none;stroke:#999;stroke-width:3" />
<path d="M1145.21,22.67c2.42,2.11,5.95,8.09,6.61,10.2" style="fill:none;stroke:#999;stroke-width:3" />
<path d="M1175.15,17.31c0.43,0.48,0.39,1.99,0,2.74s-5.17,6.75-7.12,8.5" style="fill:none;stroke:#999;stroke-width:3" />
<path d="M1160.4,13.25c0.65,0.37,0.78,1.31,0.78,1.93c0,21.82-6.62,29.95-16.92,36.07" style="fill:none;stroke:#999;stroke-width:3" />
<path d="M1161.18,34.65c7.13,3.07,12.6,8.62,15.57,12.23" style="fill:none;stroke:#999;stroke-width:3" />
<path d="M1145.4299999999998,59.92c2.36,2.37,5.79,9.09,6.43,11.46" style="fill:none;stroke:#999;stroke-width:3" />
<path d="M1178.65,54.31c0.43,0.48,0.39,1.99,0,2.74s-7.67,7.75-9.62,9.5" style="fill:none;stroke:#999;stroke-width:3" />
<path d="M1161.9,51.25c0.65,0.37,0.78,1.31,0.78,1.93c-0.13,24.84-10.62,29.45-20.92,35.57" style="fill:none;stroke:black;stroke-width:3" />
<circle cx="1161.9" cy="51.25" r="5" stroke-width="0" fill="#FF2A00" opacity="0.7" />
<path d="M1239.28,15c0.08,0.41,0.32,1.17-0.15,1.63C1234.75,21 1224.75,27.75 1213.25,32.25" style="fill:none;stroke:#999;stroke-width:3" />
<path d="M1210.0,47.21c0.89,0.28,2.53,0.36,3.42,0.28c9.26-0.89,20.94-3.44,28.59-4.09c1.47-0.12,2.38,0.13,3.12,0.27" style="fill:none;stroke:#999;stroke-width:3" />
<path d="M1207.38,65.06c0.94,0.25,3.69,0.38,4.63,0.25c10-1.31,22.93-3.87,31.47-4.45c1.57-0.11,3.52,0.12,4.31,0.25" style="fill:none;stroke:#999;stroke-width:3" />
<path d="M1226.99,30.37c0.59,1.19,1.06,2.59,1.1,4.43c0.16,8.19-0.58,38.93-0.58,43.95c0,16.5,3.5,17.78,35.74,17.78c34.01,0,33.26-4.53,33.26-13.28" style="fill:none;stroke:#999;stroke-width:3" />
<path d="M1254.21,22.67c2.42,2.11,5.95,8.09,6.61,10.2" style="fill:none;stroke:#999;stroke-width:3" />
<path d="M1284.15,17.31c0.43,0.48,0.39,1.99,0,2.74s-5.17,6.75-7.12,8.5" style="fill:none;stroke:#999;stroke-width:3" />
<path d="M1269.4,13.25c0.65,0.37,0.78,1.31,0.78,1.93c0,21.82-6.62,29.95-16.92,36.07" style="fill:none;stroke:#999;stroke-width:3" />
<path d="M1270.18,34.65c7.13,3.07,12.6,8.62,15.57,12.23" style="fill:none;stroke:#999;stroke-width:3" />
<path d="M1254.4299999999998,59.92c2.36,2.37,5.79,9.09,6.43,11.46" style="fill:none;stroke:#999;stroke-width:3" />
<path d="M1287.65,54.31c0.43,0.48,0.39,1.99,0,2.74s-7.67,7.75-9.62,9.5" style="fill:none;stroke:#999;stroke-width:3" />
<path d="M1270.9,51.25c0.65,0.37,0.78,1.31,0.78,1.93c-0.13,24.84-10.62,29.45-20.92,35.57" style="fill:none;stroke:#999;stroke-width:3" />
<path d="M1272.18,72.9c6.44,3.38,11.39,9.5,14.07,13.48" style="fill:none;stroke:black;stroke-width:3" />
<circle cx="1272.18" cy="72.9" r="5" stroke-width="0" fill="#FF2A00" opacity="0.7" />
</svg>