<!-- 06c7a -->
<svg width="763px" height="109px" viewBox="0 0 763px 109px" xmlns="http://www.w3.org/2000/svg" xmlns:xlink="http://www.w3.org/1999/xlink" xml:space="preserve" version="1.1"  baseProfile="full">
<line x1="1" y1="1" x2="762" y2="1" style="stroke:#ddd;stroke-width:2" />
<line x1="1" y1="1" x2="1" y2="108" style="stroke:#ddd;stroke-width:2" />
<line x1="1" y1="108" x2="762" y2="108" style="stroke:#ddd;stroke-width:2" />
<line x1="762" y1="1" x2="762" y2="108" style="stroke:#ddd;stroke-width:2" />
<line x1="109" y1="1" x2="109" y2="108" style="stroke:#ddd;stroke-width:2" />
<line x1="218" y1="1" x2="218" y2="108" style="stroke:#ddd;stroke-width:2" />
<line x1="327" y1="1" x2="327" y2="108" style="stroke:#ddd;stroke-width:2" />
<line x1="436" y1="1" x2="436" y2="108" style="stroke:#ddd;stroke-width:2" />
<line x1="545" y1="1" x2="545" y2="108" style="stroke:#ddd;stroke-width:2" />
<line x1="654" y1="1" x2="654" y2="108" style="stroke:#ddd;stroke-width:2" />
<line x1="1" y1="54" x2="762" y2="54" style="stroke:#ddd;stroke-width:2;stroke-dasharray:3 3" />
<line x1="55" y1="1" x2="55" y2="108" style="stroke:#ddd;stroke-width:2;stroke-dasharray:3 3" />
<line x1="164" y1="1" x2="164" y2="108" style="stroke:#ddd;stroke-width:2;stroke-dasharray:3 3" />
<line x1="273" y1="1" x2="273" y2="108" style="stroke:#ddd;stroke-width:2;stroke-dasharray:3 3" />
<line x1="382" y1="1" x2="382" y2="108" style="stroke:#ddd;stroke-width:2;stroke-dasharray:3 3" />
<line x1="491" y1="1" x2="491" y2="108" style="stroke:#ddd;stroke-width:2;stroke-dasharray:3 3" />
<line x1="600" y1="1" x2="600" y2="108" style="stroke:#ddd;stroke-width:2;stroke-dasharray:3 3" />
<line x1="709" y1="1" x2="709" y2="108" style="stroke:#ddd;stroke-width:2;stroke-dasharray:3 3" />
<path d="M17.5,21.62c3.62,1.63,9.34,6.69,10.25,9.22" style="fill:none;stroke:black;stroke-width:3" />
<circle cx="17.5" cy="21.62" r="5" stroke-width="0" fill="#FF2A00" opacity="0.7" />
<path d="M126.5,21.62c3.62,1.63,9.34,6.69,10.25,9.22" style="fill:none;stroke:#999;stroke-width:3" />
<path d="M121.5,43.5C125.03,45 129.88,49 131.75,52" style="fill:none;stroke:black;stroke-width:3" />
<circle cx="121.5" cy="43.5" r="5" stroke-width="0" fill="#FF2A00" opacity="0.7" />
<path d="M235.5,21.62c3.62,1.63,9.34,6.69,10.25,9.22" style="fill:none;stroke:#999;stroke-width:3" />
<path d="M230.5,43.5C234.03,45 238.88,49 240.75,52" style="fill:none;stroke:#999;stroke-width:3" />
<path d="M229.25,90.71C231.0,91 232.56,90.07 233.5,88.45c2.75-4.7,5-9.95,7.5-15.95" style="fill:none;stroke:black;stroke-width:3" />
<circle cx="229.25" cy="90.71" r="5" stroke-width="0" fill="#FF2A00" opacity="0.7" />
<path d="M344.5,21.62c3.62,1.63,9.34,6.69,10.25,9.22" style="fill:none;stroke:#999;stroke-width:3" />
<path d="M339.5,43.5C343.03,45 347.88,49 349.75,52" style="fill:none;stroke:#999;stroke-width:3" />
<path d="M338.25,90.71C340.0,91 341.56,90.07 342.5,88.45c2.75-4.7,5-9.95,7.5-15.95" style="fill:none;stroke:#999;stroke-width:3" />
<path d="M365.3,36.57c2.2,0.56,5.59,0.95,8.42,0.46c9.4-1.65,20.15-3.28,29.78-4.61c3.12-0.43,4.74,2.21,3.99,4.58c-1.37,4.35-3,10.25-4.75,16" style="fill:none;stroke:black;stroke-width:3" />
<circle cx="365.3" cy="36.57" r="5" stroke-width="0" fill="#FF2A00" opacity="0.7" />
<path d="M453.5,21.62c3.62,1.63,9.34,6.69,10.25,9.22" style="fill:none;stroke:#999;stroke-width:3" />
<path d="M448.5,43.5C452.03,45 456.88,49 458.75,52" style="fill:none;stroke:#999;stroke-width:3" />
<path d="M447.25,90.71C449.0,91 450.56,90.07 451.5,88.45c2.75-4.7,5-9.95,7.5-15.95" style="fill:none;stroke:#999;stroke-width:3" />
<path d="M474.3,36.57c2.2,0.56,5.59,0.95,8.42,0.46c9.4-1.65,20.15-3.28,29.78-4.61c3.12-0.43,4.74,2.21,3.99,4.58c-1.37,4.35-3,10.25-4.75,16" style="fill:none;stroke:#999;stroke-width:3" />
<path d="M466.88,57.53c3.62,0.85,7.01,0.54,10.41,0.15c12.59-1.43,28.79-3.34,42.33-4.07c4.25-0.23,7.63,0.02,10.66,0.71" style="fill:none;stroke:black;stroke-width:3" />
<circle cx="466.88" cy="57.53" r="5" stroke-width="0" fill="#FF2A00" opacity="0.7" />
<path d="M562.5,21.62c3.62,1.63,9.34,6.69,10.25,9.22" style="fill:none;stroke:#999;stroke-width:3" />
<path d="M557.5,43.5C561.03,45 565.88,49 567.75,52" style="fill:none;stroke:#999;stroke-width:3" />
<path d="M556.25,90.71C558.0,91 559.56,90.07 560.5,88.45c2.75-4.7,5-9.95,7.5-15.95" style="fill:none;stroke:#999;stroke-width:3" />
<path d="M583.3,36.57c2.2,0.56,5.59,0.95,8.42,0.46c9.4-1.65,20.15-3.28,29.78-4.61c3.12-0.43,4.74,2.21,3.99,4.58c-1.37,4.35-3,10.25-4.75,16" style="fill:none;stroke:#999;stroke-width:3" />
<path d="M575.88,57.53c3.62,0.85,7.01,0.54,10.41,0.15c12.59-1.43,28.79-3.34,42.33-4.07c4.25-0.23,7.63,0.02,10.66,0.71" style="fill:none;stroke:#999;stroke-width:3" />
<path d="M602.41,13c1.11,1.11,1.62,2.33,1.7,4.42C606.25,72.5 593.5,83.88 577.0,94.75" style="fill:none;stroke:black;stroke-width:3" />
<circle cx="602.41" cy="13.0" r="5" stroke-width="0" fill="#FF2A00" opacity="0.7" />
<path d="M671.5,21.62c3.62,1.63,9.34,6.69,10.25,9.22" style="fill:none;stroke:#999;stroke-width:3" />
<path d="M666.5,43.5C670.03,45 674.88,49 676.75,52" style="fill:none;stroke:#999;stroke-width:3" />
<path d="M665.25,90.71C667.0,91 668.56,90.07 669.5,88.45c2.75-4.7,5-9.95,7.5-15.95" style="fill:none;stroke:#999;stroke-width:3" />
<path d="M692.3,36.57c2.2,0.56,5.59,0.95,8.42,0.46c9.4-1.65,20.15-3.28,29.78-4.61c3.12-0.43,4.74,2.21,3.99,4.58c-1.37,4.35-3,10.25-4.75,16" style="fill:none;stroke:#999;stroke-width:3" />
<path d="M684.88,57.53c3.62,0.85,7.01,0.54,10.41,0.15c12.59-1.43,28.79-3.34,42.33-4.07c4.25-0.23,7.63,0.02,10.66,0.71" style="fill:none;stroke:#999;stroke-width:3" />
<path d="M711.41,13c1.11,1.11,1.62,2.33,1.7,4.42C715.25,72.5 702.5,83.88 686.0,94.75" style="fill:none;stroke:#999;stroke-width:3" />
<path d="M714.06,56.96c6.58,7.59,18.34,22.12,26.47,29.77c2.19,2.06,5.1,4.4,8.23,5.87" style="fill:none;stroke:black;stroke-width:3" />
<circle cx="714.06" cy="56.96" r="5" stroke-width="0" fill="#FF2A00" opacity="0.7" />
</svg>