<!-- 06cc4 -->
<svg width="872px" height="109px" viewBox="0 0 872px 109px" xmlns="http://www.w3.org/2000/svg" xmlns:xlink="http://www.w3.org/1999/xlink" xml:space="preserve" version="1.1"  baseProfile="full">
<line x1="1" y1="1" x2="871" y2="1" style="stroke:#ddd;stroke-width:2" />
<line x1="1" y1="1" x2="1" y2="108" style="stroke:#ddd;stroke-width:2" />
<line x1="1" y1="108" x2="871" y2="108" style="stroke:#ddd;stroke-width:2" />
<line x1="871" y1="1" x2="871" y2="108" style="stroke:#ddd;stroke-width:2" />
<line x1="109" y1="1" x2="109" y2="108" style="stroke:#ddd;stroke-width:2" />
<line x1="218" y1="1" x2="218" y2="108" style="stroke:#ddd;stroke-width:2" />
<line x1="327" y1="1" x2="327" y2="108" style="stroke:#ddd;stroke-width:2" />
<line x1="436" y1="1" x2="436" y2="108" style="stroke:#ddd;stroke-width:2" />
<line x1="545" y1="1" x2="545" y2="108" style="stroke:#ddd;stroke-width:2" />
<line x1="654" y1="1" x2="654" y2="108" style="stroke:#ddd;stroke-width:2" />
<line x1="763" y1="1" x2="763" y2="108" style="stroke:#ddd;stroke-width:2" />
<line x1="1" y1="54" x2="871" y2="54" style="stroke:#ddd;stroke-width:2;stroke-dasharray:3 3" />
<line x1="55" y1="1" x2="55" y2="108" style="stroke:#ddd;stroke-width:2;stroke-dasharray:3 3" />
<line x1="164" y1="1" x2="164" y2="108" style="stroke:#ddd;stroke-width:2;stroke-dasharray:3 3" />
<line x1="273" y1="1" x2="273" y2="108" style="stroke:#ddd;stroke-width:2;stroke-dasharray:3 3" />
<line x1="382" y1="1" x2="382" y2="108" style="stroke:#ddd;stroke-width:2;stroke-dasharray:3 3" />
<line x1="491" y1="1" x2="491" y2="108" style="stroke:#ddd;stroke-width:2;stroke-dasharray:3 3" />
<line x1="600" y1="1" x2="600" y2="108" style="stroke:#ddd;stroke-width:2;stroke-dasharray:3 3" />
<line x1="709" y1="1" x2="709" y2="108" style="stroke:#ddd;stroke-width:2;stroke-dasharray:3 3" />
<line x1="818" y1="1" x2="818" y2="108" style="stroke:#ddd;stroke-width:2;stroke-dasharray:3 3" />
<path d="M17.13,15.5c4.45,1.78,11.5,7.32,12.62,10.09" style="fill:none;stroke:black;stroke-width:3" />
<circle cx="17.13" cy="15.5" r="5" stroke-width="0" fill="#FF2A00" opacity="0.7" />
<path d="M126.13,15.5c4.45,1.78,11.5,7.32,12.62,10.09" style="fill:none;stroke:#999;stroke-width:3" />
<path d="M121.75,41.75c4.5,1.9,11.62,7.8,12.75,10.75" style="fill:none;stroke:black;stroke-width:3" />
<circle cx="121.75" cy="41.75" r="5" stroke-width="0" fill="#FF2A00" opacity="0.7" />
<path d="M235.13,15.5c4.45,1.78,11.5,7.32,12.62,10.09" style="fill:none;stroke:#999;stroke-width:3" />
<path d="M230.75,41.75c4.5,1.9,11.62,7.8,12.75,10.75" style="fill:none;stroke:#999;stroke-width:3" />
<path d="M233.25,90.73c1.71,1.27,3.97,1.44,4.86-0.25C241.5,84 245.39,75.33 248.25,69.5" style="fill:none;stroke:black;stroke-width:3" />
<circle cx="233.25" cy="90.73" r="5" stroke-width="0" fill="#FF2A00" opacity="0.7" />
<path d="M344.13,15.5c4.45,1.78,11.5,7.32,12.62,10.09" style="fill:none;stroke:#999;stroke-width:3" />
<path d="M339.75,41.75c4.5,1.9,11.62,7.8,12.75,10.75" style="fill:none;stroke:#999;stroke-width:3" />
<path d="M342.25,90.73c1.71,1.27,3.97,1.44,4.86-0.25C350.5,84 354.39,75.33 357.25,69.5" style="fill:none;stroke:#999;stroke-width:3" />
<path d="M358.25,42.2c1.68,0.54,4.75,0.61,6.43,0.54c12.9-0.49,35.26-3.49,56.45-3.73c2.79-0.03,4.19,0.2,5.87,0.53" style="fill:none;stroke:black;stroke-width:3" />
<circle cx="358.25" cy="42.2" r="5" stroke-width="0" fill="#FF2A00" opacity="0.7" />
<path d="M453.13,15.5c4.45,1.78,11.5,7.32,12.62,10.09" style="fill:none;stroke:#999;stroke-width:3" />
<path d="M448.75,41.75c4.5,1.9,11.62,7.8,12.75,10.75" style="fill:none;stroke:#999;stroke-width:3" />
<path d="M451.25,90.73c1.71,1.27,3.97,1.44,4.86-0.25C459.5,84 463.39,75.33 466.25,69.5" style="fill:none;stroke:#999;stroke-width:3" />
<path d="M467.25,42.2c1.68,0.54,4.75,0.61,6.43,0.54c12.9-0.49,35.26-3.49,56.45-3.73c2.79-0.03,4.19,0.2,5.87,0.53" style="fill:none;stroke:#999;stroke-width:3" />
<path d="M497.87,15.75c1.09,0.5,1.74,2.25,1.96,3.25c0.22,1,0.5,46.25,0.28,52.5" style="fill:none;stroke:black;stroke-width:3" />
<circle cx="497.87" cy="15.75" r="5" stroke-width="0" fill="#FF2A00" opacity="0.7" />
<path d="M562.13,15.5c4.45,1.78,11.5,7.32,12.62,10.09" style="fill:none;stroke:#999;stroke-width:3" />
<path d="M557.75,41.75c4.5,1.9,11.62,7.8,12.75,10.75" style="fill:none;stroke:#999;stroke-width:3" />
<path d="M560.25,90.73c1.71,1.27,3.97,1.44,4.86-0.25C568.5,84 572.39,75.33 575.25,69.5" style="fill:none;stroke:#999;stroke-width:3" />
<path d="M576.25,42.2c1.68,0.54,4.75,0.61,6.43,0.54c12.9-0.49,35.26-3.49,56.45-3.73c2.79-0.03,4.19,0.2,5.87,0.53" style="fill:none;stroke:#999;stroke-width:3" />
<path d="M606.87,15.75c1.09,0.5,1.74,2.25,1.96,3.25c0.22,1,0.5,46.25,0.28,52.5" style="fill:none;stroke:#999;stroke-width:3" />
<path d="M625.37,15.25c1.09,0.5,1.74,2.25,1.96,3.25c0.22,1,0.17,37.5-0.72,49.5" style="fill:none;stroke:black;stroke-width:3" />
<circle cx="625.37" cy="15.25" r="5" stroke-width="0" fill="#FF2A00" opacity="0.7" />
<path d="M671.13,15.5c4.45,1.78,11.5,7.32,12.62,10.09" style="fill:none;stroke:#999;stroke-width:3" />
<path d="M666.75,41.75c4.5,1.9,11.62,7.8,12.75,10.75" style="fill:none;stroke:#999;stroke-width:3" />
<path d="M669.25,90.73c1.71,1.27,3.97,1.44,4.86-0.25C677.5,84 681.39,75.33 684.25,69.5" style="fill:none;stroke:#999;stroke-width:3" />
<path d="M685.25,42.2c1.68,0.54,4.75,0.61,6.43,0.54c12.9-0.49,35.26-3.49,56.45-3.73c2.79-0.03,4.19,0.2,5.87,0.53" style="fill:none;stroke:#999;stroke-width:3" />
<path d="M715.87,15.75c1.09,0.5,1.74,2.25,1.96,3.25c0.22,1,0.5,46.25,0.28,52.5" style="fill:none;stroke:#999;stroke-width:3" />
<path d="M734.37,15.25c1.09,0.5,1.74,2.25,1.96,3.25c0.22,1,0.17,37.5-0.72,49.5" style="fill:none;stroke:#999;stroke-width:3" />
<path d="M718.25,69.5c4,0,17.25-1,19.5-1" style="fill:none;stroke:black;stroke-width:3" />
<circle cx="718.25" cy="69.5" r="5" stroke-width="0" fill="#FF2A00" opacity="0.7" />
<path d="M780.13,15.5c4.45,1.78,11.5,7.32,12.62,10.09" style="fill:none;stroke:#999;stroke-width:3" />
<path d="M775.75,41.75c4.5,1.9,11.62,7.8,12.75,10.75" style="fill:none;stroke:#999;stroke-width:3" />
<path d="M778.25,90.73c1.71,1.27,3.97,1.44,4.86-0.25C786.5,84 790.39,75.33 793.25,69.5" style="fill:none;stroke:#999;stroke-width:3" />
<path d="M794.25,42.2c1.68,0.54,4.75,0.61,6.43,0.54c12.9-0.49,35.26-3.49,56.45-3.73c2.79-0.03,4.19,0.2,5.87,0.53" style="fill:none;stroke:#999;stroke-width:3" />
<path d="M824.87,15.75c1.09,0.5,1.74,2.25,1.96,3.25c0.22,1,0.5,46.25,0.28,52.5" style="fill:none;stroke:#999;stroke-width:3" />
<path d="M843.37,15.25c1.09,0.5,1.74,2.25,1.96,3.25c0.22,1,0.17,37.5-0.72,49.5" style="fill:none;stroke:#999;stroke-width:3" />
<path d="M827.25,69.5c4,0,17.25-1,19.5-1" style="fill:none;stroke:#999;stroke-width:3" />
<path d="M808.62,20.25c1.09,0.5,1.74,2.25,1.96,3.25c0.22,1-0.33,47.25-1.08,61.75c-0.23,4.36,1.07,4.43,3.75,4.25c11-0.75,30.25-3.25,40.75-3.75c3.26-0.16,6,1,7.25,1.25" style="fill:none;stroke:black;stroke-width:3" />
<circle cx="808.62" cy="20.25" r="5" stroke-width="0" fill="#FF2A00" opacity="0.7" />
</svg>