<!-- 06d1f -->
<svg width="981px" height="109px" viewBox="0 0 981px 109px" xmlns="http://www.w3.org/2000/svg" xmlns:xlink="http://www.w3.org/1999/xlink" xml:space="preserve" version="1.1"  baseProfile="full">
<line x1="1" y1="1" x2="980" y2="1" style="stroke:#ddd;stroke-width:2" />
<line x1="1" y1="1" x2="1" y2="108" style="stroke:#ddd;stroke-width:2" />
<line x1="1" y1="108" x2="980" y2="108" style="stroke:#ddd;stroke-width:2" />
<line x1="980" y1="1" x2="980" y2="108" style="stroke:#ddd;stroke-width:2" />
<line x1="109" y1="1" x2="109" y2="108" style="stroke:#ddd;stroke-width:2" />
<line x1="218" y1="1" x2="218" y2="108" style="stroke:#ddd;stroke-width:2" />
<line x1="327" y1="1" x2="327" y2="108" style="stroke:#ddd;stroke-width:2" />
<line x1="436" y1="1" x2="436" y2="108" style="stroke:#ddd;stroke-width:2" />
<line x1="545" y1="1" x2="545" y2="108" style="stroke:#ddd;stroke-width:2" />
<line x1="654" y1="1" x2="654" y2="108" style="stroke:#ddd;stroke-width:2" />
<line x1="763" y1="1" x2="763" y2="108" style="stroke:#ddd;stroke-width:2" />
<line x1="872" y1="1" x2="872" y2="108" style="stroke:#ddd;stroke-width:2" />
<line x1="1" y1="54" x2="980" y2="54" style="stroke:#ddd;stroke-width:2;stroke-dasharray:3 3" />
<line x1="55" y1="1" x2="55" y2="108" style="stroke:#ddd;stroke-width:2;stroke-dasharray:3 3" />
<line x1="164" y1="1" x2="164" y2="108" style="stroke:#ddd;stroke-width:2;stroke-dasharray:3 3" />
<line x1="273" y1="1" x2="273" y2="108" style="stroke:#ddd;stroke-width:2;stroke-dasharray:3 3" />
<line x1="382" y1="1" x2="382" y2="108" style="stroke:#ddd;stroke-width:2;stroke-dasharray:3 3" />
<line x1="491" y1="1" x2="491" y2="108" style="stroke:#ddd;stroke-width:2;stroke-dasharray:3 3" />
<line x1="600" y1="1" x2="600" y2="108" style="stroke:#ddd;stroke-width:2;stroke-dasharray:3 3" />
<line x1="709" y1="1" x2="709" y2="108" style="stroke:#ddd;stroke-width:2;stroke-dasharray:3 3" />
<line x1="818" y1="1" x2="818" y2="108" style="stroke:#ddd;stroke-width:2;stroke-dasharray:3 3" />
<line x1="927" y1="1" x2="927" y2="108" style="stroke:#ddd;stroke-width:2;stroke-dasharray:3 3" />
<path d="M17.13,18.25c4.63,1.65,11.96,6.78,13.12,9.34" style="fill:none;stroke:black;stroke-width:3" />
<circle cx="17.13" cy="18.25" r="5" stroke-width="0" fill="#FF2A00" opacity="0.7" />
<path d="M126.13,18.25c4.63,1.65,11.96,6.78,13.12,9.34" style="fill:none;stroke:#999;stroke-width:3" />
<path d="M122.75,43.75c4.5,1.54,11.62,6.35,12.75,8.75" style="fill:none;stroke:black;stroke-width:3" />
<circle cx="122.75" cy="43.75" r="5" stroke-width="0" fill="#FF2A00" opacity="0.7" />
<path d="M235.13,18.25c4.63,1.65,11.96,6.78,13.12,9.34" style="fill:none;stroke:#999;stroke-width:3" />
<path d="M231.75,43.75c4.5,1.54,11.62,6.35,12.75,8.75" style="fill:none;stroke:#999;stroke-width:3" />
<path d="M231.25,89.23c1.71,1.27,3.78,1.32,4.86-0.25C239.25,84.42 247.39,70.83 250.25,65" style="fill:none;stroke:black;stroke-width:3" />
<circle cx="231.25" cy="89.23" r="5" stroke-width="0" fill="#FF2A00" opacity="0.7" />
<path d="M344.13,18.25c4.63,1.65,11.96,6.78,13.12,9.34" style="fill:none;stroke:#999;stroke-width:3" />
<path d="M340.75,43.75c4.5,1.54,11.62,6.35,12.75,8.75" style="fill:none;stroke:#999;stroke-width:3" />
<path d="M340.25,89.23c1.71,1.27,3.78,1.32,4.86-0.25C348.25,84.42 356.39,70.83 359.25,65" style="fill:none;stroke:#999;stroke-width:3" />
<path d="M367.33,25.96c1.35,0.32,3.82,0.36,5.18,0.32c8.87-0.23,27.78-3.2,40.63-3.2c2.25,0,3.6,0.15,4.73,0.31" style="fill:none;stroke:black;stroke-width:3" />
<circle cx="367.33" cy="25.96" r="5" stroke-width="0" fill="#FF2A00" opacity="0.7" />
<path d="M453.13,18.25c4.63,1.65,11.96,6.78,13.12,9.34" style="fill:none;stroke:#999;stroke-width:3" />
<path d="M449.75,43.75c4.5,1.54,11.62,6.35,12.75,8.75" style="fill:none;stroke:#999;stroke-width:3" />
<path d="M449.25,89.23c1.71,1.27,3.78,1.32,4.86-0.25C457.25,84.42 465.39,70.83 468.25,65" style="fill:none;stroke:#999;stroke-width:3" />
<path d="M476.33,25.96c1.35,0.32,3.82,0.36,5.18,0.32c8.87-0.23,27.78-3.2,40.63-3.2c2.25,0,3.6,0.15,4.73,0.31" style="fill:none;stroke:#999;stroke-width:3" />
<path d="M479.04,36.41c1.21,0.34,2.86,1.08,4.76,0.95C489.0,37 513.63,34.51 517.42,33.78c3.78-0.72,4.83,1.73,3.7,3.66c-0.81,1.38-1.8,4.08-2.45,6.54c-0.26,0.98-0.47,1.92-0.59,2.73" style="fill:none;stroke:black;stroke-width:3" />
<circle cx="479.04" cy="36.41" r="5" stroke-width="0" fill="#FF2A00" opacity="0.7" />
<path d="M562.13,18.25c4.63,1.65,11.96,6.78,13.12,9.34" style="fill:none;stroke:#999;stroke-width:3" />
<path d="M558.75,43.75c4.5,1.54,11.62,6.35,12.75,8.75" style="fill:none;stroke:#999;stroke-width:3" />
<path d="M558.25,89.23c1.71,1.27,3.78,1.32,4.86-0.25C566.25,84.42 574.39,70.83 577.25,65" style="fill:none;stroke:#999;stroke-width:3" />
<path d="M585.3299999999999,25.96c1.35,0.32,3.82,0.36,5.18,0.32c8.87-0.23,27.78-3.2,40.63-3.2c2.25,0,3.6,0.15,4.73,0.31" style="fill:none;stroke:#999;stroke-width:3" />
<path d="M588.04,36.41c1.21,0.34,2.86,1.08,4.76,0.95C598.0,37 622.63,34.51 626.42,33.78c3.78-0.72,4.83,1.73,3.7,3.66c-0.81,1.38-1.8,4.08-2.45,6.54c-0.26,0.98-0.47,1.92-0.59,2.73" style="fill:none;stroke:#999;stroke-width:3" />
<path d="M591.3,50.17C601.0,49 618.04,47.42 625.83,47.24c1.55-0.04,2.48,0.18,3.26,0.38" style="fill:none;stroke:black;stroke-width:3" />
<circle cx="591.3" cy="50.17" r="5" stroke-width="0" fill="#FF2A00" opacity="0.7" />
<path d="M671.13,18.25c4.63,1.65,11.96,6.78,13.12,9.34" style="fill:none;stroke:#999;stroke-width:3" />
<path d="M667.75,43.75c4.5,1.54,11.62,6.35,12.75,8.75" style="fill:none;stroke:#999;stroke-width:3" />
<path d="M667.25,89.23c1.71,1.27,3.78,1.32,4.86-0.25C675.25,84.42 683.39,70.83 686.25,65" style="fill:none;stroke:#999;stroke-width:3" />
<path d="M694.3299999999999,25.96c1.35,0.32,3.82,0.36,5.18,0.32c8.87-0.23,27.78-3.2,40.63-3.2c2.25,0,3.6,0.15,4.73,0.31" style="fill:none;stroke:#999;stroke-width:3" />
<path d="M697.04,36.41c1.21,0.34,2.86,1.08,4.76,0.95C707.0,37 731.63,34.51 735.42,33.78c3.78-0.72,4.83,1.73,3.7,3.66c-0.81,1.38-1.8,4.08-2.45,6.54c-0.26,0.98-0.47,1.92-0.59,2.73" style="fill:none;stroke:#999;stroke-width:3" />
<path d="M700.3,50.17C710.0,49 727.04,47.42 734.83,47.24c1.55-0.04,2.48,0.18,3.26,0.38" style="fill:none;stroke:#999;stroke-width:3" />
<path d="M700.19,48.58c0.31,1.17,0.46,2.08-0.28,3.6c-0.84,1.75-3.26,7.65-3.92,8.37c-1.5,1.67-1.29,3.92,1.7,3.39c4.15-0.73,38.09-4.33,44.14-5.05c3.09-0.37,4.88,1.14,4.14,4.6c-1.1,5.17-2.48,8.75-4.99,13.5c-2.99,5.65-4.78,1.32-6.51-0.55" style="fill:none;stroke:black;stroke-width:3" />
<circle cx="700.19" cy="48.58" r="5" stroke-width="0" fill="#FF2A00" opacity="0.7" />
<path d="M780.13,18.25c4.63,1.65,11.96,6.78,13.12,9.34" style="fill:none;stroke:#999;stroke-width:3" />
<path d="M776.75,43.75c4.5,1.54,11.62,6.35,12.75,8.75" style="fill:none;stroke:#999;stroke-width:3" />
<path d="M776.25,89.23c1.71,1.27,3.78,1.32,4.86-0.25C784.25,84.42 792.39,70.83 795.25,65" style="fill:none;stroke:#999;stroke-width:3" />
<path d="M803.3299999999999,25.96c1.35,0.32,3.82,0.36,5.18,0.32c8.87-0.23,27.78-3.2,40.63-3.2c2.25,0,3.6,0.15,4.73,0.31" style="fill:none;stroke:#999;stroke-width:3" />
<path d="M806.04,36.41c1.21,0.34,2.86,1.08,4.76,0.95C816.0,37 840.63,34.51 844.42,33.78c3.78-0.72,4.83,1.73,3.7,3.66c-0.81,1.38-1.8,4.08-2.45,6.54c-0.26,0.98-0.47,1.92-0.59,2.73" style="fill:none;stroke:#999;stroke-width:3" />
<path d="M809.3,50.17C819.0,49 836.04,47.42 843.83,47.24c1.55-0.04,2.48,0.18,3.26,0.38" style="fill:none;stroke:#999;stroke-width:3" />
<path d="M809.19,48.58c0.31,1.17,0.46,2.08-0.28,3.6c-0.84,1.75-3.26,7.65-3.92,8.37c-1.5,1.67-1.29,3.92,1.7,3.39c4.15-0.73,38.09-4.33,44.14-5.05c3.09-0.37,4.88,1.14,4.14,4.6c-1.1,5.17-2.48,8.75-4.99,13.5c-2.99,5.65-4.78,1.32-6.51-0.55" style="fill:none;stroke:#999;stroke-width:3" />
<path d="M824.97,12.25c1.29,1.71,1.72,2.71,1.72,5.63c0,26.68,4.81,62.62-31.38,80.33" style="fill:none;stroke:black;stroke-width:3" />
<circle cx="824.97" cy="12.25" r="5" stroke-width="0" fill="#FF2A00" opacity="0.7" />
<path d="M889.13,18.25c4.63,1.65,11.96,6.78,13.12,9.34" style="fill:none;stroke:#999;stroke-width:3" />
<path d="M885.75,43.75c4.5,1.54,11.62,6.35,12.75,8.75" style="fill:none;stroke:#999;stroke-width:3" />
<path d="M885.25,89.23c1.71,1.27,3.78,1.32,4.86-0.25C893.25,84.42 901.39,70.83 904.25,65" style="fill:none;stroke:#999;stroke-width:3" />
<path d="M912.3299999999999,25.96c1.35,0.32,3.82,0.36,5.18,0.32c8.87-0.23,27.78-3.2,40.63-3.2c2.25,0,3.6,0.15,4.73,0.31" style="fill:none;stroke:#999;stroke-width:3" />
<path d="M915.04,36.41c1.21,0.34,2.86,1.08,4.76,0.95C925.0,37 949.63,34.51 953.42,33.78c3.78-0.72,4.83,1.73,3.7,3.66c-0.81,1.38-1.8,4.08-2.45,6.54c-0.26,0.98-0.47,1.92-0.59,2.73" style="fill:none;stroke:#999;stroke-width:3" />
<path d="M918.3,50.17C928.0,49 945.04,47.42 952.83,47.24c1.55-0.04,2.48,0.18,3.26,0.38" style="fill:none;stroke:#999;stroke-width:3" />
<path d="M918.19,48.58c0.31,1.17,0.46,2.08-0.28,3.6c-0.84,1.75-3.26,7.65-3.92,8.37c-1.5,1.67-1.29,3.92,1.7,3.39c4.15-0.73,38.09-4.33,44.14-5.05c3.09-0.37,4.88,1.14,4.14,4.6c-1.1,5.17-2.48,8.75-4.99,13.5c-2.99,5.65-4.78,1.32-6.51-0.55" style="fill:none;stroke:#999;stroke-width:3" />
<path d="M933.97,12.25c1.29,1.71,1.72,2.71,1.72,5.63c0,26.68,4.81,62.62-31.38,80.33" style="fill:none;stroke:#999;stroke-width:3" />
<path d="M932.22,66.21C936.51,71.89 955.0,90.43 959.73,94.58C961.33,96 963.39,96.6 965.0,97" style="fill:none;stroke:black;stroke-width:3" />
<circle cx="932.22" cy="66.21" r="5" stroke-width="0" fill="#FF2A00" opacity="0.7" />
</svg>