<!-- 06d3e -->
<svg width="981px" height="109px" viewBox="0 0 981px 109px" xmlns="http://www.w3.org/2000/svg" xmlns:xlink="http://www.w3.org/1999/xlink" xml:space="preserve" version="1.1"  baseProfile="full">
<line x1="1" y1="1" x2="980" y2="1" style="stroke:#ddd;stroke-width:2" />
<line x1="1" y1="1" x2="1" y2="108" style="stroke:#ddd;stroke-width:2" />
<line x1="1" y1="108" x2="980" y2="108" style="stroke:#ddd;stroke-width:2" />
<line x1="980" y1="1" x2="980" y2="108" style="stroke:#ddd;stroke-width:2" />
<line x1="109" y1="1" x2="109" y2="108" style="stroke:#ddd;stroke-width:2" />
<line x1="218" y1="1" x2="218" y2="108" style="stroke:#ddd;stroke-width:2" />
<line x1="327" y1="1" x2="327" y2="108" style="stroke:#ddd;stroke-width:2" />
<line x1="436" y1="1" x2="436" y2="108" style="stroke:#ddd;stroke-width:2" />
<line x1="545" y1="1" x2="545" y2="108" style="stroke:#ddd;stroke-width:2" />
<line x1="654" y1="1" x2="654" y2="108" style="stroke:#ddd;stroke-width:2" />
<line x1="763" y1="1" x2="763" y2="108" style="stroke:#ddd;stroke-width:2" />
<line x1="872" y1="1" x2="872" y2="108" style="stroke:#ddd;stroke-width:2" />
<line x1="1" y1="54" x2="980" y2="54" style="stroke:#ddd;stroke-width:2;stroke-dasharray:3 3" />
<line x1="55" y1="1" x2="55" y2="108" style="stroke:#ddd;stroke-width:2;stroke-dasharray:3 3" />
<line x1="164" y1="1" x2="164" y2="108" style="stroke:#ddd;stroke-width:2;stroke-dasharray:3 3" />
<line x1="273" y1="1" x2="273" y2="108" style="stroke:#ddd;stroke-width:2;stroke-dasharray:3 3" />
<line x1="382" y1="1" x2="382" y2="108" style="stroke:#ddd;stroke-width:2;stroke-dasharray:3 3" />
<line x1="491" y1="1" x2="491" y2="108" style="stroke:#ddd;stroke-width:2;stroke-dasharray:3 3" />
<line x1="600" y1="1" x2="600" y2="108" style="stroke:#ddd;stroke-width:2;stroke-dasharray:3 3" />
<line x1="709" y1="1" x2="709" y2="108" style="stroke:#ddd;stroke-width:2;stroke-dasharray:3 3" />
<line x1="818" y1="1" x2="818" y2="108" style="stroke:#ddd;stroke-width:2;stroke-dasharray:3 3" />
<line x1="927" y1="1" x2="927" y2="108" style="stroke:#ddd;stroke-width:2;stroke-dasharray:3 3" />
<path d="M17.63,17.75C21.88,20 26.5,23 29.0,26.09" style="fill:none;stroke:black;stroke-width:3" />
<circle cx="17.63" cy="17.75" r="5" stroke-width="0" fill="#FF2A00" opacity="0.7" />
<path d="M126.63,17.75C130.88,20 135.5,23 138.0,26.09" style="fill:none;stroke:#999;stroke-width:3" />
<path d="M122.25,41.5c4.24,1.37,10.94,5.62,12,7.75" style="fill:none;stroke:black;stroke-width:3" />
<circle cx="122.25" cy="41.5" r="5" stroke-width="0" fill="#FF2A00" opacity="0.7" />
<path d="M235.63,17.75C239.88,20 244.5,23 247.0,26.09" style="fill:none;stroke:#999;stroke-width:3" />
<path d="M231.25,41.5c4.24,1.37,10.94,5.62,12,7.75" style="fill:none;stroke:#999;stroke-width:3" />
<path d="M231.83,92.25c1.35,0.5,2.72,0.23,3.53-1.01c3.14-4.79,6.29-10.64,9.14-16.75" style="fill:none;stroke:black;stroke-width:3" />
<circle cx="231.83" cy="92.25" r="5" stroke-width="0" fill="#FF2A00" opacity="0.7" />
<path d="M344.63,17.75C348.88,20 353.5,23 356.0,26.09" style="fill:none;stroke:#999;stroke-width:3" />
<path d="M340.25,41.5c4.24,1.37,10.94,5.62,12,7.75" style="fill:none;stroke:#999;stroke-width:3" />
<path d="M340.83000000000004,92.25c1.35,0.5,2.72,0.23,3.53-1.01c3.14-4.79,6.29-10.64,9.14-16.75" style="fill:none;stroke:#999;stroke-width:3" />
<path d="M392.82,13c0.15,1.12-0.18,2.14-0.95,2.96c-5.12,5.41-10.37,9.66-19.12,14.33" style="fill:none;stroke:black;stroke-width:3" />
<circle cx="392.82" cy="13.0" r="5" stroke-width="0" fill="#FF2A00" opacity="0.7" />
<path d="M453.63,17.75C457.88,20 462.5,23 465.0,26.09" style="fill:none;stroke:#999;stroke-width:3" />
<path d="M449.25,41.5c4.24,1.37,10.94,5.62,12,7.75" style="fill:none;stroke:#999;stroke-width:3" />
<path d="M449.83000000000004,92.25c1.35,0.5,2.72,0.23,3.53-1.01c3.14-4.79,6.29-10.64,9.14-16.75" style="fill:none;stroke:#999;stroke-width:3" />
<path d="M501.82,13c0.15,1.12-0.18,2.14-0.95,2.96c-5.12,5.41-10.37,9.66-19.12,14.33" style="fill:none;stroke:#999;stroke-width:3" />
<path d="M477.75,30.28c0.98,0.98,1.39,2.47,1.39,4.11c0,21.09,1.35,50.11-13.34,62.86" style="fill:none;stroke:black;stroke-width:3" />
<circle cx="477.75" cy="30.28" r="5" stroke-width="0" fill="#FF2A00" opacity="0.7" />
<path d="M562.63,17.75C566.88,20 571.5,23 574.0,26.09" style="fill:none;stroke:#999;stroke-width:3" />
<path d="M558.25,41.5c4.24,1.37,10.94,5.62,12,7.75" style="fill:none;stroke:#999;stroke-width:3" />
<path d="M558.83,92.25c1.35,0.5,2.72,0.23,3.53-1.01c3.14-4.79,6.29-10.64,9.14-16.75" style="fill:none;stroke:#999;stroke-width:3" />
<path d="M610.8199999999999,13c0.15,1.12-0.18,2.14-0.95,2.96c-5.12,5.41-10.37,9.66-19.12,14.33" style="fill:none;stroke:#999;stroke-width:3" />
<path d="M586.75,30.28c0.98,0.98,1.39,2.47,1.39,4.11c0,21.09,1.35,50.11-13.34,62.86" style="fill:none;stroke:#999;stroke-width:3" />
<path d="M620.34,27.5c0.13,1.15-0.31,1.82-1.13,2.7c-3.72,4.02-6.93,6.37-13.46,10.84" style="fill:none;stroke:black;stroke-width:3" />
<circle cx="620.34" cy="27.5" r="5" stroke-width="0" fill="#FF2A00" opacity="0.7" />
<path d="M671.63,17.75C675.88,20 680.5,23 683.0,26.09" style="fill:none;stroke:#999;stroke-width:3" />
<path d="M667.25,41.5c4.24,1.37,10.94,5.62,12,7.75" style="fill:none;stroke:#999;stroke-width:3" />
<path d="M667.83,92.25c1.35,0.5,2.72,0.23,3.53-1.01c3.14-4.79,6.29-10.64,9.14-16.75" style="fill:none;stroke:#999;stroke-width:3" />
<path d="M719.8199999999999,13c0.15,1.12-0.18,2.14-0.95,2.96c-5.12,5.41-10.37,9.66-19.12,14.33" style="fill:none;stroke:#999;stroke-width:3" />
<path d="M695.75,30.28c0.98,0.98,1.39,2.47,1.39,4.11c0,21.09,1.35,50.11-13.34,62.86" style="fill:none;stroke:#999;stroke-width:3" />
<path d="M729.34,27.5c0.13,1.15-0.31,1.82-1.13,2.7c-3.72,4.02-6.93,6.37-13.46,10.84" style="fill:none;stroke:#999;stroke-width:3" />
<path d="M711.02,40.33c0.98,0.92,1.51,2.54,1.51,4.52c0,9.81,0.04,31.42,0.05,44.52c0,2.13,0,4.03,0,5.62" style="fill:none;stroke:black;stroke-width:3" />
<circle cx="711.02" cy="40.33" r="5" stroke-width="0" fill="#FF2A00" opacity="0.7" />
<path d="M780.63,17.75C784.88,20 789.5,23 792.0,26.09" style="fill:none;stroke:#999;stroke-width:3" />
<path d="M776.25,41.5c4.24,1.37,10.94,5.62,12,7.75" style="fill:none;stroke:#999;stroke-width:3" />
<path d="M776.83,92.25c1.35,0.5,2.72,0.23,3.53-1.01c3.14-4.79,6.29-10.64,9.14-16.75" style="fill:none;stroke:#999;stroke-width:3" />
<path d="M828.8199999999999,13c0.15,1.12-0.18,2.14-0.95,2.96c-5.12,5.41-10.37,9.66-19.12,14.33" style="fill:none;stroke:#999;stroke-width:3" />
<path d="M804.75,30.28c0.98,0.98,1.39,2.47,1.39,4.11c0,21.09,1.35,50.11-13.34,62.86" style="fill:none;stroke:#999;stroke-width:3" />
<path d="M838.34,27.5c0.13,1.15-0.31,1.82-1.13,2.7c-3.72,4.02-6.93,6.37-13.46,10.84" style="fill:none;stroke:#999;stroke-width:3" />
<path d="M820.02,40.33c0.98,0.92,1.51,2.54,1.51,4.52c0,9.81,0.04,31.42,0.05,44.52c0,2.13,0,4.03,0,5.62" style="fill:none;stroke:#999;stroke-width:3" />
<path d="M848.59,38.75c0.03,0.75-0.22,1.38-0.83,2.08c-3.92,4.5-6.14,6.42-14.26,11.21" style="fill:none;stroke:black;stroke-width:3" />
<circle cx="848.59" cy="38.75" r="5" stroke-width="0" fill="#FF2A00" opacity="0.7" />
<path d="M889.63,17.75C893.88,20 898.5,23 901.0,26.09" style="fill:none;stroke:#999;stroke-width:3" />
<path d="M885.25,41.5c4.24,1.37,10.94,5.62,12,7.75" style="fill:none;stroke:#999;stroke-width:3" />
<path d="M885.83,92.25c1.35,0.5,2.72,0.23,3.53-1.01c3.14-4.79,6.29-10.64,9.14-16.75" style="fill:none;stroke:#999;stroke-width:3" />
<path d="M937.8199999999999,13c0.15,1.12-0.18,2.14-0.95,2.96c-5.12,5.41-10.37,9.66-19.12,14.33" style="fill:none;stroke:#999;stroke-width:3" />
<path d="M913.75,30.28c0.98,0.98,1.39,2.47,1.39,4.11c0,21.09,1.35,50.11-13.34,62.86" style="fill:none;stroke:#999;stroke-width:3" />
<path d="M947.34,27.5c0.13,1.15-0.31,1.82-1.13,2.7c-3.72,4.02-6.93,6.37-13.46,10.84" style="fill:none;stroke:#999;stroke-width:3" />
<path d="M929.02,40.33c0.98,0.92,1.51,2.54,1.51,4.52c0,9.81,0.04,31.42,0.05,44.52c0,2.13,0,4.03,0,5.62" style="fill:none;stroke:#999;stroke-width:3" />
<path d="M957.59,38.75c0.03,0.75-0.22,1.38-0.83,2.08c-3.92,4.5-6.14,6.42-14.26,11.21" style="fill:none;stroke:#999;stroke-width:3" />
<path d="M937.5,47.25C943.84,58.96 950.0,70.88 958.29,82.22c2.01,2.75,4.95,5.58,7.21,7.28" style="fill:none;stroke:black;stroke-width:3" />
<circle cx="937.5" cy="47.25" r="5" stroke-width="0" fill="#FF2A00" opacity="0.7" />
</svg>