<!-- 06dd1 -->
<svg width="1199px" height="109px" viewBox="0 0 1199px 109px" xmlns="http://www.w3.org/2000/svg" xmlns:xlink="http://www.w3.org/1999/xlink" xml:space="preserve" version="1.1"  baseProfile="full">
<line x1="1" y1="1" x2="1198" y2="1" style="stroke:#ddd;stroke-width:2" />
<line x1="1" y1="1" x2="1" y2="108" style="stroke:#ddd;stroke-width:2" />
<line x1="1" y1="108" x2="1198" y2="108" style="stroke:#ddd;stroke-width:2" />
<line x1="1198" y1="1" x2="1198" y2="108" style="stroke:#ddd;stroke-width:2" />
<line x1="109" y1="1" x2="109" y2="108" style="stroke:#ddd;stroke-width:2" />
<line x1="218" y1="1" x2="218" y2="108" style="stroke:#ddd;stroke-width:2" />
<line x1="327" y1="1" x2="327" y2="108" style="stroke:#ddd;stroke-width:2" />
<line x1="436" y1="1" x2="436" y2="108" style="stroke:#ddd;stroke-width:2" />
<line x1="545" y1="1" x2="545" y2="108" style="stroke:#ddd;stroke-width:2" />
<line x1="654" y1="1" x2="654" y2="108" style="stroke:#ddd;stroke-width:2" />
<line x1="763" y1="1" x2="763" y2="108" style="stroke:#ddd;stroke-width:2" />
<line x1="872" y1="1" x2="872" y2="108" style="stroke:#ddd;stroke-width:2" />
<line x1="981" y1="1" x2="981" y2="108" style="stroke:#ddd;stroke-width:2" />
<line x1="1090" y1="1" x2="1090" y2="108" style="stroke:#ddd;stroke-width:2" />
<line x1="1" y1="54" x2="1198" y2="54" style="stroke:#ddd;stroke-width:2;stroke-dasharray:3 3" />
<line x1="55" y1="1" x2="55" y2="108" style="stroke:#ddd;stroke-width:2;stroke-dasharray:3 3" />
<line x1="164" y1="1" x2="164" y2="108" style="stroke:#ddd;stroke-width:2;stroke-dasharray:3 3" />
<line x1="273" y1="1" x2="273" y2="108" style="stroke:#ddd;stroke-width:2;stroke-dasharray:3 3" />
<line x1="382" y1="1" x2="382" y2="108" style="stroke:#ddd;stroke-width:2;stroke-dasharray:3 3" />
<line x1="491" y1="1" x2="491" y2="108" style="stroke:#ddd;stroke-width:2;stroke-dasharray:3 3" />
<line x1="600" y1="1" x2="600" y2="108" style="stroke:#ddd;stroke-width:2;stroke-dasharray:3 3" />
<line x1="709" y1="1" x2="709" y2="108" style="stroke:#ddd;stroke-width:2;stroke-dasharray:3 3" />
<line x1="818" y1="1" x2="818" y2="108" style="stroke:#ddd;stroke-width:2;stroke-dasharray:3 3" />
<line x1="927" y1="1" x2="927" y2="108" style="stroke:#ddd;stroke-width:2;stroke-dasharray:3 3" />
<line x1="1036" y1="1" x2="1036" y2="108" style="stroke:#ddd;stroke-width:2;stroke-dasharray:3 3" />
<line x1="1145" y1="1" x2="1145" y2="108" style="stroke:#ddd;stroke-width:2;stroke-dasharray:3 3" />
<path d="M15.12,18.12c3.57,1.27,9.23,5.24,10.12,7.22" style="fill:none;stroke:black;stroke-width:3" />
<circle cx="15.12" cy="18.12" r="5" stroke-width="0" fill="#FF2A00" opacity="0.7" />
<path d="M124.12,18.12c3.57,1.27,9.23,5.24,10.12,7.22" style="fill:none;stroke:#999;stroke-width:3" />
<path d="M118.75,43.62c3.88,1.34,10.03,5.53,11,7.62" style="fill:none;stroke:black;stroke-width:3" />
<circle cx="118.75" cy="43.62" r="5" stroke-width="0" fill="#FF2A00" opacity="0.7" />
<path d="M233.12,18.12c3.57,1.27,9.23,5.24,10.12,7.22" style="fill:none;stroke:#999;stroke-width:3" />
<path d="M227.75,43.62c3.88,1.34,10.03,5.53,11,7.62" style="fill:none;stroke:#999;stroke-width:3" />
<path d="M229.09,89.77c1.29,0.73,2.64,0.52,3.41-0.9c2.75-5.04,5.5-11.19,8-17.62" style="fill:none;stroke:black;stroke-width:3" />
<circle cx="229.09" cy="89.77" r="5" stroke-width="0" fill="#FF2A00" opacity="0.7" />
<path d="M342.12,18.12c3.57,1.27,9.23,5.24,10.12,7.22" style="fill:none;stroke:#999;stroke-width:3" />
<path d="M336.75,43.62c3.88,1.34,10.03,5.53,11,7.62" style="fill:none;stroke:#999;stroke-width:3" />
<path d="M338.09000000000003,89.77c1.29,0.73,2.64,0.52,3.41-0.9c2.75-5.04,5.5-11.19,8-17.62" style="fill:none;stroke:#999;stroke-width:3" />
<path d="M369.93,16.88c1.03,1.03,1.32,2.24,1.32,3.79c0,4.57-0.12,20.23-0.12,26.07" style="fill:none;stroke:black;stroke-width:3" />
<circle cx="369.93" cy="16.88" r="5" stroke-width="0" fill="#FF2A00" opacity="0.7" />
<path d="M451.12,18.12c3.57,1.27,9.23,5.24,10.12,7.22" style="fill:none;stroke:#999;stroke-width:3" />
<path d="M445.75,43.62c3.88,1.34,10.03,5.53,11,7.62" style="fill:none;stroke:#999;stroke-width:3" />
<path d="M447.09000000000003,89.77c1.29,0.73,2.64,0.52,3.41-0.9c2.75-5.04,5.5-11.19,8-17.62" style="fill:none;stroke:#999;stroke-width:3" />
<path d="M478.93,16.88c1.03,1.03,1.32,2.24,1.32,3.79c0,4.57-0.12,20.23-0.12,26.07" style="fill:none;stroke:#999;stroke-width:3" />
<path d="M481.59000000000003,32.04c1.65,0,5.15-1.19,9.96-1.78c1.73-0.21,2.48-0.19,3.52-0.15" style="fill:none;stroke:black;stroke-width:3" />
<circle cx="481.59000000000003" cy="32.04" r="5" stroke-width="0" fill="#FF2A00" opacity="0.7" />
<path d="M560.12,18.12c3.57,1.27,9.23,5.24,10.12,7.22" style="fill:none;stroke:#999;stroke-width:3" />
<path d="M554.75,43.62c3.88,1.34,10.03,5.53,11,7.62" style="fill:none;stroke:#999;stroke-width:3" />
<path d="M556.09,89.77c1.29,0.73,2.64,0.52,3.41-0.9c2.75-5.04,5.5-11.19,8-17.62" style="fill:none;stroke:#999;stroke-width:3" />
<path d="M587.9300000000001,16.88c1.03,1.03,1.32,2.24,1.32,3.79c0,4.57-0.12,20.23-0.12,26.07" style="fill:none;stroke:#999;stroke-width:3" />
<path d="M590.59,32.04c1.65,0,5.15-1.19,9.96-1.78c1.73-0.21,2.48-0.19,3.52-0.15" style="fill:none;stroke:#999;stroke-width:3" />
<path d="M573.43,48.81c1.19,0.44,3.09,0.61,4.8,0.33c8.52-1.39,16.27-2.89,24.24-3.57c1-0.08,3.03-0.32,4.1,0.06" style="fill:none;stroke:black;stroke-width:3" />
<circle cx="573.43" cy="48.81" r="5" stroke-width="0" fill="#FF2A00" opacity="0.7" />
<path d="M669.12,18.12c3.57,1.27,9.23,5.24,10.12,7.22" style="fill:none;stroke:#999;stroke-width:3" />
<path d="M663.75,43.62c3.88,1.34,10.03,5.53,11,7.62" style="fill:none;stroke:#999;stroke-width:3" />
<path d="M665.09,89.77c1.29,0.73,2.64,0.52,3.41-0.9c2.75-5.04,5.5-11.19,8-17.62" style="fill:none;stroke:#999;stroke-width:3" />
<path d="M696.9300000000001,16.88c1.03,1.03,1.32,2.24,1.32,3.79c0,4.57-0.12,20.23-0.12,26.07" style="fill:none;stroke:#999;stroke-width:3" />
<path d="M699.59,32.04c1.65,0,5.15-1.19,9.96-1.78c1.73-0.21,2.48-0.19,3.52-0.15" style="fill:none;stroke:#999;stroke-width:3" />
<path d="M682.43,48.81c1.19,0.44,3.09,0.61,4.8,0.33c8.52-1.39,16.27-2.89,24.24-3.57c1-0.08,3.03-0.32,4.1,0.06" style="fill:none;stroke:#999;stroke-width:3" />
<path d="M698.64,50.12c0.94,0.94,1.26,2.13,1.26,3.92c0,12.71,0.04,29.3,0.04,33.28c0,9.02-5.78,1.2-6.98,0.2" style="fill:none;stroke:black;stroke-width:3" />
<circle cx="698.64" cy="50.12" r="5" stroke-width="0" fill="#FF2A00" opacity="0.7" />
<path d="M778.12,18.12c3.57,1.27,9.23,5.24,10.12,7.22" style="fill:none;stroke:#999;stroke-width:3" />
<path d="M772.75,43.62c3.88,1.34,10.03,5.53,11,7.62" style="fill:none;stroke:#999;stroke-width:3" />
<path d="M774.09,89.77c1.29,0.73,2.64,0.52,3.41-0.9c2.75-5.04,5.5-11.19,8-17.62" style="fill:none;stroke:#999;stroke-width:3" />
<path d="M805.9300000000001,16.88c1.03,1.03,1.32,2.24,1.32,3.79c0,4.57-0.12,20.23-0.12,26.07" style="fill:none;stroke:#999;stroke-width:3" />
<path d="M808.59,32.04c1.65,0,5.15-1.19,9.96-1.78c1.73-0.21,2.48-0.19,3.52-0.15" style="fill:none;stroke:#999;stroke-width:3" />
<path d="M791.43,48.81c1.19,0.44,3.09,0.61,4.8,0.33c8.52-1.39,16.27-2.89,24.24-3.57c1-0.08,3.03-0.32,4.1,0.06" style="fill:none;stroke:#999;stroke-width:3" />
<path d="M807.64,50.12c0.94,0.94,1.26,2.13,1.26,3.92c0,12.71,0.04,29.3,0.04,33.28c0,9.02-5.78,1.2-6.98,0.2" style="fill:none;stroke:#999;stroke-width:3" />
<path d="M799.3,61.7c0.04,0.57,0.17,1.5-0.07,2.3C797.5,69.62 793.0,78.5 786.62,86" style="fill:none;stroke:black;stroke-width:3" />
<circle cx="799.3" cy="61.7" r="5" stroke-width="0" fill="#FF2A00" opacity="0.7" />
<path d="M887.12,18.12c3.57,1.27,9.23,5.24,10.12,7.22" style="fill:none;stroke:#999;stroke-width:3" />
<path d="M881.75,43.62c3.88,1.34,10.03,5.53,11,7.62" style="fill:none;stroke:#999;stroke-width:3" />
<path d="M883.09,89.77c1.29,0.73,2.64,0.52,3.41-0.9c2.75-5.04,5.5-11.19,8-17.62" style="fill:none;stroke:#999;stroke-width:3" />
<path d="M914.9300000000001,16.88c1.03,1.03,1.32,2.24,1.32,3.79c0,4.57-0.12,20.23-0.12,26.07" style="fill:none;stroke:#999;stroke-width:3" />
<path d="M917.59,32.04c1.65,0,5.15-1.19,9.96-1.78c1.73-0.21,2.48-0.19,3.52-0.15" style="fill:none;stroke:#999;stroke-width:3" />
<path d="M900.43,48.81c1.19,0.44,3.09,0.61,4.8,0.33c8.52-1.39,16.27-2.89,24.24-3.57c1-0.08,3.03-0.32,4.1,0.06" style="fill:none;stroke:#999;stroke-width:3" />
<path d="M916.64,50.12c0.94,0.94,1.26,2.13,1.26,3.92c0,12.71,0.04,29.3,0.04,33.28c0,9.02-5.78,1.2-6.98,0.2" style="fill:none;stroke:#999;stroke-width:3" />
<path d="M908.3,61.7c0.04,0.57,0.17,1.5-0.07,2.3C906.5,69.62 902.0,78.5 895.62,86" style="fill:none;stroke:#999;stroke-width:3" />
<path d="M925.68,61.06c2.37,2.53,6.11,10.4,6.7,14.33" style="fill:none;stroke:black;stroke-width:3" />
<circle cx="925.68" cy="61.06" r="5" stroke-width="0" fill="#FF2A00" opacity="0.7" />
<path d="M996.12,18.12c3.57,1.27,9.23,5.24,10.12,7.22" style="fill:none;stroke:#999;stroke-width:3" />
<path d="M990.75,43.62c3.88,1.34,10.03,5.53,11,7.62" style="fill:none;stroke:#999;stroke-width:3" />
<path d="M992.09,89.77c1.29,0.73,2.64,0.52,3.41-0.9c2.75-5.04,5.5-11.19,8-17.62" style="fill:none;stroke:#999;stroke-width:3" />
<path d="M1023.9300000000001,16.88c1.03,1.03,1.32,2.24,1.32,3.79c0,4.57-0.12,20.23-0.12,26.07" style="fill:none;stroke:#999;stroke-width:3" />
<path d="M1026.5900000000001,32.04c1.65,0,5.15-1.19,9.96-1.78c1.73-0.21,2.48-0.19,3.52-0.15" style="fill:none;stroke:#999;stroke-width:3" />
<path d="M1009.43,48.81c1.19,0.44,3.09,0.61,4.8,0.33c8.52-1.39,16.27-2.89,24.24-3.57c1-0.08,3.03-0.32,4.1,0.06" style="fill:none;stroke:#999;stroke-width:3" />
<path d="M1025.6399999999999,50.12c0.94,0.94,1.26,2.13,1.26,3.92c0,12.71,0.04,29.3,0.04,33.28c0,9.02-5.78,1.2-6.98,0.2" style="fill:none;stroke:#999;stroke-width:3" />
<path d="M1017.3,61.7c0.04,0.57,0.17,1.5-0.07,2.3C1015.5,69.62 1011.0,78.5 1004.62,86" style="fill:none;stroke:#999;stroke-width:3" />
<path d="M1034.6799999999998,61.06c2.37,2.53,6.11,10.4,6.7,14.33" style="fill:none;stroke:#999;stroke-width:3" />
<path d="M1046.38,29.91c2.24,0.59,4.21,0.47,6.49,0.04c4.62-0.88,12.24-2.81,13.8-3.21C1069.5,26 1071.0,27.5 1070.12,30.95C1062.96,58.94 1051.5,81.75 1034.65,91.5" style="fill:none;stroke:black;stroke-width:3" />
<circle cx="1046.38" cy="29.91" r="5" stroke-width="0" fill="#FF2A00" opacity="0.7" />
<path d="M1105.12,18.12c3.57,1.27,9.23,5.24,10.12,7.22" style="fill:none;stroke:#999;stroke-width:3" />
<path d="M1099.75,43.62c3.88,1.34,10.03,5.53,11,7.62" style="fill:none;stroke:#999;stroke-width:3" />
<path d="M1101.0900000000001,89.77c1.29,0.73,2.64,0.52,3.41-0.9c2.75-5.04,5.5-11.19,8-17.62" style="fill:none;stroke:#999;stroke-width:3" />
<path d="M1132.93,16.88c1.03,1.03,1.32,2.24,1.32,3.79c0,4.57-0.12,20.23-0.12,26.07" style="fill:none;stroke:#999;stroke-width:3" />
<path d="M1135.5900000000001,32.04c1.65,0,5.15-1.19,9.96-1.78c1.73-0.21,2.48-0.19,3.52-0.15" style="fill:none;stroke:#999;stroke-width:3" />
<path d="M1118.4299999999998,48.81c1.19,0.44,3.09,0.61,4.8,0.33c8.52-1.39,16.27-2.89,24.24-3.57c1-0.08,3.03-0.32,4.1,0.06" style="fill:none;stroke:#999;stroke-width:3" />
<path d="M1134.6399999999999,50.12c0.94,0.94,1.26,2.13,1.26,3.92c0,12.71,0.04,29.3,0.04,33.28c0,9.02-5.78,1.2-6.98,0.2" style="fill:none;stroke:#999;stroke-width:3" />
<path d="M1126.3,61.7c0.04,0.57,0.17,1.5-0.07,2.3C1124.5,69.62 1120.0,78.5 1113.62,86" style="fill:none;stroke:#999;stroke-width:3" />
<path d="M1143.6799999999998,61.06c2.37,2.53,6.11,10.4,6.7,14.33" style="fill:none;stroke:#999;stroke-width:3" />
<path d="M1155.38,29.91c2.24,0.59,4.21,0.47,6.49,0.04c4.62-0.88,12.24-2.81,13.8-3.21C1178.5,26 1180.0,27.5 1179.12,30.95C1171.96,58.94 1160.5,81.75 1143.65,91.5" style="fill:none;stroke:#999;stroke-width:3" />
<path d="M1155.3,36.3c2.82,8.57,13.09,29.04,21.83,43.07c1.98,3.18,4.62,7.01,7.97,9.63" style="fill:none;stroke:black;stroke-width:3" />
<circle cx="1155.3" cy="36.3" r="5" stroke-width="0" fill="#FF2A00" opacity="0.7" />
</svg>