<!-- 06df1 -->
<svg width="1199px" height="109px" viewBox="0 0 1199px 109px" xmlns="http://www.w3.org/2000/svg" xmlns:xlink="http://www.w3.org/1999/xlink" xml:space="preserve" version="1.1"  baseProfile="full">
<line x1="1" y1="1" x2="1198" y2="1" style="stroke:#ddd;stroke-width:2" />
<line x1="1" y1="1" x2="1" y2="108" style="stroke:#ddd;stroke-width:2" />
<line x1="1" y1="108" x2="1198" y2="108" style="stroke:#ddd;stroke-width:2" />
<line x1="1198" y1="1" x2="1198" y2="108" style="stroke:#ddd;stroke-width:2" />
<line x1="109" y1="1" x2="109" y2="108" style="stroke:#ddd;stroke-width:2" />
<line x1="218" y1="1" x2="218" y2="108" style="stroke:#ddd;stroke-width:2" />
<line x1="327" y1="1" x2="327" y2="108" style="stroke:#ddd;stroke-width:2" />
<line x1="436" y1="1" x2="436" y2="108" style="stroke:#ddd;stroke-width:2" />
<line x1="545" y1="1" x2="545" y2="108" style="stroke:#ddd;stroke-width:2" />
<line x1="654" y1="1" x2="654" y2="108" style="stroke:#ddd;stroke-width:2" />
<line x1="763" y1="1" x2="763" y2="108" style="stroke:#ddd;stroke-width:2" />
<line x1="872" y1="1" x2="872" y2="108" style="stroke:#ddd;stroke-width:2" />
<line x1="981" y1="1" x2="981" y2="108" style="stroke:#ddd;stroke-width:2" />
<line x1="1090" y1="1" x2="1090" y2="108" style="stroke:#ddd;stroke-width:2" />
<line x1="1" y1="54" x2="1198" y2="54" style="stroke:#ddd;stroke-width:2;stroke-dasharray:3 3" />
<line x1="55" y1="1" x2="55" y2="108" style="stroke:#ddd;stroke-width:2;stroke-dasharray:3 3" />
<line x1="164" y1="1" x2="164" y2="108" style="stroke:#ddd;stroke-width:2;stroke-dasharray:3 3" />
<line x1="273" y1="1" x2="273" y2="108" style="stroke:#ddd;stroke-width:2;stroke-dasharray:3 3" />
<line x1="382" y1="1" x2="382" y2="108" style="stroke:#ddd;stroke-width:2;stroke-dasharray:3 3" />
<line x1="491" y1="1" x2="491" y2="108" style="stroke:#ddd;stroke-width:2;stroke-dasharray:3 3" />
<line x1="600" y1="1" x2="600" y2="108" style="stroke:#ddd;stroke-width:2;stroke-dasharray:3 3" />
<line x1="709" y1="1" x2="709" y2="108" style="stroke:#ddd;stroke-width:2;stroke-dasharray:3 3" />
<line x1="818" y1="1" x2="818" y2="108" style="stroke:#ddd;stroke-width:2;stroke-dasharray:3 3" />
<line x1="927" y1="1" x2="927" y2="108" style="stroke:#ddd;stroke-width:2;stroke-dasharray:3 3" />
<line x1="1036" y1="1" x2="1036" y2="108" style="stroke:#ddd;stroke-width:2;stroke-dasharray:3 3" />
<line x1="1145" y1="1" x2="1145" y2="108" style="stroke:#ddd;stroke-width:2;stroke-dasharray:3 3" />
<path d="M15.88,15.75c3.31,1.47,7.54,5.05,8.37,7.34" style="fill:none;stroke:black;stroke-width:3" />
<circle cx="15.88" cy="15.75" r="5" stroke-width="0" fill="#FF2A00" opacity="0.7" />
<path d="M124.88,15.75c3.31,1.47,7.54,5.05,8.37,7.34" style="fill:none;stroke:#999;stroke-width:3" />
<path d="M121.0,39.75c3.79,1.15,8.8,4.97,9.75,6.75" style="fill:none;stroke:black;stroke-width:3" />
<circle cx="121.0" cy="39.75" r="5" stroke-width="0" fill="#FF2A00" opacity="0.7" />
<path d="M233.88,15.75c3.31,1.47,7.54,5.05,8.37,7.34" style="fill:none;stroke:#999;stroke-width:3" />
<path d="M230.0,39.75c3.79,1.15,8.8,4.97,9.75,6.75" style="fill:none;stroke:#999;stroke-width:3" />
<path d="M230.0,90.46c2.38,0.17,3.31-0.89,4.25-2.5c2.75-4.7,5.5-10.45,8-16.45" style="fill:none;stroke:black;stroke-width:3" />
<circle cx="230.0" cy="90.46" r="5" stroke-width="0" fill="#FF2A00" opacity="0.7" />
<path d="M342.88,15.75c3.31,1.47,7.54,5.05,8.37,7.34" style="fill:none;stroke:#999;stroke-width:3" />
<path d="M339.0,39.75c3.79,1.15,8.8,4.97,9.75,6.75" style="fill:none;stroke:#999;stroke-width:3" />
<path d="M339.0,90.46c2.38,0.17,3.31-0.89,4.25-2.5c2.75-4.7,5.5-10.45,8-16.45" style="fill:none;stroke:#999;stroke-width:3" />
<path d="M364.88,19.75c-0.09,3.53-2.33,13.28-3.12,15.38" style="fill:none;stroke:black;stroke-width:3" />
<circle cx="364.88" cy="19.75" r="5" stroke-width="0" fill="#FF2A00" opacity="0.7" />
<path d="M451.88,15.75c3.31,1.47,7.54,5.05,8.37,7.34" style="fill:none;stroke:#999;stroke-width:3" />
<path d="M448.0,39.75c3.79,1.15,8.8,4.97,9.75,6.75" style="fill:none;stroke:#999;stroke-width:3" />
<path d="M448.0,90.46c2.38,0.17,3.31-0.89,4.25-2.5c2.75-4.7,5.5-10.45,8-16.45" style="fill:none;stroke:#999;stroke-width:3" />
<path d="M473.88,19.75c-0.09,3.53-2.33,13.28-3.12,15.38" style="fill:none;stroke:#999;stroke-width:3" />
<path d="M474.49,21.54c18.39-2.29,27.89-3.53,45.67-4.67c11.59-0.74,3.21,6.01-0.54,9.67" style="fill:none;stroke:black;stroke-width:3" />
<circle cx="474.49" cy="21.54" r="5" stroke-width="0" fill="#FF2A00" opacity="0.7" />
<path d="M560.88,15.75c3.31,1.47,7.54,5.05,8.37,7.34" style="fill:none;stroke:#999;stroke-width:3" />
<path d="M557.0,39.75c3.79,1.15,8.8,4.97,9.75,6.75" style="fill:none;stroke:#999;stroke-width:3" />
<path d="M557.0,90.46c2.38,0.17,3.31-0.89,4.25-2.5c2.75-4.7,5.5-10.45,8-16.45" style="fill:none;stroke:#999;stroke-width:3" />
<path d="M582.88,19.75c-0.09,3.53-2.33,13.28-3.12,15.38" style="fill:none;stroke:#999;stroke-width:3" />
<path d="M583.49,21.54c18.39-2.29,27.89-3.53,45.67-4.67c11.59-0.74,3.21,6.01-0.54,9.67" style="fill:none;stroke:#999;stroke-width:3" />
<path d="M595.51,26.5c0.07,0.55,0.07,1.41-0.13,2.21C593.57,35.77 591.24,41.16 583.5,48" style="fill:none;stroke:black;stroke-width:3" />
<circle cx="595.51" cy="26.5" r="5" stroke-width="0" fill="#FF2A00" opacity="0.7" />
<path d="M669.88,15.75c3.31,1.47,7.54,5.05,8.37,7.34" style="fill:none;stroke:#999;stroke-width:3" />
<path d="M666.0,39.75c3.79,1.15,8.8,4.97,9.75,6.75" style="fill:none;stroke:#999;stroke-width:3" />
<path d="M666.0,90.46c2.38,0.17,3.31-0.89,4.25-2.5c2.75-4.7,5.5-10.45,8-16.45" style="fill:none;stroke:#999;stroke-width:3" />
<path d="M691.88,19.75c-0.09,3.53-2.33,13.28-3.12,15.38" style="fill:none;stroke:#999;stroke-width:3" />
<path d="M692.49,21.54c18.39-2.29,27.89-3.53,45.67-4.67c11.59-0.74,3.21,6.01-0.54,9.67" style="fill:none;stroke:#999;stroke-width:3" />
<path d="M704.51,26.5c0.07,0.55,0.07,1.41-0.13,2.21C702.57,35.77 700.24,41.16 692.5,48" style="fill:none;stroke:#999;stroke-width:3" />
<path d="M720.75,23.25c0.94,0.94,1.49,2.29,1.49,3.92c0,2.18,0.01,6.28,0.01,7.83c0,4.88,1,5.75,7.75,5.75c4.75,0,8.25,0,10.26-1.37" style="fill:none;stroke:black;stroke-width:3" />
<circle cx="720.75" cy="23.25" r="5" stroke-width="0" fill="#FF2A00" opacity="0.7" />
<path d="M778.88,15.75c3.31,1.47,7.54,5.05,8.37,7.34" style="fill:none;stroke:#999;stroke-width:3" />
<path d="M775.0,39.75c3.79,1.15,8.8,4.97,9.75,6.75" style="fill:none;stroke:#999;stroke-width:3" />
<path d="M775.0,90.46c2.38,0.17,3.31-0.89,4.25-2.5c2.75-4.7,5.5-10.45,8-16.45" style="fill:none;stroke:#999;stroke-width:3" />
<path d="M800.88,19.75c-0.09,3.53-2.33,13.28-3.12,15.38" style="fill:none;stroke:#999;stroke-width:3" />
<path d="M801.49,21.54c18.39-2.29,27.89-3.53,45.67-4.67c11.59-0.74,3.21,6.01-0.54,9.67" style="fill:none;stroke:#999;stroke-width:3" />
<path d="M813.51,26.5c0.07,0.55,0.07,1.41-0.13,2.21C811.57,35.77 809.24,41.16 801.5,48" style="fill:none;stroke:#999;stroke-width:3" />
<path d="M829.75,23.25c0.94,0.94,1.49,2.29,1.49,3.92c0,2.18,0.01,6.28,0.01,7.83c0,4.88,1,5.75,7.75,5.75c4.75,0,8.25,0,10.26-1.37" style="fill:none;stroke:#999;stroke-width:3" />
<path d="M803.26,58.54c2.49,0.46,4.46,0.52,6.62,0.26c7.62-0.93,20.99-2.29,29.36-3.13c2.05-0.21,4.5-0.42,6.6-0.17" style="fill:none;stroke:black;stroke-width:3" />
<circle cx="803.26" cy="58.54" r="5" stroke-width="0" fill="#FF2A00" opacity="0.7" />
<path d="M887.88,15.75c3.31,1.47,7.54,5.05,8.37,7.34" style="fill:none;stroke:#999;stroke-width:3" />
<path d="M884.0,39.75c3.79,1.15,8.8,4.97,9.75,6.75" style="fill:none;stroke:#999;stroke-width:3" />
<path d="M884.0,90.46c2.38,0.17,3.31-0.89,4.25-2.5c2.75-4.7,5.5-10.45,8-16.45" style="fill:none;stroke:#999;stroke-width:3" />
<path d="M909.88,19.75c-0.09,3.53-2.33,13.28-3.12,15.38" style="fill:none;stroke:#999;stroke-width:3" />
<path d="M910.49,21.54c18.39-2.29,27.89-3.53,45.67-4.67c11.59-0.74,3.21,6.01-0.54,9.67" style="fill:none;stroke:#999;stroke-width:3" />
<path d="M922.51,26.5c0.07,0.55,0.07,1.41-0.13,2.21C920.57,35.77 918.24,41.16 910.5,48" style="fill:none;stroke:#999;stroke-width:3" />
<path d="M938.75,23.25c0.94,0.94,1.49,2.29,1.49,3.92c0,2.18,0.01,6.28,0.01,7.83c0,4.88,1,5.75,7.75,5.75c4.75,0,8.25,0,10.26-1.37" style="fill:none;stroke:#999;stroke-width:3" />
<path d="M912.26,58.54c2.49,0.46,4.46,0.52,6.62,0.26c7.62-0.93,20.99-2.29,29.36-3.13c2.05-0.21,4.5-0.42,6.6-0.17" style="fill:none;stroke:#999;stroke-width:3" />
<path d="M932.38,41.17c1.04,1.04,1.35,2.46,1.35,3.95c0,5.92,0.07,32.58,0.09,45.39c0,2.63,0.01,4.67,0.01,5.83" style="fill:none;stroke:black;stroke-width:3" />
<circle cx="932.38" cy="41.17" r="5" stroke-width="0" fill="#FF2A00" opacity="0.7" />
<path d="M996.88,15.75c3.31,1.47,7.54,5.05,8.37,7.34" style="fill:none;stroke:#999;stroke-width:3" />
<path d="M993.0,39.75c3.79,1.15,8.8,4.97,9.75,6.75" style="fill:none;stroke:#999;stroke-width:3" />
<path d="M993.0,90.46c2.38,0.17,3.31-0.89,4.25-2.5c2.75-4.7,5.5-10.45,8-16.45" style="fill:none;stroke:#999;stroke-width:3" />
<path d="M1018.88,19.75c-0.09,3.53-2.33,13.28-3.12,15.38" style="fill:none;stroke:#999;stroke-width:3" />
<path d="M1019.49,21.54c18.39-2.29,27.89-3.53,45.67-4.67c11.59-0.74,3.21,6.01-0.54,9.67" style="fill:none;stroke:#999;stroke-width:3" />
<path d="M1031.51,26.5c0.07,0.55,0.07,1.41-0.13,2.21C1029.5700000000002,35.77 1027.24,41.16 1019.5,48" style="fill:none;stroke:#999;stroke-width:3" />
<path d="M1047.75,23.25c0.94,0.94,1.49,2.29,1.49,3.92c0,2.18,0.01,6.28,0.01,7.83c0,4.88,1,5.75,7.75,5.75c4.75,0,8.25,0,10.26-1.37" style="fill:none;stroke:#999;stroke-width:3" />
<path d="M1021.26,58.54c2.49,0.46,4.46,0.52,6.62,0.26c7.62-0.93,20.99-2.29,29.36-3.13c2.05-0.21,4.5-0.42,6.6-0.17" style="fill:none;stroke:#999;stroke-width:3" />
<path d="M1041.38,41.17c1.04,1.04,1.35,2.46,1.35,3.95c0,5.92,0.07,32.58,0.09,45.39c0,2.63,0.01,4.67,0.01,5.83" style="fill:none;stroke:#999;stroke-width:3" />
<path d="M1040.38,58.34c0,1.41-0.26,2.24-0.7,3.01c-5.54,9.72-16.89,21.93-26.31,27.15" style="fill:none;stroke:black;stroke-width:3" />
<circle cx="1040.38" cy="58.34" r="5" stroke-width="0" fill="#FF2A00" opacity="0.7" />
<path d="M1105.88,15.75c3.31,1.47,7.54,5.05,8.37,7.34" style="fill:none;stroke:#999;stroke-width:3" />
<path d="M1102.0,39.75c3.79,1.15,8.8,4.97,9.75,6.75" style="fill:none;stroke:#999;stroke-width:3" />
<path d="M1102.0,90.46c2.38,0.17,3.31-0.89,4.25-2.5c2.75-4.7,5.5-10.45,8-16.45" style="fill:none;stroke:#999;stroke-width:3" />
<path d="M1127.88,19.75c-0.09,3.53-2.33,13.28-3.12,15.38" style="fill:none;stroke:#999;stroke-width:3" />
<path d="M1128.49,21.54c18.39-2.29,27.89-3.53,45.67-4.67c11.59-0.74,3.21,6.01-0.54,9.67" style="fill:none;stroke:#999;stroke-width:3" />
<path d="M1140.51,26.5c0.07,0.55,0.07,1.41-0.13,2.21C1138.5700000000002,35.77 1136.24,41.16 1128.5,48" style="fill:none;stroke:#999;stroke-width:3" />
<path d="M1156.75,23.25c0.94,0.94,1.49,2.29,1.49,3.92c0,2.18,0.01,6.28,0.01,7.83c0,4.88,1,5.75,7.75,5.75c4.75,0,8.25,0,10.26-1.37" style="fill:none;stroke:#999;stroke-width:3" />
<path d="M1130.26,58.54c2.49,0.46,4.46,0.52,6.62,0.26c7.62-0.93,20.99-2.29,29.36-3.13c2.05-0.21,4.5-0.42,6.6-0.17" style="fill:none;stroke:#999;stroke-width:3" />
<path d="M1150.38,41.17c1.04,1.04,1.35,2.46,1.35,3.95c0,5.92,0.07,32.58,0.09,45.39c0,2.63,0.01,4.67,0.01,5.83" style="fill:none;stroke:#999;stroke-width:3" />
<path d="M1149.38,58.34c0,1.41-0.26,2.24-0.7,3.01c-5.54,9.72-16.89,21.93-26.31,27.15" style="fill:none;stroke:#999;stroke-width:3" />
<path d="M1152.47,59.19C1157.0,63.5 1170.28,74.5 1177.44,80.21c2.3,1.83,4.31,3.29,7.95,4.4" style="fill:none;stroke:black;stroke-width:3" />
<circle cx="1152.47" cy="59.19" r="5" stroke-width="0" fill="#FF2A00" opacity="0.7" />
</svg>