<!-- 06e21 -->
<svg width="1308px" height="109px" viewBox="0 0 1308px 109px" xmlns="http://www.w3.org/2000/svg" xmlns:xlink="http://www.w3.org/1999/xlink" xml:space="preserve" version="1.1"  baseProfile="full">
<line x1="1" y1="1" x2="1307" y2="1" style="stroke:#ddd;stroke-width:2" />
<line x1="1" y1="1" x2="1" y2="108" style="stroke:#ddd;stroke-width:2" />
<line x1="1" y1="108" x2="1307" y2="108" style="stroke:#ddd;stroke-width:2" />
<line x1="1307" y1="1" x2="1307" y2="108" style="stroke:#ddd;stroke-width:2" />
<line x1="109" y1="1" x2="109" y2="108" style="stroke:#ddd;stroke-width:2" />
<line x1="218" y1="1" x2="218" y2="108" style="stroke:#ddd;stroke-width:2" />
<line x1="327" y1="1" x2="327" y2="108" style="stroke:#ddd;stroke-width:2" />
<line x1="436" y1="1" x2="436" y2="108" style="stroke:#ddd;stroke-width:2" />
<line x1="545" y1="1" x2="545" y2="108" style="stroke:#ddd;stroke-width:2" />
<line x1="654" y1="1" x2="654" y2="108" style="stroke:#ddd;stroke-width:2" />
<line x1="763" y1="1" x2="763" y2="108" style="stroke:#ddd;stroke-width:2" />
<line x1="872" y1="1" x2="872" y2="108" style="stroke:#ddd;stroke-width:2" />
<line x1="981" y1="1" x2="981" y2="108" style="stroke:#ddd;stroke-width:2" />
<line x1="1090" y1="1" x2="1090" y2="108" style="stroke:#ddd;stroke-width:2" />
<line x1="1199" y1="1" x2="1199" y2="108" style="stroke:#ddd;stroke-width:2" />
<line x1="1" y1="54" x2="1307" y2="54" style="stroke:#ddd;stroke-width:2;stroke-dasharray:3 3" />
<line x1="55" y1="1" x2="55" y2="108" style="stroke:#ddd;stroke-width:2;stroke-dasharray:3 3" />
<line x1="164" y1="1" x2="164" y2="108" style="stroke:#ddd;stroke-width:2;stroke-dasharray:3 3" />
<line x1="273" y1="1" x2="273" y2="108" style="stroke:#ddd;stroke-width:2;stroke-dasharray:3 3" />
<line x1="382" y1="1" x2="382" y2="108" style="stroke:#ddd;stroke-width:2;stroke-dasharray:3 3" />
<line x1="491" y1="1" x2="491" y2="108" style="stroke:#ddd;stroke-width:2;stroke-dasharray:3 3" />
<line x1="600" y1="1" x2="600" y2="108" style="stroke:#ddd;stroke-width:2;stroke-dasharray:3 3" />
<line x1="709" y1="1" x2="709" y2="108" style="stroke:#ddd;stroke-width:2;stroke-dasharray:3 3" />
<line x1="818" y1="1" x2="818" y2="108" style="stroke:#ddd;stroke-width:2;stroke-dasharray:3 3" />
<line x1="927" y1="1" x2="927" y2="108" style="stroke:#ddd;stroke-width:2;stroke-dasharray:3 3" />
<line x1="1036" y1="1" x2="1036" y2="108" style="stroke:#ddd;stroke-width:2;stroke-dasharray:3 3" />
<line x1="1145" y1="1" x2="1145" y2="108" style="stroke:#ddd;stroke-width:2;stroke-dasharray:3 3" />
<line x1="1254" y1="1" x2="1254" y2="108" style="stroke:#ddd;stroke-width:2;stroke-dasharray:3 3" />
<path d="M18.88,16.5c3.92,1.52,10.13,6.23,11.12,8.59" style="fill:none;stroke:black;stroke-width:3" />
<circle cx="18.88" cy="16.5" r="5" stroke-width="0" fill="#FF2A00" opacity="0.7" />
<path d="M127.88,16.5c3.92,1.52,10.13,6.23,11.12,8.59" style="fill:none;stroke:#999;stroke-width:3" />
<path d="M121.62,40.62c4.1,1.43,10.6,5.9,11.62,8.12" style="fill:none;stroke:black;stroke-width:3" />
<circle cx="121.62" cy="40.62" r="5" stroke-width="0" fill="#FF2A00" opacity="0.7" />
<path d="M236.88,16.5c3.92,1.52,10.13,6.23,11.12,8.59" style="fill:none;stroke:#999;stroke-width:3" />
<path d="M230.62,40.62c4.1,1.43,10.6,5.9,11.62,8.12" style="fill:none;stroke:#999;stroke-width:3" />
<path d="M230.75,88.73c1.38,0.52,2.61,0.13,3.61-1.5c3.89-6.36,6.78-11.9,9.39-17.24" style="fill:none;stroke:black;stroke-width:3" />
<circle cx="230.75" cy="88.73" r="5" stroke-width="0" fill="#FF2A00" opacity="0.7" />
<path d="M345.88,16.5c3.92,1.52,10.13,6.23,11.12,8.59" style="fill:none;stroke:#999;stroke-width:3" />
<path d="M339.62,40.62c4.1,1.43,10.6,5.9,11.62,8.12" style="fill:none;stroke:#999;stroke-width:3" />
<path d="M339.75,88.73c1.38,0.52,2.61,0.13,3.61-1.5c3.89-6.36,6.78-11.9,9.39-17.24" style="fill:none;stroke:#999;stroke-width:3" />
<path d="M390.65999999999997,12.38c1.04,1.04,1.32,2.24,1.32,3.8c0,0.76-0.06,3.07-0.06,7.97" style="fill:none;stroke:black;stroke-width:3" />
<circle cx="390.65999999999997" cy="12.38" r="5" stroke-width="0" fill="#FF2A00" opacity="0.7" />
<path d="M454.88,16.5c3.92,1.52,10.13,6.23,11.12,8.59" style="fill:none;stroke:#999;stroke-width:3" />
<path d="M448.62,40.62c4.1,1.43,10.6,5.9,11.62,8.12" style="fill:none;stroke:#999;stroke-width:3" />
<path d="M448.75,88.73c1.38,0.52,2.61,0.13,3.61-1.5c3.89-6.36,6.78-11.9,9.39-17.24" style="fill:none;stroke:#999;stroke-width:3" />
<path d="M499.65999999999997,12.38c1.04,1.04,1.32,2.24,1.32,3.8c0,0.76-0.06,3.07-0.06,7.97" style="fill:none;stroke:#999;stroke-width:3" />
<path d="M475.46,27.06c2.29,0.96,5.29,0.58,7.68,0.31c12.53-1.42,25.64-3.09,38.49-3.99c2.16-0.15,4.09-0.14,6.19,0.39" style="fill:none;stroke:black;stroke-width:3" />
<circle cx="475.46" cy="27.06" r="5" stroke-width="0" fill="#FF2A00" opacity="0.7" />
<path d="M563.88,16.5c3.92,1.52,10.13,6.23,11.12,8.59" style="fill:none;stroke:#999;stroke-width:3" />
<path d="M557.62,40.62c4.1,1.43,10.6,5.9,11.62,8.12" style="fill:none;stroke:#999;stroke-width:3" />
<path d="M557.75,88.73c1.38,0.52,2.61,0.13,3.61-1.5c3.89-6.36,6.78-11.9,9.39-17.24" style="fill:none;stroke:#999;stroke-width:3" />
<path d="M608.66,12.38c1.04,1.04,1.32,2.24,1.32,3.8c0,0.76-0.06,3.07-0.06,7.97" style="fill:none;stroke:#999;stroke-width:3" />
<path d="M584.46,27.06c2.29,0.96,5.29,0.58,7.68,0.31c12.53-1.42,25.64-3.09,38.49-3.99c2.16-0.15,4.09-0.14,6.19,0.39" style="fill:none;stroke:#999;stroke-width:3" />
<path d="M587.22,28.25c1.08,1.08,1.27,2.48,1.18,4.7C587.65,50.06 585.5,78 570.71,94.53" style="fill:none;stroke:black;stroke-width:3" />
<circle cx="587.22" cy="28.25" r="5" stroke-width="0" fill="#FF2A00" opacity="0.7" />
<path d="M672.88,16.5c3.92,1.52,10.13,6.23,11.12,8.59" style="fill:none;stroke:#999;stroke-width:3" />
<path d="M666.62,40.62c4.1,1.43,10.6,5.9,11.62,8.12" style="fill:none;stroke:#999;stroke-width:3" />
<path d="M666.75,88.73c1.38,0.52,2.61,0.13,3.61-1.5c3.89-6.36,6.78-11.9,9.39-17.24" style="fill:none;stroke:#999;stroke-width:3" />
<path d="M717.66,12.38c1.04,1.04,1.32,2.24,1.32,3.8c0,0.76-0.06,3.07-0.06,7.97" style="fill:none;stroke:#999;stroke-width:3" />
<path d="M693.46,27.06c2.29,0.96,5.29,0.58,7.68,0.31c12.53-1.42,25.64-3.09,38.49-3.99c2.16-0.15,4.09-0.14,6.19,0.39" style="fill:none;stroke:#999;stroke-width:3" />
<path d="M696.22,28.25c1.08,1.08,1.27,2.48,1.18,4.7C696.65,50.06 694.5,78 679.71,94.53" style="fill:none;stroke:#999;stroke-width:3" />
<path d="M699.96,41.11c2.41,0.64,4.69,0.2,6.92-0.02c8.41-0.83,28.08-3.1,33.97-3.31c1.99-0.07,3.19,0.2,4.19,0.42" style="fill:none;stroke:black;stroke-width:3" />
<circle cx="699.96" cy="41.11" r="5" stroke-width="0" fill="#FF2A00" opacity="0.7" />
<path d="M781.88,16.5c3.92,1.52,10.13,6.23,11.12,8.59" style="fill:none;stroke:#999;stroke-width:3" />
<path d="M775.62,40.62c4.1,1.43,10.6,5.9,11.62,8.12" style="fill:none;stroke:#999;stroke-width:3" />
<path d="M775.75,88.73c1.38,0.52,2.61,0.13,3.61-1.5c3.89-6.36,6.78-11.9,9.39-17.24" style="fill:none;stroke:#999;stroke-width:3" />
<path d="M826.66,12.38c1.04,1.04,1.32,2.24,1.32,3.8c0,0.76-0.06,3.07-0.06,7.97" style="fill:none;stroke:#999;stroke-width:3" />
<path d="M802.46,27.06c2.29,0.96,5.29,0.58,7.68,0.31c12.53-1.42,25.64-3.09,38.49-3.99c2.16-0.15,4.09-0.14,6.19,0.39" style="fill:none;stroke:#999;stroke-width:3" />
<path d="M805.22,28.25c1.08,1.08,1.27,2.48,1.18,4.7C805.65,50.06 803.5,78 788.71,94.53" style="fill:none;stroke:#999;stroke-width:3" />
<path d="M808.96,41.11c2.41,0.64,4.69,0.2,6.92-0.02c8.41-0.83,28.08-3.1,33.97-3.31c1.99-0.07,3.19,0.2,4.19,0.42" style="fill:none;stroke:#999;stroke-width:3" />
<path d="M819.39,32.82c0.77,0.77,1.27,1.8,1.27,2.81c0,0.62,0.56,7.67,1.02,14.12c0.14,1.95,0.29,3.78,0.43,5.24" style="fill:none;stroke:black;stroke-width:3" />
<circle cx="819.39" cy="32.82" r="5" stroke-width="0" fill="#FF2A00" opacity="0.7" />
<path d="M890.88,16.5c3.92,1.52,10.13,6.23,11.12,8.59" style="fill:none;stroke:#999;stroke-width:3" />
<path d="M884.62,40.62c4.1,1.43,10.6,5.9,11.62,8.12" style="fill:none;stroke:#999;stroke-width:3" />
<path d="M884.75,88.73c1.38,0.52,2.61,0.13,3.61-1.5c3.89-6.36,6.78-11.9,9.39-17.24" style="fill:none;stroke:#999;stroke-width:3" />
<path d="M935.66,12.38c1.04,1.04,1.32,2.24,1.32,3.8c0,0.76-0.06,3.07-0.06,7.97" style="fill:none;stroke:#999;stroke-width:3" />
<path d="M911.46,27.06c2.29,0.96,5.29,0.58,7.68,0.31c12.53-1.42,25.64-3.09,38.49-3.99c2.16-0.15,4.09-0.14,6.19,0.39" style="fill:none;stroke:#999;stroke-width:3" />
<path d="M914.22,28.25c1.08,1.08,1.27,2.48,1.18,4.7C914.65,50.06 912.5,78 897.71,94.53" style="fill:none;stroke:#999;stroke-width:3" />
<path d="M917.96,41.11c2.41,0.64,4.69,0.2,6.92-0.02c8.41-0.83,28.08-3.1,33.97-3.31c1.99-0.07,3.19,0.2,4.19,0.42" style="fill:none;stroke:#999;stroke-width:3" />
<path d="M928.39,32.82c0.77,0.77,1.27,1.8,1.27,2.81c0,0.62,0.56,7.67,1.02,14.12c0.14,1.95,0.29,3.78,0.43,5.24" style="fill:none;stroke:#999;stroke-width:3" />
<path d="M948.03,29.26c0.86,0.86,1.12,2.25,1.02,3.06c-0.42,3.44-0.92,10.06-2,17.53" style="fill:none;stroke:black;stroke-width:3" />
<circle cx="948.03" cy="29.26" r="5" stroke-width="0" fill="#FF2A00" opacity="0.7" />
<path d="M999.88,16.5c3.92,1.52,10.13,6.23,11.12,8.59" style="fill:none;stroke:#999;stroke-width:3" />
<path d="M993.62,40.62c4.1,1.43,10.6,5.9,11.62,8.12" style="fill:none;stroke:#999;stroke-width:3" />
<path d="M993.75,88.73c1.38,0.52,2.61,0.13,3.61-1.5c3.89-6.36,6.78-11.9,9.39-17.24" style="fill:none;stroke:#999;stroke-width:3" />
<path d="M1044.6599999999999,12.38c1.04,1.04,1.32,2.24,1.32,3.8c0,0.76-0.06,3.07-0.06,7.97" style="fill:none;stroke:#999;stroke-width:3" />
<path d="M1020.46,27.06c2.29,0.96,5.29,0.58,7.68,0.31c12.53-1.42,25.64-3.09,38.49-3.99c2.16-0.15,4.09-0.14,6.19,0.39" style="fill:none;stroke:#999;stroke-width:3" />
<path d="M1023.22,28.25c1.08,1.08,1.27,2.48,1.18,4.7C1023.65,50.06 1021.5,78 1006.71,94.53" style="fill:none;stroke:#999;stroke-width:3" />
<path d="M1026.96,41.11c2.41,0.64,4.69,0.2,6.92-0.02c8.41-0.83,28.08-3.1,33.97-3.31c1.99-0.07,3.19,0.2,4.19,0.42" style="fill:none;stroke:#999;stroke-width:3" />
<path d="M1037.3899999999999,32.82c0.77,0.77,1.27,1.8,1.27,2.81c0,0.62,0.56,7.67,1.02,14.12c0.14,1.95,0.29,3.78,0.43,5.24" style="fill:none;stroke:#999;stroke-width:3" />
<path d="M1057.03,29.26c0.86,0.86,1.12,2.25,1.02,3.06c-0.42,3.44-0.92,10.06-2,17.53" style="fill:none;stroke:#999;stroke-width:3" />
<path d="M1041.12,52.63c4.71-0.8,8.25-1.18,12.66-1.55c1.38-0.11,2.77-0.23,4.18-0.35" style="fill:none;stroke:black;stroke-width:3" />
<circle cx="1041.12" cy="52.63" r="5" stroke-width="0" fill="#FF2A00" opacity="0.7" />
<path d="M1108.88,16.5c3.92,1.52,10.13,6.23,11.12,8.59" style="fill:none;stroke:#999;stroke-width:3" />
<path d="M1102.62,40.62c4.1,1.43,10.6,5.9,11.62,8.12" style="fill:none;stroke:#999;stroke-width:3" />
<path d="M1102.75,88.73c1.38,0.52,2.61,0.13,3.61-1.5c3.89-6.36,6.78-11.9,9.39-17.24" style="fill:none;stroke:#999;stroke-width:3" />
<path d="M1153.6599999999999,12.38c1.04,1.04,1.32,2.24,1.32,3.8c0,0.76-0.06,3.07-0.06,7.97" style="fill:none;stroke:#999;stroke-width:3" />
<path d="M1129.46,27.06c2.29,0.96,5.29,0.58,7.68,0.31c12.53-1.42,25.64-3.09,38.49-3.99c2.16-0.15,4.09-0.14,6.19,0.39" style="fill:none;stroke:#999;stroke-width:3" />
<path d="M1132.22,28.25c1.08,1.08,1.27,2.48,1.18,4.7C1132.65,50.06 1130.5,78 1115.71,94.53" style="fill:none;stroke:#999;stroke-width:3" />
<path d="M1135.96,41.11c2.41,0.64,4.69,0.2,6.92-0.02c8.41-0.83,28.08-3.1,33.97-3.31c1.99-0.07,3.19,0.2,4.19,0.42" style="fill:none;stroke:#999;stroke-width:3" />
<path d="M1146.3899999999999,32.82c0.77,0.77,1.27,1.8,1.27,2.81c0,0.62,0.56,7.67,1.02,14.12c0.14,1.95,0.29,3.78,0.43,5.24" style="fill:none;stroke:#999;stroke-width:3" />
<path d="M1166.03,29.26c0.86,0.86,1.12,2.25,1.02,3.06c-0.42,3.44-0.92,10.06-2,17.53" style="fill:none;stroke:#999;stroke-width:3" />
<path d="M1150.12,52.63c4.71-0.8,8.25-1.18,12.66-1.55c1.38-0.11,2.77-0.23,4.18-0.35" style="fill:none;stroke:#999;stroke-width:3" />
<path d="M1141.32,63.48c1.43,0.25,1.6,0.62,4.45,0.25c2.85-0.37,21.23-3.53,23.19-3.9c1.96-0.37,3.43,1.39,2.67,2.72c-9.18,16.11-24.88,27.7-41.54,33.95" style="fill:none;stroke:black;stroke-width:3" />
<circle cx="1141.32" cy="63.48" r="5" stroke-width="0" fill="#FF2A00" opacity="0.7" />
<path d="M1217.88,16.5c3.92,1.52,10.13,6.23,11.12,8.59" style="fill:none;stroke:#999;stroke-width:3" />
<path d="M1211.62,40.62c4.1,1.43,10.6,5.9,11.62,8.12" style="fill:none;stroke:#999;stroke-width:3" />
<path d="M1211.75,88.73c1.38,0.52,2.61,0.13,3.61-1.5c3.89-6.36,6.78-11.9,9.39-17.24" style="fill:none;stroke:#999;stroke-width:3" />
<path d="M1262.6599999999999,12.38c1.04,1.04,1.32,2.24,1.32,3.8c0,0.76-0.06,3.07-0.06,7.97" style="fill:none;stroke:#999;stroke-width:3" />
<path d="M1238.46,27.06c2.29,0.96,5.29,0.58,7.68,0.31c12.53-1.42,25.64-3.09,38.49-3.99c2.16-0.15,4.09-0.14,6.19,0.39" style="fill:none;stroke:#999;stroke-width:3" />
<path d="M1241.22,28.25c1.08,1.08,1.27,2.48,1.18,4.7C1241.65,50.06 1239.5,78 1224.71,94.53" style="fill:none;stroke:#999;stroke-width:3" />
<path d="M1244.96,41.11c2.41,0.64,4.69,0.2,6.92-0.02c8.41-0.83,28.08-3.1,33.97-3.31c1.99-0.07,3.19,0.2,4.19,0.42" style="fill:none;stroke:#999;stroke-width:3" />
<path d="M1255.3899999999999,32.82c0.77,0.77,1.27,1.8,1.27,2.81c0,0.62,0.56,7.67,1.02,14.12c0.14,1.95,0.29,3.78,0.43,5.24" style="fill:none;stroke:#999;stroke-width:3" />
<path d="M1275.03,29.26c0.86,0.86,1.12,2.25,1.02,3.06c-0.42,3.44-0.92,10.06-2,17.53" style="fill:none;stroke:#999;stroke-width:3" />
<path d="M1259.12,52.63c4.71-0.8,8.25-1.18,12.66-1.55c1.38-0.11,2.77-0.23,4.18-0.35" style="fill:none;stroke:#999;stroke-width:3" />
<path d="M1250.32,63.48c1.43,0.25,1.6,0.62,4.45,0.25c2.85-0.37,21.23-3.53,23.19-3.9c1.96-0.37,3.43,1.39,2.67,2.72c-9.18,16.11-24.88,27.7-41.54,33.95" style="fill:none;stroke:#999;stroke-width:3" />
<path d="M1251.53,69.38c5.52,0.11,19.85,13.5,33.04,22.1c2.22,1.45,4.81,3.03,7.59,4.07" style="fill:none;stroke:black;stroke-width:3" />
<circle cx="1251.53" cy="69.38" r="5" stroke-width="0" fill="#FF2A00" opacity="0.7" />
</svg>