<!-- 06e80 -->
<svg width="1308px" height="109px" viewBox="0 0 1308px 109px" xmlns="http://www.w3.org/2000/svg" xmlns:xlink="http://www.w3.org/1999/xlink" xml:space="preserve" version="1.1"  baseProfile="full">
<line x1="1" y1="1" x2="1307" y2="1" style="stroke:#ddd;stroke-width:2" />
<line x1="1" y1="1" x2="1" y2="108" style="stroke:#ddd;stroke-width:2" />
<line x1="1" y1="108" x2="1307" y2="108" style="stroke:#ddd;stroke-width:2" />
<line x1="1307" y1="1" x2="1307" y2="108" style="stroke:#ddd;stroke-width:2" />
<line x1="109" y1="1" x2="109" y2="108" style="stroke:#ddd;stroke-width:2" />
<line x1="218" y1="1" x2="218" y2="108" style="stroke:#ddd;stroke-width:2" />
<line x1="327" y1="1" x2="327" y2="108" style="stroke:#ddd;stroke-width:2" />
<line x1="436" y1="1" x2="436" y2="108" style="stroke:#ddd;stroke-width:2" />
<line x1="545" y1="1" x2="545" y2="108" style="stroke:#ddd;stroke-width:2" />
<line x1="654" y1="1" x2="654" y2="108" style="stroke:#ddd;stroke-width:2" />
<line x1="763" y1="1" x2="763" y2="108" style="stroke:#ddd;stroke-width:2" />
<line x1="872" y1="1" x2="872" y2="108" style="stroke:#ddd;stroke-width:2" />
<line x1="981" y1="1" x2="981" y2="108" style="stroke:#ddd;stroke-width:2" />
<line x1="1090" y1="1" x2="1090" y2="108" style="stroke:#ddd;stroke-width:2" />
<line x1="1199" y1="1" x2="1199" y2="108" style="stroke:#ddd;stroke-width:2" />
<line x1="1" y1="54" x2="1307" y2="54" style="stroke:#ddd;stroke-width:2;stroke-dasharray:3 3" />
<line x1="55" y1="1" x2="55" y2="108" style="stroke:#ddd;stroke-width:2;stroke-dasharray:3 3" />
<line x1="164" y1="1" x2="164" y2="108" style="stroke:#ddd;stroke-width:2;stroke-dasharray:3 3" />
<line x1="273" y1="1" x2="273" y2="108" style="stroke:#ddd;stroke-width:2;stroke-dasharray:3 3" />
<line x1="382" y1="1" x2="382" y2="108" style="stroke:#ddd;stroke-width:2;stroke-dasharray:3 3" />
<line x1="491" y1="1" x2="491" y2="108" style="stroke:#ddd;stroke-width:2;stroke-dasharray:3 3" />
<line x1="600" y1="1" x2="600" y2="108" style="stroke:#ddd;stroke-width:2;stroke-dasharray:3 3" />
<line x1="709" y1="1" x2="709" y2="108" style="stroke:#ddd;stroke-width:2;stroke-dasharray:3 3" />
<line x1="818" y1="1" x2="818" y2="108" style="stroke:#ddd;stroke-width:2;stroke-dasharray:3 3" />
<line x1="927" y1="1" x2="927" y2="108" style="stroke:#ddd;stroke-width:2;stroke-dasharray:3 3" />
<line x1="1036" y1="1" x2="1036" y2="108" style="stroke:#ddd;stroke-width:2;stroke-dasharray:3 3" />
<line x1="1145" y1="1" x2="1145" y2="108" style="stroke:#ddd;stroke-width:2;stroke-dasharray:3 3" />
<line x1="1254" y1="1" x2="1254" y2="108" style="stroke:#ddd;stroke-width:2;stroke-dasharray:3 3" />
<path d="M 19.88,17 c 3.31,1.47 8.12,5.38 10.37,8.34" style="fill:none;stroke:black;stroke-width:3" />
<circle cx="19.88" cy="17.0" r="5" stroke-width="0" fill="#FF2A00" opacity="0.7" />
<path d="M 128.88,17 c 3.31,1.47 8.12,5.38 10.37,8.34" style="fill:none;stroke:#999;stroke-width:3" />
<path d="M 124.5,38.75 c 3.71,1.41 8.5,5.12 10.5,8" style="fill:none;stroke:black;stroke-width:3" />
<circle cx="124.5" cy="38.75" r="5" stroke-width="0" fill="#FF2A00" opacity="0.7" />
<path d="M 237.88,17 c 3.31,1.47 8.12,5.38 10.37,8.34" style="fill:none;stroke:#999;stroke-width:3" />
<path d="M 233.5,38.75 c 3.71,1.41 8.5,5.12 10.5,8" style="fill:none;stroke:#999;stroke-width:3" />
<path d="M 230.62,90.48 c 1.3,0.38 2.57,0 3.35,-1.29 3.32,-5.52 6.64,-12.27 9.65,-19.31" style="fill:none;stroke:black;stroke-width:3" />
<circle cx="230.62" cy="90.48" r="5" stroke-width="0" fill="#FF2A00" opacity="0.7" />
<path d="M 346.88,17 c 3.31,1.47 8.12,5.38 10.37,8.34" style="fill:none;stroke:#999;stroke-width:3" />
<path d="M 342.5,38.75 c 3.71,1.41 8.5,5.12 10.5,8" style="fill:none;stroke:#999;stroke-width:3" />
<path d="M 339.62,90.48 c 1.3,0.38 2.57,0 3.35,-1.29 3.32,-5.52 6.64,-12.27 9.65,-19.31" style="fill:none;stroke:#999;stroke-width:3" />
<path d="M 364.93726,29.02 c 1.76,0.53 5.09,0.47 6.84,0.28 14.78,-1.67 28.692576,-3.42 41.792576,-4.03 2.93,-0.14 4.69,0.25 6.15,0.51" style="fill:none;stroke:black;stroke-width:3" />
<circle cx="364.93726" cy="29.02" r="5" stroke-width="0" fill="#FF2A00" opacity="0.7" />
<path d="M 455.88,17 c 3.31,1.47 8.12,5.38 10.37,8.34" style="fill:none;stroke:#999;stroke-width:3" />
<path d="M 451.5,38.75 c 3.71,1.41 8.5,5.12 10.5,8" style="fill:none;stroke:#999;stroke-width:3" />
<path d="M 448.62,90.48 c 1.3,0.38 2.57,0 3.35,-1.29 3.32,-5.52 6.64,-12.27 9.65,-19.31" style="fill:none;stroke:#999;stroke-width:3" />
<path d="M 473.93726,29.02 c 1.76,0.53 5.09,0.47 6.84,0.28 14.78,-1.67 28.692576,-3.42 41.792576,-4.03 2.93,-0.14 4.69,0.25 6.15,0.51" style="fill:none;stroke:#999;stroke-width:3" />
<path d="M 487.67,15.5 c 1.04,1.04 1.92,2.36 1.99,3.25 0.84,10.25 1.59,15.75 2,22.25" style="fill:none;stroke:black;stroke-width:3" />
<circle cx="487.67" cy="15.5" r="5" stroke-width="0" fill="#FF2A00" opacity="0.7" />
<path d="M 564.88,17 c 3.31,1.47 8.12,5.38 10.37,8.34" style="fill:none;stroke:#999;stroke-width:3" />
<path d="M 560.5,38.75 c 3.71,1.41 8.5,5.12 10.5,8" style="fill:none;stroke:#999;stroke-width:3" />
<path d="M 557.62,90.48 c 1.3,0.38 2.57,0 3.35,-1.29 3.32,-5.52 6.64,-12.27 9.65,-19.31" style="fill:none;stroke:#999;stroke-width:3" />
<path d="M 582.9372599999999,29.02 c 1.76,0.53 5.09,0.47 6.84,0.28 14.78,-1.67 28.692576,-3.42 41.792576,-4.03 2.93,-0.14 4.69,0.25 6.15,0.51" style="fill:none;stroke:#999;stroke-width:3" />
<path d="M 596.6700000000001,15.5 c 1.04,1.04 1.92,2.36 1.99,3.25 0.84,10.25 1.59,15.75 2,22.25" style="fill:none;stroke:#999;stroke-width:3" />
<path d="M 621.25,13.55 c 0.78,0.79 1.03,1.94 0.85,3.42 -1.06,8.72 -1.67,14.31 -3,22.55" style="fill:none;stroke:black;stroke-width:3" />
<circle cx="621.25" cy="13.55" r="5" stroke-width="0" fill="#FF2A00" opacity="0.7" />
<path d="M 673.88,17 c 3.31,1.47 8.12,5.38 10.37,8.34" style="fill:none;stroke:#999;stroke-width:3" />
<path d="M 669.5,38.75 c 3.71,1.41 8.5,5.12 10.5,8" style="fill:none;stroke:#999;stroke-width:3" />
<path d="M 666.62,90.48 c 1.3,0.38 2.57,0 3.35,-1.29 3.32,-5.52 6.64,-12.27 9.65,-19.31" style="fill:none;stroke:#999;stroke-width:3" />
<path d="M 691.9372599999999,29.02 c 1.76,0.53 5.09,0.47 6.84,0.28 14.78,-1.67 28.692576,-3.42 41.792576,-4.03 2.93,-0.14 4.69,0.25 6.15,0.51" style="fill:none;stroke:#999;stroke-width:3" />
<path d="M 705.6700000000001,15.5 c 1.04,1.04 1.92,2.36 1.99,3.25 0.84,10.25 1.59,15.75 2,22.25" style="fill:none;stroke:#999;stroke-width:3" />
<path d="M 730.25,13.55 c 0.78,0.79 1.03,1.94 0.85,3.42 -1.06,8.72 -1.67,14.31 -3,22.55" style="fill:none;stroke:#999;stroke-width:3" />
<path d="M 690.151595,43.43 c 1.55,0.42 4.402969,0.609834 5.94,0.42 9.752306,-1.204476 35.042963,-2.762866 47.628262,-3.84 2.573863,-0.220289 4.13,0.2 5.42,0.42" style="fill:none;stroke:black;stroke-width:3" />
<circle cx="690.151595" cy="43.43" r="5" stroke-width="0" fill="#FF2A00" opacity="0.7" />
<path d="M 782.88,17 c 3.31,1.47 8.12,5.38 10.37,8.34" style="fill:none;stroke:#999;stroke-width:3" />
<path d="M 778.5,38.75 c 3.71,1.41 8.5,5.12 10.5,8" style="fill:none;stroke:#999;stroke-width:3" />
<path d="M 775.62,90.48 c 1.3,0.38 2.57,0 3.35,-1.29 3.32,-5.52 6.64,-12.27 9.65,-19.31" style="fill:none;stroke:#999;stroke-width:3" />
<path d="M 800.9372599999999,29.02 c 1.76,0.53 5.09,0.47 6.84,0.28 14.78,-1.67 28.692576,-3.42 41.792576,-4.03 2.93,-0.14 4.69,0.25 6.15,0.51" style="fill:none;stroke:#999;stroke-width:3" />
<path d="M 814.6700000000001,15.5 c 1.04,1.04 1.92,2.36 1.99,3.25 0.84,10.25 1.59,15.75 2,22.25" style="fill:none;stroke:#999;stroke-width:3" />
<path d="M 839.25,13.55 c 0.78,0.79 1.03,1.94 0.85,3.42 -1.06,8.72 -1.67,14.31 -3,22.55" style="fill:none;stroke:#999;stroke-width:3" />
<path d="M 799.151595,43.43 c 1.55,0.42 4.402969,0.609834 5.94,0.42 9.752306,-1.204476 35.042963,-2.762866 47.628262,-3.84 2.573863,-0.220289 4.13,0.2 5.42,0.42" style="fill:none;stroke:#999;stroke-width:3" />
<path d="M 802.82,55.91 c 0.88,0.88 1.24,2.21 1.28,3.43 0.27,7.71 0.11,20.47 -0.02,28.29 -0.06,3.5 -0.11,6.01 -0.11,6.62" style="fill:none;stroke:black;stroke-width:3" />
<circle cx="802.82" cy="55.91" r="5" stroke-width="0" fill="#FF2A00" opacity="0.7" />
<path d="M 891.88,17 c 3.31,1.47 8.12,5.38 10.37,8.34" style="fill:none;stroke:#999;stroke-width:3" />
<path d="M 887.5,38.75 c 3.71,1.41 8.5,5.12 10.5,8" style="fill:none;stroke:#999;stroke-width:3" />
<path d="M 884.62,90.48 c 1.3,0.38 2.57,0 3.35,-1.29 3.32,-5.52 6.64,-12.27 9.65,-19.31" style="fill:none;stroke:#999;stroke-width:3" />
<path d="M 909.9372599999999,29.02 c 1.76,0.53 5.09,0.47 6.84,0.28 14.78,-1.67 28.692576,-3.42 41.792576,-4.03 2.93,-0.14 4.69,0.25 6.15,0.51" style="fill:none;stroke:#999;stroke-width:3" />
<path d="M 923.6700000000001,15.5 c 1.04,1.04 1.92,2.36 1.99,3.25 0.84,10.25 1.59,15.75 2,22.25" style="fill:none;stroke:#999;stroke-width:3" />
<path d="M 948.25,13.55 c 0.78,0.79 1.03,1.94 0.85,3.42 -1.06,8.72 -1.67,14.31 -3,22.55" style="fill:none;stroke:#999;stroke-width:3" />
<path d="M 908.151595,43.43 c 1.55,0.42 4.402969,0.609834 5.94,0.42 9.752306,-1.204476 35.042963,-2.762866 47.628262,-3.84 2.573863,-0.220289 4.13,0.2 5.42,0.42" style="fill:none;stroke:#999;stroke-width:3" />
<path d="M 911.82,55.91 c 0.88,0.88 1.24,2.21 1.28,3.43 0.27,7.71 0.11,20.47 -0.02,28.29 -0.06,3.5 -0.11,6.01 -0.11,6.62" style="fill:none;stroke:#999;stroke-width:3" />
<path d="M 913.75,57.27 C 921.19,56.74 958.6,52 960.0699999999999,51.9 c 4.18,-0.28 5.87,1.59 5.87,6.37 0,2.77 -0.31,21.4 -1.28,33.31 -0.66,8.04 -5.41,1.29 -7.15,-0.78" style="fill:none;stroke:black;stroke-width:3" />
<circle cx="913.75" cy="57.27" r="5" stroke-width="0" fill="#FF2A00" opacity="0.7" />
<path d="M 1000.88,17 c 3.31,1.47 8.12,5.38 10.37,8.34" style="fill:none;stroke:#999;stroke-width:3" />
<path d="M 996.5,38.75 c 3.71,1.41 8.5,5.12 10.5,8" style="fill:none;stroke:#999;stroke-width:3" />
<path d="M 993.62,90.48 c 1.3,0.38 2.57,0 3.35,-1.29 3.32,-5.52 6.64,-12.27 9.65,-19.31" style="fill:none;stroke:#999;stroke-width:3" />
<path d="M 1018.9372599999999,29.02 c 1.76,0.53 5.09,0.47 6.84,0.28 14.78,-1.67 28.692576,-3.42 41.792576,-4.03 2.93,-0.14 4.69,0.25 6.15,0.51" style="fill:none;stroke:#999;stroke-width:3" />
<path d="M 1032.67,15.5 c 1.04,1.04 1.92,2.36 1.99,3.25 0.84,10.25 1.59,15.75 2,22.25" style="fill:none;stroke:#999;stroke-width:3" />
<path d="M 1057.25,13.55 c 0.78,0.79 1.03,1.94 0.85,3.42 -1.06,8.72 -1.67,14.31 -3,22.55" style="fill:none;stroke:#999;stroke-width:3" />
<path d="M 1017.151595,43.43 c 1.55,0.42 4.402969,0.609834 5.94,0.42 9.752306,-1.204476 35.042963,-2.762866 47.628262,-3.84 2.573863,-0.220289 4.13,0.2 5.42,0.42" style="fill:none;stroke:#999;stroke-width:3" />
<path d="M 1020.82,55.91 c 0.88,0.88 1.24,2.21 1.28,3.43 0.27,7.71 0.11,20.47 -0.02,28.29 -0.06,3.5 -0.11,6.01 -0.11,6.62" style="fill:none;stroke:#999;stroke-width:3" />
<path d="M 1022.75,57.27 C 1030.19,56.74 1067.6,52 1069.07,51.9 c 4.18,-0.28 5.87,1.59 5.87,6.37 0,2.77 -0.31,21.4 -1.28,33.31 -0.66,8.04 -5.41,1.29 -7.15,-0.78" style="fill:none;stroke:#999;stroke-width:3" />
<path d="M 1045.8,43.91 c 0.83,0.83 1.25,1.96 1.25,3.33 0,0.71 -0.06,26.44 -0.15,30.82" style="fill:none;stroke:black;stroke-width:3" />
<circle cx="1045.8" cy="43.91" r="5" stroke-width="0" fill="#FF2A00" opacity="0.7" />
<path d="M 1109.88,17 c 3.31,1.47 8.12,5.38 10.37,8.34" style="fill:none;stroke:#999;stroke-width:3" />
<path d="M 1105.5,38.75 c 3.71,1.41 8.5,5.12 10.5,8" style="fill:none;stroke:#999;stroke-width:3" />
<path d="M 1102.62,90.48 c 1.3,0.38 2.57,0 3.35,-1.29 3.32,-5.52 6.64,-12.27 9.65,-19.31" style="fill:none;stroke:#999;stroke-width:3" />
<path d="M 1127.93726,29.02 c 1.76,0.53 5.09,0.47 6.84,0.28 14.78,-1.67 28.692576,-3.42 41.792576,-4.03 2.93,-0.14 4.69,0.25 6.15,0.51" style="fill:none;stroke:#999;stroke-width:3" />
<path d="M 1141.67,15.5 c 1.04,1.04 1.92,2.36 1.99,3.25 0.84,10.25 1.59,15.75 2,22.25" style="fill:none;stroke:#999;stroke-width:3" />
<path d="M 1166.25,13.55 c 0.78,0.79 1.03,1.94 0.85,3.42 -1.06,8.72 -1.67,14.31 -3,22.55" style="fill:none;stroke:#999;stroke-width:3" />
<path d="M 1126.151595,43.43 c 1.55,0.42 4.402969,0.609834 5.94,0.42 9.752306,-1.204476 35.042963,-2.762866 47.628262,-3.84 2.573863,-0.220289 4.13,0.2 5.42,0.42" style="fill:none;stroke:#999;stroke-width:3" />
<path d="M 1129.8200000000002,55.91 c 0.88,0.88 1.24,2.21 1.28,3.43 0.27,7.71 0.11,20.47 -0.02,28.29 -0.06,3.5 -0.11,6.01 -0.11,6.62" style="fill:none;stroke:#999;stroke-width:3" />
<path d="M 1131.75,57.27 C 1139.19,56.74 1176.6,52 1178.07,51.9 c 4.18,-0.28 5.87,1.59 5.87,6.37 0,2.77 -0.31,21.4 -1.28,33.31 -0.66,8.04 -5.41,1.29 -7.15,-0.78" style="fill:none;stroke:#999;stroke-width:3" />
<path d="M 1154.8,43.91 c 0.83,0.83 1.25,1.96 1.25,3.33 0,0.71 -0.06,26.44 -0.15,30.82" style="fill:none;stroke:#999;stroke-width:3" />
<path d="M 1143.41,67.46 c 0.82,0.82 1.09,2.04 0.95,3.29 -0.34,3.13 -0.49,4.75 -0.78,7.25 -0.2,1.73 0.84,3.19 2.12,2.94 6.55,-1.32 15.17,-2.57 21.97,-3.41" style="fill:none;stroke:black;stroke-width:3" />
<circle cx="1143.41" cy="67.46" r="5" stroke-width="0" fill="#FF2A00" opacity="0.7" />
<path d="M 1218.88,17 c 3.31,1.47 8.12,5.38 10.37,8.34" style="fill:none;stroke:#999;stroke-width:3" />
<path d="M 1214.5,38.75 c 3.71,1.41 8.5,5.12 10.5,8" style="fill:none;stroke:#999;stroke-width:3" />
<path d="M 1211.62,90.48 c 1.3,0.38 2.57,0 3.35,-1.29 3.32,-5.52 6.64,-12.27 9.65,-19.31" style="fill:none;stroke:#999;stroke-width:3" />
<path d="M 1236.93726,29.02 c 1.76,0.53 5.09,0.47 6.84,0.28 14.78,-1.67 28.692576,-3.42 41.792576,-4.03 2.93,-0.14 4.69,0.25 6.15,0.51" style="fill:none;stroke:#999;stroke-width:3" />
<path d="M 1250.67,15.5 c 1.04,1.04 1.92,2.36 1.99,3.25 0.84,10.25 1.59,15.75 2,22.25" style="fill:none;stroke:#999;stroke-width:3" />
<path d="M 1275.25,13.55 c 0.78,0.79 1.03,1.94 0.85,3.42 -1.06,8.72 -1.67,14.31 -3,22.55" style="fill:none;stroke:#999;stroke-width:3" />
<path d="M 1235.151595,43.43 c 1.55,0.42 4.402969,0.609834 5.94,0.42 9.752306,-1.204476 35.042963,-2.762866 47.628262,-3.84 2.573863,-0.220289 4.13,0.2 5.42,0.42" style="fill:none;stroke:#999;stroke-width:3" />
<path d="M 1238.8200000000002,55.91 c 0.88,0.88 1.24,2.21 1.28,3.43 0.27,7.71 0.11,20.47 -0.02,28.29 -0.06,3.5 -0.11,6.01 -0.11,6.62" style="fill:none;stroke:#999;stroke-width:3" />
<path d="M 1240.75,57.27 C 1248.19,56.74 1285.6,52 1287.07,51.9 c 4.18,-0.28 5.87,1.59 5.87,6.37 0,2.77 -0.31,21.4 -1.28,33.31 -0.66,8.04 -5.41,1.29 -7.15,-0.78" style="fill:none;stroke:#999;stroke-width:3" />
<path d="M 1263.8,43.91 c 0.83,0.83 1.25,1.96 1.25,3.33 0,0.71 -0.06,26.44 -0.15,30.82" style="fill:none;stroke:#999;stroke-width:3" />
<path d="M 1252.41,67.46 c 0.82,0.82 1.09,2.04 0.95,3.29 -0.34,3.13 -0.49,4.75 -0.78,7.25 -0.2,1.73 0.84,3.19 2.12,2.94 6.55,-1.32 15.17,-2.57 21.97,-3.41" style="fill:none;stroke:#999;stroke-width:3" />
<path d="M 1277.22,64.99 c 0.83,0.83 1.03,2.14 0.96,3.33 -0.18,2.96 -0.31,5.85 -0.43,8.93 -0.06,1.53 -0.11,3.11 -0.17,4.77" style="fill:none;stroke:black;stroke-width:3" />
<circle cx="1277.22" cy="64.99" r="5" stroke-width="0" fill="#FF2A00" opacity="0.7" />
</svg>