<!-- 06e9c -->
<svg width="1417px" height="109px" viewBox="0 0 1417px 109px" xmlns="http://www.w3.org/2000/svg" xmlns:xlink="http://www.w3.org/1999/xlink" xml:space="preserve" version="1.1"  baseProfile="full">
<line x1="1" y1="1" x2="1416" y2="1" style="stroke:#ddd;stroke-width:2" />
<line x1="1" y1="1" x2="1" y2="108" style="stroke:#ddd;stroke-width:2" />
<line x1="1" y1="108" x2="1416" y2="108" style="stroke:#ddd;stroke-width:2" />
<line x1="1416" y1="1" x2="1416" y2="108" style="stroke:#ddd;stroke-width:2" />
<line x1="109" y1="1" x2="109" y2="108" style="stroke:#ddd;stroke-width:2" />
<line x1="218" y1="1" x2="218" y2="108" style="stroke:#ddd;stroke-width:2" />
<line x1="327" y1="1" x2="327" y2="108" style="stroke:#ddd;stroke-width:2" />
<line x1="436" y1="1" x2="436" y2="108" style="stroke:#ddd;stroke-width:2" />
<line x1="545" y1="1" x2="545" y2="108" style="stroke:#ddd;stroke-width:2" />
<line x1="654" y1="1" x2="654" y2="108" style="stroke:#ddd;stroke-width:2" />
<line x1="763" y1="1" x2="763" y2="108" style="stroke:#ddd;stroke-width:2" />
<line x1="872" y1="1" x2="872" y2="108" style="stroke:#ddd;stroke-width:2" />
<line x1="981" y1="1" x2="981" y2="108" style="stroke:#ddd;stroke-width:2" />
<line x1="1090" y1="1" x2="1090" y2="108" style="stroke:#ddd;stroke-width:2" />
<line x1="1199" y1="1" x2="1199" y2="108" style="stroke:#ddd;stroke-width:2" />
<line x1="1308" y1="1" x2="1308" y2="108" style="stroke:#ddd;stroke-width:2" />
<line x1="1" y1="54" x2="1416" y2="54" style="stroke:#ddd;stroke-width:2;stroke-dasharray:3 3" />
<line x1="55" y1="1" x2="55" y2="108" style="stroke:#ddd;stroke-width:2;stroke-dasharray:3 3" />
<line x1="164" y1="1" x2="164" y2="108" style="stroke:#ddd;stroke-width:2;stroke-dasharray:3 3" />
<line x1="273" y1="1" x2="273" y2="108" style="stroke:#ddd;stroke-width:2;stroke-dasharray:3 3" />
<line x1="382" y1="1" x2="382" y2="108" style="stroke:#ddd;stroke-width:2;stroke-dasharray:3 3" />
<line x1="491" y1="1" x2="491" y2="108" style="stroke:#ddd;stroke-width:2;stroke-dasharray:3 3" />
<line x1="600" y1="1" x2="600" y2="108" style="stroke:#ddd;stroke-width:2;stroke-dasharray:3 3" />
<line x1="709" y1="1" x2="709" y2="108" style="stroke:#ddd;stroke-width:2;stroke-dasharray:3 3" />
<line x1="818" y1="1" x2="818" y2="108" style="stroke:#ddd;stroke-width:2;stroke-dasharray:3 3" />
<line x1="927" y1="1" x2="927" y2="108" style="stroke:#ddd;stroke-width:2;stroke-dasharray:3 3" />
<line x1="1036" y1="1" x2="1036" y2="108" style="stroke:#ddd;stroke-width:2;stroke-dasharray:3 3" />
<line x1="1145" y1="1" x2="1145" y2="108" style="stroke:#ddd;stroke-width:2;stroke-dasharray:3 3" />
<line x1="1254" y1="1" x2="1254" y2="108" style="stroke:#ddd;stroke-width:2;stroke-dasharray:3 3" />
<line x1="1363" y1="1" x2="1363" y2="108" style="stroke:#ddd;stroke-width:2;stroke-dasharray:3 3" />
<path d="M17.63,14.5c3.57,1.43,9.22,5.87,10.12,8.09" style="fill:none;stroke:black;stroke-width:3" />
<circle cx="17.63" cy="14.5" r="5" stroke-width="0" fill="#FF2A00" opacity="0.7" />
<path d="M126.63,14.5c3.57,1.43,9.22,5.87,10.12,8.09" style="fill:none;stroke:#999;stroke-width:3" />
<path d="M120.75,38c3.79,1.32,9.8,5.44,10.75,7.5" style="fill:none;stroke:black;stroke-width:3" />
<circle cx="120.75" cy="38.0" r="5" stroke-width="0" fill="#FF2A00" opacity="0.7" />
<path d="M235.63,14.5c3.57,1.43,9.22,5.87,10.12,8.09" style="fill:none;stroke:#999;stroke-width:3" />
<path d="M229.75,38c3.79,1.32,9.8,5.44,10.75,7.5" style="fill:none;stroke:#999;stroke-width:3" />
<path d="M228.5,90.5c1.78,1.25,3.91,1.3,5.03-0.24c3.25-4.5,6.51-10.01,9.47-15.76" style="fill:none;stroke:black;stroke-width:3" />
<circle cx="228.5" cy="90.5" r="5" stroke-width="0" fill="#FF2A00" opacity="0.7" />
<path d="M344.63,14.5c3.57,1.43,9.22,5.87,10.12,8.09" style="fill:none;stroke:#999;stroke-width:3" />
<path d="M338.75,38c3.79,1.32,9.8,5.44,10.75,7.5" style="fill:none;stroke:#999;stroke-width:3" />
<path d="M337.5,90.5c1.78,1.25,3.91,1.3,5.03-0.24c3.25-4.5,6.51-10.01,9.47-15.76" style="fill:none;stroke:#999;stroke-width:3" />
<path d="M382.59000000000003,13.44c0.04,0.3,0.16,0.86-0.08,1.2c-2.95,4.22-7.3,8.1-14.98,11.5" style="fill:none;stroke:black;stroke-width:3" />
<circle cx="382.59000000000003" cy="13.44" r="5" stroke-width="0" fill="#FF2A00" opacity="0.7" />
<path d="M453.63,14.5c3.57,1.43,9.22,5.87,10.12,8.09" style="fill:none;stroke:#999;stroke-width:3" />
<path d="M447.75,38c3.79,1.32,9.8,5.44,10.75,7.5" style="fill:none;stroke:#999;stroke-width:3" />
<path d="M446.5,90.5c1.78,1.25,3.91,1.3,5.03-0.24c3.25-4.5,6.51-10.01,9.47-15.76" style="fill:none;stroke:#999;stroke-width:3" />
<path d="M491.59000000000003,13.44c0.04,0.3,0.16,0.86-0.08,1.2c-2.95,4.22-7.3,8.1-14.98,11.5" style="fill:none;stroke:#999;stroke-width:3" />
<path d="M473.37,26.6c0.55,0.4,0.88,1.79,0.99,2.59c0.11,0.8-0.77,19.47-0.89,21.45c-0.11,1.79,0.29,3.37,2.41,1.75c3.81-2.92,11.91-9.47,15.92-12.15" style="fill:none;stroke:black;stroke-width:3" />
<circle cx="473.37" cy="26.6" r="5" stroke-width="0" fill="#FF2A00" opacity="0.7" />
<path d="M562.63,14.5c3.57,1.43,9.22,5.87,10.12,8.09" style="fill:none;stroke:#999;stroke-width:3" />
<path d="M556.75,38c3.79,1.32,9.8,5.44,10.75,7.5" style="fill:none;stroke:#999;stroke-width:3" />
<path d="M555.5,90.5c1.78,1.25,3.91,1.3,5.03-0.24c3.25-4.5,6.51-10.01,9.47-15.76" style="fill:none;stroke:#999;stroke-width:3" />
<path d="M600.59,13.44c0.04,0.3,0.16,0.86-0.08,1.2c-2.95,4.22-7.3,8.1-14.98,11.5" style="fill:none;stroke:#999;stroke-width:3" />
<path d="M582.37,26.6c0.55,0.4,0.88,1.79,0.99,2.59c0.11,0.8-0.77,19.47-0.89,21.45c-0.11,1.79,0.29,3.37,2.41,1.75c3.81-2.92,11.91-9.47,15.92-12.15" style="fill:none;stroke:#999;stroke-width:3" />
<path d="M597.63,33.62c3.66,3.37,5.99,8.37,7.39,13.28" style="fill:none;stroke:black;stroke-width:3" />
<circle cx="597.63" cy="33.62" r="5" stroke-width="0" fill="#FF2A00" opacity="0.7" />
<path d="M671.63,14.5c3.57,1.43,9.22,5.87,10.12,8.09" style="fill:none;stroke:#999;stroke-width:3" />
<path d="M665.75,38c3.79,1.32,9.8,5.44,10.75,7.5" style="fill:none;stroke:#999;stroke-width:3" />
<path d="M664.5,90.5c1.78,1.25,3.91,1.3,5.03-0.24c3.25-4.5,6.51-10.01,9.47-15.76" style="fill:none;stroke:#999;stroke-width:3" />
<path d="M709.59,13.44c0.04,0.3,0.16,0.86-0.08,1.2c-2.95,4.22-7.3,8.1-14.98,11.5" style="fill:none;stroke:#999;stroke-width:3" />
<path d="M691.37,26.6c0.55,0.4,0.88,1.79,0.99,2.59c0.11,0.8-0.77,19.47-0.89,21.45c-0.11,1.79,0.29,3.37,2.41,1.75c3.81-2.92,11.91-9.47,15.92-12.15" style="fill:none;stroke:#999;stroke-width:3" />
<path d="M706.63,33.62c3.66,3.37,5.99,8.37,7.39,13.28" style="fill:none;stroke:#999;stroke-width:3" />
<path d="M721.38,21.74c0.96,0.41,2.66,0.36,3.5,0.22c6.83-1.14,18.41-3.34,22.19-3.76c2.46-0.27,3.08,2.36,2.94,4.27c-0.36,5.04-4.5,22.59-7.86,28.38c-2.43,4.21-3.85,2.86-5.69,0.13" style="fill:none;stroke:black;stroke-width:3" />
<circle cx="721.38" cy="21.74" r="5" stroke-width="0" fill="#FF2A00" opacity="0.7" />
<path d="M780.63,14.5c3.57,1.43,9.22,5.87,10.12,8.09" style="fill:none;stroke:#999;stroke-width:3" />
<path d="M774.75,38c3.79,1.32,9.8,5.44,10.75,7.5" style="fill:none;stroke:#999;stroke-width:3" />
<path d="M773.5,90.5c1.78,1.25,3.91,1.3,5.03-0.24c3.25-4.5,6.51-10.01,9.47-15.76" style="fill:none;stroke:#999;stroke-width:3" />
<path d="M818.59,13.44c0.04,0.3,0.16,0.86-0.08,1.2c-2.95,4.22-7.3,8.1-14.98,11.5" style="fill:none;stroke:#999;stroke-width:3" />
<path d="M800.37,26.6c0.55,0.4,0.88,1.79,0.99,2.59c0.11,0.8-0.77,19.47-0.89,21.45c-0.11,1.79,0.29,3.37,2.41,1.75c3.81-2.92,11.91-9.47,15.92-12.15" style="fill:none;stroke:#999;stroke-width:3" />
<path d="M815.63,33.62c3.66,3.37,5.99,8.37,7.39,13.28" style="fill:none;stroke:#999;stroke-width:3" />
<path d="M830.38,21.74c0.96,0.41,2.66,0.36,3.5,0.22c6.83-1.14,18.41-3.34,22.19-3.76c2.46-0.27,3.08,2.36,2.94,4.27c-0.36,5.04-4.5,22.59-7.86,28.38c-2.43,4.21-3.85,2.86-5.69,0.13" style="fill:none;stroke:#999;stroke-width:3" />
<path d="M842.19,24c0.04,0.67,0.14,1.75-0.09,2.67C839.54,36.77 837.25,44 826.58,53.88" style="fill:none;stroke:black;stroke-width:3" />
<circle cx="842.19" cy="24.0" r="5" stroke-width="0" fill="#FF2A00" opacity="0.7" />
<path d="M889.63,14.5c3.57,1.43,9.22,5.87,10.12,8.09" style="fill:none;stroke:#999;stroke-width:3" />
<path d="M883.75,38c3.79,1.32,9.8,5.44,10.75,7.5" style="fill:none;stroke:#999;stroke-width:3" />
<path d="M882.5,90.5c1.78,1.25,3.91,1.3,5.03-0.24c3.25-4.5,6.51-10.01,9.47-15.76" style="fill:none;stroke:#999;stroke-width:3" />
<path d="M927.59,13.44c0.04,0.3,0.16,0.86-0.08,1.2c-2.95,4.22-7.3,8.1-14.98,11.5" style="fill:none;stroke:#999;stroke-width:3" />
<path d="M909.37,26.6c0.55,0.4,0.88,1.79,0.99,2.59c0.11,0.8-0.77,19.47-0.89,21.45c-0.11,1.79,0.29,3.37,2.41,1.75c3.81-2.92,11.91-9.47,15.92-12.15" style="fill:none;stroke:#999;stroke-width:3" />
<path d="M924.63,33.62c3.66,3.37,5.99,8.37,7.39,13.28" style="fill:none;stroke:#999;stroke-width:3" />
<path d="M939.38,21.74c0.96,0.41,2.66,0.36,3.5,0.22c6.83-1.14,18.41-3.34,22.19-3.76c2.46-0.27,3.08,2.36,2.94,4.27c-0.36,5.04-4.5,22.59-7.86,28.38c-2.43,4.21-3.85,2.86-5.69,0.13" style="fill:none;stroke:#999;stroke-width:3" />
<path d="M951.19,24c0.04,0.67,0.14,1.75-0.09,2.67C948.54,36.77 946.25,44 935.58,53.88" style="fill:none;stroke:#999;stroke-width:3" />
<path d="M912.86,64.82c0.31,0.58,0.82,1.46,0.98,2.17c1.38,5.86,2.77,20.47,3.58,31.25" style="fill:none;stroke:black;stroke-width:3" />
<circle cx="912.86" cy="64.82" r="5" stroke-width="0" fill="#FF2A00" opacity="0.7" />
<path d="M998.63,14.5c3.57,1.43,9.22,5.87,10.12,8.09" style="fill:none;stroke:#999;stroke-width:3" />
<path d="M992.75,38c3.79,1.32,9.8,5.44,10.75,7.5" style="fill:none;stroke:#999;stroke-width:3" />
<path d="M991.5,90.5c1.78,1.25,3.91,1.3,5.03-0.24c3.25-4.5,6.51-10.01,9.47-15.76" style="fill:none;stroke:#999;stroke-width:3" />
<path d="M1036.5900000000001,13.44c0.04,0.3,0.16,0.86-0.08,1.2c-2.95,4.22-7.3,8.1-14.98,11.5" style="fill:none;stroke:#999;stroke-width:3" />
<path d="M1018.37,26.6c0.55,0.4,0.88,1.79,0.99,2.59c0.11,0.8-0.77,19.47-0.89,21.45c-0.11,1.79,0.29,3.37,2.41,1.75c3.81-2.92,11.91-9.47,15.92-12.15" style="fill:none;stroke:#999;stroke-width:3" />
<path d="M1033.63,33.62c3.66,3.37,5.99,8.37,7.39,13.28" style="fill:none;stroke:#999;stroke-width:3" />
<path d="M1048.38,21.74c0.96,0.41,2.66,0.36,3.5,0.22c6.83-1.14,18.41-3.34,22.19-3.76c2.46-0.27,3.08,2.36,2.94,4.27c-0.36,5.04-4.5,22.59-7.86,28.38c-2.43,4.21-3.85,2.86-5.69,0.13" style="fill:none;stroke:#999;stroke-width:3" />
<path d="M1060.19,24c0.04,0.67,0.14,1.75-0.09,2.67C1057.54,36.77 1055.25,44 1044.58,53.88" style="fill:none;stroke:#999;stroke-width:3" />
<path d="M1021.86,64.82c0.31,0.58,0.82,1.46,0.98,2.17c1.38,5.86,2.77,20.47,3.58,31.25" style="fill:none;stroke:#999;stroke-width:3" />
<path d="M1023.44,66.68c12.42-1.45,32.75-3.38,40.91-3.96c3-0.21,4.53,0.93,4.36,3.96c-0.32,5.78-2.26,18.36-4.05,28.6" style="fill:none;stroke:black;stroke-width:3" />
<circle cx="1023.44" cy="66.68" r="5" stroke-width="0" fill="#FF2A00" opacity="0.7" />
<path d="M1107.63,14.5c3.57,1.43,9.22,5.87,10.12,8.09" style="fill:none;stroke:#999;stroke-width:3" />
<path d="M1101.75,38c3.79,1.32,9.8,5.44,10.75,7.5" style="fill:none;stroke:#999;stroke-width:3" />
<path d="M1100.5,90.5c1.78,1.25,3.91,1.3,5.03-0.24c3.25-4.5,6.51-10.01,9.47-15.76" style="fill:none;stroke:#999;stroke-width:3" />
<path d="M1145.5900000000001,13.44c0.04,0.3,0.16,0.86-0.08,1.2c-2.95,4.22-7.3,8.1-14.98,11.5" style="fill:none;stroke:#999;stroke-width:3" />
<path d="M1127.37,26.6c0.55,0.4,0.88,1.79,0.99,2.59c0.11,0.8-0.77,19.47-0.89,21.45c-0.11,1.79,0.29,3.37,2.41,1.75c3.81-2.92,11.91-9.47,15.92-12.15" style="fill:none;stroke:#999;stroke-width:3" />
<path d="M1142.63,33.62c3.66,3.37,5.99,8.37,7.39,13.28" style="fill:none;stroke:#999;stroke-width:3" />
<path d="M1157.38,21.74c0.96,0.41,2.66,0.36,3.5,0.22c6.83-1.14,18.41-3.34,22.19-3.76c2.46-0.27,3.08,2.36,2.94,4.27c-0.36,5.04-4.5,22.59-7.86,28.38c-2.43,4.21-3.85,2.86-5.69,0.13" style="fill:none;stroke:#999;stroke-width:3" />
<path d="M1169.19,24c0.04,0.67,0.14,1.75-0.09,2.67C1166.54,36.77 1164.25,44 1153.58,53.88" style="fill:none;stroke:#999;stroke-width:3" />
<path d="M1130.8600000000001,64.82c0.31,0.58,0.82,1.46,0.98,2.17c1.38,5.86,2.77,20.47,3.58,31.25" style="fill:none;stroke:#999;stroke-width:3" />
<path d="M1132.44,66.68c12.42-1.45,32.75-3.38,40.91-3.96c3-0.21,4.53,0.93,4.36,3.96c-0.32,5.78-2.26,18.36-4.05,28.6" style="fill:none;stroke:#999;stroke-width:3" />
<path d="M1153.06,64.67c0.6,0.54,1.1,1.62,1.09,3.04c-0.02,7.25,0.2,23.53,0.2,25.91" style="fill:none;stroke:black;stroke-width:3" />
<circle cx="1153.06" cy="64.67" r="5" stroke-width="0" fill="#FF2A00" opacity="0.7" />
<path d="M1216.63,14.5c3.57,1.43,9.22,5.87,10.12,8.09" style="fill:none;stroke:#999;stroke-width:3" />
<path d="M1210.75,38c3.79,1.32,9.8,5.44,10.75,7.5" style="fill:none;stroke:#999;stroke-width:3" />
<path d="M1209.5,90.5c1.78,1.25,3.91,1.3,5.03-0.24c3.25-4.5,6.51-10.01,9.47-15.76" style="fill:none;stroke:#999;stroke-width:3" />
<path d="M1254.5900000000001,13.44c0.04,0.3,0.16,0.86-0.08,1.2c-2.95,4.22-7.3,8.1-14.98,11.5" style="fill:none;stroke:#999;stroke-width:3" />
<path d="M1236.37,26.6c0.55,0.4,0.88,1.79,0.99,2.59c0.11,0.8-0.77,19.47-0.89,21.45c-0.11,1.79,0.29,3.37,2.41,1.75c3.81-2.92,11.91-9.47,15.92-12.15" style="fill:none;stroke:#999;stroke-width:3" />
<path d="M1251.63,33.62c3.66,3.37,5.99,8.37,7.39,13.28" style="fill:none;stroke:#999;stroke-width:3" />
<path d="M1266.38,21.74c0.96,0.41,2.66,0.36,3.5,0.22c6.83-1.14,18.41-3.34,22.19-3.76c2.46-0.27,3.08,2.36,2.94,4.27c-0.36,5.04-4.5,22.59-7.86,28.38c-2.43,4.21-3.85,2.86-5.69,0.13" style="fill:none;stroke:#999;stroke-width:3" />
<path d="M1278.19,24c0.04,0.67,0.14,1.75-0.09,2.67C1275.54,36.77 1273.25,44 1262.58,53.88" style="fill:none;stroke:#999;stroke-width:3" />
<path d="M1239.8600000000001,64.82c0.31,0.58,0.82,1.46,0.98,2.17c1.38,5.86,2.77,20.47,3.58,31.25" style="fill:none;stroke:#999;stroke-width:3" />
<path d="M1241.44,66.68c12.42-1.45,32.75-3.38,40.91-3.96c3-0.21,4.53,0.93,4.36,3.96c-0.32,5.78-2.26,18.36-4.05,28.6" style="fill:none;stroke:#999;stroke-width:3" />
<path d="M1262.06,64.67c0.6,0.54,1.1,1.62,1.09,3.04c-0.02,7.25,0.2,23.53,0.2,25.91" style="fill:none;stroke:#999;stroke-width:3" />
<path d="M1242.92,79.31c3.56-0.28,39.61-2.85,42.55-2.85" style="fill:none;stroke:black;stroke-width:3" />
<circle cx="1242.92" cy="79.31" r="5" stroke-width="0" fill="#FF2A00" opacity="0.7" />
<path d="M1325.63,14.5c3.57,1.43,9.22,5.87,10.12,8.09" style="fill:none;stroke:#999;stroke-width:3" />
<path d="M1319.75,38c3.79,1.32,9.8,5.44,10.75,7.5" style="fill:none;stroke:#999;stroke-width:3" />
<path d="M1318.5,90.5c1.78,1.25,3.91,1.3,5.03-0.24c3.25-4.5,6.51-10.01,9.47-15.76" style="fill:none;stroke:#999;stroke-width:3" />
<path d="M1363.5900000000001,13.44c0.04,0.3,0.16,0.86-0.08,1.2c-2.95,4.22-7.3,8.1-14.98,11.5" style="fill:none;stroke:#999;stroke-width:3" />
<path d="M1345.37,26.6c0.55,0.4,0.88,1.79,0.99,2.59c0.11,0.8-0.77,19.47-0.89,21.45c-0.11,1.79,0.29,3.37,2.41,1.75c3.81-2.92,11.91-9.47,15.92-12.15" style="fill:none;stroke:#999;stroke-width:3" />
<path d="M1360.63,33.62c3.66,3.37,5.99,8.37,7.39,13.28" style="fill:none;stroke:#999;stroke-width:3" />
<path d="M1375.38,21.74c0.96,0.41,2.66,0.36,3.5,0.22c6.83-1.14,18.41-3.34,22.19-3.76c2.46-0.27,3.08,2.36,2.94,4.27c-0.36,5.04-4.5,22.59-7.86,28.38c-2.43,4.21-3.85,2.86-5.69,0.13" style="fill:none;stroke:#999;stroke-width:3" />
<path d="M1387.19,24c0.04,0.67,0.14,1.75-0.09,2.67C1384.54,36.77 1382.25,44 1371.58,53.88" style="fill:none;stroke:#999;stroke-width:3" />
<path d="M1348.8600000000001,64.82c0.31,0.58,0.82,1.46,0.98,2.17c1.38,5.86,2.77,20.47,3.58,31.25" style="fill:none;stroke:#999;stroke-width:3" />
<path d="M1350.44,66.68c12.42-1.45,32.75-3.38,40.91-3.96c3-0.21,4.53,0.93,4.36,3.96c-0.32,5.78-2.26,18.36-4.05,28.6" style="fill:none;stroke:#999;stroke-width:3" />
<path d="M1371.06,64.67c0.6,0.54,1.1,1.62,1.09,3.04c-0.02,7.25,0.2,23.53,0.2,25.91" style="fill:none;stroke:#999;stroke-width:3" />
<path d="M1351.92,79.31c3.56-0.28,39.61-2.85,42.55-2.85" style="fill:none;stroke:#999;stroke-width:3" />
<path d="M1353.99,95.34c9.4-0.76,26.89-2.22,37.75-2.37" style="fill:none;stroke:black;stroke-width:3" />
<circle cx="1353.99" cy="95.34" r="5" stroke-width="0" fill="#FF2A00" opacity="0.7" />
</svg>