<!-- 06eb2 -->
<svg width="1417px" height="109px" viewBox="0 0 1417px 109px" xmlns="http://www.w3.org/2000/svg" xmlns:xlink="http://www.w3.org/1999/xlink" xml:space="preserve" version="1.1"  baseProfile="full">
<line x1="1" y1="1" x2="1416" y2="1" style="stroke:#ddd;stroke-width:2" />
<line x1="1" y1="1" x2="1" y2="108" style="stroke:#ddd;stroke-width:2" />
<line x1="1" y1="108" x2="1416" y2="108" style="stroke:#ddd;stroke-width:2" />
<line x1="1416" y1="1" x2="1416" y2="108" style="stroke:#ddd;stroke-width:2" />
<line x1="109" y1="1" x2="109" y2="108" style="stroke:#ddd;stroke-width:2" />
<line x1="218" y1="1" x2="218" y2="108" style="stroke:#ddd;stroke-width:2" />
<line x1="327" y1="1" x2="327" y2="108" style="stroke:#ddd;stroke-width:2" />
<line x1="436" y1="1" x2="436" y2="108" style="stroke:#ddd;stroke-width:2" />
<line x1="545" y1="1" x2="545" y2="108" style="stroke:#ddd;stroke-width:2" />
<line x1="654" y1="1" x2="654" y2="108" style="stroke:#ddd;stroke-width:2" />
<line x1="763" y1="1" x2="763" y2="108" style="stroke:#ddd;stroke-width:2" />
<line x1="872" y1="1" x2="872" y2="108" style="stroke:#ddd;stroke-width:2" />
<line x1="981" y1="1" x2="981" y2="108" style="stroke:#ddd;stroke-width:2" />
<line x1="1090" y1="1" x2="1090" y2="108" style="stroke:#ddd;stroke-width:2" />
<line x1="1199" y1="1" x2="1199" y2="108" style="stroke:#ddd;stroke-width:2" />
<line x1="1308" y1="1" x2="1308" y2="108" style="stroke:#ddd;stroke-width:2" />
<line x1="1" y1="54" x2="1416" y2="54" style="stroke:#ddd;stroke-width:2;stroke-dasharray:3 3" />
<line x1="55" y1="1" x2="55" y2="108" style="stroke:#ddd;stroke-width:2;stroke-dasharray:3 3" />
<line x1="164" y1="1" x2="164" y2="108" style="stroke:#ddd;stroke-width:2;stroke-dasharray:3 3" />
<line x1="273" y1="1" x2="273" y2="108" style="stroke:#ddd;stroke-width:2;stroke-dasharray:3 3" />
<line x1="382" y1="1" x2="382" y2="108" style="stroke:#ddd;stroke-width:2;stroke-dasharray:3 3" />
<line x1="491" y1="1" x2="491" y2="108" style="stroke:#ddd;stroke-width:2;stroke-dasharray:3 3" />
<line x1="600" y1="1" x2="600" y2="108" style="stroke:#ddd;stroke-width:2;stroke-dasharray:3 3" />
<line x1="709" y1="1" x2="709" y2="108" style="stroke:#ddd;stroke-width:2;stroke-dasharray:3 3" />
<line x1="818" y1="1" x2="818" y2="108" style="stroke:#ddd;stroke-width:2;stroke-dasharray:3 3" />
<line x1="927" y1="1" x2="927" y2="108" style="stroke:#ddd;stroke-width:2;stroke-dasharray:3 3" />
<line x1="1036" y1="1" x2="1036" y2="108" style="stroke:#ddd;stroke-width:2;stroke-dasharray:3 3" />
<line x1="1145" y1="1" x2="1145" y2="108" style="stroke:#ddd;stroke-width:2;stroke-dasharray:3 3" />
<line x1="1254" y1="1" x2="1254" y2="108" style="stroke:#ddd;stroke-width:2;stroke-dasharray:3 3" />
<line x1="1363" y1="1" x2="1363" y2="108" style="stroke:#ddd;stroke-width:2;stroke-dasharray:3 3" />
<path d="M19.88,15.75c4.19,1.56,10.82,6.41,11.87,8.84" style="fill:none;stroke:black;stroke-width:3" />
<circle cx="19.88" cy="15.75" r="5" stroke-width="0" fill="#FF2A00" opacity="0.7" />
<path d="M128.88,15.75c4.19,1.56,10.82,6.41,11.87,8.84" style="fill:none;stroke:#999;stroke-width:3" />
<path d="M124.0,39.5c4.41,1.85,11.4,7.62,12.5,10.5" style="fill:none;stroke:black;stroke-width:3" />
<circle cx="124.0" cy="39.5" r="5" stroke-width="0" fill="#FF2A00" opacity="0.7" />
<path d="M237.88,15.75c4.19,1.56,10.82,6.41,11.87,8.84" style="fill:none;stroke:#999;stroke-width:3" />
<path d="M233.0,39.5c4.41,1.85,11.4,7.62,12.5,10.5" style="fill:none;stroke:#999;stroke-width:3" />
<path d="M234.25,89.73c1.71,1.27,3.78,1.32,4.86-0.25c3.14-4.57,9.79-16.66,12.64-22.49" style="fill:none;stroke:black;stroke-width:3" />
<circle cx="234.25" cy="89.73" r="5" stroke-width="0" fill="#FF2A00" opacity="0.7" />
<path d="M346.88,15.75c4.19,1.56,10.82,6.41,11.87,8.84" style="fill:none;stroke:#999;stroke-width:3" />
<path d="M342.0,39.5c4.41,1.85,11.4,7.62,12.5,10.5" style="fill:none;stroke:#999;stroke-width:3" />
<path d="M343.25,89.73c1.71,1.27,3.78,1.32,4.86-0.25c3.14-4.57,9.79-16.66,12.64-22.49" style="fill:none;stroke:#999;stroke-width:3" />
<path d="M391.13,11.75c1.04,0.48,1.66,2.17,1.87,3.14s0,40.35-0.21,46.39" style="fill:none;stroke:black;stroke-width:3" />
<circle cx="391.13" cy="11.75" r="5" stroke-width="0" fill="#FF2A00" opacity="0.7" />
<path d="M455.88,15.75c4.19,1.56,10.82,6.41,11.87,8.84" style="fill:none;stroke:#999;stroke-width:3" />
<path d="M451.0,39.5c4.41,1.85,11.4,7.62,12.5,10.5" style="fill:none;stroke:#999;stroke-width:3" />
<path d="M452.25,89.73c1.71,1.27,3.78,1.32,4.86-0.25c3.14-4.57,9.79-16.66,12.64-22.49" style="fill:none;stroke:#999;stroke-width:3" />
<path d="M500.13,11.75c1.04,0.48,1.66,2.17,1.87,3.14s0,40.35-0.21,46.39" style="fill:none;stroke:#999;stroke-width:3" />
<path d="M491.87,17.53c0.04,0.29-0.21,1.4-0.45,1.71c-3.21,4.09-5.7,7.17-13.01,10.43" style="fill:none;stroke:black;stroke-width:3" />
<circle cx="491.87" cy="17.53" r="5" stroke-width="0" fill="#FF2A00" opacity="0.7" />
<path d="M564.88,15.75c4.19,1.56,10.82,6.41,11.87,8.84" style="fill:none;stroke:#999;stroke-width:3" />
<path d="M560.0,39.5c4.41,1.85,11.4,7.62,12.5,10.5" style="fill:none;stroke:#999;stroke-width:3" />
<path d="M561.25,89.73c1.71,1.27,3.78,1.32,4.86-0.25c3.14-4.57,9.79-16.66,12.64-22.49" style="fill:none;stroke:#999;stroke-width:3" />
<path d="M609.13,11.75c1.04,0.48,1.66,2.17,1.87,3.14s0,40.35-0.21,46.39" style="fill:none;stroke:#999;stroke-width:3" />
<path d="M600.87,17.53c0.04,0.29-0.21,1.4-0.45,1.71c-3.21,4.09-5.7,7.17-13.01,10.43" style="fill:none;stroke:#999;stroke-width:3" />
<path d="M585.11,27.68c0.92,0.73,1.29,2.36,1.52,3.86c0.83,5.47,2.41,16.12,3.25,23.52" style="fill:none;stroke:black;stroke-width:3" />
<circle cx="585.11" cy="27.68" r="5" stroke-width="0" fill="#FF2A00" opacity="0.7" />
<path d="M673.88,15.75c4.19,1.56,10.82,6.41,11.87,8.84" style="fill:none;stroke:#999;stroke-width:3" />
<path d="M669.0,39.5c4.41,1.85,11.4,7.62,12.5,10.5" style="fill:none;stroke:#999;stroke-width:3" />
<path d="M670.25,89.73c1.71,1.27,3.78,1.32,4.86-0.25c3.14-4.57,9.79-16.66,12.64-22.49" style="fill:none;stroke:#999;stroke-width:3" />
<path d="M718.13,11.75c1.04,0.48,1.66,2.17,1.87,3.14s0,40.35-0.21,46.39" style="fill:none;stroke:#999;stroke-width:3" />
<path d="M709.87,17.53c0.04,0.29-0.21,1.4-0.45,1.71c-3.21,4.09-5.7,7.17-13.01,10.43" style="fill:none;stroke:#999;stroke-width:3" />
<path d="M694.11,27.68c0.92,0.73,1.29,2.36,1.52,3.86c0.83,5.47,2.41,16.12,3.25,23.52" style="fill:none;stroke:#999;stroke-width:3" />
<path d="M696.73,39.27c3.82-0.33,12.53-2.13,13.44-2.13c0.91,0,2.18,0,2.91,0" style="fill:none;stroke:black;stroke-width:3" />
<circle cx="696.73" cy="39.27" r="5" stroke-width="0" fill="#FF2A00" opacity="0.7" />
<path d="M782.88,15.75c4.19,1.56,10.82,6.41,11.87,8.84" style="fill:none;stroke:#999;stroke-width:3" />
<path d="M778.0,39.5c4.41,1.85,11.4,7.62,12.5,10.5" style="fill:none;stroke:#999;stroke-width:3" />
<path d="M779.25,89.73c1.71,1.27,3.78,1.32,4.86-0.25c3.14-4.57,9.79-16.66,12.64-22.49" style="fill:none;stroke:#999;stroke-width:3" />
<path d="M827.13,11.75c1.04,0.48,1.66,2.17,1.87,3.14s0,40.35-0.21,46.39" style="fill:none;stroke:#999;stroke-width:3" />
<path d="M818.87,17.53c0.04,0.29-0.21,1.4-0.45,1.71c-3.21,4.09-5.7,7.17-13.01,10.43" style="fill:none;stroke:#999;stroke-width:3" />
<path d="M803.11,27.68c0.92,0.73,1.29,2.36,1.52,3.86c0.83,5.47,2.41,16.12,3.25,23.52" style="fill:none;stroke:#999;stroke-width:3" />
<path d="M805.73,39.27c3.82-0.33,12.53-2.13,13.44-2.13c0.91,0,2.18,0,2.91,0" style="fill:none;stroke:#999;stroke-width:3" />
<path d="M807.98,53.02c3.47-0.33,11.38-1.63,12.2-1.63s1.98,0,2.64,0" style="fill:none;stroke:black;stroke-width:3" />
<circle cx="807.98" cy="53.02" r="5" stroke-width="0" fill="#FF2A00" opacity="0.7" />
<path d="M891.88,15.75c4.19,1.56,10.82,6.41,11.87,8.84" style="fill:none;stroke:#999;stroke-width:3" />
<path d="M887.0,39.5c4.41,1.85,11.4,7.62,12.5,10.5" style="fill:none;stroke:#999;stroke-width:3" />
<path d="M888.25,89.73c1.71,1.27,3.78,1.32,4.86-0.25c3.14-4.57,9.79-16.66,12.64-22.49" style="fill:none;stroke:#999;stroke-width:3" />
<path d="M936.13,11.75c1.04,0.48,1.66,2.17,1.87,3.14s0,40.35-0.21,46.39" style="fill:none;stroke:#999;stroke-width:3" />
<path d="M927.87,17.53c0.04,0.29-0.21,1.4-0.45,1.71c-3.21,4.09-5.7,7.17-13.01,10.43" style="fill:none;stroke:#999;stroke-width:3" />
<path d="M912.11,27.68c0.92,0.73,1.29,2.36,1.52,3.86c0.83,5.47,2.41,16.12,3.25,23.52" style="fill:none;stroke:#999;stroke-width:3" />
<path d="M914.73,39.27c3.82-0.33,12.53-2.13,13.44-2.13c0.91,0,2.18,0,2.91,0" style="fill:none;stroke:#999;stroke-width:3" />
<path d="M916.98,53.02c3.47-0.33,11.38-1.63,12.2-1.63s1.98,0,2.64,0" style="fill:none;stroke:#999;stroke-width:3" />
<path d="M944.98,22.93c0.83,0.16,1.49,0.49,2.64,0.49s11.54-1.98,12.86-2.14s2.41,0.82,2.31,1.81c-0.99,9.56-2.72,28.07-2.88,28.73" style="fill:none;stroke:black;stroke-width:3" />
<circle cx="944.98" cy="22.93" r="5" stroke-width="0" fill="#FF2A00" opacity="0.7" />
<path d="M1000.88,15.75c4.19,1.56,10.82,6.41,11.87,8.84" style="fill:none;stroke:#999;stroke-width:3" />
<path d="M996.0,39.5c4.41,1.85,11.4,7.62,12.5,10.5" style="fill:none;stroke:#999;stroke-width:3" />
<path d="M997.25,89.73c1.71,1.27,3.78,1.32,4.86-0.25c3.14-4.57,9.79-16.66,12.64-22.49" style="fill:none;stroke:#999;stroke-width:3" />
<path d="M1045.13,11.75c1.04,0.48,1.66,2.17,1.87,3.14s0,40.35-0.21,46.39" style="fill:none;stroke:#999;stroke-width:3" />
<path d="M1036.87,17.53c0.04,0.29-0.21,1.4-0.45,1.71c-3.21,4.09-5.7,7.17-13.01,10.43" style="fill:none;stroke:#999;stroke-width:3" />
<path d="M1021.11,27.68c0.92,0.73,1.29,2.36,1.52,3.86c0.83,5.47,2.41,16.12,3.25,23.52" style="fill:none;stroke:#999;stroke-width:3" />
<path d="M1023.73,39.27c3.82-0.33,12.53-2.13,13.44-2.13c0.91,0,2.18,0,2.91,0" style="fill:none;stroke:#999;stroke-width:3" />
<path d="M1025.98,53.02c3.47-0.33,11.38-1.63,12.2-1.63s1.98,0,2.64,0" style="fill:none;stroke:#999;stroke-width:3" />
<path d="M1053.98,22.93c0.83,0.16,1.49,0.49,2.64,0.49s11.54-1.98,12.86-2.14s2.41,0.82,2.31,1.81c-0.99,9.56-2.72,28.07-2.88,28.73" style="fill:none;stroke:#999;stroke-width:3" />
<path d="M1053.89,34.99c0.83,0.16,1.49,0.49,2.64,0.49s12.54-1.33,13.86-1.5" style="fill:none;stroke:black;stroke-width:3" />
<circle cx="1053.89" cy="34.99" r="5" stroke-width="0" fill="#FF2A00" opacity="0.7" />
<path d="M1109.88,15.75c4.19,1.56,10.82,6.41,11.87,8.84" style="fill:none;stroke:#999;stroke-width:3" />
<path d="M1105.0,39.5c4.41,1.85,11.4,7.62,12.5,10.5" style="fill:none;stroke:#999;stroke-width:3" />
<path d="M1106.25,89.73c1.71,1.27,3.78,1.32,4.86-0.25c3.14-4.57,9.79-16.66,12.64-22.49" style="fill:none;stroke:#999;stroke-width:3" />
<path d="M1154.13,11.75c1.04,0.48,1.66,2.17,1.87,3.14s0,40.35-0.21,46.39" style="fill:none;stroke:#999;stroke-width:3" />
<path d="M1145.87,17.53c0.04,0.29-0.21,1.4-0.45,1.71c-3.21,4.09-5.7,7.17-13.01,10.43" style="fill:none;stroke:#999;stroke-width:3" />
<path d="M1130.1100000000001,27.68c0.92,0.73,1.29,2.36,1.52,3.86c0.83,5.47,2.41,16.12,3.25,23.52" style="fill:none;stroke:#999;stroke-width:3" />
<path d="M1132.73,39.27c3.82-0.33,12.53-2.13,13.44-2.13c0.91,0,2.18,0,2.91,0" style="fill:none;stroke:#999;stroke-width:3" />
<path d="M1134.98,53.02c3.47-0.33,11.38-1.63,12.2-1.63s1.98,0,2.64,0" style="fill:none;stroke:#999;stroke-width:3" />
<path d="M1162.98,22.93c0.83,0.16,1.49,0.49,2.64,0.49s11.54-1.98,12.86-2.14s2.41,0.82,2.31,1.81c-0.99,9.56-2.72,28.07-2.88,28.73" style="fill:none;stroke:#999;stroke-width:3" />
<path d="M1162.89,34.99c0.83,0.16,1.49,0.49,2.64,0.49s12.54-1.33,13.86-1.5" style="fill:none;stroke:#999;stroke-width:3" />
<path d="M1162.39,48.99c0.83,0.16,1.49,0.49,2.64,0.49s11.54-0.83,12.86-1" style="fill:none;stroke:black;stroke-width:3" />
<circle cx="1162.39" cy="48.99" r="5" stroke-width="0" fill="#FF2A00" opacity="0.7" />
<path d="M1218.88,15.75c4.19,1.56,10.82,6.41,11.87,8.84" style="fill:none;stroke:#999;stroke-width:3" />
<path d="M1214.0,39.5c4.41,1.85,11.4,7.62,12.5,10.5" style="fill:none;stroke:#999;stroke-width:3" />
<path d="M1215.25,89.73c1.71,1.27,3.78,1.32,4.86-0.25c3.14-4.57,9.79-16.66,12.64-22.49" style="fill:none;stroke:#999;stroke-width:3" />
<path d="M1263.13,11.75c1.04,0.48,1.66,2.17,1.87,3.14s0,40.35-0.21,46.39" style="fill:none;stroke:#999;stroke-width:3" />
<path d="M1254.87,17.53c0.04,0.29-0.21,1.4-0.45,1.71c-3.21,4.09-5.7,7.17-13.01,10.43" style="fill:none;stroke:#999;stroke-width:3" />
<path d="M1239.1100000000001,27.68c0.92,0.73,1.29,2.36,1.52,3.86c0.83,5.47,2.41,16.12,3.25,23.52" style="fill:none;stroke:#999;stroke-width:3" />
<path d="M1241.73,39.27c3.82-0.33,12.53-2.13,13.44-2.13c0.91,0,2.18,0,2.91,0" style="fill:none;stroke:#999;stroke-width:3" />
<path d="M1243.98,53.02c3.47-0.33,11.38-1.63,12.2-1.63s1.98,0,2.64,0" style="fill:none;stroke:#999;stroke-width:3" />
<path d="M1271.98,22.93c0.83,0.16,1.49,0.49,2.64,0.49s11.54-1.98,12.86-2.14s2.41,0.82,2.31,1.81c-0.99,9.56-2.72,28.07-2.88,28.73" style="fill:none;stroke:#999;stroke-width:3" />
<path d="M1271.89,34.99c0.83,0.16,1.49,0.49,2.64,0.49s12.54-1.33,13.86-1.5" style="fill:none;stroke:#999;stroke-width:3" />
<path d="M1271.39,48.99c0.83,0.16,1.49,0.49,2.64,0.49s11.54-0.83,12.86-1" style="fill:none;stroke:#999;stroke-width:3" />
<path d="M1246.89,64.41c1.66,0.27,1.89,0.88,5.19,0.27c5.19-0.96,27.7-3.47,29.99-3.89c2.28-0.41,3.27,2.61,2.28,3.98C1272.52,81.38 1255.62,92.28 1236.93,99" style="fill:none;stroke:black;stroke-width:3" />
<circle cx="1246.89" cy="64.41" r="5" stroke-width="0" fill="#FF2A00" opacity="0.7" />
<path d="M1327.88,15.75c4.19,1.56,10.82,6.41,11.87,8.84" style="fill:none;stroke:#999;stroke-width:3" />
<path d="M1323.0,39.5c4.41,1.85,11.4,7.62,12.5,10.5" style="fill:none;stroke:#999;stroke-width:3" />
<path d="M1324.25,89.73c1.71,1.27,3.78,1.32,4.86-0.25c3.14-4.57,9.79-16.66,12.64-22.49" style="fill:none;stroke:#999;stroke-width:3" />
<path d="M1372.13,11.75c1.04,0.48,1.66,2.17,1.87,3.14s0,40.35-0.21,46.39" style="fill:none;stroke:#999;stroke-width:3" />
<path d="M1363.87,17.53c0.04,0.29-0.21,1.4-0.45,1.71c-3.21,4.09-5.7,7.17-13.01,10.43" style="fill:none;stroke:#999;stroke-width:3" />
<path d="M1348.1100000000001,27.68c0.92,0.73,1.29,2.36,1.52,3.86c0.83,5.47,2.41,16.12,3.25,23.52" style="fill:none;stroke:#999;stroke-width:3" />
<path d="M1350.73,39.27c3.82-0.33,12.53-2.13,13.44-2.13c0.91,0,2.18,0,2.91,0" style="fill:none;stroke:#999;stroke-width:3" />
<path d="M1352.98,53.02c3.47-0.33,11.38-1.63,12.2-1.63s1.98,0,2.64,0" style="fill:none;stroke:#999;stroke-width:3" />
<path d="M1380.98,22.93c0.83,0.16,1.49,0.49,2.64,0.49s11.54-1.98,12.86-2.14s2.41,0.82,2.31,1.81c-0.99,9.56-2.72,28.07-2.88,28.73" style="fill:none;stroke:#999;stroke-width:3" />
<path d="M1380.89,34.99c0.83,0.16,1.49,0.49,2.64,0.49s12.54-1.33,13.86-1.5" style="fill:none;stroke:#999;stroke-width:3" />
<path d="M1380.39,48.99c0.83,0.16,1.49,0.49,2.64,0.49s11.54-0.83,12.86-1" style="fill:none;stroke:#999;stroke-width:3" />
<path d="M1355.89,64.41c1.66,0.27,1.89,0.88,5.19,0.27c5.19-0.96,27.7-3.47,29.99-3.89c2.28-0.41,3.27,2.61,2.28,3.98C1381.52,81.38 1364.62,92.28 1345.93,99" style="fill:none;stroke:#999;stroke-width:3" />
<path d="M1359.72,71.3c5.85,0.14,22.93,16.11,36.49,22.48c2.11,0.99,3.65,1.65,5.62,1.98" style="fill:none;stroke:black;stroke-width:3" />
<circle cx="1359.72" cy="71.3" r="5" stroke-width="0" fill="#FF2A00" opacity="0.7" />
</svg>