<!-- 06efe -->
<svg width="1526px" height="109px" viewBox="0 0 1526px 109px" xmlns="http://www.w3.org/2000/svg" xmlns:xlink="http://www.w3.org/1999/xlink" xml:space="preserve" version="1.1"  baseProfile="full">
<line x1="1" y1="1" x2="1525" y2="1" style="stroke:#ddd;stroke-width:2" />
<line x1="1" y1="1" x2="1" y2="108" style="stroke:#ddd;stroke-width:2" />
<line x1="1" y1="108" x2="1525" y2="108" style="stroke:#ddd;stroke-width:2" />
<line x1="1525" y1="1" x2="1525" y2="108" style="stroke:#ddd;stroke-width:2" />
<line x1="109" y1="1" x2="109" y2="108" style="stroke:#ddd;stroke-width:2" />
<line x1="218" y1="1" x2="218" y2="108" style="stroke:#ddd;stroke-width:2" />
<line x1="327" y1="1" x2="327" y2="108" style="stroke:#ddd;stroke-width:2" />
<line x1="436" y1="1" x2="436" y2="108" style="stroke:#ddd;stroke-width:2" />
<line x1="545" y1="1" x2="545" y2="108" style="stroke:#ddd;stroke-width:2" />
<line x1="654" y1="1" x2="654" y2="108" style="stroke:#ddd;stroke-width:2" />
<line x1="763" y1="1" x2="763" y2="108" style="stroke:#ddd;stroke-width:2" />
<line x1="872" y1="1" x2="872" y2="108" style="stroke:#ddd;stroke-width:2" />
<line x1="981" y1="1" x2="981" y2="108" style="stroke:#ddd;stroke-width:2" />
<line x1="1090" y1="1" x2="1090" y2="108" style="stroke:#ddd;stroke-width:2" />
<line x1="1199" y1="1" x2="1199" y2="108" style="stroke:#ddd;stroke-width:2" />
<line x1="1308" y1="1" x2="1308" y2="108" style="stroke:#ddd;stroke-width:2" />
<line x1="1417" y1="1" x2="1417" y2="108" style="stroke:#ddd;stroke-width:2" />
<line x1="1" y1="54" x2="1525" y2="54" style="stroke:#ddd;stroke-width:2;stroke-dasharray:3 3" />
<line x1="55" y1="1" x2="55" y2="108" style="stroke:#ddd;stroke-width:2;stroke-dasharray:3 3" />
<line x1="164" y1="1" x2="164" y2="108" style="stroke:#ddd;stroke-width:2;stroke-dasharray:3 3" />
<line x1="273" y1="1" x2="273" y2="108" style="stroke:#ddd;stroke-width:2;stroke-dasharray:3 3" />
<line x1="382" y1="1" x2="382" y2="108" style="stroke:#ddd;stroke-width:2;stroke-dasharray:3 3" />
<line x1="491" y1="1" x2="491" y2="108" style="stroke:#ddd;stroke-width:2;stroke-dasharray:3 3" />
<line x1="600" y1="1" x2="600" y2="108" style="stroke:#ddd;stroke-width:2;stroke-dasharray:3 3" />
<line x1="709" y1="1" x2="709" y2="108" style="stroke:#ddd;stroke-width:2;stroke-dasharray:3 3" />
<line x1="818" y1="1" x2="818" y2="108" style="stroke:#ddd;stroke-width:2;stroke-dasharray:3 3" />
<line x1="927" y1="1" x2="927" y2="108" style="stroke:#ddd;stroke-width:2;stroke-dasharray:3 3" />
<line x1="1036" y1="1" x2="1036" y2="108" style="stroke:#ddd;stroke-width:2;stroke-dasharray:3 3" />
<line x1="1145" y1="1" x2="1145" y2="108" style="stroke:#ddd;stroke-width:2;stroke-dasharray:3 3" />
<line x1="1254" y1="1" x2="1254" y2="108" style="stroke:#ddd;stroke-width:2;stroke-dasharray:3 3" />
<line x1="1363" y1="1" x2="1363" y2="108" style="stroke:#ddd;stroke-width:2;stroke-dasharray:3 3" />
<line x1="1472" y1="1" x2="1472" y2="108" style="stroke:#ddd;stroke-width:2;stroke-dasharray:3 3" />
<path d="M18.63,16c4.45,1.78,11.5,7.32,12.62,10.09" style="fill:none;stroke:black;stroke-width:3" />
<circle cx="18.63" cy="16.0" r="5" stroke-width="0" fill="#FF2A00" opacity="0.7" />
<path d="M127.63,16c4.45,1.78,11.5,7.32,12.62,10.09" style="fill:none;stroke:#999;stroke-width:3" />
<path d="M124.0,42.5c4.77,1.85,12.31,7.62,13.5,10.5" style="fill:none;stroke:black;stroke-width:3" />
<circle cx="124.0" cy="42.5" r="5" stroke-width="0" fill="#FF2A00" opacity="0.7" />
<path d="M236.63,16c4.45,1.78,11.5,7.32,12.62,10.09" style="fill:none;stroke:#999;stroke-width:3" />
<path d="M233.0,42.5c4.77,1.85,12.31,7.62,13.5,10.5" style="fill:none;stroke:#999;stroke-width:3" />
<path d="M235.75,90.23c1.71,1.27,3.78,1.32,4.86-0.25c3.14-4.57,6.29-10.16,9.14-15.99" style="fill:none;stroke:black;stroke-width:3" />
<circle cx="235.75" cy="90.23" r="5" stroke-width="0" fill="#FF2A00" opacity="0.7" />
<path d="M345.63,16c4.45,1.78,11.5,7.32,12.62,10.09" style="fill:none;stroke:#999;stroke-width:3" />
<path d="M342.0,42.5c4.77,1.85,12.31,7.62,13.5,10.5" style="fill:none;stroke:#999;stroke-width:3" />
<path d="M344.75,90.23c1.71,1.27,3.78,1.32,4.86-0.25c3.14-4.57,6.29-10.16,9.14-15.99" style="fill:none;stroke:#999;stroke-width:3" />
<path d="M390.14,11.35c0.83,0.57,2.21,2.79,2.21,3.93c0,4.21-0.26,4.42-0.11,7.98" style="fill:none;stroke:black;stroke-width:3" />
<circle cx="390.14" cy="11.35" r="5" stroke-width="0" fill="#FF2A00" opacity="0.7" />
<path d="M454.63,16c4.45,1.78,11.5,7.32,12.62,10.09" style="fill:none;stroke:#999;stroke-width:3" />
<path d="M451.0,42.5c4.77,1.85,12.31,7.62,13.5,10.5" style="fill:none;stroke:#999;stroke-width:3" />
<path d="M453.75,90.23c1.71,1.27,3.78,1.32,4.86-0.25c3.14-4.57,6.29-10.16,9.14-15.99" style="fill:none;stroke:#999;stroke-width:3" />
<path d="M499.14,11.35c0.83,0.57,2.21,2.79,2.21,3.93c0,4.21-0.26,4.42-0.11,7.98" style="fill:none;stroke:#999;stroke-width:3" />
<path d="M476.11,24.74c1.29,0.12,4.22,0.8,5.47,0.63c10.1-1.33,29.57-2.64,43.29-2.98c2.12-0.05,3.2,0.05,4.78,0.81" style="fill:none;stroke:black;stroke-width:3" />
<circle cx="476.11" cy="24.74" r="5" stroke-width="0" fill="#FF2A00" opacity="0.7" />
<path d="M563.63,16c4.45,1.78,11.5,7.32,12.62,10.09" style="fill:none;stroke:#999;stroke-width:3" />
<path d="M560.0,42.5c4.77,1.85,12.31,7.62,13.5,10.5" style="fill:none;stroke:#999;stroke-width:3" />
<path d="M562.75,90.23c1.71,1.27,3.78,1.32,4.86-0.25c3.14-4.57,6.29-10.16,9.14-15.99" style="fill:none;stroke:#999;stroke-width:3" />
<path d="M608.14,11.35c0.83,0.57,2.21,2.79,2.21,3.93c0,4.21-0.26,4.42-0.11,7.98" style="fill:none;stroke:#999;stroke-width:3" />
<path d="M585.11,24.74c1.29,0.12,4.22,0.8,5.47,0.63c10.1-1.33,29.57-2.64,43.29-2.98c2.12-0.05,3.2,0.05,4.78,0.81" style="fill:none;stroke:#999;stroke-width:3" />
<path d="M599.69,29.39c0.04,0.32,0.09,0.83-0.08,1.28c-1,2.71-6.74,8.65-14.6,12.29" style="fill:none;stroke:black;stroke-width:3" />
<circle cx="599.69" cy="29.39" r="5" stroke-width="0" fill="#FF2A00" opacity="0.7" />
<path d="M672.63,16c4.45,1.78,11.5,7.32,12.62,10.09" style="fill:none;stroke:#999;stroke-width:3" />
<path d="M669.0,42.5c4.77,1.85,12.31,7.62,13.5,10.5" style="fill:none;stroke:#999;stroke-width:3" />
<path d="M671.75,90.23c1.71,1.27,3.78,1.32,4.86-0.25c3.14-4.57,6.29-10.16,9.14-15.99" style="fill:none;stroke:#999;stroke-width:3" />
<path d="M717.14,11.35c0.83,0.57,2.21,2.79,2.21,3.93c0,4.21-0.26,4.42-0.11,7.98" style="fill:none;stroke:#999;stroke-width:3" />
<path d="M694.11,24.74c1.29,0.12,4.22,0.8,5.47,0.63c10.1-1.33,29.57-2.64,43.29-2.98c2.12-0.05,3.2,0.05,4.78,0.81" style="fill:none;stroke:#999;stroke-width:3" />
<path d="M708.69,29.39c0.04,0.32,0.09,0.83-0.08,1.28c-1,2.71-6.74,8.65-14.6,12.29" style="fill:none;stroke:#999;stroke-width:3" />
<path d="M728.44,28.33c6.26,2.19,16.17,8.98,17.74,12.38" style="fill:none;stroke:black;stroke-width:3" />
<circle cx="728.44" cy="28.33" r="5" stroke-width="0" fill="#FF2A00" opacity="0.7" />
<path d="M781.63,16c4.45,1.78,11.5,7.32,12.62,10.09" style="fill:none;stroke:#999;stroke-width:3" />
<path d="M778.0,42.5c4.77,1.85,12.31,7.62,13.5,10.5" style="fill:none;stroke:#999;stroke-width:3" />
<path d="M780.75,90.23c1.71,1.27,3.78,1.32,4.86-0.25c3.14-4.57,6.29-10.16,9.14-15.99" style="fill:none;stroke:#999;stroke-width:3" />
<path d="M826.14,11.35c0.83,0.57,2.21,2.79,2.21,3.93c0,4.21-0.26,4.42-0.11,7.98" style="fill:none;stroke:#999;stroke-width:3" />
<path d="M803.11,24.74c1.29,0.12,4.22,0.8,5.47,0.63c10.1-1.33,29.57-2.64,43.29-2.98c2.12-0.05,3.2,0.05,4.78,0.81" style="fill:none;stroke:#999;stroke-width:3" />
<path d="M817.69,29.39c0.04,0.32,0.09,0.83-0.08,1.28c-1,2.71-6.74,8.65-14.6,12.29" style="fill:none;stroke:#999;stroke-width:3" />
<path d="M837.44,28.33c6.26,2.19,16.17,8.98,17.74,12.38" style="fill:none;stroke:#999;stroke-width:3" />
<path d="M812.74,42.47c0.32,0.29,0.66,0.54,0.8,0.91c1.13,2.91,2.06,10.37,2.83,15.59" style="fill:none;stroke:black;stroke-width:3" />
<circle cx="812.74" cy="42.47" r="5" stroke-width="0" fill="#FF2A00" opacity="0.7" />
<path d="M890.63,16c4.45,1.78,11.5,7.32,12.62,10.09" style="fill:none;stroke:#999;stroke-width:3" />
<path d="M887.0,42.5c4.77,1.85,12.31,7.62,13.5,10.5" style="fill:none;stroke:#999;stroke-width:3" />
<path d="M889.75,90.23c1.71,1.27,3.78,1.32,4.86-0.25c3.14-4.57,6.29-10.16,9.14-15.99" style="fill:none;stroke:#999;stroke-width:3" />
<path d="M935.14,11.35c0.83,0.57,2.21,2.79,2.21,3.93c0,4.21-0.26,4.42-0.11,7.98" style="fill:none;stroke:#999;stroke-width:3" />
<path d="M912.11,24.74c1.29,0.12,4.22,0.8,5.47,0.63c10.1-1.33,29.57-2.64,43.29-2.98c2.12-0.05,3.2,0.05,4.78,0.81" style="fill:none;stroke:#999;stroke-width:3" />
<path d="M926.69,29.39c0.04,0.32,0.09,0.83-0.08,1.28c-1,2.71-6.74,8.65-14.6,12.29" style="fill:none;stroke:#999;stroke-width:3" />
<path d="M946.44,28.33c6.26,2.19,16.17,8.98,17.74,12.38" style="fill:none;stroke:#999;stroke-width:3" />
<path d="M921.74,42.47c0.32,0.29,0.66,0.54,0.8,0.91c1.13,2.91,2.06,10.37,2.83,15.59" style="fill:none;stroke:#999;stroke-width:3" />
<path d="M923.76,43.46c7.95-1.22,22.95-2.79,27.05-3.2c1.5-0.15,2.9,2.02,2.68,2.9c-0.89,3.66-1.57,5.54-3.05,11.67" style="fill:none;stroke:black;stroke-width:3" />
<circle cx="923.76" cy="43.46" r="5" stroke-width="0" fill="#FF2A00" opacity="0.7" />
<path d="M999.63,16c4.45,1.78,11.5,7.32,12.62,10.09" style="fill:none;stroke:#999;stroke-width:3" />
<path d="M996.0,42.5c4.77,1.85,12.31,7.62,13.5,10.5" style="fill:none;stroke:#999;stroke-width:3" />
<path d="M998.75,90.23c1.71,1.27,3.78,1.32,4.86-0.25c3.14-4.57,6.29-10.16,9.14-15.99" style="fill:none;stroke:#999;stroke-width:3" />
<path d="M1044.1399999999999,11.35c0.83,0.57,2.21,2.79,2.21,3.93c0,4.21-0.26,4.42-0.11,7.98" style="fill:none;stroke:#999;stroke-width:3" />
<path d="M1021.11,24.74c1.29,0.12,4.22,0.8,5.47,0.63c10.1-1.33,29.57-2.64,43.29-2.98c2.12-0.05,3.2,0.05,4.78,0.81" style="fill:none;stroke:#999;stroke-width:3" />
<path d="M1035.69,29.39c0.04,0.32,0.09,0.83-0.08,1.28c-1,2.71-6.74,8.65-14.6,12.29" style="fill:none;stroke:#999;stroke-width:3" />
<path d="M1055.44,28.33c6.26,2.19,16.17,8.98,17.74,12.38" style="fill:none;stroke:#999;stroke-width:3" />
<path d="M1030.74,42.47c0.32,0.29,0.66,0.54,0.8,0.91c1.13,2.91,2.06,10.37,2.83,15.59" style="fill:none;stroke:#999;stroke-width:3" />
<path d="M1032.76,43.46c7.95-1.22,22.95-2.79,27.05-3.2c1.5-0.15,2.9,2.02,2.68,2.9c-0.89,3.66-1.57,5.54-3.05,11.67" style="fill:none;stroke:#999;stroke-width:3" />
<path d="M1035.1,57.11c4.81-0.46,20.1-1.35,26.21-1.82" style="fill:none;stroke:black;stroke-width:3" />
<circle cx="1035.1" cy="57.11" r="5" stroke-width="0" fill="#FF2A00" opacity="0.7" />
<path d="M1108.63,16c4.45,1.78,11.5,7.32,12.62,10.09" style="fill:none;stroke:#999;stroke-width:3" />
<path d="M1105.0,42.5c4.77,1.85,12.31,7.62,13.5,10.5" style="fill:none;stroke:#999;stroke-width:3" />
<path d="M1107.75,90.23c1.71,1.27,3.78,1.32,4.86-0.25c3.14-4.57,6.29-10.16,9.14-15.99" style="fill:none;stroke:#999;stroke-width:3" />
<path d="M1153.1399999999999,11.35c0.83,0.57,2.21,2.79,2.21,3.93c0,4.21-0.26,4.42-0.11,7.98" style="fill:none;stroke:#999;stroke-width:3" />
<path d="M1130.1100000000001,24.74c1.29,0.12,4.22,0.8,5.47,0.63c10.1-1.33,29.57-2.64,43.29-2.98c2.12-0.05,3.2,0.05,4.78,0.81" style="fill:none;stroke:#999;stroke-width:3" />
<path d="M1144.69,29.39c0.04,0.32,0.09,0.83-0.08,1.28c-1,2.71-6.74,8.65-14.6,12.29" style="fill:none;stroke:#999;stroke-width:3" />
<path d="M1164.44,28.33c6.26,2.19,16.17,8.98,17.74,12.38" style="fill:none;stroke:#999;stroke-width:3" />
<path d="M1139.74,42.47c0.32,0.29,0.66,0.54,0.8,0.91c1.13,2.91,2.06,10.37,2.83,15.59" style="fill:none;stroke:#999;stroke-width:3" />
<path d="M1141.76,43.46c7.95-1.22,22.95-2.79,27.05-3.2c1.5-0.15,2.9,2.02,2.68,2.9c-0.89,3.66-1.57,5.54-3.05,11.67" style="fill:none;stroke:#999;stroke-width:3" />
<path d="M1144.1,57.11c4.81-0.46,20.1-1.35,26.21-1.82" style="fill:none;stroke:#999;stroke-width:3" />
<path d="M1152.53,58.41c0.08,0.56-0.08,2.08-0.65,2.75C1147.75,66 1140.0,75 1125.56,82.17" style="fill:none;stroke:black;stroke-width:3" />
<circle cx="1152.53" cy="58.41" r="5" stroke-width="0" fill="#FF2A00" opacity="0.7" />
<path d="M1217.63,16c4.45,1.78,11.5,7.32,12.62,10.09" style="fill:none;stroke:#999;stroke-width:3" />
<path d="M1214.0,42.5c4.77,1.85,12.31,7.62,13.5,10.5" style="fill:none;stroke:#999;stroke-width:3" />
<path d="M1216.75,90.23c1.71,1.27,3.78,1.32,4.86-0.25c3.14-4.57,6.29-10.16,9.14-15.99" style="fill:none;stroke:#999;stroke-width:3" />
<path d="M1262.1399999999999,11.35c0.83,0.57,2.21,2.79,2.21,3.93c0,4.21-0.26,4.42-0.11,7.98" style="fill:none;stroke:#999;stroke-width:3" />
<path d="M1239.1100000000001,24.74c1.29,0.12,4.22,0.8,5.47,0.63c10.1-1.33,29.57-2.64,43.29-2.98c2.12-0.05,3.2,0.05,4.78,0.81" style="fill:none;stroke:#999;stroke-width:3" />
<path d="M1253.69,29.39c0.04,0.32,0.09,0.83-0.08,1.28c-1,2.71-6.74,8.65-14.6,12.29" style="fill:none;stroke:#999;stroke-width:3" />
<path d="M1273.44,28.33c6.26,2.19,16.17,8.98,17.74,12.38" style="fill:none;stroke:#999;stroke-width:3" />
<path d="M1248.74,42.47c0.32,0.29,0.66,0.54,0.8,0.91c1.13,2.91,2.06,10.37,2.83,15.59" style="fill:none;stroke:#999;stroke-width:3" />
<path d="M1250.76,43.46c7.95-1.22,22.95-2.79,27.05-3.2c1.5-0.15,2.9,2.02,2.68,2.9c-0.89,3.66-1.57,5.54-3.05,11.67" style="fill:none;stroke:#999;stroke-width:3" />
<path d="M1253.1,57.11c4.81-0.46,20.1-1.35,26.21-1.82" style="fill:none;stroke:#999;stroke-width:3" />
<path d="M1261.53,58.41c0.08,0.56-0.08,2.08-0.65,2.75C1256.75,66 1249.0,75 1234.56,82.17" style="fill:none;stroke:#999;stroke-width:3" />
<path d="M1252.12,74.75c0.38,0.46,0.79,0.9,0.78,1.7c-0.02,10.04-0.75,15.88-0.75,17.58c0,1.7,1.93,2.17,3.1,0.89c1.18-1.27,13.26-10.07,14.83-11.34" style="fill:none;stroke:black;stroke-width:3" />
<circle cx="1252.12" cy="74.75" r="5" stroke-width="0" fill="#FF2A00" opacity="0.7" />
<path d="M1326.63,16c4.45,1.78,11.5,7.32,12.62,10.09" style="fill:none;stroke:#999;stroke-width:3" />
<path d="M1323.0,42.5c4.77,1.85,12.31,7.62,13.5,10.5" style="fill:none;stroke:#999;stroke-width:3" />
<path d="M1325.75,90.23c1.71,1.27,3.78,1.32,4.86-0.25c3.14-4.57,6.29-10.16,9.14-15.99" style="fill:none;stroke:#999;stroke-width:3" />
<path d="M1371.1399999999999,11.35c0.83,0.57,2.21,2.79,2.21,3.93c0,4.21-0.26,4.42-0.11,7.98" style="fill:none;stroke:#999;stroke-width:3" />
<path d="M1348.1100000000001,24.74c1.29,0.12,4.22,0.8,5.47,0.63c10.1-1.33,29.57-2.64,43.29-2.98c2.12-0.05,3.2,0.05,4.78,0.81" style="fill:none;stroke:#999;stroke-width:3" />
<path d="M1362.69,29.39c0.04,0.32,0.09,0.83-0.08,1.28c-1,2.71-6.74,8.65-14.6,12.29" style="fill:none;stroke:#999;stroke-width:3" />
<path d="M1382.44,28.33c6.26,2.19,16.17,8.98,17.74,12.38" style="fill:none;stroke:#999;stroke-width:3" />
<path d="M1357.74,42.47c0.32,0.29,0.66,0.54,0.8,0.91c1.13,2.91,2.06,10.37,2.83,15.59" style="fill:none;stroke:#999;stroke-width:3" />
<path d="M1359.76,43.46c7.95-1.22,22.95-2.79,27.05-3.2c1.5-0.15,2.9,2.02,2.68,2.9c-0.89,3.66-1.57,5.54-3.05,11.67" style="fill:none;stroke:#999;stroke-width:3" />
<path d="M1362.1,57.11c4.81-0.46,20.1-1.35,26.21-1.82" style="fill:none;stroke:#999;stroke-width:3" />
<path d="M1370.53,58.41c0.08,0.56-0.08,2.08-0.65,2.75C1365.75,66 1358.0,75 1343.56,82.17" style="fill:none;stroke:#999;stroke-width:3" />
<path d="M1361.12,74.75c0.38,0.46,0.79,0.9,0.78,1.7c-0.02,10.04-0.75,15.88-0.75,17.58c0,1.7,1.93,2.17,3.1,0.89c1.18-1.27,13.26-10.07,14.83-11.34" style="fill:none;stroke:#999;stroke-width:3" />
<path d="M1393.2,62.39c0.03,0.27,0.3,1.3,0.13,1.65c-1.05,2.22-4.34,5.4-9.69,9.82" style="fill:none;stroke:black;stroke-width:3" />
<circle cx="1393.2" cy="62.39" r="5" stroke-width="0" fill="#FF2A00" opacity="0.7" />
<path d="M1435.63,16c4.45,1.78,11.5,7.32,12.62,10.09" style="fill:none;stroke:#999;stroke-width:3" />
<path d="M1432.0,42.5c4.77,1.85,12.31,7.62,13.5,10.5" style="fill:none;stroke:#999;stroke-width:3" />
<path d="M1434.75,90.23c1.71,1.27,3.78,1.32,4.86-0.25c3.14-4.57,6.29-10.16,9.14-15.99" style="fill:none;stroke:#999;stroke-width:3" />
<path d="M1480.1399999999999,11.35c0.83,0.57,2.21,2.79,2.21,3.93c0,4.21-0.26,4.42-0.11,7.98" style="fill:none;stroke:#999;stroke-width:3" />
<path d="M1457.1100000000001,24.74c1.29,0.12,4.22,0.8,5.47,0.63c10.1-1.33,29.57-2.64,43.29-2.98c2.12-0.05,3.2,0.05,4.78,0.81" style="fill:none;stroke:#999;stroke-width:3" />
<path d="M1471.69,29.39c0.04,0.32,0.09,0.83-0.08,1.28c-1,2.71-6.74,8.65-14.6,12.29" style="fill:none;stroke:#999;stroke-width:3" />
<path d="M1491.44,28.33c6.26,2.19,16.17,8.98,17.74,12.38" style="fill:none;stroke:#999;stroke-width:3" />
<path d="M1466.74,42.47c0.32,0.29,0.66,0.54,0.8,0.91c1.13,2.91,2.06,10.37,2.83,15.59" style="fill:none;stroke:#999;stroke-width:3" />
<path d="M1468.76,43.46c7.95-1.22,22.95-2.79,27.05-3.2c1.5-0.15,2.9,2.02,2.68,2.9c-0.89,3.66-1.57,5.54-3.05,11.67" style="fill:none;stroke:#999;stroke-width:3" />
<path d="M1471.1,57.11c4.81-0.46,20.1-1.35,26.21-1.82" style="fill:none;stroke:#999;stroke-width:3" />
<path d="M1479.53,58.41c0.08,0.56-0.08,2.08-0.65,2.75C1474.75,66 1467.0,75 1452.56,82.17" style="fill:none;stroke:#999;stroke-width:3" />
<path d="M1470.12,74.75c0.38,0.46,0.79,0.9,0.78,1.7c-0.02,10.04-0.75,15.88-0.75,17.58c0,1.7,1.93,2.17,3.1,0.89c1.18-1.27,13.26-10.07,14.83-11.34" style="fill:none;stroke:#999;stroke-width:3" />
<path d="M1502.2,62.39c0.03,0.27,0.3,1.3,0.13,1.65c-1.05,2.22-4.34,5.4-9.69,9.82" style="fill:none;stroke:#999;stroke-width:3" />
<path d="M1481.99,63.08c5.64,6.2,19.94,21.21,23.95,24.61c1.51,1.28,2.8,1.83,4.31,2.2" style="fill:none;stroke:black;stroke-width:3" />
<circle cx="1481.99" cy="63.08" r="5" stroke-width="0" fill="#FF2A00" opacity="0.7" />
</svg>