<!-- 06f45 -->
<svg width="1526px" height="109px" viewBox="0 0 1526px 109px" xmlns="http://www.w3.org/2000/svg" xmlns:xlink="http://www.w3.org/1999/xlink" xml:space="preserve" version="1.1"  baseProfile="full">
<line x1="1" y1="1" x2="1525" y2="1" style="stroke:#ddd;stroke-width:2" />
<line x1="1" y1="1" x2="1" y2="108" style="stroke:#ddd;stroke-width:2" />
<line x1="1" y1="108" x2="1525" y2="108" style="stroke:#ddd;stroke-width:2" />
<line x1="1525" y1="1" x2="1525" y2="108" style="stroke:#ddd;stroke-width:2" />
<line x1="109" y1="1" x2="109" y2="108" style="stroke:#ddd;stroke-width:2" />
<line x1="218" y1="1" x2="218" y2="108" style="stroke:#ddd;stroke-width:2" />
<line x1="327" y1="1" x2="327" y2="108" style="stroke:#ddd;stroke-width:2" />
<line x1="436" y1="1" x2="436" y2="108" style="stroke:#ddd;stroke-width:2" />
<line x1="545" y1="1" x2="545" y2="108" style="stroke:#ddd;stroke-width:2" />
<line x1="654" y1="1" x2="654" y2="108" style="stroke:#ddd;stroke-width:2" />
<line x1="763" y1="1" x2="763" y2="108" style="stroke:#ddd;stroke-width:2" />
<line x1="872" y1="1" x2="872" y2="108" style="stroke:#ddd;stroke-width:2" />
<line x1="981" y1="1" x2="981" y2="108" style="stroke:#ddd;stroke-width:2" />
<line x1="1090" y1="1" x2="1090" y2="108" style="stroke:#ddd;stroke-width:2" />
<line x1="1199" y1="1" x2="1199" y2="108" style="stroke:#ddd;stroke-width:2" />
<line x1="1308" y1="1" x2="1308" y2="108" style="stroke:#ddd;stroke-width:2" />
<line x1="1417" y1="1" x2="1417" y2="108" style="stroke:#ddd;stroke-width:2" />
<line x1="1" y1="54" x2="1525" y2="54" style="stroke:#ddd;stroke-width:2;stroke-dasharray:3 3" />
<line x1="55" y1="1" x2="55" y2="108" style="stroke:#ddd;stroke-width:2;stroke-dasharray:3 3" />
<line x1="164" y1="1" x2="164" y2="108" style="stroke:#ddd;stroke-width:2;stroke-dasharray:3 3" />
<line x1="273" y1="1" x2="273" y2="108" style="stroke:#ddd;stroke-width:2;stroke-dasharray:3 3" />
<line x1="382" y1="1" x2="382" y2="108" style="stroke:#ddd;stroke-width:2;stroke-dasharray:3 3" />
<line x1="491" y1="1" x2="491" y2="108" style="stroke:#ddd;stroke-width:2;stroke-dasharray:3 3" />
<line x1="600" y1="1" x2="600" y2="108" style="stroke:#ddd;stroke-width:2;stroke-dasharray:3 3" />
<line x1="709" y1="1" x2="709" y2="108" style="stroke:#ddd;stroke-width:2;stroke-dasharray:3 3" />
<line x1="818" y1="1" x2="818" y2="108" style="stroke:#ddd;stroke-width:2;stroke-dasharray:3 3" />
<line x1="927" y1="1" x2="927" y2="108" style="stroke:#ddd;stroke-width:2;stroke-dasharray:3 3" />
<line x1="1036" y1="1" x2="1036" y2="108" style="stroke:#ddd;stroke-width:2;stroke-dasharray:3 3" />
<line x1="1145" y1="1" x2="1145" y2="108" style="stroke:#ddd;stroke-width:2;stroke-dasharray:3 3" />
<line x1="1254" y1="1" x2="1254" y2="108" style="stroke:#ddd;stroke-width:2;stroke-dasharray:3 3" />
<line x1="1363" y1="1" x2="1363" y2="108" style="stroke:#ddd;stroke-width:2;stroke-dasharray:3 3" />
<line x1="1472" y1="1" x2="1472" y2="108" style="stroke:#ddd;stroke-width:2;stroke-dasharray:3 3" />
<path d="M16.63,17.75c4.81,1.47,12.41,6.05,13.62,8.34" style="fill:none;stroke:black;stroke-width:3" />
<circle cx="16.63" cy="17.75" r="5" stroke-width="0" fill="#FF2A00" opacity="0.7" />
<path d="M125.63,17.75c4.81,1.47,12.41,6.05,13.62,8.34" style="fill:none;stroke:#999;stroke-width:3" />
<path d="M122.5,44.25c4.77,1.37,11,4.88,13.5,8.25" style="fill:none;stroke:black;stroke-width:3" />
<circle cx="122.5" cy="44.25" r="5" stroke-width="0" fill="#FF2A00" opacity="0.7" />
<path d="M234.63,17.75c4.81,1.47,12.41,6.05,13.62,8.34" style="fill:none;stroke:#999;stroke-width:3" />
<path d="M231.5,44.25c4.77,1.37,11,4.88,13.5,8.25" style="fill:none;stroke:#999;stroke-width:3" />
<path d="M233.75,92.54c2,0.46,3.51-0.41,4.51-2.3c2.92-5.5,5.34-11.73,7.99-18.75" style="fill:none;stroke:black;stroke-width:3" />
<circle cx="233.75" cy="92.54" r="5" stroke-width="0" fill="#FF2A00" opacity="0.7" />
<path d="M343.63,17.75c4.81,1.47,12.41,6.05,13.62,8.34" style="fill:none;stroke:#999;stroke-width:3" />
<path d="M340.5,44.25c4.77,1.37,11,4.88,13.5,8.25" style="fill:none;stroke:#999;stroke-width:3" />
<path d="M342.75,92.54c2,0.46,3.51-0.41,4.51-2.3c2.92-5.5,5.34-11.73,7.99-18.75" style="fill:none;stroke:#999;stroke-width:3" />
<path d="M383.53,13.75c0,1.38-0.54,2.38-1.02,3.27c-3.07,5.64-6.97,10.41-14.01,17.27" style="fill:none;stroke:black;stroke-width:3" />
<circle cx="383.53" cy="13.75" r="5" stroke-width="0" fill="#FF2A00" opacity="0.7" />
<path d="M452.63,17.75c4.81,1.47,12.41,6.05,13.62,8.34" style="fill:none;stroke:#999;stroke-width:3" />
<path d="M449.5,44.25c4.77,1.37,11,4.88,13.5,8.25" style="fill:none;stroke:#999;stroke-width:3" />
<path d="M451.75,92.54c2,0.46,3.51-0.41,4.51-2.3c2.92-5.5,5.34-11.73,7.99-18.75" style="fill:none;stroke:#999;stroke-width:3" />
<path d="M492.53,13.75c0,1.38-0.54,2.38-1.02,3.27c-3.07,5.64-6.97,10.41-14.01,17.27" style="fill:none;stroke:#999;stroke-width:3" />
<path d="M492.0,22.64c1.54,0.16,3.74,0.01,6.27-0.3c5.7-0.72,12.6-2.21,18.23-3.07c2.12-0.32,4.12-0.39,6.25,0" style="fill:none;stroke:black;stroke-width:3" />
<circle cx="492.0" cy="22.64" r="5" stroke-width="0" fill="#FF2A00" opacity="0.7" />
<path d="M561.63,17.75c4.81,1.47,12.41,6.05,13.62,8.34" style="fill:none;stroke:#999;stroke-width:3" />
<path d="M558.5,44.25c4.77,1.37,11,4.88,13.5,8.25" style="fill:none;stroke:#999;stroke-width:3" />
<path d="M560.75,92.54c2,0.46,3.51-0.41,4.51-2.3c2.92-5.5,5.34-11.73,7.99-18.75" style="fill:none;stroke:#999;stroke-width:3" />
<path d="M601.53,13.75c0,1.38-0.54,2.38-1.02,3.27c-3.07,5.64-6.97,10.41-14.01,17.27" style="fill:none;stroke:#999;stroke-width:3" />
<path d="M601.0,22.64c1.54,0.16,3.74,0.01,6.27-0.3c5.7-0.72,12.6-2.21,18.23-3.07c2.12-0.32,4.12-0.39,6.25,0" style="fill:none;stroke:#999;stroke-width:3" />
<path d="M584.75,40.39c2.72,0.55,5.43,0.51,8.15-0.12c9.71-1.26,29.32-4.25,39.86-5.25c2.93-0.32,5.85-0.23,8.75,0.25" style="fill:none;stroke:black;stroke-width:3" />
<circle cx="584.75" cy="40.39" r="5" stroke-width="0" fill="#FF2A00" opacity="0.7" />
<path d="M670.63,17.75c4.81,1.47,12.41,6.05,13.62,8.34" style="fill:none;stroke:#999;stroke-width:3" />
<path d="M667.5,44.25c4.77,1.37,11,4.88,13.5,8.25" style="fill:none;stroke:#999;stroke-width:3" />
<path d="M669.75,92.54c2,0.46,3.51-0.41,4.51-2.3c2.92-5.5,5.34-11.73,7.99-18.75" style="fill:none;stroke:#999;stroke-width:3" />
<path d="M710.53,13.75c0,1.38-0.54,2.38-1.02,3.27c-3.07,5.64-6.97,10.41-14.01,17.27" style="fill:none;stroke:#999;stroke-width:3" />
<path d="M710.0,22.64c1.54,0.16,3.74,0.01,6.27-0.3c5.7-0.72,12.6-2.21,18.23-3.07c2.12-0.32,4.12-0.39,6.25,0" style="fill:none;stroke:#999;stroke-width:3" />
<path d="M693.75,40.39c2.72,0.55,5.43,0.51,8.15-0.12c9.71-1.26,29.32-4.25,39.86-5.25c2.93-0.32,5.85-0.23,8.75,0.25" style="fill:none;stroke:#999;stroke-width:3" />
<path d="M715.32,26.18c0,1.57-0.32,2.7-0.93,4.24C709.16,43.62 703.5,57.25 689.5,70.09" style="fill:none;stroke:black;stroke-width:3" />
<circle cx="715.32" cy="26.18" r="5" stroke-width="0" fill="#FF2A00" opacity="0.7" />
<path d="M779.63,17.75c4.81,1.47,12.41,6.05,13.62,8.34" style="fill:none;stroke:#999;stroke-width:3" />
<path d="M776.5,44.25c4.77,1.37,11,4.88,13.5,8.25" style="fill:none;stroke:#999;stroke-width:3" />
<path d="M778.75,92.54c2,0.46,3.51-0.41,4.51-2.3c2.92-5.5,5.34-11.73,7.99-18.75" style="fill:none;stroke:#999;stroke-width:3" />
<path d="M819.53,13.75c0,1.38-0.54,2.38-1.02,3.27c-3.07,5.64-6.97,10.41-14.01,17.27" style="fill:none;stroke:#999;stroke-width:3" />
<path d="M819.0,22.64c1.54,0.16,3.74,0.01,6.27-0.3c5.7-0.72,12.6-2.21,18.23-3.07c2.12-0.32,4.12-0.39,6.25,0" style="fill:none;stroke:#999;stroke-width:3" />
<path d="M802.75,40.39c2.72,0.55,5.43,0.51,8.15-0.12c9.71-1.26,29.32-4.25,39.86-5.25c2.93-0.32,5.85-0.23,8.75,0.25" style="fill:none;stroke:#999;stroke-width:3" />
<path d="M824.32,26.18c0,1.57-0.32,2.7-0.93,4.24C818.16,43.62 812.5,57.25 798.5,70.09" style="fill:none;stroke:#999;stroke-width:3" />
<path d="M814.9,54.13c0.8,0.8,1,1.65,1,3c0,7.45-0.01,22.7-0.02,32.5c0,3.82,0,6.81,0,8.2" style="fill:none;stroke:black;stroke-width:3" />
<circle cx="814.9" cy="54.13" r="5" stroke-width="0" fill="#FF2A00" opacity="0.7" />
<path d="M888.63,17.75c4.81,1.47,12.41,6.05,13.62,8.34" style="fill:none;stroke:#999;stroke-width:3" />
<path d="M885.5,44.25c4.77,1.37,11,4.88,13.5,8.25" style="fill:none;stroke:#999;stroke-width:3" />
<path d="M887.75,92.54c2,0.46,3.51-0.41,4.51-2.3c2.92-5.5,5.34-11.73,7.99-18.75" style="fill:none;stroke:#999;stroke-width:3" />
<path d="M928.53,13.75c0,1.38-0.54,2.38-1.02,3.27c-3.07,5.64-6.97,10.41-14.01,17.27" style="fill:none;stroke:#999;stroke-width:3" />
<path d="M928.0,22.64c1.54,0.16,3.74,0.01,6.27-0.3c5.7-0.72,12.6-2.21,18.23-3.07c2.12-0.32,4.12-0.39,6.25,0" style="fill:none;stroke:#999;stroke-width:3" />
<path d="M911.75,40.39c2.72,0.55,5.43,0.51,8.15-0.12c9.71-1.26,29.32-4.25,39.86-5.25c2.93-0.32,5.85-0.23,8.75,0.25" style="fill:none;stroke:#999;stroke-width:3" />
<path d="M933.32,26.18c0,1.57-0.32,2.7-0.93,4.24C927.16,43.62 921.5,57.25 907.5,70.09" style="fill:none;stroke:#999;stroke-width:3" />
<path d="M923.9,54.13c0.8,0.8,1,1.65,1,3c0,7.45-0.01,22.7-0.02,32.5c0,3.82,0,6.81,0,8.2" style="fill:none;stroke:#999;stroke-width:3" />
<path d="M947.45,39.93c0.06,0.8-0.07,1.55-0.37,2.27c-0.96,2.67-2.58,5.3-4.58,7.95" style="fill:none;stroke:black;stroke-width:3" />
<circle cx="947.45" cy="39.93" r="5" stroke-width="0" fill="#FF2A00" opacity="0.7" />
<path d="M997.63,17.75c4.81,1.47,12.41,6.05,13.62,8.34" style="fill:none;stroke:#999;stroke-width:3" />
<path d="M994.5,44.25c4.77,1.37,11,4.88,13.5,8.25" style="fill:none;stroke:#999;stroke-width:3" />
<path d="M996.75,92.54c2,0.46,3.51-0.41,4.51-2.3c2.92-5.5,5.34-11.73,7.99-18.75" style="fill:none;stroke:#999;stroke-width:3" />
<path d="M1037.53,13.75c0,1.38-0.54,2.38-1.02,3.27c-3.07,5.64-6.97,10.41-14.01,17.27" style="fill:none;stroke:#999;stroke-width:3" />
<path d="M1037.0,22.64c1.54,0.16,3.74,0.01,6.27-0.3c5.7-0.72,12.6-2.21,18.23-3.07c2.12-0.32,4.12-0.39,6.25,0" style="fill:none;stroke:#999;stroke-width:3" />
<path d="M1020.75,40.39c2.72,0.55,5.43,0.51,8.15-0.12c9.71-1.26,29.32-4.25,39.86-5.25c2.93-0.32,5.85-0.23,8.75,0.25" style="fill:none;stroke:#999;stroke-width:3" />
<path d="M1042.3200000000002,26.18c0,1.57-0.32,2.7-0.93,4.24C1036.1599999999999,43.62 1030.5,57.25 1016.5,70.09" style="fill:none;stroke:#999;stroke-width:3" />
<path d="M1032.9,54.13c0.8,0.8,1,1.65,1,3c0,7.45-0.01,22.7-0.02,32.5c0,3.82,0,6.81,0,8.2" style="fill:none;stroke:#999;stroke-width:3" />
<path d="M1056.45,39.93c0.06,0.8-0.07,1.55-0.37,2.27c-0.96,2.67-2.58,5.3-4.58,7.95" style="fill:none;stroke:#999;stroke-width:3" />
<path d="M1033.55,53.83c5.8-0.64,22.88-2.06,32.59-2.94c3.31-0.3,5.76-0.53,6.61-0.65" style="fill:none;stroke:black;stroke-width:3" />
<circle cx="1033.55" cy="53.83" r="5" stroke-width="0" fill="#FF2A00" opacity="0.7" />
<path d="M1106.63,17.75c4.81,1.47,12.41,6.05,13.62,8.34" style="fill:none;stroke:#999;stroke-width:3" />
<path d="M1103.5,44.25c4.77,1.37,11,4.88,13.5,8.25" style="fill:none;stroke:#999;stroke-width:3" />
<path d="M1105.75,92.54c2,0.46,3.51-0.41,4.51-2.3c2.92-5.5,5.34-11.73,7.99-18.75" style="fill:none;stroke:#999;stroke-width:3" />
<path d="M1146.53,13.75c0,1.38-0.54,2.38-1.02,3.27c-3.07,5.64-6.97,10.41-14.01,17.27" style="fill:none;stroke:#999;stroke-width:3" />
<path d="M1146.0,22.64c1.54,0.16,3.74,0.01,6.27-0.3c5.7-0.72,12.6-2.21,18.23-3.07c2.12-0.32,4.12-0.39,6.25,0" style="fill:none;stroke:#999;stroke-width:3" />
<path d="M1129.75,40.39c2.72,0.55,5.43,0.51,8.15-0.12c9.71-1.26,29.32-4.25,39.86-5.25c2.93-0.32,5.85-0.23,8.75,0.25" style="fill:none;stroke:#999;stroke-width:3" />
<path d="M1151.3200000000002,26.18c0,1.57-0.32,2.7-0.93,4.24C1145.1599999999999,43.62 1139.5,57.25 1125.5,70.09" style="fill:none;stroke:#999;stroke-width:3" />
<path d="M1141.9,54.13c0.8,0.8,1,1.65,1,3c0,7.45-0.01,22.7-0.02,32.5c0,3.82,0,6.81,0,8.2" style="fill:none;stroke:#999;stroke-width:3" />
<path d="M1165.45,39.93c0.06,0.8-0.07,1.55-0.37,2.27c-0.96,2.67-2.58,5.3-4.58,7.95" style="fill:none;stroke:#999;stroke-width:3" />
<path d="M1142.55,53.83c5.8-0.64,22.88-2.06,32.59-2.94c3.31-0.3,5.76-0.53,6.61-0.65" style="fill:none;stroke:#999;stroke-width:3" />
<path d="M1161.95,54.74c0.72,0.72,0.92,1.63,0.92,2.88c0,5.93,0.02,23.5,0.02,32.9" style="fill:none;stroke:black;stroke-width:3" />
<circle cx="1161.95" cy="54.74" r="5" stroke-width="0" fill="#FF2A00" opacity="0.7" />
<path d="M1215.63,17.75c4.81,1.47,12.41,6.05,13.62,8.34" style="fill:none;stroke:#999;stroke-width:3" />
<path d="M1212.5,44.25c4.77,1.37,11,4.88,13.5,8.25" style="fill:none;stroke:#999;stroke-width:3" />
<path d="M1214.75,92.54c2,0.46,3.51-0.41,4.51-2.3c2.92-5.5,5.34-11.73,7.99-18.75" style="fill:none;stroke:#999;stroke-width:3" />
<path d="M1255.53,13.75c0,1.38-0.54,2.38-1.02,3.27c-3.07,5.64-6.97,10.41-14.01,17.27" style="fill:none;stroke:#999;stroke-width:3" />
<path d="M1255.0,22.64c1.54,0.16,3.74,0.01,6.27-0.3c5.7-0.72,12.6-2.21,18.23-3.07c2.12-0.32,4.12-0.39,6.25,0" style="fill:none;stroke:#999;stroke-width:3" />
<path d="M1238.75,40.39c2.72,0.55,5.43,0.51,8.15-0.12c9.71-1.26,29.32-4.25,39.86-5.25c2.93-0.32,5.85-0.23,8.75,0.25" style="fill:none;stroke:#999;stroke-width:3" />
<path d="M1260.3200000000002,26.18c0,1.57-0.32,2.7-0.93,4.24C1254.1599999999999,43.62 1248.5,57.25 1234.5,70.09" style="fill:none;stroke:#999;stroke-width:3" />
<path d="M1250.9,54.13c0.8,0.8,1,1.65,1,3c0,7.45-0.01,22.7-0.02,32.5c0,3.82,0,6.81,0,8.2" style="fill:none;stroke:#999;stroke-width:3" />
<path d="M1274.45,39.93c0.06,0.8-0.07,1.55-0.37,2.27c-0.96,2.67-2.58,5.3-4.58,7.95" style="fill:none;stroke:#999;stroke-width:3" />
<path d="M1251.55,53.83c5.8-0.64,22.88-2.06,32.59-2.94c3.31-0.3,5.76-0.53,6.61-0.65" style="fill:none;stroke:#999;stroke-width:3" />
<path d="M1270.95,54.74c0.72,0.72,0.92,1.63,0.92,2.88c0,5.93,0.02,23.5,0.02,32.9" style="fill:none;stroke:#999;stroke-width:3" />
<path d="M1252.94,65.83c5.32-0.52,19.81-1.75,28.57-2.54c3.32-0.3,5.81-0.53,6.68-0.64" style="fill:none;stroke:black;stroke-width:3" />
<circle cx="1252.94" cy="65.83" r="5" stroke-width="0" fill="#FF2A00" opacity="0.7" />
<path d="M1324.63,17.75c4.81,1.47,12.41,6.05,13.62,8.34" style="fill:none;stroke:#999;stroke-width:3" />
<path d="M1321.5,44.25c4.77,1.37,11,4.88,13.5,8.25" style="fill:none;stroke:#999;stroke-width:3" />
<path d="M1323.75,92.54c2,0.46,3.51-0.41,4.51-2.3c2.92-5.5,5.34-11.73,7.99-18.75" style="fill:none;stroke:#999;stroke-width:3" />
<path d="M1364.53,13.75c0,1.38-0.54,2.38-1.02,3.27c-3.07,5.64-6.97,10.41-14.01,17.27" style="fill:none;stroke:#999;stroke-width:3" />
<path d="M1364.0,22.64c1.54,0.16,3.74,0.01,6.27-0.3c5.7-0.72,12.6-2.21,18.23-3.07c2.12-0.32,4.12-0.39,6.25,0" style="fill:none;stroke:#999;stroke-width:3" />
<path d="M1347.75,40.39c2.72,0.55,5.43,0.51,8.15-0.12c9.71-1.26,29.32-4.25,39.86-5.25c2.93-0.32,5.85-0.23,8.75,0.25" style="fill:none;stroke:#999;stroke-width:3" />
<path d="M1369.3200000000002,26.18c0,1.57-0.32,2.7-0.93,4.24C1363.1599999999999,43.62 1357.5,57.25 1343.5,70.09" style="fill:none;stroke:#999;stroke-width:3" />
<path d="M1359.9,54.13c0.8,0.8,1,1.65,1,3c0,7.45-0.01,22.7-0.02,32.5c0,3.82,0,6.81,0,8.2" style="fill:none;stroke:#999;stroke-width:3" />
<path d="M1383.45,39.93c0.06,0.8-0.07,1.55-0.37,2.27c-0.96,2.67-2.58,5.3-4.58,7.95" style="fill:none;stroke:#999;stroke-width:3" />
<path d="M1360.55,53.83c5.8-0.64,22.88-2.06,32.59-2.94c3.31-0.3,5.76-0.53,6.61-0.65" style="fill:none;stroke:#999;stroke-width:3" />
<path d="M1379.95,54.74c0.72,0.72,0.92,1.63,0.92,2.88c0,5.93,0.02,23.5,0.02,32.9" style="fill:none;stroke:#999;stroke-width:3" />
<path d="M1361.94,65.83c5.32-0.52,19.81-1.75,28.57-2.54c3.32-0.3,5.81-0.53,6.68-0.64" style="fill:none;stroke:#999;stroke-width:3" />
<path d="M1361.8,78.62c5.58-0.43,20.2-1.45,29.31-2.1c3.53-0.25,6.19-0.45,7.12-0.55" style="fill:none;stroke:black;stroke-width:3" />
<circle cx="1361.8" cy="78.62" r="5" stroke-width="0" fill="#FF2A00" opacity="0.7" />
<path d="M1433.63,17.75c4.81,1.47,12.41,6.05,13.62,8.34" style="fill:none;stroke:#999;stroke-width:3" />
<path d="M1430.5,44.25c4.77,1.37,11,4.88,13.5,8.25" style="fill:none;stroke:#999;stroke-width:3" />
<path d="M1432.75,92.54c2,0.46,3.51-0.41,4.51-2.3c2.92-5.5,5.34-11.73,7.99-18.75" style="fill:none;stroke:#999;stroke-width:3" />
<path d="M1473.53,13.75c0,1.38-0.54,2.38-1.02,3.27c-3.07,5.64-6.97,10.41-14.01,17.27" style="fill:none;stroke:#999;stroke-width:3" />
<path d="M1473.0,22.64c1.54,0.16,3.74,0.01,6.27-0.3c5.7-0.72,12.6-2.21,18.23-3.07c2.12-0.32,4.12-0.39,6.25,0" style="fill:none;stroke:#999;stroke-width:3" />
<path d="M1456.75,40.39c2.72,0.55,5.43,0.51,8.15-0.12c9.71-1.26,29.32-4.25,39.86-5.25c2.93-0.32,5.85-0.23,8.75,0.25" style="fill:none;stroke:#999;stroke-width:3" />
<path d="M1478.3200000000002,26.18c0,1.57-0.32,2.7-0.93,4.24C1472.1599999999999,43.62 1466.5,57.25 1452.5,70.09" style="fill:none;stroke:#999;stroke-width:3" />
<path d="M1468.9,54.13c0.8,0.8,1,1.65,1,3c0,7.45-0.01,22.7-0.02,32.5c0,3.82,0,6.81,0,8.2" style="fill:none;stroke:#999;stroke-width:3" />
<path d="M1492.45,39.93c0.06,0.8-0.07,1.55-0.37,2.27c-0.96,2.67-2.58,5.3-4.58,7.95" style="fill:none;stroke:#999;stroke-width:3" />
<path d="M1469.55,53.83c5.8-0.64,22.88-2.06,32.59-2.94c3.31-0.3,5.76-0.53,6.61-0.65" style="fill:none;stroke:#999;stroke-width:3" />
<path d="M1488.95,54.74c0.72,0.72,0.92,1.63,0.92,2.88c0,5.93,0.02,23.5,0.02,32.9" style="fill:none;stroke:#999;stroke-width:3" />
<path d="M1470.94,65.83c5.32-0.52,19.81-1.75,28.57-2.54c3.32-0.3,5.81-0.53,6.68-0.64" style="fill:none;stroke:#999;stroke-width:3" />
<path d="M1470.8,78.62c5.58-0.43,20.2-1.45,29.31-2.1c3.53-0.25,6.19-0.45,7.12-0.55" style="fill:none;stroke:#999;stroke-width:3" />
<path d="M1470.96,92.5c6.62-0.47,25.01-1.62,35.42-2.38c3.61-0.26,6.26-0.48,7.12-0.6" style="fill:none;stroke:black;stroke-width:3" />
<circle cx="1470.96" cy="92.5" r="5" stroke-width="0" fill="#FF2A00" opacity="0.7" />
</svg>