<!-- 06f6e -->
<svg width="1635px" height="109px" viewBox="0 0 1635px 109px" xmlns="http://www.w3.org/2000/svg" xmlns:xlink="http://www.w3.org/1999/xlink" xml:space="preserve" version="1.1"  baseProfile="full">
<line x1="1" y1="1" x2="1634" y2="1" style="stroke:#ddd;stroke-width:2" />
<line x1="1" y1="1" x2="1" y2="108" style="stroke:#ddd;stroke-width:2" />
<line x1="1" y1="108" x2="1634" y2="108" style="stroke:#ddd;stroke-width:2" />
<line x1="1634" y1="1" x2="1634" y2="108" style="stroke:#ddd;stroke-width:2" />
<line x1="109" y1="1" x2="109" y2="108" style="stroke:#ddd;stroke-width:2" />
<line x1="218" y1="1" x2="218" y2="108" style="stroke:#ddd;stroke-width:2" />
<line x1="327" y1="1" x2="327" y2="108" style="stroke:#ddd;stroke-width:2" />
<line x1="436" y1="1" x2="436" y2="108" style="stroke:#ddd;stroke-width:2" />
<line x1="545" y1="1" x2="545" y2="108" style="stroke:#ddd;stroke-width:2" />
<line x1="654" y1="1" x2="654" y2="108" style="stroke:#ddd;stroke-width:2" />
<line x1="763" y1="1" x2="763" y2="108" style="stroke:#ddd;stroke-width:2" />
<line x1="872" y1="1" x2="872" y2="108" style="stroke:#ddd;stroke-width:2" />
<line x1="981" y1="1" x2="981" y2="108" style="stroke:#ddd;stroke-width:2" />
<line x1="1090" y1="1" x2="1090" y2="108" style="stroke:#ddd;stroke-width:2" />
<line x1="1199" y1="1" x2="1199" y2="108" style="stroke:#ddd;stroke-width:2" />
<line x1="1308" y1="1" x2="1308" y2="108" style="stroke:#ddd;stroke-width:2" />
<line x1="1417" y1="1" x2="1417" y2="108" style="stroke:#ddd;stroke-width:2" />
<line x1="1526" y1="1" x2="1526" y2="108" style="stroke:#ddd;stroke-width:2" />
<line x1="1" y1="54" x2="1634" y2="54" style="stroke:#ddd;stroke-width:2;stroke-dasharray:3 3" />
<line x1="55" y1="1" x2="55" y2="108" style="stroke:#ddd;stroke-width:2;stroke-dasharray:3 3" />
<line x1="164" y1="1" x2="164" y2="108" style="stroke:#ddd;stroke-width:2;stroke-dasharray:3 3" />
<line x1="273" y1="1" x2="273" y2="108" style="stroke:#ddd;stroke-width:2;stroke-dasharray:3 3" />
<line x1="382" y1="1" x2="382" y2="108" style="stroke:#ddd;stroke-width:2;stroke-dasharray:3 3" />
<line x1="491" y1="1" x2="491" y2="108" style="stroke:#ddd;stroke-width:2;stroke-dasharray:3 3" />
<line x1="600" y1="1" x2="600" y2="108" style="stroke:#ddd;stroke-width:2;stroke-dasharray:3 3" />
<line x1="709" y1="1" x2="709" y2="108" style="stroke:#ddd;stroke-width:2;stroke-dasharray:3 3" />
<line x1="818" y1="1" x2="818" y2="108" style="stroke:#ddd;stroke-width:2;stroke-dasharray:3 3" />
<line x1="927" y1="1" x2="927" y2="108" style="stroke:#ddd;stroke-width:2;stroke-dasharray:3 3" />
<line x1="1036" y1="1" x2="1036" y2="108" style="stroke:#ddd;stroke-width:2;stroke-dasharray:3 3" />
<line x1="1145" y1="1" x2="1145" y2="108" style="stroke:#ddd;stroke-width:2;stroke-dasharray:3 3" />
<line x1="1254" y1="1" x2="1254" y2="108" style="stroke:#ddd;stroke-width:2;stroke-dasharray:3 3" />
<line x1="1363" y1="1" x2="1363" y2="108" style="stroke:#ddd;stroke-width:2;stroke-dasharray:3 3" />
<line x1="1472" y1="1" x2="1472" y2="108" style="stroke:#ddd;stroke-width:2;stroke-dasharray:3 3" />
<line x1="1581" y1="1" x2="1581" y2="108" style="stroke:#ddd;stroke-width:2;stroke-dasharray:3 3" />
<path d="M20.63,16.75c2.87,1.47,7.4,6.05,8.12,8.34" style="fill:none;stroke:black;stroke-width:3" />
<circle cx="20.63" cy="16.75" r="5" stroke-width="0" fill="#FF2A00" opacity="0.7" />
<path d="M129.63,16.75c2.87,1.47,7.4,6.05,8.12,8.34" style="fill:none;stroke:#999;stroke-width:3" />
<path d="M121.25,39.75c3.53,1.5,9.12,6.17,10,8.5" style="fill:none;stroke:black;stroke-width:3" />
<circle cx="121.25" cy="39.75" r="5" stroke-width="0" fill="#FF2A00" opacity="0.7" />
<path d="M238.63,16.75c2.87,1.47,7.4,6.05,8.12,8.34" style="fill:none;stroke:#999;stroke-width:3" />
<path d="M230.25,39.75c3.53,1.5,9.12,6.17,10,8.5" style="fill:none;stroke:#999;stroke-width:3" />
<path d="M232.16,88.7c1.18,0.49,2.38,0.22,3.09-0.99c2.75-4.7,5.5-10.45,8-16.45" style="fill:none;stroke:black;stroke-width:3" />
<circle cx="232.16" cy="88.7" r="5" stroke-width="0" fill="#FF2A00" opacity="0.7" />
<path d="M347.63,16.75c2.87,1.47,7.4,6.05,8.12,8.34" style="fill:none;stroke:#999;stroke-width:3" />
<path d="M339.25,39.75c3.53,1.5,9.12,6.17,10,8.5" style="fill:none;stroke:#999;stroke-width:3" />
<path d="M341.15999999999997,88.7c1.18,0.49,2.38,0.22,3.09-0.99c2.75-4.7,5.5-10.45,8-16.45" style="fill:none;stroke:#999;stroke-width:3" />
<path d="M363.04,29.63c1.46,0.25,3.22,0.14,3.87,0c4.59-1,13.79-3.17,18.6-3.76c1.21-0.15,3.58-0.6,4.74-0.05" style="fill:none;stroke:black;stroke-width:3" />
<circle cx="363.04" cy="29.63" r="5" stroke-width="0" fill="#FF2A00" opacity="0.7" />
<path d="M456.63,16.75c2.87,1.47,7.4,6.05,8.12,8.34" style="fill:none;stroke:#999;stroke-width:3" />
<path d="M448.25,39.75c3.53,1.5,9.12,6.17,10,8.5" style="fill:none;stroke:#999;stroke-width:3" />
<path d="M450.15999999999997,88.7c1.18,0.49,2.38,0.22,3.09-0.99c2.75-4.7,5.5-10.45,8-16.45" style="fill:none;stroke:#999;stroke-width:3" />
<path d="M472.04,29.63c1.46,0.25,3.22,0.14,3.87,0c4.59-1,13.79-3.17,18.6-3.76c1.21-0.15,3.58-0.6,4.74-0.05" style="fill:none;stroke:#999;stroke-width:3" />
<path d="M484.98,14c0.89,0.89,1.31,2.12,1.31,3.45c0,2.67-0.11,16.8-0.11,22.05" style="fill:none;stroke:black;stroke-width:3" />
<circle cx="484.98" cy="14.0" r="5" stroke-width="0" fill="#FF2A00" opacity="0.7" />
<path d="M565.63,16.75c2.87,1.47,7.4,6.05,8.12,8.34" style="fill:none;stroke:#999;stroke-width:3" />
<path d="M557.25,39.75c3.53,1.5,9.12,6.17,10,8.5" style="fill:none;stroke:#999;stroke-width:3" />
<path d="M559.16,88.7c1.18,0.49,2.38,0.22,3.09-0.99c2.75-4.7,5.5-10.45,8-16.45" style="fill:none;stroke:#999;stroke-width:3" />
<path d="M581.04,29.63c1.46,0.25,3.22,0.14,3.87,0c4.59-1,13.79-3.17,18.6-3.76c1.21-0.15,3.58-0.6,4.74-0.05" style="fill:none;stroke:#999;stroke-width:3" />
<path d="M593.98,14c0.89,0.89,1.31,2.12,1.31,3.45c0,2.67-0.11,16.8-0.11,22.05" style="fill:none;stroke:#999;stroke-width:3" />
<path d="M580.37,41.94c0.78,0.78,1.26,1.92,1.41,2.7c1.22,6.11,1.64,9.92,2.56,15.84c0.36,2.31,0.61,3.95,0.61,4.06" style="fill:none;stroke:black;stroke-width:3" />
<circle cx="580.37" cy="41.94" r="5" stroke-width="0" fill="#FF2A00" opacity="0.7" />
<path d="M674.63,16.75c2.87,1.47,7.4,6.05,8.12,8.34" style="fill:none;stroke:#999;stroke-width:3" />
<path d="M666.25,39.75c3.53,1.5,9.12,6.17,10,8.5" style="fill:none;stroke:#999;stroke-width:3" />
<path d="M668.16,88.7c1.18,0.49,2.38,0.22,3.09-0.99c2.75-4.7,5.5-10.45,8-16.45" style="fill:none;stroke:#999;stroke-width:3" />
<path d="M690.04,29.63c1.46,0.25,3.22,0.14,3.87,0c4.59-1,13.79-3.17,18.6-3.76c1.21-0.15,3.58-0.6,4.74-0.05" style="fill:none;stroke:#999;stroke-width:3" />
<path d="M702.98,14c0.89,0.89,1.31,2.12,1.31,3.45c0,2.67-0.11,16.8-0.11,22.05" style="fill:none;stroke:#999;stroke-width:3" />
<path d="M689.37,41.94c0.78,0.78,1.26,1.92,1.41,2.7c1.22,6.11,1.64,9.92,2.56,15.84c0.36,2.31,0.61,3.95,0.61,4.06" style="fill:none;stroke:#999;stroke-width:3" />
<path d="M690.99,42.75c5.13-1.11,17.03-3.62,22.27-4.51c2.68-0.46,4.1,0.45,3.82,3.45c-0.34,3.54-1.43,9.83-2.3,14.81c-0.26,1.48-0.5,2.85-0.69,3.99" style="fill:none;stroke:black;stroke-width:3" />
<circle cx="690.99" cy="42.75" r="5" stroke-width="0" fill="#FF2A00" opacity="0.7" />
<path d="M783.63,16.75c2.87,1.47,7.4,6.05,8.12,8.34" style="fill:none;stroke:#999;stroke-width:3" />
<path d="M775.25,39.75c3.53,1.5,9.12,6.17,10,8.5" style="fill:none;stroke:#999;stroke-width:3" />
<path d="M777.16,88.7c1.18,0.49,2.38,0.22,3.09-0.99c2.75-4.7,5.5-10.45,8-16.45" style="fill:none;stroke:#999;stroke-width:3" />
<path d="M799.04,29.63c1.46,0.25,3.22,0.14,3.87,0c4.59-1,13.79-3.17,18.6-3.76c1.21-0.15,3.58-0.6,4.74-0.05" style="fill:none;stroke:#999;stroke-width:3" />
<path d="M811.98,14c0.89,0.89,1.31,2.12,1.31,3.45c0,2.67-0.11,16.8-0.11,22.05" style="fill:none;stroke:#999;stroke-width:3" />
<path d="M798.37,41.94c0.78,0.78,1.26,1.92,1.41,2.7c1.22,6.11,1.64,9.92,2.56,15.84c0.36,2.31,0.61,3.95,0.61,4.06" style="fill:none;stroke:#999;stroke-width:3" />
<path d="M799.99,42.75c5.13-1.11,17.03-3.62,22.27-4.51c2.68-0.46,4.1,0.45,3.82,3.45c-0.34,3.54-1.43,9.83-2.3,14.81c-0.26,1.48-0.5,2.85-0.69,3.99" style="fill:none;stroke:#999;stroke-width:3" />
<path d="M802.01,51.88c5.99-1.25,16.49-3.25,22.11-3.65" style="fill:none;stroke:black;stroke-width:3" />
<circle cx="802.01" cy="51.88" r="5" stroke-width="0" fill="#FF2A00" opacity="0.7" />
<path d="M892.63,16.75c2.87,1.47,7.4,6.05,8.12,8.34" style="fill:none;stroke:#999;stroke-width:3" />
<path d="M884.25,39.75c3.53,1.5,9.12,6.17,10,8.5" style="fill:none;stroke:#999;stroke-width:3" />
<path d="M886.16,88.7c1.18,0.49,2.38,0.22,3.09-0.99c2.75-4.7,5.5-10.45,8-16.45" style="fill:none;stroke:#999;stroke-width:3" />
<path d="M908.04,29.63c1.46,0.25,3.22,0.14,3.87,0c4.59-1,13.79-3.17,18.6-3.76c1.21-0.15,3.58-0.6,4.74-0.05" style="fill:none;stroke:#999;stroke-width:3" />
<path d="M920.98,14c0.89,0.89,1.31,2.12,1.31,3.45c0,2.67-0.11,16.8-0.11,22.05" style="fill:none;stroke:#999;stroke-width:3" />
<path d="M907.37,41.94c0.78,0.78,1.26,1.92,1.41,2.7c1.22,6.11,1.64,9.92,2.56,15.84c0.36,2.31,0.61,3.95,0.61,4.06" style="fill:none;stroke:#999;stroke-width:3" />
<path d="M908.99,42.75c5.13-1.11,17.03-3.62,22.27-4.51c2.68-0.46,4.1,0.45,3.82,3.45c-0.34,3.54-1.43,9.83-2.3,14.81c-0.26,1.48-0.5,2.85-0.69,3.99" style="fill:none;stroke:#999;stroke-width:3" />
<path d="M911.01,51.88c5.99-1.25,16.49-3.25,22.11-3.65" style="fill:none;stroke:#999;stroke-width:3" />
<path d="M912.69,61.25c7.06-1.25,13.03-2,18.96-2.7" style="fill:none;stroke:black;stroke-width:3" />
<circle cx="912.69" cy="61.25" r="5" stroke-width="0" fill="#FF2A00" opacity="0.7" />
<path d="M1001.63,16.75c2.87,1.47,7.4,6.05,8.12,8.34" style="fill:none;stroke:#999;stroke-width:3" />
<path d="M993.25,39.75c3.53,1.5,9.12,6.17,10,8.5" style="fill:none;stroke:#999;stroke-width:3" />
<path d="M995.16,88.7c1.18,0.49,2.38,0.22,3.09-0.99c2.75-4.7,5.5-10.45,8-16.45" style="fill:none;stroke:#999;stroke-width:3" />
<path d="M1017.04,29.63c1.46,0.25,3.22,0.14,3.87,0c4.59-1,13.79-3.17,18.6-3.76c1.21-0.15,3.58-0.6,4.74-0.05" style="fill:none;stroke:#999;stroke-width:3" />
<path d="M1029.98,14c0.89,0.89,1.31,2.12,1.31,3.45c0,2.67-0.11,16.8-0.11,22.05" style="fill:none;stroke:#999;stroke-width:3" />
<path d="M1016.37,41.94c0.78,0.78,1.26,1.92,1.41,2.7c1.22,6.11,1.64,9.92,2.56,15.84c0.36,2.31,0.61,3.95,0.61,4.06" style="fill:none;stroke:#999;stroke-width:3" />
<path d="M1017.99,42.75c5.13-1.11,17.03-3.62,22.27-4.51c2.68-0.46,4.1,0.45,3.82,3.45c-0.34,3.54-1.43,9.83-2.3,14.81c-0.26,1.48-0.5,2.85-0.69,3.99" style="fill:none;stroke:#999;stroke-width:3" />
<path d="M1020.01,51.88c5.99-1.25,16.49-3.25,22.11-3.65" style="fill:none;stroke:#999;stroke-width:3" />
<path d="M1021.69,61.25c7.06-1.25,13.03-2,18.96-2.7" style="fill:none;stroke:#999;stroke-width:3" />
<path d="M1012.13,76.38c1.83,0.45,4.27,0.37,6.1-0.13c6.09-1.68,17.63-4.03,23.26-4.98c1.14-0.19,3.89-0.27,4.92,0.04" style="fill:none;stroke:black;stroke-width:3" />
<circle cx="1012.13" cy="76.38" r="5" stroke-width="0" fill="#FF2A00" opacity="0.7" />
<path d="M1110.63,16.75c2.87,1.47,7.4,6.05,8.12,8.34" style="fill:none;stroke:#999;stroke-width:3" />
<path d="M1102.25,39.75c3.53,1.5,9.12,6.17,10,8.5" style="fill:none;stroke:#999;stroke-width:3" />
<path d="M1104.1599999999999,88.7c1.18,0.49,2.38,0.22,3.09-0.99c2.75-4.7,5.5-10.45,8-16.45" style="fill:none;stroke:#999;stroke-width:3" />
<path d="M1126.04,29.63c1.46,0.25,3.22,0.14,3.87,0c4.59-1,13.79-3.17,18.6-3.76c1.21-0.15,3.58-0.6,4.74-0.05" style="fill:none;stroke:#999;stroke-width:3" />
<path d="M1138.98,14c0.89,0.89,1.31,2.12,1.31,3.45c0,2.67-0.11,16.8-0.11,22.05" style="fill:none;stroke:#999;stroke-width:3" />
<path d="M1125.37,41.94c0.78,0.78,1.26,1.92,1.41,2.7c1.22,6.11,1.64,9.92,2.56,15.84c0.36,2.31,0.61,3.95,0.61,4.06" style="fill:none;stroke:#999;stroke-width:3" />
<path d="M1126.99,42.75c5.13-1.11,17.03-3.62,22.27-4.51c2.68-0.46,4.1,0.45,3.82,3.45c-0.34,3.54-1.43,9.83-2.3,14.81c-0.26,1.48-0.5,2.85-0.69,3.99" style="fill:none;stroke:#999;stroke-width:3" />
<path d="M1129.01,51.88c5.99-1.25,16.49-3.25,22.11-3.65" style="fill:none;stroke:#999;stroke-width:3" />
<path d="M1130.69,61.25c7.06-1.25,13.03-2,18.96-2.7" style="fill:none;stroke:#999;stroke-width:3" />
<path d="M1121.13,76.38c1.83,0.45,4.27,0.37,6.1-0.13c6.09-1.68,17.63-4.03,23.26-4.98c1.14-0.19,3.89-0.27,4.92,0.04" style="fill:none;stroke:#999;stroke-width:3" />
<path d="M1139.4,63c0.74,0.74,1.31,2.25,1.31,3.45c0,0.41,0.03,16.21,0.04,24.67c0,2.24,0.01,3.96,0.01,4.75" style="fill:none;stroke:black;stroke-width:3" />
<circle cx="1139.4" cy="63.0" r="5" stroke-width="0" fill="#FF2A00" opacity="0.7" />
<path d="M1219.63,16.75c2.87,1.47,7.4,6.05,8.12,8.34" style="fill:none;stroke:#999;stroke-width:3" />
<path d="M1211.25,39.75c3.53,1.5,9.12,6.17,10,8.5" style="fill:none;stroke:#999;stroke-width:3" />
<path d="M1213.1599999999999,88.7c1.18,0.49,2.38,0.22,3.09-0.99c2.75-4.7,5.5-10.45,8-16.45" style="fill:none;stroke:#999;stroke-width:3" />
<path d="M1235.04,29.63c1.46,0.25,3.22,0.14,3.87,0c4.59-1,13.79-3.17,18.6-3.76c1.21-0.15,3.58-0.6,4.74-0.05" style="fill:none;stroke:#999;stroke-width:3" />
<path d="M1247.98,14c0.89,0.89,1.31,2.12,1.31,3.45c0,2.67-0.11,16.8-0.11,22.05" style="fill:none;stroke:#999;stroke-width:3" />
<path d="M1234.37,41.94c0.78,0.78,1.26,1.92,1.41,2.7c1.22,6.11,1.64,9.92,2.56,15.84c0.36,2.31,0.61,3.95,0.61,4.06" style="fill:none;stroke:#999;stroke-width:3" />
<path d="M1235.99,42.75c5.13-1.11,17.03-3.62,22.27-4.51c2.68-0.46,4.1,0.45,3.82,3.45c-0.34,3.54-1.43,9.83-2.3,14.81c-0.26,1.48-0.5,2.85-0.69,3.99" style="fill:none;stroke:#999;stroke-width:3" />
<path d="M1238.01,51.88c5.99-1.25,16.49-3.25,22.11-3.65" style="fill:none;stroke:#999;stroke-width:3" />
<path d="M1239.69,61.25c7.06-1.25,13.03-2,18.96-2.7" style="fill:none;stroke:#999;stroke-width:3" />
<path d="M1230.13,76.38c1.83,0.45,4.27,0.37,6.1-0.13c6.09-1.68,17.63-4.03,23.26-4.98c1.14-0.19,3.89-0.27,4.92,0.04" style="fill:none;stroke:#999;stroke-width:3" />
<path d="M1248.4,63c0.74,0.74,1.31,2.25,1.31,3.45c0,0.41,0.03,16.21,0.04,24.67c0,2.24,0.01,3.96,0.01,4.75" style="fill:none;stroke:#999;stroke-width:3" />
<path d="M1271.97,19.47c0.78,0.78,1.23,2.05,1.24,3.1c0.17,35.93-0.96,51.93-13.18,71.19" style="fill:none;stroke:black;stroke-width:3" />
<circle cx="1271.97" cy="19.47" r="5" stroke-width="0" fill="#FF2A00" opacity="0.7" />
<path d="M1328.63,16.75c2.87,1.47,7.4,6.05,8.12,8.34" style="fill:none;stroke:#999;stroke-width:3" />
<path d="M1320.25,39.75c3.53,1.5,9.12,6.17,10,8.5" style="fill:none;stroke:#999;stroke-width:3" />
<path d="M1322.1599999999999,88.7c1.18,0.49,2.38,0.22,3.09-0.99c2.75-4.7,5.5-10.45,8-16.45" style="fill:none;stroke:#999;stroke-width:3" />
<path d="M1344.04,29.63c1.46,0.25,3.22,0.14,3.87,0c4.59-1,13.79-3.17,18.6-3.76c1.21-0.15,3.58-0.6,4.74-0.05" style="fill:none;stroke:#999;stroke-width:3" />
<path d="M1356.98,14c0.89,0.89,1.31,2.12,1.31,3.45c0,2.67-0.11,16.8-0.11,22.05" style="fill:none;stroke:#999;stroke-width:3" />
<path d="M1343.37,41.94c0.78,0.78,1.26,1.92,1.41,2.7c1.22,6.11,1.64,9.92,2.56,15.84c0.36,2.31,0.61,3.95,0.61,4.06" style="fill:none;stroke:#999;stroke-width:3" />
<path d="M1344.99,42.75c5.13-1.11,17.03-3.62,22.27-4.51c2.68-0.46,4.1,0.45,3.82,3.45c-0.34,3.54-1.43,9.83-2.3,14.81c-0.26,1.48-0.5,2.85-0.69,3.99" style="fill:none;stroke:#999;stroke-width:3" />
<path d="M1347.01,51.88c5.99-1.25,16.49-3.25,22.11-3.65" style="fill:none;stroke:#999;stroke-width:3" />
<path d="M1348.69,61.25c7.06-1.25,13.03-2,18.96-2.7" style="fill:none;stroke:#999;stroke-width:3" />
<path d="M1339.13,76.38c1.83,0.45,4.27,0.37,6.1-0.13c6.09-1.68,17.63-4.03,23.26-4.98c1.14-0.19,3.89-0.27,4.92,0.04" style="fill:none;stroke:#999;stroke-width:3" />
<path d="M1357.4,63c0.74,0.74,1.31,2.25,1.31,3.45c0,0.41,0.03,16.21,0.04,24.67c0,2.24,0.01,3.96,0.01,4.75" style="fill:none;stroke:#999;stroke-width:3" />
<path d="M1380.97,19.47c0.78,0.78,1.23,2.05,1.24,3.1c0.17,35.93-0.96,51.93-13.18,71.19" style="fill:none;stroke:#999;stroke-width:3" />
<path d="M1382.98,20.22c3.39-0.85,13.37-3.44,14.81-3.72c2.59-0.5,4.24,1.12,4.24,3.53c0,1.49,0.01,48.56,0.01,68.93c0,8.04-5.55,1.04-7.09,0.02" style="fill:none;stroke:black;stroke-width:3" />
<circle cx="1382.98" cy="20.22" r="5" stroke-width="0" fill="#FF2A00" opacity="0.7" />
<path d="M1437.63,16.75c2.87,1.47,7.4,6.05,8.12,8.34" style="fill:none;stroke:#999;stroke-width:3" />
<path d="M1429.25,39.75c3.53,1.5,9.12,6.17,10,8.5" style="fill:none;stroke:#999;stroke-width:3" />
<path d="M1431.1599999999999,88.7c1.18,0.49,2.38,0.22,3.09-0.99c2.75-4.7,5.5-10.45,8-16.45" style="fill:none;stroke:#999;stroke-width:3" />
<path d="M1453.04,29.63c1.46,0.25,3.22,0.14,3.87,0c4.59-1,13.79-3.17,18.6-3.76c1.21-0.15,3.58-0.6,4.74-0.05" style="fill:none;stroke:#999;stroke-width:3" />
<path d="M1465.98,14c0.89,0.89,1.31,2.12,1.31,3.45c0,2.67-0.11,16.8-0.11,22.05" style="fill:none;stroke:#999;stroke-width:3" />
<path d="M1452.37,41.94c0.78,0.78,1.26,1.92,1.41,2.7c1.22,6.11,1.64,9.92,2.56,15.84c0.36,2.31,0.61,3.95,0.61,4.06" style="fill:none;stroke:#999;stroke-width:3" />
<path d="M1453.99,42.75c5.13-1.11,17.03-3.62,22.27-4.51c2.68-0.46,4.1,0.45,3.82,3.45c-0.34,3.54-1.43,9.83-2.3,14.81c-0.26,1.48-0.5,2.85-0.69,3.99" style="fill:none;stroke:#999;stroke-width:3" />
<path d="M1456.01,51.88c5.99-1.25,16.49-3.25,22.11-3.65" style="fill:none;stroke:#999;stroke-width:3" />
<path d="M1457.69,61.25c7.06-1.25,13.03-2,18.96-2.7" style="fill:none;stroke:#999;stroke-width:3" />
<path d="M1448.13,76.38c1.83,0.45,4.27,0.37,6.1-0.13c6.09-1.68,17.63-4.03,23.26-4.98c1.14-0.19,3.89-0.27,4.92,0.04" style="fill:none;stroke:#999;stroke-width:3" />
<path d="M1466.4,63c0.74,0.74,1.31,2.25,1.31,3.45c0,0.41,0.03,16.21,0.04,24.67c0,2.24,0.01,3.96,0.01,4.75" style="fill:none;stroke:#999;stroke-width:3" />
<path d="M1489.97,19.47c0.78,0.78,1.23,2.05,1.24,3.1c0.17,35.93-0.96,51.93-13.18,71.19" style="fill:none;stroke:#999;stroke-width:3" />
<path d="M1491.98,20.22c3.39-0.85,13.37-3.44,14.81-3.72c2.59-0.5,4.24,1.12,4.24,3.53c0,1.49,0.01,48.56,0.01,68.93c0,8.04-5.55,1.04-7.09,0.02" style="fill:none;stroke:#999;stroke-width:3" />
<path d="M1491.73,41.09c5.12-0.92,12.02-1.84,18.42-2.72" style="fill:none;stroke:black;stroke-width:3" />
<circle cx="1491.73" cy="41.09" r="5" stroke-width="0" fill="#FF2A00" opacity="0.7" />
<path d="M1546.63,16.75c2.87,1.47,7.4,6.05,8.12,8.34" style="fill:none;stroke:#999;stroke-width:3" />
<path d="M1538.25,39.75c3.53,1.5,9.12,6.17,10,8.5" style="fill:none;stroke:#999;stroke-width:3" />
<path d="M1540.1599999999999,88.7c1.18,0.49,2.38,0.22,3.09-0.99c2.75-4.7,5.5-10.45,8-16.45" style="fill:none;stroke:#999;stroke-width:3" />
<path d="M1562.04,29.63c1.46,0.25,3.22,0.14,3.87,0c4.59-1,13.79-3.17,18.6-3.76c1.21-0.15,3.58-0.6,4.74-0.05" style="fill:none;stroke:#999;stroke-width:3" />
<path d="M1574.98,14c0.89,0.89,1.31,2.12,1.31,3.45c0,2.67-0.11,16.8-0.11,22.05" style="fill:none;stroke:#999;stroke-width:3" />
<path d="M1561.37,41.94c0.78,0.78,1.26,1.92,1.41,2.7c1.22,6.11,1.64,9.92,2.56,15.84c0.36,2.31,0.61,3.95,0.61,4.06" style="fill:none;stroke:#999;stroke-width:3" />
<path d="M1562.99,42.75c5.13-1.11,17.03-3.62,22.27-4.51c2.68-0.46,4.1,0.45,3.82,3.45c-0.34,3.54-1.43,9.83-2.3,14.81c-0.26,1.48-0.5,2.85-0.69,3.99" style="fill:none;stroke:#999;stroke-width:3" />
<path d="M1565.01,51.88c5.99-1.25,16.49-3.25,22.11-3.65" style="fill:none;stroke:#999;stroke-width:3" />
<path d="M1566.69,61.25c7.06-1.25,13.03-2,18.96-2.7" style="fill:none;stroke:#999;stroke-width:3" />
<path d="M1557.13,76.38c1.83,0.45,4.27,0.37,6.1-0.13c6.09-1.68,17.63-4.03,23.26-4.98c1.14-0.19,3.89-0.27,4.92,0.04" style="fill:none;stroke:#999;stroke-width:3" />
<path d="M1575.4,63c0.74,0.74,1.31,2.25,1.31,3.45c0,0.41,0.03,16.21,0.04,24.67c0,2.24,0.01,3.96,0.01,4.75" style="fill:none;stroke:#999;stroke-width:3" />
<path d="M1598.97,19.47c0.78,0.78,1.23,2.05,1.24,3.1c0.17,35.93-0.96,51.93-13.18,71.19" style="fill:none;stroke:#999;stroke-width:3" />
<path d="M1600.98,20.22c3.39-0.85,13.37-3.44,14.81-3.72c2.59-0.5,4.24,1.12,4.24,3.53c0,1.49,0.01,48.56,0.01,68.93c0,8.04-5.55,1.04-7.09,0.02" style="fill:none;stroke:#999;stroke-width:3" />
<path d="M1600.73,41.09c5.12-0.92,12.02-1.84,18.42-2.72" style="fill:none;stroke:#999;stroke-width:3" />
<path d="M1599.96,60.71c5.18-0.75,12.87-1.46,18.86-1.97" style="fill:none;stroke:black;stroke-width:3" />
<circle cx="1599.96" cy="60.71" r="5" stroke-width="0" fill="#FF2A00" opacity="0.7" />
</svg>