<!-- 06fc0 -->
<svg width="1744px" height="109px" viewBox="0 0 1744px 109px" xmlns="http://www.w3.org/2000/svg" xmlns:xlink="http://www.w3.org/1999/xlink" xml:space="preserve" version="1.1"  baseProfile="full">
<line x1="1" y1="1" x2="1743" y2="1" style="stroke:#ddd;stroke-width:2" />
<line x1="1" y1="1" x2="1" y2="108" style="stroke:#ddd;stroke-width:2" />
<line x1="1" y1="108" x2="1743" y2="108" style="stroke:#ddd;stroke-width:2" />
<line x1="1743" y1="1" x2="1743" y2="108" style="stroke:#ddd;stroke-width:2" />
<line x1="109" y1="1" x2="109" y2="108" style="stroke:#ddd;stroke-width:2" />
<line x1="218" y1="1" x2="218" y2="108" style="stroke:#ddd;stroke-width:2" />
<line x1="327" y1="1" x2="327" y2="108" style="stroke:#ddd;stroke-width:2" />
<line x1="436" y1="1" x2="436" y2="108" style="stroke:#ddd;stroke-width:2" />
<line x1="545" y1="1" x2="545" y2="108" style="stroke:#ddd;stroke-width:2" />
<line x1="654" y1="1" x2="654" y2="108" style="stroke:#ddd;stroke-width:2" />
<line x1="763" y1="1" x2="763" y2="108" style="stroke:#ddd;stroke-width:2" />
<line x1="872" y1="1" x2="872" y2="108" style="stroke:#ddd;stroke-width:2" />
<line x1="981" y1="1" x2="981" y2="108" style="stroke:#ddd;stroke-width:2" />
<line x1="1090" y1="1" x2="1090" y2="108" style="stroke:#ddd;stroke-width:2" />
<line x1="1199" y1="1" x2="1199" y2="108" style="stroke:#ddd;stroke-width:2" />
<line x1="1308" y1="1" x2="1308" y2="108" style="stroke:#ddd;stroke-width:2" />
<line x1="1417" y1="1" x2="1417" y2="108" style="stroke:#ddd;stroke-width:2" />
<line x1="1526" y1="1" x2="1526" y2="108" style="stroke:#ddd;stroke-width:2" />
<line x1="1635" y1="1" x2="1635" y2="108" style="stroke:#ddd;stroke-width:2" />
<line x1="1" y1="54" x2="1743" y2="54" style="stroke:#ddd;stroke-width:2;stroke-dasharray:3 3" />
<line x1="55" y1="1" x2="55" y2="108" style="stroke:#ddd;stroke-width:2;stroke-dasharray:3 3" />
<line x1="164" y1="1" x2="164" y2="108" style="stroke:#ddd;stroke-width:2;stroke-dasharray:3 3" />
<line x1="273" y1="1" x2="273" y2="108" style="stroke:#ddd;stroke-width:2;stroke-dasharray:3 3" />
<line x1="382" y1="1" x2="382" y2="108" style="stroke:#ddd;stroke-width:2;stroke-dasharray:3 3" />
<line x1="491" y1="1" x2="491" y2="108" style="stroke:#ddd;stroke-width:2;stroke-dasharray:3 3" />
<line x1="600" y1="1" x2="600" y2="108" style="stroke:#ddd;stroke-width:2;stroke-dasharray:3 3" />
<line x1="709" y1="1" x2="709" y2="108" style="stroke:#ddd;stroke-width:2;stroke-dasharray:3 3" />
<line x1="818" y1="1" x2="818" y2="108" style="stroke:#ddd;stroke-width:2;stroke-dasharray:3 3" />
<line x1="927" y1="1" x2="927" y2="108" style="stroke:#ddd;stroke-width:2;stroke-dasharray:3 3" />
<line x1="1036" y1="1" x2="1036" y2="108" style="stroke:#ddd;stroke-width:2;stroke-dasharray:3 3" />
<line x1="1145" y1="1" x2="1145" y2="108" style="stroke:#ddd;stroke-width:2;stroke-dasharray:3 3" />
<line x1="1254" y1="1" x2="1254" y2="108" style="stroke:#ddd;stroke-width:2;stroke-dasharray:3 3" />
<line x1="1363" y1="1" x2="1363" y2="108" style="stroke:#ddd;stroke-width:2;stroke-dasharray:3 3" />
<line x1="1472" y1="1" x2="1472" y2="108" style="stroke:#ddd;stroke-width:2;stroke-dasharray:3 3" />
<line x1="1581" y1="1" x2="1581" y2="108" style="stroke:#ddd;stroke-width:2;stroke-dasharray:3 3" />
<line x1="1690" y1="1" x2="1690" y2="108" style="stroke:#ddd;stroke-width:2;stroke-dasharray:3 3" />
<path d="M16.38,19.5c3.48,1.34,8.99,5.51,9.87,7.59" style="fill:none;stroke:black;stroke-width:3" />
<circle cx="16.38" cy="19.5" r="5" stroke-width="0" fill="#FF2A00" opacity="0.7" />
<path d="M125.38,19.5c3.48,1.34,8.99,5.51,9.87,7.59" style="fill:none;stroke:#999;stroke-width:3" />
<path d="M120.25,42.5c3.79,1.15,9.8,4.72,10.75,6.5" style="fill:none;stroke:black;stroke-width:3" />
<circle cx="120.25" cy="42.5" r="5" stroke-width="0" fill="#FF2A00" opacity="0.7" />
<path d="M234.38,19.5c3.48,1.34,8.99,5.51,9.87,7.59" style="fill:none;stroke:#999;stroke-width:3" />
<path d="M229.25,42.5c3.79,1.15,9.8,4.72,10.75,6.5" style="fill:none;stroke:#999;stroke-width:3" />
<path d="M228.25,87.21c1.5,1.31,3.31,1.36,4.25-0.25c2.75-4.7,5.5-10.45,8-16.45" style="fill:none;stroke:black;stroke-width:3" />
<circle cx="228.25" cy="87.21" r="5" stroke-width="0" fill="#FF2A00" opacity="0.7" />
<path d="M343.38,19.5c3.48,1.34,8.99,5.51,9.87,7.59" style="fill:none;stroke:#999;stroke-width:3" />
<path d="M338.25,42.5c3.79,1.15,9.8,4.72,10.75,6.5" style="fill:none;stroke:#999;stroke-width:3" />
<path d="M337.25,87.21c1.5,1.31,3.31,1.36,4.25-0.25c2.75-4.7,5.5-10.45,8-16.45" style="fill:none;stroke:#999;stroke-width:3" />
<path d="M373.49,13.5c0.39,0.9,0.26,1.89,0.04,2.81c-0.77,3.23-3.45,8.7-5.98,13.16" style="fill:none;stroke:black;stroke-width:3" />
<circle cx="373.49" cy="13.5" r="5" stroke-width="0" fill="#FF2A00" opacity="0.7" />
<path d="M452.38,19.5c3.48,1.34,8.99,5.51,9.87,7.59" style="fill:none;stroke:#999;stroke-width:3" />
<path d="M447.25,42.5c3.79,1.15,9.8,4.72,10.75,6.5" style="fill:none;stroke:#999;stroke-width:3" />
<path d="M446.25,87.21c1.5,1.31,3.31,1.36,4.25-0.25c2.75-4.7,5.5-10.45,8-16.45" style="fill:none;stroke:#999;stroke-width:3" />
<path d="M482.49,13.5c0.39,0.9,0.26,1.89,0.04,2.81c-0.77,3.23-3.45,8.7-5.98,13.16" style="fill:none;stroke:#999;stroke-width:3" />
<path d="M469.0,31.75c0.63,0.63,1.16,1.55,1.23,2.25c0.39,3.87,1.39,10.33,2.05,15.97c0.18,1.53,0.31,2.79,0.34,3.53" style="fill:none;stroke:black;stroke-width:3" />
<circle cx="469.0" cy="31.75" r="5" stroke-width="0" fill="#FF2A00" opacity="0.7" />
<path d="M561.38,19.5c3.48,1.34,8.99,5.51,9.87,7.59" style="fill:none;stroke:#999;stroke-width:3" />
<path d="M556.25,42.5c3.79,1.15,9.8,4.72,10.75,6.5" style="fill:none;stroke:#999;stroke-width:3" />
<path d="M555.25,87.21c1.5,1.31,3.31,1.36,4.25-0.25c2.75-4.7,5.5-10.45,8-16.45" style="fill:none;stroke:#999;stroke-width:3" />
<path d="M591.49,13.5c0.39,0.9,0.26,1.89,0.04,2.81c-0.77,3.23-3.45,8.7-5.98,13.16" style="fill:none;stroke:#999;stroke-width:3" />
<path d="M578.0,31.75c0.63,0.63,1.16,1.55,1.23,2.25c0.39,3.87,1.39,10.33,2.05,15.97c0.18,1.53,0.31,2.79,0.34,3.53" style="fill:none;stroke:#999;stroke-width:3" />
<path d="M579.95,33.5c2.87-0.65,14.16-3.31,18.29-4.07c2.84-0.52,5.1,0.58,4.6,3.71c-0.58,3.65-1.18,8.73-2.03,14.83c-0.18,1.27-0.36,2.57-0.56,3.9" style="fill:none;stroke:black;stroke-width:3" />
<circle cx="579.95" cy="33.5" r="5" stroke-width="0" fill="#FF2A00" opacity="0.7" />
<path d="M670.38,19.5c3.48,1.34,8.99,5.51,9.87,7.59" style="fill:none;stroke:#999;stroke-width:3" />
<path d="M665.25,42.5c3.79,1.15,9.8,4.72,10.75,6.5" style="fill:none;stroke:#999;stroke-width:3" />
<path d="M664.25,87.21c1.5,1.31,3.31,1.36,4.25-0.25c2.75-4.7,5.5-10.45,8-16.45" style="fill:none;stroke:#999;stroke-width:3" />
<path d="M700.49,13.5c0.39,0.9,0.26,1.89,0.04,2.81c-0.77,3.23-3.45,8.7-5.98,13.16" style="fill:none;stroke:#999;stroke-width:3" />
<path d="M687.0,31.75c0.63,0.63,1.16,1.55,1.23,2.25c0.39,3.87,1.39,10.33,2.05,15.97c0.18,1.53,0.31,2.79,0.34,3.53" style="fill:none;stroke:#999;stroke-width:3" />
<path d="M688.95,33.5c2.87-0.65,14.16-3.31,18.29-4.07c2.84-0.52,5.1,0.58,4.6,3.71c-0.58,3.65-1.18,8.73-2.03,14.83c-0.18,1.27-0.36,2.57-0.56,3.9" style="fill:none;stroke:#999;stroke-width:3" />
<path d="M690.31,42.35c7.06-1.23,13.06-2.23,19.62-3.16" style="fill:none;stroke:black;stroke-width:3" />
<circle cx="690.31" cy="42.35" r="5" stroke-width="0" fill="#FF2A00" opacity="0.7" />
<path d="M779.38,19.5c3.48,1.34,8.99,5.51,9.87,7.59" style="fill:none;stroke:#999;stroke-width:3" />
<path d="M774.25,42.5c3.79,1.15,9.8,4.72,10.75,6.5" style="fill:none;stroke:#999;stroke-width:3" />
<path d="M773.25,87.21c1.5,1.31,3.31,1.36,4.25-0.25c2.75-4.7,5.5-10.45,8-16.45" style="fill:none;stroke:#999;stroke-width:3" />
<path d="M809.49,13.5c0.39,0.9,0.26,1.89,0.04,2.81c-0.77,3.23-3.45,8.7-5.98,13.16" style="fill:none;stroke:#999;stroke-width:3" />
<path d="M796.0,31.75c0.63,0.63,1.16,1.55,1.23,2.25c0.39,3.87,1.39,10.33,2.05,15.97c0.18,1.53,0.31,2.79,0.34,3.53" style="fill:none;stroke:#999;stroke-width:3" />
<path d="M797.95,33.5c2.87-0.65,14.16-3.31,18.29-4.07c2.84-0.52,5.1,0.58,4.6,3.71c-0.58,3.65-1.18,8.73-2.03,14.83c-0.18,1.27-0.36,2.57-0.56,3.9" style="fill:none;stroke:#999;stroke-width:3" />
<path d="M799.31,42.35c7.06-1.23,13.06-2.23,19.62-3.16" style="fill:none;stroke:#999;stroke-width:3" />
<path d="M801.23,51.53C807.25,50.75 811.0,50 817.66,49.29" style="fill:none;stroke:black;stroke-width:3" />
<circle cx="801.23" cy="51.53" r="5" stroke-width="0" fill="#FF2A00" opacity="0.7" />
<path d="M888.38,19.5c3.48,1.34,8.99,5.51,9.87,7.59" style="fill:none;stroke:#999;stroke-width:3" />
<path d="M883.25,42.5c3.79,1.15,9.8,4.72,10.75,6.5" style="fill:none;stroke:#999;stroke-width:3" />
<path d="M882.25,87.21c1.5,1.31,3.31,1.36,4.25-0.25c2.75-4.7,5.5-10.45,8-16.45" style="fill:none;stroke:#999;stroke-width:3" />
<path d="M918.49,13.5c0.39,0.9,0.26,1.89,0.04,2.81c-0.77,3.23-3.45,8.7-5.98,13.16" style="fill:none;stroke:#999;stroke-width:3" />
<path d="M905.0,31.75c0.63,0.63,1.16,1.55,1.23,2.25c0.39,3.87,1.39,10.33,2.05,15.97c0.18,1.53,0.31,2.79,0.34,3.53" style="fill:none;stroke:#999;stroke-width:3" />
<path d="M906.95,33.5c2.87-0.65,14.16-3.31,18.29-4.07c2.84-0.52,5.1,0.58,4.6,3.71c-0.58,3.65-1.18,8.73-2.03,14.83c-0.18,1.27-0.36,2.57-0.56,3.9" style="fill:none;stroke:#999;stroke-width:3" />
<path d="M908.31,42.35c7.06-1.23,13.06-2.23,19.62-3.16" style="fill:none;stroke:#999;stroke-width:3" />
<path d="M910.23,51.53C916.25,50.75 920.0,50 926.66,49.29" style="fill:none;stroke:#999;stroke-width:3" />
<path d="M916.58,54c0.9,0.9,1.28,2.25,1.28,3.48c0,2.66-0.09,2.27-0.09,4.75" style="fill:none;stroke:black;stroke-width:3" />
<circle cx="916.58" cy="54.0" r="5" stroke-width="0" fill="#FF2A00" opacity="0.7" />
<path d="M997.38,19.5c3.48,1.34,8.99,5.51,9.87,7.59" style="fill:none;stroke:#999;stroke-width:3" />
<path d="M992.25,42.5c3.79,1.15,9.8,4.72,10.75,6.5" style="fill:none;stroke:#999;stroke-width:3" />
<path d="M991.25,87.21c1.5,1.31,3.31,1.36,4.25-0.25c2.75-4.7,5.5-10.45,8-16.45" style="fill:none;stroke:#999;stroke-width:3" />
<path d="M1027.49,13.5c0.39,0.9,0.26,1.89,0.04,2.81c-0.77,3.23-3.45,8.7-5.98,13.16" style="fill:none;stroke:#999;stroke-width:3" />
<path d="M1014.0,31.75c0.63,0.63,1.16,1.55,1.23,2.25c0.39,3.87,1.39,10.33,2.05,15.97c0.18,1.53,0.31,2.79,0.34,3.53" style="fill:none;stroke:#999;stroke-width:3" />
<path d="M1015.95,33.5c2.87-0.65,14.16-3.31,18.29-4.07c2.84-0.52,5.1,0.58,4.6,3.71c-0.58,3.65-1.18,8.73-2.03,14.83c-0.18,1.27-0.36,2.57-0.56,3.9" style="fill:none;stroke:#999;stroke-width:3" />
<path d="M1017.31,42.35c7.06-1.23,13.06-2.23,19.62-3.16" style="fill:none;stroke:#999;stroke-width:3" />
<path d="M1019.23,51.53C1025.25,50.75 1029.0,50 1035.6599999999999,49.29" style="fill:none;stroke:#999;stroke-width:3" />
<path d="M1025.58,54c0.9,0.9,1.28,2.25,1.28,3.48c0,2.66-0.09,2.27-0.09,4.75" style="fill:none;stroke:#999;stroke-width:3" />
<path d="M1010.19,65.19c2.01,0.14,4.04,0.3,6.07,0.03c6.8-0.91,16.37-2.72,23.14-4.15c1.37-0.29,2.85-0.32,3.91-0.08" style="fill:none;stroke:black;stroke-width:3" />
<circle cx="1010.19" cy="65.19" r="5" stroke-width="0" fill="#FF2A00" opacity="0.7" />
<path d="M1106.38,19.5c3.48,1.34,8.99,5.51,9.87,7.59" style="fill:none;stroke:#999;stroke-width:3" />
<path d="M1101.25,42.5c3.79,1.15,9.8,4.72,10.75,6.5" style="fill:none;stroke:#999;stroke-width:3" />
<path d="M1100.25,87.21c1.5,1.31,3.31,1.36,4.25-0.25c2.75-4.7,5.5-10.45,8-16.45" style="fill:none;stroke:#999;stroke-width:3" />
<path d="M1136.49,13.5c0.39,0.9,0.26,1.89,0.04,2.81c-0.77,3.23-3.45,8.7-5.98,13.16" style="fill:none;stroke:#999;stroke-width:3" />
<path d="M1123.0,31.75c0.63,0.63,1.16,1.55,1.23,2.25c0.39,3.87,1.39,10.33,2.05,15.97c0.18,1.53,0.31,2.79,0.34,3.53" style="fill:none;stroke:#999;stroke-width:3" />
<path d="M1124.95,33.5c2.87-0.65,14.16-3.31,18.29-4.07c2.84-0.52,5.1,0.58,4.6,3.71c-0.58,3.65-1.18,8.73-2.03,14.83c-0.18,1.27-0.36,2.57-0.56,3.9" style="fill:none;stroke:#999;stroke-width:3" />
<path d="M1126.31,42.35c7.06-1.23,13.06-2.23,19.62-3.16" style="fill:none;stroke:#999;stroke-width:3" />
<path d="M1128.23,51.53C1134.25,50.75 1138.0,50 1144.6599999999999,49.29" style="fill:none;stroke:#999;stroke-width:3" />
<path d="M1134.58,54c0.9,0.9,1.28,2.25,1.28,3.48c0,2.66-0.09,2.27-0.09,4.75" style="fill:none;stroke:#999;stroke-width:3" />
<path d="M1119.19,65.19c2.01,0.14,4.04,0.3,6.07,0.03c6.8-0.91,16.37-2.72,23.14-4.15c1.37-0.29,2.85-0.32,3.91-0.08" style="fill:none;stroke:#999;stroke-width:3" />
<path d="M1134.15,71.77c2.1,0.6,6.76,1.77,8.98,2.29c1.37,0.32,2.12,1.44,1.74,3.27C1144.2,80.52 1140.5,88.5 1138.01,92c-2.31,3.24-4.51,0.62-5.42-0.24" style="fill:none;stroke:black;stroke-width:3" />
<circle cx="1134.15" cy="71.77" r="5" stroke-width="0" fill="#FF2A00" opacity="0.7" />
<path d="M1215.38,19.5c3.48,1.34,8.99,5.51,9.87,7.59" style="fill:none;stroke:#999;stroke-width:3" />
<path d="M1210.25,42.5c3.79,1.15,9.8,4.72,10.75,6.5" style="fill:none;stroke:#999;stroke-width:3" />
<path d="M1209.25,87.21c1.5,1.31,3.31,1.36,4.25-0.25c2.75-4.7,5.5-10.45,8-16.45" style="fill:none;stroke:#999;stroke-width:3" />
<path d="M1245.49,13.5c0.39,0.9,0.26,1.89,0.04,2.81c-0.77,3.23-3.45,8.7-5.98,13.16" style="fill:none;stroke:#999;stroke-width:3" />
<path d="M1232.0,31.75c0.63,0.63,1.16,1.55,1.23,2.25c0.39,3.87,1.39,10.33,2.05,15.97c0.18,1.53,0.31,2.79,0.34,3.53" style="fill:none;stroke:#999;stroke-width:3" />
<path d="M1233.95,33.5c2.87-0.65,14.16-3.31,18.29-4.07c2.84-0.52,5.1,0.58,4.6,3.71c-0.58,3.65-1.18,8.73-2.03,14.83c-0.18,1.27-0.36,2.57-0.56,3.9" style="fill:none;stroke:#999;stroke-width:3" />
<path d="M1235.31,42.35c7.06-1.23,13.06-2.23,19.62-3.16" style="fill:none;stroke:#999;stroke-width:3" />
<path d="M1237.23,51.53C1243.25,50.75 1247.0,50 1253.6599999999999,49.29" style="fill:none;stroke:#999;stroke-width:3" />
<path d="M1243.58,54c0.9,0.9,1.28,2.25,1.28,3.48c0,2.66-0.09,2.27-0.09,4.75" style="fill:none;stroke:#999;stroke-width:3" />
<path d="M1228.19,65.19c2.01,0.14,4.04,0.3,6.07,0.03c6.8-0.91,16.37-2.72,23.14-4.15c1.37-0.29,2.85-0.32,3.91-0.08" style="fill:none;stroke:#999;stroke-width:3" />
<path d="M1243.15,71.77c2.1,0.6,6.76,1.77,8.98,2.29c1.37,0.32,2.12,1.44,1.74,3.27C1253.2,80.52 1249.5,88.5 1247.01,92c-2.31,3.24-4.51,0.62-5.42-0.24" style="fill:none;stroke:#999;stroke-width:3" />
<path d="M1243.26,67.23c0.13,1.5-0.25,2.83-0.96,4.17c-3.43,6.51-7.7,12.7-18.67,20.79" style="fill:none;stroke:black;stroke-width:3" />
<circle cx="1243.26" cy="67.23" r="5" stroke-width="0" fill="#FF2A00" opacity="0.7" />
<path d="M1324.38,19.5c3.48,1.34,8.99,5.51,9.87,7.59" style="fill:none;stroke:#999;stroke-width:3" />
<path d="M1319.25,42.5c3.79,1.15,9.8,4.72,10.75,6.5" style="fill:none;stroke:#999;stroke-width:3" />
<path d="M1318.25,87.21c1.5,1.31,3.31,1.36,4.25-0.25c2.75-4.7,5.5-10.45,8-16.45" style="fill:none;stroke:#999;stroke-width:3" />
<path d="M1354.49,13.5c0.39,0.9,0.26,1.89,0.04,2.81c-0.77,3.23-3.45,8.7-5.98,13.16" style="fill:none;stroke:#999;stroke-width:3" />
<path d="M1341.0,31.75c0.63,0.63,1.16,1.55,1.23,2.25c0.39,3.87,1.39,10.33,2.05,15.97c0.18,1.53,0.31,2.79,0.34,3.53" style="fill:none;stroke:#999;stroke-width:3" />
<path d="M1342.95,33.5c2.87-0.65,14.16-3.31,18.29-4.07c2.84-0.52,5.1,0.58,4.6,3.71c-0.58,3.65-1.18,8.73-2.03,14.83c-0.18,1.27-0.36,2.57-0.56,3.9" style="fill:none;stroke:#999;stroke-width:3" />
<path d="M1344.31,42.35c7.06-1.23,13.06-2.23,19.62-3.16" style="fill:none;stroke:#999;stroke-width:3" />
<path d="M1346.23,51.53C1352.25,50.75 1356.0,50 1362.6599999999999,49.29" style="fill:none;stroke:#999;stroke-width:3" />
<path d="M1352.58,54c0.9,0.9,1.28,2.25,1.28,3.48c0,2.66-0.09,2.27-0.09,4.75" style="fill:none;stroke:#999;stroke-width:3" />
<path d="M1337.19,65.19c2.01,0.14,4.04,0.3,6.07,0.03c6.8-0.91,16.37-2.72,23.14-4.15c1.37-0.29,2.85-0.32,3.91-0.08" style="fill:none;stroke:#999;stroke-width:3" />
<path d="M1352.15,71.77c2.1,0.6,6.76,1.77,8.98,2.29c1.37,0.32,2.12,1.44,1.74,3.27C1362.2,80.52 1358.5,88.5 1356.01,92c-2.31,3.24-4.51,0.62-5.42-0.24" style="fill:none;stroke:#999;stroke-width:3" />
<path d="M1352.26,67.23c0.13,1.5-0.25,2.83-0.96,4.17c-3.43,6.51-7.7,12.7-18.67,20.79" style="fill:none;stroke:#999;stroke-width:3" />
<path d="M1382.02,16.39c0.61,0.98,0.75,2.23,0.43,3.52c-2.07,8.33-6.2,23.33-13.7,34.83" style="fill:none;stroke:black;stroke-width:3" />
<circle cx="1382.02" cy="16.39" r="5" stroke-width="0" fill="#FF2A00" opacity="0.7" />
<path d="M1433.38,19.5c3.48,1.34,8.99,5.51,9.87,7.59" style="fill:none;stroke:#999;stroke-width:3" />
<path d="M1428.25,42.5c3.79,1.15,9.8,4.72,10.75,6.5" style="fill:none;stroke:#999;stroke-width:3" />
<path d="M1427.25,87.21c1.5,1.31,3.31,1.36,4.25-0.25c2.75-4.7,5.5-10.45,8-16.45" style="fill:none;stroke:#999;stroke-width:3" />
<path d="M1463.49,13.5c0.39,0.9,0.26,1.89,0.04,2.81c-0.77,3.23-3.45,8.7-5.98,13.16" style="fill:none;stroke:#999;stroke-width:3" />
<path d="M1450.0,31.75c0.63,0.63,1.16,1.55,1.23,2.25c0.39,3.87,1.39,10.33,2.05,15.97c0.18,1.53,0.31,2.79,0.34,3.53" style="fill:none;stroke:#999;stroke-width:3" />
<path d="M1451.95,33.5c2.87-0.65,14.16-3.31,18.29-4.07c2.84-0.52,5.1,0.58,4.6,3.71c-0.58,3.65-1.18,8.73-2.03,14.83c-0.18,1.27-0.36,2.57-0.56,3.9" style="fill:none;stroke:#999;stroke-width:3" />
<path d="M1453.31,42.35c7.06-1.23,13.06-2.23,19.62-3.16" style="fill:none;stroke:#999;stroke-width:3" />
<path d="M1455.23,51.53C1461.25,50.75 1465.0,50 1471.6599999999999,49.29" style="fill:none;stroke:#999;stroke-width:3" />
<path d="M1461.58,54c0.9,0.9,1.28,2.25,1.28,3.48c0,2.66-0.09,2.27-0.09,4.75" style="fill:none;stroke:#999;stroke-width:3" />
<path d="M1446.19,65.19c2.01,0.14,4.04,0.3,6.07,0.03c6.8-0.91,16.37-2.72,23.14-4.15c1.37-0.29,2.85-0.32,3.91-0.08" style="fill:none;stroke:#999;stroke-width:3" />
<path d="M1461.15,71.77c2.1,0.6,6.76,1.77,8.98,2.29c1.37,0.32,2.12,1.44,1.74,3.27C1471.2,80.52 1467.5,88.5 1465.01,92c-2.31,3.24-4.51,0.62-5.42-0.24" style="fill:none;stroke:#999;stroke-width:3" />
<path d="M1461.26,67.23c0.13,1.5-0.25,2.83-0.96,4.17c-3.43,6.51-7.7,12.7-18.67,20.79" style="fill:none;stroke:#999;stroke-width:3" />
<path d="M1491.02,16.39c0.61,0.98,0.75,2.23,0.43,3.52c-2.07,8.33-6.2,23.33-13.7,34.83" style="fill:none;stroke:#999;stroke-width:3" />
<path d="M1487.53,42.61c0.97,0.02,1.98-0.09,2.42-0.13c3.96-0.37,11.65-3.1,16.24-4.79c1.18-0.43,2.43-0.56,3.58-0.35" style="fill:none;stroke:black;stroke-width:3" />
<circle cx="1487.53" cy="42.61" r="5" stroke-width="0" fill="#FF2A00" opacity="0.7" />
<path d="M1542.38,19.5c3.48,1.34,8.99,5.51,9.87,7.59" style="fill:none;stroke:#999;stroke-width:3" />
<path d="M1537.25,42.5c3.79,1.15,9.8,4.72,10.75,6.5" style="fill:none;stroke:#999;stroke-width:3" />
<path d="M1536.25,87.21c1.5,1.31,3.31,1.36,4.25-0.25c2.75-4.7,5.5-10.45,8-16.45" style="fill:none;stroke:#999;stroke-width:3" />
<path d="M1572.49,13.5c0.39,0.9,0.26,1.89,0.04,2.81c-0.77,3.23-3.45,8.7-5.98,13.16" style="fill:none;stroke:#999;stroke-width:3" />
<path d="M1559.0,31.75c0.63,0.63,1.16,1.55,1.23,2.25c0.39,3.87,1.39,10.33,2.05,15.97c0.18,1.53,0.31,2.79,0.34,3.53" style="fill:none;stroke:#999;stroke-width:3" />
<path d="M1560.95,33.5c2.87-0.65,14.16-3.31,18.29-4.07c2.84-0.52,5.1,0.58,4.6,3.71c-0.58,3.65-1.18,8.73-2.03,14.83c-0.18,1.27-0.36,2.57-0.56,3.9" style="fill:none;stroke:#999;stroke-width:3" />
<path d="M1562.31,42.35c7.06-1.23,13.06-2.23,19.62-3.16" style="fill:none;stroke:#999;stroke-width:3" />
<path d="M1564.23,51.53C1570.25,50.75 1574.0,50 1580.6599999999999,49.29" style="fill:none;stroke:#999;stroke-width:3" />
<path d="M1570.58,54c0.9,0.9,1.28,2.25,1.28,3.48c0,2.66-0.09,2.27-0.09,4.75" style="fill:none;stroke:#999;stroke-width:3" />
<path d="M1555.19,65.19c2.01,0.14,4.04,0.3,6.07,0.03c6.8-0.91,16.37-2.72,23.14-4.15c1.37-0.29,2.85-0.32,3.91-0.08" style="fill:none;stroke:#999;stroke-width:3" />
<path d="M1570.15,71.77c2.1,0.6,6.76,1.77,8.98,2.29c1.37,0.32,2.12,1.44,1.74,3.27C1580.2,80.52 1576.5,88.5 1574.01,92c-2.31,3.24-4.51,0.62-5.42-0.24" style="fill:none;stroke:#999;stroke-width:3" />
<path d="M1570.26,67.23c0.13,1.5-0.25,2.83-0.96,4.17c-3.43,6.51-7.7,12.7-18.67,20.79" style="fill:none;stroke:#999;stroke-width:3" />
<path d="M1600.02,16.39c0.61,0.98,0.75,2.23,0.43,3.52c-2.07,8.33-6.2,23.33-13.7,34.83" style="fill:none;stroke:#999;stroke-width:3" />
<path d="M1596.53,42.61c0.97,0.02,1.98-0.09,2.42-0.13c3.96-0.37,11.65-3.1,16.24-4.79c1.18-0.43,2.43-0.56,3.58-0.35" style="fill:none;stroke:#999;stroke-width:3" />
<path d="M1610.23,43.43c0.42,1.23,0.65,2.12,0.21,4.38c-4.03,20.51-11.19,34.82-26.96,45.94" style="fill:none;stroke:black;stroke-width:3" />
<circle cx="1610.23" cy="43.43" r="5" stroke-width="0" fill="#FF2A00" opacity="0.7" />
<path d="M1651.38,19.5c3.48,1.34,8.99,5.51,9.87,7.59" style="fill:none;stroke:#999;stroke-width:3" />
<path d="M1646.25,42.5c3.79,1.15,9.8,4.72,10.75,6.5" style="fill:none;stroke:#999;stroke-width:3" />
<path d="M1645.25,87.21c1.5,1.31,3.31,1.36,4.25-0.25c2.75-4.7,5.5-10.45,8-16.45" style="fill:none;stroke:#999;stroke-width:3" />
<path d="M1681.49,13.5c0.39,0.9,0.26,1.89,0.04,2.81c-0.77,3.23-3.45,8.7-5.98,13.16" style="fill:none;stroke:#999;stroke-width:3" />
<path d="M1668.0,31.75c0.63,0.63,1.16,1.55,1.23,2.25c0.39,3.87,1.39,10.33,2.05,15.97c0.18,1.53,0.31,2.79,0.34,3.53" style="fill:none;stroke:#999;stroke-width:3" />
<path d="M1669.95,33.5c2.87-0.65,14.16-3.31,18.29-4.07c2.84-0.52,5.1,0.58,4.6,3.71c-0.58,3.65-1.18,8.73-2.03,14.83c-0.18,1.27-0.36,2.57-0.56,3.9" style="fill:none;stroke:#999;stroke-width:3" />
<path d="M1671.31,42.35c7.06-1.23,13.06-2.23,19.62-3.16" style="fill:none;stroke:#999;stroke-width:3" />
<path d="M1673.23,51.53C1679.25,50.75 1683.0,50 1689.6599999999999,49.29" style="fill:none;stroke:#999;stroke-width:3" />
<path d="M1679.58,54c0.9,0.9,1.28,2.25,1.28,3.48c0,2.66-0.09,2.27-0.09,4.75" style="fill:none;stroke:#999;stroke-width:3" />
<path d="M1664.19,65.19c2.01,0.14,4.04,0.3,6.07,0.03c6.8-0.91,16.37-2.72,23.14-4.15c1.37-0.29,2.85-0.32,3.91-0.08" style="fill:none;stroke:#999;stroke-width:3" />
<path d="M1679.15,71.77c2.1,0.6,6.76,1.77,8.98,2.29c1.37,0.32,2.12,1.44,1.74,3.27C1689.2,80.52 1685.5,88.5 1683.01,92c-2.31,3.24-4.51,0.62-5.42-0.24" style="fill:none;stroke:#999;stroke-width:3" />
<path d="M1679.26,67.23c0.13,1.5-0.25,2.83-0.96,4.17c-3.43,6.51-7.7,12.7-18.67,20.79" style="fill:none;stroke:#999;stroke-width:3" />
<path d="M1709.02,16.39c0.61,0.98,0.75,2.23,0.43,3.52c-2.07,8.33-6.2,23.33-13.7,34.83" style="fill:none;stroke:#999;stroke-width:3" />
<path d="M1705.53,42.61c0.97,0.02,1.98-0.09,2.42-0.13c3.96-0.37,11.65-3.1,16.24-4.79c1.18-0.43,2.43-0.56,3.58-0.35" style="fill:none;stroke:#999;stroke-width:3" />
<path d="M1719.23,43.43c0.42,1.23,0.65,2.12,0.21,4.38c-4.03,20.51-11.19,34.82-26.96,45.94" style="fill:none;stroke:#999;stroke-width:3" />
<path d="M1703.5,52.4c4.13,8.85,11.38,22.98,19.48,33.5c1.24,1.61,4.02,4.73,5.52,6.2" style="fill:none;stroke:black;stroke-width:3" />
<circle cx="1703.5" cy="52.4" r="5" stroke-width="0" fill="#FF2A00" opacity="0.7" />
</svg>