<!-- 0700f -->
<svg width="1962px" height="109px" viewBox="0 0 1962px 109px" xmlns="http://www.w3.org/2000/svg" xmlns:xlink="http://www.w3.org/1999/xlink" xml:space="preserve" version="1.1"  baseProfile="full">
<line x1="1" y1="1" x2="1961" y2="1" style="stroke:#ddd;stroke-width:2" />
<line x1="1" y1="1" x2="1" y2="108" style="stroke:#ddd;stroke-width:2" />
<line x1="1" y1="108" x2="1961" y2="108" style="stroke:#ddd;stroke-width:2" />
<line x1="1961" y1="1" x2="1961" y2="108" style="stroke:#ddd;stroke-width:2" />
<line x1="109" y1="1" x2="109" y2="108" style="stroke:#ddd;stroke-width:2" />
<line x1="218" y1="1" x2="218" y2="108" style="stroke:#ddd;stroke-width:2" />
<line x1="327" y1="1" x2="327" y2="108" style="stroke:#ddd;stroke-width:2" />
<line x1="436" y1="1" x2="436" y2="108" style="stroke:#ddd;stroke-width:2" />
<line x1="545" y1="1" x2="545" y2="108" style="stroke:#ddd;stroke-width:2" />
<line x1="654" y1="1" x2="654" y2="108" style="stroke:#ddd;stroke-width:2" />
<line x1="763" y1="1" x2="763" y2="108" style="stroke:#ddd;stroke-width:2" />
<line x1="872" y1="1" x2="872" y2="108" style="stroke:#ddd;stroke-width:2" />
<line x1="981" y1="1" x2="981" y2="108" style="stroke:#ddd;stroke-width:2" />
<line x1="1090" y1="1" x2="1090" y2="108" style="stroke:#ddd;stroke-width:2" />
<line x1="1199" y1="1" x2="1199" y2="108" style="stroke:#ddd;stroke-width:2" />
<line x1="1308" y1="1" x2="1308" y2="108" style="stroke:#ddd;stroke-width:2" />
<line x1="1417" y1="1" x2="1417" y2="108" style="stroke:#ddd;stroke-width:2" />
<line x1="1526" y1="1" x2="1526" y2="108" style="stroke:#ddd;stroke-width:2" />
<line x1="1635" y1="1" x2="1635" y2="108" style="stroke:#ddd;stroke-width:2" />
<line x1="1744" y1="1" x2="1744" y2="108" style="stroke:#ddd;stroke-width:2" />
<line x1="1853" y1="1" x2="1853" y2="108" style="stroke:#ddd;stroke-width:2" />
<line x1="1" y1="54" x2="1961" y2="54" style="stroke:#ddd;stroke-width:2;stroke-dasharray:3 3" />
<line x1="55" y1="1" x2="55" y2="108" style="stroke:#ddd;stroke-width:2;stroke-dasharray:3 3" />
<line x1="164" y1="1" x2="164" y2="108" style="stroke:#ddd;stroke-width:2;stroke-dasharray:3 3" />
<line x1="273" y1="1" x2="273" y2="108" style="stroke:#ddd;stroke-width:2;stroke-dasharray:3 3" />
<line x1="382" y1="1" x2="382" y2="108" style="stroke:#ddd;stroke-width:2;stroke-dasharray:3 3" />
<line x1="491" y1="1" x2="491" y2="108" style="stroke:#ddd;stroke-width:2;stroke-dasharray:3 3" />
<line x1="600" y1="1" x2="600" y2="108" style="stroke:#ddd;stroke-width:2;stroke-dasharray:3 3" />
<line x1="709" y1="1" x2="709" y2="108" style="stroke:#ddd;stroke-width:2;stroke-dasharray:3 3" />
<line x1="818" y1="1" x2="818" y2="108" style="stroke:#ddd;stroke-width:2;stroke-dasharray:3 3" />
<line x1="927" y1="1" x2="927" y2="108" style="stroke:#ddd;stroke-width:2;stroke-dasharray:3 3" />
<line x1="1036" y1="1" x2="1036" y2="108" style="stroke:#ddd;stroke-width:2;stroke-dasharray:3 3" />
<line x1="1145" y1="1" x2="1145" y2="108" style="stroke:#ddd;stroke-width:2;stroke-dasharray:3 3" />
<line x1="1254" y1="1" x2="1254" y2="108" style="stroke:#ddd;stroke-width:2;stroke-dasharray:3 3" />
<line x1="1363" y1="1" x2="1363" y2="108" style="stroke:#ddd;stroke-width:2;stroke-dasharray:3 3" />
<line x1="1472" y1="1" x2="1472" y2="108" style="stroke:#ddd;stroke-width:2;stroke-dasharray:3 3" />
<line x1="1581" y1="1" x2="1581" y2="108" style="stroke:#ddd;stroke-width:2;stroke-dasharray:3 3" />
<line x1="1690" y1="1" x2="1690" y2="108" style="stroke:#ddd;stroke-width:2;stroke-dasharray:3 3" />
<line x1="1799" y1="1" x2="1799" y2="108" style="stroke:#ddd;stroke-width:2;stroke-dasharray:3 3" />
<line x1="1908" y1="1" x2="1908" y2="108" style="stroke:#ddd;stroke-width:2;stroke-dasharray:3 3" />
<path d="M15.88,15.25c4.01,1.47,10.36,6.05,11.37,8.34" style="fill:none;stroke:black;stroke-width:3" />
<circle cx="15.88" cy="15.25" r="5" stroke-width="0" fill="#FF2A00" opacity="0.7" />
<path d="M124.88,15.25c4.01,1.47,10.36,6.05,11.37,8.34" style="fill:none;stroke:#999;stroke-width:3" />
<path d="M122.75,40.25c4.32,1.63,11.17,6.71,12.25,9.25" style="fill:none;stroke:black;stroke-width:3" />
<circle cx="122.75" cy="40.25" r="5" stroke-width="0" fill="#FF2A00" opacity="0.7" />
<path d="M233.88,15.25c4.01,1.47,10.36,6.05,11.37,8.34" style="fill:none;stroke:#999;stroke-width:3" />
<path d="M231.75,40.25c4.32,1.63,11.17,6.71,12.25,9.25" style="fill:none;stroke:#999;stroke-width:3" />
<path d="M231.25,88.65c2,0.35,3.37,0.44,4.34-1.27c2.81-4.97,5.61-11.04,8.16-17.38" style="fill:none;stroke:black;stroke-width:3" />
<circle cx="231.25" cy="88.65" r="5" stroke-width="0" fill="#FF2A00" opacity="0.7" />
<path d="M342.88,15.25c4.01,1.47,10.36,6.05,11.37,8.34" style="fill:none;stroke:#999;stroke-width:3" />
<path d="M340.75,40.25c4.32,1.63,11.17,6.71,12.25,9.25" style="fill:none;stroke:#999;stroke-width:3" />
<path d="M340.25,88.65c2,0.35,3.37,0.44,4.34-1.27c2.81-4.97,5.61-11.04,8.16-17.38" style="fill:none;stroke:#999;stroke-width:3" />
<path d="M376.17,13.91c0.03,0.26,0.13,0.75-0.07,1.04c-2.49,3.66-6.16,7.01-12.65,9.96" style="fill:none;stroke:black;stroke-width:3" />
<circle cx="376.17" cy="13.91" r="5" stroke-width="0" fill="#FF2A00" opacity="0.7" />
<path d="M451.88,15.25c4.01,1.47,10.36,6.05,11.37,8.34" style="fill:none;stroke:#999;stroke-width:3" />
<path d="M449.75,40.25c4.32,1.63,11.17,6.71,12.25,9.25" style="fill:none;stroke:#999;stroke-width:3" />
<path d="M449.25,88.65c2,0.35,3.37,0.44,4.34-1.27c2.81-4.97,5.61-11.04,8.16-17.38" style="fill:none;stroke:#999;stroke-width:3" />
<path d="M485.17,13.91c0.03,0.26,0.13,0.75-0.07,1.04c-2.49,3.66-6.16,7.01-12.65,9.96" style="fill:none;stroke:#999;stroke-width:3" />
<path d="M470.15999999999997,24.94c0.39,0.33,0.62,1.48,0.69,2.14c0.08,0.66,0.36,14.9,0.08,16.51C470.5,46 472.0,46 473.75,44.25c1.04-1.04,6.75-6.75,10.19-10.09" style="fill:none;stroke:black;stroke-width:3" />
<circle cx="470.15999999999997" cy="24.94" r="5" stroke-width="0" fill="#FF2A00" opacity="0.7" />
<path d="M560.88,15.25c4.01,1.47,10.36,6.05,11.37,8.34" style="fill:none;stroke:#999;stroke-width:3" />
<path d="M558.75,40.25c4.32,1.63,11.17,6.71,12.25,9.25" style="fill:none;stroke:#999;stroke-width:3" />
<path d="M558.25,88.65c2,0.35,3.37,0.44,4.34-1.27c2.81-4.97,5.61-11.04,8.16-17.38" style="fill:none;stroke:#999;stroke-width:3" />
<path d="M594.1700000000001,13.91c0.03,0.26,0.13,0.75-0.07,1.04c-2.49,3.66-6.16,7.01-12.65,9.96" style="fill:none;stroke:#999;stroke-width:3" />
<path d="M579.16,24.94c0.39,0.33,0.62,1.48,0.69,2.14c0.08,0.66,0.36,14.9,0.08,16.51C579.5,46 581.0,46 582.75,44.25c1.04-1.04,6.75-6.75,10.19-10.09" style="fill:none;stroke:#999;stroke-width:3" />
<path d="M588.62,29.13c3.51,2.74,5.75,6.79,7.09,10.78" style="fill:none;stroke:black;stroke-width:3" />
<circle cx="588.62" cy="29.13" r="5" stroke-width="0" fill="#FF2A00" opacity="0.7" />
<path d="M669.88,15.25c4.01,1.47,10.36,6.05,11.37,8.34" style="fill:none;stroke:#999;stroke-width:3" />
<path d="M667.75,40.25c4.32,1.63,11.17,6.71,12.25,9.25" style="fill:none;stroke:#999;stroke-width:3" />
<path d="M667.25,88.65c2,0.35,3.37,0.44,4.34-1.27c2.81-4.97,5.61-11.04,8.16-17.38" style="fill:none;stroke:#999;stroke-width:3" />
<path d="M703.1700000000001,13.91c0.03,0.26,0.13,0.75-0.07,1.04c-2.49,3.66-6.16,7.01-12.65,9.96" style="fill:none;stroke:#999;stroke-width:3" />
<path d="M688.16,24.94c0.39,0.33,0.62,1.48,0.69,2.14c0.08,0.66,0.36,14.9,0.08,16.51C688.5,46 690.0,46 691.75,44.25c1.04-1.04,6.75-6.75,10.19-10.09" style="fill:none;stroke:#999;stroke-width:3" />
<path d="M697.62,29.13c3.51,2.74,5.75,6.79,7.09,10.78" style="fill:none;stroke:#999;stroke-width:3" />
<path d="M705.65,22.12c0.67,0.29,4.26,0.26,4.85,0.16c4.8-0.81,9.21-2.38,11.88-2.68c1.73-0.19,2.17,1.68,2.07,3.04c-0.25,3.6-3.17,16.13-5.53,20.26c-1.71,3-2.71,2.04-4,0.09" style="fill:none;stroke:black;stroke-width:3" />
<circle cx="705.65" cy="22.12" r="5" stroke-width="0" fill="#FF2A00" opacity="0.7" />
<path d="M778.88,15.25c4.01,1.47,10.36,6.05,11.37,8.34" style="fill:none;stroke:#999;stroke-width:3" />
<path d="M776.75,40.25c4.32,1.63,11.17,6.71,12.25,9.25" style="fill:none;stroke:#999;stroke-width:3" />
<path d="M776.25,88.65c2,0.35,3.37,0.44,4.34-1.27c2.81-4.97,5.61-11.04,8.16-17.38" style="fill:none;stroke:#999;stroke-width:3" />
<path d="M812.1700000000001,13.91c0.03,0.26,0.13,0.75-0.07,1.04c-2.49,3.66-6.16,7.01-12.65,9.96" style="fill:none;stroke:#999;stroke-width:3" />
<path d="M797.16,24.94c0.39,0.33,0.62,1.48,0.69,2.14c0.08,0.66,0.36,14.9,0.08,16.51C797.5,46 799.0,46 800.75,44.25c1.04-1.04,6.75-6.75,10.19-10.09" style="fill:none;stroke:#999;stroke-width:3" />
<path d="M806.62,29.13c3.51,2.74,5.75,6.79,7.09,10.78" style="fill:none;stroke:#999;stroke-width:3" />
<path d="M814.65,22.12c0.67,0.29,4.26,0.26,4.85,0.16c4.8-0.81,9.21-2.38,11.88-2.68c1.73-0.19,2.17,1.68,2.07,3.04c-0.25,3.6-3.17,16.13-5.53,20.26c-1.71,3-2.71,2.04-4,0.09" style="fill:none;stroke:#999;stroke-width:3" />
<path d="M822.7,24.55c0.02,0.42,0.05,1.12-0.04,1.69c-1.15,7.01-2.4,11.01-6.77,16.2" style="fill:none;stroke:black;stroke-width:3" />
<circle cx="822.7" cy="24.55" r="5" stroke-width="0" fill="#FF2A00" opacity="0.7" />
<path d="M887.88,15.25c4.01,1.47,10.36,6.05,11.37,8.34" style="fill:none;stroke:#999;stroke-width:3" />
<path d="M885.75,40.25c4.32,1.63,11.17,6.71,12.25,9.25" style="fill:none;stroke:#999;stroke-width:3" />
<path d="M885.25,88.65c2,0.35,3.37,0.44,4.34-1.27c2.81-4.97,5.61-11.04,8.16-17.38" style="fill:none;stroke:#999;stroke-width:3" />
<path d="M921.1700000000001,13.91c0.03,0.26,0.13,0.75-0.07,1.04c-2.49,3.66-6.16,7.01-12.65,9.96" style="fill:none;stroke:#999;stroke-width:3" />
<path d="M906.16,24.94c0.39,0.33,0.62,1.48,0.69,2.14c0.08,0.66,0.36,14.9,0.08,16.51C906.5,46 908.0,46 909.75,44.25c1.04-1.04,6.75-6.75,10.19-10.09" style="fill:none;stroke:#999;stroke-width:3" />
<path d="M915.62,29.13c3.51,2.74,5.75,6.79,7.09,10.78" style="fill:none;stroke:#999;stroke-width:3" />
<path d="M923.65,22.12c0.67,0.29,4.26,0.26,4.85,0.16c4.8-0.81,9.21-2.38,11.88-2.68c1.73-0.19,2.17,1.68,2.07,3.04c-0.25,3.6-3.17,16.13-5.53,20.26c-1.71,3-2.71,2.04-4,0.09" style="fill:none;stroke:#999;stroke-width:3" />
<path d="M931.7,24.55c0.02,0.42,0.05,1.12-0.04,1.69c-1.15,7.01-2.4,11.01-6.77,16.2" style="fill:none;stroke:#999;stroke-width:3" />
<path d="M923.06,48.19c0,0.57,0.05,1.02-0.16,1.7C921.8,53.43 911.25,65.25 902.22,70.5" style="fill:none;stroke:black;stroke-width:3" />
<circle cx="923.06" cy="48.19" r="5" stroke-width="0" fill="#FF2A00" opacity="0.7" />
<path d="M996.88,15.25c4.01,1.47,10.36,6.05,11.37,8.34" style="fill:none;stroke:#999;stroke-width:3" />
<path d="M994.75,40.25c4.32,1.63,11.17,6.71,12.25,9.25" style="fill:none;stroke:#999;stroke-width:3" />
<path d="M994.25,88.65c2,0.35,3.37,0.44,4.34-1.27c2.81-4.97,5.61-11.04,8.16-17.38" style="fill:none;stroke:#999;stroke-width:3" />
<path d="M1030.17,13.91c0.03,0.26,0.13,0.75-0.07,1.04c-2.49,3.66-6.16,7.01-12.65,9.96" style="fill:none;stroke:#999;stroke-width:3" />
<path d="M1015.16,24.94c0.39,0.33,0.62,1.48,0.69,2.14c0.08,0.66,0.36,14.9,0.08,16.51C1015.5,46 1017.0,46 1018.75,44.25c1.04-1.04,6.75-6.75,10.19-10.09" style="fill:none;stroke:#999;stroke-width:3" />
<path d="M1024.62,29.13c3.51,2.74,5.75,6.79,7.09,10.78" style="fill:none;stroke:#999;stroke-width:3" />
<path d="M1032.65,22.12c0.67,0.29,4.26,0.26,4.85,0.16c4.8-0.81,9.21-2.38,11.88-2.68c1.73-0.19,2.17,1.68,2.07,3.04c-0.25,3.6-3.17,16.13-5.53,20.26c-1.71,3-2.71,2.04-4,0.09" style="fill:none;stroke:#999;stroke-width:3" />
<path d="M1040.7,24.55c0.02,0.42,0.05,1.12-0.04,1.69c-1.15,7.01-2.4,11.01-6.77,16.2" style="fill:none;stroke:#999;stroke-width:3" />
<path d="M1032.06,48.19c0,0.57,0.05,1.02-0.16,1.7C1030.8,53.43 1020.25,65.25 1011.22,70.5" style="fill:none;stroke:#999;stroke-width:3" />
<path d="M1033.6,53.35c6.04,1.94,13.76,7.09,16.7,11.98" style="fill:none;stroke:black;stroke-width:3" />
<circle cx="1033.6" cy="53.35" r="5" stroke-width="0" fill="#FF2A00" opacity="0.7" />
<path d="M1105.88,15.25c4.01,1.47,10.36,6.05,11.37,8.34" style="fill:none;stroke:#999;stroke-width:3" />
<path d="M1103.75,40.25c4.32,1.63,11.17,6.71,12.25,9.25" style="fill:none;stroke:#999;stroke-width:3" />
<path d="M1103.25,88.65c2,0.35,3.37,0.44,4.34-1.27c2.81-4.97,5.61-11.04,8.16-17.38" style="fill:none;stroke:#999;stroke-width:3" />
<path d="M1139.17,13.91c0.03,0.26,0.13,0.75-0.07,1.04c-2.49,3.66-6.16,7.01-12.65,9.96" style="fill:none;stroke:#999;stroke-width:3" />
<path d="M1124.1599999999999,24.94c0.39,0.33,0.62,1.48,0.69,2.14c0.08,0.66,0.36,14.9,0.08,16.51C1124.5,46 1126.0,46 1127.75,44.25c1.04-1.04,6.75-6.75,10.19-10.09" style="fill:none;stroke:#999;stroke-width:3" />
<path d="M1133.62,29.13c3.51,2.74,5.75,6.79,7.09,10.78" style="fill:none;stroke:#999;stroke-width:3" />
<path d="M1141.65,22.12c0.67,0.29,4.26,0.26,4.85,0.16c4.8-0.81,9.21-2.38,11.88-2.68c1.73-0.19,2.17,1.68,2.07,3.04c-0.25,3.6-3.17,16.13-5.53,20.26c-1.71,3-2.71,2.04-4,0.09" style="fill:none;stroke:#999;stroke-width:3" />
<path d="M1149.7,24.55c0.02,0.42,0.05,1.12-0.04,1.69c-1.15,7.01-2.4,11.01-6.77,16.2" style="fill:none;stroke:#999;stroke-width:3" />
<path d="M1141.06,48.19c0,0.57,0.05,1.02-0.16,1.7C1139.8,53.43 1129.25,65.25 1120.22,70.5" style="fill:none;stroke:#999;stroke-width:3" />
<path d="M1142.6,53.35c6.04,1.94,13.76,7.09,16.7,11.98" style="fill:none;stroke:#999;stroke-width:3" />
<path d="M1131.68,65.87c1.42,0,2.07,0.06,2.53,0.02c4.49-0.41,11.9-1.46,15.33-1.76c0.69-0.06,0.85-0.02,2.04-0.02" style="fill:none;stroke:black;stroke-width:3" />
<circle cx="1131.68" cy="65.87" r="5" stroke-width="0" fill="#FF2A00" opacity="0.7" />
<path d="M1214.88,15.25c4.01,1.47,10.36,6.05,11.37,8.34" style="fill:none;stroke:#999;stroke-width:3" />
<path d="M1212.75,40.25c4.32,1.63,11.17,6.71,12.25,9.25" style="fill:none;stroke:#999;stroke-width:3" />
<path d="M1212.25,88.65c2,0.35,3.37,0.44,4.34-1.27c2.81-4.97,5.61-11.04,8.16-17.38" style="fill:none;stroke:#999;stroke-width:3" />
<path d="M1248.17,13.91c0.03,0.26,0.13,0.75-0.07,1.04c-2.49,3.66-6.16,7.01-12.65,9.96" style="fill:none;stroke:#999;stroke-width:3" />
<path d="M1233.1599999999999,24.94c0.39,0.33,0.62,1.48,0.69,2.14c0.08,0.66,0.36,14.9,0.08,16.51C1233.5,46 1235.0,46 1236.75,44.25c1.04-1.04,6.75-6.75,10.19-10.09" style="fill:none;stroke:#999;stroke-width:3" />
<path d="M1242.62,29.13c3.51,2.74,5.75,6.79,7.09,10.78" style="fill:none;stroke:#999;stroke-width:3" />
<path d="M1250.65,22.12c0.67,0.29,4.26,0.26,4.85,0.16c4.8-0.81,9.21-2.38,11.88-2.68c1.73-0.19,2.17,1.68,2.07,3.04c-0.25,3.6-3.17,16.13-5.53,20.26c-1.71,3-2.71,2.04-4,0.09" style="fill:none;stroke:#999;stroke-width:3" />
<path d="M1258.7,24.55c0.02,0.42,0.05,1.12-0.04,1.69c-1.15,7.01-2.4,11.01-6.77,16.2" style="fill:none;stroke:#999;stroke-width:3" />
<path d="M1250.06,48.19c0,0.57,0.05,1.02-0.16,1.7C1248.8,53.43 1238.25,65.25 1229.22,70.5" style="fill:none;stroke:#999;stroke-width:3" />
<path d="M1251.6,53.35c6.04,1.94,13.76,7.09,16.7,11.98" style="fill:none;stroke:#999;stroke-width:3" />
<path d="M1240.68,65.87c1.42,0,2.07,0.06,2.53,0.02c4.49-0.41,11.9-1.46,15.33-1.76c0.69-0.06,0.85-0.02,2.04-0.02" style="fill:none;stroke:#999;stroke-width:3" />
<path d="M1236.08,74.55c0.55,0.09,2.37,0.63,2.93,0.61c5.08-0.13,15.86-1.86,22.67-2.26c0.68-0.04,2.2-0.04,3.23,0.04" style="fill:none;stroke:black;stroke-width:3" />
<circle cx="1236.08" cy="74.55" r="5" stroke-width="0" fill="#FF2A00" opacity="0.7" />
<path d="M1323.88,15.25c4.01,1.47,10.36,6.05,11.37,8.34" style="fill:none;stroke:#999;stroke-width:3" />
<path d="M1321.75,40.25c4.32,1.63,11.17,6.71,12.25,9.25" style="fill:none;stroke:#999;stroke-width:3" />
<path d="M1321.25,88.65c2,0.35,3.37,0.44,4.34-1.27c2.81-4.97,5.61-11.04,8.16-17.38" style="fill:none;stroke:#999;stroke-width:3" />
<path d="M1357.17,13.91c0.03,0.26,0.13,0.75-0.07,1.04c-2.49,3.66-6.16,7.01-12.65,9.96" style="fill:none;stroke:#999;stroke-width:3" />
<path d="M1342.1599999999999,24.94c0.39,0.33,0.62,1.48,0.69,2.14c0.08,0.66,0.36,14.9,0.08,16.51C1342.5,46 1344.0,46 1345.75,44.25c1.04-1.04,6.75-6.75,10.19-10.09" style="fill:none;stroke:#999;stroke-width:3" />
<path d="M1351.62,29.13c3.51,2.74,5.75,6.79,7.09,10.78" style="fill:none;stroke:#999;stroke-width:3" />
<path d="M1359.65,22.12c0.67,0.29,4.26,0.26,4.85,0.16c4.8-0.81,9.21-2.38,11.88-2.68c1.73-0.19,2.17,1.68,2.07,3.04c-0.25,3.6-3.17,16.13-5.53,20.26c-1.71,3-2.71,2.04-4,0.09" style="fill:none;stroke:#999;stroke-width:3" />
<path d="M1367.7,24.55c0.02,0.42,0.05,1.12-0.04,1.69c-1.15,7.01-2.4,11.01-6.77,16.2" style="fill:none;stroke:#999;stroke-width:3" />
<path d="M1359.06,48.19c0,0.57,0.05,1.02-0.16,1.7C1357.8,53.43 1347.25,65.25 1338.22,70.5" style="fill:none;stroke:#999;stroke-width:3" />
<path d="M1360.6,53.35c6.04,1.94,13.76,7.09,16.7,11.98" style="fill:none;stroke:#999;stroke-width:3" />
<path d="M1349.68,65.87c1.42,0,2.07,0.06,2.53,0.02c4.49-0.41,11.9-1.46,15.33-1.76c0.69-0.06,0.85-0.02,2.04-0.02" style="fill:none;stroke:#999;stroke-width:3" />
<path d="M1345.08,74.55c0.55,0.09,2.37,0.63,2.93,0.61c5.08-0.13,15.86-1.86,22.67-2.26c0.68-0.04,2.2-0.04,3.23,0.04" style="fill:none;stroke:#999;stroke-width:3" />
<path d="M1359.07,67.65c1.12,0.52,1.12,1.7,1.12,2.11c0,2.92,0.56,17.77,0.28,20.7" style="fill:none;stroke:black;stroke-width:3" />
<circle cx="1359.07" cy="67.65" r="5" stroke-width="0" fill="#FF2A00" opacity="0.7" />
<path d="M1432.88,15.25c4.01,1.47,10.36,6.05,11.37,8.34" style="fill:none;stroke:#999;stroke-width:3" />
<path d="M1430.75,40.25c4.32,1.63,11.17,6.71,12.25,9.25" style="fill:none;stroke:#999;stroke-width:3" />
<path d="M1430.25,88.65c2,0.35,3.37,0.44,4.34-1.27c2.81-4.97,5.61-11.04,8.16-17.38" style="fill:none;stroke:#999;stroke-width:3" />
<path d="M1466.17,13.91c0.03,0.26,0.13,0.75-0.07,1.04c-2.49,3.66-6.16,7.01-12.65,9.96" style="fill:none;stroke:#999;stroke-width:3" />
<path d="M1451.1599999999999,24.94c0.39,0.33,0.62,1.48,0.69,2.14c0.08,0.66,0.36,14.9,0.08,16.51C1451.5,46 1453.0,46 1454.75,44.25c1.04-1.04,6.75-6.75,10.19-10.09" style="fill:none;stroke:#999;stroke-width:3" />
<path d="M1460.62,29.13c3.51,2.74,5.75,6.79,7.09,10.78" style="fill:none;stroke:#999;stroke-width:3" />
<path d="M1468.65,22.12c0.67,0.29,4.26,0.26,4.85,0.16c4.8-0.81,9.21-2.38,11.88-2.68c1.73-0.19,2.17,1.68,2.07,3.04c-0.25,3.6-3.17,16.13-5.53,20.26c-1.71,3-2.71,2.04-4,0.09" style="fill:none;stroke:#999;stroke-width:3" />
<path d="M1476.7,24.55c0.02,0.42,0.05,1.12-0.04,1.69c-1.15,7.01-2.4,11.01-6.77,16.2" style="fill:none;stroke:#999;stroke-width:3" />
<path d="M1468.06,48.19c0,0.57,0.05,1.02-0.16,1.7C1466.8,53.43 1456.25,65.25 1447.22,70.5" style="fill:none;stroke:#999;stroke-width:3" />
<path d="M1469.6,53.35c6.04,1.94,13.76,7.09,16.7,11.98" style="fill:none;stroke:#999;stroke-width:3" />
<path d="M1458.68,65.87c1.42,0,2.07,0.06,2.53,0.02c4.49-0.41,11.9-1.46,15.33-1.76c0.69-0.06,0.85-0.02,2.04-0.02" style="fill:none;stroke:#999;stroke-width:3" />
<path d="M1454.08,74.55c0.55,0.09,2.37,0.63,2.93,0.61c5.08-0.13,15.86-1.86,22.67-2.26c0.68-0.04,2.2-0.04,3.23,0.04" style="fill:none;stroke:#999;stroke-width:3" />
<path d="M1468.07,67.65c1.12,0.52,1.12,1.7,1.12,2.11c0,2.92,0.56,17.77,0.28,20.7" style="fill:none;stroke:#999;stroke-width:3" />
<path d="M1453.52,80.08c3.51,3.27,5.22,6.82,5.94,8.73" style="fill:none;stroke:black;stroke-width:3" />
<circle cx="1453.52" cy="80.08" r="5" stroke-width="0" fill="#FF2A00" opacity="0.7" />
<path d="M1541.88,15.25c4.01,1.47,10.36,6.05,11.37,8.34" style="fill:none;stroke:#999;stroke-width:3" />
<path d="M1539.75,40.25c4.32,1.63,11.17,6.71,12.25,9.25" style="fill:none;stroke:#999;stroke-width:3" />
<path d="M1539.25,88.65c2,0.35,3.37,0.44,4.34-1.27c2.81-4.97,5.61-11.04,8.16-17.38" style="fill:none;stroke:#999;stroke-width:3" />
<path d="M1575.17,13.91c0.03,0.26,0.13,0.75-0.07,1.04c-2.49,3.66-6.16,7.01-12.65,9.96" style="fill:none;stroke:#999;stroke-width:3" />
<path d="M1560.1599999999999,24.94c0.39,0.33,0.62,1.48,0.69,2.14c0.08,0.66,0.36,14.9,0.08,16.51C1560.5,46 1562.0,46 1563.75,44.25c1.04-1.04,6.75-6.75,10.19-10.09" style="fill:none;stroke:#999;stroke-width:3" />
<path d="M1569.62,29.13c3.51,2.74,5.75,6.79,7.09,10.78" style="fill:none;stroke:#999;stroke-width:3" />
<path d="M1577.65,22.12c0.67,0.29,4.26,0.26,4.85,0.16c4.8-0.81,9.21-2.38,11.88-2.68c1.73-0.19,2.17,1.68,2.07,3.04c-0.25,3.6-3.17,16.13-5.53,20.26c-1.71,3-2.71,2.04-4,0.09" style="fill:none;stroke:#999;stroke-width:3" />
<path d="M1585.7,24.55c0.02,0.42,0.05,1.12-0.04,1.69c-1.15,7.01-2.4,11.01-6.77,16.2" style="fill:none;stroke:#999;stroke-width:3" />
<path d="M1577.06,48.19c0,0.57,0.05,1.02-0.16,1.7C1575.8,53.43 1565.25,65.25 1556.22,70.5" style="fill:none;stroke:#999;stroke-width:3" />
<path d="M1578.6,53.35c6.04,1.94,13.76,7.09,16.7,11.98" style="fill:none;stroke:#999;stroke-width:3" />
<path d="M1567.68,65.87c1.42,0,2.07,0.06,2.53,0.02c4.49-0.41,11.9-1.46,15.33-1.76c0.69-0.06,0.85-0.02,2.04-0.02" style="fill:none;stroke:#999;stroke-width:3" />
<path d="M1563.08,74.55c0.55,0.09,2.37,0.63,2.93,0.61c5.08-0.13,15.86-1.86,22.67-2.26c0.68-0.04,2.2-0.04,3.23,0.04" style="fill:none;stroke:#999;stroke-width:3" />
<path d="M1577.07,67.65c1.12,0.52,1.12,1.7,1.12,2.11c0,2.92,0.56,17.77,0.28,20.7" style="fill:none;stroke:#999;stroke-width:3" />
<path d="M1562.52,80.08c3.51,3.27,5.22,6.82,5.94,8.73" style="fill:none;stroke:#999;stroke-width:3" />
<path d="M1587.12,76.58c0.2,0.65,0.31,1.6,0.23,2.15c-0.21,1.41-1.83,3.99-4.13,8.14" style="fill:none;stroke:black;stroke-width:3" />
<circle cx="1587.12" cy="76.58" r="5" stroke-width="0" fill="#FF2A00" opacity="0.7" />
<path d="M1650.88,15.25c4.01,1.47,10.36,6.05,11.37,8.34" style="fill:none;stroke:#999;stroke-width:3" />
<path d="M1648.75,40.25c4.32,1.63,11.17,6.71,12.25,9.25" style="fill:none;stroke:#999;stroke-width:3" />
<path d="M1648.25,88.65c2,0.35,3.37,0.44,4.34-1.27c2.81-4.97,5.61-11.04,8.16-17.38" style="fill:none;stroke:#999;stroke-width:3" />
<path d="M1684.17,13.91c0.03,0.26,0.13,0.75-0.07,1.04c-2.49,3.66-6.16,7.01-12.65,9.96" style="fill:none;stroke:#999;stroke-width:3" />
<path d="M1669.1599999999999,24.94c0.39,0.33,0.62,1.48,0.69,2.14c0.08,0.66,0.36,14.9,0.08,16.51C1669.5,46 1671.0,46 1672.75,44.25c1.04-1.04,6.75-6.75,10.19-10.09" style="fill:none;stroke:#999;stroke-width:3" />
<path d="M1678.62,29.13c3.51,2.74,5.75,6.79,7.09,10.78" style="fill:none;stroke:#999;stroke-width:3" />
<path d="M1686.65,22.12c0.67,0.29,4.26,0.26,4.85,0.16c4.8-0.81,9.21-2.38,11.88-2.68c1.73-0.19,2.17,1.68,2.07,3.04c-0.25,3.6-3.17,16.13-5.53,20.26c-1.71,3-2.71,2.04-4,0.09" style="fill:none;stroke:#999;stroke-width:3" />
<path d="M1694.7,24.55c0.02,0.42,0.05,1.12-0.04,1.69c-1.15,7.01-2.4,11.01-6.77,16.2" style="fill:none;stroke:#999;stroke-width:3" />
<path d="M1686.06,48.19c0,0.57,0.05,1.02-0.16,1.7C1684.8,53.43 1674.25,65.25 1665.22,70.5" style="fill:none;stroke:#999;stroke-width:3" />
<path d="M1687.6,53.35c6.04,1.94,13.76,7.09,16.7,11.98" style="fill:none;stroke:#999;stroke-width:3" />
<path d="M1676.68,65.87c1.42,0,2.07,0.06,2.53,0.02c4.49-0.41,11.9-1.46,15.33-1.76c0.69-0.06,0.85-0.02,2.04-0.02" style="fill:none;stroke:#999;stroke-width:3" />
<path d="M1672.08,74.55c0.55,0.09,2.37,0.63,2.93,0.61c5.08-0.13,15.86-1.86,22.67-2.26c0.68-0.04,2.2-0.04,3.23,0.04" style="fill:none;stroke:#999;stroke-width:3" />
<path d="M1686.07,67.65c1.12,0.52,1.12,1.7,1.12,2.11c0,2.92,0.56,17.77,0.28,20.7" style="fill:none;stroke:#999;stroke-width:3" />
<path d="M1671.52,80.08c3.51,3.27,5.22,6.82,5.94,8.73" style="fill:none;stroke:#999;stroke-width:3" />
<path d="M1696.12,76.58c0.2,0.65,0.31,1.6,0.23,2.15c-0.21,1.41-1.83,3.99-4.13,8.14" style="fill:none;stroke:#999;stroke-width:3" />
<path d="M1669.82,93.98c1.37,1.25,1.76,1.25,4.05,0.63c1.13-0.31,15.85-4.69,27.56-8.73" style="fill:none;stroke:black;stroke-width:3" />
<circle cx="1669.82" cy="93.98" r="5" stroke-width="0" fill="#FF2A00" opacity="0.7" />
<path d="M1759.88,15.25c4.01,1.47,10.36,6.05,11.37,8.34" style="fill:none;stroke:#999;stroke-width:3" />
<path d="M1757.75,40.25c4.32,1.63,11.17,6.71,12.25,9.25" style="fill:none;stroke:#999;stroke-width:3" />
<path d="M1757.25,88.65c2,0.35,3.37,0.44,4.34-1.27c2.81-4.97,5.61-11.04,8.16-17.38" style="fill:none;stroke:#999;stroke-width:3" />
<path d="M1793.17,13.91c0.03,0.26,0.13,0.75-0.07,1.04c-2.49,3.66-6.16,7.01-12.65,9.96" style="fill:none;stroke:#999;stroke-width:3" />
<path d="M1778.1599999999999,24.94c0.39,0.33,0.62,1.48,0.69,2.14c0.08,0.66,0.36,14.9,0.08,16.51C1778.5,46 1780.0,46 1781.75,44.25c1.04-1.04,6.75-6.75,10.19-10.09" style="fill:none;stroke:#999;stroke-width:3" />
<path d="M1787.62,29.13c3.51,2.74,5.75,6.79,7.09,10.78" style="fill:none;stroke:#999;stroke-width:3" />
<path d="M1795.65,22.12c0.67,0.29,4.26,0.26,4.85,0.16c4.8-0.81,9.21-2.38,11.88-2.68c1.73-0.19,2.17,1.68,2.07,3.04c-0.25,3.6-3.17,16.13-5.53,20.26c-1.71,3-2.71,2.04-4,0.09" style="fill:none;stroke:#999;stroke-width:3" />
<path d="M1803.7,24.55c0.02,0.42,0.05,1.12-0.04,1.69c-1.15,7.01-2.4,11.01-6.77,16.2" style="fill:none;stroke:#999;stroke-width:3" />
<path d="M1795.06,48.19c0,0.57,0.05,1.02-0.16,1.7C1793.8,53.43 1783.25,65.25 1774.22,70.5" style="fill:none;stroke:#999;stroke-width:3" />
<path d="M1796.6,53.35c6.04,1.94,13.76,7.09,16.7,11.98" style="fill:none;stroke:#999;stroke-width:3" />
<path d="M1785.68,65.87c1.42,0,2.07,0.06,2.53,0.02c4.49-0.41,11.9-1.46,15.33-1.76c0.69-0.06,0.85-0.02,2.04-0.02" style="fill:none;stroke:#999;stroke-width:3" />
<path d="M1781.08,74.55c0.55,0.09,2.37,0.63,2.93,0.61c5.08-0.13,15.86-1.86,22.67-2.26c0.68-0.04,2.2-0.04,3.23,0.04" style="fill:none;stroke:#999;stroke-width:3" />
<path d="M1795.07,67.65c1.12,0.52,1.12,1.7,1.12,2.11c0,2.92,0.56,17.77,0.28,20.7" style="fill:none;stroke:#999;stroke-width:3" />
<path d="M1780.52,80.08c3.51,3.27,5.22,6.82,5.94,8.73" style="fill:none;stroke:#999;stroke-width:3" />
<path d="M1805.12,76.58c0.2,0.65,0.31,1.6,0.23,2.15c-0.21,1.41-1.83,3.99-4.13,8.14" style="fill:none;stroke:#999;stroke-width:3" />
<path d="M1778.82,93.98c1.37,1.25,1.76,1.25,4.05,0.63c1.13-0.31,15.85-4.69,27.56-8.73" style="fill:none;stroke:#999;stroke-width:3" />
<path d="M1822.88,23.9c0.77,0.86,1.31,1.86,1.37,4.69c0.32,13.61-0.02,33.95-0.02,38.59" style="fill:none;stroke:black;stroke-width:3" />
<circle cx="1822.88" cy="23.9" r="5" stroke-width="0" fill="#FF2A00" opacity="0.7" />
<path d="M1868.88,15.25c4.01,1.47,10.36,6.05,11.37,8.34" style="fill:none;stroke:#999;stroke-width:3" />
<path d="M1866.75,40.25c4.32,1.63,11.17,6.71,12.25,9.25" style="fill:none;stroke:#999;stroke-width:3" />
<path d="M1866.25,88.65c2,0.35,3.37,0.44,4.34-1.27c2.81-4.97,5.61-11.04,8.16-17.38" style="fill:none;stroke:#999;stroke-width:3" />
<path d="M1902.17,13.91c0.03,0.26,0.13,0.75-0.07,1.04c-2.49,3.66-6.16,7.01-12.65,9.96" style="fill:none;stroke:#999;stroke-width:3" />
<path d="M1887.1599999999999,24.94c0.39,0.33,0.62,1.48,0.69,2.14c0.08,0.66,0.36,14.9,0.08,16.51C1887.5,46 1889.0,46 1890.75,44.25c1.04-1.04,6.75-6.75,10.19-10.09" style="fill:none;stroke:#999;stroke-width:3" />
<path d="M1896.62,29.13c3.51,2.74,5.75,6.79,7.09,10.78" style="fill:none;stroke:#999;stroke-width:3" />
<path d="M1904.65,22.12c0.67,0.29,4.26,0.26,4.85,0.16c4.8-0.81,9.21-2.38,11.88-2.68c1.73-0.19,2.17,1.68,2.07,3.04c-0.25,3.6-3.17,16.13-5.53,20.26c-1.71,3-2.71,2.04-4,0.09" style="fill:none;stroke:#999;stroke-width:3" />
<path d="M1912.7,24.55c0.02,0.42,0.05,1.12-0.04,1.69c-1.15,7.01-2.4,11.01-6.77,16.2" style="fill:none;stroke:#999;stroke-width:3" />
<path d="M1904.06,48.19c0,0.57,0.05,1.02-0.16,1.7C1902.8,53.43 1892.25,65.25 1883.22,70.5" style="fill:none;stroke:#999;stroke-width:3" />
<path d="M1905.6,53.35c6.04,1.94,13.76,7.09,16.7,11.98" style="fill:none;stroke:#999;stroke-width:3" />
<path d="M1894.68,65.87c1.42,0,2.07,0.06,2.53,0.02c4.49-0.41,11.9-1.46,15.33-1.76c0.69-0.06,0.85-0.02,2.04-0.02" style="fill:none;stroke:#999;stroke-width:3" />
<path d="M1890.08,74.55c0.55,0.09,2.37,0.63,2.93,0.61c5.08-0.13,15.86-1.86,22.67-2.26c0.68-0.04,2.2-0.04,3.23,0.04" style="fill:none;stroke:#999;stroke-width:3" />
<path d="M1904.07,67.65c1.12,0.52,1.12,1.7,1.12,2.11c0,2.92,0.56,17.77,0.28,20.7" style="fill:none;stroke:#999;stroke-width:3" />
<path d="M1889.52,80.08c3.51,3.27,5.22,6.82,5.94,8.73" style="fill:none;stroke:#999;stroke-width:3" />
<path d="M1914.12,76.58c0.2,0.65,0.31,1.6,0.23,2.15c-0.21,1.41-1.83,3.99-4.13,8.14" style="fill:none;stroke:#999;stroke-width:3" />
<path d="M1887.82,93.98c1.37,1.25,1.76,1.25,4.05,0.63c1.13-0.31,15.85-4.69,27.56-8.73" style="fill:none;stroke:#999;stroke-width:3" />
<path d="M1931.88,23.9c0.77,0.86,1.31,1.86,1.37,4.69c0.32,13.61-0.02,33.95-0.02,38.59" style="fill:none;stroke:#999;stroke-width:3" />
<path d="M1943.87,14.77c0.93,0.9,1.58,1.94,1.66,4.91c0.38,14.23-0.24,64.7-0.24,69.54c0,12.85-6.83,1.47-8.25,0.24" style="fill:none;stroke:black;stroke-width:3" />
<circle cx="1943.87" cy="14.77" r="5" stroke-width="0" fill="#FF2A00" opacity="0.7" />
</svg>