<!-- 0701d -->
<svg width="2071px" height="109px" viewBox="0 0 2071px 109px" xmlns="http://www.w3.org/2000/svg" xmlns:xlink="http://www.w3.org/1999/xlink" xml:space="preserve" version="1.1"  baseProfile="full">
<line x1="1" y1="1" x2="2070" y2="1" style="stroke:#ddd;stroke-width:2" />
<line x1="1" y1="1" x2="1" y2="108" style="stroke:#ddd;stroke-width:2" />
<line x1="1" y1="108" x2="2070" y2="108" style="stroke:#ddd;stroke-width:2" />
<line x1="2070" y1="1" x2="2070" y2="108" style="stroke:#ddd;stroke-width:2" />
<line x1="109" y1="1" x2="109" y2="108" style="stroke:#ddd;stroke-width:2" />
<line x1="218" y1="1" x2="218" y2="108" style="stroke:#ddd;stroke-width:2" />
<line x1="327" y1="1" x2="327" y2="108" style="stroke:#ddd;stroke-width:2" />
<line x1="436" y1="1" x2="436" y2="108" style="stroke:#ddd;stroke-width:2" />
<line x1="545" y1="1" x2="545" y2="108" style="stroke:#ddd;stroke-width:2" />
<line x1="654" y1="1" x2="654" y2="108" style="stroke:#ddd;stroke-width:2" />
<line x1="763" y1="1" x2="763" y2="108" style="stroke:#ddd;stroke-width:2" />
<line x1="872" y1="1" x2="872" y2="108" style="stroke:#ddd;stroke-width:2" />
<line x1="981" y1="1" x2="981" y2="108" style="stroke:#ddd;stroke-width:2" />
<line x1="1090" y1="1" x2="1090" y2="108" style="stroke:#ddd;stroke-width:2" />
<line x1="1199" y1="1" x2="1199" y2="108" style="stroke:#ddd;stroke-width:2" />
<line x1="1308" y1="1" x2="1308" y2="108" style="stroke:#ddd;stroke-width:2" />
<line x1="1417" y1="1" x2="1417" y2="108" style="stroke:#ddd;stroke-width:2" />
<line x1="1526" y1="1" x2="1526" y2="108" style="stroke:#ddd;stroke-width:2" />
<line x1="1635" y1="1" x2="1635" y2="108" style="stroke:#ddd;stroke-width:2" />
<line x1="1744" y1="1" x2="1744" y2="108" style="stroke:#ddd;stroke-width:2" />
<line x1="1853" y1="1" x2="1853" y2="108" style="stroke:#ddd;stroke-width:2" />
<line x1="1962" y1="1" x2="1962" y2="108" style="stroke:#ddd;stroke-width:2" />
<line x1="1" y1="54" x2="2070" y2="54" style="stroke:#ddd;stroke-width:2;stroke-dasharray:3 3" />
<line x1="55" y1="1" x2="55" y2="108" style="stroke:#ddd;stroke-width:2;stroke-dasharray:3 3" />
<line x1="164" y1="1" x2="164" y2="108" style="stroke:#ddd;stroke-width:2;stroke-dasharray:3 3" />
<line x1="273" y1="1" x2="273" y2="108" style="stroke:#ddd;stroke-width:2;stroke-dasharray:3 3" />
<line x1="382" y1="1" x2="382" y2="108" style="stroke:#ddd;stroke-width:2;stroke-dasharray:3 3" />
<line x1="491" y1="1" x2="491" y2="108" style="stroke:#ddd;stroke-width:2;stroke-dasharray:3 3" />
<line x1="600" y1="1" x2="600" y2="108" style="stroke:#ddd;stroke-width:2;stroke-dasharray:3 3" />
<line x1="709" y1="1" x2="709" y2="108" style="stroke:#ddd;stroke-width:2;stroke-dasharray:3 3" />
<line x1="818" y1="1" x2="818" y2="108" style="stroke:#ddd;stroke-width:2;stroke-dasharray:3 3" />
<line x1="927" y1="1" x2="927" y2="108" style="stroke:#ddd;stroke-width:2;stroke-dasharray:3 3" />
<line x1="1036" y1="1" x2="1036" y2="108" style="stroke:#ddd;stroke-width:2;stroke-dasharray:3 3" />
<line x1="1145" y1="1" x2="1145" y2="108" style="stroke:#ddd;stroke-width:2;stroke-dasharray:3 3" />
<line x1="1254" y1="1" x2="1254" y2="108" style="stroke:#ddd;stroke-width:2;stroke-dasharray:3 3" />
<line x1="1363" y1="1" x2="1363" y2="108" style="stroke:#ddd;stroke-width:2;stroke-dasharray:3 3" />
<line x1="1472" y1="1" x2="1472" y2="108" style="stroke:#ddd;stroke-width:2;stroke-dasharray:3 3" />
<line x1="1581" y1="1" x2="1581" y2="108" style="stroke:#ddd;stroke-width:2;stroke-dasharray:3 3" />
<line x1="1690" y1="1" x2="1690" y2="108" style="stroke:#ddd;stroke-width:2;stroke-dasharray:3 3" />
<line x1="1799" y1="1" x2="1799" y2="108" style="stroke:#ddd;stroke-width:2;stroke-dasharray:3 3" />
<line x1="1908" y1="1" x2="1908" y2="108" style="stroke:#ddd;stroke-width:2;stroke-dasharray:3 3" />
<line x1="2017" y1="1" x2="2017" y2="108" style="stroke:#ddd;stroke-width:2;stroke-dasharray:3 3" />
<path d="M14.63,17c4.63,1.6,11.96,6.6,13.12,9.09" style="fill:none;stroke:black;stroke-width:3" />
<circle cx="14.63" cy="17.0" r="5" stroke-width="0" fill="#FF2A00" opacity="0.7" />
<path d="M123.63,17c4.63,1.6,11.96,6.6,13.12,9.09" style="fill:none;stroke:#999;stroke-width:3" />
<path d="M121.25,40.75c4.68,1.72,12.08,7.07,13.25,9.75" style="fill:none;stroke:black;stroke-width:3" />
<circle cx="121.25" cy="40.75" r="5" stroke-width="0" fill="#FF2A00" opacity="0.7" />
<path d="M232.63,17c4.63,1.6,11.96,6.6,13.12,9.09" style="fill:none;stroke:#999;stroke-width:3" />
<path d="M230.25,40.75c4.68,1.72,12.08,7.07,13.25,9.75" style="fill:none;stroke:#999;stroke-width:3" />
<path d="M229.75,86.23c1.71,1.27,3.78,1.32,4.86-0.25c3.14-4.57,8.29-15.16,11.14-20.99" style="fill:none;stroke:black;stroke-width:3" />
<circle cx="229.75" cy="86.23" r="5" stroke-width="0" fill="#FF2A00" opacity="0.7" />
<path d="M341.63,17c4.63,1.6,11.96,6.6,13.12,9.09" style="fill:none;stroke:#999;stroke-width:3" />
<path d="M339.25,40.75c4.68,1.72,12.08,7.07,13.25,9.75" style="fill:none;stroke:#999;stroke-width:3" />
<path d="M338.75,86.23c1.71,1.27,3.78,1.32,4.86-0.25c3.14-4.57,8.29-15.16,11.14-20.99" style="fill:none;stroke:#999;stroke-width:3" />
<path d="M364.3,19.16c1.51,0.68,4.29,0.75,5.81,0.68c17.56-0.79,23.44-2.77,43.21-3.04c2.52-0.03,4.04,0.32,5.3,0.66" style="fill:none;stroke:black;stroke-width:3" />
<circle cx="364.3" cy="19.16" r="5" stroke-width="0" fill="#FF2A00" opacity="0.7" />
<path d="M450.63,17c4.63,1.6,11.96,6.6,13.12,9.09" style="fill:none;stroke:#999;stroke-width:3" />
<path d="M448.25,40.75c4.68,1.72,12.08,7.07,13.25,9.75" style="fill:none;stroke:#999;stroke-width:3" />
<path d="M447.75,86.23c1.71,1.27,3.78,1.32,4.86-0.25c3.14-4.57,8.29-15.16,11.14-20.99" style="fill:none;stroke:#999;stroke-width:3" />
<path d="M473.3,19.16c1.51,0.68,4.29,0.75,5.81,0.68c17.56-0.79,23.44-2.77,43.21-3.04c2.52-0.03,4.04,0.32,5.3,0.66" style="fill:none;stroke:#999;stroke-width:3" />
<path d="M478.03,20.25c0.05,1.64-0.01,2.22-0.09,4.57C477.0,51.5 473.5,73 462.31,89.22" style="fill:none;stroke:black;stroke-width:3" />
<circle cx="478.03" cy="20.25" r="5" stroke-width="0" fill="#FF2A00" opacity="0.7" />
<path d="M559.63,17c4.63,1.6,11.96,6.6,13.12,9.09" style="fill:none;stroke:#999;stroke-width:3" />
<path d="M557.25,40.75c4.68,1.72,12.08,7.07,13.25,9.75" style="fill:none;stroke:#999;stroke-width:3" />
<path d="M556.75,86.23c1.71,1.27,3.78,1.32,4.86-0.25c3.14-4.57,8.29-15.16,11.14-20.99" style="fill:none;stroke:#999;stroke-width:3" />
<path d="M582.3,19.16c1.51,0.68,4.29,0.75,5.81,0.68c17.56-0.79,23.44-2.77,43.21-3.04c2.52-0.03,4.04,0.32,5.3,0.66" style="fill:none;stroke:#999;stroke-width:3" />
<path d="M587.03,20.25c0.05,1.64-0.01,2.22-0.09,4.57C586.0,51.5 582.5,73 571.31,89.22" style="fill:none;stroke:#999;stroke-width:3" />
<path d="M607.74,24c0.04,0.2,0.09,0.51-0.08,0.79c-1.01,1.66-6.78,5.31-14.68,7.55" style="fill:none;stroke:black;stroke-width:3" />
<circle cx="607.74" cy="24.0" r="5" stroke-width="0" fill="#FF2A00" opacity="0.7" />
<path d="M668.63,17c4.63,1.6,11.96,6.6,13.12,9.09" style="fill:none;stroke:#999;stroke-width:3" />
<path d="M666.25,40.75c4.68,1.72,12.08,7.07,13.25,9.75" style="fill:none;stroke:#999;stroke-width:3" />
<path d="M665.75,86.23c1.71,1.27,3.78,1.32,4.86-0.25c3.14-4.57,8.29-15.16,11.14-20.99" style="fill:none;stroke:#999;stroke-width:3" />
<path d="M691.3,19.16c1.51,0.68,4.29,0.75,5.81,0.68c17.56-0.79,23.44-2.77,43.21-3.04c2.52-0.03,4.04,0.32,5.3,0.66" style="fill:none;stroke:#999;stroke-width:3" />
<path d="M696.03,20.25c0.05,1.64-0.01,2.22-0.09,4.57C695.0,51.5 691.5,73 680.31,89.22" style="fill:none;stroke:#999;stroke-width:3" />
<path d="M716.74,24c0.04,0.2,0.09,0.51-0.08,0.79c-1.01,1.66-6.78,5.31-14.68,7.55" style="fill:none;stroke:#999;stroke-width:3" />
<path d="M700.06,39.15c0.31,0.15,1.55,0.47,2.38,0.45c5.32-0.1,8.82-1.1,15.19-1.82c0.82-0.09,1.86,0.18,2.38,0.33" style="fill:none;stroke:black;stroke-width:3" />
<circle cx="700.06" cy="39.15" r="5" stroke-width="0" fill="#FF2A00" opacity="0.7" />
<path d="M777.63,17c4.63,1.6,11.96,6.6,13.12,9.09" style="fill:none;stroke:#999;stroke-width:3" />
<path d="M775.25,40.75c4.68,1.72,12.08,7.07,13.25,9.75" style="fill:none;stroke:#999;stroke-width:3" />
<path d="M774.75,86.23c1.71,1.27,3.78,1.32,4.86-0.25c3.14-4.57,8.29-15.16,11.14-20.99" style="fill:none;stroke:#999;stroke-width:3" />
<path d="M800.3,19.16c1.51,0.68,4.29,0.75,5.81,0.68c17.56-0.79,23.44-2.77,43.21-3.04c2.52-0.03,4.04,0.32,5.3,0.66" style="fill:none;stroke:#999;stroke-width:3" />
<path d="M805.03,20.25c0.05,1.64-0.01,2.22-0.09,4.57C804.0,51.5 800.5,73 789.31,89.22" style="fill:none;stroke:#999;stroke-width:3" />
<path d="M825.74,24c0.04,0.2,0.09,0.51-0.08,0.79c-1.01,1.66-6.78,5.31-14.68,7.55" style="fill:none;stroke:#999;stroke-width:3" />
<path d="M809.06,39.15c0.31,0.15,1.55,0.47,2.38,0.45c5.32-0.1,8.82-1.1,15.19-1.82c0.82-0.09,1.86,0.18,2.38,0.33" style="fill:none;stroke:#999;stroke-width:3" />
<path d="M819.41,32.52c0.27,0.22,0.43,0.99,0.49,1.44c0.05,0.44,0,22.78-0.05,25.54" style="fill:none;stroke:black;stroke-width:3" />
<circle cx="819.41" cy="32.52" r="5" stroke-width="0" fill="#FF2A00" opacity="0.7" />
<path d="M886.63,17c4.63,1.6,11.96,6.6,13.12,9.09" style="fill:none;stroke:#999;stroke-width:3" />
<path d="M884.25,40.75c4.68,1.72,12.08,7.07,13.25,9.75" style="fill:none;stroke:#999;stroke-width:3" />
<path d="M883.75,86.23c1.71,1.27,3.78,1.32,4.86-0.25c3.14-4.57,8.29-15.16,11.14-20.99" style="fill:none;stroke:#999;stroke-width:3" />
<path d="M909.3,19.16c1.51,0.68,4.29,0.75,5.81,0.68c17.56-0.79,23.44-2.77,43.21-3.04c2.52-0.03,4.04,0.32,5.3,0.66" style="fill:none;stroke:#999;stroke-width:3" />
<path d="M914.03,20.25c0.05,1.64-0.01,2.22-0.09,4.57C913.0,51.5 909.5,73 898.31,89.22" style="fill:none;stroke:#999;stroke-width:3" />
<path d="M934.74,24c0.04,0.2,0.09,0.51-0.08,0.79c-1.01,1.66-6.78,5.31-14.68,7.55" style="fill:none;stroke:#999;stroke-width:3" />
<path d="M918.06,39.15c0.31,0.15,1.55,0.47,2.38,0.45c5.32-0.1,8.82-1.1,15.19-1.82c0.82-0.09,1.86,0.18,2.38,0.33" style="fill:none;stroke:#999;stroke-width:3" />
<path d="M928.41,32.52c0.27,0.22,0.43,0.99,0.49,1.44c0.05,0.44,0,22.78-0.05,25.54" style="fill:none;stroke:#999;stroke-width:3" />
<path d="M928.12,39.3c-2.42,5.87-6.25,11.78-12.02,15.08" style="fill:none;stroke:black;stroke-width:3" />
<circle cx="928.12" cy="39.3" r="5" stroke-width="0" fill="#FF2A00" opacity="0.7" />
<path d="M995.63,17c4.63,1.6,11.96,6.6,13.12,9.09" style="fill:none;stroke:#999;stroke-width:3" />
<path d="M993.25,40.75c4.68,1.72,12.08,7.07,13.25,9.75" style="fill:none;stroke:#999;stroke-width:3" />
<path d="M992.75,86.23c1.71,1.27,3.78,1.32,4.86-0.25c3.14-4.57,8.29-15.16,11.14-20.99" style="fill:none;stroke:#999;stroke-width:3" />
<path d="M1018.3,19.16c1.51,0.68,4.29,0.75,5.81,0.68c17.56-0.79,23.44-2.77,43.21-3.04c2.52-0.03,4.04,0.32,5.3,0.66" style="fill:none;stroke:#999;stroke-width:3" />
<path d="M1023.03,20.25c0.05,1.64-0.01,2.22-0.09,4.57C1022.0,51.5 1018.5,73 1007.31,89.22" style="fill:none;stroke:#999;stroke-width:3" />
<path d="M1043.74,24c0.04,0.2,0.09,0.51-0.08,0.79c-1.01,1.66-6.78,5.31-14.68,7.55" style="fill:none;stroke:#999;stroke-width:3" />
<path d="M1027.06,39.15c0.31,0.15,1.55,0.47,2.38,0.45c5.32-0.1,8.82-1.1,15.19-1.82c0.82-0.09,1.86,0.18,2.38,0.33" style="fill:none;stroke:#999;stroke-width:3" />
<path d="M1037.4099999999999,32.52c0.27,0.22,0.43,0.99,0.49,1.44c0.05,0.44,0,22.78-0.05,25.54" style="fill:none;stroke:#999;stroke-width:3" />
<path d="M1037.12,39.3c-2.42,5.87-6.25,11.78-12.02,15.08" style="fill:none;stroke:#999;stroke-width:3" />
<path d="M1039.01,43.19c2.75,1.22,5.91,3.51,7.17,6.23" style="fill:none;stroke:black;stroke-width:3" />
<circle cx="1039.01" cy="43.19" r="5" stroke-width="0" fill="#FF2A00" opacity="0.7" />
<path d="M1104.63,17c4.63,1.6,11.96,6.6,13.12,9.09" style="fill:none;stroke:#999;stroke-width:3" />
<path d="M1102.25,40.75c4.68,1.72,12.08,7.07,13.25,9.75" style="fill:none;stroke:#999;stroke-width:3" />
<path d="M1101.75,86.23c1.71,1.27,3.78,1.32,4.86-0.25c3.14-4.57,8.29-15.16,11.14-20.99" style="fill:none;stroke:#999;stroke-width:3" />
<path d="M1127.3,19.16c1.51,0.68,4.29,0.75,5.81,0.68c17.56-0.79,23.44-2.77,43.21-3.04c2.52-0.03,4.04,0.32,5.3,0.66" style="fill:none;stroke:#999;stroke-width:3" />
<path d="M1132.03,20.25c0.05,1.64-0.01,2.22-0.09,4.57C1131.0,51.5 1127.5,73 1116.31,89.22" style="fill:none;stroke:#999;stroke-width:3" />
<path d="M1152.74,24c0.04,0.2,0.09,0.51-0.08,0.79c-1.01,1.66-6.78,5.31-14.68,7.55" style="fill:none;stroke:#999;stroke-width:3" />
<path d="M1136.06,39.15c0.31,0.15,1.55,0.47,2.38,0.45c5.32-0.1,8.82-1.1,15.19-1.82c0.82-0.09,1.86,0.18,2.38,0.33" style="fill:none;stroke:#999;stroke-width:3" />
<path d="M1146.4099999999999,32.52c0.27,0.22,0.43,0.99,0.49,1.44c0.05,0.44,0,22.78-0.05,25.54" style="fill:none;stroke:#999;stroke-width:3" />
<path d="M1146.12,39.3c-2.42,5.87-6.25,11.78-12.02,15.08" style="fill:none;stroke:#999;stroke-width:3" />
<path d="M1148.01,43.19c2.75,1.22,5.91,3.51,7.17,6.23" style="fill:none;stroke:#999;stroke-width:3" />
<path d="M1178.53,22.5c0.04,0.17,0.09,0.45-0.08,0.7c-1.02,1.47-6.84,4.69-14.81,6.65" style="fill:none;stroke:black;stroke-width:3" />
<circle cx="1178.53" cy="22.5" r="5" stroke-width="0" fill="#FF2A00" opacity="0.7" />
<path d="M1213.63,17c4.63,1.6,11.96,6.6,13.12,9.09" style="fill:none;stroke:#999;stroke-width:3" />
<path d="M1211.25,40.75c4.68,1.72,12.08,7.07,13.25,9.75" style="fill:none;stroke:#999;stroke-width:3" />
<path d="M1210.75,86.23c1.71,1.27,3.78,1.32,4.86-0.25c3.14-4.57,8.29-15.16,11.14-20.99" style="fill:none;stroke:#999;stroke-width:3" />
<path d="M1236.3,19.16c1.51,0.68,4.29,0.75,5.81,0.68c17.56-0.79,23.44-2.77,43.21-3.04c2.52-0.03,4.04,0.32,5.3,0.66" style="fill:none;stroke:#999;stroke-width:3" />
<path d="M1241.03,20.25c0.05,1.64-0.01,2.22-0.09,4.57C1240.0,51.5 1236.5,73 1225.31,89.22" style="fill:none;stroke:#999;stroke-width:3" />
<path d="M1261.74,24c0.04,0.2,0.09,0.51-0.08,0.79c-1.01,1.66-6.78,5.31-14.68,7.55" style="fill:none;stroke:#999;stroke-width:3" />
<path d="M1245.06,39.15c0.31,0.15,1.55,0.47,2.38,0.45c5.32-0.1,8.82-1.1,15.19-1.82c0.82-0.09,1.86,0.18,2.38,0.33" style="fill:none;stroke:#999;stroke-width:3" />
<path d="M1255.4099999999999,32.52c0.27,0.22,0.43,0.99,0.49,1.44c0.05,0.44,0,22.78-0.05,25.54" style="fill:none;stroke:#999;stroke-width:3" />
<path d="M1255.12,39.3c-2.42,5.87-6.25,11.78-12.02,15.08" style="fill:none;stroke:#999;stroke-width:3" />
<path d="M1257.01,43.19c2.75,1.22,5.91,3.51,7.17,6.23" style="fill:none;stroke:#999;stroke-width:3" />
<path d="M1287.53,22.5c0.04,0.17,0.09,0.45-0.08,0.7c-1.02,1.47-6.84,4.69-14.81,6.65" style="fill:none;stroke:#999;stroke-width:3" />
<path d="M1269.18,37.73c0.33,0.09,1.67,0.33,2.55,0.27c3.99-0.27,13.42-1.53,20.18-1.78c0.89-0.03,2,0.11,2.55,0.19" style="fill:none;stroke:black;stroke-width:3" />
<circle cx="1269.18" cy="37.73" r="5" stroke-width="0" fill="#FF2A00" opacity="0.7" />
<path d="M1322.63,17c4.63,1.6,11.96,6.6,13.12,9.09" style="fill:none;stroke:#999;stroke-width:3" />
<path d="M1320.25,40.75c4.68,1.72,12.08,7.07,13.25,9.75" style="fill:none;stroke:#999;stroke-width:3" />
<path d="M1319.75,86.23c1.71,1.27,3.78,1.32,4.86-0.25c3.14-4.57,8.29-15.16,11.14-20.99" style="fill:none;stroke:#999;stroke-width:3" />
<path d="M1345.3,19.16c1.51,0.68,4.29,0.75,5.81,0.68c17.56-0.79,23.44-2.77,43.21-3.04c2.52-0.03,4.04,0.32,5.3,0.66" style="fill:none;stroke:#999;stroke-width:3" />
<path d="M1350.03,20.25c0.05,1.64-0.01,2.22-0.09,4.57C1349.0,51.5 1345.5,73 1334.31,89.22" style="fill:none;stroke:#999;stroke-width:3" />
<path d="M1370.74,24c0.04,0.2,0.09,0.51-0.08,0.79c-1.01,1.66-6.78,5.31-14.68,7.55" style="fill:none;stroke:#999;stroke-width:3" />
<path d="M1354.06,39.15c0.31,0.15,1.55,0.47,2.38,0.45c5.32-0.1,8.82-1.1,15.19-1.82c0.82-0.09,1.86,0.18,2.38,0.33" style="fill:none;stroke:#999;stroke-width:3" />
<path d="M1364.4099999999999,32.52c0.27,0.22,0.43,0.99,0.49,1.44c0.05,0.44,0,22.78-0.05,25.54" style="fill:none;stroke:#999;stroke-width:3" />
<path d="M1364.12,39.3c-2.42,5.87-6.25,11.78-12.02,15.08" style="fill:none;stroke:#999;stroke-width:3" />
<path d="M1366.01,43.19c2.75,1.22,5.91,3.51,7.17,6.23" style="fill:none;stroke:#999;stroke-width:3" />
<path d="M1396.53,22.5c0.04,0.17,0.09,0.45-0.08,0.7c-1.02,1.47-6.84,4.69-14.81,6.65" style="fill:none;stroke:#999;stroke-width:3" />
<path d="M1378.18,37.73c0.33,0.09,1.67,0.33,2.55,0.27c3.99-0.27,13.42-1.53,20.18-1.78c0.89-0.03,2,0.11,2.55,0.19" style="fill:none;stroke:#999;stroke-width:3" />
<path d="M1389.08,30.14c0.27,0.19,0.43,0.84,0.48,1.21c0.05,0.37,0,26.45-0.05,28.78" style="fill:none;stroke:black;stroke-width:3" />
<circle cx="1389.08" cy="30.14" r="5" stroke-width="0" fill="#FF2A00" opacity="0.7" />
<path d="M1431.63,17c4.63,1.6,11.96,6.6,13.12,9.09" style="fill:none;stroke:#999;stroke-width:3" />
<path d="M1429.25,40.75c4.68,1.72,12.08,7.07,13.25,9.75" style="fill:none;stroke:#999;stroke-width:3" />
<path d="M1428.75,86.23c1.71,1.27,3.78,1.32,4.86-0.25c3.14-4.57,8.29-15.16,11.14-20.99" style="fill:none;stroke:#999;stroke-width:3" />
<path d="M1454.3,19.16c1.51,0.68,4.29,0.75,5.81,0.68c17.56-0.79,23.44-2.77,43.21-3.04c2.52-0.03,4.04,0.32,5.3,0.66" style="fill:none;stroke:#999;stroke-width:3" />
<path d="M1459.03,20.25c0.05,1.64-0.01,2.22-0.09,4.57C1458.0,51.5 1454.5,73 1443.31,89.22" style="fill:none;stroke:#999;stroke-width:3" />
<path d="M1479.74,24c0.04,0.2,0.09,0.51-0.08,0.79c-1.01,1.66-6.78,5.31-14.68,7.55" style="fill:none;stroke:#999;stroke-width:3" />
<path d="M1463.06,39.15c0.31,0.15,1.55,0.47,2.38,0.45c5.32-0.1,8.82-1.1,15.19-1.82c0.82-0.09,1.86,0.18,2.38,0.33" style="fill:none;stroke:#999;stroke-width:3" />
<path d="M1473.4099999999999,32.52c0.27,0.22,0.43,0.99,0.49,1.44c0.05,0.44,0,22.78-0.05,25.54" style="fill:none;stroke:#999;stroke-width:3" />
<path d="M1473.12,39.3c-2.42,5.87-6.25,11.78-12.02,15.08" style="fill:none;stroke:#999;stroke-width:3" />
<path d="M1475.01,43.19c2.75,1.22,5.91,3.51,7.17,6.23" style="fill:none;stroke:#999;stroke-width:3" />
<path d="M1505.53,22.5c0.04,0.17,0.09,0.45-0.08,0.7c-1.02,1.47-6.84,4.69-14.81,6.65" style="fill:none;stroke:#999;stroke-width:3" />
<path d="M1487.18,37.73c0.33,0.09,1.67,0.33,2.55,0.27c3.99-0.27,13.42-1.53,20.18-1.78c0.89-0.03,2,0.11,2.55,0.19" style="fill:none;stroke:#999;stroke-width:3" />
<path d="M1498.08,30.14c0.27,0.19,0.43,0.84,0.48,1.21c0.05,0.37,0,26.45-0.05,28.78" style="fill:none;stroke:#999;stroke-width:3" />
<path d="M1497.82,37.99C1495.75,43.75 1490.25,50.25 1483.0,53.57" style="fill:none;stroke:black;stroke-width:3" />
<circle cx="1497.82" cy="37.99" r="5" stroke-width="0" fill="#FF2A00" opacity="0.7" />
<path d="M1540.63,17c4.63,1.6,11.96,6.6,13.12,9.09" style="fill:none;stroke:#999;stroke-width:3" />
<path d="M1538.25,40.75c4.68,1.72,12.08,7.07,13.25,9.75" style="fill:none;stroke:#999;stroke-width:3" />
<path d="M1537.75,86.23c1.71,1.27,3.78,1.32,4.86-0.25c3.14-4.57,8.29-15.16,11.14-20.99" style="fill:none;stroke:#999;stroke-width:3" />
<path d="M1563.3,19.16c1.51,0.68,4.29,0.75,5.81,0.68c17.56-0.79,23.44-2.77,43.21-3.04c2.52-0.03,4.04,0.32,5.3,0.66" style="fill:none;stroke:#999;stroke-width:3" />
<path d="M1568.03,20.25c0.05,1.64-0.01,2.22-0.09,4.57C1567.0,51.5 1563.5,73 1552.31,89.22" style="fill:none;stroke:#999;stroke-width:3" />
<path d="M1588.74,24c0.04,0.2,0.09,0.51-0.08,0.79c-1.01,1.66-6.78,5.31-14.68,7.55" style="fill:none;stroke:#999;stroke-width:3" />
<path d="M1572.06,39.15c0.31,0.15,1.55,0.47,2.38,0.45c5.32-0.1,8.82-1.1,15.19-1.82c0.82-0.09,1.86,0.18,2.38,0.33" style="fill:none;stroke:#999;stroke-width:3" />
<path d="M1582.4099999999999,32.52c0.27,0.22,0.43,0.99,0.49,1.44c0.05,0.44,0,22.78-0.05,25.54" style="fill:none;stroke:#999;stroke-width:3" />
<path d="M1582.12,39.3c-2.42,5.87-6.25,11.78-12.02,15.08" style="fill:none;stroke:#999;stroke-width:3" />
<path d="M1584.01,43.19c2.75,1.22,5.91,3.51,7.17,6.23" style="fill:none;stroke:#999;stroke-width:3" />
<path d="M1614.53,22.5c0.04,0.17,0.09,0.45-0.08,0.7c-1.02,1.47-6.84,4.69-14.81,6.65" style="fill:none;stroke:#999;stroke-width:3" />
<path d="M1596.18,37.73c0.33,0.09,1.67,0.33,2.55,0.27c3.99-0.27,13.42-1.53,20.18-1.78c0.89-0.03,2,0.11,2.55,0.19" style="fill:none;stroke:#999;stroke-width:3" />
<path d="M1607.08,30.14c0.27,0.19,0.43,0.84,0.48,1.21c0.05,0.37,0,26.45-0.05,28.78" style="fill:none;stroke:#999;stroke-width:3" />
<path d="M1606.82,37.99C1604.75,43.75 1599.25,50.25 1592.0,53.57" style="fill:none;stroke:#999;stroke-width:3" />
<path d="M1607.39,38.41c2.11,3.34,8.11,11.09,11.75,13.64c0.77,0.54,1.21,0.97,1.86,1.16" style="fill:none;stroke:black;stroke-width:3" />
<circle cx="1607.39" cy="38.41" r="5" stroke-width="0" fill="#FF2A00" opacity="0.7" />
<path d="M1649.63,17c4.63,1.6,11.96,6.6,13.12,9.09" style="fill:none;stroke:#999;stroke-width:3" />
<path d="M1647.25,40.75c4.68,1.72,12.08,7.07,13.25,9.75" style="fill:none;stroke:#999;stroke-width:3" />
<path d="M1646.75,86.23c1.71,1.27,3.78,1.32,4.86-0.25c3.14-4.57,8.29-15.16,11.14-20.99" style="fill:none;stroke:#999;stroke-width:3" />
<path d="M1672.3,19.16c1.51,0.68,4.29,0.75,5.81,0.68c17.56-0.79,23.44-2.77,43.21-3.04c2.52-0.03,4.04,0.32,5.3,0.66" style="fill:none;stroke:#999;stroke-width:3" />
<path d="M1677.03,20.25c0.05,1.64-0.01,2.22-0.09,4.57C1676.0,51.5 1672.5,73 1661.31,89.22" style="fill:none;stroke:#999;stroke-width:3" />
<path d="M1697.74,24c0.04,0.2,0.09,0.51-0.08,0.79c-1.01,1.66-6.78,5.31-14.68,7.55" style="fill:none;stroke:#999;stroke-width:3" />
<path d="M1681.06,39.15c0.31,0.15,1.55,0.47,2.38,0.45c5.32-0.1,8.82-1.1,15.19-1.82c0.82-0.09,1.86,0.18,2.38,0.33" style="fill:none;stroke:#999;stroke-width:3" />
<path d="M1691.4099999999999,32.52c0.27,0.22,0.43,0.99,0.49,1.44c0.05,0.44,0,22.78-0.05,25.54" style="fill:none;stroke:#999;stroke-width:3" />
<path d="M1691.12,39.3c-2.42,5.87-6.25,11.78-12.02,15.08" style="fill:none;stroke:#999;stroke-width:3" />
<path d="M1693.01,43.19c2.75,1.22,5.91,3.51,7.17,6.23" style="fill:none;stroke:#999;stroke-width:3" />
<path d="M1723.53,22.5c0.04,0.17,0.09,0.45-0.08,0.7c-1.02,1.47-6.84,4.69-14.81,6.65" style="fill:none;stroke:#999;stroke-width:3" />
<path d="M1705.18,37.73c0.33,0.09,1.67,0.33,2.55,0.27c3.99-0.27,13.42-1.53,20.18-1.78c0.89-0.03,2,0.11,2.55,0.19" style="fill:none;stroke:#999;stroke-width:3" />
<path d="M1716.08,30.14c0.27,0.19,0.43,0.84,0.48,1.21c0.05,0.37,0,26.45-0.05,28.78" style="fill:none;stroke:#999;stroke-width:3" />
<path d="M1715.82,37.99C1713.75,43.75 1708.25,50.25 1701.0,53.57" style="fill:none;stroke:#999;stroke-width:3" />
<path d="M1716.39,38.41c2.11,3.34,8.11,11.09,11.75,13.64c0.77,0.54,1.21,0.97,1.86,1.16" style="fill:none;stroke:#999;stroke-width:3" />
<path d="M1701.32,60.75c0.83,0.47,1.33,2.1,1.5,3.04c0.17,0.93,0.45,20.62,0.28,26.46" style="fill:none;stroke:black;stroke-width:3" />
<circle cx="1701.32" cy="60.75" r="5" stroke-width="0" fill="#FF2A00" opacity="0.7" />
<path d="M1758.63,17c4.63,1.6,11.96,6.6,13.12,9.09" style="fill:none;stroke:#999;stroke-width:3" />
<path d="M1756.25,40.75c4.68,1.72,12.08,7.07,13.25,9.75" style="fill:none;stroke:#999;stroke-width:3" />
<path d="M1755.75,86.23c1.71,1.27,3.78,1.32,4.86-0.25c3.14-4.57,8.29-15.16,11.14-20.99" style="fill:none;stroke:#999;stroke-width:3" />
<path d="M1781.3,19.16c1.51,0.68,4.29,0.75,5.81,0.68c17.56-0.79,23.44-2.77,43.21-3.04c2.52-0.03,4.04,0.32,5.3,0.66" style="fill:none;stroke:#999;stroke-width:3" />
<path d="M1786.03,20.25c0.05,1.64-0.01,2.22-0.09,4.57C1785.0,51.5 1781.5,73 1770.31,89.22" style="fill:none;stroke:#999;stroke-width:3" />
<path d="M1806.74,24c0.04,0.2,0.09,0.51-0.08,0.79c-1.01,1.66-6.78,5.31-14.68,7.55" style="fill:none;stroke:#999;stroke-width:3" />
<path d="M1790.06,39.15c0.31,0.15,1.55,0.47,2.38,0.45c5.32-0.1,8.82-1.1,15.19-1.82c0.82-0.09,1.86,0.18,2.38,0.33" style="fill:none;stroke:#999;stroke-width:3" />
<path d="M1800.4099999999999,32.52c0.27,0.22,0.43,0.99,0.49,1.44c0.05,0.44,0,22.78-0.05,25.54" style="fill:none;stroke:#999;stroke-width:3" />
<path d="M1800.12,39.3c-2.42,5.87-6.25,11.78-12.02,15.08" style="fill:none;stroke:#999;stroke-width:3" />
<path d="M1802.01,43.19c2.75,1.22,5.91,3.51,7.17,6.23" style="fill:none;stroke:#999;stroke-width:3" />
<path d="M1832.53,22.5c0.04,0.17,0.09,0.45-0.08,0.7c-1.02,1.47-6.84,4.69-14.81,6.65" style="fill:none;stroke:#999;stroke-width:3" />
<path d="M1814.18,37.73c0.33,0.09,1.67,0.33,2.55,0.27c3.99-0.27,13.42-1.53,20.18-1.78c0.89-0.03,2,0.11,2.55,0.19" style="fill:none;stroke:#999;stroke-width:3" />
<path d="M1825.08,30.14c0.27,0.19,0.43,0.84,0.48,1.21c0.05,0.37,0,26.45-0.05,28.78" style="fill:none;stroke:#999;stroke-width:3" />
<path d="M1824.82,37.99C1822.75,43.75 1817.25,50.25 1810.0,53.57" style="fill:none;stroke:#999;stroke-width:3" />
<path d="M1825.39,38.41c2.11,3.34,8.11,11.09,11.75,13.64c0.77,0.54,1.21,0.97,1.86,1.16" style="fill:none;stroke:#999;stroke-width:3" />
<path d="M1810.32,60.75c0.83,0.47,1.33,2.1,1.5,3.04c0.17,0.93,0.45,20.62,0.28,26.46" style="fill:none;stroke:#999;stroke-width:3" />
<path d="M1812.17,74.72c5.98-0.42,12.15-1.4,18.44-1.69c1.46-0.07,1.83-0.14,2.75,0" style="fill:none;stroke:black;stroke-width:3" />
<circle cx="1812.17" cy="74.72" r="5" stroke-width="0" fill="#FF2A00" opacity="0.7" />
<path d="M1867.63,17c4.63,1.6,11.96,6.6,13.12,9.09" style="fill:none;stroke:#999;stroke-width:3" />
<path d="M1865.25,40.75c4.68,1.72,12.08,7.07,13.25,9.75" style="fill:none;stroke:#999;stroke-width:3" />
<path d="M1864.75,86.23c1.71,1.27,3.78,1.32,4.86-0.25c3.14-4.57,8.29-15.16,11.14-20.99" style="fill:none;stroke:#999;stroke-width:3" />
<path d="M1890.3,19.16c1.51,0.68,4.29,0.75,5.81,0.68c17.56-0.79,23.44-2.77,43.21-3.04c2.52-0.03,4.04,0.32,5.3,0.66" style="fill:none;stroke:#999;stroke-width:3" />
<path d="M1895.03,20.25c0.05,1.64-0.01,2.22-0.09,4.57C1894.0,51.5 1890.5,73 1879.31,89.22" style="fill:none;stroke:#999;stroke-width:3" />
<path d="M1915.74,24c0.04,0.2,0.09,0.51-0.08,0.79c-1.01,1.66-6.78,5.31-14.68,7.55" style="fill:none;stroke:#999;stroke-width:3" />
<path d="M1899.06,39.15c0.31,0.15,1.55,0.47,2.38,0.45c5.32-0.1,8.82-1.1,15.19-1.82c0.82-0.09,1.86,0.18,2.38,0.33" style="fill:none;stroke:#999;stroke-width:3" />
<path d="M1909.4099999999999,32.52c0.27,0.22,0.43,0.99,0.49,1.44c0.05,0.44,0,22.78-0.05,25.54" style="fill:none;stroke:#999;stroke-width:3" />
<path d="M1909.12,39.3c-2.42,5.87-6.25,11.78-12.02,15.08" style="fill:none;stroke:#999;stroke-width:3" />
<path d="M1911.01,43.19c2.75,1.22,5.91,3.51,7.17,6.23" style="fill:none;stroke:#999;stroke-width:3" />
<path d="M1941.53,22.5c0.04,0.17,0.09,0.45-0.08,0.7c-1.02,1.47-6.84,4.69-14.81,6.65" style="fill:none;stroke:#999;stroke-width:3" />
<path d="M1923.18,37.73c0.33,0.09,1.67,0.33,2.55,0.27c3.99-0.27,13.42-1.53,20.18-1.78c0.89-0.03,2,0.11,2.55,0.19" style="fill:none;stroke:#999;stroke-width:3" />
<path d="M1934.08,30.14c0.27,0.19,0.43,0.84,0.48,1.21c0.05,0.37,0,26.45-0.05,28.78" style="fill:none;stroke:#999;stroke-width:3" />
<path d="M1933.82,37.99C1931.75,43.75 1926.25,50.25 1919.0,53.57" style="fill:none;stroke:#999;stroke-width:3" />
<path d="M1934.39,38.41c2.11,3.34,8.11,11.09,11.75,13.64c0.77,0.54,1.21,0.97,1.86,1.16" style="fill:none;stroke:#999;stroke-width:3" />
<path d="M1919.32,60.75c0.83,0.47,1.33,2.1,1.5,3.04c0.17,0.93,0.45,20.62,0.28,26.46" style="fill:none;stroke:#999;stroke-width:3" />
<path d="M1921.17,74.72c5.98-0.42,12.15-1.4,18.44-1.69c1.46-0.07,1.83-0.14,2.75,0" style="fill:none;stroke:#999;stroke-width:3" />
<path d="M1904.43,69.01c0.8,0.45,1.28,2.02,1.44,2.91c0.16,0.9,0.33,13.8,0.18,19.41" style="fill:none;stroke:black;stroke-width:3" />
<circle cx="1904.43" cy="69.01" r="5" stroke-width="0" fill="#FF2A00" opacity="0.7" />
<path d="M1976.63,17c4.63,1.6,11.96,6.6,13.12,9.09" style="fill:none;stroke:#999;stroke-width:3" />
<path d="M1974.25,40.75c4.68,1.72,12.08,7.07,13.25,9.75" style="fill:none;stroke:#999;stroke-width:3" />
<path d="M1973.75,86.23c1.71,1.27,3.78,1.32,4.86-0.25c3.14-4.57,8.29-15.16,11.14-20.99" style="fill:none;stroke:#999;stroke-width:3" />
<path d="M1999.3,19.16c1.51,0.68,4.29,0.75,5.81,0.68c17.56-0.79,23.44-2.77,43.21-3.04c2.52-0.03,4.04,0.32,5.3,0.66" style="fill:none;stroke:#999;stroke-width:3" />
<path d="M2004.03,20.25c0.05,1.64-0.01,2.22-0.09,4.57C2003.0,51.5 1999.5,73 1988.31,89.22" style="fill:none;stroke:#999;stroke-width:3" />
<path d="M2024.74,24c0.04,0.2,0.09,0.51-0.08,0.79c-1.01,1.66-6.78,5.31-14.68,7.55" style="fill:none;stroke:#999;stroke-width:3" />
<path d="M2008.06,39.15c0.31,0.15,1.55,0.47,2.38,0.45c5.32-0.1,8.82-1.1,15.19-1.82c0.82-0.09,1.86,0.18,2.38,0.33" style="fill:none;stroke:#999;stroke-width:3" />
<path d="M2018.4099999999999,32.52c0.27,0.22,0.43,0.99,0.49,1.44c0.05,0.44,0,22.78-0.05,25.54" style="fill:none;stroke:#999;stroke-width:3" />
<path d="M2018.12,39.3c-2.42,5.87-6.25,11.78-12.02,15.08" style="fill:none;stroke:#999;stroke-width:3" />
<path d="M2020.01,43.19c2.75,1.22,5.91,3.51,7.17,6.23" style="fill:none;stroke:#999;stroke-width:3" />
<path d="M2050.5299999999997,22.5c0.04,0.17,0.09,0.45-0.08,0.7c-1.02,1.47-6.84,4.69-14.81,6.65" style="fill:none;stroke:#999;stroke-width:3" />
<path d="M2032.18,37.73c0.33,0.09,1.67,0.33,2.55,0.27c3.99-0.27,13.42-1.53,20.18-1.78c0.89-0.03,2,0.11,2.55,0.19" style="fill:none;stroke:#999;stroke-width:3" />
<path d="M2043.08,30.14c0.27,0.19,0.43,0.84,0.48,1.21c0.05,0.37,0,26.45-0.05,28.78" style="fill:none;stroke:#999;stroke-width:3" />
<path d="M2042.82,37.99C2040.75,43.75 2035.25,50.25 2028.0,53.57" style="fill:none;stroke:#999;stroke-width:3" />
<path d="M2043.39,38.41c2.11,3.34,8.11,11.09,11.75,13.64c0.77,0.54,1.21,0.97,1.86,1.16" style="fill:none;stroke:#999;stroke-width:3" />
<path d="M2028.32,60.75c0.83,0.47,1.33,2.1,1.5,3.04c0.17,0.93,0.45,20.62,0.28,26.46" style="fill:none;stroke:#999;stroke-width:3" />
<path d="M2030.17,74.72c5.98-0.42,12.15-1.4,18.44-1.69c1.46-0.07,1.83-0.14,2.75,0" style="fill:none;stroke:#999;stroke-width:3" />
<path d="M2013.43,69.01c0.8,0.45,1.28,2.02,1.44,2.91c0.16,0.9,0.33,13.8,0.18,19.41" style="fill:none;stroke:#999;stroke-width:3" />
<path d="M1999.41,91.61c0.74,0.21,2.73,0.69,4.71,0.64C2015.01,92 2036.04,90 2051.77,89.97c1.99,0,5.43,0.43,6.56,0.64" style="fill:none;stroke:black;stroke-width:3" />
<circle cx="1999.41" cy="91.61" r="5" stroke-width="0" fill="#FF2A00" opacity="0.7" />
</svg>