<!-- 070c8 -->
<svg width="1090px" height="109px" viewBox="0 0 1090px 109px" xmlns="http://www.w3.org/2000/svg" xmlns:xlink="http://www.w3.org/1999/xlink" xml:space="preserve" version="1.1"  baseProfile="full">
<line x1="1" y1="1" x2="1089" y2="1" style="stroke:#ddd;stroke-width:2" />
<line x1="1" y1="1" x2="1" y2="108" style="stroke:#ddd;stroke-width:2" />
<line x1="1" y1="108" x2="1089" y2="108" style="stroke:#ddd;stroke-width:2" />
<line x1="1089" y1="1" x2="1089" y2="108" style="stroke:#ddd;stroke-width:2" />
<line x1="109" y1="1" x2="109" y2="108" style="stroke:#ddd;stroke-width:2" />
<line x1="218" y1="1" x2="218" y2="108" style="stroke:#ddd;stroke-width:2" />
<line x1="327" y1="1" x2="327" y2="108" style="stroke:#ddd;stroke-width:2" />
<line x1="436" y1="1" x2="436" y2="108" style="stroke:#ddd;stroke-width:2" />
<line x1="545" y1="1" x2="545" y2="108" style="stroke:#ddd;stroke-width:2" />
<line x1="654" y1="1" x2="654" y2="108" style="stroke:#ddd;stroke-width:2" />
<line x1="763" y1="1" x2="763" y2="108" style="stroke:#ddd;stroke-width:2" />
<line x1="872" y1="1" x2="872" y2="108" style="stroke:#ddd;stroke-width:2" />
<line x1="981" y1="1" x2="981" y2="108" style="stroke:#ddd;stroke-width:2" />
<line x1="1" y1="54" x2="1089" y2="54" style="stroke:#ddd;stroke-width:2;stroke-dasharray:3 3" />
<line x1="55" y1="1" x2="55" y2="108" style="stroke:#ddd;stroke-width:2;stroke-dasharray:3 3" />
<line x1="164" y1="1" x2="164" y2="108" style="stroke:#ddd;stroke-width:2;stroke-dasharray:3 3" />
<line x1="273" y1="1" x2="273" y2="108" style="stroke:#ddd;stroke-width:2;stroke-dasharray:3 3" />
<line x1="382" y1="1" x2="382" y2="108" style="stroke:#ddd;stroke-width:2;stroke-dasharray:3 3" />
<line x1="491" y1="1" x2="491" y2="108" style="stroke:#ddd;stroke-width:2;stroke-dasharray:3 3" />
<line x1="600" y1="1" x2="600" y2="108" style="stroke:#ddd;stroke-width:2;stroke-dasharray:3 3" />
<line x1="709" y1="1" x2="709" y2="108" style="stroke:#ddd;stroke-width:2;stroke-dasharray:3 3" />
<line x1="818" y1="1" x2="818" y2="108" style="stroke:#ddd;stroke-width:2;stroke-dasharray:3 3" />
<line x1="927" y1="1" x2="927" y2="108" style="stroke:#ddd;stroke-width:2;stroke-dasharray:3 3" />
<line x1="1036" y1="1" x2="1036" y2="108" style="stroke:#ddd;stroke-width:2;stroke-dasharray:3 3" />
<path d="M19.83,16.82c2.23,0.86,4.93,0.33,7.21,0.03c6.72-0.88,16.7-2.55,23.45-3.16c2.21-0.2,4.37-0.3,6.55,0.2" style="fill:none;stroke:black;stroke-width:3" />
<circle cx="19.83" cy="16.82" r="5" stroke-width="0" fill="#FF2A00" opacity="0.7" />
<path d="M128.82999999999998,16.82c2.23,0.86,4.93,0.33,7.21,0.03c6.72-0.88,16.7-2.55,23.45-3.16c2.21-0.2,4.37-0.3,6.55,0.2" style="fill:none;stroke:#999;stroke-width:3" />
<path d="M147.93,19.01c0.07,1.11-0.15,1.84-0.57,2.8C144.88,27.5 137.12,38 126.1,47.12" style="fill:none;stroke:black;stroke-width:3" />
<circle cx="147.93" cy="19.01" r="5" stroke-width="0" fill="#FF2A00" opacity="0.7" />
<path d="M237.82999999999998,16.82c2.23,0.86,4.93,0.33,7.21,0.03c6.72-0.88,16.7-2.55,23.45-3.16c2.21-0.2,4.37-0.3,6.55,0.2" style="fill:none;stroke:#999;stroke-width:3" />
<path d="M256.93,19.01c0.07,1.11-0.15,1.84-0.57,2.8C253.88,27.5 246.12,38 235.1,47.12" style="fill:none;stroke:#999;stroke-width:3" />
<path d="M253.41,31.58c1.24,0.17,2.74-0.01,3.95-0.27c3.51-0.77,6.72-1.65,11.39-2.91c2.72-0.73,4.46,1.06,3.43,3.82C268.0,43.5 255.25,61.38 237.02,71.5" style="fill:none;stroke:black;stroke-width:3" />
<circle cx="253.41" cy="31.58" r="5" stroke-width="0" fill="#FF2A00" opacity="0.7" />
<path d="M346.83,16.82c2.23,0.86,4.93,0.33,7.21,0.03c6.72-0.88,16.7-2.55,23.45-3.16c2.21-0.2,4.37-0.3,6.55,0.2" style="fill:none;stroke:#999;stroke-width:3" />
<path d="M365.93,19.01c0.07,1.11-0.15,1.84-0.57,2.8C362.88,27.5 355.12,38 344.1,47.12" style="fill:none;stroke:#999;stroke-width:3" />
<path d="M362.40999999999997,31.58c1.24,0.17,2.74-0.01,3.95-0.27c3.51-0.77,6.72-1.65,11.39-2.91c2.72-0.73,4.46,1.06,3.43,3.82C377.0,43.5 364.25,61.38 346.02,71.5" style="fill:none;stroke:#999;stroke-width:3" />
<path d="M356.5,39.88c3.38,1.96,8.74,8.07,9.59,11.12" style="fill:none;stroke:black;stroke-width:3" />
<circle cx="356.5" cy="39.88" r="5" stroke-width="0" fill="#FF2A00" opacity="0.7" />
<path d="M455.83,16.82c2.23,0.86,4.93,0.33,7.21,0.03c6.72-0.88,16.7-2.55,23.45-3.16c2.21-0.2,4.37-0.3,6.55,0.2" style="fill:none;stroke:#999;stroke-width:3" />
<path d="M474.93,19.01c0.07,1.11-0.15,1.84-0.57,2.8C471.88,27.5 464.12,38 453.1,47.12" style="fill:none;stroke:#999;stroke-width:3" />
<path d="M471.40999999999997,31.58c1.24,0.17,2.74-0.01,3.95-0.27c3.51-0.77,6.72-1.65,11.39-2.91c2.72-0.73,4.46,1.06,3.43,3.82C486.0,43.5 473.25,61.38 455.02,71.5" style="fill:none;stroke:#999;stroke-width:3" />
<path d="M465.5,39.88c3.38,1.96,8.74,8.07,9.59,11.12" style="fill:none;stroke:#999;stroke-width:3" />
<path d="M503.57,19.63c1.03,1.03,1.27,2.62,1.27,4.9c0,9.79-0.02,15.49-0.04,20.72c0,1.83-0.01,3.61-0.01,5.49" style="fill:none;stroke:black;stroke-width:3" />
<circle cx="503.57" cy="19.63" r="5" stroke-width="0" fill="#FF2A00" opacity="0.7" />
<path d="M564.8299999999999,16.82c2.23,0.86,4.93,0.33,7.21,0.03c6.72-0.88,16.7-2.55,23.45-3.16c2.21-0.2,4.37-0.3,6.55,0.2" style="fill:none;stroke:#999;stroke-width:3" />
<path d="M583.9300000000001,19.01c0.07,1.11-0.15,1.84-0.57,2.8C580.88,27.5 573.12,38 562.1,47.12" style="fill:none;stroke:#999;stroke-width:3" />
<path d="M580.41,31.58c1.24,0.17,2.74-0.01,3.95-0.27c3.51-0.77,6.72-1.65,11.39-2.91c2.72-0.73,4.46,1.06,3.43,3.82C595.0,43.5 582.25,61.38 564.02,71.5" style="fill:none;stroke:#999;stroke-width:3" />
<path d="M574.5,39.88c3.38,1.96,8.74,8.07,9.59,11.12" style="fill:none;stroke:#999;stroke-width:3" />
<path d="M612.5699999999999,19.63c1.03,1.03,1.27,2.62,1.27,4.9c0,9.79-0.02,15.49-0.04,20.72c0,1.83-0.01,3.61-0.01,5.49" style="fill:none;stroke:#999;stroke-width:3" />
<path d="M633.36,12.33c1.03,1.03,1.42,2.29,1.42,4.26c0,11.25,0.01,44.71,0.01,48.54c0,8.61-7.36-0.84-8.79-1.81" style="fill:none;stroke:black;stroke-width:3" />
<circle cx="633.36" cy="12.33" r="5" stroke-width="0" fill="#FF2A00" opacity="0.7" />
<path d="M673.8299999999999,16.82c2.23,0.86,4.93,0.33,7.21,0.03c6.72-0.88,16.7-2.55,23.45-3.16c2.21-0.2,4.37-0.3,6.55,0.2" style="fill:none;stroke:#999;stroke-width:3" />
<path d="M692.9300000000001,19.01c0.07,1.11-0.15,1.84-0.57,2.8C689.88,27.5 682.12,38 671.1,47.12" style="fill:none;stroke:#999;stroke-width:3" />
<path d="M689.41,31.58c1.24,0.17,2.74-0.01,3.95-0.27c3.51-0.77,6.72-1.65,11.39-2.91c2.72-0.73,4.46,1.06,3.43,3.82C704.0,43.5 691.25,61.38 673.02,71.5" style="fill:none;stroke:#999;stroke-width:3" />
<path d="M683.5,39.88c3.38,1.96,8.74,8.07,9.59,11.12" style="fill:none;stroke:#999;stroke-width:3" />
<path d="M721.5699999999999,19.63c1.03,1.03,1.27,2.62,1.27,4.9c0,9.79-0.02,15.49-0.04,20.72c0,1.83-0.01,3.61-0.01,5.49" style="fill:none;stroke:#999;stroke-width:3" />
<path d="M742.36,12.33c1.03,1.03,1.42,2.29,1.42,4.26c0,11.25,0.01,44.71,0.01,48.54c0,8.61-7.36-0.84-8.79-1.81" style="fill:none;stroke:#999;stroke-width:3" />
<path d="M676.0,79.25c0,6.43-5.75,15.91-7.25,17.75" style="fill:none;stroke:black;stroke-width:3" />
<circle cx="676.0" cy="79.25" r="5" stroke-width="0" fill="#FF2A00" opacity="0.7" />
<path d="M782.8299999999999,16.82c2.23,0.86,4.93,0.33,7.21,0.03c6.72-0.88,16.7-2.55,23.45-3.16c2.21-0.2,4.37-0.3,6.55,0.2" style="fill:none;stroke:#999;stroke-width:3" />
<path d="M801.9300000000001,19.01c0.07,1.11-0.15,1.84-0.57,2.8C798.88,27.5 791.12,38 780.1,47.12" style="fill:none;stroke:#999;stroke-width:3" />
<path d="M798.41,31.58c1.24,0.17,2.74-0.01,3.95-0.27c3.51-0.77,6.72-1.65,11.39-2.91c2.72-0.73,4.46,1.06,3.43,3.82C813.0,43.5 800.25,61.38 782.02,71.5" style="fill:none;stroke:#999;stroke-width:3" />
<path d="M792.5,39.88c3.38,1.96,8.74,8.07,9.59,11.12" style="fill:none;stroke:#999;stroke-width:3" />
<path d="M830.5699999999999,19.63c1.03,1.03,1.27,2.62,1.27,4.9c0,9.79-0.02,15.49-0.04,20.72c0,1.83-0.01,3.61-0.01,5.49" style="fill:none;stroke:#999;stroke-width:3" />
<path d="M851.36,12.33c1.03,1.03,1.42,2.29,1.42,4.26c0,11.25,0.01,44.71,0.01,48.54c0,8.61-7.36-0.84-8.79-1.81" style="fill:none;stroke:#999;stroke-width:3" />
<path d="M785.0,79.25c0,6.43-5.75,15.91-7.25,17.75" style="fill:none;stroke:#999;stroke-width:3" />
<path d="M804.77,78.58c2.7,2.95,5.26,11.05,5.94,15.63" style="fill:none;stroke:black;stroke-width:3" />
<circle cx="804.77" cy="78.58" r="5" stroke-width="0" fill="#FF2A00" opacity="0.7" />
<path d="M891.8299999999999,16.82c2.23,0.86,4.93,0.33,7.21,0.03c6.72-0.88,16.7-2.55,23.45-3.16c2.21-0.2,4.37-0.3,6.55,0.2" style="fill:none;stroke:#999;stroke-width:3" />
<path d="M910.9300000000001,19.01c0.07,1.11-0.15,1.84-0.57,2.8C907.88,27.5 900.12,38 889.1,47.12" style="fill:none;stroke:#999;stroke-width:3" />
<path d="M907.41,31.58c1.24,0.17,2.74-0.01,3.95-0.27c3.51-0.77,6.72-1.65,11.39-2.91c2.72-0.73,4.46,1.06,3.43,3.82C922.0,43.5 909.25,61.38 891.02,71.5" style="fill:none;stroke:#999;stroke-width:3" />
<path d="M901.5,39.88c3.38,1.96,8.74,8.07,9.59,11.12" style="fill:none;stroke:#999;stroke-width:3" />
<path d="M939.5699999999999,19.63c1.03,1.03,1.27,2.62,1.27,4.9c0,9.79-0.02,15.49-0.04,20.72c0,1.83-0.01,3.61-0.01,5.49" style="fill:none;stroke:#999;stroke-width:3" />
<path d="M960.36,12.33c1.03,1.03,1.42,2.29,1.42,4.26c0,11.25,0.01,44.71,0.01,48.54c0,8.61-7.36-0.84-8.79-1.81" style="fill:none;stroke:#999;stroke-width:3" />
<path d="M894.0,79.25c0,6.43-5.75,15.91-7.25,17.75" style="fill:none;stroke:#999;stroke-width:3" />
<path d="M913.77,78.58c2.7,2.95,5.26,11.05,5.94,15.63" style="fill:none;stroke:#999;stroke-width:3" />
<path d="M934.87,76.83c2.62,2.8,6.78,11.52,7.43,15.88" style="fill:none;stroke:black;stroke-width:3" />
<circle cx="934.87" cy="76.83" r="5" stroke-width="0" fill="#FF2A00" opacity="0.7" />
<path d="M1000.8299999999999,16.82c2.23,0.86,4.93,0.33,7.21,0.03c6.72-0.88,16.7-2.55,23.45-3.16c2.21-0.2,4.37-0.3,6.55,0.2" style="fill:none;stroke:#999;stroke-width:3" />
<path d="M1019.9300000000001,19.01c0.07,1.11-0.15,1.84-0.57,2.8C1016.88,27.5 1009.12,38 998.1,47.12" style="fill:none;stroke:#999;stroke-width:3" />
<path d="M1016.41,31.58c1.24,0.17,2.74-0.01,3.95-0.27c3.51-0.77,6.72-1.65,11.39-2.91c2.72-0.73,4.46,1.06,3.43,3.82C1031.0,43.5 1018.25,61.38 1000.02,71.5" style="fill:none;stroke:#999;stroke-width:3" />
<path d="M1010.5,39.88c3.38,1.96,8.74,8.07,9.59,11.12" style="fill:none;stroke:#999;stroke-width:3" />
<path d="M1048.57,19.63c1.03,1.03,1.27,2.62,1.27,4.9c0,9.79-0.02,15.49-0.04,20.72c0,1.83-0.01,3.61-0.01,5.49" style="fill:none;stroke:#999;stroke-width:3" />
<path d="M1069.3600000000001,12.33c1.03,1.03,1.42,2.29,1.42,4.26c0,11.25,0.01,44.71,0.01,48.54c0,8.61-7.36-0.84-8.79-1.81" style="fill:none;stroke:#999;stroke-width:3" />
<path d="M1003.0,79.25c0,6.43-5.75,15.91-7.25,17.75" style="fill:none;stroke:#999;stroke-width:3" />
<path d="M1022.77,78.58c2.7,2.95,5.26,11.05,5.94,15.63" style="fill:none;stroke:#999;stroke-width:3" />
<path d="M1043.87,76.83c2.62,2.8,6.78,11.52,7.43,15.88" style="fill:none;stroke:#999;stroke-width:3" />
<path d="M1065.02,76.58c3.72,3.2,9.61,13.16,10.54,18.13" style="fill:none;stroke:black;stroke-width:3" />
<circle cx="1065.02" cy="76.58" r="5" stroke-width="0" fill="#FF2A00" opacity="0.7" />
</svg>