<!-- 071b1 -->
<svg width="1635px" height="109px" viewBox="0 0 1635px 109px" xmlns="http://www.w3.org/2000/svg" xmlns:xlink="http://www.w3.org/1999/xlink" xml:space="preserve" version="1.1"  baseProfile="full">
<line x1="1" y1="1" x2="1634" y2="1" style="stroke:#ddd;stroke-width:2" />
<line x1="1" y1="1" x2="1" y2="108" style="stroke:#ddd;stroke-width:2" />
<line x1="1" y1="108" x2="1634" y2="108" style="stroke:#ddd;stroke-width:2" />
<line x1="1634" y1="1" x2="1634" y2="108" style="stroke:#ddd;stroke-width:2" />
<line x1="109" y1="1" x2="109" y2="108" style="stroke:#ddd;stroke-width:2" />
<line x1="218" y1="1" x2="218" y2="108" style="stroke:#ddd;stroke-width:2" />
<line x1="327" y1="1" x2="327" y2="108" style="stroke:#ddd;stroke-width:2" />
<line x1="436" y1="1" x2="436" y2="108" style="stroke:#ddd;stroke-width:2" />
<line x1="545" y1="1" x2="545" y2="108" style="stroke:#ddd;stroke-width:2" />
<line x1="654" y1="1" x2="654" y2="108" style="stroke:#ddd;stroke-width:2" />
<line x1="763" y1="1" x2="763" y2="108" style="stroke:#ddd;stroke-width:2" />
<line x1="872" y1="1" x2="872" y2="108" style="stroke:#ddd;stroke-width:2" />
<line x1="981" y1="1" x2="981" y2="108" style="stroke:#ddd;stroke-width:2" />
<line x1="1090" y1="1" x2="1090" y2="108" style="stroke:#ddd;stroke-width:2" />
<line x1="1199" y1="1" x2="1199" y2="108" style="stroke:#ddd;stroke-width:2" />
<line x1="1308" y1="1" x2="1308" y2="108" style="stroke:#ddd;stroke-width:2" />
<line x1="1417" y1="1" x2="1417" y2="108" style="stroke:#ddd;stroke-width:2" />
<line x1="1526" y1="1" x2="1526" y2="108" style="stroke:#ddd;stroke-width:2" />
<line x1="1" y1="54" x2="1634" y2="54" style="stroke:#ddd;stroke-width:2;stroke-dasharray:3 3" />
<line x1="55" y1="1" x2="55" y2="108" style="stroke:#ddd;stroke-width:2;stroke-dasharray:3 3" />
<line x1="164" y1="1" x2="164" y2="108" style="stroke:#ddd;stroke-width:2;stroke-dasharray:3 3" />
<line x1="273" y1="1" x2="273" y2="108" style="stroke:#ddd;stroke-width:2;stroke-dasharray:3 3" />
<line x1="382" y1="1" x2="382" y2="108" style="stroke:#ddd;stroke-width:2;stroke-dasharray:3 3" />
<line x1="491" y1="1" x2="491" y2="108" style="stroke:#ddd;stroke-width:2;stroke-dasharray:3 3" />
<line x1="600" y1="1" x2="600" y2="108" style="stroke:#ddd;stroke-width:2;stroke-dasharray:3 3" />
<line x1="709" y1="1" x2="709" y2="108" style="stroke:#ddd;stroke-width:2;stroke-dasharray:3 3" />
<line x1="818" y1="1" x2="818" y2="108" style="stroke:#ddd;stroke-width:2;stroke-dasharray:3 3" />
<line x1="927" y1="1" x2="927" y2="108" style="stroke:#ddd;stroke-width:2;stroke-dasharray:3 3" />
<line x1="1036" y1="1" x2="1036" y2="108" style="stroke:#ddd;stroke-width:2;stroke-dasharray:3 3" />
<line x1="1145" y1="1" x2="1145" y2="108" style="stroke:#ddd;stroke-width:2;stroke-dasharray:3 3" />
<line x1="1254" y1="1" x2="1254" y2="108" style="stroke:#ddd;stroke-width:2;stroke-dasharray:3 3" />
<line x1="1363" y1="1" x2="1363" y2="108" style="stroke:#ddd;stroke-width:2;stroke-dasharray:3 3" />
<line x1="1472" y1="1" x2="1472" y2="108" style="stroke:#ddd;stroke-width:2;stroke-dasharray:3 3" />
<line x1="1581" y1="1" x2="1581" y2="108" style="stroke:#ddd;stroke-width:2;stroke-dasharray:3 3" />
<path d="M20.73,25.14c1.16,0.45,2.57,0.29,3.78,0.2c4.79-0.39,13.58-1.65,18.51-1.98c1.5-0.1,3.03-0.16,4.51,0.19" style="fill:none;stroke:black;stroke-width:3" />
<circle cx="20.73" cy="25.14" r="5" stroke-width="0" fill="#FF2A00" opacity="0.7" />
<path d="M129.73,25.14c1.16,0.45,2.57,0.29,3.78,0.2c4.79-0.39,13.58-1.65,18.51-1.98c1.5-0.1,3.03-0.16,4.51,0.19" style="fill:none;stroke:#999;stroke-width:3" />
<path d="M142.96,11.62c0.53,0.53,1.02,1.59,1.02,2.92c0,8.34-0.26,16.84-0.26,20.1" style="fill:none;stroke:black;stroke-width:3" />
<circle cx="142.96" cy="11.62" r="5" stroke-width="0" fill="#FF2A00" opacity="0.7" />
<path d="M238.73,25.14c1.16,0.45,2.57,0.29,3.78,0.2c4.79-0.39,13.58-1.65,18.51-1.98c1.5-0.1,3.03-0.16,4.51,0.19" style="fill:none;stroke:#999;stroke-width:3" />
<path d="M251.96,11.62c0.53,0.53,1.02,1.59,1.02,2.92c0,8.34-0.26,16.84-0.26,20.1" style="fill:none;stroke:#999;stroke-width:3" />
<path d="M233.43,37.9c1.09,0.39,3.08,0.53,4.16,0.39C247.25,37 258.25,35 266.52,34.04c1.8-0.21,2.9,0.18,3.8,0.38" style="fill:none;stroke:black;stroke-width:3" />
<circle cx="233.43" cy="37.9" r="5" stroke-width="0" fill="#FF2A00" opacity="0.7" />
<path d="M347.73,25.14c1.16,0.45,2.57,0.29,3.78,0.2c4.79-0.39,13.58-1.65,18.51-1.98c1.5-0.1,3.03-0.16,4.51,0.19" style="fill:none;stroke:#999;stroke-width:3" />
<path d="M360.96000000000004,11.62c0.53,0.53,1.02,1.59,1.02,2.92c0,8.34-0.26,16.84-0.26,20.1" style="fill:none;stroke:#999;stroke-width:3" />
<path d="M342.43,37.9c1.09,0.39,3.08,0.53,4.16,0.39C356.25,37 367.25,35 375.52,34.04c1.8-0.21,2.9,0.18,3.8,0.38" style="fill:none;stroke:#999;stroke-width:3" />
<path d="M352.09,41.7c0.06,0.44,0.14,1.15-0.13,1.76c-2.34,5.29-5.71,8.79-11.96,13.89" style="fill:none;stroke:black;stroke-width:3" />
<circle cx="352.09" cy="41.7" r="5" stroke-width="0" fill="#FF2A00" opacity="0.7" />
<path d="M456.73,25.14c1.16,0.45,2.57,0.29,3.78,0.2c4.79-0.39,13.58-1.65,18.51-1.98c1.5-0.1,3.03-0.16,4.51,0.19" style="fill:none;stroke:#999;stroke-width:3" />
<path d="M469.96000000000004,11.62c0.53,0.53,1.02,1.59,1.02,2.92c0,8.34-0.26,16.84-0.26,20.1" style="fill:none;stroke:#999;stroke-width:3" />
<path d="M451.43,37.9c1.09,0.39,3.08,0.53,4.16,0.39C465.25,37 476.25,35 484.52,34.04c1.8-0.21,2.9,0.18,3.8,0.38" style="fill:none;stroke:#999;stroke-width:3" />
<path d="M461.09,41.7c0.06,0.44,0.14,1.15-0.13,1.76c-2.34,5.29-5.71,8.79-11.96,13.89" style="fill:none;stroke:#999;stroke-width:3" />
<path d="M476.48,36.9c0.59,0.72,1.09,1.82,1.09,2.92c0,1.49-0.18,4.29-0.18,5.35c0,2.9,2.01,3.85,5.86,3.85c3.48,0,6.04-0.25,7.51-1.19" style="fill:none;stroke:black;stroke-width:3" />
<circle cx="476.48" cy="36.9" r="5" stroke-width="0" fill="#FF2A00" opacity="0.7" />
<path d="M565.73,25.14c1.16,0.45,2.57,0.29,3.78,0.2c4.79-0.39,13.58-1.65,18.51-1.98c1.5-0.1,3.03-0.16,4.51,0.19" style="fill:none;stroke:#999;stroke-width:3" />
<path d="M578.96,11.62c0.53,0.53,1.02,1.59,1.02,2.92c0,8.34-0.26,16.84-0.26,20.1" style="fill:none;stroke:#999;stroke-width:3" />
<path d="M560.4300000000001,37.9c1.09,0.39,3.08,0.53,4.16,0.39C574.25,37 585.25,35 593.52,34.04c1.8-0.21,2.9,0.18,3.8,0.38" style="fill:none;stroke:#999;stroke-width:3" />
<path d="M570.0899999999999,41.7c0.06,0.44,0.14,1.15-0.13,1.76c-2.34,5.29-5.71,8.79-11.96,13.89" style="fill:none;stroke:#999;stroke-width:3" />
<path d="M585.48,36.9c0.59,0.72,1.09,1.82,1.09,2.92c0,1.49-0.18,4.29-0.18,5.35c0,2.9,2.01,3.85,5.86,3.85c3.48,0,6.04-0.25,7.51-1.19" style="fill:none;stroke:#999;stroke-width:3" />
<path d="M566.78,59.19c1.34,0.31,2.53,0.48,4.02,0.31c7.17-0.81,12.1-1.63,17.45-2.14c1.29-0.12,2.73-0.45,4-0.11" style="fill:none;stroke:black;stroke-width:3" />
<circle cx="566.78" cy="59.19" r="5" stroke-width="0" fill="#FF2A00" opacity="0.7" />
<path d="M674.73,25.14c1.16,0.45,2.57,0.29,3.78,0.2c4.79-0.39,13.58-1.65,18.51-1.98c1.5-0.1,3.03-0.16,4.51,0.19" style="fill:none;stroke:#999;stroke-width:3" />
<path d="M687.96,11.62c0.53,0.53,1.02,1.59,1.02,2.92c0,8.34-0.26,16.84-0.26,20.1" style="fill:none;stroke:#999;stroke-width:3" />
<path d="M669.4300000000001,37.9c1.09,0.39,3.08,0.53,4.16,0.39C683.25,37 694.25,35 702.52,34.04c1.8-0.21,2.9,0.18,3.8,0.38" style="fill:none;stroke:#999;stroke-width:3" />
<path d="M679.0899999999999,41.7c0.06,0.44,0.14,1.15-0.13,1.76c-2.34,5.29-5.71,8.79-11.96,13.89" style="fill:none;stroke:#999;stroke-width:3" />
<path d="M694.48,36.9c0.59,0.72,1.09,1.82,1.09,2.92c0,1.49-0.18,4.29-0.18,5.35c0,2.9,2.01,3.85,5.86,3.85c3.48,0,6.04-0.25,7.51-1.19" style="fill:none;stroke:#999;stroke-width:3" />
<path d="M675.78,59.19c1.34,0.31,2.53,0.48,4.02,0.31c7.17-0.81,12.1-1.63,17.45-2.14c1.29-0.12,2.73-0.45,4-0.11" style="fill:none;stroke:#999;stroke-width:3" />
<path d="M687.87,47.5c1.13,1.13,1.46,2.62,1.46,4.25c0,3.5,0.03,10.75,0.03,17.75" style="fill:none;stroke:black;stroke-width:3" />
<circle cx="687.87" cy="47.5" r="5" stroke-width="0" fill="#FF2A00" opacity="0.7" />
<path d="M783.73,25.14c1.16,0.45,2.57,0.29,3.78,0.2c4.79-0.39,13.58-1.65,18.51-1.98c1.5-0.1,3.03-0.16,4.51,0.19" style="fill:none;stroke:#999;stroke-width:3" />
<path d="M796.96,11.62c0.53,0.53,1.02,1.59,1.02,2.92c0,8.34-0.26,16.84-0.26,20.1" style="fill:none;stroke:#999;stroke-width:3" />
<path d="M778.4300000000001,37.9c1.09,0.39,3.08,0.53,4.16,0.39C792.25,37 803.25,35 811.52,34.04c1.8-0.21,2.9,0.18,3.8,0.38" style="fill:none;stroke:#999;stroke-width:3" />
<path d="M788.0899999999999,41.7c0.06,0.44,0.14,1.15-0.13,1.76c-2.34,5.29-5.71,8.79-11.96,13.89" style="fill:none;stroke:#999;stroke-width:3" />
<path d="M803.48,36.9c0.59,0.72,1.09,1.82,1.09,2.92c0,1.49-0.18,4.29-0.18,5.35c0,2.9,2.01,3.85,5.86,3.85c3.48,0,6.04-0.25,7.51-1.19" style="fill:none;stroke:#999;stroke-width:3" />
<path d="M784.78,59.19c1.34,0.31,2.53,0.48,4.02,0.31c7.17-0.81,12.1-1.63,17.45-2.14c1.29-0.12,2.73-0.45,4-0.11" style="fill:none;stroke:#999;stroke-width:3" />
<path d="M796.87,47.5c1.13,1.13,1.46,2.62,1.46,4.25c0,3.5,0.03,10.75,0.03,17.75" style="fill:none;stroke:#999;stroke-width:3" />
<path d="M781.92,73.54c0.83,0.83,2.08,0.96,3.78,0.53c5.98-1.5,16.9-4.74,24.43-6.95" style="fill:none;stroke:black;stroke-width:3" />
<circle cx="781.92" cy="73.54" r="5" stroke-width="0" fill="#FF2A00" opacity="0.7" />
<path d="M892.73,25.14c1.16,0.45,2.57,0.29,3.78,0.2c4.79-0.39,13.58-1.65,18.51-1.98c1.5-0.1,3.03-0.16,4.51,0.19" style="fill:none;stroke:#999;stroke-width:3" />
<path d="M905.96,11.62c0.53,0.53,1.02,1.59,1.02,2.92c0,8.34-0.26,16.84-0.26,20.1" style="fill:none;stroke:#999;stroke-width:3" />
<path d="M887.4300000000001,37.9c1.09,0.39,3.08,0.53,4.16,0.39C901.25,37 912.25,35 920.52,34.04c1.8-0.21,2.9,0.18,3.8,0.38" style="fill:none;stroke:#999;stroke-width:3" />
<path d="M897.0899999999999,41.7c0.06,0.44,0.14,1.15-0.13,1.76c-2.34,5.29-5.71,8.79-11.96,13.89" style="fill:none;stroke:#999;stroke-width:3" />
<path d="M912.48,36.9c0.59,0.72,1.09,1.82,1.09,2.92c0,1.49-0.18,4.29-0.18,5.35c0,2.9,2.01,3.85,5.86,3.85c3.48,0,6.04-0.25,7.51-1.19" style="fill:none;stroke:#999;stroke-width:3" />
<path d="M893.78,59.19c1.34,0.31,2.53,0.48,4.02,0.31c7.17-0.81,12.1-1.63,17.45-2.14c1.29-0.12,2.73-0.45,4-0.11" style="fill:none;stroke:#999;stroke-width:3" />
<path d="M905.87,47.5c1.13,1.13,1.46,2.62,1.46,4.25c0,3.5,0.03,10.75,0.03,17.75" style="fill:none;stroke:#999;stroke-width:3" />
<path d="M890.92,73.54c0.83,0.83,2.08,0.96,3.78,0.53c5.98-1.5,16.9-4.74,24.43-6.95" style="fill:none;stroke:#999;stroke-width:3" />
<path d="M941.77,11.62c0.5,0.55,0.89,1.81,0.86,2.8c-1.13,35.32-8.26,49.95-22.26,61.32" style="fill:none;stroke:black;stroke-width:3" />
<circle cx="941.77" cy="11.62" r="5" stroke-width="0" fill="#FF2A00" opacity="0.7" />
<path d="M1001.73,25.14c1.16,0.45,2.57,0.29,3.78,0.2c4.79-0.39,13.58-1.65,18.51-1.98c1.5-0.1,3.03-0.16,4.51,0.19" style="fill:none;stroke:#999;stroke-width:3" />
<path d="M1014.96,11.62c0.53,0.53,1.02,1.59,1.02,2.92c0,8.34-0.26,16.84-0.26,20.1" style="fill:none;stroke:#999;stroke-width:3" />
<path d="M996.4300000000001,37.9c1.09,0.39,3.08,0.53,4.16,0.39C1010.25,37 1021.25,35 1029.52,34.04c1.8-0.21,2.9,0.18,3.8,0.38" style="fill:none;stroke:#999;stroke-width:3" />
<path d="M1006.0899999999999,41.7c0.06,0.44,0.14,1.15-0.13,1.76c-2.34,5.29-5.71,8.79-11.96,13.89" style="fill:none;stroke:#999;stroke-width:3" />
<path d="M1021.48,36.9c0.59,0.72,1.09,1.82,1.09,2.92c0,1.49-0.18,4.29-0.18,5.35c0,2.9,2.01,3.85,5.86,3.85c3.48,0,6.04-0.25,7.51-1.19" style="fill:none;stroke:#999;stroke-width:3" />
<path d="M1002.78,59.19c1.34,0.31,2.53,0.48,4.02,0.31c7.17-0.81,12.1-1.63,17.45-2.14c1.29-0.12,2.73-0.45,4-0.11" style="fill:none;stroke:#999;stroke-width:3" />
<path d="M1014.87,47.5c1.13,1.13,1.46,2.62,1.46,4.25c0,3.5,0.03,10.75,0.03,17.75" style="fill:none;stroke:#999;stroke-width:3" />
<path d="M999.92,73.54c0.83,0.83,2.08,0.96,3.78,0.53c5.98-1.5,16.9-4.74,24.43-6.95" style="fill:none;stroke:#999;stroke-width:3" />
<path d="M1050.77,11.62c0.5,0.55,0.89,1.81,0.86,2.8c-1.13,35.32-8.26,49.95-22.26,61.32" style="fill:none;stroke:#999;stroke-width:3" />
<path d="M1040.2,35.76c1.93,0.36,3.57,0.32,4.67,0c2.63-0.76,9.36-2.11,15.07-3.27c3.07-0.62,4.57,0,3.84,3.86c-0.57,3-3.77,15.01-4.27,23.25c-0.41,6.68,1.51,11.7,8.69,11.7c6.56,0,8.56,0.19,8.75-6.99" style="fill:none;stroke:black;stroke-width:3" />
<circle cx="1040.2" cy="35.76" r="5" stroke-width="0" fill="#FF2A00" opacity="0.7" />
<path d="M1110.73,25.14c1.16,0.45,2.57,0.29,3.78,0.2c4.79-0.39,13.58-1.65,18.51-1.98c1.5-0.1,3.03-0.16,4.51,0.19" style="fill:none;stroke:#999;stroke-width:3" />
<path d="M1123.96,11.62c0.53,0.53,1.02,1.59,1.02,2.92c0,8.34-0.26,16.84-0.26,20.1" style="fill:none;stroke:#999;stroke-width:3" />
<path d="M1105.43,37.9c1.09,0.39,3.08,0.53,4.16,0.39C1119.25,37 1130.25,35 1138.52,34.04c1.8-0.21,2.9,0.18,3.8,0.38" style="fill:none;stroke:#999;stroke-width:3" />
<path d="M1115.09,41.7c0.06,0.44,0.14,1.15-0.13,1.76c-2.34,5.29-5.71,8.79-11.96,13.89" style="fill:none;stroke:#999;stroke-width:3" />
<path d="M1130.48,36.9c0.59,0.72,1.09,1.82,1.09,2.92c0,1.49-0.18,4.29-0.18,5.35c0,2.9,2.01,3.85,5.86,3.85c3.48,0,6.04-0.25,7.51-1.19" style="fill:none;stroke:#999;stroke-width:3" />
<path d="M1111.78,59.19c1.34,0.31,2.53,0.48,4.02,0.31c7.17-0.81,12.1-1.63,17.45-2.14c1.29-0.12,2.73-0.45,4-0.11" style="fill:none;stroke:#999;stroke-width:3" />
<path d="M1123.87,47.5c1.13,1.13,1.46,2.62,1.46,4.25c0,3.5,0.03,10.75,0.03,17.75" style="fill:none;stroke:#999;stroke-width:3" />
<path d="M1108.92,73.54c0.83,0.83,2.08,0.96,3.78,0.53c5.98-1.5,16.9-4.74,24.43-6.95" style="fill:none;stroke:#999;stroke-width:3" />
<path d="M1159.77,11.62c0.5,0.55,0.89,1.81,0.86,2.8c-1.13,35.32-8.26,49.95-22.26,61.32" style="fill:none;stroke:#999;stroke-width:3" />
<path d="M1149.2,35.76c1.93,0.36,3.57,0.32,4.67,0c2.63-0.76,9.36-2.11,15.07-3.27c3.07-0.62,4.57,0,3.84,3.86c-0.57,3-3.77,15.01-4.27,23.25c-0.41,6.68,1.51,11.7,8.69,11.7c6.56,0,8.56,0.19,8.75-6.99" style="fill:none;stroke:#999;stroke-width:3" />
<path d="M1148.25,53c4.08,1.98,10.54,8.14,11.56,11.22" style="fill:none;stroke:black;stroke-width:3" />
<circle cx="1148.25" cy="53.0" r="5" stroke-width="0" fill="#FF2A00" opacity="0.7" />
<path d="M1219.73,25.14c1.16,0.45,2.57,0.29,3.78,0.2c4.79-0.39,13.58-1.65,18.51-1.98c1.5-0.1,3.03-0.16,4.51,0.19" style="fill:none;stroke:#999;stroke-width:3" />
<path d="M1232.96,11.62c0.53,0.53,1.02,1.59,1.02,2.92c0,8.34-0.26,16.84-0.26,20.1" style="fill:none;stroke:#999;stroke-width:3" />
<path d="M1214.43,37.9c1.09,0.39,3.08,0.53,4.16,0.39C1228.25,37 1239.25,35 1247.52,34.04c1.8-0.21,2.9,0.18,3.8,0.38" style="fill:none;stroke:#999;stroke-width:3" />
<path d="M1224.09,41.7c0.06,0.44,0.14,1.15-0.13,1.76c-2.34,5.29-5.71,8.79-11.96,13.89" style="fill:none;stroke:#999;stroke-width:3" />
<path d="M1239.48,36.9c0.59,0.72,1.09,1.82,1.09,2.92c0,1.49-0.18,4.29-0.18,5.35c0,2.9,2.01,3.85,5.86,3.85c3.48,0,6.04-0.25,7.51-1.19" style="fill:none;stroke:#999;stroke-width:3" />
<path d="M1220.78,59.19c1.34,0.31,2.53,0.48,4.02,0.31c7.17-0.81,12.1-1.63,17.45-2.14c1.29-0.12,2.73-0.45,4-0.11" style="fill:none;stroke:#999;stroke-width:3" />
<path d="M1232.87,47.5c1.13,1.13,1.46,2.62,1.46,4.25c0,3.5,0.03,10.75,0.03,17.75" style="fill:none;stroke:#999;stroke-width:3" />
<path d="M1217.92,73.54c0.83,0.83,2.08,0.96,3.78,0.53c5.98-1.5,16.9-4.74,24.43-6.95" style="fill:none;stroke:#999;stroke-width:3" />
<path d="M1268.77,11.62c0.5,0.55,0.89,1.81,0.86,2.8c-1.13,35.32-8.26,49.95-22.26,61.32" style="fill:none;stroke:#999;stroke-width:3" />
<path d="M1258.2,35.76c1.93,0.36,3.57,0.32,4.67,0c2.63-0.76,9.36-2.11,15.07-3.27c3.07-0.62,4.57,0,3.84,3.86c-0.57,3-3.77,15.01-4.27,23.25c-0.41,6.68,1.51,11.7,8.69,11.7c6.56,0,8.56,0.19,8.75-6.99" style="fill:none;stroke:#999;stroke-width:3" />
<path d="M1257.25,53c4.08,1.98,10.54,8.14,11.56,11.22" style="fill:none;stroke:#999;stroke-width:3" />
<path d="M1218.0,84.5c0,5.25-5.16,13-6.5,14.5" style="fill:none;stroke:black;stroke-width:3" />
<circle cx="1218.0" cy="84.5" r="5" stroke-width="0" fill="#FF2A00" opacity="0.7" />
<path d="M1328.73,25.14c1.16,0.45,2.57,0.29,3.78,0.2c4.79-0.39,13.58-1.65,18.51-1.98c1.5-0.1,3.03-0.16,4.51,0.19" style="fill:none;stroke:#999;stroke-width:3" />
<path d="M1341.96,11.62c0.53,0.53,1.02,1.59,1.02,2.92c0,8.34-0.26,16.84-0.26,20.1" style="fill:none;stroke:#999;stroke-width:3" />
<path d="M1323.43,37.9c1.09,0.39,3.08,0.53,4.16,0.39C1337.25,37 1348.25,35 1356.52,34.04c1.8-0.21,2.9,0.18,3.8,0.38" style="fill:none;stroke:#999;stroke-width:3" />
<path d="M1333.09,41.7c0.06,0.44,0.14,1.15-0.13,1.76c-2.34,5.29-5.71,8.79-11.96,13.89" style="fill:none;stroke:#999;stroke-width:3" />
<path d="M1348.48,36.9c0.59,0.72,1.09,1.82,1.09,2.92c0,1.49-0.18,4.29-0.18,5.35c0,2.9,2.01,3.85,5.86,3.85c3.48,0,6.04-0.25,7.51-1.19" style="fill:none;stroke:#999;stroke-width:3" />
<path d="M1329.78,59.19c1.34,0.31,2.53,0.48,4.02,0.31c7.17-0.81,12.1-1.63,17.45-2.14c1.29-0.12,2.73-0.45,4-0.11" style="fill:none;stroke:#999;stroke-width:3" />
<path d="M1341.87,47.5c1.13,1.13,1.46,2.62,1.46,4.25c0,3.5,0.03,10.75,0.03,17.75" style="fill:none;stroke:#999;stroke-width:3" />
<path d="M1326.92,73.54c0.83,0.83,2.08,0.96,3.78,0.53c5.98-1.5,16.9-4.74,24.43-6.95" style="fill:none;stroke:#999;stroke-width:3" />
<path d="M1377.77,11.62c0.5,0.55,0.89,1.81,0.86,2.8c-1.13,35.32-8.26,49.95-22.26,61.32" style="fill:none;stroke:#999;stroke-width:3" />
<path d="M1367.2,35.76c1.93,0.36,3.57,0.32,4.67,0c2.63-0.76,9.36-2.11,15.07-3.27c3.07-0.62,4.57,0,3.84,3.86c-0.57,3-3.77,15.01-4.27,23.25c-0.41,6.68,1.51,11.7,8.69,11.7c6.56,0,8.56,0.19,8.75-6.99" style="fill:none;stroke:#999;stroke-width:3" />
<path d="M1366.25,53c4.08,1.98,10.54,8.14,11.56,11.22" style="fill:none;stroke:#999;stroke-width:3" />
<path d="M1327.0,84.5c0,5.25-5.16,13-6.5,14.5" style="fill:none;stroke:#999;stroke-width:3" />
<path d="M1347.77,81.33c2.36,2.8,4.6,10.52,5.19,14.88" style="fill:none;stroke:black;stroke-width:3" />
<circle cx="1347.77" cy="81.33" r="5" stroke-width="0" fill="#FF2A00" opacity="0.7" />
<path d="M1437.73,25.14c1.16,0.45,2.57,0.29,3.78,0.2c4.79-0.39,13.58-1.65,18.51-1.98c1.5-0.1,3.03-0.16,4.51,0.19" style="fill:none;stroke:#999;stroke-width:3" />
<path d="M1450.96,11.62c0.53,0.53,1.02,1.59,1.02,2.92c0,8.34-0.26,16.84-0.26,20.1" style="fill:none;stroke:#999;stroke-width:3" />
<path d="M1432.43,37.9c1.09,0.39,3.08,0.53,4.16,0.39C1446.25,37 1457.25,35 1465.52,34.04c1.8-0.21,2.9,0.18,3.8,0.38" style="fill:none;stroke:#999;stroke-width:3" />
<path d="M1442.09,41.7c0.06,0.44,0.14,1.15-0.13,1.76c-2.34,5.29-5.71,8.79-11.96,13.89" style="fill:none;stroke:#999;stroke-width:3" />
<path d="M1457.48,36.9c0.59,0.72,1.09,1.82,1.09,2.92c0,1.49-0.18,4.29-0.18,5.35c0,2.9,2.01,3.85,5.86,3.85c3.48,0,6.04-0.25,7.51-1.19" style="fill:none;stroke:#999;stroke-width:3" />
<path d="M1438.78,59.19c1.34,0.31,2.53,0.48,4.02,0.31c7.17-0.81,12.1-1.63,17.45-2.14c1.29-0.12,2.73-0.45,4-0.11" style="fill:none;stroke:#999;stroke-width:3" />
<path d="M1450.87,47.5c1.13,1.13,1.46,2.62,1.46,4.25c0,3.5,0.03,10.75,0.03,17.75" style="fill:none;stroke:#999;stroke-width:3" />
<path d="M1435.92,73.54c0.83,0.83,2.08,0.96,3.78,0.53c5.98-1.5,16.9-4.74,24.43-6.95" style="fill:none;stroke:#999;stroke-width:3" />
<path d="M1486.77,11.62c0.5,0.55,0.89,1.81,0.86,2.8c-1.13,35.32-8.26,49.95-22.26,61.32" style="fill:none;stroke:#999;stroke-width:3" />
<path d="M1476.2,35.76c1.93,0.36,3.57,0.32,4.67,0c2.63-0.76,9.36-2.11,15.07-3.27c3.07-0.62,4.57,0,3.84,3.86c-0.57,3-3.77,15.01-4.27,23.25c-0.41,6.68,1.51,11.7,8.69,11.7c6.56,0,8.56,0.19,8.75-6.99" style="fill:none;stroke:#999;stroke-width:3" />
<path d="M1475.25,53c4.08,1.98,10.54,8.14,11.56,11.22" style="fill:none;stroke:#999;stroke-width:3" />
<path d="M1436.0,84.5c0,5.25-5.16,13-6.5,14.5" style="fill:none;stroke:#999;stroke-width:3" />
<path d="M1456.77,81.33c2.36,2.8,4.6,10.52,5.19,14.88" style="fill:none;stroke:#999;stroke-width:3" />
<path d="M1479.87,81.08c2.09,2.54,5.41,10.44,5.93,14.38" style="fill:none;stroke:black;stroke-width:3" />
<circle cx="1479.87" cy="81.08" r="5" stroke-width="0" fill="#FF2A00" opacity="0.7" />
<path d="M1546.73,25.14c1.16,0.45,2.57,0.29,3.78,0.2c4.79-0.39,13.58-1.65,18.51-1.98c1.5-0.1,3.03-0.16,4.51,0.19" style="fill:none;stroke:#999;stroke-width:3" />
<path d="M1559.96,11.62c0.53,0.53,1.02,1.59,1.02,2.92c0,8.34-0.26,16.84-0.26,20.1" style="fill:none;stroke:#999;stroke-width:3" />
<path d="M1541.43,37.9c1.09,0.39,3.08,0.53,4.16,0.39C1555.25,37 1566.25,35 1574.52,34.04c1.8-0.21,2.9,0.18,3.8,0.38" style="fill:none;stroke:#999;stroke-width:3" />
<path d="M1551.09,41.7c0.06,0.44,0.14,1.15-0.13,1.76c-2.34,5.29-5.71,8.79-11.96,13.89" style="fill:none;stroke:#999;stroke-width:3" />
<path d="M1566.48,36.9c0.59,0.72,1.09,1.82,1.09,2.92c0,1.49-0.18,4.29-0.18,5.35c0,2.9,2.01,3.85,5.86,3.85c3.48,0,6.04-0.25,7.51-1.19" style="fill:none;stroke:#999;stroke-width:3" />
<path d="M1547.78,59.19c1.34,0.31,2.53,0.48,4.02,0.31c7.17-0.81,12.1-1.63,17.45-2.14c1.29-0.12,2.73-0.45,4-0.11" style="fill:none;stroke:#999;stroke-width:3" />
<path d="M1559.87,47.5c1.13,1.13,1.46,2.62,1.46,4.25c0,3.5,0.03,10.75,0.03,17.75" style="fill:none;stroke:#999;stroke-width:3" />
<path d="M1544.92,73.54c0.83,0.83,2.08,0.96,3.78,0.53c5.98-1.5,16.9-4.74,24.43-6.95" style="fill:none;stroke:#999;stroke-width:3" />
<path d="M1595.77,11.62c0.5,0.55,0.89,1.81,0.86,2.8c-1.13,35.32-8.26,49.95-22.26,61.32" style="fill:none;stroke:#999;stroke-width:3" />
<path d="M1585.2,35.76c1.93,0.36,3.57,0.32,4.67,0c2.63-0.76,9.36-2.11,15.07-3.27c3.07-0.62,4.57,0,3.84,3.86c-0.57,3-3.77,15.01-4.27,23.25c-0.41,6.68,1.51,11.7,8.69,11.7c6.56,0,8.56,0.19,8.75-6.99" style="fill:none;stroke:#999;stroke-width:3" />
<path d="M1584.25,53c4.08,1.98,10.54,8.14,11.56,11.22" style="fill:none;stroke:#999;stroke-width:3" />
<path d="M1545.0,84.5c0,5.25-5.16,13-6.5,14.5" style="fill:none;stroke:#999;stroke-width:3" />
<path d="M1565.77,81.33c2.36,2.8,4.6,10.52,5.19,14.88" style="fill:none;stroke:#999;stroke-width:3" />
<path d="M1588.87,81.08c2.09,2.54,5.41,10.44,5.93,14.38" style="fill:none;stroke:#999;stroke-width:3" />
<path d="M1609.77,80.58c3.81,2.63,9.84,10.8,10.79,14.88" style="fill:none;stroke:black;stroke-width:3" />
<circle cx="1609.77" cy="80.58" r="5" stroke-width="0" fill="#FF2A00" opacity="0.7" />
</svg>