<!-- 071d0 -->
<svg width="1853px" height="109px" viewBox="0 0 1853px 109px" xmlns="http://www.w3.org/2000/svg" xmlns:xlink="http://www.w3.org/1999/xlink" xml:space="preserve" version="1.1"  baseProfile="full">
<line x1="1" y1="1" x2="1852" y2="1" style="stroke:#ddd;stroke-width:2" />
<line x1="1" y1="1" x2="1" y2="108" style="stroke:#ddd;stroke-width:2" />
<line x1="1" y1="108" x2="1852" y2="108" style="stroke:#ddd;stroke-width:2" />
<line x1="1852" y1="1" x2="1852" y2="108" style="stroke:#ddd;stroke-width:2" />
<line x1="109" y1="1" x2="109" y2="108" style="stroke:#ddd;stroke-width:2" />
<line x1="218" y1="1" x2="218" y2="108" style="stroke:#ddd;stroke-width:2" />
<line x1="327" y1="1" x2="327" y2="108" style="stroke:#ddd;stroke-width:2" />
<line x1="436" y1="1" x2="436" y2="108" style="stroke:#ddd;stroke-width:2" />
<line x1="545" y1="1" x2="545" y2="108" style="stroke:#ddd;stroke-width:2" />
<line x1="654" y1="1" x2="654" y2="108" style="stroke:#ddd;stroke-width:2" />
<line x1="763" y1="1" x2="763" y2="108" style="stroke:#ddd;stroke-width:2" />
<line x1="872" y1="1" x2="872" y2="108" style="stroke:#ddd;stroke-width:2" />
<line x1="981" y1="1" x2="981" y2="108" style="stroke:#ddd;stroke-width:2" />
<line x1="1090" y1="1" x2="1090" y2="108" style="stroke:#ddd;stroke-width:2" />
<line x1="1199" y1="1" x2="1199" y2="108" style="stroke:#ddd;stroke-width:2" />
<line x1="1308" y1="1" x2="1308" y2="108" style="stroke:#ddd;stroke-width:2" />
<line x1="1417" y1="1" x2="1417" y2="108" style="stroke:#ddd;stroke-width:2" />
<line x1="1526" y1="1" x2="1526" y2="108" style="stroke:#ddd;stroke-width:2" />
<line x1="1635" y1="1" x2="1635" y2="108" style="stroke:#ddd;stroke-width:2" />
<line x1="1744" y1="1" x2="1744" y2="108" style="stroke:#ddd;stroke-width:2" />
<line x1="1" y1="54" x2="1852" y2="54" style="stroke:#ddd;stroke-width:2;stroke-dasharray:3 3" />
<line x1="55" y1="1" x2="55" y2="108" style="stroke:#ddd;stroke-width:2;stroke-dasharray:3 3" />
<line x1="164" y1="1" x2="164" y2="108" style="stroke:#ddd;stroke-width:2;stroke-dasharray:3 3" />
<line x1="273" y1="1" x2="273" y2="108" style="stroke:#ddd;stroke-width:2;stroke-dasharray:3 3" />
<line x1="382" y1="1" x2="382" y2="108" style="stroke:#ddd;stroke-width:2;stroke-dasharray:3 3" />
<line x1="491" y1="1" x2="491" y2="108" style="stroke:#ddd;stroke-width:2;stroke-dasharray:3 3" />
<line x1="600" y1="1" x2="600" y2="108" style="stroke:#ddd;stroke-width:2;stroke-dasharray:3 3" />
<line x1="709" y1="1" x2="709" y2="108" style="stroke:#ddd;stroke-width:2;stroke-dasharray:3 3" />
<line x1="818" y1="1" x2="818" y2="108" style="stroke:#ddd;stroke-width:2;stroke-dasharray:3 3" />
<line x1="927" y1="1" x2="927" y2="108" style="stroke:#ddd;stroke-width:2;stroke-dasharray:3 3" />
<line x1="1036" y1="1" x2="1036" y2="108" style="stroke:#ddd;stroke-width:2;stroke-dasharray:3 3" />
<line x1="1145" y1="1" x2="1145" y2="108" style="stroke:#ddd;stroke-width:2;stroke-dasharray:3 3" />
<line x1="1254" y1="1" x2="1254" y2="108" style="stroke:#ddd;stroke-width:2;stroke-dasharray:3 3" />
<line x1="1363" y1="1" x2="1363" y2="108" style="stroke:#ddd;stroke-width:2;stroke-dasharray:3 3" />
<line x1="1472" y1="1" x2="1472" y2="108" style="stroke:#ddd;stroke-width:2;stroke-dasharray:3 3" />
<line x1="1581" y1="1" x2="1581" y2="108" style="stroke:#ddd;stroke-width:2;stroke-dasharray:3 3" />
<line x1="1690" y1="1" x2="1690" y2="108" style="stroke:#ddd;stroke-width:2;stroke-dasharray:3 3" />
<line x1="1799" y1="1" x2="1799" y2="108" style="stroke:#ddd;stroke-width:2;stroke-dasharray:3 3" />
<path d="M12.24,37c0.86,3.47,2.11,13.28,2.34,16.75" style="fill:none;stroke:black;stroke-width:3" />
<circle cx="12.24" cy="37.0" r="5" stroke-width="0" fill="#FF2A00" opacity="0.7" />
<path d="M121.24,37c0.86,3.47,2.11,13.28,2.34,16.75" style="fill:none;stroke:#999;stroke-width:3" />
<path d="M144.15,29.75c0.68,0.86,0.94,2,0.32,3.34s-6.91,10.3-10,13.41" style="fill:none;stroke:black;stroke-width:3" />
<circle cx="144.15" cy="29.75" r="5" stroke-width="0" fill="#FF2A00" opacity="0.7" />
<path d="M230.24,37c0.86,3.47,2.11,13.28,2.34,16.75" style="fill:none;stroke:#999;stroke-width:3" />
<path d="M253.15,29.75c0.68,0.86,0.94,2,0.32,3.34s-6.91,10.3-10,13.41" style="fill:none;stroke:#999;stroke-width:3" />
<path d="M241.11,14.5c0.59,0.74,1.18,1.72,1.17,2.95C242.16,66.39 238.42000000000002,79.18 227.5,90" style="fill:none;stroke:black;stroke-width:3" />
<circle cx="241.11" cy="14.5" r="5" stroke-width="0" fill="#FF2A00" opacity="0.7" />
<path d="M339.24,37c0.86,3.47,2.11,13.28,2.34,16.75" style="fill:none;stroke:#999;stroke-width:3" />
<path d="M362.15,29.75c0.68,0.86,0.94,2,0.32,3.34s-6.91,10.3-10,13.41" style="fill:none;stroke:#999;stroke-width:3" />
<path d="M350.11,14.5c0.59,0.74,1.18,1.72,1.17,2.95C351.15999999999997,66.39 347.42,79.18 336.5,90" style="fill:none;stroke:#999;stroke-width:3" />
<path d="M349.5,64.75c4.26,2.6,9.63,10.82,10.75,14.5" style="fill:none;stroke:black;stroke-width:3" />
<circle cx="349.5" cy="64.75" r="5" stroke-width="0" fill="#FF2A00" opacity="0.7" />
<path d="M448.24,37c0.86,3.47,2.11,13.28,2.34,16.75" style="fill:none;stroke:#999;stroke-width:3" />
<path d="M471.15,29.75c0.68,0.86,0.94,2,0.32,3.34s-6.91,10.3-10,13.41" style="fill:none;stroke:#999;stroke-width:3" />
<path d="M459.11,14.5c0.59,0.74,1.18,1.72,1.17,2.95C460.15999999999997,66.39 456.42,79.18 445.5,90" style="fill:none;stroke:#999;stroke-width:3" />
<path d="M458.5,64.75c4.26,2.6,9.63,10.82,10.75,14.5" style="fill:none;stroke:#999;stroke-width:3" />
<path d="M482.34000000000003,16.78c2.69,1.63,6.75,6.23,7.42,8.77" style="fill:none;stroke:black;stroke-width:3" />
<circle cx="482.34000000000003" cy="16.78" r="5" stroke-width="0" fill="#FF2A00" opacity="0.7" />
<path d="M557.24,37c0.86,3.47,2.11,13.28,2.34,16.75" style="fill:none;stroke:#999;stroke-width:3" />
<path d="M580.15,29.75c0.68,0.86,0.94,2,0.32,3.34s-6.91,10.3-10,13.41" style="fill:none;stroke:#999;stroke-width:3" />
<path d="M568.11,14.5c0.59,0.74,1.18,1.72,1.17,2.95C569.16,66.39 565.4200000000001,79.18 554.5,90" style="fill:none;stroke:#999;stroke-width:3" />
<path d="M567.5,64.75c4.26,2.6,9.63,10.82,10.75,14.5" style="fill:none;stroke:#999;stroke-width:3" />
<path d="M591.34,16.78c2.69,1.63,6.75,6.23,7.42,8.77" style="fill:none;stroke:#999;stroke-width:3" />
<path d="M627.6,12.5c0.02,0.3,0.05,0.78-0.05,1.22c-0.57,2.57-3.85,8.2-8.33,11.65" style="fill:none;stroke:black;stroke-width:3" />
<circle cx="627.6" cy="12.5" r="5" stroke-width="0" fill="#FF2A00" opacity="0.7" />
<path d="M666.24,37c0.86,3.47,2.11,13.28,2.34,16.75" style="fill:none;stroke:#999;stroke-width:3" />
<path d="M689.15,29.75c0.68,0.86,0.94,2,0.32,3.34s-6.91,10.3-10,13.41" style="fill:none;stroke:#999;stroke-width:3" />
<path d="M677.11,14.5c0.59,0.74,1.18,1.72,1.17,2.95C678.16,66.39 674.4200000000001,79.18 663.5,90" style="fill:none;stroke:#999;stroke-width:3" />
<path d="M676.5,64.75c4.26,2.6,9.63,10.82,10.75,14.5" style="fill:none;stroke:#999;stroke-width:3" />
<path d="M700.34,16.78c2.69,1.63,6.75,6.23,7.42,8.77" style="fill:none;stroke:#999;stroke-width:3" />
<path d="M736.6,12.5c0.02,0.3,0.05,0.78-0.05,1.22c-0.57,2.57-3.85,8.2-8.33,11.65" style="fill:none;stroke:#999;stroke-width:3" />
<path d="M696.75,31.83c0.51,0.2,1.88,0.52,3.25,0.6c3.76,0.2,34.05-5.16,40.04-4.76c1.37,0.09,1.71-0.2,2.57,0" style="fill:none;stroke:black;stroke-width:3" />
<circle cx="696.75" cy="31.83" r="5" stroke-width="0" fill="#FF2A00" opacity="0.7" />
<path d="M775.24,37c0.86,3.47,2.11,13.28,2.34,16.75" style="fill:none;stroke:#999;stroke-width:3" />
<path d="M798.15,29.75c0.68,0.86,0.94,2,0.32,3.34s-6.91,10.3-10,13.41" style="fill:none;stroke:#999;stroke-width:3" />
<path d="M786.11,14.5c0.59,0.74,1.18,1.72,1.17,2.95C787.16,66.39 783.4200000000001,79.18 772.5,90" style="fill:none;stroke:#999;stroke-width:3" />
<path d="M785.5,64.75c4.26,2.6,9.63,10.82,10.75,14.5" style="fill:none;stroke:#999;stroke-width:3" />
<path d="M809.34,16.78c2.69,1.63,6.75,6.23,7.42,8.77" style="fill:none;stroke:#999;stroke-width:3" />
<path d="M845.6,12.5c0.02,0.3,0.05,0.78-0.05,1.22c-0.57,2.57-3.85,8.2-8.33,11.65" style="fill:none;stroke:#999;stroke-width:3" />
<path d="M805.75,31.83c0.51,0.2,1.88,0.52,3.25,0.6c3.76,0.2,34.05-5.16,40.04-4.76c1.37,0.09,1.71-0.2,2.57,0" style="fill:none;stroke:#999;stroke-width:3" />
<path d="M826.65,11c0.82,0.3,1.32,1.35,1.48,1.96c0.16,0.6,0,36.28-0.17,40.04" style="fill:none;stroke:black;stroke-width:3" />
<circle cx="826.65" cy="11.0" r="5" stroke-width="0" fill="#FF2A00" opacity="0.7" />
<path d="M884.24,37c0.86,3.47,2.11,13.28,2.34,16.75" style="fill:none;stroke:#999;stroke-width:3" />
<path d="M907.15,29.75c0.68,0.86,0.94,2,0.32,3.34s-6.91,10.3-10,13.41" style="fill:none;stroke:#999;stroke-width:3" />
<path d="M895.11,14.5c0.59,0.74,1.18,1.72,1.17,2.95C896.16,66.39 892.4200000000001,79.18 881.5,90" style="fill:none;stroke:#999;stroke-width:3" />
<path d="M894.5,64.75c4.26,2.6,9.63,10.82,10.75,14.5" style="fill:none;stroke:#999;stroke-width:3" />
<path d="M918.34,16.78c2.69,1.63,6.75,6.23,7.42,8.77" style="fill:none;stroke:#999;stroke-width:3" />
<path d="M954.6,12.5c0.02,0.3,0.05,0.78-0.05,1.22c-0.57,2.57-3.85,8.2-8.33,11.65" style="fill:none;stroke:#999;stroke-width:3" />
<path d="M914.75,31.83c0.51,0.2,1.88,0.52,3.25,0.6c3.76,0.2,34.05-5.16,40.04-4.76c1.37,0.09,1.71-0.2,2.57,0" style="fill:none;stroke:#999;stroke-width:3" />
<path d="M935.65,11c0.82,0.3,1.32,1.35,1.48,1.96c0.16,0.6,0,36.28-0.17,40.04" style="fill:none;stroke:#999;stroke-width:3" />
<path d="M935.15,30.31c-3.7,7.24-12.7,17.4-21.02,21.57" style="fill:none;stroke:black;stroke-width:3" />
<circle cx="935.15" cy="30.31" r="5" stroke-width="0" fill="#FF2A00" opacity="0.7" />
<path d="M993.24,37c0.86,3.47,2.11,13.28,2.34,16.75" style="fill:none;stroke:#999;stroke-width:3" />
<path d="M1016.15,29.75c0.68,0.86,0.94,2,0.32,3.34s-6.91,10.3-10,13.41" style="fill:none;stroke:#999;stroke-width:3" />
<path d="M1004.11,14.5c0.59,0.74,1.18,1.72,1.17,2.95C1005.16,66.39 1001.4200000000001,79.18 990.5,90" style="fill:none;stroke:#999;stroke-width:3" />
<path d="M1003.5,64.75c4.26,2.6,9.63,10.82,10.75,14.5" style="fill:none;stroke:#999;stroke-width:3" />
<path d="M1027.3400000000001,16.78c2.69,1.63,6.75,6.23,7.42,8.77" style="fill:none;stroke:#999;stroke-width:3" />
<path d="M1063.6,12.5c0.02,0.3,0.05,0.78-0.05,1.22c-0.57,2.57-3.85,8.2-8.33,11.65" style="fill:none;stroke:#999;stroke-width:3" />
<path d="M1023.75,31.83c0.51,0.2,1.88,0.52,3.25,0.6c3.76,0.2,34.05-5.16,40.04-4.76c1.37,0.09,1.71-0.2,2.57,0" style="fill:none;stroke:#999;stroke-width:3" />
<path d="M1044.65,11c0.82,0.3,1.32,1.35,1.48,1.96c0.16,0.6,0,36.28-0.17,40.04" style="fill:none;stroke:#999;stroke-width:3" />
<path d="M1044.15,30.31c-3.7,7.24-12.7,17.4-21.02,21.57" style="fill:none;stroke:#999;stroke-width:3" />
<path d="M1045.77,30.71c4.07,2.69,21.9,15.39,26.32,18.03c1.5,0.9,2.78,1.28,4.28,1.53" style="fill:none;stroke:black;stroke-width:3" />
<circle cx="1045.77" cy="30.71" r="5" stroke-width="0" fill="#FF2A00" opacity="0.7" />
<path d="M1102.24,37c0.86,3.47,2.11,13.28,2.34,16.75" style="fill:none;stroke:#999;stroke-width:3" />
<path d="M1125.15,29.75c0.68,0.86,0.94,2,0.32,3.34s-6.91,10.3-10,13.41" style="fill:none;stroke:#999;stroke-width:3" />
<path d="M1113.1100000000001,14.5c0.59,0.74,1.18,1.72,1.17,2.95C1114.1599999999999,66.39 1110.42,79.18 1099.5,90" style="fill:none;stroke:#999;stroke-width:3" />
<path d="M1112.5,64.75c4.26,2.6,9.63,10.82,10.75,14.5" style="fill:none;stroke:#999;stroke-width:3" />
<path d="M1136.3400000000001,16.78c2.69,1.63,6.75,6.23,7.42,8.77" style="fill:none;stroke:#999;stroke-width:3" />
<path d="M1172.6,12.5c0.02,0.3,0.05,0.78-0.05,1.22c-0.57,2.57-3.85,8.2-8.33,11.65" style="fill:none;stroke:#999;stroke-width:3" />
<path d="M1132.75,31.83c0.51,0.2,1.88,0.52,3.25,0.6c3.76,0.2,34.05-5.16,40.04-4.76c1.37,0.09,1.71-0.2,2.57,0" style="fill:none;stroke:#999;stroke-width:3" />
<path d="M1153.65,11c0.82,0.3,1.32,1.35,1.48,1.96c0.16,0.6,0,36.28-0.17,40.04" style="fill:none;stroke:#999;stroke-width:3" />
<path d="M1153.15,30.31c-3.7,7.24-12.7,17.4-21.02,21.57" style="fill:none;stroke:#999;stroke-width:3" />
<path d="M1154.77,30.71c4.07,2.69,21.9,15.39,26.32,18.03c1.5,0.9,2.78,1.28,4.28,1.53" style="fill:none;stroke:#999;stroke-width:3" />
<path d="M1138.78,53.56c0.13,0.31,0.39,1.24,0.25,1.86c-0.83,3.67-5.91,11.59-12.43,16.51" style="fill:none;stroke:black;stroke-width:3" />
<circle cx="1138.78" cy="53.56" r="5" stroke-width="0" fill="#FF2A00" opacity="0.7" />
<path d="M1211.24,37c0.86,3.47,2.11,13.28,2.34,16.75" style="fill:none;stroke:#999;stroke-width:3" />
<path d="M1234.15,29.75c0.68,0.86,0.94,2,0.32,3.34s-6.91,10.3-10,13.41" style="fill:none;stroke:#999;stroke-width:3" />
<path d="M1222.1100000000001,14.5c0.59,0.74,1.18,1.72,1.17,2.95C1223.1599999999999,66.39 1219.42,79.18 1208.5,90" style="fill:none;stroke:#999;stroke-width:3" />
<path d="M1221.5,64.75c4.26,2.6,9.63,10.82,10.75,14.5" style="fill:none;stroke:#999;stroke-width:3" />
<path d="M1245.3400000000001,16.78c2.69,1.63,6.75,6.23,7.42,8.77" style="fill:none;stroke:#999;stroke-width:3" />
<path d="M1281.6,12.5c0.02,0.3,0.05,0.78-0.05,1.22c-0.57,2.57-3.85,8.2-8.33,11.65" style="fill:none;stroke:#999;stroke-width:3" />
<path d="M1241.75,31.83c0.51,0.2,1.88,0.52,3.25,0.6c3.76,0.2,34.05-5.16,40.04-4.76c1.37,0.09,1.71-0.2,2.57,0" style="fill:none;stroke:#999;stroke-width:3" />
<path d="M1262.65,11c0.82,0.3,1.32,1.35,1.48,1.96c0.16,0.6,0,36.28-0.17,40.04" style="fill:none;stroke:#999;stroke-width:3" />
<path d="M1262.15,30.31c-3.7,7.24-12.7,17.4-21.02,21.57" style="fill:none;stroke:#999;stroke-width:3" />
<path d="M1263.77,30.71c4.07,2.69,21.9,15.39,26.32,18.03c1.5,0.9,2.78,1.28,4.28,1.53" style="fill:none;stroke:#999;stroke-width:3" />
<path d="M1247.78,53.56c0.13,0.31,0.39,1.24,0.25,1.86c-0.83,3.67-5.91,11.59-12.43,16.51" style="fill:none;stroke:#999;stroke-width:3" />
<path d="M1248.99,60.86c0.21,0.03,1.11,0,1.72-0.08c1.98-0.26,6.49-1.02,9.14-2.03c1.9-0.73,2.5,0.64,2,2.17c-2.72,8.36-16.45,28.81-28.59,33.12" style="fill:none;stroke:black;stroke-width:3" />
<circle cx="1248.99" cy="60.86" r="5" stroke-width="0" fill="#FF2A00" opacity="0.7" />
<path d="M1320.24,37c0.86,3.47,2.11,13.28,2.34,16.75" style="fill:none;stroke:#999;stroke-width:3" />
<path d="M1343.15,29.75c0.68,0.86,0.94,2,0.32,3.34s-6.91,10.3-10,13.41" style="fill:none;stroke:#999;stroke-width:3" />
<path d="M1331.1100000000001,14.5c0.59,0.74,1.18,1.72,1.17,2.95C1332.1599999999999,66.39 1328.42,79.18 1317.5,90" style="fill:none;stroke:#999;stroke-width:3" />
<path d="M1330.5,64.75c4.26,2.6,9.63,10.82,10.75,14.5" style="fill:none;stroke:#999;stroke-width:3" />
<path d="M1354.3400000000001,16.78c2.69,1.63,6.75,6.23,7.42,8.77" style="fill:none;stroke:#999;stroke-width:3" />
<path d="M1390.6,12.5c0.02,0.3,0.05,0.78-0.05,1.22c-0.57,2.57-3.85,8.2-8.33,11.65" style="fill:none;stroke:#999;stroke-width:3" />
<path d="M1350.75,31.83c0.51,0.2,1.88,0.52,3.25,0.6c3.76,0.2,34.05-5.16,40.04-4.76c1.37,0.09,1.71-0.2,2.57,0" style="fill:none;stroke:#999;stroke-width:3" />
<path d="M1371.65,11c0.82,0.3,1.32,1.35,1.48,1.96c0.16,0.6,0,36.28-0.17,40.04" style="fill:none;stroke:#999;stroke-width:3" />
<path d="M1371.15,30.31c-3.7,7.24-12.7,17.4-21.02,21.57" style="fill:none;stroke:#999;stroke-width:3" />
<path d="M1372.77,30.71c4.07,2.69,21.9,15.39,26.32,18.03c1.5,0.9,2.78,1.28,4.28,1.53" style="fill:none;stroke:#999;stroke-width:3" />
<path d="M1356.78,53.56c0.13,0.31,0.39,1.24,0.25,1.86c-0.83,3.67-5.91,11.59-12.43,16.51" style="fill:none;stroke:#999;stroke-width:3" />
<path d="M1357.99,60.86c0.21,0.03,1.11,0,1.72-0.08c1.98-0.26,6.49-1.02,9.14-2.03c1.9-0.73,2.5,0.64,2,2.17c-2.72,8.36-16.45,28.81-28.59,33.12" style="fill:none;stroke:#999;stroke-width:3" />
<path d="M1351.32,69.69c2.25,1.39,5.82,5.7,6.38,7.86" style="fill:none;stroke:black;stroke-width:3" />
<circle cx="1351.32" cy="69.69" r="5" stroke-width="0" fill="#FF2A00" opacity="0.7" />
<path d="M1429.24,37c0.86,3.47,2.11,13.28,2.34,16.75" style="fill:none;stroke:#999;stroke-width:3" />
<path d="M1452.15,29.75c0.68,0.86,0.94,2,0.32,3.34s-6.91,10.3-10,13.41" style="fill:none;stroke:#999;stroke-width:3" />
<path d="M1440.1100000000001,14.5c0.59,0.74,1.18,1.72,1.17,2.95C1441.1599999999999,66.39 1437.42,79.18 1426.5,90" style="fill:none;stroke:#999;stroke-width:3" />
<path d="M1439.5,64.75c4.26,2.6,9.63,10.82,10.75,14.5" style="fill:none;stroke:#999;stroke-width:3" />
<path d="M1463.3400000000001,16.78c2.69,1.63,6.75,6.23,7.42,8.77" style="fill:none;stroke:#999;stroke-width:3" />
<path d="M1499.6,12.5c0.02,0.3,0.05,0.78-0.05,1.22c-0.57,2.57-3.85,8.2-8.33,11.65" style="fill:none;stroke:#999;stroke-width:3" />
<path d="M1459.75,31.83c0.51,0.2,1.88,0.52,3.25,0.6c3.76,0.2,34.05-5.16,40.04-4.76c1.37,0.09,1.71-0.2,2.57,0" style="fill:none;stroke:#999;stroke-width:3" />
<path d="M1480.65,11c0.82,0.3,1.32,1.35,1.48,1.96c0.16,0.6,0,36.28-0.17,40.04" style="fill:none;stroke:#999;stroke-width:3" />
<path d="M1480.15,30.31c-3.7,7.24-12.7,17.4-21.02,21.57" style="fill:none;stroke:#999;stroke-width:3" />
<path d="M1481.77,30.71c4.07,2.69,21.9,15.39,26.32,18.03c1.5,0.9,2.78,1.28,4.28,1.53" style="fill:none;stroke:#999;stroke-width:3" />
<path d="M1465.78,53.56c0.13,0.31,0.39,1.24,0.25,1.86c-0.83,3.67-5.91,11.59-12.43,16.51" style="fill:none;stroke:#999;stroke-width:3" />
<path d="M1466.99,60.86c0.21,0.03,1.11,0,1.72-0.08c1.98-0.26,6.49-1.02,9.14-2.03c1.9-0.73,2.5,0.64,2,2.17c-2.72,8.36-16.45,28.81-28.59,33.12" style="fill:none;stroke:#999;stroke-width:3" />
<path d="M1460.32,69.69c2.25,1.39,5.82,5.7,6.38,7.86" style="fill:none;stroke:#999;stroke-width:3" />
<path d="M1484.67,65.77c0.72,0.2,2.04,0.26,2.75,0.2c4.58-0.35,16.6-2.38,21.54-2.3c1.2,0.02,1.92,0.1,2.51,0.2" style="fill:none;stroke:black;stroke-width:3" />
<circle cx="1484.67" cy="65.77" r="5" stroke-width="0" fill="#FF2A00" opacity="0.7" />
<path d="M1538.24,37c0.86,3.47,2.11,13.28,2.34,16.75" style="fill:none;stroke:#999;stroke-width:3" />
<path d="M1561.15,29.75c0.68,0.86,0.94,2,0.32,3.34s-6.91,10.3-10,13.41" style="fill:none;stroke:#999;stroke-width:3" />
<path d="M1549.1100000000001,14.5c0.59,0.74,1.18,1.72,1.17,2.95C1550.1599999999999,66.39 1546.42,79.18 1535.5,90" style="fill:none;stroke:#999;stroke-width:3" />
<path d="M1548.5,64.75c4.26,2.6,9.63,10.82,10.75,14.5" style="fill:none;stroke:#999;stroke-width:3" />
<path d="M1572.3400000000001,16.78c2.69,1.63,6.75,6.23,7.42,8.77" style="fill:none;stroke:#999;stroke-width:3" />
<path d="M1608.6,12.5c0.02,0.3,0.05,0.78-0.05,1.22c-0.57,2.57-3.85,8.2-8.33,11.65" style="fill:none;stroke:#999;stroke-width:3" />
<path d="M1568.75,31.83c0.51,0.2,1.88,0.52,3.25,0.6c3.76,0.2,34.05-5.16,40.04-4.76c1.37,0.09,1.71-0.2,2.57,0" style="fill:none;stroke:#999;stroke-width:3" />
<path d="M1589.65,11c0.82,0.3,1.32,1.35,1.48,1.96c0.16,0.6,0,36.28-0.17,40.04" style="fill:none;stroke:#999;stroke-width:3" />
<path d="M1589.15,30.31c-3.7,7.24-12.7,17.4-21.02,21.57" style="fill:none;stroke:#999;stroke-width:3" />
<path d="M1590.77,30.71c4.07,2.69,21.9,15.39,26.32,18.03c1.5,0.9,2.78,1.28,4.28,1.53" style="fill:none;stroke:#999;stroke-width:3" />
<path d="M1574.78,53.56c0.13,0.31,0.39,1.24,0.25,1.86c-0.83,3.67-5.91,11.59-12.43,16.51" style="fill:none;stroke:#999;stroke-width:3" />
<path d="M1575.99,60.86c0.21,0.03,1.11,0,1.72-0.08c1.98-0.26,6.49-1.02,9.14-2.03c1.9-0.73,2.5,0.64,2,2.17c-2.72,8.36-16.45,28.81-28.59,33.12" style="fill:none;stroke:#999;stroke-width:3" />
<path d="M1569.32,69.69c2.25,1.39,5.82,5.7,6.38,7.86" style="fill:none;stroke:#999;stroke-width:3" />
<path d="M1593.67,65.77c0.72,0.2,2.04,0.26,2.75,0.2c4.58-0.35,16.6-2.38,21.54-2.3c1.2,0.02,1.92,0.1,2.51,0.2" style="fill:none;stroke:#999;stroke-width:3" />
<path d="M1597.37,66.7c0.12,0.78,0.07,13-0.1,14.11" style="fill:none;stroke:black;stroke-width:3" />
<circle cx="1597.37" cy="66.7" r="5" stroke-width="0" fill="#FF2A00" opacity="0.7" />
<path d="M1647.24,37c0.86,3.47,2.11,13.28,2.34,16.75" style="fill:none;stroke:#999;stroke-width:3" />
<path d="M1670.15,29.75c0.68,0.86,0.94,2,0.32,3.34s-6.91,10.3-10,13.41" style="fill:none;stroke:#999;stroke-width:3" />
<path d="M1658.1100000000001,14.5c0.59,0.74,1.18,1.72,1.17,2.95C1659.1599999999999,66.39 1655.42,79.18 1644.5,90" style="fill:none;stroke:#999;stroke-width:3" />
<path d="M1657.5,64.75c4.26,2.6,9.63,10.82,10.75,14.5" style="fill:none;stroke:#999;stroke-width:3" />
<path d="M1681.3400000000001,16.78c2.69,1.63,6.75,6.23,7.42,8.77" style="fill:none;stroke:#999;stroke-width:3" />
<path d="M1717.6,12.5c0.02,0.3,0.05,0.78-0.05,1.22c-0.57,2.57-3.85,8.2-8.33,11.65" style="fill:none;stroke:#999;stroke-width:3" />
<path d="M1677.75,31.83c0.51,0.2,1.88,0.52,3.25,0.6c3.76,0.2,34.05-5.16,40.04-4.76c1.37,0.09,1.71-0.2,2.57,0" style="fill:none;stroke:#999;stroke-width:3" />
<path d="M1698.65,11c0.82,0.3,1.32,1.35,1.48,1.96c0.16,0.6,0,36.28-0.17,40.04" style="fill:none;stroke:#999;stroke-width:3" />
<path d="M1698.15,30.31c-3.7,7.24-12.7,17.4-21.02,21.57" style="fill:none;stroke:#999;stroke-width:3" />
<path d="M1699.77,30.71c4.07,2.69,21.9,15.39,26.32,18.03c1.5,0.9,2.78,1.28,4.28,1.53" style="fill:none;stroke:#999;stroke-width:3" />
<path d="M1683.78,53.56c0.13,0.31,0.39,1.24,0.25,1.86c-0.83,3.67-5.91,11.59-12.43,16.51" style="fill:none;stroke:#999;stroke-width:3" />
<path d="M1684.99,60.86c0.21,0.03,1.11,0,1.72-0.08c1.98-0.26,6.49-1.02,9.14-2.03c1.9-0.73,2.5,0.64,2,2.17c-2.72,8.36-16.45,28.81-28.59,33.12" style="fill:none;stroke:#999;stroke-width:3" />
<path d="M1678.32,69.69c2.25,1.39,5.82,5.7,6.38,7.86" style="fill:none;stroke:#999;stroke-width:3" />
<path d="M1702.67,65.77c0.72,0.2,2.04,0.26,2.75,0.2c4.58-0.35,16.6-2.38,21.54-2.3c1.2,0.02,1.92,0.1,2.51,0.2" style="fill:none;stroke:#999;stroke-width:3" />
<path d="M1706.37,66.7c0.12,0.78,0.07,13-0.1,14.11" style="fill:none;stroke:#999;stroke-width:3" />
<path d="M1696.02,81.64c0.89,0.11,2.09,0.24,3.48,0.11c10.5-1,28.81-3.25,30.14-3.25c1.53,0,3.63,0,5.36,0.27" style="fill:none;stroke:black;stroke-width:3" />
<circle cx="1696.02" cy="81.64" r="5" stroke-width="0" fill="#FF2A00" opacity="0.7" />
<path d="M1756.24,37c0.86,3.47,2.11,13.28,2.34,16.75" style="fill:none;stroke:#999;stroke-width:3" />
<path d="M1779.15,29.75c0.68,0.86,0.94,2,0.32,3.34s-6.91,10.3-10,13.41" style="fill:none;stroke:#999;stroke-width:3" />
<path d="M1767.1100000000001,14.5c0.59,0.74,1.18,1.72,1.17,2.95C1768.1599999999999,66.39 1764.42,79.18 1753.5,90" style="fill:none;stroke:#999;stroke-width:3" />
<path d="M1766.5,64.75c4.26,2.6,9.63,10.82,10.75,14.5" style="fill:none;stroke:#999;stroke-width:3" />
<path d="M1790.3400000000001,16.78c2.69,1.63,6.75,6.23,7.42,8.77" style="fill:none;stroke:#999;stroke-width:3" />
<path d="M1826.6,12.5c0.02,0.3,0.05,0.78-0.05,1.22c-0.57,2.57-3.85,8.2-8.33,11.65" style="fill:none;stroke:#999;stroke-width:3" />
<path d="M1786.75,31.83c0.51,0.2,1.88,0.52,3.25,0.6c3.76,0.2,34.05-5.16,40.04-4.76c1.37,0.09,1.71-0.2,2.57,0" style="fill:none;stroke:#999;stroke-width:3" />
<path d="M1807.65,11c0.82,0.3,1.32,1.35,1.48,1.96c0.16,0.6,0,36.28-0.17,40.04" style="fill:none;stroke:#999;stroke-width:3" />
<path d="M1807.15,30.31c-3.7,7.24-12.7,17.4-21.02,21.57" style="fill:none;stroke:#999;stroke-width:3" />
<path d="M1808.77,30.71c4.07,2.69,21.9,15.39,26.32,18.03c1.5,0.9,2.78,1.28,4.28,1.53" style="fill:none;stroke:#999;stroke-width:3" />
<path d="M1792.78,53.56c0.13,0.31,0.39,1.24,0.25,1.86c-0.83,3.67-5.91,11.59-12.43,16.51" style="fill:none;stroke:#999;stroke-width:3" />
<path d="M1793.99,60.86c0.21,0.03,1.11,0,1.72-0.08c1.98-0.26,6.49-1.02,9.14-2.03c1.9-0.73,2.5,0.64,2,2.17c-2.72,8.36-16.45,28.81-28.59,33.12" style="fill:none;stroke:#999;stroke-width:3" />
<path d="M1787.32,69.69c2.25,1.39,5.82,5.7,6.38,7.86" style="fill:none;stroke:#999;stroke-width:3" />
<path d="M1811.67,65.77c0.72,0.2,2.04,0.26,2.75,0.2c4.58-0.35,16.6-2.38,21.54-2.3c1.2,0.02,1.92,0.1,2.51,0.2" style="fill:none;stroke:#999;stroke-width:3" />
<path d="M1815.37,66.7c0.12,0.78,0.07,13-0.1,14.11" style="fill:none;stroke:#999;stroke-width:3" />
<path d="M1805.02,81.64c0.89,0.11,2.09,0.24,3.48,0.11c10.5-1,28.81-3.25,30.14-3.25c1.53,0,3.63,0,5.36,0.27" style="fill:none;stroke:#999;stroke-width:3" />
<path d="M1825.14,52c0.88,0.28,1.41,1.25,1.58,1.8c0.18,0.55,0,41.99-0.18,45.45" style="fill:none;stroke:black;stroke-width:3" />
<circle cx="1825.14" cy="52.0" r="5" stroke-width="0" fill="#FF2A00" opacity="0.7" />
</svg>