<!-- 071fc -->
<svg width="1962px" height="109px" viewBox="0 0 1962px 109px" xmlns="http://www.w3.org/2000/svg" xmlns:xlink="http://www.w3.org/1999/xlink" xml:space="preserve" version="1.1"  baseProfile="full">
<line x1="1" y1="1" x2="1961" y2="1" style="stroke:#ddd;stroke-width:2" />
<line x1="1" y1="1" x2="1" y2="108" style="stroke:#ddd;stroke-width:2" />
<line x1="1" y1="108" x2="1961" y2="108" style="stroke:#ddd;stroke-width:2" />
<line x1="1961" y1="1" x2="1961" y2="108" style="stroke:#ddd;stroke-width:2" />
<line x1="109" y1="1" x2="109" y2="108" style="stroke:#ddd;stroke-width:2" />
<line x1="218" y1="1" x2="218" y2="108" style="stroke:#ddd;stroke-width:2" />
<line x1="327" y1="1" x2="327" y2="108" style="stroke:#ddd;stroke-width:2" />
<line x1="436" y1="1" x2="436" y2="108" style="stroke:#ddd;stroke-width:2" />
<line x1="545" y1="1" x2="545" y2="108" style="stroke:#ddd;stroke-width:2" />
<line x1="654" y1="1" x2="654" y2="108" style="stroke:#ddd;stroke-width:2" />
<line x1="763" y1="1" x2="763" y2="108" style="stroke:#ddd;stroke-width:2" />
<line x1="872" y1="1" x2="872" y2="108" style="stroke:#ddd;stroke-width:2" />
<line x1="981" y1="1" x2="981" y2="108" style="stroke:#ddd;stroke-width:2" />
<line x1="1090" y1="1" x2="1090" y2="108" style="stroke:#ddd;stroke-width:2" />
<line x1="1199" y1="1" x2="1199" y2="108" style="stroke:#ddd;stroke-width:2" />
<line x1="1308" y1="1" x2="1308" y2="108" style="stroke:#ddd;stroke-width:2" />
<line x1="1417" y1="1" x2="1417" y2="108" style="stroke:#ddd;stroke-width:2" />
<line x1="1526" y1="1" x2="1526" y2="108" style="stroke:#ddd;stroke-width:2" />
<line x1="1635" y1="1" x2="1635" y2="108" style="stroke:#ddd;stroke-width:2" />
<line x1="1744" y1="1" x2="1744" y2="108" style="stroke:#ddd;stroke-width:2" />
<line x1="1853" y1="1" x2="1853" y2="108" style="stroke:#ddd;stroke-width:2" />
<line x1="1" y1="54" x2="1961" y2="54" style="stroke:#ddd;stroke-width:2;stroke-dasharray:3 3" />
<line x1="55" y1="1" x2="55" y2="108" style="stroke:#ddd;stroke-width:2;stroke-dasharray:3 3" />
<line x1="164" y1="1" x2="164" y2="108" style="stroke:#ddd;stroke-width:2;stroke-dasharray:3 3" />
<line x1="273" y1="1" x2="273" y2="108" style="stroke:#ddd;stroke-width:2;stroke-dasharray:3 3" />
<line x1="382" y1="1" x2="382" y2="108" style="stroke:#ddd;stroke-width:2;stroke-dasharray:3 3" />
<line x1="491" y1="1" x2="491" y2="108" style="stroke:#ddd;stroke-width:2;stroke-dasharray:3 3" />
<line x1="600" y1="1" x2="600" y2="108" style="stroke:#ddd;stroke-width:2;stroke-dasharray:3 3" />
<line x1="709" y1="1" x2="709" y2="108" style="stroke:#ddd;stroke-width:2;stroke-dasharray:3 3" />
<line x1="818" y1="1" x2="818" y2="108" style="stroke:#ddd;stroke-width:2;stroke-dasharray:3 3" />
<line x1="927" y1="1" x2="927" y2="108" style="stroke:#ddd;stroke-width:2;stroke-dasharray:3 3" />
<line x1="1036" y1="1" x2="1036" y2="108" style="stroke:#ddd;stroke-width:2;stroke-dasharray:3 3" />
<line x1="1145" y1="1" x2="1145" y2="108" style="stroke:#ddd;stroke-width:2;stroke-dasharray:3 3" />
<line x1="1254" y1="1" x2="1254" y2="108" style="stroke:#ddd;stroke-width:2;stroke-dasharray:3 3" />
<line x1="1363" y1="1" x2="1363" y2="108" style="stroke:#ddd;stroke-width:2;stroke-dasharray:3 3" />
<line x1="1472" y1="1" x2="1472" y2="108" style="stroke:#ddd;stroke-width:2;stroke-dasharray:3 3" />
<line x1="1581" y1="1" x2="1581" y2="108" style="stroke:#ddd;stroke-width:2;stroke-dasharray:3 3" />
<line x1="1690" y1="1" x2="1690" y2="108" style="stroke:#ddd;stroke-width:2;stroke-dasharray:3 3" />
<line x1="1799" y1="1" x2="1799" y2="108" style="stroke:#ddd;stroke-width:2;stroke-dasharray:3 3" />
<line x1="1908" y1="1" x2="1908" y2="108" style="stroke:#ddd;stroke-width:2;stroke-dasharray:3 3" />
<path d="M11.24,36c1.96,3.15,4.81,12.1,5.34,15.25" style="fill:none;stroke:black;stroke-width:3" />
<circle cx="11.24" cy="36.0" r="5" stroke-width="0" fill="#FF2A00" opacity="0.7" />
<path d="M120.24,36c1.96,3.15,4.81,12.1,5.34,15.25" style="fill:none;stroke:#999;stroke-width:3" />
<path d="M145.93,31.75c0.07,1.5,0.39,2.51-0.16,3.52c-0.56,1.01-5.76,7.89-8.54,10.23" style="fill:none;stroke:black;stroke-width:3" />
<circle cx="145.93" cy="31.75" r="5" stroke-width="0" fill="#FF2A00" opacity="0.7" />
<path d="M229.24,36c1.96,3.15,4.81,12.1,5.34,15.25" style="fill:none;stroke:#999;stroke-width:3" />
<path d="M254.93,31.75c0.07,1.5,0.39,2.51-0.16,3.52c-0.56,1.01-5.76,7.89-8.54,10.23" style="fill:none;stroke:#999;stroke-width:3" />
<path d="M242.75,15.75c0.76,0.75,1.02,2.25,1.03,3.5C244.0,70.75 241.0,80 229.5,93" style="fill:none;stroke:black;stroke-width:3" />
<circle cx="242.75" cy="15.75" r="5" stroke-width="0" fill="#FF2A00" opacity="0.7" />
<path d="M338.24,36c1.96,3.15,4.81,12.1,5.34,15.25" style="fill:none;stroke:#999;stroke-width:3" />
<path d="M363.93,31.75c0.07,1.5,0.39,2.51-0.16,3.52c-0.56,1.01-5.76,7.89-8.54,10.23" style="fill:none;stroke:#999;stroke-width:3" />
<path d="M351.75,15.75c0.76,0.75,1.02,2.25,1.03,3.5C353.0,70.75 350.0,80 338.5,93" style="fill:none;stroke:#999;stroke-width:3" />
<path d="M353.25,66.5c4.55,2.73,10.3,11.38,11.5,15.25" style="fill:none;stroke:black;stroke-width:3" />
<circle cx="353.25" cy="66.5" r="5" stroke-width="0" fill="#FF2A00" opacity="0.7" />
<path d="M447.24,36c1.96,3.15,4.81,12.1,5.34,15.25" style="fill:none;stroke:#999;stroke-width:3" />
<path d="M472.93,31.75c0.07,1.5,0.39,2.51-0.16,3.52c-0.56,1.01-5.76,7.89-8.54,10.23" style="fill:none;stroke:#999;stroke-width:3" />
<path d="M460.75,15.75c0.76,0.75,1.02,2.25,1.03,3.5C462.0,70.75 459.0,80 447.5,93" style="fill:none;stroke:#999;stroke-width:3" />
<path d="M462.25,66.5c4.55,2.73,10.3,11.38,11.5,15.25" style="fill:none;stroke:#999;stroke-width:3" />
<path d="M483.92,21.23c2.08,0.22,2.67,0.57,4.59,0.43c9.24-0.66,20.76-1.25,29.1-1.68c2.71-0.14,4.06,1.05,3.67,3.23c-0.62,3.45-1.62,10.41-3.08,20.11" style="fill:none;stroke:black;stroke-width:3" />
<circle cx="483.92" cy="21.23" r="5" stroke-width="0" fill="#FF2A00" opacity="0.7" />
<path d="M556.24,36c1.96,3.15,4.81,12.1,5.34,15.25" style="fill:none;stroke:#999;stroke-width:3" />
<path d="M581.9300000000001,31.75c0.07,1.5,0.39,2.51-0.16,3.52c-0.56,1.01-5.76,7.89-8.54,10.23" style="fill:none;stroke:#999;stroke-width:3" />
<path d="M569.75,15.75c0.76,0.75,1.02,2.25,1.03,3.5C571.0,70.75 568.0,80 556.5,93" style="fill:none;stroke:#999;stroke-width:3" />
<path d="M571.25,66.5c4.55,2.73,10.3,11.38,11.5,15.25" style="fill:none;stroke:#999;stroke-width:3" />
<path d="M592.9200000000001,21.23c2.08,0.22,2.67,0.57,4.59,0.43c9.24-0.66,20.76-1.25,29.1-1.68c2.71-0.14,4.06,1.05,3.67,3.23c-0.62,3.45-1.62,10.41-3.08,20.11" style="fill:none;stroke:#999;stroke-width:3" />
<path d="M587.88,32.77c1.93,0.38,3.43,0.48,5.58,0.38c10.05-0.5,28.39-1.99,43.19-2.56C639.0,30.5 640.9300000000001,30.96 642.0,31.15" style="fill:none;stroke:black;stroke-width:3" />
<circle cx="587.88" cy="32.77" r="5" stroke-width="0" fill="#FF2A00" opacity="0.7" />
<path d="M665.24,36c1.96,3.15,4.81,12.1,5.34,15.25" style="fill:none;stroke:#999;stroke-width:3" />
<path d="M690.9300000000001,31.75c0.07,1.5,0.39,2.51-0.16,3.52c-0.56,1.01-5.76,7.89-8.54,10.23" style="fill:none;stroke:#999;stroke-width:3" />
<path d="M678.75,15.75c0.76,0.75,1.02,2.25,1.03,3.5C680.0,70.75 677.0,80 665.5,93" style="fill:none;stroke:#999;stroke-width:3" />
<path d="M680.25,66.5c4.55,2.73,10.3,11.38,11.5,15.25" style="fill:none;stroke:#999;stroke-width:3" />
<path d="M701.9200000000001,21.23c2.08,0.22,2.67,0.57,4.59,0.43c9.24-0.66,20.76-1.25,29.1-1.68c2.71-0.14,4.06,1.05,3.67,3.23c-0.62,3.45-1.62,10.41-3.08,20.11" style="fill:none;stroke:#999;stroke-width:3" />
<path d="M696.88,32.77c1.93,0.38,3.43,0.48,5.58,0.38c10.05-0.5,28.39-1.99,43.19-2.56C748.0,30.5 749.9300000000001,30.96 751.0,31.15" style="fill:none;stroke:#999;stroke-width:3" />
<path d="M702.26,44.36c1.04,0.21,2.92,0.26,4.17,0.21c9.07-0.32,18.57-0.82,28.31-1.25c1.67-0.07,2.71,0,3.96,0.22" style="fill:none;stroke:black;stroke-width:3" />
<circle cx="702.26" cy="44.36" r="5" stroke-width="0" fill="#FF2A00" opacity="0.7" />
<path d="M774.24,36c1.96,3.15,4.81,12.1,5.34,15.25" style="fill:none;stroke:#999;stroke-width:3" />
<path d="M799.9300000000001,31.75c0.07,1.5,0.39,2.51-0.16,3.52c-0.56,1.01-5.76,7.89-8.54,10.23" style="fill:none;stroke:#999;stroke-width:3" />
<path d="M787.75,15.75c0.76,0.75,1.02,2.25,1.03,3.5C789.0,70.75 786.0,80 774.5,93" style="fill:none;stroke:#999;stroke-width:3" />
<path d="M789.25,66.5c4.55,2.73,10.3,11.38,11.5,15.25" style="fill:none;stroke:#999;stroke-width:3" />
<path d="M810.9200000000001,21.23c2.08,0.22,2.67,0.57,4.59,0.43c9.24-0.66,20.76-1.25,29.1-1.68c2.71-0.14,4.06,1.05,3.67,3.23c-0.62,3.45-1.62,10.41-3.08,20.11" style="fill:none;stroke:#999;stroke-width:3" />
<path d="M805.88,32.77c1.93,0.38,3.43,0.48,5.58,0.38c10.05-0.5,28.39-1.99,43.19-2.56C857.0,30.5 858.9300000000001,30.96 860.0,31.15" style="fill:none;stroke:#999;stroke-width:3" />
<path d="M811.26,44.36c1.04,0.21,2.92,0.26,4.17,0.21c9.07-0.32,18.57-0.82,28.31-1.25c1.67-0.07,2.71,0,3.96,0.22" style="fill:none;stroke:#999;stroke-width:3" />
<path d="M802.82,55.32c1.27,0.47,3.59,0.51,4.85,0.47c14.83-0.54,34.69-1.65,46.21-2.04c2.11-0.07,3.38,0.22,4.43,0.46" style="fill:none;stroke:black;stroke-width:3" />
<circle cx="802.82" cy="55.32" r="5" stroke-width="0" fill="#FF2A00" opacity="0.7" />
<path d="M883.24,36c1.96,3.15,4.81,12.1,5.34,15.25" style="fill:none;stroke:#999;stroke-width:3" />
<path d="M908.9300000000001,31.75c0.07,1.5,0.39,2.51-0.16,3.52c-0.56,1.01-5.76,7.89-8.54,10.23" style="fill:none;stroke:#999;stroke-width:3" />
<path d="M896.75,15.75c0.76,0.75,1.02,2.25,1.03,3.5C898.0,70.75 895.0,80 883.5,93" style="fill:none;stroke:#999;stroke-width:3" />
<path d="M898.25,66.5c4.55,2.73,10.3,11.38,11.5,15.25" style="fill:none;stroke:#999;stroke-width:3" />
<path d="M919.9200000000001,21.23c2.08,0.22,2.67,0.57,4.59,0.43c9.24-0.66,20.76-1.25,29.1-1.68c2.71-0.14,4.06,1.05,3.67,3.23c-0.62,3.45-1.62,10.41-3.08,20.11" style="fill:none;stroke:#999;stroke-width:3" />
<path d="M914.88,32.77c1.93,0.38,3.43,0.48,5.58,0.38c10.05-0.5,28.39-1.99,43.19-2.56C966.0,30.5 967.9300000000001,30.96 969.0,31.15" style="fill:none;stroke:#999;stroke-width:3" />
<path d="M920.26,44.36c1.04,0.21,2.92,0.26,4.17,0.21c9.07-0.32,18.57-0.82,28.31-1.25c1.67-0.07,2.71,0,3.96,0.22" style="fill:none;stroke:#999;stroke-width:3" />
<path d="M911.82,55.32c1.27,0.47,3.59,0.51,4.85,0.47c14.83-0.54,34.69-1.65,46.21-2.04c2.11-0.07,3.38,0.22,4.43,0.46" style="fill:none;stroke:#999;stroke-width:3" />
<path d="M937.83,11.75c0.91,0.43,1.63,1.91,1.63,2.8c0,4.77-0.18,32.38-0.18,38.98" style="fill:none;stroke:black;stroke-width:3" />
<circle cx="937.83" cy="11.75" r="5" stroke-width="0" fill="#FF2A00" opacity="0.7" />
<path d="M992.24,36c1.96,3.15,4.81,12.1,5.34,15.25" style="fill:none;stroke:#999;stroke-width:3" />
<path d="M1017.9300000000001,31.75c0.07,1.5,0.39,2.51-0.16,3.52c-0.56,1.01-5.76,7.89-8.54,10.23" style="fill:none;stroke:#999;stroke-width:3" />
<path d="M1005.75,15.75c0.76,0.75,1.02,2.25,1.03,3.5C1007.0,70.75 1004.0,80 992.5,93" style="fill:none;stroke:#999;stroke-width:3" />
<path d="M1007.25,66.5c4.55,2.73,10.3,11.38,11.5,15.25" style="fill:none;stroke:#999;stroke-width:3" />
<path d="M1028.92,21.23c2.08,0.22,2.67,0.57,4.59,0.43c9.24-0.66,20.76-1.25,29.1-1.68c2.71-0.14,4.06,1.05,3.67,3.23c-0.62,3.45-1.62,10.41-3.08,20.11" style="fill:none;stroke:#999;stroke-width:3" />
<path d="M1023.88,32.77c1.93,0.38,3.43,0.48,5.58,0.38c10.05-0.5,28.39-1.99,43.19-2.56C1075.0,30.5 1076.93,30.96 1078.0,31.15" style="fill:none;stroke:#999;stroke-width:3" />
<path d="M1029.26,44.36c1.04,0.21,2.92,0.26,4.17,0.21c9.07-0.32,18.57-0.82,28.31-1.25c1.67-0.07,2.71,0,3.96,0.22" style="fill:none;stroke:#999;stroke-width:3" />
<path d="M1020.82,55.32c1.27,0.47,3.59,0.51,4.85,0.47c14.83-0.54,34.69-1.65,46.21-2.04c2.11-0.07,3.38,0.22,4.43,0.46" style="fill:none;stroke:#999;stroke-width:3" />
<path d="M1046.83,11.75c0.91,0.43,1.63,1.91,1.63,2.8c0,4.77-0.18,32.38-0.18,38.98" style="fill:none;stroke:#999;stroke-width:3" />
<path d="M1027.84,62.79c0,3.24-5.22,8.02-6.59,8.94" style="fill:none;stroke:black;stroke-width:3" />
<circle cx="1027.84" cy="62.79" r="5" stroke-width="0" fill="#FF2A00" opacity="0.7" />
<path d="M1101.24,36c1.96,3.15,4.81,12.1,5.34,15.25" style="fill:none;stroke:#999;stroke-width:3" />
<path d="M1126.93,31.75c0.07,1.5,0.39,2.51-0.16,3.52c-0.56,1.01-5.76,7.89-8.54,10.23" style="fill:none;stroke:#999;stroke-width:3" />
<path d="M1114.75,15.75c0.76,0.75,1.02,2.25,1.03,3.5C1116.0,70.75 1113.0,80 1101.5,93" style="fill:none;stroke:#999;stroke-width:3" />
<path d="M1116.25,66.5c4.55,2.73,10.3,11.38,11.5,15.25" style="fill:none;stroke:#999;stroke-width:3" />
<path d="M1137.92,21.23c2.08,0.22,2.67,0.57,4.59,0.43c9.24-0.66,20.76-1.25,29.1-1.68c2.71-0.14,4.06,1.05,3.67,3.23c-0.62,3.45-1.62,10.41-3.08,20.11" style="fill:none;stroke:#999;stroke-width:3" />
<path d="M1132.88,32.77c1.93,0.38,3.43,0.48,5.58,0.38c10.05-0.5,28.39-1.99,43.19-2.56C1184.0,30.5 1185.93,30.96 1187.0,31.15" style="fill:none;stroke:#999;stroke-width:3" />
<path d="M1138.26,44.36c1.04,0.21,2.92,0.26,4.17,0.21c9.07-0.32,18.57-0.82,28.31-1.25c1.67-0.07,2.71,0,3.96,0.22" style="fill:none;stroke:#999;stroke-width:3" />
<path d="M1129.8200000000002,55.32c1.27,0.47,3.59,0.51,4.85,0.47c14.83-0.54,34.69-1.65,46.21-2.04c2.11-0.07,3.38,0.22,4.43,0.46" style="fill:none;stroke:#999;stroke-width:3" />
<path d="M1155.83,11.75c0.91,0.43,1.63,1.91,1.63,2.8c0,4.77-0.18,32.38-0.18,38.98" style="fill:none;stroke:#999;stroke-width:3" />
<path d="M1136.84,62.79c0,3.24-5.22,8.02-6.59,8.94" style="fill:none;stroke:#999;stroke-width:3" />
<path d="M1146.86,60.68c2.55,1.77,4.98,6.65,5.62,9.41" style="fill:none;stroke:black;stroke-width:3" />
<circle cx="1146.86" cy="60.68" r="5" stroke-width="0" fill="#FF2A00" opacity="0.7" />
<path d="M1210.24,36c1.96,3.15,4.81,12.1,5.34,15.25" style="fill:none;stroke:#999;stroke-width:3" />
<path d="M1235.93,31.75c0.07,1.5,0.39,2.51-0.16,3.52c-0.56,1.01-5.76,7.89-8.54,10.23" style="fill:none;stroke:#999;stroke-width:3" />
<path d="M1223.75,15.75c0.76,0.75,1.02,2.25,1.03,3.5C1225.0,70.75 1222.0,80 1210.5,93" style="fill:none;stroke:#999;stroke-width:3" />
<path d="M1225.25,66.5c4.55,2.73,10.3,11.38,11.5,15.25" style="fill:none;stroke:#999;stroke-width:3" />
<path d="M1246.92,21.23c2.08,0.22,2.67,0.57,4.59,0.43c9.24-0.66,20.76-1.25,29.1-1.68c2.71-0.14,4.06,1.05,3.67,3.23c-0.62,3.45-1.62,10.41-3.08,20.11" style="fill:none;stroke:#999;stroke-width:3" />
<path d="M1241.88,32.77c1.93,0.38,3.43,0.48,5.58,0.38c10.05-0.5,28.39-1.99,43.19-2.56C1293.0,30.5 1294.93,30.96 1296.0,31.15" style="fill:none;stroke:#999;stroke-width:3" />
<path d="M1247.26,44.36c1.04,0.21,2.92,0.26,4.17,0.21c9.07-0.32,18.57-0.82,28.31-1.25c1.67-0.07,2.71,0,3.96,0.22" style="fill:none;stroke:#999;stroke-width:3" />
<path d="M1238.8200000000002,55.32c1.27,0.47,3.59,0.51,4.85,0.47c14.83-0.54,34.69-1.65,46.21-2.04c2.11-0.07,3.38,0.22,4.43,0.46" style="fill:none;stroke:#999;stroke-width:3" />
<path d="M1264.83,11.75c0.91,0.43,1.63,1.91,1.63,2.8c0,4.77-0.18,32.38-0.18,38.98" style="fill:none;stroke:#999;stroke-width:3" />
<path d="M1245.84,62.79c0,3.24-5.22,8.02-6.59,8.94" style="fill:none;stroke:#999;stroke-width:3" />
<path d="M1255.86,60.68c2.55,1.77,4.98,6.65,5.62,9.41" style="fill:none;stroke:#999;stroke-width:3" />
<path d="M1271.75,59.72c2.07,1.53,5.35,6.27,5.87,8.65" style="fill:none;stroke:black;stroke-width:3" />
<circle cx="1271.75" cy="59.72" r="5" stroke-width="0" fill="#FF2A00" opacity="0.7" />
<path d="M1319.24,36c1.96,3.15,4.81,12.1,5.34,15.25" style="fill:none;stroke:#999;stroke-width:3" />
<path d="M1344.93,31.75c0.07,1.5,0.39,2.51-0.16,3.52c-0.56,1.01-5.76,7.89-8.54,10.23" style="fill:none;stroke:#999;stroke-width:3" />
<path d="M1332.75,15.75c0.76,0.75,1.02,2.25,1.03,3.5C1334.0,70.75 1331.0,80 1319.5,93" style="fill:none;stroke:#999;stroke-width:3" />
<path d="M1334.25,66.5c4.55,2.73,10.3,11.38,11.5,15.25" style="fill:none;stroke:#999;stroke-width:3" />
<path d="M1355.92,21.23c2.08,0.22,2.67,0.57,4.59,0.43c9.24-0.66,20.76-1.25,29.1-1.68c2.71-0.14,4.06,1.05,3.67,3.23c-0.62,3.45-1.62,10.41-3.08,20.11" style="fill:none;stroke:#999;stroke-width:3" />
<path d="M1350.88,32.77c1.93,0.38,3.43,0.48,5.58,0.38c10.05-0.5,28.39-1.99,43.19-2.56C1402.0,30.5 1403.93,30.96 1405.0,31.15" style="fill:none;stroke:#999;stroke-width:3" />
<path d="M1356.26,44.36c1.04,0.21,2.92,0.26,4.17,0.21c9.07-0.32,18.57-0.82,28.31-1.25c1.67-0.07,2.71,0,3.96,0.22" style="fill:none;stroke:#999;stroke-width:3" />
<path d="M1347.8200000000002,55.32c1.27,0.47,3.59,0.51,4.85,0.47c14.83-0.54,34.69-1.65,46.21-2.04c2.11-0.07,3.38,0.22,4.43,0.46" style="fill:none;stroke:#999;stroke-width:3" />
<path d="M1373.83,11.75c0.91,0.43,1.63,1.91,1.63,2.8c0,4.77-0.18,32.38-0.18,38.98" style="fill:none;stroke:#999;stroke-width:3" />
<path d="M1354.84,62.79c0,3.24-5.22,8.02-6.59,8.94" style="fill:none;stroke:#999;stroke-width:3" />
<path d="M1364.86,60.68c2.55,1.77,4.98,6.65,5.62,9.41" style="fill:none;stroke:#999;stroke-width:3" />
<path d="M1380.75,59.72c2.07,1.53,5.35,6.27,5.87,8.65" style="fill:none;stroke:#999;stroke-width:3" />
<path d="M1396.17,59.21c2.97,1.87,7.67,7.69,8.42,10.6" style="fill:none;stroke:black;stroke-width:3" />
<circle cx="1396.17" cy="59.21" r="5" stroke-width="0" fill="#FF2A00" opacity="0.7" />
<path d="M1428.24,36c1.96,3.15,4.81,12.1,5.34,15.25" style="fill:none;stroke:#999;stroke-width:3" />
<path d="M1453.93,31.75c0.07,1.5,0.39,2.51-0.16,3.52c-0.56,1.01-5.76,7.89-8.54,10.23" style="fill:none;stroke:#999;stroke-width:3" />
<path d="M1441.75,15.75c0.76,0.75,1.02,2.25,1.03,3.5C1443.0,70.75 1440.0,80 1428.5,93" style="fill:none;stroke:#999;stroke-width:3" />
<path d="M1443.25,66.5c4.55,2.73,10.3,11.38,11.5,15.25" style="fill:none;stroke:#999;stroke-width:3" />
<path d="M1464.92,21.23c2.08,0.22,2.67,0.57,4.59,0.43c9.24-0.66,20.76-1.25,29.1-1.68c2.71-0.14,4.06,1.05,3.67,3.23c-0.62,3.45-1.62,10.41-3.08,20.11" style="fill:none;stroke:#999;stroke-width:3" />
<path d="M1459.88,32.77c1.93,0.38,3.43,0.48,5.58,0.38c10.05-0.5,28.39-1.99,43.19-2.56C1511.0,30.5 1512.93,30.96 1514.0,31.15" style="fill:none;stroke:#999;stroke-width:3" />
<path d="M1465.26,44.36c1.04,0.21,2.92,0.26,4.17,0.21c9.07-0.32,18.57-0.82,28.31-1.25c1.67-0.07,2.71,0,3.96,0.22" style="fill:none;stroke:#999;stroke-width:3" />
<path d="M1456.8200000000002,55.32c1.27,0.47,3.59,0.51,4.85,0.47c14.83-0.54,34.69-1.65,46.21-2.04c2.11-0.07,3.38,0.22,4.43,0.46" style="fill:none;stroke:#999;stroke-width:3" />
<path d="M1482.83,11.75c0.91,0.43,1.63,1.91,1.63,2.8c0,4.77-0.18,32.38-0.18,38.98" style="fill:none;stroke:#999;stroke-width:3" />
<path d="M1463.84,62.79c0,3.24-5.22,8.02-6.59,8.94" style="fill:none;stroke:#999;stroke-width:3" />
<path d="M1473.86,60.68c2.55,1.77,4.98,6.65,5.62,9.41" style="fill:none;stroke:#999;stroke-width:3" />
<path d="M1489.75,59.72c2.07,1.53,5.35,6.27,5.87,8.65" style="fill:none;stroke:#999;stroke-width:3" />
<path d="M1505.17,59.21c2.97,1.87,7.67,7.69,8.42,10.6" style="fill:none;stroke:#999;stroke-width:3" />
<path d="M1464.0,73.42c0.46,0.53,1.06,1.11,1.15,1.57c0.78,3.61,1.41,12.58,1.94,19.06" style="fill:none;stroke:black;stroke-width:3" />
<circle cx="1464.0" cy="73.42" r="5" stroke-width="0" fill="#FF2A00" opacity="0.7" />
<path d="M1537.24,36c1.96,3.15,4.81,12.1,5.34,15.25" style="fill:none;stroke:#999;stroke-width:3" />
<path d="M1562.93,31.75c0.07,1.5,0.39,2.51-0.16,3.52c-0.56,1.01-5.76,7.89-8.54,10.23" style="fill:none;stroke:#999;stroke-width:3" />
<path d="M1550.75,15.75c0.76,0.75,1.02,2.25,1.03,3.5C1552.0,70.75 1549.0,80 1537.5,93" style="fill:none;stroke:#999;stroke-width:3" />
<path d="M1552.25,66.5c4.55,2.73,10.3,11.38,11.5,15.25" style="fill:none;stroke:#999;stroke-width:3" />
<path d="M1573.92,21.23c2.08,0.22,2.67,0.57,4.59,0.43c9.24-0.66,20.76-1.25,29.1-1.68c2.71-0.14,4.06,1.05,3.67,3.23c-0.62,3.45-1.62,10.41-3.08,20.11" style="fill:none;stroke:#999;stroke-width:3" />
<path d="M1568.88,32.77c1.93,0.38,3.43,0.48,5.58,0.38c10.05-0.5,28.39-1.99,43.19-2.56C1620.0,30.5 1621.93,30.96 1623.0,31.15" style="fill:none;stroke:#999;stroke-width:3" />
<path d="M1574.26,44.36c1.04,0.21,2.92,0.26,4.17,0.21c9.07-0.32,18.57-0.82,28.31-1.25c1.67-0.07,2.71,0,3.96,0.22" style="fill:none;stroke:#999;stroke-width:3" />
<path d="M1565.8200000000002,55.32c1.27,0.47,3.59,0.51,4.85,0.47c14.83-0.54,34.69-1.65,46.21-2.04c2.11-0.07,3.38,0.22,4.43,0.46" style="fill:none;stroke:#999;stroke-width:3" />
<path d="M1591.83,11.75c0.91,0.43,1.63,1.91,1.63,2.8c0,4.77-0.18,32.38-0.18,38.98" style="fill:none;stroke:#999;stroke-width:3" />
<path d="M1572.84,62.79c0,3.24-5.22,8.02-6.59,8.94" style="fill:none;stroke:#999;stroke-width:3" />
<path d="M1582.86,60.68c2.55,1.77,4.98,6.65,5.62,9.41" style="fill:none;stroke:#999;stroke-width:3" />
<path d="M1598.75,59.72c2.07,1.53,5.35,6.27,5.87,8.65" style="fill:none;stroke:#999;stroke-width:3" />
<path d="M1614.17,59.21c2.97,1.87,7.67,7.69,8.42,10.6" style="fill:none;stroke:#999;stroke-width:3" />
<path d="M1573.0,73.42c0.46,0.53,1.06,1.11,1.15,1.57c0.78,3.61,1.41,12.58,1.94,19.06" style="fill:none;stroke:#999;stroke-width:3" />
<path d="M1574.86,74.98c8.26-0.75,34.48-2.58,37.48-2.48c1.3,0.04,2.7,0.82,2.39,2.16c-0.48,2.09-2.98,11.24-3.49,17.9" style="fill:none;stroke:black;stroke-width:3" />
<circle cx="1574.86" cy="74.98" r="5" stroke-width="0" fill="#FF2A00" opacity="0.7" />
<path d="M1646.24,36c1.96,3.15,4.81,12.1,5.34,15.25" style="fill:none;stroke:#999;stroke-width:3" />
<path d="M1671.93,31.75c0.07,1.5,0.39,2.51-0.16,3.52c-0.56,1.01-5.76,7.89-8.54,10.23" style="fill:none;stroke:#999;stroke-width:3" />
<path d="M1659.75,15.75c0.76,0.75,1.02,2.25,1.03,3.5C1661.0,70.75 1658.0,80 1646.5,93" style="fill:none;stroke:#999;stroke-width:3" />
<path d="M1661.25,66.5c4.55,2.73,10.3,11.38,11.5,15.25" style="fill:none;stroke:#999;stroke-width:3" />
<path d="M1682.92,21.23c2.08,0.22,2.67,0.57,4.59,0.43c9.24-0.66,20.76-1.25,29.1-1.68c2.71-0.14,4.06,1.05,3.67,3.23c-0.62,3.45-1.62,10.41-3.08,20.11" style="fill:none;stroke:#999;stroke-width:3" />
<path d="M1677.88,32.77c1.93,0.38,3.43,0.48,5.58,0.38c10.05-0.5,28.39-1.99,43.19-2.56C1729.0,30.5 1730.93,30.96 1732.0,31.15" style="fill:none;stroke:#999;stroke-width:3" />
<path d="M1683.26,44.36c1.04,0.21,2.92,0.26,4.17,0.21c9.07-0.32,18.57-0.82,28.31-1.25c1.67-0.07,2.71,0,3.96,0.22" style="fill:none;stroke:#999;stroke-width:3" />
<path d="M1674.8200000000002,55.32c1.27,0.47,3.59,0.51,4.85,0.47c14.83-0.54,34.69-1.65,46.21-2.04c2.11-0.07,3.38,0.22,4.43,0.46" style="fill:none;stroke:#999;stroke-width:3" />
<path d="M1700.83,11.75c0.91,0.43,1.63,1.91,1.63,2.8c0,4.77-0.18,32.38-0.18,38.98" style="fill:none;stroke:#999;stroke-width:3" />
<path d="M1681.84,62.79c0,3.24-5.22,8.02-6.59,8.94" style="fill:none;stroke:#999;stroke-width:3" />
<path d="M1691.86,60.68c2.55,1.77,4.98,6.65,5.62,9.41" style="fill:none;stroke:#999;stroke-width:3" />
<path d="M1707.75,59.72c2.07,1.53,5.35,6.27,5.87,8.65" style="fill:none;stroke:#999;stroke-width:3" />
<path d="M1723.17,59.21c2.97,1.87,7.67,7.69,8.42,10.6" style="fill:none;stroke:#999;stroke-width:3" />
<path d="M1682.0,73.42c0.46,0.53,1.06,1.11,1.15,1.57c0.78,3.61,1.41,12.58,1.94,19.06" style="fill:none;stroke:#999;stroke-width:3" />
<path d="M1683.86,74.98c8.26-0.75,34.48-2.58,37.48-2.48c1.3,0.04,2.7,0.82,2.39,2.16c-0.48,2.09-2.98,11.24-3.49,17.9" style="fill:none;stroke:#999;stroke-width:3" />
<path d="M1695.81,75.18c0.19,0.34,0.45,1.55,0.47,2c0.22,5.82,1.03,8.7,1.08,15.63" style="fill:none;stroke:black;stroke-width:3" />
<circle cx="1695.81" cy="75.18" r="5" stroke-width="0" fill="#FF2A00" opacity="0.7" />
<path d="M1755.24,36c1.96,3.15,4.81,12.1,5.34,15.25" style="fill:none;stroke:#999;stroke-width:3" />
<path d="M1780.93,31.75c0.07,1.5,0.39,2.51-0.16,3.52c-0.56,1.01-5.76,7.89-8.54,10.23" style="fill:none;stroke:#999;stroke-width:3" />
<path d="M1768.75,15.75c0.76,0.75,1.02,2.25,1.03,3.5C1770.0,70.75 1767.0,80 1755.5,93" style="fill:none;stroke:#999;stroke-width:3" />
<path d="M1770.25,66.5c4.55,2.73,10.3,11.38,11.5,15.25" style="fill:none;stroke:#999;stroke-width:3" />
<path d="M1791.92,21.23c2.08,0.22,2.67,0.57,4.59,0.43c9.24-0.66,20.76-1.25,29.1-1.68c2.71-0.14,4.06,1.05,3.67,3.23c-0.62,3.45-1.62,10.41-3.08,20.11" style="fill:none;stroke:#999;stroke-width:3" />
<path d="M1786.88,32.77c1.93,0.38,3.43,0.48,5.58,0.38c10.05-0.5,28.39-1.99,43.19-2.56C1838.0,30.5 1839.93,30.96 1841.0,31.15" style="fill:none;stroke:#999;stroke-width:3" />
<path d="M1792.26,44.36c1.04,0.21,2.92,0.26,4.17,0.21c9.07-0.32,18.57-0.82,28.31-1.25c1.67-0.07,2.71,0,3.96,0.22" style="fill:none;stroke:#999;stroke-width:3" />
<path d="M1783.8200000000002,55.32c1.27,0.47,3.59,0.51,4.85,0.47c14.83-0.54,34.69-1.65,46.21-2.04c2.11-0.07,3.38,0.22,4.43,0.46" style="fill:none;stroke:#999;stroke-width:3" />
<path d="M1809.83,11.75c0.91,0.43,1.63,1.91,1.63,2.8c0,4.77-0.18,32.38-0.18,38.98" style="fill:none;stroke:#999;stroke-width:3" />
<path d="M1790.84,62.79c0,3.24-5.22,8.02-6.59,8.94" style="fill:none;stroke:#999;stroke-width:3" />
<path d="M1800.86,60.68c2.55,1.77,4.98,6.65,5.62,9.41" style="fill:none;stroke:#999;stroke-width:3" />
<path d="M1816.75,59.72c2.07,1.53,5.35,6.27,5.87,8.65" style="fill:none;stroke:#999;stroke-width:3" />
<path d="M1832.17,59.21c2.97,1.87,7.67,7.69,8.42,10.6" style="fill:none;stroke:#999;stroke-width:3" />
<path d="M1791.0,73.42c0.46,0.53,1.06,1.11,1.15,1.57c0.78,3.61,1.41,12.58,1.94,19.06" style="fill:none;stroke:#999;stroke-width:3" />
<path d="M1792.86,74.98c8.26-0.75,34.48-2.58,37.48-2.48c1.3,0.04,2.7,0.82,2.39,2.16c-0.48,2.09-2.98,11.24-3.49,17.9" style="fill:none;stroke:#999;stroke-width:3" />
<path d="M1804.81,75.18c0.19,0.34,0.45,1.55,0.47,2c0.22,5.82,1.03,8.7,1.08,15.63" style="fill:none;stroke:#999;stroke-width:3" />
<path d="M1817.43,73.6c0.35,0.41,0.63,1.11,0.63,1.64c0,5.63-0.68,10.17-0.68,17.63" style="fill:none;stroke:black;stroke-width:3" />
<circle cx="1817.43" cy="73.6" r="5" stroke-width="0" fill="#FF2A00" opacity="0.7" />
<path d="M1864.24,36c1.96,3.15,4.81,12.1,5.34,15.25" style="fill:none;stroke:#999;stroke-width:3" />
<path d="M1889.93,31.75c0.07,1.5,0.39,2.51-0.16,3.52c-0.56,1.01-5.76,7.89-8.54,10.23" style="fill:none;stroke:#999;stroke-width:3" />
<path d="M1877.75,15.75c0.76,0.75,1.02,2.25,1.03,3.5C1879.0,70.75 1876.0,80 1864.5,93" style="fill:none;stroke:#999;stroke-width:3" />
<path d="M1879.25,66.5c4.55,2.73,10.3,11.38,11.5,15.25" style="fill:none;stroke:#999;stroke-width:3" />
<path d="M1900.92,21.23c2.08,0.22,2.67,0.57,4.59,0.43c9.24-0.66,20.76-1.25,29.1-1.68c2.71-0.14,4.06,1.05,3.67,3.23c-0.62,3.45-1.62,10.41-3.08,20.11" style="fill:none;stroke:#999;stroke-width:3" />
<path d="M1895.88,32.77c1.93,0.38,3.43,0.48,5.58,0.38c10.05-0.5,28.39-1.99,43.19-2.56C1947.0,30.5 1948.93,30.96 1950.0,31.15" style="fill:none;stroke:#999;stroke-width:3" />
<path d="M1901.26,44.36c1.04,0.21,2.92,0.26,4.17,0.21c9.07-0.32,18.57-0.82,28.31-1.25c1.67-0.07,2.71,0,3.96,0.22" style="fill:none;stroke:#999;stroke-width:3" />
<path d="M1892.8200000000002,55.32c1.27,0.47,3.59,0.51,4.85,0.47c14.83-0.54,34.69-1.65,46.21-2.04c2.11-0.07,3.38,0.22,4.43,0.46" style="fill:none;stroke:#999;stroke-width:3" />
<path d="M1918.83,11.75c0.91,0.43,1.63,1.91,1.63,2.8c0,4.77-0.18,32.38-0.18,38.98" style="fill:none;stroke:#999;stroke-width:3" />
<path d="M1899.84,62.79c0,3.24-5.22,8.02-6.59,8.94" style="fill:none;stroke:#999;stroke-width:3" />
<path d="M1909.86,60.68c2.55,1.77,4.98,6.65,5.62,9.41" style="fill:none;stroke:#999;stroke-width:3" />
<path d="M1925.75,59.72c2.07,1.53,5.35,6.27,5.87,8.65" style="fill:none;stroke:#999;stroke-width:3" />
<path d="M1941.17,59.21c2.97,1.87,7.67,7.69,8.42,10.6" style="fill:none;stroke:#999;stroke-width:3" />
<path d="M1900.0,73.42c0.46,0.53,1.06,1.11,1.15,1.57c0.78,3.61,1.41,12.58,1.94,19.06" style="fill:none;stroke:#999;stroke-width:3" />
<path d="M1901.86,74.98c8.26-0.75,34.48-2.58,37.48-2.48c1.3,0.04,2.7,0.82,2.39,2.16c-0.48,2.09-2.98,11.24-3.49,17.9" style="fill:none;stroke:#999;stroke-width:3" />
<path d="M1913.81,75.18c0.19,0.34,0.45,1.55,0.47,2c0.22,5.82,1.03,8.7,1.08,15.63" style="fill:none;stroke:#999;stroke-width:3" />
<path d="M1926.43,73.6c0.35,0.41,0.63,1.11,0.63,1.64c0,5.63-0.68,10.17-0.68,17.63" style="fill:none;stroke:#999;stroke-width:3" />
<path d="M1888.07,93.93c1.54,0.75,4.36,0.87,5.9,0.75c16.02-1.25,22.57-1.65,52.07-1.85c2.57-0.02,4.11,0.36,5.39,0.73" style="fill:none;stroke:black;stroke-width:3" />
<circle cx="1888.07" cy="93.93" r="5" stroke-width="0" fill="#FF2A00" opacity="0.7" />
</svg>