<!-- 07235 -->
<svg width="1853px" height="109px" viewBox="0 0 1853px 109px" xmlns="http://www.w3.org/2000/svg" xmlns:xlink="http://www.w3.org/1999/xlink" xml:space="preserve" version="1.1"  baseProfile="full">
<line x1="1" y1="1" x2="1852" y2="1" style="stroke:#ddd;stroke-width:2" />
<line x1="1" y1="1" x2="1" y2="108" style="stroke:#ddd;stroke-width:2" />
<line x1="1" y1="108" x2="1852" y2="108" style="stroke:#ddd;stroke-width:2" />
<line x1="1852" y1="1" x2="1852" y2="108" style="stroke:#ddd;stroke-width:2" />
<line x1="109" y1="1" x2="109" y2="108" style="stroke:#ddd;stroke-width:2" />
<line x1="218" y1="1" x2="218" y2="108" style="stroke:#ddd;stroke-width:2" />
<line x1="327" y1="1" x2="327" y2="108" style="stroke:#ddd;stroke-width:2" />
<line x1="436" y1="1" x2="436" y2="108" style="stroke:#ddd;stroke-width:2" />
<line x1="545" y1="1" x2="545" y2="108" style="stroke:#ddd;stroke-width:2" />
<line x1="654" y1="1" x2="654" y2="108" style="stroke:#ddd;stroke-width:2" />
<line x1="763" y1="1" x2="763" y2="108" style="stroke:#ddd;stroke-width:2" />
<line x1="872" y1="1" x2="872" y2="108" style="stroke:#ddd;stroke-width:2" />
<line x1="981" y1="1" x2="981" y2="108" style="stroke:#ddd;stroke-width:2" />
<line x1="1090" y1="1" x2="1090" y2="108" style="stroke:#ddd;stroke-width:2" />
<line x1="1199" y1="1" x2="1199" y2="108" style="stroke:#ddd;stroke-width:2" />
<line x1="1308" y1="1" x2="1308" y2="108" style="stroke:#ddd;stroke-width:2" />
<line x1="1417" y1="1" x2="1417" y2="108" style="stroke:#ddd;stroke-width:2" />
<line x1="1526" y1="1" x2="1526" y2="108" style="stroke:#ddd;stroke-width:2" />
<line x1="1635" y1="1" x2="1635" y2="108" style="stroke:#ddd;stroke-width:2" />
<line x1="1744" y1="1" x2="1744" y2="108" style="stroke:#ddd;stroke-width:2" />
<line x1="1" y1="54" x2="1852" y2="54" style="stroke:#ddd;stroke-width:2;stroke-dasharray:3 3" />
<line x1="55" y1="1" x2="55" y2="108" style="stroke:#ddd;stroke-width:2;stroke-dasharray:3 3" />
<line x1="164" y1="1" x2="164" y2="108" style="stroke:#ddd;stroke-width:2;stroke-dasharray:3 3" />
<line x1="273" y1="1" x2="273" y2="108" style="stroke:#ddd;stroke-width:2;stroke-dasharray:3 3" />
<line x1="382" y1="1" x2="382" y2="108" style="stroke:#ddd;stroke-width:2;stroke-dasharray:3 3" />
<line x1="491" y1="1" x2="491" y2="108" style="stroke:#ddd;stroke-width:2;stroke-dasharray:3 3" />
<line x1="600" y1="1" x2="600" y2="108" style="stroke:#ddd;stroke-width:2;stroke-dasharray:3 3" />
<line x1="709" y1="1" x2="709" y2="108" style="stroke:#ddd;stroke-width:2;stroke-dasharray:3 3" />
<line x1="818" y1="1" x2="818" y2="108" style="stroke:#ddd;stroke-width:2;stroke-dasharray:3 3" />
<line x1="927" y1="1" x2="927" y2="108" style="stroke:#ddd;stroke-width:2;stroke-dasharray:3 3" />
<line x1="1036" y1="1" x2="1036" y2="108" style="stroke:#ddd;stroke-width:2;stroke-dasharray:3 3" />
<line x1="1145" y1="1" x2="1145" y2="108" style="stroke:#ddd;stroke-width:2;stroke-dasharray:3 3" />
<line x1="1254" y1="1" x2="1254" y2="108" style="stroke:#ddd;stroke-width:2;stroke-dasharray:3 3" />
<line x1="1363" y1="1" x2="1363" y2="108" style="stroke:#ddd;stroke-width:2;stroke-dasharray:3 3" />
<line x1="1472" y1="1" x2="1472" y2="108" style="stroke:#ddd;stroke-width:2;stroke-dasharray:3 3" />
<line x1="1581" y1="1" x2="1581" y2="108" style="stroke:#ddd;stroke-width:2;stroke-dasharray:3 3" />
<line x1="1690" y1="1" x2="1690" y2="108" style="stroke:#ddd;stroke-width:2;stroke-dasharray:3 3" />
<line x1="1799" y1="1" x2="1799" y2="108" style="stroke:#ddd;stroke-width:2;stroke-dasharray:3 3" />
<path d="M67.46,9.39c0,0.86-0.78,1.78-1.39,2.2c-3.76,2.6-17.04,6.87-34.51,9.87" style="fill:none;stroke:black;stroke-width:3" />
<circle cx="67.46" cy="9.39" r="5" stroke-width="0" fill="#FF2A00" opacity="0.7" />
<path d="M176.45999999999998,9.39c0,0.86-0.78,1.78-1.39,2.2c-3.76,2.6-17.04,6.87-34.51,9.87" style="fill:none;stroke:#999;stroke-width:3" />
<path d="M138.14,26.21c2.09,1.28,5.4,5.27,5.92,7.26" style="fill:none;stroke:black;stroke-width:3" />
<circle cx="138.14" cy="26.21" r="5" stroke-width="0" fill="#FF2A00" opacity="0.7" />
<path d="M285.46,9.39c0,0.86-0.78,1.78-1.39,2.2c-3.76,2.6-17.04,6.87-34.51,9.87" style="fill:none;stroke:#999;stroke-width:3" />
<path d="M247.14,26.21c2.09,1.28,5.4,5.27,5.92,7.26" style="fill:none;stroke:#999;stroke-width:3" />
<path d="M266.89,22.71c1.91,1.41,4.94,5.81,5.42,8.01" style="fill:none;stroke:black;stroke-width:3" />
<circle cx="266.89" cy="22.71" r="5" stroke-width="0" fill="#FF2A00" opacity="0.7" />
<path d="M394.46,9.39c0,0.86-0.78,1.78-1.39,2.2c-3.76,2.6-17.04,6.87-34.51,9.87" style="fill:none;stroke:#999;stroke-width:3" />
<path d="M356.14,26.21c2.09,1.28,5.4,5.27,5.92,7.26" style="fill:none;stroke:#999;stroke-width:3" />
<path d="M375.89,22.71c1.91,1.41,4.94,5.81,5.42,8.01" style="fill:none;stroke:#999;stroke-width:3" />
<path d="M403.27,17.39c0.08,0.84-0.04,1.65-0.37,2.42c-1.78,3.44-3.6,6.84-9.34,12.16" style="fill:none;stroke:black;stroke-width:3" />
<circle cx="403.27" cy="17.39" r="5" stroke-width="0" fill="#FF2A00" opacity="0.7" />
<path d="M503.46,9.39c0,0.86-0.78,1.78-1.39,2.2c-3.76,2.6-17.04,6.87-34.51,9.87" style="fill:none;stroke:#999;stroke-width:3" />
<path d="M465.14,26.21c2.09,1.28,5.4,5.27,5.92,7.26" style="fill:none;stroke:#999;stroke-width:3" />
<path d="M484.89,22.71c1.91,1.41,4.94,5.81,5.42,8.01" style="fill:none;stroke:#999;stroke-width:3" />
<path d="M512.27,17.39c0.08,0.84-0.04,1.65-0.37,2.42c-1.78,3.44-3.6,6.84-9.34,12.16" style="fill:none;stroke:#999;stroke-width:3" />
<path d="M458.53,37.47c0.81,0.81,1.46,1.79,1.63,2.77c0.72,4.01,1.16,5.67,1.83,9.47c0.25,1.39,0.47,2.69,0.67,3.78" style="fill:none;stroke:black;stroke-width:3" />
<circle cx="458.53" cy="37.47" r="5" stroke-width="0" fill="#FF2A00" opacity="0.7" />
<path d="M612.46,9.39c0,0.86-0.78,1.78-1.39,2.2c-3.76,2.6-17.04,6.87-34.51,9.87" style="fill:none;stroke:#999;stroke-width:3" />
<path d="M574.14,26.21c2.09,1.28,5.4,5.27,5.92,7.26" style="fill:none;stroke:#999;stroke-width:3" />
<path d="M593.89,22.71c1.91,1.41,4.94,5.81,5.42,8.01" style="fill:none;stroke:#999;stroke-width:3" />
<path d="M621.27,17.39c0.08,0.84-0.04,1.65-0.37,2.42c-1.78,3.44-3.6,6.84-9.34,12.16" style="fill:none;stroke:#999;stroke-width:3" />
<path d="M567.53,37.47c0.81,0.81,1.46,1.79,1.63,2.77c0.72,4.01,1.16,5.67,1.83,9.47c0.25,1.39,0.47,2.69,0.67,3.78" style="fill:none;stroke:#999;stroke-width:3" />
<path d="M569.45,38.24c15.82-1.77,43.97-4.14,59.3-4.9c3.24-0.16,5.91,0.9,4.44,5.02c-0.63,1.76-1.28,3.02-2.3,5.45c-0.61,1.44-1.26,2.88-1.93,4.25" style="fill:none;stroke:black;stroke-width:3" />
<circle cx="569.45" cy="38.24" r="5" stroke-width="0" fill="#FF2A00" opacity="0.7" />
<path d="M721.46,9.39c0,0.86-0.78,1.78-1.39,2.2c-3.76,2.6-17.04,6.87-34.51,9.87" style="fill:none;stroke:#999;stroke-width:3" />
<path d="M683.14,26.21c2.09,1.28,5.4,5.27,5.92,7.26" style="fill:none;stroke:#999;stroke-width:3" />
<path d="M702.89,22.71c1.91,1.41,4.94,5.81,5.42,8.01" style="fill:none;stroke:#999;stroke-width:3" />
<path d="M730.27,17.39c0.08,0.84-0.04,1.65-0.37,2.42c-1.78,3.44-3.6,6.84-9.34,12.16" style="fill:none;stroke:#999;stroke-width:3" />
<path d="M676.53,37.47c0.81,0.81,1.46,1.79,1.63,2.77c0.72,4.01,1.16,5.67,1.83,9.47c0.25,1.39,0.47,2.69,0.67,3.78" style="fill:none;stroke:#999;stroke-width:3" />
<path d="M678.45,38.24c15.82-1.77,43.97-4.14,59.3-4.9c3.24-0.16,5.91,0.9,4.44,5.02c-0.63,1.76-1.28,3.02-2.3,5.45c-0.61,1.44-1.26,2.88-1.93,4.25" style="fill:none;stroke:#999;stroke-width:3" />
<path d="M697.25,38c0.6,0.67,0.85,1.11,1.04,2.31c0.41,2.53,1.02,6.19,1.14,7.28" style="fill:none;stroke:black;stroke-width:3" />
<circle cx="697.25" cy="38.0" r="5" stroke-width="0" fill="#FF2A00" opacity="0.7" />
<path d="M830.46,9.39c0,0.86-0.78,1.78-1.39,2.2c-3.76,2.6-17.04,6.87-34.51,9.87" style="fill:none;stroke:#999;stroke-width:3" />
<path d="M792.14,26.21c2.09,1.28,5.4,5.27,5.92,7.26" style="fill:none;stroke:#999;stroke-width:3" />
<path d="M811.89,22.71c1.91,1.41,4.94,5.81,5.42,8.01" style="fill:none;stroke:#999;stroke-width:3" />
<path d="M839.27,17.39c0.08,0.84-0.04,1.65-0.37,2.42c-1.78,3.44-3.6,6.84-9.34,12.16" style="fill:none;stroke:#999;stroke-width:3" />
<path d="M785.53,37.47c0.81,0.81,1.46,1.79,1.63,2.77c0.72,4.01,1.16,5.67,1.83,9.47c0.25,1.39,0.47,2.69,0.67,3.78" style="fill:none;stroke:#999;stroke-width:3" />
<path d="M787.45,38.24c15.82-1.77,43.97-4.14,59.3-4.9c3.24-0.16,5.91,0.9,4.44,5.02c-0.63,1.76-1.28,3.02-2.3,5.45c-0.61,1.44-1.26,2.88-1.93,4.25" style="fill:none;stroke:#999;stroke-width:3" />
<path d="M806.25,38c0.6,0.67,0.85,1.11,1.04,2.31c0.41,2.53,1.02,6.19,1.14,7.28" style="fill:none;stroke:#999;stroke-width:3" />
<path d="M826.79,36.12c0.79,0.79,0.88,1.62,0.74,2.69c-0.37,2.8-0.94,6.37-1.22,7.44" style="fill:none;stroke:black;stroke-width:3" />
<circle cx="826.79" cy="36.12" r="5" stroke-width="0" fill="#FF2A00" opacity="0.7" />
<path d="M939.46,9.39c0,0.86-0.78,1.78-1.39,2.2c-3.76,2.6-17.04,6.87-34.51,9.87" style="fill:none;stroke:#999;stroke-width:3" />
<path d="M901.14,26.21c2.09,1.28,5.4,5.27,5.92,7.26" style="fill:none;stroke:#999;stroke-width:3" />
<path d="M920.89,22.71c1.91,1.41,4.94,5.81,5.42,8.01" style="fill:none;stroke:#999;stroke-width:3" />
<path d="M948.27,17.39c0.08,0.84-0.04,1.65-0.37,2.42c-1.78,3.44-3.6,6.84-9.34,12.16" style="fill:none;stroke:#999;stroke-width:3" />
<path d="M894.53,37.47c0.81,0.81,1.46,1.79,1.63,2.77c0.72,4.01,1.16,5.67,1.83,9.47c0.25,1.39,0.47,2.69,0.67,3.78" style="fill:none;stroke:#999;stroke-width:3" />
<path d="M896.45,38.24c15.82-1.77,43.97-4.14,59.3-4.9c3.24-0.16,5.91,0.9,4.44,5.02c-0.63,1.76-1.28,3.02-2.3,5.45c-0.61,1.44-1.26,2.88-1.93,4.25" style="fill:none;stroke:#999;stroke-width:3" />
<path d="M915.25,38c0.6,0.67,0.85,1.11,1.04,2.31c0.41,2.53,1.02,6.19,1.14,7.28" style="fill:none;stroke:#999;stroke-width:3" />
<path d="M935.79,36.12c0.79,0.79,0.88,1.62,0.74,2.69c-0.37,2.8-0.94,6.37-1.22,7.44" style="fill:none;stroke:#999;stroke-width:3" />
<path d="M899.75,50.77c19.62-2.02,43.75-3.9,56.25-4.25" style="fill:none;stroke:black;stroke-width:3" />
<circle cx="899.75" cy="50.77" r="5" stroke-width="0" fill="#FF2A00" opacity="0.7" />
<path d="M1048.46,9.39c0,0.86-0.78,1.78-1.39,2.2c-3.76,2.6-17.04,6.87-34.51,9.87" style="fill:none;stroke:#999;stroke-width:3" />
<path d="M1010.14,26.21c2.09,1.28,5.4,5.27,5.92,7.26" style="fill:none;stroke:#999;stroke-width:3" />
<path d="M1029.8899999999999,22.71c1.91,1.41,4.94,5.81,5.42,8.01" style="fill:none;stroke:#999;stroke-width:3" />
<path d="M1057.27,17.39c0.08,0.84-0.04,1.65-0.37,2.42c-1.78,3.44-3.6,6.84-9.34,12.16" style="fill:none;stroke:#999;stroke-width:3" />
<path d="M1003.53,37.47c0.81,0.81,1.46,1.79,1.63,2.77c0.72,4.01,1.16,5.67,1.83,9.47c0.25,1.39,0.47,2.69,0.67,3.78" style="fill:none;stroke:#999;stroke-width:3" />
<path d="M1005.45,38.24c15.82-1.77,43.97-4.14,59.3-4.9c3.24-0.16,5.91,0.9,4.44,5.02c-0.63,1.76-1.28,3.02-2.3,5.45c-0.61,1.44-1.26,2.88-1.93,4.25" style="fill:none;stroke:#999;stroke-width:3" />
<path d="M1024.25,38c0.6,0.67,0.85,1.11,1.04,2.31c0.41,2.53,1.02,6.19,1.14,7.28" style="fill:none;stroke:#999;stroke-width:3" />
<path d="M1044.79,36.12c0.79,0.79,0.88,1.62,0.74,2.69c-0.37,2.8-0.94,6.37-1.22,7.44" style="fill:none;stroke:#999;stroke-width:3" />
<path d="M1008.75,50.77c19.62-2.02,43.75-3.9,56.25-4.25" style="fill:none;stroke:#999;stroke-width:3" />
<path d="M1006.12,59.03c1.38,1.22,3.35,1.13,4.88,0.94c4.38-0.53,11.91-1.39,15.14-1.75c3.17-0.36,4.36,0.77,4.13,3.43c-0.32,3.66-1.06,8.64-1.7,12.36c-0.44,2.57-0.75,4.44-0.75,4.63" style="fill:none;stroke:black;stroke-width:3" />
<circle cx="1006.12" cy="59.03" r="5" stroke-width="0" fill="#FF2A00" opacity="0.7" />
<path d="M1157.46,9.39c0,0.86-0.78,1.78-1.39,2.2c-3.76,2.6-17.04,6.87-34.51,9.87" style="fill:none;stroke:#999;stroke-width:3" />
<path d="M1119.1399999999999,26.21c2.09,1.28,5.4,5.27,5.92,7.26" style="fill:none;stroke:#999;stroke-width:3" />
<path d="M1138.8899999999999,22.71c1.91,1.41,4.94,5.81,5.42,8.01" style="fill:none;stroke:#999;stroke-width:3" />
<path d="M1166.27,17.39c0.08,0.84-0.04,1.65-0.37,2.42c-1.78,3.44-3.6,6.84-9.34,12.16" style="fill:none;stroke:#999;stroke-width:3" />
<path d="M1112.53,37.47c0.81,0.81,1.46,1.79,1.63,2.77c0.72,4.01,1.16,5.67,1.83,9.47c0.25,1.39,0.47,2.69,0.67,3.78" style="fill:none;stroke:#999;stroke-width:3" />
<path d="M1114.45,38.24c15.82-1.77,43.97-4.14,59.3-4.9c3.24-0.16,5.91,0.9,4.44,5.02c-0.63,1.76-1.28,3.02-2.3,5.45c-0.61,1.44-1.26,2.88-1.93,4.25" style="fill:none;stroke:#999;stroke-width:3" />
<path d="M1133.25,38c0.6,0.67,0.85,1.11,1.04,2.31c0.41,2.53,1.02,6.19,1.14,7.28" style="fill:none;stroke:#999;stroke-width:3" />
<path d="M1153.79,36.12c0.79,0.79,0.88,1.62,0.74,2.69c-0.37,2.8-0.94,6.37-1.22,7.44" style="fill:none;stroke:#999;stroke-width:3" />
<path d="M1117.75,50.77c19.62-2.02,43.75-3.9,56.25-4.25" style="fill:none;stroke:#999;stroke-width:3" />
<path d="M1115.12,59.03c1.38,1.22,3.35,1.13,4.88,0.94c4.38-0.53,11.91-1.39,15.14-1.75c3.17-0.36,4.36,0.77,4.13,3.43c-0.32,3.66-1.06,8.64-1.7,12.36c-0.44,2.57-0.75,4.44-0.75,4.63" style="fill:none;stroke:#999;stroke-width:3" />
<path d="M1117.8,69.16c4.95-0.53,13.08-1.78,19.34-2.24" style="fill:none;stroke:black;stroke-width:3" />
<circle cx="1117.8" cy="69.16" r="5" stroke-width="0" fill="#FF2A00" opacity="0.7" />
<path d="M1266.46,9.39c0,0.86-0.78,1.78-1.39,2.2c-3.76,2.6-17.04,6.87-34.51,9.87" style="fill:none;stroke:#999;stroke-width:3" />
<path d="M1228.1399999999999,26.21c2.09,1.28,5.4,5.27,5.92,7.26" style="fill:none;stroke:#999;stroke-width:3" />
<path d="M1247.8899999999999,22.71c1.91,1.41,4.94,5.81,5.42,8.01" style="fill:none;stroke:#999;stroke-width:3" />
<path d="M1275.27,17.39c0.08,0.84-0.04,1.65-0.37,2.42c-1.78,3.44-3.6,6.84-9.34,12.16" style="fill:none;stroke:#999;stroke-width:3" />
<path d="M1221.53,37.47c0.81,0.81,1.46,1.79,1.63,2.77c0.72,4.01,1.16,5.67,1.83,9.47c0.25,1.39,0.47,2.69,0.67,3.78" style="fill:none;stroke:#999;stroke-width:3" />
<path d="M1223.45,38.24c15.82-1.77,43.97-4.14,59.3-4.9c3.24-0.16,5.91,0.9,4.44,5.02c-0.63,1.76-1.28,3.02-2.3,5.45c-0.61,1.44-1.26,2.88-1.93,4.25" style="fill:none;stroke:#999;stroke-width:3" />
<path d="M1242.25,38c0.6,0.67,0.85,1.11,1.04,2.31c0.41,2.53,1.02,6.19,1.14,7.28" style="fill:none;stroke:#999;stroke-width:3" />
<path d="M1262.79,36.12c0.79,0.79,0.88,1.62,0.74,2.69c-0.37,2.8-0.94,6.37-1.22,7.44" style="fill:none;stroke:#999;stroke-width:3" />
<path d="M1226.75,50.77c19.62-2.02,43.75-3.9,56.25-4.25" style="fill:none;stroke:#999;stroke-width:3" />
<path d="M1224.12,59.03c1.38,1.22,3.35,1.13,4.88,0.94c4.38-0.53,11.91-1.39,15.14-1.75c3.17-0.36,4.36,0.77,4.13,3.43c-0.32,3.66-1.06,8.64-1.7,12.36c-0.44,2.57-0.75,4.44-0.75,4.63" style="fill:none;stroke:#999;stroke-width:3" />
<path d="M1226.8,69.16c4.95-0.53,13.08-1.78,19.34-2.24" style="fill:none;stroke:#999;stroke-width:3" />
<path d="M1227.25,78.5c4.75-0.62,11.5-1.62,17.42-2.12" style="fill:none;stroke:black;stroke-width:3" />
<circle cx="1227.25" cy="78.5" r="5" stroke-width="0" fill="#FF2A00" opacity="0.7" />
<path d="M1375.46,9.39c0,0.86-0.78,1.78-1.39,2.2c-3.76,2.6-17.04,6.87-34.51,9.87" style="fill:none;stroke:#999;stroke-width:3" />
<path d="M1337.1399999999999,26.21c2.09,1.28,5.4,5.27,5.92,7.26" style="fill:none;stroke:#999;stroke-width:3" />
<path d="M1356.8899999999999,22.71c1.91,1.41,4.94,5.81,5.42,8.01" style="fill:none;stroke:#999;stroke-width:3" />
<path d="M1384.27,17.39c0.08,0.84-0.04,1.65-0.37,2.42c-1.78,3.44-3.6,6.84-9.34,12.16" style="fill:none;stroke:#999;stroke-width:3" />
<path d="M1330.53,37.47c0.81,0.81,1.46,1.79,1.63,2.77c0.72,4.01,1.16,5.67,1.83,9.47c0.25,1.39,0.47,2.69,0.67,3.78" style="fill:none;stroke:#999;stroke-width:3" />
<path d="M1332.45,38.24c15.82-1.77,43.97-4.14,59.3-4.9c3.24-0.16,5.91,0.9,4.44,5.02c-0.63,1.76-1.28,3.02-2.3,5.45c-0.61,1.44-1.26,2.88-1.93,4.25" style="fill:none;stroke:#999;stroke-width:3" />
<path d="M1351.25,38c0.6,0.67,0.85,1.11,1.04,2.31c0.41,2.53,1.02,6.19,1.14,7.28" style="fill:none;stroke:#999;stroke-width:3" />
<path d="M1371.79,36.12c0.79,0.79,0.88,1.62,0.74,2.69c-0.37,2.8-0.94,6.37-1.22,7.44" style="fill:none;stroke:#999;stroke-width:3" />
<path d="M1335.75,50.77c19.62-2.02,43.75-3.9,56.25-4.25" style="fill:none;stroke:#999;stroke-width:3" />
<path d="M1333.12,59.03c1.38,1.22,3.35,1.13,4.88,0.94c4.38-0.53,11.91-1.39,15.14-1.75c3.17-0.36,4.36,0.77,4.13,3.43c-0.32,3.66-1.06,8.64-1.7,12.36c-0.44,2.57-0.75,4.44-0.75,4.63" style="fill:none;stroke:#999;stroke-width:3" />
<path d="M1335.8,69.16c4.95-0.53,13.08-1.78,19.34-2.24" style="fill:none;stroke:#999;stroke-width:3" />
<path d="M1336.25,78.5c4.75-0.62,11.5-1.62,17.42-2.12" style="fill:none;stroke:#999;stroke-width:3" />
<path d="M1333.62,59.78c0.74,0.74,1.09,1.59,1.09,2.84c0,4-0.07,30.12-0.07,34.17c0,1.8,0.65,2.94,2.78,1.55c2.12-1.4,12-6.85,16.43-9.02" style="fill:none;stroke:black;stroke-width:3" />
<circle cx="1333.62" cy="59.78" r="5" stroke-width="0" fill="#FF2A00" opacity="0.7" />
<path d="M1484.46,9.39c0,0.86-0.78,1.78-1.39,2.2c-3.76,2.6-17.04,6.87-34.51,9.87" style="fill:none;stroke:#999;stroke-width:3" />
<path d="M1446.1399999999999,26.21c2.09,1.28,5.4,5.27,5.92,7.26" style="fill:none;stroke:#999;stroke-width:3" />
<path d="M1465.8899999999999,22.71c1.91,1.41,4.94,5.81,5.42,8.01" style="fill:none;stroke:#999;stroke-width:3" />
<path d="M1493.27,17.39c0.08,0.84-0.04,1.65-0.37,2.42c-1.78,3.44-3.6,6.84-9.34,12.16" style="fill:none;stroke:#999;stroke-width:3" />
<path d="M1439.53,37.47c0.81,0.81,1.46,1.79,1.63,2.77c0.72,4.01,1.16,5.67,1.83,9.47c0.25,1.39,0.47,2.69,0.67,3.78" style="fill:none;stroke:#999;stroke-width:3" />
<path d="M1441.45,38.24c15.82-1.77,43.97-4.14,59.3-4.9c3.24-0.16,5.91,0.9,4.44,5.02c-0.63,1.76-1.28,3.02-2.3,5.45c-0.61,1.44-1.26,2.88-1.93,4.25" style="fill:none;stroke:#999;stroke-width:3" />
<path d="M1460.25,38c0.6,0.67,0.85,1.11,1.04,2.31c0.41,2.53,1.02,6.19,1.14,7.28" style="fill:none;stroke:#999;stroke-width:3" />
<path d="M1480.79,36.12c0.79,0.79,0.88,1.62,0.74,2.69c-0.37,2.8-0.94,6.37-1.22,7.44" style="fill:none;stroke:#999;stroke-width:3" />
<path d="M1444.75,50.77c19.62-2.02,43.75-3.9,56.25-4.25" style="fill:none;stroke:#999;stroke-width:3" />
<path d="M1442.12,59.03c1.38,1.22,3.35,1.13,4.88,0.94c4.38-0.53,11.91-1.39,15.14-1.75c3.17-0.36,4.36,0.77,4.13,3.43c-0.32,3.66-1.06,8.64-1.7,12.36c-0.44,2.57-0.75,4.44-0.75,4.63" style="fill:none;stroke:#999;stroke-width:3" />
<path d="M1444.8,69.16c4.95-0.53,13.08-1.78,19.34-2.24" style="fill:none;stroke:#999;stroke-width:3" />
<path d="M1445.25,78.5c4.75-0.62,11.5-1.62,17.42-2.12" style="fill:none;stroke:#999;stroke-width:3" />
<path d="M1442.62,59.78c0.74,0.74,1.09,1.59,1.09,2.84c0,4-0.07,30.12-0.07,34.17c0,1.8,0.65,2.94,2.78,1.55c2.12-1.4,12-6.85,16.43-9.02" style="fill:none;stroke:#999;stroke-width:3" />
<path d="M1459.75,84.08c2.61,2.05,6.71,7.51,8.2,11.84" style="fill:none;stroke:black;stroke-width:3" />
<circle cx="1459.75" cy="84.08" r="5" stroke-width="0" fill="#FF2A00" opacity="0.7" />
<path d="M1593.46,9.39c0,0.86-0.78,1.78-1.39,2.2c-3.76,2.6-17.04,6.87-34.51,9.87" style="fill:none;stroke:#999;stroke-width:3" />
<path d="M1555.1399999999999,26.21c2.09,1.28,5.4,5.27,5.92,7.26" style="fill:none;stroke:#999;stroke-width:3" />
<path d="M1574.8899999999999,22.71c1.91,1.41,4.94,5.81,5.42,8.01" style="fill:none;stroke:#999;stroke-width:3" />
<path d="M1602.27,17.39c0.08,0.84-0.04,1.65-0.37,2.42c-1.78,3.44-3.6,6.84-9.34,12.16" style="fill:none;stroke:#999;stroke-width:3" />
<path d="M1548.53,37.47c0.81,0.81,1.46,1.79,1.63,2.77c0.72,4.01,1.16,5.67,1.83,9.47c0.25,1.39,0.47,2.69,0.67,3.78" style="fill:none;stroke:#999;stroke-width:3" />
<path d="M1550.45,38.24c15.82-1.77,43.97-4.14,59.3-4.9c3.24-0.16,5.91,0.9,4.44,5.02c-0.63,1.76-1.28,3.02-2.3,5.45c-0.61,1.44-1.26,2.88-1.93,4.25" style="fill:none;stroke:#999;stroke-width:3" />
<path d="M1569.25,38c0.6,0.67,0.85,1.11,1.04,2.31c0.41,2.53,1.02,6.19,1.14,7.28" style="fill:none;stroke:#999;stroke-width:3" />
<path d="M1589.79,36.12c0.79,0.79,0.88,1.62,0.74,2.69c-0.37,2.8-0.94,6.37-1.22,7.44" style="fill:none;stroke:#999;stroke-width:3" />
<path d="M1553.75,50.77c19.62-2.02,43.75-3.9,56.25-4.25" style="fill:none;stroke:#999;stroke-width:3" />
<path d="M1551.12,59.03c1.38,1.22,3.35,1.13,4.88,0.94c4.38-0.53,11.91-1.39,15.14-1.75c3.17-0.36,4.36,0.77,4.13,3.43c-0.32,3.66-1.06,8.64-1.7,12.36c-0.44,2.57-0.75,4.44-0.75,4.63" style="fill:none;stroke:#999;stroke-width:3" />
<path d="M1553.8,69.16c4.95-0.53,13.08-1.78,19.34-2.24" style="fill:none;stroke:#999;stroke-width:3" />
<path d="M1554.25,78.5c4.75-0.62,11.5-1.62,17.42-2.12" style="fill:none;stroke:#999;stroke-width:3" />
<path d="M1551.62,59.78c0.74,0.74,1.09,1.59,1.09,2.84c0,4-0.07,30.12-0.07,34.17c0,1.8,0.65,2.94,2.78,1.55c2.12-1.4,12-6.85,16.43-9.02" style="fill:none;stroke:#999;stroke-width:3" />
<path d="M1568.75,84.08c2.61,2.05,6.71,7.51,8.2,11.84" style="fill:none;stroke:#999;stroke-width:3" />
<path d="M1581.62,65.27c2.62,0.61,4.75,0.43,6.89,0.19c8.03-0.88,19.86-2.62,27.11-3.33c2-0.2,3.88-0.38,5.76,0.04" style="fill:none;stroke:black;stroke-width:3" />
<circle cx="1581.62" cy="65.27" r="5" stroke-width="0" fill="#FF2A00" opacity="0.7" />
<path d="M1702.46,9.39c0,0.86-0.78,1.78-1.39,2.2c-3.76,2.6-17.04,6.87-34.51,9.87" style="fill:none;stroke:#999;stroke-width:3" />
<path d="M1664.1399999999999,26.21c2.09,1.28,5.4,5.27,5.92,7.26" style="fill:none;stroke:#999;stroke-width:3" />
<path d="M1683.8899999999999,22.71c1.91,1.41,4.94,5.81,5.42,8.01" style="fill:none;stroke:#999;stroke-width:3" />
<path d="M1711.27,17.39c0.08,0.84-0.04,1.65-0.37,2.42c-1.78,3.44-3.6,6.84-9.34,12.16" style="fill:none;stroke:#999;stroke-width:3" />
<path d="M1657.53,37.47c0.81,0.81,1.46,1.79,1.63,2.77c0.72,4.01,1.16,5.67,1.83,9.47c0.25,1.39,0.47,2.69,0.67,3.78" style="fill:none;stroke:#999;stroke-width:3" />
<path d="M1659.45,38.24c15.82-1.77,43.97-4.14,59.3-4.9c3.24-0.16,5.91,0.9,4.44,5.02c-0.63,1.76-1.28,3.02-2.3,5.45c-0.61,1.44-1.26,2.88-1.93,4.25" style="fill:none;stroke:#999;stroke-width:3" />
<path d="M1678.25,38c0.6,0.67,0.85,1.11,1.04,2.31c0.41,2.53,1.02,6.19,1.14,7.28" style="fill:none;stroke:#999;stroke-width:3" />
<path d="M1698.79,36.12c0.79,0.79,0.88,1.62,0.74,2.69c-0.37,2.8-0.94,6.37-1.22,7.44" style="fill:none;stroke:#999;stroke-width:3" />
<path d="M1662.75,50.77c19.62-2.02,43.75-3.9,56.25-4.25" style="fill:none;stroke:#999;stroke-width:3" />
<path d="M1660.12,59.03c1.38,1.22,3.35,1.13,4.88,0.94c4.38-0.53,11.91-1.39,15.14-1.75c3.17-0.36,4.36,0.77,4.13,3.43c-0.32,3.66-1.06,8.64-1.7,12.36c-0.44,2.57-0.75,4.44-0.75,4.63" style="fill:none;stroke:#999;stroke-width:3" />
<path d="M1662.8,69.16c4.95-0.53,13.08-1.78,19.34-2.24" style="fill:none;stroke:#999;stroke-width:3" />
<path d="M1663.25,78.5c4.75-0.62,11.5-1.62,17.42-2.12" style="fill:none;stroke:#999;stroke-width:3" />
<path d="M1660.62,59.78c0.74,0.74,1.09,1.59,1.09,2.84c0,4-0.07,30.12-0.07,34.17c0,1.8,0.65,2.94,2.78,1.55c2.12-1.4,12-6.85,16.43-9.02" style="fill:none;stroke:#999;stroke-width:3" />
<path d="M1677.75,84.08c2.61,2.05,6.71,7.51,8.2,11.84" style="fill:none;stroke:#999;stroke-width:3" />
<path d="M1690.62,65.27c2.62,0.61,4.75,0.43,6.89,0.19c8.03-0.88,19.86-2.62,27.11-3.33c2-0.2,3.88-0.38,5.76,0.04" style="fill:none;stroke:#999;stroke-width:3" />
<path d="M1714.5,52.08c1.21,1.21,1.63,2.92,1.63,4.38c0,14.32,0.07,36.75,0.07,40.23c0,8.45-5.28,1.25-6.82,0.18" style="fill:none;stroke:black;stroke-width:3" />
<circle cx="1714.5" cy="52.08" r="5" stroke-width="0" fill="#FF2A00" opacity="0.7" />
<path d="M1811.46,9.39c0,0.86-0.78,1.78-1.39,2.2c-3.76,2.6-17.04,6.87-34.51,9.87" style="fill:none;stroke:#999;stroke-width:3" />
<path d="M1773.1399999999999,26.21c2.09,1.28,5.4,5.27,5.92,7.26" style="fill:none;stroke:#999;stroke-width:3" />
<path d="M1792.8899999999999,22.71c1.91,1.41,4.94,5.81,5.42,8.01" style="fill:none;stroke:#999;stroke-width:3" />
<path d="M1820.27,17.39c0.08,0.84-0.04,1.65-0.37,2.42c-1.78,3.44-3.6,6.84-9.34,12.16" style="fill:none;stroke:#999;stroke-width:3" />
<path d="M1766.53,37.47c0.81,0.81,1.46,1.79,1.63,2.77c0.72,4.01,1.16,5.67,1.83,9.47c0.25,1.39,0.47,2.69,0.67,3.78" style="fill:none;stroke:#999;stroke-width:3" />
<path d="M1768.45,38.24c15.82-1.77,43.97-4.14,59.3-4.9c3.24-0.16,5.91,0.9,4.44,5.02c-0.63,1.76-1.28,3.02-2.3,5.45c-0.61,1.44-1.26,2.88-1.93,4.25" style="fill:none;stroke:#999;stroke-width:3" />
<path d="M1787.25,38c0.6,0.67,0.85,1.11,1.04,2.31c0.41,2.53,1.02,6.19,1.14,7.28" style="fill:none;stroke:#999;stroke-width:3" />
<path d="M1807.79,36.12c0.79,0.79,0.88,1.62,0.74,2.69c-0.37,2.8-0.94,6.37-1.22,7.44" style="fill:none;stroke:#999;stroke-width:3" />
<path d="M1771.75,50.77c19.62-2.02,43.75-3.9,56.25-4.25" style="fill:none;stroke:#999;stroke-width:3" />
<path d="M1769.12,59.03c1.38,1.22,3.35,1.13,4.88,0.94c4.38-0.53,11.91-1.39,15.14-1.75c3.17-0.36,4.36,0.77,4.13,3.43c-0.32,3.66-1.06,8.64-1.7,12.36c-0.44,2.57-0.75,4.44-0.75,4.63" style="fill:none;stroke:#999;stroke-width:3" />
<path d="M1771.8,69.16c4.95-0.53,13.08-1.78,19.34-2.24" style="fill:none;stroke:#999;stroke-width:3" />
<path d="M1772.25,78.5c4.75-0.62,11.5-1.62,17.42-2.12" style="fill:none;stroke:#999;stroke-width:3" />
<path d="M1769.62,59.78c0.74,0.74,1.09,1.59,1.09,2.84c0,4-0.07,30.12-0.07,34.17c0,1.8,0.65,2.94,2.78,1.55c2.12-1.4,12-6.85,16.43-9.02" style="fill:none;stroke:#999;stroke-width:3" />
<path d="M1786.75,84.08c2.61,2.05,6.71,7.51,8.2,11.84" style="fill:none;stroke:#999;stroke-width:3" />
<path d="M1799.62,65.27c2.62,0.61,4.75,0.43,6.89,0.19c8.03-0.88,19.86-2.62,27.11-3.33c2-0.2,3.88-0.38,5.76,0.04" style="fill:none;stroke:#999;stroke-width:3" />
<path d="M1823.5,52.08c1.21,1.21,1.63,2.92,1.63,4.38c0,14.32,0.07,36.75,0.07,40.23c0,8.45-5.28,1.25-6.82,0.18" style="fill:none;stroke:#999;stroke-width:3" />
<path d="M1805.5,74.12c2.64,2.02,6.82,8.3,7.48,11.44" style="fill:none;stroke:black;stroke-width:3" />
<circle cx="1805.5" cy="74.12" r="5" stroke-width="0" fill="#FF2A00" opacity="0.7" />
</svg>