<!-- 072a7 -->
<svg width="2180px" height="109px" viewBox="0 0 2180px 109px" xmlns="http://www.w3.org/2000/svg" xmlns:xlink="http://www.w3.org/1999/xlink" xml:space="preserve" version="1.1"  baseProfile="full">
<line x1="1" y1="1" x2="2179" y2="1" style="stroke:#ddd;stroke-width:2" />
<line x1="1" y1="1" x2="1" y2="108" style="stroke:#ddd;stroke-width:2" />
<line x1="1" y1="108" x2="2179" y2="108" style="stroke:#ddd;stroke-width:2" />
<line x1="2179" y1="1" x2="2179" y2="108" style="stroke:#ddd;stroke-width:2" />
<line x1="109" y1="1" x2="109" y2="108" style="stroke:#ddd;stroke-width:2" />
<line x1="218" y1="1" x2="218" y2="108" style="stroke:#ddd;stroke-width:2" />
<line x1="327" y1="1" x2="327" y2="108" style="stroke:#ddd;stroke-width:2" />
<line x1="436" y1="1" x2="436" y2="108" style="stroke:#ddd;stroke-width:2" />
<line x1="545" y1="1" x2="545" y2="108" style="stroke:#ddd;stroke-width:2" />
<line x1="654" y1="1" x2="654" y2="108" style="stroke:#ddd;stroke-width:2" />
<line x1="763" y1="1" x2="763" y2="108" style="stroke:#ddd;stroke-width:2" />
<line x1="872" y1="1" x2="872" y2="108" style="stroke:#ddd;stroke-width:2" />
<line x1="981" y1="1" x2="981" y2="108" style="stroke:#ddd;stroke-width:2" />
<line x1="1090" y1="1" x2="1090" y2="108" style="stroke:#ddd;stroke-width:2" />
<line x1="1199" y1="1" x2="1199" y2="108" style="stroke:#ddd;stroke-width:2" />
<line x1="1308" y1="1" x2="1308" y2="108" style="stroke:#ddd;stroke-width:2" />
<line x1="1417" y1="1" x2="1417" y2="108" style="stroke:#ddd;stroke-width:2" />
<line x1="1526" y1="1" x2="1526" y2="108" style="stroke:#ddd;stroke-width:2" />
<line x1="1635" y1="1" x2="1635" y2="108" style="stroke:#ddd;stroke-width:2" />
<line x1="1744" y1="1" x2="1744" y2="108" style="stroke:#ddd;stroke-width:2" />
<line x1="1853" y1="1" x2="1853" y2="108" style="stroke:#ddd;stroke-width:2" />
<line x1="1962" y1="1" x2="1962" y2="108" style="stroke:#ddd;stroke-width:2" />
<line x1="2071" y1="1" x2="2071" y2="108" style="stroke:#ddd;stroke-width:2" />
<line x1="1" y1="54" x2="2179" y2="54" style="stroke:#ddd;stroke-width:2;stroke-dasharray:3 3" />
<line x1="55" y1="1" x2="55" y2="108" style="stroke:#ddd;stroke-width:2;stroke-dasharray:3 3" />
<line x1="164" y1="1" x2="164" y2="108" style="stroke:#ddd;stroke-width:2;stroke-dasharray:3 3" />
<line x1="273" y1="1" x2="273" y2="108" style="stroke:#ddd;stroke-width:2;stroke-dasharray:3 3" />
<line x1="382" y1="1" x2="382" y2="108" style="stroke:#ddd;stroke-width:2;stroke-dasharray:3 3" />
<line x1="491" y1="1" x2="491" y2="108" style="stroke:#ddd;stroke-width:2;stroke-dasharray:3 3" />
<line x1="600" y1="1" x2="600" y2="108" style="stroke:#ddd;stroke-width:2;stroke-dasharray:3 3" />
<line x1="709" y1="1" x2="709" y2="108" style="stroke:#ddd;stroke-width:2;stroke-dasharray:3 3" />
<line x1="818" y1="1" x2="818" y2="108" style="stroke:#ddd;stroke-width:2;stroke-dasharray:3 3" />
<line x1="927" y1="1" x2="927" y2="108" style="stroke:#ddd;stroke-width:2;stroke-dasharray:3 3" />
<line x1="1036" y1="1" x2="1036" y2="108" style="stroke:#ddd;stroke-width:2;stroke-dasharray:3 3" />
<line x1="1145" y1="1" x2="1145" y2="108" style="stroke:#ddd;stroke-width:2;stroke-dasharray:3 3" />
<line x1="1254" y1="1" x2="1254" y2="108" style="stroke:#ddd;stroke-width:2;stroke-dasharray:3 3" />
<line x1="1363" y1="1" x2="1363" y2="108" style="stroke:#ddd;stroke-width:2;stroke-dasharray:3 3" />
<line x1="1472" y1="1" x2="1472" y2="108" style="stroke:#ddd;stroke-width:2;stroke-dasharray:3 3" />
<line x1="1581" y1="1" x2="1581" y2="108" style="stroke:#ddd;stroke-width:2;stroke-dasharray:3 3" />
<line x1="1690" y1="1" x2="1690" y2="108" style="stroke:#ddd;stroke-width:2;stroke-dasharray:3 3" />
<line x1="1799" y1="1" x2="1799" y2="108" style="stroke:#ddd;stroke-width:2;stroke-dasharray:3 3" />
<line x1="1908" y1="1" x2="1908" y2="108" style="stroke:#ddd;stroke-width:2;stroke-dasharray:3 3" />
<line x1="2017" y1="1" x2="2017" y2="108" style="stroke:#ddd;stroke-width:2;stroke-dasharray:3 3" />
<line x1="2126" y1="1" x2="2126" y2="108" style="stroke:#ddd;stroke-width:2;stroke-dasharray:3 3" />
<path d="M20.28,23.14c0.03,0.61,0.06,1.57-0.05,2.44c-0.65,5.15-3.72,17.16-8.42,25.38" style="fill:none;stroke:black;stroke-width:3" />
<circle cx="20.28" cy="23.14" r="5" stroke-width="0" fill="#FF2A00" opacity="0.7" />
<path d="M129.28,23.14c0.03,0.61,0.06,1.57-0.05,2.44c-0.65,5.15-3.72,17.16-8.42,25.38" style="fill:none;stroke:#999;stroke-width:3" />
<path d="M128.25,38.75c0.82-0.09,1.76,0.28,2.77,0.12c7.27-1.12,15.38-3.12,16.48-3.12c1.25,0,1.5,0,2.75,0.25" style="fill:none;stroke:black;stroke-width:3" />
<circle cx="128.25" cy="38.75" r="5" stroke-width="0" fill="#FF2A00" opacity="0.7" />
<path d="M238.28,23.14c0.03,0.61,0.06,1.57-0.05,2.44c-0.65,5.15-3.72,17.16-8.42,25.38" style="fill:none;stroke:#999;stroke-width:3" />
<path d="M237.25,38.75c0.82-0.09,1.76,0.28,2.77,0.12c7.27-1.12,15.38-3.12,16.48-3.12c1.25,0,1.5,0,2.75,0.25" style="fill:none;stroke:#999;stroke-width:3" />
<path d="M246.37,11.75c1.09,0.5,1.74,2.25,1.96,3.25c0.22,1,0,78.25-0.22,84.5" style="fill:none;stroke:black;stroke-width:3" />
<circle cx="246.37" cy="11.75" r="5" stroke-width="0" fill="#FF2A00" opacity="0.7" />
<path d="M347.28,23.14c0.03,0.61,0.06,1.57-0.05,2.44c-0.65,5.15-3.72,17.16-8.42,25.38" style="fill:none;stroke:#999;stroke-width:3" />
<path d="M346.25,38.75c0.82-0.09,1.76,0.28,2.77,0.12c7.27-1.12,15.38-3.12,16.48-3.12c1.25,0,1.5,0,2.75,0.25" style="fill:none;stroke:#999;stroke-width:3" />
<path d="M355.37,11.75c1.09,0.5,1.74,2.25,1.96,3.25c0.22,1,0,78.25-0.22,84.5" style="fill:none;stroke:#999;stroke-width:3" />
<path d="M338.5,66.83c1.5,0.67,3.35,0.55,5.18-0.68c1.08-0.72,18.25-12.17,22.82-15.65" style="fill:none;stroke:black;stroke-width:3" />
<circle cx="338.5" cy="66.83" r="5" stroke-width="0" fill="#FF2A00" opacity="0.7" />
<path d="M456.28,23.14c0.03,0.61,0.06,1.57-0.05,2.44c-0.65,5.15-3.72,17.16-8.42,25.38" style="fill:none;stroke:#999;stroke-width:3" />
<path d="M455.25,38.75c0.82-0.09,1.76,0.28,2.77,0.12c7.27-1.12,15.38-3.12,16.48-3.12c1.25,0,1.5,0,2.75,0.25" style="fill:none;stroke:#999;stroke-width:3" />
<path d="M464.37,11.75c1.09,0.5,1.74,2.25,1.96,3.25c0.22,1,0,78.25-0.22,84.5" style="fill:none;stroke:#999;stroke-width:3" />
<path d="M447.5,66.83c1.5,0.67,3.35,0.55,5.18-0.68c1.08-0.72,18.25-12.17,22.82-15.65" style="fill:none;stroke:#999;stroke-width:3" />
<path d="M487.26,12.62c2.64,1.44,7.27,5.94,7.93,8.18" style="fill:none;stroke:black;stroke-width:3" />
<circle cx="487.26" cy="12.62" r="5" stroke-width="0" fill="#FF2A00" opacity="0.7" />
<path d="M565.28,23.14c0.03,0.61,0.06,1.57-0.05,2.44c-0.65,5.15-3.72,17.16-8.42,25.38" style="fill:none;stroke:#999;stroke-width:3" />
<path d="M564.25,38.75c0.82-0.09,1.76,0.28,2.77,0.12c7.27-1.12,15.38-3.12,16.48-3.12c1.25,0,1.5,0,2.75,0.25" style="fill:none;stroke:#999;stroke-width:3" />
<path d="M573.37,11.75c1.09,0.5,1.74,2.25,1.96,3.25c0.22,1,0,78.25-0.22,84.5" style="fill:none;stroke:#999;stroke-width:3" />
<path d="M556.5,66.83c1.5,0.67,3.35,0.55,5.18-0.68c1.08-0.72,18.25-12.17,22.82-15.65" style="fill:none;stroke:#999;stroke-width:3" />
<path d="M596.26,12.62c2.64,1.44,7.27,5.94,7.93,8.18" style="fill:none;stroke:#999;stroke-width:3" />
<path d="M620.87,9.75c0.02,0.23,0.04,0.6-0.03,0.93c-0.39,1.97-2.43,6.57-5.57,10.19" style="fill:none;stroke:black;stroke-width:3" />
<circle cx="620.87" cy="9.75" r="5" stroke-width="0" fill="#FF2A00" opacity="0.7" />
<path d="M674.28,23.14c0.03,0.61,0.06,1.57-0.05,2.44c-0.65,5.15-3.72,17.16-8.42,25.38" style="fill:none;stroke:#999;stroke-width:3" />
<path d="M673.25,38.75c0.82-0.09,1.76,0.28,2.77,0.12c7.27-1.12,15.38-3.12,16.48-3.12c1.25,0,1.5,0,2.75,0.25" style="fill:none;stroke:#999;stroke-width:3" />
<path d="M682.37,11.75c1.09,0.5,1.74,2.25,1.96,3.25c0.22,1,0,78.25-0.22,84.5" style="fill:none;stroke:#999;stroke-width:3" />
<path d="M665.5,66.83c1.5,0.67,3.35,0.55,5.18-0.68c1.08-0.72,18.25-12.17,22.82-15.65" style="fill:none;stroke:#999;stroke-width:3" />
<path d="M705.26,12.62c2.64,1.44,7.27,5.94,7.93,8.18" style="fill:none;stroke:#999;stroke-width:3" />
<path d="M729.87,9.75c0.02,0.23,0.04,0.6-0.03,0.93c-0.39,1.97-2.43,6.57-5.57,10.19" style="fill:none;stroke:#999;stroke-width:3" />
<path d="M698.67,24.76c1.05,0.34,2.98,0.36,4.03,0.34c6.35-0.1,26.62-3.83,36.1-3.71c1.75,0.02,2.8,0.16,3.68,0.33" style="fill:none;stroke:black;stroke-width:3" />
<circle cx="698.67" cy="24.76" r="5" stroke-width="0" fill="#FF2A00" opacity="0.7" />
<path d="M783.28,23.14c0.03,0.61,0.06,1.57-0.05,2.44c-0.65,5.15-3.72,17.16-8.42,25.38" style="fill:none;stroke:#999;stroke-width:3" />
<path d="M782.25,38.75c0.82-0.09,1.76,0.28,2.77,0.12c7.27-1.12,15.38-3.12,16.48-3.12c1.25,0,1.5,0,2.75,0.25" style="fill:none;stroke:#999;stroke-width:3" />
<path d="M791.37,11.75c1.09,0.5,1.74,2.25,1.96,3.25c0.22,1,0,78.25-0.22,84.5" style="fill:none;stroke:#999;stroke-width:3" />
<path d="M774.5,66.83c1.5,0.67,3.35,0.55,5.18-0.68c1.08-0.72,18.25-12.17,22.82-15.65" style="fill:none;stroke:#999;stroke-width:3" />
<path d="M814.26,12.62c2.64,1.44,7.27,5.94,7.93,8.18" style="fill:none;stroke:#999;stroke-width:3" />
<path d="M838.87,9.75c0.02,0.23,0.04,0.6-0.03,0.93c-0.39,1.97-2.43,6.57-5.57,10.19" style="fill:none;stroke:#999;stroke-width:3" />
<path d="M807.67,24.76c1.05,0.34,2.98,0.36,4.03,0.34c6.35-0.1,26.62-3.83,36.1-3.71c1.75,0.02,2.8,0.16,3.68,0.33" style="fill:none;stroke:#999;stroke-width:3" />
<path d="M827.46,23.32c0.75,0.3,1.35,1.32,1.35,1.94c0,5.08,0,10.87,0,16.19" style="fill:none;stroke:black;stroke-width:3" />
<circle cx="827.46" cy="23.32" r="5" stroke-width="0" fill="#FF2A00" opacity="0.7" />
<path d="M892.28,23.14c0.03,0.61,0.06,1.57-0.05,2.44c-0.65,5.15-3.72,17.16-8.42,25.38" style="fill:none;stroke:#999;stroke-width:3" />
<path d="M891.25,38.75c0.82-0.09,1.76,0.28,2.77,0.12c7.27-1.12,15.38-3.12,16.48-3.12c1.25,0,1.5,0,2.75,0.25" style="fill:none;stroke:#999;stroke-width:3" />
<path d="M900.37,11.75c1.09,0.5,1.74,2.25,1.96,3.25c0.22,1,0,78.25-0.22,84.5" style="fill:none;stroke:#999;stroke-width:3" />
<path d="M883.5,66.83c1.5,0.67,3.35,0.55,5.18-0.68c1.08-0.72,18.25-12.17,22.82-15.65" style="fill:none;stroke:#999;stroke-width:3" />
<path d="M923.26,12.62c2.64,1.44,7.27,5.94,7.93,8.18" style="fill:none;stroke:#999;stroke-width:3" />
<path d="M947.87,9.75c0.02,0.23,0.04,0.6-0.03,0.93c-0.39,1.97-2.43,6.57-5.57,10.19" style="fill:none;stroke:#999;stroke-width:3" />
<path d="M916.67,24.76c1.05,0.34,2.98,0.36,4.03,0.34c6.35-0.1,26.62-3.83,36.1-3.71c1.75,0.02,2.8,0.16,3.68,0.33" style="fill:none;stroke:#999;stroke-width:3" />
<path d="M936.46,23.32c0.75,0.3,1.35,1.32,1.35,1.94c0,5.08,0,10.87,0,16.19" style="fill:none;stroke:#999;stroke-width:3" />
<path d="M920.38,33.77c0.83,0.23,2.36,0.29,3.19,0.23c6.92-0.5,21.37-3.14,29.57-3.39c1.38-0.04,2.22,0.11,2.91,0.22" style="fill:none;stroke:black;stroke-width:3" />
<circle cx="920.38" cy="33.77" r="5" stroke-width="0" fill="#FF2A00" opacity="0.7" />
<path d="M1001.28,23.14c0.03,0.61,0.06,1.57-0.05,2.44c-0.65,5.15-3.72,17.16-8.42,25.38" style="fill:none;stroke:#999;stroke-width:3" />
<path d="M1000.25,38.75c0.82-0.09,1.76,0.28,2.77,0.12c7.27-1.12,15.38-3.12,16.48-3.12c1.25,0,1.5,0,2.75,0.25" style="fill:none;stroke:#999;stroke-width:3" />
<path d="M1009.37,11.75c1.09,0.5,1.74,2.25,1.96,3.25c0.22,1,0,78.25-0.22,84.5" style="fill:none;stroke:#999;stroke-width:3" />
<path d="M992.5,66.83c1.5,0.67,3.35,0.55,5.18-0.68c1.08-0.72,18.25-12.17,22.82-15.65" style="fill:none;stroke:#999;stroke-width:3" />
<path d="M1032.26,12.62c2.64,1.44,7.27,5.94,7.93,8.18" style="fill:none;stroke:#999;stroke-width:3" />
<path d="M1056.87,9.75c0.02,0.23,0.04,0.6-0.03,0.93c-0.39,1.97-2.43,6.57-5.57,10.19" style="fill:none;stroke:#999;stroke-width:3" />
<path d="M1025.67,24.76c1.05,0.34,2.98,0.36,4.03,0.34c6.35-0.1,26.62-3.83,36.1-3.71c1.75,0.02,2.8,0.16,3.68,0.33" style="fill:none;stroke:#999;stroke-width:3" />
<path d="M1045.46,23.32c0.75,0.3,1.35,1.32,1.35,1.94c0,5.08,0,10.87,0,16.19" style="fill:none;stroke:#999;stroke-width:3" />
<path d="M1029.38,33.77c0.83,0.23,2.36,0.29,3.19,0.23c6.92-0.5,21.37-3.14,29.57-3.39c1.38-0.04,2.22,0.11,2.91,0.22" style="fill:none;stroke:#999;stroke-width:3" />
<path d="M1023.38,42.98c1.33,0.47,3.8,0.7,5.12,0.47c5.41-0.92,27.06-3.15,41.7-4.12c2.22-0.15,3.56,0.23,4.68,0.46" style="fill:none;stroke:black;stroke-width:3" />
<circle cx="1023.38" cy="42.98" r="5" stroke-width="0" fill="#FF2A00" opacity="0.7" />
<path d="M1110.28,23.14c0.03,0.61,0.06,1.57-0.05,2.44c-0.65,5.15-3.72,17.16-8.42,25.38" style="fill:none;stroke:#999;stroke-width:3" />
<path d="M1109.25,38.75c0.82-0.09,1.76,0.28,2.77,0.12c7.27-1.12,15.38-3.12,16.48-3.12c1.25,0,1.5,0,2.75,0.25" style="fill:none;stroke:#999;stroke-width:3" />
<path d="M1118.37,11.75c1.09,0.5,1.74,2.25,1.96,3.25c0.22,1,0,78.25-0.22,84.5" style="fill:none;stroke:#999;stroke-width:3" />
<path d="M1101.5,66.83c1.5,0.67,3.35,0.55,5.18-0.68c1.08-0.72,18.25-12.17,22.82-15.65" style="fill:none;stroke:#999;stroke-width:3" />
<path d="M1141.26,12.62c2.64,1.44,7.27,5.94,7.93,8.18" style="fill:none;stroke:#999;stroke-width:3" />
<path d="M1165.87,9.75c0.02,0.23,0.04,0.6-0.03,0.93c-0.39,1.97-2.43,6.57-5.57,10.19" style="fill:none;stroke:#999;stroke-width:3" />
<path d="M1134.67,24.76c1.05,0.34,2.98,0.36,4.03,0.34c6.35-0.1,26.62-3.83,36.1-3.71c1.75,0.02,2.8,0.16,3.68,0.33" style="fill:none;stroke:#999;stroke-width:3" />
<path d="M1154.46,23.32c0.75,0.3,1.35,1.32,1.35,1.94c0,5.08,0,10.87,0,16.19" style="fill:none;stroke:#999;stroke-width:3" />
<path d="M1138.38,33.77c0.83,0.23,2.36,0.29,3.19,0.23c6.92-0.5,21.37-3.14,29.57-3.39c1.38-0.04,2.22,0.11,2.91,0.22" style="fill:none;stroke:#999;stroke-width:3" />
<path d="M1132.38,42.98c1.33,0.47,3.8,0.7,5.12,0.47c5.41-0.92,27.06-3.15,41.7-4.12c2.22-0.15,3.56,0.23,4.68,0.46" style="fill:none;stroke:#999;stroke-width:3" />
<path d="M1148.1,46c0.04,0.24,0.09,0.62-0.09,0.97c-1.11,2.05-7.45,6.53-16.14,9.28" style="fill:none;stroke:black;stroke-width:3" />
<circle cx="1148.1" cy="46.0" r="5" stroke-width="0" fill="#FF2A00" opacity="0.7" />
<path d="M1219.28,23.14c0.03,0.61,0.06,1.57-0.05,2.44c-0.65,5.15-3.72,17.16-8.42,25.38" style="fill:none;stroke:#999;stroke-width:3" />
<path d="M1218.25,38.75c0.82-0.09,1.76,0.28,2.77,0.12c7.27-1.12,15.38-3.12,16.48-3.12c1.25,0,1.5,0,2.75,0.25" style="fill:none;stroke:#999;stroke-width:3" />
<path d="M1227.37,11.75c1.09,0.5,1.74,2.25,1.96,3.25c0.22,1,0,78.25-0.22,84.5" style="fill:none;stroke:#999;stroke-width:3" />
<path d="M1210.5,66.83c1.5,0.67,3.35,0.55,5.18-0.68c1.08-0.72,18.25-12.17,22.82-15.65" style="fill:none;stroke:#999;stroke-width:3" />
<path d="M1250.26,12.62c2.64,1.44,7.27,5.94,7.93,8.18" style="fill:none;stroke:#999;stroke-width:3" />
<path d="M1274.87,9.75c0.02,0.23,0.04,0.6-0.03,0.93c-0.39,1.97-2.43,6.57-5.57,10.19" style="fill:none;stroke:#999;stroke-width:3" />
<path d="M1243.67,24.76c1.05,0.34,2.98,0.36,4.03,0.34c6.35-0.1,26.62-3.83,36.1-3.71c1.75,0.02,2.8,0.16,3.68,0.33" style="fill:none;stroke:#999;stroke-width:3" />
<path d="M1263.46,23.32c0.75,0.3,1.35,1.32,1.35,1.94c0,5.08,0,10.87,0,16.19" style="fill:none;stroke:#999;stroke-width:3" />
<path d="M1247.38,33.77c0.83,0.23,2.36,0.29,3.19,0.23c6.92-0.5,21.37-3.14,29.57-3.39c1.38-0.04,2.22,0.11,2.91,0.22" style="fill:none;stroke:#999;stroke-width:3" />
<path d="M1241.38,42.98c1.33,0.47,3.8,0.7,5.12,0.47c5.41-0.92,27.06-3.15,41.7-4.12c2.22-0.15,3.56,0.23,4.68,0.46" style="fill:none;stroke:#999;stroke-width:3" />
<path d="M1257.1,46c0.04,0.24,0.09,0.62-0.09,0.97c-1.11,2.05-7.45,6.53-16.14,9.28" style="fill:none;stroke:#999;stroke-width:3" />
<path d="M1236.21,60.46c0.85,0.43,3.11,1.01,5.36,0.78C1254.0,60 1268.92,57.75 1288.14,56.19c2.27-0.18,3.93,0.07,5.34,0.5" style="fill:none;stroke:black;stroke-width:3" />
<circle cx="1236.21" cy="60.46" r="5" stroke-width="0" fill="#FF2A00" opacity="0.7" />
<path d="M1328.28,23.14c0.03,0.61,0.06,1.57-0.05,2.44c-0.65,5.15-3.72,17.16-8.42,25.38" style="fill:none;stroke:#999;stroke-width:3" />
<path d="M1327.25,38.75c0.82-0.09,1.76,0.28,2.77,0.12c7.27-1.12,15.38-3.12,16.48-3.12c1.25,0,1.5,0,2.75,0.25" style="fill:none;stroke:#999;stroke-width:3" />
<path d="M1336.37,11.75c1.09,0.5,1.74,2.25,1.96,3.25c0.22,1,0,78.25-0.22,84.5" style="fill:none;stroke:#999;stroke-width:3" />
<path d="M1319.5,66.83c1.5,0.67,3.35,0.55,5.18-0.68c1.08-0.72,18.25-12.17,22.82-15.65" style="fill:none;stroke:#999;stroke-width:3" />
<path d="M1359.26,12.62c2.64,1.44,7.27,5.94,7.93,8.18" style="fill:none;stroke:#999;stroke-width:3" />
<path d="M1383.87,9.75c0.02,0.23,0.04,0.6-0.03,0.93c-0.39,1.97-2.43,6.57-5.57,10.19" style="fill:none;stroke:#999;stroke-width:3" />
<path d="M1352.67,24.76c1.05,0.34,2.98,0.36,4.03,0.34c6.35-0.1,26.62-3.83,36.1-3.71c1.75,0.02,2.8,0.16,3.68,0.33" style="fill:none;stroke:#999;stroke-width:3" />
<path d="M1372.46,23.32c0.75,0.3,1.35,1.32,1.35,1.94c0,5.08,0,10.87,0,16.19" style="fill:none;stroke:#999;stroke-width:3" />
<path d="M1356.38,33.77c0.83,0.23,2.36,0.29,3.19,0.23c6.92-0.5,21.37-3.14,29.57-3.39c1.38-0.04,2.22,0.11,2.91,0.22" style="fill:none;stroke:#999;stroke-width:3" />
<path d="M1350.38,42.98c1.33,0.47,3.8,0.7,5.12,0.47c5.41-0.92,27.06-3.15,41.7-4.12c2.22-0.15,3.56,0.23,4.68,0.46" style="fill:none;stroke:#999;stroke-width:3" />
<path d="M1366.1,46c0.04,0.24,0.09,0.62-0.09,0.97c-1.11,2.05-7.45,6.53-16.14,9.28" style="fill:none;stroke:#999;stroke-width:3" />
<path d="M1345.21,60.46c0.85,0.43,3.11,1.01,5.36,0.78C1363.0,60 1377.92,57.75 1397.14,56.19c2.27-0.18,3.93,0.07,5.34,0.5" style="fill:none;stroke:#999;stroke-width:3" />
<path d="M1361.86,53.49c0.43,0.47,0.68,2.13,0.77,3.07c0.09,0.94,0,9.45-0.08,15.35" style="fill:none;stroke:black;stroke-width:3" />
<circle cx="1361.86" cy="53.49" r="5" stroke-width="0" fill="#FF2A00" opacity="0.7" />
<path d="M1437.28,23.14c0.03,0.61,0.06,1.57-0.05,2.44c-0.65,5.15-3.72,17.16-8.42,25.38" style="fill:none;stroke:#999;stroke-width:3" />
<path d="M1436.25,38.75c0.82-0.09,1.76,0.28,2.77,0.12c7.27-1.12,15.38-3.12,16.48-3.12c1.25,0,1.5,0,2.75,0.25" style="fill:none;stroke:#999;stroke-width:3" />
<path d="M1445.37,11.75c1.09,0.5,1.74,2.25,1.96,3.25c0.22,1,0,78.25-0.22,84.5" style="fill:none;stroke:#999;stroke-width:3" />
<path d="M1428.5,66.83c1.5,0.67,3.35,0.55,5.18-0.68c1.08-0.72,18.25-12.17,22.82-15.65" style="fill:none;stroke:#999;stroke-width:3" />
<path d="M1468.26,12.62c2.64,1.44,7.27,5.94,7.93,8.18" style="fill:none;stroke:#999;stroke-width:3" />
<path d="M1492.87,9.75c0.02,0.23,0.04,0.6-0.03,0.93c-0.39,1.97-2.43,6.57-5.57,10.19" style="fill:none;stroke:#999;stroke-width:3" />
<path d="M1461.67,24.76c1.05,0.34,2.98,0.36,4.03,0.34c6.35-0.1,26.62-3.83,36.1-3.71c1.75,0.02,2.8,0.16,3.68,0.33" style="fill:none;stroke:#999;stroke-width:3" />
<path d="M1481.46,23.32c0.75,0.3,1.35,1.32,1.35,1.94c0,5.08,0,10.87,0,16.19" style="fill:none;stroke:#999;stroke-width:3" />
<path d="M1465.38,33.77c0.83,0.23,2.36,0.29,3.19,0.23c6.92-0.5,21.37-3.14,29.57-3.39c1.38-0.04,2.22,0.11,2.91,0.22" style="fill:none;stroke:#999;stroke-width:3" />
<path d="M1459.38,42.98c1.33,0.47,3.8,0.7,5.12,0.47c5.41-0.92,27.06-3.15,41.7-4.12c2.22-0.15,3.56,0.23,4.68,0.46" style="fill:none;stroke:#999;stroke-width:3" />
<path d="M1475.1,46c0.04,0.24,0.09,0.62-0.09,0.97c-1.11,2.05-7.45,6.53-16.14,9.28" style="fill:none;stroke:#999;stroke-width:3" />
<path d="M1454.21,60.46c0.85,0.43,3.11,1.01,5.36,0.78C1472.0,60 1486.92,57.75 1506.14,56.19c2.27-0.18,3.93,0.07,5.34,0.5" style="fill:none;stroke:#999;stroke-width:3" />
<path d="M1470.86,53.49c0.43,0.47,0.68,2.13,0.77,3.07c0.09,0.94,0,9.45-0.08,15.35" style="fill:none;stroke:#999;stroke-width:3" />
<path d="M1469.16,60.47C1466.34,66.04 1460.41,72.01 1452.75,75" style="fill:none;stroke:black;stroke-width:3" />
<circle cx="1469.16" cy="60.47" r="5" stroke-width="0" fill="#FF2A00" opacity="0.7" />
<path d="M1546.28,23.14c0.03,0.61,0.06,1.57-0.05,2.44c-0.65,5.15-3.72,17.16-8.42,25.38" style="fill:none;stroke:#999;stroke-width:3" />
<path d="M1545.25,38.75c0.82-0.09,1.76,0.28,2.77,0.12c7.27-1.12,15.38-3.12,16.48-3.12c1.25,0,1.5,0,2.75,0.25" style="fill:none;stroke:#999;stroke-width:3" />
<path d="M1554.37,11.75c1.09,0.5,1.74,2.25,1.96,3.25c0.22,1,0,78.25-0.22,84.5" style="fill:none;stroke:#999;stroke-width:3" />
<path d="M1537.5,66.83c1.5,0.67,3.35,0.55,5.18-0.68c1.08-0.72,18.25-12.17,22.82-15.65" style="fill:none;stroke:#999;stroke-width:3" />
<path d="M1577.26,12.62c2.64,1.44,7.27,5.94,7.93,8.18" style="fill:none;stroke:#999;stroke-width:3" />
<path d="M1601.87,9.75c0.02,0.23,0.04,0.6-0.03,0.93c-0.39,1.97-2.43,6.57-5.57,10.19" style="fill:none;stroke:#999;stroke-width:3" />
<path d="M1570.67,24.76c1.05,0.34,2.98,0.36,4.03,0.34c6.35-0.1,26.62-3.83,36.1-3.71c1.75,0.02,2.8,0.16,3.68,0.33" style="fill:none;stroke:#999;stroke-width:3" />
<path d="M1590.46,23.32c0.75,0.3,1.35,1.32,1.35,1.94c0,5.08,0,10.87,0,16.19" style="fill:none;stroke:#999;stroke-width:3" />
<path d="M1574.38,33.77c0.83,0.23,2.36,0.29,3.19,0.23c6.92-0.5,21.37-3.14,29.57-3.39c1.38-0.04,2.22,0.11,2.91,0.22" style="fill:none;stroke:#999;stroke-width:3" />
<path d="M1568.38,42.98c1.33,0.47,3.8,0.7,5.12,0.47c5.41-0.92,27.06-3.15,41.7-4.12c2.22-0.15,3.56,0.23,4.68,0.46" style="fill:none;stroke:#999;stroke-width:3" />
<path d="M1584.1,46c0.04,0.24,0.09,0.62-0.09,0.97c-1.11,2.05-7.45,6.53-16.14,9.28" style="fill:none;stroke:#999;stroke-width:3" />
<path d="M1563.21,60.46c0.85,0.43,3.11,1.01,5.36,0.78C1581.0,60 1595.92,57.75 1615.14,56.19c2.27-0.18,3.93,0.07,5.34,0.5" style="fill:none;stroke:#999;stroke-width:3" />
<path d="M1579.86,53.49c0.43,0.47,0.68,2.13,0.77,3.07c0.09,0.94,0,9.45-0.08,15.35" style="fill:none;stroke:#999;stroke-width:3" />
<path d="M1578.16,60.47C1575.34,66.04 1569.41,72.01 1561.75,75" style="fill:none;stroke:#999;stroke-width:3" />
<path d="M1582.62,63.5c5.02,0.82,8.31,2.46,11.21,4.75" style="fill:none;stroke:black;stroke-width:3" />
<circle cx="1582.62" cy="63.5" r="5" stroke-width="0" fill="#FF2A00" opacity="0.7" />
<path d="M1655.28,23.14c0.03,0.61,0.06,1.57-0.05,2.44c-0.65,5.15-3.72,17.16-8.42,25.38" style="fill:none;stroke:#999;stroke-width:3" />
<path d="M1654.25,38.75c0.82-0.09,1.76,0.28,2.77,0.12c7.27-1.12,15.38-3.12,16.48-3.12c1.25,0,1.5,0,2.75,0.25" style="fill:none;stroke:#999;stroke-width:3" />
<path d="M1663.37,11.75c1.09,0.5,1.74,2.25,1.96,3.25c0.22,1,0,78.25-0.22,84.5" style="fill:none;stroke:#999;stroke-width:3" />
<path d="M1646.5,66.83c1.5,0.67,3.35,0.55,5.18-0.68c1.08-0.72,18.25-12.17,22.82-15.65" style="fill:none;stroke:#999;stroke-width:3" />
<path d="M1686.26,12.62c2.64,1.44,7.27,5.94,7.93,8.18" style="fill:none;stroke:#999;stroke-width:3" />
<path d="M1710.87,9.75c0.02,0.23,0.04,0.6-0.03,0.93c-0.39,1.97-2.43,6.57-5.57,10.19" style="fill:none;stroke:#999;stroke-width:3" />
<path d="M1679.67,24.76c1.05,0.34,2.98,0.36,4.03,0.34c6.35-0.1,26.62-3.83,36.1-3.71c1.75,0.02,2.8,0.16,3.68,0.33" style="fill:none;stroke:#999;stroke-width:3" />
<path d="M1699.46,23.32c0.75,0.3,1.35,1.32,1.35,1.94c0,5.08,0,10.87,0,16.19" style="fill:none;stroke:#999;stroke-width:3" />
<path d="M1683.38,33.77c0.83,0.23,2.36,0.29,3.19,0.23c6.92-0.5,21.37-3.14,29.57-3.39c1.38-0.04,2.22,0.11,2.91,0.22" style="fill:none;stroke:#999;stroke-width:3" />
<path d="M1677.38,42.98c1.33,0.47,3.8,0.7,5.12,0.47c5.41-0.92,27.06-3.15,41.7-4.12c2.22-0.15,3.56,0.23,4.68,0.46" style="fill:none;stroke:#999;stroke-width:3" />
<path d="M1693.1,46c0.04,0.24,0.09,0.62-0.09,0.97c-1.11,2.05-7.45,6.53-16.14,9.28" style="fill:none;stroke:#999;stroke-width:3" />
<path d="M1672.21,60.46c0.85,0.43,3.11,1.01,5.36,0.78C1690.0,60 1704.92,57.75 1724.14,56.19c2.27-0.18,3.93,0.07,5.34,0.5" style="fill:none;stroke:#999;stroke-width:3" />
<path d="M1688.86,53.49c0.43,0.47,0.68,2.13,0.77,3.07c0.09,0.94,0,9.45-0.08,15.35" style="fill:none;stroke:#999;stroke-width:3" />
<path d="M1687.16,60.47C1684.34,66.04 1678.41,72.01 1670.75,75" style="fill:none;stroke:#999;stroke-width:3" />
<path d="M1691.62,63.5c5.02,0.82,8.31,2.46,11.21,4.75" style="fill:none;stroke:#999;stroke-width:3" />
<path d="M1676.91,76.21c0.95,0.35,2.69,0.44,3.64,0.35c6.05-0.61,11.7-1.38,17.75-2.45c1.56-0.28,2.53,0.17,3.33,0.34" style="fill:none;stroke:black;stroke-width:3" />
<circle cx="1676.91" cy="76.21" r="5" stroke-width="0" fill="#FF2A00" opacity="0.7" />
<path d="M1764.28,23.14c0.03,0.61,0.06,1.57-0.05,2.44c-0.65,5.15-3.72,17.16-8.42,25.38" style="fill:none;stroke:#999;stroke-width:3" />
<path d="M1763.25,38.75c0.82-0.09,1.76,0.28,2.77,0.12c7.27-1.12,15.38-3.12,16.48-3.12c1.25,0,1.5,0,2.75,0.25" style="fill:none;stroke:#999;stroke-width:3" />
<path d="M1772.37,11.75c1.09,0.5,1.74,2.25,1.96,3.25c0.22,1,0,78.25-0.22,84.5" style="fill:none;stroke:#999;stroke-width:3" />
<path d="M1755.5,66.83c1.5,0.67,3.35,0.55,5.18-0.68c1.08-0.72,18.25-12.17,22.82-15.65" style="fill:none;stroke:#999;stroke-width:3" />
<path d="M1795.26,12.62c2.64,1.44,7.27,5.94,7.93,8.18" style="fill:none;stroke:#999;stroke-width:3" />
<path d="M1819.87,9.75c0.02,0.23,0.04,0.6-0.03,0.93c-0.39,1.97-2.43,6.57-5.57,10.19" style="fill:none;stroke:#999;stroke-width:3" />
<path d="M1788.67,24.76c1.05,0.34,2.98,0.36,4.03,0.34c6.35-0.1,26.62-3.83,36.1-3.71c1.75,0.02,2.8,0.16,3.68,0.33" style="fill:none;stroke:#999;stroke-width:3" />
<path d="M1808.46,23.32c0.75,0.3,1.35,1.32,1.35,1.94c0,5.08,0,10.87,0,16.19" style="fill:none;stroke:#999;stroke-width:3" />
<path d="M1792.38,33.77c0.83,0.23,2.36,0.29,3.19,0.23c6.92-0.5,21.37-3.14,29.57-3.39c1.38-0.04,2.22,0.11,2.91,0.22" style="fill:none;stroke:#999;stroke-width:3" />
<path d="M1786.38,42.98c1.33,0.47,3.8,0.7,5.12,0.47c5.41-0.92,27.06-3.15,41.7-4.12c2.22-0.15,3.56,0.23,4.68,0.46" style="fill:none;stroke:#999;stroke-width:3" />
<path d="M1802.1,46c0.04,0.24,0.09,0.62-0.09,0.97c-1.11,2.05-7.45,6.53-16.14,9.28" style="fill:none;stroke:#999;stroke-width:3" />
<path d="M1781.21,60.46c0.85,0.43,3.11,1.01,5.36,0.78C1799.0,60 1813.92,57.75 1833.14,56.19c2.27-0.18,3.93,0.07,5.34,0.5" style="fill:none;stroke:#999;stroke-width:3" />
<path d="M1797.86,53.49c0.43,0.47,0.68,2.13,0.77,3.07c0.09,0.94,0,9.45-0.08,15.35" style="fill:none;stroke:#999;stroke-width:3" />
<path d="M1796.16,60.47C1793.34,66.04 1787.41,72.01 1779.75,75" style="fill:none;stroke:#999;stroke-width:3" />
<path d="M1800.62,63.5c5.02,0.82,8.31,2.46,11.21,4.75" style="fill:none;stroke:#999;stroke-width:3" />
<path d="M1785.91,76.21c0.95,0.35,2.69,0.44,3.64,0.35c6.05-0.61,11.7-1.38,17.75-2.45c1.56-0.28,2.53,0.17,3.33,0.34" style="fill:none;stroke:#999;stroke-width:3" />
<path d="M1793.99,77.55c0.3,0.39,0.25,1.44,0.06,2.05c-0.22,0.7-3.19,4.53-3.29,4.92c-0.1,0.39-0.04,1.37,0.8,1.16c2.78-0.69,8.09-1.6,12.38-2.16c1.61-0.21,2.3,1.12,2.11,2.64c-0.45,3.6-2.79,8.4-5.37,11.51c-2.29,2.76-4.06,0.5-5.34-1.95" style="fill:none;stroke:black;stroke-width:3" />
<circle cx="1793.99" cy="77.55" r="5" stroke-width="0" fill="#FF2A00" opacity="0.7" />
<path d="M1873.28,23.14c0.03,0.61,0.06,1.57-0.05,2.44c-0.65,5.15-3.72,17.16-8.42,25.38" style="fill:none;stroke:#999;stroke-width:3" />
<path d="M1872.25,38.75c0.82-0.09,1.76,0.28,2.77,0.12c7.27-1.12,15.38-3.12,16.48-3.12c1.25,0,1.5,0,2.75,0.25" style="fill:none;stroke:#999;stroke-width:3" />
<path d="M1881.37,11.75c1.09,0.5,1.74,2.25,1.96,3.25c0.22,1,0,78.25-0.22,84.5" style="fill:none;stroke:#999;stroke-width:3" />
<path d="M1864.5,66.83c1.5,0.67,3.35,0.55,5.18-0.68c1.08-0.72,18.25-12.17,22.82-15.65" style="fill:none;stroke:#999;stroke-width:3" />
<path d="M1904.26,12.62c2.64,1.44,7.27,5.94,7.93,8.18" style="fill:none;stroke:#999;stroke-width:3" />
<path d="M1928.87,9.75c0.02,0.23,0.04,0.6-0.03,0.93c-0.39,1.97-2.43,6.57-5.57,10.19" style="fill:none;stroke:#999;stroke-width:3" />
<path d="M1897.67,24.76c1.05,0.34,2.98,0.36,4.03,0.34c6.35-0.1,26.62-3.83,36.1-3.71c1.75,0.02,2.8,0.16,3.68,0.33" style="fill:none;stroke:#999;stroke-width:3" />
<path d="M1917.46,23.32c0.75,0.3,1.35,1.32,1.35,1.94c0,5.08,0,10.87,0,16.19" style="fill:none;stroke:#999;stroke-width:3" />
<path d="M1901.38,33.77c0.83,0.23,2.36,0.29,3.19,0.23c6.92-0.5,21.37-3.14,29.57-3.39c1.38-0.04,2.22,0.11,2.91,0.22" style="fill:none;stroke:#999;stroke-width:3" />
<path d="M1895.38,42.98c1.33,0.47,3.8,0.7,5.12,0.47c5.41-0.92,27.06-3.15,41.7-4.12c2.22-0.15,3.56,0.23,4.68,0.46" style="fill:none;stroke:#999;stroke-width:3" />
<path d="M1911.1,46c0.04,0.24,0.09,0.62-0.09,0.97c-1.11,2.05-7.45,6.53-16.14,9.28" style="fill:none;stroke:#999;stroke-width:3" />
<path d="M1890.21,60.46c0.85,0.43,3.11,1.01,5.36,0.78C1908.0,60 1922.92,57.75 1942.14,56.19c2.27-0.18,3.93,0.07,5.34,0.5" style="fill:none;stroke:#999;stroke-width:3" />
<path d="M1906.86,53.49c0.43,0.47,0.68,2.13,0.77,3.07c0.09,0.94,0,9.45-0.08,15.35" style="fill:none;stroke:#999;stroke-width:3" />
<path d="M1905.16,60.47C1902.34,66.04 1896.41,72.01 1888.75,75" style="fill:none;stroke:#999;stroke-width:3" />
<path d="M1909.62,63.5c5.02,0.82,8.31,2.46,11.21,4.75" style="fill:none;stroke:#999;stroke-width:3" />
<path d="M1894.91,76.21c0.95,0.35,2.69,0.44,3.64,0.35c6.05-0.61,11.7-1.38,17.75-2.45c1.56-0.28,2.53,0.17,3.33,0.34" style="fill:none;stroke:#999;stroke-width:3" />
<path d="M1902.99,77.55c0.3,0.39,0.25,1.44,0.06,2.05c-0.22,0.7-3.19,4.53-3.29,4.92c-0.1,0.39-0.04,1.37,0.8,1.16c2.78-0.69,8.09-1.6,12.38-2.16c1.61-0.21,2.3,1.12,2.11,2.64c-0.45,3.6-2.79,8.4-5.37,11.51c-2.29,2.76-4.06,0.5-5.34-1.95" style="fill:none;stroke:#999;stroke-width:3" />
<path d="M1924.04,45.75c1.19,1.1,1.39,1.4,1.64,3.76C1927.77,69.24 1933.0,84.25 1946.65,95.85c4.06,3.45,4.02,0.47,3.42-4.38" style="fill:none;stroke:black;stroke-width:3" />
<circle cx="1924.04" cy="45.75" r="5" stroke-width="0" fill="#FF2A00" opacity="0.7" />
<path d="M1982.28,23.14c0.03,0.61,0.06,1.57-0.05,2.44c-0.65,5.15-3.72,17.16-8.42,25.38" style="fill:none;stroke:#999;stroke-width:3" />
<path d="M1981.25,38.75c0.82-0.09,1.76,0.28,2.77,0.12c7.27-1.12,15.38-3.12,16.48-3.12c1.25,0,1.5,0,2.75,0.25" style="fill:none;stroke:#999;stroke-width:3" />
<path d="M1990.37,11.75c1.09,0.5,1.74,2.25,1.96,3.25c0.22,1,0,78.25-0.22,84.5" style="fill:none;stroke:#999;stroke-width:3" />
<path d="M1973.5,66.83c1.5,0.67,3.35,0.55,5.18-0.68c1.08-0.72,18.25-12.17,22.82-15.65" style="fill:none;stroke:#999;stroke-width:3" />
<path d="M2013.26,12.62c2.64,1.44,7.27,5.94,7.93,8.18" style="fill:none;stroke:#999;stroke-width:3" />
<path d="M2037.87,9.75c0.02,0.23,0.04,0.6-0.03,0.93c-0.39,1.97-2.43,6.57-5.57,10.19" style="fill:none;stroke:#999;stroke-width:3" />
<path d="M2006.67,24.76c1.05,0.34,2.98,0.36,4.03,0.34c6.35-0.1,26.62-3.83,36.1-3.71c1.75,0.02,2.8,0.16,3.68,0.33" style="fill:none;stroke:#999;stroke-width:3" />
<path d="M2026.46,23.32c0.75,0.3,1.35,1.32,1.35,1.94c0,5.08,0,10.87,0,16.19" style="fill:none;stroke:#999;stroke-width:3" />
<path d="M2010.38,33.77c0.83,0.23,2.36,0.29,3.19,0.23c6.92-0.5,21.37-3.14,29.57-3.39c1.38-0.04,2.22,0.11,2.91,0.22" style="fill:none;stroke:#999;stroke-width:3" />
<path d="M2004.38,42.98c1.33,0.47,3.8,0.7,5.12,0.47c5.41-0.92,27.06-3.15,41.7-4.12c2.22-0.15,3.56,0.23,4.68,0.46" style="fill:none;stroke:#999;stroke-width:3" />
<path d="M2020.1,46c0.04,0.24,0.09,0.62-0.09,0.97c-1.11,2.05-7.45,6.53-16.14,9.28" style="fill:none;stroke:#999;stroke-width:3" />
<path d="M1999.21,60.46c0.85,0.43,3.11,1.01,5.36,0.78C2017.0,60 2031.92,57.75 2051.1400000000003,56.19c2.27-0.18,3.93,0.07,5.34,0.5" style="fill:none;stroke:#999;stroke-width:3" />
<path d="M2015.86,53.49c0.43,0.47,0.68,2.13,0.77,3.07c0.09,0.94,0,9.45-0.08,15.35" style="fill:none;stroke:#999;stroke-width:3" />
<path d="M2014.16,60.47C2011.34,66.04 2005.41,72.01 1997.75,75" style="fill:none;stroke:#999;stroke-width:3" />
<path d="M2018.62,63.5c5.02,0.82,8.31,2.46,11.21,4.75" style="fill:none;stroke:#999;stroke-width:3" />
<path d="M2003.91,76.21c0.95,0.35,2.69,0.44,3.64,0.35c6.05-0.61,11.7-1.38,17.75-2.45c1.56-0.28,2.53,0.17,3.33,0.34" style="fill:none;stroke:#999;stroke-width:3" />
<path d="M2011.99,77.55c0.3,0.39,0.25,1.44,0.06,2.05c-0.22,0.7-3.19,4.53-3.29,4.92c-0.1,0.39-0.04,1.37,0.8,1.16c2.78-0.69,8.09-1.6,12.38-2.16c1.61-0.21,2.3,1.12,2.11,2.64c-0.45,3.6-2.79,8.4-5.37,11.51c-2.29,2.76-4.06,0.5-5.34-1.95" style="fill:none;stroke:#999;stroke-width:3" />
<path d="M2033.04,45.75c1.19,1.1,1.39,1.4,1.64,3.76C2036.77,69.24 2042.0,84.25 2055.65,95.85c4.06,3.45,4.02,0.47,3.42-4.38" style="fill:none;stroke:#999;stroke-width:3" />
<path d="M2050.51,64.6c0.06,0.72,0.13,1.87-0.12,2.91c-1.48,6.14-9.69,21.61-21.98,29.1" style="fill:none;stroke:black;stroke-width:3" />
<circle cx="2050.51" cy="64.6" r="5" stroke-width="0" fill="#FF2A00" opacity="0.7" />
<path d="M2091.2799999999997,23.14c0.03,0.61,0.06,1.57-0.05,2.44c-0.65,5.15-3.72,17.16-8.42,25.38" style="fill:none;stroke:#999;stroke-width:3" />
<path d="M2090.25,38.75c0.82-0.09,1.76,0.28,2.77,0.12c7.27-1.12,15.38-3.12,16.48-3.12c1.25,0,1.5,0,2.75,0.25" style="fill:none;stroke:#999;stroke-width:3" />
<path d="M2099.37,11.75c1.09,0.5,1.74,2.25,1.96,3.25c0.22,1,0,78.25-0.22,84.5" style="fill:none;stroke:#999;stroke-width:3" />
<path d="M2082.5,66.83c1.5,0.67,3.35,0.55,5.18-0.68c1.08-0.72,18.25-12.17,22.82-15.65" style="fill:none;stroke:#999;stroke-width:3" />
<path d="M2122.26,12.62c2.64,1.44,7.27,5.94,7.93,8.18" style="fill:none;stroke:#999;stroke-width:3" />
<path d="M2146.87,9.75c0.02,0.23,0.04,0.6-0.03,0.93c-0.39,1.97-2.43,6.57-5.57,10.19" style="fill:none;stroke:#999;stroke-width:3" />
<path d="M2115.67,24.76c1.05,0.34,2.98,0.36,4.03,0.34c6.35-0.1,26.62-3.83,36.1-3.71c1.75,0.02,2.8,0.16,3.68,0.33" style="fill:none;stroke:#999;stroke-width:3" />
<path d="M2135.46,23.32c0.75,0.3,1.35,1.32,1.35,1.94c0,5.08,0,10.87,0,16.19" style="fill:none;stroke:#999;stroke-width:3" />
<path d="M2119.38,33.77c0.83,0.23,2.36,0.29,3.19,0.23c6.92-0.5,21.37-3.14,29.57-3.39c1.38-0.04,2.22,0.11,2.91,0.22" style="fill:none;stroke:#999;stroke-width:3" />
<path d="M2113.38,42.98c1.33,0.47,3.8,0.7,5.12,0.47c5.41-0.92,27.06-3.15,41.7-4.12c2.22-0.15,3.56,0.23,4.68,0.46" style="fill:none;stroke:#999;stroke-width:3" />
<path d="M2129.1,46c0.04,0.24,0.09,0.62-0.09,0.97c-1.11,2.05-7.45,6.53-16.14,9.28" style="fill:none;stroke:#999;stroke-width:3" />
<path d="M2108.21,60.46c0.85,0.43,3.11,1.01,5.36,0.78C2126.0,60 2140.92,57.75 2160.1400000000003,56.19c2.27-0.18,3.93,0.07,5.34,0.5" style="fill:none;stroke:#999;stroke-width:3" />
<path d="M2124.8599999999997,53.49c0.43,0.47,0.68,2.13,0.77,3.07c0.09,0.94,0,9.45-0.08,15.35" style="fill:none;stroke:#999;stroke-width:3" />
<path d="M2123.16,60.47C2120.34,66.04 2114.41,72.01 2106.75,75" style="fill:none;stroke:#999;stroke-width:3" />
<path d="M2127.62,63.5c5.02,0.82,8.31,2.46,11.21,4.75" style="fill:none;stroke:#999;stroke-width:3" />
<path d="M2112.91,76.21c0.95,0.35,2.69,0.44,3.64,0.35c6.05-0.61,11.7-1.38,17.75-2.45c1.56-0.28,2.53,0.17,3.33,0.34" style="fill:none;stroke:#999;stroke-width:3" />
<path d="M2120.99,77.55c0.3,0.39,0.25,1.44,0.06,2.05c-0.22,0.7-3.19,4.53-3.29,4.92c-0.1,0.39-0.04,1.37,0.8,1.16c2.78-0.69,8.09-1.6,12.38-2.16c1.61-0.21,2.3,1.12,2.11,2.64c-0.45,3.6-2.79,8.4-5.37,11.51c-2.29,2.76-4.06,0.5-5.34-1.95" style="fill:none;stroke:#999;stroke-width:3" />
<path d="M2142.04,45.75c1.19,1.1,1.39,1.4,1.64,3.76C2145.77,69.24 2151.0,84.25 2164.65,95.85c4.06,3.45,4.02,0.47,3.42-4.38" style="fill:none;stroke:#999;stroke-width:3" />
<path d="M2159.51,64.6c0.06,0.72,0.13,1.87-0.12,2.91c-1.48,6.14-9.69,21.61-21.98,29.1" style="fill:none;stroke:#999;stroke-width:3" />
<path d="M2152.49,44.81c2.62,1.2,6.8,3.95,8.02,6.01" style="fill:none;stroke:black;stroke-width:3" />
<circle cx="2152.49" cy="44.81" r="5" stroke-width="0" fill="#FF2A00" opacity="0.7" />
</svg>