<!-- 072a2 -->
<svg width="2071px" height="109px" viewBox="0 0 2071px 109px" xmlns="http://www.w3.org/2000/svg" xmlns:xlink="http://www.w3.org/1999/xlink" xml:space="preserve" version="1.1"  baseProfile="full">
<line x1="1" y1="1" x2="2070" y2="1" style="stroke:#ddd;stroke-width:2" />
<line x1="1" y1="1" x2="1" y2="108" style="stroke:#ddd;stroke-width:2" />
<line x1="1" y1="108" x2="2070" y2="108" style="stroke:#ddd;stroke-width:2" />
<line x1="2070" y1="1" x2="2070" y2="108" style="stroke:#ddd;stroke-width:2" />
<line x1="109" y1="1" x2="109" y2="108" style="stroke:#ddd;stroke-width:2" />
<line x1="218" y1="1" x2="218" y2="108" style="stroke:#ddd;stroke-width:2" />
<line x1="327" y1="1" x2="327" y2="108" style="stroke:#ddd;stroke-width:2" />
<line x1="436" y1="1" x2="436" y2="108" style="stroke:#ddd;stroke-width:2" />
<line x1="545" y1="1" x2="545" y2="108" style="stroke:#ddd;stroke-width:2" />
<line x1="654" y1="1" x2="654" y2="108" style="stroke:#ddd;stroke-width:2" />
<line x1="763" y1="1" x2="763" y2="108" style="stroke:#ddd;stroke-width:2" />
<line x1="872" y1="1" x2="872" y2="108" style="stroke:#ddd;stroke-width:2" />
<line x1="981" y1="1" x2="981" y2="108" style="stroke:#ddd;stroke-width:2" />
<line x1="1090" y1="1" x2="1090" y2="108" style="stroke:#ddd;stroke-width:2" />
<line x1="1199" y1="1" x2="1199" y2="108" style="stroke:#ddd;stroke-width:2" />
<line x1="1308" y1="1" x2="1308" y2="108" style="stroke:#ddd;stroke-width:2" />
<line x1="1417" y1="1" x2="1417" y2="108" style="stroke:#ddd;stroke-width:2" />
<line x1="1526" y1="1" x2="1526" y2="108" style="stroke:#ddd;stroke-width:2" />
<line x1="1635" y1="1" x2="1635" y2="108" style="stroke:#ddd;stroke-width:2" />
<line x1="1744" y1="1" x2="1744" y2="108" style="stroke:#ddd;stroke-width:2" />
<line x1="1853" y1="1" x2="1853" y2="108" style="stroke:#ddd;stroke-width:2" />
<line x1="1962" y1="1" x2="1962" y2="108" style="stroke:#ddd;stroke-width:2" />
<line x1="1" y1="54" x2="2070" y2="54" style="stroke:#ddd;stroke-width:2;stroke-dasharray:3 3" />
<line x1="55" y1="1" x2="55" y2="108" style="stroke:#ddd;stroke-width:2;stroke-dasharray:3 3" />
<line x1="164" y1="1" x2="164" y2="108" style="stroke:#ddd;stroke-width:2;stroke-dasharray:3 3" />
<line x1="273" y1="1" x2="273" y2="108" style="stroke:#ddd;stroke-width:2;stroke-dasharray:3 3" />
<line x1="382" y1="1" x2="382" y2="108" style="stroke:#ddd;stroke-width:2;stroke-dasharray:3 3" />
<line x1="491" y1="1" x2="491" y2="108" style="stroke:#ddd;stroke-width:2;stroke-dasharray:3 3" />
<line x1="600" y1="1" x2="600" y2="108" style="stroke:#ddd;stroke-width:2;stroke-dasharray:3 3" />
<line x1="709" y1="1" x2="709" y2="108" style="stroke:#ddd;stroke-width:2;stroke-dasharray:3 3" />
<line x1="818" y1="1" x2="818" y2="108" style="stroke:#ddd;stroke-width:2;stroke-dasharray:3 3" />
<line x1="927" y1="1" x2="927" y2="108" style="stroke:#ddd;stroke-width:2;stroke-dasharray:3 3" />
<line x1="1036" y1="1" x2="1036" y2="108" style="stroke:#ddd;stroke-width:2;stroke-dasharray:3 3" />
<line x1="1145" y1="1" x2="1145" y2="108" style="stroke:#ddd;stroke-width:2;stroke-dasharray:3 3" />
<line x1="1254" y1="1" x2="1254" y2="108" style="stroke:#ddd;stroke-width:2;stroke-dasharray:3 3" />
<line x1="1363" y1="1" x2="1363" y2="108" style="stroke:#ddd;stroke-width:2;stroke-dasharray:3 3" />
<line x1="1472" y1="1" x2="1472" y2="108" style="stroke:#ddd;stroke-width:2;stroke-dasharray:3 3" />
<line x1="1581" y1="1" x2="1581" y2="108" style="stroke:#ddd;stroke-width:2;stroke-dasharray:3 3" />
<line x1="1690" y1="1" x2="1690" y2="108" style="stroke:#ddd;stroke-width:2;stroke-dasharray:3 3" />
<line x1="1799" y1="1" x2="1799" y2="108" style="stroke:#ddd;stroke-width:2;stroke-dasharray:3 3" />
<line x1="1908" y1="1" x2="1908" y2="108" style="stroke:#ddd;stroke-width:2;stroke-dasharray:3 3" />
<line x1="2017" y1="1" x2="2017" y2="108" style="stroke:#ddd;stroke-width:2;stroke-dasharray:3 3" />
<path d="M20.28,23.14c0.02,0.66,0.05,1.71-0.05,2.66c-0.58,5.6-3.89,17.89-8.42,25.42" style="fill:none;stroke:black;stroke-width:3" />
<circle cx="20.28" cy="23.14" r="5" stroke-width="0" fill="#FF2A00" opacity="0.7" />
<path d="M129.28,23.14c0.02,0.66,0.05,1.71-0.05,2.66c-0.58,5.6-3.89,17.89-8.42,25.42" style="fill:none;stroke:#999;stroke-width:3" />
<path d="M129.5,38.82c0.69,0.11,1.62,0.19,2.68,0.03c5.3-0.83,12.44-2.09,13.23-2.09c0.95,0,1.9,0,2.85,0.16" style="fill:none;stroke:black;stroke-width:3" />
<circle cx="129.5" cy="38.82" r="5" stroke-width="0" fill="#FF2A00" opacity="0.7" />
<path d="M238.28,23.14c0.02,0.66,0.05,1.71-0.05,2.66c-0.58,5.6-3.89,17.89-8.42,25.42" style="fill:none;stroke:#999;stroke-width:3" />
<path d="M238.5,38.82c0.69,0.11,1.62,0.19,2.68,0.03c5.3-0.83,12.44-2.09,13.23-2.09c0.95,0,1.9,0,2.85,0.16" style="fill:none;stroke:#999;stroke-width:3" />
<path d="M246.87,11.75c1.09,0.5,1.74,2.25,1.96,3.25c0.22,1,0,77.75-0.22,84" style="fill:none;stroke:black;stroke-width:3" />
<circle cx="246.87" cy="11.75" r="5" stroke-width="0" fill="#FF2A00" opacity="0.7" />
<path d="M347.28,23.14c0.02,0.66,0.05,1.71-0.05,2.66c-0.58,5.6-3.89,17.89-8.42,25.42" style="fill:none;stroke:#999;stroke-width:3" />
<path d="M347.5,38.82c0.69,0.11,1.62,0.19,2.68,0.03c5.3-0.83,12.44-2.09,13.23-2.09c0.95,0,1.9,0,2.85,0.16" style="fill:none;stroke:#999;stroke-width:3" />
<path d="M355.87,11.75c1.09,0.5,1.74,2.25,1.96,3.25c0.22,1,0,77.75-0.22,84" style="fill:none;stroke:#999;stroke-width:3" />
<path d="M338.5,66.71c1.8,1.06,3.29,1.52,5.09,0.61C344.65,66.78 362.51,57.58 367.0,55" style="fill:none;stroke:black;stroke-width:3" />
<circle cx="338.5" cy="66.71" r="5" stroke-width="0" fill="#FF2A00" opacity="0.7" />
<path d="M456.28,23.14c0.02,0.66,0.05,1.71-0.05,2.66c-0.58,5.6-3.89,17.89-8.42,25.42" style="fill:none;stroke:#999;stroke-width:3" />
<path d="M456.5,38.82c0.69,0.11,1.62,0.19,2.68,0.03c5.3-0.83,12.44-2.09,13.23-2.09c0.95,0,1.9,0,2.85,0.16" style="fill:none;stroke:#999;stroke-width:3" />
<path d="M464.87,11.75c1.09,0.5,1.74,2.25,1.96,3.25c0.22,1,0,77.75-0.22,84" style="fill:none;stroke:#999;stroke-width:3" />
<path d="M447.5,66.71c1.8,1.06,3.29,1.52,5.09,0.61C453.65,66.78 471.51,57.58 476.0,55" style="fill:none;stroke:#999;stroke-width:3" />
<path d="M485.06,18.5c1.17,0.47,3.32,0.54,4.49,0.47c12.2-0.78,18.32-1.88,32.64-2.87c1.95-0.14,3.12,0.22,4.1,0.46" style="fill:none;stroke:black;stroke-width:3" />
<circle cx="485.06" cy="18.5" r="5" stroke-width="0" fill="#FF2A00" opacity="0.7" />
<path d="M565.28,23.14c0.02,0.66,0.05,1.71-0.05,2.66c-0.58,5.6-3.89,17.89-8.42,25.42" style="fill:none;stroke:#999;stroke-width:3" />
<path d="M565.5,38.82c0.69,0.11,1.62,0.19,2.68,0.03c5.3-0.83,12.44-2.09,13.23-2.09c0.95,0,1.9,0,2.85,0.16" style="fill:none;stroke:#999;stroke-width:3" />
<path d="M573.87,11.75c1.09,0.5,1.74,2.25,1.96,3.25c0.22,1,0,77.75-0.22,84" style="fill:none;stroke:#999;stroke-width:3" />
<path d="M556.5,66.71c1.8,1.06,3.29,1.52,5.09,0.61C562.65,66.78 580.51,57.58 585.0,55" style="fill:none;stroke:#999;stroke-width:3" />
<path d="M594.06,18.5c1.17,0.47,3.32,0.54,4.49,0.47c12.2-0.78,18.32-1.88,32.64-2.87c1.95-0.14,3.12,0.22,4.1,0.46" style="fill:none;stroke:#999;stroke-width:3" />
<path d="M612.84,10c0.74,0.33,1.18,1.48,1.33,2.13c0.15,0.66,0,10.16-0.15,14.26" style="fill:none;stroke:black;stroke-width:3" />
<circle cx="612.84" cy="10.0" r="5" stroke-width="0" fill="#FF2A00" opacity="0.7" />
<path d="M674.28,23.14c0.02,0.66,0.05,1.71-0.05,2.66c-0.58,5.6-3.89,17.89-8.42,25.42" style="fill:none;stroke:#999;stroke-width:3" />
<path d="M674.5,38.82c0.69,0.11,1.62,0.19,2.68,0.03c5.3-0.83,12.44-2.09,13.23-2.09c0.95,0,1.9,0,2.85,0.16" style="fill:none;stroke:#999;stroke-width:3" />
<path d="M682.87,11.75c1.09,0.5,1.74,2.25,1.96,3.25c0.22,1,0,77.75-0.22,84" style="fill:none;stroke:#999;stroke-width:3" />
<path d="M665.5,66.71c1.8,1.06,3.29,1.52,5.09,0.61C671.65,66.78 689.51,57.58 694.0,55" style="fill:none;stroke:#999;stroke-width:3" />
<path d="M703.06,18.5c1.17,0.47,3.32,0.54,4.49,0.47c12.2-0.78,18.32-1.88,32.64-2.87c1.95-0.14,3.12,0.22,4.1,0.46" style="fill:none;stroke:#999;stroke-width:3" />
<path d="M721.84,10c0.74,0.33,1.18,1.48,1.33,2.13c0.15,0.66,0,10.16-0.15,14.26" style="fill:none;stroke:#999;stroke-width:3" />
<path d="M707.66,28.68c0.87,0.3,2.45,0.33,3.31,0.3C718.0,28.75 729.0,27 737.49,26.36c1.44-0.11,2.31,0.14,3.03,0.3" style="fill:none;stroke:black;stroke-width:3" />
<circle cx="707.66" cy="28.68" r="5" stroke-width="0" fill="#FF2A00" opacity="0.7" />
<path d="M783.28,23.14c0.02,0.66,0.05,1.71-0.05,2.66c-0.58,5.6-3.89,17.89-8.42,25.42" style="fill:none;stroke:#999;stroke-width:3" />
<path d="M783.5,38.82c0.69,0.11,1.62,0.19,2.68,0.03c5.3-0.83,12.44-2.09,13.23-2.09c0.95,0,1.9,0,2.85,0.16" style="fill:none;stroke:#999;stroke-width:3" />
<path d="M791.87,11.75c1.09,0.5,1.74,2.25,1.96,3.25c0.22,1,0,77.75-0.22,84" style="fill:none;stroke:#999;stroke-width:3" />
<path d="M774.5,66.71c1.8,1.06,3.29,1.52,5.09,0.61C780.65,66.78 798.51,57.58 803.0,55" style="fill:none;stroke:#999;stroke-width:3" />
<path d="M812.06,18.5c1.17,0.47,3.32,0.54,4.49,0.47c12.2-0.78,18.32-1.88,32.64-2.87c1.95-0.14,3.12,0.22,4.1,0.46" style="fill:none;stroke:#999;stroke-width:3" />
<path d="M830.84,10c0.74,0.33,1.18,1.48,1.33,2.13c0.15,0.66,0,10.16-0.15,14.26" style="fill:none;stroke:#999;stroke-width:3" />
<path d="M816.66,28.68c0.87,0.3,2.45,0.33,3.31,0.3C827.0,28.75 838.0,27 846.49,26.36c1.44-0.11,2.31,0.14,3.03,0.3" style="fill:none;stroke:#999;stroke-width:3" />
<path d="M808.92,36.18c0.24,0.28,0.48,0.51,0.59,0.86c0.82,2.75,3.31,10.34,3.88,15.29" style="fill:none;stroke:black;stroke-width:3" />
<circle cx="808.92" cy="36.18" r="5" stroke-width="0" fill="#FF2A00" opacity="0.7" />
<path d="M892.28,23.14c0.02,0.66,0.05,1.71-0.05,2.66c-0.58,5.6-3.89,17.89-8.42,25.42" style="fill:none;stroke:#999;stroke-width:3" />
<path d="M892.5,38.82c0.69,0.11,1.62,0.19,2.68,0.03c5.3-0.83,12.44-2.09,13.23-2.09c0.95,0,1.9,0,2.85,0.16" style="fill:none;stroke:#999;stroke-width:3" />
<path d="M900.87,11.75c1.09,0.5,1.74,2.25,1.96,3.25c0.22,1,0,77.75-0.22,84" style="fill:none;stroke:#999;stroke-width:3" />
<path d="M883.5,66.71c1.8,1.06,3.29,1.52,5.09,0.61C889.65,66.78 907.51,57.58 912.0,55" style="fill:none;stroke:#999;stroke-width:3" />
<path d="M921.06,18.5c1.17,0.47,3.32,0.54,4.49,0.47c12.2-0.78,18.32-1.88,32.64-2.87c1.95-0.14,3.12,0.22,4.1,0.46" style="fill:none;stroke:#999;stroke-width:3" />
<path d="M939.84,10c0.74,0.33,1.18,1.48,1.33,2.13c0.15,0.66,0,10.16-0.15,14.26" style="fill:none;stroke:#999;stroke-width:3" />
<path d="M925.66,28.68c0.87,0.3,2.45,0.33,3.31,0.3C936.0,28.75 947.0,27 955.49,26.36c1.44-0.11,2.31,0.14,3.03,0.3" style="fill:none;stroke:#999;stroke-width:3" />
<path d="M917.92,36.18c0.24,0.28,0.48,0.51,0.59,0.86c0.82,2.75,3.31,10.34,3.88,15.29" style="fill:none;stroke:#999;stroke-width:3" />
<path d="M919.4,38.05c5.24-1.08,43.34-4.51,46.13-4.87c1.02-0.13,2.4,0.93,2.12,2.48c-0.57,3.23-2.15,8.35-4.09,13.88" style="fill:none;stroke:black;stroke-width:3" />
<circle cx="919.4" cy="38.05" r="5" stroke-width="0" fill="#FF2A00" opacity="0.7" />
<path d="M1001.28,23.14c0.02,0.66,0.05,1.71-0.05,2.66c-0.58,5.6-3.89,17.89-8.42,25.42" style="fill:none;stroke:#999;stroke-width:3" />
<path d="M1001.5,38.82c0.69,0.11,1.62,0.19,2.68,0.03c5.3-0.83,12.44-2.09,13.23-2.09c0.95,0,1.9,0,2.85,0.16" style="fill:none;stroke:#999;stroke-width:3" />
<path d="M1009.87,11.75c1.09,0.5,1.74,2.25,1.96,3.25c0.22,1,0,77.75-0.22,84" style="fill:none;stroke:#999;stroke-width:3" />
<path d="M992.5,66.71c1.8,1.06,3.29,1.52,5.09,0.61C998.65,66.78 1016.51,57.58 1021.0,55" style="fill:none;stroke:#999;stroke-width:3" />
<path d="M1030.06,18.5c1.17,0.47,3.32,0.54,4.49,0.47c12.2-0.78,18.32-1.88,32.64-2.87c1.95-0.14,3.12,0.22,4.1,0.46" style="fill:none;stroke:#999;stroke-width:3" />
<path d="M1048.8400000000001,10c0.74,0.33,1.18,1.48,1.33,2.13c0.15,0.66,0,10.16-0.15,14.26" style="fill:none;stroke:#999;stroke-width:3" />
<path d="M1034.6599999999999,28.68c0.87,0.3,2.45,0.33,3.31,0.3C1045.0,28.75 1056.0,27 1064.49,26.36c1.44-0.11,2.31,0.14,3.03,0.3" style="fill:none;stroke:#999;stroke-width:3" />
<path d="M1026.92,36.18c0.24,0.28,0.48,0.51,0.59,0.86c0.82,2.75,3.31,10.34,3.88,15.29" style="fill:none;stroke:#999;stroke-width:3" />
<path d="M1028.4,38.05c5.24-1.08,43.34-4.51,46.13-4.87c1.02-0.13,2.4,0.93,2.12,2.48c-0.57,3.23-2.15,8.35-4.09,13.88" style="fill:none;stroke:#999;stroke-width:3" />
<path d="M1044.9,39.06c0.04,0.2,0.04,0.51-0.08,0.8c-1.11,2.54-2.52,4.48-7.25,6.94" style="fill:none;stroke:black;stroke-width:3" />
<circle cx="1044.9" cy="39.06" r="5" stroke-width="0" fill="#FF2A00" opacity="0.7" />
<path d="M1110.28,23.14c0.02,0.66,0.05,1.71-0.05,2.66c-0.58,5.6-3.89,17.89-8.42,25.42" style="fill:none;stroke:#999;stroke-width:3" />
<path d="M1110.5,38.82c0.69,0.11,1.62,0.19,2.68,0.03c5.3-0.83,12.44-2.09,13.23-2.09c0.95,0,1.9,0,2.85,0.16" style="fill:none;stroke:#999;stroke-width:3" />
<path d="M1118.87,11.75c1.09,0.5,1.74,2.25,1.96,3.25c0.22,1,0,77.75-0.22,84" style="fill:none;stroke:#999;stroke-width:3" />
<path d="M1101.5,66.71c1.8,1.06,3.29,1.52,5.09,0.61C1107.65,66.78 1125.51,57.58 1130.0,55" style="fill:none;stroke:#999;stroke-width:3" />
<path d="M1139.06,18.5c1.17,0.47,3.32,0.54,4.49,0.47c12.2-0.78,18.32-1.88,32.64-2.87c1.95-0.14,3.12,0.22,4.1,0.46" style="fill:none;stroke:#999;stroke-width:3" />
<path d="M1157.8400000000001,10c0.74,0.33,1.18,1.48,1.33,2.13c0.15,0.66,0,10.16-0.15,14.26" style="fill:none;stroke:#999;stroke-width:3" />
<path d="M1143.6599999999999,28.68c0.87,0.3,2.45,0.33,3.31,0.3C1154.0,28.75 1165.0,27 1173.49,26.36c1.44-0.11,2.31,0.14,3.03,0.3" style="fill:none;stroke:#999;stroke-width:3" />
<path d="M1135.92,36.18c0.24,0.28,0.48,0.51,0.59,0.86c0.82,2.75,3.31,10.34,3.88,15.29" style="fill:none;stroke:#999;stroke-width:3" />
<path d="M1137.4,38.05c5.24-1.08,43.34-4.51,46.13-4.87c1.02-0.13,2.4,0.93,2.12,2.48c-0.57,3.23-2.15,8.35-4.09,13.88" style="fill:none;stroke:#999;stroke-width:3" />
<path d="M1153.9,39.06c0.04,0.2,0.04,0.51-0.08,0.8c-1.11,2.54-2.52,4.48-7.25,6.94" style="fill:none;stroke:#999;stroke-width:3" />
<path d="M1164.82,36.08c0.56,0.37,1.05,0.81,1.05,1.38c0,0.77-0.17,2.21-0.17,2.76c0,1.5,1.93,2.12,5.62,2.12c3.33,0,5.79,0,7.2-0.48" style="fill:none;stroke:black;stroke-width:3" />
<circle cx="1164.82" cy="36.08" r="5" stroke-width="0" fill="#FF2A00" opacity="0.7" />
<path d="M1219.28,23.14c0.02,0.66,0.05,1.71-0.05,2.66c-0.58,5.6-3.89,17.89-8.42,25.42" style="fill:none;stroke:#999;stroke-width:3" />
<path d="M1219.5,38.82c0.69,0.11,1.62,0.19,2.68,0.03c5.3-0.83,12.44-2.09,13.23-2.09c0.95,0,1.9,0,2.85,0.16" style="fill:none;stroke:#999;stroke-width:3" />
<path d="M1227.87,11.75c1.09,0.5,1.74,2.25,1.96,3.25c0.22,1,0,77.75-0.22,84" style="fill:none;stroke:#999;stroke-width:3" />
<path d="M1210.5,66.71c1.8,1.06,3.29,1.52,5.09,0.61C1216.65,66.78 1234.51,57.58 1239.0,55" style="fill:none;stroke:#999;stroke-width:3" />
<path d="M1248.06,18.5c1.17,0.47,3.32,0.54,4.49,0.47c12.2-0.78,18.32-1.88,32.64-2.87c1.95-0.14,3.12,0.22,4.1,0.46" style="fill:none;stroke:#999;stroke-width:3" />
<path d="M1266.8400000000001,10c0.74,0.33,1.18,1.48,1.33,2.13c0.15,0.66,0,10.16-0.15,14.26" style="fill:none;stroke:#999;stroke-width:3" />
<path d="M1252.6599999999999,28.68c0.87,0.3,2.45,0.33,3.31,0.3C1263.0,28.75 1274.0,27 1282.49,26.36c1.44-0.11,2.31,0.14,3.03,0.3" style="fill:none;stroke:#999;stroke-width:3" />
<path d="M1244.92,36.18c0.24,0.28,0.48,0.51,0.59,0.86c0.82,2.75,3.31,10.34,3.88,15.29" style="fill:none;stroke:#999;stroke-width:3" />
<path d="M1246.4,38.05c5.24-1.08,43.34-4.51,46.13-4.87c1.02-0.13,2.4,0.93,2.12,2.48c-0.57,3.23-2.15,8.35-4.09,13.88" style="fill:none;stroke:#999;stroke-width:3" />
<path d="M1262.9,39.06c0.04,0.2,0.04,0.51-0.08,0.8c-1.11,2.54-2.52,4.48-7.25,6.94" style="fill:none;stroke:#999;stroke-width:3" />
<path d="M1273.82,36.08c0.56,0.37,1.05,0.81,1.05,1.38c0,0.77-0.17,2.21-0.17,2.76c0,1.5,1.93,2.12,5.62,2.12c3.33,0,5.79,0,7.2-0.48" style="fill:none;stroke:#999;stroke-width:3" />
<path d="M1250.13,50.83c3.27-0.41,36.32-3.02,40.81-3.65" style="fill:none;stroke:black;stroke-width:3" />
<circle cx="1250.13" cy="50.83" r="5" stroke-width="0" fill="#FF2A00" opacity="0.7" />
<path d="M1328.28,23.14c0.02,0.66,0.05,1.71-0.05,2.66c-0.58,5.6-3.89,17.89-8.42,25.42" style="fill:none;stroke:#999;stroke-width:3" />
<path d="M1328.5,38.82c0.69,0.11,1.62,0.19,2.68,0.03c5.3-0.83,12.44-2.09,13.23-2.09c0.95,0,1.9,0,2.85,0.16" style="fill:none;stroke:#999;stroke-width:3" />
<path d="M1336.87,11.75c1.09,0.5,1.74,2.25,1.96,3.25c0.22,1,0,77.75-0.22,84" style="fill:none;stroke:#999;stroke-width:3" />
<path d="M1319.5,66.71c1.8,1.06,3.29,1.52,5.09,0.61C1325.65,66.78 1343.51,57.58 1348.0,55" style="fill:none;stroke:#999;stroke-width:3" />
<path d="M1357.06,18.5c1.17,0.47,3.32,0.54,4.49,0.47c12.2-0.78,18.32-1.88,32.64-2.87c1.95-0.14,3.12,0.22,4.1,0.46" style="fill:none;stroke:#999;stroke-width:3" />
<path d="M1375.8400000000001,10c0.74,0.33,1.18,1.48,1.33,2.13c0.15,0.66,0,10.16-0.15,14.26" style="fill:none;stroke:#999;stroke-width:3" />
<path d="M1361.6599999999999,28.68c0.87,0.3,2.45,0.33,3.31,0.3C1372.0,28.75 1383.0,27 1391.49,26.36c1.44-0.11,2.31,0.14,3.03,0.3" style="fill:none;stroke:#999;stroke-width:3" />
<path d="M1353.92,36.18c0.24,0.28,0.48,0.51,0.59,0.86c0.82,2.75,3.31,10.34,3.88,15.29" style="fill:none;stroke:#999;stroke-width:3" />
<path d="M1355.4,38.05c5.24-1.08,43.34-4.51,46.13-4.87c1.02-0.13,2.4,0.93,2.12,2.48c-0.57,3.23-2.15,8.35-4.09,13.88" style="fill:none;stroke:#999;stroke-width:3" />
<path d="M1371.9,39.06c0.04,0.2,0.04,0.51-0.08,0.8c-1.11,2.54-2.52,4.48-7.25,6.94" style="fill:none;stroke:#999;stroke-width:3" />
<path d="M1382.82,36.08c0.56,0.37,1.05,0.81,1.05,1.38c0,0.77-0.17,2.21-0.17,2.76c0,1.5,1.93,2.12,5.62,2.12c3.33,0,5.79,0,7.2-0.48" style="fill:none;stroke:#999;stroke-width:3" />
<path d="M1359.13,50.83c3.27-0.41,36.32-3.02,40.81-3.65" style="fill:none;stroke:#999;stroke-width:3" />
<path d="M1362.29,56.57c0.5,1.09,1.22,1.9,1.22,3.35s0.23,22.63-0.36,28.72" style="fill:none;stroke:black;stroke-width:3" />
<circle cx="1362.29" cy="56.57" r="5" stroke-width="0" fill="#FF2A00" opacity="0.7" />
<path d="M1437.28,23.14c0.02,0.66,0.05,1.71-0.05,2.66c-0.58,5.6-3.89,17.89-8.42,25.42" style="fill:none;stroke:#999;stroke-width:3" />
<path d="M1437.5,38.82c0.69,0.11,1.62,0.19,2.68,0.03c5.3-0.83,12.44-2.09,13.23-2.09c0.95,0,1.9,0,2.85,0.16" style="fill:none;stroke:#999;stroke-width:3" />
<path d="M1445.87,11.75c1.09,0.5,1.74,2.25,1.96,3.25c0.22,1,0,77.75-0.22,84" style="fill:none;stroke:#999;stroke-width:3" />
<path d="M1428.5,66.71c1.8,1.06,3.29,1.52,5.09,0.61C1434.65,66.78 1452.51,57.58 1457.0,55" style="fill:none;stroke:#999;stroke-width:3" />
<path d="M1466.06,18.5c1.17,0.47,3.32,0.54,4.49,0.47c12.2-0.78,18.32-1.88,32.64-2.87c1.95-0.14,3.12,0.22,4.1,0.46" style="fill:none;stroke:#999;stroke-width:3" />
<path d="M1484.8400000000001,10c0.74,0.33,1.18,1.48,1.33,2.13c0.15,0.66,0,10.16-0.15,14.26" style="fill:none;stroke:#999;stroke-width:3" />
<path d="M1470.6599999999999,28.68c0.87,0.3,2.45,0.33,3.31,0.3C1481.0,28.75 1492.0,27 1500.49,26.36c1.44-0.11,2.31,0.14,3.03,0.3" style="fill:none;stroke:#999;stroke-width:3" />
<path d="M1462.92,36.18c0.24,0.28,0.48,0.51,0.59,0.86c0.82,2.75,3.31,10.34,3.88,15.29" style="fill:none;stroke:#999;stroke-width:3" />
<path d="M1464.4,38.05c5.24-1.08,43.34-4.51,46.13-4.87c1.02-0.13,2.4,0.93,2.12,2.48c-0.57,3.23-2.15,8.35-4.09,13.88" style="fill:none;stroke:#999;stroke-width:3" />
<path d="M1480.9,39.06c0.04,0.2,0.04,0.51-0.08,0.8c-1.11,2.54-2.52,4.48-7.25,6.94" style="fill:none;stroke:#999;stroke-width:3" />
<path d="M1491.82,36.08c0.56,0.37,1.05,0.81,1.05,1.38c0,0.77-0.17,2.21-0.17,2.76c0,1.5,1.93,2.12,5.62,2.12c3.33,0,5.79,0,7.2-0.48" style="fill:none;stroke:#999;stroke-width:3" />
<path d="M1468.13,50.83c3.27-0.41,36.32-3.02,40.81-3.65" style="fill:none;stroke:#999;stroke-width:3" />
<path d="M1471.29,56.57c0.5,1.09,1.22,1.9,1.22,3.35s0.23,22.63-0.36,28.72" style="fill:none;stroke:#999;stroke-width:3" />
<path d="M1473.35,58.74c2.82-0.18,25.8-2.43,28.38-2.64c2.14-0.18,3.28,0.97,3.28,2.28c0,3.21-0.63,26.56-0.63,27.61" style="fill:none;stroke:black;stroke-width:3" />
<circle cx="1473.35" cy="58.74" r="5" stroke-width="0" fill="#FF2A00" opacity="0.7" />
<path d="M1546.28,23.14c0.02,0.66,0.05,1.71-0.05,2.66c-0.58,5.6-3.89,17.89-8.42,25.42" style="fill:none;stroke:#999;stroke-width:3" />
<path d="M1546.5,38.82c0.69,0.11,1.62,0.19,2.68,0.03c5.3-0.83,12.44-2.09,13.23-2.09c0.95,0,1.9,0,2.85,0.16" style="fill:none;stroke:#999;stroke-width:3" />
<path d="M1554.87,11.75c1.09,0.5,1.74,2.25,1.96,3.25c0.22,1,0,77.75-0.22,84" style="fill:none;stroke:#999;stroke-width:3" />
<path d="M1537.5,66.71c1.8,1.06,3.29,1.52,5.09,0.61C1543.65,66.78 1561.51,57.58 1566.0,55" style="fill:none;stroke:#999;stroke-width:3" />
<path d="M1575.06,18.5c1.17,0.47,3.32,0.54,4.49,0.47c12.2-0.78,18.32-1.88,32.64-2.87c1.95-0.14,3.12,0.22,4.1,0.46" style="fill:none;stroke:#999;stroke-width:3" />
<path d="M1593.8400000000001,10c0.74,0.33,1.18,1.48,1.33,2.13c0.15,0.66,0,10.16-0.15,14.26" style="fill:none;stroke:#999;stroke-width:3" />
<path d="M1579.6599999999999,28.68c0.87,0.3,2.45,0.33,3.31,0.3C1590.0,28.75 1601.0,27 1609.49,26.36c1.44-0.11,2.31,0.14,3.03,0.3" style="fill:none;stroke:#999;stroke-width:3" />
<path d="M1571.92,36.18c0.24,0.28,0.48,0.51,0.59,0.86c0.82,2.75,3.31,10.34,3.88,15.29" style="fill:none;stroke:#999;stroke-width:3" />
<path d="M1573.4,38.05c5.24-1.08,43.34-4.51,46.13-4.87c1.02-0.13,2.4,0.93,2.12,2.48c-0.57,3.23-2.15,8.35-4.09,13.88" style="fill:none;stroke:#999;stroke-width:3" />
<path d="M1589.9,39.06c0.04,0.2,0.04,0.51-0.08,0.8c-1.11,2.54-2.52,4.48-7.25,6.94" style="fill:none;stroke:#999;stroke-width:3" />
<path d="M1600.82,36.08c0.56,0.37,1.05,0.81,1.05,1.38c0,0.77-0.17,2.21-0.17,2.76c0,1.5,1.93,2.12,5.62,2.12c3.33,0,5.79,0,7.2-0.48" style="fill:none;stroke:#999;stroke-width:3" />
<path d="M1577.13,50.83c3.27-0.41,36.32-3.02,40.81-3.65" style="fill:none;stroke:#999;stroke-width:3" />
<path d="M1580.29,56.57c0.5,1.09,1.22,1.9,1.22,3.35s0.23,22.63-0.36,28.72" style="fill:none;stroke:#999;stroke-width:3" />
<path d="M1582.35,58.74c2.82-0.18,25.8-2.43,28.38-2.64c2.14-0.18,3.28,0.97,3.28,2.28c0,3.21-0.63,26.56-0.63,27.61" style="fill:none;stroke:#999;stroke-width:3" />
<path d="M1582.07,67.73c5.27-0.4,26.71-2.37,31.23-2.37" style="fill:none;stroke:black;stroke-width:3" />
<circle cx="1582.07" cy="67.73" r="5" stroke-width="0" fill="#FF2A00" opacity="0.7" />
<path d="M1655.28,23.14c0.02,0.66,0.05,1.71-0.05,2.66c-0.58,5.6-3.89,17.89-8.42,25.42" style="fill:none;stroke:#999;stroke-width:3" />
<path d="M1655.5,38.82c0.69,0.11,1.62,0.19,2.68,0.03c5.3-0.83,12.44-2.09,13.23-2.09c0.95,0,1.9,0,2.85,0.16" style="fill:none;stroke:#999;stroke-width:3" />
<path d="M1663.87,11.75c1.09,0.5,1.74,2.25,1.96,3.25c0.22,1,0,77.75-0.22,84" style="fill:none;stroke:#999;stroke-width:3" />
<path d="M1646.5,66.71c1.8,1.06,3.29,1.52,5.09,0.61C1652.65,66.78 1670.51,57.58 1675.0,55" style="fill:none;stroke:#999;stroke-width:3" />
<path d="M1684.06,18.5c1.17,0.47,3.32,0.54,4.49,0.47c12.2-0.78,18.32-1.88,32.64-2.87c1.95-0.14,3.12,0.22,4.1,0.46" style="fill:none;stroke:#999;stroke-width:3" />
<path d="M1702.8400000000001,10c0.74,0.33,1.18,1.48,1.33,2.13c0.15,0.66,0,10.16-0.15,14.26" style="fill:none;stroke:#999;stroke-width:3" />
<path d="M1688.6599999999999,28.68c0.87,0.3,2.45,0.33,3.31,0.3C1699.0,28.75 1710.0,27 1718.49,26.36c1.44-0.11,2.31,0.14,3.03,0.3" style="fill:none;stroke:#999;stroke-width:3" />
<path d="M1680.92,36.18c0.24,0.28,0.48,0.51,0.59,0.86c0.82,2.75,3.31,10.34,3.88,15.29" style="fill:none;stroke:#999;stroke-width:3" />
<path d="M1682.4,38.05c5.24-1.08,43.34-4.51,46.13-4.87c1.02-0.13,2.4,0.93,2.12,2.48c-0.57,3.23-2.15,8.35-4.09,13.88" style="fill:none;stroke:#999;stroke-width:3" />
<path d="M1698.9,39.06c0.04,0.2,0.04,0.51-0.08,0.8c-1.11,2.54-2.52,4.48-7.25,6.94" style="fill:none;stroke:#999;stroke-width:3" />
<path d="M1709.82,36.08c0.56,0.37,1.05,0.81,1.05,1.38c0,0.77-0.17,2.21-0.17,2.76c0,1.5,1.93,2.12,5.62,2.12c3.33,0,5.79,0,7.2-0.48" style="fill:none;stroke:#999;stroke-width:3" />
<path d="M1686.13,50.83c3.27-0.41,36.32-3.02,40.81-3.65" style="fill:none;stroke:#999;stroke-width:3" />
<path d="M1689.29,56.57c0.5,1.09,1.22,1.9,1.22,3.35s0.23,22.63-0.36,28.72" style="fill:none;stroke:#999;stroke-width:3" />
<path d="M1691.35,58.74c2.82-0.18,25.8-2.43,28.38-2.64c2.14-0.18,3.28,0.97,3.28,2.28c0,3.21-0.63,26.56-0.63,27.61" style="fill:none;stroke:#999;stroke-width:3" />
<path d="M1691.07,67.73c5.27-0.4,26.71-2.37,31.23-2.37" style="fill:none;stroke:#999;stroke-width:3" />
<path d="M1690.8,77.17c7.95-0.77,23.1-1.86,31.54-2.01" style="fill:none;stroke:black;stroke-width:3" />
<circle cx="1690.8" cy="77.17" r="5" stroke-width="0" fill="#FF2A00" opacity="0.7" />
<path d="M1764.28,23.14c0.02,0.66,0.05,1.71-0.05,2.66c-0.58,5.6-3.89,17.89-8.42,25.42" style="fill:none;stroke:#999;stroke-width:3" />
<path d="M1764.5,38.82c0.69,0.11,1.62,0.19,2.68,0.03c5.3-0.83,12.44-2.09,13.23-2.09c0.95,0,1.9,0,2.85,0.16" style="fill:none;stroke:#999;stroke-width:3" />
<path d="M1772.87,11.75c1.09,0.5,1.74,2.25,1.96,3.25c0.22,1,0,77.75-0.22,84" style="fill:none;stroke:#999;stroke-width:3" />
<path d="M1755.5,66.71c1.8,1.06,3.29,1.52,5.09,0.61C1761.65,66.78 1779.51,57.58 1784.0,55" style="fill:none;stroke:#999;stroke-width:3" />
<path d="M1793.06,18.5c1.17,0.47,3.32,0.54,4.49,0.47c12.2-0.78,18.32-1.88,32.64-2.87c1.95-0.14,3.12,0.22,4.1,0.46" style="fill:none;stroke:#999;stroke-width:3" />
<path d="M1811.8400000000001,10c0.74,0.33,1.18,1.48,1.33,2.13c0.15,0.66,0,10.16-0.15,14.26" style="fill:none;stroke:#999;stroke-width:3" />
<path d="M1797.6599999999999,28.68c0.87,0.3,2.45,0.33,3.31,0.3C1808.0,28.75 1819.0,27 1827.49,26.36c1.44-0.11,2.31,0.14,3.03,0.3" style="fill:none;stroke:#999;stroke-width:3" />
<path d="M1789.92,36.18c0.24,0.28,0.48,0.51,0.59,0.86c0.82,2.75,3.31,10.34,3.88,15.29" style="fill:none;stroke:#999;stroke-width:3" />
<path d="M1791.4,38.05c5.24-1.08,43.34-4.51,46.13-4.87c1.02-0.13,2.4,0.93,2.12,2.48c-0.57,3.23-2.15,8.35-4.09,13.88" style="fill:none;stroke:#999;stroke-width:3" />
<path d="M1807.9,39.06c0.04,0.2,0.04,0.51-0.08,0.8c-1.11,2.54-2.52,4.48-7.25,6.94" style="fill:none;stroke:#999;stroke-width:3" />
<path d="M1818.82,36.08c0.56,0.37,1.05,0.81,1.05,1.38c0,0.77-0.17,2.21-0.17,2.76c0,1.5,1.93,2.12,5.62,2.12c3.33,0,5.79,0,7.2-0.48" style="fill:none;stroke:#999;stroke-width:3" />
<path d="M1795.13,50.83c3.27-0.41,36.32-3.02,40.81-3.65" style="fill:none;stroke:#999;stroke-width:3" />
<path d="M1798.29,56.57c0.5,1.09,1.22,1.9,1.22,3.35s0.23,22.63-0.36,28.72" style="fill:none;stroke:#999;stroke-width:3" />
<path d="M1800.35,58.74c2.82-0.18,25.8-2.43,28.38-2.64c2.14-0.18,3.28,0.97,3.28,2.28c0,3.21-0.63,26.56-0.63,27.61" style="fill:none;stroke:#999;stroke-width:3" />
<path d="M1800.07,67.73c5.27-0.4,26.71-2.37,31.23-2.37" style="fill:none;stroke:#999;stroke-width:3" />
<path d="M1799.8,77.17c7.95-0.77,23.1-1.86,31.54-2.01" style="fill:none;stroke:#999;stroke-width:3" />
<path d="M1799.44,86.3c7.96-0.58,24.65-1.62,31.9-1.62" style="fill:none;stroke:black;stroke-width:3" />
<circle cx="1799.44" cy="86.3" r="5" stroke-width="0" fill="#FF2A00" opacity="0.7" />
<path d="M1873.28,23.14c0.02,0.66,0.05,1.71-0.05,2.66c-0.58,5.6-3.89,17.89-8.42,25.42" style="fill:none;stroke:#999;stroke-width:3" />
<path d="M1873.5,38.82c0.69,0.11,1.62,0.19,2.68,0.03c5.3-0.83,12.44-2.09,13.23-2.09c0.95,0,1.9,0,2.85,0.16" style="fill:none;stroke:#999;stroke-width:3" />
<path d="M1881.87,11.75c1.09,0.5,1.74,2.25,1.96,3.25c0.22,1,0,77.75-0.22,84" style="fill:none;stroke:#999;stroke-width:3" />
<path d="M1864.5,66.71c1.8,1.06,3.29,1.52,5.09,0.61C1870.65,66.78 1888.51,57.58 1893.0,55" style="fill:none;stroke:#999;stroke-width:3" />
<path d="M1902.06,18.5c1.17,0.47,3.32,0.54,4.49,0.47c12.2-0.78,18.32-1.88,32.64-2.87c1.95-0.14,3.12,0.22,4.1,0.46" style="fill:none;stroke:#999;stroke-width:3" />
<path d="M1920.8400000000001,10c0.74,0.33,1.18,1.48,1.33,2.13c0.15,0.66,0,10.16-0.15,14.26" style="fill:none;stroke:#999;stroke-width:3" />
<path d="M1906.6599999999999,28.68c0.87,0.3,2.45,0.33,3.31,0.3C1917.0,28.75 1928.0,27 1936.49,26.36c1.44-0.11,2.31,0.14,3.03,0.3" style="fill:none;stroke:#999;stroke-width:3" />
<path d="M1898.92,36.18c0.24,0.28,0.48,0.51,0.59,0.86c0.82,2.75,3.31,10.34,3.88,15.29" style="fill:none;stroke:#999;stroke-width:3" />
<path d="M1900.4,38.05c5.24-1.08,43.34-4.51,46.13-4.87c1.02-0.13,2.4,0.93,2.12,2.48c-0.57,3.23-2.15,8.35-4.09,13.88" style="fill:none;stroke:#999;stroke-width:3" />
<path d="M1916.9,39.06c0.04,0.2,0.04,0.51-0.08,0.8c-1.11,2.54-2.52,4.48-7.25,6.94" style="fill:none;stroke:#999;stroke-width:3" />
<path d="M1927.82,36.08c0.56,0.37,1.05,0.81,1.05,1.38c0,0.77-0.17,2.21-0.17,2.76c0,1.5,1.93,2.12,5.62,2.12c3.33,0,5.79,0,7.2-0.48" style="fill:none;stroke:#999;stroke-width:3" />
<path d="M1904.13,50.83c3.27-0.41,36.32-3.02,40.81-3.65" style="fill:none;stroke:#999;stroke-width:3" />
<path d="M1907.29,56.57c0.5,1.09,1.22,1.9,1.22,3.35s0.23,22.63-0.36,28.72" style="fill:none;stroke:#999;stroke-width:3" />
<path d="M1909.35,58.74c2.82-0.18,25.8-2.43,28.38-2.64c2.14-0.18,3.28,0.97,3.28,2.28c0,3.21-0.63,26.56-0.63,27.61" style="fill:none;stroke:#999;stroke-width:3" />
<path d="M1909.07,67.73c5.27-0.4,26.71-2.37,31.23-2.37" style="fill:none;stroke:#999;stroke-width:3" />
<path d="M1908.8,77.17c7.95-0.77,23.1-1.86,31.54-2.01" style="fill:none;stroke:#999;stroke-width:3" />
<path d="M1908.44,86.3c7.96-0.58,24.65-1.62,31.9-1.62" style="fill:none;stroke:#999;stroke-width:3" />
<path d="M1915.79,89.76c0.46,0.94-0.34,1.86-1.25,2.55c-2.72,2.07-9.88,6.49-15.33,8.93" style="fill:none;stroke:black;stroke-width:3" />
<circle cx="1915.79" cy="89.76" r="5" stroke-width="0" fill="#FF2A00" opacity="0.7" />
<path d="M1982.28,23.14c0.02,0.66,0.05,1.71-0.05,2.66c-0.58,5.6-3.89,17.89-8.42,25.42" style="fill:none;stroke:#999;stroke-width:3" />
<path d="M1982.5,38.82c0.69,0.11,1.62,0.19,2.68,0.03c5.3-0.83,12.44-2.09,13.23-2.09c0.95,0,1.9,0,2.85,0.16" style="fill:none;stroke:#999;stroke-width:3" />
<path d="M1990.87,11.75c1.09,0.5,1.74,2.25,1.96,3.25c0.22,1,0,77.75-0.22,84" style="fill:none;stroke:#999;stroke-width:3" />
<path d="M1973.5,66.71c1.8,1.06,3.29,1.52,5.09,0.61C1979.65,66.78 1997.51,57.58 2002.0,55" style="fill:none;stroke:#999;stroke-width:3" />
<path d="M2011.06,18.5c1.17,0.47,3.32,0.54,4.49,0.47c12.2-0.78,18.32-1.88,32.64-2.87c1.95-0.14,3.12,0.22,4.1,0.46" style="fill:none;stroke:#999;stroke-width:3" />
<path d="M2029.8400000000001,10c0.74,0.33,1.18,1.48,1.33,2.13c0.15,0.66,0,10.16-0.15,14.26" style="fill:none;stroke:#999;stroke-width:3" />
<path d="M2015.6599999999999,28.68c0.87,0.3,2.45,0.33,3.31,0.3C2026.0,28.75 2037.0,27 2045.49,26.36c1.44-0.11,2.31,0.14,3.03,0.3" style="fill:none;stroke:#999;stroke-width:3" />
<path d="M2007.92,36.18c0.24,0.28,0.48,0.51,0.59,0.86c0.82,2.75,3.31,10.34,3.88,15.29" style="fill:none;stroke:#999;stroke-width:3" />
<path d="M2009.4,38.05c5.24-1.08,43.34-4.51,46.13-4.87c1.02-0.13,2.4,0.93,2.12,2.48c-0.57,3.23-2.15,8.35-4.09,13.88" style="fill:none;stroke:#999;stroke-width:3" />
<path d="M2025.9,39.06c0.04,0.2,0.04,0.51-0.08,0.8c-1.11,2.54-2.52,4.48-7.25,6.94" style="fill:none;stroke:#999;stroke-width:3" />
<path d="M2036.82,36.08c0.56,0.37,1.05,0.81,1.05,1.38c0,0.77-0.17,2.21-0.17,2.76c0,1.5,1.93,2.12,5.62,2.12c3.33,0,5.79,0,7.2-0.48" style="fill:none;stroke:#999;stroke-width:3" />
<path d="M2013.13,50.83c3.27-0.41,36.32-3.02,40.81-3.65" style="fill:none;stroke:#999;stroke-width:3" />
<path d="M2016.29,56.57c0.5,1.09,1.22,1.9,1.22,3.35s0.23,22.63-0.36,28.72" style="fill:none;stroke:#999;stroke-width:3" />
<path d="M2018.35,58.74c2.82-0.18,25.8-2.43,28.38-2.64c2.14-0.18,3.28,0.97,3.28,2.28c0,3.21-0.63,26.56-0.63,27.61" style="fill:none;stroke:#999;stroke-width:3" />
<path d="M2018.07,67.73c5.27-0.4,26.71-2.37,31.23-2.37" style="fill:none;stroke:#999;stroke-width:3" />
<path d="M2017.8,77.17c7.95-0.77,23.1-1.86,31.54-2.01" style="fill:none;stroke:#999;stroke-width:3" />
<path d="M2017.44,86.3c7.96-0.58,24.65-1.62,31.9-1.62" style="fill:none;stroke:#999;stroke-width:3" />
<path d="M2024.79,89.76c0.46,0.94-0.34,1.86-1.25,2.55c-2.72,2.07-9.88,6.49-15.33,8.93" style="fill:none;stroke:#999;stroke-width:3" />
<path d="M2040.94,90.36c6.55,2.22,13.18,7.01,14.83,9.19" style="fill:none;stroke:black;stroke-width:3" />
<circle cx="2040.94" cy="90.36" r="5" stroke-width="0" fill="#FF2A00" opacity="0.7" />
</svg>