<!-- 072d7 -->
<svg width="872px" height="109px" viewBox="0 0 872px 109px" xmlns="http://www.w3.org/2000/svg" xmlns:xlink="http://www.w3.org/1999/xlink" xml:space="preserve" version="1.1"  baseProfile="full">
<line x1="1" y1="1" x2="871" y2="1" style="stroke:#ddd;stroke-width:2" />
<line x1="1" y1="1" x2="1" y2="108" style="stroke:#ddd;stroke-width:2" />
<line x1="1" y1="108" x2="871" y2="108" style="stroke:#ddd;stroke-width:2" />
<line x1="871" y1="1" x2="871" y2="108" style="stroke:#ddd;stroke-width:2" />
<line x1="109" y1="1" x2="109" y2="108" style="stroke:#ddd;stroke-width:2" />
<line x1="218" y1="1" x2="218" y2="108" style="stroke:#ddd;stroke-width:2" />
<line x1="327" y1="1" x2="327" y2="108" style="stroke:#ddd;stroke-width:2" />
<line x1="436" y1="1" x2="436" y2="108" style="stroke:#ddd;stroke-width:2" />
<line x1="545" y1="1" x2="545" y2="108" style="stroke:#ddd;stroke-width:2" />
<line x1="654" y1="1" x2="654" y2="108" style="stroke:#ddd;stroke-width:2" />
<line x1="763" y1="1" x2="763" y2="108" style="stroke:#ddd;stroke-width:2" />
<line x1="1" y1="54" x2="871" y2="54" style="stroke:#ddd;stroke-width:2;stroke-dasharray:3 3" />
<line x1="55" y1="1" x2="55" y2="108" style="stroke:#ddd;stroke-width:2;stroke-dasharray:3 3" />
<line x1="164" y1="1" x2="164" y2="108" style="stroke:#ddd;stroke-width:2;stroke-dasharray:3 3" />
<line x1="273" y1="1" x2="273" y2="108" style="stroke:#ddd;stroke-width:2;stroke-dasharray:3 3" />
<line x1="382" y1="1" x2="382" y2="108" style="stroke:#ddd;stroke-width:2;stroke-dasharray:3 3" />
<line x1="491" y1="1" x2="491" y2="108" style="stroke:#ddd;stroke-width:2;stroke-dasharray:3 3" />
<line x1="600" y1="1" x2="600" y2="108" style="stroke:#ddd;stroke-width:2;stroke-dasharray:3 3" />
<line x1="709" y1="1" x2="709" y2="108" style="stroke:#ddd;stroke-width:2;stroke-dasharray:3 3" />
<line x1="818" y1="1" x2="818" y2="108" style="stroke:#ddd;stroke-width:2;stroke-dasharray:3 3" />
<path d="M40.06,17.5c-0.05,1.29-0.4,2.47-1.09,3.51C33.62,29 29.24,35.51 17.5,45.04" style="fill:none;stroke:black;stroke-width:3" />
<circle cx="40.06" cy="17.5" r="5" stroke-width="0" fill="#FF2A00" opacity="0.7" />
<path d="M149.06,17.5c-0.05,1.29-0.4,2.47-1.09,3.51C142.62,29 138.24,35.51 126.5,45.04" style="fill:none;stroke:#999;stroke-width:3" />
<path d="M130.0,20.5c24.5,18.25,18.5,82.75,3.5,67.5" style="fill:none;stroke:black;stroke-width:3" />
<circle cx="130.0" cy="20.5" r="5" stroke-width="0" fill="#FF2A00" opacity="0.7" />
<path d="M258.06,17.5c-0.05,1.29-0.4,2.47-1.09,3.51C251.62,29 247.24,35.51 235.5,45.04" style="fill:none;stroke:#999;stroke-width:3" />
<path d="M239.0,20.5c24.5,18.25,18.5,82.75,3.5,67.5" style="fill:none;stroke:#999;stroke-width:3" />
<path d="M251.82,47c-0.15,1.24-0.55,2.38-1.19,3.41C246.32,58 241.69,63.63 231.25,72.04" style="fill:none;stroke:black;stroke-width:3" />
<circle cx="251.82" cy="47.0" r="5" stroke-width="0" fill="#FF2A00" opacity="0.7" />
<path d="M367.06,17.5c-0.05,1.29-0.4,2.47-1.09,3.51C360.62,29 356.24,35.51 344.5,45.04" style="fill:none;stroke:#999;stroke-width:3" />
<path d="M348.0,20.5c24.5,18.25,18.5,82.75,3.5,67.5" style="fill:none;stroke:#999;stroke-width:3" />
<path d="M360.82,47c-0.15,1.24-0.55,2.38-1.19,3.41C355.32,58 350.69,63.63 340.25,72.04" style="fill:none;stroke:#999;stroke-width:3" />
<path d="M386.90999999999997,16.4c0,1.1-0.3,2.59-0.92,4.03C382.75,28 377.12,37.38 369.96,46.11" style="fill:none;stroke:black;stroke-width:3" />
<circle cx="386.90999999999997" cy="16.4" r="5" stroke-width="0" fill="#FF2A00" opacity="0.7" />
<path d="M476.06,17.5c-0.05,1.29-0.4,2.47-1.09,3.51C469.62,29 465.24,35.51 453.5,45.04" style="fill:none;stroke:#999;stroke-width:3" />
<path d="M457.0,20.5c24.5,18.25,18.5,82.75,3.5,67.5" style="fill:none;stroke:#999;stroke-width:3" />
<path d="M469.82,47c-0.15,1.24-0.55,2.38-1.19,3.41C464.32,58 459.69,63.63 449.25,72.04" style="fill:none;stroke:#999;stroke-width:3" />
<path d="M495.90999999999997,16.4c0,1.1-0.3,2.59-0.92,4.03C491.75,28 486.12,37.38 478.96,46.11" style="fill:none;stroke:#999;stroke-width:3" />
<path d="M492.18,31.78c2.95,0.85,4.92,0.91,7.46,0.4c7.12-1.43,16.24-3.05,23.01-4.45c3.46-0.71,5.08,0.99,4.89,4.68c-0.67,13.6-3.25,35.7-8.9,53.26c-1.78,5.55-5.16,9.31-9.66,2.12" style="fill:none;stroke:black;stroke-width:3" />
<circle cx="492.18" cy="31.78" r="5" stroke-width="0" fill="#FF2A00" opacity="0.7" />
<path d="M585.06,17.5c-0.05,1.29-0.4,2.47-1.09,3.51C578.62,29 574.24,35.51 562.5,45.04" style="fill:none;stroke:#999;stroke-width:3" />
<path d="M566.0,20.5c24.5,18.25,18.5,82.75,3.5,67.5" style="fill:none;stroke:#999;stroke-width:3" />
<path d="M578.8199999999999,47c-0.15,1.24-0.55,2.38-1.19,3.41C573.3199999999999,58 568.69,63.63 558.25,72.04" style="fill:none;stroke:#999;stroke-width:3" />
<path d="M604.91,16.4c0,1.1-0.3,2.59-0.92,4.03C600.75,28 595.12,37.38 587.96,46.11" style="fill:none;stroke:#999;stroke-width:3" />
<path d="M601.1800000000001,31.78c2.95,0.85,4.92,0.91,7.46,0.4c7.12-1.43,16.24-3.05,23.01-4.45c3.46-0.71,5.08,0.99,4.89,4.68c-0.67,13.6-3.25,35.7-8.9,53.26c-1.78,5.55-5.16,9.31-9.66,2.12" style="fill:none;stroke:#999;stroke-width:3" />
<path d="M594.76,50.52c0.73,0.74,0.97,1.66,1.15,2.72c0.74,4.15,1.59,9,2.25,13.13c0.31,1.97,0.58,3.77,0.76,5.25" style="fill:none;stroke:black;stroke-width:3" />
<circle cx="594.76" cy="50.52" r="5" stroke-width="0" fill="#FF2A00" opacity="0.7" />
<path d="M694.06,17.5c-0.05,1.29-0.4,2.47-1.09,3.51C687.62,29 683.24,35.51 671.5,45.04" style="fill:none;stroke:#999;stroke-width:3" />
<path d="M675.0,20.5c24.5,18.25,18.5,82.75,3.5,67.5" style="fill:none;stroke:#999;stroke-width:3" />
<path d="M687.8199999999999,47c-0.15,1.24-0.55,2.38-1.19,3.41C682.3199999999999,58 677.69,63.63 667.25,72.04" style="fill:none;stroke:#999;stroke-width:3" />
<path d="M713.91,16.4c0,1.1-0.3,2.59-0.92,4.03C709.75,28 704.12,37.38 696.96,46.11" style="fill:none;stroke:#999;stroke-width:3" />
<path d="M710.1800000000001,31.78c2.95,0.85,4.92,0.91,7.46,0.4c7.12-1.43,16.24-3.05,23.01-4.45c3.46-0.71,5.08,0.99,4.89,4.68c-0.67,13.6-3.25,35.7-8.9,53.26c-1.78,5.55-5.16,9.31-9.66,2.12" style="fill:none;stroke:#999;stroke-width:3" />
<path d="M703.76,50.52c0.73,0.74,0.97,1.66,1.15,2.72c0.74,4.15,1.59,9,2.25,13.13c0.31,1.97,0.58,3.77,0.76,5.25" style="fill:none;stroke:#999;stroke-width:3" />
<path d="M705.75,51.5c6.88-1.18,12.25-2.12,16.11-2.65c2.21-0.3,4.12,0.6,3.65,3.18c-0.7,3.81-1.46,8.53-2.47,14.4" style="fill:none;stroke:black;stroke-width:3" />
<circle cx="705.75" cy="51.5" r="5" stroke-width="0" fill="#FF2A00" opacity="0.7" />
<path d="M803.06,17.5c-0.05,1.29-0.4,2.47-1.09,3.51C796.62,29 792.24,35.51 780.5,45.04" style="fill:none;stroke:#999;stroke-width:3" />
<path d="M784.0,20.5c24.5,18.25,18.5,82.75,3.5,67.5" style="fill:none;stroke:#999;stroke-width:3" />
<path d="M796.8199999999999,47c-0.15,1.24-0.55,2.38-1.19,3.41C791.3199999999999,58 786.69,63.63 776.25,72.04" style="fill:none;stroke:#999;stroke-width:3" />
<path d="M822.91,16.4c0,1.1-0.3,2.59-0.92,4.03C818.75,28 813.12,37.38 805.96,46.11" style="fill:none;stroke:#999;stroke-width:3" />
<path d="M819.1800000000001,31.78c2.95,0.85,4.92,0.91,7.46,0.4c7.12-1.43,16.24-3.05,23.01-4.45c3.46-0.71,5.08,0.99,4.89,4.68c-0.67,13.6-3.25,35.7-8.9,53.26c-1.78,5.55-5.16,9.31-9.66,2.12" style="fill:none;stroke:#999;stroke-width:3" />
<path d="M812.76,50.52c0.73,0.74,0.97,1.66,1.15,2.72c0.74,4.15,1.59,9,2.25,13.13c0.31,1.97,0.58,3.77,0.76,5.25" style="fill:none;stroke:#999;stroke-width:3" />
<path d="M814.75,51.5c6.88-1.18,12.25-2.12,16.11-2.65c2.21-0.3,4.12,0.6,3.65,3.18c-0.7,3.81-1.46,8.53-2.47,14.4" style="fill:none;stroke:#999;stroke-width:3" />
<path d="M817.74,68.94c3.49-0.38,7.27-0.97,11.65-1.57c1.37-0.19,2.81-0.38,4.31-0.56" style="fill:none;stroke:black;stroke-width:3" />
<circle cx="817.74" cy="68.94" r="5" stroke-width="0" fill="#FF2A00" opacity="0.7" />
</svg>