<!-- 0731f -->
<svg width="1199px" height="109px" viewBox="0 0 1199px 109px" xmlns="http://www.w3.org/2000/svg" xmlns:xlink="http://www.w3.org/1999/xlink" xml:space="preserve" version="1.1"  baseProfile="full">
<line x1="1" y1="1" x2="1198" y2="1" style="stroke:#ddd;stroke-width:2" />
<line x1="1" y1="1" x2="1" y2="108" style="stroke:#ddd;stroke-width:2" />
<line x1="1" y1="108" x2="1198" y2="108" style="stroke:#ddd;stroke-width:2" />
<line x1="1198" y1="1" x2="1198" y2="108" style="stroke:#ddd;stroke-width:2" />
<line x1="109" y1="1" x2="109" y2="108" style="stroke:#ddd;stroke-width:2" />
<line x1="218" y1="1" x2="218" y2="108" style="stroke:#ddd;stroke-width:2" />
<line x1="327" y1="1" x2="327" y2="108" style="stroke:#ddd;stroke-width:2" />
<line x1="436" y1="1" x2="436" y2="108" style="stroke:#ddd;stroke-width:2" />
<line x1="545" y1="1" x2="545" y2="108" style="stroke:#ddd;stroke-width:2" />
<line x1="654" y1="1" x2="654" y2="108" style="stroke:#ddd;stroke-width:2" />
<line x1="763" y1="1" x2="763" y2="108" style="stroke:#ddd;stroke-width:2" />
<line x1="872" y1="1" x2="872" y2="108" style="stroke:#ddd;stroke-width:2" />
<line x1="981" y1="1" x2="981" y2="108" style="stroke:#ddd;stroke-width:2" />
<line x1="1090" y1="1" x2="1090" y2="108" style="stroke:#ddd;stroke-width:2" />
<line x1="1" y1="54" x2="1198" y2="54" style="stroke:#ddd;stroke-width:2;stroke-dasharray:3 3" />
<line x1="55" y1="1" x2="55" y2="108" style="stroke:#ddd;stroke-width:2;stroke-dasharray:3 3" />
<line x1="164" y1="1" x2="164" y2="108" style="stroke:#ddd;stroke-width:2;stroke-dasharray:3 3" />
<line x1="273" y1="1" x2="273" y2="108" style="stroke:#ddd;stroke-width:2;stroke-dasharray:3 3" />
<line x1="382" y1="1" x2="382" y2="108" style="stroke:#ddd;stroke-width:2;stroke-dasharray:3 3" />
<line x1="491" y1="1" x2="491" y2="108" style="stroke:#ddd;stroke-width:2;stroke-dasharray:3 3" />
<line x1="600" y1="1" x2="600" y2="108" style="stroke:#ddd;stroke-width:2;stroke-dasharray:3 3" />
<line x1="709" y1="1" x2="709" y2="108" style="stroke:#ddd;stroke-width:2;stroke-dasharray:3 3" />
<line x1="818" y1="1" x2="818" y2="108" style="stroke:#ddd;stroke-width:2;stroke-dasharray:3 3" />
<line x1="927" y1="1" x2="927" y2="108" style="stroke:#ddd;stroke-width:2;stroke-dasharray:3 3" />
<line x1="1036" y1="1" x2="1036" y2="108" style="stroke:#ddd;stroke-width:2;stroke-dasharray:3 3" />
<line x1="1145" y1="1" x2="1145" y2="108" style="stroke:#ddd;stroke-width:2;stroke-dasharray:3 3" />
<path d="M36.06,15.5c-0.06,1.12-0.21,1.99-0.63,2.72c-5.27,9.35-11.55,16.65-23.18,25.57" style="fill:none;stroke:black;stroke-width:3" />
<circle cx="36.06" cy="15.5" r="5" stroke-width="0" fill="#FF2A00" opacity="0.7" />
<path d="M145.06,15.5c-0.06,1.12-0.21,1.99-0.63,2.72c-5.27,9.35-11.55,16.65-23.18,25.57" style="fill:none;stroke:#999;stroke-width:3" />
<path d="M125.25,19.75C155.75,39.38 142.71,104.03 131.0,91" style="fill:none;stroke:black;stroke-width:3" />
<circle cx="125.25" cy="19.75" r="5" stroke-width="0" fill="#FF2A00" opacity="0.7" />
<path d="M254.06,15.5c-0.06,1.12-0.21,1.99-0.63,2.72c-5.27,9.35-11.55,16.65-23.18,25.57" style="fill:none;stroke:#999;stroke-width:3" />
<path d="M234.25,19.75C264.75,39.38 251.71,104.03 240.0,91" style="fill:none;stroke:#999;stroke-width:3" />
<path d="M247.84,47.25c0.07,0.88-0.06,1.89-0.49,2.67C244.0,56 238.25,64.12 230.0,72.29" style="fill:none;stroke:black;stroke-width:3" />
<circle cx="247.84" cy="47.25" r="5" stroke-width="0" fill="#FF2A00" opacity="0.7" />
<path d="M363.06,15.5c-0.06,1.12-0.21,1.99-0.63,2.72c-5.27,9.35-11.55,16.65-23.18,25.57" style="fill:none;stroke:#999;stroke-width:3" />
<path d="M343.25,19.75C373.75,39.38 360.71000000000004,104.03 349.0,91" style="fill:none;stroke:#999;stroke-width:3" />
<path d="M356.84000000000003,47.25c0.07,0.88-0.06,1.89-0.49,2.67C353.0,56 347.25,64.12 339.0,72.29" style="fill:none;stroke:#999;stroke-width:3" />
<path d="M372.17,17.06c3.7,3.82,7.53,11.92,8.05,14.09" style="fill:none;stroke:black;stroke-width:3" />
<circle cx="372.17" cy="17.06" r="5" stroke-width="0" fill="#FF2A00" opacity="0.7" />
<path d="M472.06,15.5c-0.06,1.12-0.21,1.99-0.63,2.72c-5.27,9.35-11.55,16.65-23.18,25.57" style="fill:none;stroke:#999;stroke-width:3" />
<path d="M452.25,19.75C482.75,39.38 469.71000000000004,104.03 458.0,91" style="fill:none;stroke:#999;stroke-width:3" />
<path d="M465.84000000000003,47.25c0.07,0.88-0.06,1.89-0.49,2.67C462.0,56 456.25,64.12 448.0,72.29" style="fill:none;stroke:#999;stroke-width:3" />
<path d="M481.17,17.06c3.7,3.82,7.53,11.92,8.05,14.09" style="fill:none;stroke:#999;stroke-width:3" />
<path d="M496.37,14.39c2.25,2.98,5.04,9.77,5.69,14.16" style="fill:none;stroke:black;stroke-width:3" />
<circle cx="496.37" cy="14.39" r="5" stroke-width="0" fill="#FF2A00" opacity="0.7" />
<path d="M581.06,15.5c-0.06,1.12-0.21,1.99-0.63,2.72c-5.27,9.35-11.55,16.65-23.18,25.57" style="fill:none;stroke:#999;stroke-width:3" />
<path d="M561.25,19.75C591.75,39.38 578.71,104.03 567.0,91" style="fill:none;stroke:#999;stroke-width:3" />
<path d="M574.84,47.25c0.07,0.88-0.06,1.89-0.49,2.67C571.0,56 565.25,64.12 557.0,72.29" style="fill:none;stroke:#999;stroke-width:3" />
<path d="M590.1700000000001,17.06c3.7,3.82,7.53,11.92,8.05,14.09" style="fill:none;stroke:#999;stroke-width:3" />
<path d="M605.37,14.39c2.25,2.98,5.04,9.77,5.69,14.16" style="fill:none;stroke:#999;stroke-width:3" />
<path d="M629.12,13.38c0.26,1.24-0.06,2.09-0.74,3.59c-1.5,3.28-5.5,9.9-8.82,14.14" style="fill:none;stroke:black;stroke-width:3" />
<circle cx="629.12" cy="13.38" r="5" stroke-width="0" fill="#FF2A00" opacity="0.7" />
<path d="M690.06,15.5c-0.06,1.12-0.21,1.99-0.63,2.72c-5.27,9.35-11.55,16.65-23.18,25.57" style="fill:none;stroke:#999;stroke-width:3" />
<path d="M670.25,19.75C700.75,39.38 687.71,104.03 676.0,91" style="fill:none;stroke:#999;stroke-width:3" />
<path d="M683.84,47.25c0.07,0.88-0.06,1.89-0.49,2.67C680.0,56 674.25,64.12 666.0,72.29" style="fill:none;stroke:#999;stroke-width:3" />
<path d="M699.1700000000001,17.06c3.7,3.82,7.53,11.92,8.05,14.09" style="fill:none;stroke:#999;stroke-width:3" />
<path d="M714.37,14.39c2.25,2.98,5.04,9.77,5.69,14.16" style="fill:none;stroke:#999;stroke-width:3" />
<path d="M738.12,13.38c0.26,1.24-0.06,2.09-0.74,3.59c-1.5,3.28-5.5,9.9-8.82,14.14" style="fill:none;stroke:#999;stroke-width:3" />
<path d="M701.05,38.3c0.83,0.83,1.13,2.08,1.19,3.5c1.25,25.83-2.37,40.96-11.5,52.33" style="fill:none;stroke:black;stroke-width:3" />
<circle cx="701.05" cy="38.3" r="5" stroke-width="0" fill="#FF2A00" opacity="0.7" />
<path d="M799.06,15.5c-0.06,1.12-0.21,1.99-0.63,2.72c-5.27,9.35-11.55,16.65-23.18,25.57" style="fill:none;stroke:#999;stroke-width:3" />
<path d="M779.25,19.75C809.75,39.38 796.71,104.03 785.0,91" style="fill:none;stroke:#999;stroke-width:3" />
<path d="M792.84,47.25c0.07,0.88-0.06,1.89-0.49,2.67C789.0,56 783.25,64.12 775.0,72.29" style="fill:none;stroke:#999;stroke-width:3" />
<path d="M808.1700000000001,17.06c3.7,3.82,7.53,11.92,8.05,14.09" style="fill:none;stroke:#999;stroke-width:3" />
<path d="M823.37,14.39c2.25,2.98,5.04,9.77,5.69,14.16" style="fill:none;stroke:#999;stroke-width:3" />
<path d="M847.12,13.38c0.26,1.24-0.06,2.09-0.74,3.59c-1.5,3.28-5.5,9.9-8.82,14.14" style="fill:none;stroke:#999;stroke-width:3" />
<path d="M810.05,38.3c0.83,0.83,1.13,2.08,1.19,3.5c1.25,25.83-2.37,40.96-11.5,52.33" style="fill:none;stroke:#999;stroke-width:3" />
<path d="M812.16,40.42c0.94-0.2,2.07-0.45,3.35-0.66c9.62-1.52,22.37-3.52,26.76-3.92c2.38-0.22,3.81,1.19,3.51,3.72c-2.52,20.93-0.65,40.93,9.01,51.46c7.38,8.04,5.96,2.22,5.21-4.28" style="fill:none;stroke:black;stroke-width:3" />
<circle cx="812.16" cy="40.42" r="5" stroke-width="0" fill="#FF2A00" opacity="0.7" />
<path d="M908.06,15.5c-0.06,1.12-0.21,1.99-0.63,2.72c-5.27,9.35-11.55,16.65-23.18,25.57" style="fill:none;stroke:#999;stroke-width:3" />
<path d="M888.25,19.75C918.75,39.38 905.71,104.03 894.0,91" style="fill:none;stroke:#999;stroke-width:3" />
<path d="M901.84,47.25c0.07,0.88-0.06,1.89-0.49,2.67C898.0,56 892.25,64.12 884.0,72.29" style="fill:none;stroke:#999;stroke-width:3" />
<path d="M917.1700000000001,17.06c3.7,3.82,7.53,11.92,8.05,14.09" style="fill:none;stroke:#999;stroke-width:3" />
<path d="M932.37,14.39c2.25,2.98,5.04,9.77,5.69,14.16" style="fill:none;stroke:#999;stroke-width:3" />
<path d="M956.12,13.38c0.26,1.24-0.06,2.09-0.74,3.59c-1.5,3.28-5.5,9.9-8.82,14.14" style="fill:none;stroke:#999;stroke-width:3" />
<path d="M919.05,38.3c0.83,0.83,1.13,2.08,1.19,3.5c1.25,25.83-2.37,40.96-11.5,52.33" style="fill:none;stroke:#999;stroke-width:3" />
<path d="M921.16,40.42c0.94-0.2,2.07-0.45,3.35-0.66c9.62-1.52,22.37-3.52,26.76-3.92c2.38-0.22,3.81,1.19,3.51,3.72c-2.52,20.93-0.65,40.93,9.01,51.46c7.38,8.04,5.96,2.22,5.21-4.28" style="fill:none;stroke:#999;stroke-width:3" />
<path d="M921.75,54.36c8.6-0.84,20.62-2.48,30.6-2.89" style="fill:none;stroke:black;stroke-width:3" />
<circle cx="921.75" cy="54.36" r="5" stroke-width="0" fill="#FF2A00" opacity="0.7" />
<path d="M1017.06,15.5c-0.06,1.12-0.21,1.99-0.63,2.72c-5.27,9.35-11.55,16.65-23.18,25.57" style="fill:none;stroke:#999;stroke-width:3" />
<path d="M997.25,19.75C1027.75,39.38 1014.71,104.03 1003.0,91" style="fill:none;stroke:#999;stroke-width:3" />
<path d="M1010.84,47.25c0.07,0.88-0.06,1.89-0.49,2.67C1007.0,56 1001.25,64.12 993.0,72.29" style="fill:none;stroke:#999;stroke-width:3" />
<path d="M1026.17,17.06c3.7,3.82,7.53,11.92,8.05,14.09" style="fill:none;stroke:#999;stroke-width:3" />
<path d="M1041.37,14.39c2.25,2.98,5.04,9.77,5.69,14.16" style="fill:none;stroke:#999;stroke-width:3" />
<path d="M1065.12,13.38c0.26,1.24-0.06,2.09-0.74,3.59c-1.5,3.28-5.5,9.9-8.82,14.14" style="fill:none;stroke:#999;stroke-width:3" />
<path d="M1028.05,38.3c0.83,0.83,1.13,2.08,1.19,3.5c1.25,25.83-2.37,40.96-11.5,52.33" style="fill:none;stroke:#999;stroke-width:3" />
<path d="M1030.1599999999999,40.42c0.94-0.2,2.07-0.45,3.35-0.66c9.62-1.52,22.37-3.52,26.76-3.92c2.38-0.22,3.81,1.19,3.51,3.72c-2.52,20.93-0.65,40.93,9.01,51.46c7.38,8.04,5.96,2.22,5.21-4.28" style="fill:none;stroke:#999;stroke-width:3" />
<path d="M1030.75,54.36c8.6-0.84,20.62-2.48,30.6-2.89" style="fill:none;stroke:#999;stroke-width:3" />
<path d="M1029.38,69.18c6.17-0.72,25.61-2.2,32.75-2.68" style="fill:none;stroke:black;stroke-width:3" />
<circle cx="1029.38" cy="69.18" r="5" stroke-width="0" fill="#FF2A00" opacity="0.7" />
<path d="M1126.06,15.5c-0.06,1.12-0.21,1.99-0.63,2.72c-5.27,9.35-11.55,16.65-23.18,25.57" style="fill:none;stroke:#999;stroke-width:3" />
<path d="M1106.25,19.75C1136.75,39.38 1123.71,104.03 1112.0,91" style="fill:none;stroke:#999;stroke-width:3" />
<path d="M1119.8400000000001,47.25c0.07,0.88-0.06,1.89-0.49,2.67C1116.0,56 1110.25,64.12 1102.0,72.29" style="fill:none;stroke:#999;stroke-width:3" />
<path d="M1135.17,17.06c3.7,3.82,7.53,11.92,8.05,14.09" style="fill:none;stroke:#999;stroke-width:3" />
<path d="M1150.37,14.39c2.25,2.98,5.04,9.77,5.69,14.16" style="fill:none;stroke:#999;stroke-width:3" />
<path d="M1174.12,13.38c0.26,1.24-0.06,2.09-0.74,3.59c-1.5,3.28-5.5,9.9-8.82,14.14" style="fill:none;stroke:#999;stroke-width:3" />
<path d="M1137.05,38.3c0.83,0.83,1.13,2.08,1.19,3.5c1.25,25.83-2.37,40.96-11.5,52.33" style="fill:none;stroke:#999;stroke-width:3" />
<path d="M1139.1599999999999,40.42c0.94-0.2,2.07-0.45,3.35-0.66c9.62-1.52,22.37-3.52,26.76-3.92c2.38-0.22,3.81,1.19,3.51,3.72c-2.52,20.93-0.65,40.93,9.01,51.46c7.38,8.04,5.96,2.22,5.21-4.28" style="fill:none;stroke:#999;stroke-width:3" />
<path d="M1139.75,54.36c8.6-0.84,20.62-2.48,30.6-2.89" style="fill:none;stroke:#999;stroke-width:3" />
<path d="M1138.38,69.18c6.17-0.72,25.61-2.2,32.75-2.68" style="fill:none;stroke:#999;stroke-width:3" />
<path d="M1153.53,40.98c1.06,1.06,1.12,2.15,1.12,3.51c0,0.75,0.06,34.23,0.06,40.73c0,3.61-0.06,6.35-0.09,7.54" style="fill:none;stroke:black;stroke-width:3" />
<circle cx="1153.53" cy="40.98" r="5" stroke-width="0" fill="#FF2A00" opacity="0.7" />
</svg>