<!-- 07329 -->
<svg width="1308px" height="109px" viewBox="0 0 1308px 109px" xmlns="http://www.w3.org/2000/svg" xmlns:xlink="http://www.w3.org/1999/xlink" xml:space="preserve" version="1.1"  baseProfile="full">
<line x1="1" y1="1" x2="1307" y2="1" style="stroke:#ddd;stroke-width:2" />
<line x1="1" y1="1" x2="1" y2="108" style="stroke:#ddd;stroke-width:2" />
<line x1="1" y1="108" x2="1307" y2="108" style="stroke:#ddd;stroke-width:2" />
<line x1="1307" y1="1" x2="1307" y2="108" style="stroke:#ddd;stroke-width:2" />
<line x1="109" y1="1" x2="109" y2="108" style="stroke:#ddd;stroke-width:2" />
<line x1="218" y1="1" x2="218" y2="108" style="stroke:#ddd;stroke-width:2" />
<line x1="327" y1="1" x2="327" y2="108" style="stroke:#ddd;stroke-width:2" />
<line x1="436" y1="1" x2="436" y2="108" style="stroke:#ddd;stroke-width:2" />
<line x1="545" y1="1" x2="545" y2="108" style="stroke:#ddd;stroke-width:2" />
<line x1="654" y1="1" x2="654" y2="108" style="stroke:#ddd;stroke-width:2" />
<line x1="763" y1="1" x2="763" y2="108" style="stroke:#ddd;stroke-width:2" />
<line x1="872" y1="1" x2="872" y2="108" style="stroke:#ddd;stroke-width:2" />
<line x1="981" y1="1" x2="981" y2="108" style="stroke:#ddd;stroke-width:2" />
<line x1="1090" y1="1" x2="1090" y2="108" style="stroke:#ddd;stroke-width:2" />
<line x1="1199" y1="1" x2="1199" y2="108" style="stroke:#ddd;stroke-width:2" />
<line x1="1" y1="54" x2="1307" y2="54" style="stroke:#ddd;stroke-width:2;stroke-dasharray:3 3" />
<line x1="55" y1="1" x2="55" y2="108" style="stroke:#ddd;stroke-width:2;stroke-dasharray:3 3" />
<line x1="164" y1="1" x2="164" y2="108" style="stroke:#ddd;stroke-width:2;stroke-dasharray:3 3" />
<line x1="273" y1="1" x2="273" y2="108" style="stroke:#ddd;stroke-width:2;stroke-dasharray:3 3" />
<line x1="382" y1="1" x2="382" y2="108" style="stroke:#ddd;stroke-width:2;stroke-dasharray:3 3" />
<line x1="491" y1="1" x2="491" y2="108" style="stroke:#ddd;stroke-width:2;stroke-dasharray:3 3" />
<line x1="600" y1="1" x2="600" y2="108" style="stroke:#ddd;stroke-width:2;stroke-dasharray:3 3" />
<line x1="709" y1="1" x2="709" y2="108" style="stroke:#ddd;stroke-width:2;stroke-dasharray:3 3" />
<line x1="818" y1="1" x2="818" y2="108" style="stroke:#ddd;stroke-width:2;stroke-dasharray:3 3" />
<line x1="927" y1="1" x2="927" y2="108" style="stroke:#ddd;stroke-width:2;stroke-dasharray:3 3" />
<line x1="1036" y1="1" x2="1036" y2="108" style="stroke:#ddd;stroke-width:2;stroke-dasharray:3 3" />
<line x1="1145" y1="1" x2="1145" y2="108" style="stroke:#ddd;stroke-width:2;stroke-dasharray:3 3" />
<line x1="1254" y1="1" x2="1254" y2="108" style="stroke:#ddd;stroke-width:2;stroke-dasharray:3 3" />
<path d="M38.04,16.75c0.07,0.6,0.32,1.77-0.14,2.42c-5.86,8.29-11.82,14.16-26.07,23.13" style="fill:none;stroke:black;stroke-width:3" />
<circle cx="38.04" cy="16.75" r="5" stroke-width="0" fill="#FF2A00" opacity="0.7" />
<path d="M147.04,16.75c0.07,0.6,0.32,1.77-0.14,2.42c-5.86,8.29-11.82,14.16-26.07,23.13" style="fill:none;stroke:#999;stroke-width:3" />
<path d="M126.5,17.77c28.25,23.89,17.46,86.45,5.75,73.2" style="fill:none;stroke:black;stroke-width:3" />
<circle cx="126.5" cy="17.77" r="5" stroke-width="0" fill="#FF2A00" opacity="0.7" />
<path d="M256.03999999999996,16.75c0.07,0.6,0.32,1.77-0.14,2.42c-5.86,8.29-11.82,14.16-26.07,23.13" style="fill:none;stroke:#999;stroke-width:3" />
<path d="M235.5,17.77c28.25,23.89,17.46,86.45,5.75,73.2" style="fill:none;stroke:#999;stroke-width:3" />
<path d="M248.34,42.94c0.04,0.68,0.21,1.99-0.09,2.72c-3.82,9.34-7.71,15.94-17,26.04" style="fill:none;stroke:black;stroke-width:3" />
<circle cx="248.34" cy="42.94" r="5" stroke-width="0" fill="#FF2A00" opacity="0.7" />
<path d="M365.03999999999996,16.75c0.07,0.6,0.32,1.77-0.14,2.42c-5.86,8.29-11.82,14.16-26.07,23.13" style="fill:none;stroke:#999;stroke-width:3" />
<path d="M344.5,17.77c28.25,23.89,17.46,86.45,5.75,73.2" style="fill:none;stroke:#999;stroke-width:3" />
<path d="M357.34000000000003,42.94c0.04,0.68,0.21,1.99-0.09,2.72c-3.82,9.34-7.71,15.94-17,26.04" style="fill:none;stroke:#999;stroke-width:3" />
<path d="M374.82,15.21c0.69,0.6,1.36,2.09,1.42,2.94c0.05,0.85,3.53,23.7,3.8,24.54" style="fill:none;stroke:black;stroke-width:3" />
<circle cx="374.82" cy="15.21" r="5" stroke-width="0" fill="#FF2A00" opacity="0.7" />
<path d="M474.03999999999996,16.75c0.07,0.6,0.32,1.77-0.14,2.42c-5.86,8.29-11.82,14.16-26.07,23.13" style="fill:none;stroke:#999;stroke-width:3" />
<path d="M453.5,17.77c28.25,23.89,17.46,86.45,5.75,73.2" style="fill:none;stroke:#999;stroke-width:3" />
<path d="M466.34000000000003,42.94c0.04,0.68,0.21,1.99-0.09,2.72c-3.82,9.34-7.71,15.94-17,26.04" style="fill:none;stroke:#999;stroke-width:3" />
<path d="M483.82,15.21c0.69,0.6,1.36,2.09,1.42,2.94c0.05,0.85,3.53,23.7,3.8,24.54" style="fill:none;stroke:#999;stroke-width:3" />
<path d="M486.22,16.39c3.67-0.31,32.05-3.23,35.39-3.54c2.79-0.26,4.81,0.89,4.06,4.74c-1.38,6.99-2.74,14.46-4.34,22.45" style="fill:none;stroke:black;stroke-width:3" />
<circle cx="486.22" cy="16.39" r="5" stroke-width="0" fill="#FF2A00" opacity="0.7" />
<path d="M583.04,16.75c0.07,0.6,0.32,1.77-0.14,2.42c-5.86,8.29-11.82,14.16-26.07,23.13" style="fill:none;stroke:#999;stroke-width:3" />
<path d="M562.5,17.77c28.25,23.89,17.46,86.45,5.75,73.2" style="fill:none;stroke:#999;stroke-width:3" />
<path d="M575.34,42.94c0.04,0.68,0.21,1.99-0.09,2.72c-3.82,9.34-7.71,15.94-17,26.04" style="fill:none;stroke:#999;stroke-width:3" />
<path d="M592.8199999999999,15.21c0.69,0.6,1.36,2.09,1.42,2.94c0.05,0.85,3.53,23.7,3.8,24.54" style="fill:none;stroke:#999;stroke-width:3" />
<path d="M595.22,16.39c3.67-0.31,32.05-3.23,35.39-3.54c2.79-0.26,4.81,0.89,4.06,4.74c-1.38,6.99-2.74,14.46-4.34,22.45" style="fill:none;stroke:#999;stroke-width:3" />
<path d="M596.64,28.21c4.98-0.27,30.33-2.33,35.95-2.64" style="fill:none;stroke:black;stroke-width:3" />
<circle cx="596.64" cy="28.21" r="5" stroke-width="0" fill="#FF2A00" opacity="0.7" />
<path d="M692.04,16.75c0.07,0.6,0.32,1.77-0.14,2.42c-5.86,8.29-11.82,14.16-26.07,23.13" style="fill:none;stroke:#999;stroke-width:3" />
<path d="M671.5,17.77c28.25,23.89,17.46,86.45,5.75,73.2" style="fill:none;stroke:#999;stroke-width:3" />
<path d="M684.34,42.94c0.04,0.68,0.21,1.99-0.09,2.72c-3.82,9.34-7.71,15.94-17,26.04" style="fill:none;stroke:#999;stroke-width:3" />
<path d="M701.8199999999999,15.21c0.69,0.6,1.36,2.09,1.42,2.94c0.05,0.85,3.53,23.7,3.8,24.54" style="fill:none;stroke:#999;stroke-width:3" />
<path d="M704.22,16.39c3.67-0.31,32.05-3.23,35.39-3.54c2.79-0.26,4.81,0.89,4.06,4.74c-1.38,6.99-2.74,14.46-4.34,22.45" style="fill:none;stroke:#999;stroke-width:3" />
<path d="M705.64,28.21c4.98-0.27,30.33-2.33,35.95-2.64" style="fill:none;stroke:#999;stroke-width:3" />
<path d="M708.12,40c7.36-0.4,20.49-1.8,30.01-2.32" style="fill:none;stroke:black;stroke-width:3" />
<circle cx="708.12" cy="40.0" r="5" stroke-width="0" fill="#FF2A00" opacity="0.7" />
<path d="M801.04,16.75c0.07,0.6,0.32,1.77-0.14,2.42c-5.86,8.29-11.82,14.16-26.07,23.13" style="fill:none;stroke:#999;stroke-width:3" />
<path d="M780.5,17.77c28.25,23.89,17.46,86.45,5.75,73.2" style="fill:none;stroke:#999;stroke-width:3" />
<path d="M793.34,42.94c0.04,0.68,0.21,1.99-0.09,2.72c-3.82,9.34-7.71,15.94-17,26.04" style="fill:none;stroke:#999;stroke-width:3" />
<path d="M810.8199999999999,15.21c0.69,0.6,1.36,2.09,1.42,2.94c0.05,0.85,3.53,23.7,3.8,24.54" style="fill:none;stroke:#999;stroke-width:3" />
<path d="M813.22,16.39c3.67-0.31,32.05-3.23,35.39-3.54c2.79-0.26,4.81,0.89,4.06,4.74c-1.38,6.99-2.74,14.46-4.34,22.45" style="fill:none;stroke:#999;stroke-width:3" />
<path d="M814.64,28.21c4.98-0.27,30.33-2.33,35.95-2.64" style="fill:none;stroke:#999;stroke-width:3" />
<path d="M817.12,40c7.36-0.4,20.49-1.8,30.01-2.32" style="fill:none;stroke:#999;stroke-width:3" />
<path d="M816.29,48.93c0.04,0.49,0.08,1.27-0.07,1.98c-0.87,4.17-5.89,13.33-12.75,18.94" style="fill:none;stroke:black;stroke-width:3" />
<circle cx="816.29" cy="48.93" r="5" stroke-width="0" fill="#FF2A00" opacity="0.7" />
<path d="M910.04,16.75c0.07,0.6,0.32,1.77-0.14,2.42c-5.86,8.29-11.82,14.16-26.07,23.13" style="fill:none;stroke:#999;stroke-width:3" />
<path d="M889.5,17.77c28.25,23.89,17.46,86.45,5.75,73.2" style="fill:none;stroke:#999;stroke-width:3" />
<path d="M902.34,42.94c0.04,0.68,0.21,1.99-0.09,2.72c-3.82,9.34-7.71,15.94-17,26.04" style="fill:none;stroke:#999;stroke-width:3" />
<path d="M919.8199999999999,15.21c0.69,0.6,1.36,2.09,1.42,2.94c0.05,0.85,3.53,23.7,3.8,24.54" style="fill:none;stroke:#999;stroke-width:3" />
<path d="M922.22,16.39c3.67-0.31,32.05-3.23,35.39-3.54c2.79-0.26,4.81,0.89,4.06,4.74c-1.38,6.99-2.74,14.46-4.34,22.45" style="fill:none;stroke:#999;stroke-width:3" />
<path d="M923.64,28.21c4.98-0.27,30.33-2.33,35.95-2.64" style="fill:none;stroke:#999;stroke-width:3" />
<path d="M926.12,40c7.36-0.4,20.49-1.8,30.01-2.32" style="fill:none;stroke:#999;stroke-width:3" />
<path d="M925.29,48.93c0.04,0.49,0.08,1.27-0.07,1.98c-0.87,4.17-5.89,13.33-12.75,18.94" style="fill:none;stroke:#999;stroke-width:3" />
<path d="M924.92,60.09c1.04,0.27,2.94,0.33,3.99,0.27c7.5-0.39,24.86-2.46,31.33-2.87c1.72-0.11,2.44-0.06,3.36-0.02" style="fill:none;stroke:black;stroke-width:3" />
<circle cx="924.92" cy="60.09" r="5" stroke-width="0" fill="#FF2A00" opacity="0.7" />
<path d="M1019.04,16.75c0.07,0.6,0.32,1.77-0.14,2.42c-5.86,8.29-11.82,14.16-26.07,23.13" style="fill:none;stroke:#999;stroke-width:3" />
<path d="M998.5,17.77c28.25,23.89,17.46,86.45,5.75,73.2" style="fill:none;stroke:#999;stroke-width:3" />
<path d="M1011.34,42.94c0.04,0.68,0.21,1.99-0.09,2.72c-3.82,9.34-7.71,15.94-17,26.04" style="fill:none;stroke:#999;stroke-width:3" />
<path d="M1028.82,15.21c0.69,0.6,1.36,2.09,1.42,2.94c0.05,0.85,3.53,23.7,3.8,24.54" style="fill:none;stroke:#999;stroke-width:3" />
<path d="M1031.22,16.39c3.67-0.31,32.05-3.23,35.39-3.54c2.79-0.26,4.81,0.89,4.06,4.74c-1.38,6.99-2.74,14.46-4.34,22.45" style="fill:none;stroke:#999;stroke-width:3" />
<path d="M1032.6399999999999,28.21c4.98-0.27,30.33-2.33,35.95-2.64" style="fill:none;stroke:#999;stroke-width:3" />
<path d="M1035.12,40c7.36-0.4,20.49-1.8,30.01-2.32" style="fill:none;stroke:#999;stroke-width:3" />
<path d="M1034.29,48.93c0.04,0.49,0.08,1.27-0.07,1.98c-0.87,4.17-5.89,13.33-12.75,18.94" style="fill:none;stroke:#999;stroke-width:3" />
<path d="M1033.92,60.09c1.04,0.27,2.94,0.33,3.99,0.27c7.5-0.39,24.86-2.46,31.33-2.87c1.72-0.11,2.44-0.06,3.36-0.02" style="fill:none;stroke:#999;stroke-width:3" />
<path d="M1048.28,44.14c0.55,0.51,2.32,2.36,2.32,4.83c0,1.02-0.07,37.19-0.18,43.55" style="fill:none;stroke:black;stroke-width:3" />
<circle cx="1048.28" cy="44.14" r="5" stroke-width="0" fill="#FF2A00" opacity="0.7" />
<path d="M1128.04,16.75c0.07,0.6,0.32,1.77-0.14,2.42c-5.86,8.29-11.82,14.16-26.07,23.13" style="fill:none;stroke:#999;stroke-width:3" />
<path d="M1107.5,17.77c28.25,23.89,17.46,86.45,5.75,73.2" style="fill:none;stroke:#999;stroke-width:3" />
<path d="M1120.3400000000001,42.94c0.04,0.68,0.21,1.99-0.09,2.72c-3.82,9.34-7.71,15.94-17,26.04" style="fill:none;stroke:#999;stroke-width:3" />
<path d="M1137.82,15.21c0.69,0.6,1.36,2.09,1.42,2.94c0.05,0.85,3.53,23.7,3.8,24.54" style="fill:none;stroke:#999;stroke-width:3" />
<path d="M1140.22,16.39c3.67-0.31,32.05-3.23,35.39-3.54c2.79-0.26,4.81,0.89,4.06,4.74c-1.38,6.99-2.74,14.46-4.34,22.45" style="fill:none;stroke:#999;stroke-width:3" />
<path d="M1141.6399999999999,28.21c4.98-0.27,30.33-2.33,35.95-2.64" style="fill:none;stroke:#999;stroke-width:3" />
<path d="M1144.12,40c7.36-0.4,20.49-1.8,30.01-2.32" style="fill:none;stroke:#999;stroke-width:3" />
<path d="M1143.29,48.93c0.04,0.49,0.08,1.27-0.07,1.98c-0.87,4.17-5.89,13.33-12.75,18.94" style="fill:none;stroke:#999;stroke-width:3" />
<path d="M1142.92,60.09c1.04,0.27,2.94,0.33,3.99,0.27c7.5-0.39,24.86-2.46,31.33-2.87c1.72-0.11,2.44-0.06,3.36-0.02" style="fill:none;stroke:#999;stroke-width:3" />
<path d="M1157.28,44.14c0.55,0.51,2.32,2.36,2.32,4.83c0,1.02-0.07,37.19-0.18,43.55" style="fill:none;stroke:#999;stroke-width:3" />
<path d="M1139.29,76.04c1.11,0.28,3.14,0.34,4.25,0.28c7.99-0.4,25.24-1.93,32.13-2.37c1.84-0.11,2.6-0.06,3.58-0.02" style="fill:none;stroke:black;stroke-width:3" />
<circle cx="1139.29" cy="76.04" r="5" stroke-width="0" fill="#FF2A00" opacity="0.7" />
<path d="M1237.04,16.75c0.07,0.6,0.32,1.77-0.14,2.42c-5.86,8.29-11.82,14.16-26.07,23.13" style="fill:none;stroke:#999;stroke-width:3" />
<path d="M1216.5,17.77c28.25,23.89,17.46,86.45,5.75,73.2" style="fill:none;stroke:#999;stroke-width:3" />
<path d="M1229.3400000000001,42.94c0.04,0.68,0.21,1.99-0.09,2.72c-3.82,9.34-7.71,15.94-17,26.04" style="fill:none;stroke:#999;stroke-width:3" />
<path d="M1246.82,15.21c0.69,0.6,1.36,2.09,1.42,2.94c0.05,0.85,3.53,23.7,3.8,24.54" style="fill:none;stroke:#999;stroke-width:3" />
<path d="M1249.22,16.39c3.67-0.31,32.05-3.23,35.39-3.54c2.79-0.26,4.81,0.89,4.06,4.74c-1.38,6.99-2.74,14.46-4.34,22.45" style="fill:none;stroke:#999;stroke-width:3" />
<path d="M1250.6399999999999,28.21c4.98-0.27,30.33-2.33,35.95-2.64" style="fill:none;stroke:#999;stroke-width:3" />
<path d="M1253.12,40c7.36-0.4,20.49-1.8,30.01-2.32" style="fill:none;stroke:#999;stroke-width:3" />
<path d="M1252.29,48.93c0.04,0.49,0.08,1.27-0.07,1.98c-0.87,4.17-5.89,13.33-12.75,18.94" style="fill:none;stroke:#999;stroke-width:3" />
<path d="M1251.92,60.09c1.04,0.27,2.94,0.33,3.99,0.27c7.5-0.39,24.86-2.46,31.33-2.87c1.72-0.11,2.44-0.06,3.36-0.02" style="fill:none;stroke:#999;stroke-width:3" />
<path d="M1266.28,44.14c0.55,0.51,2.32,2.36,2.32,4.83c0,1.02-0.07,37.19-0.18,43.55" style="fill:none;stroke:#999;stroke-width:3" />
<path d="M1248.29,76.04c1.11,0.28,3.14,0.34,4.25,0.28c7.99-0.4,25.24-1.93,32.13-2.37c1.84-0.11,2.6-0.06,3.58-0.02" style="fill:none;stroke:#999;stroke-width:3" />
<path d="M1239.88,93.95c1.27,0.31,4.09,0.42,5.36,0.31c11.26-1.01,39.81-2.51,47.69-2.99c2.1-0.13,4.38-0.25,6.32,0.51" style="fill:none;stroke:black;stroke-width:3" />
<circle cx="1239.88" cy="93.95" r="5" stroke-width="0" fill="#FF2A00" opacity="0.7" />
</svg>