<!-- 074a2 -->
<svg width="1744px" height="109px" viewBox="0 0 1744px 109px" xmlns="http://www.w3.org/2000/svg" xmlns:xlink="http://www.w3.org/1999/xlink" xml:space="preserve" version="1.1"  baseProfile="full">
<line x1="1" y1="1" x2="1743" y2="1" style="stroke:#ddd;stroke-width:2" />
<line x1="1" y1="1" x2="1" y2="108" style="stroke:#ddd;stroke-width:2" />
<line x1="1" y1="108" x2="1743" y2="108" style="stroke:#ddd;stroke-width:2" />
<line x1="1743" y1="1" x2="1743" y2="108" style="stroke:#ddd;stroke-width:2" />
<line x1="109" y1="1" x2="109" y2="108" style="stroke:#ddd;stroke-width:2" />
<line x1="218" y1="1" x2="218" y2="108" style="stroke:#ddd;stroke-width:2" />
<line x1="327" y1="1" x2="327" y2="108" style="stroke:#ddd;stroke-width:2" />
<line x1="436" y1="1" x2="436" y2="108" style="stroke:#ddd;stroke-width:2" />
<line x1="545" y1="1" x2="545" y2="108" style="stroke:#ddd;stroke-width:2" />
<line x1="654" y1="1" x2="654" y2="108" style="stroke:#ddd;stroke-width:2" />
<line x1="763" y1="1" x2="763" y2="108" style="stroke:#ddd;stroke-width:2" />
<line x1="872" y1="1" x2="872" y2="108" style="stroke:#ddd;stroke-width:2" />
<line x1="981" y1="1" x2="981" y2="108" style="stroke:#ddd;stroke-width:2" />
<line x1="1090" y1="1" x2="1090" y2="108" style="stroke:#ddd;stroke-width:2" />
<line x1="1199" y1="1" x2="1199" y2="108" style="stroke:#ddd;stroke-width:2" />
<line x1="1308" y1="1" x2="1308" y2="108" style="stroke:#ddd;stroke-width:2" />
<line x1="1417" y1="1" x2="1417" y2="108" style="stroke:#ddd;stroke-width:2" />
<line x1="1526" y1="1" x2="1526" y2="108" style="stroke:#ddd;stroke-width:2" />
<line x1="1635" y1="1" x2="1635" y2="108" style="stroke:#ddd;stroke-width:2" />
<line x1="1" y1="54" x2="1743" y2="54" style="stroke:#ddd;stroke-width:2;stroke-dasharray:3 3" />
<line x1="55" y1="1" x2="55" y2="108" style="stroke:#ddd;stroke-width:2;stroke-dasharray:3 3" />
<line x1="164" y1="1" x2="164" y2="108" style="stroke:#ddd;stroke-width:2;stroke-dasharray:3 3" />
<line x1="273" y1="1" x2="273" y2="108" style="stroke:#ddd;stroke-width:2;stroke-dasharray:3 3" />
<line x1="382" y1="1" x2="382" y2="108" style="stroke:#ddd;stroke-width:2;stroke-dasharray:3 3" />
<line x1="491" y1="1" x2="491" y2="108" style="stroke:#ddd;stroke-width:2;stroke-dasharray:3 3" />
<line x1="600" y1="1" x2="600" y2="108" style="stroke:#ddd;stroke-width:2;stroke-dasharray:3 3" />
<line x1="709" y1="1" x2="709" y2="108" style="stroke:#ddd;stroke-width:2;stroke-dasharray:3 3" />
<line x1="818" y1="1" x2="818" y2="108" style="stroke:#ddd;stroke-width:2;stroke-dasharray:3 3" />
<line x1="927" y1="1" x2="927" y2="108" style="stroke:#ddd;stroke-width:2;stroke-dasharray:3 3" />
<line x1="1036" y1="1" x2="1036" y2="108" style="stroke:#ddd;stroke-width:2;stroke-dasharray:3 3" />
<line x1="1145" y1="1" x2="1145" y2="108" style="stroke:#ddd;stroke-width:2;stroke-dasharray:3 3" />
<line x1="1254" y1="1" x2="1254" y2="108" style="stroke:#ddd;stroke-width:2;stroke-dasharray:3 3" />
<line x1="1363" y1="1" x2="1363" y2="108" style="stroke:#ddd;stroke-width:2;stroke-dasharray:3 3" />
<line x1="1472" y1="1" x2="1472" y2="108" style="stroke:#ddd;stroke-width:2;stroke-dasharray:3 3" />
<line x1="1581" y1="1" x2="1581" y2="108" style="stroke:#ddd;stroke-width:2;stroke-dasharray:3 3" />
<line x1="1690" y1="1" x2="1690" y2="108" style="stroke:#ddd;stroke-width:2;stroke-dasharray:3 3" />
<path d="M12.25,21.76c0.58,0.38,3.7,0.46,4.28,0.35c2.71-0.51,13.71-1.12,20.21-1.68c0.89-0.08,2.53-0.27,3.26,0.04" style="fill:none;stroke:black;stroke-width:3" />
<circle cx="12.25" cy="21.76" r="5" stroke-width="0" fill="#FF2A00" opacity="0.7" />
<path d="M121.25,21.76c0.58,0.38,3.7,0.46,4.28,0.35c2.71-0.51,13.71-1.12,20.21-1.68c0.89-0.08,2.53-0.27,3.26,0.04" style="fill:none;stroke:#999;stroke-width:3" />
<path d="M133.57,24.52c0.87,0.88,1.48,2.78,1.48,3.48c0,5.95,0.02,46.62-0.15,50.57" style="fill:none;stroke:black;stroke-width:3" />
<circle cx="133.57" cy="24.52" r="5" stroke-width="0" fill="#FF2A00" opacity="0.7" />
<path d="M230.25,21.76c0.58,0.38,3.7,0.46,4.28,0.35c2.71-0.51,13.71-1.12,20.21-1.68c0.89-0.08,2.53-0.27,3.26,0.04" style="fill:none;stroke:#999;stroke-width:3" />
<path d="M242.57,24.52c0.87,0.88,1.48,2.78,1.48,3.48c0,5.95,0.02,46.62-0.15,50.57" style="fill:none;stroke:#999;stroke-width:3" />
<path d="M230.75,49.18c0.49,0.27,3.95,0.31,4.45,0.25c2.88-0.36,13.53-2.43,17.52-2.82c0.61-0.06,2.85-0.11,3.77,0.13" style="fill:none;stroke:black;stroke-width:3" />
<circle cx="230.75" cy="49.18" r="5" stroke-width="0" fill="#FF2A00" opacity="0.7" />
<path d="M339.25,21.76c0.58,0.38,3.7,0.46,4.28,0.35c2.71-0.51,13.71-1.12,20.21-1.68c0.89-0.08,2.53-0.27,3.26,0.04" style="fill:none;stroke:#999;stroke-width:3" />
<path d="M351.57,24.52c0.87,0.88,1.48,2.78,1.48,3.48c0,5.95,0.02,46.62-0.15,50.57" style="fill:none;stroke:#999;stroke-width:3" />
<path d="M339.75,49.18c0.49,0.27,3.95,0.31,4.45,0.25c2.88-0.36,13.53-2.43,17.52-2.82c0.61-0.06,2.85-0.11,3.77,0.13" style="fill:none;stroke:#999;stroke-width:3" />
<path d="M338.75,86.07c0.59,0.33,2.85,0.76,3.72,0.15C348.04,82.28 355.5,77.05 364.0,70.25" style="fill:none;stroke:black;stroke-width:3" />
<circle cx="338.75" cy="86.07" r="5" stroke-width="0" fill="#FF2A00" opacity="0.7" />
<path d="M448.25,21.76c0.58,0.38,3.7,0.46,4.28,0.35c2.71-0.51,13.71-1.12,20.21-1.68c0.89-0.08,2.53-0.27,3.26,0.04" style="fill:none;stroke:#999;stroke-width:3" />
<path d="M460.57,24.52c0.87,0.88,1.48,2.78,1.48,3.48c0,5.95,0.02,46.62-0.15,50.57" style="fill:none;stroke:#999;stroke-width:3" />
<path d="M448.75,49.18c0.49,0.27,3.95,0.31,4.45,0.25c2.88-0.36,13.53-2.43,17.52-2.82c0.61-0.06,2.85-0.11,3.77,0.13" style="fill:none;stroke:#999;stroke-width:3" />
<path d="M447.75,86.07c0.59,0.33,2.85,0.76,3.72,0.15C457.04,82.28 464.5,77.05 473.0,70.25" style="fill:none;stroke:#999;stroke-width:3" />
<path d="M482.8,19.57c1.1,0.31,3.13,0.35,4.23,0.31c11.03-0.43,27.66-3.54,40.47-3.53c1.84,0,2.94,0.15,3.86,0.3" style="fill:none;stroke:black;stroke-width:3" />
<circle cx="482.8" cy="19.57" r="5" stroke-width="0" fill="#FF2A00" opacity="0.7" />
<path d="M557.25,21.76c0.58,0.38,3.7,0.46,4.28,0.35c2.71-0.51,13.71-1.12,20.21-1.68c0.89-0.08,2.53-0.27,3.26,0.04" style="fill:none;stroke:#999;stroke-width:3" />
<path d="M569.5699999999999,24.52c0.87,0.88,1.48,2.78,1.48,3.48c0,5.95,0.02,46.62-0.15,50.57" style="fill:none;stroke:#999;stroke-width:3" />
<path d="M557.75,49.18c0.49,0.27,3.95,0.31,4.45,0.25c2.88-0.36,13.53-2.43,17.52-2.82c0.61-0.06,2.85-0.11,3.77,0.13" style="fill:none;stroke:#999;stroke-width:3" />
<path d="M556.75,86.07c0.59,0.33,2.85,0.76,3.72,0.15C566.04,82.28 573.5,77.05 582.0,70.25" style="fill:none;stroke:#999;stroke-width:3" />
<path d="M591.8,19.57c1.1,0.31,3.13,0.35,4.23,0.31c11.03-0.43,27.66-3.54,40.47-3.53c1.84,0,2.94,0.15,3.86,0.3" style="fill:none;stroke:#999;stroke-width:3" />
<path d="M606.53,19.56c1,0.83,1.28,2.66,1.28,4.12c0,3.32-0.02,36.33-0.02,40.85" style="fill:none;stroke:black;stroke-width:3" />
<circle cx="606.53" cy="19.56" r="5" stroke-width="0" fill="#FF2A00" opacity="0.7" />
<path d="M666.25,21.76c0.58,0.38,3.7,0.46,4.28,0.35c2.71-0.51,13.71-1.12,20.21-1.68c0.89-0.08,2.53-0.27,3.26,0.04" style="fill:none;stroke:#999;stroke-width:3" />
<path d="M678.5699999999999,24.52c0.87,0.88,1.48,2.78,1.48,3.48c0,5.95,0.02,46.62-0.15,50.57" style="fill:none;stroke:#999;stroke-width:3" />
<path d="M666.75,49.18c0.49,0.27,3.95,0.31,4.45,0.25c2.88-0.36,13.53-2.43,17.52-2.82c0.61-0.06,2.85-0.11,3.77,0.13" style="fill:none;stroke:#999;stroke-width:3" />
<path d="M665.75,86.07c0.59,0.33,2.85,0.76,3.72,0.15C675.04,82.28 682.5,77.05 691.0,70.25" style="fill:none;stroke:#999;stroke-width:3" />
<path d="M700.8,19.57c1.1,0.31,3.13,0.35,4.23,0.31c11.03-0.43,27.66-3.54,40.47-3.53c1.84,0,2.94,0.15,3.86,0.3" style="fill:none;stroke:#999;stroke-width:3" />
<path d="M715.53,19.56c1,0.83,1.28,2.66,1.28,4.12c0,3.32-0.02,36.33-0.02,40.85" style="fill:none;stroke:#999;stroke-width:3" />
<path d="M701.94,36.27c2.36-0.19,12.18-1.61,14.11-1.8" style="fill:none;stroke:black;stroke-width:3" />
<circle cx="701.94" cy="36.27" r="5" stroke-width="0" fill="#FF2A00" opacity="0.7" />
<path d="M775.25,21.76c0.58,0.38,3.7,0.46,4.28,0.35c2.71-0.51,13.71-1.12,20.21-1.68c0.89-0.08,2.53-0.27,3.26,0.04" style="fill:none;stroke:#999;stroke-width:3" />
<path d="M787.5699999999999,24.52c0.87,0.88,1.48,2.78,1.48,3.48c0,5.95,0.02,46.62-0.15,50.57" style="fill:none;stroke:#999;stroke-width:3" />
<path d="M775.75,49.18c0.49,0.27,3.95,0.31,4.45,0.25c2.88-0.36,13.53-2.43,17.52-2.82c0.61-0.06,2.85-0.11,3.77,0.13" style="fill:none;stroke:#999;stroke-width:3" />
<path d="M774.75,86.07c0.59,0.33,2.85,0.76,3.72,0.15C784.04,82.28 791.5,77.05 800.0,70.25" style="fill:none;stroke:#999;stroke-width:3" />
<path d="M809.8,19.57c1.1,0.31,3.13,0.35,4.23,0.31c11.03-0.43,27.66-3.54,40.47-3.53c1.84,0,2.94,0.15,3.86,0.3" style="fill:none;stroke:#999;stroke-width:3" />
<path d="M824.53,19.56c1,0.83,1.28,2.66,1.28,4.12c0,3.32-0.02,36.33-0.02,40.85" style="fill:none;stroke:#999;stroke-width:3" />
<path d="M810.94,36.27c2.36-0.19,12.18-1.61,14.11-1.8" style="fill:none;stroke:#999;stroke-width:3" />
<path d="M808.98,35.3c0.92,0.81,1.12,1.65,1.13,2.79c0.03,2.41-0.13,8.04-0.23,11.36c-0.02,0.72,0.17,1.5,1.86,1.26c3.85-0.55,9.28-1.22,13.24-1.91" style="fill:none;stroke:black;stroke-width:3" />
<circle cx="808.98" cy="35.3" r="5" stroke-width="0" fill="#FF2A00" opacity="0.7" />
<path d="M884.25,21.76c0.58,0.38,3.7,0.46,4.28,0.35c2.71-0.51,13.71-1.12,20.21-1.68c0.89-0.08,2.53-0.27,3.26,0.04" style="fill:none;stroke:#999;stroke-width:3" />
<path d="M896.5699999999999,24.52c0.87,0.88,1.48,2.78,1.48,3.48c0,5.95,0.02,46.62-0.15,50.57" style="fill:none;stroke:#999;stroke-width:3" />
<path d="M884.75,49.18c0.49,0.27,3.95,0.31,4.45,0.25c2.88-0.36,13.53-2.43,17.52-2.82c0.61-0.06,2.85-0.11,3.77,0.13" style="fill:none;stroke:#999;stroke-width:3" />
<path d="M883.75,86.07c0.59,0.33,2.85,0.76,3.72,0.15C893.04,82.28 900.5,77.05 909.0,70.25" style="fill:none;stroke:#999;stroke-width:3" />
<path d="M918.8,19.57c1.1,0.31,3.13,0.35,4.23,0.31c11.03-0.43,27.66-3.54,40.47-3.53c1.84,0,2.94,0.15,3.86,0.3" style="fill:none;stroke:#999;stroke-width:3" />
<path d="M933.53,19.56c1,0.83,1.28,2.66,1.28,4.12c0,3.32-0.02,36.33-0.02,40.85" style="fill:none;stroke:#999;stroke-width:3" />
<path d="M919.94,36.27c2.36-0.19,12.18-1.61,14.11-1.8" style="fill:none;stroke:#999;stroke-width:3" />
<path d="M917.98,35.3c0.92,0.81,1.12,1.65,1.13,2.79c0.03,2.41-0.13,8.04-0.23,11.36c-0.02,0.72,0.17,1.5,1.86,1.26c3.85-0.55,9.28-1.22,13.24-1.91" style="fill:none;stroke:#999;stroke-width:3" />
<path d="M949.53,33.25c3.85-0.55,12.87-1.92,16.82-2.68c1.64-0.32,2.38,1.62,2.01,2.86c-0.7,2.38-1.93,7.73-2.65,11.89" style="fill:none;stroke:black;stroke-width:3" />
<circle cx="949.53" cy="33.25" r="5" stroke-width="0" fill="#FF2A00" opacity="0.7" />
<path d="M993.25,21.76c0.58,0.38,3.7,0.46,4.28,0.35c2.71-0.51,13.71-1.12,20.21-1.68c0.89-0.08,2.53-0.27,3.26,0.04" style="fill:none;stroke:#999;stroke-width:3" />
<path d="M1005.5699999999999,24.52c0.87,0.88,1.48,2.78,1.48,3.48c0,5.95,0.02,46.62-0.15,50.57" style="fill:none;stroke:#999;stroke-width:3" />
<path d="M993.75,49.18c0.49,0.27,3.95,0.31,4.45,0.25c2.88-0.36,13.53-2.43,17.52-2.82c0.61-0.06,2.85-0.11,3.77,0.13" style="fill:none;stroke:#999;stroke-width:3" />
<path d="M992.75,86.07c0.59,0.33,2.85,0.76,3.72,0.15C1002.04,82.28 1009.5,77.05 1018.0,70.25" style="fill:none;stroke:#999;stroke-width:3" />
<path d="M1027.8,19.57c1.1,0.31,3.13,0.35,4.23,0.31c11.03-0.43,27.66-3.54,40.47-3.53c1.84,0,2.94,0.15,3.86,0.3" style="fill:none;stroke:#999;stroke-width:3" />
<path d="M1042.53,19.56c1,0.83,1.28,2.66,1.28,4.12c0,3.32-0.02,36.33-0.02,40.85" style="fill:none;stroke:#999;stroke-width:3" />
<path d="M1028.94,36.27c2.36-0.19,12.18-1.61,14.11-1.8" style="fill:none;stroke:#999;stroke-width:3" />
<path d="M1026.98,35.3c0.92,0.81,1.12,1.65,1.13,2.79c0.03,2.41-0.13,8.04-0.23,11.36c-0.02,0.72,0.17,1.5,1.86,1.26c3.85-0.55,9.28-1.22,13.24-1.91" style="fill:none;stroke:#999;stroke-width:3" />
<path d="M1058.53,33.25c3.85-0.55,12.87-1.92,16.82-2.68c1.64-0.32,2.38,1.62,2.01,2.86c-0.7,2.38-1.93,7.73-2.65,11.89" style="fill:none;stroke:#999;stroke-width:3" />
<path d="M1058.23,47.24c2.36-0.19,16.54-1.23,18.47-1.42" style="fill:none;stroke:black;stroke-width:3" />
<circle cx="1058.23" cy="47.24" r="5" stroke-width="0" fill="#FF2A00" opacity="0.7" />
<path d="M1102.25,21.76c0.58,0.38,3.7,0.46,4.28,0.35c2.71-0.51,13.71-1.12,20.21-1.68c0.89-0.08,2.53-0.27,3.26,0.04" style="fill:none;stroke:#999;stroke-width:3" />
<path d="M1114.57,24.52c0.87,0.88,1.48,2.78,1.48,3.48c0,5.95,0.02,46.62-0.15,50.57" style="fill:none;stroke:#999;stroke-width:3" />
<path d="M1102.75,49.18c0.49,0.27,3.95,0.31,4.45,0.25c2.88-0.36,13.53-2.43,17.52-2.82c0.61-0.06,2.85-0.11,3.77,0.13" style="fill:none;stroke:#999;stroke-width:3" />
<path d="M1101.75,86.07c0.59,0.33,2.85,0.76,3.72,0.15C1111.04,82.28 1118.5,77.05 1127.0,70.25" style="fill:none;stroke:#999;stroke-width:3" />
<path d="M1136.8,19.57c1.1,0.31,3.13,0.35,4.23,0.31c11.03-0.43,27.66-3.54,40.47-3.53c1.84,0,2.94,0.15,3.86,0.3" style="fill:none;stroke:#999;stroke-width:3" />
<path d="M1151.53,19.56c1,0.83,1.28,2.66,1.28,4.12c0,3.32-0.02,36.33-0.02,40.85" style="fill:none;stroke:#999;stroke-width:3" />
<path d="M1137.94,36.27c2.36-0.19,12.18-1.61,14.11-1.8" style="fill:none;stroke:#999;stroke-width:3" />
<path d="M1135.98,35.3c0.92,0.81,1.12,1.65,1.13,2.79c0.03,2.41-0.13,8.04-0.23,11.36c-0.02,0.72,0.17,1.5,1.86,1.26c3.85-0.55,9.28-1.22,13.24-1.91" style="fill:none;stroke:#999;stroke-width:3" />
<path d="M1167.53,33.25c3.85-0.55,12.87-1.92,16.82-2.68c1.64-0.32,2.38,1.62,2.01,2.86c-0.7,2.38-1.93,7.73-2.65,11.89" style="fill:none;stroke:#999;stroke-width:3" />
<path d="M1167.23,47.24c2.36-0.19,16.54-1.23,18.47-1.42" style="fill:none;stroke:#999;stroke-width:3" />
<path d="M1165.24,16.88c0.85,0.7,1.51,1.85,1.51,3.08c0,2.8-0.02,39.73-0.02,43.54" style="fill:none;stroke:black;stroke-width:3" />
<circle cx="1165.24" cy="16.88" r="5" stroke-width="0" fill="#FF2A00" opacity="0.7" />
<path d="M1211.25,21.76c0.58,0.38,3.7,0.46,4.28,0.35c2.71-0.51,13.71-1.12,20.21-1.68c0.89-0.08,2.53-0.27,3.26,0.04" style="fill:none;stroke:#999;stroke-width:3" />
<path d="M1223.57,24.52c0.87,0.88,1.48,2.78,1.48,3.48c0,5.95,0.02,46.62-0.15,50.57" style="fill:none;stroke:#999;stroke-width:3" />
<path d="M1211.75,49.18c0.49,0.27,3.95,0.31,4.45,0.25c2.88-0.36,13.53-2.43,17.52-2.82c0.61-0.06,2.85-0.11,3.77,0.13" style="fill:none;stroke:#999;stroke-width:3" />
<path d="M1210.75,86.07c0.59,0.33,2.85,0.76,3.72,0.15C1220.04,82.28 1227.5,77.05 1236.0,70.25" style="fill:none;stroke:#999;stroke-width:3" />
<path d="M1245.8,19.57c1.1,0.31,3.13,0.35,4.23,0.31c11.03-0.43,27.66-3.54,40.47-3.53c1.84,0,2.94,0.15,3.86,0.3" style="fill:none;stroke:#999;stroke-width:3" />
<path d="M1260.53,19.56c1,0.83,1.28,2.66,1.28,4.12c0,3.32-0.02,36.33-0.02,40.85" style="fill:none;stroke:#999;stroke-width:3" />
<path d="M1246.94,36.27c2.36-0.19,12.18-1.61,14.11-1.8" style="fill:none;stroke:#999;stroke-width:3" />
<path d="M1244.98,35.3c0.92,0.81,1.12,1.65,1.13,2.79c0.03,2.41-0.13,8.04-0.23,11.36c-0.02,0.72,0.17,1.5,1.86,1.26c3.85-0.55,9.28-1.22,13.24-1.91" style="fill:none;stroke:#999;stroke-width:3" />
<path d="M1276.53,33.25c3.85-0.55,12.87-1.92,16.82-2.68c1.64-0.32,2.38,1.62,2.01,2.86c-0.7,2.38-1.93,7.73-2.65,11.89" style="fill:none;stroke:#999;stroke-width:3" />
<path d="M1276.23,47.24c2.36-0.19,16.54-1.23,18.47-1.42" style="fill:none;stroke:#999;stroke-width:3" />
<path d="M1274.24,16.88c0.85,0.7,1.51,1.85,1.51,3.08c0,2.8-0.02,39.73-0.02,43.54" style="fill:none;stroke:#999;stroke-width:3" />
<path d="M1245.85,66.83c0.34,0.5,1.44,1.82,1.52,2.46c0.88,6.46,1.85,16.82,2.73,26.21" style="fill:none;stroke:black;stroke-width:3" />
<circle cx="1245.85" cy="66.83" r="5" stroke-width="0" fill="#FF2A00" opacity="0.7" />
<path d="M1320.25,21.76c0.58,0.38,3.7,0.46,4.28,0.35c2.71-0.51,13.71-1.12,20.21-1.68c0.89-0.08,2.53-0.27,3.26,0.04" style="fill:none;stroke:#999;stroke-width:3" />
<path d="M1332.57,24.52c0.87,0.88,1.48,2.78,1.48,3.48c0,5.95,0.02,46.62-0.15,50.57" style="fill:none;stroke:#999;stroke-width:3" />
<path d="M1320.75,49.18c0.49,0.27,3.95,0.31,4.45,0.25c2.88-0.36,13.53-2.43,17.52-2.82c0.61-0.06,2.85-0.11,3.77,0.13" style="fill:none;stroke:#999;stroke-width:3" />
<path d="M1319.75,86.07c0.59,0.33,2.85,0.76,3.72,0.15C1329.04,82.28 1336.5,77.05 1345.0,70.25" style="fill:none;stroke:#999;stroke-width:3" />
<path d="M1354.8,19.57c1.1,0.31,3.13,0.35,4.23,0.31c11.03-0.43,27.66-3.54,40.47-3.53c1.84,0,2.94,0.15,3.86,0.3" style="fill:none;stroke:#999;stroke-width:3" />
<path d="M1369.53,19.56c1,0.83,1.28,2.66,1.28,4.12c0,3.32-0.02,36.33-0.02,40.85" style="fill:none;stroke:#999;stroke-width:3" />
<path d="M1355.94,36.27c2.36-0.19,12.18-1.61,14.11-1.8" style="fill:none;stroke:#999;stroke-width:3" />
<path d="M1353.98,35.3c0.92,0.81,1.12,1.65,1.13,2.79c0.03,2.41-0.13,8.04-0.23,11.36c-0.02,0.72,0.17,1.5,1.86,1.26c3.85-0.55,9.28-1.22,13.24-1.91" style="fill:none;stroke:#999;stroke-width:3" />
<path d="M1385.53,33.25c3.85-0.55,12.87-1.92,16.82-2.68c1.64-0.32,2.38,1.62,2.01,2.86c-0.7,2.38-1.93,7.73-2.65,11.89" style="fill:none;stroke:#999;stroke-width:3" />
<path d="M1385.23,47.24c2.36-0.19,16.54-1.23,18.47-1.42" style="fill:none;stroke:#999;stroke-width:3" />
<path d="M1383.24,16.88c0.85,0.7,1.51,1.85,1.51,3.08c0,2.8-0.02,39.73-0.02,43.54" style="fill:none;stroke:#999;stroke-width:3" />
<path d="M1354.85,66.83c0.34,0.5,1.44,1.82,1.52,2.46c0.88,6.46,1.85,16.82,2.73,26.21" style="fill:none;stroke:#999;stroke-width:3" />
<path d="M1356.43,67.6c13.07-1.1,32.81-3.38,41.7-3.88c3.27-0.18,4.43,2.79,4.25,4.16c-0.65,5.01-2.13,17.37-4.01,26.32" style="fill:none;stroke:black;stroke-width:3" />
<circle cx="1356.43" cy="67.6" r="5" stroke-width="0" fill="#FF2A00" opacity="0.7" />
<path d="M1429.25,21.76c0.58,0.38,3.7,0.46,4.28,0.35c2.71-0.51,13.71-1.12,20.21-1.68c0.89-0.08,2.53-0.27,3.26,0.04" style="fill:none;stroke:#999;stroke-width:3" />
<path d="M1441.57,24.52c0.87,0.88,1.48,2.78,1.48,3.48c0,5.95,0.02,46.62-0.15,50.57" style="fill:none;stroke:#999;stroke-width:3" />
<path d="M1429.75,49.18c0.49,0.27,3.95,0.31,4.45,0.25c2.88-0.36,13.53-2.43,17.52-2.82c0.61-0.06,2.85-0.11,3.77,0.13" style="fill:none;stroke:#999;stroke-width:3" />
<path d="M1428.75,86.07c0.59,0.33,2.85,0.76,3.72,0.15C1438.04,82.28 1445.5,77.05 1454.0,70.25" style="fill:none;stroke:#999;stroke-width:3" />
<path d="M1463.8,19.57c1.1,0.31,3.13,0.35,4.23,0.31c11.03-0.43,27.66-3.54,40.47-3.53c1.84,0,2.94,0.15,3.86,0.3" style="fill:none;stroke:#999;stroke-width:3" />
<path d="M1478.53,19.56c1,0.83,1.28,2.66,1.28,4.12c0,3.32-0.02,36.33-0.02,40.85" style="fill:none;stroke:#999;stroke-width:3" />
<path d="M1464.94,36.27c2.36-0.19,12.18-1.61,14.11-1.8" style="fill:none;stroke:#999;stroke-width:3" />
<path d="M1462.98,35.3c0.92,0.81,1.12,1.65,1.13,2.79c0.03,2.41-0.13,8.04-0.23,11.36c-0.02,0.72,0.17,1.5,1.86,1.26c3.85-0.55,9.28-1.22,13.24-1.91" style="fill:none;stroke:#999;stroke-width:3" />
<path d="M1494.53,33.25c3.85-0.55,12.87-1.92,16.82-2.68c1.64-0.32,2.38,1.62,2.01,2.86c-0.7,2.38-1.93,7.73-2.65,11.89" style="fill:none;stroke:#999;stroke-width:3" />
<path d="M1494.23,47.24c2.36-0.19,16.54-1.23,18.47-1.42" style="fill:none;stroke:#999;stroke-width:3" />
<path d="M1492.24,16.88c0.85,0.7,1.51,1.85,1.51,3.08c0,2.8-0.02,39.73-0.02,43.54" style="fill:none;stroke:#999;stroke-width:3" />
<path d="M1463.85,66.83c0.34,0.5,1.44,1.82,1.52,2.46c0.88,6.46,1.85,16.82,2.73,26.21" style="fill:none;stroke:#999;stroke-width:3" />
<path d="M1465.43,67.6c13.07-1.1,32.81-3.38,41.7-3.88c3.27-0.18,4.43,2.79,4.25,4.16c-0.65,5.01-2.13,17.37-4.01,26.32" style="fill:none;stroke:#999;stroke-width:3" />
<path d="M1485.6,66.46c0.73,0.52,1.51,2.42,1.5,3.16c-0.04,4.85,0.17,20.28,0.17,22.04" style="fill:none;stroke:black;stroke-width:3" />
<circle cx="1485.6" cy="66.46" r="5" stroke-width="0" fill="#FF2A00" opacity="0.7" />
<path d="M1538.25,21.76c0.58,0.38,3.7,0.46,4.28,0.35c2.71-0.51,13.71-1.12,20.21-1.68c0.89-0.08,2.53-0.27,3.26,0.04" style="fill:none;stroke:#999;stroke-width:3" />
<path d="M1550.57,24.52c0.87,0.88,1.48,2.78,1.48,3.48c0,5.95,0.02,46.62-0.15,50.57" style="fill:none;stroke:#999;stroke-width:3" />
<path d="M1538.75,49.18c0.49,0.27,3.95,0.31,4.45,0.25c2.88-0.36,13.53-2.43,17.52-2.82c0.61-0.06,2.85-0.11,3.77,0.13" style="fill:none;stroke:#999;stroke-width:3" />
<path d="M1537.75,86.07c0.59,0.33,2.85,0.76,3.72,0.15C1547.04,82.28 1554.5,77.05 1563.0,70.25" style="fill:none;stroke:#999;stroke-width:3" />
<path d="M1572.8,19.57c1.1,0.31,3.13,0.35,4.23,0.31c11.03-0.43,27.66-3.54,40.47-3.53c1.84,0,2.94,0.15,3.86,0.3" style="fill:none;stroke:#999;stroke-width:3" />
<path d="M1587.53,19.56c1,0.83,1.28,2.66,1.28,4.12c0,3.32-0.02,36.33-0.02,40.85" style="fill:none;stroke:#999;stroke-width:3" />
<path d="M1573.94,36.27c2.36-0.19,12.18-1.61,14.11-1.8" style="fill:none;stroke:#999;stroke-width:3" />
<path d="M1571.98,35.3c0.92,0.81,1.12,1.65,1.13,2.79c0.03,2.41-0.13,8.04-0.23,11.36c-0.02,0.72,0.17,1.5,1.86,1.26c3.85-0.55,9.28-1.22,13.24-1.91" style="fill:none;stroke:#999;stroke-width:3" />
<path d="M1603.53,33.25c3.85-0.55,12.87-1.92,16.82-2.68c1.64-0.32,2.38,1.62,2.01,2.86c-0.7,2.38-1.93,7.73-2.65,11.89" style="fill:none;stroke:#999;stroke-width:3" />
<path d="M1603.23,47.24c2.36-0.19,16.54-1.23,18.47-1.42" style="fill:none;stroke:#999;stroke-width:3" />
<path d="M1601.24,16.88c0.85,0.7,1.51,1.85,1.51,3.08c0,2.8-0.02,39.73-0.02,43.54" style="fill:none;stroke:#999;stroke-width:3" />
<path d="M1572.85,66.83c0.34,0.5,1.44,1.82,1.52,2.46c0.88,6.46,1.85,16.82,2.73,26.21" style="fill:none;stroke:#999;stroke-width:3" />
<path d="M1574.43,67.6c13.07-1.1,32.81-3.38,41.7-3.88c3.27-0.18,4.43,2.79,4.25,4.16c-0.65,5.01-2.13,17.37-4.01,26.32" style="fill:none;stroke:#999;stroke-width:3" />
<path d="M1594.6,66.46c0.73,0.52,1.51,2.42,1.5,3.16c-0.04,4.85,0.17,20.28,0.17,22.04" style="fill:none;stroke:#999;stroke-width:3" />
<path d="M1576.06,79.68c3.88-0.25,39.94-3.73,43.15-3.73" style="fill:none;stroke:black;stroke-width:3" />
<circle cx="1576.06" cy="79.68" r="5" stroke-width="0" fill="#FF2A00" opacity="0.7" />
<path d="M1647.25,21.76c0.58,0.38,3.7,0.46,4.28,0.35c2.71-0.51,13.71-1.12,20.21-1.68c0.89-0.08,2.53-0.27,3.26,0.04" style="fill:none;stroke:#999;stroke-width:3" />
<path d="M1659.57,24.52c0.87,0.88,1.48,2.78,1.48,3.48c0,5.95,0.02,46.62-0.15,50.57" style="fill:none;stroke:#999;stroke-width:3" />
<path d="M1647.75,49.18c0.49,0.27,3.95,0.31,4.45,0.25c2.88-0.36,13.53-2.43,17.52-2.82c0.61-0.06,2.85-0.11,3.77,0.13" style="fill:none;stroke:#999;stroke-width:3" />
<path d="M1646.75,86.07c0.59,0.33,2.85,0.76,3.72,0.15C1656.04,82.28 1663.5,77.05 1672.0,70.25" style="fill:none;stroke:#999;stroke-width:3" />
<path d="M1681.8,19.57c1.1,0.31,3.13,0.35,4.23,0.31c11.03-0.43,27.66-3.54,40.47-3.53c1.84,0,2.94,0.15,3.86,0.3" style="fill:none;stroke:#999;stroke-width:3" />
<path d="M1696.53,19.56c1,0.83,1.28,2.66,1.28,4.12c0,3.32-0.02,36.33-0.02,40.85" style="fill:none;stroke:#999;stroke-width:3" />
<path d="M1682.94,36.27c2.36-0.19,12.18-1.61,14.11-1.8" style="fill:none;stroke:#999;stroke-width:3" />
<path d="M1680.98,35.3c0.92,0.81,1.12,1.65,1.13,2.79c0.03,2.41-0.13,8.04-0.23,11.36c-0.02,0.72,0.17,1.5,1.86,1.26c3.85-0.55,9.28-1.22,13.24-1.91" style="fill:none;stroke:#999;stroke-width:3" />
<path d="M1712.53,33.25c3.85-0.55,12.87-1.92,16.82-2.68c1.64-0.32,2.38,1.62,2.01,2.86c-0.7,2.38-1.93,7.73-2.65,11.89" style="fill:none;stroke:#999;stroke-width:3" />
<path d="M1712.23,47.24c2.36-0.19,16.54-1.23,18.47-1.42" style="fill:none;stroke:#999;stroke-width:3" />
<path d="M1710.24,16.88c0.85,0.7,1.51,1.85,1.51,3.08c0,2.8-0.02,39.73-0.02,43.54" style="fill:none;stroke:#999;stroke-width:3" />
<path d="M1681.85,66.83c0.34,0.5,1.44,1.82,1.52,2.46c0.88,6.46,1.85,16.82,2.73,26.21" style="fill:none;stroke:#999;stroke-width:3" />
<path d="M1683.43,67.6c13.07-1.1,32.81-3.38,41.7-3.88c3.27-0.18,4.43,2.79,4.25,4.16c-0.65,5.01-2.13,17.37-4.01,26.32" style="fill:none;stroke:#999;stroke-width:3" />
<path d="M1703.6,66.46c0.73,0.52,1.51,2.42,1.5,3.16c-0.04,4.85,0.17,20.28,0.17,22.04" style="fill:none;stroke:#999;stroke-width:3" />
<path d="M1685.06,79.68c3.88-0.25,39.94-3.73,43.15-3.73" style="fill:none;stroke:#999;stroke-width:3" />
<path d="M1686.22,93.68C1697.75,93 1713.64,91.54 1725.47,91.4" style="fill:none;stroke:black;stroke-width:3" />
<circle cx="1686.22" cy="93.68" r="5" stroke-width="0" fill="#FF2A00" opacity="0.7" />
</svg>