<!-- 074e9 -->
<svg width="872px" height="109px" viewBox="0 0 872px 109px" xmlns="http://www.w3.org/2000/svg" xmlns:xlink="http://www.w3.org/1999/xlink" xml:space="preserve" version="1.1"  baseProfile="full">
<line x1="1" y1="1" x2="871" y2="1" style="stroke:#ddd;stroke-width:2" />
<line x1="1" y1="1" x2="1" y2="108" style="stroke:#ddd;stroke-width:2" />
<line x1="1" y1="108" x2="871" y2="108" style="stroke:#ddd;stroke-width:2" />
<line x1="871" y1="1" x2="871" y2="108" style="stroke:#ddd;stroke-width:2" />
<line x1="109" y1="1" x2="109" y2="108" style="stroke:#ddd;stroke-width:2" />
<line x1="218" y1="1" x2="218" y2="108" style="stroke:#ddd;stroke-width:2" />
<line x1="327" y1="1" x2="327" y2="108" style="stroke:#ddd;stroke-width:2" />
<line x1="436" y1="1" x2="436" y2="108" style="stroke:#ddd;stroke-width:2" />
<line x1="545" y1="1" x2="545" y2="108" style="stroke:#ddd;stroke-width:2" />
<line x1="654" y1="1" x2="654" y2="108" style="stroke:#ddd;stroke-width:2" />
<line x1="763" y1="1" x2="763" y2="108" style="stroke:#ddd;stroke-width:2" />
<line x1="1" y1="54" x2="871" y2="54" style="stroke:#ddd;stroke-width:2;stroke-dasharray:3 3" />
<line x1="55" y1="1" x2="55" y2="108" style="stroke:#ddd;stroke-width:2;stroke-dasharray:3 3" />
<line x1="164" y1="1" x2="164" y2="108" style="stroke:#ddd;stroke-width:2;stroke-dasharray:3 3" />
<line x1="273" y1="1" x2="273" y2="108" style="stroke:#ddd;stroke-width:2;stroke-dasharray:3 3" />
<line x1="382" y1="1" x2="382" y2="108" style="stroke:#ddd;stroke-width:2;stroke-dasharray:3 3" />
<line x1="491" y1="1" x2="491" y2="108" style="stroke:#ddd;stroke-width:2;stroke-dasharray:3 3" />
<line x1="600" y1="1" x2="600" y2="108" style="stroke:#ddd;stroke-width:2;stroke-dasharray:3 3" />
<line x1="709" y1="1" x2="709" y2="108" style="stroke:#ddd;stroke-width:2;stroke-dasharray:3 3" />
<line x1="818" y1="1" x2="818" y2="108" style="stroke:#ddd;stroke-width:2;stroke-dasharray:3 3" />
<path d="M11.55,18.75c1.12,0.57,3.17,0.7,4.28,0.57c8.91-1.05,25.32-2.64,32.29-2.89c1.86-0.07,2.98,0.27,3.91,0.56" style="fill:none;stroke:black;stroke-width:3" />
<circle cx="11.55" cy="18.75" r="5" stroke-width="0" fill="#FF2A00" opacity="0.7" />
<path d="M120.55,18.75c1.12,0.57,3.17,0.7,4.28,0.57c8.91-1.05,25.32-2.64,32.29-2.89c1.86-0.07,2.98,0.27,3.91,0.56" style="fill:none;stroke:#999;stroke-width:3" />
<path d="M 134.42000000000002,20.75 c 0.76,0.5 1.54,2.76 1.36,3.75 -1.45,7.75 -10.96125,56.475 -12.96125,64.705" style="fill:none;stroke:black;stroke-width:3" />
<circle cx="134.42000000000002" cy="20.75" r="5" stroke-width="0" fill="#FF2A00" opacity="0.7" />
<path d="M229.55,18.75c1.12,0.57,3.17,0.7,4.28,0.57c8.91-1.05,25.32-2.64,32.29-2.89c1.86-0.07,2.98,0.27,3.91,0.56" style="fill:none;stroke:#999;stroke-width:3" />
<path d="M 243.42000000000002,20.75 c 0.76,0.5 1.54,2.76 1.36,3.75 -1.45,7.75 -10.96125,56.475 -12.96125,64.705" style="fill:none;stroke:#999;stroke-width:3" />
<path d="M 228.866667,89.88625 c 0.772187,0.3775 1.658992,0.07062 2.860624,-0.533125 5.752813,-2.890435 13.997292,-7.124792 19.647292,-9.944792" style="fill:none;stroke:black;stroke-width:3" />
<circle cx="228.866667" cy="89.88625" r="5" stroke-width="0" fill="#FF2A00" opacity="0.7" />
<path d="M338.55,18.75c1.12,0.57,3.17,0.7,4.28,0.57c8.91-1.05,25.32-2.64,32.29-2.89c1.86-0.07,2.98,0.27,3.91,0.56" style="fill:none;stroke:#999;stroke-width:3" />
<path d="M 352.42,20.75 c 0.76,0.5 1.54,2.76 1.36,3.75 -1.45,7.75 -10.96125,56.475 -12.96125,64.705" style="fill:none;stroke:#999;stroke-width:3" />
<path d="M 337.866667,89.88625 c 0.772187,0.3775 1.658992,0.07062 2.860624,-0.533125 5.752813,-2.890435 13.997292,-7.124792 19.647292,-9.944792" style="fill:none;stroke:#999;stroke-width:3" />
<path d="M351.24,40.04c0.87,0.21,1.79,0.69,2.64,0.5c2.39-0.54,11.41-2.65,13.77-3.29c1.85-0.5,2.85,1,2.66,2.53c-0.57,4.49-1.5,18.73-2.24,31.51C367.0,89.75 368.25,93.82 398.73,93.82c23.52,0,25.25-3.07,25.25-12.54" style="fill:none;stroke:black;stroke-width:3" />
<circle cx="351.24" cy="40.04" r="5" stroke-width="0" fill="#FF2A00" opacity="0.7" />
<path d="M447.55,18.75c1.12,0.57,3.17,0.7,4.28,0.57c8.91-1.05,25.32-2.64,32.29-2.89c1.86-0.07,2.98,0.27,3.91,0.56" style="fill:none;stroke:#999;stroke-width:3" />
<path d="M 461.42,20.75 c 0.76,0.5 1.54,2.76 1.36,3.75 -1.45,7.75 -10.96125,56.475 -12.96125,64.705" style="fill:none;stroke:#999;stroke-width:3" />
<path d="M 446.866667,89.88625 c 0.772187,0.3775 1.658992,0.07062 2.860624,-0.533125 5.752813,-2.890435 13.997292,-7.124792 19.647292,-9.944792" style="fill:none;stroke:#999;stroke-width:3" />
<path d="M460.24,40.04c0.87,0.21,1.79,0.69,2.64,0.5c2.39-0.54,11.41-2.65,13.77-3.29c1.85-0.5,2.85,1,2.66,2.53c-0.57,4.49-1.5,18.73-2.24,31.51C476.0,89.75 477.25,93.82 507.73,93.82c23.52,0,25.25-3.07,25.25-12.54" style="fill:none;stroke:#999;stroke-width:3" />
<path d="M460.85,53.83c3.15,2.36,8.15,9.71,8.94,13.38" style="fill:none;stroke:black;stroke-width:3" />
<circle cx="460.85" cy="53.83" r="5" stroke-width="0" fill="#FF2A00" opacity="0.7" />
<path d="M556.55,18.75c1.12,0.57,3.17,0.7,4.28,0.57c8.91-1.05,25.32-2.64,32.29-2.89c1.86-0.07,2.98,0.27,3.91,0.56" style="fill:none;stroke:#999;stroke-width:3" />
<path d="M 570.4200000000001,20.75 c 0.76,0.5 1.54,2.76 1.36,3.75 -1.45,7.75 -10.96125,56.475 -12.96125,64.705" style="fill:none;stroke:#999;stroke-width:3" />
<path d="M 555.866667,89.88625 c 0.772187,0.3775 1.658992,0.07062 2.860624,-0.533125 5.752813,-2.890435 13.997292,-7.124792 19.647292,-9.944792" style="fill:none;stroke:#999;stroke-width:3" />
<path d="M569.24,40.04c0.87,0.21,1.79,0.69,2.64,0.5c2.39-0.54,11.41-2.65,13.77-3.29c1.85-0.5,2.85,1,2.66,2.53c-0.57,4.49-1.5,18.73-2.24,31.51C585.0,89.75 586.25,93.82 616.73,93.82c23.52,0,25.25-3.07,25.25-12.54" style="fill:none;stroke:#999;stroke-width:3" />
<path d="M569.85,53.83c3.15,2.36,8.15,9.71,8.94,13.38" style="fill:none;stroke:#999;stroke-width:3" />
<path d="M629.6,11.42c0.09,0.41-0.68,2.57-1.17,3.01c-3.76,3.36-13.31,8.9-29.98,13.57" style="fill:none;stroke:black;stroke-width:3" />
<circle cx="629.6" cy="11.42" r="5" stroke-width="0" fill="#FF2A00" opacity="0.7" />
<path d="M665.55,18.75c1.12,0.57,3.17,0.7,4.28,0.57c8.91-1.05,25.32-2.64,32.29-2.89c1.86-0.07,2.98,0.27,3.91,0.56" style="fill:none;stroke:#999;stroke-width:3" />
<path d="M 679.4200000000001,20.75 c 0.76,0.5 1.54,2.76 1.36,3.75 -1.45,7.75 -10.96125,56.475 -12.96125,64.705" style="fill:none;stroke:#999;stroke-width:3" />
<path d="M 664.866667,89.88625 c 0.772187,0.3775 1.658992,0.07062 2.860624,-0.533125 5.752813,-2.890435 13.997292,-7.124792 19.647292,-9.944792" style="fill:none;stroke:#999;stroke-width:3" />
<path d="M678.24,40.04c0.87,0.21,1.79,0.69,2.64,0.5c2.39-0.54,11.41-2.65,13.77-3.29c1.85-0.5,2.85,1,2.66,2.53c-0.57,4.49-1.5,18.73-2.24,31.51C694.0,89.75 695.25,93.82 725.73,93.82c23.52,0,25.25-3.07,25.25-12.54" style="fill:none;stroke:#999;stroke-width:3" />
<path d="M678.85,53.83c3.15,2.36,8.15,9.71,8.94,13.38" style="fill:none;stroke:#999;stroke-width:3" />
<path d="M738.6,11.42c0.09,0.41-0.68,2.57-1.17,3.01c-3.76,3.36-13.31,8.9-29.98,13.57" style="fill:none;stroke:#999;stroke-width:3" />
<path d="M702.93,46.45c0.98,0.39,3.42,0.48,4.39,0.39c11.3-1.08,22.2-2.49,41.08-3.08c1.63-0.05,2.61,0.18,3.42,0.38" style="fill:none;stroke:black;stroke-width:3" />
<circle cx="702.93" cy="46.45" r="5" stroke-width="0" fill="#FF2A00" opacity="0.7" />
<path d="M774.55,18.75c1.12,0.57,3.17,0.7,4.28,0.57c8.91-1.05,25.32-2.64,32.29-2.89c1.86-0.07,2.98,0.27,3.91,0.56" style="fill:none;stroke:#999;stroke-width:3" />
<path d="M 788.4200000000001,20.75 c 0.76,0.5 1.54,2.76 1.36,3.75 -1.45,7.75 -10.96125,56.475 -12.96125,64.705" style="fill:none;stroke:#999;stroke-width:3" />
<path d="M 773.866667,89.88625 c 0.772187,0.3775 1.658992,0.07062 2.860624,-0.533125 5.752813,-2.890435 13.997292,-7.124792 19.647292,-9.944792" style="fill:none;stroke:#999;stroke-width:3" />
<path d="M787.24,40.04c0.87,0.21,1.79,0.69,2.64,0.5c2.39-0.54,11.41-2.65,13.77-3.29c1.85-0.5,2.85,1,2.66,2.53c-0.57,4.49-1.5,18.73-2.24,31.51C803.0,89.75 804.25,93.82 834.73,93.82c23.52,0,25.25-3.07,25.25-12.54" style="fill:none;stroke:#999;stroke-width:3" />
<path d="M787.85,53.83c3.15,2.36,8.15,9.71,8.94,13.38" style="fill:none;stroke:#999;stroke-width:3" />
<path d="M847.6,11.42c0.09,0.41-0.68,2.57-1.17,3.01c-3.76,3.36-13.31,8.9-29.98,13.57" style="fill:none;stroke:#999;stroke-width:3" />
<path d="M811.93,46.45c0.98,0.39,3.42,0.48,4.39,0.39c11.3-1.08,22.2-2.49,41.08-3.08c1.63-0.05,2.61,0.18,3.42,0.38" style="fill:none;stroke:#999;stroke-width:3" />
<path d="M832.61,25.75c0.49,0.43,1.52,3.24,1.62,4.1c0.1,0.86-0.06,52.25-0.16,57.65" style="fill:none;stroke:black;stroke-width:3" />
<circle cx="832.61" cy="25.75" r="5" stroke-width="0" fill="#FF2A00" opacity="0.7" />
</svg>