<!-- 07504 -->
<svg width="1526px" height="109px" viewBox="0 0 1526px 109px" xmlns="http://www.w3.org/2000/svg" xmlns:xlink="http://www.w3.org/1999/xlink" xml:space="preserve" version="1.1"  baseProfile="full">
<line x1="1" y1="1" x2="1525" y2="1" style="stroke:#ddd;stroke-width:2" />
<line x1="1" y1="1" x2="1" y2="108" style="stroke:#ddd;stroke-width:2" />
<line x1="1" y1="108" x2="1525" y2="108" style="stroke:#ddd;stroke-width:2" />
<line x1="1525" y1="1" x2="1525" y2="108" style="stroke:#ddd;stroke-width:2" />
<line x1="109" y1="1" x2="109" y2="108" style="stroke:#ddd;stroke-width:2" />
<line x1="218" y1="1" x2="218" y2="108" style="stroke:#ddd;stroke-width:2" />
<line x1="327" y1="1" x2="327" y2="108" style="stroke:#ddd;stroke-width:2" />
<line x1="436" y1="1" x2="436" y2="108" style="stroke:#ddd;stroke-width:2" />
<line x1="545" y1="1" x2="545" y2="108" style="stroke:#ddd;stroke-width:2" />
<line x1="654" y1="1" x2="654" y2="108" style="stroke:#ddd;stroke-width:2" />
<line x1="763" y1="1" x2="763" y2="108" style="stroke:#ddd;stroke-width:2" />
<line x1="872" y1="1" x2="872" y2="108" style="stroke:#ddd;stroke-width:2" />
<line x1="981" y1="1" x2="981" y2="108" style="stroke:#ddd;stroke-width:2" />
<line x1="1090" y1="1" x2="1090" y2="108" style="stroke:#ddd;stroke-width:2" />
<line x1="1199" y1="1" x2="1199" y2="108" style="stroke:#ddd;stroke-width:2" />
<line x1="1308" y1="1" x2="1308" y2="108" style="stroke:#ddd;stroke-width:2" />
<line x1="1417" y1="1" x2="1417" y2="108" style="stroke:#ddd;stroke-width:2" />
<line x1="1" y1="54" x2="1525" y2="54" style="stroke:#ddd;stroke-width:2;stroke-dasharray:3 3" />
<line x1="55" y1="1" x2="55" y2="108" style="stroke:#ddd;stroke-width:2;stroke-dasharray:3 3" />
<line x1="164" y1="1" x2="164" y2="108" style="stroke:#ddd;stroke-width:2;stroke-dasharray:3 3" />
<line x1="273" y1="1" x2="273" y2="108" style="stroke:#ddd;stroke-width:2;stroke-dasharray:3 3" />
<line x1="382" y1="1" x2="382" y2="108" style="stroke:#ddd;stroke-width:2;stroke-dasharray:3 3" />
<line x1="491" y1="1" x2="491" y2="108" style="stroke:#ddd;stroke-width:2;stroke-dasharray:3 3" />
<line x1="600" y1="1" x2="600" y2="108" style="stroke:#ddd;stroke-width:2;stroke-dasharray:3 3" />
<line x1="709" y1="1" x2="709" y2="108" style="stroke:#ddd;stroke-width:2;stroke-dasharray:3 3" />
<line x1="818" y1="1" x2="818" y2="108" style="stroke:#ddd;stroke-width:2;stroke-dasharray:3 3" />
<line x1="927" y1="1" x2="927" y2="108" style="stroke:#ddd;stroke-width:2;stroke-dasharray:3 3" />
<line x1="1036" y1="1" x2="1036" y2="108" style="stroke:#ddd;stroke-width:2;stroke-dasharray:3 3" />
<line x1="1145" y1="1" x2="1145" y2="108" style="stroke:#ddd;stroke-width:2;stroke-dasharray:3 3" />
<line x1="1254" y1="1" x2="1254" y2="108" style="stroke:#ddd;stroke-width:2;stroke-dasharray:3 3" />
<line x1="1363" y1="1" x2="1363" y2="108" style="stroke:#ddd;stroke-width:2;stroke-dasharray:3 3" />
<line x1="1472" y1="1" x2="1472" y2="108" style="stroke:#ddd;stroke-width:2;stroke-dasharray:3 3" />
<path d="M11.37,19.62c1,0.19,2.83,0.24,3.83,0.19c6.37-0.33,27.97-2.41,34.14-2.19c1.66,0.06,2.66,0.09,3.5,0.19" style="fill:none;stroke:black;stroke-width:3" />
<circle cx="11.37" cy="19.62" r="5" stroke-width="0" fill="#FF2A00" opacity="0.7" />
<path d="M120.37,19.62c1,0.19,2.83,0.24,3.83,0.19c6.37-0.33,27.97-2.41,34.14-2.19c1.66,0.06,2.66,0.09,3.5,0.19" style="fill:none;stroke:#999;stroke-width:3" />
<path d="M123.66,30.12c0.25,0.36,0.5,0.66,0.61,1.1c0.86,3.55,1.89,14.33,2.47,20.71" style="fill:none;stroke:black;stroke-width:3" />
<circle cx="123.66" cy="30.12" r="5" stroke-width="0" fill="#FF2A00" opacity="0.7" />
<path d="M229.37,19.62c1,0.19,2.83,0.24,3.83,0.19c6.37-0.33,27.97-2.41,34.14-2.19c1.66,0.06,2.66,0.09,3.5,0.19" style="fill:none;stroke:#999;stroke-width:3" />
<path d="M232.66,30.12c0.25,0.36,0.5,0.66,0.61,1.1c0.86,3.55,1.89,14.33,2.47,20.71" style="fill:none;stroke:#999;stroke-width:3" />
<path d="M234.2,31.87c6.06-1.49,29.48-3.65,32.64-3.63c1.41,0.01,2.83,1.85,2.67,2.93c-0.68,4.47-2.25,13.65-3.7,20.09" style="fill:none;stroke:black;stroke-width:3" />
<circle cx="234.2" cy="31.87" r="5" stroke-width="0" fill="#FF2A00" opacity="0.7" />
<path d="M338.37,19.62c1,0.19,2.83,0.24,3.83,0.19c6.37-0.33,27.97-2.41,34.14-2.19c1.66,0.06,2.66,0.09,3.5,0.19" style="fill:none;stroke:#999;stroke-width:3" />
<path d="M341.65999999999997,30.12c0.25,0.36,0.5,0.66,0.61,1.1c0.86,3.55,1.89,14.33,2.47,20.71" style="fill:none;stroke:#999;stroke-width:3" />
<path d="M343.2,31.87c6.06-1.49,29.48-3.65,32.64-3.63c1.41,0.01,2.83,1.85,2.67,2.93c-0.68,4.47-2.25,13.65-3.7,20.09" style="fill:none;stroke:#999;stroke-width:3" />
<path d="M353.53,21.54c0.66,0.56,1.19,2.51,1.19,3.65c0,9.22,0.16,13.94,0.16,24.07" style="fill:none;stroke:black;stroke-width:3" />
<circle cx="353.53" cy="21.54" r="5" stroke-width="0" fill="#FF2A00" opacity="0.7" />
<path d="M447.37,19.62c1,0.19,2.83,0.24,3.83,0.19c6.37-0.33,27.97-2.41,34.14-2.19c1.66,0.06,2.66,0.09,3.5,0.19" style="fill:none;stroke:#999;stroke-width:3" />
<path d="M450.65999999999997,30.12c0.25,0.36,0.5,0.66,0.61,1.1c0.86,3.55,1.89,14.33,2.47,20.71" style="fill:none;stroke:#999;stroke-width:3" />
<path d="M452.2,31.87c6.06-1.49,29.48-3.65,32.64-3.63c1.41,0.01,2.83,1.85,2.67,2.93c-0.68,4.47-2.25,13.65-3.7,20.09" style="fill:none;stroke:#999;stroke-width:3" />
<path d="M462.53,21.54c0.66,0.56,1.19,2.51,1.19,3.65c0,9.22,0.16,13.94,0.16,24.07" style="fill:none;stroke:#999;stroke-width:3" />
<path d="M474.42,20.23c0.21,0.56,1.11,1.49,1.02,4.02c-0.17,4.52-0.52,16.58-0.95,25.01" style="fill:none;stroke:black;stroke-width:3" />
<circle cx="474.42" cy="20.23" r="5" stroke-width="0" fill="#FF2A00" opacity="0.7" />
<path d="M556.37,19.62c1,0.19,2.83,0.24,3.83,0.19c6.37-0.33,27.97-2.41,34.14-2.19c1.66,0.06,2.66,0.09,3.5,0.19" style="fill:none;stroke:#999;stroke-width:3" />
<path d="M559.66,30.12c0.25,0.36,0.5,0.66,0.61,1.1c0.86,3.55,1.89,14.33,2.47,20.71" style="fill:none;stroke:#999;stroke-width:3" />
<path d="M561.2,31.87c6.06-1.49,29.48-3.65,32.64-3.63c1.41,0.01,2.83,1.85,2.67,2.93c-0.68,4.47-2.25,13.65-3.7,20.09" style="fill:none;stroke:#999;stroke-width:3" />
<path d="M571.53,21.54c0.66,0.56,1.19,2.51,1.19,3.65c0,9.22,0.16,13.94,0.16,24.07" style="fill:none;stroke:#999;stroke-width:3" />
<path d="M583.4200000000001,20.23c0.21,0.56,1.11,1.49,1.02,4.02c-0.17,4.52-0.52,16.58-0.95,25.01" style="fill:none;stroke:#999;stroke-width:3" />
<path d="M562.99,50.49c3.67-0.16,25.2-1.98,29.86-2.14" style="fill:none;stroke:black;stroke-width:3" />
<circle cx="562.99" cy="50.49" r="5" stroke-width="0" fill="#FF2A00" opacity="0.7" />
<path d="M665.37,19.62c1,0.19,2.83,0.24,3.83,0.19c6.37-0.33,27.97-2.41,34.14-2.19c1.66,0.06,2.66,0.09,3.5,0.19" style="fill:none;stroke:#999;stroke-width:3" />
<path d="M668.66,30.12c0.25,0.36,0.5,0.66,0.61,1.1c0.86,3.55,1.89,14.33,2.47,20.71" style="fill:none;stroke:#999;stroke-width:3" />
<path d="M670.2,31.87c6.06-1.49,29.48-3.65,32.64-3.63c1.41,0.01,2.83,1.85,2.67,2.93c-0.68,4.47-2.25,13.65-3.7,20.09" style="fill:none;stroke:#999;stroke-width:3" />
<path d="M680.53,21.54c0.66,0.56,1.19,2.51,1.19,3.65c0,9.22,0.16,13.94,0.16,24.07" style="fill:none;stroke:#999;stroke-width:3" />
<path d="M692.4200000000001,20.23c0.21,0.56,1.11,1.49,1.02,4.02c-0.17,4.52-0.52,16.58-0.95,25.01" style="fill:none;stroke:#999;stroke-width:3" />
<path d="M671.99,50.49c3.67-0.16,25.2-1.98,29.86-2.14" style="fill:none;stroke:#999;stroke-width:3" />
<path d="M670.3,67.61c0.93,0.4,2.64,0.5,3.57,0.4c7.49-0.82,17.24-2.45,25.87-2.85c1.55-0.07,2.48,0.19,3.26,0.39" style="fill:none;stroke:black;stroke-width:3" />
<circle cx="670.3" cy="67.61" r="5" stroke-width="0" fill="#FF2A00" opacity="0.7" />
<path d="M774.37,19.62c1,0.19,2.83,0.24,3.83,0.19c6.37-0.33,27.97-2.41,34.14-2.19c1.66,0.06,2.66,0.09,3.5,0.19" style="fill:none;stroke:#999;stroke-width:3" />
<path d="M777.66,30.12c0.25,0.36,0.5,0.66,0.61,1.1c0.86,3.55,1.89,14.33,2.47,20.71" style="fill:none;stroke:#999;stroke-width:3" />
<path d="M779.2,31.87c6.06-1.49,29.48-3.65,32.64-3.63c1.41,0.01,2.83,1.85,2.67,2.93c-0.68,4.47-2.25,13.65-3.7,20.09" style="fill:none;stroke:#999;stroke-width:3" />
<path d="M789.53,21.54c0.66,0.56,1.19,2.51,1.19,3.65c0,9.22,0.16,13.94,0.16,24.07" style="fill:none;stroke:#999;stroke-width:3" />
<path d="M801.4200000000001,20.23c0.21,0.56,1.11,1.49,1.02,4.02c-0.17,4.52-0.52,16.58-0.95,25.01" style="fill:none;stroke:#999;stroke-width:3" />
<path d="M780.99,50.49c3.67-0.16,25.2-1.98,29.86-2.14" style="fill:none;stroke:#999;stroke-width:3" />
<path d="M779.3,67.61c0.93,0.4,2.64,0.5,3.57,0.4c7.49-0.82,17.24-2.45,25.87-2.85c1.55-0.07,2.48,0.19,3.26,0.39" style="fill:none;stroke:#999;stroke-width:3" />
<path d="M794.62,54.62c0.1,0.31,1.43,2.15,1.43,4.14c0,5.05-0.29,16.6-0.29,25.17" style="fill:none;stroke:black;stroke-width:3" />
<circle cx="794.62" cy="54.62" r="5" stroke-width="0" fill="#FF2A00" opacity="0.7" />
<path d="M883.37,19.62c1,0.19,2.83,0.24,3.83,0.19c6.37-0.33,27.97-2.41,34.14-2.19c1.66,0.06,2.66,0.09,3.5,0.19" style="fill:none;stroke:#999;stroke-width:3" />
<path d="M886.66,30.12c0.25,0.36,0.5,0.66,0.61,1.1c0.86,3.55,1.89,14.33,2.47,20.71" style="fill:none;stroke:#999;stroke-width:3" />
<path d="M888.2,31.87c6.06-1.49,29.48-3.65,32.64-3.63c1.41,0.01,2.83,1.85,2.67,2.93c-0.68,4.47-2.25,13.65-3.7,20.09" style="fill:none;stroke:#999;stroke-width:3" />
<path d="M898.53,21.54c0.66,0.56,1.19,2.51,1.19,3.65c0,9.22,0.16,13.94,0.16,24.07" style="fill:none;stroke:#999;stroke-width:3" />
<path d="M910.4200000000001,20.23c0.21,0.56,1.11,1.49,1.02,4.02c-0.17,4.52-0.52,16.58-0.95,25.01" style="fill:none;stroke:#999;stroke-width:3" />
<path d="M889.99,50.49c3.67-0.16,25.2-1.98,29.86-2.14" style="fill:none;stroke:#999;stroke-width:3" />
<path d="M888.3,67.61c0.93,0.4,2.64,0.5,3.57,0.4c7.49-0.82,17.24-2.45,25.87-2.85c1.55-0.07,2.48,0.19,3.26,0.39" style="fill:none;stroke:#999;stroke-width:3" />
<path d="M903.62,54.62c0.1,0.31,1.43,2.15,1.43,4.14c0,5.05-0.29,16.6-0.29,25.17" style="fill:none;stroke:#999;stroke-width:3" />
<path d="M886.75,89.39c0.76,1.25,2.65,1.53,3.4,1.25c12.6-4.64,20.6-8.14,31.29-13.1" style="fill:none;stroke:black;stroke-width:3" />
<circle cx="886.75" cy="89.39" r="5" stroke-width="0" fill="#FF2A00" opacity="0.7" />
<path d="M992.37,19.62c1,0.19,2.83,0.24,3.83,0.19c6.37-0.33,27.97-2.41,34.14-2.19c1.66,0.06,2.66,0.09,3.5,0.19" style="fill:none;stroke:#999;stroke-width:3" />
<path d="M995.66,30.12c0.25,0.36,0.5,0.66,0.61,1.1c0.86,3.55,1.89,14.33,2.47,20.71" style="fill:none;stroke:#999;stroke-width:3" />
<path d="M997.2,31.87c6.06-1.49,29.48-3.65,32.64-3.63c1.41,0.01,2.83,1.85,2.67,2.93c-0.68,4.47-2.25,13.65-3.7,20.09" style="fill:none;stroke:#999;stroke-width:3" />
<path d="M1007.53,21.54c0.66,0.56,1.19,2.51,1.19,3.65c0,9.22,0.16,13.94,0.16,24.07" style="fill:none;stroke:#999;stroke-width:3" />
<path d="M1019.4200000000001,20.23c0.21,0.56,1.11,1.49,1.02,4.02c-0.17,4.52-0.52,16.58-0.95,25.01" style="fill:none;stroke:#999;stroke-width:3" />
<path d="M998.99,50.49c3.67-0.16,25.2-1.98,29.86-2.14" style="fill:none;stroke:#999;stroke-width:3" />
<path d="M997.3,67.61c0.93,0.4,2.64,0.5,3.57,0.4c7.49-0.82,17.24-2.45,25.87-2.85c1.55-0.07,2.48,0.19,3.26,0.39" style="fill:none;stroke:#999;stroke-width:3" />
<path d="M1012.62,54.62c0.1,0.31,1.43,2.15,1.43,4.14c0,5.05-0.29,16.6-0.29,25.17" style="fill:none;stroke:#999;stroke-width:3" />
<path d="M995.75,89.39c0.76,1.25,2.65,1.53,3.4,1.25c12.6-4.64,20.6-8.14,31.29-13.1" style="fill:none;stroke:#999;stroke-width:3" />
<path d="M1040.3,21.2c1.05,0.54,2.99,0.67,4.04,0.54c8.41-0.99,22.41-2.99,29-3.23c1.76-0.06,2.81,0.26,3.69,0.53" style="fill:none;stroke:black;stroke-width:3" />
<circle cx="1040.3" cy="21.2" r="5" stroke-width="0" fill="#FF2A00" opacity="0.7" />
<path d="M1101.37,19.62c1,0.19,2.83,0.24,3.83,0.19c6.37-0.33,27.97-2.41,34.14-2.19c1.66,0.06,2.66,0.09,3.5,0.19" style="fill:none;stroke:#999;stroke-width:3" />
<path d="M1104.6599999999999,30.12c0.25,0.36,0.5,0.66,0.61,1.1c0.86,3.55,1.89,14.33,2.47,20.71" style="fill:none;stroke:#999;stroke-width:3" />
<path d="M1106.2,31.87c6.06-1.49,29.48-3.65,32.64-3.63c1.41,0.01,2.83,1.85,2.67,2.93c-0.68,4.47-2.25,13.65-3.7,20.09" style="fill:none;stroke:#999;stroke-width:3" />
<path d="M1116.53,21.54c0.66,0.56,1.19,2.51,1.19,3.65c0,9.22,0.16,13.94,0.16,24.07" style="fill:none;stroke:#999;stroke-width:3" />
<path d="M1128.42,20.23c0.21,0.56,1.11,1.49,1.02,4.02c-0.17,4.52-0.52,16.58-0.95,25.01" style="fill:none;stroke:#999;stroke-width:3" />
<path d="M1107.99,50.49c3.67-0.16,25.2-1.98,29.86-2.14" style="fill:none;stroke:#999;stroke-width:3" />
<path d="M1106.3,67.61c0.93,0.4,2.64,0.5,3.57,0.4c7.49-0.82,17.24-2.45,25.87-2.85c1.55-0.07,2.48,0.19,3.26,0.39" style="fill:none;stroke:#999;stroke-width:3" />
<path d="M1121.62,54.62c0.1,0.31,1.43,2.15,1.43,4.14c0,5.05-0.29,16.6-0.29,25.17" style="fill:none;stroke:#999;stroke-width:3" />
<path d="M1104.75,89.39c0.76,1.25,2.65,1.53,3.4,1.25c12.6-4.64,20.6-8.14,31.29-13.1" style="fill:none;stroke:#999;stroke-width:3" />
<path d="M1149.3,21.2c1.05,0.54,2.99,0.67,4.04,0.54c8.41-0.99,22.41-2.99,29-3.23c1.76-0.06,2.81,0.26,3.69,0.53" style="fill:none;stroke:#999;stroke-width:3" />
<path d="m 1157.92,24.25 c 0.76,0.5 1.565481,2.761123 1.36,3.75 -4.068957,19.581832 -8.025888,40.705157 -12.212084,60.211198" style="fill:none;stroke:black;stroke-width:3" />
<circle cx="1157.92" cy="24.25" r="5" stroke-width="0" fill="#FF2A00" opacity="0.7" />
<path d="M1210.37,19.62c1,0.19,2.83,0.24,3.83,0.19c6.37-0.33,27.97-2.41,34.14-2.19c1.66,0.06,2.66,0.09,3.5,0.19" style="fill:none;stroke:#999;stroke-width:3" />
<path d="M1213.6599999999999,30.12c0.25,0.36,0.5,0.66,0.61,1.1c0.86,3.55,1.89,14.33,2.47,20.71" style="fill:none;stroke:#999;stroke-width:3" />
<path d="M1215.2,31.87c6.06-1.49,29.48-3.65,32.64-3.63c1.41,0.01,2.83,1.85,2.67,2.93c-0.68,4.47-2.25,13.65-3.7,20.09" style="fill:none;stroke:#999;stroke-width:3" />
<path d="M1225.53,21.54c0.66,0.56,1.19,2.51,1.19,3.65c0,9.22,0.16,13.94,0.16,24.07" style="fill:none;stroke:#999;stroke-width:3" />
<path d="M1237.42,20.23c0.21,0.56,1.11,1.49,1.02,4.02c-0.17,4.52-0.52,16.58-0.95,25.01" style="fill:none;stroke:#999;stroke-width:3" />
<path d="M1216.99,50.49c3.67-0.16,25.2-1.98,29.86-2.14" style="fill:none;stroke:#999;stroke-width:3" />
<path d="M1215.3,67.61c0.93,0.4,2.64,0.5,3.57,0.4c7.49-0.82,17.24-2.45,25.87-2.85c1.55-0.07,2.48,0.19,3.26,0.39" style="fill:none;stroke:#999;stroke-width:3" />
<path d="M1230.62,54.62c0.1,0.31,1.43,2.15,1.43,4.14c0,5.05-0.29,16.6-0.29,25.17" style="fill:none;stroke:#999;stroke-width:3" />
<path d="M1213.75,89.39c0.76,1.25,2.65,1.53,3.4,1.25c12.6-4.64,20.6-8.14,31.29-13.1" style="fill:none;stroke:#999;stroke-width:3" />
<path d="M1258.3,21.2c1.05,0.54,2.99,0.67,4.04,0.54c8.41-0.99,22.41-2.99,29-3.23c1.76-0.06,2.81,0.26,3.69,0.53" style="fill:none;stroke:#999;stroke-width:3" />
<path d="m 1266.92,24.25 c 0.76,0.5 1.565481,2.761123 1.36,3.75 -4.068957,19.581832 -8.025888,40.705157 -12.212084,60.211198" style="fill:none;stroke:#999;stroke-width:3" />
<path d="m 1247.842448,91.327396 c 0.9425,0.349114 2.621198,0.146563 3.57026,-0.476354 C 1256.952708,87.621042 1270.86,80.32 1276.51,77.5" style="fill:none;stroke:black;stroke-width:3" />
<circle cx="1247.842448" cy="91.327396" r="5" stroke-width="0" fill="#FF2A00" opacity="0.7" />
<path d="M1319.37,19.62c1,0.19,2.83,0.24,3.83,0.19c6.37-0.33,27.97-2.41,34.14-2.19c1.66,0.06,2.66,0.09,3.5,0.19" style="fill:none;stroke:#999;stroke-width:3" />
<path d="M1322.6599999999999,30.12c0.25,0.36,0.5,0.66,0.61,1.1c0.86,3.55,1.89,14.33,2.47,20.71" style="fill:none;stroke:#999;stroke-width:3" />
<path d="M1324.2,31.87c6.06-1.49,29.48-3.65,32.64-3.63c1.41,0.01,2.83,1.85,2.67,2.93c-0.68,4.47-2.25,13.65-3.7,20.09" style="fill:none;stroke:#999;stroke-width:3" />
<path d="M1334.53,21.54c0.66,0.56,1.19,2.51,1.19,3.65c0,9.22,0.16,13.94,0.16,24.07" style="fill:none;stroke:#999;stroke-width:3" />
<path d="M1346.42,20.23c0.21,0.56,1.11,1.49,1.02,4.02c-0.17,4.52-0.52,16.58-0.95,25.01" style="fill:none;stroke:#999;stroke-width:3" />
<path d="M1325.99,50.49c3.67-0.16,25.2-1.98,29.86-2.14" style="fill:none;stroke:#999;stroke-width:3" />
<path d="M1324.3,67.61c0.93,0.4,2.64,0.5,3.57,0.4c7.49-0.82,17.24-2.45,25.87-2.85c1.55-0.07,2.48,0.19,3.26,0.39" style="fill:none;stroke:#999;stroke-width:3" />
<path d="M1339.62,54.62c0.1,0.31,1.43,2.15,1.43,4.14c0,5.05-0.29,16.6-0.29,25.17" style="fill:none;stroke:#999;stroke-width:3" />
<path d="M1322.75,89.39c0.76,1.25,2.65,1.53,3.4,1.25c12.6-4.64,20.6-8.14,31.29-13.1" style="fill:none;stroke:#999;stroke-width:3" />
<path d="M1367.3,21.2c1.05,0.54,2.99,0.67,4.04,0.54c8.41-0.99,22.41-2.99,29-3.23c1.76-0.06,2.81,0.26,3.69,0.53" style="fill:none;stroke:#999;stroke-width:3" />
<path d="m 1375.92,24.25 c 0.76,0.5 1.565481,2.761123 1.36,3.75 -4.068957,19.581832 -8.025888,40.705157 -12.212084,60.211198" style="fill:none;stroke:#999;stroke-width:3" />
<path d="m 1356.842448,91.327396 c 0.9425,0.349114 2.621198,0.146563 3.57026,-0.476354 C 1365.952708,87.621042 1379.86,80.32 1385.51,77.5" style="fill:none;stroke:#999;stroke-width:3" />
<path d="M1378.74,38.54c0.87,0.21,2.29-0.31,3.14-0.5c2.39-0.54,7.44-2.04,9.77-2.79c1-0.32,2.85,1,2.66,2.53C1393.74,42.27 1392.25,59 1390.57,72.8c-2.26,18.57-0.07,20.33,7.7,20.33c6.24,0,7.71-2.87,7.71-8.85" style="fill:none;stroke:black;stroke-width:3" />
<circle cx="1378.74" cy="38.54" r="5" stroke-width="0" fill="#FF2A00" opacity="0.7" />
<path d="M1428.37,19.62c1,0.19,2.83,0.24,3.83,0.19c6.37-0.33,27.97-2.41,34.14-2.19c1.66,0.06,2.66,0.09,3.5,0.19" style="fill:none;stroke:#999;stroke-width:3" />
<path d="M1431.6599999999999,30.12c0.25,0.36,0.5,0.66,0.61,1.1c0.86,3.55,1.89,14.33,2.47,20.71" style="fill:none;stroke:#999;stroke-width:3" />
<path d="M1433.2,31.87c6.06-1.49,29.48-3.65,32.64-3.63c1.41,0.01,2.83,1.85,2.67,2.93c-0.68,4.47-2.25,13.65-3.7,20.09" style="fill:none;stroke:#999;stroke-width:3" />
<path d="M1443.53,21.54c0.66,0.56,1.19,2.51,1.19,3.65c0,9.22,0.16,13.94,0.16,24.07" style="fill:none;stroke:#999;stroke-width:3" />
<path d="M1455.42,20.23c0.21,0.56,1.11,1.49,1.02,4.02c-0.17,4.52-0.52,16.58-0.95,25.01" style="fill:none;stroke:#999;stroke-width:3" />
<path d="M1434.99,50.49c3.67-0.16,25.2-1.98,29.86-2.14" style="fill:none;stroke:#999;stroke-width:3" />
<path d="M1433.3,67.61c0.93,0.4,2.64,0.5,3.57,0.4c7.49-0.82,17.24-2.45,25.87-2.85c1.55-0.07,2.48,0.19,3.26,0.39" style="fill:none;stroke:#999;stroke-width:3" />
<path d="M1448.62,54.62c0.1,0.31,1.43,2.15,1.43,4.14c0,5.05-0.29,16.6-0.29,25.17" style="fill:none;stroke:#999;stroke-width:3" />
<path d="M1431.75,89.39c0.76,1.25,2.65,1.53,3.4,1.25c12.6-4.64,20.6-8.14,31.29-13.1" style="fill:none;stroke:#999;stroke-width:3" />
<path d="M1476.3,21.2c1.05,0.54,2.99,0.67,4.04,0.54c8.41-0.99,22.41-2.99,29-3.23c1.76-0.06,2.81,0.26,3.69,0.53" style="fill:none;stroke:#999;stroke-width:3" />
<path d="m 1484.92,24.25 c 0.76,0.5 1.565481,2.761123 1.36,3.75 -4.068957,19.581832 -8.025888,40.705157 -12.212084,60.211198" style="fill:none;stroke:#999;stroke-width:3" />
<path d="m 1465.842448,91.327396 c 0.9425,0.349114 2.621198,0.146563 3.57026,-0.476354 C 1474.952708,87.621042 1488.86,80.32 1494.51,77.5" style="fill:none;stroke:#999;stroke-width:3" />
<path d="M1487.74,38.54c0.87,0.21,2.29-0.31,3.14-0.5c2.39-0.54,7.44-2.04,9.77-2.79c1-0.32,2.85,1,2.66,2.53C1502.74,42.27 1501.25,59 1499.57,72.8c-2.26,18.57-0.07,20.33,7.7,20.33c6.24,0,7.71-2.87,7.71-8.85" style="fill:none;stroke:#999;stroke-width:3" />
<path d="M1484.85,54.33c2.98,1.74,7.69,7.17,8.44,9.88" style="fill:none;stroke:black;stroke-width:3" />
<circle cx="1484.85" cy="54.33" r="5" stroke-width="0" fill="#FF2A00" opacity="0.7" />
</svg>