<!-- 0755b -->
<svg width="1090px" height="109px" viewBox="0 0 1090px 109px" xmlns="http://www.w3.org/2000/svg" xmlns:xlink="http://www.w3.org/1999/xlink" xml:space="preserve" version="1.1"  baseProfile="full">
<line x1="1" y1="1" x2="1089" y2="1" style="stroke:#ddd;stroke-width:2" />
<line x1="1" y1="1" x2="1" y2="108" style="stroke:#ddd;stroke-width:2" />
<line x1="1" y1="108" x2="1089" y2="108" style="stroke:#ddd;stroke-width:2" />
<line x1="1089" y1="1" x2="1089" y2="108" style="stroke:#ddd;stroke-width:2" />
<line x1="109" y1="1" x2="109" y2="108" style="stroke:#ddd;stroke-width:2" />
<line x1="218" y1="1" x2="218" y2="108" style="stroke:#ddd;stroke-width:2" />
<line x1="327" y1="1" x2="327" y2="108" style="stroke:#ddd;stroke-width:2" />
<line x1="436" y1="1" x2="436" y2="108" style="stroke:#ddd;stroke-width:2" />
<line x1="545" y1="1" x2="545" y2="108" style="stroke:#ddd;stroke-width:2" />
<line x1="654" y1="1" x2="654" y2="108" style="stroke:#ddd;stroke-width:2" />
<line x1="763" y1="1" x2="763" y2="108" style="stroke:#ddd;stroke-width:2" />
<line x1="872" y1="1" x2="872" y2="108" style="stroke:#ddd;stroke-width:2" />
<line x1="981" y1="1" x2="981" y2="108" style="stroke:#ddd;stroke-width:2" />
<line x1="1" y1="54" x2="1089" y2="54" style="stroke:#ddd;stroke-width:2;stroke-dasharray:3 3" />
<line x1="55" y1="1" x2="55" y2="108" style="stroke:#ddd;stroke-width:2;stroke-dasharray:3 3" />
<line x1="164" y1="1" x2="164" y2="108" style="stroke:#ddd;stroke-width:2;stroke-dasharray:3 3" />
<line x1="273" y1="1" x2="273" y2="108" style="stroke:#ddd;stroke-width:2;stroke-dasharray:3 3" />
<line x1="382" y1="1" x2="382" y2="108" style="stroke:#ddd;stroke-width:2;stroke-dasharray:3 3" />
<line x1="491" y1="1" x2="491" y2="108" style="stroke:#ddd;stroke-width:2;stroke-dasharray:3 3" />
<line x1="600" y1="1" x2="600" y2="108" style="stroke:#ddd;stroke-width:2;stroke-dasharray:3 3" />
<line x1="709" y1="1" x2="709" y2="108" style="stroke:#ddd;stroke-width:2;stroke-dasharray:3 3" />
<line x1="818" y1="1" x2="818" y2="108" style="stroke:#ddd;stroke-width:2;stroke-dasharray:3 3" />
<line x1="927" y1="1" x2="927" y2="108" style="stroke:#ddd;stroke-width:2;stroke-dasharray:3 3" />
<line x1="1036" y1="1" x2="1036" y2="108" style="stroke:#ddd;stroke-width:2;stroke-dasharray:3 3" />
<path d="M10.99,24.72c0.22,0.89,1.26,2.06,1.38,3.14c0.98,8.93,1.37,33.44,1.98,49.86" style="fill:none;stroke:black;stroke-width:3" />
<circle cx="10.99" cy="24.72" r="5" stroke-width="0" fill="#FF2A00" opacity="0.7" />
<path d="M119.99,24.72c0.22,0.89,1.26,2.06,1.38,3.14c0.98,8.93,1.37,33.44,1.98,49.86" style="fill:none;stroke:#999;stroke-width:3" />
<path d="M121.53,26.68c7.56-0.69,20.03-2.16,25.7-2.66c3.02-0.27,4.14,2.34,4.03,4.73c-0.39,8.73-1.38,32.54-2.32,47.07" style="fill:none;stroke:black;stroke-width:3" />
<circle cx="121.53" cy="26.68" r="5" stroke-width="0" fill="#FF2A00" opacity="0.7" />
<path d="M228.99,24.72c0.22,0.89,1.26,2.06,1.38,3.14c0.98,8.93,1.37,33.44,1.98,49.86" style="fill:none;stroke:#999;stroke-width:3" />
<path d="M230.53,26.68c7.56-0.69,20.03-2.16,25.7-2.66c3.02-0.27,4.14,2.34,4.03,4.73c-0.39,8.73-1.38,32.54-2.32,47.07" style="fill:none;stroke:#999;stroke-width:3" />
<path d="M243.63,27.49c0.47,0.6,1.07,2.49,1.08,3.22c0.21,12.1,0.09,35.41,0.09,42.55" style="fill:none;stroke:black;stroke-width:3" />
<circle cx="243.63" cy="27.49" r="5" stroke-width="0" fill="#FF2A00" opacity="0.7" />
<path d="M337.99,24.72c0.22,0.89,1.26,2.06,1.38,3.14c0.98,8.93,1.37,33.44,1.98,49.86" style="fill:none;stroke:#999;stroke-width:3" />
<path d="M339.53,26.68c7.56-0.69,20.03-2.16,25.7-2.66c3.02-0.27,4.14,2.34,4.03,4.73c-0.39,8.73-1.38,32.54-2.32,47.07" style="fill:none;stroke:#999;stroke-width:3" />
<path d="M352.63,27.49c0.47,0.6,1.07,2.49,1.08,3.22c0.21,12.1,0.09,35.41,0.09,42.55" style="fill:none;stroke:#999;stroke-width:3" />
<path d="M340.94,49.56c2.46-0.37,24.11-1.87,26.15-1.82" style="fill:none;stroke:black;stroke-width:3" />
<circle cx="340.94" cy="49.56" r="5" stroke-width="0" fill="#FF2A00" opacity="0.7" />
<path d="M446.99,24.72c0.22,0.89,1.26,2.06,1.38,3.14c0.98,8.93,1.37,33.44,1.98,49.86" style="fill:none;stroke:#999;stroke-width:3" />
<path d="M448.53,26.68c7.56-0.69,20.03-2.16,25.7-2.66c3.02-0.27,4.14,2.34,4.03,4.73c-0.39,8.73-1.38,32.54-2.32,47.07" style="fill:none;stroke:#999;stroke-width:3" />
<path d="M461.63,27.49c0.47,0.6,1.07,2.49,1.08,3.22c0.21,12.1,0.09,35.41,0.09,42.55" style="fill:none;stroke:#999;stroke-width:3" />
<path d="M449.94,49.56c2.46-0.37,24.11-1.87,26.15-1.82" style="fill:none;stroke:#999;stroke-width:3" />
<path d="M450.74,74.16c5.45,0.15,17.67-1.44,25.19-1.48" style="fill:none;stroke:black;stroke-width:3" />
<circle cx="450.74" cy="74.16" r="5" stroke-width="0" fill="#FF2A00" opacity="0.7" />
<path d="M555.99,24.72c0.22,0.89,1.26,2.06,1.38,3.14c0.98,8.93,1.37,33.44,1.98,49.86" style="fill:none;stroke:#999;stroke-width:3" />
<path d="M557.53,26.68c7.56-0.69,20.03-2.16,25.7-2.66c3.02-0.27,4.14,2.34,4.03,4.73c-0.39,8.73-1.38,32.54-2.32,47.07" style="fill:none;stroke:#999;stroke-width:3" />
<path d="M570.63,27.49c0.47,0.6,1.07,2.49,1.08,3.22c0.21,12.1,0.09,35.41,0.09,42.55" style="fill:none;stroke:#999;stroke-width:3" />
<path d="M558.94,49.56c2.46-0.37,24.11-1.87,26.15-1.82" style="fill:none;stroke:#999;stroke-width:3" />
<path d="M559.74,74.16c5.45,0.15,17.67-1.44,25.19-1.48" style="fill:none;stroke:#999;stroke-width:3" />
<path d="M613.42,11.25c0.06,0.92,0.28,2.44-0.12,3.71c-2.74,8.69-9.05,25.29-21.33,34.91" style="fill:none;stroke:black;stroke-width:3" />
<circle cx="613.42" cy="11.25" r="5" stroke-width="0" fill="#FF2A00" opacity="0.7" />
<path d="M664.99,24.72c0.22,0.89,1.26,2.06,1.38,3.14c0.98,8.93,1.37,33.44,1.98,49.86" style="fill:none;stroke:#999;stroke-width:3" />
<path d="M666.53,26.68c7.56-0.69,20.03-2.16,25.7-2.66c3.02-0.27,4.14,2.34,4.03,4.73c-0.39,8.73-1.38,32.54-2.32,47.07" style="fill:none;stroke:#999;stroke-width:3" />
<path d="M679.63,27.49c0.47,0.6,1.07,2.49,1.08,3.22c0.21,12.1,0.09,35.41,0.09,42.55" style="fill:none;stroke:#999;stroke-width:3" />
<path d="M667.94,49.56c2.46-0.37,24.11-1.87,26.15-1.82" style="fill:none;stroke:#999;stroke-width:3" />
<path d="M668.74,74.16c5.45,0.15,17.67-1.44,25.19-1.48" style="fill:none;stroke:#999;stroke-width:3" />
<path d="M722.42,11.25c0.06,0.92,0.28,2.44-0.12,3.71c-2.74,8.69-9.05,25.29-21.33,34.91" style="fill:none;stroke:#999;stroke-width:3" />
<path d="M722.62,17.1c3.87,5.9,20.12,24.63,24.4,28.95c1.45,1.47,3.31,2.09,4.75,2.51" style="fill:none;stroke:black;stroke-width:3" />
<circle cx="722.62" cy="17.1" r="5" stroke-width="0" fill="#FF2A00" opacity="0.7" />
<path d="M773.99,24.72c0.22,0.89,1.26,2.06,1.38,3.14c0.98,8.93,1.37,33.44,1.98,49.86" style="fill:none;stroke:#999;stroke-width:3" />
<path d="M775.53,26.68c7.56-0.69,20.03-2.16,25.7-2.66c3.02-0.27,4.14,2.34,4.03,4.73c-0.39,8.73-1.38,32.54-2.32,47.07" style="fill:none;stroke:#999;stroke-width:3" />
<path d="M788.63,27.49c0.47,0.6,1.07,2.49,1.08,3.22c0.21,12.1,0.09,35.41,0.09,42.55" style="fill:none;stroke:#999;stroke-width:3" />
<path d="M776.94,49.56c2.46-0.37,24.11-1.87,26.15-1.82" style="fill:none;stroke:#999;stroke-width:3" />
<path d="M777.74,74.16c5.45,0.15,17.67-1.44,25.19-1.48" style="fill:none;stroke:#999;stroke-width:3" />
<path d="M831.42,11.25c0.06,0.92,0.28,2.44-0.12,3.71c-2.74,8.69-9.05,25.29-21.33,34.91" style="fill:none;stroke:#999;stroke-width:3" />
<path d="M831.62,17.1c3.87,5.9,20.12,24.63,24.4,28.95c1.45,1.47,3.31,2.09,4.75,2.51" style="fill:none;stroke:#999;stroke-width:3" />
<path d="M836.6,38.58c0.07,0.59,0.25,1.59-0.14,2.36c-2.53,5.04-10.71,16.56-23.51,22.21" style="fill:none;stroke:black;stroke-width:3" />
<circle cx="836.6" cy="38.58" r="5" stroke-width="0" fill="#FF2A00" opacity="0.7" />
<path d="M882.99,24.72c0.22,0.89,1.26,2.06,1.38,3.14c0.98,8.93,1.37,33.44,1.98,49.86" style="fill:none;stroke:#999;stroke-width:3" />
<path d="M884.53,26.68c7.56-0.69,20.03-2.16,25.7-2.66c3.02-0.27,4.14,2.34,4.03,4.73c-0.39,8.73-1.38,32.54-2.32,47.07" style="fill:none;stroke:#999;stroke-width:3" />
<path d="M897.63,27.49c0.47,0.6,1.07,2.49,1.08,3.22c0.21,12.1,0.09,35.41,0.09,42.55" style="fill:none;stroke:#999;stroke-width:3" />
<path d="M885.94,49.56c2.46-0.37,24.11-1.87,26.15-1.82" style="fill:none;stroke:#999;stroke-width:3" />
<path d="M886.74,74.16c5.45,0.15,17.67-1.44,25.19-1.48" style="fill:none;stroke:#999;stroke-width:3" />
<path d="M940.42,11.25c0.06,0.92,0.28,2.44-0.12,3.71c-2.74,8.69-9.05,25.29-21.33,34.91" style="fill:none;stroke:#999;stroke-width:3" />
<path d="M940.62,17.1c3.87,5.9,20.12,24.63,24.4,28.95c1.45,1.47,3.31,2.09,4.75,2.51" style="fill:none;stroke:#999;stroke-width:3" />
<path d="M945.6,38.58c0.07,0.59,0.25,1.59-0.14,2.36c-2.53,5.04-10.71,16.56-23.51,22.21" style="fill:none;stroke:#999;stroke-width:3" />
<path d="M954.12,52.89c0.09,0.63,0.33,1.73-0.18,2.54c-3.5,5.54-14.93,16.62-32.08,24.27" style="fill:none;stroke:black;stroke-width:3" />
<circle cx="954.12" cy="52.89" r="5" stroke-width="0" fill="#FF2A00" opacity="0.7" />
<path d="M991.99,24.72c0.22,0.89,1.26,2.06,1.38,3.14c0.98,8.93,1.37,33.44,1.98,49.86" style="fill:none;stroke:#999;stroke-width:3" />
<path d="M993.53,26.68c7.56-0.69,20.03-2.16,25.7-2.66c3.02-0.27,4.14,2.34,4.03,4.73c-0.39,8.73-1.38,32.54-2.32,47.07" style="fill:none;stroke:#999;stroke-width:3" />
<path d="M1006.63,27.49c0.47,0.6,1.07,2.49,1.08,3.22c0.21,12.1,0.09,35.41,0.09,42.55" style="fill:none;stroke:#999;stroke-width:3" />
<path d="M994.94,49.56c2.46-0.37,24.11-1.87,26.15-1.82" style="fill:none;stroke:#999;stroke-width:3" />
<path d="M995.74,74.16c5.45,0.15,17.67-1.44,25.19-1.48" style="fill:none;stroke:#999;stroke-width:3" />
<path d="M1049.42,11.25c0.06,0.92,0.28,2.44-0.12,3.71c-2.74,8.69-9.05,25.29-21.33,34.91" style="fill:none;stroke:#999;stroke-width:3" />
<path d="M1049.62,17.1c3.87,5.9,20.12,24.63,24.4,28.95c1.45,1.47,3.31,2.09,4.75,2.51" style="fill:none;stroke:#999;stroke-width:3" />
<path d="M1054.6,38.58c0.07,0.59,0.25,1.59-0.14,2.36c-2.53,5.04-10.71,16.56-23.51,22.21" style="fill:none;stroke:#999;stroke-width:3" />
<path d="M1063.12,52.89c0.09,0.63,0.33,1.73-0.18,2.54c-3.5,5.54-14.93,16.62-32.08,24.27" style="fill:none;stroke:#999;stroke-width:3" />
<path d="M1071.27,66.6c0.13,0.75,0.28,1.94-0.26,3.02c-3.22,6.36-21.67,20.33-46.94,28.88" style="fill:none;stroke:black;stroke-width:3" />
<circle cx="1071.27" cy="66.6" r="5" stroke-width="0" fill="#FF2A00" opacity="0.7" />
</svg>