<!-- 075d8 -->
<svg width="1308px" height="109px" viewBox="0 0 1308px 109px" xmlns="http://www.w3.org/2000/svg" xmlns:xlink="http://www.w3.org/1999/xlink" xml:space="preserve" version="1.1"  baseProfile="full">
<line x1="1" y1="1" x2="1307" y2="1" style="stroke:#ddd;stroke-width:2" />
<line x1="1" y1="1" x2="1" y2="108" style="stroke:#ddd;stroke-width:2" />
<line x1="1" y1="108" x2="1307" y2="108" style="stroke:#ddd;stroke-width:2" />
<line x1="1307" y1="1" x2="1307" y2="108" style="stroke:#ddd;stroke-width:2" />
<line x1="109" y1="1" x2="109" y2="108" style="stroke:#ddd;stroke-width:2" />
<line x1="218" y1="1" x2="218" y2="108" style="stroke:#ddd;stroke-width:2" />
<line x1="327" y1="1" x2="327" y2="108" style="stroke:#ddd;stroke-width:2" />
<line x1="436" y1="1" x2="436" y2="108" style="stroke:#ddd;stroke-width:2" />
<line x1="545" y1="1" x2="545" y2="108" style="stroke:#ddd;stroke-width:2" />
<line x1="654" y1="1" x2="654" y2="108" style="stroke:#ddd;stroke-width:2" />
<line x1="763" y1="1" x2="763" y2="108" style="stroke:#ddd;stroke-width:2" />
<line x1="872" y1="1" x2="872" y2="108" style="stroke:#ddd;stroke-width:2" />
<line x1="981" y1="1" x2="981" y2="108" style="stroke:#ddd;stroke-width:2" />
<line x1="1090" y1="1" x2="1090" y2="108" style="stroke:#ddd;stroke-width:2" />
<line x1="1199" y1="1" x2="1199" y2="108" style="stroke:#ddd;stroke-width:2" />
<line x1="1" y1="54" x2="1307" y2="54" style="stroke:#ddd;stroke-width:2;stroke-dasharray:3 3" />
<line x1="55" y1="1" x2="55" y2="108" style="stroke:#ddd;stroke-width:2;stroke-dasharray:3 3" />
<line x1="164" y1="1" x2="164" y2="108" style="stroke:#ddd;stroke-width:2;stroke-dasharray:3 3" />
<line x1="273" y1="1" x2="273" y2="108" style="stroke:#ddd;stroke-width:2;stroke-dasharray:3 3" />
<line x1="382" y1="1" x2="382" y2="108" style="stroke:#ddd;stroke-width:2;stroke-dasharray:3 3" />
<line x1="491" y1="1" x2="491" y2="108" style="stroke:#ddd;stroke-width:2;stroke-dasharray:3 3" />
<line x1="600" y1="1" x2="600" y2="108" style="stroke:#ddd;stroke-width:2;stroke-dasharray:3 3" />
<line x1="709" y1="1" x2="709" y2="108" style="stroke:#ddd;stroke-width:2;stroke-dasharray:3 3" />
<line x1="818" y1="1" x2="818" y2="108" style="stroke:#ddd;stroke-width:2;stroke-dasharray:3 3" />
<line x1="927" y1="1" x2="927" y2="108" style="stroke:#ddd;stroke-width:2;stroke-dasharray:3 3" />
<line x1="1036" y1="1" x2="1036" y2="108" style="stroke:#ddd;stroke-width:2;stroke-dasharray:3 3" />
<line x1="1145" y1="1" x2="1145" y2="108" style="stroke:#ddd;stroke-width:2;stroke-dasharray:3 3" />
<line x1="1254" y1="1" x2="1254" y2="108" style="stroke:#ddd;stroke-width:2;stroke-dasharray:3 3" />
<path d="M55.81,13.63c1.03,1.03,1.51,2.37,1.51,3.9c0,0.79,0.08,2.65-0.07,7.46" style="fill:none;stroke:black;stroke-width:3" />
<circle cx="55.81" cy="13.63" r="5" stroke-width="0" fill="#FF2A00" opacity="0.7" />
<path d="M164.81,13.63c1.03,1.03,1.51,2.37,1.51,3.9c0,0.79,0.08,2.65-0.07,7.46" style="fill:none;stroke:#999;stroke-width:3" />
<path d="M134.88,27.48c2.38,0.85,5.17,0.7,7.62,0.43c16.37-1.78,34.81-3.13,48.38-3.98c2.65-0.17,5.14-0.17,7.75,0.39" style="fill:none;stroke:black;stroke-width:3" />
<circle cx="134.88" cy="27.48" r="5" stroke-width="0" fill="#FF2A00" opacity="0.7" />
<path d="M273.81,13.63c1.03,1.03,1.51,2.37,1.51,3.9c0,0.79,0.08,2.65-0.07,7.46" style="fill:none;stroke:#999;stroke-width:3" />
<path d="M243.88,27.48c2.38,0.85,5.17,0.7,7.62,0.43c16.37-1.78,34.81-3.13,48.38-3.98c2.65-0.17,5.14-0.17,7.75,0.39" style="fill:none;stroke:#999;stroke-width:3" />
<path d="M247.74,28.75c1.07,1.07,1.27,2.51,1.24,3.49C248.25,57 245.88,76.25 233.31,94.47" style="fill:none;stroke:black;stroke-width:3" />
<circle cx="247.74" cy="28.75" r="5" stroke-width="0" fill="#FF2A00" opacity="0.7" />
<path d="M382.81,13.63c1.03,1.03,1.51,2.37,1.51,3.9c0,0.79,0.08,2.65-0.07,7.46" style="fill:none;stroke:#999;stroke-width:3" />
<path d="M352.88,27.48c2.38,0.85,5.17,0.7,7.62,0.43c16.37-1.78,34.81-3.13,48.38-3.98c2.65-0.17,5.14-0.17,7.75,0.39" style="fill:none;stroke:#999;stroke-width:3" />
<path d="M356.74,28.75c1.07,1.07,1.27,2.51,1.24,3.49C357.25,57 354.88,76.25 342.31,94.47" style="fill:none;stroke:#999;stroke-width:3" />
<path d="M340.12,39.62C342.9,41.5 347.3,47.33 348.0,50.25" style="fill:none;stroke:black;stroke-width:3" />
<circle cx="340.12" cy="39.62" r="5" stroke-width="0" fill="#FF2A00" opacity="0.7" />
<path d="M491.81,13.63c1.03,1.03,1.51,2.37,1.51,3.9c0,0.79,0.08,2.65-0.07,7.46" style="fill:none;stroke:#999;stroke-width:3" />
<path d="M461.88,27.48c2.38,0.85,5.17,0.7,7.62,0.43c16.37-1.78,34.81-3.13,48.38-3.98c2.65-0.17,5.14-0.17,7.75,0.39" style="fill:none;stroke:#999;stroke-width:3" />
<path d="M465.74,28.75c1.07,1.07,1.27,2.51,1.24,3.49C466.25,57 463.88,76.25 451.31,94.47" style="fill:none;stroke:#999;stroke-width:3" />
<path d="M449.12,39.62C451.9,41.5 456.3,47.33 457.0,50.25" style="fill:none;stroke:#999;stroke-width:3" />
<path d="M446.3,67.57c0.95,0.43,2.02,0.59,3.38-0.42C455.17,63.09 458.34,60.5 462.5,57" style="fill:none;stroke:black;stroke-width:3" />
<circle cx="446.3" cy="67.57" r="5" stroke-width="0" fill="#FF2A00" opacity="0.7" />
<path d="M600.81,13.63c1.03,1.03,1.51,2.37,1.51,3.9c0,0.79,0.08,2.65-0.07,7.46" style="fill:none;stroke:#999;stroke-width:3" />
<path d="M570.88,27.48c2.38,0.85,5.17,0.7,7.62,0.43c16.37-1.78,34.81-3.13,48.38-3.98c2.65-0.17,5.14-0.17,7.75,0.39" style="fill:none;stroke:#999;stroke-width:3" />
<path d="M574.74,28.75c1.07,1.07,1.27,2.51,1.24,3.49C575.25,57 572.88,76.25 560.31,94.47" style="fill:none;stroke:#999;stroke-width:3" />
<path d="M558.12,39.62C560.9,41.5 565.3,47.33 566.0,50.25" style="fill:none;stroke:#999;stroke-width:3" />
<path d="M555.3,67.57c0.95,0.43,2.02,0.59,3.38-0.42C564.1700000000001,63.09 567.3399999999999,60.5 571.5,57" style="fill:none;stroke:#999;stroke-width:3" />
<path d="M585.52,40.87c2.6,0.21,4.71-0.08,7.36-0.39c8.6-0.99,17.99-1.99,28.61-2.94c2-0.18,4.13-0.27,6.09,0.2" style="fill:none;stroke:black;stroke-width:3" />
<circle cx="585.52" cy="40.87" r="5" stroke-width="0" fill="#FF2A00" opacity="0.7" />
<path d="M709.81,13.63c1.03,1.03,1.51,2.37,1.51,3.9c0,0.79,0.08,2.65-0.07,7.46" style="fill:none;stroke:#999;stroke-width:3" />
<path d="M679.88,27.48c2.38,0.85,5.17,0.7,7.62,0.43c16.37-1.78,34.81-3.13,48.38-3.98c2.65-0.17,5.14-0.17,7.75,0.39" style="fill:none;stroke:#999;stroke-width:3" />
<path d="M683.74,28.75c1.07,1.07,1.27,2.51,1.24,3.49C684.25,57 681.88,76.25 669.31,94.47" style="fill:none;stroke:#999;stroke-width:3" />
<path d="M667.12,39.62C669.9,41.5 674.3,47.33 675.0,50.25" style="fill:none;stroke:#999;stroke-width:3" />
<path d="M664.3,67.57c0.95,0.43,2.02,0.59,3.38-0.42C673.1700000000001,63.09 676.3399999999999,60.5 680.5,57" style="fill:none;stroke:#999;stroke-width:3" />
<path d="M694.52,40.87c2.6,0.21,4.71-0.08,7.36-0.39c8.6-0.99,17.99-1.99,28.61-2.94c2-0.18,4.13-0.27,6.09,0.2" style="fill:none;stroke:#999;stroke-width:3" />
<path d="M696.96,51.83c0.86,0.85,1.34,1.58,1.66,3.29c0.61,3.2,1.39,7.5,2.38,12.39c0.23,1.14,0.46,2.27,0.68,3.36" style="fill:none;stroke:black;stroke-width:3" />
<circle cx="696.96" cy="51.83" r="5" stroke-width="0" fill="#FF2A00" opacity="0.7" />
<path d="M818.81,13.63c1.03,1.03,1.51,2.37,1.51,3.9c0,0.79,0.08,2.65-0.07,7.46" style="fill:none;stroke:#999;stroke-width:3" />
<path d="M788.88,27.48c2.38,0.85,5.17,0.7,7.62,0.43c16.37-1.78,34.81-3.13,48.38-3.98c2.65-0.17,5.14-0.17,7.75,0.39" style="fill:none;stroke:#999;stroke-width:3" />
<path d="M792.74,28.75c1.07,1.07,1.27,2.51,1.24,3.49C793.25,57 790.88,76.25 778.31,94.47" style="fill:none;stroke:#999;stroke-width:3" />
<path d="M776.12,39.62C778.9,41.5 783.3,47.33 784.0,50.25" style="fill:none;stroke:#999;stroke-width:3" />
<path d="M773.3,67.57c0.95,0.43,2.02,0.59,3.38-0.42C782.1700000000001,63.09 785.3399999999999,60.5 789.5,57" style="fill:none;stroke:#999;stroke-width:3" />
<path d="M803.52,40.87c2.6,0.21,4.71-0.08,7.36-0.39c8.6-0.99,17.99-1.99,28.61-2.94c2-0.18,4.13-0.27,6.09,0.2" style="fill:none;stroke:#999;stroke-width:3" />
<path d="M805.96,51.83c0.86,0.85,1.34,1.58,1.66,3.29c0.61,3.2,1.39,7.5,2.38,12.39c0.23,1.14,0.46,2.27,0.68,3.36" style="fill:none;stroke:#999;stroke-width:3" />
<path d="M807.86,52.66c7-0.64,24.08-2.41,30.51-2.73c3.1-0.16,4.87,0.63,4.01,3.95c-0.82,3.19-2.01,7-3.51,11.67" style="fill:none;stroke:black;stroke-width:3" />
<circle cx="807.86" cy="52.66" r="5" stroke-width="0" fill="#FF2A00" opacity="0.7" />
<path d="M927.81,13.63c1.03,1.03,1.51,2.37,1.51,3.9c0,0.79,0.08,2.65-0.07,7.46" style="fill:none;stroke:#999;stroke-width:3" />
<path d="M897.88,27.48c2.38,0.85,5.17,0.7,7.62,0.43c16.37-1.78,34.81-3.13,48.38-3.98c2.65-0.17,5.14-0.17,7.75,0.39" style="fill:none;stroke:#999;stroke-width:3" />
<path d="M901.74,28.75c1.07,1.07,1.27,2.51,1.24,3.49C902.25,57 899.88,76.25 887.31,94.47" style="fill:none;stroke:#999;stroke-width:3" />
<path d="M885.12,39.62C887.9,41.5 892.3,47.33 893.0,50.25" style="fill:none;stroke:#999;stroke-width:3" />
<path d="M882.3,67.57c0.95,0.43,2.02,0.59,3.38-0.42C891.1700000000001,63.09 894.3399999999999,60.5 898.5,57" style="fill:none;stroke:#999;stroke-width:3" />
<path d="M912.52,40.87c2.6,0.21,4.71-0.08,7.36-0.39c8.6-0.99,17.99-1.99,28.61-2.94c2-0.18,4.13-0.27,6.09,0.2" style="fill:none;stroke:#999;stroke-width:3" />
<path d="M914.96,51.83c0.86,0.85,1.34,1.58,1.66,3.29c0.61,3.2,1.39,7.5,2.38,12.39c0.23,1.14,0.46,2.27,0.68,3.36" style="fill:none;stroke:#999;stroke-width:3" />
<path d="M916.86,52.66c7-0.64,24.08-2.41,30.51-2.73c3.1-0.16,4.87,0.63,4.01,3.95c-0.82,3.19-2.01,7-3.51,11.67" style="fill:none;stroke:#999;stroke-width:3" />
<path d="M920.33,69.14C927.0,68.5 937.11,67.6 945.5,66.99c1.84-0.13,3.51-0.22,4.89-0.24" style="fill:none;stroke:black;stroke-width:3" />
<circle cx="920.33" cy="69.14" r="5" stroke-width="0" fill="#FF2A00" opacity="0.7" />
<path d="M1036.81,13.63c1.03,1.03,1.51,2.37,1.51,3.9c0,0.79,0.08,2.65-0.07,7.46" style="fill:none;stroke:#999;stroke-width:3" />
<path d="M1006.88,27.48c2.38,0.85,5.17,0.7,7.62,0.43c16.37-1.78,34.81-3.13,48.38-3.98c2.65-0.17,5.14-0.17,7.75,0.39" style="fill:none;stroke:#999;stroke-width:3" />
<path d="M1010.74,28.75c1.07,1.07,1.27,2.51,1.24,3.49C1011.25,57 1008.88,76.25 996.31,94.47" style="fill:none;stroke:#999;stroke-width:3" />
<path d="M994.12,39.62C996.9,41.5 1001.3,47.33 1002.0,50.25" style="fill:none;stroke:#999;stroke-width:3" />
<path d="M991.3,67.57c0.95,0.43,2.02,0.59,3.38-0.42C1000.1700000000001,63.09 1003.3399999999999,60.5 1007.5,57" style="fill:none;stroke:#999;stroke-width:3" />
<path d="M1021.52,40.87c2.6,0.21,4.71-0.08,7.36-0.39c8.6-0.99,17.99-1.99,28.61-2.94c2-0.18,4.13-0.27,6.09,0.2" style="fill:none;stroke:#999;stroke-width:3" />
<path d="M1023.96,51.83c0.86,0.85,1.34,1.58,1.66,3.29c0.61,3.2,1.39,7.5,2.38,12.39c0.23,1.14,0.46,2.27,0.68,3.36" style="fill:none;stroke:#999;stroke-width:3" />
<path d="M1025.8600000000001,52.66c7-0.64,24.08-2.41,30.51-2.73c3.1-0.16,4.87,0.63,4.01,3.95c-0.82,3.19-2.01,7-3.51,11.67" style="fill:none;stroke:#999;stroke-width:3" />
<path d="M1029.33,69.14C1036.0,68.5 1046.1100000000001,67.6 1054.5,66.99c1.84-0.13,3.51-0.22,4.89-0.24" style="fill:none;stroke:#999;stroke-width:3" />
<path d="M1028.17,76.47c2.17,1.94,5.6,8,6.14,11.02" style="fill:none;stroke:black;stroke-width:3" />
<circle cx="1028.17" cy="76.47" r="5" stroke-width="0" fill="#FF2A00" opacity="0.7" />
<path d="M1145.81,13.63c1.03,1.03,1.51,2.37,1.51,3.9c0,0.79,0.08,2.65-0.07,7.46" style="fill:none;stroke:#999;stroke-width:3" />
<path d="M1115.88,27.48c2.38,0.85,5.17,0.7,7.62,0.43c16.37-1.78,34.81-3.13,48.38-3.98c2.65-0.17,5.14-0.17,7.75,0.39" style="fill:none;stroke:#999;stroke-width:3" />
<path d="M1119.74,28.75c1.07,1.07,1.27,2.51,1.24,3.49C1120.25,57 1117.88,76.25 1105.31,94.47" style="fill:none;stroke:#999;stroke-width:3" />
<path d="M1103.12,39.62C1105.9,41.5 1110.3,47.33 1111.0,50.25" style="fill:none;stroke:#999;stroke-width:3" />
<path d="M1100.3,67.57c0.95,0.43,2.02,0.59,3.38-0.42C1109.17,63.09 1112.34,60.5 1116.5,57" style="fill:none;stroke:#999;stroke-width:3" />
<path d="M1130.52,40.87c2.6,0.21,4.71-0.08,7.36-0.39c8.6-0.99,17.99-1.99,28.61-2.94c2-0.18,4.13-0.27,6.09,0.2" style="fill:none;stroke:#999;stroke-width:3" />
<path d="M1132.96,51.83c0.86,0.85,1.34,1.58,1.66,3.29c0.61,3.2,1.39,7.5,2.38,12.39c0.23,1.14,0.46,2.27,0.68,3.36" style="fill:none;stroke:#999;stroke-width:3" />
<path d="M1134.8600000000001,52.66c7-0.64,24.08-2.41,30.51-2.73c3.1-0.16,4.87,0.63,4.01,3.95c-0.82,3.19-2.01,7-3.51,11.67" style="fill:none;stroke:#999;stroke-width:3" />
<path d="M1138.33,69.14C1145.0,68.5 1155.1100000000001,67.6 1163.5,66.99c1.84-0.13,3.51-0.22,4.89-0.24" style="fill:none;stroke:#999;stroke-width:3" />
<path d="M1137.17,76.47c2.17,1.94,5.6,8,6.14,11.02" style="fill:none;stroke:#999;stroke-width:3" />
<path d="M1166.48,71.53c0.02,0.44,0.22,1.19-0.05,1.77c-2.1,4.43-4.05,8.58-7.44,14.15" style="fill:none;stroke:black;stroke-width:3" />
<circle cx="1166.48" cy="71.53" r="5" stroke-width="0" fill="#FF2A00" opacity="0.7" />
<path d="M1254.81,13.63c1.03,1.03,1.51,2.37,1.51,3.9c0,0.79,0.08,2.65-0.07,7.46" style="fill:none;stroke:#999;stroke-width:3" />
<path d="M1224.88,27.48c2.38,0.85,5.17,0.7,7.62,0.43c16.37-1.78,34.81-3.13,48.38-3.98c2.65-0.17,5.14-0.17,7.75,0.39" style="fill:none;stroke:#999;stroke-width:3" />
<path d="M1228.74,28.75c1.07,1.07,1.27,2.51,1.24,3.49C1229.25,57 1226.88,76.25 1214.31,94.47" style="fill:none;stroke:#999;stroke-width:3" />
<path d="M1212.12,39.62C1214.9,41.5 1219.3,47.33 1220.0,50.25" style="fill:none;stroke:#999;stroke-width:3" />
<path d="M1209.3,67.57c0.95,0.43,2.02,0.59,3.38-0.42C1218.17,63.09 1221.34,60.5 1225.5,57" style="fill:none;stroke:#999;stroke-width:3" />
<path d="M1239.52,40.87c2.6,0.21,4.71-0.08,7.36-0.39c8.6-0.99,17.99-1.99,28.61-2.94c2-0.18,4.13-0.27,6.09,0.2" style="fill:none;stroke:#999;stroke-width:3" />
<path d="M1241.96,51.83c0.86,0.85,1.34,1.58,1.66,3.29c0.61,3.2,1.39,7.5,2.38,12.39c0.23,1.14,0.46,2.27,0.68,3.36" style="fill:none;stroke:#999;stroke-width:3" />
<path d="M1243.8600000000001,52.66c7-0.64,24.08-2.41,30.51-2.73c3.1-0.16,4.87,0.63,4.01,3.95c-0.82,3.19-2.01,7-3.51,11.67" style="fill:none;stroke:#999;stroke-width:3" />
<path d="M1247.33,69.14C1254.0,68.5 1264.1100000000001,67.6 1272.5,66.99c1.84-0.13,3.51-0.22,4.89-0.24" style="fill:none;stroke:#999;stroke-width:3" />
<path d="M1246.17,76.47c2.17,1.94,5.6,8,6.14,11.02" style="fill:none;stroke:#999;stroke-width:3" />
<path d="M1275.48,71.53c0.02,0.44,0.22,1.19-0.05,1.77c-2.1,4.43-4.05,8.58-7.44,14.15" style="fill:none;stroke:#999;stroke-width:3" />
<path d="M1229.07,92.03c3.81,0.72,6.94,0.48,10.05,0.19c13.89-1.29,33.26-2.48,47-2.96c3.5-0.12,6.9,0.09,10.31,0.82" style="fill:none;stroke:black;stroke-width:3" />
<circle cx="1229.07" cy="92.03" r="5" stroke-width="0" fill="#FF2A00" opacity="0.7" />
</svg>