<!-- 075e3 -->
<svg width="1308px" height="109px" viewBox="0 0 1308px 109px" xmlns="http://www.w3.org/2000/svg" xmlns:xlink="http://www.w3.org/1999/xlink" xml:space="preserve" version="1.1"  baseProfile="full">
<line x1="1" y1="1" x2="1307" y2="1" style="stroke:#ddd;stroke-width:2" />
<line x1="1" y1="1" x2="1" y2="108" style="stroke:#ddd;stroke-width:2" />
<line x1="1" y1="108" x2="1307" y2="108" style="stroke:#ddd;stroke-width:2" />
<line x1="1307" y1="1" x2="1307" y2="108" style="stroke:#ddd;stroke-width:2" />
<line x1="109" y1="1" x2="109" y2="108" style="stroke:#ddd;stroke-width:2" />
<line x1="218" y1="1" x2="218" y2="108" style="stroke:#ddd;stroke-width:2" />
<line x1="327" y1="1" x2="327" y2="108" style="stroke:#ddd;stroke-width:2" />
<line x1="436" y1="1" x2="436" y2="108" style="stroke:#ddd;stroke-width:2" />
<line x1="545" y1="1" x2="545" y2="108" style="stroke:#ddd;stroke-width:2" />
<line x1="654" y1="1" x2="654" y2="108" style="stroke:#ddd;stroke-width:2" />
<line x1="763" y1="1" x2="763" y2="108" style="stroke:#ddd;stroke-width:2" />
<line x1="872" y1="1" x2="872" y2="108" style="stroke:#ddd;stroke-width:2" />
<line x1="981" y1="1" x2="981" y2="108" style="stroke:#ddd;stroke-width:2" />
<line x1="1090" y1="1" x2="1090" y2="108" style="stroke:#ddd;stroke-width:2" />
<line x1="1199" y1="1" x2="1199" y2="108" style="stroke:#ddd;stroke-width:2" />
<line x1="1" y1="54" x2="1307" y2="54" style="stroke:#ddd;stroke-width:2;stroke-dasharray:3 3" />
<line x1="55" y1="1" x2="55" y2="108" style="stroke:#ddd;stroke-width:2;stroke-dasharray:3 3" />
<line x1="164" y1="1" x2="164" y2="108" style="stroke:#ddd;stroke-width:2;stroke-dasharray:3 3" />
<line x1="273" y1="1" x2="273" y2="108" style="stroke:#ddd;stroke-width:2;stroke-dasharray:3 3" />
<line x1="382" y1="1" x2="382" y2="108" style="stroke:#ddd;stroke-width:2;stroke-dasharray:3 3" />
<line x1="491" y1="1" x2="491" y2="108" style="stroke:#ddd;stroke-width:2;stroke-dasharray:3 3" />
<line x1="600" y1="1" x2="600" y2="108" style="stroke:#ddd;stroke-width:2;stroke-dasharray:3 3" />
<line x1="709" y1="1" x2="709" y2="108" style="stroke:#ddd;stroke-width:2;stroke-dasharray:3 3" />
<line x1="818" y1="1" x2="818" y2="108" style="stroke:#ddd;stroke-width:2;stroke-dasharray:3 3" />
<line x1="927" y1="1" x2="927" y2="108" style="stroke:#ddd;stroke-width:2;stroke-dasharray:3 3" />
<line x1="1036" y1="1" x2="1036" y2="108" style="stroke:#ddd;stroke-width:2;stroke-dasharray:3 3" />
<line x1="1145" y1="1" x2="1145" y2="108" style="stroke:#ddd;stroke-width:2;stroke-dasharray:3 3" />
<line x1="1254" y1="1" x2="1254" y2="108" style="stroke:#ddd;stroke-width:2;stroke-dasharray:3 3" />
<path d="M55.41,10.13c0.7,0.36,2.18,2.66,2.32,3.37c0.14,0.71,0.07,5.3-0.07,9.74" style="fill:none;stroke:black;stroke-width:3" />
<circle cx="55.41" cy="10.13" r="5" stroke-width="0" fill="#FF2A00" opacity="0.7" />
<path d="M164.41,10.13c0.7,0.36,2.18,2.66,2.32,3.37c0.14,0.71,0.07,5.3-0.07,9.74" style="fill:none;stroke:#999;stroke-width:3" />
<path d="M136.13,24.23c1.89,0.54,5.35,0.63,7.24,0.54c19.66-0.91,33.65-2.02,51.15-2.73c3.14-0.13,5.04,0.26,6.61,0.53" style="fill:none;stroke:black;stroke-width:3" />
<circle cx="136.13" cy="24.23" r="5" stroke-width="0" fill="#FF2A00" opacity="0.7" />
<path d="M273.40999999999997,10.13c0.7,0.36,2.18,2.66,2.32,3.37c0.14,0.71,0.07,5.3-0.07,9.74" style="fill:none;stroke:#999;stroke-width:3" />
<path d="M245.13,24.23c1.89,0.54,5.35,0.63,7.24,0.54c19.66-0.91,33.65-2.02,51.15-2.73c3.14-0.13,5.04,0.26,6.61,0.53" style="fill:none;stroke:#999;stroke-width:3" />
<path d="M249.49,25c0,37.62-3.74,55.5-18.69,70.47" style="fill:none;stroke:black;stroke-width:3" />
<circle cx="249.49" cy="25.0" r="5" stroke-width="0" fill="#FF2A00" opacity="0.7" />
<path d="M382.40999999999997,10.13c0.7,0.36,2.18,2.66,2.32,3.37c0.14,0.71,0.07,5.3-0.07,9.74" style="fill:none;stroke:#999;stroke-width:3" />
<path d="M354.13,24.23c1.89,0.54,5.35,0.63,7.24,0.54c19.66-0.91,33.65-2.02,51.15-2.73c3.14-0.13,5.04,0.26,6.61,0.53" style="fill:none;stroke:#999;stroke-width:3" />
<path d="M358.49,25c0,37.62-3.74,55.5-18.69,70.47" style="fill:none;stroke:#999;stroke-width:3" />
<path d="M339.75,36.75c3.62,1.94,9.34,7.98,10.25,11" style="fill:none;stroke:black;stroke-width:3" />
<circle cx="339.75" cy="36.75" r="5" stroke-width="0" fill="#FF2A00" opacity="0.7" />
<path d="M491.40999999999997,10.13c0.7,0.36,2.18,2.66,2.32,3.37c0.14,0.71,0.07,5.3-0.07,9.74" style="fill:none;stroke:#999;stroke-width:3" />
<path d="M463.13,24.23c1.89,0.54,5.35,0.63,7.24,0.54c19.66-0.91,33.65-2.02,51.15-2.73c3.14-0.13,5.04,0.26,6.61,0.53" style="fill:none;stroke:#999;stroke-width:3" />
<path d="M467.49,25c0,37.62-3.74,55.5-18.69,70.47" style="fill:none;stroke:#999;stroke-width:3" />
<path d="M448.75,36.75c3.62,1.94,9.34,7.98,10.25,11" style="fill:none;stroke:#999;stroke-width:3" />
<path d="M445.67,65.07c1.44,0.61,1.88,0.43,3.15-0.31c5.11-3,9.56-4.92,13.43-7.51" style="fill:none;stroke:black;stroke-width:3" />
<circle cx="445.67" cy="65.07" r="5" stroke-width="0" fill="#FF2A00" opacity="0.7" />
<path d="M600.41,10.13c0.7,0.36,2.18,2.66,2.32,3.37c0.14,0.71,0.07,5.3-0.07,9.74" style="fill:none;stroke:#999;stroke-width:3" />
<path d="M572.13,24.23c1.89,0.54,5.35,0.63,7.24,0.54c19.66-0.91,33.65-2.02,51.15-2.73c3.14-0.13,5.04,0.26,6.61,0.53" style="fill:none;stroke:#999;stroke-width:3" />
<path d="M576.49,25c0,37.62-3.74,55.5-18.69,70.47" style="fill:none;stroke:#999;stroke-width:3" />
<path d="M557.75,36.75c3.62,1.94,9.34,7.98,10.25,11" style="fill:none;stroke:#999;stroke-width:3" />
<path d="M554.6700000000001,65.07c1.44,0.61,1.88,0.43,3.15-0.31c5.11-3,9.56-4.92,13.43-7.51" style="fill:none;stroke:#999;stroke-width:3" />
<path d="M583.77,42.05c1.22,0.35,3.47,0.41,4.69,0.35c12.73-0.59,28.23-3.15,42.78-3.12c2.04,0,3.26,0.17,4.28,0.34" style="fill:none;stroke:black;stroke-width:3" />
<circle cx="583.77" cy="42.05" r="5" stroke-width="0" fill="#FF2A00" opacity="0.7" />
<path d="M709.41,10.13c0.7,0.36,2.18,2.66,2.32,3.37c0.14,0.71,0.07,5.3-0.07,9.74" style="fill:none;stroke:#999;stroke-width:3" />
<path d="M681.13,24.23c1.89,0.54,5.35,0.63,7.24,0.54c19.66-0.91,33.65-2.02,51.15-2.73c3.14-0.13,5.04,0.26,6.61,0.53" style="fill:none;stroke:#999;stroke-width:3" />
<path d="M685.49,25c0,37.62-3.74,55.5-18.69,70.47" style="fill:none;stroke:#999;stroke-width:3" />
<path d="M666.75,36.75c3.62,1.94,9.34,7.98,10.25,11" style="fill:none;stroke:#999;stroke-width:3" />
<path d="M663.6700000000001,65.07c1.44,0.61,1.88,0.43,3.15-0.31c5.11-3,9.56-4.92,13.43-7.51" style="fill:none;stroke:#999;stroke-width:3" />
<path d="M692.77,42.05c1.22,0.35,3.47,0.41,4.69,0.35c12.73-0.59,28.23-3.15,42.78-3.12c2.04,0,3.26,0.17,4.28,0.34" style="fill:none;stroke:#999;stroke-width:3" />
<path d="M715.08,30.25c0.98,1,1.84,2.64,1.84,3.31c0,5.29,0,19.75-0.16,23.8" style="fill:none;stroke:black;stroke-width:3" />
<circle cx="715.08" cy="30.25" r="5" stroke-width="0" fill="#FF2A00" opacity="0.7" />
<path d="M818.41,10.13c0.7,0.36,2.18,2.66,2.32,3.37c0.14,0.71,0.07,5.3-0.07,9.74" style="fill:none;stroke:#999;stroke-width:3" />
<path d="M790.13,24.23c1.89,0.54,5.35,0.63,7.24,0.54c19.66-0.91,33.65-2.02,51.15-2.73c3.14-0.13,5.04,0.26,6.61,0.53" style="fill:none;stroke:#999;stroke-width:3" />
<path d="M794.49,25c0,37.62-3.74,55.5-18.69,70.47" style="fill:none;stroke:#999;stroke-width:3" />
<path d="M775.75,36.75c3.62,1.94,9.34,7.98,10.25,11" style="fill:none;stroke:#999;stroke-width:3" />
<path d="M772.6700000000001,65.07c1.44,0.61,1.88,0.43,3.15-0.31c5.11-3,9.56-4.92,13.43-7.51" style="fill:none;stroke:#999;stroke-width:3" />
<path d="M801.77,42.05c1.22,0.35,3.47,0.41,4.69,0.35c12.73-0.59,28.23-3.15,42.78-3.12c2.04,0,3.26,0.17,4.28,0.34" style="fill:none;stroke:#999;stroke-width:3" />
<path d="M824.08,30.25c0.98,1,1.84,2.64,1.84,3.31c0,5.29,0,19.75-0.16,23.8" style="fill:none;stroke:#999;stroke-width:3" />
<path d="M805.29,58.28c1.15,0.24,3.27,0.3,4.42,0.24C819.75,58 835.5,56.5 845.19,56.25c1.92-0.05,3.08,0.11,4.04,0.23" style="fill:none;stroke:black;stroke-width:3" />
<circle cx="805.29" cy="58.28" r="5" stroke-width="0" fill="#FF2A00" opacity="0.7" />
<path d="M927.41,10.13c0.7,0.36,2.18,2.66,2.32,3.37c0.14,0.71,0.07,5.3-0.07,9.74" style="fill:none;stroke:#999;stroke-width:3" />
<path d="M899.13,24.23c1.89,0.54,5.35,0.63,7.24,0.54c19.66-0.91,33.65-2.02,51.15-2.73c3.14-0.13,5.04,0.26,6.61,0.53" style="fill:none;stroke:#999;stroke-width:3" />
<path d="M903.49,25c0,37.62-3.74,55.5-18.69,70.47" style="fill:none;stroke:#999;stroke-width:3" />
<path d="M884.75,36.75c3.62,1.94,9.34,7.98,10.25,11" style="fill:none;stroke:#999;stroke-width:3" />
<path d="M881.6700000000001,65.07c1.44,0.61,1.88,0.43,3.15-0.31c5.11-3,9.56-4.92,13.43-7.51" style="fill:none;stroke:#999;stroke-width:3" />
<path d="M910.77,42.05c1.22,0.35,3.47,0.41,4.69,0.35c12.73-0.59,28.23-3.15,42.78-3.12c2.04,0,3.26,0.17,4.28,0.34" style="fill:none;stroke:#999;stroke-width:3" />
<path d="M933.08,30.25c0.98,1,1.84,2.64,1.84,3.31c0,5.29,0,19.75-0.16,23.8" style="fill:none;stroke:#999;stroke-width:3" />
<path d="M914.29,58.28c1.15,0.24,3.27,0.3,4.42,0.24C928.75,58 944.5,56.5 954.19,56.25c1.92-0.05,3.08,0.11,4.04,0.23" style="fill:none;stroke:#999;stroke-width:3" />
<path d="M911.51,77.66c0.35,2.11-3.48,11.45-6.26,14.98" style="fill:none;stroke:black;stroke-width:3" />
<circle cx="911.51" cy="77.66" r="5" stroke-width="0" fill="#FF2A00" opacity="0.7" />
<path d="M1036.4099999999999,10.13c0.7,0.36,2.18,2.66,2.32,3.37c0.14,0.71,0.07,5.3-0.07,9.74" style="fill:none;stroke:#999;stroke-width:3" />
<path d="M1008.13,24.23c1.89,0.54,5.35,0.63,7.24,0.54c19.66-0.91,33.65-2.02,51.15-2.73c3.14-0.13,5.04,0.26,6.61,0.53" style="fill:none;stroke:#999;stroke-width:3" />
<path d="M1012.49,25c0,37.62-3.74,55.5-18.69,70.47" style="fill:none;stroke:#999;stroke-width:3" />
<path d="M993.75,36.75c3.62,1.94,9.34,7.98,10.25,11" style="fill:none;stroke:#999;stroke-width:3" />
<path d="M990.6700000000001,65.07c1.44,0.61,1.88,0.43,3.15-0.31c5.11-3,9.56-4.92,13.43-7.51" style="fill:none;stroke:#999;stroke-width:3" />
<path d="M1019.77,42.05c1.22,0.35,3.47,0.41,4.69,0.35c12.73-0.59,28.23-3.15,42.78-3.12c2.04,0,3.26,0.17,4.28,0.34" style="fill:none;stroke:#999;stroke-width:3" />
<path d="M1042.08,30.25c0.98,1,1.84,2.64,1.84,3.31c0,5.29,0,19.75-0.16,23.8" style="fill:none;stroke:#999;stroke-width:3" />
<path d="M1023.29,58.28c1.15,0.24,3.27,0.3,4.42,0.24C1037.75,58 1053.5,56.5 1063.19,56.25c1.92-0.05,3.08,0.11,4.04,0.23" style="fill:none;stroke:#999;stroke-width:3" />
<path d="M1020.51,77.66c0.35,2.11-3.48,11.45-6.26,14.98" style="fill:none;stroke:#999;stroke-width:3" />
<path d="M1028.62,70.21C1033.75,86.25 1044.5,98.25 1063.69,98.3c7.31,0.02,8.06-2.55,2.56-8.09" style="fill:none;stroke:black;stroke-width:3" />
<circle cx="1028.62" cy="70.21" r="5" stroke-width="0" fill="#FF2A00" opacity="0.7" />
<path d="M1145.4099999999999,10.13c0.7,0.36,2.18,2.66,2.32,3.37c0.14,0.71,0.07,5.3-0.07,9.74" style="fill:none;stroke:#999;stroke-width:3" />
<path d="M1117.13,24.23c1.89,0.54,5.35,0.63,7.24,0.54c19.66-0.91,33.65-2.02,51.15-2.73c3.14-0.13,5.04,0.26,6.61,0.53" style="fill:none;stroke:#999;stroke-width:3" />
<path d="M1121.49,25c0,37.62-3.74,55.5-18.69,70.47" style="fill:none;stroke:#999;stroke-width:3" />
<path d="M1102.75,36.75c3.62,1.94,9.34,7.98,10.25,11" style="fill:none;stroke:#999;stroke-width:3" />
<path d="M1099.67,65.07c1.44,0.61,1.88,0.43,3.15-0.31c5.11-3,9.56-4.92,13.43-7.51" style="fill:none;stroke:#999;stroke-width:3" />
<path d="M1128.77,42.05c1.22,0.35,3.47,0.41,4.69,0.35c12.73-0.59,28.23-3.15,42.78-3.12c2.04,0,3.26,0.17,4.28,0.34" style="fill:none;stroke:#999;stroke-width:3" />
<path d="M1151.08,30.25c0.98,1,1.84,2.64,1.84,3.31c0,5.29,0,19.75-0.16,23.8" style="fill:none;stroke:#999;stroke-width:3" />
<path d="M1132.29,58.28c1.15,0.24,3.27,0.3,4.42,0.24C1146.75,58 1162.5,56.5 1172.19,56.25c1.92-0.05,3.08,0.11,4.04,0.23" style="fill:none;stroke:#999;stroke-width:3" />
<path d="M1129.51,77.66c0.35,2.11-3.48,11.45-6.26,14.98" style="fill:none;stroke:#999;stroke-width:3" />
<path d="M1137.62,70.21C1142.75,86.25 1153.5,98.25 1172.69,98.3c7.31,0.02,8.06-2.55,2.56-8.09" style="fill:none;stroke:#999;stroke-width:3" />
<path d="M1154.12,72.92c1.88,5.33,5.97,7.19,6.92,2.96" style="fill:none;stroke:black;stroke-width:3" />
<circle cx="1154.12" cy="72.92" r="5" stroke-width="0" fill="#FF2A00" opacity="0.7" />
<path d="M1254.4099999999999,10.13c0.7,0.36,2.18,2.66,2.32,3.37c0.14,0.71,0.07,5.3-0.07,9.74" style="fill:none;stroke:#999;stroke-width:3" />
<path d="M1226.13,24.23c1.89,0.54,5.35,0.63,7.24,0.54c19.66-0.91,33.65-2.02,51.15-2.73c3.14-0.13,5.04,0.26,6.61,0.53" style="fill:none;stroke:#999;stroke-width:3" />
<path d="M1230.49,25c0,37.62-3.74,55.5-18.69,70.47" style="fill:none;stroke:#999;stroke-width:3" />
<path d="M1211.75,36.75c3.62,1.94,9.34,7.98,10.25,11" style="fill:none;stroke:#999;stroke-width:3" />
<path d="M1208.67,65.07c1.44,0.61,1.88,0.43,3.15-0.31c5.11-3,9.56-4.92,13.43-7.51" style="fill:none;stroke:#999;stroke-width:3" />
<path d="M1237.77,42.05c1.22,0.35,3.47,0.41,4.69,0.35c12.73-0.59,28.23-3.15,42.78-3.12c2.04,0,3.26,0.17,4.28,0.34" style="fill:none;stroke:#999;stroke-width:3" />
<path d="M1260.08,30.25c0.98,1,1.84,2.64,1.84,3.31c0,5.29,0,19.75-0.16,23.8" style="fill:none;stroke:#999;stroke-width:3" />
<path d="M1241.29,58.28c1.15,0.24,3.27,0.3,4.42,0.24C1255.75,58 1271.5,56.5 1281.19,56.25c1.92-0.05,3.08,0.11,4.04,0.23" style="fill:none;stroke:#999;stroke-width:3" />
<path d="M1238.51,77.66c0.35,2.11-3.48,11.45-6.26,14.98" style="fill:none;stroke:#999;stroke-width:3" />
<path d="M1246.62,70.21C1251.75,86.25 1262.5,98.25 1281.69,98.3c7.31,0.02,8.06-2.55,2.56-8.09" style="fill:none;stroke:#999;stroke-width:3" />
<path d="M1263.12,72.92c1.88,5.33,5.97,7.19,6.92,2.96" style="fill:none;stroke:#999;stroke-width:3" />
<path d="M1284.83,69.39c5.04,2.29,8.82,4.37,12.92,11.44" style="fill:none;stroke:black;stroke-width:3" />
<circle cx="1284.83" cy="69.39" r="5" stroke-width="0" fill="#FF2A00" opacity="0.7" />
</svg>