<!-- 076b9 -->
<svg width="1526px" height="109px" viewBox="0 0 1526px 109px" xmlns="http://www.w3.org/2000/svg" xmlns:xlink="http://www.w3.org/1999/xlink" xml:space="preserve" version="1.1"  baseProfile="full">
<line x1="1" y1="1" x2="1525" y2="1" style="stroke:#ddd;stroke-width:2" />
<line x1="1" y1="1" x2="1" y2="108" style="stroke:#ddd;stroke-width:2" />
<line x1="1" y1="108" x2="1525" y2="108" style="stroke:#ddd;stroke-width:2" />
<line x1="1525" y1="1" x2="1525" y2="108" style="stroke:#ddd;stroke-width:2" />
<line x1="109" y1="1" x2="109" y2="108" style="stroke:#ddd;stroke-width:2" />
<line x1="218" y1="1" x2="218" y2="108" style="stroke:#ddd;stroke-width:2" />
<line x1="327" y1="1" x2="327" y2="108" style="stroke:#ddd;stroke-width:2" />
<line x1="436" y1="1" x2="436" y2="108" style="stroke:#ddd;stroke-width:2" />
<line x1="545" y1="1" x2="545" y2="108" style="stroke:#ddd;stroke-width:2" />
<line x1="654" y1="1" x2="654" y2="108" style="stroke:#ddd;stroke-width:2" />
<line x1="763" y1="1" x2="763" y2="108" style="stroke:#ddd;stroke-width:2" />
<line x1="872" y1="1" x2="872" y2="108" style="stroke:#ddd;stroke-width:2" />
<line x1="981" y1="1" x2="981" y2="108" style="stroke:#ddd;stroke-width:2" />
<line x1="1090" y1="1" x2="1090" y2="108" style="stroke:#ddd;stroke-width:2" />
<line x1="1199" y1="1" x2="1199" y2="108" style="stroke:#ddd;stroke-width:2" />
<line x1="1308" y1="1" x2="1308" y2="108" style="stroke:#ddd;stroke-width:2" />
<line x1="1417" y1="1" x2="1417" y2="108" style="stroke:#ddd;stroke-width:2" />
<line x1="1" y1="54" x2="1525" y2="54" style="stroke:#ddd;stroke-width:2;stroke-dasharray:3 3" />
<line x1="55" y1="1" x2="55" y2="108" style="stroke:#ddd;stroke-width:2;stroke-dasharray:3 3" />
<line x1="164" y1="1" x2="164" y2="108" style="stroke:#ddd;stroke-width:2;stroke-dasharray:3 3" />
<line x1="273" y1="1" x2="273" y2="108" style="stroke:#ddd;stroke-width:2;stroke-dasharray:3 3" />
<line x1="382" y1="1" x2="382" y2="108" style="stroke:#ddd;stroke-width:2;stroke-dasharray:3 3" />
<line x1="491" y1="1" x2="491" y2="108" style="stroke:#ddd;stroke-width:2;stroke-dasharray:3 3" />
<line x1="600" y1="1" x2="600" y2="108" style="stroke:#ddd;stroke-width:2;stroke-dasharray:3 3" />
<line x1="709" y1="1" x2="709" y2="108" style="stroke:#ddd;stroke-width:2;stroke-dasharray:3 3" />
<line x1="818" y1="1" x2="818" y2="108" style="stroke:#ddd;stroke-width:2;stroke-dasharray:3 3" />
<line x1="927" y1="1" x2="927" y2="108" style="stroke:#ddd;stroke-width:2;stroke-dasharray:3 3" />
<line x1="1036" y1="1" x2="1036" y2="108" style="stroke:#ddd;stroke-width:2;stroke-dasharray:3 3" />
<line x1="1145" y1="1" x2="1145" y2="108" style="stroke:#ddd;stroke-width:2;stroke-dasharray:3 3" />
<line x1="1254" y1="1" x2="1254" y2="108" style="stroke:#ddd;stroke-width:2;stroke-dasharray:3 3" />
<line x1="1363" y1="1" x2="1363" y2="108" style="stroke:#ddd;stroke-width:2;stroke-dasharray:3 3" />
<line x1="1472" y1="1" x2="1472" y2="108" style="stroke:#ddd;stroke-width:2;stroke-dasharray:3 3" />
<path d="M16.27,29.7c0.38,1.14,1.16,1.75,1.08,4.11c-0.78,24.56,0.15,40.94-9.8,57.53" style="fill:none;stroke:black;stroke-width:3" />
<circle cx="16.27" cy="29.7" r="5" stroke-width="0" fill="#FF2A00" opacity="0.7" />
<path d="M125.27,29.7c0.38,1.14,1.16,1.75,1.08,4.11c-0.78,24.56,0.15,40.94-9.8,57.53" style="fill:none;stroke:#999;stroke-width:3" />
<path d="M126.7,32.04c9.55-1.29,14.05-1.79,24.33-2.89c9.03-0.97,4.72,3.85,0.26,8.17" style="fill:none;stroke:black;stroke-width:3" />
<circle cx="126.7" cy="32.04" r="5" stroke-width="0" fill="#FF2A00" opacity="0.7" />
<path d="M234.26999999999998,29.7c0.38,1.14,1.16,1.75,1.08,4.11c-0.78,24.56,0.15,40.94-9.8,57.53" style="fill:none;stroke:#999;stroke-width:3" />
<path d="M235.7,32.04c9.55-1.29,14.05-1.79,24.33-2.89c9.03-0.97,4.72,3.85,0.26,8.17" style="fill:none;stroke:#999;stroke-width:3" />
<path d="M246.8,15.25c0.94,0.52,1.5,2.34,1.68,3.38c0.19,1.04-0.07,20.8-0.07,31.46" style="fill:none;stroke:black;stroke-width:3" />
<circle cx="246.8" cy="15.25" r="5" stroke-width="0" fill="#FF2A00" opacity="0.7" />
<path d="M343.27,29.7c0.38,1.14,1.16,1.75,1.08,4.11c-0.78,24.56,0.15,40.94-9.8,57.53" style="fill:none;stroke:#999;stroke-width:3" />
<path d="M344.7,32.04c9.55-1.29,14.05-1.79,24.33-2.89c9.03-0.97,4.72,3.85,0.26,8.17" style="fill:none;stroke:#999;stroke-width:3" />
<path d="M355.8,15.25c0.94,0.52,1.5,2.34,1.68,3.38c0.19,1.04-0.07,20.8-0.07,31.46" style="fill:none;stroke:#999;stroke-width:3" />
<path d="M347.28,51.19c1.12,0.36,2.21,0.54,4.51,0.37c4.21-0.31,16.23-1.89,17.77-2.42c1.54-0.54,2.94,1.62,2.12,3.43C364.0,69.75 358.0,81.5 344.27,92.51" style="fill:none;stroke:black;stroke-width:3" />
<circle cx="347.28" cy="51.19" r="5" stroke-width="0" fill="#FF2A00" opacity="0.7" />
<path d="M452.27,29.7c0.38,1.14,1.16,1.75,1.08,4.11c-0.78,24.56,0.15,40.94-9.8,57.53" style="fill:none;stroke:#999;stroke-width:3" />
<path d="M453.7,32.04c9.55-1.29,14.05-1.79,24.33-2.89c9.03-0.97,4.72,3.85,0.26,8.17" style="fill:none;stroke:#999;stroke-width:3" />
<path d="M464.8,15.25c0.94,0.52,1.5,2.34,1.68,3.38c0.19,1.04-0.07,20.8-0.07,31.46" style="fill:none;stroke:#999;stroke-width:3" />
<path d="M456.28,51.19c1.12,0.36,2.21,0.54,4.51,0.37c4.21-0.31,16.23-1.89,17.77-2.42c1.54-0.54,2.94,1.62,2.12,3.43C473.0,69.75 467.0,81.5 453.27,92.51" style="fill:none;stroke:#999;stroke-width:3" />
<path d="M459.44,61.73c8.31,5.52,16.56,14.52,21.62,25.5" style="fill:none;stroke:black;stroke-width:3" />
<circle cx="459.44" cy="61.73" r="5" stroke-width="0" fill="#FF2A00" opacity="0.7" />
<path d="M561.27,29.7c0.38,1.14,1.16,1.75,1.08,4.11c-0.78,24.56,0.15,40.94-9.8,57.53" style="fill:none;stroke:#999;stroke-width:3" />
<path d="M562.7,32.04c9.55-1.29,14.05-1.79,24.33-2.89c9.03-0.97,4.72,3.85,0.26,8.17" style="fill:none;stroke:#999;stroke-width:3" />
<path d="M573.8,15.25c0.94,0.52,1.5,2.34,1.68,3.38c0.19,1.04-0.07,20.8-0.07,31.46" style="fill:none;stroke:#999;stroke-width:3" />
<path d="M565.28,51.19c1.12,0.36,2.21,0.54,4.51,0.37c4.21-0.31,16.23-1.89,17.77-2.42c1.54-0.54,2.94,1.62,2.12,3.43C582.0,69.75 576.0,81.5 562.27,92.51" style="fill:none;stroke:#999;stroke-width:3" />
<path d="M568.44,61.73c8.31,5.52,16.56,14.52,21.62,25.5" style="fill:none;stroke:#999;stroke-width:3" />
<path d="M602.15,16.46c-0.09,3.78-2.23,13.68-3,15.94" style="fill:none;stroke:black;stroke-width:3" />
<circle cx="602.15" cy="16.46" r="5" stroke-width="0" fill="#FF2A00" opacity="0.7" />
<path d="M670.27,29.7c0.38,1.14,1.16,1.75,1.08,4.11c-0.78,24.56,0.15,40.94-9.8,57.53" style="fill:none;stroke:#999;stroke-width:3" />
<path d="M671.7,32.04c9.55-1.29,14.05-1.79,24.33-2.89c9.03-0.97,4.72,3.85,0.26,8.17" style="fill:none;stroke:#999;stroke-width:3" />
<path d="M682.8,15.25c0.94,0.52,1.5,2.34,1.68,3.38c0.19,1.04-0.07,20.8-0.07,31.46" style="fill:none;stroke:#999;stroke-width:3" />
<path d="M674.28,51.19c1.12,0.36,2.21,0.54,4.51,0.37c4.21-0.31,16.23-1.89,17.77-2.42c1.54-0.54,2.94,1.62,2.12,3.43C691.0,69.75 685.0,81.5 671.27,92.51" style="fill:none;stroke:#999;stroke-width:3" />
<path d="M677.44,61.73c8.31,5.52,16.56,14.52,21.62,25.5" style="fill:none;stroke:#999;stroke-width:3" />
<path d="M711.15,16.46c-0.09,3.78-2.23,13.68-3,15.94" style="fill:none;stroke:#999;stroke-width:3" />
<path d="M711.14,19.98c5.21-0.69,26.67-2.2,36.98-2.75c7.84-0.42,0.22,6.39-0.75,7.56" style="fill:none;stroke:black;stroke-width:3" />
<circle cx="711.14" cy="19.98" r="5" stroke-width="0" fill="#FF2A00" opacity="0.7" />
<path d="M779.27,29.7c0.38,1.14,1.16,1.75,1.08,4.11c-0.78,24.56,0.15,40.94-9.8,57.53" style="fill:none;stroke:#999;stroke-width:3" />
<path d="M780.7,32.04c9.55-1.29,14.05-1.79,24.33-2.89c9.03-0.97,4.72,3.85,0.26,8.17" style="fill:none;stroke:#999;stroke-width:3" />
<path d="M791.8,15.25c0.94,0.52,1.5,2.34,1.68,3.38c0.19,1.04-0.07,20.8-0.07,31.46" style="fill:none;stroke:#999;stroke-width:3" />
<path d="M783.28,51.19c1.12,0.36,2.21,0.54,4.51,0.37c4.21-0.31,16.23-1.89,17.77-2.42c1.54-0.54,2.94,1.62,2.12,3.43C800.0,69.75 794.0,81.5 780.27,92.51" style="fill:none;stroke:#999;stroke-width:3" />
<path d="M786.44,61.73c8.31,5.52,16.56,14.52,21.62,25.5" style="fill:none;stroke:#999;stroke-width:3" />
<path d="M820.15,16.46c-0.09,3.78-2.23,13.68-3,15.94" style="fill:none;stroke:#999;stroke-width:3" />
<path d="M820.14,19.98c5.21-0.69,26.67-2.2,36.98-2.75c7.84-0.42,0.22,6.39-0.75,7.56" style="fill:none;stroke:#999;stroke-width:3" />
<path d="M823.09,35.89c0.78,0.37,2.2,0.45,2.98,0.37c7.5-0.81,17.79-2.27,26.55-2.74c1.29-0.07,2.07,0.17,2.72,0.36" style="fill:none;stroke:black;stroke-width:3" />
<circle cx="823.09" cy="35.89" r="5" stroke-width="0" fill="#FF2A00" opacity="0.7" />
<path d="M888.27,29.7c0.38,1.14,1.16,1.75,1.08,4.11c-0.78,24.56,0.15,40.94-9.8,57.53" style="fill:none;stroke:#999;stroke-width:3" />
<path d="M889.7,32.04c9.55-1.29,14.05-1.79,24.33-2.89c9.03-0.97,4.72,3.85,0.26,8.17" style="fill:none;stroke:#999;stroke-width:3" />
<path d="M900.8,15.25c0.94,0.52,1.5,2.34,1.68,3.38c0.19,1.04-0.07,20.8-0.07,31.46" style="fill:none;stroke:#999;stroke-width:3" />
<path d="M892.28,51.19c1.12,0.36,2.21,0.54,4.51,0.37c4.21-0.31,16.23-1.89,17.77-2.42c1.54-0.54,2.94,1.62,2.12,3.43C909.0,69.75 903.0,81.5 889.27,92.51" style="fill:none;stroke:#999;stroke-width:3" />
<path d="M895.44,61.73c8.31,5.52,16.56,14.52,21.62,25.5" style="fill:none;stroke:#999;stroke-width:3" />
<path d="M929.15,16.46c-0.09,3.78-2.23,13.68-3,15.94" style="fill:none;stroke:#999;stroke-width:3" />
<path d="M929.14,19.98c5.21-0.69,26.67-2.2,36.98-2.75c7.84-0.42,0.22,6.39-0.75,7.56" style="fill:none;stroke:#999;stroke-width:3" />
<path d="M932.09,35.89c0.78,0.37,2.2,0.45,2.98,0.37c7.5-0.81,17.79-2.27,26.55-2.74c1.29-0.07,2.07,0.17,2.72,0.36" style="fill:none;stroke:#999;stroke-width:3" />
<path d="M930.34,45.35c0.54,0.47,1.22,1.82,1.32,2.44c0.8,4.93,2.16,13.44,3.12,21.42" style="fill:none;stroke:black;stroke-width:3" />
<circle cx="930.34" cy="45.35" r="5" stroke-width="0" fill="#FF2A00" opacity="0.7" />
<path d="M997.27,29.7c0.38,1.14,1.16,1.75,1.08,4.11c-0.78,24.56,0.15,40.94-9.8,57.53" style="fill:none;stroke:#999;stroke-width:3" />
<path d="M998.7,32.04c9.55-1.29,14.05-1.79,24.33-2.89c9.03-0.97,4.72,3.85,0.26,8.17" style="fill:none;stroke:#999;stroke-width:3" />
<path d="M1009.8,15.25c0.94,0.52,1.5,2.34,1.68,3.38c0.19,1.04-0.07,20.8-0.07,31.46" style="fill:none;stroke:#999;stroke-width:3" />
<path d="M1001.28,51.19c1.12,0.36,2.21,0.54,4.51,0.37c4.21-0.31,16.23-1.89,17.77-2.42c1.54-0.54,2.94,1.62,2.12,3.43C1018.0,69.75 1012.0,81.5 998.27,92.51" style="fill:none;stroke:#999;stroke-width:3" />
<path d="M1004.44,61.73c8.31,5.52,16.56,14.52,21.62,25.5" style="fill:none;stroke:#999;stroke-width:3" />
<path d="M1038.15,16.46c-0.09,3.78-2.23,13.68-3,15.94" style="fill:none;stroke:#999;stroke-width:3" />
<path d="M1038.1399999999999,19.98c5.21-0.69,26.67-2.2,36.98-2.75c7.84-0.42,0.22,6.39-0.75,7.56" style="fill:none;stroke:#999;stroke-width:3" />
<path d="M1041.0900000000001,35.89c0.78,0.37,2.2,0.45,2.98,0.37c7.5-0.81,17.79-2.27,26.55-2.74c1.29-0.07,2.07,0.17,2.72,0.36" style="fill:none;stroke:#999;stroke-width:3" />
<path d="M1039.3400000000001,45.35c0.54,0.47,1.22,1.82,1.32,2.44c0.8,4.93,2.16,13.44,3.12,21.42" style="fill:none;stroke:#999;stroke-width:3" />
<path d="M1041.41,46.02c8.16-0.9,26.06-3.07,31.63-3.21c2.3-0.06,2.78,1.22,2.68,2.62c-0.34,4.81-2.09,13.2-3.92,21.08" style="fill:none;stroke:black;stroke-width:3" />
<circle cx="1041.41" cy="46.02" r="5" stroke-width="0" fill="#FF2A00" opacity="0.7" />
<path d="M1106.27,29.7c0.38,1.14,1.16,1.75,1.08,4.11c-0.78,24.56,0.15,40.94-9.8,57.53" style="fill:none;stroke:#999;stroke-width:3" />
<path d="M1107.7,32.04c9.55-1.29,14.05-1.79,24.33-2.89c9.03-0.97,4.72,3.85,0.26,8.17" style="fill:none;stroke:#999;stroke-width:3" />
<path d="M1118.8,15.25c0.94,0.52,1.5,2.34,1.68,3.38c0.19,1.04-0.07,20.8-0.07,31.46" style="fill:none;stroke:#999;stroke-width:3" />
<path d="M1110.28,51.19c1.12,0.36,2.21,0.54,4.51,0.37c4.21-0.31,16.23-1.89,17.77-2.42c1.54-0.54,2.94,1.62,2.12,3.43C1127.0,69.75 1121.0,81.5 1107.27,92.51" style="fill:none;stroke:#999;stroke-width:3" />
<path d="M1113.44,61.73c8.31,5.52,16.56,14.52,21.62,25.5" style="fill:none;stroke:#999;stroke-width:3" />
<path d="M1147.15,16.46c-0.09,3.78-2.23,13.68-3,15.94" style="fill:none;stroke:#999;stroke-width:3" />
<path d="M1147.1399999999999,19.98c5.21-0.69,26.67-2.2,36.98-2.75c7.84-0.42,0.22,6.39-0.75,7.56" style="fill:none;stroke:#999;stroke-width:3" />
<path d="M1150.0900000000001,35.89c0.78,0.37,2.2,0.45,2.98,0.37c7.5-0.81,17.79-2.27,26.55-2.74c1.29-0.07,2.07,0.17,2.72,0.36" style="fill:none;stroke:#999;stroke-width:3" />
<path d="M1148.3400000000001,45.35c0.54,0.47,1.22,1.82,1.32,2.44c0.8,4.93,2.16,13.44,3.12,21.42" style="fill:none;stroke:#999;stroke-width:3" />
<path d="M1150.41,46.02c8.16-0.9,26.06-3.07,31.63-3.21c2.3-0.06,2.78,1.22,2.68,2.62c-0.34,4.81-2.09,13.2-3.92,21.08" style="fill:none;stroke:#999;stroke-width:3" />
<path d="M1152.33,56.17c6.15-0.23,19-2.48,30.58-2.48" style="fill:none;stroke:black;stroke-width:3" />
<circle cx="1152.33" cy="56.17" r="5" stroke-width="0" fill="#FF2A00" opacity="0.7" />
<path d="M1215.27,29.7c0.38,1.14,1.16,1.75,1.08,4.11c-0.78,24.56,0.15,40.94-9.8,57.53" style="fill:none;stroke:#999;stroke-width:3" />
<path d="M1216.7,32.04c9.55-1.29,14.05-1.79,24.33-2.89c9.03-0.97,4.72,3.85,0.26,8.17" style="fill:none;stroke:#999;stroke-width:3" />
<path d="M1227.8,15.25c0.94,0.52,1.5,2.34,1.68,3.38c0.19,1.04-0.07,20.8-0.07,31.46" style="fill:none;stroke:#999;stroke-width:3" />
<path d="M1219.28,51.19c1.12,0.36,2.21,0.54,4.51,0.37c4.21-0.31,16.23-1.89,17.77-2.42c1.54-0.54,2.94,1.62,2.12,3.43C1236.0,69.75 1230.0,81.5 1216.27,92.51" style="fill:none;stroke:#999;stroke-width:3" />
<path d="M1222.44,61.73c8.31,5.52,16.56,14.52,21.62,25.5" style="fill:none;stroke:#999;stroke-width:3" />
<path d="M1256.15,16.46c-0.09,3.78-2.23,13.68-3,15.94" style="fill:none;stroke:#999;stroke-width:3" />
<path d="M1256.1399999999999,19.98c5.21-0.69,26.67-2.2,36.98-2.75c7.84-0.42,0.22,6.39-0.75,7.56" style="fill:none;stroke:#999;stroke-width:3" />
<path d="M1259.0900000000001,35.89c0.78,0.37,2.2,0.45,2.98,0.37c7.5-0.81,17.79-2.27,26.55-2.74c1.29-0.07,2.07,0.17,2.72,0.36" style="fill:none;stroke:#999;stroke-width:3" />
<path d="M1257.3400000000001,45.35c0.54,0.47,1.22,1.82,1.32,2.44c0.8,4.93,2.16,13.44,3.12,21.42" style="fill:none;stroke:#999;stroke-width:3" />
<path d="M1259.41,46.02c8.16-0.9,26.06-3.07,31.63-3.21c2.3-0.06,2.78,1.22,2.68,2.62c-0.34,4.81-2.09,13.2-3.92,21.08" style="fill:none;stroke:#999;stroke-width:3" />
<path d="M1261.33,56.17c6.15-0.23,19-2.48,30.58-2.48" style="fill:none;stroke:#999;stroke-width:3" />
<path d="M1261.33,66.3c7.15-0.93,19.61-1.71,28.92-1.71" style="fill:none;stroke:black;stroke-width:3" />
<circle cx="1261.33" cy="66.3" r="5" stroke-width="0" fill="#FF2A00" opacity="0.7" />
<path d="M1324.27,29.7c0.38,1.14,1.16,1.75,1.08,4.11c-0.78,24.56,0.15,40.94-9.8,57.53" style="fill:none;stroke:#999;stroke-width:3" />
<path d="M1325.7,32.04c9.55-1.29,14.05-1.79,24.33-2.89c9.03-0.97,4.72,3.85,0.26,8.17" style="fill:none;stroke:#999;stroke-width:3" />
<path d="M1336.8,15.25c0.94,0.52,1.5,2.34,1.68,3.38c0.19,1.04-0.07,20.8-0.07,31.46" style="fill:none;stroke:#999;stroke-width:3" />
<path d="M1328.28,51.19c1.12,0.36,2.21,0.54,4.51,0.37c4.21-0.31,16.23-1.89,17.77-2.42c1.54-0.54,2.94,1.62,2.12,3.43C1345.0,69.75 1339.0,81.5 1325.27,92.51" style="fill:none;stroke:#999;stroke-width:3" />
<path d="M1331.44,61.73c8.31,5.52,16.56,14.52,21.62,25.5" style="fill:none;stroke:#999;stroke-width:3" />
<path d="M1365.15,16.46c-0.09,3.78-2.23,13.68-3,15.94" style="fill:none;stroke:#999;stroke-width:3" />
<path d="M1365.1399999999999,19.98c5.21-0.69,26.67-2.2,36.98-2.75c7.84-0.42,0.22,6.39-0.75,7.56" style="fill:none;stroke:#999;stroke-width:3" />
<path d="M1368.0900000000001,35.89c0.78,0.37,2.2,0.45,2.98,0.37c7.5-0.81,17.79-2.27,26.55-2.74c1.29-0.07,2.07,0.17,2.72,0.36" style="fill:none;stroke:#999;stroke-width:3" />
<path d="M1366.3400000000001,45.35c0.54,0.47,1.22,1.82,1.32,2.44c0.8,4.93,2.16,13.44,3.12,21.42" style="fill:none;stroke:#999;stroke-width:3" />
<path d="M1368.41,46.02c8.16-0.9,26.06-3.07,31.63-3.21c2.3-0.06,2.78,1.22,2.68,2.62c-0.34,4.81-2.09,13.2-3.92,21.08" style="fill:none;stroke:#999;stroke-width:3" />
<path d="M1370.33,56.17c6.15-0.23,19-2.48,30.58-2.48" style="fill:none;stroke:#999;stroke-width:3" />
<path d="M1370.33,66.3c7.15-0.93,19.61-1.71,28.92-1.71" style="fill:none;stroke:#999;stroke-width:3" />
<path d="M1361.68,77.14c1.19,0.64,3.36,0.74,4.56,0.64c20.11-1.66,17.76-2.12,37.67-2.87c1.98-0.07,3.18,0.31,4.17,0.63" style="fill:none;stroke:black;stroke-width:3" />
<circle cx="1361.68" cy="77.14" r="5" stroke-width="0" fill="#FF2A00" opacity="0.7" />
<path d="M1433.27,29.7c0.38,1.14,1.16,1.75,1.08,4.11c-0.78,24.56,0.15,40.94-9.8,57.53" style="fill:none;stroke:#999;stroke-width:3" />
<path d="M1434.7,32.04c9.55-1.29,14.05-1.79,24.33-2.89c9.03-0.97,4.72,3.85,0.26,8.17" style="fill:none;stroke:#999;stroke-width:3" />
<path d="M1445.8,15.25c0.94,0.52,1.5,2.34,1.68,3.38c0.19,1.04-0.07,20.8-0.07,31.46" style="fill:none;stroke:#999;stroke-width:3" />
<path d="M1437.28,51.19c1.12,0.36,2.21,0.54,4.51,0.37c4.21-0.31,16.23-1.89,17.77-2.42c1.54-0.54,2.94,1.62,2.12,3.43C1454.0,69.75 1448.0,81.5 1434.27,92.51" style="fill:none;stroke:#999;stroke-width:3" />
<path d="M1440.44,61.73c8.31,5.52,16.56,14.52,21.62,25.5" style="fill:none;stroke:#999;stroke-width:3" />
<path d="M1474.15,16.46c-0.09,3.78-2.23,13.68-3,15.94" style="fill:none;stroke:#999;stroke-width:3" />
<path d="M1474.1399999999999,19.98c5.21-0.69,26.67-2.2,36.98-2.75c7.84-0.42,0.22,6.39-0.75,7.56" style="fill:none;stroke:#999;stroke-width:3" />
<path d="M1477.0900000000001,35.89c0.78,0.37,2.2,0.45,2.98,0.37c7.5-0.81,17.79-2.27,26.55-2.74c1.29-0.07,2.07,0.17,2.72,0.36" style="fill:none;stroke:#999;stroke-width:3" />
<path d="M1475.3400000000001,45.35c0.54,0.47,1.22,1.82,1.32,2.44c0.8,4.93,2.16,13.44,3.12,21.42" style="fill:none;stroke:#999;stroke-width:3" />
<path d="M1477.41,46.02c8.16-0.9,26.06-3.07,31.63-3.21c2.3-0.06,2.78,1.22,2.68,2.62c-0.34,4.81-2.09,13.2-3.92,21.08" style="fill:none;stroke:#999;stroke-width:3" />
<path d="M1479.33,56.17c6.15-0.23,19-2.48,30.58-2.48" style="fill:none;stroke:#999;stroke-width:3" />
<path d="M1479.33,66.3c7.15-0.93,19.61-1.71,28.92-1.71" style="fill:none;stroke:#999;stroke-width:3" />
<path d="M1470.68,77.14c1.19,0.64,3.36,0.74,4.56,0.64c20.11-1.66,17.76-2.12,37.67-2.87c1.98-0.07,3.18,0.31,4.17,0.63" style="fill:none;stroke:#999;stroke-width:3" />
<path d="M1490.42,24.05c0.5,0.57,2.15,1.7,2.15,4.45c0,1.15-0.06,61.46-0.17,68.64" style="fill:none;stroke:black;stroke-width:3" />
<circle cx="1490.42" cy="24.05" r="5" stroke-width="0" fill="#FF2A00" opacity="0.7" />
</svg>