<!-- 076f4 -->
<svg width="872px" height="109px" viewBox="0 0 872px 109px" xmlns="http://www.w3.org/2000/svg" xmlns:xlink="http://www.w3.org/1999/xlink" xml:space="preserve" version="1.1"  baseProfile="full">
<line x1="1" y1="1" x2="871" y2="1" style="stroke:#ddd;stroke-width:2" />
<line x1="1" y1="1" x2="1" y2="108" style="stroke:#ddd;stroke-width:2" />
<line x1="1" y1="108" x2="871" y2="108" style="stroke:#ddd;stroke-width:2" />
<line x1="871" y1="1" x2="871" y2="108" style="stroke:#ddd;stroke-width:2" />
<line x1="109" y1="1" x2="109" y2="108" style="stroke:#ddd;stroke-width:2" />
<line x1="218" y1="1" x2="218" y2="108" style="stroke:#ddd;stroke-width:2" />
<line x1="327" y1="1" x2="327" y2="108" style="stroke:#ddd;stroke-width:2" />
<line x1="436" y1="1" x2="436" y2="108" style="stroke:#ddd;stroke-width:2" />
<line x1="545" y1="1" x2="545" y2="108" style="stroke:#ddd;stroke-width:2" />
<line x1="654" y1="1" x2="654" y2="108" style="stroke:#ddd;stroke-width:2" />
<line x1="763" y1="1" x2="763" y2="108" style="stroke:#ddd;stroke-width:2" />
<line x1="1" y1="54" x2="871" y2="54" style="stroke:#ddd;stroke-width:2;stroke-dasharray:3 3" />
<line x1="55" y1="1" x2="55" y2="108" style="stroke:#ddd;stroke-width:2;stroke-dasharray:3 3" />
<line x1="164" y1="1" x2="164" y2="108" style="stroke:#ddd;stroke-width:2;stroke-dasharray:3 3" />
<line x1="273" y1="1" x2="273" y2="108" style="stroke:#ddd;stroke-width:2;stroke-dasharray:3 3" />
<line x1="382" y1="1" x2="382" y2="108" style="stroke:#ddd;stroke-width:2;stroke-dasharray:3 3" />
<line x1="491" y1="1" x2="491" y2="108" style="stroke:#ddd;stroke-width:2;stroke-dasharray:3 3" />
<line x1="600" y1="1" x2="600" y2="108" style="stroke:#ddd;stroke-width:2;stroke-dasharray:3 3" />
<line x1="709" y1="1" x2="709" y2="108" style="stroke:#ddd;stroke-width:2;stroke-dasharray:3 3" />
<line x1="818" y1="1" x2="818" y2="108" style="stroke:#ddd;stroke-width:2;stroke-dasharray:3 3" />
<path d="M25.15,27.9c1.92,0.35,5.43,0.36,7.35,0.19c16.72-1.53,29.48-2.6,46.27-3.74c3.19-0.22,5.11,0.04,6.71,0.2" style="fill:none;stroke:black;stroke-width:3" />
<circle cx="25.15" cy="27.9" r="5" stroke-width="0" fill="#FF2A00" opacity="0.7" />
<path d="M134.15,27.9c1.92,0.35,5.43,0.36,7.35,0.19c16.72-1.53,29.48-2.6,46.27-3.74c3.19-0.22,5.11,0.04,6.71,0.2" style="fill:none;stroke:#999;stroke-width:3" />
<path d="M162.73,12.51c1.38,1.38,2.01,3.12,2.01,4.89c0,3.35,0.09,8.6,0.09,19.6" style="fill:none;stroke:black;stroke-width:3" />
<circle cx="162.73" cy="12.51" r="5" stroke-width="0" fill="#FF2A00" opacity="0.7" />
<path d="M243.15,27.9c1.92,0.35,5.43,0.36,7.35,0.19c16.72-1.53,29.48-2.6,46.27-3.74c3.19-0.22,5.11,0.04,6.71,0.2" style="fill:none;stroke:#999;stroke-width:3" />
<path d="M271.73,12.51c1.38,1.38,2.01,3.12,2.01,4.89c0,3.35,0.09,8.6,0.09,19.6" style="fill:none;stroke:#999;stroke-width:3" />
<path d="M254.56,37.49c1.19,1.26,1.66,3.14,1.66,4.57c0,1.2,0.39,24.33,0.19,37.94c-0.02,1.46-0.04,2.82-0.07,4.01" style="fill:none;stroke:black;stroke-width:3" />
<circle cx="254.56" cy="37.49" r="5" stroke-width="0" fill="#FF2A00" opacity="0.7" />
<path d="M352.15,27.9c1.92,0.35,5.43,0.36,7.35,0.19c16.72-1.53,29.48-2.6,46.27-3.74c3.19-0.22,5.11,0.04,6.71,0.2" style="fill:none;stroke:#999;stroke-width:3" />
<path d="M380.73,12.51c1.38,1.38,2.01,3.12,2.01,4.89c0,3.35,0.09,8.6,0.09,19.6" style="fill:none;stroke:#999;stroke-width:3" />
<path d="M363.56,37.49c1.19,1.26,1.66,3.14,1.66,4.57c0,1.2,0.39,24.33,0.19,37.94c-0.02,1.46-0.04,2.82-0.07,4.01" style="fill:none;stroke:#999;stroke-width:3" />
<path d="M366.52,39.91c8.14-0.78,28.45-3.08,30.99-3.25c2.46-0.17,3.99,1.59,4.19,4.16c0.11,1.44-0.12,22.29-0.19,36.93c-0.01,1.37-0.01,2.69-0.01,3.94" style="fill:none;stroke:black;stroke-width:3" />
<circle cx="366.52" cy="39.91" r="5" stroke-width="0" fill="#FF2A00" opacity="0.7" />
<path d="M461.15,27.9c1.92,0.35,5.43,0.36,7.35,0.19c16.72-1.53,29.48-2.6,46.27-3.74c3.19-0.22,5.11,0.04,6.71,0.2" style="fill:none;stroke:#999;stroke-width:3" />
<path d="M489.73,12.51c1.38,1.38,2.01,3.12,2.01,4.89c0,3.35,0.09,8.6,0.09,19.6" style="fill:none;stroke:#999;stroke-width:3" />
<path d="M472.56,37.49c1.19,1.26,1.66,3.14,1.66,4.57c0,1.2,0.39,24.33,0.19,37.94c-0.02,1.46-0.04,2.82-0.07,4.01" style="fill:none;stroke:#999;stroke-width:3" />
<path d="M475.52,39.91c8.14-0.78,28.45-3.08,30.99-3.25c2.46-0.17,3.99,1.59,4.19,4.16c0.11,1.44-0.12,22.29-0.19,36.93c-0.01,1.37-0.01,2.69-0.01,3.94" style="fill:none;stroke:#999;stroke-width:3" />
<path d="M475.61,52.51c8.01-0.63,27.51-2.38,33.61-2.61" style="fill:none;stroke:black;stroke-width:3" />
<circle cx="475.61" cy="52.51" r="5" stroke-width="0" fill="#FF2A00" opacity="0.7" />
<path d="M570.15,27.9c1.92,0.35,5.43,0.36,7.35,0.19c16.72-1.53,29.48-2.6,46.27-3.74c3.19-0.22,5.11,0.04,6.71,0.2" style="fill:none;stroke:#999;stroke-width:3" />
<path d="M598.73,12.51c1.38,1.38,2.01,3.12,2.01,4.89c0,3.35,0.09,8.6,0.09,19.6" style="fill:none;stroke:#999;stroke-width:3" />
<path d="M581.56,37.49c1.19,1.26,1.66,3.14,1.66,4.57c0,1.2,0.39,24.33,0.19,37.94c-0.02,1.46-0.04,2.82-0.07,4.01" style="fill:none;stroke:#999;stroke-width:3" />
<path d="M584.52,39.91c8.14-0.78,28.45-3.08,30.99-3.25c2.46-0.17,3.99,1.59,4.19,4.16c0.11,1.44-0.12,22.29-0.19,36.93c-0.01,1.37-0.01,2.69-0.01,3.94" style="fill:none;stroke:#999;stroke-width:3" />
<path d="M584.61,52.51c8.01-0.63,27.51-2.38,33.61-2.61" style="fill:none;stroke:#999;stroke-width:3" />
<path d="M584.63,65.91c8.64-0.56,24.87-2.16,33.96-2.49" style="fill:none;stroke:black;stroke-width:3" />
<circle cx="584.63" cy="65.91" r="5" stroke-width="0" fill="#FF2A00" opacity="0.7" />
<path d="M679.15,27.9c1.92,0.35,5.43,0.36,7.35,0.19c16.72-1.53,29.48-2.6,46.27-3.74c3.19-0.22,5.11,0.04,6.71,0.2" style="fill:none;stroke:#999;stroke-width:3" />
<path d="M707.73,12.51c1.38,1.38,2.01,3.12,2.01,4.89c0,3.35,0.09,8.6,0.09,19.6" style="fill:none;stroke:#999;stroke-width:3" />
<path d="M690.56,37.49c1.19,1.26,1.66,3.14,1.66,4.57c0,1.2,0.39,24.33,0.19,37.94c-0.02,1.46-0.04,2.82-0.07,4.01" style="fill:none;stroke:#999;stroke-width:3" />
<path d="M693.52,39.91c8.14-0.78,28.45-3.08,30.99-3.25c2.46-0.17,3.99,1.59,4.19,4.16c0.11,1.44-0.12,22.29-0.19,36.93c-0.01,1.37-0.01,2.69-0.01,3.94" style="fill:none;stroke:#999;stroke-width:3" />
<path d="M693.61,52.51c8.01-0.63,27.51-2.38,33.61-2.61" style="fill:none;stroke:#999;stroke-width:3" />
<path d="M693.63,65.91c8.64-0.56,24.87-2.16,33.96-2.49" style="fill:none;stroke:#999;stroke-width:3" />
<path d="M693.75,80.42c6.02-0.5,29.3-2.32,33.63-2.32" style="fill:none;stroke:black;stroke-width:3" />
<circle cx="693.75" cy="80.42" r="5" stroke-width="0" fill="#FF2A00" opacity="0.7" />
<path d="M788.15,27.9c1.92,0.35,5.43,0.36,7.35,0.19c16.72-1.53,29.48-2.6,46.27-3.74c3.19-0.22,5.11,0.04,6.71,0.2" style="fill:none;stroke:#999;stroke-width:3" />
<path d="M816.73,12.51c1.38,1.38,2.01,3.12,2.01,4.89c0,3.35,0.09,8.6,0.09,19.6" style="fill:none;stroke:#999;stroke-width:3" />
<path d="M799.56,37.49c1.19,1.26,1.66,3.14,1.66,4.57c0,1.2,0.39,24.33,0.19,37.94c-0.02,1.46-0.04,2.82-0.07,4.01" style="fill:none;stroke:#999;stroke-width:3" />
<path d="M802.52,39.91c8.14-0.78,28.45-3.08,30.99-3.25c2.46-0.17,3.99,1.59,4.19,4.16c0.11,1.44-0.12,22.29-0.19,36.93c-0.01,1.37-0.01,2.69-0.01,3.94" style="fill:none;stroke:#999;stroke-width:3" />
<path d="M802.61,52.51c8.01-0.63,27.51-2.38,33.61-2.61" style="fill:none;stroke:#999;stroke-width:3" />
<path d="M802.63,65.91c8.64-0.56,24.87-2.16,33.96-2.49" style="fill:none;stroke:#999;stroke-width:3" />
<path d="M802.75,80.42c6.02-0.5,29.3-2.32,33.63-2.32" style="fill:none;stroke:#999;stroke-width:3" />
<path d="M782.75,50.5c1,1.25,1.75,2.75,1.75,5.25s-1.12,29.88-1.75,35.75c-0.28,2.6,0.27,4.15,3.25,3.75c20.5-2.75,41.5-4,63.75-4c2.75,0,5.5,0.5,7.5,1.25" style="fill:none;stroke:black;stroke-width:3" />
<circle cx="782.75" cy="50.5" r="5" stroke-width="0" fill="#FF2A00" opacity="0.7" />
</svg>