<!-- 07726 -->
<svg width="1199px" height="109px" viewBox="0 0 1199px 109px" xmlns="http://www.w3.org/2000/svg" xmlns:xlink="http://www.w3.org/1999/xlink" xml:space="preserve" version="1.1"  baseProfile="full">
<line x1="1" y1="1" x2="1198" y2="1" style="stroke:#ddd;stroke-width:2" />
<line x1="1" y1="1" x2="1" y2="108" style="stroke:#ddd;stroke-width:2" />
<line x1="1" y1="108" x2="1198" y2="108" style="stroke:#ddd;stroke-width:2" />
<line x1="1198" y1="1" x2="1198" y2="108" style="stroke:#ddd;stroke-width:2" />
<line x1="109" y1="1" x2="109" y2="108" style="stroke:#ddd;stroke-width:2" />
<line x1="218" y1="1" x2="218" y2="108" style="stroke:#ddd;stroke-width:2" />
<line x1="327" y1="1" x2="327" y2="108" style="stroke:#ddd;stroke-width:2" />
<line x1="436" y1="1" x2="436" y2="108" style="stroke:#ddd;stroke-width:2" />
<line x1="545" y1="1" x2="545" y2="108" style="stroke:#ddd;stroke-width:2" />
<line x1="654" y1="1" x2="654" y2="108" style="stroke:#ddd;stroke-width:2" />
<line x1="763" y1="1" x2="763" y2="108" style="stroke:#ddd;stroke-width:2" />
<line x1="872" y1="1" x2="872" y2="108" style="stroke:#ddd;stroke-width:2" />
<line x1="981" y1="1" x2="981" y2="108" style="stroke:#ddd;stroke-width:2" />
<line x1="1090" y1="1" x2="1090" y2="108" style="stroke:#ddd;stroke-width:2" />
<line x1="1" y1="54" x2="1198" y2="54" style="stroke:#ddd;stroke-width:2;stroke-dasharray:3 3" />
<line x1="55" y1="1" x2="55" y2="108" style="stroke:#ddd;stroke-width:2;stroke-dasharray:3 3" />
<line x1="164" y1="1" x2="164" y2="108" style="stroke:#ddd;stroke-width:2;stroke-dasharray:3 3" />
<line x1="273" y1="1" x2="273" y2="108" style="stroke:#ddd;stroke-width:2;stroke-dasharray:3 3" />
<line x1="382" y1="1" x2="382" y2="108" style="stroke:#ddd;stroke-width:2;stroke-dasharray:3 3" />
<line x1="491" y1="1" x2="491" y2="108" style="stroke:#ddd;stroke-width:2;stroke-dasharray:3 3" />
<line x1="600" y1="1" x2="600" y2="108" style="stroke:#ddd;stroke-width:2;stroke-dasharray:3 3" />
<line x1="709" y1="1" x2="709" y2="108" style="stroke:#ddd;stroke-width:2;stroke-dasharray:3 3" />
<line x1="818" y1="1" x2="818" y2="108" style="stroke:#ddd;stroke-width:2;stroke-dasharray:3 3" />
<line x1="927" y1="1" x2="927" y2="108" style="stroke:#ddd;stroke-width:2;stroke-dasharray:3 3" />
<line x1="1036" y1="1" x2="1036" y2="108" style="stroke:#ddd;stroke-width:2;stroke-dasharray:3 3" />
<line x1="1145" y1="1" x2="1145" y2="108" style="stroke:#ddd;stroke-width:2;stroke-dasharray:3 3" />
<path d="M12.38,23.08c0.62,0.92,0.78,2.44,0.78,4.23c0,1.79-0.11,56.36,0,58.17" style="fill:none;stroke:black;stroke-width:3" />
<circle cx="12.38" cy="23.08" r="5" stroke-width="0" fill="#FF2A00" opacity="0.7" />
<path d="M121.38,23.08c0.62,0.92,0.78,2.44,0.78,4.23c0,1.79-0.11,56.36,0,58.17" style="fill:none;stroke:#999;stroke-width:3" />
<path d="M122.7,24.28c1.8-0.02,14.96-1.34,16.6-1.43c1.37-0.07,2.33,1.51,2.33,3.18c0,6.14-0.63,43.6-0.63,57.61" style="fill:none;stroke:black;stroke-width:3" />
<circle cx="122.7" cy="24.28" r="5" stroke-width="0" fill="#FF2A00" opacity="0.7" />
<path d="M230.38,23.08c0.62,0.92,0.78,2.44,0.78,4.23c0,1.79-0.11,56.36,0,58.17" style="fill:none;stroke:#999;stroke-width:3" />
<path d="M231.7,24.28c1.8-0.02,14.96-1.34,16.6-1.43c1.37-0.07,2.33,1.51,2.33,3.18c0,6.14-0.63,43.6-0.63,57.61" style="fill:none;stroke:#999;stroke-width:3" />
<path d="M231.67,44.69c4.97-0.47,13.55-1.53,17.58-1.3" style="fill:none;stroke:black;stroke-width:3" />
<circle cx="231.67" cy="44.69" r="5" stroke-width="0" fill="#FF2A00" opacity="0.7" />
<path d="M339.38,23.08c0.62,0.92,0.78,2.44,0.78,4.23c0,1.79-0.11,56.36,0,58.17" style="fill:none;stroke:#999;stroke-width:3" />
<path d="M340.7,24.28c1.8-0.02,14.96-1.34,16.6-1.43c1.37-0.07,2.33,1.51,2.33,3.18c0,6.14-0.63,43.6-0.63,57.61" style="fill:none;stroke:#999;stroke-width:3" />
<path d="M340.66999999999996,44.69c4.97-0.47,13.55-1.53,17.58-1.3" style="fill:none;stroke:#999;stroke-width:3" />
<path d="M340.81,62.27c4.77-0.21,11.44-1.02,18.07-1.09" style="fill:none;stroke:black;stroke-width:3" />
<circle cx="340.81" cy="62.27" r="5" stroke-width="0" fill="#FF2A00" opacity="0.7" />
<path d="M448.38,23.08c0.62,0.92,0.78,2.44,0.78,4.23c0,1.79-0.11,56.36,0,58.17" style="fill:none;stroke:#999;stroke-width:3" />
<path d="M449.7,24.28c1.8-0.02,14.96-1.34,16.6-1.43c1.37-0.07,2.33,1.51,2.33,3.18c0,6.14-0.63,43.6-0.63,57.61" style="fill:none;stroke:#999;stroke-width:3" />
<path d="M449.66999999999996,44.69c4.97-0.47,13.55-1.53,17.58-1.3" style="fill:none;stroke:#999;stroke-width:3" />
<path d="M449.81,62.27c4.77-0.21,11.44-1.02,18.07-1.09" style="fill:none;stroke:#999;stroke-width:3" />
<path d="M449.11,82.69c4.9-0.26,12.62-1.42,18.81-1.39" style="fill:none;stroke:black;stroke-width:3" />
<circle cx="449.11" cy="82.69" r="5" stroke-width="0" fill="#FF2A00" opacity="0.7" />
<path d="M557.38,23.08c0.62,0.92,0.78,2.44,0.78,4.23c0,1.79-0.11,56.36,0,58.17" style="fill:none;stroke:#999;stroke-width:3" />
<path d="M558.7,24.28c1.8-0.02,14.96-1.34,16.6-1.43c1.37-0.07,2.33,1.51,2.33,3.18c0,6.14-0.63,43.6-0.63,57.61" style="fill:none;stroke:#999;stroke-width:3" />
<path d="M558.67,44.69c4.97-0.47,13.55-1.53,17.58-1.3" style="fill:none;stroke:#999;stroke-width:3" />
<path d="M558.81,62.27c4.77-0.21,11.44-1.02,18.07-1.09" style="fill:none;stroke:#999;stroke-width:3" />
<path d="M558.11,82.69c4.9-0.26,12.62-1.42,18.81-1.39" style="fill:none;stroke:#999;stroke-width:3" />
<path d="M598.33,14.87c0.85,0.57,1.36,2.57,1.53,3.72c0.17,1.14-0.06,55.03-0.06,67.33" style="fill:none;stroke:black;stroke-width:3" />
<circle cx="598.33" cy="14.87" r="5" stroke-width="0" fill="#FF2A00" opacity="0.7" />
<path d="M666.38,23.08c0.62,0.92,0.78,2.44,0.78,4.23c0,1.79-0.11,56.36,0,58.17" style="fill:none;stroke:#999;stroke-width:3" />
<path d="M667.7,24.28c1.8-0.02,14.96-1.34,16.6-1.43c1.37-0.07,2.33,1.51,2.33,3.18c0,6.14-0.63,43.6-0.63,57.61" style="fill:none;stroke:#999;stroke-width:3" />
<path d="M667.67,44.69c4.97-0.47,13.55-1.53,17.58-1.3" style="fill:none;stroke:#999;stroke-width:3" />
<path d="M667.81,62.27c4.77-0.21,11.44-1.02,18.07-1.09" style="fill:none;stroke:#999;stroke-width:3" />
<path d="M667.11,82.69c4.9-0.26,12.62-1.42,18.81-1.39" style="fill:none;stroke:#999;stroke-width:3" />
<path d="M707.33,14.87c0.85,0.57,1.36,2.57,1.53,3.72c0.17,1.14-0.06,55.03-0.06,67.33" style="fill:none;stroke:#999;stroke-width:3" />
<path d="M709.21,45.79c3.51-0.8,7.04-1.04,11.88-1.69c0.87-0.12,1.07-0.27,1.61,0" style="fill:none;stroke:black;stroke-width:3" />
<circle cx="709.21" cy="45.79" r="5" stroke-width="0" fill="#FF2A00" opacity="0.7" />
<path d="M775.38,23.08c0.62,0.92,0.78,2.44,0.78,4.23c0,1.79-0.11,56.36,0,58.17" style="fill:none;stroke:#999;stroke-width:3" />
<path d="M776.7,24.28c1.8-0.02,14.96-1.34,16.6-1.43c1.37-0.07,2.33,1.51,2.33,3.18c0,6.14-0.63,43.6-0.63,57.61" style="fill:none;stroke:#999;stroke-width:3" />
<path d="M776.67,44.69c4.97-0.47,13.55-1.53,17.58-1.3" style="fill:none;stroke:#999;stroke-width:3" />
<path d="M776.81,62.27c4.77-0.21,11.44-1.02,18.07-1.09" style="fill:none;stroke:#999;stroke-width:3" />
<path d="M776.11,82.69c4.9-0.26,12.62-1.42,18.81-1.39" style="fill:none;stroke:#999;stroke-width:3" />
<path d="M816.33,14.87c0.85,0.57,1.36,2.57,1.53,3.72c0.17,1.14-0.06,55.03-0.06,67.33" style="fill:none;stroke:#999;stroke-width:3" />
<path d="M818.21,45.79c3.51-0.8,7.04-1.04,11.88-1.69c0.87-0.12,1.07-0.27,1.61,0" style="fill:none;stroke:#999;stroke-width:3" />
<path d="M805.21,44.59c0.87,0.59,1.57,2.62,1.57,3.82c0,6.47,0.73,33.98,0.73,42.51" style="fill:none;stroke:black;stroke-width:3" />
<circle cx="805.21" cy="44.59" r="5" stroke-width="0" fill="#FF2A00" opacity="0.7" />
<path d="M884.38,23.08c0.62,0.92,0.78,2.44,0.78,4.23c0,1.79-0.11,56.36,0,58.17" style="fill:none;stroke:#999;stroke-width:3" />
<path d="M885.7,24.28c1.8-0.02,14.96-1.34,16.6-1.43c1.37-0.07,2.33,1.51,2.33,3.18c0,6.14-0.63,43.6-0.63,57.61" style="fill:none;stroke:#999;stroke-width:3" />
<path d="M885.67,44.69c4.97-0.47,13.55-1.53,17.58-1.3" style="fill:none;stroke:#999;stroke-width:3" />
<path d="M885.81,62.27c4.77-0.21,11.44-1.02,18.07-1.09" style="fill:none;stroke:#999;stroke-width:3" />
<path d="M885.11,82.69c4.9-0.26,12.62-1.42,18.81-1.39" style="fill:none;stroke:#999;stroke-width:3" />
<path d="M925.33,14.87c0.85,0.57,1.36,2.57,1.53,3.72c0.17,1.14-0.06,55.03-0.06,67.33" style="fill:none;stroke:#999;stroke-width:3" />
<path d="M927.21,45.79c3.51-0.8,7.04-1.04,11.88-1.69c0.87-0.12,1.07-0.27,1.61,0" style="fill:none;stroke:#999;stroke-width:3" />
<path d="M914.21,44.59c0.87,0.59,1.57,2.62,1.57,3.82c0,6.47,0.73,33.98,0.73,42.51" style="fill:none;stroke:#999;stroke-width:3" />
<path d="M908.99,92.89c0.39,0.86,2.76,1.15,3.74,0.64c11.52-6.03,17.72-9.09,26.57-13.99" style="fill:none;stroke:black;stroke-width:3" />
<circle cx="908.99" cy="92.89" r="5" stroke-width="0" fill="#FF2A00" opacity="0.7" />
<path d="M993.38,23.08c0.62,0.92,0.78,2.44,0.78,4.23c0,1.79-0.11,56.36,0,58.17" style="fill:none;stroke:#999;stroke-width:3" />
<path d="M994.7,24.28c1.8-0.02,14.96-1.34,16.6-1.43c1.37-0.07,2.33,1.51,2.33,3.18c0,6.14-0.63,43.6-0.63,57.61" style="fill:none;stroke:#999;stroke-width:3" />
<path d="M994.67,44.69c4.97-0.47,13.55-1.53,17.58-1.3" style="fill:none;stroke:#999;stroke-width:3" />
<path d="M994.81,62.27c4.77-0.21,11.44-1.02,18.07-1.09" style="fill:none;stroke:#999;stroke-width:3" />
<path d="M994.11,82.69c4.9-0.26,12.62-1.42,18.81-1.39" style="fill:none;stroke:#999;stroke-width:3" />
<path d="M1034.33,14.87c0.85,0.57,1.36,2.57,1.53,3.72c0.17,1.14-0.06,55.03-0.06,67.33" style="fill:none;stroke:#999;stroke-width:3" />
<path d="M1036.21,45.79c3.51-0.8,7.04-1.04,11.88-1.69c0.87-0.12,1.07-0.27,1.61,0" style="fill:none;stroke:#999;stroke-width:3" />
<path d="M1023.21,44.59c0.87,0.59,1.57,2.62,1.57,3.82c0,6.47,0.73,33.98,0.73,42.51" style="fill:none;stroke:#999;stroke-width:3" />
<path d="M1017.99,92.89c0.39,0.86,2.76,1.15,3.74,0.64c11.52-6.03,17.72-9.09,26.57-13.99" style="fill:none;stroke:#999;stroke-width:3" />
<path d="M1075.73,33c0.14,0.33,0.22,1.28-0.13,1.79c-2.31,3.27-10.22,12.27-17.67,15.61" style="fill:none;stroke:black;stroke-width:3" />
<circle cx="1075.73" cy="33.0" r="5" stroke-width="0" fill="#FF2A00" opacity="0.7" />
<path d="M1102.38,23.08c0.62,0.92,0.78,2.44,0.78,4.23c0,1.79-0.11,56.36,0,58.17" style="fill:none;stroke:#999;stroke-width:3" />
<path d="M1103.7,24.28c1.8-0.02,14.96-1.34,16.6-1.43c1.37-0.07,2.33,1.51,2.33,3.18c0,6.14-0.63,43.6-0.63,57.61" style="fill:none;stroke:#999;stroke-width:3" />
<path d="M1103.67,44.69c4.97-0.47,13.55-1.53,17.58-1.3" style="fill:none;stroke:#999;stroke-width:3" />
<path d="M1103.81,62.27c4.77-0.21,11.44-1.02,18.07-1.09" style="fill:none;stroke:#999;stroke-width:3" />
<path d="M1103.1100000000001,82.69c4.9-0.26,12.62-1.42,18.81-1.39" style="fill:none;stroke:#999;stroke-width:3" />
<path d="M1143.33,14.87c0.85,0.57,1.36,2.57,1.53,3.72c0.17,1.14-0.06,55.03-0.06,67.33" style="fill:none;stroke:#999;stroke-width:3" />
<path d="M1145.21,45.79c3.51-0.8,7.04-1.04,11.88-1.69c0.87-0.12,1.07-0.27,1.61,0" style="fill:none;stroke:#999;stroke-width:3" />
<path d="M1132.21,44.59c0.87,0.59,1.57,2.62,1.57,3.82c0,6.47,0.73,33.98,0.73,42.51" style="fill:none;stroke:#999;stroke-width:3" />
<path d="M1126.99,92.89c0.39,0.86,2.76,1.15,3.74,0.64c11.52-6.03,17.72-9.09,26.57-13.99" style="fill:none;stroke:#999;stroke-width:3" />
<path d="M1184.73,33c0.14,0.33,0.22,1.28-0.13,1.79c-2.31,3.27-10.22,12.27-17.67,15.61" style="fill:none;stroke:#999;stroke-width:3" />
<path d="M1163.78,13.25c0.78,1.27,0.83,2.11,1.09,3.8c0.26,1.69,0.08,52.81,0.08,64.32c0,11.51,2.2,12.67,11.75,12.67S1187.75,92 1187.51,81.27" style="fill:none;stroke:black;stroke-width:3" />
<circle cx="1163.78" cy="13.25" r="5" stroke-width="0" fill="#FF2A00" opacity="0.7" />
</svg>