<!-- 0775b -->
<svg width="1417px" height="109px" viewBox="0 0 1417px 109px" xmlns="http://www.w3.org/2000/svg" xmlns:xlink="http://www.w3.org/1999/xlink" xml:space="preserve" version="1.1"  baseProfile="full">
<line x1="1" y1="1" x2="1416" y2="1" style="stroke:#ddd;stroke-width:2" />
<line x1="1" y1="1" x2="1" y2="108" style="stroke:#ddd;stroke-width:2" />
<line x1="1" y1="108" x2="1416" y2="108" style="stroke:#ddd;stroke-width:2" />
<line x1="1416" y1="1" x2="1416" y2="108" style="stroke:#ddd;stroke-width:2" />
<line x1="109" y1="1" x2="109" y2="108" style="stroke:#ddd;stroke-width:2" />
<line x1="218" y1="1" x2="218" y2="108" style="stroke:#ddd;stroke-width:2" />
<line x1="327" y1="1" x2="327" y2="108" style="stroke:#ddd;stroke-width:2" />
<line x1="436" y1="1" x2="436" y2="108" style="stroke:#ddd;stroke-width:2" />
<line x1="545" y1="1" x2="545" y2="108" style="stroke:#ddd;stroke-width:2" />
<line x1="654" y1="1" x2="654" y2="108" style="stroke:#ddd;stroke-width:2" />
<line x1="763" y1="1" x2="763" y2="108" style="stroke:#ddd;stroke-width:2" />
<line x1="872" y1="1" x2="872" y2="108" style="stroke:#ddd;stroke-width:2" />
<line x1="981" y1="1" x2="981" y2="108" style="stroke:#ddd;stroke-width:2" />
<line x1="1090" y1="1" x2="1090" y2="108" style="stroke:#ddd;stroke-width:2" />
<line x1="1199" y1="1" x2="1199" y2="108" style="stroke:#ddd;stroke-width:2" />
<line x1="1308" y1="1" x2="1308" y2="108" style="stroke:#ddd;stroke-width:2" />
<line x1="1" y1="54" x2="1416" y2="54" style="stroke:#ddd;stroke-width:2;stroke-dasharray:3 3" />
<line x1="55" y1="1" x2="55" y2="108" style="stroke:#ddd;stroke-width:2;stroke-dasharray:3 3" />
<line x1="164" y1="1" x2="164" y2="108" style="stroke:#ddd;stroke-width:2;stroke-dasharray:3 3" />
<line x1="273" y1="1" x2="273" y2="108" style="stroke:#ddd;stroke-width:2;stroke-dasharray:3 3" />
<line x1="382" y1="1" x2="382" y2="108" style="stroke:#ddd;stroke-width:2;stroke-dasharray:3 3" />
<line x1="491" y1="1" x2="491" y2="108" style="stroke:#ddd;stroke-width:2;stroke-dasharray:3 3" />
<line x1="600" y1="1" x2="600" y2="108" style="stroke:#ddd;stroke-width:2;stroke-dasharray:3 3" />
<line x1="709" y1="1" x2="709" y2="108" style="stroke:#ddd;stroke-width:2;stroke-dasharray:3 3" />
<line x1="818" y1="1" x2="818" y2="108" style="stroke:#ddd;stroke-width:2;stroke-dasharray:3 3" />
<line x1="927" y1="1" x2="927" y2="108" style="stroke:#ddd;stroke-width:2;stroke-dasharray:3 3" />
<line x1="1036" y1="1" x2="1036" y2="108" style="stroke:#ddd;stroke-width:2;stroke-dasharray:3 3" />
<line x1="1145" y1="1" x2="1145" y2="108" style="stroke:#ddd;stroke-width:2;stroke-dasharray:3 3" />
<line x1="1254" y1="1" x2="1254" y2="108" style="stroke:#ddd;stroke-width:2;stroke-dasharray:3 3" />
<line x1="1363" y1="1" x2="1363" y2="108" style="stroke:#ddd;stroke-width:2;stroke-dasharray:3 3" />
<path d="M14.88,20.66c0.33,1.54,0.82,2.73,0.82,4.73c0,2.01-0.11,61.32,0,63.34" style="fill:none;stroke:black;stroke-width:3" />
<circle cx="14.88" cy="20.66" r="5" stroke-width="0" fill="#FF2A00" opacity="0.7" />
<path d="M123.88,20.66c0.33,1.54,0.82,2.73,0.82,4.73c0,2.01-0.11,61.32,0,63.34" style="fill:none;stroke:#999;stroke-width:3" />
<path d="M125.26,21.45c1.89-0.02,15.7-2,17.43-2.1c1.43-0.08,2.44,1.69,2.44,3.55c0,6.86-0.67,49.23-0.67,64.89" style="fill:none;stroke:black;stroke-width:3" />
<circle cx="125.26" cy="21.45" r="5" stroke-width="0" fill="#FF2A00" opacity="0.7" />
<path d="M232.88,20.66c0.33,1.54,0.82,2.73,0.82,4.73c0,2.01-0.11,61.32,0,63.34" style="fill:none;stroke:#999;stroke-width:3" />
<path d="M234.26,21.45c1.89-0.02,15.7-2,17.43-2.1c1.43-0.08,2.44,1.69,2.44,3.55c0,6.86-0.67,49.23-0.67,64.89" style="fill:none;stroke:#999;stroke-width:3" />
<path d="M234.23,42.7c5.22-0.52,14.22-1.66,18.46-1.4" style="fill:none;stroke:black;stroke-width:3" />
<circle cx="234.23" cy="42.7" r="5" stroke-width="0" fill="#FF2A00" opacity="0.7" />
<path d="M341.88,20.66c0.33,1.54,0.82,2.73,0.82,4.73c0,2.01-0.11,61.32,0,63.34" style="fill:none;stroke:#999;stroke-width:3" />
<path d="M343.26,21.45c1.89-0.02,15.7-2,17.43-2.1c1.43-0.08,2.44,1.69,2.44,3.55c0,6.86-0.67,49.23-0.67,64.89" style="fill:none;stroke:#999;stroke-width:3" />
<path d="M343.23,42.7c5.22-0.52,14.22-1.66,18.46-1.4" style="fill:none;stroke:#999;stroke-width:3" />
<path d="M343.38,62.85c5.01-0.24,12.28-1.59,18.97-1.15" style="fill:none;stroke:black;stroke-width:3" />
<circle cx="343.38" cy="62.85" r="5" stroke-width="0" fill="#FF2A00" opacity="0.7" />
<path d="M450.88,20.66c0.33,1.54,0.82,2.73,0.82,4.73c0,2.01-0.11,61.32,0,63.34" style="fill:none;stroke:#999;stroke-width:3" />
<path d="M452.26,21.45c1.89-0.02,15.7-2,17.43-2.1c1.43-0.08,2.44,1.69,2.44,3.55c0,6.86-0.67,49.23-0.67,64.89" style="fill:none;stroke:#999;stroke-width:3" />
<path d="M452.23,42.7c5.22-0.52,14.22-1.66,18.46-1.4" style="fill:none;stroke:#999;stroke-width:3" />
<path d="M452.38,62.85c5.01-0.24,12.28-1.59,18.97-1.15" style="fill:none;stroke:#999;stroke-width:3" />
<path d="M452.16,86.06c5.14-0.29,12.21-1.53,18.71-1.49" style="fill:none;stroke:black;stroke-width:3" />
<circle cx="452.16" cy="86.06" r="5" stroke-width="0" fill="#FF2A00" opacity="0.7" />
<path d="M559.88,20.66c0.33,1.54,0.82,2.73,0.82,4.73c0,2.01-0.11,61.32,0,63.34" style="fill:none;stroke:#999;stroke-width:3" />
<path d="M561.26,21.45c1.89-0.02,15.7-2,17.43-2.1c1.43-0.08,2.44,1.69,2.44,3.55c0,6.86-0.67,49.23-0.67,64.89" style="fill:none;stroke:#999;stroke-width:3" />
<path d="M561.23,42.7c5.22-0.52,14.22-1.66,18.46-1.4" style="fill:none;stroke:#999;stroke-width:3" />
<path d="M561.38,62.85c5.01-0.24,12.28-1.59,18.97-1.15" style="fill:none;stroke:#999;stroke-width:3" />
<path d="M561.1600000000001,86.06c5.14-0.29,12.21-1.53,18.71-1.49" style="fill:none;stroke:#999;stroke-width:3" />
<path d="M592.62,20.85c1.29,0.34,3.65,0.41,4.94,0.34c9.29-0.49,24.75-1.52,32.77-2.05c2.14-0.14,3.17,0.1,4.67,0.48" style="fill:none;stroke:black;stroke-width:3" />
<circle cx="592.62" cy="20.85" r="5" stroke-width="0" fill="#FF2A00" opacity="0.7" />
<path d="M668.88,20.66c0.33,1.54,0.82,2.73,0.82,4.73c0,2.01-0.11,61.32,0,63.34" style="fill:none;stroke:#999;stroke-width:3" />
<path d="M670.26,21.45c1.89-0.02,15.7-2,17.43-2.1c1.43-0.08,2.44,1.69,2.44,3.55c0,6.86-0.67,49.23-0.67,64.89" style="fill:none;stroke:#999;stroke-width:3" />
<path d="M670.23,42.7c5.22-0.52,14.22-1.66,18.46-1.4" style="fill:none;stroke:#999;stroke-width:3" />
<path d="M670.38,62.85c5.01-0.24,12.28-1.59,18.97-1.15" style="fill:none;stroke:#999;stroke-width:3" />
<path d="M670.1600000000001,86.06c5.14-0.29,12.21-1.53,18.71-1.49" style="fill:none;stroke:#999;stroke-width:3" />
<path d="M701.62,20.85c1.29,0.34,3.65,0.41,4.94,0.34c9.29-0.49,24.75-1.52,32.77-2.05c2.14-0.14,3.17,0.1,4.67,0.48" style="fill:none;stroke:#999;stroke-width:3" />
<path d="M719.12,10.88c0.8,0.23,2.15,1.87,2.15,4.18c0,5.93,0.37,20.08,0.45,27.41" style="fill:none;stroke:black;stroke-width:3" />
<circle cx="719.12" cy="10.88" r="5" stroke-width="0" fill="#FF2A00" opacity="0.7" />
<path d="M777.88,20.66c0.33,1.54,0.82,2.73,0.82,4.73c0,2.01-0.11,61.32,0,63.34" style="fill:none;stroke:#999;stroke-width:3" />
<path d="M779.26,21.45c1.89-0.02,15.7-2,17.43-2.1c1.43-0.08,2.44,1.69,2.44,3.55c0,6.86-0.67,49.23-0.67,64.89" style="fill:none;stroke:#999;stroke-width:3" />
<path d="M779.23,42.7c5.22-0.52,14.22-1.66,18.46-1.4" style="fill:none;stroke:#999;stroke-width:3" />
<path d="M779.38,62.85c5.01-0.24,12.28-1.59,18.97-1.15" style="fill:none;stroke:#999;stroke-width:3" />
<path d="M779.1600000000001,86.06c5.14-0.29,12.21-1.53,18.71-1.49" style="fill:none;stroke:#999;stroke-width:3" />
<path d="M810.62,20.85c1.29,0.34,3.65,0.41,4.94,0.34c9.29-0.49,24.75-1.52,32.77-2.05c2.14-0.14,3.17,0.1,4.67,0.48" style="fill:none;stroke:#999;stroke-width:3" />
<path d="M828.12,10.88c0.8,0.23,2.15,1.87,2.15,4.18c0,5.93,0.37,20.08,0.45,27.41" style="fill:none;stroke:#999;stroke-width:3" />
<path d="M811.46,32.82c0.99,0.25,2.8,0.3,3.79,0.25c7.13-0.36,25.11-1.64,31.25-2.03c1.64-0.1,2.85-0.06,3.72-0.02" style="fill:none;stroke:black;stroke-width:3" />
<circle cx="811.46" cy="32.82" r="5" stroke-width="0" fill="#FF2A00" opacity="0.7" />
<path d="M886.88,20.66c0.33,1.54,0.82,2.73,0.82,4.73c0,2.01-0.11,61.32,0,63.34" style="fill:none;stroke:#999;stroke-width:3" />
<path d="M888.26,21.45c1.89-0.02,15.7-2,17.43-2.1c1.43-0.08,2.44,1.69,2.44,3.55c0,6.86-0.67,49.23-0.67,64.89" style="fill:none;stroke:#999;stroke-width:3" />
<path d="M888.23,42.7c5.22-0.52,14.22-1.66,18.46-1.4" style="fill:none;stroke:#999;stroke-width:3" />
<path d="M888.38,62.85c5.01-0.24,12.28-1.59,18.97-1.15" style="fill:none;stroke:#999;stroke-width:3" />
<path d="M888.1600000000001,86.06c5.14-0.29,12.21-1.53,18.71-1.49" style="fill:none;stroke:#999;stroke-width:3" />
<path d="M919.62,20.85c1.29,0.34,3.65,0.41,4.94,0.34c9.29-0.49,24.75-1.52,32.77-2.05c2.14-0.14,3.17,0.1,4.67,0.48" style="fill:none;stroke:#999;stroke-width:3" />
<path d="M937.12,10.88c0.8,0.23,2.15,1.87,2.15,4.18c0,5.93,0.37,20.08,0.45,27.41" style="fill:none;stroke:#999;stroke-width:3" />
<path d="M920.46,32.82c0.99,0.25,2.8,0.3,3.79,0.25c7.13-0.36,25.11-1.64,31.25-2.03c1.64-0.1,2.85-0.06,3.72-0.02" style="fill:none;stroke:#999;stroke-width:3" />
<path d="M914.38,45.14c1.54,0.27,4.37,0.41,5.91,0.27c12.52-1.16,27.71-2.16,41.32-2.68c2.55-0.1,6.29,0.27,8.14,0.93" style="fill:none;stroke:black;stroke-width:3" />
<circle cx="914.38" cy="45.14" r="5" stroke-width="0" fill="#FF2A00" opacity="0.7" />
<path d="M995.88,20.66c0.33,1.54,0.82,2.73,0.82,4.73c0,2.01-0.11,61.32,0,63.34" style="fill:none;stroke:#999;stroke-width:3" />
<path d="M997.26,21.45c1.89-0.02,15.7-2,17.43-2.1c1.43-0.08,2.44,1.69,2.44,3.55c0,6.86-0.67,49.23-0.67,64.89" style="fill:none;stroke:#999;stroke-width:3" />
<path d="M997.23,42.7c5.22-0.52,14.22-1.66,18.46-1.4" style="fill:none;stroke:#999;stroke-width:3" />
<path d="M997.38,62.85c5.01-0.24,12.28-1.59,18.97-1.15" style="fill:none;stroke:#999;stroke-width:3" />
<path d="M997.1600000000001,86.06c5.14-0.29,12.21-1.53,18.71-1.49" style="fill:none;stroke:#999;stroke-width:3" />
<path d="M1028.62,20.85c1.29,0.34,3.65,0.41,4.94,0.34c9.29-0.49,24.75-1.52,32.77-2.05c2.14-0.14,3.17,0.1,4.67,0.48" style="fill:none;stroke:#999;stroke-width:3" />
<path d="M1046.12,10.88c0.8,0.23,2.15,1.87,2.15,4.18c0,5.93,0.37,20.08,0.45,27.41" style="fill:none;stroke:#999;stroke-width:3" />
<path d="M1029.46,32.82c0.99,0.25,2.8,0.3,3.79,0.25c7.13-0.36,25.11-1.64,31.25-2.03c1.64-0.1,2.85-0.06,3.72-0.02" style="fill:none;stroke:#999;stroke-width:3" />
<path d="M1023.38,45.14c1.54,0.27,4.37,0.41,5.91,0.27c12.52-1.16,27.71-2.16,41.32-2.68c2.55-0.1,6.29,0.27,8.14,0.93" style="fill:none;stroke:#999;stroke-width:3" />
<path d="M1033.06,53.78c0.71,0.55,1.18,2.1,1.41,2.65c0.24,0.55,0.13,25.58,0.13,41.32" style="fill:none;stroke:black;stroke-width:3" />
<circle cx="1033.06" cy="53.78" r="5" stroke-width="0" fill="#FF2A00" opacity="0.7" />
<path d="M1104.88,20.66c0.33,1.54,0.82,2.73,0.82,4.73c0,2.01-0.11,61.32,0,63.34" style="fill:none;stroke:#999;stroke-width:3" />
<path d="M1106.26,21.45c1.89-0.02,15.7-2,17.43-2.1c1.43-0.08,2.44,1.69,2.44,3.55c0,6.86-0.67,49.23-0.67,64.89" style="fill:none;stroke:#999;stroke-width:3" />
<path d="M1106.23,42.7c5.22-0.52,14.22-1.66,18.46-1.4" style="fill:none;stroke:#999;stroke-width:3" />
<path d="M1106.38,62.85c5.01-0.24,12.28-1.59,18.97-1.15" style="fill:none;stroke:#999;stroke-width:3" />
<path d="M1106.16,86.06c5.14-0.29,12.21-1.53,18.71-1.49" style="fill:none;stroke:#999;stroke-width:3" />
<path d="M1137.62,20.85c1.29,0.34,3.65,0.41,4.94,0.34c9.29-0.49,24.75-1.52,32.77-2.05c2.14-0.14,3.17,0.1,4.67,0.48" style="fill:none;stroke:#999;stroke-width:3" />
<path d="M1155.12,10.88c0.8,0.23,2.15,1.87,2.15,4.18c0,5.93,0.37,20.08,0.45,27.41" style="fill:none;stroke:#999;stroke-width:3" />
<path d="M1138.46,32.82c0.99,0.25,2.8,0.3,3.79,0.25c7.13-0.36,25.11-1.64,31.25-2.03c1.64-0.1,2.85-0.06,3.72-0.02" style="fill:none;stroke:#999;stroke-width:3" />
<path d="M1132.38,45.14c1.54,0.27,4.37,0.41,5.91,0.27c12.52-1.16,27.71-2.16,41.32-2.68c2.55-0.1,6.29,0.27,8.14,0.93" style="fill:none;stroke:#999;stroke-width:3" />
<path d="M1142.06,53.78c0.71,0.55,1.18,2.1,1.41,2.65c0.24,0.55,0.13,25.58,0.13,41.32" style="fill:none;stroke:#999;stroke-width:3" />
<path d="M1143.39,55.33c5.36-0.58,26.28-2.34,28.37-2.61c1.74-0.22,3.21,0.78,3.21,2.61c0,4.18-0.1,21.74-0.21,32.85C1174.67,98 1170.0,92 1167.97,89.91" style="fill:none;stroke:black;stroke-width:3" />
<circle cx="1143.39" cy="55.33" r="5" stroke-width="0" fill="#FF2A00" opacity="0.7" />
<path d="M1213.88,20.66c0.33,1.54,0.82,2.73,0.82,4.73c0,2.01-0.11,61.32,0,63.34" style="fill:none;stroke:#999;stroke-width:3" />
<path d="M1215.26,21.45c1.89-0.02,15.7-2,17.43-2.1c1.43-0.08,2.44,1.69,2.44,3.55c0,6.86-0.67,49.23-0.67,64.89" style="fill:none;stroke:#999;stroke-width:3" />
<path d="M1215.23,42.7c5.22-0.52,14.22-1.66,18.46-1.4" style="fill:none;stroke:#999;stroke-width:3" />
<path d="M1215.38,62.85c5.01-0.24,12.28-1.59,18.97-1.15" style="fill:none;stroke:#999;stroke-width:3" />
<path d="M1215.16,86.06c5.14-0.29,12.21-1.53,18.71-1.49" style="fill:none;stroke:#999;stroke-width:3" />
<path d="M1246.62,20.85c1.29,0.34,3.65,0.41,4.94,0.34c9.29-0.49,24.75-1.52,32.77-2.05c2.14-0.14,3.17,0.1,4.67,0.48" style="fill:none;stroke:#999;stroke-width:3" />
<path d="M1264.12,10.88c0.8,0.23,2.15,1.87,2.15,4.18c0,5.93,0.37,20.08,0.45,27.41" style="fill:none;stroke:#999;stroke-width:3" />
<path d="M1247.46,32.82c0.99,0.25,2.8,0.3,3.79,0.25c7.13-0.36,25.11-1.64,31.25-2.03c1.64-0.1,2.85-0.06,3.72-0.02" style="fill:none;stroke:#999;stroke-width:3" />
<path d="M1241.38,45.14c1.54,0.27,4.37,0.41,5.91,0.27c12.52-1.16,27.71-2.16,41.32-2.68c2.55-0.1,6.29,0.27,8.14,0.93" style="fill:none;stroke:#999;stroke-width:3" />
<path d="M1251.06,53.78c0.71,0.55,1.18,2.1,1.41,2.65c0.24,0.55,0.13,25.58,0.13,41.32" style="fill:none;stroke:#999;stroke-width:3" />
<path d="M1252.39,55.33c5.36-0.58,26.28-2.34,28.37-2.61c1.74-0.22,3.21,0.78,3.21,2.61c0,4.18-0.1,21.74-0.21,32.85C1283.67,98 1279.0,92 1276.97,89.91" style="fill:none;stroke:#999;stroke-width:3" />
<path d="M1266.39,54.86c1.11,0.45,1,1.94,0.99,3.07c-0.03,5.7-0.13,11.89-0.13,14.57" style="fill:none;stroke:black;stroke-width:3" />
<circle cx="1266.39" cy="54.86" r="5" stroke-width="0" fill="#FF2A00" opacity="0.7" />
<path d="M1322.88,20.66c0.33,1.54,0.82,2.73,0.82,4.73c0,2.01-0.11,61.32,0,63.34" style="fill:none;stroke:#999;stroke-width:3" />
<path d="M1324.26,21.45c1.89-0.02,15.7-2,17.43-2.1c1.43-0.08,2.44,1.69,2.44,3.55c0,6.86-0.67,49.23-0.67,64.89" style="fill:none;stroke:#999;stroke-width:3" />
<path d="M1324.23,42.7c5.22-0.52,14.22-1.66,18.46-1.4" style="fill:none;stroke:#999;stroke-width:3" />
<path d="M1324.38,62.85c5.01-0.24,12.28-1.59,18.97-1.15" style="fill:none;stroke:#999;stroke-width:3" />
<path d="M1324.16,86.06c5.14-0.29,12.21-1.53,18.71-1.49" style="fill:none;stroke:#999;stroke-width:3" />
<path d="M1355.62,20.85c1.29,0.34,3.65,0.41,4.94,0.34c9.29-0.49,24.75-1.52,32.77-2.05c2.14-0.14,3.17,0.1,4.67,0.48" style="fill:none;stroke:#999;stroke-width:3" />
<path d="M1373.12,10.88c0.8,0.23,2.15,1.87,2.15,4.18c0,5.93,0.37,20.08,0.45,27.41" style="fill:none;stroke:#999;stroke-width:3" />
<path d="M1356.46,32.82c0.99,0.25,2.8,0.3,3.79,0.25c7.13-0.36,25.11-1.64,31.25-2.03c1.64-0.1,2.85-0.06,3.72-0.02" style="fill:none;stroke:#999;stroke-width:3" />
<path d="M1350.38,45.14c1.54,0.27,4.37,0.41,5.91,0.27c12.52-1.16,27.71-2.16,41.32-2.68c2.55-0.1,6.29,0.27,8.14,0.93" style="fill:none;stroke:#999;stroke-width:3" />
<path d="M1360.06,53.78c0.71,0.55,1.18,2.1,1.41,2.65c0.24,0.55,0.13,25.58,0.13,41.32" style="fill:none;stroke:#999;stroke-width:3" />
<path d="M1361.39,55.33c5.36-0.58,26.28-2.34,28.37-2.61c1.74-0.22,3.21,0.78,3.21,2.61c0,4.18-0.1,21.74-0.21,32.85C1392.67,98 1388.0,92 1385.97,89.91" style="fill:none;stroke:#999;stroke-width:3" />
<path d="M1375.39,54.86c1.11,0.45,1,1.94,0.99,3.07c-0.03,5.7-0.13,11.89-0.13,14.57" style="fill:none;stroke:#999;stroke-width:3" />
<path d="M1362.1,73.74C1371.75,73 1382.75,72 1392.57,71.82" style="fill:none;stroke:black;stroke-width:3" />
<circle cx="1362.1" cy="73.74" r="5" stroke-width="0" fill="#FF2A00" opacity="0.7" />
</svg>