<!-- 0777e -->
<svg width="1526px" height="109px" viewBox="0 0 1526px 109px" xmlns="http://www.w3.org/2000/svg" xmlns:xlink="http://www.w3.org/1999/xlink" xml:space="preserve" version="1.1"  baseProfile="full">
<line x1="1" y1="1" x2="1525" y2="1" style="stroke:#ddd;stroke-width:2" />
<line x1="1" y1="1" x2="1" y2="108" style="stroke:#ddd;stroke-width:2" />
<line x1="1" y1="108" x2="1525" y2="108" style="stroke:#ddd;stroke-width:2" />
<line x1="1525" y1="1" x2="1525" y2="108" style="stroke:#ddd;stroke-width:2" />
<line x1="109" y1="1" x2="109" y2="108" style="stroke:#ddd;stroke-width:2" />
<line x1="218" y1="1" x2="218" y2="108" style="stroke:#ddd;stroke-width:2" />
<line x1="327" y1="1" x2="327" y2="108" style="stroke:#ddd;stroke-width:2" />
<line x1="436" y1="1" x2="436" y2="108" style="stroke:#ddd;stroke-width:2" />
<line x1="545" y1="1" x2="545" y2="108" style="stroke:#ddd;stroke-width:2" />
<line x1="654" y1="1" x2="654" y2="108" style="stroke:#ddd;stroke-width:2" />
<line x1="763" y1="1" x2="763" y2="108" style="stroke:#ddd;stroke-width:2" />
<line x1="872" y1="1" x2="872" y2="108" style="stroke:#ddd;stroke-width:2" />
<line x1="981" y1="1" x2="981" y2="108" style="stroke:#ddd;stroke-width:2" />
<line x1="1090" y1="1" x2="1090" y2="108" style="stroke:#ddd;stroke-width:2" />
<line x1="1199" y1="1" x2="1199" y2="108" style="stroke:#ddd;stroke-width:2" />
<line x1="1308" y1="1" x2="1308" y2="108" style="stroke:#ddd;stroke-width:2" />
<line x1="1417" y1="1" x2="1417" y2="108" style="stroke:#ddd;stroke-width:2" />
<line x1="1" y1="54" x2="1525" y2="54" style="stroke:#ddd;stroke-width:2;stroke-dasharray:3 3" />
<line x1="55" y1="1" x2="55" y2="108" style="stroke:#ddd;stroke-width:2;stroke-dasharray:3 3" />
<line x1="164" y1="1" x2="164" y2="108" style="stroke:#ddd;stroke-width:2;stroke-dasharray:3 3" />
<line x1="273" y1="1" x2="273" y2="108" style="stroke:#ddd;stroke-width:2;stroke-dasharray:3 3" />
<line x1="382" y1="1" x2="382" y2="108" style="stroke:#ddd;stroke-width:2;stroke-dasharray:3 3" />
<line x1="491" y1="1" x2="491" y2="108" style="stroke:#ddd;stroke-width:2;stroke-dasharray:3 3" />
<line x1="600" y1="1" x2="600" y2="108" style="stroke:#ddd;stroke-width:2;stroke-dasharray:3 3" />
<line x1="709" y1="1" x2="709" y2="108" style="stroke:#ddd;stroke-width:2;stroke-dasharray:3 3" />
<line x1="818" y1="1" x2="818" y2="108" style="stroke:#ddd;stroke-width:2;stroke-dasharray:3 3" />
<line x1="927" y1="1" x2="927" y2="108" style="stroke:#ddd;stroke-width:2;stroke-dasharray:3 3" />
<line x1="1036" y1="1" x2="1036" y2="108" style="stroke:#ddd;stroke-width:2;stroke-dasharray:3 3" />
<line x1="1145" y1="1" x2="1145" y2="108" style="stroke:#ddd;stroke-width:2;stroke-dasharray:3 3" />
<line x1="1254" y1="1" x2="1254" y2="108" style="stroke:#ddd;stroke-width:2;stroke-dasharray:3 3" />
<line x1="1363" y1="1" x2="1363" y2="108" style="stroke:#ddd;stroke-width:2;stroke-dasharray:3 3" />
<line x1="1472" y1="1" x2="1472" y2="108" style="stroke:#ddd;stroke-width:2;stroke-dasharray:3 3" />
<path d="M48.97,9.14c0.02,0.21,0.04,0.54-0.04,0.83c-0.47,1.76-3.15,5.62-6.82,7.99" style="fill:none;stroke:black;stroke-width:3" />
<circle cx="48.97" cy="9.14" r="5" stroke-width="0" fill="#FF2A00" opacity="0.7" />
<path d="M157.97,9.14c0.02,0.21,0.04,0.54-0.04,0.83c-0.47,1.76-3.15,5.62-6.82,7.99" style="fill:none;stroke:#999;stroke-width:3" />
<path d="M131.38,19.43c0.24,0.24,1.49,1.62,1.6,1.92c0.82,2.36,1.81,7.7,2.38,11.95" style="fill:none;stroke:black;stroke-width:3" />
<circle cx="131.38" cy="19.43" r="5" stroke-width="0" fill="#FF2A00" opacity="0.7" />
<path d="M266.97,9.14c0.02,0.21,0.04,0.54-0.04,0.83c-0.47,1.76-3.15,5.62-6.82,7.99" style="fill:none;stroke:#999;stroke-width:3" />
<path d="M240.38,19.43c0.24,0.24,1.49,1.62,1.6,1.92c0.82,2.36,1.81,7.7,2.38,11.95" style="fill:none;stroke:#999;stroke-width:3" />
<path d="M241.86,21.03c9.17-0.93,56.89-4.53,61.62-4.8c2.03-0.12,3.39,1.8,3.12,3.13c-0.57,2.77-1.96,6.64-3.47,10.6" style="fill:none;stroke:black;stroke-width:3" />
<circle cx="241.86" cy="21.03" r="5" stroke-width="0" fill="#FF2A00" opacity="0.7" />
<path d="M375.97,9.14c0.02,0.21,0.04,0.54-0.04,0.83c-0.47,1.76-3.15,5.62-6.82,7.99" style="fill:none;stroke:#999;stroke-width:3" />
<path d="M349.38,19.43c0.24,0.24,1.49,1.62,1.6,1.92c0.82,2.36,1.81,7.7,2.38,11.95" style="fill:none;stroke:#999;stroke-width:3" />
<path d="M350.86,21.03c9.17-0.93,56.89-4.53,61.62-4.8c2.03-0.12,3.39,1.8,3.12,3.13c-0.57,2.77-1.96,6.64-3.47,10.6" style="fill:none;stroke:#999;stroke-width:3" />
<path d="M370.07,20c0.16,1.57,1.28,8.46,1.44,10.24" style="fill:none;stroke:black;stroke-width:3" />
<circle cx="370.07" cy="20.0" r="5" stroke-width="0" fill="#FF2A00" opacity="0.7" />
<path d="M484.97,9.14c0.02,0.21,0.04,0.54-0.04,0.83c-0.47,1.76-3.15,5.62-6.82,7.99" style="fill:none;stroke:#999;stroke-width:3" />
<path d="M458.38,19.43c0.24,0.24,1.49,1.62,1.6,1.92c0.82,2.36,1.81,7.7,2.38,11.95" style="fill:none;stroke:#999;stroke-width:3" />
<path d="M459.86,21.03c9.17-0.93,56.89-4.53,61.62-4.8c2.03-0.12,3.39,1.8,3.12,3.13c-0.57,2.77-1.96,6.64-3.47,10.6" style="fill:none;stroke:#999;stroke-width:3" />
<path d="M479.07,20c0.16,1.57,1.28,8.46,1.44,10.24" style="fill:none;stroke:#999;stroke-width:3" />
<path d="M500.07,19.02c-0.16,2.56-0.96,8.46-1.28,10.04" style="fill:none;stroke:black;stroke-width:3" />
<circle cx="500.07" cy="19.02" r="5" stroke-width="0" fill="#FF2A00" opacity="0.7" />
<path d="M593.97,9.14c0.02,0.21,0.04,0.54-0.04,0.83c-0.47,1.76-3.15,5.62-6.82,7.99" style="fill:none;stroke:#999;stroke-width:3" />
<path d="M567.38,19.43c0.24,0.24,1.49,1.62,1.6,1.92c0.82,2.36,1.81,7.7,2.38,11.95" style="fill:none;stroke:#999;stroke-width:3" />
<path d="M568.86,21.03c9.17-0.93,56.89-4.53,61.62-4.8c2.03-0.12,3.39,1.8,3.12,3.13c-0.57,2.77-1.96,6.64-3.47,10.6" style="fill:none;stroke:#999;stroke-width:3" />
<path d="M588.0699999999999,20c0.16,1.57,1.28,8.46,1.44,10.24" style="fill:none;stroke:#999;stroke-width:3" />
<path d="M609.0699999999999,19.02c-0.16,2.56-0.96,8.46-1.28,10.04" style="fill:none;stroke:#999;stroke-width:3" />
<path d="M571.6,32.11c5.67-0.29,48.98-3.56,58.9-3.79" style="fill:none;stroke:black;stroke-width:3" />
<circle cx="571.6" cy="32.11" r="5" stroke-width="0" fill="#FF2A00" opacity="0.7" />
<path d="M702.97,9.14c0.02,0.21,0.04,0.54-0.04,0.83c-0.47,1.76-3.15,5.62-6.82,7.99" style="fill:none;stroke:#999;stroke-width:3" />
<path d="M676.38,19.43c0.24,0.24,1.49,1.62,1.6,1.92c0.82,2.36,1.81,7.7,2.38,11.95" style="fill:none;stroke:#999;stroke-width:3" />
<path d="M677.86,21.03c9.17-0.93,56.89-4.53,61.62-4.8c2.03-0.12,3.39,1.8,3.12,3.13c-0.57,2.77-1.96,6.64-3.47,10.6" style="fill:none;stroke:#999;stroke-width:3" />
<path d="M697.0699999999999,20c0.16,1.57,1.28,8.46,1.44,10.24" style="fill:none;stroke:#999;stroke-width:3" />
<path d="M718.0699999999999,19.02c-0.16,2.56-0.96,8.46-1.28,10.04" style="fill:none;stroke:#999;stroke-width:3" />
<path d="M680.6,32.11c5.67-0.29,48.98-3.56,58.9-3.79" style="fill:none;stroke:#999;stroke-width:3" />
<path d="M685.03,41.67c1.44,0.35,4.08,0.45,5.51,0.35c11.21-0.78,29.46-2.78,38.78-2.84c2.4-0.02,3.83,0.17,5.03,0.35" style="fill:none;stroke:black;stroke-width:3" />
<circle cx="685.03" cy="41.67" r="5" stroke-width="0" fill="#FF2A00" opacity="0.7" />
<path d="M811.97,9.14c0.02,0.21,0.04,0.54-0.04,0.83c-0.47,1.76-3.15,5.62-6.82,7.99" style="fill:none;stroke:#999;stroke-width:3" />
<path d="M785.38,19.43c0.24,0.24,1.49,1.62,1.6,1.92c0.82,2.36,1.81,7.7,2.38,11.95" style="fill:none;stroke:#999;stroke-width:3" />
<path d="M786.86,21.03c9.17-0.93,56.89-4.53,61.62-4.8c2.03-0.12,3.39,1.8,3.12,3.13c-0.57,2.77-1.96,6.64-3.47,10.6" style="fill:none;stroke:#999;stroke-width:3" />
<path d="M806.0699999999999,20c0.16,1.57,1.28,8.46,1.44,10.24" style="fill:none;stroke:#999;stroke-width:3" />
<path d="M827.0699999999999,19.02c-0.16,2.56-0.96,8.46-1.28,10.04" style="fill:none;stroke:#999;stroke-width:3" />
<path d="M789.6,32.11c5.67-0.29,48.98-3.56,58.9-3.79" style="fill:none;stroke:#999;stroke-width:3" />
<path d="M794.03,41.67c1.44,0.35,4.08,0.45,5.51,0.35c11.21-0.78,29.46-2.78,38.78-2.84c2.4-0.02,3.83,0.17,5.03,0.35" style="fill:none;stroke:#999;stroke-width:3" />
<path d="M816.14,33.1c0.08,0.22,1.21,1.16,1.21,2.59c0,9.26-0.13,11.47-0.13,13.8" style="fill:none;stroke:black;stroke-width:3" />
<circle cx="816.14" cy="33.1" r="5" stroke-width="0" fill="#FF2A00" opacity="0.7" />
<path d="M920.97,9.14c0.02,0.21,0.04,0.54-0.04,0.83c-0.47,1.76-3.15,5.62-6.82,7.99" style="fill:none;stroke:#999;stroke-width:3" />
<path d="M894.38,19.43c0.24,0.24,1.49,1.62,1.6,1.92c0.82,2.36,1.81,7.7,2.38,11.95" style="fill:none;stroke:#999;stroke-width:3" />
<path d="M895.86,21.03c9.17-0.93,56.89-4.53,61.62-4.8c2.03-0.12,3.39,1.8,3.12,3.13c-0.57,2.77-1.96,6.64-3.47,10.6" style="fill:none;stroke:#999;stroke-width:3" />
<path d="M915.0699999999999,20c0.16,1.57,1.28,8.46,1.44,10.24" style="fill:none;stroke:#999;stroke-width:3" />
<path d="M936.0699999999999,19.02c-0.16,2.56-0.96,8.46-1.28,10.04" style="fill:none;stroke:#999;stroke-width:3" />
<path d="M898.6,32.11c5.67-0.29,48.98-3.56,58.9-3.79" style="fill:none;stroke:#999;stroke-width:3" />
<path d="M903.03,41.67c1.44,0.35,4.08,0.45,5.51,0.35c11.21-0.78,29.46-2.78,38.78-2.84c2.4-0.02,3.83,0.17,5.03,0.35" style="fill:none;stroke:#999;stroke-width:3" />
<path d="M925.14,33.1c0.08,0.22,1.21,1.16,1.21,2.59c0,9.26-0.13,11.47-0.13,13.8" style="fill:none;stroke:#999;stroke-width:3" />
<path d="M891.08,51.8c1.92,0.73,5.44,0.9,7.36,0.73c16.31-1.52,42.81-3.27,60.9-3.41c3.2-0.02,5.12,0.35,6.72,0.71" style="fill:none;stroke:black;stroke-width:3" />
<circle cx="891.08" cy="51.8" r="5" stroke-width="0" fill="#FF2A00" opacity="0.7" />
<path d="M1029.97,9.14c0.02,0.21,0.04,0.54-0.04,0.83c-0.47,1.76-3.15,5.62-6.82,7.99" style="fill:none;stroke:#999;stroke-width:3" />
<path d="M1003.38,19.43c0.24,0.24,1.49,1.62,1.6,1.92c0.82,2.36,1.81,7.7,2.38,11.95" style="fill:none;stroke:#999;stroke-width:3" />
<path d="M1004.86,21.03c9.17-0.93,56.89-4.53,61.62-4.8c2.03-0.12,3.39,1.8,3.12,3.13c-0.57,2.77-1.96,6.64-3.47,10.6" style="fill:none;stroke:#999;stroke-width:3" />
<path d="M1024.07,20c0.16,1.57,1.28,8.46,1.44,10.24" style="fill:none;stroke:#999;stroke-width:3" />
<path d="M1045.07,19.02c-0.16,2.56-0.96,8.46-1.28,10.04" style="fill:none;stroke:#999;stroke-width:3" />
<path d="M1007.6,32.11c5.67-0.29,48.98-3.56,58.9-3.79" style="fill:none;stroke:#999;stroke-width:3" />
<path d="M1012.03,41.67c1.44,0.35,4.08,0.45,5.51,0.35c11.21-0.78,29.46-2.78,38.78-2.84c2.4-0.02,3.83,0.17,5.03,0.35" style="fill:none;stroke:#999;stroke-width:3" />
<path d="M1034.1399999999999,33.1c0.08,0.22,1.21,1.16,1.21,2.59c0,9.26-0.13,11.47-0.13,13.8" style="fill:none;stroke:#999;stroke-width:3" />
<path d="M1000.08,51.8c1.92,0.73,5.44,0.9,7.36,0.73c16.31-1.52,42.81-3.27,60.9-3.41c3.2-0.02,5.12,0.35,6.72,0.71" style="fill:none;stroke:#999;stroke-width:3" />
<path d="M1020.35,54.57c2.17,1.79,5.6,7.35,6.14,10.13" style="fill:none;stroke:black;stroke-width:3" />
<circle cx="1020.35" cy="54.57" r="5" stroke-width="0" fill="#FF2A00" opacity="0.7" />
<path d="M1138.97,9.14c0.02,0.21,0.04,0.54-0.04,0.83c-0.47,1.76-3.15,5.62-6.82,7.99" style="fill:none;stroke:#999;stroke-width:3" />
<path d="M1112.38,19.43c0.24,0.24,1.49,1.62,1.6,1.92c0.82,2.36,1.81,7.7,2.38,11.95" style="fill:none;stroke:#999;stroke-width:3" />
<path d="M1113.8600000000001,21.03c9.17-0.93,56.89-4.53,61.62-4.8c2.03-0.12,3.39,1.8,3.12,3.13c-0.57,2.77-1.96,6.64-3.47,10.6" style="fill:none;stroke:#999;stroke-width:3" />
<path d="M1133.07,20c0.16,1.57,1.28,8.46,1.44,10.24" style="fill:none;stroke:#999;stroke-width:3" />
<path d="M1154.07,19.02c-0.16,2.56-0.96,8.46-1.28,10.04" style="fill:none;stroke:#999;stroke-width:3" />
<path d="M1116.6,32.11c5.67-0.29,48.98-3.56,58.9-3.79" style="fill:none;stroke:#999;stroke-width:3" />
<path d="M1121.03,41.67c1.44,0.35,4.08,0.45,5.51,0.35c11.21-0.78,29.46-2.78,38.78-2.84c2.4-0.02,3.83,0.17,5.03,0.35" style="fill:none;stroke:#999;stroke-width:3" />
<path d="M1143.1399999999999,33.1c0.08,0.22,1.21,1.16,1.21,2.59c0,9.26-0.13,11.47-0.13,13.8" style="fill:none;stroke:#999;stroke-width:3" />
<path d="M1109.08,51.8c1.92,0.73,5.44,0.9,7.36,0.73c16.31-1.52,42.81-3.27,60.9-3.41c3.2-0.02,5.12,0.35,6.72,0.71" style="fill:none;stroke:#999;stroke-width:3" />
<path d="M1129.35,54.57c2.17,1.79,5.6,7.35,6.14,10.13" style="fill:none;stroke:#999;stroke-width:3" />
<path d="M1159.97,52.9c0.02,0.25,0.04,0.64-0.04,0.99c-0.49,2.08-3.29,6.66-7.13,9.46" style="fill:none;stroke:black;stroke-width:3" />
<circle cx="1159.97" cy="52.9" r="5" stroke-width="0" fill="#FF2A00" opacity="0.7" />
<path d="M1247.97,9.14c0.02,0.21,0.04,0.54-0.04,0.83c-0.47,1.76-3.15,5.62-6.82,7.99" style="fill:none;stroke:#999;stroke-width:3" />
<path d="M1221.38,19.43c0.24,0.24,1.49,1.62,1.6,1.92c0.82,2.36,1.81,7.7,2.38,11.95" style="fill:none;stroke:#999;stroke-width:3" />
<path d="M1222.8600000000001,21.03c9.17-0.93,56.89-4.53,61.62-4.8c2.03-0.12,3.39,1.8,3.12,3.13c-0.57,2.77-1.96,6.64-3.47,10.6" style="fill:none;stroke:#999;stroke-width:3" />
<path d="M1242.07,20c0.16,1.57,1.28,8.46,1.44,10.24" style="fill:none;stroke:#999;stroke-width:3" />
<path d="M1263.07,19.02c-0.16,2.56-0.96,8.46-1.28,10.04" style="fill:none;stroke:#999;stroke-width:3" />
<path d="M1225.6,32.11c5.67-0.29,48.98-3.56,58.9-3.79" style="fill:none;stroke:#999;stroke-width:3" />
<path d="M1230.03,41.67c1.44,0.35,4.08,0.45,5.51,0.35c11.21-0.78,29.46-2.78,38.78-2.84c2.4-0.02,3.83,0.17,5.03,0.35" style="fill:none;stroke:#999;stroke-width:3" />
<path d="M1252.1399999999999,33.1c0.08,0.22,1.21,1.16,1.21,2.59c0,9.26-0.13,11.47-0.13,13.8" style="fill:none;stroke:#999;stroke-width:3" />
<path d="M1218.08,51.8c1.92,0.73,5.44,0.9,7.36,0.73c16.31-1.52,42.81-3.27,60.9-3.41c3.2-0.02,5.12,0.35,6.72,0.71" style="fill:none;stroke:#999;stroke-width:3" />
<path d="M1238.35,54.57c2.17,1.79,5.6,7.35,6.14,10.13" style="fill:none;stroke:#999;stroke-width:3" />
<path d="M1268.97,52.9c0.02,0.25,0.04,0.64-0.04,0.99c-0.49,2.08-3.29,6.66-7.13,9.46" style="fill:none;stroke:#999;stroke-width:3" />
<path d="M1227.66,68.51c1.05,0.46,4.65,0.5,5.7,0.42c7.24-0.55,31.62-2.12,43.97-3.03c1.74-0.13,5.4,0.4,6.27,0.63" style="fill:none;stroke:black;stroke-width:3" />
<circle cx="1227.66" cy="68.51" r="5" stroke-width="0" fill="#FF2A00" opacity="0.7" />
<path d="M1356.97,9.14c0.02,0.21,0.04,0.54-0.04,0.83c-0.47,1.76-3.15,5.62-6.82,7.99" style="fill:none;stroke:#999;stroke-width:3" />
<path d="M1330.38,19.43c0.24,0.24,1.49,1.62,1.6,1.92c0.82,2.36,1.81,7.7,2.38,11.95" style="fill:none;stroke:#999;stroke-width:3" />
<path d="M1331.8600000000001,21.03c9.17-0.93,56.89-4.53,61.62-4.8c2.03-0.12,3.39,1.8,3.12,3.13c-0.57,2.77-1.96,6.64-3.47,10.6" style="fill:none;stroke:#999;stroke-width:3" />
<path d="M1351.07,20c0.16,1.57,1.28,8.46,1.44,10.24" style="fill:none;stroke:#999;stroke-width:3" />
<path d="M1372.07,19.02c-0.16,2.56-0.96,8.46-1.28,10.04" style="fill:none;stroke:#999;stroke-width:3" />
<path d="M1334.6,32.11c5.67-0.29,48.98-3.56,58.9-3.79" style="fill:none;stroke:#999;stroke-width:3" />
<path d="M1339.03,41.67c1.44,0.35,4.08,0.45,5.51,0.35c11.21-0.78,29.46-2.78,38.78-2.84c2.4-0.02,3.83,0.17,5.03,0.35" style="fill:none;stroke:#999;stroke-width:3" />
<path d="M1361.1399999999999,33.1c0.08,0.22,1.21,1.16,1.21,2.59c0,9.26-0.13,11.47-0.13,13.8" style="fill:none;stroke:#999;stroke-width:3" />
<path d="M1327.08,51.8c1.92,0.73,5.44,0.9,7.36,0.73c16.31-1.52,42.81-3.27,60.9-3.41c3.2-0.02,5.12,0.35,6.72,0.71" style="fill:none;stroke:#999;stroke-width:3" />
<path d="M1347.35,54.57c2.17,1.79,5.6,7.35,6.14,10.13" style="fill:none;stroke:#999;stroke-width:3" />
<path d="M1377.97,52.9c0.02,0.25,0.04,0.64-0.04,0.99c-0.49,2.08-3.29,6.66-7.13,9.46" style="fill:none;stroke:#999;stroke-width:3" />
<path d="M1336.66,68.51c1.05,0.46,4.65,0.5,5.7,0.42c7.24-0.55,31.62-2.12,43.97-3.03c1.74-0.13,5.4,0.4,6.27,0.63" style="fill:none;stroke:#999;stroke-width:3" />
<path d="M1328.24,81.06c1.9,0.46,5.41,0.58,7.31,0.46c13.09-0.86,43.66-2.86,58.72-3.17c3.18-0.06,5.08,0.22,6.67,0.45" style="fill:none;stroke:black;stroke-width:3" />
<circle cx="1328.24" cy="81.06" r="5" stroke-width="0" fill="#FF2A00" opacity="0.7" />
<path d="M1465.97,9.14c0.02,0.21,0.04,0.54-0.04,0.83c-0.47,1.76-3.15,5.62-6.82,7.99" style="fill:none;stroke:#999;stroke-width:3" />
<path d="M1439.38,19.43c0.24,0.24,1.49,1.62,1.6,1.92c0.82,2.36,1.81,7.7,2.38,11.95" style="fill:none;stroke:#999;stroke-width:3" />
<path d="M1440.8600000000001,21.03c9.17-0.93,56.89-4.53,61.62-4.8c2.03-0.12,3.39,1.8,3.12,3.13c-0.57,2.77-1.96,6.64-3.47,10.6" style="fill:none;stroke:#999;stroke-width:3" />
<path d="M1460.07,20c0.16,1.57,1.28,8.46,1.44,10.24" style="fill:none;stroke:#999;stroke-width:3" />
<path d="M1481.07,19.02c-0.16,2.56-0.96,8.46-1.28,10.04" style="fill:none;stroke:#999;stroke-width:3" />
<path d="M1443.6,32.11c5.67-0.29,48.98-3.56,58.9-3.79" style="fill:none;stroke:#999;stroke-width:3" />
<path d="M1448.03,41.67c1.44,0.35,4.08,0.45,5.51,0.35c11.21-0.78,29.46-2.78,38.78-2.84c2.4-0.02,3.83,0.17,5.03,0.35" style="fill:none;stroke:#999;stroke-width:3" />
<path d="M1470.1399999999999,33.1c0.08,0.22,1.21,1.16,1.21,2.59c0,9.26-0.13,11.47-0.13,13.8" style="fill:none;stroke:#999;stroke-width:3" />
<path d="M1436.08,51.8c1.92,0.73,5.44,0.9,7.36,0.73c16.31-1.52,42.81-3.27,60.9-3.41c3.2-0.02,5.12,0.35,6.72,0.71" style="fill:none;stroke:#999;stroke-width:3" />
<path d="M1456.35,54.57c2.17,1.79,5.6,7.35,6.14,10.13" style="fill:none;stroke:#999;stroke-width:3" />
<path d="M1486.97,52.9c0.02,0.25,0.04,0.64-0.04,0.99c-0.49,2.08-3.29,6.66-7.13,9.46" style="fill:none;stroke:#999;stroke-width:3" />
<path d="M1445.66,68.51c1.05,0.46,4.65,0.5,5.7,0.42c7.24-0.55,31.62-2.12,43.97-3.03c1.74-0.13,5.4,0.4,6.27,0.63" style="fill:none;stroke:#999;stroke-width:3" />
<path d="M1437.24,81.06c1.9,0.46,5.41,0.58,7.31,0.46c13.09-0.86,43.66-2.86,58.72-3.17c3.18-0.06,5.08,0.22,6.67,0.45" style="fill:none;stroke:#999;stroke-width:3" />
<path d="M1470.4,68.12c0.37,0.39,1.15,2.15,1.23,2.93c0.07,0.78-0.05,25.09-0.12,29.95" style="fill:none;stroke:black;stroke-width:3" />
<circle cx="1470.4" cy="68.12" r="5" stroke-width="0" fill="#FF2A00" opacity="0.7" />
</svg>