<!-- 077b9 -->
<svg width="1962px" height="109px" viewBox="0 0 1962px 109px" xmlns="http://www.w3.org/2000/svg" xmlns:xlink="http://www.w3.org/1999/xlink" xml:space="preserve" version="1.1"  baseProfile="full">
<line x1="1" y1="1" x2="1961" y2="1" style="stroke:#ddd;stroke-width:2" />
<line x1="1" y1="1" x2="1" y2="108" style="stroke:#ddd;stroke-width:2" />
<line x1="1" y1="108" x2="1961" y2="108" style="stroke:#ddd;stroke-width:2" />
<line x1="1961" y1="1" x2="1961" y2="108" style="stroke:#ddd;stroke-width:2" />
<line x1="109" y1="1" x2="109" y2="108" style="stroke:#ddd;stroke-width:2" />
<line x1="218" y1="1" x2="218" y2="108" style="stroke:#ddd;stroke-width:2" />
<line x1="327" y1="1" x2="327" y2="108" style="stroke:#ddd;stroke-width:2" />
<line x1="436" y1="1" x2="436" y2="108" style="stroke:#ddd;stroke-width:2" />
<line x1="545" y1="1" x2="545" y2="108" style="stroke:#ddd;stroke-width:2" />
<line x1="654" y1="1" x2="654" y2="108" style="stroke:#ddd;stroke-width:2" />
<line x1="763" y1="1" x2="763" y2="108" style="stroke:#ddd;stroke-width:2" />
<line x1="872" y1="1" x2="872" y2="108" style="stroke:#ddd;stroke-width:2" />
<line x1="981" y1="1" x2="981" y2="108" style="stroke:#ddd;stroke-width:2" />
<line x1="1090" y1="1" x2="1090" y2="108" style="stroke:#ddd;stroke-width:2" />
<line x1="1199" y1="1" x2="1199" y2="108" style="stroke:#ddd;stroke-width:2" />
<line x1="1308" y1="1" x2="1308" y2="108" style="stroke:#ddd;stroke-width:2" />
<line x1="1417" y1="1" x2="1417" y2="108" style="stroke:#ddd;stroke-width:2" />
<line x1="1526" y1="1" x2="1526" y2="108" style="stroke:#ddd;stroke-width:2" />
<line x1="1635" y1="1" x2="1635" y2="108" style="stroke:#ddd;stroke-width:2" />
<line x1="1744" y1="1" x2="1744" y2="108" style="stroke:#ddd;stroke-width:2" />
<line x1="1853" y1="1" x2="1853" y2="108" style="stroke:#ddd;stroke-width:2" />
<line x1="1" y1="54" x2="1961" y2="54" style="stroke:#ddd;stroke-width:2;stroke-dasharray:3 3" />
<line x1="55" y1="1" x2="55" y2="108" style="stroke:#ddd;stroke-width:2;stroke-dasharray:3 3" />
<line x1="164" y1="1" x2="164" y2="108" style="stroke:#ddd;stroke-width:2;stroke-dasharray:3 3" />
<line x1="273" y1="1" x2="273" y2="108" style="stroke:#ddd;stroke-width:2;stroke-dasharray:3 3" />
<line x1="382" y1="1" x2="382" y2="108" style="stroke:#ddd;stroke-width:2;stroke-dasharray:3 3" />
<line x1="491" y1="1" x2="491" y2="108" style="stroke:#ddd;stroke-width:2;stroke-dasharray:3 3" />
<line x1="600" y1="1" x2="600" y2="108" style="stroke:#ddd;stroke-width:2;stroke-dasharray:3 3" />
<line x1="709" y1="1" x2="709" y2="108" style="stroke:#ddd;stroke-width:2;stroke-dasharray:3 3" />
<line x1="818" y1="1" x2="818" y2="108" style="stroke:#ddd;stroke-width:2;stroke-dasharray:3 3" />
<line x1="927" y1="1" x2="927" y2="108" style="stroke:#ddd;stroke-width:2;stroke-dasharray:3 3" />
<line x1="1036" y1="1" x2="1036" y2="108" style="stroke:#ddd;stroke-width:2;stroke-dasharray:3 3" />
<line x1="1145" y1="1" x2="1145" y2="108" style="stroke:#ddd;stroke-width:2;stroke-dasharray:3 3" />
<line x1="1254" y1="1" x2="1254" y2="108" style="stroke:#ddd;stroke-width:2;stroke-dasharray:3 3" />
<line x1="1363" y1="1" x2="1363" y2="108" style="stroke:#ddd;stroke-width:2;stroke-dasharray:3 3" />
<line x1="1472" y1="1" x2="1472" y2="108" style="stroke:#ddd;stroke-width:2;stroke-dasharray:3 3" />
<line x1="1581" y1="1" x2="1581" y2="108" style="stroke:#ddd;stroke-width:2;stroke-dasharray:3 3" />
<line x1="1690" y1="1" x2="1690" y2="108" style="stroke:#ddd;stroke-width:2;stroke-dasharray:3 3" />
<line x1="1799" y1="1" x2="1799" y2="108" style="stroke:#ddd;stroke-width:2;stroke-dasharray:3 3" />
<line x1="1908" y1="1" x2="1908" y2="108" style="stroke:#ddd;stroke-width:2;stroke-dasharray:3 3" />
<path d="M12.43,21.6c0.31,1.43,0.76,2.52,0.76,4.37c0,1.85-0.1,56.64,0,58.51" style="fill:none;stroke:black;stroke-width:3" />
<circle cx="12.43" cy="21.6" r="5" stroke-width="0" fill="#FF2A00" opacity="0.7" />
<path d="M121.43,21.6c0.31,1.43,0.76,2.52,0.76,4.37c0,1.85-0.1,56.64,0,58.51" style="fill:none;stroke:#999;stroke-width:3" />
<path d="M122.71000000000001,22.33c1.75-0.02,14.52-1.39,16.11-1.47c1.33-0.07,2.26,1.56,2.26,3.28c0,6.34-0.62,45.01-0.62,59.48" style="fill:none;stroke:black;stroke-width:3" />
<circle cx="122.71000000000001" cy="22.33" r="5" stroke-width="0" fill="#FF2A00" opacity="0.7" />
<path d="M230.43,21.6c0.31,1.43,0.76,2.52,0.76,4.37c0,1.85-0.1,56.64,0,58.51" style="fill:none;stroke:#999;stroke-width:3" />
<path d="M231.71,22.33c1.75-0.02,14.52-1.39,16.11-1.47c1.33-0.07,2.26,1.56,2.26,3.28c0,6.34-0.62,45.01-0.62,59.48" style="fill:none;stroke:#999;stroke-width:3" />
<path d="M231.68,41.88C236.5,41.39 244.0,40.5 248.74,40.55" style="fill:none;stroke:black;stroke-width:3" />
<circle cx="231.68" cy="41.88" r="5" stroke-width="0" fill="#FF2A00" opacity="0.7" />
<path d="M339.43,21.6c0.31,1.43,0.76,2.52,0.76,4.37c0,1.85-0.1,56.64,0,58.51" style="fill:none;stroke:#999;stroke-width:3" />
<path d="M340.71000000000004,22.33c1.75-0.02,14.52-1.39,16.11-1.47c1.33-0.07,2.26,1.56,2.26,3.28c0,6.34-0.62,45.01-0.62,59.48" style="fill:none;stroke:#999;stroke-width:3" />
<path d="M340.68,41.88C345.5,41.39 353.0,40.5 357.74,40.55" style="fill:none;stroke:#999;stroke-width:3" />
<path d="M340.82,60.53c4.63-0.22,11.43-1.78,17.54-1.6" style="fill:none;stroke:black;stroke-width:3" />
<circle cx="340.82" cy="60.53" r="5" stroke-width="0" fill="#FF2A00" opacity="0.7" />
<path d="M448.43,21.6c0.31,1.43,0.76,2.52,0.76,4.37c0,1.85-0.1,56.64,0,58.51" style="fill:none;stroke:#999;stroke-width:3" />
<path d="M449.71000000000004,22.33c1.75-0.02,14.52-1.39,16.11-1.47c1.33-0.07,2.26,1.56,2.26,3.28c0,6.34-0.62,45.01-0.62,59.48" style="fill:none;stroke:#999;stroke-width:3" />
<path d="M449.68,41.88C454.5,41.39 462.0,40.5 466.74,40.55" style="fill:none;stroke:#999;stroke-width:3" />
<path d="M449.82,60.53c4.63-0.22,11.43-1.78,17.54-1.6" style="fill:none;stroke:#999;stroke-width:3" />
<path d="M449.13,81.09c4.75-0.26,12.25-0.95,18.26-0.92" style="fill:none;stroke:black;stroke-width:3" />
<circle cx="449.13" cy="81.09" r="5" stroke-width="0" fill="#FF2A00" opacity="0.7" />
<path d="M557.4300000000001,21.6c0.31,1.43,0.76,2.52,0.76,4.37c0,1.85-0.1,56.64,0,58.51" style="fill:none;stroke:#999;stroke-width:3" />
<path d="M558.71,22.33c1.75-0.02,14.52-1.39,16.11-1.47c1.33-0.07,2.26,1.56,2.26,3.28c0,6.34-0.62,45.01-0.62,59.48" style="fill:none;stroke:#999;stroke-width:3" />
<path d="M558.6800000000001,41.88C563.5,41.39 571.0,40.5 575.74,40.55" style="fill:none;stroke:#999;stroke-width:3" />
<path d="M558.8199999999999,60.53c4.63-0.22,11.43-1.78,17.54-1.6" style="fill:none;stroke:#999;stroke-width:3" />
<path d="M558.13,81.09c4.75-0.26,12.25-0.95,18.26-0.92" style="fill:none;stroke:#999;stroke-width:3" />
<path d="M623.64,10.89c0.08,0.28,0.18,0.72-0.17,1.12c-2.09,2.35-16.9,7.09-33.28,10.25" style="fill:none;stroke:black;stroke-width:3" />
<circle cx="623.64" cy="10.89" r="5" stroke-width="0" fill="#FF2A00" opacity="0.7" />
<path d="M666.4300000000001,21.6c0.31,1.43,0.76,2.52,0.76,4.37c0,1.85-0.1,56.64,0,58.51" style="fill:none;stroke:#999;stroke-width:3" />
<path d="M667.71,22.33c1.75-0.02,14.52-1.39,16.11-1.47c1.33-0.07,2.26,1.56,2.26,3.28c0,6.34-0.62,45.01-0.62,59.48" style="fill:none;stroke:#999;stroke-width:3" />
<path d="M667.6800000000001,41.88C672.5,41.39 680.0,40.5 684.74,40.55" style="fill:none;stroke:#999;stroke-width:3" />
<path d="M667.8199999999999,60.53c4.63-0.22,11.43-1.78,17.54-1.6" style="fill:none;stroke:#999;stroke-width:3" />
<path d="M667.13,81.09c4.75-0.26,12.25-0.95,18.26-0.92" style="fill:none;stroke:#999;stroke-width:3" />
<path d="M732.64,10.89c0.08,0.28,0.18,0.72-0.17,1.12c-2.09,2.35-16.9,7.09-33.28,10.25" style="fill:none;stroke:#999;stroke-width:3" />
<path d="M698.41,26.11c2.45,1.69,6.03,5.82,6.65,8.44" style="fill:none;stroke:black;stroke-width:3" />
<circle cx="698.41" cy="26.11" r="5" stroke-width="0" fill="#FF2A00" opacity="0.7" />
<path d="M775.4300000000001,21.6c0.31,1.43,0.76,2.52,0.76,4.37c0,1.85-0.1,56.64,0,58.51" style="fill:none;stroke:#999;stroke-width:3" />
<path d="M776.71,22.33c1.75-0.02,14.52-1.39,16.11-1.47c1.33-0.07,2.26,1.56,2.26,3.28c0,6.34-0.62,45.01-0.62,59.48" style="fill:none;stroke:#999;stroke-width:3" />
<path d="M776.6800000000001,41.88C781.5,41.39 789.0,40.5 793.74,40.55" style="fill:none;stroke:#999;stroke-width:3" />
<path d="M776.8199999999999,60.53c4.63-0.22,11.43-1.78,17.54-1.6" style="fill:none;stroke:#999;stroke-width:3" />
<path d="M776.13,81.09c4.75-0.26,12.25-0.95,18.26-0.92" style="fill:none;stroke:#999;stroke-width:3" />
<path d="M841.64,10.89c0.08,0.28,0.18,0.72-0.17,1.12c-2.09,2.35-16.9,7.09-33.28,10.25" style="fill:none;stroke:#999;stroke-width:3" />
<path d="M807.41,26.11c2.45,1.69,6.03,5.82,6.65,8.44" style="fill:none;stroke:#999;stroke-width:3" />
<path d="M823.04,24.52c2.2,1.44,5.69,5.91,6.24,8.14" style="fill:none;stroke:black;stroke-width:3" />
<circle cx="823.04" cy="24.52" r="5" stroke-width="0" fill="#FF2A00" opacity="0.7" />
<path d="M884.4300000000001,21.6c0.31,1.43,0.76,2.52,0.76,4.37c0,1.85-0.1,56.64,0,58.51" style="fill:none;stroke:#999;stroke-width:3" />
<path d="M885.71,22.33c1.75-0.02,14.52-1.39,16.11-1.47c1.33-0.07,2.26,1.56,2.26,3.28c0,6.34-0.62,45.01-0.62,59.48" style="fill:none;stroke:#999;stroke-width:3" />
<path d="M885.6800000000001,41.88C890.5,41.39 898.0,40.5 902.74,40.55" style="fill:none;stroke:#999;stroke-width:3" />
<path d="M885.8199999999999,60.53c4.63-0.22,11.43-1.78,17.54-1.6" style="fill:none;stroke:#999;stroke-width:3" />
<path d="M885.13,81.09c4.75-0.26,12.25-0.95,18.26-0.92" style="fill:none;stroke:#999;stroke-width:3" />
<path d="M950.64,10.89c0.08,0.28,0.18,0.72-0.17,1.12c-2.09,2.35-16.9,7.09-33.28,10.25" style="fill:none;stroke:#999;stroke-width:3" />
<path d="M916.41,26.11c2.45,1.69,6.03,5.82,6.65,8.44" style="fill:none;stroke:#999;stroke-width:3" />
<path d="M932.04,24.52c2.2,1.44,5.69,5.91,6.24,8.14" style="fill:none;stroke:#999;stroke-width:3" />
<path d="M956.86,20.59c0.02,0.31,0.05,0.8-0.04,1.25c-0.54,2.63-3.65,8.39-7.91,11.92" style="fill:none;stroke:black;stroke-width:3" />
<circle cx="956.86" cy="20.59" r="5" stroke-width="0" fill="#FF2A00" opacity="0.7" />
<path d="M993.4300000000001,21.6c0.31,1.43,0.76,2.52,0.76,4.37c0,1.85-0.1,56.64,0,58.51" style="fill:none;stroke:#999;stroke-width:3" />
<path d="M994.71,22.33c1.75-0.02,14.52-1.39,16.11-1.47c1.33-0.07,2.26,1.56,2.26,3.28c0,6.34-0.62,45.01-0.62,59.48" style="fill:none;stroke:#999;stroke-width:3" />
<path d="M994.6800000000001,41.88C999.5,41.39 1007.0,40.5 1011.74,40.55" style="fill:none;stroke:#999;stroke-width:3" />
<path d="M994.8199999999999,60.53c4.63-0.22,11.43-1.78,17.54-1.6" style="fill:none;stroke:#999;stroke-width:3" />
<path d="M994.13,81.09c4.75-0.26,12.25-0.95,18.26-0.92" style="fill:none;stroke:#999;stroke-width:3" />
<path d="M1059.6399999999999,10.89c0.08,0.28,0.18,0.72-0.17,1.12c-2.09,2.35-16.9,7.09-33.28,10.25" style="fill:none;stroke:#999;stroke-width:3" />
<path d="M1025.4099999999999,26.11c2.45,1.69,6.03,5.82,6.65,8.44" style="fill:none;stroke:#999;stroke-width:3" />
<path d="M1041.04,24.52c2.2,1.44,5.69,5.91,6.24,8.14" style="fill:none;stroke:#999;stroke-width:3" />
<path d="M1065.8600000000001,20.59c0.02,0.31,0.05,0.8-0.04,1.25c-0.54,2.63-3.65,8.39-7.91,11.92" style="fill:none;stroke:#999;stroke-width:3" />
<path d="M1022.05,36.89c-0.08,3.54-1.62,11.6-2.36,13.77" style="fill:none;stroke:black;stroke-width:3" />
<circle cx="1022.05" cy="36.89" r="5" stroke-width="0" fill="#FF2A00" opacity="0.7" />
<path d="M1102.43,21.6c0.31,1.43,0.76,2.52,0.76,4.37c0,1.85-0.1,56.64,0,58.51" style="fill:none;stroke:#999;stroke-width:3" />
<path d="M1103.71,22.33c1.75-0.02,14.52-1.39,16.11-1.47c1.33-0.07,2.26,1.56,2.26,3.28c0,6.34-0.62,45.01-0.62,59.48" style="fill:none;stroke:#999;stroke-width:3" />
<path d="M1103.68,41.88C1108.5,41.39 1116.0,40.5 1120.74,40.55" style="fill:none;stroke:#999;stroke-width:3" />
<path d="M1103.82,60.53c4.63-0.22,11.43-1.78,17.54-1.6" style="fill:none;stroke:#999;stroke-width:3" />
<path d="M1103.13,81.09c4.75-0.26,12.25-0.95,18.26-0.92" style="fill:none;stroke:#999;stroke-width:3" />
<path d="M1168.6399999999999,10.89c0.08,0.28,0.18,0.72-0.17,1.12c-2.09,2.35-16.9,7.09-33.28,10.25" style="fill:none;stroke:#999;stroke-width:3" />
<path d="M1134.4099999999999,26.11c2.45,1.69,6.03,5.82,6.65,8.44" style="fill:none;stroke:#999;stroke-width:3" />
<path d="M1150.04,24.52c2.2,1.44,5.69,5.91,6.24,8.14" style="fill:none;stroke:#999;stroke-width:3" />
<path d="M1174.8600000000001,20.59c0.02,0.31,0.05,0.8-0.04,1.25c-0.54,2.63-3.65,8.39-7.91,11.92" style="fill:none;stroke:#999;stroke-width:3" />
<path d="M1131.05,36.89c-0.08,3.54-1.62,11.6-2.36,13.77" style="fill:none;stroke:#999;stroke-width:3" />
<path d="M1131.58,39.79c11.68-0.93,35.93-2.93,48.91-3.8c9.77-0.65,1.29,5.66-1.49,7.5" style="fill:none;stroke:black;stroke-width:3" />
<circle cx="1131.58" cy="39.79" r="5" stroke-width="0" fill="#FF2A00" opacity="0.7" />
<path d="M1211.43,21.6c0.31,1.43,0.76,2.52,0.76,4.37c0,1.85-0.1,56.64,0,58.51" style="fill:none;stroke:#999;stroke-width:3" />
<path d="M1212.71,22.33c1.75-0.02,14.52-1.39,16.11-1.47c1.33-0.07,2.26,1.56,2.26,3.28c0,6.34-0.62,45.01-0.62,59.48" style="fill:none;stroke:#999;stroke-width:3" />
<path d="M1212.68,41.88C1217.5,41.39 1225.0,40.5 1229.74,40.55" style="fill:none;stroke:#999;stroke-width:3" />
<path d="M1212.82,60.53c4.63-0.22,11.43-1.78,17.54-1.6" style="fill:none;stroke:#999;stroke-width:3" />
<path d="M1212.13,81.09c4.75-0.26,12.25-0.95,18.26-0.92" style="fill:none;stroke:#999;stroke-width:3" />
<path d="M1277.6399999999999,10.89c0.08,0.28,0.18,0.72-0.17,1.12c-2.09,2.35-16.9,7.09-33.28,10.25" style="fill:none;stroke:#999;stroke-width:3" />
<path d="M1243.4099999999999,26.11c2.45,1.69,6.03,5.82,6.65,8.44" style="fill:none;stroke:#999;stroke-width:3" />
<path d="M1259.04,24.52c2.2,1.44,5.69,5.91,6.24,8.14" style="fill:none;stroke:#999;stroke-width:3" />
<path d="M1283.8600000000001,20.59c0.02,0.31,0.05,0.8-0.04,1.25c-0.54,2.63-3.65,8.39-7.91,11.92" style="fill:none;stroke:#999;stroke-width:3" />
<path d="M1240.05,36.89c-0.08,3.54-1.62,11.6-2.36,13.77" style="fill:none;stroke:#999;stroke-width:3" />
<path d="M1240.58,39.79c11.68-0.93,35.93-2.93,48.91-3.8c9.77-0.65,1.29,5.66-1.49,7.5" style="fill:none;stroke:#999;stroke-width:3" />
<path d="M1245.76,50.28c0.18,1.52-1.76,8.22-3.18,10.74" style="fill:none;stroke:black;stroke-width:3" />
<circle cx="1245.76" cy="50.28" r="5" stroke-width="0" fill="#FF2A00" opacity="0.7" />
<path d="M1320.43,21.6c0.31,1.43,0.76,2.52,0.76,4.37c0,1.85-0.1,56.64,0,58.51" style="fill:none;stroke:#999;stroke-width:3" />
<path d="M1321.71,22.33c1.75-0.02,14.52-1.39,16.11-1.47c1.33-0.07,2.26,1.56,2.26,3.28c0,6.34-0.62,45.01-0.62,59.48" style="fill:none;stroke:#999;stroke-width:3" />
<path d="M1321.68,41.88C1326.5,41.39 1334.0,40.5 1338.74,40.55" style="fill:none;stroke:#999;stroke-width:3" />
<path d="M1321.82,60.53c4.63-0.22,11.43-1.78,17.54-1.6" style="fill:none;stroke:#999;stroke-width:3" />
<path d="M1321.13,81.09c4.75-0.26,12.25-0.95,18.26-0.92" style="fill:none;stroke:#999;stroke-width:3" />
<path d="M1386.6399999999999,10.89c0.08,0.28,0.18,0.72-0.17,1.12c-2.09,2.35-16.9,7.09-33.28,10.25" style="fill:none;stroke:#999;stroke-width:3" />
<path d="M1352.4099999999999,26.11c2.45,1.69,6.03,5.82,6.65,8.44" style="fill:none;stroke:#999;stroke-width:3" />
<path d="M1368.04,24.52c2.2,1.44,5.69,5.91,6.24,8.14" style="fill:none;stroke:#999;stroke-width:3" />
<path d="M1392.8600000000001,20.59c0.02,0.31,0.05,0.8-0.04,1.25c-0.54,2.63-3.65,8.39-7.91,11.92" style="fill:none;stroke:#999;stroke-width:3" />
<path d="M1349.05,36.89c-0.08,3.54-1.62,11.6-2.36,13.77" style="fill:none;stroke:#999;stroke-width:3" />
<path d="M1349.58,39.79c11.68-0.93,35.93-2.93,48.91-3.8c9.77-0.65,1.29,5.66-1.49,7.5" style="fill:none;stroke:#999;stroke-width:3" />
<path d="M1354.76,50.28c0.18,1.52-1.76,8.22-3.18,10.74" style="fill:none;stroke:#999;stroke-width:3" />
<path d="M1361.76,48.6c4.37,7.92,10.28,13.91,25.11,12.95c3.89-0.25,4.25-2.09,2.12-3.91" style="fill:none;stroke:black;stroke-width:3" />
<circle cx="1361.76" cy="48.6" r="5" stroke-width="0" fill="#FF2A00" opacity="0.7" />
<path d="M1429.43,21.6c0.31,1.43,0.76,2.52,0.76,4.37c0,1.85-0.1,56.64,0,58.51" style="fill:none;stroke:#999;stroke-width:3" />
<path d="M1430.71,22.33c1.75-0.02,14.52-1.39,16.11-1.47c1.33-0.07,2.26,1.56,2.26,3.28c0,6.34-0.62,45.01-0.62,59.48" style="fill:none;stroke:#999;stroke-width:3" />
<path d="M1430.68,41.88C1435.5,41.39 1443.0,40.5 1447.74,40.55" style="fill:none;stroke:#999;stroke-width:3" />
<path d="M1430.82,60.53c4.63-0.22,11.43-1.78,17.54-1.6" style="fill:none;stroke:#999;stroke-width:3" />
<path d="M1430.13,81.09c4.75-0.26,12.25-0.95,18.26-0.92" style="fill:none;stroke:#999;stroke-width:3" />
<path d="M1495.6399999999999,10.89c0.08,0.28,0.18,0.72-0.17,1.12c-2.09,2.35-16.9,7.09-33.28,10.25" style="fill:none;stroke:#999;stroke-width:3" />
<path d="M1461.4099999999999,26.11c2.45,1.69,6.03,5.82,6.65,8.44" style="fill:none;stroke:#999;stroke-width:3" />
<path d="M1477.04,24.52c2.2,1.44,5.69,5.91,6.24,8.14" style="fill:none;stroke:#999;stroke-width:3" />
<path d="M1501.8600000000001,20.59c0.02,0.31,0.05,0.8-0.04,1.25c-0.54,2.63-3.65,8.39-7.91,11.92" style="fill:none;stroke:#999;stroke-width:3" />
<path d="M1458.05,36.89c-0.08,3.54-1.62,11.6-2.36,13.77" style="fill:none;stroke:#999;stroke-width:3" />
<path d="M1458.58,39.79c11.68-0.93,35.93-2.93,48.91-3.8c9.77-0.65,1.29,5.66-1.49,7.5" style="fill:none;stroke:#999;stroke-width:3" />
<path d="M1463.76,50.28c0.18,1.52-1.76,8.22-3.18,10.74" style="fill:none;stroke:#999;stroke-width:3" />
<path d="M1470.76,48.6c4.37,7.92,10.28,13.91,25.11,12.95c3.89-0.25,4.25-2.09,2.12-3.91" style="fill:none;stroke:#999;stroke-width:3" />
<path d="M1481.54,46.4c1.71,3.35,4.21,7.1,5.52,2.32" style="fill:none;stroke:black;stroke-width:3" />
<circle cx="1481.54" cy="46.4" r="5" stroke-width="0" fill="#FF2A00" opacity="0.7" />
<path d="M1538.43,21.6c0.31,1.43,0.76,2.52,0.76,4.37c0,1.85-0.1,56.64,0,58.51" style="fill:none;stroke:#999;stroke-width:3" />
<path d="M1539.71,22.33c1.75-0.02,14.52-1.39,16.11-1.47c1.33-0.07,2.26,1.56,2.26,3.28c0,6.34-0.62,45.01-0.62,59.48" style="fill:none;stroke:#999;stroke-width:3" />
<path d="M1539.68,41.88C1544.5,41.39 1552.0,40.5 1556.74,40.55" style="fill:none;stroke:#999;stroke-width:3" />
<path d="M1539.82,60.53c4.63-0.22,11.43-1.78,17.54-1.6" style="fill:none;stroke:#999;stroke-width:3" />
<path d="M1539.13,81.09c4.75-0.26,12.25-0.95,18.26-0.92" style="fill:none;stroke:#999;stroke-width:3" />
<path d="M1604.6399999999999,10.89c0.08,0.28,0.18,0.72-0.17,1.12c-2.09,2.35-16.9,7.09-33.28,10.25" style="fill:none;stroke:#999;stroke-width:3" />
<path d="M1570.4099999999999,26.11c2.45,1.69,6.03,5.82,6.65,8.44" style="fill:none;stroke:#999;stroke-width:3" />
<path d="M1586.04,24.52c2.2,1.44,5.69,5.91,6.24,8.14" style="fill:none;stroke:#999;stroke-width:3" />
<path d="M1610.8600000000001,20.59c0.02,0.31,0.05,0.8-0.04,1.25c-0.54,2.63-3.65,8.39-7.91,11.92" style="fill:none;stroke:#999;stroke-width:3" />
<path d="M1567.05,36.89c-0.08,3.54-1.62,11.6-2.36,13.77" style="fill:none;stroke:#999;stroke-width:3" />
<path d="M1567.58,39.79c11.68-0.93,35.93-2.93,48.91-3.8c9.77-0.65,1.29,5.66-1.49,7.5" style="fill:none;stroke:#999;stroke-width:3" />
<path d="M1572.76,50.28c0.18,1.52-1.76,8.22-3.18,10.74" style="fill:none;stroke:#999;stroke-width:3" />
<path d="M1579.76,48.6c4.37,7.92,10.28,13.91,25.11,12.95c3.89-0.25,4.25-2.09,2.12-3.91" style="fill:none;stroke:#999;stroke-width:3" />
<path d="M1590.54,46.4c1.71,3.35,4.21,7.1,5.52,2.32" style="fill:none;stroke:#999;stroke-width:3" />
<path d="M1604.04,45.07c5.03,2.14,9.96,6.68,12.89,10.69" style="fill:none;stroke:black;stroke-width:3" />
<circle cx="1604.04" cy="45.07" r="5" stroke-width="0" fill="#FF2A00" opacity="0.7" />
<path d="M1647.43,21.6c0.31,1.43,0.76,2.52,0.76,4.37c0,1.85-0.1,56.64,0,58.51" style="fill:none;stroke:#999;stroke-width:3" />
<path d="M1648.71,22.33c1.75-0.02,14.52-1.39,16.11-1.47c1.33-0.07,2.26,1.56,2.26,3.28c0,6.34-0.62,45.01-0.62,59.48" style="fill:none;stroke:#999;stroke-width:3" />
<path d="M1648.68,41.88C1653.5,41.39 1661.0,40.5 1665.74,40.55" style="fill:none;stroke:#999;stroke-width:3" />
<path d="M1648.82,60.53c4.63-0.22,11.43-1.78,17.54-1.6" style="fill:none;stroke:#999;stroke-width:3" />
<path d="M1648.13,81.09c4.75-0.26,12.25-0.95,18.26-0.92" style="fill:none;stroke:#999;stroke-width:3" />
<path d="M1713.6399999999999,10.89c0.08,0.28,0.18,0.72-0.17,1.12c-2.09,2.35-16.9,7.09-33.28,10.25" style="fill:none;stroke:#999;stroke-width:3" />
<path d="M1679.4099999999999,26.11c2.45,1.69,6.03,5.82,6.65,8.44" style="fill:none;stroke:#999;stroke-width:3" />
<path d="M1695.04,24.52c2.2,1.44,5.69,5.91,6.24,8.14" style="fill:none;stroke:#999;stroke-width:3" />
<path d="M1719.8600000000001,20.59c0.02,0.31,0.05,0.8-0.04,1.25c-0.54,2.63-3.65,8.39-7.91,11.92" style="fill:none;stroke:#999;stroke-width:3" />
<path d="M1676.05,36.89c-0.08,3.54-1.62,11.6-2.36,13.77" style="fill:none;stroke:#999;stroke-width:3" />
<path d="M1676.58,39.79c11.68-0.93,35.93-2.93,48.91-3.8c9.77-0.65,1.29,5.66-1.49,7.5" style="fill:none;stroke:#999;stroke-width:3" />
<path d="M1681.76,50.28c0.18,1.52-1.76,8.22-3.18,10.74" style="fill:none;stroke:#999;stroke-width:3" />
<path d="M1688.76,48.6c4.37,7.92,10.28,13.91,25.11,12.95c3.89-0.25,4.25-2.09,2.12-3.91" style="fill:none;stroke:#999;stroke-width:3" />
<path d="M1699.54,46.4c1.71,3.35,4.21,7.1,5.52,2.32" style="fill:none;stroke:#999;stroke-width:3" />
<path d="M1713.04,45.07c5.03,2.14,9.96,6.68,12.89,10.69" style="fill:none;stroke:#999;stroke-width:3" />
<path d="M1692.72,61.16c0.04,0.51,0.09,1.3-0.08,2.03c-1.02,4.28-6.88,13.67-14.91,19.42" style="fill:none;stroke:black;stroke-width:3" />
<circle cx="1692.72" cy="61.16" r="5" stroke-width="0" fill="#FF2A00" opacity="0.7" />
<path d="M1756.43,21.6c0.31,1.43,0.76,2.52,0.76,4.37c0,1.85-0.1,56.64,0,58.51" style="fill:none;stroke:#999;stroke-width:3" />
<path d="M1757.71,22.33c1.75-0.02,14.52-1.39,16.11-1.47c1.33-0.07,2.26,1.56,2.26,3.28c0,6.34-0.62,45.01-0.62,59.48" style="fill:none;stroke:#999;stroke-width:3" />
<path d="M1757.68,41.88C1762.5,41.39 1770.0,40.5 1774.74,40.55" style="fill:none;stroke:#999;stroke-width:3" />
<path d="M1757.82,60.53c4.63-0.22,11.43-1.78,17.54-1.6" style="fill:none;stroke:#999;stroke-width:3" />
<path d="M1757.13,81.09c4.75-0.26,12.25-0.95,18.26-0.92" style="fill:none;stroke:#999;stroke-width:3" />
<path d="M1822.6399999999999,10.89c0.08,0.28,0.18,0.72-0.17,1.12c-2.09,2.35-16.9,7.09-33.28,10.25" style="fill:none;stroke:#999;stroke-width:3" />
<path d="M1788.4099999999999,26.11c2.45,1.69,6.03,5.82,6.65,8.44" style="fill:none;stroke:#999;stroke-width:3" />
<path d="M1804.04,24.52c2.2,1.44,5.69,5.91,6.24,8.14" style="fill:none;stroke:#999;stroke-width:3" />
<path d="M1828.8600000000001,20.59c0.02,0.31,0.05,0.8-0.04,1.25c-0.54,2.63-3.65,8.39-7.91,11.92" style="fill:none;stroke:#999;stroke-width:3" />
<path d="M1785.05,36.89c-0.08,3.54-1.62,11.6-2.36,13.77" style="fill:none;stroke:#999;stroke-width:3" />
<path d="M1785.58,39.79c11.68-0.93,35.93-2.93,48.91-3.8c9.77-0.65,1.29,5.66-1.49,7.5" style="fill:none;stroke:#999;stroke-width:3" />
<path d="M1790.76,50.28c0.18,1.52-1.76,8.22-3.18,10.74" style="fill:none;stroke:#999;stroke-width:3" />
<path d="M1797.76,48.6c4.37,7.92,10.28,13.91,25.11,12.95c3.89-0.25,4.25-2.09,2.12-3.91" style="fill:none;stroke:#999;stroke-width:3" />
<path d="M1808.54,46.4c1.71,3.35,4.21,7.1,5.52,2.32" style="fill:none;stroke:#999;stroke-width:3" />
<path d="M1822.04,45.07c5.03,2.14,9.96,6.68,12.89,10.69" style="fill:none;stroke:#999;stroke-width:3" />
<path d="M1801.72,61.16c0.04,0.51,0.09,1.3-0.08,2.03c-1.02,4.28-6.88,13.67-14.91,19.42" style="fill:none;stroke:#999;stroke-width:3" />
<path d="M1800.34,71.49c0.27,0.02,1.41,0,2.17-0.07c2.5-0.22,10.74-1.78,14.32-2.48c2.46-0.48,3.51,0.45,2.17,3.39c-3.3,7.25-18,22.17-34.09,27.89" style="fill:none;stroke:black;stroke-width:3" />
<circle cx="1800.34" cy="71.49" r="5" stroke-width="0" fill="#FF2A00" opacity="0.7" />
<path d="M1865.43,21.6c0.31,1.43,0.76,2.52,0.76,4.37c0,1.85-0.1,56.64,0,58.51" style="fill:none;stroke:#999;stroke-width:3" />
<path d="M1866.71,22.33c1.75-0.02,14.52-1.39,16.11-1.47c1.33-0.07,2.26,1.56,2.26,3.28c0,6.34-0.62,45.01-0.62,59.48" style="fill:none;stroke:#999;stroke-width:3" />
<path d="M1866.68,41.88C1871.5,41.39 1879.0,40.5 1883.74,40.55" style="fill:none;stroke:#999;stroke-width:3" />
<path d="M1866.82,60.53c4.63-0.22,11.43-1.78,17.54-1.6" style="fill:none;stroke:#999;stroke-width:3" />
<path d="M1866.13,81.09c4.75-0.26,12.25-0.95,18.26-0.92" style="fill:none;stroke:#999;stroke-width:3" />
<path d="M1931.6399999999999,10.89c0.08,0.28,0.18,0.72-0.17,1.12c-2.09,2.35-16.9,7.09-33.28,10.25" style="fill:none;stroke:#999;stroke-width:3" />
<path d="M1897.4099999999999,26.11c2.45,1.69,6.03,5.82,6.65,8.44" style="fill:none;stroke:#999;stroke-width:3" />
<path d="M1913.04,24.52c2.2,1.44,5.69,5.91,6.24,8.14" style="fill:none;stroke:#999;stroke-width:3" />
<path d="M1937.8600000000001,20.59c0.02,0.31,0.05,0.8-0.04,1.25c-0.54,2.63-3.65,8.39-7.91,11.92" style="fill:none;stroke:#999;stroke-width:3" />
<path d="M1894.05,36.89c-0.08,3.54-1.62,11.6-2.36,13.77" style="fill:none;stroke:#999;stroke-width:3" />
<path d="M1894.58,39.79c11.68-0.93,35.93-2.93,48.91-3.8c9.77-0.65,1.29,5.66-1.49,7.5" style="fill:none;stroke:#999;stroke-width:3" />
<path d="M1899.76,50.28c0.18,1.52-1.76,8.22-3.18,10.74" style="fill:none;stroke:#999;stroke-width:3" />
<path d="M1906.76,48.6c4.37,7.92,10.28,13.91,25.11,12.95c3.89-0.25,4.25-2.09,2.12-3.91" style="fill:none;stroke:#999;stroke-width:3" />
<path d="M1917.54,46.4c1.71,3.35,4.21,7.1,5.52,2.32" style="fill:none;stroke:#999;stroke-width:3" />
<path d="M1931.04,45.07c5.03,2.14,9.96,6.68,12.89,10.69" style="fill:none;stroke:#999;stroke-width:3" />
<path d="M1910.72,61.16c0.04,0.51,0.09,1.3-0.08,2.03c-1.02,4.28-6.88,13.67-14.91,19.42" style="fill:none;stroke:#999;stroke-width:3" />
<path d="M1909.34,71.49c0.27,0.02,1.41,0,2.17-0.07c2.5-0.22,10.74-1.78,14.32-2.48c2.46-0.48,3.51,0.45,2.17,3.39c-3.3,7.25-18,22.17-34.09,27.89" style="fill:none;stroke:#999;stroke-width:3" />
<path d="M1904.75,76.82C1911.25,79 1931.0,93.75 1940.32,97.47c2.26,0.9,3.97,1.56,6.11,1.87" style="fill:none;stroke:black;stroke-width:3" />
<circle cx="1904.75" cy="76.82" r="5" stroke-width="0" fill="#FF2A00" opacity="0.7" />
</svg>