<!-- 077bf -->
<svg width="1962px" height="109px" viewBox="0 0 1962px 109px" xmlns="http://www.w3.org/2000/svg" xmlns:xlink="http://www.w3.org/1999/xlink" xml:space="preserve" version="1.1"  baseProfile="full">
<line x1="1" y1="1" x2="1961" y2="1" style="stroke:#ddd;stroke-width:2" />
<line x1="1" y1="1" x2="1" y2="108" style="stroke:#ddd;stroke-width:2" />
<line x1="1" y1="108" x2="1961" y2="108" style="stroke:#ddd;stroke-width:2" />
<line x1="1961" y1="1" x2="1961" y2="108" style="stroke:#ddd;stroke-width:2" />
<line x1="109" y1="1" x2="109" y2="108" style="stroke:#ddd;stroke-width:2" />
<line x1="218" y1="1" x2="218" y2="108" style="stroke:#ddd;stroke-width:2" />
<line x1="327" y1="1" x2="327" y2="108" style="stroke:#ddd;stroke-width:2" />
<line x1="436" y1="1" x2="436" y2="108" style="stroke:#ddd;stroke-width:2" />
<line x1="545" y1="1" x2="545" y2="108" style="stroke:#ddd;stroke-width:2" />
<line x1="654" y1="1" x2="654" y2="108" style="stroke:#ddd;stroke-width:2" />
<line x1="763" y1="1" x2="763" y2="108" style="stroke:#ddd;stroke-width:2" />
<line x1="872" y1="1" x2="872" y2="108" style="stroke:#ddd;stroke-width:2" />
<line x1="981" y1="1" x2="981" y2="108" style="stroke:#ddd;stroke-width:2" />
<line x1="1090" y1="1" x2="1090" y2="108" style="stroke:#ddd;stroke-width:2" />
<line x1="1199" y1="1" x2="1199" y2="108" style="stroke:#ddd;stroke-width:2" />
<line x1="1308" y1="1" x2="1308" y2="108" style="stroke:#ddd;stroke-width:2" />
<line x1="1417" y1="1" x2="1417" y2="108" style="stroke:#ddd;stroke-width:2" />
<line x1="1526" y1="1" x2="1526" y2="108" style="stroke:#ddd;stroke-width:2" />
<line x1="1635" y1="1" x2="1635" y2="108" style="stroke:#ddd;stroke-width:2" />
<line x1="1744" y1="1" x2="1744" y2="108" style="stroke:#ddd;stroke-width:2" />
<line x1="1853" y1="1" x2="1853" y2="108" style="stroke:#ddd;stroke-width:2" />
<line x1="1" y1="54" x2="1961" y2="54" style="stroke:#ddd;stroke-width:2;stroke-dasharray:3 3" />
<line x1="55" y1="1" x2="55" y2="108" style="stroke:#ddd;stroke-width:2;stroke-dasharray:3 3" />
<line x1="164" y1="1" x2="164" y2="108" style="stroke:#ddd;stroke-width:2;stroke-dasharray:3 3" />
<line x1="273" y1="1" x2="273" y2="108" style="stroke:#ddd;stroke-width:2;stroke-dasharray:3 3" />
<line x1="382" y1="1" x2="382" y2="108" style="stroke:#ddd;stroke-width:2;stroke-dasharray:3 3" />
<line x1="491" y1="1" x2="491" y2="108" style="stroke:#ddd;stroke-width:2;stroke-dasharray:3 3" />
<line x1="600" y1="1" x2="600" y2="108" style="stroke:#ddd;stroke-width:2;stroke-dasharray:3 3" />
<line x1="709" y1="1" x2="709" y2="108" style="stroke:#ddd;stroke-width:2;stroke-dasharray:3 3" />
<line x1="818" y1="1" x2="818" y2="108" style="stroke:#ddd;stroke-width:2;stroke-dasharray:3 3" />
<line x1="927" y1="1" x2="927" y2="108" style="stroke:#ddd;stroke-width:2;stroke-dasharray:3 3" />
<line x1="1036" y1="1" x2="1036" y2="108" style="stroke:#ddd;stroke-width:2;stroke-dasharray:3 3" />
<line x1="1145" y1="1" x2="1145" y2="108" style="stroke:#ddd;stroke-width:2;stroke-dasharray:3 3" />
<line x1="1254" y1="1" x2="1254" y2="108" style="stroke:#ddd;stroke-width:2;stroke-dasharray:3 3" />
<line x1="1363" y1="1" x2="1363" y2="108" style="stroke:#ddd;stroke-width:2;stroke-dasharray:3 3" />
<line x1="1472" y1="1" x2="1472" y2="108" style="stroke:#ddd;stroke-width:2;stroke-dasharray:3 3" />
<line x1="1581" y1="1" x2="1581" y2="108" style="stroke:#ddd;stroke-width:2;stroke-dasharray:3 3" />
<line x1="1690" y1="1" x2="1690" y2="108" style="stroke:#ddd;stroke-width:2;stroke-dasharray:3 3" />
<line x1="1799" y1="1" x2="1799" y2="108" style="stroke:#ddd;stroke-width:2;stroke-dasharray:3 3" />
<line x1="1908" y1="1" x2="1908" y2="108" style="stroke:#ddd;stroke-width:2;stroke-dasharray:3 3" />
<path d="M25.0,13.03c0.37,0.69,0.91,1.21,0.91,2.14c0,0.93-0.25,27.48-0.25,27.95" style="fill:none;stroke:black;stroke-width:3" />
<circle cx="25.0" cy="13.03" r="5" stroke-width="0" fill="#FF2A00" opacity="0.7" />
<path d="M134.0,13.03c0.37,0.69,0.91,1.21,0.91,2.14c0,0.93-0.25,27.48-0.25,27.95" style="fill:none;stroke:#999;stroke-width:3" />
<path d="M134.79,13.93c2.1-0.12,18.84-1.8,20.75-1.94c1.59-0.12,2.85,0.65,2.72,1.5c-0.17,1.09-0.37,24.97-0.37,29.17" style="fill:none;stroke:black;stroke-width:3" />
<circle cx="134.79" cy="13.93" r="5" stroke-width="0" fill="#FF2A00" opacity="0.7" />
<path d="M243.0,13.03c0.37,0.69,0.91,1.21,0.91,2.14c0,0.93-0.25,27.48-0.25,27.95" style="fill:none;stroke:#999;stroke-width:3" />
<path d="M243.79,13.93c2.1-0.12,18.84-1.8,20.75-1.94c1.59-0.12,2.85,0.65,2.72,1.5c-0.17,1.09-0.37,24.97-0.37,29.17" style="fill:none;stroke:#999;stroke-width:3" />
<path d="M244.49,23.67c4.14-0.16,18.77-1.47,22.14-1.47" style="fill:none;stroke:black;stroke-width:3" />
<circle cx="244.49" cy="23.67" r="5" stroke-width="0" fill="#FF2A00" opacity="0.7" />
<path d="M352.0,13.03c0.37,0.69,0.91,1.21,0.91,2.14c0,0.93-0.25,27.48-0.25,27.95" style="fill:none;stroke:#999;stroke-width:3" />
<path d="M352.78999999999996,13.93c2.1-0.12,18.84-1.8,20.75-1.94c1.59-0.12,2.85,0.65,2.72,1.5c-0.17,1.09-0.37,24.97-0.37,29.17" style="fill:none;stroke:#999;stroke-width:3" />
<path d="M353.49,23.67c4.14-0.16,18.77-1.47,22.14-1.47" style="fill:none;stroke:#999;stroke-width:3" />
<path d="M353.67,32.5c5.56-0.39,16.32-1.39,21.72-1.39" style="fill:none;stroke:black;stroke-width:3" />
<circle cx="353.67" cy="32.5" r="5" stroke-width="0" fill="#FF2A00" opacity="0.7" />
<path d="M461.0,13.03c0.37,0.69,0.91,1.21,0.91,2.14c0,0.93-0.25,27.48-0.25,27.95" style="fill:none;stroke:#999;stroke-width:3" />
<path d="M461.78999999999996,13.93c2.1-0.12,18.84-1.8,20.75-1.94c1.59-0.12,2.85,0.65,2.72,1.5c-0.17,1.09-0.37,24.97-0.37,29.17" style="fill:none;stroke:#999;stroke-width:3" />
<path d="M462.49,23.67c4.14-0.16,18.77-1.47,22.14-1.47" style="fill:none;stroke:#999;stroke-width:3" />
<path d="M462.67,32.5c5.56-0.39,16.32-1.39,21.72-1.39" style="fill:none;stroke:#999;stroke-width:3" />
<path d="M462.1,41.04c4.78-0.2,17.16-1.04,22.56-1.04" style="fill:none;stroke:black;stroke-width:3" />
<circle cx="462.1" cy="41.04" r="5" stroke-width="0" fill="#FF2A00" opacity="0.7" />
<path d="M570.0,13.03c0.37,0.69,0.91,1.21,0.91,2.14c0,0.93-0.25,27.48-0.25,27.95" style="fill:none;stroke:#999;stroke-width:3" />
<path d="M570.79,13.93c2.1-0.12,18.84-1.8,20.75-1.94c1.59-0.12,2.85,0.65,2.72,1.5c-0.17,1.09-0.37,24.97-0.37,29.17" style="fill:none;stroke:#999;stroke-width:3" />
<path d="M571.49,23.67c4.14-0.16,18.77-1.47,22.14-1.47" style="fill:none;stroke:#999;stroke-width:3" />
<path d="M571.6700000000001,32.5c5.56-0.39,16.32-1.39,21.72-1.39" style="fill:none;stroke:#999;stroke-width:3" />
<path d="M571.1,41.04c4.78-0.2,17.16-1.04,22.56-1.04" style="fill:none;stroke:#999;stroke-width:3" />
<path d="M606.5,12.53c0.36,0.69,0.88,1.21,0.88,2.14c0,0.93-0.24,27.48-0.24,27.95" style="fill:none;stroke:black;stroke-width:3" />
<circle cx="606.5" cy="12.53" r="5" stroke-width="0" fill="#FF2A00" opacity="0.7" />
<path d="M679.0,13.03c0.37,0.69,0.91,1.21,0.91,2.14c0,0.93-0.25,27.48-0.25,27.95" style="fill:none;stroke:#999;stroke-width:3" />
<path d="M679.79,13.93c2.1-0.12,18.84-1.8,20.75-1.94c1.59-0.12,2.85,0.65,2.72,1.5c-0.17,1.09-0.37,24.97-0.37,29.17" style="fill:none;stroke:#999;stroke-width:3" />
<path d="M680.49,23.67c4.14-0.16,18.77-1.47,22.14-1.47" style="fill:none;stroke:#999;stroke-width:3" />
<path d="M680.6700000000001,32.5c5.56-0.39,16.32-1.39,21.72-1.39" style="fill:none;stroke:#999;stroke-width:3" />
<path d="M680.1,41.04c4.78-0.2,17.16-1.04,22.56-1.04" style="fill:none;stroke:#999;stroke-width:3" />
<path d="M715.5,12.53c0.36,0.69,0.88,1.21,0.88,2.14c0,0.93-0.24,27.48-0.24,27.95" style="fill:none;stroke:#999;stroke-width:3" />
<path d="M716.27,13.43c2.04-0.12,18.25-1.8,20.11-1.94c1.55-0.12,2.76,0.65,2.63,1.5c-0.17,1.09-0.36,24.97-0.36,29.17" style="fill:none;stroke:black;stroke-width:3" />
<circle cx="716.27" cy="13.43" r="5" stroke-width="0" fill="#FF2A00" opacity="0.7" />
<path d="M788.0,13.03c0.37,0.69,0.91,1.21,0.91,2.14c0,0.93-0.25,27.48-0.25,27.95" style="fill:none;stroke:#999;stroke-width:3" />
<path d="M788.79,13.93c2.1-0.12,18.84-1.8,20.75-1.94c1.59-0.12,2.85,0.65,2.72,1.5c-0.17,1.09-0.37,24.97-0.37,29.17" style="fill:none;stroke:#999;stroke-width:3" />
<path d="M789.49,23.67c4.14-0.16,18.77-1.47,22.14-1.47" style="fill:none;stroke:#999;stroke-width:3" />
<path d="M789.6700000000001,32.5c5.56-0.39,16.32-1.39,21.72-1.39" style="fill:none;stroke:#999;stroke-width:3" />
<path d="M789.1,41.04c4.78-0.2,17.16-1.04,22.56-1.04" style="fill:none;stroke:#999;stroke-width:3" />
<path d="M824.5,12.53c0.36,0.69,0.88,1.21,0.88,2.14c0,0.93-0.24,27.48-0.24,27.95" style="fill:none;stroke:#999;stroke-width:3" />
<path d="M825.27,13.43c2.04-0.12,18.25-1.8,20.11-1.94c1.55-0.12,2.76,0.65,2.63,1.5c-0.17,1.09-0.36,24.97-0.36,29.17" style="fill:none;stroke:#999;stroke-width:3" />
<path d="M825.95,22.67c4.01-0.16,18.19-1.47,21.46-1.47" style="fill:none;stroke:black;stroke-width:3" />
<circle cx="825.95" cy="22.67" r="5" stroke-width="0" fill="#FF2A00" opacity="0.7" />
<path d="M897.0,13.03c0.37,0.69,0.91,1.21,0.91,2.14c0,0.93-0.25,27.48-0.25,27.95" style="fill:none;stroke:#999;stroke-width:3" />
<path d="M897.79,13.93c2.1-0.12,18.84-1.8,20.75-1.94c1.59-0.12,2.85,0.65,2.72,1.5c-0.17,1.09-0.37,24.97-0.37,29.17" style="fill:none;stroke:#999;stroke-width:3" />
<path d="M898.49,23.67c4.14-0.16,18.77-1.47,22.14-1.47" style="fill:none;stroke:#999;stroke-width:3" />
<path d="M898.6700000000001,32.5c5.56-0.39,16.32-1.39,21.72-1.39" style="fill:none;stroke:#999;stroke-width:3" />
<path d="M898.1,41.04c4.78-0.2,17.16-1.04,22.56-1.04" style="fill:none;stroke:#999;stroke-width:3" />
<path d="M933.5,12.53c0.36,0.69,0.88,1.21,0.88,2.14c0,0.93-0.24,27.48-0.24,27.95" style="fill:none;stroke:#999;stroke-width:3" />
<path d="M934.27,13.43c2.04-0.12,18.25-1.8,20.11-1.94c1.55-0.12,2.76,0.65,2.63,1.5c-0.17,1.09-0.36,24.97-0.36,29.17" style="fill:none;stroke:#999;stroke-width:3" />
<path d="M934.95,22.67c4.01-0.16,18.19-1.47,21.46-1.47" style="fill:none;stroke:#999;stroke-width:3" />
<path d="M935.11,32c5.39-0.39,15.82-1.39,21.05-1.39" style="fill:none;stroke:black;stroke-width:3" />
<circle cx="935.11" cy="32.0" r="5" stroke-width="0" fill="#FF2A00" opacity="0.7" />
<path d="M1006.0,13.03c0.37,0.69,0.91,1.21,0.91,2.14c0,0.93-0.25,27.48-0.25,27.95" style="fill:none;stroke:#999;stroke-width:3" />
<path d="M1006.79,13.93c2.1-0.12,18.84-1.8,20.75-1.94c1.59-0.12,2.85,0.65,2.72,1.5c-0.17,1.09-0.37,24.97-0.37,29.17" style="fill:none;stroke:#999;stroke-width:3" />
<path d="M1007.49,23.67c4.14-0.16,18.77-1.47,22.14-1.47" style="fill:none;stroke:#999;stroke-width:3" />
<path d="M1007.6700000000001,32.5c5.56-0.39,16.32-1.39,21.72-1.39" style="fill:none;stroke:#999;stroke-width:3" />
<path d="M1007.1,41.04c4.78-0.2,17.16-1.04,22.56-1.04" style="fill:none;stroke:#999;stroke-width:3" />
<path d="M1042.5,12.53c0.36,0.69,0.88,1.21,0.88,2.14c0,0.93-0.24,27.48-0.24,27.95" style="fill:none;stroke:#999;stroke-width:3" />
<path d="M1043.27,13.43c2.04-0.12,18.25-1.8,20.11-1.94c1.55-0.12,2.76,0.65,2.63,1.5c-0.17,1.09-0.36,24.97-0.36,29.17" style="fill:none;stroke:#999;stroke-width:3" />
<path d="M1043.95,22.67c4.01-0.16,18.19-1.47,21.46-1.47" style="fill:none;stroke:#999;stroke-width:3" />
<path d="M1044.1100000000001,32c5.39-0.39,15.82-1.39,21.05-1.39" style="fill:none;stroke:#999;stroke-width:3" />
<path d="M1043.57,40.54c4.63-0.2,16.63-1.04,21.87-1.04" style="fill:none;stroke:black;stroke-width:3" />
<circle cx="1043.57" cy="40.54" r="5" stroke-width="0" fill="#FF2A00" opacity="0.7" />
<path d="M1115.0,13.03c0.37,0.69,0.91,1.21,0.91,2.14c0,0.93-0.25,27.48-0.25,27.95" style="fill:none;stroke:#999;stroke-width:3" />
<path d="M1115.79,13.93c2.1-0.12,18.84-1.8,20.75-1.94c1.59-0.12,2.85,0.65,2.72,1.5c-0.17,1.09-0.37,24.97-0.37,29.17" style="fill:none;stroke:#999;stroke-width:3" />
<path d="M1116.49,23.67c4.14-0.16,18.77-1.47,22.14-1.47" style="fill:none;stroke:#999;stroke-width:3" />
<path d="M1116.67,32.5c5.56-0.39,16.32-1.39,21.72-1.39" style="fill:none;stroke:#999;stroke-width:3" />
<path d="M1116.1,41.04c4.78-0.2,17.16-1.04,22.56-1.04" style="fill:none;stroke:#999;stroke-width:3" />
<path d="M1151.5,12.53c0.36,0.69,0.88,1.21,0.88,2.14c0,0.93-0.24,27.48-0.24,27.95" style="fill:none;stroke:#999;stroke-width:3" />
<path d="M1152.27,13.43c2.04-0.12,18.25-1.8,20.11-1.94c1.55-0.12,2.76,0.65,2.63,1.5c-0.17,1.09-0.36,24.97-0.36,29.17" style="fill:none;stroke:#999;stroke-width:3" />
<path d="M1152.95,22.67c4.01-0.16,18.19-1.47,21.46-1.47" style="fill:none;stroke:#999;stroke-width:3" />
<path d="M1153.1100000000001,32c5.39-0.39,15.82-1.39,21.05-1.39" style="fill:none;stroke:#999;stroke-width:3" />
<path d="M1152.57,40.54c4.63-0.2,16.63-1.04,21.87-1.04" style="fill:none;stroke:#999;stroke-width:3" />
<path d="M1127.13,45.75c0.23,1.29-0.06,2.99-0.81,4.09C1121.6,56.9 1115.6,62.88 1104.75,71.47" style="fill:none;stroke:black;stroke-width:3" />
<circle cx="1127.13" cy="45.75" r="5" stroke-width="0" fill="#FF2A00" opacity="0.7" />
<path d="M1224.0,13.03c0.37,0.69,0.91,1.21,0.91,2.14c0,0.93-0.25,27.48-0.25,27.95" style="fill:none;stroke:#999;stroke-width:3" />
<path d="M1224.79,13.93c2.1-0.12,18.84-1.8,20.75-1.94c1.59-0.12,2.85,0.65,2.72,1.5c-0.17,1.09-0.37,24.97-0.37,29.17" style="fill:none;stroke:#999;stroke-width:3" />
<path d="M1225.49,23.67c4.14-0.16,18.77-1.47,22.14-1.47" style="fill:none;stroke:#999;stroke-width:3" />
<path d="M1225.67,32.5c5.56-0.39,16.32-1.39,21.72-1.39" style="fill:none;stroke:#999;stroke-width:3" />
<path d="M1225.1,41.04c4.78-0.2,17.16-1.04,22.56-1.04" style="fill:none;stroke:#999;stroke-width:3" />
<path d="M1260.5,12.53c0.36,0.69,0.88,1.21,0.88,2.14c0,0.93-0.24,27.48-0.24,27.95" style="fill:none;stroke:#999;stroke-width:3" />
<path d="M1261.27,13.43c2.04-0.12,18.25-1.8,20.11-1.94c1.55-0.12,2.76,0.65,2.63,1.5c-0.17,1.09-0.36,24.97-0.36,29.17" style="fill:none;stroke:#999;stroke-width:3" />
<path d="M1261.95,22.67c4.01-0.16,18.19-1.47,21.46-1.47" style="fill:none;stroke:#999;stroke-width:3" />
<path d="M1262.1100000000001,32c5.39-0.39,15.82-1.39,21.05-1.39" style="fill:none;stroke:#999;stroke-width:3" />
<path d="M1261.57,40.54c4.63-0.2,16.63-1.04,21.87-1.04" style="fill:none;stroke:#999;stroke-width:3" />
<path d="M1236.13,45.75c0.23,1.29-0.06,2.99-0.81,4.09C1230.6,56.9 1224.6,62.88 1213.75,71.47" style="fill:none;stroke:#999;stroke-width:3" />
<path d="M1227.78,59.9c0.92,0.6,1.63,1.92,1.69,2.85c0.55,8.29-0.75,30.19-0.29,34.5" style="fill:none;stroke:black;stroke-width:3" />
<circle cx="1227.78" cy="59.9" r="5" stroke-width="0" fill="#FF2A00" opacity="0.7" />
<path d="M1333.0,13.03c0.37,0.69,0.91,1.21,0.91,2.14c0,0.93-0.25,27.48-0.25,27.95" style="fill:none;stroke:#999;stroke-width:3" />
<path d="M1333.79,13.93c2.1-0.12,18.84-1.8,20.75-1.94c1.59-0.12,2.85,0.65,2.72,1.5c-0.17,1.09-0.37,24.97-0.37,29.17" style="fill:none;stroke:#999;stroke-width:3" />
<path d="M1334.49,23.67c4.14-0.16,18.77-1.47,22.14-1.47" style="fill:none;stroke:#999;stroke-width:3" />
<path d="M1334.67,32.5c5.56-0.39,16.32-1.39,21.72-1.39" style="fill:none;stroke:#999;stroke-width:3" />
<path d="M1334.1,41.04c4.78-0.2,17.16-1.04,22.56-1.04" style="fill:none;stroke:#999;stroke-width:3" />
<path d="M1369.5,12.53c0.36,0.69,0.88,1.21,0.88,2.14c0,0.93-0.24,27.48-0.24,27.95" style="fill:none;stroke:#999;stroke-width:3" />
<path d="M1370.27,13.43c2.04-0.12,18.25-1.8,20.11-1.94c1.55-0.12,2.76,0.65,2.63,1.5c-0.17,1.09-0.36,24.97-0.36,29.17" style="fill:none;stroke:#999;stroke-width:3" />
<path d="M1370.95,22.67c4.01-0.16,18.19-1.47,21.46-1.47" style="fill:none;stroke:#999;stroke-width:3" />
<path d="M1371.1100000000001,32c5.39-0.39,15.82-1.39,21.05-1.39" style="fill:none;stroke:#999;stroke-width:3" />
<path d="M1370.57,40.54c4.63-0.2,16.63-1.04,21.87-1.04" style="fill:none;stroke:#999;stroke-width:3" />
<path d="M1345.13,45.75c0.23,1.29-0.06,2.99-0.81,4.09C1339.6,56.9 1333.6,62.88 1322.75,71.47" style="fill:none;stroke:#999;stroke-width:3" />
<path d="M1336.78,59.9c0.92,0.6,1.63,1.92,1.69,2.85c0.55,8.29-0.75,30.19-0.29,34.5" style="fill:none;stroke:#999;stroke-width:3" />
<path d="M1367.8,46.25c0.06,0.58-0.02,1.35-0.21,1.85c-1.24,3.19-2.82,5.66-5.66,9.55" style="fill:none;stroke:black;stroke-width:3" />
<circle cx="1367.8" cy="46.25" r="5" stroke-width="0" fill="#FF2A00" opacity="0.7" />
<path d="M1442.0,13.03c0.37,0.69,0.91,1.21,0.91,2.14c0,0.93-0.25,27.48-0.25,27.95" style="fill:none;stroke:#999;stroke-width:3" />
<path d="M1442.79,13.93c2.1-0.12,18.84-1.8,20.75-1.94c1.59-0.12,2.85,0.65,2.72,1.5c-0.17,1.09-0.37,24.97-0.37,29.17" style="fill:none;stroke:#999;stroke-width:3" />
<path d="M1443.49,23.67c4.14-0.16,18.77-1.47,22.14-1.47" style="fill:none;stroke:#999;stroke-width:3" />
<path d="M1443.67,32.5c5.56-0.39,16.32-1.39,21.72-1.39" style="fill:none;stroke:#999;stroke-width:3" />
<path d="M1443.1,41.04c4.78-0.2,17.16-1.04,22.56-1.04" style="fill:none;stroke:#999;stroke-width:3" />
<path d="M1478.5,12.53c0.36,0.69,0.88,1.21,0.88,2.14c0,0.93-0.24,27.48-0.24,27.95" style="fill:none;stroke:#999;stroke-width:3" />
<path d="M1479.27,13.43c2.04-0.12,18.25-1.8,20.11-1.94c1.55-0.12,2.76,0.65,2.63,1.5c-0.17,1.09-0.36,24.97-0.36,29.17" style="fill:none;stroke:#999;stroke-width:3" />
<path d="M1479.95,22.67c4.01-0.16,18.19-1.47,21.46-1.47" style="fill:none;stroke:#999;stroke-width:3" />
<path d="M1480.1100000000001,32c5.39-0.39,15.82-1.39,21.05-1.39" style="fill:none;stroke:#999;stroke-width:3" />
<path d="M1479.57,40.54c4.63-0.2,16.63-1.04,21.87-1.04" style="fill:none;stroke:#999;stroke-width:3" />
<path d="M1454.13,45.75c0.23,1.29-0.06,2.99-0.81,4.09C1448.6,56.9 1442.6,62.88 1431.75,71.47" style="fill:none;stroke:#999;stroke-width:3" />
<path d="M1445.78,59.9c0.92,0.6,1.63,1.92,1.69,2.85c0.55,8.29-0.75,30.19-0.29,34.5" style="fill:none;stroke:#999;stroke-width:3" />
<path d="M1476.8,46.25c0.06,0.58-0.02,1.35-0.21,1.85c-1.24,3.19-2.82,5.66-5.66,9.55" style="fill:none;stroke:#999;stroke-width:3" />
<path d="M1447.21,59.08c10.69-0.78,51.36-2.55,55.95-2.98" style="fill:none;stroke:black;stroke-width:3" />
<circle cx="1447.21" cy="59.08" r="5" stroke-width="0" fill="#FF2A00" opacity="0.7" />
<path d="M1551.0,13.03c0.37,0.69,0.91,1.21,0.91,2.14c0,0.93-0.25,27.48-0.25,27.95" style="fill:none;stroke:#999;stroke-width:3" />
<path d="M1551.79,13.93c2.1-0.12,18.84-1.8,20.75-1.94c1.59-0.12,2.85,0.65,2.72,1.5c-0.17,1.09-0.37,24.97-0.37,29.17" style="fill:none;stroke:#999;stroke-width:3" />
<path d="M1552.49,23.67c4.14-0.16,18.77-1.47,22.14-1.47" style="fill:none;stroke:#999;stroke-width:3" />
<path d="M1552.67,32.5c5.56-0.39,16.32-1.39,21.72-1.39" style="fill:none;stroke:#999;stroke-width:3" />
<path d="M1552.1,41.04c4.78-0.2,17.16-1.04,22.56-1.04" style="fill:none;stroke:#999;stroke-width:3" />
<path d="M1587.5,12.53c0.36,0.69,0.88,1.21,0.88,2.14c0,0.93-0.24,27.48-0.24,27.95" style="fill:none;stroke:#999;stroke-width:3" />
<path d="M1588.27,13.43c2.04-0.12,18.25-1.8,20.11-1.94c1.55-0.12,2.76,0.65,2.63,1.5c-0.17,1.09-0.36,24.97-0.36,29.17" style="fill:none;stroke:#999;stroke-width:3" />
<path d="M1588.95,22.67c4.01-0.16,18.19-1.47,21.46-1.47" style="fill:none;stroke:#999;stroke-width:3" />
<path d="M1589.1100000000001,32c5.39-0.39,15.82-1.39,21.05-1.39" style="fill:none;stroke:#999;stroke-width:3" />
<path d="M1588.57,40.54c4.63-0.2,16.63-1.04,21.87-1.04" style="fill:none;stroke:#999;stroke-width:3" />
<path d="M1563.13,45.75c0.23,1.29-0.06,2.99-0.81,4.09C1557.6,56.9 1551.6,62.88 1540.75,71.47" style="fill:none;stroke:#999;stroke-width:3" />
<path d="M1554.78,59.9c0.92,0.6,1.63,1.92,1.69,2.85c0.55,8.29-0.75,30.19-0.29,34.5" style="fill:none;stroke:#999;stroke-width:3" />
<path d="M1585.8,46.25c0.06,0.58-0.02,1.35-0.21,1.85c-1.24,3.19-2.82,5.66-5.66,9.55" style="fill:none;stroke:#999;stroke-width:3" />
<path d="M1556.21,59.08c10.69-0.78,51.36-2.55,55.95-2.98" style="fill:none;stroke:#999;stroke-width:3" />
<path d="M1581.02,59c0.52,0.31,0.93,0.73,0.93,1.25c0,5.38,0.06,24.63-0.26,33.1" style="fill:none;stroke:black;stroke-width:3" />
<circle cx="1581.02" cy="59.0" r="5" stroke-width="0" fill="#FF2A00" opacity="0.7" />
<path d="M1660.0,13.03c0.37,0.69,0.91,1.21,0.91,2.14c0,0.93-0.25,27.48-0.25,27.95" style="fill:none;stroke:#999;stroke-width:3" />
<path d="M1660.79,13.93c2.1-0.12,18.84-1.8,20.75-1.94c1.59-0.12,2.85,0.65,2.72,1.5c-0.17,1.09-0.37,24.97-0.37,29.17" style="fill:none;stroke:#999;stroke-width:3" />
<path d="M1661.49,23.67c4.14-0.16,18.77-1.47,22.14-1.47" style="fill:none;stroke:#999;stroke-width:3" />
<path d="M1661.67,32.5c5.56-0.39,16.32-1.39,21.72-1.39" style="fill:none;stroke:#999;stroke-width:3" />
<path d="M1661.1,41.04c4.78-0.2,17.16-1.04,22.56-1.04" style="fill:none;stroke:#999;stroke-width:3" />
<path d="M1696.5,12.53c0.36,0.69,0.88,1.21,0.88,2.14c0,0.93-0.24,27.48-0.24,27.95" style="fill:none;stroke:#999;stroke-width:3" />
<path d="M1697.27,13.43c2.04-0.12,18.25-1.8,20.11-1.94c1.55-0.12,2.76,0.65,2.63,1.5c-0.17,1.09-0.36,24.97-0.36,29.17" style="fill:none;stroke:#999;stroke-width:3" />
<path d="M1697.95,22.67c4.01-0.16,18.19-1.47,21.46-1.47" style="fill:none;stroke:#999;stroke-width:3" />
<path d="M1698.1100000000001,32c5.39-0.39,15.82-1.39,21.05-1.39" style="fill:none;stroke:#999;stroke-width:3" />
<path d="M1697.57,40.54c4.63-0.2,16.63-1.04,21.87-1.04" style="fill:none;stroke:#999;stroke-width:3" />
<path d="M1672.13,45.75c0.23,1.29-0.06,2.99-0.81,4.09C1666.6,56.9 1660.6,62.88 1649.75,71.47" style="fill:none;stroke:#999;stroke-width:3" />
<path d="M1663.78,59.9c0.92,0.6,1.63,1.92,1.69,2.85c0.55,8.29-0.75,30.19-0.29,34.5" style="fill:none;stroke:#999;stroke-width:3" />
<path d="M1694.8,46.25c0.06,0.58-0.02,1.35-0.21,1.85c-1.24,3.19-2.82,5.66-5.66,9.55" style="fill:none;stroke:#999;stroke-width:3" />
<path d="M1665.21,59.08c10.69-0.78,51.36-2.55,55.95-2.98" style="fill:none;stroke:#999;stroke-width:3" />
<path d="M1690.02,59c0.52,0.31,0.93,0.73,0.93,1.25c0,5.38,0.06,24.63-0.26,33.1" style="fill:none;stroke:#999;stroke-width:3" />
<path d="M1666.64,70.28c10.09-0.65,46.57-2.03,50.9-2.38" style="fill:none;stroke:black;stroke-width:3" />
<circle cx="1666.64" cy="70.28" r="5" stroke-width="0" fill="#FF2A00" opacity="0.7" />
<path d="M1769.0,13.03c0.37,0.69,0.91,1.21,0.91,2.14c0,0.93-0.25,27.48-0.25,27.95" style="fill:none;stroke:#999;stroke-width:3" />
<path d="M1769.79,13.93c2.1-0.12,18.84-1.8,20.75-1.94c1.59-0.12,2.85,0.65,2.72,1.5c-0.17,1.09-0.37,24.97-0.37,29.17" style="fill:none;stroke:#999;stroke-width:3" />
<path d="M1770.49,23.67c4.14-0.16,18.77-1.47,22.14-1.47" style="fill:none;stroke:#999;stroke-width:3" />
<path d="M1770.67,32.5c5.56-0.39,16.32-1.39,21.72-1.39" style="fill:none;stroke:#999;stroke-width:3" />
<path d="M1770.1,41.04c4.78-0.2,17.16-1.04,22.56-1.04" style="fill:none;stroke:#999;stroke-width:3" />
<path d="M1805.5,12.53c0.36,0.69,0.88,1.21,0.88,2.14c0,0.93-0.24,27.48-0.24,27.95" style="fill:none;stroke:#999;stroke-width:3" />
<path d="M1806.27,13.43c2.04-0.12,18.25-1.8,20.11-1.94c1.55-0.12,2.76,0.65,2.63,1.5c-0.17,1.09-0.36,24.97-0.36,29.17" style="fill:none;stroke:#999;stroke-width:3" />
<path d="M1806.95,22.67c4.01-0.16,18.19-1.47,21.46-1.47" style="fill:none;stroke:#999;stroke-width:3" />
<path d="M1807.1100000000001,32c5.39-0.39,15.82-1.39,21.05-1.39" style="fill:none;stroke:#999;stroke-width:3" />
<path d="M1806.57,40.54c4.63-0.2,16.63-1.04,21.87-1.04" style="fill:none;stroke:#999;stroke-width:3" />
<path d="M1781.13,45.75c0.23,1.29-0.06,2.99-0.81,4.09C1775.6,56.9 1769.6,62.88 1758.75,71.47" style="fill:none;stroke:#999;stroke-width:3" />
<path d="M1772.78,59.9c0.92,0.6,1.63,1.92,1.69,2.85c0.55,8.29-0.75,30.19-0.29,34.5" style="fill:none;stroke:#999;stroke-width:3" />
<path d="M1803.8,46.25c0.06,0.58-0.02,1.35-0.21,1.85c-1.24,3.19-2.82,5.66-5.66,9.55" style="fill:none;stroke:#999;stroke-width:3" />
<path d="M1774.21,59.08c10.69-0.78,51.36-2.55,55.95-2.98" style="fill:none;stroke:#999;stroke-width:3" />
<path d="M1799.02,59c0.52,0.31,0.93,0.73,0.93,1.25c0,5.38,0.06,24.63-0.26,33.1" style="fill:none;stroke:#999;stroke-width:3" />
<path d="M1775.64,70.28c10.09-0.65,46.57-2.03,50.9-2.38" style="fill:none;stroke:#999;stroke-width:3" />
<path d="M1774.41,81.7c10.64-0.54,47.98-1.65,52.55-1.95" style="fill:none;stroke:black;stroke-width:3" />
<circle cx="1774.41" cy="81.7" r="5" stroke-width="0" fill="#FF2A00" opacity="0.7" />
<path d="M1878.0,13.03c0.37,0.69,0.91,1.21,0.91,2.14c0,0.93-0.25,27.48-0.25,27.95" style="fill:none;stroke:#999;stroke-width:3" />
<path d="M1878.79,13.93c2.1-0.12,18.84-1.8,20.75-1.94c1.59-0.12,2.85,0.65,2.72,1.5c-0.17,1.09-0.37,24.97-0.37,29.17" style="fill:none;stroke:#999;stroke-width:3" />
<path d="M1879.49,23.67c4.14-0.16,18.77-1.47,22.14-1.47" style="fill:none;stroke:#999;stroke-width:3" />
<path d="M1879.67,32.5c5.56-0.39,16.32-1.39,21.72-1.39" style="fill:none;stroke:#999;stroke-width:3" />
<path d="M1879.1,41.04c4.78-0.2,17.16-1.04,22.56-1.04" style="fill:none;stroke:#999;stroke-width:3" />
<path d="M1914.5,12.53c0.36,0.69,0.88,1.21,0.88,2.14c0,0.93-0.24,27.48-0.24,27.95" style="fill:none;stroke:#999;stroke-width:3" />
<path d="M1915.27,13.43c2.04-0.12,18.25-1.8,20.11-1.94c1.55-0.12,2.76,0.65,2.63,1.5c-0.17,1.09-0.36,24.97-0.36,29.17" style="fill:none;stroke:#999;stroke-width:3" />
<path d="M1915.95,22.67c4.01-0.16,18.19-1.47,21.46-1.47" style="fill:none;stroke:#999;stroke-width:3" />
<path d="M1916.1100000000001,32c5.39-0.39,15.82-1.39,21.05-1.39" style="fill:none;stroke:#999;stroke-width:3" />
<path d="M1915.57,40.54c4.63-0.2,16.63-1.04,21.87-1.04" style="fill:none;stroke:#999;stroke-width:3" />
<path d="M1890.13,45.75c0.23,1.29-0.06,2.99-0.81,4.09C1884.6,56.9 1878.6,62.88 1867.75,71.47" style="fill:none;stroke:#999;stroke-width:3" />
<path d="M1881.78,59.9c0.92,0.6,1.63,1.92,1.69,2.85c0.55,8.29-0.75,30.19-0.29,34.5" style="fill:none;stroke:#999;stroke-width:3" />
<path d="M1912.8,46.25c0.06,0.58-0.02,1.35-0.21,1.85c-1.24,3.19-2.82,5.66-5.66,9.55" style="fill:none;stroke:#999;stroke-width:3" />
<path d="M1883.21,59.08c10.69-0.78,51.36-2.55,55.95-2.98" style="fill:none;stroke:#999;stroke-width:3" />
<path d="M1908.02,59c0.52,0.31,0.93,0.73,0.93,1.25c0,5.38,0.06,24.63-0.26,33.1" style="fill:none;stroke:#999;stroke-width:3" />
<path d="M1884.64,70.28c10.09-0.65,46.57-2.03,50.9-2.38" style="fill:none;stroke:#999;stroke-width:3" />
<path d="M1883.41,81.7c10.64-0.54,47.98-1.65,52.55-1.95" style="fill:none;stroke:#999;stroke-width:3" />
<path d="M1883.41,95.15c10.69-0.78,55.25-2.77,59.84-3.2" style="fill:none;stroke:black;stroke-width:3" />
<circle cx="1883.41" cy="95.15" r="5" stroke-width="0" fill="#FF2A00" opacity="0.7" />
</svg>