<!-- 0792c -->
<svg width="2180px" height="109px" viewBox="0 0 2180px 109px" xmlns="http://www.w3.org/2000/svg" xmlns:xlink="http://www.w3.org/1999/xlink" xml:space="preserve" version="1.1"  baseProfile="full">
<line x1="1" y1="1" x2="2179" y2="1" style="stroke:#ddd;stroke-width:2" />
<line x1="1" y1="1" x2="1" y2="108" style="stroke:#ddd;stroke-width:2" />
<line x1="1" y1="108" x2="2179" y2="108" style="stroke:#ddd;stroke-width:2" />
<line x1="2179" y1="1" x2="2179" y2="108" style="stroke:#ddd;stroke-width:2" />
<line x1="109" y1="1" x2="109" y2="108" style="stroke:#ddd;stroke-width:2" />
<line x1="218" y1="1" x2="218" y2="108" style="stroke:#ddd;stroke-width:2" />
<line x1="327" y1="1" x2="327" y2="108" style="stroke:#ddd;stroke-width:2" />
<line x1="436" y1="1" x2="436" y2="108" style="stroke:#ddd;stroke-width:2" />
<line x1="545" y1="1" x2="545" y2="108" style="stroke:#ddd;stroke-width:2" />
<line x1="654" y1="1" x2="654" y2="108" style="stroke:#ddd;stroke-width:2" />
<line x1="763" y1="1" x2="763" y2="108" style="stroke:#ddd;stroke-width:2" />
<line x1="872" y1="1" x2="872" y2="108" style="stroke:#ddd;stroke-width:2" />
<line x1="981" y1="1" x2="981" y2="108" style="stroke:#ddd;stroke-width:2" />
<line x1="1090" y1="1" x2="1090" y2="108" style="stroke:#ddd;stroke-width:2" />
<line x1="1199" y1="1" x2="1199" y2="108" style="stroke:#ddd;stroke-width:2" />
<line x1="1308" y1="1" x2="1308" y2="108" style="stroke:#ddd;stroke-width:2" />
<line x1="1417" y1="1" x2="1417" y2="108" style="stroke:#ddd;stroke-width:2" />
<line x1="1526" y1="1" x2="1526" y2="108" style="stroke:#ddd;stroke-width:2" />
<line x1="1635" y1="1" x2="1635" y2="108" style="stroke:#ddd;stroke-width:2" />
<line x1="1744" y1="1" x2="1744" y2="108" style="stroke:#ddd;stroke-width:2" />
<line x1="1853" y1="1" x2="1853" y2="108" style="stroke:#ddd;stroke-width:2" />
<line x1="1962" y1="1" x2="1962" y2="108" style="stroke:#ddd;stroke-width:2" />
<line x1="2071" y1="1" x2="2071" y2="108" style="stroke:#ddd;stroke-width:2" />
<line x1="1" y1="54" x2="2179" y2="54" style="stroke:#ddd;stroke-width:2;stroke-dasharray:3 3" />
<line x1="55" y1="1" x2="55" y2="108" style="stroke:#ddd;stroke-width:2;stroke-dasharray:3 3" />
<line x1="164" y1="1" x2="164" y2="108" style="stroke:#ddd;stroke-width:2;stroke-dasharray:3 3" />
<line x1="273" y1="1" x2="273" y2="108" style="stroke:#ddd;stroke-width:2;stroke-dasharray:3 3" />
<line x1="382" y1="1" x2="382" y2="108" style="stroke:#ddd;stroke-width:2;stroke-dasharray:3 3" />
<line x1="491" y1="1" x2="491" y2="108" style="stroke:#ddd;stroke-width:2;stroke-dasharray:3 3" />
<line x1="600" y1="1" x2="600" y2="108" style="stroke:#ddd;stroke-width:2;stroke-dasharray:3 3" />
<line x1="709" y1="1" x2="709" y2="108" style="stroke:#ddd;stroke-width:2;stroke-dasharray:3 3" />
<line x1="818" y1="1" x2="818" y2="108" style="stroke:#ddd;stroke-width:2;stroke-dasharray:3 3" />
<line x1="927" y1="1" x2="927" y2="108" style="stroke:#ddd;stroke-width:2;stroke-dasharray:3 3" />
<line x1="1036" y1="1" x2="1036" y2="108" style="stroke:#ddd;stroke-width:2;stroke-dasharray:3 3" />
<line x1="1145" y1="1" x2="1145" y2="108" style="stroke:#ddd;stroke-width:2;stroke-dasharray:3 3" />
<line x1="1254" y1="1" x2="1254" y2="108" style="stroke:#ddd;stroke-width:2;stroke-dasharray:3 3" />
<line x1="1363" y1="1" x2="1363" y2="108" style="stroke:#ddd;stroke-width:2;stroke-dasharray:3 3" />
<line x1="1472" y1="1" x2="1472" y2="108" style="stroke:#ddd;stroke-width:2;stroke-dasharray:3 3" />
<line x1="1581" y1="1" x2="1581" y2="108" style="stroke:#ddd;stroke-width:2;stroke-dasharray:3 3" />
<line x1="1690" y1="1" x2="1690" y2="108" style="stroke:#ddd;stroke-width:2;stroke-dasharray:3 3" />
<line x1="1799" y1="1" x2="1799" y2="108" style="stroke:#ddd;stroke-width:2;stroke-dasharray:3 3" />
<line x1="1908" y1="1" x2="1908" y2="108" style="stroke:#ddd;stroke-width:2;stroke-dasharray:3 3" />
<line x1="2017" y1="1" x2="2017" y2="108" style="stroke:#ddd;stroke-width:2;stroke-dasharray:3 3" />
<line x1="2126" y1="1" x2="2126" y2="108" style="stroke:#ddd;stroke-width:2;stroke-dasharray:3 3" />
<path d="M15.29,23.24c0.37,0.37,2.53,0.54,3.51,0.49c7.87-0.43,12.97-1.98,22.82-2.97c0.99-0.1,1.22-0.37,1.83,0" style="fill:none;stroke:black;stroke-width:3" />
<circle cx="15.29" cy="23.24" r="5" stroke-width="0" fill="#FF2A00" opacity="0.7" />
<path d="M124.28999999999999,23.24c0.37,0.37,2.53,0.54,3.51,0.49c7.87-0.43,12.97-1.98,22.82-2.97c0.99-0.1,1.22-0.37,1.83,0" style="fill:none;stroke:#999;stroke-width:3" />
<path d="M139.06,11.25c0.67,0.3,1.5,1.31,1.5,2.89c0,0.62-0.09,30.24-0.22,34.04" style="fill:none;stroke:black;stroke-width:3" />
<circle cx="139.06" cy="11.25" r="5" stroke-width="0" fill="#FF2A00" opacity="0.7" />
<path d="M233.29,23.24c0.37,0.37,2.53,0.54,3.51,0.49c7.87-0.43,12.97-1.98,22.82-2.97c0.99-0.1,1.22-0.37,1.83,0" style="fill:none;stroke:#999;stroke-width:3" />
<path d="M248.06,11.25c0.67,0.3,1.5,1.31,1.5,2.89c0,0.62-0.09,30.24-0.22,34.04" style="fill:none;stroke:#999;stroke-width:3" />
<path d="M248.75,25.5c-6.73,8.63-7.97,9.78-18.39,17.33" style="fill:none;stroke:black;stroke-width:3" />
<circle cx="248.75" cy="25.5" r="5" stroke-width="0" fill="#FF2A00" opacity="0.7" />
<path d="M342.28999999999996,23.24c0.37,0.37,2.53,0.54,3.51,0.49c7.87-0.43,12.97-1.98,22.82-2.97c0.99-0.1,1.22-0.37,1.83,0" style="fill:none;stroke:#999;stroke-width:3" />
<path d="M357.06,11.25c0.67,0.3,1.5,1.31,1.5,2.89c0,0.62-0.09,30.24-0.22,34.04" style="fill:none;stroke:#999;stroke-width:3" />
<path d="M357.75,25.5c-6.73,8.63-7.97,9.78-18.39,17.33" style="fill:none;stroke:#999;stroke-width:3" />
<path d="M359.71,27.11c2.66,1.25,6.34,5.52,8.58,7.93" style="fill:none;stroke:black;stroke-width:3" />
<circle cx="359.71" cy="27.11" r="5" stroke-width="0" fill="#FF2A00" opacity="0.7" />
<path d="M451.28999999999996,23.24c0.37,0.37,2.53,0.54,3.51,0.49c7.87-0.43,12.97-1.98,22.82-2.97c0.99-0.1,1.22-0.37,1.83,0" style="fill:none;stroke:#999;stroke-width:3" />
<path d="M466.06,11.25c0.67,0.3,1.5,1.31,1.5,2.89c0,0.62-0.09,30.24-0.22,34.04" style="fill:none;stroke:#999;stroke-width:3" />
<path d="M466.75,25.5c-6.73,8.63-7.97,9.78-18.39,17.33" style="fill:none;stroke:#999;stroke-width:3" />
<path d="M468.71,27.11c2.66,1.25,6.34,5.52,8.58,7.93" style="fill:none;stroke:#999;stroke-width:3" />
<path d="M495.5,10.75c0.05,0.39,0.09,1-0.09,1.56C494.36,15.6 489.3,22.33 481.0,26.75" style="fill:none;stroke:black;stroke-width:3" />
<circle cx="495.5" cy="10.75" r="5" stroke-width="0" fill="#FF2A00" opacity="0.7" />
<path d="M560.29,23.24c0.37,0.37,2.53,0.54,3.51,0.49c7.87-0.43,12.97-1.98,22.82-2.97c0.99-0.1,1.22-0.37,1.83,0" style="fill:none;stroke:#999;stroke-width:3" />
<path d="M575.06,11.25c0.67,0.3,1.5,1.31,1.5,2.89c0,0.62-0.09,30.24-0.22,34.04" style="fill:none;stroke:#999;stroke-width:3" />
<path d="M575.75,25.5c-6.73,8.63-7.97,9.78-18.39,17.33" style="fill:none;stroke:#999;stroke-width:3" />
<path d="M577.71,27.11c2.66,1.25,6.34,5.52,8.58,7.93" style="fill:none;stroke:#999;stroke-width:3" />
<path d="M604.5,10.75c0.05,0.39,0.09,1-0.09,1.56C603.36,15.6 598.3,22.33 590.0,26.75" style="fill:none;stroke:#999;stroke-width:3" />
<path d="M592.0,13.5c4.97,1.1,11.57,6.66,13.5,10.5" style="fill:none;stroke:black;stroke-width:3" />
<circle cx="592.0" cy="13.5" r="5" stroke-width="0" fill="#FF2A00" opacity="0.7" />
<path d="M669.29,23.24c0.37,0.37,2.53,0.54,3.51,0.49c7.87-0.43,12.97-1.98,22.82-2.97c0.99-0.1,1.22-0.37,1.83,0" style="fill:none;stroke:#999;stroke-width:3" />
<path d="M684.06,11.25c0.67,0.3,1.5,1.31,1.5,2.89c0,0.62-0.09,30.24-0.22,34.04" style="fill:none;stroke:#999;stroke-width:3" />
<path d="M684.75,25.5c-6.73,8.63-7.97,9.78-18.39,17.33" style="fill:none;stroke:#999;stroke-width:3" />
<path d="M686.71,27.11c2.66,1.25,6.34,5.52,8.58,7.93" style="fill:none;stroke:#999;stroke-width:3" />
<path d="M713.5,10.75c0.05,0.39,0.09,1-0.09,1.56C712.36,15.6 707.3,22.33 699.0,26.75" style="fill:none;stroke:#999;stroke-width:3" />
<path d="M701.0,13.5c4.97,1.1,11.57,6.66,13.5,10.5" style="fill:none;stroke:#999;stroke-width:3" />
<path d="M712.99,29c0.05,0.39,0.11,1.01-0.1,1.58c-1.23,3.33-7.26,10.62-16.88,15.09" style="fill:none;stroke:black;stroke-width:3" />
<circle cx="712.99" cy="29.0" r="5" stroke-width="0" fill="#FF2A00" opacity="0.7" />
<path d="M778.29,23.24c0.37,0.37,2.53,0.54,3.51,0.49c7.87-0.43,12.97-1.98,22.82-2.97c0.99-0.1,1.22-0.37,1.83,0" style="fill:none;stroke:#999;stroke-width:3" />
<path d="M793.06,11.25c0.67,0.3,1.5,1.31,1.5,2.89c0,0.62-0.09,30.24-0.22,34.04" style="fill:none;stroke:#999;stroke-width:3" />
<path d="M793.75,25.5c-6.73,8.63-7.97,9.78-18.39,17.33" style="fill:none;stroke:#999;stroke-width:3" />
<path d="M795.71,27.11c2.66,1.25,6.34,5.52,8.58,7.93" style="fill:none;stroke:#999;stroke-width:3" />
<path d="M822.5,10.75c0.05,0.39,0.09,1-0.09,1.56C821.36,15.6 816.3,22.33 808.0,26.75" style="fill:none;stroke:#999;stroke-width:3" />
<path d="M810.0,13.5c4.97,1.1,11.57,6.66,13.5,10.5" style="fill:none;stroke:#999;stroke-width:3" />
<path d="M821.99,29c0.05,0.39,0.11,1.01-0.1,1.58c-1.23,3.33-7.26,10.62-16.88,15.09" style="fill:none;stroke:#999;stroke-width:3" />
<path d="M810.25,32.75c4.63,2.2,10.16,7.09,12.75,10.5" style="fill:none;stroke:black;stroke-width:3" />
<circle cx="810.25" cy="32.75" r="5" stroke-width="0" fill="#FF2A00" opacity="0.7" />
<path d="M887.29,23.24c0.37,0.37,2.53,0.54,3.51,0.49c7.87-0.43,12.97-1.98,22.82-2.97c0.99-0.1,1.22-0.37,1.83,0" style="fill:none;stroke:#999;stroke-width:3" />
<path d="M902.06,11.25c0.67,0.3,1.5,1.31,1.5,2.89c0,0.62-0.09,30.24-0.22,34.04" style="fill:none;stroke:#999;stroke-width:3" />
<path d="M902.75,25.5c-6.73,8.63-7.97,9.78-18.39,17.33" style="fill:none;stroke:#999;stroke-width:3" />
<path d="M904.71,27.11c2.66,1.25,6.34,5.52,8.58,7.93" style="fill:none;stroke:#999;stroke-width:3" />
<path d="M931.5,10.75c0.05,0.39,0.09,1-0.09,1.56C930.36,15.6 925.3,22.33 917.0,26.75" style="fill:none;stroke:#999;stroke-width:3" />
<path d="M919.0,13.5c4.97,1.1,11.57,6.66,13.5,10.5" style="fill:none;stroke:#999;stroke-width:3" />
<path d="M930.99,29c0.05,0.39,0.11,1.01-0.1,1.58c-1.23,3.33-7.26,10.62-16.88,15.09" style="fill:none;stroke:#999;stroke-width:3" />
<path d="M919.25,32.75c4.63,2.2,10.16,7.09,12.75,10.5" style="fill:none;stroke:#999;stroke-width:3" />
<path d="M937.24,20.9c0.68,0.21,1.46,0.27,2.25,0.21c4-0.34,17.25-1.52,23.3-1.92c0.78-0.05,1.27,0.04,2.05,0.18" style="fill:none;stroke:black;stroke-width:3" />
<circle cx="937.24" cy="20.9" r="5" stroke-width="0" fill="#FF2A00" opacity="0.7" />
<path d="M996.29,23.24c0.37,0.37,2.53,0.54,3.51,0.49c7.87-0.43,12.97-1.98,22.82-2.97c0.99-0.1,1.22-0.37,1.83,0" style="fill:none;stroke:#999;stroke-width:3" />
<path d="M1011.06,11.25c0.67,0.3,1.5,1.31,1.5,2.89c0,0.62-0.09,30.24-0.22,34.04" style="fill:none;stroke:#999;stroke-width:3" />
<path d="M1011.75,25.5c-6.73,8.63-7.97,9.78-18.39,17.33" style="fill:none;stroke:#999;stroke-width:3" />
<path d="M1013.71,27.11c2.66,1.25,6.34,5.52,8.58,7.93" style="fill:none;stroke:#999;stroke-width:3" />
<path d="M1040.5,10.75c0.05,0.39,0.09,1-0.09,1.56C1039.3600000000001,15.6 1034.3,22.33 1026.0,26.75" style="fill:none;stroke:#999;stroke-width:3" />
<path d="M1028.0,13.5c4.97,1.1,11.57,6.66,13.5,10.5" style="fill:none;stroke:#999;stroke-width:3" />
<path d="M1039.99,29c0.05,0.39,0.11,1.01-0.1,1.58c-1.23,3.33-7.26,10.62-16.88,15.09" style="fill:none;stroke:#999;stroke-width:3" />
<path d="M1028.25,32.75c4.63,2.2,10.16,7.09,12.75,10.5" style="fill:none;stroke:#999;stroke-width:3" />
<path d="M1046.24,20.9c0.68,0.21,1.46,0.27,2.25,0.21c4-0.34,17.25-1.52,23.3-1.92c0.78-0.05,1.27,0.04,2.05,0.18" style="fill:none;stroke:#999;stroke-width:3" />
<path d="M1057.63,10.5c0.53,0.31,0.95,1.38,0.95,2.03c0,6.55,0,28.68-0.11,32.58" style="fill:none;stroke:black;stroke-width:3" />
<circle cx="1057.63" cy="10.5" r="5" stroke-width="0" fill="#FF2A00" opacity="0.7" />
<path d="M1105.29,23.24c0.37,0.37,2.53,0.54,3.51,0.49c7.87-0.43,12.97-1.98,22.82-2.97c0.99-0.1,1.22-0.37,1.83,0" style="fill:none;stroke:#999;stroke-width:3" />
<path d="M1120.06,11.25c0.67,0.3,1.5,1.31,1.5,2.89c0,0.62-0.09,30.24-0.22,34.04" style="fill:none;stroke:#999;stroke-width:3" />
<path d="M1120.75,25.5c-6.73,8.63-7.97,9.78-18.39,17.33" style="fill:none;stroke:#999;stroke-width:3" />
<path d="M1122.71,27.11c2.66,1.25,6.34,5.52,8.58,7.93" style="fill:none;stroke:#999;stroke-width:3" />
<path d="M1149.5,10.75c0.05,0.39,0.09,1-0.09,1.56C1148.3600000000001,15.6 1143.3,22.33 1135.0,26.75" style="fill:none;stroke:#999;stroke-width:3" />
<path d="M1137.0,13.5c4.97,1.1,11.57,6.66,13.5,10.5" style="fill:none;stroke:#999;stroke-width:3" />
<path d="M1148.99,29c0.05,0.39,0.11,1.01-0.1,1.58c-1.23,3.33-7.26,10.62-16.88,15.09" style="fill:none;stroke:#999;stroke-width:3" />
<path d="M1137.25,32.75c4.63,2.2,10.16,7.09,12.75,10.5" style="fill:none;stroke:#999;stroke-width:3" />
<path d="M1155.24,20.9c0.68,0.21,1.46,0.27,2.25,0.21c4-0.34,17.25-1.52,23.3-1.92c0.78-0.05,1.27,0.04,2.05,0.18" style="fill:none;stroke:#999;stroke-width:3" />
<path d="M1166.63,10.5c0.53,0.31,0.95,1.38,0.95,2.03c0,6.55,0,28.68-0.11,32.58" style="fill:none;stroke:#999;stroke-width:3" />
<path d="M1168.01,19.75c-2.48,6.21-9.14,15.71-14.31,19.23" style="fill:none;stroke:black;stroke-width:3" />
<circle cx="1168.01" cy="19.75" r="5" stroke-width="0" fill="#FF2A00" opacity="0.7" />
<path d="M1214.29,23.24c0.37,0.37,2.53,0.54,3.51,0.49c7.87-0.43,12.97-1.98,22.82-2.97c0.99-0.1,1.22-0.37,1.83,0" style="fill:none;stroke:#999;stroke-width:3" />
<path d="M1229.06,11.25c0.67,0.3,1.5,1.31,1.5,2.89c0,0.62-0.09,30.24-0.22,34.04" style="fill:none;stroke:#999;stroke-width:3" />
<path d="M1229.75,25.5c-6.73,8.63-7.97,9.78-18.39,17.33" style="fill:none;stroke:#999;stroke-width:3" />
<path d="M1231.71,27.11c2.66,1.25,6.34,5.52,8.58,7.93" style="fill:none;stroke:#999;stroke-width:3" />
<path d="M1258.5,10.75c0.05,0.39,0.09,1-0.09,1.56C1257.3600000000001,15.6 1252.3,22.33 1244.0,26.75" style="fill:none;stroke:#999;stroke-width:3" />
<path d="M1246.0,13.5c4.97,1.1,11.57,6.66,13.5,10.5" style="fill:none;stroke:#999;stroke-width:3" />
<path d="M1257.99,29c0.05,0.39,0.11,1.01-0.1,1.58c-1.23,3.33-7.26,10.62-16.88,15.09" style="fill:none;stroke:#999;stroke-width:3" />
<path d="M1246.25,32.75c4.63,2.2,10.16,7.09,12.75,10.5" style="fill:none;stroke:#999;stroke-width:3" />
<path d="M1264.24,20.9c0.68,0.21,1.46,0.27,2.25,0.21c4-0.34,17.25-1.52,23.3-1.92c0.78-0.05,1.27,0.04,2.05,0.18" style="fill:none;stroke:#999;stroke-width:3" />
<path d="M1275.63,10.5c0.53,0.31,0.95,1.38,0.95,2.03c0,6.55,0,28.68-0.11,32.58" style="fill:none;stroke:#999;stroke-width:3" />
<path d="M1277.01,19.75c-2.48,6.21-9.14,15.71-14.31,19.23" style="fill:none;stroke:#999;stroke-width:3" />
<path d="M1276.25,20.5c2.42,2.67,13.81,16.09,16.45,18.72c0.89,0.89,1.66,1.27,2.55,1.53" style="fill:none;stroke:black;stroke-width:3" />
<circle cx="1276.25" cy="20.5" r="5" stroke-width="0" fill="#FF2A00" opacity="0.7" />
<path d="M1323.29,23.24c0.37,0.37,2.53,0.54,3.51,0.49c7.87-0.43,12.97-1.98,22.82-2.97c0.99-0.1,1.22-0.37,1.83,0" style="fill:none;stroke:#999;stroke-width:3" />
<path d="M1338.06,11.25c0.67,0.3,1.5,1.31,1.5,2.89c0,0.62-0.09,30.24-0.22,34.04" style="fill:none;stroke:#999;stroke-width:3" />
<path d="M1338.75,25.5c-6.73,8.63-7.97,9.78-18.39,17.33" style="fill:none;stroke:#999;stroke-width:3" />
<path d="M1340.71,27.11c2.66,1.25,6.34,5.52,8.58,7.93" style="fill:none;stroke:#999;stroke-width:3" />
<path d="M1367.5,10.75c0.05,0.39,0.09,1-0.09,1.56C1366.3600000000001,15.6 1361.3,22.33 1353.0,26.75" style="fill:none;stroke:#999;stroke-width:3" />
<path d="M1355.0,13.5c4.97,1.1,11.57,6.66,13.5,10.5" style="fill:none;stroke:#999;stroke-width:3" />
<path d="M1366.99,29c0.05,0.39,0.11,1.01-0.1,1.58c-1.23,3.33-7.26,10.62-16.88,15.09" style="fill:none;stroke:#999;stroke-width:3" />
<path d="M1355.25,32.75c4.63,2.2,10.16,7.09,12.75,10.5" style="fill:none;stroke:#999;stroke-width:3" />
<path d="M1373.24,20.9c0.68,0.21,1.46,0.27,2.25,0.21c4-0.34,17.25-1.52,23.3-1.92c0.78-0.05,1.27,0.04,2.05,0.18" style="fill:none;stroke:#999;stroke-width:3" />
<path d="M1384.63,10.5c0.53,0.31,0.95,1.38,0.95,2.03c0,6.55,0,28.68-0.11,32.58" style="fill:none;stroke:#999;stroke-width:3" />
<path d="M1386.01,19.75c-2.48,6.21-9.14,15.71-14.31,19.23" style="fill:none;stroke:#999;stroke-width:3" />
<path d="M1385.25,20.5c2.42,2.67,13.81,16.09,16.45,18.72c0.89,0.89,1.66,1.27,2.55,1.53" style="fill:none;stroke:#999;stroke-width:3" />
<path d="M1320.97,54.28c1.15,0.56,4.21,1.13,6.66,0.97c16.49-1.07,51.02-2.81,65.86-3.62c2.55-0.14,4.6,0.37,6.9,0.8" style="fill:none;stroke:black;stroke-width:3" />
<circle cx="1320.97" cy="54.28" r="5" stroke-width="0" fill="#FF2A00" opacity="0.7" />
<path d="M1432.29,23.24c0.37,0.37,2.53,0.54,3.51,0.49c7.87-0.43,12.97-1.98,22.82-2.97c0.99-0.1,1.22-0.37,1.83,0" style="fill:none;stroke:#999;stroke-width:3" />
<path d="M1447.06,11.25c0.67,0.3,1.5,1.31,1.5,2.89c0,0.62-0.09,30.24-0.22,34.04" style="fill:none;stroke:#999;stroke-width:3" />
<path d="M1447.75,25.5c-6.73,8.63-7.97,9.78-18.39,17.33" style="fill:none;stroke:#999;stroke-width:3" />
<path d="M1449.71,27.11c2.66,1.25,6.34,5.52,8.58,7.93" style="fill:none;stroke:#999;stroke-width:3" />
<path d="M1476.5,10.75c0.05,0.39,0.09,1-0.09,1.56C1475.3600000000001,15.6 1470.3,22.33 1462.0,26.75" style="fill:none;stroke:#999;stroke-width:3" />
<path d="M1464.0,13.5c4.97,1.1,11.57,6.66,13.5,10.5" style="fill:none;stroke:#999;stroke-width:3" />
<path d="M1475.99,29c0.05,0.39,0.11,1.01-0.1,1.58c-1.23,3.33-7.26,10.62-16.88,15.09" style="fill:none;stroke:#999;stroke-width:3" />
<path d="M1464.25,32.75c4.63,2.2,10.16,7.09,12.75,10.5" style="fill:none;stroke:#999;stroke-width:3" />
<path d="M1482.24,20.9c0.68,0.21,1.46,0.27,2.25,0.21c4-0.34,17.25-1.52,23.3-1.92c0.78-0.05,1.27,0.04,2.05,0.18" style="fill:none;stroke:#999;stroke-width:3" />
<path d="M1493.63,10.5c0.53,0.31,0.95,1.38,0.95,2.03c0,6.55,0,28.68-0.11,32.58" style="fill:none;stroke:#999;stroke-width:3" />
<path d="M1495.01,19.75c-2.48,6.21-9.14,15.71-14.31,19.23" style="fill:none;stroke:#999;stroke-width:3" />
<path d="M1494.25,20.5c2.42,2.67,13.81,16.09,16.45,18.72c0.89,0.89,1.66,1.27,2.55,1.53" style="fill:none;stroke:#999;stroke-width:3" />
<path d="M1429.97,54.28c1.15,0.56,4.21,1.13,6.66,0.97c16.49-1.07,51.02-2.81,65.86-3.62c2.55-0.14,4.6,0.37,6.9,0.8" style="fill:none;stroke:#999;stroke-width:3" />
<path d="M1470.24,45.25c0.22,0.92-0.06,2.21-0.64,2.9c-9.61,11.44-22.28,21.3-42,27.6" style="fill:none;stroke:black;stroke-width:3" />
<circle cx="1470.24" cy="45.25" r="5" stroke-width="0" fill="#FF2A00" opacity="0.7" />
<path d="M1541.29,23.24c0.37,0.37,2.53,0.54,3.51,0.49c7.87-0.43,12.97-1.98,22.82-2.97c0.99-0.1,1.22-0.37,1.83,0" style="fill:none;stroke:#999;stroke-width:3" />
<path d="M1556.06,11.25c0.67,0.3,1.5,1.31,1.5,2.89c0,0.62-0.09,30.24-0.22,34.04" style="fill:none;stroke:#999;stroke-width:3" />
<path d="M1556.75,25.5c-6.73,8.63-7.97,9.78-18.39,17.33" style="fill:none;stroke:#999;stroke-width:3" />
<path d="M1558.71,27.11c2.66,1.25,6.34,5.52,8.58,7.93" style="fill:none;stroke:#999;stroke-width:3" />
<path d="M1585.5,10.75c0.05,0.39,0.09,1-0.09,1.56C1584.3600000000001,15.6 1579.3,22.33 1571.0,26.75" style="fill:none;stroke:#999;stroke-width:3" />
<path d="M1573.0,13.5c4.97,1.1,11.57,6.66,13.5,10.5" style="fill:none;stroke:#999;stroke-width:3" />
<path d="M1584.99,29c0.05,0.39,0.11,1.01-0.1,1.58c-1.23,3.33-7.26,10.62-16.88,15.09" style="fill:none;stroke:#999;stroke-width:3" />
<path d="M1573.25,32.75c4.63,2.2,10.16,7.09,12.75,10.5" style="fill:none;stroke:#999;stroke-width:3" />
<path d="M1591.24,20.9c0.68,0.21,1.46,0.27,2.25,0.21c4-0.34,17.25-1.52,23.3-1.92c0.78-0.05,1.27,0.04,2.05,0.18" style="fill:none;stroke:#999;stroke-width:3" />
<path d="M1602.63,10.5c0.53,0.31,0.95,1.38,0.95,2.03c0,6.55,0,28.68-0.11,32.58" style="fill:none;stroke:#999;stroke-width:3" />
<path d="M1604.01,19.75c-2.48,6.21-9.14,15.71-14.31,19.23" style="fill:none;stroke:#999;stroke-width:3" />
<path d="M1603.25,20.5c2.42,2.67,13.81,16.09,16.45,18.72c0.89,0.89,1.66,1.27,2.55,1.53" style="fill:none;stroke:#999;stroke-width:3" />
<path d="M1538.97,54.28c1.15,0.56,4.21,1.13,6.66,0.97c16.49-1.07,51.02-2.81,65.86-3.62c2.55-0.14,4.6,0.37,6.9,0.8" style="fill:none;stroke:#999;stroke-width:3" />
<path d="M1579.24,45.25c0.22,0.92-0.06,2.21-0.64,2.9c-9.61,11.44-22.28,21.3-42,27.6" style="fill:none;stroke:#999;stroke-width:3" />
<path d="M1591.0,53.24c5.81,4.56,19.38,14.67,25.19,17.72c1.98,1.04,2.66,1.19,3.56,1.29" style="fill:none;stroke:black;stroke-width:3" />
<circle cx="1591.0" cy="53.24" r="5" stroke-width="0" fill="#FF2A00" opacity="0.7" />
<path d="M1650.29,23.24c0.37,0.37,2.53,0.54,3.51,0.49c7.87-0.43,12.97-1.98,22.82-2.97c0.99-0.1,1.22-0.37,1.83,0" style="fill:none;stroke:#999;stroke-width:3" />
<path d="M1665.06,11.25c0.67,0.3,1.5,1.31,1.5,2.89c0,0.62-0.09,30.24-0.22,34.04" style="fill:none;stroke:#999;stroke-width:3" />
<path d="M1665.75,25.5c-6.73,8.63-7.97,9.78-18.39,17.33" style="fill:none;stroke:#999;stroke-width:3" />
<path d="M1667.71,27.11c2.66,1.25,6.34,5.52,8.58,7.93" style="fill:none;stroke:#999;stroke-width:3" />
<path d="M1694.5,10.75c0.05,0.39,0.09,1-0.09,1.56C1693.3600000000001,15.6 1688.3,22.33 1680.0,26.75" style="fill:none;stroke:#999;stroke-width:3" />
<path d="M1682.0,13.5c4.97,1.1,11.57,6.66,13.5,10.5" style="fill:none;stroke:#999;stroke-width:3" />
<path d="M1693.99,29c0.05,0.39,0.11,1.01-0.1,1.58c-1.23,3.33-7.26,10.62-16.88,15.09" style="fill:none;stroke:#999;stroke-width:3" />
<path d="M1682.25,32.75c4.63,2.2,10.16,7.09,12.75,10.5" style="fill:none;stroke:#999;stroke-width:3" />
<path d="M1700.24,20.9c0.68,0.21,1.46,0.27,2.25,0.21c4-0.34,17.25-1.52,23.3-1.92c0.78-0.05,1.27,0.04,2.05,0.18" style="fill:none;stroke:#999;stroke-width:3" />
<path d="M1711.63,10.5c0.53,0.31,0.95,1.38,0.95,2.03c0,6.55,0,28.68-0.11,32.58" style="fill:none;stroke:#999;stroke-width:3" />
<path d="M1713.01,19.75c-2.48,6.21-9.14,15.71-14.31,19.23" style="fill:none;stroke:#999;stroke-width:3" />
<path d="M1712.25,20.5c2.42,2.67,13.81,16.09,16.45,18.72c0.89,0.89,1.66,1.27,2.55,1.53" style="fill:none;stroke:#999;stroke-width:3" />
<path d="M1647.97,54.28c1.15,0.56,4.21,1.13,6.66,0.97c16.49-1.07,51.02-2.81,65.86-3.62c2.55-0.14,4.6,0.37,6.9,0.8" style="fill:none;stroke:#999;stroke-width:3" />
<path d="M1688.24,45.25c0.22,0.92-0.06,2.21-0.64,2.9c-9.61,11.44-22.28,21.3-42,27.6" style="fill:none;stroke:#999;stroke-width:3" />
<path d="M1700.0,53.24c5.81,4.56,19.38,14.67,25.19,17.72c1.98,1.04,2.66,1.19,3.56,1.29" style="fill:none;stroke:#999;stroke-width:3" />
<path d="M1671.39,67.89c0.94,0.3,3.05,0.39,3.98,0.3c11.81-1.07,13.73-2.16,27.9-2.34c1.57-0.02,2.51,0.14,3.3,0.3" style="fill:none;stroke:black;stroke-width:3" />
<circle cx="1671.39" cy="67.89" r="5" stroke-width="0" fill="#FF2A00" opacity="0.7" />
<path d="M1759.29,23.24c0.37,0.37,2.53,0.54,3.51,0.49c7.87-0.43,12.97-1.98,22.82-2.97c0.99-0.1,1.22-0.37,1.83,0" style="fill:none;stroke:#999;stroke-width:3" />
<path d="M1774.06,11.25c0.67,0.3,1.5,1.31,1.5,2.89c0,0.62-0.09,30.24-0.22,34.04" style="fill:none;stroke:#999;stroke-width:3" />
<path d="M1774.75,25.5c-6.73,8.63-7.97,9.78-18.39,17.33" style="fill:none;stroke:#999;stroke-width:3" />
<path d="M1776.71,27.11c2.66,1.25,6.34,5.52,8.58,7.93" style="fill:none;stroke:#999;stroke-width:3" />
<path d="M1803.5,10.75c0.05,0.39,0.09,1-0.09,1.56C1802.3600000000001,15.6 1797.3,22.33 1789.0,26.75" style="fill:none;stroke:#999;stroke-width:3" />
<path d="M1791.0,13.5c4.97,1.1,11.57,6.66,13.5,10.5" style="fill:none;stroke:#999;stroke-width:3" />
<path d="M1802.99,29c0.05,0.39,0.11,1.01-0.1,1.58c-1.23,3.33-7.26,10.62-16.88,15.09" style="fill:none;stroke:#999;stroke-width:3" />
<path d="M1791.25,32.75c4.63,2.2,10.16,7.09,12.75,10.5" style="fill:none;stroke:#999;stroke-width:3" />
<path d="M1809.24,20.9c0.68,0.21,1.46,0.27,2.25,0.21c4-0.34,17.25-1.52,23.3-1.92c0.78-0.05,1.27,0.04,2.05,0.18" style="fill:none;stroke:#999;stroke-width:3" />
<path d="M1820.63,10.5c0.53,0.31,0.95,1.38,0.95,2.03c0,6.55,0,28.68-0.11,32.58" style="fill:none;stroke:#999;stroke-width:3" />
<path d="M1822.01,19.75c-2.48,6.21-9.14,15.71-14.31,19.23" style="fill:none;stroke:#999;stroke-width:3" />
<path d="M1821.25,20.5c2.42,2.67,13.81,16.09,16.45,18.72c0.89,0.89,1.66,1.27,2.55,1.53" style="fill:none;stroke:#999;stroke-width:3" />
<path d="M1756.97,54.28c1.15,0.56,4.21,1.13,6.66,0.97c16.49-1.07,51.02-2.81,65.86-3.62c2.55-0.14,4.6,0.37,6.9,0.8" style="fill:none;stroke:#999;stroke-width:3" />
<path d="M1797.24,45.25c0.22,0.92-0.06,2.21-0.64,2.9c-9.61,11.44-22.28,21.3-42,27.6" style="fill:none;stroke:#999;stroke-width:3" />
<path d="M1809.0,53.24c5.81,4.56,19.38,14.67,25.19,17.72c1.98,1.04,2.66,1.19,3.56,1.29" style="fill:none;stroke:#999;stroke-width:3" />
<path d="M1780.39,67.89c0.94,0.3,3.05,0.39,3.98,0.3c11.81-1.07,13.73-2.16,27.9-2.34c1.57-0.02,2.51,0.14,3.3,0.3" style="fill:none;stroke:#999;stroke-width:3" />
<path d="M1788.75,70c0.08,0.54,0.17,1.38-0.16,2.15c-1.96,4.54-13.2,14.5-28.59,20.6" style="fill:none;stroke:black;stroke-width:3" />
<circle cx="1788.75" cy="70.0" r="5" stroke-width="0" fill="#FF2A00" opacity="0.7" />
<path d="M1868.29,23.24c0.37,0.37,2.53,0.54,3.51,0.49c7.87-0.43,12.97-1.98,22.82-2.97c0.99-0.1,1.22-0.37,1.83,0" style="fill:none;stroke:#999;stroke-width:3" />
<path d="M1883.06,11.25c0.67,0.3,1.5,1.31,1.5,2.89c0,0.62-0.09,30.24-0.22,34.04" style="fill:none;stroke:#999;stroke-width:3" />
<path d="M1883.75,25.5c-6.73,8.63-7.97,9.78-18.39,17.33" style="fill:none;stroke:#999;stroke-width:3" />
<path d="M1885.71,27.11c2.66,1.25,6.34,5.52,8.58,7.93" style="fill:none;stroke:#999;stroke-width:3" />
<path d="M1912.5,10.75c0.05,0.39,0.09,1-0.09,1.56C1911.3600000000001,15.6 1906.3,22.33 1898.0,26.75" style="fill:none;stroke:#999;stroke-width:3" />
<path d="M1900.0,13.5c4.97,1.1,11.57,6.66,13.5,10.5" style="fill:none;stroke:#999;stroke-width:3" />
<path d="M1911.99,29c0.05,0.39,0.11,1.01-0.1,1.58c-1.23,3.33-7.26,10.62-16.88,15.09" style="fill:none;stroke:#999;stroke-width:3" />
<path d="M1900.25,32.75c4.63,2.2,10.16,7.09,12.75,10.5" style="fill:none;stroke:#999;stroke-width:3" />
<path d="M1918.24,20.9c0.68,0.21,1.46,0.27,2.25,0.21c4-0.34,17.25-1.52,23.3-1.92c0.78-0.05,1.27,0.04,2.05,0.18" style="fill:none;stroke:#999;stroke-width:3" />
<path d="M1929.63,10.5c0.53,0.31,0.95,1.38,0.95,2.03c0,6.55,0,28.68-0.11,32.58" style="fill:none;stroke:#999;stroke-width:3" />
<path d="M1931.01,19.75c-2.48,6.21-9.14,15.71-14.31,19.23" style="fill:none;stroke:#999;stroke-width:3" />
<path d="M1930.25,20.5c2.42,2.67,13.81,16.09,16.45,18.72c0.89,0.89,1.66,1.27,2.55,1.53" style="fill:none;stroke:#999;stroke-width:3" />
<path d="M1865.97,54.28c1.15,0.56,4.21,1.13,6.66,0.97c16.49-1.07,51.02-2.81,65.86-3.62c2.55-0.14,4.6,0.37,6.9,0.8" style="fill:none;stroke:#999;stroke-width:3" />
<path d="M1906.24,45.25c0.22,0.92-0.06,2.21-0.64,2.9c-9.61,11.44-22.28,21.3-42,27.6" style="fill:none;stroke:#999;stroke-width:3" />
<path d="M1918.0,53.24c5.81,4.56,19.38,14.67,25.19,17.72c1.98,1.04,2.66,1.19,3.56,1.29" style="fill:none;stroke:#999;stroke-width:3" />
<path d="M1889.39,67.89c0.94,0.3,3.05,0.39,3.98,0.3c11.81-1.07,13.73-2.16,27.9-2.34c1.57-0.02,2.51,0.14,3.3,0.3" style="fill:none;stroke:#999;stroke-width:3" />
<path d="M1897.75,70c0.08,0.54,0.17,1.38-0.16,2.15c-1.96,4.54-13.2,14.5-28.59,20.6" style="fill:none;stroke:#999;stroke-width:3" />
<path d="M1890.6,80.11c0.52,0.35,1.19,1.75,1.28,2.2c0.71,3.32,1.5,9.66,2.5,15.94" style="fill:none;stroke:black;stroke-width:3" />
<circle cx="1890.6" cy="80.11" r="5" stroke-width="0" fill="#FF2A00" opacity="0.7" />
<path d="M1977.29,23.24c0.37,0.37,2.53,0.54,3.51,0.49c7.87-0.43,12.97-1.98,22.82-2.97c0.99-0.1,1.22-0.37,1.83,0" style="fill:none;stroke:#999;stroke-width:3" />
<path d="M1992.06,11.25c0.67,0.3,1.5,1.31,1.5,2.89c0,0.62-0.09,30.24-0.22,34.04" style="fill:none;stroke:#999;stroke-width:3" />
<path d="M1992.75,25.5c-6.73,8.63-7.97,9.78-18.39,17.33" style="fill:none;stroke:#999;stroke-width:3" />
<path d="M1994.71,27.11c2.66,1.25,6.34,5.52,8.58,7.93" style="fill:none;stroke:#999;stroke-width:3" />
<path d="M2021.5,10.75c0.05,0.39,0.09,1-0.09,1.56C2020.3600000000001,15.6 2015.3,22.33 2007.0,26.75" style="fill:none;stroke:#999;stroke-width:3" />
<path d="M2009.0,13.5c4.97,1.1,11.57,6.66,13.5,10.5" style="fill:none;stroke:#999;stroke-width:3" />
<path d="M2020.99,29c0.05,0.39,0.11,1.01-0.1,1.58c-1.23,3.33-7.26,10.62-16.88,15.09" style="fill:none;stroke:#999;stroke-width:3" />
<path d="M2009.25,32.75c4.63,2.2,10.16,7.09,12.75,10.5" style="fill:none;stroke:#999;stroke-width:3" />
<path d="M2027.24,20.9c0.68,0.21,1.46,0.27,2.25,0.21c4-0.34,17.25-1.52,23.3-1.92c0.78-0.05,1.27,0.04,2.05,0.18" style="fill:none;stroke:#999;stroke-width:3" />
<path d="M2038.63,10.5c0.53,0.31,0.95,1.38,0.95,2.03c0,6.55,0,28.68-0.11,32.58" style="fill:none;stroke:#999;stroke-width:3" />
<path d="M2040.01,19.75c-2.48,6.21-9.14,15.71-14.31,19.23" style="fill:none;stroke:#999;stroke-width:3" />
<path d="M2039.25,20.5c2.42,2.67,13.81,16.09,16.45,18.72c0.89,0.89,1.66,1.27,2.55,1.53" style="fill:none;stroke:#999;stroke-width:3" />
<path d="M1974.97,54.28c1.15,0.56,4.21,1.13,6.66,0.97c16.49-1.07,51.02-2.81,65.86-3.62c2.55-0.14,4.6,0.37,6.9,0.8" style="fill:none;stroke:#999;stroke-width:3" />
<path d="M2015.24,45.25c0.22,0.92-0.06,2.21-0.64,2.9c-9.61,11.44-22.28,21.3-42,27.6" style="fill:none;stroke:#999;stroke-width:3" />
<path d="M2027.0,53.24c5.81,4.56,19.38,14.67,25.19,17.72c1.98,1.04,2.66,1.19,3.56,1.29" style="fill:none;stroke:#999;stroke-width:3" />
<path d="M1998.39,67.89c0.94,0.3,3.05,0.39,3.98,0.3c11.81-1.07,13.73-2.16,27.9-2.34c1.57-0.02,2.51,0.14,3.3,0.3" style="fill:none;stroke:#999;stroke-width:3" />
<path d="M2006.75,70c0.08,0.54,0.17,1.38-0.16,2.15c-1.96,4.54-13.2,14.5-28.59,20.6" style="fill:none;stroke:#999;stroke-width:3" />
<path d="M1999.6,80.11c0.52,0.35,1.19,1.75,1.28,2.2c0.71,3.32,1.5,9.66,2.5,15.94" style="fill:none;stroke:#999;stroke-width:3" />
<path d="M2001.61,81.36c7.95-0.67,26.47-2.88,31.89-2.99c2.24-0.04,2.63,1.71,2.37,2.71c-0.82,3.1-1.82,7.22-3,12.99" style="fill:none;stroke:black;stroke-width:3" />
<circle cx="2001.61" cy="81.36" r="5" stroke-width="0" fill="#FF2A00" opacity="0.7" />
<path d="M2086.29,23.24c0.37,0.37,2.53,0.54,3.51,0.49c7.87-0.43,12.97-1.98,22.82-2.97c0.99-0.1,1.22-0.37,1.83,0" style="fill:none;stroke:#999;stroke-width:3" />
<path d="M2101.06,11.25c0.67,0.3,1.5,1.31,1.5,2.89c0,0.62-0.09,30.24-0.22,34.04" style="fill:none;stroke:#999;stroke-width:3" />
<path d="M2101.75,25.5c-6.73,8.63-7.97,9.78-18.39,17.33" style="fill:none;stroke:#999;stroke-width:3" />
<path d="M2103.71,27.11c2.66,1.25,6.34,5.52,8.58,7.93" style="fill:none;stroke:#999;stroke-width:3" />
<path d="M2130.5,10.75c0.05,0.39,0.09,1-0.09,1.56C2129.36,15.6 2124.3,22.33 2116.0,26.75" style="fill:none;stroke:#999;stroke-width:3" />
<path d="M2118.0,13.5c4.97,1.1,11.57,6.66,13.5,10.5" style="fill:none;stroke:#999;stroke-width:3" />
<path d="M2129.99,29c0.05,0.39,0.11,1.01-0.1,1.58c-1.23,3.33-7.26,10.62-16.88,15.09" style="fill:none;stroke:#999;stroke-width:3" />
<path d="M2118.25,32.75c4.63,2.2,10.16,7.09,12.75,10.5" style="fill:none;stroke:#999;stroke-width:3" />
<path d="M2136.24,20.9c0.68,0.21,1.46,0.27,2.25,0.21c4-0.34,17.25-1.52,23.3-1.92c0.78-0.05,1.27,0.04,2.05,0.18" style="fill:none;stroke:#999;stroke-width:3" />
<path d="M2147.63,10.5c0.53,0.31,0.95,1.38,0.95,2.03c0,6.55,0,28.68-0.11,32.58" style="fill:none;stroke:#999;stroke-width:3" />
<path d="M2149.01,19.75c-2.48,6.21-9.14,15.71-14.31,19.23" style="fill:none;stroke:#999;stroke-width:3" />
<path d="M2148.25,20.5c2.42,2.67,13.81,16.09,16.45,18.72c0.89,0.89,1.66,1.27,2.55,1.53" style="fill:none;stroke:#999;stroke-width:3" />
<path d="M2083.9700000000003,54.28c1.15,0.56,4.21,1.13,6.66,0.97c16.49-1.07,51.02-2.81,65.86-3.62c2.55-0.14,4.6,0.37,6.9,0.8" style="fill:none;stroke:#999;stroke-width:3" />
<path d="M2124.24,45.25c0.22,0.92-0.06,2.21-0.64,2.9c-9.61,11.44-22.28,21.3-42,27.6" style="fill:none;stroke:#999;stroke-width:3" />
<path d="M2136.0,53.24c5.81,4.56,19.38,14.67,25.19,17.72c1.98,1.04,2.66,1.19,3.56,1.29" style="fill:none;stroke:#999;stroke-width:3" />
<path d="M2107.3900000000003,67.89c0.94,0.3,3.05,0.39,3.98,0.3c11.81-1.07,13.73-2.16,27.9-2.34c1.57-0.02,2.51,0.14,3.3,0.3" style="fill:none;stroke:#999;stroke-width:3" />
<path d="M2115.75,70c0.08,0.54,0.17,1.38-0.16,2.15c-1.96,4.54-13.2,14.5-28.59,20.6" style="fill:none;stroke:#999;stroke-width:3" />
<path d="M2108.6,80.11c0.52,0.35,1.19,1.75,1.28,2.2c0.71,3.32,1.5,9.66,2.5,15.94" style="fill:none;stroke:#999;stroke-width:3" />
<path d="M2110.6099999999997,81.36c7.95-0.67,26.47-2.88,31.89-2.99c2.24-0.04,2.63,1.71,2.37,2.71c-0.82,3.1-1.82,7.22-3,12.99" style="fill:none;stroke:#999;stroke-width:3" />
<path d="M2112.86,96.18c6.35-0.34,24.05-1.96,32.16-2.06" style="fill:none;stroke:black;stroke-width:3" />
<circle cx="2112.86" cy="96.18" r="5" stroke-width="0" fill="#FF2A00" opacity="0.7" />
</svg>