<!-- 0793a -->
<svg width="545px" height="109px" viewBox="0 0 545px 109px" xmlns="http://www.w3.org/2000/svg" xmlns:xlink="http://www.w3.org/1999/xlink" xml:space="preserve" version="1.1"  baseProfile="full">
<line x1="1" y1="1" x2="544" y2="1" style="stroke:#ddd;stroke-width:2" />
<line x1="1" y1="1" x2="1" y2="108" style="stroke:#ddd;stroke-width:2" />
<line x1="1" y1="108" x2="544" y2="108" style="stroke:#ddd;stroke-width:2" />
<line x1="544" y1="1" x2="544" y2="108" style="stroke:#ddd;stroke-width:2" />
<line x1="109" y1="1" x2="109" y2="108" style="stroke:#ddd;stroke-width:2" />
<line x1="218" y1="1" x2="218" y2="108" style="stroke:#ddd;stroke-width:2" />
<line x1="327" y1="1" x2="327" y2="108" style="stroke:#ddd;stroke-width:2" />
<line x1="436" y1="1" x2="436" y2="108" style="stroke:#ddd;stroke-width:2" />
<line x1="1" y1="54" x2="544" y2="54" style="stroke:#ddd;stroke-width:2;stroke-dasharray:3 3" />
<line x1="55" y1="1" x2="55" y2="108" style="stroke:#ddd;stroke-width:2;stroke-dasharray:3 3" />
<line x1="164" y1="1" x2="164" y2="108" style="stroke:#ddd;stroke-width:2;stroke-dasharray:3 3" />
<line x1="273" y1="1" x2="273" y2="108" style="stroke:#ddd;stroke-width:2;stroke-dasharray:3 3" />
<line x1="382" y1="1" x2="382" y2="108" style="stroke:#ddd;stroke-width:2;stroke-dasharray:3 3" />
<line x1="491" y1="1" x2="491" y2="108" style="stroke:#ddd;stroke-width:2;stroke-dasharray:3 3" />
<path d="M29.53,20.89c2.34,0.49,4.67,0.27,6.74,0.09c7.65-0.7,24.51-2.27,32.6-2.73c2.32-0.13,4.84-0.29,7.12,0.27" style="fill:none;stroke:black;stroke-width:3" />
<circle cx="29.53" cy="20.89" r="5" stroke-width="0" fill="#FF2A00" opacity="0.7" />
<path d="M138.53,20.89c2.34,0.49,4.67,0.27,6.74,0.09c7.65-0.7,24.51-2.27,32.6-2.73c2.32-0.13,4.84-0.29,7.12,0.27" style="fill:none;stroke:#999;stroke-width:3" />
<path d="M126.53,44.97c2.95,1.05,6.46,0.68,9.49,0.39c12.45-1.17,38.73-3.73,54.23-4.52c2.86-0.15,5.89-0.05,8.72,0.56" style="fill:none;stroke:black;stroke-width:3" />
<circle cx="126.53" cy="44.97" r="5" stroke-width="0" fill="#FF2A00" opacity="0.7" />
<path d="M247.53,20.89c2.34,0.49,4.67,0.27,6.74,0.09c7.65-0.7,24.51-2.27,32.6-2.73c2.32-0.13,4.84-0.29,7.12,0.27" style="fill:none;stroke:#999;stroke-width:3" />
<path d="M235.53,44.97c2.95,1.05,6.46,0.68,9.49,0.39c12.45-1.17,38.73-3.73,54.23-4.52c2.86-0.15,5.89-0.05,8.72,0.56" style="fill:none;stroke:#999;stroke-width:3" />
<path d="M271.52,46.83c1.2,1.2,2.01,2.79,2.01,5.02c0,14.56-0.01,33.66-0.01,38.62c0,10.53-4.52,3.78-8.71,0.25" style="fill:none;stroke:black;stroke-width:3" />
<circle cx="271.52" cy="46.83" r="5" stroke-width="0" fill="#FF2A00" opacity="0.7" />
<path d="M356.53,20.89c2.34,0.49,4.67,0.27,6.74,0.09c7.65-0.7,24.51-2.27,32.6-2.73c2.32-0.13,4.84-0.29,7.12,0.27" style="fill:none;stroke:#999;stroke-width:3" />
<path d="M344.53,44.97c2.95,1.05,6.46,0.68,9.49,0.39c12.45-1.17,38.73-3.73,54.23-4.52c2.86-0.15,5.89-0.05,8.72,0.56" style="fill:none;stroke:#999;stroke-width:3" />
<path d="M380.52,46.83c1.2,1.2,2.01,2.79,2.01,5.02c0,14.56-0.01,33.66-0.01,38.62c0,10.53-4.52,3.78-8.71,0.25" style="fill:none;stroke:#999;stroke-width:3" />
<path d="M359.26,62.39c0.04,0.6,0.24,1.58-0.09,2.4C357.0,70.25 350.62,78.75 342.5,86.5" style="fill:none;stroke:black;stroke-width:3" />
<circle cx="359.26" cy="62.39" r="5" stroke-width="0" fill="#FF2A00" opacity="0.7" />
<path d="M465.53,20.89c2.34,0.49,4.67,0.27,6.74,0.09c7.65-0.7,24.51-2.27,32.6-2.73c2.32-0.13,4.84-0.29,7.12,0.27" style="fill:none;stroke:#999;stroke-width:3" />
<path d="M453.53,44.97c2.95,1.05,6.46,0.68,9.49,0.39c12.45-1.17,38.73-3.73,54.23-4.52c2.86-0.15,5.89-0.05,8.72,0.56" style="fill:none;stroke:#999;stroke-width:3" />
<path d="M489.52,46.83c1.2,1.2,2.01,2.79,2.01,5.02c0,14.56-0.01,33.66-0.01,38.62c0,10.53-4.52,3.78-8.71,0.25" style="fill:none;stroke:#999;stroke-width:3" />
<path d="M468.26,62.39c0.04,0.6,0.24,1.58-0.09,2.4C466.0,70.25 459.62,78.75 451.5,86.5" style="fill:none;stroke:#999;stroke-width:3" />
<path d="M518.25,63.5c4.16,3.38,10.96,13.5,12,18.75" style="fill:none;stroke:black;stroke-width:3" />
<circle cx="518.25" cy="63.5" r="5" stroke-width="0" fill="#FF2A00" opacity="0.7" />
</svg>