<!-- 0795f -->
<svg width="1090px" height="109px" viewBox="0 0 1090px 109px" xmlns="http://www.w3.org/2000/svg" xmlns:xlink="http://www.w3.org/1999/xlink" xml:space="preserve" version="1.1"  baseProfile="full">
<line x1="1" y1="1" x2="1089" y2="1" style="stroke:#ddd;stroke-width:2" />
<line x1="1" y1="1" x2="1" y2="108" style="stroke:#ddd;stroke-width:2" />
<line x1="1" y1="108" x2="1089" y2="108" style="stroke:#ddd;stroke-width:2" />
<line x1="1089" y1="1" x2="1089" y2="108" style="stroke:#ddd;stroke-width:2" />
<line x1="109" y1="1" x2="109" y2="108" style="stroke:#ddd;stroke-width:2" />
<line x1="218" y1="1" x2="218" y2="108" style="stroke:#ddd;stroke-width:2" />
<line x1="327" y1="1" x2="327" y2="108" style="stroke:#ddd;stroke-width:2" />
<line x1="436" y1="1" x2="436" y2="108" style="stroke:#ddd;stroke-width:2" />
<line x1="545" y1="1" x2="545" y2="108" style="stroke:#ddd;stroke-width:2" />
<line x1="654" y1="1" x2="654" y2="108" style="stroke:#ddd;stroke-width:2" />
<line x1="763" y1="1" x2="763" y2="108" style="stroke:#ddd;stroke-width:2" />
<line x1="872" y1="1" x2="872" y2="108" style="stroke:#ddd;stroke-width:2" />
<line x1="981" y1="1" x2="981" y2="108" style="stroke:#ddd;stroke-width:2" />
<line x1="1" y1="54" x2="1089" y2="54" style="stroke:#ddd;stroke-width:2;stroke-dasharray:3 3" />
<line x1="55" y1="1" x2="55" y2="108" style="stroke:#ddd;stroke-width:2;stroke-dasharray:3 3" />
<line x1="164" y1="1" x2="164" y2="108" style="stroke:#ddd;stroke-width:2;stroke-dasharray:3 3" />
<line x1="273" y1="1" x2="273" y2="108" style="stroke:#ddd;stroke-width:2;stroke-dasharray:3 3" />
<line x1="382" y1="1" x2="382" y2="108" style="stroke:#ddd;stroke-width:2;stroke-dasharray:3 3" />
<line x1="491" y1="1" x2="491" y2="108" style="stroke:#ddd;stroke-width:2;stroke-dasharray:3 3" />
<line x1="600" y1="1" x2="600" y2="108" style="stroke:#ddd;stroke-width:2;stroke-dasharray:3 3" />
<line x1="709" y1="1" x2="709" y2="108" style="stroke:#ddd;stroke-width:2;stroke-dasharray:3 3" />
<line x1="818" y1="1" x2="818" y2="108" style="stroke:#ddd;stroke-width:2;stroke-dasharray:3 3" />
<line x1="927" y1="1" x2="927" y2="108" style="stroke:#ddd;stroke-width:2;stroke-dasharray:3 3" />
<line x1="1036" y1="1" x2="1036" y2="108" style="stroke:#ddd;stroke-width:2;stroke-dasharray:3 3" />
<path d="M52.08,9.13c0.66,0.22,2.04,1.63,2.17,2.07c0.13,0.44,0.28,30.5,0.15,33.22" style="fill:none;stroke:black;stroke-width:3" />
<circle cx="52.08" cy="9.13" r="5" stroke-width="0" fill="#FF2A00" opacity="0.7" />
<path d="M161.07999999999998,9.13c0.66,0.22,2.04,1.63,2.17,2.07c0.13,0.44,0.28,30.5,0.15,33.22" style="fill:none;stroke:#999;stroke-width:3" />
<path d="M136.94,15c0.58,0.22,1.25,1.82,1.16,2.25c-0.38,1.93-0.62,5.6-2.19,9.52c-0.38,0.96-0.16,2.12,1.15,1.81c10.75-2.54,41.36-5.11,52.27-4.99" style="fill:none;stroke:black;stroke-width:3" />
<circle cx="136.94" cy="15.0" r="5" stroke-width="0" fill="#FF2A00" opacity="0.7" />
<path d="M270.08,9.13c0.66,0.22,2.04,1.63,2.17,2.07c0.13,0.44,0.28,30.5,0.15,33.22" style="fill:none;stroke:#999;stroke-width:3" />
<path d="M245.94,15c0.58,0.22,1.25,1.82,1.16,2.25c-0.38,1.93-0.62,5.6-2.19,9.52c-0.38,0.96-0.16,2.12,1.15,1.81c10.75-2.54,41.36-5.11,52.27-4.99" style="fill:none;stroke:#999;stroke-width:3" />
<path d="M298.86,11.75c0.6,0.29,0.84,2.55,0.74,3.13c-0.59,3.54-0.73,5.95-1.71,12.54" style="fill:none;stroke:black;stroke-width:3" />
<circle cx="298.86" cy="11.75" r="5" stroke-width="0" fill="#FF2A00" opacity="0.7" />
<path d="M379.08,9.13c0.66,0.22,2.04,1.63,2.17,2.07c0.13,0.44,0.28,30.5,0.15,33.22" style="fill:none;stroke:#999;stroke-width:3" />
<path d="M354.94,15c0.58,0.22,1.25,1.82,1.16,2.25c-0.38,1.93-0.62,5.6-2.19,9.52c-0.38,0.96-0.16,2.12,1.15,1.81c10.75-2.54,41.36-5.11,52.27-4.99" style="fill:none;stroke:#999;stroke-width:3" />
<path d="M407.86,11.75c0.6,0.29,0.84,2.55,0.74,3.13c-0.59,3.54-0.73,5.95-1.71,12.54" style="fill:none;stroke:#999;stroke-width:3" />
<path d="M351.21,32.84c0.67,0.24,1.45,2.06,1.34,2.55c-0.44,2.18-1.3,7.1-3.11,11.54c-0.44,1.09-0.19,2.4,1.33,2.05c12.46-2.87,49.11-6.28,61.75-6.14" style="fill:none;stroke:black;stroke-width:3" />
<circle cx="351.21" cy="32.84" r="5" stroke-width="0" fill="#FF2A00" opacity="0.7" />
<path d="M488.08,9.13c0.66,0.22,2.04,1.63,2.17,2.07c0.13,0.44,0.28,30.5,0.15,33.22" style="fill:none;stroke:#999;stroke-width:3" />
<path d="M463.94,15c0.58,0.22,1.25,1.82,1.16,2.25c-0.38,1.93-0.62,5.6-2.19,9.52c-0.38,0.96-0.16,2.12,1.15,1.81c10.75-2.54,41.36-5.11,52.27-4.99" style="fill:none;stroke:#999;stroke-width:3" />
<path d="M516.86,11.75c0.6,0.29,0.84,2.55,0.74,3.13c-0.59,3.54-0.73,5.95-1.71,12.54" style="fill:none;stroke:#999;stroke-width:3" />
<path d="M460.21,32.84c0.67,0.24,1.45,2.06,1.34,2.55c-0.44,2.18-1.3,7.1-3.11,11.54c-0.44,1.09-0.19,2.4,1.33,2.05c12.46-2.87,49.11-6.28,61.75-6.14" style="fill:none;stroke:#999;stroke-width:3" />
<path d="M521.02,29.5c0.75,0.32,1.94,2.78,1.9,3.42c-0.24,4.57-0.74,9.56-1.23,14.49" style="fill:none;stroke:black;stroke-width:3" />
<circle cx="521.02" cy="29.5" r="5" stroke-width="0" fill="#FF2A00" opacity="0.7" />
<path d="M597.0799999999999,9.13c0.66,0.22,2.04,1.63,2.17,2.07c0.13,0.44,0.28,30.5,0.15,33.22" style="fill:none;stroke:#999;stroke-width:3" />
<path d="M572.94,15c0.58,0.22,1.25,1.82,1.16,2.25c-0.38,1.93-0.62,5.6-2.19,9.52c-0.38,0.96-0.16,2.12,1.15,1.81c10.75-2.54,41.36-5.11,52.27-4.99" style="fill:none;stroke:#999;stroke-width:3" />
<path d="M625.86,11.75c0.6,0.29,0.84,2.55,0.74,3.13c-0.59,3.54-0.73,5.95-1.71,12.54" style="fill:none;stroke:#999;stroke-width:3" />
<path d="M569.21,32.84c0.67,0.24,1.45,2.06,1.34,2.55c-0.44,2.18-1.3,7.1-3.11,11.54c-0.44,1.09-0.19,2.4,1.33,2.05c12.46-2.87,49.11-6.28,61.75-6.14" style="fill:none;stroke:#999;stroke-width:3" />
<path d="M630.02,29.5c0.75,0.32,1.94,2.78,1.9,3.42c-0.24,4.57-0.74,9.56-1.23,14.49" style="fill:none;stroke:#999;stroke-width:3" />
<path d="M576.81,56.06c1.37,0.22,3.87,0.25,5.25,0.22c8.58-0.15,31.18-2.54,39.63-2.28c2.27,0.07,3.65,0.11,4.79,0.22" style="fill:none;stroke:black;stroke-width:3" />
<circle cx="576.81" cy="56.06" r="5" stroke-width="0" fill="#FF2A00" opacity="0.7" />
<path d="M706.0799999999999,9.13c0.66,0.22,2.04,1.63,2.17,2.07c0.13,0.44,0.28,30.5,0.15,33.22" style="fill:none;stroke:#999;stroke-width:3" />
<path d="M681.94,15c0.58,0.22,1.25,1.82,1.16,2.25c-0.38,1.93-0.62,5.6-2.19,9.52c-0.38,0.96-0.16,2.12,1.15,1.81c10.75-2.54,41.36-5.11,52.27-4.99" style="fill:none;stroke:#999;stroke-width:3" />
<path d="M734.86,11.75c0.6,0.29,0.84,2.55,0.74,3.13c-0.59,3.54-0.73,5.95-1.71,12.54" style="fill:none;stroke:#999;stroke-width:3" />
<path d="M678.21,32.84c0.67,0.24,1.45,2.06,1.34,2.55c-0.44,2.18-1.3,7.1-3.11,11.54c-0.44,1.09-0.19,2.4,1.33,2.05c12.46-2.87,49.11-6.28,61.75-6.14" style="fill:none;stroke:#999;stroke-width:3" />
<path d="M739.02,29.5c0.75,0.32,1.94,2.78,1.9,3.42c-0.24,4.57-0.74,9.56-1.23,14.49" style="fill:none;stroke:#999;stroke-width:3" />
<path d="M685.81,56.06c1.37,0.22,3.87,0.25,5.25,0.22c8.58-0.15,31.18-2.54,39.63-2.28c2.27,0.07,3.65,0.11,4.79,0.22" style="fill:none;stroke:#999;stroke-width:3" />
<path d="M669.78,68.74c1.57,0.48,4.45,0.57,6.02,0.48c11.1-0.68,52.65-4.25,69.13-3.58c2.61,0.1,4.19,0.23,5.5,0.46" style="fill:none;stroke:black;stroke-width:3" />
<circle cx="669.78" cy="68.74" r="5" stroke-width="0" fill="#FF2A00" opacity="0.7" />
<path d="M815.0799999999999,9.13c0.66,0.22,2.04,1.63,2.17,2.07c0.13,0.44,0.28,30.5,0.15,33.22" style="fill:none;stroke:#999;stroke-width:3" />
<path d="M790.94,15c0.58,0.22,1.25,1.82,1.16,2.25c-0.38,1.93-0.62,5.6-2.19,9.52c-0.38,0.96-0.16,2.12,1.15,1.81c10.75-2.54,41.36-5.11,52.27-4.99" style="fill:none;stroke:#999;stroke-width:3" />
<path d="M843.86,11.75c0.6,0.29,0.84,2.55,0.74,3.13c-0.59,3.54-0.73,5.95-1.71,12.54" style="fill:none;stroke:#999;stroke-width:3" />
<path d="M787.21,32.84c0.67,0.24,1.45,2.06,1.34,2.55c-0.44,2.18-1.3,7.1-3.11,11.54c-0.44,1.09-0.19,2.4,1.33,2.05c12.46-2.87,49.11-6.28,61.75-6.14" style="fill:none;stroke:#999;stroke-width:3" />
<path d="M848.02,29.5c0.75,0.32,1.94,2.78,1.9,3.42c-0.24,4.57-0.74,9.56-1.23,14.49" style="fill:none;stroke:#999;stroke-width:3" />
<path d="M794.81,56.06c1.37,0.22,3.87,0.25,5.25,0.22c8.58-0.15,31.18-2.54,39.63-2.28c2.27,0.07,3.65,0.11,4.79,0.22" style="fill:none;stroke:#999;stroke-width:3" />
<path d="M778.78,68.74c1.57,0.48,4.45,0.57,6.02,0.48c11.1-0.68,52.65-4.25,69.13-3.58c2.61,0.1,4.19,0.23,5.5,0.46" style="fill:none;stroke:#999;stroke-width:3" />
<path d="M817.33,68.33c0.1,0.27,1.33,1.41,1.43,3.14c0.46,8.27-0.29,19.12-0.29,21.94c0,8.59-3.21,5.34-8.9,0.14" style="fill:none;stroke:black;stroke-width:3" />
<circle cx="817.33" cy="68.33" r="5" stroke-width="0" fill="#FF2A00" opacity="0.7" />
<path d="M924.0799999999999,9.13c0.66,0.22,2.04,1.63,2.17,2.07c0.13,0.44,0.28,30.5,0.15,33.22" style="fill:none;stroke:#999;stroke-width:3" />
<path d="M899.94,15c0.58,0.22,1.25,1.82,1.16,2.25c-0.38,1.93-0.62,5.6-2.19,9.52c-0.38,0.96-0.16,2.12,1.15,1.81c10.75-2.54,41.36-5.11,52.27-4.99" style="fill:none;stroke:#999;stroke-width:3" />
<path d="M952.86,11.75c0.6,0.29,0.84,2.55,0.74,3.13c-0.59,3.54-0.73,5.95-1.71,12.54" style="fill:none;stroke:#999;stroke-width:3" />
<path d="M896.21,32.84c0.67,0.24,1.45,2.06,1.34,2.55c-0.44,2.18-1.3,7.1-3.11,11.54c-0.44,1.09-0.19,2.4,1.33,2.05c12.46-2.87,49.11-6.28,61.75-6.14" style="fill:none;stroke:#999;stroke-width:3" />
<path d="M957.02,29.5c0.75,0.32,1.94,2.78,1.9,3.42c-0.24,4.57-0.74,9.56-1.23,14.49" style="fill:none;stroke:#999;stroke-width:3" />
<path d="M903.81,56.06c1.37,0.22,3.87,0.25,5.25,0.22c8.58-0.15,31.18-2.54,39.63-2.28c2.27,0.07,3.65,0.11,4.79,0.22" style="fill:none;stroke:#999;stroke-width:3" />
<path d="M887.78,68.74c1.57,0.48,4.45,0.57,6.02,0.48c11.1-0.68,52.65-4.25,69.13-3.58c2.61,0.1,4.19,0.23,5.5,0.46" style="fill:none;stroke:#999;stroke-width:3" />
<path d="M926.33,68.33c0.1,0.27,1.33,1.41,1.43,3.14c0.46,8.27-0.29,19.12-0.29,21.94c0,8.59-3.21,5.34-8.9,0.14" style="fill:none;stroke:#999;stroke-width:3" />
<path d="M909.0,77c0.06,0.48,0.13,1.23-0.12,1.91c-1.47,4.03-12.1,11.92-23.63,17.34" style="fill:none;stroke:black;stroke-width:3" />
<circle cx="909.0" cy="77.0" r="5" stroke-width="0" fill="#FF2A00" opacity="0.7" />
<path d="M1033.08,9.13c0.66,0.22,2.04,1.63,2.17,2.07c0.13,0.44,0.28,30.5,0.15,33.22" style="fill:none;stroke:#999;stroke-width:3" />
<path d="M1008.94,15c0.58,0.22,1.25,1.82,1.16,2.25c-0.38,1.93-0.62,5.6-2.19,9.52c-0.38,0.96-0.16,2.12,1.15,1.81c10.75-2.54,41.36-5.11,52.27-4.99" style="fill:none;stroke:#999;stroke-width:3" />
<path d="M1061.8600000000001,11.75c0.6,0.29,0.84,2.55,0.74,3.13c-0.59,3.54-0.73,5.95-1.71,12.54" style="fill:none;stroke:#999;stroke-width:3" />
<path d="M1005.21,32.84c0.67,0.24,1.45,2.06,1.34,2.55c-0.44,2.18-1.3,7.1-3.11,11.54c-0.44,1.09-0.19,2.4,1.33,2.05c12.46-2.87,49.11-6.28,61.75-6.14" style="fill:none;stroke:#999;stroke-width:3" />
<path d="M1066.02,29.5c0.75,0.32,1.94,2.78,1.9,3.42c-0.24,4.57-0.74,9.56-1.23,14.49" style="fill:none;stroke:#999;stroke-width:3" />
<path d="M1012.81,56.06c1.37,0.22,3.87,0.25,5.25,0.22c8.58-0.15,31.18-2.54,39.63-2.28c2.27,0.07,3.65,0.11,4.79,0.22" style="fill:none;stroke:#999;stroke-width:3" />
<path d="M996.78,68.74c1.57,0.48,4.45,0.57,6.02,0.48c11.1-0.68,52.65-4.25,69.13-3.58c2.61,0.1,4.19,0.23,5.5,0.46" style="fill:none;stroke:#999;stroke-width:3" />
<path d="M1035.33,68.33c0.1,0.27,1.33,1.41,1.43,3.14c0.46,8.27-0.29,19.12-0.29,21.94c0,8.59-3.21,5.34-8.9,0.14" style="fill:none;stroke:#999;stroke-width:3" />
<path d="M1018.0,77c0.06,0.48,0.13,1.23-0.12,1.91c-1.47,4.03-12.1,11.92-23.63,17.34" style="fill:none;stroke:#999;stroke-width:3" />
<path d="M1050.0,74c7.54,3.74,19.86,14.94,21.75,20.75" style="fill:none;stroke:black;stroke-width:3" />
<circle cx="1050.0" cy="74.0" r="5" stroke-width="0" fill="#FF2A00" opacity="0.7" />
</svg>