<!-- 079b3 -->
<svg width="2398px" height="109px" viewBox="0 0 2398px 109px" xmlns="http://www.w3.org/2000/svg" xmlns:xlink="http://www.w3.org/1999/xlink" xml:space="preserve" version="1.1"  baseProfile="full">
<line x1="1" y1="1" x2="2397" y2="1" style="stroke:#ddd;stroke-width:2" />
<line x1="1" y1="1" x2="1" y2="108" style="stroke:#ddd;stroke-width:2" />
<line x1="1" y1="108" x2="2397" y2="108" style="stroke:#ddd;stroke-width:2" />
<line x1="2397" y1="1" x2="2397" y2="108" style="stroke:#ddd;stroke-width:2" />
<line x1="109" y1="1" x2="109" y2="108" style="stroke:#ddd;stroke-width:2" />
<line x1="218" y1="1" x2="218" y2="108" style="stroke:#ddd;stroke-width:2" />
<line x1="327" y1="1" x2="327" y2="108" style="stroke:#ddd;stroke-width:2" />
<line x1="436" y1="1" x2="436" y2="108" style="stroke:#ddd;stroke-width:2" />
<line x1="545" y1="1" x2="545" y2="108" style="stroke:#ddd;stroke-width:2" />
<line x1="654" y1="1" x2="654" y2="108" style="stroke:#ddd;stroke-width:2" />
<line x1="763" y1="1" x2="763" y2="108" style="stroke:#ddd;stroke-width:2" />
<line x1="872" y1="1" x2="872" y2="108" style="stroke:#ddd;stroke-width:2" />
<line x1="981" y1="1" x2="981" y2="108" style="stroke:#ddd;stroke-width:2" />
<line x1="1090" y1="1" x2="1090" y2="108" style="stroke:#ddd;stroke-width:2" />
<line x1="1199" y1="1" x2="1199" y2="108" style="stroke:#ddd;stroke-width:2" />
<line x1="1308" y1="1" x2="1308" y2="108" style="stroke:#ddd;stroke-width:2" />
<line x1="1417" y1="1" x2="1417" y2="108" style="stroke:#ddd;stroke-width:2" />
<line x1="1526" y1="1" x2="1526" y2="108" style="stroke:#ddd;stroke-width:2" />
<line x1="1635" y1="1" x2="1635" y2="108" style="stroke:#ddd;stroke-width:2" />
<line x1="1744" y1="1" x2="1744" y2="108" style="stroke:#ddd;stroke-width:2" />
<line x1="1853" y1="1" x2="1853" y2="108" style="stroke:#ddd;stroke-width:2" />
<line x1="1962" y1="1" x2="1962" y2="108" style="stroke:#ddd;stroke-width:2" />
<line x1="2071" y1="1" x2="2071" y2="108" style="stroke:#ddd;stroke-width:2" />
<line x1="2180" y1="1" x2="2180" y2="108" style="stroke:#ddd;stroke-width:2" />
<line x1="2289" y1="1" x2="2289" y2="108" style="stroke:#ddd;stroke-width:2" />
<line x1="1" y1="54" x2="2397" y2="54" style="stroke:#ddd;stroke-width:2;stroke-dasharray:3 3" />
<line x1="55" y1="1" x2="55" y2="108" style="stroke:#ddd;stroke-width:2;stroke-dasharray:3 3" />
<line x1="164" y1="1" x2="164" y2="108" style="stroke:#ddd;stroke-width:2;stroke-dasharray:3 3" />
<line x1="273" y1="1" x2="273" y2="108" style="stroke:#ddd;stroke-width:2;stroke-dasharray:3 3" />
<line x1="382" y1="1" x2="382" y2="108" style="stroke:#ddd;stroke-width:2;stroke-dasharray:3 3" />
<line x1="491" y1="1" x2="491" y2="108" style="stroke:#ddd;stroke-width:2;stroke-dasharray:3 3" />
<line x1="600" y1="1" x2="600" y2="108" style="stroke:#ddd;stroke-width:2;stroke-dasharray:3 3" />
<line x1="709" y1="1" x2="709" y2="108" style="stroke:#ddd;stroke-width:2;stroke-dasharray:3 3" />
<line x1="818" y1="1" x2="818" y2="108" style="stroke:#ddd;stroke-width:2;stroke-dasharray:3 3" />
<line x1="927" y1="1" x2="927" y2="108" style="stroke:#ddd;stroke-width:2;stroke-dasharray:3 3" />
<line x1="1036" y1="1" x2="1036" y2="108" style="stroke:#ddd;stroke-width:2;stroke-dasharray:3 3" />
<line x1="1145" y1="1" x2="1145" y2="108" style="stroke:#ddd;stroke-width:2;stroke-dasharray:3 3" />
<line x1="1254" y1="1" x2="1254" y2="108" style="stroke:#ddd;stroke-width:2;stroke-dasharray:3 3" />
<line x1="1363" y1="1" x2="1363" y2="108" style="stroke:#ddd;stroke-width:2;stroke-dasharray:3 3" />
<line x1="1472" y1="1" x2="1472" y2="108" style="stroke:#ddd;stroke-width:2;stroke-dasharray:3 3" />
<line x1="1581" y1="1" x2="1581" y2="108" style="stroke:#ddd;stroke-width:2;stroke-dasharray:3 3" />
<line x1="1690" y1="1" x2="1690" y2="108" style="stroke:#ddd;stroke-width:2;stroke-dasharray:3 3" />
<line x1="1799" y1="1" x2="1799" y2="108" style="stroke:#ddd;stroke-width:2;stroke-dasharray:3 3" />
<line x1="1908" y1="1" x2="1908" y2="108" style="stroke:#ddd;stroke-width:2;stroke-dasharray:3 3" />
<line x1="2017" y1="1" x2="2017" y2="108" style="stroke:#ddd;stroke-width:2;stroke-dasharray:3 3" />
<line x1="2126" y1="1" x2="2126" y2="108" style="stroke:#ddd;stroke-width:2;stroke-dasharray:3 3" />
<line x1="2235" y1="1" x2="2235" y2="108" style="stroke:#ddd;stroke-width:2;stroke-dasharray:3 3" />
<line x1="2344" y1="1" x2="2344" y2="108" style="stroke:#ddd;stroke-width:2;stroke-dasharray:3 3" />
<path d="M13.7,19.24c0.83,0.41,2.35,0.45,3.19,0.41c5.21-0.28,13.59-1.47,18.88-1.85c1.38-0.1,2.22,0.19,2.91,0.4" style="fill:none;stroke:black;stroke-width:3" />
<circle cx="13.7" cy="19.24" r="5" stroke-width="0" fill="#FF2A00" opacity="0.7" />
<path d="M122.7,19.24c0.83,0.41,2.35,0.45,3.19,0.41c5.21-0.28,13.59-1.47,18.88-1.85c1.38-0.1,2.22,0.19,2.91,0.4" style="fill:none;stroke:#999;stroke-width:3" />
<path d="M118.15,35.88c1.08,0.25,3.03,0.18,4.1,0.1c6.69-0.5,16.38-1.87,24.09-2.55c1.77-0.15,2.85,0.01,3.74,0.11" style="fill:none;stroke:black;stroke-width:3" />
<circle cx="118.15" cy="35.88" r="5" stroke-width="0" fill="#FF2A00" opacity="0.7" />
<path d="M231.7,19.24c0.83,0.41,2.35,0.45,3.19,0.41c5.21-0.28,13.59-1.47,18.88-1.85c1.38-0.1,2.22,0.19,2.91,0.4" style="fill:none;stroke:#999;stroke-width:3" />
<path d="M227.15,35.88c1.08,0.25,3.03,0.18,4.1,0.1c6.69-0.5,16.38-1.87,24.09-2.55c1.77-0.15,2.85,0.01,3.74,0.11" style="fill:none;stroke:#999;stroke-width:3" />
<path d="M242.77,36.43c1.41,0.45,2.26,2,2.54,2.9c0.28,0.89,0,50.6-0.28,56.17" style="fill:none;stroke:black;stroke-width:3" />
<circle cx="242.77" cy="36.43" r="5" stroke-width="0" fill="#FF2A00" opacity="0.7" />
<path d="M340.7,19.24c0.83,0.41,2.35,0.45,3.19,0.41c5.21-0.28,13.59-1.47,18.88-1.85c1.38-0.1,2.22,0.19,2.91,0.4" style="fill:none;stroke:#999;stroke-width:3" />
<path d="M336.15,35.88c1.08,0.25,3.03,0.18,4.1,0.1c6.69-0.5,16.38-1.87,24.09-2.55c1.77-0.15,2.85,0.01,3.74,0.11" style="fill:none;stroke:#999;stroke-width:3" />
<path d="M351.77,36.43c1.41,0.45,2.26,2,2.54,2.9c0.28,0.89,0,50.6-0.28,56.17" style="fill:none;stroke:#999;stroke-width:3" />
<path d="M342.93,48.39c0.58,1.54,0.56,2.33,0.56,3.63c0,9.52-0.63,21.55-9.25,33.73" style="fill:none;stroke:black;stroke-width:3" />
<circle cx="342.93" cy="48.39" r="5" stroke-width="0" fill="#FF2A00" opacity="0.7" />
<path d="M449.7,19.24c0.83,0.41,2.35,0.45,3.19,0.41c5.21-0.28,13.59-1.47,18.88-1.85c1.38-0.1,2.22,0.19,2.91,0.4" style="fill:none;stroke:#999;stroke-width:3" />
<path d="M445.15,35.88c1.08,0.25,3.03,0.18,4.1,0.1c6.69-0.5,16.38-1.87,24.09-2.55c1.77-0.15,2.85,0.01,3.74,0.11" style="fill:none;stroke:#999;stroke-width:3" />
<path d="M460.77,36.43c1.41,0.45,2.26,2,2.54,2.9c0.28,0.89,0,50.6-0.28,56.17" style="fill:none;stroke:#999;stroke-width:3" />
<path d="M451.93,48.39c0.58,1.54,0.56,2.33,0.56,3.63c0,9.52-0.63,21.55-9.25,33.73" style="fill:none;stroke:#999;stroke-width:3" />
<path d="M472.67,46.25c0.95,0.4,1.52,1.78,1.7,2.57c0.19,0.79,0,24.58-0.19,29.51" style="fill:none;stroke:black;stroke-width:3" />
<circle cx="472.67" cy="46.25" r="5" stroke-width="0" fill="#FF2A00" opacity="0.7" />
<path d="M558.7,19.24c0.83,0.41,2.35,0.45,3.19,0.41c5.21-0.28,13.59-1.47,18.88-1.85c1.38-0.1,2.22,0.19,2.91,0.4" style="fill:none;stroke:#999;stroke-width:3" />
<path d="M554.15,35.88c1.08,0.25,3.03,0.18,4.1,0.1c6.69-0.5,16.38-1.87,24.09-2.55c1.77-0.15,2.85,0.01,3.74,0.11" style="fill:none;stroke:#999;stroke-width:3" />
<path d="M569.77,36.43c1.41,0.45,2.26,2,2.54,2.9c0.28,0.89,0,50.6-0.28,56.17" style="fill:none;stroke:#999;stroke-width:3" />
<path d="M560.9300000000001,48.39c0.58,1.54,0.56,2.33,0.56,3.63c0,9.52-0.63,21.55-9.25,33.73" style="fill:none;stroke:#999;stroke-width:3" />
<path d="M581.6700000000001,46.25c0.95,0.4,1.52,1.78,1.7,2.57c0.19,0.79,0,24.58-0.19,29.51" style="fill:none;stroke:#999;stroke-width:3" />
<path d="M610.55,10c0.58,0.39,1.54,1.74,1.54,2.64c0,1.48-0.08,4.76-0.08,6.38" style="fill:none;stroke:black;stroke-width:3" />
<circle cx="610.55" cy="10.0" r="5" stroke-width="0" fill="#FF2A00" opacity="0.7" />
<path d="M667.7,19.24c0.83,0.41,2.35,0.45,3.19,0.41c5.21-0.28,13.59-1.47,18.88-1.85c1.38-0.1,2.22,0.19,2.91,0.4" style="fill:none;stroke:#999;stroke-width:3" />
<path d="M663.15,35.88c1.08,0.25,3.03,0.18,4.1,0.1c6.69-0.5,16.38-1.87,24.09-2.55c1.77-0.15,2.85,0.01,3.74,0.11" style="fill:none;stroke:#999;stroke-width:3" />
<path d="M678.77,36.43c1.41,0.45,2.26,2,2.54,2.9c0.28,0.89,0,50.6-0.28,56.17" style="fill:none;stroke:#999;stroke-width:3" />
<path d="M669.9300000000001,48.39c0.58,1.54,0.56,2.33,0.56,3.63c0,9.52-0.63,21.55-9.25,33.73" style="fill:none;stroke:#999;stroke-width:3" />
<path d="M690.6700000000001,46.25c0.95,0.4,1.52,1.78,1.7,2.57c0.19,0.79,0,24.58-0.19,29.51" style="fill:none;stroke:#999;stroke-width:3" />
<path d="M719.55,10c0.58,0.39,1.54,1.74,1.54,2.64c0,1.48-0.08,4.76-0.08,6.38" style="fill:none;stroke:#999;stroke-width:3" />
<path d="M699.81,20.92c0.85,0.07,2.8,0.47,3.63,0.4c9.25-0.84,29.92-2.91,39.04-3.12c1.41-0.03,2.12,0.03,3.17,0.51" style="fill:none;stroke:black;stroke-width:3" />
<circle cx="699.81" cy="20.92" r="5" stroke-width="0" fill="#FF2A00" opacity="0.7" />
<path d="M776.7,19.24c0.83,0.41,2.35,0.45,3.19,0.41c5.21-0.28,13.59-1.47,18.88-1.85c1.38-0.1,2.22,0.19,2.91,0.4" style="fill:none;stroke:#999;stroke-width:3" />
<path d="M772.15,35.88c1.08,0.25,3.03,0.18,4.1,0.1c6.69-0.5,16.38-1.87,24.09-2.55c1.77-0.15,2.85,0.01,3.74,0.11" style="fill:none;stroke:#999;stroke-width:3" />
<path d="M787.77,36.43c1.41,0.45,2.26,2,2.54,2.9c0.28,0.89,0,50.6-0.28,56.17" style="fill:none;stroke:#999;stroke-width:3" />
<path d="M778.9300000000001,48.39c0.58,1.54,0.56,2.33,0.56,3.63c0,9.52-0.63,21.55-9.25,33.73" style="fill:none;stroke:#999;stroke-width:3" />
<path d="M799.6700000000001,46.25c0.95,0.4,1.52,1.78,1.7,2.57c0.19,0.79,0,24.58-0.19,29.51" style="fill:none;stroke:#999;stroke-width:3" />
<path d="M828.55,10c0.58,0.39,1.54,1.74,1.54,2.64c0,1.48-0.08,4.76-0.08,6.38" style="fill:none;stroke:#999;stroke-width:3" />
<path d="M808.81,20.92c0.85,0.07,2.8,0.47,3.63,0.4c9.25-0.84,29.92-2.91,39.04-3.12c1.41-0.03,2.12,0.03,3.17,0.51" style="fill:none;stroke:#999;stroke-width:3" />
<path d="M810.1,29.41c0.25,0.2,0.53,0.35,0.61,0.61c0.82,2.61,1.48,6.93,2.07,10.48" style="fill:none;stroke:black;stroke-width:3" />
<circle cx="810.1" cy="29.41" r="5" stroke-width="0" fill="#FF2A00" opacity="0.7" />
<path d="M885.7,19.24c0.83,0.41,2.35,0.45,3.19,0.41c5.21-0.28,13.59-1.47,18.88-1.85c1.38-0.1,2.22,0.19,2.91,0.4" style="fill:none;stroke:#999;stroke-width:3" />
<path d="M881.15,35.88c1.08,0.25,3.03,0.18,4.1,0.1c6.69-0.5,16.38-1.87,24.09-2.55c1.77-0.15,2.85,0.01,3.74,0.11" style="fill:none;stroke:#999;stroke-width:3" />
<path d="M896.77,36.43c1.41,0.45,2.26,2,2.54,2.9c0.28,0.89,0,50.6-0.28,56.17" style="fill:none;stroke:#999;stroke-width:3" />
<path d="M887.9300000000001,48.39c0.58,1.54,0.56,2.33,0.56,3.63c0,9.52-0.63,21.55-9.25,33.73" style="fill:none;stroke:#999;stroke-width:3" />
<path d="M908.6700000000001,46.25c0.95,0.4,1.52,1.78,1.7,2.57c0.19,0.79,0,24.58-0.19,29.51" style="fill:none;stroke:#999;stroke-width:3" />
<path d="M937.55,10c0.58,0.39,1.54,1.74,1.54,2.64c0,1.48-0.08,4.76-0.08,6.38" style="fill:none;stroke:#999;stroke-width:3" />
<path d="M917.81,20.92c0.85,0.07,2.8,0.47,3.63,0.4c9.25-0.84,29.92-2.91,39.04-3.12c1.41-0.03,2.12,0.03,3.17,0.51" style="fill:none;stroke:#999;stroke-width:3" />
<path d="M919.1,29.41c0.25,0.2,0.53,0.35,0.61,0.61c0.82,2.61,1.48,6.93,2.07,10.48" style="fill:none;stroke:#999;stroke-width:3" />
<path d="M920.64,30.9c5.08-1.14,10.76-2.38,13.67-2.67c1.06-0.11,1.7,0.62,1.55,1.24c-0.63,2.56-0.87,4.57-1.8,8.11" style="fill:none;stroke:black;stroke-width:3" />
<circle cx="920.64" cy="30.9" r="5" stroke-width="0" fill="#FF2A00" opacity="0.7" />
<path d="M994.7,19.24c0.83,0.41,2.35,0.45,3.19,0.41c5.21-0.28,13.59-1.47,18.88-1.85c1.38-0.1,2.22,0.19,2.91,0.4" style="fill:none;stroke:#999;stroke-width:3" />
<path d="M990.15,35.88c1.08,0.25,3.03,0.18,4.1,0.1c6.69-0.5,16.38-1.87,24.09-2.55c1.77-0.15,2.85,0.01,3.74,0.11" style="fill:none;stroke:#999;stroke-width:3" />
<path d="M1005.77,36.43c1.41,0.45,2.26,2,2.54,2.9c0.28,0.89,0,50.6-0.28,56.17" style="fill:none;stroke:#999;stroke-width:3" />
<path d="M996.9300000000001,48.39c0.58,1.54,0.56,2.33,0.56,3.63c0,9.52-0.63,21.55-9.25,33.73" style="fill:none;stroke:#999;stroke-width:3" />
<path d="M1017.6700000000001,46.25c0.95,0.4,1.52,1.78,1.7,2.57c0.19,0.79,0,24.58-0.19,29.51" style="fill:none;stroke:#999;stroke-width:3" />
<path d="M1046.55,10c0.58,0.39,1.54,1.74,1.54,2.64c0,1.48-0.08,4.76-0.08,6.38" style="fill:none;stroke:#999;stroke-width:3" />
<path d="M1026.81,20.92c0.85,0.07,2.8,0.47,3.63,0.4c9.25-0.84,29.92-2.91,39.04-3.12c1.41-0.03,2.12,0.03,3.17,0.51" style="fill:none;stroke:#999;stroke-width:3" />
<path d="M1028.1,29.41c0.25,0.2,0.53,0.35,0.61,0.61c0.82,2.61,1.48,6.93,2.07,10.48" style="fill:none;stroke:#999;stroke-width:3" />
<path d="M1029.6399999999999,30.9c5.08-1.14,10.76-2.38,13.67-2.67c1.06-0.11,1.7,0.62,1.55,1.24c-0.63,2.56-0.87,4.57-1.8,8.11" style="fill:none;stroke:#999;stroke-width:3" />
<path d="M1030.9,39.1c3.08-0.25,7.69-1.09,11.92-1.47" style="fill:none;stroke:black;stroke-width:3" />
<circle cx="1030.9" cy="39.1" r="5" stroke-width="0" fill="#FF2A00" opacity="0.7" />
<path d="M1103.7,19.24c0.83,0.41,2.35,0.45,3.19,0.41c5.21-0.28,13.59-1.47,18.88-1.85c1.38-0.1,2.22,0.19,2.91,0.4" style="fill:none;stroke:#999;stroke-width:3" />
<path d="M1099.15,35.88c1.08,0.25,3.03,0.18,4.1,0.1c6.69-0.5,16.38-1.87,24.09-2.55c1.77-0.15,2.85,0.01,3.74,0.11" style="fill:none;stroke:#999;stroke-width:3" />
<path d="M1114.77,36.43c1.41,0.45,2.26,2,2.54,2.9c0.28,0.89,0,50.6-0.28,56.17" style="fill:none;stroke:#999;stroke-width:3" />
<path d="M1105.93,48.39c0.58,1.54,0.56,2.33,0.56,3.63c0,9.52-0.63,21.55-9.25,33.73" style="fill:none;stroke:#999;stroke-width:3" />
<path d="M1126.67,46.25c0.95,0.4,1.52,1.78,1.7,2.57c0.19,0.79,0,24.58-0.19,29.51" style="fill:none;stroke:#999;stroke-width:3" />
<path d="M1155.55,10c0.58,0.39,1.54,1.74,1.54,2.64c0,1.48-0.08,4.76-0.08,6.38" style="fill:none;stroke:#999;stroke-width:3" />
<path d="M1135.81,20.92c0.85,0.07,2.8,0.47,3.63,0.4c9.25-0.84,29.92-2.91,39.04-3.12c1.41-0.03,2.12,0.03,3.17,0.51" style="fill:none;stroke:#999;stroke-width:3" />
<path d="M1137.1,29.41c0.25,0.2,0.53,0.35,0.61,0.61c0.82,2.61,1.48,6.93,2.07,10.48" style="fill:none;stroke:#999;stroke-width:3" />
<path d="M1138.6399999999999,30.9c5.08-1.14,10.76-2.38,13.67-2.67c1.06-0.11,1.7,0.62,1.55,1.24c-0.63,2.56-0.87,4.57-1.8,8.11" style="fill:none;stroke:#999;stroke-width:3" />
<path d="M1139.9,39.1c3.08-0.25,7.69-1.09,11.92-1.47" style="fill:none;stroke:#999;stroke-width:3" />
<path d="M1160.0,26.64c0.25,0.21,0.51,0.39,0.62,0.66c0.87,2.11,1.49,7.92,2.08,11.7" style="fill:none;stroke:black;stroke-width:3" />
<circle cx="1160.0" cy="26.64" r="5" stroke-width="0" fill="#FF2A00" opacity="0.7" />
<path d="M1212.7,19.24c0.83,0.41,2.35,0.45,3.19,0.41c5.21-0.28,13.59-1.47,18.88-1.85c1.38-0.1,2.22,0.19,2.91,0.4" style="fill:none;stroke:#999;stroke-width:3" />
<path d="M1208.15,35.88c1.08,0.25,3.03,0.18,4.1,0.1c6.69-0.5,16.38-1.87,24.09-2.55c1.77-0.15,2.85,0.01,3.74,0.11" style="fill:none;stroke:#999;stroke-width:3" />
<path d="M1223.77,36.43c1.41,0.45,2.26,2,2.54,2.9c0.28,0.89,0,50.6-0.28,56.17" style="fill:none;stroke:#999;stroke-width:3" />
<path d="M1214.93,48.39c0.58,1.54,0.56,2.33,0.56,3.63c0,9.52-0.63,21.55-9.25,33.73" style="fill:none;stroke:#999;stroke-width:3" />
<path d="M1235.67,46.25c0.95,0.4,1.52,1.78,1.7,2.57c0.19,0.79,0,24.58-0.19,29.51" style="fill:none;stroke:#999;stroke-width:3" />
<path d="M1264.55,10c0.58,0.39,1.54,1.74,1.54,2.64c0,1.48-0.08,4.76-0.08,6.38" style="fill:none;stroke:#999;stroke-width:3" />
<path d="M1244.81,20.92c0.85,0.07,2.8,0.47,3.63,0.4c9.25-0.84,29.92-2.91,39.04-3.12c1.41-0.03,2.12,0.03,3.17,0.51" style="fill:none;stroke:#999;stroke-width:3" />
<path d="M1246.1,29.41c0.25,0.2,0.53,0.35,0.61,0.61c0.82,2.61,1.48,6.93,2.07,10.48" style="fill:none;stroke:#999;stroke-width:3" />
<path d="M1247.6399999999999,30.9c5.08-1.14,10.76-2.38,13.67-2.67c1.06-0.11,1.7,0.62,1.55,1.24c-0.63,2.56-0.87,4.57-1.8,8.11" style="fill:none;stroke:#999;stroke-width:3" />
<path d="M1248.9,39.1c3.08-0.25,7.69-1.09,11.92-1.47" style="fill:none;stroke:#999;stroke-width:3" />
<path d="M1269.0,26.64c0.25,0.21,0.51,0.39,0.62,0.66c0.87,2.11,1.49,7.92,2.08,11.7" style="fill:none;stroke:#999;stroke-width:3" />
<path d="M1270.56,28.07c5.11-1.1,12.98-2.31,15.91-2.59c1.07-0.1,1.71,0.6,1.56,1.19c-0.63,2.46-1.79,4.88-2.73,8.29" style="fill:none;stroke:black;stroke-width:3" />
<circle cx="1270.56" cy="28.07" r="5" stroke-width="0" fill="#FF2A00" opacity="0.7" />
<path d="M1321.7,19.24c0.83,0.41,2.35,0.45,3.19,0.41c5.21-0.28,13.59-1.47,18.88-1.85c1.38-0.1,2.22,0.19,2.91,0.4" style="fill:none;stroke:#999;stroke-width:3" />
<path d="M1317.15,35.88c1.08,0.25,3.03,0.18,4.1,0.1c6.69-0.5,16.38-1.87,24.09-2.55c1.77-0.15,2.85,0.01,3.74,0.11" style="fill:none;stroke:#999;stroke-width:3" />
<path d="M1332.77,36.43c1.41,0.45,2.26,2,2.54,2.9c0.28,0.89,0,50.6-0.28,56.17" style="fill:none;stroke:#999;stroke-width:3" />
<path d="M1323.93,48.39c0.58,1.54,0.56,2.33,0.56,3.63c0,9.52-0.63,21.55-9.25,33.73" style="fill:none;stroke:#999;stroke-width:3" />
<path d="M1344.67,46.25c0.95,0.4,1.52,1.78,1.7,2.57c0.19,0.79,0,24.58-0.19,29.51" style="fill:none;stroke:#999;stroke-width:3" />
<path d="M1373.55,10c0.58,0.39,1.54,1.74,1.54,2.64c0,1.48-0.08,4.76-0.08,6.38" style="fill:none;stroke:#999;stroke-width:3" />
<path d="M1353.81,20.92c0.85,0.07,2.8,0.47,3.63,0.4c9.25-0.84,29.92-2.91,39.04-3.12c1.41-0.03,2.12,0.03,3.17,0.51" style="fill:none;stroke:#999;stroke-width:3" />
<path d="M1355.1,29.41c0.25,0.2,0.53,0.35,0.61,0.61c0.82,2.61,1.48,6.93,2.07,10.48" style="fill:none;stroke:#999;stroke-width:3" />
<path d="M1356.6399999999999,30.9c5.08-1.14,10.76-2.38,13.67-2.67c1.06-0.11,1.7,0.62,1.55,1.24c-0.63,2.56-0.87,4.57-1.8,8.11" style="fill:none;stroke:#999;stroke-width:3" />
<path d="M1357.9,39.1c3.08-0.25,7.69-1.09,11.92-1.47" style="fill:none;stroke:#999;stroke-width:3" />
<path d="M1378.0,26.64c0.25,0.21,0.51,0.39,0.62,0.66c0.87,2.11,1.49,7.92,2.08,11.7" style="fill:none;stroke:#999;stroke-width:3" />
<path d="M1379.56,28.07c5.11-1.1,12.98-2.31,15.91-2.59c1.07-0.1,1.71,0.6,1.56,1.19c-0.63,2.46-1.79,4.88-2.73,8.29" style="fill:none;stroke:#999;stroke-width:3" />
<path d="M1380.82,37.15c3.1-0.31,9.61-1.4,13.88-1.89" style="fill:none;stroke:black;stroke-width:3" />
<circle cx="1380.82" cy="37.15" r="5" stroke-width="0" fill="#FF2A00" opacity="0.7" />
<path d="M1430.7,19.24c0.83,0.41,2.35,0.45,3.19,0.41c5.21-0.28,13.59-1.47,18.88-1.85c1.38-0.1,2.22,0.19,2.91,0.4" style="fill:none;stroke:#999;stroke-width:3" />
<path d="M1426.15,35.88c1.08,0.25,3.03,0.18,4.1,0.1c6.69-0.5,16.38-1.87,24.09-2.55c1.77-0.15,2.85,0.01,3.74,0.11" style="fill:none;stroke:#999;stroke-width:3" />
<path d="M1441.77,36.43c1.41,0.45,2.26,2,2.54,2.9c0.28,0.89,0,50.6-0.28,56.17" style="fill:none;stroke:#999;stroke-width:3" />
<path d="M1432.93,48.39c0.58,1.54,0.56,2.33,0.56,3.63c0,9.52-0.63,21.55-9.25,33.73" style="fill:none;stroke:#999;stroke-width:3" />
<path d="M1453.67,46.25c0.95,0.4,1.52,1.78,1.7,2.57c0.19,0.79,0,24.58-0.19,29.51" style="fill:none;stroke:#999;stroke-width:3" />
<path d="M1482.55,10c0.58,0.39,1.54,1.74,1.54,2.64c0,1.48-0.08,4.76-0.08,6.38" style="fill:none;stroke:#999;stroke-width:3" />
<path d="M1462.81,20.92c0.85,0.07,2.8,0.47,3.63,0.4c9.25-0.84,29.92-2.91,39.04-3.12c1.41-0.03,2.12,0.03,3.17,0.51" style="fill:none;stroke:#999;stroke-width:3" />
<path d="M1464.1,29.41c0.25,0.2,0.53,0.35,0.61,0.61c0.82,2.61,1.48,6.93,2.07,10.48" style="fill:none;stroke:#999;stroke-width:3" />
<path d="M1465.6399999999999,30.9c5.08-1.14,10.76-2.38,13.67-2.67c1.06-0.11,1.7,0.62,1.55,1.24c-0.63,2.56-0.87,4.57-1.8,8.11" style="fill:none;stroke:#999;stroke-width:3" />
<path d="M1466.9,39.1c3.08-0.25,7.69-1.09,11.92-1.47" style="fill:none;stroke:#999;stroke-width:3" />
<path d="M1487.0,26.64c0.25,0.21,0.51,0.39,0.62,0.66c0.87,2.11,1.49,7.92,2.08,11.7" style="fill:none;stroke:#999;stroke-width:3" />
<path d="M1488.56,28.07c5.11-1.1,12.98-2.31,15.91-2.59c1.07-0.1,1.71,0.6,1.56,1.19c-0.63,2.46-1.79,4.88-2.73,8.29" style="fill:none;stroke:#999;stroke-width:3" />
<path d="M1489.82,37.15c3.1-0.31,9.61-1.4,13.88-1.89" style="fill:none;stroke:#999;stroke-width:3" />
<path d="M1465.7,49.19c0.79,0.27,3.07,0.32,3.86,0.27c7.21-0.51,26.89-2.97,34.64-3.56c1.31-0.1,2.11,0.13,2.77,0.26" style="fill:none;stroke:black;stroke-width:3" />
<circle cx="1465.7" cy="49.19" r="5" stroke-width="0" fill="#FF2A00" opacity="0.7" />
<path d="M1539.7,19.24c0.83,0.41,2.35,0.45,3.19,0.41c5.21-0.28,13.59-1.47,18.88-1.85c1.38-0.1,2.22,0.19,2.91,0.4" style="fill:none;stroke:#999;stroke-width:3" />
<path d="M1535.15,35.88c1.08,0.25,3.03,0.18,4.1,0.1c6.69-0.5,16.38-1.87,24.09-2.55c1.77-0.15,2.85,0.01,3.74,0.11" style="fill:none;stroke:#999;stroke-width:3" />
<path d="M1550.77,36.43c1.41,0.45,2.26,2,2.54,2.9c0.28,0.89,0,50.6-0.28,56.17" style="fill:none;stroke:#999;stroke-width:3" />
<path d="M1541.93,48.39c0.58,1.54,0.56,2.33,0.56,3.63c0,9.52-0.63,21.55-9.25,33.73" style="fill:none;stroke:#999;stroke-width:3" />
<path d="M1562.67,46.25c0.95,0.4,1.52,1.78,1.7,2.57c0.19,0.79,0,24.58-0.19,29.51" style="fill:none;stroke:#999;stroke-width:3" />
<path d="M1591.55,10c0.58,0.39,1.54,1.74,1.54,2.64c0,1.48-0.08,4.76-0.08,6.38" style="fill:none;stroke:#999;stroke-width:3" />
<path d="M1571.81,20.92c0.85,0.07,2.8,0.47,3.63,0.4c9.25-0.84,29.92-2.91,39.04-3.12c1.41-0.03,2.12,0.03,3.17,0.51" style="fill:none;stroke:#999;stroke-width:3" />
<path d="M1573.1,29.41c0.25,0.2,0.53,0.35,0.61,0.61c0.82,2.61,1.48,6.93,2.07,10.48" style="fill:none;stroke:#999;stroke-width:3" />
<path d="M1574.6399999999999,30.9c5.08-1.14,10.76-2.38,13.67-2.67c1.06-0.11,1.7,0.62,1.55,1.24c-0.63,2.56-0.87,4.57-1.8,8.11" style="fill:none;stroke:#999;stroke-width:3" />
<path d="M1575.9,39.1c3.08-0.25,7.69-1.09,11.92-1.47" style="fill:none;stroke:#999;stroke-width:3" />
<path d="M1596.0,26.64c0.25,0.21,0.51,0.39,0.62,0.66c0.87,2.11,1.49,7.92,2.08,11.7" style="fill:none;stroke:#999;stroke-width:3" />
<path d="M1597.56,28.07c5.11-1.1,12.98-2.31,15.91-2.59c1.07-0.1,1.71,0.6,1.56,1.19c-0.63,2.46-1.79,4.88-2.73,8.29" style="fill:none;stroke:#999;stroke-width:3" />
<path d="M1598.82,37.15c3.1-0.31,9.61-1.4,13.88-1.89" style="fill:none;stroke:#999;stroke-width:3" />
<path d="M1574.7,49.19c0.79,0.27,3.07,0.32,3.86,0.27c7.21-0.51,26.89-2.97,34.64-3.56c1.31-0.1,2.11,0.13,2.77,0.26" style="fill:none;stroke:#999;stroke-width:3" />
<path d="M1583.52,43.44c1.11,0.46,1.62,2.5,1.62,3.46c0,3.1,0.8,12.1,0.8,19.51" style="fill:none;stroke:black;stroke-width:3" />
<circle cx="1583.52" cy="43.44" r="5" stroke-width="0" fill="#FF2A00" opacity="0.7" />
<path d="M1648.7,19.24c0.83,0.41,2.35,0.45,3.19,0.41c5.21-0.28,13.59-1.47,18.88-1.85c1.38-0.1,2.22,0.19,2.91,0.4" style="fill:none;stroke:#999;stroke-width:3" />
<path d="M1644.15,35.88c1.08,0.25,3.03,0.18,4.1,0.1c6.69-0.5,16.38-1.87,24.09-2.55c1.77-0.15,2.85,0.01,3.74,0.11" style="fill:none;stroke:#999;stroke-width:3" />
<path d="M1659.77,36.43c1.41,0.45,2.26,2,2.54,2.9c0.28,0.89,0,50.6-0.28,56.17" style="fill:none;stroke:#999;stroke-width:3" />
<path d="M1650.93,48.39c0.58,1.54,0.56,2.33,0.56,3.63c0,9.52-0.63,21.55-9.25,33.73" style="fill:none;stroke:#999;stroke-width:3" />
<path d="M1671.67,46.25c0.95,0.4,1.52,1.78,1.7,2.57c0.19,0.79,0,24.58-0.19,29.51" style="fill:none;stroke:#999;stroke-width:3" />
<path d="M1700.55,10c0.58,0.39,1.54,1.74,1.54,2.64c0,1.48-0.08,4.76-0.08,6.38" style="fill:none;stroke:#999;stroke-width:3" />
<path d="M1680.81,20.92c0.85,0.07,2.8,0.47,3.63,0.4c9.25-0.84,29.92-2.91,39.04-3.12c1.41-0.03,2.12,0.03,3.17,0.51" style="fill:none;stroke:#999;stroke-width:3" />
<path d="M1682.1,29.41c0.25,0.2,0.53,0.35,0.61,0.61c0.82,2.61,1.48,6.93,2.07,10.48" style="fill:none;stroke:#999;stroke-width:3" />
<path d="M1683.6399999999999,30.9c5.08-1.14,10.76-2.38,13.67-2.67c1.06-0.11,1.7,0.62,1.55,1.24c-0.63,2.56-0.87,4.57-1.8,8.11" style="fill:none;stroke:#999;stroke-width:3" />
<path d="M1684.9,39.1c3.08-0.25,7.69-1.09,11.92-1.47" style="fill:none;stroke:#999;stroke-width:3" />
<path d="M1705.0,26.64c0.25,0.21,0.51,0.39,0.62,0.66c0.87,2.11,1.49,7.92,2.08,11.7" style="fill:none;stroke:#999;stroke-width:3" />
<path d="M1706.56,28.07c5.11-1.1,12.98-2.31,15.91-2.59c1.07-0.1,1.71,0.6,1.56,1.19c-0.63,2.46-1.79,4.88-2.73,8.29" style="fill:none;stroke:#999;stroke-width:3" />
<path d="M1707.82,37.15c3.1-0.31,9.61-1.4,13.88-1.89" style="fill:none;stroke:#999;stroke-width:3" />
<path d="M1683.7,49.19c0.79,0.27,3.07,0.32,3.86,0.27c7.21-0.51,26.89-2.97,34.64-3.56c1.31-0.1,2.11,0.13,2.77,0.26" style="fill:none;stroke:#999;stroke-width:3" />
<path d="M1692.52,43.44c1.11,0.46,1.62,2.5,1.62,3.46c0,3.1,0.8,12.1,0.8,19.51" style="fill:none;stroke:#999;stroke-width:3" />
<path d="M1709.25,42.25c0.9,0.91,0.83,2,0.73,3.42c-0.39,5.58,0.42,11.83-0.12,18.96" style="fill:none;stroke:black;stroke-width:3" />
<circle cx="1709.25" cy="42.25" r="5" stroke-width="0" fill="#FF2A00" opacity="0.7" />
<path d="M1757.7,19.24c0.83,0.41,2.35,0.45,3.19,0.41c5.21-0.28,13.59-1.47,18.88-1.85c1.38-0.1,2.22,0.19,2.91,0.4" style="fill:none;stroke:#999;stroke-width:3" />
<path d="M1753.15,35.88c1.08,0.25,3.03,0.18,4.1,0.1c6.69-0.5,16.38-1.87,24.09-2.55c1.77-0.15,2.85,0.01,3.74,0.11" style="fill:none;stroke:#999;stroke-width:3" />
<path d="M1768.77,36.43c1.41,0.45,2.26,2,2.54,2.9c0.28,0.89,0,50.6-0.28,56.17" style="fill:none;stroke:#999;stroke-width:3" />
<path d="M1759.93,48.39c0.58,1.54,0.56,2.33,0.56,3.63c0,9.52-0.63,21.55-9.25,33.73" style="fill:none;stroke:#999;stroke-width:3" />
<path d="M1780.67,46.25c0.95,0.4,1.52,1.78,1.7,2.57c0.19,0.79,0,24.58-0.19,29.51" style="fill:none;stroke:#999;stroke-width:3" />
<path d="M1809.55,10c0.58,0.39,1.54,1.74,1.54,2.64c0,1.48-0.08,4.76-0.08,6.38" style="fill:none;stroke:#999;stroke-width:3" />
<path d="M1789.81,20.92c0.85,0.07,2.8,0.47,3.63,0.4c9.25-0.84,29.92-2.91,39.04-3.12c1.41-0.03,2.12,0.03,3.17,0.51" style="fill:none;stroke:#999;stroke-width:3" />
<path d="M1791.1,29.41c0.25,0.2,0.53,0.35,0.61,0.61c0.82,2.61,1.48,6.93,2.07,10.48" style="fill:none;stroke:#999;stroke-width:3" />
<path d="M1792.6399999999999,30.9c5.08-1.14,10.76-2.38,13.67-2.67c1.06-0.11,1.7,0.62,1.55,1.24c-0.63,2.56-0.87,4.57-1.8,8.11" style="fill:none;stroke:#999;stroke-width:3" />
<path d="M1793.9,39.1c3.08-0.25,7.69-1.09,11.92-1.47" style="fill:none;stroke:#999;stroke-width:3" />
<path d="M1814.0,26.64c0.25,0.21,0.51,0.39,0.62,0.66c0.87,2.11,1.49,7.92,2.08,11.7" style="fill:none;stroke:#999;stroke-width:3" />
<path d="M1815.56,28.07c5.11-1.1,12.98-2.31,15.91-2.59c1.07-0.1,1.71,0.6,1.56,1.19c-0.63,2.46-1.79,4.88-2.73,8.29" style="fill:none;stroke:#999;stroke-width:3" />
<path d="M1816.82,37.15c3.1-0.31,9.61-1.4,13.88-1.89" style="fill:none;stroke:#999;stroke-width:3" />
<path d="M1792.7,49.19c0.79,0.27,3.07,0.32,3.86,0.27c7.21-0.51,26.89-2.97,34.64-3.56c1.31-0.1,2.11,0.13,2.77,0.26" style="fill:none;stroke:#999;stroke-width:3" />
<path d="M1801.52,43.44c1.11,0.46,1.62,2.5,1.62,3.46c0,3.1,0.8,12.1,0.8,19.51" style="fill:none;stroke:#999;stroke-width:3" />
<path d="M1818.25,42.25c0.9,0.91,0.83,2,0.73,3.42c-0.39,5.58,0.42,11.83-0.12,18.96" style="fill:none;stroke:#999;stroke-width:3" />
<path d="M1792.82,58.05c0.84,0.36,3.27,0.44,4.12,0.36c7.68-0.7,24.13-2.52,32.38-3.33c1.4-0.14,2.24,0.17,2.95,0.35" style="fill:none;stroke:black;stroke-width:3" />
<circle cx="1792.82" cy="58.05" r="5" stroke-width="0" fill="#FF2A00" opacity="0.7" />
<path d="M1866.7,19.24c0.83,0.41,2.35,0.45,3.19,0.41c5.21-0.28,13.59-1.47,18.88-1.85c1.38-0.1,2.22,0.19,2.91,0.4" style="fill:none;stroke:#999;stroke-width:3" />
<path d="M1862.15,35.88c1.08,0.25,3.03,0.18,4.1,0.1c6.69-0.5,16.38-1.87,24.09-2.55c1.77-0.15,2.85,0.01,3.74,0.11" style="fill:none;stroke:#999;stroke-width:3" />
<path d="M1877.77,36.43c1.41,0.45,2.26,2,2.54,2.9c0.28,0.89,0,50.6-0.28,56.17" style="fill:none;stroke:#999;stroke-width:3" />
<path d="M1868.93,48.39c0.58,1.54,0.56,2.33,0.56,3.63c0,9.52-0.63,21.55-9.25,33.73" style="fill:none;stroke:#999;stroke-width:3" />
<path d="M1889.67,46.25c0.95,0.4,1.52,1.78,1.7,2.57c0.19,0.79,0,24.58-0.19,29.51" style="fill:none;stroke:#999;stroke-width:3" />
<path d="M1918.55,10c0.58,0.39,1.54,1.74,1.54,2.64c0,1.48-0.08,4.76-0.08,6.38" style="fill:none;stroke:#999;stroke-width:3" />
<path d="M1898.81,20.92c0.85,0.07,2.8,0.47,3.63,0.4c9.25-0.84,29.92-2.91,39.04-3.12c1.41-0.03,2.12,0.03,3.17,0.51" style="fill:none;stroke:#999;stroke-width:3" />
<path d="M1900.1,29.41c0.25,0.2,0.53,0.35,0.61,0.61c0.82,2.61,1.48,6.93,2.07,10.48" style="fill:none;stroke:#999;stroke-width:3" />
<path d="M1901.6399999999999,30.9c5.08-1.14,10.76-2.38,13.67-2.67c1.06-0.11,1.7,0.62,1.55,1.24c-0.63,2.56-0.87,4.57-1.8,8.11" style="fill:none;stroke:#999;stroke-width:3" />
<path d="M1902.9,39.1c3.08-0.25,7.69-1.09,11.92-1.47" style="fill:none;stroke:#999;stroke-width:3" />
<path d="M1923.0,26.64c0.25,0.21,0.51,0.39,0.62,0.66c0.87,2.11,1.49,7.92,2.08,11.7" style="fill:none;stroke:#999;stroke-width:3" />
<path d="M1924.56,28.07c5.11-1.1,12.98-2.31,15.91-2.59c1.07-0.1,1.71,0.6,1.56,1.19c-0.63,2.46-1.79,4.88-2.73,8.29" style="fill:none;stroke:#999;stroke-width:3" />
<path d="M1925.82,37.15c3.1-0.31,9.61-1.4,13.88-1.89" style="fill:none;stroke:#999;stroke-width:3" />
<path d="M1901.7,49.19c0.79,0.27,3.07,0.32,3.86,0.27c7.21-0.51,26.89-2.97,34.64-3.56c1.31-0.1,2.11,0.13,2.77,0.26" style="fill:none;stroke:#999;stroke-width:3" />
<path d="M1910.52,43.44c1.11,0.46,1.62,2.5,1.62,3.46c0,3.1,0.8,12.1,0.8,19.51" style="fill:none;stroke:#999;stroke-width:3" />
<path d="M1927.25,42.25c0.9,0.91,0.83,2,0.73,3.42c-0.39,5.58,0.42,11.83-0.12,18.96" style="fill:none;stroke:#999;stroke-width:3" />
<path d="M1901.82,58.05c0.84,0.36,3.27,0.44,4.12,0.36c7.68-0.7,24.13-2.52,32.38-3.33c1.4-0.14,2.24,0.17,2.95,0.35" style="fill:none;stroke:#999;stroke-width:3" />
<path d="M1896.73,68.24c1.31,0.29,3.71,0.41,5.02,0.29c11.98-1.08,31.91-4.06,43.92-4.21c2.18-0.03,3.49,0.14,4.58,0.29" style="fill:none;stroke:black;stroke-width:3" />
<circle cx="1896.73" cy="68.24" r="5" stroke-width="0" fill="#FF2A00" opacity="0.7" />
<path d="M1975.7,19.24c0.83,0.41,2.35,0.45,3.19,0.41c5.21-0.28,13.59-1.47,18.88-1.85c1.38-0.1,2.22,0.19,2.91,0.4" style="fill:none;stroke:#999;stroke-width:3" />
<path d="M1971.15,35.88c1.08,0.25,3.03,0.18,4.1,0.1c6.69-0.5,16.38-1.87,24.09-2.55c1.77-0.15,2.85,0.01,3.74,0.11" style="fill:none;stroke:#999;stroke-width:3" />
<path d="M1986.77,36.43c1.41,0.45,2.26,2,2.54,2.9c0.28,0.89,0,50.6-0.28,56.17" style="fill:none;stroke:#999;stroke-width:3" />
<path d="M1977.93,48.39c0.58,1.54,0.56,2.33,0.56,3.63c0,9.52-0.63,21.55-9.25,33.73" style="fill:none;stroke:#999;stroke-width:3" />
<path d="M1998.67,46.25c0.95,0.4,1.52,1.78,1.7,2.57c0.19,0.79,0,24.58-0.19,29.51" style="fill:none;stroke:#999;stroke-width:3" />
<path d="M2027.55,10c0.58,0.39,1.54,1.74,1.54,2.64c0,1.48-0.08,4.76-0.08,6.38" style="fill:none;stroke:#999;stroke-width:3" />
<path d="M2007.81,20.92c0.85,0.07,2.8,0.47,3.63,0.4c9.25-0.84,29.92-2.91,39.04-3.12c1.41-0.03,2.12,0.03,3.17,0.51" style="fill:none;stroke:#999;stroke-width:3" />
<path d="M2009.1,29.41c0.25,0.2,0.53,0.35,0.61,0.61c0.82,2.61,1.48,6.93,2.07,10.48" style="fill:none;stroke:#999;stroke-width:3" />
<path d="M2010.6399999999999,30.9c5.08-1.14,10.76-2.38,13.67-2.67c1.06-0.11,1.7,0.62,1.55,1.24c-0.63,2.56-0.87,4.57-1.8,8.11" style="fill:none;stroke:#999;stroke-width:3" />
<path d="M2011.9,39.1c3.08-0.25,7.69-1.09,11.92-1.47" style="fill:none;stroke:#999;stroke-width:3" />
<path d="M2032.0,26.64c0.25,0.21,0.51,0.39,0.62,0.66c0.87,2.11,1.49,7.92,2.08,11.7" style="fill:none;stroke:#999;stroke-width:3" />
<path d="M2033.56,28.07c5.11-1.1,12.98-2.31,15.91-2.59c1.07-0.1,1.71,0.6,1.56,1.19c-0.63,2.46-1.79,4.88-2.73,8.29" style="fill:none;stroke:#999;stroke-width:3" />
<path d="M2034.82,37.15c3.1-0.31,9.61-1.4,13.88-1.89" style="fill:none;stroke:#999;stroke-width:3" />
<path d="M2010.7,49.19c0.79,0.27,3.07,0.32,3.86,0.27c7.21-0.51,26.89-2.97,34.64-3.56c1.31-0.1,2.11,0.13,2.77,0.26" style="fill:none;stroke:#999;stroke-width:3" />
<path d="M2019.52,43.44c1.11,0.46,1.62,2.5,1.62,3.46c0,3.1,0.8,12.1,0.8,19.51" style="fill:none;stroke:#999;stroke-width:3" />
<path d="M2036.25,42.25c0.9,0.91,0.83,2,0.73,3.42c-0.39,5.58,0.42,11.83-0.12,18.96" style="fill:none;stroke:#999;stroke-width:3" />
<path d="M2010.82,58.05c0.84,0.36,3.27,0.44,4.12,0.36c7.68-0.7,24.13-2.52,32.38-3.33c1.4-0.14,2.24,0.17,2.95,0.35" style="fill:none;stroke:#999;stroke-width:3" />
<path d="M2005.73,68.24c1.31,0.29,3.71,0.41,5.02,0.29c11.98-1.08,31.91-4.06,43.92-4.21c2.18-0.03,3.49,0.14,4.58,0.29" style="fill:none;stroke:#999;stroke-width:3" />
<path d="M2024.3,67.64c0.07,0.42,0.25,1.13-0.13,1.7c-2.48,3.7-10.53,11.32-22.93,17.16" style="fill:none;stroke:black;stroke-width:3" />
<circle cx="2024.3" cy="67.64" r="5" stroke-width="0" fill="#FF2A00" opacity="0.7" />
<path d="M2084.7,19.24c0.83,0.41,2.35,0.45,3.19,0.41c5.21-0.28,13.59-1.47,18.88-1.85c1.38-0.1,2.22,0.19,2.91,0.4" style="fill:none;stroke:#999;stroke-width:3" />
<path d="M2080.15,35.88c1.08,0.25,3.03,0.18,4.1,0.1c6.69-0.5,16.38-1.87,24.09-2.55c1.77-0.15,2.85,0.01,3.74,0.11" style="fill:none;stroke:#999;stroke-width:3" />
<path d="M2095.77,36.43c1.41,0.45,2.26,2,2.54,2.9c0.28,0.89,0,50.6-0.28,56.17" style="fill:none;stroke:#999;stroke-width:3" />
<path d="M2086.9300000000003,48.39c0.58,1.54,0.56,2.33,0.56,3.63c0,9.52-0.63,21.55-9.25,33.73" style="fill:none;stroke:#999;stroke-width:3" />
<path d="M2107.67,46.25c0.95,0.4,1.52,1.78,1.7,2.57c0.19,0.79,0,24.58-0.19,29.51" style="fill:none;stroke:#999;stroke-width:3" />
<path d="M2136.55,10c0.58,0.39,1.54,1.74,1.54,2.64c0,1.48-0.08,4.76-0.08,6.38" style="fill:none;stroke:#999;stroke-width:3" />
<path d="M2116.81,20.92c0.85,0.07,2.8,0.47,3.63,0.4c9.25-0.84,29.92-2.91,39.04-3.12c1.41-0.03,2.12,0.03,3.17,0.51" style="fill:none;stroke:#999;stroke-width:3" />
<path d="M2118.1,29.41c0.25,0.2,0.53,0.35,0.61,0.61c0.82,2.61,1.48,6.93,2.07,10.48" style="fill:none;stroke:#999;stroke-width:3" />
<path d="M2119.64,30.9c5.08-1.14,10.76-2.38,13.67-2.67c1.06-0.11,1.7,0.62,1.55,1.24c-0.63,2.56-0.87,4.57-1.8,8.11" style="fill:none;stroke:#999;stroke-width:3" />
<path d="M2120.9,39.1c3.08-0.25,7.69-1.09,11.92-1.47" style="fill:none;stroke:#999;stroke-width:3" />
<path d="M2141.0,26.64c0.25,0.21,0.51,0.39,0.62,0.66c0.87,2.11,1.49,7.92,2.08,11.7" style="fill:none;stroke:#999;stroke-width:3" />
<path d="M2142.56,28.07c5.11-1.1,12.98-2.31,15.91-2.59c1.07-0.1,1.71,0.6,1.56,1.19c-0.63,2.46-1.79,4.88-2.73,8.29" style="fill:none;stroke:#999;stroke-width:3" />
<path d="M2143.8199999999997,37.15c3.1-0.31,9.61-1.4,13.88-1.89" style="fill:none;stroke:#999;stroke-width:3" />
<path d="M2119.7,49.19c0.79,0.27,3.07,0.32,3.86,0.27c7.21-0.51,26.89-2.97,34.64-3.56c1.31-0.1,2.11,0.13,2.77,0.26" style="fill:none;stroke:#999;stroke-width:3" />
<path d="M2128.52,43.44c1.11,0.46,1.62,2.5,1.62,3.46c0,3.1,0.8,12.1,0.8,19.51" style="fill:none;stroke:#999;stroke-width:3" />
<path d="M2145.25,42.25c0.9,0.91,0.83,2,0.73,3.42c-0.39,5.58,0.42,11.83-0.12,18.96" style="fill:none;stroke:#999;stroke-width:3" />
<path d="M2119.8199999999997,58.05c0.84,0.36,3.27,0.44,4.12,0.36c7.68-0.7,24.13-2.52,32.38-3.33c1.4-0.14,2.24,0.17,2.95,0.35" style="fill:none;stroke:#999;stroke-width:3" />
<path d="M2114.73,68.24c1.31,0.29,3.71,0.41,5.02,0.29c11.98-1.08,31.91-4.06,43.92-4.21c2.18-0.03,3.49,0.14,4.58,0.29" style="fill:none;stroke:#999;stroke-width:3" />
<path d="M2133.3,67.64c0.07,0.42,0.25,1.13-0.13,1.7c-2.48,3.7-10.53,11.32-22.93,17.16" style="fill:none;stroke:#999;stroke-width:3" />
<path d="M2126.94,78.4c0.37,0.28,0.77,1.51,0.77,2c-0.02,6.14-0.25,13.37-0.25,14.41c0,1.04,0.91,1.63,2.07,0.85c1.16-0.78,9.77-8.05,12.25-9.81" style="fill:none;stroke:black;stroke-width:3" />
<circle cx="2126.94" cy="78.4" r="5" stroke-width="0" fill="#FF2A00" opacity="0.7" />
<path d="M2193.7,19.24c0.83,0.41,2.35,0.45,3.19,0.41c5.21-0.28,13.59-1.47,18.88-1.85c1.38-0.1,2.22,0.19,2.91,0.4" style="fill:none;stroke:#999;stroke-width:3" />
<path d="M2189.15,35.88c1.08,0.25,3.03,0.18,4.1,0.1c6.69-0.5,16.38-1.87,24.09-2.55c1.77-0.15,2.85,0.01,3.74,0.11" style="fill:none;stroke:#999;stroke-width:3" />
<path d="M2204.77,36.43c1.41,0.45,2.26,2,2.54,2.9c0.28,0.89,0,50.6-0.28,56.17" style="fill:none;stroke:#999;stroke-width:3" />
<path d="M2195.9300000000003,48.39c0.58,1.54,0.56,2.33,0.56,3.63c0,9.52-0.63,21.55-9.25,33.73" style="fill:none;stroke:#999;stroke-width:3" />
<path d="M2216.67,46.25c0.95,0.4,1.52,1.78,1.7,2.57c0.19,0.79,0,24.58-0.19,29.51" style="fill:none;stroke:#999;stroke-width:3" />
<path d="M2245.55,10c0.58,0.39,1.54,1.74,1.54,2.64c0,1.48-0.08,4.76-0.08,6.38" style="fill:none;stroke:#999;stroke-width:3" />
<path d="M2225.81,20.92c0.85,0.07,2.8,0.47,3.63,0.4c9.25-0.84,29.92-2.91,39.04-3.12c1.41-0.03,2.12,0.03,3.17,0.51" style="fill:none;stroke:#999;stroke-width:3" />
<path d="M2227.1,29.41c0.25,0.2,0.53,0.35,0.61,0.61c0.82,2.61,1.48,6.93,2.07,10.48" style="fill:none;stroke:#999;stroke-width:3" />
<path d="M2228.64,30.9c5.08-1.14,10.76-2.38,13.67-2.67c1.06-0.11,1.7,0.62,1.55,1.24c-0.63,2.56-0.87,4.57-1.8,8.11" style="fill:none;stroke:#999;stroke-width:3" />
<path d="M2229.9,39.1c3.08-0.25,7.69-1.09,11.92-1.47" style="fill:none;stroke:#999;stroke-width:3" />
<path d="M2250.0,26.64c0.25,0.21,0.51,0.39,0.62,0.66c0.87,2.11,1.49,7.92,2.08,11.7" style="fill:none;stroke:#999;stroke-width:3" />
<path d="M2251.56,28.07c5.11-1.1,12.98-2.31,15.91-2.59c1.07-0.1,1.71,0.6,1.56,1.19c-0.63,2.46-1.79,4.88-2.73,8.29" style="fill:none;stroke:#999;stroke-width:3" />
<path d="M2252.8199999999997,37.15c3.1-0.31,9.61-1.4,13.88-1.89" style="fill:none;stroke:#999;stroke-width:3" />
<path d="M2228.7,49.19c0.79,0.27,3.07,0.32,3.86,0.27c7.21-0.51,26.89-2.97,34.64-3.56c1.31-0.1,2.11,0.13,2.77,0.26" style="fill:none;stroke:#999;stroke-width:3" />
<path d="M2237.52,43.44c1.11,0.46,1.62,2.5,1.62,3.46c0,3.1,0.8,12.1,0.8,19.51" style="fill:none;stroke:#999;stroke-width:3" />
<path d="M2254.25,42.25c0.9,0.91,0.83,2,0.73,3.42c-0.39,5.58,0.42,11.83-0.12,18.96" style="fill:none;stroke:#999;stroke-width:3" />
<path d="M2228.8199999999997,58.05c0.84,0.36,3.27,0.44,4.12,0.36c7.68-0.7,24.13-2.52,32.38-3.33c1.4-0.14,2.24,0.17,2.95,0.35" style="fill:none;stroke:#999;stroke-width:3" />
<path d="M2223.73,68.24c1.31,0.29,3.71,0.41,5.02,0.29c11.98-1.08,31.91-4.06,43.92-4.21c2.18-0.03,3.49,0.14,4.58,0.29" style="fill:none;stroke:#999;stroke-width:3" />
<path d="M2242.3,67.64c0.07,0.42,0.25,1.13-0.13,1.7c-2.48,3.7-10.53,11.32-22.93,17.16" style="fill:none;stroke:#999;stroke-width:3" />
<path d="M2235.94,78.4c0.37,0.28,0.77,1.51,0.77,2c-0.02,6.14-0.25,13.37-0.25,14.41c0,1.04,0.91,1.63,2.07,0.85c1.16-0.78,9.77-8.05,12.25-9.81" style="fill:none;stroke:#999;stroke-width:3" />
<path d="M2266.75,69.5c0.03,0.24-0.3,1.66-0.46,1.98c-1.02,1.99-3.61,4.32-8.79,8.27" style="fill:none;stroke:black;stroke-width:3" />
<circle cx="2266.75" cy="69.5" r="5" stroke-width="0" fill="#FF2A00" opacity="0.7" />
<path d="M2302.7,19.24c0.83,0.41,2.35,0.45,3.19,0.41c5.21-0.28,13.59-1.47,18.88-1.85c1.38-0.1,2.22,0.19,2.91,0.4" style="fill:none;stroke:#999;stroke-width:3" />
<path d="M2298.15,35.88c1.08,0.25,3.03,0.18,4.1,0.1c6.69-0.5,16.38-1.87,24.09-2.55c1.77-0.15,2.85,0.01,3.74,0.11" style="fill:none;stroke:#999;stroke-width:3" />
<path d="M2313.77,36.43c1.41,0.45,2.26,2,2.54,2.9c0.28,0.89,0,50.6-0.28,56.17" style="fill:none;stroke:#999;stroke-width:3" />
<path d="M2304.9300000000003,48.39c0.58,1.54,0.56,2.33,0.56,3.63c0,9.52-0.63,21.55-9.25,33.73" style="fill:none;stroke:#999;stroke-width:3" />
<path d="M2325.67,46.25c0.95,0.4,1.52,1.78,1.7,2.57c0.19,0.79,0,24.58-0.19,29.51" style="fill:none;stroke:#999;stroke-width:3" />
<path d="M2354.55,10c0.58,0.39,1.54,1.74,1.54,2.64c0,1.48-0.08,4.76-0.08,6.38" style="fill:none;stroke:#999;stroke-width:3" />
<path d="M2334.81,20.92c0.85,0.07,2.8,0.47,3.63,0.4c9.25-0.84,29.92-2.91,39.04-3.12c1.41-0.03,2.12,0.03,3.17,0.51" style="fill:none;stroke:#999;stroke-width:3" />
<path d="M2336.1,29.41c0.25,0.2,0.53,0.35,0.61,0.61c0.82,2.61,1.48,6.93,2.07,10.48" style="fill:none;stroke:#999;stroke-width:3" />
<path d="M2337.64,30.9c5.08-1.14,10.76-2.38,13.67-2.67c1.06-0.11,1.7,0.62,1.55,1.24c-0.63,2.56-0.87,4.57-1.8,8.11" style="fill:none;stroke:#999;stroke-width:3" />
<path d="M2338.9,39.1c3.08-0.25,7.69-1.09,11.92-1.47" style="fill:none;stroke:#999;stroke-width:3" />
<path d="M2359.0,26.64c0.25,0.21,0.51,0.39,0.62,0.66c0.87,2.11,1.49,7.92,2.08,11.7" style="fill:none;stroke:#999;stroke-width:3" />
<path d="M2360.56,28.07c5.11-1.1,12.98-2.31,15.91-2.59c1.07-0.1,1.71,0.6,1.56,1.19c-0.63,2.46-1.79,4.88-2.73,8.29" style="fill:none;stroke:#999;stroke-width:3" />
<path d="M2361.8199999999997,37.15c3.1-0.31,9.61-1.4,13.88-1.89" style="fill:none;stroke:#999;stroke-width:3" />
<path d="M2337.7,49.19c0.79,0.27,3.07,0.32,3.86,0.27c7.21-0.51,26.89-2.97,34.64-3.56c1.31-0.1,2.11,0.13,2.77,0.26" style="fill:none;stroke:#999;stroke-width:3" />
<path d="M2346.52,43.44c1.11,0.46,1.62,2.5,1.62,3.46c0,3.1,0.8,12.1,0.8,19.51" style="fill:none;stroke:#999;stroke-width:3" />
<path d="M2363.25,42.25c0.9,0.91,0.83,2,0.73,3.42c-0.39,5.58,0.42,11.83-0.12,18.96" style="fill:none;stroke:#999;stroke-width:3" />
<path d="M2337.8199999999997,58.05c0.84,0.36,3.27,0.44,4.12,0.36c7.68-0.7,24.13-2.52,32.38-3.33c1.4-0.14,2.24,0.17,2.95,0.35" style="fill:none;stroke:#999;stroke-width:3" />
<path d="M2332.73,68.24c1.31,0.29,3.71,0.41,5.02,0.29c11.98-1.08,31.91-4.06,43.92-4.21c2.18-0.03,3.49,0.14,4.58,0.29" style="fill:none;stroke:#999;stroke-width:3" />
<path d="M2351.3,67.64c0.07,0.42,0.25,1.13-0.13,1.7c-2.48,3.7-10.53,11.32-22.93,17.16" style="fill:none;stroke:#999;stroke-width:3" />
<path d="M2344.94,78.4c0.37,0.28,0.77,1.51,0.77,2c-0.02,6.14-0.25,13.37-0.25,14.41c0,1.04,0.91,1.63,2.07,0.85c1.16-0.78,9.77-8.05,12.25-9.81" style="fill:none;stroke:#999;stroke-width:3" />
<path d="M2375.75,69.5c0.03,0.24-0.3,1.66-0.46,1.98c-1.02,1.99-3.61,4.32-8.79,8.27" style="fill:none;stroke:#999;stroke-width:3" />
<path d="M2354.08,68.66c1.32,0.81,3.42,3.09,3.79,3.44c5.38,5.1,18.46,18.11,22.1,21.11c1.37,1.13,2.54,1.62,3.91,1.94" style="fill:none;stroke:black;stroke-width:3" />
<circle cx="2354.08" cy="68.66" r="5" stroke-width="0" fill="#FF2A00" opacity="0.7" />
</svg>