<!-- 079c1 -->
<svg width="763px" height="109px" viewBox="0 0 763px 109px" xmlns="http://www.w3.org/2000/svg" xmlns:xlink="http://www.w3.org/1999/xlink" xml:space="preserve" version="1.1"  baseProfile="full">
<line x1="1" y1="1" x2="762" y2="1" style="stroke:#ddd;stroke-width:2" />
<line x1="1" y1="1" x2="1" y2="108" style="stroke:#ddd;stroke-width:2" />
<line x1="1" y1="108" x2="762" y2="108" style="stroke:#ddd;stroke-width:2" />
<line x1="762" y1="1" x2="762" y2="108" style="stroke:#ddd;stroke-width:2" />
<line x1="109" y1="1" x2="109" y2="108" style="stroke:#ddd;stroke-width:2" />
<line x1="218" y1="1" x2="218" y2="108" style="stroke:#ddd;stroke-width:2" />
<line x1="327" y1="1" x2="327" y2="108" style="stroke:#ddd;stroke-width:2" />
<line x1="436" y1="1" x2="436" y2="108" style="stroke:#ddd;stroke-width:2" />
<line x1="545" y1="1" x2="545" y2="108" style="stroke:#ddd;stroke-width:2" />
<line x1="654" y1="1" x2="654" y2="108" style="stroke:#ddd;stroke-width:2" />
<line x1="1" y1="54" x2="762" y2="54" style="stroke:#ddd;stroke-width:2;stroke-dasharray:3 3" />
<line x1="55" y1="1" x2="55" y2="108" style="stroke:#ddd;stroke-width:2;stroke-dasharray:3 3" />
<line x1="164" y1="1" x2="164" y2="108" style="stroke:#ddd;stroke-width:2;stroke-dasharray:3 3" />
<line x1="273" y1="1" x2="273" y2="108" style="stroke:#ddd;stroke-width:2;stroke-dasharray:3 3" />
<line x1="382" y1="1" x2="382" y2="108" style="stroke:#ddd;stroke-width:2;stroke-dasharray:3 3" />
<line x1="491" y1="1" x2="491" y2="108" style="stroke:#ddd;stroke-width:2;stroke-dasharray:3 3" />
<line x1="600" y1="1" x2="600" y2="108" style="stroke:#ddd;stroke-width:2;stroke-dasharray:3 3" />
<line x1="709" y1="1" x2="709" y2="108" style="stroke:#ddd;stroke-width:2;stroke-dasharray:3 3" />
<path d="M45.24,13.5c0.01,1-0.5,2.25-1.43,2.99C39.75,19.75 31.75,23.88 18.75,29" style="fill:none;stroke:black;stroke-width:3" />
<circle cx="45.24" cy="13.5" r="5" stroke-width="0" fill="#FF2A00" opacity="0.7" />
<path d="M154.24,13.5c0.01,1-0.5,2.25-1.43,2.99C148.75,19.75 140.75,23.88 127.75,29" style="fill:none;stroke:#999;stroke-width:3" />
<path d="M120.62,44.6c2.63,0.78,5.51,0.5,7.28,0.17c9.98-1.89,22.62-3.29,30.72-4.06c1.29-0.12,3.13-0.21,4.36,0.12" style="fill:none;stroke:black;stroke-width:3" />
<circle cx="120.62" cy="44.6" r="5" stroke-width="0" fill="#FF2A00" opacity="0.7" />
<path d="M263.24,13.5c0.01,1-0.5,2.25-1.43,2.99C257.75,19.75 249.75,23.88 236.75,29" style="fill:none;stroke:#999;stroke-width:3" />
<path d="M229.62,44.6c2.63,0.78,5.51,0.5,7.28,0.17c9.98-1.89,22.62-3.29,30.72-4.06c1.29-0.12,3.13-0.21,4.36,0.12" style="fill:none;stroke:#999;stroke-width:3" />
<path d="M254.07999999999998,26.66c0.95,0.95,1.41,2.84,1.41,4.69c0,3.83,0,40.18-0.04,55.4c-0.01,3.25-0.02,5.59-0.03,6.5" style="fill:none;stroke:black;stroke-width:3" />
<circle cx="254.07999999999998" cy="26.66" r="5" stroke-width="0" fill="#FF2A00" opacity="0.7" />
<path d="M372.24,13.5c0.01,1-0.5,2.25-1.43,2.99C366.75,19.75 358.75,23.88 345.75,29" style="fill:none;stroke:#999;stroke-width:3" />
<path d="M338.62,44.6c2.63,0.78,5.51,0.5,7.28,0.17c9.98-1.89,22.62-3.29,30.72-4.06c1.29-0.12,3.13-0.21,4.36,0.12" style="fill:none;stroke:#999;stroke-width:3" />
<path d="M363.08,26.66c0.95,0.95,1.41,2.84,1.41,4.69c0,3.83,0,40.18-0.04,55.4c-0.01,3.25-0.02,5.59-0.03,6.5" style="fill:none;stroke:#999;stroke-width:3" />
<path d="M362.93,43.47c0,1.03-0.71,2.97-1.36,4.2C356.27,57.83 348.15,69.5 337.5,77.5" style="fill:none;stroke:black;stroke-width:3" />
<circle cx="362.93" cy="43.47" r="5" stroke-width="0" fill="#FF2A00" opacity="0.7" />
<path d="M481.24,13.5c0.01,1-0.5,2.25-1.43,2.99C475.75,19.75 467.75,23.88 454.75,29" style="fill:none;stroke:#999;stroke-width:3" />
<path d="M447.62,44.6c2.63,0.78,5.51,0.5,7.28,0.17c9.98-1.89,22.62-3.29,30.72-4.06c1.29-0.12,3.13-0.21,4.36,0.12" style="fill:none;stroke:#999;stroke-width:3" />
<path d="M472.08,26.66c0.95,0.95,1.41,2.84,1.41,4.69c0,3.83,0,40.18-0.04,55.4c-0.01,3.25-0.02,5.59-0.03,6.5" style="fill:none;stroke:#999;stroke-width:3" />
<path d="M471.93,43.47c0,1.03-0.71,2.97-1.36,4.2C465.27,57.83 457.15,69.5 446.5,77.5" style="fill:none;stroke:#999;stroke-width:3" />
<path d="M477.0,49.75c4.4,2.51,8.13,7.52,10.5,10.75" style="fill:none;stroke:black;stroke-width:3" />
<circle cx="477.0" cy="49.75" r="5" stroke-width="0" fill="#FF2A00" opacity="0.7" />
<path d="M590.24,13.5c0.01,1-0.5,2.25-1.43,2.99C584.75,19.75 576.75,23.88 563.75,29" style="fill:none;stroke:#999;stroke-width:3" />
<path d="M556.62,44.6c2.63,0.78,5.51,0.5,7.28,0.17c9.98-1.89,22.62-3.29,30.72-4.06c1.29-0.12,3.13-0.21,4.36,0.12" style="fill:none;stroke:#999;stroke-width:3" />
<path d="M581.0799999999999,26.66c0.95,0.95,1.41,2.84,1.41,4.69c0,3.83,0,40.18-0.04,55.4c-0.01,3.25-0.02,5.59-0.03,6.5" style="fill:none;stroke:#999;stroke-width:3" />
<path d="M580.9300000000001,43.47c0,1.03-0.71,2.97-1.36,4.2C574.27,57.83 566.15,69.5 555.5,77.5" style="fill:none;stroke:#999;stroke-width:3" />
<path d="M586.0,49.75c4.4,2.51,8.13,7.52,10.5,10.75" style="fill:none;stroke:#999;stroke-width:3" />
<path d="M618.3,31.9c0.32,1.22,0.34,2.31-0.06,3.51C613.25,50.5 604.75,65.25 597.08,78.31c-2.12,3.61-1.6,5.03,1.88,3.89C611.0,78.25 621.62,74.12 633.28,69.98" style="fill:none;stroke:black;stroke-width:3" />
<circle cx="618.3" cy="31.9" r="5" stroke-width="0" fill="#FF2A00" opacity="0.7" />
<path d="M699.24,13.5c0.01,1-0.5,2.25-1.43,2.99C693.75,19.75 685.75,23.88 672.75,29" style="fill:none;stroke:#999;stroke-width:3" />
<path d="M665.62,44.6c2.63,0.78,5.51,0.5,7.28,0.17c9.98-1.89,22.62-3.29,30.72-4.06c1.29-0.12,3.13-0.21,4.36,0.12" style="fill:none;stroke:#999;stroke-width:3" />
<path d="M690.0799999999999,26.66c0.95,0.95,1.41,2.84,1.41,4.69c0,3.83,0,40.18-0.04,55.4c-0.01,3.25-0.02,5.59-0.03,6.5" style="fill:none;stroke:#999;stroke-width:3" />
<path d="M689.9300000000001,43.47c0,1.03-0.71,2.97-1.36,4.2C683.27,57.83 675.15,69.5 664.5,77.5" style="fill:none;stroke:#999;stroke-width:3" />
<path d="M695.0,49.75c4.4,2.51,8.13,7.52,10.5,10.75" style="fill:none;stroke:#999;stroke-width:3" />
<path d="M727.3,31.9c0.32,1.22,0.34,2.31-0.06,3.51C722.25,50.5 713.75,65.25 706.08,78.31c-2.12,3.61-1.6,5.03,1.88,3.89C720.0,78.25 730.62,74.12 742.28,69.98" style="fill:none;stroke:#999;stroke-width:3" />
<path d="M736.81,60.54c4.45,4.37,11.49,17.97,12.61,24.77" style="fill:none;stroke:black;stroke-width:3" />
<circle cx="736.81" cy="60.54" r="5" stroke-width="0" fill="#FF2A00" opacity="0.7" />
</svg>