<!-- 079d2 -->
<svg width="981px" height="109px" viewBox="0 0 981px 109px" xmlns="http://www.w3.org/2000/svg" xmlns:xlink="http://www.w3.org/1999/xlink" xml:space="preserve" version="1.1"  baseProfile="full">
<line x1="1" y1="1" x2="980" y2="1" style="stroke:#ddd;stroke-width:2" />
<line x1="1" y1="1" x2="1" y2="108" style="stroke:#ddd;stroke-width:2" />
<line x1="1" y1="108" x2="980" y2="108" style="stroke:#ddd;stroke-width:2" />
<line x1="980" y1="1" x2="980" y2="108" style="stroke:#ddd;stroke-width:2" />
<line x1="109" y1="1" x2="109" y2="108" style="stroke:#ddd;stroke-width:2" />
<line x1="218" y1="1" x2="218" y2="108" style="stroke:#ddd;stroke-width:2" />
<line x1="327" y1="1" x2="327" y2="108" style="stroke:#ddd;stroke-width:2" />
<line x1="436" y1="1" x2="436" y2="108" style="stroke:#ddd;stroke-width:2" />
<line x1="545" y1="1" x2="545" y2="108" style="stroke:#ddd;stroke-width:2" />
<line x1="654" y1="1" x2="654" y2="108" style="stroke:#ddd;stroke-width:2" />
<line x1="763" y1="1" x2="763" y2="108" style="stroke:#ddd;stroke-width:2" />
<line x1="872" y1="1" x2="872" y2="108" style="stroke:#ddd;stroke-width:2" />
<line x1="1" y1="54" x2="980" y2="54" style="stroke:#ddd;stroke-width:2;stroke-dasharray:3 3" />
<line x1="55" y1="1" x2="55" y2="108" style="stroke:#ddd;stroke-width:2;stroke-dasharray:3 3" />
<line x1="164" y1="1" x2="164" y2="108" style="stroke:#ddd;stroke-width:2;stroke-dasharray:3 3" />
<line x1="273" y1="1" x2="273" y2="108" style="stroke:#ddd;stroke-width:2;stroke-dasharray:3 3" />
<line x1="382" y1="1" x2="382" y2="108" style="stroke:#ddd;stroke-width:2;stroke-dasharray:3 3" />
<line x1="491" y1="1" x2="491" y2="108" style="stroke:#ddd;stroke-width:2;stroke-dasharray:3 3" />
<line x1="600" y1="1" x2="600" y2="108" style="stroke:#ddd;stroke-width:2;stroke-dasharray:3 3" />
<line x1="709" y1="1" x2="709" y2="108" style="stroke:#ddd;stroke-width:2;stroke-dasharray:3 3" />
<line x1="818" y1="1" x2="818" y2="108" style="stroke:#ddd;stroke-width:2;stroke-dasharray:3 3" />
<line x1="927" y1="1" x2="927" y2="108" style="stroke:#ddd;stroke-width:2;stroke-dasharray:3 3" />
<path d="M43.0,12.75c-0.12,1-0.61,1.87-1.27,2.56c-3.07,3.27-13.91,8.58-26.61,12.44" style="fill:none;stroke:black;stroke-width:3" />
<circle cx="43.0" cy="12.75" r="5" stroke-width="0" fill="#FF2A00" opacity="0.7" />
<path d="M152.0,12.75c-0.12,1-0.61,1.87-1.27,2.56c-3.07,3.27-13.91,8.58-26.61,12.44" style="fill:none;stroke:#999;stroke-width:3" />
<path d="M122.37,42.85c2.26,0.4,5.11-0.01,6.67-0.19c6.53-0.78,17.81-2.81,24.6-3.87c1.39-0.22,3.43-0.43,4.84,0.04" style="fill:none;stroke:black;stroke-width:3" />
<circle cx="122.37" cy="42.85" r="5" stroke-width="0" fill="#FF2A00" opacity="0.7" />
<path d="M261.0,12.75c-0.12,1-0.61,1.87-1.27,2.56c-3.07,3.27-13.91,8.58-26.61,12.44" style="fill:none;stroke:#999;stroke-width:3" />
<path d="M231.37,42.85c2.26,0.4,5.11-0.01,6.67-0.19c6.53-0.78,17.81-2.81,24.6-3.87c1.39-0.22,3.43-0.43,4.84,0.04" style="fill:none;stroke:#999;stroke-width:3" />
<path d="M251.32999999999998,23.91c0.7,0.7,1.16,2.22,1.16,3.2c0.06,0.79,0.02,43.22-0.03,62.02c-0.01,4.47-0.03,7.63-0.04,8.62" style="fill:none;stroke:black;stroke-width:3" />
<circle cx="251.32999999999998" cy="23.91" r="5" stroke-width="0" fill="#FF2A00" opacity="0.7" />
<path d="M370.0,12.75c-0.12,1-0.61,1.87-1.27,2.56c-3.07,3.27-13.91,8.58-26.61,12.44" style="fill:none;stroke:#999;stroke-width:3" />
<path d="M340.37,42.85c2.26,0.4,5.11-0.01,6.67-0.19c6.53-0.78,17.81-2.81,24.6-3.87c1.39-0.22,3.43-0.43,4.84,0.04" style="fill:none;stroke:#999;stroke-width:3" />
<path d="M360.33,23.91c0.7,0.7,1.16,2.22,1.16,3.2c0.06,0.79,0.02,43.22-0.03,62.02c-0.01,4.47-0.03,7.63-0.04,8.62" style="fill:none;stroke:#999;stroke-width:3" />
<path d="M360.43,41.47c0,1.53-0.3,2.63-0.72,3.62c-4.52,10.68-11.6,23.18-20.96,31.66" style="fill:none;stroke:black;stroke-width:3" />
<circle cx="360.43" cy="41.47" r="5" stroke-width="0" fill="#FF2A00" opacity="0.7" />
<path d="M479.0,12.75c-0.12,1-0.61,1.87-1.27,2.56c-3.07,3.27-13.91,8.58-26.61,12.44" style="fill:none;stroke:#999;stroke-width:3" />
<path d="M449.37,42.85c2.26,0.4,5.11-0.01,6.67-0.19c6.53-0.78,17.81-2.81,24.6-3.87c1.39-0.22,3.43-0.43,4.84,0.04" style="fill:none;stroke:#999;stroke-width:3" />
<path d="M469.33,23.91c0.7,0.7,1.16,2.22,1.16,3.2c0.06,0.79,0.02,43.22-0.03,62.02c-0.01,4.47-0.03,7.63-0.04,8.62" style="fill:none;stroke:#999;stroke-width:3" />
<path d="M469.43,41.47c0,1.53-0.3,2.63-0.72,3.62c-4.52,10.68-11.6,23.18-20.96,31.66" style="fill:none;stroke:#999;stroke-width:3" />
<path d="M473.25,50.75c3.56,2.33,6.58,7,8.5,10" style="fill:none;stroke:black;stroke-width:3" />
<circle cx="473.25" cy="50.75" r="5" stroke-width="0" fill="#FF2A00" opacity="0.7" />
<path d="M588.0,12.75c-0.12,1-0.61,1.87-1.27,2.56c-3.07,3.27-13.91,8.58-26.61,12.44" style="fill:none;stroke:#999;stroke-width:3" />
<path d="M558.37,42.85c2.26,0.4,5.11-0.01,6.67-0.19c6.53-0.78,17.81-2.81,24.6-3.87c1.39-0.22,3.43-0.43,4.84,0.04" style="fill:none;stroke:#999;stroke-width:3" />
<path d="M578.3299999999999,23.91c0.7,0.7,1.16,2.22,1.16,3.2c0.06,0.79,0.02,43.22-0.03,62.02c-0.01,4.47-0.03,7.63-0.04,8.62" style="fill:none;stroke:#999;stroke-width:3" />
<path d="M578.4300000000001,41.47c0,1.53-0.3,2.63-0.72,3.62c-4.52,10.68-11.6,23.18-20.96,31.66" style="fill:none;stroke:#999;stroke-width:3" />
<path d="M582.25,50.75c3.56,2.33,6.58,7,8.5,10" style="fill:none;stroke:#999;stroke-width:3" />
<path d="M617.11,15.25c1.01,1.01,1.46,2.25,1.46,3.96c0,10.67-0.2,33.54-0.2,37.04c0,8.5-5.53,0.51-6.69-0.33" style="fill:none;stroke:black;stroke-width:3" />
<circle cx="617.11" cy="15.25" r="5" stroke-width="0" fill="#FF2A00" opacity="0.7" />
<path d="M697.0,12.75c-0.12,1-0.61,1.87-1.27,2.56c-3.07,3.27-13.91,8.58-26.61,12.44" style="fill:none;stroke:#999;stroke-width:3" />
<path d="M667.37,42.85c2.26,0.4,5.11-0.01,6.67-0.19c6.53-0.78,17.81-2.81,24.6-3.87c1.39-0.22,3.43-0.43,4.84,0.04" style="fill:none;stroke:#999;stroke-width:3" />
<path d="M687.3299999999999,23.91c0.7,0.7,1.16,2.22,1.16,3.2c0.06,0.79,0.02,43.22-0.03,62.02c-0.01,4.47-0.03,7.63-0.04,8.62" style="fill:none;stroke:#999;stroke-width:3" />
<path d="M687.4300000000001,41.47c0,1.53-0.3,2.63-0.72,3.62c-4.52,10.68-11.6,23.18-20.96,31.66" style="fill:none;stroke:#999;stroke-width:3" />
<path d="M691.25,50.75c3.56,2.33,6.58,7,8.5,10" style="fill:none;stroke:#999;stroke-width:3" />
<path d="M726.11,15.25c1.01,1.01,1.46,2.25,1.46,3.96c0,10.67-0.2,33.54-0.2,37.04c0,8.5-5.53,0.51-6.69-0.33" style="fill:none;stroke:#999;stroke-width:3" />
<path d="M715.7,33.69c0.03,0.45,0.13,1.18-0.07,1.81c-1.4,4.49-6.41,12.65-11.21,16.79" style="fill:none;stroke:black;stroke-width:3" />
<circle cx="715.7" cy="33.69" r="5" stroke-width="0" fill="#FF2A00" opacity="0.7" />
<path d="M806.0,12.75c-0.12,1-0.61,1.87-1.27,2.56c-3.07,3.27-13.91,8.58-26.61,12.44" style="fill:none;stroke:#999;stroke-width:3" />
<path d="M776.37,42.85c2.26,0.4,5.11-0.01,6.67-0.19c6.53-0.78,17.81-2.81,24.6-3.87c1.39-0.22,3.43-0.43,4.84,0.04" style="fill:none;stroke:#999;stroke-width:3" />
<path d="M796.3299999999999,23.91c0.7,0.7,1.16,2.22,1.16,3.2c0.06,0.79,0.02,43.22-0.03,62.02c-0.01,4.47-0.03,7.63-0.04,8.62" style="fill:none;stroke:#999;stroke-width:3" />
<path d="M796.4300000000001,41.47c0,1.53-0.3,2.63-0.72,3.62c-4.52,10.68-11.6,23.18-20.96,31.66" style="fill:none;stroke:#999;stroke-width:3" />
<path d="M800.25,50.75c3.56,2.33,6.58,7,8.5,10" style="fill:none;stroke:#999;stroke-width:3" />
<path d="M835.11,15.25c1.01,1.01,1.46,2.25,1.46,3.96c0,10.67-0.2,33.54-0.2,37.04c0,8.5-5.53,0.51-6.69-0.33" style="fill:none;stroke:#999;stroke-width:3" />
<path d="M824.7,33.69c0.03,0.45,0.13,1.18-0.07,1.81c-1.4,4.49-6.41,12.65-11.21,16.79" style="fill:none;stroke:#999;stroke-width:3" />
<path d="M849.6800000000001,30.98c4.47,2.95,10.46,10.53,11.57,15.12" style="fill:none;stroke:black;stroke-width:3" />
<circle cx="849.6800000000001" cy="30.98" r="5" stroke-width="0" fill="#FF2A00" opacity="0.7" />
<path d="M915.0,12.75c-0.12,1-0.61,1.87-1.27,2.56c-3.07,3.27-13.91,8.58-26.61,12.44" style="fill:none;stroke:#999;stroke-width:3" />
<path d="M885.37,42.85c2.26,0.4,5.11-0.01,6.67-0.19c6.53-0.78,17.81-2.81,24.6-3.87c1.39-0.22,3.43-0.43,4.84,0.04" style="fill:none;stroke:#999;stroke-width:3" />
<path d="M905.3299999999999,23.91c0.7,0.7,1.16,2.22,1.16,3.2c0.06,0.79,0.02,43.22-0.03,62.02c-0.01,4.47-0.03,7.63-0.04,8.62" style="fill:none;stroke:#999;stroke-width:3" />
<path d="M905.4300000000001,41.47c0,1.53-0.3,2.63-0.72,3.62c-4.52,10.68-11.6,23.18-20.96,31.66" style="fill:none;stroke:#999;stroke-width:3" />
<path d="M909.25,50.75c3.56,2.33,6.58,7,8.5,10" style="fill:none;stroke:#999;stroke-width:3" />
<path d="M944.11,15.25c1.01,1.01,1.46,2.25,1.46,3.96c0,10.67-0.2,33.54-0.2,37.04c0,8.5-5.53,0.51-6.69-0.33" style="fill:none;stroke:#999;stroke-width:3" />
<path d="M933.7,33.69c0.03,0.45,0.13,1.18-0.07,1.81c-1.4,4.49-6.41,12.65-11.21,16.79" style="fill:none;stroke:#999;stroke-width:3" />
<path d="M958.6800000000001,30.98c4.47,2.95,10.46,10.53,11.57,15.12" style="fill:none;stroke:#999;stroke-width:3" />
<path d="M958.55,48.47c0.1,1.15,0.07,2.99-0.46,4.61c-4.46,13.67-19.71,33.54-37.61,43.67" style="fill:none;stroke:black;stroke-width:3" />
<circle cx="958.55" cy="48.47" r="5" stroke-width="0" fill="#FF2A00" opacity="0.7" />
</svg>