<!-- 07a37 -->
<svg width="1635px" height="109px" viewBox="0 0 1635px 109px" xmlns="http://www.w3.org/2000/svg" xmlns:xlink="http://www.w3.org/1999/xlink" xml:space="preserve" version="1.1"  baseProfile="full">
<line x1="1" y1="1" x2="1634" y2="1" style="stroke:#ddd;stroke-width:2" />
<line x1="1" y1="1" x2="1" y2="108" style="stroke:#ddd;stroke-width:2" />
<line x1="1" y1="108" x2="1634" y2="108" style="stroke:#ddd;stroke-width:2" />
<line x1="1634" y1="1" x2="1634" y2="108" style="stroke:#ddd;stroke-width:2" />
<line x1="109" y1="1" x2="109" y2="108" style="stroke:#ddd;stroke-width:2" />
<line x1="218" y1="1" x2="218" y2="108" style="stroke:#ddd;stroke-width:2" />
<line x1="327" y1="1" x2="327" y2="108" style="stroke:#ddd;stroke-width:2" />
<line x1="436" y1="1" x2="436" y2="108" style="stroke:#ddd;stroke-width:2" />
<line x1="545" y1="1" x2="545" y2="108" style="stroke:#ddd;stroke-width:2" />
<line x1="654" y1="1" x2="654" y2="108" style="stroke:#ddd;stroke-width:2" />
<line x1="763" y1="1" x2="763" y2="108" style="stroke:#ddd;stroke-width:2" />
<line x1="872" y1="1" x2="872" y2="108" style="stroke:#ddd;stroke-width:2" />
<line x1="981" y1="1" x2="981" y2="108" style="stroke:#ddd;stroke-width:2" />
<line x1="1090" y1="1" x2="1090" y2="108" style="stroke:#ddd;stroke-width:2" />
<line x1="1199" y1="1" x2="1199" y2="108" style="stroke:#ddd;stroke-width:2" />
<line x1="1308" y1="1" x2="1308" y2="108" style="stroke:#ddd;stroke-width:2" />
<line x1="1417" y1="1" x2="1417" y2="108" style="stroke:#ddd;stroke-width:2" />
<line x1="1526" y1="1" x2="1526" y2="108" style="stroke:#ddd;stroke-width:2" />
<line x1="1" y1="54" x2="1634" y2="54" style="stroke:#ddd;stroke-width:2;stroke-dasharray:3 3" />
<line x1="55" y1="1" x2="55" y2="108" style="stroke:#ddd;stroke-width:2;stroke-dasharray:3 3" />
<line x1="164" y1="1" x2="164" y2="108" style="stroke:#ddd;stroke-width:2;stroke-dasharray:3 3" />
<line x1="273" y1="1" x2="273" y2="108" style="stroke:#ddd;stroke-width:2;stroke-dasharray:3 3" />
<line x1="382" y1="1" x2="382" y2="108" style="stroke:#ddd;stroke-width:2;stroke-dasharray:3 3" />
<line x1="491" y1="1" x2="491" y2="108" style="stroke:#ddd;stroke-width:2;stroke-dasharray:3 3" />
<line x1="600" y1="1" x2="600" y2="108" style="stroke:#ddd;stroke-width:2;stroke-dasharray:3 3" />
<line x1="709" y1="1" x2="709" y2="108" style="stroke:#ddd;stroke-width:2;stroke-dasharray:3 3" />
<line x1="818" y1="1" x2="818" y2="108" style="stroke:#ddd;stroke-width:2;stroke-dasharray:3 3" />
<line x1="927" y1="1" x2="927" y2="108" style="stroke:#ddd;stroke-width:2;stroke-dasharray:3 3" />
<line x1="1036" y1="1" x2="1036" y2="108" style="stroke:#ddd;stroke-width:2;stroke-dasharray:3 3" />
<line x1="1145" y1="1" x2="1145" y2="108" style="stroke:#ddd;stroke-width:2;stroke-dasharray:3 3" />
<line x1="1254" y1="1" x2="1254" y2="108" style="stroke:#ddd;stroke-width:2;stroke-dasharray:3 3" />
<line x1="1363" y1="1" x2="1363" y2="108" style="stroke:#ddd;stroke-width:2;stroke-dasharray:3 3" />
<line x1="1472" y1="1" x2="1472" y2="108" style="stroke:#ddd;stroke-width:2;stroke-dasharray:3 3" />
<line x1="1581" y1="1" x2="1581" y2="108" style="stroke:#ddd;stroke-width:2;stroke-dasharray:3 3" />
<path d="M38.25,17.25c0.07,0.34,0.14,0.87-0.14,1.35C36.48,21.44 28.0,25.5 14.25,30.5" style="fill:none;stroke:black;stroke-width:3" />
<circle cx="38.25" cy="17.25" r="5" stroke-width="0" fill="#FF2A00" opacity="0.7" />
<path d="M147.25,17.25c0.07,0.34,0.14,0.87-0.14,1.35C145.48,21.44 137.0,25.5 123.25,30.5" style="fill:none;stroke:#999;stroke-width:3" />
<path d="M121.87,44.77c0.32,0.13,1.19,0.34,2.05,0.38c2.37,0.13,21.77-1.92,27.7-2.56c0.86-0.09,1.08-0.13,1.62,0" style="fill:none;stroke:black;stroke-width:3" />
<circle cx="121.87" cy="44.77" r="5" stroke-width="0" fill="#FF2A00" opacity="0.7" />
<path d="M256.25,17.25c0.07,0.34,0.14,0.87-0.14,1.35C254.48,21.44 246.0,25.5 232.25,30.5" style="fill:none;stroke:#999;stroke-width:3" />
<path d="M230.87,44.77c0.32,0.13,1.19,0.34,2.05,0.38c2.37,0.13,21.77-1.92,27.7-2.56c0.86-0.09,1.08-0.13,1.62,0" style="fill:none;stroke:#999;stroke-width:3" />
<path d="M247.82,27.16c0.37,0.42,0.6,1.91,0.67,2.76c0.08,0.85,0,60.27-0.07,65.58" style="fill:none;stroke:black;stroke-width:3" />
<circle cx="247.82" cy="27.16" r="5" stroke-width="0" fill="#FF2A00" opacity="0.7" />
<path d="M365.25,17.25c0.07,0.34,0.14,0.87-0.14,1.35C363.48,21.44 355.0,25.5 341.25,30.5" style="fill:none;stroke:#999;stroke-width:3" />
<path d="M339.87,44.77c0.32,0.13,1.19,0.34,2.05,0.38c2.37,0.13,21.77-1.92,27.7-2.56c0.86-0.09,1.08-0.13,1.62,0" style="fill:none;stroke:#999;stroke-width:3" />
<path d="M356.82,27.16c0.37,0.42,0.6,1.91,0.67,2.76c0.08,0.85,0,60.27-0.07,65.58" style="fill:none;stroke:#999;stroke-width:3" />
<path d="M357.43,46.47C353.9,57.29 348.0,70.65 340.0,79.5" style="fill:none;stroke:black;stroke-width:3" />
<circle cx="357.43" cy="46.47" r="5" stroke-width="0" fill="#FF2A00" opacity="0.7" />
<path d="M474.25,17.25c0.07,0.34,0.14,0.87-0.14,1.35C472.48,21.44 464.0,25.5 450.25,30.5" style="fill:none;stroke:#999;stroke-width:3" />
<path d="M448.87,44.77c0.32,0.13,1.19,0.34,2.05,0.38c2.37,0.13,21.77-1.92,27.7-2.56c0.86-0.09,1.08-0.13,1.62,0" style="fill:none;stroke:#999;stroke-width:3" />
<path d="M465.82,27.16c0.37,0.42,0.6,1.91,0.67,2.76c0.08,0.85,0,60.27-0.07,65.58" style="fill:none;stroke:#999;stroke-width:3" />
<path d="M466.43,46.47C462.9,57.29 457.0,70.65 449.0,79.5" style="fill:none;stroke:#999;stroke-width:3" />
<path d="M469.0,53.75c3.77,2.33,6.97,7,9,10" style="fill:none;stroke:black;stroke-width:3" />
<circle cx="469.0" cy="53.75" r="5" stroke-width="0" fill="#FF2A00" opacity="0.7" />
<path d="M583.25,17.25c0.07,0.34,0.14,0.87-0.14,1.35C581.48,21.44 573.0,25.5 559.25,30.5" style="fill:none;stroke:#999;stroke-width:3" />
<path d="M557.87,44.77c0.32,0.13,1.19,0.34,2.05,0.38c2.37,0.13,21.77-1.92,27.7-2.56c0.86-0.09,1.08-0.13,1.62,0" style="fill:none;stroke:#999;stroke-width:3" />
<path d="M574.8199999999999,27.16c0.37,0.42,0.6,1.91,0.67,2.76c0.08,0.85,0,60.27-0.07,65.58" style="fill:none;stroke:#999;stroke-width:3" />
<path d="M575.4300000000001,46.47C571.9,57.29 566.0,70.65 558.0,79.5" style="fill:none;stroke:#999;stroke-width:3" />
<path d="M578.0,53.75c3.77,2.33,6.97,7,9,10" style="fill:none;stroke:#999;stroke-width:3" />
<path d="M594.0,18.64c0.27,0.42,0.28,0.7,0.43,1.21c1.21,4.24,2.8,13.83,3.52,21.64" style="fill:none;stroke:black;stroke-width:3" />
<circle cx="594.0" cy="18.64" r="5" stroke-width="0" fill="#FF2A00" opacity="0.7" />
<path d="M692.25,17.25c0.07,0.34,0.14,0.87-0.14,1.35C690.48,21.44 682.0,25.5 668.25,30.5" style="fill:none;stroke:#999;stroke-width:3" />
<path d="M666.87,44.77c0.32,0.13,1.19,0.34,2.05,0.38c2.37,0.13,21.77-1.92,27.7-2.56c0.86-0.09,1.08-0.13,1.62,0" style="fill:none;stroke:#999;stroke-width:3" />
<path d="M683.8199999999999,27.16c0.37,0.42,0.6,1.91,0.67,2.76c0.08,0.85,0,60.27-0.07,65.58" style="fill:none;stroke:#999;stroke-width:3" />
<path d="M684.4300000000001,46.47C680.9,57.29 675.0,70.65 667.0,79.5" style="fill:none;stroke:#999;stroke-width:3" />
<path d="M687.0,53.75c3.77,2.33,6.97,7,9,10" style="fill:none;stroke:#999;stroke-width:3" />
<path d="M703.0,18.64c0.27,0.42,0.28,0.7,0.43,1.21c1.21,4.24,2.8,13.83,3.52,21.64" style="fill:none;stroke:#999;stroke-width:3" />
<path d="M704.28,19.28c9.64-0.43,27.65-2.15,34.85-2.56c2.64-0.15,3.99,1.08,3.84,2.21C742.45,23.1 741.0,33 739.54,40.01" style="fill:none;stroke:black;stroke-width:3" />
<circle cx="704.28" cy="19.28" r="5" stroke-width="0" fill="#FF2A00" opacity="0.7" />
<path d="M801.25,17.25c0.07,0.34,0.14,0.87-0.14,1.35C799.48,21.44 791.0,25.5 777.25,30.5" style="fill:none;stroke:#999;stroke-width:3" />
<path d="M775.87,44.77c0.32,0.13,1.19,0.34,2.05,0.38c2.37,0.13,21.77-1.92,27.7-2.56c0.86-0.09,1.08-0.13,1.62,0" style="fill:none;stroke:#999;stroke-width:3" />
<path d="M792.8199999999999,27.16c0.37,0.42,0.6,1.91,0.67,2.76c0.08,0.85,0,60.27-0.07,65.58" style="fill:none;stroke:#999;stroke-width:3" />
<path d="M793.4300000000001,46.47C789.9,57.29 784.0,70.65 776.0,79.5" style="fill:none;stroke:#999;stroke-width:3" />
<path d="M796.0,53.75c3.77,2.33,6.97,7,9,10" style="fill:none;stroke:#999;stroke-width:3" />
<path d="M812.0,18.64c0.27,0.42,0.28,0.7,0.43,1.21c1.21,4.24,2.8,13.83,3.52,21.64" style="fill:none;stroke:#999;stroke-width:3" />
<path d="M813.28,19.28c9.64-0.43,27.65-2.15,34.85-2.56c2.64-0.15,3.99,1.08,3.84,2.21C851.45,23.1 850.0,33 848.54,40.01" style="fill:none;stroke:#999;stroke-width:3" />
<path d="M830.88,18.17c-0.02,0.33-0.03,0.9-0.03,1.64c-0.03,4.92,0.17,17.54,0.17,19.33" style="fill:none;stroke:black;stroke-width:3" />
<circle cx="830.88" cy="18.17" r="5" stroke-width="0" fill="#FF2A00" opacity="0.7" />
<path d="M910.25,17.25c0.07,0.34,0.14,0.87-0.14,1.35C908.48,21.44 900.0,25.5 886.25,30.5" style="fill:none;stroke:#999;stroke-width:3" />
<path d="M884.87,44.77c0.32,0.13,1.19,0.34,2.05,0.38c2.37,0.13,21.77-1.92,27.7-2.56c0.86-0.09,1.08-0.13,1.62,0" style="fill:none;stroke:#999;stroke-width:3" />
<path d="M901.8199999999999,27.16c0.37,0.42,0.6,1.91,0.67,2.76c0.08,0.85,0,60.27-0.07,65.58" style="fill:none;stroke:#999;stroke-width:3" />
<path d="M902.4300000000001,46.47C898.9,57.29 893.0,70.65 885.0,79.5" style="fill:none;stroke:#999;stroke-width:3" />
<path d="M905.0,53.75c3.77,2.33,6.97,7,9,10" style="fill:none;stroke:#999;stroke-width:3" />
<path d="M921.0,18.64c0.27,0.42,0.28,0.7,0.43,1.21c1.21,4.24,2.8,13.83,3.52,21.64" style="fill:none;stroke:#999;stroke-width:3" />
<path d="M922.28,19.28c9.64-0.43,27.65-2.15,34.85-2.56c2.64-0.15,3.99,1.08,3.84,2.21C960.45,23.1 959.0,33 957.54,40.01" style="fill:none;stroke:#999;stroke-width:3" />
<path d="M939.88,18.17c-0.02,0.33-0.03,0.9-0.03,1.64c-0.03,4.92,0.17,17.54,0.17,19.33" style="fill:none;stroke:#999;stroke-width:3" />
<path d="M924.5,29.16c3.14-0.21,30.71-1.44,33.31-1.44" style="fill:none;stroke:black;stroke-width:3" />
<circle cx="924.5" cy="29.16" r="5" stroke-width="0" fill="#FF2A00" opacity="0.7" />
<path d="M1019.25,17.25c0.07,0.34,0.14,0.87-0.14,1.35C1017.48,21.44 1009.0,25.5 995.25,30.5" style="fill:none;stroke:#999;stroke-width:3" />
<path d="M993.87,44.77c0.32,0.13,1.19,0.34,2.05,0.38c2.37,0.13,21.77-1.92,27.7-2.56c0.86-0.09,1.08-0.13,1.62,0" style="fill:none;stroke:#999;stroke-width:3" />
<path d="M1010.8199999999999,27.16c0.37,0.42,0.6,1.91,0.67,2.76c0.08,0.85,0,60.27-0.07,65.58" style="fill:none;stroke:#999;stroke-width:3" />
<path d="M1011.4300000000001,46.47C1007.9,57.29 1002.0,70.65 994.0,79.5" style="fill:none;stroke:#999;stroke-width:3" />
<path d="M1014.0,53.75c3.77,2.33,6.97,7,9,10" style="fill:none;stroke:#999;stroke-width:3" />
<path d="M1030.0,18.64c0.27,0.42,0.28,0.7,0.43,1.21c1.21,4.24,2.8,13.83,3.52,21.64" style="fill:none;stroke:#999;stroke-width:3" />
<path d="M1031.28,19.28c9.64-0.43,27.65-2.15,34.85-2.56c2.64-0.15,3.99,1.08,3.84,2.21C1069.45,23.1 1068.0,33 1066.54,40.01" style="fill:none;stroke:#999;stroke-width:3" />
<path d="M1048.88,18.17c-0.02,0.33-0.03,0.9-0.03,1.64c-0.03,4.92,0.17,17.54,0.17,19.33" style="fill:none;stroke:#999;stroke-width:3" />
<path d="M1033.5,29.16c3.14-0.21,30.71-1.44,33.31-1.44" style="fill:none;stroke:#999;stroke-width:3" />
<path d="M1034.45,40.4c6.94,0,22.6-1.45,32.18-1.56" style="fill:none;stroke:black;stroke-width:3" />
<circle cx="1034.45" cy="40.4" r="5" stroke-width="0" fill="#FF2A00" opacity="0.7" />
<path d="M1128.25,17.25c0.07,0.34,0.14,0.87-0.14,1.35C1126.48,21.44 1118.0,25.5 1104.25,30.5" style="fill:none;stroke:#999;stroke-width:3" />
<path d="M1102.87,44.77c0.32,0.13,1.19,0.34,2.05,0.38c2.37,0.13,21.77-1.92,27.7-2.56c0.86-0.09,1.08-0.13,1.62,0" style="fill:none;stroke:#999;stroke-width:3" />
<path d="M1119.82,27.16c0.37,0.42,0.6,1.91,0.67,2.76c0.08,0.85,0,60.27-0.07,65.58" style="fill:none;stroke:#999;stroke-width:3" />
<path d="M1120.43,46.47C1116.9,57.29 1111.0,70.65 1103.0,79.5" style="fill:none;stroke:#999;stroke-width:3" />
<path d="M1123.0,53.75c3.77,2.33,6.97,7,9,10" style="fill:none;stroke:#999;stroke-width:3" />
<path d="M1139.0,18.64c0.27,0.42,0.28,0.7,0.43,1.21c1.21,4.24,2.8,13.83,3.52,21.64" style="fill:none;stroke:#999;stroke-width:3" />
<path d="M1140.28,19.28c9.64-0.43,27.65-2.15,34.85-2.56c2.64-0.15,3.99,1.08,3.84,2.21C1178.45,23.1 1177.0,33 1175.54,40.01" style="fill:none;stroke:#999;stroke-width:3" />
<path d="M1157.88,18.17c-0.02,0.33-0.03,0.9-0.03,1.64c-0.03,4.92,0.17,17.54,0.17,19.33" style="fill:none;stroke:#999;stroke-width:3" />
<path d="M1142.5,29.16c3.14-0.21,30.71-1.44,33.31-1.44" style="fill:none;stroke:#999;stroke-width:3" />
<path d="M1143.45,40.4c6.94,0,22.6-1.45,32.18-1.56" style="fill:none;stroke:#999;stroke-width:3" />
<path d="M1150.01,43c0.07,0.39,0.07,1-0.13,1.57C1148.07,49.57 1145.74,53.4 1138.0,58.25" style="fill:none;stroke:black;stroke-width:3" />
<circle cx="1150.01" cy="43.0" r="5" stroke-width="0" fill="#FF2A00" opacity="0.7" />
<path d="M1237.25,17.25c0.07,0.34,0.14,0.87-0.14,1.35C1235.48,21.44 1227.0,25.5 1213.25,30.5" style="fill:none;stroke:#999;stroke-width:3" />
<path d="M1211.87,44.77c0.32,0.13,1.19,0.34,2.05,0.38c2.37,0.13,21.77-1.92,27.7-2.56c0.86-0.09,1.08-0.13,1.62,0" style="fill:none;stroke:#999;stroke-width:3" />
<path d="M1228.82,27.16c0.37,0.42,0.6,1.91,0.67,2.76c0.08,0.85,0,60.27-0.07,65.58" style="fill:none;stroke:#999;stroke-width:3" />
<path d="M1229.43,46.47C1225.9,57.29 1220.0,70.65 1212.0,79.5" style="fill:none;stroke:#999;stroke-width:3" />
<path d="M1232.0,53.75c3.77,2.33,6.97,7,9,10" style="fill:none;stroke:#999;stroke-width:3" />
<path d="M1248.0,18.64c0.27,0.42,0.28,0.7,0.43,1.21c1.21,4.24,2.8,13.83,3.52,21.64" style="fill:none;stroke:#999;stroke-width:3" />
<path d="M1249.28,19.28c9.64-0.43,27.65-2.15,34.85-2.56c2.64-0.15,3.99,1.08,3.84,2.21C1287.45,23.1 1286.0,33 1284.54,40.01" style="fill:none;stroke:#999;stroke-width:3" />
<path d="M1266.88,18.17c-0.02,0.33-0.03,0.9-0.03,1.64c-0.03,4.92,0.17,17.54,0.17,19.33" style="fill:none;stroke:#999;stroke-width:3" />
<path d="M1251.5,29.16c3.14-0.21,30.71-1.44,33.31-1.44" style="fill:none;stroke:#999;stroke-width:3" />
<path d="M1252.45,40.4c6.94,0,22.6-1.45,32.18-1.56" style="fill:none;stroke:#999;stroke-width:3" />
<path d="M1259.01,43c0.07,0.39,0.07,1-0.13,1.57C1257.07,49.57 1254.74,53.4 1247.0,58.25" style="fill:none;stroke:#999;stroke-width:3" />
<path d="M1273.25,41c0.91,0.77,1.18,1.68,1.18,2.87c0,1.6-0.27,5.1-0.27,6.24c0,3.11,3.1,4.39,9.03,4.39c5.36,0,9.31,0,11.58-1.01" style="fill:none;stroke:black;stroke-width:3" />
<circle cx="1273.25" cy="41.0" r="5" stroke-width="0" fill="#FF2A00" opacity="0.7" />
<path d="M1346.25,17.25c0.07,0.34,0.14,0.87-0.14,1.35C1344.48,21.44 1336.0,25.5 1322.25,30.5" style="fill:none;stroke:#999;stroke-width:3" />
<path d="M1320.87,44.77c0.32,0.13,1.19,0.34,2.05,0.38c2.37,0.13,21.77-1.92,27.7-2.56c0.86-0.09,1.08-0.13,1.62,0" style="fill:none;stroke:#999;stroke-width:3" />
<path d="M1337.82,27.16c0.37,0.42,0.6,1.91,0.67,2.76c0.08,0.85,0,60.27-0.07,65.58" style="fill:none;stroke:#999;stroke-width:3" />
<path d="M1338.43,46.47C1334.9,57.29 1329.0,70.65 1321.0,79.5" style="fill:none;stroke:#999;stroke-width:3" />
<path d="M1341.0,53.75c3.77,2.33,6.97,7,9,10" style="fill:none;stroke:#999;stroke-width:3" />
<path d="M1357.0,18.64c0.27,0.42,0.28,0.7,0.43,1.21c1.21,4.24,2.8,13.83,3.52,21.64" style="fill:none;stroke:#999;stroke-width:3" />
<path d="M1358.28,19.28c9.64-0.43,27.65-2.15,34.85-2.56c2.64-0.15,3.99,1.08,3.84,2.21C1396.45,23.1 1395.0,33 1393.54,40.01" style="fill:none;stroke:#999;stroke-width:3" />
<path d="M1375.88,18.17c-0.02,0.33-0.03,0.9-0.03,1.64c-0.03,4.92,0.17,17.54,0.17,19.33" style="fill:none;stroke:#999;stroke-width:3" />
<path d="M1360.5,29.16c3.14-0.21,30.71-1.44,33.31-1.44" style="fill:none;stroke:#999;stroke-width:3" />
<path d="M1361.45,40.4c6.94,0,22.6-1.45,32.18-1.56" style="fill:none;stroke:#999;stroke-width:3" />
<path d="M1368.01,43c0.07,0.39,0.07,1-0.13,1.57C1366.07,49.57 1363.74,53.4 1356.0,58.25" style="fill:none;stroke:#999;stroke-width:3" />
<path d="M1382.25,41c0.91,0.77,1.18,1.68,1.18,2.87c0,1.6-0.27,5.1-0.27,6.24c0,3.11,3.1,4.39,9.03,4.39c5.36,0,9.31,0,11.58-1.01" style="fill:none;stroke:#999;stroke-width:3" />
<path d="M1369.98,54.25c0.05,0.59,0.1,1.52-0.09,2.37c-1.15,5-7.72,15.97-16.71,22.69" style="fill:none;stroke:black;stroke-width:3" />
<circle cx="1369.98" cy="54.25" r="5" stroke-width="0" fill="#FF2A00" opacity="0.7" />
<path d="M1455.25,17.25c0.07,0.34,0.14,0.87-0.14,1.35C1453.48,21.44 1445.0,25.5 1431.25,30.5" style="fill:none;stroke:#999;stroke-width:3" />
<path d="M1429.87,44.77c0.32,0.13,1.19,0.34,2.05,0.38c2.37,0.13,21.77-1.92,27.7-2.56c0.86-0.09,1.08-0.13,1.62,0" style="fill:none;stroke:#999;stroke-width:3" />
<path d="M1446.82,27.16c0.37,0.42,0.6,1.91,0.67,2.76c0.08,0.85,0,60.27-0.07,65.58" style="fill:none;stroke:#999;stroke-width:3" />
<path d="M1447.43,46.47C1443.9,57.29 1438.0,70.65 1430.0,79.5" style="fill:none;stroke:#999;stroke-width:3" />
<path d="M1450.0,53.75c3.77,2.33,6.97,7,9,10" style="fill:none;stroke:#999;stroke-width:3" />
<path d="M1466.0,18.64c0.27,0.42,0.28,0.7,0.43,1.21c1.21,4.24,2.8,13.83,3.52,21.64" style="fill:none;stroke:#999;stroke-width:3" />
<path d="M1467.28,19.28c9.64-0.43,27.65-2.15,34.85-2.56c2.64-0.15,3.99,1.08,3.84,2.21C1505.45,23.1 1504.0,33 1502.54,40.01" style="fill:none;stroke:#999;stroke-width:3" />
<path d="M1484.88,18.17c-0.02,0.33-0.03,0.9-0.03,1.64c-0.03,4.92,0.17,17.54,0.17,19.33" style="fill:none;stroke:#999;stroke-width:3" />
<path d="M1469.5,29.16c3.14-0.21,30.71-1.44,33.31-1.44" style="fill:none;stroke:#999;stroke-width:3" />
<path d="M1470.45,40.4c6.94,0,22.6-1.45,32.18-1.56" style="fill:none;stroke:#999;stroke-width:3" />
<path d="M1477.01,43c0.07,0.39,0.07,1-0.13,1.57C1475.07,49.57 1472.74,53.4 1465.0,58.25" style="fill:none;stroke:#999;stroke-width:3" />
<path d="M1491.25,41c0.91,0.77,1.18,1.68,1.18,2.87c0,1.6-0.27,5.1-0.27,6.24c0,3.11,3.1,4.39,9.03,4.39c5.36,0,9.31,0,11.58-1.01" style="fill:none;stroke:#999;stroke-width:3" />
<path d="M1478.98,54.25c0.05,0.59,0.1,1.52-0.09,2.37c-1.15,5-7.72,15.97-16.71,22.69" style="fill:none;stroke:#999;stroke-width:3" />
<path d="M1477.75,62.75c1.5,0.5,3.15,0.97,4.83,0.77C1487.0,63 1493.33,61.6 1496.98,60.83c2.5-0.53,3.22,0.6,2.58,2.04C1496.05,70.72 1479.5,90.75 1461.75,96.5" style="fill:none;stroke:black;stroke-width:3" />
<circle cx="1477.75" cy="62.75" r="5" stroke-width="0" fill="#FF2A00" opacity="0.7" />
<path d="M1564.25,17.25c0.07,0.34,0.14,0.87-0.14,1.35C1562.48,21.44 1554.0,25.5 1540.25,30.5" style="fill:none;stroke:#999;stroke-width:3" />
<path d="M1538.87,44.77c0.32,0.13,1.19,0.34,2.05,0.38c2.37,0.13,21.77-1.92,27.7-2.56c0.86-0.09,1.08-0.13,1.62,0" style="fill:none;stroke:#999;stroke-width:3" />
<path d="M1555.82,27.16c0.37,0.42,0.6,1.91,0.67,2.76c0.08,0.85,0,60.27-0.07,65.58" style="fill:none;stroke:#999;stroke-width:3" />
<path d="M1556.43,46.47C1552.9,57.29 1547.0,70.65 1539.0,79.5" style="fill:none;stroke:#999;stroke-width:3" />
<path d="M1559.0,53.75c3.77,2.33,6.97,7,9,10" style="fill:none;stroke:#999;stroke-width:3" />
<path d="M1575.0,18.64c0.27,0.42,0.28,0.7,0.43,1.21c1.21,4.24,2.8,13.83,3.52,21.64" style="fill:none;stroke:#999;stroke-width:3" />
<path d="M1576.28,19.28c9.64-0.43,27.65-2.15,34.85-2.56c2.64-0.15,3.99,1.08,3.84,2.21C1614.45,23.1 1613.0,33 1611.54,40.01" style="fill:none;stroke:#999;stroke-width:3" />
<path d="M1593.88,18.17c-0.02,0.33-0.03,0.9-0.03,1.64c-0.03,4.92,0.17,17.54,0.17,19.33" style="fill:none;stroke:#999;stroke-width:3" />
<path d="M1578.5,29.16c3.14-0.21,30.71-1.44,33.31-1.44" style="fill:none;stroke:#999;stroke-width:3" />
<path d="M1579.45,40.4c6.94,0,22.6-1.45,32.18-1.56" style="fill:none;stroke:#999;stroke-width:3" />
<path d="M1586.01,43c0.07,0.39,0.07,1-0.13,1.57C1584.07,49.57 1581.74,53.4 1574.0,58.25" style="fill:none;stroke:#999;stroke-width:3" />
<path d="M1600.25,41c0.91,0.77,1.18,1.68,1.18,2.87c0,1.6-0.27,5.1-0.27,6.24c0,3.11,3.1,4.39,9.03,4.39c5.36,0,9.31,0,11.58-1.01" style="fill:none;stroke:#999;stroke-width:3" />
<path d="M1587.98,54.25c0.05,0.59,0.1,1.52-0.09,2.37c-1.15,5-7.72,15.97-16.71,22.69" style="fill:none;stroke:#999;stroke-width:3" />
<path d="M1586.75,62.75c1.5,0.5,3.15,0.97,4.83,0.77C1596.0,63 1602.33,61.6 1605.98,60.83c2.5-0.53,3.22,0.6,2.58,2.04C1605.05,70.72 1588.5,90.75 1570.75,96.5" style="fill:none;stroke:#999;stroke-width:3" />
<path d="M1582.24,67.71c4.66,4.36,25.77,20.94,32.05,24.92c1.87,1.19,3.39,1.77,5.21,2.12" style="fill:none;stroke:black;stroke-width:3" />
<circle cx="1582.24" cy="67.71" r="5" stroke-width="0" fill="#FF2A00" opacity="0.7" />
</svg>