<!-- 07a3d -->
<svg width="1635px" height="109px" viewBox="0 0 1635px 109px" xmlns="http://www.w3.org/2000/svg" xmlns:xlink="http://www.w3.org/1999/xlink" xml:space="preserve" version="1.1"  baseProfile="full">
<line x1="1" y1="1" x2="1634" y2="1" style="stroke:#ddd;stroke-width:2" />
<line x1="1" y1="1" x2="1" y2="108" style="stroke:#ddd;stroke-width:2" />
<line x1="1" y1="108" x2="1634" y2="108" style="stroke:#ddd;stroke-width:2" />
<line x1="1634" y1="1" x2="1634" y2="108" style="stroke:#ddd;stroke-width:2" />
<line x1="109" y1="1" x2="109" y2="108" style="stroke:#ddd;stroke-width:2" />
<line x1="218" y1="1" x2="218" y2="108" style="stroke:#ddd;stroke-width:2" />
<line x1="327" y1="1" x2="327" y2="108" style="stroke:#ddd;stroke-width:2" />
<line x1="436" y1="1" x2="436" y2="108" style="stroke:#ddd;stroke-width:2" />
<line x1="545" y1="1" x2="545" y2="108" style="stroke:#ddd;stroke-width:2" />
<line x1="654" y1="1" x2="654" y2="108" style="stroke:#ddd;stroke-width:2" />
<line x1="763" y1="1" x2="763" y2="108" style="stroke:#ddd;stroke-width:2" />
<line x1="872" y1="1" x2="872" y2="108" style="stroke:#ddd;stroke-width:2" />
<line x1="981" y1="1" x2="981" y2="108" style="stroke:#ddd;stroke-width:2" />
<line x1="1090" y1="1" x2="1090" y2="108" style="stroke:#ddd;stroke-width:2" />
<line x1="1199" y1="1" x2="1199" y2="108" style="stroke:#ddd;stroke-width:2" />
<line x1="1308" y1="1" x2="1308" y2="108" style="stroke:#ddd;stroke-width:2" />
<line x1="1417" y1="1" x2="1417" y2="108" style="stroke:#ddd;stroke-width:2" />
<line x1="1526" y1="1" x2="1526" y2="108" style="stroke:#ddd;stroke-width:2" />
<line x1="1" y1="54" x2="1634" y2="54" style="stroke:#ddd;stroke-width:2;stroke-dasharray:3 3" />
<line x1="55" y1="1" x2="55" y2="108" style="stroke:#ddd;stroke-width:2;stroke-dasharray:3 3" />
<line x1="164" y1="1" x2="164" y2="108" style="stroke:#ddd;stroke-width:2;stroke-dasharray:3 3" />
<line x1="273" y1="1" x2="273" y2="108" style="stroke:#ddd;stroke-width:2;stroke-dasharray:3 3" />
<line x1="382" y1="1" x2="382" y2="108" style="stroke:#ddd;stroke-width:2;stroke-dasharray:3 3" />
<line x1="491" y1="1" x2="491" y2="108" style="stroke:#ddd;stroke-width:2;stroke-dasharray:3 3" />
<line x1="600" y1="1" x2="600" y2="108" style="stroke:#ddd;stroke-width:2;stroke-dasharray:3 3" />
<line x1="709" y1="1" x2="709" y2="108" style="stroke:#ddd;stroke-width:2;stroke-dasharray:3 3" />
<line x1="818" y1="1" x2="818" y2="108" style="stroke:#ddd;stroke-width:2;stroke-dasharray:3 3" />
<line x1="927" y1="1" x2="927" y2="108" style="stroke:#ddd;stroke-width:2;stroke-dasharray:3 3" />
<line x1="1036" y1="1" x2="1036" y2="108" style="stroke:#ddd;stroke-width:2;stroke-dasharray:3 3" />
<line x1="1145" y1="1" x2="1145" y2="108" style="stroke:#ddd;stroke-width:2;stroke-dasharray:3 3" />
<line x1="1254" y1="1" x2="1254" y2="108" style="stroke:#ddd;stroke-width:2;stroke-dasharray:3 3" />
<line x1="1363" y1="1" x2="1363" y2="108" style="stroke:#ddd;stroke-width:2;stroke-dasharray:3 3" />
<line x1="1472" y1="1" x2="1472" y2="108" style="stroke:#ddd;stroke-width:2;stroke-dasharray:3 3" />
<line x1="1581" y1="1" x2="1581" y2="108" style="stroke:#ddd;stroke-width:2;stroke-dasharray:3 3" />
<path d="M39.5,17c-0.25,1.12-1.03,1.99-2.01,2.6c-5.24,3.27-10.74,6.52-22.24,10.65" style="fill:none;stroke:black;stroke-width:3" />
<circle cx="39.5" cy="17.0" r="5" stroke-width="0" fill="#FF2A00" opacity="0.7" />
<path d="M148.5,17c-0.25,1.12-1.03,1.99-2.01,2.6c-5.24,3.27-10.74,6.52-22.24,10.65" style="fill:none;stroke:#999;stroke-width:3" />
<path d="M120.62,44.42c2.14,0.77,4.36,0.92,6.65,0.43c5.62-0.65,15.11-2.24,20.74-3.08c1.57-0.18,3.15-0.25,4.73-0.22" style="fill:none;stroke:black;stroke-width:3" />
<circle cx="120.62" cy="44.42" r="5" stroke-width="0" fill="#FF2A00" opacity="0.7" />
<path d="M257.5,17c-0.25,1.12-1.03,1.99-2.01,2.6c-5.24,3.27-10.74,6.52-22.24,10.65" style="fill:none;stroke:#999;stroke-width:3" />
<path d="M229.62,44.42c2.14,0.77,4.36,0.92,6.65,0.43c5.62-0.65,15.11-2.24,20.74-3.08c1.57-0.18,3.15-0.25,4.73-0.22" style="fill:none;stroke:#999;stroke-width:3" />
<path d="M248.38,27.5c0.74,0.74,1.07,1.59,1.07,2.94c0,0.68,0.16,39.72,0.15,56.81c0,3.83-0.01,6.55-0.03,7.5" style="fill:none;stroke:black;stroke-width:3" />
<circle cx="248.38" cy="27.5" r="5" stroke-width="0" fill="#FF2A00" opacity="0.7" />
<path d="M366.5,17c-0.25,1.12-1.03,1.99-2.01,2.6c-5.24,3.27-10.74,6.52-22.24,10.65" style="fill:none;stroke:#999;stroke-width:3" />
<path d="M338.62,44.42c2.14,0.77,4.36,0.92,6.65,0.43c5.62-0.65,15.11-2.24,20.74-3.08c1.57-0.18,3.15-0.25,4.73-0.22" style="fill:none;stroke:#999;stroke-width:3" />
<path d="M357.38,27.5c0.74,0.74,1.07,1.59,1.07,2.94c0,0.68,0.16,39.72,0.15,56.81c0,3.83-0.01,6.55-0.03,7.5" style="fill:none;stroke:#999;stroke-width:3" />
<path d="M358.43,45.72c-0.18,1.41-0.56,3.56-1.15,4.98c-3.91,9.42-10.1,18.79-18.03,27.8" style="fill:none;stroke:black;stroke-width:3" />
<circle cx="358.43" cy="45.72" r="5" stroke-width="0" fill="#FF2A00" opacity="0.7" />
<path d="M475.5,17c-0.25,1.12-1.03,1.99-2.01,2.6c-5.24,3.27-10.74,6.52-22.24,10.65" style="fill:none;stroke:#999;stroke-width:3" />
<path d="M447.62,44.42c2.14,0.77,4.36,0.92,6.65,0.43c5.62-0.65,15.11-2.24,20.74-3.08c1.57-0.18,3.15-0.25,4.73-0.22" style="fill:none;stroke:#999;stroke-width:3" />
<path d="M466.38,27.5c0.74,0.74,1.07,1.59,1.07,2.94c0,0.68,0.16,39.72,0.15,56.81c0,3.83-0.01,6.55-0.03,7.5" style="fill:none;stroke:#999;stroke-width:3" />
<path d="M467.43,45.72c-0.18,1.41-0.56,3.56-1.15,4.98c-3.91,9.42-10.1,18.79-18.03,27.8" style="fill:none;stroke:#999;stroke-width:3" />
<path d="M470.75,52.25c3.67,2.45,6.27,6.35,8.25,9.5" style="fill:none;stroke:black;stroke-width:3" />
<circle cx="470.75" cy="52.25" r="5" stroke-width="0" fill="#FF2A00" opacity="0.7" />
<path d="M584.5,17c-0.25,1.12-1.03,1.99-2.01,2.6c-5.24,3.27-10.74,6.52-22.24,10.65" style="fill:none;stroke:#999;stroke-width:3" />
<path d="M556.62,44.42c2.14,0.77,4.36,0.92,6.65,0.43c5.62-0.65,15.11-2.24,20.74-3.08c1.57-0.18,3.15-0.25,4.73-0.22" style="fill:none;stroke:#999;stroke-width:3" />
<path d="M575.38,27.5c0.74,0.74,1.07,1.59,1.07,2.94c0,0.68,0.16,39.72,0.15,56.81c0,3.83-0.01,6.55-0.03,7.5" style="fill:none;stroke:#999;stroke-width:3" />
<path d="M576.4300000000001,45.72c-0.18,1.41-0.56,3.56-1.15,4.98c-3.91,9.42-10.1,18.79-18.03,27.8" style="fill:none;stroke:#999;stroke-width:3" />
<path d="M579.75,52.25c3.67,2.45,6.27,6.35,8.25,9.5" style="fill:none;stroke:#999;stroke-width:3" />
<path d="M593.05,25.59c2.35,0.36,4.71,0.41,7.08,0.12c7.17-0.88,20-2.61,28.87-3.23c2.84-0.37,5.67-0.35,8.5,0.06" style="fill:none;stroke:black;stroke-width:3" />
<circle cx="593.05" cy="25.59" r="5" stroke-width="0" fill="#FF2A00" opacity="0.7" />
<path d="M693.5,17c-0.25,1.12-1.03,1.99-2.01,2.6c-5.24,3.27-10.74,6.52-22.24,10.65" style="fill:none;stroke:#999;stroke-width:3" />
<path d="M665.62,44.42c2.14,0.77,4.36,0.92,6.65,0.43c5.62-0.65,15.11-2.24,20.74-3.08c1.57-0.18,3.15-0.25,4.73-0.22" style="fill:none;stroke:#999;stroke-width:3" />
<path d="M684.38,27.5c0.74,0.74,1.07,1.59,1.07,2.94c0,0.68,0.16,39.72,0.15,56.81c0,3.83-0.01,6.55-0.03,7.5" style="fill:none;stroke:#999;stroke-width:3" />
<path d="M685.4300000000001,45.72c-0.18,1.41-0.56,3.56-1.15,4.98c-3.91,9.42-10.1,18.79-18.03,27.8" style="fill:none;stroke:#999;stroke-width:3" />
<path d="M688.75,52.25c3.67,2.45,6.27,6.35,8.25,9.5" style="fill:none;stroke:#999;stroke-width:3" />
<path d="M702.05,25.59c2.35,0.36,4.71,0.41,7.08,0.12c7.17-0.88,20-2.61,28.87-3.23c2.84-0.37,5.67-0.35,8.5,0.06" style="fill:none;stroke:#999;stroke-width:3" />
<path d="M718.71,12.5c0.49,0.96,0.66,1.96,0.59,3c-0.55,8.5-4.8,20.88-16.63,27.17" style="fill:none;stroke:black;stroke-width:3" />
<circle cx="718.71" cy="12.5" r="5" stroke-width="0" fill="#FF2A00" opacity="0.7" />
<path d="M802.5,17c-0.25,1.12-1.03,1.99-2.01,2.6c-5.24,3.27-10.74,6.52-22.24,10.65" style="fill:none;stroke:#999;stroke-width:3" />
<path d="M774.62,44.42c2.14,0.77,4.36,0.92,6.65,0.43c5.62-0.65,15.11-2.24,20.74-3.08c1.57-0.18,3.15-0.25,4.73-0.22" style="fill:none;stroke:#999;stroke-width:3" />
<path d="M793.38,27.5c0.74,0.74,1.07,1.59,1.07,2.94c0,0.68,0.16,39.72,0.15,56.81c0,3.83-0.01,6.55-0.03,7.5" style="fill:none;stroke:#999;stroke-width:3" />
<path d="M794.4300000000001,45.72c-0.18,1.41-0.56,3.56-1.15,4.98c-3.91,9.42-10.1,18.79-18.03,27.8" style="fill:none;stroke:#999;stroke-width:3" />
<path d="M797.75,52.25c3.67,2.45,6.27,6.35,8.25,9.5" style="fill:none;stroke:#999;stroke-width:3" />
<path d="M811.05,25.59c2.35,0.36,4.71,0.41,7.08,0.12c7.17-0.88,20-2.61,28.87-3.23c2.84-0.37,5.67-0.35,8.5,0.06" style="fill:none;stroke:#999;stroke-width:3" />
<path d="M827.71,12.5c0.49,0.96,0.66,1.96,0.59,3c-0.55,8.5-4.8,20.88-16.63,27.17" style="fill:none;stroke:#999;stroke-width:3" />
<path d="M834.35,25.41c0.62,0.62,0.78,1.49,0.78,2.37c0,2.85-0.05,5.22-0.05,7.89c0,4.09,2.29,5.52,10.06,5.52c3.52,0,10.31,0.76,10.75-4.37" style="fill:none;stroke:black;stroke-width:3" />
<circle cx="834.35" cy="25.41" r="5" stroke-width="0" fill="#FF2A00" opacity="0.7" />
<path d="M911.5,17c-0.25,1.12-1.03,1.99-2.01,2.6c-5.24,3.27-10.74,6.52-22.24,10.65" style="fill:none;stroke:#999;stroke-width:3" />
<path d="M883.62,44.42c2.14,0.77,4.36,0.92,6.65,0.43c5.62-0.65,15.11-2.24,20.74-3.08c1.57-0.18,3.15-0.25,4.73-0.22" style="fill:none;stroke:#999;stroke-width:3" />
<path d="M902.38,27.5c0.74,0.74,1.07,1.59,1.07,2.94c0,0.68,0.16,39.72,0.15,56.81c0,3.83-0.01,6.55-0.03,7.5" style="fill:none;stroke:#999;stroke-width:3" />
<path d="M903.4300000000001,45.72c-0.18,1.41-0.56,3.56-1.15,4.98c-3.91,9.42-10.1,18.79-18.03,27.8" style="fill:none;stroke:#999;stroke-width:3" />
<path d="M906.75,52.25c3.67,2.45,6.27,6.35,8.25,9.5" style="fill:none;stroke:#999;stroke-width:3" />
<path d="M920.05,25.59c2.35,0.36,4.71,0.41,7.08,0.12c7.17-0.88,20-2.61,28.87-3.23c2.84-0.37,5.67-0.35,8.5,0.06" style="fill:none;stroke:#999;stroke-width:3" />
<path d="M936.71,12.5c0.49,0.96,0.66,1.96,0.59,3c-0.55,8.5-4.8,20.88-16.63,27.17" style="fill:none;stroke:#999;stroke-width:3" />
<path d="M943.35,25.41c0.62,0.62,0.78,1.49,0.78,2.37c0,2.85-0.05,5.22-0.05,7.89c0,4.09,2.29,5.52,10.06,5.52c3.52,0,10.31,0.76,10.75-4.37" style="fill:none;stroke:#999;stroke-width:3" />
<path d="M948.54,10.96c2.73,1.03,6.8,4.47,7.48,6.06" style="fill:none;stroke:black;stroke-width:3" />
<circle cx="948.54" cy="10.96" r="5" stroke-width="0" fill="#FF2A00" opacity="0.7" />
<path d="M1020.5,17c-0.25,1.12-1.03,1.99-2.01,2.6c-5.24,3.27-10.74,6.52-22.24,10.65" style="fill:none;stroke:#999;stroke-width:3" />
<path d="M992.62,44.42c2.14,0.77,4.36,0.92,6.65,0.43c5.62-0.65,15.11-2.24,20.74-3.08c1.57-0.18,3.15-0.25,4.73-0.22" style="fill:none;stroke:#999;stroke-width:3" />
<path d="M1011.38,27.5c0.74,0.74,1.07,1.59,1.07,2.94c0,0.68,0.16,39.72,0.15,56.81c0,3.83-0.01,6.55-0.03,7.5" style="fill:none;stroke:#999;stroke-width:3" />
<path d="M1012.4300000000001,45.72c-0.18,1.41-0.56,3.56-1.15,4.98c-3.91,9.42-10.1,18.79-18.03,27.8" style="fill:none;stroke:#999;stroke-width:3" />
<path d="M1015.75,52.25c3.67,2.45,6.27,6.35,8.25,9.5" style="fill:none;stroke:#999;stroke-width:3" />
<path d="M1029.05,25.59c2.35,0.36,4.71,0.41,7.08,0.12c7.17-0.88,20-2.61,28.87-3.23c2.84-0.37,5.67-0.35,8.5,0.06" style="fill:none;stroke:#999;stroke-width:3" />
<path d="M1045.71,12.5c0.49,0.96,0.66,1.96,0.59,3c-0.55,8.5-4.8,20.88-16.63,27.17" style="fill:none;stroke:#999;stroke-width:3" />
<path d="M1052.35,25.41c0.62,0.62,0.78,1.49,0.78,2.37c0,2.85-0.05,5.22-0.05,7.89c0,4.09,2.29,5.52,10.06,5.52c3.52,0,10.31,0.76,10.75-4.37" style="fill:none;stroke:#999;stroke-width:3" />
<path d="M1057.54,10.96c2.73,1.03,6.8,4.47,7.48,6.06" style="fill:none;stroke:#999;stroke-width:3" />
<path d="M1061.48,46.3c0,1.2-0.98,2.03-2.29,2.59C1053.0,51.5 1044.73,54.08 1034.43,55.65" style="fill:none;stroke:black;stroke-width:3" />
<circle cx="1061.48" cy="46.3" r="5" stroke-width="0" fill="#FF2A00" opacity="0.7" />
<path d="M1129.5,17c-0.25,1.12-1.03,1.99-2.01,2.6c-5.24,3.27-10.74,6.52-22.24,10.65" style="fill:none;stroke:#999;stroke-width:3" />
<path d="M1101.62,44.42c2.14,0.77,4.36,0.92,6.65,0.43c5.62-0.65,15.11-2.24,20.74-3.08c1.57-0.18,3.15-0.25,4.73-0.22" style="fill:none;stroke:#999;stroke-width:3" />
<path d="M1120.38,27.5c0.74,0.74,1.07,1.59,1.07,2.94c0,0.68,0.16,39.72,0.15,56.81c0,3.83-0.01,6.55-0.03,7.5" style="fill:none;stroke:#999;stroke-width:3" />
<path d="M1121.43,45.72c-0.18,1.41-0.56,3.56-1.15,4.98c-3.91,9.42-10.1,18.79-18.03,27.8" style="fill:none;stroke:#999;stroke-width:3" />
<path d="M1124.75,52.25c3.67,2.45,6.27,6.35,8.25,9.5" style="fill:none;stroke:#999;stroke-width:3" />
<path d="M1138.05,25.59c2.35,0.36,4.71,0.41,7.08,0.12c7.17-0.88,20-2.61,28.87-3.23c2.84-0.37,5.67-0.35,8.5,0.06" style="fill:none;stroke:#999;stroke-width:3" />
<path d="M1154.71,12.5c0.49,0.96,0.66,1.96,0.59,3c-0.55,8.5-4.8,20.88-16.63,27.17" style="fill:none;stroke:#999;stroke-width:3" />
<path d="M1161.35,25.41c0.62,0.62,0.78,1.49,0.78,2.37c0,2.85-0.05,5.22-0.05,7.89c0,4.09,2.29,5.52,10.06,5.52c3.52,0,10.31,0.76,10.75-4.37" style="fill:none;stroke:#999;stroke-width:3" />
<path d="M1166.54,10.96c2.73,1.03,6.8,4.47,7.48,6.06" style="fill:none;stroke:#999;stroke-width:3" />
<path d="M1170.48,46.3c0,1.2-0.98,2.03-2.29,2.59C1162.0,51.5 1153.73,54.08 1143.43,55.65" style="fill:none;stroke:#999;stroke-width:3" />
<path d="M1142.48,44.75c0.63,0.63,1.07,1.75,1.07,2.85c0,2.25-0.07,1.99-0.07,6.48c0,7.03,2.62,7.67,18.94,7.67c16.7,0,18.08-2.01,18.08-6.56" style="fill:none;stroke:black;stroke-width:3" />
<circle cx="1142.48" cy="44.75" r="5" stroke-width="0" fill="#FF2A00" opacity="0.7" />
<path d="M1238.5,17c-0.25,1.12-1.03,1.99-2.01,2.6c-5.24,3.27-10.74,6.52-22.24,10.65" style="fill:none;stroke:#999;stroke-width:3" />
<path d="M1210.62,44.42c2.14,0.77,4.36,0.92,6.65,0.43c5.62-0.65,15.11-2.24,20.74-3.08c1.57-0.18,3.15-0.25,4.73-0.22" style="fill:none;stroke:#999;stroke-width:3" />
<path d="M1229.38,27.5c0.74,0.74,1.07,1.59,1.07,2.94c0,0.68,0.16,39.72,0.15,56.81c0,3.83-0.01,6.55-0.03,7.5" style="fill:none;stroke:#999;stroke-width:3" />
<path d="M1230.43,45.72c-0.18,1.41-0.56,3.56-1.15,4.98c-3.91,9.42-10.1,18.79-18.03,27.8" style="fill:none;stroke:#999;stroke-width:3" />
<path d="M1233.75,52.25c3.67,2.45,6.27,6.35,8.25,9.5" style="fill:none;stroke:#999;stroke-width:3" />
<path d="M1247.05,25.59c2.35,0.36,4.71,0.41,7.08,0.12c7.17-0.88,20-2.61,28.87-3.23c2.84-0.37,5.67-0.35,8.5,0.06" style="fill:none;stroke:#999;stroke-width:3" />
<path d="M1263.71,12.5c0.49,0.96,0.66,1.96,0.59,3c-0.55,8.5-4.8,20.88-16.63,27.17" style="fill:none;stroke:#999;stroke-width:3" />
<path d="M1270.35,25.41c0.62,0.62,0.78,1.49,0.78,2.37c0,2.85-0.05,5.22-0.05,7.89c0,4.09,2.29,5.52,10.06,5.52c3.52,0,10.31,0.76,10.75-4.37" style="fill:none;stroke:#999;stroke-width:3" />
<path d="M1275.54,10.96c2.73,1.03,6.8,4.47,7.48,6.06" style="fill:none;stroke:#999;stroke-width:3" />
<path d="M1279.48,46.3c0,1.2-0.98,2.03-2.29,2.59C1271.0,51.5 1262.73,54.08 1252.43,55.65" style="fill:none;stroke:#999;stroke-width:3" />
<path d="M1251.48,44.75c0.63,0.63,1.07,1.75,1.07,2.85c0,2.25-0.07,1.99-0.07,6.48c0,7.03,2.62,7.67,18.94,7.67c16.7,0,18.08-2.01,18.08-6.56" style="fill:none;stroke:#999;stroke-width:3" />
<path d="M1251.46,70.78c0.88,0.88,1.04,1.72,1.13,3.34c0.03,0.55,1.13,11.15,1.77,17.39c0.26,2.54,0.44,4.36,0.44,4.47" style="fill:none;stroke:black;stroke-width:3" />
<circle cx="1251.46" cy="70.78" r="5" stroke-width="0" fill="#FF2A00" opacity="0.7" />
<path d="M1347.5,17c-0.25,1.12-1.03,1.99-2.01,2.6c-5.24,3.27-10.74,6.52-22.24,10.65" style="fill:none;stroke:#999;stroke-width:3" />
<path d="M1319.62,44.42c2.14,0.77,4.36,0.92,6.65,0.43c5.62-0.65,15.11-2.24,20.74-3.08c1.57-0.18,3.15-0.25,4.73-0.22" style="fill:none;stroke:#999;stroke-width:3" />
<path d="M1338.38,27.5c0.74,0.74,1.07,1.59,1.07,2.94c0,0.68,0.16,39.72,0.15,56.81c0,3.83-0.01,6.55-0.03,7.5" style="fill:none;stroke:#999;stroke-width:3" />
<path d="M1339.43,45.72c-0.18,1.41-0.56,3.56-1.15,4.98c-3.91,9.42-10.1,18.79-18.03,27.8" style="fill:none;stroke:#999;stroke-width:3" />
<path d="M1342.75,52.25c3.67,2.45,6.27,6.35,8.25,9.5" style="fill:none;stroke:#999;stroke-width:3" />
<path d="M1356.05,25.59c2.35,0.36,4.71,0.41,7.08,0.12c7.17-0.88,20-2.61,28.87-3.23c2.84-0.37,5.67-0.35,8.5,0.06" style="fill:none;stroke:#999;stroke-width:3" />
<path d="M1372.71,12.5c0.49,0.96,0.66,1.96,0.59,3c-0.55,8.5-4.8,20.88-16.63,27.17" style="fill:none;stroke:#999;stroke-width:3" />
<path d="M1379.35,25.41c0.62,0.62,0.78,1.49,0.78,2.37c0,2.85-0.05,5.22-0.05,7.89c0,4.09,2.29,5.52,10.06,5.52c3.52,0,10.31,0.76,10.75-4.37" style="fill:none;stroke:#999;stroke-width:3" />
<path d="M1384.54,10.96c2.73,1.03,6.8,4.47,7.48,6.06" style="fill:none;stroke:#999;stroke-width:3" />
<path d="M1388.48,46.3c0,1.2-0.98,2.03-2.29,2.59C1380.0,51.5 1371.73,54.08 1361.43,55.65" style="fill:none;stroke:#999;stroke-width:3" />
<path d="M1360.48,44.75c0.63,0.63,1.07,1.75,1.07,2.85c0,2.25-0.07,1.99-0.07,6.48c0,7.03,2.62,7.67,18.94,7.67c16.7,0,18.08-2.01,18.08-6.56" style="fill:none;stroke:#999;stroke-width:3" />
<path d="M1360.46,70.78c0.88,0.88,1.04,1.72,1.13,3.34c0.03,0.55,1.13,11.15,1.77,17.39c0.26,2.54,0.44,4.36,0.44,4.47" style="fill:none;stroke:#999;stroke-width:3" />
<path d="M1362.57,71.81c4.48-0.49,23.42-2.36,29.28-2.86c2.9-0.25,4.51,1.39,4.04,4.06c-0.7,3.99-2,11.75-2.86,17.08c-0.51,3.14-0.87,5.44-0.87,5.62" style="fill:none;stroke:black;stroke-width:3" />
<circle cx="1362.57" cy="71.81" r="5" stroke-width="0" fill="#FF2A00" opacity="0.7" />
<path d="M1456.5,17c-0.25,1.12-1.03,1.99-2.01,2.6c-5.24,3.27-10.74,6.52-22.24,10.65" style="fill:none;stroke:#999;stroke-width:3" />
<path d="M1428.62,44.42c2.14,0.77,4.36,0.92,6.65,0.43c5.62-0.65,15.11-2.24,20.74-3.08c1.57-0.18,3.15-0.25,4.73-0.22" style="fill:none;stroke:#999;stroke-width:3" />
<path d="M1447.38,27.5c0.74,0.74,1.07,1.59,1.07,2.94c0,0.68,0.16,39.72,0.15,56.81c0,3.83-0.01,6.55-0.03,7.5" style="fill:none;stroke:#999;stroke-width:3" />
<path d="M1448.43,45.72c-0.18,1.41-0.56,3.56-1.15,4.98c-3.91,9.42-10.1,18.79-18.03,27.8" style="fill:none;stroke:#999;stroke-width:3" />
<path d="M1451.75,52.25c3.67,2.45,6.27,6.35,8.25,9.5" style="fill:none;stroke:#999;stroke-width:3" />
<path d="M1465.05,25.59c2.35,0.36,4.71,0.41,7.08,0.12c7.17-0.88,20-2.61,28.87-3.23c2.84-0.37,5.67-0.35,8.5,0.06" style="fill:none;stroke:#999;stroke-width:3" />
<path d="M1481.71,12.5c0.49,0.96,0.66,1.96,0.59,3c-0.55,8.5-4.8,20.88-16.63,27.17" style="fill:none;stroke:#999;stroke-width:3" />
<path d="M1488.35,25.41c0.62,0.62,0.78,1.49,0.78,2.37c0,2.85-0.05,5.22-0.05,7.89c0,4.09,2.29,5.52,10.06,5.52c3.52,0,10.31,0.76,10.75-4.37" style="fill:none;stroke:#999;stroke-width:3" />
<path d="M1493.54,10.96c2.73,1.03,6.8,4.47,7.48,6.06" style="fill:none;stroke:#999;stroke-width:3" />
<path d="M1497.48,46.3c0,1.2-0.98,2.03-2.29,2.59C1489.0,51.5 1480.73,54.08 1470.43,55.65" style="fill:none;stroke:#999;stroke-width:3" />
<path d="M1469.48,44.75c0.63,0.63,1.07,1.75,1.07,2.85c0,2.25-0.07,1.99-0.07,6.48c0,7.03,2.62,7.67,18.94,7.67c16.7,0,18.08-2.01,18.08-6.56" style="fill:none;stroke:#999;stroke-width:3" />
<path d="M1469.46,70.78c0.88,0.88,1.04,1.72,1.13,3.34c0.03,0.55,1.13,11.15,1.77,17.39c0.26,2.54,0.44,4.36,0.44,4.47" style="fill:none;stroke:#999;stroke-width:3" />
<path d="M1471.57,71.81c4.48-0.49,23.42-2.36,29.28-2.86c2.9-0.25,4.51,1.39,4.04,4.06c-0.7,3.99-2,11.75-2.86,17.08c-0.51,3.14-0.87,5.44-0.87,5.62" style="fill:none;stroke:#999;stroke-width:3" />
<path d="M1472.51,82.37c7.12-0.74,21.24-1.99,30.25-2.34" style="fill:none;stroke:black;stroke-width:3" />
<circle cx="1472.51" cy="82.37" r="5" stroke-width="0" fill="#FF2A00" opacity="0.7" />
<path d="M1565.5,17c-0.25,1.12-1.03,1.99-2.01,2.6c-5.24,3.27-10.74,6.52-22.24,10.65" style="fill:none;stroke:#999;stroke-width:3" />
<path d="M1537.62,44.42c2.14,0.77,4.36,0.92,6.65,0.43c5.62-0.65,15.11-2.24,20.74-3.08c1.57-0.18,3.15-0.25,4.73-0.22" style="fill:none;stroke:#999;stroke-width:3" />
<path d="M1556.38,27.5c0.74,0.74,1.07,1.59,1.07,2.94c0,0.68,0.16,39.72,0.15,56.81c0,3.83-0.01,6.55-0.03,7.5" style="fill:none;stroke:#999;stroke-width:3" />
<path d="M1557.43,45.72c-0.18,1.41-0.56,3.56-1.15,4.98c-3.91,9.42-10.1,18.79-18.03,27.8" style="fill:none;stroke:#999;stroke-width:3" />
<path d="M1560.75,52.25c3.67,2.45,6.27,6.35,8.25,9.5" style="fill:none;stroke:#999;stroke-width:3" />
<path d="M1574.05,25.59c2.35,0.36,4.71,0.41,7.08,0.12c7.17-0.88,20-2.61,28.87-3.23c2.84-0.37,5.67-0.35,8.5,0.06" style="fill:none;stroke:#999;stroke-width:3" />
<path d="M1590.71,12.5c0.49,0.96,0.66,1.96,0.59,3c-0.55,8.5-4.8,20.88-16.63,27.17" style="fill:none;stroke:#999;stroke-width:3" />
<path d="M1597.35,25.41c0.62,0.62,0.78,1.49,0.78,2.37c0,2.85-0.05,5.22-0.05,7.89c0,4.09,2.29,5.52,10.06,5.52c3.52,0,10.31,0.76,10.75-4.37" style="fill:none;stroke:#999;stroke-width:3" />
<path d="M1602.54,10.96c2.73,1.03,6.8,4.47,7.48,6.06" style="fill:none;stroke:#999;stroke-width:3" />
<path d="M1606.48,46.3c0,1.2-0.98,2.03-2.29,2.59C1598.0,51.5 1589.73,54.08 1579.43,55.65" style="fill:none;stroke:#999;stroke-width:3" />
<path d="M1578.48,44.75c0.63,0.63,1.07,1.75,1.07,2.85c0,2.25-0.07,1.99-0.07,6.48c0,7.03,2.62,7.67,18.94,7.67c16.7,0,18.08-2.01,18.08-6.56" style="fill:none;stroke:#999;stroke-width:3" />
<path d="M1578.46,70.78c0.88,0.88,1.04,1.72,1.13,3.34c0.03,0.55,1.13,11.15,1.77,17.39c0.26,2.54,0.44,4.36,0.44,4.47" style="fill:none;stroke:#999;stroke-width:3" />
<path d="M1580.57,71.81c4.48-0.49,23.42-2.36,29.28-2.86c2.9-0.25,4.51,1.39,4.04,4.06c-0.7,3.99-2,11.75-2.86,17.08c-0.51,3.14-0.87,5.44-0.87,5.62" style="fill:none;stroke:#999;stroke-width:3" />
<path d="M1581.51,82.37c7.12-0.74,21.24-1.99,30.25-2.34" style="fill:none;stroke:#999;stroke-width:3" />
<path d="M1583.1,95.18c6.84-0.42,17.62-1.29,26.14-1.65" style="fill:none;stroke:black;stroke-width:3" />
<circle cx="1583.1" cy="95.18" r="5" stroke-width="0" fill="#FF2A00" opacity="0.7" />
</svg>