<!-- 07ab0 -->
<svg width="1635px" height="109px" viewBox="0 0 1635px 109px" xmlns="http://www.w3.org/2000/svg" xmlns:xlink="http://www.w3.org/1999/xlink" xml:space="preserve" version="1.1"  baseProfile="full">
<line x1="1" y1="1" x2="1634" y2="1" style="stroke:#ddd;stroke-width:2" />
<line x1="1" y1="1" x2="1" y2="108" style="stroke:#ddd;stroke-width:2" />
<line x1="1" y1="108" x2="1634" y2="108" style="stroke:#ddd;stroke-width:2" />
<line x1="1634" y1="1" x2="1634" y2="108" style="stroke:#ddd;stroke-width:2" />
<line x1="109" y1="1" x2="109" y2="108" style="stroke:#ddd;stroke-width:2" />
<line x1="218" y1="1" x2="218" y2="108" style="stroke:#ddd;stroke-width:2" />
<line x1="327" y1="1" x2="327" y2="108" style="stroke:#ddd;stroke-width:2" />
<line x1="436" y1="1" x2="436" y2="108" style="stroke:#ddd;stroke-width:2" />
<line x1="545" y1="1" x2="545" y2="108" style="stroke:#ddd;stroke-width:2" />
<line x1="654" y1="1" x2="654" y2="108" style="stroke:#ddd;stroke-width:2" />
<line x1="763" y1="1" x2="763" y2="108" style="stroke:#ddd;stroke-width:2" />
<line x1="872" y1="1" x2="872" y2="108" style="stroke:#ddd;stroke-width:2" />
<line x1="981" y1="1" x2="981" y2="108" style="stroke:#ddd;stroke-width:2" />
<line x1="1090" y1="1" x2="1090" y2="108" style="stroke:#ddd;stroke-width:2" />
<line x1="1199" y1="1" x2="1199" y2="108" style="stroke:#ddd;stroke-width:2" />
<line x1="1308" y1="1" x2="1308" y2="108" style="stroke:#ddd;stroke-width:2" />
<line x1="1417" y1="1" x2="1417" y2="108" style="stroke:#ddd;stroke-width:2" />
<line x1="1526" y1="1" x2="1526" y2="108" style="stroke:#ddd;stroke-width:2" />
<line x1="1" y1="54" x2="1634" y2="54" style="stroke:#ddd;stroke-width:2;stroke-dasharray:3 3" />
<line x1="55" y1="1" x2="55" y2="108" style="stroke:#ddd;stroke-width:2;stroke-dasharray:3 3" />
<line x1="164" y1="1" x2="164" y2="108" style="stroke:#ddd;stroke-width:2;stroke-dasharray:3 3" />
<line x1="273" y1="1" x2="273" y2="108" style="stroke:#ddd;stroke-width:2;stroke-dasharray:3 3" />
<line x1="382" y1="1" x2="382" y2="108" style="stroke:#ddd;stroke-width:2;stroke-dasharray:3 3" />
<line x1="491" y1="1" x2="491" y2="108" style="stroke:#ddd;stroke-width:2;stroke-dasharray:3 3" />
<line x1="600" y1="1" x2="600" y2="108" style="stroke:#ddd;stroke-width:2;stroke-dasharray:3 3" />
<line x1="709" y1="1" x2="709" y2="108" style="stroke:#ddd;stroke-width:2;stroke-dasharray:3 3" />
<line x1="818" y1="1" x2="818" y2="108" style="stroke:#ddd;stroke-width:2;stroke-dasharray:3 3" />
<line x1="927" y1="1" x2="927" y2="108" style="stroke:#ddd;stroke-width:2;stroke-dasharray:3 3" />
<line x1="1036" y1="1" x2="1036" y2="108" style="stroke:#ddd;stroke-width:2;stroke-dasharray:3 3" />
<line x1="1145" y1="1" x2="1145" y2="108" style="stroke:#ddd;stroke-width:2;stroke-dasharray:3 3" />
<line x1="1254" y1="1" x2="1254" y2="108" style="stroke:#ddd;stroke-width:2;stroke-dasharray:3 3" />
<line x1="1363" y1="1" x2="1363" y2="108" style="stroke:#ddd;stroke-width:2;stroke-dasharray:3 3" />
<line x1="1472" y1="1" x2="1472" y2="108" style="stroke:#ddd;stroke-width:2;stroke-dasharray:3 3" />
<line x1="1581" y1="1" x2="1581" y2="108" style="stroke:#ddd;stroke-width:2;stroke-dasharray:3 3" />
<path d="M51.98,8.25c0.99,0.34,2.4,1.98,2.38,2.95c-0.07,3.05-0.07,5.24-0.08,8.02" style="fill:none;stroke:black;stroke-width:3" />
<circle cx="51.98" cy="8.25" r="5" stroke-width="0" fill="#FF2A00" opacity="0.7" />
<path d="M160.98,8.25c0.99,0.34,2.4,1.98,2.38,2.95c-0.07,3.05-0.07,5.24-0.08,8.02" style="fill:none;stroke:#999;stroke-width:3" />
<path d="M128.23,21.01c0,3.23-2.88,12.09-4.18,14.24" style="fill:none;stroke:black;stroke-width:3" />
<circle cx="128.23" cy="21.01" r="5" stroke-width="0" fill="#FF2A00" opacity="0.7" />
<path d="M269.98,8.25c0.99,0.34,2.4,1.98,2.38,2.95c-0.07,3.05-0.07,5.24-0.08,8.02" style="fill:none;stroke:#999;stroke-width:3" />
<path d="M237.23,21.01c0,3.23-2.88,12.09-4.18,14.24" style="fill:none;stroke:#999;stroke-width:3" />
<path d="M237.37,22.74c12.8-1.99,58-5.49,67.34-5.38c12.09,0.14,2.56,6.41-0.45,8.3" style="fill:none;stroke:black;stroke-width:3" />
<circle cx="237.37" cy="22.74" r="5" stroke-width="0" fill="#FF2A00" opacity="0.7" />
<path d="M378.98,8.25c0.99,0.34,2.4,1.98,2.38,2.95c-0.07,3.05-0.07,5.24-0.08,8.02" style="fill:none;stroke:#999;stroke-width:3" />
<path d="M346.23,21.01c0,3.23-2.88,12.09-4.18,14.24" style="fill:none;stroke:#999;stroke-width:3" />
<path d="M346.37,22.74c12.8-1.99,58-5.49,67.34-5.38c12.09,0.14,2.56,6.41-0.45,8.3" style="fill:none;stroke:#999;stroke-width:3" />
<path d="M369.13,23.25c0.06,0.41,0.23,1.11-0.11,1.66C365.83,30 359.14,35.86 348.75,40.75" style="fill:none;stroke:black;stroke-width:3" />
<circle cx="369.13" cy="23.25" r="5" stroke-width="0" fill="#FF2A00" opacity="0.7" />
<path d="M487.98,8.25c0.99,0.34,2.4,1.98,2.38,2.95c-0.07,3.05-0.07,5.24-0.08,8.02" style="fill:none;stroke:#999;stroke-width:3" />
<path d="M455.23,21.01c0,3.23-2.88,12.09-4.18,14.24" style="fill:none;stroke:#999;stroke-width:3" />
<path d="M455.37,22.74c12.8-1.99,58-5.49,67.34-5.38c12.09,0.14,2.56,6.41-0.45,8.3" style="fill:none;stroke:#999;stroke-width:3" />
<path d="M478.13,23.25c0.06,0.41,0.23,1.11-0.11,1.66C474.83,30 468.14,35.86 457.75,40.75" style="fill:none;stroke:#999;stroke-width:3" />
<path d="M497.34000000000003,20.37c0.43,0.49,0.79,1.07,0.79,1.83c0,2.01,0.2,5.04,0.2,7.34c0,5.38,6.21,4.77,11.27,4.77c5.34,0,9.93-0.69,10.67-1.09" style="fill:none;stroke:black;stroke-width:3" />
<circle cx="497.34000000000003" cy="20.37" r="5" stroke-width="0" fill="#FF2A00" opacity="0.7" />
<path d="M596.98,8.25c0.99,0.34,2.4,1.98,2.38,2.95c-0.07,3.05-0.07,5.24-0.08,8.02" style="fill:none;stroke:#999;stroke-width:3" />
<path d="M564.23,21.01c0,3.23-2.88,12.09-4.18,14.24" style="fill:none;stroke:#999;stroke-width:3" />
<path d="M564.37,22.74c12.8-1.99,58-5.49,67.34-5.38c12.09,0.14,2.56,6.41-0.45,8.3" style="fill:none;stroke:#999;stroke-width:3" />
<path d="M587.13,23.25c0.06,0.41,0.23,1.11-0.11,1.66C583.8299999999999,30 577.14,35.86 566.75,40.75" style="fill:none;stroke:#999;stroke-width:3" />
<path d="M606.34,20.37c0.43,0.49,0.79,1.07,0.79,1.83c0,2.01,0.2,5.04,0.2,7.34c0,5.38,6.21,4.77,11.27,4.77c5.34,0,9.93-0.69,10.67-1.09" style="fill:none;stroke:#999;stroke-width:3" />
<path d="M592.05,32.75c0.2,1.5-0.07,2.39-1.06,3.54C586.07,42 576.63,50.9 562.25,56" style="fill:none;stroke:black;stroke-width:3" />
<circle cx="592.05" cy="32.75" r="5" stroke-width="0" fill="#FF2A00" opacity="0.7" />
<path d="M705.98,8.25c0.99,0.34,2.4,1.98,2.38,2.95c-0.07,3.05-0.07,5.24-0.08,8.02" style="fill:none;stroke:#999;stroke-width:3" />
<path d="M673.23,21.01c0,3.23-2.88,12.09-4.18,14.24" style="fill:none;stroke:#999;stroke-width:3" />
<path d="M673.37,22.74c12.8-1.99,58-5.49,67.34-5.38c12.09,0.14,2.56,6.41-0.45,8.3" style="fill:none;stroke:#999;stroke-width:3" />
<path d="M696.13,23.25c0.06,0.41,0.23,1.11-0.11,1.66C692.8299999999999,30 686.14,35.86 675.75,40.75" style="fill:none;stroke:#999;stroke-width:3" />
<path d="M715.34,20.37c0.43,0.49,0.79,1.07,0.79,1.83c0,2.01,0.2,5.04,0.2,7.34c0,5.38,6.21,4.77,11.27,4.77c5.34,0,9.93-0.69,10.67-1.09" style="fill:none;stroke:#999;stroke-width:3" />
<path d="M701.05,32.75c0.2,1.5-0.07,2.39-1.06,3.54C695.07,42 685.63,50.9 671.25,56" style="fill:none;stroke:#999;stroke-width:3" />
<path d="M698.12,41.93c1.68,0.4,1.97,0.65,4.41,0.5c6.72-0.42,12.74-2.13,16.57-2.8c3.07-0.54,3.91,1.25,2.28,3.1c-7.1,8.08-24.65,20.1-50.97,28.03" style="fill:none;stroke:black;stroke-width:3" />
<circle cx="698.12" cy="41.93" r="5" stroke-width="0" fill="#FF2A00" opacity="0.7" />
<path d="M814.98,8.25c0.99,0.34,2.4,1.98,2.38,2.95c-0.07,3.05-0.07,5.24-0.08,8.02" style="fill:none;stroke:#999;stroke-width:3" />
<path d="M782.23,21.01c0,3.23-2.88,12.09-4.18,14.24" style="fill:none;stroke:#999;stroke-width:3" />
<path d="M782.37,22.74c12.8-1.99,58-5.49,67.34-5.38c12.09,0.14,2.56,6.41-0.45,8.3" style="fill:none;stroke:#999;stroke-width:3" />
<path d="M805.13,23.25c0.06,0.41,0.23,1.11-0.11,1.66C801.8299999999999,30 795.14,35.86 784.75,40.75" style="fill:none;stroke:#999;stroke-width:3" />
<path d="M824.34,20.37c0.43,0.49,0.79,1.07,0.79,1.83c0,2.01,0.2,5.04,0.2,7.34c0,5.38,6.21,4.77,11.27,4.77c5.34,0,9.93-0.69,10.67-1.09" style="fill:none;stroke:#999;stroke-width:3" />
<path d="M810.05,32.75c0.2,1.5-0.07,2.39-1.06,3.54C804.07,42 794.63,50.9 780.25,56" style="fill:none;stroke:#999;stroke-width:3" />
<path d="M807.12,41.93c1.68,0.4,1.97,0.65,4.41,0.5c6.72-0.42,12.74-2.13,16.57-2.8c3.07-0.54,3.91,1.25,2.28,3.1c-7.1,8.08-24.65,20.1-50.97,28.03" style="fill:none;stroke:#999;stroke-width:3" />
<path d="M800.75,47.5c1.33,0.53,6.65,3.68,9.32,6.83" style="fill:none;stroke:black;stroke-width:3" />
<circle cx="800.75" cy="47.5" r="5" stroke-width="0" fill="#FF2A00" opacity="0.7" />
<path d="M923.98,8.25c0.99,0.34,2.4,1.98,2.38,2.95c-0.07,3.05-0.07,5.24-0.08,8.02" style="fill:none;stroke:#999;stroke-width:3" />
<path d="M891.23,21.01c0,3.23-2.88,12.09-4.18,14.24" style="fill:none;stroke:#999;stroke-width:3" />
<path d="M891.37,22.74c12.8-1.99,58-5.49,67.34-5.38c12.09,0.14,2.56,6.41-0.45,8.3" style="fill:none;stroke:#999;stroke-width:3" />
<path d="M914.13,23.25c0.06,0.41,0.23,1.11-0.11,1.66C910.8299999999999,30 904.14,35.86 893.75,40.75" style="fill:none;stroke:#999;stroke-width:3" />
<path d="M933.34,20.37c0.43,0.49,0.79,1.07,0.79,1.83c0,2.01,0.2,5.04,0.2,7.34c0,5.38,6.21,4.77,11.27,4.77c5.34,0,9.93-0.69,10.67-1.09" style="fill:none;stroke:#999;stroke-width:3" />
<path d="M919.05,32.75c0.2,1.5-0.07,2.39-1.06,3.54C913.07,42 903.63,50.9 889.25,56" style="fill:none;stroke:#999;stroke-width:3" />
<path d="M916.12,41.93c1.68,0.4,1.97,0.65,4.41,0.5c6.72-0.42,12.74-2.13,16.57-2.8c3.07-0.54,3.91,1.25,2.28,3.1c-7.1,8.08-24.65,20.1-50.97,28.03" style="fill:none;stroke:#999;stroke-width:3" />
<path d="M909.75,47.5c1.33,0.53,6.65,3.68,9.32,6.83" style="fill:none;stroke:#999;stroke-width:3" />
<path d="M899.8,53.38c1.49,0.98,5.97,5.16,7.22,7.38" style="fill:none;stroke:black;stroke-width:3" />
<circle cx="899.8" cy="53.38" r="5" stroke-width="0" fill="#FF2A00" opacity="0.7" />
<path d="M1032.98,8.25c0.99,0.34,2.4,1.98,2.38,2.95c-0.07,3.05-0.07,5.24-0.08,8.02" style="fill:none;stroke:#999;stroke-width:3" />
<path d="M1000.23,21.01c0,3.23-2.88,12.09-4.18,14.24" style="fill:none;stroke:#999;stroke-width:3" />
<path d="M1000.37,22.74c12.8-1.99,58-5.49,67.34-5.38c12.09,0.14,2.56,6.41-0.45,8.3" style="fill:none;stroke:#999;stroke-width:3" />
<path d="M1023.13,23.25c0.06,0.41,0.23,1.11-0.11,1.66C1019.8299999999999,30 1013.14,35.86 1002.75,40.75" style="fill:none;stroke:#999;stroke-width:3" />
<path d="M1042.3400000000001,20.37c0.43,0.49,0.79,1.07,0.79,1.83c0,2.01,0.2,5.04,0.2,7.34c0,5.38,6.21,4.77,11.27,4.77c5.34,0,9.93-0.69,10.67-1.09" style="fill:none;stroke:#999;stroke-width:3" />
<path d="M1028.05,32.75c0.2,1.5-0.07,2.39-1.06,3.54C1022.07,42 1012.63,50.9 998.25,56" style="fill:none;stroke:#999;stroke-width:3" />
<path d="M1025.12,41.93c1.68,0.4,1.97,0.65,4.41,0.5c6.72-0.42,12.74-2.13,16.57-2.8c3.07-0.54,3.91,1.25,2.28,3.1c-7.1,8.08-24.65,20.1-50.97,28.03" style="fill:none;stroke:#999;stroke-width:3" />
<path d="M1018.75,47.5c1.33,0.53,6.65,3.68,9.32,6.83" style="fill:none;stroke:#999;stroke-width:3" />
<path d="M1008.8,53.38c1.49,0.98,5.97,5.16,7.22,7.38" style="fill:none;stroke:#999;stroke-width:3" />
<path d="M1020.33,64.06c0.03,0.29,0.06,0.75-0.05,1.18c-0.67,2.48-4.51,7.93-9.77,11.26" style="fill:none;stroke:black;stroke-width:3" />
<circle cx="1020.33" cy="64.06" r="5" stroke-width="0" fill="#FF2A00" opacity="0.7" />
<path d="M1141.98,8.25c0.99,0.34,2.4,1.98,2.38,2.95c-0.07,3.05-0.07,5.24-0.08,8.02" style="fill:none;stroke:#999;stroke-width:3" />
<path d="M1109.23,21.01c0,3.23-2.88,12.09-4.18,14.24" style="fill:none;stroke:#999;stroke-width:3" />
<path d="M1109.37,22.74c12.8-1.99,58-5.49,67.34-5.38c12.09,0.14,2.56,6.41-0.45,8.3" style="fill:none;stroke:#999;stroke-width:3" />
<path d="M1132.13,23.25c0.06,0.41,0.23,1.11-0.11,1.66C1128.83,30 1122.1399999999999,35.86 1111.75,40.75" style="fill:none;stroke:#999;stroke-width:3" />
<path d="M1151.3400000000001,20.37c0.43,0.49,0.79,1.07,0.79,1.83c0,2.01,0.2,5.04,0.2,7.34c0,5.38,6.21,4.77,11.27,4.77c5.34,0,9.93-0.69,10.67-1.09" style="fill:none;stroke:#999;stroke-width:3" />
<path d="M1137.05,32.75c0.2,1.5-0.07,2.39-1.06,3.54C1131.0700000000002,42 1121.63,50.9 1107.25,56" style="fill:none;stroke:#999;stroke-width:3" />
<path d="M1134.12,41.93c1.68,0.4,1.97,0.65,4.41,0.5c6.72-0.42,12.74-2.13,16.57-2.8c3.07-0.54,3.91,1.25,2.28,3.1c-7.1,8.08-24.65,20.1-50.97,28.03" style="fill:none;stroke:#999;stroke-width:3" />
<path d="M1127.75,47.5c1.33,0.53,6.65,3.68,9.32,6.83" style="fill:none;stroke:#999;stroke-width:3" />
<path d="M1117.8,53.38c1.49,0.98,5.97,5.16,7.22,7.38" style="fill:none;stroke:#999;stroke-width:3" />
<path d="M1129.33,64.06c0.03,0.29,0.06,0.75-0.05,1.18c-0.67,2.48-4.51,7.93-9.77,11.26" style="fill:none;stroke:#999;stroke-width:3" />
<path d="M1130.95,68.31c0.87,0.14,2.47,0.21,3.34,0.14c11.45-0.95,23.99-2.89,33.59-3.38c1.44-0.07,2.33,0.07,3.05,0.14" style="fill:none;stroke:black;stroke-width:3" />
<circle cx="1130.95" cy="68.31" r="5" stroke-width="0" fill="#FF2A00" opacity="0.7" />
<path d="M1250.98,8.25c0.99,0.34,2.4,1.98,2.38,2.95c-0.07,3.05-0.07,5.24-0.08,8.02" style="fill:none;stroke:#999;stroke-width:3" />
<path d="M1218.23,21.01c0,3.23-2.88,12.09-4.18,14.24" style="fill:none;stroke:#999;stroke-width:3" />
<path d="M1218.37,22.74c12.8-1.99,58-5.49,67.34-5.38c12.09,0.14,2.56,6.41-0.45,8.3" style="fill:none;stroke:#999;stroke-width:3" />
<path d="M1241.13,23.25c0.06,0.41,0.23,1.11-0.11,1.66C1237.83,30 1231.1399999999999,35.86 1220.75,40.75" style="fill:none;stroke:#999;stroke-width:3" />
<path d="M1260.3400000000001,20.37c0.43,0.49,0.79,1.07,0.79,1.83c0,2.01,0.2,5.04,0.2,7.34c0,5.38,6.21,4.77,11.27,4.77c5.34,0,9.93-0.69,10.67-1.09" style="fill:none;stroke:#999;stroke-width:3" />
<path d="M1246.05,32.75c0.2,1.5-0.07,2.39-1.06,3.54C1240.0700000000002,42 1230.63,50.9 1216.25,56" style="fill:none;stroke:#999;stroke-width:3" />
<path d="M1243.12,41.93c1.68,0.4,1.97,0.65,4.41,0.5c6.72-0.42,12.74-2.13,16.57-2.8c3.07-0.54,3.91,1.25,2.28,3.1c-7.1,8.08-24.65,20.1-50.97,28.03" style="fill:none;stroke:#999;stroke-width:3" />
<path d="M1236.75,47.5c1.33,0.53,6.65,3.68,9.32,6.83" style="fill:none;stroke:#999;stroke-width:3" />
<path d="M1226.8,53.38c1.49,0.98,5.97,5.16,7.22,7.38" style="fill:none;stroke:#999;stroke-width:3" />
<path d="M1238.33,64.06c0.03,0.29,0.06,0.75-0.05,1.18c-0.67,2.48-4.51,7.93-9.77,11.26" style="fill:none;stroke:#999;stroke-width:3" />
<path d="M1239.95,68.31c0.87,0.14,2.47,0.21,3.34,0.14c11.45-0.95,23.99-2.89,33.59-3.38c1.44-0.07,2.33,0.07,3.05,0.14" style="fill:none;stroke:#999;stroke-width:3" />
<path d="M1214.88,81.42c1.51,0.3,4.28,0.34,5.79,0.3c15.71-0.5,46.49-4.34,69.43-4.45c2.52-0.01,4.03,0.14,5.28,0.29" style="fill:none;stroke:black;stroke-width:3" />
<circle cx="1214.88" cy="81.42" r="5" stroke-width="0" fill="#FF2A00" opacity="0.7" />
<path d="M1359.98,8.25c0.99,0.34,2.4,1.98,2.38,2.95c-0.07,3.05-0.07,5.24-0.08,8.02" style="fill:none;stroke:#999;stroke-width:3" />
<path d="M1327.23,21.01c0,3.23-2.88,12.09-4.18,14.24" style="fill:none;stroke:#999;stroke-width:3" />
<path d="M1327.37,22.74c12.8-1.99,58-5.49,67.34-5.38c12.09,0.14,2.56,6.41-0.45,8.3" style="fill:none;stroke:#999;stroke-width:3" />
<path d="M1350.13,23.25c0.06,0.41,0.23,1.11-0.11,1.66C1346.83,30 1340.1399999999999,35.86 1329.75,40.75" style="fill:none;stroke:#999;stroke-width:3" />
<path d="M1369.3400000000001,20.37c0.43,0.49,0.79,1.07,0.79,1.83c0,2.01,0.2,5.04,0.2,7.34c0,5.38,6.21,4.77,11.27,4.77c5.34,0,9.93-0.69,10.67-1.09" style="fill:none;stroke:#999;stroke-width:3" />
<path d="M1355.05,32.75c0.2,1.5-0.07,2.39-1.06,3.54C1349.0700000000002,42 1339.63,50.9 1325.25,56" style="fill:none;stroke:#999;stroke-width:3" />
<path d="M1352.12,41.93c1.68,0.4,1.97,0.65,4.41,0.5c6.72-0.42,12.74-2.13,16.57-2.8c3.07-0.54,3.91,1.25,2.28,3.1c-7.1,8.08-24.65,20.1-50.97,28.03" style="fill:none;stroke:#999;stroke-width:3" />
<path d="M1345.75,47.5c1.33,0.53,6.65,3.68,9.32,6.83" style="fill:none;stroke:#999;stroke-width:3" />
<path d="M1335.8,53.38c1.49,0.98,5.97,5.16,7.22,7.38" style="fill:none;stroke:#999;stroke-width:3" />
<path d="M1347.33,64.06c0.03,0.29,0.06,0.75-0.05,1.18c-0.67,2.48-4.51,7.93-9.77,11.26" style="fill:none;stroke:#999;stroke-width:3" />
<path d="M1348.95,68.31c0.87,0.14,2.47,0.21,3.34,0.14c11.45-0.95,23.99-2.89,33.59-3.38c1.44-0.07,2.33,0.07,3.05,0.14" style="fill:none;stroke:#999;stroke-width:3" />
<path d="M1323.88,81.42c1.51,0.3,4.28,0.34,5.79,0.3c15.71-0.5,46.49-4.34,69.43-4.45c2.52-0.01,4.03,0.14,5.28,0.29" style="fill:none;stroke:#999;stroke-width:3" />
<path d="M1362.19,69.08c0.83,0.67,1.28,1.66,1.28,2.58c0,3.24-0.09,22.6-0.22,25.34" style="fill:none;stroke:black;stroke-width:3" />
<circle cx="1362.19" cy="69.08" r="5" stroke-width="0" fill="#FF2A00" opacity="0.7" />
<path d="M1468.98,8.25c0.99,0.34,2.4,1.98,2.38,2.95c-0.07,3.05-0.07,5.24-0.08,8.02" style="fill:none;stroke:#999;stroke-width:3" />
<path d="M1436.23,21.01c0,3.23-2.88,12.09-4.18,14.24" style="fill:none;stroke:#999;stroke-width:3" />
<path d="M1436.37,22.74c12.8-1.99,58-5.49,67.34-5.38c12.09,0.14,2.56,6.41-0.45,8.3" style="fill:none;stroke:#999;stroke-width:3" />
<path d="M1459.13,23.25c0.06,0.41,0.23,1.11-0.11,1.66C1455.83,30 1449.1399999999999,35.86 1438.75,40.75" style="fill:none;stroke:#999;stroke-width:3" />
<path d="M1478.3400000000001,20.37c0.43,0.49,0.79,1.07,0.79,1.83c0,2.01,0.2,5.04,0.2,7.34c0,5.38,6.21,4.77,11.27,4.77c5.34,0,9.93-0.69,10.67-1.09" style="fill:none;stroke:#999;stroke-width:3" />
<path d="M1464.05,32.75c0.2,1.5-0.07,2.39-1.06,3.54C1458.0700000000002,42 1448.63,50.9 1434.25,56" style="fill:none;stroke:#999;stroke-width:3" />
<path d="M1461.12,41.93c1.68,0.4,1.97,0.65,4.41,0.5c6.72-0.42,12.74-2.13,16.57-2.8c3.07-0.54,3.91,1.25,2.28,3.1c-7.1,8.08-24.65,20.1-50.97,28.03" style="fill:none;stroke:#999;stroke-width:3" />
<path d="M1454.75,47.5c1.33,0.53,6.65,3.68,9.32,6.83" style="fill:none;stroke:#999;stroke-width:3" />
<path d="M1444.8,53.38c1.49,0.98,5.97,5.16,7.22,7.38" style="fill:none;stroke:#999;stroke-width:3" />
<path d="M1456.33,64.06c0.03,0.29,0.06,0.75-0.05,1.18c-0.67,2.48-4.51,7.93-9.77,11.26" style="fill:none;stroke:#999;stroke-width:3" />
<path d="M1457.95,68.31c0.87,0.14,2.47,0.21,3.34,0.14c11.45-0.95,23.99-2.89,33.59-3.38c1.44-0.07,2.33,0.07,3.05,0.14" style="fill:none;stroke:#999;stroke-width:3" />
<path d="M1432.88,81.42c1.51,0.3,4.28,0.34,5.79,0.3c15.71-0.5,46.49-4.34,69.43-4.45c2.52-0.01,4.03,0.14,5.28,0.29" style="fill:none;stroke:#999;stroke-width:3" />
<path d="M1471.19,69.08c0.83,0.67,1.28,1.66,1.28,2.58c0,3.24-0.09,22.6-0.22,25.34" style="fill:none;stroke:#999;stroke-width:3" />
<path d="M1446.19,87.47c0.7,0.21,1.4,1.11,1.39,1.54c-0.07,2.65-0.88,5.29-1.94,9.87c-0.22,0.96-0.29,2.16,1.38,1.77c15.73-3.65,42.04-5.4,50.76-5.52" style="fill:none;stroke:black;stroke-width:3" />
<circle cx="1446.19" cy="87.47" r="5" stroke-width="0" fill="#FF2A00" opacity="0.7" />
<path d="M1577.98,8.25c0.99,0.34,2.4,1.98,2.38,2.95c-0.07,3.05-0.07,5.24-0.08,8.02" style="fill:none;stroke:#999;stroke-width:3" />
<path d="M1545.23,21.01c0,3.23-2.88,12.09-4.18,14.24" style="fill:none;stroke:#999;stroke-width:3" />
<path d="M1545.37,22.74c12.8-1.99,58-5.49,67.34-5.38c12.09,0.14,2.56,6.41-0.45,8.3" style="fill:none;stroke:#999;stroke-width:3" />
<path d="M1568.13,23.25c0.06,0.41,0.23,1.11-0.11,1.66C1564.83,30 1558.1399999999999,35.86 1547.75,40.75" style="fill:none;stroke:#999;stroke-width:3" />
<path d="M1587.3400000000001,20.37c0.43,0.49,0.79,1.07,0.79,1.83c0,2.01,0.2,5.04,0.2,7.34c0,5.38,6.21,4.77,11.27,4.77c5.34,0,9.93-0.69,10.67-1.09" style="fill:none;stroke:#999;stroke-width:3" />
<path d="M1573.05,32.75c0.2,1.5-0.07,2.39-1.06,3.54C1567.0700000000002,42 1557.63,50.9 1543.25,56" style="fill:none;stroke:#999;stroke-width:3" />
<path d="M1570.12,41.93c1.68,0.4,1.97,0.65,4.41,0.5c6.72-0.42,12.74-2.13,16.57-2.8c3.07-0.54,3.91,1.25,2.28,3.1c-7.1,8.08-24.65,20.1-50.97,28.03" style="fill:none;stroke:#999;stroke-width:3" />
<path d="M1563.75,47.5c1.33,0.53,6.65,3.68,9.32,6.83" style="fill:none;stroke:#999;stroke-width:3" />
<path d="M1553.8,53.38c1.49,0.98,5.97,5.16,7.22,7.38" style="fill:none;stroke:#999;stroke-width:3" />
<path d="M1565.33,64.06c0.03,0.29,0.06,0.75-0.05,1.18c-0.67,2.48-4.51,7.93-9.77,11.26" style="fill:none;stroke:#999;stroke-width:3" />
<path d="M1566.95,68.31c0.87,0.14,2.47,0.21,3.34,0.14c11.45-0.95,23.99-2.89,33.59-3.38c1.44-0.07,2.33,0.07,3.05,0.14" style="fill:none;stroke:#999;stroke-width:3" />
<path d="M1541.88,81.42c1.51,0.3,4.28,0.34,5.79,0.3c15.71-0.5,46.49-4.34,69.43-4.45c2.52-0.01,4.03,0.14,5.28,0.29" style="fill:none;stroke:#999;stroke-width:3" />
<path d="M1580.19,69.08c0.83,0.67,1.28,1.66,1.28,2.58c0,3.24-0.09,22.6-0.22,25.34" style="fill:none;stroke:#999;stroke-width:3" />
<path d="M1555.19,87.47c0.7,0.21,1.4,1.11,1.39,1.54c-0.07,2.65-0.88,5.29-1.94,9.87c-0.22,0.96-0.29,2.16,1.38,1.77c15.73-3.65,42.04-5.4,50.76-5.52" style="fill:none;stroke:#999;stroke-width:3" />
<path d="M1607.32,82.87c0.18,0.88,1.49,2.64,1.34,3.08c-0.91,2.69-1.2,7.6-1.99,13.21" style="fill:none;stroke:black;stroke-width:3" />
<circle cx="1607.32" cy="82.87" r="5" stroke-width="0" fill="#FF2A00" opacity="0.7" />
</svg>