<!-- 07adc -->
<svg width="1090px" height="109px" viewBox="0 0 1090px 109px" xmlns="http://www.w3.org/2000/svg" xmlns:xlink="http://www.w3.org/1999/xlink" xml:space="preserve" version="1.1"  baseProfile="full">
<line x1="1" y1="1" x2="1089" y2="1" style="stroke:#ddd;stroke-width:2" />
<line x1="1" y1="1" x2="1" y2="108" style="stroke:#ddd;stroke-width:2" />
<line x1="1" y1="108" x2="1089" y2="108" style="stroke:#ddd;stroke-width:2" />
<line x1="1089" y1="1" x2="1089" y2="108" style="stroke:#ddd;stroke-width:2" />
<line x1="109" y1="1" x2="109" y2="108" style="stroke:#ddd;stroke-width:2" />
<line x1="218" y1="1" x2="218" y2="108" style="stroke:#ddd;stroke-width:2" />
<line x1="327" y1="1" x2="327" y2="108" style="stroke:#ddd;stroke-width:2" />
<line x1="436" y1="1" x2="436" y2="108" style="stroke:#ddd;stroke-width:2" />
<line x1="545" y1="1" x2="545" y2="108" style="stroke:#ddd;stroke-width:2" />
<line x1="654" y1="1" x2="654" y2="108" style="stroke:#ddd;stroke-width:2" />
<line x1="763" y1="1" x2="763" y2="108" style="stroke:#ddd;stroke-width:2" />
<line x1="872" y1="1" x2="872" y2="108" style="stroke:#ddd;stroke-width:2" />
<line x1="981" y1="1" x2="981" y2="108" style="stroke:#ddd;stroke-width:2" />
<line x1="1" y1="54" x2="1089" y2="54" style="stroke:#ddd;stroke-width:2;stroke-dasharray:3 3" />
<line x1="55" y1="1" x2="55" y2="108" style="stroke:#ddd;stroke-width:2;stroke-dasharray:3 3" />
<line x1="164" y1="1" x2="164" y2="108" style="stroke:#ddd;stroke-width:2;stroke-dasharray:3 3" />
<line x1="273" y1="1" x2="273" y2="108" style="stroke:#ddd;stroke-width:2;stroke-dasharray:3 3" />
<line x1="382" y1="1" x2="382" y2="108" style="stroke:#ddd;stroke-width:2;stroke-dasharray:3 3" />
<line x1="491" y1="1" x2="491" y2="108" style="stroke:#ddd;stroke-width:2;stroke-dasharray:3 3" />
<line x1="600" y1="1" x2="600" y2="108" style="stroke:#ddd;stroke-width:2;stroke-dasharray:3 3" />
<line x1="709" y1="1" x2="709" y2="108" style="stroke:#ddd;stroke-width:2;stroke-dasharray:3 3" />
<line x1="818" y1="1" x2="818" y2="108" style="stroke:#ddd;stroke-width:2;stroke-dasharray:3 3" />
<line x1="927" y1="1" x2="927" y2="108" style="stroke:#ddd;stroke-width:2;stroke-dasharray:3 3" />
<line x1="1036" y1="1" x2="1036" y2="108" style="stroke:#ddd;stroke-width:2;stroke-dasharray:3 3" />
<path d="M52.44,11c1.22,1.22,1.44,2.54,1.44,4.54c0,3.18,0,3.46,0,6.62" style="fill:none;stroke:black;stroke-width:3" />
<circle cx="52.44" cy="11.0" r="5" stroke-width="0" fill="#FF2A00" opacity="0.7" />
<path d="M161.44,11c1.22,1.22,1.44,2.54,1.44,4.54c0,3.18,0,3.46,0,6.62" style="fill:none;stroke:#999;stroke-width:3" />
<path d="M138.82,24.83c1.9,0.53,4.5,0.41,6.46,0.22c8.53-0.82,27.56-2.89,36.73-3.51c2.19-0.15,4.36-0.04,6.54,0.33" style="fill:none;stroke:black;stroke-width:3" />
<circle cx="138.82" cy="24.83" r="5" stroke-width="0" fill="#FF2A00" opacity="0.7" />
<path d="M270.44,11c1.22,1.22,1.44,2.54,1.44,4.54c0,3.18,0,3.46,0,6.62" style="fill:none;stroke:#999;stroke-width:3" />
<path d="M247.82,24.83c1.9,0.53,4.5,0.41,6.46,0.22c8.53-0.82,27.56-2.89,36.73-3.51c2.19-0.15,4.36-0.04,6.54,0.33" style="fill:none;stroke:#999;stroke-width:3" />
<path d="M256.5,28c3.51,4.94,5.74,10.88,6.06,14.14" style="fill:none;stroke:black;stroke-width:3" />
<circle cx="256.5" cy="28.0" r="5" stroke-width="0" fill="#FF2A00" opacity="0.7" />
<path d="M379.44,11c1.22,1.22,1.44,2.54,1.44,4.54c0,3.18,0,3.46,0,6.62" style="fill:none;stroke:#999;stroke-width:3" />
<path d="M356.82,24.83c1.9,0.53,4.5,0.41,6.46,0.22c8.53-0.82,27.56-2.89,36.73-3.51c2.19-0.15,4.36-0.04,6.54,0.33" style="fill:none;stroke:#999;stroke-width:3" />
<path d="M365.5,28c3.51,4.94,5.74,10.88,6.06,14.14" style="fill:none;stroke:#999;stroke-width:3" />
<path d="M395.37,25.54c0.13,0.84,0.05,1.89-0.11,2.34c-1.63,4.62-4.49,10.36-5.77,12.85" style="fill:none;stroke:black;stroke-width:3" />
<circle cx="395.37" cy="25.54" r="5" stroke-width="0" fill="#FF2A00" opacity="0.7" />
<path d="M488.44,11c1.22,1.22,1.44,2.54,1.44,4.54c0,3.18,0,3.46,0,6.62" style="fill:none;stroke:#999;stroke-width:3" />
<path d="M465.82,24.83c1.9,0.53,4.5,0.41,6.46,0.22c8.53-0.82,27.56-2.89,36.73-3.51c2.19-0.15,4.36-0.04,6.54,0.33" style="fill:none;stroke:#999;stroke-width:3" />
<path d="M474.5,28c3.51,4.94,5.74,10.88,6.06,14.14" style="fill:none;stroke:#999;stroke-width:3" />
<path d="M504.37,25.54c0.13,0.84,0.05,1.89-0.11,2.34c-1.63,4.62-4.49,10.36-5.77,12.85" style="fill:none;stroke:#999;stroke-width:3" />
<path d="M452.33,46.32c3.05,0.82,6.69,0.43,9.79,0.16c15.18-1.3,39.37-3.48,55.63-4.36c3.42-0.19,6.77-0.19,10.17,0.36" style="fill:none;stroke:black;stroke-width:3" />
<circle cx="452.33" cy="46.32" r="5" stroke-width="0" fill="#FF2A00" opacity="0.7" />
<path d="M597.44,11c1.22,1.22,1.44,2.54,1.44,4.54c0,3.18,0,3.46,0,6.62" style="fill:none;stroke:#999;stroke-width:3" />
<path d="M574.8199999999999,24.83c1.9,0.53,4.5,0.41,6.46,0.22c8.53-0.82,27.56-2.89,36.73-3.51c2.19-0.15,4.36-0.04,6.54,0.33" style="fill:none;stroke:#999;stroke-width:3" />
<path d="M583.5,28c3.51,4.94,5.74,10.88,6.06,14.14" style="fill:none;stroke:#999;stroke-width:3" />
<path d="M613.37,25.54c0.13,0.84,0.05,1.89-0.11,2.34c-1.63,4.62-4.49,10.36-5.77,12.85" style="fill:none;stroke:#999;stroke-width:3" />
<path d="M561.3299999999999,46.32c3.05,0.82,6.69,0.43,9.79,0.16c15.18-1.3,39.37-3.48,55.63-4.36c3.42-0.19,6.77-0.19,10.17,0.36" style="fill:none;stroke:#999;stroke-width:3" />
<path d="M574.03,56.78c0.78,0.78,1.09,1.85,1.3,3.23c0.87,5.88,2.29,13.08,3.14,20.25c0.16,1.38,0.32,2.71,0.46,3.95" style="fill:none;stroke:black;stroke-width:3" />
<circle cx="574.03" cy="56.78" r="5" stroke-width="0" fill="#FF2A00" opacity="0.7" />
<path d="M706.44,11c1.22,1.22,1.44,2.54,1.44,4.54c0,3.18,0,3.46,0,6.62" style="fill:none;stroke:#999;stroke-width:3" />
<path d="M683.8199999999999,24.83c1.9,0.53,4.5,0.41,6.46,0.22c8.53-0.82,27.56-2.89,36.73-3.51c2.19-0.15,4.36-0.04,6.54,0.33" style="fill:none;stroke:#999;stroke-width:3" />
<path d="M692.5,28c3.51,4.94,5.74,10.88,6.06,14.14" style="fill:none;stroke:#999;stroke-width:3" />
<path d="M722.37,25.54c0.13,0.84,0.05,1.89-0.11,2.34c-1.63,4.62-4.49,10.36-5.77,12.85" style="fill:none;stroke:#999;stroke-width:3" />
<path d="M670.3299999999999,46.32c3.05,0.82,6.69,0.43,9.79,0.16c15.18-1.3,39.37-3.48,55.63-4.36c3.42-0.19,6.77-0.19,10.17,0.36" style="fill:none;stroke:#999;stroke-width:3" />
<path d="M683.03,56.78c0.78,0.78,1.09,1.85,1.3,3.23c0.87,5.88,2.29,13.08,3.14,20.25c0.16,1.38,0.32,2.71,0.46,3.95" style="fill:none;stroke:#999;stroke-width:3" />
<path d="M684.69,58.15c14.94-1.65,32.94-3.52,43.81-4.36c2.64-0.2,4.8,1.66,4.36,4.33c-0.65,4.03-2.17,11.45-3.7,18.17c-0.36,1.58-0.69,3.1-0.97,4.51" style="fill:none;stroke:black;stroke-width:3" />
<circle cx="684.69" cy="58.15" r="5" stroke-width="0" fill="#FF2A00" opacity="0.7" />
<path d="M815.44,11c1.22,1.22,1.44,2.54,1.44,4.54c0,3.18,0,3.46,0,6.62" style="fill:none;stroke:#999;stroke-width:3" />
<path d="M792.8199999999999,24.83c1.9,0.53,4.5,0.41,6.46,0.22c8.53-0.82,27.56-2.89,36.73-3.51c2.19-0.15,4.36-0.04,6.54,0.33" style="fill:none;stroke:#999;stroke-width:3" />
<path d="M801.5,28c3.51,4.94,5.74,10.88,6.06,14.14" style="fill:none;stroke:#999;stroke-width:3" />
<path d="M831.37,25.54c0.13,0.84,0.05,1.89-0.11,2.34c-1.63,4.62-4.49,10.36-5.77,12.85" style="fill:none;stroke:#999;stroke-width:3" />
<path d="M779.3299999999999,46.32c3.05,0.82,6.69,0.43,9.79,0.16c15.18-1.3,39.37-3.48,55.63-4.36c3.42-0.19,6.77-0.19,10.17,0.36" style="fill:none;stroke:#999;stroke-width:3" />
<path d="M792.03,56.78c0.78,0.78,1.09,1.85,1.3,3.23c0.87,5.88,2.29,13.08,3.14,20.25c0.16,1.38,0.32,2.71,0.46,3.95" style="fill:none;stroke:#999;stroke-width:3" />
<path d="M793.69,58.15c14.94-1.65,32.94-3.52,43.81-4.36c2.64-0.2,4.8,1.66,4.36,4.33c-0.65,4.03-2.17,11.45-3.7,18.17c-0.36,1.58-0.69,3.1-0.97,4.51" style="fill:none;stroke:#999;stroke-width:3" />
<path d="M796.0,69.83c5.88-0.7,35.88-3.2,42.76-3.47" style="fill:none;stroke:black;stroke-width:3" />
<circle cx="796.0" cy="69.83" r="5" stroke-width="0" fill="#FF2A00" opacity="0.7" />
<path d="M924.44,11c1.22,1.22,1.44,2.54,1.44,4.54c0,3.18,0,3.46,0,6.62" style="fill:none;stroke:#999;stroke-width:3" />
<path d="M901.8199999999999,24.83c1.9,0.53,4.5,0.41,6.46,0.22c8.53-0.82,27.56-2.89,36.73-3.51c2.19-0.15,4.36-0.04,6.54,0.33" style="fill:none;stroke:#999;stroke-width:3" />
<path d="M910.5,28c3.51,4.94,5.74,10.88,6.06,14.14" style="fill:none;stroke:#999;stroke-width:3" />
<path d="M940.37,25.54c0.13,0.84,0.05,1.89-0.11,2.34c-1.63,4.62-4.49,10.36-5.77,12.85" style="fill:none;stroke:#999;stroke-width:3" />
<path d="M888.3299999999999,46.32c3.05,0.82,6.69,0.43,9.79,0.16c15.18-1.3,39.37-3.48,55.63-4.36c3.42-0.19,6.77-0.19,10.17,0.36" style="fill:none;stroke:#999;stroke-width:3" />
<path d="M901.03,56.78c0.78,0.78,1.09,1.85,1.3,3.23c0.87,5.88,2.29,13.08,3.14,20.25c0.16,1.38,0.32,2.71,0.46,3.95" style="fill:none;stroke:#999;stroke-width:3" />
<path d="M902.69,58.15c14.94-1.65,32.94-3.52,43.81-4.36c2.64-0.2,4.8,1.66,4.36,4.33c-0.65,4.03-2.17,11.45-3.7,18.17c-0.36,1.58-0.69,3.1-0.97,4.51" style="fill:none;stroke:#999;stroke-width:3" />
<path d="M905.0,69.83c5.88-0.7,35.88-3.2,42.76-3.47" style="fill:none;stroke:#999;stroke-width:3" />
<path d="M907.07,81.7c9.95-0.69,26.33-2.12,38.06-2.7" style="fill:none;stroke:black;stroke-width:3" />
<circle cx="907.07" cy="81.7" r="5" stroke-width="0" fill="#FF2A00" opacity="0.7" />
<path d="M1033.44,11c1.22,1.22,1.44,2.54,1.44,4.54c0,3.18,0,3.46,0,6.62" style="fill:none;stroke:#999;stroke-width:3" />
<path d="M1010.8199999999999,24.83c1.9,0.53,4.5,0.41,6.46,0.22c8.53-0.82,27.56-2.89,36.73-3.51c2.19-0.15,4.36-0.04,6.54,0.33" style="fill:none;stroke:#999;stroke-width:3" />
<path d="M1019.5,28c3.51,4.94,5.74,10.88,6.06,14.14" style="fill:none;stroke:#999;stroke-width:3" />
<path d="M1049.37,25.54c0.13,0.84,0.05,1.89-0.11,2.34c-1.63,4.62-4.49,10.36-5.77,12.85" style="fill:none;stroke:#999;stroke-width:3" />
<path d="M997.3299999999999,46.32c3.05,0.82,6.69,0.43,9.79,0.16c15.18-1.3,39.37-3.48,55.63-4.36c3.42-0.19,6.77-0.19,10.17,0.36" style="fill:none;stroke:#999;stroke-width:3" />
<path d="M1010.03,56.78c0.78,0.78,1.09,1.85,1.3,3.23c0.87,5.88,2.29,13.08,3.14,20.25c0.16,1.38,0.32,2.71,0.46,3.95" style="fill:none;stroke:#999;stroke-width:3" />
<path d="M1011.69,58.15c14.94-1.65,32.94-3.52,43.81-4.36c2.64-0.2,4.8,1.66,4.36,4.33c-0.65,4.03-2.17,11.45-3.7,18.17c-0.36,1.58-0.69,3.1-0.97,4.51" style="fill:none;stroke:#999;stroke-width:3" />
<path d="M1014.0,69.83c5.88-0.7,35.88-3.2,42.76-3.47" style="fill:none;stroke:#999;stroke-width:3" />
<path d="M1016.07,81.7c9.95-0.69,26.33-2.12,38.06-2.7" style="fill:none;stroke:#999;stroke-width:3" />
<path d="M1033.74,58.62c0.82,0.82,0.88,2.09,0.88,3.93c0,4.08-0.03,16.14-0.03,21.7c0,11.38,1.29,13.28,18.92,13.28c16.75,0,18.64-1.53,18.64-10.37" style="fill:none;stroke:black;stroke-width:3" />
<circle cx="1033.74" cy="58.62" r="5" stroke-width="0" fill="#FF2A00" opacity="0.7" />
</svg>