<!-- 07af9 -->
<svg width="654px" height="109px" viewBox="0 0 654px 109px" xmlns="http://www.w3.org/2000/svg" xmlns:xlink="http://www.w3.org/1999/xlink" xml:space="preserve" version="1.1"  baseProfile="full">
<line x1="1" y1="1" x2="653" y2="1" style="stroke:#ddd;stroke-width:2" />
<line x1="1" y1="1" x2="1" y2="108" style="stroke:#ddd;stroke-width:2" />
<line x1="1" y1="108" x2="653" y2="108" style="stroke:#ddd;stroke-width:2" />
<line x1="653" y1="1" x2="653" y2="108" style="stroke:#ddd;stroke-width:2" />
<line x1="109" y1="1" x2="109" y2="108" style="stroke:#ddd;stroke-width:2" />
<line x1="218" y1="1" x2="218" y2="108" style="stroke:#ddd;stroke-width:2" />
<line x1="327" y1="1" x2="327" y2="108" style="stroke:#ddd;stroke-width:2" />
<line x1="436" y1="1" x2="436" y2="108" style="stroke:#ddd;stroke-width:2" />
<line x1="545" y1="1" x2="545" y2="108" style="stroke:#ddd;stroke-width:2" />
<line x1="1" y1="54" x2="653" y2="54" style="stroke:#ddd;stroke-width:2;stroke-dasharray:3 3" />
<line x1="55" y1="1" x2="55" y2="108" style="stroke:#ddd;stroke-width:2;stroke-dasharray:3 3" />
<line x1="164" y1="1" x2="164" y2="108" style="stroke:#ddd;stroke-width:2;stroke-dasharray:3 3" />
<line x1="273" y1="1" x2="273" y2="108" style="stroke:#ddd;stroke-width:2;stroke-dasharray:3 3" />
<line x1="382" y1="1" x2="382" y2="108" style="stroke:#ddd;stroke-width:2;stroke-dasharray:3 3" />
<line x1="491" y1="1" x2="491" y2="108" style="stroke:#ddd;stroke-width:2;stroke-dasharray:3 3" />
<line x1="600" y1="1" x2="600" y2="108" style="stroke:#ddd;stroke-width:2;stroke-dasharray:3 3" />
<path d="M30.2,16.43c0.17,0.95,0.19,2.1-0.09,3.24c-1.74,7.09-7.28,22.56-15.48,31.74" style="fill:none;stroke:black;stroke-width:3" />
<circle cx="30.2" cy="16.43" r="5" stroke-width="0" fill="#FF2A00" opacity="0.7" />
<path d="M139.2,16.43c0.17,0.95,0.19,2.1-0.09,3.24c-1.74,7.09-7.28,22.56-15.48,31.74" style="fill:none;stroke:#999;stroke-width:3" />
<path d="M133.48,43.58c6.14,0.04,14.59-2.46,21.58-3.72c1.9-0.34,3.43-0.56,4.32-0.56" style="fill:none;stroke:black;stroke-width:3" />
<circle cx="133.48" cy="43.58" r="5" stroke-width="0" fill="#FF2A00" opacity="0.7" />
<path d="M248.2,16.43c0.17,0.95,0.19,2.1-0.09,3.24c-1.74,7.09-7.28,22.56-15.48,31.74" style="fill:none;stroke:#999;stroke-width:3" />
<path d="M242.48,43.58c6.14,0.04,14.59-2.46,21.58-3.72c1.9-0.34,3.43-0.56,4.32-0.56" style="fill:none;stroke:#999;stroke-width:3" />
<path d="M253.21,45.61c0.96,0.96,1.55,2.39,1.55,4.13c0,10.53-0.09,29.94-0.24,40.26c-0.04,3.02-0.07,4.71-0.07,5.62" style="fill:none;stroke:black;stroke-width:3" />
<circle cx="253.21" cy="45.61" r="5" stroke-width="0" fill="#FF2A00" opacity="0.7" />
<path d="M357.2,16.43c0.17,0.95,0.19,2.1-0.09,3.24c-1.74,7.09-7.28,22.56-15.48,31.74" style="fill:none;stroke:#999;stroke-width:3" />
<path d="M351.48,43.58c6.14,0.04,14.59-2.46,21.58-3.72c1.9-0.34,3.43-0.56,4.32-0.56" style="fill:none;stroke:#999;stroke-width:3" />
<path d="M362.21000000000004,45.61c0.96,0.96,1.55,2.39,1.55,4.13c0,10.53-0.09,29.94-0.24,40.26c-0.04,3.02-0.07,4.71-0.07,5.62" style="fill:none;stroke:#999;stroke-width:3" />
<path d="M395.7,11.68c0.43,1.2,0.21,2.55-0.1,3.79C393.25,24.75 386.75,38 378.14,49.4" style="fill:none;stroke:black;stroke-width:3" />
<circle cx="395.7" cy="11.68" r="5" stroke-width="0" fill="#FF2A00" opacity="0.7" />
<path d="M466.2,16.43c0.17,0.95,0.19,2.1-0.09,3.24c-1.74,7.09-7.28,22.56-15.48,31.74" style="fill:none;stroke:#999;stroke-width:3" />
<path d="M460.48,43.58c6.14,0.04,14.59-2.46,21.58-3.72c1.9-0.34,3.43-0.56,4.32-0.56" style="fill:none;stroke:#999;stroke-width:3" />
<path d="M471.21000000000004,45.61c0.96,0.96,1.55,2.39,1.55,4.13c0,10.53-0.09,29.94-0.24,40.26c-0.04,3.02-0.07,4.71-0.07,5.62" style="fill:none;stroke:#999;stroke-width:3" />
<path d="M504.7,11.68c0.43,1.2,0.21,2.55-0.1,3.79C502.25,24.75 495.75,38 487.14,49.4" style="fill:none;stroke:#999;stroke-width:3" />
<path d="M500.48,36.08c8.14,0.04,20.64-3.08,28.54-4.71c2.1-0.43,3.83-0.57,4.86-0.57" style="fill:none;stroke:black;stroke-width:3" />
<circle cx="500.48" cy="36.08" r="5" stroke-width="0" fill="#FF2A00" opacity="0.7" />
<path d="M575.2,16.43c0.17,0.95,0.19,2.1-0.09,3.24c-1.74,7.09-7.28,22.56-15.48,31.74" style="fill:none;stroke:#999;stroke-width:3" />
<path d="M569.48,43.58c6.14,0.04,14.59-2.46,21.58-3.72c1.9-0.34,3.43-0.56,4.32-0.56" style="fill:none;stroke:#999;stroke-width:3" />
<path d="M580.21,45.61c0.96,0.96,1.55,2.39,1.55,4.13c0,10.53-0.09,29.94-0.24,40.26c-0.04,3.02-0.07,4.71-0.07,5.62" style="fill:none;stroke:#999;stroke-width:3" />
<path d="M613.7,11.68c0.43,1.2,0.21,2.55-0.1,3.79C611.25,24.75 604.75,38 596.14,49.4" style="fill:none;stroke:#999;stroke-width:3" />
<path d="M609.48,36.08c8.14,0.04,20.64-3.08,28.54-4.71c2.1-0.43,3.83-0.57,4.86-0.57" style="fill:none;stroke:#999;stroke-width:3" />
<path d="M621.77,37.83c1.08,1.08,2.01,2.79,2.01,5.02c0,14.56-0.01,42.16-0.01,47.12c0,11.03-4.89,4.66-7.96,1" style="fill:none;stroke:black;stroke-width:3" />
<circle cx="621.77" cy="37.83" r="5" stroke-width="0" fill="#FF2A00" opacity="0.7" />
</svg>