<!-- 07b92 -->
<svg width="1526px" height="109px" viewBox="0 0 1526px 109px" xmlns="http://www.w3.org/2000/svg" xmlns:xlink="http://www.w3.org/1999/xlink" xml:space="preserve" version="1.1"  baseProfile="full">
<line x1="1" y1="1" x2="1525" y2="1" style="stroke:#ddd;stroke-width:2" />
<line x1="1" y1="1" x2="1" y2="108" style="stroke:#ddd;stroke-width:2" />
<line x1="1" y1="108" x2="1525" y2="108" style="stroke:#ddd;stroke-width:2" />
<line x1="1525" y1="1" x2="1525" y2="108" style="stroke:#ddd;stroke-width:2" />
<line x1="109" y1="1" x2="109" y2="108" style="stroke:#ddd;stroke-width:2" />
<line x1="218" y1="1" x2="218" y2="108" style="stroke:#ddd;stroke-width:2" />
<line x1="327" y1="1" x2="327" y2="108" style="stroke:#ddd;stroke-width:2" />
<line x1="436" y1="1" x2="436" y2="108" style="stroke:#ddd;stroke-width:2" />
<line x1="545" y1="1" x2="545" y2="108" style="stroke:#ddd;stroke-width:2" />
<line x1="654" y1="1" x2="654" y2="108" style="stroke:#ddd;stroke-width:2" />
<line x1="763" y1="1" x2="763" y2="108" style="stroke:#ddd;stroke-width:2" />
<line x1="872" y1="1" x2="872" y2="108" style="stroke:#ddd;stroke-width:2" />
<line x1="981" y1="1" x2="981" y2="108" style="stroke:#ddd;stroke-width:2" />
<line x1="1090" y1="1" x2="1090" y2="108" style="stroke:#ddd;stroke-width:2" />
<line x1="1199" y1="1" x2="1199" y2="108" style="stroke:#ddd;stroke-width:2" />
<line x1="1308" y1="1" x2="1308" y2="108" style="stroke:#ddd;stroke-width:2" />
<line x1="1417" y1="1" x2="1417" y2="108" style="stroke:#ddd;stroke-width:2" />
<line x1="1" y1="54" x2="1525" y2="54" style="stroke:#ddd;stroke-width:2;stroke-dasharray:3 3" />
<line x1="55" y1="1" x2="55" y2="108" style="stroke:#ddd;stroke-width:2;stroke-dasharray:3 3" />
<line x1="164" y1="1" x2="164" y2="108" style="stroke:#ddd;stroke-width:2;stroke-dasharray:3 3" />
<line x1="273" y1="1" x2="273" y2="108" style="stroke:#ddd;stroke-width:2;stroke-dasharray:3 3" />
<line x1="382" y1="1" x2="382" y2="108" style="stroke:#ddd;stroke-width:2;stroke-dasharray:3 3" />
<line x1="491" y1="1" x2="491" y2="108" style="stroke:#ddd;stroke-width:2;stroke-dasharray:3 3" />
<line x1="600" y1="1" x2="600" y2="108" style="stroke:#ddd;stroke-width:2;stroke-dasharray:3 3" />
<line x1="709" y1="1" x2="709" y2="108" style="stroke:#ddd;stroke-width:2;stroke-dasharray:3 3" />
<line x1="818" y1="1" x2="818" y2="108" style="stroke:#ddd;stroke-width:2;stroke-dasharray:3 3" />
<line x1="927" y1="1" x2="927" y2="108" style="stroke:#ddd;stroke-width:2;stroke-dasharray:3 3" />
<line x1="1036" y1="1" x2="1036" y2="108" style="stroke:#ddd;stroke-width:2;stroke-dasharray:3 3" />
<line x1="1145" y1="1" x2="1145" y2="108" style="stroke:#ddd;stroke-width:2;stroke-dasharray:3 3" />
<line x1="1254" y1="1" x2="1254" y2="108" style="stroke:#ddd;stroke-width:2;stroke-dasharray:3 3" />
<line x1="1363" y1="1" x2="1363" y2="108" style="stroke:#ddd;stroke-width:2;stroke-dasharray:3 3" />
<line x1="1472" y1="1" x2="1472" y2="108" style="stroke:#ddd;stroke-width:2;stroke-dasharray:3 3" />
<path d="M30.76,9.75c0.03,0.47,0.08,1.22-0.07,1.89C29.81,15.63 24.83,24.39 18.0,29.75" style="fill:none;stroke:black;stroke-width:3" />
<circle cx="30.76" cy="9.75" r="5" stroke-width="0" fill="#FF2A00" opacity="0.7" />
<path d="M139.76,9.75c0.03,0.47,0.08,1.22-0.07,1.89C138.81,15.63 133.82999999999998,24.39 127.0,29.75" style="fill:none;stroke:#999;stroke-width:3" />
<path d="M138.98,18.92c4.04,0,16.99-2.05,21.52-2.05" style="fill:none;stroke:black;stroke-width:3" />
<circle cx="138.98" cy="18.92" r="5" stroke-width="0" fill="#FF2A00" opacity="0.7" />
<path d="M248.76,9.75c0.03,0.47,0.08,1.22-0.07,1.89C247.81,15.63 242.82999999999998,24.39 236.0,29.75" style="fill:none;stroke:#999;stroke-width:3" />
<path d="M247.98,18.92c4.04,0,16.99-2.05,21.52-2.05" style="fill:none;stroke:#999;stroke-width:3" />
<path d="M253.52,21.83c1.6,1.35,4.14,5.54,4.54,7.63" style="fill:none;stroke:black;stroke-width:3" />
<circle cx="253.52" cy="21.83" r="5" stroke-width="0" fill="#FF2A00" opacity="0.7" />
<path d="M357.76,9.75c0.03,0.47,0.08,1.22-0.07,1.89C356.81,15.63 351.83,24.39 345.0,29.75" style="fill:none;stroke:#999;stroke-width:3" />
<path d="M356.98,18.92c4.04,0,16.99-2.05,21.52-2.05" style="fill:none;stroke:#999;stroke-width:3" />
<path d="M362.52,21.83c1.6,1.35,4.14,5.54,4.54,7.63" style="fill:none;stroke:#999;stroke-width:3" />
<path d="M389.02,9.75c0.03,0.42,0.15,1.11-0.07,1.7c-1.64,4.46-6.18,10.82-12.2,16.3" style="fill:none;stroke:black;stroke-width:3" />
<circle cx="389.02" cy="9.75" r="5" stroke-width="0" fill="#FF2A00" opacity="0.7" />
<path d="M466.76,9.75c0.03,0.47,0.08,1.22-0.07,1.89C465.81,15.63 460.83,24.39 454.0,29.75" style="fill:none;stroke:#999;stroke-width:3" />
<path d="M465.98,18.92c4.04,0,16.99-2.05,21.52-2.05" style="fill:none;stroke:#999;stroke-width:3" />
<path d="M471.52,21.83c1.6,1.35,4.14,5.54,4.54,7.63" style="fill:none;stroke:#999;stroke-width:3" />
<path d="M498.02,9.75c0.03,0.42,0.15,1.11-0.07,1.7c-1.64,4.46-6.18,10.82-12.2,16.3" style="fill:none;stroke:#999;stroke-width:3" />
<path d="M497.25,18.22C502.22,18.22 520.42,16 526.0,16" style="fill:none;stroke:black;stroke-width:3" />
<circle cx="497.25" cy="18.22" r="5" stroke-width="0" fill="#FF2A00" opacity="0.7" />
<path d="M575.76,9.75c0.03,0.47,0.08,1.22-0.07,1.89C574.81,15.63 569.8299999999999,24.39 563.0,29.75" style="fill:none;stroke:#999;stroke-width:3" />
<path d="M574.98,18.92c4.04,0,16.99-2.05,21.52-2.05" style="fill:none;stroke:#999;stroke-width:3" />
<path d="M580.52,21.83c1.6,1.35,4.14,5.54,4.54,7.63" style="fill:none;stroke:#999;stroke-width:3" />
<path d="M607.02,9.75c0.03,0.42,0.15,1.11-0.07,1.7c-1.64,4.46-6.18,10.82-12.2,16.3" style="fill:none;stroke:#999;stroke-width:3" />
<path d="M606.25,18.22C611.22,18.22 629.42,16 635.0,16" style="fill:none;stroke:#999;stroke-width:3" />
<path d="M622.25,20.25c0.03,0.19,0.06,0.49-0.06,0.76c-0.72,1.6-4.82,5.1-10.44,7.24" style="fill:none;stroke:black;stroke-width:3" />
<circle cx="622.25" cy="20.25" r="5" stroke-width="0" fill="#FF2A00" opacity="0.7" />
<path d="M684.76,9.75c0.03,0.47,0.08,1.22-0.07,1.89C683.81,15.63 678.8299999999999,24.39 672.0,29.75" style="fill:none;stroke:#999;stroke-width:3" />
<path d="M683.98,18.92c4.04,0,16.99-2.05,21.52-2.05" style="fill:none;stroke:#999;stroke-width:3" />
<path d="M689.52,21.83c1.6,1.35,4.14,5.54,4.54,7.63" style="fill:none;stroke:#999;stroke-width:3" />
<path d="M716.02,9.75c0.03,0.42,0.15,1.11-0.07,1.7c-1.64,4.46-6.18,10.82-12.2,16.3" style="fill:none;stroke:#999;stroke-width:3" />
<path d="M715.25,18.22C720.22,18.22 738.42,16 744.0,16" style="fill:none;stroke:#999;stroke-width:3" />
<path d="M731.25,20.25c0.03,0.19,0.06,0.49-0.06,0.76c-0.72,1.6-4.82,5.1-10.44,7.24" style="fill:none;stroke:#999;stroke-width:3" />
<path d="M686.34,34.67c1.47,0.39,2.69,0.78,3.91,0.78s35.72-2.65,37.68-2.85c1.96-0.2,3.39,1.6,2.91,2.95c-1.71,4.89-3.18,11.43-3.91,14.55" style="fill:none;stroke:black;stroke-width:3" />
<circle cx="686.34" cy="34.67" r="5" stroke-width="0" fill="#FF2A00" opacity="0.7" />
<path d="M793.76,9.75c0.03,0.47,0.08,1.22-0.07,1.89C792.81,15.63 787.8299999999999,24.39 781.0,29.75" style="fill:none;stroke:#999;stroke-width:3" />
<path d="M792.98,18.92c4.04,0,16.99-2.05,21.52-2.05" style="fill:none;stroke:#999;stroke-width:3" />
<path d="M798.52,21.83c1.6,1.35,4.14,5.54,4.54,7.63" style="fill:none;stroke:#999;stroke-width:3" />
<path d="M825.02,9.75c0.03,0.42,0.15,1.11-0.07,1.7c-1.64,4.46-6.18,10.82-12.2,16.3" style="fill:none;stroke:#999;stroke-width:3" />
<path d="M824.25,18.22C829.22,18.22 847.42,16 853.0,16" style="fill:none;stroke:#999;stroke-width:3" />
<path d="M840.25,20.25c0.03,0.19,0.06,0.49-0.06,0.76c-0.72,1.6-4.82,5.1-10.44,7.24" style="fill:none;stroke:#999;stroke-width:3" />
<path d="M795.34,34.67c1.47,0.39,2.69,0.78,3.91,0.78s35.72-2.65,37.68-2.85c1.96-0.2,3.39,1.6,2.91,2.95c-1.71,4.89-3.18,11.43-3.91,14.55" style="fill:none;stroke:#999;stroke-width:3" />
<path d="M780.75,44.07c1.42,0.35,4.03,0.41,5.45,0.35c14.8-0.59,38.43-2.99,65.66-3.09c2.37-0.01,3.79,0.17,4.98,0.35" style="fill:none;stroke:black;stroke-width:3" />
<circle cx="780.75" cy="44.07" r="5" stroke-width="0" fill="#FF2A00" opacity="0.7" />
<path d="M902.76,9.75c0.03,0.47,0.08,1.22-0.07,1.89C901.81,15.63 896.8299999999999,24.39 890.0,29.75" style="fill:none;stroke:#999;stroke-width:3" />
<path d="M901.98,18.92c4.04,0,16.99-2.05,21.52-2.05" style="fill:none;stroke:#999;stroke-width:3" />
<path d="M907.52,21.83c1.6,1.35,4.14,5.54,4.54,7.63" style="fill:none;stroke:#999;stroke-width:3" />
<path d="M934.02,9.75c0.03,0.42,0.15,1.11-0.07,1.7c-1.64,4.46-6.18,10.82-12.2,16.3" style="fill:none;stroke:#999;stroke-width:3" />
<path d="M933.25,18.22C938.22,18.22 956.42,16 962.0,16" style="fill:none;stroke:#999;stroke-width:3" />
<path d="M949.25,20.25c0.03,0.19,0.06,0.49-0.06,0.76c-0.72,1.6-4.82,5.1-10.44,7.24" style="fill:none;stroke:#999;stroke-width:3" />
<path d="M904.34,34.67c1.47,0.39,2.69,0.78,3.91,0.78s35.72-2.65,37.68-2.85c1.96-0.2,3.39,1.6,2.91,2.95c-1.71,4.89-3.18,11.43-3.91,14.55" style="fill:none;stroke:#999;stroke-width:3" />
<path d="M889.75,44.07c1.42,0.35,4.03,0.41,5.45,0.35c14.8-0.59,38.43-2.99,65.66-3.09c2.37-0.01,3.79,0.17,4.98,0.35" style="fill:none;stroke:#999;stroke-width:3" />
<path d="M903.97,52.89c0.8,0.22,2.27,0.24,3.07,0.22c10.61-0.26,21.68-2.5,37.03-2.56c1.34,0,2.14,0.11,2.81,0.22" style="fill:none;stroke:black;stroke-width:3" />
<circle cx="903.97" cy="52.89" r="5" stroke-width="0" fill="#FF2A00" opacity="0.7" />
<path d="M1011.76,9.75c0.03,0.47,0.08,1.22-0.07,1.89C1010.81,15.63 1005.8299999999999,24.39 999.0,29.75" style="fill:none;stroke:#999;stroke-width:3" />
<path d="M1010.98,18.92c4.04,0,16.99-2.05,21.52-2.05" style="fill:none;stroke:#999;stroke-width:3" />
<path d="M1016.52,21.83c1.6,1.35,4.14,5.54,4.54,7.63" style="fill:none;stroke:#999;stroke-width:3" />
<path d="M1043.02,9.75c0.03,0.42,0.15,1.11-0.07,1.7c-1.64,4.46-6.18,10.82-12.2,16.3" style="fill:none;stroke:#999;stroke-width:3" />
<path d="M1042.25,18.22C1047.22,18.22 1065.42,16 1071.0,16" style="fill:none;stroke:#999;stroke-width:3" />
<path d="M1058.25,20.25c0.03,0.19,0.06,0.49-0.06,0.76c-0.72,1.6-4.82,5.1-10.44,7.24" style="fill:none;stroke:#999;stroke-width:3" />
<path d="M1013.34,34.67c1.47,0.39,2.69,0.78,3.91,0.78s35.72-2.65,37.68-2.85c1.96-0.2,3.39,1.6,2.91,2.95c-1.71,4.89-3.18,11.43-3.91,14.55" style="fill:none;stroke:#999;stroke-width:3" />
<path d="M998.75,44.07c1.42,0.35,4.03,0.41,5.45,0.35c14.8-0.59,38.43-2.99,65.66-3.09c2.37-0.01,3.79,0.17,4.98,0.35" style="fill:none;stroke:#999;stroke-width:3" />
<path d="M1012.97,52.89c0.8,0.22,2.27,0.24,3.07,0.22c10.61-0.26,21.68-2.5,37.03-2.56c1.34,0,2.14,0.11,2.81,0.22" style="fill:none;stroke:#999;stroke-width:3" />
<path d="M1004.0,58.5c-0.17,4.04-4.29,14.59-5.75,17" style="fill:none;stroke:black;stroke-width:3" />
<circle cx="1004.0" cy="58.5" r="5" stroke-width="0" fill="#FF2A00" opacity="0.7" />
<path d="M1120.76,9.75c0.03,0.47,0.08,1.22-0.07,1.89C1119.81,15.63 1114.83,24.39 1108.0,29.75" style="fill:none;stroke:#999;stroke-width:3" />
<path d="M1119.98,18.92c4.04,0,16.99-2.05,21.52-2.05" style="fill:none;stroke:#999;stroke-width:3" />
<path d="M1125.52,21.83c1.6,1.35,4.14,5.54,4.54,7.63" style="fill:none;stroke:#999;stroke-width:3" />
<path d="M1152.02,9.75c0.03,0.42,0.15,1.11-0.07,1.7c-1.64,4.46-6.18,10.82-12.2,16.3" style="fill:none;stroke:#999;stroke-width:3" />
<path d="M1151.25,18.22C1156.22,18.22 1174.42,16 1180.0,16" style="fill:none;stroke:#999;stroke-width:3" />
<path d="M1167.25,20.25c0.03,0.19,0.06,0.49-0.06,0.76c-0.72,1.6-4.82,5.1-10.44,7.24" style="fill:none;stroke:#999;stroke-width:3" />
<path d="M1122.3400000000001,34.67c1.47,0.39,2.69,0.78,3.91,0.78s35.72-2.65,37.68-2.85c1.96-0.2,3.39,1.6,2.91,2.95c-1.71,4.89-3.18,11.43-3.91,14.55" style="fill:none;stroke:#999;stroke-width:3" />
<path d="M1107.75,44.07c1.42,0.35,4.03,0.41,5.45,0.35c14.8-0.59,38.43-2.99,65.66-3.09c2.37-0.01,3.79,0.17,4.98,0.35" style="fill:none;stroke:#999;stroke-width:3" />
<path d="M1121.97,52.89c0.8,0.22,2.27,0.24,3.07,0.22c10.61-0.26,21.68-2.5,37.03-2.56c1.34,0,2.14,0.11,2.81,0.22" style="fill:none;stroke:#999;stroke-width:3" />
<path d="M1113.0,58.5c-0.17,4.04-4.29,14.59-5.75,17" style="fill:none;stroke:#999;stroke-width:3" />
<path d="M1113.35,62.12c3.44,0,5.32-0.1,8.08-0.21c20.49-0.85,38.97-2.97,56.26-3.05C1188.46,58.81 1176.62,67.45 1175.0,68" style="fill:none;stroke:black;stroke-width:3" />
<circle cx="1113.35" cy="62.12" r="5" stroke-width="0" fill="#FF2A00" opacity="0.7" />
<path d="M1229.76,9.75c0.03,0.47,0.08,1.22-0.07,1.89C1228.81,15.63 1223.83,24.39 1217.0,29.75" style="fill:none;stroke:#999;stroke-width:3" />
<path d="M1228.98,18.92c4.04,0,16.99-2.05,21.52-2.05" style="fill:none;stroke:#999;stroke-width:3" />
<path d="M1234.52,21.83c1.6,1.35,4.14,5.54,4.54,7.63" style="fill:none;stroke:#999;stroke-width:3" />
<path d="M1261.02,9.75c0.03,0.42,0.15,1.11-0.07,1.7c-1.64,4.46-6.18,10.82-12.2,16.3" style="fill:none;stroke:#999;stroke-width:3" />
<path d="M1260.25,18.22C1265.22,18.22 1283.42,16 1289.0,16" style="fill:none;stroke:#999;stroke-width:3" />
<path d="M1276.25,20.25c0.03,0.19,0.06,0.49-0.06,0.76c-0.72,1.6-4.82,5.1-10.44,7.24" style="fill:none;stroke:#999;stroke-width:3" />
<path d="M1231.3400000000001,34.67c1.47,0.39,2.69,0.78,3.91,0.78s35.72-2.65,37.68-2.85c1.96-0.2,3.39,1.6,2.91,2.95c-1.71,4.89-3.18,11.43-3.91,14.55" style="fill:none;stroke:#999;stroke-width:3" />
<path d="M1216.75,44.07c1.42,0.35,4.03,0.41,5.45,0.35c14.8-0.59,38.43-2.99,65.66-3.09c2.37-0.01,3.79,0.17,4.98,0.35" style="fill:none;stroke:#999;stroke-width:3" />
<path d="M1230.97,52.89c0.8,0.22,2.27,0.24,3.07,0.22c10.61-0.26,21.68-2.5,37.03-2.56c1.34,0,2.14,0.11,2.81,0.22" style="fill:none;stroke:#999;stroke-width:3" />
<path d="M1222.0,58.5c-0.17,4.04-4.29,14.59-5.75,17" style="fill:none;stroke:#999;stroke-width:3" />
<path d="M1222.35,62.12c3.44,0,5.32-0.1,8.08-0.21c20.49-0.85,38.97-2.97,56.26-3.05C1297.46,58.81 1285.62,67.45 1284.0,68" style="fill:none;stroke:#999;stroke-width:3" />
<path d="M1229.41,71.44c0.58,0.21,1.91,1.58,1.97,2.02C1232.0,78.5 1232.75,90.25 1233.1,94.78" style="fill:none;stroke:black;stroke-width:3" />
<circle cx="1229.41" cy="71.44" r="5" stroke-width="0" fill="#FF2A00" opacity="0.7" />
<path d="M1338.76,9.75c0.03,0.47,0.08,1.22-0.07,1.89C1337.81,15.63 1332.83,24.39 1326.0,29.75" style="fill:none;stroke:#999;stroke-width:3" />
<path d="M1337.98,18.92c4.04,0,16.99-2.05,21.52-2.05" style="fill:none;stroke:#999;stroke-width:3" />
<path d="M1343.52,21.83c1.6,1.35,4.14,5.54,4.54,7.63" style="fill:none;stroke:#999;stroke-width:3" />
<path d="M1370.02,9.75c0.03,0.42,0.15,1.11-0.07,1.7c-1.64,4.46-6.18,10.82-12.2,16.3" style="fill:none;stroke:#999;stroke-width:3" />
<path d="M1369.25,18.22C1374.22,18.22 1392.42,16 1398.0,16" style="fill:none;stroke:#999;stroke-width:3" />
<path d="M1385.25,20.25c0.03,0.19,0.06,0.49-0.06,0.76c-0.72,1.6-4.82,5.1-10.44,7.24" style="fill:none;stroke:#999;stroke-width:3" />
<path d="M1340.3400000000001,34.67c1.47,0.39,2.69,0.78,3.91,0.78s35.72-2.65,37.68-2.85c1.96-0.2,3.39,1.6,2.91,2.95c-1.71,4.89-3.18,11.43-3.91,14.55" style="fill:none;stroke:#999;stroke-width:3" />
<path d="M1325.75,44.07c1.42,0.35,4.03,0.41,5.45,0.35c14.8-0.59,38.43-2.99,65.66-3.09c2.37-0.01,3.79,0.17,4.98,0.35" style="fill:none;stroke:#999;stroke-width:3" />
<path d="M1339.97,52.89c0.8,0.22,2.27,0.24,3.07,0.22c10.61-0.26,21.68-2.5,37.03-2.56c1.34,0,2.14,0.11,2.81,0.22" style="fill:none;stroke:#999;stroke-width:3" />
<path d="M1331.0,58.5c-0.17,4.04-4.29,14.59-5.75,17" style="fill:none;stroke:#999;stroke-width:3" />
<path d="M1331.35,62.12c3.44,0,5.32-0.1,8.08-0.21c20.49-0.85,38.97-2.97,56.26-3.05C1406.46,58.81 1394.62,67.45 1393.0,68" style="fill:none;stroke:#999;stroke-width:3" />
<path d="M1338.41,71.44c0.58,0.21,1.91,1.58,1.97,2.02C1341.0,78.5 1341.75,90.25 1342.1,94.78" style="fill:none;stroke:#999;stroke-width:3" />
<path d="M1340.59,72.35c3.45-0.15,38.35-2.76,40.93-2.85c3.03-0.11,3.69,1.88,3.58,2.85c-0.55,4.9-1.49,12.21-4,16.81c-2.5,4.57-4.85,0.03-6-0.71" style="fill:none;stroke:black;stroke-width:3" />
<circle cx="1340.59" cy="72.35" r="5" stroke-width="0" fill="#FF2A00" opacity="0.7" />
<path d="M1447.76,9.75c0.03,0.47,0.08,1.22-0.07,1.89C1446.81,15.63 1441.83,24.39 1435.0,29.75" style="fill:none;stroke:#999;stroke-width:3" />
<path d="M1446.98,18.92c4.04,0,16.99-2.05,21.52-2.05" style="fill:none;stroke:#999;stroke-width:3" />
<path d="M1452.52,21.83c1.6,1.35,4.14,5.54,4.54,7.63" style="fill:none;stroke:#999;stroke-width:3" />
<path d="M1479.02,9.75c0.03,0.42,0.15,1.11-0.07,1.7c-1.64,4.46-6.18,10.82-12.2,16.3" style="fill:none;stroke:#999;stroke-width:3" />
<path d="M1478.25,18.22C1483.22,18.22 1501.42,16 1507.0,16" style="fill:none;stroke:#999;stroke-width:3" />
<path d="M1494.25,20.25c0.03,0.19,0.06,0.49-0.06,0.76c-0.72,1.6-4.82,5.1-10.44,7.24" style="fill:none;stroke:#999;stroke-width:3" />
<path d="M1449.3400000000001,34.67c1.47,0.39,2.69,0.78,3.91,0.78s35.72-2.65,37.68-2.85c1.96-0.2,3.39,1.6,2.91,2.95c-1.71,4.89-3.18,11.43-3.91,14.55" style="fill:none;stroke:#999;stroke-width:3" />
<path d="M1434.75,44.07c1.42,0.35,4.03,0.41,5.45,0.35c14.8-0.59,38.43-2.99,65.66-3.09c2.37-0.01,3.79,0.17,4.98,0.35" style="fill:none;stroke:#999;stroke-width:3" />
<path d="M1448.97,52.89c0.8,0.22,2.27,0.24,3.07,0.22c10.61-0.26,21.68-2.5,37.03-2.56c1.34,0,2.14,0.11,2.81,0.22" style="fill:none;stroke:#999;stroke-width:3" />
<path d="M1440.0,58.5c-0.17,4.04-4.29,14.59-5.75,17" style="fill:none;stroke:#999;stroke-width:3" />
<path d="M1440.35,62.12c3.44,0,5.32-0.1,8.08-0.21c20.49-0.85,38.97-2.97,56.26-3.05C1515.46,58.81 1503.62,67.45 1502.0,68" style="fill:none;stroke:#999;stroke-width:3" />
<path d="M1447.41,71.44c0.58,0.21,1.91,1.58,1.97,2.02C1450.0,78.5 1450.75,90.25 1451.1,94.78" style="fill:none;stroke:#999;stroke-width:3" />
<path d="M1449.59,72.35c3.45-0.15,38.35-2.76,40.93-2.85c3.03-0.11,3.69,1.88,3.58,2.85c-0.55,4.9-1.49,12.21-4,16.81c-2.5,4.57-4.85,0.03-6-0.71" style="fill:none;stroke:#999;stroke-width:3" />
<path d="M1470.41,62.24c0.39,0.21,1.22,1.55,1.29,1.97c0.08,0.42-0.05,33.45-0.13,36.04" style="fill:none;stroke:black;stroke-width:3" />
<circle cx="1470.41" cy="62.24" r="5" stroke-width="0" fill="#FF2A00" opacity="0.7" />
</svg>