<!-- 07bc0 -->
<svg width="1417px" height="109px" viewBox="0 0 1417px 109px" xmlns="http://www.w3.org/2000/svg" xmlns:xlink="http://www.w3.org/1999/xlink" xml:space="preserve" version="1.1"  baseProfile="full">
<line x1="1" y1="1" x2="1416" y2="1" style="stroke:#ddd;stroke-width:2" />
<line x1="1" y1="1" x2="1" y2="108" style="stroke:#ddd;stroke-width:2" />
<line x1="1" y1="108" x2="1416" y2="108" style="stroke:#ddd;stroke-width:2" />
<line x1="1416" y1="1" x2="1416" y2="108" style="stroke:#ddd;stroke-width:2" />
<line x1="109" y1="1" x2="109" y2="108" style="stroke:#ddd;stroke-width:2" />
<line x1="218" y1="1" x2="218" y2="108" style="stroke:#ddd;stroke-width:2" />
<line x1="327" y1="1" x2="327" y2="108" style="stroke:#ddd;stroke-width:2" />
<line x1="436" y1="1" x2="436" y2="108" style="stroke:#ddd;stroke-width:2" />
<line x1="545" y1="1" x2="545" y2="108" style="stroke:#ddd;stroke-width:2" />
<line x1="654" y1="1" x2="654" y2="108" style="stroke:#ddd;stroke-width:2" />
<line x1="763" y1="1" x2="763" y2="108" style="stroke:#ddd;stroke-width:2" />
<line x1="872" y1="1" x2="872" y2="108" style="stroke:#ddd;stroke-width:2" />
<line x1="981" y1="1" x2="981" y2="108" style="stroke:#ddd;stroke-width:2" />
<line x1="1090" y1="1" x2="1090" y2="108" style="stroke:#ddd;stroke-width:2" />
<line x1="1199" y1="1" x2="1199" y2="108" style="stroke:#ddd;stroke-width:2" />
<line x1="1308" y1="1" x2="1308" y2="108" style="stroke:#ddd;stroke-width:2" />
<line x1="1" y1="54" x2="1416" y2="54" style="stroke:#ddd;stroke-width:2;stroke-dasharray:3 3" />
<line x1="55" y1="1" x2="55" y2="108" style="stroke:#ddd;stroke-width:2;stroke-dasharray:3 3" />
<line x1="164" y1="1" x2="164" y2="108" style="stroke:#ddd;stroke-width:2;stroke-dasharray:3 3" />
<line x1="273" y1="1" x2="273" y2="108" style="stroke:#ddd;stroke-width:2;stroke-dasharray:3 3" />
<line x1="382" y1="1" x2="382" y2="108" style="stroke:#ddd;stroke-width:2;stroke-dasharray:3 3" />
<line x1="491" y1="1" x2="491" y2="108" style="stroke:#ddd;stroke-width:2;stroke-dasharray:3 3" />
<line x1="600" y1="1" x2="600" y2="108" style="stroke:#ddd;stroke-width:2;stroke-dasharray:3 3" />
<line x1="709" y1="1" x2="709" y2="108" style="stroke:#ddd;stroke-width:2;stroke-dasharray:3 3" />
<line x1="818" y1="1" x2="818" y2="108" style="stroke:#ddd;stroke-width:2;stroke-dasharray:3 3" />
<line x1="927" y1="1" x2="927" y2="108" style="stroke:#ddd;stroke-width:2;stroke-dasharray:3 3" />
<line x1="1036" y1="1" x2="1036" y2="108" style="stroke:#ddd;stroke-width:2;stroke-dasharray:3 3" />
<line x1="1145" y1="1" x2="1145" y2="108" style="stroke:#ddd;stroke-width:2;stroke-dasharray:3 3" />
<line x1="1254" y1="1" x2="1254" y2="108" style="stroke:#ddd;stroke-width:2;stroke-dasharray:3 3" />
<line x1="1363" y1="1" x2="1363" y2="108" style="stroke:#ddd;stroke-width:2;stroke-dasharray:3 3" />
<path d="M29.5,12c0.03,0.46,0.15,1.22-0.07,1.87C27.88,18.5 23.75,25.62 17.0,32.25" style="fill:none;stroke:black;stroke-width:3" />
<circle cx="29.5" cy="12.0" r="5" stroke-width="0" fill="#FF2A00" opacity="0.7" />
<path d="M138.5,12c0.03,0.46,0.15,1.22-0.07,1.87C136.88,18.5 132.75,25.62 126.0,32.25" style="fill:none;stroke:#999;stroke-width:3" />
<path d="M138.48,21.54c3.03,0,12.44-1.44,18.15-1.88c1.28-0.1,2.62-0.03,3.37,0.09" style="fill:none;stroke:black;stroke-width:3" />
<circle cx="138.48" cy="21.54" r="5" stroke-width="0" fill="#FF2A00" opacity="0.7" />
<path d="M247.5,12c0.03,0.46,0.15,1.22-0.07,1.87C245.88,18.5 241.75,25.62 235.0,32.25" style="fill:none;stroke:#999;stroke-width:3" />
<path d="M247.48,21.54c3.03,0,12.44-1.44,18.15-1.88c1.28-0.1,2.62-0.03,3.37,0.09" style="fill:none;stroke:#999;stroke-width:3" />
<path d="M253.02,24.33c1.6,1.44,5.14,6.9,5.54,9.13" style="fill:none;stroke:black;stroke-width:3" />
<circle cx="253.02" cy="24.33" r="5" stroke-width="0" fill="#FF2A00" opacity="0.7" />
<path d="M356.5,12c0.03,0.46,0.15,1.22-0.07,1.87C354.88,18.5 350.75,25.62 344.0,32.25" style="fill:none;stroke:#999;stroke-width:3" />
<path d="M356.48,21.54c3.03,0,12.44-1.44,18.15-1.88c1.28-0.1,2.62-0.03,3.37,0.09" style="fill:none;stroke:#999;stroke-width:3" />
<path d="M362.02,24.33c1.6,1.44,5.14,6.9,5.54,9.13" style="fill:none;stroke:#999;stroke-width:3" />
<path d="M391.0,10c0.03,0.4,0.11,1.04-0.05,1.6c-1.22,4.2-5.73,11.86-10.2,17.02" style="fill:none;stroke:black;stroke-width:3" />
<circle cx="391.0" cy="10.0" r="5" stroke-width="0" fill="#FF2A00" opacity="0.7" />
<path d="M465.5,12c0.03,0.46,0.15,1.22-0.07,1.87C463.88,18.5 459.75,25.62 453.0,32.25" style="fill:none;stroke:#999;stroke-width:3" />
<path d="M465.48,21.54c3.03,0,12.44-1.44,18.15-1.88c1.28-0.1,2.62-0.03,3.37,0.09" style="fill:none;stroke:#999;stroke-width:3" />
<path d="M471.02,24.33c1.6,1.44,5.14,6.9,5.54,9.13" style="fill:none;stroke:#999;stroke-width:3" />
<path d="M500.0,10c0.03,0.4,0.11,1.04-0.05,1.6c-1.22,4.2-5.73,11.86-10.2,17.02" style="fill:none;stroke:#999;stroke-width:3" />
<path d="M500.48,19.91c3.77,0,15.31-2.04,22.63-2.77c1.86-0.19,3.51-0.14,4.77-0.05" style="fill:none;stroke:black;stroke-width:3" />
<circle cx="500.48" cy="19.91" r="5" stroke-width="0" fill="#FF2A00" opacity="0.7" />
<path d="M574.5,12c0.03,0.46,0.15,1.22-0.07,1.87C572.88,18.5 568.75,25.62 562.0,32.25" style="fill:none;stroke:#999;stroke-width:3" />
<path d="M574.48,21.54c3.03,0,12.44-1.44,18.15-1.88c1.28-0.1,2.62-0.03,3.37,0.09" style="fill:none;stroke:#999;stroke-width:3" />
<path d="M580.02,24.33c1.6,1.44,5.14,6.9,5.54,9.13" style="fill:none;stroke:#999;stroke-width:3" />
<path d="M609.0,10c0.03,0.4,0.11,1.04-0.05,1.6c-1.22,4.2-5.73,11.86-10.2,17.02" style="fill:none;stroke:#999;stroke-width:3" />
<path d="M609.48,19.91c3.77,0,15.31-2.04,22.63-2.77c1.86-0.19,3.51-0.14,4.77-0.05" style="fill:none;stroke:#999;stroke-width:3" />
<path d="M620.26,22.25c0.03,0.37,0.07,0.97-0.07,1.51c-0.48,1.87-2.67,5.61-5.69,9.24" style="fill:none;stroke:black;stroke-width:3" />
<circle cx="620.26" cy="22.25" r="5" stroke-width="0" fill="#FF2A00" opacity="0.7" />
<path d="M683.5,12c0.03,0.46,0.15,1.22-0.07,1.87C681.88,18.5 677.75,25.62 671.0,32.25" style="fill:none;stroke:#999;stroke-width:3" />
<path d="M683.48,21.54c3.03,0,12.44-1.44,18.15-1.88c1.28-0.1,2.62-0.03,3.37,0.09" style="fill:none;stroke:#999;stroke-width:3" />
<path d="M689.02,24.33c1.6,1.44,5.14,6.9,5.54,9.13" style="fill:none;stroke:#999;stroke-width:3" />
<path d="M718.0,10c0.03,0.4,0.11,1.04-0.05,1.6c-1.22,4.2-5.73,11.86-10.2,17.02" style="fill:none;stroke:#999;stroke-width:3" />
<path d="M718.48,19.91c3.77,0,15.31-2.04,22.63-2.77c1.86-0.19,3.51-0.14,4.77-0.05" style="fill:none;stroke:#999;stroke-width:3" />
<path d="M729.26,22.25c0.03,0.37,0.07,0.97-0.07,1.51c-0.48,1.87-2.67,5.61-5.69,9.24" style="fill:none;stroke:#999;stroke-width:3" />
<path d="M675.01,41.69c1.36,1.18,4.48,1.15,6.35,0.94c5.56-0.62,15.62-1.58,19.9-2.06c2.93-0.33,4.62,0.13,4.4,3.43c-0.31,4.49-1.5,12.46-2.36,18.88c-0.24,1.79-0.45,3.46-0.61,4.9" style="fill:none;stroke:black;stroke-width:3" />
<circle cx="675.01" cy="41.69" r="5" stroke-width="0" fill="#FF2A00" opacity="0.7" />
<path d="M792.5,12c0.03,0.46,0.15,1.22-0.07,1.87C790.88,18.5 786.75,25.62 780.0,32.25" style="fill:none;stroke:#999;stroke-width:3" />
<path d="M792.48,21.54c3.03,0,12.44-1.44,18.15-1.88c1.28-0.1,2.62-0.03,3.37,0.09" style="fill:none;stroke:#999;stroke-width:3" />
<path d="M798.02,24.33c1.6,1.44,5.14,6.9,5.54,9.13" style="fill:none;stroke:#999;stroke-width:3" />
<path d="M827.0,10c0.03,0.4,0.11,1.04-0.05,1.6c-1.22,4.2-5.73,11.86-10.2,17.02" style="fill:none;stroke:#999;stroke-width:3" />
<path d="M827.48,19.91c3.77,0,15.31-2.04,22.63-2.77c1.86-0.19,3.51-0.14,4.77-0.05" style="fill:none;stroke:#999;stroke-width:3" />
<path d="M838.26,22.25c0.03,0.37,0.07,0.97-0.07,1.51c-0.48,1.87-2.67,5.61-5.69,9.24" style="fill:none;stroke:#999;stroke-width:3" />
<path d="M784.01,41.69c1.36,1.18,4.48,1.15,6.35,0.94c5.56-0.62,15.62-1.58,19.9-2.06c2.93-0.33,4.62,0.13,4.4,3.43c-0.31,4.49-1.5,12.46-2.36,18.88c-0.24,1.79-0.45,3.46-0.61,4.9" style="fill:none;stroke:#999;stroke-width:3" />
<path d="M786.95,54.55c5.43-0.54,19.3-2.05,25.67-2.36" style="fill:none;stroke:black;stroke-width:3" />
<circle cx="786.95" cy="54.55" r="5" stroke-width="0" fill="#FF2A00" opacity="0.7" />
<path d="M901.5,12c0.03,0.46,0.15,1.22-0.07,1.87C899.88,18.5 895.75,25.62 889.0,32.25" style="fill:none;stroke:#999;stroke-width:3" />
<path d="M901.48,21.54c3.03,0,12.44-1.44,18.15-1.88c1.28-0.1,2.62-0.03,3.37,0.09" style="fill:none;stroke:#999;stroke-width:3" />
<path d="M907.02,24.33c1.6,1.44,5.14,6.9,5.54,9.13" style="fill:none;stroke:#999;stroke-width:3" />
<path d="M936.0,10c0.03,0.4,0.11,1.04-0.05,1.6c-1.22,4.2-5.73,11.86-10.2,17.02" style="fill:none;stroke:#999;stroke-width:3" />
<path d="M936.48,19.91c3.77,0,15.31-2.04,22.63-2.77c1.86-0.19,3.51-0.14,4.77-0.05" style="fill:none;stroke:#999;stroke-width:3" />
<path d="M947.26,22.25c0.03,0.37,0.07,0.97-0.07,1.51c-0.48,1.87-2.67,5.61-5.69,9.24" style="fill:none;stroke:#999;stroke-width:3" />
<path d="M893.01,41.69c1.36,1.18,4.48,1.15,6.35,0.94c5.56-0.62,15.62-1.58,19.9-2.06c2.93-0.33,4.62,0.13,4.4,3.43c-0.31,4.49-1.5,12.46-2.36,18.88c-0.24,1.79-0.45,3.46-0.61,4.9" style="fill:none;stroke:#999;stroke-width:3" />
<path d="M895.95,54.55c5.43-0.54,19.3-2.05,25.67-2.36" style="fill:none;stroke:#999;stroke-width:3" />
<path d="M896.16,66.4c7.45-0.87,15.22-1.77,23.71-2.19" style="fill:none;stroke:black;stroke-width:3" />
<circle cx="896.16" cy="66.4" r="5" stroke-width="0" fill="#FF2A00" opacity="0.7" />
<path d="M1010.5,12c0.03,0.46,0.15,1.22-0.07,1.87C1008.88,18.5 1004.75,25.62 998.0,32.25" style="fill:none;stroke:#999;stroke-width:3" />
<path d="M1010.48,21.54c3.03,0,12.44-1.44,18.15-1.88c1.28-0.1,2.62-0.03,3.37,0.09" style="fill:none;stroke:#999;stroke-width:3" />
<path d="M1016.02,24.33c1.6,1.44,5.14,6.9,5.54,9.13" style="fill:none;stroke:#999;stroke-width:3" />
<path d="M1045.0,10c0.03,0.4,0.11,1.04-0.05,1.6c-1.22,4.2-5.73,11.86-10.2,17.02" style="fill:none;stroke:#999;stroke-width:3" />
<path d="M1045.48,19.91c3.77,0,15.31-2.04,22.63-2.77c1.86-0.19,3.51-0.14,4.77-0.05" style="fill:none;stroke:#999;stroke-width:3" />
<path d="M1056.26,22.25c0.03,0.37,0.07,0.97-0.07,1.51c-0.48,1.87-2.67,5.61-5.69,9.24" style="fill:none;stroke:#999;stroke-width:3" />
<path d="M1002.01,41.69c1.36,1.18,4.48,1.15,6.35,0.94c5.56-0.62,15.62-1.58,19.9-2.06c2.93-0.33,4.62,0.13,4.4,3.43c-0.31,4.49-1.5,12.46-2.36,18.88c-0.24,1.79-0.45,3.46-0.61,4.9" style="fill:none;stroke:#999;stroke-width:3" />
<path d="M1004.95,54.55c5.43-0.54,19.3-2.05,25.67-2.36" style="fill:none;stroke:#999;stroke-width:3" />
<path d="M1005.16,66.4c7.45-0.87,15.22-1.77,23.71-2.19" style="fill:none;stroke:#999;stroke-width:3" />
<path d="M1002.51,41.94c0.83,0.84,1.21,2.18,1.21,3.27c0,1.11,0.25,43.93,0.25,46.63c0,3.15,0.42,4.2,3.37,2.31c2.95-1.9,12.41-7.91,19.16-11.83" style="fill:none;stroke:black;stroke-width:3" />
<circle cx="1002.51" cy="41.94" r="5" stroke-width="0" fill="#FF2A00" opacity="0.7" />
<path d="M1119.5,12c0.03,0.46,0.15,1.22-0.07,1.87C1117.88,18.5 1113.75,25.62 1107.0,32.25" style="fill:none;stroke:#999;stroke-width:3" />
<path d="M1119.48,21.54c3.03,0,12.44-1.44,18.15-1.88c1.28-0.1,2.62-0.03,3.37,0.09" style="fill:none;stroke:#999;stroke-width:3" />
<path d="M1125.02,24.33c1.6,1.44,5.14,6.9,5.54,9.13" style="fill:none;stroke:#999;stroke-width:3" />
<path d="M1154.0,10c0.03,0.4,0.11,1.04-0.05,1.6c-1.22,4.2-5.73,11.86-10.2,17.02" style="fill:none;stroke:#999;stroke-width:3" />
<path d="M1154.48,19.91c3.77,0,15.31-2.04,22.63-2.77c1.86-0.19,3.51-0.14,4.77-0.05" style="fill:none;stroke:#999;stroke-width:3" />
<path d="M1165.26,22.25c0.03,0.37,0.07,0.97-0.07,1.51c-0.48,1.87-2.67,5.61-5.69,9.24" style="fill:none;stroke:#999;stroke-width:3" />
<path d="M1111.01,41.69c1.36,1.18,4.48,1.15,6.35,0.94c5.56-0.62,15.62-1.58,19.9-2.06c2.93-0.33,4.62,0.13,4.4,3.43c-0.31,4.49-1.5,12.46-2.36,18.88c-0.24,1.79-0.45,3.46-0.61,4.9" style="fill:none;stroke:#999;stroke-width:3" />
<path d="M1113.95,54.55c5.43-0.54,19.3-2.05,25.67-2.36" style="fill:none;stroke:#999;stroke-width:3" />
<path d="M1114.1599999999999,66.4c7.45-0.87,15.22-1.77,23.71-2.19" style="fill:none;stroke:#999;stroke-width:3" />
<path d="M1111.51,41.94c0.83,0.84,1.21,2.18,1.21,3.27c0,1.11,0.25,43.93,0.25,46.63c0,3.15,0.42,4.2,3.37,2.31c2.95-1.9,12.41-7.91,19.16-11.83" style="fill:none;stroke:#999;stroke-width:3" />
<path d="M1130.81,73.96c3.61,2.6,9.59,11.03,11.24,17.78" style="fill:none;stroke:black;stroke-width:3" />
<circle cx="1130.81" cy="73.96" r="5" stroke-width="0" fill="#FF2A00" opacity="0.7" />
<path d="M1228.5,12c0.03,0.46,0.15,1.22-0.07,1.87C1226.88,18.5 1222.75,25.62 1216.0,32.25" style="fill:none;stroke:#999;stroke-width:3" />
<path d="M1228.48,21.54c3.03,0,12.44-1.44,18.15-1.88c1.28-0.1,2.62-0.03,3.37,0.09" style="fill:none;stroke:#999;stroke-width:3" />
<path d="M1234.02,24.33c1.6,1.44,5.14,6.9,5.54,9.13" style="fill:none;stroke:#999;stroke-width:3" />
<path d="M1263.0,10c0.03,0.4,0.11,1.04-0.05,1.6c-1.22,4.2-5.73,11.86-10.2,17.02" style="fill:none;stroke:#999;stroke-width:3" />
<path d="M1263.48,19.91c3.77,0,15.31-2.04,22.63-2.77c1.86-0.19,3.51-0.14,4.77-0.05" style="fill:none;stroke:#999;stroke-width:3" />
<path d="M1274.26,22.25c0.03,0.37,0.07,0.97-0.07,1.51c-0.48,1.87-2.67,5.61-5.69,9.24" style="fill:none;stroke:#999;stroke-width:3" />
<path d="M1220.01,41.69c1.36,1.18,4.48,1.15,6.35,0.94c5.56-0.62,15.62-1.58,19.9-2.06c2.93-0.33,4.62,0.13,4.4,3.43c-0.31,4.49-1.5,12.46-2.36,18.88c-0.24,1.79-0.45,3.46-0.61,4.9" style="fill:none;stroke:#999;stroke-width:3" />
<path d="M1222.95,54.55c5.43-0.54,19.3-2.05,25.67-2.36" style="fill:none;stroke:#999;stroke-width:3" />
<path d="M1223.1599999999999,66.4c7.45-0.87,15.22-1.77,23.71-2.19" style="fill:none;stroke:#999;stroke-width:3" />
<path d="M1220.51,41.94c0.83,0.84,1.21,2.18,1.21,3.27c0,1.11,0.25,43.93,0.25,46.63c0,3.15,0.42,4.2,3.37,2.31c2.95-1.9,12.41-7.91,19.16-11.83" style="fill:none;stroke:#999;stroke-width:3" />
<path d="M1239.81,73.96c3.61,2.6,9.59,11.03,11.24,17.78" style="fill:none;stroke:#999;stroke-width:3" />
<path d="M1260.25,41.26c1.25,0.49,2.52,0.78,3.98,0.64c6.7-0.68,18.88-2.54,20.65-2.68c3.41-0.26,5.84,0.63,5.54,4.41c-1.02,12.81-2.86,25.13-5.39,34.21c-2.42,8.7-5.4,3.79-7.61,0.49" style="fill:none;stroke:black;stroke-width:3" />
<circle cx="1260.25" cy="41.26" r="5" stroke-width="0" fill="#FF2A00" opacity="0.7" />
<path d="M1337.5,12c0.03,0.46,0.15,1.22-0.07,1.87C1335.88,18.5 1331.75,25.62 1325.0,32.25" style="fill:none;stroke:#999;stroke-width:3" />
<path d="M1337.48,21.54c3.03,0,12.44-1.44,18.15-1.88c1.28-0.1,2.62-0.03,3.37,0.09" style="fill:none;stroke:#999;stroke-width:3" />
<path d="M1343.02,24.33c1.6,1.44,5.14,6.9,5.54,9.13" style="fill:none;stroke:#999;stroke-width:3" />
<path d="M1372.0,10c0.03,0.4,0.11,1.04-0.05,1.6c-1.22,4.2-5.73,11.86-10.2,17.02" style="fill:none;stroke:#999;stroke-width:3" />
<path d="M1372.48,19.91c3.77,0,15.31-2.04,22.63-2.77c1.86-0.19,3.51-0.14,4.77-0.05" style="fill:none;stroke:#999;stroke-width:3" />
<path d="M1383.26,22.25c0.03,0.37,0.07,0.97-0.07,1.51c-0.48,1.87-2.67,5.61-5.69,9.24" style="fill:none;stroke:#999;stroke-width:3" />
<path d="M1329.01,41.69c1.36,1.18,4.48,1.15,6.35,0.94c5.56-0.62,15.62-1.58,19.9-2.06c2.93-0.33,4.62,0.13,4.4,3.43c-0.31,4.49-1.5,12.46-2.36,18.88c-0.24,1.79-0.45,3.46-0.61,4.9" style="fill:none;stroke:#999;stroke-width:3" />
<path d="M1331.95,54.55c5.43-0.54,19.3-2.05,25.67-2.36" style="fill:none;stroke:#999;stroke-width:3" />
<path d="M1332.1599999999999,66.4c7.45-0.87,15.22-1.77,23.71-2.19" style="fill:none;stroke:#999;stroke-width:3" />
<path d="M1329.51,41.94c0.83,0.84,1.21,2.18,1.21,3.27c0,1.11,0.25,43.93,0.25,46.63c0,3.15,0.42,4.2,3.37,2.31c2.95-1.9,12.41-7.91,19.16-11.83" style="fill:none;stroke:#999;stroke-width:3" />
<path d="M1348.81,73.96c3.61,2.6,9.59,11.03,11.24,17.78" style="fill:none;stroke:#999;stroke-width:3" />
<path d="M1369.25,41.26c1.25,0.49,2.52,0.78,3.98,0.64c6.7-0.68,18.88-2.54,20.65-2.68c3.41-0.26,5.84,0.63,5.54,4.41c-1.02,12.81-2.86,25.13-5.39,34.21c-2.42,8.7-5.4,3.79-7.61,0.49" style="fill:none;stroke:#999;stroke-width:3" />
<path d="M1370.87,42.25c1.07,1.06,1.46,2.88,1.46,3.75c0,3.09,0.02,34.6,0.03,48.88c0,2.47,0,4.43,0,5.62" style="fill:none;stroke:black;stroke-width:3" />
<circle cx="1370.87" cy="42.25" r="5" stroke-width="0" fill="#FF2A00" opacity="0.7" />
</svg>