<!-- 07bc7 -->
<svg width="1635px" height="109px" viewBox="0 0 1635px 109px" xmlns="http://www.w3.org/2000/svg" xmlns:xlink="http://www.w3.org/1999/xlink" xml:space="preserve" version="1.1"  baseProfile="full">
<line x1="1" y1="1" x2="1634" y2="1" style="stroke:#ddd;stroke-width:2" />
<line x1="1" y1="1" x2="1" y2="108" style="stroke:#ddd;stroke-width:2" />
<line x1="1" y1="108" x2="1634" y2="108" style="stroke:#ddd;stroke-width:2" />
<line x1="1634" y1="1" x2="1634" y2="108" style="stroke:#ddd;stroke-width:2" />
<line x1="109" y1="1" x2="109" y2="108" style="stroke:#ddd;stroke-width:2" />
<line x1="218" y1="1" x2="218" y2="108" style="stroke:#ddd;stroke-width:2" />
<line x1="327" y1="1" x2="327" y2="108" style="stroke:#ddd;stroke-width:2" />
<line x1="436" y1="1" x2="436" y2="108" style="stroke:#ddd;stroke-width:2" />
<line x1="545" y1="1" x2="545" y2="108" style="stroke:#ddd;stroke-width:2" />
<line x1="654" y1="1" x2="654" y2="108" style="stroke:#ddd;stroke-width:2" />
<line x1="763" y1="1" x2="763" y2="108" style="stroke:#ddd;stroke-width:2" />
<line x1="872" y1="1" x2="872" y2="108" style="stroke:#ddd;stroke-width:2" />
<line x1="981" y1="1" x2="981" y2="108" style="stroke:#ddd;stroke-width:2" />
<line x1="1090" y1="1" x2="1090" y2="108" style="stroke:#ddd;stroke-width:2" />
<line x1="1199" y1="1" x2="1199" y2="108" style="stroke:#ddd;stroke-width:2" />
<line x1="1308" y1="1" x2="1308" y2="108" style="stroke:#ddd;stroke-width:2" />
<line x1="1417" y1="1" x2="1417" y2="108" style="stroke:#ddd;stroke-width:2" />
<line x1="1526" y1="1" x2="1526" y2="108" style="stroke:#ddd;stroke-width:2" />
<line x1="1" y1="54" x2="1634" y2="54" style="stroke:#ddd;stroke-width:2;stroke-dasharray:3 3" />
<line x1="55" y1="1" x2="55" y2="108" style="stroke:#ddd;stroke-width:2;stroke-dasharray:3 3" />
<line x1="164" y1="1" x2="164" y2="108" style="stroke:#ddd;stroke-width:2;stroke-dasharray:3 3" />
<line x1="273" y1="1" x2="273" y2="108" style="stroke:#ddd;stroke-width:2;stroke-dasharray:3 3" />
<line x1="382" y1="1" x2="382" y2="108" style="stroke:#ddd;stroke-width:2;stroke-dasharray:3 3" />
<line x1="491" y1="1" x2="491" y2="108" style="stroke:#ddd;stroke-width:2;stroke-dasharray:3 3" />
<line x1="600" y1="1" x2="600" y2="108" style="stroke:#ddd;stroke-width:2;stroke-dasharray:3 3" />
<line x1="709" y1="1" x2="709" y2="108" style="stroke:#ddd;stroke-width:2;stroke-dasharray:3 3" />
<line x1="818" y1="1" x2="818" y2="108" style="stroke:#ddd;stroke-width:2;stroke-dasharray:3 3" />
<line x1="927" y1="1" x2="927" y2="108" style="stroke:#ddd;stroke-width:2;stroke-dasharray:3 3" />
<line x1="1036" y1="1" x2="1036" y2="108" style="stroke:#ddd;stroke-width:2;stroke-dasharray:3 3" />
<line x1="1145" y1="1" x2="1145" y2="108" style="stroke:#ddd;stroke-width:2;stroke-dasharray:3 3" />
<line x1="1254" y1="1" x2="1254" y2="108" style="stroke:#ddd;stroke-width:2;stroke-dasharray:3 3" />
<line x1="1363" y1="1" x2="1363" y2="108" style="stroke:#ddd;stroke-width:2;stroke-dasharray:3 3" />
<line x1="1472" y1="1" x2="1472" y2="108" style="stroke:#ddd;stroke-width:2;stroke-dasharray:3 3" />
<line x1="1581" y1="1" x2="1581" y2="108" style="stroke:#ddd;stroke-width:2;stroke-dasharray:3 3" />
<path d="M29.5,11c0.07,1.18-0.08,2.21-0.42,3.35c-1.32,4.44-5.46,11.02-10.59,16.9" style="fill:none;stroke:black;stroke-width:3" />
<circle cx="29.5" cy="11.0" r="5" stroke-width="0" fill="#FF2A00" opacity="0.7" />
<path d="M138.5,11c0.07,1.18-0.08,2.21-0.42,3.35c-1.32,4.44-5.46,11.02-10.59,16.9" style="fill:none;stroke:#999;stroke-width:3" />
<path d="M139.48,20.38c2.89,0,10.5-1.6,16.03-2.31c1.93-0.25,3.61-0.16,4.74-0.16" style="fill:none;stroke:black;stroke-width:3" />
<circle cx="139.48" cy="20.38" r="5" stroke-width="0" fill="#FF2A00" opacity="0.7" />
<path d="M247.5,11c0.07,1.18-0.08,2.21-0.42,3.35c-1.32,4.44-5.46,11.02-10.59,16.9" style="fill:none;stroke:#999;stroke-width:3" />
<path d="M248.48,20.38c2.89,0,10.5-1.6,16.03-2.31c1.93-0.25,3.61-0.16,4.74-0.16" style="fill:none;stroke:#999;stroke-width:3" />
<path d="M255.77,22.33c1.6,1.44,4.14,5.9,4.54,8.13" style="fill:none;stroke:black;stroke-width:3" />
<circle cx="255.77" cy="22.33" r="5" stroke-width="0" fill="#FF2A00" opacity="0.7" />
<path d="M356.5,11c0.07,1.18-0.08,2.21-0.42,3.35c-1.32,4.44-5.46,11.02-10.59,16.9" style="fill:none;stroke:#999;stroke-width:3" />
<path d="M357.48,20.38c2.89,0,10.5-1.6,16.03-2.31c1.93-0.25,3.61-0.16,4.74-0.16" style="fill:none;stroke:#999;stroke-width:3" />
<path d="M364.77,22.33c1.6,1.44,4.14,5.9,4.54,8.13" style="fill:none;stroke:#999;stroke-width:3" />
<path d="M389.75,9.75c0.11,0.93-0.03,1.81-0.42,2.65c-1.4,4-4.31,9.59-8.33,14.1" style="fill:none;stroke:black;stroke-width:3" />
<circle cx="389.75" cy="9.75" r="5" stroke-width="0" fill="#FF2A00" opacity="0.7" />
<path d="M465.5,11c0.07,1.18-0.08,2.21-0.42,3.35c-1.32,4.44-5.46,11.02-10.59,16.9" style="fill:none;stroke:#999;stroke-width:3" />
<path d="M466.48,20.38c2.89,0,10.5-1.6,16.03-2.31c1.93-0.25,3.61-0.16,4.74-0.16" style="fill:none;stroke:#999;stroke-width:3" />
<path d="M473.77,22.33c1.6,1.44,4.14,5.9,4.54,8.13" style="fill:none;stroke:#999;stroke-width:3" />
<path d="M498.75,9.75c0.11,0.93-0.03,1.81-0.42,2.65c-1.4,4-4.31,9.59-8.33,14.1" style="fill:none;stroke:#999;stroke-width:3" />
<path d="M498.98,18.16c3.68,0,14.09-1.56,21.04-2.25c1.98-0.2,3.68-0.32,4.86-0.32" style="fill:none;stroke:black;stroke-width:3" />
<circle cx="498.98" cy="18.16" r="5" stroke-width="0" fill="#FF2A00" opacity="0.7" />
<path d="M574.5,11c0.07,1.18-0.08,2.21-0.42,3.35c-1.32,4.44-5.46,11.02-10.59,16.9" style="fill:none;stroke:#999;stroke-width:3" />
<path d="M575.48,20.38c2.89,0,10.5-1.6,16.03-2.31c1.93-0.25,3.61-0.16,4.74-0.16" style="fill:none;stroke:#999;stroke-width:3" />
<path d="M582.77,22.33c1.6,1.44,4.14,5.9,4.54,8.13" style="fill:none;stroke:#999;stroke-width:3" />
<path d="M607.75,9.75c0.11,0.93-0.03,1.81-0.42,2.65c-1.4,4-4.31,9.59-8.33,14.1" style="fill:none;stroke:#999;stroke-width:3" />
<path d="M607.98,18.16c3.68,0,14.09-1.56,21.04-2.25c1.98-0.2,3.68-0.32,4.86-0.32" style="fill:none;stroke:#999;stroke-width:3" />
<path d="M619.27,20.5c0.05,0.51-0.04,0.99-0.29,1.44c-0.8,1.77-2.61,4.19-5.98,6.81" style="fill:none;stroke:black;stroke-width:3" />
<circle cx="619.27" cy="20.5" r="5" stroke-width="0" fill="#FF2A00" opacity="0.7" />
<path d="M683.5,11c0.07,1.18-0.08,2.21-0.42,3.35c-1.32,4.44-5.46,11.02-10.59,16.9" style="fill:none;stroke:#999;stroke-width:3" />
<path d="M684.48,20.38c2.89,0,10.5-1.6,16.03-2.31c1.93-0.25,3.61-0.16,4.74-0.16" style="fill:none;stroke:#999;stroke-width:3" />
<path d="M691.77,22.33c1.6,1.44,4.14,5.9,4.54,8.13" style="fill:none;stroke:#999;stroke-width:3" />
<path d="M716.75,9.75c0.11,0.93-0.03,1.81-0.42,2.65c-1.4,4-4.31,9.59-8.33,14.1" style="fill:none;stroke:#999;stroke-width:3" />
<path d="M716.98,18.16c3.68,0,14.09-1.56,21.04-2.25c1.98-0.2,3.68-0.32,4.86-0.32" style="fill:none;stroke:#999;stroke-width:3" />
<path d="M728.27,20.5c0.05,0.51-0.04,0.99-0.29,1.44c-0.8,1.77-2.61,4.19-5.98,6.81" style="fill:none;stroke:#999;stroke-width:3" />
<path d="M730.72,30.5c-1.35,1.25-2.57,1.74-4.02,2.03c-11.07,2.22-22.95,3.6-39.45,5.26" style="fill:none;stroke:black;stroke-width:3" />
<circle cx="730.72" cy="30.5" r="5" stroke-width="0" fill="#FF2A00" opacity="0.7" />
<path d="M792.5,11c0.07,1.18-0.08,2.21-0.42,3.35c-1.32,4.44-5.46,11.02-10.59,16.9" style="fill:none;stroke:#999;stroke-width:3" />
<path d="M793.48,20.38c2.89,0,10.5-1.6,16.03-2.31c1.93-0.25,3.61-0.16,4.74-0.16" style="fill:none;stroke:#999;stroke-width:3" />
<path d="M800.77,22.33c1.6,1.44,4.14,5.9,4.54,8.13" style="fill:none;stroke:#999;stroke-width:3" />
<path d="M825.75,9.75c0.11,0.93-0.03,1.81-0.42,2.65c-1.4,4-4.31,9.59-8.33,14.1" style="fill:none;stroke:#999;stroke-width:3" />
<path d="M825.98,18.16c3.68,0,14.09-1.56,21.04-2.25c1.98-0.2,3.68-0.32,4.86-0.32" style="fill:none;stroke:#999;stroke-width:3" />
<path d="M837.27,20.5c0.05,0.51-0.04,0.99-0.29,1.44c-0.8,1.77-2.61,4.19-5.98,6.81" style="fill:none;stroke:#999;stroke-width:3" />
<path d="M839.72,30.5c-1.35,1.25-2.57,1.74-4.02,2.03c-11.07,2.22-22.95,3.6-39.45,5.26" style="fill:none;stroke:#999;stroke-width:3" />
<path d="M793.69,36.7c0.93,0.93,1.12,2.25,1.06,4.22c-0.8,24.67-2.92,41-17.16,54.8" style="fill:none;stroke:black;stroke-width:3" />
<circle cx="793.69" cy="36.7" r="5" stroke-width="0" fill="#FF2A00" opacity="0.7" />
<path d="M901.5,11c0.07,1.18-0.08,2.21-0.42,3.35c-1.32,4.44-5.46,11.02-10.59,16.9" style="fill:none;stroke:#999;stroke-width:3" />
<path d="M902.48,20.38c2.89,0,10.5-1.6,16.03-2.31c1.93-0.25,3.61-0.16,4.74-0.16" style="fill:none;stroke:#999;stroke-width:3" />
<path d="M909.77,22.33c1.6,1.44,4.14,5.9,4.54,8.13" style="fill:none;stroke:#999;stroke-width:3" />
<path d="M934.75,9.75c0.11,0.93-0.03,1.81-0.42,2.65c-1.4,4-4.31,9.59-8.33,14.1" style="fill:none;stroke:#999;stroke-width:3" />
<path d="M934.98,18.16c3.68,0,14.09-1.56,21.04-2.25c1.98-0.2,3.68-0.32,4.86-0.32" style="fill:none;stroke:#999;stroke-width:3" />
<path d="M946.27,20.5c0.05,0.51-0.04,0.99-0.29,1.44c-0.8,1.77-2.61,4.19-5.98,6.81" style="fill:none;stroke:#999;stroke-width:3" />
<path d="M948.72,30.5c-1.35,1.25-2.57,1.74-4.02,2.03c-11.07,2.22-22.95,3.6-39.45,5.26" style="fill:none;stroke:#999;stroke-width:3" />
<path d="M902.69,36.7c0.93,0.93,1.12,2.25,1.06,4.22c-0.8,24.67-2.92,41-17.16,54.8" style="fill:none;stroke:#999;stroke-width:3" />
<path d="M904.25,47.58c12.77-1.49,35.27-4.31,44.75-5.07c3.02-0.24,5.42,0.26,4.08,3.73c-1.12,2.9-1.33,3.64-2.48,7.76" style="fill:none;stroke:black;stroke-width:3" />
<circle cx="904.25" cy="47.58" r="5" stroke-width="0" fill="#FF2A00" opacity="0.7" />
<path d="M1010.5,11c0.07,1.18-0.08,2.21-0.42,3.35c-1.32,4.44-5.46,11.02-10.59,16.9" style="fill:none;stroke:#999;stroke-width:3" />
<path d="M1011.48,20.38c2.89,0,10.5-1.6,16.03-2.31c1.93-0.25,3.61-0.16,4.74-0.16" style="fill:none;stroke:#999;stroke-width:3" />
<path d="M1018.77,22.33c1.6,1.44,4.14,5.9,4.54,8.13" style="fill:none;stroke:#999;stroke-width:3" />
<path d="M1043.75,9.75c0.11,0.93-0.03,1.81-0.42,2.65c-1.4,4-4.31,9.59-8.33,14.1" style="fill:none;stroke:#999;stroke-width:3" />
<path d="M1043.98,18.16c3.68,0,14.09-1.56,21.04-2.25c1.98-0.2,3.68-0.32,4.86-0.32" style="fill:none;stroke:#999;stroke-width:3" />
<path d="M1055.27,20.5c0.05,0.51-0.04,0.99-0.29,1.44c-0.8,1.77-2.61,4.19-5.98,6.81" style="fill:none;stroke:#999;stroke-width:3" />
<path d="M1057.72,30.5c-1.35,1.25-2.57,1.74-4.02,2.03c-11.07,2.22-22.95,3.6-39.45,5.26" style="fill:none;stroke:#999;stroke-width:3" />
<path d="M1011.69,36.7c0.93,0.93,1.12,2.25,1.06,4.22c-0.8,24.67-2.92,41-17.16,54.8" style="fill:none;stroke:#999;stroke-width:3" />
<path d="M1013.25,47.58c12.77-1.49,35.27-4.31,44.75-5.07c3.02-0.24,5.42,0.26,4.08,3.73c-1.12,2.9-1.33,3.64-2.48,7.76" style="fill:none;stroke:#999;stroke-width:3" />
<path d="M1012.43,59.81c12.7-1.31,26.95-2.69,42.7-4.17c2.9-0.27,5.51-0.42,7.63-0.49" style="fill:none;stroke:black;stroke-width:3" />
<circle cx="1012.43" cy="59.81" r="5" stroke-width="0" fill="#FF2A00" opacity="0.7" />
<path d="M1119.5,11c0.07,1.18-0.08,2.21-0.42,3.35c-1.32,4.44-5.46,11.02-10.59,16.9" style="fill:none;stroke:#999;stroke-width:3" />
<path d="M1120.48,20.38c2.89,0,10.5-1.6,16.03-2.31c1.93-0.25,3.61-0.16,4.74-0.16" style="fill:none;stroke:#999;stroke-width:3" />
<path d="M1127.77,22.33c1.6,1.44,4.14,5.9,4.54,8.13" style="fill:none;stroke:#999;stroke-width:3" />
<path d="M1152.75,9.75c0.11,0.93-0.03,1.81-0.42,2.65c-1.4,4-4.31,9.59-8.33,14.1" style="fill:none;stroke:#999;stroke-width:3" />
<path d="M1152.98,18.16c3.68,0,14.09-1.56,21.04-2.25c1.98-0.2,3.68-0.32,4.86-0.32" style="fill:none;stroke:#999;stroke-width:3" />
<path d="M1164.27,20.5c0.05,0.51-0.04,0.99-0.29,1.44c-0.8,1.77-2.61,4.19-5.98,6.81" style="fill:none;stroke:#999;stroke-width:3" />
<path d="M1166.72,30.5c-1.35,1.25-2.57,1.74-4.02,2.03c-11.07,2.22-22.95,3.6-39.45,5.26" style="fill:none;stroke:#999;stroke-width:3" />
<path d="M1120.69,36.7c0.93,0.93,1.12,2.25,1.06,4.22c-0.8,24.67-2.92,41-17.16,54.8" style="fill:none;stroke:#999;stroke-width:3" />
<path d="M1122.25,47.58c12.77-1.49,35.27-4.31,44.75-5.07c3.02-0.24,5.42,0.26,4.08,3.73c-1.12,2.9-1.33,3.64-2.48,7.76" style="fill:none;stroke:#999;stroke-width:3" />
<path d="M1121.4299999999998,59.81c12.7-1.31,26.95-2.69,42.7-4.17c2.9-0.27,5.51-0.42,7.63-0.49" style="fill:none;stroke:#999;stroke-width:3" />
<path d="M1123.74,68.5c1,1,1.34,2.63,1.41,3.88c0.3,5.81,0.77,15.58,1.14,22.26c0.12,2.21,0.23,4.09,0.33,5.37" style="fill:none;stroke:black;stroke-width:3" />
<circle cx="1123.74" cy="68.5" r="5" stroke-width="0" fill="#FF2A00" opacity="0.7" />
<path d="M1228.5,11c0.07,1.18-0.08,2.21-0.42,3.35c-1.32,4.44-5.46,11.02-10.59,16.9" style="fill:none;stroke:#999;stroke-width:3" />
<path d="M1229.48,20.38c2.89,0,10.5-1.6,16.03-2.31c1.93-0.25,3.61-0.16,4.74-0.16" style="fill:none;stroke:#999;stroke-width:3" />
<path d="M1236.77,22.33c1.6,1.44,4.14,5.9,4.54,8.13" style="fill:none;stroke:#999;stroke-width:3" />
<path d="M1261.75,9.75c0.11,0.93-0.03,1.81-0.42,2.65c-1.4,4-4.31,9.59-8.33,14.1" style="fill:none;stroke:#999;stroke-width:3" />
<path d="M1261.98,18.16c3.68,0,14.09-1.56,21.04-2.25c1.98-0.2,3.68-0.32,4.86-0.32" style="fill:none;stroke:#999;stroke-width:3" />
<path d="M1273.27,20.5c0.05,0.51-0.04,0.99-0.29,1.44c-0.8,1.77-2.61,4.19-5.98,6.81" style="fill:none;stroke:#999;stroke-width:3" />
<path d="M1275.72,30.5c-1.35,1.25-2.57,1.74-4.02,2.03c-11.07,2.22-22.95,3.6-39.45,5.26" style="fill:none;stroke:#999;stroke-width:3" />
<path d="M1229.69,36.7c0.93,0.93,1.12,2.25,1.06,4.22c-0.8,24.67-2.92,41-17.16,54.8" style="fill:none;stroke:#999;stroke-width:3" />
<path d="M1231.25,47.58c12.77-1.49,35.27-4.31,44.75-5.07c3.02-0.24,5.42,0.26,4.08,3.73c-1.12,2.9-1.33,3.64-2.48,7.76" style="fill:none;stroke:#999;stroke-width:3" />
<path d="M1230.4299999999998,59.81c12.7-1.31,26.95-2.69,42.7-4.17c2.9-0.27,5.51-0.42,7.63-0.49" style="fill:none;stroke:#999;stroke-width:3" />
<path d="M1232.74,68.5c1,1,1.34,2.63,1.41,3.88c0.3,5.81,0.77,15.58,1.14,22.26c0.12,2.21,0.23,4.09,0.33,5.37" style="fill:none;stroke:#999;stroke-width:3" />
<path d="M1234.78,70.48c5.76-0.39,39.02-4.22,45.07-4.96c3.37-0.41,4.92,1.19,4.6,4.37c-0.7,7-3.55,21.75-4.61,25.27c-1.57,5.25-3.86,1.99-5.82,0.63" style="fill:none;stroke:black;stroke-width:3" />
<circle cx="1234.78" cy="70.48" r="5" stroke-width="0" fill="#FF2A00" opacity="0.7" />
<path d="M1337.5,11c0.07,1.18-0.08,2.21-0.42,3.35c-1.32,4.44-5.46,11.02-10.59,16.9" style="fill:none;stroke:#999;stroke-width:3" />
<path d="M1338.48,20.38c2.89,0,10.5-1.6,16.03-2.31c1.93-0.25,3.61-0.16,4.74-0.16" style="fill:none;stroke:#999;stroke-width:3" />
<path d="M1345.77,22.33c1.6,1.44,4.14,5.9,4.54,8.13" style="fill:none;stroke:#999;stroke-width:3" />
<path d="M1370.75,9.75c0.11,0.93-0.03,1.81-0.42,2.65c-1.4,4-4.31,9.59-8.33,14.1" style="fill:none;stroke:#999;stroke-width:3" />
<path d="M1370.98,18.16c3.68,0,14.09-1.56,21.04-2.25c1.98-0.2,3.68-0.32,4.86-0.32" style="fill:none;stroke:#999;stroke-width:3" />
<path d="M1382.27,20.5c0.05,0.51-0.04,0.99-0.29,1.44c-0.8,1.77-2.61,4.19-5.98,6.81" style="fill:none;stroke:#999;stroke-width:3" />
<path d="M1384.72,30.5c-1.35,1.25-2.57,1.74-4.02,2.03c-11.07,2.22-22.95,3.6-39.45,5.26" style="fill:none;stroke:#999;stroke-width:3" />
<path d="M1338.69,36.7c0.93,0.93,1.12,2.25,1.06,4.22c-0.8,24.67-2.92,41-17.16,54.8" style="fill:none;stroke:#999;stroke-width:3" />
<path d="M1340.25,47.58c12.77-1.49,35.27-4.31,44.75-5.07c3.02-0.24,5.42,0.26,4.08,3.73c-1.12,2.9-1.33,3.64-2.48,7.76" style="fill:none;stroke:#999;stroke-width:3" />
<path d="M1339.4299999999998,59.81c12.7-1.31,26.95-2.69,42.7-4.17c2.9-0.27,5.51-0.42,7.63-0.49" style="fill:none;stroke:#999;stroke-width:3" />
<path d="M1341.74,68.5c1,1,1.34,2.63,1.41,3.88c0.3,5.81,0.77,15.58,1.14,22.26c0.12,2.21,0.23,4.09,0.33,5.37" style="fill:none;stroke:#999;stroke-width:3" />
<path d="M1343.78,70.48c5.76-0.39,39.02-4.22,45.07-4.96c3.37-0.41,4.92,1.19,4.6,4.37c-0.7,7-3.55,21.75-4.61,25.27c-1.57,5.25-3.86,1.99-5.82,0.63" style="fill:none;stroke:#999;stroke-width:3" />
<path d="M1344.71,83.2c10.79-1.08,29.41-3.33,46.1-4.13" style="fill:none;stroke:black;stroke-width:3" />
<circle cx="1344.71" cy="83.2" r="5" stroke-width="0" fill="#FF2A00" opacity="0.7" />
<path d="M1446.5,11c0.07,1.18-0.08,2.21-0.42,3.35c-1.32,4.44-5.46,11.02-10.59,16.9" style="fill:none;stroke:#999;stroke-width:3" />
<path d="M1447.48,20.38c2.89,0,10.5-1.6,16.03-2.31c1.93-0.25,3.61-0.16,4.74-0.16" style="fill:none;stroke:#999;stroke-width:3" />
<path d="M1454.77,22.33c1.6,1.44,4.14,5.9,4.54,8.13" style="fill:none;stroke:#999;stroke-width:3" />
<path d="M1479.75,9.75c0.11,0.93-0.03,1.81-0.42,2.65c-1.4,4-4.31,9.59-8.33,14.1" style="fill:none;stroke:#999;stroke-width:3" />
<path d="M1479.98,18.16c3.68,0,14.09-1.56,21.04-2.25c1.98-0.2,3.68-0.32,4.86-0.32" style="fill:none;stroke:#999;stroke-width:3" />
<path d="M1491.27,20.5c0.05,0.51-0.04,0.99-0.29,1.44c-0.8,1.77-2.61,4.19-5.98,6.81" style="fill:none;stroke:#999;stroke-width:3" />
<path d="M1493.72,30.5c-1.35,1.25-2.57,1.74-4.02,2.03c-11.07,2.22-22.95,3.6-39.45,5.26" style="fill:none;stroke:#999;stroke-width:3" />
<path d="M1447.69,36.7c0.93,0.93,1.12,2.25,1.06,4.22c-0.8,24.67-2.92,41-17.16,54.8" style="fill:none;stroke:#999;stroke-width:3" />
<path d="M1449.25,47.58c12.77-1.49,35.27-4.31,44.75-5.07c3.02-0.24,5.42,0.26,4.08,3.73c-1.12,2.9-1.33,3.64-2.48,7.76" style="fill:none;stroke:#999;stroke-width:3" />
<path d="M1448.4299999999998,59.81c12.7-1.31,26.95-2.69,42.7-4.17c2.9-0.27,5.51-0.42,7.63-0.49" style="fill:none;stroke:#999;stroke-width:3" />
<path d="M1450.74,68.5c1,1,1.34,2.63,1.41,3.88c0.3,5.81,0.77,15.58,1.14,22.26c0.12,2.21,0.23,4.09,0.33,5.37" style="fill:none;stroke:#999;stroke-width:3" />
<path d="M1452.78,70.48c5.76-0.39,39.02-4.22,45.07-4.96c3.37-0.41,4.92,1.19,4.6,4.37c-0.7,7-3.55,21.75-4.61,25.27c-1.57,5.25-3.86,1.99-5.82,0.63" style="fill:none;stroke:#999;stroke-width:3" />
<path d="M1453.71,83.2c10.79-1.08,29.41-3.33,46.1-4.13" style="fill:none;stroke:#999;stroke-width:3" />
<path d="M1466.65,72.05c0.9,0.9,1.14,2.07,1.14,3.17c0,1.53,0.04,10.2,0.06,16.28c0.01,1.96,0.01,3.66,0.01,4.76" style="fill:none;stroke:black;stroke-width:3" />
<circle cx="1466.65" cy="72.05" r="5" stroke-width="0" fill="#FF2A00" opacity="0.7" />
<path d="M1555.5,11c0.07,1.18-0.08,2.21-0.42,3.35c-1.32,4.44-5.46,11.02-10.59,16.9" style="fill:none;stroke:#999;stroke-width:3" />
<path d="M1556.48,20.38c2.89,0,10.5-1.6,16.03-2.31c1.93-0.25,3.61-0.16,4.74-0.16" style="fill:none;stroke:#999;stroke-width:3" />
<path d="M1563.77,22.33c1.6,1.44,4.14,5.9,4.54,8.13" style="fill:none;stroke:#999;stroke-width:3" />
<path d="M1588.75,9.75c0.11,0.93-0.03,1.81-0.42,2.65c-1.4,4-4.31,9.59-8.33,14.1" style="fill:none;stroke:#999;stroke-width:3" />
<path d="M1588.98,18.16c3.68,0,14.09-1.56,21.04-2.25c1.98-0.2,3.68-0.32,4.86-0.32" style="fill:none;stroke:#999;stroke-width:3" />
<path d="M1600.27,20.5c0.05,0.51-0.04,0.99-0.29,1.44c-0.8,1.77-2.61,4.19-5.98,6.81" style="fill:none;stroke:#999;stroke-width:3" />
<path d="M1602.72,30.5c-1.35,1.25-2.57,1.74-4.02,2.03c-11.07,2.22-22.95,3.6-39.45,5.26" style="fill:none;stroke:#999;stroke-width:3" />
<path d="M1556.69,36.7c0.93,0.93,1.12,2.25,1.06,4.22c-0.8,24.67-2.92,41-17.16,54.8" style="fill:none;stroke:#999;stroke-width:3" />
<path d="M1558.25,47.58c12.77-1.49,35.27-4.31,44.75-5.07c3.02-0.24,5.42,0.26,4.08,3.73c-1.12,2.9-1.33,3.64-2.48,7.76" style="fill:none;stroke:#999;stroke-width:3" />
<path d="M1557.4299999999998,59.81c12.7-1.31,26.95-2.69,42.7-4.17c2.9-0.27,5.51-0.42,7.63-0.49" style="fill:none;stroke:#999;stroke-width:3" />
<path d="M1559.74,68.5c1,1,1.34,2.63,1.41,3.88c0.3,5.81,0.77,15.58,1.14,22.26c0.12,2.21,0.23,4.09,0.33,5.37" style="fill:none;stroke:#999;stroke-width:3" />
<path d="M1561.78,70.48c5.76-0.39,39.02-4.22,45.07-4.96c3.37-0.41,4.92,1.19,4.6,4.37c-0.7,7-3.55,21.75-4.61,25.27c-1.57,5.25-3.86,1.99-5.82,0.63" style="fill:none;stroke:#999;stroke-width:3" />
<path d="M1562.71,83.2c10.79-1.08,29.41-3.33,46.1-4.13" style="fill:none;stroke:#999;stroke-width:3" />
<path d="M1575.65,72.05c0.9,0.9,1.14,2.07,1.14,3.17c0,1.53,0.04,10.2,0.06,16.28c0.01,1.96,0.01,3.66,0.01,4.76" style="fill:none;stroke:#999;stroke-width:3" />
<path d="M1591.0,70.13c0.93,0.93,0.89,1.62,0.89,2.92c0,2.51,0.04,10.96,0.05,16.83c0.01,2.19,0.01,4.01,0.01,5.04" style="fill:none;stroke:black;stroke-width:3" />
<circle cx="1591.0" cy="70.13" r="5" stroke-width="0" fill="#FF2A00" opacity="0.7" />
</svg>