<!-- 07bf6 -->
<svg width="1853px" height="109px" viewBox="0 0 1853px 109px" xmlns="http://www.w3.org/2000/svg" xmlns:xlink="http://www.w3.org/1999/xlink" xml:space="preserve" version="1.1"  baseProfile="full">
<line x1="1" y1="1" x2="1852" y2="1" style="stroke:#ddd;stroke-width:2" />
<line x1="1" y1="1" x2="1" y2="108" style="stroke:#ddd;stroke-width:2" />
<line x1="1" y1="108" x2="1852" y2="108" style="stroke:#ddd;stroke-width:2" />
<line x1="1852" y1="1" x2="1852" y2="108" style="stroke:#ddd;stroke-width:2" />
<line x1="109" y1="1" x2="109" y2="108" style="stroke:#ddd;stroke-width:2" />
<line x1="218" y1="1" x2="218" y2="108" style="stroke:#ddd;stroke-width:2" />
<line x1="327" y1="1" x2="327" y2="108" style="stroke:#ddd;stroke-width:2" />
<line x1="436" y1="1" x2="436" y2="108" style="stroke:#ddd;stroke-width:2" />
<line x1="545" y1="1" x2="545" y2="108" style="stroke:#ddd;stroke-width:2" />
<line x1="654" y1="1" x2="654" y2="108" style="stroke:#ddd;stroke-width:2" />
<line x1="763" y1="1" x2="763" y2="108" style="stroke:#ddd;stroke-width:2" />
<line x1="872" y1="1" x2="872" y2="108" style="stroke:#ddd;stroke-width:2" />
<line x1="981" y1="1" x2="981" y2="108" style="stroke:#ddd;stroke-width:2" />
<line x1="1090" y1="1" x2="1090" y2="108" style="stroke:#ddd;stroke-width:2" />
<line x1="1199" y1="1" x2="1199" y2="108" style="stroke:#ddd;stroke-width:2" />
<line x1="1308" y1="1" x2="1308" y2="108" style="stroke:#ddd;stroke-width:2" />
<line x1="1417" y1="1" x2="1417" y2="108" style="stroke:#ddd;stroke-width:2" />
<line x1="1526" y1="1" x2="1526" y2="108" style="stroke:#ddd;stroke-width:2" />
<line x1="1635" y1="1" x2="1635" y2="108" style="stroke:#ddd;stroke-width:2" />
<line x1="1744" y1="1" x2="1744" y2="108" style="stroke:#ddd;stroke-width:2" />
<line x1="1" y1="54" x2="1852" y2="54" style="stroke:#ddd;stroke-width:2;stroke-dasharray:3 3" />
<line x1="55" y1="1" x2="55" y2="108" style="stroke:#ddd;stroke-width:2;stroke-dasharray:3 3" />
<line x1="164" y1="1" x2="164" y2="108" style="stroke:#ddd;stroke-width:2;stroke-dasharray:3 3" />
<line x1="273" y1="1" x2="273" y2="108" style="stroke:#ddd;stroke-width:2;stroke-dasharray:3 3" />
<line x1="382" y1="1" x2="382" y2="108" style="stroke:#ddd;stroke-width:2;stroke-dasharray:3 3" />
<line x1="491" y1="1" x2="491" y2="108" style="stroke:#ddd;stroke-width:2;stroke-dasharray:3 3" />
<line x1="600" y1="1" x2="600" y2="108" style="stroke:#ddd;stroke-width:2;stroke-dasharray:3 3" />
<line x1="709" y1="1" x2="709" y2="108" style="stroke:#ddd;stroke-width:2;stroke-dasharray:3 3" />
<line x1="818" y1="1" x2="818" y2="108" style="stroke:#ddd;stroke-width:2;stroke-dasharray:3 3" />
<line x1="927" y1="1" x2="927" y2="108" style="stroke:#ddd;stroke-width:2;stroke-dasharray:3 3" />
<line x1="1036" y1="1" x2="1036" y2="108" style="stroke:#ddd;stroke-width:2;stroke-dasharray:3 3" />
<line x1="1145" y1="1" x2="1145" y2="108" style="stroke:#ddd;stroke-width:2;stroke-dasharray:3 3" />
<line x1="1254" y1="1" x2="1254" y2="108" style="stroke:#ddd;stroke-width:2;stroke-dasharray:3 3" />
<line x1="1363" y1="1" x2="1363" y2="108" style="stroke:#ddd;stroke-width:2;stroke-dasharray:3 3" />
<line x1="1472" y1="1" x2="1472" y2="108" style="stroke:#ddd;stroke-width:2;stroke-dasharray:3 3" />
<line x1="1581" y1="1" x2="1581" y2="108" style="stroke:#ddd;stroke-width:2;stroke-dasharray:3 3" />
<line x1="1690" y1="1" x2="1690" y2="108" style="stroke:#ddd;stroke-width:2;stroke-dasharray:3 3" />
<line x1="1799" y1="1" x2="1799" y2="108" style="stroke:#ddd;stroke-width:2;stroke-dasharray:3 3" />
<path d="M28.75,8.75c0.04,0.5,0.09,1.29-0.08,2.01C27.66,15 21.89,24.3 14.0,30" style="fill:none;stroke:black;stroke-width:3" />
<circle cx="28.75" cy="8.75" r="5" stroke-width="0" fill="#FF2A00" opacity="0.7" />
<path d="M137.75,8.75c0.04,0.5,0.09,1.29-0.08,2.01C136.66,15 130.89,24.3 123.0,30" style="fill:none;stroke:#999;stroke-width:3" />
<path d="M137.0,18.18c4.12,0,17.37-1.6,22-1.6" style="fill:none;stroke:black;stroke-width:3" />
<circle cx="137.0" cy="18.18" r="5" stroke-width="0" fill="#FF2A00" opacity="0.7" />
<path d="M246.75,8.75c0.04,0.5,0.09,1.29-0.08,2.01C245.66,15 239.89,24.3 232.0,30" style="fill:none;stroke:#999;stroke-width:3" />
<path d="M246.0,18.18c4.12,0,17.37-1.6,22-1.6" style="fill:none;stroke:#999;stroke-width:3" />
<path d="M252.75,20c1.68,1.37,4.33,5.62,4.75,7.75" style="fill:none;stroke:black;stroke-width:3" />
<circle cx="252.75" cy="20.0" r="5" stroke-width="0" fill="#FF2A00" opacity="0.7" />
<path d="M355.75,8.75c0.04,0.5,0.09,1.29-0.08,2.01C354.65999999999997,15 348.89,24.3 341.0,30" style="fill:none;stroke:#999;stroke-width:3" />
<path d="M355.0,18.18c4.12,0,17.37-1.6,22-1.6" style="fill:none;stroke:#999;stroke-width:3" />
<path d="M361.75,20c1.68,1.37,4.33,5.62,4.75,7.75" style="fill:none;stroke:#999;stroke-width:3" />
<path d="M387.24,9c0.03,0.41,0.12,1.06-0.06,1.63C385.85,14.9 382.15,21 377.25,26.25" style="fill:none;stroke:black;stroke-width:3" />
<circle cx="387.24" cy="9.0" r="5" stroke-width="0" fill="#FF2A00" opacity="0.7" />
<path d="M464.75,8.75c0.04,0.5,0.09,1.29-0.08,2.01C463.65999999999997,15 457.89,24.3 450.0,30" style="fill:none;stroke:#999;stroke-width:3" />
<path d="M464.0,18.18c4.12,0,17.37-1.6,22-1.6" style="fill:none;stroke:#999;stroke-width:3" />
<path d="M470.75,20c1.68,1.37,4.33,5.62,4.75,7.75" style="fill:none;stroke:#999;stroke-width:3" />
<path d="M496.24,9c0.03,0.41,0.12,1.06-0.06,1.63C494.85,14.9 491.15,21 486.25,26.25" style="fill:none;stroke:#999;stroke-width:3" />
<path d="M495.25,16.78c5.03,0,23.48-2.97,29.13-2.97" style="fill:none;stroke:black;stroke-width:3" />
<circle cx="495.25" cy="16.78" r="5" stroke-width="0" fill="#FF2A00" opacity="0.7" />
<path d="M573.75,8.75c0.04,0.5,0.09,1.29-0.08,2.01C572.66,15 566.89,24.3 559.0,30" style="fill:none;stroke:#999;stroke-width:3" />
<path d="M573.0,18.18c4.12,0,17.37-1.6,22-1.6" style="fill:none;stroke:#999;stroke-width:3" />
<path d="M579.75,20c1.68,1.37,4.33,5.62,4.75,7.75" style="fill:none;stroke:#999;stroke-width:3" />
<path d="M605.24,9c0.03,0.41,0.12,1.06-0.06,1.63C603.85,14.9 600.15,21 595.25,26.25" style="fill:none;stroke:#999;stroke-width:3" />
<path d="M604.25,16.78c5.03,0,23.48-2.97,29.13-2.97" style="fill:none;stroke:#999;stroke-width:3" />
<path d="M619.52,17.75c0.02,0.18,0.05,0.47-0.05,0.73c-0.6,1.55-4.03,4.94-8.72,7.02" style="fill:none;stroke:black;stroke-width:3" />
<circle cx="619.52" cy="17.75" r="5" stroke-width="0" fill="#FF2A00" opacity="0.7" />
<path d="M682.75,8.75c0.04,0.5,0.09,1.29-0.08,2.01C681.66,15 675.89,24.3 668.0,30" style="fill:none;stroke:#999;stroke-width:3" />
<path d="M682.0,18.18c4.12,0,17.37-1.6,22-1.6" style="fill:none;stroke:#999;stroke-width:3" />
<path d="M688.75,20c1.68,1.37,4.33,5.62,4.75,7.75" style="fill:none;stroke:#999;stroke-width:3" />
<path d="M714.24,9c0.03,0.41,0.12,1.06-0.06,1.63C712.85,14.9 709.15,21 704.25,26.25" style="fill:none;stroke:#999;stroke-width:3" />
<path d="M713.25,16.78c5.03,0,23.48-2.97,29.13-2.97" style="fill:none;stroke:#999;stroke-width:3" />
<path d="M728.52,17.75c0.02,0.18,0.05,0.47-0.05,0.73c-0.6,1.55-4.03,4.94-8.72,7.02" style="fill:none;stroke:#999;stroke-width:3" />
<path d="M680.5,32.48c1.3,0.45,3.66,0.5,4.95,0.42c12.94-0.8,30.02-2.88,48.15-3.31c2.15-0.05,3.44,0.19,4.52,0.41" style="fill:none;stroke:black;stroke-width:3" />
<circle cx="680.5" cy="32.48" r="5" stroke-width="0" fill="#FF2A00" opacity="0.7" />
<path d="M791.75,8.75c0.04,0.5,0.09,1.29-0.08,2.01C790.66,15 784.89,24.3 777.0,30" style="fill:none;stroke:#999;stroke-width:3" />
<path d="M791.0,18.18c4.12,0,17.37-1.6,22-1.6" style="fill:none;stroke:#999;stroke-width:3" />
<path d="M797.75,20c1.68,1.37,4.33,5.62,4.75,7.75" style="fill:none;stroke:#999;stroke-width:3" />
<path d="M823.24,9c0.03,0.41,0.12,1.06-0.06,1.63C821.85,14.9 818.15,21 813.25,26.25" style="fill:none;stroke:#999;stroke-width:3" />
<path d="M822.25,16.78c5.03,0,23.48-2.97,29.13-2.97" style="fill:none;stroke:#999;stroke-width:3" />
<path d="M837.52,17.75c0.02,0.18,0.05,0.47-0.05,0.73c-0.6,1.55-4.03,4.94-8.72,7.02" style="fill:none;stroke:#999;stroke-width:3" />
<path d="M789.5,32.48c1.3,0.45,3.66,0.5,4.95,0.42c12.94-0.8,30.02-2.88,48.15-3.31c2.15-0.05,3.44,0.19,4.52,0.41" style="fill:none;stroke:#999;stroke-width:3" />
<path d="M816.41,33.21c0.06,0.2,0.79,1.02,0.85,2.27c0.27,6-0.17,13.82-0.17,15.86" style="fill:none;stroke:black;stroke-width:3" />
<circle cx="816.41" cy="33.21" r="5" stroke-width="0" fill="#FF2A00" opacity="0.7" />
<path d="M900.75,8.75c0.04,0.5,0.09,1.29-0.08,2.01C899.66,15 893.89,24.3 886.0,30" style="fill:none;stroke:#999;stroke-width:3" />
<path d="M900.0,18.18c4.12,0,17.37-1.6,22-1.6" style="fill:none;stroke:#999;stroke-width:3" />
<path d="M906.75,20c1.68,1.37,4.33,5.62,4.75,7.75" style="fill:none;stroke:#999;stroke-width:3" />
<path d="M932.24,9c0.03,0.41,0.12,1.06-0.06,1.63C930.85,14.9 927.15,21 922.25,26.25" style="fill:none;stroke:#999;stroke-width:3" />
<path d="M931.25,16.78c5.03,0,23.48-2.97,29.13-2.97" style="fill:none;stroke:#999;stroke-width:3" />
<path d="M946.52,17.75c0.02,0.18,0.05,0.47-0.05,0.73c-0.6,1.55-4.03,4.94-8.72,7.02" style="fill:none;stroke:#999;stroke-width:3" />
<path d="M898.5,32.48c1.3,0.45,3.66,0.5,4.95,0.42c12.94-0.8,30.02-2.88,48.15-3.31c2.15-0.05,3.44,0.19,4.52,0.41" style="fill:none;stroke:#999;stroke-width:3" />
<path d="M925.41,33.21c0.06,0.2,0.79,1.02,0.85,2.27c0.27,6-0.17,13.82-0.17,15.86" style="fill:none;stroke:#999;stroke-width:3" />
<path d="M927.11,40.89c0.43,0.09,15.17-0.99,23.36-1.29c0.71-0.03,1.14,0.01,1.5,0.05" style="fill:none;stroke:black;stroke-width:3" />
<circle cx="927.11" cy="40.89" r="5" stroke-width="0" fill="#FF2A00" opacity="0.7" />
<path d="M1009.75,8.75c0.04,0.5,0.09,1.29-0.08,2.01C1008.66,15 1002.89,24.3 995.0,30" style="fill:none;stroke:#999;stroke-width:3" />
<path d="M1009.0,18.18c4.12,0,17.37-1.6,22-1.6" style="fill:none;stroke:#999;stroke-width:3" />
<path d="M1015.75,20c1.68,1.37,4.33,5.62,4.75,7.75" style="fill:none;stroke:#999;stroke-width:3" />
<path d="M1041.24,9c0.03,0.41,0.12,1.06-0.06,1.63C1039.85,14.9 1036.15,21 1031.25,26.25" style="fill:none;stroke:#999;stroke-width:3" />
<path d="M1040.25,16.78c5.03,0,23.48-2.97,29.13-2.97" style="fill:none;stroke:#999;stroke-width:3" />
<path d="M1055.52,17.75c0.02,0.18,0.05,0.47-0.05,0.73c-0.6,1.55-4.03,4.94-8.72,7.02" style="fill:none;stroke:#999;stroke-width:3" />
<path d="M1007.5,32.48c1.3,0.45,3.66,0.5,4.95,0.42c12.94-0.8,30.02-2.88,48.15-3.31c2.15-0.05,3.44,0.19,4.52,0.41" style="fill:none;stroke:#999;stroke-width:3" />
<path d="M1034.4099999999999,33.21c0.06,0.2,0.79,1.02,0.85,2.27c0.27,6-0.17,13.82-0.17,15.86" style="fill:none;stroke:#999;stroke-width:3" />
<path d="M1036.1100000000001,40.89c0.43,0.09,15.17-0.99,23.36-1.29c0.71-0.03,1.14,0.01,1.5,0.05" style="fill:none;stroke:#999;stroke-width:3" />
<path d="M1017.6,39.22c0.04,0.14,0.49,0.72,0.52,1.6c0.17,4.23,0.34,9.68,0.34,11.11" style="fill:none;stroke:black;stroke-width:3" />
<circle cx="1017.6" cy="39.22" r="5" stroke-width="0" fill="#FF2A00" opacity="0.7" />
<path d="M1118.75,8.75c0.04,0.5,0.09,1.29-0.08,2.01C1117.6599999999999,15 1111.8899999999999,24.3 1104.0,30" style="fill:none;stroke:#999;stroke-width:3" />
<path d="M1118.0,18.18c4.12,0,17.37-1.6,22-1.6" style="fill:none;stroke:#999;stroke-width:3" />
<path d="M1124.75,20c1.68,1.37,4.33,5.62,4.75,7.75" style="fill:none;stroke:#999;stroke-width:3" />
<path d="M1150.24,9c0.03,0.41,0.12,1.06-0.06,1.63C1148.85,14.9 1145.15,21 1140.25,26.25" style="fill:none;stroke:#999;stroke-width:3" />
<path d="M1149.25,16.78c5.03,0,23.48-2.97,29.13-2.97" style="fill:none;stroke:#999;stroke-width:3" />
<path d="M1164.52,17.75c0.02,0.18,0.05,0.47-0.05,0.73c-0.6,1.55-4.03,4.94-8.72,7.02" style="fill:none;stroke:#999;stroke-width:3" />
<path d="M1116.5,32.48c1.3,0.45,3.66,0.5,4.95,0.42c12.94-0.8,30.02-2.88,48.15-3.31c2.15-0.05,3.44,0.19,4.52,0.41" style="fill:none;stroke:#999;stroke-width:3" />
<path d="M1143.4099999999999,33.21c0.06,0.2,0.79,1.02,0.85,2.27c0.27,6-0.17,13.82-0.17,15.86" style="fill:none;stroke:#999;stroke-width:3" />
<path d="M1145.1100000000001,40.89c0.43,0.09,15.17-0.99,23.36-1.29c0.71-0.03,1.14,0.01,1.5,0.05" style="fill:none;stroke:#999;stroke-width:3" />
<path d="M1126.6,39.22c0.04,0.14,0.49,0.72,0.52,1.6c0.17,4.23,0.34,9.68,0.34,11.11" style="fill:none;stroke:#999;stroke-width:3" />
<path d="M1107.82,52.75c1.45,0.26,4.58,0.64,5.95,0.57c12.32-0.63,45.35-3.12,63.84-3.5c2.33-0.05,4.35,0.38,5.56,0.77" style="fill:none;stroke:black;stroke-width:3" />
<circle cx="1107.82" cy="52.75" r="5" stroke-width="0" fill="#FF2A00" opacity="0.7" />
<path d="M1227.75,8.75c0.04,0.5,0.09,1.29-0.08,2.01C1226.6599999999999,15 1220.8899999999999,24.3 1213.0,30" style="fill:none;stroke:#999;stroke-width:3" />
<path d="M1227.0,18.18c4.12,0,17.37-1.6,22-1.6" style="fill:none;stroke:#999;stroke-width:3" />
<path d="M1233.75,20c1.68,1.37,4.33,5.62,4.75,7.75" style="fill:none;stroke:#999;stroke-width:3" />
<path d="M1259.24,9c0.03,0.41,0.12,1.06-0.06,1.63C1257.85,14.9 1254.15,21 1249.25,26.25" style="fill:none;stroke:#999;stroke-width:3" />
<path d="M1258.25,16.78c5.03,0,23.48-2.97,29.13-2.97" style="fill:none;stroke:#999;stroke-width:3" />
<path d="M1273.52,17.75c0.02,0.18,0.05,0.47-0.05,0.73c-0.6,1.55-4.03,4.94-8.72,7.02" style="fill:none;stroke:#999;stroke-width:3" />
<path d="M1225.5,32.48c1.3,0.45,3.66,0.5,4.95,0.42c12.94-0.8,30.02-2.88,48.15-3.31c2.15-0.05,3.44,0.19,4.52,0.41" style="fill:none;stroke:#999;stroke-width:3" />
<path d="M1252.4099999999999,33.21c0.06,0.2,0.79,1.02,0.85,2.27c0.27,6-0.17,13.82-0.17,15.86" style="fill:none;stroke:#999;stroke-width:3" />
<path d="M1254.1100000000001,40.89c0.43,0.09,15.17-0.99,23.36-1.29c0.71-0.03,1.14,0.01,1.5,0.05" style="fill:none;stroke:#999;stroke-width:3" />
<path d="M1235.6,39.22c0.04,0.14,0.49,0.72,0.52,1.6c0.17,4.23,0.34,9.68,0.34,11.11" style="fill:none;stroke:#999;stroke-width:3" />
<path d="M1216.82,52.75c1.45,0.26,4.58,0.64,5.95,0.57c12.32-0.63,45.35-3.12,63.84-3.5c2.33-0.05,4.35,0.38,5.56,0.77" style="fill:none;stroke:#999;stroke-width:3" />
<path d="M1236.57,62.1c0.6,0.11,26.8-1.33,43.46-2.21c1.41-0.07,2.27,0.08,2.98,0.16" style="fill:none;stroke:black;stroke-width:3" />
<circle cx="1236.57" cy="62.1" r="5" stroke-width="0" fill="#FF2A00" opacity="0.7" />
<path d="M1336.75,8.75c0.04,0.5,0.09,1.29-0.08,2.01C1335.6599999999999,15 1329.8899999999999,24.3 1322.0,30" style="fill:none;stroke:#999;stroke-width:3" />
<path d="M1336.0,18.18c4.12,0,17.37-1.6,22-1.6" style="fill:none;stroke:#999;stroke-width:3" />
<path d="M1342.75,20c1.68,1.37,4.33,5.62,4.75,7.75" style="fill:none;stroke:#999;stroke-width:3" />
<path d="M1368.24,9c0.03,0.41,0.12,1.06-0.06,1.63C1366.85,14.9 1363.15,21 1358.25,26.25" style="fill:none;stroke:#999;stroke-width:3" />
<path d="M1367.25,16.78c5.03,0,23.48-2.97,29.13-2.97" style="fill:none;stroke:#999;stroke-width:3" />
<path d="M1382.52,17.75c0.02,0.18,0.05,0.47-0.05,0.73c-0.6,1.55-4.03,4.94-8.72,7.02" style="fill:none;stroke:#999;stroke-width:3" />
<path d="M1334.5,32.48c1.3,0.45,3.66,0.5,4.95,0.42c12.94-0.8,30.02-2.88,48.15-3.31c2.15-0.05,3.44,0.19,4.52,0.41" style="fill:none;stroke:#999;stroke-width:3" />
<path d="M1361.4099999999999,33.21c0.06,0.2,0.79,1.02,0.85,2.27c0.27,6-0.17,13.82-0.17,15.86" style="fill:none;stroke:#999;stroke-width:3" />
<path d="M1363.1100000000001,40.89c0.43,0.09,15.17-0.99,23.36-1.29c0.71-0.03,1.14,0.01,1.5,0.05" style="fill:none;stroke:#999;stroke-width:3" />
<path d="M1344.6,39.22c0.04,0.14,0.49,0.72,0.52,1.6c0.17,4.23,0.34,9.68,0.34,11.11" style="fill:none;stroke:#999;stroke-width:3" />
<path d="M1325.82,52.75c1.45,0.26,4.58,0.64,5.95,0.57c12.32-0.63,45.35-3.12,63.84-3.5c2.33-0.05,4.35,0.38,5.56,0.77" style="fill:none;stroke:#999;stroke-width:3" />
<path d="M1345.57,62.1c0.6,0.11,26.8-1.33,43.46-2.21c1.41-0.07,2.27,0.08,2.98,0.16" style="fill:none;stroke:#999;stroke-width:3" />
<path d="M1346.69,53.71c0.43,0.29,1.01,1.9,0.89,2.39c-1.36,5.65-4.04,11.77-5.48,14.98c-0.58,1.29,0.12,3.27,2.36,2.74c4.95-1.17,40.85-3.22,48.26-3.89c4.82-0.43,6.27,3.03,5.42,5.99C1396.29,82.4 1394.0,89 1391.41,95.3c-3.4,8.27-7.29,2.1-9.36-0.42" style="fill:none;stroke:black;stroke-width:3" />
<circle cx="1346.69" cy="53.71" r="5" stroke-width="0" fill="#FF2A00" opacity="0.7" />
<path d="M1445.75,8.75c0.04,0.5,0.09,1.29-0.08,2.01C1444.6599999999999,15 1438.8899999999999,24.3 1431.0,30" style="fill:none;stroke:#999;stroke-width:3" />
<path d="M1445.0,18.18c4.12,0,17.37-1.6,22-1.6" style="fill:none;stroke:#999;stroke-width:3" />
<path d="M1451.75,20c1.68,1.37,4.33,5.62,4.75,7.75" style="fill:none;stroke:#999;stroke-width:3" />
<path d="M1477.24,9c0.03,0.41,0.12,1.06-0.06,1.63C1475.85,14.9 1472.15,21 1467.25,26.25" style="fill:none;stroke:#999;stroke-width:3" />
<path d="M1476.25,16.78c5.03,0,23.48-2.97,29.13-2.97" style="fill:none;stroke:#999;stroke-width:3" />
<path d="M1491.52,17.75c0.02,0.18,0.05,0.47-0.05,0.73c-0.6,1.55-4.03,4.94-8.72,7.02" style="fill:none;stroke:#999;stroke-width:3" />
<path d="M1443.5,32.48c1.3,0.45,3.66,0.5,4.95,0.42c12.94-0.8,30.02-2.88,48.15-3.31c2.15-0.05,3.44,0.19,4.52,0.41" style="fill:none;stroke:#999;stroke-width:3" />
<path d="M1470.4099999999999,33.21c0.06,0.2,0.79,1.02,0.85,2.27c0.27,6-0.17,13.82-0.17,15.86" style="fill:none;stroke:#999;stroke-width:3" />
<path d="M1472.1100000000001,40.89c0.43,0.09,15.17-0.99,23.36-1.29c0.71-0.03,1.14,0.01,1.5,0.05" style="fill:none;stroke:#999;stroke-width:3" />
<path d="M1453.6,39.22c0.04,0.14,0.49,0.72,0.52,1.6c0.17,4.23,0.34,9.68,0.34,11.11" style="fill:none;stroke:#999;stroke-width:3" />
<path d="M1434.82,52.75c1.45,0.26,4.58,0.64,5.95,0.57c12.32-0.63,45.35-3.12,63.84-3.5c2.33-0.05,4.35,0.38,5.56,0.77" style="fill:none;stroke:#999;stroke-width:3" />
<path d="M1454.57,62.1c0.6,0.11,26.8-1.33,43.46-2.21c1.41-0.07,2.27,0.08,2.98,0.16" style="fill:none;stroke:#999;stroke-width:3" />
<path d="M1455.69,53.71c0.43,0.29,1.01,1.9,0.89,2.39c-1.36,5.65-4.04,11.77-5.48,14.98c-0.58,1.29,0.12,3.27,2.36,2.74c4.95-1.17,40.85-3.22,48.26-3.89c4.82-0.43,6.27,3.03,5.42,5.99C1505.29,82.4 1503.0,89 1500.41,95.3c-3.4,8.27-7.29,2.1-9.36-0.42" style="fill:none;stroke:#999;stroke-width:3" />
<path d="M1442.03,81.96c-0.73,5.43-2.51,11.33-6.03,14.4" style="fill:none;stroke:black;stroke-width:3" />
<circle cx="1442.03" cy="81.96" r="5" stroke-width="0" fill="#FF2A00" opacity="0.7" />
<path d="M1554.75,8.75c0.04,0.5,0.09,1.29-0.08,2.01C1553.6599999999999,15 1547.8899999999999,24.3 1540.0,30" style="fill:none;stroke:#999;stroke-width:3" />
<path d="M1554.0,18.18c4.12,0,17.37-1.6,22-1.6" style="fill:none;stroke:#999;stroke-width:3" />
<path d="M1560.75,20c1.68,1.37,4.33,5.62,4.75,7.75" style="fill:none;stroke:#999;stroke-width:3" />
<path d="M1586.24,9c0.03,0.41,0.12,1.06-0.06,1.63C1584.85,14.9 1581.15,21 1576.25,26.25" style="fill:none;stroke:#999;stroke-width:3" />
<path d="M1585.25,16.78c5.03,0,23.48-2.97,29.13-2.97" style="fill:none;stroke:#999;stroke-width:3" />
<path d="M1600.52,17.75c0.02,0.18,0.05,0.47-0.05,0.73c-0.6,1.55-4.03,4.94-8.72,7.02" style="fill:none;stroke:#999;stroke-width:3" />
<path d="M1552.5,32.48c1.3,0.45,3.66,0.5,4.95,0.42c12.94-0.8,30.02-2.88,48.15-3.31c2.15-0.05,3.44,0.19,4.52,0.41" style="fill:none;stroke:#999;stroke-width:3" />
<path d="M1579.4099999999999,33.21c0.06,0.2,0.79,1.02,0.85,2.27c0.27,6-0.17,13.82-0.17,15.86" style="fill:none;stroke:#999;stroke-width:3" />
<path d="M1581.1100000000001,40.89c0.43,0.09,15.17-0.99,23.36-1.29c0.71-0.03,1.14,0.01,1.5,0.05" style="fill:none;stroke:#999;stroke-width:3" />
<path d="M1562.6,39.22c0.04,0.14,0.49,0.72,0.52,1.6c0.17,4.23,0.34,9.68,0.34,11.11" style="fill:none;stroke:#999;stroke-width:3" />
<path d="M1543.82,52.75c1.45,0.26,4.58,0.64,5.95,0.57c12.32-0.63,45.35-3.12,63.84-3.5c2.33-0.05,4.35,0.38,5.56,0.77" style="fill:none;stroke:#999;stroke-width:3" />
<path d="M1563.57,62.1c0.6,0.11,26.8-1.33,43.46-2.21c1.41-0.07,2.27,0.08,2.98,0.16" style="fill:none;stroke:#999;stroke-width:3" />
<path d="M1564.69,53.71c0.43,0.29,1.01,1.9,0.89,2.39c-1.36,5.65-4.04,11.77-5.48,14.98c-0.58,1.29,0.12,3.27,2.36,2.74c4.95-1.17,40.85-3.22,48.26-3.89c4.82-0.43,6.27,3.03,5.42,5.99C1614.29,82.4 1612.0,89 1609.41,95.3c-3.4,8.27-7.29,2.1-9.36-0.42" style="fill:none;stroke:#999;stroke-width:3" />
<path d="M1551.03,81.96c-0.73,5.43-2.51,11.33-6.03,14.4" style="fill:none;stroke:#999;stroke-width:3" />
<path d="M1565.05,81.44c1.91,2.41,3.73,9.05,4.2,12.81" style="fill:none;stroke:black;stroke-width:3" />
<circle cx="1565.05" cy="81.44" r="5" stroke-width="0" fill="#FF2A00" opacity="0.7" />
<path d="M1663.75,8.75c0.04,0.5,0.09,1.29-0.08,2.01C1662.6599999999999,15 1656.8899999999999,24.3 1649.0,30" style="fill:none;stroke:#999;stroke-width:3" />
<path d="M1663.0,18.18c4.12,0,17.37-1.6,22-1.6" style="fill:none;stroke:#999;stroke-width:3" />
<path d="M1669.75,20c1.68,1.37,4.33,5.62,4.75,7.75" style="fill:none;stroke:#999;stroke-width:3" />
<path d="M1695.24,9c0.03,0.41,0.12,1.06-0.06,1.63C1693.85,14.9 1690.15,21 1685.25,26.25" style="fill:none;stroke:#999;stroke-width:3" />
<path d="M1694.25,16.78c5.03,0,23.48-2.97,29.13-2.97" style="fill:none;stroke:#999;stroke-width:3" />
<path d="M1709.52,17.75c0.02,0.18,0.05,0.47-0.05,0.73c-0.6,1.55-4.03,4.94-8.72,7.02" style="fill:none;stroke:#999;stroke-width:3" />
<path d="M1661.5,32.48c1.3,0.45,3.66,0.5,4.95,0.42c12.94-0.8,30.02-2.88,48.15-3.31c2.15-0.05,3.44,0.19,4.52,0.41" style="fill:none;stroke:#999;stroke-width:3" />
<path d="M1688.4099999999999,33.21c0.06,0.2,0.79,1.02,0.85,2.27c0.27,6-0.17,13.82-0.17,15.86" style="fill:none;stroke:#999;stroke-width:3" />
<path d="M1690.1100000000001,40.89c0.43,0.09,15.17-0.99,23.36-1.29c0.71-0.03,1.14,0.01,1.5,0.05" style="fill:none;stroke:#999;stroke-width:3" />
<path d="M1671.6,39.22c0.04,0.14,0.49,0.72,0.52,1.6c0.17,4.23,0.34,9.68,0.34,11.11" style="fill:none;stroke:#999;stroke-width:3" />
<path d="M1652.82,52.75c1.45,0.26,4.58,0.64,5.95,0.57c12.32-0.63,45.35-3.12,63.84-3.5c2.33-0.05,4.35,0.38,5.56,0.77" style="fill:none;stroke:#999;stroke-width:3" />
<path d="M1672.57,62.1c0.6,0.11,26.8-1.33,43.46-2.21c1.41-0.07,2.27,0.08,2.98,0.16" style="fill:none;stroke:#999;stroke-width:3" />
<path d="M1673.69,53.71c0.43,0.29,1.01,1.9,0.89,2.39c-1.36,5.65-4.04,11.77-5.48,14.98c-0.58,1.29,0.12,3.27,2.36,2.74c4.95-1.17,40.85-3.22,48.26-3.89c4.82-0.43,6.27,3.03,5.42,5.99C1723.29,82.4 1721.0,89 1718.41,95.3c-3.4,8.27-7.29,2.1-9.36-0.42" style="fill:none;stroke:#999;stroke-width:3" />
<path d="M1660.03,81.96c-0.73,5.43-2.51,11.33-6.03,14.4" style="fill:none;stroke:#999;stroke-width:3" />
<path d="M1674.05,81.44c1.91,2.41,3.73,9.05,4.2,12.81" style="fill:none;stroke:#999;stroke-width:3" />
<path d="M1689.5,79.75c1.9,2.16,4.9,8.88,5.37,12.25" style="fill:none;stroke:black;stroke-width:3" />
<circle cx="1689.5" cy="79.75" r="5" stroke-width="0" fill="#FF2A00" opacity="0.7" />
<path d="M1772.75,8.75c0.04,0.5,0.09,1.29-0.08,2.01C1771.6599999999999,15 1765.8899999999999,24.3 1758.0,30" style="fill:none;stroke:#999;stroke-width:3" />
<path d="M1772.0,18.18c4.12,0,17.37-1.6,22-1.6" style="fill:none;stroke:#999;stroke-width:3" />
<path d="M1778.75,20c1.68,1.37,4.33,5.62,4.75,7.75" style="fill:none;stroke:#999;stroke-width:3" />
<path d="M1804.24,9c0.03,0.41,0.12,1.06-0.06,1.63C1802.85,14.9 1799.15,21 1794.25,26.25" style="fill:none;stroke:#999;stroke-width:3" />
<path d="M1803.25,16.78c5.03,0,23.48-2.97,29.13-2.97" style="fill:none;stroke:#999;stroke-width:3" />
<path d="M1818.52,17.75c0.02,0.18,0.05,0.47-0.05,0.73c-0.6,1.55-4.03,4.94-8.72,7.02" style="fill:none;stroke:#999;stroke-width:3" />
<path d="M1770.5,32.48c1.3,0.45,3.66,0.5,4.95,0.42c12.94-0.8,30.02-2.88,48.15-3.31c2.15-0.05,3.44,0.19,4.52,0.41" style="fill:none;stroke:#999;stroke-width:3" />
<path d="M1797.4099999999999,33.21c0.06,0.2,0.79,1.02,0.85,2.27c0.27,6-0.17,13.82-0.17,15.86" style="fill:none;stroke:#999;stroke-width:3" />
<path d="M1799.1100000000001,40.89c0.43,0.09,15.17-0.99,23.36-1.29c0.71-0.03,1.14,0.01,1.5,0.05" style="fill:none;stroke:#999;stroke-width:3" />
<path d="M1780.6,39.22c0.04,0.14,0.49,0.72,0.52,1.6c0.17,4.23,0.34,9.68,0.34,11.11" style="fill:none;stroke:#999;stroke-width:3" />
<path d="M1761.82,52.75c1.45,0.26,4.58,0.64,5.95,0.57c12.32-0.63,45.35-3.12,63.84-3.5c2.33-0.05,4.35,0.38,5.56,0.77" style="fill:none;stroke:#999;stroke-width:3" />
<path d="M1781.57,62.1c0.6,0.11,26.8-1.33,43.46-2.21c1.41-0.07,2.27,0.08,2.98,0.16" style="fill:none;stroke:#999;stroke-width:3" />
<path d="M1782.69,53.71c0.43,0.29,1.01,1.9,0.89,2.39c-1.36,5.65-4.04,11.77-5.48,14.98c-0.58,1.29,0.12,3.27,2.36,2.74c4.95-1.17,40.85-3.22,48.26-3.89c4.82-0.43,6.27,3.03,5.42,5.99C1832.29,82.4 1830.0,89 1827.41,95.3c-3.4,8.27-7.29,2.1-9.36-0.42" style="fill:none;stroke:#999;stroke-width:3" />
<path d="M1769.03,81.96c-0.73,5.43-2.51,11.33-6.03,14.4" style="fill:none;stroke:#999;stroke-width:3" />
<path d="M1783.05,81.44c1.91,2.41,3.73,9.05,4.2,12.81" style="fill:none;stroke:#999;stroke-width:3" />
<path d="M1798.5,79.75c1.9,2.16,4.9,8.88,5.37,12.25" style="fill:none;stroke:#999;stroke-width:3" />
<path d="M1813.5,77.75c2.12,1.72,5.47,7.07,6,9.75" style="fill:none;stroke:black;stroke-width:3" />
<circle cx="1813.5" cy="77.75" r="5" stroke-width="0" fill="#FF2A00" opacity="0.7" />
</svg>