<!-- 07c9b -->
<svg width="1199px" height="109px" viewBox="0 0 1199px 109px" xmlns="http://www.w3.org/2000/svg" xmlns:xlink="http://www.w3.org/1999/xlink" xml:space="preserve" version="1.1"  baseProfile="full">
<line x1="1" y1="1" x2="1198" y2="1" style="stroke:#ddd;stroke-width:2" />
<line x1="1" y1="1" x2="1" y2="108" style="stroke:#ddd;stroke-width:2" />
<line x1="1" y1="108" x2="1198" y2="108" style="stroke:#ddd;stroke-width:2" />
<line x1="1198" y1="1" x2="1198" y2="108" style="stroke:#ddd;stroke-width:2" />
<line x1="109" y1="1" x2="109" y2="108" style="stroke:#ddd;stroke-width:2" />
<line x1="218" y1="1" x2="218" y2="108" style="stroke:#ddd;stroke-width:2" />
<line x1="327" y1="1" x2="327" y2="108" style="stroke:#ddd;stroke-width:2" />
<line x1="436" y1="1" x2="436" y2="108" style="stroke:#ddd;stroke-width:2" />
<line x1="545" y1="1" x2="545" y2="108" style="stroke:#ddd;stroke-width:2" />
<line x1="654" y1="1" x2="654" y2="108" style="stroke:#ddd;stroke-width:2" />
<line x1="763" y1="1" x2="763" y2="108" style="stroke:#ddd;stroke-width:2" />
<line x1="872" y1="1" x2="872" y2="108" style="stroke:#ddd;stroke-width:2" />
<line x1="981" y1="1" x2="981" y2="108" style="stroke:#ddd;stroke-width:2" />
<line x1="1090" y1="1" x2="1090" y2="108" style="stroke:#ddd;stroke-width:2" />
<line x1="1" y1="54" x2="1198" y2="54" style="stroke:#ddd;stroke-width:2;stroke-dasharray:3 3" />
<line x1="55" y1="1" x2="55" y2="108" style="stroke:#ddd;stroke-width:2;stroke-dasharray:3 3" />
<line x1="164" y1="1" x2="164" y2="108" style="stroke:#ddd;stroke-width:2;stroke-dasharray:3 3" />
<line x1="273" y1="1" x2="273" y2="108" style="stroke:#ddd;stroke-width:2;stroke-dasharray:3 3" />
<line x1="382" y1="1" x2="382" y2="108" style="stroke:#ddd;stroke-width:2;stroke-dasharray:3 3" />
<line x1="491" y1="1" x2="491" y2="108" style="stroke:#ddd;stroke-width:2;stroke-dasharray:3 3" />
<line x1="600" y1="1" x2="600" y2="108" style="stroke:#ddd;stroke-width:2;stroke-dasharray:3 3" />
<line x1="709" y1="1" x2="709" y2="108" style="stroke:#ddd;stroke-width:2;stroke-dasharray:3 3" />
<line x1="818" y1="1" x2="818" y2="108" style="stroke:#ddd;stroke-width:2;stroke-dasharray:3 3" />
<line x1="927" y1="1" x2="927" y2="108" style="stroke:#ddd;stroke-width:2;stroke-dasharray:3 3" />
<line x1="1036" y1="1" x2="1036" y2="108" style="stroke:#ddd;stroke-width:2;stroke-dasharray:3 3" />
<line x1="1145" y1="1" x2="1145" y2="108" style="stroke:#ddd;stroke-width:2;stroke-dasharray:3 3" />
<path d="M29.25,22.28c2.71,0.71,5.38,0.95,8.13,0.61c12.24-1.52,28.76-3.23,38.12-3.64c2.92-0.13,4.51,1.25,3.87,4.16c-0.83,3.76-2.24,10.35-3.37,17.03" style="fill:none;stroke:black;stroke-width:3" />
<circle cx="29.25" cy="22.28" r="5" stroke-width="0" fill="#FF2A00" opacity="0.7" />
<path d="M138.25,22.28c2.71,0.71,5.38,0.95,8.13,0.61c12.24-1.52,28.76-3.23,38.12-3.64c2.92-0.13,4.51,1.25,3.87,4.16c-0.83,3.76-2.24,10.35-3.37,17.03" style="fill:none;stroke:#999;stroke-width:3" />
<path d="M124.75,35.08c4.25,0.79,7.38,0.62,11.12,0.1c21.13-2.94,42.96-4.93,58.89-5.86c3.59-0.21,7.21-0.18,10.74,0.44" style="fill:none;stroke:black;stroke-width:3" />
<circle cx="124.75" cy="35.08" r="5" stroke-width="0" fill="#FF2A00" opacity="0.7" />
<path d="M247.25,22.28c2.71,0.71,5.38,0.95,8.13,0.61c12.24-1.52,28.76-3.23,38.12-3.64c2.92-0.13,4.51,1.25,3.87,4.16c-0.83,3.76-2.24,10.35-3.37,17.03" style="fill:none;stroke:#999;stroke-width:3" />
<path d="M233.75,35.08c4.25,0.79,7.38,0.62,11.12,0.1c21.13-2.94,42.96-4.93,58.89-5.86c3.59-0.21,7.21-0.18,10.74,0.44" style="fill:none;stroke:#999;stroke-width:3" />
<path d="M246.5,46.04c3.19,0.56,6.23,0.3,9.38-0.18c12.34-1.87,23.31-3.02,33.87-3.96c2.3-0.21,4.45-0.29,6.74,0.04" style="fill:none;stroke:black;stroke-width:3" />
<circle cx="246.5" cy="46.04" r="5" stroke-width="0" fill="#FF2A00" opacity="0.7" />
<path d="M356.25,22.28c2.71,0.71,5.38,0.95,8.13,0.61c12.24-1.52,28.76-3.23,38.12-3.64c2.92-0.13,4.51,1.25,3.87,4.16c-0.83,3.76-2.24,10.35-3.37,17.03" style="fill:none;stroke:#999;stroke-width:3" />
<path d="M342.75,35.08c4.25,0.79,7.38,0.62,11.12,0.1c21.13-2.94,42.96-4.93,58.89-5.86c3.59-0.21,7.21-0.18,10.74,0.44" style="fill:none;stroke:#999;stroke-width:3" />
<path d="M355.5,46.04c3.19,0.56,6.23,0.3,9.38-0.18c12.34-1.87,23.31-3.02,33.87-3.96c2.3-0.21,4.45-0.29,6.74,0.04" style="fill:none;stroke:#999;stroke-width:3" />
<path d="M380.12,10.75c1,1,1.46,2.38,1.46,4c0,0.78-0.06,50.39-0.08,75.75c0,3.23,0,6.07,0,8.38" style="fill:none;stroke:black;stroke-width:3" />
<circle cx="380.12" cy="10.75" r="5" stroke-width="0" fill="#FF2A00" opacity="0.7" />
<path d="M465.25,22.28c2.71,0.71,5.38,0.95,8.13,0.61c12.24-1.52,28.76-3.23,38.12-3.64c2.92-0.13,4.51,1.25,3.87,4.16c-0.83,3.76-2.24,10.35-3.37,17.03" style="fill:none;stroke:#999;stroke-width:3" />
<path d="M451.75,35.08c4.25,0.79,7.38,0.62,11.12,0.1c21.13-2.94,42.96-4.93,58.89-5.86c3.59-0.21,7.21-0.18,10.74,0.44" style="fill:none;stroke:#999;stroke-width:3" />
<path d="M464.5,46.04c3.19,0.56,6.23,0.3,9.38-0.18c12.34-1.87,23.31-3.02,33.87-3.96c2.3-0.21,4.45-0.29,6.74,0.04" style="fill:none;stroke:#999;stroke-width:3" />
<path d="M489.12,10.75c1,1,1.46,2.38,1.46,4c0,0.78-0.06,50.39-0.08,75.75c0,3.23,0,6.07,0,8.38" style="fill:none;stroke:#999;stroke-width:3" />
<path d="M475.4,53.88c2.26,1.49,5.66,5.69,6.22,8" style="fill:none;stroke:black;stroke-width:3" />
<circle cx="475.4" cy="53.88" r="5" stroke-width="0" fill="#FF2A00" opacity="0.7" />
<path d="M574.25,22.28c2.71,0.71,5.38,0.95,8.13,0.61c12.24-1.52,28.76-3.23,38.12-3.64c2.92-0.13,4.51,1.25,3.87,4.16c-0.83,3.76-2.24,10.35-3.37,17.03" style="fill:none;stroke:#999;stroke-width:3" />
<path d="M560.75,35.08c4.25,0.79,7.38,0.62,11.12,0.1c21.13-2.94,42.96-4.93,58.89-5.86c3.59-0.21,7.21-0.18,10.74,0.44" style="fill:none;stroke:#999;stroke-width:3" />
<path d="M573.5,46.04c3.19,0.56,6.23,0.3,9.38-0.18c12.34-1.87,23.31-3.02,33.87-3.96c2.3-0.21,4.45-0.29,6.74,0.04" style="fill:none;stroke:#999;stroke-width:3" />
<path d="M598.12,10.75c1,1,1.46,2.38,1.46,4c0,0.78-0.06,50.39-0.08,75.75c0,3.23,0,6.07,0,8.38" style="fill:none;stroke:#999;stroke-width:3" />
<path d="M584.4,53.88c2.26,1.49,5.66,5.69,6.22,8" style="fill:none;stroke:#999;stroke-width:3" />
<path d="M614.51,48.28c0.07,0.75-0.06,1.47-0.37,2.16c-0.95,2.42-3.48,6-7.24,9.55" style="fill:none;stroke:black;stroke-width:3" />
<circle cx="614.51" cy="48.28" r="5" stroke-width="0" fill="#FF2A00" opacity="0.7" />
<path d="M683.25,22.28c2.71,0.71,5.38,0.95,8.13,0.61c12.24-1.52,28.76-3.23,38.12-3.64c2.92-0.13,4.51,1.25,3.87,4.16c-0.83,3.76-2.24,10.35-3.37,17.03" style="fill:none;stroke:#999;stroke-width:3" />
<path d="M669.75,35.08c4.25,0.79,7.38,0.62,11.12,0.1c21.13-2.94,42.96-4.93,58.89-5.86c3.59-0.21,7.21-0.18,10.74,0.44" style="fill:none;stroke:#999;stroke-width:3" />
<path d="M682.5,46.04c3.19,0.56,6.23,0.3,9.38-0.18c12.34-1.87,23.31-3.02,33.87-3.96c2.3-0.21,4.45-0.29,6.74,0.04" style="fill:none;stroke:#999;stroke-width:3" />
<path d="M707.12,10.75c1,1,1.46,2.38,1.46,4c0,0.78-0.06,50.39-0.08,75.75c0,3.23,0,6.07,0,8.38" style="fill:none;stroke:#999;stroke-width:3" />
<path d="M693.4,53.88c2.26,1.49,5.66,5.69,6.22,8" style="fill:none;stroke:#999;stroke-width:3" />
<path d="M723.51,48.28c0.07,0.75-0.06,1.47-0.37,2.16c-0.95,2.42-3.48,6-7.24,9.55" style="fill:none;stroke:#999;stroke-width:3" />
<path d="M689.47,67.39c2.4,0.74,4.3,0.8,6.03,0.65c7.89-0.67,21.39-2.99,28.99-3.74c1.41-0.14,3.28-0.57,4.66-0.2" style="fill:none;stroke:black;stroke-width:3" />
<circle cx="689.47" cy="67.39" r="5" stroke-width="0" fill="#FF2A00" opacity="0.7" />
<path d="M792.25,22.28c2.71,0.71,5.38,0.95,8.13,0.61c12.24-1.52,28.76-3.23,38.12-3.64c2.92-0.13,4.51,1.25,3.87,4.16c-0.83,3.76-2.24,10.35-3.37,17.03" style="fill:none;stroke:#999;stroke-width:3" />
<path d="M778.75,35.08c4.25,0.79,7.38,0.62,11.12,0.1c21.13-2.94,42.96-4.93,58.89-5.86c3.59-0.21,7.21-0.18,10.74,0.44" style="fill:none;stroke:#999;stroke-width:3" />
<path d="M791.5,46.04c3.19,0.56,6.23,0.3,9.38-0.18c12.34-1.87,23.31-3.02,33.87-3.96c2.3-0.21,4.45-0.29,6.74,0.04" style="fill:none;stroke:#999;stroke-width:3" />
<path d="M816.12,10.75c1,1,1.46,2.38,1.46,4c0,0.78-0.06,50.39-0.08,75.75c0,3.23,0,6.07,0,8.38" style="fill:none;stroke:#999;stroke-width:3" />
<path d="M802.4,53.88c2.26,1.49,5.66,5.69,6.22,8" style="fill:none;stroke:#999;stroke-width:3" />
<path d="M832.51,48.28c0.07,0.75-0.06,1.47-0.37,2.16c-0.95,2.42-3.48,6-7.24,9.55" style="fill:none;stroke:#999;stroke-width:3" />
<path d="M798.47,67.39c2.4,0.74,4.3,0.8,6.03,0.65c7.89-0.67,21.39-2.99,28.99-3.74c1.41-0.14,3.28-0.57,4.66-0.2" style="fill:none;stroke:#999;stroke-width:3" />
<path d="M814.87,67.6c0,1.4-0.44,2.31-1.01,3.26c-4.64,7.79-13.54,17.07-21.61,21.25" style="fill:none;stroke:black;stroke-width:3" />
<circle cx="814.87" cy="67.6" r="5" stroke-width="0" fill="#FF2A00" opacity="0.7" />
<path d="M901.25,22.28c2.71,0.71,5.38,0.95,8.13,0.61c12.24-1.52,28.76-3.23,38.12-3.64c2.92-0.13,4.51,1.25,3.87,4.16c-0.83,3.76-2.24,10.35-3.37,17.03" style="fill:none;stroke:#999;stroke-width:3" />
<path d="M887.75,35.08c4.25,0.79,7.38,0.62,11.12,0.1c21.13-2.94,42.96-4.93,58.89-5.86c3.59-0.21,7.21-0.18,10.74,0.44" style="fill:none;stroke:#999;stroke-width:3" />
<path d="M900.5,46.04c3.19,0.56,6.23,0.3,9.38-0.18c12.34-1.87,23.31-3.02,33.87-3.96c2.3-0.21,4.45-0.29,6.74,0.04" style="fill:none;stroke:#999;stroke-width:3" />
<path d="M925.12,10.75c1,1,1.46,2.38,1.46,4c0,0.78-0.06,50.39-0.08,75.75c0,3.23,0,6.07,0,8.38" style="fill:none;stroke:#999;stroke-width:3" />
<path d="M911.4,53.88c2.26,1.49,5.66,5.69,6.22,8" style="fill:none;stroke:#999;stroke-width:3" />
<path d="M941.51,48.28c0.07,0.75-0.06,1.47-0.37,2.16c-0.95,2.42-3.48,6-7.24,9.55" style="fill:none;stroke:#999;stroke-width:3" />
<path d="M907.47,67.39c2.4,0.74,4.3,0.8,6.03,0.65c7.89-0.67,21.39-2.99,28.99-3.74c1.41-0.14,3.28-0.57,4.66-0.2" style="fill:none;stroke:#999;stroke-width:3" />
<path d="M923.87,67.6c0,1.4-0.44,2.31-1.01,3.26c-4.64,7.79-13.54,17.07-21.61,21.25" style="fill:none;stroke:#999;stroke-width:3" />
<path d="M929.59,73.5c6.28,2.37,12.91,7.37,16.13,12.02" style="fill:none;stroke:black;stroke-width:3" />
<circle cx="929.59" cy="73.5" r="5" stroke-width="0" fill="#FF2A00" opacity="0.7" />
<path d="M1010.25,22.28c2.71,0.71,5.38,0.95,8.13,0.61c12.24-1.52,28.76-3.23,38.12-3.64c2.92-0.13,4.51,1.25,3.87,4.16c-0.83,3.76-2.24,10.35-3.37,17.03" style="fill:none;stroke:#999;stroke-width:3" />
<path d="M996.75,35.08c4.25,0.79,7.38,0.62,11.12,0.1c21.13-2.94,42.96-4.93,58.89-5.86c3.59-0.21,7.21-0.18,10.74,0.44" style="fill:none;stroke:#999;stroke-width:3" />
<path d="M1009.5,46.04c3.19,0.56,6.23,0.3,9.38-0.18c12.34-1.87,23.31-3.02,33.87-3.96c2.3-0.21,4.45-0.29,6.74,0.04" style="fill:none;stroke:#999;stroke-width:3" />
<path d="M1034.12,10.75c1,1,1.46,2.38,1.46,4c0,0.78-0.06,50.39-0.08,75.75c0,3.23,0,6.07,0,8.38" style="fill:none;stroke:#999;stroke-width:3" />
<path d="M1020.4,53.88c2.26,1.49,5.66,5.69,6.22,8" style="fill:none;stroke:#999;stroke-width:3" />
<path d="M1050.51,48.28c0.07,0.75-0.06,1.47-0.37,2.16c-0.95,2.42-3.48,6-7.24,9.55" style="fill:none;stroke:#999;stroke-width:3" />
<path d="M1016.47,67.39c2.4,0.74,4.3,0.8,6.03,0.65c7.89-0.67,21.39-2.99,28.99-3.74c1.41-0.14,3.28-0.57,4.66-0.2" style="fill:none;stroke:#999;stroke-width:3" />
<path d="M1032.87,67.6c0,1.4-0.44,2.31-1.01,3.26c-4.64,7.79-13.54,17.07-21.61,21.25" style="fill:none;stroke:#999;stroke-width:3" />
<path d="M1038.5900000000001,73.5c6.28,2.37,12.91,7.37,16.13,12.02" style="fill:none;stroke:#999;stroke-width:3" />
<path d="M1008.51,53.25c0.74,0.75,0.9,1.58,0.9,3.03c0,13.26,0.34,31.97-11.6,40.69" style="fill:none;stroke:black;stroke-width:3" />
<circle cx="1008.51" cy="53.25" r="5" stroke-width="0" fill="#FF2A00" opacity="0.7" />
<path d="M1119.25,22.28c2.71,0.71,5.38,0.95,8.13,0.61c12.24-1.52,28.76-3.23,38.12-3.64c2.92-0.13,4.51,1.25,3.87,4.16c-0.83,3.76-2.24,10.35-3.37,17.03" style="fill:none;stroke:#999;stroke-width:3" />
<path d="M1105.75,35.08c4.25,0.79,7.38,0.62,11.12,0.1c21.13-2.94,42.96-4.93,58.89-5.86c3.59-0.21,7.21-0.18,10.74,0.44" style="fill:none;stroke:#999;stroke-width:3" />
<path d="M1118.5,46.04c3.19,0.56,6.23,0.3,9.38-0.18c12.34-1.87,23.31-3.02,33.87-3.96c2.3-0.21,4.45-0.29,6.74,0.04" style="fill:none;stroke:#999;stroke-width:3" />
<path d="M1143.12,10.75c1,1,1.46,2.38,1.46,4c0,0.78-0.06,50.39-0.08,75.75c0,3.23,0,6.07,0,8.38" style="fill:none;stroke:#999;stroke-width:3" />
<path d="M1129.4,53.88c2.26,1.49,5.66,5.69,6.22,8" style="fill:none;stroke:#999;stroke-width:3" />
<path d="M1159.51,48.28c0.07,0.75-0.06,1.47-0.37,2.16c-0.95,2.42-3.48,6-7.24,9.55" style="fill:none;stroke:#999;stroke-width:3" />
<path d="M1125.47,67.39c2.4,0.74,4.3,0.8,6.03,0.65c7.89-0.67,21.39-2.99,28.99-3.74c1.41-0.14,3.28-0.57,4.66-0.2" style="fill:none;stroke:#999;stroke-width:3" />
<path d="M1141.87,67.6c0,1.4-0.44,2.31-1.01,3.26c-4.64,7.79-13.54,17.07-21.61,21.25" style="fill:none;stroke:#999;stroke-width:3" />
<path d="M1147.5900000000001,73.5c6.28,2.37,12.91,7.37,16.13,12.02" style="fill:none;stroke:#999;stroke-width:3" />
<path d="M1117.51,53.25c0.74,0.75,0.9,1.58,0.9,3.03c0,13.26,0.34,31.97-11.6,40.69" style="fill:none;stroke:#999;stroke-width:3" />
<path d="M1171.37,47c1,1,1.46,2.5,1.46,4c0,3.97,0.02,24.92,0.03,37.38c0,3.65,0,6.57,0,8.12" style="fill:none;stroke:black;stroke-width:3" />
<circle cx="1171.37" cy="47.0" r="5" stroke-width="0" fill="#FF2A00" opacity="0.7" />
</svg>