<!-- 07d89 -->
<svg width="1417px" height="109px" viewBox="0 0 1417px 109px" xmlns="http://www.w3.org/2000/svg" xmlns:xlink="http://www.w3.org/1999/xlink" xml:space="preserve" version="1.1"  baseProfile="full">
<line x1="1" y1="1" x2="1416" y2="1" style="stroke:#ddd;stroke-width:2" />
<line x1="1" y1="1" x2="1" y2="108" style="stroke:#ddd;stroke-width:2" />
<line x1="1" y1="108" x2="1416" y2="108" style="stroke:#ddd;stroke-width:2" />
<line x1="1416" y1="1" x2="1416" y2="108" style="stroke:#ddd;stroke-width:2" />
<line x1="109" y1="1" x2="109" y2="108" style="stroke:#ddd;stroke-width:2" />
<line x1="218" y1="1" x2="218" y2="108" style="stroke:#ddd;stroke-width:2" />
<line x1="327" y1="1" x2="327" y2="108" style="stroke:#ddd;stroke-width:2" />
<line x1="436" y1="1" x2="436" y2="108" style="stroke:#ddd;stroke-width:2" />
<line x1="545" y1="1" x2="545" y2="108" style="stroke:#ddd;stroke-width:2" />
<line x1="654" y1="1" x2="654" y2="108" style="stroke:#ddd;stroke-width:2" />
<line x1="763" y1="1" x2="763" y2="108" style="stroke:#ddd;stroke-width:2" />
<line x1="872" y1="1" x2="872" y2="108" style="stroke:#ddd;stroke-width:2" />
<line x1="981" y1="1" x2="981" y2="108" style="stroke:#ddd;stroke-width:2" />
<line x1="1090" y1="1" x2="1090" y2="108" style="stroke:#ddd;stroke-width:2" />
<line x1="1199" y1="1" x2="1199" y2="108" style="stroke:#ddd;stroke-width:2" />
<line x1="1308" y1="1" x2="1308" y2="108" style="stroke:#ddd;stroke-width:2" />
<line x1="1" y1="54" x2="1416" y2="54" style="stroke:#ddd;stroke-width:2;stroke-dasharray:3 3" />
<line x1="55" y1="1" x2="55" y2="108" style="stroke:#ddd;stroke-width:2;stroke-dasharray:3 3" />
<line x1="164" y1="1" x2="164" y2="108" style="stroke:#ddd;stroke-width:2;stroke-dasharray:3 3" />
<line x1="273" y1="1" x2="273" y2="108" style="stroke:#ddd;stroke-width:2;stroke-dasharray:3 3" />
<line x1="382" y1="1" x2="382" y2="108" style="stroke:#ddd;stroke-width:2;stroke-dasharray:3 3" />
<line x1="491" y1="1" x2="491" y2="108" style="stroke:#ddd;stroke-width:2;stroke-dasharray:3 3" />
<line x1="600" y1="1" x2="600" y2="108" style="stroke:#ddd;stroke-width:2;stroke-dasharray:3 3" />
<line x1="709" y1="1" x2="709" y2="108" style="stroke:#ddd;stroke-width:2;stroke-dasharray:3 3" />
<line x1="818" y1="1" x2="818" y2="108" style="stroke:#ddd;stroke-width:2;stroke-dasharray:3 3" />
<line x1="927" y1="1" x2="927" y2="108" style="stroke:#ddd;stroke-width:2;stroke-dasharray:3 3" />
<line x1="1036" y1="1" x2="1036" y2="108" style="stroke:#ddd;stroke-width:2;stroke-dasharray:3 3" />
<line x1="1145" y1="1" x2="1145" y2="108" style="stroke:#ddd;stroke-width:2;stroke-dasharray:3 3" />
<line x1="1254" y1="1" x2="1254" y2="108" style="stroke:#ddd;stroke-width:2;stroke-dasharray:3 3" />
<line x1="1363" y1="1" x2="1363" y2="108" style="stroke:#ddd;stroke-width:2;stroke-dasharray:3 3" />
<path d="M26.4,14.42c0.36,1.28,0.38,2.22-0.18,3.61c-2.46,6.13-6.46,12.2-11.28,17.1c-0.67,0.68-0.72,2.95,0,3.19c3.81,1.28,7.64,2.45,10.91,4.79" style="fill:none;stroke:black;stroke-width:3" />
<circle cx="26.4" cy="14.42" r="5" stroke-width="0" fill="#FF2A00" opacity="0.7" />
<path d="M135.4,14.42c0.36,1.28,0.38,2.22-0.18,3.61c-2.46,6.13-6.46,12.2-11.28,17.1c-0.67,0.68-0.72,2.95,0,3.19c3.81,1.28,7.64,2.45,10.91,4.79" style="fill:none;stroke:#999;stroke-width:3" />
<path d="M145.65,25.43c0.28,0.57,0.35,2.41,0,3.02c-5.41,9.53-14.43,21.72-21.88,29.81c-1.71,1.86,0.42,2.92,1.54,2.54c4.66-1.58,15.72-4.4,21.7-5.91" style="fill:none;stroke:black;stroke-width:3" />
<circle cx="145.65" cy="25.43" r="5" stroke-width="0" fill="#FF2A00" opacity="0.7" />
<path d="M244.4,14.42c0.36,1.28,0.38,2.22-0.18,3.61c-2.46,6.13-6.46,12.2-11.28,17.1c-0.67,0.68-0.72,2.95,0,3.19c3.81,1.28,7.64,2.45,10.91,4.79" style="fill:none;stroke:#999;stroke-width:3" />
<path d="M254.65,25.43c0.28,0.57,0.35,2.41,0,3.02c-5.41,9.53-14.43,21.72-21.88,29.81c-1.71,1.86,0.42,2.92,1.54,2.54c4.66-1.58,15.72-4.4,21.7-5.91" style="fill:none;stroke:#999;stroke-width:3" />
<path d="M249.0,47.25c3.79,2.6,9.8,10.7,10.75,14.75" style="fill:none;stroke:black;stroke-width:3" />
<circle cx="249.0" cy="47.25" r="5" stroke-width="0" fill="#FF2A00" opacity="0.7" />
<path d="M353.4,14.42c0.36,1.28,0.38,2.22-0.18,3.61c-2.46,6.13-6.46,12.2-11.28,17.1c-0.67,0.68-0.72,2.95,0,3.19c3.81,1.28,7.64,2.45,10.91,4.79" style="fill:none;stroke:#999;stroke-width:3" />
<path d="M363.65,25.43c0.28,0.57,0.35,2.41,0,3.02c-5.41,9.53-14.43,21.72-21.88,29.81c-1.71,1.86,0.42,2.92,1.54,2.54c4.66-1.58,15.72-4.4,21.7-5.91" style="fill:none;stroke:#999;stroke-width:3" />
<path d="M358.0,47.25c3.79,2.6,9.8,10.7,10.75,14.75" style="fill:none;stroke:#999;stroke-width:3" />
<path d="M354.64,60.87c0.07,0.36,0.91,1.85,0.98,4.09c0.31,10.79-0.2,30.29-0.2,33.96" style="fill:none;stroke:black;stroke-width:3" />
<circle cx="354.64" cy="60.87" r="5" stroke-width="0" fill="#FF2A00" opacity="0.7" />
<path d="M462.4,14.42c0.36,1.28,0.38,2.22-0.18,3.61c-2.46,6.13-6.46,12.2-11.28,17.1c-0.67,0.68-0.72,2.95,0,3.19c3.81,1.28,7.64,2.45,10.91,4.79" style="fill:none;stroke:#999;stroke-width:3" />
<path d="M472.65,25.43c0.28,0.57,0.35,2.41,0,3.02c-5.41,9.53-14.43,21.72-21.88,29.81c-1.71,1.86,0.42,2.92,1.54,2.54c4.66-1.58,15.72-4.4,21.7-5.91" style="fill:none;stroke:#999;stroke-width:3" />
<path d="M467.0,47.25c3.79,2.6,9.8,10.7,10.75,14.75" style="fill:none;stroke:#999;stroke-width:3" />
<path d="M463.64,60.87c0.07,0.36,0.91,1.85,0.98,4.09c0.31,10.79-0.2,30.29-0.2,33.96" style="fill:none;stroke:#999;stroke-width:3" />
<path d="M455.85,70.6c0.16,0.94,0.13,2.79-0.16,3.47c-1.87,4.39-6.55,12.85-9.2,16.62" style="fill:none;stroke:black;stroke-width:3" />
<circle cx="455.85" cy="70.6" r="5" stroke-width="0" fill="#FF2A00" opacity="0.7" />
<path d="M571.4,14.42c0.36,1.28,0.38,2.22-0.18,3.61c-2.46,6.13-6.46,12.2-11.28,17.1c-0.67,0.68-0.72,2.95,0,3.19c3.81,1.28,7.64,2.45,10.91,4.79" style="fill:none;stroke:#999;stroke-width:3" />
<path d="M581.65,25.43c0.28,0.57,0.35,2.41,0,3.02c-5.41,9.53-14.43,21.72-21.88,29.81c-1.71,1.86,0.42,2.92,1.54,2.54c4.66-1.58,15.72-4.4,21.7-5.91" style="fill:none;stroke:#999;stroke-width:3" />
<path d="M576.0,47.25c3.79,2.6,9.8,10.7,10.75,14.75" style="fill:none;stroke:#999;stroke-width:3" />
<path d="M572.64,60.87c0.07,0.36,0.91,1.85,0.98,4.09c0.31,10.79-0.2,30.29-0.2,33.96" style="fill:none;stroke:#999;stroke-width:3" />
<path d="M564.85,70.6c0.16,0.94,0.13,2.79-0.16,3.47c-1.87,4.39-6.55,12.85-9.2,16.62" style="fill:none;stroke:#999;stroke-width:3" />
<path d="M582.18,69.54c3.87,3.71,6.84,12.33,7.74,15.69" style="fill:none;stroke:black;stroke-width:3" />
<circle cx="582.18" cy="69.54" r="5" stroke-width="0" fill="#FF2A00" opacity="0.7" />
<path d="M680.4,14.42c0.36,1.28,0.38,2.22-0.18,3.61c-2.46,6.13-6.46,12.2-11.28,17.1c-0.67,0.68-0.72,2.95,0,3.19c3.81,1.28,7.64,2.45,10.91,4.79" style="fill:none;stroke:#999;stroke-width:3" />
<path d="M690.65,25.43c0.28,0.57,0.35,2.41,0,3.02c-5.41,9.53-14.43,21.72-21.88,29.81c-1.71,1.86,0.42,2.92,1.54,2.54c4.66-1.58,15.72-4.4,21.7-5.91" style="fill:none;stroke:#999;stroke-width:3" />
<path d="M685.0,47.25c3.79,2.6,9.8,10.7,10.75,14.75" style="fill:none;stroke:#999;stroke-width:3" />
<path d="M681.64,60.87c0.07,0.36,0.91,1.85,0.98,4.09c0.31,10.79-0.2,30.29-0.2,33.96" style="fill:none;stroke:#999;stroke-width:3" />
<path d="M673.85,70.6c0.16,0.94,0.13,2.79-0.16,3.47c-1.87,4.39-6.55,12.85-9.2,16.62" style="fill:none;stroke:#999;stroke-width:3" />
<path d="M691.18,69.54c3.87,3.71,6.84,12.33,7.74,15.69" style="fill:none;stroke:#999;stroke-width:3" />
<path d="M737.23,11c0.1,0.27,0.27,0.75-0.2,1.09c-4.72,3.51-15.01,9.02-34.78,10.41" style="fill:none;stroke:black;stroke-width:3" />
<circle cx="737.23" cy="11.0" r="5" stroke-width="0" fill="#FF2A00" opacity="0.7" />
<path d="M789.4,14.42c0.36,1.28,0.38,2.22-0.18,3.61c-2.46,6.13-6.46,12.2-11.28,17.1c-0.67,0.68-0.72,2.95,0,3.19c3.81,1.28,7.64,2.45,10.91,4.79" style="fill:none;stroke:#999;stroke-width:3" />
<path d="M799.65,25.43c0.28,0.57,0.35,2.41,0,3.02c-5.41,9.53-14.43,21.72-21.88,29.81c-1.71,1.86,0.42,2.92,1.54,2.54c4.66-1.58,15.72-4.4,21.7-5.91" style="fill:none;stroke:#999;stroke-width:3" />
<path d="M794.0,47.25c3.79,2.6,9.8,10.7,10.75,14.75" style="fill:none;stroke:#999;stroke-width:3" />
<path d="M790.64,60.87c0.07,0.36,0.91,1.85,0.98,4.09c0.31,10.79-0.2,30.29-0.2,33.96" style="fill:none;stroke:#999;stroke-width:3" />
<path d="M782.85,70.6c0.16,0.94,0.13,2.79-0.16,3.47c-1.87,4.39-6.55,12.85-9.2,16.62" style="fill:none;stroke:#999;stroke-width:3" />
<path d="M800.18,69.54c3.87,3.71,6.84,12.33,7.74,15.69" style="fill:none;stroke:#999;stroke-width:3" />
<path d="M846.23,11c0.1,0.27,0.27,0.75-0.2,1.09c-4.72,3.51-15.01,9.02-34.78,10.41" style="fill:none;stroke:#999;stroke-width:3" />
<path d="M807.95,34.01c0.79,0.14,2.88,0.16,4.98,0.1c7.25-0.18,28.48-2.49,42.89-3.21c2.09-0.1,2.62-0.14,3.93,0" style="fill:none;stroke:black;stroke-width:3" />
<circle cx="807.95" cy="34.01" r="5" stroke-width="0" fill="#FF2A00" opacity="0.7" />
<path d="M898.4,14.42c0.36,1.28,0.38,2.22-0.18,3.61c-2.46,6.13-6.46,12.2-11.28,17.1c-0.67,0.68-0.72,2.95,0,3.19c3.81,1.28,7.64,2.45,10.91,4.79" style="fill:none;stroke:#999;stroke-width:3" />
<path d="M908.65,25.43c0.28,0.57,0.35,2.41,0,3.02c-5.41,9.53-14.43,21.72-21.88,29.81c-1.71,1.86,0.42,2.92,1.54,2.54c4.66-1.58,15.72-4.4,21.7-5.91" style="fill:none;stroke:#999;stroke-width:3" />
<path d="M903.0,47.25c3.79,2.6,9.8,10.7,10.75,14.75" style="fill:none;stroke:#999;stroke-width:3" />
<path d="M899.64,60.87c0.07,0.36,0.91,1.85,0.98,4.09c0.31,10.79-0.2,30.29-0.2,33.96" style="fill:none;stroke:#999;stroke-width:3" />
<path d="M891.85,70.6c0.16,0.94,0.13,2.79-0.16,3.47c-1.87,4.39-6.55,12.85-9.2,16.62" style="fill:none;stroke:#999;stroke-width:3" />
<path d="M909.18,69.54c3.87,3.71,6.84,12.33,7.74,15.69" style="fill:none;stroke:#999;stroke-width:3" />
<path d="M955.23,11c0.1,0.27,0.27,0.75-0.2,1.09c-4.72,3.51-15.01,9.02-34.78,10.41" style="fill:none;stroke:#999;stroke-width:3" />
<path d="M916.95,34.01c0.79,0.14,2.88,0.16,4.98,0.1c7.25-0.18,28.48-2.49,42.89-3.21c2.09-0.1,2.62-0.14,3.93,0" style="fill:none;stroke:#999;stroke-width:3" />
<path d="M939.1,20.62c0.66,0.42,1.05,1.87,1.18,2.71c0.13,0.83,0,21.88-0.13,27.09" style="fill:none;stroke:black;stroke-width:3" />
<circle cx="939.1" cy="20.62" r="5" stroke-width="0" fill="#FF2A00" opacity="0.7" />
<path d="M1007.4,14.42c0.36,1.28,0.38,2.22-0.18,3.61c-2.46,6.13-6.46,12.2-11.28,17.1c-0.67,0.68-0.72,2.95,0,3.19c3.81,1.28,7.64,2.45,10.91,4.79" style="fill:none;stroke:#999;stroke-width:3" />
<path d="M1017.65,25.43c0.28,0.57,0.35,2.41,0,3.02c-5.41,9.53-14.43,21.72-21.88,29.81c-1.71,1.86,0.42,2.92,1.54,2.54c4.66-1.58,15.72-4.4,21.7-5.91" style="fill:none;stroke:#999;stroke-width:3" />
<path d="M1012.0,47.25c3.79,2.6,9.8,10.7,10.75,14.75" style="fill:none;stroke:#999;stroke-width:3" />
<path d="M1008.64,60.87c0.07,0.36,0.91,1.85,0.98,4.09c0.31,10.79-0.2,30.29-0.2,33.96" style="fill:none;stroke:#999;stroke-width:3" />
<path d="M1000.85,70.6c0.16,0.94,0.13,2.79-0.16,3.47c-1.87,4.39-6.55,12.85-9.2,16.62" style="fill:none;stroke:#999;stroke-width:3" />
<path d="M1018.18,69.54c3.87,3.71,6.84,12.33,7.74,15.69" style="fill:none;stroke:#999;stroke-width:3" />
<path d="M1064.23,11c0.1,0.27,0.27,0.75-0.2,1.09c-4.72,3.51-15.01,9.02-34.78,10.41" style="fill:none;stroke:#999;stroke-width:3" />
<path d="M1025.95,34.01c0.79,0.14,2.88,0.16,4.98,0.1c7.25-0.18,28.48-2.49,42.89-3.21c2.09-0.1,2.62-0.14,3.93,0" style="fill:none;stroke:#999;stroke-width:3" />
<path d="M1048.1,20.62c0.66,0.42,1.05,1.87,1.18,2.71c0.13,0.83,0,21.88-0.13,27.09" style="fill:none;stroke:#999;stroke-width:3" />
<path d="M1046.68,33.18C1042.32,40.11 1035.78,46.89 1025.25,52" style="fill:none;stroke:black;stroke-width:3" />
<circle cx="1046.68" cy="33.18" r="5" stroke-width="0" fill="#FF2A00" opacity="0.7" />
<path d="M1116.4,14.42c0.36,1.28,0.38,2.22-0.18,3.61c-2.46,6.13-6.46,12.2-11.28,17.1c-0.67,0.68-0.72,2.95,0,3.19c3.81,1.28,7.64,2.45,10.91,4.79" style="fill:none;stroke:#999;stroke-width:3" />
<path d="M1126.65,25.43c0.28,0.57,0.35,2.41,0,3.02c-5.41,9.53-14.43,21.72-21.88,29.81c-1.71,1.86,0.42,2.92,1.54,2.54c4.66-1.58,15.72-4.4,21.7-5.91" style="fill:none;stroke:#999;stroke-width:3" />
<path d="M1121.0,47.25c3.79,2.6,9.8,10.7,10.75,14.75" style="fill:none;stroke:#999;stroke-width:3" />
<path d="M1117.6399999999999,60.87c0.07,0.36,0.91,1.85,0.98,4.09c0.31,10.79-0.2,30.29-0.2,33.96" style="fill:none;stroke:#999;stroke-width:3" />
<path d="M1109.85,70.6c0.16,0.94,0.13,2.79-0.16,3.47c-1.87,4.39-6.55,12.85-9.2,16.62" style="fill:none;stroke:#999;stroke-width:3" />
<path d="M1127.1799999999998,69.54c3.87,3.71,6.84,12.33,7.74,15.69" style="fill:none;stroke:#999;stroke-width:3" />
<path d="M1173.23,11c0.1,0.27,0.27,0.75-0.2,1.09c-4.72,3.51-15.01,9.02-34.78,10.41" style="fill:none;stroke:#999;stroke-width:3" />
<path d="M1134.95,34.01c0.79,0.14,2.88,0.16,4.98,0.1c7.25-0.18,28.48-2.49,42.89-3.21c2.09-0.1,2.62-0.14,3.93,0" style="fill:none;stroke:#999;stroke-width:3" />
<path d="M1157.1,20.62c0.66,0.42,1.05,1.87,1.18,2.71c0.13,0.83,0,21.88-0.13,27.09" style="fill:none;stroke:#999;stroke-width:3" />
<path d="M1155.68,33.18C1151.32,40.11 1144.78,46.89 1134.25,52" style="fill:none;stroke:#999;stroke-width:3" />
<path d="M1160.0,33c3.19,2.41,17.8,13.8,21.28,16.17c1.18,0.8,2.19,1.15,3.36,1.38" style="fill:none;stroke:black;stroke-width:3" />
<circle cx="1160.0" cy="33.0" r="5" stroke-width="0" fill="#FF2A00" opacity="0.7" />
<path d="M1225.4,14.42c0.36,1.28,0.38,2.22-0.18,3.61c-2.46,6.13-6.46,12.2-11.28,17.1c-0.67,0.68-0.72,2.95,0,3.19c3.81,1.28,7.64,2.45,10.91,4.79" style="fill:none;stroke:#999;stroke-width:3" />
<path d="M1235.65,25.43c0.28,0.57,0.35,2.41,0,3.02c-5.41,9.53-14.43,21.72-21.88,29.81c-1.71,1.86,0.42,2.92,1.54,2.54c4.66-1.58,15.72-4.4,21.7-5.91" style="fill:none;stroke:#999;stroke-width:3" />
<path d="M1230.0,47.25c3.79,2.6,9.8,10.7,10.75,14.75" style="fill:none;stroke:#999;stroke-width:3" />
<path d="M1226.6399999999999,60.87c0.07,0.36,0.91,1.85,0.98,4.09c0.31,10.79-0.2,30.29-0.2,33.96" style="fill:none;stroke:#999;stroke-width:3" />
<path d="M1218.85,70.6c0.16,0.94,0.13,2.79-0.16,3.47c-1.87,4.39-6.55,12.85-9.2,16.62" style="fill:none;stroke:#999;stroke-width:3" />
<path d="M1236.1799999999998,69.54c3.87,3.71,6.84,12.33,7.74,15.69" style="fill:none;stroke:#999;stroke-width:3" />
<path d="M1282.23,11c0.1,0.27,0.27,0.75-0.2,1.09c-4.72,3.51-15.01,9.02-34.78,10.41" style="fill:none;stroke:#999;stroke-width:3" />
<path d="M1243.95,34.01c0.79,0.14,2.88,0.16,4.98,0.1c7.25-0.18,28.48-2.49,42.89-3.21c2.09-0.1,2.62-0.14,3.93,0" style="fill:none;stroke:#999;stroke-width:3" />
<path d="M1266.1,20.62c0.66,0.42,1.05,1.87,1.18,2.71c0.13,0.83,0,21.88-0.13,27.09" style="fill:none;stroke:#999;stroke-width:3" />
<path d="M1264.68,33.18C1260.32,40.11 1253.78,46.89 1243.25,52" style="fill:none;stroke:#999;stroke-width:3" />
<path d="M1269.0,33c3.19,2.41,17.8,13.8,21.28,16.17c1.18,0.8,2.19,1.15,3.36,1.38" style="fill:none;stroke:#999;stroke-width:3" />
<path d="M1262.42,59.62c0.33,0.81,0.42,2.07,0.17,3.38C1260.74,72.71 1257.25,87.25 1244.0,98.25" style="fill:none;stroke:black;stroke-width:3" />
<circle cx="1262.42" cy="59.62" r="5" stroke-width="0" fill="#FF2A00" opacity="0.7" />
<path d="M1334.4,14.42c0.36,1.28,0.38,2.22-0.18,3.61c-2.46,6.13-6.46,12.2-11.28,17.1c-0.67,0.68-0.72,2.95,0,3.19c3.81,1.28,7.64,2.45,10.91,4.79" style="fill:none;stroke:#999;stroke-width:3" />
<path d="M1344.65,25.43c0.28,0.57,0.35,2.41,0,3.02c-5.41,9.53-14.43,21.72-21.88,29.81c-1.71,1.86,0.42,2.92,1.54,2.54c4.66-1.58,15.72-4.4,21.7-5.91" style="fill:none;stroke:#999;stroke-width:3" />
<path d="M1339.0,47.25c3.79,2.6,9.8,10.7,10.75,14.75" style="fill:none;stroke:#999;stroke-width:3" />
<path d="M1335.6399999999999,60.87c0.07,0.36,0.91,1.85,0.98,4.09c0.31,10.79-0.2,30.29-0.2,33.96" style="fill:none;stroke:#999;stroke-width:3" />
<path d="M1327.85,70.6c0.16,0.94,0.13,2.79-0.16,3.47c-1.87,4.39-6.55,12.85-9.2,16.62" style="fill:none;stroke:#999;stroke-width:3" />
<path d="M1345.1799999999998,69.54c3.87,3.71,6.84,12.33,7.74,15.69" style="fill:none;stroke:#999;stroke-width:3" />
<path d="M1391.23,11c0.1,0.27,0.27,0.75-0.2,1.09c-4.72,3.51-15.01,9.02-34.78,10.41" style="fill:none;stroke:#999;stroke-width:3" />
<path d="M1352.95,34.01c0.79,0.14,2.88,0.16,4.98,0.1c7.25-0.18,28.48-2.49,42.89-3.21c2.09-0.1,2.62-0.14,3.93,0" style="fill:none;stroke:#999;stroke-width:3" />
<path d="M1375.1,20.62c0.66,0.42,1.05,1.87,1.18,2.71c0.13,0.83,0,21.88-0.13,27.09" style="fill:none;stroke:#999;stroke-width:3" />
<path d="M1373.68,33.18C1369.32,40.11 1362.78,46.89 1352.25,52" style="fill:none;stroke:#999;stroke-width:3" />
<path d="M1378.0,33c3.19,2.41,17.8,13.8,21.28,16.17c1.18,0.8,2.19,1.15,3.36,1.38" style="fill:none;stroke:#999;stroke-width:3" />
<path d="M1371.42,59.62c0.33,0.81,0.42,2.07,0.17,3.38C1369.74,72.71 1366.25,87.25 1353.0,98.25" style="fill:none;stroke:#999;stroke-width:3" />
<path d="M1359.71,57.1c0.87,0.5,2.16,0.71,3.07,0.7c7.04-0.11,19.28-1.95,25.97-3.05c1.7-0.28,2.04,1.64,1.37,2.73c-2.12,3.38-6.39,9.79-8.52,13.31c-0.42,0.7-0.3,1.98,0.76,1.78c3.04-0.59,12.5-2.74,15.39-3.06c1.57-0.17,2.56,2.91,2.25,3.75C1397.47,80.02 1395.16,89.62 1389.75,95c-3.22,3.2-6.39-0.68-7.25-2.75" style="fill:none;stroke:black;stroke-width:3" />
<circle cx="1359.71" cy="57.1" r="5" stroke-width="0" fill="#FF2A00" opacity="0.7" />
</svg>