<!-- 07e22 -->
<svg width="1744px" height="109px" viewBox="0 0 1744px 109px" xmlns="http://www.w3.org/2000/svg" xmlns:xlink="http://www.w3.org/1999/xlink" xml:space="preserve" version="1.1"  baseProfile="full">
<line x1="1" y1="1" x2="1743" y2="1" style="stroke:#ddd;stroke-width:2" />
<line x1="1" y1="1" x2="1" y2="108" style="stroke:#ddd;stroke-width:2" />
<line x1="1" y1="108" x2="1743" y2="108" style="stroke:#ddd;stroke-width:2" />
<line x1="1743" y1="1" x2="1743" y2="108" style="stroke:#ddd;stroke-width:2" />
<line x1="109" y1="1" x2="109" y2="108" style="stroke:#ddd;stroke-width:2" />
<line x1="218" y1="1" x2="218" y2="108" style="stroke:#ddd;stroke-width:2" />
<line x1="327" y1="1" x2="327" y2="108" style="stroke:#ddd;stroke-width:2" />
<line x1="436" y1="1" x2="436" y2="108" style="stroke:#ddd;stroke-width:2" />
<line x1="545" y1="1" x2="545" y2="108" style="stroke:#ddd;stroke-width:2" />
<line x1="654" y1="1" x2="654" y2="108" style="stroke:#ddd;stroke-width:2" />
<line x1="763" y1="1" x2="763" y2="108" style="stroke:#ddd;stroke-width:2" />
<line x1="872" y1="1" x2="872" y2="108" style="stroke:#ddd;stroke-width:2" />
<line x1="981" y1="1" x2="981" y2="108" style="stroke:#ddd;stroke-width:2" />
<line x1="1090" y1="1" x2="1090" y2="108" style="stroke:#ddd;stroke-width:2" />
<line x1="1199" y1="1" x2="1199" y2="108" style="stroke:#ddd;stroke-width:2" />
<line x1="1308" y1="1" x2="1308" y2="108" style="stroke:#ddd;stroke-width:2" />
<line x1="1417" y1="1" x2="1417" y2="108" style="stroke:#ddd;stroke-width:2" />
<line x1="1526" y1="1" x2="1526" y2="108" style="stroke:#ddd;stroke-width:2" />
<line x1="1635" y1="1" x2="1635" y2="108" style="stroke:#ddd;stroke-width:2" />
<line x1="1" y1="54" x2="1743" y2="54" style="stroke:#ddd;stroke-width:2;stroke-dasharray:3 3" />
<line x1="55" y1="1" x2="55" y2="108" style="stroke:#ddd;stroke-width:2;stroke-dasharray:3 3" />
<line x1="164" y1="1" x2="164" y2="108" style="stroke:#ddd;stroke-width:2;stroke-dasharray:3 3" />
<line x1="273" y1="1" x2="273" y2="108" style="stroke:#ddd;stroke-width:2;stroke-dasharray:3 3" />
<line x1="382" y1="1" x2="382" y2="108" style="stroke:#ddd;stroke-width:2;stroke-dasharray:3 3" />
<line x1="491" y1="1" x2="491" y2="108" style="stroke:#ddd;stroke-width:2;stroke-dasharray:3 3" />
<line x1="600" y1="1" x2="600" y2="108" style="stroke:#ddd;stroke-width:2;stroke-dasharray:3 3" />
<line x1="709" y1="1" x2="709" y2="108" style="stroke:#ddd;stroke-width:2;stroke-dasharray:3 3" />
<line x1="818" y1="1" x2="818" y2="108" style="stroke:#ddd;stroke-width:2;stroke-dasharray:3 3" />
<line x1="927" y1="1" x2="927" y2="108" style="stroke:#ddd;stroke-width:2;stroke-dasharray:3 3" />
<line x1="1036" y1="1" x2="1036" y2="108" style="stroke:#ddd;stroke-width:2;stroke-dasharray:3 3" />
<line x1="1145" y1="1" x2="1145" y2="108" style="stroke:#ddd;stroke-width:2;stroke-dasharray:3 3" />
<line x1="1254" y1="1" x2="1254" y2="108" style="stroke:#ddd;stroke-width:2;stroke-dasharray:3 3" />
<line x1="1363" y1="1" x2="1363" y2="108" style="stroke:#ddd;stroke-width:2;stroke-dasharray:3 3" />
<line x1="1472" y1="1" x2="1472" y2="108" style="stroke:#ddd;stroke-width:2;stroke-dasharray:3 3" />
<line x1="1581" y1="1" x2="1581" y2="108" style="stroke:#ddd;stroke-width:2;stroke-dasharray:3 3" />
<line x1="1690" y1="1" x2="1690" y2="108" style="stroke:#ddd;stroke-width:2;stroke-dasharray:3 3" />
<path d="M17.91,14.07c0.6,1.05,0.99,2.63,1.19,3.65c0.2,1.02,0.17,28.62-0.46,37.16c-0.9,12.15-0.21,20.25-8.14,38.37" style="fill:none;stroke:black;stroke-width:3" />
<circle cx="17.91" cy="14.07" r="5" stroke-width="0" fill="#FF2A00" opacity="0.7" />
<path d="M126.91,14.07c0.6,1.05,0.99,2.63,1.19,3.65c0.2,1.02,0.17,28.62-0.46,37.16c-0.9,12.15-0.21,20.25-8.14,38.37" style="fill:none;stroke:#999;stroke-width:3" />
<path d="M128.7,15.87c1.93-0.06,11.18-1.54,12.61-1.68c2.58-0.25,3.22,1.42,3.22,2.9c0,3.51-0.04,49.27-0.04,69.22c0,13.72-5.43,3.87-7.08,2.22" style="fill:none;stroke:black;stroke-width:3" />
<circle cx="128.7" cy="15.87" r="5" stroke-width="0" fill="#FF2A00" opacity="0.7" />
<path d="M235.91,14.07c0.6,1.05,0.99,2.63,1.19,3.65c0.2,1.02,0.17,28.62-0.46,37.16c-0.9,12.15-0.21,20.25-8.14,38.37" style="fill:none;stroke:#999;stroke-width:3" />
<path d="M237.7,15.87c1.93-0.06,11.18-1.54,12.61-1.68c2.58-0.25,3.22,1.42,3.22,2.9c0,3.51-0.04,49.27-0.04,69.22c0,13.72-5.43,3.87-7.08,2.22" style="fill:none;stroke:#999;stroke-width:3" />
<path d="M237.5,37.87c4.02-0.16,11.37-0.71,14.9-0.72" style="fill:none;stroke:black;stroke-width:3" />
<circle cx="237.5" cy="37.87" r="5" stroke-width="0" fill="#FF2A00" opacity="0.7" />
<path d="M344.90999999999997,14.07c0.6,1.05,0.99,2.63,1.19,3.65c0.2,1.02,0.17,28.62-0.46,37.16c-0.9,12.15-0.21,20.25-8.14,38.37" style="fill:none;stroke:#999;stroke-width:3" />
<path d="M346.7,15.87c1.93-0.06,11.18-1.54,12.61-1.68c2.58-0.25,3.22,1.42,3.22,2.9c0,3.51-0.04,49.27-0.04,69.22c0,13.72-5.43,3.87-7.08,2.22" style="fill:none;stroke:#999;stroke-width:3" />
<path d="M346.5,37.87c4.02-0.16,11.37-0.71,14.9-0.72" style="fill:none;stroke:#999;stroke-width:3" />
<path d="M346.39,59.7c3.19-0.07,10.59-0.66,14.92-1.01" style="fill:none;stroke:black;stroke-width:3" />
<circle cx="346.39" cy="59.7" r="5" stroke-width="0" fill="#FF2A00" opacity="0.7" />
<path d="M453.90999999999997,14.07c0.6,1.05,0.99,2.63,1.19,3.65c0.2,1.02,0.17,28.62-0.46,37.16c-0.9,12.15-0.21,20.25-8.14,38.37" style="fill:none;stroke:#999;stroke-width:3" />
<path d="M455.7,15.87c1.93-0.06,11.18-1.54,12.61-1.68c2.58-0.25,3.22,1.42,3.22,2.9c0,3.51-0.04,49.27-0.04,69.22c0,13.72-5.43,3.87-7.08,2.22" style="fill:none;stroke:#999;stroke-width:3" />
<path d="M455.5,37.87c4.02-0.16,11.37-0.71,14.9-0.72" style="fill:none;stroke:#999;stroke-width:3" />
<path d="M455.39,59.7c3.19-0.07,10.59-0.66,14.92-1.01" style="fill:none;stroke:#999;stroke-width:3" />
<path d="M491.5,13.75c0.04,0.34,0.16,0.92-0.07,1.37c-1.32,2.6-7.55,10.04-13.18,13.13" style="fill:none;stroke:black;stroke-width:3" />
<circle cx="491.5" cy="13.75" r="5" stroke-width="0" fill="#FF2A00" opacity="0.7" />
<path d="M562.91,14.07c0.6,1.05,0.99,2.63,1.19,3.65c0.2,1.02,0.17,28.62-0.46,37.16c-0.9,12.15-0.21,20.25-8.14,38.37" style="fill:none;stroke:#999;stroke-width:3" />
<path d="M564.7,15.87c1.93-0.06,11.18-1.54,12.61-1.68c2.58-0.25,3.22,1.42,3.22,2.9c0,3.51-0.04,49.27-0.04,69.22c0,13.72-5.43,3.87-7.08,2.22" style="fill:none;stroke:#999;stroke-width:3" />
<path d="M564.5,37.87c4.02-0.16,11.37-0.71,14.9-0.72" style="fill:none;stroke:#999;stroke-width:3" />
<path d="M564.39,59.7c3.19-0.07,10.59-0.66,14.92-1.01" style="fill:none;stroke:#999;stroke-width:3" />
<path d="M600.5,13.75c0.04,0.34,0.16,0.92-0.07,1.37c-1.32,2.6-7.55,10.04-13.18,13.13" style="fill:none;stroke:#999;stroke-width:3" />
<path d="M622.25,12.5c5.58,2.29,14.42,9.41,15.82,12.97" style="fill:none;stroke:black;stroke-width:3" />
<circle cx="622.25" cy="12.5" r="5" stroke-width="0" fill="#FF2A00" opacity="0.7" />
<path d="M671.91,14.07c0.6,1.05,0.99,2.63,1.19,3.65c0.2,1.02,0.17,28.62-0.46,37.16c-0.9,12.15-0.21,20.25-8.14,38.37" style="fill:none;stroke:#999;stroke-width:3" />
<path d="M673.7,15.87c1.93-0.06,11.18-1.54,12.61-1.68c2.58-0.25,3.22,1.42,3.22,2.9c0,3.51-0.04,49.27-0.04,69.22c0,13.72-5.43,3.87-7.08,2.22" style="fill:none;stroke:#999;stroke-width:3" />
<path d="M673.5,37.87c4.02-0.16,11.37-0.71,14.9-0.72" style="fill:none;stroke:#999;stroke-width:3" />
<path d="M673.39,59.7c3.19-0.07,10.59-0.66,14.92-1.01" style="fill:none;stroke:#999;stroke-width:3" />
<path d="M709.5,13.75c0.04,0.34,0.16,0.92-0.07,1.37c-1.32,2.6-7.55,10.04-13.18,13.13" style="fill:none;stroke:#999;stroke-width:3" />
<path d="M731.25,12.5c5.58,2.29,14.42,9.41,15.82,12.97" style="fill:none;stroke:#999;stroke-width:3" />
<path d="M703.0,27.54c0.82,0.33,2.33,0.42,3.15,0.33c5.24-0.56,24.44-3.28,29.52-2.9c1.36,0.1,2.19,0.16,2.88,0.32" style="fill:none;stroke:black;stroke-width:3" />
<circle cx="703.0" cy="27.54" r="5" stroke-width="0" fill="#FF2A00" opacity="0.7" />
<path d="M780.91,14.07c0.6,1.05,0.99,2.63,1.19,3.65c0.2,1.02,0.17,28.62-0.46,37.16c-0.9,12.15-0.21,20.25-8.14,38.37" style="fill:none;stroke:#999;stroke-width:3" />
<path d="M782.7,15.87c1.93-0.06,11.18-1.54,12.61-1.68c2.58-0.25,3.22,1.42,3.22,2.9c0,3.51-0.04,49.27-0.04,69.22c0,13.72-5.43,3.87-7.08,2.22" style="fill:none;stroke:#999;stroke-width:3" />
<path d="M782.5,37.87c4.02-0.16,11.37-0.71,14.9-0.72" style="fill:none;stroke:#999;stroke-width:3" />
<path d="M782.39,59.7c3.19-0.07,10.59-0.66,14.92-1.01" style="fill:none;stroke:#999;stroke-width:3" />
<path d="M818.5,13.75c0.04,0.34,0.16,0.92-0.07,1.37c-1.32,2.6-7.55,10.04-13.18,13.13" style="fill:none;stroke:#999;stroke-width:3" />
<path d="M840.25,12.5c5.58,2.29,14.42,9.41,15.82,12.97" style="fill:none;stroke:#999;stroke-width:3" />
<path d="M812.0,27.54c0.82,0.33,2.33,0.42,3.15,0.33c5.24-0.56,24.44-3.28,29.52-2.9c1.36,0.1,2.19,0.16,2.88,0.32" style="fill:none;stroke:#999;stroke-width:3" />
<path d="M805.1,40.75c1.36,0.52,3.87,0.7,5.23,0.52c7.34-0.95,29.69-2.38,44.45-3.08c2.27-0.11,3.63,0.25,4.77,0.51" style="fill:none;stroke:black;stroke-width:3" />
<circle cx="805.1" cy="40.75" r="5" stroke-width="0" fill="#FF2A00" opacity="0.7" />
<path d="M889.91,14.07c0.6,1.05,0.99,2.63,1.19,3.65c0.2,1.02,0.17,28.62-0.46,37.16c-0.9,12.15-0.21,20.25-8.14,38.37" style="fill:none;stroke:#999;stroke-width:3" />
<path d="M891.7,15.87c1.93-0.06,11.18-1.54,12.61-1.68c2.58-0.25,3.22,1.42,3.22,2.9c0,3.51-0.04,49.27-0.04,69.22c0,13.72-5.43,3.87-7.08,2.22" style="fill:none;stroke:#999;stroke-width:3" />
<path d="M891.5,37.87c4.02-0.16,11.37-0.71,14.9-0.72" style="fill:none;stroke:#999;stroke-width:3" />
<path d="M891.39,59.7c3.19-0.07,10.59-0.66,14.92-1.01" style="fill:none;stroke:#999;stroke-width:3" />
<path d="M927.5,13.75c0.04,0.34,0.16,0.92-0.07,1.37c-1.32,2.6-7.55,10.04-13.18,13.13" style="fill:none;stroke:#999;stroke-width:3" />
<path d="M949.25,12.5c5.58,2.29,14.42,9.41,15.82,12.97" style="fill:none;stroke:#999;stroke-width:3" />
<path d="M921.0,27.54c0.82,0.33,2.33,0.42,3.15,0.33c5.24-0.56,24.44-3.28,29.52-2.9c1.36,0.1,2.19,0.16,2.88,0.32" style="fill:none;stroke:#999;stroke-width:3" />
<path d="M914.1,40.75c1.36,0.52,3.87,0.7,5.23,0.52c7.34-0.95,29.69-2.38,44.45-3.08c2.27-0.11,3.63,0.25,4.77,0.51" style="fill:none;stroke:#999;stroke-width:3" />
<path d="M937.75,11c0,0.87,0.21,1.71,0.18,3.28C937.76,23.87 927.5,47 913.25,57.25" style="fill:none;stroke:black;stroke-width:3" />
<circle cx="937.75" cy="11.0" r="5" stroke-width="0" fill="#FF2A00" opacity="0.7" />
<path d="M998.91,14.07c0.6,1.05,0.99,2.63,1.19,3.65c0.2,1.02,0.17,28.62-0.46,37.16c-0.9,12.15-0.21,20.25-8.14,38.37" style="fill:none;stroke:#999;stroke-width:3" />
<path d="M1000.7,15.87c1.93-0.06,11.18-1.54,12.61-1.68c2.58-0.25,3.22,1.42,3.22,2.9c0,3.51-0.04,49.27-0.04,69.22c0,13.72-5.43,3.87-7.08,2.22" style="fill:none;stroke:#999;stroke-width:3" />
<path d="M1000.5,37.87c4.02-0.16,11.37-0.71,14.9-0.72" style="fill:none;stroke:#999;stroke-width:3" />
<path d="M1000.39,59.7c3.19-0.07,10.59-0.66,14.92-1.01" style="fill:none;stroke:#999;stroke-width:3" />
<path d="M1036.5,13.75c0.04,0.34,0.16,0.92-0.07,1.37c-1.32,2.6-7.55,10.04-13.18,13.13" style="fill:none;stroke:#999;stroke-width:3" />
<path d="M1058.25,12.5c5.58,2.29,14.42,9.41,15.82,12.97" style="fill:none;stroke:#999;stroke-width:3" />
<path d="M1030.0,27.54c0.82,0.33,2.33,0.42,3.15,0.33c5.24-0.56,24.44-3.28,29.52-2.9c1.36,0.1,2.19,0.16,2.88,0.32" style="fill:none;stroke:#999;stroke-width:3" />
<path d="M1023.1,40.75c1.36,0.52,3.87,0.7,5.23,0.52c7.34-0.95,29.69-2.38,44.45-3.08c2.27-0.11,3.63,0.25,4.77,0.51" style="fill:none;stroke:#999;stroke-width:3" />
<path d="M1046.75,11c0,0.87,0.21,1.71,0.18,3.28C1046.76,23.87 1036.5,47 1022.25,57.25" style="fill:none;stroke:#999;stroke-width:3" />
<path d="M1049.94,26.31c3.34,5.06,17.76,21.58,21.45,25.29c1.25,1.26,2.86,1.79,4.11,2.15" style="fill:none;stroke:black;stroke-width:3" />
<circle cx="1049.94" cy="26.31" r="5" stroke-width="0" fill="#FF2A00" opacity="0.7" />
<path d="M1107.9099999999999,14.07c0.6,1.05,0.99,2.63,1.19,3.65c0.2,1.02,0.17,28.62-0.46,37.16c-0.9,12.15-0.21,20.25-8.14,38.37" style="fill:none;stroke:#999;stroke-width:3" />
<path d="M1109.7,15.87c1.93-0.06,11.18-1.54,12.61-1.68c2.58-0.25,3.22,1.42,3.22,2.9c0,3.51-0.04,49.27-0.04,69.22c0,13.72-5.43,3.87-7.08,2.22" style="fill:none;stroke:#999;stroke-width:3" />
<path d="M1109.5,37.87c4.02-0.16,11.37-0.71,14.9-0.72" style="fill:none;stroke:#999;stroke-width:3" />
<path d="M1109.3899999999999,59.7c3.19-0.07,10.59-0.66,14.92-1.01" style="fill:none;stroke:#999;stroke-width:3" />
<path d="M1145.5,13.75c0.04,0.34,0.16,0.92-0.07,1.37c-1.32,2.6-7.55,10.04-13.18,13.13" style="fill:none;stroke:#999;stroke-width:3" />
<path d="M1167.25,12.5c5.58,2.29,14.42,9.41,15.82,12.97" style="fill:none;stroke:#999;stroke-width:3" />
<path d="M1139.0,27.54c0.82,0.33,2.33,0.42,3.15,0.33c5.24-0.56,24.44-3.28,29.52-2.9c1.36,0.1,2.19,0.16,2.88,0.32" style="fill:none;stroke:#999;stroke-width:3" />
<path d="M1132.1,40.75c1.36,0.52,3.87,0.7,5.23,0.52c7.34-0.95,29.69-2.38,44.45-3.08c2.27-0.11,3.63,0.25,4.77,0.51" style="fill:none;stroke:#999;stroke-width:3" />
<path d="M1155.75,11c0,0.87,0.21,1.71,0.18,3.28C1155.76,23.87 1145.5,47 1131.25,57.25" style="fill:none;stroke:#999;stroke-width:3" />
<path d="M1158.94,26.31c3.34,5.06,17.76,21.58,21.45,25.29c1.25,1.26,2.86,1.79,4.11,2.15" style="fill:none;stroke:#999;stroke-width:3" />
<path d="M1155.13,44.5c0.29,0.7,0.05,2.3-0.65,3c-3.07,3.05-7.19,7.01-10.12,8.66c-0.6,0.34-0.58,1.63,0,1.76c3.07,0.7,6.44,1.88,9.07,3.17" style="fill:none;stroke:black;stroke-width:3" />
<circle cx="1155.13" cy="44.5" r="5" stroke-width="0" fill="#FF2A00" opacity="0.7" />
<path d="M1216.9099999999999,14.07c0.6,1.05,0.99,2.63,1.19,3.65c0.2,1.02,0.17,28.62-0.46,37.16c-0.9,12.15-0.21,20.25-8.14,38.37" style="fill:none;stroke:#999;stroke-width:3" />
<path d="M1218.7,15.87c1.93-0.06,11.18-1.54,12.61-1.68c2.58-0.25,3.22,1.42,3.22,2.9c0,3.51-0.04,49.27-0.04,69.22c0,13.72-5.43,3.87-7.08,2.22" style="fill:none;stroke:#999;stroke-width:3" />
<path d="M1218.5,37.87c4.02-0.16,11.37-0.71,14.9-0.72" style="fill:none;stroke:#999;stroke-width:3" />
<path d="M1218.3899999999999,59.7c3.19-0.07,10.59-0.66,14.92-1.01" style="fill:none;stroke:#999;stroke-width:3" />
<path d="M1254.5,13.75c0.04,0.34,0.16,0.92-0.07,1.37c-1.32,2.6-7.55,10.04-13.18,13.13" style="fill:none;stroke:#999;stroke-width:3" />
<path d="M1276.25,12.5c5.58,2.29,14.42,9.41,15.82,12.97" style="fill:none;stroke:#999;stroke-width:3" />
<path d="M1248.0,27.54c0.82,0.33,2.33,0.42,3.15,0.33c5.24-0.56,24.44-3.28,29.52-2.9c1.36,0.1,2.19,0.16,2.88,0.32" style="fill:none;stroke:#999;stroke-width:3" />
<path d="M1241.1,40.75c1.36,0.52,3.87,0.7,5.23,0.52c7.34-0.95,29.69-2.38,44.45-3.08c2.27-0.11,3.63,0.25,4.77,0.51" style="fill:none;stroke:#999;stroke-width:3" />
<path d="M1264.75,11c0,0.87,0.21,1.71,0.18,3.28C1264.76,23.87 1254.5,47 1240.25,57.25" style="fill:none;stroke:#999;stroke-width:3" />
<path d="M1267.94,26.31c3.34,5.06,17.76,21.58,21.45,25.29c1.25,1.26,2.86,1.79,4.11,2.15" style="fill:none;stroke:#999;stroke-width:3" />
<path d="M1264.13,44.5c0.29,0.7,0.05,2.3-0.65,3c-3.07,3.05-7.19,7.01-10.12,8.66c-0.6,0.34-0.58,1.63,0,1.76c3.07,0.7,6.44,1.88,9.07,3.17" style="fill:none;stroke:#999;stroke-width:3" />
<path d="M1276.49,48c0.32,0.45-0.08,2.42-0.5,2.9c-6.15,7.04-16.87,14.8-25.32,21.22c-1.94,1.47,0.48,2.31,1.74,2.02C1257.7,72.88 1277.21,70.2 1284.0,69" style="fill:none;stroke:black;stroke-width:3" />
<circle cx="1276.49" cy="48.0" r="5" stroke-width="0" fill="#FF2A00" opacity="0.7" />
<path d="M1325.9099999999999,14.07c0.6,1.05,0.99,2.63,1.19,3.65c0.2,1.02,0.17,28.62-0.46,37.16c-0.9,12.15-0.21,20.25-8.14,38.37" style="fill:none;stroke:#999;stroke-width:3" />
<path d="M1327.7,15.87c1.93-0.06,11.18-1.54,12.61-1.68c2.58-0.25,3.22,1.42,3.22,2.9c0,3.51-0.04,49.27-0.04,69.22c0,13.72-5.43,3.87-7.08,2.22" style="fill:none;stroke:#999;stroke-width:3" />
<path d="M1327.5,37.87c4.02-0.16,11.37-0.71,14.9-0.72" style="fill:none;stroke:#999;stroke-width:3" />
<path d="M1327.3899999999999,59.7c3.19-0.07,10.59-0.66,14.92-1.01" style="fill:none;stroke:#999;stroke-width:3" />
<path d="M1363.5,13.75c0.04,0.34,0.16,0.92-0.07,1.37c-1.32,2.6-7.55,10.04-13.18,13.13" style="fill:none;stroke:#999;stroke-width:3" />
<path d="M1385.25,12.5c5.58,2.29,14.42,9.41,15.82,12.97" style="fill:none;stroke:#999;stroke-width:3" />
<path d="M1357.0,27.54c0.82,0.33,2.33,0.42,3.15,0.33c5.24-0.56,24.44-3.28,29.52-2.9c1.36,0.1,2.19,0.16,2.88,0.32" style="fill:none;stroke:#999;stroke-width:3" />
<path d="M1350.1,40.75c1.36,0.52,3.87,0.7,5.23,0.52c7.34-0.95,29.69-2.38,44.45-3.08c2.27-0.11,3.63,0.25,4.77,0.51" style="fill:none;stroke:#999;stroke-width:3" />
<path d="M1373.75,11c0,0.87,0.21,1.71,0.18,3.28C1373.76,23.87 1363.5,47 1349.25,57.25" style="fill:none;stroke:#999;stroke-width:3" />
<path d="M1376.94,26.31c3.34,5.06,17.76,21.58,21.45,25.29c1.25,1.26,2.86,1.79,4.11,2.15" style="fill:none;stroke:#999;stroke-width:3" />
<path d="M1373.13,44.5c0.29,0.7,0.05,2.3-0.65,3c-3.07,3.05-7.19,7.01-10.12,8.66c-0.6,0.34-0.58,1.63,0,1.76c3.07,0.7,6.44,1.88,9.07,3.17" style="fill:none;stroke:#999;stroke-width:3" />
<path d="M1385.49,48c0.32,0.45-0.08,2.42-0.5,2.9c-6.15,7.04-16.87,14.8-25.32,21.22c-1.94,1.47,0.48,2.31,1.74,2.02C1366.7,72.88 1386.21,70.2 1393.0,69" style="fill:none;stroke:#999;stroke-width:3" />
<path d="M1385.83,61.1c4.03,2.53,10.41,10.42,11.42,14.36" style="fill:none;stroke:black;stroke-width:3" />
<circle cx="1385.83" cy="61.1" r="5" stroke-width="0" fill="#FF2A00" opacity="0.7" />
<path d="M1434.9099999999999,14.07c0.6,1.05,0.99,2.63,1.19,3.65c0.2,1.02,0.17,28.62-0.46,37.16c-0.9,12.15-0.21,20.25-8.14,38.37" style="fill:none;stroke:#999;stroke-width:3" />
<path d="M1436.7,15.87c1.93-0.06,11.18-1.54,12.61-1.68c2.58-0.25,3.22,1.42,3.22,2.9c0,3.51-0.04,49.27-0.04,69.22c0,13.72-5.43,3.87-7.08,2.22" style="fill:none;stroke:#999;stroke-width:3" />
<path d="M1436.5,37.87c4.02-0.16,11.37-0.71,14.9-0.72" style="fill:none;stroke:#999;stroke-width:3" />
<path d="M1436.3899999999999,59.7c3.19-0.07,10.59-0.66,14.92-1.01" style="fill:none;stroke:#999;stroke-width:3" />
<path d="M1472.5,13.75c0.04,0.34,0.16,0.92-0.07,1.37c-1.32,2.6-7.55,10.04-13.18,13.13" style="fill:none;stroke:#999;stroke-width:3" />
<path d="M1494.25,12.5c5.58,2.29,14.42,9.41,15.82,12.97" style="fill:none;stroke:#999;stroke-width:3" />
<path d="M1466.0,27.54c0.82,0.33,2.33,0.42,3.15,0.33c5.24-0.56,24.44-3.28,29.52-2.9c1.36,0.1,2.19,0.16,2.88,0.32" style="fill:none;stroke:#999;stroke-width:3" />
<path d="M1459.1,40.75c1.36,0.52,3.87,0.7,5.23,0.52c7.34-0.95,29.69-2.38,44.45-3.08c2.27-0.11,3.63,0.25,4.77,0.51" style="fill:none;stroke:#999;stroke-width:3" />
<path d="M1482.75,11c0,0.87,0.21,1.71,0.18,3.28C1482.76,23.87 1472.5,47 1458.25,57.25" style="fill:none;stroke:#999;stroke-width:3" />
<path d="M1485.94,26.31c3.34,5.06,17.76,21.58,21.45,25.29c1.25,1.26,2.86,1.79,4.11,2.15" style="fill:none;stroke:#999;stroke-width:3" />
<path d="M1482.13,44.5c0.29,0.7,0.05,2.3-0.65,3c-3.07,3.05-7.19,7.01-10.12,8.66c-0.6,0.34-0.58,1.63,0,1.76c3.07,0.7,6.44,1.88,9.07,3.17" style="fill:none;stroke:#999;stroke-width:3" />
<path d="M1494.49,48c0.32,0.45-0.08,2.42-0.5,2.9c-6.15,7.04-16.87,14.8-25.32,21.22c-1.94,1.47,0.48,2.31,1.74,2.02C1475.7,72.88 1495.21,70.2 1502.0,69" style="fill:none;stroke:#999;stroke-width:3" />
<path d="M1494.83,61.1c4.03,2.53,10.41,10.42,11.42,14.36" style="fill:none;stroke:#999;stroke-width:3" />
<path d="M1484.57,72.87c0.05,0.2,0.68,1.03,0.73,2.28c0.23,6.02-0.15,21.79-0.15,23.84" style="fill:none;stroke:black;stroke-width:3" />
<circle cx="1484.57" cy="72.87" r="5" stroke-width="0" fill="#FF2A00" opacity="0.7" />
<path d="M1543.9099999999999,14.07c0.6,1.05,0.99,2.63,1.19,3.65c0.2,1.02,0.17,28.62-0.46,37.16c-0.9,12.15-0.21,20.25-8.14,38.37" style="fill:none;stroke:#999;stroke-width:3" />
<path d="M1545.7,15.87c1.93-0.06,11.18-1.54,12.61-1.68c2.58-0.25,3.22,1.42,3.22,2.9c0,3.51-0.04,49.27-0.04,69.22c0,13.72-5.43,3.87-7.08,2.22" style="fill:none;stroke:#999;stroke-width:3" />
<path d="M1545.5,37.87c4.02-0.16,11.37-0.71,14.9-0.72" style="fill:none;stroke:#999;stroke-width:3" />
<path d="M1545.3899999999999,59.7c3.19-0.07,10.59-0.66,14.92-1.01" style="fill:none;stroke:#999;stroke-width:3" />
<path d="M1581.5,13.75c0.04,0.34,0.16,0.92-0.07,1.37c-1.32,2.6-7.55,10.04-13.18,13.13" style="fill:none;stroke:#999;stroke-width:3" />
<path d="M1603.25,12.5c5.58,2.29,14.42,9.41,15.82,12.97" style="fill:none;stroke:#999;stroke-width:3" />
<path d="M1575.0,27.54c0.82,0.33,2.33,0.42,3.15,0.33c5.24-0.56,24.44-3.28,29.52-2.9c1.36,0.1,2.19,0.16,2.88,0.32" style="fill:none;stroke:#999;stroke-width:3" />
<path d="M1568.1,40.75c1.36,0.52,3.87,0.7,5.23,0.52c7.34-0.95,29.69-2.38,44.45-3.08c2.27-0.11,3.63,0.25,4.77,0.51" style="fill:none;stroke:#999;stroke-width:3" />
<path d="M1591.75,11c0,0.87,0.21,1.71,0.18,3.28C1591.76,23.87 1581.5,47 1567.25,57.25" style="fill:none;stroke:#999;stroke-width:3" />
<path d="M1594.94,26.31c3.34,5.06,17.76,21.58,21.45,25.29c1.25,1.26,2.86,1.79,4.11,2.15" style="fill:none;stroke:#999;stroke-width:3" />
<path d="M1591.13,44.5c0.29,0.7,0.05,2.3-0.65,3c-3.07,3.05-7.19,7.01-10.12,8.66c-0.6,0.34-0.58,1.63,0,1.76c3.07,0.7,6.44,1.88,9.07,3.17" style="fill:none;stroke:#999;stroke-width:3" />
<path d="M1603.49,48c0.32,0.45-0.08,2.42-0.5,2.9c-6.15,7.04-16.87,14.8-25.32,21.22c-1.94,1.47,0.48,2.31,1.74,2.02C1584.7,72.88 1604.21,70.2 1611.0,69" style="fill:none;stroke:#999;stroke-width:3" />
<path d="M1603.83,61.1c4.03,2.53,10.41,10.42,11.42,14.36" style="fill:none;stroke:#999;stroke-width:3" />
<path d="M1593.57,72.87c0.05,0.2,0.68,1.03,0.73,2.28c0.23,6.02-0.15,21.79-0.15,23.84" style="fill:none;stroke:#999;stroke-width:3" />
<path d="M1582.8,80.98c0.23,0.63,0.2,1.88-0.24,2.33c-2.81,2.95-9.83,8.65-13.82,11.19" style="fill:none;stroke:black;stroke-width:3" />
<circle cx="1582.8" cy="80.98" r="5" stroke-width="0" fill="#FF2A00" opacity="0.7" />
<path d="M1652.9099999999999,14.07c0.6,1.05,0.99,2.63,1.19,3.65c0.2,1.02,0.17,28.62-0.46,37.16c-0.9,12.15-0.21,20.25-8.14,38.37" style="fill:none;stroke:#999;stroke-width:3" />
<path d="M1654.7,15.87c1.93-0.06,11.18-1.54,12.61-1.68c2.58-0.25,3.22,1.42,3.22,2.9c0,3.51-0.04,49.27-0.04,69.22c0,13.72-5.43,3.87-7.08,2.22" style="fill:none;stroke:#999;stroke-width:3" />
<path d="M1654.5,37.87c4.02-0.16,11.37-0.71,14.9-0.72" style="fill:none;stroke:#999;stroke-width:3" />
<path d="M1654.3899999999999,59.7c3.19-0.07,10.59-0.66,14.92-1.01" style="fill:none;stroke:#999;stroke-width:3" />
<path d="M1690.5,13.75c0.04,0.34,0.16,0.92-0.07,1.37c-1.32,2.6-7.55,10.04-13.18,13.13" style="fill:none;stroke:#999;stroke-width:3" />
<path d="M1712.25,12.5c5.58,2.29,14.42,9.41,15.82,12.97" style="fill:none;stroke:#999;stroke-width:3" />
<path d="M1684.0,27.54c0.82,0.33,2.33,0.42,3.15,0.33c5.24-0.56,24.44-3.28,29.52-2.9c1.36,0.1,2.19,0.16,2.88,0.32" style="fill:none;stroke:#999;stroke-width:3" />
<path d="M1677.1,40.75c1.36,0.52,3.87,0.7,5.23,0.52c7.34-0.95,29.69-2.38,44.45-3.08c2.27-0.11,3.63,0.25,4.77,0.51" style="fill:none;stroke:#999;stroke-width:3" />
<path d="M1700.75,11c0,0.87,0.21,1.71,0.18,3.28C1700.76,23.87 1690.5,47 1676.25,57.25" style="fill:none;stroke:#999;stroke-width:3" />
<path d="M1703.94,26.31c3.34,5.06,17.76,21.58,21.45,25.29c1.25,1.26,2.86,1.79,4.11,2.15" style="fill:none;stroke:#999;stroke-width:3" />
<path d="M1700.13,44.5c0.29,0.7,0.05,2.3-0.65,3c-3.07,3.05-7.19,7.01-10.12,8.66c-0.6,0.34-0.58,1.63,0,1.76c3.07,0.7,6.44,1.88,9.07,3.17" style="fill:none;stroke:#999;stroke-width:3" />
<path d="M1712.49,48c0.32,0.45-0.08,2.42-0.5,2.9c-6.15,7.04-16.87,14.8-25.32,21.22c-1.94,1.47,0.48,2.31,1.74,2.02C1693.7,72.88 1713.21,70.2 1720.0,69" style="fill:none;stroke:#999;stroke-width:3" />
<path d="M1712.83,61.1c4.03,2.53,10.41,10.42,11.42,14.36" style="fill:none;stroke:#999;stroke-width:3" />
<path d="M1702.57,72.87c0.05,0.2,0.68,1.03,0.73,2.28c0.23,6.02-0.15,21.79-0.15,23.84" style="fill:none;stroke:#999;stroke-width:3" />
<path d="M1691.8,80.98c0.23,0.63,0.2,1.88-0.24,2.33c-2.81,2.95-9.83,8.65-13.82,11.19" style="fill:none;stroke:#999;stroke-width:3" />
<path d="M1713.42,81.74C1720.71,84.75 1726.31,91.77 1728.0,94.5" style="fill:none;stroke:black;stroke-width:3" />
<circle cx="1713.42" cy="81.74" r="5" stroke-width="0" fill="#FF2A00" opacity="0.7" />
</svg>