<!-- 07e67 -->
<svg width="1962px" height="109px" viewBox="0 0 1962px 109px" xmlns="http://www.w3.org/2000/svg" xmlns:xlink="http://www.w3.org/1999/xlink" xml:space="preserve" version="1.1"  baseProfile="full">
<line x1="1" y1="1" x2="1961" y2="1" style="stroke:#ddd;stroke-width:2" />
<line x1="1" y1="1" x2="1" y2="108" style="stroke:#ddd;stroke-width:2" />
<line x1="1" y1="108" x2="1961" y2="108" style="stroke:#ddd;stroke-width:2" />
<line x1="1961" y1="1" x2="1961" y2="108" style="stroke:#ddd;stroke-width:2" />
<line x1="109" y1="1" x2="109" y2="108" style="stroke:#ddd;stroke-width:2" />
<line x1="218" y1="1" x2="218" y2="108" style="stroke:#ddd;stroke-width:2" />
<line x1="327" y1="1" x2="327" y2="108" style="stroke:#ddd;stroke-width:2" />
<line x1="436" y1="1" x2="436" y2="108" style="stroke:#ddd;stroke-width:2" />
<line x1="545" y1="1" x2="545" y2="108" style="stroke:#ddd;stroke-width:2" />
<line x1="654" y1="1" x2="654" y2="108" style="stroke:#ddd;stroke-width:2" />
<line x1="763" y1="1" x2="763" y2="108" style="stroke:#ddd;stroke-width:2" />
<line x1="872" y1="1" x2="872" y2="108" style="stroke:#ddd;stroke-width:2" />
<line x1="981" y1="1" x2="981" y2="108" style="stroke:#ddd;stroke-width:2" />
<line x1="1090" y1="1" x2="1090" y2="108" style="stroke:#ddd;stroke-width:2" />
<line x1="1199" y1="1" x2="1199" y2="108" style="stroke:#ddd;stroke-width:2" />
<line x1="1308" y1="1" x2="1308" y2="108" style="stroke:#ddd;stroke-width:2" />
<line x1="1417" y1="1" x2="1417" y2="108" style="stroke:#ddd;stroke-width:2" />
<line x1="1526" y1="1" x2="1526" y2="108" style="stroke:#ddd;stroke-width:2" />
<line x1="1635" y1="1" x2="1635" y2="108" style="stroke:#ddd;stroke-width:2" />
<line x1="1744" y1="1" x2="1744" y2="108" style="stroke:#ddd;stroke-width:2" />
<line x1="1853" y1="1" x2="1853" y2="108" style="stroke:#ddd;stroke-width:2" />
<line x1="1" y1="54" x2="1961" y2="54" style="stroke:#ddd;stroke-width:2;stroke-dasharray:3 3" />
<line x1="55" y1="1" x2="55" y2="108" style="stroke:#ddd;stroke-width:2;stroke-dasharray:3 3" />
<line x1="164" y1="1" x2="164" y2="108" style="stroke:#ddd;stroke-width:2;stroke-dasharray:3 3" />
<line x1="273" y1="1" x2="273" y2="108" style="stroke:#ddd;stroke-width:2;stroke-dasharray:3 3" />
<line x1="382" y1="1" x2="382" y2="108" style="stroke:#ddd;stroke-width:2;stroke-dasharray:3 3" />
<line x1="491" y1="1" x2="491" y2="108" style="stroke:#ddd;stroke-width:2;stroke-dasharray:3 3" />
<line x1="600" y1="1" x2="600" y2="108" style="stroke:#ddd;stroke-width:2;stroke-dasharray:3 3" />
<line x1="709" y1="1" x2="709" y2="108" style="stroke:#ddd;stroke-width:2;stroke-dasharray:3 3" />
<line x1="818" y1="1" x2="818" y2="108" style="stroke:#ddd;stroke-width:2;stroke-dasharray:3 3" />
<line x1="927" y1="1" x2="927" y2="108" style="stroke:#ddd;stroke-width:2;stroke-dasharray:3 3" />
<line x1="1036" y1="1" x2="1036" y2="108" style="stroke:#ddd;stroke-width:2;stroke-dasharray:3 3" />
<line x1="1145" y1="1" x2="1145" y2="108" style="stroke:#ddd;stroke-width:2;stroke-dasharray:3 3" />
<line x1="1254" y1="1" x2="1254" y2="108" style="stroke:#ddd;stroke-width:2;stroke-dasharray:3 3" />
<line x1="1363" y1="1" x2="1363" y2="108" style="stroke:#ddd;stroke-width:2;stroke-dasharray:3 3" />
<line x1="1472" y1="1" x2="1472" y2="108" style="stroke:#ddd;stroke-width:2;stroke-dasharray:3 3" />
<line x1="1581" y1="1" x2="1581" y2="108" style="stroke:#ddd;stroke-width:2;stroke-dasharray:3 3" />
<line x1="1690" y1="1" x2="1690" y2="108" style="stroke:#ddd;stroke-width:2;stroke-dasharray:3 3" />
<line x1="1799" y1="1" x2="1799" y2="108" style="stroke:#ddd;stroke-width:2;stroke-dasharray:3 3" />
<line x1="1908" y1="1" x2="1908" y2="108" style="stroke:#ddd;stroke-width:2;stroke-dasharray:3 3" />
<path d="M28.24,12.75c0.36,1.31,0.38,2.27-0.18,3.7c-2.48,6.28-7.52,13.96-12.37,18.98c-0.67,0.69-0.72,3.02,0,3.26C19.52,40 23.0,40.75 26.67,43.11" style="fill:none;stroke:black;stroke-width:3" />
<circle cx="28.24" cy="12.75" r="5" stroke-width="0" fill="#FF2A00" opacity="0.7" />
<path d="M137.24,12.75c0.36,1.31,0.38,2.27-0.18,3.7c-2.48,6.28-7.52,13.96-12.37,18.98c-0.67,0.69-0.72,3.02,0,3.26C128.52,40 132.0,40.75 135.67000000000002,43.11" style="fill:none;stroke:#999;stroke-width:3" />
<path d="M146.88,25.93c0.28,0.55,0.35,2.32,0,2.92c-5.52,9.2-15.74,21.45-23.33,29.26c-1.74,1.79,0.43,2.82,1.57,2.45c4.75-1.52,16.05-4.24,22.16-5.7" style="fill:none;stroke:black;stroke-width:3" />
<circle cx="146.88" cy="25.93" r="5" stroke-width="0" fill="#FF2A00" opacity="0.7" />
<path d="M246.24,12.75c0.36,1.31,0.38,2.27-0.18,3.7c-2.48,6.28-7.52,13.96-12.37,18.98c-0.67,0.69-0.72,3.02,0,3.26C237.52,40 241.0,40.75 244.67000000000002,43.11" style="fill:none;stroke:#999;stroke-width:3" />
<path d="M255.88,25.93c0.28,0.55,0.35,2.32,0,2.92c-5.52,9.2-15.74,21.45-23.33,29.26c-1.74,1.79,0.43,2.82,1.57,2.45c4.75-1.52,16.05-4.24,22.16-5.7" style="fill:none;stroke:#999;stroke-width:3" />
<path d="M251.88,46.38c2.69,2.71,6.95,11.15,7.62,15.37" style="fill:none;stroke:black;stroke-width:3" />
<circle cx="251.88" cy="46.38" r="5" stroke-width="0" fill="#FF2A00" opacity="0.7" />
<path d="M355.24,12.75c0.36,1.31,0.38,2.27-0.18,3.7c-2.48,6.28-7.52,13.96-12.37,18.98c-0.67,0.69-0.72,3.02,0,3.26C346.52,40 350.0,40.75 353.67,43.11" style="fill:none;stroke:#999;stroke-width:3" />
<path d="M364.88,25.93c0.28,0.55,0.35,2.32,0,2.92c-5.52,9.2-15.74,21.45-23.33,29.26c-1.74,1.79,0.43,2.82,1.57,2.45c4.75-1.52,16.05-4.24,22.16-5.7" style="fill:none;stroke:#999;stroke-width:3" />
<path d="M360.88,46.38c2.69,2.71,6.95,11.15,7.62,15.37" style="fill:none;stroke:#999;stroke-width:3" />
<path d="M353.89,60.62c0.07,0.36,0.91,1.85,0.98,4.09c0.31,10.79-0.2,28.79-0.2,32.46" style="fill:none;stroke:black;stroke-width:3" />
<circle cx="353.89" cy="60.62" r="5" stroke-width="0" fill="#FF2A00" opacity="0.7" />
<path d="M464.24,12.75c0.36,1.31,0.38,2.27-0.18,3.7c-2.48,6.28-7.52,13.96-12.37,18.98c-0.67,0.69-0.72,3.02,0,3.26C455.52,40 459.0,40.75 462.67,43.11" style="fill:none;stroke:#999;stroke-width:3" />
<path d="M473.88,25.93c0.28,0.55,0.35,2.32,0,2.92c-5.52,9.2-15.74,21.45-23.33,29.26c-1.74,1.79,0.43,2.82,1.57,2.45c4.75-1.52,16.05-4.24,22.16-5.7" style="fill:none;stroke:#999;stroke-width:3" />
<path d="M469.88,46.38c2.69,2.71,6.95,11.15,7.62,15.37" style="fill:none;stroke:#999;stroke-width:3" />
<path d="M462.89,60.62c0.07,0.36,0.91,1.85,0.98,4.09c0.31,10.79-0.2,28.79-0.2,32.46" style="fill:none;stroke:#999;stroke-width:3" />
<path d="M453.26,70.5c0.17,0.9,0.14,2.67-0.17,3.31c-2,4.19-7.01,12.27-9.85,15.87" style="fill:none;stroke:black;stroke-width:3" />
<circle cx="453.26" cy="70.5" r="5" stroke-width="0" fill="#FF2A00" opacity="0.7" />
<path d="M573.24,12.75c0.36,1.31,0.38,2.27-0.18,3.7c-2.48,6.28-7.52,13.96-12.37,18.98c-0.67,0.69-0.72,3.02,0,3.26C564.52,40 568.0,40.75 571.6700000000001,43.11" style="fill:none;stroke:#999;stroke-width:3" />
<path d="M582.88,25.93c0.28,0.55,0.35,2.32,0,2.92c-5.52,9.2-15.74,21.45-23.33,29.26c-1.74,1.79,0.43,2.82,1.57,2.45c4.75-1.52,16.05-4.24,22.16-5.7" style="fill:none;stroke:#999;stroke-width:3" />
<path d="M578.88,46.38c2.69,2.71,6.95,11.15,7.62,15.37" style="fill:none;stroke:#999;stroke-width:3" />
<path d="M571.89,60.62c0.07,0.36,0.91,1.85,0.98,4.09c0.31,10.79-0.2,28.79-0.2,32.46" style="fill:none;stroke:#999;stroke-width:3" />
<path d="M562.26,70.5c0.17,0.9,0.14,2.67-0.17,3.31c-2,4.19-7.01,12.27-9.85,15.87" style="fill:none;stroke:#999;stroke-width:3" />
<path d="M580.0,68c3.09,4.13,5.45,13.73,6.17,17.47" style="fill:none;stroke:black;stroke-width:3" />
<circle cx="580.0" cy="68.0" r="5" stroke-width="0" fill="#FF2A00" opacity="0.7" />
<path d="M682.24,12.75c0.36,1.31,0.38,2.27-0.18,3.7c-2.48,6.28-7.52,13.96-12.37,18.98c-0.67,0.69-0.72,3.02,0,3.26C673.52,40 677.0,40.75 680.6700000000001,43.11" style="fill:none;stroke:#999;stroke-width:3" />
<path d="M691.88,25.93c0.28,0.55,0.35,2.32,0,2.92c-5.52,9.2-15.74,21.45-23.33,29.26c-1.74,1.79,0.43,2.82,1.57,2.45c4.75-1.52,16.05-4.24,22.16-5.7" style="fill:none;stroke:#999;stroke-width:3" />
<path d="M687.88,46.38c2.69,2.71,6.95,11.15,7.62,15.37" style="fill:none;stroke:#999;stroke-width:3" />
<path d="M680.89,60.62c0.07,0.36,0.91,1.85,0.98,4.09c0.31,10.79-0.2,28.79-0.2,32.46" style="fill:none;stroke:#999;stroke-width:3" />
<path d="M671.26,70.5c0.17,0.9,0.14,2.67-0.17,3.31c-2,4.19-7.01,12.27-9.85,15.87" style="fill:none;stroke:#999;stroke-width:3" />
<path d="M689.0,68c3.09,4.13,5.45,13.73,6.17,17.47" style="fill:none;stroke:#999;stroke-width:3" />
<path d="M705.5,17.2c1.23,0.19,2.81,0.21,3.93,0.15C716.0,17 728.28,15.65 738.46,14.88c1.56-0.12,2.85-0.16,4.29,0.11" style="fill:none;stroke:black;stroke-width:3" />
<circle cx="705.5" cy="17.2" r="5" stroke-width="0" fill="#FF2A00" opacity="0.7" />
<path d="M791.24,12.75c0.36,1.31,0.38,2.27-0.18,3.7c-2.48,6.28-7.52,13.96-12.37,18.98c-0.67,0.69-0.72,3.02,0,3.26C782.52,40 786.0,40.75 789.6700000000001,43.11" style="fill:none;stroke:#999;stroke-width:3" />
<path d="M800.88,25.93c0.28,0.55,0.35,2.32,0,2.92c-5.52,9.2-15.74,21.45-23.33,29.26c-1.74,1.79,0.43,2.82,1.57,2.45c4.75-1.52,16.05-4.24,22.16-5.7" style="fill:none;stroke:#999;stroke-width:3" />
<path d="M796.88,46.38c2.69,2.71,6.95,11.15,7.62,15.37" style="fill:none;stroke:#999;stroke-width:3" />
<path d="M789.89,60.62c0.07,0.36,0.91,1.85,0.98,4.09c0.31,10.79-0.2,28.79-0.2,32.46" style="fill:none;stroke:#999;stroke-width:3" />
<path d="M780.26,70.5c0.17,0.9,0.14,2.67-0.17,3.31c-2,4.19-7.01,12.27-9.85,15.87" style="fill:none;stroke:#999;stroke-width:3" />
<path d="M798.0,68c3.09,4.13,5.45,13.73,6.17,17.47" style="fill:none;stroke:#999;stroke-width:3" />
<path d="M814.5,17.2c1.23,0.19,2.81,0.21,3.93,0.15C825.0,17 837.28,15.65 847.46,14.88c1.56-0.12,2.85-0.16,4.29,0.11" style="fill:none;stroke:#999;stroke-width:3" />
<path d="M810.21,27.5c-0.26,4.79-2.56,9.13-4.27,13.97" style="fill:none;stroke:black;stroke-width:3" />
<circle cx="810.21" cy="27.5" r="5" stroke-width="0" fill="#FF2A00" opacity="0.7" />
<path d="M900.24,12.75c0.36,1.31,0.38,2.27-0.18,3.7c-2.48,6.28-7.52,13.96-12.37,18.98c-0.67,0.69-0.72,3.02,0,3.26C891.52,40 895.0,40.75 898.6700000000001,43.11" style="fill:none;stroke:#999;stroke-width:3" />
<path d="M909.88,25.93c0.28,0.55,0.35,2.32,0,2.92c-5.52,9.2-15.74,21.45-23.33,29.26c-1.74,1.79,0.43,2.82,1.57,2.45c4.75-1.52,16.05-4.24,22.16-5.7" style="fill:none;stroke:#999;stroke-width:3" />
<path d="M905.88,46.38c2.69,2.71,6.95,11.15,7.62,15.37" style="fill:none;stroke:#999;stroke-width:3" />
<path d="M898.89,60.62c0.07,0.36,0.91,1.85,0.98,4.09c0.31,10.79-0.2,28.79-0.2,32.46" style="fill:none;stroke:#999;stroke-width:3" />
<path d="M889.26,70.5c0.17,0.9,0.14,2.67-0.17,3.31c-2,4.19-7.01,12.27-9.85,15.87" style="fill:none;stroke:#999;stroke-width:3" />
<path d="M907.0,68c3.09,4.13,5.45,13.73,6.17,17.47" style="fill:none;stroke:#999;stroke-width:3" />
<path d="M923.5,17.2c1.23,0.19,2.81,0.21,3.93,0.15C934.0,17 946.28,15.65 956.46,14.88c1.56-0.12,2.85-0.16,4.29,0.11" style="fill:none;stroke:#999;stroke-width:3" />
<path d="M919.21,27.5c-0.26,4.79-2.56,9.13-4.27,13.97" style="fill:none;stroke:#999;stroke-width:3" />
<path d="M919.82,30.25C925.0,29.75 953.16,26 964.41,25.5c8.91-0.4,1.58,5.78,0.58,7.5" style="fill:none;stroke:black;stroke-width:3" />
<circle cx="919.82" cy="30.25" r="5" stroke-width="0" fill="#FF2A00" opacity="0.7" />
<path d="M1009.24,12.75c0.36,1.31,0.38,2.27-0.18,3.7c-2.48,6.28-7.52,13.96-12.37,18.98c-0.67,0.69-0.72,3.02,0,3.26C1000.52,40 1004.0,40.75 1007.6700000000001,43.11" style="fill:none;stroke:#999;stroke-width:3" />
<path d="M1018.88,25.93c0.28,0.55,0.35,2.32,0,2.92c-5.52,9.2-15.74,21.45-23.33,29.26c-1.74,1.79,0.43,2.82,1.57,2.45c4.75-1.52,16.05-4.24,22.16-5.7" style="fill:none;stroke:#999;stroke-width:3" />
<path d="M1014.88,46.38c2.69,2.71,6.95,11.15,7.62,15.37" style="fill:none;stroke:#999;stroke-width:3" />
<path d="M1007.89,60.62c0.07,0.36,0.91,1.85,0.98,4.09c0.31,10.79-0.2,28.79-0.2,32.46" style="fill:none;stroke:#999;stroke-width:3" />
<path d="M998.26,70.5c0.17,0.9,0.14,2.67-0.17,3.31c-2,4.19-7.01,12.27-9.85,15.87" style="fill:none;stroke:#999;stroke-width:3" />
<path d="M1016.0,68c3.09,4.13,5.45,13.73,6.17,17.47" style="fill:none;stroke:#999;stroke-width:3" />
<path d="M1032.5,17.2c1.23,0.19,2.81,0.21,3.93,0.15C1043.0,17 1055.28,15.65 1065.46,14.88c1.56-0.12,2.85-0.16,4.29,0.11" style="fill:none;stroke:#999;stroke-width:3" />
<path d="M1028.21,27.5c-0.26,4.79-2.56,9.13-4.27,13.97" style="fill:none;stroke:#999;stroke-width:3" />
<path d="M1028.8200000000002,30.25C1034.0,29.75 1062.1599999999999,26 1073.4099999999999,25.5c8.91-0.4,1.58,5.78,0.58,7.5" style="fill:none;stroke:#999;stroke-width:3" />
<path d="M1049.18,16.84c0.54,0.71,0.97,1.99,0.97,2.56c0,0.57-0.32,32.88-0.32,34.45" style="fill:none;stroke:black;stroke-width:3" />
<circle cx="1049.18" cy="16.84" r="5" stroke-width="0" fill="#FF2A00" opacity="0.7" />
<path d="M1118.24,12.75c0.36,1.31,0.38,2.27-0.18,3.7c-2.48,6.28-7.52,13.96-12.37,18.98c-0.67,0.69-0.72,3.02,0,3.26C1109.52,40 1113.0,40.75 1116.67,43.11" style="fill:none;stroke:#999;stroke-width:3" />
<path d="M1127.88,25.93c0.28,0.55,0.35,2.32,0,2.92c-5.52,9.2-15.74,21.45-23.33,29.26c-1.74,1.79,0.43,2.82,1.57,2.45c4.75-1.52,16.05-4.24,22.16-5.7" style="fill:none;stroke:#999;stroke-width:3" />
<path d="M1123.88,46.38c2.69,2.71,6.95,11.15,7.62,15.37" style="fill:none;stroke:#999;stroke-width:3" />
<path d="M1116.8899999999999,60.62c0.07,0.36,0.91,1.85,0.98,4.09c0.31,10.79-0.2,28.79-0.2,32.46" style="fill:none;stroke:#999;stroke-width:3" />
<path d="M1107.26,70.5c0.17,0.9,0.14,2.67-0.17,3.31c-2,4.19-7.01,12.27-9.85,15.87" style="fill:none;stroke:#999;stroke-width:3" />
<path d="M1125.0,68c3.09,4.13,5.45,13.73,6.17,17.47" style="fill:none;stroke:#999;stroke-width:3" />
<path d="M1141.5,17.2c1.23,0.19,2.81,0.21,3.93,0.15C1152.0,17 1164.28,15.65 1174.46,14.88c1.56-0.12,2.85-0.16,4.29,0.11" style="fill:none;stroke:#999;stroke-width:3" />
<path d="M1137.21,27.5c-0.26,4.79-2.56,9.13-4.27,13.97" style="fill:none;stroke:#999;stroke-width:3" />
<path d="M1137.8200000000002,30.25C1143.0,29.75 1171.1599999999999,26 1182.4099999999999,25.5c8.91-0.4,1.58,5.78,0.58,7.5" style="fill:none;stroke:#999;stroke-width:3" />
<path d="M1158.18,16.84c0.54,0.71,0.97,1.99,0.97,2.56c0,0.57-0.32,32.88-0.32,34.45" style="fill:none;stroke:#999;stroke-width:3" />
<path d="M1144.41,35.78c2.03,0.94,4.79,3.74,5.9,5.3" style="fill:none;stroke:black;stroke-width:3" />
<circle cx="1144.41" cy="35.78" r="5" stroke-width="0" fill="#FF2A00" opacity="0.7" />
<path d="M1227.24,12.75c0.36,1.31,0.38,2.27-0.18,3.7c-2.48,6.28-7.52,13.96-12.37,18.98c-0.67,0.69-0.72,3.02,0,3.26C1218.52,40 1222.0,40.75 1225.67,43.11" style="fill:none;stroke:#999;stroke-width:3" />
<path d="M1236.88,25.93c0.28,0.55,0.35,2.32,0,2.92c-5.52,9.2-15.74,21.45-23.33,29.26c-1.74,1.79,0.43,2.82,1.57,2.45c4.75-1.52,16.05-4.24,22.16-5.7" style="fill:none;stroke:#999;stroke-width:3" />
<path d="M1232.88,46.38c2.69,2.71,6.95,11.15,7.62,15.37" style="fill:none;stroke:#999;stroke-width:3" />
<path d="M1225.8899999999999,60.62c0.07,0.36,0.91,1.85,0.98,4.09c0.31,10.79-0.2,28.79-0.2,32.46" style="fill:none;stroke:#999;stroke-width:3" />
<path d="M1216.26,70.5c0.17,0.9,0.14,2.67-0.17,3.31c-2,4.19-7.01,12.27-9.85,15.87" style="fill:none;stroke:#999;stroke-width:3" />
<path d="M1234.0,68c3.09,4.13,5.45,13.73,6.17,17.47" style="fill:none;stroke:#999;stroke-width:3" />
<path d="M1250.5,17.2c1.23,0.19,2.81,0.21,3.93,0.15C1261.0,17 1273.28,15.65 1283.46,14.88c1.56-0.12,2.85-0.16,4.29,0.11" style="fill:none;stroke:#999;stroke-width:3" />
<path d="M1246.21,27.5c-0.26,4.79-2.56,9.13-4.27,13.97" style="fill:none;stroke:#999;stroke-width:3" />
<path d="M1246.8200000000002,30.25C1252.0,29.75 1280.1599999999999,26 1291.4099999999999,25.5c8.91-0.4,1.58,5.78,0.58,7.5" style="fill:none;stroke:#999;stroke-width:3" />
<path d="M1267.18,16.84c0.54,0.71,0.97,1.99,0.97,2.56c0,0.57-0.32,32.88-0.32,34.45" style="fill:none;stroke:#999;stroke-width:3" />
<path d="M1253.41,35.78c2.03,0.94,4.79,3.74,5.9,5.3" style="fill:none;stroke:#999;stroke-width:3" />
<path d="M1250.86,44.88c2.27,0.91,5.77,4.25,7,5.76" style="fill:none;stroke:black;stroke-width:3" />
<circle cx="1250.86" cy="44.88" r="5" stroke-width="0" fill="#FF2A00" opacity="0.7" />
<path d="M1336.24,12.75c0.36,1.31,0.38,2.27-0.18,3.7c-2.48,6.28-7.52,13.96-12.37,18.98c-0.67,0.69-0.72,3.02,0,3.26C1327.52,40 1331.0,40.75 1334.67,43.11" style="fill:none;stroke:#999;stroke-width:3" />
<path d="M1345.88,25.93c0.28,0.55,0.35,2.32,0,2.92c-5.52,9.2-15.74,21.45-23.33,29.26c-1.74,1.79,0.43,2.82,1.57,2.45c4.75-1.52,16.05-4.24,22.16-5.7" style="fill:none;stroke:#999;stroke-width:3" />
<path d="M1341.88,46.38c2.69,2.71,6.95,11.15,7.62,15.37" style="fill:none;stroke:#999;stroke-width:3" />
<path d="M1334.8899999999999,60.62c0.07,0.36,0.91,1.85,0.98,4.09c0.31,10.79-0.2,28.79-0.2,32.46" style="fill:none;stroke:#999;stroke-width:3" />
<path d="M1325.26,70.5c0.17,0.9,0.14,2.67-0.17,3.31c-2,4.19-7.01,12.27-9.85,15.87" style="fill:none;stroke:#999;stroke-width:3" />
<path d="M1343.0,68c3.09,4.13,5.45,13.73,6.17,17.47" style="fill:none;stroke:#999;stroke-width:3" />
<path d="M1359.5,17.2c1.23,0.19,2.81,0.21,3.93,0.15C1370.0,17 1382.28,15.65 1392.46,14.88c1.56-0.12,2.85-0.16,4.29,0.11" style="fill:none;stroke:#999;stroke-width:3" />
<path d="M1355.21,27.5c-0.26,4.79-2.56,9.13-4.27,13.97" style="fill:none;stroke:#999;stroke-width:3" />
<path d="M1355.8200000000002,30.25C1361.0,29.75 1389.1599999999999,26 1400.4099999999999,25.5c8.91-0.4,1.58,5.78,0.58,7.5" style="fill:none;stroke:#999;stroke-width:3" />
<path d="M1376.18,16.84c0.54,0.71,0.97,1.99,0.97,2.56c0,0.57-0.32,32.88-0.32,34.45" style="fill:none;stroke:#999;stroke-width:3" />
<path d="M1362.41,35.78c2.03,0.94,4.79,3.74,5.9,5.3" style="fill:none;stroke:#999;stroke-width:3" />
<path d="M1359.86,44.88c2.27,0.91,5.77,4.25,7,5.76" style="fill:none;stroke:#999;stroke-width:3" />
<path d="M1385.31,33.27c2.94,1.33,6.28,4,7.46,5.11" style="fill:none;stroke:black;stroke-width:3" />
<circle cx="1385.31" cy="33.27" r="5" stroke-width="0" fill="#FF2A00" opacity="0.7" />
<path d="M1445.24,12.75c0.36,1.31,0.38,2.27-0.18,3.7c-2.48,6.28-7.52,13.96-12.37,18.98c-0.67,0.69-0.72,3.02,0,3.26C1436.52,40 1440.0,40.75 1443.67,43.11" style="fill:none;stroke:#999;stroke-width:3" />
<path d="M1454.88,25.93c0.28,0.55,0.35,2.32,0,2.92c-5.52,9.2-15.74,21.45-23.33,29.26c-1.74,1.79,0.43,2.82,1.57,2.45c4.75-1.52,16.05-4.24,22.16-5.7" style="fill:none;stroke:#999;stroke-width:3" />
<path d="M1450.88,46.38c2.69,2.71,6.95,11.15,7.62,15.37" style="fill:none;stroke:#999;stroke-width:3" />
<path d="M1443.8899999999999,60.62c0.07,0.36,0.91,1.85,0.98,4.09c0.31,10.79-0.2,28.79-0.2,32.46" style="fill:none;stroke:#999;stroke-width:3" />
<path d="M1434.26,70.5c0.17,0.9,0.14,2.67-0.17,3.31c-2,4.19-7.01,12.27-9.85,15.87" style="fill:none;stroke:#999;stroke-width:3" />
<path d="M1452.0,68c3.09,4.13,5.45,13.73,6.17,17.47" style="fill:none;stroke:#999;stroke-width:3" />
<path d="M1468.5,17.2c1.23,0.19,2.81,0.21,3.93,0.15C1479.0,17 1491.28,15.65 1501.46,14.88c1.56-0.12,2.85-0.16,4.29,0.11" style="fill:none;stroke:#999;stroke-width:3" />
<path d="M1464.21,27.5c-0.26,4.79-2.56,9.13-4.27,13.97" style="fill:none;stroke:#999;stroke-width:3" />
<path d="M1464.8200000000002,30.25C1470.0,29.75 1498.1599999999999,26 1509.4099999999999,25.5c8.91-0.4,1.58,5.78,0.58,7.5" style="fill:none;stroke:#999;stroke-width:3" />
<path d="M1485.18,16.84c0.54,0.71,0.97,1.99,0.97,2.56c0,0.57-0.32,32.88-0.32,34.45" style="fill:none;stroke:#999;stroke-width:3" />
<path d="M1471.41,35.78c2.03,0.94,4.79,3.74,5.9,5.3" style="fill:none;stroke:#999;stroke-width:3" />
<path d="M1468.86,44.88c2.27,0.91,5.77,4.25,7,5.76" style="fill:none;stroke:#999;stroke-width:3" />
<path d="M1494.31,33.27c2.94,1.33,6.28,4,7.46,5.11" style="fill:none;stroke:#999;stroke-width:3" />
<path d="M1494.75,44.76c2.76,1.01,6.53,4.06,8.03,5.76" style="fill:none;stroke:black;stroke-width:3" />
<circle cx="1494.75" cy="44.76" r="5" stroke-width="0" fill="#FF2A00" opacity="0.7" />
<path d="M1554.24,12.75c0.36,1.31,0.38,2.27-0.18,3.7c-2.48,6.28-7.52,13.96-12.37,18.98c-0.67,0.69-0.72,3.02,0,3.26C1545.52,40 1549.0,40.75 1552.67,43.11" style="fill:none;stroke:#999;stroke-width:3" />
<path d="M1563.88,25.93c0.28,0.55,0.35,2.32,0,2.92c-5.52,9.2-15.74,21.45-23.33,29.26c-1.74,1.79,0.43,2.82,1.57,2.45c4.75-1.52,16.05-4.24,22.16-5.7" style="fill:none;stroke:#999;stroke-width:3" />
<path d="M1559.88,46.38c2.69,2.71,6.95,11.15,7.62,15.37" style="fill:none;stroke:#999;stroke-width:3" />
<path d="M1552.8899999999999,60.62c0.07,0.36,0.91,1.85,0.98,4.09c0.31,10.79-0.2,28.79-0.2,32.46" style="fill:none;stroke:#999;stroke-width:3" />
<path d="M1543.26,70.5c0.17,0.9,0.14,2.67-0.17,3.31c-2,4.19-7.01,12.27-9.85,15.87" style="fill:none;stroke:#999;stroke-width:3" />
<path d="M1561.0,68c3.09,4.13,5.45,13.73,6.17,17.47" style="fill:none;stroke:#999;stroke-width:3" />
<path d="M1577.5,17.2c1.23,0.19,2.81,0.21,3.93,0.15C1588.0,17 1600.28,15.65 1610.46,14.88c1.56-0.12,2.85-0.16,4.29,0.11" style="fill:none;stroke:#999;stroke-width:3" />
<path d="M1573.21,27.5c-0.26,4.79-2.56,9.13-4.27,13.97" style="fill:none;stroke:#999;stroke-width:3" />
<path d="M1573.8200000000002,30.25C1579.0,29.75 1607.1599999999999,26 1618.4099999999999,25.5c8.91-0.4,1.58,5.78,0.58,7.5" style="fill:none;stroke:#999;stroke-width:3" />
<path d="M1594.18,16.84c0.54,0.71,0.97,1.99,0.97,2.56c0,0.57-0.32,32.88-0.32,34.45" style="fill:none;stroke:#999;stroke-width:3" />
<path d="M1580.41,35.78c2.03,0.94,4.79,3.74,5.9,5.3" style="fill:none;stroke:#999;stroke-width:3" />
<path d="M1577.86,44.88c2.27,0.91,5.77,4.25,7,5.76" style="fill:none;stroke:#999;stroke-width:3" />
<path d="M1603.31,33.27c2.94,1.33,6.28,4,7.46,5.11" style="fill:none;stroke:#999;stroke-width:3" />
<path d="M1603.75,44.76c2.76,1.01,6.53,4.06,8.03,5.76" style="fill:none;stroke:#999;stroke-width:3" />
<path d="M1580.23,61.69c0.62,0.16,2.71,0.19,3.33,0.16c6.69-0.34,18.94-1.59,26.94-1.8c1.04-0.03,1.67,0.07,2.18,0.15" style="fill:none;stroke:black;stroke-width:3" />
<circle cx="1580.23" cy="61.69" r="5" stroke-width="0" fill="#FF2A00" opacity="0.7" />
<path d="M1663.24,12.75c0.36,1.31,0.38,2.27-0.18,3.7c-2.48,6.28-7.52,13.96-12.37,18.98c-0.67,0.69-0.72,3.02,0,3.26C1654.52,40 1658.0,40.75 1661.67,43.11" style="fill:none;stroke:#999;stroke-width:3" />
<path d="M1672.88,25.93c0.28,0.55,0.35,2.32,0,2.92c-5.52,9.2-15.74,21.45-23.33,29.26c-1.74,1.79,0.43,2.82,1.57,2.45c4.75-1.52,16.05-4.24,22.16-5.7" style="fill:none;stroke:#999;stroke-width:3" />
<path d="M1668.88,46.38c2.69,2.71,6.95,11.15,7.62,15.37" style="fill:none;stroke:#999;stroke-width:3" />
<path d="M1661.8899999999999,60.62c0.07,0.36,0.91,1.85,0.98,4.09c0.31,10.79-0.2,28.79-0.2,32.46" style="fill:none;stroke:#999;stroke-width:3" />
<path d="M1652.26,70.5c0.17,0.9,0.14,2.67-0.17,3.31c-2,4.19-7.01,12.27-9.85,15.87" style="fill:none;stroke:#999;stroke-width:3" />
<path d="M1670.0,68c3.09,4.13,5.45,13.73,6.17,17.47" style="fill:none;stroke:#999;stroke-width:3" />
<path d="M1686.5,17.2c1.23,0.19,2.81,0.21,3.93,0.15C1697.0,17 1709.28,15.65 1719.46,14.88c1.56-0.12,2.85-0.16,4.29,0.11" style="fill:none;stroke:#999;stroke-width:3" />
<path d="M1682.21,27.5c-0.26,4.79-2.56,9.13-4.27,13.97" style="fill:none;stroke:#999;stroke-width:3" />
<path d="M1682.8200000000002,30.25C1688.0,29.75 1716.1599999999999,26 1727.4099999999999,25.5c8.91-0.4,1.58,5.78,0.58,7.5" style="fill:none;stroke:#999;stroke-width:3" />
<path d="M1703.18,16.84c0.54,0.71,0.97,1.99,0.97,2.56c0,0.57-0.32,32.88-0.32,34.45" style="fill:none;stroke:#999;stroke-width:3" />
<path d="M1689.41,35.78c2.03,0.94,4.79,3.74,5.9,5.3" style="fill:none;stroke:#999;stroke-width:3" />
<path d="M1686.86,44.88c2.27,0.91,5.77,4.25,7,5.76" style="fill:none;stroke:#999;stroke-width:3" />
<path d="M1712.31,33.27c2.94,1.33,6.28,4,7.46,5.11" style="fill:none;stroke:#999;stroke-width:3" />
<path d="M1712.75,44.76c2.76,1.01,6.53,4.06,8.03,5.76" style="fill:none;stroke:#999;stroke-width:3" />
<path d="M1689.23,61.69c0.62,0.16,2.71,0.19,3.33,0.16c6.69-0.34,18.94-1.59,26.94-1.8c1.04-0.03,1.67,0.07,2.18,0.15" style="fill:none;stroke:#999;stroke-width:3" />
<path d="M1679.75,73.78c1.46,0.5,4.14,0.59,5.6,0.5c14.36-0.92,27.91-2.77,44.54-3.28c2.44-0.07,3.89,0.24,5.11,0.49" style="fill:none;stroke:black;stroke-width:3" />
<circle cx="1679.75" cy="73.78" r="5" stroke-width="0" fill="#FF2A00" opacity="0.7" />
<path d="M1772.24,12.75c0.36,1.31,0.38,2.27-0.18,3.7c-2.48,6.28-7.52,13.96-12.37,18.98c-0.67,0.69-0.72,3.02,0,3.26C1763.52,40 1767.0,40.75 1770.67,43.11" style="fill:none;stroke:#999;stroke-width:3" />
<path d="M1781.88,25.93c0.28,0.55,0.35,2.32,0,2.92c-5.52,9.2-15.74,21.45-23.33,29.26c-1.74,1.79,0.43,2.82,1.57,2.45c4.75-1.52,16.05-4.24,22.16-5.7" style="fill:none;stroke:#999;stroke-width:3" />
<path d="M1777.88,46.38c2.69,2.71,6.95,11.15,7.62,15.37" style="fill:none;stroke:#999;stroke-width:3" />
<path d="M1770.8899999999999,60.62c0.07,0.36,0.91,1.85,0.98,4.09c0.31,10.79-0.2,28.79-0.2,32.46" style="fill:none;stroke:#999;stroke-width:3" />
<path d="M1761.26,70.5c0.17,0.9,0.14,2.67-0.17,3.31c-2,4.19-7.01,12.27-9.85,15.87" style="fill:none;stroke:#999;stroke-width:3" />
<path d="M1779.0,68c3.09,4.13,5.45,13.73,6.17,17.47" style="fill:none;stroke:#999;stroke-width:3" />
<path d="M1795.5,17.2c1.23,0.19,2.81,0.21,3.93,0.15C1806.0,17 1818.28,15.65 1828.46,14.88c1.56-0.12,2.85-0.16,4.29,0.11" style="fill:none;stroke:#999;stroke-width:3" />
<path d="M1791.21,27.5c-0.26,4.79-2.56,9.13-4.27,13.97" style="fill:none;stroke:#999;stroke-width:3" />
<path d="M1791.8200000000002,30.25C1797.0,29.75 1825.1599999999999,26 1836.4099999999999,25.5c8.91-0.4,1.58,5.78,0.58,7.5" style="fill:none;stroke:#999;stroke-width:3" />
<path d="M1812.18,16.84c0.54,0.71,0.97,1.99,0.97,2.56c0,0.57-0.32,32.88-0.32,34.45" style="fill:none;stroke:#999;stroke-width:3" />
<path d="M1798.41,35.78c2.03,0.94,4.79,3.74,5.9,5.3" style="fill:none;stroke:#999;stroke-width:3" />
<path d="M1795.86,44.88c2.27,0.91,5.77,4.25,7,5.76" style="fill:none;stroke:#999;stroke-width:3" />
<path d="M1821.31,33.27c2.94,1.33,6.28,4,7.46,5.11" style="fill:none;stroke:#999;stroke-width:3" />
<path d="M1821.75,44.76c2.76,1.01,6.53,4.06,8.03,5.76" style="fill:none;stroke:#999;stroke-width:3" />
<path d="M1798.23,61.69c0.62,0.16,2.71,0.19,3.33,0.16c6.69-0.34,18.94-1.59,26.94-1.8c1.04-0.03,1.67,0.07,2.18,0.15" style="fill:none;stroke:#999;stroke-width:3" />
<path d="M1788.75,73.78c1.46,0.5,4.14,0.59,5.6,0.5c14.36-0.92,27.91-2.77,44.54-3.28c2.44-0.07,3.89,0.24,5.11,0.49" style="fill:none;stroke:#999;stroke-width:3" />
<path d="M1809.59,75.78c0.06,1.09,0.03,2.58-0.68,3.46c-4.19,5.25-4.3,6.39-10.15,11.39c-1.59,1.36-1.65,2.88,0.79,2.22c5.25-1.42,20.75-4.33,29.29-5.67" style="fill:none;stroke:black;stroke-width:3" />
<circle cx="1809.59" cy="75.78" r="5" stroke-width="0" fill="#FF2A00" opacity="0.7" />
<path d="M1881.24,12.75c0.36,1.31,0.38,2.27-0.18,3.7c-2.48,6.28-7.52,13.96-12.37,18.98c-0.67,0.69-0.72,3.02,0,3.26C1872.52,40 1876.0,40.75 1879.67,43.11" style="fill:none;stroke:#999;stroke-width:3" />
<path d="M1890.88,25.93c0.28,0.55,0.35,2.32,0,2.92c-5.52,9.2-15.74,21.45-23.33,29.26c-1.74,1.79,0.43,2.82,1.57,2.45c4.75-1.52,16.05-4.24,22.16-5.7" style="fill:none;stroke:#999;stroke-width:3" />
<path d="M1886.88,46.38c2.69,2.71,6.95,11.15,7.62,15.37" style="fill:none;stroke:#999;stroke-width:3" />
<path d="M1879.8899999999999,60.62c0.07,0.36,0.91,1.85,0.98,4.09c0.31,10.79-0.2,28.79-0.2,32.46" style="fill:none;stroke:#999;stroke-width:3" />
<path d="M1870.26,70.5c0.17,0.9,0.14,2.67-0.17,3.31c-2,4.19-7.01,12.27-9.85,15.87" style="fill:none;stroke:#999;stroke-width:3" />
<path d="M1888.0,68c3.09,4.13,5.45,13.73,6.17,17.47" style="fill:none;stroke:#999;stroke-width:3" />
<path d="M1904.5,17.2c1.23,0.19,2.81,0.21,3.93,0.15C1915.0,17 1927.28,15.65 1937.46,14.88c1.56-0.12,2.85-0.16,4.29,0.11" style="fill:none;stroke:#999;stroke-width:3" />
<path d="M1900.21,27.5c-0.26,4.79-2.56,9.13-4.27,13.97" style="fill:none;stroke:#999;stroke-width:3" />
<path d="M1900.8200000000002,30.25C1906.0,29.75 1934.1599999999999,26 1945.4099999999999,25.5c8.91-0.4,1.58,5.78,0.58,7.5" style="fill:none;stroke:#999;stroke-width:3" />
<path d="M1921.18,16.84c0.54,0.71,0.97,1.99,0.97,2.56c0,0.57-0.32,32.88-0.32,34.45" style="fill:none;stroke:#999;stroke-width:3" />
<path d="M1907.41,35.78c2.03,0.94,4.79,3.74,5.9,5.3" style="fill:none;stroke:#999;stroke-width:3" />
<path d="M1904.86,44.88c2.27,0.91,5.77,4.25,7,5.76" style="fill:none;stroke:#999;stroke-width:3" />
<path d="M1930.31,33.27c2.94,1.33,6.28,4,7.46,5.11" style="fill:none;stroke:#999;stroke-width:3" />
<path d="M1930.75,44.76c2.76,1.01,6.53,4.06,8.03,5.76" style="fill:none;stroke:#999;stroke-width:3" />
<path d="M1907.23,61.69c0.62,0.16,2.71,0.19,3.33,0.16c6.69-0.34,18.94-1.59,26.94-1.8c1.04-0.03,1.67,0.07,2.18,0.15" style="fill:none;stroke:#999;stroke-width:3" />
<path d="M1897.75,73.78c1.46,0.5,4.14,0.59,5.6,0.5c14.36-0.92,27.91-2.77,44.54-3.28c2.44-0.07,3.89,0.24,5.11,0.49" style="fill:none;stroke:#999;stroke-width:3" />
<path d="M1918.59,75.78c0.06,1.09,0.03,2.58-0.68,3.46c-4.19,5.25-4.3,6.39-10.15,11.39c-1.59,1.36-1.65,2.88,0.79,2.22c5.25-1.42,20.75-4.33,29.29-5.67" style="fill:none;stroke:#999;stroke-width:3" />
<path d="M1931.58,78.93C1935.61,81.72 1941.99,90.41 1943.0,94.75" style="fill:none;stroke:black;stroke-width:3" />
<circle cx="1931.58" cy="78.93" r="5" stroke-width="0" fill="#FF2A00" opacity="0.7" />
</svg>