<!-- 07f6e -->
<svg width="1417px" height="109px" viewBox="0 0 1417px 109px" xmlns="http://www.w3.org/2000/svg" xmlns:xlink="http://www.w3.org/1999/xlink" xml:space="preserve" version="1.1"  baseProfile="full">
<line x1="1" y1="1" x2="1416" y2="1" style="stroke:#ddd;stroke-width:2" />
<line x1="1" y1="1" x2="1" y2="108" style="stroke:#ddd;stroke-width:2" />
<line x1="1" y1="108" x2="1416" y2="108" style="stroke:#ddd;stroke-width:2" />
<line x1="1416" y1="1" x2="1416" y2="108" style="stroke:#ddd;stroke-width:2" />
<line x1="109" y1="1" x2="109" y2="108" style="stroke:#ddd;stroke-width:2" />
<line x1="218" y1="1" x2="218" y2="108" style="stroke:#ddd;stroke-width:2" />
<line x1="327" y1="1" x2="327" y2="108" style="stroke:#ddd;stroke-width:2" />
<line x1="436" y1="1" x2="436" y2="108" style="stroke:#ddd;stroke-width:2" />
<line x1="545" y1="1" x2="545" y2="108" style="stroke:#ddd;stroke-width:2" />
<line x1="654" y1="1" x2="654" y2="108" style="stroke:#ddd;stroke-width:2" />
<line x1="763" y1="1" x2="763" y2="108" style="stroke:#ddd;stroke-width:2" />
<line x1="872" y1="1" x2="872" y2="108" style="stroke:#ddd;stroke-width:2" />
<line x1="981" y1="1" x2="981" y2="108" style="stroke:#ddd;stroke-width:2" />
<line x1="1090" y1="1" x2="1090" y2="108" style="stroke:#ddd;stroke-width:2" />
<line x1="1199" y1="1" x2="1199" y2="108" style="stroke:#ddd;stroke-width:2" />
<line x1="1308" y1="1" x2="1308" y2="108" style="stroke:#ddd;stroke-width:2" />
<line x1="1" y1="54" x2="1416" y2="54" style="stroke:#ddd;stroke-width:2;stroke-dasharray:3 3" />
<line x1="55" y1="1" x2="55" y2="108" style="stroke:#ddd;stroke-width:2;stroke-dasharray:3 3" />
<line x1="164" y1="1" x2="164" y2="108" style="stroke:#ddd;stroke-width:2;stroke-dasharray:3 3" />
<line x1="273" y1="1" x2="273" y2="108" style="stroke:#ddd;stroke-width:2;stroke-dasharray:3 3" />
<line x1="382" y1="1" x2="382" y2="108" style="stroke:#ddd;stroke-width:2;stroke-dasharray:3 3" />
<line x1="491" y1="1" x2="491" y2="108" style="stroke:#ddd;stroke-width:2;stroke-dasharray:3 3" />
<line x1="600" y1="1" x2="600" y2="108" style="stroke:#ddd;stroke-width:2;stroke-dasharray:3 3" />
<line x1="709" y1="1" x2="709" y2="108" style="stroke:#ddd;stroke-width:2;stroke-dasharray:3 3" />
<line x1="818" y1="1" x2="818" y2="108" style="stroke:#ddd;stroke-width:2;stroke-dasharray:3 3" />
<line x1="927" y1="1" x2="927" y2="108" style="stroke:#ddd;stroke-width:2;stroke-dasharray:3 3" />
<line x1="1036" y1="1" x2="1036" y2="108" style="stroke:#ddd;stroke-width:2;stroke-dasharray:3 3" />
<line x1="1145" y1="1" x2="1145" y2="108" style="stroke:#ddd;stroke-width:2;stroke-dasharray:3 3" />
<line x1="1254" y1="1" x2="1254" y2="108" style="stroke:#ddd;stroke-width:2;stroke-dasharray:3 3" />
<line x1="1363" y1="1" x2="1363" y2="108" style="stroke:#ddd;stroke-width:2;stroke-dasharray:3 3" />
<path d="M24.0,16.46c0.65,0.65,1.25,1.55,1.34,1.96c0.71,3.37,1.88,8.19,2.75,12.77c0.25,1.3,0.47,2.59,0.65,3.81" style="fill:none;stroke:black;stroke-width:3" />
<circle cx="24.0" cy="16.46" r="5" stroke-width="0" fill="#FF2A00" opacity="0.7" />
<path d="M133.0,16.46c0.65,0.65,1.25,1.55,1.34,1.96c0.71,3.37,1.88,8.19,2.75,12.77c0.25,1.3,0.47,2.59,0.65,3.81" style="fill:none;stroke:#999;stroke-width:3" />
<path d="M135.37,18.04c7.83-0.84,46.64-4.08,57.51-4.71c3.02-0.17,5.61,0.58,4.7,4.22c-0.62,2.44-1.73,5.73-3.25,9.73c-0.38,1.01-0.79,2.07-1.23,3.17" style="fill:none;stroke:black;stroke-width:3" />
<circle cx="135.37" cy="18.04" r="5" stroke-width="0" fill="#FF2A00" opacity="0.7" />
<path d="M242.0,16.46c0.65,0.65,1.25,1.55,1.34,1.96c0.71,3.37,1.88,8.19,2.75,12.77c0.25,1.3,0.47,2.59,0.65,3.81" style="fill:none;stroke:#999;stroke-width:3" />
<path d="M244.37,18.04c7.83-0.84,46.64-4.08,57.51-4.71c3.02-0.17,5.61,0.58,4.7,4.22c-0.62,2.44-1.73,5.73-3.25,9.73c-0.38,1.01-0.79,2.07-1.23,3.17" style="fill:none;stroke:#999;stroke-width:3" />
<path d="M263.5,17.75c0.56,0.56,0.89,1.34,1,2.39c0.37,3.24,0.97,8.31,1.11,10.03" style="fill:none;stroke:black;stroke-width:3" />
<circle cx="263.5" cy="17.75" r="5" stroke-width="0" fill="#FF2A00" opacity="0.7" />
<path d="M351.0,16.46c0.65,0.65,1.25,1.55,1.34,1.96c0.71,3.37,1.88,8.19,2.75,12.77c0.25,1.3,0.47,2.59,0.65,3.81" style="fill:none;stroke:#999;stroke-width:3" />
<path d="M353.37,18.04c7.83-0.84,46.64-4.08,57.51-4.71c3.02-0.17,5.61,0.58,4.7,4.22c-0.62,2.44-1.73,5.73-3.25,9.73c-0.38,1.01-0.79,2.07-1.23,3.17" style="fill:none;stroke:#999;stroke-width:3" />
<path d="M372.5,17.75c0.56,0.56,0.89,1.34,1,2.39c0.37,3.24,0.97,8.31,1.11,10.03" style="fill:none;stroke:#999;stroke-width:3" />
<path d="M392.81,15.79c0.44,0.71,0.49,1.52,0.36,2.24c-0.79,4.44-1.53,7.83-2.19,10.85" style="fill:none;stroke:black;stroke-width:3" />
<circle cx="392.81" cy="15.79" r="5" stroke-width="0" fill="#FF2A00" opacity="0.7" />
<path d="M460.0,16.46c0.65,0.65,1.25,1.55,1.34,1.96c0.71,3.37,1.88,8.19,2.75,12.77c0.25,1.3,0.47,2.59,0.65,3.81" style="fill:none;stroke:#999;stroke-width:3" />
<path d="M462.37,18.04c7.83-0.84,46.64-4.08,57.51-4.71c3.02-0.17,5.61,0.58,4.7,4.22c-0.62,2.44-1.73,5.73-3.25,9.73c-0.38,1.01-0.79,2.07-1.23,3.17" style="fill:none;stroke:#999;stroke-width:3" />
<path d="M481.5,17.75c0.56,0.56,0.89,1.34,1,2.39c0.37,3.24,0.97,8.31,1.11,10.03" style="fill:none;stroke:#999;stroke-width:3" />
<path d="M501.81,15.79c0.44,0.71,0.49,1.52,0.36,2.24c-0.79,4.44-1.53,7.83-2.19,10.85" style="fill:none;stroke:#999;stroke-width:3" />
<path d="M465.56,32.82c10.82-1.07,44.94-3.7,54.08-4" style="fill:none;stroke:black;stroke-width:3" />
<circle cx="465.56" cy="32.82" r="5" stroke-width="0" fill="#FF2A00" opacity="0.7" />
<path d="M569.0,16.46c0.65,0.65,1.25,1.55,1.34,1.96c0.71,3.37,1.88,8.19,2.75,12.77c0.25,1.3,0.47,2.59,0.65,3.81" style="fill:none;stroke:#999;stroke-width:3" />
<path d="M571.37,18.04c7.83-0.84,46.64-4.08,57.51-4.71c3.02-0.17,5.61,0.58,4.7,4.22c-0.62,2.44-1.73,5.73-3.25,9.73c-0.38,1.01-0.79,2.07-1.23,3.17" style="fill:none;stroke:#999;stroke-width:3" />
<path d="M590.5,17.75c0.56,0.56,0.89,1.34,1,2.39c0.37,3.24,0.97,8.31,1.11,10.03" style="fill:none;stroke:#999;stroke-width:3" />
<path d="M610.81,15.79c0.44,0.71,0.49,1.52,0.36,2.24c-0.79,4.44-1.53,7.83-2.19,10.85" style="fill:none;stroke:#999;stroke-width:3" />
<path d="M574.56,32.82c10.82-1.07,44.94-3.7,54.08-4" style="fill:none;stroke:#999;stroke-width:3" />
<path d="M573.34,44.27c1.62,0.34,4.57,0.15,6.19,0c14.21-1.27,29.84-3.14,44.2-3.97c2.7-0.16,4.31-0.1,5.65,0.03" style="fill:none;stroke:black;stroke-width:3" />
<circle cx="573.34" cy="44.27" r="5" stroke-width="0" fill="#FF2A00" opacity="0.7" />
<path d="M678.0,16.46c0.65,0.65,1.25,1.55,1.34,1.96c0.71,3.37,1.88,8.19,2.75,12.77c0.25,1.3,0.47,2.59,0.65,3.81" style="fill:none;stroke:#999;stroke-width:3" />
<path d="M680.37,18.04c7.83-0.84,46.64-4.08,57.51-4.71c3.02-0.17,5.61,0.58,4.7,4.22c-0.62,2.44-1.73,5.73-3.25,9.73c-0.38,1.01-0.79,2.07-1.23,3.17" style="fill:none;stroke:#999;stroke-width:3" />
<path d="M699.5,17.75c0.56,0.56,0.89,1.34,1,2.39c0.37,3.24,0.97,8.31,1.11,10.03" style="fill:none;stroke:#999;stroke-width:3" />
<path d="M719.81,15.79c0.44,0.71,0.49,1.52,0.36,2.24c-0.79,4.44-1.53,7.83-2.19,10.85" style="fill:none;stroke:#999;stroke-width:3" />
<path d="M683.56,32.82c10.82-1.07,44.94-3.7,54.08-4" style="fill:none;stroke:#999;stroke-width:3" />
<path d="M682.34,44.27c1.62,0.34,4.57,0.15,6.19,0c14.21-1.27,29.84-3.14,44.2-3.97c2.7-0.16,4.31-0.1,5.65,0.03" style="fill:none;stroke:#999;stroke-width:3" />
<path d="M707.36,34.55c0.86,0.86,1.31,2.04,1.24,2.82c-0.35,3.89-1.1,7.39-2.13,14.62" style="fill:none;stroke:black;stroke-width:3" />
<circle cx="707.36" cy="34.55" r="5" stroke-width="0" fill="#FF2A00" opacity="0.7" />
<path d="M787.0,16.46c0.65,0.65,1.25,1.55,1.34,1.96c0.71,3.37,1.88,8.19,2.75,12.77c0.25,1.3,0.47,2.59,0.65,3.81" style="fill:none;stroke:#999;stroke-width:3" />
<path d="M789.37,18.04c7.83-0.84,46.64-4.08,57.51-4.71c3.02-0.17,5.61,0.58,4.7,4.22c-0.62,2.44-1.73,5.73-3.25,9.73c-0.38,1.01-0.79,2.07-1.23,3.17" style="fill:none;stroke:#999;stroke-width:3" />
<path d="M808.5,17.75c0.56,0.56,0.89,1.34,1,2.39c0.37,3.24,0.97,8.31,1.11,10.03" style="fill:none;stroke:#999;stroke-width:3" />
<path d="M828.81,15.79c0.44,0.71,0.49,1.52,0.36,2.24c-0.79,4.44-1.53,7.83-2.19,10.85" style="fill:none;stroke:#999;stroke-width:3" />
<path d="M792.56,32.82c10.82-1.07,44.94-3.7,54.08-4" style="fill:none;stroke:#999;stroke-width:3" />
<path d="M791.34,44.27c1.62,0.34,4.57,0.15,6.19,0c14.21-1.27,29.84-3.14,44.2-3.97c2.7-0.16,4.31-0.1,5.65,0.03" style="fill:none;stroke:#999;stroke-width:3" />
<path d="M816.36,34.55c0.86,0.86,1.31,2.04,1.24,2.82c-0.35,3.89-1.1,7.39-2.13,14.62" style="fill:none;stroke:#999;stroke-width:3" />
<path d="M801.39,52.99c1.06,1.06,1.39,1.88,1.39,3.42c0,0.83,0.12,16.04,0.15,25.96c0.01,1.57,0.01,3,0.01,4.23" style="fill:none;stroke:black;stroke-width:3" />
<circle cx="801.39" cy="52.99" r="5" stroke-width="0" fill="#FF2A00" opacity="0.7" />
<path d="M896.0,16.46c0.65,0.65,1.25,1.55,1.34,1.96c0.71,3.37,1.88,8.19,2.75,12.77c0.25,1.3,0.47,2.59,0.65,3.81" style="fill:none;stroke:#999;stroke-width:3" />
<path d="M898.37,18.04c7.83-0.84,46.64-4.08,57.51-4.71c3.02-0.17,5.61,0.58,4.7,4.22c-0.62,2.44-1.73,5.73-3.25,9.73c-0.38,1.01-0.79,2.07-1.23,3.17" style="fill:none;stroke:#999;stroke-width:3" />
<path d="M917.5,17.75c0.56,0.56,0.89,1.34,1,2.39c0.37,3.24,0.97,8.31,1.11,10.03" style="fill:none;stroke:#999;stroke-width:3" />
<path d="M937.81,15.79c0.44,0.71,0.49,1.52,0.36,2.24c-0.79,4.44-1.53,7.83-2.19,10.85" style="fill:none;stroke:#999;stroke-width:3" />
<path d="M901.56,32.82c10.82-1.07,44.94-3.7,54.08-4" style="fill:none;stroke:#999;stroke-width:3" />
<path d="M900.34,44.27c1.62,0.34,4.57,0.15,6.19,0c14.21-1.27,29.84-3.14,44.2-3.97c2.7-0.16,4.31-0.1,5.65,0.03" style="fill:none;stroke:#999;stroke-width:3" />
<path d="M925.36,34.55c0.86,0.86,1.31,2.04,1.24,2.82c-0.35,3.89-1.1,7.39-2.13,14.62" style="fill:none;stroke:#999;stroke-width:3" />
<path d="M910.39,52.99c1.06,1.06,1.39,1.88,1.39,3.42c0,0.83,0.12,16.04,0.15,25.96c0.01,1.57,0.01,3,0.01,4.23" style="fill:none;stroke:#999;stroke-width:3" />
<path d="M912.8,54.38c3.37-0.22,26.81-3.12,29.91-3.36c2.43-0.19,4.14,1.11,4.14,3.68c0,1-0.3,13.62-0.38,23.93c-0.01,1.72-0.02,3.38-0.02,4.91" style="fill:none;stroke:black;stroke-width:3" />
<circle cx="912.8" cy="54.38" r="5" stroke-width="0" fill="#FF2A00" opacity="0.7" />
<path d="M1005.0,16.46c0.65,0.65,1.25,1.55,1.34,1.96c0.71,3.37,1.88,8.19,2.75,12.77c0.25,1.3,0.47,2.59,0.65,3.81" style="fill:none;stroke:#999;stroke-width:3" />
<path d="M1007.37,18.04c7.83-0.84,46.64-4.08,57.51-4.71c3.02-0.17,5.61,0.58,4.7,4.22c-0.62,2.44-1.73,5.73-3.25,9.73c-0.38,1.01-0.79,2.07-1.23,3.17" style="fill:none;stroke:#999;stroke-width:3" />
<path d="M1026.5,17.75c0.56,0.56,0.89,1.34,1,2.39c0.37,3.24,0.97,8.31,1.11,10.03" style="fill:none;stroke:#999;stroke-width:3" />
<path d="M1046.81,15.79c0.44,0.71,0.49,1.52,0.36,2.24c-0.79,4.44-1.53,7.83-2.19,10.85" style="fill:none;stroke:#999;stroke-width:3" />
<path d="M1010.56,32.82c10.82-1.07,44.94-3.7,54.08-4" style="fill:none;stroke:#999;stroke-width:3" />
<path d="M1009.34,44.27c1.62,0.34,4.57,0.15,6.19,0c14.21-1.27,29.84-3.14,44.2-3.97c2.7-0.16,4.31-0.1,5.65,0.03" style="fill:none;stroke:#999;stroke-width:3" />
<path d="M1034.3600000000001,34.55c0.86,0.86,1.31,2.04,1.24,2.82c-0.35,3.89-1.1,7.39-2.13,14.62" style="fill:none;stroke:#999;stroke-width:3" />
<path d="M1019.39,52.99c1.06,1.06,1.39,1.88,1.39,3.42c0,0.83,0.12,16.04,0.15,25.96c0.01,1.57,0.01,3,0.01,4.23" style="fill:none;stroke:#999;stroke-width:3" />
<path d="M1021.8,54.38c3.37-0.22,26.81-3.12,29.91-3.36c2.43-0.19,4.14,1.11,4.14,3.68c0,1-0.3,13.62-0.38,23.93c-0.01,1.72-0.02,3.38-0.02,4.91" style="fill:none;stroke:#999;stroke-width:3" />
<path d="M1021.93,64.05c8.07-0.8,27.25-3.06,32.49-3.21" style="fill:none;stroke:black;stroke-width:3" />
<circle cx="1021.93" cy="64.05" r="5" stroke-width="0" fill="#FF2A00" opacity="0.7" />
<path d="M1114.0,16.46c0.65,0.65,1.25,1.55,1.34,1.96c0.71,3.37,1.88,8.19,2.75,12.77c0.25,1.3,0.47,2.59,0.65,3.81" style="fill:none;stroke:#999;stroke-width:3" />
<path d="M1116.37,18.04c7.83-0.84,46.64-4.08,57.51-4.71c3.02-0.17,5.61,0.58,4.7,4.22c-0.62,2.44-1.73,5.73-3.25,9.73c-0.38,1.01-0.79,2.07-1.23,3.17" style="fill:none;stroke:#999;stroke-width:3" />
<path d="M1135.5,17.75c0.56,0.56,0.89,1.34,1,2.39c0.37,3.24,0.97,8.31,1.11,10.03" style="fill:none;stroke:#999;stroke-width:3" />
<path d="M1155.81,15.79c0.44,0.71,0.49,1.52,0.36,2.24c-0.79,4.44-1.53,7.83-2.19,10.85" style="fill:none;stroke:#999;stroke-width:3" />
<path d="M1119.56,32.82c10.82-1.07,44.94-3.7,54.08-4" style="fill:none;stroke:#999;stroke-width:3" />
<path d="M1118.3400000000001,44.27c1.62,0.34,4.57,0.15,6.19,0c14.21-1.27,29.84-3.14,44.2-3.97c2.7-0.16,4.31-0.1,5.65,0.03" style="fill:none;stroke:#999;stroke-width:3" />
<path d="M1143.3600000000001,34.55c0.86,0.86,1.31,2.04,1.24,2.82c-0.35,3.89-1.1,7.39-2.13,14.62" style="fill:none;stroke:#999;stroke-width:3" />
<path d="M1128.3899999999999,52.99c1.06,1.06,1.39,1.88,1.39,3.42c0,0.83,0.12,16.04,0.15,25.96c0.01,1.57,0.01,3,0.01,4.23" style="fill:none;stroke:#999;stroke-width:3" />
<path d="M1130.8,54.38c3.37-0.22,26.81-3.12,29.91-3.36c2.43-0.19,4.14,1.11,4.14,3.68c0,1-0.3,13.62-0.38,23.93c-0.01,1.72-0.02,3.38-0.02,4.91" style="fill:none;stroke:#999;stroke-width:3" />
<path d="M1130.9299999999998,64.05c8.07-0.8,27.25-3.06,32.49-3.21" style="fill:none;stroke:#999;stroke-width:3" />
<path d="M1131.2,73.79c9.3-1.04,23.05-2.66,32.35-3.1" style="fill:none;stroke:black;stroke-width:3" />
<circle cx="1131.2" cy="73.79" r="5" stroke-width="0" fill="#FF2A00" opacity="0.7" />
<path d="M1223.0,16.46c0.65,0.65,1.25,1.55,1.34,1.96c0.71,3.37,1.88,8.19,2.75,12.77c0.25,1.3,0.47,2.59,0.65,3.81" style="fill:none;stroke:#999;stroke-width:3" />
<path d="M1225.37,18.04c7.83-0.84,46.64-4.08,57.51-4.71c3.02-0.17,5.61,0.58,4.7,4.22c-0.62,2.44-1.73,5.73-3.25,9.73c-0.38,1.01-0.79,2.07-1.23,3.17" style="fill:none;stroke:#999;stroke-width:3" />
<path d="M1244.5,17.75c0.56,0.56,0.89,1.34,1,2.39c0.37,3.24,0.97,8.31,1.11,10.03" style="fill:none;stroke:#999;stroke-width:3" />
<path d="M1264.81,15.79c0.44,0.71,0.49,1.52,0.36,2.24c-0.79,4.44-1.53,7.83-2.19,10.85" style="fill:none;stroke:#999;stroke-width:3" />
<path d="M1228.56,32.82c10.82-1.07,44.94-3.7,54.08-4" style="fill:none;stroke:#999;stroke-width:3" />
<path d="M1227.3400000000001,44.27c1.62,0.34,4.57,0.15,6.19,0c14.21-1.27,29.84-3.14,44.2-3.97c2.7-0.16,4.31-0.1,5.65,0.03" style="fill:none;stroke:#999;stroke-width:3" />
<path d="M1252.3600000000001,34.55c0.86,0.86,1.31,2.04,1.24,2.82c-0.35,3.89-1.1,7.39-2.13,14.62" style="fill:none;stroke:#999;stroke-width:3" />
<path d="M1237.3899999999999,52.99c1.06,1.06,1.39,1.88,1.39,3.42c0,0.83,0.12,16.04,0.15,25.96c0.01,1.57,0.01,3,0.01,4.23" style="fill:none;stroke:#999;stroke-width:3" />
<path d="M1239.8,54.38c3.37-0.22,26.81-3.12,29.91-3.36c2.43-0.19,4.14,1.11,4.14,3.68c0,1-0.3,13.62-0.38,23.93c-0.01,1.72-0.02,3.38-0.02,4.91" style="fill:none;stroke:#999;stroke-width:3" />
<path d="M1239.9299999999998,64.05c8.07-0.8,27.25-3.06,32.49-3.21" style="fill:none;stroke:#999;stroke-width:3" />
<path d="M1240.2,73.79c9.3-1.04,23.05-2.66,32.35-3.1" style="fill:none;stroke:#999;stroke-width:3" />
<path d="M1240.1,83.9c5.95-0.53,27.96-3.03,32.25-3.15" style="fill:none;stroke:black;stroke-width:3" />
<circle cx="1240.1" cy="83.9" r="5" stroke-width="0" fill="#FF2A00" opacity="0.7" />
<path d="M1332.0,16.46c0.65,0.65,1.25,1.55,1.34,1.96c0.71,3.37,1.88,8.19,2.75,12.77c0.25,1.3,0.47,2.59,0.65,3.81" style="fill:none;stroke:#999;stroke-width:3" />
<path d="M1334.37,18.04c7.83-0.84,46.64-4.08,57.51-4.71c3.02-0.17,5.61,0.58,4.7,4.22c-0.62,2.44-1.73,5.73-3.25,9.73c-0.38,1.01-0.79,2.07-1.23,3.17" style="fill:none;stroke:#999;stroke-width:3" />
<path d="M1353.5,17.75c0.56,0.56,0.89,1.34,1,2.39c0.37,3.24,0.97,8.31,1.11,10.03" style="fill:none;stroke:#999;stroke-width:3" />
<path d="M1373.81,15.79c0.44,0.71,0.49,1.52,0.36,2.24c-0.79,4.44-1.53,7.83-2.19,10.85" style="fill:none;stroke:#999;stroke-width:3" />
<path d="M1337.56,32.82c10.82-1.07,44.94-3.7,54.08-4" style="fill:none;stroke:#999;stroke-width:3" />
<path d="M1336.3400000000001,44.27c1.62,0.34,4.57,0.15,6.19,0c14.21-1.27,29.84-3.14,44.2-3.97c2.7-0.16,4.31-0.1,5.65,0.03" style="fill:none;stroke:#999;stroke-width:3" />
<path d="M1361.3600000000001,34.55c0.86,0.86,1.31,2.04,1.24,2.82c-0.35,3.89-1.1,7.39-2.13,14.62" style="fill:none;stroke:#999;stroke-width:3" />
<path d="M1346.3899999999999,52.99c1.06,1.06,1.39,1.88,1.39,3.42c0,0.83,0.12,16.04,0.15,25.96c0.01,1.57,0.01,3,0.01,4.23" style="fill:none;stroke:#999;stroke-width:3" />
<path d="M1348.8,54.38c3.37-0.22,26.81-3.12,29.91-3.36c2.43-0.19,4.14,1.11,4.14,3.68c0,1-0.3,13.62-0.38,23.93c-0.01,1.72-0.02,3.38-0.02,4.91" style="fill:none;stroke:#999;stroke-width:3" />
<path d="M1348.9299999999998,64.05c8.07-0.8,27.25-3.06,32.49-3.21" style="fill:none;stroke:#999;stroke-width:3" />
<path d="M1349.2,73.79c9.3-1.04,23.05-2.66,32.35-3.1" style="fill:none;stroke:#999;stroke-width:3" />
<path d="M1349.1,83.9c5.95-0.53,27.96-3.03,32.25-3.15" style="fill:none;stroke:#999;stroke-width:3" />
<path d="M1329.78,64.8c0.99,0.92,1.49,2.53,1.49,4.43s-1.2,22.31-1.45,24.07c-0.32,2.2,0.68,3.07,3.22,2.75c20.28-2.61,43.09-3.67,61.29-3.8c2.72-0.02,5.19,0.42,7.17,0.93" style="fill:none;stroke:black;stroke-width:3" />
<circle cx="1329.78" cy="64.8" r="5" stroke-width="0" fill="#FF2A00" opacity="0.7" />
</svg>