<!-- 07f78 -->
<svg width="1635px" height="109px" viewBox="0 0 1635px 109px" xmlns="http://www.w3.org/2000/svg" xmlns:xlink="http://www.w3.org/1999/xlink" xml:space="preserve" version="1.1"  baseProfile="full">
<line x1="1" y1="1" x2="1634" y2="1" style="stroke:#ddd;stroke-width:2" />
<line x1="1" y1="1" x2="1" y2="108" style="stroke:#ddd;stroke-width:2" />
<line x1="1" y1="108" x2="1634" y2="108" style="stroke:#ddd;stroke-width:2" />
<line x1="1634" y1="1" x2="1634" y2="108" style="stroke:#ddd;stroke-width:2" />
<line x1="109" y1="1" x2="109" y2="108" style="stroke:#ddd;stroke-width:2" />
<line x1="218" y1="1" x2="218" y2="108" style="stroke:#ddd;stroke-width:2" />
<line x1="327" y1="1" x2="327" y2="108" style="stroke:#ddd;stroke-width:2" />
<line x1="436" y1="1" x2="436" y2="108" style="stroke:#ddd;stroke-width:2" />
<line x1="545" y1="1" x2="545" y2="108" style="stroke:#ddd;stroke-width:2" />
<line x1="654" y1="1" x2="654" y2="108" style="stroke:#ddd;stroke-width:2" />
<line x1="763" y1="1" x2="763" y2="108" style="stroke:#ddd;stroke-width:2" />
<line x1="872" y1="1" x2="872" y2="108" style="stroke:#ddd;stroke-width:2" />
<line x1="981" y1="1" x2="981" y2="108" style="stroke:#ddd;stroke-width:2" />
<line x1="1090" y1="1" x2="1090" y2="108" style="stroke:#ddd;stroke-width:2" />
<line x1="1199" y1="1" x2="1199" y2="108" style="stroke:#ddd;stroke-width:2" />
<line x1="1308" y1="1" x2="1308" y2="108" style="stroke:#ddd;stroke-width:2" />
<line x1="1417" y1="1" x2="1417" y2="108" style="stroke:#ddd;stroke-width:2" />
<line x1="1526" y1="1" x2="1526" y2="108" style="stroke:#ddd;stroke-width:2" />
<line x1="1" y1="54" x2="1634" y2="54" style="stroke:#ddd;stroke-width:2;stroke-dasharray:3 3" />
<line x1="55" y1="1" x2="55" y2="108" style="stroke:#ddd;stroke-width:2;stroke-dasharray:3 3" />
<line x1="164" y1="1" x2="164" y2="108" style="stroke:#ddd;stroke-width:2;stroke-dasharray:3 3" />
<line x1="273" y1="1" x2="273" y2="108" style="stroke:#ddd;stroke-width:2;stroke-dasharray:3 3" />
<line x1="382" y1="1" x2="382" y2="108" style="stroke:#ddd;stroke-width:2;stroke-dasharray:3 3" />
<line x1="491" y1="1" x2="491" y2="108" style="stroke:#ddd;stroke-width:2;stroke-dasharray:3 3" />
<line x1="600" y1="1" x2="600" y2="108" style="stroke:#ddd;stroke-width:2;stroke-dasharray:3 3" />
<line x1="709" y1="1" x2="709" y2="108" style="stroke:#ddd;stroke-width:2;stroke-dasharray:3 3" />
<line x1="818" y1="1" x2="818" y2="108" style="stroke:#ddd;stroke-width:2;stroke-dasharray:3 3" />
<line x1="927" y1="1" x2="927" y2="108" style="stroke:#ddd;stroke-width:2;stroke-dasharray:3 3" />
<line x1="1036" y1="1" x2="1036" y2="108" style="stroke:#ddd;stroke-width:2;stroke-dasharray:3 3" />
<line x1="1145" y1="1" x2="1145" y2="108" style="stroke:#ddd;stroke-width:2;stroke-dasharray:3 3" />
<line x1="1254" y1="1" x2="1254" y2="108" style="stroke:#ddd;stroke-width:2;stroke-dasharray:3 3" />
<line x1="1363" y1="1" x2="1363" y2="108" style="stroke:#ddd;stroke-width:2;stroke-dasharray:3 3" />
<line x1="1472" y1="1" x2="1472" y2="108" style="stroke:#ddd;stroke-width:2;stroke-dasharray:3 3" />
<line x1="1581" y1="1" x2="1581" y2="108" style="stroke:#ddd;stroke-width:2;stroke-dasharray:3 3" />
<path d="M22.49,15.07c0.29,0.25,0.58,0.46,0.7,0.78c0.99,2.52,3.08,11.87,3.75,16.4" style="fill:none;stroke:black;stroke-width:3" />
<circle cx="22.49" cy="15.07" r="5" stroke-width="0" fill="#FF2A00" opacity="0.7" />
<path d="M131.49,15.07c0.29,0.25,0.58,0.46,0.7,0.78c0.99,2.52,3.08,11.87,3.75,16.4" style="fill:none;stroke:#999;stroke-width:3" />
<path d="M133.22,16.86c5.87-0.79,57.48-3.78,60.16-4.13c0.98-0.13,2.3,0.89,2.04,2.38c-0.55,3.1-1.89,8.85-3.35,13.27" style="fill:none;stroke:black;stroke-width:3" />
<circle cx="133.22" cy="16.86" r="5" stroke-width="0" fill="#FF2A00" opacity="0.7" />
<path d="M240.49,15.07c0.29,0.25,0.58,0.46,0.7,0.78c0.99,2.52,3.08,11.87,3.75,16.4" style="fill:none;stroke:#999;stroke-width:3" />
<path d="M242.22,16.86c5.87-0.79,57.48-3.78,60.16-4.13c0.98-0.13,2.3,0.89,2.04,2.38c-0.55,3.1-1.89,8.85-3.35,13.27" style="fill:none;stroke:#999;stroke-width:3" />
<path d="M261.26,15.86c0.15,1.76,1.23,9.86,1.39,11.83" style="fill:none;stroke:black;stroke-width:3" />
<circle cx="261.26" cy="15.86" r="5" stroke-width="0" fill="#FF2A00" opacity="0.7" />
<path d="M349.49,15.07c0.29,0.25,0.58,0.46,0.7,0.78c0.99,2.52,3.08,11.87,3.75,16.4" style="fill:none;stroke:#999;stroke-width:3" />
<path d="M351.22,16.86c5.87-0.79,57.48-3.78,60.16-4.13c0.98-0.13,2.3,0.89,2.04,2.38c-0.55,3.1-1.89,8.85-3.35,13.27" style="fill:none;stroke:#999;stroke-width:3" />
<path d="M370.26,15.86c0.15,1.76,1.23,9.86,1.39,11.83" style="fill:none;stroke:#999;stroke-width:3" />
<path d="M391.29,14.29c-0.15,2.86-0.92,10.33-1.23,12.09" style="fill:none;stroke:black;stroke-width:3" />
<circle cx="391.29" cy="14.29" r="5" stroke-width="0" fill="#FF2A00" opacity="0.7" />
<path d="M458.49,15.07c0.29,0.25,0.58,0.46,0.7,0.78c0.99,2.52,3.08,11.87,3.75,16.4" style="fill:none;stroke:#999;stroke-width:3" />
<path d="M460.22,16.86c5.87-0.79,57.48-3.78,60.16-4.13c0.98-0.13,2.3,0.89,2.04,2.38c-0.55,3.1-1.89,8.85-3.35,13.27" style="fill:none;stroke:#999;stroke-width:3" />
<path d="M479.26,15.86c0.15,1.76,1.23,9.86,1.39,11.83" style="fill:none;stroke:#999;stroke-width:3" />
<path d="M500.29,14.29c-0.15,2.86-0.92,10.33-1.23,12.09" style="fill:none;stroke:#999;stroke-width:3" />
<path d="M462.94,30.54c5.06-0.29,49.81-3.29,55.98-3.72" style="fill:none;stroke:black;stroke-width:3" />
<circle cx="462.94" cy="30.54" r="5" stroke-width="0" fill="#FF2A00" opacity="0.7" />
<path d="M567.49,15.07c0.29,0.25,0.58,0.46,0.7,0.78c0.99,2.52,3.08,11.87,3.75,16.4" style="fill:none;stroke:#999;stroke-width:3" />
<path d="M569.22,16.86c5.87-0.79,57.48-3.78,60.16-4.13c0.98-0.13,2.3,0.89,2.04,2.38c-0.55,3.1-1.89,8.85-3.35,13.27" style="fill:none;stroke:#999;stroke-width:3" />
<path d="M588.26,15.86c0.15,1.76,1.23,9.86,1.39,11.83" style="fill:none;stroke:#999;stroke-width:3" />
<path d="M609.29,14.29c-0.15,2.86-0.92,10.33-1.23,12.09" style="fill:none;stroke:#999;stroke-width:3" />
<path d="M571.94,30.54c5.06-0.29,49.81-3.29,55.98-3.72" style="fill:none;stroke:#999;stroke-width:3" />
<path d="M571.54,36.75c3.25,1.46,8.39,5.98,9.21,8.25" style="fill:none;stroke:black;stroke-width:3" />
<circle cx="571.54" cy="36.75" r="5" stroke-width="0" fill="#FF2A00" opacity="0.7" />
<path d="M676.49,15.07c0.29,0.25,0.58,0.46,0.7,0.78c0.99,2.52,3.08,11.87,3.75,16.4" style="fill:none;stroke:#999;stroke-width:3" />
<path d="M678.22,16.86c5.87-0.79,57.48-3.78,60.16-4.13c0.98-0.13,2.3,0.89,2.04,2.38c-0.55,3.1-1.89,8.85-3.35,13.27" style="fill:none;stroke:#999;stroke-width:3" />
<path d="M697.26,15.86c0.15,1.76,1.23,9.86,1.39,11.83" style="fill:none;stroke:#999;stroke-width:3" />
<path d="M718.29,14.29c-0.15,2.86-0.92,10.33-1.23,12.09" style="fill:none;stroke:#999;stroke-width:3" />
<path d="M680.94,30.54c5.06-0.29,49.81-3.29,55.98-3.72" style="fill:none;stroke:#999;stroke-width:3" />
<path d="M680.54,36.75c3.25,1.46,8.39,5.98,9.21,8.25" style="fill:none;stroke:#999;stroke-width:3" />
<path d="M667.74,52.56c0.71,0.25,3.43,0.34,4.14,0.25c9.88-1.31,21.16-3.37,27.56-3.59c1.19-0.04,2.97,0.12,3.57,0.24" style="fill:none;stroke:black;stroke-width:3" />
<circle cx="667.74" cy="52.56" r="5" stroke-width="0" fill="#FF2A00" opacity="0.7" />
<path d="M785.49,15.07c0.29,0.25,0.58,0.46,0.7,0.78c0.99,2.52,3.08,11.87,3.75,16.4" style="fill:none;stroke:#999;stroke-width:3" />
<path d="M787.22,16.86c5.87-0.79,57.48-3.78,60.16-4.13c0.98-0.13,2.3,0.89,2.04,2.38c-0.55,3.1-1.89,8.85-3.35,13.27" style="fill:none;stroke:#999;stroke-width:3" />
<path d="M806.26,15.86c0.15,1.76,1.23,9.86,1.39,11.83" style="fill:none;stroke:#999;stroke-width:3" />
<path d="M827.29,14.29c-0.15,2.86-0.92,10.33-1.23,12.09" style="fill:none;stroke:#999;stroke-width:3" />
<path d="M789.94,30.54c5.06-0.29,49.81-3.29,55.98-3.72" style="fill:none;stroke:#999;stroke-width:3" />
<path d="M789.54,36.75c3.25,1.46,8.39,5.98,9.21,8.25" style="fill:none;stroke:#999;stroke-width:3" />
<path d="M776.74,52.56c0.71,0.25,3.43,0.34,4.14,0.25c9.88-1.31,21.16-3.37,27.56-3.59c1.19-0.04,2.97,0.12,3.57,0.24" style="fill:none;stroke:#999;stroke-width:3" />
<path d="M784.91,60.77c0.42,0.11,2.95,0.12,3.37,0.11c4.32-0.12,10.6-1.81,14.96-2.37c0.68-0.09,3.58,0.05,3.93,0.11" style="fill:none;stroke:black;stroke-width:3" />
<circle cx="784.91" cy="60.77" r="5" stroke-width="0" fill="#FF2A00" opacity="0.7" />
<path d="M894.49,15.07c0.29,0.25,0.58,0.46,0.7,0.78c0.99,2.52,3.08,11.87,3.75,16.4" style="fill:none;stroke:#999;stroke-width:3" />
<path d="M896.22,16.86c5.87-0.79,57.48-3.78,60.16-4.13c0.98-0.13,2.3,0.89,2.04,2.38c-0.55,3.1-1.89,8.85-3.35,13.27" style="fill:none;stroke:#999;stroke-width:3" />
<path d="M915.26,15.86c0.15,1.76,1.23,9.86,1.39,11.83" style="fill:none;stroke:#999;stroke-width:3" />
<path d="M936.29,14.29c-0.15,2.86-0.92,10.33-1.23,12.09" style="fill:none;stroke:#999;stroke-width:3" />
<path d="M898.94,30.54c5.06-0.29,49.81-3.29,55.98-3.72" style="fill:none;stroke:#999;stroke-width:3" />
<path d="M898.54,36.75c3.25,1.46,8.39,5.98,9.21,8.25" style="fill:none;stroke:#999;stroke-width:3" />
<path d="M885.74,52.56c0.71,0.25,3.43,0.34,4.14,0.25c9.88-1.31,21.16-3.37,27.56-3.59c1.19-0.04,2.97,0.12,3.57,0.24" style="fill:none;stroke:#999;stroke-width:3" />
<path d="M893.91,60.77c0.42,0.11,2.95,0.12,3.37,0.11c4.32-0.12,10.6-1.81,14.96-2.37c0.68-0.09,3.58,0.05,3.93,0.11" style="fill:none;stroke:#999;stroke-width:3" />
<path d="M894.52,70.7c0.33,0.09,2.39,0.1,2.72,0.09c3.49-0.1,12.11-2.25,15.55-2.24c0.56,0,2.89,0.04,3.17,0.09" style="fill:none;stroke:black;stroke-width:3" />
<circle cx="894.52" cy="70.7" r="5" stroke-width="0" fill="#FF2A00" opacity="0.7" />
<path d="M1003.49,15.07c0.29,0.25,0.58,0.46,0.7,0.78c0.99,2.52,3.08,11.87,3.75,16.4" style="fill:none;stroke:#999;stroke-width:3" />
<path d="M1005.22,16.86c5.87-0.79,57.48-3.78,60.16-4.13c0.98-0.13,2.3,0.89,2.04,2.38c-0.55,3.1-1.89,8.85-3.35,13.27" style="fill:none;stroke:#999;stroke-width:3" />
<path d="M1024.26,15.86c0.15,1.76,1.23,9.86,1.39,11.83" style="fill:none;stroke:#999;stroke-width:3" />
<path d="M1045.29,14.29c-0.15,2.86-0.92,10.33-1.23,12.09" style="fill:none;stroke:#999;stroke-width:3" />
<path d="M1007.94,30.54c5.06-0.29,49.81-3.29,55.98-3.72" style="fill:none;stroke:#999;stroke-width:3" />
<path d="M1007.54,36.75c3.25,1.46,8.39,5.98,9.21,8.25" style="fill:none;stroke:#999;stroke-width:3" />
<path d="M994.74,52.56c0.71,0.25,3.43,0.34,4.14,0.25c9.88-1.31,21.16-3.37,27.56-3.59c1.19-0.04,2.97,0.12,3.57,0.24" style="fill:none;stroke:#999;stroke-width:3" />
<path d="M1002.91,60.77c0.42,0.11,2.95,0.12,3.37,0.11c4.32-0.12,10.6-1.81,14.96-2.37c0.68-0.09,3.58,0.05,3.93,0.11" style="fill:none;stroke:#999;stroke-width:3" />
<path d="M1003.52,70.7c0.33,0.09,2.39,0.1,2.72,0.09c3.49-0.1,12.11-2.25,15.55-2.24c0.56,0,2.89,0.04,3.17,0.09" style="fill:none;stroke:#999;stroke-width:3" />
<path d="M1001.55,80.04c0.47,0.28,1.01,0.9,1.16,1.27c1.35,3.28,3.04,11.34,4.4,16.16" style="fill:none;stroke:black;stroke-width:3" />
<circle cx="1001.55" cy="80.04" r="5" stroke-width="0" fill="#FF2A00" opacity="0.7" />
<path d="M1112.49,15.07c0.29,0.25,0.58,0.46,0.7,0.78c0.99,2.52,3.08,11.87,3.75,16.4" style="fill:none;stroke:#999;stroke-width:3" />
<path d="M1114.22,16.86c5.87-0.79,57.48-3.78,60.16-4.13c0.98-0.13,2.3,0.89,2.04,2.38c-0.55,3.1-1.89,8.85-3.35,13.27" style="fill:none;stroke:#999;stroke-width:3" />
<path d="M1133.26,15.86c0.15,1.76,1.23,9.86,1.39,11.83" style="fill:none;stroke:#999;stroke-width:3" />
<path d="M1154.29,14.29c-0.15,2.86-0.92,10.33-1.23,12.09" style="fill:none;stroke:#999;stroke-width:3" />
<path d="M1116.94,30.54c5.06-0.29,49.81-3.29,55.98-3.72" style="fill:none;stroke:#999;stroke-width:3" />
<path d="M1116.54,36.75c3.25,1.46,8.39,5.98,9.21,8.25" style="fill:none;stroke:#999;stroke-width:3" />
<path d="M1103.74,52.56c0.71,0.25,3.43,0.34,4.14,0.25c9.88-1.31,21.16-3.37,27.56-3.59c1.19-0.04,2.97,0.12,3.57,0.24" style="fill:none;stroke:#999;stroke-width:3" />
<path d="M1111.9099999999999,60.77c0.42,0.11,2.95,0.12,3.37,0.11c4.32-0.12,10.6-1.81,14.96-2.37c0.68-0.09,3.58,0.05,3.93,0.11" style="fill:none;stroke:#999;stroke-width:3" />
<path d="M1112.52,70.7c0.33,0.09,2.39,0.1,2.72,0.09c3.49-0.1,12.11-2.25,15.55-2.24c0.56,0,2.89,0.04,3.17,0.09" style="fill:none;stroke:#999;stroke-width:3" />
<path d="M1110.55,80.04c0.47,0.28,1.01,0.9,1.16,1.27c1.35,3.28,3.04,11.34,4.4,16.16" style="fill:none;stroke:#999;stroke-width:3" />
<path d="M1112.81,81.15c7.05-0.67,14.09-1.96,20.69-2.65c1.64-0.17,2.63,0.78,2.4,1.56c-0.98,3.22-1.34,6.79-3.07,12.15" style="fill:none;stroke:black;stroke-width:3" />
<circle cx="1112.81" cy="81.15" r="5" stroke-width="0" fill="#FF2A00" opacity="0.7" />
<path d="M1221.49,15.07c0.29,0.25,0.58,0.46,0.7,0.78c0.99,2.52,3.08,11.87,3.75,16.4" style="fill:none;stroke:#999;stroke-width:3" />
<path d="M1223.22,16.86c5.87-0.79,57.48-3.78,60.16-4.13c0.98-0.13,2.3,0.89,2.04,2.38c-0.55,3.1-1.89,8.85-3.35,13.27" style="fill:none;stroke:#999;stroke-width:3" />
<path d="M1242.26,15.86c0.15,1.76,1.23,9.86,1.39,11.83" style="fill:none;stroke:#999;stroke-width:3" />
<path d="M1263.29,14.29c-0.15,2.86-0.92,10.33-1.23,12.09" style="fill:none;stroke:#999;stroke-width:3" />
<path d="M1225.94,30.54c5.06-0.29,49.81-3.29,55.98-3.72" style="fill:none;stroke:#999;stroke-width:3" />
<path d="M1225.54,36.75c3.25,1.46,8.39,5.98,9.21,8.25" style="fill:none;stroke:#999;stroke-width:3" />
<path d="M1212.74,52.56c0.71,0.25,3.43,0.34,4.14,0.25c9.88-1.31,21.16-3.37,27.56-3.59c1.19-0.04,2.97,0.12,3.57,0.24" style="fill:none;stroke:#999;stroke-width:3" />
<path d="M1220.9099999999999,60.77c0.42,0.11,2.95,0.12,3.37,0.11c4.32-0.12,10.6-1.81,14.96-2.37c0.68-0.09,3.58,0.05,3.93,0.11" style="fill:none;stroke:#999;stroke-width:3" />
<path d="M1221.52,70.7c0.33,0.09,2.39,0.1,2.72,0.09c3.49-0.1,12.11-2.25,15.55-2.24c0.56,0,2.89,0.04,3.17,0.09" style="fill:none;stroke:#999;stroke-width:3" />
<path d="M1219.55,80.04c0.47,0.28,1.01,0.9,1.16,1.27c1.35,3.28,3.04,11.34,4.4,16.16" style="fill:none;stroke:#999;stroke-width:3" />
<path d="M1221.81,81.15c7.05-0.67,14.09-1.96,20.69-2.65c1.64-0.17,2.63,0.78,2.4,1.56c-0.98,3.22-1.34,6.79-3.07,12.15" style="fill:none;stroke:#999;stroke-width:3" />
<path d="M1225.39,94.06c5.27-0.41,11.98-1.24,19.22-1.87" style="fill:none;stroke:black;stroke-width:3" />
<circle cx="1225.39" cy="94.06" r="5" stroke-width="0" fill="#FF2A00" opacity="0.7" />
<path d="M1330.49,15.07c0.29,0.25,0.58,0.46,0.7,0.78c0.99,2.52,3.08,11.87,3.75,16.4" style="fill:none;stroke:#999;stroke-width:3" />
<path d="M1332.22,16.86c5.87-0.79,57.48-3.78,60.16-4.13c0.98-0.13,2.3,0.89,2.04,2.38c-0.55,3.1-1.89,8.85-3.35,13.27" style="fill:none;stroke:#999;stroke-width:3" />
<path d="M1351.26,15.86c0.15,1.76,1.23,9.86,1.39,11.83" style="fill:none;stroke:#999;stroke-width:3" />
<path d="M1372.29,14.29c-0.15,2.86-0.92,10.33-1.23,12.09" style="fill:none;stroke:#999;stroke-width:3" />
<path d="M1334.94,30.54c5.06-0.29,49.81-3.29,55.98-3.72" style="fill:none;stroke:#999;stroke-width:3" />
<path d="M1334.54,36.75c3.25,1.46,8.39,5.98,9.21,8.25" style="fill:none;stroke:#999;stroke-width:3" />
<path d="M1321.74,52.56c0.71,0.25,3.43,0.34,4.14,0.25c9.88-1.31,21.16-3.37,27.56-3.59c1.19-0.04,2.97,0.12,3.57,0.24" style="fill:none;stroke:#999;stroke-width:3" />
<path d="M1329.9099999999999,60.77c0.42,0.11,2.95,0.12,3.37,0.11c4.32-0.12,10.6-1.81,14.96-2.37c0.68-0.09,3.58,0.05,3.93,0.11" style="fill:none;stroke:#999;stroke-width:3" />
<path d="M1330.52,70.7c0.33,0.09,2.39,0.1,2.72,0.09c3.49-0.1,12.11-2.25,15.55-2.24c0.56,0,2.89,0.04,3.17,0.09" style="fill:none;stroke:#999;stroke-width:3" />
<path d="M1328.55,80.04c0.47,0.28,1.01,0.9,1.16,1.27c1.35,3.28,3.04,11.34,4.4,16.16" style="fill:none;stroke:#999;stroke-width:3" />
<path d="M1330.81,81.15c7.05-0.67,14.09-1.96,20.69-2.65c1.64-0.17,2.63,0.78,2.4,1.56c-0.98,3.22-1.34,6.79-3.07,12.15" style="fill:none;stroke:#999;stroke-width:3" />
<path d="M1334.39,94.06c5.27-0.41,11.98-1.24,19.22-1.87" style="fill:none;stroke:#999;stroke-width:3" />
<path d="M1363.75,49.19c0.99,0.38,2.8,0.47,3.8,0.38c10.98-1.05,18.78-2.74,30.87-3.31c1.65-0.08,2.64,0.18,3.47,0.37" style="fill:none;stroke:black;stroke-width:3" />
<circle cx="1363.75" cy="49.19" r="5" stroke-width="0" fill="#FF2A00" opacity="0.7" />
<path d="M1439.49,15.07c0.29,0.25,0.58,0.46,0.7,0.78c0.99,2.52,3.08,11.87,3.75,16.4" style="fill:none;stroke:#999;stroke-width:3" />
<path d="M1441.22,16.86c5.87-0.79,57.48-3.78,60.16-4.13c0.98-0.13,2.3,0.89,2.04,2.38c-0.55,3.1-1.89,8.85-3.35,13.27" style="fill:none;stroke:#999;stroke-width:3" />
<path d="M1460.26,15.86c0.15,1.76,1.23,9.86,1.39,11.83" style="fill:none;stroke:#999;stroke-width:3" />
<path d="M1481.29,14.29c-0.15,2.86-0.92,10.33-1.23,12.09" style="fill:none;stroke:#999;stroke-width:3" />
<path d="M1443.94,30.54c5.06-0.29,49.81-3.29,55.98-3.72" style="fill:none;stroke:#999;stroke-width:3" />
<path d="M1443.54,36.75c3.25,1.46,8.39,5.98,9.21,8.25" style="fill:none;stroke:#999;stroke-width:3" />
<path d="M1430.74,52.56c0.71,0.25,3.43,0.34,4.14,0.25c9.88-1.31,21.16-3.37,27.56-3.59c1.19-0.04,2.97,0.12,3.57,0.24" style="fill:none;stroke:#999;stroke-width:3" />
<path d="M1438.9099999999999,60.77c0.42,0.11,2.95,0.12,3.37,0.11c4.32-0.12,10.6-1.81,14.96-2.37c0.68-0.09,3.58,0.05,3.93,0.11" style="fill:none;stroke:#999;stroke-width:3" />
<path d="M1439.52,70.7c0.33,0.09,2.39,0.1,2.72,0.09c3.49-0.1,12.11-2.25,15.55-2.24c0.56,0,2.89,0.04,3.17,0.09" style="fill:none;stroke:#999;stroke-width:3" />
<path d="M1437.55,80.04c0.47,0.28,1.01,0.9,1.16,1.27c1.35,3.28,3.04,11.34,4.4,16.16" style="fill:none;stroke:#999;stroke-width:3" />
<path d="M1439.81,81.15c7.05-0.67,14.09-1.96,20.69-2.65c1.64-0.17,2.63,0.78,2.4,1.56c-0.98,3.22-1.34,6.79-3.07,12.15" style="fill:none;stroke:#999;stroke-width:3" />
<path d="M1443.39,94.06c5.27-0.41,11.98-1.24,19.22-1.87" style="fill:none;stroke:#999;stroke-width:3" />
<path d="M1472.75,49.19c0.99,0.38,2.8,0.47,3.8,0.38c10.98-1.05,18.78-2.74,30.87-3.31c1.65-0.08,2.64,0.18,3.47,0.37" style="fill:none;stroke:#999;stroke-width:3" />
<path d="M1494.64,32.97c1.7,1.06,2.37,1.9,2.37,4.12c0,15.23-0.27,47.9-0.27,51.6c0,8.98-7.4,1.33-9.71,0.19" style="fill:none;stroke:black;stroke-width:3" />
<circle cx="1494.64" cy="32.97" r="5" stroke-width="0" fill="#FF2A00" opacity="0.7" />
<path d="M1548.49,15.07c0.29,0.25,0.58,0.46,0.7,0.78c0.99,2.52,3.08,11.87,3.75,16.4" style="fill:none;stroke:#999;stroke-width:3" />
<path d="M1550.22,16.86c5.87-0.79,57.48-3.78,60.16-4.13c0.98-0.13,2.3,0.89,2.04,2.38c-0.55,3.1-1.89,8.85-3.35,13.27" style="fill:none;stroke:#999;stroke-width:3" />
<path d="M1569.26,15.86c0.15,1.76,1.23,9.86,1.39,11.83" style="fill:none;stroke:#999;stroke-width:3" />
<path d="M1590.29,14.29c-0.15,2.86-0.92,10.33-1.23,12.09" style="fill:none;stroke:#999;stroke-width:3" />
<path d="M1552.94,30.54c5.06-0.29,49.81-3.29,55.98-3.72" style="fill:none;stroke:#999;stroke-width:3" />
<path d="M1552.54,36.75c3.25,1.46,8.39,5.98,9.21,8.25" style="fill:none;stroke:#999;stroke-width:3" />
<path d="M1539.74,52.56c0.71,0.25,3.43,0.34,4.14,0.25c9.88-1.31,21.16-3.37,27.56-3.59c1.19-0.04,2.97,0.12,3.57,0.24" style="fill:none;stroke:#999;stroke-width:3" />
<path d="M1547.9099999999999,60.77c0.42,0.11,2.95,0.12,3.37,0.11c4.32-0.12,10.6-1.81,14.96-2.37c0.68-0.09,3.58,0.05,3.93,0.11" style="fill:none;stroke:#999;stroke-width:3" />
<path d="M1548.52,70.7c0.33,0.09,2.39,0.1,2.72,0.09c3.49-0.1,12.11-2.25,15.55-2.24c0.56,0,2.89,0.04,3.17,0.09" style="fill:none;stroke:#999;stroke-width:3" />
<path d="M1546.55,80.04c0.47,0.28,1.01,0.9,1.16,1.27c1.35,3.28,3.04,11.34,4.4,16.16" style="fill:none;stroke:#999;stroke-width:3" />
<path d="M1548.81,81.15c7.05-0.67,14.09-1.96,20.69-2.65c1.64-0.17,2.63,0.78,2.4,1.56c-0.98,3.22-1.34,6.79-3.07,12.15" style="fill:none;stroke:#999;stroke-width:3" />
<path d="M1552.39,94.06c5.27-0.41,11.98-1.24,19.22-1.87" style="fill:none;stroke:#999;stroke-width:3" />
<path d="M1581.75,49.19c0.99,0.38,2.8,0.47,3.8,0.38c10.98-1.05,18.78-2.74,30.87-3.31c1.65-0.08,2.64,0.18,3.47,0.37" style="fill:none;stroke:#999;stroke-width:3" />
<path d="M1603.64,32.97c1.7,1.06,2.37,1.9,2.37,4.12c0,15.23-0.27,47.9-0.27,51.6c0,8.98-7.4,1.33-9.71,0.19" style="fill:none;stroke:#999;stroke-width:3" />
<path d="M1585.0,59c2.78,2.15,7.18,8.86,7.87,12.21" style="fill:none;stroke:black;stroke-width:3" />
<circle cx="1585.0" cy="59.0" r="5" stroke-width="0" fill="#FF2A00" opacity="0.7" />
</svg>