<!-- 08028 -->
<svg width="1744px" height="109px" viewBox="0 0 1744px 109px" xmlns="http://www.w3.org/2000/svg" xmlns:xlink="http://www.w3.org/1999/xlink" xml:space="preserve" version="1.1"  baseProfile="full">
<line x1="1" y1="1" x2="1743" y2="1" style="stroke:#ddd;stroke-width:2" />
<line x1="1" y1="1" x2="1" y2="108" style="stroke:#ddd;stroke-width:2" />
<line x1="1" y1="108" x2="1743" y2="108" style="stroke:#ddd;stroke-width:2" />
<line x1="1743" y1="1" x2="1743" y2="108" style="stroke:#ddd;stroke-width:2" />
<line x1="109" y1="1" x2="109" y2="108" style="stroke:#ddd;stroke-width:2" />
<line x1="218" y1="1" x2="218" y2="108" style="stroke:#ddd;stroke-width:2" />
<line x1="327" y1="1" x2="327" y2="108" style="stroke:#ddd;stroke-width:2" />
<line x1="436" y1="1" x2="436" y2="108" style="stroke:#ddd;stroke-width:2" />
<line x1="545" y1="1" x2="545" y2="108" style="stroke:#ddd;stroke-width:2" />
<line x1="654" y1="1" x2="654" y2="108" style="stroke:#ddd;stroke-width:2" />
<line x1="763" y1="1" x2="763" y2="108" style="stroke:#ddd;stroke-width:2" />
<line x1="872" y1="1" x2="872" y2="108" style="stroke:#ddd;stroke-width:2" />
<line x1="981" y1="1" x2="981" y2="108" style="stroke:#ddd;stroke-width:2" />
<line x1="1090" y1="1" x2="1090" y2="108" style="stroke:#ddd;stroke-width:2" />
<line x1="1199" y1="1" x2="1199" y2="108" style="stroke:#ddd;stroke-width:2" />
<line x1="1308" y1="1" x2="1308" y2="108" style="stroke:#ddd;stroke-width:2" />
<line x1="1417" y1="1" x2="1417" y2="108" style="stroke:#ddd;stroke-width:2" />
<line x1="1526" y1="1" x2="1526" y2="108" style="stroke:#ddd;stroke-width:2" />
<line x1="1635" y1="1" x2="1635" y2="108" style="stroke:#ddd;stroke-width:2" />
<line x1="1" y1="54" x2="1743" y2="54" style="stroke:#ddd;stroke-width:2;stroke-dasharray:3 3" />
<line x1="55" y1="1" x2="55" y2="108" style="stroke:#ddd;stroke-width:2;stroke-dasharray:3 3" />
<line x1="164" y1="1" x2="164" y2="108" style="stroke:#ddd;stroke-width:2;stroke-dasharray:3 3" />
<line x1="273" y1="1" x2="273" y2="108" style="stroke:#ddd;stroke-width:2;stroke-dasharray:3 3" />
<line x1="382" y1="1" x2="382" y2="108" style="stroke:#ddd;stroke-width:2;stroke-dasharray:3 3" />
<line x1="491" y1="1" x2="491" y2="108" style="stroke:#ddd;stroke-width:2;stroke-dasharray:3 3" />
<line x1="600" y1="1" x2="600" y2="108" style="stroke:#ddd;stroke-width:2;stroke-dasharray:3 3" />
<line x1="709" y1="1" x2="709" y2="108" style="stroke:#ddd;stroke-width:2;stroke-dasharray:3 3" />
<line x1="818" y1="1" x2="818" y2="108" style="stroke:#ddd;stroke-width:2;stroke-dasharray:3 3" />
<line x1="927" y1="1" x2="927" y2="108" style="stroke:#ddd;stroke-width:2;stroke-dasharray:3 3" />
<line x1="1036" y1="1" x2="1036" y2="108" style="stroke:#ddd;stroke-width:2;stroke-dasharray:3 3" />
<line x1="1145" y1="1" x2="1145" y2="108" style="stroke:#ddd;stroke-width:2;stroke-dasharray:3 3" />
<line x1="1254" y1="1" x2="1254" y2="108" style="stroke:#ddd;stroke-width:2;stroke-dasharray:3 3" />
<line x1="1363" y1="1" x2="1363" y2="108" style="stroke:#ddd;stroke-width:2;stroke-dasharray:3 3" />
<line x1="1472" y1="1" x2="1472" y2="108" style="stroke:#ddd;stroke-width:2;stroke-dasharray:3 3" />
<line x1="1581" y1="1" x2="1581" y2="108" style="stroke:#ddd;stroke-width:2;stroke-dasharray:3 3" />
<line x1="1690" y1="1" x2="1690" y2="108" style="stroke:#ddd;stroke-width:2;stroke-dasharray:3 3" />
<path d="M41.75,19.75c0.25,1-0.17,1.48-0.64,1.78C34.0,26 24.25,30 15.0,32.75" style="fill:none;stroke:black;stroke-width:3" />
<circle cx="41.75" cy="19.75" r="5" stroke-width="0" fill="#FF2A00" opacity="0.7" />
<path d="M150.75,19.75c0.25,1-0.17,1.48-0.64,1.78C143.0,26 133.25,30 124.0,32.75" style="fill:none;stroke:#999;stroke-width:3" />
<path d="M122.47,40.61c0.51,0.34,3.94,0.94,4.46,0.91c5.31-0.39,15.08-2.08,23.5-3.45c0.84-0.14,2.36,0.16,2.79,0.33" style="fill:none;stroke:black;stroke-width:3" />
<circle cx="122.47" cy="40.61" r="5" stroke-width="0" fill="#FF2A00" opacity="0.7" />
<path d="M259.75,19.75c0.25,1-0.17,1.48-0.64,1.78C252.0,26 242.25,30 233.0,32.75" style="fill:none;stroke:#999;stroke-width:3" />
<path d="M231.47,40.61c0.51,0.34,3.94,0.94,4.46,0.91c5.31-0.39,15.08-2.08,23.5-3.45c0.84-0.14,2.36,0.16,2.79,0.33" style="fill:none;stroke:#999;stroke-width:3" />
<path d="M228.84,53.8c0.4,0.31,2.98,1.04,4.06,0.93C240.0,54 250.25,52.62 259.38,51.38c1.07-0.15,3.02-0.19,3.7,0.12" style="fill:none;stroke:black;stroke-width:3" />
<circle cx="228.84" cy="53.8" r="5" stroke-width="0" fill="#FF2A00" opacity="0.7" />
<path d="M368.75,19.75c0.25,1-0.17,1.48-0.64,1.78C361.0,26 351.25,30 342.0,32.75" style="fill:none;stroke:#999;stroke-width:3" />
<path d="M340.47,40.61c0.51,0.34,3.94,0.94,4.46,0.91c5.31-0.39,15.08-2.08,23.5-3.45c0.84-0.14,2.36,0.16,2.79,0.33" style="fill:none;stroke:#999;stroke-width:3" />
<path d="M337.84000000000003,53.8c0.4,0.31,2.98,1.04,4.06,0.93C349.0,54 359.25,52.62 368.38,51.38c1.07-0.15,3.02-0.19,3.7,0.12" style="fill:none;stroke:#999;stroke-width:3" />
<path d="M353.85,13c1.18,0.46,2.12,3.43,2.12,4.39c0,3.7,0.4,73.58,0.16,79.36" style="fill:none;stroke:black;stroke-width:3" />
<circle cx="353.85" cy="13.0" r="5" stroke-width="0" fill="#FF2A00" opacity="0.7" />
<path d="M477.75,19.75c0.25,1-0.17,1.48-0.64,1.78C470.0,26 460.25,30 451.0,32.75" style="fill:none;stroke:#999;stroke-width:3" />
<path d="M449.47,40.61c0.51,0.34,3.94,0.94,4.46,0.91c5.31-0.39,15.08-2.08,23.5-3.45c0.84-0.14,2.36,0.16,2.79,0.33" style="fill:none;stroke:#999;stroke-width:3" />
<path d="M446.84000000000003,53.8c0.4,0.31,2.98,1.04,4.06,0.93C458.0,54 468.25,52.62 477.38,51.38c1.07-0.15,3.02-0.19,3.7,0.12" style="fill:none;stroke:#999;stroke-width:3" />
<path d="M462.85,13c1.18,0.46,2.12,3.43,2.12,4.39c0,3.7,0.4,73.58,0.16,79.36" style="fill:none;stroke:#999;stroke-width:3" />
<path d="M464.53,54.36C461.26,63.9 452.8,78.37 445.99,83.77" style="fill:none;stroke:black;stroke-width:3" />
<circle cx="464.53" cy="54.36" r="5" stroke-width="0" fill="#FF2A00" opacity="0.7" />
<path d="M586.75,19.75c0.25,1-0.17,1.48-0.64,1.78C579.0,26 569.25,30 560.0,32.75" style="fill:none;stroke:#999;stroke-width:3" />
<path d="M558.47,40.61c0.51,0.34,3.94,0.94,4.46,0.91c5.31-0.39,15.08-2.08,23.5-3.45c0.84-0.14,2.36,0.16,2.79,0.33" style="fill:none;stroke:#999;stroke-width:3" />
<path d="M555.84,53.8c0.4,0.31,2.98,1.04,4.06,0.93C567.0,54 577.25,52.62 586.38,51.38c1.07-0.15,3.02-0.19,3.7,0.12" style="fill:none;stroke:#999;stroke-width:3" />
<path d="M571.85,13c1.18,0.46,2.12,3.43,2.12,4.39c0,3.7,0.4,73.58,0.16,79.36" style="fill:none;stroke:#999;stroke-width:3" />
<path d="M573.53,54.36C570.26,63.9 561.8,78.37 554.99,83.77" style="fill:none;stroke:#999;stroke-width:3" />
<path d="M577.5,60.98c4.82,2.76,8.36,7.01,11.25,11.77" style="fill:none;stroke:black;stroke-width:3" />
<circle cx="577.5" cy="60.98" r="5" stroke-width="0" fill="#FF2A00" opacity="0.7" />
<path d="M695.75,19.75c0.25,1-0.17,1.48-0.64,1.78C688.0,26 678.25,30 669.0,32.75" style="fill:none;stroke:#999;stroke-width:3" />
<path d="M667.47,40.61c0.51,0.34,3.94,0.94,4.46,0.91c5.31-0.39,15.08-2.08,23.5-3.45c0.84-0.14,2.36,0.16,2.79,0.33" style="fill:none;stroke:#999;stroke-width:3" />
<path d="M664.84,53.8c0.4,0.31,2.98,1.04,4.06,0.93C676.0,54 686.25,52.62 695.38,51.38c1.07-0.15,3.02-0.19,3.7,0.12" style="fill:none;stroke:#999;stroke-width:3" />
<path d="M680.85,13c1.18,0.46,2.12,3.43,2.12,4.39c0,3.7,0.4,73.58,0.16,79.36" style="fill:none;stroke:#999;stroke-width:3" />
<path d="M682.53,54.36C679.26,63.9 670.8,78.37 663.99,83.77" style="fill:none;stroke:#999;stroke-width:3" />
<path d="M686.5,60.98c4.82,2.76,8.36,7.01,11.25,11.77" style="fill:none;stroke:#999;stroke-width:3" />
<path d="M703.75,19.48C704.9,19.9 707.0,20 708.15,19.9c9.29-0.79,29.64-3.62,34.6-3.98c1.9-0.14,3.05,0.2,4.01,0.41" style="fill:none;stroke:black;stroke-width:3" />
<circle cx="703.75" cy="19.48" r="5" stroke-width="0" fill="#FF2A00" opacity="0.7" />
<path d="M804.75,19.75c0.25,1-0.17,1.48-0.64,1.78C797.0,26 787.25,30 778.0,32.75" style="fill:none;stroke:#999;stroke-width:3" />
<path d="M776.47,40.61c0.51,0.34,3.94,0.94,4.46,0.91c5.31-0.39,15.08-2.08,23.5-3.45c0.84-0.14,2.36,0.16,2.79,0.33" style="fill:none;stroke:#999;stroke-width:3" />
<path d="M773.84,53.8c0.4,0.31,2.98,1.04,4.06,0.93C785.0,54 795.25,52.62 804.38,51.38c1.07-0.15,3.02-0.19,3.7,0.12" style="fill:none;stroke:#999;stroke-width:3" />
<path d="M789.85,13c1.18,0.46,2.12,3.43,2.12,4.39c0,3.7,0.4,73.58,0.16,79.36" style="fill:none;stroke:#999;stroke-width:3" />
<path d="M791.53,54.36C788.26,63.9 779.8,78.37 772.99,83.77" style="fill:none;stroke:#999;stroke-width:3" />
<path d="M795.5,60.98c4.82,2.76,8.36,7.01,11.25,11.77" style="fill:none;stroke:#999;stroke-width:3" />
<path d="M812.75,19.48C813.9,19.9 816.0,20 817.15,19.9c9.29-0.79,29.64-3.62,34.6-3.98c1.9-0.14,3.05,0.2,4.01,0.41" style="fill:none;stroke:#999;stroke-width:3" />
<path d="M815.5,20.5c0.03,1.86-0.05,2.29-0.05,4.96c0,17.19,0.3,48.04-9.95,63.79" style="fill:none;stroke:black;stroke-width:3" />
<circle cx="815.5" cy="20.5" r="5" stroke-width="0" fill="#FF2A00" opacity="0.7" />
<path d="M913.75,19.75c0.25,1-0.17,1.48-0.64,1.78C906.0,26 896.25,30 887.0,32.75" style="fill:none;stroke:#999;stroke-width:3" />
<path d="M885.47,40.61c0.51,0.34,3.94,0.94,4.46,0.91c5.31-0.39,15.08-2.08,23.5-3.45c0.84-0.14,2.36,0.16,2.79,0.33" style="fill:none;stroke:#999;stroke-width:3" />
<path d="M882.84,53.8c0.4,0.31,2.98,1.04,4.06,0.93C894.0,54 904.25,52.62 913.38,51.38c1.07-0.15,3.02-0.19,3.7,0.12" style="fill:none;stroke:#999;stroke-width:3" />
<path d="M898.85,13c1.18,0.46,2.12,3.43,2.12,4.39c0,3.7,0.4,73.58,0.16,79.36" style="fill:none;stroke:#999;stroke-width:3" />
<path d="M900.53,54.36C897.26,63.9 888.8,78.37 881.99,83.77" style="fill:none;stroke:#999;stroke-width:3" />
<path d="M904.5,60.98c4.82,2.76,8.36,7.01,11.25,11.77" style="fill:none;stroke:#999;stroke-width:3" />
<path d="M921.75,19.48C922.9,19.9 925.0,20 926.15,19.9c9.29-0.79,29.64-3.62,34.6-3.98c1.9-0.14,3.05,0.2,4.01,0.41" style="fill:none;stroke:#999;stroke-width:3" />
<path d="M924.5,20.5c0.03,1.86-0.05,2.29-0.05,4.96c0,17.19,0.3,48.04-9.95,63.79" style="fill:none;stroke:#999;stroke-width:3" />
<path d="M931.3,28.09c1.34,0.42,3.29,1.03,4.63,0.92c8.52-0.73,15.82-2.26,20.8-2.7c2.21-0.2,3.07-0.3,4.18-0.09" style="fill:none;stroke:black;stroke-width:3" />
<circle cx="931.3" cy="28.09" r="5" stroke-width="0" fill="#FF2A00" opacity="0.7" />
<path d="M1022.75,19.75c0.25,1-0.17,1.48-0.64,1.78C1015.0,26 1005.25,30 996.0,32.75" style="fill:none;stroke:#999;stroke-width:3" />
<path d="M994.47,40.61c0.51,0.34,3.94,0.94,4.46,0.91c5.31-0.39,15.08-2.08,23.5-3.45c0.84-0.14,2.36,0.16,2.79,0.33" style="fill:none;stroke:#999;stroke-width:3" />
<path d="M991.84,53.8c0.4,0.31,2.98,1.04,4.06,0.93C1003.0,54 1013.25,52.62 1022.38,51.38c1.07-0.15,3.02-0.19,3.7,0.12" style="fill:none;stroke:#999;stroke-width:3" />
<path d="M1007.85,13c1.18,0.46,2.12,3.43,2.12,4.39c0,3.7,0.4,73.58,0.16,79.36" style="fill:none;stroke:#999;stroke-width:3" />
<path d="M1009.53,54.36C1006.26,63.9 997.8,78.37 990.99,83.77" style="fill:none;stroke:#999;stroke-width:3" />
<path d="M1013.5,60.98c4.82,2.76,8.36,7.01,11.25,11.77" style="fill:none;stroke:#999;stroke-width:3" />
<path d="M1030.75,19.48C1031.9,19.9 1034.0,20 1035.15,19.9c9.29-0.79,29.64-3.62,34.6-3.98c1.9-0.14,3.05,0.2,4.01,0.41" style="fill:none;stroke:#999;stroke-width:3" />
<path d="M1033.5,20.5c0.03,1.86-0.05,2.29-0.05,4.96c0,17.19,0.3,48.04-9.95,63.79" style="fill:none;stroke:#999;stroke-width:3" />
<path d="M1040.3,28.09c1.34,0.42,3.29,1.03,4.63,0.92c8.52-0.73,15.82-2.26,20.8-2.7c2.21-0.2,3.07-0.3,4.18-0.09" style="fill:none;stroke:#999;stroke-width:3" />
<path d="M1036.75,39.05c1.5-0.05,3-0.05,4.28-0.16c3.82-0.35,26.78-4.16,30.87-4.26c0.99-0.02,2.85,0.16,3.35,0.33" style="fill:none;stroke:black;stroke-width:3" />
<circle cx="1036.75" cy="39.05" r="5" stroke-width="0" fill="#FF2A00" opacity="0.7" />
<path d="M1131.75,19.75c0.25,1-0.17,1.48-0.64,1.78C1124.0,26 1114.25,30 1105.0,32.75" style="fill:none;stroke:#999;stroke-width:3" />
<path d="M1103.47,40.61c0.51,0.34,3.94,0.94,4.46,0.91c5.31-0.39,15.08-2.08,23.5-3.45c0.84-0.14,2.36,0.16,2.79,0.33" style="fill:none;stroke:#999;stroke-width:3" />
<path d="M1100.8400000000001,53.8c0.4,0.31,2.98,1.04,4.06,0.93C1112.0,54 1122.25,52.62 1131.38,51.38c1.07-0.15,3.02-0.19,3.7,0.12" style="fill:none;stroke:#999;stroke-width:3" />
<path d="M1116.85,13c1.18,0.46,2.12,3.43,2.12,4.39c0,3.7,0.4,73.58,0.16,79.36" style="fill:none;stroke:#999;stroke-width:3" />
<path d="M1118.53,54.36C1115.26,63.9 1106.8,78.37 1099.99,83.77" style="fill:none;stroke:#999;stroke-width:3" />
<path d="M1122.5,60.98c4.82,2.76,8.36,7.01,11.25,11.77" style="fill:none;stroke:#999;stroke-width:3" />
<path d="M1139.75,19.48C1140.9,19.9 1143.0,20 1144.15,19.9c9.29-0.79,29.64-3.62,34.6-3.98c1.9-0.14,3.05,0.2,4.01,0.41" style="fill:none;stroke:#999;stroke-width:3" />
<path d="M1142.5,20.5c0.03,1.86-0.05,2.29-0.05,4.96c0,17.19,0.3,48.04-9.95,63.79" style="fill:none;stroke:#999;stroke-width:3" />
<path d="M1149.3,28.09c1.34,0.42,3.29,1.03,4.63,0.92c8.52-0.73,15.82-2.26,20.8-2.7c2.21-0.2,3.07-0.3,4.18-0.09" style="fill:none;stroke:#999;stroke-width:3" />
<path d="M1145.75,39.05c1.5-0.05,3-0.05,4.28-0.16c3.82-0.35,26.78-4.16,30.87-4.26c0.99-0.02,2.85,0.16,3.35,0.33" style="fill:none;stroke:#999;stroke-width:3" />
<path d="M1151.2,40.84c0.8,1.16,0.88,1.92,0.88,3.84c0,9.08-0.78,12.76-0.78,14.3s0.99,2.35,2.35,1.25C1156.75,57.75 1160.0,55.5 1164.75,52" style="fill:none;stroke:black;stroke-width:3" />
<circle cx="1151.2" cy="40.84" r="5" stroke-width="0" fill="#FF2A00" opacity="0.7" />
<path d="M1240.75,19.75c0.25,1-0.17,1.48-0.64,1.78C1233.0,26 1223.25,30 1214.0,32.75" style="fill:none;stroke:#999;stroke-width:3" />
<path d="M1212.47,40.61c0.51,0.34,3.94,0.94,4.46,0.91c5.31-0.39,15.08-2.08,23.5-3.45c0.84-0.14,2.36,0.16,2.79,0.33" style="fill:none;stroke:#999;stroke-width:3" />
<path d="M1209.8400000000001,53.8c0.4,0.31,2.98,1.04,4.06,0.93C1221.0,54 1231.25,52.62 1240.38,51.38c1.07-0.15,3.02-0.19,3.7,0.12" style="fill:none;stroke:#999;stroke-width:3" />
<path d="M1225.85,13c1.18,0.46,2.12,3.43,2.12,4.39c0,3.7,0.4,73.58,0.16,79.36" style="fill:none;stroke:#999;stroke-width:3" />
<path d="M1227.53,54.36C1224.26,63.9 1215.8,78.37 1208.99,83.77" style="fill:none;stroke:#999;stroke-width:3" />
<path d="M1231.5,60.98c4.82,2.76,8.36,7.01,11.25,11.77" style="fill:none;stroke:#999;stroke-width:3" />
<path d="M1248.75,19.48C1249.9,19.9 1252.0,20 1253.15,19.9c9.29-0.79,29.64-3.62,34.6-3.98c1.9-0.14,3.05,0.2,4.01,0.41" style="fill:none;stroke:#999;stroke-width:3" />
<path d="M1251.5,20.5c0.03,1.86-0.05,2.29-0.05,4.96c0,17.19,0.3,48.04-9.95,63.79" style="fill:none;stroke:#999;stroke-width:3" />
<path d="M1258.3,28.09c1.34,0.42,3.29,1.03,4.63,0.92c8.52-0.73,15.82-2.26,20.8-2.7c2.21-0.2,3.07-0.3,4.18-0.09" style="fill:none;stroke:#999;stroke-width:3" />
<path d="M1254.75,39.05c1.5-0.05,3-0.05,4.28-0.16c3.82-0.35,26.78-4.16,30.87-4.26c0.99-0.02,2.85,0.16,3.35,0.33" style="fill:none;stroke:#999;stroke-width:3" />
<path d="M1260.2,40.84c0.8,1.16,0.88,1.92,0.88,3.84c0,9.08-0.78,12.76-0.78,14.3s0.99,2.35,2.35,1.25C1265.75,57.75 1269.0,55.5 1273.75,52" style="fill:none;stroke:#999;stroke-width:3" />
<path d="M1287.75,39.75c0.02,0.16,0.04,0.41-0.04,0.64c-0.48,1.35-3.23,4.31-7,6.12" style="fill:none;stroke:black;stroke-width:3" />
<circle cx="1287.75" cy="39.75" r="5" stroke-width="0" fill="#FF2A00" opacity="0.7" />
<path d="M1349.75,19.75c0.25,1-0.17,1.48-0.64,1.78C1342.0,26 1332.25,30 1323.0,32.75" style="fill:none;stroke:#999;stroke-width:3" />
<path d="M1321.47,40.61c0.51,0.34,3.94,0.94,4.46,0.91c5.31-0.39,15.08-2.08,23.5-3.45c0.84-0.14,2.36,0.16,2.79,0.33" style="fill:none;stroke:#999;stroke-width:3" />
<path d="M1318.8400000000001,53.8c0.4,0.31,2.98,1.04,4.06,0.93C1330.0,54 1340.25,52.62 1349.38,51.38c1.07-0.15,3.02-0.19,3.7,0.12" style="fill:none;stroke:#999;stroke-width:3" />
<path d="M1334.85,13c1.18,0.46,2.12,3.43,2.12,4.39c0,3.7,0.4,73.58,0.16,79.36" style="fill:none;stroke:#999;stroke-width:3" />
<path d="M1336.53,54.36C1333.26,63.9 1324.8,78.37 1317.99,83.77" style="fill:none;stroke:#999;stroke-width:3" />
<path d="M1340.5,60.98c4.82,2.76,8.36,7.01,11.25,11.77" style="fill:none;stroke:#999;stroke-width:3" />
<path d="M1357.75,19.48C1358.9,19.9 1361.0,20 1362.15,19.9c9.29-0.79,29.64-3.62,34.6-3.98c1.9-0.14,3.05,0.2,4.01,0.41" style="fill:none;stroke:#999;stroke-width:3" />
<path d="M1360.5,20.5c0.03,1.86-0.05,2.29-0.05,4.96c0,17.19,0.3,48.04-9.95,63.79" style="fill:none;stroke:#999;stroke-width:3" />
<path d="M1367.3,28.09c1.34,0.42,3.29,1.03,4.63,0.92c8.52-0.73,15.82-2.26,20.8-2.7c2.21-0.2,3.07-0.3,4.18-0.09" style="fill:none;stroke:#999;stroke-width:3" />
<path d="M1363.75,39.05c1.5-0.05,3-0.05,4.28-0.16c3.82-0.35,26.78-4.16,30.87-4.26c0.99-0.02,2.85,0.16,3.35,0.33" style="fill:none;stroke:#999;stroke-width:3" />
<path d="M1369.2,40.84c0.8,1.16,0.88,1.92,0.88,3.84c0,9.08-0.78,12.76-0.78,14.3s0.99,2.35,2.35,1.25C1374.75,57.75 1378.0,55.5 1382.75,52" style="fill:none;stroke:#999;stroke-width:3" />
<path d="M1396.75,39.75c0.02,0.16,0.04,0.41-0.04,0.64c-0.48,1.35-3.23,4.31-7,6.12" style="fill:none;stroke:#999;stroke-width:3" />
<path d="M1375.75,39c6.5,5.75,17.5,12.25,24.01,16.65c1.33,0.9,2.43,1.33,3.74,1.6" style="fill:none;stroke:black;stroke-width:3" />
<circle cx="1375.75" cy="39.0" r="5" stroke-width="0" fill="#FF2A00" opacity="0.7" />
<path d="M1458.75,19.75c0.25,1-0.17,1.48-0.64,1.78C1451.0,26 1441.25,30 1432.0,32.75" style="fill:none;stroke:#999;stroke-width:3" />
<path d="M1430.47,40.61c0.51,0.34,3.94,0.94,4.46,0.91c5.31-0.39,15.08-2.08,23.5-3.45c0.84-0.14,2.36,0.16,2.79,0.33" style="fill:none;stroke:#999;stroke-width:3" />
<path d="M1427.8400000000001,53.8c0.4,0.31,2.98,1.04,4.06,0.93C1439.0,54 1449.25,52.62 1458.38,51.38c1.07-0.15,3.02-0.19,3.7,0.12" style="fill:none;stroke:#999;stroke-width:3" />
<path d="M1443.85,13c1.18,0.46,2.12,3.43,2.12,4.39c0,3.7,0.4,73.58,0.16,79.36" style="fill:none;stroke:#999;stroke-width:3" />
<path d="M1445.53,54.36C1442.26,63.9 1433.8,78.37 1426.99,83.77" style="fill:none;stroke:#999;stroke-width:3" />
<path d="M1449.5,60.98c4.82,2.76,8.36,7.01,11.25,11.77" style="fill:none;stroke:#999;stroke-width:3" />
<path d="M1466.75,19.48C1467.9,19.9 1470.0,20 1471.15,19.9c9.29-0.79,29.64-3.62,34.6-3.98c1.9-0.14,3.05,0.2,4.01,0.41" style="fill:none;stroke:#999;stroke-width:3" />
<path d="M1469.5,20.5c0.03,1.86-0.05,2.29-0.05,4.96c0,17.19,0.3,48.04-9.95,63.79" style="fill:none;stroke:#999;stroke-width:3" />
<path d="M1476.3,28.09c1.34,0.42,3.29,1.03,4.63,0.92c8.52-0.73,15.82-2.26,20.8-2.7c2.21-0.2,3.07-0.3,4.18-0.09" style="fill:none;stroke:#999;stroke-width:3" />
<path d="M1472.75,39.05c1.5-0.05,3-0.05,4.28-0.16c3.82-0.35,26.78-4.16,30.87-4.26c0.99-0.02,2.85,0.16,3.35,0.33" style="fill:none;stroke:#999;stroke-width:3" />
<path d="M1478.2,40.84c0.8,1.16,0.88,1.92,0.88,3.84c0,9.08-0.78,12.76-0.78,14.3s0.99,2.35,2.35,1.25C1483.75,57.75 1487.0,55.5 1491.75,52" style="fill:none;stroke:#999;stroke-width:3" />
<path d="M1505.75,39.75c0.02,0.16,0.04,0.41-0.04,0.64c-0.48,1.35-3.23,4.31-7,6.12" style="fill:none;stroke:#999;stroke-width:3" />
<path d="M1484.75,39c6.5,5.75,17.5,12.25,24.01,16.65c1.33,0.9,2.43,1.33,3.74,1.6" style="fill:none;stroke:#999;stroke-width:3" />
<path d="M1472.75,69.56c0.8,0.54,2.25,0.57,3.07,0.54c9.04-0.42,27.43-2.51,37.2-3.32c1.33-0.11,2.13,0.25,2.8,0.52" style="fill:none;stroke:black;stroke-width:3" />
<circle cx="1472.75" cy="69.56" r="5" stroke-width="0" fill="#FF2A00" opacity="0.7" />
<path d="M1567.75,19.75c0.25,1-0.17,1.48-0.64,1.78C1560.0,26 1550.25,30 1541.0,32.75" style="fill:none;stroke:#999;stroke-width:3" />
<path d="M1539.47,40.61c0.51,0.34,3.94,0.94,4.46,0.91c5.31-0.39,15.08-2.08,23.5-3.45c0.84-0.14,2.36,0.16,2.79,0.33" style="fill:none;stroke:#999;stroke-width:3" />
<path d="M1536.8400000000001,53.8c0.4,0.31,2.98,1.04,4.06,0.93C1548.0,54 1558.25,52.62 1567.38,51.38c1.07-0.15,3.02-0.19,3.7,0.12" style="fill:none;stroke:#999;stroke-width:3" />
<path d="M1552.85,13c1.18,0.46,2.12,3.43,2.12,4.39c0,3.7,0.4,73.58,0.16,79.36" style="fill:none;stroke:#999;stroke-width:3" />
<path d="M1554.53,54.36C1551.26,63.9 1542.8,78.37 1535.99,83.77" style="fill:none;stroke:#999;stroke-width:3" />
<path d="M1558.5,60.98c4.82,2.76,8.36,7.01,11.25,11.77" style="fill:none;stroke:#999;stroke-width:3" />
<path d="M1575.75,19.48C1576.9,19.9 1579.0,20 1580.15,19.9c9.29-0.79,29.64-3.62,34.6-3.98c1.9-0.14,3.05,0.2,4.01,0.41" style="fill:none;stroke:#999;stroke-width:3" />
<path d="M1578.5,20.5c0.03,1.86-0.05,2.29-0.05,4.96c0,17.19,0.3,48.04-9.95,63.79" style="fill:none;stroke:#999;stroke-width:3" />
<path d="M1585.3,28.09c1.34,0.42,3.29,1.03,4.63,0.92c8.52-0.73,15.82-2.26,20.8-2.7c2.21-0.2,3.07-0.3,4.18-0.09" style="fill:none;stroke:#999;stroke-width:3" />
<path d="M1581.75,39.05c1.5-0.05,3-0.05,4.28-0.16c3.82-0.35,26.78-4.16,30.87-4.26c0.99-0.02,2.85,0.16,3.35,0.33" style="fill:none;stroke:#999;stroke-width:3" />
<path d="M1587.2,40.84c0.8,1.16,0.88,1.92,0.88,3.84c0,9.08-0.78,12.76-0.78,14.3s0.99,2.35,2.35,1.25C1592.75,57.75 1596.0,55.5 1600.75,52" style="fill:none;stroke:#999;stroke-width:3" />
<path d="M1614.75,39.75c0.02,0.16,0.04,0.41-0.04,0.64c-0.48,1.35-3.23,4.31-7,6.12" style="fill:none;stroke:#999;stroke-width:3" />
<path d="M1593.75,39c6.5,5.75,17.5,12.25,24.01,16.65c1.33,0.9,2.43,1.33,3.74,1.6" style="fill:none;stroke:#999;stroke-width:3" />
<path d="M1581.75,69.56c0.8,0.54,2.25,0.57,3.07,0.54c9.04-0.42,27.43-2.51,37.2-3.32c1.33-0.11,2.13,0.25,2.8,0.52" style="fill:none;stroke:#999;stroke-width:3" />
<path d="M1609.58,58.25c0.09,0.35,1.25,1.84,1.25,4.09c0,15.1,0.29,23.47,0.29,27.14c0,12.03-6.13,2.53-8.18,0.68" style="fill:none;stroke:black;stroke-width:3" />
<circle cx="1609.58" cy="58.25" r="5" stroke-width="0" fill="#FF2A00" opacity="0.7" />
<path d="M1676.75,19.75c0.25,1-0.17,1.48-0.64,1.78C1669.0,26 1659.25,30 1650.0,32.75" style="fill:none;stroke:#999;stroke-width:3" />
<path d="M1648.47,40.61c0.51,0.34,3.94,0.94,4.46,0.91c5.31-0.39,15.08-2.08,23.5-3.45c0.84-0.14,2.36,0.16,2.79,0.33" style="fill:none;stroke:#999;stroke-width:3" />
<path d="M1645.8400000000001,53.8c0.4,0.31,2.98,1.04,4.06,0.93C1657.0,54 1667.25,52.62 1676.38,51.38c1.07-0.15,3.02-0.19,3.7,0.12" style="fill:none;stroke:#999;stroke-width:3" />
<path d="M1661.85,13c1.18,0.46,2.12,3.43,2.12,4.39c0,3.7,0.4,73.58,0.16,79.36" style="fill:none;stroke:#999;stroke-width:3" />
<path d="M1663.53,54.36C1660.26,63.9 1651.8,78.37 1644.99,83.77" style="fill:none;stroke:#999;stroke-width:3" />
<path d="M1667.5,60.98c4.82,2.76,8.36,7.01,11.25,11.77" style="fill:none;stroke:#999;stroke-width:3" />
<path d="M1684.75,19.48C1685.9,19.9 1688.0,20 1689.15,19.9c9.29-0.79,29.64-3.62,34.6-3.98c1.9-0.14,3.05,0.2,4.01,0.41" style="fill:none;stroke:#999;stroke-width:3" />
<path d="M1687.5,20.5c0.03,1.86-0.05,2.29-0.05,4.96c0,17.19,0.3,48.04-9.95,63.79" style="fill:none;stroke:#999;stroke-width:3" />
<path d="M1694.3,28.09c1.34,0.42,3.29,1.03,4.63,0.92c8.52-0.73,15.82-2.26,20.8-2.7c2.21-0.2,3.07-0.3,4.18-0.09" style="fill:none;stroke:#999;stroke-width:3" />
<path d="M1690.75,39.05c1.5-0.05,3-0.05,4.28-0.16c3.82-0.35,26.78-4.16,30.87-4.26c0.99-0.02,2.85,0.16,3.35,0.33" style="fill:none;stroke:#999;stroke-width:3" />
<path d="M1696.2,40.84c0.8,1.16,0.88,1.92,0.88,3.84c0,9.08-0.78,12.76-0.78,14.3s0.99,2.35,2.35,1.25C1701.75,57.75 1705.0,55.5 1709.75,52" style="fill:none;stroke:#999;stroke-width:3" />
<path d="M1723.75,39.75c0.02,0.16,0.04,0.41-0.04,0.64c-0.48,1.35-3.23,4.31-7,6.12" style="fill:none;stroke:#999;stroke-width:3" />
<path d="M1702.75,39c6.5,5.75,17.5,12.25,24.01,16.65c1.33,0.9,2.43,1.33,3.74,1.6" style="fill:none;stroke:#999;stroke-width:3" />
<path d="M1690.75,69.56c0.8,0.54,2.25,0.57,3.07,0.54c9.04-0.42,27.43-2.51,37.2-3.32c1.33-0.11,2.13,0.25,2.8,0.52" style="fill:none;stroke:#999;stroke-width:3" />
<path d="M1718.58,58.25c0.09,0.35,1.25,1.84,1.25,4.09c0,15.1,0.29,23.47,0.29,27.14c0,12.03-6.13,2.53-8.18,0.68" style="fill:none;stroke:#999;stroke-width:3" />
<path d="M1693.75,75.5c3.35,1.94,8.66,7.98,9.5,11" style="fill:none;stroke:black;stroke-width:3" />
<circle cx="1693.75" cy="75.5" r="5" stroke-width="0" fill="#FF2A00" opacity="0.7" />
</svg>