<!-- 0803b -->
<svg width="1090px" height="109px" viewBox="0 0 1090px 109px" xmlns="http://www.w3.org/2000/svg" xmlns:xlink="http://www.w3.org/1999/xlink" xml:space="preserve" version="1.1"  baseProfile="full">
<line x1="1" y1="1" x2="1089" y2="1" style="stroke:#ddd;stroke-width:2" />
<line x1="1" y1="1" x2="1" y2="108" style="stroke:#ddd;stroke-width:2" />
<line x1="1" y1="108" x2="1089" y2="108" style="stroke:#ddd;stroke-width:2" />
<line x1="1089" y1="1" x2="1089" y2="108" style="stroke:#ddd;stroke-width:2" />
<line x1="109" y1="1" x2="109" y2="108" style="stroke:#ddd;stroke-width:2" />
<line x1="218" y1="1" x2="218" y2="108" style="stroke:#ddd;stroke-width:2" />
<line x1="327" y1="1" x2="327" y2="108" style="stroke:#ddd;stroke-width:2" />
<line x1="436" y1="1" x2="436" y2="108" style="stroke:#ddd;stroke-width:2" />
<line x1="545" y1="1" x2="545" y2="108" style="stroke:#ddd;stroke-width:2" />
<line x1="654" y1="1" x2="654" y2="108" style="stroke:#ddd;stroke-width:2" />
<line x1="763" y1="1" x2="763" y2="108" style="stroke:#ddd;stroke-width:2" />
<line x1="872" y1="1" x2="872" y2="108" style="stroke:#ddd;stroke-width:2" />
<line x1="981" y1="1" x2="981" y2="108" style="stroke:#ddd;stroke-width:2" />
<line x1="1" y1="54" x2="1089" y2="54" style="stroke:#ddd;stroke-width:2;stroke-dasharray:3 3" />
<line x1="55" y1="1" x2="55" y2="108" style="stroke:#ddd;stroke-width:2;stroke-dasharray:3 3" />
<line x1="164" y1="1" x2="164" y2="108" style="stroke:#ddd;stroke-width:2;stroke-dasharray:3 3" />
<line x1="273" y1="1" x2="273" y2="108" style="stroke:#ddd;stroke-width:2;stroke-dasharray:3 3" />
<line x1="382" y1="1" x2="382" y2="108" style="stroke:#ddd;stroke-width:2;stroke-dasharray:3 3" />
<line x1="491" y1="1" x2="491" y2="108" style="stroke:#ddd;stroke-width:2;stroke-dasharray:3 3" />
<line x1="600" y1="1" x2="600" y2="108" style="stroke:#ddd;stroke-width:2;stroke-dasharray:3 3" />
<line x1="709" y1="1" x2="709" y2="108" style="stroke:#ddd;stroke-width:2;stroke-dasharray:3 3" />
<line x1="818" y1="1" x2="818" y2="108" style="stroke:#ddd;stroke-width:2;stroke-dasharray:3 3" />
<line x1="927" y1="1" x2="927" y2="108" style="stroke:#ddd;stroke-width:2;stroke-dasharray:3 3" />
<line x1="1036" y1="1" x2="1036" y2="108" style="stroke:#ddd;stroke-width:2;stroke-dasharray:3 3" />
<path d="M11.19,18.41c0.8,0.37,2.25,0.43,3.05,0.37c6.17-0.45,17.45-2.97,28.23-3.4c1.33-0.05,2.12,0.18,2.79,0.36" style="fill:none;stroke:black;stroke-width:3" />
<circle cx="11.19" cy="18.41" r="5" stroke-width="0" fill="#FF2A00" opacity="0.7" />
<path d="M120.19,18.41c0.8,0.37,2.25,0.43,3.05,0.37c6.17-0.45,17.45-2.97,28.23-3.4c1.33-0.05,2.12,0.18,2.79,0.36" style="fill:none;stroke:#999;stroke-width:3" />
<path d="M129.0,20.5c0.5,0.75,0.88,2.4,0.88,3.83c0,1.43-0.11,44.11-0.11,49.25" style="fill:none;stroke:black;stroke-width:3" />
<circle cx="129.0" cy="20.5" r="5" stroke-width="0" fill="#FF2A00" opacity="0.7" />
<path d="M229.19,18.41c0.8,0.37,2.25,0.43,3.05,0.37c6.17-0.45,17.45-2.97,28.23-3.4c1.33-0.05,2.12,0.18,2.79,0.36" style="fill:none;stroke:#999;stroke-width:3" />
<path d="M238.0,20.5c0.5,0.75,0.88,2.4,0.88,3.83c0,1.43-0.11,44.11-0.11,49.25" style="fill:none;stroke:#999;stroke-width:3" />
<path d="M239.55,37.15c7.46-1.33,9.48-1.52,16.08-2.16" style="fill:none;stroke:black;stroke-width:3" />
<circle cx="239.55" cy="37.15" r="5" stroke-width="0" fill="#FF2A00" opacity="0.7" />
<path d="M338.19,18.41c0.8,0.37,2.25,0.43,3.05,0.37c6.17-0.45,17.45-2.97,28.23-3.4c1.33-0.05,2.12,0.18,2.79,0.36" style="fill:none;stroke:#999;stroke-width:3" />
<path d="M347.0,20.5c0.5,0.75,0.88,2.4,0.88,3.83c0,1.43-0.11,44.11-0.11,49.25" style="fill:none;stroke:#999;stroke-width:3" />
<path d="M348.55,37.15c7.46-1.33,9.48-1.52,16.08-2.16" style="fill:none;stroke:#999;stroke-width:3" />
<path d="M348.24,53.45c6.27-1.2,8.77-1.7,16.42-2.55" style="fill:none;stroke:black;stroke-width:3" />
<circle cx="348.24" cy="53.45" r="5" stroke-width="0" fill="#FF2A00" opacity="0.7" />
<path d="M447.19,18.41c0.8,0.37,2.25,0.43,3.05,0.37c6.17-0.45,17.45-2.97,28.23-3.4c1.33-0.05,2.12,0.18,2.79,0.36" style="fill:none;stroke:#999;stroke-width:3" />
<path d="M456.0,20.5c0.5,0.75,0.88,2.4,0.88,3.83c0,1.43-0.11,44.11-0.11,49.25" style="fill:none;stroke:#999;stroke-width:3" />
<path d="M457.55,37.15c7.46-1.33,9.48-1.52,16.08-2.16" style="fill:none;stroke:#999;stroke-width:3" />
<path d="M457.24,53.45c6.27-1.2,8.77-1.7,16.42-2.55" style="fill:none;stroke:#999;stroke-width:3" />
<path d="M447.5,77.55c0.75,0.45,2.5,0.57,3.14,0.21c2.54-1.43,17.71-8.48,21.61-10.76" style="fill:none;stroke:black;stroke-width:3" />
<circle cx="447.5" cy="77.55" r="5" stroke-width="0" fill="#FF2A00" opacity="0.7" />
<path d="M556.19,18.41c0.8,0.37,2.25,0.43,3.05,0.37c6.17-0.45,17.45-2.97,28.23-3.4c1.33-0.05,2.12,0.18,2.79,0.36" style="fill:none;stroke:#999;stroke-width:3" />
<path d="M565.0,20.5c0.5,0.75,0.88,2.4,0.88,3.83c0,1.43-0.11,44.11-0.11,49.25" style="fill:none;stroke:#999;stroke-width:3" />
<path d="M566.55,37.15c7.46-1.33,9.48-1.52,16.08-2.16" style="fill:none;stroke:#999;stroke-width:3" />
<path d="M566.24,53.45c6.27-1.2,8.77-1.7,16.42-2.55" style="fill:none;stroke:#999;stroke-width:3" />
<path d="M556.5,77.55c0.75,0.45,2.5,0.57,3.14,0.21c2.54-1.43,17.71-8.48,21.61-10.76" style="fill:none;stroke:#999;stroke-width:3" />
<path d="M581.02,18.75c0.98,1,1.72,2.03,1.72,3.48c0,1.45,0.24,64.38,0.24,76.27" style="fill:none;stroke:black;stroke-width:3" />
<circle cx="581.02" cy="18.75" r="5" stroke-width="0" fill="#FF2A00" opacity="0.7" />
<path d="M665.19,18.41c0.8,0.37,2.25,0.43,3.05,0.37c6.17-0.45,17.45-2.97,28.23-3.4c1.33-0.05,2.12,0.18,2.79,0.36" style="fill:none;stroke:#999;stroke-width:3" />
<path d="M674.0,20.5c0.5,0.75,0.88,2.4,0.88,3.83c0,1.43-0.11,44.11-0.11,49.25" style="fill:none;stroke:#999;stroke-width:3" />
<path d="M675.55,37.15c7.46-1.33,9.48-1.52,16.08-2.16" style="fill:none;stroke:#999;stroke-width:3" />
<path d="M675.24,53.45c6.27-1.2,8.77-1.7,16.42-2.55" style="fill:none;stroke:#999;stroke-width:3" />
<path d="M665.5,77.55c0.75,0.45,2.5,0.57,3.14,0.21c2.54-1.43,17.71-8.48,21.61-10.76" style="fill:none;stroke:#999;stroke-width:3" />
<path d="M690.02,18.75c0.98,1,1.72,2.03,1.72,3.48c0,1.45,0.24,64.38,0.24,76.27" style="fill:none;stroke:#999;stroke-width:3" />
<path d="M724.4,13.75c0.99,0.57,1.58,2.58,1.78,3.72c0.2,1.15,0,63.87-0.2,71.03" style="fill:none;stroke:black;stroke-width:3" />
<circle cx="724.4" cy="13.75" r="5" stroke-width="0" fill="#FF2A00" opacity="0.7" />
<path d="M774.19,18.41c0.8,0.37,2.25,0.43,3.05,0.37c6.17-0.45,17.45-2.97,28.23-3.4c1.33-0.05,2.12,0.18,2.79,0.36" style="fill:none;stroke:#999;stroke-width:3" />
<path d="M783.0,20.5c0.5,0.75,0.88,2.4,0.88,3.83c0,1.43-0.11,44.11-0.11,49.25" style="fill:none;stroke:#999;stroke-width:3" />
<path d="M784.55,37.15c7.46-1.33,9.48-1.52,16.08-2.16" style="fill:none;stroke:#999;stroke-width:3" />
<path d="M784.24,53.45c6.27-1.2,8.77-1.7,16.42-2.55" style="fill:none;stroke:#999;stroke-width:3" />
<path d="M774.5,77.55c0.75,0.45,2.5,0.57,3.14,0.21c2.54-1.43,17.71-8.48,21.61-10.76" style="fill:none;stroke:#999;stroke-width:3" />
<path d="M799.02,18.75c0.98,1,1.72,2.03,1.72,3.48c0,1.45,0.24,64.38,0.24,76.27" style="fill:none;stroke:#999;stroke-width:3" />
<path d="M833.4,13.75c0.99,0.57,1.58,2.58,1.78,3.72c0.2,1.15,0,63.87-0.2,71.03" style="fill:none;stroke:#999;stroke-width:3" />
<path d="M835.5,47.7c6.08-0.8,13.75-1.7,19.47-2.24c1.94-0.18,2.43-0.28,3.65,0" style="fill:none;stroke:black;stroke-width:3" />
<circle cx="835.5" cy="47.7" r="5" stroke-width="0" fill="#FF2A00" opacity="0.7" />
<path d="M883.19,18.41c0.8,0.37,2.25,0.43,3.05,0.37c6.17-0.45,17.45-2.97,28.23-3.4c1.33-0.05,2.12,0.18,2.79,0.36" style="fill:none;stroke:#999;stroke-width:3" />
<path d="M892.0,20.5c0.5,0.75,0.88,2.4,0.88,3.83c0,1.43-0.11,44.11-0.11,49.25" style="fill:none;stroke:#999;stroke-width:3" />
<path d="M893.55,37.15c7.46-1.33,9.48-1.52,16.08-2.16" style="fill:none;stroke:#999;stroke-width:3" />
<path d="M893.24,53.45c6.27-1.2,8.77-1.7,16.42-2.55" style="fill:none;stroke:#999;stroke-width:3" />
<path d="M883.5,77.55c0.75,0.45,2.5,0.57,3.14,0.21c2.54-1.43,17.71-8.48,21.61-10.76" style="fill:none;stroke:#999;stroke-width:3" />
<path d="M908.02,18.75c0.98,1,1.72,2.03,1.72,3.48c0,1.45,0.24,64.38,0.24,76.27" style="fill:none;stroke:#999;stroke-width:3" />
<path d="M942.4,13.75c0.99,0.57,1.58,2.58,1.78,3.72c0.2,1.15,0,63.87-0.2,71.03" style="fill:none;stroke:#999;stroke-width:3" />
<path d="M944.5,47.7c6.08-0.8,13.75-1.7,19.47-2.24c1.94-0.18,2.43-0.28,3.65,0" style="fill:none;stroke:#999;stroke-width:3" />
<path d="M925.17,42.14c1.2,0.69,1.91,3.11,2.15,4.49c0.24,1.38,0.5,35.28,0.26,43.92" style="fill:none;stroke:black;stroke-width:3" />
<circle cx="925.17" cy="42.14" r="5" stroke-width="0" fill="#FF2A00" opacity="0.7" />
<path d="M992.19,18.41c0.8,0.37,2.25,0.43,3.05,0.37c6.17-0.45,17.45-2.97,28.23-3.4c1.33-0.05,2.12,0.18,2.79,0.36" style="fill:none;stroke:#999;stroke-width:3" />
<path d="M1001.0,20.5c0.5,0.75,0.88,2.4,0.88,3.83c0,1.43-0.11,44.11-0.11,49.25" style="fill:none;stroke:#999;stroke-width:3" />
<path d="M1002.55,37.15c7.46-1.33,9.48-1.52,16.08-2.16" style="fill:none;stroke:#999;stroke-width:3" />
<path d="M1002.24,53.45c6.27-1.2,8.77-1.7,16.42-2.55" style="fill:none;stroke:#999;stroke-width:3" />
<path d="M992.5,77.55c0.75,0.45,2.5,0.57,3.14,0.21c2.54-1.43,17.71-8.48,21.61-10.76" style="fill:none;stroke:#999;stroke-width:3" />
<path d="M1017.02,18.75c0.98,1,1.72,2.03,1.72,3.48c0,1.45,0.24,64.38,0.24,76.27" style="fill:none;stroke:#999;stroke-width:3" />
<path d="M1051.4,13.75c0.99,0.57,1.58,2.58,1.78,3.72c0.2,1.15,0,63.87-0.2,71.03" style="fill:none;stroke:#999;stroke-width:3" />
<path d="M1053.5,47.7c6.08-0.8,13.75-1.7,19.47-2.24c1.94-0.18,2.43-0.28,3.65,0" style="fill:none;stroke:#999;stroke-width:3" />
<path d="M1034.17,42.14c1.2,0.69,1.91,3.11,2.15,4.49c0.24,1.38,0.5,35.28,0.26,43.92" style="fill:none;stroke:#999;stroke-width:3" />
<path d="M1024.3,91.56c1.45,0.19,3.13,0.58,4.66,0.45c10.13-0.86,33.59-3.35,44.15-3.35c1.54,0,3.85,0.22,5.35,0.86" style="fill:none;stroke:black;stroke-width:3" />
<circle cx="1024.3" cy="91.56" r="5" stroke-width="0" fill="#FF2A00" opacity="0.7" />
</svg>