<!-- 0805f -->
<svg width="1526px" height="109px" viewBox="0 0 1526px 109px" xmlns="http://www.w3.org/2000/svg" xmlns:xlink="http://www.w3.org/1999/xlink" xml:space="preserve" version="1.1"  baseProfile="full">
<line x1="1" y1="1" x2="1525" y2="1" style="stroke:#ddd;stroke-width:2" />
<line x1="1" y1="1" x2="1" y2="108" style="stroke:#ddd;stroke-width:2" />
<line x1="1" y1="108" x2="1525" y2="108" style="stroke:#ddd;stroke-width:2" />
<line x1="1525" y1="1" x2="1525" y2="108" style="stroke:#ddd;stroke-width:2" />
<line x1="109" y1="1" x2="109" y2="108" style="stroke:#ddd;stroke-width:2" />
<line x1="218" y1="1" x2="218" y2="108" style="stroke:#ddd;stroke-width:2" />
<line x1="327" y1="1" x2="327" y2="108" style="stroke:#ddd;stroke-width:2" />
<line x1="436" y1="1" x2="436" y2="108" style="stroke:#ddd;stroke-width:2" />
<line x1="545" y1="1" x2="545" y2="108" style="stroke:#ddd;stroke-width:2" />
<line x1="654" y1="1" x2="654" y2="108" style="stroke:#ddd;stroke-width:2" />
<line x1="763" y1="1" x2="763" y2="108" style="stroke:#ddd;stroke-width:2" />
<line x1="872" y1="1" x2="872" y2="108" style="stroke:#ddd;stroke-width:2" />
<line x1="981" y1="1" x2="981" y2="108" style="stroke:#ddd;stroke-width:2" />
<line x1="1090" y1="1" x2="1090" y2="108" style="stroke:#ddd;stroke-width:2" />
<line x1="1199" y1="1" x2="1199" y2="108" style="stroke:#ddd;stroke-width:2" />
<line x1="1308" y1="1" x2="1308" y2="108" style="stroke:#ddd;stroke-width:2" />
<line x1="1417" y1="1" x2="1417" y2="108" style="stroke:#ddd;stroke-width:2" />
<line x1="1" y1="54" x2="1525" y2="54" style="stroke:#ddd;stroke-width:2;stroke-dasharray:3 3" />
<line x1="55" y1="1" x2="55" y2="108" style="stroke:#ddd;stroke-width:2;stroke-dasharray:3 3" />
<line x1="164" y1="1" x2="164" y2="108" style="stroke:#ddd;stroke-width:2;stroke-dasharray:3 3" />
<line x1="273" y1="1" x2="273" y2="108" style="stroke:#ddd;stroke-width:2;stroke-dasharray:3 3" />
<line x1="382" y1="1" x2="382" y2="108" style="stroke:#ddd;stroke-width:2;stroke-dasharray:3 3" />
<line x1="491" y1="1" x2="491" y2="108" style="stroke:#ddd;stroke-width:2;stroke-dasharray:3 3" />
<line x1="600" y1="1" x2="600" y2="108" style="stroke:#ddd;stroke-width:2;stroke-dasharray:3 3" />
<line x1="709" y1="1" x2="709" y2="108" style="stroke:#ddd;stroke-width:2;stroke-dasharray:3 3" />
<line x1="818" y1="1" x2="818" y2="108" style="stroke:#ddd;stroke-width:2;stroke-dasharray:3 3" />
<line x1="927" y1="1" x2="927" y2="108" style="stroke:#ddd;stroke-width:2;stroke-dasharray:3 3" />
<line x1="1036" y1="1" x2="1036" y2="108" style="stroke:#ddd;stroke-width:2;stroke-dasharray:3 3" />
<line x1="1145" y1="1" x2="1145" y2="108" style="stroke:#ddd;stroke-width:2;stroke-dasharray:3 3" />
<line x1="1254" y1="1" x2="1254" y2="108" style="stroke:#ddd;stroke-width:2;stroke-dasharray:3 3" />
<line x1="1363" y1="1" x2="1363" y2="108" style="stroke:#ddd;stroke-width:2;stroke-dasharray:3 3" />
<line x1="1472" y1="1" x2="1472" y2="108" style="stroke:#ddd;stroke-width:2;stroke-dasharray:3 3" />
<path d="M29.56,10.21c0.04,0.42,0.08,1.07-0.08,1.67c-0.95,3.52-4.83,10.88-11.85,16.67" style="fill:none;stroke:black;stroke-width:3" />
<circle cx="29.56" cy="10.21" r="5" stroke-width="0" fill="#FF2A00" opacity="0.7" />
<path d="M138.56,10.21c0.04,0.42,0.08,1.07-0.08,1.67c-0.95,3.52-4.83,10.88-11.85,16.67" style="fill:none;stroke:#999;stroke-width:3" />
<path d="M137.81,19.02c1.76,0,2.15,0.15,3.03,0c4.38-0.75,10.05-0.97,16.35-3.03c1.42-0.47,2.85-0.24,3.58-0.04" style="fill:none;stroke:black;stroke-width:3" />
<circle cx="137.81" cy="19.02" r="5" stroke-width="0" fill="#FF2A00" opacity="0.7" />
<path d="M247.56,10.21c0.04,0.42,0.08,1.07-0.08,1.67c-0.95,3.52-4.83,10.88-11.85,16.67" style="fill:none;stroke:#999;stroke-width:3" />
<path d="M246.81,19.02c1.76,0,2.15,0.15,3.03,0c4.38-0.75,10.05-0.97,16.35-3.03c1.42-0.47,2.85-0.24,3.58-0.04" style="fill:none;stroke:#999;stroke-width:3" />
<path d="M231.47,33.97c0.64,0.38,4.34,0.61,5.04,0.53c10.38-1.12,22.43-4.31,32.74-4.71c0.89-0.04,2.84-0.25,4.83,0.4" style="fill:none;stroke:black;stroke-width:3" />
<circle cx="231.47" cy="33.97" r="5" stroke-width="0" fill="#FF2A00" opacity="0.7" />
<path d="M356.56,10.21c0.04,0.42,0.08,1.07-0.08,1.67c-0.95,3.52-4.83,10.88-11.85,16.67" style="fill:none;stroke:#999;stroke-width:3" />
<path d="M355.81,19.02c1.76,0,2.15,0.15,3.03,0c4.38-0.75,10.05-0.97,16.35-3.03c1.42-0.47,2.85-0.24,3.58-0.04" style="fill:none;stroke:#999;stroke-width:3" />
<path d="M340.47,33.97c0.64,0.38,4.34,0.61,5.04,0.53c10.38-1.12,22.43-4.31,32.74-4.71c0.89-0.04,2.84-0.25,4.83,0.4" style="fill:none;stroke:#999;stroke-width:3" />
<path d="M364.35,20.55c0.25,0.68,0.49,1.37,0.35,2.2c-2.45,14.75-6.2,21-15.1,26.93" style="fill:none;stroke:black;stroke-width:3" />
<circle cx="364.35" cy="20.55" r="5" stroke-width="0" fill="#FF2A00" opacity="0.7" />
<path d="M465.56,10.21c0.04,0.42,0.08,1.07-0.08,1.67c-0.95,3.52-4.83,10.88-11.85,16.67" style="fill:none;stroke:#999;stroke-width:3" />
<path d="M464.81,19.02c1.76,0,2.15,0.15,3.03,0c4.38-0.75,10.05-0.97,16.35-3.03c1.42-0.47,2.85-0.24,3.58-0.04" style="fill:none;stroke:#999;stroke-width:3" />
<path d="M449.47,33.97c0.64,0.38,4.34,0.61,5.04,0.53c10.38-1.12,22.43-4.31,32.74-4.71c0.89-0.04,2.84-0.25,4.83,0.4" style="fill:none;stroke:#999;stroke-width:3" />
<path d="M473.35,20.55c0.25,0.68,0.49,1.37,0.35,2.2c-2.45,14.75-6.2,21-15.1,26.93" style="fill:none;stroke:#999;stroke-width:3" />
<path d="M475.24,36c6.74,3.15,12.78,8.56,13.95,11.95" style="fill:none;stroke:black;stroke-width:3" />
<circle cx="475.24" cy="36.0" r="5" stroke-width="0" fill="#FF2A00" opacity="0.7" />
<path d="M574.56,10.21c0.04,0.42,0.08,1.07-0.08,1.67c-0.95,3.52-4.83,10.88-11.85,16.67" style="fill:none;stroke:#999;stroke-width:3" />
<path d="M573.81,19.02c1.76,0,2.15,0.15,3.03,0c4.38-0.75,10.05-0.97,16.35-3.03c1.42-0.47,2.85-0.24,3.58-0.04" style="fill:none;stroke:#999;stroke-width:3" />
<path d="M558.47,33.97c0.64,0.38,4.34,0.61,5.04,0.53c10.38-1.12,22.43-4.31,32.74-4.71c0.89-0.04,2.84-0.25,4.83,0.4" style="fill:none;stroke:#999;stroke-width:3" />
<path d="M582.35,20.55c0.25,0.68,0.49,1.37,0.35,2.2c-2.45,14.75-6.2,21-15.1,26.93" style="fill:none;stroke:#999;stroke-width:3" />
<path d="M584.24,36c6.74,3.15,12.78,8.56,13.95,11.95" style="fill:none;stroke:#999;stroke-width:3" />
<path d="M605.29,17.2c0.41,0.46,0.83,0.85,1.02,1.42c1.43,4.57,3.14,16.68,4.12,24.89" style="fill:none;stroke:black;stroke-width:3" />
<circle cx="605.29" cy="17.2" r="5" stroke-width="0" fill="#FF2A00" opacity="0.7" />
<path d="M683.56,10.21c0.04,0.42,0.08,1.07-0.08,1.67c-0.95,3.52-4.83,10.88-11.85,16.67" style="fill:none;stroke:#999;stroke-width:3" />
<path d="M682.81,19.02c1.76,0,2.15,0.15,3.03,0c4.38-0.75,10.05-0.97,16.35-3.03c1.42-0.47,2.85-0.24,3.58-0.04" style="fill:none;stroke:#999;stroke-width:3" />
<path d="M667.47,33.97c0.64,0.38,4.34,0.61,5.04,0.53c10.38-1.12,22.43-4.31,32.74-4.71c0.89-0.04,2.84-0.25,4.83,0.4" style="fill:none;stroke:#999;stroke-width:3" />
<path d="M691.35,20.55c0.25,0.68,0.49,1.37,0.35,2.2c-2.45,14.75-6.2,21-15.1,26.93" style="fill:none;stroke:#999;stroke-width:3" />
<path d="M693.24,36c6.74,3.15,12.78,8.56,13.95,11.95" style="fill:none;stroke:#999;stroke-width:3" />
<path d="M714.29,17.2c0.41,0.46,0.83,0.85,1.02,1.42c1.43,4.57,3.14,16.68,4.12,24.89" style="fill:none;stroke:#999;stroke-width:3" />
<path d="M715.85,19.37c8.43-0.98,19.08-2.55,25.74-3.21c1.79-0.18,2.87,1.69,2.61,2.81c-1.08,4.62-2.85,13.75-4.46,20.12" style="fill:none;stroke:black;stroke-width:3" />
<circle cx="715.85" cy="19.37" r="5" stroke-width="0" fill="#FF2A00" opacity="0.7" />
<path d="M792.56,10.21c0.04,0.42,0.08,1.07-0.08,1.67c-0.95,3.52-4.83,10.88-11.85,16.67" style="fill:none;stroke:#999;stroke-width:3" />
<path d="M791.81,19.02c1.76,0,2.15,0.15,3.03,0c4.38-0.75,10.05-0.97,16.35-3.03c1.42-0.47,2.85-0.24,3.58-0.04" style="fill:none;stroke:#999;stroke-width:3" />
<path d="M776.47,33.97c0.64,0.38,4.34,0.61,5.04,0.53c10.38-1.12,22.43-4.31,32.74-4.71c0.89-0.04,2.84-0.25,4.83,0.4" style="fill:none;stroke:#999;stroke-width:3" />
<path d="M800.35,20.55c0.25,0.68,0.49,1.37,0.35,2.2c-2.45,14.75-6.2,21-15.1,26.93" style="fill:none;stroke:#999;stroke-width:3" />
<path d="M802.24,36c6.74,3.15,12.78,8.56,13.95,11.95" style="fill:none;stroke:#999;stroke-width:3" />
<path d="M823.29,17.2c0.41,0.46,0.83,0.85,1.02,1.42c1.43,4.57,3.14,16.68,4.12,24.89" style="fill:none;stroke:#999;stroke-width:3" />
<path d="M824.85,19.37c8.43-0.98,19.08-2.55,25.74-3.21c1.79-0.18,2.87,1.69,2.61,2.81c-1.08,4.62-2.85,13.75-4.46,20.12" style="fill:none;stroke:#999;stroke-width:3" />
<path d="M828.62,40.88c6.65-0.55,14.2-1.43,22.41-1.94" style="fill:none;stroke:black;stroke-width:3" />
<circle cx="828.62" cy="40.88" r="5" stroke-width="0" fill="#FF2A00" opacity="0.7" />
<path d="M901.56,10.21c0.04,0.42,0.08,1.07-0.08,1.67c-0.95,3.52-4.83,10.88-11.85,16.67" style="fill:none;stroke:#999;stroke-width:3" />
<path d="M900.81,19.02c1.76,0,2.15,0.15,3.03,0c4.38-0.75,10.05-0.97,16.35-3.03c1.42-0.47,2.85-0.24,3.58-0.04" style="fill:none;stroke:#999;stroke-width:3" />
<path d="M885.47,33.97c0.64,0.38,4.34,0.61,5.04,0.53c10.38-1.12,22.43-4.31,32.74-4.71c0.89-0.04,2.84-0.25,4.83,0.4" style="fill:none;stroke:#999;stroke-width:3" />
<path d="M909.35,20.55c0.25,0.68,0.49,1.37,0.35,2.2c-2.45,14.75-6.2,21-15.1,26.93" style="fill:none;stroke:#999;stroke-width:3" />
<path d="M911.24,36c6.74,3.15,12.78,8.56,13.95,11.95" style="fill:none;stroke:#999;stroke-width:3" />
<path d="M932.29,17.2c0.41,0.46,0.83,0.85,1.02,1.42c1.43,4.57,3.14,16.68,4.12,24.89" style="fill:none;stroke:#999;stroke-width:3" />
<path d="M933.85,19.37c8.43-0.98,19.08-2.55,25.74-3.21c1.79-0.18,2.87,1.69,2.61,2.81c-1.08,4.62-2.85,13.75-4.46,20.12" style="fill:none;stroke:#999;stroke-width:3" />
<path d="M937.62,40.88c6.65-0.55,14.2-1.43,22.41-1.94" style="fill:none;stroke:#999;stroke-width:3" />
<path d="M898.09,55.08c1.36,0.46,3.85,0.59,5.21,0.46c12.85-1.23,29.79-3.65,48.2-4.18c2.26-0.06,3.62,0.22,4.76,0.45" style="fill:none;stroke:black;stroke-width:3" />
<circle cx="898.09" cy="55.08" r="5" stroke-width="0" fill="#FF2A00" opacity="0.7" />
<path d="M1010.56,10.21c0.04,0.42,0.08,1.07-0.08,1.67c-0.95,3.52-4.83,10.88-11.85,16.67" style="fill:none;stroke:#999;stroke-width:3" />
<path d="M1009.81,19.02c1.76,0,2.15,0.15,3.03,0c4.38-0.75,10.05-0.97,16.35-3.03c1.42-0.47,2.85-0.24,3.58-0.04" style="fill:none;stroke:#999;stroke-width:3" />
<path d="M994.47,33.97c0.64,0.38,4.34,0.61,5.04,0.53c10.38-1.12,22.43-4.31,32.74-4.71c0.89-0.04,2.84-0.25,4.83,0.4" style="fill:none;stroke:#999;stroke-width:3" />
<path d="M1018.35,20.55c0.25,0.68,0.49,1.37,0.35,2.2c-2.45,14.75-6.2,21-15.1,26.93" style="fill:none;stroke:#999;stroke-width:3" />
<path d="M1020.24,36c6.74,3.15,12.78,8.56,13.95,11.95" style="fill:none;stroke:#999;stroke-width:3" />
<path d="M1041.29,17.2c0.41,0.46,0.83,0.85,1.02,1.42c1.43,4.57,3.14,16.68,4.12,24.89" style="fill:none;stroke:#999;stroke-width:3" />
<path d="M1042.85,19.37c8.43-0.98,19.08-2.55,25.74-3.21c1.79-0.18,2.87,1.69,2.61,2.81c-1.08,4.62-2.85,13.75-4.46,20.12" style="fill:none;stroke:#999;stroke-width:3" />
<path d="M1046.62,40.88c6.65-0.55,14.2-1.43,22.41-1.94" style="fill:none;stroke:#999;stroke-width:3" />
<path d="M1007.09,55.08c1.36,0.46,3.85,0.59,5.21,0.46c12.85-1.23,29.79-3.65,48.2-4.18c2.26-0.06,3.62,0.22,4.76,0.45" style="fill:none;stroke:#999;stroke-width:3" />
<path d="M1018.14,57.99c0.13,0.66,0.51,1.3,0.51,2.07c0,0.77,0.44,20.84,0.44,23.62" style="fill:none;stroke:black;stroke-width:3" />
<circle cx="1018.14" cy="57.99" r="5" stroke-width="0" fill="#FF2A00" opacity="0.7" />
<path d="M1119.56,10.21c0.04,0.42,0.08,1.07-0.08,1.67c-0.95,3.52-4.83,10.88-11.85,16.67" style="fill:none;stroke:#999;stroke-width:3" />
<path d="M1118.81,19.02c1.76,0,2.15,0.15,3.03,0c4.38-0.75,10.05-0.97,16.35-3.03c1.42-0.47,2.85-0.24,3.58-0.04" style="fill:none;stroke:#999;stroke-width:3" />
<path d="M1103.47,33.97c0.64,0.38,4.34,0.61,5.04,0.53c10.38-1.12,22.43-4.31,32.74-4.71c0.89-0.04,2.84-0.25,4.83,0.4" style="fill:none;stroke:#999;stroke-width:3" />
<path d="M1127.35,20.55c0.25,0.68,0.49,1.37,0.35,2.2c-2.45,14.75-6.2,21-15.1,26.93" style="fill:none;stroke:#999;stroke-width:3" />
<path d="M1129.24,36c6.74,3.15,12.78,8.56,13.95,11.95" style="fill:none;stroke:#999;stroke-width:3" />
<path d="M1150.29,17.2c0.41,0.46,0.83,0.85,1.02,1.42c1.43,4.57,3.14,16.68,4.12,24.89" style="fill:none;stroke:#999;stroke-width:3" />
<path d="M1151.85,19.37c8.43-0.98,19.08-2.55,25.74-3.21c1.79-0.18,2.87,1.69,2.61,2.81c-1.08,4.62-2.85,13.75-4.46,20.12" style="fill:none;stroke:#999;stroke-width:3" />
<path d="M1155.62,40.88c6.65-0.55,14.2-1.43,22.41-1.94" style="fill:none;stroke:#999;stroke-width:3" />
<path d="M1116.0900000000001,55.08c1.36,0.46,3.85,0.59,5.21,0.46c12.85-1.23,29.79-3.65,48.2-4.18c2.26-0.06,3.62,0.22,4.76,0.45" style="fill:none;stroke:#999;stroke-width:3" />
<path d="M1127.1399999999999,57.99c0.13,0.66,0.51,1.3,0.51,2.07c0,0.77,0.44,20.84,0.44,23.62" style="fill:none;stroke:#999;stroke-width:3" />
<path d="M1128.14,64.3C1133.75,63.75 1155.0,62 1162.07,61.72" style="fill:none;stroke:black;stroke-width:3" />
<circle cx="1128.14" cy="64.3" r="5" stroke-width="0" fill="#FF2A00" opacity="0.7" />
<path d="M1228.56,10.21c0.04,0.42,0.08,1.07-0.08,1.67c-0.95,3.52-4.83,10.88-11.85,16.67" style="fill:none;stroke:#999;stroke-width:3" />
<path d="M1227.81,19.02c1.76,0,2.15,0.15,3.03,0c4.38-0.75,10.05-0.97,16.35-3.03c1.42-0.47,2.85-0.24,3.58-0.04" style="fill:none;stroke:#999;stroke-width:3" />
<path d="M1212.47,33.97c0.64,0.38,4.34,0.61,5.04,0.53c10.38-1.12,22.43-4.31,32.74-4.71c0.89-0.04,2.84-0.25,4.83,0.4" style="fill:none;stroke:#999;stroke-width:3" />
<path d="M1236.35,20.55c0.25,0.68,0.49,1.37,0.35,2.2c-2.45,14.75-6.2,21-15.1,26.93" style="fill:none;stroke:#999;stroke-width:3" />
<path d="M1238.24,36c6.74,3.15,12.78,8.56,13.95,11.95" style="fill:none;stroke:#999;stroke-width:3" />
<path d="M1259.29,17.2c0.41,0.46,0.83,0.85,1.02,1.42c1.43,4.57,3.14,16.68,4.12,24.89" style="fill:none;stroke:#999;stroke-width:3" />
<path d="M1260.85,19.37c8.43-0.98,19.08-2.55,25.74-3.21c1.79-0.18,2.87,1.69,2.61,2.81c-1.08,4.62-2.85,13.75-4.46,20.12" style="fill:none;stroke:#999;stroke-width:3" />
<path d="M1264.62,40.88c6.65-0.55,14.2-1.43,22.41-1.94" style="fill:none;stroke:#999;stroke-width:3" />
<path d="M1225.0900000000001,55.08c1.36,0.46,3.85,0.59,5.21,0.46c12.85-1.23,29.79-3.65,48.2-4.18c2.26-0.06,3.62,0.22,4.76,0.45" style="fill:none;stroke:#999;stroke-width:3" />
<path d="M1236.1399999999999,57.99c0.13,0.66,0.51,1.3,0.51,2.07c0,0.77,0.44,20.84,0.44,23.62" style="fill:none;stroke:#999;stroke-width:3" />
<path d="M1237.14,64.3C1242.75,63.75 1264.0,62 1271.07,61.72" style="fill:none;stroke:#999;stroke-width:3" />
<path d="M1237.4,73.33c12.76-1.13,17.86-2.1,33.43-2.9" style="fill:none;stroke:black;stroke-width:3" />
<circle cx="1237.4" cy="73.33" r="5" stroke-width="0" fill="#FF2A00" opacity="0.7" />
<path d="M1337.56,10.21c0.04,0.42,0.08,1.07-0.08,1.67c-0.95,3.52-4.83,10.88-11.85,16.67" style="fill:none;stroke:#999;stroke-width:3" />
<path d="M1336.81,19.02c1.76,0,2.15,0.15,3.03,0c4.38-0.75,10.05-0.97,16.35-3.03c1.42-0.47,2.85-0.24,3.58-0.04" style="fill:none;stroke:#999;stroke-width:3" />
<path d="M1321.47,33.97c0.64,0.38,4.34,0.61,5.04,0.53c10.38-1.12,22.43-4.31,32.74-4.71c0.89-0.04,2.84-0.25,4.83,0.4" style="fill:none;stroke:#999;stroke-width:3" />
<path d="M1345.35,20.55c0.25,0.68,0.49,1.37,0.35,2.2c-2.45,14.75-6.2,21-15.1,26.93" style="fill:none;stroke:#999;stroke-width:3" />
<path d="M1347.24,36c6.74,3.15,12.78,8.56,13.95,11.95" style="fill:none;stroke:#999;stroke-width:3" />
<path d="M1368.29,17.2c0.41,0.46,0.83,0.85,1.02,1.42c1.43,4.57,3.14,16.68,4.12,24.89" style="fill:none;stroke:#999;stroke-width:3" />
<path d="M1369.85,19.37c8.43-0.98,19.08-2.55,25.74-3.21c1.79-0.18,2.87,1.69,2.61,2.81c-1.08,4.62-2.85,13.75-4.46,20.12" style="fill:none;stroke:#999;stroke-width:3" />
<path d="M1373.62,40.88c6.65-0.55,14.2-1.43,22.41-1.94" style="fill:none;stroke:#999;stroke-width:3" />
<path d="M1334.0900000000001,55.08c1.36,0.46,3.85,0.59,5.21,0.46c12.85-1.23,29.79-3.65,48.2-4.18c2.26-0.06,3.62,0.22,4.76,0.45" style="fill:none;stroke:#999;stroke-width:3" />
<path d="M1345.1399999999999,57.99c0.13,0.66,0.51,1.3,0.51,2.07c0,0.77,0.44,20.84,0.44,23.62" style="fill:none;stroke:#999;stroke-width:3" />
<path d="M1346.14,64.3C1351.75,63.75 1373.0,62 1380.07,61.72" style="fill:none;stroke:#999;stroke-width:3" />
<path d="M1346.4,73.33c12.76-1.13,17.86-2.1,33.43-2.9" style="fill:none;stroke:#999;stroke-width:3" />
<path d="M1324.25,84.86c0.5,0.63,2.23,1.51,3.95,1.25c6.93-1.04,57.14-6.93,67.78-8.6" style="fill:none;stroke:black;stroke-width:3" />
<circle cx="1324.25" cy="84.86" r="5" stroke-width="0" fill="#FF2A00" opacity="0.7" />
<path d="M1446.56,10.21c0.04,0.42,0.08,1.07-0.08,1.67c-0.95,3.52-4.83,10.88-11.85,16.67" style="fill:none;stroke:#999;stroke-width:3" />
<path d="M1445.81,19.02c1.76,0,2.15,0.15,3.03,0c4.38-0.75,10.05-0.97,16.35-3.03c1.42-0.47,2.85-0.24,3.58-0.04" style="fill:none;stroke:#999;stroke-width:3" />
<path d="M1430.47,33.97c0.64,0.38,4.34,0.61,5.04,0.53c10.38-1.12,22.43-4.31,32.74-4.71c0.89-0.04,2.84-0.25,4.83,0.4" style="fill:none;stroke:#999;stroke-width:3" />
<path d="M1454.35,20.55c0.25,0.68,0.49,1.37,0.35,2.2c-2.45,14.75-6.2,21-15.1,26.93" style="fill:none;stroke:#999;stroke-width:3" />
<path d="M1456.24,36c6.74,3.15,12.78,8.56,13.95,11.95" style="fill:none;stroke:#999;stroke-width:3" />
<path d="M1477.29,17.2c0.41,0.46,0.83,0.85,1.02,1.42c1.43,4.57,3.14,16.68,4.12,24.89" style="fill:none;stroke:#999;stroke-width:3" />
<path d="M1478.85,19.37c8.43-0.98,19.08-2.55,25.74-3.21c1.79-0.18,2.87,1.69,2.61,2.81c-1.08,4.62-2.85,13.75-4.46,20.12" style="fill:none;stroke:#999;stroke-width:3" />
<path d="M1482.62,40.88c6.65-0.55,14.2-1.43,22.41-1.94" style="fill:none;stroke:#999;stroke-width:3" />
<path d="M1443.0900000000001,55.08c1.36,0.46,3.85,0.59,5.21,0.46c12.85-1.23,29.79-3.65,48.2-4.18c2.26-0.06,3.62,0.22,4.76,0.45" style="fill:none;stroke:#999;stroke-width:3" />
<path d="M1454.1399999999999,57.99c0.13,0.66,0.51,1.3,0.51,2.07c0,0.77,0.44,20.84,0.44,23.62" style="fill:none;stroke:#999;stroke-width:3" />
<path d="M1455.14,64.3C1460.75,63.75 1482.0,62 1489.07,61.72" style="fill:none;stroke:#999;stroke-width:3" />
<path d="M1455.4,73.33c12.76-1.13,17.86-2.1,33.43-2.9" style="fill:none;stroke:#999;stroke-width:3" />
<path d="M1433.25,84.86c0.5,0.63,2.23,1.51,3.95,1.25c6.93-1.04,57.14-6.93,67.78-8.6" style="fill:none;stroke:#999;stroke-width:3" />
<path d="M1488.69,54.31c0.59,0.74,0.65,0.87,0.65,1.69c0,0.82,0.09,36.51,0.09,43.25" style="fill:none;stroke:black;stroke-width:3" />
<circle cx="1488.69" cy="54.31" r="5" stroke-width="0" fill="#FF2A00" opacity="0.7" />
</svg>