<!-- 080d9 -->
<svg width="981px" height="109px" viewBox="0 0 981px 109px" xmlns="http://www.w3.org/2000/svg" xmlns:xlink="http://www.w3.org/1999/xlink" xml:space="preserve" version="1.1"  baseProfile="full">
<line x1="1" y1="1" x2="980" y2="1" style="stroke:#ddd;stroke-width:2" />
<line x1="1" y1="1" x2="1" y2="108" style="stroke:#ddd;stroke-width:2" />
<line x1="1" y1="108" x2="980" y2="108" style="stroke:#ddd;stroke-width:2" />
<line x1="980" y1="1" x2="980" y2="108" style="stroke:#ddd;stroke-width:2" />
<line x1="109" y1="1" x2="109" y2="108" style="stroke:#ddd;stroke-width:2" />
<line x1="218" y1="1" x2="218" y2="108" style="stroke:#ddd;stroke-width:2" />
<line x1="327" y1="1" x2="327" y2="108" style="stroke:#ddd;stroke-width:2" />
<line x1="436" y1="1" x2="436" y2="108" style="stroke:#ddd;stroke-width:2" />
<line x1="545" y1="1" x2="545" y2="108" style="stroke:#ddd;stroke-width:2" />
<line x1="654" y1="1" x2="654" y2="108" style="stroke:#ddd;stroke-width:2" />
<line x1="763" y1="1" x2="763" y2="108" style="stroke:#ddd;stroke-width:2" />
<line x1="872" y1="1" x2="872" y2="108" style="stroke:#ddd;stroke-width:2" />
<line x1="1" y1="54" x2="980" y2="54" style="stroke:#ddd;stroke-width:2;stroke-dasharray:3 3" />
<line x1="55" y1="1" x2="55" y2="108" style="stroke:#ddd;stroke-width:2;stroke-dasharray:3 3" />
<line x1="164" y1="1" x2="164" y2="108" style="stroke:#ddd;stroke-width:2;stroke-dasharray:3 3" />
<line x1="273" y1="1" x2="273" y2="108" style="stroke:#ddd;stroke-width:2;stroke-dasharray:3 3" />
<line x1="382" y1="1" x2="382" y2="108" style="stroke:#ddd;stroke-width:2;stroke-dasharray:3 3" />
<line x1="491" y1="1" x2="491" y2="108" style="stroke:#ddd;stroke-width:2;stroke-dasharray:3 3" />
<line x1="600" y1="1" x2="600" y2="108" style="stroke:#ddd;stroke-width:2;stroke-dasharray:3 3" />
<line x1="709" y1="1" x2="709" y2="108" style="stroke:#ddd;stroke-width:2;stroke-dasharray:3 3" />
<line x1="818" y1="1" x2="818" y2="108" style="stroke:#ddd;stroke-width:2;stroke-dasharray:3 3" />
<line x1="927" y1="1" x2="927" y2="108" style="stroke:#ddd;stroke-width:2;stroke-dasharray:3 3" />
<path d="M18.58,19.08c0.92,0.92,1.17,3.55,1.17,4.5c0,6.92,0.13,25.48-0.33,33.33c-0.66,11.18-2.17,25.33-9,36" style="fill:none;stroke:black;stroke-width:3" />
<circle cx="18.58" cy="19.08" r="5" stroke-width="0" fill="#FF2A00" opacity="0.7" />
<path d="M127.58,19.08c0.92,0.92,1.17,3.55,1.17,4.5c0,6.92,0.13,25.48-0.33,33.33c-0.66,11.18-2.17,25.33-9,36" style="fill:none;stroke:#999;stroke-width:3" />
<path d="M129.82,20.97c2.41-0.06,12.91-2.25,14.71-2.37c3.21-0.22,4.01,1.76,4.01,3.07c0,3.11-0.6,45.55-0.6,63.22c0,12.15-4.64,3.82-6.69,2.37" style="fill:none;stroke:black;stroke-width:3" />
<circle cx="129.82" cy="20.97" r="5" stroke-width="0" fill="#FF2A00" opacity="0.7" />
<path d="M236.57999999999998,19.08c0.92,0.92,1.17,3.55,1.17,4.5c0,6.92,0.13,25.48-0.33,33.33c-0.66,11.18-2.17,25.33-9,36" style="fill:none;stroke:#999;stroke-width:3" />
<path d="M238.82,20.97c2.41-0.06,12.91-2.25,14.71-2.37c3.21-0.22,4.01,1.76,4.01,3.07c0,3.11-0.6,45.55-0.6,63.22c0,12.15-4.64,3.82-6.69,2.37" style="fill:none;stroke:#999;stroke-width:3" />
<path d="M238.15,41.18c4.92-0.34,13.92-1.99,18.25-2.02" style="fill:none;stroke:black;stroke-width:3" />
<circle cx="238.15" cy="41.18" r="5" stroke-width="0" fill="#FF2A00" opacity="0.7" />
<path d="M345.58,19.08c0.92,0.92,1.17,3.55,1.17,4.5c0,6.92,0.13,25.48-0.33,33.33c-0.66,11.18-2.17,25.33-9,36" style="fill:none;stroke:#999;stroke-width:3" />
<path d="M347.82,20.97c2.41-0.06,12.91-2.25,14.71-2.37c3.21-0.22,4.01,1.76,4.01,3.07c0,3.11-0.6,45.55-0.6,63.22c0,12.15-4.64,3.82-6.69,2.37" style="fill:none;stroke:#999;stroke-width:3" />
<path d="M347.15,41.18c4.92-0.34,13.92-1.99,18.25-2.02" style="fill:none;stroke:#999;stroke-width:3" />
<path d="M346.42,60.25c4.43-0.1,13.48-1.66,19.5-2.17" style="fill:none;stroke:black;stroke-width:3" />
<circle cx="346.42" cy="60.25" r="5" stroke-width="0" fill="#FF2A00" opacity="0.7" />
<path d="M454.58,19.08c0.92,0.92,1.17,3.55,1.17,4.5c0,6.92,0.13,25.48-0.33,33.33c-0.66,11.18-2.17,25.33-9,36" style="fill:none;stroke:#999;stroke-width:3" />
<path d="M456.82,20.97c2.41-0.06,12.91-2.25,14.71-2.37c3.21-0.22,4.01,1.76,4.01,3.07c0,3.11-0.6,45.55-0.6,63.22c0,12.15-4.64,3.82-6.69,2.37" style="fill:none;stroke:#999;stroke-width:3" />
<path d="M456.15,41.18c4.92-0.34,13.92-1.99,18.25-2.02" style="fill:none;stroke:#999;stroke-width:3" />
<path d="M455.42,60.25c4.43-0.1,13.48-1.66,19.5-2.17" style="fill:none;stroke:#999;stroke-width:3" />
<path d="M500.58,14.42c0.06,0.81,0.2,3.6-0.17,4.73c-2.36,7.33-8.59,20.34-18.67,30.93" style="fill:none;stroke:black;stroke-width:3" />
<circle cx="500.58" cy="14.42" r="5" stroke-width="0" fill="#FF2A00" opacity="0.7" />
<path d="M563.5799999999999,19.08c0.92,0.92,1.17,3.55,1.17,4.5c0,6.92,0.13,25.48-0.33,33.33c-0.66,11.18-2.17,25.33-9,36" style="fill:none;stroke:#999;stroke-width:3" />
<path d="M565.8199999999999,20.97c2.41-0.06,12.91-2.25,14.71-2.37c3.21-0.22,4.01,1.76,4.01,3.07c0,3.11-0.6,45.55-0.6,63.22c0,12.15-4.64,3.82-6.69,2.37" style="fill:none;stroke:#999;stroke-width:3" />
<path d="M565.15,41.18c4.92-0.34,13.92-1.99,18.25-2.02" style="fill:none;stroke:#999;stroke-width:3" />
<path d="M564.4200000000001,60.25c4.43-0.1,13.48-1.66,19.5-2.17" style="fill:none;stroke:#999;stroke-width:3" />
<path d="M609.5799999999999,14.42c0.06,0.81,0.2,3.6-0.17,4.73c-2.36,7.33-8.59,20.34-18.67,30.93" style="fill:none;stroke:#999;stroke-width:3" />
<path d="M603.95,34.27c0.91,0.36,3.89,0.04,4.8-0.02c12.05-0.75,19-1.75,28.67-3.5c1.66-0.3,3.36,0.14,4.67,0.5" style="fill:none;stroke:black;stroke-width:3" />
<circle cx="603.95" cy="34.27" r="5" stroke-width="0" fill="#FF2A00" opacity="0.7" />
<path d="M672.5799999999999,19.08c0.92,0.92,1.17,3.55,1.17,4.5c0,6.92,0.13,25.48-0.33,33.33c-0.66,11.18-2.17,25.33-9,36" style="fill:none;stroke:#999;stroke-width:3" />
<path d="M674.8199999999999,20.97c2.41-0.06,12.91-2.25,14.71-2.37c3.21-0.22,4.01,1.76,4.01,3.07c0,3.11-0.6,45.55-0.6,63.22c0,12.15-4.64,3.82-6.69,2.37" style="fill:none;stroke:#999;stroke-width:3" />
<path d="M674.15,41.18c4.92-0.34,13.92-1.99,18.25-2.02" style="fill:none;stroke:#999;stroke-width:3" />
<path d="M673.4200000000001,60.25c4.43-0.1,13.48-1.66,19.5-2.17" style="fill:none;stroke:#999;stroke-width:3" />
<path d="M718.5799999999999,14.42c0.06,0.81,0.2,3.6-0.17,4.73c-2.36,7.33-8.59,20.34-18.67,30.93" style="fill:none;stroke:#999;stroke-width:3" />
<path d="M712.95,34.27c0.91,0.36,3.89,0.04,4.8-0.02c12.05-0.75,19-1.75,28.67-3.5c1.66-0.3,3.36,0.14,4.67,0.5" style="fill:none;stroke:#999;stroke-width:3" />
<path d="M721.25,35.42c0.92,0.92,1.02,2.84,1.19,3.76c0.17,0.91-0.02,49.71-0.19,55.41" style="fill:none;stroke:black;stroke-width:3" />
<circle cx="721.25" cy="35.42" r="5" stroke-width="0" fill="#FF2A00" opacity="0.7" />
<path d="M781.5799999999999,19.08c0.92,0.92,1.17,3.55,1.17,4.5c0,6.92,0.13,25.48-0.33,33.33c-0.66,11.18-2.17,25.33-9,36" style="fill:none;stroke:#999;stroke-width:3" />
<path d="M783.8199999999999,20.97c2.41-0.06,12.91-2.25,14.71-2.37c3.21-0.22,4.01,1.76,4.01,3.07c0,3.11-0.6,45.55-0.6,63.22c0,12.15-4.64,3.82-6.69,2.37" style="fill:none;stroke:#999;stroke-width:3" />
<path d="M783.15,41.18c4.92-0.34,13.92-1.99,18.25-2.02" style="fill:none;stroke:#999;stroke-width:3" />
<path d="M782.4200000000001,60.25c4.43-0.1,13.48-1.66,19.5-2.17" style="fill:none;stroke:#999;stroke-width:3" />
<path d="M827.5799999999999,14.42c0.06,0.81,0.2,3.6-0.17,4.73c-2.36,7.33-8.59,20.34-18.67,30.93" style="fill:none;stroke:#999;stroke-width:3" />
<path d="M821.95,34.27c0.91,0.36,3.89,0.04,4.8-0.02c12.05-0.75,19-1.75,28.67-3.5c1.66-0.3,3.36,0.14,4.67,0.5" style="fill:none;stroke:#999;stroke-width:3" />
<path d="M830.25,35.42c0.92,0.92,1.02,2.84,1.19,3.76c0.17,0.91-0.02,49.71-0.19,55.41" style="fill:none;stroke:#999;stroke-width:3" />
<path d="M831.66,50.7c5.7-0.8,12.98-1.82,19.43-2.62c1.52-0.19,3.21-0.24,4.83,0.17" style="fill:none;stroke:black;stroke-width:3" />
<circle cx="831.66" cy="50.7" r="5" stroke-width="0" fill="#FF2A00" opacity="0.7" />
<path d="M890.5799999999999,19.08c0.92,0.92,1.17,3.55,1.17,4.5c0,6.92,0.13,25.48-0.33,33.33c-0.66,11.18-2.17,25.33-9,36" style="fill:none;stroke:#999;stroke-width:3" />
<path d="M892.8199999999999,20.97c2.41-0.06,12.91-2.25,14.71-2.37c3.21-0.22,4.01,1.76,4.01,3.07c0,3.11-0.6,45.55-0.6,63.22c0,12.15-4.64,3.82-6.69,2.37" style="fill:none;stroke:#999;stroke-width:3" />
<path d="M892.15,41.18c4.92-0.34,13.92-1.99,18.25-2.02" style="fill:none;stroke:#999;stroke-width:3" />
<path d="M891.4200000000001,60.25c4.43-0.1,13.48-1.66,19.5-2.17" style="fill:none;stroke:#999;stroke-width:3" />
<path d="M936.5799999999999,14.42c0.06,0.81,0.2,3.6-0.17,4.73c-2.36,7.33-8.59,20.34-18.67,30.93" style="fill:none;stroke:#999;stroke-width:3" />
<path d="M930.95,34.27c0.91,0.36,3.89,0.04,4.8-0.02c12.05-0.75,19-1.75,28.67-3.5c1.66-0.3,3.36,0.14,4.67,0.5" style="fill:none;stroke:#999;stroke-width:3" />
<path d="M939.25,35.42c0.92,0.92,1.02,2.84,1.19,3.76c0.17,0.91-0.02,49.71-0.19,55.41" style="fill:none;stroke:#999;stroke-width:3" />
<path d="M940.66,50.7c5.7-0.8,12.98-1.82,19.43-2.62c1.52-0.19,3.21-0.24,4.83,0.17" style="fill:none;stroke:#999;stroke-width:3" />
<path d="M941.08,68.08c4.42-0.42,14.17-1.58,20.67-2.17c0.91-0.08,4.88-0.25,5.33-0.17" style="fill:none;stroke:black;stroke-width:3" />
<circle cx="941.08" cy="68.08" r="5" stroke-width="0" fill="#FF2A00" opacity="0.7" />
</svg>