<!-- 0817a -->
<svg width="1417px" height="109px" viewBox="0 0 1417px 109px" xmlns="http://www.w3.org/2000/svg" xmlns:xlink="http://www.w3.org/1999/xlink" xml:space="preserve" version="1.1"  baseProfile="full">
<line x1="1" y1="1" x2="1416" y2="1" style="stroke:#ddd;stroke-width:2" />
<line x1="1" y1="1" x2="1" y2="108" style="stroke:#ddd;stroke-width:2" />
<line x1="1" y1="108" x2="1416" y2="108" style="stroke:#ddd;stroke-width:2" />
<line x1="1416" y1="1" x2="1416" y2="108" style="stroke:#ddd;stroke-width:2" />
<line x1="109" y1="1" x2="109" y2="108" style="stroke:#ddd;stroke-width:2" />
<line x1="218" y1="1" x2="218" y2="108" style="stroke:#ddd;stroke-width:2" />
<line x1="327" y1="1" x2="327" y2="108" style="stroke:#ddd;stroke-width:2" />
<line x1="436" y1="1" x2="436" y2="108" style="stroke:#ddd;stroke-width:2" />
<line x1="545" y1="1" x2="545" y2="108" style="stroke:#ddd;stroke-width:2" />
<line x1="654" y1="1" x2="654" y2="108" style="stroke:#ddd;stroke-width:2" />
<line x1="763" y1="1" x2="763" y2="108" style="stroke:#ddd;stroke-width:2" />
<line x1="872" y1="1" x2="872" y2="108" style="stroke:#ddd;stroke-width:2" />
<line x1="981" y1="1" x2="981" y2="108" style="stroke:#ddd;stroke-width:2" />
<line x1="1090" y1="1" x2="1090" y2="108" style="stroke:#ddd;stroke-width:2" />
<line x1="1199" y1="1" x2="1199" y2="108" style="stroke:#ddd;stroke-width:2" />
<line x1="1308" y1="1" x2="1308" y2="108" style="stroke:#ddd;stroke-width:2" />
<line x1="1" y1="54" x2="1416" y2="54" style="stroke:#ddd;stroke-width:2;stroke-dasharray:3 3" />
<line x1="55" y1="1" x2="55" y2="108" style="stroke:#ddd;stroke-width:2;stroke-dasharray:3 3" />
<line x1="164" y1="1" x2="164" y2="108" style="stroke:#ddd;stroke-width:2;stroke-dasharray:3 3" />
<line x1="273" y1="1" x2="273" y2="108" style="stroke:#ddd;stroke-width:2;stroke-dasharray:3 3" />
<line x1="382" y1="1" x2="382" y2="108" style="stroke:#ddd;stroke-width:2;stroke-dasharray:3 3" />
<line x1="491" y1="1" x2="491" y2="108" style="stroke:#ddd;stroke-width:2;stroke-dasharray:3 3" />
<line x1="600" y1="1" x2="600" y2="108" style="stroke:#ddd;stroke-width:2;stroke-dasharray:3 3" />
<line x1="709" y1="1" x2="709" y2="108" style="stroke:#ddd;stroke-width:2;stroke-dasharray:3 3" />
<line x1="818" y1="1" x2="818" y2="108" style="stroke:#ddd;stroke-width:2;stroke-dasharray:3 3" />
<line x1="927" y1="1" x2="927" y2="108" style="stroke:#ddd;stroke-width:2;stroke-dasharray:3 3" />
<line x1="1036" y1="1" x2="1036" y2="108" style="stroke:#ddd;stroke-width:2;stroke-dasharray:3 3" />
<line x1="1145" y1="1" x2="1145" y2="108" style="stroke:#ddd;stroke-width:2;stroke-dasharray:3 3" />
<line x1="1254" y1="1" x2="1254" y2="108" style="stroke:#ddd;stroke-width:2;stroke-dasharray:3 3" />
<line x1="1363" y1="1" x2="1363" y2="108" style="stroke:#ddd;stroke-width:2;stroke-dasharray:3 3" />
<path d="M16.96,18.99c0.84,0.84,0.96,2.01,0.96,3.05C17.88,58.75 17.38,79 9.25,91.89" style="fill:none;stroke:black;stroke-width:3" />
<circle cx="16.96" cy="18.99" r="5" stroke-width="0" fill="#FF2A00" opacity="0.7" />
<path d="M125.96000000000001,18.99c0.84,0.84,0.96,2.01,0.96,3.05C126.88,58.75 126.38,79 118.25,91.89" style="fill:none;stroke:#999;stroke-width:3" />
<path d="M127.62,19.81c3.53-0.69,9.45-1.72,12-2.09c3.1-0.45,4.18,1.08,4.16,3.9c-0.05,7.71-0.22,47.78-0.22,64.94c0,12.61-5.63,3.55-7.25,2.04" style="fill:none;stroke:black;stroke-width:3" />
<circle cx="127.62" cy="19.81" r="5" stroke-width="0" fill="#FF2A00" opacity="0.7" />
<path d="M234.96,18.99c0.84,0.84,0.96,2.01,0.96,3.05C235.88,58.75 235.38,79 227.25,91.89" style="fill:none;stroke:#999;stroke-width:3" />
<path d="M236.62,19.81c3.53-0.69,9.45-1.72,12-2.09c3.1-0.45,4.18,1.08,4.16,3.9c-0.05,7.71-0.22,47.78-0.22,64.94c0,12.61-5.63,3.55-7.25,2.04" style="fill:none;stroke:#999;stroke-width:3" />
<path d="M236.62,38.95c4.19-0.35,10.76-1.45,15.05-1.82" style="fill:none;stroke:black;stroke-width:3" />
<circle cx="236.62" cy="38.95" r="5" stroke-width="0" fill="#FF2A00" opacity="0.7" />
<path d="M343.96000000000004,18.99c0.84,0.84,0.96,2.01,0.96,3.05C344.88,58.75 344.38,79 336.25,91.89" style="fill:none;stroke:#999;stroke-width:3" />
<path d="M345.62,19.81c3.53-0.69,9.45-1.72,12-2.09c3.1-0.45,4.18,1.08,4.16,3.9c-0.05,7.71-0.22,47.78-0.22,64.94c0,12.61-5.63,3.55-7.25,2.04" style="fill:none;stroke:#999;stroke-width:3" />
<path d="M345.62,38.95c4.19-0.35,10.76-1.45,15.05-1.82" style="fill:none;stroke:#999;stroke-width:3" />
<path d="M345.07,58.15c3.45-0.08,10.84-1.28,15.53-1.7" style="fill:none;stroke:black;stroke-width:3" />
<circle cx="345.07" cy="58.15" r="5" stroke-width="0" fill="#FF2A00" opacity="0.7" />
<path d="M452.96000000000004,18.99c0.84,0.84,0.96,2.01,0.96,3.05C453.88,58.75 453.38,79 445.25,91.89" style="fill:none;stroke:#999;stroke-width:3" />
<path d="M454.62,19.81c3.53-0.69,9.45-1.72,12-2.09c3.1-0.45,4.18,1.08,4.16,3.9c-0.05,7.71-0.22,47.78-0.22,64.94c0,12.61-5.63,3.55-7.25,2.04" style="fill:none;stroke:#999;stroke-width:3" />
<path d="M454.62,38.95c4.19-0.35,10.76-1.45,15.05-1.82" style="fill:none;stroke:#999;stroke-width:3" />
<path d="M454.07,58.15c3.45-0.08,10.84-1.28,15.53-1.7" style="fill:none;stroke:#999;stroke-width:3" />
<path d="M502.23,12c0,1.12-0.3,1.96-0.81,2.75c-1.92,3-2.85,4.42-5.92,8.12" style="fill:none;stroke:black;stroke-width:3" />
<circle cx="502.23" cy="12.0" r="5" stroke-width="0" fill="#FF2A00" opacity="0.7" />
<path d="M561.96,18.99c0.84,0.84,0.96,2.01,0.96,3.05C562.88,58.75 562.38,79 554.25,91.89" style="fill:none;stroke:#999;stroke-width:3" />
<path d="M563.62,19.81c3.53-0.69,9.45-1.72,12-2.09c3.1-0.45,4.18,1.08,4.16,3.9c-0.05,7.71-0.22,47.78-0.22,64.94c0,12.61-5.63,3.55-7.25,2.04" style="fill:none;stroke:#999;stroke-width:3" />
<path d="M563.62,38.95c4.19-0.35,10.76-1.45,15.05-1.82" style="fill:none;stroke:#999;stroke-width:3" />
<path d="M563.0699999999999,58.15c3.45-0.08,10.84-1.28,15.53-1.7" style="fill:none;stroke:#999;stroke-width:3" />
<path d="M611.23,12c0,1.12-0.3,1.96-0.81,2.75c-1.92,3-2.85,4.42-5.92,8.12" style="fill:none;stroke:#999;stroke-width:3" />
<path d="M592.84,25.22c0.97,0.97,1.13,2.1,1.46,3.39c0.94,3.74,2.36,10.51,3.27,15.63c0.37,2.08,0.66,3.88,0.81,5.1" style="fill:none;stroke:black;stroke-width:3" />
<circle cx="592.84" cy="25.22" r="5" stroke-width="0" fill="#FF2A00" opacity="0.7" />
<path d="M670.96,18.99c0.84,0.84,0.96,2.01,0.96,3.05C671.88,58.75 671.38,79 663.25,91.89" style="fill:none;stroke:#999;stroke-width:3" />
<path d="M672.62,19.81c3.53-0.69,9.45-1.72,12-2.09c3.1-0.45,4.18,1.08,4.16,3.9c-0.05,7.71-0.22,47.78-0.22,64.94c0,12.61-5.63,3.55-7.25,2.04" style="fill:none;stroke:#999;stroke-width:3" />
<path d="M672.62,38.95c4.19-0.35,10.76-1.45,15.05-1.82" style="fill:none;stroke:#999;stroke-width:3" />
<path d="M672.0699999999999,58.15c3.45-0.08,10.84-1.28,15.53-1.7" style="fill:none;stroke:#999;stroke-width:3" />
<path d="M720.23,12c0,1.12-0.3,1.96-0.81,2.75c-1.92,3-2.85,4.42-5.92,8.12" style="fill:none;stroke:#999;stroke-width:3" />
<path d="M701.84,25.22c0.97,0.97,1.13,2.1,1.46,3.39c0.94,3.74,2.36,10.51,3.27,15.63c0.37,2.08,0.66,3.88,0.81,5.1" style="fill:none;stroke:#999;stroke-width:3" />
<path d="M703.28,25.77c3.78-0.48,27.59-3.27,33.46-3.86c3.7-0.37,4.82,1.26,4.24,4.71c-0.47,2.8-1.49,8.92-2.77,15.25c-0.36,1.78-0.74,3.58-1.14,5.32" style="fill:none;stroke:black;stroke-width:3" />
<circle cx="703.28" cy="25.77" r="5" stroke-width="0" fill="#FF2A00" opacity="0.7" />
<path d="M779.96,18.99c0.84,0.84,0.96,2.01,0.96,3.05C780.88,58.75 780.38,79 772.25,91.89" style="fill:none;stroke:#999;stroke-width:3" />
<path d="M781.62,19.81c3.53-0.69,9.45-1.72,12-2.09c3.1-0.45,4.18,1.08,4.16,3.9c-0.05,7.71-0.22,47.78-0.22,64.94c0,12.61-5.63,3.55-7.25,2.04" style="fill:none;stroke:#999;stroke-width:3" />
<path d="M781.62,38.95c4.19-0.35,10.76-1.45,15.05-1.82" style="fill:none;stroke:#999;stroke-width:3" />
<path d="M781.0699999999999,58.15c3.45-0.08,10.84-1.28,15.53-1.7" style="fill:none;stroke:#999;stroke-width:3" />
<path d="M829.23,12c0,1.12-0.3,1.96-0.81,2.75c-1.92,3-2.85,4.42-5.92,8.12" style="fill:none;stroke:#999;stroke-width:3" />
<path d="M810.84,25.22c0.97,0.97,1.13,2.1,1.46,3.39c0.94,3.74,2.36,10.51,3.27,15.63c0.37,2.08,0.66,3.88,0.81,5.1" style="fill:none;stroke:#999;stroke-width:3" />
<path d="M812.28,25.77c3.78-0.48,27.59-3.27,33.46-3.86c3.7-0.37,4.82,1.26,4.24,4.71c-0.47,2.8-1.49,8.92-2.77,15.25c-0.36,1.78-0.74,3.58-1.14,5.32" style="fill:none;stroke:#999;stroke-width:3" />
<path d="M815.14,36.24c9.73-0.99,24.11-2.36,32.94-2.92" style="fill:none;stroke:black;stroke-width:3" />
<circle cx="815.14" cy="36.24" r="5" stroke-width="0" fill="#FF2A00" opacity="0.7" />
<path d="M888.96,18.99c0.84,0.84,0.96,2.01,0.96,3.05C889.88,58.75 889.38,79 881.25,91.89" style="fill:none;stroke:#999;stroke-width:3" />
<path d="M890.62,19.81c3.53-0.69,9.45-1.72,12-2.09c3.1-0.45,4.18,1.08,4.16,3.9c-0.05,7.71-0.22,47.78-0.22,64.94c0,12.61-5.63,3.55-7.25,2.04" style="fill:none;stroke:#999;stroke-width:3" />
<path d="M890.62,38.95c4.19-0.35,10.76-1.45,15.05-1.82" style="fill:none;stroke:#999;stroke-width:3" />
<path d="M890.0699999999999,58.15c3.45-0.08,10.84-1.28,15.53-1.7" style="fill:none;stroke:#999;stroke-width:3" />
<path d="M938.23,12c0,1.12-0.3,1.96-0.81,2.75c-1.92,3-2.85,4.42-5.92,8.12" style="fill:none;stroke:#999;stroke-width:3" />
<path d="M919.84,25.22c0.97,0.97,1.13,2.1,1.46,3.39c0.94,3.74,2.36,10.51,3.27,15.63c0.37,2.08,0.66,3.88,0.81,5.1" style="fill:none;stroke:#999;stroke-width:3" />
<path d="M921.28,25.77c3.78-0.48,27.59-3.27,33.46-3.86c3.7-0.37,4.82,1.26,4.24,4.71c-0.47,2.8-1.49,8.92-2.77,15.25c-0.36,1.78-0.74,3.58-1.14,5.32" style="fill:none;stroke:#999;stroke-width:3" />
<path d="M924.14,36.24c9.73-0.99,24.11-2.36,32.94-2.92" style="fill:none;stroke:#999;stroke-width:3" />
<path d="M926.19,47.41c9.47-1,19.84-1.9,27.95-2.31" style="fill:none;stroke:black;stroke-width:3" />
<circle cx="926.19" cy="47.41" r="5" stroke-width="0" fill="#FF2A00" opacity="0.7" />
<path d="M997.96,18.99c0.84,0.84,0.96,2.01,0.96,3.05C998.88,58.75 998.38,79 990.25,91.89" style="fill:none;stroke:#999;stroke-width:3" />
<path d="M999.62,19.81c3.53-0.69,9.45-1.72,12-2.09c3.1-0.45,4.18,1.08,4.16,3.9c-0.05,7.71-0.22,47.78-0.22,64.94c0,12.61-5.63,3.55-7.25,2.04" style="fill:none;stroke:#999;stroke-width:3" />
<path d="M999.62,38.95c4.19-0.35,10.76-1.45,15.05-1.82" style="fill:none;stroke:#999;stroke-width:3" />
<path d="M999.0699999999999,58.15c3.45-0.08,10.84-1.28,15.53-1.7" style="fill:none;stroke:#999;stroke-width:3" />
<path d="M1047.23,12c0,1.12-0.3,1.96-0.81,2.75c-1.92,3-2.85,4.42-5.92,8.12" style="fill:none;stroke:#999;stroke-width:3" />
<path d="M1028.8400000000001,25.22c0.97,0.97,1.13,2.1,1.46,3.39c0.94,3.74,2.36,10.51,3.27,15.63c0.37,2.08,0.66,3.88,0.81,5.1" style="fill:none;stroke:#999;stroke-width:3" />
<path d="M1030.28,25.77c3.78-0.48,27.59-3.27,33.46-3.86c3.7-0.37,4.82,1.26,4.24,4.71c-0.47,2.8-1.49,8.92-2.77,15.25c-0.36,1.78-0.74,3.58-1.14,5.32" style="fill:none;stroke:#999;stroke-width:3" />
<path d="M1033.1399999999999,36.24c9.73-0.99,24.11-2.36,32.94-2.92" style="fill:none;stroke:#999;stroke-width:3" />
<path d="M1035.19,47.41c9.47-1,19.84-1.9,27.95-2.31" style="fill:none;stroke:#999;stroke-width:3" />
<path d="M1047.65,51.42c1.09,1.09,1.27,2.7,1.27,4.38c0,12.21-0.04,31.05-0.04,35.2c0,6.5-3.62,4-7.2-0.29" style="fill:none;stroke:black;stroke-width:3" />
<circle cx="1047.65" cy="51.42" r="5" stroke-width="0" fill="#FF2A00" opacity="0.7" />
<path d="M1106.96,18.99c0.84,0.84,0.96,2.01,0.96,3.05C1107.88,58.75 1107.38,79 1099.25,91.89" style="fill:none;stroke:#999;stroke-width:3" />
<path d="M1108.62,19.81c3.53-0.69,9.45-1.72,12-2.09c3.1-0.45,4.18,1.08,4.16,3.9c-0.05,7.71-0.22,47.78-0.22,64.94c0,12.61-5.63,3.55-7.25,2.04" style="fill:none;stroke:#999;stroke-width:3" />
<path d="M1108.62,38.95c4.19-0.35,10.76-1.45,15.05-1.82" style="fill:none;stroke:#999;stroke-width:3" />
<path d="M1108.07,58.15c3.45-0.08,10.84-1.28,15.53-1.7" style="fill:none;stroke:#999;stroke-width:3" />
<path d="M1156.23,12c0,1.12-0.3,1.96-0.81,2.75c-1.92,3-2.85,4.42-5.92,8.12" style="fill:none;stroke:#999;stroke-width:3" />
<path d="M1137.8400000000001,25.22c0.97,0.97,1.13,2.1,1.46,3.39c0.94,3.74,2.36,10.51,3.27,15.63c0.37,2.08,0.66,3.88,0.81,5.1" style="fill:none;stroke:#999;stroke-width:3" />
<path d="M1139.28,25.77c3.78-0.48,27.59-3.27,33.46-3.86c3.7-0.37,4.82,1.26,4.24,4.71c-0.47,2.8-1.49,8.92-2.77,15.25c-0.36,1.78-0.74,3.58-1.14,5.32" style="fill:none;stroke:#999;stroke-width:3" />
<path d="M1142.1399999999999,36.24c9.73-0.99,24.11-2.36,32.94-2.92" style="fill:none;stroke:#999;stroke-width:3" />
<path d="M1144.19,47.41c9.47-1,19.84-1.9,27.95-2.31" style="fill:none;stroke:#999;stroke-width:3" />
<path d="M1156.65,51.42c1.09,1.09,1.27,2.7,1.27,4.38c0,12.21-0.04,31.05-0.04,35.2c0,6.5-3.62,4-7.2-0.29" style="fill:none;stroke:#999;stroke-width:3" />
<path d="M1133.0,64.39c1.18,0.18,2.54,0.38,3.75,0.11c2.25-0.5,8.2-2.33,10.17-3.05s3.62,1.07,2.96,2.67c-2.66,6.49-7.13,17.63-18.38,25.38" style="fill:none;stroke:black;stroke-width:3" />
<circle cx="1133.0" cy="64.39" r="5" stroke-width="0" fill="#FF2A00" opacity="0.7" />
<path d="M1215.96,18.99c0.84,0.84,0.96,2.01,0.96,3.05C1216.88,58.75 1216.38,79 1208.25,91.89" style="fill:none;stroke:#999;stroke-width:3" />
<path d="M1217.62,19.81c3.53-0.69,9.45-1.72,12-2.09c3.1-0.45,4.18,1.08,4.16,3.9c-0.05,7.71-0.22,47.78-0.22,64.94c0,12.61-5.63,3.55-7.25,2.04" style="fill:none;stroke:#999;stroke-width:3" />
<path d="M1217.62,38.95c4.19-0.35,10.76-1.45,15.05-1.82" style="fill:none;stroke:#999;stroke-width:3" />
<path d="M1217.07,58.15c3.45-0.08,10.84-1.28,15.53-1.7" style="fill:none;stroke:#999;stroke-width:3" />
<path d="M1265.23,12c0,1.12-0.3,1.96-0.81,2.75c-1.92,3-2.85,4.42-5.92,8.12" style="fill:none;stroke:#999;stroke-width:3" />
<path d="M1246.8400000000001,25.22c0.97,0.97,1.13,2.1,1.46,3.39c0.94,3.74,2.36,10.51,3.27,15.63c0.37,2.08,0.66,3.88,0.81,5.1" style="fill:none;stroke:#999;stroke-width:3" />
<path d="M1248.28,25.77c3.78-0.48,27.59-3.27,33.46-3.86c3.7-0.37,4.82,1.26,4.24,4.71c-0.47,2.8-1.49,8.92-2.77,15.25c-0.36,1.78-0.74,3.58-1.14,5.32" style="fill:none;stroke:#999;stroke-width:3" />
<path d="M1251.1399999999999,36.24c9.73-0.99,24.11-2.36,32.94-2.92" style="fill:none;stroke:#999;stroke-width:3" />
<path d="M1253.19,47.41c9.47-1,19.84-1.9,27.95-2.31" style="fill:none;stroke:#999;stroke-width:3" />
<path d="M1265.65,51.42c1.09,1.09,1.27,2.7,1.27,4.38c0,12.21-0.04,31.05-0.04,35.2c0,6.5-3.62,4-7.2-0.29" style="fill:none;stroke:#999;stroke-width:3" />
<path d="M1242.0,64.39c1.18,0.18,2.54,0.38,3.75,0.11c2.25-0.5,8.2-2.33,10.17-3.05s3.62,1.07,2.96,2.67c-2.66,6.49-7.13,17.63-18.38,25.38" style="fill:none;stroke:#999;stroke-width:3" />
<path d="M1288.5,53.75c0,1-0.36,1.89-0.86,2.59C1284.12,61.25 1281.2,64.1 1276.0,68" style="fill:none;stroke:black;stroke-width:3" />
<circle cx="1288.5" cy="53.75" r="5" stroke-width="0" fill="#FF2A00" opacity="0.7" />
<path d="M1324.96,18.99c0.84,0.84,0.96,2.01,0.96,3.05C1325.88,58.75 1325.38,79 1317.25,91.89" style="fill:none;stroke:#999;stroke-width:3" />
<path d="M1326.62,19.81c3.53-0.69,9.45-1.72,12-2.09c3.1-0.45,4.18,1.08,4.16,3.9c-0.05,7.71-0.22,47.78-0.22,64.94c0,12.61-5.63,3.55-7.25,2.04" style="fill:none;stroke:#999;stroke-width:3" />
<path d="M1326.62,38.95c4.19-0.35,10.76-1.45,15.05-1.82" style="fill:none;stroke:#999;stroke-width:3" />
<path d="M1326.07,58.15c3.45-0.08,10.84-1.28,15.53-1.7" style="fill:none;stroke:#999;stroke-width:3" />
<path d="M1374.23,12c0,1.12-0.3,1.96-0.81,2.75c-1.92,3-2.85,4.42-5.92,8.12" style="fill:none;stroke:#999;stroke-width:3" />
<path d="M1355.8400000000001,25.22c0.97,0.97,1.13,2.1,1.46,3.39c0.94,3.74,2.36,10.51,3.27,15.63c0.37,2.08,0.66,3.88,0.81,5.1" style="fill:none;stroke:#999;stroke-width:3" />
<path d="M1357.28,25.77c3.78-0.48,27.59-3.27,33.46-3.86c3.7-0.37,4.82,1.26,4.24,4.71c-0.47,2.8-1.49,8.92-2.77,15.25c-0.36,1.78-0.74,3.58-1.14,5.32" style="fill:none;stroke:#999;stroke-width:3" />
<path d="M1360.1399999999999,36.24c9.73-0.99,24.11-2.36,32.94-2.92" style="fill:none;stroke:#999;stroke-width:3" />
<path d="M1362.19,47.41c9.47-1,19.84-1.9,27.95-2.31" style="fill:none;stroke:#999;stroke-width:3" />
<path d="M1374.65,51.42c1.09,1.09,1.27,2.7,1.27,4.38c0,12.21-0.04,31.05-0.04,35.2c0,6.5-3.62,4-7.2-0.29" style="fill:none;stroke:#999;stroke-width:3" />
<path d="M1351.0,64.39c1.18,0.18,2.54,0.38,3.75,0.11c2.25-0.5,8.2-2.33,10.17-3.05s3.62,1.07,2.96,2.67c-2.66,6.49-7.13,17.63-18.38,25.38" style="fill:none;stroke:#999;stroke-width:3" />
<path d="M1397.5,53.75c0,1-0.36,1.89-0.86,2.59C1393.12,61.25 1390.2,64.1 1385.0,68" style="fill:none;stroke:#999;stroke-width:3" />
<path d="M1377.62,64c5.75,7.75,11.88,15,17.74,20.39c2.54,2.34,4.01,3.86,7.69,5.44" style="fill:none;stroke:black;stroke-width:3" />
<circle cx="1377.62" cy="64.0" r="5" stroke-width="0" fill="#FF2A00" opacity="0.7" />
</svg>