<!-- 081a4 -->
<svg width="1635px" height="109px" viewBox="0 0 1635px 109px" xmlns="http://www.w3.org/2000/svg" xmlns:xlink="http://www.w3.org/1999/xlink" xml:space="preserve" version="1.1"  baseProfile="full">
<line x1="1" y1="1" x2="1634" y2="1" style="stroke:#ddd;stroke-width:2" />
<line x1="1" y1="1" x2="1" y2="108" style="stroke:#ddd;stroke-width:2" />
<line x1="1" y1="108" x2="1634" y2="108" style="stroke:#ddd;stroke-width:2" />
<line x1="1634" y1="1" x2="1634" y2="108" style="stroke:#ddd;stroke-width:2" />
<line x1="109" y1="1" x2="109" y2="108" style="stroke:#ddd;stroke-width:2" />
<line x1="218" y1="1" x2="218" y2="108" style="stroke:#ddd;stroke-width:2" />
<line x1="327" y1="1" x2="327" y2="108" style="stroke:#ddd;stroke-width:2" />
<line x1="436" y1="1" x2="436" y2="108" style="stroke:#ddd;stroke-width:2" />
<line x1="545" y1="1" x2="545" y2="108" style="stroke:#ddd;stroke-width:2" />
<line x1="654" y1="1" x2="654" y2="108" style="stroke:#ddd;stroke-width:2" />
<line x1="763" y1="1" x2="763" y2="108" style="stroke:#ddd;stroke-width:2" />
<line x1="872" y1="1" x2="872" y2="108" style="stroke:#ddd;stroke-width:2" />
<line x1="981" y1="1" x2="981" y2="108" style="stroke:#ddd;stroke-width:2" />
<line x1="1090" y1="1" x2="1090" y2="108" style="stroke:#ddd;stroke-width:2" />
<line x1="1199" y1="1" x2="1199" y2="108" style="stroke:#ddd;stroke-width:2" />
<line x1="1308" y1="1" x2="1308" y2="108" style="stroke:#ddd;stroke-width:2" />
<line x1="1417" y1="1" x2="1417" y2="108" style="stroke:#ddd;stroke-width:2" />
<line x1="1526" y1="1" x2="1526" y2="108" style="stroke:#ddd;stroke-width:2" />
<line x1="1" y1="54" x2="1634" y2="54" style="stroke:#ddd;stroke-width:2;stroke-dasharray:3 3" />
<line x1="55" y1="1" x2="55" y2="108" style="stroke:#ddd;stroke-width:2;stroke-dasharray:3 3" />
<line x1="164" y1="1" x2="164" y2="108" style="stroke:#ddd;stroke-width:2;stroke-dasharray:3 3" />
<line x1="273" y1="1" x2="273" y2="108" style="stroke:#ddd;stroke-width:2;stroke-dasharray:3 3" />
<line x1="382" y1="1" x2="382" y2="108" style="stroke:#ddd;stroke-width:2;stroke-dasharray:3 3" />
<line x1="491" y1="1" x2="491" y2="108" style="stroke:#ddd;stroke-width:2;stroke-dasharray:3 3" />
<line x1="600" y1="1" x2="600" y2="108" style="stroke:#ddd;stroke-width:2;stroke-dasharray:3 3" />
<line x1="709" y1="1" x2="709" y2="108" style="stroke:#ddd;stroke-width:2;stroke-dasharray:3 3" />
<line x1="818" y1="1" x2="818" y2="108" style="stroke:#ddd;stroke-width:2;stroke-dasharray:3 3" />
<line x1="927" y1="1" x2="927" y2="108" style="stroke:#ddd;stroke-width:2;stroke-dasharray:3 3" />
<line x1="1036" y1="1" x2="1036" y2="108" style="stroke:#ddd;stroke-width:2;stroke-dasharray:3 3" />
<line x1="1145" y1="1" x2="1145" y2="108" style="stroke:#ddd;stroke-width:2;stroke-dasharray:3 3" />
<line x1="1254" y1="1" x2="1254" y2="108" style="stroke:#ddd;stroke-width:2;stroke-dasharray:3 3" />
<line x1="1363" y1="1" x2="1363" y2="108" style="stroke:#ddd;stroke-width:2;stroke-dasharray:3 3" />
<line x1="1472" y1="1" x2="1472" y2="108" style="stroke:#ddd;stroke-width:2;stroke-dasharray:3 3" />
<line x1="1581" y1="1" x2="1581" y2="108" style="stroke:#ddd;stroke-width:2;stroke-dasharray:3 3" />
<path d="M17.75,18.42c0.52,1.01,0.83,2.02,1,3c0.17,0.98,0.34,27.43-0.21,35.64c-0.78,11.69-1.59,23.48-8.96,36.92" style="fill:none;stroke:black;stroke-width:3" />
<circle cx="17.75" cy="18.42" r="5" stroke-width="0" fill="#FF2A00" opacity="0.7" />
<path d="M126.75,18.42c0.52,1.01,0.83,2.02,1,3c0.17,0.98,0.34,27.43-0.21,35.64c-0.78,11.69-1.59,23.48-8.96,36.92" style="fill:none;stroke:#999;stroke-width:3" />
<path d="M128.75,20.25c1.78-0.06,10.34-1.85,11.66-1.98c2.37-0.23,2.96,1.33,2.96,2.72c0,3.29-0.44,47.16-0.44,65.86c0,12.86-3.83,5.96-5.34,4.41" style="fill:none;stroke:black;stroke-width:3" />
<circle cx="128.75" cy="20.25" r="5" stroke-width="0" fill="#FF2A00" opacity="0.7" />
<path d="M235.75,18.42c0.52,1.01,0.83,2.02,1,3c0.17,0.98,0.34,27.43-0.21,35.64c-0.78,11.69-1.59,23.48-8.96,36.92" style="fill:none;stroke:#999;stroke-width:3" />
<path d="M237.75,20.25c1.78-0.06,10.34-1.85,11.66-1.98c2.37-0.23,2.96,1.33,2.96,2.72c0,3.29-0.44,47.16-0.44,65.86c0,12.86-3.83,5.96-5.34,4.41" style="fill:none;stroke:#999;stroke-width:3" />
<path d="M237.65,40.43c3.75-0.2,10.47-1.33,13.76-1.34" style="fill:none;stroke:black;stroke-width:3" />
<circle cx="237.65" cy="40.43" r="5" stroke-width="0" fill="#FF2A00" opacity="0.7" />
<path d="M344.75,18.42c0.52,1.01,0.83,2.02,1,3c0.17,0.98,0.34,27.43-0.21,35.64c-0.78,11.69-1.59,23.48-8.96,36.92" style="fill:none;stroke:#999;stroke-width:3" />
<path d="M346.75,20.25c1.78-0.06,10.34-1.85,11.66-1.98c2.37-0.23,2.96,1.33,2.96,2.72c0,3.29-0.44,47.16-0.44,65.86c0,12.86-3.83,5.96-5.34,4.41" style="fill:none;stroke:#999;stroke-width:3" />
<path d="M346.65,40.43c3.75-0.2,10.47-1.33,13.76-1.34" style="fill:none;stroke:#999;stroke-width:3" />
<path d="M345.92,60.58c3.12-0.05,9.41-0.98,13.63-1.25" style="fill:none;stroke:black;stroke-width:3" />
<circle cx="345.92" cy="60.58" r="5" stroke-width="0" fill="#FF2A00" opacity="0.7" />
<path d="M453.75,18.42c0.52,1.01,0.83,2.02,1,3c0.17,0.98,0.34,27.43-0.21,35.64c-0.78,11.69-1.59,23.48-8.96,36.92" style="fill:none;stroke:#999;stroke-width:3" />
<path d="M455.75,20.25c1.78-0.06,10.34-1.85,11.66-1.98c2.37-0.23,2.96,1.33,2.96,2.72c0,3.29-0.44,47.16-0.44,65.86c0,12.86-3.83,5.96-5.34,4.41" style="fill:none;stroke:#999;stroke-width:3" />
<path d="M455.65,40.43c3.75-0.2,10.47-1.33,13.76-1.34" style="fill:none;stroke:#999;stroke-width:3" />
<path d="M454.92,60.58c3.12-0.05,9.41-0.98,13.63-1.25" style="fill:none;stroke:#999;stroke-width:3" />
<path d="M483.75,18.42c1.18,0.22,4.09,0.74,5.17,0.67c5.08-0.33,20.59-1.93,30.33-2.83c1.49-0.14,3.8,0.03,5.17,0.33" style="fill:none;stroke:black;stroke-width:3" />
<circle cx="483.75" cy="18.42" r="5" stroke-width="0" fill="#FF2A00" opacity="0.7" />
<path d="M562.75,18.42c0.52,1.01,0.83,2.02,1,3c0.17,0.98,0.34,27.43-0.21,35.64c-0.78,11.69-1.59,23.48-8.96,36.92" style="fill:none;stroke:#999;stroke-width:3" />
<path d="M564.75,20.25c1.78-0.06,10.34-1.85,11.66-1.98c2.37-0.23,2.96,1.33,2.96,2.72c0,3.29-0.44,47.16-0.44,65.86c0,12.86-3.83,5.96-5.34,4.41" style="fill:none;stroke:#999;stroke-width:3" />
<path d="M564.65,40.43c3.75-0.2,10.47-1.33,13.76-1.34" style="fill:none;stroke:#999;stroke-width:3" />
<path d="M563.9200000000001,60.58c3.12-0.05,9.41-0.98,13.63-1.25" style="fill:none;stroke:#999;stroke-width:3" />
<path d="M592.75,18.42c1.18,0.22,4.09,0.74,5.17,0.67c5.08-0.33,20.59-1.93,30.33-2.83c1.49-0.14,3.8,0.03,5.17,0.33" style="fill:none;stroke:#999;stroke-width:3" />
<path d="M589.11,25.6c-0.23,4.86-2.2,10.19-3.67,15.09" style="fill:none;stroke:black;stroke-width:3" />
<circle cx="589.11" cy="25.6" r="5" stroke-width="0" fill="#FF2A00" opacity="0.7" />
<path d="M671.75,18.42c0.52,1.01,0.83,2.02,1,3c0.17,0.98,0.34,27.43-0.21,35.64c-0.78,11.69-1.59,23.48-8.96,36.92" style="fill:none;stroke:#999;stroke-width:3" />
<path d="M673.75,20.25c1.78-0.06,10.34-1.85,11.66-1.98c2.37-0.23,2.96,1.33,2.96,2.72c0,3.29-0.44,47.16-0.44,65.86c0,12.86-3.83,5.96-5.34,4.41" style="fill:none;stroke:#999;stroke-width:3" />
<path d="M673.65,40.43c3.75-0.2,10.47-1.33,13.76-1.34" style="fill:none;stroke:#999;stroke-width:3" />
<path d="M672.9200000000001,60.58c3.12-0.05,9.41-0.98,13.63-1.25" style="fill:none;stroke:#999;stroke-width:3" />
<path d="M701.75,18.42c1.18,0.22,4.09,0.74,5.17,0.67c5.08-0.33,20.59-1.93,30.33-2.83c1.49-0.14,3.8,0.03,5.17,0.33" style="fill:none;stroke:#999;stroke-width:3" />
<path d="M698.11,25.6c-0.23,4.86-2.2,10.19-3.67,15.09" style="fill:none;stroke:#999;stroke-width:3" />
<path d="M698.42,29.02c1.22,0.32,37.74-3.81,49.17-3.94c7.67-0.08-0.62,7.23-1.67,8.33" style="fill:none;stroke:black;stroke-width:3" />
<circle cx="698.42" cy="29.02" r="5" stroke-width="0" fill="#FF2A00" opacity="0.7" />
<path d="M780.75,18.42c0.52,1.01,0.83,2.02,1,3c0.17,0.98,0.34,27.43-0.21,35.64c-0.78,11.69-1.59,23.48-8.96,36.92" style="fill:none;stroke:#999;stroke-width:3" />
<path d="M782.75,20.25c1.78-0.06,10.34-1.85,11.66-1.98c2.37-0.23,2.96,1.33,2.96,2.72c0,3.29-0.44,47.16-0.44,65.86c0,12.86-3.83,5.96-5.34,4.41" style="fill:none;stroke:#999;stroke-width:3" />
<path d="M782.65,40.43c3.75-0.2,10.47-1.33,13.76-1.34" style="fill:none;stroke:#999;stroke-width:3" />
<path d="M781.9200000000001,60.58c3.12-0.05,9.41-0.98,13.63-1.25" style="fill:none;stroke:#999;stroke-width:3" />
<path d="M810.75,18.42c1.18,0.22,4.09,0.74,5.17,0.67c5.08-0.33,20.59-1.93,30.33-2.83c1.49-0.14,3.8,0.03,5.17,0.33" style="fill:none;stroke:#999;stroke-width:3" />
<path d="M807.11,25.6c-0.23,4.86-2.2,10.19-3.67,15.09" style="fill:none;stroke:#999;stroke-width:3" />
<path d="M807.42,29.02c1.22,0.32,37.74-3.81,49.17-3.94c7.67-0.08-0.62,7.23-1.67,8.33" style="fill:none;stroke:#999;stroke-width:3" />
<path d="M829.36,18.17c0.82,0.7,1.48,1.96,1.48,2.52c0,0.56,0.07,31.85,0.07,33.39" style="fill:none;stroke:black;stroke-width:3" />
<circle cx="829.36" cy="18.17" r="5" stroke-width="0" fill="#FF2A00" opacity="0.7" />
<path d="M889.75,18.42c0.52,1.01,0.83,2.02,1,3c0.17,0.98,0.34,27.43-0.21,35.64c-0.78,11.69-1.59,23.48-8.96,36.92" style="fill:none;stroke:#999;stroke-width:3" />
<path d="M891.75,20.25c1.78-0.06,10.34-1.85,11.66-1.98c2.37-0.23,2.96,1.33,2.96,2.72c0,3.29-0.44,47.16-0.44,65.86c0,12.86-3.83,5.96-5.34,4.41" style="fill:none;stroke:#999;stroke-width:3" />
<path d="M891.65,40.43c3.75-0.2,10.47-1.33,13.76-1.34" style="fill:none;stroke:#999;stroke-width:3" />
<path d="M890.9200000000001,60.58c3.12-0.05,9.41-0.98,13.63-1.25" style="fill:none;stroke:#999;stroke-width:3" />
<path d="M919.75,18.42c1.18,0.22,4.09,0.74,5.17,0.67c5.08-0.33,20.59-1.93,30.33-2.83c1.49-0.14,3.8,0.03,5.17,0.33" style="fill:none;stroke:#999;stroke-width:3" />
<path d="M916.11,25.6c-0.23,4.86-2.2,10.19-3.67,15.09" style="fill:none;stroke:#999;stroke-width:3" />
<path d="M916.42,29.02c1.22,0.32,37.74-3.81,49.17-3.94c7.67-0.08-0.62,7.23-1.67,8.33" style="fill:none;stroke:#999;stroke-width:3" />
<path d="M938.36,18.17c0.82,0.7,1.48,1.96,1.48,2.52c0,0.56,0.07,31.85,0.07,33.39" style="fill:none;stroke:#999;stroke-width:3" />
<path d="M921.92,35.73c3.27,0.94,7.74,3.77,9.52,5.34" style="fill:none;stroke:black;stroke-width:3" />
<circle cx="921.92" cy="35.73" r="5" stroke-width="0" fill="#FF2A00" opacity="0.7" />
<path d="M998.75,18.42c0.52,1.01,0.83,2.02,1,3c0.17,0.98,0.34,27.43-0.21,35.64c-0.78,11.69-1.59,23.48-8.96,36.92" style="fill:none;stroke:#999;stroke-width:3" />
<path d="M1000.75,20.25c1.78-0.06,10.34-1.85,11.66-1.98c2.37-0.23,2.96,1.33,2.96,2.72c0,3.29-0.44,47.16-0.44,65.86c0,12.86-3.83,5.96-5.34,4.41" style="fill:none;stroke:#999;stroke-width:3" />
<path d="M1000.65,40.43c3.75-0.2,10.47-1.33,13.76-1.34" style="fill:none;stroke:#999;stroke-width:3" />
<path d="M999.9200000000001,60.58c3.12-0.05,9.41-0.98,13.63-1.25" style="fill:none;stroke:#999;stroke-width:3" />
<path d="M1028.75,18.42c1.18,0.22,4.09,0.74,5.17,0.67c5.08-0.33,20.59-1.93,30.33-2.83c1.49-0.14,3.8,0.03,5.17,0.33" style="fill:none;stroke:#999;stroke-width:3" />
<path d="M1025.1100000000001,25.6c-0.23,4.86-2.2,10.19-3.67,15.09" style="fill:none;stroke:#999;stroke-width:3" />
<path d="M1025.42,29.02c1.22,0.32,37.74-3.81,49.17-3.94c7.67-0.08-0.62,7.23-1.67,8.33" style="fill:none;stroke:#999;stroke-width:3" />
<path d="M1047.3600000000001,18.17c0.82,0.7,1.48,1.96,1.48,2.52c0,0.56,0.07,31.85,0.07,33.39" style="fill:none;stroke:#999;stroke-width:3" />
<path d="M1030.92,35.73c3.27,0.94,7.74,3.77,9.52,5.34" style="fill:none;stroke:#999;stroke-width:3" />
<path d="M1029.52,47.81c3.28,0.94,8.34,4.39,10.13,5.96" style="fill:none;stroke:black;stroke-width:3" />
<circle cx="1029.52" cy="47.81" r="5" stroke-width="0" fill="#FF2A00" opacity="0.7" />
<path d="M1107.75,18.42c0.52,1.01,0.83,2.02,1,3c0.17,0.98,0.34,27.43-0.21,35.64c-0.78,11.69-1.59,23.48-8.96,36.92" style="fill:none;stroke:#999;stroke-width:3" />
<path d="M1109.75,20.25c1.78-0.06,10.34-1.85,11.66-1.98c2.37-0.23,2.96,1.33,2.96,2.72c0,3.29-0.44,47.16-0.44,65.86c0,12.86-3.83,5.96-5.34,4.41" style="fill:none;stroke:#999;stroke-width:3" />
<path d="M1109.65,40.43c3.75-0.2,10.47-1.33,13.76-1.34" style="fill:none;stroke:#999;stroke-width:3" />
<path d="M1108.92,60.58c3.12-0.05,9.41-0.98,13.63-1.25" style="fill:none;stroke:#999;stroke-width:3" />
<path d="M1137.75,18.42c1.18,0.22,4.09,0.74,5.17,0.67c5.08-0.33,20.59-1.93,30.33-2.83c1.49-0.14,3.8,0.03,5.17,0.33" style="fill:none;stroke:#999;stroke-width:3" />
<path d="M1134.1100000000001,25.6c-0.23,4.86-2.2,10.19-3.67,15.09" style="fill:none;stroke:#999;stroke-width:3" />
<path d="M1134.42,29.02c1.22,0.32,37.74-3.81,49.17-3.94c7.67-0.08-0.62,7.23-1.67,8.33" style="fill:none;stroke:#999;stroke-width:3" />
<path d="M1156.3600000000001,18.17c0.82,0.7,1.48,1.96,1.48,2.52c0,0.56,0.07,31.85,0.07,33.39" style="fill:none;stroke:#999;stroke-width:3" />
<path d="M1139.92,35.73c3.27,0.94,7.74,3.77,9.52,5.34" style="fill:none;stroke:#999;stroke-width:3" />
<path d="M1138.52,47.81c3.28,0.94,8.34,4.39,10.13,5.96" style="fill:none;stroke:#999;stroke-width:3" />
<path d="M1166.19,35.31c3.84,1.3,8.2,3.89,9.74,4.97" style="fill:none;stroke:black;stroke-width:3" />
<circle cx="1166.19" cy="35.31" r="5" stroke-width="0" fill="#FF2A00" opacity="0.7" />
<path d="M1216.75,18.42c0.52,1.01,0.83,2.02,1,3c0.17,0.98,0.34,27.43-0.21,35.64c-0.78,11.69-1.59,23.48-8.96,36.92" style="fill:none;stroke:#999;stroke-width:3" />
<path d="M1218.75,20.25c1.78-0.06,10.34-1.85,11.66-1.98c2.37-0.23,2.96,1.33,2.96,2.72c0,3.29-0.44,47.16-0.44,65.86c0,12.86-3.83,5.96-5.34,4.41" style="fill:none;stroke:#999;stroke-width:3" />
<path d="M1218.65,40.43c3.75-0.2,10.47-1.33,13.76-1.34" style="fill:none;stroke:#999;stroke-width:3" />
<path d="M1217.92,60.58c3.12-0.05,9.41-0.98,13.63-1.25" style="fill:none;stroke:#999;stroke-width:3" />
<path d="M1246.75,18.42c1.18,0.22,4.09,0.74,5.17,0.67c5.08-0.33,20.59-1.93,30.33-2.83c1.49-0.14,3.8,0.03,5.17,0.33" style="fill:none;stroke:#999;stroke-width:3" />
<path d="M1243.1100000000001,25.6c-0.23,4.86-2.2,10.19-3.67,15.09" style="fill:none;stroke:#999;stroke-width:3" />
<path d="M1243.42,29.02c1.22,0.32,37.74-3.81,49.17-3.94c7.67-0.08-0.62,7.23-1.67,8.33" style="fill:none;stroke:#999;stroke-width:3" />
<path d="M1265.3600000000001,18.17c0.82,0.7,1.48,1.96,1.48,2.52c0,0.56,0.07,31.85,0.07,33.39" style="fill:none;stroke:#999;stroke-width:3" />
<path d="M1248.92,35.73c3.27,0.94,7.74,3.77,9.52,5.34" style="fill:none;stroke:#999;stroke-width:3" />
<path d="M1247.52,47.81c3.28,0.94,8.34,4.39,10.13,5.96" style="fill:none;stroke:#999;stroke-width:3" />
<path d="M1275.19,35.31c3.84,1.3,8.2,3.89,9.74,4.97" style="fill:none;stroke:#999;stroke-width:3" />
<path d="M1276.38,47.29c3.16,1.06,7.47,4.25,9.19,6.02" style="fill:none;stroke:black;stroke-width:3" />
<circle cx="1276.38" cy="47.29" r="5" stroke-width="0" fill="#FF2A00" opacity="0.7" />
<path d="M1325.75,18.42c0.52,1.01,0.83,2.02,1,3c0.17,0.98,0.34,27.43-0.21,35.64c-0.78,11.69-1.59,23.48-8.96,36.92" style="fill:none;stroke:#999;stroke-width:3" />
<path d="M1327.75,20.25c1.78-0.06,10.34-1.85,11.66-1.98c2.37-0.23,2.96,1.33,2.96,2.72c0,3.29-0.44,47.16-0.44,65.86c0,12.86-3.83,5.96-5.34,4.41" style="fill:none;stroke:#999;stroke-width:3" />
<path d="M1327.65,40.43c3.75-0.2,10.47-1.33,13.76-1.34" style="fill:none;stroke:#999;stroke-width:3" />
<path d="M1326.92,60.58c3.12-0.05,9.41-0.98,13.63-1.25" style="fill:none;stroke:#999;stroke-width:3" />
<path d="M1355.75,18.42c1.18,0.22,4.09,0.74,5.17,0.67c5.08-0.33,20.59-1.93,30.33-2.83c1.49-0.14,3.8,0.03,5.17,0.33" style="fill:none;stroke:#999;stroke-width:3" />
<path d="M1352.1100000000001,25.6c-0.23,4.86-2.2,10.19-3.67,15.09" style="fill:none;stroke:#999;stroke-width:3" />
<path d="M1352.42,29.02c1.22,0.32,37.74-3.81,49.17-3.94c7.67-0.08-0.62,7.23-1.67,8.33" style="fill:none;stroke:#999;stroke-width:3" />
<path d="M1374.3600000000001,18.17c0.82,0.7,1.48,1.96,1.48,2.52c0,0.56,0.07,31.85,0.07,33.39" style="fill:none;stroke:#999;stroke-width:3" />
<path d="M1357.92,35.73c3.27,0.94,7.74,3.77,9.52,5.34" style="fill:none;stroke:#999;stroke-width:3" />
<path d="M1356.52,47.81c3.28,0.94,8.34,4.39,10.13,5.96" style="fill:none;stroke:#999;stroke-width:3" />
<path d="M1384.19,35.31c3.84,1.3,8.2,3.89,9.74,4.97" style="fill:none;stroke:#999;stroke-width:3" />
<path d="M1385.38,47.29c3.16,1.06,7.47,4.25,9.19,6.02" style="fill:none;stroke:#999;stroke-width:3" />
<path d="M1356.25,63.08c2.38,1.36,4.52,1.18,6.09,1c9.54-1.09,20.3-2.5,27.8-2.5c2.21,0,3.79,0.68,3.53,3.4c-0.87,9.41-0.36,19.18-1.41,29.93" style="fill:none;stroke:black;stroke-width:3" />
<circle cx="1356.25" cy="63.08" r="5" stroke-width="0" fill="#FF2A00" opacity="0.7" />
<path d="M1434.75,18.42c0.52,1.01,0.83,2.02,1,3c0.17,0.98,0.34,27.43-0.21,35.64c-0.78,11.69-1.59,23.48-8.96,36.92" style="fill:none;stroke:#999;stroke-width:3" />
<path d="M1436.75,20.25c1.78-0.06,10.34-1.85,11.66-1.98c2.37-0.23,2.96,1.33,2.96,2.72c0,3.29-0.44,47.16-0.44,65.86c0,12.86-3.83,5.96-5.34,4.41" style="fill:none;stroke:#999;stroke-width:3" />
<path d="M1436.65,40.43c3.75-0.2,10.47-1.33,13.76-1.34" style="fill:none;stroke:#999;stroke-width:3" />
<path d="M1435.92,60.58c3.12-0.05,9.41-0.98,13.63-1.25" style="fill:none;stroke:#999;stroke-width:3" />
<path d="M1464.75,18.42c1.18,0.22,4.09,0.74,5.17,0.67c5.08-0.33,20.59-1.93,30.33-2.83c1.49-0.14,3.8,0.03,5.17,0.33" style="fill:none;stroke:#999;stroke-width:3" />
<path d="M1461.1100000000001,25.6c-0.23,4.86-2.2,10.19-3.67,15.09" style="fill:none;stroke:#999;stroke-width:3" />
<path d="M1461.42,29.02c1.22,0.32,37.74-3.81,49.17-3.94c7.67-0.08-0.62,7.23-1.67,8.33" style="fill:none;stroke:#999;stroke-width:3" />
<path d="M1483.3600000000001,18.17c0.82,0.7,1.48,1.96,1.48,2.52c0,0.56,0.07,31.85,0.07,33.39" style="fill:none;stroke:#999;stroke-width:3" />
<path d="M1466.92,35.73c3.27,0.94,7.74,3.77,9.52,5.34" style="fill:none;stroke:#999;stroke-width:3" />
<path d="M1465.52,47.81c3.28,0.94,8.34,4.39,10.13,5.96" style="fill:none;stroke:#999;stroke-width:3" />
<path d="M1493.19,35.31c3.84,1.3,8.2,3.89,9.74,4.97" style="fill:none;stroke:#999;stroke-width:3" />
<path d="M1494.38,47.29c3.16,1.06,7.47,4.25,9.19,6.02" style="fill:none;stroke:#999;stroke-width:3" />
<path d="M1465.25,63.08c2.38,1.36,4.52,1.18,6.09,1c9.54-1.09,20.3-2.5,27.8-2.5c2.21,0,3.79,0.68,3.53,3.4c-0.87,9.41-0.36,19.18-1.41,29.93" style="fill:none;stroke:#999;stroke-width:3" />
<path d="M1459.56,77.47c1.39,0.34,3.89,1.21,5.55,1.02c15.26-1.7,29.27-3.06,43.14-3.74c2.22-0.11,5.34,0.66,7,1" style="fill:none;stroke:black;stroke-width:3" />
<circle cx="1459.56" cy="77.47" r="5" stroke-width="0" fill="#FF2A00" opacity="0.7" />
<path d="M1543.75,18.42c0.52,1.01,0.83,2.02,1,3c0.17,0.98,0.34,27.43-0.21,35.64c-0.78,11.69-1.59,23.48-8.96,36.92" style="fill:none;stroke:#999;stroke-width:3" />
<path d="M1545.75,20.25c1.78-0.06,10.34-1.85,11.66-1.98c2.37-0.23,2.96,1.33,2.96,2.72c0,3.29-0.44,47.16-0.44,65.86c0,12.86-3.83,5.96-5.34,4.41" style="fill:none;stroke:#999;stroke-width:3" />
<path d="M1545.65,40.43c3.75-0.2,10.47-1.33,13.76-1.34" style="fill:none;stroke:#999;stroke-width:3" />
<path d="M1544.92,60.58c3.12-0.05,9.41-0.98,13.63-1.25" style="fill:none;stroke:#999;stroke-width:3" />
<path d="M1573.75,18.42c1.18,0.22,4.09,0.74,5.17,0.67c5.08-0.33,20.59-1.93,30.33-2.83c1.49-0.14,3.8,0.03,5.17,0.33" style="fill:none;stroke:#999;stroke-width:3" />
<path d="M1570.1100000000001,25.6c-0.23,4.86-2.2,10.19-3.67,15.09" style="fill:none;stroke:#999;stroke-width:3" />
<path d="M1570.42,29.02c1.22,0.32,37.74-3.81,49.17-3.94c7.67-0.08-0.62,7.23-1.67,8.33" style="fill:none;stroke:#999;stroke-width:3" />
<path d="M1592.3600000000001,18.17c0.82,0.7,1.48,1.96,1.48,2.52c0,0.56,0.07,31.85,0.07,33.39" style="fill:none;stroke:#999;stroke-width:3" />
<path d="M1575.92,35.73c3.27,0.94,7.74,3.77,9.52,5.34" style="fill:none;stroke:#999;stroke-width:3" />
<path d="M1574.52,47.81c3.28,0.94,8.34,4.39,10.13,5.96" style="fill:none;stroke:#999;stroke-width:3" />
<path d="M1602.19,35.31c3.84,1.3,8.2,3.89,9.74,4.97" style="fill:none;stroke:#999;stroke-width:3" />
<path d="M1603.38,47.29c3.16,1.06,7.47,4.25,9.19,6.02" style="fill:none;stroke:#999;stroke-width:3" />
<path d="M1574.25,63.08c2.38,1.36,4.52,1.18,6.09,1c9.54-1.09,20.3-2.5,27.8-2.5c2.21,0,3.79,0.68,3.53,3.4c-0.87,9.41-0.36,19.18-1.41,29.93" style="fill:none;stroke:#999;stroke-width:3" />
<path d="M1568.56,77.47c1.39,0.34,3.89,1.21,5.55,1.02c15.26-1.7,29.27-3.06,43.14-3.74c2.22-0.11,5.34,0.66,7,1" style="fill:none;stroke:#999;stroke-width:3" />
<path d="M1575.42,92.32c0.78,0.28,5.51,0.93,6.45,0.78c8.59-1.39,15.23-1.47,23.05-2.03c1.25-0.09,3.74-0.12,4.67,0.16" style="fill:none;stroke:black;stroke-width:3" />
<circle cx="1575.42" cy="92.32" r="5" stroke-width="0" fill="#FF2A00" opacity="0.7" />
</svg>