<!-- 081c6 -->
<svg width="1853px" height="109px" viewBox="0 0 1853px 109px" xmlns="http://www.w3.org/2000/svg" xmlns:xlink="http://www.w3.org/1999/xlink" xml:space="preserve" version="1.1"  baseProfile="full">
<line x1="1" y1="1" x2="1852" y2="1" style="stroke:#ddd;stroke-width:2" />
<line x1="1" y1="1" x2="1" y2="108" style="stroke:#ddd;stroke-width:2" />
<line x1="1" y1="108" x2="1852" y2="108" style="stroke:#ddd;stroke-width:2" />
<line x1="1852" y1="1" x2="1852" y2="108" style="stroke:#ddd;stroke-width:2" />
<line x1="109" y1="1" x2="109" y2="108" style="stroke:#ddd;stroke-width:2" />
<line x1="218" y1="1" x2="218" y2="108" style="stroke:#ddd;stroke-width:2" />
<line x1="327" y1="1" x2="327" y2="108" style="stroke:#ddd;stroke-width:2" />
<line x1="436" y1="1" x2="436" y2="108" style="stroke:#ddd;stroke-width:2" />
<line x1="545" y1="1" x2="545" y2="108" style="stroke:#ddd;stroke-width:2" />
<line x1="654" y1="1" x2="654" y2="108" style="stroke:#ddd;stroke-width:2" />
<line x1="763" y1="1" x2="763" y2="108" style="stroke:#ddd;stroke-width:2" />
<line x1="872" y1="1" x2="872" y2="108" style="stroke:#ddd;stroke-width:2" />
<line x1="981" y1="1" x2="981" y2="108" style="stroke:#ddd;stroke-width:2" />
<line x1="1090" y1="1" x2="1090" y2="108" style="stroke:#ddd;stroke-width:2" />
<line x1="1199" y1="1" x2="1199" y2="108" style="stroke:#ddd;stroke-width:2" />
<line x1="1308" y1="1" x2="1308" y2="108" style="stroke:#ddd;stroke-width:2" />
<line x1="1417" y1="1" x2="1417" y2="108" style="stroke:#ddd;stroke-width:2" />
<line x1="1526" y1="1" x2="1526" y2="108" style="stroke:#ddd;stroke-width:2" />
<line x1="1635" y1="1" x2="1635" y2="108" style="stroke:#ddd;stroke-width:2" />
<line x1="1744" y1="1" x2="1744" y2="108" style="stroke:#ddd;stroke-width:2" />
<line x1="1" y1="54" x2="1852" y2="54" style="stroke:#ddd;stroke-width:2;stroke-dasharray:3 3" />
<line x1="55" y1="1" x2="55" y2="108" style="stroke:#ddd;stroke-width:2;stroke-dasharray:3 3" />
<line x1="164" y1="1" x2="164" y2="108" style="stroke:#ddd;stroke-width:2;stroke-dasharray:3 3" />
<line x1="273" y1="1" x2="273" y2="108" style="stroke:#ddd;stroke-width:2;stroke-dasharray:3 3" />
<line x1="382" y1="1" x2="382" y2="108" style="stroke:#ddd;stroke-width:2;stroke-dasharray:3 3" />
<line x1="491" y1="1" x2="491" y2="108" style="stroke:#ddd;stroke-width:2;stroke-dasharray:3 3" />
<line x1="600" y1="1" x2="600" y2="108" style="stroke:#ddd;stroke-width:2;stroke-dasharray:3 3" />
<line x1="709" y1="1" x2="709" y2="108" style="stroke:#ddd;stroke-width:2;stroke-dasharray:3 3" />
<line x1="818" y1="1" x2="818" y2="108" style="stroke:#ddd;stroke-width:2;stroke-dasharray:3 3" />
<line x1="927" y1="1" x2="927" y2="108" style="stroke:#ddd;stroke-width:2;stroke-dasharray:3 3" />
<line x1="1036" y1="1" x2="1036" y2="108" style="stroke:#ddd;stroke-width:2;stroke-dasharray:3 3" />
<line x1="1145" y1="1" x2="1145" y2="108" style="stroke:#ddd;stroke-width:2;stroke-dasharray:3 3" />
<line x1="1254" y1="1" x2="1254" y2="108" style="stroke:#ddd;stroke-width:2;stroke-dasharray:3 3" />
<line x1="1363" y1="1" x2="1363" y2="108" style="stroke:#ddd;stroke-width:2;stroke-dasharray:3 3" />
<line x1="1472" y1="1" x2="1472" y2="108" style="stroke:#ddd;stroke-width:2;stroke-dasharray:3 3" />
<line x1="1581" y1="1" x2="1581" y2="108" style="stroke:#ddd;stroke-width:2;stroke-dasharray:3 3" />
<line x1="1690" y1="1" x2="1690" y2="108" style="stroke:#ddd;stroke-width:2;stroke-dasharray:3 3" />
<line x1="1799" y1="1" x2="1799" y2="108" style="stroke:#ddd;stroke-width:2;stroke-dasharray:3 3" />
<path d="M18.59,19.79c0.81,0.81,0.99,1.94,1,2.92c0.28,26.17,1.16,53.54-9.59,72.13" style="fill:none;stroke:black;stroke-width:3" />
<circle cx="18.59" cy="19.79" r="5" stroke-width="0" fill="#FF2A00" opacity="0.7" />
<path d="M127.59,19.79c0.81,0.81,0.99,1.94,1,2.92c0.28,26.17,1.16,53.54-9.59,72.13" style="fill:none;stroke:#999;stroke-width:3" />
<path d="M129.34,21.91c5.66-1.29,8.91-2.04,12.85-2.56c2.66-0.36,3.34,0.65,3.34,2.77c0,3.36,0,45.59,0,64.67c0,13.12-5.64,3.7-7.35,2.12" style="fill:none;stroke:black;stroke-width:3" />
<circle cx="129.34" cy="21.91" r="5" stroke-width="0" fill="#FF2A00" opacity="0.7" />
<path d="M236.59,19.79c0.81,0.81,0.99,1.94,1,2.92c0.28,26.17,1.16,53.54-9.59,72.13" style="fill:none;stroke:#999;stroke-width:3" />
<path d="M238.34,21.91c5.66-1.29,8.91-2.04,12.85-2.56c2.66-0.36,3.34,0.65,3.34,2.77c0,3.36,0,45.59,0,64.67c0,13.12-5.64,3.7-7.35,2.12" style="fill:none;stroke:#999;stroke-width:3" />
<path d="M238.34,41.57c5.78-1.07,9.37-1.62,14.91-2.07" style="fill:none;stroke:black;stroke-width:3" />
<circle cx="238.34" cy="41.57" r="5" stroke-width="0" fill="#FF2A00" opacity="0.7" />
<path d="M345.59000000000003,19.79c0.81,0.81,0.99,1.94,1,2.92c0.28,26.17,1.16,53.54-9.59,72.13" style="fill:none;stroke:#999;stroke-width:3" />
<path d="M347.34000000000003,21.91c5.66-1.29,8.91-2.04,12.85-2.56c2.66-0.36,3.34,0.65,3.34,2.77c0,3.36,0,45.59,0,64.67c0,13.12-5.64,3.7-7.35,2.12" style="fill:none;stroke:#999;stroke-width:3" />
<path d="M347.34000000000003,41.57c5.78-1.07,9.37-1.62,14.91-2.07" style="fill:none;stroke:#999;stroke-width:3" />
<path d="M347.04,60.51c5.21-0.64,9.96-1.14,16.03-1.77" style="fill:none;stroke:black;stroke-width:3" />
<circle cx="347.04" cy="60.51" r="5" stroke-width="0" fill="#FF2A00" opacity="0.7" />
<path d="M454.59000000000003,19.79c0.81,0.81,0.99,1.94,1,2.92c0.28,26.17,1.16,53.54-9.59,72.13" style="fill:none;stroke:#999;stroke-width:3" />
<path d="M456.34000000000003,21.91c5.66-1.29,8.91-2.04,12.85-2.56c2.66-0.36,3.34,0.65,3.34,2.77c0,3.36,0,45.59,0,64.67c0,13.12-5.64,3.7-7.35,2.12" style="fill:none;stroke:#999;stroke-width:3" />
<path d="M456.34000000000003,41.57c5.78-1.07,9.37-1.62,14.91-2.07" style="fill:none;stroke:#999;stroke-width:3" />
<path d="M456.04,60.51c5.21-0.64,9.96-1.14,16.03-1.77" style="fill:none;stroke:#999;stroke-width:3" />
<path d="M499.6,13.95c1.04,1.04,1.53,2.43,1.53,3.49c0,3.81-0.01,3.92-0.01,7.18" style="fill:none;stroke:black;stroke-width:3" />
<circle cx="499.6" cy="13.95" r="5" stroke-width="0" fill="#FF2A00" opacity="0.7" />
<path d="M563.59,19.79c0.81,0.81,0.99,1.94,1,2.92c0.28,26.17,1.16,53.54-9.59,72.13" style="fill:none;stroke:#999;stroke-width:3" />
<path d="M565.34,21.91c5.66-1.29,8.91-2.04,12.85-2.56c2.66-0.36,3.34,0.65,3.34,2.77c0,3.36,0,45.59,0,64.67c0,13.12-5.64,3.7-7.35,2.12" style="fill:none;stroke:#999;stroke-width:3" />
<path d="M565.34,41.57c5.78-1.07,9.37-1.62,14.91-2.07" style="fill:none;stroke:#999;stroke-width:3" />
<path d="M565.04,60.51c5.21-0.64,9.96-1.14,16.03-1.77" style="fill:none;stroke:#999;stroke-width:3" />
<path d="M608.6,13.95c1.04,1.04,1.53,2.43,1.53,3.49c0,3.81-0.01,3.92-0.01,7.18" style="fill:none;stroke:#999;stroke-width:3" />
<path d="M592.92,27.48c2.05,0.16,4.08,0.05,6.1-0.33c6.72-0.86,17.73-2.52,24.73-3.42c2.22-0.29,4.33-0.46,6.54-0.04" style="fill:none;stroke:black;stroke-width:3" />
<circle cx="592.92" cy="27.48" r="5" stroke-width="0" fill="#FF2A00" opacity="0.7" />
<path d="M672.59,19.79c0.81,0.81,0.99,1.94,1,2.92c0.28,26.17,1.16,53.54-9.59,72.13" style="fill:none;stroke:#999;stroke-width:3" />
<path d="M674.34,21.91c5.66-1.29,8.91-2.04,12.85-2.56c2.66-0.36,3.34,0.65,3.34,2.77c0,3.36,0,45.59,0,64.67c0,13.12-5.64,3.7-7.35,2.12" style="fill:none;stroke:#999;stroke-width:3" />
<path d="M674.34,41.57c5.78-1.07,9.37-1.62,14.91-2.07" style="fill:none;stroke:#999;stroke-width:3" />
<path d="M674.04,60.51c5.21-0.64,9.96-1.14,16.03-1.77" style="fill:none;stroke:#999;stroke-width:3" />
<path d="M717.6,13.95c1.04,1.04,1.53,2.43,1.53,3.49c0,3.81-0.01,3.92-0.01,7.18" style="fill:none;stroke:#999;stroke-width:3" />
<path d="M701.92,27.48c2.05,0.16,4.08,0.05,6.1-0.33c6.72-0.86,17.73-2.52,24.73-3.42c2.22-0.29,4.33-0.46,6.54-0.04" style="fill:none;stroke:#999;stroke-width:3" />
<path d="M708.0,31.12c3.32,2.91,4.64,5.84,5.12,8" style="fill:none;stroke:black;stroke-width:3" />
<circle cx="708.0" cy="31.12" r="5" stroke-width="0" fill="#FF2A00" opacity="0.7" />
<path d="M781.59,19.79c0.81,0.81,0.99,1.94,1,2.92c0.28,26.17,1.16,53.54-9.59,72.13" style="fill:none;stroke:#999;stroke-width:3" />
<path d="M783.34,21.91c5.66-1.29,8.91-2.04,12.85-2.56c2.66-0.36,3.34,0.65,3.34,2.77c0,3.36,0,45.59,0,64.67c0,13.12-5.64,3.7-7.35,2.12" style="fill:none;stroke:#999;stroke-width:3" />
<path d="M783.34,41.57c5.78-1.07,9.37-1.62,14.91-2.07" style="fill:none;stroke:#999;stroke-width:3" />
<path d="M783.04,60.51c5.21-0.64,9.96-1.14,16.03-1.77" style="fill:none;stroke:#999;stroke-width:3" />
<path d="M826.6,13.95c1.04,1.04,1.53,2.43,1.53,3.49c0,3.81-0.01,3.92-0.01,7.18" style="fill:none;stroke:#999;stroke-width:3" />
<path d="M810.92,27.48c2.05,0.16,4.08,0.05,6.1-0.33c6.72-0.86,17.73-2.52,24.73-3.42c2.22-0.29,4.33-0.46,6.54-0.04" style="fill:none;stroke:#999;stroke-width:3" />
<path d="M817.0,31.12c3.32,2.91,4.64,5.84,5.12,8" style="fill:none;stroke:#999;stroke-width:3" />
<path d="M839.0,27.75c0.17,1.15,0,1.88-0.31,2.76c-1.14,3.27-2.72,6.31-3.82,8.11" style="fill:none;stroke:black;stroke-width:3" />
<circle cx="839.0" cy="27.75" r="5" stroke-width="0" fill="#FF2A00" opacity="0.7" />
<path d="M890.59,19.79c0.81,0.81,0.99,1.94,1,2.92c0.28,26.17,1.16,53.54-9.59,72.13" style="fill:none;stroke:#999;stroke-width:3" />
<path d="M892.34,21.91c5.66-1.29,8.91-2.04,12.85-2.56c2.66-0.36,3.34,0.65,3.34,2.77c0,3.36,0,45.59,0,64.67c0,13.12-5.64,3.7-7.35,2.12" style="fill:none;stroke:#999;stroke-width:3" />
<path d="M892.34,41.57c5.78-1.07,9.37-1.62,14.91-2.07" style="fill:none;stroke:#999;stroke-width:3" />
<path d="M892.04,60.51c5.21-0.64,9.96-1.14,16.03-1.77" style="fill:none;stroke:#999;stroke-width:3" />
<path d="M935.6,13.95c1.04,1.04,1.53,2.43,1.53,3.49c0,3.81-0.01,3.92-0.01,7.18" style="fill:none;stroke:#999;stroke-width:3" />
<path d="M919.92,27.48c2.05,0.16,4.08,0.05,6.1-0.33c6.72-0.86,17.73-2.52,24.73-3.42c2.22-0.29,4.33-0.46,6.54-0.04" style="fill:none;stroke:#999;stroke-width:3" />
<path d="M926.0,31.12c3.32,2.91,4.64,5.84,5.12,8" style="fill:none;stroke:#999;stroke-width:3" />
<path d="M948.0,27.75c0.17,1.15,0,1.88-0.31,2.76c-1.14,3.27-2.72,6.31-3.82,8.11" style="fill:none;stroke:#999;stroke-width:3" />
<path d="M914.84,44.43c2.75,0.3,5.47,0.15,8.17-0.43c12.53-1.8,24.01-3.84,35.5-5.12c2.73-0.38,5.46-0.52,8.22-0.4" style="fill:none;stroke:black;stroke-width:3" />
<circle cx="914.84" cy="44.43" r="5" stroke-width="0" fill="#FF2A00" opacity="0.7" />
<path d="M999.59,19.79c0.81,0.81,0.99,1.94,1,2.92c0.28,26.17,1.16,53.54-9.59,72.13" style="fill:none;stroke:#999;stroke-width:3" />
<path d="M1001.34,21.91c5.66-1.29,8.91-2.04,12.85-2.56c2.66-0.36,3.34,0.65,3.34,2.77c0,3.36,0,45.59,0,64.67c0,13.12-5.64,3.7-7.35,2.12" style="fill:none;stroke:#999;stroke-width:3" />
<path d="M1001.34,41.57c5.78-1.07,9.37-1.62,14.91-2.07" style="fill:none;stroke:#999;stroke-width:3" />
<path d="M1001.04,60.51c5.21-0.64,9.96-1.14,16.03-1.77" style="fill:none;stroke:#999;stroke-width:3" />
<path d="M1044.6,13.95c1.04,1.04,1.53,2.43,1.53,3.49c0,3.81-0.01,3.92-0.01,7.18" style="fill:none;stroke:#999;stroke-width:3" />
<path d="M1028.92,27.48c2.05,0.16,4.08,0.05,6.1-0.33c6.72-0.86,17.73-2.52,24.73-3.42c2.22-0.29,4.33-0.46,6.54-0.04" style="fill:none;stroke:#999;stroke-width:3" />
<path d="M1035.0,31.12c3.32,2.91,4.64,5.84,5.12,8" style="fill:none;stroke:#999;stroke-width:3" />
<path d="M1057.0,27.75c0.17,1.15,0,1.88-0.31,2.76c-1.14,3.27-2.72,6.31-3.82,8.11" style="fill:none;stroke:#999;stroke-width:3" />
<path d="M1023.84,44.43c2.75,0.3,5.47,0.15,8.17-0.43c12.53-1.8,24.01-3.84,35.5-5.12c2.73-0.38,5.46-0.52,8.22-0.4" style="fill:none;stroke:#999;stroke-width:3" />
<path d="M1031.55,52.76c0.72,0.72,1.01,2.31,1.12,2.97c0.49,2.98,1.7,10.43,2.39,14.78c0.32,1.72,0.55,3.45,0.68,5.19" style="fill:none;stroke:black;stroke-width:3" />
<circle cx="1031.55" cy="52.76" r="5" stroke-width="0" fill="#FF2A00" opacity="0.7" />
<path d="M1108.5900000000001,19.79c0.81,0.81,0.99,1.94,1,2.92c0.28,26.17,1.16,53.54-9.59,72.13" style="fill:none;stroke:#999;stroke-width:3" />
<path d="M1110.3400000000001,21.91c5.66-1.29,8.91-2.04,12.85-2.56c2.66-0.36,3.34,0.65,3.34,2.77c0,3.36,0,45.59,0,64.67c0,13.12-5.64,3.7-7.35,2.12" style="fill:none;stroke:#999;stroke-width:3" />
<path d="M1110.3400000000001,41.57c5.78-1.07,9.37-1.62,14.91-2.07" style="fill:none;stroke:#999;stroke-width:3" />
<path d="M1110.04,60.51c5.21-0.64,9.96-1.14,16.03-1.77" style="fill:none;stroke:#999;stroke-width:3" />
<path d="M1153.6,13.95c1.04,1.04,1.53,2.43,1.53,3.49c0,3.81-0.01,3.92-0.01,7.18" style="fill:none;stroke:#999;stroke-width:3" />
<path d="M1137.92,27.48c2.05,0.16,4.08,0.05,6.1-0.33c6.72-0.86,17.73-2.52,24.73-3.42c2.22-0.29,4.33-0.46,6.54-0.04" style="fill:none;stroke:#999;stroke-width:3" />
<path d="M1144.0,31.12c3.32,2.91,4.64,5.84,5.12,8" style="fill:none;stroke:#999;stroke-width:3" />
<path d="M1166.0,27.75c0.17,1.15,0,1.88-0.31,2.76c-1.14,3.27-2.72,6.31-3.82,8.11" style="fill:none;stroke:#999;stroke-width:3" />
<path d="M1132.8400000000001,44.43c2.75,0.3,5.47,0.15,8.17-0.43c12.53-1.8,24.01-3.84,35.5-5.12c2.73-0.38,5.46-0.52,8.22-0.4" style="fill:none;stroke:#999;stroke-width:3" />
<path d="M1140.55,52.76c0.72,0.72,1.01,2.31,1.12,2.97c0.49,2.98,1.7,10.43,2.39,14.78c0.32,1.72,0.55,3.45,0.68,5.19" style="fill:none;stroke:#999;stroke-width:3" />
<path d="M1142.34,53.85c2.31-0.4,22.91-3.85,26.83-4.4c3.17-0.44,4.45,1.28,4.05,4.18c-0.46,3.38-1.23,8.78-2.1,13.64c-0.3,1.71-0.62,3.34-0.94,4.8" style="fill:none;stroke:black;stroke-width:3" />
<circle cx="1142.34" cy="53.85" r="5" stroke-width="0" fill="#FF2A00" opacity="0.7" />
<path d="M1217.5900000000001,19.79c0.81,0.81,0.99,1.94,1,2.92c0.28,26.17,1.16,53.54-9.59,72.13" style="fill:none;stroke:#999;stroke-width:3" />
<path d="M1219.3400000000001,21.91c5.66-1.29,8.91-2.04,12.85-2.56c2.66-0.36,3.34,0.65,3.34,2.77c0,3.36,0,45.59,0,64.67c0,13.12-5.64,3.7-7.35,2.12" style="fill:none;stroke:#999;stroke-width:3" />
<path d="M1219.3400000000001,41.57c5.78-1.07,9.37-1.62,14.91-2.07" style="fill:none;stroke:#999;stroke-width:3" />
<path d="M1219.04,60.51c5.21-0.64,9.96-1.14,16.03-1.77" style="fill:none;stroke:#999;stroke-width:3" />
<path d="M1262.6,13.95c1.04,1.04,1.53,2.43,1.53,3.49c0,3.81-0.01,3.92-0.01,7.18" style="fill:none;stroke:#999;stroke-width:3" />
<path d="M1246.92,27.48c2.05,0.16,4.08,0.05,6.1-0.33c6.72-0.86,17.73-2.52,24.73-3.42c2.22-0.29,4.33-0.46,6.54-0.04" style="fill:none;stroke:#999;stroke-width:3" />
<path d="M1253.0,31.12c3.32,2.91,4.64,5.84,5.12,8" style="fill:none;stroke:#999;stroke-width:3" />
<path d="M1275.0,27.75c0.17,1.15,0,1.88-0.31,2.76c-1.14,3.27-2.72,6.31-3.82,8.11" style="fill:none;stroke:#999;stroke-width:3" />
<path d="M1241.8400000000001,44.43c2.75,0.3,5.47,0.15,8.17-0.43c12.53-1.8,24.01-3.84,35.5-5.12c2.73-0.38,5.46-0.52,8.22-0.4" style="fill:none;stroke:#999;stroke-width:3" />
<path d="M1249.55,52.76c0.72,0.72,1.01,2.31,1.12,2.97c0.49,2.98,1.7,10.43,2.39,14.78c0.32,1.72,0.55,3.45,0.68,5.19" style="fill:none;stroke:#999;stroke-width:3" />
<path d="M1251.34,53.85c2.31-0.4,22.91-3.85,26.83-4.4c3.17-0.44,4.45,1.28,4.05,4.18c-0.46,3.38-1.23,8.78-2.1,13.64c-0.3,1.71-0.62,3.34-0.94,4.8" style="fill:none;stroke:#999;stroke-width:3" />
<path d="M1252.98,63.19c3.12-0.44,24.17-3.51,27.7-4" style="fill:none;stroke:black;stroke-width:3" />
<circle cx="1252.98" cy="63.19" r="5" stroke-width="0" fill="#FF2A00" opacity="0.7" />
<path d="M1326.5900000000001,19.79c0.81,0.81,0.99,1.94,1,2.92c0.28,26.17,1.16,53.54-9.59,72.13" style="fill:none;stroke:#999;stroke-width:3" />
<path d="M1328.3400000000001,21.91c5.66-1.29,8.91-2.04,12.85-2.56c2.66-0.36,3.34,0.65,3.34,2.77c0,3.36,0,45.59,0,64.67c0,13.12-5.64,3.7-7.35,2.12" style="fill:none;stroke:#999;stroke-width:3" />
<path d="M1328.3400000000001,41.57c5.78-1.07,9.37-1.62,14.91-2.07" style="fill:none;stroke:#999;stroke-width:3" />
<path d="M1328.04,60.51c5.21-0.64,9.96-1.14,16.03-1.77" style="fill:none;stroke:#999;stroke-width:3" />
<path d="M1371.6,13.95c1.04,1.04,1.53,2.43,1.53,3.49c0,3.81-0.01,3.92-0.01,7.18" style="fill:none;stroke:#999;stroke-width:3" />
<path d="M1355.92,27.48c2.05,0.16,4.08,0.05,6.1-0.33c6.72-0.86,17.73-2.52,24.73-3.42c2.22-0.29,4.33-0.46,6.54-0.04" style="fill:none;stroke:#999;stroke-width:3" />
<path d="M1362.0,31.12c3.32,2.91,4.64,5.84,5.12,8" style="fill:none;stroke:#999;stroke-width:3" />
<path d="M1384.0,27.75c0.17,1.15,0,1.88-0.31,2.76c-1.14,3.27-2.72,6.31-3.82,8.11" style="fill:none;stroke:#999;stroke-width:3" />
<path d="M1350.8400000000001,44.43c2.75,0.3,5.47,0.15,8.17-0.43c12.53-1.8,24.01-3.84,35.5-5.12c2.73-0.38,5.46-0.52,8.22-0.4" style="fill:none;stroke:#999;stroke-width:3" />
<path d="M1358.55,52.76c0.72,0.72,1.01,2.31,1.12,2.97c0.49,2.98,1.7,10.43,2.39,14.78c0.32,1.72,0.55,3.45,0.68,5.19" style="fill:none;stroke:#999;stroke-width:3" />
<path d="M1360.34,53.85c2.31-0.4,22.91-3.85,26.83-4.4c3.17-0.44,4.45,1.28,4.05,4.18c-0.46,3.38-1.23,8.78-2.1,13.64c-0.3,1.71-0.62,3.34-0.94,4.8" style="fill:none;stroke:#999;stroke-width:3" />
<path d="M1361.98,63.19c3.12-0.44,24.17-3.51,27.7-4" style="fill:none;stroke:#999;stroke-width:3" />
<path d="M1363.75,72.58c4.61-0.65,17.91-2.11,23.87-2.94" style="fill:none;stroke:black;stroke-width:3" />
<circle cx="1363.75" cy="72.58" r="5" stroke-width="0" fill="#FF2A00" opacity="0.7" />
<path d="M1435.5900000000001,19.79c0.81,0.81,0.99,1.94,1,2.92c0.28,26.17,1.16,53.54-9.59,72.13" style="fill:none;stroke:#999;stroke-width:3" />
<path d="M1437.3400000000001,21.91c5.66-1.29,8.91-2.04,12.85-2.56c2.66-0.36,3.34,0.65,3.34,2.77c0,3.36,0,45.59,0,64.67c0,13.12-5.64,3.7-7.35,2.12" style="fill:none;stroke:#999;stroke-width:3" />
<path d="M1437.3400000000001,41.57c5.78-1.07,9.37-1.62,14.91-2.07" style="fill:none;stroke:#999;stroke-width:3" />
<path d="M1437.04,60.51c5.21-0.64,9.96-1.14,16.03-1.77" style="fill:none;stroke:#999;stroke-width:3" />
<path d="M1480.6,13.95c1.04,1.04,1.53,2.43,1.53,3.49c0,3.81-0.01,3.92-0.01,7.18" style="fill:none;stroke:#999;stroke-width:3" />
<path d="M1464.92,27.48c2.05,0.16,4.08,0.05,6.1-0.33c6.72-0.86,17.73-2.52,24.73-3.42c2.22-0.29,4.33-0.46,6.54-0.04" style="fill:none;stroke:#999;stroke-width:3" />
<path d="M1471.0,31.12c3.32,2.91,4.64,5.84,5.12,8" style="fill:none;stroke:#999;stroke-width:3" />
<path d="M1493.0,27.75c0.17,1.15,0,1.88-0.31,2.76c-1.14,3.27-2.72,6.31-3.82,8.11" style="fill:none;stroke:#999;stroke-width:3" />
<path d="M1459.8400000000001,44.43c2.75,0.3,5.47,0.15,8.17-0.43c12.53-1.8,24.01-3.84,35.5-5.12c2.73-0.38,5.46-0.52,8.22-0.4" style="fill:none;stroke:#999;stroke-width:3" />
<path d="M1467.55,52.76c0.72,0.72,1.01,2.31,1.12,2.97c0.49,2.98,1.7,10.43,2.39,14.78c0.32,1.72,0.55,3.45,0.68,5.19" style="fill:none;stroke:#999;stroke-width:3" />
<path d="M1469.34,53.85c2.31-0.4,22.91-3.85,26.83-4.4c3.17-0.44,4.45,1.28,4.05,4.18c-0.46,3.38-1.23,8.78-2.1,13.64c-0.3,1.71-0.62,3.34-0.94,4.8" style="fill:none;stroke:#999;stroke-width:3" />
<path d="M1470.98,63.19c3.12-0.44,24.17-3.51,27.7-4" style="fill:none;stroke:#999;stroke-width:3" />
<path d="M1472.75,72.58c4.61-0.65,17.91-2.11,23.87-2.94" style="fill:none;stroke:#999;stroke-width:3" />
<path d="M1464.91,83.34c0.23,1.59-2.24,8.99-4.06,11.88" style="fill:none;stroke:black;stroke-width:3" />
<circle cx="1464.91" cy="83.34" r="5" stroke-width="0" fill="#FF2A00" opacity="0.7" />
<path d="M1544.5900000000001,19.79c0.81,0.81,0.99,1.94,1,2.92c0.28,26.17,1.16,53.54-9.59,72.13" style="fill:none;stroke:#999;stroke-width:3" />
<path d="M1546.3400000000001,21.91c5.66-1.29,8.91-2.04,12.85-2.56c2.66-0.36,3.34,0.65,3.34,2.77c0,3.36,0,45.59,0,64.67c0,13.12-5.64,3.7-7.35,2.12" style="fill:none;stroke:#999;stroke-width:3" />
<path d="M1546.3400000000001,41.57c5.78-1.07,9.37-1.62,14.91-2.07" style="fill:none;stroke:#999;stroke-width:3" />
<path d="M1546.04,60.51c5.21-0.64,9.96-1.14,16.03-1.77" style="fill:none;stroke:#999;stroke-width:3" />
<path d="M1589.6,13.95c1.04,1.04,1.53,2.43,1.53,3.49c0,3.81-0.01,3.92-0.01,7.18" style="fill:none;stroke:#999;stroke-width:3" />
<path d="M1573.92,27.48c2.05,0.16,4.08,0.05,6.1-0.33c6.72-0.86,17.73-2.52,24.73-3.42c2.22-0.29,4.33-0.46,6.54-0.04" style="fill:none;stroke:#999;stroke-width:3" />
<path d="M1580.0,31.12c3.32,2.91,4.64,5.84,5.12,8" style="fill:none;stroke:#999;stroke-width:3" />
<path d="M1602.0,27.75c0.17,1.15,0,1.88-0.31,2.76c-1.14,3.27-2.72,6.31-3.82,8.11" style="fill:none;stroke:#999;stroke-width:3" />
<path d="M1568.8400000000001,44.43c2.75,0.3,5.47,0.15,8.17-0.43c12.53-1.8,24.01-3.84,35.5-5.12c2.73-0.38,5.46-0.52,8.22-0.4" style="fill:none;stroke:#999;stroke-width:3" />
<path d="M1576.55,52.76c0.72,0.72,1.01,2.31,1.12,2.97c0.49,2.98,1.7,10.43,2.39,14.78c0.32,1.72,0.55,3.45,0.68,5.19" style="fill:none;stroke:#999;stroke-width:3" />
<path d="M1578.34,53.85c2.31-0.4,22.91-3.85,26.83-4.4c3.17-0.44,4.45,1.28,4.05,4.18c-0.46,3.38-1.23,8.78-2.1,13.64c-0.3,1.71-0.62,3.34-0.94,4.8" style="fill:none;stroke:#999;stroke-width:3" />
<path d="M1579.98,63.19c3.12-0.44,24.17-3.51,27.7-4" style="fill:none;stroke:#999;stroke-width:3" />
<path d="M1581.75,72.58c4.61-0.65,17.91-2.11,23.87-2.94" style="fill:none;stroke:#999;stroke-width:3" />
<path d="M1573.91,83.34c0.23,1.59-2.24,8.99-4.06,11.88" style="fill:none;stroke:#999;stroke-width:3" />
<path d="M1581.92,81.81c7.08,10.44,12.6,13.7,30.06,14.46c10.29,0.45,9.52-2.52,1.31-7.39" style="fill:none;stroke:black;stroke-width:3" />
<circle cx="1581.92" cy="81.81" r="5" stroke-width="0" fill="#FF2A00" opacity="0.7" />
<path d="M1653.5900000000001,19.79c0.81,0.81,0.99,1.94,1,2.92c0.28,26.17,1.16,53.54-9.59,72.13" style="fill:none;stroke:#999;stroke-width:3" />
<path d="M1655.3400000000001,21.91c5.66-1.29,8.91-2.04,12.85-2.56c2.66-0.36,3.34,0.65,3.34,2.77c0,3.36,0,45.59,0,64.67c0,13.12-5.64,3.7-7.35,2.12" style="fill:none;stroke:#999;stroke-width:3" />
<path d="M1655.3400000000001,41.57c5.78-1.07,9.37-1.62,14.91-2.07" style="fill:none;stroke:#999;stroke-width:3" />
<path d="M1655.04,60.51c5.21-0.64,9.96-1.14,16.03-1.77" style="fill:none;stroke:#999;stroke-width:3" />
<path d="M1698.6,13.95c1.04,1.04,1.53,2.43,1.53,3.49c0,3.81-0.01,3.92-0.01,7.18" style="fill:none;stroke:#999;stroke-width:3" />
<path d="M1682.92,27.48c2.05,0.16,4.08,0.05,6.1-0.33c6.72-0.86,17.73-2.52,24.73-3.42c2.22-0.29,4.33-0.46,6.54-0.04" style="fill:none;stroke:#999;stroke-width:3" />
<path d="M1689.0,31.12c3.32,2.91,4.64,5.84,5.12,8" style="fill:none;stroke:#999;stroke-width:3" />
<path d="M1711.0,27.75c0.17,1.15,0,1.88-0.31,2.76c-1.14,3.27-2.72,6.31-3.82,8.11" style="fill:none;stroke:#999;stroke-width:3" />
<path d="M1677.8400000000001,44.43c2.75,0.3,5.47,0.15,8.17-0.43c12.53-1.8,24.01-3.84,35.5-5.12c2.73-0.38,5.46-0.52,8.22-0.4" style="fill:none;stroke:#999;stroke-width:3" />
<path d="M1685.55,52.76c0.72,0.72,1.01,2.31,1.12,2.97c0.49,2.98,1.7,10.43,2.39,14.78c0.32,1.72,0.55,3.45,0.68,5.19" style="fill:none;stroke:#999;stroke-width:3" />
<path d="M1687.34,53.85c2.31-0.4,22.91-3.85,26.83-4.4c3.17-0.44,4.45,1.28,4.05,4.18c-0.46,3.38-1.23,8.78-2.1,13.64c-0.3,1.71-0.62,3.34-0.94,4.8" style="fill:none;stroke:#999;stroke-width:3" />
<path d="M1688.98,63.19c3.12-0.44,24.17-3.51,27.7-4" style="fill:none;stroke:#999;stroke-width:3" />
<path d="M1690.75,72.58c4.61-0.65,17.91-2.11,23.87-2.94" style="fill:none;stroke:#999;stroke-width:3" />
<path d="M1682.91,83.34c0.23,1.59-2.24,8.99-4.06,11.88" style="fill:none;stroke:#999;stroke-width:3" />
<path d="M1690.92,81.81c7.08,10.44,12.6,13.7,30.06,14.46c10.29,0.45,9.52-2.52,1.31-7.39" style="fill:none;stroke:#999;stroke-width:3" />
<path d="M1705.88,79.13c2.37,4.37,5.11,4.84,5.79,1.85" style="fill:none;stroke:black;stroke-width:3" />
<circle cx="1705.88" cy="79.13" r="5" stroke-width="0" fill="#FF2A00" opacity="0.7" />
<path d="M1762.5900000000001,19.79c0.81,0.81,0.99,1.94,1,2.92c0.28,26.17,1.16,53.54-9.59,72.13" style="fill:none;stroke:#999;stroke-width:3" />
<path d="M1764.3400000000001,21.91c5.66-1.29,8.91-2.04,12.85-2.56c2.66-0.36,3.34,0.65,3.34,2.77c0,3.36,0,45.59,0,64.67c0,13.12-5.64,3.7-7.35,2.12" style="fill:none;stroke:#999;stroke-width:3" />
<path d="M1764.3400000000001,41.57c5.78-1.07,9.37-1.62,14.91-2.07" style="fill:none;stroke:#999;stroke-width:3" />
<path d="M1764.04,60.51c5.21-0.64,9.96-1.14,16.03-1.77" style="fill:none;stroke:#999;stroke-width:3" />
<path d="M1807.6,13.95c1.04,1.04,1.53,2.43,1.53,3.49c0,3.81-0.01,3.92-0.01,7.18" style="fill:none;stroke:#999;stroke-width:3" />
<path d="M1791.92,27.48c2.05,0.16,4.08,0.05,6.1-0.33c6.72-0.86,17.73-2.52,24.73-3.42c2.22-0.29,4.33-0.46,6.54-0.04" style="fill:none;stroke:#999;stroke-width:3" />
<path d="M1798.0,31.12c3.32,2.91,4.64,5.84,5.12,8" style="fill:none;stroke:#999;stroke-width:3" />
<path d="M1820.0,27.75c0.17,1.15,0,1.88-0.31,2.76c-1.14,3.27-2.72,6.31-3.82,8.11" style="fill:none;stroke:#999;stroke-width:3" />
<path d="M1786.8400000000001,44.43c2.75,0.3,5.47,0.15,8.17-0.43c12.53-1.8,24.01-3.84,35.5-5.12c2.73-0.38,5.46-0.52,8.22-0.4" style="fill:none;stroke:#999;stroke-width:3" />
<path d="M1794.55,52.76c0.72,0.72,1.01,2.31,1.12,2.97c0.49,2.98,1.7,10.43,2.39,14.78c0.32,1.72,0.55,3.45,0.68,5.19" style="fill:none;stroke:#999;stroke-width:3" />
<path d="M1796.34,53.85c2.31-0.4,22.91-3.85,26.83-4.4c3.17-0.44,4.45,1.28,4.05,4.18c-0.46,3.38-1.23,8.78-2.1,13.64c-0.3,1.71-0.62,3.34-0.94,4.8" style="fill:none;stroke:#999;stroke-width:3" />
<path d="M1797.98,63.19c3.12-0.44,24.17-3.51,27.7-4" style="fill:none;stroke:#999;stroke-width:3" />
<path d="M1799.75,72.58c4.61-0.65,17.91-2.11,23.87-2.94" style="fill:none;stroke:#999;stroke-width:3" />
<path d="M1791.91,83.34c0.23,1.59-2.24,8.99-4.06,11.88" style="fill:none;stroke:#999;stroke-width:3" />
<path d="M1799.92,81.81c7.08,10.44,12.6,13.7,30.06,14.46c10.29,0.45,9.52-2.52,1.31-7.39" style="fill:none;stroke:#999;stroke-width:3" />
<path d="M1814.88,79.13c2.37,4.37,5.11,4.84,5.79,1.85" style="fill:none;stroke:#999;stroke-width:3" />
<path d="M1834.31,74.5c3.51,1.61,6.01,3.93,9.02,8.91" style="fill:none;stroke:black;stroke-width:3" />
<circle cx="1834.31" cy="74.5" r="5" stroke-width="0" fill="#FF2A00" opacity="0.7" />
</svg>