<!-- 081df -->
<svg width="2398px" height="109px" viewBox="0 0 2398px 109px" xmlns="http://www.w3.org/2000/svg" xmlns:xlink="http://www.w3.org/1999/xlink" xml:space="preserve" version="1.1"  baseProfile="full">
<line x1="1" y1="1" x2="2397" y2="1" style="stroke:#ddd;stroke-width:2" />
<line x1="1" y1="1" x2="1" y2="108" style="stroke:#ddd;stroke-width:2" />
<line x1="1" y1="108" x2="2397" y2="108" style="stroke:#ddd;stroke-width:2" />
<line x1="2397" y1="1" x2="2397" y2="108" style="stroke:#ddd;stroke-width:2" />
<line x1="109" y1="1" x2="109" y2="108" style="stroke:#ddd;stroke-width:2" />
<line x1="218" y1="1" x2="218" y2="108" style="stroke:#ddd;stroke-width:2" />
<line x1="327" y1="1" x2="327" y2="108" style="stroke:#ddd;stroke-width:2" />
<line x1="436" y1="1" x2="436" y2="108" style="stroke:#ddd;stroke-width:2" />
<line x1="545" y1="1" x2="545" y2="108" style="stroke:#ddd;stroke-width:2" />
<line x1="654" y1="1" x2="654" y2="108" style="stroke:#ddd;stroke-width:2" />
<line x1="763" y1="1" x2="763" y2="108" style="stroke:#ddd;stroke-width:2" />
<line x1="872" y1="1" x2="872" y2="108" style="stroke:#ddd;stroke-width:2" />
<line x1="981" y1="1" x2="981" y2="108" style="stroke:#ddd;stroke-width:2" />
<line x1="1090" y1="1" x2="1090" y2="108" style="stroke:#ddd;stroke-width:2" />
<line x1="1199" y1="1" x2="1199" y2="108" style="stroke:#ddd;stroke-width:2" />
<line x1="1308" y1="1" x2="1308" y2="108" style="stroke:#ddd;stroke-width:2" />
<line x1="1417" y1="1" x2="1417" y2="108" style="stroke:#ddd;stroke-width:2" />
<line x1="1526" y1="1" x2="1526" y2="108" style="stroke:#ddd;stroke-width:2" />
<line x1="1635" y1="1" x2="1635" y2="108" style="stroke:#ddd;stroke-width:2" />
<line x1="1744" y1="1" x2="1744" y2="108" style="stroke:#ddd;stroke-width:2" />
<line x1="1853" y1="1" x2="1853" y2="108" style="stroke:#ddd;stroke-width:2" />
<line x1="1962" y1="1" x2="1962" y2="108" style="stroke:#ddd;stroke-width:2" />
<line x1="2071" y1="1" x2="2071" y2="108" style="stroke:#ddd;stroke-width:2" />
<line x1="2180" y1="1" x2="2180" y2="108" style="stroke:#ddd;stroke-width:2" />
<line x1="2289" y1="1" x2="2289" y2="108" style="stroke:#ddd;stroke-width:2" />
<line x1="1" y1="54" x2="2397" y2="54" style="stroke:#ddd;stroke-width:2;stroke-dasharray:3 3" />
<line x1="55" y1="1" x2="55" y2="108" style="stroke:#ddd;stroke-width:2;stroke-dasharray:3 3" />
<line x1="164" y1="1" x2="164" y2="108" style="stroke:#ddd;stroke-width:2;stroke-dasharray:3 3" />
<line x1="273" y1="1" x2="273" y2="108" style="stroke:#ddd;stroke-width:2;stroke-dasharray:3 3" />
<line x1="382" y1="1" x2="382" y2="108" style="stroke:#ddd;stroke-width:2;stroke-dasharray:3 3" />
<line x1="491" y1="1" x2="491" y2="108" style="stroke:#ddd;stroke-width:2;stroke-dasharray:3 3" />
<line x1="600" y1="1" x2="600" y2="108" style="stroke:#ddd;stroke-width:2;stroke-dasharray:3 3" />
<line x1="709" y1="1" x2="709" y2="108" style="stroke:#ddd;stroke-width:2;stroke-dasharray:3 3" />
<line x1="818" y1="1" x2="818" y2="108" style="stroke:#ddd;stroke-width:2;stroke-dasharray:3 3" />
<line x1="927" y1="1" x2="927" y2="108" style="stroke:#ddd;stroke-width:2;stroke-dasharray:3 3" />
<line x1="1036" y1="1" x2="1036" y2="108" style="stroke:#ddd;stroke-width:2;stroke-dasharray:3 3" />
<line x1="1145" y1="1" x2="1145" y2="108" style="stroke:#ddd;stroke-width:2;stroke-dasharray:3 3" />
<line x1="1254" y1="1" x2="1254" y2="108" style="stroke:#ddd;stroke-width:2;stroke-dasharray:3 3" />
<line x1="1363" y1="1" x2="1363" y2="108" style="stroke:#ddd;stroke-width:2;stroke-dasharray:3 3" />
<line x1="1472" y1="1" x2="1472" y2="108" style="stroke:#ddd;stroke-width:2;stroke-dasharray:3 3" />
<line x1="1581" y1="1" x2="1581" y2="108" style="stroke:#ddd;stroke-width:2;stroke-dasharray:3 3" />
<line x1="1690" y1="1" x2="1690" y2="108" style="stroke:#ddd;stroke-width:2;stroke-dasharray:3 3" />
<line x1="1799" y1="1" x2="1799" y2="108" style="stroke:#ddd;stroke-width:2;stroke-dasharray:3 3" />
<line x1="1908" y1="1" x2="1908" y2="108" style="stroke:#ddd;stroke-width:2;stroke-dasharray:3 3" />
<line x1="2017" y1="1" x2="2017" y2="108" style="stroke:#ddd;stroke-width:2;stroke-dasharray:3 3" />
<line x1="2126" y1="1" x2="2126" y2="108" style="stroke:#ddd;stroke-width:2;stroke-dasharray:3 3" />
<line x1="2235" y1="1" x2="2235" y2="108" style="stroke:#ddd;stroke-width:2;stroke-dasharray:3 3" />
<line x1="2344" y1="1" x2="2344" y2="108" style="stroke:#ddd;stroke-width:2;stroke-dasharray:3 3" />
<path d="M17.42,18.75c1.58,0.75,1.45,2.11,1.66,3.1c0.21,1,0.19,27.11-0.5,35.47c-0.98,11.9-1.98,23.89-9.33,38.65" style="fill:none;stroke:black;stroke-width:3" />
<circle cx="17.42" cy="18.75" r="5" stroke-width="0" fill="#FF2A00" opacity="0.7" />
<path d="M126.42,18.75c1.58,0.75,1.45,2.11,1.66,3.1c0.21,1,0.19,27.11-0.5,35.47c-0.98,11.9-1.98,23.89-9.33,38.65" style="fill:none;stroke:#999;stroke-width:3" />
<path d="M128.82,20.04c2.1-0.06,7.2-1.52,8.76-1.62c1.46-0.1,2.95,0.97,2.95,2.31c0,3.18-0.03,48.46-0.03,66.52c0,12.42-3.47,5.99-5.26,4.5" style="fill:none;stroke:black;stroke-width:3" />
<circle cx="128.82" cy="20.04" r="5" stroke-width="0" fill="#FF2A00" opacity="0.7" />
<path d="M235.42000000000002,18.75c1.58,0.75,1.45,2.11,1.66,3.1c0.21,1,0.19,27.11-0.5,35.47c-0.98,11.9-1.98,23.89-9.33,38.65" style="fill:none;stroke:#999;stroke-width:3" />
<path d="M237.82,20.04c2.1-0.06,7.2-1.52,8.76-1.62c1.46-0.1,2.95,0.97,2.95,2.31c0,3.18-0.03,48.46-0.03,66.52c0,12.42-3.47,5.99-5.26,4.5" style="fill:none;stroke:#999;stroke-width:3" />
<path d="M237.75,42.58c4.61-0.35,7.12-1.31,11.17-1.33" style="fill:none;stroke:black;stroke-width:3" />
<circle cx="237.75" cy="42.58" r="5" stroke-width="0" fill="#FF2A00" opacity="0.7" />
<path d="M344.42,18.75c1.58,0.75,1.45,2.11,1.66,3.1c0.21,1,0.19,27.11-0.5,35.47c-0.98,11.9-1.98,23.89-9.33,38.65" style="fill:none;stroke:#999;stroke-width:3" />
<path d="M346.82,20.04c2.1-0.06,7.2-1.52,8.76-1.62c1.46-0.1,2.95,0.97,2.95,2.31c0,3.18-0.03,48.46-0.03,66.52c0,12.42-3.47,5.99-5.26,4.5" style="fill:none;stroke:#999;stroke-width:3" />
<path d="M346.75,42.58c4.61-0.35,7.12-1.31,11.17-1.33" style="fill:none;stroke:#999;stroke-width:3" />
<path d="M346.42,62.08c3.79-0.09,5.99-0.65,11.13-1.12" style="fill:none;stroke:black;stroke-width:3" />
<circle cx="346.42" cy="62.08" r="5" stroke-width="0" fill="#FF2A00" opacity="0.7" />
<path d="M453.42,18.75c1.58,0.75,1.45,2.11,1.66,3.1c0.21,1,0.19,27.11-0.5,35.47c-0.98,11.9-1.98,23.89-9.33,38.65" style="fill:none;stroke:#999;stroke-width:3" />
<path d="M455.82,20.04c2.1-0.06,7.2-1.52,8.76-1.62c1.46-0.1,2.95,0.97,2.95,2.31c0,3.18-0.03,48.46-0.03,66.52c0,12.42-3.47,5.99-5.26,4.5" style="fill:none;stroke:#999;stroke-width:3" />
<path d="M455.75,42.58c4.61-0.35,7.12-1.31,11.17-1.33" style="fill:none;stroke:#999;stroke-width:3" />
<path d="M455.42,62.08c3.79-0.09,5.99-0.65,11.13-1.12" style="fill:none;stroke:#999;stroke-width:3" />
<path d="M475.58,22.58c1.14,0.3,4.86,0.73,6,0.67c10.48-0.55,28.16-3.61,41.67-4.17c1.9-0.08,4.22,0.52,5.17,0.67" style="fill:none;stroke:black;stroke-width:3" />
<circle cx="475.58" cy="22.58" r="5" stroke-width="0" fill="#FF2A00" opacity="0.7" />
<path d="M562.4200000000001,18.75c1.58,0.75,1.45,2.11,1.66,3.1c0.21,1,0.19,27.11-0.5,35.47c-0.98,11.9-1.98,23.89-9.33,38.65" style="fill:none;stroke:#999;stroke-width:3" />
<path d="M564.8199999999999,20.04c2.1-0.06,7.2-1.52,8.76-1.62c1.46-0.1,2.95,0.97,2.95,2.31c0,3.18-0.03,48.46-0.03,66.52c0,12.42-3.47,5.99-5.26,4.5" style="fill:none;stroke:#999;stroke-width:3" />
<path d="M564.75,42.58c4.61-0.35,7.12-1.31,11.17-1.33" style="fill:none;stroke:#999;stroke-width:3" />
<path d="M564.4200000000001,62.08c3.79-0.09,5.99-0.65,11.13-1.12" style="fill:none;stroke:#999;stroke-width:3" />
<path d="M584.5799999999999,22.58c1.14,0.3,4.86,0.73,6,0.67c10.48-0.55,28.16-3.61,41.67-4.17c1.9-0.08,4.22,0.52,5.17,0.67" style="fill:none;stroke:#999;stroke-width:3" />
<path d="M594.92,13.25c2.08,0.25,2.97,2.6,3.08,3.4c0.78,5.36,0.53,10.25,0.92,14.27" style="fill:none;stroke:black;stroke-width:3" />
<circle cx="594.92" cy="13.25" r="5" stroke-width="0" fill="#FF2A00" opacity="0.7" />
<path d="M671.4200000000001,18.75c1.58,0.75,1.45,2.11,1.66,3.1c0.21,1,0.19,27.11-0.5,35.47c-0.98,11.9-1.98,23.89-9.33,38.65" style="fill:none;stroke:#999;stroke-width:3" />
<path d="M673.8199999999999,20.04c2.1-0.06,7.2-1.52,8.76-1.62c1.46-0.1,2.95,0.97,2.95,2.31c0,3.18-0.03,48.46-0.03,66.52c0,12.42-3.47,5.99-5.26,4.5" style="fill:none;stroke:#999;stroke-width:3" />
<path d="M673.75,42.58c4.61-0.35,7.12-1.31,11.17-1.33" style="fill:none;stroke:#999;stroke-width:3" />
<path d="M673.4200000000001,62.08c3.79-0.09,5.99-0.65,11.13-1.12" style="fill:none;stroke:#999;stroke-width:3" />
<path d="M693.5799999999999,22.58c1.14,0.3,4.86,0.73,6,0.67c10.48-0.55,28.16-3.61,41.67-4.17c1.9-0.08,4.22,0.52,5.17,0.67" style="fill:none;stroke:#999;stroke-width:3" />
<path d="M703.92,13.25c2.08,0.25,2.97,2.6,3.08,3.4c0.78,5.36,0.53,10.25,0.92,14.27" style="fill:none;stroke:#999;stroke-width:3" />
<path d="M726.75,11.42c1.04,0.95,1.17,2.1,0.83,3.5c-1.04,4.27-2.67,9.37-4.17,14.83" style="fill:none;stroke:black;stroke-width:3" />
<circle cx="726.75" cy="11.42" r="5" stroke-width="0" fill="#FF2A00" opacity="0.7" />
<path d="M780.4200000000001,18.75c1.58,0.75,1.45,2.11,1.66,3.1c0.21,1,0.19,27.11-0.5,35.47c-0.98,11.9-1.98,23.89-9.33,38.65" style="fill:none;stroke:#999;stroke-width:3" />
<path d="M782.8199999999999,20.04c2.1-0.06,7.2-1.52,8.76-1.62c1.46-0.1,2.95,0.97,2.95,2.31c0,3.18-0.03,48.46-0.03,66.52c0,12.42-3.47,5.99-5.26,4.5" style="fill:none;stroke:#999;stroke-width:3" />
<path d="M782.75,42.58c4.61-0.35,7.12-1.31,11.17-1.33" style="fill:none;stroke:#999;stroke-width:3" />
<path d="M782.4200000000001,62.08c3.79-0.09,5.99-0.65,11.13-1.12" style="fill:none;stroke:#999;stroke-width:3" />
<path d="M802.5799999999999,22.58c1.14,0.3,4.86,0.73,6,0.67c10.48-0.55,28.16-3.61,41.67-4.17c1.9-0.08,4.22,0.52,5.17,0.67" style="fill:none;stroke:#999;stroke-width:3" />
<path d="M812.92,13.25c2.08,0.25,2.97,2.6,3.08,3.4c0.78,5.36,0.53,10.25,0.92,14.27" style="fill:none;stroke:#999;stroke-width:3" />
<path d="M835.75,11.42c1.04,0.95,1.17,2.1,0.83,3.5c-1.04,4.27-2.67,9.37-4.17,14.83" style="fill:none;stroke:#999;stroke-width:3" />
<path d="M812.75,40.5c1,0.75,1.5,1.9,1.5,2.75c0,20.68-0.17,39.87-8.32,49.22" style="fill:none;stroke:black;stroke-width:3" />
<circle cx="812.75" cy="40.5" r="5" stroke-width="0" fill="#FF2A00" opacity="0.7" />
<path d="M889.4200000000001,18.75c1.58,0.75,1.45,2.11,1.66,3.1c0.21,1,0.19,27.11-0.5,35.47c-0.98,11.9-1.98,23.89-9.33,38.65" style="fill:none;stroke:#999;stroke-width:3" />
<path d="M891.8199999999999,20.04c2.1-0.06,7.2-1.52,8.76-1.62c1.46-0.1,2.95,0.97,2.95,2.31c0,3.18-0.03,48.46-0.03,66.52c0,12.42-3.47,5.99-5.26,4.5" style="fill:none;stroke:#999;stroke-width:3" />
<path d="M891.75,42.58c4.61-0.35,7.12-1.31,11.17-1.33" style="fill:none;stroke:#999;stroke-width:3" />
<path d="M891.4200000000001,62.08c3.79-0.09,5.99-0.65,11.13-1.12" style="fill:none;stroke:#999;stroke-width:3" />
<path d="M911.5799999999999,22.58c1.14,0.3,4.86,0.73,6,0.67c10.48-0.55,28.16-3.61,41.67-4.17c1.9-0.08,4.22,0.52,5.17,0.67" style="fill:none;stroke:#999;stroke-width:3" />
<path d="M921.92,13.25c2.08,0.25,2.97,2.6,3.08,3.4c0.78,5.36,0.53,10.25,0.92,14.27" style="fill:none;stroke:#999;stroke-width:3" />
<path d="M944.75,11.42c1.04,0.95,1.17,2.1,0.83,3.5c-1.04,4.27-2.67,9.37-4.17,14.83" style="fill:none;stroke:#999;stroke-width:3" />
<path d="M921.75,40.5c1,0.75,1.5,1.9,1.5,2.75c0,20.68-0.17,39.87-8.32,49.22" style="fill:none;stroke:#999;stroke-width:3" />
<path d="M923.08,41.08c1.67,0.92,2.87,0.47,4,0.33c9.7-1.19,20-2.23,30.83-3.33c1.88-0.19,4.23,0.41,5.17,0.83" style="fill:none;stroke:black;stroke-width:3" />
<circle cx="923.08" cy="41.08" r="5" stroke-width="0" fill="#FF2A00" opacity="0.7" />
<path d="M998.4200000000001,18.75c1.58,0.75,1.45,2.11,1.66,3.1c0.21,1,0.19,27.11-0.5,35.47c-0.98,11.9-1.98,23.89-9.33,38.65" style="fill:none;stroke:#999;stroke-width:3" />
<path d="M1000.8199999999999,20.04c2.1-0.06,7.2-1.52,8.76-1.62c1.46-0.1,2.95,0.97,2.95,2.31c0,3.18-0.03,48.46-0.03,66.52c0,12.42-3.47,5.99-5.26,4.5" style="fill:none;stroke:#999;stroke-width:3" />
<path d="M1000.75,42.58c4.61-0.35,7.12-1.31,11.17-1.33" style="fill:none;stroke:#999;stroke-width:3" />
<path d="M1000.4200000000001,62.08c3.79-0.09,5.99-0.65,11.13-1.12" style="fill:none;stroke:#999;stroke-width:3" />
<path d="M1020.5799999999999,22.58c1.14,0.3,4.86,0.73,6,0.67c10.48-0.55,28.16-3.61,41.67-4.17c1.9-0.08,4.22,0.52,5.17,0.67" style="fill:none;stroke:#999;stroke-width:3" />
<path d="M1030.92,13.25c2.08,0.25,2.97,2.6,3.08,3.4c0.78,5.36,0.53,10.25,0.92,14.27" style="fill:none;stroke:#999;stroke-width:3" />
<path d="M1053.75,11.42c1.04,0.95,1.17,2.1,0.83,3.5c-1.04,4.27-2.67,9.37-4.17,14.83" style="fill:none;stroke:#999;stroke-width:3" />
<path d="M1030.75,40.5c1,0.75,1.5,1.9,1.5,2.75c0,20.68-0.17,39.87-8.32,49.22" style="fill:none;stroke:#999;stroke-width:3" />
<path d="M1032.08,41.08c1.67,0.92,2.87,0.47,4,0.33c9.7-1.19,20-2.23,30.83-3.33c1.88-0.19,4.23,0.41,5.17,0.83" style="fill:none;stroke:#999;stroke-width:3" />
<path d="M1019.75,35.42c0.64,0.59,1.56,1.33,1.61,3.29c0.08,2.94-0.35,10.67-0.55,13.75c-0.06,0.98,0.11,2.45,1.07,2.3c3.38-0.54,5.95-1.17,9.86-1.61" style="fill:none;stroke:black;stroke-width:3" />
<circle cx="1019.75" cy="35.42" r="5" stroke-width="0" fill="#FF2A00" opacity="0.7" />
<path d="M1107.42,18.75c1.58,0.75,1.45,2.11,1.66,3.1c0.21,1,0.19,27.11-0.5,35.47c-0.98,11.9-1.98,23.89-9.33,38.65" style="fill:none;stroke:#999;stroke-width:3" />
<path d="M1109.82,20.04c2.1-0.06,7.2-1.52,8.76-1.62c1.46-0.1,2.95,0.97,2.95,2.31c0,3.18-0.03,48.46-0.03,66.52c0,12.42-3.47,5.99-5.26,4.5" style="fill:none;stroke:#999;stroke-width:3" />
<path d="M1109.75,42.58c4.61-0.35,7.12-1.31,11.17-1.33" style="fill:none;stroke:#999;stroke-width:3" />
<path d="M1109.42,62.08c3.79-0.09,5.99-0.65,11.13-1.12" style="fill:none;stroke:#999;stroke-width:3" />
<path d="M1129.58,22.58c1.14,0.3,4.86,0.73,6,0.67c10.48-0.55,28.16-3.61,41.67-4.17c1.9-0.08,4.22,0.52,5.17,0.67" style="fill:none;stroke:#999;stroke-width:3" />
<path d="M1139.92,13.25c2.08,0.25,2.97,2.6,3.08,3.4c0.78,5.36,0.53,10.25,0.92,14.27" style="fill:none;stroke:#999;stroke-width:3" />
<path d="M1162.75,11.42c1.04,0.95,1.17,2.1,0.83,3.5c-1.04,4.27-2.67,9.37-4.17,14.83" style="fill:none;stroke:#999;stroke-width:3" />
<path d="M1139.75,40.5c1,0.75,1.5,1.9,1.5,2.75c0,20.68-0.17,39.87-8.32,49.22" style="fill:none;stroke:#999;stroke-width:3" />
<path d="M1141.08,41.08c1.67,0.92,2.87,0.47,4,0.33c9.7-1.19,20-2.23,30.83-3.33c1.88-0.19,4.23,0.41,5.17,0.83" style="fill:none;stroke:#999;stroke-width:3" />
<path d="M1128.75,35.42c0.64,0.59,1.56,1.33,1.61,3.29c0.08,2.94-0.35,10.67-0.55,13.75c-0.06,0.98,0.11,2.45,1.07,2.3c3.38-0.54,5.95-1.17,9.86-1.61" style="fill:none;stroke:#999;stroke-width:3" />
<path d="M1126.92,64.42c0.55,0.65,3.29,0.88,4.17,0.67c4.36-1.06,6.24-1.34,9.45-2.38" style="fill:none;stroke:black;stroke-width:3" />
<circle cx="1126.92" cy="64.42" r="5" stroke-width="0" fill="#FF2A00" opacity="0.7" />
<path d="M1216.42,18.75c1.58,0.75,1.45,2.11,1.66,3.1c0.21,1,0.19,27.11-0.5,35.47c-0.98,11.9-1.98,23.89-9.33,38.65" style="fill:none;stroke:#999;stroke-width:3" />
<path d="M1218.82,20.04c2.1-0.06,7.2-1.52,8.76-1.62c1.46-0.1,2.95,0.97,2.95,2.31c0,3.18-0.03,48.46-0.03,66.52c0,12.42-3.47,5.99-5.26,4.5" style="fill:none;stroke:#999;stroke-width:3" />
<path d="M1218.75,42.58c4.61-0.35,7.12-1.31,11.17-1.33" style="fill:none;stroke:#999;stroke-width:3" />
<path d="M1218.42,62.08c3.79-0.09,5.99-0.65,11.13-1.12" style="fill:none;stroke:#999;stroke-width:3" />
<path d="M1238.58,22.58c1.14,0.3,4.86,0.73,6,0.67c10.48-0.55,28.16-3.61,41.67-4.17c1.9-0.08,4.22,0.52,5.17,0.67" style="fill:none;stroke:#999;stroke-width:3" />
<path d="M1248.92,13.25c2.08,0.25,2.97,2.6,3.08,3.4c0.78,5.36,0.53,10.25,0.92,14.27" style="fill:none;stroke:#999;stroke-width:3" />
<path d="M1271.75,11.42c1.04,0.95,1.17,2.1,0.83,3.5c-1.04,4.27-2.67,9.37-4.17,14.83" style="fill:none;stroke:#999;stroke-width:3" />
<path d="M1248.75,40.5c1,0.75,1.5,1.9,1.5,2.75c0,20.68-0.17,39.87-8.32,49.22" style="fill:none;stroke:#999;stroke-width:3" />
<path d="M1250.08,41.08c1.67,0.92,2.87,0.47,4,0.33c9.7-1.19,20-2.23,30.83-3.33c1.88-0.19,4.23,0.41,5.17,0.83" style="fill:none;stroke:#999;stroke-width:3" />
<path d="M1237.75,35.42c0.64,0.59,1.56,1.33,1.61,3.29c0.08,2.94-0.35,10.67-0.55,13.75c-0.06,0.98,0.11,2.45,1.07,2.3c3.38-0.54,5.95-1.17,9.86-1.61" style="fill:none;stroke:#999;stroke-width:3" />
<path d="M1235.92,64.42c0.55,0.65,3.29,0.88,4.17,0.67c4.36-1.06,6.24-1.34,9.45-2.38" style="fill:none;stroke:#999;stroke-width:3" />
<path d="M1240.92,66.63c0.02,0.46,0.06,1.18-0.03,1.83c-0.81,6.17-1.65,12.05-5.42,18.46" style="fill:none;stroke:black;stroke-width:3" />
<circle cx="1240.92" cy="66.63" r="5" stroke-width="0" fill="#FF2A00" opacity="0.7" />
<path d="M1325.42,18.75c1.58,0.75,1.45,2.11,1.66,3.1c0.21,1,0.19,27.11-0.5,35.47c-0.98,11.9-1.98,23.89-9.33,38.65" style="fill:none;stroke:#999;stroke-width:3" />
<path d="M1327.82,20.04c2.1-0.06,7.2-1.52,8.76-1.62c1.46-0.1,2.95,0.97,2.95,2.31c0,3.18-0.03,48.46-0.03,66.52c0,12.42-3.47,5.99-5.26,4.5" style="fill:none;stroke:#999;stroke-width:3" />
<path d="M1327.75,42.58c4.61-0.35,7.12-1.31,11.17-1.33" style="fill:none;stroke:#999;stroke-width:3" />
<path d="M1327.42,62.08c3.79-0.09,5.99-0.65,11.13-1.12" style="fill:none;stroke:#999;stroke-width:3" />
<path d="M1347.58,22.58c1.14,0.3,4.86,0.73,6,0.67c10.48-0.55,28.16-3.61,41.67-4.17c1.9-0.08,4.22,0.52,5.17,0.67" style="fill:none;stroke:#999;stroke-width:3" />
<path d="M1357.92,13.25c2.08,0.25,2.97,2.6,3.08,3.4c0.78,5.36,0.53,10.25,0.92,14.27" style="fill:none;stroke:#999;stroke-width:3" />
<path d="M1380.75,11.42c1.04,0.95,1.17,2.1,0.83,3.5c-1.04,4.27-2.67,9.37-4.17,14.83" style="fill:none;stroke:#999;stroke-width:3" />
<path d="M1357.75,40.5c1,0.75,1.5,1.9,1.5,2.75c0,20.68-0.17,39.87-8.32,49.22" style="fill:none;stroke:#999;stroke-width:3" />
<path d="M1359.08,41.08c1.67,0.92,2.87,0.47,4,0.33c9.7-1.19,20-2.23,30.83-3.33c1.88-0.19,4.23,0.41,5.17,0.83" style="fill:none;stroke:#999;stroke-width:3" />
<path d="M1346.75,35.42c0.64,0.59,1.56,1.33,1.61,3.29c0.08,2.94-0.35,10.67-0.55,13.75c-0.06,0.98,0.11,2.45,1.07,2.3c3.38-0.54,5.95-1.17,9.86-1.61" style="fill:none;stroke:#999;stroke-width:3" />
<path d="M1344.92,64.42c0.55,0.65,3.29,0.88,4.17,0.67c4.36-1.06,6.24-1.34,9.45-2.38" style="fill:none;stroke:#999;stroke-width:3" />
<path d="M1349.92,66.63c0.02,0.46,0.06,1.18-0.03,1.83c-0.81,6.17-1.65,12.05-5.42,18.46" style="fill:none;stroke:#999;stroke-width:3" />
<path d="M1363.42,49.75c0.3,0.23,1.53,2.04,1.59,2.51c0.06,0.46,0.3,33.92,0.24,36.83" style="fill:none;stroke:black;stroke-width:3" />
<circle cx="1363.42" cy="49.75" r="5" stroke-width="0" fill="#FF2A00" opacity="0.7" />
<path d="M1434.42,18.75c1.58,0.75,1.45,2.11,1.66,3.1c0.21,1,0.19,27.11-0.5,35.47c-0.98,11.9-1.98,23.89-9.33,38.65" style="fill:none;stroke:#999;stroke-width:3" />
<path d="M1436.82,20.04c2.1-0.06,7.2-1.52,8.76-1.62c1.46-0.1,2.95,0.97,2.95,2.31c0,3.18-0.03,48.46-0.03,66.52c0,12.42-3.47,5.99-5.26,4.5" style="fill:none;stroke:#999;stroke-width:3" />
<path d="M1436.75,42.58c4.61-0.35,7.12-1.31,11.17-1.33" style="fill:none;stroke:#999;stroke-width:3" />
<path d="M1436.42,62.08c3.79-0.09,5.99-0.65,11.13-1.12" style="fill:none;stroke:#999;stroke-width:3" />
<path d="M1456.58,22.58c1.14,0.3,4.86,0.73,6,0.67c10.48-0.55,28.16-3.61,41.67-4.17c1.9-0.08,4.22,0.52,5.17,0.67" style="fill:none;stroke:#999;stroke-width:3" />
<path d="M1466.92,13.25c2.08,0.25,2.97,2.6,3.08,3.4c0.78,5.36,0.53,10.25,0.92,14.27" style="fill:none;stroke:#999;stroke-width:3" />
<path d="M1489.75,11.42c1.04,0.95,1.17,2.1,0.83,3.5c-1.04,4.27-2.67,9.37-4.17,14.83" style="fill:none;stroke:#999;stroke-width:3" />
<path d="M1466.75,40.5c1,0.75,1.5,1.9,1.5,2.75c0,20.68-0.17,39.87-8.32,49.22" style="fill:none;stroke:#999;stroke-width:3" />
<path d="M1468.08,41.08c1.67,0.92,2.87,0.47,4,0.33c9.7-1.19,20-2.23,30.83-3.33c1.88-0.19,4.23,0.41,5.17,0.83" style="fill:none;stroke:#999;stroke-width:3" />
<path d="M1455.75,35.42c0.64,0.59,1.56,1.33,1.61,3.29c0.08,2.94-0.35,10.67-0.55,13.75c-0.06,0.98,0.11,2.45,1.07,2.3c3.38-0.54,5.95-1.17,9.86-1.61" style="fill:none;stroke:#999;stroke-width:3" />
<path d="M1453.92,64.42c0.55,0.65,3.29,0.88,4.17,0.67c4.36-1.06,6.24-1.34,9.45-2.38" style="fill:none;stroke:#999;stroke-width:3" />
<path d="M1458.92,66.63c0.02,0.46,0.06,1.18-0.03,1.83c-0.81,6.17-1.65,12.05-5.42,18.46" style="fill:none;stroke:#999;stroke-width:3" />
<path d="M1472.42,49.75c0.3,0.23,1.53,2.04,1.59,2.51c0.06,0.46,0.3,33.92,0.24,36.83" style="fill:none;stroke:#999;stroke-width:3" />
<path d="M1474.58,51.75c3.07-0.4,6.92-1,13.04-2.17c1.08-0.21,2.75-0.31,3.29-0.16" style="fill:none;stroke:black;stroke-width:3" />
<circle cx="1474.58" cy="51.75" r="5" stroke-width="0" fill="#FF2A00" opacity="0.7" />
<path d="M1543.42,18.75c1.58,0.75,1.45,2.11,1.66,3.1c0.21,1,0.19,27.11-0.5,35.47c-0.98,11.9-1.98,23.89-9.33,38.65" style="fill:none;stroke:#999;stroke-width:3" />
<path d="M1545.82,20.04c2.1-0.06,7.2-1.52,8.76-1.62c1.46-0.1,2.95,0.97,2.95,2.31c0,3.18-0.03,48.46-0.03,66.52c0,12.42-3.47,5.99-5.26,4.5" style="fill:none;stroke:#999;stroke-width:3" />
<path d="M1545.75,42.58c4.61-0.35,7.12-1.31,11.17-1.33" style="fill:none;stroke:#999;stroke-width:3" />
<path d="M1545.42,62.08c3.79-0.09,5.99-0.65,11.13-1.12" style="fill:none;stroke:#999;stroke-width:3" />
<path d="M1565.58,22.58c1.14,0.3,4.86,0.73,6,0.67c10.48-0.55,28.16-3.61,41.67-4.17c1.9-0.08,4.22,0.52,5.17,0.67" style="fill:none;stroke:#999;stroke-width:3" />
<path d="M1575.92,13.25c2.08,0.25,2.97,2.6,3.08,3.4c0.78,5.36,0.53,10.25,0.92,14.27" style="fill:none;stroke:#999;stroke-width:3" />
<path d="M1598.75,11.42c1.04,0.95,1.17,2.1,0.83,3.5c-1.04,4.27-2.67,9.37-4.17,14.83" style="fill:none;stroke:#999;stroke-width:3" />
<path d="M1575.75,40.5c1,0.75,1.5,1.9,1.5,2.75c0,20.68-0.17,39.87-8.32,49.22" style="fill:none;stroke:#999;stroke-width:3" />
<path d="M1577.08,41.08c1.67,0.92,2.87,0.47,4,0.33c9.7-1.19,20-2.23,30.83-3.33c1.88-0.19,4.23,0.41,5.17,0.83" style="fill:none;stroke:#999;stroke-width:3" />
<path d="M1564.75,35.42c0.64,0.59,1.56,1.33,1.61,3.29c0.08,2.94-0.35,10.67-0.55,13.75c-0.06,0.98,0.11,2.45,1.07,2.3c3.38-0.54,5.95-1.17,9.86-1.61" style="fill:none;stroke:#999;stroke-width:3" />
<path d="M1562.92,64.42c0.55,0.65,3.29,0.88,4.17,0.67c4.36-1.06,6.24-1.34,9.45-2.38" style="fill:none;stroke:#999;stroke-width:3" />
<path d="M1567.92,66.63c0.02,0.46,0.06,1.18-0.03,1.83c-0.81,6.17-1.65,12.05-5.42,18.46" style="fill:none;stroke:#999;stroke-width:3" />
<path d="M1581.42,49.75c0.3,0.23,1.53,2.04,1.59,2.51c0.06,0.46,0.3,33.92,0.24,36.83" style="fill:none;stroke:#999;stroke-width:3" />
<path d="M1583.58,51.75c3.07-0.4,6.92-1,13.04-2.17c1.08-0.21,2.75-0.31,3.29-0.16" style="fill:none;stroke:#999;stroke-width:3" />
<path d="M1591.07,51.89c0.44,0.25,0.71,1.13,0.79,1.64c0.09,0.5-0.03,3.91-0.12,7.06" style="fill:none;stroke:black;stroke-width:3" />
<circle cx="1591.07" cy="51.89" r="5" stroke-width="0" fill="#FF2A00" opacity="0.7" />
<path d="M1652.42,18.75c1.58,0.75,1.45,2.11,1.66,3.1c0.21,1,0.19,27.11-0.5,35.47c-0.98,11.9-1.98,23.89-9.33,38.65" style="fill:none;stroke:#999;stroke-width:3" />
<path d="M1654.82,20.04c2.1-0.06,7.2-1.52,8.76-1.62c1.46-0.1,2.95,0.97,2.95,2.31c0,3.18-0.03,48.46-0.03,66.52c0,12.42-3.47,5.99-5.26,4.5" style="fill:none;stroke:#999;stroke-width:3" />
<path d="M1654.75,42.58c4.61-0.35,7.12-1.31,11.17-1.33" style="fill:none;stroke:#999;stroke-width:3" />
<path d="M1654.42,62.08c3.79-0.09,5.99-0.65,11.13-1.12" style="fill:none;stroke:#999;stroke-width:3" />
<path d="M1674.58,22.58c1.14,0.3,4.86,0.73,6,0.67c10.48-0.55,28.16-3.61,41.67-4.17c1.9-0.08,4.22,0.52,5.17,0.67" style="fill:none;stroke:#999;stroke-width:3" />
<path d="M1684.92,13.25c2.08,0.25,2.97,2.6,3.08,3.4c0.78,5.36,0.53,10.25,0.92,14.27" style="fill:none;stroke:#999;stroke-width:3" />
<path d="M1707.75,11.42c1.04,0.95,1.17,2.1,0.83,3.5c-1.04,4.27-2.67,9.37-4.17,14.83" style="fill:none;stroke:#999;stroke-width:3" />
<path d="M1684.75,40.5c1,0.75,1.5,1.9,1.5,2.75c0,20.68-0.17,39.87-8.32,49.22" style="fill:none;stroke:#999;stroke-width:3" />
<path d="M1686.08,41.08c1.67,0.92,2.87,0.47,4,0.33c9.7-1.19,20-2.23,30.83-3.33c1.88-0.19,4.23,0.41,5.17,0.83" style="fill:none;stroke:#999;stroke-width:3" />
<path d="M1673.75,35.42c0.64,0.59,1.56,1.33,1.61,3.29c0.08,2.94-0.35,10.67-0.55,13.75c-0.06,0.98,0.11,2.45,1.07,2.3c3.38-0.54,5.95-1.17,9.86-1.61" style="fill:none;stroke:#999;stroke-width:3" />
<path d="M1671.92,64.42c0.55,0.65,3.29,0.88,4.17,0.67c4.36-1.06,6.24-1.34,9.45-2.38" style="fill:none;stroke:#999;stroke-width:3" />
<path d="M1676.92,66.63c0.02,0.46,0.06,1.18-0.03,1.83c-0.81,6.17-1.65,12.05-5.42,18.46" style="fill:none;stroke:#999;stroke-width:3" />
<path d="M1690.42,49.75c0.3,0.23,1.53,2.04,1.59,2.51c0.06,0.46,0.3,33.92,0.24,36.83" style="fill:none;stroke:#999;stroke-width:3" />
<path d="M1692.58,51.75c3.07-0.4,6.92-1,13.04-2.17c1.08-0.21,2.75-0.31,3.29-0.16" style="fill:none;stroke:#999;stroke-width:3" />
<path d="M1700.07,51.89c0.44,0.25,0.71,1.13,0.79,1.64c0.09,0.5-0.03,3.91-0.12,7.06" style="fill:none;stroke:#999;stroke-width:3" />
<path d="M1693.28,62.63c2.73-0.4,7.97-1.38,12.6-2.15c2.05-0.34,3.14,1.14,2.85,2.24c-0.52,1.99-1.61,6.31-2.14,8.7" style="fill:none;stroke:black;stroke-width:3" />
<circle cx="1693.28" cy="62.63" r="5" stroke-width="0" fill="#FF2A00" opacity="0.7" />
<path d="M1761.42,18.75c1.58,0.75,1.45,2.11,1.66,3.1c0.21,1,0.19,27.11-0.5,35.47c-0.98,11.9-1.98,23.89-9.33,38.65" style="fill:none;stroke:#999;stroke-width:3" />
<path d="M1763.82,20.04c2.1-0.06,7.2-1.52,8.76-1.62c1.46-0.1,2.95,0.97,2.95,2.31c0,3.18-0.03,48.46-0.03,66.52c0,12.42-3.47,5.99-5.26,4.5" style="fill:none;stroke:#999;stroke-width:3" />
<path d="M1763.75,42.58c4.61-0.35,7.12-1.31,11.17-1.33" style="fill:none;stroke:#999;stroke-width:3" />
<path d="M1763.42,62.08c3.79-0.09,5.99-0.65,11.13-1.12" style="fill:none;stroke:#999;stroke-width:3" />
<path d="M1783.58,22.58c1.14,0.3,4.86,0.73,6,0.67c10.48-0.55,28.16-3.61,41.67-4.17c1.9-0.08,4.22,0.52,5.17,0.67" style="fill:none;stroke:#999;stroke-width:3" />
<path d="M1793.92,13.25c2.08,0.25,2.97,2.6,3.08,3.4c0.78,5.36,0.53,10.25,0.92,14.27" style="fill:none;stroke:#999;stroke-width:3" />
<path d="M1816.75,11.42c1.04,0.95,1.17,2.1,0.83,3.5c-1.04,4.27-2.67,9.37-4.17,14.83" style="fill:none;stroke:#999;stroke-width:3" />
<path d="M1793.75,40.5c1,0.75,1.5,1.9,1.5,2.75c0,20.68-0.17,39.87-8.32,49.22" style="fill:none;stroke:#999;stroke-width:3" />
<path d="M1795.08,41.08c1.67,0.92,2.87,0.47,4,0.33c9.7-1.19,20-2.23,30.83-3.33c1.88-0.19,4.23,0.41,5.17,0.83" style="fill:none;stroke:#999;stroke-width:3" />
<path d="M1782.75,35.42c0.64,0.59,1.56,1.33,1.61,3.29c0.08,2.94-0.35,10.67-0.55,13.75c-0.06,0.98,0.11,2.45,1.07,2.3c3.38-0.54,5.95-1.17,9.86-1.61" style="fill:none;stroke:#999;stroke-width:3" />
<path d="M1780.92,64.42c0.55,0.65,3.29,0.88,4.17,0.67c4.36-1.06,6.24-1.34,9.45-2.38" style="fill:none;stroke:#999;stroke-width:3" />
<path d="M1785.92,66.63c0.02,0.46,0.06,1.18-0.03,1.83c-0.81,6.17-1.65,12.05-5.42,18.46" style="fill:none;stroke:#999;stroke-width:3" />
<path d="M1799.42,49.75c0.3,0.23,1.53,2.04,1.59,2.51c0.06,0.46,0.3,33.92,0.24,36.83" style="fill:none;stroke:#999;stroke-width:3" />
<path d="M1801.58,51.75c3.07-0.4,6.92-1,13.04-2.17c1.08-0.21,2.75-0.31,3.29-0.16" style="fill:none;stroke:#999;stroke-width:3" />
<path d="M1809.07,51.89c0.44,0.25,0.71,1.13,0.79,1.64c0.09,0.5-0.03,3.91-0.12,7.06" style="fill:none;stroke:#999;stroke-width:3" />
<path d="M1802.28,62.63c2.73-0.4,7.97-1.38,12.6-2.15c2.05-0.34,3.14,1.14,2.85,2.24c-0.52,1.99-1.61,6.31-2.14,8.7" style="fill:none;stroke:#999;stroke-width:3" />
<path d="M1801.81,73.22c3.14-0.32,11.99-1.61,14.94-1.8" style="fill:none;stroke:black;stroke-width:3" />
<circle cx="1801.81" cy="73.22" r="5" stroke-width="0" fill="#FF2A00" opacity="0.7" />
<path d="M1870.42,18.75c1.58,0.75,1.45,2.11,1.66,3.1c0.21,1,0.19,27.11-0.5,35.47c-0.98,11.9-1.98,23.89-9.33,38.65" style="fill:none;stroke:#999;stroke-width:3" />
<path d="M1872.82,20.04c2.1-0.06,7.2-1.52,8.76-1.62c1.46-0.1,2.95,0.97,2.95,2.31c0,3.18-0.03,48.46-0.03,66.52c0,12.42-3.47,5.99-5.26,4.5" style="fill:none;stroke:#999;stroke-width:3" />
<path d="M1872.75,42.58c4.61-0.35,7.12-1.31,11.17-1.33" style="fill:none;stroke:#999;stroke-width:3" />
<path d="M1872.42,62.08c3.79-0.09,5.99-0.65,11.13-1.12" style="fill:none;stroke:#999;stroke-width:3" />
<path d="M1892.58,22.58c1.14,0.3,4.86,0.73,6,0.67c10.48-0.55,28.16-3.61,41.67-4.17c1.9-0.08,4.22,0.52,5.17,0.67" style="fill:none;stroke:#999;stroke-width:3" />
<path d="M1902.92,13.25c2.08,0.25,2.97,2.6,3.08,3.4c0.78,5.36,0.53,10.25,0.92,14.27" style="fill:none;stroke:#999;stroke-width:3" />
<path d="M1925.75,11.42c1.04,0.95,1.17,2.1,0.83,3.5c-1.04,4.27-2.67,9.37-4.17,14.83" style="fill:none;stroke:#999;stroke-width:3" />
<path d="M1902.75,40.5c1,0.75,1.5,1.9,1.5,2.75c0,20.68-0.17,39.87-8.32,49.22" style="fill:none;stroke:#999;stroke-width:3" />
<path d="M1904.08,41.08c1.67,0.92,2.87,0.47,4,0.33c9.7-1.19,20-2.23,30.83-3.33c1.88-0.19,4.23,0.41,5.17,0.83" style="fill:none;stroke:#999;stroke-width:3" />
<path d="M1891.75,35.42c0.64,0.59,1.56,1.33,1.61,3.29c0.08,2.94-0.35,10.67-0.55,13.75c-0.06,0.98,0.11,2.45,1.07,2.3c3.38-0.54,5.95-1.17,9.86-1.61" style="fill:none;stroke:#999;stroke-width:3" />
<path d="M1889.92,64.42c0.55,0.65,3.29,0.88,4.17,0.67c4.36-1.06,6.24-1.34,9.45-2.38" style="fill:none;stroke:#999;stroke-width:3" />
<path d="M1894.92,66.63c0.02,0.46,0.06,1.18-0.03,1.83c-0.81,6.17-1.65,12.05-5.42,18.46" style="fill:none;stroke:#999;stroke-width:3" />
<path d="M1908.42,49.75c0.3,0.23,1.53,2.04,1.59,2.51c0.06,0.46,0.3,33.92,0.24,36.83" style="fill:none;stroke:#999;stroke-width:3" />
<path d="M1910.58,51.75c3.07-0.4,6.92-1,13.04-2.17c1.08-0.21,2.75-0.31,3.29-0.16" style="fill:none;stroke:#999;stroke-width:3" />
<path d="M1918.07,51.89c0.44,0.25,0.71,1.13,0.79,1.64c0.09,0.5-0.03,3.91-0.12,7.06" style="fill:none;stroke:#999;stroke-width:3" />
<path d="M1911.28,62.63c2.73-0.4,7.97-1.38,12.6-2.15c2.05-0.34,3.14,1.14,2.85,2.24c-0.52,1.99-1.61,6.31-2.14,8.7" style="fill:none;stroke:#999;stroke-width:3" />
<path d="M1910.81,73.22c3.14-0.32,11.99-1.61,14.94-1.8" style="fill:none;stroke:#999;stroke-width:3" />
<path d="M1918.26,73.18c0.53,0.26,0.85,1.16,0.95,1.67c0.1,0.52,0.07,7.26-0.04,10.48" style="fill:none;stroke:black;stroke-width:3" />
<circle cx="1918.26" cy="73.18" r="5" stroke-width="0" fill="#FF2A00" opacity="0.7" />
<path d="M1979.42,18.75c1.58,0.75,1.45,2.11,1.66,3.1c0.21,1,0.19,27.11-0.5,35.47c-0.98,11.9-1.98,23.89-9.33,38.65" style="fill:none;stroke:#999;stroke-width:3" />
<path d="M1981.82,20.04c2.1-0.06,7.2-1.52,8.76-1.62c1.46-0.1,2.95,0.97,2.95,2.31c0,3.18-0.03,48.46-0.03,66.52c0,12.42-3.47,5.99-5.26,4.5" style="fill:none;stroke:#999;stroke-width:3" />
<path d="M1981.75,42.58c4.61-0.35,7.12-1.31,11.17-1.33" style="fill:none;stroke:#999;stroke-width:3" />
<path d="M1981.42,62.08c3.79-0.09,5.99-0.65,11.13-1.12" style="fill:none;stroke:#999;stroke-width:3" />
<path d="M2001.58,22.58c1.14,0.3,4.86,0.73,6,0.67c10.48-0.55,28.16-3.61,41.67-4.17c1.9-0.08,4.22,0.52,5.17,0.67" style="fill:none;stroke:#999;stroke-width:3" />
<path d="M2011.92,13.25c2.08,0.25,2.97,2.6,3.08,3.4c0.78,5.36,0.53,10.25,0.92,14.27" style="fill:none;stroke:#999;stroke-width:3" />
<path d="M2034.75,11.42c1.04,0.95,1.17,2.1,0.83,3.5c-1.04,4.27-2.67,9.37-4.17,14.83" style="fill:none;stroke:#999;stroke-width:3" />
<path d="M2011.75,40.5c1,0.75,1.5,1.9,1.5,2.75c0,20.68-0.17,39.87-8.32,49.22" style="fill:none;stroke:#999;stroke-width:3" />
<path d="M2013.08,41.08c1.67,0.92,2.87,0.47,4,0.33c9.7-1.19,20-2.23,30.83-3.33c1.88-0.19,4.23,0.41,5.17,0.83" style="fill:none;stroke:#999;stroke-width:3" />
<path d="M2000.75,35.42c0.64,0.59,1.56,1.33,1.61,3.29c0.08,2.94-0.35,10.67-0.55,13.75c-0.06,0.98,0.11,2.45,1.07,2.3c3.38-0.54,5.95-1.17,9.86-1.61" style="fill:none;stroke:#999;stroke-width:3" />
<path d="M1998.92,64.42c0.55,0.65,3.29,0.88,4.17,0.67c4.36-1.06,6.24-1.34,9.45-2.38" style="fill:none;stroke:#999;stroke-width:3" />
<path d="M2003.92,66.63c0.02,0.46,0.06,1.18-0.03,1.83c-0.81,6.17-1.65,12.05-5.42,18.46" style="fill:none;stroke:#999;stroke-width:3" />
<path d="M2017.42,49.75c0.3,0.23,1.53,2.04,1.59,2.51c0.06,0.46,0.3,33.92,0.24,36.83" style="fill:none;stroke:#999;stroke-width:3" />
<path d="M2019.58,51.75c3.07-0.4,6.92-1,13.04-2.17c1.08-0.21,2.75-0.31,3.29-0.16" style="fill:none;stroke:#999;stroke-width:3" />
<path d="M2027.07,51.89c0.44,0.25,0.71,1.13,0.79,1.64c0.09,0.5-0.03,3.91-0.12,7.06" style="fill:none;stroke:#999;stroke-width:3" />
<path d="M2020.28,62.63c2.73-0.4,7.97-1.38,12.6-2.15c2.05-0.34,3.14,1.14,2.85,2.24c-0.52,1.99-1.61,6.31-2.14,8.7" style="fill:none;stroke:#999;stroke-width:3" />
<path d="M2019.81,73.22c3.14-0.32,11.99-1.61,14.94-1.8" style="fill:none;stroke:#999;stroke-width:3" />
<path d="M2027.26,73.18c0.53,0.26,0.85,1.16,0.95,1.67c0.1,0.52,0.07,7.26-0.04,10.48" style="fill:none;stroke:#999;stroke-width:3" />
<path d="M2019.58,86.75c2.94-0.41,5.79-1.19,12.62-1.59c1.04-0.06,2.36,0.11,2.88,0.26" style="fill:none;stroke:black;stroke-width:3" />
<circle cx="2019.58" cy="86.75" r="5" stroke-width="0" fill="#FF2A00" opacity="0.7" />
<path d="M2088.42,18.75c1.58,0.75,1.45,2.11,1.66,3.1c0.21,1,0.19,27.11-0.5,35.47c-0.98,11.9-1.98,23.89-9.33,38.65" style="fill:none;stroke:#999;stroke-width:3" />
<path d="M2090.8199999999997,20.04c2.1-0.06,7.2-1.52,8.76-1.62c1.46-0.1,2.95,0.97,2.95,2.31c0,3.18-0.03,48.46-0.03,66.52c0,12.42-3.47,5.99-5.26,4.5" style="fill:none;stroke:#999;stroke-width:3" />
<path d="M2090.75,42.58c4.61-0.35,7.12-1.31,11.17-1.33" style="fill:none;stroke:#999;stroke-width:3" />
<path d="M2090.42,62.08c3.79-0.09,5.99-0.65,11.13-1.12" style="fill:none;stroke:#999;stroke-width:3" />
<path d="M2110.58,22.58c1.14,0.3,4.86,0.73,6,0.67c10.48-0.55,28.16-3.61,41.67-4.17c1.9-0.08,4.22,0.52,5.17,0.67" style="fill:none;stroke:#999;stroke-width:3" />
<path d="M2120.92,13.25c2.08,0.25,2.97,2.6,3.08,3.4c0.78,5.36,0.53,10.25,0.92,14.27" style="fill:none;stroke:#999;stroke-width:3" />
<path d="M2143.75,11.42c1.04,0.95,1.17,2.1,0.83,3.5c-1.04,4.27-2.67,9.37-4.17,14.83" style="fill:none;stroke:#999;stroke-width:3" />
<path d="M2120.75,40.5c1,0.75,1.5,1.9,1.5,2.75c0,20.68-0.17,39.87-8.32,49.22" style="fill:none;stroke:#999;stroke-width:3" />
<path d="M2122.08,41.08c1.67,0.92,2.87,0.47,4,0.33c9.7-1.19,20-2.23,30.83-3.33c1.88-0.19,4.23,0.41,5.17,0.83" style="fill:none;stroke:#999;stroke-width:3" />
<path d="M2109.75,35.42c0.64,0.59,1.56,1.33,1.61,3.29c0.08,2.94-0.35,10.67-0.55,13.75c-0.06,0.98,0.11,2.45,1.07,2.3c3.38-0.54,5.95-1.17,9.86-1.61" style="fill:none;stroke:#999;stroke-width:3" />
<path d="M2107.92,64.42c0.55,0.65,3.29,0.88,4.17,0.67c4.36-1.06,6.24-1.34,9.45-2.38" style="fill:none;stroke:#999;stroke-width:3" />
<path d="M2112.92,66.63c0.02,0.46,0.06,1.18-0.03,1.83c-0.81,6.17-1.65,12.05-5.42,18.46" style="fill:none;stroke:#999;stroke-width:3" />
<path d="M2126.42,49.75c0.3,0.23,1.53,2.04,1.59,2.51c0.06,0.46,0.3,33.92,0.24,36.83" style="fill:none;stroke:#999;stroke-width:3" />
<path d="M2128.58,51.75c3.07-0.4,6.92-1,13.04-2.17c1.08-0.21,2.75-0.31,3.29-0.16" style="fill:none;stroke:#999;stroke-width:3" />
<path d="M2136.0699999999997,51.89c0.44,0.25,0.71,1.13,0.79,1.64c0.09,0.5-0.03,3.91-0.12,7.06" style="fill:none;stroke:#999;stroke-width:3" />
<path d="M2129.2799999999997,62.63c2.73-0.4,7.97-1.38,12.6-2.15c2.05-0.34,3.14,1.14,2.85,2.24c-0.52,1.99-1.61,6.31-2.14,8.7" style="fill:none;stroke:#999;stroke-width:3" />
<path d="M2128.81,73.22c3.14-0.32,11.99-1.61,14.94-1.8" style="fill:none;stroke:#999;stroke-width:3" />
<path d="M2136.26,73.18c0.53,0.26,0.85,1.16,0.95,1.67c0.1,0.52,0.07,7.26-0.04,10.48" style="fill:none;stroke:#999;stroke-width:3" />
<path d="M2128.58,86.75c2.94-0.41,5.79-1.19,12.62-1.59c1.04-0.06,2.36,0.11,2.88,0.26" style="fill:none;stroke:#999;stroke-width:3" />
<path d="M2146.42,27.08c0.79,1.4,1.83,1.48,2,4.5c1.48,27.11,5.45,48.3,14.79,60.59c4.05,5.33,5.05,0.58,5.21-7.25" style="fill:none;stroke:black;stroke-width:3" />
<circle cx="2146.42" cy="27.08" r="5" stroke-width="0" fill="#FF2A00" opacity="0.7" />
<path d="M2197.42,18.75c1.58,0.75,1.45,2.11,1.66,3.1c0.21,1,0.19,27.11-0.5,35.47c-0.98,11.9-1.98,23.89-9.33,38.65" style="fill:none;stroke:#999;stroke-width:3" />
<path d="M2199.8199999999997,20.04c2.1-0.06,7.2-1.52,8.76-1.62c1.46-0.1,2.95,0.97,2.95,2.31c0,3.18-0.03,48.46-0.03,66.52c0,12.42-3.47,5.99-5.26,4.5" style="fill:none;stroke:#999;stroke-width:3" />
<path d="M2199.75,42.58c4.61-0.35,7.12-1.31,11.17-1.33" style="fill:none;stroke:#999;stroke-width:3" />
<path d="M2199.42,62.08c3.79-0.09,5.99-0.65,11.13-1.12" style="fill:none;stroke:#999;stroke-width:3" />
<path d="M2219.58,22.58c1.14,0.3,4.86,0.73,6,0.67c10.48-0.55,28.16-3.61,41.67-4.17c1.9-0.08,4.22,0.52,5.17,0.67" style="fill:none;stroke:#999;stroke-width:3" />
<path d="M2229.92,13.25c2.08,0.25,2.97,2.6,3.08,3.4c0.78,5.36,0.53,10.25,0.92,14.27" style="fill:none;stroke:#999;stroke-width:3" />
<path d="M2252.75,11.42c1.04,0.95,1.17,2.1,0.83,3.5c-1.04,4.27-2.67,9.37-4.17,14.83" style="fill:none;stroke:#999;stroke-width:3" />
<path d="M2229.75,40.5c1,0.75,1.5,1.9,1.5,2.75c0,20.68-0.17,39.87-8.32,49.22" style="fill:none;stroke:#999;stroke-width:3" />
<path d="M2231.08,41.08c1.67,0.92,2.87,0.47,4,0.33c9.7-1.19,20-2.23,30.83-3.33c1.88-0.19,4.23,0.41,5.17,0.83" style="fill:none;stroke:#999;stroke-width:3" />
<path d="M2218.75,35.42c0.64,0.59,1.56,1.33,1.61,3.29c0.08,2.94-0.35,10.67-0.55,13.75c-0.06,0.98,0.11,2.45,1.07,2.3c3.38-0.54,5.95-1.17,9.86-1.61" style="fill:none;stroke:#999;stroke-width:3" />
<path d="M2216.92,64.42c0.55,0.65,3.29,0.88,4.17,0.67c4.36-1.06,6.24-1.34,9.45-2.38" style="fill:none;stroke:#999;stroke-width:3" />
<path d="M2221.92,66.63c0.02,0.46,0.06,1.18-0.03,1.83c-0.81,6.17-1.65,12.05-5.42,18.46" style="fill:none;stroke:#999;stroke-width:3" />
<path d="M2235.42,49.75c0.3,0.23,1.53,2.04,1.59,2.51c0.06,0.46,0.3,33.92,0.24,36.83" style="fill:none;stroke:#999;stroke-width:3" />
<path d="M2237.58,51.75c3.07-0.4,6.92-1,13.04-2.17c1.08-0.21,2.75-0.31,3.29-0.16" style="fill:none;stroke:#999;stroke-width:3" />
<path d="M2245.0699999999997,51.89c0.44,0.25,0.71,1.13,0.79,1.64c0.09,0.5-0.03,3.91-0.12,7.06" style="fill:none;stroke:#999;stroke-width:3" />
<path d="M2238.2799999999997,62.63c2.73-0.4,7.97-1.38,12.6-2.15c2.05-0.34,3.14,1.14,2.85,2.24c-0.52,1.99-1.61,6.31-2.14,8.7" style="fill:none;stroke:#999;stroke-width:3" />
<path d="M2237.81,73.22c3.14-0.32,11.99-1.61,14.94-1.8" style="fill:none;stroke:#999;stroke-width:3" />
<path d="M2245.26,73.18c0.53,0.26,0.85,1.16,0.95,1.67c0.1,0.52,0.07,7.26-0.04,10.48" style="fill:none;stroke:#999;stroke-width:3" />
<path d="M2237.58,86.75c2.94-0.41,5.79-1.19,12.62-1.59c1.04-0.06,2.36,0.11,2.88,0.26" style="fill:none;stroke:#999;stroke-width:3" />
<path d="M2255.42,27.08c0.79,1.4,1.83,1.48,2,4.5c1.48,27.11,5.45,48.3,14.79,60.59c4.05,5.33,5.05,0.58,5.21-7.25" style="fill:none;stroke:#999;stroke-width:3" />
<path d="M2270.44,46.85c0.07,1.11,0.04,2.85-0.13,4.45c-1.08,10.18-9.17,33.74-23.57,43.62" style="fill:none;stroke:black;stroke-width:3" />
<circle cx="2270.44" cy="46.85" r="5" stroke-width="0" fill="#FF2A00" opacity="0.7" />
<path d="M2306.42,18.75c1.58,0.75,1.45,2.11,1.66,3.1c0.21,1,0.19,27.11-0.5,35.47c-0.98,11.9-1.98,23.89-9.33,38.65" style="fill:none;stroke:#999;stroke-width:3" />
<path d="M2308.8199999999997,20.04c2.1-0.06,7.2-1.52,8.76-1.62c1.46-0.1,2.95,0.97,2.95,2.31c0,3.18-0.03,48.46-0.03,66.52c0,12.42-3.47,5.99-5.26,4.5" style="fill:none;stroke:#999;stroke-width:3" />
<path d="M2308.75,42.58c4.61-0.35,7.12-1.31,11.17-1.33" style="fill:none;stroke:#999;stroke-width:3" />
<path d="M2308.42,62.08c3.79-0.09,5.99-0.65,11.13-1.12" style="fill:none;stroke:#999;stroke-width:3" />
<path d="M2328.58,22.58c1.14,0.3,4.86,0.73,6,0.67c10.48-0.55,28.16-3.61,41.67-4.17c1.9-0.08,4.22,0.52,5.17,0.67" style="fill:none;stroke:#999;stroke-width:3" />
<path d="M2338.92,13.25c2.08,0.25,2.97,2.6,3.08,3.4c0.78,5.36,0.53,10.25,0.92,14.27" style="fill:none;stroke:#999;stroke-width:3" />
<path d="M2361.75,11.42c1.04,0.95,1.17,2.1,0.83,3.5c-1.04,4.27-2.67,9.37-4.17,14.83" style="fill:none;stroke:#999;stroke-width:3" />
<path d="M2338.75,40.5c1,0.75,1.5,1.9,1.5,2.75c0,20.68-0.17,39.87-8.32,49.22" style="fill:none;stroke:#999;stroke-width:3" />
<path d="M2340.08,41.08c1.67,0.92,2.87,0.47,4,0.33c9.7-1.19,20-2.23,30.83-3.33c1.88-0.19,4.23,0.41,5.17,0.83" style="fill:none;stroke:#999;stroke-width:3" />
<path d="M2327.75,35.42c0.64,0.59,1.56,1.33,1.61,3.29c0.08,2.94-0.35,10.67-0.55,13.75c-0.06,0.98,0.11,2.45,1.07,2.3c3.38-0.54,5.95-1.17,9.86-1.61" style="fill:none;stroke:#999;stroke-width:3" />
<path d="M2325.92,64.42c0.55,0.65,3.29,0.88,4.17,0.67c4.36-1.06,6.24-1.34,9.45-2.38" style="fill:none;stroke:#999;stroke-width:3" />
<path d="M2330.92,66.63c0.02,0.46,0.06,1.18-0.03,1.83c-0.81,6.17-1.65,12.05-5.42,18.46" style="fill:none;stroke:#999;stroke-width:3" />
<path d="M2344.42,49.75c0.3,0.23,1.53,2.04,1.59,2.51c0.06,0.46,0.3,33.92,0.24,36.83" style="fill:none;stroke:#999;stroke-width:3" />
<path d="M2346.58,51.75c3.07-0.4,6.92-1,13.04-2.17c1.08-0.21,2.75-0.31,3.29-0.16" style="fill:none;stroke:#999;stroke-width:3" />
<path d="M2354.0699999999997,51.89c0.44,0.25,0.71,1.13,0.79,1.64c0.09,0.5-0.03,3.91-0.12,7.06" style="fill:none;stroke:#999;stroke-width:3" />
<path d="M2347.2799999999997,62.63c2.73-0.4,7.97-1.38,12.6-2.15c2.05-0.34,3.14,1.14,2.85,2.24c-0.52,1.99-1.61,6.31-2.14,8.7" style="fill:none;stroke:#999;stroke-width:3" />
<path d="M2346.81,73.22c3.14-0.32,11.99-1.61,14.94-1.8" style="fill:none;stroke:#999;stroke-width:3" />
<path d="M2354.26,73.18c0.53,0.26,0.85,1.16,0.95,1.67c0.1,0.52,0.07,7.26-0.04,10.48" style="fill:none;stroke:#999;stroke-width:3" />
<path d="M2346.58,86.75c2.94-0.41,5.79-1.19,12.62-1.59c1.04-0.06,2.36,0.11,2.88,0.26" style="fill:none;stroke:#999;stroke-width:3" />
<path d="M2364.42,27.08c0.79,1.4,1.83,1.48,2,4.5c1.48,27.11,5.45,48.3,14.79,60.59c4.05,5.33,5.05,0.58,5.21-7.25" style="fill:none;stroke:#999;stroke-width:3" />
<path d="M2379.44,46.85c0.07,1.11,0.04,2.85-0.13,4.45c-1.08,10.18-9.17,33.74-23.57,43.62" style="fill:none;stroke:#999;stroke-width:3" />
<path d="M2373.13,23.52c2.64,1.48,6.85,4.87,8.08,7.41" style="fill:none;stroke:black;stroke-width:3" />
<circle cx="2373.13" cy="23.52" r="5" stroke-width="0" fill="#FF2A00" opacity="0.7" />
</svg>