<!-- 081e5 -->
<svg width="981px" height="109px" viewBox="0 0 981px 109px" xmlns="http://www.w3.org/2000/svg" xmlns:xlink="http://www.w3.org/1999/xlink" xml:space="preserve" version="1.1"  baseProfile="full">
<line x1="1" y1="1" x2="980" y2="1" style="stroke:#ddd;stroke-width:2" />
<line x1="1" y1="1" x2="1" y2="108" style="stroke:#ddd;stroke-width:2" />
<line x1="1" y1="108" x2="980" y2="108" style="stroke:#ddd;stroke-width:2" />
<line x1="980" y1="1" x2="980" y2="108" style="stroke:#ddd;stroke-width:2" />
<line x1="109" y1="1" x2="109" y2="108" style="stroke:#ddd;stroke-width:2" />
<line x1="218" y1="1" x2="218" y2="108" style="stroke:#ddd;stroke-width:2" />
<line x1="327" y1="1" x2="327" y2="108" style="stroke:#ddd;stroke-width:2" />
<line x1="436" y1="1" x2="436" y2="108" style="stroke:#ddd;stroke-width:2" />
<line x1="545" y1="1" x2="545" y2="108" style="stroke:#ddd;stroke-width:2" />
<line x1="654" y1="1" x2="654" y2="108" style="stroke:#ddd;stroke-width:2" />
<line x1="763" y1="1" x2="763" y2="108" style="stroke:#ddd;stroke-width:2" />
<line x1="872" y1="1" x2="872" y2="108" style="stroke:#ddd;stroke-width:2" />
<line x1="1" y1="54" x2="980" y2="54" style="stroke:#ddd;stroke-width:2;stroke-dasharray:3 3" />
<line x1="55" y1="1" x2="55" y2="108" style="stroke:#ddd;stroke-width:2;stroke-dasharray:3 3" />
<line x1="164" y1="1" x2="164" y2="108" style="stroke:#ddd;stroke-width:2;stroke-dasharray:3 3" />
<line x1="273" y1="1" x2="273" y2="108" style="stroke:#ddd;stroke-width:2;stroke-dasharray:3 3" />
<line x1="382" y1="1" x2="382" y2="108" style="stroke:#ddd;stroke-width:2;stroke-dasharray:3 3" />
<line x1="491" y1="1" x2="491" y2="108" style="stroke:#ddd;stroke-width:2;stroke-dasharray:3 3" />
<line x1="600" y1="1" x2="600" y2="108" style="stroke:#ddd;stroke-width:2;stroke-dasharray:3 3" />
<line x1="709" y1="1" x2="709" y2="108" style="stroke:#ddd;stroke-width:2;stroke-dasharray:3 3" />
<line x1="818" y1="1" x2="818" y2="108" style="stroke:#ddd;stroke-width:2;stroke-dasharray:3 3" />
<line x1="927" y1="1" x2="927" y2="108" style="stroke:#ddd;stroke-width:2;stroke-dasharray:3 3" />
<path d="M13.41,21.44c1.14,1.14,1.21,2.56,1.21,4.21c0,0.84,0,61.65-0.11,66.86" style="fill:none;stroke:black;stroke-width:3" />
<circle cx="13.41" cy="21.44" r="5" stroke-width="0" fill="#FF2A00" opacity="0.7" />
<path d="M122.41,21.44c1.14,1.14,1.21,2.56,1.21,4.21c0,0.84,0,61.65-0.11,66.86" style="fill:none;stroke:#999;stroke-width:3" />
<path d="M123.74,22.26c7.63-1.26,17.63-2.14,26.51-3.23c2.07-0.25,4.5-0.28,6.25-0.02" style="fill:none;stroke:black;stroke-width:3" />
<circle cx="123.74" cy="22.26" r="5" stroke-width="0" fill="#FF2A00" opacity="0.7" />
<path d="M231.41,21.44c1.14,1.14,1.21,2.56,1.21,4.21c0,0.84,0,61.65-0.11,66.86" style="fill:none;stroke:#999;stroke-width:3" />
<path d="M232.74,22.26c7.63-1.26,17.63-2.14,26.51-3.23c2.07-0.25,4.5-0.28,6.25-0.02" style="fill:none;stroke:#999;stroke-width:3" />
<path d="M247.44,21.85c0.86,0.86,0.96,2.02,0.96,2.96c0,3.82-0.04,10.32-0.04,16.19" style="fill:none;stroke:black;stroke-width:3" />
<circle cx="247.44" cy="21.85" r="5" stroke-width="0" fill="#FF2A00" opacity="0.7" />
<path d="M340.40999999999997,21.44c1.14,1.14,1.21,2.56,1.21,4.21c0,0.84,0,61.65-0.11,66.86" style="fill:none;stroke:#999;stroke-width:3" />
<path d="M341.74,22.26c7.63-1.26,17.63-2.14,26.51-3.23c2.07-0.25,4.5-0.28,6.25-0.02" style="fill:none;stroke:#999;stroke-width:3" />
<path d="M356.44,21.85c0.86,0.86,0.96,2.02,0.96,2.96c0,3.82-0.04,10.32-0.04,16.19" style="fill:none;stroke:#999;stroke-width:3" />
<path d="M342.7,43.5c9.05-1.3,17.44-2.51,23.3-3.5c2.58-0.44,4.1,0.37,3.66,3.37c-0.6,4.06-2.03,9.12-2.84,13.28" style="fill:none;stroke:black;stroke-width:3" />
<circle cx="342.7" cy="43.5" r="5" stroke-width="0" fill="#FF2A00" opacity="0.7" />
<path d="M449.40999999999997,21.44c1.14,1.14,1.21,2.56,1.21,4.21c0,0.84,0,61.65-0.11,66.86" style="fill:none;stroke:#999;stroke-width:3" />
<path d="M450.74,22.26c7.63-1.26,17.63-2.14,26.51-3.23c2.07-0.25,4.5-0.28,6.25-0.02" style="fill:none;stroke:#999;stroke-width:3" />
<path d="M465.44,21.85c0.86,0.86,0.96,2.02,0.96,2.96c0,3.82-0.04,10.32-0.04,16.19" style="fill:none;stroke:#999;stroke-width:3" />
<path d="M451.7,43.5c9.05-1.3,17.44-2.51,23.3-3.5c2.58-0.44,4.1,0.37,3.66,3.37c-0.6,4.06-2.03,9.12-2.84,13.28" style="fill:none;stroke:#999;stroke-width:3" />
<path d="M451.74,61.23c3.65-0.49,15.04-1.97,22.27-2.92c1.72-0.23,3.2-0.42,4.29-0.57" style="fill:none;stroke:black;stroke-width:3" />
<circle cx="451.74" cy="61.23" r="5" stroke-width="0" fill="#FF2A00" opacity="0.7" />
<path d="M558.41,21.44c1.14,1.14,1.21,2.56,1.21,4.21c0,0.84,0,61.65-0.11,66.86" style="fill:none;stroke:#999;stroke-width:3" />
<path d="M559.74,22.26c7.63-1.26,17.63-2.14,26.51-3.23c2.07-0.25,4.5-0.28,6.25-0.02" style="fill:none;stroke:#999;stroke-width:3" />
<path d="M574.44,21.85c0.86,0.86,0.96,2.02,0.96,2.96c0,3.82-0.04,10.32-0.04,16.19" style="fill:none;stroke:#999;stroke-width:3" />
<path d="M560.7,43.5c9.05-1.3,17.44-2.51,23.3-3.5c2.58-0.44,4.1,0.37,3.66,3.37c-0.6,4.06-2.03,9.12-2.84,13.28" style="fill:none;stroke:#999;stroke-width:3" />
<path d="M560.74,61.23c3.65-0.49,15.04-1.97,22.27-2.92c1.72-0.23,3.2-0.42,4.29-0.57" style="fill:none;stroke:#999;stroke-width:3" />
<path d="M573.31,61.78c0.71,0.71,0.97,1.72,0.97,2.71c0,3.02-0.02,12.77-0.02,18.14" style="fill:none;stroke:black;stroke-width:3" />
<circle cx="573.31" cy="61.78" r="5" stroke-width="0" fill="#FF2A00" opacity="0.7" />
<path d="M667.41,21.44c1.14,1.14,1.21,2.56,1.21,4.21c0,0.84,0,61.65-0.11,66.86" style="fill:none;stroke:#999;stroke-width:3" />
<path d="M668.74,22.26c7.63-1.26,17.63-2.14,26.51-3.23c2.07-0.25,4.5-0.28,6.25-0.02" style="fill:none;stroke:#999;stroke-width:3" />
<path d="M683.44,21.85c0.86,0.86,0.96,2.02,0.96,2.96c0,3.82-0.04,10.32-0.04,16.19" style="fill:none;stroke:#999;stroke-width:3" />
<path d="M669.7,43.5c9.05-1.3,17.44-2.51,23.3-3.5c2.58-0.44,4.1,0.37,3.66,3.37c-0.6,4.06-2.03,9.12-2.84,13.28" style="fill:none;stroke:#999;stroke-width:3" />
<path d="M669.74,61.23c3.65-0.49,15.04-1.97,22.27-2.92c1.72-0.23,3.2-0.42,4.29-0.57" style="fill:none;stroke:#999;stroke-width:3" />
<path d="M682.31,61.78c0.71,0.71,0.97,1.72,0.97,2.71c0,3.02-0.02,12.77-0.02,18.14" style="fill:none;stroke:#999;stroke-width:3" />
<path d="M669.74,84.7c5.26-0.33,12.93-1.12,21.02-1.72c1.48-0.16,2.96-0.2,4.45-0.11" style="fill:none;stroke:black;stroke-width:3" />
<circle cx="669.74" cy="84.7" r="5" stroke-width="0" fill="#FF2A00" opacity="0.7" />
<path d="M776.41,21.44c1.14,1.14,1.21,2.56,1.21,4.21c0,0.84,0,61.65-0.11,66.86" style="fill:none;stroke:#999;stroke-width:3" />
<path d="M777.74,22.26c7.63-1.26,17.63-2.14,26.51-3.23c2.07-0.25,4.5-0.28,6.25-0.02" style="fill:none;stroke:#999;stroke-width:3" />
<path d="M792.44,21.85c0.86,0.86,0.96,2.02,0.96,2.96c0,3.82-0.04,10.32-0.04,16.19" style="fill:none;stroke:#999;stroke-width:3" />
<path d="M778.7,43.5c9.05-1.3,17.44-2.51,23.3-3.5c2.58-0.44,4.1,0.37,3.66,3.37c-0.6,4.06-2.03,9.12-2.84,13.28" style="fill:none;stroke:#999;stroke-width:3" />
<path d="M778.74,61.23c3.65-0.49,15.04-1.97,22.27-2.92c1.72-0.23,3.2-0.42,4.29-0.57" style="fill:none;stroke:#999;stroke-width:3" />
<path d="M791.31,61.78c0.71,0.71,0.97,1.72,0.97,2.71c0,3.02-0.02,12.77-0.02,18.14" style="fill:none;stroke:#999;stroke-width:3" />
<path d="M778.74,84.7c5.26-0.33,12.93-1.12,21.02-1.72c1.48-0.16,2.96-0.2,4.45-0.11" style="fill:none;stroke:#999;stroke-width:3" />
<path d="M827.47,15.75c1.03,1.25,1.21,2.38,1.1,4.97C827.75,39.5 822.0,75.88 801.0,93.33" style="fill:none;stroke:black;stroke-width:3" />
<circle cx="827.47" cy="15.75" r="5" stroke-width="0" fill="#FF2A00" opacity="0.7" />
<path d="M885.41,21.44c1.14,1.14,1.21,2.56,1.21,4.21c0,0.84,0,61.65-0.11,66.86" style="fill:none;stroke:#999;stroke-width:3" />
<path d="M886.74,22.26c7.63-1.26,17.63-2.14,26.51-3.23c2.07-0.25,4.5-0.28,6.25-0.02" style="fill:none;stroke:#999;stroke-width:3" />
<path d="M901.44,21.85c0.86,0.86,0.96,2.02,0.96,2.96c0,3.82-0.04,10.32-0.04,16.19" style="fill:none;stroke:#999;stroke-width:3" />
<path d="M887.7,43.5c9.05-1.3,17.44-2.51,23.3-3.5c2.58-0.44,4.1,0.37,3.66,3.37c-0.6,4.06-2.03,9.12-2.84,13.28" style="fill:none;stroke:#999;stroke-width:3" />
<path d="M887.74,61.23c3.65-0.49,15.04-1.97,22.27-2.92c1.72-0.23,3.2-0.42,4.29-0.57" style="fill:none;stroke:#999;stroke-width:3" />
<path d="M900.31,61.78c0.71,0.71,0.97,1.72,0.97,2.71c0,3.02-0.02,12.77-0.02,18.14" style="fill:none;stroke:#999;stroke-width:3" />
<path d="M887.74,84.7c5.26-0.33,12.93-1.12,21.02-1.72c1.48-0.16,2.96-0.2,4.45-0.11" style="fill:none;stroke:#999;stroke-width:3" />
<path d="M936.47,15.75c1.03,1.25,1.21,2.38,1.1,4.97C936.75,39.5 931.0,75.88 910.0,93.33" style="fill:none;stroke:#999;stroke-width:3" />
<path d="M935.5,46.38C940.75,56 950.21,72.61 958.0699999999999,82.54c2.78,3.81,6.26,6.79,10.43,8.96" style="fill:none;stroke:black;stroke-width:3" />
<circle cx="935.5" cy="46.38" r="5" stroke-width="0" fill="#FF2A00" opacity="0.7" />
</svg>