<!-- 0828d -->
<svg width="654px" height="109px" viewBox="0 0 654px 109px" xmlns="http://www.w3.org/2000/svg" xmlns:xlink="http://www.w3.org/1999/xlink" xml:space="preserve" version="1.1"  baseProfile="full">
<line x1="1" y1="1" x2="653" y2="1" style="stroke:#ddd;stroke-width:2" />
<line x1="1" y1="1" x2="1" y2="108" style="stroke:#ddd;stroke-width:2" />
<line x1="1" y1="108" x2="653" y2="108" style="stroke:#ddd;stroke-width:2" />
<line x1="653" y1="1" x2="653" y2="108" style="stroke:#ddd;stroke-width:2" />
<line x1="109" y1="1" x2="109" y2="108" style="stroke:#ddd;stroke-width:2" />
<line x1="218" y1="1" x2="218" y2="108" style="stroke:#ddd;stroke-width:2" />
<line x1="327" y1="1" x2="327" y2="108" style="stroke:#ddd;stroke-width:2" />
<line x1="436" y1="1" x2="436" y2="108" style="stroke:#ddd;stroke-width:2" />
<line x1="545" y1="1" x2="545" y2="108" style="stroke:#ddd;stroke-width:2" />
<line x1="1" y1="54" x2="653" y2="54" style="stroke:#ddd;stroke-width:2;stroke-dasharray:3 3" />
<line x1="55" y1="1" x2="55" y2="108" style="stroke:#ddd;stroke-width:2;stroke-dasharray:3 3" />
<line x1="164" y1="1" x2="164" y2="108" style="stroke:#ddd;stroke-width:2;stroke-dasharray:3 3" />
<line x1="273" y1="1" x2="273" y2="108" style="stroke:#ddd;stroke-width:2;stroke-dasharray:3 3" />
<line x1="382" y1="1" x2="382" y2="108" style="stroke:#ddd;stroke-width:2;stroke-dasharray:3 3" />
<line x1="491" y1="1" x2="491" y2="108" style="stroke:#ddd;stroke-width:2;stroke-dasharray:3 3" />
<line x1="600" y1="1" x2="600" y2="108" style="stroke:#ddd;stroke-width:2;stroke-dasharray:3 3" />
<path d="M17.75,26.25c1.32,0.64,5.68,0.58,7,0.46c12.1-1.17,47.55-4.2,61.5-4.29c2.19-0.01,6.07,0.51,7.17,0.83" style="fill:none;stroke:black;stroke-width:3" />
<circle cx="17.75" cy="26.25" r="5" stroke-width="0" fill="#FF2A00" opacity="0.7" />
<path d="M126.75,26.25c1.32,0.64,5.68,0.58,7,0.46c12.1-1.17,47.55-4.2,61.5-4.29c2.19-0.01,6.07,0.51,7.17,0.83" style="fill:none;stroke:#999;stroke-width:3" />
<path d="M144.57999999999998,11.42c1.17,1.08,2.17,2.04,2.3,2.96c1.37,9.62,2.39,16.66,3.04,19.71" style="fill:none;stroke:black;stroke-width:3" />
<circle cx="144.57999999999998" cy="11.42" r="5" stroke-width="0" fill="#FF2A00" opacity="0.7" />
<path d="M235.75,26.25c1.32,0.64,5.68,0.58,7,0.46c12.1-1.17,47.55-4.2,61.5-4.29c2.19-0.01,6.07,0.51,7.17,0.83" style="fill:none;stroke:#999;stroke-width:3" />
<path d="M253.57999999999998,11.42c1.17,1.08,2.17,2.04,2.3,2.96c1.37,9.62,2.39,16.66,3.04,19.71" style="fill:none;stroke:#999;stroke-width:3" />
<path d="M285.92,9.42c1.12,1,1.94,2.6,1.58,4.08c-1.25,5.25-1.5,11.25-2.92,18.75" style="fill:none;stroke:black;stroke-width:3" />
<circle cx="285.92" cy="9.42" r="5" stroke-width="0" fill="#FF2A00" opacity="0.7" />
<path d="M344.75,26.25c1.32,0.64,5.68,0.58,7,0.46c12.1-1.17,47.55-4.2,61.5-4.29c2.19-0.01,6.07,0.51,7.17,0.83" style="fill:none;stroke:#999;stroke-width:3" />
<path d="M362.58,11.42c1.17,1.08,2.17,2.04,2.3,2.96c1.37,9.62,2.39,16.66,3.04,19.71" style="fill:none;stroke:#999;stroke-width:3" />
<path d="M394.92,9.42c1.12,1,1.94,2.6,1.58,4.08c-1.25,5.25-1.5,11.25-2.92,18.75" style="fill:none;stroke:#999;stroke-width:3" />
<path d="M362.58,35.08c0.06,0.72,0.14,2.76-0.33,3.7c-3,5.96-12.11,21.38-20.09,26.96" style="fill:none;stroke:black;stroke-width:3" />
<circle cx="362.58" cy="35.08" r="5" stroke-width="0" fill="#FF2A00" opacity="0.7" />
<path d="M453.75,26.25c1.32,0.64,5.68,0.58,7,0.46c12.1-1.17,47.55-4.2,61.5-4.29c2.19-0.01,6.07,0.51,7.17,0.83" style="fill:none;stroke:#999;stroke-width:3" />
<path d="M471.58,11.42c1.17,1.08,2.17,2.04,2.3,2.96c1.37,9.62,2.39,16.66,3.04,19.71" style="fill:none;stroke:#999;stroke-width:3" />
<path d="M503.92,9.42c1.12,1,1.94,2.6,1.58,4.08c-1.25,5.25-1.5,11.25-2.92,18.75" style="fill:none;stroke:#999;stroke-width:3" />
<path d="M471.58,35.08c0.06,0.72,0.14,2.76-0.33,3.7c-3,5.96-12.11,21.38-20.09,26.96" style="fill:none;stroke:#999;stroke-width:3" />
<path d="M470.92,46.08c1.24,0.58,5.6,0.7,7.67,0.5c9.69-0.93,34.23-4.49,39.2-4.68s5.98,1.98,5.13,6.02c-1.17,5.58-5.86,40.18-12,45.67c-3.54,3.16-5.92,0.67-8.2-1.22" style="fill:none;stroke:black;stroke-width:3" />
<circle cx="470.92" cy="46.08" r="5" stroke-width="0" fill="#FF2A00" opacity="0.7" />
<path d="M562.75,26.25c1.32,0.64,5.68,0.58,7,0.46c12.1-1.17,47.55-4.2,61.5-4.29c2.19-0.01,6.07,0.51,7.17,0.83" style="fill:none;stroke:#999;stroke-width:3" />
<path d="M580.5799999999999,11.42c1.17,1.08,2.17,2.04,2.3,2.96c1.37,9.62,2.39,16.66,3.04,19.71" style="fill:none;stroke:#999;stroke-width:3" />
<path d="M612.9200000000001,9.42c1.12,1,1.94,2.6,1.58,4.08c-1.25,5.25-1.5,11.25-2.92,18.75" style="fill:none;stroke:#999;stroke-width:3" />
<path d="M580.5799999999999,35.08c0.06,0.72,0.14,2.76-0.33,3.7c-3,5.96-12.11,21.38-20.09,26.96" style="fill:none;stroke:#999;stroke-width:3" />
<path d="M579.9200000000001,46.08c1.24,0.58,5.6,0.7,7.67,0.5c9.69-0.93,34.23-4.49,39.2-4.68s5.98,1.98,5.13,6.02c-1.17,5.58-5.86,40.18-12,45.67c-3.54,3.16-5.92,0.67-8.2-1.22" style="fill:none;stroke:#999;stroke-width:3" />
<path d="M580.92,60.16c7.01,3.45,17.61,13.69,19.36,19.06" style="fill:none;stroke:black;stroke-width:3" />
<circle cx="580.92" cy="60.16" r="5" stroke-width="0" fill="#FF2A00" opacity="0.7" />
</svg>