<!-- 082d7 -->
<svg width="872px" height="109px" viewBox="0 0 872px 109px" xmlns="http://www.w3.org/2000/svg" xmlns:xlink="http://www.w3.org/1999/xlink" xml:space="preserve" version="1.1"  baseProfile="full">
<line x1="1" y1="1" x2="871" y2="1" style="stroke:#ddd;stroke-width:2" />
<line x1="1" y1="1" x2="1" y2="108" style="stroke:#ddd;stroke-width:2" />
<line x1="1" y1="108" x2="871" y2="108" style="stroke:#ddd;stroke-width:2" />
<line x1="871" y1="1" x2="871" y2="108" style="stroke:#ddd;stroke-width:2" />
<line x1="109" y1="1" x2="109" y2="108" style="stroke:#ddd;stroke-width:2" />
<line x1="218" y1="1" x2="218" y2="108" style="stroke:#ddd;stroke-width:2" />
<line x1="327" y1="1" x2="327" y2="108" style="stroke:#ddd;stroke-width:2" />
<line x1="436" y1="1" x2="436" y2="108" style="stroke:#ddd;stroke-width:2" />
<line x1="545" y1="1" x2="545" y2="108" style="stroke:#ddd;stroke-width:2" />
<line x1="654" y1="1" x2="654" y2="108" style="stroke:#ddd;stroke-width:2" />
<line x1="763" y1="1" x2="763" y2="108" style="stroke:#ddd;stroke-width:2" />
<line x1="1" y1="54" x2="871" y2="54" style="stroke:#ddd;stroke-width:2;stroke-dasharray:3 3" />
<line x1="55" y1="1" x2="55" y2="108" style="stroke:#ddd;stroke-width:2;stroke-dasharray:3 3" />
<line x1="164" y1="1" x2="164" y2="108" style="stroke:#ddd;stroke-width:2;stroke-dasharray:3 3" />
<line x1="273" y1="1" x2="273" y2="108" style="stroke:#ddd;stroke-width:2;stroke-dasharray:3 3" />
<line x1="382" y1="1" x2="382" y2="108" style="stroke:#ddd;stroke-width:2;stroke-dasharray:3 3" />
<line x1="491" y1="1" x2="491" y2="108" style="stroke:#ddd;stroke-width:2;stroke-dasharray:3 3" />
<line x1="600" y1="1" x2="600" y2="108" style="stroke:#ddd;stroke-width:2;stroke-dasharray:3 3" />
<line x1="709" y1="1" x2="709" y2="108" style="stroke:#ddd;stroke-width:2;stroke-dasharray:3 3" />
<line x1="818" y1="1" x2="818" y2="108" style="stroke:#ddd;stroke-width:2;stroke-dasharray:3 3" />
<path d="M15.5,31.68c2.72,0.96,6.3,0.74,9.13,0.41c14.92-1.74,42.04-4.07,57.62-4.63c3.49-0.12,7.05-0.11,10.5,0.62" style="fill:none;stroke:black;stroke-width:3" />
<circle cx="15.5" cy="31.68" r="5" stroke-width="0" fill="#FF2A00" opacity="0.7" />
<path d="M124.5,31.68c2.72,0.96,6.3,0.74,9.13,0.41c14.92-1.74,42.04-4.07,57.62-4.63c3.49-0.12,7.05-0.11,10.5,0.62" style="fill:none;stroke:#999;stroke-width:3" />
<path d="M145.7,15.56c0.8,1.19,1.2,2.17,1.32,3.32c1.1,10.71,2.04,21.21,2.35,25.11" style="fill:none;stroke:black;stroke-width:3" />
<circle cx="145.7" cy="15.56" r="5" stroke-width="0" fill="#FF2A00" opacity="0.7" />
<path d="M233.5,31.68c2.72,0.96,6.3,0.74,9.13,0.41c14.92-1.74,42.04-4.07,57.62-4.63c3.49-0.12,7.05-0.11,10.5,0.62" style="fill:none;stroke:#999;stroke-width:3" />
<path d="M254.7,15.56c0.8,1.19,1.2,2.17,1.32,3.32c1.1,10.71,2.04,21.21,2.35,25.11" style="fill:none;stroke:#999;stroke-width:3" />
<path d="M290.68,13c0.26,1.53,0.25,2.69-0.19,4.54c-2.24,9.46-3.74,14.21-6.42,25.05" style="fill:none;stroke:black;stroke-width:3" />
<circle cx="290.68" cy="13.0" r="5" stroke-width="0" fill="#FF2A00" opacity="0.7" />
<path d="M342.5,31.68c2.72,0.96,6.3,0.74,9.13,0.41c14.92-1.74,42.04-4.07,57.62-4.63c3.49-0.12,7.05-0.11,10.5,0.62" style="fill:none;stroke:#999;stroke-width:3" />
<path d="M363.7,15.56c0.8,1.19,1.2,2.17,1.32,3.32c1.1,10.71,2.04,21.21,2.35,25.11" style="fill:none;stroke:#999;stroke-width:3" />
<path d="M399.68,13c0.26,1.53,0.25,2.69-0.19,4.54c-2.24,9.46-3.74,14.21-6.42,25.05" style="fill:none;stroke:#999;stroke-width:3" />
<path d="M349.75,54c1,1,1.47,2.1,1.73,4.09c1.14,8.78,2.52,19.9,3.61,31.35c0.22,2.29,0.42,4.52,0.61,6.63" style="fill:none;stroke:black;stroke-width:3" />
<circle cx="349.75" cy="54.0" r="5" stroke-width="0" fill="#FF2A00" opacity="0.7" />
<path d="M451.5,31.68c2.72,0.96,6.3,0.74,9.13,0.41c14.92-1.74,42.04-4.07,57.62-4.63c3.49-0.12,7.05-0.11,10.5,0.62" style="fill:none;stroke:#999;stroke-width:3" />
<path d="M472.7,15.56c0.8,1.19,1.2,2.17,1.32,3.32c1.1,10.71,2.04,21.21,2.35,25.11" style="fill:none;stroke:#999;stroke-width:3" />
<path d="M508.68,13c0.26,1.53,0.25,2.69-0.19,4.54c-2.24,9.46-3.74,14.21-6.42,25.05" style="fill:none;stroke:#999;stroke-width:3" />
<path d="M458.75,54c1,1,1.47,2.1,1.73,4.09c1.14,8.78,2.52,19.9,3.61,31.35c0.22,2.29,0.42,4.52,0.61,6.63" style="fill:none;stroke:#999;stroke-width:3" />
<path d="M460.93,55.74c18.69-2.49,41.69-4.74,55.03-5.28c4.12-0.17,6.19,1.63,5.7,5.55c-0.83,6.61-2.52,19.36-4.64,30.28c-0.58,2.98-1.17,5.82-1.75,8.37" style="fill:none;stroke:black;stroke-width:3" />
<circle cx="460.93" cy="55.74" r="5" stroke-width="0" fill="#FF2A00" opacity="0.7" />
<path d="M560.5,31.68c2.72,0.96,6.3,0.74,9.13,0.41c14.92-1.74,42.04-4.07,57.62-4.63c3.49-0.12,7.05-0.11,10.5,0.62" style="fill:none;stroke:#999;stroke-width:3" />
<path d="M581.7,15.56c0.8,1.19,1.2,2.17,1.32,3.32c1.1,10.71,2.04,21.21,2.35,25.11" style="fill:none;stroke:#999;stroke-width:3" />
<path d="M617.6800000000001,13c0.26,1.53,0.25,2.69-0.19,4.54c-2.24,9.46-3.74,14.21-6.42,25.05" style="fill:none;stroke:#999;stroke-width:3" />
<path d="M567.75,54c1,1,1.47,2.1,1.73,4.09c1.14,8.78,2.52,19.9,3.61,31.35c0.22,2.29,0.42,4.52,0.61,6.63" style="fill:none;stroke:#999;stroke-width:3" />
<path d="M569.9300000000001,55.74c18.69-2.49,41.69-4.74,55.03-5.28c4.12-0.17,6.19,1.63,5.7,5.55c-0.83,6.61-2.52,19.36-4.64,30.28c-0.58,2.98-1.17,5.82-1.75,8.37" style="fill:none;stroke:#999;stroke-width:3" />
<path d="M598.12,55.04c0.98,0.98,1.22,2.09,1.22,3.57c0,9.35-0.04,25.86-0.09,32.51" style="fill:none;stroke:black;stroke-width:3" />
<circle cx="598.12" cy="55.04" r="5" stroke-width="0" fill="#FF2A00" opacity="0.7" />
<path d="M669.5,31.68c2.72,0.96,6.3,0.74,9.13,0.41c14.92-1.74,42.04-4.07,57.62-4.63c3.49-0.12,7.05-0.11,10.5,0.62" style="fill:none;stroke:#999;stroke-width:3" />
<path d="M690.7,15.56c0.8,1.19,1.2,2.17,1.32,3.32c1.1,10.71,2.04,21.21,2.35,25.11" style="fill:none;stroke:#999;stroke-width:3" />
<path d="M726.6800000000001,13c0.26,1.53,0.25,2.69-0.19,4.54c-2.24,9.46-3.74,14.21-6.42,25.05" style="fill:none;stroke:#999;stroke-width:3" />
<path d="M676.75,54c1,1,1.47,2.1,1.73,4.09c1.14,8.78,2.52,19.9,3.61,31.35c0.22,2.29,0.42,4.52,0.61,6.63" style="fill:none;stroke:#999;stroke-width:3" />
<path d="M678.9300000000001,55.74c18.69-2.49,41.69-4.74,55.03-5.28c4.12-0.17,6.19,1.63,5.7,5.55c-0.83,6.61-2.52,19.36-4.64,30.28c-0.58,2.98-1.17,5.82-1.75,8.37" style="fill:none;stroke:#999;stroke-width:3" />
<path d="M707.12,55.04c0.98,0.98,1.22,2.09,1.22,3.57c0,9.35-0.04,25.86-0.09,32.51" style="fill:none;stroke:#999;stroke-width:3" />
<path d="M681.8,73.67c15.2-1.54,40.32-3.79,54.89-4.53" style="fill:none;stroke:black;stroke-width:3" />
<circle cx="681.8" cy="73.67" r="5" stroke-width="0" fill="#FF2A00" opacity="0.7" />
<path d="M778.5,31.68c2.72,0.96,6.3,0.74,9.13,0.41c14.92-1.74,42.04-4.07,57.62-4.63c3.49-0.12,7.05-0.11,10.5,0.62" style="fill:none;stroke:#999;stroke-width:3" />
<path d="M799.7,15.56c0.8,1.19,1.2,2.17,1.32,3.32c1.1,10.71,2.04,21.21,2.35,25.11" style="fill:none;stroke:#999;stroke-width:3" />
<path d="M835.6800000000001,13c0.26,1.53,0.25,2.69-0.19,4.54c-2.24,9.46-3.74,14.21-6.42,25.05" style="fill:none;stroke:#999;stroke-width:3" />
<path d="M785.75,54c1,1,1.47,2.1,1.73,4.09c1.14,8.78,2.52,19.9,3.61,31.35c0.22,2.29,0.42,4.52,0.61,6.63" style="fill:none;stroke:#999;stroke-width:3" />
<path d="M787.9300000000001,55.74c18.69-2.49,41.69-4.74,55.03-5.28c4.12-0.17,6.19,1.63,5.7,5.55c-0.83,6.61-2.52,19.36-4.64,30.28c-0.58,2.98-1.17,5.82-1.75,8.37" style="fill:none;stroke:#999;stroke-width:3" />
<path d="M816.12,55.04c0.98,0.98,1.22,2.09,1.22,3.57c0,9.35-0.04,25.86-0.09,32.51" style="fill:none;stroke:#999;stroke-width:3" />
<path d="M790.8,73.67c15.2-1.54,40.32-3.79,54.89-4.53" style="fill:none;stroke:#999;stroke-width:3" />
<path d="M792.48,93.64c12.02-0.89,34.75-2.3,49.49-2.73" style="fill:none;stroke:black;stroke-width:3" />
<circle cx="792.48" cy="93.64" r="5" stroke-width="0" fill="#FF2A00" opacity="0.7" />
</svg>