<!-- 08306 -->
<svg width="872px" height="109px" viewBox="0 0 872px 109px" xmlns="http://www.w3.org/2000/svg" xmlns:xlink="http://www.w3.org/1999/xlink" xml:space="preserve" version="1.1"  baseProfile="full">
<line x1="1" y1="1" x2="871" y2="1" style="stroke:#ddd;stroke-width:2" />
<line x1="1" y1="1" x2="1" y2="108" style="stroke:#ddd;stroke-width:2" />
<line x1="1" y1="108" x2="871" y2="108" style="stroke:#ddd;stroke-width:2" />
<line x1="871" y1="1" x2="871" y2="108" style="stroke:#ddd;stroke-width:2" />
<line x1="109" y1="1" x2="109" y2="108" style="stroke:#ddd;stroke-width:2" />
<line x1="218" y1="1" x2="218" y2="108" style="stroke:#ddd;stroke-width:2" />
<line x1="327" y1="1" x2="327" y2="108" style="stroke:#ddd;stroke-width:2" />
<line x1="436" y1="1" x2="436" y2="108" style="stroke:#ddd;stroke-width:2" />
<line x1="545" y1="1" x2="545" y2="108" style="stroke:#ddd;stroke-width:2" />
<line x1="654" y1="1" x2="654" y2="108" style="stroke:#ddd;stroke-width:2" />
<line x1="763" y1="1" x2="763" y2="108" style="stroke:#ddd;stroke-width:2" />
<line x1="1" y1="54" x2="871" y2="54" style="stroke:#ddd;stroke-width:2;stroke-dasharray:3 3" />
<line x1="55" y1="1" x2="55" y2="108" style="stroke:#ddd;stroke-width:2;stroke-dasharray:3 3" />
<line x1="164" y1="1" x2="164" y2="108" style="stroke:#ddd;stroke-width:2;stroke-dasharray:3 3" />
<line x1="273" y1="1" x2="273" y2="108" style="stroke:#ddd;stroke-width:2;stroke-dasharray:3 3" />
<line x1="382" y1="1" x2="382" y2="108" style="stroke:#ddd;stroke-width:2;stroke-dasharray:3 3" />
<line x1="491" y1="1" x2="491" y2="108" style="stroke:#ddd;stroke-width:2;stroke-dasharray:3 3" />
<line x1="600" y1="1" x2="600" y2="108" style="stroke:#ddd;stroke-width:2;stroke-dasharray:3 3" />
<line x1="709" y1="1" x2="709" y2="108" style="stroke:#ddd;stroke-width:2;stroke-dasharray:3 3" />
<line x1="818" y1="1" x2="818" y2="108" style="stroke:#ddd;stroke-width:2;stroke-dasharray:3 3" />
<path d="M17.58,22.25c1.34,0.53,5.04,0.44,6.39,0.33c12.33-0.96,43.67-4.09,57.88-4.17c2.24-0.01,5.62,0.4,6.73,0.67" style="fill:none;stroke:black;stroke-width:3" />
<circle cx="17.58" cy="22.25" r="5" stroke-width="0" fill="#FF2A00" opacity="0.7" />
<path d="M126.58,22.25c1.34,0.53,5.04,0.44,6.39,0.33c12.33-0.96,43.67-4.09,57.88-4.17c2.24-0.01,5.62,0.4,6.73,0.67" style="fill:none;stroke:#999;stroke-width:3" />
<path d="M145.25,11.42c1.5,0.83,2.75,2.22,2.88,3.04c1.14,7.61,1.8,15.2,2.12,17.96" style="fill:none;stroke:black;stroke-width:3" />
<circle cx="145.25" cy="11.42" r="5" stroke-width="0" fill="#FF2A00" opacity="0.7" />
<path d="M235.57999999999998,22.25c1.34,0.53,5.04,0.44,6.39,0.33c12.33-0.96,43.67-4.09,57.88-4.17c2.24-0.01,5.62,0.4,6.73,0.67" style="fill:none;stroke:#999;stroke-width:3" />
<path d="M254.25,11.42c1.5,0.83,2.75,2.22,2.88,3.04c1.14,7.61,1.8,15.2,2.12,17.96" style="fill:none;stroke:#999;stroke-width:3" />
<path d="M284.58,9.75c1.17,1.5,1.24,3.2,0.88,4.61c-1.21,4.72-2.07,10.91-4.38,16.22" style="fill:none;stroke:black;stroke-width:3" />
<circle cx="284.58" cy="9.75" r="5" stroke-width="0" fill="#FF2A00" opacity="0.7" />
<path d="M344.58,22.25c1.34,0.53,5.04,0.44,6.39,0.33c12.33-0.96,43.67-4.09,57.88-4.17c2.24-0.01,5.62,0.4,6.73,0.67" style="fill:none;stroke:#999;stroke-width:3" />
<path d="M363.25,11.42c1.5,0.83,2.75,2.22,2.88,3.04c1.14,7.61,1.8,15.2,2.12,17.96" style="fill:none;stroke:#999;stroke-width:3" />
<path d="M393.58,9.75c1.17,1.5,1.24,3.2,0.88,4.61c-1.21,4.72-2.07,10.91-4.38,16.22" style="fill:none;stroke:#999;stroke-width:3" />
<path d="M374.19,33.25c-0.19,1-0.25,1.4-0.63,1.76c-4.64,4.41-10.99,7.96-23.08,11.52" style="fill:none;stroke:black;stroke-width:3" />
<circle cx="374.19" cy="33.25" r="5" stroke-width="0" fill="#FF2A00" opacity="0.7" />
<path d="M453.58,22.25c1.34,0.53,5.04,0.44,6.39,0.33c12.33-0.96,43.67-4.09,57.88-4.17c2.24-0.01,5.62,0.4,6.73,0.67" style="fill:none;stroke:#999;stroke-width:3" />
<path d="M472.25,11.42c1.5,0.83,2.75,2.22,2.88,3.04c1.14,7.61,1.8,15.2,2.12,17.96" style="fill:none;stroke:#999;stroke-width:3" />
<path d="M502.58,9.75c1.17,1.5,1.24,3.2,0.88,4.61c-1.21,4.72-2.07,10.91-4.38,16.22" style="fill:none;stroke:#999;stroke-width:3" />
<path d="M483.19,33.25c-0.19,1-0.25,1.4-0.63,1.76c-4.64,4.41-10.99,7.96-23.08,11.52" style="fill:none;stroke:#999;stroke-width:3" />
<path d="M455.08,45.25c0.88,0.37,1.65,1.97,1.65,2.74c0,5.76,0.37,26.54,0.18,28.39c-0.18,1.67-1.59,4.83,0.53,3.53c2.12-1.3,17.17-8.83,24.48-12.66" style="fill:none;stroke:black;stroke-width:3" />
<circle cx="455.08" cy="45.25" r="5" stroke-width="0" fill="#FF2A00" opacity="0.7" />
<path d="M562.5799999999999,22.25c1.34,0.53,5.04,0.44,6.39,0.33c12.33-0.96,43.67-4.09,57.88-4.17c2.24-0.01,5.62,0.4,6.73,0.67" style="fill:none;stroke:#999;stroke-width:3" />
<path d="M581.25,11.42c1.5,0.83,2.75,2.22,2.88,3.04c1.14,7.61,1.8,15.2,2.12,17.96" style="fill:none;stroke:#999;stroke-width:3" />
<path d="M611.5799999999999,9.75c1.17,1.5,1.24,3.2,0.88,4.61c-1.21,4.72-2.07,10.91-4.38,16.22" style="fill:none;stroke:#999;stroke-width:3" />
<path d="M592.19,33.25c-0.19,1-0.25,1.4-0.63,1.76c-4.64,4.41-10.99,7.96-23.08,11.52" style="fill:none;stroke:#999;stroke-width:3" />
<path d="M564.0799999999999,45.25c0.88,0.37,1.65,1.97,1.65,2.74c0,5.76,0.37,26.54,0.18,28.39c-0.18,1.67-1.59,4.83,0.53,3.53c2.12-1.3,17.17-8.83,24.48-12.66" style="fill:none;stroke:#999;stroke-width:3" />
<path d="M590.08,43.92c1.29,0.71,2.17,2.85,2.17,4.67c0,14.18,2.41,37.43-22.78,49.49" style="fill:none;stroke:black;stroke-width:3" />
<circle cx="590.08" cy="43.92" r="5" stroke-width="0" fill="#FF2A00" opacity="0.7" />
<path d="M671.5799999999999,22.25c1.34,0.53,5.04,0.44,6.39,0.33c12.33-0.96,43.67-4.09,57.88-4.17c2.24-0.01,5.62,0.4,6.73,0.67" style="fill:none;stroke:#999;stroke-width:3" />
<path d="M690.25,11.42c1.5,0.83,2.75,2.22,2.88,3.04c1.14,7.61,1.8,15.2,2.12,17.96" style="fill:none;stroke:#999;stroke-width:3" />
<path d="M720.5799999999999,9.75c1.17,1.5,1.24,3.2,0.88,4.61c-1.21,4.72-2.07,10.91-4.38,16.22" style="fill:none;stroke:#999;stroke-width:3" />
<path d="M701.19,33.25c-0.19,1-0.25,1.4-0.63,1.76c-4.64,4.41-10.99,7.96-23.08,11.52" style="fill:none;stroke:#999;stroke-width:3" />
<path d="M673.0799999999999,45.25c0.88,0.37,1.65,1.97,1.65,2.74c0,5.76,0.37,26.54,0.18,28.39c-0.18,1.67-1.59,4.83,0.53,3.53c2.12-1.3,17.17-8.83,24.48-12.66" style="fill:none;stroke:#999;stroke-width:3" />
<path d="M699.08,43.92c1.29,0.71,2.17,2.85,2.17,4.67c0,14.18,2.41,37.43-22.78,49.49" style="fill:none;stroke:#999;stroke-width:3" />
<path d="M713.75,36.92c0.75,0.21,2.9,1.28,4.42,1.17c4.58-0.33,18.23-2.12,20.11-2.33c1.88-0.21,4.7-0.42,4.89,4.02c0.09,2.12-0.8,25.25-2.75,34.97c-2.26,11.25-6.58,3.06-7.14,2.64" style="fill:none;stroke:black;stroke-width:3" />
<circle cx="713.75" cy="36.92" r="5" stroke-width="0" fill="#FF2A00" opacity="0.7" />
<path d="M780.5799999999999,22.25c1.34,0.53,5.04,0.44,6.39,0.33c12.33-0.96,43.67-4.09,57.88-4.17c2.24-0.01,5.62,0.4,6.73,0.67" style="fill:none;stroke:#999;stroke-width:3" />
<path d="M799.25,11.42c1.5,0.83,2.75,2.22,2.88,3.04c1.14,7.61,1.8,15.2,2.12,17.96" style="fill:none;stroke:#999;stroke-width:3" />
<path d="M829.5799999999999,9.75c1.17,1.5,1.24,3.2,0.88,4.61c-1.21,4.72-2.07,10.91-4.38,16.22" style="fill:none;stroke:#999;stroke-width:3" />
<path d="M810.19,33.25c-0.19,1-0.25,1.4-0.63,1.76c-4.64,4.41-10.99,7.96-23.08,11.52" style="fill:none;stroke:#999;stroke-width:3" />
<path d="M782.0799999999999,45.25c0.88,0.37,1.65,1.97,1.65,2.74c0,5.76,0.37,26.54,0.18,28.39c-0.18,1.67-1.59,4.83,0.53,3.53c2.12-1.3,17.17-8.83,24.48-12.66" style="fill:none;stroke:#999;stroke-width:3" />
<path d="M808.08,43.92c1.29,0.71,2.17,2.85,2.17,4.67c0,14.18,2.41,37.43-22.78,49.49" style="fill:none;stroke:#999;stroke-width:3" />
<path d="M822.75,36.92c0.75,0.21,2.9,1.28,4.42,1.17c4.58-0.33,18.23-2.12,20.11-2.33c1.88-0.21,4.7-0.42,4.89,4.02c0.09,2.12-0.8,25.25-2.75,34.97c-2.26,11.25-6.58,3.06-7.14,2.64" style="fill:none;stroke:#999;stroke-width:3" />
<path d="M826.03,38.61c0.02,0.14,0.53,2.18,0.54,3.89c0.07,11.17-0.06,50.96-0.19,56.58" style="fill:none;stroke:black;stroke-width:3" />
<circle cx="826.03" cy="38.61" r="5" stroke-width="0" fill="#FF2A00" opacity="0.7" />
</svg>