<!-- 08387 -->
<svg width="1090px" height="109px" viewBox="0 0 1090px 109px" xmlns="http://www.w3.org/2000/svg" xmlns:xlink="http://www.w3.org/1999/xlink" xml:space="preserve" version="1.1"  baseProfile="full">
<line x1="1" y1="1" x2="1089" y2="1" style="stroke:#ddd;stroke-width:2" />
<line x1="1" y1="1" x2="1" y2="108" style="stroke:#ddd;stroke-width:2" />
<line x1="1" y1="108" x2="1089" y2="108" style="stroke:#ddd;stroke-width:2" />
<line x1="1089" y1="1" x2="1089" y2="108" style="stroke:#ddd;stroke-width:2" />
<line x1="109" y1="1" x2="109" y2="108" style="stroke:#ddd;stroke-width:2" />
<line x1="218" y1="1" x2="218" y2="108" style="stroke:#ddd;stroke-width:2" />
<line x1="327" y1="1" x2="327" y2="108" style="stroke:#ddd;stroke-width:2" />
<line x1="436" y1="1" x2="436" y2="108" style="stroke:#ddd;stroke-width:2" />
<line x1="545" y1="1" x2="545" y2="108" style="stroke:#ddd;stroke-width:2" />
<line x1="654" y1="1" x2="654" y2="108" style="stroke:#ddd;stroke-width:2" />
<line x1="763" y1="1" x2="763" y2="108" style="stroke:#ddd;stroke-width:2" />
<line x1="872" y1="1" x2="872" y2="108" style="stroke:#ddd;stroke-width:2" />
<line x1="981" y1="1" x2="981" y2="108" style="stroke:#ddd;stroke-width:2" />
<line x1="1" y1="54" x2="1089" y2="54" style="stroke:#ddd;stroke-width:2;stroke-dasharray:3 3" />
<line x1="55" y1="1" x2="55" y2="108" style="stroke:#ddd;stroke-width:2;stroke-dasharray:3 3" />
<line x1="164" y1="1" x2="164" y2="108" style="stroke:#ddd;stroke-width:2;stroke-dasharray:3 3" />
<line x1="273" y1="1" x2="273" y2="108" style="stroke:#ddd;stroke-width:2;stroke-dasharray:3 3" />
<line x1="382" y1="1" x2="382" y2="108" style="stroke:#ddd;stroke-width:2;stroke-dasharray:3 3" />
<line x1="491" y1="1" x2="491" y2="108" style="stroke:#ddd;stroke-width:2;stroke-dasharray:3 3" />
<line x1="600" y1="1" x2="600" y2="108" style="stroke:#ddd;stroke-width:2;stroke-dasharray:3 3" />
<line x1="709" y1="1" x2="709" y2="108" style="stroke:#ddd;stroke-width:2;stroke-dasharray:3 3" />
<line x1="818" y1="1" x2="818" y2="108" style="stroke:#ddd;stroke-width:2;stroke-dasharray:3 3" />
<line x1="927" y1="1" x2="927" y2="108" style="stroke:#ddd;stroke-width:2;stroke-dasharray:3 3" />
<line x1="1036" y1="1" x2="1036" y2="108" style="stroke:#ddd;stroke-width:2;stroke-dasharray:3 3" />
<path d="M17.33,23.67c1.29,0.53,3.92,0.58,7.17,0.5c11.94-0.3,44.95-3.76,58.67-3.83c2.16-0.01,6.25,0.9,7.33,1.17" style="fill:none;stroke:black;stroke-width:3" />
<circle cx="17.33" cy="23.67" r="5" stroke-width="0" fill="#FF2A00" opacity="0.7" />
<path d="M126.33,23.67c1.29,0.53,3.92,0.58,7.17,0.5c11.94-0.3,44.95-3.76,58.67-3.83c2.16-0.01,6.25,0.9,7.33,1.17" style="fill:none;stroke:#999;stroke-width:3" />
<path d="M147.67000000000002,12.33c1.83,0.67,1.97,2.52,2.08,3.42C150.82999999999998,24.33 150.82999999999998,31 150.67000000000002,34" style="fill:none;stroke:black;stroke-width:3" />
<circle cx="147.67000000000002" cy="12.33" r="5" stroke-width="0" fill="#FF2A00" opacity="0.7" />
<path d="M235.32999999999998,23.67c1.29,0.53,3.92,0.58,7.17,0.5c11.94-0.3,44.95-3.76,58.67-3.83c2.16-0.01,6.25,0.9,7.33,1.17" style="fill:none;stroke:#999;stroke-width:3" />
<path d="M256.67,12.33c1.83,0.67,1.97,2.52,2.08,3.42C259.83,24.33 259.83,31 259.67,34" style="fill:none;stroke:#999;stroke-width:3" />
<path d="M284.5,11.33c0.75,0.92,1.12,1.94,0.75,3.42c-1.12,4.5-1.79,11.33-3.42,17.08" style="fill:none;stroke:black;stroke-width:3" />
<circle cx="284.5" cy="11.33" r="5" stroke-width="0" fill="#FF2A00" opacity="0.7" />
<path d="M344.33,23.67c1.29,0.53,3.92,0.58,7.17,0.5c11.94-0.3,44.95-3.76,58.67-3.83c2.16-0.01,6.25,0.9,7.33,1.17" style="fill:none;stroke:#999;stroke-width:3" />
<path d="M365.67,12.33c1.83,0.67,1.97,2.52,2.08,3.42C368.83,24.33 368.83,31 368.67,34" style="fill:none;stroke:#999;stroke-width:3" />
<path d="M393.5,11.33c0.75,0.92,1.12,1.94,0.75,3.42c-1.12,4.5-1.79,11.33-3.42,17.08" style="fill:none;stroke:#999;stroke-width:3" />
<path d="M349.0,41c1.25,1,1.43,3.09,1.5,3.83c0.07,0.74,0.68,43.3,0.66,44.94" style="fill:none;stroke:black;stroke-width:3" />
<circle cx="349.0" cy="41.0" r="5" stroke-width="0" fill="#FF2A00" opacity="0.7" />
<path d="M453.33,23.67c1.29,0.53,3.92,0.58,7.17,0.5c11.94-0.3,44.95-3.76,58.67-3.83c2.16-0.01,6.25,0.9,7.33,1.17" style="fill:none;stroke:#999;stroke-width:3" />
<path d="M474.67,12.33c1.83,0.67,1.97,2.52,2.08,3.42C477.83,24.33 477.83,31 477.67,34" style="fill:none;stroke:#999;stroke-width:3" />
<path d="M502.5,11.33c0.75,0.92,1.12,1.94,0.75,3.42c-1.12,4.5-1.79,11.33-3.42,17.08" style="fill:none;stroke:#999;stroke-width:3" />
<path d="M458.0,41c1.25,1,1.43,3.09,1.5,3.83c0.07,0.74,0.68,43.3,0.66,44.94" style="fill:none;stroke:#999;stroke-width:3" />
<path d="M459.58,42.31c1.74-0.07,17.73-2.04,19.02-2.15c2.32-0.21,3.21,2.39,2.92,3.4c-0.28,0.97-0.14,22.63-0.22,36.41" style="fill:none;stroke:black;stroke-width:3" />
<circle cx="459.58" cy="42.31" r="5" stroke-width="0" fill="#FF2A00" opacity="0.7" />
<path d="M562.3299999999999,23.67c1.29,0.53,3.92,0.58,7.17,0.5c11.94-0.3,44.95-3.76,58.67-3.83c2.16-0.01,6.25,0.9,7.33,1.17" style="fill:none;stroke:#999;stroke-width:3" />
<path d="M583.6700000000001,12.33c1.83,0.67,1.97,2.52,2.08,3.42C586.8299999999999,24.33 586.8299999999999,31 586.6700000000001,34" style="fill:none;stroke:#999;stroke-width:3" />
<path d="M611.5,11.33c0.75,0.92,1.12,1.94,0.75,3.42c-1.12,4.5-1.79,11.33-3.42,17.08" style="fill:none;stroke:#999;stroke-width:3" />
<path d="M567.0,41c1.25,1,1.43,3.09,1.5,3.83c0.07,0.74,0.68,43.3,0.66,44.94" style="fill:none;stroke:#999;stroke-width:3" />
<path d="M568.5799999999999,42.31c1.74-0.07,17.73-2.04,19.02-2.15c2.32-0.21,3.21,2.39,2.92,3.4c-0.28,0.97-0.14,22.63-0.22,36.41" style="fill:none;stroke:#999;stroke-width:3" />
<path d="M570.0,55.83c8.24-1.22,12.41-1.31,18.83-2" style="fill:none;stroke:black;stroke-width:3" />
<circle cx="570.0" cy="55.83" r="5" stroke-width="0" fill="#FF2A00" opacity="0.7" />
<path d="M671.3299999999999,23.67c1.29,0.53,3.92,0.58,7.17,0.5c11.94-0.3,44.95-3.76,58.67-3.83c2.16-0.01,6.25,0.9,7.33,1.17" style="fill:none;stroke:#999;stroke-width:3" />
<path d="M692.6700000000001,12.33c1.83,0.67,1.97,2.52,2.08,3.42C695.8299999999999,24.33 695.8299999999999,31 695.6700000000001,34" style="fill:none;stroke:#999;stroke-width:3" />
<path d="M720.5,11.33c0.75,0.92,1.12,1.94,0.75,3.42c-1.12,4.5-1.79,11.33-3.42,17.08" style="fill:none;stroke:#999;stroke-width:3" />
<path d="M676.0,41c1.25,1,1.43,3.09,1.5,3.83c0.07,0.74,0.68,43.3,0.66,44.94" style="fill:none;stroke:#999;stroke-width:3" />
<path d="M677.5799999999999,42.31c1.74-0.07,17.73-2.04,19.02-2.15c2.32-0.21,3.21,2.39,2.92,3.4c-0.28,0.97-0.14,22.63-0.22,36.41" style="fill:none;stroke:#999;stroke-width:3" />
<path d="M679.0,55.83c8.24-1.22,12.41-1.31,18.83-2" style="fill:none;stroke:#999;stroke-width:3" />
<path d="M679.17,69.83c5.29-1.02,12.57-1.65,18.83-2.33" style="fill:none;stroke:black;stroke-width:3" />
<circle cx="679.17" cy="69.83" r="5" stroke-width="0" fill="#FF2A00" opacity="0.7" />
<path d="M780.3299999999999,23.67c1.29,0.53,3.92,0.58,7.17,0.5c11.94-0.3,44.95-3.76,58.67-3.83c2.16-0.01,6.25,0.9,7.33,1.17" style="fill:none;stroke:#999;stroke-width:3" />
<path d="M801.6700000000001,12.33c1.83,0.67,1.97,2.52,2.08,3.42C804.8299999999999,24.33 804.8299999999999,31 804.6700000000001,34" style="fill:none;stroke:#999;stroke-width:3" />
<path d="M829.5,11.33c0.75,0.92,1.12,1.94,0.75,3.42c-1.12,4.5-1.79,11.33-3.42,17.08" style="fill:none;stroke:#999;stroke-width:3" />
<path d="M785.0,41c1.25,1,1.43,3.09,1.5,3.83c0.07,0.74,0.68,43.3,0.66,44.94" style="fill:none;stroke:#999;stroke-width:3" />
<path d="M786.5799999999999,42.31c1.74-0.07,17.73-2.04,19.02-2.15c2.32-0.21,3.21,2.39,2.92,3.4c-0.28,0.97-0.14,22.63-0.22,36.41" style="fill:none;stroke:#999;stroke-width:3" />
<path d="M788.0,55.83c8.24-1.22,12.41-1.31,18.83-2" style="fill:none;stroke:#999;stroke-width:3" />
<path d="M788.17,69.83c5.29-1.02,12.57-1.65,18.83-2.33" style="fill:none;stroke:#999;stroke-width:3" />
<path d="M778.17,91.17c1.5,1.69,2.23,1.4,5.5,0.33c2.32-0.76,26.32-9.13,36.06-13.3" style="fill:none;stroke:black;stroke-width:3" />
<circle cx="778.17" cy="91.17" r="5" stroke-width="0" fill="#FF2A00" opacity="0.7" />
<path d="M889.3299999999999,23.67c1.29,0.53,3.92,0.58,7.17,0.5c11.94-0.3,44.95-3.76,58.67-3.83c2.16-0.01,6.25,0.9,7.33,1.17" style="fill:none;stroke:#999;stroke-width:3" />
<path d="M910.6700000000001,12.33c1.83,0.67,1.97,2.52,2.08,3.42C913.8299999999999,24.33 913.8299999999999,31 913.6700000000001,34" style="fill:none;stroke:#999;stroke-width:3" />
<path d="M938.5,11.33c0.75,0.92,1.12,1.94,0.75,3.42c-1.12,4.5-1.79,11.33-3.42,17.08" style="fill:none;stroke:#999;stroke-width:3" />
<path d="M894.0,41c1.25,1,1.43,3.09,1.5,3.83c0.07,0.74,0.68,43.3,0.66,44.94" style="fill:none;stroke:#999;stroke-width:3" />
<path d="M895.5799999999999,42.31c1.74-0.07,17.73-2.04,19.02-2.15c2.32-0.21,3.21,2.39,2.92,3.4c-0.28,0.97-0.14,22.63-0.22,36.41" style="fill:none;stroke:#999;stroke-width:3" />
<path d="M897.0,55.83c8.24-1.22,12.41-1.31,18.83-2" style="fill:none;stroke:#999;stroke-width:3" />
<path d="M897.17,69.83c5.29-1.02,12.57-1.65,18.83-2.33" style="fill:none;stroke:#999;stroke-width:3" />
<path d="M887.17,91.17c1.5,1.69,2.23,1.4,5.5,0.33c2.32-0.76,26.32-9.13,36.06-13.3" style="fill:none;stroke:#999;stroke-width:3" />
<path d="M926.17,48.67C928.25,49 929.5,49 931.83,48.83c8.23-0.59,22.1-2.88,26-3.5c2.54-0.4,3.96,1.54,3.85,4.37C961.37,57.51 955.75,84 951.0,92.5c-2.29,4.1-6,0-7.17-1.5" style="fill:none;stroke:black;stroke-width:3" />
<circle cx="926.17" cy="48.67" r="5" stroke-width="0" fill="#FF2A00" opacity="0.7" />
<path d="M998.3299999999999,23.67c1.29,0.53,3.92,0.58,7.17,0.5c11.94-0.3,44.95-3.76,58.67-3.83c2.16-0.01,6.25,0.9,7.33,1.17" style="fill:none;stroke:#999;stroke-width:3" />
<path d="M1019.6700000000001,12.33c1.83,0.67,1.97,2.52,2.08,3.42C1022.8299999999999,24.33 1022.8299999999999,31 1022.6700000000001,34" style="fill:none;stroke:#999;stroke-width:3" />
<path d="M1047.5,11.33c0.75,0.92,1.12,1.94,0.75,3.42c-1.12,4.5-1.79,11.33-3.42,17.08" style="fill:none;stroke:#999;stroke-width:3" />
<path d="M1003.0,41c1.25,1,1.43,3.09,1.5,3.83c0.07,0.74,0.68,43.3,0.66,44.94" style="fill:none;stroke:#999;stroke-width:3" />
<path d="M1004.5799999999999,42.31c1.74-0.07,17.73-2.04,19.02-2.15c2.32-0.21,3.21,2.39,2.92,3.4c-0.28,0.97-0.14,22.63-0.22,36.41" style="fill:none;stroke:#999;stroke-width:3" />
<path d="M1006.0,55.83c8.24-1.22,12.41-1.31,18.83-2" style="fill:none;stroke:#999;stroke-width:3" />
<path d="M1006.17,69.83c5.29-1.02,12.57-1.65,18.83-2.33" style="fill:none;stroke:#999;stroke-width:3" />
<path d="M996.17,91.17c1.5,1.69,2.23,1.4,5.5,0.33c2.32-0.76,26.32-9.13,36.06-13.3" style="fill:none;stroke:#999;stroke-width:3" />
<path d="M1035.17,48.67C1037.25,49 1038.5,49 1040.83,48.83c8.23-0.59,22.1-2.88,26-3.5c2.54-0.4,3.96,1.54,3.85,4.37C1070.37,57.51 1064.75,84 1060.0,92.5c-2.29,4.1-6,0-7.17-1.5" style="fill:none;stroke:#999;stroke-width:3" />
<path d="M1053.33,33.83c0.43,0.49,1.12,1.86,1.17,3.83c0.31,14.16-13.25,48.08-24.18,58.29" style="fill:none;stroke:black;stroke-width:3" />
<circle cx="1053.33" cy="33.83" r="5" stroke-width="0" fill="#FF2A00" opacity="0.7" />
</svg>