<!-- 08393 -->
<svg width="1090px" height="109px" viewBox="0 0 1090px 109px" xmlns="http://www.w3.org/2000/svg" xmlns:xlink="http://www.w3.org/1999/xlink" xml:space="preserve" version="1.1"  baseProfile="full">
<line x1="1" y1="1" x2="1089" y2="1" style="stroke:#ddd;stroke-width:2" />
<line x1="1" y1="1" x2="1" y2="108" style="stroke:#ddd;stroke-width:2" />
<line x1="1" y1="108" x2="1089" y2="108" style="stroke:#ddd;stroke-width:2" />
<line x1="1089" y1="1" x2="1089" y2="108" style="stroke:#ddd;stroke-width:2" />
<line x1="109" y1="1" x2="109" y2="108" style="stroke:#ddd;stroke-width:2" />
<line x1="218" y1="1" x2="218" y2="108" style="stroke:#ddd;stroke-width:2" />
<line x1="327" y1="1" x2="327" y2="108" style="stroke:#ddd;stroke-width:2" />
<line x1="436" y1="1" x2="436" y2="108" style="stroke:#ddd;stroke-width:2" />
<line x1="545" y1="1" x2="545" y2="108" style="stroke:#ddd;stroke-width:2" />
<line x1="654" y1="1" x2="654" y2="108" style="stroke:#ddd;stroke-width:2" />
<line x1="763" y1="1" x2="763" y2="108" style="stroke:#ddd;stroke-width:2" />
<line x1="872" y1="1" x2="872" y2="108" style="stroke:#ddd;stroke-width:2" />
<line x1="981" y1="1" x2="981" y2="108" style="stroke:#ddd;stroke-width:2" />
<line x1="1" y1="54" x2="1089" y2="54" style="stroke:#ddd;stroke-width:2;stroke-dasharray:3 3" />
<line x1="55" y1="1" x2="55" y2="108" style="stroke:#ddd;stroke-width:2;stroke-dasharray:3 3" />
<line x1="164" y1="1" x2="164" y2="108" style="stroke:#ddd;stroke-width:2;stroke-dasharray:3 3" />
<line x1="273" y1="1" x2="273" y2="108" style="stroke:#ddd;stroke-width:2;stroke-dasharray:3 3" />
<line x1="382" y1="1" x2="382" y2="108" style="stroke:#ddd;stroke-width:2;stroke-dasharray:3 3" />
<line x1="491" y1="1" x2="491" y2="108" style="stroke:#ddd;stroke-width:2;stroke-dasharray:3 3" />
<line x1="600" y1="1" x2="600" y2="108" style="stroke:#ddd;stroke-width:2;stroke-dasharray:3 3" />
<line x1="709" y1="1" x2="709" y2="108" style="stroke:#ddd;stroke-width:2;stroke-dasharray:3 3" />
<line x1="818" y1="1" x2="818" y2="108" style="stroke:#ddd;stroke-width:2;stroke-dasharray:3 3" />
<line x1="927" y1="1" x2="927" y2="108" style="stroke:#ddd;stroke-width:2;stroke-dasharray:3 3" />
<line x1="1036" y1="1" x2="1036" y2="108" style="stroke:#ddd;stroke-width:2;stroke-dasharray:3 3" />
<path d="M17.25,20.11c1.4,0.44,3.03,0.53,4.44,0.44c12.89-0.8,50.8-3.73,65.65-3.79c2.34-0.01,3.74,0.21,4.91,0.43" style="fill:none;stroke:black;stroke-width:3" />
<circle cx="17.25" cy="20.11" r="5" stroke-width="0" fill="#FF2A00" opacity="0.7" />
<path d="M126.25,20.11c1.4,0.44,3.03,0.53,4.44,0.44c12.89-0.8,50.8-3.73,65.65-3.79c2.34-0.01,3.74,0.21,4.91,0.43" style="fill:none;stroke:#999;stroke-width:3" />
<path d="M146.5,8.75c1.42,1.27,1.87,1.65,2.02,2.43c1.42,7.29,1.82,13.92,2.23,16.57" style="fill:none;stroke:black;stroke-width:3" />
<circle cx="146.5" cy="8.75" r="5" stroke-width="0" fill="#FF2A00" opacity="0.7" />
<path d="M235.25,20.11c1.4,0.44,3.03,0.53,4.44,0.44c12.89-0.8,50.8-3.73,65.65-3.79c2.34-0.01,3.74,0.21,4.91,0.43" style="fill:none;stroke:#999;stroke-width:3" />
<path d="M255.5,8.75c1.42,1.27,1.87,1.65,2.02,2.43c1.42,7.29,1.82,13.92,2.23,16.57" style="fill:none;stroke:#999;stroke-width:3" />
<path d="M285.72,8c0.98,0.86,1.64,2.18,1.31,3.45c-0.98,3.88-1.64,10.34-3.06,15.3" style="fill:none;stroke:black;stroke-width:3" />
<circle cx="285.72" cy="8.0" r="5" stroke-width="0" fill="#FF2A00" opacity="0.7" />
<path d="M344.25,20.11c1.4,0.44,3.03,0.53,4.44,0.44c12.89-0.8,50.8-3.73,65.65-3.79c2.34-0.01,3.74,0.21,4.91,0.43" style="fill:none;stroke:#999;stroke-width:3" />
<path d="M364.5,8.75c1.42,1.27,1.87,1.65,2.02,2.43c1.42,7.29,1.82,13.92,2.23,16.57" style="fill:none;stroke:#999;stroke-width:3" />
<path d="M394.72,8c0.98,0.86,1.64,2.18,1.31,3.45c-0.98,3.88-1.64,10.34-3.06,15.3" style="fill:none;stroke:#999;stroke-width:3" />
<path d="M361.79,26.5c0.05,0.53,0.17,1.37-0.1,2.11c-1.63,4.54-8.44,14.89-17.47,20.7" style="fill:none;stroke:black;stroke-width:3" />
<circle cx="361.79" cy="26.5" r="5" stroke-width="0" fill="#FF2A00" opacity="0.7" />
<path d="M453.25,20.11c1.4,0.44,3.03,0.53,4.44,0.44c12.89-0.8,50.8-3.73,65.65-3.79c2.34-0.01,3.74,0.21,4.91,0.43" style="fill:none;stroke:#999;stroke-width:3" />
<path d="M473.5,8.75c1.42,1.27,1.87,1.65,2.02,2.43c1.42,7.29,1.82,13.92,2.23,16.57" style="fill:none;stroke:#999;stroke-width:3" />
<path d="M503.72,8c0.98,0.86,1.64,2.18,1.31,3.45c-0.98,3.88-1.64,10.34-3.06,15.3" style="fill:none;stroke:#999;stroke-width:3" />
<path d="M470.79,26.5c0.05,0.53,0.17,1.37-0.1,2.11c-1.63,4.54-8.44,14.89-17.47,20.7" style="fill:none;stroke:#999;stroke-width:3" />
<path d="M470.15999999999997,35.18c1.07,0.26,4.18,0.37,5.22,0.26C482.0,34.75 501.75,33 514.42,32.6c1.75-0.06,3.98,0.12,4.87,0.26" style="fill:none;stroke:black;stroke-width:3" />
<circle cx="470.15999999999997" cy="35.18" r="5" stroke-width="0" fill="#FF2A00" opacity="0.7" />
<path d="M562.25,20.11c1.4,0.44,3.03,0.53,4.44,0.44c12.89-0.8,50.8-3.73,65.65-3.79c2.34-0.01,3.74,0.21,4.91,0.43" style="fill:none;stroke:#999;stroke-width:3" />
<path d="M582.5,8.75c1.42,1.27,1.87,1.65,2.02,2.43c1.42,7.29,1.82,13.92,2.23,16.57" style="fill:none;stroke:#999;stroke-width:3" />
<path d="M612.72,8c0.98,0.86,1.64,2.18,1.31,3.45c-0.98,3.88-1.64,10.34-3.06,15.3" style="fill:none;stroke:#999;stroke-width:3" />
<path d="M579.79,26.5c0.05,0.53,0.17,1.37-0.1,2.11c-1.63,4.54-8.44,14.89-17.47,20.7" style="fill:none;stroke:#999;stroke-width:3" />
<path d="M579.16,35.18c1.07,0.26,4.18,0.37,5.22,0.26C591.0,34.75 610.75,33 623.42,32.6c1.75-0.06,3.98,0.12,4.87,0.26" style="fill:none;stroke:#999;stroke-width:3" />
<path d="M580.64,44.02c1.1,0.83,1.74,3.55,1.37,5.72C580.0,61.5 577.0,72.5 573.71,79.92c-1.36,3.07-0.53,4.2,1.59,4.2c16.94,0,36.91,1.96,50.94,11.29" style="fill:none;stroke:black;stroke-width:3" />
<circle cx="580.64" cy="44.02" r="5" stroke-width="0" fill="#FF2A00" opacity="0.7" />
<path d="M671.25,20.11c1.4,0.44,3.03,0.53,4.44,0.44c12.89-0.8,50.8-3.73,65.65-3.79c2.34-0.01,3.74,0.21,4.91,0.43" style="fill:none;stroke:#999;stroke-width:3" />
<path d="M691.5,8.75c1.42,1.27,1.87,1.65,2.02,2.43c1.42,7.29,1.82,13.92,2.23,16.57" style="fill:none;stroke:#999;stroke-width:3" />
<path d="M721.72,8c0.98,0.86,1.64,2.18,1.31,3.45c-0.98,3.88-1.64,10.34-3.06,15.3" style="fill:none;stroke:#999;stroke-width:3" />
<path d="M688.79,26.5c0.05,0.53,0.17,1.37-0.1,2.11c-1.63,4.54-8.44,14.89-17.47,20.7" style="fill:none;stroke:#999;stroke-width:3" />
<path d="M688.16,35.18c1.07,0.26,4.18,0.37,5.22,0.26C700.0,34.75 719.75,33 732.42,32.6c1.75-0.06,3.98,0.12,4.87,0.26" style="fill:none;stroke:#999;stroke-width:3" />
<path d="M689.64,44.02c1.1,0.83,1.74,3.55,1.37,5.72C689.0,61.5 686.0,72.5 682.71,79.92c-1.36,3.07-0.53,4.2,1.59,4.2c16.94,0,36.91,1.96,50.94,11.29" style="fill:none;stroke:#999;stroke-width:3" />
<path d="M692.38,46.93c1.13-0.14,3.29-0.29,4.29-0.38c10.19-0.96,23.58-2.7,29.23-2.7c2.88,0,3.64,1.56,3.45,3.47c-1.43,14.02-4.84,33.94-10.84,50.6c-2.22,6.17-6.38-0.58-7.52-1.58" style="fill:none;stroke:black;stroke-width:3" />
<circle cx="692.38" cy="46.93" r="5" stroke-width="0" fill="#FF2A00" opacity="0.7" />
<path d="M780.25,20.11c1.4,0.44,3.03,0.53,4.44,0.44c12.89-0.8,50.8-3.73,65.65-3.79c2.34-0.01,3.74,0.21,4.91,0.43" style="fill:none;stroke:#999;stroke-width:3" />
<path d="M800.5,8.75c1.42,1.27,1.87,1.65,2.02,2.43c1.42,7.29,1.82,13.92,2.23,16.57" style="fill:none;stroke:#999;stroke-width:3" />
<path d="M830.72,8c0.98,0.86,1.64,2.18,1.31,3.45c-0.98,3.88-1.64,10.34-3.06,15.3" style="fill:none;stroke:#999;stroke-width:3" />
<path d="M797.79,26.5c0.05,0.53,0.17,1.37-0.1,2.11c-1.63,4.54-8.44,14.89-17.47,20.7" style="fill:none;stroke:#999;stroke-width:3" />
<path d="M797.16,35.18c1.07,0.26,4.18,0.37,5.22,0.26C809.0,34.75 828.75,33 841.42,32.6c1.75-0.06,3.98,0.12,4.87,0.26" style="fill:none;stroke:#999;stroke-width:3" />
<path d="M798.64,44.02c1.1,0.83,1.74,3.55,1.37,5.72C798.0,61.5 795.0,72.5 791.71,79.92c-1.36,3.07-0.53,4.2,1.59,4.2c16.94,0,36.91,1.96,50.94,11.29" style="fill:none;stroke:#999;stroke-width:3" />
<path d="M801.38,46.93c1.13-0.14,3.29-0.29,4.29-0.38c10.19-0.96,23.58-2.7,29.23-2.7c2.88,0,3.64,1.56,3.45,3.47c-1.43,14.02-4.84,33.94-10.84,50.6c-2.22,6.17-6.38-0.58-7.52-1.58" style="fill:none;stroke:#999;stroke-width:3" />
<path d="M810.02,50.54c3.81,1.33,9.85,5.46,10.81,7.53" style="fill:none;stroke:black;stroke-width:3" />
<circle cx="810.02" cy="50.54" r="5" stroke-width="0" fill="#FF2A00" opacity="0.7" />
<path d="M889.25,20.11c1.4,0.44,3.03,0.53,4.44,0.44c12.89-0.8,50.8-3.73,65.65-3.79c2.34-0.01,3.74,0.21,4.91,0.43" style="fill:none;stroke:#999;stroke-width:3" />
<path d="M909.5,8.75c1.42,1.27,1.87,1.65,2.02,2.43c1.42,7.29,1.82,13.92,2.23,16.57" style="fill:none;stroke:#999;stroke-width:3" />
<path d="M939.72,8c0.98,0.86,1.64,2.18,1.31,3.45c-0.98,3.88-1.64,10.34-3.06,15.3" style="fill:none;stroke:#999;stroke-width:3" />
<path d="M906.79,26.5c0.05,0.53,0.17,1.37-0.1,2.11c-1.63,4.54-8.44,14.89-17.47,20.7" style="fill:none;stroke:#999;stroke-width:3" />
<path d="M906.16,35.18c1.07,0.26,4.18,0.37,5.22,0.26C918.0,34.75 937.75,33 950.42,32.6c1.75-0.06,3.98,0.12,4.87,0.26" style="fill:none;stroke:#999;stroke-width:3" />
<path d="M907.64,44.02c1.1,0.83,1.74,3.55,1.37,5.72C907.0,61.5 904.0,72.5 900.71,79.92c-1.36,3.07-0.53,4.2,1.59,4.2c16.94,0,36.91,1.96,50.94,11.29" style="fill:none;stroke:#999;stroke-width:3" />
<path d="M910.38,46.93c1.13-0.14,3.29-0.29,4.29-0.38c10.19-0.96,23.58-2.7,29.23-2.7c2.88,0,3.64,1.56,3.45,3.47c-1.43,14.02-4.84,33.94-10.84,50.6c-2.22,6.17-6.38-0.58-7.52-1.58" style="fill:none;stroke:#999;stroke-width:3" />
<path d="M919.02,50.54c3.81,1.33,9.85,5.46,10.81,7.53" style="fill:none;stroke:#999;stroke-width:3" />
<path d="M918.28,71.21c3.64,1.82,9.4,7.46,10.31,10.28" style="fill:none;stroke:black;stroke-width:3" />
<circle cx="918.28" cy="71.21" r="5" stroke-width="0" fill="#FF2A00" opacity="0.7" />
<path d="M998.25,20.11c1.4,0.44,3.03,0.53,4.44,0.44c12.89-0.8,50.8-3.73,65.65-3.79c2.34-0.01,3.74,0.21,4.91,0.43" style="fill:none;stroke:#999;stroke-width:3" />
<path d="M1018.5,8.75c1.42,1.27,1.87,1.65,2.02,2.43c1.42,7.29,1.82,13.92,2.23,16.57" style="fill:none;stroke:#999;stroke-width:3" />
<path d="M1048.72,8c0.98,0.86,1.64,2.18,1.31,3.45c-0.98,3.88-1.64,10.34-3.06,15.3" style="fill:none;stroke:#999;stroke-width:3" />
<path d="M1015.79,26.5c0.05,0.53,0.17,1.37-0.1,2.11c-1.63,4.54-8.44,14.89-17.47,20.7" style="fill:none;stroke:#999;stroke-width:3" />
<path d="M1015.16,35.18c1.07,0.26,4.18,0.37,5.22,0.26C1027.0,34.75 1046.75,33 1059.42,32.6c1.75-0.06,3.98,0.12,4.87,0.26" style="fill:none;stroke:#999;stroke-width:3" />
<path d="M1016.64,44.02c1.1,0.83,1.74,3.55,1.37,5.72C1016.0,61.5 1013.0,72.5 1009.71,79.92c-1.36,3.07-0.53,4.2,1.59,4.2c16.94,0,36.91,1.96,50.94,11.29" style="fill:none;stroke:#999;stroke-width:3" />
<path d="M1019.38,46.93c1.13-0.14,3.29-0.29,4.29-0.38c10.19-0.96,23.58-2.7,29.23-2.7c2.88,0,3.64,1.56,3.45,3.47c-1.43,14.02-4.84,33.94-10.84,50.6c-2.22,6.17-6.38-0.58-7.52-1.58" style="fill:none;stroke:#999;stroke-width:3" />
<path d="M1028.02,50.54c3.81,1.33,9.85,5.46,10.81,7.53" style="fill:none;stroke:#999;stroke-width:3" />
<path d="M1027.28,71.21c3.64,1.82,9.4,7.46,10.31,10.28" style="fill:none;stroke:#999;stroke-width:3" />
<path d="M995.09,65.76c1.14,0.24,3.22,0.26,4.37,0.24c11.86-0.27,51.42-2.64,73.24-2.7c1.9,0,3.04,0.11,3.99,0.23" style="fill:none;stroke:black;stroke-width:3" />
<circle cx="995.09" cy="65.76" r="5" stroke-width="0" fill="#FF2A00" opacity="0.7" />
</svg>