<!-- 0840e -->
<svg width="1199px" height="109px" viewBox="0 0 1199px 109px" xmlns="http://www.w3.org/2000/svg" xmlns:xlink="http://www.w3.org/1999/xlink" xml:space="preserve" version="1.1"  baseProfile="full">
<line x1="1" y1="1" x2="1198" y2="1" style="stroke:#ddd;stroke-width:2" />
<line x1="1" y1="1" x2="1" y2="108" style="stroke:#ddd;stroke-width:2" />
<line x1="1" y1="108" x2="1198" y2="108" style="stroke:#ddd;stroke-width:2" />
<line x1="1198" y1="1" x2="1198" y2="108" style="stroke:#ddd;stroke-width:2" />
<line x1="109" y1="1" x2="109" y2="108" style="stroke:#ddd;stroke-width:2" />
<line x1="218" y1="1" x2="218" y2="108" style="stroke:#ddd;stroke-width:2" />
<line x1="327" y1="1" x2="327" y2="108" style="stroke:#ddd;stroke-width:2" />
<line x1="436" y1="1" x2="436" y2="108" style="stroke:#ddd;stroke-width:2" />
<line x1="545" y1="1" x2="545" y2="108" style="stroke:#ddd;stroke-width:2" />
<line x1="654" y1="1" x2="654" y2="108" style="stroke:#ddd;stroke-width:2" />
<line x1="763" y1="1" x2="763" y2="108" style="stroke:#ddd;stroke-width:2" />
<line x1="872" y1="1" x2="872" y2="108" style="stroke:#ddd;stroke-width:2" />
<line x1="981" y1="1" x2="981" y2="108" style="stroke:#ddd;stroke-width:2" />
<line x1="1090" y1="1" x2="1090" y2="108" style="stroke:#ddd;stroke-width:2" />
<line x1="1" y1="54" x2="1198" y2="54" style="stroke:#ddd;stroke-width:2;stroke-dasharray:3 3" />
<line x1="55" y1="1" x2="55" y2="108" style="stroke:#ddd;stroke-width:2;stroke-dasharray:3 3" />
<line x1="164" y1="1" x2="164" y2="108" style="stroke:#ddd;stroke-width:2;stroke-dasharray:3 3" />
<line x1="273" y1="1" x2="273" y2="108" style="stroke:#ddd;stroke-width:2;stroke-dasharray:3 3" />
<line x1="382" y1="1" x2="382" y2="108" style="stroke:#ddd;stroke-width:2;stroke-dasharray:3 3" />
<line x1="491" y1="1" x2="491" y2="108" style="stroke:#ddd;stroke-width:2;stroke-dasharray:3 3" />
<line x1="600" y1="1" x2="600" y2="108" style="stroke:#ddd;stroke-width:2;stroke-dasharray:3 3" />
<line x1="709" y1="1" x2="709" y2="108" style="stroke:#ddd;stroke-width:2;stroke-dasharray:3 3" />
<line x1="818" y1="1" x2="818" y2="108" style="stroke:#ddd;stroke-width:2;stroke-dasharray:3 3" />
<line x1="927" y1="1" x2="927" y2="108" style="stroke:#ddd;stroke-width:2;stroke-dasharray:3 3" />
<line x1="1036" y1="1" x2="1036" y2="108" style="stroke:#ddd;stroke-width:2;stroke-dasharray:3 3" />
<line x1="1145" y1="1" x2="1145" y2="108" style="stroke:#ddd;stroke-width:2;stroke-dasharray:3 3" />
<path d="M21.25,23.27c2.08,0.85,4.95,0.78,7.14,0.53c15.86-1.8,39.27-3.51,53.35-3.96c2.69-0.09,5.37,0.05,8,0.69" style="fill:none;stroke:black;stroke-width:3" />
<circle cx="21.25" cy="23.27" r="5" stroke-width="0" fill="#FF2A00" opacity="0.7" />
<path d="M130.25,23.27c2.08,0.85,4.95,0.78,7.14,0.53c15.86-1.8,39.27-3.51,53.35-3.96c2.69-0.09,5.37,0.05,8,0.69" style="fill:none;stroke:#999;stroke-width:3" />
<path d="M147.5,11.5c0.88,0.88,1.35,2.11,1.5,3c1,5.75,2,11.5,2.5,14.5" style="fill:none;stroke:black;stroke-width:3" />
<circle cx="147.5" cy="11.5" r="5" stroke-width="0" fill="#FF2A00" opacity="0.7" />
<path d="M239.25,23.27c2.08,0.85,4.95,0.78,7.14,0.53c15.86-1.8,39.27-3.51,53.35-3.96c2.69-0.09,5.37,0.05,8,0.69" style="fill:none;stroke:#999;stroke-width:3" />
<path d="M256.5,11.5c0.88,0.88,1.35,2.11,1.5,3c1,5.75,2,11.5,2.5,14.5" style="fill:none;stroke:#999;stroke-width:3" />
<path d="M287.88,10.75c0.29,1.28,0.27,2.24,0.01,3.53c-1.11,5.62-1.77,8.35-2.89,12.97" style="fill:none;stroke:black;stroke-width:3" />
<circle cx="287.88" cy="10.75" r="5" stroke-width="0" fill="#FF2A00" opacity="0.7" />
<path d="M348.25,23.27c2.08,0.85,4.95,0.78,7.14,0.53c15.86-1.8,39.27-3.51,53.35-3.96c2.69-0.09,5.37,0.05,8,0.69" style="fill:none;stroke:#999;stroke-width:3" />
<path d="M365.5,11.5c0.88,0.88,1.35,2.11,1.5,3c1,5.75,2,11.5,2.5,14.5" style="fill:none;stroke:#999;stroke-width:3" />
<path d="M396.88,10.75c0.29,1.28,0.27,2.24,0.01,3.53c-1.11,5.62-1.77,8.35-2.89,12.97" style="fill:none;stroke:#999;stroke-width:3" />
<path d="M389.52,28.75c-0.14,1.12-1.21,1.74-1.8,2.05c-3.89,2.08-14.14,5.41-27.47,7.56" style="fill:none;stroke:black;stroke-width:3" />
<circle cx="389.52" cy="28.75" r="5" stroke-width="0" fill="#FF2A00" opacity="0.7" />
<path d="M457.25,23.27c2.08,0.85,4.95,0.78,7.14,0.53c15.86-1.8,39.27-3.51,53.35-3.96c2.69-0.09,5.37,0.05,8,0.69" style="fill:none;stroke:#999;stroke-width:3" />
<path d="M474.5,11.5c0.88,0.88,1.35,2.11,1.5,3c1,5.75,2,11.5,2.5,14.5" style="fill:none;stroke:#999;stroke-width:3" />
<path d="M505.88,10.75c0.29,1.28,0.27,2.24,0.01,3.53c-1.11,5.62-1.77,8.35-2.89,12.97" style="fill:none;stroke:#999;stroke-width:3" />
<path d="M498.52,28.75c-0.14,1.12-1.21,1.74-1.8,2.05c-3.89,2.08-14.14,5.41-27.47,7.56" style="fill:none;stroke:#999;stroke-width:3" />
<path d="M456.0,46.06c3.18,0.62,6.8,0.38,9.99-0.07c12.38-1.74,36.59-3.79,52.13-4.6c2.98-0.16,5.91-0.28,8.88,0.07" style="fill:none;stroke:black;stroke-width:3" />
<circle cx="456.0" cy="46.06" r="5" stroke-width="0" fill="#FF2A00" opacity="0.7" />
<path d="M566.25,23.27c2.08,0.85,4.95,0.78,7.14,0.53c15.86-1.8,39.27-3.51,53.35-3.96c2.69-0.09,5.37,0.05,8,0.69" style="fill:none;stroke:#999;stroke-width:3" />
<path d="M583.5,11.5c0.88,0.88,1.35,2.11,1.5,3c1,5.75,2,11.5,2.5,14.5" style="fill:none;stroke:#999;stroke-width:3" />
<path d="M614.88,10.75c0.29,1.28,0.27,2.24,0.01,3.53c-1.11,5.62-1.77,8.35-2.89,12.97" style="fill:none;stroke:#999;stroke-width:3" />
<path d="M607.52,28.75c-0.14,1.12-1.21,1.74-1.8,2.05c-3.89,2.08-14.14,5.41-27.47,7.56" style="fill:none;stroke:#999;stroke-width:3" />
<path d="M565.0,46.06c3.18,0.62,6.8,0.38,9.99-0.07c12.38-1.74,36.59-3.79,52.13-4.6c2.98-0.16,5.91-0.28,8.88,0.07" style="fill:none;stroke:#999;stroke-width:3" />
<path d="M598.47,36.76c0.89,0.89,1.1,2.12,1.1,3.36c0,3.96-0.04,11.63-0.06,17c-0.01,1.58-0.01,2.97-0.01,4" style="fill:none;stroke:black;stroke-width:3" />
<circle cx="598.47" cy="36.76" r="5" stroke-width="0" fill="#FF2A00" opacity="0.7" />
<path d="M675.25,23.27c2.08,0.85,4.95,0.78,7.14,0.53c15.86-1.8,39.27-3.51,53.35-3.96c2.69-0.09,5.37,0.05,8,0.69" style="fill:none;stroke:#999;stroke-width:3" />
<path d="M692.5,11.5c0.88,0.88,1.35,2.11,1.5,3c1,5.75,2,11.5,2.5,14.5" style="fill:none;stroke:#999;stroke-width:3" />
<path d="M723.88,10.75c0.29,1.28,0.27,2.24,0.01,3.53c-1.11,5.62-1.77,8.35-2.89,12.97" style="fill:none;stroke:#999;stroke-width:3" />
<path d="M716.52,28.75c-0.14,1.12-1.21,1.74-1.8,2.05c-3.89,2.08-14.14,5.41-27.47,7.56" style="fill:none;stroke:#999;stroke-width:3" />
<path d="M674.0,46.06c3.18,0.62,6.8,0.38,9.99-0.07c12.38-1.74,36.59-3.79,52.13-4.6c2.98-0.16,5.91-0.28,8.88,0.07" style="fill:none;stroke:#999;stroke-width:3" />
<path d="M707.47,36.76c0.89,0.89,1.1,2.12,1.1,3.36c0,3.96-0.04,11.63-0.06,17c-0.01,1.58-0.01,2.97-0.01,4" style="fill:none;stroke:#999;stroke-width:3" />
<path d="M704.25,44.73c0,1-1.44,2.01-2.84,3.14c-7.61,6.11-19.17,11.77-32.16,15.62" style="fill:none;stroke:black;stroke-width:3" />
<circle cx="704.25" cy="44.73" r="5" stroke-width="0" fill="#FF2A00" opacity="0.7" />
<path d="M784.25,23.27c2.08,0.85,4.95,0.78,7.14,0.53c15.86-1.8,39.27-3.51,53.35-3.96c2.69-0.09,5.37,0.05,8,0.69" style="fill:none;stroke:#999;stroke-width:3" />
<path d="M801.5,11.5c0.88,0.88,1.35,2.11,1.5,3c1,5.75,2,11.5,2.5,14.5" style="fill:none;stroke:#999;stroke-width:3" />
<path d="M832.88,10.75c0.29,1.28,0.27,2.24,0.01,3.53c-1.11,5.62-1.77,8.35-2.89,12.97" style="fill:none;stroke:#999;stroke-width:3" />
<path d="M825.52,28.75c-0.14,1.12-1.21,1.74-1.8,2.05c-3.89,2.08-14.14,5.41-27.47,7.56" style="fill:none;stroke:#999;stroke-width:3" />
<path d="M783.0,46.06c3.18,0.62,6.8,0.38,9.99-0.07c12.38-1.74,36.59-3.79,52.13-4.6c2.98-0.16,5.91-0.28,8.88,0.07" style="fill:none;stroke:#999;stroke-width:3" />
<path d="M816.47,36.76c0.89,0.89,1.1,2.12,1.1,3.36c0,3.96-0.04,11.63-0.06,17c-0.01,1.58-0.01,2.97-0.01,4" style="fill:none;stroke:#999;stroke-width:3" />
<path d="M813.25,44.73c0,1-1.44,2.01-2.84,3.14c-7.61,6.11-19.17,11.77-32.16,15.62" style="fill:none;stroke:#999;stroke-width:3" />
<path d="M821.0,45.25c5.48,3.01,16.75,7.98,24.73,10.93c2.98,1.1,6.09,2.35,9.27,2.74" style="fill:none;stroke:black;stroke-width:3" />
<circle cx="821.0" cy="45.25" r="5" stroke-width="0" fill="#FF2A00" opacity="0.7" />
<path d="M893.25,23.27c2.08,0.85,4.95,0.78,7.14,0.53c15.86-1.8,39.27-3.51,53.35-3.96c2.69-0.09,5.37,0.05,8,0.69" style="fill:none;stroke:#999;stroke-width:3" />
<path d="M910.5,11.5c0.88,0.88,1.35,2.11,1.5,3c1,5.75,2,11.5,2.5,14.5" style="fill:none;stroke:#999;stroke-width:3" />
<path d="M941.88,10.75c0.29,1.28,0.27,2.24,0.01,3.53c-1.11,5.62-1.77,8.35-2.89,12.97" style="fill:none;stroke:#999;stroke-width:3" />
<path d="M934.52,28.75c-0.14,1.12-1.21,1.74-1.8,2.05c-3.89,2.08-14.14,5.41-27.47,7.56" style="fill:none;stroke:#999;stroke-width:3" />
<path d="M892.0,46.06c3.18,0.62,6.8,0.38,9.99-0.07c12.38-1.74,36.59-3.79,52.13-4.6c2.98-0.16,5.91-0.28,8.88,0.07" style="fill:none;stroke:#999;stroke-width:3" />
<path d="M925.47,36.76c0.89,0.89,1.1,2.12,1.1,3.36c0,3.96-0.04,11.63-0.06,17c-0.01,1.58-0.01,2.97-0.01,4" style="fill:none;stroke:#999;stroke-width:3" />
<path d="M922.25,44.73c0,1-1.44,2.01-2.84,3.14c-7.61,6.11-19.17,11.77-32.16,15.62" style="fill:none;stroke:#999;stroke-width:3" />
<path d="M930.0,45.25c5.48,3.01,16.75,7.98,24.73,10.93c2.98,1.1,6.09,2.35,9.27,2.74" style="fill:none;stroke:#999;stroke-width:3" />
<path d="M921.34,62.06c0.2,1.5-0.13,3.04-0.87,4.36c-3.21,5.63-6.1,10.01-10.24,14.9c-1.85,2.18-1.98,3.45,1.03,3.65c11.87,0.78,22.87,3.53,32.37,7.94c3.49,1.62,6.49,3.58,8.88,5.61" style="fill:none;stroke:black;stroke-width:3" />
<circle cx="921.34" cy="62.06" r="5" stroke-width="0" fill="#FF2A00" opacity="0.7" />
<path d="M1002.25,23.27c2.08,0.85,4.95,0.78,7.14,0.53c15.86-1.8,39.27-3.51,53.35-3.96c2.69-0.09,5.37,0.05,8,0.69" style="fill:none;stroke:#999;stroke-width:3" />
<path d="M1019.5,11.5c0.88,0.88,1.35,2.11,1.5,3c1,5.75,2,11.5,2.5,14.5" style="fill:none;stroke:#999;stroke-width:3" />
<path d="M1050.88,10.75c0.29,1.28,0.27,2.24,0.01,3.53c-1.11,5.62-1.77,8.35-2.89,12.97" style="fill:none;stroke:#999;stroke-width:3" />
<path d="M1043.52,28.75c-0.14,1.12-1.21,1.74-1.8,2.05c-3.89,2.08-14.14,5.41-27.47,7.56" style="fill:none;stroke:#999;stroke-width:3" />
<path d="M1001.0,46.06c3.18,0.62,6.8,0.38,9.99-0.07c12.38-1.74,36.59-3.79,52.13-4.6c2.98-0.16,5.91-0.28,8.88,0.07" style="fill:none;stroke:#999;stroke-width:3" />
<path d="M1034.47,36.76c0.89,0.89,1.1,2.12,1.1,3.36c0,3.96-0.04,11.63-0.06,17c-0.01,1.58-0.01,2.97-0.01,4" style="fill:none;stroke:#999;stroke-width:3" />
<path d="M1031.25,44.73c0,1-1.44,2.01-2.84,3.14c-7.61,6.11-19.17,11.77-32.16,15.62" style="fill:none;stroke:#999;stroke-width:3" />
<path d="M1039.0,45.25c5.48,3.01,16.75,7.98,24.73,10.93c2.98,1.1,6.09,2.35,9.27,2.74" style="fill:none;stroke:#999;stroke-width:3" />
<path d="M1030.3400000000001,62.06c0.2,1.5-0.13,3.04-0.87,4.36c-3.21,5.63-6.1,10.01-10.24,14.9c-1.85,2.18-1.98,3.45,1.03,3.65c11.87,0.78,22.87,3.53,32.37,7.94c3.49,1.62,6.49,3.58,8.88,5.61" style="fill:none;stroke:#999;stroke-width:3" />
<path d="M1049.26,68.33c0.24,1.29-0.07,2.53-0.5,3.63C1045.12,81.12 1034.25,94 1006.25,99.75" style="fill:none;stroke:black;stroke-width:3" />
<circle cx="1049.26" cy="68.33" r="5" stroke-width="0" fill="#FF2A00" opacity="0.7" />
<path d="M1111.25,23.27c2.08,0.85,4.95,0.78,7.14,0.53c15.86-1.8,39.27-3.51,53.35-3.96c2.69-0.09,5.37,0.05,8,0.69" style="fill:none;stroke:#999;stroke-width:3" />
<path d="M1128.5,11.5c0.88,0.88,1.35,2.11,1.5,3c1,5.75,2,11.5,2.5,14.5" style="fill:none;stroke:#999;stroke-width:3" />
<path d="M1159.88,10.75c0.29,1.28,0.27,2.24,0.01,3.53c-1.11,5.62-1.77,8.35-2.89,12.97" style="fill:none;stroke:#999;stroke-width:3" />
<path d="M1152.52,28.75c-0.14,1.12-1.21,1.74-1.8,2.05c-3.89,2.08-14.14,5.41-27.47,7.56" style="fill:none;stroke:#999;stroke-width:3" />
<path d="M1110.0,46.06c3.18,0.62,6.8,0.38,9.99-0.07c12.38-1.74,36.59-3.79,52.13-4.6c2.98-0.16,5.91-0.28,8.88,0.07" style="fill:none;stroke:#999;stroke-width:3" />
<path d="M1143.47,36.76c0.89,0.89,1.1,2.12,1.1,3.36c0,3.96-0.04,11.63-0.06,17c-0.01,1.58-0.01,2.97-0.01,4" style="fill:none;stroke:#999;stroke-width:3" />
<path d="M1140.25,44.73c0,1-1.44,2.01-2.84,3.14c-7.61,6.11-19.17,11.77-32.16,15.62" style="fill:none;stroke:#999;stroke-width:3" />
<path d="M1148.0,45.25c5.48,3.01,16.75,7.98,24.73,10.93c2.98,1.1,6.09,2.35,9.27,2.74" style="fill:none;stroke:#999;stroke-width:3" />
<path d="M1139.3400000000001,62.06c0.2,1.5-0.13,3.04-0.87,4.36c-3.21,5.63-6.1,10.01-10.24,14.9c-1.85,2.18-1.98,3.45,1.03,3.65c11.87,0.78,22.87,3.53,32.37,7.94c3.49,1.62,6.49,3.58,8.88,5.61" style="fill:none;stroke:#999;stroke-width:3" />
<path d="M1158.26,68.33c0.24,1.29-0.07,2.53-0.5,3.63C1154.12,81.12 1143.25,94 1115.25,99.75" style="fill:none;stroke:#999;stroke-width:3" />
<path d="M1108.88,73.38c2.54,0.84,5.92,0.6,8.5,0.3c16.5-1.93,40.08-4.16,56.5-4.61c2.89-0.08,6.38-0.44,9.12,0.74" style="fill:none;stroke:black;stroke-width:3" />
<circle cx="1108.88" cy="73.38" r="5" stroke-width="0" fill="#FF2A00" opacity="0.7" />
</svg>