<!-- 0846e -->
<svg width="1308px" height="109px" viewBox="0 0 1308px 109px" xmlns="http://www.w3.org/2000/svg" xmlns:xlink="http://www.w3.org/1999/xlink" xml:space="preserve" version="1.1"  baseProfile="full">
<line x1="1" y1="1" x2="1307" y2="1" style="stroke:#ddd;stroke-width:2" />
<line x1="1" y1="1" x2="1" y2="108" style="stroke:#ddd;stroke-width:2" />
<line x1="1" y1="108" x2="1307" y2="108" style="stroke:#ddd;stroke-width:2" />
<line x1="1307" y1="1" x2="1307" y2="108" style="stroke:#ddd;stroke-width:2" />
<line x1="109" y1="1" x2="109" y2="108" style="stroke:#ddd;stroke-width:2" />
<line x1="218" y1="1" x2="218" y2="108" style="stroke:#ddd;stroke-width:2" />
<line x1="327" y1="1" x2="327" y2="108" style="stroke:#ddd;stroke-width:2" />
<line x1="436" y1="1" x2="436" y2="108" style="stroke:#ddd;stroke-width:2" />
<line x1="545" y1="1" x2="545" y2="108" style="stroke:#ddd;stroke-width:2" />
<line x1="654" y1="1" x2="654" y2="108" style="stroke:#ddd;stroke-width:2" />
<line x1="763" y1="1" x2="763" y2="108" style="stroke:#ddd;stroke-width:2" />
<line x1="872" y1="1" x2="872" y2="108" style="stroke:#ddd;stroke-width:2" />
<line x1="981" y1="1" x2="981" y2="108" style="stroke:#ddd;stroke-width:2" />
<line x1="1090" y1="1" x2="1090" y2="108" style="stroke:#ddd;stroke-width:2" />
<line x1="1199" y1="1" x2="1199" y2="108" style="stroke:#ddd;stroke-width:2" />
<line x1="1" y1="54" x2="1307" y2="54" style="stroke:#ddd;stroke-width:2;stroke-dasharray:3 3" />
<line x1="55" y1="1" x2="55" y2="108" style="stroke:#ddd;stroke-width:2;stroke-dasharray:3 3" />
<line x1="164" y1="1" x2="164" y2="108" style="stroke:#ddd;stroke-width:2;stroke-dasharray:3 3" />
<line x1="273" y1="1" x2="273" y2="108" style="stroke:#ddd;stroke-width:2;stroke-dasharray:3 3" />
<line x1="382" y1="1" x2="382" y2="108" style="stroke:#ddd;stroke-width:2;stroke-dasharray:3 3" />
<line x1="491" y1="1" x2="491" y2="108" style="stroke:#ddd;stroke-width:2;stroke-dasharray:3 3" />
<line x1="600" y1="1" x2="600" y2="108" style="stroke:#ddd;stroke-width:2;stroke-dasharray:3 3" />
<line x1="709" y1="1" x2="709" y2="108" style="stroke:#ddd;stroke-width:2;stroke-dasharray:3 3" />
<line x1="818" y1="1" x2="818" y2="108" style="stroke:#ddd;stroke-width:2;stroke-dasharray:3 3" />
<line x1="927" y1="1" x2="927" y2="108" style="stroke:#ddd;stroke-width:2;stroke-dasharray:3 3" />
<line x1="1036" y1="1" x2="1036" y2="108" style="stroke:#ddd;stroke-width:2;stroke-dasharray:3 3" />
<line x1="1145" y1="1" x2="1145" y2="108" style="stroke:#ddd;stroke-width:2;stroke-dasharray:3 3" />
<line x1="1254" y1="1" x2="1254" y2="108" style="stroke:#ddd;stroke-width:2;stroke-dasharray:3 3" />
<path d="M17.33,22c1.29,0.53,4.42,1.25,7.33,1.17c11.94-0.34,45.95-2.97,59.67-3.33c3.17-0.08,6.92,0.4,8,0.67" style="fill:none;stroke:black;stroke-width:3" />
<circle cx="17.33" cy="22.0" r="5" stroke-width="0" fill="#FF2A00" opacity="0.7" />
<path d="M126.33,22c1.29,0.53,4.42,1.25,7.33,1.17c11.94-0.34,45.95-2.97,59.67-3.33c3.17-0.08,6.92,0.4,8,0.67" style="fill:none;stroke:#999;stroke-width:3" />
<path d="M144.17000000000002,11.17C146.0,11.75 146.85,12.75 147.0,13.5c1.5,7.33,2.33,13,2.5,15.83" style="fill:none;stroke:black;stroke-width:3" />
<circle cx="144.17000000000002" cy="11.17" r="5" stroke-width="0" fill="#FF2A00" opacity="0.7" />
<path d="M235.32999999999998,22c1.29,0.53,4.42,1.25,7.33,1.17c11.94-0.34,45.95-2.97,59.67-3.33c3.17-0.08,6.92,0.4,8,0.67" style="fill:none;stroke:#999;stroke-width:3" />
<path d="M253.17000000000002,11.17C255.0,11.75 255.85,12.75 256.0,13.5c1.5,7.33,2.33,13,2.5,15.83" style="fill:none;stroke:#999;stroke-width:3" />
<path d="M284.17,9.83c1.67,0.67,2.2,2.36,1.83,3.83c-1.12,4.5-2.04,10.42-3.67,16.17" style="fill:none;stroke:black;stroke-width:3" />
<circle cx="284.17" cy="9.83" r="5" stroke-width="0" fill="#FF2A00" opacity="0.7" />
<path d="M344.33,22c1.29,0.53,4.42,1.25,7.33,1.17c11.94-0.34,45.95-2.97,59.67-3.33c3.17-0.08,6.92,0.4,8,0.67" style="fill:none;stroke:#999;stroke-width:3" />
<path d="M362.17,11.17C364.0,11.75 364.85,12.75 365.0,13.5c1.5,7.33,2.33,13,2.5,15.83" style="fill:none;stroke:#999;stroke-width:3" />
<path d="M393.17,9.83c1.67,0.67,2.2,2.36,1.83,3.83c-1.12,4.5-2.04,10.42-3.67,16.17" style="fill:none;stroke:#999;stroke-width:3" />
<path d="M371.85,34.17c0.05,0.27,0.19,0.78-0.1,1.08c-3.63,3.79-9,7.28-18.46,10.34" style="fill:none;stroke:black;stroke-width:3" />
<circle cx="371.85" cy="34.17" r="5" stroke-width="0" fill="#FF2A00" opacity="0.7" />
<path d="M453.33,22c1.29,0.53,4.42,1.25,7.33,1.17c11.94-0.34,45.95-2.97,59.67-3.33c3.17-0.08,6.92,0.4,8,0.67" style="fill:none;stroke:#999;stroke-width:3" />
<path d="M471.17,11.17C473.0,11.75 473.85,12.75 474.0,13.5c1.5,7.33,2.33,13,2.5,15.83" style="fill:none;stroke:#999;stroke-width:3" />
<path d="M502.17,9.83c1.67,0.67,2.2,2.36,1.83,3.83c-1.12,4.5-2.04,10.42-3.67,16.17" style="fill:none;stroke:#999;stroke-width:3" />
<path d="M480.85,34.17c0.05,0.27,0.19,0.78-0.1,1.08c-3.63,3.79-9,7.28-18.46,10.34" style="fill:none;stroke:#999;stroke-width:3" />
<path d="M459.11,44.2c1.02,0.43,1.64,1.93,1.84,2.79c0.2,0.86,0.25,47.49,0.05,52.85" style="fill:none;stroke:black;stroke-width:3" />
<circle cx="459.11" cy="44.2" r="5" stroke-width="0" fill="#FF2A00" opacity="0.7" />
<path d="M562.3299999999999,22c1.29,0.53,4.42,1.25,7.33,1.17c11.94-0.34,45.95-2.97,59.67-3.33c3.17-0.08,6.92,0.4,8,0.67" style="fill:none;stroke:#999;stroke-width:3" />
<path d="M580.1700000000001,11.17C582.0,11.75 582.85,12.75 583.0,13.5c1.5,7.33,2.33,13,2.5,15.83" style="fill:none;stroke:#999;stroke-width:3" />
<path d="M611.1700000000001,9.83c1.67,0.67,2.2,2.36,1.83,3.83c-1.12,4.5-2.04,10.42-3.67,16.17" style="fill:none;stroke:#999;stroke-width:3" />
<path d="M589.85,34.17c0.05,0.27,0.19,0.78-0.1,1.08c-3.63,3.79-9,7.28-18.46,10.34" style="fill:none;stroke:#999;stroke-width:3" />
<path d="M568.11,44.2c1.02,0.43,1.64,1.93,1.84,2.79c0.2,0.86,0.25,47.49,0.05,52.85" style="fill:none;stroke:#999;stroke-width:3" />
<path d="M571.15,53.83c6.14-0.66,15.46-2.53,16.59-2.63c1.27-0.11,3.29-0.09,4.43,0.13" style="fill:none;stroke:black;stroke-width:3" />
<circle cx="571.15" cy="53.83" r="5" stroke-width="0" fill="#FF2A00" opacity="0.7" />
<path d="M671.3299999999999,22c1.29,0.53,4.42,1.25,7.33,1.17c11.94-0.34,45.95-2.97,59.67-3.33c3.17-0.08,6.92,0.4,8,0.67" style="fill:none;stroke:#999;stroke-width:3" />
<path d="M689.1700000000001,11.17C691.0,11.75 691.85,12.75 692.0,13.5c1.5,7.33,2.33,13,2.5,15.83" style="fill:none;stroke:#999;stroke-width:3" />
<path d="M720.1700000000001,9.83c1.67,0.67,2.2,2.36,1.83,3.83c-1.12,4.5-2.04,10.42-3.67,16.17" style="fill:none;stroke:#999;stroke-width:3" />
<path d="M698.85,34.17c0.05,0.27,0.19,0.78-0.1,1.08c-3.63,3.79-9,7.28-18.46,10.34" style="fill:none;stroke:#999;stroke-width:3" />
<path d="M677.11,44.2c1.02,0.43,1.64,1.93,1.84,2.79c0.2,0.86,0.25,47.49,0.05,52.85" style="fill:none;stroke:#999;stroke-width:3" />
<path d="M680.15,53.83c6.14-0.66,15.46-2.53,16.59-2.63c1.27-0.11,3.29-0.09,4.43,0.13" style="fill:none;stroke:#999;stroke-width:3" />
<path d="M679.85,66.34c5.91-0.64,16.2-2.46,17.29-2.56c1.23-0.11,3.27,0,4.36,0.22" style="fill:none;stroke:black;stroke-width:3" />
<circle cx="679.85" cy="66.34" r="5" stroke-width="0" fill="#FF2A00" opacity="0.7" />
<path d="M780.3299999999999,22c1.29,0.53,4.42,1.25,7.33,1.17c11.94-0.34,45.95-2.97,59.67-3.33c3.17-0.08,6.92,0.4,8,0.67" style="fill:none;stroke:#999;stroke-width:3" />
<path d="M798.1700000000001,11.17C800.0,11.75 800.85,12.75 801.0,13.5c1.5,7.33,2.33,13,2.5,15.83" style="fill:none;stroke:#999;stroke-width:3" />
<path d="M829.1700000000001,9.83c1.67,0.67,2.2,2.36,1.83,3.83c-1.12,4.5-2.04,10.42-3.67,16.17" style="fill:none;stroke:#999;stroke-width:3" />
<path d="M807.85,34.17c0.05,0.27,0.19,0.78-0.1,1.08c-3.63,3.79-9,7.28-18.46,10.34" style="fill:none;stroke:#999;stroke-width:3" />
<path d="M786.11,44.2c1.02,0.43,1.64,1.93,1.84,2.79c0.2,0.86,0.25,47.49,0.05,52.85" style="fill:none;stroke:#999;stroke-width:3" />
<path d="M789.15,53.83c6.14-0.66,15.46-2.53,16.59-2.63c1.27-0.11,3.29-0.09,4.43,0.13" style="fill:none;stroke:#999;stroke-width:3" />
<path d="M788.85,66.34c5.91-0.64,16.2-2.46,17.29-2.56c1.23-0.11,3.27,0,4.36,0.22" style="fill:none;stroke:#999;stroke-width:3" />
<path d="M778.0,82.5c1.17,0.94,2.84,1.3,5,0.67c1.27-0.38,23.98-7.79,29.39-9.59" style="fill:none;stroke:black;stroke-width:3" />
<circle cx="778.0" cy="82.5" r="5" stroke-width="0" fill="#FF2A00" opacity="0.7" />
<path d="M889.3299999999999,22c1.29,0.53,4.42,1.25,7.33,1.17c11.94-0.34,45.95-2.97,59.67-3.33c3.17-0.08,6.92,0.4,8,0.67" style="fill:none;stroke:#999;stroke-width:3" />
<path d="M907.1700000000001,11.17C909.0,11.75 909.85,12.75 910.0,13.5c1.5,7.33,2.33,13,2.5,15.83" style="fill:none;stroke:#999;stroke-width:3" />
<path d="M938.1700000000001,9.83c1.67,0.67,2.2,2.36,1.83,3.83c-1.12,4.5-2.04,10.42-3.67,16.17" style="fill:none;stroke:#999;stroke-width:3" />
<path d="M916.85,34.17c0.05,0.27,0.19,0.78-0.1,1.08c-3.63,3.79-9,7.28-18.46,10.34" style="fill:none;stroke:#999;stroke-width:3" />
<path d="M895.11,44.2c1.02,0.43,1.64,1.93,1.84,2.79c0.2,0.86,0.25,47.49,0.05,52.85" style="fill:none;stroke:#999;stroke-width:3" />
<path d="M898.15,53.83c6.14-0.66,15.46-2.53,16.59-2.63c1.27-0.11,3.29-0.09,4.43,0.13" style="fill:none;stroke:#999;stroke-width:3" />
<path d="M897.85,66.34c5.91-0.64,16.2-2.46,17.29-2.56c1.23-0.11,3.27,0,4.36,0.22" style="fill:none;stroke:#999;stroke-width:3" />
<path d="M887.0,82.5c1.17,0.94,2.84,1.3,5,0.67c1.27-0.38,23.98-7.79,29.39-9.59" style="fill:none;stroke:#999;stroke-width:3" />
<path d="M930.98,33c0.5,0.44,0.53,1.53,0.52,2.26c-0.13,7.54-1.9,16.46-6.02,19.63" style="fill:none;stroke:black;stroke-width:3" />
<circle cx="930.98" cy="33.0" r="5" stroke-width="0" fill="#FF2A00" opacity="0.7" />
<path d="M998.3299999999999,22c1.29,0.53,4.42,1.25,7.33,1.17c11.94-0.34,45.95-2.97,59.67-3.33c3.17-0.08,6.92,0.4,8,0.67" style="fill:none;stroke:#999;stroke-width:3" />
<path d="M1016.1700000000001,11.17C1018.0,11.75 1018.85,12.75 1019.0,13.5c1.5,7.33,2.33,13,2.5,15.83" style="fill:none;stroke:#999;stroke-width:3" />
<path d="M1047.17,9.83c1.67,0.67,2.2,2.36,1.83,3.83c-1.12,4.5-2.04,10.42-3.67,16.17" style="fill:none;stroke:#999;stroke-width:3" />
<path d="M1025.85,34.17c0.05,0.27,0.19,0.78-0.1,1.08c-3.63,3.79-9,7.28-18.46,10.34" style="fill:none;stroke:#999;stroke-width:3" />
<path d="M1004.11,44.2c1.02,0.43,1.64,1.93,1.84,2.79c0.2,0.86,0.25,47.49,0.05,52.85" style="fill:none;stroke:#999;stroke-width:3" />
<path d="M1007.15,53.83c6.14-0.66,15.46-2.53,16.59-2.63c1.27-0.11,3.29-0.09,4.43,0.13" style="fill:none;stroke:#999;stroke-width:3" />
<path d="M1006.85,66.34c5.91-0.64,16.2-2.46,17.29-2.56c1.23-0.11,3.27,0,4.36,0.22" style="fill:none;stroke:#999;stroke-width:3" />
<path d="M996.0,82.5c1.17,0.94,2.84,1.3,5,0.67c1.27-0.38,23.98-7.79,29.39-9.59" style="fill:none;stroke:#999;stroke-width:3" />
<path d="M1039.98,33c0.5,0.44,0.53,1.53,0.52,2.26c-0.13,7.54-1.9,16.46-6.02,19.63" style="fill:none;stroke:#999;stroke-width:3" />
<path d="M1040.83,35.17c2.99-0.21,11.92-2,14.54-2.25c2.1-0.2,2.53,0.76,2.31,2.26c-0.38,2.6-1.54,6.99-1.54,9.59c0,3.6,0.11,6.07,9.53,6.07c7.58,0,9-1.08,9-8.5" style="fill:none;stroke:black;stroke-width:3" />
<circle cx="1040.83" cy="35.17" r="5" stroke-width="0" fill="#FF2A00" opacity="0.7" />
<path d="M1107.33,22c1.29,0.53,4.42,1.25,7.33,1.17c11.94-0.34,45.95-2.97,59.67-3.33c3.17-0.08,6.92,0.4,8,0.67" style="fill:none;stroke:#999;stroke-width:3" />
<path d="M1125.17,11.17C1127.0,11.75 1127.85,12.75 1128.0,13.5c1.5,7.33,2.33,13,2.5,15.83" style="fill:none;stroke:#999;stroke-width:3" />
<path d="M1156.17,9.83c1.67,0.67,2.2,2.36,1.83,3.83c-1.12,4.5-2.04,10.42-3.67,16.17" style="fill:none;stroke:#999;stroke-width:3" />
<path d="M1134.85,34.17c0.05,0.27,0.19,0.78-0.1,1.08c-3.63,3.79-9,7.28-18.46,10.34" style="fill:none;stroke:#999;stroke-width:3" />
<path d="M1113.1100000000001,44.2c1.02,0.43,1.64,1.93,1.84,2.79c0.2,0.86,0.25,47.49,0.05,52.85" style="fill:none;stroke:#999;stroke-width:3" />
<path d="M1116.15,53.83c6.14-0.66,15.46-2.53,16.59-2.63c1.27-0.11,3.29-0.09,4.43,0.13" style="fill:none;stroke:#999;stroke-width:3" />
<path d="M1115.85,66.34c5.91-0.64,16.2-2.46,17.29-2.56c1.23-0.11,3.27,0,4.36,0.22" style="fill:none;stroke:#999;stroke-width:3" />
<path d="M1105.0,82.5c1.17,0.94,2.84,1.3,5,0.67c1.27-0.38,23.98-7.79,29.39-9.59" style="fill:none;stroke:#999;stroke-width:3" />
<path d="M1148.98,33c0.5,0.44,0.53,1.53,0.52,2.26c-0.13,7.54-1.9,16.46-6.02,19.63" style="fill:none;stroke:#999;stroke-width:3" />
<path d="M1149.83,35.17c2.99-0.21,11.92-2,14.54-2.25c2.1-0.2,2.53,0.76,2.31,2.26c-0.38,2.6-1.54,6.99-1.54,9.59c0,3.6,0.11,6.07,9.53,6.07c7.58,0,9-1.08,9-8.5" style="fill:none;stroke:#999;stroke-width:3" />
<path d="M1145.33,61c2.17,0.83,3.29,0.98,6.5,0.5c3.21-0.48,15.46-3.02,17.67-3.5c2.21-0.48,3.4,1.2,2.58,2.92C1164.0,78.11 1150.03,90.04 1132.1,97.33" style="fill:none;stroke:black;stroke-width:3" />
<circle cx="1145.33" cy="61.0" r="5" stroke-width="0" fill="#FF2A00" opacity="0.7" />
<path d="M1216.33,22c1.29,0.53,4.42,1.25,7.33,1.17c11.94-0.34,45.95-2.97,59.67-3.33c3.17-0.08,6.92,0.4,8,0.67" style="fill:none;stroke:#999;stroke-width:3" />
<path d="M1234.17,11.17C1236.0,11.75 1236.85,12.75 1237.0,13.5c1.5,7.33,2.33,13,2.5,15.83" style="fill:none;stroke:#999;stroke-width:3" />
<path d="M1265.17,9.83c1.67,0.67,2.2,2.36,1.83,3.83c-1.12,4.5-2.04,10.42-3.67,16.17" style="fill:none;stroke:#999;stroke-width:3" />
<path d="M1243.85,34.17c0.05,0.27,0.19,0.78-0.1,1.08c-3.63,3.79-9,7.28-18.46,10.34" style="fill:none;stroke:#999;stroke-width:3" />
<path d="M1222.1100000000001,44.2c1.02,0.43,1.64,1.93,1.84,2.79c0.2,0.86,0.25,47.49,0.05,52.85" style="fill:none;stroke:#999;stroke-width:3" />
<path d="M1225.15,53.83c6.14-0.66,15.46-2.53,16.59-2.63c1.27-0.11,3.29-0.09,4.43,0.13" style="fill:none;stroke:#999;stroke-width:3" />
<path d="M1224.85,66.34c5.91-0.64,16.2-2.46,17.29-2.56c1.23-0.11,3.27,0,4.36,0.22" style="fill:none;stroke:#999;stroke-width:3" />
<path d="M1214.0,82.5c1.17,0.94,2.84,1.3,5,0.67c1.27-0.38,23.98-7.79,29.39-9.59" style="fill:none;stroke:#999;stroke-width:3" />
<path d="M1257.98,33c0.5,0.44,0.53,1.53,0.52,2.26c-0.13,7.54-1.9,16.46-6.02,19.63" style="fill:none;stroke:#999;stroke-width:3" />
<path d="M1258.83,35.17c2.99-0.21,11.92-2,14.54-2.25c2.1-0.2,2.53,0.76,2.31,2.26c-0.38,2.6-1.54,6.99-1.54,9.59c0,3.6,0.11,6.07,9.53,6.07c7.58,0,9-1.08,9-8.5" style="fill:none;stroke:#999;stroke-width:3" />
<path d="M1254.33,61c2.17,0.83,3.29,0.98,6.5,0.5c3.21-0.48,15.46-3.02,17.67-3.5c2.21-0.48,3.4,1.2,2.58,2.92C1273.0,78.11 1259.03,90.04 1241.1,97.33" style="fill:none;stroke:#999;stroke-width:3" />
<path d="M1253.83,66.12c3.51,0.75,20.64,20.72,32.84,28.91c1.9,1.27,3.29,2.12,5.06,2.55" style="fill:none;stroke:black;stroke-width:3" />
<circle cx="1253.83" cy="66.12" r="5" stroke-width="0" fill="#FF2A00" opacity="0.7" />
</svg>