<!-- 0847a -->
<svg width="1308px" height="109px" viewBox="0 0 1308px 109px" xmlns="http://www.w3.org/2000/svg" xmlns:xlink="http://www.w3.org/1999/xlink" xml:space="preserve" version="1.1"  baseProfile="full">
<line x1="1" y1="1" x2="1307" y2="1" style="stroke:#ddd;stroke-width:2" />
<line x1="1" y1="1" x2="1" y2="108" style="stroke:#ddd;stroke-width:2" />
<line x1="1" y1="108" x2="1307" y2="108" style="stroke:#ddd;stroke-width:2" />
<line x1="1307" y1="1" x2="1307" y2="108" style="stroke:#ddd;stroke-width:2" />
<line x1="109" y1="1" x2="109" y2="108" style="stroke:#ddd;stroke-width:2" />
<line x1="218" y1="1" x2="218" y2="108" style="stroke:#ddd;stroke-width:2" />
<line x1="327" y1="1" x2="327" y2="108" style="stroke:#ddd;stroke-width:2" />
<line x1="436" y1="1" x2="436" y2="108" style="stroke:#ddd;stroke-width:2" />
<line x1="545" y1="1" x2="545" y2="108" style="stroke:#ddd;stroke-width:2" />
<line x1="654" y1="1" x2="654" y2="108" style="stroke:#ddd;stroke-width:2" />
<line x1="763" y1="1" x2="763" y2="108" style="stroke:#ddd;stroke-width:2" />
<line x1="872" y1="1" x2="872" y2="108" style="stroke:#ddd;stroke-width:2" />
<line x1="981" y1="1" x2="981" y2="108" style="stroke:#ddd;stroke-width:2" />
<line x1="1090" y1="1" x2="1090" y2="108" style="stroke:#ddd;stroke-width:2" />
<line x1="1199" y1="1" x2="1199" y2="108" style="stroke:#ddd;stroke-width:2" />
<line x1="1" y1="54" x2="1307" y2="54" style="stroke:#ddd;stroke-width:2;stroke-dasharray:3 3" />
<line x1="55" y1="1" x2="55" y2="108" style="stroke:#ddd;stroke-width:2;stroke-dasharray:3 3" />
<line x1="164" y1="1" x2="164" y2="108" style="stroke:#ddd;stroke-width:2;stroke-dasharray:3 3" />
<line x1="273" y1="1" x2="273" y2="108" style="stroke:#ddd;stroke-width:2;stroke-dasharray:3 3" />
<line x1="382" y1="1" x2="382" y2="108" style="stroke:#ddd;stroke-width:2;stroke-dasharray:3 3" />
<line x1="491" y1="1" x2="491" y2="108" style="stroke:#ddd;stroke-width:2;stroke-dasharray:3 3" />
<line x1="600" y1="1" x2="600" y2="108" style="stroke:#ddd;stroke-width:2;stroke-dasharray:3 3" />
<line x1="709" y1="1" x2="709" y2="108" style="stroke:#ddd;stroke-width:2;stroke-dasharray:3 3" />
<line x1="818" y1="1" x2="818" y2="108" style="stroke:#ddd;stroke-width:2;stroke-dasharray:3 3" />
<line x1="927" y1="1" x2="927" y2="108" style="stroke:#ddd;stroke-width:2;stroke-dasharray:3 3" />
<line x1="1036" y1="1" x2="1036" y2="108" style="stroke:#ddd;stroke-width:2;stroke-dasharray:3 3" />
<line x1="1145" y1="1" x2="1145" y2="108" style="stroke:#ddd;stroke-width:2;stroke-dasharray:3 3" />
<line x1="1254" y1="1" x2="1254" y2="108" style="stroke:#ddd;stroke-width:2;stroke-dasharray:3 3" />
<path d="M18.5,21.27c1.29,0.53,2.8,0.63,4.1,0.53c11.9-0.96,47.9-3.96,61.62-4.03c2.16-0.01,3.45,0.25,4.53,0.51" style="fill:none;stroke:black;stroke-width:3" />
<circle cx="18.5" cy="21.27" r="5" stroke-width="0" fill="#FF2A00" opacity="0.7" />
<path d="M127.5,21.27c1.29,0.53,2.8,0.63,4.1,0.53c11.9-0.96,47.9-3.96,61.62-4.03c2.16-0.01,3.45,0.25,4.53,0.51" style="fill:none;stroke:#999;stroke-width:3" />
<path d="M146.25,11.5c1.75,1.43,2.31,1.87,2.5,2.75C150.5,22.5 150.0,24 150.5,27" style="fill:none;stroke:black;stroke-width:3" />
<circle cx="146.25" cy="11.5" r="5" stroke-width="0" fill="#FF2A00" opacity="0.7" />
<path d="M236.5,21.27c1.29,0.53,2.8,0.63,4.1,0.53c11.9-0.96,47.9-3.96,61.62-4.03c2.16-0.01,3.45,0.25,4.53,0.51" style="fill:none;stroke:#999;stroke-width:3" />
<path d="M255.25,11.5c1.75,1.43,2.31,1.87,2.5,2.75C259.5,22.5 259.0,24 259.5,27" style="fill:none;stroke:#999;stroke-width:3" />
<path d="M284.75,9.25c1.12,1,1.87,2.52,1.5,4c-1.12,4.5-2.38,7-4,12.75" style="fill:none;stroke:black;stroke-width:3" />
<circle cx="284.75" cy="9.25" r="5" stroke-width="0" fill="#FF2A00" opacity="0.7" />
<path d="M345.5,21.27c1.29,0.53,2.8,0.63,4.1,0.53c11.9-0.96,47.9-3.96,61.62-4.03c2.16-0.01,3.45,0.25,4.53,0.51" style="fill:none;stroke:#999;stroke-width:3" />
<path d="M364.25,11.5c1.75,1.43,2.31,1.87,2.5,2.75C368.5,22.5 368.0,24 368.5,27" style="fill:none;stroke:#999;stroke-width:3" />
<path d="M393.75,9.25c1.12,1,1.87,2.52,1.5,4c-1.12,4.5-2.38,7-4,12.75" style="fill:none;stroke:#999;stroke-width:3" />
<path d="M359.31,31.84c0.55,0.23,1.18,0.37,1.35,0.69c1.58,2.96,2.38,8.78,3.69,12.78" style="fill:none;stroke:black;stroke-width:3" />
<circle cx="359.31" cy="31.84" r="5" stroke-width="0" fill="#FF2A00" opacity="0.7" />
<path d="M454.5,21.27c1.29,0.53,2.8,0.63,4.1,0.53c11.9-0.96,47.9-3.96,61.62-4.03c2.16-0.01,3.45,0.25,4.53,0.51" style="fill:none;stroke:#999;stroke-width:3" />
<path d="M473.25,11.5c1.75,1.43,2.31,1.87,2.5,2.75C477.5,22.5 477.0,24 477.5,27" style="fill:none;stroke:#999;stroke-width:3" />
<path d="M502.75,9.25c1.12,1,1.87,2.52,1.5,4c-1.12,4.5-2.38,7-4,12.75" style="fill:none;stroke:#999;stroke-width:3" />
<path d="M468.31,31.84c0.55,0.23,1.18,0.37,1.35,0.69c1.58,2.96,2.38,8.78,3.69,12.78" style="fill:none;stroke:#999;stroke-width:3" />
<path d="M470.44,33.75c11.24-1.16,28.68-3.2,35.12-3.24c1.44-0.01,2.75,1.63,2.43,2.26c-0.74,1.48-1.99,4.48-4.1,7.96" style="fill:none;stroke:black;stroke-width:3" />
<circle cx="470.44" cy="33.75" r="5" stroke-width="0" fill="#FF2A00" opacity="0.7" />
<path d="M563.5,21.27c1.29,0.53,2.8,0.63,4.1,0.53c11.9-0.96,47.9-3.96,61.62-4.03c2.16-0.01,3.45,0.25,4.53,0.51" style="fill:none;stroke:#999;stroke-width:3" />
<path d="M582.25,11.5c1.75,1.43,2.31,1.87,2.5,2.75C586.5,22.5 586.0,24 586.5,27" style="fill:none;stroke:#999;stroke-width:3" />
<path d="M611.75,9.25c1.12,1,1.87,2.52,1.5,4c-1.12,4.5-2.38,7-4,12.75" style="fill:none;stroke:#999;stroke-width:3" />
<path d="M577.31,31.84c0.55,0.23,1.18,0.37,1.35,0.69c1.58,2.96,2.38,8.78,3.69,12.78" style="fill:none;stroke:#999;stroke-width:3" />
<path d="M579.44,33.75c11.24-1.16,28.68-3.2,35.12-3.24c1.44-0.01,2.75,1.63,2.43,2.26c-0.74,1.48-1.99,4.48-4.1,7.96" style="fill:none;stroke:#999;stroke-width:3" />
<path d="M582.61,42.97c7.56-0.33,22.2-1.8,32.59-2.31" style="fill:none;stroke:black;stroke-width:3" />
<circle cx="582.61" cy="42.97" r="5" stroke-width="0" fill="#FF2A00" opacity="0.7" />
<path d="M672.5,21.27c1.29,0.53,2.8,0.63,4.1,0.53c11.9-0.96,47.9-3.96,61.62-4.03c2.16-0.01,3.45,0.25,4.53,0.51" style="fill:none;stroke:#999;stroke-width:3" />
<path d="M691.25,11.5c1.75,1.43,2.31,1.87,2.5,2.75C695.5,22.5 695.0,24 695.5,27" style="fill:none;stroke:#999;stroke-width:3" />
<path d="M720.75,9.25c1.12,1,1.87,2.52,1.5,4c-1.12,4.5-2.38,7-4,12.75" style="fill:none;stroke:#999;stroke-width:3" />
<path d="M686.31,31.84c0.55,0.23,1.18,0.37,1.35,0.69c1.58,2.96,2.38,8.78,3.69,12.78" style="fill:none;stroke:#999;stroke-width:3" />
<path d="M688.44,33.75c11.24-1.16,28.68-3.2,35.12-3.24c1.44-0.01,2.75,1.63,2.43,2.26c-0.74,1.48-1.99,4.48-4.1,7.96" style="fill:none;stroke:#999;stroke-width:3" />
<path d="M691.61,42.97c7.56-0.33,22.2-1.8,32.59-2.31" style="fill:none;stroke:#999;stroke-width:3" />
<path d="M678.05,52.62c1.5,0.29,4.26,0.37,5.77,0.29c14.23-0.77,28.8-4.14,49.17-4.47c2.5-0.04,4.01,0.14,5.26,0.28" style="fill:none;stroke:black;stroke-width:3" />
<circle cx="678.05" cy="52.62" r="5" stroke-width="0" fill="#FF2A00" opacity="0.7" />
<path d="M781.5,21.27c1.29,0.53,2.8,0.63,4.1,0.53c11.9-0.96,47.9-3.96,61.62-4.03c2.16-0.01,3.45,0.25,4.53,0.51" style="fill:none;stroke:#999;stroke-width:3" />
<path d="M800.25,11.5c1.75,1.43,2.31,1.87,2.5,2.75C804.5,22.5 804.0,24 804.5,27" style="fill:none;stroke:#999;stroke-width:3" />
<path d="M829.75,9.25c1.12,1,1.87,2.52,1.5,4c-1.12,4.5-2.38,7-4,12.75" style="fill:none;stroke:#999;stroke-width:3" />
<path d="M795.31,31.84c0.55,0.23,1.18,0.37,1.35,0.69c1.58,2.96,2.38,8.78,3.69,12.78" style="fill:none;stroke:#999;stroke-width:3" />
<path d="M797.44,33.75c11.24-1.16,28.68-3.2,35.12-3.24c1.44-0.01,2.75,1.63,2.43,2.26c-0.74,1.48-1.99,4.48-4.1,7.96" style="fill:none;stroke:#999;stroke-width:3" />
<path d="M800.61,42.97c7.56-0.33,22.2-1.8,32.59-2.31" style="fill:none;stroke:#999;stroke-width:3" />
<path d="M787.05,52.62c1.5,0.29,4.26,0.37,5.77,0.29c14.23-0.77,28.8-4.14,49.17-4.47c2.5-0.04,4.01,0.14,5.26,0.28" style="fill:none;stroke:#999;stroke-width:3" />
<path d="M799.58,53.28c0.88,0.53,1.96,2.42,1.96,3.36S801.3,83.41 801.3,86.78" style="fill:none;stroke:black;stroke-width:3" />
<circle cx="799.58" cy="53.28" r="5" stroke-width="0" fill="#FF2A00" opacity="0.7" />
<path d="M890.5,21.27c1.29,0.53,2.8,0.63,4.1,0.53c11.9-0.96,47.9-3.96,61.62-4.03c2.16-0.01,3.45,0.25,4.53,0.51" style="fill:none;stroke:#999;stroke-width:3" />
<path d="M909.25,11.5c1.75,1.43,2.31,1.87,2.5,2.75C913.5,22.5 913.0,24 913.5,27" style="fill:none;stroke:#999;stroke-width:3" />
<path d="M938.75,9.25c1.12,1,1.87,2.52,1.5,4c-1.12,4.5-2.38,7-4,12.75" style="fill:none;stroke:#999;stroke-width:3" />
<path d="M904.31,31.84c0.55,0.23,1.18,0.37,1.35,0.69c1.58,2.96,2.38,8.78,3.69,12.78" style="fill:none;stroke:#999;stroke-width:3" />
<path d="M906.44,33.75c11.24-1.16,28.68-3.2,35.12-3.24c1.44-0.01,2.75,1.63,2.43,2.26c-0.74,1.48-1.99,4.48-4.1,7.96" style="fill:none;stroke:#999;stroke-width:3" />
<path d="M909.61,42.97c7.56-0.33,22.2-1.8,32.59-2.31" style="fill:none;stroke:#999;stroke-width:3" />
<path d="M896.05,52.62c1.5,0.29,4.26,0.37,5.77,0.29c14.23-0.77,28.8-4.14,49.17-4.47c2.5-0.04,4.01,0.14,5.26,0.28" style="fill:none;stroke:#999;stroke-width:3" />
<path d="M908.58,53.28c0.88,0.53,1.96,2.42,1.96,3.36S910.3,83.41 910.3,86.78" style="fill:none;stroke:#999;stroke-width:3" />
<path d="M910.48,63.5c14.08-1.17,17.9-1.34,30.34-1.91" style="fill:none;stroke:black;stroke-width:3" />
<circle cx="910.48" cy="63.5" r="5" stroke-width="0" fill="#FF2A00" opacity="0.7" />
<path d="M999.5,21.27c1.29,0.53,2.8,0.63,4.1,0.53c11.9-0.96,47.9-3.96,61.62-4.03c2.16-0.01,3.45,0.25,4.53,0.51" style="fill:none;stroke:#999;stroke-width:3" />
<path d="M1018.25,11.5c1.75,1.43,2.31,1.87,2.5,2.75C1022.5,22.5 1022.0,24 1022.5,27" style="fill:none;stroke:#999;stroke-width:3" />
<path d="M1047.75,9.25c1.12,1,1.87,2.52,1.5,4c-1.12,4.5-2.38,7-4,12.75" style="fill:none;stroke:#999;stroke-width:3" />
<path d="M1013.31,31.84c0.55,0.23,1.18,0.37,1.35,0.69c1.58,2.96,2.38,8.78,3.69,12.78" style="fill:none;stroke:#999;stroke-width:3" />
<path d="M1015.44,33.75c11.24-1.16,28.68-3.2,35.12-3.24c1.44-0.01,2.75,1.63,2.43,2.26c-0.74,1.48-1.99,4.48-4.1,7.96" style="fill:none;stroke:#999;stroke-width:3" />
<path d="M1018.61,42.97c7.56-0.33,22.2-1.8,32.59-2.31" style="fill:none;stroke:#999;stroke-width:3" />
<path d="M1005.05,52.62c1.5,0.29,4.26,0.37,5.77,0.29c14.23-0.77,28.8-4.14,49.17-4.47c2.5-0.04,4.01,0.14,5.26,0.28" style="fill:none;stroke:#999;stroke-width:3" />
<path d="M1017.58,53.28c0.88,0.53,1.96,2.42,1.96,3.36S1019.3,83.41 1019.3,86.78" style="fill:none;stroke:#999;stroke-width:3" />
<path d="M1019.48,63.5c14.08-1.17,17.9-1.34,30.34-1.91" style="fill:none;stroke:#999;stroke-width:3" />
<path d="M1020.0,75.19c11.49-0.81,16.08-1.65,30.11-2.22" style="fill:none;stroke:black;stroke-width:3" />
<circle cx="1020.0" cy="75.19" r="5" stroke-width="0" fill="#FF2A00" opacity="0.7" />
<path d="M1108.5,21.27c1.29,0.53,2.8,0.63,4.1,0.53c11.9-0.96,47.9-3.96,61.62-4.03c2.16-0.01,3.45,0.25,4.53,0.51" style="fill:none;stroke:#999;stroke-width:3" />
<path d="M1127.25,11.5c1.75,1.43,2.31,1.87,2.5,2.75C1131.5,22.5 1131.0,24 1131.5,27" style="fill:none;stroke:#999;stroke-width:3" />
<path d="M1156.75,9.25c1.12,1,1.87,2.52,1.5,4c-1.12,4.5-2.38,7-4,12.75" style="fill:none;stroke:#999;stroke-width:3" />
<path d="M1122.31,31.84c0.55,0.23,1.18,0.37,1.35,0.69c1.58,2.96,2.38,8.78,3.69,12.78" style="fill:none;stroke:#999;stroke-width:3" />
<path d="M1124.44,33.75c11.24-1.16,28.68-3.2,35.12-3.24c1.44-0.01,2.75,1.63,2.43,2.26c-0.74,1.48-1.99,4.48-4.1,7.96" style="fill:none;stroke:#999;stroke-width:3" />
<path d="M1127.6100000000001,42.97c7.56-0.33,22.2-1.8,32.59-2.31" style="fill:none;stroke:#999;stroke-width:3" />
<path d="M1114.05,52.62c1.5,0.29,4.26,0.37,5.77,0.29c14.23-0.77,28.8-4.14,49.17-4.47c2.5-0.04,4.01,0.14,5.26,0.28" style="fill:none;stroke:#999;stroke-width:3" />
<path d="M1126.58,53.28c0.88,0.53,1.96,2.42,1.96,3.36S1128.3,83.41 1128.3,86.78" style="fill:none;stroke:#999;stroke-width:3" />
<path d="M1128.48,63.5c14.08-1.17,17.9-1.34,30.34-1.91" style="fill:none;stroke:#999;stroke-width:3" />
<path d="M1129.0,75.19c11.49-0.81,16.08-1.65,30.11-2.22" style="fill:none;stroke:#999;stroke-width:3" />
<path d="M1111.0,89.98c0.47,0.64,2.62,1.54,4.27,1.28C1121.9,90.19 1159.81,82.73 1170.0,81.03" style="fill:none;stroke:black;stroke-width:3" />
<circle cx="1111.0" cy="89.98" r="5" stroke-width="0" fill="#FF2A00" opacity="0.7" />
<path d="M1217.5,21.27c1.29,0.53,2.8,0.63,4.1,0.53c11.9-0.96,47.9-3.96,61.62-4.03c2.16-0.01,3.45,0.25,4.53,0.51" style="fill:none;stroke:#999;stroke-width:3" />
<path d="M1236.25,11.5c1.75,1.43,2.31,1.87,2.5,2.75C1240.5,22.5 1240.0,24 1240.5,27" style="fill:none;stroke:#999;stroke-width:3" />
<path d="M1265.75,9.25c1.12,1,1.87,2.52,1.5,4c-1.12,4.5-2.38,7-4,12.75" style="fill:none;stroke:#999;stroke-width:3" />
<path d="M1231.31,31.84c0.55,0.23,1.18,0.37,1.35,0.69c1.58,2.96,2.38,8.78,3.69,12.78" style="fill:none;stroke:#999;stroke-width:3" />
<path d="M1233.44,33.75c11.24-1.16,28.68-3.2,35.12-3.24c1.44-0.01,2.75,1.63,2.43,2.26c-0.74,1.48-1.99,4.48-4.1,7.96" style="fill:none;stroke:#999;stroke-width:3" />
<path d="M1236.6100000000001,42.97c7.56-0.33,22.2-1.8,32.59-2.31" style="fill:none;stroke:#999;stroke-width:3" />
<path d="M1223.05,52.62c1.5,0.29,4.26,0.37,5.77,0.29c14.23-0.77,28.8-4.14,49.17-4.47c2.5-0.04,4.01,0.14,5.26,0.28" style="fill:none;stroke:#999;stroke-width:3" />
<path d="M1235.58,53.28c0.88,0.53,1.96,2.42,1.96,3.36S1237.3,83.41 1237.3,86.78" style="fill:none;stroke:#999;stroke-width:3" />
<path d="M1237.48,63.5c14.08-1.17,17.9-1.34,30.34-1.91" style="fill:none;stroke:#999;stroke-width:3" />
<path d="M1238.0,75.19c11.49-0.81,16.08-1.65,30.11-2.22" style="fill:none;stroke:#999;stroke-width:3" />
<path d="M1220.0,89.98c0.47,0.64,2.62,1.54,4.27,1.28C1230.9,90.19 1268.81,82.73 1279.0,81.03" style="fill:none;stroke:#999;stroke-width:3" />
<path d="M1266.36,52.05c1.53,0.84,1.68,2.26,1.68,3.2s0.24,37.11,0.24,44.78" style="fill:none;stroke:black;stroke-width:3" />
<circle cx="1266.36" cy="52.05" r="5" stroke-width="0" fill="#FF2A00" opacity="0.7" />
</svg>