<!-- 084ad -->
<svg width="1417px" height="109px" viewBox="0 0 1417px 109px" xmlns="http://www.w3.org/2000/svg" xmlns:xlink="http://www.w3.org/1999/xlink" xml:space="preserve" version="1.1"  baseProfile="full">
<line x1="1" y1="1" x2="1416" y2="1" style="stroke:#ddd;stroke-width:2" />
<line x1="1" y1="1" x2="1" y2="108" style="stroke:#ddd;stroke-width:2" />
<line x1="1" y1="108" x2="1416" y2="108" style="stroke:#ddd;stroke-width:2" />
<line x1="1416" y1="1" x2="1416" y2="108" style="stroke:#ddd;stroke-width:2" />
<line x1="109" y1="1" x2="109" y2="108" style="stroke:#ddd;stroke-width:2" />
<line x1="218" y1="1" x2="218" y2="108" style="stroke:#ddd;stroke-width:2" />
<line x1="327" y1="1" x2="327" y2="108" style="stroke:#ddd;stroke-width:2" />
<line x1="436" y1="1" x2="436" y2="108" style="stroke:#ddd;stroke-width:2" />
<line x1="545" y1="1" x2="545" y2="108" style="stroke:#ddd;stroke-width:2" />
<line x1="654" y1="1" x2="654" y2="108" style="stroke:#ddd;stroke-width:2" />
<line x1="763" y1="1" x2="763" y2="108" style="stroke:#ddd;stroke-width:2" />
<line x1="872" y1="1" x2="872" y2="108" style="stroke:#ddd;stroke-width:2" />
<line x1="981" y1="1" x2="981" y2="108" style="stroke:#ddd;stroke-width:2" />
<line x1="1090" y1="1" x2="1090" y2="108" style="stroke:#ddd;stroke-width:2" />
<line x1="1199" y1="1" x2="1199" y2="108" style="stroke:#ddd;stroke-width:2" />
<line x1="1308" y1="1" x2="1308" y2="108" style="stroke:#ddd;stroke-width:2" />
<line x1="1" y1="54" x2="1416" y2="54" style="stroke:#ddd;stroke-width:2;stroke-dasharray:3 3" />
<line x1="55" y1="1" x2="55" y2="108" style="stroke:#ddd;stroke-width:2;stroke-dasharray:3 3" />
<line x1="164" y1="1" x2="164" y2="108" style="stroke:#ddd;stroke-width:2;stroke-dasharray:3 3" />
<line x1="273" y1="1" x2="273" y2="108" style="stroke:#ddd;stroke-width:2;stroke-dasharray:3 3" />
<line x1="382" y1="1" x2="382" y2="108" style="stroke:#ddd;stroke-width:2;stroke-dasharray:3 3" />
<line x1="491" y1="1" x2="491" y2="108" style="stroke:#ddd;stroke-width:2;stroke-dasharray:3 3" />
<line x1="600" y1="1" x2="600" y2="108" style="stroke:#ddd;stroke-width:2;stroke-dasharray:3 3" />
<line x1="709" y1="1" x2="709" y2="108" style="stroke:#ddd;stroke-width:2;stroke-dasharray:3 3" />
<line x1="818" y1="1" x2="818" y2="108" style="stroke:#ddd;stroke-width:2;stroke-dasharray:3 3" />
<line x1="927" y1="1" x2="927" y2="108" style="stroke:#ddd;stroke-width:2;stroke-dasharray:3 3" />
<line x1="1036" y1="1" x2="1036" y2="108" style="stroke:#ddd;stroke-width:2;stroke-dasharray:3 3" />
<line x1="1145" y1="1" x2="1145" y2="108" style="stroke:#ddd;stroke-width:2;stroke-dasharray:3 3" />
<line x1="1254" y1="1" x2="1254" y2="108" style="stroke:#ddd;stroke-width:2;stroke-dasharray:3 3" />
<line x1="1363" y1="1" x2="1363" y2="108" style="stroke:#ddd;stroke-width:2;stroke-dasharray:3 3" />
<path d="M18.0,20.83c2.75-0.08,5.71,0.4,7,0.33c11.79-0.65,43.5-2.92,57.17-3.5c2.83-0.12,5.93,0.66,7,0.83" style="fill:none;stroke:black;stroke-width:3" />
<circle cx="18.0" cy="20.83" r="5" stroke-width="0" fill="#FF2A00" opacity="0.7" />
<path d="M127.0,20.83c2.75-0.08,5.71,0.4,7,0.33c11.79-0.65,43.5-2.92,57.17-3.5c2.83-0.12,5.93,0.66,7,0.83" style="fill:none;stroke:#999;stroke-width:3" />
<path d="M147.17000000000002,11.33c1.28,0.99,2.36,1.56,2.5,2.17c1.28,5.68,1.8,11.1,2.17,13.17" style="fill:none;stroke:black;stroke-width:3" />
<circle cx="147.17000000000002" cy="11.33" r="5" stroke-width="0" fill="#FF2A00" opacity="0.7" />
<path d="M236.0,20.83c2.75-0.08,5.71,0.4,7,0.33c11.79-0.65,43.5-2.92,57.17-3.5c2.83-0.12,5.93,0.66,7,0.83" style="fill:none;stroke:#999;stroke-width:3" />
<path d="M256.17,11.33c1.28,0.99,2.36,1.56,2.5,2.17c1.28,5.68,1.8,11.1,2.17,13.17" style="fill:none;stroke:#999;stroke-width:3" />
<path d="M283.5,9.67c1,0.83,2.05,2.92,1.85,3.86c-1.15,5.52-1.26,6.95-2.52,12.14" style="fill:none;stroke:black;stroke-width:3" />
<circle cx="283.5" cy="9.67" r="5" stroke-width="0" fill="#FF2A00" opacity="0.7" />
<path d="M345.0,20.83c2.75-0.08,5.71,0.4,7,0.33c11.79-0.65,43.5-2.92,57.17-3.5c2.83-0.12,5.93,0.66,7,0.83" style="fill:none;stroke:#999;stroke-width:3" />
<path d="M365.17,11.33c1.28,0.99,2.36,1.56,2.5,2.17c1.28,5.68,1.8,11.1,2.17,13.17" style="fill:none;stroke:#999;stroke-width:3" />
<path d="M392.5,9.67c1,0.83,2.05,2.92,1.85,3.86c-1.15,5.52-1.26,6.95-2.52,12.14" style="fill:none;stroke:#999;stroke-width:3" />
<path d="M361.55,26.17c0.04,0.47,0.08,1.21-0.08,1.89c-0.97,3.98-6.52,12.71-14.12,18.06" style="fill:none;stroke:black;stroke-width:3" />
<circle cx="361.55" cy="26.17" r="5" stroke-width="0" fill="#FF2A00" opacity="0.7" />
<path d="M454.0,20.83c2.75-0.08,5.71,0.4,7,0.33c11.79-0.65,43.5-2.92,57.17-3.5c2.83-0.12,5.93,0.66,7,0.83" style="fill:none;stroke:#999;stroke-width:3" />
<path d="M474.17,11.33c1.28,0.99,2.36,1.56,2.5,2.17c1.28,5.68,1.8,11.1,2.17,13.17" style="fill:none;stroke:#999;stroke-width:3" />
<path d="M501.5,9.67c1,0.83,2.05,2.92,1.85,3.86c-1.15,5.52-1.26,6.95-2.52,12.14" style="fill:none;stroke:#999;stroke-width:3" />
<path d="M470.55,26.17c0.04,0.47,0.08,1.21-0.08,1.89c-0.97,3.98-6.52,12.71-14.12,18.06" style="fill:none;stroke:#999;stroke-width:3" />
<path d="M470.0,32.17c1.15,0.52,3.44,0.63,5.33,0.5c5.08-0.35,34.55-3.81,39.17-4c4-0.17,5.48,1.7,5,4.83c-0.56,3.68-2.8,13.56-6.5,18.33c-2.53,3.26-4.44,1.68-7.17-0.5" style="fill:none;stroke:black;stroke-width:3" />
<circle cx="470.0" cy="32.17" r="5" stroke-width="0" fill="#FF2A00" opacity="0.7" />
<path d="M563.0,20.83c2.75-0.08,5.71,0.4,7,0.33c11.79-0.65,43.5-2.92,57.17-3.5c2.83-0.12,5.93,0.66,7,0.83" style="fill:none;stroke:#999;stroke-width:3" />
<path d="M583.1700000000001,11.33c1.28,0.99,2.36,1.56,2.5,2.17c1.28,5.68,1.8,11.1,2.17,13.17" style="fill:none;stroke:#999;stroke-width:3" />
<path d="M610.5,9.67c1,0.83,2.05,2.92,1.85,3.86c-1.15,5.52-1.26,6.95-2.52,12.14" style="fill:none;stroke:#999;stroke-width:3" />
<path d="M579.55,26.17c0.04,0.47,0.08,1.21-0.08,1.89c-0.97,3.98-6.52,12.71-14.12,18.06" style="fill:none;stroke:#999;stroke-width:3" />
<path d="M579.0,32.17c1.15,0.52,3.44,0.63,5.33,0.5c5.08-0.35,34.55-3.81,39.17-4c4-0.17,5.48,1.7,5,4.83c-0.56,3.68-2.8,13.56-6.5,18.33c-2.53,3.26-4.44,1.68-7.17-0.5" style="fill:none;stroke:#999;stroke-width:3" />
<path d="M581.67,37.83c0.42,0.19,1.24,1.32,1.24,2.44c0,1.3-0.58,3.6-1.07,6.06c-0.23,1.16,1.26,2.07,3.17,1.5c6.56-1.98,22.21-3.5,27.46-4.02" style="fill:none;stroke:black;stroke-width:3" />
<circle cx="581.67" cy="37.83" r="5" stroke-width="0" fill="#FF2A00" opacity="0.7" />
<path d="M672.0,20.83c2.75-0.08,5.71,0.4,7,0.33c11.79-0.65,43.5-2.92,57.17-3.5c2.83-0.12,5.93,0.66,7,0.83" style="fill:none;stroke:#999;stroke-width:3" />
<path d="M692.1700000000001,11.33c1.28,0.99,2.36,1.56,2.5,2.17c1.28,5.68,1.8,11.1,2.17,13.17" style="fill:none;stroke:#999;stroke-width:3" />
<path d="M719.5,9.67c1,0.83,2.05,2.92,1.85,3.86c-1.15,5.52-1.26,6.95-2.52,12.14" style="fill:none;stroke:#999;stroke-width:3" />
<path d="M688.55,26.17c0.04,0.47,0.08,1.21-0.08,1.89c-0.97,3.98-6.52,12.71-14.12,18.06" style="fill:none;stroke:#999;stroke-width:3" />
<path d="M688.0,32.17c1.15,0.52,3.44,0.63,5.33,0.5c5.08-0.35,34.55-3.81,39.17-4c4-0.17,5.48,1.7,5,4.83c-0.56,3.68-2.8,13.56-6.5,18.33c-2.53,3.26-4.44,1.68-7.17-0.5" style="fill:none;stroke:#999;stroke-width:3" />
<path d="M690.67,37.83c0.42,0.19,1.24,1.32,1.24,2.44c0,1.3-0.58,3.6-1.07,6.06c-0.23,1.16,1.26,2.07,3.17,1.5c6.56-1.98,22.21-3.5,27.46-4.02" style="fill:none;stroke:#999;stroke-width:3" />
<path d="M720.83,34.83c0.33,0.22,1.32,2.38,1.33,2.83c0.08,3.08-0.76,5.32-1.17,9" style="fill:none;stroke:black;stroke-width:3" />
<circle cx="720.83" cy="34.83" r="5" stroke-width="0" fill="#FF2A00" opacity="0.7" />
<path d="M781.0,20.83c2.75-0.08,5.71,0.4,7,0.33c11.79-0.65,43.5-2.92,57.17-3.5c2.83-0.12,5.93,0.66,7,0.83" style="fill:none;stroke:#999;stroke-width:3" />
<path d="M801.1700000000001,11.33c1.28,0.99,2.36,1.56,2.5,2.17c1.28,5.68,1.8,11.1,2.17,13.17" style="fill:none;stroke:#999;stroke-width:3" />
<path d="M828.5,9.67c1,0.83,2.05,2.92,1.85,3.86c-1.15,5.52-1.26,6.95-2.52,12.14" style="fill:none;stroke:#999;stroke-width:3" />
<path d="M797.55,26.17c0.04,0.47,0.08,1.21-0.08,1.89c-0.97,3.98-6.52,12.71-14.12,18.06" style="fill:none;stroke:#999;stroke-width:3" />
<path d="M797.0,32.17c1.15,0.52,3.44,0.63,5.33,0.5c5.08-0.35,34.55-3.81,39.17-4c4-0.17,5.48,1.7,5,4.83c-0.56,3.68-2.8,13.56-6.5,18.33c-2.53,3.26-4.44,1.68-7.17-0.5" style="fill:none;stroke:#999;stroke-width:3" />
<path d="M799.67,37.83c0.42,0.19,1.24,1.32,1.24,2.44c0,1.3-0.58,3.6-1.07,6.06c-0.23,1.16,1.26,2.07,3.17,1.5c6.56-1.98,22.21-3.5,27.46-4.02" style="fill:none;stroke:#999;stroke-width:3" />
<path d="M829.83,34.83c0.33,0.22,1.32,2.38,1.33,2.83c0.08,3.08-0.76,5.32-1.17,9" style="fill:none;stroke:#999;stroke-width:3" />
<path d="M814.5,35.14c0.54,0.43,1.03,1.29,1.03,2c0,6.01,0.57,15.17-8.44,21.45" style="fill:none;stroke:black;stroke-width:3" />
<circle cx="814.5" cy="35.14" r="5" stroke-width="0" fill="#FF2A00" opacity="0.7" />
<path d="M890.0,20.83c2.75-0.08,5.71,0.4,7,0.33c11.79-0.65,43.5-2.92,57.17-3.5c2.83-0.12,5.93,0.66,7,0.83" style="fill:none;stroke:#999;stroke-width:3" />
<path d="M910.1700000000001,11.33c1.28,0.99,2.36,1.56,2.5,2.17c1.28,5.68,1.8,11.1,2.17,13.17" style="fill:none;stroke:#999;stroke-width:3" />
<path d="M937.5,9.67c1,0.83,2.05,2.92,1.85,3.86c-1.15,5.52-1.26,6.95-2.52,12.14" style="fill:none;stroke:#999;stroke-width:3" />
<path d="M906.55,26.17c0.04,0.47,0.08,1.21-0.08,1.89c-0.97,3.98-6.52,12.71-14.12,18.06" style="fill:none;stroke:#999;stroke-width:3" />
<path d="M906.0,32.17c1.15,0.52,3.44,0.63,5.33,0.5c5.08-0.35,34.55-3.81,39.17-4c4-0.17,5.48,1.7,5,4.83c-0.56,3.68-2.8,13.56-6.5,18.33c-2.53,3.26-4.44,1.68-7.17-0.5" style="fill:none;stroke:#999;stroke-width:3" />
<path d="M908.67,37.83c0.42,0.19,1.24,1.32,1.24,2.44c0,1.3-0.58,3.6-1.07,6.06c-0.23,1.16,1.26,2.07,3.17,1.5c6.56-1.98,22.21-3.5,27.46-4.02" style="fill:none;stroke:#999;stroke-width:3" />
<path d="M938.83,34.83c0.33,0.22,1.32,2.38,1.33,2.83c0.08,3.08-0.76,5.32-1.17,9" style="fill:none;stroke:#999;stroke-width:3" />
<path d="M923.5,35.14c0.54,0.43,1.03,1.29,1.03,2c0,6.01,0.57,15.17-8.44,21.45" style="fill:none;stroke:#999;stroke-width:3" />
<path d="M907.79,53.67c0.05,0.54,0.11,1.4-0.1,2.19c-1.24,4.61-8.36,14.72-18.11,20.91" style="fill:none;stroke:black;stroke-width:3" />
<circle cx="907.79" cy="53.67" r="5" stroke-width="0" fill="#FF2A00" opacity="0.7" />
<path d="M999.0,20.83c2.75-0.08,5.71,0.4,7,0.33c11.79-0.65,43.5-2.92,57.17-3.5c2.83-0.12,5.93,0.66,7,0.83" style="fill:none;stroke:#999;stroke-width:3" />
<path d="M1019.1700000000001,11.33c1.28,0.99,2.36,1.56,2.5,2.17c1.28,5.68,1.8,11.1,2.17,13.17" style="fill:none;stroke:#999;stroke-width:3" />
<path d="M1046.5,9.67c1,0.83,2.05,2.92,1.85,3.86c-1.15,5.52-1.26,6.95-2.52,12.14" style="fill:none;stroke:#999;stroke-width:3" />
<path d="M1015.55,26.17c0.04,0.47,0.08,1.21-0.08,1.89c-0.97,3.98-6.52,12.71-14.12,18.06" style="fill:none;stroke:#999;stroke-width:3" />
<path d="M1015.0,32.17c1.15,0.52,3.44,0.63,5.33,0.5c5.08-0.35,34.55-3.81,39.17-4c4-0.17,5.48,1.7,5,4.83c-0.56,3.68-2.8,13.56-6.5,18.33c-2.53,3.26-4.44,1.68-7.17-0.5" style="fill:none;stroke:#999;stroke-width:3" />
<path d="M1017.67,37.83c0.42,0.19,1.24,1.32,1.24,2.44c0,1.3-0.58,3.6-1.07,6.06c-0.23,1.16,1.26,2.07,3.17,1.5c6.56-1.98,22.21-3.5,27.46-4.02" style="fill:none;stroke:#999;stroke-width:3" />
<path d="M1047.83,34.83c0.33,0.22,1.32,2.38,1.33,2.83c0.08,3.08-0.76,5.32-1.17,9" style="fill:none;stroke:#999;stroke-width:3" />
<path d="M1032.5,35.14c0.54,0.43,1.03,1.29,1.03,2c0,6.01,0.57,15.17-8.44,21.45" style="fill:none;stroke:#999;stroke-width:3" />
<path d="M1016.79,53.67c0.05,0.54,0.11,1.4-0.1,2.19c-1.24,4.61-8.36,14.72-18.11,20.91" style="fill:none;stroke:#999;stroke-width:3" />
<path d="M1012.17,64.33c1.16,0.55,4.14,0.25,6.04,0.11c5.09-0.37,37.33-2.76,41.96-2.95c4.63-0.18,5.84,0.5,5.36,3.8c-0.25,1.73-2.77,24.01-7.36,28.37c-3.21,3.06-3.93,1.97-6.67-0.33" style="fill:none;stroke:black;stroke-width:3" />
<circle cx="1012.17" cy="64.33" r="5" stroke-width="0" fill="#FF2A00" opacity="0.7" />
<path d="M1108.0,20.83c2.75-0.08,5.71,0.4,7,0.33c11.79-0.65,43.5-2.92,57.17-3.5c2.83-0.12,5.93,0.66,7,0.83" style="fill:none;stroke:#999;stroke-width:3" />
<path d="M1128.17,11.33c1.28,0.99,2.36,1.56,2.5,2.17c1.28,5.68,1.8,11.1,2.17,13.17" style="fill:none;stroke:#999;stroke-width:3" />
<path d="M1155.5,9.67c1,0.83,2.05,2.92,1.85,3.86c-1.15,5.52-1.26,6.95-2.52,12.14" style="fill:none;stroke:#999;stroke-width:3" />
<path d="M1124.55,26.17c0.04,0.47,0.08,1.21-0.08,1.89c-0.97,3.98-6.52,12.71-14.12,18.06" style="fill:none;stroke:#999;stroke-width:3" />
<path d="M1124.0,32.17c1.15,0.52,3.44,0.63,5.33,0.5c5.08-0.35,34.55-3.81,39.17-4c4-0.17,5.48,1.7,5,4.83c-0.56,3.68-2.8,13.56-6.5,18.33c-2.53,3.26-4.44,1.68-7.17-0.5" style="fill:none;stroke:#999;stroke-width:3" />
<path d="M1126.67,37.83c0.42,0.19,1.24,1.32,1.24,2.44c0,1.3-0.58,3.6-1.07,6.06c-0.23,1.16,1.26,2.07,3.17,1.5c6.56-1.98,22.21-3.5,27.46-4.02" style="fill:none;stroke:#999;stroke-width:3" />
<path d="M1156.83,34.83c0.33,0.22,1.32,2.38,1.33,2.83c0.08,3.08-0.76,5.32-1.17,9" style="fill:none;stroke:#999;stroke-width:3" />
<path d="M1141.5,35.14c0.54,0.43,1.03,1.29,1.03,2c0,6.01,0.57,15.17-8.44,21.45" style="fill:none;stroke:#999;stroke-width:3" />
<path d="M1125.79,53.67c0.05,0.54,0.11,1.4-0.1,2.19c-1.24,4.61-8.36,14.72-18.11,20.91" style="fill:none;stroke:#999;stroke-width:3" />
<path d="M1121.17,64.33c1.16,0.55,4.14,0.25,6.04,0.11c5.09-0.37,37.33-2.76,41.96-2.95c4.63-0.18,5.84,0.5,5.36,3.8c-0.25,1.73-2.77,24.01-7.36,28.37c-3.21,3.06-3.93,1.97-6.67-0.33" style="fill:none;stroke:#999;stroke-width:3" />
<path d="M1122.83,71.33c0.92,0.67,1.33,1.6,1.33,2.87c0,1.47-0.09,5.87-0.33,8.46c-0.12,1.34,0.14,2.41,2.17,2c8.17-1.67,21.17-3.17,29.57-3.71" style="fill:none;stroke:black;stroke-width:3" />
<circle cx="1122.83" cy="71.33" r="5" stroke-width="0" fill="#FF2A00" opacity="0.7" />
<path d="M1217.0,20.83c2.75-0.08,5.71,0.4,7,0.33c11.79-0.65,43.5-2.92,57.17-3.5c2.83-0.12,5.93,0.66,7,0.83" style="fill:none;stroke:#999;stroke-width:3" />
<path d="M1237.17,11.33c1.28,0.99,2.36,1.56,2.5,2.17c1.28,5.68,1.8,11.1,2.17,13.17" style="fill:none;stroke:#999;stroke-width:3" />
<path d="M1264.5,9.67c1,0.83,2.05,2.92,1.85,3.86c-1.15,5.52-1.26,6.95-2.52,12.14" style="fill:none;stroke:#999;stroke-width:3" />
<path d="M1233.55,26.17c0.04,0.47,0.08,1.21-0.08,1.89c-0.97,3.98-6.52,12.71-14.12,18.06" style="fill:none;stroke:#999;stroke-width:3" />
<path d="M1233.0,32.17c1.15,0.52,3.44,0.63,5.33,0.5c5.08-0.35,34.55-3.81,39.17-4c4-0.17,5.48,1.7,5,4.83c-0.56,3.68-2.8,13.56-6.5,18.33c-2.53,3.26-4.44,1.68-7.17-0.5" style="fill:none;stroke:#999;stroke-width:3" />
<path d="M1235.67,37.83c0.42,0.19,1.24,1.32,1.24,2.44c0,1.3-0.58,3.6-1.07,6.06c-0.23,1.16,1.26,2.07,3.17,1.5c6.56-1.98,22.21-3.5,27.46-4.02" style="fill:none;stroke:#999;stroke-width:3" />
<path d="M1265.83,34.83c0.33,0.22,1.32,2.38,1.33,2.83c0.08,3.08-0.76,5.32-1.17,9" style="fill:none;stroke:#999;stroke-width:3" />
<path d="M1250.5,35.14c0.54,0.43,1.03,1.29,1.03,2c0,6.01,0.57,15.17-8.44,21.45" style="fill:none;stroke:#999;stroke-width:3" />
<path d="M1234.79,53.67c0.05,0.54,0.11,1.4-0.1,2.19c-1.24,4.61-8.36,14.72-18.11,20.91" style="fill:none;stroke:#999;stroke-width:3" />
<path d="M1230.17,64.33c1.16,0.55,4.14,0.25,6.04,0.11c5.09-0.37,37.33-2.76,41.96-2.95c4.63-0.18,5.84,0.5,5.36,3.8c-0.25,1.73-2.77,24.01-7.36,28.37c-3.21,3.06-3.93,1.97-6.67-0.33" style="fill:none;stroke:#999;stroke-width:3" />
<path d="M1231.83,71.33c0.92,0.67,1.33,1.6,1.33,2.87c0,1.47-0.09,5.87-0.33,8.46c-0.12,1.34,0.14,2.41,2.17,2c8.17-1.67,21.17-3.17,29.57-3.71" style="fill:none;stroke:#999;stroke-width:3" />
<path d="M1264.67,68.67c1,0.67,2.05,1.73,2,2.33c-0.26,2.81,0.06,6.06-1.33,12" style="fill:none;stroke:black;stroke-width:3" />
<circle cx="1264.67" cy="68.67" r="5" stroke-width="0" fill="#FF2A00" opacity="0.7" />
<path d="M1326.0,20.83c2.75-0.08,5.71,0.4,7,0.33c11.79-0.65,43.5-2.92,57.17-3.5c2.83-0.12,5.93,0.66,7,0.83" style="fill:none;stroke:#999;stroke-width:3" />
<path d="M1346.17,11.33c1.28,0.99,2.36,1.56,2.5,2.17c1.28,5.68,1.8,11.1,2.17,13.17" style="fill:none;stroke:#999;stroke-width:3" />
<path d="M1373.5,9.67c1,0.83,2.05,2.92,1.85,3.86c-1.15,5.52-1.26,6.95-2.52,12.14" style="fill:none;stroke:#999;stroke-width:3" />
<path d="M1342.55,26.17c0.04,0.47,0.08,1.21-0.08,1.89c-0.97,3.98-6.52,12.71-14.12,18.06" style="fill:none;stroke:#999;stroke-width:3" />
<path d="M1342.0,32.17c1.15,0.52,3.44,0.63,5.33,0.5c5.08-0.35,34.55-3.81,39.17-4c4-0.17,5.48,1.7,5,4.83c-0.56,3.68-2.8,13.56-6.5,18.33c-2.53,3.26-4.44,1.68-7.17-0.5" style="fill:none;stroke:#999;stroke-width:3" />
<path d="M1344.67,37.83c0.42,0.19,1.24,1.32,1.24,2.44c0,1.3-0.58,3.6-1.07,6.06c-0.23,1.16,1.26,2.07,3.17,1.5c6.56-1.98,22.21-3.5,27.46-4.02" style="fill:none;stroke:#999;stroke-width:3" />
<path d="M1374.83,34.83c0.33,0.22,1.32,2.38,1.33,2.83c0.08,3.08-0.76,5.32-1.17,9" style="fill:none;stroke:#999;stroke-width:3" />
<path d="M1359.5,35.14c0.54,0.43,1.03,1.29,1.03,2c0,6.01,0.57,15.17-8.44,21.45" style="fill:none;stroke:#999;stroke-width:3" />
<path d="M1343.79,53.67c0.05,0.54,0.11,1.4-0.1,2.19c-1.24,4.61-8.36,14.72-18.11,20.91" style="fill:none;stroke:#999;stroke-width:3" />
<path d="M1339.17,64.33c1.16,0.55,4.14,0.25,6.04,0.11c5.09-0.37,37.33-2.76,41.96-2.95c4.63-0.18,5.84,0.5,5.36,3.8c-0.25,1.73-2.77,24.01-7.36,28.37c-3.21,3.06-3.93,1.97-6.67-0.33" style="fill:none;stroke:#999;stroke-width:3" />
<path d="M1340.83,71.33c0.92,0.67,1.33,1.6,1.33,2.87c0,1.47-0.09,5.87-0.33,8.46c-0.12,1.34,0.14,2.41,2.17,2c8.17-1.67,21.17-3.17,29.57-3.71" style="fill:none;stroke:#999;stroke-width:3" />
<path d="M1373.67,68.67c1,0.67,2.05,1.73,2,2.33c-0.26,2.81,0.06,6.06-1.33,12" style="fill:none;stroke:#999;stroke-width:3" />
<path d="M1359.55,68.23c0.65,0.5,0.81,1.98,0.73,2.8c-0.73,7.81-0.26,22.1-16.27,30.22" style="fill:none;stroke:black;stroke-width:3" />
<circle cx="1359.55" cy="68.23" r="5" stroke-width="0" fill="#FF2A00" opacity="0.7" />
</svg>