<!-- 08540 -->
<svg width="1635px" height="109px" viewBox="0 0 1635px 109px" xmlns="http://www.w3.org/2000/svg" xmlns:xlink="http://www.w3.org/1999/xlink" xml:space="preserve" version="1.1"  baseProfile="full">
<line x1="1" y1="1" x2="1634" y2="1" style="stroke:#ddd;stroke-width:2" />
<line x1="1" y1="1" x2="1" y2="108" style="stroke:#ddd;stroke-width:2" />
<line x1="1" y1="108" x2="1634" y2="108" style="stroke:#ddd;stroke-width:2" />
<line x1="1634" y1="1" x2="1634" y2="108" style="stroke:#ddd;stroke-width:2" />
<line x1="109" y1="1" x2="109" y2="108" style="stroke:#ddd;stroke-width:2" />
<line x1="218" y1="1" x2="218" y2="108" style="stroke:#ddd;stroke-width:2" />
<line x1="327" y1="1" x2="327" y2="108" style="stroke:#ddd;stroke-width:2" />
<line x1="436" y1="1" x2="436" y2="108" style="stroke:#ddd;stroke-width:2" />
<line x1="545" y1="1" x2="545" y2="108" style="stroke:#ddd;stroke-width:2" />
<line x1="654" y1="1" x2="654" y2="108" style="stroke:#ddd;stroke-width:2" />
<line x1="763" y1="1" x2="763" y2="108" style="stroke:#ddd;stroke-width:2" />
<line x1="872" y1="1" x2="872" y2="108" style="stroke:#ddd;stroke-width:2" />
<line x1="981" y1="1" x2="981" y2="108" style="stroke:#ddd;stroke-width:2" />
<line x1="1090" y1="1" x2="1090" y2="108" style="stroke:#ddd;stroke-width:2" />
<line x1="1199" y1="1" x2="1199" y2="108" style="stroke:#ddd;stroke-width:2" />
<line x1="1308" y1="1" x2="1308" y2="108" style="stroke:#ddd;stroke-width:2" />
<line x1="1417" y1="1" x2="1417" y2="108" style="stroke:#ddd;stroke-width:2" />
<line x1="1526" y1="1" x2="1526" y2="108" style="stroke:#ddd;stroke-width:2" />
<line x1="1" y1="54" x2="1634" y2="54" style="stroke:#ddd;stroke-width:2;stroke-dasharray:3 3" />
<line x1="55" y1="1" x2="55" y2="108" style="stroke:#ddd;stroke-width:2;stroke-dasharray:3 3" />
<line x1="164" y1="1" x2="164" y2="108" style="stroke:#ddd;stroke-width:2;stroke-dasharray:3 3" />
<line x1="273" y1="1" x2="273" y2="108" style="stroke:#ddd;stroke-width:2;stroke-dasharray:3 3" />
<line x1="382" y1="1" x2="382" y2="108" style="stroke:#ddd;stroke-width:2;stroke-dasharray:3 3" />
<line x1="491" y1="1" x2="491" y2="108" style="stroke:#ddd;stroke-width:2;stroke-dasharray:3 3" />
<line x1="600" y1="1" x2="600" y2="108" style="stroke:#ddd;stroke-width:2;stroke-dasharray:3 3" />
<line x1="709" y1="1" x2="709" y2="108" style="stroke:#ddd;stroke-width:2;stroke-dasharray:3 3" />
<line x1="818" y1="1" x2="818" y2="108" style="stroke:#ddd;stroke-width:2;stroke-dasharray:3 3" />
<line x1="927" y1="1" x2="927" y2="108" style="stroke:#ddd;stroke-width:2;stroke-dasharray:3 3" />
<line x1="1036" y1="1" x2="1036" y2="108" style="stroke:#ddd;stroke-width:2;stroke-dasharray:3 3" />
<line x1="1145" y1="1" x2="1145" y2="108" style="stroke:#ddd;stroke-width:2;stroke-dasharray:3 3" />
<line x1="1254" y1="1" x2="1254" y2="108" style="stroke:#ddd;stroke-width:2;stroke-dasharray:3 3" />
<line x1="1363" y1="1" x2="1363" y2="108" style="stroke:#ddd;stroke-width:2;stroke-dasharray:3 3" />
<line x1="1472" y1="1" x2="1472" y2="108" style="stroke:#ddd;stroke-width:2;stroke-dasharray:3 3" />
<line x1="1581" y1="1" x2="1581" y2="108" style="stroke:#ddd;stroke-width:2;stroke-dasharray:3 3" />
<path d="M17.5,21.2c1.75,0.71,3.78,0.85,5.53,0.71c16.07-1.3,43.07-4.67,61.6-4.77c2.91-0.02,4.66,0.34,6.12,0.69" style="fill:none;stroke:black;stroke-width:3" />
<circle cx="17.5" cy="21.2" r="5" stroke-width="0" fill="#FF2A00" opacity="0.7" />
<path d="M126.5,21.2c1.75,0.71,3.78,0.85,5.53,0.71c16.07-1.3,43.07-4.67,61.6-4.77c2.91-0.02,4.66,0.34,6.12,0.69" style="fill:none;stroke:#999;stroke-width:3" />
<path d="M146.0,9.25c1.17,1.25,1.54,1.63,1.67,2.4c1.17,7.19,1.5,13.74,1.83,16.35" style="fill:none;stroke:black;stroke-width:3" />
<circle cx="146.0" cy="9.25" r="5" stroke-width="0" fill="#FF2A00" opacity="0.7" />
<path d="M235.5,21.2c1.75,0.71,3.78,0.85,5.53,0.71c16.07-1.3,43.07-4.67,61.6-4.77c2.91-0.02,4.66,0.34,6.12,0.69" style="fill:none;stroke:#999;stroke-width:3" />
<path d="M255.0,9.25c1.17,1.25,1.54,1.63,1.67,2.4c1.17,7.19,1.5,13.74,1.83,16.35" style="fill:none;stroke:#999;stroke-width:3" />
<path d="M284.2,9.25c0.87,0.77,1.44,1.94,1.16,3.08c-0.87,3.47-1.44,9.24-2.7,13.67" style="fill:none;stroke:black;stroke-width:3" />
<circle cx="284.2" cy="9.25" r="5" stroke-width="0" fill="#FF2A00" opacity="0.7" />
<path d="M344.5,21.2c1.75,0.71,3.78,0.85,5.53,0.71c16.07-1.3,43.07-4.67,61.6-4.77c2.91-0.02,4.66,0.34,6.12,0.69" style="fill:none;stroke:#999;stroke-width:3" />
<path d="M364.0,9.25c1.17,1.25,1.54,1.63,1.67,2.4c1.17,7.19,1.5,13.74,1.83,16.35" style="fill:none;stroke:#999;stroke-width:3" />
<path d="M393.2,9.25c0.87,0.77,1.44,1.94,1.16,3.08c-0.87,3.47-1.44,9.24-2.7,13.67" style="fill:none;stroke:#999;stroke-width:3" />
<path d="M342.86,43.64c1.16,0.53,2.47,0.52,3.81,0.53c7.83,0.08,17.69-1.02,28.31-2.05c1.32-0.13,2.47,0.09,3.15,0.47" style="fill:none;stroke:black;stroke-width:3" />
<circle cx="342.86" cy="43.64" r="5" stroke-width="0" fill="#FF2A00" opacity="0.7" />
<path d="M453.5,21.2c1.75,0.71,3.78,0.85,5.53,0.71c16.07-1.3,43.07-4.67,61.6-4.77c2.91-0.02,4.66,0.34,6.12,0.69" style="fill:none;stroke:#999;stroke-width:3" />
<path d="M473.0,9.25c1.17,1.25,1.54,1.63,1.67,2.4c1.17,7.19,1.5,13.74,1.83,16.35" style="fill:none;stroke:#999;stroke-width:3" />
<path d="M502.2,9.25c0.87,0.77,1.44,1.94,1.16,3.08c-0.87,3.47-1.44,9.24-2.7,13.67" style="fill:none;stroke:#999;stroke-width:3" />
<path d="M451.86,43.64c1.16,0.53,2.47,0.52,3.81,0.53c7.83,0.08,17.69-1.02,28.31-2.05c1.32-0.13,2.47,0.09,3.15,0.47" style="fill:none;stroke:#999;stroke-width:3" />
<path d="M451.62,53.9c0.74,0.61,1.55,1.61,1.74,2.72c0.24,1.46,2.38,12.13,2.38,13.98" style="fill:none;stroke:black;stroke-width:3" />
<circle cx="451.62" cy="53.9" r="5" stroke-width="0" fill="#FF2A00" opacity="0.7" />
<path d="M562.5,21.2c1.75,0.71,3.78,0.85,5.53,0.71c16.07-1.3,43.07-4.67,61.6-4.77c2.91-0.02,4.66,0.34,6.12,0.69" style="fill:none;stroke:#999;stroke-width:3" />
<path d="M582.0,9.25c1.17,1.25,1.54,1.63,1.67,2.4c1.17,7.19,1.5,13.74,1.83,16.35" style="fill:none;stroke:#999;stroke-width:3" />
<path d="M611.2,9.25c0.87,0.77,1.44,1.94,1.16,3.08c-0.87,3.47-1.44,9.24-2.7,13.67" style="fill:none;stroke:#999;stroke-width:3" />
<path d="M560.86,43.64c1.16,0.53,2.47,0.52,3.81,0.53c7.83,0.08,17.69-1.02,28.31-2.05c1.32-0.13,2.47,0.09,3.15,0.47" style="fill:none;stroke:#999;stroke-width:3" />
<path d="M560.62,53.9c0.74,0.61,1.55,1.61,1.74,2.72c0.24,1.46,2.38,12.13,2.38,13.98" style="fill:none;stroke:#999;stroke-width:3" />
<path d="M562.27,55.08c5.93-0.28,28.74-3.69,29.79-3.9c2.25-0.45,3.04-0.05,2.89,2.18c-0.2,2.83-0.37,8.17-1.72,11.33c-2.26,5.27-2.39,2.84-4.07,0.9" style="fill:none;stroke:black;stroke-width:3" />
<circle cx="562.27" cy="55.08" r="5" stroke-width="0" fill="#FF2A00" opacity="0.7" />
<path d="M671.5,21.2c1.75,0.71,3.78,0.85,5.53,0.71c16.07-1.3,43.07-4.67,61.6-4.77c2.91-0.02,4.66,0.34,6.12,0.69" style="fill:none;stroke:#999;stroke-width:3" />
<path d="M691.0,9.25c1.17,1.25,1.54,1.63,1.67,2.4c1.17,7.19,1.5,13.74,1.83,16.35" style="fill:none;stroke:#999;stroke-width:3" />
<path d="M720.2,9.25c0.87,0.77,1.44,1.94,1.16,3.08c-0.87,3.47-1.44,9.24-2.7,13.67" style="fill:none;stroke:#999;stroke-width:3" />
<path d="M669.86,43.64c1.16,0.53,2.47,0.52,3.81,0.53c7.83,0.08,17.69-1.02,28.31-2.05c1.32-0.13,2.47,0.09,3.15,0.47" style="fill:none;stroke:#999;stroke-width:3" />
<path d="M669.62,53.9c0.74,0.61,1.55,1.61,1.74,2.72c0.24,1.46,2.38,12.13,2.38,13.98" style="fill:none;stroke:#999;stroke-width:3" />
<path d="M671.27,55.08c5.93-0.28,28.74-3.69,29.79-3.9c2.25-0.45,3.04-0.05,2.89,2.18c-0.2,2.83-0.37,8.17-1.72,11.33c-2.26,5.27-2.39,2.84-4.07,0.9" style="fill:none;stroke:#999;stroke-width:3" />
<path d="M685.64,31.79c0.82,0.43,1.31,1.93,1.48,2.79c0.16,0.86,0,59.82-0.16,65.18" style="fill:none;stroke:black;stroke-width:3" />
<circle cx="685.64" cy="31.79" r="5" stroke-width="0" fill="#FF2A00" opacity="0.7" />
<path d="M780.5,21.2c1.75,0.71,3.78,0.85,5.53,0.71c16.07-1.3,43.07-4.67,61.6-4.77c2.91-0.02,4.66,0.34,6.12,0.69" style="fill:none;stroke:#999;stroke-width:3" />
<path d="M800.0,9.25c1.17,1.25,1.54,1.63,1.67,2.4c1.17,7.19,1.5,13.74,1.83,16.35" style="fill:none;stroke:#999;stroke-width:3" />
<path d="M829.2,9.25c0.87,0.77,1.44,1.94,1.16,3.08c-0.87,3.47-1.44,9.24-2.7,13.67" style="fill:none;stroke:#999;stroke-width:3" />
<path d="M778.86,43.64c1.16,0.53,2.47,0.52,3.81,0.53c7.83,0.08,17.69-1.02,28.31-2.05c1.32-0.13,2.47,0.09,3.15,0.47" style="fill:none;stroke:#999;stroke-width:3" />
<path d="M778.62,53.9c0.74,0.61,1.55,1.61,1.74,2.72c0.24,1.46,2.38,12.13,2.38,13.98" style="fill:none;stroke:#999;stroke-width:3" />
<path d="M780.27,55.08c5.93-0.28,28.74-3.69,29.79-3.9c2.25-0.45,3.04-0.05,2.89,2.18c-0.2,2.83-0.37,8.17-1.72,11.33c-2.26,5.27-2.39,2.84-4.07,0.9" style="fill:none;stroke:#999;stroke-width:3" />
<path d="M794.64,31.79c0.82,0.43,1.31,1.93,1.48,2.79c0.16,0.86,0,59.82-0.16,65.18" style="fill:none;stroke:#999;stroke-width:3" />
<path d="M795.95,67.73c-3.94,8.12-14.5,20.52-22.7,25.12" style="fill:none;stroke:black;stroke-width:3" />
<circle cx="795.95" cy="67.73" r="5" stroke-width="0" fill="#FF2A00" opacity="0.7" />
<path d="M889.5,21.2c1.75,0.71,3.78,0.85,5.53,0.71c16.07-1.3,43.07-4.67,61.6-4.77c2.91-0.02,4.66,0.34,6.12,0.69" style="fill:none;stroke:#999;stroke-width:3" />
<path d="M909.0,9.25c1.17,1.25,1.54,1.63,1.67,2.4c1.17,7.19,1.5,13.74,1.83,16.35" style="fill:none;stroke:#999;stroke-width:3" />
<path d="M938.2,9.25c0.87,0.77,1.44,1.94,1.16,3.08c-0.87,3.47-1.44,9.24-2.7,13.67" style="fill:none;stroke:#999;stroke-width:3" />
<path d="M887.86,43.64c1.16,0.53,2.47,0.52,3.81,0.53c7.83,0.08,17.69-1.02,28.31-2.05c1.32-0.13,2.47,0.09,3.15,0.47" style="fill:none;stroke:#999;stroke-width:3" />
<path d="M887.62,53.9c0.74,0.61,1.55,1.61,1.74,2.72c0.24,1.46,2.38,12.13,2.38,13.98" style="fill:none;stroke:#999;stroke-width:3" />
<path d="M889.27,55.08c5.93-0.28,28.74-3.69,29.79-3.9c2.25-0.45,3.04-0.05,2.89,2.18c-0.2,2.83-0.37,8.17-1.72,11.33c-2.26,5.27-2.39,2.84-4.07,0.9" style="fill:none;stroke:#999;stroke-width:3" />
<path d="M903.64,31.79c0.82,0.43,1.31,1.93,1.48,2.79c0.16,0.86,0,59.82-0.16,65.18" style="fill:none;stroke:#999;stroke-width:3" />
<path d="M904.95,67.73c-3.94,8.12-14.5,20.52-22.7,25.12" style="fill:none;stroke:#999;stroke-width:3" />
<path d="M907.23,71.81c5.07,2.4,8.87,6.19,11.72,11.58" style="fill:none;stroke:black;stroke-width:3" />
<circle cx="907.23" cy="71.81" r="5" stroke-width="0" fill="#FF2A00" opacity="0.7" />
<path d="M998.5,21.2c1.75,0.71,3.78,0.85,5.53,0.71c16.07-1.3,43.07-4.67,61.6-4.77c2.91-0.02,4.66,0.34,6.12,0.69" style="fill:none;stroke:#999;stroke-width:3" />
<path d="M1018.0,9.25c1.17,1.25,1.54,1.63,1.67,2.4c1.17,7.19,1.5,13.74,1.83,16.35" style="fill:none;stroke:#999;stroke-width:3" />
<path d="M1047.2,9.25c0.87,0.77,1.44,1.94,1.16,3.08c-0.87,3.47-1.44,9.24-2.7,13.67" style="fill:none;stroke:#999;stroke-width:3" />
<path d="M996.86,43.64c1.16,0.53,2.47,0.52,3.81,0.53c7.83,0.08,17.69-1.02,28.31-2.05c1.32-0.13,2.47,0.09,3.15,0.47" style="fill:none;stroke:#999;stroke-width:3" />
<path d="M996.62,53.9c0.74,0.61,1.55,1.61,1.74,2.72c0.24,1.46,2.38,12.13,2.38,13.98" style="fill:none;stroke:#999;stroke-width:3" />
<path d="M998.27,55.08c5.93-0.28,28.74-3.69,29.79-3.9c2.25-0.45,3.04-0.05,2.89,2.18c-0.2,2.83-0.37,8.17-1.72,11.33c-2.26,5.27-2.39,2.84-4.07,0.9" style="fill:none;stroke:#999;stroke-width:3" />
<path d="M1012.64,31.79c0.82,0.43,1.31,1.93,1.48,2.79c0.16,0.86,0,59.82-0.16,65.18" style="fill:none;stroke:#999;stroke-width:3" />
<path d="M1013.95,67.73c-3.94,8.12-14.5,20.52-22.7,25.12" style="fill:none;stroke:#999;stroke-width:3" />
<path d="M1016.23,71.81c5.07,2.4,8.87,6.19,11.72,11.58" style="fill:none;stroke:#999;stroke-width:3" />
<path d="M1037.8,41.39c1.09,0.49,2.33,0.57,3.6,0.49c9.36-0.63,20-2.44,30.04-3.38c1.25-0.12,2.34,0.08,2.98,0.43" style="fill:none;stroke:black;stroke-width:3" />
<circle cx="1037.8" cy="41.39" r="5" stroke-width="0" fill="#FF2A00" opacity="0.7" />
<path d="M1107.5,21.2c1.75,0.71,3.78,0.85,5.53,0.71c16.07-1.3,43.07-4.67,61.6-4.77c2.91-0.02,4.66,0.34,6.12,0.69" style="fill:none;stroke:#999;stroke-width:3" />
<path d="M1127.0,9.25c1.17,1.25,1.54,1.63,1.67,2.4c1.17,7.19,1.5,13.74,1.83,16.35" style="fill:none;stroke:#999;stroke-width:3" />
<path d="M1156.2,9.25c0.87,0.77,1.44,1.94,1.16,3.08c-0.87,3.47-1.44,9.24-2.7,13.67" style="fill:none;stroke:#999;stroke-width:3" />
<path d="M1105.8600000000001,43.64c1.16,0.53,2.47,0.52,3.81,0.53c7.83,0.08,17.69-1.02,28.31-2.05c1.32-0.13,2.47,0.09,3.15,0.47" style="fill:none;stroke:#999;stroke-width:3" />
<path d="M1105.62,53.9c0.74,0.61,1.55,1.61,1.74,2.72c0.24,1.46,2.38,12.13,2.38,13.98" style="fill:none;stroke:#999;stroke-width:3" />
<path d="M1107.27,55.08c5.93-0.28,28.74-3.69,29.79-3.9c2.25-0.45,3.04-0.05,2.89,2.18c-0.2,2.83-0.37,8.17-1.72,11.33c-2.26,5.27-2.39,2.84-4.07,0.9" style="fill:none;stroke:#999;stroke-width:3" />
<path d="M1121.6399999999999,31.79c0.82,0.43,1.31,1.93,1.48,2.79c0.16,0.86,0,59.82-0.16,65.18" style="fill:none;stroke:#999;stroke-width:3" />
<path d="M1122.95,67.73c-3.94,8.12-14.5,20.52-22.7,25.12" style="fill:none;stroke:#999;stroke-width:3" />
<path d="M1125.23,71.81c5.07,2.4,8.87,6.19,11.72,11.58" style="fill:none;stroke:#999;stroke-width:3" />
<path d="M1146.8,41.39c1.09,0.49,2.33,0.57,3.6,0.49c9.36-0.63,20-2.44,30.04-3.38c1.25-0.12,2.34,0.08,2.98,0.43" style="fill:none;stroke:#999;stroke-width:3" />
<path d="M1146.62,51.37c0.45,0.62,1.36,1.61,1.52,2.72c0.21,1.46,2.02,12.12,2.02,13.97" style="fill:none;stroke:black;stroke-width:3" />
<circle cx="1146.62" cy="51.37" r="5" stroke-width="0" fill="#FF2A00" opacity="0.7" />
<path d="M1216.5,21.2c1.75,0.71,3.78,0.85,5.53,0.71c16.07-1.3,43.07-4.67,61.6-4.77c2.91-0.02,4.66,0.34,6.12,0.69" style="fill:none;stroke:#999;stroke-width:3" />
<path d="M1236.0,9.25c1.17,1.25,1.54,1.63,1.67,2.4c1.17,7.19,1.5,13.74,1.83,16.35" style="fill:none;stroke:#999;stroke-width:3" />
<path d="M1265.2,9.25c0.87,0.77,1.44,1.94,1.16,3.08c-0.87,3.47-1.44,9.24-2.7,13.67" style="fill:none;stroke:#999;stroke-width:3" />
<path d="M1214.8600000000001,43.64c1.16,0.53,2.47,0.52,3.81,0.53c7.83,0.08,17.69-1.02,28.31-2.05c1.32-0.13,2.47,0.09,3.15,0.47" style="fill:none;stroke:#999;stroke-width:3" />
<path d="M1214.62,53.9c0.74,0.61,1.55,1.61,1.74,2.72c0.24,1.46,2.38,12.13,2.38,13.98" style="fill:none;stroke:#999;stroke-width:3" />
<path d="M1216.27,55.08c5.93-0.28,28.74-3.69,29.79-3.9c2.25-0.45,3.04-0.05,2.89,2.18c-0.2,2.83-0.37,8.17-1.72,11.33c-2.26,5.27-2.39,2.84-4.07,0.9" style="fill:none;stroke:#999;stroke-width:3" />
<path d="M1230.6399999999999,31.79c0.82,0.43,1.31,1.93,1.48,2.79c0.16,0.86,0,59.82-0.16,65.18" style="fill:none;stroke:#999;stroke-width:3" />
<path d="M1231.95,67.73c-3.94,8.12-14.5,20.52-22.7,25.12" style="fill:none;stroke:#999;stroke-width:3" />
<path d="M1234.23,71.81c5.07,2.4,8.87,6.19,11.72,11.58" style="fill:none;stroke:#999;stroke-width:3" />
<path d="M1255.8,41.39c1.09,0.49,2.33,0.57,3.6,0.49c9.36-0.63,20-2.44,30.04-3.38c1.25-0.12,2.34,0.08,2.98,0.43" style="fill:none;stroke:#999;stroke-width:3" />
<path d="M1255.62,51.37c0.45,0.62,1.36,1.61,1.52,2.72c0.21,1.46,2.02,12.12,2.02,13.97" style="fill:none;stroke:#999;stroke-width:3" />
<path d="M1256.72,52.83C1264.0,52 1286.53,49.15 1287.41,48.91c1.89-0.5,4.03,0.37,3.9,2.86c-0.17,3.17-1.15,7.47-2.29,11c-1.9,5.89-3.96,2.32-5.38,0.14" style="fill:none;stroke:black;stroke-width:3" />
<circle cx="1256.72" cy="52.83" r="5" stroke-width="0" fill="#FF2A00" opacity="0.7" />
<path d="M1325.5,21.2c1.75,0.71,3.78,0.85,5.53,0.71c16.07-1.3,43.07-4.67,61.6-4.77c2.91-0.02,4.66,0.34,6.12,0.69" style="fill:none;stroke:#999;stroke-width:3" />
<path d="M1345.0,9.25c1.17,1.25,1.54,1.63,1.67,2.4c1.17,7.19,1.5,13.74,1.83,16.35" style="fill:none;stroke:#999;stroke-width:3" />
<path d="M1374.2,9.25c0.87,0.77,1.44,1.94,1.16,3.08c-0.87,3.47-1.44,9.24-2.7,13.67" style="fill:none;stroke:#999;stroke-width:3" />
<path d="M1323.8600000000001,43.64c1.16,0.53,2.47,0.52,3.81,0.53c7.83,0.08,17.69-1.02,28.31-2.05c1.32-0.13,2.47,0.09,3.15,0.47" style="fill:none;stroke:#999;stroke-width:3" />
<path d="M1323.62,53.9c0.74,0.61,1.55,1.61,1.74,2.72c0.24,1.46,2.38,12.13,2.38,13.98" style="fill:none;stroke:#999;stroke-width:3" />
<path d="M1325.27,55.08c5.93-0.28,28.74-3.69,29.79-3.9c2.25-0.45,3.04-0.05,2.89,2.18c-0.2,2.83-0.37,8.17-1.72,11.33c-2.26,5.27-2.39,2.84-4.07,0.9" style="fill:none;stroke:#999;stroke-width:3" />
<path d="M1339.6399999999999,31.79c0.82,0.43,1.31,1.93,1.48,2.79c0.16,0.86,0,59.82-0.16,65.18" style="fill:none;stroke:#999;stroke-width:3" />
<path d="M1340.95,67.73c-3.94,8.12-14.5,20.52-22.7,25.12" style="fill:none;stroke:#999;stroke-width:3" />
<path d="M1343.23,71.81c5.07,2.4,8.87,6.19,11.72,11.58" style="fill:none;stroke:#999;stroke-width:3" />
<path d="M1364.8,41.39c1.09,0.49,2.33,0.57,3.6,0.49c9.36-0.63,20-2.44,30.04-3.38c1.25-0.12,2.34,0.08,2.98,0.43" style="fill:none;stroke:#999;stroke-width:3" />
<path d="M1364.62,51.37c0.45,0.62,1.36,1.61,1.52,2.72c0.21,1.46,2.02,12.12,2.02,13.97" style="fill:none;stroke:#999;stroke-width:3" />
<path d="M1365.72,52.83C1373.0,52 1395.53,49.15 1396.41,48.91c1.89-0.5,4.03,0.37,3.9,2.86c-0.17,3.17-1.15,7.47-2.29,11c-1.9,5.89-3.96,2.32-5.38,0.14" style="fill:none;stroke:#999;stroke-width:3" />
<path d="M1380.36,29c1.22,0.43,1.95,1.93,2.2,2.79s0,62.39-0.24,67.75" style="fill:none;stroke:black;stroke-width:3" />
<circle cx="1380.36" cy="29.0" r="5" stroke-width="0" fill="#FF2A00" opacity="0.7" />
<path d="M1434.5,21.2c1.75,0.71,3.78,0.85,5.53,0.71c16.07-1.3,43.07-4.67,61.6-4.77c2.91-0.02,4.66,0.34,6.12,0.69" style="fill:none;stroke:#999;stroke-width:3" />
<path d="M1454.0,9.25c1.17,1.25,1.54,1.63,1.67,2.4c1.17,7.19,1.5,13.74,1.83,16.35" style="fill:none;stroke:#999;stroke-width:3" />
<path d="M1483.2,9.25c0.87,0.77,1.44,1.94,1.16,3.08c-0.87,3.47-1.44,9.24-2.7,13.67" style="fill:none;stroke:#999;stroke-width:3" />
<path d="M1432.8600000000001,43.64c1.16,0.53,2.47,0.52,3.81,0.53c7.83,0.08,17.69-1.02,28.31-2.05c1.32-0.13,2.47,0.09,3.15,0.47" style="fill:none;stroke:#999;stroke-width:3" />
<path d="M1432.62,53.9c0.74,0.61,1.55,1.61,1.74,2.72c0.24,1.46,2.38,12.13,2.38,13.98" style="fill:none;stroke:#999;stroke-width:3" />
<path d="M1434.27,55.08c5.93-0.28,28.74-3.69,29.79-3.9c2.25-0.45,3.04-0.05,2.89,2.18c-0.2,2.83-0.37,8.17-1.72,11.33c-2.26,5.27-2.39,2.84-4.07,0.9" style="fill:none;stroke:#999;stroke-width:3" />
<path d="M1448.6399999999999,31.79c0.82,0.43,1.31,1.93,1.48,2.79c0.16,0.86,0,59.82-0.16,65.18" style="fill:none;stroke:#999;stroke-width:3" />
<path d="M1449.95,67.73c-3.94,8.12-14.5,20.52-22.7,25.12" style="fill:none;stroke:#999;stroke-width:3" />
<path d="M1452.23,71.81c5.07,2.4,8.87,6.19,11.72,11.58" style="fill:none;stroke:#999;stroke-width:3" />
<path d="M1473.8,41.39c1.09,0.49,2.33,0.57,3.6,0.49c9.36-0.63,20-2.44,30.04-3.38c1.25-0.12,2.34,0.08,2.98,0.43" style="fill:none;stroke:#999;stroke-width:3" />
<path d="M1473.62,51.37c0.45,0.62,1.36,1.61,1.52,2.72c0.21,1.46,2.02,12.12,2.02,13.97" style="fill:none;stroke:#999;stroke-width:3" />
<path d="M1474.72,52.83C1482.0,52 1504.53,49.15 1505.41,48.91c1.89-0.5,4.03,0.37,3.9,2.86c-0.17,3.17-1.15,7.47-2.29,11c-1.9,5.89-3.96,2.32-5.38,0.14" style="fill:none;stroke:#999;stroke-width:3" />
<path d="M1489.36,29c1.22,0.43,1.95,1.93,2.2,2.79s0,62.39-0.24,67.75" style="fill:none;stroke:#999;stroke-width:3" />
<path d="M1491.48,63.3c-4.92,9.4-18.11,23.77-28.35,29.08" style="fill:none;stroke:black;stroke-width:3" />
<circle cx="1491.48" cy="63.3" r="5" stroke-width="0" fill="#FF2A00" opacity="0.7" />
<path d="M1543.5,21.2c1.75,0.71,3.78,0.85,5.53,0.71c16.07-1.3,43.07-4.67,61.6-4.77c2.91-0.02,4.66,0.34,6.12,0.69" style="fill:none;stroke:#999;stroke-width:3" />
<path d="M1563.0,9.25c1.17,1.25,1.54,1.63,1.67,2.4c1.17,7.19,1.5,13.74,1.83,16.35" style="fill:none;stroke:#999;stroke-width:3" />
<path d="M1592.2,9.25c0.87,0.77,1.44,1.94,1.16,3.08c-0.87,3.47-1.44,9.24-2.7,13.67" style="fill:none;stroke:#999;stroke-width:3" />
<path d="M1541.8600000000001,43.64c1.16,0.53,2.47,0.52,3.81,0.53c7.83,0.08,17.69-1.02,28.31-2.05c1.32-0.13,2.47,0.09,3.15,0.47" style="fill:none;stroke:#999;stroke-width:3" />
<path d="M1541.62,53.9c0.74,0.61,1.55,1.61,1.74,2.72c0.24,1.46,2.38,12.13,2.38,13.98" style="fill:none;stroke:#999;stroke-width:3" />
<path d="M1543.27,55.08c5.93-0.28,28.74-3.69,29.79-3.9c2.25-0.45,3.04-0.05,2.89,2.18c-0.2,2.83-0.37,8.17-1.72,11.33c-2.26,5.27-2.39,2.84-4.07,0.9" style="fill:none;stroke:#999;stroke-width:3" />
<path d="M1557.6399999999999,31.79c0.82,0.43,1.31,1.93,1.48,2.79c0.16,0.86,0,59.82-0.16,65.18" style="fill:none;stroke:#999;stroke-width:3" />
<path d="M1558.95,67.73c-3.94,8.12-14.5,20.52-22.7,25.12" style="fill:none;stroke:#999;stroke-width:3" />
<path d="M1561.23,71.81c5.07,2.4,8.87,6.19,11.72,11.58" style="fill:none;stroke:#999;stroke-width:3" />
<path d="M1582.8,41.39c1.09,0.49,2.33,0.57,3.6,0.49c9.36-0.63,20-2.44,30.04-3.38c1.25-0.12,2.34,0.08,2.98,0.43" style="fill:none;stroke:#999;stroke-width:3" />
<path d="M1582.62,51.37c0.45,0.62,1.36,1.61,1.52,2.72c0.21,1.46,2.02,12.12,2.02,13.97" style="fill:none;stroke:#999;stroke-width:3" />
<path d="M1583.72,52.83C1591.0,52 1613.53,49.15 1614.41,48.91c1.89-0.5,4.03,0.37,3.9,2.86c-0.17,3.17-1.15,7.47-2.29,11c-1.9,5.89-3.96,2.32-5.38,0.14" style="fill:none;stroke:#999;stroke-width:3" />
<path d="M1598.36,29c1.22,0.43,1.95,1.93,2.2,2.79s0,62.39-0.24,67.75" style="fill:none;stroke:#999;stroke-width:3" />
<path d="M1600.48,63.3c-4.92,9.4-18.11,23.77-28.35,29.08" style="fill:none;stroke:#999;stroke-width:3" />
<path d="M1600.79,64.8c2.77,3.45,15.78,20.78,18.79,24.18c1.02,1.15,1.89,1.65,2.91,1.97" style="fill:none;stroke:black;stroke-width:3" />
<circle cx="1600.79" cy="64.8" r="5" stroke-width="0" fill="#FF2A00" opacity="0.7" />
</svg>