<!-- 08606 -->
<svg width="2071px" height="109px" viewBox="0 0 2071px 109px" xmlns="http://www.w3.org/2000/svg" xmlns:xlink="http://www.w3.org/1999/xlink" xml:space="preserve" version="1.1"  baseProfile="full">
<line x1="1" y1="1" x2="2070" y2="1" style="stroke:#ddd;stroke-width:2" />
<line x1="1" y1="1" x2="1" y2="108" style="stroke:#ddd;stroke-width:2" />
<line x1="1" y1="108" x2="2070" y2="108" style="stroke:#ddd;stroke-width:2" />
<line x1="2070" y1="1" x2="2070" y2="108" style="stroke:#ddd;stroke-width:2" />
<line x1="109" y1="1" x2="109" y2="108" style="stroke:#ddd;stroke-width:2" />
<line x1="218" y1="1" x2="218" y2="108" style="stroke:#ddd;stroke-width:2" />
<line x1="327" y1="1" x2="327" y2="108" style="stroke:#ddd;stroke-width:2" />
<line x1="436" y1="1" x2="436" y2="108" style="stroke:#ddd;stroke-width:2" />
<line x1="545" y1="1" x2="545" y2="108" style="stroke:#ddd;stroke-width:2" />
<line x1="654" y1="1" x2="654" y2="108" style="stroke:#ddd;stroke-width:2" />
<line x1="763" y1="1" x2="763" y2="108" style="stroke:#ddd;stroke-width:2" />
<line x1="872" y1="1" x2="872" y2="108" style="stroke:#ddd;stroke-width:2" />
<line x1="981" y1="1" x2="981" y2="108" style="stroke:#ddd;stroke-width:2" />
<line x1="1090" y1="1" x2="1090" y2="108" style="stroke:#ddd;stroke-width:2" />
<line x1="1199" y1="1" x2="1199" y2="108" style="stroke:#ddd;stroke-width:2" />
<line x1="1308" y1="1" x2="1308" y2="108" style="stroke:#ddd;stroke-width:2" />
<line x1="1417" y1="1" x2="1417" y2="108" style="stroke:#ddd;stroke-width:2" />
<line x1="1526" y1="1" x2="1526" y2="108" style="stroke:#ddd;stroke-width:2" />
<line x1="1635" y1="1" x2="1635" y2="108" style="stroke:#ddd;stroke-width:2" />
<line x1="1744" y1="1" x2="1744" y2="108" style="stroke:#ddd;stroke-width:2" />
<line x1="1853" y1="1" x2="1853" y2="108" style="stroke:#ddd;stroke-width:2" />
<line x1="1962" y1="1" x2="1962" y2="108" style="stroke:#ddd;stroke-width:2" />
<line x1="1" y1="54" x2="2070" y2="54" style="stroke:#ddd;stroke-width:2;stroke-dasharray:3 3" />
<line x1="55" y1="1" x2="55" y2="108" style="stroke:#ddd;stroke-width:2;stroke-dasharray:3 3" />
<line x1="164" y1="1" x2="164" y2="108" style="stroke:#ddd;stroke-width:2;stroke-dasharray:3 3" />
<line x1="273" y1="1" x2="273" y2="108" style="stroke:#ddd;stroke-width:2;stroke-dasharray:3 3" />
<line x1="382" y1="1" x2="382" y2="108" style="stroke:#ddd;stroke-width:2;stroke-dasharray:3 3" />
<line x1="491" y1="1" x2="491" y2="108" style="stroke:#ddd;stroke-width:2;stroke-dasharray:3 3" />
<line x1="600" y1="1" x2="600" y2="108" style="stroke:#ddd;stroke-width:2;stroke-dasharray:3 3" />
<line x1="709" y1="1" x2="709" y2="108" style="stroke:#ddd;stroke-width:2;stroke-dasharray:3 3" />
<line x1="818" y1="1" x2="818" y2="108" style="stroke:#ddd;stroke-width:2;stroke-dasharray:3 3" />
<line x1="927" y1="1" x2="927" y2="108" style="stroke:#ddd;stroke-width:2;stroke-dasharray:3 3" />
<line x1="1036" y1="1" x2="1036" y2="108" style="stroke:#ddd;stroke-width:2;stroke-dasharray:3 3" />
<line x1="1145" y1="1" x2="1145" y2="108" style="stroke:#ddd;stroke-width:2;stroke-dasharray:3 3" />
<line x1="1254" y1="1" x2="1254" y2="108" style="stroke:#ddd;stroke-width:2;stroke-dasharray:3 3" />
<line x1="1363" y1="1" x2="1363" y2="108" style="stroke:#ddd;stroke-width:2;stroke-dasharray:3 3" />
<line x1="1472" y1="1" x2="1472" y2="108" style="stroke:#ddd;stroke-width:2;stroke-dasharray:3 3" />
<line x1="1581" y1="1" x2="1581" y2="108" style="stroke:#ddd;stroke-width:2;stroke-dasharray:3 3" />
<line x1="1690" y1="1" x2="1690" y2="108" style="stroke:#ddd;stroke-width:2;stroke-dasharray:3 3" />
<line x1="1799" y1="1" x2="1799" y2="108" style="stroke:#ddd;stroke-width:2;stroke-dasharray:3 3" />
<line x1="1908" y1="1" x2="1908" y2="108" style="stroke:#ddd;stroke-width:2;stroke-dasharray:3 3" />
<line x1="2017" y1="1" x2="2017" y2="108" style="stroke:#ddd;stroke-width:2;stroke-dasharray:3 3" />
<path d="M21.0,21.27c1.56,0.53,3.37,0.63,4.93,0.53c14.31-0.96,39.37-3.96,55.87-4.03c2.6-0.01,4.15,0.25,5.45,0.51" style="fill:none;stroke:black;stroke-width:3" />
<circle cx="21.0" cy="21.27" r="5" stroke-width="0" fill="#FF2A00" opacity="0.7" />
<path d="M130.0,21.27c1.56,0.53,3.37,0.63,4.93,0.53c14.31-0.96,39.37-3.96,55.87-4.03c2.6-0.01,4.15,0.25,5.45,0.51" style="fill:none;stroke:#999;stroke-width:3" />
<path d="M145.32999999999998,12.25c1.36,1.12,1.8,1.46,1.95,2.14c1.36,6.43,1.75,12.27,2.14,14.61" style="fill:none;stroke:black;stroke-width:3" />
<circle cx="145.32999999999998" cy="12.25" r="5" stroke-width="0" fill="#FF2A00" opacity="0.7" />
<path d="M239.0,21.27c1.56,0.53,3.37,0.63,4.93,0.53c14.31-0.96,39.37-3.96,55.87-4.03c2.6-0.01,4.15,0.25,5.45,0.51" style="fill:none;stroke:#999;stroke-width:3" />
<path d="M254.32999999999998,12.25c1.36,1.12,1.8,1.46,1.95,2.14c1.36,6.43,1.75,12.27,2.14,14.61" style="fill:none;stroke:#999;stroke-width:3" />
<path d="M284.63,10.25c0.75,0.75,0.99,1.84,0.77,2.99C284.5,18 283.47,21.7 281.76,26" style="fill:none;stroke:black;stroke-width:3" />
<circle cx="284.63" cy="10.25" r="5" stroke-width="0" fill="#FF2A00" opacity="0.7" />
<path d="M348.0,21.27c1.56,0.53,3.37,0.63,4.93,0.53c14.31-0.96,39.37-3.96,55.87-4.03c2.6-0.01,4.15,0.25,5.45,0.51" style="fill:none;stroke:#999;stroke-width:3" />
<path d="M363.33,12.25c1.36,1.12,1.8,1.46,1.95,2.14c1.36,6.43,1.75,12.27,2.14,14.61" style="fill:none;stroke:#999;stroke-width:3" />
<path d="M393.63,10.25c0.75,0.75,0.99,1.84,0.77,2.99C393.5,18 392.47,21.7 390.76,26" style="fill:none;stroke:#999;stroke-width:3" />
<path d="M377.83,24.58c0.95,0.76,1.69,1.64,1.69,4.15c0,4.88-0.02,5.54-0.02,9.64" style="fill:none;stroke:black;stroke-width:3" />
<circle cx="377.83" cy="24.58" r="5" stroke-width="0" fill="#FF2A00" opacity="0.7" />
<path d="M457.0,21.27c1.56,0.53,3.37,0.63,4.93,0.53c14.31-0.96,39.37-3.96,55.87-4.03c2.6-0.01,4.15,0.25,5.45,0.51" style="fill:none;stroke:#999;stroke-width:3" />
<path d="M472.33,12.25c1.36,1.12,1.8,1.46,1.95,2.14c1.36,6.43,1.75,12.27,2.14,14.61" style="fill:none;stroke:#999;stroke-width:3" />
<path d="M502.63,10.25c0.75,0.75,0.99,1.84,0.77,2.99C502.5,18 501.47,21.7 499.76,26" style="fill:none;stroke:#999;stroke-width:3" />
<path d="M486.83,24.58c0.95,0.76,1.69,1.64,1.69,4.15c0,4.88-0.02,5.54-0.02,9.64" style="fill:none;stroke:#999;stroke-width:3" />
<path d="M490.04,31.42c5.91-0.64,14.35-1.47,20.34-1.97c1.97-0.17,3.18,0.15,4.17,0.31" style="fill:none;stroke:black;stroke-width:3" />
<circle cx="490.04" cy="31.42" r="5" stroke-width="0" fill="#FF2A00" opacity="0.7" />
<path d="M566.0,21.27c1.56,0.53,3.37,0.63,4.93,0.53c14.31-0.96,39.37-3.96,55.87-4.03c2.6-0.01,4.15,0.25,5.45,0.51" style="fill:none;stroke:#999;stroke-width:3" />
<path d="M581.3299999999999,12.25c1.36,1.12,1.8,1.46,1.95,2.14c1.36,6.43,1.75,12.27,2.14,14.61" style="fill:none;stroke:#999;stroke-width:3" />
<path d="M611.63,10.25c0.75,0.75,0.99,1.84,0.77,2.99C611.5,18 610.47,21.7 608.76,26" style="fill:none;stroke:#999;stroke-width:3" />
<path d="M595.8299999999999,24.58c0.95,0.76,1.69,1.64,1.69,4.15c0,4.88-0.02,5.54-0.02,9.64" style="fill:none;stroke:#999;stroke-width:3" />
<path d="M599.04,31.42c5.91-0.64,14.35-1.47,20.34-1.97c1.97-0.17,3.18,0.15,4.17,0.31" style="fill:none;stroke:#999;stroke-width:3" />
<path d="M571.23,39.06c0.63,0.52,0.84,3.38,0.69,5.26C570.25,65.75 570.0,82.5 557.95,98.05" style="fill:none;stroke:black;stroke-width:3" />
<circle cx="571.23" cy="39.06" r="5" stroke-width="0" fill="#FF2A00" opacity="0.7" />
<path d="M675.0,21.27c1.56,0.53,3.37,0.63,4.93,0.53c14.31-0.96,39.37-3.96,55.87-4.03c2.6-0.01,4.15,0.25,5.45,0.51" style="fill:none;stroke:#999;stroke-width:3" />
<path d="M690.3299999999999,12.25c1.36,1.12,1.8,1.46,1.95,2.14c1.36,6.43,1.75,12.27,2.14,14.61" style="fill:none;stroke:#999;stroke-width:3" />
<path d="M720.63,10.25c0.75,0.75,0.99,1.84,0.77,2.99C720.5,18 719.47,21.7 717.76,26" style="fill:none;stroke:#999;stroke-width:3" />
<path d="M704.8299999999999,24.58c0.95,0.76,1.69,1.64,1.69,4.15c0,4.88-0.02,5.54-0.02,9.64" style="fill:none;stroke:#999;stroke-width:3" />
<path d="M708.04,31.42c5.91-0.64,14.35-1.47,20.34-1.97c1.97-0.17,3.18,0.15,4.17,0.31" style="fill:none;stroke:#999;stroke-width:3" />
<path d="M680.23,39.06c0.63,0.52,0.84,3.38,0.69,5.26C679.25,65.75 679.0,82.5 666.95,98.05" style="fill:none;stroke:#999;stroke-width:3" />
<path d="M681.24,41.47c1.2,0.22,2.37,0.05,4.35-0.09c9.66-0.64,38.3-4.4,50.22-4.59c12.57-0.2,4.2,6.05,1.07,8.52" style="fill:none;stroke:black;stroke-width:3" />
<circle cx="681.24" cy="41.47" r="5" stroke-width="0" fill="#FF2A00" opacity="0.7" />
<path d="M784.0,21.27c1.56,0.53,3.37,0.63,4.93,0.53c14.31-0.96,39.37-3.96,55.87-4.03c2.6-0.01,4.15,0.25,5.45,0.51" style="fill:none;stroke:#999;stroke-width:3" />
<path d="M799.3299999999999,12.25c1.36,1.12,1.8,1.46,1.95,2.14c1.36,6.43,1.75,12.27,2.14,14.61" style="fill:none;stroke:#999;stroke-width:3" />
<path d="M829.63,10.25c0.75,0.75,0.99,1.84,0.77,2.99C829.5,18 828.47,21.7 826.76,26" style="fill:none;stroke:#999;stroke-width:3" />
<path d="M813.8299999999999,24.58c0.95,0.76,1.69,1.64,1.69,4.15c0,4.88-0.02,5.54-0.02,9.64" style="fill:none;stroke:#999;stroke-width:3" />
<path d="M817.04,31.42c5.91-0.64,14.35-1.47,20.34-1.97c1.97-0.17,3.18,0.15,4.17,0.31" style="fill:none;stroke:#999;stroke-width:3" />
<path d="M789.23,39.06c0.63,0.52,0.84,3.38,0.69,5.26C788.25,65.75 788.0,82.5 775.95,98.05" style="fill:none;stroke:#999;stroke-width:3" />
<path d="M790.24,41.47c1.2,0.22,2.37,0.05,4.35-0.09c9.66-0.64,38.3-4.4,50.22-4.59c12.57-0.2,4.2,6.05,1.07,8.52" style="fill:none;stroke:#999;stroke-width:3" />
<path d="M796.83,49.14c0.89,0.3,3.06,0.35,3.95,0.3c8.85-0.46,24.69-3.43,34.26-4.18c1.47-0.11,2.36,0.15,3.1,0.3" style="fill:none;stroke:black;stroke-width:3" />
<circle cx="796.83" cy="49.14" r="5" stroke-width="0" fill="#FF2A00" opacity="0.7" />
<path d="M893.0,21.27c1.56,0.53,3.37,0.63,4.93,0.53c14.31-0.96,39.37-3.96,55.87-4.03c2.6-0.01,4.15,0.25,5.45,0.51" style="fill:none;stroke:#999;stroke-width:3" />
<path d="M908.3299999999999,12.25c1.36,1.12,1.8,1.46,1.95,2.14c1.36,6.43,1.75,12.27,2.14,14.61" style="fill:none;stroke:#999;stroke-width:3" />
<path d="M938.63,10.25c0.75,0.75,0.99,1.84,0.77,2.99C938.5,18 937.47,21.7 935.76,26" style="fill:none;stroke:#999;stroke-width:3" />
<path d="M922.8299999999999,24.58c0.95,0.76,1.69,1.64,1.69,4.15c0,4.88-0.02,5.54-0.02,9.64" style="fill:none;stroke:#999;stroke-width:3" />
<path d="M926.04,31.42c5.91-0.64,14.35-1.47,20.34-1.97c1.97-0.17,3.18,0.15,4.17,0.31" style="fill:none;stroke:#999;stroke-width:3" />
<path d="M898.23,39.06c0.63,0.52,0.84,3.38,0.69,5.26C897.25,65.75 897.0,82.5 884.95,98.05" style="fill:none;stroke:#999;stroke-width:3" />
<path d="M899.24,41.47c1.2,0.22,2.37,0.05,4.35-0.09c9.66-0.64,38.3-4.4,50.22-4.59c12.57-0.2,4.2,6.05,1.07,8.52" style="fill:none;stroke:#999;stroke-width:3" />
<path d="M905.83,49.14c0.89,0.3,3.06,0.35,3.95,0.3c8.85-0.46,24.69-3.43,34.26-4.18c1.47-0.11,2.36,0.15,3.1,0.3" style="fill:none;stroke:#999;stroke-width:3" />
<path d="M923.64,39.76c0.61,0.99,0.44,2.11,0.44,2.7c0,4.74-0.12,3.42-0.12,5.53c0,6.29,3.43,5.82,12.28,5.82c3.3,0,12.98-0.48,15.82-1.33" style="fill:none;stroke:black;stroke-width:3" />
<circle cx="923.64" cy="39.76" r="5" stroke-width="0" fill="#FF2A00" opacity="0.7" />
<path d="M1002.0,21.27c1.56,0.53,3.37,0.63,4.93,0.53c14.31-0.96,39.37-3.96,55.87-4.03c2.6-0.01,4.15,0.25,5.45,0.51" style="fill:none;stroke:#999;stroke-width:3" />
<path d="M1017.3299999999999,12.25c1.36,1.12,1.8,1.46,1.95,2.14c1.36,6.43,1.75,12.27,2.14,14.61" style="fill:none;stroke:#999;stroke-width:3" />
<path d="M1047.63,10.25c0.75,0.75,0.99,1.84,0.77,2.99C1047.5,18 1046.47,21.7 1044.76,26" style="fill:none;stroke:#999;stroke-width:3" />
<path d="M1031.83,24.58c0.95,0.76,1.69,1.64,1.69,4.15c0,4.88-0.02,5.54-0.02,9.64" style="fill:none;stroke:#999;stroke-width:3" />
<path d="M1035.04,31.42c5.91-0.64,14.35-1.47,20.34-1.97c1.97-0.17,3.18,0.15,4.17,0.31" style="fill:none;stroke:#999;stroke-width:3" />
<path d="M1007.23,39.06c0.63,0.52,0.84,3.38,0.69,5.26C1006.25,65.75 1006.0,82.5 993.95,98.05" style="fill:none;stroke:#999;stroke-width:3" />
<path d="M1008.24,41.47c1.2,0.22,2.37,0.05,4.35-0.09c9.66-0.64,38.3-4.4,50.22-4.59c12.57-0.2,4.2,6.05,1.07,8.52" style="fill:none;stroke:#999;stroke-width:3" />
<path d="M1014.83,49.14c0.89,0.3,3.06,0.35,3.95,0.3c8.85-0.46,24.69-3.43,34.26-4.18c1.47-0.11,2.36,0.15,3.1,0.3" style="fill:none;stroke:#999;stroke-width:3" />
<path d="M1032.6399999999999,39.76c0.61,0.99,0.44,2.11,0.44,2.7c0,4.74-0.12,3.42-0.12,5.53c0,6.29,3.43,5.82,12.28,5.82c3.3,0,12.98-0.48,15.82-1.33" style="fill:none;stroke:#999;stroke-width:3" />
<path d="M1017.47,61.54c0.28,0.34,0.8,1.47,0.95,1.88c1.23,3.41,2.34,7.78,3.07,14.06" style="fill:none;stroke:black;stroke-width:3" />
<circle cx="1017.47" cy="61.54" r="5" stroke-width="0" fill="#FF2A00" opacity="0.7" />
<path d="M1111.0,21.27c1.56,0.53,3.37,0.63,4.93,0.53c14.31-0.96,39.37-3.96,55.87-4.03c2.6-0.01,4.15,0.25,5.45,0.51" style="fill:none;stroke:#999;stroke-width:3" />
<path d="M1126.33,12.25c1.36,1.12,1.8,1.46,1.95,2.14c1.36,6.43,1.75,12.27,2.14,14.61" style="fill:none;stroke:#999;stroke-width:3" />
<path d="M1156.63,10.25c0.75,0.75,0.99,1.84,0.77,2.99C1156.5,18 1155.47,21.7 1153.76,26" style="fill:none;stroke:#999;stroke-width:3" />
<path d="M1140.83,24.58c0.95,0.76,1.69,1.64,1.69,4.15c0,4.88-0.02,5.54-0.02,9.64" style="fill:none;stroke:#999;stroke-width:3" />
<path d="M1144.04,31.42c5.91-0.64,14.35-1.47,20.34-1.97c1.97-0.17,3.18,0.15,4.17,0.31" style="fill:none;stroke:#999;stroke-width:3" />
<path d="M1116.23,39.06c0.63,0.52,0.84,3.38,0.69,5.26C1115.25,65.75 1115.0,82.5 1102.95,98.05" style="fill:none;stroke:#999;stroke-width:3" />
<path d="M1117.24,41.47c1.2,0.22,2.37,0.05,4.35-0.09c9.66-0.64,38.3-4.4,50.22-4.59c12.57-0.2,4.2,6.05,1.07,8.52" style="fill:none;stroke:#999;stroke-width:3" />
<path d="M1123.83,49.14c0.89,0.3,3.06,0.35,3.95,0.3c8.85-0.46,24.69-3.43,34.26-4.18c1.47-0.11,2.36,0.15,3.1,0.3" style="fill:none;stroke:#999;stroke-width:3" />
<path d="M1141.6399999999999,39.76c0.61,0.99,0.44,2.11,0.44,2.7c0,4.74-0.12,3.42-0.12,5.53c0,6.29,3.43,5.82,12.28,5.82c3.3,0,12.98-0.48,15.82-1.33" style="fill:none;stroke:#999;stroke-width:3" />
<path d="M1126.47,61.54c0.28,0.34,0.8,1.47,0.95,1.88c1.23,3.41,2.34,7.78,3.07,14.06" style="fill:none;stroke:#999;stroke-width:3" />
<path d="M1128.29,62.51c11.87-1,30.76-3.22,38.09-3.11c1.79,0.03,2.87,1.66,2.87,2.73c0,3.38-1.83,7.94-3.74,14.21" style="fill:none;stroke:black;stroke-width:3" />
<circle cx="1128.29" cy="62.51" r="5" stroke-width="0" fill="#FF2A00" opacity="0.7" />
<path d="M1220.0,21.27c1.56,0.53,3.37,0.63,4.93,0.53c14.31-0.96,39.37-3.96,55.87-4.03c2.6-0.01,4.15,0.25,5.45,0.51" style="fill:none;stroke:#999;stroke-width:3" />
<path d="M1235.33,12.25c1.36,1.12,1.8,1.46,1.95,2.14c1.36,6.43,1.75,12.27,2.14,14.61" style="fill:none;stroke:#999;stroke-width:3" />
<path d="M1265.63,10.25c0.75,0.75,0.99,1.84,0.77,2.99C1265.5,18 1264.47,21.7 1262.76,26" style="fill:none;stroke:#999;stroke-width:3" />
<path d="M1249.83,24.58c0.95,0.76,1.69,1.64,1.69,4.15c0,4.88-0.02,5.54-0.02,9.64" style="fill:none;stroke:#999;stroke-width:3" />
<path d="M1253.04,31.42c5.91-0.64,14.35-1.47,20.34-1.97c1.97-0.17,3.18,0.15,4.17,0.31" style="fill:none;stroke:#999;stroke-width:3" />
<path d="M1225.23,39.06c0.63,0.52,0.84,3.38,0.69,5.26C1224.25,65.75 1224.0,82.5 1211.95,98.05" style="fill:none;stroke:#999;stroke-width:3" />
<path d="M1226.24,41.47c1.2,0.22,2.37,0.05,4.35-0.09c9.66-0.64,38.3-4.4,50.22-4.59c12.57-0.2,4.2,6.05,1.07,8.52" style="fill:none;stroke:#999;stroke-width:3" />
<path d="M1232.83,49.14c0.89,0.3,3.06,0.35,3.95,0.3c8.85-0.46,24.69-3.43,34.26-4.18c1.47-0.11,2.36,0.15,3.1,0.3" style="fill:none;stroke:#999;stroke-width:3" />
<path d="M1250.6399999999999,39.76c0.61,0.99,0.44,2.11,0.44,2.7c0,4.74-0.12,3.42-0.12,5.53c0,6.29,3.43,5.82,12.28,5.82c3.3,0,12.98-0.48,15.82-1.33" style="fill:none;stroke:#999;stroke-width:3" />
<path d="M1235.47,61.54c0.28,0.34,0.8,1.47,0.95,1.88c1.23,3.41,2.34,7.78,3.07,14.06" style="fill:none;stroke:#999;stroke-width:3" />
<path d="M1237.29,62.51c11.87-1,30.76-3.22,38.09-3.11c1.79,0.03,2.87,1.66,2.87,2.73c0,3.38-1.83,7.94-3.74,14.21" style="fill:none;stroke:#999;stroke-width:3" />
<path d="M1255.0,61.99c0.83,0.69,1.15,1.19,1.14,1.79c-0.02,3.96,0.11,10.37,0.11,11.8" style="fill:none;stroke:black;stroke-width:3" />
<circle cx="1255.0" cy="61.99" r="5" stroke-width="0" fill="#FF2A00" opacity="0.7" />
<path d="M1329.0,21.27c1.56,0.53,3.37,0.63,4.93,0.53c14.31-0.96,39.37-3.96,55.87-4.03c2.6-0.01,4.15,0.25,5.45,0.51" style="fill:none;stroke:#999;stroke-width:3" />
<path d="M1344.33,12.25c1.36,1.12,1.8,1.46,1.95,2.14c1.36,6.43,1.75,12.27,2.14,14.61" style="fill:none;stroke:#999;stroke-width:3" />
<path d="M1374.63,10.25c0.75,0.75,0.99,1.84,0.77,2.99C1374.5,18 1373.47,21.7 1371.76,26" style="fill:none;stroke:#999;stroke-width:3" />
<path d="M1358.83,24.58c0.95,0.76,1.69,1.64,1.69,4.15c0,4.88-0.02,5.54-0.02,9.64" style="fill:none;stroke:#999;stroke-width:3" />
<path d="M1362.04,31.42c5.91-0.64,14.35-1.47,20.34-1.97c1.97-0.17,3.18,0.15,4.17,0.31" style="fill:none;stroke:#999;stroke-width:3" />
<path d="M1334.23,39.06c0.63,0.52,0.84,3.38,0.69,5.26C1333.25,65.75 1333.0,82.5 1320.95,98.05" style="fill:none;stroke:#999;stroke-width:3" />
<path d="M1335.24,41.47c1.2,0.22,2.37,0.05,4.35-0.09c9.66-0.64,38.3-4.4,50.22-4.59c12.57-0.2,4.2,6.05,1.07,8.52" style="fill:none;stroke:#999;stroke-width:3" />
<path d="M1341.83,49.14c0.89,0.3,3.06,0.35,3.95,0.3c8.85-0.46,24.69-3.43,34.26-4.18c1.47-0.11,2.36,0.15,3.1,0.3" style="fill:none;stroke:#999;stroke-width:3" />
<path d="M1359.6399999999999,39.76c0.61,0.99,0.44,2.11,0.44,2.7c0,4.74-0.12,3.42-0.12,5.53c0,6.29,3.43,5.82,12.28,5.82c3.3,0,12.98-0.48,15.82-1.33" style="fill:none;stroke:#999;stroke-width:3" />
<path d="M1344.47,61.54c0.28,0.34,0.8,1.47,0.95,1.88c1.23,3.41,2.34,7.78,3.07,14.06" style="fill:none;stroke:#999;stroke-width:3" />
<path d="M1346.29,62.51c11.87-1,30.76-3.22,38.09-3.11c1.79,0.03,2.87,1.66,2.87,2.73c0,3.38-1.83,7.94-3.74,14.21" style="fill:none;stroke:#999;stroke-width:3" />
<path d="M1364.0,61.99c0.83,0.69,1.15,1.19,1.14,1.79c-0.02,3.96,0.11,10.37,0.11,11.8" style="fill:none;stroke:#999;stroke-width:3" />
<path d="M1348.04,69.43c3.2-0.16,34.37-2.09,37.01-2.09" style="fill:none;stroke:black;stroke-width:3" />
<circle cx="1348.04" cy="69.43" r="5" stroke-width="0" fill="#FF2A00" opacity="0.7" />
<path d="M1438.0,21.27c1.56,0.53,3.37,0.63,4.93,0.53c14.31-0.96,39.37-3.96,55.87-4.03c2.6-0.01,4.15,0.25,5.45,0.51" style="fill:none;stroke:#999;stroke-width:3" />
<path d="M1453.33,12.25c1.36,1.12,1.8,1.46,1.95,2.14c1.36,6.43,1.75,12.27,2.14,14.61" style="fill:none;stroke:#999;stroke-width:3" />
<path d="M1483.63,10.25c0.75,0.75,0.99,1.84,0.77,2.99C1483.5,18 1482.47,21.7 1480.76,26" style="fill:none;stroke:#999;stroke-width:3" />
<path d="M1467.83,24.58c0.95,0.76,1.69,1.64,1.69,4.15c0,4.88-0.02,5.54-0.02,9.64" style="fill:none;stroke:#999;stroke-width:3" />
<path d="M1471.04,31.42c5.91-0.64,14.35-1.47,20.34-1.97c1.97-0.17,3.18,0.15,4.17,0.31" style="fill:none;stroke:#999;stroke-width:3" />
<path d="M1443.23,39.06c0.63,0.52,0.84,3.38,0.69,5.26C1442.25,65.75 1442.0,82.5 1429.95,98.05" style="fill:none;stroke:#999;stroke-width:3" />
<path d="M1444.24,41.47c1.2,0.22,2.37,0.05,4.35-0.09c9.66-0.64,38.3-4.4,50.22-4.59c12.57-0.2,4.2,6.05,1.07,8.52" style="fill:none;stroke:#999;stroke-width:3" />
<path d="M1450.83,49.14c0.89,0.3,3.06,0.35,3.95,0.3c8.85-0.46,24.69-3.43,34.26-4.18c1.47-0.11,2.36,0.15,3.1,0.3" style="fill:none;stroke:#999;stroke-width:3" />
<path d="M1468.6399999999999,39.76c0.61,0.99,0.44,2.11,0.44,2.7c0,4.74-0.12,3.42-0.12,5.53c0,6.29,3.43,5.82,12.28,5.82c3.3,0,12.98-0.48,15.82-1.33" style="fill:none;stroke:#999;stroke-width:3" />
<path d="M1453.47,61.54c0.28,0.34,0.8,1.47,0.95,1.88c1.23,3.41,2.34,7.78,3.07,14.06" style="fill:none;stroke:#999;stroke-width:3" />
<path d="M1455.29,62.51c11.87-1,30.76-3.22,38.09-3.11c1.79,0.03,2.87,1.66,2.87,2.73c0,3.38-1.83,7.94-3.74,14.21" style="fill:none;stroke:#999;stroke-width:3" />
<path d="M1473.0,61.99c0.83,0.69,1.15,1.19,1.14,1.79c-0.02,3.96,0.11,10.37,0.11,11.8" style="fill:none;stroke:#999;stroke-width:3" />
<path d="M1457.04,69.43c3.2-0.16,34.37-2.09,37.01-2.09" style="fill:none;stroke:#999;stroke-width:3" />
<path d="M1458.0,76.14c7.06,0,23.84-1.67,33.58-1.76" style="fill:none;stroke:black;stroke-width:3" />
<circle cx="1458.0" cy="76.14" r="5" stroke-width="0" fill="#FF2A00" opacity="0.7" />
<path d="M1547.0,21.27c1.56,0.53,3.37,0.63,4.93,0.53c14.31-0.96,39.37-3.96,55.87-4.03c2.6-0.01,4.15,0.25,5.45,0.51" style="fill:none;stroke:#999;stroke-width:3" />
<path d="M1562.33,12.25c1.36,1.12,1.8,1.46,1.95,2.14c1.36,6.43,1.75,12.27,2.14,14.61" style="fill:none;stroke:#999;stroke-width:3" />
<path d="M1592.63,10.25c0.75,0.75,0.99,1.84,0.77,2.99C1592.5,18 1591.47,21.7 1589.76,26" style="fill:none;stroke:#999;stroke-width:3" />
<path d="M1576.83,24.58c0.95,0.76,1.69,1.64,1.69,4.15c0,4.88-0.02,5.54-0.02,9.64" style="fill:none;stroke:#999;stroke-width:3" />
<path d="M1580.04,31.42c5.91-0.64,14.35-1.47,20.34-1.97c1.97-0.17,3.18,0.15,4.17,0.31" style="fill:none;stroke:#999;stroke-width:3" />
<path d="M1552.23,39.06c0.63,0.52,0.84,3.38,0.69,5.26C1551.25,65.75 1551.0,82.5 1538.95,98.05" style="fill:none;stroke:#999;stroke-width:3" />
<path d="M1553.24,41.47c1.2,0.22,2.37,0.05,4.35-0.09c9.66-0.64,38.3-4.4,50.22-4.59c12.57-0.2,4.2,6.05,1.07,8.52" style="fill:none;stroke:#999;stroke-width:3" />
<path d="M1559.83,49.14c0.89,0.3,3.06,0.35,3.95,0.3c8.85-0.46,24.69-3.43,34.26-4.18c1.47-0.11,2.36,0.15,3.1,0.3" style="fill:none;stroke:#999;stroke-width:3" />
<path d="M1577.6399999999999,39.76c0.61,0.99,0.44,2.11,0.44,2.7c0,4.74-0.12,3.42-0.12,5.53c0,6.29,3.43,5.82,12.28,5.82c3.3,0,12.98-0.48,15.82-1.33" style="fill:none;stroke:#999;stroke-width:3" />
<path d="M1562.47,61.54c0.28,0.34,0.8,1.47,0.95,1.88c1.23,3.41,2.34,7.78,3.07,14.06" style="fill:none;stroke:#999;stroke-width:3" />
<path d="M1564.29,62.51c11.87-1,30.76-3.22,38.09-3.11c1.79,0.03,2.87,1.66,2.87,2.73c0,3.38-1.83,7.94-3.74,14.21" style="fill:none;stroke:#999;stroke-width:3" />
<path d="M1582.0,61.99c0.83,0.69,1.15,1.19,1.14,1.79c-0.02,3.96,0.11,10.37,0.11,11.8" style="fill:none;stroke:#999;stroke-width:3" />
<path d="M1566.04,69.43c3.2-0.16,34.37-2.09,37.01-2.09" style="fill:none;stroke:#999;stroke-width:3" />
<path d="M1567.0,76.14c7.06,0,23.84-1.67,33.58-1.76" style="fill:none;stroke:#999;stroke-width:3" />
<path d="M1560.46,83.12c0.62,0.65,1.42,1.36,1.55,1.91c1.04,4.4,0.59,5.72,1.54,11.54" style="fill:none;stroke:black;stroke-width:3" />
<circle cx="1560.46" cy="83.12" r="5" stroke-width="0" fill="#FF2A00" opacity="0.7" />
<path d="M1656.0,21.27c1.56,0.53,3.37,0.63,4.93,0.53c14.31-0.96,39.37-3.96,55.87-4.03c2.6-0.01,4.15,0.25,5.45,0.51" style="fill:none;stroke:#999;stroke-width:3" />
<path d="M1671.33,12.25c1.36,1.12,1.8,1.46,1.95,2.14c1.36,6.43,1.75,12.27,2.14,14.61" style="fill:none;stroke:#999;stroke-width:3" />
<path d="M1701.63,10.25c0.75,0.75,0.99,1.84,0.77,2.99C1701.5,18 1700.47,21.7 1698.76,26" style="fill:none;stroke:#999;stroke-width:3" />
<path d="M1685.83,24.58c0.95,0.76,1.69,1.64,1.69,4.15c0,4.88-0.02,5.54-0.02,9.64" style="fill:none;stroke:#999;stroke-width:3" />
<path d="M1689.04,31.42c5.91-0.64,14.35-1.47,20.34-1.97c1.97-0.17,3.18,0.15,4.17,0.31" style="fill:none;stroke:#999;stroke-width:3" />
<path d="M1661.23,39.06c0.63,0.52,0.84,3.38,0.69,5.26C1660.25,65.75 1660.0,82.5 1647.95,98.05" style="fill:none;stroke:#999;stroke-width:3" />
<path d="M1662.24,41.47c1.2,0.22,2.37,0.05,4.35-0.09c9.66-0.64,38.3-4.4,50.22-4.59c12.57-0.2,4.2,6.05,1.07,8.52" style="fill:none;stroke:#999;stroke-width:3" />
<path d="M1668.83,49.14c0.89,0.3,3.06,0.35,3.95,0.3c8.85-0.46,24.69-3.43,34.26-4.18c1.47-0.11,2.36,0.15,3.1,0.3" style="fill:none;stroke:#999;stroke-width:3" />
<path d="M1686.6399999999999,39.76c0.61,0.99,0.44,2.11,0.44,2.7c0,4.74-0.12,3.42-0.12,5.53c0,6.29,3.43,5.82,12.28,5.82c3.3,0,12.98-0.48,15.82-1.33" style="fill:none;stroke:#999;stroke-width:3" />
<path d="M1671.47,61.54c0.28,0.34,0.8,1.47,0.95,1.88c1.23,3.41,2.34,7.78,3.07,14.06" style="fill:none;stroke:#999;stroke-width:3" />
<path d="M1673.29,62.51c11.87-1,30.76-3.22,38.09-3.11c1.79,0.03,2.87,1.66,2.87,2.73c0,3.38-1.83,7.94-3.74,14.21" style="fill:none;stroke:#999;stroke-width:3" />
<path d="M1691.0,61.99c0.83,0.69,1.15,1.19,1.14,1.79c-0.02,3.96,0.11,10.37,0.11,11.8" style="fill:none;stroke:#999;stroke-width:3" />
<path d="M1675.04,69.43c3.2-0.16,34.37-2.09,37.01-2.09" style="fill:none;stroke:#999;stroke-width:3" />
<path d="M1676.0,76.14c7.06,0,23.84-1.67,33.58-1.76" style="fill:none;stroke:#999;stroke-width:3" />
<path d="M1669.46,83.12c0.62,0.65,1.42,1.36,1.55,1.91c1.04,4.4,0.59,5.72,1.54,11.54" style="fill:none;stroke:#999;stroke-width:3" />
<path d="M1670.99,85c11.09-0.91,40.99-3.54,45.01-3.42c1.74,0.05,2.27,1.66,2.04,3.39c-0.34,2.55-1.03,6.81-2.32,10.25" style="fill:none;stroke:black;stroke-width:3" />
<circle cx="1670.99" cy="85.0" r="5" stroke-width="0" fill="#FF2A00" opacity="0.7" />
<path d="M1765.0,21.27c1.56,0.53,3.37,0.63,4.93,0.53c14.31-0.96,39.37-3.96,55.87-4.03c2.6-0.01,4.15,0.25,5.45,0.51" style="fill:none;stroke:#999;stroke-width:3" />
<path d="M1780.33,12.25c1.36,1.12,1.8,1.46,1.95,2.14c1.36,6.43,1.75,12.27,2.14,14.61" style="fill:none;stroke:#999;stroke-width:3" />
<path d="M1810.63,10.25c0.75,0.75,0.99,1.84,0.77,2.99C1810.5,18 1809.47,21.7 1807.76,26" style="fill:none;stroke:#999;stroke-width:3" />
<path d="M1794.83,24.58c0.95,0.76,1.69,1.64,1.69,4.15c0,4.88-0.02,5.54-0.02,9.64" style="fill:none;stroke:#999;stroke-width:3" />
<path d="M1798.04,31.42c5.91-0.64,14.35-1.47,20.34-1.97c1.97-0.17,3.18,0.15,4.17,0.31" style="fill:none;stroke:#999;stroke-width:3" />
<path d="M1770.23,39.06c0.63,0.52,0.84,3.38,0.69,5.26C1769.25,65.75 1769.0,82.5 1756.95,98.05" style="fill:none;stroke:#999;stroke-width:3" />
<path d="M1771.24,41.47c1.2,0.22,2.37,0.05,4.35-0.09c9.66-0.64,38.3-4.4,50.22-4.59c12.57-0.2,4.2,6.05,1.07,8.52" style="fill:none;stroke:#999;stroke-width:3" />
<path d="M1777.83,49.14c0.89,0.3,3.06,0.35,3.95,0.3c8.85-0.46,24.69-3.43,34.26-4.18c1.47-0.11,2.36,0.15,3.1,0.3" style="fill:none;stroke:#999;stroke-width:3" />
<path d="M1795.6399999999999,39.76c0.61,0.99,0.44,2.11,0.44,2.7c0,4.74-0.12,3.42-0.12,5.53c0,6.29,3.43,5.82,12.28,5.82c3.3,0,12.98-0.48,15.82-1.33" style="fill:none;stroke:#999;stroke-width:3" />
<path d="M1780.47,61.54c0.28,0.34,0.8,1.47,0.95,1.88c1.23,3.41,2.34,7.78,3.07,14.06" style="fill:none;stroke:#999;stroke-width:3" />
<path d="M1782.29,62.51c11.87-1,30.76-3.22,38.09-3.11c1.79,0.03,2.87,1.66,2.87,2.73c0,3.38-1.83,7.94-3.74,14.21" style="fill:none;stroke:#999;stroke-width:3" />
<path d="M1800.0,61.99c0.83,0.69,1.15,1.19,1.14,1.79c-0.02,3.96,0.11,10.37,0.11,11.8" style="fill:none;stroke:#999;stroke-width:3" />
<path d="M1784.04,69.43c3.2-0.16,34.37-2.09,37.01-2.09" style="fill:none;stroke:#999;stroke-width:3" />
<path d="M1785.0,76.14c7.06,0,23.84-1.67,33.58-1.76" style="fill:none;stroke:#999;stroke-width:3" />
<path d="M1778.46,83.12c0.62,0.65,1.42,1.36,1.55,1.91c1.04,4.4,0.59,5.72,1.54,11.54" style="fill:none;stroke:#999;stroke-width:3" />
<path d="M1779.99,85c11.09-0.91,40.99-3.54,45.01-3.42c1.74,0.05,2.27,1.66,2.04,3.39c-0.34,2.55-1.03,6.81-2.32,10.25" style="fill:none;stroke:#999;stroke-width:3" />
<path d="M1793.46,84.03c0.26,0.42,0.63,0.76,0.63,1.29c0,3.75,1.25,7.45,1.25,10.89" style="fill:none;stroke:black;stroke-width:3" />
<circle cx="1793.46" cy="84.03" r="5" stroke-width="0" fill="#FF2A00" opacity="0.7" />
<path d="M1874.0,21.27c1.56,0.53,3.37,0.63,4.93,0.53c14.31-0.96,39.37-3.96,55.87-4.03c2.6-0.01,4.15,0.25,5.45,0.51" style="fill:none;stroke:#999;stroke-width:3" />
<path d="M1889.33,12.25c1.36,1.12,1.8,1.46,1.95,2.14c1.36,6.43,1.75,12.27,2.14,14.61" style="fill:none;stroke:#999;stroke-width:3" />
<path d="M1919.63,10.25c0.75,0.75,0.99,1.84,0.77,2.99C1919.5,18 1918.47,21.7 1916.76,26" style="fill:none;stroke:#999;stroke-width:3" />
<path d="M1903.83,24.58c0.95,0.76,1.69,1.64,1.69,4.15c0,4.88-0.02,5.54-0.02,9.64" style="fill:none;stroke:#999;stroke-width:3" />
<path d="M1907.04,31.42c5.91-0.64,14.35-1.47,20.34-1.97c1.97-0.17,3.18,0.15,4.17,0.31" style="fill:none;stroke:#999;stroke-width:3" />
<path d="M1879.23,39.06c0.63,0.52,0.84,3.38,0.69,5.26C1878.25,65.75 1878.0,82.5 1865.95,98.05" style="fill:none;stroke:#999;stroke-width:3" />
<path d="M1880.24,41.47c1.2,0.22,2.37,0.05,4.35-0.09c9.66-0.64,38.3-4.4,50.22-4.59c12.57-0.2,4.2,6.05,1.07,8.52" style="fill:none;stroke:#999;stroke-width:3" />
<path d="M1886.83,49.14c0.89,0.3,3.06,0.35,3.95,0.3c8.85-0.46,24.69-3.43,34.26-4.18c1.47-0.11,2.36,0.15,3.1,0.3" style="fill:none;stroke:#999;stroke-width:3" />
<path d="M1904.6399999999999,39.76c0.61,0.99,0.44,2.11,0.44,2.7c0,4.74-0.12,3.42-0.12,5.53c0,6.29,3.43,5.82,12.28,5.82c3.3,0,12.98-0.48,15.82-1.33" style="fill:none;stroke:#999;stroke-width:3" />
<path d="M1889.47,61.54c0.28,0.34,0.8,1.47,0.95,1.88c1.23,3.41,2.34,7.78,3.07,14.06" style="fill:none;stroke:#999;stroke-width:3" />
<path d="M1891.29,62.51c11.87-1,30.76-3.22,38.09-3.11c1.79,0.03,2.87,1.66,2.87,2.73c0,3.38-1.83,7.94-3.74,14.21" style="fill:none;stroke:#999;stroke-width:3" />
<path d="M1909.0,61.99c0.83,0.69,1.15,1.19,1.14,1.79c-0.02,3.96,0.11,10.37,0.11,11.8" style="fill:none;stroke:#999;stroke-width:3" />
<path d="M1893.04,69.43c3.2-0.16,34.37-2.09,37.01-2.09" style="fill:none;stroke:#999;stroke-width:3" />
<path d="M1894.0,76.14c7.06,0,23.84-1.67,33.58-1.76" style="fill:none;stroke:#999;stroke-width:3" />
<path d="M1887.46,83.12c0.62,0.65,1.42,1.36,1.55,1.91c1.04,4.4,0.59,5.72,1.54,11.54" style="fill:none;stroke:#999;stroke-width:3" />
<path d="M1888.99,85c11.09-0.91,40.99-3.54,45.01-3.42c1.74,0.05,2.27,1.66,2.04,3.39c-0.34,2.55-1.03,6.81-2.32,10.25" style="fill:none;stroke:#999;stroke-width:3" />
<path d="M1902.46,84.03c0.26,0.42,0.63,0.76,0.63,1.29c0,3.75,1.25,7.45,1.25,10.89" style="fill:none;stroke:#999;stroke-width:3" />
<path d="M1918.45,83.09c0.47,0.5,0.96,1.36,0.84,2c-0.71,3.75-0.95,7.29-1.24,10.44" style="fill:none;stroke:black;stroke-width:3" />
<circle cx="1918.45" cy="83.09" r="5" stroke-width="0" fill="#FF2A00" opacity="0.7" />
<path d="M1983.0,21.27c1.56,0.53,3.37,0.63,4.93,0.53c14.31-0.96,39.37-3.96,55.87-4.03c2.6-0.01,4.15,0.25,5.45,0.51" style="fill:none;stroke:#999;stroke-width:3" />
<path d="M1998.33,12.25c1.36,1.12,1.8,1.46,1.95,2.14c1.36,6.43,1.75,12.27,2.14,14.61" style="fill:none;stroke:#999;stroke-width:3" />
<path d="M2028.63,10.25c0.75,0.75,0.99,1.84,0.77,2.99C2028.5,18 2027.47,21.7 2025.76,26" style="fill:none;stroke:#999;stroke-width:3" />
<path d="M2012.83,24.58c0.95,0.76,1.69,1.64,1.69,4.15c0,4.88-0.02,5.54-0.02,9.64" style="fill:none;stroke:#999;stroke-width:3" />
<path d="M2016.04,31.42c5.91-0.64,14.35-1.47,20.34-1.97c1.97-0.17,3.18,0.15,4.17,0.31" style="fill:none;stroke:#999;stroke-width:3" />
<path d="M1988.23,39.06c0.63,0.52,0.84,3.38,0.69,5.26C1987.25,65.75 1987.0,82.5 1974.95,98.05" style="fill:none;stroke:#999;stroke-width:3" />
<path d="M1989.24,41.47c1.2,0.22,2.37,0.05,4.35-0.09c9.66-0.64,38.3-4.4,50.22-4.59c12.57-0.2,4.2,6.05,1.07,8.52" style="fill:none;stroke:#999;stroke-width:3" />
<path d="M1995.83,49.14c0.89,0.3,3.06,0.35,3.95,0.3c8.85-0.46,24.69-3.43,34.26-4.18c1.47-0.11,2.36,0.15,3.1,0.3" style="fill:none;stroke:#999;stroke-width:3" />
<path d="M2013.6399999999999,39.76c0.61,0.99,0.44,2.11,0.44,2.7c0,4.74-0.12,3.42-0.12,5.53c0,6.29,3.43,5.82,12.28,5.82c3.3,0,12.98-0.48,15.82-1.33" style="fill:none;stroke:#999;stroke-width:3" />
<path d="M1998.47,61.54c0.28,0.34,0.8,1.47,0.95,1.88c1.23,3.41,2.34,7.78,3.07,14.06" style="fill:none;stroke:#999;stroke-width:3" />
<path d="M2000.29,62.51c11.87-1,30.76-3.22,38.09-3.11c1.79,0.03,2.87,1.66,2.87,2.73c0,3.38-1.83,7.94-3.74,14.21" style="fill:none;stroke:#999;stroke-width:3" />
<path d="M2018.0,61.99c0.83,0.69,1.15,1.19,1.14,1.79c-0.02,3.96,0.11,10.37,0.11,11.8" style="fill:none;stroke:#999;stroke-width:3" />
<path d="M2002.04,69.43c3.2-0.16,34.37-2.09,37.01-2.09" style="fill:none;stroke:#999;stroke-width:3" />
<path d="M2003.0,76.14c7.06,0,23.84-1.67,33.58-1.76" style="fill:none;stroke:#999;stroke-width:3" />
<path d="M1996.46,83.12c0.62,0.65,1.42,1.36,1.55,1.91c1.04,4.4,0.59,5.72,1.54,11.54" style="fill:none;stroke:#999;stroke-width:3" />
<path d="M1997.99,85c11.09-0.91,40.99-3.54,45.01-3.42c1.74,0.05,2.27,1.66,2.04,3.39c-0.34,2.55-1.03,6.81-2.32,10.25" style="fill:none;stroke:#999;stroke-width:3" />
<path d="M2011.46,84.03c0.26,0.42,0.63,0.76,0.63,1.29c0,3.75,1.25,7.45,1.25,10.89" style="fill:none;stroke:#999;stroke-width:3" />
<path d="M2027.45,83.09c0.47,0.5,0.96,1.36,0.84,2c-0.71,3.75-0.95,7.29-1.24,10.44" style="fill:none;stroke:#999;stroke-width:3" />
<path d="M1985.46,97.5c1.82,0.44,5.17,0.61,6.99,0.44c14.8-1.41,39.8-2.37,58.35-2.19c3.04,0.03,4.86,0.21,6.38,0.43" style="fill:none;stroke:black;stroke-width:3" />
<circle cx="1985.46" cy="97.5" r="5" stroke-width="0" fill="#FF2A00" opacity="0.7" />
</svg>