<!-- 086ab -->
<svg width="1199px" height="109px" viewBox="0 0 1199px 109px" xmlns="http://www.w3.org/2000/svg" xmlns:xlink="http://www.w3.org/1999/xlink" xml:space="preserve" version="1.1"  baseProfile="full">
<line x1="1" y1="1" x2="1198" y2="1" style="stroke:#ddd;stroke-width:2" />
<line x1="1" y1="1" x2="1" y2="108" style="stroke:#ddd;stroke-width:2" />
<line x1="1" y1="108" x2="1198" y2="108" style="stroke:#ddd;stroke-width:2" />
<line x1="1198" y1="1" x2="1198" y2="108" style="stroke:#ddd;stroke-width:2" />
<line x1="109" y1="1" x2="109" y2="108" style="stroke:#ddd;stroke-width:2" />
<line x1="218" y1="1" x2="218" y2="108" style="stroke:#ddd;stroke-width:2" />
<line x1="327" y1="1" x2="327" y2="108" style="stroke:#ddd;stroke-width:2" />
<line x1="436" y1="1" x2="436" y2="108" style="stroke:#ddd;stroke-width:2" />
<line x1="545" y1="1" x2="545" y2="108" style="stroke:#ddd;stroke-width:2" />
<line x1="654" y1="1" x2="654" y2="108" style="stroke:#ddd;stroke-width:2" />
<line x1="763" y1="1" x2="763" y2="108" style="stroke:#ddd;stroke-width:2" />
<line x1="872" y1="1" x2="872" y2="108" style="stroke:#ddd;stroke-width:2" />
<line x1="981" y1="1" x2="981" y2="108" style="stroke:#ddd;stroke-width:2" />
<line x1="1090" y1="1" x2="1090" y2="108" style="stroke:#ddd;stroke-width:2" />
<line x1="1" y1="54" x2="1198" y2="54" style="stroke:#ddd;stroke-width:2;stroke-dasharray:3 3" />
<line x1="55" y1="1" x2="55" y2="108" style="stroke:#ddd;stroke-width:2;stroke-dasharray:3 3" />
<line x1="164" y1="1" x2="164" y2="108" style="stroke:#ddd;stroke-width:2;stroke-dasharray:3 3" />
<line x1="273" y1="1" x2="273" y2="108" style="stroke:#ddd;stroke-width:2;stroke-dasharray:3 3" />
<line x1="382" y1="1" x2="382" y2="108" style="stroke:#ddd;stroke-width:2;stroke-dasharray:3 3" />
<line x1="491" y1="1" x2="491" y2="108" style="stroke:#ddd;stroke-width:2;stroke-dasharray:3 3" />
<line x1="600" y1="1" x2="600" y2="108" style="stroke:#ddd;stroke-width:2;stroke-dasharray:3 3" />
<line x1="709" y1="1" x2="709" y2="108" style="stroke:#ddd;stroke-width:2;stroke-dasharray:3 3" />
<line x1="818" y1="1" x2="818" y2="108" style="stroke:#ddd;stroke-width:2;stroke-dasharray:3 3" />
<line x1="927" y1="1" x2="927" y2="108" style="stroke:#ddd;stroke-width:2;stroke-dasharray:3 3" />
<line x1="1036" y1="1" x2="1036" y2="108" style="stroke:#ddd;stroke-width:2;stroke-dasharray:3 3" />
<line x1="1145" y1="1" x2="1145" y2="108" style="stroke:#ddd;stroke-width:2;stroke-dasharray:3 3" />
<path d="M11.76,37.76c0.43,0.6,0.96,1.64,1.05,2.42c0.81,6.79,1.75,15.58,2.92,25.71" style="fill:none;stroke:black;stroke-width:3" />
<circle cx="11.76" cy="37.76" r="5" stroke-width="0" fill="#FF2A00" opacity="0.7" />
<path d="M120.76,37.76c0.43,0.6,0.96,1.64,1.05,2.42c0.81,6.79,1.75,15.58,2.92,25.71" style="fill:none;stroke:#999;stroke-width:3" />
<path d="M122.59,39.7c6.49-1.14,19.72-2.99,24.42-3.43c1.83-0.17,2.68,1.61,2.45,3.32c-0.78,5.83-2.35,12.53-3.62,22.23" style="fill:none;stroke:black;stroke-width:3" />
<circle cx="122.59" cy="39.7" r="5" stroke-width="0" fill="#FF2A00" opacity="0.7" />
<path d="M229.76,37.76c0.43,0.6,0.96,1.64,1.05,2.42c0.81,6.79,1.75,15.58,2.92,25.71" style="fill:none;stroke:#999;stroke-width:3" />
<path d="M231.59,39.7c6.49-1.14,19.72-2.99,24.42-3.43c1.83-0.17,2.68,1.61,2.45,3.32c-0.78,5.83-2.35,12.53-3.62,22.23" style="fill:none;stroke:#999;stroke-width:3" />
<path d="M232.97,64.09c5.32-0.6,15.78-1.59,24.11-2.47" style="fill:none;stroke:black;stroke-width:3" />
<circle cx="232.97" cy="64.09" r="5" stroke-width="0" fill="#FF2A00" opacity="0.7" />
<path d="M338.76,37.76c0.43,0.6,0.96,1.64,1.05,2.42c0.81,6.79,1.75,15.58,2.92,25.71" style="fill:none;stroke:#999;stroke-width:3" />
<path d="M340.59000000000003,39.7c6.49-1.14,19.72-2.99,24.42-3.43c1.83-0.17,2.68,1.61,2.45,3.32c-0.78,5.83-2.35,12.53-3.62,22.23" style="fill:none;stroke:#999;stroke-width:3" />
<path d="M341.97,64.09c5.32-0.6,15.78-1.59,24.11-2.47" style="fill:none;stroke:#999;stroke-width:3" />
<path d="M351.42,17.25c1.08,1,2.26,2.75,2.26,4.47c0,4.78-0.2,49.78-0.2,63.16" style="fill:none;stroke:black;stroke-width:3" />
<circle cx="351.42" cy="17.25" r="5" stroke-width="0" fill="#FF2A00" opacity="0.7" />
<path d="M447.76,37.76c0.43,0.6,0.96,1.64,1.05,2.42c0.81,6.79,1.75,15.58,2.92,25.71" style="fill:none;stroke:#999;stroke-width:3" />
<path d="M449.59000000000003,39.7c6.49-1.14,19.72-2.99,24.42-3.43c1.83-0.17,2.68,1.61,2.45,3.32c-0.78,5.83-2.35,12.53-3.62,22.23" style="fill:none;stroke:#999;stroke-width:3" />
<path d="M450.97,64.09c5.32-0.6,15.78-1.59,24.11-2.47" style="fill:none;stroke:#999;stroke-width:3" />
<path d="M460.42,17.25c1.08,1,2.26,2.75,2.26,4.47c0,4.78-0.2,49.78-0.2,63.16" style="fill:none;stroke:#999;stroke-width:3" />
<path d="M446.57,91.27c0.6,1.16,2.46,1.11,3.06,0.82c0.6-0.29,22.04-11.15,25.76-13.47" style="fill:none;stroke:black;stroke-width:3" />
<circle cx="446.57" cy="91.27" r="5" stroke-width="0" fill="#FF2A00" opacity="0.7" />
<path d="M556.76,37.76c0.43,0.6,0.96,1.64,1.05,2.42c0.81,6.79,1.75,15.58,2.92,25.71" style="fill:none;stroke:#999;stroke-width:3" />
<path d="M558.59,39.7c6.49-1.14,19.72-2.99,24.42-3.43c1.83-0.17,2.68,1.61,2.45,3.32c-0.78,5.83-2.35,12.53-3.62,22.23" style="fill:none;stroke:#999;stroke-width:3" />
<path d="M559.97,64.09c5.32-0.6,15.78-1.59,24.11-2.47" style="fill:none;stroke:#999;stroke-width:3" />
<path d="M569.4200000000001,17.25c1.08,1,2.26,2.75,2.26,4.47c0,4.78-0.2,49.78-0.2,63.16" style="fill:none;stroke:#999;stroke-width:3" />
<path d="M555.5699999999999,91.27c0.6,1.16,2.46,1.11,3.06,0.82c0.6-0.29,22.04-11.15,25.76-13.47" style="fill:none;stroke:#999;stroke-width:3" />
<path d="M579.0,69.5c3.2,2.89,8.26,11.89,9.06,16.39" style="fill:none;stroke:black;stroke-width:3" />
<circle cx="579.0" cy="69.5" r="5" stroke-width="0" fill="#FF2A00" opacity="0.7" />
<path d="M665.76,37.76c0.43,0.6,0.96,1.64,1.05,2.42c0.81,6.79,1.75,15.58,2.92,25.71" style="fill:none;stroke:#999;stroke-width:3" />
<path d="M667.59,39.7c6.49-1.14,19.72-2.99,24.42-3.43c1.83-0.17,2.68,1.61,2.45,3.32c-0.78,5.83-2.35,12.53-3.62,22.23" style="fill:none;stroke:#999;stroke-width:3" />
<path d="M668.97,64.09c5.32-0.6,15.78-1.59,24.11-2.47" style="fill:none;stroke:#999;stroke-width:3" />
<path d="M678.4200000000001,17.25c1.08,1,2.26,2.75,2.26,4.47c0,4.78-0.2,49.78-0.2,63.16" style="fill:none;stroke:#999;stroke-width:3" />
<path d="M664.5699999999999,91.27c0.6,1.16,2.46,1.11,3.06,0.82c0.6-0.29,22.04-11.15,25.76-13.47" style="fill:none;stroke:#999;stroke-width:3" />
<path d="M688.0,69.5c3.2,2.89,8.26,11.89,9.06,16.39" style="fill:none;stroke:#999;stroke-width:3" />
<path d="M716.61,13c0.05,0.81,0.25,2.16-0.09,3.26c-2.27,7.19-8.43,20.71-16.91,31.22" style="fill:none;stroke:black;stroke-width:3" />
<circle cx="716.61" cy="13.0" r="5" stroke-width="0" fill="#FF2A00" opacity="0.7" />
<path d="M774.76,37.76c0.43,0.6,0.96,1.64,1.05,2.42c0.81,6.79,1.75,15.58,2.92,25.71" style="fill:none;stroke:#999;stroke-width:3" />
<path d="M776.59,39.7c6.49-1.14,19.72-2.99,24.42-3.43c1.83-0.17,2.68,1.61,2.45,3.32c-0.78,5.83-2.35,12.53-3.62,22.23" style="fill:none;stroke:#999;stroke-width:3" />
<path d="M777.97,64.09c5.32-0.6,15.78-1.59,24.11-2.47" style="fill:none;stroke:#999;stroke-width:3" />
<path d="M787.4200000000001,17.25c1.08,1,2.26,2.75,2.26,4.47c0,4.78-0.2,49.78-0.2,63.16" style="fill:none;stroke:#999;stroke-width:3" />
<path d="M773.5699999999999,91.27c0.6,1.16,2.46,1.11,3.06,0.82c0.6-0.29,22.04-11.15,25.76-13.47" style="fill:none;stroke:#999;stroke-width:3" />
<path d="M797.0,69.5c3.2,2.89,8.26,11.89,9.06,16.39" style="fill:none;stroke:#999;stroke-width:3" />
<path d="M825.61,13c0.05,0.81,0.25,2.16-0.09,3.26c-2.27,7.19-8.43,20.71-16.91,31.22" style="fill:none;stroke:#999;stroke-width:3" />
<path d="M821.49,31.18c0.98,0.61,2.35,0.82,3.92,0.41s23.59-4.78,27.49-5.14c1.85-0.17,3.95,1.12,3.87,3.41c-0.27,6.89-2.52,26.14-8.6,39.21c-1.84,3.95-3.96,1.53-6.27-1.02" style="fill:none;stroke:black;stroke-width:3" />
<circle cx="821.49" cy="31.18" r="5" stroke-width="0" fill="#FF2A00" opacity="0.7" />
<path d="M883.76,37.76c0.43,0.6,0.96,1.64,1.05,2.42c0.81,6.79,1.75,15.58,2.92,25.71" style="fill:none;stroke:#999;stroke-width:3" />
<path d="M885.59,39.7c6.49-1.14,19.72-2.99,24.42-3.43c1.83-0.17,2.68,1.61,2.45,3.32c-0.78,5.83-2.35,12.53-3.62,22.23" style="fill:none;stroke:#999;stroke-width:3" />
<path d="M886.97,64.09c5.32-0.6,15.78-1.59,24.11-2.47" style="fill:none;stroke:#999;stroke-width:3" />
<path d="M896.4200000000001,17.25c1.08,1,2.26,2.75,2.26,4.47c0,4.78-0.2,49.78-0.2,63.16" style="fill:none;stroke:#999;stroke-width:3" />
<path d="M882.5699999999999,91.27c0.6,1.16,2.46,1.11,3.06,0.82c0.6-0.29,22.04-11.15,25.76-13.47" style="fill:none;stroke:#999;stroke-width:3" />
<path d="M906.0,69.5c3.2,2.89,8.26,11.89,9.06,16.39" style="fill:none;stroke:#999;stroke-width:3" />
<path d="M934.61,13c0.05,0.81,0.25,2.16-0.09,3.26c-2.27,7.19-8.43,20.71-16.91,31.22" style="fill:none;stroke:#999;stroke-width:3" />
<path d="M930.49,31.18c0.98,0.61,2.35,0.82,3.92,0.41s23.59-4.78,27.49-5.14c1.85-0.17,3.95,1.12,3.87,3.41c-0.27,6.89-2.52,26.14-8.6,39.21c-1.84,3.95-3.96,1.53-6.27-1.02" style="fill:none;stroke:#999;stroke-width:3" />
<path d="M925.53,45.24c1.28,0.94,2.37,0.94,4.25,0.63c3.81-0.63,15.64-2.27,16.8-2.39c1.54-0.16,2.75,1.03,2.2,3.47C948.62,47.68 947.0,54 945.16,60.48" style="fill:none;stroke:black;stroke-width:3" />
<circle cx="925.53" cy="45.24" r="5" stroke-width="0" fill="#FF2A00" opacity="0.7" />
<path d="M992.76,37.76c0.43,0.6,0.96,1.64,1.05,2.42c0.81,6.79,1.75,15.58,2.92,25.71" style="fill:none;stroke:#999;stroke-width:3" />
<path d="M994.59,39.7c6.49-1.14,19.72-2.99,24.42-3.43c1.83-0.17,2.68,1.61,2.45,3.32c-0.78,5.83-2.35,12.53-3.62,22.23" style="fill:none;stroke:#999;stroke-width:3" />
<path d="M995.97,64.09c5.32-0.6,15.78-1.59,24.11-2.47" style="fill:none;stroke:#999;stroke-width:3" />
<path d="M1005.4200000000001,17.25c1.08,1,2.26,2.75,2.26,4.47c0,4.78-0.2,49.78-0.2,63.16" style="fill:none;stroke:#999;stroke-width:3" />
<path d="M991.5699999999999,91.27c0.6,1.16,2.46,1.11,3.06,0.82c0.6-0.29,22.04-11.15,25.76-13.47" style="fill:none;stroke:#999;stroke-width:3" />
<path d="M1015.0,69.5c3.2,2.89,8.26,11.89,9.06,16.39" style="fill:none;stroke:#999;stroke-width:3" />
<path d="M1043.6100000000001,13c0.05,0.81,0.25,2.16-0.09,3.26c-2.27,7.19-8.43,20.71-16.91,31.22" style="fill:none;stroke:#999;stroke-width:3" />
<path d="M1039.49,31.18c0.98,0.61,2.35,0.82,3.92,0.41s23.59-4.78,27.49-5.14c1.85-0.17,3.95,1.12,3.87,3.41c-0.27,6.89-2.52,26.14-8.6,39.21c-1.84,3.95-3.96,1.53-6.27-1.02" style="fill:none;stroke:#999;stroke-width:3" />
<path d="M1034.53,45.24c1.28,0.94,2.37,0.94,4.25,0.63c3.81-0.63,15.64-2.27,16.8-2.39c1.54-0.16,2.75,1.03,2.2,3.47C1057.62,47.68 1056.0,54 1054.1599999999999,60.48" style="fill:none;stroke:#999;stroke-width:3" />
<path d="M1037.74,62.85c4.12-0.45,12.57-1.79,18.43-2.18" style="fill:none;stroke:black;stroke-width:3" />
<circle cx="1037.74" cy="62.85" r="5" stroke-width="0" fill="#FF2A00" opacity="0.7" />
<path d="M1101.76,37.76c0.43,0.6,0.96,1.64,1.05,2.42c0.81,6.79,1.75,15.58,2.92,25.71" style="fill:none;stroke:#999;stroke-width:3" />
<path d="M1103.5900000000001,39.7c6.49-1.14,19.72-2.99,24.42-3.43c1.83-0.17,2.68,1.61,2.45,3.32c-0.78,5.83-2.35,12.53-3.62,22.23" style="fill:none;stroke:#999;stroke-width:3" />
<path d="M1104.97,64.09c5.32-0.6,15.78-1.59,24.11-2.47" style="fill:none;stroke:#999;stroke-width:3" />
<path d="M1114.42,17.25c1.08,1,2.26,2.75,2.26,4.47c0,4.78-0.2,49.78-0.2,63.16" style="fill:none;stroke:#999;stroke-width:3" />
<path d="M1100.57,91.27c0.6,1.16,2.46,1.11,3.06,0.82c0.6-0.29,22.04-11.15,25.76-13.47" style="fill:none;stroke:#999;stroke-width:3" />
<path d="M1124.0,69.5c3.2,2.89,8.26,11.89,9.06,16.39" style="fill:none;stroke:#999;stroke-width:3" />
<path d="M1152.6100000000001,13c0.05,0.81,0.25,2.16-0.09,3.26c-2.27,7.19-8.43,20.71-16.91,31.22" style="fill:none;stroke:#999;stroke-width:3" />
<path d="M1148.49,31.18c0.98,0.61,2.35,0.82,3.92,0.41s23.59-4.78,27.49-5.14c1.85-0.17,3.95,1.12,3.87,3.41c-0.27,6.89-2.52,26.14-8.6,39.21c-1.84,3.95-3.96,1.53-6.27-1.02" style="fill:none;stroke:#999;stroke-width:3" />
<path d="M1143.53,45.24c1.28,0.94,2.37,0.94,4.25,0.63c3.81-0.63,15.64-2.27,16.8-2.39c1.54-0.16,2.75,1.03,2.2,3.47C1166.62,47.68 1165.0,54 1163.1599999999999,60.48" style="fill:none;stroke:#999;stroke-width:3" />
<path d="M1146.74,62.85c4.12-0.45,12.57-1.79,18.43-2.18" style="fill:none;stroke:#999;stroke-width:3" />
<path d="M1145.52,46.52c-0.02,1.73,0.52,2.39,0.51,4.09C1146.0,56.04 1145.67,79.86 1145.67,84.6c0,10.3,1.39,11.08,22.07,11.08c17.28,0,19.4-0.94,19.4-12.39" style="fill:none;stroke:black;stroke-width:3" />
<circle cx="1145.52" cy="46.52" r="5" stroke-width="0" fill="#FF2A00" opacity="0.7" />
</svg>