<!-- 086ec -->
<svg width="1308px" height="109px" viewBox="0 0 1308px 109px" xmlns="http://www.w3.org/2000/svg" xmlns:xlink="http://www.w3.org/1999/xlink" xml:space="preserve" version="1.1"  baseProfile="full">
<line x1="1" y1="1" x2="1307" y2="1" style="stroke:#ddd;stroke-width:2" />
<line x1="1" y1="1" x2="1" y2="108" style="stroke:#ddd;stroke-width:2" />
<line x1="1" y1="108" x2="1307" y2="108" style="stroke:#ddd;stroke-width:2" />
<line x1="1307" y1="1" x2="1307" y2="108" style="stroke:#ddd;stroke-width:2" />
<line x1="109" y1="1" x2="109" y2="108" style="stroke:#ddd;stroke-width:2" />
<line x1="218" y1="1" x2="218" y2="108" style="stroke:#ddd;stroke-width:2" />
<line x1="327" y1="1" x2="327" y2="108" style="stroke:#ddd;stroke-width:2" />
<line x1="436" y1="1" x2="436" y2="108" style="stroke:#ddd;stroke-width:2" />
<line x1="545" y1="1" x2="545" y2="108" style="stroke:#ddd;stroke-width:2" />
<line x1="654" y1="1" x2="654" y2="108" style="stroke:#ddd;stroke-width:2" />
<line x1="763" y1="1" x2="763" y2="108" style="stroke:#ddd;stroke-width:2" />
<line x1="872" y1="1" x2="872" y2="108" style="stroke:#ddd;stroke-width:2" />
<line x1="981" y1="1" x2="981" y2="108" style="stroke:#ddd;stroke-width:2" />
<line x1="1090" y1="1" x2="1090" y2="108" style="stroke:#ddd;stroke-width:2" />
<line x1="1199" y1="1" x2="1199" y2="108" style="stroke:#ddd;stroke-width:2" />
<line x1="1" y1="54" x2="1307" y2="54" style="stroke:#ddd;stroke-width:2;stroke-dasharray:3 3" />
<line x1="55" y1="1" x2="55" y2="108" style="stroke:#ddd;stroke-width:2;stroke-dasharray:3 3" />
<line x1="164" y1="1" x2="164" y2="108" style="stroke:#ddd;stroke-width:2;stroke-dasharray:3 3" />
<line x1="273" y1="1" x2="273" y2="108" style="stroke:#ddd;stroke-width:2;stroke-dasharray:3 3" />
<line x1="382" y1="1" x2="382" y2="108" style="stroke:#ddd;stroke-width:2;stroke-dasharray:3 3" />
<line x1="491" y1="1" x2="491" y2="108" style="stroke:#ddd;stroke-width:2;stroke-dasharray:3 3" />
<line x1="600" y1="1" x2="600" y2="108" style="stroke:#ddd;stroke-width:2;stroke-dasharray:3 3" />
<line x1="709" y1="1" x2="709" y2="108" style="stroke:#ddd;stroke-width:2;stroke-dasharray:3 3" />
<line x1="818" y1="1" x2="818" y2="108" style="stroke:#ddd;stroke-width:2;stroke-dasharray:3 3" />
<line x1="927" y1="1" x2="927" y2="108" style="stroke:#ddd;stroke-width:2;stroke-dasharray:3 3" />
<line x1="1036" y1="1" x2="1036" y2="108" style="stroke:#ddd;stroke-width:2;stroke-dasharray:3 3" />
<line x1="1145" y1="1" x2="1145" y2="108" style="stroke:#ddd;stroke-width:2;stroke-dasharray:3 3" />
<line x1="1254" y1="1" x2="1254" y2="108" style="stroke:#ddd;stroke-width:2;stroke-dasharray:3 3" />
<path d="M25.0,25.05c1.5,0.36,4.25,0.89,5.74,0.86c8.95-0.2,34.26-2.41,48.78-3.3c2.49-0.15,3.99,0.17,5.24,0.35" style="fill:none;stroke:black;stroke-width:3" />
<circle cx="25.0" cy="25.05" r="5" stroke-width="0" fill="#FF2A00" opacity="0.7" />
<path d="M134.0,25.05c1.5,0.36,4.25,0.89,5.74,0.86c8.95-0.2,34.26-2.41,48.78-3.3c2.49-0.15,3.99,0.17,5.24,0.35" style="fill:none;stroke:#999;stroke-width:3" />
<path d="M148.87,12.75c1.09,0.48,1.94,2.16,1.96,3.15c0.17,7.03,0.67,15.85,0.92,24.84" style="fill:none;stroke:black;stroke-width:3" />
<circle cx="148.87" cy="12.75" r="5" stroke-width="0" fill="#FF2A00" opacity="0.7" />
<path d="M243.0,25.05c1.5,0.36,4.25,0.89,5.74,0.86c8.95-0.2,34.26-2.41,48.78-3.3c2.49-0.15,3.99,0.17,5.24,0.35" style="fill:none;stroke:#999;stroke-width:3" />
<path d="M257.87,12.75c1.09,0.48,1.94,2.16,1.96,3.15c0.17,7.03,0.67,15.85,0.92,24.84" style="fill:none;stroke:#999;stroke-width:3" />
<path d="M284.12,11.5c1.09,0.55,2.01,2.44,1.96,3.56c-0.33,7.69-1.33,16.44-2.33,24.04" style="fill:none;stroke:black;stroke-width:3" />
<circle cx="284.12" cy="11.5" r="5" stroke-width="0" fill="#FF2A00" opacity="0.7" />
<path d="M352.0,25.05c1.5,0.36,4.25,0.89,5.74,0.86c8.95-0.2,34.26-2.41,48.78-3.3c2.49-0.15,3.99,0.17,5.24,0.35" style="fill:none;stroke:#999;stroke-width:3" />
<path d="M366.87,12.75c1.09,0.48,1.94,2.16,1.96,3.15c0.17,7.03,0.67,15.85,0.92,24.84" style="fill:none;stroke:#999;stroke-width:3" />
<path d="M393.12,11.5c1.09,0.55,2.01,2.44,1.96,3.56c-0.33,7.69-1.33,16.44-2.33,24.04" style="fill:none;stroke:#999;stroke-width:3" />
<path d="M344.25,42c1.89,0.35,5.36,0.45,7.25,0.35c12.36-0.65,45.35-3.9,61.14-4.22c3.15-0.06,5.04,0.17,6.62,0.35" style="fill:none;stroke:black;stroke-width:3" />
<circle cx="344.25" cy="42.0" r="5" stroke-width="0" fill="#FF2A00" opacity="0.7" />
<path d="M461.0,25.05c1.5,0.36,4.25,0.89,5.74,0.86c8.95-0.2,34.26-2.41,48.78-3.3c2.49-0.15,3.99,0.17,5.24,0.35" style="fill:none;stroke:#999;stroke-width:3" />
<path d="M475.87,12.75c1.09,0.48,1.94,2.16,1.96,3.15c0.17,7.03,0.67,15.85,0.92,24.84" style="fill:none;stroke:#999;stroke-width:3" />
<path d="M502.12,11.5c1.09,0.55,2.01,2.44,1.96,3.56c-0.33,7.69-1.33,16.44-2.33,24.04" style="fill:none;stroke:#999;stroke-width:3" />
<path d="M453.25,42c1.89,0.35,5.36,0.45,7.25,0.35c12.36-0.65,45.35-3.9,61.14-4.22c3.15-0.06,5.04,0.17,6.62,0.35" style="fill:none;stroke:#999;stroke-width:3" />
<path d="M477.48,42.68c0.08,0.58,0.38,1.61-0.15,2.31c-3.58,4.75-13.77,15.31-26.52,23.15" style="fill:none;stroke:black;stroke-width:3" />
<circle cx="477.48" cy="42.68" r="5" stroke-width="0" fill="#FF2A00" opacity="0.7" />
<path d="M570.0,25.05c1.5,0.36,4.25,0.89,5.74,0.86c8.95-0.2,34.26-2.41,48.78-3.3c2.49-0.15,3.99,0.17,5.24,0.35" style="fill:none;stroke:#999;stroke-width:3" />
<path d="M584.87,12.75c1.09,0.48,1.94,2.16,1.96,3.15c0.17,7.03,0.67,15.85,0.92,24.84" style="fill:none;stroke:#999;stroke-width:3" />
<path d="M611.12,11.5c1.09,0.55,2.01,2.44,1.96,3.56c-0.33,7.69-1.33,16.44-2.33,24.04" style="fill:none;stroke:#999;stroke-width:3" />
<path d="M562.25,42c1.89,0.35,5.36,0.45,7.25,0.35c12.36-0.65,45.35-3.9,61.14-4.22c3.15-0.06,5.04,0.17,6.62,0.35" style="fill:none;stroke:#999;stroke-width:3" />
<path d="M586.48,42.68c0.08,0.58,0.38,1.61-0.15,2.31c-3.58,4.75-13.77,15.31-26.52,23.15" style="fill:none;stroke:#999;stroke-width:3" />
<path d="M612.77,42.45c5.89,5.89,12.65,12.23,19.04,17.17c1.44,1.11,2.86,2.16,4.25,3.1" style="fill:none;stroke:black;stroke-width:3" />
<circle cx="612.77" cy="42.45" r="5" stroke-width="0" fill="#FF2A00" opacity="0.7" />
<path d="M679.0,25.05c1.5,0.36,4.25,0.89,5.74,0.86c8.95-0.2,34.26-2.41,48.78-3.3c2.49-0.15,3.99,0.17,5.24,0.35" style="fill:none;stroke:#999;stroke-width:3" />
<path d="M693.87,12.75c1.09,0.48,1.94,2.16,1.96,3.15c0.17,7.03,0.67,15.85,0.92,24.84" style="fill:none;stroke:#999;stroke-width:3" />
<path d="M720.12,11.5c1.09,0.55,2.01,2.44,1.96,3.56c-0.33,7.69-1.33,16.44-2.33,24.04" style="fill:none;stroke:#999;stroke-width:3" />
<path d="M671.25,42c1.89,0.35,5.36,0.45,7.25,0.35c12.36-0.65,45.35-3.9,61.14-4.22c3.15-0.06,5.04,0.17,6.62,0.35" style="fill:none;stroke:#999;stroke-width:3" />
<path d="M695.48,42.68c0.08,0.58,0.38,1.61-0.15,2.31c-3.58,4.75-13.77,15.31-26.52,23.15" style="fill:none;stroke:#999;stroke-width:3" />
<path d="M721.77,42.45c5.89,5.89,12.65,12.23,19.04,17.17c1.44,1.11,2.86,2.16,4.25,3.1" style="fill:none;stroke:#999;stroke-width:3" />
<path d="M685.95,63c0.84,0.61,1.43,2.11,1.59,2.91c1.13,5.8,0.76,4.9,2.36,15.89" style="fill:none;stroke:black;stroke-width:3" />
<circle cx="685.95" cy="63.0" r="5" stroke-width="0" fill="#FF2A00" opacity="0.7" />
<path d="M788.0,25.05c1.5,0.36,4.25,0.89,5.74,0.86c8.95-0.2,34.26-2.41,48.78-3.3c2.49-0.15,3.99,0.17,5.24,0.35" style="fill:none;stroke:#999;stroke-width:3" />
<path d="M802.87,12.75c1.09,0.48,1.94,2.16,1.96,3.15c0.17,7.03,0.67,15.85,0.92,24.84" style="fill:none;stroke:#999;stroke-width:3" />
<path d="M829.12,11.5c1.09,0.55,2.01,2.44,1.96,3.56c-0.33,7.69-1.33,16.44-2.33,24.04" style="fill:none;stroke:#999;stroke-width:3" />
<path d="M780.25,42c1.89,0.35,5.36,0.45,7.25,0.35c12.36-0.65,45.35-3.9,61.14-4.22c3.15-0.06,5.04,0.17,6.62,0.35" style="fill:none;stroke:#999;stroke-width:3" />
<path d="M804.48,42.68c0.08,0.58,0.38,1.61-0.15,2.31c-3.58,4.75-13.77,15.31-26.52,23.15" style="fill:none;stroke:#999;stroke-width:3" />
<path d="M830.77,42.45c5.89,5.89,12.65,12.23,19.04,17.17c1.44,1.11,2.86,2.16,4.25,3.1" style="fill:none;stroke:#999;stroke-width:3" />
<path d="M794.95,63c0.84,0.61,1.43,2.11,1.59,2.91c1.13,5.8,0.76,4.9,2.36,15.89" style="fill:none;stroke:#999;stroke-width:3" />
<path d="M797.16,64.54c12.72-1.23,30.08-3.05,39.29-3.52c3.59-0.18,4.01,2.02,3.4,4.68c-0.87,3.73-1.65,6.14-2.8,10.8" style="fill:none;stroke:black;stroke-width:3" />
<circle cx="797.16" cy="64.54" r="5" stroke-width="0" fill="#FF2A00" opacity="0.7" />
<path d="M897.0,25.05c1.5,0.36,4.25,0.89,5.74,0.86c8.95-0.2,34.26-2.41,48.78-3.3c2.49-0.15,3.99,0.17,5.24,0.35" style="fill:none;stroke:#999;stroke-width:3" />
<path d="M911.87,12.75c1.09,0.48,1.94,2.16,1.96,3.15c0.17,7.03,0.67,15.85,0.92,24.84" style="fill:none;stroke:#999;stroke-width:3" />
<path d="M938.12,11.5c1.09,0.55,2.01,2.44,1.96,3.56c-0.33,7.69-1.33,16.44-2.33,24.04" style="fill:none;stroke:#999;stroke-width:3" />
<path d="M889.25,42c1.89,0.35,5.36,0.45,7.25,0.35c12.36-0.65,45.35-3.9,61.14-4.22c3.15-0.06,5.04,0.17,6.62,0.35" style="fill:none;stroke:#999;stroke-width:3" />
<path d="M913.48,42.68c0.08,0.58,0.38,1.61-0.15,2.31c-3.58,4.75-13.77,15.31-26.52,23.15" style="fill:none;stroke:#999;stroke-width:3" />
<path d="M939.77,42.45c5.89,5.89,12.65,12.23,19.04,17.17c1.44,1.11,2.86,2.16,4.25,3.1" style="fill:none;stroke:#999;stroke-width:3" />
<path d="M903.95,63c0.84,0.61,1.43,2.11,1.59,2.91c1.13,5.8,0.76,4.9,2.36,15.89" style="fill:none;stroke:#999;stroke-width:3" />
<path d="M906.16,64.54c12.72-1.23,30.08-3.05,39.29-3.52c3.59-0.18,4.01,2.02,3.4,4.68c-0.87,3.73-1.65,6.14-2.8,10.8" style="fill:none;stroke:#999;stroke-width:3" />
<path d="M908.37,79.45c10.23-1.23,26.5-2.03,40.82-3.18" style="fill:none;stroke:black;stroke-width:3" />
<circle cx="908.37" cy="79.45" r="5" stroke-width="0" fill="#FF2A00" opacity="0.7" />
<path d="M1006.0,25.05c1.5,0.36,4.25,0.89,5.74,0.86c8.95-0.2,34.26-2.41,48.78-3.3c2.49-0.15,3.99,0.17,5.24,0.35" style="fill:none;stroke:#999;stroke-width:3" />
<path d="M1020.87,12.75c1.09,0.48,1.94,2.16,1.96,3.15c0.17,7.03,0.67,15.85,0.92,24.84" style="fill:none;stroke:#999;stroke-width:3" />
<path d="M1047.12,11.5c1.09,0.55,2.01,2.44,1.96,3.56c-0.33,7.69-1.33,16.44-2.33,24.04" style="fill:none;stroke:#999;stroke-width:3" />
<path d="M998.25,42c1.89,0.35,5.36,0.45,7.25,0.35c12.36-0.65,45.35-3.9,61.14-4.22c3.15-0.06,5.04,0.17,6.62,0.35" style="fill:none;stroke:#999;stroke-width:3" />
<path d="M1022.48,42.68c0.08,0.58,0.38,1.61-0.15,2.31c-3.58,4.75-13.77,15.31-26.52,23.15" style="fill:none;stroke:#999;stroke-width:3" />
<path d="M1048.77,42.45c5.89,5.89,12.65,12.23,19.04,17.17c1.44,1.11,2.86,2.16,4.25,3.1" style="fill:none;stroke:#999;stroke-width:3" />
<path d="M1012.95,63c0.84,0.61,1.43,2.11,1.59,2.91c1.13,5.8,0.76,4.9,2.36,15.89" style="fill:none;stroke:#999;stroke-width:3" />
<path d="M1015.16,64.54c12.72-1.23,30.08-3.05,39.29-3.52c3.59-0.18,4.01,2.02,3.4,4.68c-0.87,3.73-1.65,6.14-2.8,10.8" style="fill:none;stroke:#999;stroke-width:3" />
<path d="M1017.37,79.45c10.23-1.23,26.5-2.03,40.82-3.18" style="fill:none;stroke:#999;stroke-width:3" />
<path d="M1033.26,47.25c1.23,0.48,1.97,2.15,2.22,3.11c0.25,0.96,0.5,35.87,0.25,41.85" style="fill:none;stroke:black;stroke-width:3" />
<circle cx="1033.26" cy="47.25" r="5" stroke-width="0" fill="#FF2A00" opacity="0.7" />
<path d="M1115.0,25.05c1.5,0.36,4.25,0.89,5.74,0.86c8.95-0.2,34.26-2.41,48.78-3.3c2.49-0.15,3.99,0.17,5.24,0.35" style="fill:none;stroke:#999;stroke-width:3" />
<path d="M1129.87,12.75c1.09,0.48,1.94,2.16,1.96,3.15c0.17,7.03,0.67,15.85,0.92,24.84" style="fill:none;stroke:#999;stroke-width:3" />
<path d="M1156.12,11.5c1.09,0.55,2.01,2.44,1.96,3.56c-0.33,7.69-1.33,16.44-2.33,24.04" style="fill:none;stroke:#999;stroke-width:3" />
<path d="M1107.25,42c1.89,0.35,5.36,0.45,7.25,0.35c12.36-0.65,45.35-3.9,61.14-4.22c3.15-0.06,5.04,0.17,6.62,0.35" style="fill:none;stroke:#999;stroke-width:3" />
<path d="M1131.48,42.68c0.08,0.58,0.38,1.61-0.15,2.31c-3.58,4.75-13.77,15.31-26.52,23.15" style="fill:none;stroke:#999;stroke-width:3" />
<path d="M1157.77,42.45c5.89,5.89,12.65,12.23,19.04,17.17c1.44,1.11,2.86,2.16,4.25,3.1" style="fill:none;stroke:#999;stroke-width:3" />
<path d="M1121.95,63c0.84,0.61,1.43,2.11,1.59,2.91c1.13,5.8,0.76,4.9,2.36,15.89" style="fill:none;stroke:#999;stroke-width:3" />
<path d="M1124.1599999999999,64.54c12.72-1.23,30.08-3.05,39.29-3.52c3.59-0.18,4.01,2.02,3.4,4.68c-0.87,3.73-1.65,6.14-2.8,10.8" style="fill:none;stroke:#999;stroke-width:3" />
<path d="M1126.37,79.45c10.23-1.23,26.5-2.03,40.82-3.18" style="fill:none;stroke:#999;stroke-width:3" />
<path d="M1142.26,47.25c1.23,0.48,1.97,2.15,2.22,3.11c0.25,0.96,0.5,35.87,0.25,41.85" style="fill:none;stroke:#999;stroke-width:3" />
<path d="M1118.6,95.91c1.05,0.55,1.68,1.24,2.72,1.1c1.05-0.14,40.21-6.48,46.7-7.58" style="fill:none;stroke:black;stroke-width:3" />
<circle cx="1118.6" cy="95.91" r="5" stroke-width="0" fill="#FF2A00" opacity="0.7" />
<path d="M1224.0,25.05c1.5,0.36,4.25,0.89,5.74,0.86c8.95-0.2,34.26-2.41,48.78-3.3c2.49-0.15,3.99,0.17,5.24,0.35" style="fill:none;stroke:#999;stroke-width:3" />
<path d="M1238.87,12.75c1.09,0.48,1.94,2.16,1.96,3.15c0.17,7.03,0.67,15.85,0.92,24.84" style="fill:none;stroke:#999;stroke-width:3" />
<path d="M1265.12,11.5c1.09,0.55,2.01,2.44,1.96,3.56c-0.33,7.69-1.33,16.44-2.33,24.04" style="fill:none;stroke:#999;stroke-width:3" />
<path d="M1216.25,42c1.89,0.35,5.36,0.45,7.25,0.35c12.36-0.65,45.35-3.9,61.14-4.22c3.15-0.06,5.04,0.17,6.62,0.35" style="fill:none;stroke:#999;stroke-width:3" />
<path d="M1240.48,42.68c0.08,0.58,0.38,1.61-0.15,2.31c-3.58,4.75-13.77,15.31-26.52,23.15" style="fill:none;stroke:#999;stroke-width:3" />
<path d="M1266.77,42.45c5.89,5.89,12.65,12.23,19.04,17.17c1.44,1.11,2.86,2.16,4.25,3.1" style="fill:none;stroke:#999;stroke-width:3" />
<path d="M1230.95,63c0.84,0.61,1.43,2.11,1.59,2.91c1.13,5.8,0.76,4.9,2.36,15.89" style="fill:none;stroke:#999;stroke-width:3" />
<path d="M1233.1599999999999,64.54c12.72-1.23,30.08-3.05,39.29-3.52c3.59-0.18,4.01,2.02,3.4,4.68c-0.87,3.73-1.65,6.14-2.8,10.8" style="fill:none;stroke:#999;stroke-width:3" />
<path d="M1235.37,79.45c10.23-1.23,26.5-2.03,40.82-3.18" style="fill:none;stroke:#999;stroke-width:3" />
<path d="M1251.26,47.25c1.23,0.48,1.97,2.15,2.22,3.11c0.25,0.96,0.5,35.87,0.25,41.85" style="fill:none;stroke:#999;stroke-width:3" />
<path d="M1227.6,95.91c1.05,0.55,1.68,1.24,2.72,1.1c1.05-0.14,40.21-6.48,46.7-7.58" style="fill:none;stroke:#999;stroke-width:3" />
<path d="M1269.36,82.25c5.03,2.87,12.99,11.78,14.25,16.24" style="fill:none;stroke:black;stroke-width:3" />
<circle cx="1269.36" cy="82.25" r="5" stroke-width="0" fill="#FF2A00" opacity="0.7" />
</svg>