<!-- 0870d -->
<svg width="1417px" height="109px" viewBox="0 0 1417px 109px" xmlns="http://www.w3.org/2000/svg" xmlns:xlink="http://www.w3.org/1999/xlink" xml:space="preserve" version="1.1"  baseProfile="full">
<line x1="1" y1="1" x2="1416" y2="1" style="stroke:#ddd;stroke-width:2" />
<line x1="1" y1="1" x2="1" y2="108" style="stroke:#ddd;stroke-width:2" />
<line x1="1" y1="108" x2="1416" y2="108" style="stroke:#ddd;stroke-width:2" />
<line x1="1416" y1="1" x2="1416" y2="108" style="stroke:#ddd;stroke-width:2" />
<line x1="109" y1="1" x2="109" y2="108" style="stroke:#ddd;stroke-width:2" />
<line x1="218" y1="1" x2="218" y2="108" style="stroke:#ddd;stroke-width:2" />
<line x1="327" y1="1" x2="327" y2="108" style="stroke:#ddd;stroke-width:2" />
<line x1="436" y1="1" x2="436" y2="108" style="stroke:#ddd;stroke-width:2" />
<line x1="545" y1="1" x2="545" y2="108" style="stroke:#ddd;stroke-width:2" />
<line x1="654" y1="1" x2="654" y2="108" style="stroke:#ddd;stroke-width:2" />
<line x1="763" y1="1" x2="763" y2="108" style="stroke:#ddd;stroke-width:2" />
<line x1="872" y1="1" x2="872" y2="108" style="stroke:#ddd;stroke-width:2" />
<line x1="981" y1="1" x2="981" y2="108" style="stroke:#ddd;stroke-width:2" />
<line x1="1090" y1="1" x2="1090" y2="108" style="stroke:#ddd;stroke-width:2" />
<line x1="1199" y1="1" x2="1199" y2="108" style="stroke:#ddd;stroke-width:2" />
<line x1="1308" y1="1" x2="1308" y2="108" style="stroke:#ddd;stroke-width:2" />
<line x1="1" y1="54" x2="1416" y2="54" style="stroke:#ddd;stroke-width:2;stroke-dasharray:3 3" />
<line x1="55" y1="1" x2="55" y2="108" style="stroke:#ddd;stroke-width:2;stroke-dasharray:3 3" />
<line x1="164" y1="1" x2="164" y2="108" style="stroke:#ddd;stroke-width:2;stroke-dasharray:3 3" />
<line x1="273" y1="1" x2="273" y2="108" style="stroke:#ddd;stroke-width:2;stroke-dasharray:3 3" />
<line x1="382" y1="1" x2="382" y2="108" style="stroke:#ddd;stroke-width:2;stroke-dasharray:3 3" />
<line x1="491" y1="1" x2="491" y2="108" style="stroke:#ddd;stroke-width:2;stroke-dasharray:3 3" />
<line x1="600" y1="1" x2="600" y2="108" style="stroke:#ddd;stroke-width:2;stroke-dasharray:3 3" />
<line x1="709" y1="1" x2="709" y2="108" style="stroke:#ddd;stroke-width:2;stroke-dasharray:3 3" />
<line x1="818" y1="1" x2="818" y2="108" style="stroke:#ddd;stroke-width:2;stroke-dasharray:3 3" />
<line x1="927" y1="1" x2="927" y2="108" style="stroke:#ddd;stroke-width:2;stroke-dasharray:3 3" />
<line x1="1036" y1="1" x2="1036" y2="108" style="stroke:#ddd;stroke-width:2;stroke-dasharray:3 3" />
<line x1="1145" y1="1" x2="1145" y2="108" style="stroke:#ddd;stroke-width:2;stroke-dasharray:3 3" />
<line x1="1254" y1="1" x2="1254" y2="108" style="stroke:#ddd;stroke-width:2;stroke-dasharray:3 3" />
<line x1="1363" y1="1" x2="1363" y2="108" style="stroke:#ddd;stroke-width:2;stroke-dasharray:3 3" />
<path d="M11.26,37.4c0.46,0.51,1.02,1.4,1.12,2.06c0.87,5.79,2.37,13.29,3.62,21.93" style="fill:none;stroke:black;stroke-width:3" />
<circle cx="11.26" cy="37.4" r="5" stroke-width="0" fill="#FF2A00" opacity="0.7" />
<path d="M120.26,37.4c0.46,0.51,1.02,1.4,1.12,2.06c0.87,5.79,2.37,13.29,3.62,21.93" style="fill:none;stroke:#999;stroke-width:3" />
<path d="M122.22,38.98c6.93-0.97,20.11-2.83,25.13-3.2c1.96-0.14,2.86,1.38,2.62,2.83c-0.83,4.98-1.98,8.84-3.33,17.12" style="fill:none;stroke:black;stroke-width:3" />
<circle cx="122.22" cy="38.98" r="5" stroke-width="0" fill="#FF2A00" opacity="0.7" />
<path d="M229.26,37.4c0.46,0.51,1.02,1.4,1.12,2.06c0.87,5.79,2.37,13.29,3.62,21.93" style="fill:none;stroke:#999;stroke-width:3" />
<path d="M231.22,38.98c6.93-0.97,20.11-2.83,25.13-3.2c1.96-0.14,2.86,1.38,2.62,2.83c-0.83,4.98-1.98,8.84-3.33,17.12" style="fill:none;stroke:#999;stroke-width:3" />
<path d="M234.26,58.93c5.58-0.98,15.96-2.48,23.76-3.39" style="fill:none;stroke:black;stroke-width:3" />
<circle cx="234.26" cy="58.93" r="5" stroke-width="0" fill="#FF2A00" opacity="0.7" />
<path d="M338.26,37.4c0.46,0.51,1.02,1.4,1.12,2.06c0.87,5.79,2.37,13.29,3.62,21.93" style="fill:none;stroke:#999;stroke-width:3" />
<path d="M340.22,38.98c6.93-0.97,20.11-2.83,25.13-3.2c1.96-0.14,2.86,1.38,2.62,2.83c-0.83,4.98-1.98,8.84-3.33,17.12" style="fill:none;stroke:#999;stroke-width:3" />
<path d="M343.26,58.93c5.58-0.98,15.96-2.48,23.76-3.39" style="fill:none;stroke:#999;stroke-width:3" />
<path d="M351.42,17.75c1.08,1,2.26,2.75,2.26,4.47c0,4.78-0.2,44.78-0.2,58.16" style="fill:none;stroke:black;stroke-width:3" />
<circle cx="351.42" cy="17.75" r="5" stroke-width="0" fill="#FF2A00" opacity="0.7" />
<path d="M447.26,37.4c0.46,0.51,1.02,1.4,1.12,2.06c0.87,5.79,2.37,13.29,3.62,21.93" style="fill:none;stroke:#999;stroke-width:3" />
<path d="M449.22,38.98c6.93-0.97,20.11-2.83,25.13-3.2c1.96-0.14,2.86,1.38,2.62,2.83c-0.83,4.98-1.98,8.84-3.33,17.12" style="fill:none;stroke:#999;stroke-width:3" />
<path d="M452.26,58.93c5.58-0.98,15.96-2.48,23.76-3.39" style="fill:none;stroke:#999;stroke-width:3" />
<path d="M460.42,17.75c1.08,1,2.26,2.75,2.26,4.47c0,4.78-0.2,44.78-0.2,58.16" style="fill:none;stroke:#999;stroke-width:3" />
<path d="M447.57,86.27c0.56,1.16,2.3,1.11,2.86,0.82c0.56-0.29,21.97-12.15,25.45-14.47" style="fill:none;stroke:black;stroke-width:3" />
<circle cx="447.57" cy="86.27" r="5" stroke-width="0" fill="#FF2A00" opacity="0.7" />
<path d="M556.26,37.4c0.46,0.51,1.02,1.4,1.12,2.06c0.87,5.79,2.37,13.29,3.62,21.93" style="fill:none;stroke:#999;stroke-width:3" />
<path d="M558.22,38.98c6.93-0.97,20.11-2.83,25.13-3.2c1.96-0.14,2.86,1.38,2.62,2.83c-0.83,4.98-1.98,8.84-3.33,17.12" style="fill:none;stroke:#999;stroke-width:3" />
<path d="M561.26,58.93c5.58-0.98,15.96-2.48,23.76-3.39" style="fill:none;stroke:#999;stroke-width:3" />
<path d="M569.4200000000001,17.75c1.08,1,2.26,2.75,2.26,4.47c0,4.78-0.2,44.78-0.2,58.16" style="fill:none;stroke:#999;stroke-width:3" />
<path d="M556.5699999999999,86.27c0.56,1.16,2.3,1.11,2.86,0.82c0.56-0.29,21.97-12.15,25.45-14.47" style="fill:none;stroke:#999;stroke-width:3" />
<path d="M579.5,64.75c3.02,2.32,7.8,9.54,8.56,13.14" style="fill:none;stroke:black;stroke-width:3" />
<circle cx="579.5" cy="64.75" r="5" stroke-width="0" fill="#FF2A00" opacity="0.7" />
<path d="M665.26,37.4c0.46,0.51,1.02,1.4,1.12,2.06c0.87,5.79,2.37,13.29,3.62,21.93" style="fill:none;stroke:#999;stroke-width:3" />
<path d="M667.22,38.98c6.93-0.97,20.11-2.83,25.13-3.2c1.96-0.14,2.86,1.38,2.62,2.83c-0.83,4.98-1.98,8.84-3.33,17.12" style="fill:none;stroke:#999;stroke-width:3" />
<path d="M670.26,58.93c5.58-0.98,15.96-2.48,23.76-3.39" style="fill:none;stroke:#999;stroke-width:3" />
<path d="M678.4200000000001,17.75c1.08,1,2.26,2.75,2.26,4.47c0,4.78-0.2,44.78-0.2,58.16" style="fill:none;stroke:#999;stroke-width:3" />
<path d="M665.5699999999999,86.27c0.56,1.16,2.3,1.11,2.86,0.82c0.56-0.29,21.97-12.15,25.45-14.47" style="fill:none;stroke:#999;stroke-width:3" />
<path d="M688.5,64.75c3.02,2.32,7.8,9.54,8.56,13.14" style="fill:none;stroke:#999;stroke-width:3" />
<path d="M719.8199999999999,11.5c0.07,0.84,0.28,2.24-0.15,3.39c-2.68,7.19-6.59,21.14-20.7,32.43" style="fill:none;stroke:black;stroke-width:3" />
<circle cx="719.8199999999999" cy="11.5" r="5" stroke-width="0" fill="#FF2A00" opacity="0.7" />
<path d="M774.26,37.4c0.46,0.51,1.02,1.4,1.12,2.06c0.87,5.79,2.37,13.29,3.62,21.93" style="fill:none;stroke:#999;stroke-width:3" />
<path d="M776.22,38.98c6.93-0.97,20.11-2.83,25.13-3.2c1.96-0.14,2.86,1.38,2.62,2.83c-0.83,4.98-1.98,8.84-3.33,17.12" style="fill:none;stroke:#999;stroke-width:3" />
<path d="M779.26,58.93c5.58-0.98,15.96-2.48,23.76-3.39" style="fill:none;stroke:#999;stroke-width:3" />
<path d="M787.4200000000001,17.75c1.08,1,2.26,2.75,2.26,4.47c0,4.78-0.2,44.78-0.2,58.16" style="fill:none;stroke:#999;stroke-width:3" />
<path d="M774.5699999999999,86.27c0.56,1.16,2.3,1.11,2.86,0.82c0.56-0.29,21.97-12.15,25.45-14.47" style="fill:none;stroke:#999;stroke-width:3" />
<path d="M797.5,64.75c3.02,2.32,7.8,9.54,8.56,13.14" style="fill:none;stroke:#999;stroke-width:3" />
<path d="M828.8199999999999,11.5c0.07,0.84,0.28,2.24-0.15,3.39c-2.68,7.19-6.59,21.14-20.7,32.43" style="fill:none;stroke:#999;stroke-width:3" />
<path d="M829.04,14.49c3.77,5.21,21.38,22.92,25.1,26.81c1.26,1.32,2.88,1.88,4.14,2.26" style="fill:none;stroke:black;stroke-width:3" />
<circle cx="829.04" cy="14.49" r="5" stroke-width="0" fill="#FF2A00" opacity="0.7" />
<path d="M883.26,37.4c0.46,0.51,1.02,1.4,1.12,2.06c0.87,5.79,2.37,13.29,3.62,21.93" style="fill:none;stroke:#999;stroke-width:3" />
<path d="M885.22,38.98c6.93-0.97,20.11-2.83,25.13-3.2c1.96-0.14,2.86,1.38,2.62,2.83c-0.83,4.98-1.98,8.84-3.33,17.12" style="fill:none;stroke:#999;stroke-width:3" />
<path d="M888.26,58.93c5.58-0.98,15.96-2.48,23.76-3.39" style="fill:none;stroke:#999;stroke-width:3" />
<path d="M896.4200000000001,17.75c1.08,1,2.26,2.75,2.26,4.47c0,4.78-0.2,44.78-0.2,58.16" style="fill:none;stroke:#999;stroke-width:3" />
<path d="M883.5699999999999,86.27c0.56,1.16,2.3,1.11,2.86,0.82c0.56-0.29,21.97-12.15,25.45-14.47" style="fill:none;stroke:#999;stroke-width:3" />
<path d="M906.5,64.75c3.02,2.32,7.8,9.54,8.56,13.14" style="fill:none;stroke:#999;stroke-width:3" />
<path d="M937.8199999999999,11.5c0.07,0.84,0.28,2.24-0.15,3.39c-2.68,7.19-6.59,21.14-20.7,32.43" style="fill:none;stroke:#999;stroke-width:3" />
<path d="M938.04,14.49c3.77,5.21,21.38,22.92,25.1,26.81c1.26,1.32,2.88,1.88,4.14,2.26" style="fill:none;stroke:#999;stroke-width:3" />
<path d="M926.5,44.76c0.81,0.33,2.28,0.39,3.09,0.33c7.79-0.56,17.33-1.42,23.87-1.86c1.21-0.08,1.94,0.16,2.54,0.32" style="fill:none;stroke:black;stroke-width:3" />
<circle cx="926.5" cy="44.76" r="5" stroke-width="0" fill="#FF2A00" opacity="0.7" />
<path d="M992.26,37.4c0.46,0.51,1.02,1.4,1.12,2.06c0.87,5.79,2.37,13.29,3.62,21.93" style="fill:none;stroke:#999;stroke-width:3" />
<path d="M994.22,38.98c6.93-0.97,20.11-2.83,25.13-3.2c1.96-0.14,2.86,1.38,2.62,2.83c-0.83,4.98-1.98,8.84-3.33,17.12" style="fill:none;stroke:#999;stroke-width:3" />
<path d="M997.26,58.93c5.58-0.98,15.96-2.48,23.76-3.39" style="fill:none;stroke:#999;stroke-width:3" />
<path d="M1005.4200000000001,17.75c1.08,1,2.26,2.75,2.26,4.47c0,4.78-0.2,44.78-0.2,58.16" style="fill:none;stroke:#999;stroke-width:3" />
<path d="M992.5699999999999,86.27c0.56,1.16,2.3,1.11,2.86,0.82c0.56-0.29,21.97-12.15,25.45-14.47" style="fill:none;stroke:#999;stroke-width:3" />
<path d="M1015.5,64.75c3.02,2.32,7.8,9.54,8.56,13.14" style="fill:none;stroke:#999;stroke-width:3" />
<path d="M1046.82,11.5c0.07,0.84,0.28,2.24-0.15,3.39c-2.68,7.19-6.59,21.14-20.7,32.43" style="fill:none;stroke:#999;stroke-width:3" />
<path d="M1047.04,14.49c3.77,5.21,21.38,22.92,25.1,26.81c1.26,1.32,2.88,1.88,4.14,2.26" style="fill:none;stroke:#999;stroke-width:3" />
<path d="M1035.5,44.76c0.81,0.33,2.28,0.39,3.09,0.33c7.79-0.56,17.33-1.42,23.87-1.86c1.21-0.08,1.94,0.16,2.54,0.32" style="fill:none;stroke:#999;stroke-width:3" />
<path d="M1028.49,60.79c1.04,0.64,2.97,0.82,4.03,0.68c10.8-1.42,28.77-3.09,39.02-3.53c1.99-0.08,3.19,0.2,4.18,0.41" style="fill:none;stroke:black;stroke-width:3" />
<circle cx="1028.49" cy="60.79" r="5" stroke-width="0" fill="#FF2A00" opacity="0.7" />
<path d="M1101.26,37.4c0.46,0.51,1.02,1.4,1.12,2.06c0.87,5.79,2.37,13.29,3.62,21.93" style="fill:none;stroke:#999;stroke-width:3" />
<path d="M1103.22,38.98c6.93-0.97,20.11-2.83,25.13-3.2c1.96-0.14,2.86,1.38,2.62,2.83c-0.83,4.98-1.98,8.84-3.33,17.12" style="fill:none;stroke:#999;stroke-width:3" />
<path d="M1106.26,58.93c5.58-0.98,15.96-2.48,23.76-3.39" style="fill:none;stroke:#999;stroke-width:3" />
<path d="M1114.42,17.75c1.08,1,2.26,2.75,2.26,4.47c0,4.78-0.2,44.78-0.2,58.16" style="fill:none;stroke:#999;stroke-width:3" />
<path d="M1101.57,86.27c0.56,1.16,2.3,1.11,2.86,0.82c0.56-0.29,21.97-12.15,25.45-14.47" style="fill:none;stroke:#999;stroke-width:3" />
<path d="M1124.5,64.75c3.02,2.32,7.8,9.54,8.56,13.14" style="fill:none;stroke:#999;stroke-width:3" />
<path d="M1155.82,11.5c0.07,0.84,0.28,2.24-0.15,3.39c-2.68,7.19-6.59,21.14-20.7,32.43" style="fill:none;stroke:#999;stroke-width:3" />
<path d="M1156.04,14.49c3.77,5.21,21.38,22.92,25.1,26.81c1.26,1.32,2.88,1.88,4.14,2.26" style="fill:none;stroke:#999;stroke-width:3" />
<path d="M1144.5,44.76c0.81,0.33,2.28,0.39,3.09,0.33c7.79-0.56,17.33-1.42,23.87-1.86c1.21-0.08,1.94,0.16,2.54,0.32" style="fill:none;stroke:#999;stroke-width:3" />
<path d="M1137.49,60.79c1.04,0.64,2.97,0.82,4.03,0.68c10.8-1.42,28.77-3.09,39.02-3.53c1.99-0.08,3.19,0.2,4.18,0.41" style="fill:none;stroke:#999;stroke-width:3" />
<path d="M1158.04,47.3c0.71,0.45,1.71,2.95,1.71,4.8c0,18.93-0.25,31.76-0.25,36.52c0,10.8-5.96,1.92-7.4,0.72" style="fill:none;stroke:black;stroke-width:3" />
<circle cx="1158.04" cy="47.3" r="5" stroke-width="0" fill="#FF2A00" opacity="0.7" />
<path d="M1210.26,37.4c0.46,0.51,1.02,1.4,1.12,2.06c0.87,5.79,2.37,13.29,3.62,21.93" style="fill:none;stroke:#999;stroke-width:3" />
<path d="M1212.22,38.98c6.93-0.97,20.11-2.83,25.13-3.2c1.96-0.14,2.86,1.38,2.62,2.83c-0.83,4.98-1.98,8.84-3.33,17.12" style="fill:none;stroke:#999;stroke-width:3" />
<path d="M1215.26,58.93c5.58-0.98,15.96-2.48,23.76-3.39" style="fill:none;stroke:#999;stroke-width:3" />
<path d="M1223.42,17.75c1.08,1,2.26,2.75,2.26,4.47c0,4.78-0.2,44.78-0.2,58.16" style="fill:none;stroke:#999;stroke-width:3" />
<path d="M1210.57,86.27c0.56,1.16,2.3,1.11,2.86,0.82c0.56-0.29,21.97-12.15,25.45-14.47" style="fill:none;stroke:#999;stroke-width:3" />
<path d="M1233.5,64.75c3.02,2.32,7.8,9.54,8.56,13.14" style="fill:none;stroke:#999;stroke-width:3" />
<path d="M1264.82,11.5c0.07,0.84,0.28,2.24-0.15,3.39c-2.68,7.19-6.59,21.14-20.7,32.43" style="fill:none;stroke:#999;stroke-width:3" />
<path d="M1265.04,14.49c3.77,5.21,21.38,22.92,25.1,26.81c1.26,1.32,2.88,1.88,4.14,2.26" style="fill:none;stroke:#999;stroke-width:3" />
<path d="M1253.5,44.76c0.81,0.33,2.28,0.39,3.09,0.33c7.79-0.56,17.33-1.42,23.87-1.86c1.21-0.08,1.94,0.16,2.54,0.32" style="fill:none;stroke:#999;stroke-width:3" />
<path d="M1246.49,60.79c1.04,0.64,2.97,0.82,4.03,0.68c10.8-1.42,28.77-3.09,39.02-3.53c1.99-0.08,3.19,0.2,4.18,0.41" style="fill:none;stroke:#999;stroke-width:3" />
<path d="M1267.04,47.3c0.71,0.45,1.71,2.95,1.71,4.8c0,18.93-0.25,31.76-0.25,36.52c0,10.8-5.96,1.92-7.4,0.72" style="fill:none;stroke:#999;stroke-width:3" />
<path d="M1254.71,69.75c0.05,0.5,0.2,1.36-0.09,2.01c-2.12,4.81-7.58,11.96-16.24,19.25" style="fill:none;stroke:black;stroke-width:3" />
<circle cx="1254.71" cy="69.75" r="5" stroke-width="0" fill="#FF2A00" opacity="0.7" />
<path d="M1319.26,37.4c0.46,0.51,1.02,1.4,1.12,2.06c0.87,5.79,2.37,13.29,3.62,21.93" style="fill:none;stroke:#999;stroke-width:3" />
<path d="M1321.22,38.98c6.93-0.97,20.11-2.83,25.13-3.2c1.96-0.14,2.86,1.38,2.62,2.83c-0.83,4.98-1.98,8.84-3.33,17.12" style="fill:none;stroke:#999;stroke-width:3" />
<path d="M1324.26,58.93c5.58-0.98,15.96-2.48,23.76-3.39" style="fill:none;stroke:#999;stroke-width:3" />
<path d="M1332.42,17.75c1.08,1,2.26,2.75,2.26,4.47c0,4.78-0.2,44.78-0.2,58.16" style="fill:none;stroke:#999;stroke-width:3" />
<path d="M1319.57,86.27c0.56,1.16,2.3,1.11,2.86,0.82c0.56-0.29,21.97-12.15,25.45-14.47" style="fill:none;stroke:#999;stroke-width:3" />
<path d="M1342.5,64.75c3.02,2.32,7.8,9.54,8.56,13.14" style="fill:none;stroke:#999;stroke-width:3" />
<path d="M1373.82,11.5c0.07,0.84,0.28,2.24-0.15,3.39c-2.68,7.19-6.59,21.14-20.7,32.43" style="fill:none;stroke:#999;stroke-width:3" />
<path d="M1374.04,14.49c3.77,5.21,21.38,22.92,25.1,26.81c1.26,1.32,2.88,1.88,4.14,2.26" style="fill:none;stroke:#999;stroke-width:3" />
<path d="M1362.5,44.76c0.81,0.33,2.28,0.39,3.09,0.33c7.79-0.56,17.33-1.42,23.87-1.86c1.21-0.08,1.94,0.16,2.54,0.32" style="fill:none;stroke:#999;stroke-width:3" />
<path d="M1355.49,60.79c1.04,0.64,2.97,0.82,4.03,0.68c10.8-1.42,28.77-3.09,39.02-3.53c1.99-0.08,3.19,0.2,4.18,0.41" style="fill:none;stroke:#999;stroke-width:3" />
<path d="M1376.04,47.3c0.71,0.45,1.71,2.95,1.71,4.8c0,18.93-0.25,31.76-0.25,36.52c0,10.8-5.96,1.92-7.4,0.72" style="fill:none;stroke:#999;stroke-width:3" />
<path d="M1363.71,69.75c0.05,0.5,0.2,1.36-0.09,2.01c-2.12,4.81-7.58,11.96-16.24,19.25" style="fill:none;stroke:#999;stroke-width:3" />
<path d="M1388.62,69.24c4.8,3.48,12.4,14.3,13.59,19.71" style="fill:none;stroke:black;stroke-width:3" />
<circle cx="1388.62" cy="69.24" r="5" stroke-width="0" fill="#FF2A00" opacity="0.7" />
</svg>