<!-- 0887f -->
<svg width="981px" height="109px" viewBox="0 0 981px 109px" xmlns="http://www.w3.org/2000/svg" xmlns:xlink="http://www.w3.org/1999/xlink" xml:space="preserve" version="1.1"  baseProfile="full">
<line x1="1" y1="1" x2="980" y2="1" style="stroke:#ddd;stroke-width:2" />
<line x1="1" y1="1" x2="1" y2="108" style="stroke:#ddd;stroke-width:2" />
<line x1="1" y1="108" x2="980" y2="108" style="stroke:#ddd;stroke-width:2" />
<line x1="980" y1="1" x2="980" y2="108" style="stroke:#ddd;stroke-width:2" />
<line x1="109" y1="1" x2="109" y2="108" style="stroke:#ddd;stroke-width:2" />
<line x1="218" y1="1" x2="218" y2="108" style="stroke:#ddd;stroke-width:2" />
<line x1="327" y1="1" x2="327" y2="108" style="stroke:#ddd;stroke-width:2" />
<line x1="436" y1="1" x2="436" y2="108" style="stroke:#ddd;stroke-width:2" />
<line x1="545" y1="1" x2="545" y2="108" style="stroke:#ddd;stroke-width:2" />
<line x1="654" y1="1" x2="654" y2="108" style="stroke:#ddd;stroke-width:2" />
<line x1="763" y1="1" x2="763" y2="108" style="stroke:#ddd;stroke-width:2" />
<line x1="872" y1="1" x2="872" y2="108" style="stroke:#ddd;stroke-width:2" />
<line x1="1" y1="54" x2="980" y2="54" style="stroke:#ddd;stroke-width:2;stroke-dasharray:3 3" />
<line x1="55" y1="1" x2="55" y2="108" style="stroke:#ddd;stroke-width:2;stroke-dasharray:3 3" />
<line x1="164" y1="1" x2="164" y2="108" style="stroke:#ddd;stroke-width:2;stroke-dasharray:3 3" />
<line x1="273" y1="1" x2="273" y2="108" style="stroke:#ddd;stroke-width:2;stroke-dasharray:3 3" />
<line x1="382" y1="1" x2="382" y2="108" style="stroke:#ddd;stroke-width:2;stroke-dasharray:3 3" />
<line x1="491" y1="1" x2="491" y2="108" style="stroke:#ddd;stroke-width:2;stroke-dasharray:3 3" />
<line x1="600" y1="1" x2="600" y2="108" style="stroke:#ddd;stroke-width:2;stroke-dasharray:3 3" />
<line x1="709" y1="1" x2="709" y2="108" style="stroke:#ddd;stroke-width:2;stroke-dasharray:3 3" />
<line x1="818" y1="1" x2="818" y2="108" style="stroke:#ddd;stroke-width:2;stroke-dasharray:3 3" />
<line x1="927" y1="1" x2="927" y2="108" style="stroke:#ddd;stroke-width:2;stroke-dasharray:3 3" />
<path d="M19.75,14.62c3.44,2.5,7.13,6.25,10.08,10.62" style="fill:none;stroke:black;stroke-width:3" />
<circle cx="19.75" cy="14.62" r="5" stroke-width="0" fill="#FF2A00" opacity="0.7" />
<path d="M128.75,14.62c3.44,2.5,7.13,6.25,10.08,10.62" style="fill:none;stroke:#999;stroke-width:3" />
<path d="M119.45,34.11c2.43,1.02,3.98,1.15,6.46,0.53c5.13-1.29,17.53-5.87,19.44-6.41c2.33-0.66,3.58,1.33,2.26,3.35C139.86,43.4 131.0,56 119.25,66.25" style="fill:none;stroke:black;stroke-width:3" />
<circle cx="119.45" cy="34.11" r="5" stroke-width="0" fill="#FF2A00" opacity="0.7" />
<path d="M237.75,14.62c3.44,2.5,7.13,6.25,10.08,10.62" style="fill:none;stroke:#999;stroke-width:3" />
<path d="M228.45,34.11c2.43,1.02,3.98,1.15,6.46,0.53c5.13-1.29,17.53-5.87,19.44-6.41c2.33-0.66,3.58,1.33,2.26,3.35C248.86,43.4 240.0,56 228.25,66.25" style="fill:none;stroke:#999;stroke-width:3" />
<path d="M244.5,51.36c0.82,0.82,1.02,1.89,1.02,3.39c0,6.94,0.03,25.47,0.05,34.88c0,2.73,0.01,4.69,0.01,5.37" style="fill:none;stroke:black;stroke-width:3" />
<circle cx="244.5" cy="51.36" r="5" stroke-width="0" fill="#FF2A00" opacity="0.7" />
<path d="M346.75,14.62c3.44,2.5,7.13,6.25,10.08,10.62" style="fill:none;stroke:#999;stroke-width:3" />
<path d="M337.45,34.11c2.43,1.02,3.98,1.15,6.46,0.53c5.13-1.29,17.53-5.87,19.44-6.41c2.33-0.66,3.58,1.33,2.26,3.35C357.86,43.4 349.0,56 337.25,66.25" style="fill:none;stroke:#999;stroke-width:3" />
<path d="M353.5,51.36c0.82,0.82,1.02,1.89,1.02,3.39c0,6.94,0.03,25.47,0.05,34.88c0,2.73,0.01,4.69,0.01,5.37" style="fill:none;stroke:#999;stroke-width:3" />
<path d="M365.63,46.12c0.18,0.73-0.11,1.62-0.47,2.16c-1.1,1.61-4.5,5.56-6.7,7.47" style="fill:none;stroke:black;stroke-width:3" />
<circle cx="365.63" cy="46.12" r="5" stroke-width="0" fill="#FF2A00" opacity="0.7" />
<path d="M455.75,14.62c3.44,2.5,7.13,6.25,10.08,10.62" style="fill:none;stroke:#999;stroke-width:3" />
<path d="M446.45,34.11c2.43,1.02,3.98,1.15,6.46,0.53c5.13-1.29,17.53-5.87,19.44-6.41c2.33-0.66,3.58,1.33,2.26,3.35C466.86,43.4 458.0,56 446.25,66.25" style="fill:none;stroke:#999;stroke-width:3" />
<path d="M462.5,51.36c0.82,0.82,1.02,1.89,1.02,3.39c0,6.94,0.03,25.47,0.05,34.88c0,2.73,0.01,4.69,0.01,5.37" style="fill:none;stroke:#999;stroke-width:3" />
<path d="M474.63,46.12c0.18,0.73-0.11,1.62-0.47,2.16c-1.1,1.61-4.5,5.56-6.7,7.47" style="fill:none;stroke:#999;stroke-width:3" />
<path d="M466.58,56.62c2.99,2.38,6.19,5.96,8.75,10.12" style="fill:none;stroke:black;stroke-width:3" />
<circle cx="466.58" cy="56.62" r="5" stroke-width="0" fill="#FF2A00" opacity="0.7" />
<path d="M564.75,14.62c3.44,2.5,7.13,6.25,10.08,10.62" style="fill:none;stroke:#999;stroke-width:3" />
<path d="M555.45,34.11c2.43,1.02,3.98,1.15,6.46,0.53c5.13-1.29,17.53-5.87,19.44-6.41c2.33-0.66,3.58,1.33,2.26,3.35C575.86,43.4 567.0,56 555.25,66.25" style="fill:none;stroke:#999;stroke-width:3" />
<path d="M571.5,51.36c0.82,0.82,1.02,1.89,1.02,3.39c0,6.94,0.03,25.47,0.05,34.88c0,2.73,0.01,4.69,0.01,5.37" style="fill:none;stroke:#999;stroke-width:3" />
<path d="M583.63,46.12c0.18,0.73-0.11,1.62-0.47,2.16c-1.1,1.61-4.5,5.56-6.7,7.47" style="fill:none;stroke:#999;stroke-width:3" />
<path d="M575.5799999999999,56.62c2.99,2.38,6.19,5.96,8.75,10.12" style="fill:none;stroke:#999;stroke-width:3" />
<path d="M610.08,16.25c0.07,0.91-0.15,2.17-0.63,3.39C605.62,29.25 598.88,41.75 586.1,54.5" style="fill:none;stroke:black;stroke-width:3" />
<circle cx="610.08" cy="16.25" r="5" stroke-width="0" fill="#FF2A00" opacity="0.7" />
<path d="M673.75,14.62c3.44,2.5,7.13,6.25,10.08,10.62" style="fill:none;stroke:#999;stroke-width:3" />
<path d="M664.45,34.11c2.43,1.02,3.98,1.15,6.46,0.53c5.13-1.29,17.53-5.87,19.44-6.41c2.33-0.66,3.58,1.33,2.26,3.35C684.86,43.4 676.0,56 664.25,66.25" style="fill:none;stroke:#999;stroke-width:3" />
<path d="M680.5,51.36c0.82,0.82,1.02,1.89,1.02,3.39c0,6.94,0.03,25.47,0.05,34.88c0,2.73,0.01,4.69,0.01,5.37" style="fill:none;stroke:#999;stroke-width:3" />
<path d="M692.63,46.12c0.18,0.73-0.11,1.62-0.47,2.16c-1.1,1.61-4.5,5.56-6.7,7.47" style="fill:none;stroke:#999;stroke-width:3" />
<path d="M684.5799999999999,56.62c2.99,2.38,6.19,5.96,8.75,10.12" style="fill:none;stroke:#999;stroke-width:3" />
<path d="M719.08,16.25c0.07,0.91-0.15,2.17-0.63,3.39C714.62,29.25 707.88,41.75 695.1,54.5" style="fill:none;stroke:#999;stroke-width:3" />
<path d="M719.38,20.88c3.25,4.97,15.27,19.14,22.23,26.64c2.77,2.99,4.52,4.61,7.55,6.29" style="fill:none;stroke:black;stroke-width:3" />
<circle cx="719.38" cy="20.88" r="5" stroke-width="0" fill="#FF2A00" opacity="0.7" />
<path d="M782.75,14.62c3.44,2.5,7.13,6.25,10.08,10.62" style="fill:none;stroke:#999;stroke-width:3" />
<path d="M773.45,34.11c2.43,1.02,3.98,1.15,6.46,0.53c5.13-1.29,17.53-5.87,19.44-6.41c2.33-0.66,3.58,1.33,2.26,3.35C793.86,43.4 785.0,56 773.25,66.25" style="fill:none;stroke:#999;stroke-width:3" />
<path d="M789.5,51.36c0.82,0.82,1.02,1.89,1.02,3.39c0,6.94,0.03,25.47,0.05,34.88c0,2.73,0.01,4.69,0.01,5.37" style="fill:none;stroke:#999;stroke-width:3" />
<path d="M801.63,46.12c0.18,0.73-0.11,1.62-0.47,2.16c-1.1,1.61-4.5,5.56-6.7,7.47" style="fill:none;stroke:#999;stroke-width:3" />
<path d="M793.5799999999999,56.62c2.99,2.38,6.19,5.96,8.75,10.12" style="fill:none;stroke:#999;stroke-width:3" />
<path d="M828.08,16.25c0.07,0.91-0.15,2.17-0.63,3.39C823.62,29.25 816.88,41.75 804.1,54.5" style="fill:none;stroke:#999;stroke-width:3" />
<path d="M828.38,20.88c3.25,4.97,15.27,19.14,22.23,26.64c2.77,2.99,4.52,4.61,7.55,6.29" style="fill:none;stroke:#999;stroke-width:3" />
<path d="M817.48,47.51c1.17,0.55,3.55,0.17,4.76,0.05c3.99-0.4,10.08-1.29,13.39-2.02c1.26-0.28,3-0.59,4.27-0.23" style="fill:none;stroke:black;stroke-width:3" />
<circle cx="817.48" cy="47.51" r="5" stroke-width="0" fill="#FF2A00" opacity="0.7" />
<path d="M891.75,14.62c3.44,2.5,7.13,6.25,10.08,10.62" style="fill:none;stroke:#999;stroke-width:3" />
<path d="M882.45,34.11c2.43,1.02,3.98,1.15,6.46,0.53c5.13-1.29,17.53-5.87,19.44-6.41c2.33-0.66,3.58,1.33,2.26,3.35C902.86,43.4 894.0,56 882.25,66.25" style="fill:none;stroke:#999;stroke-width:3" />
<path d="M898.5,51.36c0.82,0.82,1.02,1.89,1.02,3.39c0,6.94,0.03,25.47,0.05,34.88c0,2.73,0.01,4.69,0.01,5.37" style="fill:none;stroke:#999;stroke-width:3" />
<path d="M910.63,46.12c0.18,0.73-0.11,1.62-0.47,2.16c-1.1,1.61-4.5,5.56-6.7,7.47" style="fill:none;stroke:#999;stroke-width:3" />
<path d="M902.5799999999999,56.62c2.99,2.38,6.19,5.96,8.75,10.12" style="fill:none;stroke:#999;stroke-width:3" />
<path d="M937.08,16.25c0.07,0.91-0.15,2.17-0.63,3.39C932.62,29.25 925.88,41.75 913.1,54.5" style="fill:none;stroke:#999;stroke-width:3" />
<path d="M937.38,20.88c3.25,4.97,15.27,19.14,22.23,26.64c2.77,2.99,4.52,4.61,7.55,6.29" style="fill:none;stroke:#999;stroke-width:3" />
<path d="M926.48,47.51c1.17,0.55,3.55,0.17,4.76,0.05c3.99-0.4,10.08-1.29,13.39-2.02c1.26-0.28,3-0.59,4.27-0.23" style="fill:none;stroke:#999;stroke-width:3" />
<path d="M918.75,62.5c2.27,0.57,4.17,0.69,6.5,0.35c6.55-0.96,18.09-2.91,24.49-4.05c3.99-0.71,5.51,0.94,3.51,4.69c-4.67,8.75-11,21.5-16.75,31" style="fill:none;stroke:black;stroke-width:3" />
<circle cx="918.75" cy="62.5" r="5" stroke-width="0" fill="#FF2A00" opacity="0.7" />
</svg>