<!-- 088b0 -->
<svg width="1199px" height="109px" viewBox="0 0 1199px 109px" xmlns="http://www.w3.org/2000/svg" xmlns:xlink="http://www.w3.org/1999/xlink" xml:space="preserve" version="1.1"  baseProfile="full">
<line x1="1" y1="1" x2="1198" y2="1" style="stroke:#ddd;stroke-width:2" />
<line x1="1" y1="1" x2="1" y2="108" style="stroke:#ddd;stroke-width:2" />
<line x1="1" y1="108" x2="1198" y2="108" style="stroke:#ddd;stroke-width:2" />
<line x1="1198" y1="1" x2="1198" y2="108" style="stroke:#ddd;stroke-width:2" />
<line x1="109" y1="1" x2="109" y2="108" style="stroke:#ddd;stroke-width:2" />
<line x1="218" y1="1" x2="218" y2="108" style="stroke:#ddd;stroke-width:2" />
<line x1="327" y1="1" x2="327" y2="108" style="stroke:#ddd;stroke-width:2" />
<line x1="436" y1="1" x2="436" y2="108" style="stroke:#ddd;stroke-width:2" />
<line x1="545" y1="1" x2="545" y2="108" style="stroke:#ddd;stroke-width:2" />
<line x1="654" y1="1" x2="654" y2="108" style="stroke:#ddd;stroke-width:2" />
<line x1="763" y1="1" x2="763" y2="108" style="stroke:#ddd;stroke-width:2" />
<line x1="872" y1="1" x2="872" y2="108" style="stroke:#ddd;stroke-width:2" />
<line x1="981" y1="1" x2="981" y2="108" style="stroke:#ddd;stroke-width:2" />
<line x1="1090" y1="1" x2="1090" y2="108" style="stroke:#ddd;stroke-width:2" />
<line x1="1" y1="54" x2="1198" y2="54" style="stroke:#ddd;stroke-width:2;stroke-dasharray:3 3" />
<line x1="55" y1="1" x2="55" y2="108" style="stroke:#ddd;stroke-width:2;stroke-dasharray:3 3" />
<line x1="164" y1="1" x2="164" y2="108" style="stroke:#ddd;stroke-width:2;stroke-dasharray:3 3" />
<line x1="273" y1="1" x2="273" y2="108" style="stroke:#ddd;stroke-width:2;stroke-dasharray:3 3" />
<line x1="382" y1="1" x2="382" y2="108" style="stroke:#ddd;stroke-width:2;stroke-dasharray:3 3" />
<line x1="491" y1="1" x2="491" y2="108" style="stroke:#ddd;stroke-width:2;stroke-dasharray:3 3" />
<line x1="600" y1="1" x2="600" y2="108" style="stroke:#ddd;stroke-width:2;stroke-dasharray:3 3" />
<line x1="709" y1="1" x2="709" y2="108" style="stroke:#ddd;stroke-width:2;stroke-dasharray:3 3" />
<line x1="818" y1="1" x2="818" y2="108" style="stroke:#ddd;stroke-width:2;stroke-dasharray:3 3" />
<line x1="927" y1="1" x2="927" y2="108" style="stroke:#ddd;stroke-width:2;stroke-dasharray:3 3" />
<line x1="1036" y1="1" x2="1036" y2="108" style="stroke:#ddd;stroke-width:2;stroke-dasharray:3 3" />
<line x1="1145" y1="1" x2="1145" y2="108" style="stroke:#ddd;stroke-width:2;stroke-dasharray:3 3" />
<path d="M40.17,11.88c0.08,1.12,0.12,3.28-0.43,4.84c-3.49,9.79-4.55,16.26-8.68,23.48c-1.26,2.2-1.37,3.22,2.12,3.18C46.62,43.22 66.0,45 81.92,49.09" style="fill:none;stroke:black;stroke-width:3" />
<circle cx="40.17" cy="11.88" r="5" stroke-width="0" fill="#FF2A00" opacity="0.7" />
<path d="M149.17000000000002,11.88c0.08,1.12,0.12,3.28-0.43,4.84c-3.49,9.79-4.55,16.26-8.68,23.48c-1.26,2.2-1.37,3.22,2.12,3.18C155.62,43.22 175.0,45 190.92000000000002,49.09" style="fill:none;stroke:#999;stroke-width:3" />
<path d="M149.82,14.98c0.75-0.1,2.69-0.21,3.35-0.28c6.71-0.7,24.38-3.71,28.25-4.28c2.82-0.42,4.1,0.44,3.87,2.45c-1.23,10.81-2.79,26.88-8.13,38.37c-2.09,4.5-5.44,0.97-6.54,0" style="fill:none;stroke:black;stroke-width:3" />
<circle cx="149.82" cy="14.98" r="5" stroke-width="0" fill="#FF2A00" opacity="0.7" />
<path d="M258.17,11.88c0.08,1.12,0.12,3.28-0.43,4.84c-3.49,9.79-4.55,16.26-8.68,23.48c-1.26,2.2-1.37,3.22,2.12,3.18C264.62,43.22 284.0,45 299.92,49.09" style="fill:none;stroke:#999;stroke-width:3" />
<path d="M258.82,14.98c0.75-0.1,2.69-0.21,3.35-0.28c6.71-0.7,24.38-3.71,28.25-4.28c2.82-0.42,4.1,0.44,3.87,2.45c-1.23,10.81-2.79,26.88-8.13,38.37c-2.09,4.5-5.44,0.97-6.54,0" style="fill:none;stroke:#999;stroke-width:3" />
<path d="M268.40999999999997,18.34c2.12,0.85,5.47,3.49,6,4.81" style="fill:none;stroke:black;stroke-width:3" />
<circle cx="268.40999999999997" cy="18.34" r="5" stroke-width="0" fill="#FF2A00" opacity="0.7" />
<path d="M367.17,11.88c0.08,1.12,0.12,3.28-0.43,4.84c-3.49,9.79-4.55,16.26-8.68,23.48c-1.26,2.2-1.37,3.22,2.12,3.18C373.62,43.22 393.0,45 408.92,49.09" style="fill:none;stroke:#999;stroke-width:3" />
<path d="M367.82,14.98c0.75-0.1,2.69-0.21,3.35-0.28c6.71-0.7,24.38-3.71,28.25-4.28c2.82-0.42,4.1,0.44,3.87,2.45c-1.23,10.81-2.79,26.88-8.13,38.37c-2.09,4.5-5.44,0.97-6.54,0" style="fill:none;stroke:#999;stroke-width:3" />
<path d="M377.40999999999997,18.34c2.12,0.85,5.47,3.49,6,4.81" style="fill:none;stroke:#999;stroke-width:3" />
<path d="M376.87,33.78c2.69,1.04,6.94,4.3,7.61,5.92" style="fill:none;stroke:black;stroke-width:3" />
<circle cx="376.87" cy="33.78" r="5" stroke-width="0" fill="#FF2A00" opacity="0.7" />
<path d="M476.17,11.88c0.08,1.12,0.12,3.28-0.43,4.84c-3.49,9.79-4.55,16.26-8.68,23.48c-1.26,2.2-1.37,3.22,2.12,3.18C482.62,43.22 502.0,45 517.9200000000001,49.09" style="fill:none;stroke:#999;stroke-width:3" />
<path d="M476.82,14.98c0.75-0.1,2.69-0.21,3.35-0.28c6.71-0.7,24.38-3.71,28.25-4.28c2.82-0.42,4.1,0.44,3.87,2.45c-1.23,10.81-2.79,26.88-8.13,38.37c-2.09,4.5-5.44,0.97-6.54,0" style="fill:none;stroke:#999;stroke-width:3" />
<path d="M486.40999999999997,18.34c2.12,0.85,5.47,3.49,6,4.81" style="fill:none;stroke:#999;stroke-width:3" />
<path d="M485.87,33.78c2.69,1.04,6.94,4.3,7.61,5.92" style="fill:none;stroke:#999;stroke-width:3" />
<path d="M451.39,31c1.69,0.64,4.78,0.75,6.47,0.64c21.74-1.36,28.96-3.72,63.85-4.16c2.82-0.04,4.5,0.3,5.91,0.62" style="fill:none;stroke:black;stroke-width:3" />
<circle cx="451.39" cy="31.0" r="5" stroke-width="0" fill="#FF2A00" opacity="0.7" />
<path d="M585.1700000000001,11.88c0.08,1.12,0.12,3.28-0.43,4.84c-3.49,9.79-4.55,16.26-8.68,23.48c-1.26,2.2-1.37,3.22,2.12,3.18C591.62,43.22 611.0,45 626.9200000000001,49.09" style="fill:none;stroke:#999;stroke-width:3" />
<path d="M585.8199999999999,14.98c0.75-0.1,2.69-0.21,3.35-0.28c6.71-0.7,24.38-3.71,28.25-4.28c2.82-0.42,4.1,0.44,3.87,2.45c-1.23,10.81-2.79,26.88-8.13,38.37c-2.09,4.5-5.44,0.97-6.54,0" style="fill:none;stroke:#999;stroke-width:3" />
<path d="M595.41,18.34c2.12,0.85,5.47,3.49,6,4.81" style="fill:none;stroke:#999;stroke-width:3" />
<path d="M594.87,33.78c2.69,1.04,6.94,4.3,7.61,5.92" style="fill:none;stroke:#999;stroke-width:3" />
<path d="M560.39,31c1.69,0.64,4.78,0.75,6.47,0.64c21.74-1.36,28.96-3.72,63.85-4.16c2.82-0.04,4.5,0.3,5.91,0.62" style="fill:none;stroke:#999;stroke-width:3" />
<path d="M597.29,49.25c0.66,0.35,1.75,1.59,1.75,2.42c0,1.35-0.09,6.77-0.09,8.26" style="fill:none;stroke:black;stroke-width:3" />
<circle cx="597.29" cy="49.25" r="5" stroke-width="0" fill="#FF2A00" opacity="0.7" />
<path d="M694.1700000000001,11.88c0.08,1.12,0.12,3.28-0.43,4.84c-3.49,9.79-4.55,16.26-8.68,23.48c-1.26,2.2-1.37,3.22,2.12,3.18C700.62,43.22 720.0,45 735.9200000000001,49.09" style="fill:none;stroke:#999;stroke-width:3" />
<path d="M694.8199999999999,14.98c0.75-0.1,2.69-0.21,3.35-0.28c6.71-0.7,24.38-3.71,28.25-4.28c2.82-0.42,4.1,0.44,3.87,2.45c-1.23,10.81-2.79,26.88-8.13,38.37c-2.09,4.5-5.44,0.97-6.54,0" style="fill:none;stroke:#999;stroke-width:3" />
<path d="M704.41,18.34c2.12,0.85,5.47,3.49,6,4.81" style="fill:none;stroke:#999;stroke-width:3" />
<path d="M703.87,33.78c2.69,1.04,6.94,4.3,7.61,5.92" style="fill:none;stroke:#999;stroke-width:3" />
<path d="M669.39,31c1.69,0.64,4.78,0.75,6.47,0.64c21.74-1.36,28.96-3.72,63.85-4.16c2.82-0.04,4.5,0.3,5.91,0.62" style="fill:none;stroke:#999;stroke-width:3" />
<path d="M706.29,49.25c0.66,0.35,1.75,1.59,1.75,2.42c0,1.35-0.09,6.77-0.09,8.26" style="fill:none;stroke:#999;stroke-width:3" />
<path d="M673.0,63.04c1.62,0.05,5.33,0.42,6.91,0.29C693.5,62.25 722.5,59 736.99,58.24c2.67-0.14,4.04,0.02,6.04,0.37" style="fill:none;stroke:black;stroke-width:3" />
<circle cx="673.0" cy="63.04" r="5" stroke-width="0" fill="#FF2A00" opacity="0.7" />
<path d="M803.1700000000001,11.88c0.08,1.12,0.12,3.28-0.43,4.84c-3.49,9.79-4.55,16.26-8.68,23.48c-1.26,2.2-1.37,3.22,2.12,3.18C809.62,43.22 829.0,45 844.9200000000001,49.09" style="fill:none;stroke:#999;stroke-width:3" />
<path d="M803.8199999999999,14.98c0.75-0.1,2.69-0.21,3.35-0.28c6.71-0.7,24.38-3.71,28.25-4.28c2.82-0.42,4.1,0.44,3.87,2.45c-1.23,10.81-2.79,26.88-8.13,38.37c-2.09,4.5-5.44,0.97-6.54,0" style="fill:none;stroke:#999;stroke-width:3" />
<path d="M813.41,18.34c2.12,0.85,5.47,3.49,6,4.81" style="fill:none;stroke:#999;stroke-width:3" />
<path d="M812.87,33.78c2.69,1.04,6.94,4.3,7.61,5.92" style="fill:none;stroke:#999;stroke-width:3" />
<path d="M778.39,31c1.69,0.64,4.78,0.75,6.47,0.64c21.74-1.36,28.96-3.72,63.85-4.16c2.82-0.04,4.5,0.3,5.91,0.62" style="fill:none;stroke:#999;stroke-width:3" />
<path d="M815.29,49.25c0.66,0.35,1.75,1.59,1.75,2.42c0,1.35-0.09,6.77-0.09,8.26" style="fill:none;stroke:#999;stroke-width:3" />
<path d="M782.0,63.04c1.62,0.05,5.33,0.42,6.91,0.29C802.5,62.25 831.5,59 845.99,58.24c2.67-0.14,4.04,0.02,6.04,0.37" style="fill:none;stroke:#999;stroke-width:3" />
<path d="M813.93,61.16c0.09,0.57-0.15,1.52-0.67,2.29c-3.37,4.98-17.5,17.3-31.2,23.44" style="fill:none;stroke:black;stroke-width:3" />
<circle cx="813.93" cy="61.16" r="5" stroke-width="0" fill="#FF2A00" opacity="0.7" />
<path d="M912.1700000000001,11.88c0.08,1.12,0.12,3.28-0.43,4.84c-3.49,9.79-4.55,16.26-8.68,23.48c-1.26,2.2-1.37,3.22,2.12,3.18C918.62,43.22 938.0,45 953.9200000000001,49.09" style="fill:none;stroke:#999;stroke-width:3" />
<path d="M912.8199999999999,14.98c0.75-0.1,2.69-0.21,3.35-0.28c6.71-0.7,24.38-3.71,28.25-4.28c2.82-0.42,4.1,0.44,3.87,2.45c-1.23,10.81-2.79,26.88-8.13,38.37c-2.09,4.5-5.44,0.97-6.54,0" style="fill:none;stroke:#999;stroke-width:3" />
<path d="M922.41,18.34c2.12,0.85,5.47,3.49,6,4.81" style="fill:none;stroke:#999;stroke-width:3" />
<path d="M921.87,33.78c2.69,1.04,6.94,4.3,7.61,5.92" style="fill:none;stroke:#999;stroke-width:3" />
<path d="M887.39,31c1.69,0.64,4.78,0.75,6.47,0.64c21.74-1.36,28.96-3.72,63.85-4.16c2.82-0.04,4.5,0.3,5.91,0.62" style="fill:none;stroke:#999;stroke-width:3" />
<path d="M924.29,49.25c0.66,0.35,1.75,1.59,1.75,2.42c0,1.35-0.09,6.77-0.09,8.26" style="fill:none;stroke:#999;stroke-width:3" />
<path d="M891.0,63.04c1.62,0.05,5.33,0.42,6.91,0.29C911.5,62.25 940.5,59 954.99,58.24c2.67-0.14,4.04,0.02,6.04,0.37" style="fill:none;stroke:#999;stroke-width:3" />
<path d="M922.93,61.16c0.09,0.57-0.15,1.52-0.67,2.29c-3.37,4.98-17.5,17.3-31.2,23.44" style="fill:none;stroke:#999;stroke-width:3" />
<path d="M912.72,77.17c0.45,0.31,0.94,1.62,0.94,2.16c-0.03,6.85-0.3,15.67-0.3,16.83c0,1.16,1.11,1.82,2.52,0.95c1.41-0.87,11.38-8.11,17.84-11.74" style="fill:none;stroke:black;stroke-width:3" />
<circle cx="912.72" cy="77.17" r="5" stroke-width="0" fill="#FF2A00" opacity="0.7" />
<path d="M1021.1700000000001,11.88c0.08,1.12,0.12,3.28-0.43,4.84c-3.49,9.79-4.55,16.26-8.68,23.48c-1.26,2.2-1.37,3.22,2.12,3.18C1027.62,43.22 1047.0,45 1062.92,49.09" style="fill:none;stroke:#999;stroke-width:3" />
<path d="M1021.8199999999999,14.98c0.75-0.1,2.69-0.21,3.35-0.28c6.71-0.7,24.38-3.71,28.25-4.28c2.82-0.42,4.1,0.44,3.87,2.45c-1.23,10.81-2.79,26.88-8.13,38.37c-2.09,4.5-5.44,0.97-6.54,0" style="fill:none;stroke:#999;stroke-width:3" />
<path d="M1031.4099999999999,18.34c2.12,0.85,5.47,3.49,6,4.81" style="fill:none;stroke:#999;stroke-width:3" />
<path d="M1030.87,33.78c2.69,1.04,6.94,4.3,7.61,5.92" style="fill:none;stroke:#999;stroke-width:3" />
<path d="M996.39,31c1.69,0.64,4.78,0.75,6.47,0.64c21.74-1.36,28.96-3.72,63.85-4.16c2.82-0.04,4.5,0.3,5.91,0.62" style="fill:none;stroke:#999;stroke-width:3" />
<path d="M1033.29,49.25c0.66,0.35,1.75,1.59,1.75,2.42c0,1.35-0.09,6.77-0.09,8.26" style="fill:none;stroke:#999;stroke-width:3" />
<path d="M1000.0,63.04c1.62,0.05,5.33,0.42,6.91,0.29C1020.5,62.25 1049.5,59 1063.99,58.24c2.67-0.14,4.04,0.02,6.04,0.37" style="fill:none;stroke:#999;stroke-width:3" />
<path d="M1031.9299999999998,61.16c0.09,0.57-0.15,1.52-0.67,2.29c-3.37,4.98-17.5,17.3-31.2,23.44" style="fill:none;stroke:#999;stroke-width:3" />
<path d="M1021.72,77.17c0.45,0.31,0.94,1.62,0.94,2.16c-0.03,6.85-0.3,15.67-0.3,16.83c0,1.16,1.11,1.82,2.52,0.95c1.41-0.87,11.38-8.11,17.84-11.74" style="fill:none;stroke:#999;stroke-width:3" />
<path d="M1058.98,64.12c0.03,0.28,0.32,1.33,0.14,1.69c-1.12,2.27-4.63,5.52-10.34,10.04" style="fill:none;stroke:black;stroke-width:3" />
<circle cx="1058.98" cy="64.12" r="5" stroke-width="0" fill="#FF2A00" opacity="0.7" />
<path d="M1130.17,11.88c0.08,1.12,0.12,3.28-0.43,4.84c-3.49,9.79-4.55,16.26-8.68,23.48c-1.26,2.2-1.37,3.22,2.12,3.18C1136.62,43.22 1156.0,45 1171.92,49.09" style="fill:none;stroke:#999;stroke-width:3" />
<path d="M1130.82,14.98c0.75-0.1,2.69-0.21,3.35-0.28c6.71-0.7,24.38-3.71,28.25-4.28c2.82-0.42,4.1,0.44,3.87,2.45c-1.23,10.81-2.79,26.88-8.13,38.37c-2.09,4.5-5.44,0.97-6.54,0" style="fill:none;stroke:#999;stroke-width:3" />
<path d="M1140.4099999999999,18.34c2.12,0.85,5.47,3.49,6,4.81" style="fill:none;stroke:#999;stroke-width:3" />
<path d="M1139.87,33.78c2.69,1.04,6.94,4.3,7.61,5.92" style="fill:none;stroke:#999;stroke-width:3" />
<path d="M1105.3899999999999,31c1.69,0.64,4.78,0.75,6.47,0.64c21.74-1.36,28.96-3.72,63.85-4.16c2.82-0.04,4.5,0.3,5.91,0.62" style="fill:none;stroke:#999;stroke-width:3" />
<path d="M1142.29,49.25c0.66,0.35,1.75,1.59,1.75,2.42c0,1.35-0.09,6.77-0.09,8.26" style="fill:none;stroke:#999;stroke-width:3" />
<path d="M1109.0,63.04c1.62,0.05,5.33,0.42,6.91,0.29C1129.5,62.25 1158.5,59 1172.99,58.24c2.67-0.14,4.04,0.02,6.04,0.37" style="fill:none;stroke:#999;stroke-width:3" />
<path d="M1140.9299999999998,61.16c0.09,0.57-0.15,1.52-0.67,2.29c-3.37,4.98-17.5,17.3-31.2,23.44" style="fill:none;stroke:#999;stroke-width:3" />
<path d="M1130.72,77.17c0.45,0.31,0.94,1.62,0.94,2.16c-0.03,6.85-0.3,15.67-0.3,16.83c0,1.16,1.11,1.82,2.52,0.95c1.41-0.87,11.38-8.11,17.84-11.74" style="fill:none;stroke:#999;stroke-width:3" />
<path d="M1167.98,64.12c0.03,0.28,0.32,1.33,0.14,1.69c-1.12,2.27-4.63,5.52-10.34,10.04" style="fill:none;stroke:#999;stroke-width:3" />
<path d="M1143.54,62.83c1.54,0.91,4.02,3.47,4.44,3.86c6.31,5.72,21.66,20.34,25.93,23.71c1.6,1.27,2.98,1.81,4.59,2.18" style="fill:none;stroke:black;stroke-width:3" />
<circle cx="1143.54" cy="62.83" r="5" stroke-width="0" fill="#FF2A00" opacity="0.7" />
</svg>