<!-- 088b1 -->
<svg width="1199px" height="109px" viewBox="0 0 1199px 109px" xmlns="http://www.w3.org/2000/svg" xmlns:xlink="http://www.w3.org/1999/xlink" xml:space="preserve" version="1.1"  baseProfile="full">
<line x1="1" y1="1" x2="1198" y2="1" style="stroke:#ddd;stroke-width:2" />
<line x1="1" y1="1" x2="1" y2="108" style="stroke:#ddd;stroke-width:2" />
<line x1="1" y1="108" x2="1198" y2="108" style="stroke:#ddd;stroke-width:2" />
<line x1="1198" y1="1" x2="1198" y2="108" style="stroke:#ddd;stroke-width:2" />
<line x1="109" y1="1" x2="109" y2="108" style="stroke:#ddd;stroke-width:2" />
<line x1="218" y1="1" x2="218" y2="108" style="stroke:#ddd;stroke-width:2" />
<line x1="327" y1="1" x2="327" y2="108" style="stroke:#ddd;stroke-width:2" />
<line x1="436" y1="1" x2="436" y2="108" style="stroke:#ddd;stroke-width:2" />
<line x1="545" y1="1" x2="545" y2="108" style="stroke:#ddd;stroke-width:2" />
<line x1="654" y1="1" x2="654" y2="108" style="stroke:#ddd;stroke-width:2" />
<line x1="763" y1="1" x2="763" y2="108" style="stroke:#ddd;stroke-width:2" />
<line x1="872" y1="1" x2="872" y2="108" style="stroke:#ddd;stroke-width:2" />
<line x1="981" y1="1" x2="981" y2="108" style="stroke:#ddd;stroke-width:2" />
<line x1="1090" y1="1" x2="1090" y2="108" style="stroke:#ddd;stroke-width:2" />
<line x1="1" y1="54" x2="1198" y2="54" style="stroke:#ddd;stroke-width:2;stroke-dasharray:3 3" />
<line x1="55" y1="1" x2="55" y2="108" style="stroke:#ddd;stroke-width:2;stroke-dasharray:3 3" />
<line x1="164" y1="1" x2="164" y2="108" style="stroke:#ddd;stroke-width:2;stroke-dasharray:3 3" />
<line x1="273" y1="1" x2="273" y2="108" style="stroke:#ddd;stroke-width:2;stroke-dasharray:3 3" />
<line x1="382" y1="1" x2="382" y2="108" style="stroke:#ddd;stroke-width:2;stroke-dasharray:3 3" />
<line x1="491" y1="1" x2="491" y2="108" style="stroke:#ddd;stroke-width:2;stroke-dasharray:3 3" />
<line x1="600" y1="1" x2="600" y2="108" style="stroke:#ddd;stroke-width:2;stroke-dasharray:3 3" />
<line x1="709" y1="1" x2="709" y2="108" style="stroke:#ddd;stroke-width:2;stroke-dasharray:3 3" />
<line x1="818" y1="1" x2="818" y2="108" style="stroke:#ddd;stroke-width:2;stroke-dasharray:3 3" />
<line x1="927" y1="1" x2="927" y2="108" style="stroke:#ddd;stroke-width:2;stroke-dasharray:3 3" />
<line x1="1036" y1="1" x2="1036" y2="108" style="stroke:#ddd;stroke-width:2;stroke-dasharray:3 3" />
<line x1="1145" y1="1" x2="1145" y2="108" style="stroke:#ddd;stroke-width:2;stroke-dasharray:3 3" />
<path d="M18.08,13.75c3.5,2.94,7.25,7.35,10.25,12.5" style="fill:none;stroke:black;stroke-width:3" />
<circle cx="18.08" cy="13.75" r="5" stroke-width="0" fill="#FF2A00" opacity="0.7" />
<path d="M127.08,13.75c3.5,2.94,7.25,7.35,10.25,12.5" style="fill:none;stroke:#999;stroke-width:3" />
<path d="M119.72,37.72c0.8,0.38,2.99,0.74,4.37,0.59C127.0,38 140.92000000000002,34.6 142.9,33.97c1.98-0.64,3.89,0.8,2.77,2.75C139.07999999999998,48.16 130.19,61.07 120.5,69.75" style="fill:none;stroke:black;stroke-width:3" />
<circle cx="119.72" cy="37.72" r="5" stroke-width="0" fill="#FF2A00" opacity="0.7" />
<path d="M236.07999999999998,13.75c3.5,2.94,7.25,7.35,10.25,12.5" style="fill:none;stroke:#999;stroke-width:3" />
<path d="M228.72,37.72c0.8,0.38,2.99,0.74,4.37,0.59C236.0,38 249.92000000000002,34.6 251.9,33.97c1.98-0.64,3.89,0.8,2.77,2.75C248.07999999999998,48.16 239.19,61.07 229.5,69.75" style="fill:none;stroke:#999;stroke-width:3" />
<path d="M245.0,52.61c0.12,0.29,1.65,1.53,1.77,3.39c0.57,8.93,0.06,38.2,0.06,41.25" style="fill:none;stroke:black;stroke-width:3" />
<circle cx="245.0" cy="52.61" r="5" stroke-width="0" fill="#FF2A00" opacity="0.7" />
<path d="M345.08,13.75c3.5,2.94,7.25,7.35,10.25,12.5" style="fill:none;stroke:#999;stroke-width:3" />
<path d="M337.72,37.72c0.8,0.38,2.99,0.74,4.37,0.59C345.0,38 358.92,34.6 360.9,33.97c1.98-0.64,3.89,0.8,2.77,2.75C357.08,48.16 348.19,61.07 338.5,69.75" style="fill:none;stroke:#999;stroke-width:3" />
<path d="M354.0,52.61c0.12,0.29,1.65,1.53,1.77,3.39c0.57,8.93,0.06,38.2,0.06,41.25" style="fill:none;stroke:#999;stroke-width:3" />
<path d="M367.84000000000003,47.39c0.13,0.95,0.25,1.21,0,1.9c-0.76,2.09-3.11,7.23-4.64,9.71" style="fill:none;stroke:black;stroke-width:3" />
<circle cx="367.84000000000003" cy="47.39" r="5" stroke-width="0" fill="#FF2A00" opacity="0.7" />
<path d="M454.08,13.75c3.5,2.94,7.25,7.35,10.25,12.5" style="fill:none;stroke:#999;stroke-width:3" />
<path d="M446.72,37.72c0.8,0.38,2.99,0.74,4.37,0.59C454.0,38 467.92,34.6 469.9,33.97c1.98-0.64,3.89,0.8,2.77,2.75C466.08,48.16 457.19,61.07 447.5,69.75" style="fill:none;stroke:#999;stroke-width:3" />
<path d="M463.0,52.61c0.12,0.29,1.65,1.53,1.77,3.39c0.57,8.93,0.06,38.2,0.06,41.25" style="fill:none;stroke:#999;stroke-width:3" />
<path d="M476.84000000000003,47.39c0.13,0.95,0.25,1.21,0,1.9c-0.76,2.09-3.11,7.23-4.64,9.71" style="fill:none;stroke:#999;stroke-width:3" />
<path d="M467.83,60.25c3.16,2.65,6.54,6.62,9.25,11.25" style="fill:none;stroke:black;stroke-width:3" />
<circle cx="467.83" cy="60.25" r="5" stroke-width="0" fill="#FF2A00" opacity="0.7" />
<path d="M563.0799999999999,13.75c3.5,2.94,7.25,7.35,10.25,12.5" style="fill:none;stroke:#999;stroke-width:3" />
<path d="M555.72,37.72c0.8,0.38,2.99,0.74,4.37,0.59C563.0,38 576.9200000000001,34.6 578.9,33.97c1.98-0.64,3.89,0.8,2.77,2.75C575.0799999999999,48.16 566.19,61.07 556.5,69.75" style="fill:none;stroke:#999;stroke-width:3" />
<path d="M572.0,52.61c0.12,0.29,1.65,1.53,1.77,3.39c0.57,8.93,0.06,38.2,0.06,41.25" style="fill:none;stroke:#999;stroke-width:3" />
<path d="M585.84,47.39c0.13,0.95,0.25,1.21,0,1.9c-0.76,2.09-3.11,7.23-4.64,9.71" style="fill:none;stroke:#999;stroke-width:3" />
<path d="M576.8299999999999,60.25c3.16,2.65,6.54,6.62,9.25,11.25" style="fill:none;stroke:#999;stroke-width:3" />
<path d="M602.64,16.89c0.09,1.16,0.16,2.62-0.08,4.04c-1.52,9.02-6.68,24.56-13.75,36.78" style="fill:none;stroke:black;stroke-width:3" />
<circle cx="602.64" cy="16.89" r="5" stroke-width="0" fill="#FF2A00" opacity="0.7" />
<path d="M672.0799999999999,13.75c3.5,2.94,7.25,7.35,10.25,12.5" style="fill:none;stroke:#999;stroke-width:3" />
<path d="M664.72,37.72c0.8,0.38,2.99,0.74,4.37,0.59C672.0,38 685.9200000000001,34.6 687.9,33.97c1.98-0.64,3.89,0.8,2.77,2.75C684.0799999999999,48.16 675.19,61.07 665.5,69.75" style="fill:none;stroke:#999;stroke-width:3" />
<path d="M681.0,52.61c0.12,0.29,1.65,1.53,1.77,3.39c0.57,8.93,0.06,38.2,0.06,41.25" style="fill:none;stroke:#999;stroke-width:3" />
<path d="M694.84,47.39c0.13,0.95,0.25,1.21,0,1.9c-0.76,2.09-3.11,7.23-4.64,9.71" style="fill:none;stroke:#999;stroke-width:3" />
<path d="M685.8299999999999,60.25c3.16,2.65,6.54,6.62,9.25,11.25" style="fill:none;stroke:#999;stroke-width:3" />
<path d="M711.64,16.89c0.09,1.16,0.16,2.62-0.08,4.04c-1.52,9.02-6.68,24.56-13.75,36.78" style="fill:none;stroke:#999;stroke-width:3" />
<path d="M707.47,43c0.41,0.61,0.53,1.97,0.53,3.23c0,13.02-0.2,38.65-0.2,47.4" style="fill:none;stroke:black;stroke-width:3" />
<circle cx="707.47" cy="43.0" r="5" stroke-width="0" fill="#FF2A00" opacity="0.7" />
<path d="M781.0799999999999,13.75c3.5,2.94,7.25,7.35,10.25,12.5" style="fill:none;stroke:#999;stroke-width:3" />
<path d="M773.72,37.72c0.8,0.38,2.99,0.74,4.37,0.59C781.0,38 794.9200000000001,34.6 796.9,33.97c1.98-0.64,3.89,0.8,2.77,2.75C793.0799999999999,48.16 784.19,61.07 774.5,69.75" style="fill:none;stroke:#999;stroke-width:3" />
<path d="M790.0,52.61c0.12,0.29,1.65,1.53,1.77,3.39c0.57,8.93,0.06,38.2,0.06,41.25" style="fill:none;stroke:#999;stroke-width:3" />
<path d="M803.84,47.39c0.13,0.95,0.25,1.21,0,1.9c-0.76,2.09-3.11,7.23-4.64,9.71" style="fill:none;stroke:#999;stroke-width:3" />
<path d="M794.8299999999999,60.25c3.16,2.65,6.54,6.62,9.25,11.25" style="fill:none;stroke:#999;stroke-width:3" />
<path d="M820.64,16.89c0.09,1.16,0.16,2.62-0.08,4.04c-1.52,9.02-6.68,24.56-13.75,36.78" style="fill:none;stroke:#999;stroke-width:3" />
<path d="M816.47,43c0.41,0.61,0.53,1.97,0.53,3.23c0,13.02-0.2,38.65-0.2,47.4" style="fill:none;stroke:#999;stroke-width:3" />
<path d="M822.35,40.69c0.56,0.36,2.43,0.66,3.52,0.6c4.88-0.28,20.4-2.39,27.15-3.14c0.77-0.09,2.37-0.36,4.09,0.26" style="fill:none;stroke:black;stroke-width:3" />
<circle cx="822.35" cy="40.69" r="5" stroke-width="0" fill="#FF2A00" opacity="0.7" />
<path d="M890.0799999999999,13.75c3.5,2.94,7.25,7.35,10.25,12.5" style="fill:none;stroke:#999;stroke-width:3" />
<path d="M882.72,37.72c0.8,0.38,2.99,0.74,4.37,0.59C890.0,38 903.9200000000001,34.6 905.9,33.97c1.98-0.64,3.89,0.8,2.77,2.75C902.0799999999999,48.16 893.19,61.07 883.5,69.75" style="fill:none;stroke:#999;stroke-width:3" />
<path d="M899.0,52.61c0.12,0.29,1.65,1.53,1.77,3.39c0.57,8.93,0.06,38.2,0.06,41.25" style="fill:none;stroke:#999;stroke-width:3" />
<path d="M912.84,47.39c0.13,0.95,0.25,1.21,0,1.9c-0.76,2.09-3.11,7.23-4.64,9.71" style="fill:none;stroke:#999;stroke-width:3" />
<path d="M903.8299999999999,60.25c3.16,2.65,6.54,6.62,9.25,11.25" style="fill:none;stroke:#999;stroke-width:3" />
<path d="M929.64,16.89c0.09,1.16,0.16,2.62-0.08,4.04c-1.52,9.02-6.68,24.56-13.75,36.78" style="fill:none;stroke:#999;stroke-width:3" />
<path d="M925.47,43c0.41,0.61,0.53,1.97,0.53,3.23c0,13.02-0.2,38.65-0.2,47.4" style="fill:none;stroke:#999;stroke-width:3" />
<path d="M931.35,40.69c0.56,0.36,2.43,0.66,3.52,0.6c4.88-0.28,20.4-2.39,27.15-3.14c0.77-0.09,2.37-0.36,4.09,0.26" style="fill:none;stroke:#999;stroke-width:3" />
<path d="M945.6,14.75c0.49,1.14,0.78,2.28,0.85,4.56c0.86,29.75,0.3,61.44-17.04,76.19" style="fill:none;stroke:black;stroke-width:3" />
<circle cx="945.6" cy="14.75" r="5" stroke-width="0" fill="#FF2A00" opacity="0.7" />
<path d="M999.0799999999999,13.75c3.5,2.94,7.25,7.35,10.25,12.5" style="fill:none;stroke:#999;stroke-width:3" />
<path d="M991.72,37.72c0.8,0.38,2.99,0.74,4.37,0.59C999.0,38 1012.9200000000001,34.6 1014.9,33.97c1.98-0.64,3.89,0.8,2.77,2.75C1011.0799999999999,48.16 1002.19,61.07 992.5,69.75" style="fill:none;stroke:#999;stroke-width:3" />
<path d="M1008.0,52.61c0.12,0.29,1.65,1.53,1.77,3.39c0.57,8.93,0.06,38.2,0.06,41.25" style="fill:none;stroke:#999;stroke-width:3" />
<path d="M1021.84,47.39c0.13,0.95,0.25,1.21,0,1.9c-0.76,2.09-3.11,7.23-4.64,9.71" style="fill:none;stroke:#999;stroke-width:3" />
<path d="M1012.8299999999999,60.25c3.16,2.65,6.54,6.62,9.25,11.25" style="fill:none;stroke:#999;stroke-width:3" />
<path d="M1038.6399999999999,16.89c0.09,1.16,0.16,2.62-0.08,4.04c-1.52,9.02-6.68,24.56-13.75,36.78" style="fill:none;stroke:#999;stroke-width:3" />
<path d="M1034.47,43c0.41,0.61,0.53,1.97,0.53,3.23c0,13.02-0.2,38.65-0.2,47.4" style="fill:none;stroke:#999;stroke-width:3" />
<path d="M1040.35,40.69c0.56,0.36,2.43,0.66,3.52,0.6c4.88-0.28,20.4-2.39,27.15-3.14c0.77-0.09,2.37-0.36,4.09,0.26" style="fill:none;stroke:#999;stroke-width:3" />
<path d="M1054.6,14.75c0.49,1.14,0.78,2.28,0.85,4.56c0.86,29.75,0.3,61.44-17.04,76.19" style="fill:none;stroke:#999;stroke-width:3" />
<path d="M1055.7,42.5C1060.0,61 1066.75,79.5 1074.96,88.89c1.96,2.24,2.59,2.88,3.29,3.11" style="fill:none;stroke:black;stroke-width:3" />
<circle cx="1055.7" cy="42.5" r="5" stroke-width="0" fill="#FF2A00" opacity="0.7" />
<path d="M1108.08,13.75c3.5,2.94,7.25,7.35,10.25,12.5" style="fill:none;stroke:#999;stroke-width:3" />
<path d="M1100.72,37.72c0.8,0.38,2.99,0.74,4.37,0.59C1108.0,38 1121.92,34.6 1123.9,33.97c1.98-0.64,3.89,0.8,2.77,2.75C1120.08,48.16 1111.19,61.07 1101.5,69.75" style="fill:none;stroke:#999;stroke-width:3" />
<path d="M1117.0,52.61c0.12,0.29,1.65,1.53,1.77,3.39c0.57,8.93,0.06,38.2,0.06,41.25" style="fill:none;stroke:#999;stroke-width:3" />
<path d="M1130.8400000000001,47.39c0.13,0.95,0.25,1.21,0,1.9c-0.76,2.09-3.11,7.23-4.64,9.71" style="fill:none;stroke:#999;stroke-width:3" />
<path d="M1121.83,60.25c3.16,2.65,6.54,6.62,9.25,11.25" style="fill:none;stroke:#999;stroke-width:3" />
<path d="M1147.6399999999999,16.89c0.09,1.16,0.16,2.62-0.08,4.04c-1.52,9.02-6.68,24.56-13.75,36.78" style="fill:none;stroke:#999;stroke-width:3" />
<path d="M1143.47,43c0.41,0.61,0.53,1.97,0.53,3.23c0,13.02-0.2,38.65-0.2,47.4" style="fill:none;stroke:#999;stroke-width:3" />
<path d="M1149.35,40.69c0.56,0.36,2.43,0.66,3.52,0.6c4.88-0.28,20.4-2.39,27.15-3.14c0.77-0.09,2.37-0.36,4.09,0.26" style="fill:none;stroke:#999;stroke-width:3" />
<path d="M1163.6,14.75c0.49,1.14,0.78,2.28,0.85,4.56c0.86,29.75,0.3,61.44-17.04,76.19" style="fill:none;stroke:#999;stroke-width:3" />
<path d="M1164.7,42.5C1169.0,61 1175.75,79.5 1183.96,88.89c1.96,2.24,2.59,2.88,3.29,3.11" style="fill:none;stroke:#999;stroke-width:3" />
<path d="M1173.16,20.5c5.04,4.17,6.42,7.34,7.98,11.25" style="fill:none;stroke:black;stroke-width:3" />
<circle cx="1173.16" cy="20.5" r="5" stroke-width="0" fill="#FF2A00" opacity="0.7" />
</svg>