<!-- 088fe -->
<svg width="1417px" height="109px" viewBox="0 0 1417px 109px" xmlns="http://www.w3.org/2000/svg" xmlns:xlink="http://www.w3.org/1999/xlink" xml:space="preserve" version="1.1"  baseProfile="full">
<line x1="1" y1="1" x2="1416" y2="1" style="stroke:#ddd;stroke-width:2" />
<line x1="1" y1="1" x2="1" y2="108" style="stroke:#ddd;stroke-width:2" />
<line x1="1" y1="108" x2="1416" y2="108" style="stroke:#ddd;stroke-width:2" />
<line x1="1416" y1="1" x2="1416" y2="108" style="stroke:#ddd;stroke-width:2" />
<line x1="109" y1="1" x2="109" y2="108" style="stroke:#ddd;stroke-width:2" />
<line x1="218" y1="1" x2="218" y2="108" style="stroke:#ddd;stroke-width:2" />
<line x1="327" y1="1" x2="327" y2="108" style="stroke:#ddd;stroke-width:2" />
<line x1="436" y1="1" x2="436" y2="108" style="stroke:#ddd;stroke-width:2" />
<line x1="545" y1="1" x2="545" y2="108" style="stroke:#ddd;stroke-width:2" />
<line x1="654" y1="1" x2="654" y2="108" style="stroke:#ddd;stroke-width:2" />
<line x1="763" y1="1" x2="763" y2="108" style="stroke:#ddd;stroke-width:2" />
<line x1="872" y1="1" x2="872" y2="108" style="stroke:#ddd;stroke-width:2" />
<line x1="981" y1="1" x2="981" y2="108" style="stroke:#ddd;stroke-width:2" />
<line x1="1090" y1="1" x2="1090" y2="108" style="stroke:#ddd;stroke-width:2" />
<line x1="1199" y1="1" x2="1199" y2="108" style="stroke:#ddd;stroke-width:2" />
<line x1="1308" y1="1" x2="1308" y2="108" style="stroke:#ddd;stroke-width:2" />
<line x1="1" y1="54" x2="1416" y2="54" style="stroke:#ddd;stroke-width:2;stroke-dasharray:3 3" />
<line x1="55" y1="1" x2="55" y2="108" style="stroke:#ddd;stroke-width:2;stroke-dasharray:3 3" />
<line x1="164" y1="1" x2="164" y2="108" style="stroke:#ddd;stroke-width:2;stroke-dasharray:3 3" />
<line x1="273" y1="1" x2="273" y2="108" style="stroke:#ddd;stroke-width:2;stroke-dasharray:3 3" />
<line x1="382" y1="1" x2="382" y2="108" style="stroke:#ddd;stroke-width:2;stroke-dasharray:3 3" />
<line x1="491" y1="1" x2="491" y2="108" style="stroke:#ddd;stroke-width:2;stroke-dasharray:3 3" />
<line x1="600" y1="1" x2="600" y2="108" style="stroke:#ddd;stroke-width:2;stroke-dasharray:3 3" />
<line x1="709" y1="1" x2="709" y2="108" style="stroke:#ddd;stroke-width:2;stroke-dasharray:3 3" />
<line x1="818" y1="1" x2="818" y2="108" style="stroke:#ddd;stroke-width:2;stroke-dasharray:3 3" />
<line x1="927" y1="1" x2="927" y2="108" style="stroke:#ddd;stroke-width:2;stroke-dasharray:3 3" />
<line x1="1036" y1="1" x2="1036" y2="108" style="stroke:#ddd;stroke-width:2;stroke-dasharray:3 3" />
<line x1="1145" y1="1" x2="1145" y2="108" style="stroke:#ddd;stroke-width:2;stroke-dasharray:3 3" />
<line x1="1254" y1="1" x2="1254" y2="108" style="stroke:#ddd;stroke-width:2;stroke-dasharray:3 3" />
<line x1="1363" y1="1" x2="1363" y2="108" style="stroke:#ddd;stroke-width:2;stroke-dasharray:3 3" />
<path d="M23.58,14.5c2.65,2.18,6.05,5.5,7.75,9.25" style="fill:none;stroke:black;stroke-width:3" />
<circle cx="23.58" cy="14.5" r="5" stroke-width="0" fill="#FF2A00" opacity="0.7" />
<path d="M132.57999999999998,14.5c2.65,2.18,6.05,5.5,7.75,9.25" style="fill:none;stroke:#999;stroke-width:3" />
<path d="M122.7,34.11c2.26,0.76,4.52,0.81,6.78,0.18c4.98-1.16,14.55-3.79,16.37-4.31c2.74-0.78,4.38,1.14,2.92,3.36C141.06,45.04 130.73,58.4 119.5,67.25" style="fill:none;stroke:black;stroke-width:3" />
<circle cx="122.7" cy="34.11" r="5" stroke-width="0" fill="#FF2A00" opacity="0.7" />
<path d="M241.57999999999998,14.5c2.65,2.18,6.05,5.5,7.75,9.25" style="fill:none;stroke:#999;stroke-width:3" />
<path d="M231.7,34.11c2.26,0.76,4.52,0.81,6.78,0.18c4.98-1.16,14.55-3.79,16.37-4.31c2.74-0.78,4.38,1.14,2.92,3.36C250.06,45.04 239.73,58.4 228.5,67.25" style="fill:none;stroke:#999;stroke-width:3" />
<path d="M246.5,51.36c0.94,0.94,1.27,2.14,1.27,3.64c0,6.75,0.03,24.93,0.05,34.75c0,3.19,0.01,5.5,0.01,6.25" style="fill:none;stroke:black;stroke-width:3" />
<circle cx="246.5" cy="51.36" r="5" stroke-width="0" fill="#FF2A00" opacity="0.7" />
<path d="M350.58,14.5c2.65,2.18,6.05,5.5,7.75,9.25" style="fill:none;stroke:#999;stroke-width:3" />
<path d="M340.7,34.11c2.26,0.76,4.52,0.81,6.78,0.18c4.98-1.16,14.55-3.79,16.37-4.31c2.74-0.78,4.38,1.14,2.92,3.36C359.06,45.04 348.73,58.4 337.5,67.25" style="fill:none;stroke:#999;stroke-width:3" />
<path d="M355.5,51.36c0.94,0.94,1.27,2.14,1.27,3.64c0,6.75,0.03,24.93,0.05,34.75c0,3.19,0.01,5.5,0.01,6.25" style="fill:none;stroke:#999;stroke-width:3" />
<path d="M369.0,45.64c0.08,1.21-0.24,2.26-0.97,3.13c-1.29,1.81-3.42,4.15-5.54,6.1" style="fill:none;stroke:black;stroke-width:3" />
<circle cx="369.0" cy="45.64" r="5" stroke-width="0" fill="#FF2A00" opacity="0.7" />
<path d="M459.58,14.5c2.65,2.18,6.05,5.5,7.75,9.25" style="fill:none;stroke:#999;stroke-width:3" />
<path d="M449.7,34.11c2.26,0.76,4.52,0.81,6.78,0.18c4.98-1.16,14.55-3.79,16.37-4.31c2.74-0.78,4.38,1.14,2.92,3.36C468.06,45.04 457.73,58.4 446.5,67.25" style="fill:none;stroke:#999;stroke-width:3" />
<path d="M464.5,51.36c0.94,0.94,1.27,2.14,1.27,3.64c0,6.75,0.03,24.93,0.05,34.75c0,3.19,0.01,5.5,0.01,6.25" style="fill:none;stroke:#999;stroke-width:3" />
<path d="M478.0,45.64c0.08,1.21-0.24,2.26-0.97,3.13c-1.29,1.81-3.42,4.15-5.54,6.1" style="fill:none;stroke:#999;stroke-width:3" />
<path d="M469.08,56.25C473.0,58.89 477.5,64 479.08,67" style="fill:none;stroke:black;stroke-width:3" />
<circle cx="469.08" cy="56.25" r="5" stroke-width="0" fill="#FF2A00" opacity="0.7" />
<path d="M568.5799999999999,14.5c2.65,2.18,6.05,5.5,7.75,9.25" style="fill:none;stroke:#999;stroke-width:3" />
<path d="M558.7,34.11c2.26,0.76,4.52,0.81,6.78,0.18c4.98-1.16,14.55-3.79,16.37-4.31c2.74-0.78,4.38,1.14,2.92,3.36C577.06,45.04 566.73,58.4 555.5,67.25" style="fill:none;stroke:#999;stroke-width:3" />
<path d="M573.5,51.36c0.94,0.94,1.27,2.14,1.27,3.64c0,6.75,0.03,24.93,0.05,34.75c0,3.19,0.01,5.5,0.01,6.25" style="fill:none;stroke:#999;stroke-width:3" />
<path d="M587.0,45.64c0.08,1.21-0.24,2.26-0.97,3.13c-1.29,1.81-3.42,4.15-5.54,6.1" style="fill:none;stroke:#999;stroke-width:3" />
<path d="M578.0799999999999,56.25C582.0,58.89 586.5,64 588.0799999999999,67" style="fill:none;stroke:#999;stroke-width:3" />
<path d="M595.09,21.23c2.08,0.8,4.17,1.03,6.3,0.78c8.61-1.01,23-2.98,28.85-3.67c2.85-0.34,4.65,1.47,3.87,4.32c-0.94,3.46-1.6,6.15-2.57,10.91" style="fill:none;stroke:black;stroke-width:3" />
<circle cx="595.09" cy="21.23" r="5" stroke-width="0" fill="#FF2A00" opacity="0.7" />
<path d="M677.5799999999999,14.5c2.65,2.18,6.05,5.5,7.75,9.25" style="fill:none;stroke:#999;stroke-width:3" />
<path d="M667.7,34.11c2.26,0.76,4.52,0.81,6.78,0.18c4.98-1.16,14.55-3.79,16.37-4.31c2.74-0.78,4.38,1.14,2.92,3.36C686.06,45.04 675.73,58.4 664.5,67.25" style="fill:none;stroke:#999;stroke-width:3" />
<path d="M682.5,51.36c0.94,0.94,1.27,2.14,1.27,3.64c0,6.75,0.03,24.93,0.05,34.75c0,3.19,0.01,5.5,0.01,6.25" style="fill:none;stroke:#999;stroke-width:3" />
<path d="M696.0,45.64c0.08,1.21-0.24,2.26-0.97,3.13c-1.29,1.81-3.42,4.15-5.54,6.1" style="fill:none;stroke:#999;stroke-width:3" />
<path d="M687.0799999999999,56.25C691.0,58.89 695.5,64 697.0799999999999,67" style="fill:none;stroke:#999;stroke-width:3" />
<path d="M704.09,21.23c2.08,0.8,4.17,1.03,6.3,0.78c8.61-1.01,23-2.98,28.85-3.67c2.85-0.34,4.65,1.47,3.87,4.32c-0.94,3.46-1.6,6.15-2.57,10.91" style="fill:none;stroke:#999;stroke-width:3" />
<path d="M708.04,38.94c6.09-0.57,18.25-2.13,27.96-3.07c2.5-0.24,4.75-0.45,6.56-0.6" style="fill:none;stroke:black;stroke-width:3" />
<circle cx="708.04" cy="38.94" r="5" stroke-width="0" fill="#FF2A00" opacity="0.7" />
<path d="M786.5799999999999,14.5c2.65,2.18,6.05,5.5,7.75,9.25" style="fill:none;stroke:#999;stroke-width:3" />
<path d="M776.7,34.11c2.26,0.76,4.52,0.81,6.78,0.18c4.98-1.16,14.55-3.79,16.37-4.31c2.74-0.78,4.38,1.14,2.92,3.36C795.06,45.04 784.73,58.4 773.5,67.25" style="fill:none;stroke:#999;stroke-width:3" />
<path d="M791.5,51.36c0.94,0.94,1.27,2.14,1.27,3.64c0,6.75,0.03,24.93,0.05,34.75c0,3.19,0.01,5.5,0.01,6.25" style="fill:none;stroke:#999;stroke-width:3" />
<path d="M805.0,45.64c0.08,1.21-0.24,2.26-0.97,3.13c-1.29,1.81-3.42,4.15-5.54,6.1" style="fill:none;stroke:#999;stroke-width:3" />
<path d="M796.0799999999999,56.25C800.0,58.89 804.5,64 806.0799999999999,67" style="fill:none;stroke:#999;stroke-width:3" />
<path d="M813.09,21.23c2.08,0.8,4.17,1.03,6.3,0.78c8.61-1.01,23-2.98,28.85-3.67c2.85-0.34,4.65,1.47,3.87,4.32c-0.94,3.46-1.6,6.15-2.57,10.91" style="fill:none;stroke:#999;stroke-width:3" />
<path d="M817.04,38.94c6.09-0.57,18.25-2.13,27.96-3.07c2.5-0.24,4.75-0.45,6.56-0.6" style="fill:none;stroke:#999;stroke-width:3" />
<path d="M815.63,22.54c0.67,0.67,0.84,1.68,0.82,3.33c-0.32,25.63-3.19,50.01-15.14,63.19" style="fill:none;stroke:black;stroke-width:3" />
<circle cx="815.63" cy="22.54" r="5" stroke-width="0" fill="#FF2A00" opacity="0.7" />
<path d="M895.5799999999999,14.5c2.65,2.18,6.05,5.5,7.75,9.25" style="fill:none;stroke:#999;stroke-width:3" />
<path d="M885.7,34.11c2.26,0.76,4.52,0.81,6.78,0.18c4.98-1.16,14.55-3.79,16.37-4.31c2.74-0.78,4.38,1.14,2.92,3.36C904.06,45.04 893.73,58.4 882.5,67.25" style="fill:none;stroke:#999;stroke-width:3" />
<path d="M900.5,51.36c0.94,0.94,1.27,2.14,1.27,3.64c0,6.75,0.03,24.93,0.05,34.75c0,3.19,0.01,5.5,0.01,6.25" style="fill:none;stroke:#999;stroke-width:3" />
<path d="M914.0,45.64c0.08,1.21-0.24,2.26-0.97,3.13c-1.29,1.81-3.42,4.15-5.54,6.1" style="fill:none;stroke:#999;stroke-width:3" />
<path d="M905.0799999999999,56.25C909.0,58.89 913.5,64 915.0799999999999,67" style="fill:none;stroke:#999;stroke-width:3" />
<path d="M922.09,21.23c2.08,0.8,4.17,1.03,6.3,0.78c8.61-1.01,23-2.98,28.85-3.67c2.85-0.34,4.65,1.47,3.87,4.32c-0.94,3.46-1.6,6.15-2.57,10.91" style="fill:none;stroke:#999;stroke-width:3" />
<path d="M926.04,38.94c6.09-0.57,18.25-2.13,27.96-3.07c2.5-0.24,4.75-0.45,6.56-0.6" style="fill:none;stroke:#999;stroke-width:3" />
<path d="M924.63,22.54c0.67,0.67,0.84,1.68,0.82,3.33c-0.32,25.63-3.19,50.01-15.14,63.19" style="fill:none;stroke:#999;stroke-width:3" />
<path d="M926.32,58.65c2.51,0.75,4.94,0.11,7.57-0.31c8.25-1.3,20.61-2.9,28.34-3.44c2.23-0.31,4.46-0.29,6.67,0.06" style="fill:none;stroke:black;stroke-width:3" />
<circle cx="926.32" cy="58.65" r="5" stroke-width="0" fill="#FF2A00" opacity="0.7" />
<path d="M1004.5799999999999,14.5c2.65,2.18,6.05,5.5,7.75,9.25" style="fill:none;stroke:#999;stroke-width:3" />
<path d="M994.7,34.11c2.26,0.76,4.52,0.81,6.78,0.18c4.98-1.16,14.55-3.79,16.37-4.31c2.74-0.78,4.38,1.14,2.92,3.36C1013.06,45.04 1002.73,58.4 991.5,67.25" style="fill:none;stroke:#999;stroke-width:3" />
<path d="M1009.5,51.36c0.94,0.94,1.27,2.14,1.27,3.64c0,6.75,0.03,24.93,0.05,34.75c0,3.19,0.01,5.5,0.01,6.25" style="fill:none;stroke:#999;stroke-width:3" />
<path d="M1023.0,45.64c0.08,1.21-0.24,2.26-0.97,3.13c-1.29,1.81-3.42,4.15-5.54,6.1" style="fill:none;stroke:#999;stroke-width:3" />
<path d="M1014.0799999999999,56.25C1018.0,58.89 1022.5,64 1024.08,67" style="fill:none;stroke:#999;stroke-width:3" />
<path d="M1031.0900000000001,21.23c2.08,0.8,4.17,1.03,6.3,0.78c8.61-1.01,23-2.98,28.85-3.67c2.85-0.34,4.65,1.47,3.87,4.32c-0.94,3.46-1.6,6.15-2.57,10.91" style="fill:none;stroke:#999;stroke-width:3" />
<path d="M1035.04,38.94c6.09-0.57,18.25-2.13,27.96-3.07c2.5-0.24,4.75-0.45,6.56-0.6" style="fill:none;stroke:#999;stroke-width:3" />
<path d="M1033.63,22.54c0.67,0.67,0.84,1.68,0.82,3.33c-0.32,25.63-3.19,50.01-15.14,63.19" style="fill:none;stroke:#999;stroke-width:3" />
<path d="M1035.3200000000002,58.65c2.51,0.75,4.94,0.11,7.57-0.31c8.25-1.3,20.61-2.9,28.34-3.44c2.23-0.31,4.46-0.29,6.67,0.06" style="fill:none;stroke:#999;stroke-width:3" />
<path d="M1051.97,42.69c0.98,0.98,1.66,2.31,1.66,4.14c0,11.68,0.12,20.05,0.12,25.54" style="fill:none;stroke:black;stroke-width:3" />
<circle cx="1051.97" cy="42.69" r="5" stroke-width="0" fill="#FF2A00" opacity="0.7" />
<path d="M1113.58,14.5c2.65,2.18,6.05,5.5,7.75,9.25" style="fill:none;stroke:#999;stroke-width:3" />
<path d="M1103.7,34.11c2.26,0.76,4.52,0.81,6.78,0.18c4.98-1.16,14.55-3.79,16.37-4.31c2.74-0.78,4.38,1.14,2.92,3.36C1122.06,45.04 1111.73,58.4 1100.5,67.25" style="fill:none;stroke:#999;stroke-width:3" />
<path d="M1118.5,51.36c0.94,0.94,1.27,2.14,1.27,3.64c0,6.75,0.03,24.93,0.05,34.75c0,3.19,0.01,5.5,0.01,6.25" style="fill:none;stroke:#999;stroke-width:3" />
<path d="M1132.0,45.64c0.08,1.21-0.24,2.26-0.97,3.13c-1.29,1.81-3.42,4.15-5.54,6.1" style="fill:none;stroke:#999;stroke-width:3" />
<path d="M1123.08,56.25C1127.0,58.89 1131.5,64 1133.08,67" style="fill:none;stroke:#999;stroke-width:3" />
<path d="M1140.0900000000001,21.23c2.08,0.8,4.17,1.03,6.3,0.78c8.61-1.01,23-2.98,28.85-3.67c2.85-0.34,4.65,1.47,3.87,4.32c-0.94,3.46-1.6,6.15-2.57,10.91" style="fill:none;stroke:#999;stroke-width:3" />
<path d="M1144.04,38.94c6.09-0.57,18.25-2.13,27.96-3.07c2.5-0.24,4.75-0.45,6.56-0.6" style="fill:none;stroke:#999;stroke-width:3" />
<path d="M1142.63,22.54c0.67,0.67,0.84,1.68,0.82,3.33c-0.32,25.63-3.19,50.01-15.14,63.19" style="fill:none;stroke:#999;stroke-width:3" />
<path d="M1144.3200000000002,58.65c2.51,0.75,4.94,0.11,7.57-0.31c8.25-1.3,20.61-2.9,28.34-3.44c2.23-0.31,4.46-0.29,6.67,0.06" style="fill:none;stroke:#999;stroke-width:3" />
<path d="M1160.97,42.69c0.98,0.98,1.66,2.31,1.66,4.14c0,11.68,0.12,20.05,0.12,25.54" style="fill:none;stroke:#999;stroke-width:3" />
<path d="M1147.2,74.74c1.09,1.09,1.53,2.36,1.76,3.64c0.79,4.37,2.23,11.02,2.96,17.12" style="fill:none;stroke:black;stroke-width:3" />
<circle cx="1147.2" cy="74.74" r="5" stroke-width="0" fill="#FF2A00" opacity="0.7" />
<path d="M1222.58,14.5c2.65,2.18,6.05,5.5,7.75,9.25" style="fill:none;stroke:#999;stroke-width:3" />
<path d="M1212.7,34.11c2.26,0.76,4.52,0.81,6.78,0.18c4.98-1.16,14.55-3.79,16.37-4.31c2.74-0.78,4.38,1.14,2.92,3.36C1231.06,45.04 1220.73,58.4 1209.5,67.25" style="fill:none;stroke:#999;stroke-width:3" />
<path d="M1227.5,51.36c0.94,0.94,1.27,2.14,1.27,3.64c0,6.75,0.03,24.93,0.05,34.75c0,3.19,0.01,5.5,0.01,6.25" style="fill:none;stroke:#999;stroke-width:3" />
<path d="M1241.0,45.64c0.08,1.21-0.24,2.26-0.97,3.13c-1.29,1.81-3.42,4.15-5.54,6.1" style="fill:none;stroke:#999;stroke-width:3" />
<path d="M1232.08,56.25C1236.0,58.89 1240.5,64 1242.08,67" style="fill:none;stroke:#999;stroke-width:3" />
<path d="M1249.0900000000001,21.23c2.08,0.8,4.17,1.03,6.3,0.78c8.61-1.01,23-2.98,28.85-3.67c2.85-0.34,4.65,1.47,3.87,4.32c-0.94,3.46-1.6,6.15-2.57,10.91" style="fill:none;stroke:#999;stroke-width:3" />
<path d="M1253.04,38.94c6.09-0.57,18.25-2.13,27.96-3.07c2.5-0.24,4.75-0.45,6.56-0.6" style="fill:none;stroke:#999;stroke-width:3" />
<path d="M1251.63,22.54c0.67,0.67,0.84,1.68,0.82,3.33c-0.32,25.63-3.19,50.01-15.14,63.19" style="fill:none;stroke:#999;stroke-width:3" />
<path d="M1253.3200000000002,58.65c2.51,0.75,4.94,0.11,7.57-0.31c8.25-1.3,20.61-2.9,28.34-3.44c2.23-0.31,4.46-0.29,6.67,0.06" style="fill:none;stroke:#999;stroke-width:3" />
<path d="M1269.97,42.69c0.98,0.98,1.66,2.31,1.66,4.14c0,11.68,0.12,20.05,0.12,25.54" style="fill:none;stroke:#999;stroke-width:3" />
<path d="M1256.2,74.74c1.09,1.09,1.53,2.36,1.76,3.64c0.79,4.37,2.23,11.02,2.96,17.12" style="fill:none;stroke:#999;stroke-width:3" />
<path d="M1257.86,75.52c6.52-1.02,20.52-2.95,27.01-3.65c3.38-0.37,4.88,0.78,4.21,3.78c-0.9,4.06-1.97,9.57-2.86,14.5" style="fill:none;stroke:black;stroke-width:3" />
<circle cx="1257.86" cy="75.52" r="5" stroke-width="0" fill="#FF2A00" opacity="0.7" />
<path d="M1331.58,14.5c2.65,2.18,6.05,5.5,7.75,9.25" style="fill:none;stroke:#999;stroke-width:3" />
<path d="M1321.7,34.11c2.26,0.76,4.52,0.81,6.78,0.18c4.98-1.16,14.55-3.79,16.37-4.31c2.74-0.78,4.38,1.14,2.92,3.36C1340.06,45.04 1329.73,58.4 1318.5,67.25" style="fill:none;stroke:#999;stroke-width:3" />
<path d="M1336.5,51.36c0.94,0.94,1.27,2.14,1.27,3.64c0,6.75,0.03,24.93,0.05,34.75c0,3.19,0.01,5.5,0.01,6.25" style="fill:none;stroke:#999;stroke-width:3" />
<path d="M1350.0,45.64c0.08,1.21-0.24,2.26-0.97,3.13c-1.29,1.81-3.42,4.15-5.54,6.1" style="fill:none;stroke:#999;stroke-width:3" />
<path d="M1341.08,56.25C1345.0,58.89 1349.5,64 1351.08,67" style="fill:none;stroke:#999;stroke-width:3" />
<path d="M1358.0900000000001,21.23c2.08,0.8,4.17,1.03,6.3,0.78c8.61-1.01,23-2.98,28.85-3.67c2.85-0.34,4.65,1.47,3.87,4.32c-0.94,3.46-1.6,6.15-2.57,10.91" style="fill:none;stroke:#999;stroke-width:3" />
<path d="M1362.04,38.94c6.09-0.57,18.25-2.13,27.96-3.07c2.5-0.24,4.75-0.45,6.56-0.6" style="fill:none;stroke:#999;stroke-width:3" />
<path d="M1360.63,22.54c0.67,0.67,0.84,1.68,0.82,3.33c-0.32,25.63-3.19,50.01-15.14,63.19" style="fill:none;stroke:#999;stroke-width:3" />
<path d="M1362.3200000000002,58.65c2.51,0.75,4.94,0.11,7.57-0.31c8.25-1.3,20.61-2.9,28.34-3.44c2.23-0.31,4.46-0.29,6.67,0.06" style="fill:none;stroke:#999;stroke-width:3" />
<path d="M1378.97,42.69c0.98,0.98,1.66,2.31,1.66,4.14c0,11.68,0.12,20.05,0.12,25.54" style="fill:none;stroke:#999;stroke-width:3" />
<path d="M1365.2,74.74c1.09,1.09,1.53,2.36,1.76,3.64c0.79,4.37,2.23,11.02,2.96,17.12" style="fill:none;stroke:#999;stroke-width:3" />
<path d="M1366.86,75.52c6.52-1.02,20.52-2.95,27.01-3.65c3.38-0.37,4.88,0.78,4.21,3.78c-0.9,4.06-1.97,9.57-2.86,14.5" style="fill:none;stroke:#999;stroke-width:3" />
<path d="M1370.26,93.23c5.12-0.48,14.45-1.29,21.73-1.92c1.96-0.17,3.7-0.3,5.05-0.39" style="fill:none;stroke:black;stroke-width:3" />
<circle cx="1370.26" cy="93.23" r="5" stroke-width="0" fill="#FF2A00" opacity="0.7" />
</svg>