<!-- 089ba -->
<svg width="2180px" height="109px" viewBox="0 0 2180px 109px" xmlns="http://www.w3.org/2000/svg" xmlns:xlink="http://www.w3.org/1999/xlink" xml:space="preserve" version="1.1"  baseProfile="full">
<line x1="1" y1="1" x2="2179" y2="1" style="stroke:#ddd;stroke-width:2" />
<line x1="1" y1="1" x2="1" y2="108" style="stroke:#ddd;stroke-width:2" />
<line x1="1" y1="108" x2="2179" y2="108" style="stroke:#ddd;stroke-width:2" />
<line x1="2179" y1="1" x2="2179" y2="108" style="stroke:#ddd;stroke-width:2" />
<line x1="109" y1="1" x2="109" y2="108" style="stroke:#ddd;stroke-width:2" />
<line x1="218" y1="1" x2="218" y2="108" style="stroke:#ddd;stroke-width:2" />
<line x1="327" y1="1" x2="327" y2="108" style="stroke:#ddd;stroke-width:2" />
<line x1="436" y1="1" x2="436" y2="108" style="stroke:#ddd;stroke-width:2" />
<line x1="545" y1="1" x2="545" y2="108" style="stroke:#ddd;stroke-width:2" />
<line x1="654" y1="1" x2="654" y2="108" style="stroke:#ddd;stroke-width:2" />
<line x1="763" y1="1" x2="763" y2="108" style="stroke:#ddd;stroke-width:2" />
<line x1="872" y1="1" x2="872" y2="108" style="stroke:#ddd;stroke-width:2" />
<line x1="981" y1="1" x2="981" y2="108" style="stroke:#ddd;stroke-width:2" />
<line x1="1090" y1="1" x2="1090" y2="108" style="stroke:#ddd;stroke-width:2" />
<line x1="1199" y1="1" x2="1199" y2="108" style="stroke:#ddd;stroke-width:2" />
<line x1="1308" y1="1" x2="1308" y2="108" style="stroke:#ddd;stroke-width:2" />
<line x1="1417" y1="1" x2="1417" y2="108" style="stroke:#ddd;stroke-width:2" />
<line x1="1526" y1="1" x2="1526" y2="108" style="stroke:#ddd;stroke-width:2" />
<line x1="1635" y1="1" x2="1635" y2="108" style="stroke:#ddd;stroke-width:2" />
<line x1="1744" y1="1" x2="1744" y2="108" style="stroke:#ddd;stroke-width:2" />
<line x1="1853" y1="1" x2="1853" y2="108" style="stroke:#ddd;stroke-width:2" />
<line x1="1962" y1="1" x2="1962" y2="108" style="stroke:#ddd;stroke-width:2" />
<line x1="2071" y1="1" x2="2071" y2="108" style="stroke:#ddd;stroke-width:2" />
<line x1="1" y1="54" x2="2179" y2="54" style="stroke:#ddd;stroke-width:2;stroke-dasharray:3 3" />
<line x1="55" y1="1" x2="55" y2="108" style="stroke:#ddd;stroke-width:2;stroke-dasharray:3 3" />
<line x1="164" y1="1" x2="164" y2="108" style="stroke:#ddd;stroke-width:2;stroke-dasharray:3 3" />
<line x1="273" y1="1" x2="273" y2="108" style="stroke:#ddd;stroke-width:2;stroke-dasharray:3 3" />
<line x1="382" y1="1" x2="382" y2="108" style="stroke:#ddd;stroke-width:2;stroke-dasharray:3 3" />
<line x1="491" y1="1" x2="491" y2="108" style="stroke:#ddd;stroke-width:2;stroke-dasharray:3 3" />
<line x1="600" y1="1" x2="600" y2="108" style="stroke:#ddd;stroke-width:2;stroke-dasharray:3 3" />
<line x1="709" y1="1" x2="709" y2="108" style="stroke:#ddd;stroke-width:2;stroke-dasharray:3 3" />
<line x1="818" y1="1" x2="818" y2="108" style="stroke:#ddd;stroke-width:2;stroke-dasharray:3 3" />
<line x1="927" y1="1" x2="927" y2="108" style="stroke:#ddd;stroke-width:2;stroke-dasharray:3 3" />
<line x1="1036" y1="1" x2="1036" y2="108" style="stroke:#ddd;stroke-width:2;stroke-dasharray:3 3" />
<line x1="1145" y1="1" x2="1145" y2="108" style="stroke:#ddd;stroke-width:2;stroke-dasharray:3 3" />
<line x1="1254" y1="1" x2="1254" y2="108" style="stroke:#ddd;stroke-width:2;stroke-dasharray:3 3" />
<line x1="1363" y1="1" x2="1363" y2="108" style="stroke:#ddd;stroke-width:2;stroke-dasharray:3 3" />
<line x1="1472" y1="1" x2="1472" y2="108" style="stroke:#ddd;stroke-width:2;stroke-dasharray:3 3" />
<line x1="1581" y1="1" x2="1581" y2="108" style="stroke:#ddd;stroke-width:2;stroke-dasharray:3 3" />
<line x1="1690" y1="1" x2="1690" y2="108" style="stroke:#ddd;stroke-width:2;stroke-dasharray:3 3" />
<line x1="1799" y1="1" x2="1799" y2="108" style="stroke:#ddd;stroke-width:2;stroke-dasharray:3 3" />
<line x1="1908" y1="1" x2="1908" y2="108" style="stroke:#ddd;stroke-width:2;stroke-dasharray:3 3" />
<line x1="2017" y1="1" x2="2017" y2="108" style="stroke:#ddd;stroke-width:2;stroke-dasharray:3 3" />
<line x1="2126" y1="1" x2="2126" y2="108" style="stroke:#ddd;stroke-width:2;stroke-dasharray:3 3" />
<path d="M58.52,9.48c0.04,0.33,0.09,0.86-0.08,1.34c-1.04,2.83-7.01,9.05-15.19,12.85" style="fill:none;stroke:black;stroke-width:3" />
<circle cx="58.52" cy="9.48" r="5" stroke-width="0" fill="#FF2A00" opacity="0.7" />
<path d="M167.52,9.48c0.04,0.33,0.09,0.86-0.08,1.34c-1.04,2.83-7.01,9.05-15.19,12.85" style="fill:none;stroke:#999;stroke-width:3" />
<path d="M155.43,13.02c5.09,0.81,11.85,4.94,13.83,7.79" style="fill:none;stroke:black;stroke-width:3" />
<circle cx="155.43" cy="13.02" r="5" stroke-width="0" fill="#FF2A00" opacity="0.7" />
<path d="M276.52,9.48c0.04,0.33,0.09,0.86-0.08,1.34c-1.04,2.83-7.01,9.05-15.19,12.85" style="fill:none;stroke:#999;stroke-width:3" />
<path d="M264.43,13.02c5.09,0.81,11.85,4.94,13.83,7.79" style="fill:none;stroke:#999;stroke-width:3" />
<path d="M277.15,24.43c0.04,0.3,0.09,0.77-0.09,1.2c-1.06,2.53-7.13,8.09-15.43,11.49" style="fill:none;stroke:black;stroke-width:3" />
<circle cx="277.15" cy="24.43" r="5" stroke-width="0" fill="#FF2A00" opacity="0.7" />
<path d="M385.52,9.48c0.04,0.33,0.09,0.86-0.08,1.34c-1.04,2.83-7.01,9.05-15.19,12.85" style="fill:none;stroke:#999;stroke-width:3" />
<path d="M373.43,13.02c5.09,0.81,11.85,4.94,13.83,7.79" style="fill:none;stroke:#999;stroke-width:3" />
<path d="M386.15,24.43c0.04,0.3,0.09,0.77-0.09,1.2c-1.06,2.53-7.13,8.09-15.43,11.49" style="fill:none;stroke:#999;stroke-width:3" />
<path d="M372.74,26.86c5.75,1.01,13.4,6.14,15.65,9.68" style="fill:none;stroke:black;stroke-width:3" />
<circle cx="372.74" cy="26.86" r="5" stroke-width="0" fill="#FF2A00" opacity="0.7" />
<path d="M494.52,9.48c0.04,0.33,0.09,0.86-0.08,1.34c-1.04,2.83-7.01,9.05-15.19,12.85" style="fill:none;stroke:#999;stroke-width:3" />
<path d="M482.43,13.02c5.09,0.81,11.85,4.94,13.83,7.79" style="fill:none;stroke:#999;stroke-width:3" />
<path d="M495.15,24.43c0.04,0.3,0.09,0.77-0.09,1.2c-1.06,2.53-7.13,8.09-15.43,11.49" style="fill:none;stroke:#999;stroke-width:3" />
<path d="M481.74,26.86c5.75,1.01,13.4,6.14,15.65,9.68" style="fill:none;stroke:#999;stroke-width:3" />
<path d="M471.39,10.71c0.03,0.21,0.15,0.61-0.07,0.84c-2.8,3-6.07,5.67-12.46,8.06" style="fill:none;stroke:black;stroke-width:3" />
<circle cx="471.39" cy="10.71" r="5" stroke-width="0" fill="#FF2A00" opacity="0.7" />
<path d="M603.52,9.48c0.04,0.33,0.09,0.86-0.08,1.34c-1.04,2.83-7.01,9.05-15.19,12.85" style="fill:none;stroke:#999;stroke-width:3" />
<path d="M591.4300000000001,13.02c5.09,0.81,11.85,4.94,13.83,7.79" style="fill:none;stroke:#999;stroke-width:3" />
<path d="M604.15,24.43c0.04,0.3,0.09,0.77-0.09,1.2c-1.06,2.53-7.13,8.09-15.43,11.49" style="fill:none;stroke:#999;stroke-width:3" />
<path d="M590.74,26.86c5.75,1.01,13.4,6.14,15.65,9.68" style="fill:none;stroke:#999;stroke-width:3" />
<path d="M580.39,10.71c0.03,0.21,0.15,0.61-0.07,0.84c-2.8,3-6.07,5.67-12.46,8.06" style="fill:none;stroke:#999;stroke-width:3" />
<path d="M566.54,19.27c0.71,0.67,1.38,2.19,1.68,3.54c1.53,6.93,2.78,13.57,3.33,21.52" style="fill:none;stroke:black;stroke-width:3" />
<circle cx="566.54" cy="19.27" r="5" stroke-width="0" fill="#FF2A00" opacity="0.7" />
<path d="M712.52,9.48c0.04,0.33,0.09,0.86-0.08,1.34c-1.04,2.83-7.01,9.05-15.19,12.85" style="fill:none;stroke:#999;stroke-width:3" />
<path d="M700.4300000000001,13.02c5.09,0.81,11.85,4.94,13.83,7.79" style="fill:none;stroke:#999;stroke-width:3" />
<path d="M713.15,24.43c0.04,0.3,0.09,0.77-0.09,1.2c-1.06,2.53-7.13,8.09-15.43,11.49" style="fill:none;stroke:#999;stroke-width:3" />
<path d="M699.74,26.86c5.75,1.01,13.4,6.14,15.65,9.68" style="fill:none;stroke:#999;stroke-width:3" />
<path d="M689.39,10.71c0.03,0.21,0.15,0.61-0.07,0.84c-2.8,3-6.07,5.67-12.46,8.06" style="fill:none;stroke:#999;stroke-width:3" />
<path d="M675.54,19.27c0.71,0.67,1.38,2.19,1.68,3.54c1.53,6.93,2.78,13.57,3.33,21.52" style="fill:none;stroke:#999;stroke-width:3" />
<path d="M678.37,26.44c4.38-0.94,9.78-2.07,10.62-2.07s2.02,0,2.69,0" style="fill:none;stroke:black;stroke-width:3" />
<circle cx="678.37" cy="26.44" r="5" stroke-width="0" fill="#FF2A00" opacity="0.7" />
<path d="M821.52,9.48c0.04,0.33,0.09,0.86-0.08,1.34c-1.04,2.83-7.01,9.05-15.19,12.85" style="fill:none;stroke:#999;stroke-width:3" />
<path d="M809.4300000000001,13.02c5.09,0.81,11.85,4.94,13.83,7.79" style="fill:none;stroke:#999;stroke-width:3" />
<path d="M822.15,24.43c0.04,0.3,0.09,0.77-0.09,1.2c-1.06,2.53-7.13,8.09-15.43,11.49" style="fill:none;stroke:#999;stroke-width:3" />
<path d="M808.74,26.86c5.75,1.01,13.4,6.14,15.65,9.68" style="fill:none;stroke:#999;stroke-width:3" />
<path d="M798.39,10.71c0.03,0.21,0.15,0.61-0.07,0.84c-2.8,3-6.07,5.67-12.46,8.06" style="fill:none;stroke:#999;stroke-width:3" />
<path d="M784.54,19.27c0.71,0.67,1.38,2.19,1.68,3.54c1.53,6.93,2.78,13.57,3.33,21.52" style="fill:none;stroke:#999;stroke-width:3" />
<path d="M787.37,26.44c4.38-0.94,9.78-2.07,10.62-2.07s2.02,0,2.69,0" style="fill:none;stroke:#999;stroke-width:3" />
<path d="M788.62,33.74c3.53-0.31,9.28-1.57,10.12-1.57s2.02,0,2.69,0" style="fill:none;stroke:black;stroke-width:3" />
<circle cx="788.62" cy="33.74" r="5" stroke-width="0" fill="#FF2A00" opacity="0.7" />
<path d="M930.52,9.48c0.04,0.33,0.09,0.86-0.08,1.34c-1.04,2.83-7.01,9.05-15.19,12.85" style="fill:none;stroke:#999;stroke-width:3" />
<path d="M918.4300000000001,13.02c5.09,0.81,11.85,4.94,13.83,7.79" style="fill:none;stroke:#999;stroke-width:3" />
<path d="M931.15,24.43c0.04,0.3,0.09,0.77-0.09,1.2c-1.06,2.53-7.13,8.09-15.43,11.49" style="fill:none;stroke:#999;stroke-width:3" />
<path d="M917.74,26.86c5.75,1.01,13.4,6.14,15.65,9.68" style="fill:none;stroke:#999;stroke-width:3" />
<path d="M907.39,10.71c0.03,0.21,0.15,0.61-0.07,0.84c-2.8,3-6.07,5.67-12.46,8.06" style="fill:none;stroke:#999;stroke-width:3" />
<path d="M893.54,19.27c0.71,0.67,1.38,2.19,1.68,3.54c1.53,6.93,2.78,13.57,3.33,21.52" style="fill:none;stroke:#999;stroke-width:3" />
<path d="M896.37,26.44c4.38-0.94,9.78-2.07,10.62-2.07s2.02,0,2.69,0" style="fill:none;stroke:#999;stroke-width:3" />
<path d="M897.62,33.74c3.53-0.31,9.28-1.57,10.12-1.57s2.02,0,2.69,0" style="fill:none;stroke:#999;stroke-width:3" />
<path d="M939.21,14.62c0.72,0.13,1.79,0.39,2.8,0.39c1,0,11.62-2.06,12.77-2.19c1.15-0.13,2.1,0.65,2.01,1.43c-0.86,7.56-2.01,18.65-2.87,24.9" style="fill:none;stroke:black;stroke-width:3" />
<circle cx="939.21" cy="14.62" r="5" stroke-width="0" fill="#FF2A00" opacity="0.7" />
<path d="M1039.52,9.48c0.04,0.33,0.09,0.86-0.08,1.34c-1.04,2.83-7.01,9.05-15.19,12.85" style="fill:none;stroke:#999;stroke-width:3" />
<path d="M1027.43,13.02c5.09,0.81,11.85,4.94,13.83,7.79" style="fill:none;stroke:#999;stroke-width:3" />
<path d="M1040.15,24.43c0.04,0.3,0.09,0.77-0.09,1.2c-1.06,2.53-7.13,8.09-15.43,11.49" style="fill:none;stroke:#999;stroke-width:3" />
<path d="M1026.74,26.86c5.75,1.01,13.4,6.14,15.65,9.68" style="fill:none;stroke:#999;stroke-width:3" />
<path d="M1016.39,10.71c0.03,0.21,0.15,0.61-0.07,0.84c-2.8,3-6.07,5.67-12.46,8.06" style="fill:none;stroke:#999;stroke-width:3" />
<path d="M1002.54,19.27c0.71,0.67,1.38,2.19,1.68,3.54c1.53,6.93,2.78,13.57,3.33,21.52" style="fill:none;stroke:#999;stroke-width:3" />
<path d="M1005.37,26.44c4.38-0.94,9.78-2.07,10.62-2.07s2.02,0,2.69,0" style="fill:none;stroke:#999;stroke-width:3" />
<path d="M1006.62,33.74c3.53-0.31,9.28-1.57,10.12-1.57s2.02,0,2.69,0" style="fill:none;stroke:#999;stroke-width:3" />
<path d="M1048.21,14.62c0.72,0.13,1.79,0.39,2.8,0.39c1,0,11.62-2.06,12.77-2.19c1.15-0.13,2.1,0.65,2.01,1.43c-0.86,7.56-2.01,18.65-2.87,24.9" style="fill:none;stroke:#999;stroke-width:3" />
<path d="M1048.0,23.07c0.72,0.13,1.29,0.39,2.29,0.39c1,0,12.84-1.04,13.99-1.17" style="fill:none;stroke:black;stroke-width:3" />
<circle cx="1048.0" cy="23.07" r="5" stroke-width="0" fill="#FF2A00" opacity="0.7" />
<path d="M1148.52,9.48c0.04,0.33,0.09,0.86-0.08,1.34c-1.04,2.83-7.01,9.05-15.19,12.85" style="fill:none;stroke:#999;stroke-width:3" />
<path d="M1136.43,13.02c5.09,0.81,11.85,4.94,13.83,7.79" style="fill:none;stroke:#999;stroke-width:3" />
<path d="M1149.15,24.43c0.04,0.3,0.09,0.77-0.09,1.2c-1.06,2.53-7.13,8.09-15.43,11.49" style="fill:none;stroke:#999;stroke-width:3" />
<path d="M1135.74,26.86c5.75,1.01,13.4,6.14,15.65,9.68" style="fill:none;stroke:#999;stroke-width:3" />
<path d="M1125.3899999999999,10.71c0.03,0.21,0.15,0.61-0.07,0.84c-2.8,3-6.07,5.67-12.46,8.06" style="fill:none;stroke:#999;stroke-width:3" />
<path d="M1111.54,19.27c0.71,0.67,1.38,2.19,1.68,3.54c1.53,6.93,2.78,13.57,3.33,21.52" style="fill:none;stroke:#999;stroke-width:3" />
<path d="M1114.37,26.44c4.38-0.94,9.78-2.07,10.62-2.07s2.02,0,2.69,0" style="fill:none;stroke:#999;stroke-width:3" />
<path d="M1115.62,33.74c3.53-0.31,9.28-1.57,10.12-1.57s2.02,0,2.69,0" style="fill:none;stroke:#999;stroke-width:3" />
<path d="M1157.21,14.62c0.72,0.13,1.79,0.39,2.8,0.39c1,0,11.62-2.06,12.77-2.19c1.15-0.13,2.1,0.65,2.01,1.43c-0.86,7.56-2.01,18.65-2.87,24.9" style="fill:none;stroke:#999;stroke-width:3" />
<path d="M1157.0,23.07c0.72,0.13,1.29,0.39,2.29,0.39c1,0,12.84-1.04,13.99-1.17" style="fill:none;stroke:#999;stroke-width:3" />
<path d="M1156.75,30.87c0.72,0.13,1.29,0.39,2.29,0.39c1,0,12.84-1.04,13.99-1.17" style="fill:none;stroke:black;stroke-width:3" />
<circle cx="1156.75" cy="30.87" r="5" stroke-width="0" fill="#FF2A00" opacity="0.7" />
<path d="M1257.52,9.48c0.04,0.33,0.09,0.86-0.08,1.34c-1.04,2.83-7.01,9.05-15.19,12.85" style="fill:none;stroke:#999;stroke-width:3" />
<path d="M1245.43,13.02c5.09,0.81,11.85,4.94,13.83,7.79" style="fill:none;stroke:#999;stroke-width:3" />
<path d="M1258.15,24.43c0.04,0.3,0.09,0.77-0.09,1.2c-1.06,2.53-7.13,8.09-15.43,11.49" style="fill:none;stroke:#999;stroke-width:3" />
<path d="M1244.74,26.86c5.75,1.01,13.4,6.14,15.65,9.68" style="fill:none;stroke:#999;stroke-width:3" />
<path d="M1234.3899999999999,10.71c0.03,0.21,0.15,0.61-0.07,0.84c-2.8,3-6.07,5.67-12.46,8.06" style="fill:none;stroke:#999;stroke-width:3" />
<path d="M1220.54,19.27c0.71,0.67,1.38,2.19,1.68,3.54c1.53,6.93,2.78,13.57,3.33,21.52" style="fill:none;stroke:#999;stroke-width:3" />
<path d="M1223.37,26.44c4.38-0.94,9.78-2.07,10.62-2.07s2.02,0,2.69,0" style="fill:none;stroke:#999;stroke-width:3" />
<path d="M1224.62,33.74c3.53-0.31,9.28-1.57,10.12-1.57s2.02,0,2.69,0" style="fill:none;stroke:#999;stroke-width:3" />
<path d="M1266.21,14.62c0.72,0.13,1.79,0.39,2.8,0.39c1,0,11.62-2.06,12.77-2.19c1.15-0.13,2.1,0.65,2.01,1.43c-0.86,7.56-2.01,18.65-2.87,24.9" style="fill:none;stroke:#999;stroke-width:3" />
<path d="M1266.0,23.07c0.72,0.13,1.29,0.39,2.29,0.39c1,0,12.84-1.04,13.99-1.17" style="fill:none;stroke:#999;stroke-width:3" />
<path d="M1265.75,30.87c0.72,0.13,1.29,0.39,2.29,0.39c1,0,12.84-1.04,13.99-1.17" style="fill:none;stroke:#999;stroke-width:3" />
<path d="M1218.25,43.57c0,3.61-3.33,13.52-4.84,15.93" style="fill:none;stroke:black;stroke-width:3" />
<circle cx="1218.25" cy="43.57" r="5" stroke-width="0" fill="#FF2A00" opacity="0.7" />
<path d="M1366.52,9.48c0.04,0.33,0.09,0.86-0.08,1.34c-1.04,2.83-7.01,9.05-15.19,12.85" style="fill:none;stroke:#999;stroke-width:3" />
<path d="M1354.43,13.02c5.09,0.81,11.85,4.94,13.83,7.79" style="fill:none;stroke:#999;stroke-width:3" />
<path d="M1367.15,24.43c0.04,0.3,0.09,0.77-0.09,1.2c-1.06,2.53-7.13,8.09-15.43,11.49" style="fill:none;stroke:#999;stroke-width:3" />
<path d="M1353.74,26.86c5.75,1.01,13.4,6.14,15.65,9.68" style="fill:none;stroke:#999;stroke-width:3" />
<path d="M1343.3899999999999,10.71c0.03,0.21,0.15,0.61-0.07,0.84c-2.8,3-6.07,5.67-12.46,8.06" style="fill:none;stroke:#999;stroke-width:3" />
<path d="M1329.54,19.27c0.71,0.67,1.38,2.19,1.68,3.54c1.53,6.93,2.78,13.57,3.33,21.52" style="fill:none;stroke:#999;stroke-width:3" />
<path d="M1332.37,26.44c4.38-0.94,9.78-2.07,10.62-2.07s2.02,0,2.69,0" style="fill:none;stroke:#999;stroke-width:3" />
<path d="M1333.62,33.74c3.53-0.31,9.28-1.57,10.12-1.57s2.02,0,2.69,0" style="fill:none;stroke:#999;stroke-width:3" />
<path d="M1375.21,14.62c0.72,0.13,1.79,0.39,2.8,0.39c1,0,11.62-2.06,12.77-2.19c1.15-0.13,2.1,0.65,2.01,1.43c-0.86,7.56-2.01,18.65-2.87,24.9" style="fill:none;stroke:#999;stroke-width:3" />
<path d="M1375.0,23.07c0.72,0.13,1.29,0.39,2.29,0.39c1,0,12.84-1.04,13.99-1.17" style="fill:none;stroke:#999;stroke-width:3" />
<path d="M1374.75,30.87c0.72,0.13,1.29,0.39,2.29,0.39c1,0,12.84-1.04,13.99-1.17" style="fill:none;stroke:#999;stroke-width:3" />
<path d="M1327.25,43.57c0,3.61-3.33,13.52-4.84,15.93" style="fill:none;stroke:#999;stroke-width:3" />
<path d="M1327.24,44.91c9.51-0.9,59.24-5.61,66.95-5.95c12.05-0.53,2.55,6.5-0.45,8.42" style="fill:none;stroke:black;stroke-width:3" />
<circle cx="1327.24" cy="44.91" r="5" stroke-width="0" fill="#FF2A00" opacity="0.7" />
<path d="M1475.52,9.48c0.04,0.33,0.09,0.86-0.08,1.34c-1.04,2.83-7.01,9.05-15.19,12.85" style="fill:none;stroke:#999;stroke-width:3" />
<path d="M1463.43,13.02c5.09,0.81,11.85,4.94,13.83,7.79" style="fill:none;stroke:#999;stroke-width:3" />
<path d="M1476.15,24.43c0.04,0.3,0.09,0.77-0.09,1.2c-1.06,2.53-7.13,8.09-15.43,11.49" style="fill:none;stroke:#999;stroke-width:3" />
<path d="M1462.74,26.86c5.75,1.01,13.4,6.14,15.65,9.68" style="fill:none;stroke:#999;stroke-width:3" />
<path d="M1452.3899999999999,10.71c0.03,0.21,0.15,0.61-0.07,0.84c-2.8,3-6.07,5.67-12.46,8.06" style="fill:none;stroke:#999;stroke-width:3" />
<path d="M1438.54,19.27c0.71,0.67,1.38,2.19,1.68,3.54c1.53,6.93,2.78,13.57,3.33,21.52" style="fill:none;stroke:#999;stroke-width:3" />
<path d="M1441.37,26.44c4.38-0.94,9.78-2.07,10.62-2.07s2.02,0,2.69,0" style="fill:none;stroke:#999;stroke-width:3" />
<path d="M1442.62,33.74c3.53-0.31,9.28-1.57,10.12-1.57s2.02,0,2.69,0" style="fill:none;stroke:#999;stroke-width:3" />
<path d="M1484.21,14.62c0.72,0.13,1.79,0.39,2.8,0.39c1,0,11.62-2.06,12.77-2.19c1.15-0.13,2.1,0.65,2.01,1.43c-0.86,7.56-2.01,18.65-2.87,24.9" style="fill:none;stroke:#999;stroke-width:3" />
<path d="M1484.0,23.07c0.72,0.13,1.29,0.39,2.29,0.39c1,0,12.84-1.04,13.99-1.17" style="fill:none;stroke:#999;stroke-width:3" />
<path d="M1483.75,30.87c0.72,0.13,1.29,0.39,2.29,0.39c1,0,12.84-1.04,13.99-1.17" style="fill:none;stroke:#999;stroke-width:3" />
<path d="M1436.25,43.57c0,3.61-3.33,13.52-4.84,15.93" style="fill:none;stroke:#999;stroke-width:3" />
<path d="M1436.24,44.91c9.51-0.9,59.24-5.61,66.95-5.95c12.05-0.53,2.55,6.5-0.45,8.42" style="fill:none;stroke:#999;stroke-width:3" />
<path d="M1452.47,50.64c0.56,0.67,0.87,1.67,0.87,2.57c0,0.89,0.34,28.7,0.52,29.6" style="fill:none;stroke:black;stroke-width:3" />
<circle cx="1452.47" cy="50.64" r="5" stroke-width="0" fill="#FF2A00" opacity="0.7" />
<path d="M1584.52,9.48c0.04,0.33,0.09,0.86-0.08,1.34c-1.04,2.83-7.01,9.05-15.19,12.85" style="fill:none;stroke:#999;stroke-width:3" />
<path d="M1572.43,13.02c5.09,0.81,11.85,4.94,13.83,7.79" style="fill:none;stroke:#999;stroke-width:3" />
<path d="M1585.15,24.43c0.04,0.3,0.09,0.77-0.09,1.2c-1.06,2.53-7.13,8.09-15.43,11.49" style="fill:none;stroke:#999;stroke-width:3" />
<path d="M1571.74,26.86c5.75,1.01,13.4,6.14,15.65,9.68" style="fill:none;stroke:#999;stroke-width:3" />
<path d="M1561.3899999999999,10.71c0.03,0.21,0.15,0.61-0.07,0.84c-2.8,3-6.07,5.67-12.46,8.06" style="fill:none;stroke:#999;stroke-width:3" />
<path d="M1547.54,19.27c0.71,0.67,1.38,2.19,1.68,3.54c1.53,6.93,2.78,13.57,3.33,21.52" style="fill:none;stroke:#999;stroke-width:3" />
<path d="M1550.37,26.44c4.38-0.94,9.78-2.07,10.62-2.07s2.02,0,2.69,0" style="fill:none;stroke:#999;stroke-width:3" />
<path d="M1551.62,33.74c3.53-0.31,9.28-1.57,10.12-1.57s2.02,0,2.69,0" style="fill:none;stroke:#999;stroke-width:3" />
<path d="M1593.21,14.62c0.72,0.13,1.79,0.39,2.8,0.39c1,0,11.62-2.06,12.77-2.19c1.15-0.13,2.1,0.65,2.01,1.43c-0.86,7.56-2.01,18.65-2.87,24.9" style="fill:none;stroke:#999;stroke-width:3" />
<path d="M1593.0,23.07c0.72,0.13,1.29,0.39,2.29,0.39c1,0,12.84-1.04,13.99-1.17" style="fill:none;stroke:#999;stroke-width:3" />
<path d="M1592.75,30.87c0.72,0.13,1.29,0.39,2.29,0.39c1,0,12.84-1.04,13.99-1.17" style="fill:none;stroke:#999;stroke-width:3" />
<path d="M1545.25,43.57c0,3.61-3.33,13.52-4.84,15.93" style="fill:none;stroke:#999;stroke-width:3" />
<path d="M1545.24,44.91c9.51-0.9,59.24-5.61,66.95-5.95c12.05-0.53,2.55,6.5-0.45,8.42" style="fill:none;stroke:#999;stroke-width:3" />
<path d="M1561.47,50.64c0.56,0.67,0.87,1.67,0.87,2.57c0,0.89,0.34,28.7,0.52,29.6" style="fill:none;stroke:#999;stroke-width:3" />
<path d="M1562.27,52.54c3.14-0.11,29.6-3.17,32.46-3.31c2.39-0.11,3.07,1.51,3.07,3.58c0,2.5-0.61,27.28-0.61,27.95" style="fill:none;stroke:black;stroke-width:3" />
<circle cx="1562.27" cy="52.54" r="5" stroke-width="0" fill="#FF2A00" opacity="0.7" />
<path d="M1693.52,9.48c0.04,0.33,0.09,0.86-0.08,1.34c-1.04,2.83-7.01,9.05-15.19,12.85" style="fill:none;stroke:#999;stroke-width:3" />
<path d="M1681.43,13.02c5.09,0.81,11.85,4.94,13.83,7.79" style="fill:none;stroke:#999;stroke-width:3" />
<path d="M1694.15,24.43c0.04,0.3,0.09,0.77-0.09,1.2c-1.06,2.53-7.13,8.09-15.43,11.49" style="fill:none;stroke:#999;stroke-width:3" />
<path d="M1680.74,26.86c5.75,1.01,13.4,6.14,15.65,9.68" style="fill:none;stroke:#999;stroke-width:3" />
<path d="M1670.3899999999999,10.71c0.03,0.21,0.15,0.61-0.07,0.84c-2.8,3-6.07,5.67-12.46,8.06" style="fill:none;stroke:#999;stroke-width:3" />
<path d="M1656.54,19.27c0.71,0.67,1.38,2.19,1.68,3.54c1.53,6.93,2.78,13.57,3.33,21.52" style="fill:none;stroke:#999;stroke-width:3" />
<path d="M1659.37,26.44c4.38-0.94,9.78-2.07,10.62-2.07s2.02,0,2.69,0" style="fill:none;stroke:#999;stroke-width:3" />
<path d="M1660.62,33.74c3.53-0.31,9.28-1.57,10.12-1.57s2.02,0,2.69,0" style="fill:none;stroke:#999;stroke-width:3" />
<path d="M1702.21,14.62c0.72,0.13,1.79,0.39,2.8,0.39c1,0,11.62-2.06,12.77-2.19c1.15-0.13,2.1,0.65,2.01,1.43c-0.86,7.56-2.01,18.65-2.87,24.9" style="fill:none;stroke:#999;stroke-width:3" />
<path d="M1702.0,23.07c0.72,0.13,1.29,0.39,2.29,0.39c1,0,12.84-1.04,13.99-1.17" style="fill:none;stroke:#999;stroke-width:3" />
<path d="M1701.75,30.87c0.72,0.13,1.29,0.39,2.29,0.39c1,0,12.84-1.04,13.99-1.17" style="fill:none;stroke:#999;stroke-width:3" />
<path d="M1654.25,43.57c0,3.61-3.33,13.52-4.84,15.93" style="fill:none;stroke:#999;stroke-width:3" />
<path d="M1654.24,44.91c9.51-0.9,59.24-5.61,66.95-5.95c12.05-0.53,2.55,6.5-0.45,8.42" style="fill:none;stroke:#999;stroke-width:3" />
<path d="M1670.47,50.64c0.56,0.67,0.87,1.67,0.87,2.57c0,0.89,0.34,28.7,0.52,29.6" style="fill:none;stroke:#999;stroke-width:3" />
<path d="M1671.27,52.54c3.14-0.11,29.6-3.17,32.46-3.31c2.39-0.11,3.07,1.51,3.07,3.58c0,2.5-0.61,27.28-0.61,27.95" style="fill:none;stroke:#999;stroke-width:3" />
<path d="M1671.76,61.18c4.49,0,29.5-2.63,34.55-2.63" style="fill:none;stroke:black;stroke-width:3" />
<circle cx="1671.76" cy="61.18" r="5" stroke-width="0" fill="#FF2A00" opacity="0.7" />
<path d="M1802.52,9.48c0.04,0.33,0.09,0.86-0.08,1.34c-1.04,2.83-7.01,9.05-15.19,12.85" style="fill:none;stroke:#999;stroke-width:3" />
<path d="M1790.43,13.02c5.09,0.81,11.85,4.94,13.83,7.79" style="fill:none;stroke:#999;stroke-width:3" />
<path d="M1803.15,24.43c0.04,0.3,0.09,0.77-0.09,1.2c-1.06,2.53-7.13,8.09-15.43,11.49" style="fill:none;stroke:#999;stroke-width:3" />
<path d="M1789.74,26.86c5.75,1.01,13.4,6.14,15.65,9.68" style="fill:none;stroke:#999;stroke-width:3" />
<path d="M1779.3899999999999,10.71c0.03,0.21,0.15,0.61-0.07,0.84c-2.8,3-6.07,5.67-12.46,8.06" style="fill:none;stroke:#999;stroke-width:3" />
<path d="M1765.54,19.27c0.71,0.67,1.38,2.19,1.68,3.54c1.53,6.93,2.78,13.57,3.33,21.52" style="fill:none;stroke:#999;stroke-width:3" />
<path d="M1768.37,26.44c4.38-0.94,9.78-2.07,10.62-2.07s2.02,0,2.69,0" style="fill:none;stroke:#999;stroke-width:3" />
<path d="M1769.62,33.74c3.53-0.31,9.28-1.57,10.12-1.57s2.02,0,2.69,0" style="fill:none;stroke:#999;stroke-width:3" />
<path d="M1811.21,14.62c0.72,0.13,1.79,0.39,2.8,0.39c1,0,11.62-2.06,12.77-2.19c1.15-0.13,2.1,0.65,2.01,1.43c-0.86,7.56-2.01,18.65-2.87,24.9" style="fill:none;stroke:#999;stroke-width:3" />
<path d="M1811.0,23.07c0.72,0.13,1.29,0.39,2.29,0.39c1,0,12.84-1.04,13.99-1.17" style="fill:none;stroke:#999;stroke-width:3" />
<path d="M1810.75,30.87c0.72,0.13,1.29,0.39,2.29,0.39c1,0,12.84-1.04,13.99-1.17" style="fill:none;stroke:#999;stroke-width:3" />
<path d="M1763.25,43.57c0,3.61-3.33,13.52-4.84,15.93" style="fill:none;stroke:#999;stroke-width:3" />
<path d="M1763.24,44.91c9.51-0.9,59.24-5.61,66.95-5.95c12.05-0.53,2.55,6.5-0.45,8.42" style="fill:none;stroke:#999;stroke-width:3" />
<path d="M1779.47,50.64c0.56,0.67,0.87,1.67,0.87,2.57c0,0.89,0.34,28.7,0.52,29.6" style="fill:none;stroke:#999;stroke-width:3" />
<path d="M1780.27,52.54c3.14-0.11,29.6-3.17,32.46-3.31c2.39-0.11,3.07,1.51,3.07,3.58c0,2.5-0.61,27.28-0.61,27.95" style="fill:none;stroke:#999;stroke-width:3" />
<path d="M1780.76,61.18c4.49,0,29.5-2.63,34.55-2.63" style="fill:none;stroke:#999;stroke-width:3" />
<path d="M1781.01,70.72c8.24-0.72,24.74-2.47,33.92-2.97" style="fill:none;stroke:black;stroke-width:3" />
<circle cx="1781.01" cy="70.72" r="5" stroke-width="0" fill="#FF2A00" opacity="0.7" />
<path d="M1911.52,9.48c0.04,0.33,0.09,0.86-0.08,1.34c-1.04,2.83-7.01,9.05-15.19,12.85" style="fill:none;stroke:#999;stroke-width:3" />
<path d="M1899.43,13.02c5.09,0.81,11.85,4.94,13.83,7.79" style="fill:none;stroke:#999;stroke-width:3" />
<path d="M1912.15,24.43c0.04,0.3,0.09,0.77-0.09,1.2c-1.06,2.53-7.13,8.09-15.43,11.49" style="fill:none;stroke:#999;stroke-width:3" />
<path d="M1898.74,26.86c5.75,1.01,13.4,6.14,15.65,9.68" style="fill:none;stroke:#999;stroke-width:3" />
<path d="M1888.3899999999999,10.71c0.03,0.21,0.15,0.61-0.07,0.84c-2.8,3-6.07,5.67-12.46,8.06" style="fill:none;stroke:#999;stroke-width:3" />
<path d="M1874.54,19.27c0.71,0.67,1.38,2.19,1.68,3.54c1.53,6.93,2.78,13.57,3.33,21.52" style="fill:none;stroke:#999;stroke-width:3" />
<path d="M1877.37,26.44c4.38-0.94,9.78-2.07,10.62-2.07s2.02,0,2.69,0" style="fill:none;stroke:#999;stroke-width:3" />
<path d="M1878.62,33.74c3.53-0.31,9.28-1.57,10.12-1.57s2.02,0,2.69,0" style="fill:none;stroke:#999;stroke-width:3" />
<path d="M1920.21,14.62c0.72,0.13,1.79,0.39,2.8,0.39c1,0,11.62-2.06,12.77-2.19c1.15-0.13,2.1,0.65,2.01,1.43c-0.86,7.56-2.01,18.65-2.87,24.9" style="fill:none;stroke:#999;stroke-width:3" />
<path d="M1920.0,23.07c0.72,0.13,1.29,0.39,2.29,0.39c1,0,12.84-1.04,13.99-1.17" style="fill:none;stroke:#999;stroke-width:3" />
<path d="M1919.75,30.87c0.72,0.13,1.29,0.39,2.29,0.39c1,0,12.84-1.04,13.99-1.17" style="fill:none;stroke:#999;stroke-width:3" />
<path d="M1872.25,43.57c0,3.61-3.33,13.52-4.84,15.93" style="fill:none;stroke:#999;stroke-width:3" />
<path d="M1872.24,44.91c9.51-0.9,59.24-5.61,66.95-5.95c12.05-0.53,2.55,6.5-0.45,8.42" style="fill:none;stroke:#999;stroke-width:3" />
<path d="M1888.47,50.64c0.56,0.67,0.87,1.67,0.87,2.57c0,0.89,0.34,28.7,0.52,29.6" style="fill:none;stroke:#999;stroke-width:3" />
<path d="M1889.27,52.54c3.14-0.11,29.6-3.17,32.46-3.31c2.39-0.11,3.07,1.51,3.07,3.58c0,2.5-0.61,27.28-0.61,27.95" style="fill:none;stroke:#999;stroke-width:3" />
<path d="M1889.76,61.18c4.49,0,29.5-2.63,34.55-2.63" style="fill:none;stroke:#999;stroke-width:3" />
<path d="M1890.01,70.72c8.24-0.72,24.74-2.47,33.92-2.97" style="fill:none;stroke:#999;stroke-width:3" />
<path d="M1889.87,80.71C1897.75,80 1915.5,78 1924.33,77.37" style="fill:none;stroke:black;stroke-width:3" />
<circle cx="1889.87" cy="80.71" r="5" stroke-width="0" fill="#FF2A00" opacity="0.7" />
<path d="M2020.52,9.48c0.04,0.33,0.09,0.86-0.08,1.34c-1.04,2.83-7.01,9.05-15.19,12.85" style="fill:none;stroke:#999;stroke-width:3" />
<path d="M2008.43,13.02c5.09,0.81,11.85,4.94,13.83,7.79" style="fill:none;stroke:#999;stroke-width:3" />
<path d="M2021.15,24.43c0.04,0.3,0.09,0.77-0.09,1.2c-1.06,2.53-7.13,8.09-15.43,11.49" style="fill:none;stroke:#999;stroke-width:3" />
<path d="M2007.74,26.86c5.75,1.01,13.4,6.14,15.65,9.68" style="fill:none;stroke:#999;stroke-width:3" />
<path d="M1997.3899999999999,10.71c0.03,0.21,0.15,0.61-0.07,0.84c-2.8,3-6.07,5.67-12.46,8.06" style="fill:none;stroke:#999;stroke-width:3" />
<path d="M1983.54,19.27c0.71,0.67,1.38,2.19,1.68,3.54c1.53,6.93,2.78,13.57,3.33,21.52" style="fill:none;stroke:#999;stroke-width:3" />
<path d="M1986.37,26.44c4.38-0.94,9.78-2.07,10.62-2.07s2.02,0,2.69,0" style="fill:none;stroke:#999;stroke-width:3" />
<path d="M1987.62,33.74c3.53-0.31,9.28-1.57,10.12-1.57s2.02,0,2.69,0" style="fill:none;stroke:#999;stroke-width:3" />
<path d="M2029.21,14.62c0.72,0.13,1.79,0.39,2.8,0.39c1,0,11.62-2.06,12.77-2.19c1.15-0.13,2.1,0.65,2.01,1.43c-0.86,7.56-2.01,18.65-2.87,24.9" style="fill:none;stroke:#999;stroke-width:3" />
<path d="M2029.0,23.07c0.72,0.13,1.29,0.39,2.29,0.39c1,0,12.84-1.04,13.99-1.17" style="fill:none;stroke:#999;stroke-width:3" />
<path d="M2028.75,30.87c0.72,0.13,1.29,0.39,2.29,0.39c1,0,12.84-1.04,13.99-1.17" style="fill:none;stroke:#999;stroke-width:3" />
<path d="M1981.25,43.57c0,3.61-3.33,13.52-4.84,15.93" style="fill:none;stroke:#999;stroke-width:3" />
<path d="M1981.24,44.91c9.51-0.9,59.24-5.61,66.95-5.95c12.05-0.53,2.55,6.5-0.45,8.42" style="fill:none;stroke:#999;stroke-width:3" />
<path d="M1997.47,50.64c0.56,0.67,0.87,1.67,0.87,2.57c0,0.89,0.34,28.7,0.52,29.6" style="fill:none;stroke:#999;stroke-width:3" />
<path d="M1998.27,52.54c3.14-0.11,29.6-3.17,32.46-3.31c2.39-0.11,3.07,1.51,3.07,3.58c0,2.5-0.61,27.28-0.61,27.95" style="fill:none;stroke:#999;stroke-width:3" />
<path d="M1998.76,61.18c4.49,0,29.5-2.63,34.55-2.63" style="fill:none;stroke:#999;stroke-width:3" />
<path d="M1999.01,70.72c8.24-0.72,24.74-2.47,33.92-2.97" style="fill:none;stroke:#999;stroke-width:3" />
<path d="M1998.87,80.71C2006.75,80 2024.5,78 2033.33,77.37" style="fill:none;stroke:#999;stroke-width:3" />
<path d="M2006.91,82.98c0.07,0.45,0.15,1.15-0.14,1.79c-1.74,3.78-10.9,12.79-25.37,17.14" style="fill:none;stroke:black;stroke-width:3" />
<circle cx="2006.91" cy="82.98" r="5" stroke-width="0" fill="#FF2A00" opacity="0.7" />
<path d="M2129.52,9.48c0.04,0.33,0.09,0.86-0.08,1.34c-1.04,2.83-7.01,9.05-15.19,12.85" style="fill:none;stroke:#999;stroke-width:3" />
<path d="M2117.4300000000003,13.02c5.09,0.81,11.85,4.94,13.83,7.79" style="fill:none;stroke:#999;stroke-width:3" />
<path d="M2130.15,24.43c0.04,0.3,0.09,0.77-0.09,1.2c-1.06,2.53-7.13,8.09-15.43,11.49" style="fill:none;stroke:#999;stroke-width:3" />
<path d="M2116.74,26.86c5.75,1.01,13.4,6.14,15.65,9.68" style="fill:none;stroke:#999;stroke-width:3" />
<path d="M2106.39,10.71c0.03,0.21,0.15,0.61-0.07,0.84c-2.8,3-6.07,5.67-12.46,8.06" style="fill:none;stroke:#999;stroke-width:3" />
<path d="M2092.54,19.27c0.71,0.67,1.38,2.19,1.68,3.54c1.53,6.93,2.78,13.57,3.33,21.52" style="fill:none;stroke:#999;stroke-width:3" />
<path d="M2095.37,26.44c4.38-0.94,9.78-2.07,10.62-2.07s2.02,0,2.69,0" style="fill:none;stroke:#999;stroke-width:3" />
<path d="M2096.62,33.74c3.53-0.31,9.28-1.57,10.12-1.57s2.02,0,2.69,0" style="fill:none;stroke:#999;stroke-width:3" />
<path d="M2138.21,14.62c0.72,0.13,1.79,0.39,2.8,0.39c1,0,11.62-2.06,12.77-2.19c1.15-0.13,2.1,0.65,2.01,1.43c-0.86,7.56-2.01,18.65-2.87,24.9" style="fill:none;stroke:#999;stroke-width:3" />
<path d="M2138.0,23.07c0.72,0.13,1.29,0.39,2.29,0.39c1,0,12.84-1.04,13.99-1.17" style="fill:none;stroke:#999;stroke-width:3" />
<path d="M2137.75,30.87c0.72,0.13,1.29,0.39,2.29,0.39c1,0,12.84-1.04,13.99-1.17" style="fill:none;stroke:#999;stroke-width:3" />
<path d="M2090.25,43.57c0,3.61-3.33,13.52-4.84,15.93" style="fill:none;stroke:#999;stroke-width:3" />
<path d="M2090.24,44.91c9.51-0.9,59.24-5.61,66.95-5.95c12.05-0.53,2.55,6.5-0.45,8.42" style="fill:none;stroke:#999;stroke-width:3" />
<path d="M2106.4700000000003,50.64c0.56,0.67,0.87,1.67,0.87,2.57c0,0.89,0.34,28.7,0.52,29.6" style="fill:none;stroke:#999;stroke-width:3" />
<path d="M2107.27,52.54c3.14-0.11,29.6-3.17,32.46-3.31c2.39-0.11,3.07,1.51,3.07,3.58c0,2.5-0.61,27.28-0.61,27.95" style="fill:none;stroke:#999;stroke-width:3" />
<path d="M2107.76,61.18c4.49,0,29.5-2.63,34.55-2.63" style="fill:none;stroke:#999;stroke-width:3" />
<path d="M2108.01,70.72c8.24-0.72,24.74-2.47,33.92-2.97" style="fill:none;stroke:#999;stroke-width:3" />
<path d="M2107.87,80.71C2115.75,80 2133.5,78 2142.33,77.37" style="fill:none;stroke:#999;stroke-width:3" />
<path d="M2115.91,82.98c0.07,0.45,0.15,1.15-0.14,1.79c-1.74,3.78-10.9,12.79-25.37,17.14" style="fill:none;stroke:#999;stroke-width:3" />
<path d="M2127.9,81.48c0.66,0.77,1.18,1.68,1.21,2.87c0.18,5.3,0.03-0.33,0.03,7.43c0,7.77,5.5,7.64,16.38,7.46s14.21-1.09,15.42-1.7c2.55-1.29,1.85-1.94,2.08-4.21" style="fill:none;stroke:black;stroke-width:3" />
<circle cx="2127.9" cy="81.48" r="5" stroke-width="0" fill="#FF2A00" opacity="0.7" />
</svg>