<!-- 08a54 -->
<svg width="1308px" height="109px" viewBox="0 0 1308px 109px" xmlns="http://www.w3.org/2000/svg" xmlns:xlink="http://www.w3.org/1999/xlink" xml:space="preserve" version="1.1"  baseProfile="full">
<line x1="1" y1="1" x2="1307" y2="1" style="stroke:#ddd;stroke-width:2" />
<line x1="1" y1="1" x2="1" y2="108" style="stroke:#ddd;stroke-width:2" />
<line x1="1" y1="108" x2="1307" y2="108" style="stroke:#ddd;stroke-width:2" />
<line x1="1307" y1="1" x2="1307" y2="108" style="stroke:#ddd;stroke-width:2" />
<line x1="109" y1="1" x2="109" y2="108" style="stroke:#ddd;stroke-width:2" />
<line x1="218" y1="1" x2="218" y2="108" style="stroke:#ddd;stroke-width:2" />
<line x1="327" y1="1" x2="327" y2="108" style="stroke:#ddd;stroke-width:2" />
<line x1="436" y1="1" x2="436" y2="108" style="stroke:#ddd;stroke-width:2" />
<line x1="545" y1="1" x2="545" y2="108" style="stroke:#ddd;stroke-width:2" />
<line x1="654" y1="1" x2="654" y2="108" style="stroke:#ddd;stroke-width:2" />
<line x1="763" y1="1" x2="763" y2="108" style="stroke:#ddd;stroke-width:2" />
<line x1="872" y1="1" x2="872" y2="108" style="stroke:#ddd;stroke-width:2" />
<line x1="981" y1="1" x2="981" y2="108" style="stroke:#ddd;stroke-width:2" />
<line x1="1090" y1="1" x2="1090" y2="108" style="stroke:#ddd;stroke-width:2" />
<line x1="1199" y1="1" x2="1199" y2="108" style="stroke:#ddd;stroke-width:2" />
<line x1="1" y1="54" x2="1307" y2="54" style="stroke:#ddd;stroke-width:2;stroke-dasharray:3 3" />
<line x1="55" y1="1" x2="55" y2="108" style="stroke:#ddd;stroke-width:2;stroke-dasharray:3 3" />
<line x1="164" y1="1" x2="164" y2="108" style="stroke:#ddd;stroke-width:2;stroke-dasharray:3 3" />
<line x1="273" y1="1" x2="273" y2="108" style="stroke:#ddd;stroke-width:2;stroke-dasharray:3 3" />
<line x1="382" y1="1" x2="382" y2="108" style="stroke:#ddd;stroke-width:2;stroke-dasharray:3 3" />
<line x1="491" y1="1" x2="491" y2="108" style="stroke:#ddd;stroke-width:2;stroke-dasharray:3 3" />
<line x1="600" y1="1" x2="600" y2="108" style="stroke:#ddd;stroke-width:2;stroke-dasharray:3 3" />
<line x1="709" y1="1" x2="709" y2="108" style="stroke:#ddd;stroke-width:2;stroke-dasharray:3 3" />
<line x1="818" y1="1" x2="818" y2="108" style="stroke:#ddd;stroke-width:2;stroke-dasharray:3 3" />
<line x1="927" y1="1" x2="927" y2="108" style="stroke:#ddd;stroke-width:2;stroke-dasharray:3 3" />
<line x1="1036" y1="1" x2="1036" y2="108" style="stroke:#ddd;stroke-width:2;stroke-dasharray:3 3" />
<line x1="1145" y1="1" x2="1145" y2="108" style="stroke:#ddd;stroke-width:2;stroke-dasharray:3 3" />
<line x1="1254" y1="1" x2="1254" y2="108" style="stroke:#ddd;stroke-width:2;stroke-dasharray:3 3" />
<path d="M23.62,14.5c3.29,1.77,8.49,7.25,9.31,10" style="fill:none;stroke:black;stroke-width:3" />
<circle cx="23.62" cy="14.5" r="5" stroke-width="0" fill="#FF2A00" opacity="0.7" />
<path d="M132.62,14.5c3.29,1.77,8.49,7.25,9.31,10" style="fill:none;stroke:#999;stroke-width:3" />
<path d="M120.62,34.33c1.67,0.55,3.92,0.61,5.63,0.39c7.5-0.97,17.07-2.52,22.31-3.28c1.17-0.17,2.95-0.14,3.54-0.02" style="fill:none;stroke:black;stroke-width:3" />
<circle cx="120.62" cy="34.33" r="5" stroke-width="0" fill="#FF2A00" opacity="0.7" />
<path d="M241.62,14.5c3.29,1.77,8.49,7.25,9.31,10" style="fill:none;stroke:#999;stroke-width:3" />
<path d="M229.62,34.33c1.67,0.55,3.92,0.61,5.63,0.39c7.5-0.97,17.07-2.52,22.31-3.28c1.17-0.17,2.95-0.14,3.54-0.02" style="fill:none;stroke:#999;stroke-width:3" />
<path d="M237.68,46.81c1.14,0.34,2.68,0.23,3.83,0.01c4.37-0.83,8.32-1.45,11.24-2.05c1.31-0.27,2.93-0.52,4.26-0.28" style="fill:none;stroke:black;stroke-width:3" />
<circle cx="237.68" cy="46.81" r="5" stroke-width="0" fill="#FF2A00" opacity="0.7" />
<path d="M350.62,14.5c3.29,1.77,8.49,7.25,9.31,10" style="fill:none;stroke:#999;stroke-width:3" />
<path d="M338.62,34.33c1.67,0.55,3.92,0.61,5.63,0.39c7.5-0.97,17.07-2.52,22.31-3.28c1.17-0.17,2.95-0.14,3.54-0.02" style="fill:none;stroke:#999;stroke-width:3" />
<path d="M346.68,46.81c1.14,0.34,2.68,0.23,3.83,0.01c4.37-0.83,8.32-1.45,11.24-2.05c1.31-0.27,2.93-0.52,4.26-0.28" style="fill:none;stroke:#999;stroke-width:3" />
<path d="M346.8,58.83c1.08,0.33,2.71,0.22,3.84,0.08c4.24-0.54,8.7-1.19,11.27-1.69c1.23-0.24,2.69-0.48,3.93-0.25" style="fill:none;stroke:black;stroke-width:3" />
<circle cx="346.8" cy="58.83" r="5" stroke-width="0" fill="#FF2A00" opacity="0.7" />
<path d="M459.62,14.5c3.29,1.77,8.49,7.25,9.31,10" style="fill:none;stroke:#999;stroke-width:3" />
<path d="M447.62,34.33c1.67,0.55,3.92,0.61,5.63,0.39c7.5-0.97,17.07-2.52,22.31-3.28c1.17-0.17,2.95-0.14,3.54-0.02" style="fill:none;stroke:#999;stroke-width:3" />
<path d="M455.68,46.81c1.14,0.34,2.68,0.23,3.83,0.01c4.37-0.83,8.32-1.45,11.24-2.05c1.31-0.27,2.93-0.52,4.26-0.28" style="fill:none;stroke:#999;stroke-width:3" />
<path d="M455.8,58.83c1.08,0.33,2.71,0.22,3.84,0.08c4.24-0.54,8.7-1.19,11.27-1.69c1.23-0.24,2.69-0.48,3.93-0.25" style="fill:none;stroke:#999;stroke-width:3" />
<path d="M452.51,73.65c0.85,0.85,1.37,2.19,1.61,3.32c0.71,3.31,1.42,8.14,2.32,12.99c0.34,1.82,0.65,3.55,0.92,5.03" style="fill:none;stroke:black;stroke-width:3" />
<circle cx="452.51" cy="73.65" r="5" stroke-width="0" fill="#FF2A00" opacity="0.7" />
<path d="M568.62,14.5c3.29,1.77,8.49,7.25,9.31,10" style="fill:none;stroke:#999;stroke-width:3" />
<path d="M556.62,34.33c1.67,0.55,3.92,0.61,5.63,0.39c7.5-0.97,17.07-2.52,22.31-3.28c1.17-0.17,2.95-0.14,3.54-0.02" style="fill:none;stroke:#999;stroke-width:3" />
<path d="M564.6800000000001,46.81c1.14,0.34,2.68,0.23,3.83,0.01c4.37-0.83,8.32-1.45,11.24-2.05c1.31-0.27,2.93-0.52,4.26-0.28" style="fill:none;stroke:#999;stroke-width:3" />
<path d="M564.8,58.83c1.08,0.33,2.71,0.22,3.84,0.08c4.24-0.54,8.7-1.19,11.27-1.69c1.23-0.24,2.69-0.48,3.93-0.25" style="fill:none;stroke:#999;stroke-width:3" />
<path d="M561.51,73.65c0.85,0.85,1.37,2.19,1.61,3.32c0.71,3.31,1.42,8.14,2.32,12.99c0.34,1.82,0.65,3.55,0.92,5.03" style="fill:none;stroke:#999;stroke-width:3" />
<path d="M563.69,74.62c7.88-1.52,11.82-2.36,17.09-3.15c3.15-0.47,5.39-0.48,4.52,3.32c-0.85,3.75-1.71,7.5-3.25,13.67" style="fill:none;stroke:black;stroke-width:3" />
<circle cx="563.69" cy="74.62" r="5" stroke-width="0" fill="#FF2A00" opacity="0.7" />
<path d="M677.62,14.5c3.29,1.77,8.49,7.25,9.31,10" style="fill:none;stroke:#999;stroke-width:3" />
<path d="M665.62,34.33c1.67,0.55,3.92,0.61,5.63,0.39c7.5-0.97,17.07-2.52,22.31-3.28c1.17-0.17,2.95-0.14,3.54-0.02" style="fill:none;stroke:#999;stroke-width:3" />
<path d="M673.6800000000001,46.81c1.14,0.34,2.68,0.23,3.83,0.01c4.37-0.83,8.32-1.45,11.24-2.05c1.31-0.27,2.93-0.52,4.26-0.28" style="fill:none;stroke:#999;stroke-width:3" />
<path d="M673.8,58.83c1.08,0.33,2.71,0.22,3.84,0.08c4.24-0.54,8.7-1.19,11.27-1.69c1.23-0.24,2.69-0.48,3.93-0.25" style="fill:none;stroke:#999;stroke-width:3" />
<path d="M670.51,73.65c0.85,0.85,1.37,2.19,1.61,3.32c0.71,3.31,1.42,8.14,2.32,12.99c0.34,1.82,0.65,3.55,0.92,5.03" style="fill:none;stroke:#999;stroke-width:3" />
<path d="M672.69,74.62c7.88-1.52,11.82-2.36,17.09-3.15c3.15-0.47,5.39-0.48,4.52,3.32c-0.85,3.75-1.71,7.5-3.25,13.67" style="fill:none;stroke:#999;stroke-width:3" />
<path d="M675.92,91.3c4.43-0.45,7.81-0.82,13.35-1.4c1.18-0.12,2.41-0.01,3.71-0.15" style="fill:none;stroke:black;stroke-width:3" />
<circle cx="675.92" cy="91.3" r="5" stroke-width="0" fill="#FF2A00" opacity="0.7" />
<path d="M786.62,14.5c3.29,1.77,8.49,7.25,9.31,10" style="fill:none;stroke:#999;stroke-width:3" />
<path d="M774.62,34.33c1.67,0.55,3.92,0.61,5.63,0.39c7.5-0.97,17.07-2.52,22.31-3.28c1.17-0.17,2.95-0.14,3.54-0.02" style="fill:none;stroke:#999;stroke-width:3" />
<path d="M782.6800000000001,46.81c1.14,0.34,2.68,0.23,3.83,0.01c4.37-0.83,8.32-1.45,11.24-2.05c1.31-0.27,2.93-0.52,4.26-0.28" style="fill:none;stroke:#999;stroke-width:3" />
<path d="M782.8,58.83c1.08,0.33,2.71,0.22,3.84,0.08c4.24-0.54,8.7-1.19,11.27-1.69c1.23-0.24,2.69-0.48,3.93-0.25" style="fill:none;stroke:#999;stroke-width:3" />
<path d="M779.51,73.65c0.85,0.85,1.37,2.19,1.61,3.32c0.71,3.31,1.42,8.14,2.32,12.99c0.34,1.82,0.65,3.55,0.92,5.03" style="fill:none;stroke:#999;stroke-width:3" />
<path d="M781.69,74.62c7.88-1.52,11.82-2.36,17.09-3.15c3.15-0.47,5.39-0.48,4.52,3.32c-0.85,3.75-1.71,7.5-3.25,13.67" style="fill:none;stroke:#999;stroke-width:3" />
<path d="M784.92,91.3c4.43-0.45,7.81-0.82,13.35-1.4c1.18-0.12,2.41-0.01,3.71-0.15" style="fill:none;stroke:#999;stroke-width:3" />
<path d="M814.56,25.55c2.69,0.7,5.81,0.55,7.82,0.3c9.42-1.16,23.19-3.3,27.72-3.63c3.36-0.25,5.06,1.15,4.5,4.72c-0.9,5.69-4.81,18.65-9.88,26.18c-4.35,6.48-7.08-0.88-7.83-1.76" style="fill:none;stroke:black;stroke-width:3" />
<circle cx="814.56" cy="25.55" r="5" stroke-width="0" fill="#FF2A00" opacity="0.7" />
<path d="M895.62,14.5c3.29,1.77,8.49,7.25,9.31,10" style="fill:none;stroke:#999;stroke-width:3" />
<path d="M883.62,34.33c1.67,0.55,3.92,0.61,5.63,0.39c7.5-0.97,17.07-2.52,22.31-3.28c1.17-0.17,2.95-0.14,3.54-0.02" style="fill:none;stroke:#999;stroke-width:3" />
<path d="M891.6800000000001,46.81c1.14,0.34,2.68,0.23,3.83,0.01c4.37-0.83,8.32-1.45,11.24-2.05c1.31-0.27,2.93-0.52,4.26-0.28" style="fill:none;stroke:#999;stroke-width:3" />
<path d="M891.8,58.83c1.08,0.33,2.71,0.22,3.84,0.08c4.24-0.54,8.7-1.19,11.27-1.69c1.23-0.24,2.69-0.48,3.93-0.25" style="fill:none;stroke:#999;stroke-width:3" />
<path d="M888.51,73.65c0.85,0.85,1.37,2.19,1.61,3.32c0.71,3.31,1.42,8.14,2.32,12.99c0.34,1.82,0.65,3.55,0.92,5.03" style="fill:none;stroke:#999;stroke-width:3" />
<path d="M890.69,74.62c7.88-1.52,11.82-2.36,17.09-3.15c3.15-0.47,5.39-0.48,4.52,3.32c-0.85,3.75-1.71,7.5-3.25,13.67" style="fill:none;stroke:#999;stroke-width:3" />
<path d="M893.92,91.3c4.43-0.45,7.81-0.82,13.35-1.4c1.18-0.12,2.41-0.01,3.71-0.15" style="fill:none;stroke:#999;stroke-width:3" />
<path d="M923.56,25.55c2.69,0.7,5.81,0.55,7.82,0.3c9.42-1.16,23.19-3.3,27.72-3.63c3.36-0.25,5.06,1.15,4.5,4.72c-0.9,5.69-4.81,18.65-9.88,26.18c-4.35,6.48-7.08-0.88-7.83-1.76" style="fill:none;stroke:#999;stroke-width:3" />
<path d="M941.04,28.11c0.06,0.72,0,1.64-0.38,2.66C937.5,39.5 932.21,50.41 919.6,59.65" style="fill:none;stroke:black;stroke-width:3" />
<circle cx="941.04" cy="28.11" r="5" stroke-width="0" fill="#FF2A00" opacity="0.7" />
<path d="M1004.62,14.5c3.29,1.77,8.49,7.25,9.31,10" style="fill:none;stroke:#999;stroke-width:3" />
<path d="M992.62,34.33c1.67,0.55,3.92,0.61,5.63,0.39c7.5-0.97,17.07-2.52,22.31-3.28c1.17-0.17,2.95-0.14,3.54-0.02" style="fill:none;stroke:#999;stroke-width:3" />
<path d="M1000.6800000000001,46.81c1.14,0.34,2.68,0.23,3.83,0.01c4.37-0.83,8.32-1.45,11.24-2.05c1.31-0.27,2.93-0.52,4.26-0.28" style="fill:none;stroke:#999;stroke-width:3" />
<path d="M1000.8,58.83c1.08,0.33,2.71,0.22,3.84,0.08c4.24-0.54,8.7-1.19,11.27-1.69c1.23-0.24,2.69-0.48,3.93-0.25" style="fill:none;stroke:#999;stroke-width:3" />
<path d="M997.51,73.65c0.85,0.85,1.37,2.19,1.61,3.32c0.71,3.31,1.42,8.14,2.32,12.99c0.34,1.82,0.65,3.55,0.92,5.03" style="fill:none;stroke:#999;stroke-width:3" />
<path d="M999.69,74.62c7.88-1.52,11.82-2.36,17.09-3.15c3.15-0.47,5.39-0.48,4.52,3.32c-0.85,3.75-1.71,7.5-3.25,13.67" style="fill:none;stroke:#999;stroke-width:3" />
<path d="M1002.92,91.3c4.43-0.45,7.81-0.82,13.35-1.4c1.18-0.12,2.41-0.01,3.71-0.15" style="fill:none;stroke:#999;stroke-width:3" />
<path d="M1032.56,25.55c2.69,0.7,5.81,0.55,7.82,0.3c9.42-1.16,23.19-3.3,27.72-3.63c3.36-0.25,5.06,1.15,4.5,4.72c-0.9,5.69-4.81,18.65-9.88,26.18c-4.35,6.48-7.08-0.88-7.83-1.76" style="fill:none;stroke:#999;stroke-width:3" />
<path d="M1050.04,28.11c0.06,0.72,0,1.64-0.38,2.66C1046.5,39.5 1041.21,50.41 1028.6,59.65" style="fill:none;stroke:#999;stroke-width:3" />
<path d="M1032.64,67.44c0.93,0.99,1.09,1.78,1.36,3.04c0.9,4.16,1.94,12.16,2.63,18.3c0.21,1.87,0.4,3.58,0.58,4.97" style="fill:none;stroke:black;stroke-width:3" />
<circle cx="1032.64" cy="67.44" r="5" stroke-width="0" fill="#FF2A00" opacity="0.7" />
<path d="M1113.62,14.5c3.29,1.77,8.49,7.25,9.31,10" style="fill:none;stroke:#999;stroke-width:3" />
<path d="M1101.62,34.33c1.67,0.55,3.92,0.61,5.63,0.39c7.5-0.97,17.07-2.52,22.31-3.28c1.17-0.17,2.95-0.14,3.54-0.02" style="fill:none;stroke:#999;stroke-width:3" />
<path d="M1109.68,46.81c1.14,0.34,2.68,0.23,3.83,0.01c4.37-0.83,8.32-1.45,11.24-2.05c1.31-0.27,2.93-0.52,4.26-0.28" style="fill:none;stroke:#999;stroke-width:3" />
<path d="M1109.8,58.83c1.08,0.33,2.71,0.22,3.84,0.08c4.24-0.54,8.7-1.19,11.27-1.69c1.23-0.24,2.69-0.48,3.93-0.25" style="fill:none;stroke:#999;stroke-width:3" />
<path d="M1106.51,73.65c0.85,0.85,1.37,2.19,1.61,3.32c0.71,3.31,1.42,8.14,2.32,12.99c0.34,1.82,0.65,3.55,0.92,5.03" style="fill:none;stroke:#999;stroke-width:3" />
<path d="M1108.69,74.62c7.88-1.52,11.82-2.36,17.09-3.15c3.15-0.47,5.39-0.48,4.52,3.32c-0.85,3.75-1.71,7.5-3.25,13.67" style="fill:none;stroke:#999;stroke-width:3" />
<path d="M1111.92,91.3c4.43-0.45,7.81-0.82,13.35-1.4c1.18-0.12,2.41-0.01,3.71-0.15" style="fill:none;stroke:#999;stroke-width:3" />
<path d="M1141.56,25.55c2.69,0.7,5.81,0.55,7.82,0.3c9.42-1.16,23.19-3.3,27.72-3.63c3.36-0.25,5.06,1.15,4.5,4.72c-0.9,5.69-4.81,18.65-9.88,26.18c-4.35,6.48-7.08-0.88-7.83-1.76" style="fill:none;stroke:#999;stroke-width:3" />
<path d="M1159.04,28.11c0.06,0.72,0,1.64-0.38,2.66C1155.5,39.5 1150.21,50.41 1137.6,59.65" style="fill:none;stroke:#999;stroke-width:3" />
<path d="M1141.64,67.44c0.93,0.99,1.09,1.78,1.36,3.04c0.9,4.16,1.94,12.16,2.63,18.3c0.21,1.87,0.4,3.58,0.58,4.97" style="fill:none;stroke:#999;stroke-width:3" />
<path d="M1143.87,68.73c8.28-1.25,24.22-3.15,30.9-3.46c3.11-0.14,4.98,1.48,4.14,4.8c-1.11,4.39-2.91,9.68-4.75,16.54" style="fill:none;stroke:black;stroke-width:3" />
<circle cx="1143.87" cy="68.73" r="5" stroke-width="0" fill="#FF2A00" opacity="0.7" />
<path d="M1222.62,14.5c3.29,1.77,8.49,7.25,9.31,10" style="fill:none;stroke:#999;stroke-width:3" />
<path d="M1210.62,34.33c1.67,0.55,3.92,0.61,5.63,0.39c7.5-0.97,17.07-2.52,22.31-3.28c1.17-0.17,2.95-0.14,3.54-0.02" style="fill:none;stroke:#999;stroke-width:3" />
<path d="M1218.68,46.81c1.14,0.34,2.68,0.23,3.83,0.01c4.37-0.83,8.32-1.45,11.24-2.05c1.31-0.27,2.93-0.52,4.26-0.28" style="fill:none;stroke:#999;stroke-width:3" />
<path d="M1218.8,58.83c1.08,0.33,2.71,0.22,3.84,0.08c4.24-0.54,8.7-1.19,11.27-1.69c1.23-0.24,2.69-0.48,3.93-0.25" style="fill:none;stroke:#999;stroke-width:3" />
<path d="M1215.51,73.65c0.85,0.85,1.37,2.19,1.61,3.32c0.71,3.31,1.42,8.14,2.32,12.99c0.34,1.82,0.65,3.55,0.92,5.03" style="fill:none;stroke:#999;stroke-width:3" />
<path d="M1217.69,74.62c7.88-1.52,11.82-2.36,17.09-3.15c3.15-0.47,5.39-0.48,4.52,3.32c-0.85,3.75-1.71,7.5-3.25,13.67" style="fill:none;stroke:#999;stroke-width:3" />
<path d="M1220.92,91.3c4.43-0.45,7.81-0.82,13.35-1.4c1.18-0.12,2.41-0.01,3.71-0.15" style="fill:none;stroke:#999;stroke-width:3" />
<path d="M1250.56,25.55c2.69,0.7,5.81,0.55,7.82,0.3c9.42-1.16,23.19-3.3,27.72-3.63c3.36-0.25,5.06,1.15,4.5,4.72c-0.9,5.69-4.81,18.65-9.88,26.18c-4.35,6.48-7.08-0.88-7.83-1.76" style="fill:none;stroke:#999;stroke-width:3" />
<path d="M1268.04,28.11c0.06,0.72,0,1.64-0.38,2.66C1264.5,39.5 1259.21,50.41 1246.6,59.65" style="fill:none;stroke:#999;stroke-width:3" />
<path d="M1250.64,67.44c0.93,0.99,1.09,1.78,1.36,3.04c0.9,4.16,1.94,12.16,2.63,18.3c0.21,1.87,0.4,3.58,0.58,4.97" style="fill:none;stroke:#999;stroke-width:3" />
<path d="M1252.87,68.73c8.28-1.25,24.22-3.15,30.9-3.46c3.11-0.14,4.98,1.48,4.14,4.8c-1.11,4.39-2.91,9.68-4.75,16.54" style="fill:none;stroke:#999;stroke-width:3" />
<path d="M1255.87,89.41c5.41-0.27,16.57-0.99,25.63-1.51c1.65-0.09,3.23-0.17,4.69-0.23" style="fill:none;stroke:black;stroke-width:3" />
<circle cx="1255.87" cy="89.41" r="5" stroke-width="0" fill="#FF2A00" opacity="0.7" />
</svg>