<!-- 08a73 -->
<svg width="1417px" height="109px" viewBox="0 0 1417px 109px" xmlns="http://www.w3.org/2000/svg" xmlns:xlink="http://www.w3.org/1999/xlink" xml:space="preserve" version="1.1"  baseProfile="full">
<line x1="1" y1="1" x2="1416" y2="1" style="stroke:#ddd;stroke-width:2" />
<line x1="1" y1="1" x2="1" y2="108" style="stroke:#ddd;stroke-width:2" />
<line x1="1" y1="108" x2="1416" y2="108" style="stroke:#ddd;stroke-width:2" />
<line x1="1416" y1="1" x2="1416" y2="108" style="stroke:#ddd;stroke-width:2" />
<line x1="109" y1="1" x2="109" y2="108" style="stroke:#ddd;stroke-width:2" />
<line x1="218" y1="1" x2="218" y2="108" style="stroke:#ddd;stroke-width:2" />
<line x1="327" y1="1" x2="327" y2="108" style="stroke:#ddd;stroke-width:2" />
<line x1="436" y1="1" x2="436" y2="108" style="stroke:#ddd;stroke-width:2" />
<line x1="545" y1="1" x2="545" y2="108" style="stroke:#ddd;stroke-width:2" />
<line x1="654" y1="1" x2="654" y2="108" style="stroke:#ddd;stroke-width:2" />
<line x1="763" y1="1" x2="763" y2="108" style="stroke:#ddd;stroke-width:2" />
<line x1="872" y1="1" x2="872" y2="108" style="stroke:#ddd;stroke-width:2" />
<line x1="981" y1="1" x2="981" y2="108" style="stroke:#ddd;stroke-width:2" />
<line x1="1090" y1="1" x2="1090" y2="108" style="stroke:#ddd;stroke-width:2" />
<line x1="1199" y1="1" x2="1199" y2="108" style="stroke:#ddd;stroke-width:2" />
<line x1="1308" y1="1" x2="1308" y2="108" style="stroke:#ddd;stroke-width:2" />
<line x1="1" y1="54" x2="1416" y2="54" style="stroke:#ddd;stroke-width:2;stroke-dasharray:3 3" />
<line x1="55" y1="1" x2="55" y2="108" style="stroke:#ddd;stroke-width:2;stroke-dasharray:3 3" />
<line x1="164" y1="1" x2="164" y2="108" style="stroke:#ddd;stroke-width:2;stroke-dasharray:3 3" />
<line x1="273" y1="1" x2="273" y2="108" style="stroke:#ddd;stroke-width:2;stroke-dasharray:3 3" />
<line x1="382" y1="1" x2="382" y2="108" style="stroke:#ddd;stroke-width:2;stroke-dasharray:3 3" />
<line x1="491" y1="1" x2="491" y2="108" style="stroke:#ddd;stroke-width:2;stroke-dasharray:3 3" />
<line x1="600" y1="1" x2="600" y2="108" style="stroke:#ddd;stroke-width:2;stroke-dasharray:3 3" />
<line x1="709" y1="1" x2="709" y2="108" style="stroke:#ddd;stroke-width:2;stroke-dasharray:3 3" />
<line x1="818" y1="1" x2="818" y2="108" style="stroke:#ddd;stroke-width:2;stroke-dasharray:3 3" />
<line x1="927" y1="1" x2="927" y2="108" style="stroke:#ddd;stroke-width:2;stroke-dasharray:3 3" />
<line x1="1036" y1="1" x2="1036" y2="108" style="stroke:#ddd;stroke-width:2;stroke-dasharray:3 3" />
<line x1="1145" y1="1" x2="1145" y2="108" style="stroke:#ddd;stroke-width:2;stroke-dasharray:3 3" />
<line x1="1254" y1="1" x2="1254" y2="108" style="stroke:#ddd;stroke-width:2;stroke-dasharray:3 3" />
<line x1="1363" y1="1" x2="1363" y2="108" style="stroke:#ddd;stroke-width:2;stroke-dasharray:3 3" />
<path d="M27.55,13c2.78,1.37,7.18,5.62,7.88,7.75" style="fill:none;stroke:black;stroke-width:3" />
<circle cx="27.55" cy="13.0" r="5" stroke-width="0" fill="#FF2A00" opacity="0.7" />
<path d="M136.55,13c2.78,1.37,7.18,5.62,7.88,7.75" style="fill:none;stroke:#999;stroke-width:3" />
<path d="M121.12,31.52c2.63,0.36,5.01,0.5,7.26,0.27c9.52-1,16.91-2.25,24.61-3.32c1.36-0.19,3.42-0.12,4.1,0.02" style="fill:none;stroke:black;stroke-width:3" />
<circle cx="121.12" cy="31.52" r="5" stroke-width="0" fill="#FF2A00" opacity="0.7" />
<path d="M245.55,13c2.78,1.37,7.18,5.62,7.88,7.75" style="fill:none;stroke:#999;stroke-width:3" />
<path d="M230.12,31.52c2.63,0.36,5.01,0.5,7.26,0.27c9.52-1,16.91-2.25,24.61-3.32c1.36-0.19,3.42-0.12,4.1,0.02" style="fill:none;stroke:#999;stroke-width:3" />
<path d="M239.43,43.31c1.29,0.37,3,0.16,4.33,0.08c3.93-0.24,7.93-1.03,11.89-1.64c1.44-0.22,3.18-0.5,4.62-0.25" style="fill:none;stroke:black;stroke-width:3" />
<circle cx="239.43" cy="43.31" r="5" stroke-width="0" fill="#FF2A00" opacity="0.7" />
<path d="M354.55,13c2.78,1.37,7.18,5.62,7.88,7.75" style="fill:none;stroke:#999;stroke-width:3" />
<path d="M339.12,31.52c2.63,0.36,5.01,0.5,7.26,0.27c9.52-1,16.91-2.25,24.61-3.32c1.36-0.19,3.42-0.12,4.1,0.02" style="fill:none;stroke:#999;stroke-width:3" />
<path d="M348.43,43.31c1.29,0.37,3,0.16,4.33,0.08c3.93-0.24,7.93-1.03,11.89-1.64c1.44-0.22,3.18-0.5,4.62-0.25" style="fill:none;stroke:#999;stroke-width:3" />
<path d="M348.3,56.08c1.18,0.36,2.87,0.17,4.09,0.05c3.67-0.35,8.78-1.59,12.88-2.16c1.26-0.17,2.81-0.48,4.07-0.26" style="fill:none;stroke:black;stroke-width:3" />
<circle cx="348.3" cy="56.08" r="5" stroke-width="0" fill="#FF2A00" opacity="0.7" />
<path d="M463.55,13c2.78,1.37,7.18,5.62,7.88,7.75" style="fill:none;stroke:#999;stroke-width:3" />
<path d="M448.12,31.52c2.63,0.36,5.01,0.5,7.26,0.27c9.52-1,16.91-2.25,24.61-3.32c1.36-0.19,3.42-0.12,4.1,0.02" style="fill:none;stroke:#999;stroke-width:3" />
<path d="M457.43,43.31c1.29,0.37,3,0.16,4.33,0.08c3.93-0.24,7.93-1.03,11.89-1.64c1.44-0.22,3.18-0.5,4.62-0.25" style="fill:none;stroke:#999;stroke-width:3" />
<path d="M457.3,56.08c1.18,0.36,2.87,0.17,4.09,0.05c3.67-0.35,8.78-1.59,12.88-2.16c1.26-0.17,2.81-0.48,4.07-0.26" style="fill:none;stroke:#999;stroke-width:3" />
<path d="M455.51,70.05c0.83,0.79,1.03,2.02,1.29,3.06c0.85,3.33,2.09,8.46,2.96,13.1c0.29,1.54,0.56,3,0.79,4.29" style="fill:none;stroke:black;stroke-width:3" />
<circle cx="455.51" cy="70.05" r="5" stroke-width="0" fill="#FF2A00" opacity="0.7" />
<path d="M572.55,13c2.78,1.37,7.18,5.62,7.88,7.75" style="fill:none;stroke:#999;stroke-width:3" />
<path d="M557.12,31.52c2.63,0.36,5.01,0.5,7.26,0.27c9.52-1,16.91-2.25,24.61-3.32c1.36-0.19,3.42-0.12,4.1,0.02" style="fill:none;stroke:#999;stroke-width:3" />
<path d="M566.4300000000001,43.31c1.29,0.37,3,0.16,4.33,0.08c3.93-0.24,7.93-1.03,11.89-1.64c1.44-0.22,3.18-0.5,4.62-0.25" style="fill:none;stroke:#999;stroke-width:3" />
<path d="M566.3,56.08c1.18,0.36,2.87,0.17,4.09,0.05c3.67-0.35,8.78-1.59,12.88-2.16c1.26-0.17,2.81-0.48,4.07-0.26" style="fill:none;stroke:#999;stroke-width:3" />
<path d="M564.51,70.05c0.83,0.79,1.03,2.02,1.29,3.06c0.85,3.33,2.09,8.46,2.96,13.1c0.29,1.54,0.56,3,0.79,4.29" style="fill:none;stroke:#999;stroke-width:3" />
<path d="M566.36,71.19c6.8-1.19,12.06-2.54,17.53-3.33c2.91-0.42,4.38-0.02,3.74,3.11c-0.73,3.54-1.42,7.4-2.88,13.33" style="fill:none;stroke:black;stroke-width:3" />
<circle cx="566.36" cy="71.19" r="5" stroke-width="0" fill="#FF2A00" opacity="0.7" />
<path d="M681.55,13c2.78,1.37,7.18,5.62,7.88,7.75" style="fill:none;stroke:#999;stroke-width:3" />
<path d="M666.12,31.52c2.63,0.36,5.01,0.5,7.26,0.27c9.52-1,16.91-2.25,24.61-3.32c1.36-0.19,3.42-0.12,4.1,0.02" style="fill:none;stroke:#999;stroke-width:3" />
<path d="M675.4300000000001,43.31c1.29,0.37,3,0.16,4.33,0.08c3.93-0.24,7.93-1.03,11.89-1.64c1.44-0.22,3.18-0.5,4.62-0.25" style="fill:none;stroke:#999;stroke-width:3" />
<path d="M675.3,56.08c1.18,0.36,2.87,0.17,4.09,0.05c3.67-0.35,8.78-1.59,12.88-2.16c1.26-0.17,2.81-0.48,4.07-0.26" style="fill:none;stroke:#999;stroke-width:3" />
<path d="M673.51,70.05c0.83,0.79,1.03,2.02,1.29,3.06c0.85,3.33,2.09,8.46,2.96,13.1c0.29,1.54,0.56,3,0.79,4.29" style="fill:none;stroke:#999;stroke-width:3" />
<path d="M675.36,71.19c6.8-1.19,12.06-2.54,17.53-3.33c2.91-0.42,4.38-0.02,3.74,3.11c-0.73,3.54-1.42,7.4-2.88,13.33" style="fill:none;stroke:#999;stroke-width:3" />
<path d="M678.85,86.74c4.22-0.43,8.49-0.79,13.9-1.35c1.23-0.13,2.25-0.13,3.32-0.11" style="fill:none;stroke:black;stroke-width:3" />
<circle cx="678.85" cy="86.74" r="5" stroke-width="0" fill="#FF2A00" opacity="0.7" />
<path d="M790.55,13c2.78,1.37,7.18,5.62,7.88,7.75" style="fill:none;stroke:#999;stroke-width:3" />
<path d="M775.12,31.52c2.63,0.36,5.01,0.5,7.26,0.27c9.52-1,16.91-2.25,24.61-3.32c1.36-0.19,3.42-0.12,4.1,0.02" style="fill:none;stroke:#999;stroke-width:3" />
<path d="M784.4300000000001,43.31c1.29,0.37,3,0.16,4.33,0.08c3.93-0.24,7.93-1.03,11.89-1.64c1.44-0.22,3.18-0.5,4.62-0.25" style="fill:none;stroke:#999;stroke-width:3" />
<path d="M784.3,56.08c1.18,0.36,2.87,0.17,4.09,0.05c3.67-0.35,8.78-1.59,12.88-2.16c1.26-0.17,2.81-0.48,4.07-0.26" style="fill:none;stroke:#999;stroke-width:3" />
<path d="M782.51,70.05c0.83,0.79,1.03,2.02,1.29,3.06c0.85,3.33,2.09,8.46,2.96,13.1c0.29,1.54,0.56,3,0.79,4.29" style="fill:none;stroke:#999;stroke-width:3" />
<path d="M784.36,71.19c6.8-1.19,12.06-2.54,17.53-3.33c2.91-0.42,4.38-0.02,3.74,3.11c-0.73,3.54-1.42,7.4-2.88,13.33" style="fill:none;stroke:#999;stroke-width:3" />
<path d="M787.85,86.74c4.22-0.43,8.49-0.79,13.9-1.35c1.23-0.13,2.25-0.13,3.32-0.11" style="fill:none;stroke:#999;stroke-width:3" />
<path d="M816.92,17.46c3.46,2.16,8.95,8.86,9.81,12.22" style="fill:none;stroke:black;stroke-width:3" />
<circle cx="816.92" cy="17.46" r="5" stroke-width="0" fill="#FF2A00" opacity="0.7" />
<path d="M899.55,13c2.78,1.37,7.18,5.62,7.88,7.75" style="fill:none;stroke:#999;stroke-width:3" />
<path d="M884.12,31.52c2.63,0.36,5.01,0.5,7.26,0.27c9.52-1,16.91-2.25,24.61-3.32c1.36-0.19,3.42-0.12,4.1,0.02" style="fill:none;stroke:#999;stroke-width:3" />
<path d="M893.4300000000001,43.31c1.29,0.37,3,0.16,4.33,0.08c3.93-0.24,7.93-1.03,11.89-1.64c1.44-0.22,3.18-0.5,4.62-0.25" style="fill:none;stroke:#999;stroke-width:3" />
<path d="M893.3,56.08c1.18,0.36,2.87,0.17,4.09,0.05c3.67-0.35,8.78-1.59,12.88-2.16c1.26-0.17,2.81-0.48,4.07-0.26" style="fill:none;stroke:#999;stroke-width:3" />
<path d="M891.51,70.05c0.83,0.79,1.03,2.02,1.29,3.06c0.85,3.33,2.09,8.46,2.96,13.1c0.29,1.54,0.56,3,0.79,4.29" style="fill:none;stroke:#999;stroke-width:3" />
<path d="M893.36,71.19c6.8-1.19,12.06-2.54,17.53-3.33c2.91-0.42,4.38-0.02,3.74,3.11c-0.73,3.54-1.42,7.4-2.88,13.33" style="fill:none;stroke:#999;stroke-width:3" />
<path d="M896.85,86.74c4.22-0.43,8.49-0.79,13.9-1.35c1.23-0.13,2.25-0.13,3.32-0.11" style="fill:none;stroke:#999;stroke-width:3" />
<path d="M925.92,17.46c3.46,2.16,8.95,8.86,9.81,12.22" style="fill:none;stroke:#999;stroke-width:3" />
<path d="M959.04,13.89c0.09,1.08-0.03,1.57-0.57,2.53c-2.44,4.34-5.35,8.95-10.59,14.98" style="fill:none;stroke:black;stroke-width:3" />
<circle cx="959.04" cy="13.89" r="5" stroke-width="0" fill="#FF2A00" opacity="0.7" />
<path d="M1008.55,13c2.78,1.37,7.18,5.62,7.88,7.75" style="fill:none;stroke:#999;stroke-width:3" />
<path d="M993.12,31.52c2.63,0.36,5.01,0.5,7.26,0.27c9.52-1,16.91-2.25,24.61-3.32c1.36-0.19,3.42-0.12,4.1,0.02" style="fill:none;stroke:#999;stroke-width:3" />
<path d="M1002.4300000000001,43.31c1.29,0.37,3,0.16,4.33,0.08c3.93-0.24,7.93-1.03,11.89-1.64c1.44-0.22,3.18-0.5,4.62-0.25" style="fill:none;stroke:#999;stroke-width:3" />
<path d="M1002.3,56.08c1.18,0.36,2.87,0.17,4.09,0.05c3.67-0.35,8.78-1.59,12.88-2.16c1.26-0.17,2.81-0.48,4.07-0.26" style="fill:none;stroke:#999;stroke-width:3" />
<path d="M1000.51,70.05c0.83,0.79,1.03,2.02,1.29,3.06c0.85,3.33,2.09,8.46,2.96,13.1c0.29,1.54,0.56,3,0.79,4.29" style="fill:none;stroke:#999;stroke-width:3" />
<path d="M1002.36,71.19c6.8-1.19,12.06-2.54,17.53-3.33c2.91-0.42,4.38-0.02,3.74,3.11c-0.73,3.54-1.42,7.4-2.88,13.33" style="fill:none;stroke:#999;stroke-width:3" />
<path d="M1005.85,86.74c4.22-0.43,8.49-0.79,13.9-1.35c1.23-0.13,2.25-0.13,3.32-0.11" style="fill:none;stroke:#999;stroke-width:3" />
<path d="M1034.92,17.46c3.46,2.16,8.95,8.86,9.81,12.22" style="fill:none;stroke:#999;stroke-width:3" />
<path d="M1068.04,13.89c0.09,1.08-0.03,1.57-0.57,2.53c-2.44,4.34-5.35,8.95-10.59,14.98" style="fill:none;stroke:#999;stroke-width:3" />
<path d="M1034.04,36.98c2.59,0.39,4.57,0.42,6.33,0.1c9.5-1.71,20.11-3.02,26.39-3.57c1.67-0.15,3.33-0.3,4.96,0.18" style="fill:none;stroke:black;stroke-width:3" />
<circle cx="1034.04" cy="36.98" r="5" stroke-width="0" fill="#FF2A00" opacity="0.7" />
<path d="M1117.55,13c2.78,1.37,7.18,5.62,7.88,7.75" style="fill:none;stroke:#999;stroke-width:3" />
<path d="M1102.12,31.52c2.63,0.36,5.01,0.5,7.26,0.27c9.52-1,16.91-2.25,24.61-3.32c1.36-0.19,3.42-0.12,4.1,0.02" style="fill:none;stroke:#999;stroke-width:3" />
<path d="M1111.43,43.31c1.29,0.37,3,0.16,4.33,0.08c3.93-0.24,7.93-1.03,11.89-1.64c1.44-0.22,3.18-0.5,4.62-0.25" style="fill:none;stroke:#999;stroke-width:3" />
<path d="M1111.3,56.08c1.18,0.36,2.87,0.17,4.09,0.05c3.67-0.35,8.78-1.59,12.88-2.16c1.26-0.17,2.81-0.48,4.07-0.26" style="fill:none;stroke:#999;stroke-width:3" />
<path d="M1109.51,70.05c0.83,0.79,1.03,2.02,1.29,3.06c0.85,3.33,2.09,8.46,2.96,13.1c0.29,1.54,0.56,3,0.79,4.29" style="fill:none;stroke:#999;stroke-width:3" />
<path d="M1111.3600000000001,71.19c6.8-1.19,12.06-2.54,17.53-3.33c2.91-0.42,4.38-0.02,3.74,3.11c-0.73,3.54-1.42,7.4-2.88,13.33" style="fill:none;stroke:#999;stroke-width:3" />
<path d="M1114.85,86.74c4.22-0.43,8.49-0.79,13.9-1.35c1.23-0.13,2.25-0.13,3.32-0.11" style="fill:none;stroke:#999;stroke-width:3" />
<path d="M1143.92,17.46c3.46,2.16,8.95,8.86,9.81,12.22" style="fill:none;stroke:#999;stroke-width:3" />
<path d="M1177.04,13.89c0.09,1.08-0.03,1.57-0.57,2.53c-2.44,4.34-5.35,8.95-10.59,14.98" style="fill:none;stroke:#999;stroke-width:3" />
<path d="M1143.04,36.98c2.59,0.39,4.57,0.42,6.33,0.1c9.5-1.71,20.11-3.02,26.39-3.57c1.67-0.15,3.33-0.3,4.96,0.18" style="fill:none;stroke:#999;stroke-width:3" />
<path d="M1146.02,50.92c2.23,0.45,4.17,0.32,5.73,0.09c6.54-0.96,16.06-2.4,21.5-2.69c1.57-0.08,3.29-0.23,4.81,0.28" style="fill:none;stroke:black;stroke-width:3" />
<circle cx="1146.02" cy="50.92" r="5" stroke-width="0" fill="#FF2A00" opacity="0.7" />
<path d="M1226.55,13c2.78,1.37,7.18,5.62,7.88,7.75" style="fill:none;stroke:#999;stroke-width:3" />
<path d="M1211.12,31.52c2.63,0.36,5.01,0.5,7.26,0.27c9.52-1,16.91-2.25,24.61-3.32c1.36-0.19,3.42-0.12,4.1,0.02" style="fill:none;stroke:#999;stroke-width:3" />
<path d="M1220.43,43.31c1.29,0.37,3,0.16,4.33,0.08c3.93-0.24,7.93-1.03,11.89-1.64c1.44-0.22,3.18-0.5,4.62-0.25" style="fill:none;stroke:#999;stroke-width:3" />
<path d="M1220.3,56.08c1.18,0.36,2.87,0.17,4.09,0.05c3.67-0.35,8.78-1.59,12.88-2.16c1.26-0.17,2.81-0.48,4.07-0.26" style="fill:none;stroke:#999;stroke-width:3" />
<path d="M1218.51,70.05c0.83,0.79,1.03,2.02,1.29,3.06c0.85,3.33,2.09,8.46,2.96,13.1c0.29,1.54,0.56,3,0.79,4.29" style="fill:none;stroke:#999;stroke-width:3" />
<path d="M1220.3600000000001,71.19c6.8-1.19,12.06-2.54,17.53-3.33c2.91-0.42,4.38-0.02,3.74,3.11c-0.73,3.54-1.42,7.4-2.88,13.33" style="fill:none;stroke:#999;stroke-width:3" />
<path d="M1223.85,86.74c4.22-0.43,8.49-0.79,13.9-1.35c1.23-0.13,2.25-0.13,3.32-0.11" style="fill:none;stroke:#999;stroke-width:3" />
<path d="M1252.92,17.46c3.46,2.16,8.95,8.86,9.81,12.22" style="fill:none;stroke:#999;stroke-width:3" />
<path d="M1286.04,13.89c0.09,1.08-0.03,1.57-0.57,2.53c-2.44,4.34-5.35,8.95-10.59,14.98" style="fill:none;stroke:#999;stroke-width:3" />
<path d="M1252.04,36.98c2.59,0.39,4.57,0.42,6.33,0.1c9.5-1.71,20.11-3.02,26.39-3.57c1.67-0.15,3.33-0.3,4.96,0.18" style="fill:none;stroke:#999;stroke-width:3" />
<path d="M1255.02,50.92c2.23,0.45,4.17,0.32,5.73,0.09c6.54-0.96,16.06-2.4,21.5-2.69c1.57-0.08,3.29-0.23,4.81,0.28" style="fill:none;stroke:#999;stroke-width:3" />
<path d="M1248.78,65.74c3.22,0.51,4.88,0.37,7.11,0.12C1266.9,64.62 1278.0,63.5 1289.39,62.64c2.37-0.18,4.77-0.32,7.08,0.36" style="fill:none;stroke:black;stroke-width:3" />
<circle cx="1248.78" cy="65.74" r="5" stroke-width="0" fill="#FF2A00" opacity="0.7" />
<path d="M1335.55,13c2.78,1.37,7.18,5.62,7.88,7.75" style="fill:none;stroke:#999;stroke-width:3" />
<path d="M1320.12,31.52c2.63,0.36,5.01,0.5,7.26,0.27c9.52-1,16.91-2.25,24.61-3.32c1.36-0.19,3.42-0.12,4.1,0.02" style="fill:none;stroke:#999;stroke-width:3" />
<path d="M1329.43,43.31c1.29,0.37,3,0.16,4.33,0.08c3.93-0.24,7.93-1.03,11.89-1.64c1.44-0.22,3.18-0.5,4.62-0.25" style="fill:none;stroke:#999;stroke-width:3" />
<path d="M1329.3,56.08c1.18,0.36,2.87,0.17,4.09,0.05c3.67-0.35,8.78-1.59,12.88-2.16c1.26-0.17,2.81-0.48,4.07-0.26" style="fill:none;stroke:#999;stroke-width:3" />
<path d="M1327.51,70.05c0.83,0.79,1.03,2.02,1.29,3.06c0.85,3.33,2.09,8.46,2.96,13.1c0.29,1.54,0.56,3,0.79,4.29" style="fill:none;stroke:#999;stroke-width:3" />
<path d="M1329.3600000000001,71.19c6.8-1.19,12.06-2.54,17.53-3.33c2.91-0.42,4.38-0.02,3.74,3.11c-0.73,3.54-1.42,7.4-2.88,13.33" style="fill:none;stroke:#999;stroke-width:3" />
<path d="M1332.85,86.74c4.22-0.43,8.49-0.79,13.9-1.35c1.23-0.13,2.25-0.13,3.32-0.11" style="fill:none;stroke:#999;stroke-width:3" />
<path d="M1361.92,17.46c3.46,2.16,8.95,8.86,9.81,12.22" style="fill:none;stroke:#999;stroke-width:3" />
<path d="M1395.04,13.89c0.09,1.08-0.03,1.57-0.57,2.53c-2.44,4.34-5.35,8.95-10.59,14.98" style="fill:none;stroke:#999;stroke-width:3" />
<path d="M1361.04,36.98c2.59,0.39,4.57,0.42,6.33,0.1c9.5-1.71,20.11-3.02,26.39-3.57c1.67-0.15,3.33-0.3,4.96,0.18" style="fill:none;stroke:#999;stroke-width:3" />
<path d="M1364.02,50.92c2.23,0.45,4.17,0.32,5.73,0.09c6.54-0.96,16.06-2.4,21.5-2.69c1.57-0.08,3.29-0.23,4.81,0.28" style="fill:none;stroke:#999;stroke-width:3" />
<path d="M1357.78,65.74c3.22,0.51,4.88,0.37,7.11,0.12C1375.9,64.62 1387.0,63.5 1398.39,62.64c2.37-0.18,4.77-0.32,7.08,0.36" style="fill:none;stroke:#999;stroke-width:3" />
<path d="M1379.97,38.6c0.96,0.96,0.99,2.4,0.99,4.17c0,4.97-0.05,34.79-0.07,48.1c0,3.34-0.01,5.65-0.01,6.25" style="fill:none;stroke:black;stroke-width:3" />
<circle cx="1379.97" cy="38.6" r="5" stroke-width="0" fill="#FF2A00" opacity="0.7" />
</svg>