<!-- 08a72 -->
<svg width="1417px" height="109px" viewBox="0 0 1417px 109px" xmlns="http://www.w3.org/2000/svg" xmlns:xlink="http://www.w3.org/1999/xlink" xml:space="preserve" version="1.1"  baseProfile="full">
<line x1="1" y1="1" x2="1416" y2="1" style="stroke:#ddd;stroke-width:2" />
<line x1="1" y1="1" x2="1" y2="108" style="stroke:#ddd;stroke-width:2" />
<line x1="1" y1="108" x2="1416" y2="108" style="stroke:#ddd;stroke-width:2" />
<line x1="1416" y1="1" x2="1416" y2="108" style="stroke:#ddd;stroke-width:2" />
<line x1="109" y1="1" x2="109" y2="108" style="stroke:#ddd;stroke-width:2" />
<line x1="218" y1="1" x2="218" y2="108" style="stroke:#ddd;stroke-width:2" />
<line x1="327" y1="1" x2="327" y2="108" style="stroke:#ddd;stroke-width:2" />
<line x1="436" y1="1" x2="436" y2="108" style="stroke:#ddd;stroke-width:2" />
<line x1="545" y1="1" x2="545" y2="108" style="stroke:#ddd;stroke-width:2" />
<line x1="654" y1="1" x2="654" y2="108" style="stroke:#ddd;stroke-width:2" />
<line x1="763" y1="1" x2="763" y2="108" style="stroke:#ddd;stroke-width:2" />
<line x1="872" y1="1" x2="872" y2="108" style="stroke:#ddd;stroke-width:2" />
<line x1="981" y1="1" x2="981" y2="108" style="stroke:#ddd;stroke-width:2" />
<line x1="1090" y1="1" x2="1090" y2="108" style="stroke:#ddd;stroke-width:2" />
<line x1="1199" y1="1" x2="1199" y2="108" style="stroke:#ddd;stroke-width:2" />
<line x1="1308" y1="1" x2="1308" y2="108" style="stroke:#ddd;stroke-width:2" />
<line x1="1" y1="54" x2="1416" y2="54" style="stroke:#ddd;stroke-width:2;stroke-dasharray:3 3" />
<line x1="55" y1="1" x2="55" y2="108" style="stroke:#ddd;stroke-width:2;stroke-dasharray:3 3" />
<line x1="164" y1="1" x2="164" y2="108" style="stroke:#ddd;stroke-width:2;stroke-dasharray:3 3" />
<line x1="273" y1="1" x2="273" y2="108" style="stroke:#ddd;stroke-width:2;stroke-dasharray:3 3" />
<line x1="382" y1="1" x2="382" y2="108" style="stroke:#ddd;stroke-width:2;stroke-dasharray:3 3" />
<line x1="491" y1="1" x2="491" y2="108" style="stroke:#ddd;stroke-width:2;stroke-dasharray:3 3" />
<line x1="600" y1="1" x2="600" y2="108" style="stroke:#ddd;stroke-width:2;stroke-dasharray:3 3" />
<line x1="709" y1="1" x2="709" y2="108" style="stroke:#ddd;stroke-width:2;stroke-dasharray:3 3" />
<line x1="818" y1="1" x2="818" y2="108" style="stroke:#ddd;stroke-width:2;stroke-dasharray:3 3" />
<line x1="927" y1="1" x2="927" y2="108" style="stroke:#ddd;stroke-width:2;stroke-dasharray:3 3" />
<line x1="1036" y1="1" x2="1036" y2="108" style="stroke:#ddd;stroke-width:2;stroke-dasharray:3 3" />
<line x1="1145" y1="1" x2="1145" y2="108" style="stroke:#ddd;stroke-width:2;stroke-dasharray:3 3" />
<line x1="1254" y1="1" x2="1254" y2="108" style="stroke:#ddd;stroke-width:2;stroke-dasharray:3 3" />
<line x1="1363" y1="1" x2="1363" y2="108" style="stroke:#ddd;stroke-width:2;stroke-dasharray:3 3" />
<path d="M23.55,14c2.52,1.5,6.5,6.17,7.13,8.5" style="fill:none;stroke:black;stroke-width:3" />
<circle cx="23.55" cy="14.0" r="5" stroke-width="0" fill="#FF2A00" opacity="0.7" />
<path d="M132.55,14c2.52,1.5,6.5,6.17,7.13,8.5" style="fill:none;stroke:#999;stroke-width:3" />
<path d="M121.12,32.33c1.84,0.6,4.15,0.47,6.01,0.24c7.75-0.98,13.22-1.84,19.32-2.93c1.52-0.27,3.11-0.53,4.65-0.22" style="fill:none;stroke:black;stroke-width:3" />
<circle cx="121.12" cy="32.33" r="5" stroke-width="0" fill="#FF2A00" opacity="0.7" />
<path d="M241.55,14c2.52,1.5,6.5,6.17,7.13,8.5" style="fill:none;stroke:#999;stroke-width:3" />
<path d="M230.12,32.33c1.84,0.6,4.15,0.47,6.01,0.24c7.75-0.98,13.22-1.84,19.32-2.93c1.52-0.27,3.11-0.53,4.65-0.22" style="fill:none;stroke:#999;stroke-width:3" />
<path d="M236.18,45.81c1.41,0.4,3.39,0.24,4.82,0.05c4.62-0.61,7.15-1.34,11.73-2.23c1.12-0.22,2.15-0.33,3.29-0.13" style="fill:none;stroke:black;stroke-width:3" />
<circle cx="236.18" cy="45.81" r="5" stroke-width="0" fill="#FF2A00" opacity="0.7" />
<path d="M350.55,14c2.52,1.5,6.5,6.17,7.13,8.5" style="fill:none;stroke:#999;stroke-width:3" />
<path d="M339.12,32.33c1.84,0.6,4.15,0.47,6.01,0.24c7.75-0.98,13.22-1.84,19.32-2.93c1.52-0.27,3.11-0.53,4.65-0.22" style="fill:none;stroke:#999;stroke-width:3" />
<path d="M345.18,45.81c1.41,0.4,3.39,0.24,4.82,0.05c4.62-0.61,7.15-1.34,11.73-2.23c1.12-0.22,2.15-0.33,3.29-0.13" style="fill:none;stroke:#999;stroke-width:3" />
<path d="M346.05,58.08c1.19,0.36,2.85,0.15,4.08,0.07c3.64-0.24,8.54-1.14,12.24-1.68c1-0.14,2.2-0.43,3.21-0.25" style="fill:none;stroke:black;stroke-width:3" />
<circle cx="346.05" cy="58.08" r="5" stroke-width="0" fill="#FF2A00" opacity="0.7" />
<path d="M459.55,14c2.52,1.5,6.5,6.17,7.13,8.5" style="fill:none;stroke:#999;stroke-width:3" />
<path d="M448.12,32.33c1.84,0.6,4.15,0.47,6.01,0.24c7.75-0.98,13.22-1.84,19.32-2.93c1.52-0.27,3.11-0.53,4.65-0.22" style="fill:none;stroke:#999;stroke-width:3" />
<path d="M454.18,45.81c1.41,0.4,3.39,0.24,4.82,0.05c4.62-0.61,7.15-1.34,11.73-2.23c1.12-0.22,2.15-0.33,3.29-0.13" style="fill:none;stroke:#999;stroke-width:3" />
<path d="M455.05,58.08c1.19,0.36,2.85,0.15,4.08,0.07c3.64-0.24,8.54-1.14,12.24-1.68c1-0.14,2.2-0.43,3.21-0.25" style="fill:none;stroke:#999;stroke-width:3" />
<path d="M453.26,70.65c0.85,0.79,1.08,2.01,1.3,3.08c0.73,3.52,1.31,8.66,2.17,13.47c0.22,1.23,0.43,2.42,0.64,3.54" style="fill:none;stroke:black;stroke-width:3" />
<circle cx="453.26" cy="70.65" r="5" stroke-width="0" fill="#FF2A00" opacity="0.7" />
<path d="M568.55,14c2.52,1.5,6.5,6.17,7.13,8.5" style="fill:none;stroke:#999;stroke-width:3" />
<path d="M557.12,32.33c1.84,0.6,4.15,0.47,6.01,0.24c7.75-0.98,13.22-1.84,19.32-2.93c1.52-0.27,3.11-0.53,4.65-0.22" style="fill:none;stroke:#999;stroke-width:3" />
<path d="M563.1800000000001,45.81c1.41,0.4,3.39,0.24,4.82,0.05c4.62-0.61,7.15-1.34,11.73-2.23c1.12-0.22,2.15-0.33,3.29-0.13" style="fill:none;stroke:#999;stroke-width:3" />
<path d="M564.05,58.08c1.19,0.36,2.85,0.15,4.08,0.07c3.64-0.24,8.54-1.14,12.24-1.68c1-0.14,2.2-0.43,3.21-0.25" style="fill:none;stroke:#999;stroke-width:3" />
<path d="M562.26,70.65c0.85,0.79,1.08,2.01,1.3,3.08c0.73,3.52,1.31,8.66,2.17,13.47c0.22,1.23,0.43,2.42,0.64,3.54" style="fill:none;stroke:#999;stroke-width:3" />
<path d="M564.19,71.87c7.31-1.38,10.62-2,16.3-2.79c3.4-0.48,4.18,0.54,3.52,3.78c-0.72,3.48-1.21,6.88-2.7,12.86" style="fill:none;stroke:black;stroke-width:3" />
<circle cx="564.19" cy="71.87" r="5" stroke-width="0" fill="#FF2A00" opacity="0.7" />
<path d="M677.55,14c2.52,1.5,6.5,6.17,7.13,8.5" style="fill:none;stroke:#999;stroke-width:3" />
<path d="M666.12,32.33c1.84,0.6,4.15,0.47,6.01,0.24c7.75-0.98,13.22-1.84,19.32-2.93c1.52-0.27,3.11-0.53,4.65-0.22" style="fill:none;stroke:#999;stroke-width:3" />
<path d="M672.1800000000001,45.81c1.41,0.4,3.39,0.24,4.82,0.05c4.62-0.61,7.15-1.34,11.73-2.23c1.12-0.22,2.15-0.33,3.29-0.13" style="fill:none;stroke:#999;stroke-width:3" />
<path d="M673.05,58.08c1.19,0.36,2.85,0.15,4.08,0.07c3.64-0.24,8.54-1.14,12.24-1.68c1-0.14,2.2-0.43,3.21-0.25" style="fill:none;stroke:#999;stroke-width:3" />
<path d="M671.26,70.65c0.85,0.79,1.08,2.01,1.3,3.08c0.73,3.52,1.31,8.66,2.17,13.47c0.22,1.23,0.43,2.42,0.64,3.54" style="fill:none;stroke:#999;stroke-width:3" />
<path d="M673.19,71.87c7.31-1.38,10.62-2,16.3-2.79c3.4-0.48,4.18,0.54,3.52,3.78c-0.72,3.48-1.21,6.88-2.7,12.86" style="fill:none;stroke:#999;stroke-width:3" />
<path d="M676.17,88.3c5.2-0.8,7.56-0.96,12.85-1.69c0.9-0.12,1.88-0.25,2.96-0.37" style="fill:none;stroke:black;stroke-width:3" />
<circle cx="676.17" cy="88.3" r="5" stroke-width="0" fill="#FF2A00" opacity="0.7" />
<path d="M786.55,14c2.52,1.5,6.5,6.17,7.13,8.5" style="fill:none;stroke:#999;stroke-width:3" />
<path d="M775.12,32.33c1.84,0.6,4.15,0.47,6.01,0.24c7.75-0.98,13.22-1.84,19.32-2.93c1.52-0.27,3.11-0.53,4.65-0.22" style="fill:none;stroke:#999;stroke-width:3" />
<path d="M781.1800000000001,45.81c1.41,0.4,3.39,0.24,4.82,0.05c4.62-0.61,7.15-1.34,11.73-2.23c1.12-0.22,2.15-0.33,3.29-0.13" style="fill:none;stroke:#999;stroke-width:3" />
<path d="M782.05,58.08c1.19,0.36,2.85,0.15,4.08,0.07c3.64-0.24,8.54-1.14,12.24-1.68c1-0.14,2.2-0.43,3.21-0.25" style="fill:none;stroke:#999;stroke-width:3" />
<path d="M780.26,70.65c0.85,0.79,1.08,2.01,1.3,3.08c0.73,3.52,1.31,8.66,2.17,13.47c0.22,1.23,0.43,2.42,0.64,3.54" style="fill:none;stroke:#999;stroke-width:3" />
<path d="M782.19,71.87c7.31-1.38,10.62-2,16.3-2.79c3.4-0.48,4.18,0.54,3.52,3.78c-0.72,3.48-1.21,6.88-2.7,12.86" style="fill:none;stroke:#999;stroke-width:3" />
<path d="M785.17,88.3c5.2-0.8,7.56-0.96,12.85-1.69c0.9-0.12,1.88-0.25,2.96-0.37" style="fill:none;stroke:#999;stroke-width:3" />
<path d="M832.01,12.24c1.25,1.25,1.6,2.51,1.6,4.23c0,4.26-0.11,6.35-0.11,11.28" style="fill:none;stroke:black;stroke-width:3" />
<circle cx="832.01" cy="12.24" r="5" stroke-width="0" fill="#FF2A00" opacity="0.7" />
<path d="M895.55,14c2.52,1.5,6.5,6.17,7.13,8.5" style="fill:none;stroke:#999;stroke-width:3" />
<path d="M884.12,32.33c1.84,0.6,4.15,0.47,6.01,0.24c7.75-0.98,13.22-1.84,19.32-2.93c1.52-0.27,3.11-0.53,4.65-0.22" style="fill:none;stroke:#999;stroke-width:3" />
<path d="M890.1800000000001,45.81c1.41,0.4,3.39,0.24,4.82,0.05c4.62-0.61,7.15-1.34,11.73-2.23c1.12-0.22,2.15-0.33,3.29-0.13" style="fill:none;stroke:#999;stroke-width:3" />
<path d="M891.05,58.08c1.19,0.36,2.85,0.15,4.08,0.07c3.64-0.24,8.54-1.14,12.24-1.68c1-0.14,2.2-0.43,3.21-0.25" style="fill:none;stroke:#999;stroke-width:3" />
<path d="M889.26,70.65c0.85,0.79,1.08,2.01,1.3,3.08c0.73,3.52,1.31,8.66,2.17,13.47c0.22,1.23,0.43,2.42,0.64,3.54" style="fill:none;stroke:#999;stroke-width:3" />
<path d="M891.19,71.87c7.31-1.38,10.62-2,16.3-2.79c3.4-0.48,4.18,0.54,3.52,3.78c-0.72,3.48-1.21,6.88-2.7,12.86" style="fill:none;stroke:#999;stroke-width:3" />
<path d="M894.17,88.3c5.2-0.8,7.56-0.96,12.85-1.69c0.9-0.12,1.88-0.25,2.96-0.37" style="fill:none;stroke:#999;stroke-width:3" />
<path d="M941.01,12.24c1.25,1.25,1.6,2.51,1.6,4.23c0,4.26-0.11,6.35-0.11,11.28" style="fill:none;stroke:#999;stroke-width:3" />
<path d="M920.0,30.31c2.25,0.16,4.47,0.3,6.74,0.08c8.48-0.82,26.09-2.68,35.9-3.27c1.89-0.12,4.05-0.36,5.87,0.31" style="fill:none;stroke:black;stroke-width:3" />
<circle cx="920.0" cy="30.31" r="5" stroke-width="0" fill="#FF2A00" opacity="0.7" />
<path d="M1004.55,14c2.52,1.5,6.5,6.17,7.13,8.5" style="fill:none;stroke:#999;stroke-width:3" />
<path d="M993.12,32.33c1.84,0.6,4.15,0.47,6.01,0.24c7.75-0.98,13.22-1.84,19.32-2.93c1.52-0.27,3.11-0.53,4.65-0.22" style="fill:none;stroke:#999;stroke-width:3" />
<path d="M999.1800000000001,45.81c1.41,0.4,3.39,0.24,4.82,0.05c4.62-0.61,7.15-1.34,11.73-2.23c1.12-0.22,2.15-0.33,3.29-0.13" style="fill:none;stroke:#999;stroke-width:3" />
<path d="M1000.05,58.08c1.19,0.36,2.85,0.15,4.08,0.07c3.64-0.24,8.54-1.14,12.24-1.68c1-0.14,2.2-0.43,3.21-0.25" style="fill:none;stroke:#999;stroke-width:3" />
<path d="M998.26,70.65c0.85,0.79,1.08,2.01,1.3,3.08c0.73,3.52,1.31,8.66,2.17,13.47c0.22,1.23,0.43,2.42,0.64,3.54" style="fill:none;stroke:#999;stroke-width:3" />
<path d="M1000.19,71.87c7.31-1.38,10.62-2,16.3-2.79c3.4-0.48,4.18,0.54,3.52,3.78c-0.72,3.48-1.21,6.88-2.7,12.86" style="fill:none;stroke:#999;stroke-width:3" />
<path d="M1003.17,88.3c5.2-0.8,7.56-0.96,12.85-1.69c0.9-0.12,1.88-0.25,2.96-0.37" style="fill:none;stroke:#999;stroke-width:3" />
<path d="M1050.01,12.24c1.25,1.25,1.6,2.51,1.6,4.23c0,4.26-0.11,6.35-0.11,11.28" style="fill:none;stroke:#999;stroke-width:3" />
<path d="M1029.0,30.31c2.25,0.16,4.47,0.3,6.74,0.08c8.48-0.82,26.09-2.68,35.9-3.27c1.89-0.12,4.05-0.36,5.87,0.31" style="fill:none;stroke:#999;stroke-width:3" />
<path d="M1048.98,32.37c0.48,1.23-0.02,2.61-0.99,3.97c-3.48,4.91-4.82,7.05-10.05,12.94c-1.3,1.47-1.43,2.59,0.5,3.32c4.87,1.82,6.1,2.77,10.43,5.02" style="fill:none;stroke:black;stroke-width:3" />
<circle cx="1048.98" cy="32.37" r="5" stroke-width="0" fill="#FF2A00" opacity="0.7" />
<path d="M1113.55,14c2.52,1.5,6.5,6.17,7.13,8.5" style="fill:none;stroke:#999;stroke-width:3" />
<path d="M1102.12,32.33c1.84,0.6,4.15,0.47,6.01,0.24c7.75-0.98,13.22-1.84,19.32-2.93c1.52-0.27,3.11-0.53,4.65-0.22" style="fill:none;stroke:#999;stroke-width:3" />
<path d="M1108.18,45.81c1.41,0.4,3.39,0.24,4.82,0.05c4.62-0.61,7.15-1.34,11.73-2.23c1.12-0.22,2.15-0.33,3.29-0.13" style="fill:none;stroke:#999;stroke-width:3" />
<path d="M1109.05,58.08c1.19,0.36,2.85,0.15,4.08,0.07c3.64-0.24,8.54-1.14,12.24-1.68c1-0.14,2.2-0.43,3.21-0.25" style="fill:none;stroke:#999;stroke-width:3" />
<path d="M1107.26,70.65c0.85,0.79,1.08,2.01,1.3,3.08c0.73,3.52,1.31,8.66,2.17,13.47c0.22,1.23,0.43,2.42,0.64,3.54" style="fill:none;stroke:#999;stroke-width:3" />
<path d="M1109.19,71.87c7.31-1.38,10.62-2,16.3-2.79c3.4-0.48,4.18,0.54,3.52,3.78c-0.72,3.48-1.21,6.88-2.7,12.86" style="fill:none;stroke:#999;stroke-width:3" />
<path d="M1112.17,88.3c5.2-0.8,7.56-0.96,12.85-1.69c0.9-0.12,1.88-0.25,2.96-0.37" style="fill:none;stroke:#999;stroke-width:3" />
<path d="M1159.01,12.24c1.25,1.25,1.6,2.51,1.6,4.23c0,4.26-0.11,6.35-0.11,11.28" style="fill:none;stroke:#999;stroke-width:3" />
<path d="M1138.0,30.31c2.25,0.16,4.47,0.3,6.74,0.08c8.48-0.82,26.09-2.68,35.9-3.27c1.89-0.12,4.05-0.36,5.87,0.31" style="fill:none;stroke:#999;stroke-width:3" />
<path d="M1157.98,32.37c0.48,1.23-0.02,2.61-0.99,3.97c-3.48,4.91-4.82,7.05-10.05,12.94c-1.3,1.47-1.43,2.59,0.5,3.32c4.87,1.82,6.1,2.77,10.43,5.02" style="fill:none;stroke:#999;stroke-width:3" />
<path d="M1172.27,40c0.15,1.38-0.46,2.46-1.21,3.54C1163.52,54.35 1154.43,64.03 1138.5,74" style="fill:none;stroke:black;stroke-width:3" />
<circle cx="1172.27" cy="40.0" r="5" stroke-width="0" fill="#FF2A00" opacity="0.7" />
<path d="M1222.55,14c2.52,1.5,6.5,6.17,7.13,8.5" style="fill:none;stroke:#999;stroke-width:3" />
<path d="M1211.12,32.33c1.84,0.6,4.15,0.47,6.01,0.24c7.75-0.98,13.22-1.84,19.32-2.93c1.52-0.27,3.11-0.53,4.65-0.22" style="fill:none;stroke:#999;stroke-width:3" />
<path d="M1217.18,45.81c1.41,0.4,3.39,0.24,4.82,0.05c4.62-0.61,7.15-1.34,11.73-2.23c1.12-0.22,2.15-0.33,3.29-0.13" style="fill:none;stroke:#999;stroke-width:3" />
<path d="M1218.05,58.08c1.19,0.36,2.85,0.15,4.08,0.07c3.64-0.24,8.54-1.14,12.24-1.68c1-0.14,2.2-0.43,3.21-0.25" style="fill:none;stroke:#999;stroke-width:3" />
<path d="M1216.26,70.65c0.85,0.79,1.08,2.01,1.3,3.08c0.73,3.52,1.31,8.66,2.17,13.47c0.22,1.23,0.43,2.42,0.64,3.54" style="fill:none;stroke:#999;stroke-width:3" />
<path d="M1218.19,71.87c7.31-1.38,10.62-2,16.3-2.79c3.4-0.48,4.18,0.54,3.52,3.78c-0.72,3.48-1.21,6.88-2.7,12.86" style="fill:none;stroke:#999;stroke-width:3" />
<path d="M1221.17,88.3c5.2-0.8,7.56-0.96,12.85-1.69c0.9-0.12,1.88-0.25,2.96-0.37" style="fill:none;stroke:#999;stroke-width:3" />
<path d="M1268.01,12.24c1.25,1.25,1.6,2.51,1.6,4.23c0,4.26-0.11,6.35-0.11,11.28" style="fill:none;stroke:#999;stroke-width:3" />
<path d="M1247.0,30.31c2.25,0.16,4.47,0.3,6.74,0.08c8.48-0.82,26.09-2.68,35.9-3.27c1.89-0.12,4.05-0.36,5.87,0.31" style="fill:none;stroke:#999;stroke-width:3" />
<path d="M1266.98,32.37c0.48,1.23-0.02,2.61-0.99,3.97c-3.48,4.91-4.82,7.05-10.05,12.94c-1.3,1.47-1.43,2.59,0.5,3.32c4.87,1.82,6.1,2.77,10.43,5.02" style="fill:none;stroke:#999;stroke-width:3" />
<path d="M1281.27,40c0.15,1.38-0.46,2.46-1.21,3.54C1272.52,54.35 1263.43,64.03 1247.5,74" style="fill:none;stroke:#999;stroke-width:3" />
<path d="M1284.74,59c0.1,0.88-0.51,2.35-1.21,3.27c-9.04,12-19.9,23.48-38.53,33.48" style="fill:none;stroke:black;stroke-width:3" />
<circle cx="1284.74" cy="59.0" r="5" stroke-width="0" fill="#FF2A00" opacity="0.7" />
<path d="M1331.55,14c2.52,1.5,6.5,6.17,7.13,8.5" style="fill:none;stroke:#999;stroke-width:3" />
<path d="M1320.12,32.33c1.84,0.6,4.15,0.47,6.01,0.24c7.75-0.98,13.22-1.84,19.32-2.93c1.52-0.27,3.11-0.53,4.65-0.22" style="fill:none;stroke:#999;stroke-width:3" />
<path d="M1326.18,45.81c1.41,0.4,3.39,0.24,4.82,0.05c4.62-0.61,7.15-1.34,11.73-2.23c1.12-0.22,2.15-0.33,3.29-0.13" style="fill:none;stroke:#999;stroke-width:3" />
<path d="M1327.05,58.08c1.19,0.36,2.85,0.15,4.08,0.07c3.64-0.24,8.54-1.14,12.24-1.68c1-0.14,2.2-0.43,3.21-0.25" style="fill:none;stroke:#999;stroke-width:3" />
<path d="M1325.26,70.65c0.85,0.79,1.08,2.01,1.3,3.08c0.73,3.52,1.31,8.66,2.17,13.47c0.22,1.23,0.43,2.42,0.64,3.54" style="fill:none;stroke:#999;stroke-width:3" />
<path d="M1327.19,71.87c7.31-1.38,10.62-2,16.3-2.79c3.4-0.48,4.18,0.54,3.52,3.78c-0.72,3.48-1.21,6.88-2.7,12.86" style="fill:none;stroke:#999;stroke-width:3" />
<path d="M1330.17,88.3c5.2-0.8,7.56-0.96,12.85-1.69c0.9-0.12,1.88-0.25,2.96-0.37" style="fill:none;stroke:#999;stroke-width:3" />
<path d="M1377.01,12.24c1.25,1.25,1.6,2.51,1.6,4.23c0,4.26-0.11,6.35-0.11,11.28" style="fill:none;stroke:#999;stroke-width:3" />
<path d="M1356.0,30.31c2.25,0.16,4.47,0.3,6.74,0.08c8.48-0.82,26.09-2.68,35.9-3.27c1.89-0.12,4.05-0.36,5.87,0.31" style="fill:none;stroke:#999;stroke-width:3" />
<path d="M1375.98,32.37c0.48,1.23-0.02,2.61-0.99,3.97c-3.48,4.91-4.82,7.05-10.05,12.94c-1.3,1.47-1.43,2.59,0.5,3.32c4.87,1.82,6.1,2.77,10.43,5.02" style="fill:none;stroke:#999;stroke-width:3" />
<path d="M1390.27,40c0.15,1.38-0.46,2.46-1.21,3.54C1381.52,54.35 1372.43,64.03 1356.5,74" style="fill:none;stroke:#999;stroke-width:3" />
<path d="M1393.74,59c0.1,0.88-0.51,2.35-1.21,3.27c-9.04,12-19.9,23.48-38.53,33.48" style="fill:none;stroke:#999;stroke-width:3" />
<path d="M1384.25,76.88C1390.51,79.98 1400.43,89.66 1402.0,94.5" style="fill:none;stroke:black;stroke-width:3" />
<circle cx="1384.25" cy="76.88" r="5" stroke-width="0" fill="#FF2A00" opacity="0.7" />
</svg>