<!-- 08b4e -->
<svg width="2071px" height="109px" viewBox="0 0 2071px 109px" xmlns="http://www.w3.org/2000/svg" xmlns:xlink="http://www.w3.org/1999/xlink" xml:space="preserve" version="1.1"  baseProfile="full">
<line x1="1" y1="1" x2="2070" y2="1" style="stroke:#ddd;stroke-width:2" />
<line x1="1" y1="1" x2="1" y2="108" style="stroke:#ddd;stroke-width:2" />
<line x1="1" y1="108" x2="2070" y2="108" style="stroke:#ddd;stroke-width:2" />
<line x1="2070" y1="1" x2="2070" y2="108" style="stroke:#ddd;stroke-width:2" />
<line x1="109" y1="1" x2="109" y2="108" style="stroke:#ddd;stroke-width:2" />
<line x1="218" y1="1" x2="218" y2="108" style="stroke:#ddd;stroke-width:2" />
<line x1="327" y1="1" x2="327" y2="108" style="stroke:#ddd;stroke-width:2" />
<line x1="436" y1="1" x2="436" y2="108" style="stroke:#ddd;stroke-width:2" />
<line x1="545" y1="1" x2="545" y2="108" style="stroke:#ddd;stroke-width:2" />
<line x1="654" y1="1" x2="654" y2="108" style="stroke:#ddd;stroke-width:2" />
<line x1="763" y1="1" x2="763" y2="108" style="stroke:#ddd;stroke-width:2" />
<line x1="872" y1="1" x2="872" y2="108" style="stroke:#ddd;stroke-width:2" />
<line x1="981" y1="1" x2="981" y2="108" style="stroke:#ddd;stroke-width:2" />
<line x1="1090" y1="1" x2="1090" y2="108" style="stroke:#ddd;stroke-width:2" />
<line x1="1199" y1="1" x2="1199" y2="108" style="stroke:#ddd;stroke-width:2" />
<line x1="1308" y1="1" x2="1308" y2="108" style="stroke:#ddd;stroke-width:2" />
<line x1="1417" y1="1" x2="1417" y2="108" style="stroke:#ddd;stroke-width:2" />
<line x1="1526" y1="1" x2="1526" y2="108" style="stroke:#ddd;stroke-width:2" />
<line x1="1635" y1="1" x2="1635" y2="108" style="stroke:#ddd;stroke-width:2" />
<line x1="1744" y1="1" x2="1744" y2="108" style="stroke:#ddd;stroke-width:2" />
<line x1="1853" y1="1" x2="1853" y2="108" style="stroke:#ddd;stroke-width:2" />
<line x1="1962" y1="1" x2="1962" y2="108" style="stroke:#ddd;stroke-width:2" />
<line x1="1" y1="54" x2="2070" y2="54" style="stroke:#ddd;stroke-width:2;stroke-dasharray:3 3" />
<line x1="55" y1="1" x2="55" y2="108" style="stroke:#ddd;stroke-width:2;stroke-dasharray:3 3" />
<line x1="164" y1="1" x2="164" y2="108" style="stroke:#ddd;stroke-width:2;stroke-dasharray:3 3" />
<line x1="273" y1="1" x2="273" y2="108" style="stroke:#ddd;stroke-width:2;stroke-dasharray:3 3" />
<line x1="382" y1="1" x2="382" y2="108" style="stroke:#ddd;stroke-width:2;stroke-dasharray:3 3" />
<line x1="491" y1="1" x2="491" y2="108" style="stroke:#ddd;stroke-width:2;stroke-dasharray:3 3" />
<line x1="600" y1="1" x2="600" y2="108" style="stroke:#ddd;stroke-width:2;stroke-dasharray:3 3" />
<line x1="709" y1="1" x2="709" y2="108" style="stroke:#ddd;stroke-width:2;stroke-dasharray:3 3" />
<line x1="818" y1="1" x2="818" y2="108" style="stroke:#ddd;stroke-width:2;stroke-dasharray:3 3" />
<line x1="927" y1="1" x2="927" y2="108" style="stroke:#ddd;stroke-width:2;stroke-dasharray:3 3" />
<line x1="1036" y1="1" x2="1036" y2="108" style="stroke:#ddd;stroke-width:2;stroke-dasharray:3 3" />
<line x1="1145" y1="1" x2="1145" y2="108" style="stroke:#ddd;stroke-width:2;stroke-dasharray:3 3" />
<line x1="1254" y1="1" x2="1254" y2="108" style="stroke:#ddd;stroke-width:2;stroke-dasharray:3 3" />
<line x1="1363" y1="1" x2="1363" y2="108" style="stroke:#ddd;stroke-width:2;stroke-dasharray:3 3" />
<line x1="1472" y1="1" x2="1472" y2="108" style="stroke:#ddd;stroke-width:2;stroke-dasharray:3 3" />
<line x1="1581" y1="1" x2="1581" y2="108" style="stroke:#ddd;stroke-width:2;stroke-dasharray:3 3" />
<line x1="1690" y1="1" x2="1690" y2="108" style="stroke:#ddd;stroke-width:2;stroke-dasharray:3 3" />
<line x1="1799" y1="1" x2="1799" y2="108" style="stroke:#ddd;stroke-width:2;stroke-dasharray:3 3" />
<line x1="1908" y1="1" x2="1908" y2="108" style="stroke:#ddd;stroke-width:2;stroke-dasharray:3 3" />
<line x1="2017" y1="1" x2="2017" y2="108" style="stroke:#ddd;stroke-width:2;stroke-dasharray:3 3" />
<path d="M19.05,14c4.1,2.07,10.6,8.52,11.63,11.75" style="fill:none;stroke:black;stroke-width:3" />
<circle cx="19.05" cy="14.0" r="5" stroke-width="0" fill="#FF2A00" opacity="0.7" />
<path d="M128.05,14c4.1,2.07,10.6,8.52,11.63,11.75" style="fill:none;stroke:#999;stroke-width:3" />
<path d="M118.12,35.08c0.71,0.23,3.4,0.27,4.1,0.23c8.73-0.42,17.48-2.67,23.83-2.87c1.18-0.04,2.95,0.11,3.54,0.23" style="fill:none;stroke:black;stroke-width:3" />
<circle cx="118.12" cy="35.08" r="5" stroke-width="0" fill="#FF2A00" opacity="0.7" />
<path d="M237.05,14c4.1,2.07,10.6,8.52,11.63,11.75" style="fill:none;stroke:#999;stroke-width:3" />
<path d="M227.12,35.08c0.71,0.23,3.4,0.27,4.1,0.23c8.73-0.42,17.48-2.67,23.83-2.87c1.18-0.04,2.95,0.11,3.54,0.23" style="fill:none;stroke:#999;stroke-width:3" />
<path d="M233.18,47.06c0.43,0.12,3.04,0.13,3.47,0.12c4.44-0.14,10.86-1.93,15.34-2.55c0.7-0.1,3.68,0.06,4.04,0.12" style="fill:none;stroke:black;stroke-width:3" />
<circle cx="233.18" cy="47.06" r="5" stroke-width="0" fill="#FF2A00" opacity="0.7" />
<path d="M346.05,14c4.1,2.07,10.6,8.52,11.63,11.75" style="fill:none;stroke:#999;stroke-width:3" />
<path d="M336.12,35.08c0.71,0.23,3.4,0.27,4.1,0.23c8.73-0.42,17.48-2.67,23.83-2.87c1.18-0.04,2.95,0.11,3.54,0.23" style="fill:none;stroke:#999;stroke-width:3" />
<path d="M342.18,47.06c0.43,0.12,3.04,0.13,3.47,0.12c4.44-0.14,10.86-1.93,15.34-2.55c0.7-0.1,3.68,0.06,4.04,0.12" style="fill:none;stroke:#999;stroke-width:3" />
<path d="M341.8,58.83c0.38,0.12,2.71,0.13,3.1,0.12c3.97-0.13,12.43-2.11,16.33-2.09c0.63,0,3.29,0.06,3.6,0.11" style="fill:none;stroke:black;stroke-width:3" />
<circle cx="341.8" cy="58.83" r="5" stroke-width="0" fill="#FF2A00" opacity="0.7" />
<path d="M455.05,14c4.1,2.07,10.6,8.52,11.63,11.75" style="fill:none;stroke:#999;stroke-width:3" />
<path d="M445.12,35.08c0.71,0.23,3.4,0.27,4.1,0.23c8.73-0.42,17.48-2.67,23.83-2.87c1.18-0.04,2.95,0.11,3.54,0.23" style="fill:none;stroke:#999;stroke-width:3" />
<path d="M451.18,47.06c0.43,0.12,3.04,0.13,3.47,0.12c4.44-0.14,10.86-1.93,15.34-2.55c0.7-0.1,3.68,0.06,4.04,0.12" style="fill:none;stroke:#999;stroke-width:3" />
<path d="M450.8,58.83c0.38,0.12,2.71,0.13,3.1,0.12c3.97-0.13,12.43-2.11,16.33-2.09c0.63,0,3.29,0.06,3.6,0.11" style="fill:none;stroke:#999;stroke-width:3" />
<path d="M450.01,72.9c0.35,0.41,0.75,1.31,0.87,1.85c1,4.77,2.23,14.49,3.23,21.49" style="fill:none;stroke:black;stroke-width:3" />
<circle cx="450.01" cy="72.9" r="5" stroke-width="0" fill="#FF2A00" opacity="0.7" />
<path d="M564.05,14c4.1,2.07,10.6,8.52,11.63,11.75" style="fill:none;stroke:#999;stroke-width:3" />
<path d="M554.12,35.08c0.71,0.23,3.4,0.27,4.1,0.23c8.73-0.42,17.48-2.67,23.83-2.87c1.18-0.04,2.95,0.11,3.54,0.23" style="fill:none;stroke:#999;stroke-width:3" />
<path d="M560.1800000000001,47.06c0.43,0.12,3.04,0.13,3.47,0.12c4.44-0.14,10.86-1.93,15.34-2.55c0.7-0.1,3.68,0.06,4.04,0.12" style="fill:none;stroke:#999;stroke-width:3" />
<path d="M559.8,58.83c0.38,0.12,2.71,0.13,3.1,0.12c3.97-0.13,12.43-2.11,16.33-2.09c0.63,0,3.29,0.06,3.6,0.11" style="fill:none;stroke:#999;stroke-width:3" />
<path d="M559.01,72.9c0.35,0.41,0.75,1.31,0.87,1.85c1,4.77,2.23,14.49,3.23,21.49" style="fill:none;stroke:#999;stroke-width:3" />
<path d="M559.94,74.87c7.2-0.89,13.9-2.6,20.55-3.5c1.67-0.22,2.68,1.04,2.44,2.06C581.94,77.68 581.0,83.5 579.81,91.71" style="fill:none;stroke:black;stroke-width:3" />
<circle cx="559.94" cy="74.87" r="5" stroke-width="0" fill="#FF2A00" opacity="0.7" />
<path d="M673.05,14c4.1,2.07,10.6,8.52,11.63,11.75" style="fill:none;stroke:#999;stroke-width:3" />
<path d="M663.12,35.08c0.71,0.23,3.4,0.27,4.1,0.23c8.73-0.42,17.48-2.67,23.83-2.87c1.18-0.04,2.95,0.11,3.54,0.23" style="fill:none;stroke:#999;stroke-width:3" />
<path d="M669.1800000000001,47.06c0.43,0.12,3.04,0.13,3.47,0.12c4.44-0.14,10.86-1.93,15.34-2.55c0.7-0.1,3.68,0.06,4.04,0.12" style="fill:none;stroke:#999;stroke-width:3" />
<path d="M668.8,58.83c0.38,0.12,2.71,0.13,3.1,0.12c3.97-0.13,12.43-2.11,16.33-2.09c0.63,0,3.29,0.06,3.6,0.11" style="fill:none;stroke:#999;stroke-width:3" />
<path d="M668.01,72.9c0.35,0.41,0.75,1.31,0.87,1.85c1,4.77,2.23,14.49,3.23,21.49" style="fill:none;stroke:#999;stroke-width:3" />
<path d="M668.94,74.87c7.2-0.89,13.9-2.6,20.55-3.5c1.67-0.22,2.68,1.04,2.44,2.06C690.94,77.68 690.0,83.5 688.81,91.71" style="fill:none;stroke:#999;stroke-width:3" />
<path d="M672.42,93.55C677.8,93 683.6,92.57 690.98,91.74" style="fill:none;stroke:black;stroke-width:3" />
<circle cx="672.42" cy="93.55" r="5" stroke-width="0" fill="#FF2A00" opacity="0.7" />
<path d="M782.05,14c4.1,2.07,10.6,8.52,11.63,11.75" style="fill:none;stroke:#999;stroke-width:3" />
<path d="M772.12,35.08c0.71,0.23,3.4,0.27,4.1,0.23c8.73-0.42,17.48-2.67,23.83-2.87c1.18-0.04,2.95,0.11,3.54,0.23" style="fill:none;stroke:#999;stroke-width:3" />
<path d="M778.1800000000001,47.06c0.43,0.12,3.04,0.13,3.47,0.12c4.44-0.14,10.86-1.93,15.34-2.55c0.7-0.1,3.68,0.06,4.04,0.12" style="fill:none;stroke:#999;stroke-width:3" />
<path d="M777.8,58.83c0.38,0.12,2.71,0.13,3.1,0.12c3.97-0.13,12.43-2.11,16.33-2.09c0.63,0,3.29,0.06,3.6,0.11" style="fill:none;stroke:#999;stroke-width:3" />
<path d="M777.01,72.9c0.35,0.41,0.75,1.31,0.87,1.85c1,4.77,2.23,14.49,3.23,21.49" style="fill:none;stroke:#999;stroke-width:3" />
<path d="M777.94,74.87c7.2-0.89,13.9-2.6,20.55-3.5c1.67-0.22,2.68,1.04,2.44,2.06C799.94,77.68 799.0,83.5 797.81,91.71" style="fill:none;stroke:#999;stroke-width:3" />
<path d="M781.42,93.55C786.8,93 792.6,92.57 799.98,91.74" style="fill:none;stroke:#999;stroke-width:3" />
<path d="M813.17,14.28c1.32,0.38,2.65,0.98,3.93,0.8c2.52-0.35,26.07-3.01,28.74-3.36s3.57,1.47,1.98,2.61c-2.73,1.96-12.79,8.34-14.47,9.74" style="fill:none;stroke:black;stroke-width:3" />
<circle cx="813.17" cy="14.28" r="5" stroke-width="0" fill="#FF2A00" opacity="0.7" />
<path d="M891.05,14c4.1,2.07,10.6,8.52,11.63,11.75" style="fill:none;stroke:#999;stroke-width:3" />
<path d="M881.12,35.08c0.71,0.23,3.4,0.27,4.1,0.23c8.73-0.42,17.48-2.67,23.83-2.87c1.18-0.04,2.95,0.11,3.54,0.23" style="fill:none;stroke:#999;stroke-width:3" />
<path d="M887.1800000000001,47.06c0.43,0.12,3.04,0.13,3.47,0.12c4.44-0.14,10.86-1.93,15.34-2.55c0.7-0.1,3.68,0.06,4.04,0.12" style="fill:none;stroke:#999;stroke-width:3" />
<path d="M886.8,58.83c0.38,0.12,2.71,0.13,3.1,0.12c3.97-0.13,12.43-2.11,16.33-2.09c0.63,0,3.29,0.06,3.6,0.11" style="fill:none;stroke:#999;stroke-width:3" />
<path d="M886.01,72.9c0.35,0.41,0.75,1.31,0.87,1.85c1,4.77,2.23,14.49,3.23,21.49" style="fill:none;stroke:#999;stroke-width:3" />
<path d="M886.94,74.87c7.2-0.89,13.9-2.6,20.55-3.5c1.67-0.22,2.68,1.04,2.44,2.06C908.94,77.68 908.0,83.5 906.81,91.71" style="fill:none;stroke:#999;stroke-width:3" />
<path d="M890.42,93.55C895.8,93 901.6,92.57 908.98,91.74" style="fill:none;stroke:#999;stroke-width:3" />
<path d="M922.17,14.28c1.32,0.38,2.65,0.98,3.93,0.8c2.52-0.35,26.07-3.01,28.74-3.36s3.57,1.47,1.98,2.61c-2.73,1.96-12.79,8.34-14.47,9.74" style="fill:none;stroke:#999;stroke-width:3" />
<path d="M934.27,20.28c2.31,1,8.3,4.34,9.38,6.95" style="fill:none;stroke:black;stroke-width:3" />
<circle cx="934.27" cy="20.28" r="5" stroke-width="0" fill="#FF2A00" opacity="0.7" />
<path d="M1000.05,14c4.1,2.07,10.6,8.52,11.63,11.75" style="fill:none;stroke:#999;stroke-width:3" />
<path d="M990.12,35.08c0.71,0.23,3.4,0.27,4.1,0.23c8.73-0.42,17.48-2.67,23.83-2.87c1.18-0.04,2.95,0.11,3.54,0.23" style="fill:none;stroke:#999;stroke-width:3" />
<path d="M996.1800000000001,47.06c0.43,0.12,3.04,0.13,3.47,0.12c4.44-0.14,10.86-1.93,15.34-2.55c0.7-0.1,3.68,0.06,4.04,0.12" style="fill:none;stroke:#999;stroke-width:3" />
<path d="M995.8,58.83c0.38,0.12,2.71,0.13,3.1,0.12c3.97-0.13,12.43-2.11,16.33-2.09c0.63,0,3.29,0.06,3.6,0.11" style="fill:none;stroke:#999;stroke-width:3" />
<path d="M995.01,72.9c0.35,0.41,0.75,1.31,0.87,1.85c1,4.77,2.23,14.49,3.23,21.49" style="fill:none;stroke:#999;stroke-width:3" />
<path d="M995.94,74.87c7.2-0.89,13.9-2.6,20.55-3.5c1.67-0.22,2.68,1.04,2.44,2.06C1017.94,77.68 1017.0,83.5 1015.81,91.71" style="fill:none;stroke:#999;stroke-width:3" />
<path d="M999.42,93.55C1004.8,93 1010.6,92.57 1017.98,91.74" style="fill:none;stroke:#999;stroke-width:3" />
<path d="M1031.17,14.28c1.32,0.38,2.65,0.98,3.93,0.8c2.52-0.35,26.07-3.01,28.74-3.36s3.57,1.47,1.98,2.61c-2.73,1.96-12.79,8.34-14.47,9.74" style="fill:none;stroke:#999;stroke-width:3" />
<path d="M1043.27,20.28c2.31,1,8.3,4.34,9.38,6.95" style="fill:none;stroke:#999;stroke-width:3" />
<path d="M1026.97,31.51c0.72,0.22,3.48,0.4,5.75,0.11C1045.5,30 1065.0,27.75 1072.5,26.95c6.08-0.65-2.2,8.33-4.55,9.69" style="fill:none;stroke:black;stroke-width:3" />
<circle cx="1026.97" cy="31.51" r="5" stroke-width="0" fill="#FF2A00" opacity="0.7" />
<path d="M1109.05,14c4.1,2.07,10.6,8.52,11.63,11.75" style="fill:none;stroke:#999;stroke-width:3" />
<path d="M1099.12,35.08c0.71,0.23,3.4,0.27,4.1,0.23c8.73-0.42,17.48-2.67,23.83-2.87c1.18-0.04,2.95,0.11,3.54,0.23" style="fill:none;stroke:#999;stroke-width:3" />
<path d="M1105.18,47.06c0.43,0.12,3.04,0.13,3.47,0.12c4.44-0.14,10.86-1.93,15.34-2.55c0.7-0.1,3.68,0.06,4.04,0.12" style="fill:none;stroke:#999;stroke-width:3" />
<path d="M1104.8,58.83c0.38,0.12,2.71,0.13,3.1,0.12c3.97-0.13,12.43-2.11,16.33-2.09c0.63,0,3.29,0.06,3.6,0.11" style="fill:none;stroke:#999;stroke-width:3" />
<path d="M1104.01,72.9c0.35,0.41,0.75,1.31,0.87,1.85c1,4.77,2.23,14.49,3.23,21.49" style="fill:none;stroke:#999;stroke-width:3" />
<path d="M1104.94,74.87c7.2-0.89,13.9-2.6,20.55-3.5c1.67-0.22,2.68,1.04,2.44,2.06C1126.94,77.68 1126.0,83.5 1124.81,91.71" style="fill:none;stroke:#999;stroke-width:3" />
<path d="M1108.42,93.55C1113.8,93 1119.6,92.57 1126.98,91.74" style="fill:none;stroke:#999;stroke-width:3" />
<path d="M1140.17,14.28c1.32,0.38,2.65,0.98,3.93,0.8c2.52-0.35,26.07-3.01,28.74-3.36s3.57,1.47,1.98,2.61c-2.73,1.96-12.79,8.34-14.47,9.74" style="fill:none;stroke:#999;stroke-width:3" />
<path d="M1152.27,20.28c2.31,1,8.3,4.34,9.38,6.95" style="fill:none;stroke:#999;stroke-width:3" />
<path d="M1135.97,31.51c0.72,0.22,3.48,0.4,5.75,0.11C1154.5,30 1174.0,27.75 1181.5,26.95c6.08-0.65-2.2,8.33-4.55,9.69" style="fill:none;stroke:#999;stroke-width:3" />
<path d="M1160.65,29.97c0.84,0.4,1.22,1.9,1.22,3.64c0,8.38,0.21,2.38,0.21,14.16c0,6.19-4.82,1.48-5.96,0.13" style="fill:none;stroke:black;stroke-width:3" />
<circle cx="1160.65" cy="29.97" r="5" stroke-width="0" fill="#FF2A00" opacity="0.7" />
<path d="M1218.05,14c4.1,2.07,10.6,8.52,11.63,11.75" style="fill:none;stroke:#999;stroke-width:3" />
<path d="M1208.12,35.08c0.71,0.23,3.4,0.27,4.1,0.23c8.73-0.42,17.48-2.67,23.83-2.87c1.18-0.04,2.95,0.11,3.54,0.23" style="fill:none;stroke:#999;stroke-width:3" />
<path d="M1214.18,47.06c0.43,0.12,3.04,0.13,3.47,0.12c4.44-0.14,10.86-1.93,15.34-2.55c0.7-0.1,3.68,0.06,4.04,0.12" style="fill:none;stroke:#999;stroke-width:3" />
<path d="M1213.8,58.83c0.38,0.12,2.71,0.13,3.1,0.12c3.97-0.13,12.43-2.11,16.33-2.09c0.63,0,3.29,0.06,3.6,0.11" style="fill:none;stroke:#999;stroke-width:3" />
<path d="M1213.01,72.9c0.35,0.41,0.75,1.31,0.87,1.85c1,4.77,2.23,14.49,3.23,21.49" style="fill:none;stroke:#999;stroke-width:3" />
<path d="M1213.94,74.87c7.2-0.89,13.9-2.6,20.55-3.5c1.67-0.22,2.68,1.04,2.44,2.06C1235.94,77.68 1235.0,83.5 1233.81,91.71" style="fill:none;stroke:#999;stroke-width:3" />
<path d="M1217.42,93.55C1222.8,93 1228.6,92.57 1235.98,91.74" style="fill:none;stroke:#999;stroke-width:3" />
<path d="M1249.17,14.28c1.32,0.38,2.65,0.98,3.93,0.8c2.52-0.35,26.07-3.01,28.74-3.36s3.57,1.47,1.98,2.61c-2.73,1.96-12.79,8.34-14.47,9.74" style="fill:none;stroke:#999;stroke-width:3" />
<path d="M1261.27,20.28c2.31,1,8.3,4.34,9.38,6.95" style="fill:none;stroke:#999;stroke-width:3" />
<path d="M1244.97,31.51c0.72,0.22,3.48,0.4,5.75,0.11C1263.5,30 1283.0,27.75 1290.5,26.95c6.08-0.65-2.2,8.33-4.55,9.69" style="fill:none;stroke:#999;stroke-width:3" />
<path d="M1269.65,29.97c0.84,0.4,1.22,1.9,1.22,3.64c0,8.38,0.21,2.38,0.21,14.16c0,6.19-4.82,1.48-5.96,0.13" style="fill:none;stroke:#999;stroke-width:3" />
<path d="M1266.99,30.13c0.06,0.46,0.27,1.25-0.12,1.86c-3.53,5.37-10.62,12.26-21.61,17.78" style="fill:none;stroke:black;stroke-width:3" />
<circle cx="1266.99" cy="30.13" r="5" stroke-width="0" fill="#FF2A00" opacity="0.7" />
<path d="M1327.05,14c4.1,2.07,10.6,8.52,11.63,11.75" style="fill:none;stroke:#999;stroke-width:3" />
<path d="M1317.12,35.08c0.71,0.23,3.4,0.27,4.1,0.23c8.73-0.42,17.48-2.67,23.83-2.87c1.18-0.04,2.95,0.11,3.54,0.23" style="fill:none;stroke:#999;stroke-width:3" />
<path d="M1323.18,47.06c0.43,0.12,3.04,0.13,3.47,0.12c4.44-0.14,10.86-1.93,15.34-2.55c0.7-0.1,3.68,0.06,4.04,0.12" style="fill:none;stroke:#999;stroke-width:3" />
<path d="M1322.8,58.83c0.38,0.12,2.71,0.13,3.1,0.12c3.97-0.13,12.43-2.11,16.33-2.09c0.63,0,3.29,0.06,3.6,0.11" style="fill:none;stroke:#999;stroke-width:3" />
<path d="M1322.01,72.9c0.35,0.41,0.75,1.31,0.87,1.85c1,4.77,2.23,14.49,3.23,21.49" style="fill:none;stroke:#999;stroke-width:3" />
<path d="M1322.94,74.87c7.2-0.89,13.9-2.6,20.55-3.5c1.67-0.22,2.68,1.04,2.44,2.06C1344.94,77.68 1344.0,83.5 1342.81,91.71" style="fill:none;stroke:#999;stroke-width:3" />
<path d="M1326.42,93.55C1331.8,93 1337.6,92.57 1344.98,91.74" style="fill:none;stroke:#999;stroke-width:3" />
<path d="M1358.17,14.28c1.32,0.38,2.65,0.98,3.93,0.8c2.52-0.35,26.07-3.01,28.74-3.36s3.57,1.47,1.98,2.61c-2.73,1.96-12.79,8.34-14.47,9.74" style="fill:none;stroke:#999;stroke-width:3" />
<path d="M1370.27,20.28c2.31,1,8.3,4.34,9.38,6.95" style="fill:none;stroke:#999;stroke-width:3" />
<path d="M1353.97,31.51c0.72,0.22,3.48,0.4,5.75,0.11C1372.5,30 1392.0,27.75 1399.5,26.95c6.08-0.65-2.2,8.33-4.55,9.69" style="fill:none;stroke:#999;stroke-width:3" />
<path d="M1378.65,29.97c0.84,0.4,1.22,1.9,1.22,3.64c0,8.38,0.21,2.38,0.21,14.16c0,6.19-4.82,1.48-5.96,0.13" style="fill:none;stroke:#999;stroke-width:3" />
<path d="M1375.99,30.13c0.06,0.46,0.27,1.25-0.12,1.86c-3.53,5.37-10.62,12.26-21.61,17.78" style="fill:none;stroke:#999;stroke-width:3" />
<path d="M1358.19,57.56c0.53,0.7,0.71,1.12,0.71,2.18c0,1.2,0.18,36.97,0.18,38.97" style="fill:none;stroke:black;stroke-width:3" />
<circle cx="1358.19" cy="57.56" r="5" stroke-width="0" fill="#FF2A00" opacity="0.7" />
<path d="M1436.05,14c4.1,2.07,10.6,8.52,11.63,11.75" style="fill:none;stroke:#999;stroke-width:3" />
<path d="M1426.12,35.08c0.71,0.23,3.4,0.27,4.1,0.23c8.73-0.42,17.48-2.67,23.83-2.87c1.18-0.04,2.95,0.11,3.54,0.23" style="fill:none;stroke:#999;stroke-width:3" />
<path d="M1432.18,47.06c0.43,0.12,3.04,0.13,3.47,0.12c4.44-0.14,10.86-1.93,15.34-2.55c0.7-0.1,3.68,0.06,4.04,0.12" style="fill:none;stroke:#999;stroke-width:3" />
<path d="M1431.8,58.83c0.38,0.12,2.71,0.13,3.1,0.12c3.97-0.13,12.43-2.11,16.33-2.09c0.63,0,3.29,0.06,3.6,0.11" style="fill:none;stroke:#999;stroke-width:3" />
<path d="M1431.01,72.9c0.35,0.41,0.75,1.31,0.87,1.85c1,4.77,2.23,14.49,3.23,21.49" style="fill:none;stroke:#999;stroke-width:3" />
<path d="M1431.94,74.87c7.2-0.89,13.9-2.6,20.55-3.5c1.67-0.22,2.68,1.04,2.44,2.06C1453.94,77.68 1453.0,83.5 1451.81,91.71" style="fill:none;stroke:#999;stroke-width:3" />
<path d="M1435.42,93.55C1440.8,93 1446.6,92.57 1453.98,91.74" style="fill:none;stroke:#999;stroke-width:3" />
<path d="M1467.17,14.28c1.32,0.38,2.65,0.98,3.93,0.8c2.52-0.35,26.07-3.01,28.74-3.36s3.57,1.47,1.98,2.61c-2.73,1.96-12.79,8.34-14.47,9.74" style="fill:none;stroke:#999;stroke-width:3" />
<path d="M1479.27,20.28c2.31,1,8.3,4.34,9.38,6.95" style="fill:none;stroke:#999;stroke-width:3" />
<path d="M1462.97,31.51c0.72,0.22,3.48,0.4,5.75,0.11C1481.5,30 1501.0,27.75 1508.5,26.95c6.08-0.65-2.2,8.33-4.55,9.69" style="fill:none;stroke:#999;stroke-width:3" />
<path d="M1487.65,29.97c0.84,0.4,1.22,1.9,1.22,3.64c0,8.38,0.21,2.38,0.21,14.16c0,6.19-4.82,1.48-5.96,0.13" style="fill:none;stroke:#999;stroke-width:3" />
<path d="M1484.99,30.13c0.06,0.46,0.27,1.25-0.12,1.86c-3.53,5.37-10.62,12.26-21.61,17.78" style="fill:none;stroke:#999;stroke-width:3" />
<path d="M1467.19,57.56c0.53,0.7,0.71,1.12,0.71,2.18c0,1.2,0.18,36.97,0.18,38.97" style="fill:none;stroke:#999;stroke-width:3" />
<path d="M1468.85,58.76c8.65-1.01,35.5-3.28,36.64-3.52c3.05-0.63,4.26,1.15,4.35,5.04c0.03,1.16-0.65,28.26-0.79,30.91c-0.49,8.69-5.71,2.32-7.85,0.54" style="fill:none;stroke:black;stroke-width:3" />
<circle cx="1468.85" cy="58.76" r="5" stroke-width="0" fill="#FF2A00" opacity="0.7" />
<path d="M1545.05,14c4.1,2.07,10.6,8.52,11.63,11.75" style="fill:none;stroke:#999;stroke-width:3" />
<path d="M1535.12,35.08c0.71,0.23,3.4,0.27,4.1,0.23c8.73-0.42,17.48-2.67,23.83-2.87c1.18-0.04,2.95,0.11,3.54,0.23" style="fill:none;stroke:#999;stroke-width:3" />
<path d="M1541.18,47.06c0.43,0.12,3.04,0.13,3.47,0.12c4.44-0.14,10.86-1.93,15.34-2.55c0.7-0.1,3.68,0.06,4.04,0.12" style="fill:none;stroke:#999;stroke-width:3" />
<path d="M1540.8,58.83c0.38,0.12,2.71,0.13,3.1,0.12c3.97-0.13,12.43-2.11,16.33-2.09c0.63,0,3.29,0.06,3.6,0.11" style="fill:none;stroke:#999;stroke-width:3" />
<path d="M1540.01,72.9c0.35,0.41,0.75,1.31,0.87,1.85c1,4.77,2.23,14.49,3.23,21.49" style="fill:none;stroke:#999;stroke-width:3" />
<path d="M1540.94,74.87c7.2-0.89,13.9-2.6,20.55-3.5c1.67-0.22,2.68,1.04,2.44,2.06C1562.94,77.68 1562.0,83.5 1560.81,91.71" style="fill:none;stroke:#999;stroke-width:3" />
<path d="M1544.42,93.55C1549.8,93 1555.6,92.57 1562.98,91.74" style="fill:none;stroke:#999;stroke-width:3" />
<path d="M1576.17,14.28c1.32,0.38,2.65,0.98,3.93,0.8c2.52-0.35,26.07-3.01,28.74-3.36s3.57,1.47,1.98,2.61c-2.73,1.96-12.79,8.34-14.47,9.74" style="fill:none;stroke:#999;stroke-width:3" />
<path d="M1588.27,20.28c2.31,1,8.3,4.34,9.38,6.95" style="fill:none;stroke:#999;stroke-width:3" />
<path d="M1571.97,31.51c0.72,0.22,3.48,0.4,5.75,0.11C1590.5,30 1610.0,27.75 1617.5,26.95c6.08-0.65-2.2,8.33-4.55,9.69" style="fill:none;stroke:#999;stroke-width:3" />
<path d="M1596.65,29.97c0.84,0.4,1.22,1.9,1.22,3.64c0,8.38,0.21,2.38,0.21,14.16c0,6.19-4.82,1.48-5.96,0.13" style="fill:none;stroke:#999;stroke-width:3" />
<path d="M1593.99,30.13c0.06,0.46,0.27,1.25-0.12,1.86c-3.53,5.37-10.62,12.26-21.61,17.78" style="fill:none;stroke:#999;stroke-width:3" />
<path d="M1576.19,57.56c0.53,0.7,0.71,1.12,0.71,2.18c0,1.2,0.18,36.97,0.18,38.97" style="fill:none;stroke:#999;stroke-width:3" />
<path d="M1577.85,58.76c8.65-1.01,35.5-3.28,36.64-3.52c3.05-0.63,4.26,1.15,4.35,5.04c0.03,1.16-0.65,28.26-0.79,30.91c-0.49,8.69-5.71,2.32-7.85,0.54" style="fill:none;stroke:#999;stroke-width:3" />
<path d="M1590.38,58.33c0.04,0.74,0.43,0.75,0.3,1.58c-0.92,5.74-3.09,10.69-8.56,14.34" style="fill:none;stroke:black;stroke-width:3" />
<circle cx="1590.38" cy="58.33" r="5" stroke-width="0" fill="#FF2A00" opacity="0.7" />
<path d="M1654.05,14c4.1,2.07,10.6,8.52,11.63,11.75" style="fill:none;stroke:#999;stroke-width:3" />
<path d="M1644.12,35.08c0.71,0.23,3.4,0.27,4.1,0.23c8.73-0.42,17.48-2.67,23.83-2.87c1.18-0.04,2.95,0.11,3.54,0.23" style="fill:none;stroke:#999;stroke-width:3" />
<path d="M1650.18,47.06c0.43,0.12,3.04,0.13,3.47,0.12c4.44-0.14,10.86-1.93,15.34-2.55c0.7-0.1,3.68,0.06,4.04,0.12" style="fill:none;stroke:#999;stroke-width:3" />
<path d="M1649.8,58.83c0.38,0.12,2.71,0.13,3.1,0.12c3.97-0.13,12.43-2.11,16.33-2.09c0.63,0,3.29,0.06,3.6,0.11" style="fill:none;stroke:#999;stroke-width:3" />
<path d="M1649.01,72.9c0.35,0.41,0.75,1.31,0.87,1.85c1,4.77,2.23,14.49,3.23,21.49" style="fill:none;stroke:#999;stroke-width:3" />
<path d="M1649.94,74.87c7.2-0.89,13.9-2.6,20.55-3.5c1.67-0.22,2.68,1.04,2.44,2.06C1671.94,77.68 1671.0,83.5 1669.81,91.71" style="fill:none;stroke:#999;stroke-width:3" />
<path d="M1653.42,93.55C1658.8,93 1664.6,92.57 1671.98,91.74" style="fill:none;stroke:#999;stroke-width:3" />
<path d="M1685.17,14.28c1.32,0.38,2.65,0.98,3.93,0.8c2.52-0.35,26.07-3.01,28.74-3.36s3.57,1.47,1.98,2.61c-2.73,1.96-12.79,8.34-14.47,9.74" style="fill:none;stroke:#999;stroke-width:3" />
<path d="M1697.27,20.28c2.31,1,8.3,4.34,9.38,6.95" style="fill:none;stroke:#999;stroke-width:3" />
<path d="M1680.97,31.51c0.72,0.22,3.48,0.4,5.75,0.11C1699.5,30 1719.0,27.75 1726.5,26.95c6.08-0.65-2.2,8.33-4.55,9.69" style="fill:none;stroke:#999;stroke-width:3" />
<path d="M1705.65,29.97c0.84,0.4,1.22,1.9,1.22,3.64c0,8.38,0.21,2.38,0.21,14.16c0,6.19-4.82,1.48-5.96,0.13" style="fill:none;stroke:#999;stroke-width:3" />
<path d="M1702.99,30.13c0.06,0.46,0.27,1.25-0.12,1.86c-3.53,5.37-10.62,12.26-21.61,17.78" style="fill:none;stroke:#999;stroke-width:3" />
<path d="M1685.19,57.56c0.53,0.7,0.71,1.12,0.71,2.18c0,1.2,0.18,36.97,0.18,38.97" style="fill:none;stroke:#999;stroke-width:3" />
<path d="M1686.85,58.76c8.65-1.01,35.5-3.28,36.64-3.52c3.05-0.63,4.26,1.15,4.35,5.04c0.03,1.16-0.65,28.26-0.79,30.91c-0.49,8.69-5.71,2.32-7.85,0.54" style="fill:none;stroke:#999;stroke-width:3" />
<path d="M1699.38,58.33c0.04,0.74,0.43,0.75,0.3,1.58c-0.92,5.74-3.09,10.69-8.56,14.34" style="fill:none;stroke:#999;stroke-width:3" />
<path d="M1708.63,57.24c0.27,0.45,0.49,0.98,0.51,1.65c0.07,2.97-0.2,5.15-0.2,7.17c0,2.44,1.06,3.53,5.51,3.53c1.54,0,5.65-0.73,6.13-1.03" style="fill:none;stroke:black;stroke-width:3" />
<circle cx="1708.63" cy="57.24" r="5" stroke-width="0" fill="#FF2A00" opacity="0.7" />
<path d="M1763.05,14c4.1,2.07,10.6,8.52,11.63,11.75" style="fill:none;stroke:#999;stroke-width:3" />
<path d="M1753.12,35.08c0.71,0.23,3.4,0.27,4.1,0.23c8.73-0.42,17.48-2.67,23.83-2.87c1.18-0.04,2.95,0.11,3.54,0.23" style="fill:none;stroke:#999;stroke-width:3" />
<path d="M1759.18,47.06c0.43,0.12,3.04,0.13,3.47,0.12c4.44-0.14,10.86-1.93,15.34-2.55c0.7-0.1,3.68,0.06,4.04,0.12" style="fill:none;stroke:#999;stroke-width:3" />
<path d="M1758.8,58.83c0.38,0.12,2.71,0.13,3.1,0.12c3.97-0.13,12.43-2.11,16.33-2.09c0.63,0,3.29,0.06,3.6,0.11" style="fill:none;stroke:#999;stroke-width:3" />
<path d="M1758.01,72.9c0.35,0.41,0.75,1.31,0.87,1.85c1,4.77,2.23,14.49,3.23,21.49" style="fill:none;stroke:#999;stroke-width:3" />
<path d="M1758.94,74.87c7.2-0.89,13.9-2.6,20.55-3.5c1.67-0.22,2.68,1.04,2.44,2.06C1780.94,77.68 1780.0,83.5 1778.81,91.71" style="fill:none;stroke:#999;stroke-width:3" />
<path d="M1762.42,93.55C1767.8,93 1773.6,92.57 1780.98,91.74" style="fill:none;stroke:#999;stroke-width:3" />
<path d="M1794.17,14.28c1.32,0.38,2.65,0.98,3.93,0.8c2.52-0.35,26.07-3.01,28.74-3.36s3.57,1.47,1.98,2.61c-2.73,1.96-12.79,8.34-14.47,9.74" style="fill:none;stroke:#999;stroke-width:3" />
<path d="M1806.27,20.28c2.31,1,8.3,4.34,9.38,6.95" style="fill:none;stroke:#999;stroke-width:3" />
<path d="M1789.97,31.51c0.72,0.22,3.48,0.4,5.75,0.11C1808.5,30 1828.0,27.75 1835.5,26.95c6.08-0.65-2.2,8.33-4.55,9.69" style="fill:none;stroke:#999;stroke-width:3" />
<path d="M1814.65,29.97c0.84,0.4,1.22,1.9,1.22,3.64c0,8.38,0.21,2.38,0.21,14.16c0,6.19-4.82,1.48-5.96,0.13" style="fill:none;stroke:#999;stroke-width:3" />
<path d="M1811.99,30.13c0.06,0.46,0.27,1.25-0.12,1.86c-3.53,5.37-10.62,12.26-21.61,17.78" style="fill:none;stroke:#999;stroke-width:3" />
<path d="M1794.19,57.56c0.53,0.7,0.71,1.12,0.71,2.18c0,1.2,0.18,36.97,0.18,38.97" style="fill:none;stroke:#999;stroke-width:3" />
<path d="M1795.85,58.76c8.65-1.01,35.5-3.28,36.64-3.52c3.05-0.63,4.26,1.15,4.35,5.04c0.03,1.16-0.65,28.26-0.79,30.91c-0.49,8.69-5.71,2.32-7.85,0.54" style="fill:none;stroke:#999;stroke-width:3" />
<path d="M1808.38,58.33c0.04,0.74,0.43,0.75,0.3,1.58c-0.92,5.74-3.09,10.69-8.56,14.34" style="fill:none;stroke:#999;stroke-width:3" />
<path d="M1817.63,57.24c0.27,0.45,0.49,0.98,0.51,1.65c0.07,2.97-0.2,5.15-0.2,7.17c0,2.44,1.06,3.53,5.51,3.53c1.54,0,5.65-0.73,6.13-1.03" style="fill:none;stroke:#999;stroke-width:3" />
<path d="M1805.38,77.54c0.23,0.24,0.46,0.45,0.56,0.74c0.78,2.31,1.46,8.56,1.99,12.64" style="fill:none;stroke:black;stroke-width:3" />
<circle cx="1805.38" cy="77.54" r="5" stroke-width="0" fill="#FF2A00" opacity="0.7" />
<path d="M1872.05,14c4.1,2.07,10.6,8.52,11.63,11.75" style="fill:none;stroke:#999;stroke-width:3" />
<path d="M1862.12,35.08c0.71,0.23,3.4,0.27,4.1,0.23c8.73-0.42,17.48-2.67,23.83-2.87c1.18-0.04,2.95,0.11,3.54,0.23" style="fill:none;stroke:#999;stroke-width:3" />
<path d="M1868.18,47.06c0.43,0.12,3.04,0.13,3.47,0.12c4.44-0.14,10.86-1.93,15.34-2.55c0.7-0.1,3.68,0.06,4.04,0.12" style="fill:none;stroke:#999;stroke-width:3" />
<path d="M1867.8,58.83c0.38,0.12,2.71,0.13,3.1,0.12c3.97-0.13,12.43-2.11,16.33-2.09c0.63,0,3.29,0.06,3.6,0.11" style="fill:none;stroke:#999;stroke-width:3" />
<path d="M1867.01,72.9c0.35,0.41,0.75,1.31,0.87,1.85c1,4.77,2.23,14.49,3.23,21.49" style="fill:none;stroke:#999;stroke-width:3" />
<path d="M1867.94,74.87c7.2-0.89,13.9-2.6,20.55-3.5c1.67-0.22,2.68,1.04,2.44,2.06C1889.94,77.68 1889.0,83.5 1887.81,91.71" style="fill:none;stroke:#999;stroke-width:3" />
<path d="M1871.42,93.55C1876.8,93 1882.6,92.57 1889.98,91.74" style="fill:none;stroke:#999;stroke-width:3" />
<path d="M1903.17,14.28c1.32,0.38,2.65,0.98,3.93,0.8c2.52-0.35,26.07-3.01,28.74-3.36s3.57,1.47,1.98,2.61c-2.73,1.96-12.79,8.34-14.47,9.74" style="fill:none;stroke:#999;stroke-width:3" />
<path d="M1915.27,20.28c2.31,1,8.3,4.34,9.38,6.95" style="fill:none;stroke:#999;stroke-width:3" />
<path d="M1898.97,31.51c0.72,0.22,3.48,0.4,5.75,0.11C1917.5,30 1937.0,27.75 1944.5,26.95c6.08-0.65-2.2,8.33-4.55,9.69" style="fill:none;stroke:#999;stroke-width:3" />
<path d="M1923.65,29.97c0.84,0.4,1.22,1.9,1.22,3.64c0,8.38,0.21,2.38,0.21,14.16c0,6.19-4.82,1.48-5.96,0.13" style="fill:none;stroke:#999;stroke-width:3" />
<path d="M1920.99,30.13c0.06,0.46,0.27,1.25-0.12,1.86c-3.53,5.37-10.62,12.26-21.61,17.78" style="fill:none;stroke:#999;stroke-width:3" />
<path d="M1903.19,57.56c0.53,0.7,0.71,1.12,0.71,2.18c0,1.2,0.18,36.97,0.18,38.97" style="fill:none;stroke:#999;stroke-width:3" />
<path d="M1904.85,58.76c8.65-1.01,35.5-3.28,36.64-3.52c3.05-0.63,4.26,1.15,4.35,5.04c0.03,1.16-0.65,28.26-0.79,30.91c-0.49,8.69-5.71,2.32-7.85,0.54" style="fill:none;stroke:#999;stroke-width:3" />
<path d="M1917.38,58.33c0.04,0.74,0.43,0.75,0.3,1.58c-0.92,5.74-3.09,10.69-8.56,14.34" style="fill:none;stroke:#999;stroke-width:3" />
<path d="M1926.63,57.24c0.27,0.45,0.49,0.98,0.51,1.65c0.07,2.97-0.2,5.15-0.2,7.17c0,2.44,1.06,3.53,5.51,3.53c1.54,0,5.65-0.73,6.13-1.03" style="fill:none;stroke:#999;stroke-width:3" />
<path d="M1914.38,77.54c0.23,0.24,0.46,0.45,0.56,0.74c0.78,2.31,1.46,8.56,1.99,12.64" style="fill:none;stroke:#999;stroke-width:3" />
<path d="M1915.78,78.08c4.63-0.41,11.6-2.14,14.25-2.25c0.97-0.04,1.55,0.75,1.41,1.38c-0.63,2.86-0.56,6.97-1.35,10.27" style="fill:none;stroke:black;stroke-width:3" />
<circle cx="1915.78" cy="78.08" r="5" stroke-width="0" fill="#FF2A00" opacity="0.7" />
<path d="M1981.05,14c4.1,2.07,10.6,8.52,11.63,11.75" style="fill:none;stroke:#999;stroke-width:3" />
<path d="M1971.12,35.08c0.71,0.23,3.4,0.27,4.1,0.23c8.73-0.42,17.48-2.67,23.83-2.87c1.18-0.04,2.95,0.11,3.54,0.23" style="fill:none;stroke:#999;stroke-width:3" />
<path d="M1977.18,47.06c0.43,0.12,3.04,0.13,3.47,0.12c4.44-0.14,10.86-1.93,15.34-2.55c0.7-0.1,3.68,0.06,4.04,0.12" style="fill:none;stroke:#999;stroke-width:3" />
<path d="M1976.8,58.83c0.38,0.12,2.71,0.13,3.1,0.12c3.97-0.13,12.43-2.11,16.33-2.09c0.63,0,3.29,0.06,3.6,0.11" style="fill:none;stroke:#999;stroke-width:3" />
<path d="M1976.01,72.9c0.35,0.41,0.75,1.31,0.87,1.85c1,4.77,2.23,14.49,3.23,21.49" style="fill:none;stroke:#999;stroke-width:3" />
<path d="M1976.94,74.87c7.2-0.89,13.9-2.6,20.55-3.5c1.67-0.22,2.68,1.04,2.44,2.06C1998.94,77.68 1998.0,83.5 1996.81,91.71" style="fill:none;stroke:#999;stroke-width:3" />
<path d="M1980.42,93.55C1985.8,93 1991.6,92.57 1998.98,91.74" style="fill:none;stroke:#999;stroke-width:3" />
<path d="M2012.17,14.28c1.32,0.38,2.65,0.98,3.93,0.8c2.52-0.35,26.07-3.01,28.74-3.36s3.57,1.47,1.98,2.61c-2.73,1.96-12.79,8.34-14.47,9.74" style="fill:none;stroke:#999;stroke-width:3" />
<path d="M2024.27,20.28c2.31,1,8.3,4.34,9.38,6.95" style="fill:none;stroke:#999;stroke-width:3" />
<path d="M2007.97,31.51c0.72,0.22,3.48,0.4,5.75,0.11C2026.5,30 2046.0,27.75 2053.5,26.95c6.08-0.65-2.2,8.33-4.55,9.69" style="fill:none;stroke:#999;stroke-width:3" />
<path d="M2032.65,29.97c0.84,0.4,1.22,1.9,1.22,3.64c0,8.38,0.21,2.38,0.21,14.16c0,6.19-4.82,1.48-5.96,0.13" style="fill:none;stroke:#999;stroke-width:3" />
<path d="M2029.99,30.13c0.06,0.46,0.27,1.25-0.12,1.86c-3.53,5.37-10.62,12.26-21.61,17.78" style="fill:none;stroke:#999;stroke-width:3" />
<path d="M2012.19,57.56c0.53,0.7,0.71,1.12,0.71,2.18c0,1.2,0.18,36.97,0.18,38.97" style="fill:none;stroke:#999;stroke-width:3" />
<path d="M2013.85,58.76c8.65-1.01,35.5-3.28,36.64-3.52c3.05-0.63,4.26,1.15,4.35,5.04c0.03,1.16-0.65,28.26-0.79,30.91c-0.49,8.69-5.71,2.32-7.85,0.54" style="fill:none;stroke:#999;stroke-width:3" />
<path d="M2026.38,58.33c0.04,0.74,0.43,0.75,0.3,1.58c-0.92,5.74-3.09,10.69-8.56,14.34" style="fill:none;stroke:#999;stroke-width:3" />
<path d="M2035.63,57.24c0.27,0.45,0.49,0.98,0.51,1.65c0.07,2.97-0.2,5.15-0.2,7.17c0,2.44,1.06,3.53,5.51,3.53c1.54,0,5.65-0.73,6.13-1.03" style="fill:none;stroke:#999;stroke-width:3" />
<path d="M2023.38,77.54c0.23,0.24,0.46,0.45,0.56,0.74c0.78,2.31,1.46,8.56,1.99,12.64" style="fill:none;stroke:#999;stroke-width:3" />
<path d="M2024.78,78.08c4.63-0.41,11.6-2.14,14.25-2.25c0.97-0.04,1.55,0.75,1.41,1.38c-0.63,2.86-0.56,6.97-1.35,10.27" style="fill:none;stroke:#999;stroke-width:3" />
<path d="M2026.03,89.73c3.11-0.11,9.77-0.85,14.04-1.06" style="fill:none;stroke:black;stroke-width:3" />
<circle cx="2026.03" cy="89.73" r="5" stroke-width="0" fill="#FF2A00" opacity="0.7" />
</svg>