<!-- 08cb6 -->
<svg width="1199px" height="109px" viewBox="0 0 1199px 109px" xmlns="http://www.w3.org/2000/svg" xmlns:xlink="http://www.w3.org/1999/xlink" xml:space="preserve" version="1.1"  baseProfile="full">
<line x1="1" y1="1" x2="1198" y2="1" style="stroke:#ddd;stroke-width:2" />
<line x1="1" y1="1" x2="1" y2="108" style="stroke:#ddd;stroke-width:2" />
<line x1="1" y1="108" x2="1198" y2="108" style="stroke:#ddd;stroke-width:2" />
<line x1="1198" y1="1" x2="1198" y2="108" style="stroke:#ddd;stroke-width:2" />
<line x1="109" y1="1" x2="109" y2="108" style="stroke:#ddd;stroke-width:2" />
<line x1="218" y1="1" x2="218" y2="108" style="stroke:#ddd;stroke-width:2" />
<line x1="327" y1="1" x2="327" y2="108" style="stroke:#ddd;stroke-width:2" />
<line x1="436" y1="1" x2="436" y2="108" style="stroke:#ddd;stroke-width:2" />
<line x1="545" y1="1" x2="545" y2="108" style="stroke:#ddd;stroke-width:2" />
<line x1="654" y1="1" x2="654" y2="108" style="stroke:#ddd;stroke-width:2" />
<line x1="763" y1="1" x2="763" y2="108" style="stroke:#ddd;stroke-width:2" />
<line x1="872" y1="1" x2="872" y2="108" style="stroke:#ddd;stroke-width:2" />
<line x1="981" y1="1" x2="981" y2="108" style="stroke:#ddd;stroke-width:2" />
<line x1="1090" y1="1" x2="1090" y2="108" style="stroke:#ddd;stroke-width:2" />
<line x1="1" y1="54" x2="1198" y2="54" style="stroke:#ddd;stroke-width:2;stroke-dasharray:3 3" />
<line x1="55" y1="1" x2="55" y2="108" style="stroke:#ddd;stroke-width:2;stroke-dasharray:3 3" />
<line x1="164" y1="1" x2="164" y2="108" style="stroke:#ddd;stroke-width:2;stroke-dasharray:3 3" />
<line x1="273" y1="1" x2="273" y2="108" style="stroke:#ddd;stroke-width:2;stroke-dasharray:3 3" />
<line x1="382" y1="1" x2="382" y2="108" style="stroke:#ddd;stroke-width:2;stroke-dasharray:3 3" />
<line x1="491" y1="1" x2="491" y2="108" style="stroke:#ddd;stroke-width:2;stroke-dasharray:3 3" />
<line x1="600" y1="1" x2="600" y2="108" style="stroke:#ddd;stroke-width:2;stroke-dasharray:3 3" />
<line x1="709" y1="1" x2="709" y2="108" style="stroke:#ddd;stroke-width:2;stroke-dasharray:3 3" />
<line x1="818" y1="1" x2="818" y2="108" style="stroke:#ddd;stroke-width:2;stroke-dasharray:3 3" />
<line x1="927" y1="1" x2="927" y2="108" style="stroke:#ddd;stroke-width:2;stroke-dasharray:3 3" />
<line x1="1036" y1="1" x2="1036" y2="108" style="stroke:#ddd;stroke-width:2;stroke-dasharray:3 3" />
<line x1="1145" y1="1" x2="1145" y2="108" style="stroke:#ddd;stroke-width:2;stroke-dasharray:3 3" />
<path d="M17.1,23.68c0.33,1.17,0.83,2.04,0.83,3.6c0,1.56-0.36,40.97-0.22,46.11" style="fill:none;stroke:black;stroke-width:3" />
<circle cx="17.1" cy="23.68" r="5" stroke-width="0" fill="#FF2A00" opacity="0.7" />
<path d="M126.1,23.68c0.33,1.17,0.83,2.04,0.83,3.6c0,1.56-0.36,40.97-0.22,46.11" style="fill:none;stroke:#999;stroke-width:3" />
<path d="M127.48,25.17c1.9-0.19,16.38-2.19,18.11-2.42c1.44-0.19,2.58,1.09,2.46,2.53c-0.15,1.83-0.14,33.97-0.5,45.67" style="fill:none;stroke:black;stroke-width:3" />
<circle cx="127.48" cy="25.17" r="5" stroke-width="0" fill="#FF2A00" opacity="0.7" />
<path d="M235.1,23.68c0.33,1.17,0.83,2.04,0.83,3.6c0,1.56-0.36,40.97-0.22,46.11" style="fill:none;stroke:#999;stroke-width:3" />
<path d="M236.48000000000002,25.17c1.9-0.19,16.38-2.19,18.11-2.42c1.44-0.19,2.58,1.09,2.46,2.53c-0.15,1.83-0.14,33.97-0.5,45.67" style="fill:none;stroke:#999;stroke-width:3" />
<path d="M235.95,42.12c5.96-0.62,17.51-2.16,20.56-2.16" style="fill:none;stroke:black;stroke-width:3" />
<circle cx="235.95" cy="42.12" r="5" stroke-width="0" fill="#FF2A00" opacity="0.7" />
<path d="M344.1,23.68c0.33,1.17,0.83,2.04,0.83,3.6c0,1.56-0.36,40.97-0.22,46.11" style="fill:none;stroke:#999;stroke-width:3" />
<path d="M345.48,25.17c1.9-0.19,16.38-2.19,18.11-2.42c1.44-0.19,2.58,1.09,2.46,2.53c-0.15,1.83-0.14,33.97-0.5,45.67" style="fill:none;stroke:#999;stroke-width:3" />
<path d="M344.95,42.12c5.96-0.62,17.51-2.16,20.56-2.16" style="fill:none;stroke:#999;stroke-width:3" />
<path d="M345.11,55.45c7.26-0.95,12.29-0.95,20.26-1.84" style="fill:none;stroke:black;stroke-width:3" />
<circle cx="345.11" cy="55.45" r="5" stroke-width="0" fill="#FF2A00" opacity="0.7" />
<path d="M453.1,23.68c0.33,1.17,0.83,2.04,0.83,3.6c0,1.56-0.36,40.97-0.22,46.11" style="fill:none;stroke:#999;stroke-width:3" />
<path d="M454.48,25.17c1.9-0.19,16.38-2.19,18.11-2.42c1.44-0.19,2.58,1.09,2.46,2.53c-0.15,1.83-0.14,33.97-0.5,45.67" style="fill:none;stroke:#999;stroke-width:3" />
<path d="M453.95,42.12c5.96-0.62,17.51-2.16,20.56-2.16" style="fill:none;stroke:#999;stroke-width:3" />
<path d="M454.11,55.45c7.26-0.95,12.29-0.95,20.26-1.84" style="fill:none;stroke:#999;stroke-width:3" />
<path d="M453.6,70.48c3.77,0,15.96-1.34,20.85-1.34" style="fill:none;stroke:black;stroke-width:3" />
<circle cx="453.6" cy="70.48" r="5" stroke-width="0" fill="#FF2A00" opacity="0.7" />
<path d="M562.1,23.68c0.33,1.17,0.83,2.04,0.83,3.6c0,1.56-0.36,40.97-0.22,46.11" style="fill:none;stroke:#999;stroke-width:3" />
<path d="M563.48,25.17c1.9-0.19,16.38-2.19,18.11-2.42c1.44-0.19,2.58,1.09,2.46,2.53c-0.15,1.83-0.14,33.97-0.5,45.67" style="fill:none;stroke:#999;stroke-width:3" />
<path d="M562.95,42.12c5.96-0.62,17.51-2.16,20.56-2.16" style="fill:none;stroke:#999;stroke-width:3" />
<path d="M563.11,55.45c7.26-0.95,12.29-0.95,20.26-1.84" style="fill:none;stroke:#999;stroke-width:3" />
<path d="M562.6,70.48c3.77,0,15.96-1.34,20.85-1.34" style="fill:none;stroke:#999;stroke-width:3" />
<path d="M567.86,77.73c0.33,1.38,0.66,1.76,0,2.76c-1.98,3.04-9.22,12.41-13.18,16" style="fill:none;stroke:black;stroke-width:3" />
<circle cx="567.86" cy="77.73" r="5" stroke-width="0" fill="#FF2A00" opacity="0.7" />
<path d="M671.1,23.68c0.33,1.17,0.83,2.04,0.83,3.6c0,1.56-0.36,40.97-0.22,46.11" style="fill:none;stroke:#999;stroke-width:3" />
<path d="M672.48,25.17c1.9-0.19,16.38-2.19,18.11-2.42c1.44-0.19,2.58,1.09,2.46,2.53c-0.15,1.83-0.14,33.97-0.5,45.67" style="fill:none;stroke:#999;stroke-width:3" />
<path d="M671.95,42.12c5.96-0.62,17.51-2.16,20.56-2.16" style="fill:none;stroke:#999;stroke-width:3" />
<path d="M672.11,55.45c7.26-0.95,12.29-0.95,20.26-1.84" style="fill:none;stroke:#999;stroke-width:3" />
<path d="M671.6,70.48c3.77,0,15.96-1.34,20.85-1.34" style="fill:none;stroke:#999;stroke-width:3" />
<path d="M676.86,77.73c0.33,1.38,0.66,1.76,0,2.76c-1.98,3.04-9.22,12.41-13.18,16" style="fill:none;stroke:#999;stroke-width:3" />
<path d="M686.33,75.45c3.36,4.02,7.32,11.31,8.24,14.83" style="fill:none;stroke:black;stroke-width:3" />
<circle cx="686.33" cy="75.45" r="5" stroke-width="0" fill="#FF2A00" opacity="0.7" />
<path d="M780.1,23.68c0.33,1.17,0.83,2.04,0.83,3.6c0,1.56-0.36,40.97-0.22,46.11" style="fill:none;stroke:#999;stroke-width:3" />
<path d="M781.48,25.17c1.9-0.19,16.38-2.19,18.11-2.42c1.44-0.19,2.58,1.09,2.46,2.53c-0.15,1.83-0.14,33.97-0.5,45.67" style="fill:none;stroke:#999;stroke-width:3" />
<path d="M780.95,42.12c5.96-0.62,17.51-2.16,20.56-2.16" style="fill:none;stroke:#999;stroke-width:3" />
<path d="M781.11,55.45c7.26-0.95,12.29-0.95,20.26-1.84" style="fill:none;stroke:#999;stroke-width:3" />
<path d="M780.6,70.48c3.77,0,15.96-1.34,20.85-1.34" style="fill:none;stroke:#999;stroke-width:3" />
<path d="M785.86,77.73c0.33,1.38,0.66,1.76,0,2.76c-1.98,3.04-9.22,12.41-13.18,16" style="fill:none;stroke:#999;stroke-width:3" />
<path d="M795.33,75.45c3.36,4.02,7.32,11.31,8.24,14.83" style="fill:none;stroke:#999;stroke-width:3" />
<path d="M847.01,14c0.09,0.41-0.59,1.75-1.18,2.14C838.5,21 828.89,24.66 811.6,29.29" style="fill:none;stroke:black;stroke-width:3" />
<circle cx="847.01" cy="14.0" r="5" stroke-width="0" fill="#FF2A00" opacity="0.7" />
<path d="M889.1,23.68c0.33,1.17,0.83,2.04,0.83,3.6c0,1.56-0.36,40.97-0.22,46.11" style="fill:none;stroke:#999;stroke-width:3" />
<path d="M890.48,25.17c1.9-0.19,16.38-2.19,18.11-2.42c1.44-0.19,2.58,1.09,2.46,2.53c-0.15,1.83-0.14,33.97-0.5,45.67" style="fill:none;stroke:#999;stroke-width:3" />
<path d="M889.95,42.12c5.96-0.62,17.51-2.16,20.56-2.16" style="fill:none;stroke:#999;stroke-width:3" />
<path d="M890.11,55.45c7.26-0.95,12.29-0.95,20.26-1.84" style="fill:none;stroke:#999;stroke-width:3" />
<path d="M889.6,70.48c3.77,0,15.96-1.34,20.85-1.34" style="fill:none;stroke:#999;stroke-width:3" />
<path d="M894.86,77.73c0.33,1.38,0.66,1.76,0,2.76c-1.98,3.04-9.22,12.41-13.18,16" style="fill:none;stroke:#999;stroke-width:3" />
<path d="M904.33,75.45c3.36,4.02,7.32,11.31,8.24,14.83" style="fill:none;stroke:#999;stroke-width:3" />
<path d="M956.01,14c0.09,0.41-0.59,1.75-1.18,2.14C947.5,21 937.89,24.66 920.6,29.29" style="fill:none;stroke:#999;stroke-width:3" />
<path d="M938.88,30.83c0.73,0.92,1.31,1.99,1.31,5.02c0,3.15-0.02,4.19-0.02,9.15" style="fill:none;stroke:black;stroke-width:3" />
<circle cx="938.88" cy="30.83" r="5" stroke-width="0" fill="#FF2A00" opacity="0.7" />
<path d="M998.1,23.68c0.33,1.17,0.83,2.04,0.83,3.6c0,1.56-0.36,40.97-0.22,46.11" style="fill:none;stroke:#999;stroke-width:3" />
<path d="M999.48,25.17c1.9-0.19,16.38-2.19,18.11-2.42c1.44-0.19,2.58,1.09,2.46,2.53c-0.15,1.83-0.14,33.97-0.5,45.67" style="fill:none;stroke:#999;stroke-width:3" />
<path d="M998.95,42.12c5.96-0.62,17.51-2.16,20.56-2.16" style="fill:none;stroke:#999;stroke-width:3" />
<path d="M999.11,55.45c7.26-0.95,12.29-0.95,20.26-1.84" style="fill:none;stroke:#999;stroke-width:3" />
<path d="M998.6,70.48c3.77,0,15.96-1.34,20.85-1.34" style="fill:none;stroke:#999;stroke-width:3" />
<path d="M1003.86,77.73c0.33,1.38,0.66,1.76,0,2.76c-1.98,3.04-9.22,12.41-13.18,16" style="fill:none;stroke:#999;stroke-width:3" />
<path d="M1013.33,75.45c3.36,4.02,7.32,11.31,8.24,14.83" style="fill:none;stroke:#999;stroke-width:3" />
<path d="M1065.01,14c0.09,0.41-0.59,1.75-1.18,2.14C1056.5,21 1046.8899999999999,24.66 1029.6,29.29" style="fill:none;stroke:#999;stroke-width:3" />
<path d="M1047.88,30.83c0.73,0.92,1.31,1.99,1.31,5.02c0,3.15-0.02,4.19-0.02,9.15" style="fill:none;stroke:#999;stroke-width:3" />
<path d="M1031.1,48.5c0.75,0.45,1.87,1,3.18,0.7c5.23-1.19,30.08-7.29,32.01-7.7c3.49-0.75,4.23,2,1.87,4.75c-10.21,11.85-24.01,24-39.31,34.5" style="fill:none;stroke:black;stroke-width:3" />
<circle cx="1031.1" cy="48.5" r="5" stroke-width="0" fill="#FF2A00" opacity="0.7" />
<path d="M1107.1,23.68c0.33,1.17,0.83,2.04,0.83,3.6c0,1.56-0.36,40.97-0.22,46.11" style="fill:none;stroke:#999;stroke-width:3" />
<path d="M1108.48,25.17c1.9-0.19,16.38-2.19,18.11-2.42c1.44-0.19,2.58,1.09,2.46,2.53c-0.15,1.83-0.14,33.97-0.5,45.67" style="fill:none;stroke:#999;stroke-width:3" />
<path d="M1107.95,42.12c5.96-0.62,17.51-2.16,20.56-2.16" style="fill:none;stroke:#999;stroke-width:3" />
<path d="M1108.1100000000001,55.45c7.26-0.95,12.29-0.95,20.26-1.84" style="fill:none;stroke:#999;stroke-width:3" />
<path d="M1107.6,70.48c3.77,0,15.96-1.34,20.85-1.34" style="fill:none;stroke:#999;stroke-width:3" />
<path d="M1112.8600000000001,77.73c0.33,1.38,0.66,1.76,0,2.76c-1.98,3.04-9.22,12.41-13.18,16" style="fill:none;stroke:#999;stroke-width:3" />
<path d="M1122.33,75.45c3.36,4.02,7.32,11.31,8.24,14.83" style="fill:none;stroke:#999;stroke-width:3" />
<path d="M1174.01,14c0.09,0.41-0.59,1.75-1.18,2.14C1165.5,21 1155.8899999999999,24.66 1138.6,29.29" style="fill:none;stroke:#999;stroke-width:3" />
<path d="M1156.88,30.83c0.73,0.92,1.31,1.99,1.31,5.02c0,3.15-0.02,4.19-0.02,9.15" style="fill:none;stroke:#999;stroke-width:3" />
<path d="M1140.1,48.5c0.75,0.45,1.87,1,3.18,0.7c5.23-1.19,30.08-7.29,32.01-7.7c3.49-0.75,4.23,2,1.87,4.75c-10.21,11.85-24.01,24-39.31,34.5" style="fill:none;stroke:#999;stroke-width:3" />
<path d="M1136.0,80.97c2.5-0.22,5.01,0.19,8.01,0.94c3,0.75,21.01,5.55,24.04,6.25c6.95,1.6,9.95,2.35,16.7,3.06" style="fill:none;stroke:black;stroke-width:3" />
<circle cx="1136.0" cy="80.97" r="5" stroke-width="0" fill="#FF2A00" opacity="0.7" />
</svg>