<!-- 08cde -->
<svg width="1635px" height="109px" viewBox="0 0 1635px 109px" xmlns="http://www.w3.org/2000/svg" xmlns:xlink="http://www.w3.org/1999/xlink" xml:space="preserve" version="1.1"  baseProfile="full">
<line x1="1" y1="1" x2="1634" y2="1" style="stroke:#ddd;stroke-width:2" />
<line x1="1" y1="1" x2="1" y2="108" style="stroke:#ddd;stroke-width:2" />
<line x1="1" y1="108" x2="1634" y2="108" style="stroke:#ddd;stroke-width:2" />
<line x1="1634" y1="1" x2="1634" y2="108" style="stroke:#ddd;stroke-width:2" />
<line x1="109" y1="1" x2="109" y2="108" style="stroke:#ddd;stroke-width:2" />
<line x1="218" y1="1" x2="218" y2="108" style="stroke:#ddd;stroke-width:2" />
<line x1="327" y1="1" x2="327" y2="108" style="stroke:#ddd;stroke-width:2" />
<line x1="436" y1="1" x2="436" y2="108" style="stroke:#ddd;stroke-width:2" />
<line x1="545" y1="1" x2="545" y2="108" style="stroke:#ddd;stroke-width:2" />
<line x1="654" y1="1" x2="654" y2="108" style="stroke:#ddd;stroke-width:2" />
<line x1="763" y1="1" x2="763" y2="108" style="stroke:#ddd;stroke-width:2" />
<line x1="872" y1="1" x2="872" y2="108" style="stroke:#ddd;stroke-width:2" />
<line x1="981" y1="1" x2="981" y2="108" style="stroke:#ddd;stroke-width:2" />
<line x1="1090" y1="1" x2="1090" y2="108" style="stroke:#ddd;stroke-width:2" />
<line x1="1199" y1="1" x2="1199" y2="108" style="stroke:#ddd;stroke-width:2" />
<line x1="1308" y1="1" x2="1308" y2="108" style="stroke:#ddd;stroke-width:2" />
<line x1="1417" y1="1" x2="1417" y2="108" style="stroke:#ddd;stroke-width:2" />
<line x1="1526" y1="1" x2="1526" y2="108" style="stroke:#ddd;stroke-width:2" />
<line x1="1" y1="54" x2="1634" y2="54" style="stroke:#ddd;stroke-width:2;stroke-dasharray:3 3" />
<line x1="55" y1="1" x2="55" y2="108" style="stroke:#ddd;stroke-width:2;stroke-dasharray:3 3" />
<line x1="164" y1="1" x2="164" y2="108" style="stroke:#ddd;stroke-width:2;stroke-dasharray:3 3" />
<line x1="273" y1="1" x2="273" y2="108" style="stroke:#ddd;stroke-width:2;stroke-dasharray:3 3" />
<line x1="382" y1="1" x2="382" y2="108" style="stroke:#ddd;stroke-width:2;stroke-dasharray:3 3" />
<line x1="491" y1="1" x2="491" y2="108" style="stroke:#ddd;stroke-width:2;stroke-dasharray:3 3" />
<line x1="600" y1="1" x2="600" y2="108" style="stroke:#ddd;stroke-width:2;stroke-dasharray:3 3" />
<line x1="709" y1="1" x2="709" y2="108" style="stroke:#ddd;stroke-width:2;stroke-dasharray:3 3" />
<line x1="818" y1="1" x2="818" y2="108" style="stroke:#ddd;stroke-width:2;stroke-dasharray:3 3" />
<line x1="927" y1="1" x2="927" y2="108" style="stroke:#ddd;stroke-width:2;stroke-dasharray:3 3" />
<line x1="1036" y1="1" x2="1036" y2="108" style="stroke:#ddd;stroke-width:2;stroke-dasharray:3 3" />
<line x1="1145" y1="1" x2="1145" y2="108" style="stroke:#ddd;stroke-width:2;stroke-dasharray:3 3" />
<line x1="1254" y1="1" x2="1254" y2="108" style="stroke:#ddd;stroke-width:2;stroke-dasharray:3 3" />
<line x1="1363" y1="1" x2="1363" y2="108" style="stroke:#ddd;stroke-width:2;stroke-dasharray:3 3" />
<line x1="1472" y1="1" x2="1472" y2="108" style="stroke:#ddd;stroke-width:2;stroke-dasharray:3 3" />
<line x1="1581" y1="1" x2="1581" y2="108" style="stroke:#ddd;stroke-width:2;stroke-dasharray:3 3" />
<path d="M52.96,10.37c0.9,0.9,1.51,2.35,1.51,3.99c0,3.14-0.01,8.77-0.01,14.76" style="fill:none;stroke:black;stroke-width:3" />
<circle cx="52.96" cy="10.37" r="5" stroke-width="0" fill="#FF2A00" opacity="0.7" />
<path d="M161.96,10.37c0.9,0.9,1.51,2.35,1.51,3.99c0,3.14-0.01,8.77-0.01,14.76" style="fill:none;stroke:#999;stroke-width:3" />
<path d="M139.88,15.12c3.24,1.83,8.37,7.5,9.18,10.34" style="fill:none;stroke:black;stroke-width:3" />
<circle cx="139.88" cy="15.12" r="5" stroke-width="0" fill="#FF2A00" opacity="0.7" />
<path d="M270.96000000000004,10.37c0.9,0.9,1.51,2.35,1.51,3.99c0,3.14-0.01,8.77-0.01,14.76" style="fill:none;stroke:#999;stroke-width:3" />
<path d="M248.88,15.12c3.24,1.83,8.37,7.5,9.18,10.34" style="fill:none;stroke:#999;stroke-width:3" />
<path d="M292.76,14.25c0,0.75-0.1,1.6-0.3,2.02c-1.58,3.35-3.83,6.73-9.02,11.69" style="fill:none;stroke:black;stroke-width:3" />
<circle cx="292.76" cy="14.25" r="5" stroke-width="0" fill="#FF2A00" opacity="0.7" />
<path d="M379.96000000000004,10.37c0.9,0.9,1.51,2.35,1.51,3.99c0,3.14-0.01,8.77-0.01,14.76" style="fill:none;stroke:#999;stroke-width:3" />
<path d="M357.88,15.12c3.24,1.83,8.37,7.5,9.18,10.34" style="fill:none;stroke:#999;stroke-width:3" />
<path d="M401.76,14.25c0,0.75-0.1,1.6-0.3,2.02c-1.58,3.35-3.83,6.73-9.02,11.69" style="fill:none;stroke:#999;stroke-width:3" />
<path d="M348.2,31.5c-0.13,4.04-2.35,13.52-3.45,15.94" style="fill:none;stroke:black;stroke-width:3" />
<circle cx="348.2" cy="31.5" r="5" stroke-width="0" fill="#FF2A00" opacity="0.7" />
<path d="M488.96000000000004,10.37c0.9,0.9,1.51,2.35,1.51,3.99c0,3.14-0.01,8.77-0.01,14.76" style="fill:none;stroke:#999;stroke-width:3" />
<path d="M466.88,15.12c3.24,1.83,8.37,7.5,9.18,10.34" style="fill:none;stroke:#999;stroke-width:3" />
<path d="M510.76,14.25c0,0.75-0.1,1.6-0.3,2.02c-1.58,3.35-3.83,6.73-9.02,11.69" style="fill:none;stroke:#999;stroke-width:3" />
<path d="M457.2,31.5c-0.13,4.04-2.35,13.52-3.45,15.94" style="fill:none;stroke:#999;stroke-width:3" />
<path d="M458.24,33.18c12.89-1.3,43.89-4.43,64.05-5.12c11.21-0.38,0.4,7.44-1.15,8.7" style="fill:none;stroke:black;stroke-width:3" />
<circle cx="458.24" cy="33.18" r="5" stroke-width="0" fill="#FF2A00" opacity="0.7" />
<path d="M597.96,10.37c0.9,0.9,1.51,2.35,1.51,3.99c0,3.14-0.01,8.77-0.01,14.76" style="fill:none;stroke:#999;stroke-width:3" />
<path d="M575.88,15.12c3.24,1.83,8.37,7.5,9.18,10.34" style="fill:none;stroke:#999;stroke-width:3" />
<path d="M619.76,14.25c0,0.75-0.1,1.6-0.3,2.02c-1.58,3.35-3.83,6.73-9.02,11.69" style="fill:none;stroke:#999;stroke-width:3" />
<path d="M566.2,31.5c-0.13,4.04-2.35,13.52-3.45,15.94" style="fill:none;stroke:#999;stroke-width:3" />
<path d="M567.24,33.18c12.89-1.3,43.89-4.43,64.05-5.12c11.21-0.38,0.4,7.44-1.15,8.7" style="fill:none;stroke:#999;stroke-width:3" />
<path d="M582.64,39.13C583.5,40 584.0,40.94 584.16,41.74c0.56,2.82,0.9,4.36,1.23,5.75c0.23,1.02,0.46,1.95,0.74,3.26" style="fill:none;stroke:black;stroke-width:3" />
<circle cx="582.64" cy="39.13" r="5" stroke-width="0" fill="#FF2A00" opacity="0.7" />
<path d="M706.96,10.37c0.9,0.9,1.51,2.35,1.51,3.99c0,3.14-0.01,8.77-0.01,14.76" style="fill:none;stroke:#999;stroke-width:3" />
<path d="M684.88,15.12c3.24,1.83,8.37,7.5,9.18,10.34" style="fill:none;stroke:#999;stroke-width:3" />
<path d="M728.76,14.25c0,0.75-0.1,1.6-0.3,2.02c-1.58,3.35-3.83,6.73-9.02,11.69" style="fill:none;stroke:#999;stroke-width:3" />
<path d="M675.2,31.5c-0.13,4.04-2.35,13.52-3.45,15.94" style="fill:none;stroke:#999;stroke-width:3" />
<path d="M676.24,33.18c12.89-1.3,43.89-4.43,64.05-5.12c11.21-0.38,0.4,7.44-1.15,8.7" style="fill:none;stroke:#999;stroke-width:3" />
<path d="M691.64,39.13C692.5,40 693.0,40.94 693.16,41.74c0.56,2.82,0.9,4.36,1.23,5.75c0.23,1.02,0.46,1.95,0.74,3.26" style="fill:none;stroke:#999;stroke-width:3" />
<path d="M693.6,40.07c4.6-0.47,21.97-2.29,28.66-3.02c2.7-0.29,4.36,0.04,3.38,3.08c-0.47,1.44-0.63,1.97-1.76,4.69" style="fill:none;stroke:black;stroke-width:3" />
<circle cx="693.6" cy="40.07" r="5" stroke-width="0" fill="#FF2A00" opacity="0.7" />
<path d="M815.96,10.37c0.9,0.9,1.51,2.35,1.51,3.99c0,3.14-0.01,8.77-0.01,14.76" style="fill:none;stroke:#999;stroke-width:3" />
<path d="M793.88,15.12c3.24,1.83,8.37,7.5,9.18,10.34" style="fill:none;stroke:#999;stroke-width:3" />
<path d="M837.76,14.25c0,0.75-0.1,1.6-0.3,2.02c-1.58,3.35-3.83,6.73-9.02,11.69" style="fill:none;stroke:#999;stroke-width:3" />
<path d="M784.2,31.5c-0.13,4.04-2.35,13.52-3.45,15.94" style="fill:none;stroke:#999;stroke-width:3" />
<path d="M785.24,33.18c12.89-1.3,43.89-4.43,64.05-5.12c11.21-0.38,0.4,7.44-1.15,8.7" style="fill:none;stroke:#999;stroke-width:3" />
<path d="M800.64,39.13C801.5,40 802.0,40.94 802.16,41.74c0.56,2.82,0.9,4.36,1.23,5.75c0.23,1.02,0.46,1.95,0.74,3.26" style="fill:none;stroke:#999;stroke-width:3" />
<path d="M802.6,40.07c4.6-0.47,21.97-2.29,28.66-3.02c2.7-0.29,4.36,0.04,3.38,3.08c-0.47,1.44-0.63,1.97-1.76,4.69" style="fill:none;stroke:#999;stroke-width:3" />
<path d="M804.44,48.46c5.74-0.62,19.2-1.95,26.94-2.44c1.1-0.07,2.09-0.12,2.92-0.16" style="fill:none;stroke:black;stroke-width:3" />
<circle cx="804.44" cy="48.46" r="5" stroke-width="0" fill="#FF2A00" opacity="0.7" />
<path d="M924.96,10.37c0.9,0.9,1.51,2.35,1.51,3.99c0,3.14-0.01,8.77-0.01,14.76" style="fill:none;stroke:#999;stroke-width:3" />
<path d="M902.88,15.12c3.24,1.83,8.37,7.5,9.18,10.34" style="fill:none;stroke:#999;stroke-width:3" />
<path d="M946.76,14.25c0,0.75-0.1,1.6-0.3,2.02c-1.58,3.35-3.83,6.73-9.02,11.69" style="fill:none;stroke:#999;stroke-width:3" />
<path d="M893.2,31.5c-0.13,4.04-2.35,13.52-3.45,15.94" style="fill:none;stroke:#999;stroke-width:3" />
<path d="M894.24,33.18c12.89-1.3,43.89-4.43,64.05-5.12c11.21-0.38,0.4,7.44-1.15,8.7" style="fill:none;stroke:#999;stroke-width:3" />
<path d="M909.64,39.13C910.5,40 911.0,40.94 911.16,41.74c0.56,2.82,0.9,4.36,1.23,5.75c0.23,1.02,0.46,1.95,0.74,3.26" style="fill:none;stroke:#999;stroke-width:3" />
<path d="M911.6,40.07c4.6-0.47,21.97-2.29,28.66-3.02c2.7-0.29,4.36,0.04,3.38,3.08c-0.47,1.44-0.63,1.97-1.76,4.69" style="fill:none;stroke:#999;stroke-width:3" />
<path d="M913.44,48.46c5.74-0.62,19.2-1.95,26.94-2.44c1.1-0.07,2.09-0.12,2.92-0.16" style="fill:none;stroke:#999;stroke-width:3" />
<path d="M909.02,55.76c0.86,0.86,1.34,2.37,1.34,3.69c0,0.65,0.01,14.42,0.01,21.05c0,2.04,0,3.41,0,3.51" style="fill:none;stroke:black;stroke-width:3" />
<circle cx="909.02" cy="55.76" r="5" stroke-width="0" fill="#FF2A00" opacity="0.7" />
<path d="M1033.96,10.37c0.9,0.9,1.51,2.35,1.51,3.99c0,3.14-0.01,8.77-0.01,14.76" style="fill:none;stroke:#999;stroke-width:3" />
<path d="M1011.88,15.12c3.24,1.83,8.37,7.5,9.18,10.34" style="fill:none;stroke:#999;stroke-width:3" />
<path d="M1055.76,14.25c0,0.75-0.1,1.6-0.3,2.02c-1.58,3.35-3.83,6.73-9.02,11.69" style="fill:none;stroke:#999;stroke-width:3" />
<path d="M1002.2,31.5c-0.13,4.04-2.35,13.52-3.45,15.94" style="fill:none;stroke:#999;stroke-width:3" />
<path d="M1003.24,33.18c12.89-1.3,43.89-4.43,64.05-5.12c11.21-0.38,0.4,7.44-1.15,8.7" style="fill:none;stroke:#999;stroke-width:3" />
<path d="M1018.64,39.13C1019.5,40 1020.0,40.94 1020.16,41.74c0.56,2.82,0.9,4.36,1.23,5.75c0.23,1.02,0.46,1.95,0.74,3.26" style="fill:none;stroke:#999;stroke-width:3" />
<path d="M1020.6,40.07c4.6-0.47,21.97-2.29,28.66-3.02c2.7-0.29,4.36,0.04,3.38,3.08c-0.47,1.44-0.63,1.97-1.76,4.69" style="fill:none;stroke:#999;stroke-width:3" />
<path d="M1022.44,48.46c5.74-0.62,19.2-1.95,26.94-2.44c1.1-0.07,2.09-0.12,2.92-0.16" style="fill:none;stroke:#999;stroke-width:3" />
<path d="M1018.02,55.76c0.86,0.86,1.34,2.37,1.34,3.69c0,0.65,0.01,14.42,0.01,21.05c0,2.04,0,3.41,0,3.51" style="fill:none;stroke:#999;stroke-width:3" />
<path d="M1020.0,56.98c8.75-0.85,26.38-2.68,29.18-2.68c3.2,0,4.12,1.08,4.12,4.58c0,5.32-0.03,13.54-0.04,19.62c0,1.7-0.01,3.24-0.01,4.5" style="fill:none;stroke:black;stroke-width:3" />
<circle cx="1020.0" cy="56.98" r="5" stroke-width="0" fill="#FF2A00" opacity="0.7" />
<path d="M1142.96,10.37c0.9,0.9,1.51,2.35,1.51,3.99c0,3.14-0.01,8.77-0.01,14.76" style="fill:none;stroke:#999;stroke-width:3" />
<path d="M1120.88,15.12c3.24,1.83,8.37,7.5,9.18,10.34" style="fill:none;stroke:#999;stroke-width:3" />
<path d="M1164.76,14.25c0,0.75-0.1,1.6-0.3,2.02c-1.58,3.35-3.83,6.73-9.02,11.69" style="fill:none;stroke:#999;stroke-width:3" />
<path d="M1111.2,31.5c-0.13,4.04-2.35,13.52-3.45,15.94" style="fill:none;stroke:#999;stroke-width:3" />
<path d="M1112.24,33.18c12.89-1.3,43.89-4.43,64.05-5.12c11.21-0.38,0.4,7.44-1.15,8.7" style="fill:none;stroke:#999;stroke-width:3" />
<path d="M1127.6399999999999,39.13C1128.5,40 1129.0,40.94 1129.1599999999999,41.74c0.56,2.82,0.9,4.36,1.23,5.75c0.23,1.02,0.46,1.95,0.74,3.26" style="fill:none;stroke:#999;stroke-width:3" />
<path d="M1129.6,40.07c4.6-0.47,21.97-2.29,28.66-3.02c2.7-0.29,4.36,0.04,3.38,3.08c-0.47,1.44-0.63,1.97-1.76,4.69" style="fill:none;stroke:#999;stroke-width:3" />
<path d="M1131.44,48.46c5.74-0.62,19.2-1.95,26.94-2.44c1.1-0.07,2.09-0.12,2.92-0.16" style="fill:none;stroke:#999;stroke-width:3" />
<path d="M1127.02,55.76c0.86,0.86,1.34,2.37,1.34,3.69c0,0.65,0.01,14.42,0.01,21.05c0,2.04,0,3.41,0,3.51" style="fill:none;stroke:#999;stroke-width:3" />
<path d="M1129.0,56.98c8.75-0.85,26.38-2.68,29.18-2.68c3.2,0,4.12,1.08,4.12,4.58c0,5.32-0.03,13.54-0.04,19.62c0,1.7-0.01,3.24-0.01,4.5" style="fill:none;stroke:#999;stroke-width:3" />
<path d="M1129.24,65.21c7.01-0.58,25.13-2.21,31.6-2.34" style="fill:none;stroke:black;stroke-width:3" />
<circle cx="1129.24" cy="65.21" r="5" stroke-width="0" fill="#FF2A00" opacity="0.7" />
<path d="M1251.96,10.37c0.9,0.9,1.51,2.35,1.51,3.99c0,3.14-0.01,8.77-0.01,14.76" style="fill:none;stroke:#999;stroke-width:3" />
<path d="M1229.88,15.12c3.24,1.83,8.37,7.5,9.18,10.34" style="fill:none;stroke:#999;stroke-width:3" />
<path d="M1273.76,14.25c0,0.75-0.1,1.6-0.3,2.02c-1.58,3.35-3.83,6.73-9.02,11.69" style="fill:none;stroke:#999;stroke-width:3" />
<path d="M1220.2,31.5c-0.13,4.04-2.35,13.52-3.45,15.94" style="fill:none;stroke:#999;stroke-width:3" />
<path d="M1221.24,33.18c12.89-1.3,43.89-4.43,64.05-5.12c11.21-0.38,0.4,7.44-1.15,8.7" style="fill:none;stroke:#999;stroke-width:3" />
<path d="M1236.6399999999999,39.13C1237.5,40 1238.0,40.94 1238.1599999999999,41.74c0.56,2.82,0.9,4.36,1.23,5.75c0.23,1.02,0.46,1.95,0.74,3.26" style="fill:none;stroke:#999;stroke-width:3" />
<path d="M1238.6,40.07c4.6-0.47,21.97-2.29,28.66-3.02c2.7-0.29,4.36,0.04,3.38,3.08c-0.47,1.44-0.63,1.97-1.76,4.69" style="fill:none;stroke:#999;stroke-width:3" />
<path d="M1240.44,48.46c5.74-0.62,19.2-1.95,26.94-2.44c1.1-0.07,2.09-0.12,2.92-0.16" style="fill:none;stroke:#999;stroke-width:3" />
<path d="M1236.02,55.76c0.86,0.86,1.34,2.37,1.34,3.69c0,0.65,0.01,14.42,0.01,21.05c0,2.04,0,3.41,0,3.51" style="fill:none;stroke:#999;stroke-width:3" />
<path d="M1238.0,56.98c8.75-0.85,26.38-2.68,29.18-2.68c3.2,0,4.12,1.08,4.12,4.58c0,5.32-0.03,13.54-0.04,19.62c0,1.7-0.01,3.24-0.01,4.5" style="fill:none;stroke:#999;stroke-width:3" />
<path d="M1238.24,65.21c7.01-0.58,25.13-2.21,31.6-2.34" style="fill:none;stroke:#999;stroke-width:3" />
<path d="M1238.54,73.28c7.84-0.53,23.71-1.53,31.24-1.88" style="fill:none;stroke:black;stroke-width:3" />
<circle cx="1238.54" cy="73.28" r="5" stroke-width="0" fill="#FF2A00" opacity="0.7" />
<path d="M1360.96,10.37c0.9,0.9,1.51,2.35,1.51,3.99c0,3.14-0.01,8.77-0.01,14.76" style="fill:none;stroke:#999;stroke-width:3" />
<path d="M1338.88,15.12c3.24,1.83,8.37,7.5,9.18,10.34" style="fill:none;stroke:#999;stroke-width:3" />
<path d="M1382.76,14.25c0,0.75-0.1,1.6-0.3,2.02c-1.58,3.35-3.83,6.73-9.02,11.69" style="fill:none;stroke:#999;stroke-width:3" />
<path d="M1329.2,31.5c-0.13,4.04-2.35,13.52-3.45,15.94" style="fill:none;stroke:#999;stroke-width:3" />
<path d="M1330.24,33.18c12.89-1.3,43.89-4.43,64.05-5.12c11.21-0.38,0.4,7.44-1.15,8.7" style="fill:none;stroke:#999;stroke-width:3" />
<path d="M1345.6399999999999,39.13C1346.5,40 1347.0,40.94 1347.1599999999999,41.74c0.56,2.82,0.9,4.36,1.23,5.75c0.23,1.02,0.46,1.95,0.74,3.26" style="fill:none;stroke:#999;stroke-width:3" />
<path d="M1347.6,40.07c4.6-0.47,21.97-2.29,28.66-3.02c2.7-0.29,4.36,0.04,3.38,3.08c-0.47,1.44-0.63,1.97-1.76,4.69" style="fill:none;stroke:#999;stroke-width:3" />
<path d="M1349.44,48.46c5.74-0.62,19.2-1.95,26.94-2.44c1.1-0.07,2.09-0.12,2.92-0.16" style="fill:none;stroke:#999;stroke-width:3" />
<path d="M1345.02,55.76c0.86,0.86,1.34,2.37,1.34,3.69c0,0.65,0.01,14.42,0.01,21.05c0,2.04,0,3.41,0,3.51" style="fill:none;stroke:#999;stroke-width:3" />
<path d="M1347.0,56.98c8.75-0.85,26.38-2.68,29.18-2.68c3.2,0,4.12,1.08,4.12,4.58c0,5.32-0.03,13.54-0.04,19.62c0,1.7-0.01,3.24-0.01,4.5" style="fill:none;stroke:#999;stroke-width:3" />
<path d="M1347.24,65.21c7.01-0.58,25.13-2.21,31.6-2.34" style="fill:none;stroke:#999;stroke-width:3" />
<path d="M1347.54,73.28c7.84-0.53,23.71-1.53,31.24-1.88" style="fill:none;stroke:#999;stroke-width:3" />
<path d="M1347.62,81.79c7.62-0.66,23.62-1.97,31.49-2.13" style="fill:none;stroke:black;stroke-width:3" />
<circle cx="1347.62" cy="81.79" r="5" stroke-width="0" fill="#FF2A00" opacity="0.7" />
<path d="M1469.96,10.37c0.9,0.9,1.51,2.35,1.51,3.99c0,3.14-0.01,8.77-0.01,14.76" style="fill:none;stroke:#999;stroke-width:3" />
<path d="M1447.88,15.12c3.24,1.83,8.37,7.5,9.18,10.34" style="fill:none;stroke:#999;stroke-width:3" />
<path d="M1491.76,14.25c0,0.75-0.1,1.6-0.3,2.02c-1.58,3.35-3.83,6.73-9.02,11.69" style="fill:none;stroke:#999;stroke-width:3" />
<path d="M1438.2,31.5c-0.13,4.04-2.35,13.52-3.45,15.94" style="fill:none;stroke:#999;stroke-width:3" />
<path d="M1439.24,33.18c12.89-1.3,43.89-4.43,64.05-5.12c11.21-0.38,0.4,7.44-1.15,8.7" style="fill:none;stroke:#999;stroke-width:3" />
<path d="M1454.6399999999999,39.13C1455.5,40 1456.0,40.94 1456.1599999999999,41.74c0.56,2.82,0.9,4.36,1.23,5.75c0.23,1.02,0.46,1.95,0.74,3.26" style="fill:none;stroke:#999;stroke-width:3" />
<path d="M1456.6,40.07c4.6-0.47,21.97-2.29,28.66-3.02c2.7-0.29,4.36,0.04,3.38,3.08c-0.47,1.44-0.63,1.97-1.76,4.69" style="fill:none;stroke:#999;stroke-width:3" />
<path d="M1458.44,48.46c5.74-0.62,19.2-1.95,26.94-2.44c1.1-0.07,2.09-0.12,2.92-0.16" style="fill:none;stroke:#999;stroke-width:3" />
<path d="M1454.02,55.76c0.86,0.86,1.34,2.37,1.34,3.69c0,0.65,0.01,14.42,0.01,21.05c0,2.04,0,3.41,0,3.51" style="fill:none;stroke:#999;stroke-width:3" />
<path d="M1456.0,56.98c8.75-0.85,26.38-2.68,29.18-2.68c3.2,0,4.12,1.08,4.12,4.58c0,5.32-0.03,13.54-0.04,19.62c0,1.7-0.01,3.24-0.01,4.5" style="fill:none;stroke:#999;stroke-width:3" />
<path d="M1456.24,65.21c7.01-0.58,25.13-2.21,31.6-2.34" style="fill:none;stroke:#999;stroke-width:3" />
<path d="M1456.54,73.28c7.84-0.53,23.71-1.53,31.24-1.88" style="fill:none;stroke:#999;stroke-width:3" />
<path d="M1456.62,81.79c7.62-0.66,23.62-1.97,31.49-2.13" style="fill:none;stroke:#999;stroke-width:3" />
<path d="M1462.72,85.25c0,1.12-0.44,2.05-1.36,2.89c-3.9,3.56-7.63,6.53-18.11,10.73" style="fill:none;stroke:black;stroke-width:3" />
<circle cx="1462.72" cy="85.25" r="5" stroke-width="0" fill="#FF2A00" opacity="0.7" />
<path d="M1578.96,10.37c0.9,0.9,1.51,2.35,1.51,3.99c0,3.14-0.01,8.77-0.01,14.76" style="fill:none;stroke:#999;stroke-width:3" />
<path d="M1556.88,15.12c3.24,1.83,8.37,7.5,9.18,10.34" style="fill:none;stroke:#999;stroke-width:3" />
<path d="M1600.76,14.25c0,0.75-0.1,1.6-0.3,2.02c-1.58,3.35-3.83,6.73-9.02,11.69" style="fill:none;stroke:#999;stroke-width:3" />
<path d="M1547.2,31.5c-0.13,4.04-2.35,13.52-3.45,15.94" style="fill:none;stroke:#999;stroke-width:3" />
<path d="M1548.24,33.18c12.89-1.3,43.89-4.43,64.05-5.12c11.21-0.38,0.4,7.44-1.15,8.7" style="fill:none;stroke:#999;stroke-width:3" />
<path d="M1563.6399999999999,39.13C1564.5,40 1565.0,40.94 1565.1599999999999,41.74c0.56,2.82,0.9,4.36,1.23,5.75c0.23,1.02,0.46,1.95,0.74,3.26" style="fill:none;stroke:#999;stroke-width:3" />
<path d="M1565.6,40.07c4.6-0.47,21.97-2.29,28.66-3.02c2.7-0.29,4.36,0.04,3.38,3.08c-0.47,1.44-0.63,1.97-1.76,4.69" style="fill:none;stroke:#999;stroke-width:3" />
<path d="M1567.44,48.46c5.74-0.62,19.2-1.95,26.94-2.44c1.1-0.07,2.09-0.12,2.92-0.16" style="fill:none;stroke:#999;stroke-width:3" />
<path d="M1563.02,55.76c0.86,0.86,1.34,2.37,1.34,3.69c0,0.65,0.01,14.42,0.01,21.05c0,2.04,0,3.41,0,3.51" style="fill:none;stroke:#999;stroke-width:3" />
<path d="M1565.0,56.98c8.75-0.85,26.38-2.68,29.18-2.68c3.2,0,4.12,1.08,4.12,4.58c0,5.32-0.03,13.54-0.04,19.62c0,1.7-0.01,3.24-0.01,4.5" style="fill:none;stroke:#999;stroke-width:3" />
<path d="M1565.24,65.21c7.01-0.58,25.13-2.21,31.6-2.34" style="fill:none;stroke:#999;stroke-width:3" />
<path d="M1565.54,73.28c7.84-0.53,23.71-1.53,31.24-1.88" style="fill:none;stroke:#999;stroke-width:3" />
<path d="M1565.62,81.79c7.62-0.66,23.62-1.97,31.49-2.13" style="fill:none;stroke:#999;stroke-width:3" />
<path d="M1571.72,85.25c0,1.12-0.44,2.05-1.36,2.89c-3.9,3.56-7.63,6.53-18.11,10.73" style="fill:none;stroke:#999;stroke-width:3" />
<path d="M1589.11,86.13c7.04,3.51,15.36,9.88,17.28,12.96" style="fill:none;stroke:black;stroke-width:3" />
<circle cx="1589.11" cy="86.13" r="5" stroke-width="0" fill="#FF2A00" opacity="0.7" />
</svg>