<!-- 08cea -->
<svg width="1635px" height="109px" viewBox="0 0 1635px 109px" xmlns="http://www.w3.org/2000/svg" xmlns:xlink="http://www.w3.org/1999/xlink" xml:space="preserve" version="1.1"  baseProfile="full">
<line x1="1" y1="1" x2="1634" y2="1" style="stroke:#ddd;stroke-width:2" />
<line x1="1" y1="1" x2="1" y2="108" style="stroke:#ddd;stroke-width:2" />
<line x1="1" y1="108" x2="1634" y2="108" style="stroke:#ddd;stroke-width:2" />
<line x1="1634" y1="1" x2="1634" y2="108" style="stroke:#ddd;stroke-width:2" />
<line x1="109" y1="1" x2="109" y2="108" style="stroke:#ddd;stroke-width:2" />
<line x1="218" y1="1" x2="218" y2="108" style="stroke:#ddd;stroke-width:2" />
<line x1="327" y1="1" x2="327" y2="108" style="stroke:#ddd;stroke-width:2" />
<line x1="436" y1="1" x2="436" y2="108" style="stroke:#ddd;stroke-width:2" />
<line x1="545" y1="1" x2="545" y2="108" style="stroke:#ddd;stroke-width:2" />
<line x1="654" y1="1" x2="654" y2="108" style="stroke:#ddd;stroke-width:2" />
<line x1="763" y1="1" x2="763" y2="108" style="stroke:#ddd;stroke-width:2" />
<line x1="872" y1="1" x2="872" y2="108" style="stroke:#ddd;stroke-width:2" />
<line x1="981" y1="1" x2="981" y2="108" style="stroke:#ddd;stroke-width:2" />
<line x1="1090" y1="1" x2="1090" y2="108" style="stroke:#ddd;stroke-width:2" />
<line x1="1199" y1="1" x2="1199" y2="108" style="stroke:#ddd;stroke-width:2" />
<line x1="1308" y1="1" x2="1308" y2="108" style="stroke:#ddd;stroke-width:2" />
<line x1="1417" y1="1" x2="1417" y2="108" style="stroke:#ddd;stroke-width:2" />
<line x1="1526" y1="1" x2="1526" y2="108" style="stroke:#ddd;stroke-width:2" />
<line x1="1" y1="54" x2="1634" y2="54" style="stroke:#ddd;stroke-width:2;stroke-dasharray:3 3" />
<line x1="55" y1="1" x2="55" y2="108" style="stroke:#ddd;stroke-width:2;stroke-dasharray:3 3" />
<line x1="164" y1="1" x2="164" y2="108" style="stroke:#ddd;stroke-width:2;stroke-dasharray:3 3" />
<line x1="273" y1="1" x2="273" y2="108" style="stroke:#ddd;stroke-width:2;stroke-dasharray:3 3" />
<line x1="382" y1="1" x2="382" y2="108" style="stroke:#ddd;stroke-width:2;stroke-dasharray:3 3" />
<line x1="491" y1="1" x2="491" y2="108" style="stroke:#ddd;stroke-width:2;stroke-dasharray:3 3" />
<line x1="600" y1="1" x2="600" y2="108" style="stroke:#ddd;stroke-width:2;stroke-dasharray:3 3" />
<line x1="709" y1="1" x2="709" y2="108" style="stroke:#ddd;stroke-width:2;stroke-dasharray:3 3" />
<line x1="818" y1="1" x2="818" y2="108" style="stroke:#ddd;stroke-width:2;stroke-dasharray:3 3" />
<line x1="927" y1="1" x2="927" y2="108" style="stroke:#ddd;stroke-width:2;stroke-dasharray:3 3" />
<line x1="1036" y1="1" x2="1036" y2="108" style="stroke:#ddd;stroke-width:2;stroke-dasharray:3 3" />
<line x1="1145" y1="1" x2="1145" y2="108" style="stroke:#ddd;stroke-width:2;stroke-dasharray:3 3" />
<line x1="1254" y1="1" x2="1254" y2="108" style="stroke:#ddd;stroke-width:2;stroke-dasharray:3 3" />
<line x1="1363" y1="1" x2="1363" y2="108" style="stroke:#ddd;stroke-width:2;stroke-dasharray:3 3" />
<line x1="1472" y1="1" x2="1472" y2="108" style="stroke:#ddd;stroke-width:2;stroke-dasharray:3 3" />
<line x1="1581" y1="1" x2="1581" y2="108" style="stroke:#ddd;stroke-width:2;stroke-dasharray:3 3" />
<path d="M43.05,11.84c-0.05,1.04-0.57,1.92-1.2,2.53c-3,2.89-6.23,4.88-13.9,7.93" style="fill:none;stroke:black;stroke-width:3" />
<circle cx="43.05" cy="11.84" r="5" stroke-width="0" fill="#FF2A00" opacity="0.7" />
<path d="M152.05,11.84c-0.05,1.04-0.57,1.92-1.2,2.53c-3,2.89-6.23,4.88-13.9,7.93" style="fill:none;stroke:#999;stroke-width:3" />
<path d="M134.96,21.62c0.8,0.88,1.29,2.21,1.29,3.16c0.01,15.46-2.62,20.34-8.18,25.21" style="fill:none;stroke:black;stroke-width:3" />
<circle cx="134.96" cy="21.62" r="5" stroke-width="0" fill="#FF2A00" opacity="0.7" />
<path d="M261.05,11.84c-0.05,1.04-0.57,1.92-1.2,2.53c-3,2.89-6.23,4.88-13.9,7.93" style="fill:none;stroke:#999;stroke-width:3" />
<path d="M243.96,21.62c0.8,0.88,1.29,2.21,1.29,3.16c0.01,15.46-2.62,20.34-8.18,25.21" style="fill:none;stroke:#999;stroke-width:3" />
<path d="M247.22,29.63c0.83-0.03,2.06-0.15,3.53-0.34c4.46-0.57,11.15-1.69,15.77-2.27c1.26-0.16,2.37-0.27,3.24-0.32" style="fill:none;stroke:black;stroke-width:3" />
<circle cx="247.22" cy="29.63" r="5" stroke-width="0" fill="#FF2A00" opacity="0.7" />
<path d="M370.05,11.84c-0.05,1.04-0.57,1.92-1.2,2.53c-3,2.89-6.23,4.88-13.9,7.93" style="fill:none;stroke:#999;stroke-width:3" />
<path d="M352.96000000000004,21.62c0.8,0.88,1.29,2.21,1.29,3.16c0.01,15.46-2.62,20.34-8.18,25.21" style="fill:none;stroke:#999;stroke-width:3" />
<path d="M356.22,29.63c0.83-0.03,2.06-0.15,3.53-0.34c4.46-0.57,11.15-1.69,15.77-2.27c1.26-0.16,2.37-0.27,3.24-0.32" style="fill:none;stroke:#999;stroke-width:3" />
<path d="M366.40999999999997,28.55c0.73,0.73,1.22,2.31,1.22,3.3c0,0.79-0.12,2.42-0.08,10.4c0.01,2.12,0.04,3.54,0.08,3.75" style="fill:none;stroke:black;stroke-width:3" />
<circle cx="366.40999999999997" cy="28.55" r="5" stroke-width="0" fill="#FF2A00" opacity="0.7" />
<path d="M479.05,11.84c-0.05,1.04-0.57,1.92-1.2,2.53c-3,2.89-6.23,4.88-13.9,7.93" style="fill:none;stroke:#999;stroke-width:3" />
<path d="M461.96000000000004,21.62c0.8,0.88,1.29,2.21,1.29,3.16c0.01,15.46-2.62,20.34-8.18,25.21" style="fill:none;stroke:#999;stroke-width:3" />
<path d="M465.22,29.63c0.83-0.03,2.06-0.15,3.53-0.34c4.46-0.57,11.15-1.69,15.77-2.27c1.26-0.16,2.37-0.27,3.24-0.32" style="fill:none;stroke:#999;stroke-width:3" />
<path d="M475.40999999999997,28.55c0.73,0.73,1.22,2.31,1.22,3.3c0,0.79-0.12,2.42-0.08,10.4c0.01,2.12,0.04,3.54,0.08,3.75" style="fill:none;stroke:#999;stroke-width:3" />
<path d="M512.8,11.09c0.14,0.93-0.08,1.75-0.79,2.42c-3.76,3.49-6.88,5.99-13.3,8.79" style="fill:none;stroke:black;stroke-width:3" />
<circle cx="512.8" cy="11.09" r="5" stroke-width="0" fill="#FF2A00" opacity="0.7" />
<path d="M588.05,11.84c-0.05,1.04-0.57,1.92-1.2,2.53c-3,2.89-6.23,4.88-13.9,7.93" style="fill:none;stroke:#999;stroke-width:3" />
<path d="M570.96,21.62c0.8,0.88,1.29,2.21,1.29,3.16c0.01,15.46-2.62,20.34-8.18,25.21" style="fill:none;stroke:#999;stroke-width:3" />
<path d="M574.22,29.63c0.83-0.03,2.06-0.15,3.53-0.34c4.46-0.57,11.15-1.69,15.77-2.27c1.26-0.16,2.37-0.27,3.24-0.32" style="fill:none;stroke:#999;stroke-width:3" />
<path d="M584.41,28.55c0.73,0.73,1.22,2.31,1.22,3.3c0,0.79-0.12,2.42-0.08,10.4c0.01,2.12,0.04,3.54,0.08,3.75" style="fill:none;stroke:#999;stroke-width:3" />
<path d="M621.8,11.09c0.14,0.93-0.08,1.75-0.79,2.42c-3.76,3.49-6.88,5.99-13.3,8.79" style="fill:none;stroke:#999;stroke-width:3" />
<path d="M605.58,21.62c0.57,0.73,0.89,1.84,0.91,2.64c0.26,9.11-0.12,15.49-5.43,21.23" style="fill:none;stroke:black;stroke-width:3" />
<circle cx="605.58" cy="21.62" r="5" stroke-width="0" fill="#FF2A00" opacity="0.7" />
<path d="M697.05,11.84c-0.05,1.04-0.57,1.92-1.2,2.53c-3,2.89-6.23,4.88-13.9,7.93" style="fill:none;stroke:#999;stroke-width:3" />
<path d="M679.96,21.62c0.8,0.88,1.29,2.21,1.29,3.16c0.01,15.46-2.62,20.34-8.18,25.21" style="fill:none;stroke:#999;stroke-width:3" />
<path d="M683.22,29.63c0.83-0.03,2.06-0.15,3.53-0.34c4.46-0.57,11.15-1.69,15.77-2.27c1.26-0.16,2.37-0.27,3.24-0.32" style="fill:none;stroke:#999;stroke-width:3" />
<path d="M693.41,28.55c0.73,0.73,1.22,2.31,1.22,3.3c0,0.79-0.12,2.42-0.08,10.4c0.01,2.12,0.04,3.54,0.08,3.75" style="fill:none;stroke:#999;stroke-width:3" />
<path d="M730.8,11.09c0.14,0.93-0.08,1.75-0.79,2.42c-3.76,3.49-6.88,5.99-13.3,8.79" style="fill:none;stroke:#999;stroke-width:3" />
<path d="M714.58,21.62c0.57,0.73,0.89,1.84,0.91,2.64c0.26,9.11-0.12,15.49-5.43,21.23" style="fill:none;stroke:#999;stroke-width:3" />
<path d="M717.47,27.88c0.65-0.02,1.71-0.12,3.04-0.26c5.56-0.61,15.93-2.13,21.98-2.83c1.47-0.17,2.68-0.29,3.51-0.34" style="fill:none;stroke:black;stroke-width:3" />
<circle cx="717.47" cy="27.88" r="5" stroke-width="0" fill="#FF2A00" opacity="0.7" />
<path d="M806.05,11.84c-0.05,1.04-0.57,1.92-1.2,2.53c-3,2.89-6.23,4.88-13.9,7.93" style="fill:none;stroke:#999;stroke-width:3" />
<path d="M788.96,21.62c0.8,0.88,1.29,2.21,1.29,3.16c0.01,15.46-2.62,20.34-8.18,25.21" style="fill:none;stroke:#999;stroke-width:3" />
<path d="M792.22,29.63c0.83-0.03,2.06-0.15,3.53-0.34c4.46-0.57,11.15-1.69,15.77-2.27c1.26-0.16,2.37-0.27,3.24-0.32" style="fill:none;stroke:#999;stroke-width:3" />
<path d="M802.41,28.55c0.73,0.73,1.22,2.31,1.22,3.3c0,0.79-0.12,2.42-0.08,10.4c0.01,2.12,0.04,3.54,0.08,3.75" style="fill:none;stroke:#999;stroke-width:3" />
<path d="M839.8,11.09c0.14,0.93-0.08,1.75-0.79,2.42c-3.76,3.49-6.88,5.99-13.3,8.79" style="fill:none;stroke:#999;stroke-width:3" />
<path d="M823.58,21.62c0.57,0.73,0.89,1.84,0.91,2.64c0.26,9.11-0.12,15.49-5.43,21.23" style="fill:none;stroke:#999;stroke-width:3" />
<path d="M826.47,27.88c0.65-0.02,1.71-0.12,3.04-0.26c5.56-0.61,15.93-2.13,21.98-2.83c1.47-0.17,2.68-0.29,3.51-0.34" style="fill:none;stroke:#999;stroke-width:3" />
<path d="M839.25,26.62c0.73,0.73,1.22,2.31,1.22,3.3c0,0.79-0.12,2.42-0.08,10.4c0.01,2.12,0.04,3.54,0.08,3.75" style="fill:none;stroke:black;stroke-width:3" />
<circle cx="839.25" cy="26.62" r="5" stroke-width="0" fill="#FF2A00" opacity="0.7" />
<path d="M915.05,11.84c-0.05,1.04-0.57,1.92-1.2,2.53c-3,2.89-6.23,4.88-13.9,7.93" style="fill:none;stroke:#999;stroke-width:3" />
<path d="M897.96,21.62c0.8,0.88,1.29,2.21,1.29,3.16c0.01,15.46-2.62,20.34-8.18,25.21" style="fill:none;stroke:#999;stroke-width:3" />
<path d="M901.22,29.63c0.83-0.03,2.06-0.15,3.53-0.34c4.46-0.57,11.15-1.69,15.77-2.27c1.26-0.16,2.37-0.27,3.24-0.32" style="fill:none;stroke:#999;stroke-width:3" />
<path d="M911.41,28.55c0.73,0.73,1.22,2.31,1.22,3.3c0,0.79-0.12,2.42-0.08,10.4c0.01,2.12,0.04,3.54,0.08,3.75" style="fill:none;stroke:#999;stroke-width:3" />
<path d="M948.8,11.09c0.14,0.93-0.08,1.75-0.79,2.42c-3.76,3.49-6.88,5.99-13.3,8.79" style="fill:none;stroke:#999;stroke-width:3" />
<path d="M932.58,21.62c0.57,0.73,0.89,1.84,0.91,2.64c0.26,9.11-0.12,15.49-5.43,21.23" style="fill:none;stroke:#999;stroke-width:3" />
<path d="M935.47,27.88c0.65-0.02,1.71-0.12,3.04-0.26c5.56-0.61,15.93-2.13,21.98-2.83c1.47-0.17,2.68-0.29,3.51-0.34" style="fill:none;stroke:#999;stroke-width:3" />
<path d="M948.25,26.62c0.73,0.73,1.22,2.31,1.22,3.3c0,0.79-0.12,2.42-0.08,10.4c0.01,2.12,0.04,3.54,0.08,3.75" style="fill:none;stroke:#999;stroke-width:3" />
<path d="M907.12,51.3c0.73,0.73,1.22,2.31,1.22,3.3c0,0.79-0.12,19.17-0.08,27.15c0.01,2.12,0.04,3.54,0.08,3.75" style="fill:none;stroke:black;stroke-width:3" />
<circle cx="907.12" cy="51.3" r="5" stroke-width="0" fill="#FF2A00" opacity="0.7" />
<path d="M1024.05,11.84c-0.05,1.04-0.57,1.92-1.2,2.53c-3,2.89-6.23,4.88-13.9,7.93" style="fill:none;stroke:#999;stroke-width:3" />
<path d="M1006.96,21.62c0.8,0.88,1.29,2.21,1.29,3.16c0.01,15.46-2.62,20.34-8.18,25.21" style="fill:none;stroke:#999;stroke-width:3" />
<path d="M1010.22,29.63c0.83-0.03,2.06-0.15,3.53-0.34c4.46-0.57,11.15-1.69,15.77-2.27c1.26-0.16,2.37-0.27,3.24-0.32" style="fill:none;stroke:#999;stroke-width:3" />
<path d="M1020.41,28.55c0.73,0.73,1.22,2.31,1.22,3.3c0,0.79-0.12,2.42-0.08,10.4c0.01,2.12,0.04,3.54,0.08,3.75" style="fill:none;stroke:#999;stroke-width:3" />
<path d="M1057.8,11.09c0.14,0.93-0.08,1.75-0.79,2.42c-3.76,3.49-6.88,5.99-13.3,8.79" style="fill:none;stroke:#999;stroke-width:3" />
<path d="M1041.58,21.62c0.57,0.73,0.89,1.84,0.91,2.64c0.26,9.11-0.12,15.49-5.43,21.23" style="fill:none;stroke:#999;stroke-width:3" />
<path d="M1044.47,27.88c0.65-0.02,1.71-0.12,3.04-0.26c5.56-0.61,15.93-2.13,21.98-2.83c1.47-0.17,2.68-0.29,3.51-0.34" style="fill:none;stroke:#999;stroke-width:3" />
<path d="M1057.25,26.62c0.73,0.73,1.22,2.31,1.22,3.3c0,0.79-0.12,2.42-0.08,10.4c0.01,2.12,0.04,3.54,0.08,3.75" style="fill:none;stroke:#999;stroke-width:3" />
<path d="M1016.12,51.3c0.73,0.73,1.22,2.31,1.22,3.3c0,0.79-0.12,19.17-0.08,27.15c0.01,2.12,0.04,3.54,0.08,3.75" style="fill:none;stroke:#999;stroke-width:3" />
<path d="M1018.08,53.11c6.04-0.48,29.35-2.67,32.43-2.87c3.74-0.24,4.37,1.26,4.37,4.37c0,4.14-0.06,15.94,0,24.89c0.01,1.69,0.03,3.23,0.06,4.5" style="fill:none;stroke:black;stroke-width:3" />
<circle cx="1018.08" cy="53.11" r="5" stroke-width="0" fill="#FF2A00" opacity="0.7" />
<path d="M1133.05,11.84c-0.05,1.04-0.57,1.92-1.2,2.53c-3,2.89-6.23,4.88-13.9,7.93" style="fill:none;stroke:#999;stroke-width:3" />
<path d="M1115.96,21.62c0.8,0.88,1.29,2.21,1.29,3.16c0.01,15.46-2.62,20.34-8.18,25.21" style="fill:none;stroke:#999;stroke-width:3" />
<path d="M1119.22,29.63c0.83-0.03,2.06-0.15,3.53-0.34c4.46-0.57,11.15-1.69,15.77-2.27c1.26-0.16,2.37-0.27,3.24-0.32" style="fill:none;stroke:#999;stroke-width:3" />
<path d="M1129.4099999999999,28.55c0.73,0.73,1.22,2.31,1.22,3.3c0,0.79-0.12,2.42-0.08,10.4c0.01,2.12,0.04,3.54,0.08,3.75" style="fill:none;stroke:#999;stroke-width:3" />
<path d="M1166.8,11.09c0.14,0.93-0.08,1.75-0.79,2.42c-3.76,3.49-6.88,5.99-13.3,8.79" style="fill:none;stroke:#999;stroke-width:3" />
<path d="M1150.58,21.62c0.57,0.73,0.89,1.84,0.91,2.64c0.26,9.11-0.12,15.49-5.43,21.23" style="fill:none;stroke:#999;stroke-width:3" />
<path d="M1153.47,27.88c0.65-0.02,1.71-0.12,3.04-0.26c5.56-0.61,15.93-2.13,21.98-2.83c1.47-0.17,2.68-0.29,3.51-0.34" style="fill:none;stroke:#999;stroke-width:3" />
<path d="M1166.25,26.62c0.73,0.73,1.22,2.31,1.22,3.3c0,0.79-0.12,2.42-0.08,10.4c0.01,2.12,0.04,3.54,0.08,3.75" style="fill:none;stroke:#999;stroke-width:3" />
<path d="M1125.12,51.3c0.73,0.73,1.22,2.31,1.22,3.3c0,0.79-0.12,19.17-0.08,27.15c0.01,2.12,0.04,3.54,0.08,3.75" style="fill:none;stroke:#999;stroke-width:3" />
<path d="M1127.08,53.11c6.04-0.48,29.35-2.67,32.43-2.87c3.74-0.24,4.37,1.26,4.37,4.37c0,4.14-0.06,15.94,0,24.89c0.01,1.69,0.03,3.23,0.06,4.5" style="fill:none;stroke:#999;stroke-width:3" />
<path d="M1127.28,63.13C1135.25,62.5 1152.0,61 1162.8,60.36" style="fill:none;stroke:black;stroke-width:3" />
<circle cx="1127.28" cy="63.13" r="5" stroke-width="0" fill="#FF2A00" opacity="0.7" />
<path d="M1242.05,11.84c-0.05,1.04-0.57,1.92-1.2,2.53c-3,2.89-6.23,4.88-13.9,7.93" style="fill:none;stroke:#999;stroke-width:3" />
<path d="M1224.96,21.62c0.8,0.88,1.29,2.21,1.29,3.16c0.01,15.46-2.62,20.34-8.18,25.21" style="fill:none;stroke:#999;stroke-width:3" />
<path d="M1228.22,29.63c0.83-0.03,2.06-0.15,3.53-0.34c4.46-0.57,11.15-1.69,15.77-2.27c1.26-0.16,2.37-0.27,3.24-0.32" style="fill:none;stroke:#999;stroke-width:3" />
<path d="M1238.4099999999999,28.55c0.73,0.73,1.22,2.31,1.22,3.3c0,0.79-0.12,2.42-0.08,10.4c0.01,2.12,0.04,3.54,0.08,3.75" style="fill:none;stroke:#999;stroke-width:3" />
<path d="M1275.8,11.09c0.14,0.93-0.08,1.75-0.79,2.42c-3.76,3.49-6.88,5.99-13.3,8.79" style="fill:none;stroke:#999;stroke-width:3" />
<path d="M1259.58,21.62c0.57,0.73,0.89,1.84,0.91,2.64c0.26,9.11-0.12,15.49-5.43,21.23" style="fill:none;stroke:#999;stroke-width:3" />
<path d="M1262.47,27.88c0.65-0.02,1.71-0.12,3.04-0.26c5.56-0.61,15.93-2.13,21.98-2.83c1.47-0.17,2.68-0.29,3.51-0.34" style="fill:none;stroke:#999;stroke-width:3" />
<path d="M1275.25,26.62c0.73,0.73,1.22,2.31,1.22,3.3c0,0.79-0.12,2.42-0.08,10.4c0.01,2.12,0.04,3.54,0.08,3.75" style="fill:none;stroke:#999;stroke-width:3" />
<path d="M1234.12,51.3c0.73,0.73,1.22,2.31,1.22,3.3c0,0.79-0.12,19.17-0.08,27.15c0.01,2.12,0.04,3.54,0.08,3.75" style="fill:none;stroke:#999;stroke-width:3" />
<path d="M1236.08,53.11c6.04-0.48,29.35-2.67,32.43-2.87c3.74-0.24,4.37,1.26,4.37,4.37c0,4.14-0.06,15.94,0,24.89c0.01,1.69,0.03,3.23,0.06,4.5" style="fill:none;stroke:#999;stroke-width:3" />
<path d="M1236.28,63.13C1244.25,62.5 1261.0,61 1271.8,60.36" style="fill:none;stroke:#999;stroke-width:3" />
<path d="M1236.55,72.8c11.2-1.05,24.2-2.05,34.85-2.75" style="fill:none;stroke:black;stroke-width:3" />
<circle cx="1236.55" cy="72.8" r="5" stroke-width="0" fill="#FF2A00" opacity="0.7" />
<path d="M1351.05,11.84c-0.05,1.04-0.57,1.92-1.2,2.53c-3,2.89-6.23,4.88-13.9,7.93" style="fill:none;stroke:#999;stroke-width:3" />
<path d="M1333.96,21.62c0.8,0.88,1.29,2.21,1.29,3.16c0.01,15.46-2.62,20.34-8.18,25.21" style="fill:none;stroke:#999;stroke-width:3" />
<path d="M1337.22,29.63c0.83-0.03,2.06-0.15,3.53-0.34c4.46-0.57,11.15-1.69,15.77-2.27c1.26-0.16,2.37-0.27,3.24-0.32" style="fill:none;stroke:#999;stroke-width:3" />
<path d="M1347.4099999999999,28.55c0.73,0.73,1.22,2.31,1.22,3.3c0,0.79-0.12,2.42-0.08,10.4c0.01,2.12,0.04,3.54,0.08,3.75" style="fill:none;stroke:#999;stroke-width:3" />
<path d="M1384.8,11.09c0.14,0.93-0.08,1.75-0.79,2.42c-3.76,3.49-6.88,5.99-13.3,8.79" style="fill:none;stroke:#999;stroke-width:3" />
<path d="M1368.58,21.62c0.57,0.73,0.89,1.84,0.91,2.64c0.26,9.11-0.12,15.49-5.43,21.23" style="fill:none;stroke:#999;stroke-width:3" />
<path d="M1371.47,27.88c0.65-0.02,1.71-0.12,3.04-0.26c5.56-0.61,15.93-2.13,21.98-2.83c1.47-0.17,2.68-0.29,3.51-0.34" style="fill:none;stroke:#999;stroke-width:3" />
<path d="M1384.25,26.62c0.73,0.73,1.22,2.31,1.22,3.3c0,0.79-0.12,2.42-0.08,10.4c0.01,2.12,0.04,3.54,0.08,3.75" style="fill:none;stroke:#999;stroke-width:3" />
<path d="M1343.12,51.3c0.73,0.73,1.22,2.31,1.22,3.3c0,0.79-0.12,19.17-0.08,27.15c0.01,2.12,0.04,3.54,0.08,3.75" style="fill:none;stroke:#999;stroke-width:3" />
<path d="M1345.08,53.11c6.04-0.48,29.35-2.67,32.43-2.87c3.74-0.24,4.37,1.26,4.37,4.37c0,4.14-0.06,15.94,0,24.89c0.01,1.69,0.03,3.23,0.06,4.5" style="fill:none;stroke:#999;stroke-width:3" />
<path d="M1345.28,63.13C1353.25,62.5 1370.0,61 1380.8,60.36" style="fill:none;stroke:#999;stroke-width:3" />
<path d="M1345.55,72.8c11.2-1.05,24.2-2.05,34.85-2.75" style="fill:none;stroke:#999;stroke-width:3" />
<path d="M1345.67,83.38c9.08-0.88,22.95-2,34.85-2.75" style="fill:none;stroke:black;stroke-width:3" />
<circle cx="1345.67" cy="83.38" r="5" stroke-width="0" fill="#FF2A00" opacity="0.7" />
<path d="M1460.05,11.84c-0.05,1.04-0.57,1.92-1.2,2.53c-3,2.89-6.23,4.88-13.9,7.93" style="fill:none;stroke:#999;stroke-width:3" />
<path d="M1442.96,21.62c0.8,0.88,1.29,2.21,1.29,3.16c0.01,15.46-2.62,20.34-8.18,25.21" style="fill:none;stroke:#999;stroke-width:3" />
<path d="M1446.22,29.63c0.83-0.03,2.06-0.15,3.53-0.34c4.46-0.57,11.15-1.69,15.77-2.27c1.26-0.16,2.37-0.27,3.24-0.32" style="fill:none;stroke:#999;stroke-width:3" />
<path d="M1456.4099999999999,28.55c0.73,0.73,1.22,2.31,1.22,3.3c0,0.79-0.12,2.42-0.08,10.4c0.01,2.12,0.04,3.54,0.08,3.75" style="fill:none;stroke:#999;stroke-width:3" />
<path d="M1493.8,11.09c0.14,0.93-0.08,1.75-0.79,2.42c-3.76,3.49-6.88,5.99-13.3,8.79" style="fill:none;stroke:#999;stroke-width:3" />
<path d="M1477.58,21.62c0.57,0.73,0.89,1.84,0.91,2.64c0.26,9.11-0.12,15.49-5.43,21.23" style="fill:none;stroke:#999;stroke-width:3" />
<path d="M1480.47,27.88c0.65-0.02,1.71-0.12,3.04-0.26c5.56-0.61,15.93-2.13,21.98-2.83c1.47-0.17,2.68-0.29,3.51-0.34" style="fill:none;stroke:#999;stroke-width:3" />
<path d="M1493.25,26.62c0.73,0.73,1.22,2.31,1.22,3.3c0,0.79-0.12,2.42-0.08,10.4c0.01,2.12,0.04,3.54,0.08,3.75" style="fill:none;stroke:#999;stroke-width:3" />
<path d="M1452.12,51.3c0.73,0.73,1.22,2.31,1.22,3.3c0,0.79-0.12,19.17-0.08,27.15c0.01,2.12,0.04,3.54,0.08,3.75" style="fill:none;stroke:#999;stroke-width:3" />
<path d="M1454.08,53.11c6.04-0.48,29.35-2.67,32.43-2.87c3.74-0.24,4.37,1.26,4.37,4.37c0,4.14-0.06,15.94,0,24.89c0.01,1.69,0.03,3.23,0.06,4.5" style="fill:none;stroke:#999;stroke-width:3" />
<path d="M1454.28,63.13C1462.25,62.5 1479.0,61 1489.8,60.36" style="fill:none;stroke:#999;stroke-width:3" />
<path d="M1454.55,72.8c11.2-1.05,24.2-2.05,34.85-2.75" style="fill:none;stroke:#999;stroke-width:3" />
<path d="M1454.67,83.38c9.08-0.88,22.95-2,34.85-2.75" style="fill:none;stroke:#999;stroke-width:3" />
<path d="M1457.73,87.75c0.02,1-0.23,2.25-1.25,2.97c-3.08,2.16-11.58,6.73-17.73,9.28" style="fill:none;stroke:black;stroke-width:3" />
<circle cx="1457.73" cy="87.75" r="5" stroke-width="0" fill="#FF2A00" opacity="0.7" />
<path d="M1569.05,11.84c-0.05,1.04-0.57,1.92-1.2,2.53c-3,2.89-6.23,4.88-13.9,7.93" style="fill:none;stroke:#999;stroke-width:3" />
<path d="M1551.96,21.62c0.8,0.88,1.29,2.21,1.29,3.16c0.01,15.46-2.62,20.34-8.18,25.21" style="fill:none;stroke:#999;stroke-width:3" />
<path d="M1555.22,29.63c0.83-0.03,2.06-0.15,3.53-0.34c4.46-0.57,11.15-1.69,15.77-2.27c1.26-0.16,2.37-0.27,3.24-0.32" style="fill:none;stroke:#999;stroke-width:3" />
<path d="M1565.4099999999999,28.55c0.73,0.73,1.22,2.31,1.22,3.3c0,0.79-0.12,2.42-0.08,10.4c0.01,2.12,0.04,3.54,0.08,3.75" style="fill:none;stroke:#999;stroke-width:3" />
<path d="M1602.8,11.09c0.14,0.93-0.08,1.75-0.79,2.42c-3.76,3.49-6.88,5.99-13.3,8.79" style="fill:none;stroke:#999;stroke-width:3" />
<path d="M1586.58,21.62c0.57,0.73,0.89,1.84,0.91,2.64c0.26,9.11-0.12,15.49-5.43,21.23" style="fill:none;stroke:#999;stroke-width:3" />
<path d="M1589.47,27.88c0.65-0.02,1.71-0.12,3.04-0.26c5.56-0.61,15.93-2.13,21.98-2.83c1.47-0.17,2.68-0.29,3.51-0.34" style="fill:none;stroke:#999;stroke-width:3" />
<path d="M1602.25,26.62c0.73,0.73,1.22,2.31,1.22,3.3c0,0.79-0.12,2.42-0.08,10.4c0.01,2.12,0.04,3.54,0.08,3.75" style="fill:none;stroke:#999;stroke-width:3" />
<path d="M1561.12,51.3c0.73,0.73,1.22,2.31,1.22,3.3c0,0.79-0.12,19.17-0.08,27.15c0.01,2.12,0.04,3.54,0.08,3.75" style="fill:none;stroke:#999;stroke-width:3" />
<path d="M1563.08,53.11c6.04-0.48,29.35-2.67,32.43-2.87c3.74-0.24,4.37,1.26,4.37,4.37c0,4.14-0.06,15.94,0,24.89c0.01,1.69,0.03,3.23,0.06,4.5" style="fill:none;stroke:#999;stroke-width:3" />
<path d="M1563.28,63.13C1571.25,62.5 1588.0,61 1598.8,60.36" style="fill:none;stroke:#999;stroke-width:3" />
<path d="M1563.55,72.8c11.2-1.05,24.2-2.05,34.85-2.75" style="fill:none;stroke:#999;stroke-width:3" />
<path d="M1563.67,83.38c9.08-0.88,22.95-2,34.85-2.75" style="fill:none;stroke:#999;stroke-width:3" />
<path d="M1566.73,87.75c0.02,1-0.23,2.25-1.25,2.97c-3.08,2.16-11.58,6.73-17.73,9.28" style="fill:none;stroke:#999;stroke-width:3" />
<path d="M1592.5,87.5c7.74,2.98,16.89,8.39,19,11" style="fill:none;stroke:black;stroke-width:3" />
<circle cx="1592.5" cy="87.5" r="5" stroke-width="0" fill="#FF2A00" opacity="0.7" />
</svg>