<!-- 08d6b -->
<svg width="1526px" height="109px" viewBox="0 0 1526px 109px" xmlns="http://www.w3.org/2000/svg" xmlns:xlink="http://www.w3.org/1999/xlink" xml:space="preserve" version="1.1"  baseProfile="full">
<line x1="1" y1="1" x2="1525" y2="1" style="stroke:#ddd;stroke-width:2" />
<line x1="1" y1="1" x2="1" y2="108" style="stroke:#ddd;stroke-width:2" />
<line x1="1" y1="108" x2="1525" y2="108" style="stroke:#ddd;stroke-width:2" />
<line x1="1525" y1="1" x2="1525" y2="108" style="stroke:#ddd;stroke-width:2" />
<line x1="109" y1="1" x2="109" y2="108" style="stroke:#ddd;stroke-width:2" />
<line x1="218" y1="1" x2="218" y2="108" style="stroke:#ddd;stroke-width:2" />
<line x1="327" y1="1" x2="327" y2="108" style="stroke:#ddd;stroke-width:2" />
<line x1="436" y1="1" x2="436" y2="108" style="stroke:#ddd;stroke-width:2" />
<line x1="545" y1="1" x2="545" y2="108" style="stroke:#ddd;stroke-width:2" />
<line x1="654" y1="1" x2="654" y2="108" style="stroke:#ddd;stroke-width:2" />
<line x1="763" y1="1" x2="763" y2="108" style="stroke:#ddd;stroke-width:2" />
<line x1="872" y1="1" x2="872" y2="108" style="stroke:#ddd;stroke-width:2" />
<line x1="981" y1="1" x2="981" y2="108" style="stroke:#ddd;stroke-width:2" />
<line x1="1090" y1="1" x2="1090" y2="108" style="stroke:#ddd;stroke-width:2" />
<line x1="1199" y1="1" x2="1199" y2="108" style="stroke:#ddd;stroke-width:2" />
<line x1="1308" y1="1" x2="1308" y2="108" style="stroke:#ddd;stroke-width:2" />
<line x1="1417" y1="1" x2="1417" y2="108" style="stroke:#ddd;stroke-width:2" />
<line x1="1" y1="54" x2="1525" y2="54" style="stroke:#ddd;stroke-width:2;stroke-dasharray:3 3" />
<line x1="55" y1="1" x2="55" y2="108" style="stroke:#ddd;stroke-width:2;stroke-dasharray:3 3" />
<line x1="164" y1="1" x2="164" y2="108" style="stroke:#ddd;stroke-width:2;stroke-dasharray:3 3" />
<line x1="273" y1="1" x2="273" y2="108" style="stroke:#ddd;stroke-width:2;stroke-dasharray:3 3" />
<line x1="382" y1="1" x2="382" y2="108" style="stroke:#ddd;stroke-width:2;stroke-dasharray:3 3" />
<line x1="491" y1="1" x2="491" y2="108" style="stroke:#ddd;stroke-width:2;stroke-dasharray:3 3" />
<line x1="600" y1="1" x2="600" y2="108" style="stroke:#ddd;stroke-width:2;stroke-dasharray:3 3" />
<line x1="709" y1="1" x2="709" y2="108" style="stroke:#ddd;stroke-width:2;stroke-dasharray:3 3" />
<line x1="818" y1="1" x2="818" y2="108" style="stroke:#ddd;stroke-width:2;stroke-dasharray:3 3" />
<line x1="927" y1="1" x2="927" y2="108" style="stroke:#ddd;stroke-width:2;stroke-dasharray:3 3" />
<line x1="1036" y1="1" x2="1036" y2="108" style="stroke:#ddd;stroke-width:2;stroke-dasharray:3 3" />
<line x1="1145" y1="1" x2="1145" y2="108" style="stroke:#ddd;stroke-width:2;stroke-dasharray:3 3" />
<line x1="1254" y1="1" x2="1254" y2="108" style="stroke:#ddd;stroke-width:2;stroke-dasharray:3 3" />
<line x1="1363" y1="1" x2="1363" y2="108" style="stroke:#ddd;stroke-width:2;stroke-dasharray:3 3" />
<line x1="1472" y1="1" x2="1472" y2="108" style="stroke:#ddd;stroke-width:2;stroke-dasharray:3 3" />
<path d="M17.58,30.49c1.75,0.37,3.52,0.49,5.31,0.36c5.91-0.5,12.49-1.6,19.98-2.77c1.95-0.31,3.71-0.52,5.56-0.01" style="fill:none;stroke:black;stroke-width:3" />
<circle cx="17.58" cy="30.49" r="5" stroke-width="0" fill="#FF2A00" opacity="0.7" />
<path d="M126.58,30.49c1.75,0.37,3.52,0.49,5.31,0.36c5.91-0.5,12.49-1.6,19.98-2.77c1.95-0.31,3.71-0.52,5.56-0.01" style="fill:none;stroke:#999;stroke-width:3" />
<path d="M142.4,15.2c0.83,0.83,1.13,2.05,1.13,3.09c0,0.55,0,18.59,0,22.88" style="fill:none;stroke:black;stroke-width:3" />
<circle cx="142.4" cy="15.2" r="5" stroke-width="0" fill="#FF2A00" opacity="0.7" />
<path d="M235.57999999999998,30.49c1.75,0.37,3.52,0.49,5.31,0.36c5.91-0.5,12.49-1.6,19.98-2.77c1.95-0.31,3.71-0.52,5.56-0.01" style="fill:none;stroke:#999;stroke-width:3" />
<path d="M251.4,15.2c0.83,0.83,1.13,2.05,1.13,3.09c0,0.55,0,18.59,0,22.88" style="fill:none;stroke:#999;stroke-width:3" />
<path d="M228.54,44.64c2.53,0.55,5.01,0.47,7.59,0.07c9.62-1.46,18.96-2.6,28-3.79c2.44-0.32,4.73-0.47,7.08,0.1" style="fill:none;stroke:black;stroke-width:3" />
<circle cx="228.54" cy="44.64" r="5" stroke-width="0" fill="#FF2A00" opacity="0.7" />
<path d="M344.58,30.49c1.75,0.37,3.52,0.49,5.31,0.36c5.91-0.5,12.49-1.6,19.98-2.77c1.95-0.31,3.71-0.52,5.56-0.01" style="fill:none;stroke:#999;stroke-width:3" />
<path d="M360.4,15.2c0.83,0.83,1.13,2.05,1.13,3.09c0,0.55,0,18.59,0,22.88" style="fill:none;stroke:#999;stroke-width:3" />
<path d="M337.53999999999996,44.64c2.53,0.55,5.01,0.47,7.59,0.07c9.62-1.46,18.96-2.6,28-3.79c2.44-0.32,4.73-0.47,7.08,0.1" style="fill:none;stroke:#999;stroke-width:3" />
<path d="M353.98,46.61c1.08,1.08,1.06,2.89,1.02,4.46C354.5,67 353.62,80.75 344.0,92.25" style="fill:none;stroke:black;stroke-width:3" />
<circle cx="353.98" cy="46.61" r="5" stroke-width="0" fill="#FF2A00" opacity="0.7" />
<path d="M453.58,30.49c1.75,0.37,3.52,0.49,5.31,0.36c5.91-0.5,12.49-1.6,19.98-2.77c1.95-0.31,3.71-0.52,5.56-0.01" style="fill:none;stroke:#999;stroke-width:3" />
<path d="M469.4,15.2c0.83,0.83,1.13,2.05,1.13,3.09c0,0.55,0,18.59,0,22.88" style="fill:none;stroke:#999;stroke-width:3" />
<path d="M446.53999999999996,44.64c2.53,0.55,5.01,0.47,7.59,0.07c9.62-1.46,18.96-2.6,28-3.79c2.44-0.32,4.73-0.47,7.08,0.1" style="fill:none;stroke:#999;stroke-width:3" />
<path d="M462.98,46.61c1.08,1.08,1.06,2.89,1.02,4.46C463.5,67 462.62,80.75 453.0,92.25" style="fill:none;stroke:#999;stroke-width:3" />
<path d="M474.29,46.16c0.9,0.9,1.06,1.99,1.06,4.35s-0.09,30.7-0.09,37.74c0,9.01-4.59,2.31-5.98,0.53" style="fill:none;stroke:black;stroke-width:3" />
<circle cx="474.29" cy="46.16" r="5" stroke-width="0" fill="#FF2A00" opacity="0.7" />
<path d="M562.5799999999999,30.49c1.75,0.37,3.52,0.49,5.31,0.36c5.91-0.5,12.49-1.6,19.98-2.77c1.95-0.31,3.71-0.52,5.56-0.01" style="fill:none;stroke:#999;stroke-width:3" />
<path d="M578.4,15.2c0.83,0.83,1.13,2.05,1.13,3.09c0,0.55,0,18.59,0,22.88" style="fill:none;stroke:#999;stroke-width:3" />
<path d="M555.54,44.64c2.53,0.55,5.01,0.47,7.59,0.07c9.62-1.46,18.96-2.6,28-3.79c2.44-0.32,4.73-0.47,7.08,0.1" style="fill:none;stroke:#999;stroke-width:3" />
<path d="M571.98,46.61c1.08,1.08,1.06,2.89,1.02,4.46C572.5,67 571.62,80.75 562.0,92.25" style="fill:none;stroke:#999;stroke-width:3" />
<path d="M583.29,46.16c0.9,0.9,1.06,1.99,1.06,4.35s-0.09,30.7-0.09,37.74c0,9.01-4.59,2.31-5.98,0.53" style="fill:none;stroke:#999;stroke-width:3" />
<path d="M563.87,57.36c0.03,0.59,0.14,1.53-0.06,2.36C562.12,66.88 560.5,72.88 555.0,80.5" style="fill:none;stroke:black;stroke-width:3" />
<circle cx="563.87" cy="57.36" r="5" stroke-width="0" fill="#FF2A00" opacity="0.7" />
<path d="M671.5799999999999,30.49c1.75,0.37,3.52,0.49,5.31,0.36c5.91-0.5,12.49-1.6,19.98-2.77c1.95-0.31,3.71-0.52,5.56-0.01" style="fill:none;stroke:#999;stroke-width:3" />
<path d="M687.4,15.2c0.83,0.83,1.13,2.05,1.13,3.09c0,0.55,0,18.59,0,22.88" style="fill:none;stroke:#999;stroke-width:3" />
<path d="M664.54,44.64c2.53,0.55,5.01,0.47,7.59,0.07c9.62-1.46,18.96-2.6,28-3.79c2.44-0.32,4.73-0.47,7.08,0.1" style="fill:none;stroke:#999;stroke-width:3" />
<path d="M680.98,46.61c1.08,1.08,1.06,2.89,1.02,4.46C681.5,67 680.62,80.75 671.0,92.25" style="fill:none;stroke:#999;stroke-width:3" />
<path d="M692.29,46.16c0.9,0.9,1.06,1.99,1.06,4.35s-0.09,30.7-0.09,37.74c0,9.01-4.59,2.31-5.98,0.53" style="fill:none;stroke:#999;stroke-width:3" />
<path d="M672.87,57.36c0.03,0.59,0.14,1.53-0.06,2.36C671.12,66.88 669.5,72.88 664.0,80.5" style="fill:none;stroke:#999;stroke-width:3" />
<path d="M698.25,56.25c1.81,2.92,4.18,12.03,4.63,16.58" style="fill:none;stroke:black;stroke-width:3" />
<circle cx="698.25" cy="56.25" r="5" stroke-width="0" fill="#FF2A00" opacity="0.7" />
<path d="M780.5799999999999,30.49c1.75,0.37,3.52,0.49,5.31,0.36c5.91-0.5,12.49-1.6,19.98-2.77c1.95-0.31,3.71-0.52,5.56-0.01" style="fill:none;stroke:#999;stroke-width:3" />
<path d="M796.4,15.2c0.83,0.83,1.13,2.05,1.13,3.09c0,0.55,0,18.59,0,22.88" style="fill:none;stroke:#999;stroke-width:3" />
<path d="M773.54,44.64c2.53,0.55,5.01,0.47,7.59,0.07c9.62-1.46,18.96-2.6,28-3.79c2.44-0.32,4.73-0.47,7.08,0.1" style="fill:none;stroke:#999;stroke-width:3" />
<path d="M789.98,46.61c1.08,1.08,1.06,2.89,1.02,4.46C790.5,67 789.62,80.75 780.0,92.25" style="fill:none;stroke:#999;stroke-width:3" />
<path d="M801.29,46.16c0.9,0.9,1.06,1.99,1.06,4.35s-0.09,30.7-0.09,37.74c0,9.01-4.59,2.31-5.98,0.53" style="fill:none;stroke:#999;stroke-width:3" />
<path d="M781.87,57.36c0.03,0.59,0.14,1.53-0.06,2.36C780.12,66.88 778.5,72.88 773.0,80.5" style="fill:none;stroke:#999;stroke-width:3" />
<path d="M807.25,56.25c1.81,2.92,4.18,12.03,4.63,16.58" style="fill:none;stroke:#999;stroke-width:3" />
<path d="M819.08,28.99c2.29,0.34,4.61,0.58,6.92,0.33c9-0.95,16.75-1.7,26.13-2.69c1.82-0.19,3.53-0.5,5.3-0.06" style="fill:none;stroke:black;stroke-width:3" />
<circle cx="819.08" cy="28.99" r="5" stroke-width="0" fill="#FF2A00" opacity="0.7" />
<path d="M889.5799999999999,30.49c1.75,0.37,3.52,0.49,5.31,0.36c5.91-0.5,12.49-1.6,19.98-2.77c1.95-0.31,3.71-0.52,5.56-0.01" style="fill:none;stroke:#999;stroke-width:3" />
<path d="M905.4,15.2c0.83,0.83,1.13,2.05,1.13,3.09c0,0.55,0,18.59,0,22.88" style="fill:none;stroke:#999;stroke-width:3" />
<path d="M882.54,44.64c2.53,0.55,5.01,0.47,7.59,0.07c9.62-1.46,18.96-2.6,28-3.79c2.44-0.32,4.73-0.47,7.08,0.1" style="fill:none;stroke:#999;stroke-width:3" />
<path d="M898.98,46.61c1.08,1.08,1.06,2.89,1.02,4.46C899.5,67 898.62,80.75 889.0,92.25" style="fill:none;stroke:#999;stroke-width:3" />
<path d="M910.29,46.16c0.9,0.9,1.06,1.99,1.06,4.35s-0.09,30.7-0.09,37.74c0,9.01-4.59,2.31-5.98,0.53" style="fill:none;stroke:#999;stroke-width:3" />
<path d="M890.87,57.36c0.03,0.59,0.14,1.53-0.06,2.36C889.12,66.88 887.5,72.88 882.0,80.5" style="fill:none;stroke:#999;stroke-width:3" />
<path d="M916.25,56.25c1.81,2.92,4.18,12.03,4.63,16.58" style="fill:none;stroke:#999;stroke-width:3" />
<path d="M928.08,28.99c2.29,0.34,4.61,0.58,6.92,0.33c9-0.95,16.75-1.7,26.13-2.69c1.82-0.19,3.53-0.5,5.3-0.06" style="fill:none;stroke:#999;stroke-width:3" />
<path d="M946.4,13.2c0.89,0.89,1.13,2.05,1.13,3.09c0,0.55,0.08,22.48,0,25.88" style="fill:none;stroke:black;stroke-width:3" />
<circle cx="946.4" cy="13.2" r="5" stroke-width="0" fill="#FF2A00" opacity="0.7" />
<path d="M998.5799999999999,30.49c1.75,0.37,3.52,0.49,5.31,0.36c5.91-0.5,12.49-1.6,19.98-2.77c1.95-0.31,3.71-0.52,5.56-0.01" style="fill:none;stroke:#999;stroke-width:3" />
<path d="M1014.4,15.2c0.83,0.83,1.13,2.05,1.13,3.09c0,0.55,0,18.59,0,22.88" style="fill:none;stroke:#999;stroke-width:3" />
<path d="M991.54,44.64c2.53,0.55,5.01,0.47,7.59,0.07c9.62-1.46,18.96-2.6,28-3.79c2.44-0.32,4.73-0.47,7.08,0.1" style="fill:none;stroke:#999;stroke-width:3" />
<path d="M1007.98,46.61c1.08,1.08,1.06,2.89,1.02,4.46C1008.5,67 1007.62,80.75 998.0,92.25" style="fill:none;stroke:#999;stroke-width:3" />
<path d="M1019.29,46.16c0.9,0.9,1.06,1.99,1.06,4.35s-0.09,30.7-0.09,37.74c0,9.01-4.59,2.31-5.98,0.53" style="fill:none;stroke:#999;stroke-width:3" />
<path d="M999.87,57.36c0.03,0.59,0.14,1.53-0.06,2.36C998.12,66.88 996.5,72.88 991.0,80.5" style="fill:none;stroke:#999;stroke-width:3" />
<path d="M1025.25,56.25c1.81,2.92,4.18,12.03,4.63,16.58" style="fill:none;stroke:#999;stroke-width:3" />
<path d="M1037.08,28.99c2.29,0.34,4.61,0.58,6.92,0.33c9-0.95,16.75-1.7,26.13-2.69c1.82-0.19,3.53-0.5,5.3-0.06" style="fill:none;stroke:#999;stroke-width:3" />
<path d="M1055.4,13.2c0.89,0.89,1.13,2.05,1.13,3.09c0,0.55,0.08,22.48,0,25.88" style="fill:none;stroke:#999;stroke-width:3" />
<path d="M1034.04,45.64c2.33,0.49,4.62,0.33,6.97,0c8.99-1.27,21.49-2.14,32-3.01c2.69-0.22,5.32-0.37,7.95,0.14" style="fill:none;stroke:black;stroke-width:3" />
<circle cx="1034.04" cy="45.64" r="5" stroke-width="0" fill="#FF2A00" opacity="0.7" />
<path d="M1107.58,30.49c1.75,0.37,3.52,0.49,5.31,0.36c5.91-0.5,12.49-1.6,19.98-2.77c1.95-0.31,3.71-0.52,5.56-0.01" style="fill:none;stroke:#999;stroke-width:3" />
<path d="M1123.4,15.2c0.83,0.83,1.13,2.05,1.13,3.09c0,0.55,0,18.59,0,22.88" style="fill:none;stroke:#999;stroke-width:3" />
<path d="M1100.54,44.64c2.53,0.55,5.01,0.47,7.59,0.07c9.62-1.46,18.96-2.6,28-3.79c2.44-0.32,4.73-0.47,7.08,0.1" style="fill:none;stroke:#999;stroke-width:3" />
<path d="M1116.98,46.61c1.08,1.08,1.06,2.89,1.02,4.46C1117.5,67 1116.62,80.75 1107.0,92.25" style="fill:none;stroke:#999;stroke-width:3" />
<path d="M1128.29,46.16c0.9,0.9,1.06,1.99,1.06,4.35s-0.09,30.7-0.09,37.74c0,9.01-4.59,2.31-5.98,0.53" style="fill:none;stroke:#999;stroke-width:3" />
<path d="M1108.87,57.36c0.03,0.59,0.14,1.53-0.06,2.36C1107.12,66.88 1105.5,72.88 1100.0,80.5" style="fill:none;stroke:#999;stroke-width:3" />
<path d="M1134.25,56.25c1.81,2.92,4.18,12.03,4.63,16.58" style="fill:none;stroke:#999;stroke-width:3" />
<path d="M1146.08,28.99c2.29,0.34,4.61,0.58,6.92,0.33c9-0.95,16.75-1.7,26.13-2.69c1.82-0.19,3.53-0.5,5.3-0.06" style="fill:none;stroke:#999;stroke-width:3" />
<path d="M1164.4,13.2c0.89,0.89,1.13,2.05,1.13,3.09c0,0.55,0.08,22.48,0,25.88" style="fill:none;stroke:#999;stroke-width:3" />
<path d="M1143.04,45.64c2.33,0.49,4.62,0.33,6.97,0c8.99-1.27,21.49-2.14,32-3.01c2.69-0.22,5.32-0.37,7.95,0.14" style="fill:none;stroke:#999;stroke-width:3" />
<path d="M1158.66,47.86c0.99,0.99,1.12,2.82,1.08,4.37c-0.37,16.88-3.62,31.9-13.49,40.27" style="fill:none;stroke:black;stroke-width:3" />
<circle cx="1158.66" cy="47.86" r="5" stroke-width="0" fill="#FF2A00" opacity="0.7" />
<path d="M1216.58,30.49c1.75,0.37,3.52,0.49,5.31,0.36c5.91-0.5,12.49-1.6,19.98-2.77c1.95-0.31,3.71-0.52,5.56-0.01" style="fill:none;stroke:#999;stroke-width:3" />
<path d="M1232.4,15.2c0.83,0.83,1.13,2.05,1.13,3.09c0,0.55,0,18.59,0,22.88" style="fill:none;stroke:#999;stroke-width:3" />
<path d="M1209.54,44.64c2.53,0.55,5.01,0.47,7.59,0.07c9.62-1.46,18.96-2.6,28-3.79c2.44-0.32,4.73-0.47,7.08,0.1" style="fill:none;stroke:#999;stroke-width:3" />
<path d="M1225.98,46.61c1.08,1.08,1.06,2.89,1.02,4.46C1226.5,67 1225.62,80.75 1216.0,92.25" style="fill:none;stroke:#999;stroke-width:3" />
<path d="M1237.29,46.16c0.9,0.9,1.06,1.99,1.06,4.35s-0.09,30.7-0.09,37.74c0,9.01-4.59,2.31-5.98,0.53" style="fill:none;stroke:#999;stroke-width:3" />
<path d="M1217.87,57.36c0.03,0.59,0.14,1.53-0.06,2.36C1216.12,66.88 1214.5,72.88 1209.0,80.5" style="fill:none;stroke:#999;stroke-width:3" />
<path d="M1243.25,56.25c1.81,2.92,4.18,12.03,4.63,16.58" style="fill:none;stroke:#999;stroke-width:3" />
<path d="M1255.08,28.99c2.29,0.34,4.61,0.58,6.92,0.33c9-0.95,16.75-1.7,26.13-2.69c1.82-0.19,3.53-0.5,5.3-0.06" style="fill:none;stroke:#999;stroke-width:3" />
<path d="M1273.4,13.2c0.89,0.89,1.13,2.05,1.13,3.09c0,0.55,0.08,22.48,0,25.88" style="fill:none;stroke:#999;stroke-width:3" />
<path d="M1252.04,45.64c2.33,0.49,4.62,0.33,6.97,0c8.99-1.27,21.49-2.14,32-3.01c2.69-0.22,5.32-0.37,7.95,0.14" style="fill:none;stroke:#999;stroke-width:3" />
<path d="M1267.66,47.86c0.99,0.99,1.12,2.82,1.08,4.37c-0.37,16.88-3.62,31.9-13.49,40.27" style="fill:none;stroke:#999;stroke-width:3" />
<path d="M1279.79,46.66c0.84,0.84,1.06,2.12,1.06,4.35s-0.09,30.57-0.09,37.61c0,9.01-4.84,2.93-6.23,1.16" style="fill:none;stroke:black;stroke-width:3" />
<circle cx="1279.79" cy="46.66" r="5" stroke-width="0" fill="#FF2A00" opacity="0.7" />
<path d="M1325.58,30.49c1.75,0.37,3.52,0.49,5.31,0.36c5.91-0.5,12.49-1.6,19.98-2.77c1.95-0.31,3.71-0.52,5.56-0.01" style="fill:none;stroke:#999;stroke-width:3" />
<path d="M1341.4,15.2c0.83,0.83,1.13,2.05,1.13,3.09c0,0.55,0,18.59,0,22.88" style="fill:none;stroke:#999;stroke-width:3" />
<path d="M1318.54,44.64c2.53,0.55,5.01,0.47,7.59,0.07c9.62-1.46,18.96-2.6,28-3.79c2.44-0.32,4.73-0.47,7.08,0.1" style="fill:none;stroke:#999;stroke-width:3" />
<path d="M1334.98,46.61c1.08,1.08,1.06,2.89,1.02,4.46C1335.5,67 1334.62,80.75 1325.0,92.25" style="fill:none;stroke:#999;stroke-width:3" />
<path d="M1346.29,46.16c0.9,0.9,1.06,1.99,1.06,4.35s-0.09,30.7-0.09,37.74c0,9.01-4.59,2.31-5.98,0.53" style="fill:none;stroke:#999;stroke-width:3" />
<path d="M1326.87,57.36c0.03,0.59,0.14,1.53-0.06,2.36C1325.12,66.88 1323.5,72.88 1318.0,80.5" style="fill:none;stroke:#999;stroke-width:3" />
<path d="M1352.25,56.25c1.81,2.92,4.18,12.03,4.63,16.58" style="fill:none;stroke:#999;stroke-width:3" />
<path d="M1364.08,28.99c2.29,0.34,4.61,0.58,6.92,0.33c9-0.95,16.75-1.7,26.13-2.69c1.82-0.19,3.53-0.5,5.3-0.06" style="fill:none;stroke:#999;stroke-width:3" />
<path d="M1382.4,13.2c0.89,0.89,1.13,2.05,1.13,3.09c0,0.55,0.08,22.48,0,25.88" style="fill:none;stroke:#999;stroke-width:3" />
<path d="M1361.04,45.64c2.33,0.49,4.62,0.33,6.97,0c8.99-1.27,21.49-2.14,32-3.01c2.69-0.22,5.32-0.37,7.95,0.14" style="fill:none;stroke:#999;stroke-width:3" />
<path d="M1376.66,47.86c0.99,0.99,1.12,2.82,1.08,4.37c-0.37,16.88-3.62,31.9-13.49,40.27" style="fill:none;stroke:#999;stroke-width:3" />
<path d="M1388.79,46.66c0.84,0.84,1.06,2.12,1.06,4.35s-0.09,30.57-0.09,37.61c0,9.01-4.84,2.93-6.23,1.16" style="fill:none;stroke:#999;stroke-width:3" />
<path d="M1368.86,57.36c0.14,1.29,0,2.54-0.43,3.75c-1.61,5.98-4.31,11.76-9.93,19.64" style="fill:none;stroke:black;stroke-width:3" />
<circle cx="1368.86" cy="57.36" r="5" stroke-width="0" fill="#FF2A00" opacity="0.7" />
<path d="M1434.58,30.49c1.75,0.37,3.52,0.49,5.31,0.36c5.91-0.5,12.49-1.6,19.98-2.77c1.95-0.31,3.71-0.52,5.56-0.01" style="fill:none;stroke:#999;stroke-width:3" />
<path d="M1450.4,15.2c0.83,0.83,1.13,2.05,1.13,3.09c0,0.55,0,18.59,0,22.88" style="fill:none;stroke:#999;stroke-width:3" />
<path d="M1427.54,44.64c2.53,0.55,5.01,0.47,7.59,0.07c9.62-1.46,18.96-2.6,28-3.79c2.44-0.32,4.73-0.47,7.08,0.1" style="fill:none;stroke:#999;stroke-width:3" />
<path d="M1443.98,46.61c1.08,1.08,1.06,2.89,1.02,4.46C1444.5,67 1443.62,80.75 1434.0,92.25" style="fill:none;stroke:#999;stroke-width:3" />
<path d="M1455.29,46.16c0.9,0.9,1.06,1.99,1.06,4.35s-0.09,30.7-0.09,37.74c0,9.01-4.59,2.31-5.98,0.53" style="fill:none;stroke:#999;stroke-width:3" />
<path d="M1435.87,57.36c0.03,0.59,0.14,1.53-0.06,2.36C1434.12,66.88 1432.5,72.88 1427.0,80.5" style="fill:none;stroke:#999;stroke-width:3" />
<path d="M1461.25,56.25c1.81,2.92,4.18,12.03,4.63,16.58" style="fill:none;stroke:#999;stroke-width:3" />
<path d="M1473.08,28.99c2.29,0.34,4.61,0.58,6.92,0.33c9-0.95,16.75-1.7,26.13-2.69c1.82-0.19,3.53-0.5,5.3-0.06" style="fill:none;stroke:#999;stroke-width:3" />
<path d="M1491.4,13.2c0.89,0.89,1.13,2.05,1.13,3.09c0,0.55,0.08,22.48,0,25.88" style="fill:none;stroke:#999;stroke-width:3" />
<path d="M1470.04,45.64c2.33,0.49,4.62,0.33,6.97,0c8.99-1.27,21.49-2.14,32-3.01c2.69-0.22,5.32-0.37,7.95,0.14" style="fill:none;stroke:#999;stroke-width:3" />
<path d="M1485.66,47.86c0.99,0.99,1.12,2.82,1.08,4.37c-0.37,16.88-3.62,31.9-13.49,40.27" style="fill:none;stroke:#999;stroke-width:3" />
<path d="M1497.79,46.66c0.84,0.84,1.06,2.12,1.06,4.35s-0.09,30.57-0.09,37.61c0,9.01-4.84,2.93-6.23,1.16" style="fill:none;stroke:#999;stroke-width:3" />
<path d="M1477.86,57.36c0.14,1.29,0,2.54-0.43,3.75c-1.61,5.98-4.31,11.76-9.93,19.64" style="fill:none;stroke:#999;stroke-width:3" />
<path d="M1505.75,56.75c3.31,3.59,8.3,14,9.13,19.58" style="fill:none;stroke:black;stroke-width:3" />
<circle cx="1505.75" cy="56.75" r="5" stroke-width="0" fill="#FF2A00" opacity="0.7" />
</svg>