<!-- 08d6d -->
<svg width="1744px" height="109px" viewBox="0 0 1744px 109px" xmlns="http://www.w3.org/2000/svg" xmlns:xlink="http://www.w3.org/1999/xlink" xml:space="preserve" version="1.1"  baseProfile="full">
<line x1="1" y1="1" x2="1743" y2="1" style="stroke:#ddd;stroke-width:2" />
<line x1="1" y1="1" x2="1" y2="108" style="stroke:#ddd;stroke-width:2" />
<line x1="1" y1="108" x2="1743" y2="108" style="stroke:#ddd;stroke-width:2" />
<line x1="1743" y1="1" x2="1743" y2="108" style="stroke:#ddd;stroke-width:2" />
<line x1="109" y1="1" x2="109" y2="108" style="stroke:#ddd;stroke-width:2" />
<line x1="218" y1="1" x2="218" y2="108" style="stroke:#ddd;stroke-width:2" />
<line x1="327" y1="1" x2="327" y2="108" style="stroke:#ddd;stroke-width:2" />
<line x1="436" y1="1" x2="436" y2="108" style="stroke:#ddd;stroke-width:2" />
<line x1="545" y1="1" x2="545" y2="108" style="stroke:#ddd;stroke-width:2" />
<line x1="654" y1="1" x2="654" y2="108" style="stroke:#ddd;stroke-width:2" />
<line x1="763" y1="1" x2="763" y2="108" style="stroke:#ddd;stroke-width:2" />
<line x1="872" y1="1" x2="872" y2="108" style="stroke:#ddd;stroke-width:2" />
<line x1="981" y1="1" x2="981" y2="108" style="stroke:#ddd;stroke-width:2" />
<line x1="1090" y1="1" x2="1090" y2="108" style="stroke:#ddd;stroke-width:2" />
<line x1="1199" y1="1" x2="1199" y2="108" style="stroke:#ddd;stroke-width:2" />
<line x1="1308" y1="1" x2="1308" y2="108" style="stroke:#ddd;stroke-width:2" />
<line x1="1417" y1="1" x2="1417" y2="108" style="stroke:#ddd;stroke-width:2" />
<line x1="1526" y1="1" x2="1526" y2="108" style="stroke:#ddd;stroke-width:2" />
<line x1="1635" y1="1" x2="1635" y2="108" style="stroke:#ddd;stroke-width:2" />
<line x1="1" y1="54" x2="1743" y2="54" style="stroke:#ddd;stroke-width:2;stroke-dasharray:3 3" />
<line x1="55" y1="1" x2="55" y2="108" style="stroke:#ddd;stroke-width:2;stroke-dasharray:3 3" />
<line x1="164" y1="1" x2="164" y2="108" style="stroke:#ddd;stroke-width:2;stroke-dasharray:3 3" />
<line x1="273" y1="1" x2="273" y2="108" style="stroke:#ddd;stroke-width:2;stroke-dasharray:3 3" />
<line x1="382" y1="1" x2="382" y2="108" style="stroke:#ddd;stroke-width:2;stroke-dasharray:3 3" />
<line x1="491" y1="1" x2="491" y2="108" style="stroke:#ddd;stroke-width:2;stroke-dasharray:3 3" />
<line x1="600" y1="1" x2="600" y2="108" style="stroke:#ddd;stroke-width:2;stroke-dasharray:3 3" />
<line x1="709" y1="1" x2="709" y2="108" style="stroke:#ddd;stroke-width:2;stroke-dasharray:3 3" />
<line x1="818" y1="1" x2="818" y2="108" style="stroke:#ddd;stroke-width:2;stroke-dasharray:3 3" />
<line x1="927" y1="1" x2="927" y2="108" style="stroke:#ddd;stroke-width:2;stroke-dasharray:3 3" />
<line x1="1036" y1="1" x2="1036" y2="108" style="stroke:#ddd;stroke-width:2;stroke-dasharray:3 3" />
<line x1="1145" y1="1" x2="1145" y2="108" style="stroke:#ddd;stroke-width:2;stroke-dasharray:3 3" />
<line x1="1254" y1="1" x2="1254" y2="108" style="stroke:#ddd;stroke-width:2;stroke-dasharray:3 3" />
<line x1="1363" y1="1" x2="1363" y2="108" style="stroke:#ddd;stroke-width:2;stroke-dasharray:3 3" />
<line x1="1472" y1="1" x2="1472" y2="108" style="stroke:#ddd;stroke-width:2;stroke-dasharray:3 3" />
<line x1="1581" y1="1" x2="1581" y2="108" style="stroke:#ddd;stroke-width:2;stroke-dasharray:3 3" />
<line x1="1690" y1="1" x2="1690" y2="108" style="stroke:#ddd;stroke-width:2;stroke-dasharray:3 3" />
<path d="M14.76,30.73c0.97,0.36,2.75,0.37,3.73,0.36c5.47-0.08,17.02-1.83,22.11-2.7c1.6-0.27,2.59,0.17,3.4,0.35" style="fill:none;stroke:black;stroke-width:3" />
<circle cx="14.76" cy="30.73" r="5" stroke-width="0" fill="#FF2A00" opacity="0.7" />
<path d="M123.76,30.73c0.97,0.36,2.75,0.37,3.73,0.36c5.47-0.08,17.02-1.83,22.11-2.7c1.6-0.27,2.59,0.17,3.4,0.35" style="fill:none;stroke:#999;stroke-width:3" />
<path d="M136.53,15.2c1.14,0.77,2.26,2.16,2.26,4.24c0,6.25,0.14,17.97,0,23.56" style="fill:none;stroke:black;stroke-width:3" />
<circle cx="136.53" cy="15.2" r="5" stroke-width="0" fill="#FF2A00" opacity="0.7" />
<path d="M232.76,30.73c0.97,0.36,2.75,0.37,3.73,0.36c5.47-0.08,17.02-1.83,22.11-2.7c1.6-0.27,2.59,0.17,3.4,0.35" style="fill:none;stroke:#999;stroke-width:3" />
<path d="M245.53,15.2c1.14,0.77,2.26,2.16,2.26,4.24c0,6.25,0.14,17.97,0,23.56" style="fill:none;stroke:#999;stroke-width:3" />
<path d="M227.63,45.17c0.85,0.38,3.17,0.47,4.02,0.38c8-0.8,24.36-3.3,32.28-3.88c1.4-0.1,2.25,0.18,2.96,0.37" style="fill:none;stroke:black;stroke-width:3" />
<circle cx="227.63" cy="45.17" r="5" stroke-width="0" fill="#FF2A00" opacity="0.7" />
<path d="M341.76,30.73c0.97,0.36,2.75,0.37,3.73,0.36c5.47-0.08,17.02-1.83,22.11-2.7c1.6-0.27,2.59,0.17,3.4,0.35" style="fill:none;stroke:#999;stroke-width:3" />
<path d="M354.53,15.2c1.14,0.77,2.26,2.16,2.26,4.24c0,6.25,0.14,17.97,0,23.56" style="fill:none;stroke:#999;stroke-width:3" />
<path d="M336.63,45.17c0.85,0.38,3.17,0.47,4.02,0.38c8-0.8,24.36-3.3,32.28-3.88c1.4-0.1,2.25,0.18,2.96,0.37" style="fill:none;stroke:#999;stroke-width:3" />
<path d="M352.05,46.89c0.68,0.96,1.5,4.04,1.36,5.66C351.93,70.37 352.25,81.75 341.59,94" style="fill:none;stroke:black;stroke-width:3" />
<circle cx="352.05" cy="46.89" r="5" stroke-width="0" fill="#FF2A00" opacity="0.7" />
<path d="M450.76,30.73c0.97,0.36,2.75,0.37,3.73,0.36c5.47-0.08,17.02-1.83,22.11-2.7c1.6-0.27,2.59,0.17,3.4,0.35" style="fill:none;stroke:#999;stroke-width:3" />
<path d="M463.53,15.2c1.14,0.77,2.26,2.16,2.26,4.24c0,6.25,0.14,17.97,0,23.56" style="fill:none;stroke:#999;stroke-width:3" />
<path d="M445.63,45.17c0.85,0.38,3.17,0.47,4.02,0.38c8-0.8,24.36-3.3,32.28-3.88c1.4-0.1,2.25,0.18,2.96,0.37" style="fill:none;stroke:#999;stroke-width:3" />
<path d="M461.05,46.89c0.68,0.96,1.5,4.04,1.36,5.66C460.93,70.37 461.25,81.75 450.59,94" style="fill:none;stroke:#999;stroke-width:3" />
<path d="M470.82,45.58c0.08,0.48,1.02,1.49,1.09,4.52c0.35,14.55,0.38,32.94,0.38,37.9c0,12.25-4.54,2.5-5.85,1.25" style="fill:none;stroke:black;stroke-width:3" />
<circle cx="470.82" cy="45.58" r="5" stroke-width="0" fill="#FF2A00" opacity="0.7" />
<path d="M559.76,30.73c0.97,0.36,2.75,0.37,3.73,0.36c5.47-0.08,17.02-1.83,22.11-2.7c1.6-0.27,2.59,0.17,3.4,0.35" style="fill:none;stroke:#999;stroke-width:3" />
<path d="M572.53,15.2c1.14,0.77,2.26,2.16,2.26,4.24c0,6.25,0.14,17.97,0,23.56" style="fill:none;stroke:#999;stroke-width:3" />
<path d="M554.63,45.17c0.85,0.38,3.17,0.47,4.02,0.38c8-0.8,24.36-3.3,32.28-3.88c1.4-0.1,2.25,0.18,2.96,0.37" style="fill:none;stroke:#999;stroke-width:3" />
<path d="M570.05,46.89c0.68,0.96,1.5,4.04,1.36,5.66C569.9300000000001,70.37 570.25,81.75 559.5899999999999,94" style="fill:none;stroke:#999;stroke-width:3" />
<path d="M579.8199999999999,45.58c0.08,0.48,1.02,1.49,1.09,4.52c0.35,14.55,0.38,32.94,0.38,37.9c0,12.25-4.54,2.5-5.85,1.25" style="fill:none;stroke:#999;stroke-width:3" />
<path d="M561.98,56.89c0.02,0.58,0.05,1.5-0.05,2.33c-0.56,4.93-2.93,14.41-7.3,21.02" style="fill:none;stroke:black;stroke-width:3" />
<circle cx="561.98" cy="56.89" r="5" stroke-width="0" fill="#FF2A00" opacity="0.7" />
<path d="M668.76,30.73c0.97,0.36,2.75,0.37,3.73,0.36c5.47-0.08,17.02-1.83,22.11-2.7c1.6-0.27,2.59,0.17,3.4,0.35" style="fill:none;stroke:#999;stroke-width:3" />
<path d="M681.53,15.2c1.14,0.77,2.26,2.16,2.26,4.24c0,6.25,0.14,17.97,0,23.56" style="fill:none;stroke:#999;stroke-width:3" />
<path d="M663.63,45.17c0.85,0.38,3.17,0.47,4.02,0.38c8-0.8,24.36-3.3,32.28-3.88c1.4-0.1,2.25,0.18,2.96,0.37" style="fill:none;stroke:#999;stroke-width:3" />
<path d="M679.05,46.89c0.68,0.96,1.5,4.04,1.36,5.66C678.9300000000001,70.37 679.25,81.75 668.5899999999999,94" style="fill:none;stroke:#999;stroke-width:3" />
<path d="M688.8199999999999,45.58c0.08,0.48,1.02,1.49,1.09,4.52c0.35,14.55,0.38,32.94,0.38,37.9c0,12.25-4.54,2.5-5.85,1.25" style="fill:none;stroke:#999;stroke-width:3" />
<path d="M670.98,56.89c0.02,0.58,0.05,1.5-0.05,2.33c-0.56,4.93-2.93,14.41-7.3,21.02" style="fill:none;stroke:#999;stroke-width:3" />
<path d="M695.62,57.58c1.55,3.33,4.02,13.7,4.4,18.88" style="fill:none;stroke:black;stroke-width:3" />
<circle cx="695.62" cy="57.58" r="5" stroke-width="0" fill="#FF2A00" opacity="0.7" />
<path d="M777.76,30.73c0.97,0.36,2.75,0.37,3.73,0.36c5.47-0.08,17.02-1.83,22.11-2.7c1.6-0.27,2.59,0.17,3.4,0.35" style="fill:none;stroke:#999;stroke-width:3" />
<path d="M790.53,15.2c1.14,0.77,2.26,2.16,2.26,4.24c0,6.25,0.14,17.97,0,23.56" style="fill:none;stroke:#999;stroke-width:3" />
<path d="M772.63,45.17c0.85,0.38,3.17,0.47,4.02,0.38c8-0.8,24.36-3.3,32.28-3.88c1.4-0.1,2.25,0.18,2.96,0.37" style="fill:none;stroke:#999;stroke-width:3" />
<path d="M788.05,46.89c0.68,0.96,1.5,4.04,1.36,5.66C787.9300000000001,70.37 788.25,81.75 777.5899999999999,94" style="fill:none;stroke:#999;stroke-width:3" />
<path d="M797.8199999999999,45.58c0.08,0.48,1.02,1.49,1.09,4.52c0.35,14.55,0.38,32.94,0.38,37.9c0,12.25-4.54,2.5-5.85,1.25" style="fill:none;stroke:#999;stroke-width:3" />
<path d="M779.98,56.89c0.02,0.58,0.05,1.5-0.05,2.33c-0.56,4.93-2.93,14.41-7.3,21.02" style="fill:none;stroke:#999;stroke-width:3" />
<path d="M804.62,57.58c1.55,3.33,4.02,13.7,4.4,18.88" style="fill:none;stroke:#999;stroke-width:3" />
<path d="M817.52,29.5c0.82,0.28,2.31,0.32,3.13,0.28c9.28-0.45,18.35-2.28,23.31-2.75c1.35-0.13,2.18,0.13,2.86,0.27" style="fill:none;stroke:black;stroke-width:3" />
<circle cx="817.52" cy="29.5" r="5" stroke-width="0" fill="#FF2A00" opacity="0.7" />
<path d="M886.76,30.73c0.97,0.36,2.75,0.37,3.73,0.36c5.47-0.08,17.02-1.83,22.11-2.7c1.6-0.27,2.59,0.17,3.4,0.35" style="fill:none;stroke:#999;stroke-width:3" />
<path d="M899.53,15.2c1.14,0.77,2.26,2.16,2.26,4.24c0,6.25,0.14,17.97,0,23.56" style="fill:none;stroke:#999;stroke-width:3" />
<path d="M881.63,45.17c0.85,0.38,3.17,0.47,4.02,0.38c8-0.8,24.36-3.3,32.28-3.88c1.4-0.1,2.25,0.18,2.96,0.37" style="fill:none;stroke:#999;stroke-width:3" />
<path d="M897.05,46.89c0.68,0.96,1.5,4.04,1.36,5.66C896.9300000000001,70.37 897.25,81.75 886.5899999999999,94" style="fill:none;stroke:#999;stroke-width:3" />
<path d="M906.8199999999999,45.58c0.08,0.48,1.02,1.49,1.09,4.52c0.35,14.55,0.38,32.94,0.38,37.9c0,12.25-4.54,2.5-5.85,1.25" style="fill:none;stroke:#999;stroke-width:3" />
<path d="M888.98,56.89c0.02,0.58,0.05,1.5-0.05,2.33c-0.56,4.93-2.93,14.41-7.3,21.02" style="fill:none;stroke:#999;stroke-width:3" />
<path d="M913.62,57.58c1.55,3.33,4.02,13.7,4.4,18.88" style="fill:none;stroke:#999;stroke-width:3" />
<path d="M926.52,29.5c0.82,0.28,2.31,0.32,3.13,0.28c9.28-0.45,18.35-2.28,23.31-2.75c1.35-0.13,2.18,0.13,2.86,0.27" style="fill:none;stroke:#999;stroke-width:3" />
<path d="M939.96,11.37c0.13,0.41,1.8,2.16,1.93,4.78c0.62,12.61,0.34,23.73,0.34,28.03" style="fill:none;stroke:black;stroke-width:3" />
<circle cx="939.96" cy="11.37" r="5" stroke-width="0" fill="#FF2A00" opacity="0.7" />
<path d="M995.76,30.73c0.97,0.36,2.75,0.37,3.73,0.36c5.47-0.08,17.02-1.83,22.11-2.7c1.6-0.27,2.59,0.17,3.4,0.35" style="fill:none;stroke:#999;stroke-width:3" />
<path d="M1008.53,15.2c1.14,0.77,2.26,2.16,2.26,4.24c0,6.25,0.14,17.97,0,23.56" style="fill:none;stroke:#999;stroke-width:3" />
<path d="M990.63,45.17c0.85,0.38,3.17,0.47,4.02,0.38c8-0.8,24.36-3.3,32.28-3.88c1.4-0.1,2.25,0.18,2.96,0.37" style="fill:none;stroke:#999;stroke-width:3" />
<path d="M1006.05,46.89c0.68,0.96,1.5,4.04,1.36,5.66C1005.9300000000001,70.37 1006.25,81.75 995.5899999999999,94" style="fill:none;stroke:#999;stroke-width:3" />
<path d="M1015.8199999999999,45.58c0.08,0.48,1.02,1.49,1.09,4.52c0.35,14.55,0.38,32.94,0.38,37.9c0,12.25-4.54,2.5-5.85,1.25" style="fill:none;stroke:#999;stroke-width:3" />
<path d="M997.98,56.89c0.02,0.58,0.05,1.5-0.05,2.33c-0.56,4.93-2.93,14.41-7.3,21.02" style="fill:none;stroke:#999;stroke-width:3" />
<path d="M1022.62,57.58c1.55,3.33,4.02,13.7,4.4,18.88" style="fill:none;stroke:#999;stroke-width:3" />
<path d="M1035.52,29.5c0.82,0.28,2.31,0.32,3.13,0.28c9.28-0.45,18.35-2.28,23.31-2.75c1.35-0.13,2.18,0.13,2.86,0.27" style="fill:none;stroke:#999;stroke-width:3" />
<path d="M1048.96,11.37c0.13,0.41,1.8,2.16,1.93,4.78c0.62,12.61,0.34,23.73,0.34,28.03" style="fill:none;stroke:#999;stroke-width:3" />
<path d="M1030.06,46.21c1.48,0.36,3.76,0.67,5.09,0.53c7.4-0.75,32.74-4.3,41.32-4.47c2.21-0.04,3.54,0.26,4.65,0.52" style="fill:none;stroke:black;stroke-width:3" />
<circle cx="1030.06" cy="46.21" r="5" stroke-width="0" fill="#FF2A00" opacity="0.7" />
<path d="M1104.76,30.73c0.97,0.36,2.75,0.37,3.73,0.36c5.47-0.08,17.02-1.83,22.11-2.7c1.6-0.27,2.59,0.17,3.4,0.35" style="fill:none;stroke:#999;stroke-width:3" />
<path d="M1117.53,15.2c1.14,0.77,2.26,2.16,2.26,4.24c0,6.25,0.14,17.97,0,23.56" style="fill:none;stroke:#999;stroke-width:3" />
<path d="M1099.63,45.17c0.85,0.38,3.17,0.47,4.02,0.38c8-0.8,24.36-3.3,32.28-3.88c1.4-0.1,2.25,0.18,2.96,0.37" style="fill:none;stroke:#999;stroke-width:3" />
<path d="M1115.05,46.89c0.68,0.96,1.5,4.04,1.36,5.66C1114.93,70.37 1115.25,81.75 1104.59,94" style="fill:none;stroke:#999;stroke-width:3" />
<path d="M1124.82,45.58c0.08,0.48,1.02,1.49,1.09,4.52c0.35,14.55,0.38,32.94,0.38,37.9c0,12.25-4.54,2.5-5.85,1.25" style="fill:none;stroke:#999;stroke-width:3" />
<path d="M1106.98,56.89c0.02,0.58,0.05,1.5-0.05,2.33c-0.56,4.93-2.93,14.41-7.3,21.02" style="fill:none;stroke:#999;stroke-width:3" />
<path d="M1131.62,57.58c1.55,3.33,4.02,13.7,4.4,18.88" style="fill:none;stroke:#999;stroke-width:3" />
<path d="M1144.52,29.5c0.82,0.28,2.31,0.32,3.13,0.28c9.28-0.45,18.35-2.28,23.31-2.75c1.35-0.13,2.18,0.13,2.86,0.27" style="fill:none;stroke:#999;stroke-width:3" />
<path d="M1157.96,11.37c0.13,0.41,1.8,2.16,1.93,4.78c0.62,12.61,0.34,23.73,0.34,28.03" style="fill:none;stroke:#999;stroke-width:3" />
<path d="M1139.06,46.21c1.48,0.36,3.76,0.67,5.09,0.53c7.4-0.75,32.74-4.3,41.32-4.47c2.21-0.04,3.54,0.26,4.65,0.52" style="fill:none;stroke:#999;stroke-width:3" />
<path d="M1183.74,18.82c0.12,1.09,0.22,2.62-0.61,3.91C1172.39,39.36 1162.26,51.72 1142.67,67.1" style="fill:none;stroke:black;stroke-width:3" />
<circle cx="1183.74" cy="18.82" r="5" stroke-width="0" fill="#FF2A00" opacity="0.7" />
<path d="M1213.76,30.73c0.97,0.36,2.75,0.37,3.73,0.36c5.47-0.08,17.02-1.83,22.11-2.7c1.6-0.27,2.59,0.17,3.4,0.35" style="fill:none;stroke:#999;stroke-width:3" />
<path d="M1226.53,15.2c1.14,0.77,2.26,2.16,2.26,4.24c0,6.25,0.14,17.97,0,23.56" style="fill:none;stroke:#999;stroke-width:3" />
<path d="M1208.63,45.17c0.85,0.38,3.17,0.47,4.02,0.38c8-0.8,24.36-3.3,32.28-3.88c1.4-0.1,2.25,0.18,2.96,0.37" style="fill:none;stroke:#999;stroke-width:3" />
<path d="M1224.05,46.89c0.68,0.96,1.5,4.04,1.36,5.66C1223.93,70.37 1224.25,81.75 1213.59,94" style="fill:none;stroke:#999;stroke-width:3" />
<path d="M1233.82,45.58c0.08,0.48,1.02,1.49,1.09,4.52c0.35,14.55,0.38,32.94,0.38,37.9c0,12.25-4.54,2.5-5.85,1.25" style="fill:none;stroke:#999;stroke-width:3" />
<path d="M1215.98,56.89c0.02,0.58,0.05,1.5-0.05,2.33c-0.56,4.93-2.93,14.41-7.3,21.02" style="fill:none;stroke:#999;stroke-width:3" />
<path d="M1240.62,57.58c1.55,3.33,4.02,13.7,4.4,18.88" style="fill:none;stroke:#999;stroke-width:3" />
<path d="M1253.52,29.5c0.82,0.28,2.31,0.32,3.13,0.28c9.28-0.45,18.35-2.28,23.31-2.75c1.35-0.13,2.18,0.13,2.86,0.27" style="fill:none;stroke:#999;stroke-width:3" />
<path d="M1266.96,11.37c0.13,0.41,1.8,2.16,1.93,4.78c0.62,12.61,0.34,23.73,0.34,28.03" style="fill:none;stroke:#999;stroke-width:3" />
<path d="M1248.06,46.21c1.48,0.36,3.76,0.67,5.09,0.53c7.4-0.75,32.74-4.3,41.32-4.47c2.21-0.04,3.54,0.26,4.65,0.52" style="fill:none;stroke:#999;stroke-width:3" />
<path d="M1292.74,18.82c0.12,1.09,0.22,2.62-0.61,3.91C1281.39,39.36 1271.26,51.72 1251.67,67.1" style="fill:none;stroke:#999;stroke-width:3" />
<path d="M1280.05,48.25c2.46,1.28,6.35,5.26,6.96,7.25" style="fill:none;stroke:black;stroke-width:3" />
<circle cx="1280.05" cy="48.25" r="5" stroke-width="0" fill="#FF2A00" opacity="0.7" />
<path d="M1322.76,30.73c0.97,0.36,2.75,0.37,3.73,0.36c5.47-0.08,17.02-1.83,22.11-2.7c1.6-0.27,2.59,0.17,3.4,0.35" style="fill:none;stroke:#999;stroke-width:3" />
<path d="M1335.53,15.2c1.14,0.77,2.26,2.16,2.26,4.24c0,6.25,0.14,17.97,0,23.56" style="fill:none;stroke:#999;stroke-width:3" />
<path d="M1317.63,45.17c0.85,0.38,3.17,0.47,4.02,0.38c8-0.8,24.36-3.3,32.28-3.88c1.4-0.1,2.25,0.18,2.96,0.37" style="fill:none;stroke:#999;stroke-width:3" />
<path d="M1333.05,46.89c0.68,0.96,1.5,4.04,1.36,5.66C1332.93,70.37 1333.25,81.75 1322.59,94" style="fill:none;stroke:#999;stroke-width:3" />
<path d="M1342.82,45.58c0.08,0.48,1.02,1.49,1.09,4.52c0.35,14.55,0.38,32.94,0.38,37.9c0,12.25-4.54,2.5-5.85,1.25" style="fill:none;stroke:#999;stroke-width:3" />
<path d="M1324.98,56.89c0.02,0.58,0.05,1.5-0.05,2.33c-0.56,4.93-2.93,14.41-7.3,21.02" style="fill:none;stroke:#999;stroke-width:3" />
<path d="M1349.62,57.58c1.55,3.33,4.02,13.7,4.4,18.88" style="fill:none;stroke:#999;stroke-width:3" />
<path d="M1362.52,29.5c0.82,0.28,2.31,0.32,3.13,0.28c9.28-0.45,18.35-2.28,23.31-2.75c1.35-0.13,2.18,0.13,2.86,0.27" style="fill:none;stroke:#999;stroke-width:3" />
<path d="M1375.96,11.37c0.13,0.41,1.8,2.16,1.93,4.78c0.62,12.61,0.34,23.73,0.34,28.03" style="fill:none;stroke:#999;stroke-width:3" />
<path d="M1357.06,46.21c1.48,0.36,3.76,0.67,5.09,0.53c7.4-0.75,32.74-4.3,41.32-4.47c2.21-0.04,3.54,0.26,4.65,0.52" style="fill:none;stroke:#999;stroke-width:3" />
<path d="M1401.74,18.82c0.12,1.09,0.22,2.62-0.61,3.91C1390.39,39.36 1380.26,51.72 1360.67,67.1" style="fill:none;stroke:#999;stroke-width:3" />
<path d="M1389.05,48.25c2.46,1.28,6.35,5.26,6.96,7.25" style="fill:none;stroke:#999;stroke-width:3" />
<path d="M1371.79,62.63c0.35,1.01,0.69,1.51,0.69,2.86c0,1.34-0.23,30.36-0.23,31.04" style="fill:none;stroke:black;stroke-width:3" />
<circle cx="1371.79" cy="62.63" r="5" stroke-width="0" fill="#FF2A00" opacity="0.7" />
<path d="M1431.76,30.73c0.97,0.36,2.75,0.37,3.73,0.36c5.47-0.08,17.02-1.83,22.11-2.7c1.6-0.27,2.59,0.17,3.4,0.35" style="fill:none;stroke:#999;stroke-width:3" />
<path d="M1444.53,15.2c1.14,0.77,2.26,2.16,2.26,4.24c0,6.25,0.14,17.97,0,23.56" style="fill:none;stroke:#999;stroke-width:3" />
<path d="M1426.63,45.17c0.85,0.38,3.17,0.47,4.02,0.38c8-0.8,24.36-3.3,32.28-3.88c1.4-0.1,2.25,0.18,2.96,0.37" style="fill:none;stroke:#999;stroke-width:3" />
<path d="M1442.05,46.89c0.68,0.96,1.5,4.04,1.36,5.66C1441.93,70.37 1442.25,81.75 1431.59,94" style="fill:none;stroke:#999;stroke-width:3" />
<path d="M1451.82,45.58c0.08,0.48,1.02,1.49,1.09,4.52c0.35,14.55,0.38,32.94,0.38,37.9c0,12.25-4.54,2.5-5.85,1.25" style="fill:none;stroke:#999;stroke-width:3" />
<path d="M1433.98,56.89c0.02,0.58,0.05,1.5-0.05,2.33c-0.56,4.93-2.93,14.41-7.3,21.02" style="fill:none;stroke:#999;stroke-width:3" />
<path d="M1458.62,57.58c1.55,3.33,4.02,13.7,4.4,18.88" style="fill:none;stroke:#999;stroke-width:3" />
<path d="M1471.52,29.5c0.82,0.28,2.31,0.32,3.13,0.28c9.28-0.45,18.35-2.28,23.31-2.75c1.35-0.13,2.18,0.13,2.86,0.27" style="fill:none;stroke:#999;stroke-width:3" />
<path d="M1484.96,11.37c0.13,0.41,1.8,2.16,1.93,4.78c0.62,12.61,0.34,23.73,0.34,28.03" style="fill:none;stroke:#999;stroke-width:3" />
<path d="M1466.06,46.21c1.48,0.36,3.76,0.67,5.09,0.53c7.4-0.75,32.74-4.3,41.32-4.47c2.21-0.04,3.54,0.26,4.65,0.52" style="fill:none;stroke:#999;stroke-width:3" />
<path d="M1510.74,18.82c0.12,1.09,0.22,2.62-0.61,3.91C1499.39,39.36 1489.26,51.72 1469.67,67.1" style="fill:none;stroke:#999;stroke-width:3" />
<path d="M1498.05,48.25c2.46,1.28,6.35,5.26,6.96,7.25" style="fill:none;stroke:#999;stroke-width:3" />
<path d="M1480.79,62.63c0.35,1.01,0.69,1.51,0.69,2.86c0,1.34-0.23,30.36-0.23,31.04" style="fill:none;stroke:#999;stroke-width:3" />
<path d="M1481.38,64.16c1.58-0.14,22.62-3.35,24.06-3.52c1.2-0.13,1.97,1.51,1.88,2.31c-0.19,1.63-0.28,20.2-0.28,32.17" style="fill:none;stroke:black;stroke-width:3" />
<circle cx="1481.38" cy="64.16" r="5" stroke-width="0" fill="#FF2A00" opacity="0.7" />
<path d="M1540.76,30.73c0.97,0.36,2.75,0.37,3.73,0.36c5.47-0.08,17.02-1.83,22.11-2.7c1.6-0.27,2.59,0.17,3.4,0.35" style="fill:none;stroke:#999;stroke-width:3" />
<path d="M1553.53,15.2c1.14,0.77,2.26,2.16,2.26,4.24c0,6.25,0.14,17.97,0,23.56" style="fill:none;stroke:#999;stroke-width:3" />
<path d="M1535.63,45.17c0.85,0.38,3.17,0.47,4.02,0.38c8-0.8,24.36-3.3,32.28-3.88c1.4-0.1,2.25,0.18,2.96,0.37" style="fill:none;stroke:#999;stroke-width:3" />
<path d="M1551.05,46.89c0.68,0.96,1.5,4.04,1.36,5.66C1550.93,70.37 1551.25,81.75 1540.59,94" style="fill:none;stroke:#999;stroke-width:3" />
<path d="M1560.82,45.58c0.08,0.48,1.02,1.49,1.09,4.52c0.35,14.55,0.38,32.94,0.38,37.9c0,12.25-4.54,2.5-5.85,1.25" style="fill:none;stroke:#999;stroke-width:3" />
<path d="M1542.98,56.89c0.02,0.58,0.05,1.5-0.05,2.33c-0.56,4.93-2.93,14.41-7.3,21.02" style="fill:none;stroke:#999;stroke-width:3" />
<path d="M1567.62,57.58c1.55,3.33,4.02,13.7,4.4,18.88" style="fill:none;stroke:#999;stroke-width:3" />
<path d="M1580.52,29.5c0.82,0.28,2.31,0.32,3.13,0.28c9.28-0.45,18.35-2.28,23.31-2.75c1.35-0.13,2.18,0.13,2.86,0.27" style="fill:none;stroke:#999;stroke-width:3" />
<path d="M1593.96,11.37c0.13,0.41,1.8,2.16,1.93,4.78c0.62,12.61,0.34,23.73,0.34,28.03" style="fill:none;stroke:#999;stroke-width:3" />
<path d="M1575.06,46.21c1.48,0.36,3.76,0.67,5.09,0.53c7.4-0.75,32.74-4.3,41.32-4.47c2.21-0.04,3.54,0.26,4.65,0.52" style="fill:none;stroke:#999;stroke-width:3" />
<path d="M1619.74,18.82c0.12,1.09,0.22,2.62-0.61,3.91C1608.39,39.36 1598.26,51.72 1578.67,67.1" style="fill:none;stroke:#999;stroke-width:3" />
<path d="M1607.05,48.25c2.46,1.28,6.35,5.26,6.96,7.25" style="fill:none;stroke:#999;stroke-width:3" />
<path d="M1589.79,62.63c0.35,1.01,0.69,1.51,0.69,2.86c0,1.34-0.23,30.36-0.23,31.04" style="fill:none;stroke:#999;stroke-width:3" />
<path d="M1590.38,64.16c1.58-0.14,22.62-3.35,24.06-3.52c1.2-0.13,1.97,1.51,1.88,2.31c-0.19,1.63-0.28,20.2-0.28,32.17" style="fill:none;stroke:#999;stroke-width:3" />
<path d="M1590.71,76.96c4.88,0,22.62-2.5,25.04-2.5" style="fill:none;stroke:black;stroke-width:3" />
<circle cx="1590.71" cy="76.96" r="5" stroke-width="0" fill="#FF2A00" opacity="0.7" />
<path d="M1649.76,30.73c0.97,0.36,2.75,0.37,3.73,0.36c5.47-0.08,17.02-1.83,22.11-2.7c1.6-0.27,2.59,0.17,3.4,0.35" style="fill:none;stroke:#999;stroke-width:3" />
<path d="M1662.53,15.2c1.14,0.77,2.26,2.16,2.26,4.24c0,6.25,0.14,17.97,0,23.56" style="fill:none;stroke:#999;stroke-width:3" />
<path d="M1644.63,45.17c0.85,0.38,3.17,0.47,4.02,0.38c8-0.8,24.36-3.3,32.28-3.88c1.4-0.1,2.25,0.18,2.96,0.37" style="fill:none;stroke:#999;stroke-width:3" />
<path d="M1660.05,46.89c0.68,0.96,1.5,4.04,1.36,5.66C1659.93,70.37 1660.25,81.75 1649.59,94" style="fill:none;stroke:#999;stroke-width:3" />
<path d="M1669.82,45.58c0.08,0.48,1.02,1.49,1.09,4.52c0.35,14.55,0.38,32.94,0.38,37.9c0,12.25-4.54,2.5-5.85,1.25" style="fill:none;stroke:#999;stroke-width:3" />
<path d="M1651.98,56.89c0.02,0.58,0.05,1.5-0.05,2.33c-0.56,4.93-2.93,14.41-7.3,21.02" style="fill:none;stroke:#999;stroke-width:3" />
<path d="M1676.62,57.58c1.55,3.33,4.02,13.7,4.4,18.88" style="fill:none;stroke:#999;stroke-width:3" />
<path d="M1689.52,29.5c0.82,0.28,2.31,0.32,3.13,0.28c9.28-0.45,18.35-2.28,23.31-2.75c1.35-0.13,2.18,0.13,2.86,0.27" style="fill:none;stroke:#999;stroke-width:3" />
<path d="M1702.96,11.37c0.13,0.41,1.8,2.16,1.93,4.78c0.62,12.61,0.34,23.73,0.34,28.03" style="fill:none;stroke:#999;stroke-width:3" />
<path d="M1684.06,46.21c1.48,0.36,3.76,0.67,5.09,0.53c7.4-0.75,32.74-4.3,41.32-4.47c2.21-0.04,3.54,0.26,4.65,0.52" style="fill:none;stroke:#999;stroke-width:3" />
<path d="M1728.74,18.82c0.12,1.09,0.22,2.62-0.61,3.91C1717.39,39.36 1707.26,51.72 1687.67,67.1" style="fill:none;stroke:#999;stroke-width:3" />
<path d="M1716.05,48.25c2.46,1.28,6.35,5.26,6.96,7.25" style="fill:none;stroke:#999;stroke-width:3" />
<path d="M1698.79,62.63c0.35,1.01,0.69,1.51,0.69,2.86c0,1.34-0.23,30.36-0.23,31.04" style="fill:none;stroke:#999;stroke-width:3" />
<path d="M1699.38,64.16c1.58-0.14,22.62-3.35,24.06-3.52c1.2-0.13,1.97,1.51,1.88,2.31c-0.19,1.63-0.28,20.2-0.28,32.17" style="fill:none;stroke:#999;stroke-width:3" />
<path d="M1699.71,76.96c4.88,0,22.62-2.5,25.04-2.5" style="fill:none;stroke:#999;stroke-width:3" />
<path d="M1699.61,92.96c8.64-1.21,18.5-2.2,25.13-2.23" style="fill:none;stroke:black;stroke-width:3" />
<circle cx="1699.61" cy="92.96" r="5" stroke-width="0" fill="#FF2A00" opacity="0.7" />
</svg>