<!-- 08e1f -->
<svg width="1635px" height="109px" viewBox="0 0 1635px 109px" xmlns="http://www.w3.org/2000/svg" xmlns:xlink="http://www.w3.org/1999/xlink" xml:space="preserve" version="1.1"  baseProfile="full">
<line x1="1" y1="1" x2="1634" y2="1" style="stroke:#ddd;stroke-width:2" />
<line x1="1" y1="1" x2="1" y2="108" style="stroke:#ddd;stroke-width:2" />
<line x1="1" y1="108" x2="1634" y2="108" style="stroke:#ddd;stroke-width:2" />
<line x1="1634" y1="1" x2="1634" y2="108" style="stroke:#ddd;stroke-width:2" />
<line x1="109" y1="1" x2="109" y2="108" style="stroke:#ddd;stroke-width:2" />
<line x1="218" y1="1" x2="218" y2="108" style="stroke:#ddd;stroke-width:2" />
<line x1="327" y1="1" x2="327" y2="108" style="stroke:#ddd;stroke-width:2" />
<line x1="436" y1="1" x2="436" y2="108" style="stroke:#ddd;stroke-width:2" />
<line x1="545" y1="1" x2="545" y2="108" style="stroke:#ddd;stroke-width:2" />
<line x1="654" y1="1" x2="654" y2="108" style="stroke:#ddd;stroke-width:2" />
<line x1="763" y1="1" x2="763" y2="108" style="stroke:#ddd;stroke-width:2" />
<line x1="872" y1="1" x2="872" y2="108" style="stroke:#ddd;stroke-width:2" />
<line x1="981" y1="1" x2="981" y2="108" style="stroke:#ddd;stroke-width:2" />
<line x1="1090" y1="1" x2="1090" y2="108" style="stroke:#ddd;stroke-width:2" />
<line x1="1199" y1="1" x2="1199" y2="108" style="stroke:#ddd;stroke-width:2" />
<line x1="1308" y1="1" x2="1308" y2="108" style="stroke:#ddd;stroke-width:2" />
<line x1="1417" y1="1" x2="1417" y2="108" style="stroke:#ddd;stroke-width:2" />
<line x1="1526" y1="1" x2="1526" y2="108" style="stroke:#ddd;stroke-width:2" />
<line x1="1" y1="54" x2="1634" y2="54" style="stroke:#ddd;stroke-width:2;stroke-dasharray:3 3" />
<line x1="55" y1="1" x2="55" y2="108" style="stroke:#ddd;stroke-width:2;stroke-dasharray:3 3" />
<line x1="164" y1="1" x2="164" y2="108" style="stroke:#ddd;stroke-width:2;stroke-dasharray:3 3" />
<line x1="273" y1="1" x2="273" y2="108" style="stroke:#ddd;stroke-width:2;stroke-dasharray:3 3" />
<line x1="382" y1="1" x2="382" y2="108" style="stroke:#ddd;stroke-width:2;stroke-dasharray:3 3" />
<line x1="491" y1="1" x2="491" y2="108" style="stroke:#ddd;stroke-width:2;stroke-dasharray:3 3" />
<line x1="600" y1="1" x2="600" y2="108" style="stroke:#ddd;stroke-width:2;stroke-dasharray:3 3" />
<line x1="709" y1="1" x2="709" y2="108" style="stroke:#ddd;stroke-width:2;stroke-dasharray:3 3" />
<line x1="818" y1="1" x2="818" y2="108" style="stroke:#ddd;stroke-width:2;stroke-dasharray:3 3" />
<line x1="927" y1="1" x2="927" y2="108" style="stroke:#ddd;stroke-width:2;stroke-dasharray:3 3" />
<line x1="1036" y1="1" x2="1036" y2="108" style="stroke:#ddd;stroke-width:2;stroke-dasharray:3 3" />
<line x1="1145" y1="1" x2="1145" y2="108" style="stroke:#ddd;stroke-width:2;stroke-dasharray:3 3" />
<line x1="1254" y1="1" x2="1254" y2="108" style="stroke:#ddd;stroke-width:2;stroke-dasharray:3 3" />
<line x1="1363" y1="1" x2="1363" y2="108" style="stroke:#ddd;stroke-width:2;stroke-dasharray:3 3" />
<line x1="1472" y1="1" x2="1472" y2="108" style="stroke:#ddd;stroke-width:2;stroke-dasharray:3 3" />
<line x1="1581" y1="1" x2="1581" y2="108" style="stroke:#ddd;stroke-width:2;stroke-dasharray:3 3" />
<path d="M13.72,20.08c0.34,0.29,0.69,0.54,0.84,0.9c1.19,2.89,1.67,14.07,2.49,19.27" style="fill:none;stroke:black;stroke-width:3" />
<circle cx="13.72" cy="20.08" r="5" stroke-width="0" fill="#FF2A00" opacity="0.7" />
<path d="M122.72,20.08c0.34,0.29,0.69,0.54,0.84,0.9c1.19,2.89,1.67,14.07,2.49,19.27" style="fill:none;stroke:#999;stroke-width:3" />
<path d="M124.41,21.64c8.11-1.55,16.54-2.28,20.56-2.66c1.47-0.14,2.35,0.82,2.14,1.64c-0.97,3.76-2.49,10.43-3.68,14.73" style="fill:none;stroke:black;stroke-width:3" />
<circle cx="124.41" cy="21.64" r="5" stroke-width="0" fill="#FF2A00" opacity="0.7" />
<path d="M231.72,20.08c0.34,0.29,0.69,0.54,0.84,0.9c1.19,2.89,1.67,14.07,2.49,19.27" style="fill:none;stroke:#999;stroke-width:3" />
<path d="M233.41,21.64c8.11-1.55,16.54-2.28,20.56-2.66c1.47-0.14,2.35,0.82,2.14,1.64c-0.97,3.76-2.49,10.43-3.68,14.73" style="fill:none;stroke:#999;stroke-width:3" />
<path d="M235.65,38.11c4.72-0.43,11.78-1.27,18.25-1.93" style="fill:none;stroke:black;stroke-width:3" />
<circle cx="235.65" cy="38.11" r="5" stroke-width="0" fill="#FF2A00" opacity="0.7" />
<path d="M340.72,20.08c0.34,0.29,0.69,0.54,0.84,0.9c1.19,2.89,1.67,14.07,2.49,19.27" style="fill:none;stroke:#999;stroke-width:3" />
<path d="M342.40999999999997,21.64c8.11-1.55,16.54-2.28,20.56-2.66c1.47-0.14,2.35,0.82,2.14,1.64c-0.97,3.76-2.49,10.43-3.68,14.73" style="fill:none;stroke:#999;stroke-width:3" />
<path d="M344.65,38.11c4.72-0.43,11.78-1.27,18.25-1.93" style="fill:none;stroke:#999;stroke-width:3" />
<path d="M352.37,39.24c1.09,0.5,1.96,2.23,1.96,3.25c0,5.51-0.22,30.01-0.22,40" style="fill:none;stroke:black;stroke-width:3" />
<circle cx="352.37" cy="39.24" r="5" stroke-width="0" fill="#FF2A00" opacity="0.7" />
<path d="M449.72,20.08c0.34,0.29,0.69,0.54,0.84,0.9c1.19,2.89,1.67,14.07,2.49,19.27" style="fill:none;stroke:#999;stroke-width:3" />
<path d="M451.40999999999997,21.64c8.11-1.55,16.54-2.28,20.56-2.66c1.47-0.14,2.35,0.82,2.14,1.64c-0.97,3.76-2.49,10.43-3.68,14.73" style="fill:none;stroke:#999;stroke-width:3" />
<path d="M453.65,38.11c4.72-0.43,11.78-1.27,18.25-1.93" style="fill:none;stroke:#999;stroke-width:3" />
<path d="M461.37,39.24c1.09,0.5,1.96,2.23,1.96,3.25c0,5.51-0.22,30.01-0.22,40" style="fill:none;stroke:#999;stroke-width:3" />
<path d="M463.38,58.74c3.37-0.49,3.87-1.24,7.35-1.5c1.74-0.13,2.18-0.25,3.26,0" style="fill:none;stroke:black;stroke-width:3" />
<circle cx="463.38" cy="58.74" r="5" stroke-width="0" fill="#FF2A00" opacity="0.7" />
<path d="M558.72,20.08c0.34,0.29,0.69,0.54,0.84,0.9c1.19,2.89,1.67,14.07,2.49,19.27" style="fill:none;stroke:#999;stroke-width:3" />
<path d="M560.41,21.64c8.11-1.55,16.54-2.28,20.56-2.66c1.47-0.14,2.35,0.82,2.14,1.64c-0.97,3.76-2.49,10.43-3.68,14.73" style="fill:none;stroke:#999;stroke-width:3" />
<path d="M562.65,38.11c4.72-0.43,11.78-1.27,18.25-1.93" style="fill:none;stroke:#999;stroke-width:3" />
<path d="M570.37,39.24c1.09,0.5,1.96,2.23,1.96,3.25c0,5.51-0.22,30.01-0.22,40" style="fill:none;stroke:#999;stroke-width:3" />
<path d="M572.38,58.74c3.37-0.49,3.87-1.24,7.35-1.5c1.74-0.13,2.18-0.25,3.26,0" style="fill:none;stroke:#999;stroke-width:3" />
<path d="M559.87,52.49c1.09,0.5,1.74,2.25,1.96,3.25c0.22,1,0.42,21.01,0.42,32.76" style="fill:none;stroke:black;stroke-width:3" />
<circle cx="559.87" cy="52.49" r="5" stroke-width="0" fill="#FF2A00" opacity="0.7" />
<path d="M667.72,20.08c0.34,0.29,0.69,0.54,0.84,0.9c1.19,2.89,1.67,14.07,2.49,19.27" style="fill:none;stroke:#999;stroke-width:3" />
<path d="M669.41,21.64c8.11-1.55,16.54-2.28,20.56-2.66c1.47-0.14,2.35,0.82,2.14,1.64c-0.97,3.76-2.49,10.43-3.68,14.73" style="fill:none;stroke:#999;stroke-width:3" />
<path d="M671.65,38.11c4.72-0.43,11.78-1.27,18.25-1.93" style="fill:none;stroke:#999;stroke-width:3" />
<path d="M679.37,39.24c1.09,0.5,1.96,2.23,1.96,3.25c0,5.51-0.22,30.01-0.22,40" style="fill:none;stroke:#999;stroke-width:3" />
<path d="M681.38,58.74c3.37-0.49,3.87-1.24,7.35-1.5c1.74-0.13,2.18-0.25,3.26,0" style="fill:none;stroke:#999;stroke-width:3" />
<path d="M668.87,52.49c1.09,0.5,1.74,2.25,1.96,3.25c0.22,1,0.42,21.01,0.42,32.76" style="fill:none;stroke:#999;stroke-width:3" />
<path d="M664.0,89.68c1.25,1.07,3.42,1.22,4.27,0.8c8.35-4.16,16.02-8.32,25.23-12.99" style="fill:none;stroke:black;stroke-width:3" />
<circle cx="664.0" cy="89.68" r="5" stroke-width="0" fill="#FF2A00" opacity="0.7" />
<path d="M776.72,20.08c0.34,0.29,0.69,0.54,0.84,0.9c1.19,2.89,1.67,14.07,2.49,19.27" style="fill:none;stroke:#999;stroke-width:3" />
<path d="M778.41,21.64c8.11-1.55,16.54-2.28,20.56-2.66c1.47-0.14,2.35,0.82,2.14,1.64c-0.97,3.76-2.49,10.43-3.68,14.73" style="fill:none;stroke:#999;stroke-width:3" />
<path d="M780.65,38.11c4.72-0.43,11.78-1.27,18.25-1.93" style="fill:none;stroke:#999;stroke-width:3" />
<path d="M788.37,39.24c1.09,0.5,1.96,2.23,1.96,3.25c0,5.51-0.22,30.01-0.22,40" style="fill:none;stroke:#999;stroke-width:3" />
<path d="M790.38,58.74c3.37-0.49,3.87-1.24,7.35-1.5c1.74-0.13,2.18-0.25,3.26,0" style="fill:none;stroke:#999;stroke-width:3" />
<path d="M777.87,52.49c1.09,0.5,1.74,2.25,1.96,3.25c0.22,1,0.42,21.01,0.42,32.76" style="fill:none;stroke:#999;stroke-width:3" />
<path d="M773.0,89.68c1.25,1.07,3.42,1.22,4.27,0.8c8.35-4.16,16.02-8.32,25.23-12.99" style="fill:none;stroke:#999;stroke-width:3" />
<path d="M815.13,16.21c0.04,0.72,0.08,1.85-0.07,2.88c-0.87,6.08-4.39,18.8-10.78,28.81" style="fill:none;stroke:black;stroke-width:3" />
<circle cx="815.13" cy="16.21" r="5" stroke-width="0" fill="#FF2A00" opacity="0.7" />
<path d="M885.72,20.08c0.34,0.29,0.69,0.54,0.84,0.9c1.19,2.89,1.67,14.07,2.49,19.27" style="fill:none;stroke:#999;stroke-width:3" />
<path d="M887.41,21.64c8.11-1.55,16.54-2.28,20.56-2.66c1.47-0.14,2.35,0.82,2.14,1.64c-0.97,3.76-2.49,10.43-3.68,14.73" style="fill:none;stroke:#999;stroke-width:3" />
<path d="M889.65,38.11c4.72-0.43,11.78-1.27,18.25-1.93" style="fill:none;stroke:#999;stroke-width:3" />
<path d="M897.37,39.24c1.09,0.5,1.96,2.23,1.96,3.25c0,5.51-0.22,30.01-0.22,40" style="fill:none;stroke:#999;stroke-width:3" />
<path d="M899.38,58.74c3.37-0.49,3.87-1.24,7.35-1.5c1.74-0.13,2.18-0.25,3.26,0" style="fill:none;stroke:#999;stroke-width:3" />
<path d="M886.87,52.49c1.09,0.5,1.74,2.25,1.96,3.25c0.22,1,0.42,21.01,0.42,32.76" style="fill:none;stroke:#999;stroke-width:3" />
<path d="M882.0,89.68c1.25,1.07,3.42,1.22,4.27,0.8c8.35-4.16,16.02-8.32,25.23-12.99" style="fill:none;stroke:#999;stroke-width:3" />
<path d="M924.13,16.21c0.04,0.72,0.08,1.85-0.07,2.88c-0.87,6.08-4.39,18.8-10.78,28.81" style="fill:none;stroke:#999;stroke-width:3" />
<path d="M921.27,34c1.4,0,1.7,0.05,2.39,0c3.46-0.27,8.44-0.85,13.43-1.59c1.12-0.17,2.26-0.09,2.83-0.01" style="fill:none;stroke:black;stroke-width:3" />
<circle cx="921.27" cy="34.0" r="5" stroke-width="0" fill="#FF2A00" opacity="0.7" />
<path d="M994.72,20.08c0.34,0.29,0.69,0.54,0.84,0.9c1.19,2.89,1.67,14.07,2.49,19.27" style="fill:none;stroke:#999;stroke-width:3" />
<path d="M996.41,21.64c8.11-1.55,16.54-2.28,20.56-2.66c1.47-0.14,2.35,0.82,2.14,1.64c-0.97,3.76-2.49,10.43-3.68,14.73" style="fill:none;stroke:#999;stroke-width:3" />
<path d="M998.65,38.11c4.72-0.43,11.78-1.27,18.25-1.93" style="fill:none;stroke:#999;stroke-width:3" />
<path d="M1006.37,39.24c1.09,0.5,1.96,2.23,1.96,3.25c0,5.51-0.22,30.01-0.22,40" style="fill:none;stroke:#999;stroke-width:3" />
<path d="M1008.38,58.74c3.37-0.49,3.87-1.24,7.35-1.5c1.74-0.13,2.18-0.25,3.26,0" style="fill:none;stroke:#999;stroke-width:3" />
<path d="M995.87,52.49c1.09,0.5,1.74,2.25,1.96,3.25c0.22,1,0.42,21.01,0.42,32.76" style="fill:none;stroke:#999;stroke-width:3" />
<path d="M991.0,89.68c1.25,1.07,3.42,1.22,4.27,0.8c8.35-4.16,16.02-8.32,25.23-12.99" style="fill:none;stroke:#999;stroke-width:3" />
<path d="M1033.13,16.21c0.04,0.72,0.08,1.85-0.07,2.88c-0.87,6.08-4.39,18.8-10.78,28.81" style="fill:none;stroke:#999;stroke-width:3" />
<path d="M1030.27,34c1.4,0,1.7,0.05,2.39,0c3.46-0.27,8.44-0.85,13.43-1.59c1.12-0.17,2.26-0.09,2.83-0.01" style="fill:none;stroke:#999;stroke-width:3" />
<path d="M1021.72,54.63c0.45,0.2,3.01,0.33,3.5,0.29c7.2-0.6,15.53-1.92,22.71-2.54c0.62-0.05,1.97-0.13,3.35,0.22" style="fill:none;stroke:black;stroke-width:3" />
<circle cx="1021.72" cy="54.63" r="5" stroke-width="0" fill="#FF2A00" opacity="0.7" />
<path d="M1103.72,20.08c0.34,0.29,0.69,0.54,0.84,0.9c1.19,2.89,1.67,14.07,2.49,19.27" style="fill:none;stroke:#999;stroke-width:3" />
<path d="M1105.4099999999999,21.64c8.11-1.55,16.54-2.28,20.56-2.66c1.47-0.14,2.35,0.82,2.14,1.64c-0.97,3.76-2.49,10.43-3.68,14.73" style="fill:none;stroke:#999;stroke-width:3" />
<path d="M1107.65,38.11c4.72-0.43,11.78-1.27,18.25-1.93" style="fill:none;stroke:#999;stroke-width:3" />
<path d="M1115.37,39.24c1.09,0.5,1.96,2.23,1.96,3.25c0,5.51-0.22,30.01-0.22,40" style="fill:none;stroke:#999;stroke-width:3" />
<path d="M1117.38,58.74c3.37-0.49,3.87-1.24,7.35-1.5c1.74-0.13,2.18-0.25,3.26,0" style="fill:none;stroke:#999;stroke-width:3" />
<path d="M1104.87,52.49c1.09,0.5,1.74,2.25,1.96,3.25c0.22,1,0.42,21.01,0.42,32.76" style="fill:none;stroke:#999;stroke-width:3" />
<path d="M1100.0,89.68c1.25,1.07,3.42,1.22,4.27,0.8c8.35-4.16,16.02-8.32,25.23-12.99" style="fill:none;stroke:#999;stroke-width:3" />
<path d="M1142.13,16.21c0.04,0.72,0.08,1.85-0.07,2.88c-0.87,6.08-4.39,18.8-10.78,28.81" style="fill:none;stroke:#999;stroke-width:3" />
<path d="M1139.27,34c1.4,0,1.7,0.05,2.39,0c3.46-0.27,8.44-0.85,13.43-1.59c1.12-0.17,2.26-0.09,2.83-0.01" style="fill:none;stroke:#999;stroke-width:3" />
<path d="M1130.72,54.63c0.45,0.2,3.01,0.33,3.5,0.29c7.2-0.6,15.53-1.92,22.71-2.54c0.62-0.05,1.97-0.13,3.35,0.22" style="fill:none;stroke:#999;stroke-width:3" />
<path d="M1146.14,35.91c0.37,1.4,0.55,2.78,0.52,4.52c-0.41,26.83-8.41,44.33-22.43,55.26" style="fill:none;stroke:black;stroke-width:3" />
<circle cx="1146.14" cy="35.91" r="5" stroke-width="0" fill="#FF2A00" opacity="0.7" />
<path d="M1212.72,20.08c0.34,0.29,0.69,0.54,0.84,0.9c1.19,2.89,1.67,14.07,2.49,19.27" style="fill:none;stroke:#999;stroke-width:3" />
<path d="M1214.4099999999999,21.64c8.11-1.55,16.54-2.28,20.56-2.66c1.47-0.14,2.35,0.82,2.14,1.64c-0.97,3.76-2.49,10.43-3.68,14.73" style="fill:none;stroke:#999;stroke-width:3" />
<path d="M1216.65,38.11c4.72-0.43,11.78-1.27,18.25-1.93" style="fill:none;stroke:#999;stroke-width:3" />
<path d="M1224.37,39.24c1.09,0.5,1.96,2.23,1.96,3.25c0,5.51-0.22,30.01-0.22,40" style="fill:none;stroke:#999;stroke-width:3" />
<path d="M1226.38,58.74c3.37-0.49,3.87-1.24,7.35-1.5c1.74-0.13,2.18-0.25,3.26,0" style="fill:none;stroke:#999;stroke-width:3" />
<path d="M1213.87,52.49c1.09,0.5,1.74,2.25,1.96,3.25c0.22,1,0.42,21.01,0.42,32.76" style="fill:none;stroke:#999;stroke-width:3" />
<path d="M1209.0,89.68c1.25,1.07,3.42,1.22,4.27,0.8c8.35-4.16,16.02-8.32,25.23-12.99" style="fill:none;stroke:#999;stroke-width:3" />
<path d="M1251.13,16.21c0.04,0.72,0.08,1.85-0.07,2.88c-0.87,6.08-4.39,18.8-10.78,28.81" style="fill:none;stroke:#999;stroke-width:3" />
<path d="M1248.27,34c1.4,0,1.7,0.05,2.39,0c3.46-0.27,8.44-0.85,13.43-1.59c1.12-0.17,2.26-0.09,2.83-0.01" style="fill:none;stroke:#999;stroke-width:3" />
<path d="M1239.72,54.63c0.45,0.2,3.01,0.33,3.5,0.29c7.2-0.6,15.53-1.92,22.71-2.54c0.62-0.05,1.97-0.13,3.35,0.22" style="fill:none;stroke:#999;stroke-width:3" />
<path d="M1255.14,35.91c0.37,1.4,0.55,2.78,0.52,4.52c-0.41,26.83-8.41,44.33-22.43,55.26" style="fill:none;stroke:#999;stroke-width:3" />
<path d="M1254.88,70.5c5.05,4.75,9.58,12.89,10.45,18" style="fill:none;stroke:black;stroke-width:3" />
<circle cx="1254.88" cy="70.5" r="5" stroke-width="0" fill="#FF2A00" opacity="0.7" />
<path d="M1321.72,20.08c0.34,0.29,0.69,0.54,0.84,0.9c1.19,2.89,1.67,14.07,2.49,19.27" style="fill:none;stroke:#999;stroke-width:3" />
<path d="M1323.4099999999999,21.64c8.11-1.55,16.54-2.28,20.56-2.66c1.47-0.14,2.35,0.82,2.14,1.64c-0.97,3.76-2.49,10.43-3.68,14.73" style="fill:none;stroke:#999;stroke-width:3" />
<path d="M1325.65,38.11c4.72-0.43,11.78-1.27,18.25-1.93" style="fill:none;stroke:#999;stroke-width:3" />
<path d="M1333.37,39.24c1.09,0.5,1.96,2.23,1.96,3.25c0,5.51-0.22,30.01-0.22,40" style="fill:none;stroke:#999;stroke-width:3" />
<path d="M1335.38,58.74c3.37-0.49,3.87-1.24,7.35-1.5c1.74-0.13,2.18-0.25,3.26,0" style="fill:none;stroke:#999;stroke-width:3" />
<path d="M1322.87,52.49c1.09,0.5,1.74,2.25,1.96,3.25c0.22,1,0.42,21.01,0.42,32.76" style="fill:none;stroke:#999;stroke-width:3" />
<path d="M1318.0,89.68c1.25,1.07,3.42,1.22,4.27,0.8c8.35-4.16,16.02-8.32,25.23-12.99" style="fill:none;stroke:#999;stroke-width:3" />
<path d="M1360.13,16.21c0.04,0.72,0.08,1.85-0.07,2.88c-0.87,6.08-4.39,18.8-10.78,28.81" style="fill:none;stroke:#999;stroke-width:3" />
<path d="M1357.27,34c1.4,0,1.7,0.05,2.39,0c3.46-0.27,8.44-0.85,13.43-1.59c1.12-0.17,2.26-0.09,2.83-0.01" style="fill:none;stroke:#999;stroke-width:3" />
<path d="M1348.72,54.63c0.45,0.2,3.01,0.33,3.5,0.29c7.2-0.6,15.53-1.92,22.71-2.54c0.62-0.05,1.97-0.13,3.35,0.22" style="fill:none;stroke:#999;stroke-width:3" />
<path d="M1364.14,35.91c0.37,1.4,0.55,2.78,0.52,4.52c-0.41,26.83-8.41,44.33-22.43,55.26" style="fill:none;stroke:#999;stroke-width:3" />
<path d="M1363.88,70.5c5.05,4.75,9.58,12.89,10.45,18" style="fill:none;stroke:#999;stroke-width:3" />
<path d="M1380.79,29.94c0.71,1.31,1.03,1.9,1.14,3.2c0.9,10.28,1.48,38.64,2.09,57.11" style="fill:none;stroke:black;stroke-width:3" />
<circle cx="1380.79" cy="29.94" r="5" stroke-width="0" fill="#FF2A00" opacity="0.7" />
<path d="M1430.72,20.08c0.34,0.29,0.69,0.54,0.84,0.9c1.19,2.89,1.67,14.07,2.49,19.27" style="fill:none;stroke:#999;stroke-width:3" />
<path d="M1432.4099999999999,21.64c8.11-1.55,16.54-2.28,20.56-2.66c1.47-0.14,2.35,0.82,2.14,1.64c-0.97,3.76-2.49,10.43-3.68,14.73" style="fill:none;stroke:#999;stroke-width:3" />
<path d="M1434.65,38.11c4.72-0.43,11.78-1.27,18.25-1.93" style="fill:none;stroke:#999;stroke-width:3" />
<path d="M1442.37,39.24c1.09,0.5,1.96,2.23,1.96,3.25c0,5.51-0.22,30.01-0.22,40" style="fill:none;stroke:#999;stroke-width:3" />
<path d="M1444.38,58.74c3.37-0.49,3.87-1.24,7.35-1.5c1.74-0.13,2.18-0.25,3.26,0" style="fill:none;stroke:#999;stroke-width:3" />
<path d="M1431.87,52.49c1.09,0.5,1.74,2.25,1.96,3.25c0.22,1,0.42,21.01,0.42,32.76" style="fill:none;stroke:#999;stroke-width:3" />
<path d="M1427.0,89.68c1.25,1.07,3.42,1.22,4.27,0.8c8.35-4.16,16.02-8.32,25.23-12.99" style="fill:none;stroke:#999;stroke-width:3" />
<path d="M1469.13,16.21c0.04,0.72,0.08,1.85-0.07,2.88c-0.87,6.08-4.39,18.8-10.78,28.81" style="fill:none;stroke:#999;stroke-width:3" />
<path d="M1466.27,34c1.4,0,1.7,0.05,2.39,0c3.46-0.27,8.44-0.85,13.43-1.59c1.12-0.17,2.26-0.09,2.83-0.01" style="fill:none;stroke:#999;stroke-width:3" />
<path d="M1457.72,54.63c0.45,0.2,3.01,0.33,3.5,0.29c7.2-0.6,15.53-1.92,22.71-2.54c0.62-0.05,1.97-0.13,3.35,0.22" style="fill:none;stroke:#999;stroke-width:3" />
<path d="M1473.14,35.91c0.37,1.4,0.55,2.78,0.52,4.52c-0.41,26.83-8.41,44.33-22.43,55.26" style="fill:none;stroke:#999;stroke-width:3" />
<path d="M1472.88,70.5c5.05,4.75,9.58,12.89,10.45,18" style="fill:none;stroke:#999;stroke-width:3" />
<path d="M1489.79,29.94c0.71,1.31,1.03,1.9,1.14,3.2c0.9,10.28,1.48,38.64,2.09,57.11" style="fill:none;stroke:#999;stroke-width:3" />
<path d="M1490.99,31.5c7.51-0.75,13.78-1.75,18.94-2.59c1.39-0.23,3.22,1.66,3.02,3.08c-0.84,5.88-3.2,45.51-4.06,54.09" style="fill:none;stroke:black;stroke-width:3" />
<circle cx="1490.99" cy="31.5" r="5" stroke-width="0" fill="#FF2A00" opacity="0.7" />
<path d="M1539.72,20.08c0.34,0.29,0.69,0.54,0.84,0.9c1.19,2.89,1.67,14.07,2.49,19.27" style="fill:none;stroke:#999;stroke-width:3" />
<path d="M1541.4099999999999,21.64c8.11-1.55,16.54-2.28,20.56-2.66c1.47-0.14,2.35,0.82,2.14,1.64c-0.97,3.76-2.49,10.43-3.68,14.73" style="fill:none;stroke:#999;stroke-width:3" />
<path d="M1543.65,38.11c4.72-0.43,11.78-1.27,18.25-1.93" style="fill:none;stroke:#999;stroke-width:3" />
<path d="M1551.37,39.24c1.09,0.5,1.96,2.23,1.96,3.25c0,5.51-0.22,30.01-0.22,40" style="fill:none;stroke:#999;stroke-width:3" />
<path d="M1553.38,58.74c3.37-0.49,3.87-1.24,7.35-1.5c1.74-0.13,2.18-0.25,3.26,0" style="fill:none;stroke:#999;stroke-width:3" />
<path d="M1540.87,52.49c1.09,0.5,1.74,2.25,1.96,3.25c0.22,1,0.42,21.01,0.42,32.76" style="fill:none;stroke:#999;stroke-width:3" />
<path d="M1536.0,89.68c1.25,1.07,3.42,1.22,4.27,0.8c8.35-4.16,16.02-8.32,25.23-12.99" style="fill:none;stroke:#999;stroke-width:3" />
<path d="M1578.13,16.21c0.04,0.72,0.08,1.85-0.07,2.88c-0.87,6.08-4.39,18.8-10.78,28.81" style="fill:none;stroke:#999;stroke-width:3" />
<path d="M1575.27,34c1.4,0,1.7,0.05,2.39,0c3.46-0.27,8.44-0.85,13.43-1.59c1.12-0.17,2.26-0.09,2.83-0.01" style="fill:none;stroke:#999;stroke-width:3" />
<path d="M1566.72,54.63c0.45,0.2,3.01,0.33,3.5,0.29c7.2-0.6,15.53-1.92,22.71-2.54c0.62-0.05,1.97-0.13,3.35,0.22" style="fill:none;stroke:#999;stroke-width:3" />
<path d="M1582.14,35.91c0.37,1.4,0.55,2.78,0.52,4.52c-0.41,26.83-8.41,44.33-22.43,55.26" style="fill:none;stroke:#999;stroke-width:3" />
<path d="M1581.88,70.5c5.05,4.75,9.58,12.89,10.45,18" style="fill:none;stroke:#999;stroke-width:3" />
<path d="M1598.79,29.94c0.71,1.31,1.03,1.9,1.14,3.2c0.9,10.28,1.48,38.64,2.09,57.11" style="fill:none;stroke:#999;stroke-width:3" />
<path d="M1599.99,31.5c7.51-0.75,13.78-1.75,18.94-2.59c1.39-0.23,3.22,1.66,3.02,3.08c-0.84,5.88-3.2,45.51-4.06,54.09" style="fill:none;stroke:#999;stroke-width:3" />
<path d="M1601.92,87.36c5.6-0.53,11.95-0.91,18.86-1.41" style="fill:none;stroke:black;stroke-width:3" />
<circle cx="1601.92" cy="87.36" r="5" stroke-width="0" fill="#FF2A00" opacity="0.7" />
</svg>