<!-- 08e42 -->
<svg width="1744px" height="109px" viewBox="0 0 1744px 109px" xmlns="http://www.w3.org/2000/svg" xmlns:xlink="http://www.w3.org/1999/xlink" xml:space="preserve" version="1.1"  baseProfile="full">
<line x1="1" y1="1" x2="1743" y2="1" style="stroke:#ddd;stroke-width:2" />
<line x1="1" y1="1" x2="1" y2="108" style="stroke:#ddd;stroke-width:2" />
<line x1="1" y1="108" x2="1743" y2="108" style="stroke:#ddd;stroke-width:2" />
<line x1="1743" y1="1" x2="1743" y2="108" style="stroke:#ddd;stroke-width:2" />
<line x1="109" y1="1" x2="109" y2="108" style="stroke:#ddd;stroke-width:2" />
<line x1="218" y1="1" x2="218" y2="108" style="stroke:#ddd;stroke-width:2" />
<line x1="327" y1="1" x2="327" y2="108" style="stroke:#ddd;stroke-width:2" />
<line x1="436" y1="1" x2="436" y2="108" style="stroke:#ddd;stroke-width:2" />
<line x1="545" y1="1" x2="545" y2="108" style="stroke:#ddd;stroke-width:2" />
<line x1="654" y1="1" x2="654" y2="108" style="stroke:#ddd;stroke-width:2" />
<line x1="763" y1="1" x2="763" y2="108" style="stroke:#ddd;stroke-width:2" />
<line x1="872" y1="1" x2="872" y2="108" style="stroke:#ddd;stroke-width:2" />
<line x1="981" y1="1" x2="981" y2="108" style="stroke:#ddd;stroke-width:2" />
<line x1="1090" y1="1" x2="1090" y2="108" style="stroke:#ddd;stroke-width:2" />
<line x1="1199" y1="1" x2="1199" y2="108" style="stroke:#ddd;stroke-width:2" />
<line x1="1308" y1="1" x2="1308" y2="108" style="stroke:#ddd;stroke-width:2" />
<line x1="1417" y1="1" x2="1417" y2="108" style="stroke:#ddd;stroke-width:2" />
<line x1="1526" y1="1" x2="1526" y2="108" style="stroke:#ddd;stroke-width:2" />
<line x1="1635" y1="1" x2="1635" y2="108" style="stroke:#ddd;stroke-width:2" />
<line x1="1" y1="54" x2="1743" y2="54" style="stroke:#ddd;stroke-width:2;stroke-dasharray:3 3" />
<line x1="55" y1="1" x2="55" y2="108" style="stroke:#ddd;stroke-width:2;stroke-dasharray:3 3" />
<line x1="164" y1="1" x2="164" y2="108" style="stroke:#ddd;stroke-width:2;stroke-dasharray:3 3" />
<line x1="273" y1="1" x2="273" y2="108" style="stroke:#ddd;stroke-width:2;stroke-dasharray:3 3" />
<line x1="382" y1="1" x2="382" y2="108" style="stroke:#ddd;stroke-width:2;stroke-dasharray:3 3" />
<line x1="491" y1="1" x2="491" y2="108" style="stroke:#ddd;stroke-width:2;stroke-dasharray:3 3" />
<line x1="600" y1="1" x2="600" y2="108" style="stroke:#ddd;stroke-width:2;stroke-dasharray:3 3" />
<line x1="709" y1="1" x2="709" y2="108" style="stroke:#ddd;stroke-width:2;stroke-dasharray:3 3" />
<line x1="818" y1="1" x2="818" y2="108" style="stroke:#ddd;stroke-width:2;stroke-dasharray:3 3" />
<line x1="927" y1="1" x2="927" y2="108" style="stroke:#ddd;stroke-width:2;stroke-dasharray:3 3" />
<line x1="1036" y1="1" x2="1036" y2="108" style="stroke:#ddd;stroke-width:2;stroke-dasharray:3 3" />
<line x1="1145" y1="1" x2="1145" y2="108" style="stroke:#ddd;stroke-width:2;stroke-dasharray:3 3" />
<line x1="1254" y1="1" x2="1254" y2="108" style="stroke:#ddd;stroke-width:2;stroke-dasharray:3 3" />
<line x1="1363" y1="1" x2="1363" y2="108" style="stroke:#ddd;stroke-width:2;stroke-dasharray:3 3" />
<line x1="1472" y1="1" x2="1472" y2="108" style="stroke:#ddd;stroke-width:2;stroke-dasharray:3 3" />
<line x1="1581" y1="1" x2="1581" y2="108" style="stroke:#ddd;stroke-width:2;stroke-dasharray:3 3" />
<line x1="1690" y1="1" x2="1690" y2="108" style="stroke:#ddd;stroke-width:2;stroke-dasharray:3 3" />
<path d="M12.38,20.71c0.31,0.33,0.62,0.6,0.76,1.01c1.06,3.23,1.95,15.72,2.67,21.53" style="fill:none;stroke:black;stroke-width:3" />
<circle cx="12.38" cy="20.71" r="5" stroke-width="0" fill="#FF2A00" opacity="0.7" />
<path d="M121.38,20.71c0.31,0.33,0.62,0.6,0.76,1.01c1.06,3.23,1.95,15.72,2.67,21.53" style="fill:none;stroke:#999;stroke-width:3" />
<path d="M122.61,22.4c8.76-1.68,16.79-2.5,21.13-2.91c1.58-0.15,2.54,0.89,2.31,1.77c-1.04,4.06-2.15,11.85-3.43,16.5" style="fill:none;stroke:black;stroke-width:3" />
<circle cx="122.61" cy="22.4" r="5" stroke-width="0" fill="#FF2A00" opacity="0.7" />
<path d="M230.38,20.71c0.31,0.33,0.62,0.6,0.76,1.01c1.06,3.23,1.95,15.72,2.67,21.53" style="fill:none;stroke:#999;stroke-width:3" />
<path d="M231.61,22.4c8.76-1.68,16.79-2.5,21.13-2.91c1.58-0.15,2.54,0.89,2.31,1.77c-1.04,4.06-2.15,11.85-3.43,16.5" style="fill:none;stroke:#999;stroke-width:3" />
<path d="M234.56,39.69c5.09-0.46,11.65-0.84,18.64-1.55" style="fill:none;stroke:black;stroke-width:3" />
<circle cx="234.56" cy="39.69" r="5" stroke-width="0" fill="#FF2A00" opacity="0.7" />
<path d="M339.38,20.71c0.31,0.33,0.62,0.6,0.76,1.01c1.06,3.23,1.95,15.72,2.67,21.53" style="fill:none;stroke:#999;stroke-width:3" />
<path d="M340.61,22.4c8.76-1.68,16.79-2.5,21.13-2.91c1.58-0.15,2.54,0.89,2.31,1.77c-1.04,4.06-2.15,11.85-3.43,16.5" style="fill:none;stroke:#999;stroke-width:3" />
<path d="M343.56,39.69c5.09-0.46,11.65-0.84,18.64-1.55" style="fill:none;stroke:#999;stroke-width:3" />
<path d="M350.87,41.24c1.09,0.5,1.96,2.23,1.96,3.25c0,5.51,0.28,29.01,0.28,39" style="fill:none;stroke:black;stroke-width:3" />
<circle cx="350.87" cy="41.24" r="5" stroke-width="0" fill="#FF2A00" opacity="0.7" />
<path d="M448.38,20.71c0.31,0.33,0.62,0.6,0.76,1.01c1.06,3.23,1.95,15.72,2.67,21.53" style="fill:none;stroke:#999;stroke-width:3" />
<path d="M449.61,22.4c8.76-1.68,16.79-2.5,21.13-2.91c1.58-0.15,2.54,0.89,2.31,1.77c-1.04,4.06-2.15,11.85-3.43,16.5" style="fill:none;stroke:#999;stroke-width:3" />
<path d="M452.56,39.69c5.09-0.46,11.65-0.84,18.64-1.55" style="fill:none;stroke:#999;stroke-width:3" />
<path d="M459.87,41.24c1.09,0.5,1.96,2.23,1.96,3.25c0,5.51,0.28,29.01,0.28,39" style="fill:none;stroke:#999;stroke-width:3" />
<path d="M462.38,58.24c3.37-0.49,7.87-1.24,11.35-1.5c1.74-0.13,2.18-0.25,3.26,0" style="fill:none;stroke:black;stroke-width:3" />
<circle cx="462.38" cy="58.24" r="5" stroke-width="0" fill="#FF2A00" opacity="0.7" />
<path d="M557.38,20.71c0.31,0.33,0.62,0.6,0.76,1.01c1.06,3.23,1.95,15.72,2.67,21.53" style="fill:none;stroke:#999;stroke-width:3" />
<path d="M558.61,22.4c8.76-1.68,16.79-2.5,21.13-2.91c1.58-0.15,2.54,0.89,2.31,1.77c-1.04,4.06-2.15,11.85-3.43,16.5" style="fill:none;stroke:#999;stroke-width:3" />
<path d="M561.56,39.69c5.09-0.46,11.65-0.84,18.64-1.55" style="fill:none;stroke:#999;stroke-width:3" />
<path d="M568.87,41.24c1.09,0.5,1.96,2.23,1.96,3.25c0,5.51,0.28,29.01,0.28,39" style="fill:none;stroke:#999;stroke-width:3" />
<path d="M571.38,58.24c3.37-0.49,7.87-1.24,11.35-1.5c1.74-0.13,2.18-0.25,3.26,0" style="fill:none;stroke:#999;stroke-width:3" />
<path d="M557.87,57.99c1.09,0.5,1.74,2.25,1.96,3.25c0.22,1,0.42,16.01,0.42,27.76" style="fill:none;stroke:black;stroke-width:3" />
<circle cx="557.87" cy="57.99" r="5" stroke-width="0" fill="#FF2A00" opacity="0.7" />
<path d="M666.38,20.71c0.31,0.33,0.62,0.6,0.76,1.01c1.06,3.23,1.95,15.72,2.67,21.53" style="fill:none;stroke:#999;stroke-width:3" />
<path d="M667.61,22.4c8.76-1.68,16.79-2.5,21.13-2.91c1.58-0.15,2.54,0.89,2.31,1.77c-1.04,4.06-2.15,11.85-3.43,16.5" style="fill:none;stroke:#999;stroke-width:3" />
<path d="M670.56,39.69c5.09-0.46,11.65-0.84,18.64-1.55" style="fill:none;stroke:#999;stroke-width:3" />
<path d="M677.87,41.24c1.09,0.5,1.96,2.23,1.96,3.25c0,5.51,0.28,29.01,0.28,39" style="fill:none;stroke:#999;stroke-width:3" />
<path d="M680.38,58.24c3.37-0.49,7.87-1.24,11.35-1.5c1.74-0.13,2.18-0.25,3.26,0" style="fill:none;stroke:#999;stroke-width:3" />
<path d="M666.87,57.99c1.09,0.5,1.74,2.25,1.96,3.25c0.22,1,0.42,16.01,0.42,27.76" style="fill:none;stroke:#999;stroke-width:3" />
<path d="M664.5,89.57c0.75,1.18,2.87,1.35,3.7,0.9c8.21-4.47,15.3-8.22,26.3-13.48" style="fill:none;stroke:black;stroke-width:3" />
<circle cx="664.5" cy="89.57" r="5" stroke-width="0" fill="#FF2A00" opacity="0.7" />
<path d="M775.38,20.71c0.31,0.33,0.62,0.6,0.76,1.01c1.06,3.23,1.95,15.72,2.67,21.53" style="fill:none;stroke:#999;stroke-width:3" />
<path d="M776.61,22.4c8.76-1.68,16.79-2.5,21.13-2.91c1.58-0.15,2.54,0.89,2.31,1.77c-1.04,4.06-2.15,11.85-3.43,16.5" style="fill:none;stroke:#999;stroke-width:3" />
<path d="M779.56,39.69c5.09-0.46,11.65-0.84,18.64-1.55" style="fill:none;stroke:#999;stroke-width:3" />
<path d="M786.87,41.24c1.09,0.5,1.96,2.23,1.96,3.25c0,5.51,0.28,29.01,0.28,39" style="fill:none;stroke:#999;stroke-width:3" />
<path d="M789.38,58.24c3.37-0.49,7.87-1.24,11.35-1.5c1.74-0.13,2.18-0.25,3.26,0" style="fill:none;stroke:#999;stroke-width:3" />
<path d="M775.87,57.99c1.09,0.5,1.74,2.25,1.96,3.25c0.22,1,0.42,16.01,0.42,27.76" style="fill:none;stroke:#999;stroke-width:3" />
<path d="M773.5,89.57c0.75,1.18,2.87,1.35,3.7,0.9c8.21-4.47,15.3-8.22,26.3-13.48" style="fill:none;stroke:#999;stroke-width:3" />
<path d="M813.49,15.73c0.97,0.45,2.51,1.02,4.39,0.85c3.87-0.35,23.82-4.08,25.78-4.48c1.96-0.41,3.13,1.71,1.96,3.04C844.27,16.68 836.0,23.5 831.66,27.23" style="fill:none;stroke:black;stroke-width:3" />
<circle cx="813.49" cy="15.73" r="5" stroke-width="0" fill="#FF2A00" opacity="0.7" />
<path d="M884.38,20.71c0.31,0.33,0.62,0.6,0.76,1.01c1.06,3.23,1.95,15.72,2.67,21.53" style="fill:none;stroke:#999;stroke-width:3" />
<path d="M885.61,22.4c8.76-1.68,16.79-2.5,21.13-2.91c1.58-0.15,2.54,0.89,2.31,1.77c-1.04,4.06-2.15,11.85-3.43,16.5" style="fill:none;stroke:#999;stroke-width:3" />
<path d="M888.56,39.69c5.09-0.46,11.65-0.84,18.64-1.55" style="fill:none;stroke:#999;stroke-width:3" />
<path d="M895.87,41.24c1.09,0.5,1.96,2.23,1.96,3.25c0,5.51,0.28,29.01,0.28,39" style="fill:none;stroke:#999;stroke-width:3" />
<path d="M898.38,58.24c3.37-0.49,7.87-1.24,11.35-1.5c1.74-0.13,2.18-0.25,3.26,0" style="fill:none;stroke:#999;stroke-width:3" />
<path d="M884.87,57.99c1.09,0.5,1.74,2.25,1.96,3.25c0.22,1,0.42,16.01,0.42,27.76" style="fill:none;stroke:#999;stroke-width:3" />
<path d="M882.5,89.57c0.75,1.18,2.87,1.35,3.7,0.9c8.21-4.47,15.3-8.22,26.3-13.48" style="fill:none;stroke:#999;stroke-width:3" />
<path d="M922.49,15.73c0.97,0.45,2.51,1.02,4.39,0.85c3.87-0.35,23.82-4.08,25.78-4.48c1.96-0.41,3.13,1.71,1.96,3.04C953.27,16.68 945.0,23.5 940.66,27.23" style="fill:none;stroke:#999;stroke-width:3" />
<path d="M934.67,24.26c2.23,0.87,7.5,4.21,8.55,6.48" style="fill:none;stroke:black;stroke-width:3" />
<circle cx="934.67" cy="24.26" r="5" stroke-width="0" fill="#FF2A00" opacity="0.7" />
<path d="M993.38,20.71c0.31,0.33,0.62,0.6,0.76,1.01c1.06,3.23,1.95,15.72,2.67,21.53" style="fill:none;stroke:#999;stroke-width:3" />
<path d="M994.61,22.4c8.76-1.68,16.79-2.5,21.13-2.91c1.58-0.15,2.54,0.89,2.31,1.77c-1.04,4.06-2.15,11.85-3.43,16.5" style="fill:none;stroke:#999;stroke-width:3" />
<path d="M997.56,39.69c5.09-0.46,11.65-0.84,18.64-1.55" style="fill:none;stroke:#999;stroke-width:3" />
<path d="M1004.87,41.24c1.09,0.5,1.96,2.23,1.96,3.25c0,5.51,0.28,29.01,0.28,39" style="fill:none;stroke:#999;stroke-width:3" />
<path d="M1007.38,58.24c3.37-0.49,7.87-1.24,11.35-1.5c1.74-0.13,2.18-0.25,3.26,0" style="fill:none;stroke:#999;stroke-width:3" />
<path d="M993.87,57.99c1.09,0.5,1.74,2.25,1.96,3.25c0.22,1,0.42,16.01,0.42,27.76" style="fill:none;stroke:#999;stroke-width:3" />
<path d="M991.5,89.57c0.75,1.18,2.87,1.35,3.7,0.9c8.21-4.47,15.3-8.22,26.3-13.48" style="fill:none;stroke:#999;stroke-width:3" />
<path d="M1031.49,15.73c0.97,0.45,2.51,1.02,4.39,0.85c3.87-0.35,23.82-4.08,25.78-4.48c1.96-0.41,3.13,1.71,1.96,3.04C1062.27,16.68 1054.0,23.5 1049.6599999999999,27.23" style="fill:none;stroke:#999;stroke-width:3" />
<path d="M1043.67,24.26c2.23,0.87,7.5,4.21,8.55,6.48" style="fill:none;stroke:#999;stroke-width:3" />
<path d="M1023.23,36.71c0.72,0.23,2.88,0.45,5.17,0.11c15.6-2.32,32.01-4.61,42.66-4.86c8.94-0.21,2.94,5.29-1.19,8.45" style="fill:none;stroke:black;stroke-width:3" />
<circle cx="1023.23" cy="36.71" r="5" stroke-width="0" fill="#FF2A00" opacity="0.7" />
<path d="M1102.38,20.71c0.31,0.33,0.62,0.6,0.76,1.01c1.06,3.23,1.95,15.72,2.67,21.53" style="fill:none;stroke:#999;stroke-width:3" />
<path d="M1103.6100000000001,22.4c8.76-1.68,16.79-2.5,21.13-2.91c1.58-0.15,2.54,0.89,2.31,1.77c-1.04,4.06-2.15,11.85-3.43,16.5" style="fill:none;stroke:#999;stroke-width:3" />
<path d="M1106.56,39.69c5.09-0.46,11.65-0.84,18.64-1.55" style="fill:none;stroke:#999;stroke-width:3" />
<path d="M1113.87,41.24c1.09,0.5,1.96,2.23,1.96,3.25c0,5.51,0.28,29.01,0.28,39" style="fill:none;stroke:#999;stroke-width:3" />
<path d="M1116.38,58.24c3.37-0.49,7.87-1.24,11.35-1.5c1.74-0.13,2.18-0.25,3.26,0" style="fill:none;stroke:#999;stroke-width:3" />
<path d="M1102.87,57.99c1.09,0.5,1.74,2.25,1.96,3.25c0.22,1,0.42,16.01,0.42,27.76" style="fill:none;stroke:#999;stroke-width:3" />
<path d="M1100.5,89.57c0.75,1.18,2.87,1.35,3.7,0.9c8.21-4.47,15.3-8.22,26.3-13.48" style="fill:none;stroke:#999;stroke-width:3" />
<path d="M1140.49,15.73c0.97,0.45,2.51,1.02,4.39,0.85c3.87-0.35,23.82-4.08,25.78-4.48c1.96-0.41,3.13,1.71,1.96,3.04C1171.27,16.68 1163.0,23.5 1158.6599999999999,27.23" style="fill:none;stroke:#999;stroke-width:3" />
<path d="M1152.67,24.26c2.23,0.87,7.5,4.21,8.55,6.48" style="fill:none;stroke:#999;stroke-width:3" />
<path d="M1132.23,36.71c0.72,0.23,2.88,0.45,5.17,0.11c15.6-2.32,32.01-4.61,42.66-4.86c8.94-0.21,2.94,5.29-1.19,8.45" style="fill:none;stroke:#999;stroke-width:3" />
<path d="M1161.52,33.15c0,8.71-0.03,12.87-0.03,18.3c0,8.8-5.52,1.72-7.29-0.33" style="fill:none;stroke:black;stroke-width:3" />
<circle cx="1161.52" cy="33.15" r="5" stroke-width="0" fill="#FF2A00" opacity="0.7" />
<path d="M1211.38,20.71c0.31,0.33,0.62,0.6,0.76,1.01c1.06,3.23,1.95,15.72,2.67,21.53" style="fill:none;stroke:#999;stroke-width:3" />
<path d="M1212.6100000000001,22.4c8.76-1.68,16.79-2.5,21.13-2.91c1.58-0.15,2.54,0.89,2.31,1.77c-1.04,4.06-2.15,11.85-3.43,16.5" style="fill:none;stroke:#999;stroke-width:3" />
<path d="M1215.56,39.69c5.09-0.46,11.65-0.84,18.64-1.55" style="fill:none;stroke:#999;stroke-width:3" />
<path d="M1222.87,41.24c1.09,0.5,1.96,2.23,1.96,3.25c0,5.51,0.28,29.01,0.28,39" style="fill:none;stroke:#999;stroke-width:3" />
<path d="M1225.38,58.24c3.37-0.49,7.87-1.24,11.35-1.5c1.74-0.13,2.18-0.25,3.26,0" style="fill:none;stroke:#999;stroke-width:3" />
<path d="M1211.87,57.99c1.09,0.5,1.74,2.25,1.96,3.25c0.22,1,0.42,16.01,0.42,27.76" style="fill:none;stroke:#999;stroke-width:3" />
<path d="M1209.5,89.57c0.75,1.18,2.87,1.35,3.7,0.9c8.21-4.47,15.3-8.22,26.3-13.48" style="fill:none;stroke:#999;stroke-width:3" />
<path d="M1249.49,15.73c0.97,0.45,2.51,1.02,4.39,0.85c3.87-0.35,23.82-4.08,25.78-4.48c1.96-0.41,3.13,1.71,1.96,3.04C1280.27,16.68 1272.0,23.5 1267.6599999999999,27.23" style="fill:none;stroke:#999;stroke-width:3" />
<path d="M1261.67,24.26c2.23,0.87,7.5,4.21,8.55,6.48" style="fill:none;stroke:#999;stroke-width:3" />
<path d="M1241.23,36.71c0.72,0.23,2.88,0.45,5.17,0.11c15.6-2.32,32.01-4.61,42.66-4.86c8.94-0.21,2.94,5.29-1.19,8.45" style="fill:none;stroke:#999;stroke-width:3" />
<path d="M1270.52,33.15c0,8.71-0.03,12.87-0.03,18.3c0,8.8-5.52,1.72-7.29-0.33" style="fill:none;stroke:#999;stroke-width:3" />
<path d="M1267.97,34.23c0.07,0.48,0.24,1.27-0.13,1.93c-2.89,5.12-9.22,12.26-23.7,18.44" style="fill:none;stroke:black;stroke-width:3" />
<circle cx="1267.97" cy="34.23" r="5" stroke-width="0" fill="#FF2A00" opacity="0.7" />
<path d="M1320.38,20.71c0.31,0.33,0.62,0.6,0.76,1.01c1.06,3.23,1.95,15.72,2.67,21.53" style="fill:none;stroke:#999;stroke-width:3" />
<path d="M1321.6100000000001,22.4c8.76-1.68,16.79-2.5,21.13-2.91c1.58-0.15,2.54,0.89,2.31,1.77c-1.04,4.06-2.15,11.85-3.43,16.5" style="fill:none;stroke:#999;stroke-width:3" />
<path d="M1324.56,39.69c5.09-0.46,11.65-0.84,18.64-1.55" style="fill:none;stroke:#999;stroke-width:3" />
<path d="M1331.87,41.24c1.09,0.5,1.96,2.23,1.96,3.25c0,5.51,0.28,29.01,0.28,39" style="fill:none;stroke:#999;stroke-width:3" />
<path d="M1334.38,58.24c3.37-0.49,7.87-1.24,11.35-1.5c1.74-0.13,2.18-0.25,3.26,0" style="fill:none;stroke:#999;stroke-width:3" />
<path d="M1320.87,57.99c1.09,0.5,1.74,2.25,1.96,3.25c0.22,1,0.42,16.01,0.42,27.76" style="fill:none;stroke:#999;stroke-width:3" />
<path d="M1318.5,89.57c0.75,1.18,2.87,1.35,3.7,0.9c8.21-4.47,15.3-8.22,26.3-13.48" style="fill:none;stroke:#999;stroke-width:3" />
<path d="M1358.49,15.73c0.97,0.45,2.51,1.02,4.39,0.85c3.87-0.35,23.82-4.08,25.78-4.48c1.96-0.41,3.13,1.71,1.96,3.04C1389.27,16.68 1381.0,23.5 1376.6599999999999,27.23" style="fill:none;stroke:#999;stroke-width:3" />
<path d="M1370.67,24.26c2.23,0.87,7.5,4.21,8.55,6.48" style="fill:none;stroke:#999;stroke-width:3" />
<path d="M1350.23,36.71c0.72,0.23,2.88,0.45,5.17,0.11c15.6-2.32,32.01-4.61,42.66-4.86c8.94-0.21,2.94,5.29-1.19,8.45" style="fill:none;stroke:#999;stroke-width:3" />
<path d="M1379.52,33.15c0,8.71-0.03,12.87-0.03,18.3c0,8.8-5.52,1.72-7.29-0.33" style="fill:none;stroke:#999;stroke-width:3" />
<path d="M1376.97,34.23c0.07,0.48,0.24,1.27-0.13,1.93c-2.89,5.12-9.22,12.26-23.7,18.44" style="fill:none;stroke:#999;stroke-width:3" />
<path d="M1352.53,67.54c1.37,0.56,2.92,0.74,4.49,0.56c8.01-0.92,30.04-2.12,42.15-3.21c1.56-0.14,2.54,0.1,4.1,0.49" style="fill:none;stroke:black;stroke-width:3" />
<circle cx="1352.53" cy="67.54" r="5" stroke-width="0" fill="#FF2A00" opacity="0.7" />
<path d="M1429.38,20.71c0.31,0.33,0.62,0.6,0.76,1.01c1.06,3.23,1.95,15.72,2.67,21.53" style="fill:none;stroke:#999;stroke-width:3" />
<path d="M1430.6100000000001,22.4c8.76-1.68,16.79-2.5,21.13-2.91c1.58-0.15,2.54,0.89,2.31,1.77c-1.04,4.06-2.15,11.85-3.43,16.5" style="fill:none;stroke:#999;stroke-width:3" />
<path d="M1433.56,39.69c5.09-0.46,11.65-0.84,18.64-1.55" style="fill:none;stroke:#999;stroke-width:3" />
<path d="M1440.87,41.24c1.09,0.5,1.96,2.23,1.96,3.25c0,5.51,0.28,29.01,0.28,39" style="fill:none;stroke:#999;stroke-width:3" />
<path d="M1443.38,58.24c3.37-0.49,7.87-1.24,11.35-1.5c1.74-0.13,2.18-0.25,3.26,0" style="fill:none;stroke:#999;stroke-width:3" />
<path d="M1429.87,57.99c1.09,0.5,1.74,2.25,1.96,3.25c0.22,1,0.42,16.01,0.42,27.76" style="fill:none;stroke:#999;stroke-width:3" />
<path d="M1427.5,89.57c0.75,1.18,2.87,1.35,3.7,0.9c8.21-4.47,15.3-8.22,26.3-13.48" style="fill:none;stroke:#999;stroke-width:3" />
<path d="M1467.49,15.73c0.97,0.45,2.51,1.02,4.39,0.85c3.87-0.35,23.82-4.08,25.78-4.48c1.96-0.41,3.13,1.71,1.96,3.04C1498.27,16.68 1490.0,23.5 1485.6599999999999,27.23" style="fill:none;stroke:#999;stroke-width:3" />
<path d="M1479.67,24.26c2.23,0.87,7.5,4.21,8.55,6.48" style="fill:none;stroke:#999;stroke-width:3" />
<path d="M1459.23,36.71c0.72,0.23,2.88,0.45,5.17,0.11c15.6-2.32,32.01-4.61,42.66-4.86c8.94-0.21,2.94,5.29-1.19,8.45" style="fill:none;stroke:#999;stroke-width:3" />
<path d="M1488.52,33.15c0,8.71-0.03,12.87-0.03,18.3c0,8.8-5.52,1.72-7.29-0.33" style="fill:none;stroke:#999;stroke-width:3" />
<path d="M1485.97,34.23c0.07,0.48,0.24,1.27-0.13,1.93c-2.89,5.12-9.22,12.26-23.7,18.44" style="fill:none;stroke:#999;stroke-width:3" />
<path d="M1461.53,67.54c1.37,0.56,2.92,0.74,4.49,0.56c8.01-0.92,30.04-2.12,42.15-3.21c1.56-0.14,2.54,0.1,4.1,0.49" style="fill:none;stroke:#999;stroke-width:3" />
<path d="M1486.42,60.83c0.7,0.99,1.23,2.19,1.23,3.2c0,10.35,0,29.3-0.18,35.46" style="fill:none;stroke:black;stroke-width:3" />
<circle cx="1486.42" cy="60.83" r="5" stroke-width="0" fill="#FF2A00" opacity="0.7" />
<path d="M1538.38,20.71c0.31,0.33,0.62,0.6,0.76,1.01c1.06,3.23,1.95,15.72,2.67,21.53" style="fill:none;stroke:#999;stroke-width:3" />
<path d="M1539.6100000000001,22.4c8.76-1.68,16.79-2.5,21.13-2.91c1.58-0.15,2.54,0.89,2.31,1.77c-1.04,4.06-2.15,11.85-3.43,16.5" style="fill:none;stroke:#999;stroke-width:3" />
<path d="M1542.56,39.69c5.09-0.46,11.65-0.84,18.64-1.55" style="fill:none;stroke:#999;stroke-width:3" />
<path d="M1549.87,41.24c1.09,0.5,1.96,2.23,1.96,3.25c0,5.51,0.28,29.01,0.28,39" style="fill:none;stroke:#999;stroke-width:3" />
<path d="M1552.38,58.24c3.37-0.49,7.87-1.24,11.35-1.5c1.74-0.13,2.18-0.25,3.26,0" style="fill:none;stroke:#999;stroke-width:3" />
<path d="M1538.87,57.99c1.09,0.5,1.74,2.25,1.96,3.25c0.22,1,0.42,16.01,0.42,27.76" style="fill:none;stroke:#999;stroke-width:3" />
<path d="M1536.5,89.57c0.75,1.18,2.87,1.35,3.7,0.9c8.21-4.47,15.3-8.22,26.3-13.48" style="fill:none;stroke:#999;stroke-width:3" />
<path d="M1576.49,15.73c0.97,0.45,2.51,1.02,4.39,0.85c3.87-0.35,23.82-4.08,25.78-4.48c1.96-0.41,3.13,1.71,1.96,3.04C1607.27,16.68 1599.0,23.5 1594.6599999999999,27.23" style="fill:none;stroke:#999;stroke-width:3" />
<path d="M1588.67,24.26c2.23,0.87,7.5,4.21,8.55,6.48" style="fill:none;stroke:#999;stroke-width:3" />
<path d="M1568.23,36.71c0.72,0.23,2.88,0.45,5.17,0.11c15.6-2.32,32.01-4.61,42.66-4.86c8.94-0.21,2.94,5.29-1.19,8.45" style="fill:none;stroke:#999;stroke-width:3" />
<path d="M1597.52,33.15c0,8.71-0.03,12.87-0.03,18.3c0,8.8-5.52,1.72-7.29-0.33" style="fill:none;stroke:#999;stroke-width:3" />
<path d="M1594.97,34.23c0.07,0.48,0.24,1.27-0.13,1.93c-2.89,5.12-9.22,12.26-23.7,18.44" style="fill:none;stroke:#999;stroke-width:3" />
<path d="M1570.53,67.54c1.37,0.56,2.92,0.74,4.49,0.56c8.01-0.92,30.04-2.12,42.15-3.21c1.56-0.14,2.54,0.1,4.1,0.49" style="fill:none;stroke:#999;stroke-width:3" />
<path d="M1595.42,60.83c0.7,0.99,1.23,2.19,1.23,3.2c0,10.35,0,29.3-0.18,35.46" style="fill:none;stroke:#999;stroke-width:3" />
<path d="M1595.42,66.69c-4.76,9.4-19.26,21.62-32.17,25.61" style="fill:none;stroke:black;stroke-width:3" />
<circle cx="1595.42" cy="66.69" r="5" stroke-width="0" fill="#FF2A00" opacity="0.7" />
<path d="M1647.38,20.71c0.31,0.33,0.62,0.6,0.76,1.01c1.06,3.23,1.95,15.72,2.67,21.53" style="fill:none;stroke:#999;stroke-width:3" />
<path d="M1648.6100000000001,22.4c8.76-1.68,16.79-2.5,21.13-2.91c1.58-0.15,2.54,0.89,2.31,1.77c-1.04,4.06-2.15,11.85-3.43,16.5" style="fill:none;stroke:#999;stroke-width:3" />
<path d="M1651.56,39.69c5.09-0.46,11.65-0.84,18.64-1.55" style="fill:none;stroke:#999;stroke-width:3" />
<path d="M1658.87,41.24c1.09,0.5,1.96,2.23,1.96,3.25c0,5.51,0.28,29.01,0.28,39" style="fill:none;stroke:#999;stroke-width:3" />
<path d="M1661.38,58.24c3.37-0.49,7.87-1.24,11.35-1.5c1.74-0.13,2.18-0.25,3.26,0" style="fill:none;stroke:#999;stroke-width:3" />
<path d="M1647.87,57.99c1.09,0.5,1.74,2.25,1.96,3.25c0.22,1,0.42,16.01,0.42,27.76" style="fill:none;stroke:#999;stroke-width:3" />
<path d="M1645.5,89.57c0.75,1.18,2.87,1.35,3.7,0.9c8.21-4.47,15.3-8.22,26.3-13.48" style="fill:none;stroke:#999;stroke-width:3" />
<path d="M1685.49,15.73c0.97,0.45,2.51,1.02,4.39,0.85c3.87-0.35,23.82-4.08,25.78-4.48c1.96-0.41,3.13,1.71,1.96,3.04C1716.27,16.68 1708.0,23.5 1703.6599999999999,27.23" style="fill:none;stroke:#999;stroke-width:3" />
<path d="M1697.67,24.26c2.23,0.87,7.5,4.21,8.55,6.48" style="fill:none;stroke:#999;stroke-width:3" />
<path d="M1677.23,36.71c0.72,0.23,2.88,0.45,5.17,0.11c15.6-2.32,32.01-4.61,42.66-4.86c8.94-0.21,2.94,5.29-1.19,8.45" style="fill:none;stroke:#999;stroke-width:3" />
<path d="M1706.52,33.15c0,8.71-0.03,12.87-0.03,18.3c0,8.8-5.52,1.72-7.29-0.33" style="fill:none;stroke:#999;stroke-width:3" />
<path d="M1703.97,34.23c0.07,0.48,0.24,1.27-0.13,1.93c-2.89,5.12-9.22,12.26-23.7,18.44" style="fill:none;stroke:#999;stroke-width:3" />
<path d="M1679.53,67.54c1.37,0.56,2.92,0.74,4.49,0.56c8.01-0.92,30.04-2.12,42.15-3.21c1.56-0.14,2.54,0.1,4.1,0.49" style="fill:none;stroke:#999;stroke-width:3" />
<path d="M1704.42,60.83c0.7,0.99,1.23,2.19,1.23,3.2c0,10.35,0,29.3-0.18,35.46" style="fill:none;stroke:#999;stroke-width:3" />
<path d="M1704.42,66.69c-4.76,9.4-19.26,21.62-32.17,25.61" style="fill:none;stroke:#999;stroke-width:3" />
<path d="M1706.35,67.95c3.21,4.95,16.48,17.67,21.56,21.18c1.28,0.88,2.17,1.44,3.34,1.73" style="fill:none;stroke:black;stroke-width:3" />
<circle cx="1706.35" cy="67.95" r="5" stroke-width="0" fill="#FF2A00" opacity="0.7" />
</svg>