<!-- 08f61 -->
<svg width="2398px" height="109px" viewBox="0 0 2398px 109px" xmlns="http://www.w3.org/2000/svg" xmlns:xlink="http://www.w3.org/1999/xlink" xml:space="preserve" version="1.1"  baseProfile="full">
<line x1="1" y1="1" x2="2397" y2="1" style="stroke:#ddd;stroke-width:2" />
<line x1="1" y1="1" x2="1" y2="108" style="stroke:#ddd;stroke-width:2" />
<line x1="1" y1="108" x2="2397" y2="108" style="stroke:#ddd;stroke-width:2" />
<line x1="2397" y1="1" x2="2397" y2="108" style="stroke:#ddd;stroke-width:2" />
<line x1="109" y1="1" x2="109" y2="108" style="stroke:#ddd;stroke-width:2" />
<line x1="218" y1="1" x2="218" y2="108" style="stroke:#ddd;stroke-width:2" />
<line x1="327" y1="1" x2="327" y2="108" style="stroke:#ddd;stroke-width:2" />
<line x1="436" y1="1" x2="436" y2="108" style="stroke:#ddd;stroke-width:2" />
<line x1="545" y1="1" x2="545" y2="108" style="stroke:#ddd;stroke-width:2" />
<line x1="654" y1="1" x2="654" y2="108" style="stroke:#ddd;stroke-width:2" />
<line x1="763" y1="1" x2="763" y2="108" style="stroke:#ddd;stroke-width:2" />
<line x1="872" y1="1" x2="872" y2="108" style="stroke:#ddd;stroke-width:2" />
<line x1="981" y1="1" x2="981" y2="108" style="stroke:#ddd;stroke-width:2" />
<line x1="1090" y1="1" x2="1090" y2="108" style="stroke:#ddd;stroke-width:2" />
<line x1="1199" y1="1" x2="1199" y2="108" style="stroke:#ddd;stroke-width:2" />
<line x1="1308" y1="1" x2="1308" y2="108" style="stroke:#ddd;stroke-width:2" />
<line x1="1417" y1="1" x2="1417" y2="108" style="stroke:#ddd;stroke-width:2" />
<line x1="1526" y1="1" x2="1526" y2="108" style="stroke:#ddd;stroke-width:2" />
<line x1="1635" y1="1" x2="1635" y2="108" style="stroke:#ddd;stroke-width:2" />
<line x1="1744" y1="1" x2="1744" y2="108" style="stroke:#ddd;stroke-width:2" />
<line x1="1853" y1="1" x2="1853" y2="108" style="stroke:#ddd;stroke-width:2" />
<line x1="1962" y1="1" x2="1962" y2="108" style="stroke:#ddd;stroke-width:2" />
<line x1="2071" y1="1" x2="2071" y2="108" style="stroke:#ddd;stroke-width:2" />
<line x1="2180" y1="1" x2="2180" y2="108" style="stroke:#ddd;stroke-width:2" />
<line x1="2289" y1="1" x2="2289" y2="108" style="stroke:#ddd;stroke-width:2" />
<line x1="1" y1="54" x2="2397" y2="54" style="stroke:#ddd;stroke-width:2;stroke-dasharray:3 3" />
<line x1="55" y1="1" x2="55" y2="108" style="stroke:#ddd;stroke-width:2;stroke-dasharray:3 3" />
<line x1="164" y1="1" x2="164" y2="108" style="stroke:#ddd;stroke-width:2;stroke-dasharray:3 3" />
<line x1="273" y1="1" x2="273" y2="108" style="stroke:#ddd;stroke-width:2;stroke-dasharray:3 3" />
<line x1="382" y1="1" x2="382" y2="108" style="stroke:#ddd;stroke-width:2;stroke-dasharray:3 3" />
<line x1="491" y1="1" x2="491" y2="108" style="stroke:#ddd;stroke-width:2;stroke-dasharray:3 3" />
<line x1="600" y1="1" x2="600" y2="108" style="stroke:#ddd;stroke-width:2;stroke-dasharray:3 3" />
<line x1="709" y1="1" x2="709" y2="108" style="stroke:#ddd;stroke-width:2;stroke-dasharray:3 3" />
<line x1="818" y1="1" x2="818" y2="108" style="stroke:#ddd;stroke-width:2;stroke-dasharray:3 3" />
<line x1="927" y1="1" x2="927" y2="108" style="stroke:#ddd;stroke-width:2;stroke-dasharray:3 3" />
<line x1="1036" y1="1" x2="1036" y2="108" style="stroke:#ddd;stroke-width:2;stroke-dasharray:3 3" />
<line x1="1145" y1="1" x2="1145" y2="108" style="stroke:#ddd;stroke-width:2;stroke-dasharray:3 3" />
<line x1="1254" y1="1" x2="1254" y2="108" style="stroke:#ddd;stroke-width:2;stroke-dasharray:3 3" />
<line x1="1363" y1="1" x2="1363" y2="108" style="stroke:#ddd;stroke-width:2;stroke-dasharray:3 3" />
<line x1="1472" y1="1" x2="1472" y2="108" style="stroke:#ddd;stroke-width:2;stroke-dasharray:3 3" />
<line x1="1581" y1="1" x2="1581" y2="108" style="stroke:#ddd;stroke-width:2;stroke-dasharray:3 3" />
<line x1="1690" y1="1" x2="1690" y2="108" style="stroke:#ddd;stroke-width:2;stroke-dasharray:3 3" />
<line x1="1799" y1="1" x2="1799" y2="108" style="stroke:#ddd;stroke-width:2;stroke-dasharray:3 3" />
<line x1="1908" y1="1" x2="1908" y2="108" style="stroke:#ddd;stroke-width:2;stroke-dasharray:3 3" />
<line x1="2017" y1="1" x2="2017" y2="108" style="stroke:#ddd;stroke-width:2;stroke-dasharray:3 3" />
<line x1="2126" y1="1" x2="2126" y2="108" style="stroke:#ddd;stroke-width:2;stroke-dasharray:3 3" />
<line x1="2235" y1="1" x2="2235" y2="108" style="stroke:#ddd;stroke-width:2;stroke-dasharray:3 3" />
<line x1="2344" y1="1" x2="2344" y2="108" style="stroke:#ddd;stroke-width:2;stroke-dasharray:3 3" />
<path d="M41.63,22.94c1.32,0.29,2.65,0.33,3.99,0.13c5.26-0.76,11.66-1.17,17-1.6c1.51-0.36,3.01-0.36,4.5-0.02" style="fill:none;stroke:black;stroke-width:3" />
<circle cx="41.63" cy="22.94" r="5" stroke-width="0" fill="#FF2A00" opacity="0.7" />
<path d="M150.63,22.94c1.32,0.29,2.65,0.33,3.99,0.13c5.26-0.76,11.66-1.17,17-1.6c1.51-0.36,3.01-0.36,4.5-0.02" style="fill:none;stroke:#999;stroke-width:3" />
<path d="M150.93,30.7c0.61,0.88,0.96,1.85,1.05,2.9c0.42,2.33,0.9,4.95,1.45,8.39c0.2,1.26,0.41,2.63,0.63,4.14" style="fill:none;stroke:black;stroke-width:3" />
<circle cx="150.93" cy="30.7" r="5" stroke-width="0" fill="#FF2A00" opacity="0.7" />
<path d="M259.63,22.94c1.32,0.29,2.65,0.33,3.99,0.13c5.26-0.76,11.66-1.17,17-1.6c1.51-0.36,3.01-0.36,4.5-0.02" style="fill:none;stroke:#999;stroke-width:3" />
<path d="M259.93,30.7c0.61,0.88,0.96,1.85,1.05,2.9c0.42,2.33,0.9,4.95,1.45,8.39c0.2,1.26,0.41,2.63,0.63,4.14" style="fill:none;stroke:#999;stroke-width:3" />
<path d="M261.31,31.08c4.35-0.48,13.04-1.88,18.19-2.46c3.59-0.41,5.12,0.75,4.58,4.41c-0.57,3.88-1.28,7.33-2.21,11.32" style="fill:none;stroke:black;stroke-width:3" />
<circle cx="261.31" cy="31.08" r="5" stroke-width="0" fill="#FF2A00" opacity="0.7" />
<path d="M368.63,22.94c1.32,0.29,2.65,0.33,3.99,0.13c5.26-0.76,11.66-1.17,17-1.6c1.51-0.36,3.01-0.36,4.5-0.02" style="fill:none;stroke:#999;stroke-width:3" />
<path d="M368.93,30.7c0.61,0.88,0.96,1.85,1.05,2.9c0.42,2.33,0.9,4.95,1.45,8.39c0.2,1.26,0.41,2.63,0.63,4.14" style="fill:none;stroke:#999;stroke-width:3" />
<path d="M370.31,31.08c4.35-0.48,13.04-1.88,18.19-2.46c3.59-0.41,5.12,0.75,4.58,4.41c-0.57,3.88-1.28,7.33-2.21,11.32" style="fill:none;stroke:#999;stroke-width:3" />
<path d="M372.09000000000003,37.52c5.28-0.4,12.16-1.27,19.14-1.57" style="fill:none;stroke:black;stroke-width:3" />
<circle cx="372.09000000000003" cy="37.52" r="5" stroke-width="0" fill="#FF2A00" opacity="0.7" />
<path d="M477.63,22.94c1.32,0.29,2.65,0.33,3.99,0.13c5.26-0.76,11.66-1.17,17-1.6c1.51-0.36,3.01-0.36,4.5-0.02" style="fill:none;stroke:#999;stroke-width:3" />
<path d="M477.93,30.7c0.61,0.88,0.96,1.85,1.05,2.9c0.42,2.33,0.9,4.95,1.45,8.39c0.2,1.26,0.41,2.63,0.63,4.14" style="fill:none;stroke:#999;stroke-width:3" />
<path d="M479.31,31.08c4.35-0.48,13.04-1.88,18.19-2.46c3.59-0.41,5.12,0.75,4.58,4.41c-0.57,3.88-1.28,7.33-2.21,11.32" style="fill:none;stroke:#999;stroke-width:3" />
<path d="M481.09000000000003,37.52c5.28-0.4,12.16-1.27,19.14-1.57" style="fill:none;stroke:#999;stroke-width:3" />
<path d="M482.09000000000003,44.7c4.77-0.62,10.58-1.48,16.79-1.48" style="fill:none;stroke:black;stroke-width:3" />
<circle cx="482.09000000000003" cy="44.7" r="5" stroke-width="0" fill="#FF2A00" opacity="0.7" />
<path d="M586.63,22.94c1.32,0.29,2.65,0.33,3.99,0.13c5.26-0.76,11.66-1.17,17-1.6c1.51-0.36,3.01-0.36,4.5-0.02" style="fill:none;stroke:#999;stroke-width:3" />
<path d="M586.9300000000001,30.7c0.61,0.88,0.96,1.85,1.05,2.9c0.42,2.33,0.9,4.95,1.45,8.39c0.2,1.26,0.41,2.63,0.63,4.14" style="fill:none;stroke:#999;stroke-width:3" />
<path d="M588.31,31.08c4.35-0.48,13.04-1.88,18.19-2.46c3.59-0.41,5.12,0.75,4.58,4.41c-0.57,3.88-1.28,7.33-2.21,11.32" style="fill:none;stroke:#999;stroke-width:3" />
<path d="M590.09,37.52c5.28-0.4,12.16-1.27,19.14-1.57" style="fill:none;stroke:#999;stroke-width:3" />
<path d="M591.09,44.7c4.77-0.62,10.58-1.48,16.79-1.48" style="fill:none;stroke:#999;stroke-width:3" />
<path d="M586.08,53.86c1.92,0.26,3.23,0.16,4.93,0.06c5.12-0.3,10.07-1.31,15.24-1.73c1.89-0.29,3.79-0.28,5.67,0.01" style="fill:none;stroke:black;stroke-width:3" />
<circle cx="586.08" cy="53.86" r="5" stroke-width="0" fill="#FF2A00" opacity="0.7" />
<path d="M695.63,22.94c1.32,0.29,2.65,0.33,3.99,0.13c5.26-0.76,11.66-1.17,17-1.6c1.51-0.36,3.01-0.36,4.5-0.02" style="fill:none;stroke:#999;stroke-width:3" />
<path d="M695.9300000000001,30.7c0.61,0.88,0.96,1.85,1.05,2.9c0.42,2.33,0.9,4.95,1.45,8.39c0.2,1.26,0.41,2.63,0.63,4.14" style="fill:none;stroke:#999;stroke-width:3" />
<path d="M697.31,31.08c4.35-0.48,13.04-1.88,18.19-2.46c3.59-0.41,5.12,0.75,4.58,4.41c-0.57,3.88-1.28,7.33-2.21,11.32" style="fill:none;stroke:#999;stroke-width:3" />
<path d="M699.09,37.52c5.28-0.4,12.16-1.27,19.14-1.57" style="fill:none;stroke:#999;stroke-width:3" />
<path d="M700.09,44.7c4.77-0.62,10.58-1.48,16.79-1.48" style="fill:none;stroke:#999;stroke-width:3" />
<path d="M695.08,53.86c1.92,0.26,3.23,0.16,4.93,0.06c5.12-0.3,10.07-1.31,15.24-1.73c1.89-0.29,3.79-0.28,5.67,0.01" style="fill:none;stroke:#999;stroke-width:3" />
<path d="M707.32,13.24c0.85,0.85,1.11,2.26,1.11,3.51c0,0.57-0.04,27.2-0.05,42.13c0,4.61-0.01,8.11-0.01,9.38" style="fill:none;stroke:black;stroke-width:3" />
<circle cx="707.32" cy="13.24" r="5" stroke-width="0" fill="#FF2A00" opacity="0.7" />
<path d="M804.63,22.94c1.32,0.29,2.65,0.33,3.99,0.13c5.26-0.76,11.66-1.17,17-1.6c1.51-0.36,3.01-0.36,4.5-0.02" style="fill:none;stroke:#999;stroke-width:3" />
<path d="M804.9300000000001,30.7c0.61,0.88,0.96,1.85,1.05,2.9c0.42,2.33,0.9,4.95,1.45,8.39c0.2,1.26,0.41,2.63,0.63,4.14" style="fill:none;stroke:#999;stroke-width:3" />
<path d="M806.31,31.08c4.35-0.48,13.04-1.88,18.19-2.46c3.59-0.41,5.12,0.75,4.58,4.41c-0.57,3.88-1.28,7.33-2.21,11.32" style="fill:none;stroke:#999;stroke-width:3" />
<path d="M808.09,37.52c5.28-0.4,12.16-1.27,19.14-1.57" style="fill:none;stroke:#999;stroke-width:3" />
<path d="M809.09,44.7c4.77-0.62,10.58-1.48,16.79-1.48" style="fill:none;stroke:#999;stroke-width:3" />
<path d="M804.08,53.86c1.92,0.26,3.23,0.16,4.93,0.06c5.12-0.3,10.07-1.31,15.24-1.73c1.89-0.29,3.79-0.28,5.67,0.01" style="fill:none;stroke:#999;stroke-width:3" />
<path d="M816.32,13.24c0.85,0.85,1.11,2.26,1.11,3.51c0,0.57-0.04,27.2-0.05,42.13c0,4.61-0.01,8.11-0.01,9.38" style="fill:none;stroke:#999;stroke-width:3" />
<path d="M789.32,15.75c0,1-0.25,1.96-0.88,2.89c-2.32,3.48-5.57,7.98-8.1,11.24c-1.35,1.74-0.47,2.62,1.41,2.19c2.99-0.45,5.99-0.95,9.62-1.45" style="fill:none;stroke:black;stroke-width:3" />
<circle cx="789.32" cy="15.75" r="5" stroke-width="0" fill="#FF2A00" opacity="0.7" />
<path d="M913.63,22.94c1.32,0.29,2.65,0.33,3.99,0.13c5.26-0.76,11.66-1.17,17-1.6c1.51-0.36,3.01-0.36,4.5-0.02" style="fill:none;stroke:#999;stroke-width:3" />
<path d="M913.9300000000001,30.7c0.61,0.88,0.96,1.85,1.05,2.9c0.42,2.33,0.9,4.95,1.45,8.39c0.2,1.26,0.41,2.63,0.63,4.14" style="fill:none;stroke:#999;stroke-width:3" />
<path d="M915.31,31.08c4.35-0.48,13.04-1.88,18.19-2.46c3.59-0.41,5.12,0.75,4.58,4.41c-0.57,3.88-1.28,7.33-2.21,11.32" style="fill:none;stroke:#999;stroke-width:3" />
<path d="M917.09,37.52c5.28-0.4,12.16-1.27,19.14-1.57" style="fill:none;stroke:#999;stroke-width:3" />
<path d="M918.09,44.7c4.77-0.62,10.58-1.48,16.79-1.48" style="fill:none;stroke:#999;stroke-width:3" />
<path d="M913.08,53.86c1.92,0.26,3.23,0.16,4.93,0.06c5.12-0.3,10.07-1.31,15.24-1.73c1.89-0.29,3.79-0.28,5.67,0.01" style="fill:none;stroke:#999;stroke-width:3" />
<path d="M925.32,13.24c0.85,0.85,1.11,2.26,1.11,3.51c0,0.57-0.04,27.2-0.05,42.13c0,4.61-0.01,8.11-0.01,9.38" style="fill:none;stroke:#999;stroke-width:3" />
<path d="M898.32,15.75c0,1-0.25,1.96-0.88,2.89c-2.32,3.48-5.57,7.98-8.1,11.24c-1.35,1.74-0.47,2.62,1.41,2.19c2.99-0.45,5.99-0.95,9.62-1.45" style="fill:none;stroke:#999;stroke-width:3" />
<path d="M907.05,21.96c0.07,1.16-0.36,2.11-0.75,2.58c-5.68,6.83-9.29,11.22-15.3,18.44c-1.88,2.26-2.8,3.71,1.07,2.62c5.67-1.6,9.55-2.6,15.14-4.1" style="fill:none;stroke:black;stroke-width:3" />
<circle cx="907.05" cy="21.96" r="5" stroke-width="0" fill="#FF2A00" opacity="0.7" />
<path d="M1022.63,22.94c1.32,0.29,2.65,0.33,3.99,0.13c5.26-0.76,11.66-1.17,17-1.6c1.51-0.36,3.01-0.36,4.5-0.02" style="fill:none;stroke:#999;stroke-width:3" />
<path d="M1022.9300000000001,30.7c0.61,0.88,0.96,1.85,1.05,2.9c0.42,2.33,0.9,4.95,1.45,8.39c0.2,1.26,0.41,2.63,0.63,4.14" style="fill:none;stroke:#999;stroke-width:3" />
<path d="M1024.31,31.08c4.35-0.48,13.04-1.88,18.19-2.46c3.59-0.41,5.12,0.75,4.58,4.41c-0.57,3.88-1.28,7.33-2.21,11.32" style="fill:none;stroke:#999;stroke-width:3" />
<path d="M1026.0900000000001,37.52c5.28-0.4,12.16-1.27,19.14-1.57" style="fill:none;stroke:#999;stroke-width:3" />
<path d="M1027.0900000000001,44.7c4.77-0.62,10.58-1.48,16.79-1.48" style="fill:none;stroke:#999;stroke-width:3" />
<path d="M1022.08,53.86c1.92,0.26,3.23,0.16,4.93,0.06c5.12-0.3,10.07-1.31,15.24-1.73c1.89-0.29,3.79-0.28,5.67,0.01" style="fill:none;stroke:#999;stroke-width:3" />
<path d="M1034.3200000000002,13.24c0.85,0.85,1.11,2.26,1.11,3.51c0,0.57-0.04,27.2-0.05,42.13c0,4.61-0.01,8.11-0.01,9.38" style="fill:none;stroke:#999;stroke-width:3" />
<path d="M1007.32,15.75c0,1-0.25,1.96-0.88,2.89c-2.32,3.48-5.57,7.98-8.1,11.24c-1.35,1.74-0.47,2.62,1.41,2.19c2.99-0.45,5.99-0.95,9.62-1.45" style="fill:none;stroke:#999;stroke-width:3" />
<path d="M1016.05,21.96c0.07,1.16-0.36,2.11-0.75,2.58c-5.68,6.83-9.29,11.22-15.3,18.44c-1.88,2.26-2.8,3.71,1.07,2.62c5.67-1.6,9.55-2.6,15.14-4.1" style="fill:none;stroke:#999;stroke-width:3" />
<path d="M1014.19,36.43c1.87,1.73,5.09,6.85,5.56,9.54" style="fill:none;stroke:black;stroke-width:3" />
<circle cx="1014.19" cy="36.43" r="5" stroke-width="0" fill="#FF2A00" opacity="0.7" />
<path d="M1131.63,22.94c1.32,0.29,2.65,0.33,3.99,0.13c5.26-0.76,11.66-1.17,17-1.6c1.51-0.36,3.01-0.36,4.5-0.02" style="fill:none;stroke:#999;stroke-width:3" />
<path d="M1131.93,30.7c0.61,0.88,0.96,1.85,1.05,2.9c0.42,2.33,0.9,4.95,1.45,8.39c0.2,1.26,0.41,2.63,0.63,4.14" style="fill:none;stroke:#999;stroke-width:3" />
<path d="M1133.31,31.08c4.35-0.48,13.04-1.88,18.19-2.46c3.59-0.41,5.12,0.75,4.58,4.41c-0.57,3.88-1.28,7.33-2.21,11.32" style="fill:none;stroke:#999;stroke-width:3" />
<path d="M1135.0900000000001,37.52c5.28-0.4,12.16-1.27,19.14-1.57" style="fill:none;stroke:#999;stroke-width:3" />
<path d="M1136.0900000000001,44.7c4.77-0.62,10.58-1.48,16.79-1.48" style="fill:none;stroke:#999;stroke-width:3" />
<path d="M1131.08,53.86c1.92,0.26,3.23,0.16,4.93,0.06c5.12-0.3,10.07-1.31,15.24-1.73c1.89-0.29,3.79-0.28,5.67,0.01" style="fill:none;stroke:#999;stroke-width:3" />
<path d="M1143.3200000000002,13.24c0.85,0.85,1.11,2.26,1.11,3.51c0,0.57-0.04,27.2-0.05,42.13c0,4.61-0.01,8.11-0.01,9.38" style="fill:none;stroke:#999;stroke-width:3" />
<path d="M1116.3200000000002,15.75c0,1-0.25,1.96-0.88,2.89c-2.32,3.48-5.57,7.98-8.1,11.24c-1.35,1.74-0.47,2.62,1.41,2.19c2.99-0.45,5.99-0.95,9.62-1.45" style="fill:none;stroke:#999;stroke-width:3" />
<path d="M1125.05,21.96c0.07,1.16-0.36,2.11-0.75,2.58c-5.68,6.83-9.29,11.22-15.3,18.44c-1.88,2.26-2.8,3.71,1.07,2.62c5.67-1.6,9.55-2.6,15.14-4.1" style="fill:none;stroke:#999;stroke-width:3" />
<path d="M1123.19,36.43c1.87,1.73,5.09,6.85,5.56,9.54" style="fill:none;stroke:#999;stroke-width:3" />
<path d="M1116.83,46.47c0.85,0.85,0.92,1.78,0.92,3.28c0,3.41,0.03,8.83,0.06,13.25c0.02,2.87,0.03,5.31,0.03,6.5" style="fill:none;stroke:black;stroke-width:3" />
<circle cx="1116.83" cy="46.47" r="5" stroke-width="0" fill="#FF2A00" opacity="0.7" />
<path d="M1240.63,22.94c1.32,0.29,2.65,0.33,3.99,0.13c5.26-0.76,11.66-1.17,17-1.6c1.51-0.36,3.01-0.36,4.5-0.02" style="fill:none;stroke:#999;stroke-width:3" />
<path d="M1240.93,30.7c0.61,0.88,0.96,1.85,1.05,2.9c0.42,2.33,0.9,4.95,1.45,8.39c0.2,1.26,0.41,2.63,0.63,4.14" style="fill:none;stroke:#999;stroke-width:3" />
<path d="M1242.31,31.08c4.35-0.48,13.04-1.88,18.19-2.46c3.59-0.41,5.12,0.75,4.58,4.41c-0.57,3.88-1.28,7.33-2.21,11.32" style="fill:none;stroke:#999;stroke-width:3" />
<path d="M1244.0900000000001,37.52c5.28-0.4,12.16-1.27,19.14-1.57" style="fill:none;stroke:#999;stroke-width:3" />
<path d="M1245.0900000000001,44.7c4.77-0.62,10.58-1.48,16.79-1.48" style="fill:none;stroke:#999;stroke-width:3" />
<path d="M1240.08,53.86c1.92,0.26,3.23,0.16,4.93,0.06c5.12-0.3,10.07-1.31,15.24-1.73c1.89-0.29,3.79-0.28,5.67,0.01" style="fill:none;stroke:#999;stroke-width:3" />
<path d="M1252.3200000000002,13.24c0.85,0.85,1.11,2.26,1.11,3.51c0,0.57-0.04,27.2-0.05,42.13c0,4.61-0.01,8.11-0.01,9.38" style="fill:none;stroke:#999;stroke-width:3" />
<path d="M1225.3200000000002,15.75c0,1-0.25,1.96-0.88,2.89c-2.32,3.48-5.57,7.98-8.1,11.24c-1.35,1.74-0.47,2.62,1.41,2.19c2.99-0.45,5.99-0.95,9.62-1.45" style="fill:none;stroke:#999;stroke-width:3" />
<path d="M1234.05,21.96c0.07,1.16-0.36,2.11-0.75,2.58c-5.68,6.83-9.29,11.22-15.3,18.44c-1.88,2.26-2.8,3.71,1.07,2.62c5.67-1.6,9.55-2.6,15.14-4.1" style="fill:none;stroke:#999;stroke-width:3" />
<path d="M1232.19,36.43c1.87,1.73,5.09,6.85,5.56,9.54" style="fill:none;stroke:#999;stroke-width:3" />
<path d="M1225.83,46.47c0.85,0.85,0.92,1.78,0.92,3.28c0,3.41,0.03,8.83,0.06,13.25c0.02,2.87,0.03,5.31,0.03,6.5" style="fill:none;stroke:#999;stroke-width:3" />
<path d="M1217.61,53.66c0.1,1.03-0.13,1.95-0.67,2.75c-1.5,2.56-3.97,6.43-6.17,9.36" style="fill:none;stroke:black;stroke-width:3" />
<circle cx="1217.61" cy="53.66" r="5" stroke-width="0" fill="#FF2A00" opacity="0.7" />
<path d="M1349.63,22.94c1.32,0.29,2.65,0.33,3.99,0.13c5.26-0.76,11.66-1.17,17-1.6c1.51-0.36,3.01-0.36,4.5-0.02" style="fill:none;stroke:#999;stroke-width:3" />
<path d="M1349.93,30.7c0.61,0.88,0.96,1.85,1.05,2.9c0.42,2.33,0.9,4.95,1.45,8.39c0.2,1.26,0.41,2.63,0.63,4.14" style="fill:none;stroke:#999;stroke-width:3" />
<path d="M1351.31,31.08c4.35-0.48,13.04-1.88,18.19-2.46c3.59-0.41,5.12,0.75,4.58,4.41c-0.57,3.88-1.28,7.33-2.21,11.32" style="fill:none;stroke:#999;stroke-width:3" />
<path d="M1353.0900000000001,37.52c5.28-0.4,12.16-1.27,19.14-1.57" style="fill:none;stroke:#999;stroke-width:3" />
<path d="M1354.0900000000001,44.7c4.77-0.62,10.58-1.48,16.79-1.48" style="fill:none;stroke:#999;stroke-width:3" />
<path d="M1349.08,53.86c1.92,0.26,3.23,0.16,4.93,0.06c5.12-0.3,10.07-1.31,15.24-1.73c1.89-0.29,3.79-0.28,5.67,0.01" style="fill:none;stroke:#999;stroke-width:3" />
<path d="M1361.3200000000002,13.24c0.85,0.85,1.11,2.26,1.11,3.51c0,0.57-0.04,27.2-0.05,42.13c0,4.61-0.01,8.11-0.01,9.38" style="fill:none;stroke:#999;stroke-width:3" />
<path d="M1334.3200000000002,15.75c0,1-0.25,1.96-0.88,2.89c-2.32,3.48-5.57,7.98-8.1,11.24c-1.35,1.74-0.47,2.62,1.41,2.19c2.99-0.45,5.99-0.95,9.62-1.45" style="fill:none;stroke:#999;stroke-width:3" />
<path d="M1343.05,21.96c0.07,1.16-0.36,2.11-0.75,2.58c-5.68,6.83-9.29,11.22-15.3,18.44c-1.88,2.26-2.8,3.71,1.07,2.62c5.67-1.6,9.55-2.6,15.14-4.1" style="fill:none;stroke:#999;stroke-width:3" />
<path d="M1341.19,36.43c1.87,1.73,5.09,6.85,5.56,9.54" style="fill:none;stroke:#999;stroke-width:3" />
<path d="M1334.83,46.47c0.85,0.85,0.92,1.78,0.92,3.28c0,3.41,0.03,8.83,0.06,13.25c0.02,2.87,0.03,5.31,0.03,6.5" style="fill:none;stroke:#999;stroke-width:3" />
<path d="M1326.61,53.66c0.1,1.03-0.13,1.95-0.67,2.75c-1.5,2.56-3.97,6.43-6.17,9.36" style="fill:none;stroke:#999;stroke-width:3" />
<path d="M1341.79,52.34c1.56,2.01,4.73,6.87,5.29,8.88" style="fill:none;stroke:black;stroke-width:3" />
<circle cx="1341.79" cy="52.34" r="5" stroke-width="0" fill="#FF2A00" opacity="0.7" />
<path d="M1458.63,22.94c1.32,0.29,2.65,0.33,3.99,0.13c5.26-0.76,11.66-1.17,17-1.6c1.51-0.36,3.01-0.36,4.5-0.02" style="fill:none;stroke:#999;stroke-width:3" />
<path d="M1458.93,30.7c0.61,0.88,0.96,1.85,1.05,2.9c0.42,2.33,0.9,4.95,1.45,8.39c0.2,1.26,0.41,2.63,0.63,4.14" style="fill:none;stroke:#999;stroke-width:3" />
<path d="M1460.31,31.08c4.35-0.48,13.04-1.88,18.19-2.46c3.59-0.41,5.12,0.75,4.58,4.41c-0.57,3.88-1.28,7.33-2.21,11.32" style="fill:none;stroke:#999;stroke-width:3" />
<path d="M1462.0900000000001,37.52c5.28-0.4,12.16-1.27,19.14-1.57" style="fill:none;stroke:#999;stroke-width:3" />
<path d="M1463.0900000000001,44.7c4.77-0.62,10.58-1.48,16.79-1.48" style="fill:none;stroke:#999;stroke-width:3" />
<path d="M1458.08,53.86c1.92,0.26,3.23,0.16,4.93,0.06c5.12-0.3,10.07-1.31,15.24-1.73c1.89-0.29,3.79-0.28,5.67,0.01" style="fill:none;stroke:#999;stroke-width:3" />
<path d="M1470.3200000000002,13.24c0.85,0.85,1.11,2.26,1.11,3.51c0,0.57-0.04,27.2-0.05,42.13c0,4.61-0.01,8.11-0.01,9.38" style="fill:none;stroke:#999;stroke-width:3" />
<path d="M1443.3200000000002,15.75c0,1-0.25,1.96-0.88,2.89c-2.32,3.48-5.57,7.98-8.1,11.24c-1.35,1.74-0.47,2.62,1.41,2.19c2.99-0.45,5.99-0.95,9.62-1.45" style="fill:none;stroke:#999;stroke-width:3" />
<path d="M1452.05,21.96c0.07,1.16-0.36,2.11-0.75,2.58c-5.68,6.83-9.29,11.22-15.3,18.44c-1.88,2.26-2.8,3.71,1.07,2.62c5.67-1.6,9.55-2.6,15.14-4.1" style="fill:none;stroke:#999;stroke-width:3" />
<path d="M1450.19,36.43c1.87,1.73,5.09,6.85,5.56,9.54" style="fill:none;stroke:#999;stroke-width:3" />
<path d="M1443.83,46.47c0.85,0.85,0.92,1.78,0.92,3.28c0,3.41,0.03,8.83,0.06,13.25c0.02,2.87,0.03,5.31,0.03,6.5" style="fill:none;stroke:#999;stroke-width:3" />
<path d="M1435.61,53.66c0.1,1.03-0.13,1.95-0.67,2.75c-1.5,2.56-3.97,6.43-6.17,9.36" style="fill:none;stroke:#999;stroke-width:3" />
<path d="M1450.79,52.34c1.56,2.01,4.73,6.87,5.29,8.88" style="fill:none;stroke:#999;stroke-width:3" />
<path d="M1498.0,14.75c0,1.12-0.04,2.02-0.63,3.06c-1.85,3.24-4.85,8.38-7,11.82c-1,1.61-0.75,2.5,1.27,2.14c2.85-0.51,5.36-0.89,8.98-1.64" style="fill:none;stroke:black;stroke-width:3" />
<circle cx="1498.0" cy="14.75" r="5" stroke-width="0" fill="#FF2A00" opacity="0.7" />
<path d="M1567.63,22.94c1.32,0.29,2.65,0.33,3.99,0.13c5.26-0.76,11.66-1.17,17-1.6c1.51-0.36,3.01-0.36,4.5-0.02" style="fill:none;stroke:#999;stroke-width:3" />
<path d="M1567.93,30.7c0.61,0.88,0.96,1.85,1.05,2.9c0.42,2.33,0.9,4.95,1.45,8.39c0.2,1.26,0.41,2.63,0.63,4.14" style="fill:none;stroke:#999;stroke-width:3" />
<path d="M1569.31,31.08c4.35-0.48,13.04-1.88,18.19-2.46c3.59-0.41,5.12,0.75,4.58,4.41c-0.57,3.88-1.28,7.33-2.21,11.32" style="fill:none;stroke:#999;stroke-width:3" />
<path d="M1571.0900000000001,37.52c5.28-0.4,12.16-1.27,19.14-1.57" style="fill:none;stroke:#999;stroke-width:3" />
<path d="M1572.0900000000001,44.7c4.77-0.62,10.58-1.48,16.79-1.48" style="fill:none;stroke:#999;stroke-width:3" />
<path d="M1567.08,53.86c1.92,0.26,3.23,0.16,4.93,0.06c5.12-0.3,10.07-1.31,15.24-1.73c1.89-0.29,3.79-0.28,5.67,0.01" style="fill:none;stroke:#999;stroke-width:3" />
<path d="M1579.3200000000002,13.24c0.85,0.85,1.11,2.26,1.11,3.51c0,0.57-0.04,27.2-0.05,42.13c0,4.61-0.01,8.11-0.01,9.38" style="fill:none;stroke:#999;stroke-width:3" />
<path d="M1552.3200000000002,15.75c0,1-0.25,1.96-0.88,2.89c-2.32,3.48-5.57,7.98-8.1,11.24c-1.35,1.74-0.47,2.62,1.41,2.19c2.99-0.45,5.99-0.95,9.62-1.45" style="fill:none;stroke:#999;stroke-width:3" />
<path d="M1561.05,21.96c0.07,1.16-0.36,2.11-0.75,2.58c-5.68,6.83-9.29,11.22-15.3,18.44c-1.88,2.26-2.8,3.71,1.07,2.62c5.67-1.6,9.55-2.6,15.14-4.1" style="fill:none;stroke:#999;stroke-width:3" />
<path d="M1559.19,36.43c1.87,1.73,5.09,6.85,5.56,9.54" style="fill:none;stroke:#999;stroke-width:3" />
<path d="M1552.83,46.47c0.85,0.85,0.92,1.78,0.92,3.28c0,3.41,0.03,8.83,0.06,13.25c0.02,2.87,0.03,5.31,0.03,6.5" style="fill:none;stroke:#999;stroke-width:3" />
<path d="M1544.61,53.66c0.1,1.03-0.13,1.95-0.67,2.75c-1.5,2.56-3.97,6.43-6.17,9.36" style="fill:none;stroke:#999;stroke-width:3" />
<path d="M1559.79,52.34c1.56,2.01,4.73,6.87,5.29,8.88" style="fill:none;stroke:#999;stroke-width:3" />
<path d="M1607.0,14.75c0,1.12-0.04,2.02-0.63,3.06c-1.85,3.24-4.85,8.38-7,11.82c-1,1.61-0.75,2.5,1.27,2.14c2.85-0.51,5.36-0.89,8.98-1.64" style="fill:none;stroke:#999;stroke-width:3" />
<path d="M1618.37,18.36c0.01,0.89-0.39,1.95-0.77,2.48c-5.46,7.64-10.32,13.58-17.03,21.59c-1.41,1.68-1.83,3.09,1.22,2.44c5.22-1.12,10.34-2.12,16.2-3.37" style="fill:none;stroke:black;stroke-width:3" />
<circle cx="1618.37" cy="18.36" r="5" stroke-width="0" fill="#FF2A00" opacity="0.7" />
<path d="M1676.63,22.94c1.32,0.29,2.65,0.33,3.99,0.13c5.26-0.76,11.66-1.17,17-1.6c1.51-0.36,3.01-0.36,4.5-0.02" style="fill:none;stroke:#999;stroke-width:3" />
<path d="M1676.93,30.7c0.61,0.88,0.96,1.85,1.05,2.9c0.42,2.33,0.9,4.95,1.45,8.39c0.2,1.26,0.41,2.63,0.63,4.14" style="fill:none;stroke:#999;stroke-width:3" />
<path d="M1678.31,31.08c4.35-0.48,13.04-1.88,18.19-2.46c3.59-0.41,5.12,0.75,4.58,4.41c-0.57,3.88-1.28,7.33-2.21,11.32" style="fill:none;stroke:#999;stroke-width:3" />
<path d="M1680.0900000000001,37.52c5.28-0.4,12.16-1.27,19.14-1.57" style="fill:none;stroke:#999;stroke-width:3" />
<path d="M1681.0900000000001,44.7c4.77-0.62,10.58-1.48,16.79-1.48" style="fill:none;stroke:#999;stroke-width:3" />
<path d="M1676.08,53.86c1.92,0.26,3.23,0.16,4.93,0.06c5.12-0.3,10.07-1.31,15.24-1.73c1.89-0.29,3.79-0.28,5.67,0.01" style="fill:none;stroke:#999;stroke-width:3" />
<path d="M1688.3200000000002,13.24c0.85,0.85,1.11,2.26,1.11,3.51c0,0.57-0.04,27.2-0.05,42.13c0,4.61-0.01,8.11-0.01,9.38" style="fill:none;stroke:#999;stroke-width:3" />
<path d="M1661.3200000000002,15.75c0,1-0.25,1.96-0.88,2.89c-2.32,3.48-5.57,7.98-8.1,11.24c-1.35,1.74-0.47,2.62,1.41,2.19c2.99-0.45,5.99-0.95,9.62-1.45" style="fill:none;stroke:#999;stroke-width:3" />
<path d="M1670.05,21.96c0.07,1.16-0.36,2.11-0.75,2.58c-5.68,6.83-9.29,11.22-15.3,18.44c-1.88,2.26-2.8,3.71,1.07,2.62c5.67-1.6,9.55-2.6,15.14-4.1" style="fill:none;stroke:#999;stroke-width:3" />
<path d="M1668.19,36.43c1.87,1.73,5.09,6.85,5.56,9.54" style="fill:none;stroke:#999;stroke-width:3" />
<path d="M1661.83,46.47c0.85,0.85,0.92,1.78,0.92,3.28c0,3.41,0.03,8.83,0.06,13.25c0.02,2.87,0.03,5.31,0.03,6.5" style="fill:none;stroke:#999;stroke-width:3" />
<path d="M1653.61,53.66c0.1,1.03-0.13,1.95-0.67,2.75c-1.5,2.56-3.97,6.43-6.17,9.36" style="fill:none;stroke:#999;stroke-width:3" />
<path d="M1668.79,52.34c1.56,2.01,4.73,6.87,5.29,8.88" style="fill:none;stroke:#999;stroke-width:3" />
<path d="M1716.0,14.75c0,1.12-0.04,2.02-0.63,3.06c-1.85,3.24-4.85,8.38-7,11.82c-1,1.61-0.75,2.5,1.27,2.14c2.85-0.51,5.36-0.89,8.98-1.64" style="fill:none;stroke:#999;stroke-width:3" />
<path d="M1727.37,18.36c0.01,0.89-0.39,1.95-0.77,2.48c-5.46,7.64-10.32,13.58-17.03,21.59c-1.41,1.68-1.83,3.09,1.22,2.44c5.22-1.12,10.34-2.12,16.2-3.37" style="fill:none;stroke:#999;stroke-width:3" />
<path d="M1724.06,35.13c1.99,1.84,5.89,8.05,6.39,10.91" style="fill:none;stroke:black;stroke-width:3" />
<circle cx="1724.06" cy="35.13" r="5" stroke-width="0" fill="#FF2A00" opacity="0.7" />
<path d="M1785.63,22.94c1.32,0.29,2.65,0.33,3.99,0.13c5.26-0.76,11.66-1.17,17-1.6c1.51-0.36,3.01-0.36,4.5-0.02" style="fill:none;stroke:#999;stroke-width:3" />
<path d="M1785.93,30.7c0.61,0.88,0.96,1.85,1.05,2.9c0.42,2.33,0.9,4.95,1.45,8.39c0.2,1.26,0.41,2.63,0.63,4.14" style="fill:none;stroke:#999;stroke-width:3" />
<path d="M1787.31,31.08c4.35-0.48,13.04-1.88,18.19-2.46c3.59-0.41,5.12,0.75,4.58,4.41c-0.57,3.88-1.28,7.33-2.21,11.32" style="fill:none;stroke:#999;stroke-width:3" />
<path d="M1789.0900000000001,37.52c5.28-0.4,12.16-1.27,19.14-1.57" style="fill:none;stroke:#999;stroke-width:3" />
<path d="M1790.0900000000001,44.7c4.77-0.62,10.58-1.48,16.79-1.48" style="fill:none;stroke:#999;stroke-width:3" />
<path d="M1785.08,53.86c1.92,0.26,3.23,0.16,4.93,0.06c5.12-0.3,10.07-1.31,15.24-1.73c1.89-0.29,3.79-0.28,5.67,0.01" style="fill:none;stroke:#999;stroke-width:3" />
<path d="M1797.3200000000002,13.24c0.85,0.85,1.11,2.26,1.11,3.51c0,0.57-0.04,27.2-0.05,42.13c0,4.61-0.01,8.11-0.01,9.38" style="fill:none;stroke:#999;stroke-width:3" />
<path d="M1770.3200000000002,15.75c0,1-0.25,1.96-0.88,2.89c-2.32,3.48-5.57,7.98-8.1,11.24c-1.35,1.74-0.47,2.62,1.41,2.19c2.99-0.45,5.99-0.95,9.62-1.45" style="fill:none;stroke:#999;stroke-width:3" />
<path d="M1779.05,21.96c0.07,1.16-0.36,2.11-0.75,2.58c-5.68,6.83-9.29,11.22-15.3,18.44c-1.88,2.26-2.8,3.71,1.07,2.62c5.67-1.6,9.55-2.6,15.14-4.1" style="fill:none;stroke:#999;stroke-width:3" />
<path d="M1777.19,36.43c1.87,1.73,5.09,6.85,5.56,9.54" style="fill:none;stroke:#999;stroke-width:3" />
<path d="M1770.83,46.47c0.85,0.85,0.92,1.78,0.92,3.28c0,3.41,0.03,8.83,0.06,13.25c0.02,2.87,0.03,5.31,0.03,6.5" style="fill:none;stroke:#999;stroke-width:3" />
<path d="M1762.61,53.66c0.1,1.03-0.13,1.95-0.67,2.75c-1.5,2.56-3.97,6.43-6.17,9.36" style="fill:none;stroke:#999;stroke-width:3" />
<path d="M1777.79,52.34c1.56,2.01,4.73,6.87,5.29,8.88" style="fill:none;stroke:#999;stroke-width:3" />
<path d="M1825.0,14.75c0,1.12-0.04,2.02-0.63,3.06c-1.85,3.24-4.85,8.38-7,11.82c-1,1.61-0.75,2.5,1.27,2.14c2.85-0.51,5.36-0.89,8.98-1.64" style="fill:none;stroke:#999;stroke-width:3" />
<path d="M1836.37,18.36c0.01,0.89-0.39,1.95-0.77,2.48c-5.46,7.64-10.32,13.58-17.03,21.59c-1.41,1.68-1.83,3.09,1.22,2.44c5.22-1.12,10.34-2.12,16.2-3.37" style="fill:none;stroke:#999;stroke-width:3" />
<path d="M1833.06,35.13c1.99,1.84,5.89,8.05,6.39,10.91" style="fill:none;stroke:#999;stroke-width:3" />
<path d="M1826.08,47.04c0.88,0.88,0.92,2.07,0.92,3.23c0,3.43,0,8.31,0,12.23c0,2.62,0,4.82,0,5.88" style="fill:none;stroke:black;stroke-width:3" />
<circle cx="1826.08" cy="47.04" r="5" stroke-width="0" fill="#FF2A00" opacity="0.7" />
<path d="M1894.63,22.94c1.32,0.29,2.65,0.33,3.99,0.13c5.26-0.76,11.66-1.17,17-1.6c1.51-0.36,3.01-0.36,4.5-0.02" style="fill:none;stroke:#999;stroke-width:3" />
<path d="M1894.93,30.7c0.61,0.88,0.96,1.85,1.05,2.9c0.42,2.33,0.9,4.95,1.45,8.39c0.2,1.26,0.41,2.63,0.63,4.14" style="fill:none;stroke:#999;stroke-width:3" />
<path d="M1896.31,31.08c4.35-0.48,13.04-1.88,18.19-2.46c3.59-0.41,5.12,0.75,4.58,4.41c-0.57,3.88-1.28,7.33-2.21,11.32" style="fill:none;stroke:#999;stroke-width:3" />
<path d="M1898.0900000000001,37.52c5.28-0.4,12.16-1.27,19.14-1.57" style="fill:none;stroke:#999;stroke-width:3" />
<path d="M1899.0900000000001,44.7c4.77-0.62,10.58-1.48,16.79-1.48" style="fill:none;stroke:#999;stroke-width:3" />
<path d="M1894.08,53.86c1.92,0.26,3.23,0.16,4.93,0.06c5.12-0.3,10.07-1.31,15.24-1.73c1.89-0.29,3.79-0.28,5.67,0.01" style="fill:none;stroke:#999;stroke-width:3" />
<path d="M1906.3200000000002,13.24c0.85,0.85,1.11,2.26,1.11,3.51c0,0.57-0.04,27.2-0.05,42.13c0,4.61-0.01,8.11-0.01,9.38" style="fill:none;stroke:#999;stroke-width:3" />
<path d="M1879.3200000000002,15.75c0,1-0.25,1.96-0.88,2.89c-2.32,3.48-5.57,7.98-8.1,11.24c-1.35,1.74-0.47,2.62,1.41,2.19c2.99-0.45,5.99-0.95,9.62-1.45" style="fill:none;stroke:#999;stroke-width:3" />
<path d="M1888.05,21.96c0.07,1.16-0.36,2.11-0.75,2.58c-5.68,6.83-9.29,11.22-15.3,18.44c-1.88,2.26-2.8,3.71,1.07,2.62c5.67-1.6,9.55-2.6,15.14-4.1" style="fill:none;stroke:#999;stroke-width:3" />
<path d="M1886.19,36.43c1.87,1.73,5.09,6.85,5.56,9.54" style="fill:none;stroke:#999;stroke-width:3" />
<path d="M1879.83,46.47c0.85,0.85,0.92,1.78,0.92,3.28c0,3.41,0.03,8.83,0.06,13.25c0.02,2.87,0.03,5.31,0.03,6.5" style="fill:none;stroke:#999;stroke-width:3" />
<path d="M1871.61,53.66c0.1,1.03-0.13,1.95-0.67,2.75c-1.5,2.56-3.97,6.43-6.17,9.36" style="fill:none;stroke:#999;stroke-width:3" />
<path d="M1886.79,52.34c1.56,2.01,4.73,6.87,5.29,8.88" style="fill:none;stroke:#999;stroke-width:3" />
<path d="M1934.0,14.75c0,1.12-0.04,2.02-0.63,3.06c-1.85,3.24-4.85,8.38-7,11.82c-1,1.61-0.75,2.5,1.27,2.14c2.85-0.51,5.36-0.89,8.98-1.64" style="fill:none;stroke:#999;stroke-width:3" />
<path d="M1945.37,18.36c0.01,0.89-0.39,1.95-0.77,2.48c-5.46,7.64-10.32,13.58-17.03,21.59c-1.41,1.68-1.83,3.09,1.22,2.44c5.22-1.12,10.34-2.12,16.2-3.37" style="fill:none;stroke:#999;stroke-width:3" />
<path d="M1942.06,35.13c1.99,1.84,5.89,8.05,6.39,10.91" style="fill:none;stroke:#999;stroke-width:3" />
<path d="M1935.08,47.04c0.88,0.88,0.92,2.07,0.92,3.23c0,3.43,0,8.31,0,12.23c0,2.62,0,4.82,0,5.88" style="fill:none;stroke:#999;stroke-width:3" />
<path d="M1927.21,53.16c0,1.09-0.4,2.07-0.65,2.47c-1.93,3.11-5.45,7.45-7.96,9.62" style="fill:none;stroke:black;stroke-width:3" />
<circle cx="1927.21" cy="53.16" r="5" stroke-width="0" fill="#FF2A00" opacity="0.7" />
<path d="M2003.63,22.94c1.32,0.29,2.65,0.33,3.99,0.13c5.26-0.76,11.66-1.17,17-1.6c1.51-0.36,3.01-0.36,4.5-0.02" style="fill:none;stroke:#999;stroke-width:3" />
<path d="M2003.93,30.7c0.61,0.88,0.96,1.85,1.05,2.9c0.42,2.33,0.9,4.95,1.45,8.39c0.2,1.26,0.41,2.63,0.63,4.14" style="fill:none;stroke:#999;stroke-width:3" />
<path d="M2005.31,31.08c4.35-0.48,13.04-1.88,18.19-2.46c3.59-0.41,5.12,0.75,4.58,4.41c-0.57,3.88-1.28,7.33-2.21,11.32" style="fill:none;stroke:#999;stroke-width:3" />
<path d="M2007.0900000000001,37.52c5.28-0.4,12.16-1.27,19.14-1.57" style="fill:none;stroke:#999;stroke-width:3" />
<path d="M2008.0900000000001,44.7c4.77-0.62,10.58-1.48,16.79-1.48" style="fill:none;stroke:#999;stroke-width:3" />
<path d="M2003.08,53.86c1.92,0.26,3.23,0.16,4.93,0.06c5.12-0.3,10.07-1.31,15.24-1.73c1.89-0.29,3.79-0.28,5.67,0.01" style="fill:none;stroke:#999;stroke-width:3" />
<path d="M2015.3200000000002,13.24c0.85,0.85,1.11,2.26,1.11,3.51c0,0.57-0.04,27.2-0.05,42.13c0,4.61-0.01,8.11-0.01,9.38" style="fill:none;stroke:#999;stroke-width:3" />
<path d="M1988.3200000000002,15.75c0,1-0.25,1.96-0.88,2.89c-2.32,3.48-5.57,7.98-8.1,11.24c-1.35,1.74-0.47,2.62,1.41,2.19c2.99-0.45,5.99-0.95,9.62-1.45" style="fill:none;stroke:#999;stroke-width:3" />
<path d="M1997.05,21.96c0.07,1.16-0.36,2.11-0.75,2.58c-5.68,6.83-9.29,11.22-15.3,18.44c-1.88,2.26-2.8,3.71,1.07,2.62c5.67-1.6,9.55-2.6,15.14-4.1" style="fill:none;stroke:#999;stroke-width:3" />
<path d="M1995.19,36.43c1.87,1.73,5.09,6.85,5.56,9.54" style="fill:none;stroke:#999;stroke-width:3" />
<path d="M1988.83,46.47c0.85,0.85,0.92,1.78,0.92,3.28c0,3.41,0.03,8.83,0.06,13.25c0.02,2.87,0.03,5.31,0.03,6.5" style="fill:none;stroke:#999;stroke-width:3" />
<path d="M1980.61,53.66c0.1,1.03-0.13,1.95-0.67,2.75c-1.5,2.56-3.97,6.43-6.17,9.36" style="fill:none;stroke:#999;stroke-width:3" />
<path d="M1995.79,52.34c1.56,2.01,4.73,6.87,5.29,8.88" style="fill:none;stroke:#999;stroke-width:3" />
<path d="M2043.0,14.75c0,1.12-0.04,2.02-0.63,3.06c-1.85,3.24-4.85,8.38-7,11.82c-1,1.61-0.75,2.5,1.27,2.14c2.85-0.51,5.36-0.89,8.98-1.64" style="fill:none;stroke:#999;stroke-width:3" />
<path d="M2054.37,18.36c0.01,0.89-0.39,1.95-0.77,2.48c-5.46,7.64-10.32,13.58-17.03,21.59c-1.41,1.68-1.83,3.09,1.22,2.44c5.22-1.12,10.34-2.12,16.2-3.37" style="fill:none;stroke:#999;stroke-width:3" />
<path d="M2051.06,35.13c1.99,1.84,5.89,8.05,6.39,10.91" style="fill:none;stroke:#999;stroke-width:3" />
<path d="M2044.08,47.04c0.88,0.88,0.92,2.07,0.92,3.23c0,3.43,0,8.31,0,12.23c0,2.62,0,4.82,0,5.88" style="fill:none;stroke:#999;stroke-width:3" />
<path d="M2036.21,53.16c0,1.09-0.4,2.07-0.65,2.47c-1.93,3.11-5.45,7.45-7.96,9.62" style="fill:none;stroke:#999;stroke-width:3" />
<path d="M2051.53,51.31c2.35,2.48,6.38,9.09,7.22,11.57" style="fill:none;stroke:black;stroke-width:3" />
<circle cx="2051.53" cy="51.31" r="5" stroke-width="0" fill="#FF2A00" opacity="0.7" />
<path d="M2112.63,22.94c1.32,0.29,2.65,0.33,3.99,0.13c5.26-0.76,11.66-1.17,17-1.6c1.51-0.36,3.01-0.36,4.5-0.02" style="fill:none;stroke:#999;stroke-width:3" />
<path d="M2112.9300000000003,30.7c0.61,0.88,0.96,1.85,1.05,2.9c0.42,2.33,0.9,4.95,1.45,8.39c0.2,1.26,0.41,2.63,0.63,4.14" style="fill:none;stroke:#999;stroke-width:3" />
<path d="M2114.31,31.08c4.35-0.48,13.04-1.88,18.19-2.46c3.59-0.41,5.12,0.75,4.58,4.41c-0.57,3.88-1.28,7.33-2.21,11.32" style="fill:none;stroke:#999;stroke-width:3" />
<path d="M2116.09,37.52c5.28-0.4,12.16-1.27,19.14-1.57" style="fill:none;stroke:#999;stroke-width:3" />
<path d="M2117.09,44.7c4.77-0.62,10.58-1.48,16.79-1.48" style="fill:none;stroke:#999;stroke-width:3" />
<path d="M2112.08,53.86c1.92,0.26,3.23,0.16,4.93,0.06c5.12-0.3,10.07-1.31,15.24-1.73c1.89-0.29,3.79-0.28,5.67,0.01" style="fill:none;stroke:#999;stroke-width:3" />
<path d="M2124.32,13.24c0.85,0.85,1.11,2.26,1.11,3.51c0,0.57-0.04,27.2-0.05,42.13c0,4.61-0.01,8.11-0.01,9.38" style="fill:none;stroke:#999;stroke-width:3" />
<path d="M2097.32,15.75c0,1-0.25,1.96-0.88,2.89c-2.32,3.48-5.57,7.98-8.1,11.24c-1.35,1.74-0.47,2.62,1.41,2.19c2.99-0.45,5.99-0.95,9.62-1.45" style="fill:none;stroke:#999;stroke-width:3" />
<path d="M2106.05,21.96c0.07,1.16-0.36,2.11-0.75,2.58c-5.68,6.83-9.29,11.22-15.3,18.44c-1.88,2.26-2.8,3.71,1.07,2.62c5.67-1.6,9.55-2.6,15.14-4.1" style="fill:none;stroke:#999;stroke-width:3" />
<path d="M2104.19,36.43c1.87,1.73,5.09,6.85,5.56,9.54" style="fill:none;stroke:#999;stroke-width:3" />
<path d="M2097.83,46.47c0.85,0.85,0.92,1.78,0.92,3.28c0,3.41,0.03,8.83,0.06,13.25c0.02,2.87,0.03,5.31,0.03,6.5" style="fill:none;stroke:#999;stroke-width:3" />
<path d="M2089.6099999999997,53.66c0.1,1.03-0.13,1.95-0.67,2.75c-1.5,2.56-3.97,6.43-6.17,9.36" style="fill:none;stroke:#999;stroke-width:3" />
<path d="M2104.79,52.34c1.56,2.01,4.73,6.87,5.29,8.88" style="fill:none;stroke:#999;stroke-width:3" />
<path d="M2152.0,14.75c0,1.12-0.04,2.02-0.63,3.06c-1.85,3.24-4.85,8.38-7,11.82c-1,1.61-0.75,2.5,1.27,2.14c2.85-0.51,5.36-0.89,8.98-1.64" style="fill:none;stroke:#999;stroke-width:3" />
<path d="M2163.37,18.36c0.01,0.89-0.39,1.95-0.77,2.48c-5.46,7.64-10.32,13.58-17.03,21.59c-1.41,1.68-1.83,3.09,1.22,2.44c5.22-1.12,10.34-2.12,16.2-3.37" style="fill:none;stroke:#999;stroke-width:3" />
<path d="M2160.06,35.13c1.99,1.84,5.89,8.05,6.39,10.91" style="fill:none;stroke:#999;stroke-width:3" />
<path d="M2153.08,47.04c0.88,0.88,0.92,2.07,0.92,3.23c0,3.43,0,8.31,0,12.23c0,2.62,0,4.82,0,5.88" style="fill:none;stroke:#999;stroke-width:3" />
<path d="M2145.21,53.16c0,1.09-0.4,2.07-0.65,2.47c-1.93,3.11-5.45,7.45-7.96,9.62" style="fill:none;stroke:#999;stroke-width:3" />
<path d="M2160.53,51.31c2.35,2.48,6.38,9.09,7.22,11.57" style="fill:none;stroke:#999;stroke-width:3" />
<path d="M2103.25,74.1c1.01,1.01,1.43,1.98,1.58,3.35c0.74,4.62,1.26,9.26,1.87,14.18c0.26,2.05,0.53,4.16,0.84,6.33" style="fill:none;stroke:black;stroke-width:3" />
<circle cx="2103.25" cy="74.1" r="5" stroke-width="0" fill="#FF2A00" opacity="0.7" />
<path d="M2221.63,22.94c1.32,0.29,2.65,0.33,3.99,0.13c5.26-0.76,11.66-1.17,17-1.6c1.51-0.36,3.01-0.36,4.5-0.02" style="fill:none;stroke:#999;stroke-width:3" />
<path d="M2221.9300000000003,30.7c0.61,0.88,0.96,1.85,1.05,2.9c0.42,2.33,0.9,4.95,1.45,8.39c0.2,1.26,0.41,2.63,0.63,4.14" style="fill:none;stroke:#999;stroke-width:3" />
<path d="M2223.31,31.08c4.35-0.48,13.04-1.88,18.19-2.46c3.59-0.41,5.12,0.75,4.58,4.41c-0.57,3.88-1.28,7.33-2.21,11.32" style="fill:none;stroke:#999;stroke-width:3" />
<path d="M2225.09,37.52c5.28-0.4,12.16-1.27,19.14-1.57" style="fill:none;stroke:#999;stroke-width:3" />
<path d="M2226.09,44.7c4.77-0.62,10.58-1.48,16.79-1.48" style="fill:none;stroke:#999;stroke-width:3" />
<path d="M2221.08,53.86c1.92,0.26,3.23,0.16,4.93,0.06c5.12-0.3,10.07-1.31,15.24-1.73c1.89-0.29,3.79-0.28,5.67,0.01" style="fill:none;stroke:#999;stroke-width:3" />
<path d="M2233.32,13.24c0.85,0.85,1.11,2.26,1.11,3.51c0,0.57-0.04,27.2-0.05,42.13c0,4.61-0.01,8.11-0.01,9.38" style="fill:none;stroke:#999;stroke-width:3" />
<path d="M2206.32,15.75c0,1-0.25,1.96-0.88,2.89c-2.32,3.48-5.57,7.98-8.1,11.24c-1.35,1.74-0.47,2.62,1.41,2.19c2.99-0.45,5.99-0.95,9.62-1.45" style="fill:none;stroke:#999;stroke-width:3" />
<path d="M2215.05,21.96c0.07,1.16-0.36,2.11-0.75,2.58c-5.68,6.83-9.29,11.22-15.3,18.44c-1.88,2.26-2.8,3.71,1.07,2.62c5.67-1.6,9.55-2.6,15.14-4.1" style="fill:none;stroke:#999;stroke-width:3" />
<path d="M2213.19,36.43c1.87,1.73,5.09,6.85,5.56,9.54" style="fill:none;stroke:#999;stroke-width:3" />
<path d="M2206.83,46.47c0.85,0.85,0.92,1.78,0.92,3.28c0,3.41,0.03,8.83,0.06,13.25c0.02,2.87,0.03,5.31,0.03,6.5" style="fill:none;stroke:#999;stroke-width:3" />
<path d="M2198.6099999999997,53.66c0.1,1.03-0.13,1.95-0.67,2.75c-1.5,2.56-3.97,6.43-6.17,9.36" style="fill:none;stroke:#999;stroke-width:3" />
<path d="M2213.79,52.34c1.56,2.01,4.73,6.87,5.29,8.88" style="fill:none;stroke:#999;stroke-width:3" />
<path d="M2261.0,14.75c0,1.12-0.04,2.02-0.63,3.06c-1.85,3.24-4.85,8.38-7,11.82c-1,1.61-0.75,2.5,1.27,2.14c2.85-0.51,5.36-0.89,8.98-1.64" style="fill:none;stroke:#999;stroke-width:3" />
<path d="M2272.37,18.36c0.01,0.89-0.39,1.95-0.77,2.48c-5.46,7.64-10.32,13.58-17.03,21.59c-1.41,1.68-1.83,3.09,1.22,2.44c5.22-1.12,10.34-2.12,16.2-3.37" style="fill:none;stroke:#999;stroke-width:3" />
<path d="M2269.06,35.13c1.99,1.84,5.89,8.05,6.39,10.91" style="fill:none;stroke:#999;stroke-width:3" />
<path d="M2262.08,47.04c0.88,0.88,0.92,2.07,0.92,3.23c0,3.43,0,8.31,0,12.23c0,2.62,0,4.82,0,5.88" style="fill:none;stroke:#999;stroke-width:3" />
<path d="M2254.21,53.16c0,1.09-0.4,2.07-0.65,2.47c-1.93,3.11-5.45,7.45-7.96,9.62" style="fill:none;stroke:#999;stroke-width:3" />
<path d="M2269.53,51.31c2.35,2.48,6.38,9.09,7.22,11.57" style="fill:none;stroke:#999;stroke-width:3" />
<path d="M2212.25,74.1c1.01,1.01,1.43,1.98,1.58,3.35c0.74,4.62,1.26,9.26,1.87,14.18c0.26,2.05,0.53,4.16,0.84,6.33" style="fill:none;stroke:#999;stroke-width:3" />
<path d="M2214.39,75.96c13.53-1.24,32.73-2.12,40.36-2.8c3.06-0.27,5.37,1.26,4.63,4.59c-1.15,5.22-1.89,8-3.47,15.02" style="fill:none;stroke:black;stroke-width:3" />
<circle cx="2214.39" cy="75.96" r="5" stroke-width="0" fill="#FF2A00" opacity="0.7" />
<path d="M2330.63,22.94c1.32,0.29,2.65,0.33,3.99,0.13c5.26-0.76,11.66-1.17,17-1.6c1.51-0.36,3.01-0.36,4.5-0.02" style="fill:none;stroke:#999;stroke-width:3" />
<path d="M2330.9300000000003,30.7c0.61,0.88,0.96,1.85,1.05,2.9c0.42,2.33,0.9,4.95,1.45,8.39c0.2,1.26,0.41,2.63,0.63,4.14" style="fill:none;stroke:#999;stroke-width:3" />
<path d="M2332.31,31.08c4.35-0.48,13.04-1.88,18.19-2.46c3.59-0.41,5.12,0.75,4.58,4.41c-0.57,3.88-1.28,7.33-2.21,11.32" style="fill:none;stroke:#999;stroke-width:3" />
<path d="M2334.09,37.52c5.28-0.4,12.16-1.27,19.14-1.57" style="fill:none;stroke:#999;stroke-width:3" />
<path d="M2335.09,44.7c4.77-0.62,10.58-1.48,16.79-1.48" style="fill:none;stroke:#999;stroke-width:3" />
<path d="M2330.08,53.86c1.92,0.26,3.23,0.16,4.93,0.06c5.12-0.3,10.07-1.31,15.24-1.73c1.89-0.29,3.79-0.28,5.67,0.01" style="fill:none;stroke:#999;stroke-width:3" />
<path d="M2342.32,13.24c0.85,0.85,1.11,2.26,1.11,3.51c0,0.57-0.04,27.2-0.05,42.13c0,4.61-0.01,8.11-0.01,9.38" style="fill:none;stroke:#999;stroke-width:3" />
<path d="M2315.32,15.75c0,1-0.25,1.96-0.88,2.89c-2.32,3.48-5.57,7.98-8.1,11.24c-1.35,1.74-0.47,2.62,1.41,2.19c2.99-0.45,5.99-0.95,9.62-1.45" style="fill:none;stroke:#999;stroke-width:3" />
<path d="M2324.05,21.96c0.07,1.16-0.36,2.11-0.75,2.58c-5.68,6.83-9.29,11.22-15.3,18.44c-1.88,2.26-2.8,3.71,1.07,2.62c5.67-1.6,9.55-2.6,15.14-4.1" style="fill:none;stroke:#999;stroke-width:3" />
<path d="M2322.19,36.43c1.87,1.73,5.09,6.85,5.56,9.54" style="fill:none;stroke:#999;stroke-width:3" />
<path d="M2315.83,46.47c0.85,0.85,0.92,1.78,0.92,3.28c0,3.41,0.03,8.83,0.06,13.25c0.02,2.87,0.03,5.31,0.03,6.5" style="fill:none;stroke:#999;stroke-width:3" />
<path d="M2307.6099999999997,53.66c0.1,1.03-0.13,1.95-0.67,2.75c-1.5,2.56-3.97,6.43-6.17,9.36" style="fill:none;stroke:#999;stroke-width:3" />
<path d="M2322.79,52.34c1.56,2.01,4.73,6.87,5.29,8.88" style="fill:none;stroke:#999;stroke-width:3" />
<path d="M2370.0,14.75c0,1.12-0.04,2.02-0.63,3.06c-1.85,3.24-4.85,8.38-7,11.82c-1,1.61-0.75,2.5,1.27,2.14c2.85-0.51,5.36-0.89,8.98-1.64" style="fill:none;stroke:#999;stroke-width:3" />
<path d="M2381.37,18.36c0.01,0.89-0.39,1.95-0.77,2.48c-5.46,7.64-10.32,13.58-17.03,21.59c-1.41,1.68-1.83,3.09,1.22,2.44c5.22-1.12,10.34-2.12,16.2-3.37" style="fill:none;stroke:#999;stroke-width:3" />
<path d="M2378.06,35.13c1.99,1.84,5.89,8.05,6.39,10.91" style="fill:none;stroke:#999;stroke-width:3" />
<path d="M2371.08,47.04c0.88,0.88,0.92,2.07,0.92,3.23c0,3.43,0,8.31,0,12.23c0,2.62,0,4.82,0,5.88" style="fill:none;stroke:#999;stroke-width:3" />
<path d="M2363.21,53.16c0,1.09-0.4,2.07-0.65,2.47c-1.93,3.11-5.45,7.45-7.96,9.62" style="fill:none;stroke:#999;stroke-width:3" />
<path d="M2378.53,51.31c2.35,2.48,6.38,9.09,7.22,11.57" style="fill:none;stroke:#999;stroke-width:3" />
<path d="M2321.25,74.1c1.01,1.01,1.43,1.98,1.58,3.35c0.74,4.62,1.26,9.26,1.87,14.18c0.26,2.05,0.53,4.16,0.84,6.33" style="fill:none;stroke:#999;stroke-width:3" />
<path d="M2323.39,75.96c13.53-1.24,32.73-2.12,40.36-2.8c3.06-0.27,5.37,1.26,4.63,4.59c-1.15,5.22-1.89,8-3.47,15.02" style="fill:none;stroke:#999;stroke-width:3" />
<path d="M2326.54,95.38c7.12-0.2,21.4-0.89,33.09-1.35c2.82-0.11,5.49-0.21,7.88-0.28" style="fill:none;stroke:black;stroke-width:3" />
<circle cx="2326.54" cy="95.38" r="5" stroke-width="0" fill="#FF2A00" opacity="0.7" />
</svg>