<!-- 08fbf -->
<svg width="763px" height="109px" viewBox="0 0 763px 109px" xmlns="http://www.w3.org/2000/svg" xmlns:xlink="http://www.w3.org/1999/xlink" xml:space="preserve" version="1.1"  baseProfile="full">
<line x1="1" y1="1" x2="762" y2="1" style="stroke:#ddd;stroke-width:2" />
<line x1="1" y1="1" x2="1" y2="108" style="stroke:#ddd;stroke-width:2" />
<line x1="1" y1="108" x2="762" y2="108" style="stroke:#ddd;stroke-width:2" />
<line x1="762" y1="1" x2="762" y2="108" style="stroke:#ddd;stroke-width:2" />
<line x1="109" y1="1" x2="109" y2="108" style="stroke:#ddd;stroke-width:2" />
<line x1="218" y1="1" x2="218" y2="108" style="stroke:#ddd;stroke-width:2" />
<line x1="327" y1="1" x2="327" y2="108" style="stroke:#ddd;stroke-width:2" />
<line x1="436" y1="1" x2="436" y2="108" style="stroke:#ddd;stroke-width:2" />
<line x1="545" y1="1" x2="545" y2="108" style="stroke:#ddd;stroke-width:2" />
<line x1="654" y1="1" x2="654" y2="108" style="stroke:#ddd;stroke-width:2" />
<line x1="1" y1="54" x2="762" y2="54" style="stroke:#ddd;stroke-width:2;stroke-dasharray:3 3" />
<line x1="55" y1="1" x2="55" y2="108" style="stroke:#ddd;stroke-width:2;stroke-dasharray:3 3" />
<line x1="164" y1="1" x2="164" y2="108" style="stroke:#ddd;stroke-width:2;stroke-dasharray:3 3" />
<line x1="273" y1="1" x2="273" y2="108" style="stroke:#ddd;stroke-width:2;stroke-dasharray:3 3" />
<line x1="382" y1="1" x2="382" y2="108" style="stroke:#ddd;stroke-width:2;stroke-dasharray:3 3" />
<line x1="491" y1="1" x2="491" y2="108" style="stroke:#ddd;stroke-width:2;stroke-dasharray:3 3" />
<line x1="600" y1="1" x2="600" y2="108" style="stroke:#ddd;stroke-width:2;stroke-dasharray:3 3" />
<line x1="709" y1="1" x2="709" y2="108" style="stroke:#ddd;stroke-width:2;stroke-dasharray:3 3" />
<path d="M62.12,15.5c0.66,0.39,2.05,2.9,2.18,3.68c0.13,0.78-0.08,46.89-0.22,51.74" style="fill:none;stroke:black;stroke-width:3" />
<circle cx="62.12" cy="15.5" r="5" stroke-width="0" fill="#FF2A00" opacity="0.7" />
<path d="M171.12,15.5c0.66,0.39,2.05,2.9,2.18,3.68c0.13,0.78-0.08,46.89-0.22,51.74" style="fill:none;stroke:#999;stroke-width:3" />
<path d="M153.28,35.84c0.66,0.39,1.32,2.53,1.31,3.31c-0.09,5.35,0.16,22.1-0.67,31.42c-0.16,1.78-0.33,3.49,1.3,3.25c5.85-0.87,30.99-2.98,39.22-3.2" style="fill:none;stroke:black;stroke-width:3" />
<circle cx="153.28" cy="35.84" r="5" stroke-width="0" fill="#FF2A00" opacity="0.7" />
<path d="M280.12,15.5c0.66,0.39,2.05,2.9,2.18,3.68c0.13,0.78-0.08,46.89-0.22,51.74" style="fill:none;stroke:#999;stroke-width:3" />
<path d="M262.28,35.84c0.66,0.39,1.32,2.53,1.31,3.31c-0.09,5.35,0.16,22.1-0.67,31.42c-0.16,1.78-0.33,3.49,1.3,3.25c5.85-0.87,30.99-2.98,39.22-3.2" style="fill:none;stroke:#999;stroke-width:3" />
<path d="M303.19,31.86c0.21,0.53,1.44,3.92,1.41,4.97c-0.2,6.43-0.41,25.43-0.74,37.42" style="fill:none;stroke:black;stroke-width:3" />
<circle cx="303.19" cy="31.86" r="5" stroke-width="0" fill="#FF2A00" opacity="0.7" />
<path d="M389.12,15.5c0.66,0.39,2.05,2.9,2.18,3.68c0.13,0.78-0.08,46.89-0.22,51.74" style="fill:none;stroke:#999;stroke-width:3" />
<path d="M371.28,35.84c0.66,0.39,1.32,2.53,1.31,3.31c-0.09,5.35,0.16,22.1-0.67,31.42c-0.16,1.78-0.33,3.49,1.3,3.25c5.85-0.87,30.99-2.98,39.22-3.2" style="fill:none;stroke:#999;stroke-width:3" />
<path d="M412.19,31.86c0.21,0.53,1.44,3.92,1.41,4.97c-0.2,6.43-0.41,25.43-0.74,37.42" style="fill:none;stroke:#999;stroke-width:3" />
<path d="M348.71,16.5c3.63,1.74,9.38,7.17,10.29,9.88" style="fill:none;stroke:black;stroke-width:3" />
<circle cx="348.71" cy="16.5" r="5" stroke-width="0" fill="#FF2A00" opacity="0.7" />
<path d="M498.12,15.5c0.66,0.39,2.05,2.9,2.18,3.68c0.13,0.78-0.08,46.89-0.22,51.74" style="fill:none;stroke:#999;stroke-width:3" />
<path d="M480.28,35.84c0.66,0.39,1.32,2.53,1.31,3.31c-0.09,5.35,0.16,22.1-0.67,31.42c-0.16,1.78-0.33,3.49,1.3,3.25c5.85-0.87,30.99-2.98,39.22-3.2" style="fill:none;stroke:#999;stroke-width:3" />
<path d="M521.19,31.86c0.21,0.53,1.44,3.92,1.41,4.97c-0.2,6.43-0.41,25.43-0.74,37.42" style="fill:none;stroke:#999;stroke-width:3" />
<path d="M457.71,16.5c3.63,1.74,9.38,7.17,10.29,9.88" style="fill:none;stroke:#999;stroke-width:3" />
<path d="M450.96,39c4.34,0.99,11.21,4.09,12.29,5.63" style="fill:none;stroke:black;stroke-width:3" />
<circle cx="450.96" cy="39.0" r="5" stroke-width="0" fill="#FF2A00" opacity="0.7" />
<path d="M607.12,15.5c0.66,0.39,2.05,2.9,2.18,3.68c0.13,0.78-0.08,46.89-0.22,51.74" style="fill:none;stroke:#999;stroke-width:3" />
<path d="M589.28,35.84c0.66,0.39,1.32,2.53,1.31,3.31c-0.09,5.35,0.16,22.1-0.67,31.42c-0.16,1.78-0.33,3.49,1.3,3.25c5.85-0.87,30.99-2.98,39.22-3.2" style="fill:none;stroke:#999;stroke-width:3" />
<path d="M630.19,31.86c0.21,0.53,1.44,3.92,1.41,4.97c-0.2,6.43-0.41,25.43-0.74,37.42" style="fill:none;stroke:#999;stroke-width:3" />
<path d="M566.71,16.5c3.63,1.74,9.38,7.17,10.29,9.88" style="fill:none;stroke:#999;stroke-width:3" />
<path d="M559.96,39c4.34,0.99,11.21,4.09,12.29,5.63" style="fill:none;stroke:#999;stroke-width:3" />
<path d="M558.5,60.94c2.25,0.85,3.75,0.43,4.75,0.21c1-0.21,8-2.99,9.5-3.42c1.5-0.43,3.75,1.07,2.75,2.35s-4,6.19-4.75,7.26c-0.75,1.07-0.5,2.99,1,4.48s2.75,3.2,3.5,4.48C576.0,77.59 576.0,78.66 574.5,79.73c-1.5,1.07-9,7.04-10.5,7.47" style="fill:none;stroke:black;stroke-width:3" />
<circle cx="558.5" cy="60.94" r="5" stroke-width="0" fill="#FF2A00" opacity="0.7" />
<path d="M716.12,15.5c0.66,0.39,2.05,2.9,2.18,3.68c0.13,0.78-0.08,46.89-0.22,51.74" style="fill:none;stroke:#999;stroke-width:3" />
<path d="M698.28,35.84c0.66,0.39,1.32,2.53,1.31,3.31c-0.09,5.35,0.16,22.1-0.67,31.42c-0.16,1.78-0.33,3.49,1.3,3.25c5.85-0.87,30.99-2.98,39.22-3.2" style="fill:none;stroke:#999;stroke-width:3" />
<path d="M739.19,31.86c0.21,0.53,1.44,3.92,1.41,4.97c-0.2,6.43-0.41,25.43-0.74,37.42" style="fill:none;stroke:#999;stroke-width:3" />
<path d="M675.71,16.5c3.63,1.74,9.38,7.17,10.29,9.88" style="fill:none;stroke:#999;stroke-width:3" />
<path d="M668.96,39c4.34,0.99,11.21,4.09,12.29,5.63" style="fill:none;stroke:#999;stroke-width:3" />
<path d="M667.5,60.94c2.25,0.85,3.75,0.43,4.75,0.21c1-0.21,8-2.99,9.5-3.42c1.5-0.43,3.75,1.07,2.75,2.35s-4,6.19-4.75,7.26c-0.75,1.07-0.5,2.99,1,4.48s2.75,3.2,3.5,4.48C685.0,77.59 685.0,78.66 683.5,79.73c-1.5,1.07-9,7.04-10.5,7.47" style="fill:none;stroke:#999;stroke-width:3" />
<path d="M668.75,88.07c2.96-0.24,8.88-0.85,13.33-0.37c4.44,0.49,29.69,3.76,34.06,4.39C727.98,93.8 737.12,94.29 746.0,93.43" style="fill:none;stroke:black;stroke-width:3" />
<circle cx="668.75" cy="88.07" r="5" stroke-width="0" fill="#FF2A00" opacity="0.7" />
</svg>