<!-- 0904d -->
<svg width="1308px" height="109px" viewBox="0 0 1308px 109px" xmlns="http://www.w3.org/2000/svg" xmlns:xlink="http://www.w3.org/1999/xlink" xml:space="preserve" version="1.1"  baseProfile="full">
<line x1="1" y1="1" x2="1307" y2="1" style="stroke:#ddd;stroke-width:2" />
<line x1="1" y1="1" x2="1" y2="108" style="stroke:#ddd;stroke-width:2" />
<line x1="1" y1="108" x2="1307" y2="108" style="stroke:#ddd;stroke-width:2" />
<line x1="1307" y1="1" x2="1307" y2="108" style="stroke:#ddd;stroke-width:2" />
<line x1="109" y1="1" x2="109" y2="108" style="stroke:#ddd;stroke-width:2" />
<line x1="218" y1="1" x2="218" y2="108" style="stroke:#ddd;stroke-width:2" />
<line x1="327" y1="1" x2="327" y2="108" style="stroke:#ddd;stroke-width:2" />
<line x1="436" y1="1" x2="436" y2="108" style="stroke:#ddd;stroke-width:2" />
<line x1="545" y1="1" x2="545" y2="108" style="stroke:#ddd;stroke-width:2" />
<line x1="654" y1="1" x2="654" y2="108" style="stroke:#ddd;stroke-width:2" />
<line x1="763" y1="1" x2="763" y2="108" style="stroke:#ddd;stroke-width:2" />
<line x1="872" y1="1" x2="872" y2="108" style="stroke:#ddd;stroke-width:2" />
<line x1="981" y1="1" x2="981" y2="108" style="stroke:#ddd;stroke-width:2" />
<line x1="1090" y1="1" x2="1090" y2="108" style="stroke:#ddd;stroke-width:2" />
<line x1="1199" y1="1" x2="1199" y2="108" style="stroke:#ddd;stroke-width:2" />
<line x1="1" y1="54" x2="1307" y2="54" style="stroke:#ddd;stroke-width:2;stroke-dasharray:3 3" />
<line x1="55" y1="1" x2="55" y2="108" style="stroke:#ddd;stroke-width:2;stroke-dasharray:3 3" />
<line x1="164" y1="1" x2="164" y2="108" style="stroke:#ddd;stroke-width:2;stroke-dasharray:3 3" />
<line x1="273" y1="1" x2="273" y2="108" style="stroke:#ddd;stroke-width:2;stroke-dasharray:3 3" />
<line x1="382" y1="1" x2="382" y2="108" style="stroke:#ddd;stroke-width:2;stroke-dasharray:3 3" />
<line x1="491" y1="1" x2="491" y2="108" style="stroke:#ddd;stroke-width:2;stroke-dasharray:3 3" />
<line x1="600" y1="1" x2="600" y2="108" style="stroke:#ddd;stroke-width:2;stroke-dasharray:3 3" />
<line x1="709" y1="1" x2="709" y2="108" style="stroke:#ddd;stroke-width:2;stroke-dasharray:3 3" />
<line x1="818" y1="1" x2="818" y2="108" style="stroke:#ddd;stroke-width:2;stroke-dasharray:3 3" />
<line x1="927" y1="1" x2="927" y2="108" style="stroke:#ddd;stroke-width:2;stroke-dasharray:3 3" />
<line x1="1036" y1="1" x2="1036" y2="108" style="stroke:#ddd;stroke-width:2;stroke-dasharray:3 3" />
<line x1="1145" y1="1" x2="1145" y2="108" style="stroke:#ddd;stroke-width:2;stroke-dasharray:3 3" />
<line x1="1254" y1="1" x2="1254" y2="108" style="stroke:#ddd;stroke-width:2;stroke-dasharray:3 3" />
<path d="M45.97,15.68c1.58,0.57,4.15,0.42,5.79,0.28c7.28-0.6,19.39-2,26.25-2.58c1.88-0.16,3.76-0.39,5.62,0.01" style="fill:none;stroke:black;stroke-width:3" />
<circle cx="45.97" cy="15.68" r="5" stroke-width="0" fill="#FF2A00" opacity="0.7" />
<path d="M154.97,15.68c1.58,0.57,4.15,0.42,5.79,0.28c7.28-0.6,19.39-2,26.25-2.58c1.88-0.16,3.76-0.39,5.62,0.01" style="fill:none;stroke:#999;stroke-width:3" />
<path d="M155.26,28.31c1.49,0.44,2.71,0.6,4,0.47c8.74-0.9,22.43-2.46,29.75-3.53c2.35-0.34,5.67-0.36,4.91,3.23c-0.84,4-1.93,5.6-3.04,9.51" style="fill:none;stroke:black;stroke-width:3" />
<circle cx="155.26" cy="28.31" r="5" stroke-width="0" fill="#FF2A00" opacity="0.7" />
<path d="M263.97,15.68c1.58,0.57,4.15,0.42,5.79,0.28c7.28-0.6,19.39-2,26.25-2.58c1.88-0.16,3.76-0.39,5.62,0.01" style="fill:none;stroke:#999;stroke-width:3" />
<path d="M264.26,28.31c1.49,0.44,2.71,0.6,4,0.47c8.74-0.9,22.43-2.46,29.75-3.53c2.35-0.34,5.67-0.36,4.91,3.23c-0.84,4-1.93,5.6-3.04,9.51" style="fill:none;stroke:#999;stroke-width:3" />
<path d="M267.61,42.38c5.39-0.63,18.93-2.16,29.24-3.15c2.04-0.2,3.88-0.36,5.4-0.48" style="fill:none;stroke:black;stroke-width:3" />
<circle cx="267.61" cy="42.38" r="5" stroke-width="0" fill="#FF2A00" opacity="0.7" />
<path d="M372.97,15.68c1.58,0.57,4.15,0.42,5.79,0.28c7.28-0.6,19.39-2,26.25-2.58c1.88-0.16,3.76-0.39,5.62,0.01" style="fill:none;stroke:#999;stroke-width:3" />
<path d="M373.26,28.31c1.49,0.44,2.71,0.6,4,0.47c8.74-0.9,22.43-2.46,29.75-3.53c2.35-0.34,5.67-0.36,4.91,3.23c-0.84,4-1.93,5.6-3.04,9.51" style="fill:none;stroke:#999;stroke-width:3" />
<path d="M376.61,42.38c5.39-0.63,18.93-2.16,29.24-3.15c2.04-0.2,3.88-0.36,5.4-0.48" style="fill:none;stroke:#999;stroke-width:3" />
<path d="M374.48,29.21c0.91,0.91,1.41,2.38,1.42,3.85c0.13,18.53-4.78,31.87-13.02,39.68" style="fill:none;stroke:black;stroke-width:3" />
<circle cx="374.48" cy="29.21" r="5" stroke-width="0" fill="#FF2A00" opacity="0.7" />
<path d="M481.97,15.68c1.58,0.57,4.15,0.42,5.79,0.28c7.28-0.6,19.39-2,26.25-2.58c1.88-0.16,3.76-0.39,5.62,0.01" style="fill:none;stroke:#999;stroke-width:3" />
<path d="M482.26,28.31c1.49,0.44,2.71,0.6,4,0.47c8.74-0.9,22.43-2.46,29.75-3.53c2.35-0.34,5.67-0.36,4.91,3.23c-0.84,4-1.93,5.6-3.04,9.51" style="fill:none;stroke:#999;stroke-width:3" />
<path d="M485.61,42.38c5.39-0.63,18.93-2.16,29.24-3.15c2.04-0.2,3.88-0.36,5.4-0.48" style="fill:none;stroke:#999;stroke-width:3" />
<path d="M483.48,29.21c0.91,0.91,1.41,2.38,1.42,3.85c0.13,18.53-4.78,31.87-13.02,39.68" style="fill:none;stroke:#999;stroke-width:3" />
<path d="M485.65,53.47c0.81,0.81,1.05,1.78,1.05,3.1c0,0.78-0.09,11.53-0.01,19.05c0.03,3.27-0.06,4.89-0.06,5.38" style="fill:none;stroke:black;stroke-width:3" />
<circle cx="485.65" cy="53.47" r="5" stroke-width="0" fill="#FF2A00" opacity="0.7" />
<path d="M590.97,15.68c1.58,0.57,4.15,0.42,5.79,0.28c7.28-0.6,19.39-2,26.25-2.58c1.88-0.16,3.76-0.39,5.62,0.01" style="fill:none;stroke:#999;stroke-width:3" />
<path d="M591.26,28.31c1.49,0.44,2.71,0.6,4,0.47c8.74-0.9,22.43-2.46,29.75-3.53c2.35-0.34,5.67-0.36,4.91,3.23c-0.84,4-1.93,5.6-3.04,9.51" style="fill:none;stroke:#999;stroke-width:3" />
<path d="M594.61,42.38c5.39-0.63,18.93-2.16,29.24-3.15c2.04-0.2,3.88-0.36,5.4-0.48" style="fill:none;stroke:#999;stroke-width:3" />
<path d="M592.48,29.21c0.91,0.91,1.41,2.38,1.42,3.85c0.13,18.53-4.78,31.87-13.02,39.68" style="fill:none;stroke:#999;stroke-width:3" />
<path d="M594.65,53.47c0.81,0.81,1.05,1.78,1.05,3.1c0,0.78-0.09,11.53-0.01,19.05c0.03,3.27-0.06,4.89-0.06,5.38" style="fill:none;stroke:#999;stroke-width:3" />
<path d="M596.57,54.8c6.18-0.86,25.31-3.33,32.45-4.19c3.29-0.39,5.66,0.64,5.66,3.75c0,6.39-0.05,19.14-0.05,22.51c0,7.63-3.89,3.13-5.25,1.82" style="fill:none;stroke:black;stroke-width:3" />
<circle cx="596.57" cy="54.8" r="5" stroke-width="0" fill="#FF2A00" opacity="0.7" />
<path d="M699.97,15.68c1.58,0.57,4.15,0.42,5.79,0.28c7.28-0.6,19.39-2,26.25-2.58c1.88-0.16,3.76-0.39,5.62,0.01" style="fill:none;stroke:#999;stroke-width:3" />
<path d="M700.26,28.31c1.49,0.44,2.71,0.6,4,0.47c8.74-0.9,22.43-2.46,29.75-3.53c2.35-0.34,5.67-0.36,4.91,3.23c-0.84,4-1.93,5.6-3.04,9.51" style="fill:none;stroke:#999;stroke-width:3" />
<path d="M703.61,42.38c5.39-0.63,18.93-2.16,29.24-3.15c2.04-0.2,3.88-0.36,5.4-0.48" style="fill:none;stroke:#999;stroke-width:3" />
<path d="M701.48,29.21c0.91,0.91,1.41,2.38,1.42,3.85c0.13,18.53-4.78,31.87-13.02,39.68" style="fill:none;stroke:#999;stroke-width:3" />
<path d="M703.65,53.47c0.81,0.81,1.05,1.78,1.05,3.1c0,0.78-0.09,11.53-0.01,19.05c0.03,3.27-0.06,4.89-0.06,5.38" style="fill:none;stroke:#999;stroke-width:3" />
<path d="M705.57,54.8c6.18-0.86,25.31-3.33,32.45-4.19c3.29-0.39,5.66,0.64,5.66,3.75c0,6.39-0.05,19.14-0.05,22.51c0,7.63-3.89,3.13-5.25,1.82" style="fill:none;stroke:#999;stroke-width:3" />
<path d="M706.0,66.75c6.75-0.88,25.75-3.38,36.55-3.85" style="fill:none;stroke:black;stroke-width:3" />
<circle cx="706.0" cy="66.75" r="5" stroke-width="0" fill="#FF2A00" opacity="0.7" />
<path d="M808.97,15.68c1.58,0.57,4.15,0.42,5.79,0.28c7.28-0.6,19.39-2,26.25-2.58c1.88-0.16,3.76-0.39,5.62,0.01" style="fill:none;stroke:#999;stroke-width:3" />
<path d="M809.26,28.31c1.49,0.44,2.71,0.6,4,0.47c8.74-0.9,22.43-2.46,29.75-3.53c2.35-0.34,5.67-0.36,4.91,3.23c-0.84,4-1.93,5.6-3.04,9.51" style="fill:none;stroke:#999;stroke-width:3" />
<path d="M812.61,42.38c5.39-0.63,18.93-2.16,29.24-3.15c2.04-0.2,3.88-0.36,5.4-0.48" style="fill:none;stroke:#999;stroke-width:3" />
<path d="M810.48,29.21c0.91,0.91,1.41,2.38,1.42,3.85c0.13,18.53-4.78,31.87-13.02,39.68" style="fill:none;stroke:#999;stroke-width:3" />
<path d="M812.65,53.47c0.81,0.81,1.05,1.78,1.05,3.1c0,0.78-0.09,11.53-0.01,19.05c0.03,3.27-0.06,4.89-0.06,5.38" style="fill:none;stroke:#999;stroke-width:3" />
<path d="M814.57,54.8c6.18-0.86,25.31-3.33,32.45-4.19c3.29-0.39,5.66,0.64,5.66,3.75c0,6.39-0.05,19.14-0.05,22.51c0,7.63-3.89,3.13-5.25,1.82" style="fill:none;stroke:#999;stroke-width:3" />
<path d="M815.0,66.75c6.75-0.88,25.75-3.38,36.55-3.85" style="fill:none;stroke:#999;stroke-width:3" />
<path d="M824.68,55.79c0.7,0.7,0.89,1.71,0.89,2.79c0,0.31,0.06,10.94-0.03,17.67c-0.04,2.52,0.01,3.44-0.04,4.12" style="fill:none;stroke:black;stroke-width:3" />
<circle cx="824.68" cy="55.79" r="5" stroke-width="0" fill="#FF2A00" opacity="0.7" />
<path d="M917.97,15.68c1.58,0.57,4.15,0.42,5.79,0.28c7.28-0.6,19.39-2,26.25-2.58c1.88-0.16,3.76-0.39,5.62,0.01" style="fill:none;stroke:#999;stroke-width:3" />
<path d="M918.26,28.31c1.49,0.44,2.71,0.6,4,0.47c8.74-0.9,22.43-2.46,29.75-3.53c2.35-0.34,5.67-0.36,4.91,3.23c-0.84,4-1.93,5.6-3.04,9.51" style="fill:none;stroke:#999;stroke-width:3" />
<path d="M921.61,42.38c5.39-0.63,18.93-2.16,29.24-3.15c2.04-0.2,3.88-0.36,5.4-0.48" style="fill:none;stroke:#999;stroke-width:3" />
<path d="M919.48,29.21c0.91,0.91,1.41,2.38,1.42,3.85c0.13,18.53-4.78,31.87-13.02,39.68" style="fill:none;stroke:#999;stroke-width:3" />
<path d="M921.65,53.47c0.81,0.81,1.05,1.78,1.05,3.1c0,0.78-0.09,11.53-0.01,19.05c0.03,3.27-0.06,4.89-0.06,5.38" style="fill:none;stroke:#999;stroke-width:3" />
<path d="M923.57,54.8c6.18-0.86,25.31-3.33,32.45-4.19c3.29-0.39,5.66,0.64,5.66,3.75c0,6.39-0.05,19.14-0.05,22.51c0,7.63-3.89,3.13-5.25,1.82" style="fill:none;stroke:#999;stroke-width:3" />
<path d="M924.0,66.75c6.75-0.88,25.75-3.38,36.55-3.85" style="fill:none;stroke:#999;stroke-width:3" />
<path d="M933.68,55.79c0.7,0.7,0.89,1.71,0.89,2.79c0,0.31,0.06,10.94-0.03,17.67c-0.04,2.52,0.01,3.44-0.04,4.12" style="fill:none;stroke:#999;stroke-width:3" />
<path d="M945.5,54.23c0.76,0.76,1.14,1.64,1.14,2.54c0,0.22,0.07,11.11,0.09,17.72c0.01,2.77,0.01,4.79,0,4.98" style="fill:none;stroke:black;stroke-width:3" />
<circle cx="945.5" cy="54.23" r="5" stroke-width="0" fill="#FF2A00" opacity="0.7" />
<path d="M1026.97,15.68c1.58,0.57,4.15,0.42,5.79,0.28c7.28-0.6,19.39-2,26.25-2.58c1.88-0.16,3.76-0.39,5.62,0.01" style="fill:none;stroke:#999;stroke-width:3" />
<path d="M1027.26,28.31c1.49,0.44,2.71,0.6,4,0.47c8.74-0.9,22.43-2.46,29.75-3.53c2.35-0.34,5.67-0.36,4.91,3.23c-0.84,4-1.93,5.6-3.04,9.51" style="fill:none;stroke:#999;stroke-width:3" />
<path d="M1030.6100000000001,42.38c5.39-0.63,18.93-2.16,29.24-3.15c2.04-0.2,3.88-0.36,5.4-0.48" style="fill:none;stroke:#999;stroke-width:3" />
<path d="M1028.48,29.21c0.91,0.91,1.41,2.38,1.42,3.85c0.13,18.53-4.78,31.87-13.02,39.68" style="fill:none;stroke:#999;stroke-width:3" />
<path d="M1030.65,53.47c0.81,0.81,1.05,1.78,1.05,3.1c0,0.78-0.09,11.53-0.01,19.05c0.03,3.27-0.06,4.89-0.06,5.38" style="fill:none;stroke:#999;stroke-width:3" />
<path d="M1032.5700000000002,54.8c6.18-0.86,25.31-3.33,32.45-4.19c3.29-0.39,5.66,0.64,5.66,3.75c0,6.39-0.05,19.14-0.05,22.51c0,7.63-3.89,3.13-5.25,1.82" style="fill:none;stroke:#999;stroke-width:3" />
<path d="M1033.0,66.75c6.75-0.88,25.75-3.38,36.55-3.85" style="fill:none;stroke:#999;stroke-width:3" />
<path d="M1042.6799999999998,55.79c0.7,0.7,0.89,1.71,0.89,2.79c0,0.31,0.06,10.94-0.03,17.67c-0.04,2.52,0.01,3.44-0.04,4.12" style="fill:none;stroke:#999;stroke-width:3" />
<path d="M1054.5,54.23c0.76,0.76,1.14,1.64,1.14,2.54c0,0.22,0.07,11.11,0.09,17.72c0.01,2.77,0.01,4.79,0,4.98" style="fill:none;stroke:#999;stroke-width:3" />
<path d="M997.71,21.5C1001.69,22.98 1008.0,27.58 1009.0,29.88" style="fill:none;stroke:black;stroke-width:3" />
<circle cx="997.71" cy="21.5" r="5" stroke-width="0" fill="#FF2A00" opacity="0.7" />
<path d="M1135.97,15.68c1.58,0.57,4.15,0.42,5.79,0.28c7.28-0.6,19.39-2,26.25-2.58c1.88-0.16,3.76-0.39,5.62,0.01" style="fill:none;stroke:#999;stroke-width:3" />
<path d="M1136.26,28.31c1.49,0.44,2.71,0.6,4,0.47c8.74-0.9,22.43-2.46,29.75-3.53c2.35-0.34,5.67-0.36,4.91,3.23c-0.84,4-1.93,5.6-3.04,9.51" style="fill:none;stroke:#999;stroke-width:3" />
<path d="M1139.6100000000001,42.38c5.39-0.63,18.93-2.16,29.24-3.15c2.04-0.2,3.88-0.36,5.4-0.48" style="fill:none;stroke:#999;stroke-width:3" />
<path d="M1137.48,29.21c0.91,0.91,1.41,2.38,1.42,3.85c0.13,18.53-4.78,31.87-13.02,39.68" style="fill:none;stroke:#999;stroke-width:3" />
<path d="M1139.65,53.47c0.81,0.81,1.05,1.78,1.05,3.1c0,0.78-0.09,11.53-0.01,19.05c0.03,3.27-0.06,4.89-0.06,5.38" style="fill:none;stroke:#999;stroke-width:3" />
<path d="M1141.5700000000002,54.8c6.18-0.86,25.31-3.33,32.45-4.19c3.29-0.39,5.66,0.64,5.66,3.75c0,6.39-0.05,19.14-0.05,22.51c0,7.63-3.89,3.13-5.25,1.82" style="fill:none;stroke:#999;stroke-width:3" />
<path d="M1142.0,66.75c6.75-0.88,25.75-3.38,36.55-3.85" style="fill:none;stroke:#999;stroke-width:3" />
<path d="M1151.6799999999998,55.79c0.7,0.7,0.89,1.71,0.89,2.79c0,0.31,0.06,10.94-0.03,17.67c-0.04,2.52,0.01,3.44-0.04,4.12" style="fill:none;stroke:#999;stroke-width:3" />
<path d="M1163.5,54.23c0.76,0.76,1.14,1.64,1.14,2.54c0,0.22,0.07,11.11,0.09,17.72c0.01,2.77,0.01,4.79,0,4.98" style="fill:none;stroke:#999;stroke-width:3" />
<path d="M1106.71,21.5C1110.69,22.98 1117.0,27.58 1118.0,29.88" style="fill:none;stroke:#999;stroke-width:3" />
<path d="M1102.75,50.39c2.25,0.91,3.78,0.56,4.75,0.23c2.5-0.87,8.62-3.49,10.75-4.37c1.45-0.6,3,1.38,2,2.74C1110.0,62.88 1109.62,57 1120.0,66.2c1.16,1.03,1,2.74-0.5,3.88S1108.0,78.5 1103.5,81.75" style="fill:none;stroke:black;stroke-width:3" />
<circle cx="1102.75" cy="50.39" r="5" stroke-width="0" fill="#FF2A00" opacity="0.7" />
<path d="M1244.97,15.68c1.58,0.57,4.15,0.42,5.79,0.28c7.28-0.6,19.39-2,26.25-2.58c1.88-0.16,3.76-0.39,5.62,0.01" style="fill:none;stroke:#999;stroke-width:3" />
<path d="M1245.26,28.31c1.49,0.44,2.71,0.6,4,0.47c8.74-0.9,22.43-2.46,29.75-3.53c2.35-0.34,5.67-0.36,4.91,3.23c-0.84,4-1.93,5.6-3.04,9.51" style="fill:none;stroke:#999;stroke-width:3" />
<path d="M1248.6100000000001,42.38c5.39-0.63,18.93-2.16,29.24-3.15c2.04-0.2,3.88-0.36,5.4-0.48" style="fill:none;stroke:#999;stroke-width:3" />
<path d="M1246.48,29.21c0.91,0.91,1.41,2.38,1.42,3.85c0.13,18.53-4.78,31.87-13.02,39.68" style="fill:none;stroke:#999;stroke-width:3" />
<path d="M1248.65,53.47c0.81,0.81,1.05,1.78,1.05,3.1c0,0.78-0.09,11.53-0.01,19.05c0.03,3.27-0.06,4.89-0.06,5.38" style="fill:none;stroke:#999;stroke-width:3" />
<path d="M1250.5700000000002,54.8c6.18-0.86,25.31-3.33,32.45-4.19c3.29-0.39,5.66,0.64,5.66,3.75c0,6.39-0.05,19.14-0.05,22.51c0,7.63-3.89,3.13-5.25,1.82" style="fill:none;stroke:#999;stroke-width:3" />
<path d="M1251.0,66.75c6.75-0.88,25.75-3.38,36.55-3.85" style="fill:none;stroke:#999;stroke-width:3" />
<path d="M1260.6799999999998,55.79c0.7,0.7,0.89,1.71,0.89,2.79c0,0.31,0.06,10.94-0.03,17.67c-0.04,2.52,0.01,3.44-0.04,4.12" style="fill:none;stroke:#999;stroke-width:3" />
<path d="M1272.5,54.23c0.76,0.76,1.14,1.64,1.14,2.54c0,0.22,0.07,11.11,0.09,17.72c0.01,2.77,0.01,4.79,0,4.98" style="fill:none;stroke:#999;stroke-width:3" />
<path d="M1215.71,21.5C1219.69,22.98 1226.0,27.58 1227.0,29.88" style="fill:none;stroke:#999;stroke-width:3" />
<path d="M1211.75,50.39c2.25,0.91,3.78,0.56,4.75,0.23c2.5-0.87,8.62-3.49,10.75-4.37c1.45-0.6,3,1.38,2,2.74C1219.0,62.88 1218.62,57 1229.0,66.2c1.16,1.03,1,2.74-0.5,3.88S1217.0,78.5 1212.5,81.75" style="fill:none;stroke:#999;stroke-width:3" />
<path d="M1209.25,82.96c4.12-0.83,8.7-0.67,14.41-0.22c9.72,0.76,26.89,5.9,36.81,8.65C1273.5,95 1277.0,95.5 1288.0,96.53" style="fill:none;stroke:black;stroke-width:3" />
<circle cx="1209.25" cy="82.96" r="5" stroke-width="0" fill="#FF2A00" opacity="0.7" />
</svg>