<!-- 09051 -->
<svg width="1417px" height="109px" viewBox="0 0 1417px 109px" xmlns="http://www.w3.org/2000/svg" xmlns:xlink="http://www.w3.org/1999/xlink" xml:space="preserve" version="1.1"  baseProfile="full">
<line x1="1" y1="1" x2="1416" y2="1" style="stroke:#ddd;stroke-width:2" />
<line x1="1" y1="1" x2="1" y2="108" style="stroke:#ddd;stroke-width:2" />
<line x1="1" y1="108" x2="1416" y2="108" style="stroke:#ddd;stroke-width:2" />
<line x1="1416" y1="1" x2="1416" y2="108" style="stroke:#ddd;stroke-width:2" />
<line x1="109" y1="1" x2="109" y2="108" style="stroke:#ddd;stroke-width:2" />
<line x1="218" y1="1" x2="218" y2="108" style="stroke:#ddd;stroke-width:2" />
<line x1="327" y1="1" x2="327" y2="108" style="stroke:#ddd;stroke-width:2" />
<line x1="436" y1="1" x2="436" y2="108" style="stroke:#ddd;stroke-width:2" />
<line x1="545" y1="1" x2="545" y2="108" style="stroke:#ddd;stroke-width:2" />
<line x1="654" y1="1" x2="654" y2="108" style="stroke:#ddd;stroke-width:2" />
<line x1="763" y1="1" x2="763" y2="108" style="stroke:#ddd;stroke-width:2" />
<line x1="872" y1="1" x2="872" y2="108" style="stroke:#ddd;stroke-width:2" />
<line x1="981" y1="1" x2="981" y2="108" style="stroke:#ddd;stroke-width:2" />
<line x1="1090" y1="1" x2="1090" y2="108" style="stroke:#ddd;stroke-width:2" />
<line x1="1199" y1="1" x2="1199" y2="108" style="stroke:#ddd;stroke-width:2" />
<line x1="1308" y1="1" x2="1308" y2="108" style="stroke:#ddd;stroke-width:2" />
<line x1="1" y1="54" x2="1416" y2="54" style="stroke:#ddd;stroke-width:2;stroke-dasharray:3 3" />
<line x1="55" y1="1" x2="55" y2="108" style="stroke:#ddd;stroke-width:2;stroke-dasharray:3 3" />
<line x1="164" y1="1" x2="164" y2="108" style="stroke:#ddd;stroke-width:2;stroke-dasharray:3 3" />
<line x1="273" y1="1" x2="273" y2="108" style="stroke:#ddd;stroke-width:2;stroke-dasharray:3 3" />
<line x1="382" y1="1" x2="382" y2="108" style="stroke:#ddd;stroke-width:2;stroke-dasharray:3 3" />
<line x1="491" y1="1" x2="491" y2="108" style="stroke:#ddd;stroke-width:2;stroke-dasharray:3 3" />
<line x1="600" y1="1" x2="600" y2="108" style="stroke:#ddd;stroke-width:2;stroke-dasharray:3 3" />
<line x1="709" y1="1" x2="709" y2="108" style="stroke:#ddd;stroke-width:2;stroke-dasharray:3 3" />
<line x1="818" y1="1" x2="818" y2="108" style="stroke:#ddd;stroke-width:2;stroke-dasharray:3 3" />
<line x1="927" y1="1" x2="927" y2="108" style="stroke:#ddd;stroke-width:2;stroke-dasharray:3 3" />
<line x1="1036" y1="1" x2="1036" y2="108" style="stroke:#ddd;stroke-width:2;stroke-dasharray:3 3" />
<line x1="1145" y1="1" x2="1145" y2="108" style="stroke:#ddd;stroke-width:2;stroke-dasharray:3 3" />
<line x1="1254" y1="1" x2="1254" y2="108" style="stroke:#ddd;stroke-width:2;stroke-dasharray:3 3" />
<line x1="1363" y1="1" x2="1363" y2="108" style="stroke:#ddd;stroke-width:2;stroke-dasharray:3 3" />
<path d="M67.01,10.25c0.23,0.39,0.27,0.86,0.21,1.19c-0.33,1.99-3.15,6.74-5.72,9.4" style="fill:none;stroke:black;stroke-width:3" />
<circle cx="67.01" cy="10.25" r="5" stroke-width="0" fill="#FF2A00" opacity="0.7" />
<path d="M176.01,10.25c0.23,0.39,0.27,0.86,0.21,1.19c-0.33,1.99-3.15,6.74-5.72,9.4" style="fill:none;stroke:#999;stroke-width:3" />
<path d="M156.19,20.74c0.67,0.6,1.2,1.72,1.34,2.5c0.8,4.39,3.44,15.83,3.71,19.79" style="fill:none;stroke:black;stroke-width:3" />
<circle cx="156.19" cy="20.74" r="5" stroke-width="0" fill="#FF2A00" opacity="0.7" />
<path d="M285.01,10.25c0.23,0.39,0.27,0.86,0.21,1.19c-0.33,1.99-3.15,6.74-5.72,9.4" style="fill:none;stroke:#999;stroke-width:3" />
<path d="M265.19,20.74c0.67,0.6,1.2,1.72,1.34,2.5c0.8,4.39,3.44,15.83,3.71,19.79" style="fill:none;stroke:#999;stroke-width:3" />
<path d="M266.43,22.66c9.32-1.09,31.33-2.98,34.77-3.38c1.65-0.19,2.72,1.6,2.36,3.26c-0.8,3.69-2.14,11.65-3.74,18.72" style="fill:none;stroke:black;stroke-width:3" />
<circle cx="266.43" cy="22.66" r="5" stroke-width="0" fill="#FF2A00" opacity="0.7" />
<path d="M394.01,10.25c0.23,0.39,0.27,0.86,0.21,1.19c-0.33,1.99-3.15,6.74-5.72,9.4" style="fill:none;stroke:#999;stroke-width:3" />
<path d="M374.19,20.74c0.67,0.6,1.2,1.72,1.34,2.5c0.8,4.39,3.44,15.83,3.71,19.79" style="fill:none;stroke:#999;stroke-width:3" />
<path d="M375.43,22.66c9.32-1.09,31.33-2.98,34.77-3.38c1.65-0.19,2.72,1.6,2.36,3.26c-0.8,3.69-2.14,11.65-3.74,18.72" style="fill:none;stroke:#999;stroke-width:3" />
<path d="M377.81,32.71c8.47-1.48,27.08-3.08,32.87-3.08" style="fill:none;stroke:black;stroke-width:3" />
<circle cx="377.81" cy="32.71" r="5" stroke-width="0" fill="#FF2A00" opacity="0.7" />
<path d="M503.01,10.25c0.23,0.39,0.27,0.86,0.21,1.19c-0.33,1.99-3.15,6.74-5.72,9.4" style="fill:none;stroke:#999;stroke-width:3" />
<path d="M483.19,20.74c0.67,0.6,1.2,1.72,1.34,2.5c0.8,4.39,3.44,15.83,3.71,19.79" style="fill:none;stroke:#999;stroke-width:3" />
<path d="M484.43,22.66c9.32-1.09,31.33-2.98,34.77-3.38c1.65-0.19,2.72,1.6,2.36,3.26c-0.8,3.69-2.14,11.65-3.74,18.72" style="fill:none;stroke:#999;stroke-width:3" />
<path d="M486.81,32.71c8.47-1.48,27.08-3.08,32.87-3.08" style="fill:none;stroke:#999;stroke-width:3" />
<path d="M487.93,41.44c9.68-0.68,21.68-2.27,29.67-2.48" style="fill:none;stroke:black;stroke-width:3" />
<circle cx="487.93" cy="41.44" r="5" stroke-width="0" fill="#FF2A00" opacity="0.7" />
<path d="M612.01,10.25c0.23,0.39,0.27,0.86,0.21,1.19c-0.33,1.99-3.15,6.74-5.72,9.4" style="fill:none;stroke:#999;stroke-width:3" />
<path d="M592.19,20.74c0.67,0.6,1.2,1.72,1.34,2.5c0.8,4.39,3.44,15.83,3.71,19.79" style="fill:none;stroke:#999;stroke-width:3" />
<path d="M593.4300000000001,22.66c9.32-1.09,31.33-2.98,34.77-3.38c1.65-0.19,2.72,1.6,2.36,3.26c-0.8,3.69-2.14,11.65-3.74,18.72" style="fill:none;stroke:#999;stroke-width:3" />
<path d="M595.81,32.71c8.47-1.48,27.08-3.08,32.87-3.08" style="fill:none;stroke:#999;stroke-width:3" />
<path d="M596.9300000000001,41.44c9.68-0.68,21.68-2.27,29.67-2.48" style="fill:none;stroke:#999;stroke-width:3" />
<path d="M590.03,51.86c0.85,0.46,1.97,0.64,4.47,0.53c4.03-0.17,25.69-1.42,35.29-1.91c1.31-0.07,2.5,0.09,3.58,0.48" style="fill:none;stroke:black;stroke-width:3" />
<circle cx="590.03" cy="51.86" r="5" stroke-width="0" fill="#FF2A00" opacity="0.7" />
<path d="M721.01,10.25c0.23,0.39,0.27,0.86,0.21,1.19c-0.33,1.99-3.15,6.74-5.72,9.4" style="fill:none;stroke:#999;stroke-width:3" />
<path d="M701.19,20.74c0.67,0.6,1.2,1.72,1.34,2.5c0.8,4.39,3.44,15.83,3.71,19.79" style="fill:none;stroke:#999;stroke-width:3" />
<path d="M702.4300000000001,22.66c9.32-1.09,31.33-2.98,34.77-3.38c1.65-0.19,2.72,1.6,2.36,3.26c-0.8,3.69-2.14,11.65-3.74,18.72" style="fill:none;stroke:#999;stroke-width:3" />
<path d="M704.81,32.71c8.47-1.48,27.08-3.08,32.87-3.08" style="fill:none;stroke:#999;stroke-width:3" />
<path d="M705.9300000000001,41.44c9.68-0.68,21.68-2.27,29.67-2.48" style="fill:none;stroke:#999;stroke-width:3" />
<path d="M699.03,51.86c0.85,0.46,1.97,0.64,4.47,0.53c4.03-0.17,25.69-1.42,35.29-1.91c1.31-0.07,2.5,0.09,3.58,0.48" style="fill:none;stroke:#999;stroke-width:3" />
<path d="M720.25,53.33c1.16,1.88,1.16,3.01,1.16,4.52c0,4.15-0.07,17.65-0.07,22.33" style="fill:none;stroke:black;stroke-width:3" />
<circle cx="720.25" cy="53.33" r="5" stroke-width="0" fill="#FF2A00" opacity="0.7" />
<path d="M830.01,10.25c0.23,0.39,0.27,0.86,0.21,1.19c-0.33,1.99-3.15,6.74-5.72,9.4" style="fill:none;stroke:#999;stroke-width:3" />
<path d="M810.19,20.74c0.67,0.6,1.2,1.72,1.34,2.5c0.8,4.39,3.44,15.83,3.71,19.79" style="fill:none;stroke:#999;stroke-width:3" />
<path d="M811.4300000000001,22.66c9.32-1.09,31.33-2.98,34.77-3.38c1.65-0.19,2.72,1.6,2.36,3.26c-0.8,3.69-2.14,11.65-3.74,18.72" style="fill:none;stroke:#999;stroke-width:3" />
<path d="M813.81,32.71c8.47-1.48,27.08-3.08,32.87-3.08" style="fill:none;stroke:#999;stroke-width:3" />
<path d="M814.9300000000001,41.44c9.68-0.68,21.68-2.27,29.67-2.48" style="fill:none;stroke:#999;stroke-width:3" />
<path d="M808.03,51.86c0.85,0.46,1.97,0.64,4.47,0.53c4.03-0.17,25.69-1.42,35.29-1.91c1.31-0.07,2.5,0.09,3.58,0.48" style="fill:none;stroke:#999;stroke-width:3" />
<path d="M829.25,53.33c1.16,1.88,1.16,3.01,1.16,4.52c0,4.15-0.07,17.65-0.07,22.33" style="fill:none;stroke:#999;stroke-width:3" />
<path d="M811.43,66.01c0.7,0.51,3.02,0.75,3.74,0.72c7.58-0.23,17.98-0.75,26.77-1.66c0.88-0.09,2.81-0.21,4.12,0.24" style="fill:none;stroke:black;stroke-width:3" />
<circle cx="811.43" cy="66.01" r="5" stroke-width="0" fill="#FF2A00" opacity="0.7" />
<path d="M939.01,10.25c0.23,0.39,0.27,0.86,0.21,1.19c-0.33,1.99-3.15,6.74-5.72,9.4" style="fill:none;stroke:#999;stroke-width:3" />
<path d="M919.19,20.74c0.67,0.6,1.2,1.72,1.34,2.5c0.8,4.39,3.44,15.83,3.71,19.79" style="fill:none;stroke:#999;stroke-width:3" />
<path d="M920.4300000000001,22.66c9.32-1.09,31.33-2.98,34.77-3.38c1.65-0.19,2.72,1.6,2.36,3.26c-0.8,3.69-2.14,11.65-3.74,18.72" style="fill:none;stroke:#999;stroke-width:3" />
<path d="M922.81,32.71c8.47-1.48,27.08-3.08,32.87-3.08" style="fill:none;stroke:#999;stroke-width:3" />
<path d="M923.9300000000001,41.44c9.68-0.68,21.68-2.27,29.67-2.48" style="fill:none;stroke:#999;stroke-width:3" />
<path d="M917.03,51.86c0.85,0.46,1.97,0.64,4.47,0.53c4.03-0.17,25.69-1.42,35.29-1.91c1.31-0.07,2.5,0.09,3.58,0.48" style="fill:none;stroke:#999;stroke-width:3" />
<path d="M938.25,53.33c1.16,1.88,1.16,3.01,1.16,4.52c0,4.15-0.07,17.65-0.07,22.33" style="fill:none;stroke:#999;stroke-width:3" />
<path d="M920.43,66.01c0.7,0.51,3.02,0.75,3.74,0.72c7.58-0.23,17.98-0.75,26.77-1.66c0.88-0.09,2.81-0.21,4.12,0.24" style="fill:none;stroke:#999;stroke-width:3" />
<path d="M913.83,81.53c0.63,0.28,3.93,0.56,5,0.47c12.85-1.15,26.67-2.5,41.54-2.74c2.7-0.04,4.63-0.02,6.8,0.5" style="fill:none;stroke:black;stroke-width:3" />
<circle cx="913.83" cy="81.53" r="5" stroke-width="0" fill="#FF2A00" opacity="0.7" />
<path d="M1048.01,10.25c0.23,0.39,0.27,0.86,0.21,1.19c-0.33,1.99-3.15,6.74-5.72,9.4" style="fill:none;stroke:#999;stroke-width:3" />
<path d="M1028.19,20.74c0.67,0.6,1.2,1.72,1.34,2.5c0.8,4.39,3.44,15.83,3.71,19.79" style="fill:none;stroke:#999;stroke-width:3" />
<path d="M1029.43,22.66c9.32-1.09,31.33-2.98,34.77-3.38c1.65-0.19,2.72,1.6,2.36,3.26c-0.8,3.69-2.14,11.65-3.74,18.72" style="fill:none;stroke:#999;stroke-width:3" />
<path d="M1031.81,32.71c8.47-1.48,27.08-3.08,32.87-3.08" style="fill:none;stroke:#999;stroke-width:3" />
<path d="M1032.93,41.44c9.68-0.68,21.68-2.27,29.67-2.48" style="fill:none;stroke:#999;stroke-width:3" />
<path d="M1026.03,51.86c0.85,0.46,1.97,0.64,4.47,0.53c4.03-0.17,25.69-1.42,35.29-1.91c1.31-0.07,2.5,0.09,3.58,0.48" style="fill:none;stroke:#999;stroke-width:3" />
<path d="M1047.25,53.33c1.16,1.88,1.16,3.01,1.16,4.52c0,4.15-0.07,17.65-0.07,22.33" style="fill:none;stroke:#999;stroke-width:3" />
<path d="M1029.4299999999998,66.01c0.7,0.51,3.02,0.75,3.74,0.72c7.58-0.23,17.98-0.75,26.77-1.66c0.88-0.09,2.81-0.21,4.12,0.24" style="fill:none;stroke:#999;stroke-width:3" />
<path d="M1022.83,81.53c0.63,0.28,3.93,0.56,5,0.47c12.85-1.15,26.67-2.5,41.54-2.74c2.7-0.04,4.63-0.02,6.8,0.5" style="fill:none;stroke:#999;stroke-width:3" />
<path d="M1000.71,12.75c4.16,1.7,10.75,6.99,11.79,9.63" style="fill:none;stroke:black;stroke-width:3" />
<circle cx="1000.71" cy="12.75" r="5" stroke-width="0" fill="#FF2A00" opacity="0.7" />
<path d="M1157.01,10.25c0.23,0.39,0.27,0.86,0.21,1.19c-0.33,1.99-3.15,6.74-5.72,9.4" style="fill:none;stroke:#999;stroke-width:3" />
<path d="M1137.19,20.74c0.67,0.6,1.2,1.72,1.34,2.5c0.8,4.39,3.44,15.83,3.71,19.79" style="fill:none;stroke:#999;stroke-width:3" />
<path d="M1138.43,22.66c9.32-1.09,31.33-2.98,34.77-3.38c1.65-0.19,2.72,1.6,2.36,3.26c-0.8,3.69-2.14,11.65-3.74,18.72" style="fill:none;stroke:#999;stroke-width:3" />
<path d="M1140.81,32.71c8.47-1.48,27.08-3.08,32.87-3.08" style="fill:none;stroke:#999;stroke-width:3" />
<path d="M1141.93,41.44c9.68-0.68,21.68-2.27,29.67-2.48" style="fill:none;stroke:#999;stroke-width:3" />
<path d="M1135.03,51.86c0.85,0.46,1.97,0.64,4.47,0.53c4.03-0.17,25.69-1.42,35.29-1.91c1.31-0.07,2.5,0.09,3.58,0.48" style="fill:none;stroke:#999;stroke-width:3" />
<path d="M1156.25,53.33c1.16,1.88,1.16,3.01,1.16,4.52c0,4.15-0.07,17.65-0.07,22.33" style="fill:none;stroke:#999;stroke-width:3" />
<path d="M1138.4299999999998,66.01c0.7,0.51,3.02,0.75,3.74,0.72c7.58-0.23,17.98-0.75,26.77-1.66c0.88-0.09,2.81-0.21,4.12,0.24" style="fill:none;stroke:#999;stroke-width:3" />
<path d="M1131.83,81.53c0.63,0.28,3.93,0.56,5,0.47c12.85-1.15,26.67-2.5,41.54-2.74c2.7-0.04,4.63-0.02,6.8,0.5" style="fill:none;stroke:#999;stroke-width:3" />
<path d="M1109.71,12.75c4.16,1.7,10.75,6.99,11.79,9.63" style="fill:none;stroke:#999;stroke-width:3" />
<path d="M1104.21,34.25c4.78,1.57,12.35,6.45,13.54,8.88" style="fill:none;stroke:black;stroke-width:3" />
<circle cx="1104.21" cy="34.25" r="5" stroke-width="0" fill="#FF2A00" opacity="0.7" />
<path d="M1266.01,10.25c0.23,0.39,0.27,0.86,0.21,1.19c-0.33,1.99-3.15,6.74-5.72,9.4" style="fill:none;stroke:#999;stroke-width:3" />
<path d="M1246.19,20.74c0.67,0.6,1.2,1.72,1.34,2.5c0.8,4.39,3.44,15.83,3.71,19.79" style="fill:none;stroke:#999;stroke-width:3" />
<path d="M1247.43,22.66c9.32-1.09,31.33-2.98,34.77-3.38c1.65-0.19,2.72,1.6,2.36,3.26c-0.8,3.69-2.14,11.65-3.74,18.72" style="fill:none;stroke:#999;stroke-width:3" />
<path d="M1249.81,32.71c8.47-1.48,27.08-3.08,32.87-3.08" style="fill:none;stroke:#999;stroke-width:3" />
<path d="M1250.93,41.44c9.68-0.68,21.68-2.27,29.67-2.48" style="fill:none;stroke:#999;stroke-width:3" />
<path d="M1244.03,51.86c0.85,0.46,1.97,0.64,4.47,0.53c4.03-0.17,25.69-1.42,35.29-1.91c1.31-0.07,2.5,0.09,3.58,0.48" style="fill:none;stroke:#999;stroke-width:3" />
<path d="M1265.25,53.33c1.16,1.88,1.16,3.01,1.16,4.52c0,4.15-0.07,17.65-0.07,22.33" style="fill:none;stroke:#999;stroke-width:3" />
<path d="M1247.4299999999998,66.01c0.7,0.51,3.02,0.75,3.74,0.72c7.58-0.23,17.98-0.75,26.77-1.66c0.88-0.09,2.81-0.21,4.12,0.24" style="fill:none;stroke:#999;stroke-width:3" />
<path d="M1240.83,81.53c0.63,0.28,3.93,0.56,5,0.47c12.85-1.15,26.67-2.5,41.54-2.74c2.7-0.04,4.63-0.02,6.8,0.5" style="fill:none;stroke:#999;stroke-width:3" />
<path d="M1218.71,12.75c4.16,1.7,10.75,6.99,11.79,9.63" style="fill:none;stroke:#999;stroke-width:3" />
<path d="M1213.21,34.25c4.78,1.57,12.35,6.45,13.54,8.88" style="fill:none;stroke:#999;stroke-width:3" />
<path d="M1212.0,60.44c2.25,0.85,3.75,0.43,4.75,0.21c1-0.21,9-2.99,10.5-3.42c1.5-0.43,3.75,1.07,2.75,2.35s-5,7.69-5.75,8.76c-0.75,1.07-0.5,2.99,1,4.48s4.25,2.7,5,3.98C1231.0,78.09 1231.0,79.16 1229.5,80.23c-1.5,1.07-10.5,6.04-12,6.47" style="fill:none;stroke:black;stroke-width:3" />
<circle cx="1212.0" cy="60.44" r="5" stroke-width="0" fill="#FF2A00" opacity="0.7" />
<path d="M1375.01,10.25c0.23,0.39,0.27,0.86,0.21,1.19c-0.33,1.99-3.15,6.74-5.72,9.4" style="fill:none;stroke:#999;stroke-width:3" />
<path d="M1355.19,20.74c0.67,0.6,1.2,1.72,1.34,2.5c0.8,4.39,3.44,15.83,3.71,19.79" style="fill:none;stroke:#999;stroke-width:3" />
<path d="M1356.43,22.66c9.32-1.09,31.33-2.98,34.77-3.38c1.65-0.19,2.72,1.6,2.36,3.26c-0.8,3.69-2.14,11.65-3.74,18.72" style="fill:none;stroke:#999;stroke-width:3" />
<path d="M1358.81,32.71c8.47-1.48,27.08-3.08,32.87-3.08" style="fill:none;stroke:#999;stroke-width:3" />
<path d="M1359.93,41.44c9.68-0.68,21.68-2.27,29.67-2.48" style="fill:none;stroke:#999;stroke-width:3" />
<path d="M1353.03,51.86c0.85,0.46,1.97,0.64,4.47,0.53c4.03-0.17,25.69-1.42,35.29-1.91c1.31-0.07,2.5,0.09,3.58,0.48" style="fill:none;stroke:#999;stroke-width:3" />
<path d="M1374.25,53.33c1.16,1.88,1.16,3.01,1.16,4.52c0,4.15-0.07,17.65-0.07,22.33" style="fill:none;stroke:#999;stroke-width:3" />
<path d="M1356.4299999999998,66.01c0.7,0.51,3.02,0.75,3.74,0.72c7.58-0.23,17.98-0.75,26.77-1.66c0.88-0.09,2.81-0.21,4.12,0.24" style="fill:none;stroke:#999;stroke-width:3" />
<path d="M1349.83,81.53c0.63,0.28,3.93,0.56,5,0.47c12.85-1.15,26.67-2.5,41.54-2.74c2.7-0.04,4.63-0.02,6.8,0.5" style="fill:none;stroke:#999;stroke-width:3" />
<path d="M1327.71,12.75c4.16,1.7,10.75,6.99,11.79,9.63" style="fill:none;stroke:#999;stroke-width:3" />
<path d="M1322.21,34.25c4.78,1.57,12.35,6.45,13.54,8.88" style="fill:none;stroke:#999;stroke-width:3" />
<path d="M1321.0,60.44c2.25,0.85,3.75,0.43,4.75,0.21c1-0.21,9-2.99,10.5-3.42c1.5-0.43,3.75,1.07,2.75,2.35s-5,7.69-5.75,8.76c-0.75,1.07-0.5,2.99,1,4.48s4.25,2.7,5,3.98C1340.0,78.09 1340.0,79.16 1338.5,80.23c-1.5,1.07-10.5,6.04-12,6.47" style="fill:none;stroke:#999;stroke-width:3" />
<path d="M1320.75,88.26c4.5-1.01,10.8-1.16,15.2-0.5c4.4,0.66,27.4,5.1,31.73,5.95c11.73,2.31,20.77,2.97,29.57,1.82" style="fill:none;stroke:black;stroke-width:3" />
<circle cx="1320.75" cy="88.26" r="5" stroke-width="0" fill="#FF2A00" opacity="0.7" />
</svg>