<!-- 090c1 -->
<svg width="981px" height="109px" viewBox="0 0 981px 109px" xmlns="http://www.w3.org/2000/svg" xmlns:xlink="http://www.w3.org/1999/xlink" xml:space="preserve" version="1.1"  baseProfile="full">
<line x1="1" y1="1" x2="980" y2="1" style="stroke:#ddd;stroke-width:2" />
<line x1="1" y1="1" x2="1" y2="108" style="stroke:#ddd;stroke-width:2" />
<line x1="1" y1="108" x2="980" y2="108" style="stroke:#ddd;stroke-width:2" />
<line x1="980" y1="1" x2="980" y2="108" style="stroke:#ddd;stroke-width:2" />
<line x1="109" y1="1" x2="109" y2="108" style="stroke:#ddd;stroke-width:2" />
<line x1="218" y1="1" x2="218" y2="108" style="stroke:#ddd;stroke-width:2" />
<line x1="327" y1="1" x2="327" y2="108" style="stroke:#ddd;stroke-width:2" />
<line x1="436" y1="1" x2="436" y2="108" style="stroke:#ddd;stroke-width:2" />
<line x1="545" y1="1" x2="545" y2="108" style="stroke:#ddd;stroke-width:2" />
<line x1="654" y1="1" x2="654" y2="108" style="stroke:#ddd;stroke-width:2" />
<line x1="763" y1="1" x2="763" y2="108" style="stroke:#ddd;stroke-width:2" />
<line x1="872" y1="1" x2="872" y2="108" style="stroke:#ddd;stroke-width:2" />
<line x1="1" y1="54" x2="980" y2="54" style="stroke:#ddd;stroke-width:2;stroke-dasharray:3 3" />
<line x1="55" y1="1" x2="55" y2="108" style="stroke:#ddd;stroke-width:2;stroke-dasharray:3 3" />
<line x1="164" y1="1" x2="164" y2="108" style="stroke:#ddd;stroke-width:2;stroke-dasharray:3 3" />
<line x1="273" y1="1" x2="273" y2="108" style="stroke:#ddd;stroke-width:2;stroke-dasharray:3 3" />
<line x1="382" y1="1" x2="382" y2="108" style="stroke:#ddd;stroke-width:2;stroke-dasharray:3 3" />
<line x1="491" y1="1" x2="491" y2="108" style="stroke:#ddd;stroke-width:2;stroke-dasharray:3 3" />
<line x1="600" y1="1" x2="600" y2="108" style="stroke:#ddd;stroke-width:2;stroke-dasharray:3 3" />
<line x1="709" y1="1" x2="709" y2="108" style="stroke:#ddd;stroke-width:2;stroke-dasharray:3 3" />
<line x1="818" y1="1" x2="818" y2="108" style="stroke:#ddd;stroke-width:2;stroke-dasharray:3 3" />
<line x1="927" y1="1" x2="927" y2="108" style="stroke:#ddd;stroke-width:2;stroke-dasharray:3 3" />
<path d="M38.42,12.43c0.07,1.16,0.06,2.03-0.4,3.66C34.5,28.5 27.38,48.25 14.88,58.91" style="fill:none;stroke:black;stroke-width:3" />
<circle cx="38.42" cy="12.43" r="5" stroke-width="0" fill="#FF2A00" opacity="0.7" />
<path d="M147.42000000000002,12.43c0.07,1.16,0.06,2.03-0.4,3.66C143.5,28.5 136.38,48.25 123.88,58.91" style="fill:none;stroke:#999;stroke-width:3" />
<path d="M118.87,31.58c2.51,0.8,5.57,0.5,7.76,0.21c10.87-1.41,26.54-3.89,36.75-4.57c2.47-0.17,5.11-0.46,7.5,0.38" style="fill:none;stroke:black;stroke-width:3" />
<circle cx="118.87" cy="31.58" r="5" stroke-width="0" fill="#FF2A00" opacity="0.7" />
<path d="M256.42,12.43c0.07,1.16,0.06,2.03-0.4,3.66C252.5,28.5 245.38,48.25 232.88,58.91" style="fill:none;stroke:#999;stroke-width:3" />
<path d="M227.87,31.58c2.51,0.8,5.57,0.5,7.76,0.21c10.87-1.41,26.54-3.89,36.75-4.57c2.47-0.17,5.11-0.46,7.5,0.38" style="fill:none;stroke:#999;stroke-width:3" />
<path d="M247.04,45.91c0.77,0.77,0.93,1.59,0.93,2.9c0,0.55-0.07,22.39-0.07,34.93c0,4.16-0.01,7.08-0.02,7.48" style="fill:none;stroke:black;stroke-width:3" />
<circle cx="247.04" cy="45.91" r="5" stroke-width="0" fill="#FF2A00" opacity="0.7" />
<path d="M365.42,12.43c0.07,1.16,0.06,2.03-0.4,3.66C361.5,28.5 354.38,48.25 341.88,58.91" style="fill:none;stroke:#999;stroke-width:3" />
<path d="M336.87,31.58c2.51,0.8,5.57,0.5,7.76,0.21c10.87-1.41,26.54-3.89,36.75-4.57c2.47-0.17,5.11-0.46,7.5,0.38" style="fill:none;stroke:#999;stroke-width:3" />
<path d="M356.03999999999996,45.91c0.77,0.77,0.93,1.59,0.93,2.9c0,0.55-0.07,22.39-0.07,34.93c0,4.16-0.01,7.08-0.02,7.48" style="fill:none;stroke:#999;stroke-width:3" />
<path d="M357.9,46.31c4.1-0.81,18.4-3.17,19.78-3.37c2.48-0.36,3.1,0.94,3.1,3.4c0,3.03,0.04,27.35,0.04,41.87c0,10.24-4.31,3.29-6.76,1.61" style="fill:none;stroke:black;stroke-width:3" />
<circle cx="357.9" cy="46.31" r="5" stroke-width="0" fill="#FF2A00" opacity="0.7" />
<path d="M474.42,12.43c0.07,1.16,0.06,2.03-0.4,3.66C470.5,28.5 463.38,48.25 450.88,58.91" style="fill:none;stroke:#999;stroke-width:3" />
<path d="M445.87,31.58c2.51,0.8,5.57,0.5,7.76,0.21c10.87-1.41,26.54-3.89,36.75-4.57c2.47-0.17,5.11-0.46,7.5,0.38" style="fill:none;stroke:#999;stroke-width:3" />
<path d="M465.03999999999996,45.91c0.77,0.77,0.93,1.59,0.93,2.9c0,0.55-0.07,22.39-0.07,34.93c0,4.16-0.01,7.08-0.02,7.48" style="fill:none;stroke:#999;stroke-width:3" />
<path d="M466.9,46.31c4.1-0.81,18.4-3.17,19.78-3.37c2.48-0.36,3.1,0.94,3.1,3.4c0,3.03,0.04,27.35,0.04,41.87c0,10.24-4.31,3.29-6.76,1.61" style="fill:none;stroke:#999;stroke-width:3" />
<path d="M466.9,58.18c6.48-0.93,15.35-1.8,21.54-2.26" style="fill:none;stroke:black;stroke-width:3" />
<circle cx="466.9" cy="58.18" r="5" stroke-width="0" fill="#FF2A00" opacity="0.7" />
<path d="M583.4200000000001,12.43c0.07,1.16,0.06,2.03-0.4,3.66C579.5,28.5 572.38,48.25 559.88,58.91" style="fill:none;stroke:#999;stroke-width:3" />
<path d="M554.87,31.58c2.51,0.8,5.57,0.5,7.76,0.21c10.87-1.41,26.54-3.89,36.75-4.57c2.47-0.17,5.11-0.46,7.5,0.38" style="fill:none;stroke:#999;stroke-width:3" />
<path d="M574.04,45.91c0.77,0.77,0.93,1.59,0.93,2.9c0,0.55-0.07,22.39-0.07,34.93c0,4.16-0.01,7.08-0.02,7.48" style="fill:none;stroke:#999;stroke-width:3" />
<path d="M575.9,46.31c4.1-0.81,18.4-3.17,19.78-3.37c2.48-0.36,3.1,0.94,3.1,3.4c0,3.03,0.04,27.35,0.04,41.87c0,10.24-4.31,3.29-6.76,1.61" style="fill:none;stroke:#999;stroke-width:3" />
<path d="M575.9,58.18c6.48-0.93,15.35-1.8,21.54-2.26" style="fill:none;stroke:#999;stroke-width:3" />
<path d="M576.11,71.11c4.95-0.46,15.54-1.83,21.27-2.13" style="fill:none;stroke:black;stroke-width:3" />
<circle cx="576.11" cy="71.11" r="5" stroke-width="0" fill="#FF2A00" opacity="0.7" />
<path d="M692.4200000000001,12.43c0.07,1.16,0.06,2.03-0.4,3.66C688.5,28.5 681.38,48.25 668.88,58.91" style="fill:none;stroke:#999;stroke-width:3" />
<path d="M663.87,31.58c2.51,0.8,5.57,0.5,7.76,0.21c10.87-1.41,26.54-3.89,36.75-4.57c2.47-0.17,5.11-0.46,7.5,0.38" style="fill:none;stroke:#999;stroke-width:3" />
<path d="M683.04,45.91c0.77,0.77,0.93,1.59,0.93,2.9c0,0.55-0.07,22.39-0.07,34.93c0,4.16-0.01,7.08-0.02,7.48" style="fill:none;stroke:#999;stroke-width:3" />
<path d="M684.9,46.31c4.1-0.81,18.4-3.17,19.78-3.37c2.48-0.36,3.1,0.94,3.1,3.4c0,3.03,0.04,27.35,0.04,41.87c0,10.24-4.31,3.29-6.76,1.61" style="fill:none;stroke:#999;stroke-width:3" />
<path d="M684.9,58.18c6.48-0.93,15.35-1.8,21.54-2.26" style="fill:none;stroke:#999;stroke-width:3" />
<path d="M685.11,71.11c4.95-0.46,15.54-1.83,21.27-2.13" style="fill:none;stroke:#999;stroke-width:3" />
<path d="M721.67,26.42c1.46,0.46,3.21,0.31,5.32,0.1c5.39-0.52,12.26-2.22,16.43-3.1c3.09-0.65,4.5,1.5,3.17,3.83c-1.33,2.33-8.25,15.17-10.58,18.5" style="fill:none;stroke:black;stroke-width:3" />
<circle cx="721.67" cy="26.42" r="5" stroke-width="0" fill="#FF2A00" opacity="0.7" />
<path d="M801.4200000000001,12.43c0.07,1.16,0.06,2.03-0.4,3.66C797.5,28.5 790.38,48.25 777.88,58.91" style="fill:none;stroke:#999;stroke-width:3" />
<path d="M772.87,31.58c2.51,0.8,5.57,0.5,7.76,0.21c10.87-1.41,26.54-3.89,36.75-4.57c2.47-0.17,5.11-0.46,7.5,0.38" style="fill:none;stroke:#999;stroke-width:3" />
<path d="M792.04,45.91c0.77,0.77,0.93,1.59,0.93,2.9c0,0.55-0.07,22.39-0.07,34.93c0,4.16-0.01,7.08-0.02,7.48" style="fill:none;stroke:#999;stroke-width:3" />
<path d="M793.9,46.31c4.1-0.81,18.4-3.17,19.78-3.37c2.48-0.36,3.1,0.94,3.1,3.4c0,3.03,0.04,27.35,0.04,41.87c0,10.24-4.31,3.29-6.76,1.61" style="fill:none;stroke:#999;stroke-width:3" />
<path d="M793.9,58.18c6.48-0.93,15.35-1.8,21.54-2.26" style="fill:none;stroke:#999;stroke-width:3" />
<path d="M794.11,71.11c4.95-0.46,15.54-1.83,21.27-2.13" style="fill:none;stroke:#999;stroke-width:3" />
<path d="M830.67,26.42c1.46,0.46,3.21,0.31,5.32,0.1c5.39-0.52,12.26-2.22,16.43-3.1c3.09-0.65,4.5,1.5,3.17,3.83c-1.33,2.33-8.25,15.17-10.58,18.5" style="fill:none;stroke:#999;stroke-width:3" />
<path d="M845.0,45.75c17.38,12.88,16.88,37.5,2.48,30.53" style="fill:none;stroke:black;stroke-width:3" />
<circle cx="845.0" cy="45.75" r="5" stroke-width="0" fill="#FF2A00" opacity="0.7" />
<path d="M910.4200000000001,12.43c0.07,1.16,0.06,2.03-0.4,3.66C906.5,28.5 899.38,48.25 886.88,58.91" style="fill:none;stroke:#999;stroke-width:3" />
<path d="M881.87,31.58c2.51,0.8,5.57,0.5,7.76,0.21c10.87-1.41,26.54-3.89,36.75-4.57c2.47-0.17,5.11-0.46,7.5,0.38" style="fill:none;stroke:#999;stroke-width:3" />
<path d="M901.04,45.91c0.77,0.77,0.93,1.59,0.93,2.9c0,0.55-0.07,22.39-0.07,34.93c0,4.16-0.01,7.08-0.02,7.48" style="fill:none;stroke:#999;stroke-width:3" />
<path d="M902.9,46.31c4.1-0.81,18.4-3.17,19.78-3.37c2.48-0.36,3.1,0.94,3.1,3.4c0,3.03,0.04,27.35,0.04,41.87c0,10.24-4.31,3.29-6.76,1.61" style="fill:none;stroke:#999;stroke-width:3" />
<path d="M902.9,58.18c6.48-0.93,15.35-1.8,21.54-2.26" style="fill:none;stroke:#999;stroke-width:3" />
<path d="M903.11,71.11c4.95-0.46,15.54-1.83,21.27-2.13" style="fill:none;stroke:#999;stroke-width:3" />
<path d="M939.67,26.42c1.46,0.46,3.21,0.31,5.32,0.1c5.39-0.52,12.26-2.22,16.43-3.1c3.09-0.65,4.5,1.5,3.17,3.83c-1.33,2.33-8.25,15.17-10.58,18.5" style="fill:none;stroke:#999;stroke-width:3" />
<path d="M954.0,45.75c17.38,12.88,16.88,37.5,2.48,30.53" style="fill:none;stroke:#999;stroke-width:3" />
<path d="M940.83,27.5c1.02,1.02,1.31,2.2,1.31,3.51c0,12.19-0.01,50.99-0.01,58.37c0,3.25,0,5.85,0,7.5" style="fill:none;stroke:black;stroke-width:3" />
<circle cx="940.83" cy="27.5" r="5" stroke-width="0" fill="#FF2A00" opacity="0.7" />
</svg>