<!-- 09149 -->
<svg width="763px" height="109px" viewBox="0 0 763px 109px" xmlns="http://www.w3.org/2000/svg" xmlns:xlink="http://www.w3.org/1999/xlink" xml:space="preserve" version="1.1"  baseProfile="full">
<line x1="1" y1="1" x2="762" y2="1" style="stroke:#ddd;stroke-width:2" />
<line x1="1" y1="1" x2="1" y2="108" style="stroke:#ddd;stroke-width:2" />
<line x1="1" y1="108" x2="762" y2="108" style="stroke:#ddd;stroke-width:2" />
<line x1="762" y1="1" x2="762" y2="108" style="stroke:#ddd;stroke-width:2" />
<line x1="109" y1="1" x2="109" y2="108" style="stroke:#ddd;stroke-width:2" />
<line x1="218" y1="1" x2="218" y2="108" style="stroke:#ddd;stroke-width:2" />
<line x1="327" y1="1" x2="327" y2="108" style="stroke:#ddd;stroke-width:2" />
<line x1="436" y1="1" x2="436" y2="108" style="stroke:#ddd;stroke-width:2" />
<line x1="545" y1="1" x2="545" y2="108" style="stroke:#ddd;stroke-width:2" />
<line x1="654" y1="1" x2="654" y2="108" style="stroke:#ddd;stroke-width:2" />
<line x1="1" y1="54" x2="762" y2="54" style="stroke:#ddd;stroke-width:2;stroke-dasharray:3 3" />
<line x1="55" y1="1" x2="55" y2="108" style="stroke:#ddd;stroke-width:2;stroke-dasharray:3 3" />
<line x1="164" y1="1" x2="164" y2="108" style="stroke:#ddd;stroke-width:2;stroke-dasharray:3 3" />
<line x1="273" y1="1" x2="273" y2="108" style="stroke:#ddd;stroke-width:2;stroke-dasharray:3 3" />
<line x1="382" y1="1" x2="382" y2="108" style="stroke:#ddd;stroke-width:2;stroke-dasharray:3 3" />
<line x1="491" y1="1" x2="491" y2="108" style="stroke:#ddd;stroke-width:2;stroke-dasharray:3 3" />
<line x1="600" y1="1" x2="600" y2="108" style="stroke:#ddd;stroke-width:2;stroke-dasharray:3 3" />
<line x1="709" y1="1" x2="709" y2="108" style="stroke:#ddd;stroke-width:2;stroke-dasharray:3 3" />
<path d="M26.0,19.15c3.5,0.85,7.61,0.17,10.63-0.11c9.79-0.92,27.93-2.28,38.61-2.81c3.29-0.16,7.01-0.07,10.26,0.64" style="fill:none;stroke:black;stroke-width:3" />
<circle cx="26.0" cy="19.15" r="5" stroke-width="0" fill="#FF2A00" opacity="0.7" />
<path d="M135.0,19.15c3.5,0.85,7.61,0.17,10.63-0.11c9.79-0.92,27.93-2.28,38.61-2.81c3.29-0.16,7.01-0.07,10.26,0.64" style="fill:none;stroke:#999;stroke-width:3" />
<path d="M132.77,38.69c1.08,1.08,1.1,2.43,1.1,4.22c0,0.83-0.02,32.82-0.03,46.46c0,3.62,0,5.95,0,6.06" style="fill:none;stroke:black;stroke-width:3" />
<circle cx="132.77" cy="38.69" r="5" stroke-width="0" fill="#FF2A00" opacity="0.7" />
<path d="M244.0,19.15c3.5,0.85,7.61,0.17,10.63-0.11c9.79-0.92,27.93-2.28,38.61-2.81c3.29-0.16,7.01-0.07,10.26,0.64" style="fill:none;stroke:#999;stroke-width:3" />
<path d="M241.77,38.69c1.08,1.08,1.1,2.43,1.1,4.22c0,0.83-0.02,32.82-0.03,46.46c0,3.62,0,5.95,0,6.06" style="fill:none;stroke:#999;stroke-width:3" />
<path d="M244.19,40.82c6.56-0.45,49.06-3.6,53.16-3.83c4.27-0.24,5.86,0.76,5.86,4.22c0,1.4-0.04,30.21-0.04,46.16c0,3,0,5.55,0,7.37" style="fill:none;stroke:black;stroke-width:3" />
<circle cx="244.19" cy="40.82" r="5" stroke-width="0" fill="#FF2A00" opacity="0.7" />
<path d="M353.0,19.15c3.5,0.85,7.61,0.17,10.63-0.11c9.79-0.92,27.93-2.28,38.61-2.81c3.29-0.16,7.01-0.07,10.26,0.64" style="fill:none;stroke:#999;stroke-width:3" />
<path d="M350.77,38.69c1.08,1.08,1.1,2.43,1.1,4.22c0,0.83-0.02,32.82-0.03,46.46c0,3.62,0,5.95,0,6.06" style="fill:none;stroke:#999;stroke-width:3" />
<path d="M353.19,40.82c6.56-0.45,49.06-3.6,53.16-3.83c4.27-0.24,5.86,0.76,5.86,4.22c0,1.4-0.04,30.21-0.04,46.16c0,3,0,5.55,0,7.37" style="fill:none;stroke:#999;stroke-width:3" />
<path d="M372.5,21c1.25,1.25,1.33,2.96,1.34,4.68C374.0,42.5 372.88,56.5 361.0,65.75" style="fill:none;stroke:black;stroke-width:3" />
<circle cx="372.5" cy="21.0" r="5" stroke-width="0" fill="#FF2A00" opacity="0.7" />
<path d="M462.0,19.15c3.5,0.85,7.61,0.17,10.63-0.11c9.79-0.92,27.93-2.28,38.61-2.81c3.29-0.16,7.01-0.07,10.26,0.64" style="fill:none;stroke:#999;stroke-width:3" />
<path d="M459.77,38.69c1.08,1.08,1.1,2.43,1.1,4.22c0,0.83-0.02,32.82-0.03,46.46c0,3.62,0,5.95,0,6.06" style="fill:none;stroke:#999;stroke-width:3" />
<path d="M462.19,40.82c6.56-0.45,49.06-3.6,53.16-3.83c4.27-0.24,5.86,0.76,5.86,4.22c0,1.4-0.04,30.21-0.04,46.16c0,3,0,5.55,0,7.37" style="fill:none;stroke:#999;stroke-width:3" />
<path d="M481.5,21c1.25,1.25,1.33,2.96,1.34,4.68C483.0,42.5 481.88,56.5 470.0,65.75" style="fill:none;stroke:#999;stroke-width:3" />
<path d="M496.0,19.75c1,1,1.49,2.8,1.49,4.78c0,4.84-0.11,22.59-0.11,27.09c0,6.62,0.88,7.9,7.63,7.9c6.12,0,7.62-0.9,8.76-2.6" style="fill:none;stroke:black;stroke-width:3" />
<circle cx="496.0" cy="19.75" r="5" stroke-width="0" fill="#FF2A00" opacity="0.7" />
<path d="M571.0,19.15c3.5,0.85,7.61,0.17,10.63-0.11c9.79-0.92,27.93-2.28,38.61-2.81c3.29-0.16,7.01-0.07,10.26,0.64" style="fill:none;stroke:#999;stroke-width:3" />
<path d="M568.77,38.69c1.08,1.08,1.1,2.43,1.1,4.22c0,0.83-0.02,32.82-0.03,46.46c0,3.62,0,5.95,0,6.06" style="fill:none;stroke:#999;stroke-width:3" />
<path d="M571.19,40.82c6.56-0.45,49.06-3.6,53.16-3.83c4.27-0.24,5.86,0.76,5.86,4.22c0,1.4-0.04,30.21-0.04,46.16c0,3,0,5.55,0,7.37" style="fill:none;stroke:#999;stroke-width:3" />
<path d="M590.5,21c1.25,1.25,1.33,2.96,1.34,4.68C592.0,42.5 590.88,56.5 579.0,65.75" style="fill:none;stroke:#999;stroke-width:3" />
<path d="M605.0,19.75c1,1,1.49,2.8,1.49,4.78c0,4.84-0.11,22.59-0.11,27.09c0,6.62,0.88,7.9,7.63,7.9c6.12,0,7.62-0.9,8.76-2.6" style="fill:none;stroke:#999;stroke-width:3" />
<path d="M570.99,76.98c13.89-0.98,43.64-2.6,57.82-3.06" style="fill:none;stroke:black;stroke-width:3" />
<circle cx="570.99" cy="76.98" r="5" stroke-width="0" fill="#FF2A00" opacity="0.7" />
<path d="M680.0,19.15c3.5,0.85,7.61,0.17,10.63-0.11c9.79-0.92,27.93-2.28,38.61-2.81c3.29-0.16,7.01-0.07,10.26,0.64" style="fill:none;stroke:#999;stroke-width:3" />
<path d="M677.77,38.69c1.08,1.08,1.1,2.43,1.1,4.22c0,0.83-0.02,32.82-0.03,46.46c0,3.62,0,5.95,0,6.06" style="fill:none;stroke:#999;stroke-width:3" />
<path d="M680.19,40.82c6.56-0.45,49.06-3.6,53.16-3.83c4.27-0.24,5.86,0.76,5.86,4.22c0,1.4-0.04,30.21-0.04,46.16c0,3,0,5.55,0,7.37" style="fill:none;stroke:#999;stroke-width:3" />
<path d="M699.5,21c1.25,1.25,1.33,2.96,1.34,4.68C701.0,42.5 699.88,56.5 688.0,65.75" style="fill:none;stroke:#999;stroke-width:3" />
<path d="M714.0,19.75c1,1,1.49,2.8,1.49,4.78c0,4.84-0.11,22.59-0.11,27.09c0,6.62,0.88,7.9,7.63,7.9c6.12,0,7.62-0.9,8.76-2.6" style="fill:none;stroke:#999;stroke-width:3" />
<path d="M679.99,76.98c13.89-0.98,43.64-2.6,57.82-3.06" style="fill:none;stroke:#999;stroke-width:3" />
<path d="M680.21,92.56c16.67-1.06,42.11-2.31,57.58-2.79" style="fill:none;stroke:black;stroke-width:3" />
<circle cx="680.21" cy="92.56" r="5" stroke-width="0" fill="#FF2A00" opacity="0.7" />
</svg>