<!-- 0914a -->
<svg width="981px" height="109px" viewBox="0 0 981px 109px" xmlns="http://www.w3.org/2000/svg" xmlns:xlink="http://www.w3.org/1999/xlink" xml:space="preserve" version="1.1"  baseProfile="full">
<line x1="1" y1="1" x2="980" y2="1" style="stroke:#ddd;stroke-width:2" />
<line x1="1" y1="1" x2="1" y2="108" style="stroke:#ddd;stroke-width:2" />
<line x1="1" y1="108" x2="980" y2="108" style="stroke:#ddd;stroke-width:2" />
<line x1="980" y1="1" x2="980" y2="108" style="stroke:#ddd;stroke-width:2" />
<line x1="109" y1="1" x2="109" y2="108" style="stroke:#ddd;stroke-width:2" />
<line x1="218" y1="1" x2="218" y2="108" style="stroke:#ddd;stroke-width:2" />
<line x1="327" y1="1" x2="327" y2="108" style="stroke:#ddd;stroke-width:2" />
<line x1="436" y1="1" x2="436" y2="108" style="stroke:#ddd;stroke-width:2" />
<line x1="545" y1="1" x2="545" y2="108" style="stroke:#ddd;stroke-width:2" />
<line x1="654" y1="1" x2="654" y2="108" style="stroke:#ddd;stroke-width:2" />
<line x1="763" y1="1" x2="763" y2="108" style="stroke:#ddd;stroke-width:2" />
<line x1="872" y1="1" x2="872" y2="108" style="stroke:#ddd;stroke-width:2" />
<line x1="1" y1="54" x2="980" y2="54" style="stroke:#ddd;stroke-width:2;stroke-dasharray:3 3" />
<line x1="55" y1="1" x2="55" y2="108" style="stroke:#ddd;stroke-width:2;stroke-dasharray:3 3" />
<line x1="164" y1="1" x2="164" y2="108" style="stroke:#ddd;stroke-width:2;stroke-dasharray:3 3" />
<line x1="273" y1="1" x2="273" y2="108" style="stroke:#ddd;stroke-width:2;stroke-dasharray:3 3" />
<line x1="382" y1="1" x2="382" y2="108" style="stroke:#ddd;stroke-width:2;stroke-dasharray:3 3" />
<line x1="491" y1="1" x2="491" y2="108" style="stroke:#ddd;stroke-width:2;stroke-dasharray:3 3" />
<line x1="600" y1="1" x2="600" y2="108" style="stroke:#ddd;stroke-width:2;stroke-dasharray:3 3" />
<line x1="709" y1="1" x2="709" y2="108" style="stroke:#ddd;stroke-width:2;stroke-dasharray:3 3" />
<line x1="818" y1="1" x2="818" y2="108" style="stroke:#ddd;stroke-width:2;stroke-dasharray:3 3" />
<line x1="927" y1="1" x2="927" y2="108" style="stroke:#ddd;stroke-width:2;stroke-dasharray:3 3" />
<path d="M9.29,20.45c0.67,0.25,4.03,0.63,4.72,0.59c7.04-0.36,26.2-2.05,29.16-2.23c1.69-0.1,3.58-0.42,5.03-0.09" style="fill:none;stroke:black;stroke-width:3" />
<circle cx="9.29" cy="20.45" r="5" stroke-width="0" fill="#FF2A00" opacity="0.7" />
<path d="M118.28999999999999,20.45c0.67,0.25,4.03,0.63,4.72,0.59c7.04-0.36,26.2-2.05,29.16-2.23c1.69-0.1,3.58-0.42,5.03-0.09" style="fill:none;stroke:#999;stroke-width:3" />
<path d="M121.02,37.24c0.49,0.76,0.68,2.6,0.68,3.62c0,1.02-0.16,51.38,0,52.39" style="fill:none;stroke:black;stroke-width:3" />
<circle cx="121.02" cy="37.24" r="5" stroke-width="0" fill="#FF2A00" opacity="0.7" />
<path d="M227.29,20.45c0.67,0.25,4.03,0.63,4.72,0.59c7.04-0.36,26.2-2.05,29.16-2.23c1.69-0.1,3.58-0.42,5.03-0.09" style="fill:none;stroke:#999;stroke-width:3" />
<path d="M230.01999999999998,37.24c0.49,0.76,0.68,2.6,0.68,3.62c0,1.02-0.16,51.38,0,52.39" style="fill:none;stroke:#999;stroke-width:3" />
<path d="M230.93,38.83c2.77-0.13,28.47-2.39,30.98-2.71c2.61-0.33,4.77,1.22,4.77,4.1c0,1.61-0.41,50.6-0.41,51.36" style="fill:none;stroke:black;stroke-width:3" />
<circle cx="230.93" cy="38.83" r="5" stroke-width="0" fill="#FF2A00" opacity="0.7" />
<path d="M336.28999999999996,20.45c0.67,0.25,4.03,0.63,4.72,0.59c7.04-0.36,26.2-2.05,29.16-2.23c1.69-0.1,3.58-0.42,5.03-0.09" style="fill:none;stroke:#999;stroke-width:3" />
<path d="M339.02,37.24c0.49,0.76,0.68,2.6,0.68,3.62c0,1.02-0.16,51.38,0,52.39" style="fill:none;stroke:#999;stroke-width:3" />
<path d="M339.93,38.83c2.77-0.13,28.47-2.39,30.98-2.71c2.61-0.33,4.77,1.22,4.77,4.1c0,1.61-0.41,50.6-0.41,51.36" style="fill:none;stroke:#999;stroke-width:3" />
<path d="M350.83,23.91c0.69,1.23,1.12,2.92,1.02,4.61c-0.94,15.64-2.85,24.98-7,31.27" style="fill:none;stroke:black;stroke-width:3" />
<circle cx="350.83" cy="23.91" r="5" stroke-width="0" fill="#FF2A00" opacity="0.7" />
<path d="M445.28999999999996,20.45c0.67,0.25,4.03,0.63,4.72,0.59c7.04-0.36,26.2-2.05,29.16-2.23c1.69-0.1,3.58-0.42,5.03-0.09" style="fill:none;stroke:#999;stroke-width:3" />
<path d="M448.02,37.24c0.49,0.76,0.68,2.6,0.68,3.62c0,1.02-0.16,51.38,0,52.39" style="fill:none;stroke:#999;stroke-width:3" />
<path d="M448.93,38.83c2.77-0.13,28.47-2.39,30.98-2.71c2.61-0.33,4.77,1.22,4.77,4.1c0,1.61-0.41,50.6-0.41,51.36" style="fill:none;stroke:#999;stroke-width:3" />
<path d="M459.83,23.91c0.69,1.23,1.12,2.92,1.02,4.61c-0.94,15.64-2.85,24.98-7,31.27" style="fill:none;stroke:#999;stroke-width:3" />
<path d="M470.05,22.53c0.49,1.25,0.89,2.72,0.92,4.65c0.09,6.12-0.22,11.31-0.26,18.87c-0.04,6.56,2.13,7.92,5.61,7.92c3.51,0,5.94-0.22,6.28-0.96" style="fill:none;stroke:black;stroke-width:3" />
<circle cx="470.05" cy="22.53" r="5" stroke-width="0" fill="#FF2A00" opacity="0.7" />
<path d="M554.29,20.45c0.67,0.25,4.03,0.63,4.72,0.59c7.04-0.36,26.2-2.05,29.16-2.23c1.69-0.1,3.58-0.42,5.03-0.09" style="fill:none;stroke:#999;stroke-width:3" />
<path d="M557.02,37.24c0.49,0.76,0.68,2.6,0.68,3.62c0,1.02-0.16,51.38,0,52.39" style="fill:none;stroke:#999;stroke-width:3" />
<path d="M557.9300000000001,38.83c2.77-0.13,28.47-2.39,30.98-2.71c2.61-0.33,4.77,1.22,4.77,4.1c0,1.61-0.41,50.6-0.41,51.36" style="fill:none;stroke:#999;stroke-width:3" />
<path d="M568.8299999999999,23.91c0.69,1.23,1.12,2.92,1.02,4.61c-0.94,15.64-2.85,24.98-7,31.27" style="fill:none;stroke:#999;stroke-width:3" />
<path d="M579.05,22.53c0.49,1.25,0.89,2.72,0.92,4.65c0.09,6.12-0.22,11.31-0.26,18.87c-0.04,6.56,2.13,7.92,5.61,7.92c3.51,0,5.94-0.22,6.28-0.96" style="fill:none;stroke:#999;stroke-width:3" />
<path d="M557.92,71.97c3.75,0,30.59-1.79,34.83-1.79" style="fill:none;stroke:black;stroke-width:3" />
<circle cx="557.92" cy="71.97" r="5" stroke-width="0" fill="#FF2A00" opacity="0.7" />
<path d="M663.29,20.45c0.67,0.25,4.03,0.63,4.72,0.59c7.04-0.36,26.2-2.05,29.16-2.23c1.69-0.1,3.58-0.42,5.03-0.09" style="fill:none;stroke:#999;stroke-width:3" />
<path d="M666.02,37.24c0.49,0.76,0.68,2.6,0.68,3.62c0,1.02-0.16,51.38,0,52.39" style="fill:none;stroke:#999;stroke-width:3" />
<path d="M666.9300000000001,38.83c2.77-0.13,28.47-2.39,30.98-2.71c2.61-0.33,4.77,1.22,4.77,4.1c0,1.61-0.41,50.6-0.41,51.36" style="fill:none;stroke:#999;stroke-width:3" />
<path d="M677.8299999999999,23.91c0.69,1.23,1.12,2.92,1.02,4.61c-0.94,15.64-2.85,24.98-7,31.27" style="fill:none;stroke:#999;stroke-width:3" />
<path d="M688.05,22.53c0.49,1.25,0.89,2.72,0.92,4.65c0.09,6.12-0.22,11.31-0.26,18.87c-0.04,6.56,2.13,7.92,5.61,7.92c3.51,0,5.94-0.22,6.28-0.96" style="fill:none;stroke:#999;stroke-width:3" />
<path d="M666.92,71.97c3.75,0,30.59-1.79,34.83-1.79" style="fill:none;stroke:#999;stroke-width:3" />
<path d="M667.25,89.84c7.64-0.55,24.98-2,34.49-2.47" style="fill:none;stroke:black;stroke-width:3" />
<circle cx="667.25" cy="89.84" r="5" stroke-width="0" fill="#FF2A00" opacity="0.7" />
<path d="M772.29,20.45c0.67,0.25,4.03,0.63,4.72,0.59c7.04-0.36,26.2-2.05,29.16-2.23c1.69-0.1,3.58-0.42,5.03-0.09" style="fill:none;stroke:#999;stroke-width:3" />
<path d="M775.02,37.24c0.49,0.76,0.68,2.6,0.68,3.62c0,1.02-0.16,51.38,0,52.39" style="fill:none;stroke:#999;stroke-width:3" />
<path d="M775.9300000000001,38.83c2.77-0.13,28.47-2.39,30.98-2.71c2.61-0.33,4.77,1.22,4.77,4.1c0,1.61-0.41,50.6-0.41,51.36" style="fill:none;stroke:#999;stroke-width:3" />
<path d="M786.8299999999999,23.91c0.69,1.23,1.12,2.92,1.02,4.61c-0.94,15.64-2.85,24.98-7,31.27" style="fill:none;stroke:#999;stroke-width:3" />
<path d="M797.05,22.53c0.49,1.25,0.89,2.72,0.92,4.65c0.09,6.12-0.22,11.31-0.26,18.87c-0.04,6.56,2.13,7.92,5.61,7.92c3.51,0,5.94-0.22,6.28-0.96" style="fill:none;stroke:#999;stroke-width:3" />
<path d="M775.92,71.97c3.75,0,30.59-1.79,34.83-1.79" style="fill:none;stroke:#999;stroke-width:3" />
<path d="M776.25,89.84c7.64-0.55,24.98-2,34.49-2.47" style="fill:none;stroke:#999;stroke-width:3" />
<path d="M816.41,23.2c1.2,0.42,3.4,0.47,4.6,0.42c9.24-0.37,22.09-2.06,36.87-2.61c2-0.07,3.2,0.2,4.2,0.41" style="fill:none;stroke:black;stroke-width:3" />
<circle cx="816.41" cy="23.2" r="5" stroke-width="0" fill="#FF2A00" opacity="0.7" />
<path d="M881.29,20.45c0.67,0.25,4.03,0.63,4.72,0.59c7.04-0.36,26.2-2.05,29.16-2.23c1.69-0.1,3.58-0.42,5.03-0.09" style="fill:none;stroke:#999;stroke-width:3" />
<path d="M884.02,37.24c0.49,0.76,0.68,2.6,0.68,3.62c0,1.02-0.16,51.38,0,52.39" style="fill:none;stroke:#999;stroke-width:3" />
<path d="M884.9300000000001,38.83c2.77-0.13,28.47-2.39,30.98-2.71c2.61-0.33,4.77,1.22,4.77,4.1c0,1.61-0.41,50.6-0.41,51.36" style="fill:none;stroke:#999;stroke-width:3" />
<path d="M895.8299999999999,23.91c0.69,1.23,1.12,2.92,1.02,4.61c-0.94,15.64-2.85,24.98-7,31.27" style="fill:none;stroke:#999;stroke-width:3" />
<path d="M906.05,22.53c0.49,1.25,0.89,2.72,0.92,4.65c0.09,6.12-0.22,11.31-0.26,18.87c-0.04,6.56,2.13,7.92,5.61,7.92c3.51,0,5.94-0.22,6.28-0.96" style="fill:none;stroke:#999;stroke-width:3" />
<path d="M884.92,71.97c3.75,0,30.59-1.79,34.83-1.79" style="fill:none;stroke:#999;stroke-width:3" />
<path d="M885.25,89.84c7.64-0.55,24.98-2,34.49-2.47" style="fill:none;stroke:#999;stroke-width:3" />
<path d="M925.41,23.2c1.2,0.42,3.4,0.47,4.6,0.42c9.24-0.37,22.09-2.06,36.87-2.61c2-0.07,3.2,0.2,4.2,0.41" style="fill:none;stroke:#999;stroke-width:3" />
<path d="M947.16,25.07c0.08,0.46,1.11,2.38,1.19,5.28c0.38,13.92-0.24,56.36-0.24,61.1c0,10.74-7.54,0.49-8.96-0.71" style="fill:none;stroke:black;stroke-width:3" />
<circle cx="947.16" cy="25.07" r="5" stroke-width="0" fill="#FF2A00" opacity="0.7" />
</svg>