<!-- 09163 -->
<svg width="1308px" height="109px" viewBox="0 0 1308px 109px" xmlns="http://www.w3.org/2000/svg" xmlns:xlink="http://www.w3.org/1999/xlink" xml:space="preserve" version="1.1"  baseProfile="full">
<line x1="1" y1="1" x2="1307" y2="1" style="stroke:#ddd;stroke-width:2" />
<line x1="1" y1="1" x2="1" y2="108" style="stroke:#ddd;stroke-width:2" />
<line x1="1" y1="108" x2="1307" y2="108" style="stroke:#ddd;stroke-width:2" />
<line x1="1307" y1="1" x2="1307" y2="108" style="stroke:#ddd;stroke-width:2" />
<line x1="109" y1="1" x2="109" y2="108" style="stroke:#ddd;stroke-width:2" />
<line x1="218" y1="1" x2="218" y2="108" style="stroke:#ddd;stroke-width:2" />
<line x1="327" y1="1" x2="327" y2="108" style="stroke:#ddd;stroke-width:2" />
<line x1="436" y1="1" x2="436" y2="108" style="stroke:#ddd;stroke-width:2" />
<line x1="545" y1="1" x2="545" y2="108" style="stroke:#ddd;stroke-width:2" />
<line x1="654" y1="1" x2="654" y2="108" style="stroke:#ddd;stroke-width:2" />
<line x1="763" y1="1" x2="763" y2="108" style="stroke:#ddd;stroke-width:2" />
<line x1="872" y1="1" x2="872" y2="108" style="stroke:#ddd;stroke-width:2" />
<line x1="981" y1="1" x2="981" y2="108" style="stroke:#ddd;stroke-width:2" />
<line x1="1090" y1="1" x2="1090" y2="108" style="stroke:#ddd;stroke-width:2" />
<line x1="1199" y1="1" x2="1199" y2="108" style="stroke:#ddd;stroke-width:2" />
<line x1="1" y1="54" x2="1307" y2="54" style="stroke:#ddd;stroke-width:2;stroke-dasharray:3 3" />
<line x1="55" y1="1" x2="55" y2="108" style="stroke:#ddd;stroke-width:2;stroke-dasharray:3 3" />
<line x1="164" y1="1" x2="164" y2="108" style="stroke:#ddd;stroke-width:2;stroke-dasharray:3 3" />
<line x1="273" y1="1" x2="273" y2="108" style="stroke:#ddd;stroke-width:2;stroke-dasharray:3 3" />
<line x1="382" y1="1" x2="382" y2="108" style="stroke:#ddd;stroke-width:2;stroke-dasharray:3 3" />
<line x1="491" y1="1" x2="491" y2="108" style="stroke:#ddd;stroke-width:2;stroke-dasharray:3 3" />
<line x1="600" y1="1" x2="600" y2="108" style="stroke:#ddd;stroke-width:2;stroke-dasharray:3 3" />
<line x1="709" y1="1" x2="709" y2="108" style="stroke:#ddd;stroke-width:2;stroke-dasharray:3 3" />
<line x1="818" y1="1" x2="818" y2="108" style="stroke:#ddd;stroke-width:2;stroke-dasharray:3 3" />
<line x1="927" y1="1" x2="927" y2="108" style="stroke:#ddd;stroke-width:2;stroke-dasharray:3 3" />
<line x1="1036" y1="1" x2="1036" y2="108" style="stroke:#ddd;stroke-width:2;stroke-dasharray:3 3" />
<line x1="1145" y1="1" x2="1145" y2="108" style="stroke:#ddd;stroke-width:2;stroke-dasharray:3 3" />
<line x1="1254" y1="1" x2="1254" y2="108" style="stroke:#ddd;stroke-width:2;stroke-dasharray:3 3" />
<path d="M10.24,21.64c0.63,0.41,3.81,1.01,4.46,0.95c6.66-0.58,22.3-1.84,27.05-2.07c1.6-0.08,3.38-0.17,4.75,0.35" style="fill:none;stroke:black;stroke-width:3" />
<circle cx="10.24" cy="21.64" r="5" stroke-width="0" fill="#FF2A00" opacity="0.7" />
<path d="M119.24,21.64c0.63,0.41,3.81,1.01,4.46,0.95c6.66-0.58,22.3-1.84,27.05-2.07c1.6-0.08,3.38-0.17,4.75,0.35" style="fill:none;stroke:#999;stroke-width:3" />
<path d="M121.97,38.84c0.28,0.91,1.09,2.66,1.09,5.01c0,0.99-0.14,47.41,0,48.39" style="fill:none;stroke:black;stroke-width:3" />
<circle cx="121.97" cy="38.84" r="5" stroke-width="0" fill="#FF2A00" opacity="0.7" />
<path d="M228.24,21.64c0.63,0.41,3.81,1.01,4.46,0.95c6.66-0.58,22.3-1.84,27.05-2.07c1.6-0.08,3.38-0.17,4.75,0.35" style="fill:none;stroke:#999;stroke-width:3" />
<path d="M230.97,38.84c0.28,0.91,1.09,2.66,1.09,5.01c0,0.99-0.14,47.41,0,48.39" style="fill:none;stroke:#999;stroke-width:3" />
<path d="M231.76,40.88c2.41-0.12,24.79-2.28,26.98-2.59c2.27-0.32,4.15,1.19,4.15,3.98c0,1.56-0.35,47.65-0.35,48.39" style="fill:none;stroke:black;stroke-width:3" />
<circle cx="231.76" cy="40.88" r="5" stroke-width="0" fill="#FF2A00" opacity="0.7" />
<path d="M337.24,21.64c0.63,0.41,3.81,1.01,4.46,0.95c6.66-0.58,22.3-1.84,27.05-2.07c1.6-0.08,3.38-0.17,4.75,0.35" style="fill:none;stroke:#999;stroke-width:3" />
<path d="M339.97,38.84c0.28,0.91,1.09,2.66,1.09,5.01c0,0.99-0.14,47.41,0,48.39" style="fill:none;stroke:#999;stroke-width:3" />
<path d="M340.76,40.88c2.41-0.12,24.79-2.28,26.98-2.59c2.27-0.32,4.15,1.19,4.15,3.98c0,1.56-0.35,47.65-0.35,48.39" style="fill:none;stroke:#999;stroke-width:3" />
<path d="M350.98,25.72c0.64,1.26,1.04,2.99,0.94,4.73c-0.87,16.04-2.66,25.37-6.5,33.14" style="fill:none;stroke:black;stroke-width:3" />
<circle cx="350.98" cy="25.72" r="5" stroke-width="0" fill="#FF2A00" opacity="0.7" />
<path d="M446.24,21.64c0.63,0.41,3.81,1.01,4.46,0.95c6.66-0.58,22.3-1.84,27.05-2.07c1.6-0.08,3.38-0.17,4.75,0.35" style="fill:none;stroke:#999;stroke-width:3" />
<path d="M448.97,38.84c0.28,0.91,1.09,2.66,1.09,5.01c0,0.99-0.14,47.41,0,48.39" style="fill:none;stroke:#999;stroke-width:3" />
<path d="M449.76,40.88c2.41-0.12,24.79-2.28,26.98-2.59c2.27-0.32,4.15,1.19,4.15,3.98c0,1.56-0.35,47.65-0.35,48.39" style="fill:none;stroke:#999;stroke-width:3" />
<path d="M459.98,25.72c0.64,1.26,1.04,2.99,0.94,4.73c-0.87,16.04-2.66,25.37-6.5,33.14" style="fill:none;stroke:#999;stroke-width:3" />
<path d="M468.71,23.54c0.43,1.21,0.77,2.65,0.8,4.52c0.08,5.94-0.19,16-0.23,23.34c-0.03,6.37,1.86,7.69,4.88,7.69c3.06,0,5.17-0.22,5.47-0.93" style="fill:none;stroke:black;stroke-width:3" />
<circle cx="468.71" cy="23.54" r="5" stroke-width="0" fill="#FF2A00" opacity="0.7" />
<path d="M555.24,21.64c0.63,0.41,3.81,1.01,4.46,0.95c6.66-0.58,22.3-1.84,27.05-2.07c1.6-0.08,3.38-0.17,4.75,0.35" style="fill:none;stroke:#999;stroke-width:3" />
<path d="M557.97,38.84c0.28,0.91,1.09,2.66,1.09,5.01c0,0.99-0.14,47.41,0,48.39" style="fill:none;stroke:#999;stroke-width:3" />
<path d="M558.76,40.88c2.41-0.12,24.79-2.28,26.98-2.59c2.27-0.32,4.15,1.19,4.15,3.98c0,1.56-0.35,47.65-0.35,48.39" style="fill:none;stroke:#999;stroke-width:3" />
<path d="M568.98,25.72c0.64,1.26,1.04,2.99,0.94,4.73c-0.87,16.04-2.66,25.37-6.5,33.14" style="fill:none;stroke:#999;stroke-width:3" />
<path d="M577.71,23.54c0.43,1.21,0.77,2.65,0.8,4.52c0.08,5.94-0.19,16-0.23,23.34c-0.03,6.37,1.86,7.69,4.88,7.69c3.06,0,5.17-0.22,5.47-0.93" style="fill:none;stroke:#999;stroke-width:3" />
<path d="M559.69,74.01c3.27,0,26.2-2.69,29.89-2.69" style="fill:none;stroke:black;stroke-width:3" />
<circle cx="559.69" cy="74.01" r="5" stroke-width="0" fill="#FF2A00" opacity="0.7" />
<path d="M664.24,21.64c0.63,0.41,3.81,1.01,4.46,0.95c6.66-0.58,22.3-1.84,27.05-2.07c1.6-0.08,3.38-0.17,4.75,0.35" style="fill:none;stroke:#999;stroke-width:3" />
<path d="M666.97,38.84c0.28,0.91,1.09,2.66,1.09,5.01c0,0.99-0.14,47.41,0,48.39" style="fill:none;stroke:#999;stroke-width:3" />
<path d="M667.76,40.88c2.41-0.12,24.79-2.28,26.98-2.59c2.27-0.32,4.15,1.19,4.15,3.98c0,1.56-0.35,47.65-0.35,48.39" style="fill:none;stroke:#999;stroke-width:3" />
<path d="M677.98,25.72c0.64,1.26,1.04,2.99,0.94,4.73c-0.87,16.04-2.66,25.37-6.5,33.14" style="fill:none;stroke:#999;stroke-width:3" />
<path d="M686.71,23.54c0.43,1.21,0.77,2.65,0.8,4.52c0.08,5.94-0.19,16-0.23,23.34c-0.03,6.37,1.86,7.69,4.88,7.69c3.06,0,5.17-0.22,5.47-0.93" style="fill:none;stroke:#999;stroke-width:3" />
<path d="M668.69,74.01c3.27,0,26.2-2.69,29.89-2.69" style="fill:none;stroke:#999;stroke-width:3" />
<path d="M668.54,88.94c6.65-0.53,21.75-1.45,30.03-1.9" style="fill:none;stroke:black;stroke-width:3" />
<circle cx="668.54" cy="88.94" r="5" stroke-width="0" fill="#FF2A00" opacity="0.7" />
<path d="M773.24,21.64c0.63,0.41,3.81,1.01,4.46,0.95c6.66-0.58,22.3-1.84,27.05-2.07c1.6-0.08,3.38-0.17,4.75,0.35" style="fill:none;stroke:#999;stroke-width:3" />
<path d="M775.97,38.84c0.28,0.91,1.09,2.66,1.09,5.01c0,0.99-0.14,47.41,0,48.39" style="fill:none;stroke:#999;stroke-width:3" />
<path d="M776.76,40.88c2.41-0.12,24.79-2.28,26.98-2.59c2.27-0.32,4.15,1.19,4.15,3.98c0,1.56-0.35,47.65-0.35,48.39" style="fill:none;stroke:#999;stroke-width:3" />
<path d="M786.98,25.72c0.64,1.26,1.04,2.99,0.94,4.73c-0.87,16.04-2.66,25.37-6.5,33.14" style="fill:none;stroke:#999;stroke-width:3" />
<path d="M795.71,23.54c0.43,1.21,0.77,2.65,0.8,4.52c0.08,5.94-0.19,16-0.23,23.34c-0.03,6.37,1.86,7.69,4.88,7.69c3.06,0,5.17-0.22,5.47-0.93" style="fill:none;stroke:#999;stroke-width:3" />
<path d="M777.69,74.01c3.27,0,26.2-2.69,29.89-2.69" style="fill:none;stroke:#999;stroke-width:3" />
<path d="M777.54,88.94c6.65-0.53,21.75-1.45,30.03-1.9" style="fill:none;stroke:#999;stroke-width:3" />
<path d="M810.86,34.52c1.29,0.46,3.67,0.57,4.96,0.46c9.52-0.84,24.18-1.73,39.79-2.83c2.15-0.15,3.45,0.22,4.53,0.45" style="fill:none;stroke:black;stroke-width:3" />
<circle cx="810.86" cy="34.52" r="5" stroke-width="0" fill="#FF2A00" opacity="0.7" />
<path d="M882.24,21.64c0.63,0.41,3.81,1.01,4.46,0.95c6.66-0.58,22.3-1.84,27.05-2.07c1.6-0.08,3.38-0.17,4.75,0.35" style="fill:none;stroke:#999;stroke-width:3" />
<path d="M884.97,38.84c0.28,0.91,1.09,2.66,1.09,5.01c0,0.99-0.14,47.41,0,48.39" style="fill:none;stroke:#999;stroke-width:3" />
<path d="M885.76,40.88c2.41-0.12,24.79-2.28,26.98-2.59c2.27-0.32,4.15,1.19,4.15,3.98c0,1.56-0.35,47.65-0.35,48.39" style="fill:none;stroke:#999;stroke-width:3" />
<path d="M895.98,25.72c0.64,1.26,1.04,2.99,0.94,4.73c-0.87,16.04-2.66,25.37-6.5,33.14" style="fill:none;stroke:#999;stroke-width:3" />
<path d="M904.71,23.54c0.43,1.21,0.77,2.65,0.8,4.52c0.08,5.94-0.19,16-0.23,23.34c-0.03,6.37,1.86,7.69,4.88,7.69c3.06,0,5.17-0.22,5.47-0.93" style="fill:none;stroke:#999;stroke-width:3" />
<path d="M886.69,74.01c3.27,0,26.2-2.69,29.89-2.69" style="fill:none;stroke:#999;stroke-width:3" />
<path d="M886.54,88.94c6.65-0.53,21.75-1.45,30.03-1.9" style="fill:none;stroke:#999;stroke-width:3" />
<path d="M919.86,34.52c1.29,0.46,3.67,0.57,4.96,0.46c9.52-0.84,24.18-1.73,39.79-2.83c2.15-0.15,3.45,0.22,4.53,0.45" style="fill:none;stroke:#999;stroke-width:3" />
<path d="M929.17,18.87c1.07,0.49,1.71,2.19,1.93,3.17c0.21,0.98,0,65.12-0.21,71.21" style="fill:none;stroke:black;stroke-width:3" />
<circle cx="929.17" cy="18.87" r="5" stroke-width="0" fill="#FF2A00" opacity="0.7" />
<path d="M991.24,21.64c0.63,0.41,3.81,1.01,4.46,0.95c6.66-0.58,22.3-1.84,27.05-2.07c1.6-0.08,3.38-0.17,4.75,0.35" style="fill:none;stroke:#999;stroke-width:3" />
<path d="M993.97,38.84c0.28,0.91,1.09,2.66,1.09,5.01c0,0.99-0.14,47.41,0,48.39" style="fill:none;stroke:#999;stroke-width:3" />
<path d="M994.76,40.88c2.41-0.12,24.79-2.28,26.98-2.59c2.27-0.32,4.15,1.19,4.15,3.98c0,1.56-0.35,47.65-0.35,48.39" style="fill:none;stroke:#999;stroke-width:3" />
<path d="M1004.98,25.72c0.64,1.26,1.04,2.99,0.94,4.73c-0.87,16.04-2.66,25.37-6.5,33.14" style="fill:none;stroke:#999;stroke-width:3" />
<path d="M1013.71,23.54c0.43,1.21,0.77,2.65,0.8,4.52c0.08,5.94-0.19,16-0.23,23.34c-0.03,6.37,1.86,7.69,4.88,7.69c3.06,0,5.17-0.22,5.47-0.93" style="fill:none;stroke:#999;stroke-width:3" />
<path d="M995.69,74.01c3.27,0,26.2-2.69,29.89-2.69" style="fill:none;stroke:#999;stroke-width:3" />
<path d="M995.54,88.94c6.65-0.53,21.75-1.45,30.03-1.9" style="fill:none;stroke:#999;stroke-width:3" />
<path d="M1028.8600000000001,34.52c1.29,0.46,3.67,0.57,4.96,0.46c9.52-0.84,24.18-1.73,39.79-2.83c2.15-0.15,3.45,0.22,4.53,0.45" style="fill:none;stroke:#999;stroke-width:3" />
<path d="M1038.17,18.87c1.07,0.49,1.71,2.19,1.93,3.17c0.21,0.98,0,65.12-0.21,71.21" style="fill:none;stroke:#999;stroke-width:3" />
<path d="M1063.62,13.5c1.07,0.49,1.71,2.19,1.93,3.17c0.21,0.98,0,70.01-0.21,76.1" style="fill:none;stroke:black;stroke-width:3" />
<circle cx="1063.62" cy="13.5" r="5" stroke-width="0" fill="#FF2A00" opacity="0.7" />
<path d="M1100.24,21.64c0.63,0.41,3.81,1.01,4.46,0.95c6.66-0.58,22.3-1.84,27.05-2.07c1.6-0.08,3.38-0.17,4.75,0.35" style="fill:none;stroke:#999;stroke-width:3" />
<path d="M1102.97,38.84c0.28,0.91,1.09,2.66,1.09,5.01c0,0.99-0.14,47.41,0,48.39" style="fill:none;stroke:#999;stroke-width:3" />
<path d="M1103.76,40.88c2.41-0.12,24.79-2.28,26.98-2.59c2.27-0.32,4.15,1.19,4.15,3.98c0,1.56-0.35,47.65-0.35,48.39" style="fill:none;stroke:#999;stroke-width:3" />
<path d="M1113.98,25.72c0.64,1.26,1.04,2.99,0.94,4.73c-0.87,16.04-2.66,25.37-6.5,33.14" style="fill:none;stroke:#999;stroke-width:3" />
<path d="M1122.71,23.54c0.43,1.21,0.77,2.65,0.8,4.52c0.08,5.94-0.19,16-0.23,23.34c-0.03,6.37,1.86,7.69,4.88,7.69c3.06,0,5.17-0.22,5.47-0.93" style="fill:none;stroke:#999;stroke-width:3" />
<path d="M1104.69,74.01c3.27,0,26.2-2.69,29.89-2.69" style="fill:none;stroke:#999;stroke-width:3" />
<path d="M1104.54,88.94c6.65-0.53,21.75-1.45,30.03-1.9" style="fill:none;stroke:#999;stroke-width:3" />
<path d="M1137.8600000000001,34.52c1.29,0.46,3.67,0.57,4.96,0.46c9.52-0.84,24.18-1.73,39.79-2.83c2.15-0.15,3.45,0.22,4.53,0.45" style="fill:none;stroke:#999;stroke-width:3" />
<path d="M1147.17,18.87c1.07,0.49,1.71,2.19,1.93,3.17c0.21,0.98,0,65.12-0.21,71.21" style="fill:none;stroke:#999;stroke-width:3" />
<path d="M1172.62,13.5c1.07,0.49,1.71,2.19,1.93,3.17c0.21,0.98,0,70.01-0.21,76.1" style="fill:none;stroke:#999;stroke-width:3" />
<path d="M1149.26,58.84c5.49-0.34,22.28-1.93,25.23-1.93" style="fill:none;stroke:black;stroke-width:3" />
<circle cx="1149.26" cy="58.84" r="5" stroke-width="0" fill="#FF2A00" opacity="0.7" />
<path d="M1209.24,21.64c0.63,0.41,3.81,1.01,4.46,0.95c6.66-0.58,22.3-1.84,27.05-2.07c1.6-0.08,3.38-0.17,4.75,0.35" style="fill:none;stroke:#999;stroke-width:3" />
<path d="M1211.97,38.84c0.28,0.91,1.09,2.66,1.09,5.01c0,0.99-0.14,47.41,0,48.39" style="fill:none;stroke:#999;stroke-width:3" />
<path d="M1212.76,40.88c2.41-0.12,24.79-2.28,26.98-2.59c2.27-0.32,4.15,1.19,4.15,3.98c0,1.56-0.35,47.65-0.35,48.39" style="fill:none;stroke:#999;stroke-width:3" />
<path d="M1222.98,25.72c0.64,1.26,1.04,2.99,0.94,4.73c-0.87,16.04-2.66,25.37-6.5,33.14" style="fill:none;stroke:#999;stroke-width:3" />
<path d="M1231.71,23.54c0.43,1.21,0.77,2.65,0.8,4.52c0.08,5.94-0.19,16-0.23,23.34c-0.03,6.37,1.86,7.69,4.88,7.69c3.06,0,5.17-0.22,5.47-0.93" style="fill:none;stroke:#999;stroke-width:3" />
<path d="M1213.69,74.01c3.27,0,26.2-2.69,29.89-2.69" style="fill:none;stroke:#999;stroke-width:3" />
<path d="M1213.54,88.94c6.65-0.53,21.75-1.45,30.03-1.9" style="fill:none;stroke:#999;stroke-width:3" />
<path d="M1246.8600000000001,34.52c1.29,0.46,3.67,0.57,4.96,0.46c9.52-0.84,24.18-1.73,39.79-2.83c2.15-0.15,3.45,0.22,4.53,0.45" style="fill:none;stroke:#999;stroke-width:3" />
<path d="M1256.17,18.87c1.07,0.49,1.71,2.19,1.93,3.17c0.21,0.98,0,65.12-0.21,71.21" style="fill:none;stroke:#999;stroke-width:3" />
<path d="M1281.62,13.5c1.07,0.49,1.71,2.19,1.93,3.17c0.21,0.98,0,70.01-0.21,76.1" style="fill:none;stroke:#999;stroke-width:3" />
<path d="M1258.26,58.84c5.49-0.34,22.28-1.93,25.23-1.93" style="fill:none;stroke:#999;stroke-width:3" />
<path d="M1258.26,89.15c6.4-0.24,19.08-0.71,24.98-0.95" style="fill:none;stroke:black;stroke-width:3" />
<circle cx="1258.26" cy="89.15" r="5" stroke-width="0" fill="#FF2A00" opacity="0.7" />
</svg>