<!-- 091c7 -->
<svg width="872px" height="109px" viewBox="0 0 872px 109px" xmlns="http://www.w3.org/2000/svg" xmlns:xlink="http://www.w3.org/1999/xlink" xml:space="preserve" version="1.1"  baseProfile="full">
<line x1="1" y1="1" x2="871" y2="1" style="stroke:#ddd;stroke-width:2" />
<line x1="1" y1="1" x2="1" y2="108" style="stroke:#ddd;stroke-width:2" />
<line x1="1" y1="108" x2="871" y2="108" style="stroke:#ddd;stroke-width:2" />
<line x1="871" y1="1" x2="871" y2="108" style="stroke:#ddd;stroke-width:2" />
<line x1="109" y1="1" x2="109" y2="108" style="stroke:#ddd;stroke-width:2" />
<line x1="218" y1="1" x2="218" y2="108" style="stroke:#ddd;stroke-width:2" />
<line x1="327" y1="1" x2="327" y2="108" style="stroke:#ddd;stroke-width:2" />
<line x1="436" y1="1" x2="436" y2="108" style="stroke:#ddd;stroke-width:2" />
<line x1="545" y1="1" x2="545" y2="108" style="stroke:#ddd;stroke-width:2" />
<line x1="654" y1="1" x2="654" y2="108" style="stroke:#ddd;stroke-width:2" />
<line x1="763" y1="1" x2="763" y2="108" style="stroke:#ddd;stroke-width:2" />
<line x1="1" y1="54" x2="871" y2="54" style="stroke:#ddd;stroke-width:2;stroke-dasharray:3 3" />
<line x1="55" y1="1" x2="55" y2="108" style="stroke:#ddd;stroke-width:2;stroke-dasharray:3 3" />
<line x1="164" y1="1" x2="164" y2="108" style="stroke:#ddd;stroke-width:2;stroke-dasharray:3 3" />
<line x1="273" y1="1" x2="273" y2="108" style="stroke:#ddd;stroke-width:2;stroke-dasharray:3 3" />
<line x1="382" y1="1" x2="382" y2="108" style="stroke:#ddd;stroke-width:2;stroke-dasharray:3 3" />
<line x1="491" y1="1" x2="491" y2="108" style="stroke:#ddd;stroke-width:2;stroke-dasharray:3 3" />
<line x1="600" y1="1" x2="600" y2="108" style="stroke:#ddd;stroke-width:2;stroke-dasharray:3 3" />
<line x1="709" y1="1" x2="709" y2="108" style="stroke:#ddd;stroke-width:2;stroke-dasharray:3 3" />
<line x1="818" y1="1" x2="818" y2="108" style="stroke:#ddd;stroke-width:2;stroke-dasharray:3 3" />
<path d="M69.02,11.68c-0.4,1.07-1.02,1.57-2.29,2.38c-4.96,3.16-18.84,8.15-37,11.61" style="fill:none;stroke:black;stroke-width:3" />
<circle cx="69.02" cy="11.68" r="5" stroke-width="0" fill="#FF2A00" opacity="0.7" />
<path d="M178.01999999999998,11.68c-0.4,1.07-1.02,1.57-2.29,2.38c-4.96,3.16-18.84,8.15-37,11.61" style="fill:none;stroke:#999;stroke-width:3" />
<path d="M132.27,32.86c3.24,2.13,8.37,8.76,9.18,12.07" style="fill:none;stroke:black;stroke-width:3" />
<circle cx="132.27" cy="32.86" r="5" stroke-width="0" fill="#FF2A00" opacity="0.7" />
<path d="M287.02,11.68c-0.4,1.07-1.02,1.57-2.29,2.38c-4.96,3.16-18.84,8.15-37,11.61" style="fill:none;stroke:#999;stroke-width:3" />
<path d="M241.27,32.86c3.24,2.13,8.37,8.76,9.18,12.07" style="fill:none;stroke:#999;stroke-width:3" />
<path d="M265.27,27.7c3.02,2.42,7.78,9.95,8.54,13.71" style="fill:none;stroke:black;stroke-width:3" />
<circle cx="265.27" cy="27.7" r="5" stroke-width="0" fill="#FF2A00" opacity="0.7" />
<path d="M396.02,11.68c-0.4,1.07-1.02,1.57-2.29,2.38c-4.96,3.16-18.84,8.15-37,11.61" style="fill:none;stroke:#999;stroke-width:3" />
<path d="M350.27,32.86c3.24,2.13,8.37,8.76,9.18,12.07" style="fill:none;stroke:#999;stroke-width:3" />
<path d="M374.27,27.7c3.02,2.42,7.78,9.95,8.54,13.71" style="fill:none;stroke:#999;stroke-width:3" />
<path d="M413.01,23.28c0.08,0.91-0.3,1.97-0.68,2.75c-2.22,4.62-7.74,12.05-14.95,17.95" style="fill:none;stroke:black;stroke-width:3" />
<circle cx="413.01" cy="23.28" r="5" stroke-width="0" fill="#FF2A00" opacity="0.7" />
<path d="M505.02,11.68c-0.4,1.07-1.02,1.57-2.29,2.38c-4.96,3.16-18.84,8.15-37,11.61" style="fill:none;stroke:#999;stroke-width:3" />
<path d="M459.27,32.86c3.24,2.13,8.37,8.76,9.18,12.07" style="fill:none;stroke:#999;stroke-width:3" />
<path d="M483.27,27.7c3.02,2.42,7.78,9.95,8.54,13.71" style="fill:none;stroke:#999;stroke-width:3" />
<path d="M522.01,23.28c0.08,0.91-0.3,1.97-0.68,2.75c-2.22,4.62-7.74,12.05-14.95,17.95" style="fill:none;stroke:#999;stroke-width:3" />
<path d="M455.0,59.25c3.11,1.2,7.13,0.69,10.38,0.51c10.76-0.61,35.24-1.66,49.75-2.28c3.22-0.14,6.47,0.14,9.62,0.77" style="fill:none;stroke:black;stroke-width:3" />
<circle cx="455.0" cy="59.25" r="5" stroke-width="0" fill="#FF2A00" opacity="0.7" />
<path d="M614.02,11.68c-0.4,1.07-1.02,1.57-2.29,2.38c-4.96,3.16-18.84,8.15-37,11.61" style="fill:none;stroke:#999;stroke-width:3" />
<path d="M568.27,32.86c3.24,2.13,8.37,8.76,9.18,12.07" style="fill:none;stroke:#999;stroke-width:3" />
<path d="M592.27,27.7c3.02,2.42,7.78,9.95,8.54,13.71" style="fill:none;stroke:#999;stroke-width:3" />
<path d="M631.01,23.28c0.08,0.91-0.3,1.97-0.68,2.75c-2.22,4.62-7.74,12.05-14.95,17.95" style="fill:none;stroke:#999;stroke-width:3" />
<path d="M564.0,59.25c3.11,1.2,7.13,0.69,10.38,0.51c10.76-0.61,35.24-1.66,49.75-2.28c3.22-0.14,6.47,0.14,9.62,0.77" style="fill:none;stroke:#999;stroke-width:3" />
<path d="M597.94,46c1.09,1.09,1.41,2.25,1.41,3.95c0,3.09-0.06,27.49-0.09,40.92c-0.01,3.08-0.01,5.59-0.01,7.12" style="fill:none;stroke:black;stroke-width:3" />
<circle cx="597.94" cy="46.0" r="5" stroke-width="0" fill="#FF2A00" opacity="0.7" />
<path d="M723.02,11.68c-0.4,1.07-1.02,1.57-2.29,2.38c-4.96,3.16-18.84,8.15-37,11.61" style="fill:none;stroke:#999;stroke-width:3" />
<path d="M677.27,32.86c3.24,2.13,8.37,8.76,9.18,12.07" style="fill:none;stroke:#999;stroke-width:3" />
<path d="M701.27,27.7c3.02,2.42,7.78,9.95,8.54,13.71" style="fill:none;stroke:#999;stroke-width:3" />
<path d="M740.01,23.28c0.08,0.91-0.3,1.97-0.68,2.75c-2.22,4.62-7.74,12.05-14.95,17.95" style="fill:none;stroke:#999;stroke-width:3" />
<path d="M673.0,59.25c3.11,1.2,7.13,0.69,10.38,0.51c10.76-0.61,35.24-1.66,49.75-2.28c3.22-0.14,6.47,0.14,9.62,0.77" style="fill:none;stroke:#999;stroke-width:3" />
<path d="M706.94,46c1.09,1.09,1.41,2.25,1.41,3.95c0,3.09-0.06,27.49-0.09,40.92c-0.01,3.08-0.01,5.59-0.01,7.12" style="fill:none;stroke:#999;stroke-width:3" />
<path d="M706.25,59.7c0,1.3-0.5,2.43-1.75,4.02c-7.22,9.24-21.89,20.94-34.25,26.93" style="fill:none;stroke:black;stroke-width:3" />
<circle cx="706.25" cy="59.7" r="5" stroke-width="0" fill="#FF2A00" opacity="0.7" />
<path d="M832.02,11.68c-0.4,1.07-1.02,1.57-2.29,2.38c-4.96,3.16-18.84,8.15-37,11.61" style="fill:none;stroke:#999;stroke-width:3" />
<path d="M786.27,32.86c3.24,2.13,8.37,8.76,9.18,12.07" style="fill:none;stroke:#999;stroke-width:3" />
<path d="M810.27,27.7c3.02,2.42,7.78,9.95,8.54,13.71" style="fill:none;stroke:#999;stroke-width:3" />
<path d="M849.01,23.28c0.08,0.91-0.3,1.97-0.68,2.75c-2.22,4.62-7.74,12.05-14.95,17.95" style="fill:none;stroke:#999;stroke-width:3" />
<path d="M782.0,59.25c3.11,1.2,7.13,0.69,10.38,0.51c10.76-0.61,35.24-1.66,49.75-2.28c3.22-0.14,6.47,0.14,9.62,0.77" style="fill:none;stroke:#999;stroke-width:3" />
<path d="M815.94,46c1.09,1.09,1.41,2.25,1.41,3.95c0,3.09-0.06,27.49-0.09,40.92c-0.01,3.08-0.01,5.59-0.01,7.12" style="fill:none;stroke:#999;stroke-width:3" />
<path d="M815.25,59.7c0,1.3-0.5,2.43-1.75,4.02c-7.22,9.24-21.89,20.94-34.25,26.93" style="fill:none;stroke:#999;stroke-width:3" />
<path d="M818.5,60c4.84,5.13,17.32,16.16,24.72,22.51C846.12,85 849.0,86.75 852.0,88.25" style="fill:none;stroke:black;stroke-width:3" />
<circle cx="818.5" cy="60.0" r="5" stroke-width="0" fill="#FF2A00" opacity="0.7" />
</svg>