<!-- 09248 -->
<svg width="1417px" height="109px" viewBox="0 0 1417px 109px" xmlns="http://www.w3.org/2000/svg" xmlns:xlink="http://www.w3.org/1999/xlink" xml:space="preserve" version="1.1"  baseProfile="full">
<line x1="1" y1="1" x2="1416" y2="1" style="stroke:#ddd;stroke-width:2" />
<line x1="1" y1="1" x2="1" y2="108" style="stroke:#ddd;stroke-width:2" />
<line x1="1" y1="108" x2="1416" y2="108" style="stroke:#ddd;stroke-width:2" />
<line x1="1416" y1="1" x2="1416" y2="108" style="stroke:#ddd;stroke-width:2" />
<line x1="109" y1="1" x2="109" y2="108" style="stroke:#ddd;stroke-width:2" />
<line x1="218" y1="1" x2="218" y2="108" style="stroke:#ddd;stroke-width:2" />
<line x1="327" y1="1" x2="327" y2="108" style="stroke:#ddd;stroke-width:2" />
<line x1="436" y1="1" x2="436" y2="108" style="stroke:#ddd;stroke-width:2" />
<line x1="545" y1="1" x2="545" y2="108" style="stroke:#ddd;stroke-width:2" />
<line x1="654" y1="1" x2="654" y2="108" style="stroke:#ddd;stroke-width:2" />
<line x1="763" y1="1" x2="763" y2="108" style="stroke:#ddd;stroke-width:2" />
<line x1="872" y1="1" x2="872" y2="108" style="stroke:#ddd;stroke-width:2" />
<line x1="981" y1="1" x2="981" y2="108" style="stroke:#ddd;stroke-width:2" />
<line x1="1090" y1="1" x2="1090" y2="108" style="stroke:#ddd;stroke-width:2" />
<line x1="1199" y1="1" x2="1199" y2="108" style="stroke:#ddd;stroke-width:2" />
<line x1="1308" y1="1" x2="1308" y2="108" style="stroke:#ddd;stroke-width:2" />
<line x1="1" y1="54" x2="1416" y2="54" style="stroke:#ddd;stroke-width:2;stroke-dasharray:3 3" />
<line x1="55" y1="1" x2="55" y2="108" style="stroke:#ddd;stroke-width:2;stroke-dasharray:3 3" />
<line x1="164" y1="1" x2="164" y2="108" style="stroke:#ddd;stroke-width:2;stroke-dasharray:3 3" />
<line x1="273" y1="1" x2="273" y2="108" style="stroke:#ddd;stroke-width:2;stroke-dasharray:3 3" />
<line x1="382" y1="1" x2="382" y2="108" style="stroke:#ddd;stroke-width:2;stroke-dasharray:3 3" />
<line x1="491" y1="1" x2="491" y2="108" style="stroke:#ddd;stroke-width:2;stroke-dasharray:3 3" />
<line x1="600" y1="1" x2="600" y2="108" style="stroke:#ddd;stroke-width:2;stroke-dasharray:3 3" />
<line x1="709" y1="1" x2="709" y2="108" style="stroke:#ddd;stroke-width:2;stroke-dasharray:3 3" />
<line x1="818" y1="1" x2="818" y2="108" style="stroke:#ddd;stroke-width:2;stroke-dasharray:3 3" />
<line x1="927" y1="1" x2="927" y2="108" style="stroke:#ddd;stroke-width:2;stroke-dasharray:3 3" />
<line x1="1036" y1="1" x2="1036" y2="108" style="stroke:#ddd;stroke-width:2;stroke-dasharray:3 3" />
<line x1="1145" y1="1" x2="1145" y2="108" style="stroke:#ddd;stroke-width:2;stroke-dasharray:3 3" />
<line x1="1254" y1="1" x2="1254" y2="108" style="stroke:#ddd;stroke-width:2;stroke-dasharray:3 3" />
<line x1="1363" y1="1" x2="1363" y2="108" style="stroke:#ddd;stroke-width:2;stroke-dasharray:3 3" />
<path d="M29.25,13.24c0,0.78,0.05,1.41-0.14,2.35c-0.99,4.9-10.36,21.27-18.39,28.53" style="fill:none;stroke:black;stroke-width:3" />
<circle cx="29.25" cy="13.24" r="5" stroke-width="0" fill="#FF2A00" opacity="0.7" />
<path d="M138.25,13.24c0,0.78,0.05,1.41-0.14,2.35c-0.99,4.9-10.36,21.27-18.39,28.53" style="fill:none;stroke:#999;stroke-width:3" />
<path d="M139.39,18.71C144.22,20.7 150.4,25.99 152.75,31" style="fill:none;stroke:black;stroke-width:3" />
<circle cx="139.39" cy="18.71" r="5" stroke-width="0" fill="#FF2A00" opacity="0.7" />
<path d="M247.25,13.24c0,0.78,0.05,1.41-0.14,2.35c-0.99,4.9-10.36,21.27-18.39,28.53" style="fill:none;stroke:#999;stroke-width:3" />
<path d="M248.39,18.71C253.22,20.7 259.4,25.99 261.75,31" style="fill:none;stroke:#999;stroke-width:3" />
<path d="M237.5,40c1.68,0,2.44,0.09,2.98,0.06C245.32,39.74 251.5,39 256.6,38.3c0.82-0.11,1-0.05,2.4-0.05" style="fill:none;stroke:black;stroke-width:3" />
<circle cx="237.5" cy="40.0" r="5" stroke-width="0" fill="#FF2A00" opacity="0.7" />
<path d="M356.25,13.24c0,0.78,0.05,1.41-0.14,2.35c-0.99,4.9-10.36,21.27-18.39,28.53" style="fill:none;stroke:#999;stroke-width:3" />
<path d="M357.39,18.71C362.22,20.7 368.4,25.99 370.75,31" style="fill:none;stroke:#999;stroke-width:3" />
<path d="M346.5,40c1.68,0,2.44,0.09,2.98,0.06C354.32,39.74 360.5,39 365.6,38.3c0.82-0.11,1-0.05,2.4-0.05" style="fill:none;stroke:#999;stroke-width:3" />
<path d="M339.59,54.81c0.65,0.33,2.77,0.43,3.44,0.43C349.0,55.25 361.0,53.75 367.74,53.08c0.81-0.08,2.58-0.13,3.78,0.15" style="fill:none;stroke:black;stroke-width:3" />
<circle cx="339.59" cy="54.81" r="5" stroke-width="0" fill="#FF2A00" opacity="0.7" />
<path d="M465.25,13.24c0,0.78,0.05,1.41-0.14,2.35c-0.99,4.9-10.36,21.27-18.39,28.53" style="fill:none;stroke:#999;stroke-width:3" />
<path d="M466.39,18.71C471.22,20.7 477.4,25.99 479.75,31" style="fill:none;stroke:#999;stroke-width:3" />
<path d="M455.5,40c1.68,0,2.44,0.09,2.98,0.06C463.32,39.74 469.5,39 474.6,38.3c0.82-0.11,1-0.05,2.4-0.05" style="fill:none;stroke:#999;stroke-width:3" />
<path d="M448.59,54.81c0.65,0.33,2.77,0.43,3.44,0.43C458.0,55.25 470.0,53.75 476.74,53.08c0.81-0.08,2.58-0.13,3.78,0.15" style="fill:none;stroke:#999;stroke-width:3" />
<path d="M464.45,41.69c1.24,0.78,1.24,2.52,1.24,3.14c0,4.35,0.31,35.42,0.31,40.98" style="fill:none;stroke:black;stroke-width:3" />
<circle cx="464.45" cy="41.69" r="5" stroke-width="0" fill="#FF2A00" opacity="0.7" />
<path d="M574.25,13.24c0,0.78,0.05,1.41-0.14,2.35c-0.99,4.9-10.36,21.27-18.39,28.53" style="fill:none;stroke:#999;stroke-width:3" />
<path d="M575.39,18.71C580.22,20.7 586.4,25.99 588.75,31" style="fill:none;stroke:#999;stroke-width:3" />
<path d="M564.5,40c1.68,0,2.44,0.09,2.98,0.06C572.3199999999999,39.74 578.5,39 583.6,38.3c0.82-0.11,1-0.05,2.4-0.05" style="fill:none;stroke:#999;stroke-width:3" />
<path d="M557.5899999999999,54.81c0.65,0.33,2.77,0.43,3.44,0.43C567.0,55.25 579.0,53.75 585.74,53.08c0.81-0.08,2.58-0.13,3.78,0.15" style="fill:none;stroke:#999;stroke-width:3" />
<path d="M573.45,41.69c1.24,0.78,1.24,2.52,1.24,3.14c0,4.35,0.31,35.42,0.31,40.98" style="fill:none;stroke:#999;stroke-width:3" />
<path d="M559.14,64.51c4.82,5.51,7.17,11.47,8.15,14.69" style="fill:none;stroke:black;stroke-width:3" />
<circle cx="559.14" cy="64.51" r="5" stroke-width="0" fill="#FF2A00" opacity="0.7" />
<path d="M683.25,13.24c0,0.78,0.05,1.41-0.14,2.35c-0.99,4.9-10.36,21.27-18.39,28.53" style="fill:none;stroke:#999;stroke-width:3" />
<path d="M684.39,18.71C689.22,20.7 695.4,25.99 697.75,31" style="fill:none;stroke:#999;stroke-width:3" />
<path d="M673.5,40c1.68,0,2.44,0.09,2.98,0.06C681.3199999999999,39.74 687.5,39 692.6,38.3c0.82-0.11,1-0.05,2.4-0.05" style="fill:none;stroke:#999;stroke-width:3" />
<path d="M666.5899999999999,54.81c0.65,0.33,2.77,0.43,3.44,0.43C676.0,55.25 688.0,53.75 694.74,53.08c0.81-0.08,2.58-0.13,3.78,0.15" style="fill:none;stroke:#999;stroke-width:3" />
<path d="M682.45,41.69c1.24,0.78,1.24,2.52,1.24,3.14c0,4.35,0.31,35.42,0.31,40.98" style="fill:none;stroke:#999;stroke-width:3" />
<path d="M668.14,64.51c4.82,5.51,7.17,11.47,8.15,14.69" style="fill:none;stroke:#999;stroke-width:3" />
<path d="M696.2,61.55c0.3,0.84,0.46,2.06,0.34,2.76c-0.3,1.81-3.21,6.63-6.62,11.97" style="fill:none;stroke:black;stroke-width:3" />
<circle cx="696.2" cy="61.55" r="5" stroke-width="0" fill="#FF2A00" opacity="0.7" />
<path d="M792.25,13.24c0,0.78,0.05,1.41-0.14,2.35c-0.99,4.9-10.36,21.27-18.39,28.53" style="fill:none;stroke:#999;stroke-width:3" />
<path d="M793.39,18.71C798.22,20.7 804.4,25.99 806.75,31" style="fill:none;stroke:#999;stroke-width:3" />
<path d="M782.5,40c1.68,0,2.44,0.09,2.98,0.06C790.3199999999999,39.74 796.5,39 801.6,38.3c0.82-0.11,1-0.05,2.4-0.05" style="fill:none;stroke:#999;stroke-width:3" />
<path d="M775.5899999999999,54.81c0.65,0.33,2.77,0.43,3.44,0.43C785.0,55.25 797.0,53.75 803.74,53.08c0.81-0.08,2.58-0.13,3.78,0.15" style="fill:none;stroke:#999;stroke-width:3" />
<path d="M791.45,41.69c1.24,0.78,1.24,2.52,1.24,3.14c0,4.35,0.31,35.42,0.31,40.98" style="fill:none;stroke:#999;stroke-width:3" />
<path d="M777.14,64.51c4.82,5.51,7.17,11.47,8.15,14.69" style="fill:none;stroke:#999;stroke-width:3" />
<path d="M805.2,61.55c0.3,0.84,0.46,2.06,0.34,2.76c-0.3,1.81-3.21,6.63-6.62,11.97" style="fill:none;stroke:#999;stroke-width:3" />
<path d="M775.5,91.29c1.27,0.94,2.8,0.7,4.58,0.24c1.32-0.35,11.45-5.4,24.67-11.03" style="fill:none;stroke:black;stroke-width:3" />
<circle cx="775.5" cy="91.29" r="5" stroke-width="0" fill="#FF2A00" opacity="0.7" />
<path d="M901.25,13.24c0,0.78,0.05,1.41-0.14,2.35c-0.99,4.9-10.36,21.27-18.39,28.53" style="fill:none;stroke:#999;stroke-width:3" />
<path d="M902.39,18.71C907.22,20.7 913.4,25.99 915.75,31" style="fill:none;stroke:#999;stroke-width:3" />
<path d="M891.5,40c1.68,0,2.44,0.09,2.98,0.06C899.3199999999999,39.74 905.5,39 910.6,38.3c0.82-0.11,1-0.05,2.4-0.05" style="fill:none;stroke:#999;stroke-width:3" />
<path d="M884.5899999999999,54.81c0.65,0.33,2.77,0.43,3.44,0.43C894.0,55.25 906.0,53.75 912.74,53.08c0.81-0.08,2.58-0.13,3.78,0.15" style="fill:none;stroke:#999;stroke-width:3" />
<path d="M900.45,41.69c1.24,0.78,1.24,2.52,1.24,3.14c0,4.35,0.31,35.42,0.31,40.98" style="fill:none;stroke:#999;stroke-width:3" />
<path d="M886.14,64.51c4.82,5.51,7.17,11.47,8.15,14.69" style="fill:none;stroke:#999;stroke-width:3" />
<path d="M914.2,61.55c0.3,0.84,0.46,2.06,0.34,2.76c-0.3,1.81-3.21,6.63-6.62,11.97" style="fill:none;stroke:#999;stroke-width:3" />
<path d="M884.5,91.29c1.27,0.94,2.8,0.7,4.58,0.24c1.32-0.35,11.45-5.4,24.67-11.03" style="fill:none;stroke:#999;stroke-width:3" />
<path d="M940.48,13.99c0.86,0.4,2.09,2.33,2.07,3.47c-0.06,3.59-0.06,9.7-0.07,12.96" style="fill:none;stroke:black;stroke-width:3" />
<circle cx="940.48" cy="13.99" r="5" stroke-width="0" fill="#FF2A00" opacity="0.7" />
<path d="M1010.25,13.24c0,0.78,0.05,1.41-0.14,2.35c-0.99,4.9-10.36,21.27-18.39,28.53" style="fill:none;stroke:#999;stroke-width:3" />
<path d="M1011.39,18.71C1016.22,20.7 1022.4,25.99 1024.75,31" style="fill:none;stroke:#999;stroke-width:3" />
<path d="M1000.5,40c1.68,0,2.44,0.09,2.98,0.06C1008.3199999999999,39.74 1014.5,39 1019.6,38.3c0.82-0.11,1-0.05,2.4-0.05" style="fill:none;stroke:#999;stroke-width:3" />
<path d="M993.5899999999999,54.81c0.65,0.33,2.77,0.43,3.44,0.43C1003.0,55.25 1015.0,53.75 1021.74,53.08c0.81-0.08,2.58-0.13,3.78,0.15" style="fill:none;stroke:#999;stroke-width:3" />
<path d="M1009.45,41.69c1.24,0.78,1.24,2.52,1.24,3.14c0,4.35,0.31,35.42,0.31,40.98" style="fill:none;stroke:#999;stroke-width:3" />
<path d="M995.14,64.51c4.82,5.51,7.17,11.47,8.15,14.69" style="fill:none;stroke:#999;stroke-width:3" />
<path d="M1023.2,61.55c0.3,0.84,0.46,2.06,0.34,2.76c-0.3,1.81-3.21,6.63-6.62,11.97" style="fill:none;stroke:#999;stroke-width:3" />
<path d="M993.5,91.29c1.27,0.94,2.8,0.7,4.58,0.24c1.32-0.35,11.45-5.4,24.67-11.03" style="fill:none;stroke:#999;stroke-width:3" />
<path d="M1049.48,13.99c0.86,0.4,2.09,2.33,2.07,3.47c-0.06,3.59-0.06,9.7-0.07,12.96" style="fill:none;stroke:#999;stroke-width:3" />
<path d="M1034.28,29.99c0,3.96-2.2,12.12-3.46,14.76" style="fill:none;stroke:black;stroke-width:3" />
<circle cx="1034.28" cy="29.99" r="5" stroke-width="0" fill="#FF2A00" opacity="0.7" />
<path d="M1119.25,13.24c0,0.78,0.05,1.41-0.14,2.35c-0.99,4.9-10.36,21.27-18.39,28.53" style="fill:none;stroke:#999;stroke-width:3" />
<path d="M1120.3899999999999,18.71C1125.22,20.7 1131.4,25.99 1133.75,31" style="fill:none;stroke:#999;stroke-width:3" />
<path d="M1109.5,40c1.68,0,2.44,0.09,2.98,0.06C1117.32,39.74 1123.5,39 1128.6,38.3c0.82-0.11,1-0.05,2.4-0.05" style="fill:none;stroke:#999;stroke-width:3" />
<path d="M1102.59,54.81c0.65,0.33,2.77,0.43,3.44,0.43C1112.0,55.25 1124.0,53.75 1130.74,53.08c0.81-0.08,2.58-0.13,3.78,0.15" style="fill:none;stroke:#999;stroke-width:3" />
<path d="M1118.45,41.69c1.24,0.78,1.24,2.52,1.24,3.14c0,4.35,0.31,35.42,0.31,40.98" style="fill:none;stroke:#999;stroke-width:3" />
<path d="M1104.1399999999999,64.51c4.82,5.51,7.17,11.47,8.15,14.69" style="fill:none;stroke:#999;stroke-width:3" />
<path d="M1132.2,61.55c0.3,0.84,0.46,2.06,0.34,2.76c-0.3,1.81-3.21,6.63-6.62,11.97" style="fill:none;stroke:#999;stroke-width:3" />
<path d="M1102.5,91.29c1.27,0.94,2.8,0.7,4.58,0.24c1.32-0.35,11.45-5.4,24.67-11.03" style="fill:none;stroke:#999;stroke-width:3" />
<path d="M1158.48,13.99c0.86,0.4,2.09,2.33,2.07,3.47c-0.06,3.59-0.06,9.7-0.07,12.96" style="fill:none;stroke:#999;stroke-width:3" />
<path d="M1143.28,29.99c0,3.96-2.2,12.12-3.46,14.76" style="fill:none;stroke:#999;stroke-width:3" />
<path d="M1143.17,32.61c12.58-1.61,32.96-4.06,38.29-3.84c7.04,0.29-0.51,6.19-2.26,7.87" style="fill:none;stroke:black;stroke-width:3" />
<circle cx="1143.17" cy="32.61" r="5" stroke-width="0" fill="#FF2A00" opacity="0.7" />
<path d="M1228.25,13.24c0,0.78,0.05,1.41-0.14,2.35c-0.99,4.9-10.36,21.27-18.39,28.53" style="fill:none;stroke:#999;stroke-width:3" />
<path d="M1229.3899999999999,18.71C1234.22,20.7 1240.4,25.99 1242.75,31" style="fill:none;stroke:#999;stroke-width:3" />
<path d="M1218.5,40c1.68,0,2.44,0.09,2.98,0.06C1226.32,39.74 1232.5,39 1237.6,38.3c0.82-0.11,1-0.05,2.4-0.05" style="fill:none;stroke:#999;stroke-width:3" />
<path d="M1211.59,54.81c0.65,0.33,2.77,0.43,3.44,0.43C1221.0,55.25 1233.0,53.75 1239.74,53.08c0.81-0.08,2.58-0.13,3.78,0.15" style="fill:none;stroke:#999;stroke-width:3" />
<path d="M1227.45,41.69c1.24,0.78,1.24,2.52,1.24,3.14c0,4.35,0.31,35.42,0.31,40.98" style="fill:none;stroke:#999;stroke-width:3" />
<path d="M1213.1399999999999,64.51c4.82,5.51,7.17,11.47,8.15,14.69" style="fill:none;stroke:#999;stroke-width:3" />
<path d="M1241.2,61.55c0.3,0.84,0.46,2.06,0.34,2.76c-0.3,1.81-3.21,6.63-6.62,11.97" style="fill:none;stroke:#999;stroke-width:3" />
<path d="M1211.5,91.29c1.27,0.94,2.8,0.7,4.58,0.24c1.32-0.35,11.45-5.4,24.67-11.03" style="fill:none;stroke:#999;stroke-width:3" />
<path d="M1267.48,13.99c0.86,0.4,2.09,2.33,2.07,3.47c-0.06,3.59-0.06,9.7-0.07,12.96" style="fill:none;stroke:#999;stroke-width:3" />
<path d="M1252.28,29.99c0,3.96-2.2,12.12-3.46,14.76" style="fill:none;stroke:#999;stroke-width:3" />
<path d="M1252.17,32.61c12.58-1.61,32.96-4.06,38.29-3.84c7.04,0.29-0.51,6.19-2.26,7.87" style="fill:none;stroke:#999;stroke-width:3" />
<path d="M1285.05,47.51c0.16,0.33,0.25,1.28-0.15,1.78c-2.59,3.26-11.48,12.24-19.85,15.58" style="fill:none;stroke:black;stroke-width:3" />
<circle cx="1285.05" cy="47.51" r="5" stroke-width="0" fill="#FF2A00" opacity="0.7" />
<path d="M1337.25,13.24c0,0.78,0.05,1.41-0.14,2.35c-0.99,4.9-10.36,21.27-18.39,28.53" style="fill:none;stroke:#999;stroke-width:3" />
<path d="M1338.3899999999999,18.71C1343.22,20.7 1349.4,25.99 1351.75,31" style="fill:none;stroke:#999;stroke-width:3" />
<path d="M1327.5,40c1.68,0,2.44,0.09,2.98,0.06C1335.32,39.74 1341.5,39 1346.6,38.3c0.82-0.11,1-0.05,2.4-0.05" style="fill:none;stroke:#999;stroke-width:3" />
<path d="M1320.59,54.81c0.65,0.33,2.77,0.43,3.44,0.43C1330.0,55.25 1342.0,53.75 1348.74,53.08c0.81-0.08,2.58-0.13,3.78,0.15" style="fill:none;stroke:#999;stroke-width:3" />
<path d="M1336.45,41.69c1.24,0.78,1.24,2.52,1.24,3.14c0,4.35,0.31,35.42,0.31,40.98" style="fill:none;stroke:#999;stroke-width:3" />
<path d="M1322.1399999999999,64.51c4.82,5.51,7.17,11.47,8.15,14.69" style="fill:none;stroke:#999;stroke-width:3" />
<path d="M1350.2,61.55c0.3,0.84,0.46,2.06,0.34,2.76c-0.3,1.81-3.21,6.63-6.62,11.97" style="fill:none;stroke:#999;stroke-width:3" />
<path d="M1320.5,91.29c1.27,0.94,2.8,0.7,4.58,0.24c1.32-0.35,11.45-5.4,24.67-11.03" style="fill:none;stroke:#999;stroke-width:3" />
<path d="M1376.48,13.99c0.86,0.4,2.09,2.33,2.07,3.47c-0.06,3.59-0.06,9.7-0.07,12.96" style="fill:none;stroke:#999;stroke-width:3" />
<path d="M1361.28,29.99c0,3.96-2.2,12.12-3.46,14.76" style="fill:none;stroke:#999;stroke-width:3" />
<path d="M1361.17,32.61c12.58-1.61,32.96-4.06,38.29-3.84c7.04,0.29-0.51,6.19-2.26,7.87" style="fill:none;stroke:#999;stroke-width:3" />
<path d="M1394.05,47.51c0.16,0.33,0.25,1.28-0.15,1.78c-2.59,3.26-11.48,12.24-19.85,15.58" style="fill:none;stroke:#999;stroke-width:3" />
<path d="M1370.0,41.88c0.71,1.02,0.76,1.7,1,3.05c0.24,1.36-0.09,30.13-0.09,34.38c0,12.69,0.59,14.21,17.03,14.21c13.56,0,15.61-1.52,15.61-13.28" style="fill:none;stroke:black;stroke-width:3" />
<circle cx="1370.0" cy="41.88" r="5" stroke-width="0" fill="#FF2A00" opacity="0.7" />
</svg>