<!-- 09280 -->
<svg width="1526px" height="109px" viewBox="0 0 1526px 109px" xmlns="http://www.w3.org/2000/svg" xmlns:xlink="http://www.w3.org/1999/xlink" xml:space="preserve" version="1.1"  baseProfile="full">
<line x1="1" y1="1" x2="1525" y2="1" style="stroke:#ddd;stroke-width:2" />
<line x1="1" y1="1" x2="1" y2="108" style="stroke:#ddd;stroke-width:2" />
<line x1="1" y1="108" x2="1525" y2="108" style="stroke:#ddd;stroke-width:2" />
<line x1="1525" y1="1" x2="1525" y2="108" style="stroke:#ddd;stroke-width:2" />
<line x1="109" y1="1" x2="109" y2="108" style="stroke:#ddd;stroke-width:2" />
<line x1="218" y1="1" x2="218" y2="108" style="stroke:#ddd;stroke-width:2" />
<line x1="327" y1="1" x2="327" y2="108" style="stroke:#ddd;stroke-width:2" />
<line x1="436" y1="1" x2="436" y2="108" style="stroke:#ddd;stroke-width:2" />
<line x1="545" y1="1" x2="545" y2="108" style="stroke:#ddd;stroke-width:2" />
<line x1="654" y1="1" x2="654" y2="108" style="stroke:#ddd;stroke-width:2" />
<line x1="763" y1="1" x2="763" y2="108" style="stroke:#ddd;stroke-width:2" />
<line x1="872" y1="1" x2="872" y2="108" style="stroke:#ddd;stroke-width:2" />
<line x1="981" y1="1" x2="981" y2="108" style="stroke:#ddd;stroke-width:2" />
<line x1="1090" y1="1" x2="1090" y2="108" style="stroke:#ddd;stroke-width:2" />
<line x1="1199" y1="1" x2="1199" y2="108" style="stroke:#ddd;stroke-width:2" />
<line x1="1308" y1="1" x2="1308" y2="108" style="stroke:#ddd;stroke-width:2" />
<line x1="1417" y1="1" x2="1417" y2="108" style="stroke:#ddd;stroke-width:2" />
<line x1="1" y1="54" x2="1525" y2="54" style="stroke:#ddd;stroke-width:2;stroke-dasharray:3 3" />
<line x1="55" y1="1" x2="55" y2="108" style="stroke:#ddd;stroke-width:2;stroke-dasharray:3 3" />
<line x1="164" y1="1" x2="164" y2="108" style="stroke:#ddd;stroke-width:2;stroke-dasharray:3 3" />
<line x1="273" y1="1" x2="273" y2="108" style="stroke:#ddd;stroke-width:2;stroke-dasharray:3 3" />
<line x1="382" y1="1" x2="382" y2="108" style="stroke:#ddd;stroke-width:2;stroke-dasharray:3 3" />
<line x1="491" y1="1" x2="491" y2="108" style="stroke:#ddd;stroke-width:2;stroke-dasharray:3 3" />
<line x1="600" y1="1" x2="600" y2="108" style="stroke:#ddd;stroke-width:2;stroke-dasharray:3 3" />
<line x1="709" y1="1" x2="709" y2="108" style="stroke:#ddd;stroke-width:2;stroke-dasharray:3 3" />
<line x1="818" y1="1" x2="818" y2="108" style="stroke:#ddd;stroke-width:2;stroke-dasharray:3 3" />
<line x1="927" y1="1" x2="927" y2="108" style="stroke:#ddd;stroke-width:2;stroke-dasharray:3 3" />
<line x1="1036" y1="1" x2="1036" y2="108" style="stroke:#ddd;stroke-width:2;stroke-dasharray:3 3" />
<line x1="1145" y1="1" x2="1145" y2="108" style="stroke:#ddd;stroke-width:2;stroke-dasharray:3 3" />
<line x1="1254" y1="1" x2="1254" y2="108" style="stroke:#ddd;stroke-width:2;stroke-dasharray:3 3" />
<line x1="1363" y1="1" x2="1363" y2="108" style="stroke:#ddd;stroke-width:2;stroke-dasharray:3 3" />
<line x1="1472" y1="1" x2="1472" y2="108" style="stroke:#ddd;stroke-width:2;stroke-dasharray:3 3" />
<path d="M31.88,16.62c0.09,1.21-0.06,2.37-0.46,3.49c-2.02,5.97-11.23,20.64-19.19,27.51" style="fill:none;stroke:black;stroke-width:3" />
<circle cx="31.88" cy="16.62" r="5" stroke-width="0" fill="#FF2A00" opacity="0.7" />
<path d="M140.88,16.62c0.09,1.21-0.06,2.37-0.46,3.49c-2.02,5.97-11.23,20.64-19.19,27.51" style="fill:none;stroke:#999;stroke-width:3" />
<path d="M142.89,22.96c4.29,1.91,9.77,6.98,11.86,11.79" style="fill:none;stroke:black;stroke-width:3" />
<circle cx="142.89" cy="22.96" r="5" stroke-width="0" fill="#FF2A00" opacity="0.7" />
<path d="M249.88,16.62c0.09,1.21-0.06,2.37-0.46,3.49c-2.02,5.97-11.23,20.64-19.19,27.51" style="fill:none;stroke:#999;stroke-width:3" />
<path d="M251.89,22.96c4.29,1.91,9.77,6.98,11.86,11.79" style="fill:none;stroke:#999;stroke-width:3" />
<path d="M238.14,43.37c1.4,0.38,2.79,0.43,4.16,0.13c3.91-0.66,7.79-1.31,12.65-1.88c1.43-0.25,2.86-0.2,4.29,0.13" style="fill:none;stroke:black;stroke-width:3" />
<circle cx="238.14" cy="43.37" r="5" stroke-width="0" fill="#FF2A00" opacity="0.7" />
<path d="M358.88,16.62c0.09,1.21-0.06,2.37-0.46,3.49c-2.02,5.97-11.23,20.64-19.19,27.51" style="fill:none;stroke:#999;stroke-width:3" />
<path d="M360.89,22.96c4.29,1.91,9.77,6.98,11.86,11.79" style="fill:none;stroke:#999;stroke-width:3" />
<path d="M347.14,43.37c1.4,0.38,2.79,0.43,4.16,0.13c3.91-0.66,7.79-1.31,12.65-1.88c1.43-0.25,2.86-0.2,4.29,0.13" style="fill:none;stroke:#999;stroke-width:3" />
<path d="M340.59,59.06c1.86,0.37,3.71,0.38,5.53,0.01c6.83-1.12,13.65-2.24,21.31-3.13c1.81-0.26,3.64-0.25,5.47,0.04" style="fill:none;stroke:black;stroke-width:3" />
<circle cx="340.59" cy="59.06" r="5" stroke-width="0" fill="#FF2A00" opacity="0.7" />
<path d="M467.88,16.62c0.09,1.21-0.06,2.37-0.46,3.49c-2.02,5.97-11.23,20.64-19.19,27.51" style="fill:none;stroke:#999;stroke-width:3" />
<path d="M469.89,22.96c4.29,1.91,9.77,6.98,11.86,11.79" style="fill:none;stroke:#999;stroke-width:3" />
<path d="M456.14,43.37c1.4,0.38,2.79,0.43,4.16,0.13c3.91-0.66,7.79-1.31,12.65-1.88c1.43-0.25,2.86-0.2,4.29,0.13" style="fill:none;stroke:#999;stroke-width:3" />
<path d="M449.59,59.06c1.86,0.37,3.71,0.38,5.53,0.01c6.83-1.12,13.65-2.24,21.31-3.13c1.81-0.26,3.64-0.25,5.47,0.04" style="fill:none;stroke:#999;stroke-width:3" />
<path d="M466.19,44.94c0.68,0.77,1.18,2.18,1.18,3.61c0,4.3-0.08,27.08-0.08,35.02" style="fill:none;stroke:black;stroke-width:3" />
<circle cx="466.19" cy="44.94" r="5" stroke-width="0" fill="#FF2A00" opacity="0.7" />
<path d="M576.88,16.62c0.09,1.21-0.06,2.37-0.46,3.49c-2.02,5.97-11.23,20.64-19.19,27.51" style="fill:none;stroke:#999;stroke-width:3" />
<path d="M578.89,22.96c4.29,1.91,9.77,6.98,11.86,11.79" style="fill:none;stroke:#999;stroke-width:3" />
<path d="M565.14,43.37c1.4,0.38,2.79,0.43,4.16,0.13c3.91-0.66,7.79-1.31,12.65-1.88c1.43-0.25,2.86-0.2,4.29,0.13" style="fill:none;stroke:#999;stroke-width:3" />
<path d="M558.5899999999999,59.06c1.86,0.37,3.71,0.38,5.53,0.01c6.83-1.12,13.65-2.24,21.31-3.13c1.81-0.26,3.64-0.25,5.47,0.04" style="fill:none;stroke:#999;stroke-width:3" />
<path d="M575.19,44.94c0.68,0.77,1.18,2.18,1.18,3.61c0,4.3-0.08,27.08-0.08,35.02" style="fill:none;stroke:#999;stroke-width:3" />
<path d="M560.25,68.88c4.01,3.78,5.97,7.87,6.79,10.07" style="fill:none;stroke:black;stroke-width:3" />
<circle cx="560.25" cy="68.88" r="5" stroke-width="0" fill="#FF2A00" opacity="0.7" />
<path d="M685.88,16.62c0.09,1.21-0.06,2.37-0.46,3.49c-2.02,5.97-11.23,20.64-19.19,27.51" style="fill:none;stroke:#999;stroke-width:3" />
<path d="M687.89,22.96c4.29,1.91,9.77,6.98,11.86,11.79" style="fill:none;stroke:#999;stroke-width:3" />
<path d="M674.14,43.37c1.4,0.38,2.79,0.43,4.16,0.13c3.91-0.66,7.79-1.31,12.65-1.88c1.43-0.25,2.86-0.2,4.29,0.13" style="fill:none;stroke:#999;stroke-width:3" />
<path d="M667.5899999999999,59.06c1.86,0.37,3.71,0.38,5.53,0.01c6.83-1.12,13.65-2.24,21.31-3.13c1.81-0.26,3.64-0.25,5.47,0.04" style="fill:none;stroke:#999;stroke-width:3" />
<path d="M684.19,44.94c0.68,0.77,1.18,2.18,1.18,3.61c0,4.3-0.08,27.08-0.08,35.02" style="fill:none;stroke:#999;stroke-width:3" />
<path d="M669.25,68.88c4.01,3.78,5.97,7.87,6.79,10.07" style="fill:none;stroke:#999;stroke-width:3" />
<path d="M697.67,62.92c0.23,1.04,0.06,1.95-0.5,2.72c-1.63,2.68-3.53,5.9-5.25,7.89" style="fill:none;stroke:black;stroke-width:3" />
<circle cx="697.67" cy="62.92" r="5" stroke-width="0" fill="#FF2A00" opacity="0.7" />
<path d="M794.88,16.62c0.09,1.21-0.06,2.37-0.46,3.49c-2.02,5.97-11.23,20.64-19.19,27.51" style="fill:none;stroke:#999;stroke-width:3" />
<path d="M796.89,22.96c4.29,1.91,9.77,6.98,11.86,11.79" style="fill:none;stroke:#999;stroke-width:3" />
<path d="M783.14,43.37c1.4,0.38,2.79,0.43,4.16,0.13c3.91-0.66,7.79-1.31,12.65-1.88c1.43-0.25,2.86-0.2,4.29,0.13" style="fill:none;stroke:#999;stroke-width:3" />
<path d="M776.5899999999999,59.06c1.86,0.37,3.71,0.38,5.53,0.01c6.83-1.12,13.65-2.24,21.31-3.13c1.81-0.26,3.64-0.25,5.47,0.04" style="fill:none;stroke:#999;stroke-width:3" />
<path d="M793.19,44.94c0.68,0.77,1.18,2.18,1.18,3.61c0,4.3-0.08,27.08-0.08,35.02" style="fill:none;stroke:#999;stroke-width:3" />
<path d="M778.25,68.88c4.01,3.78,5.97,7.87,6.79,10.07" style="fill:none;stroke:#999;stroke-width:3" />
<path d="M806.67,62.92c0.23,1.04,0.06,1.95-0.5,2.72c-1.63,2.68-3.53,5.9-5.25,7.89" style="fill:none;stroke:#999;stroke-width:3" />
<path d="M778.0,91c1.7,0.77,3.22,0.71,4.56-0.18c5.59-2.95,13.54-6.92,25.69-14.07" style="fill:none;stroke:black;stroke-width:3" />
<circle cx="778.0" cy="91.0" r="5" stroke-width="0" fill="#FF2A00" opacity="0.7" />
<path d="M903.88,16.62c0.09,1.21-0.06,2.37-0.46,3.49c-2.02,5.97-11.23,20.64-19.19,27.51" style="fill:none;stroke:#999;stroke-width:3" />
<path d="M905.89,22.96c4.29,1.91,9.77,6.98,11.86,11.79" style="fill:none;stroke:#999;stroke-width:3" />
<path d="M892.14,43.37c1.4,0.38,2.79,0.43,4.16,0.13c3.91-0.66,7.79-1.31,12.65-1.88c1.43-0.25,2.86-0.2,4.29,0.13" style="fill:none;stroke:#999;stroke-width:3" />
<path d="M885.5899999999999,59.06c1.86,0.37,3.71,0.38,5.53,0.01c6.83-1.12,13.65-2.24,21.31-3.13c1.81-0.26,3.64-0.25,5.47,0.04" style="fill:none;stroke:#999;stroke-width:3" />
<path d="M902.19,44.94c0.68,0.77,1.18,2.18,1.18,3.61c0,4.3-0.08,27.08-0.08,35.02" style="fill:none;stroke:#999;stroke-width:3" />
<path d="M887.25,68.88c4.01,3.78,5.97,7.87,6.79,10.07" style="fill:none;stroke:#999;stroke-width:3" />
<path d="M915.67,62.92c0.23,1.04,0.06,1.95-0.5,2.72c-1.63,2.68-3.53,5.9-5.25,7.89" style="fill:none;stroke:#999;stroke-width:3" />
<path d="M887.0,91c1.7,0.77,3.22,0.71,4.56-0.18c5.59-2.95,13.54-6.92,25.69-14.07" style="fill:none;stroke:#999;stroke-width:3" />
<path d="M925.19,21.84c1.81,0.79,4.98,0.86,6.42,0.59c5.21-0.99,12.18-2.18,16.36-2.88c2.8-0.47,4.28,0.83,4.15,3.21c-0.26,4.63-1.23,13.89-2.04,19.9c-0.09,0.67-0.68,4.48-0.83,5.11" style="fill:none;stroke:black;stroke-width:3" />
<circle cx="925.19" cy="21.84" r="5" stroke-width="0" fill="#FF2A00" opacity="0.7" />
<path d="M1012.88,16.62c0.09,1.21-0.06,2.37-0.46,3.49c-2.02,5.97-11.23,20.64-19.19,27.51" style="fill:none;stroke:#999;stroke-width:3" />
<path d="M1014.89,22.96c4.29,1.91,9.77,6.98,11.86,11.79" style="fill:none;stroke:#999;stroke-width:3" />
<path d="M1001.14,43.37c1.4,0.38,2.79,0.43,4.16,0.13c3.91-0.66,7.79-1.31,12.65-1.88c1.43-0.25,2.86-0.2,4.29,0.13" style="fill:none;stroke:#999;stroke-width:3" />
<path d="M994.5899999999999,59.06c1.86,0.37,3.71,0.38,5.53,0.01c6.83-1.12,13.65-2.24,21.31-3.13c1.81-0.26,3.64-0.25,5.47,0.04" style="fill:none;stroke:#999;stroke-width:3" />
<path d="M1011.19,44.94c0.68,0.77,1.18,2.18,1.18,3.61c0,4.3-0.08,27.08-0.08,35.02" style="fill:none;stroke:#999;stroke-width:3" />
<path d="M996.25,68.88c4.01,3.78,5.97,7.87,6.79,10.07" style="fill:none;stroke:#999;stroke-width:3" />
<path d="M1024.67,62.92c0.23,1.04,0.06,1.95-0.5,2.72c-1.63,2.68-3.53,5.9-5.25,7.89" style="fill:none;stroke:#999;stroke-width:3" />
<path d="M996.0,91c1.7,0.77,3.22,0.71,4.56-0.18c5.59-2.95,13.54-6.92,25.69-14.07" style="fill:none;stroke:#999;stroke-width:3" />
<path d="M1034.19,21.84c1.81,0.79,4.98,0.86,6.42,0.59c5.21-0.99,12.18-2.18,16.36-2.88c2.8-0.47,4.28,0.83,4.15,3.21c-0.26,4.63-1.23,13.89-2.04,19.9c-0.09,0.67-0.68,4.48-0.83,5.11" style="fill:none;stroke:#999;stroke-width:3" />
<path d="M1037.11,36c4.82-0.55,17.25-2.73,21.89-3.17" style="fill:none;stroke:black;stroke-width:3" />
<circle cx="1037.11" cy="36.0" r="5" stroke-width="0" fill="#FF2A00" opacity="0.7" />
<path d="M1121.88,16.62c0.09,1.21-0.06,2.37-0.46,3.49c-2.02,5.97-11.23,20.64-19.19,27.51" style="fill:none;stroke:#999;stroke-width:3" />
<path d="M1123.8899999999999,22.96c4.29,1.91,9.77,6.98,11.86,11.79" style="fill:none;stroke:#999;stroke-width:3" />
<path d="M1110.1399999999999,43.37c1.4,0.38,2.79,0.43,4.16,0.13c3.91-0.66,7.79-1.31,12.65-1.88c1.43-0.25,2.86-0.2,4.29,0.13" style="fill:none;stroke:#999;stroke-width:3" />
<path d="M1103.59,59.06c1.86,0.37,3.71,0.38,5.53,0.01c6.83-1.12,13.65-2.24,21.31-3.13c1.81-0.26,3.64-0.25,5.47,0.04" style="fill:none;stroke:#999;stroke-width:3" />
<path d="M1120.19,44.94c0.68,0.77,1.18,2.18,1.18,3.61c0,4.3-0.08,27.08-0.08,35.02" style="fill:none;stroke:#999;stroke-width:3" />
<path d="M1105.25,68.88c4.01,3.78,5.97,7.87,6.79,10.07" style="fill:none;stroke:#999;stroke-width:3" />
<path d="M1133.67,62.92c0.23,1.04,0.06,1.95-0.5,2.72c-1.63,2.68-3.53,5.9-5.25,7.89" style="fill:none;stroke:#999;stroke-width:3" />
<path d="M1105.0,91c1.7,0.77,3.22,0.71,4.56-0.18c5.59-2.95,13.54-6.92,25.69-14.07" style="fill:none;stroke:#999;stroke-width:3" />
<path d="M1143.19,21.84c1.81,0.79,4.98,0.86,6.42,0.59c5.21-0.99,12.18-2.18,16.36-2.88c2.8-0.47,4.28,0.83,4.15,3.21c-0.26,4.63-1.23,13.89-2.04,19.9c-0.09,0.67-0.68,4.48-0.83,5.11" style="fill:none;stroke:#999;stroke-width:3" />
<path d="M1146.11,36c4.82-0.55,17.25-2.73,21.89-3.17" style="fill:none;stroke:#999;stroke-width:3" />
<path d="M1146.26,48.89c7.36-1.52,12.97-2.15,20.15-3" style="fill:none;stroke:black;stroke-width:3" />
<circle cx="1146.26" cy="48.89" r="5" stroke-width="0" fill="#FF2A00" opacity="0.7" />
<path d="M1230.88,16.62c0.09,1.21-0.06,2.37-0.46,3.49c-2.02,5.97-11.23,20.64-19.19,27.51" style="fill:none;stroke:#999;stroke-width:3" />
<path d="M1232.8899999999999,22.96c4.29,1.91,9.77,6.98,11.86,11.79" style="fill:none;stroke:#999;stroke-width:3" />
<path d="M1219.1399999999999,43.37c1.4,0.38,2.79,0.43,4.16,0.13c3.91-0.66,7.79-1.31,12.65-1.88c1.43-0.25,2.86-0.2,4.29,0.13" style="fill:none;stroke:#999;stroke-width:3" />
<path d="M1212.59,59.06c1.86,0.37,3.71,0.38,5.53,0.01c6.83-1.12,13.65-2.24,21.31-3.13c1.81-0.26,3.64-0.25,5.47,0.04" style="fill:none;stroke:#999;stroke-width:3" />
<path d="M1229.19,44.94c0.68,0.77,1.18,2.18,1.18,3.61c0,4.3-0.08,27.08-0.08,35.02" style="fill:none;stroke:#999;stroke-width:3" />
<path d="M1214.25,68.88c4.01,3.78,5.97,7.87,6.79,10.07" style="fill:none;stroke:#999;stroke-width:3" />
<path d="M1242.67,62.92c0.23,1.04,0.06,1.95-0.5,2.72c-1.63,2.68-3.53,5.9-5.25,7.89" style="fill:none;stroke:#999;stroke-width:3" />
<path d="M1214.0,91c1.7,0.77,3.22,0.71,4.56-0.18c5.59-2.95,13.54-6.92,25.69-14.07" style="fill:none;stroke:#999;stroke-width:3" />
<path d="M1252.19,21.84c1.81,0.79,4.98,0.86,6.42,0.59c5.21-0.99,12.18-2.18,16.36-2.88c2.8-0.47,4.28,0.83,4.15,3.21c-0.26,4.63-1.23,13.89-2.04,19.9c-0.09,0.67-0.68,4.48-0.83,5.11" style="fill:none;stroke:#999;stroke-width:3" />
<path d="M1255.11,36c4.82-0.55,17.25-2.73,21.89-3.17" style="fill:none;stroke:#999;stroke-width:3" />
<path d="M1255.26,48.89c7.36-1.52,12.97-2.15,20.15-3" style="fill:none;stroke:#999;stroke-width:3" />
<path d="M1252.44,22.34c0.98,0.98,1.46,2.46,1.46,3.59c0,5.32-0.03,57.86-0.03,60.61c0,5.08,0.62,5.83,4.12,2.33c2.3-2.3,6.75-7.52,8.94-10" style="fill:none;stroke:black;stroke-width:3" />
<circle cx="1252.44" cy="22.34" r="5" stroke-width="0" fill="#FF2A00" opacity="0.7" />
<path d="M1339.88,16.62c0.09,1.21-0.06,2.37-0.46,3.49c-2.02,5.97-11.23,20.64-19.19,27.51" style="fill:none;stroke:#999;stroke-width:3" />
<path d="M1341.8899999999999,22.96c4.29,1.91,9.77,6.98,11.86,11.79" style="fill:none;stroke:#999;stroke-width:3" />
<path d="M1328.1399999999999,43.37c1.4,0.38,2.79,0.43,4.16,0.13c3.91-0.66,7.79-1.31,12.65-1.88c1.43-0.25,2.86-0.2,4.29,0.13" style="fill:none;stroke:#999;stroke-width:3" />
<path d="M1321.59,59.06c1.86,0.37,3.71,0.38,5.53,0.01c6.83-1.12,13.65-2.24,21.31-3.13c1.81-0.26,3.64-0.25,5.47,0.04" style="fill:none;stroke:#999;stroke-width:3" />
<path d="M1338.19,44.94c0.68,0.77,1.18,2.18,1.18,3.61c0,4.3-0.08,27.08-0.08,35.02" style="fill:none;stroke:#999;stroke-width:3" />
<path d="M1323.25,68.88c4.01,3.78,5.97,7.87,6.79,10.07" style="fill:none;stroke:#999;stroke-width:3" />
<path d="M1351.67,62.92c0.23,1.04,0.06,1.95-0.5,2.72c-1.63,2.68-3.53,5.9-5.25,7.89" style="fill:none;stroke:#999;stroke-width:3" />
<path d="M1323.0,91c1.7,0.77,3.22,0.71,4.56-0.18c5.59-2.95,13.54-6.92,25.69-14.07" style="fill:none;stroke:#999;stroke-width:3" />
<path d="M1361.19,21.84c1.81,0.79,4.98,0.86,6.42,0.59c5.21-0.99,12.18-2.18,16.36-2.88c2.8-0.47,4.28,0.83,4.15,3.21c-0.26,4.63-1.23,13.89-2.04,19.9c-0.09,0.67-0.68,4.48-0.83,5.11" style="fill:none;stroke:#999;stroke-width:3" />
<path d="M1364.11,36c4.82-0.55,17.25-2.73,21.89-3.17" style="fill:none;stroke:#999;stroke-width:3" />
<path d="M1364.26,48.89c7.36-1.52,12.97-2.15,20.15-3" style="fill:none;stroke:#999;stroke-width:3" />
<path d="M1361.44,22.34c0.98,0.98,1.46,2.46,1.46,3.59c0,5.32-0.03,57.86-0.03,60.61c0,5.08,0.62,5.83,4.12,2.33c2.3-2.3,6.75-7.52,8.94-10" style="fill:none;stroke:#999;stroke-width:3" />
<path d="M1393.1,49.19c0,1.13-0.53,2.62-1.56,3.54C1389.12,54.88 1380.75,61 1378.0,62.5" style="fill:none;stroke:black;stroke-width:3" />
<circle cx="1393.1" cy="49.19" r="5" stroke-width="0" fill="#FF2A00" opacity="0.7" />
<path d="M1448.88,16.62c0.09,1.21-0.06,2.37-0.46,3.49c-2.02,5.97-11.23,20.64-19.19,27.51" style="fill:none;stroke:#999;stroke-width:3" />
<path d="M1450.8899999999999,22.96c4.29,1.91,9.77,6.98,11.86,11.79" style="fill:none;stroke:#999;stroke-width:3" />
<path d="M1437.1399999999999,43.37c1.4,0.38,2.79,0.43,4.16,0.13c3.91-0.66,7.79-1.31,12.65-1.88c1.43-0.25,2.86-0.2,4.29,0.13" style="fill:none;stroke:#999;stroke-width:3" />
<path d="M1430.59,59.06c1.86,0.37,3.71,0.38,5.53,0.01c6.83-1.12,13.65-2.24,21.31-3.13c1.81-0.26,3.64-0.25,5.47,0.04" style="fill:none;stroke:#999;stroke-width:3" />
<path d="M1447.19,44.94c0.68,0.77,1.18,2.18,1.18,3.61c0,4.3-0.08,27.08-0.08,35.02" style="fill:none;stroke:#999;stroke-width:3" />
<path d="M1432.25,68.88c4.01,3.78,5.97,7.87,6.79,10.07" style="fill:none;stroke:#999;stroke-width:3" />
<path d="M1460.67,62.92c0.23,1.04,0.06,1.95-0.5,2.72c-1.63,2.68-3.53,5.9-5.25,7.89" style="fill:none;stroke:#999;stroke-width:3" />
<path d="M1432.0,91c1.7,0.77,3.22,0.71,4.56-0.18c5.59-2.95,13.54-6.92,25.69-14.07" style="fill:none;stroke:#999;stroke-width:3" />
<path d="M1470.19,21.84c1.81,0.79,4.98,0.86,6.42,0.59c5.21-0.99,12.18-2.18,16.36-2.88c2.8-0.47,4.28,0.83,4.15,3.21c-0.26,4.63-1.23,13.89-2.04,19.9c-0.09,0.67-0.68,4.48-0.83,5.11" style="fill:none;stroke:#999;stroke-width:3" />
<path d="M1473.11,36c4.82-0.55,17.25-2.73,21.89-3.17" style="fill:none;stroke:#999;stroke-width:3" />
<path d="M1473.26,48.89c7.36-1.52,12.97-2.15,20.15-3" style="fill:none;stroke:#999;stroke-width:3" />
<path d="M1470.44,22.34c0.98,0.98,1.46,2.46,1.46,3.59c0,5.32-0.03,57.86-0.03,60.61c0,5.08,0.62,5.83,4.12,2.33c2.3-2.3,6.75-7.52,8.94-10" style="fill:none;stroke:#999;stroke-width:3" />
<path d="M1502.1,49.19c0,1.13-0.53,2.62-1.56,3.54C1498.12,54.88 1489.75,61 1487.0,62.5" style="fill:none;stroke:#999;stroke-width:3" />
<path d="M1474.19,57.81c4.45,0,22.55,21.18,30.17,26.32c3.74,2.52,5.69,3.46,8.14,4.03" style="fill:none;stroke:black;stroke-width:3" />
<circle cx="1474.19" cy="57.81" r="5" stroke-width="0" fill="#FF2A00" opacity="0.7" />
</svg>