<!-- 0938c -->
<svg width="1962px" height="109px" viewBox="0 0 1962px 109px" xmlns="http://www.w3.org/2000/svg" xmlns:xlink="http://www.w3.org/1999/xlink" xml:space="preserve" version="1.1"  baseProfile="full">
<line x1="1" y1="1" x2="1961" y2="1" style="stroke:#ddd;stroke-width:2" />
<line x1="1" y1="1" x2="1" y2="108" style="stroke:#ddd;stroke-width:2" />
<line x1="1" y1="108" x2="1961" y2="108" style="stroke:#ddd;stroke-width:2" />
<line x1="1961" y1="1" x2="1961" y2="108" style="stroke:#ddd;stroke-width:2" />
<line x1="109" y1="1" x2="109" y2="108" style="stroke:#ddd;stroke-width:2" />
<line x1="218" y1="1" x2="218" y2="108" style="stroke:#ddd;stroke-width:2" />
<line x1="327" y1="1" x2="327" y2="108" style="stroke:#ddd;stroke-width:2" />
<line x1="436" y1="1" x2="436" y2="108" style="stroke:#ddd;stroke-width:2" />
<line x1="545" y1="1" x2="545" y2="108" style="stroke:#ddd;stroke-width:2" />
<line x1="654" y1="1" x2="654" y2="108" style="stroke:#ddd;stroke-width:2" />
<line x1="763" y1="1" x2="763" y2="108" style="stroke:#ddd;stroke-width:2" />
<line x1="872" y1="1" x2="872" y2="108" style="stroke:#ddd;stroke-width:2" />
<line x1="981" y1="1" x2="981" y2="108" style="stroke:#ddd;stroke-width:2" />
<line x1="1090" y1="1" x2="1090" y2="108" style="stroke:#ddd;stroke-width:2" />
<line x1="1199" y1="1" x2="1199" y2="108" style="stroke:#ddd;stroke-width:2" />
<line x1="1308" y1="1" x2="1308" y2="108" style="stroke:#ddd;stroke-width:2" />
<line x1="1417" y1="1" x2="1417" y2="108" style="stroke:#ddd;stroke-width:2" />
<line x1="1526" y1="1" x2="1526" y2="108" style="stroke:#ddd;stroke-width:2" />
<line x1="1635" y1="1" x2="1635" y2="108" style="stroke:#ddd;stroke-width:2" />
<line x1="1744" y1="1" x2="1744" y2="108" style="stroke:#ddd;stroke-width:2" />
<line x1="1853" y1="1" x2="1853" y2="108" style="stroke:#ddd;stroke-width:2" />
<line x1="1" y1="54" x2="1961" y2="54" style="stroke:#ddd;stroke-width:2;stroke-dasharray:3 3" />
<line x1="55" y1="1" x2="55" y2="108" style="stroke:#ddd;stroke-width:2;stroke-dasharray:3 3" />
<line x1="164" y1="1" x2="164" y2="108" style="stroke:#ddd;stroke-width:2;stroke-dasharray:3 3" />
<line x1="273" y1="1" x2="273" y2="108" style="stroke:#ddd;stroke-width:2;stroke-dasharray:3 3" />
<line x1="382" y1="1" x2="382" y2="108" style="stroke:#ddd;stroke-width:2;stroke-dasharray:3 3" />
<line x1="491" y1="1" x2="491" y2="108" style="stroke:#ddd;stroke-width:2;stroke-dasharray:3 3" />
<line x1="600" y1="1" x2="600" y2="108" style="stroke:#ddd;stroke-width:2;stroke-dasharray:3 3" />
<line x1="709" y1="1" x2="709" y2="108" style="stroke:#ddd;stroke-width:2;stroke-dasharray:3 3" />
<line x1="818" y1="1" x2="818" y2="108" style="stroke:#ddd;stroke-width:2;stroke-dasharray:3 3" />
<line x1="927" y1="1" x2="927" y2="108" style="stroke:#ddd;stroke-width:2;stroke-dasharray:3 3" />
<line x1="1036" y1="1" x2="1036" y2="108" style="stroke:#ddd;stroke-width:2;stroke-dasharray:3 3" />
<line x1="1145" y1="1" x2="1145" y2="108" style="stroke:#ddd;stroke-width:2;stroke-dasharray:3 3" />
<line x1="1254" y1="1" x2="1254" y2="108" style="stroke:#ddd;stroke-width:2;stroke-dasharray:3 3" />
<line x1="1363" y1="1" x2="1363" y2="108" style="stroke:#ddd;stroke-width:2;stroke-dasharray:3 3" />
<line x1="1472" y1="1" x2="1472" y2="108" style="stroke:#ddd;stroke-width:2;stroke-dasharray:3 3" />
<line x1="1581" y1="1" x2="1581" y2="108" style="stroke:#ddd;stroke-width:2;stroke-dasharray:3 3" />
<line x1="1690" y1="1" x2="1690" y2="108" style="stroke:#ddd;stroke-width:2;stroke-dasharray:3 3" />
<line x1="1799" y1="1" x2="1799" y2="108" style="stroke:#ddd;stroke-width:2;stroke-dasharray:3 3" />
<line x1="1908" y1="1" x2="1908" y2="108" style="stroke:#ddd;stroke-width:2;stroke-dasharray:3 3" />
<path d="M29.75,14.99c0,0.74,0.05,1.33-0.14,2.22c-0.95,4.63-8.24,18.91-17.64,26.91" style="fill:none;stroke:black;stroke-width:3" />
<circle cx="29.75" cy="14.99" r="5" stroke-width="0" fill="#FF2A00" opacity="0.7" />
<path d="M138.75,14.99c0,0.74,0.05,1.33-0.14,2.22c-0.95,4.63-8.24,18.91-17.64,26.91" style="fill:none;stroke:#999;stroke-width:3" />
<path d="M140.39,21.21C144.5,23 149.75,28 151.75,32.5" style="fill:none;stroke:black;stroke-width:3" />
<circle cx="140.39" cy="21.21" r="5" stroke-width="0" fill="#FF2A00" opacity="0.7" />
<path d="M247.75,14.99c0,0.74,0.05,1.33-0.14,2.22c-0.95,4.63-8.24,18.91-17.64,26.91" style="fill:none;stroke:#999;stroke-width:3" />
<path d="M249.39,21.21C253.5,23 258.75,28 260.75,32.5" style="fill:none;stroke:#999;stroke-width:3" />
<path d="M238.25,41c1.5,0.25,2.5,0.08,3.78-0.04c3.5-0.33,7.61-1.06,11.23-1.97c1.22-0.31,2.45-0.49,3.74-0.49" style="fill:none;stroke:black;stroke-width:3" />
<circle cx="238.25" cy="41.0" r="5" stroke-width="0" fill="#FF2A00" opacity="0.7" />
<path d="M356.75,14.99c0,0.74,0.05,1.33-0.14,2.22c-0.95,4.63-8.24,18.91-17.64,26.91" style="fill:none;stroke:#999;stroke-width:3" />
<path d="M358.39,21.21C362.5,23 367.75,28 369.75,32.5" style="fill:none;stroke:#999;stroke-width:3" />
<path d="M347.25,41c1.5,0.25,2.5,0.08,3.78-0.04c3.5-0.33,7.61-1.06,11.23-1.97c1.22-0.31,2.45-0.49,3.74-0.49" style="fill:none;stroke:#999;stroke-width:3" />
<path d="M340.84,56.56c1.54,0.56,3.7,0.39,5.17,0.22c4.96-0.57,11.14-1.67,17.74-2.57c1.44-0.2,3.09-0.61,4.53-0.24" style="fill:none;stroke:black;stroke-width:3" />
<circle cx="340.84" cy="56.56" r="5" stroke-width="0" fill="#FF2A00" opacity="0.7" />
<path d="M465.75,14.99c0,0.74,0.05,1.33-0.14,2.22c-0.95,4.63-8.24,18.91-17.64,26.91" style="fill:none;stroke:#999;stroke-width:3" />
<path d="M467.39,21.21C471.5,23 476.75,28 478.75,32.5" style="fill:none;stroke:#999;stroke-width:3" />
<path d="M456.25,41c1.5,0.25,2.5,0.08,3.78-0.04c3.5-0.33,7.61-1.06,11.23-1.97c1.22-0.31,2.45-0.49,3.74-0.49" style="fill:none;stroke:#999;stroke-width:3" />
<path d="M449.84,56.56c1.54,0.56,3.7,0.39,5.17,0.22c4.96-0.57,11.14-1.67,17.74-2.57c1.44-0.2,3.09-0.61,4.53-0.24" style="fill:none;stroke:#999;stroke-width:3" />
<path d="M464.45,43.44c0.87,0.87,1.24,1.93,1.24,3.64c0,4.35-0.06,26.98-0.06,33.17" style="fill:none;stroke:black;stroke-width:3" />
<circle cx="464.45" cy="43.44" r="5" stroke-width="0" fill="#FF2A00" opacity="0.7" />
<path d="M574.75,14.99c0,0.74,0.05,1.33-0.14,2.22c-0.95,4.63-8.24,18.91-17.64,26.91" style="fill:none;stroke:#999;stroke-width:3" />
<path d="M576.39,21.21C580.5,23 585.75,28 587.75,32.5" style="fill:none;stroke:#999;stroke-width:3" />
<path d="M565.25,41c1.5,0.25,2.5,0.08,3.78-0.04c3.5-0.33,7.61-1.06,11.23-1.97c1.22-0.31,2.45-0.49,3.74-0.49" style="fill:none;stroke:#999;stroke-width:3" />
<path d="M558.8399999999999,56.56c1.54,0.56,3.7,0.39,5.17,0.22c4.96-0.57,11.14-1.67,17.74-2.57c1.44-0.2,3.09-0.61,4.53-0.24" style="fill:none;stroke:#999;stroke-width:3" />
<path d="M573.45,43.44c0.87,0.87,1.24,1.93,1.24,3.64c0,4.35-0.06,26.98-0.06,33.17" style="fill:none;stroke:#999;stroke-width:3" />
<path d="M560.88,66.25c3.2,3.82,4.76,7.97,5.42,10.2" style="fill:none;stroke:black;stroke-width:3" />
<circle cx="560.88" cy="66.25" r="5" stroke-width="0" fill="#FF2A00" opacity="0.7" />
<path d="M683.75,14.99c0,0.74,0.05,1.33-0.14,2.22c-0.95,4.63-8.24,18.91-17.64,26.91" style="fill:none;stroke:#999;stroke-width:3" />
<path d="M685.39,21.21C689.5,23 694.75,28 696.75,32.5" style="fill:none;stroke:#999;stroke-width:3" />
<path d="M674.25,41c1.5,0.25,2.5,0.08,3.78-0.04c3.5-0.33,7.61-1.06,11.23-1.97c1.22-0.31,2.45-0.49,3.74-0.49" style="fill:none;stroke:#999;stroke-width:3" />
<path d="M667.8399999999999,56.56c1.54,0.56,3.7,0.39,5.17,0.22c4.96-0.57,11.14-1.67,17.74-2.57c1.44-0.2,3.09-0.61,4.53-0.24" style="fill:none;stroke:#999;stroke-width:3" />
<path d="M682.45,43.44c0.87,0.87,1.24,1.93,1.24,3.64c0,4.35-0.06,26.98-0.06,33.17" style="fill:none;stroke:#999;stroke-width:3" />
<path d="M669.88,66.25c3.2,3.82,4.76,7.97,5.42,10.2" style="fill:none;stroke:#999;stroke-width:3" />
<path d="M695.29,60.8c0.23,0.71,0.27,1.8,0.01,2.35c-1.05,2.23-2.05,4.36-4.63,8.88" style="fill:none;stroke:black;stroke-width:3" />
<circle cx="695.29" cy="60.8" r="5" stroke-width="0" fill="#FF2A00" opacity="0.7" />
<path d="M792.75,14.99c0,0.74,0.05,1.33-0.14,2.22c-0.95,4.63-8.24,18.91-17.64,26.91" style="fill:none;stroke:#999;stroke-width:3" />
<path d="M794.39,21.21C798.5,23 803.75,28 805.75,32.5" style="fill:none;stroke:#999;stroke-width:3" />
<path d="M783.25,41c1.5,0.25,2.5,0.08,3.78-0.04c3.5-0.33,7.61-1.06,11.23-1.97c1.22-0.31,2.45-0.49,3.74-0.49" style="fill:none;stroke:#999;stroke-width:3" />
<path d="M776.8399999999999,56.56c1.54,0.56,3.7,0.39,5.17,0.22c4.96-0.57,11.14-1.67,17.74-2.57c1.44-0.2,3.09-0.61,4.53-0.24" style="fill:none;stroke:#999;stroke-width:3" />
<path d="M791.45,43.44c0.87,0.87,1.24,1.93,1.24,3.64c0,4.35-0.06,26.98-0.06,33.17" style="fill:none;stroke:#999;stroke-width:3" />
<path d="M778.88,66.25c3.2,3.82,4.76,7.97,5.42,10.2" style="fill:none;stroke:#999;stroke-width:3" />
<path d="M804.29,60.8c0.23,0.71,0.27,1.8,0.01,2.35c-1.05,2.23-2.05,4.36-4.63,8.88" style="fill:none;stroke:#999;stroke-width:3" />
<path d="M776.38,85.91c1,0.94,3.41,0.64,4.48,0.24C782.1,85.68 791.56,81.66 804.5,76" style="fill:none;stroke:black;stroke-width:3" />
<circle cx="776.38" cy="85.91" r="5" stroke-width="0" fill="#FF2A00" opacity="0.7" />
<path d="M901.75,14.99c0,0.74,0.05,1.33-0.14,2.22c-0.95,4.63-8.24,18.91-17.64,26.91" style="fill:none;stroke:#999;stroke-width:3" />
<path d="M903.39,21.21C907.5,23 912.75,28 914.75,32.5" style="fill:none;stroke:#999;stroke-width:3" />
<path d="M892.25,41c1.5,0.25,2.5,0.08,3.78-0.04c3.5-0.33,7.61-1.06,11.23-1.97c1.22-0.31,2.45-0.49,3.74-0.49" style="fill:none;stroke:#999;stroke-width:3" />
<path d="M885.8399999999999,56.56c1.54,0.56,3.7,0.39,5.17,0.22c4.96-0.57,11.14-1.67,17.74-2.57c1.44-0.2,3.09-0.61,4.53-0.24" style="fill:none;stroke:#999;stroke-width:3" />
<path d="M900.45,43.44c0.87,0.87,1.24,1.93,1.24,3.64c0,4.35-0.06,26.98-0.06,33.17" style="fill:none;stroke:#999;stroke-width:3" />
<path d="M887.88,66.25c3.2,3.82,4.76,7.97,5.42,10.2" style="fill:none;stroke:#999;stroke-width:3" />
<path d="M913.29,60.8c0.23,0.71,0.27,1.8,0.01,2.35c-1.05,2.23-2.05,4.36-4.63,8.88" style="fill:none;stroke:#999;stroke-width:3" />
<path d="M885.38,85.91c1,0.94,3.41,0.64,4.48,0.24C891.1,85.68 900.56,81.66 913.5,76" style="fill:none;stroke:#999;stroke-width:3" />
<path d="M922.75,15.88c2.61,1.61,6.74,6.64,7.39,9.15" style="fill:none;stroke:black;stroke-width:3" />
<circle cx="922.75" cy="15.88" r="5" stroke-width="0" fill="#FF2A00" opacity="0.7" />
<path d="M1010.75,14.99c0,0.74,0.05,1.33-0.14,2.22c-0.95,4.63-8.24,18.91-17.64,26.91" style="fill:none;stroke:#999;stroke-width:3" />
<path d="M1012.39,21.21C1016.5,23 1021.75,28 1023.75,32.5" style="fill:none;stroke:#999;stroke-width:3" />
<path d="M1001.25,41c1.5,0.25,2.5,0.08,3.78-0.04c3.5-0.33,7.61-1.06,11.23-1.97c1.22-0.31,2.45-0.49,3.74-0.49" style="fill:none;stroke:#999;stroke-width:3" />
<path d="M994.8399999999999,56.56c1.54,0.56,3.7,0.39,5.17,0.22c4.96-0.57,11.14-1.67,17.74-2.57c1.44-0.2,3.09-0.61,4.53-0.24" style="fill:none;stroke:#999;stroke-width:3" />
<path d="M1009.45,43.44c0.87,0.87,1.24,1.93,1.24,3.64c0,4.35-0.06,26.98-0.06,33.17" style="fill:none;stroke:#999;stroke-width:3" />
<path d="M996.88,66.25c3.2,3.82,4.76,7.97,5.42,10.2" style="fill:none;stroke:#999;stroke-width:3" />
<path d="M1022.29,60.8c0.23,0.71,0.27,1.8,0.01,2.35c-1.05,2.23-2.05,4.36-4.63,8.88" style="fill:none;stroke:#999;stroke-width:3" />
<path d="M994.38,85.91c1,0.94,3.41,0.64,4.48,0.24C1000.1,85.68 1009.56,81.66 1022.5,76" style="fill:none;stroke:#999;stroke-width:3" />
<path d="M1031.75,15.88c2.61,1.61,6.74,6.64,7.39,9.15" style="fill:none;stroke:#999;stroke-width:3" />
<path d="M1058.58,12.89c0.12,1.03,0.11,1.96-0.35,2.89c-1.97,3.96-3.72,6.71-6.98,11.29" style="fill:none;stroke:black;stroke-width:3" />
<circle cx="1058.58" cy="12.89" r="5" stroke-width="0" fill="#FF2A00" opacity="0.7" />
<path d="M1119.75,14.99c0,0.74,0.05,1.33-0.14,2.22c-0.95,4.63-8.24,18.91-17.64,26.91" style="fill:none;stroke:#999;stroke-width:3" />
<path d="M1121.3899999999999,21.21C1125.5,23 1130.75,28 1132.75,32.5" style="fill:none;stroke:#999;stroke-width:3" />
<path d="M1110.25,41c1.5,0.25,2.5,0.08,3.78-0.04c3.5-0.33,7.61-1.06,11.23-1.97c1.22-0.31,2.45-0.49,3.74-0.49" style="fill:none;stroke:#999;stroke-width:3" />
<path d="M1103.84,56.56c1.54,0.56,3.7,0.39,5.17,0.22c4.96-0.57,11.14-1.67,17.74-2.57c1.44-0.2,3.09-0.61,4.53-0.24" style="fill:none;stroke:#999;stroke-width:3" />
<path d="M1118.45,43.44c0.87,0.87,1.24,1.93,1.24,3.64c0,4.35-0.06,26.98-0.06,33.17" style="fill:none;stroke:#999;stroke-width:3" />
<path d="M1105.88,66.25c3.2,3.82,4.76,7.97,5.42,10.2" style="fill:none;stroke:#999;stroke-width:3" />
<path d="M1131.29,60.8c0.23,0.71,0.27,1.8,0.01,2.35c-1.05,2.23-2.05,4.36-4.63,8.88" style="fill:none;stroke:#999;stroke-width:3" />
<path d="M1103.38,85.91c1,0.94,3.41,0.64,4.48,0.24C1109.1,85.68 1118.56,81.66 1131.5,76" style="fill:none;stroke:#999;stroke-width:3" />
<path d="M1140.75,15.88c2.61,1.61,6.74,6.64,7.39,9.15" style="fill:none;stroke:#999;stroke-width:3" />
<path d="M1167.58,12.89c0.12,1.03,0.11,1.96-0.35,2.89c-1.97,3.96-3.72,6.71-6.98,11.29" style="fill:none;stroke:#999;stroke-width:3" />
<path d="M1138.15,31.25c2.48,0.38,4.5,0.21,6.48-0.03c6.37-0.78,17.44-2.4,24.76-3.2c2.07-0.23,4.02-0.5,6.07,0.02" style="fill:none;stroke:black;stroke-width:3" />
<circle cx="1138.15" cy="31.25" r="5" stroke-width="0" fill="#FF2A00" opacity="0.7" />
<path d="M1228.75,14.99c0,0.74,0.05,1.33-0.14,2.22c-0.95,4.63-8.24,18.91-17.64,26.91" style="fill:none;stroke:#999;stroke-width:3" />
<path d="M1230.3899999999999,21.21C1234.5,23 1239.75,28 1241.75,32.5" style="fill:none;stroke:#999;stroke-width:3" />
<path d="M1219.25,41c1.5,0.25,2.5,0.08,3.78-0.04c3.5-0.33,7.61-1.06,11.23-1.97c1.22-0.31,2.45-0.49,3.74-0.49" style="fill:none;stroke:#999;stroke-width:3" />
<path d="M1212.84,56.56c1.54,0.56,3.7,0.39,5.17,0.22c4.96-0.57,11.14-1.67,17.74-2.57c1.44-0.2,3.09-0.61,4.53-0.24" style="fill:none;stroke:#999;stroke-width:3" />
<path d="M1227.45,43.44c0.87,0.87,1.24,1.93,1.24,3.64c0,4.35-0.06,26.98-0.06,33.17" style="fill:none;stroke:#999;stroke-width:3" />
<path d="M1214.88,66.25c3.2,3.82,4.76,7.97,5.42,10.2" style="fill:none;stroke:#999;stroke-width:3" />
<path d="M1240.29,60.8c0.23,0.71,0.27,1.8,0.01,2.35c-1.05,2.23-2.05,4.36-4.63,8.88" style="fill:none;stroke:#999;stroke-width:3" />
<path d="M1212.38,85.91c1,0.94,3.41,0.64,4.48,0.24C1218.1,85.68 1227.56,81.66 1240.5,76" style="fill:none;stroke:#999;stroke-width:3" />
<path d="M1249.75,15.88c2.61,1.61,6.74,6.64,7.39,9.15" style="fill:none;stroke:#999;stroke-width:3" />
<path d="M1276.58,12.89c0.12,1.03,0.11,1.96-0.35,2.89c-1.97,3.96-3.72,6.71-6.98,11.29" style="fill:none;stroke:#999;stroke-width:3" />
<path d="M1247.15,31.25c2.48,0.38,4.5,0.21,6.48-0.03c6.37-0.78,17.44-2.4,24.76-3.2c2.07-0.23,4.02-0.5,6.07,0.02" style="fill:none;stroke:#999;stroke-width:3" />
<path d="M1247.86,42.4c2.27,0.48,4.06,0.45,6.38,0.13c8.99-1.25,17.14-2.38,25.69-3.55c1.78-0.24,2.79,1.62,2.39,3.92c-1.04,6.04-2.56,15.1-3.89,20" style="fill:none;stroke:black;stroke-width:3" />
<circle cx="1247.86" cy="42.4" r="5" stroke-width="0" fill="#FF2A00" opacity="0.7" />
<path d="M1337.75,14.99c0,0.74,0.05,1.33-0.14,2.22c-0.95,4.63-8.24,18.91-17.64,26.91" style="fill:none;stroke:#999;stroke-width:3" />
<path d="M1339.3899999999999,21.21C1343.5,23 1348.75,28 1350.75,32.5" style="fill:none;stroke:#999;stroke-width:3" />
<path d="M1328.25,41c1.5,0.25,2.5,0.08,3.78-0.04c3.5-0.33,7.61-1.06,11.23-1.97c1.22-0.31,2.45-0.49,3.74-0.49" style="fill:none;stroke:#999;stroke-width:3" />
<path d="M1321.84,56.56c1.54,0.56,3.7,0.39,5.17,0.22c4.96-0.57,11.14-1.67,17.74-2.57c1.44-0.2,3.09-0.61,4.53-0.24" style="fill:none;stroke:#999;stroke-width:3" />
<path d="M1336.45,43.44c0.87,0.87,1.24,1.93,1.24,3.64c0,4.35-0.06,26.98-0.06,33.17" style="fill:none;stroke:#999;stroke-width:3" />
<path d="M1323.88,66.25c3.2,3.82,4.76,7.97,5.42,10.2" style="fill:none;stroke:#999;stroke-width:3" />
<path d="M1349.29,60.8c0.23,0.71,0.27,1.8,0.01,2.35c-1.05,2.23-2.05,4.36-4.63,8.88" style="fill:none;stroke:#999;stroke-width:3" />
<path d="M1321.38,85.91c1,0.94,3.41,0.64,4.48,0.24C1327.1,85.68 1336.56,81.66 1349.5,76" style="fill:none;stroke:#999;stroke-width:3" />
<path d="M1358.75,15.88c2.61,1.61,6.74,6.64,7.39,9.15" style="fill:none;stroke:#999;stroke-width:3" />
<path d="M1385.58,12.89c0.12,1.03,0.11,1.96-0.35,2.89c-1.97,3.96-3.72,6.71-6.98,11.29" style="fill:none;stroke:#999;stroke-width:3" />
<path d="M1356.15,31.25c2.48,0.38,4.5,0.21,6.48-0.03c6.37-0.78,17.44-2.4,24.76-3.2c2.07-0.23,4.02-0.5,6.07,0.02" style="fill:none;stroke:#999;stroke-width:3" />
<path d="M1356.86,42.4c2.27,0.48,4.06,0.45,6.38,0.13c8.99-1.25,17.14-2.38,25.69-3.55c1.78-0.24,2.79,1.62,2.39,3.92c-1.04,6.04-2.56,15.1-3.89,20" style="fill:none;stroke:#999;stroke-width:3" />
<path d="M1353.62,52.92c2.76,0.71,4.89,0.5,7.51,0.22c11.57-1.25,22.37-2.88,34.12-3.64c2.81-0.18,5.27-0.12,8.01,0.52" style="fill:none;stroke:black;stroke-width:3" />
<circle cx="1353.62" cy="52.92" r="5" stroke-width="0" fill="#FF2A00" opacity="0.7" />
<path d="M1446.75,14.99c0,0.74,0.05,1.33-0.14,2.22c-0.95,4.63-8.24,18.91-17.64,26.91" style="fill:none;stroke:#999;stroke-width:3" />
<path d="M1448.3899999999999,21.21C1452.5,23 1457.75,28 1459.75,32.5" style="fill:none;stroke:#999;stroke-width:3" />
<path d="M1437.25,41c1.5,0.25,2.5,0.08,3.78-0.04c3.5-0.33,7.61-1.06,11.23-1.97c1.22-0.31,2.45-0.49,3.74-0.49" style="fill:none;stroke:#999;stroke-width:3" />
<path d="M1430.84,56.56c1.54,0.56,3.7,0.39,5.17,0.22c4.96-0.57,11.14-1.67,17.74-2.57c1.44-0.2,3.09-0.61,4.53-0.24" style="fill:none;stroke:#999;stroke-width:3" />
<path d="M1445.45,43.44c0.87,0.87,1.24,1.93,1.24,3.64c0,4.35-0.06,26.98-0.06,33.17" style="fill:none;stroke:#999;stroke-width:3" />
<path d="M1432.88,66.25c3.2,3.82,4.76,7.97,5.42,10.2" style="fill:none;stroke:#999;stroke-width:3" />
<path d="M1458.29,60.8c0.23,0.71,0.27,1.8,0.01,2.35c-1.05,2.23-2.05,4.36-4.63,8.88" style="fill:none;stroke:#999;stroke-width:3" />
<path d="M1430.38,85.91c1,0.94,3.41,0.64,4.48,0.24C1436.1,85.68 1445.56,81.66 1458.5,76" style="fill:none;stroke:#999;stroke-width:3" />
<path d="M1467.75,15.88c2.61,1.61,6.74,6.64,7.39,9.15" style="fill:none;stroke:#999;stroke-width:3" />
<path d="M1494.58,12.89c0.12,1.03,0.11,1.96-0.35,2.89c-1.97,3.96-3.72,6.71-6.98,11.29" style="fill:none;stroke:#999;stroke-width:3" />
<path d="M1465.15,31.25c2.48,0.38,4.5,0.21,6.48-0.03c6.37-0.78,17.44-2.4,24.76-3.2c2.07-0.23,4.02-0.5,6.07,0.02" style="fill:none;stroke:#999;stroke-width:3" />
<path d="M1465.86,42.4c2.27,0.48,4.06,0.45,6.38,0.13c8.99-1.25,17.14-2.38,25.69-3.55c1.78-0.24,2.79,1.62,2.39,3.92c-1.04,6.04-2.56,15.1-3.89,20" style="fill:none;stroke:#999;stroke-width:3" />
<path d="M1462.62,52.92c2.76,0.71,4.89,0.5,7.51,0.22c11.57-1.25,22.37-2.88,34.12-3.64c2.81-0.18,5.27-0.12,8.01,0.52" style="fill:none;stroke:#999;stroke-width:3" />
<path d="M1465.55,63.99c2.07,0.63,3.54,0.47,5.45,0.27c8.1-0.87,18.87-3.01,24.16-3.24" style="fill:none;stroke:black;stroke-width:3" />
<circle cx="1465.55" cy="63.99" r="5" stroke-width="0" fill="#FF2A00" opacity="0.7" />
<path d="M1555.75,14.99c0,0.74,0.05,1.33-0.14,2.22c-0.95,4.63-8.24,18.91-17.64,26.91" style="fill:none;stroke:#999;stroke-width:3" />
<path d="M1557.3899999999999,21.21C1561.5,23 1566.75,28 1568.75,32.5" style="fill:none;stroke:#999;stroke-width:3" />
<path d="M1546.25,41c1.5,0.25,2.5,0.08,3.78-0.04c3.5-0.33,7.61-1.06,11.23-1.97c1.22-0.31,2.45-0.49,3.74-0.49" style="fill:none;stroke:#999;stroke-width:3" />
<path d="M1539.84,56.56c1.54,0.56,3.7,0.39,5.17,0.22c4.96-0.57,11.14-1.67,17.74-2.57c1.44-0.2,3.09-0.61,4.53-0.24" style="fill:none;stroke:#999;stroke-width:3" />
<path d="M1554.45,43.44c0.87,0.87,1.24,1.93,1.24,3.64c0,4.35-0.06,26.98-0.06,33.17" style="fill:none;stroke:#999;stroke-width:3" />
<path d="M1541.88,66.25c3.2,3.82,4.76,7.97,5.42,10.2" style="fill:none;stroke:#999;stroke-width:3" />
<path d="M1567.29,60.8c0.23,0.71,0.27,1.8,0.01,2.35c-1.05,2.23-2.05,4.36-4.63,8.88" style="fill:none;stroke:#999;stroke-width:3" />
<path d="M1539.38,85.91c1,0.94,3.41,0.64,4.48,0.24C1545.1,85.68 1554.56,81.66 1567.5,76" style="fill:none;stroke:#999;stroke-width:3" />
<path d="M1576.75,15.88c2.61,1.61,6.74,6.64,7.39,9.15" style="fill:none;stroke:#999;stroke-width:3" />
<path d="M1603.58,12.89c0.12,1.03,0.11,1.96-0.35,2.89c-1.97,3.96-3.72,6.71-6.98,11.29" style="fill:none;stroke:#999;stroke-width:3" />
<path d="M1574.15,31.25c2.48,0.38,4.5,0.21,6.48-0.03c6.37-0.78,17.44-2.4,24.76-3.2c2.07-0.23,4.02-0.5,6.07,0.02" style="fill:none;stroke:#999;stroke-width:3" />
<path d="M1574.86,42.4c2.27,0.48,4.06,0.45,6.38,0.13c8.99-1.25,17.14-2.38,25.69-3.55c1.78-0.24,2.79,1.62,2.39,3.92c-1.04,6.04-2.56,15.1-3.89,20" style="fill:none;stroke:#999;stroke-width:3" />
<path d="M1571.62,52.92c2.76,0.71,4.89,0.5,7.51,0.22c11.57-1.25,22.37-2.88,34.12-3.64c2.81-0.18,5.27-0.12,8.01,0.52" style="fill:none;stroke:#999;stroke-width:3" />
<path d="M1574.55,63.99c2.07,0.63,3.54,0.47,5.45,0.27c8.1-0.87,18.87-3.01,24.16-3.24" style="fill:none;stroke:#999;stroke-width:3" />
<path d="M1583.79,33.71c1,1,1.06,2.04,1.06,3.5c0,0.77-0.08,34.92-0.08,50.79c0,3.58-0.02,4.62-0.02,7.25" style="fill:none;stroke:black;stroke-width:3" />
<circle cx="1583.79" cy="33.71" r="5" stroke-width="0" fill="#FF2A00" opacity="0.7" />
<path d="M1664.75,14.99c0,0.74,0.05,1.33-0.14,2.22c-0.95,4.63-8.24,18.91-17.64,26.91" style="fill:none;stroke:#999;stroke-width:3" />
<path d="M1666.3899999999999,21.21C1670.5,23 1675.75,28 1677.75,32.5" style="fill:none;stroke:#999;stroke-width:3" />
<path d="M1655.25,41c1.5,0.25,2.5,0.08,3.78-0.04c3.5-0.33,7.61-1.06,11.23-1.97c1.22-0.31,2.45-0.49,3.74-0.49" style="fill:none;stroke:#999;stroke-width:3" />
<path d="M1648.84,56.56c1.54,0.56,3.7,0.39,5.17,0.22c4.96-0.57,11.14-1.67,17.74-2.57c1.44-0.2,3.09-0.61,4.53-0.24" style="fill:none;stroke:#999;stroke-width:3" />
<path d="M1663.45,43.44c0.87,0.87,1.24,1.93,1.24,3.64c0,4.35-0.06,26.98-0.06,33.17" style="fill:none;stroke:#999;stroke-width:3" />
<path d="M1650.88,66.25c3.2,3.82,4.76,7.97,5.42,10.2" style="fill:none;stroke:#999;stroke-width:3" />
<path d="M1676.29,60.8c0.23,0.71,0.27,1.8,0.01,2.35c-1.05,2.23-2.05,4.36-4.63,8.88" style="fill:none;stroke:#999;stroke-width:3" />
<path d="M1648.38,85.91c1,0.94,3.41,0.64,4.48,0.24C1654.1,85.68 1663.56,81.66 1676.5,76" style="fill:none;stroke:#999;stroke-width:3" />
<path d="M1685.75,15.88c2.61,1.61,6.74,6.64,7.39,9.15" style="fill:none;stroke:#999;stroke-width:3" />
<path d="M1712.58,12.89c0.12,1.03,0.11,1.96-0.35,2.89c-1.97,3.96-3.72,6.71-6.98,11.29" style="fill:none;stroke:#999;stroke-width:3" />
<path d="M1683.15,31.25c2.48,0.38,4.5,0.21,6.48-0.03c6.37-0.78,17.44-2.4,24.76-3.2c2.07-0.23,4.02-0.5,6.07,0.02" style="fill:none;stroke:#999;stroke-width:3" />
<path d="M1683.86,42.4c2.27,0.48,4.06,0.45,6.38,0.13c8.99-1.25,17.14-2.38,25.69-3.55c1.78-0.24,2.79,1.62,2.39,3.92c-1.04,6.04-2.56,15.1-3.89,20" style="fill:none;stroke:#999;stroke-width:3" />
<path d="M1680.62,52.92c2.76,0.71,4.89,0.5,7.51,0.22c11.57-1.25,22.37-2.88,34.12-3.64c2.81-0.18,5.27-0.12,8.01,0.52" style="fill:none;stroke:#999;stroke-width:3" />
<path d="M1683.55,63.99c2.07,0.63,3.54,0.47,5.45,0.27c8.1-0.87,18.87-3.01,24.16-3.24" style="fill:none;stroke:#999;stroke-width:3" />
<path d="M1692.79,33.71c1,1,1.06,2.04,1.06,3.5c0,0.77-0.08,34.92-0.08,50.79c0,3.58-0.02,4.62-0.02,7.25" style="fill:none;stroke:#999;stroke-width:3" />
<path d="M1704.33,31.69c0.87,0.87,1.06,2.06,1.06,3c0,2.94,0.09,37.46,0.09,54.06c0,1.88-0.02,5.62-0.02,7.58" style="fill:none;stroke:black;stroke-width:3" />
<circle cx="1704.33" cy="31.69" r="5" stroke-width="0" fill="#FF2A00" opacity="0.7" />
<path d="M1773.75,14.99c0,0.74,0.05,1.33-0.14,2.22c-0.95,4.63-8.24,18.91-17.64,26.91" style="fill:none;stroke:#999;stroke-width:3" />
<path d="M1775.3899999999999,21.21C1779.5,23 1784.75,28 1786.75,32.5" style="fill:none;stroke:#999;stroke-width:3" />
<path d="M1764.25,41c1.5,0.25,2.5,0.08,3.78-0.04c3.5-0.33,7.61-1.06,11.23-1.97c1.22-0.31,2.45-0.49,3.74-0.49" style="fill:none;stroke:#999;stroke-width:3" />
<path d="M1757.84,56.56c1.54,0.56,3.7,0.39,5.17,0.22c4.96-0.57,11.14-1.67,17.74-2.57c1.44-0.2,3.09-0.61,4.53-0.24" style="fill:none;stroke:#999;stroke-width:3" />
<path d="M1772.45,43.44c0.87,0.87,1.24,1.93,1.24,3.64c0,4.35-0.06,26.98-0.06,33.17" style="fill:none;stroke:#999;stroke-width:3" />
<path d="M1759.88,66.25c3.2,3.82,4.76,7.97,5.42,10.2" style="fill:none;stroke:#999;stroke-width:3" />
<path d="M1785.29,60.8c0.23,0.71,0.27,1.8,0.01,2.35c-1.05,2.23-2.05,4.36-4.63,8.88" style="fill:none;stroke:#999;stroke-width:3" />
<path d="M1757.38,85.91c1,0.94,3.41,0.64,4.48,0.24C1763.1,85.68 1772.56,81.66 1785.5,76" style="fill:none;stroke:#999;stroke-width:3" />
<path d="M1794.75,15.88c2.61,1.61,6.74,6.64,7.39,9.15" style="fill:none;stroke:#999;stroke-width:3" />
<path d="M1821.58,12.89c0.12,1.03,0.11,1.96-0.35,2.89c-1.97,3.96-3.72,6.71-6.98,11.29" style="fill:none;stroke:#999;stroke-width:3" />
<path d="M1792.15,31.25c2.48,0.38,4.5,0.21,6.48-0.03c6.37-0.78,17.44-2.4,24.76-3.2c2.07-0.23,4.02-0.5,6.07,0.02" style="fill:none;stroke:#999;stroke-width:3" />
<path d="M1792.86,42.4c2.27,0.48,4.06,0.45,6.38,0.13c8.99-1.25,17.14-2.38,25.69-3.55c1.78-0.24,2.79,1.62,2.39,3.92c-1.04,6.04-2.56,15.1-3.89,20" style="fill:none;stroke:#999;stroke-width:3" />
<path d="M1789.62,52.92c2.76,0.71,4.89,0.5,7.51,0.22c11.57-1.25,22.37-2.88,34.12-3.64c2.81-0.18,5.27-0.12,8.01,0.52" style="fill:none;stroke:#999;stroke-width:3" />
<path d="M1792.55,63.99c2.07,0.63,3.54,0.47,5.45,0.27c8.1-0.87,18.87-3.01,24.16-3.24" style="fill:none;stroke:#999;stroke-width:3" />
<path d="M1801.79,33.71c1,1,1.06,2.04,1.06,3.5c0,0.77-0.08,34.92-0.08,50.79c0,3.58-0.02,4.62-0.02,7.25" style="fill:none;stroke:#999;stroke-width:3" />
<path d="M1813.33,31.69c0.87,0.87,1.06,2.06,1.06,3c0,2.94,0.09,37.46,0.09,54.06c0,1.88-0.02,5.62-0.02,7.58" style="fill:none;stroke:#999;stroke-width:3" />
<path d="M1801.99,65.48c0,1.27-1.01,3.78-1.82,5.12c-4.62,7.69-11.67,15.65-19.51,20.71" style="fill:none;stroke:black;stroke-width:3" />
<circle cx="1801.99" cy="65.48" r="5" stroke-width="0" fill="#FF2A00" opacity="0.7" />
<path d="M1882.75,14.99c0,0.74,0.05,1.33-0.14,2.22c-0.95,4.63-8.24,18.91-17.64,26.91" style="fill:none;stroke:#999;stroke-width:3" />
<path d="M1884.3899999999999,21.21C1888.5,23 1893.75,28 1895.75,32.5" style="fill:none;stroke:#999;stroke-width:3" />
<path d="M1873.25,41c1.5,0.25,2.5,0.08,3.78-0.04c3.5-0.33,7.61-1.06,11.23-1.97c1.22-0.31,2.45-0.49,3.74-0.49" style="fill:none;stroke:#999;stroke-width:3" />
<path d="M1866.84,56.56c1.54,0.56,3.7,0.39,5.17,0.22c4.96-0.57,11.14-1.67,17.74-2.57c1.44-0.2,3.09-0.61,4.53-0.24" style="fill:none;stroke:#999;stroke-width:3" />
<path d="M1881.45,43.44c0.87,0.87,1.24,1.93,1.24,3.64c0,4.35-0.06,26.98-0.06,33.17" style="fill:none;stroke:#999;stroke-width:3" />
<path d="M1868.88,66.25c3.2,3.82,4.76,7.97,5.42,10.2" style="fill:none;stroke:#999;stroke-width:3" />
<path d="M1894.29,60.8c0.23,0.71,0.27,1.8,0.01,2.35c-1.05,2.23-2.05,4.36-4.63,8.88" style="fill:none;stroke:#999;stroke-width:3" />
<path d="M1866.38,85.91c1,0.94,3.41,0.64,4.48,0.24C1872.1,85.68 1881.56,81.66 1894.5,76" style="fill:none;stroke:#999;stroke-width:3" />
<path d="M1903.75,15.88c2.61,1.61,6.74,6.64,7.39,9.15" style="fill:none;stroke:#999;stroke-width:3" />
<path d="M1930.58,12.89c0.12,1.03,0.11,1.96-0.35,2.89c-1.97,3.96-3.72,6.71-6.98,11.29" style="fill:none;stroke:#999;stroke-width:3" />
<path d="M1901.15,31.25c2.48,0.38,4.5,0.21,6.48-0.03c6.37-0.78,17.44-2.4,24.76-3.2c2.07-0.23,4.02-0.5,6.07,0.02" style="fill:none;stroke:#999;stroke-width:3" />
<path d="M1901.86,42.4c2.27,0.48,4.06,0.45,6.38,0.13c8.99-1.25,17.14-2.38,25.69-3.55c1.78-0.24,2.79,1.62,2.39,3.92c-1.04,6.04-2.56,15.1-3.89,20" style="fill:none;stroke:#999;stroke-width:3" />
<path d="M1898.62,52.92c2.76,0.71,4.89,0.5,7.51,0.22c11.57-1.25,22.37-2.88,34.12-3.64c2.81-0.18,5.27-0.12,8.01,0.52" style="fill:none;stroke:#999;stroke-width:3" />
<path d="M1901.55,63.99c2.07,0.63,3.54,0.47,5.45,0.27c8.1-0.87,18.87-3.01,24.16-3.24" style="fill:none;stroke:#999;stroke-width:3" />
<path d="M1910.79,33.71c1,1,1.06,2.04,1.06,3.5c0,0.77-0.08,34.92-0.08,50.79c0,3.58-0.02,4.62-0.02,7.25" style="fill:none;stroke:#999;stroke-width:3" />
<path d="M1922.33,31.69c0.87,0.87,1.06,2.06,1.06,3c0,2.94,0.09,37.46,0.09,54.06c0,1.88-0.02,5.62-0.02,7.58" style="fill:none;stroke:#999;stroke-width:3" />
<path d="M1910.99,65.48c0,1.27-1.01,3.78-1.82,5.12c-4.62,7.69-11.67,15.65-19.51,20.71" style="fill:none;stroke:#999;stroke-width:3" />
<path d="M1924.88,65.88C1928.25,70 1936.73,77.8 1941.89,82.74c2.03,1.94,4.21,3.68,6.8,4.83" style="fill:none;stroke:black;stroke-width:3" />
<circle cx="1924.88" cy="65.88" r="5" stroke-width="0" fill="#FF2A00" opacity="0.7" />
</svg>