<!-- 09394 -->
<svg width="1962px" height="109px" viewBox="0 0 1962px 109px" xmlns="http://www.w3.org/2000/svg" xmlns:xlink="http://www.w3.org/1999/xlink" xml:space="preserve" version="1.1"  baseProfile="full">
<line x1="1" y1="1" x2="1961" y2="1" style="stroke:#ddd;stroke-width:2" />
<line x1="1" y1="1" x2="1" y2="108" style="stroke:#ddd;stroke-width:2" />
<line x1="1" y1="108" x2="1961" y2="108" style="stroke:#ddd;stroke-width:2" />
<line x1="1961" y1="1" x2="1961" y2="108" style="stroke:#ddd;stroke-width:2" />
<line x1="109" y1="1" x2="109" y2="108" style="stroke:#ddd;stroke-width:2" />
<line x1="218" y1="1" x2="218" y2="108" style="stroke:#ddd;stroke-width:2" />
<line x1="327" y1="1" x2="327" y2="108" style="stroke:#ddd;stroke-width:2" />
<line x1="436" y1="1" x2="436" y2="108" style="stroke:#ddd;stroke-width:2" />
<line x1="545" y1="1" x2="545" y2="108" style="stroke:#ddd;stroke-width:2" />
<line x1="654" y1="1" x2="654" y2="108" style="stroke:#ddd;stroke-width:2" />
<line x1="763" y1="1" x2="763" y2="108" style="stroke:#ddd;stroke-width:2" />
<line x1="872" y1="1" x2="872" y2="108" style="stroke:#ddd;stroke-width:2" />
<line x1="981" y1="1" x2="981" y2="108" style="stroke:#ddd;stroke-width:2" />
<line x1="1090" y1="1" x2="1090" y2="108" style="stroke:#ddd;stroke-width:2" />
<line x1="1199" y1="1" x2="1199" y2="108" style="stroke:#ddd;stroke-width:2" />
<line x1="1308" y1="1" x2="1308" y2="108" style="stroke:#ddd;stroke-width:2" />
<line x1="1417" y1="1" x2="1417" y2="108" style="stroke:#ddd;stroke-width:2" />
<line x1="1526" y1="1" x2="1526" y2="108" style="stroke:#ddd;stroke-width:2" />
<line x1="1635" y1="1" x2="1635" y2="108" style="stroke:#ddd;stroke-width:2" />
<line x1="1744" y1="1" x2="1744" y2="108" style="stroke:#ddd;stroke-width:2" />
<line x1="1853" y1="1" x2="1853" y2="108" style="stroke:#ddd;stroke-width:2" />
<line x1="1" y1="54" x2="1961" y2="54" style="stroke:#ddd;stroke-width:2;stroke-dasharray:3 3" />
<line x1="55" y1="1" x2="55" y2="108" style="stroke:#ddd;stroke-width:2;stroke-dasharray:3 3" />
<line x1="164" y1="1" x2="164" y2="108" style="stroke:#ddd;stroke-width:2;stroke-dasharray:3 3" />
<line x1="273" y1="1" x2="273" y2="108" style="stroke:#ddd;stroke-width:2;stroke-dasharray:3 3" />
<line x1="382" y1="1" x2="382" y2="108" style="stroke:#ddd;stroke-width:2;stroke-dasharray:3 3" />
<line x1="491" y1="1" x2="491" y2="108" style="stroke:#ddd;stroke-width:2;stroke-dasharray:3 3" />
<line x1="600" y1="1" x2="600" y2="108" style="stroke:#ddd;stroke-width:2;stroke-dasharray:3 3" />
<line x1="709" y1="1" x2="709" y2="108" style="stroke:#ddd;stroke-width:2;stroke-dasharray:3 3" />
<line x1="818" y1="1" x2="818" y2="108" style="stroke:#ddd;stroke-width:2;stroke-dasharray:3 3" />
<line x1="927" y1="1" x2="927" y2="108" style="stroke:#ddd;stroke-width:2;stroke-dasharray:3 3" />
<line x1="1036" y1="1" x2="1036" y2="108" style="stroke:#ddd;stroke-width:2;stroke-dasharray:3 3" />
<line x1="1145" y1="1" x2="1145" y2="108" style="stroke:#ddd;stroke-width:2;stroke-dasharray:3 3" />
<line x1="1254" y1="1" x2="1254" y2="108" style="stroke:#ddd;stroke-width:2;stroke-dasharray:3 3" />
<line x1="1363" y1="1" x2="1363" y2="108" style="stroke:#ddd;stroke-width:2;stroke-dasharray:3 3" />
<line x1="1472" y1="1" x2="1472" y2="108" style="stroke:#ddd;stroke-width:2;stroke-dasharray:3 3" />
<line x1="1581" y1="1" x2="1581" y2="108" style="stroke:#ddd;stroke-width:2;stroke-dasharray:3 3" />
<line x1="1690" y1="1" x2="1690" y2="108" style="stroke:#ddd;stroke-width:2;stroke-dasharray:3 3" />
<line x1="1799" y1="1" x2="1799" y2="108" style="stroke:#ddd;stroke-width:2;stroke-dasharray:3 3" />
<line x1="1908" y1="1" x2="1908" y2="108" style="stroke:#ddd;stroke-width:2;stroke-dasharray:3 3" />
<path d="M29.25,12.74c0,0.73,0.05,1.31-0.15,2.18c-1.05,4.55-11.06,19.72-19.63,26.45" style="fill:none;stroke:black;stroke-width:3" />
<circle cx="29.25" cy="12.74" r="5" stroke-width="0" fill="#FF2A00" opacity="0.7" />
<path d="M138.25,12.74c0,0.73,0.05,1.31-0.15,2.18c-1.05,4.55-11.06,19.72-19.63,26.45" style="fill:none;stroke:#999;stroke-width:3" />
<path d="M140.39,20.46c4.47,2.03,10.18,7.42,12.36,12.54" style="fill:none;stroke:black;stroke-width:3" />
<circle cx="140.39" cy="20.46" r="5" stroke-width="0" fill="#FF2A00" opacity="0.7" />
<path d="M247.25,12.74c0,0.73,0.05,1.31-0.15,2.18c-1.05,4.55-11.06,19.72-19.63,26.45" style="fill:none;stroke:#999;stroke-width:3" />
<path d="M249.39,20.46c4.47,2.03,10.18,7.42,12.36,12.54" style="fill:none;stroke:#999;stroke-width:3" />
<path d="M236.0,39.36c1.71,0,2.49,0.06,3.05,0.04c4.95-0.21,10.67-1.05,16.5-1.21c0.84-0.02,1.02-0.04,2.45-0.04" style="fill:none;stroke:black;stroke-width:3" />
<circle cx="236.0" cy="39.36" r="5" stroke-width="0" fill="#FF2A00" opacity="0.7" />
<path d="M356.25,12.74c0,0.73,0.05,1.31-0.15,2.18c-1.05,4.55-11.06,19.72-19.63,26.45" style="fill:none;stroke:#999;stroke-width:3" />
<path d="M358.39,20.46c4.47,2.03,10.18,7.42,12.36,12.54" style="fill:none;stroke:#999;stroke-width:3" />
<path d="M345.0,39.36c1.71,0,2.49,0.06,3.05,0.04c4.95-0.21,10.67-1.05,16.5-1.21c0.84-0.02,1.02-0.04,2.45-0.04" style="fill:none;stroke:#999;stroke-width:3" />
<path d="M339.09,54.58c0.63,0.24,2.71,0.36,3.36,0.32c5.82-0.37,16.68-1.87,24.13-2c0.79-0.01,2.52-0.1,3.7,0.11" style="fill:none;stroke:black;stroke-width:3" />
<circle cx="339.09" cy="54.58" r="5" stroke-width="0" fill="#FF2A00" opacity="0.7" />
<path d="M465.25,12.74c0,0.73,0.05,1.31-0.15,2.18c-1.05,4.55-11.06,19.72-19.63,26.45" style="fill:none;stroke:#999;stroke-width:3" />
<path d="M467.39,20.46c4.47,2.03,10.18,7.42,12.36,12.54" style="fill:none;stroke:#999;stroke-width:3" />
<path d="M454.0,39.36c1.71,0,2.49,0.06,3.05,0.04c4.95-0.21,10.67-1.05,16.5-1.21c0.84-0.02,1.02-0.04,2.45-0.04" style="fill:none;stroke:#999;stroke-width:3" />
<path d="M448.09,54.58c0.63,0.24,2.71,0.36,3.36,0.32c5.82-0.37,16.68-1.87,24.13-2c0.79-0.01,2.52-0.1,3.7,0.11" style="fill:none;stroke:#999;stroke-width:3" />
<path d="M462.45,41.19c1.24,0.78,1.24,2.52,1.24,3.14c0,4.35,0.62,35.63,0.31,39.98" style="fill:none;stroke:black;stroke-width:3" />
<circle cx="462.45" cy="41.19" r="5" stroke-width="0" fill="#FF2A00" opacity="0.7" />
<path d="M574.25,12.74c0,0.73,0.05,1.31-0.15,2.18c-1.05,4.55-11.06,19.72-19.63,26.45" style="fill:none;stroke:#999;stroke-width:3" />
<path d="M576.39,20.46c4.47,2.03,10.18,7.42,12.36,12.54" style="fill:none;stroke:#999;stroke-width:3" />
<path d="M563.0,39.36c1.71,0,2.49,0.06,3.05,0.04c4.95-0.21,10.67-1.05,16.5-1.21c0.84-0.02,1.02-0.04,2.45-0.04" style="fill:none;stroke:#999;stroke-width:3" />
<path d="M557.0899999999999,54.58c0.63,0.24,2.71,0.36,3.36,0.32c5.82-0.37,16.68-1.87,24.13-2c0.79-0.01,2.52-0.1,3.7,0.11" style="fill:none;stroke:#999;stroke-width:3" />
<path d="M571.45,41.19c1.24,0.78,1.24,2.52,1.24,3.14c0,4.35,0.62,35.63,0.31,39.98" style="fill:none;stroke:#999;stroke-width:3" />
<path d="M558.39,64.76c4.08,4.85,6.07,10.11,6.9,12.94" style="fill:none;stroke:black;stroke-width:3" />
<circle cx="558.39" cy="64.76" r="5" stroke-width="0" fill="#FF2A00" opacity="0.7" />
<path d="M683.25,12.74c0,0.73,0.05,1.31-0.15,2.18c-1.05,4.55-11.06,19.72-19.63,26.45" style="fill:none;stroke:#999;stroke-width:3" />
<path d="M685.39,20.46c4.47,2.03,10.18,7.42,12.36,12.54" style="fill:none;stroke:#999;stroke-width:3" />
<path d="M672.0,39.36c1.71,0,2.49,0.06,3.05,0.04c4.95-0.21,10.67-1.05,16.5-1.21c0.84-0.02,1.02-0.04,2.45-0.04" style="fill:none;stroke:#999;stroke-width:3" />
<path d="M666.0899999999999,54.58c0.63,0.24,2.71,0.36,3.36,0.32c5.82-0.37,16.68-1.87,24.13-2c0.79-0.01,2.52-0.1,3.7,0.11" style="fill:none;stroke:#999;stroke-width:3" />
<path d="M680.45,41.19c1.24,0.78,1.24,2.52,1.24,3.14c0,4.35,0.62,35.63,0.31,39.98" style="fill:none;stroke:#999;stroke-width:3" />
<path d="M667.39,64.76c4.08,4.85,6.07,10.11,6.9,12.94" style="fill:none;stroke:#999;stroke-width:3" />
<path d="M694.7,60.05c0.3,0.84,0.46,2.06,0.34,2.76c-0.3,1.81-2.71,5.13-6.12,10.47" style="fill:none;stroke:black;stroke-width:3" />
<circle cx="694.7" cy="60.05" r="5" stroke-width="0" fill="#FF2A00" opacity="0.7" />
<path d="M792.25,12.74c0,0.73,0.05,1.31-0.15,2.18c-1.05,4.55-11.06,19.72-19.63,26.45" style="fill:none;stroke:#999;stroke-width:3" />
<path d="M794.39,20.46c4.47,2.03,10.18,7.42,12.36,12.54" style="fill:none;stroke:#999;stroke-width:3" />
<path d="M781.0,39.36c1.71,0,2.49,0.06,3.05,0.04c4.95-0.21,10.67-1.05,16.5-1.21c0.84-0.02,1.02-0.04,2.45-0.04" style="fill:none;stroke:#999;stroke-width:3" />
<path d="M775.0899999999999,54.58c0.63,0.24,2.71,0.36,3.36,0.32c5.82-0.37,16.68-1.87,24.13-2c0.79-0.01,2.52-0.1,3.7,0.11" style="fill:none;stroke:#999;stroke-width:3" />
<path d="M789.45,41.19c1.24,0.78,1.24,2.52,1.24,3.14c0,4.35,0.62,35.63,0.31,39.98" style="fill:none;stroke:#999;stroke-width:3" />
<path d="M776.39,64.76c4.08,4.85,6.07,10.11,6.9,12.94" style="fill:none;stroke:#999;stroke-width:3" />
<path d="M803.7,60.05c0.3,0.84,0.46,2.06,0.34,2.76c-0.3,1.81-2.71,5.13-6.12,10.47" style="fill:none;stroke:#999;stroke-width:3" />
<path d="M775.0,89.32c1.27,0.9,2.8,0.67,4.58,0.22C780.9,89.21 791.02,84.38 804.25,79" style="fill:none;stroke:black;stroke-width:3" />
<circle cx="775.0" cy="89.32" r="5" stroke-width="0" fill="#FF2A00" opacity="0.7" />
<path d="M901.25,12.74c0,0.73,0.05,1.31-0.15,2.18c-1.05,4.55-11.06,19.72-19.63,26.45" style="fill:none;stroke:#999;stroke-width:3" />
<path d="M903.39,20.46c4.47,2.03,10.18,7.42,12.36,12.54" style="fill:none;stroke:#999;stroke-width:3" />
<path d="M890.0,39.36c1.71,0,2.49,0.06,3.05,0.04c4.95-0.21,10.67-1.05,16.5-1.21c0.84-0.02,1.02-0.04,2.45-0.04" style="fill:none;stroke:#999;stroke-width:3" />
<path d="M884.0899999999999,54.58c0.63,0.24,2.71,0.36,3.36,0.32c5.82-0.37,16.68-1.87,24.13-2c0.79-0.01,2.52-0.1,3.7,0.11" style="fill:none;stroke:#999;stroke-width:3" />
<path d="M898.45,41.19c1.24,0.78,1.24,2.52,1.24,3.14c0,4.35,0.62,35.63,0.31,39.98" style="fill:none;stroke:#999;stroke-width:3" />
<path d="M885.39,64.76c4.08,4.85,6.07,10.11,6.9,12.94" style="fill:none;stroke:#999;stroke-width:3" />
<path d="M912.7,60.05c0.3,0.84,0.46,2.06,0.34,2.76c-0.3,1.81-2.71,5.13-6.12,10.47" style="fill:none;stroke:#999;stroke-width:3" />
<path d="M884.0,89.32c1.27,0.9,2.8,0.67,4.58,0.22C889.9,89.21 900.02,84.38 913.25,79" style="fill:none;stroke:#999;stroke-width:3" />
<path d="M940.44,12.16c1.21,0.39,2.93,2.32,2.9,3.45c-0.09,3.57-0.09,6.37-0.09,9.62" style="fill:none;stroke:black;stroke-width:3" />
<circle cx="940.44" cy="12.16" r="5" stroke-width="0" fill="#FF2A00" opacity="0.7" />
<path d="M1010.25,12.74c0,0.73,0.05,1.31-0.15,2.18c-1.05,4.55-11.06,19.72-19.63,26.45" style="fill:none;stroke:#999;stroke-width:3" />
<path d="M1012.39,20.46c4.47,2.03,10.18,7.42,12.36,12.54" style="fill:none;stroke:#999;stroke-width:3" />
<path d="M999.0,39.36c1.71,0,2.49,0.06,3.05,0.04c4.95-0.21,10.67-1.05,16.5-1.21c0.84-0.02,1.02-0.04,2.45-0.04" style="fill:none;stroke:#999;stroke-width:3" />
<path d="M993.0899999999999,54.58c0.63,0.24,2.71,0.36,3.36,0.32c5.82-0.37,16.68-1.87,24.13-2c0.79-0.01,2.52-0.1,3.7,0.11" style="fill:none;stroke:#999;stroke-width:3" />
<path d="M1007.45,41.19c1.24,0.78,1.24,2.52,1.24,3.14c0,4.35,0.62,35.63,0.31,39.98" style="fill:none;stroke:#999;stroke-width:3" />
<path d="M994.39,64.76c4.08,4.85,6.07,10.11,6.9,12.94" style="fill:none;stroke:#999;stroke-width:3" />
<path d="M1021.7,60.05c0.3,0.84,0.46,2.06,0.34,2.76c-0.3,1.81-2.71,5.13-6.12,10.47" style="fill:none;stroke:#999;stroke-width:3" />
<path d="M993.0,89.32c1.27,0.9,2.8,0.67,4.58,0.22C998.9,89.21 1009.02,84.38 1022.25,79" style="fill:none;stroke:#999;stroke-width:3" />
<path d="M1049.44,12.16c1.21,0.39,2.93,2.32,2.9,3.45c-0.09,3.57-0.09,6.37-0.09,9.62" style="fill:none;stroke:#999;stroke-width:3" />
<path d="M1033.97,26.82c0,3.19-2.96,11.95-3.85,14.07" style="fill:none;stroke:black;stroke-width:3" />
<circle cx="1033.97" cy="26.82" r="5" stroke-width="0" fill="#FF2A00" opacity="0.7" />
<path d="M1119.25,12.74c0,0.73,0.05,1.31-0.15,2.18c-1.05,4.55-11.06,19.72-19.63,26.45" style="fill:none;stroke:#999;stroke-width:3" />
<path d="M1121.3899999999999,20.46c4.47,2.03,10.18,7.42,12.36,12.54" style="fill:none;stroke:#999;stroke-width:3" />
<path d="M1108.0,39.36c1.71,0,2.49,0.06,3.05,0.04c4.95-0.21,10.67-1.05,16.5-1.21c0.84-0.02,1.02-0.04,2.45-0.04" style="fill:none;stroke:#999;stroke-width:3" />
<path d="M1102.09,54.58c0.63,0.24,2.71,0.36,3.36,0.32c5.82-0.37,16.68-1.87,24.13-2c0.79-0.01,2.52-0.1,3.7,0.11" style="fill:none;stroke:#999;stroke-width:3" />
<path d="M1116.45,41.19c1.24,0.78,1.24,2.52,1.24,3.14c0,4.35,0.62,35.63,0.31,39.98" style="fill:none;stroke:#999;stroke-width:3" />
<path d="M1103.3899999999999,64.76c4.08,4.85,6.07,10.11,6.9,12.94" style="fill:none;stroke:#999;stroke-width:3" />
<path d="M1130.7,60.05c0.3,0.84,0.46,2.06,0.34,2.76c-0.3,1.81-2.71,5.13-6.12,10.47" style="fill:none;stroke:#999;stroke-width:3" />
<path d="M1102.0,89.32c1.27,0.9,2.8,0.67,4.58,0.22C1107.9,89.21 1118.02,84.38 1131.25,79" style="fill:none;stroke:#999;stroke-width:3" />
<path d="M1158.44,12.16c1.21,0.39,2.93,2.32,2.9,3.45c-0.09,3.57-0.09,6.37-0.09,9.62" style="fill:none;stroke:#999;stroke-width:3" />
<path d="M1142.97,26.82c0,3.19-2.96,11.95-3.85,14.07" style="fill:none;stroke:#999;stroke-width:3" />
<path d="M1144.16,28.83c5.24-0.91,31.21-2.94,35.47-2.99c7.73-0.09,1.41,6.56-0.25,8.5" style="fill:none;stroke:black;stroke-width:3" />
<circle cx="1144.16" cy="28.83" r="5" stroke-width="0" fill="#FF2A00" opacity="0.7" />
<path d="M1228.25,12.74c0,0.73,0.05,1.31-0.15,2.18c-1.05,4.55-11.06,19.72-19.63,26.45" style="fill:none;stroke:#999;stroke-width:3" />
<path d="M1230.3899999999999,20.46c4.47,2.03,10.18,7.42,12.36,12.54" style="fill:none;stroke:#999;stroke-width:3" />
<path d="M1217.0,39.36c1.71,0,2.49,0.06,3.05,0.04c4.95-0.21,10.67-1.05,16.5-1.21c0.84-0.02,1.02-0.04,2.45-0.04" style="fill:none;stroke:#999;stroke-width:3" />
<path d="M1211.09,54.58c0.63,0.24,2.71,0.36,3.36,0.32c5.82-0.37,16.68-1.87,24.13-2c0.79-0.01,2.52-0.1,3.7,0.11" style="fill:none;stroke:#999;stroke-width:3" />
<path d="M1225.45,41.19c1.24,0.78,1.24,2.52,1.24,3.14c0,4.35,0.62,35.63,0.31,39.98" style="fill:none;stroke:#999;stroke-width:3" />
<path d="M1212.3899999999999,64.76c4.08,4.85,6.07,10.11,6.9,12.94" style="fill:none;stroke:#999;stroke-width:3" />
<path d="M1239.7,60.05c0.3,0.84,0.46,2.06,0.34,2.76c-0.3,1.81-2.71,5.13-6.12,10.47" style="fill:none;stroke:#999;stroke-width:3" />
<path d="M1211.0,89.32c1.27,0.9,2.8,0.67,4.58,0.22C1216.9,89.21 1227.02,84.38 1240.25,79" style="fill:none;stroke:#999;stroke-width:3" />
<path d="M1267.44,12.16c1.21,0.39,2.93,2.32,2.9,3.45c-0.09,3.57-0.09,6.37-0.09,9.62" style="fill:none;stroke:#999;stroke-width:3" />
<path d="M1251.97,26.82c0,3.19-2.96,11.95-3.85,14.07" style="fill:none;stroke:#999;stroke-width:3" />
<path d="M1253.16,28.83c5.24-0.91,31.21-2.94,35.47-2.99c7.73-0.09,1.41,6.56-0.25,8.5" style="fill:none;stroke:#999;stroke-width:3" />
<path d="M1263.35,36.32c0.04,0.4,0.18,1.08-0.08,1.59c-1.96,4.01-6.11,9.58-13.59,15.22" style="fill:none;stroke:black;stroke-width:3" />
<circle cx="1263.35" cy="36.32" r="5" stroke-width="0" fill="#FF2A00" opacity="0.7" />
<path d="M1337.25,12.74c0,0.73,0.05,1.31-0.15,2.18c-1.05,4.55-11.06,19.72-19.63,26.45" style="fill:none;stroke:#999;stroke-width:3" />
<path d="M1339.3899999999999,20.46c4.47,2.03,10.18,7.42,12.36,12.54" style="fill:none;stroke:#999;stroke-width:3" />
<path d="M1326.0,39.36c1.71,0,2.49,0.06,3.05,0.04c4.95-0.21,10.67-1.05,16.5-1.21c0.84-0.02,1.02-0.04,2.45-0.04" style="fill:none;stroke:#999;stroke-width:3" />
<path d="M1320.09,54.58c0.63,0.24,2.71,0.36,3.36,0.32c5.82-0.37,16.68-1.87,24.13-2c0.79-0.01,2.52-0.1,3.7,0.11" style="fill:none;stroke:#999;stroke-width:3" />
<path d="M1334.45,41.19c1.24,0.78,1.24,2.52,1.24,3.14c0,4.35,0.62,35.63,0.31,39.98" style="fill:none;stroke:#999;stroke-width:3" />
<path d="M1321.3899999999999,64.76c4.08,4.85,6.07,10.11,6.9,12.94" style="fill:none;stroke:#999;stroke-width:3" />
<path d="M1348.7,60.05c0.3,0.84,0.46,2.06,0.34,2.76c-0.3,1.81-2.71,5.13-6.12,10.47" style="fill:none;stroke:#999;stroke-width:3" />
<path d="M1320.0,89.32c1.27,0.9,2.8,0.67,4.58,0.22C1325.9,89.21 1336.02,84.38 1349.25,79" style="fill:none;stroke:#999;stroke-width:3" />
<path d="M1376.44,12.16c1.21,0.39,2.93,2.32,2.9,3.45c-0.09,3.57-0.09,6.37-0.09,9.62" style="fill:none;stroke:#999;stroke-width:3" />
<path d="M1360.97,26.82c0,3.19-2.96,11.95-3.85,14.07" style="fill:none;stroke:#999;stroke-width:3" />
<path d="M1362.16,28.83c5.24-0.91,31.21-2.94,35.47-2.99c7.73-0.09,1.41,6.56-0.25,8.5" style="fill:none;stroke:#999;stroke-width:3" />
<path d="M1372.35,36.32c0.04,0.4,0.18,1.08-0.08,1.59c-1.96,4.01-6.11,9.58-13.59,15.22" style="fill:none;stroke:#999;stroke-width:3" />
<path d="M1383.92,36.08c5.99,3.64,13.29,10.6,15.35,14.33" style="fill:none;stroke:black;stroke-width:3" />
<circle cx="1383.92" cy="36.08" r="5" stroke-width="0" fill="#FF2A00" opacity="0.7" />
<path d="M1446.25,12.74c0,0.73,0.05,1.31-0.15,2.18c-1.05,4.55-11.06,19.72-19.63,26.45" style="fill:none;stroke:#999;stroke-width:3" />
<path d="M1448.3899999999999,20.46c4.47,2.03,10.18,7.42,12.36,12.54" style="fill:none;stroke:#999;stroke-width:3" />
<path d="M1435.0,39.36c1.71,0,2.49,0.06,3.05,0.04c4.95-0.21,10.67-1.05,16.5-1.21c0.84-0.02,1.02-0.04,2.45-0.04" style="fill:none;stroke:#999;stroke-width:3" />
<path d="M1429.09,54.58c0.63,0.24,2.71,0.36,3.36,0.32c5.82-0.37,16.68-1.87,24.13-2c0.79-0.01,2.52-0.1,3.7,0.11" style="fill:none;stroke:#999;stroke-width:3" />
<path d="M1443.45,41.19c1.24,0.78,1.24,2.52,1.24,3.14c0,4.35,0.62,35.63,0.31,39.98" style="fill:none;stroke:#999;stroke-width:3" />
<path d="M1430.3899999999999,64.76c4.08,4.85,6.07,10.11,6.9,12.94" style="fill:none;stroke:#999;stroke-width:3" />
<path d="M1457.7,60.05c0.3,0.84,0.46,2.06,0.34,2.76c-0.3,1.81-2.71,5.13-6.12,10.47" style="fill:none;stroke:#999;stroke-width:3" />
<path d="M1429.0,89.32c1.27,0.9,2.8,0.67,4.58,0.22C1434.9,89.21 1445.02,84.38 1458.25,79" style="fill:none;stroke:#999;stroke-width:3" />
<path d="M1485.44,12.16c1.21,0.39,2.93,2.32,2.9,3.45c-0.09,3.57-0.09,6.37-0.09,9.62" style="fill:none;stroke:#999;stroke-width:3" />
<path d="M1469.97,26.82c0,3.19-2.96,11.95-3.85,14.07" style="fill:none;stroke:#999;stroke-width:3" />
<path d="M1471.16,28.83c5.24-0.91,31.21-2.94,35.47-2.99c7.73-0.09,1.41,6.56-0.25,8.5" style="fill:none;stroke:#999;stroke-width:3" />
<path d="M1481.35,36.32c0.04,0.4,0.18,1.08-0.08,1.59c-1.96,4.01-6.11,9.58-13.59,15.22" style="fill:none;stroke:#999;stroke-width:3" />
<path d="M1492.92,36.08c5.99,3.64,13.29,10.6,15.35,14.33" style="fill:none;stroke:#999;stroke-width:3" />
<path d="M1488.53,45c0.07,0.61,0.3,1.64-0.14,2.45c-3.9,7.17-11.88,15.65-25.55,24.22" style="fill:none;stroke:black;stroke-width:3" />
<circle cx="1488.53" cy="45.0" r="5" stroke-width="0" fill="#FF2A00" opacity="0.7" />
<path d="M1555.25,12.74c0,0.73,0.05,1.31-0.15,2.18c-1.05,4.55-11.06,19.72-19.63,26.45" style="fill:none;stroke:#999;stroke-width:3" />
<path d="M1557.3899999999999,20.46c4.47,2.03,10.18,7.42,12.36,12.54" style="fill:none;stroke:#999;stroke-width:3" />
<path d="M1544.0,39.36c1.71,0,2.49,0.06,3.05,0.04c4.95-0.21,10.67-1.05,16.5-1.21c0.84-0.02,1.02-0.04,2.45-0.04" style="fill:none;stroke:#999;stroke-width:3" />
<path d="M1538.09,54.58c0.63,0.24,2.71,0.36,3.36,0.32c5.82-0.37,16.68-1.87,24.13-2c0.79-0.01,2.52-0.1,3.7,0.11" style="fill:none;stroke:#999;stroke-width:3" />
<path d="M1552.45,41.19c1.24,0.78,1.24,2.52,1.24,3.14c0,4.35,0.62,35.63,0.31,39.98" style="fill:none;stroke:#999;stroke-width:3" />
<path d="M1539.3899999999999,64.76c4.08,4.85,6.07,10.11,6.9,12.94" style="fill:none;stroke:#999;stroke-width:3" />
<path d="M1566.7,60.05c0.3,0.84,0.46,2.06,0.34,2.76c-0.3,1.81-2.71,5.13-6.12,10.47" style="fill:none;stroke:#999;stroke-width:3" />
<path d="M1538.0,89.32c1.27,0.9,2.8,0.67,4.58,0.22C1543.9,89.21 1554.02,84.38 1567.25,79" style="fill:none;stroke:#999;stroke-width:3" />
<path d="M1594.44,12.16c1.21,0.39,2.93,2.32,2.9,3.45c-0.09,3.57-0.09,6.37-0.09,9.62" style="fill:none;stroke:#999;stroke-width:3" />
<path d="M1578.97,26.82c0,3.19-2.96,11.95-3.85,14.07" style="fill:none;stroke:#999;stroke-width:3" />
<path d="M1580.16,28.83c5.24-0.91,31.21-2.94,35.47-2.99c7.73-0.09,1.41,6.56-0.25,8.5" style="fill:none;stroke:#999;stroke-width:3" />
<path d="M1590.35,36.32c0.04,0.4,0.18,1.08-0.08,1.59c-1.96,4.01-6.11,9.58-13.59,15.22" style="fill:none;stroke:#999;stroke-width:3" />
<path d="M1601.92,36.08c5.99,3.64,13.29,10.6,15.35,14.33" style="fill:none;stroke:#999;stroke-width:3" />
<path d="M1597.53,45c0.07,0.61,0.3,1.64-0.14,2.45c-3.9,7.17-11.88,15.65-25.55,24.22" style="fill:none;stroke:#999;stroke-width:3" />
<path d="M1596.16,49.65c5.78,6.23,16.54,15.12,21.83,18.43c1.31,0.82,2.83,1.36,4.07,1.63" style="fill:none;stroke:black;stroke-width:3" />
<circle cx="1596.16" cy="49.65" r="5" stroke-width="0" fill="#FF2A00" opacity="0.7" />
<path d="M1664.25,12.74c0,0.73,0.05,1.31-0.15,2.18c-1.05,4.55-11.06,19.72-19.63,26.45" style="fill:none;stroke:#999;stroke-width:3" />
<path d="M1666.3899999999999,20.46c4.47,2.03,10.18,7.42,12.36,12.54" style="fill:none;stroke:#999;stroke-width:3" />
<path d="M1653.0,39.36c1.71,0,2.49,0.06,3.05,0.04c4.95-0.21,10.67-1.05,16.5-1.21c0.84-0.02,1.02-0.04,2.45-0.04" style="fill:none;stroke:#999;stroke-width:3" />
<path d="M1647.09,54.58c0.63,0.24,2.71,0.36,3.36,0.32c5.82-0.37,16.68-1.87,24.13-2c0.79-0.01,2.52-0.1,3.7,0.11" style="fill:none;stroke:#999;stroke-width:3" />
<path d="M1661.45,41.19c1.24,0.78,1.24,2.52,1.24,3.14c0,4.35,0.62,35.63,0.31,39.98" style="fill:none;stroke:#999;stroke-width:3" />
<path d="M1648.3899999999999,64.76c4.08,4.85,6.07,10.11,6.9,12.94" style="fill:none;stroke:#999;stroke-width:3" />
<path d="M1675.7,60.05c0.3,0.84,0.46,2.06,0.34,2.76c-0.3,1.81-2.71,5.13-6.12,10.47" style="fill:none;stroke:#999;stroke-width:3" />
<path d="M1647.0,89.32c1.27,0.9,2.8,0.67,4.58,0.22C1652.9,89.21 1663.02,84.38 1676.25,79" style="fill:none;stroke:#999;stroke-width:3" />
<path d="M1703.44,12.16c1.21,0.39,2.93,2.32,2.9,3.45c-0.09,3.57-0.09,6.37-0.09,9.62" style="fill:none;stroke:#999;stroke-width:3" />
<path d="M1687.97,26.82c0,3.19-2.96,11.95-3.85,14.07" style="fill:none;stroke:#999;stroke-width:3" />
<path d="M1689.16,28.83c5.24-0.91,31.21-2.94,35.47-2.99c7.73-0.09,1.41,6.56-0.25,8.5" style="fill:none;stroke:#999;stroke-width:3" />
<path d="M1699.35,36.32c0.04,0.4,0.18,1.08-0.08,1.59c-1.96,4.01-6.11,9.58-13.59,15.22" style="fill:none;stroke:#999;stroke-width:3" />
<path d="M1710.92,36.08c5.99,3.64,13.29,10.6,15.35,14.33" style="fill:none;stroke:#999;stroke-width:3" />
<path d="M1706.53,45c0.07,0.61,0.3,1.64-0.14,2.45c-3.9,7.17-11.88,15.65-25.55,24.22" style="fill:none;stroke:#999;stroke-width:3" />
<path d="M1705.16,49.65c5.78,6.23,16.54,15.12,21.83,18.43c1.31,0.82,2.83,1.36,4.07,1.63" style="fill:none;stroke:#999;stroke-width:3" />
<path d="M1689.54,71.96c0.35,0.38,0.7,1.26,0.85,1.74c1.2,3.76,2.24,14.76,3.06,21.51" style="fill:none;stroke:black;stroke-width:3" />
<circle cx="1689.54" cy="71.96" r="5" stroke-width="0" fill="#FF2A00" opacity="0.7" />
<path d="M1773.25,12.74c0,0.73,0.05,1.31-0.15,2.18c-1.05,4.55-11.06,19.72-19.63,26.45" style="fill:none;stroke:#999;stroke-width:3" />
<path d="M1775.3899999999999,20.46c4.47,2.03,10.18,7.42,12.36,12.54" style="fill:none;stroke:#999;stroke-width:3" />
<path d="M1762.0,39.36c1.71,0,2.49,0.06,3.05,0.04c4.95-0.21,10.67-1.05,16.5-1.21c0.84-0.02,1.02-0.04,2.45-0.04" style="fill:none;stroke:#999;stroke-width:3" />
<path d="M1756.09,54.58c0.63,0.24,2.71,0.36,3.36,0.32c5.82-0.37,16.68-1.87,24.13-2c0.79-0.01,2.52-0.1,3.7,0.11" style="fill:none;stroke:#999;stroke-width:3" />
<path d="M1770.45,41.19c1.24,0.78,1.24,2.52,1.24,3.14c0,4.35,0.62,35.63,0.31,39.98" style="fill:none;stroke:#999;stroke-width:3" />
<path d="M1757.3899999999999,64.76c4.08,4.85,6.07,10.11,6.9,12.94" style="fill:none;stroke:#999;stroke-width:3" />
<path d="M1784.7,60.05c0.3,0.84,0.46,2.06,0.34,2.76c-0.3,1.81-2.71,5.13-6.12,10.47" style="fill:none;stroke:#999;stroke-width:3" />
<path d="M1756.0,89.32c1.27,0.9,2.8,0.67,4.58,0.22C1761.9,89.21 1772.02,84.38 1785.25,79" style="fill:none;stroke:#999;stroke-width:3" />
<path d="M1812.44,12.16c1.21,0.39,2.93,2.32,2.9,3.45c-0.09,3.57-0.09,6.37-0.09,9.62" style="fill:none;stroke:#999;stroke-width:3" />
<path d="M1796.97,26.82c0,3.19-2.96,11.95-3.85,14.07" style="fill:none;stroke:#999;stroke-width:3" />
<path d="M1798.16,28.83c5.24-0.91,31.21-2.94,35.47-2.99c7.73-0.09,1.41,6.56-0.25,8.5" style="fill:none;stroke:#999;stroke-width:3" />
<path d="M1808.35,36.32c0.04,0.4,0.18,1.08-0.08,1.59c-1.96,4.01-6.11,9.58-13.59,15.22" style="fill:none;stroke:#999;stroke-width:3" />
<path d="M1819.92,36.08c5.99,3.64,13.29,10.6,15.35,14.33" style="fill:none;stroke:#999;stroke-width:3" />
<path d="M1815.53,45c0.07,0.61,0.3,1.64-0.14,2.45c-3.9,7.17-11.88,15.65-25.55,24.22" style="fill:none;stroke:#999;stroke-width:3" />
<path d="M1814.16,49.65c5.78,6.23,16.54,15.12,21.83,18.43c1.31,0.82,2.83,1.36,4.07,1.63" style="fill:none;stroke:#999;stroke-width:3" />
<path d="M1798.54,71.96c0.35,0.38,0.7,1.26,0.85,1.74c1.2,3.76,2.24,14.76,3.06,21.51" style="fill:none;stroke:#999;stroke-width:3" />
<path d="M1800.16,74.09c9.45-1.73,20.92-2.17,26.71-2.92c1.98-0.26,3.18,1.72,2.88,2.84c-1.44,5.37-3.51,10.74-4.84,17.33" style="fill:none;stroke:black;stroke-width:3" />
<circle cx="1800.16" cy="74.09" r="5" stroke-width="0" fill="#FF2A00" opacity="0.7" />
<path d="M1882.25,12.74c0,0.73,0.05,1.31-0.15,2.18c-1.05,4.55-11.06,19.72-19.63,26.45" style="fill:none;stroke:#999;stroke-width:3" />
<path d="M1884.3899999999999,20.46c4.47,2.03,10.18,7.42,12.36,12.54" style="fill:none;stroke:#999;stroke-width:3" />
<path d="M1871.0,39.36c1.71,0,2.49,0.06,3.05,0.04c4.95-0.21,10.67-1.05,16.5-1.21c0.84-0.02,1.02-0.04,2.45-0.04" style="fill:none;stroke:#999;stroke-width:3" />
<path d="M1865.09,54.58c0.63,0.24,2.71,0.36,3.36,0.32c5.82-0.37,16.68-1.87,24.13-2c0.79-0.01,2.52-0.1,3.7,0.11" style="fill:none;stroke:#999;stroke-width:3" />
<path d="M1879.45,41.19c1.24,0.78,1.24,2.52,1.24,3.14c0,4.35,0.62,35.63,0.31,39.98" style="fill:none;stroke:#999;stroke-width:3" />
<path d="M1866.3899999999999,64.76c4.08,4.85,6.07,10.11,6.9,12.94" style="fill:none;stroke:#999;stroke-width:3" />
<path d="M1893.7,60.05c0.3,0.84,0.46,2.06,0.34,2.76c-0.3,1.81-2.71,5.13-6.12,10.47" style="fill:none;stroke:#999;stroke-width:3" />
<path d="M1865.0,89.32c1.27,0.9,2.8,0.67,4.58,0.22C1870.9,89.21 1881.02,84.38 1894.25,79" style="fill:none;stroke:#999;stroke-width:3" />
<path d="M1921.44,12.16c1.21,0.39,2.93,2.32,2.9,3.45c-0.09,3.57-0.09,6.37-0.09,9.62" style="fill:none;stroke:#999;stroke-width:3" />
<path d="M1905.97,26.82c0,3.19-2.96,11.95-3.85,14.07" style="fill:none;stroke:#999;stroke-width:3" />
<path d="M1907.16,28.83c5.24-0.91,31.21-2.94,35.47-2.99c7.73-0.09,1.41,6.56-0.25,8.5" style="fill:none;stroke:#999;stroke-width:3" />
<path d="M1917.35,36.32c0.04,0.4,0.18,1.08-0.08,1.59c-1.96,4.01-6.11,9.58-13.59,15.22" style="fill:none;stroke:#999;stroke-width:3" />
<path d="M1928.92,36.08c5.99,3.64,13.29,10.6,15.35,14.33" style="fill:none;stroke:#999;stroke-width:3" />
<path d="M1924.53,45c0.07,0.61,0.3,1.64-0.14,2.45c-3.9,7.17-11.88,15.65-25.55,24.22" style="fill:none;stroke:#999;stroke-width:3" />
<path d="M1923.16,49.65c5.78,6.23,16.54,15.12,21.83,18.43c1.31,0.82,2.83,1.36,4.07,1.63" style="fill:none;stroke:#999;stroke-width:3" />
<path d="M1907.54,71.96c0.35,0.38,0.7,1.26,0.85,1.74c1.2,3.76,2.24,14.76,3.06,21.51" style="fill:none;stroke:#999;stroke-width:3" />
<path d="M1909.16,74.09c9.45-1.73,20.92-2.17,26.71-2.92c1.98-0.26,3.18,1.72,2.88,2.84c-1.44,5.37-3.51,10.74-4.84,17.33" style="fill:none;stroke:#999;stroke-width:3" />
<path d="M1912.38,92.73c7.61-0.52,16.18-0.57,24.92-1.38" style="fill:none;stroke:black;stroke-width:3" />
<circle cx="1912.38" cy="92.73" r="5" stroke-width="0" fill="#FF2A00" opacity="0.7" />
</svg>