<!-- 093ac -->
<svg width="1962px" height="109px" viewBox="0 0 1962px 109px" xmlns="http://www.w3.org/2000/svg" xmlns:xlink="http://www.w3.org/1999/xlink" xml:space="preserve" version="1.1"  baseProfile="full">
<line x1="1" y1="1" x2="1961" y2="1" style="stroke:#ddd;stroke-width:2" />
<line x1="1" y1="1" x2="1" y2="108" style="stroke:#ddd;stroke-width:2" />
<line x1="1" y1="108" x2="1961" y2="108" style="stroke:#ddd;stroke-width:2" />
<line x1="1961" y1="1" x2="1961" y2="108" style="stroke:#ddd;stroke-width:2" />
<line x1="109" y1="1" x2="109" y2="108" style="stroke:#ddd;stroke-width:2" />
<line x1="218" y1="1" x2="218" y2="108" style="stroke:#ddd;stroke-width:2" />
<line x1="327" y1="1" x2="327" y2="108" style="stroke:#ddd;stroke-width:2" />
<line x1="436" y1="1" x2="436" y2="108" style="stroke:#ddd;stroke-width:2" />
<line x1="545" y1="1" x2="545" y2="108" style="stroke:#ddd;stroke-width:2" />
<line x1="654" y1="1" x2="654" y2="108" style="stroke:#ddd;stroke-width:2" />
<line x1="763" y1="1" x2="763" y2="108" style="stroke:#ddd;stroke-width:2" />
<line x1="872" y1="1" x2="872" y2="108" style="stroke:#ddd;stroke-width:2" />
<line x1="981" y1="1" x2="981" y2="108" style="stroke:#ddd;stroke-width:2" />
<line x1="1090" y1="1" x2="1090" y2="108" style="stroke:#ddd;stroke-width:2" />
<line x1="1199" y1="1" x2="1199" y2="108" style="stroke:#ddd;stroke-width:2" />
<line x1="1308" y1="1" x2="1308" y2="108" style="stroke:#ddd;stroke-width:2" />
<line x1="1417" y1="1" x2="1417" y2="108" style="stroke:#ddd;stroke-width:2" />
<line x1="1526" y1="1" x2="1526" y2="108" style="stroke:#ddd;stroke-width:2" />
<line x1="1635" y1="1" x2="1635" y2="108" style="stroke:#ddd;stroke-width:2" />
<line x1="1744" y1="1" x2="1744" y2="108" style="stroke:#ddd;stroke-width:2" />
<line x1="1853" y1="1" x2="1853" y2="108" style="stroke:#ddd;stroke-width:2" />
<line x1="1" y1="54" x2="1961" y2="54" style="stroke:#ddd;stroke-width:2;stroke-dasharray:3 3" />
<line x1="55" y1="1" x2="55" y2="108" style="stroke:#ddd;stroke-width:2;stroke-dasharray:3 3" />
<line x1="164" y1="1" x2="164" y2="108" style="stroke:#ddd;stroke-width:2;stroke-dasharray:3 3" />
<line x1="273" y1="1" x2="273" y2="108" style="stroke:#ddd;stroke-width:2;stroke-dasharray:3 3" />
<line x1="382" y1="1" x2="382" y2="108" style="stroke:#ddd;stroke-width:2;stroke-dasharray:3 3" />
<line x1="491" y1="1" x2="491" y2="108" style="stroke:#ddd;stroke-width:2;stroke-dasharray:3 3" />
<line x1="600" y1="1" x2="600" y2="108" style="stroke:#ddd;stroke-width:2;stroke-dasharray:3 3" />
<line x1="709" y1="1" x2="709" y2="108" style="stroke:#ddd;stroke-width:2;stroke-dasharray:3 3" />
<line x1="818" y1="1" x2="818" y2="108" style="stroke:#ddd;stroke-width:2;stroke-dasharray:3 3" />
<line x1="927" y1="1" x2="927" y2="108" style="stroke:#ddd;stroke-width:2;stroke-dasharray:3 3" />
<line x1="1036" y1="1" x2="1036" y2="108" style="stroke:#ddd;stroke-width:2;stroke-dasharray:3 3" />
<line x1="1145" y1="1" x2="1145" y2="108" style="stroke:#ddd;stroke-width:2;stroke-dasharray:3 3" />
<line x1="1254" y1="1" x2="1254" y2="108" style="stroke:#ddd;stroke-width:2;stroke-dasharray:3 3" />
<line x1="1363" y1="1" x2="1363" y2="108" style="stroke:#ddd;stroke-width:2;stroke-dasharray:3 3" />
<line x1="1472" y1="1" x2="1472" y2="108" style="stroke:#ddd;stroke-width:2;stroke-dasharray:3 3" />
<line x1="1581" y1="1" x2="1581" y2="108" style="stroke:#ddd;stroke-width:2;stroke-dasharray:3 3" />
<line x1="1690" y1="1" x2="1690" y2="108" style="stroke:#ddd;stroke-width:2;stroke-dasharray:3 3" />
<line x1="1799" y1="1" x2="1799" y2="108" style="stroke:#ddd;stroke-width:2;stroke-dasharray:3 3" />
<line x1="1908" y1="1" x2="1908" y2="108" style="stroke:#ddd;stroke-width:2;stroke-dasharray:3 3" />
<path d="M29.75,13.74c0,0.78,0.05,1.41-0.14,2.35C28.64,21 19.39,37.37 11.47,44.63" style="fill:none;stroke:black;stroke-width:3" />
<circle cx="29.75" cy="13.74" r="5" stroke-width="0" fill="#FF2A00" opacity="0.7" />
<path d="M138.75,13.74c0,0.78,0.05,1.41-0.14,2.35C137.64,21 128.39,37.37 120.47,44.63" style="fill:none;stroke:#999;stroke-width:3" />
<path d="M141.39,20.71c4.65,2.15,10.6,7.87,12.86,13.29" style="fill:none;stroke:black;stroke-width:3" />
<circle cx="141.39" cy="20.71" r="5" stroke-width="0" fill="#FF2A00" opacity="0.7" />
<path d="M247.75,13.74c0,0.78,0.05,1.41-0.14,2.35C246.64,21 237.39,37.37 229.47,44.63" style="fill:none;stroke:#999;stroke-width:3" />
<path d="M250.39,20.71c4.65,2.15,10.6,7.87,12.86,13.29" style="fill:none;stroke:#999;stroke-width:3" />
<path d="M237.5,41.11c1.69,0,2.46,0.1,3.01,0.06c4.9-0.35,10.55-1.73,16.31-1.98c0.83-0.04,1.01-0.06,2.43-0.06" style="fill:none;stroke:black;stroke-width:3" />
<circle cx="237.5" cy="41.11" r="5" stroke-width="0" fill="#FF2A00" opacity="0.7" />
<path d="M356.75,13.74c0,0.78,0.05,1.41-0.14,2.35C355.64,21 346.39,37.37 338.47,44.63" style="fill:none;stroke:#999;stroke-width:3" />
<path d="M359.39,20.71c4.65,2.15,10.6,7.87,12.86,13.29" style="fill:none;stroke:#999;stroke-width:3" />
<path d="M346.5,41.11c1.69,0,2.46,0.1,3.01,0.06c4.9-0.35,10.55-1.73,16.31-1.98c0.83-0.04,1.01-0.06,2.43-0.06" style="fill:none;stroke:#999;stroke-width:3" />
<path d="M340.59,56.25c0.65,0.44,2.78,0.64,3.44,0.57c5.96-0.66,15.72-2.57,23.71-3.56c0.8-0.1,2.58-0.18,3.78,0.2" style="fill:none;stroke:black;stroke-width:3" />
<circle cx="340.59" cy="56.25" r="5" stroke-width="0" fill="#FF2A00" opacity="0.7" />
<path d="M465.75,13.74c0,0.78,0.05,1.41-0.14,2.35C464.64,21 455.39,37.37 447.47,44.63" style="fill:none;stroke:#999;stroke-width:3" />
<path d="M468.39,20.71c4.65,2.15,10.6,7.87,12.86,13.29" style="fill:none;stroke:#999;stroke-width:3" />
<path d="M455.5,41.11c1.69,0,2.46,0.1,3.01,0.06c4.9-0.35,10.55-1.73,16.31-1.98c0.83-0.04,1.01-0.06,2.43-0.06" style="fill:none;stroke:#999;stroke-width:3" />
<path d="M449.59,56.25c0.65,0.44,2.78,0.64,3.44,0.57c5.96-0.66,15.72-2.57,23.71-3.56c0.8-0.1,2.58-0.18,3.78,0.2" style="fill:none;stroke:#999;stroke-width:3" />
<path d="M464.45,43.19c1.24,0.78,1.24,2.52,1.24,3.14c0,4.35,0.62,35.13,0.31,39.48" style="fill:none;stroke:black;stroke-width:3" />
<circle cx="464.45" cy="43.19" r="5" stroke-width="0" fill="#FF2A00" opacity="0.7" />
<path d="M574.75,13.74c0,0.78,0.05,1.41-0.14,2.35C573.64,21 564.39,37.37 556.47,44.63" style="fill:none;stroke:#999;stroke-width:3" />
<path d="M577.39,20.71c4.65,2.15,10.6,7.87,12.86,13.29" style="fill:none;stroke:#999;stroke-width:3" />
<path d="M564.5,41.11c1.69,0,2.46,0.1,3.01,0.06c4.9-0.35,10.55-1.73,16.31-1.98c0.83-0.04,1.01-0.06,2.43-0.06" style="fill:none;stroke:#999;stroke-width:3" />
<path d="M558.5899999999999,56.25c0.65,0.44,2.78,0.64,3.44,0.57c5.96-0.66,15.72-2.57,23.71-3.56c0.8-0.1,2.58-0.18,3.78,0.2" style="fill:none;stroke:#999;stroke-width:3" />
<path d="M573.45,43.19c1.24,0.78,1.24,2.52,1.24,3.14c0,4.35,0.62,35.13,0.31,39.48" style="fill:none;stroke:#999;stroke-width:3" />
<path d="M558.89,65.26c4.08,4.85,6.57,11.11,7.4,13.94" style="fill:none;stroke:black;stroke-width:3" />
<circle cx="558.89" cy="65.26" r="5" stroke-width="0" fill="#FF2A00" opacity="0.7" />
<path d="M683.75,13.74c0,0.78,0.05,1.41-0.14,2.35C682.64,21 673.39,37.37 665.47,44.63" style="fill:none;stroke:#999;stroke-width:3" />
<path d="M686.39,20.71c4.65,2.15,10.6,7.87,12.86,13.29" style="fill:none;stroke:#999;stroke-width:3" />
<path d="M673.5,41.11c1.69,0,2.46,0.1,3.01,0.06c4.9-0.35,10.55-1.73,16.31-1.98c0.83-0.04,1.01-0.06,2.43-0.06" style="fill:none;stroke:#999;stroke-width:3" />
<path d="M667.5899999999999,56.25c0.65,0.44,2.78,0.64,3.44,0.57c5.96-0.66,15.72-2.57,23.71-3.56c0.8-0.1,2.58-0.18,3.78,0.2" style="fill:none;stroke:#999;stroke-width:3" />
<path d="M682.45,43.19c1.24,0.78,1.24,2.52,1.24,3.14c0,4.35,0.62,35.13,0.31,39.48" style="fill:none;stroke:#999;stroke-width:3" />
<path d="M667.89,65.26c4.08,4.85,6.57,11.11,7.4,13.94" style="fill:none;stroke:#999;stroke-width:3" />
<path d="M695.7,61.05c0.3,0.84,0.46,2.06,0.34,2.76c-0.3,1.81-2.71,5.13-6.12,10.47" style="fill:none;stroke:black;stroke-width:3" />
<circle cx="695.7" cy="61.05" r="5" stroke-width="0" fill="#FF2A00" opacity="0.7" />
<path d="M792.75,13.74c0,0.78,0.05,1.41-0.14,2.35C791.64,21 782.39,37.37 774.47,44.63" style="fill:none;stroke:#999;stroke-width:3" />
<path d="M795.39,20.71c4.65,2.15,10.6,7.87,12.86,13.29" style="fill:none;stroke:#999;stroke-width:3" />
<path d="M782.5,41.11c1.69,0,2.46,0.1,3.01,0.06c4.9-0.35,10.55-1.73,16.31-1.98c0.83-0.04,1.01-0.06,2.43-0.06" style="fill:none;stroke:#999;stroke-width:3" />
<path d="M776.5899999999999,56.25c0.65,0.44,2.78,0.64,3.44,0.57c5.96-0.66,15.72-2.57,23.71-3.56c0.8-0.1,2.58-0.18,3.78,0.2" style="fill:none;stroke:#999;stroke-width:3" />
<path d="M791.45,43.19c1.24,0.78,1.24,2.52,1.24,3.14c0,4.35,0.62,35.13,0.31,39.48" style="fill:none;stroke:#999;stroke-width:3" />
<path d="M776.89,65.26c4.08,4.85,6.57,11.11,7.4,13.94" style="fill:none;stroke:#999;stroke-width:3" />
<path d="M804.7,61.05c0.3,0.84,0.46,2.06,0.34,2.76c-0.3,1.81-2.71,5.13-6.12,10.47" style="fill:none;stroke:#999;stroke-width:3" />
<path d="M775.5,90.41c1.25,0.77,2.75,0.58,4.5,0.19c1.29-0.29,11.25-4.45,24.25-9.1" style="fill:none;stroke:black;stroke-width:3" />
<circle cx="775.5" cy="90.41" r="5" stroke-width="0" fill="#FF2A00" opacity="0.7" />
<path d="M901.75,13.74c0,0.78,0.05,1.41-0.14,2.35C900.64,21 891.39,37.37 883.47,44.63" style="fill:none;stroke:#999;stroke-width:3" />
<path d="M904.39,20.71c4.65,2.15,10.6,7.87,12.86,13.29" style="fill:none;stroke:#999;stroke-width:3" />
<path d="M891.5,41.11c1.69,0,2.46,0.1,3.01,0.06c4.9-0.35,10.55-1.73,16.31-1.98c0.83-0.04,1.01-0.06,2.43-0.06" style="fill:none;stroke:#999;stroke-width:3" />
<path d="M885.5899999999999,56.25c0.65,0.44,2.78,0.64,3.44,0.57c5.96-0.66,15.72-2.57,23.71-3.56c0.8-0.1,2.58-0.18,3.78,0.2" style="fill:none;stroke:#999;stroke-width:3" />
<path d="M900.45,43.19c1.24,0.78,1.24,2.52,1.24,3.14c0,4.35,0.62,35.13,0.31,39.48" style="fill:none;stroke:#999;stroke-width:3" />
<path d="M885.89,65.26c4.08,4.85,6.57,11.11,7.4,13.94" style="fill:none;stroke:#999;stroke-width:3" />
<path d="M913.7,61.05c0.3,0.84,0.46,2.06,0.34,2.76c-0.3,1.81-2.71,5.13-6.12,10.47" style="fill:none;stroke:#999;stroke-width:3" />
<path d="M884.5,90.41c1.25,0.77,2.75,0.58,4.5,0.19c1.29-0.29,11.25-4.45,24.25-9.1" style="fill:none;stroke:#999;stroke-width:3" />
<path d="M941.37,11.73c0.65,0.46,1.72,2.26,1.72,3.18c0,3.41-0.21,6-0.08,8.88" style="fill:none;stroke:black;stroke-width:3" />
<circle cx="941.37" cy="11.73" r="5" stroke-width="0" fill="#FF2A00" opacity="0.7" />
<path d="M1010.75,13.74c0,0.78,0.05,1.41-0.14,2.35C1009.64,21 1000.39,37.37 992.47,44.63" style="fill:none;stroke:#999;stroke-width:3" />
<path d="M1013.39,20.71c4.65,2.15,10.6,7.87,12.86,13.29" style="fill:none;stroke:#999;stroke-width:3" />
<path d="M1000.5,41.11c1.69,0,2.46,0.1,3.01,0.06c4.9-0.35,10.55-1.73,16.31-1.98c0.83-0.04,1.01-0.06,2.43-0.06" style="fill:none;stroke:#999;stroke-width:3" />
<path d="M994.5899999999999,56.25c0.65,0.44,2.78,0.64,3.44,0.57c5.96-0.66,15.72-2.57,23.71-3.56c0.8-0.1,2.58-0.18,3.78,0.2" style="fill:none;stroke:#999;stroke-width:3" />
<path d="M1009.45,43.19c1.24,0.78,1.24,2.52,1.24,3.14c0,4.35,0.62,35.13,0.31,39.48" style="fill:none;stroke:#999;stroke-width:3" />
<path d="M994.89,65.26c4.08,4.85,6.57,11.11,7.4,13.94" style="fill:none;stroke:#999;stroke-width:3" />
<path d="M1022.7,61.05c0.3,0.84,0.46,2.06,0.34,2.76c-0.3,1.81-2.71,5.13-6.12,10.47" style="fill:none;stroke:#999;stroke-width:3" />
<path d="M993.5,90.41c1.25,0.77,2.75,0.58,4.5,0.19c1.29-0.29,11.25-4.45,24.25-9.1" style="fill:none;stroke:#999;stroke-width:3" />
<path d="M1050.37,11.73c0.65,0.46,1.72,2.26,1.72,3.18c0,3.41-0.21,6-0.08,8.88" style="fill:none;stroke:#999;stroke-width:3" />
<path d="M1030.89,25.48c1.06,0.04,3.47,0.28,4.5,0.22c8.31-0.47,24.2-2.38,35.49-2.5c1.74-0.02,2.63,0.02,3.93,0.28" style="fill:none;stroke:black;stroke-width:3" />
<circle cx="1030.89" cy="25.48" r="5" stroke-width="0" fill="#FF2A00" opacity="0.7" />
<path d="M1119.75,13.74c0,0.78,0.05,1.41-0.14,2.35C1118.6399999999999,21 1109.3899999999999,37.37 1101.47,44.63" style="fill:none;stroke:#999;stroke-width:3" />
<path d="M1122.3899999999999,20.71c4.65,2.15,10.6,7.87,12.86,13.29" style="fill:none;stroke:#999;stroke-width:3" />
<path d="M1109.5,41.11c1.69,0,2.46,0.1,3.01,0.06c4.9-0.35,10.55-1.73,16.31-1.98c0.83-0.04,1.01-0.06,2.43-0.06" style="fill:none;stroke:#999;stroke-width:3" />
<path d="M1103.59,56.25c0.65,0.44,2.78,0.64,3.44,0.57c5.96-0.66,15.72-2.57,23.71-3.56c0.8-0.1,2.58-0.18,3.78,0.2" style="fill:none;stroke:#999;stroke-width:3" />
<path d="M1118.45,43.19c1.24,0.78,1.24,2.52,1.24,3.14c0,4.35,0.62,35.13,0.31,39.48" style="fill:none;stroke:#999;stroke-width:3" />
<path d="M1103.8899999999999,65.26c4.08,4.85,6.57,11.11,7.4,13.94" style="fill:none;stroke:#999;stroke-width:3" />
<path d="M1131.7,61.05c0.3,0.84,0.46,2.06,0.34,2.76c-0.3,1.81-2.71,5.13-6.12,10.47" style="fill:none;stroke:#999;stroke-width:3" />
<path d="M1102.5,90.41c1.25,0.77,2.75,0.58,4.5,0.19c1.29-0.29,11.25-4.45,24.25-9.1" style="fill:none;stroke:#999;stroke-width:3" />
<path d="M1159.37,11.73c0.65,0.46,1.72,2.26,1.72,3.18c0,3.41-0.21,6-0.08,8.88" style="fill:none;stroke:#999;stroke-width:3" />
<path d="M1139.89,25.48c1.06,0.04,3.47,0.28,4.5,0.22c8.31-0.47,24.2-2.38,35.49-2.5c1.74-0.02,2.63,0.02,3.93,0.28" style="fill:none;stroke:#999;stroke-width:3" />
<path d="M1147.8,33.89c0.38,0.3,0.76,0.54,0.93,0.91c1.31,2.94,1.49,10.03,2.38,15.31" style="fill:none;stroke:black;stroke-width:3" />
<circle cx="1147.8" cy="33.89" r="5" stroke-width="0" fill="#FF2A00" opacity="0.7" />
<path d="M1228.75,13.74c0,0.78,0.05,1.41-0.14,2.35C1227.6399999999999,21 1218.3899999999999,37.37 1210.47,44.63" style="fill:none;stroke:#999;stroke-width:3" />
<path d="M1231.3899999999999,20.71c4.65,2.15,10.6,7.87,12.86,13.29" style="fill:none;stroke:#999;stroke-width:3" />
<path d="M1218.5,41.11c1.69,0,2.46,0.1,3.01,0.06c4.9-0.35,10.55-1.73,16.31-1.98c0.83-0.04,1.01-0.06,2.43-0.06" style="fill:none;stroke:#999;stroke-width:3" />
<path d="M1212.59,56.25c0.65,0.44,2.78,0.64,3.44,0.57c5.96-0.66,15.72-2.57,23.71-3.56c0.8-0.1,2.58-0.18,3.78,0.2" style="fill:none;stroke:#999;stroke-width:3" />
<path d="M1227.45,43.19c1.24,0.78,1.24,2.52,1.24,3.14c0,4.35,0.62,35.13,0.31,39.48" style="fill:none;stroke:#999;stroke-width:3" />
<path d="M1212.8899999999999,65.26c4.08,4.85,6.57,11.11,7.4,13.94" style="fill:none;stroke:#999;stroke-width:3" />
<path d="M1240.7,61.05c0.3,0.84,0.46,2.06,0.34,2.76c-0.3,1.81-2.71,5.13-6.12,10.47" style="fill:none;stroke:#999;stroke-width:3" />
<path d="M1211.5,90.41c1.25,0.77,2.75,0.58,4.5,0.19c1.29-0.29,11.25-4.45,24.25-9.1" style="fill:none;stroke:#999;stroke-width:3" />
<path d="M1268.37,11.73c0.65,0.46,1.72,2.26,1.72,3.18c0,3.41-0.21,6-0.08,8.88" style="fill:none;stroke:#999;stroke-width:3" />
<path d="M1248.89,25.48c1.06,0.04,3.47,0.28,4.5,0.22c8.31-0.47,24.2-2.38,35.49-2.5c1.74-0.02,2.63,0.02,3.93,0.28" style="fill:none;stroke:#999;stroke-width:3" />
<path d="M1256.8,33.89c0.38,0.3,0.76,0.54,0.93,0.91c1.31,2.94,1.49,10.03,2.38,15.31" style="fill:none;stroke:#999;stroke-width:3" />
<path d="M1259.15,35.88c8.1-1.13,18.9-2.72,23.32-3.11c1.61-0.14,2.58,1.75,2.35,2.58c-0.96,3.43-1.07,4.89-1.8,9.48" style="fill:none;stroke:black;stroke-width:3" />
<circle cx="1259.15" cy="35.88" r="5" stroke-width="0" fill="#FF2A00" opacity="0.7" />
<path d="M1337.75,13.74c0,0.78,0.05,1.41-0.14,2.35C1336.6399999999999,21 1327.3899999999999,37.37 1319.47,44.63" style="fill:none;stroke:#999;stroke-width:3" />
<path d="M1340.3899999999999,20.71c4.65,2.15,10.6,7.87,12.86,13.29" style="fill:none;stroke:#999;stroke-width:3" />
<path d="M1327.5,41.11c1.69,0,2.46,0.1,3.01,0.06c4.9-0.35,10.55-1.73,16.31-1.98c0.83-0.04,1.01-0.06,2.43-0.06" style="fill:none;stroke:#999;stroke-width:3" />
<path d="M1321.59,56.25c0.65,0.44,2.78,0.64,3.44,0.57c5.96-0.66,15.72-2.57,23.71-3.56c0.8-0.1,2.58-0.18,3.78,0.2" style="fill:none;stroke:#999;stroke-width:3" />
<path d="M1336.45,43.19c1.24,0.78,1.24,2.52,1.24,3.14c0,4.35,0.62,35.13,0.31,39.48" style="fill:none;stroke:#999;stroke-width:3" />
<path d="M1321.8899999999999,65.26c4.08,4.85,6.57,11.11,7.4,13.94" style="fill:none;stroke:#999;stroke-width:3" />
<path d="M1349.7,61.05c0.3,0.84,0.46,2.06,0.34,2.76c-0.3,1.81-2.71,5.13-6.12,10.47" style="fill:none;stroke:#999;stroke-width:3" />
<path d="M1320.5,90.41c1.25,0.77,2.75,0.58,4.5,0.19c1.29-0.29,11.25-4.45,24.25-9.1" style="fill:none;stroke:#999;stroke-width:3" />
<path d="M1377.37,11.73c0.65,0.46,1.72,2.26,1.72,3.18c0,3.41-0.21,6-0.08,8.88" style="fill:none;stroke:#999;stroke-width:3" />
<path d="M1357.89,25.48c1.06,0.04,3.47,0.28,4.5,0.22c8.31-0.47,24.2-2.38,35.49-2.5c1.74-0.02,2.63,0.02,3.93,0.28" style="fill:none;stroke:#999;stroke-width:3" />
<path d="M1365.8,33.89c0.38,0.3,0.76,0.54,0.93,0.91c1.31,2.94,1.49,10.03,2.38,15.31" style="fill:none;stroke:#999;stroke-width:3" />
<path d="M1368.15,35.88c8.1-1.13,18.9-2.72,23.32-3.11c1.61-0.14,2.58,1.75,2.35,2.58c-0.96,3.43-1.07,4.89-1.8,9.48" style="fill:none;stroke:#999;stroke-width:3" />
<path d="M1369.29,47.54c5.19-0.44,17.22-1.61,24.34-2.28" style="fill:none;stroke:black;stroke-width:3" />
<circle cx="1369.29" cy="47.54" r="5" stroke-width="0" fill="#FF2A00" opacity="0.7" />
<path d="M1446.75,13.74c0,0.78,0.05,1.41-0.14,2.35C1445.6399999999999,21 1436.3899999999999,37.37 1428.47,44.63" style="fill:none;stroke:#999;stroke-width:3" />
<path d="M1449.3899999999999,20.71c4.65,2.15,10.6,7.87,12.86,13.29" style="fill:none;stroke:#999;stroke-width:3" />
<path d="M1436.5,41.11c1.69,0,2.46,0.1,3.01,0.06c4.9-0.35,10.55-1.73,16.31-1.98c0.83-0.04,1.01-0.06,2.43-0.06" style="fill:none;stroke:#999;stroke-width:3" />
<path d="M1430.59,56.25c0.65,0.44,2.78,0.64,3.44,0.57c5.96-0.66,15.72-2.57,23.71-3.56c0.8-0.1,2.58-0.18,3.78,0.2" style="fill:none;stroke:#999;stroke-width:3" />
<path d="M1445.45,43.19c1.24,0.78,1.24,2.52,1.24,3.14c0,4.35,0.62,35.13,0.31,39.48" style="fill:none;stroke:#999;stroke-width:3" />
<path d="M1430.8899999999999,65.26c4.08,4.85,6.57,11.11,7.4,13.94" style="fill:none;stroke:#999;stroke-width:3" />
<path d="M1458.7,61.05c0.3,0.84,0.46,2.06,0.34,2.76c-0.3,1.81-2.71,5.13-6.12,10.47" style="fill:none;stroke:#999;stroke-width:3" />
<path d="M1429.5,90.41c1.25,0.77,2.75,0.58,4.5,0.19c1.29-0.29,11.25-4.45,24.25-9.1" style="fill:none;stroke:#999;stroke-width:3" />
<path d="M1486.37,11.73c0.65,0.46,1.72,2.26,1.72,3.18c0,3.41-0.21,6-0.08,8.88" style="fill:none;stroke:#999;stroke-width:3" />
<path d="M1466.89,25.48c1.06,0.04,3.47,0.28,4.5,0.22c8.31-0.47,24.2-2.38,35.49-2.5c1.74-0.02,2.63,0.02,3.93,0.28" style="fill:none;stroke:#999;stroke-width:3" />
<path d="M1474.8,33.89c0.38,0.3,0.76,0.54,0.93,0.91c1.31,2.94,1.49,10.03,2.38,15.31" style="fill:none;stroke:#999;stroke-width:3" />
<path d="M1477.15,35.88c8.1-1.13,18.9-2.72,23.32-3.11c1.61-0.14,2.58,1.75,2.35,2.58c-0.96,3.43-1.07,4.89-1.8,9.48" style="fill:none;stroke:#999;stroke-width:3" />
<path d="M1478.29,47.54c5.19-0.44,17.22-1.61,24.34-2.28" style="fill:none;stroke:#999;stroke-width:3" />
<path d="M1467.25,57.69c0.5,1.15,1.2,2.52,1.36,4.59c0.37,4.82,0.93,25.89,1.45,33.24" style="fill:none;stroke:black;stroke-width:3" />
<circle cx="1467.25" cy="57.69" r="5" stroke-width="0" fill="#FF2A00" opacity="0.7" />
<path d="M1555.75,13.74c0,0.78,0.05,1.41-0.14,2.35C1554.6399999999999,21 1545.3899999999999,37.37 1537.47,44.63" style="fill:none;stroke:#999;stroke-width:3" />
<path d="M1558.3899999999999,20.71c4.65,2.15,10.6,7.87,12.86,13.29" style="fill:none;stroke:#999;stroke-width:3" />
<path d="M1545.5,41.11c1.69,0,2.46,0.1,3.01,0.06c4.9-0.35,10.55-1.73,16.31-1.98c0.83-0.04,1.01-0.06,2.43-0.06" style="fill:none;stroke:#999;stroke-width:3" />
<path d="M1539.59,56.25c0.65,0.44,2.78,0.64,3.44,0.57c5.96-0.66,15.72-2.57,23.71-3.56c0.8-0.1,2.58-0.18,3.78,0.2" style="fill:none;stroke:#999;stroke-width:3" />
<path d="M1554.45,43.19c1.24,0.78,1.24,2.52,1.24,3.14c0,4.35,0.62,35.13,0.31,39.48" style="fill:none;stroke:#999;stroke-width:3" />
<path d="M1539.8899999999999,65.26c4.08,4.85,6.57,11.11,7.4,13.94" style="fill:none;stroke:#999;stroke-width:3" />
<path d="M1567.7,61.05c0.3,0.84,0.46,2.06,0.34,2.76c-0.3,1.81-2.71,5.13-6.12,10.47" style="fill:none;stroke:#999;stroke-width:3" />
<path d="M1538.5,90.41c1.25,0.77,2.75,0.58,4.5,0.19c1.29-0.29,11.25-4.45,24.25-9.1" style="fill:none;stroke:#999;stroke-width:3" />
<path d="M1595.37,11.73c0.65,0.46,1.72,2.26,1.72,3.18c0,3.41-0.21,6-0.08,8.88" style="fill:none;stroke:#999;stroke-width:3" />
<path d="M1575.89,25.48c1.06,0.04,3.47,0.28,4.5,0.22c8.31-0.47,24.2-2.38,35.49-2.5c1.74-0.02,2.63,0.02,3.93,0.28" style="fill:none;stroke:#999;stroke-width:3" />
<path d="M1583.8,33.89c0.38,0.3,0.76,0.54,0.93,0.91c1.31,2.94,1.49,10.03,2.38,15.31" style="fill:none;stroke:#999;stroke-width:3" />
<path d="M1586.15,35.88c8.1-1.13,18.9-2.72,23.32-3.11c1.61-0.14,2.58,1.75,2.35,2.58c-0.96,3.43-1.07,4.89-1.8,9.48" style="fill:none;stroke:#999;stroke-width:3" />
<path d="M1587.29,47.54c5.19-0.44,17.22-1.61,24.34-2.28" style="fill:none;stroke:#999;stroke-width:3" />
<path d="M1576.25,57.69c0.5,1.15,1.2,2.52,1.36,4.59c0.37,4.82,0.93,25.89,1.45,33.24" style="fill:none;stroke:#999;stroke-width:3" />
<path d="M1577.58,58.94c6.85-0.46,38.86-2.99,40.15-2.97c2.02,0.03,4.26,2.27,4.33,5.62C1622.25,70.5 1622.0,81.5 1620.25,90.66c-1.18,6.15-5.4,1.61-7.23,0" style="fill:none;stroke:black;stroke-width:3" />
<circle cx="1577.58" cy="58.94" r="5" stroke-width="0" fill="#FF2A00" opacity="0.7" />
<path d="M1664.75,13.74c0,0.78,0.05,1.41-0.14,2.35C1663.6399999999999,21 1654.3899999999999,37.37 1646.47,44.63" style="fill:none;stroke:#999;stroke-width:3" />
<path d="M1667.3899999999999,20.71c4.65,2.15,10.6,7.87,12.86,13.29" style="fill:none;stroke:#999;stroke-width:3" />
<path d="M1654.5,41.11c1.69,0,2.46,0.1,3.01,0.06c4.9-0.35,10.55-1.73,16.31-1.98c0.83-0.04,1.01-0.06,2.43-0.06" style="fill:none;stroke:#999;stroke-width:3" />
<path d="M1648.59,56.25c0.65,0.44,2.78,0.64,3.44,0.57c5.96-0.66,15.72-2.57,23.71-3.56c0.8-0.1,2.58-0.18,3.78,0.2" style="fill:none;stroke:#999;stroke-width:3" />
<path d="M1663.45,43.19c1.24,0.78,1.24,2.52,1.24,3.14c0,4.35,0.62,35.13,0.31,39.48" style="fill:none;stroke:#999;stroke-width:3" />
<path d="M1648.8899999999999,65.26c4.08,4.85,6.57,11.11,7.4,13.94" style="fill:none;stroke:#999;stroke-width:3" />
<path d="M1676.7,61.05c0.3,0.84,0.46,2.06,0.34,2.76c-0.3,1.81-2.71,5.13-6.12,10.47" style="fill:none;stroke:#999;stroke-width:3" />
<path d="M1647.5,90.41c1.25,0.77,2.75,0.58,4.5,0.19c1.29-0.29,11.25-4.45,24.25-9.1" style="fill:none;stroke:#999;stroke-width:3" />
<path d="M1704.37,11.73c0.65,0.46,1.72,2.26,1.72,3.18c0,3.41-0.21,6-0.08,8.88" style="fill:none;stroke:#999;stroke-width:3" />
<path d="M1684.89,25.48c1.06,0.04,3.47,0.28,4.5,0.22c8.31-0.47,24.2-2.38,35.49-2.5c1.74-0.02,2.63,0.02,3.93,0.28" style="fill:none;stroke:#999;stroke-width:3" />
<path d="M1692.8,33.89c0.38,0.3,0.76,0.54,0.93,0.91c1.31,2.94,1.49,10.03,2.38,15.31" style="fill:none;stroke:#999;stroke-width:3" />
<path d="M1695.15,35.88c8.1-1.13,18.9-2.72,23.32-3.11c1.61-0.14,2.58,1.75,2.35,2.58c-0.96,3.43-1.07,4.89-1.8,9.48" style="fill:none;stroke:#999;stroke-width:3" />
<path d="M1696.29,47.54c5.19-0.44,17.22-1.61,24.34-2.28" style="fill:none;stroke:#999;stroke-width:3" />
<path d="M1685.25,57.69c0.5,1.15,1.2,2.52,1.36,4.59c0.37,4.82,0.93,25.89,1.45,33.24" style="fill:none;stroke:#999;stroke-width:3" />
<path d="M1686.58,58.94c6.85-0.46,38.86-2.99,40.15-2.97c2.02,0.03,4.26,2.27,4.33,5.62C1731.25,70.5 1731.0,81.5 1729.25,90.66c-1.18,6.15-5.4,1.61-7.23,0" style="fill:none;stroke:#999;stroke-width:3" />
<path d="M1696.46,67c0.27,0.29,0.54,0.52,0.65,0.88c0.92,2.83,2.02,9.13,2.65,14.21" style="fill:none;stroke:black;stroke-width:3" />
<circle cx="1696.46" cy="67.0" r="5" stroke-width="0" fill="#FF2A00" opacity="0.7" />
<path d="M1773.75,13.74c0,0.78,0.05,1.41-0.14,2.35C1772.6399999999999,21 1763.3899999999999,37.37 1755.47,44.63" style="fill:none;stroke:#999;stroke-width:3" />
<path d="M1776.3899999999999,20.71c4.65,2.15,10.6,7.87,12.86,13.29" style="fill:none;stroke:#999;stroke-width:3" />
<path d="M1763.5,41.11c1.69,0,2.46,0.1,3.01,0.06c4.9-0.35,10.55-1.73,16.31-1.98c0.83-0.04,1.01-0.06,2.43-0.06" style="fill:none;stroke:#999;stroke-width:3" />
<path d="M1757.59,56.25c0.65,0.44,2.78,0.64,3.44,0.57c5.96-0.66,15.72-2.57,23.71-3.56c0.8-0.1,2.58-0.18,3.78,0.2" style="fill:none;stroke:#999;stroke-width:3" />
<path d="M1772.45,43.19c1.24,0.78,1.24,2.52,1.24,3.14c0,4.35,0.62,35.13,0.31,39.48" style="fill:none;stroke:#999;stroke-width:3" />
<path d="M1757.8899999999999,65.26c4.08,4.85,6.57,11.11,7.4,13.94" style="fill:none;stroke:#999;stroke-width:3" />
<path d="M1785.7,61.05c0.3,0.84,0.46,2.06,0.34,2.76c-0.3,1.81-2.71,5.13-6.12,10.47" style="fill:none;stroke:#999;stroke-width:3" />
<path d="M1756.5,90.41c1.25,0.77,2.75,0.58,4.5,0.19c1.29-0.29,11.25-4.45,24.25-9.1" style="fill:none;stroke:#999;stroke-width:3" />
<path d="M1813.37,11.73c0.65,0.46,1.72,2.26,1.72,3.18c0,3.41-0.21,6-0.08,8.88" style="fill:none;stroke:#999;stroke-width:3" />
<path d="M1793.89,25.48c1.06,0.04,3.47,0.28,4.5,0.22c8.31-0.47,24.2-2.38,35.49-2.5c1.74-0.02,2.63,0.02,3.93,0.28" style="fill:none;stroke:#999;stroke-width:3" />
<path d="M1801.8,33.89c0.38,0.3,0.76,0.54,0.93,0.91c1.31,2.94,1.49,10.03,2.38,15.31" style="fill:none;stroke:#999;stroke-width:3" />
<path d="M1804.15,35.88c8.1-1.13,18.9-2.72,23.32-3.11c1.61-0.14,2.58,1.75,2.35,2.58c-0.96,3.43-1.07,4.89-1.8,9.48" style="fill:none;stroke:#999;stroke-width:3" />
<path d="M1805.29,47.54c5.19-0.44,17.22-1.61,24.34-2.28" style="fill:none;stroke:#999;stroke-width:3" />
<path d="M1794.25,57.69c0.5,1.15,1.2,2.52,1.36,4.59c0.37,4.82,0.93,25.89,1.45,33.24" style="fill:none;stroke:#999;stroke-width:3" />
<path d="M1795.58,58.94c6.85-0.46,38.86-2.99,40.15-2.97c2.02,0.03,4.26,2.27,4.33,5.62C1840.25,70.5 1840.0,81.5 1838.25,90.66c-1.18,6.15-5.4,1.61-7.23,0" style="fill:none;stroke:#999;stroke-width:3" />
<path d="M1805.46,67c0.27,0.29,0.54,0.52,0.65,0.88c0.92,2.83,2.02,9.13,2.65,14.21" style="fill:none;stroke:#999;stroke-width:3" />
<path d="M1806.61,68.42c5.89-0.67,14.33-1.95,17.42-2.48c1.25-0.21,2.47,1.16,2.35,2.52c-0.31,3.4-1.46,6.38-2.46,10.94" style="fill:none;stroke:black;stroke-width:3" />
<circle cx="1806.61" cy="68.42" r="5" stroke-width="0" fill="#FF2A00" opacity="0.7" />
<path d="M1882.75,13.74c0,0.78,0.05,1.41-0.14,2.35C1881.6399999999999,21 1872.3899999999999,37.37 1864.47,44.63" style="fill:none;stroke:#999;stroke-width:3" />
<path d="M1885.3899999999999,20.71c4.65,2.15,10.6,7.87,12.86,13.29" style="fill:none;stroke:#999;stroke-width:3" />
<path d="M1872.5,41.11c1.69,0,2.46,0.1,3.01,0.06c4.9-0.35,10.55-1.73,16.31-1.98c0.83-0.04,1.01-0.06,2.43-0.06" style="fill:none;stroke:#999;stroke-width:3" />
<path d="M1866.59,56.25c0.65,0.44,2.78,0.64,3.44,0.57c5.96-0.66,15.72-2.57,23.71-3.56c0.8-0.1,2.58-0.18,3.78,0.2" style="fill:none;stroke:#999;stroke-width:3" />
<path d="M1881.45,43.19c1.24,0.78,1.24,2.52,1.24,3.14c0,4.35,0.62,35.13,0.31,39.48" style="fill:none;stroke:#999;stroke-width:3" />
<path d="M1866.8899999999999,65.26c4.08,4.85,6.57,11.11,7.4,13.94" style="fill:none;stroke:#999;stroke-width:3" />
<path d="M1894.7,61.05c0.3,0.84,0.46,2.06,0.34,2.76c-0.3,1.81-2.71,5.13-6.12,10.47" style="fill:none;stroke:#999;stroke-width:3" />
<path d="M1865.5,90.41c1.25,0.77,2.75,0.58,4.5,0.19c1.29-0.29,11.25-4.45,24.25-9.1" style="fill:none;stroke:#999;stroke-width:3" />
<path d="M1922.37,11.73c0.65,0.46,1.72,2.26,1.72,3.18c0,3.41-0.21,6-0.08,8.88" style="fill:none;stroke:#999;stroke-width:3" />
<path d="M1902.89,25.48c1.06,0.04,3.47,0.28,4.5,0.22c8.31-0.47,24.2-2.38,35.49-2.5c1.74-0.02,2.63,0.02,3.93,0.28" style="fill:none;stroke:#999;stroke-width:3" />
<path d="M1910.8,33.89c0.38,0.3,0.76,0.54,0.93,0.91c1.31,2.94,1.49,10.03,2.38,15.31" style="fill:none;stroke:#999;stroke-width:3" />
<path d="M1913.15,35.88c8.1-1.13,18.9-2.72,23.32-3.11c1.61-0.14,2.58,1.75,2.35,2.58c-0.96,3.43-1.07,4.89-1.8,9.48" style="fill:none;stroke:#999;stroke-width:3" />
<path d="M1914.29,47.54c5.19-0.44,17.22-1.61,24.34-2.28" style="fill:none;stroke:#999;stroke-width:3" />
<path d="M1903.25,57.69c0.5,1.15,1.2,2.52,1.36,4.59c0.37,4.82,0.93,25.89,1.45,33.24" style="fill:none;stroke:#999;stroke-width:3" />
<path d="M1904.58,58.94c6.85-0.46,38.86-2.99,40.15-2.97c2.02,0.03,4.26,2.27,4.33,5.62C1949.25,70.5 1949.0,81.5 1947.25,90.66c-1.18,6.15-5.4,1.61-7.23,0" style="fill:none;stroke:#999;stroke-width:3" />
<path d="M1914.46,67c0.27,0.29,0.54,0.52,0.65,0.88c0.92,2.83,2.02,9.13,2.65,14.21" style="fill:none;stroke:#999;stroke-width:3" />
<path d="M1915.61,68.42c5.89-0.67,14.33-1.95,17.42-2.48c1.25-0.21,2.47,1.16,2.35,2.52c-0.31,3.4-1.46,6.38-2.46,10.94" style="fill:none;stroke:#999;stroke-width:3" />
<path d="M1917.88,80.11c3.64-0.42,11.12-0.61,17.67-0.79" style="fill:none;stroke:black;stroke-width:3" />
<circle cx="1917.88" cy="80.11" r="5" stroke-width="0" fill="#FF2A00" opacity="0.7" />
</svg>