<!-- 09403 -->
<svg width="2180px" height="109px" viewBox="0 0 2180px 109px" xmlns="http://www.w3.org/2000/svg" xmlns:xlink="http://www.w3.org/1999/xlink" xml:space="preserve" version="1.1"  baseProfile="full">
<line x1="1" y1="1" x2="2179" y2="1" style="stroke:#ddd;stroke-width:2" />
<line x1="1" y1="1" x2="1" y2="108" style="stroke:#ddd;stroke-width:2" />
<line x1="1" y1="108" x2="2179" y2="108" style="stroke:#ddd;stroke-width:2" />
<line x1="2179" y1="1" x2="2179" y2="108" style="stroke:#ddd;stroke-width:2" />
<line x1="109" y1="1" x2="109" y2="108" style="stroke:#ddd;stroke-width:2" />
<line x1="218" y1="1" x2="218" y2="108" style="stroke:#ddd;stroke-width:2" />
<line x1="327" y1="1" x2="327" y2="108" style="stroke:#ddd;stroke-width:2" />
<line x1="436" y1="1" x2="436" y2="108" style="stroke:#ddd;stroke-width:2" />
<line x1="545" y1="1" x2="545" y2="108" style="stroke:#ddd;stroke-width:2" />
<line x1="654" y1="1" x2="654" y2="108" style="stroke:#ddd;stroke-width:2" />
<line x1="763" y1="1" x2="763" y2="108" style="stroke:#ddd;stroke-width:2" />
<line x1="872" y1="1" x2="872" y2="108" style="stroke:#ddd;stroke-width:2" />
<line x1="981" y1="1" x2="981" y2="108" style="stroke:#ddd;stroke-width:2" />
<line x1="1090" y1="1" x2="1090" y2="108" style="stroke:#ddd;stroke-width:2" />
<line x1="1199" y1="1" x2="1199" y2="108" style="stroke:#ddd;stroke-width:2" />
<line x1="1308" y1="1" x2="1308" y2="108" style="stroke:#ddd;stroke-width:2" />
<line x1="1417" y1="1" x2="1417" y2="108" style="stroke:#ddd;stroke-width:2" />
<line x1="1526" y1="1" x2="1526" y2="108" style="stroke:#ddd;stroke-width:2" />
<line x1="1635" y1="1" x2="1635" y2="108" style="stroke:#ddd;stroke-width:2" />
<line x1="1744" y1="1" x2="1744" y2="108" style="stroke:#ddd;stroke-width:2" />
<line x1="1853" y1="1" x2="1853" y2="108" style="stroke:#ddd;stroke-width:2" />
<line x1="1962" y1="1" x2="1962" y2="108" style="stroke:#ddd;stroke-width:2" />
<line x1="2071" y1="1" x2="2071" y2="108" style="stroke:#ddd;stroke-width:2" />
<line x1="1" y1="54" x2="2179" y2="54" style="stroke:#ddd;stroke-width:2;stroke-dasharray:3 3" />
<line x1="55" y1="1" x2="55" y2="108" style="stroke:#ddd;stroke-width:2;stroke-dasharray:3 3" />
<line x1="164" y1="1" x2="164" y2="108" style="stroke:#ddd;stroke-width:2;stroke-dasharray:3 3" />
<line x1="273" y1="1" x2="273" y2="108" style="stroke:#ddd;stroke-width:2;stroke-dasharray:3 3" />
<line x1="382" y1="1" x2="382" y2="108" style="stroke:#ddd;stroke-width:2;stroke-dasharray:3 3" />
<line x1="491" y1="1" x2="491" y2="108" style="stroke:#ddd;stroke-width:2;stroke-dasharray:3 3" />
<line x1="600" y1="1" x2="600" y2="108" style="stroke:#ddd;stroke-width:2;stroke-dasharray:3 3" />
<line x1="709" y1="1" x2="709" y2="108" style="stroke:#ddd;stroke-width:2;stroke-dasharray:3 3" />
<line x1="818" y1="1" x2="818" y2="108" style="stroke:#ddd;stroke-width:2;stroke-dasharray:3 3" />
<line x1="927" y1="1" x2="927" y2="108" style="stroke:#ddd;stroke-width:2;stroke-dasharray:3 3" />
<line x1="1036" y1="1" x2="1036" y2="108" style="stroke:#ddd;stroke-width:2;stroke-dasharray:3 3" />
<line x1="1145" y1="1" x2="1145" y2="108" style="stroke:#ddd;stroke-width:2;stroke-dasharray:3 3" />
<line x1="1254" y1="1" x2="1254" y2="108" style="stroke:#ddd;stroke-width:2;stroke-dasharray:3 3" />
<line x1="1363" y1="1" x2="1363" y2="108" style="stroke:#ddd;stroke-width:2;stroke-dasharray:3 3" />
<line x1="1472" y1="1" x2="1472" y2="108" style="stroke:#ddd;stroke-width:2;stroke-dasharray:3 3" />
<line x1="1581" y1="1" x2="1581" y2="108" style="stroke:#ddd;stroke-width:2;stroke-dasharray:3 3" />
<line x1="1690" y1="1" x2="1690" y2="108" style="stroke:#ddd;stroke-width:2;stroke-dasharray:3 3" />
<line x1="1799" y1="1" x2="1799" y2="108" style="stroke:#ddd;stroke-width:2;stroke-dasharray:3 3" />
<line x1="1908" y1="1" x2="1908" y2="108" style="stroke:#ddd;stroke-width:2;stroke-dasharray:3 3" />
<line x1="2017" y1="1" x2="2017" y2="108" style="stroke:#ddd;stroke-width:2;stroke-dasharray:3 3" />
<line x1="2126" y1="1" x2="2126" y2="108" style="stroke:#ddd;stroke-width:2;stroke-dasharray:3 3" />
<path d="M27.75,14.24c0,0.79,0.05,1.42-0.15,2.37c-1.04,4.94-10.92,21.44-19.38,28.76" style="fill:none;stroke:black;stroke-width:3" />
<circle cx="27.75" cy="14.24" r="5" stroke-width="0" fill="#FF2A00" opacity="0.7" />
<path d="M136.75,14.24c0,0.79,0.05,1.42-0.15,2.37c-1.04,4.94-10.92,21.44-19.38,28.76" style="fill:none;stroke:#999;stroke-width:3" />
<path d="M137.89,18.96c4.47,2.03,10.18,7.42,12.36,12.54" style="fill:none;stroke:black;stroke-width:3" />
<circle cx="137.89" cy="18.96" r="5" stroke-width="0" fill="#FF2A00" opacity="0.7" />
<path d="M245.75,14.24c0,0.79,0.05,1.42-0.15,2.37c-1.04,4.94-10.92,21.44-19.38,28.76" style="fill:none;stroke:#999;stroke-width:3" />
<path d="M246.89,18.96c4.47,2.03,10.18,7.42,12.36,12.54" style="fill:none;stroke:#999;stroke-width:3" />
<path d="M235.0,41.28c1.73,0,2.52,0.11,3.08,0.07c5.01-0.37,9.92-1.85,16.19-2.58c0.85-0.1,1.04-0.06,2.48-0.06" style="fill:none;stroke:black;stroke-width:3" />
<circle cx="235.0" cy="41.28" r="5" stroke-width="0" fill="#FF2A00" opacity="0.7" />
<path d="M354.75,14.24c0,0.79,0.05,1.42-0.15,2.37c-1.04,4.94-10.92,21.44-19.38,28.76" style="fill:none;stroke:#999;stroke-width:3" />
<path d="M355.89,18.96c4.47,2.03,10.18,7.42,12.36,12.54" style="fill:none;stroke:#999;stroke-width:3" />
<path d="M344.0,41.28c1.73,0,2.52,0.11,3.08,0.07c5.01-0.37,9.92-1.85,16.19-2.58c0.85-0.1,1.04-0.06,2.48-0.06" style="fill:none;stroke:#999;stroke-width:3" />
<path d="M339.59,55.31c0.59,0.33,2.56,0.48,3.17,0.43c5.49-0.49,15.49-1.99,21.78-3.17c0.73-0.14,2.38-0.13,3.49,0.15" style="fill:none;stroke:black;stroke-width:3" />
<circle cx="339.59" cy="55.31" r="5" stroke-width="0" fill="#FF2A00" opacity="0.7" />
<path d="M463.75,14.24c0,0.79,0.05,1.42-0.15,2.37c-1.04,4.94-10.92,21.44-19.38,28.76" style="fill:none;stroke:#999;stroke-width:3" />
<path d="M464.89,18.96c4.47,2.03,10.18,7.42,12.36,12.54" style="fill:none;stroke:#999;stroke-width:3" />
<path d="M453.0,41.28c1.73,0,2.52,0.11,3.08,0.07c5.01-0.37,9.92-1.85,16.19-2.58c0.85-0.1,1.04-0.06,2.48-0.06" style="fill:none;stroke:#999;stroke-width:3" />
<path d="M448.59,55.31c0.59,0.33,2.56,0.48,3.17,0.43c5.49-0.49,15.49-1.99,21.78-3.17c0.73-0.14,2.38-0.13,3.49,0.15" style="fill:none;stroke:#999;stroke-width:3" />
<path d="M461.95,41.19c1.24,0.78,1.24,2.52,1.24,3.14c0,4.35,0.31,34.17,0.31,39.98" style="fill:none;stroke:black;stroke-width:3" />
<circle cx="461.95" cy="41.19" r="5" stroke-width="0" fill="#FF2A00" opacity="0.7" />
<path d="M572.75,14.24c0,0.79,0.05,1.42-0.15,2.37c-1.04,4.94-10.92,21.44-19.38,28.76" style="fill:none;stroke:#999;stroke-width:3" />
<path d="M573.89,18.96c4.47,2.03,10.18,7.42,12.36,12.54" style="fill:none;stroke:#999;stroke-width:3" />
<path d="M562.0,41.28c1.73,0,2.52,0.11,3.08,0.07c5.01-0.37,9.92-1.85,16.19-2.58c0.85-0.1,1.04-0.06,2.48-0.06" style="fill:none;stroke:#999;stroke-width:3" />
<path d="M557.5899999999999,55.31c0.59,0.33,2.56,0.48,3.17,0.43c5.49-0.49,15.49-1.99,21.78-3.17c0.73-0.14,2.38-0.13,3.49,0.15" style="fill:none;stroke:#999;stroke-width:3" />
<path d="M570.95,41.19c1.24,0.78,1.24,2.52,1.24,3.14c0,4.35,0.31,34.17,0.31,39.98" style="fill:none;stroke:#999;stroke-width:3" />
<path d="M558.89,65.51c3.49,5.32,5.19,11.08,5.9,14.19" style="fill:none;stroke:black;stroke-width:3" />
<circle cx="558.89" cy="65.51" r="5" stroke-width="0" fill="#FF2A00" opacity="0.7" />
<path d="M681.75,14.24c0,0.79,0.05,1.42-0.15,2.37c-1.04,4.94-10.92,21.44-19.38,28.76" style="fill:none;stroke:#999;stroke-width:3" />
<path d="M682.89,18.96c4.47,2.03,10.18,7.42,12.36,12.54" style="fill:none;stroke:#999;stroke-width:3" />
<path d="M671.0,41.28c1.73,0,2.52,0.11,3.08,0.07c5.01-0.37,9.92-1.85,16.19-2.58c0.85-0.1,1.04-0.06,2.48-0.06" style="fill:none;stroke:#999;stroke-width:3" />
<path d="M666.5899999999999,55.31c0.59,0.33,2.56,0.48,3.17,0.43c5.49-0.49,15.49-1.99,21.78-3.17c0.73-0.14,2.38-0.13,3.49,0.15" style="fill:none;stroke:#999;stroke-width:3" />
<path d="M679.95,41.19c1.24,0.78,1.24,2.52,1.24,3.14c0,4.35,0.31,34.17,0.31,39.98" style="fill:none;stroke:#999;stroke-width:3" />
<path d="M667.89,65.51c3.49,5.32,5.19,11.08,5.9,14.19" style="fill:none;stroke:#999;stroke-width:3" />
<path d="M692.76,60.05c0.26,0.85,0.39,2.09,0.29,2.82c-0.26,1.85-2.27,5.23-5.13,10.66" style="fill:none;stroke:black;stroke-width:3" />
<circle cx="692.76" cy="60.05" r="5" stroke-width="0" fill="#FF2A00" opacity="0.7" />
<path d="M790.75,14.24c0,0.79,0.05,1.42-0.15,2.37c-1.04,4.94-10.92,21.44-19.38,28.76" style="fill:none;stroke:#999;stroke-width:3" />
<path d="M791.89,18.96c4.47,2.03,10.18,7.42,12.36,12.54" style="fill:none;stroke:#999;stroke-width:3" />
<path d="M780.0,41.28c1.73,0,2.52,0.11,3.08,0.07c5.01-0.37,9.92-1.85,16.19-2.58c0.85-0.1,1.04-0.06,2.48-0.06" style="fill:none;stroke:#999;stroke-width:3" />
<path d="M775.5899999999999,55.31c0.59,0.33,2.56,0.48,3.17,0.43c5.49-0.49,15.49-1.99,21.78-3.17c0.73-0.14,2.38-0.13,3.49,0.15" style="fill:none;stroke:#999;stroke-width:3" />
<path d="M788.95,41.19c1.24,0.78,1.24,2.52,1.24,3.14c0,4.35,0.31,34.17,0.31,39.98" style="fill:none;stroke:#999;stroke-width:3" />
<path d="M776.89,65.51c3.49,5.32,5.19,11.08,5.9,14.19" style="fill:none;stroke:#999;stroke-width:3" />
<path d="M801.76,60.05c0.26,0.85,0.39,2.09,0.29,2.82c-0.26,1.85-2.27,5.23-5.13,10.66" style="fill:none;stroke:#999;stroke-width:3" />
<path d="M774.0,89.32c1.32,0.9,2.89,0.67,4.73,0.22C780.1,89.21 790.57,84.38 804.25,79" style="fill:none;stroke:black;stroke-width:3" />
<circle cx="774.0" cy="89.32" r="5" stroke-width="0" fill="#FF2A00" opacity="0.7" />
<path d="M899.75,14.24c0,0.79,0.05,1.42-0.15,2.37c-1.04,4.94-10.92,21.44-19.38,28.76" style="fill:none;stroke:#999;stroke-width:3" />
<path d="M900.89,18.96c4.47,2.03,10.18,7.42,12.36,12.54" style="fill:none;stroke:#999;stroke-width:3" />
<path d="M889.0,41.28c1.73,0,2.52,0.11,3.08,0.07c5.01-0.37,9.92-1.85,16.19-2.58c0.85-0.1,1.04-0.06,2.48-0.06" style="fill:none;stroke:#999;stroke-width:3" />
<path d="M884.5899999999999,55.31c0.59,0.33,2.56,0.48,3.17,0.43c5.49-0.49,15.49-1.99,21.78-3.17c0.73-0.14,2.38-0.13,3.49,0.15" style="fill:none;stroke:#999;stroke-width:3" />
<path d="M897.95,41.19c1.24,0.78,1.24,2.52,1.24,3.14c0,4.35,0.31,34.17,0.31,39.98" style="fill:none;stroke:#999;stroke-width:3" />
<path d="M885.89,65.51c3.49,5.32,5.19,11.08,5.9,14.19" style="fill:none;stroke:#999;stroke-width:3" />
<path d="M910.76,60.05c0.26,0.85,0.39,2.09,0.29,2.82c-0.26,1.85-2.27,5.23-5.13,10.66" style="fill:none;stroke:#999;stroke-width:3" />
<path d="M883.0,89.32c1.32,0.9,2.89,0.67,4.73,0.22C889.1,89.21 899.57,84.38 913.25,79" style="fill:none;stroke:#999;stroke-width:3" />
<path d="M925.68,22.24c0.71,0.39,2.02,0.43,2.74,0.39c7.56-0.43,18.31-1.91,27.54-2.25c1.19-0.04,1.9,0.18,2.5,0.38" style="fill:none;stroke:black;stroke-width:3" />
<circle cx="925.68" cy="22.24" r="5" stroke-width="0" fill="#FF2A00" opacity="0.7" />
<path d="M1008.75,14.24c0,0.79,0.05,1.42-0.15,2.37c-1.04,4.94-10.92,21.44-19.38,28.76" style="fill:none;stroke:#999;stroke-width:3" />
<path d="M1009.89,18.96c4.47,2.03,10.18,7.42,12.36,12.54" style="fill:none;stroke:#999;stroke-width:3" />
<path d="M998.0,41.28c1.73,0,2.52,0.11,3.08,0.07c5.01-0.37,9.92-1.85,16.19-2.58c0.85-0.1,1.04-0.06,2.48-0.06" style="fill:none;stroke:#999;stroke-width:3" />
<path d="M993.5899999999999,55.31c0.59,0.33,2.56,0.48,3.17,0.43c5.49-0.49,15.49-1.99,21.78-3.17c0.73-0.14,2.38-0.13,3.49,0.15" style="fill:none;stroke:#999;stroke-width:3" />
<path d="M1006.95,41.19c1.24,0.78,1.24,2.52,1.24,3.14c0,4.35,0.31,34.17,0.31,39.98" style="fill:none;stroke:#999;stroke-width:3" />
<path d="M994.89,65.51c3.49,5.32,5.19,11.08,5.9,14.19" style="fill:none;stroke:#999;stroke-width:3" />
<path d="M1019.76,60.05c0.26,0.85,0.39,2.09,0.29,2.82c-0.26,1.85-2.27,5.23-5.13,10.66" style="fill:none;stroke:#999;stroke-width:3" />
<path d="M992.0,89.32c1.32,0.9,2.89,0.67,4.73,0.22C998.1,89.21 1008.57,84.38 1022.25,79" style="fill:none;stroke:#999;stroke-width:3" />
<path d="M1034.6799999999998,22.24c0.71,0.39,2.02,0.43,2.74,0.39c7.56-0.43,18.31-1.91,27.54-2.25c1.19-0.04,1.9,0.18,2.5,0.38" style="fill:none;stroke:#999;stroke-width:3" />
<path d="M1049.17,10.87c0.07,0.26,1.01,1.33,1.01,2.96c0,1.83,0.29,10.29,0.29,17.88" style="fill:none;stroke:black;stroke-width:3" />
<circle cx="1049.17" cy="10.87" r="5" stroke-width="0" fill="#FF2A00" opacity="0.7" />
<path d="M1117.75,14.24c0,0.79,0.05,1.42-0.15,2.37c-1.04,4.94-10.92,21.44-19.38,28.76" style="fill:none;stroke:#999;stroke-width:3" />
<path d="M1118.8899999999999,18.96c4.47,2.03,10.18,7.42,12.36,12.54" style="fill:none;stroke:#999;stroke-width:3" />
<path d="M1107.0,41.28c1.73,0,2.52,0.11,3.08,0.07c5.01-0.37,9.92-1.85,16.19-2.58c0.85-0.1,1.04-0.06,2.48-0.06" style="fill:none;stroke:#999;stroke-width:3" />
<path d="M1102.59,55.31c0.59,0.33,2.56,0.48,3.17,0.43c5.49-0.49,15.49-1.99,21.78-3.17c0.73-0.14,2.38-0.13,3.49,0.15" style="fill:none;stroke:#999;stroke-width:3" />
<path d="M1115.95,41.19c1.24,0.78,1.24,2.52,1.24,3.14c0,4.35,0.31,34.17,0.31,39.98" style="fill:none;stroke:#999;stroke-width:3" />
<path d="M1103.8899999999999,65.51c3.49,5.32,5.19,11.08,5.9,14.19" style="fill:none;stroke:#999;stroke-width:3" />
<path d="M1128.76,60.05c0.26,0.85,0.39,2.09,0.29,2.82c-0.26,1.85-2.27,5.23-5.13,10.66" style="fill:none;stroke:#999;stroke-width:3" />
<path d="M1101.0,89.32c1.32,0.9,2.89,0.67,4.73,0.22C1107.1,89.21 1117.5700000000002,84.38 1131.25,79" style="fill:none;stroke:#999;stroke-width:3" />
<path d="M1143.6799999999998,22.24c0.71,0.39,2.02,0.43,2.74,0.39c7.56-0.43,18.31-1.91,27.54-2.25c1.19-0.04,1.9,0.18,2.5,0.38" style="fill:none;stroke:#999;stroke-width:3" />
<path d="M1158.17,10.87c0.07,0.26,1.01,1.33,1.01,2.96c0,1.83,0.29,10.29,0.29,17.88" style="fill:none;stroke:#999;stroke-width:3" />
<path d="M1138.6,33.81c1.08,0.54,3.07,0.66,4.15,0.54c13.41-1.51,24.16-2.63,36.15-3.34c1.8-0.11,2.89,0.26,3.79,0.53" style="fill:none;stroke:black;stroke-width:3" />
<circle cx="1138.6" cy="33.81" r="5" stroke-width="0" fill="#FF2A00" opacity="0.7" />
<path d="M1226.75,14.24c0,0.79,0.05,1.42-0.15,2.37c-1.04,4.94-10.92,21.44-19.38,28.76" style="fill:none;stroke:#999;stroke-width:3" />
<path d="M1227.8899999999999,18.96c4.47,2.03,10.18,7.42,12.36,12.54" style="fill:none;stroke:#999;stroke-width:3" />
<path d="M1216.0,41.28c1.73,0,2.52,0.11,3.08,0.07c5.01-0.37,9.92-1.85,16.19-2.58c0.85-0.1,1.04-0.06,2.48-0.06" style="fill:none;stroke:#999;stroke-width:3" />
<path d="M1211.59,55.31c0.59,0.33,2.56,0.48,3.17,0.43c5.49-0.49,15.49-1.99,21.78-3.17c0.73-0.14,2.38-0.13,3.49,0.15" style="fill:none;stroke:#999;stroke-width:3" />
<path d="M1224.95,41.19c1.24,0.78,1.24,2.52,1.24,3.14c0,4.35,0.31,34.17,0.31,39.98" style="fill:none;stroke:#999;stroke-width:3" />
<path d="M1212.8899999999999,65.51c3.49,5.32,5.19,11.08,5.9,14.19" style="fill:none;stroke:#999;stroke-width:3" />
<path d="M1237.76,60.05c0.26,0.85,0.39,2.09,0.29,2.82c-0.26,1.85-2.27,5.23-5.13,10.66" style="fill:none;stroke:#999;stroke-width:3" />
<path d="M1210.0,89.32c1.32,0.9,2.89,0.67,4.73,0.22C1216.1,89.21 1226.5700000000002,84.38 1240.25,79" style="fill:none;stroke:#999;stroke-width:3" />
<path d="M1252.6799999999998,22.24c0.71,0.39,2.02,0.43,2.74,0.39c7.56-0.43,18.31-1.91,27.54-2.25c1.19-0.04,1.9,0.18,2.5,0.38" style="fill:none;stroke:#999;stroke-width:3" />
<path d="M1267.17,10.87c0.07,0.26,1.01,1.33,1.01,2.96c0,1.83,0.29,10.29,0.29,17.88" style="fill:none;stroke:#999;stroke-width:3" />
<path d="M1247.6,33.81c1.08,0.54,3.07,0.66,4.15,0.54c13.41-1.51,24.16-2.63,36.15-3.34c1.8-0.11,2.89,0.26,3.79,0.53" style="fill:none;stroke:#999;stroke-width:3" />
<path d="M1244.19,48.14c0.58,0.38,1.72,0.4,2.31,0.36c3.84-0.25,11.61-0.39,15.72-1c0.96-0.14,2.02-0.18,2.5,0.01" style="fill:none;stroke:black;stroke-width:3" />
<circle cx="1244.19" cy="48.14" r="5" stroke-width="0" fill="#FF2A00" opacity="0.7" />
<path d="M1335.75,14.24c0,0.79,0.05,1.42-0.15,2.37c-1.04,4.94-10.92,21.44-19.38,28.76" style="fill:none;stroke:#999;stroke-width:3" />
<path d="M1336.8899999999999,18.96c4.47,2.03,10.18,7.42,12.36,12.54" style="fill:none;stroke:#999;stroke-width:3" />
<path d="M1325.0,41.28c1.73,0,2.52,0.11,3.08,0.07c5.01-0.37,9.92-1.85,16.19-2.58c0.85-0.1,1.04-0.06,2.48-0.06" style="fill:none;stroke:#999;stroke-width:3" />
<path d="M1320.59,55.31c0.59,0.33,2.56,0.48,3.17,0.43c5.49-0.49,15.49-1.99,21.78-3.17c0.73-0.14,2.38-0.13,3.49,0.15" style="fill:none;stroke:#999;stroke-width:3" />
<path d="M1333.95,41.19c1.24,0.78,1.24,2.52,1.24,3.14c0,4.35,0.31,34.17,0.31,39.98" style="fill:none;stroke:#999;stroke-width:3" />
<path d="M1321.8899999999999,65.51c3.49,5.32,5.19,11.08,5.9,14.19" style="fill:none;stroke:#999;stroke-width:3" />
<path d="M1346.76,60.05c0.26,0.85,0.39,2.09,0.29,2.82c-0.26,1.85-2.27,5.23-5.13,10.66" style="fill:none;stroke:#999;stroke-width:3" />
<path d="M1319.0,89.32c1.32,0.9,2.89,0.67,4.73,0.22C1325.1,89.21 1335.5700000000002,84.38 1349.25,79" style="fill:none;stroke:#999;stroke-width:3" />
<path d="M1361.6799999999998,22.24c0.71,0.39,2.02,0.43,2.74,0.39c7.56-0.43,18.31-1.91,27.54-2.25c1.19-0.04,1.9,0.18,2.5,0.38" style="fill:none;stroke:#999;stroke-width:3" />
<path d="M1376.17,10.87c0.07,0.26,1.01,1.33,1.01,2.96c0,1.83,0.29,10.29,0.29,17.88" style="fill:none;stroke:#999;stroke-width:3" />
<path d="M1356.6,33.81c1.08,0.54,3.07,0.66,4.15,0.54c13.41-1.51,24.16-2.63,36.15-3.34c1.8-0.11,2.89,0.26,3.79,0.53" style="fill:none;stroke:#999;stroke-width:3" />
<path d="M1353.19,48.14c0.58,0.38,1.72,0.4,2.31,0.36c3.84-0.25,11.61-0.39,15.72-1c0.96-0.14,2.02-0.18,2.5,0.01" style="fill:none;stroke:#999;stroke-width:3" />
<path d="M1363.63,39.5c0.84,0.5,1.51,2.23,1.51,3.25c0,3,0.02,12.5,0.02,17" style="fill:none;stroke:black;stroke-width:3" />
<circle cx="1363.63" cy="39.5" r="5" stroke-width="0" fill="#FF2A00" opacity="0.7" />
<path d="M1444.75,14.24c0,0.79,0.05,1.42-0.15,2.37c-1.04,4.94-10.92,21.44-19.38,28.76" style="fill:none;stroke:#999;stroke-width:3" />
<path d="M1445.8899999999999,18.96c4.47,2.03,10.18,7.42,12.36,12.54" style="fill:none;stroke:#999;stroke-width:3" />
<path d="M1434.0,41.28c1.73,0,2.52,0.11,3.08,0.07c5.01-0.37,9.92-1.85,16.19-2.58c0.85-0.1,1.04-0.06,2.48-0.06" style="fill:none;stroke:#999;stroke-width:3" />
<path d="M1429.59,55.31c0.59,0.33,2.56,0.48,3.17,0.43c5.49-0.49,15.49-1.99,21.78-3.17c0.73-0.14,2.38-0.13,3.49,0.15" style="fill:none;stroke:#999;stroke-width:3" />
<path d="M1442.95,41.19c1.24,0.78,1.24,2.52,1.24,3.14c0,4.35,0.31,34.17,0.31,39.98" style="fill:none;stroke:#999;stroke-width:3" />
<path d="M1430.8899999999999,65.51c3.49,5.32,5.19,11.08,5.9,14.19" style="fill:none;stroke:#999;stroke-width:3" />
<path d="M1455.76,60.05c0.26,0.85,0.39,2.09,0.29,2.82c-0.26,1.85-2.27,5.23-5.13,10.66" style="fill:none;stroke:#999;stroke-width:3" />
<path d="M1428.0,89.32c1.32,0.9,2.89,0.67,4.73,0.22C1434.1,89.21 1444.5700000000002,84.38 1458.25,79" style="fill:none;stroke:#999;stroke-width:3" />
<path d="M1470.6799999999998,22.24c0.71,0.39,2.02,0.43,2.74,0.39c7.56-0.43,18.31-1.91,27.54-2.25c1.19-0.04,1.9,0.18,2.5,0.38" style="fill:none;stroke:#999;stroke-width:3" />
<path d="M1485.17,10.87c0.07,0.26,1.01,1.33,1.01,2.96c0,1.83,0.29,10.29,0.29,17.88" style="fill:none;stroke:#999;stroke-width:3" />
<path d="M1465.6,33.81c1.08,0.54,3.07,0.66,4.15,0.54c13.41-1.51,24.16-2.63,36.15-3.34c1.8-0.11,2.89,0.26,3.79,0.53" style="fill:none;stroke:#999;stroke-width:3" />
<path d="M1462.19,48.14c0.58,0.38,1.72,0.4,2.31,0.36c3.84-0.25,11.61-0.39,15.72-1c0.96-0.14,2.02-0.18,2.5,0.01" style="fill:none;stroke:#999;stroke-width:3" />
<path d="M1472.63,39.5c0.84,0.5,1.51,2.23,1.51,3.25c0,3,0.02,12.5,0.02,17" style="fill:none;stroke:#999;stroke-width:3" />
<path d="M1462.84,62.75c0.54,0.53,1.62,1.27,3.23,0.58c4.49-1.93,12.58-4.9,17.07-6.83" style="fill:none;stroke:black;stroke-width:3" />
<circle cx="1462.84" cy="62.75" r="5" stroke-width="0" fill="#FF2A00" opacity="0.7" />
<path d="M1553.75,14.24c0,0.79,0.05,1.42-0.15,2.37c-1.04,4.94-10.92,21.44-19.38,28.76" style="fill:none;stroke:#999;stroke-width:3" />
<path d="M1554.8899999999999,18.96c4.47,2.03,10.18,7.42,12.36,12.54" style="fill:none;stroke:#999;stroke-width:3" />
<path d="M1543.0,41.28c1.73,0,2.52,0.11,3.08,0.07c5.01-0.37,9.92-1.85,16.19-2.58c0.85-0.1,1.04-0.06,2.48-0.06" style="fill:none;stroke:#999;stroke-width:3" />
<path d="M1538.59,55.31c0.59,0.33,2.56,0.48,3.17,0.43c5.49-0.49,15.49-1.99,21.78-3.17c0.73-0.14,2.38-0.13,3.49,0.15" style="fill:none;stroke:#999;stroke-width:3" />
<path d="M1551.95,41.19c1.24,0.78,1.24,2.52,1.24,3.14c0,4.35,0.31,34.17,0.31,39.98" style="fill:none;stroke:#999;stroke-width:3" />
<path d="M1539.8899999999999,65.51c3.49,5.32,5.19,11.08,5.9,14.19" style="fill:none;stroke:#999;stroke-width:3" />
<path d="M1564.76,60.05c0.26,0.85,0.39,2.09,0.29,2.82c-0.26,1.85-2.27,5.23-5.13,10.66" style="fill:none;stroke:#999;stroke-width:3" />
<path d="M1537.0,89.32c1.32,0.9,2.89,0.67,4.73,0.22C1543.1,89.21 1553.5700000000002,84.38 1567.25,79" style="fill:none;stroke:#999;stroke-width:3" />
<path d="M1579.6799999999998,22.24c0.71,0.39,2.02,0.43,2.74,0.39c7.56-0.43,18.31-1.91,27.54-2.25c1.19-0.04,1.9,0.18,2.5,0.38" style="fill:none;stroke:#999;stroke-width:3" />
<path d="M1594.17,10.87c0.07,0.26,1.01,1.33,1.01,2.96c0,1.83,0.29,10.29,0.29,17.88" style="fill:none;stroke:#999;stroke-width:3" />
<path d="M1574.6,33.81c1.08,0.54,3.07,0.66,4.15,0.54c13.41-1.51,24.16-2.63,36.15-3.34c1.8-0.11,2.89,0.26,3.79,0.53" style="fill:none;stroke:#999;stroke-width:3" />
<path d="M1571.19,48.14c0.58,0.38,1.72,0.4,2.31,0.36c3.84-0.25,11.61-0.39,15.72-1c0.96-0.14,2.02-0.18,2.5,0.01" style="fill:none;stroke:#999;stroke-width:3" />
<path d="M1581.63,39.5c0.84,0.5,1.51,2.23,1.51,3.25c0,3,0.02,12.5,0.02,17" style="fill:none;stroke:#999;stroke-width:3" />
<path d="M1571.84,62.75c0.54,0.53,1.62,1.27,3.23,0.58c4.49-1.93,12.58-4.9,17.07-6.83" style="fill:none;stroke:#999;stroke-width:3" />
<path d="M1596.61,47.03c0.64,0.32,1.81,0.33,2.45,0.32c5.93-0.11,14.2-2.11,20-2.21c1.06-0.02,1.7,0.15,2.23,0.31" style="fill:none;stroke:black;stroke-width:3" />
<circle cx="1596.61" cy="47.03" r="5" stroke-width="0" fill="#FF2A00" opacity="0.7" />
<path d="M1662.75,14.24c0,0.79,0.05,1.42-0.15,2.37c-1.04,4.94-10.92,21.44-19.38,28.76" style="fill:none;stroke:#999;stroke-width:3" />
<path d="M1663.8899999999999,18.96c4.47,2.03,10.18,7.42,12.36,12.54" style="fill:none;stroke:#999;stroke-width:3" />
<path d="M1652.0,41.28c1.73,0,2.52,0.11,3.08,0.07c5.01-0.37,9.92-1.85,16.19-2.58c0.85-0.1,1.04-0.06,2.48-0.06" style="fill:none;stroke:#999;stroke-width:3" />
<path d="M1647.59,55.31c0.59,0.33,2.56,0.48,3.17,0.43c5.49-0.49,15.49-1.99,21.78-3.17c0.73-0.14,2.38-0.13,3.49,0.15" style="fill:none;stroke:#999;stroke-width:3" />
<path d="M1660.95,41.19c1.24,0.78,1.24,2.52,1.24,3.14c0,4.35,0.31,34.17,0.31,39.98" style="fill:none;stroke:#999;stroke-width:3" />
<path d="M1648.8899999999999,65.51c3.49,5.32,5.19,11.08,5.9,14.19" style="fill:none;stroke:#999;stroke-width:3" />
<path d="M1673.76,60.05c0.26,0.85,0.39,2.09,0.29,2.82c-0.26,1.85-2.27,5.23-5.13,10.66" style="fill:none;stroke:#999;stroke-width:3" />
<path d="M1646.0,89.32c1.32,0.9,2.89,0.67,4.73,0.22C1652.1,89.21 1662.5700000000002,84.38 1676.25,79" style="fill:none;stroke:#999;stroke-width:3" />
<path d="M1688.6799999999998,22.24c0.71,0.39,2.02,0.43,2.74,0.39c7.56-0.43,18.31-1.91,27.54-2.25c1.19-0.04,1.9,0.18,2.5,0.38" style="fill:none;stroke:#999;stroke-width:3" />
<path d="M1703.17,10.87c0.07,0.26,1.01,1.33,1.01,2.96c0,1.83,0.29,10.29,0.29,17.88" style="fill:none;stroke:#999;stroke-width:3" />
<path d="M1683.6,33.81c1.08,0.54,3.07,0.66,4.15,0.54c13.41-1.51,24.16-2.63,36.15-3.34c1.8-0.11,2.89,0.26,3.79,0.53" style="fill:none;stroke:#999;stroke-width:3" />
<path d="M1680.19,48.14c0.58,0.38,1.72,0.4,2.31,0.36c3.84-0.25,11.61-0.39,15.72-1c0.96-0.14,2.02-0.18,2.5,0.01" style="fill:none;stroke:#999;stroke-width:3" />
<path d="M1690.63,39.5c0.84,0.5,1.51,2.23,1.51,3.25c0,3,0.02,12.5,0.02,17" style="fill:none;stroke:#999;stroke-width:3" />
<path d="M1680.84,62.75c0.54,0.53,1.62,1.27,3.23,0.58c4.49-1.93,12.58-4.9,17.07-6.83" style="fill:none;stroke:#999;stroke-width:3" />
<path d="M1705.61,47.03c0.64,0.32,1.81,0.33,2.45,0.32c5.93-0.11,14.2-2.11,20-2.21c1.06-0.02,1.7,0.15,2.23,0.31" style="fill:none;stroke:#999;stroke-width:3" />
<path d="M1716.21,38.12c0.07,0.23,1.09,1.22,1.09,2.71c0,1.67-0.22,10.92-0.22,17.88" style="fill:none;stroke:black;stroke-width:3" />
<circle cx="1716.21" cy="38.12" r="5" stroke-width="0" fill="#FF2A00" opacity="0.7" />
<path d="M1771.75,14.24c0,0.79,0.05,1.42-0.15,2.37c-1.04,4.94-10.92,21.44-19.38,28.76" style="fill:none;stroke:#999;stroke-width:3" />
<path d="M1772.8899999999999,18.96c4.47,2.03,10.18,7.42,12.36,12.54" style="fill:none;stroke:#999;stroke-width:3" />
<path d="M1761.0,41.28c1.73,0,2.52,0.11,3.08,0.07c5.01-0.37,9.92-1.85,16.19-2.58c0.85-0.1,1.04-0.06,2.48-0.06" style="fill:none;stroke:#999;stroke-width:3" />
<path d="M1756.59,55.31c0.59,0.33,2.56,0.48,3.17,0.43c5.49-0.49,15.49-1.99,21.78-3.17c0.73-0.14,2.38-0.13,3.49,0.15" style="fill:none;stroke:#999;stroke-width:3" />
<path d="M1769.95,41.19c1.24,0.78,1.24,2.52,1.24,3.14c0,4.35,0.31,34.17,0.31,39.98" style="fill:none;stroke:#999;stroke-width:3" />
<path d="M1757.8899999999999,65.51c3.49,5.32,5.19,11.08,5.9,14.19" style="fill:none;stroke:#999;stroke-width:3" />
<path d="M1782.76,60.05c0.26,0.85,0.39,2.09,0.29,2.82c-0.26,1.85-2.27,5.23-5.13,10.66" style="fill:none;stroke:#999;stroke-width:3" />
<path d="M1755.0,89.32c1.32,0.9,2.89,0.67,4.73,0.22C1761.1,89.21 1771.5700000000002,84.38 1785.25,79" style="fill:none;stroke:#999;stroke-width:3" />
<path d="M1797.6799999999998,22.24c0.71,0.39,2.02,0.43,2.74,0.39c7.56-0.43,18.31-1.91,27.54-2.25c1.19-0.04,1.9,0.18,2.5,0.38" style="fill:none;stroke:#999;stroke-width:3" />
<path d="M1812.17,10.87c0.07,0.26,1.01,1.33,1.01,2.96c0,1.83,0.29,10.29,0.29,17.88" style="fill:none;stroke:#999;stroke-width:3" />
<path d="M1792.6,33.81c1.08,0.54,3.07,0.66,4.15,0.54c13.41-1.51,24.16-2.63,36.15-3.34c1.8-0.11,2.89,0.26,3.79,0.53" style="fill:none;stroke:#999;stroke-width:3" />
<path d="M1789.19,48.14c0.58,0.38,1.72,0.4,2.31,0.36c3.84-0.25,11.61-0.39,15.72-1c0.96-0.14,2.02-0.18,2.5,0.01" style="fill:none;stroke:#999;stroke-width:3" />
<path d="M1799.63,39.5c0.84,0.5,1.51,2.23,1.51,3.25c0,3,0.02,12.5,0.02,17" style="fill:none;stroke:#999;stroke-width:3" />
<path d="M1789.84,62.75c0.54,0.53,1.62,1.27,3.23,0.58c4.49-1.93,12.58-4.9,17.07-6.83" style="fill:none;stroke:#999;stroke-width:3" />
<path d="M1814.61,47.03c0.64,0.32,1.81,0.33,2.45,0.32c5.93-0.11,14.2-2.11,20-2.21c1.06-0.02,1.7,0.15,2.23,0.31" style="fill:none;stroke:#999;stroke-width:3" />
<path d="M1825.21,38.12c0.07,0.23,1.09,1.22,1.09,2.71c0,1.67-0.22,10.92-0.22,17.88" style="fill:none;stroke:#999;stroke-width:3" />
<path d="M1812.77,60.73c0.74,0.3,2.48,0.37,3.22,0.3c6.61-0.54,16.53-1.54,23.16-1.95c1.23-0.08,1.98,0.15,2.59,0.3" style="fill:none;stroke:black;stroke-width:3" />
<circle cx="1812.77" cy="60.73" r="5" stroke-width="0" fill="#FF2A00" opacity="0.7" />
<path d="M1880.75,14.24c0,0.79,0.05,1.42-0.15,2.37c-1.04,4.94-10.92,21.44-19.38,28.76" style="fill:none;stroke:#999;stroke-width:3" />
<path d="M1881.8899999999999,18.96c4.47,2.03,10.18,7.42,12.36,12.54" style="fill:none;stroke:#999;stroke-width:3" />
<path d="M1870.0,41.28c1.73,0,2.52,0.11,3.08,0.07c5.01-0.37,9.92-1.85,16.19-2.58c0.85-0.1,1.04-0.06,2.48-0.06" style="fill:none;stroke:#999;stroke-width:3" />
<path d="M1865.59,55.31c0.59,0.33,2.56,0.48,3.17,0.43c5.49-0.49,15.49-1.99,21.78-3.17c0.73-0.14,2.38-0.13,3.49,0.15" style="fill:none;stroke:#999;stroke-width:3" />
<path d="M1878.95,41.19c1.24,0.78,1.24,2.52,1.24,3.14c0,4.35,0.31,34.17,0.31,39.98" style="fill:none;stroke:#999;stroke-width:3" />
<path d="M1866.8899999999999,65.51c3.49,5.32,5.19,11.08,5.9,14.19" style="fill:none;stroke:#999;stroke-width:3" />
<path d="M1891.76,60.05c0.26,0.85,0.39,2.09,0.29,2.82c-0.26,1.85-2.27,5.23-5.13,10.66" style="fill:none;stroke:#999;stroke-width:3" />
<path d="M1864.0,89.32c1.32,0.9,2.89,0.67,4.73,0.22C1870.1,89.21 1880.5700000000002,84.38 1894.25,79" style="fill:none;stroke:#999;stroke-width:3" />
<path d="M1906.6799999999998,22.24c0.71,0.39,2.02,0.43,2.74,0.39c7.56-0.43,18.31-1.91,27.54-2.25c1.19-0.04,1.9,0.18,2.5,0.38" style="fill:none;stroke:#999;stroke-width:3" />
<path d="M1921.17,10.87c0.07,0.26,1.01,1.33,1.01,2.96c0,1.83,0.29,10.29,0.29,17.88" style="fill:none;stroke:#999;stroke-width:3" />
<path d="M1901.6,33.81c1.08,0.54,3.07,0.66,4.15,0.54c13.41-1.51,24.16-2.63,36.15-3.34c1.8-0.11,2.89,0.26,3.79,0.53" style="fill:none;stroke:#999;stroke-width:3" />
<path d="M1898.19,48.14c0.58,0.38,1.72,0.4,2.31,0.36c3.84-0.25,11.61-0.39,15.72-1c0.96-0.14,2.02-0.18,2.5,0.01" style="fill:none;stroke:#999;stroke-width:3" />
<path d="M1908.63,39.5c0.84,0.5,1.51,2.23,1.51,3.25c0,3,0.02,12.5,0.02,17" style="fill:none;stroke:#999;stroke-width:3" />
<path d="M1898.84,62.75c0.54,0.53,1.62,1.27,3.23,0.58c4.49-1.93,12.58-4.9,17.07-6.83" style="fill:none;stroke:#999;stroke-width:3" />
<path d="M1923.61,47.03c0.64,0.32,1.81,0.33,2.45,0.32c5.93-0.11,14.2-2.11,20-2.21c1.06-0.02,1.7,0.15,2.23,0.31" style="fill:none;stroke:#999;stroke-width:3" />
<path d="M1934.21,38.12c0.07,0.23,1.09,1.22,1.09,2.71c0,1.67-0.22,10.92-0.22,17.88" style="fill:none;stroke:#999;stroke-width:3" />
<path d="M1921.77,60.73c0.74,0.3,2.48,0.37,3.22,0.3c6.61-0.54,16.53-1.54,23.16-1.95c1.23-0.08,1.98,0.15,2.59,0.3" style="fill:none;stroke:#999;stroke-width:3" />
<path d="M1898.77,72.4c1.21,0.37,3.42,0.41,4.62,0.37c8.4-0.27,30.45-3.76,41.92-3.76c2.01,0,3.22,0.18,4.22,0.36" style="fill:none;stroke:black;stroke-width:3" />
<circle cx="1898.77" cy="72.4" r="5" stroke-width="0" fill="#FF2A00" opacity="0.7" />
<path d="M1989.75,14.24c0,0.79,0.05,1.42-0.15,2.37c-1.04,4.94-10.92,21.44-19.38,28.76" style="fill:none;stroke:#999;stroke-width:3" />
<path d="M1990.8899999999999,18.96c4.47,2.03,10.18,7.42,12.36,12.54" style="fill:none;stroke:#999;stroke-width:3" />
<path d="M1979.0,41.28c1.73,0,2.52,0.11,3.08,0.07c5.01-0.37,9.92-1.85,16.19-2.58c0.85-0.1,1.04-0.06,2.48-0.06" style="fill:none;stroke:#999;stroke-width:3" />
<path d="M1974.59,55.31c0.59,0.33,2.56,0.48,3.17,0.43c5.49-0.49,15.49-1.99,21.78-3.17c0.73-0.14,2.38-0.13,3.49,0.15" style="fill:none;stroke:#999;stroke-width:3" />
<path d="M1987.95,41.19c1.24,0.78,1.24,2.52,1.24,3.14c0,4.35,0.31,34.17,0.31,39.98" style="fill:none;stroke:#999;stroke-width:3" />
<path d="M1975.8899999999999,65.51c3.49,5.32,5.19,11.08,5.9,14.19" style="fill:none;stroke:#999;stroke-width:3" />
<path d="M2000.76,60.05c0.26,0.85,0.39,2.09,0.29,2.82c-0.26,1.85-2.27,5.23-5.13,10.66" style="fill:none;stroke:#999;stroke-width:3" />
<path d="M1973.0,89.32c1.32,0.9,2.89,0.67,4.73,0.22C1979.1,89.21 1989.5700000000002,84.38 2003.25,79" style="fill:none;stroke:#999;stroke-width:3" />
<path d="M2015.6799999999998,22.24c0.71,0.39,2.02,0.43,2.74,0.39c7.56-0.43,18.31-1.91,27.54-2.25c1.19-0.04,1.9,0.18,2.5,0.38" style="fill:none;stroke:#999;stroke-width:3" />
<path d="M2030.17,10.87c0.07,0.26,1.01,1.33,1.01,2.96c0,1.83,0.29,10.29,0.29,17.88" style="fill:none;stroke:#999;stroke-width:3" />
<path d="M2010.6,33.81c1.08,0.54,3.07,0.66,4.15,0.54c13.41-1.51,24.16-2.63,36.15-3.34c1.8-0.11,2.89,0.26,3.79,0.53" style="fill:none;stroke:#999;stroke-width:3" />
<path d="M2007.19,48.14c0.58,0.38,1.72,0.4,2.31,0.36c3.84-0.25,11.61-0.39,15.72-1c0.96-0.14,2.02-0.18,2.5,0.01" style="fill:none;stroke:#999;stroke-width:3" />
<path d="M2017.63,39.5c0.84,0.5,1.51,2.23,1.51,3.25c0,3,0.02,12.5,0.02,17" style="fill:none;stroke:#999;stroke-width:3" />
<path d="M2007.84,62.75c0.54,0.53,1.62,1.27,3.23,0.58c4.49-1.93,12.58-4.9,17.07-6.83" style="fill:none;stroke:#999;stroke-width:3" />
<path d="M2032.61,47.03c0.64,0.32,1.81,0.33,2.45,0.32c5.93-0.11,14.2-2.11,20-2.21c1.06-0.02,1.7,0.15,2.23,0.31" style="fill:none;stroke:#999;stroke-width:3" />
<path d="M2043.21,38.12c0.07,0.23,1.09,1.22,1.09,2.71c0,1.67-0.22,10.92-0.22,17.88" style="fill:none;stroke:#999;stroke-width:3" />
<path d="M2030.77,60.73c0.74,0.3,2.48,0.37,3.22,0.3c6.61-0.54,16.53-1.54,23.16-1.95c1.23-0.08,1.98,0.15,2.59,0.3" style="fill:none;stroke:#999;stroke-width:3" />
<path d="M2007.77,72.4c1.21,0.37,3.42,0.41,4.62,0.37c8.4-0.27,30.45-3.76,41.92-3.76c2.01,0,3.22,0.18,4.22,0.36" style="fill:none;stroke:#999;stroke-width:3" />
<path d="M2021.8,75c0.05,0.55,0.1,1.42-0.1,2.22c-1.38,5.46-7.94,15.03-18.53,21.2" style="fill:none;stroke:black;stroke-width:3" />
<circle cx="2021.8" cy="75.0" r="5" stroke-width="0" fill="#FF2A00" opacity="0.7" />
<path d="M2098.75,14.24c0,0.79,0.05,1.42-0.15,2.37c-1.04,4.94-10.92,21.44-19.38,28.76" style="fill:none;stroke:#999;stroke-width:3" />
<path d="M2099.89,18.96c4.47,2.03,10.18,7.42,12.36,12.54" style="fill:none;stroke:#999;stroke-width:3" />
<path d="M2088.0,41.28c1.73,0,2.52,0.11,3.08,0.07c5.01-0.37,9.92-1.85,16.19-2.58c0.85-0.1,1.04-0.06,2.48-0.06" style="fill:none;stroke:#999;stroke-width:3" />
<path d="M2083.59,55.31c0.59,0.33,2.56,0.48,3.17,0.43c5.49-0.49,15.49-1.99,21.78-3.17c0.73-0.14,2.38-0.13,3.49,0.15" style="fill:none;stroke:#999;stroke-width:3" />
<path d="M2096.95,41.19c1.24,0.78,1.24,2.52,1.24,3.14c0,4.35,0.31,34.17,0.31,39.98" style="fill:none;stroke:#999;stroke-width:3" />
<path d="M2084.89,65.51c3.49,5.32,5.19,11.08,5.9,14.19" style="fill:none;stroke:#999;stroke-width:3" />
<path d="M2109.76,60.05c0.26,0.85,0.39,2.09,0.29,2.82c-0.26,1.85-2.27,5.23-5.13,10.66" style="fill:none;stroke:#999;stroke-width:3" />
<path d="M2082.0,89.32c1.32,0.9,2.89,0.67,4.73,0.22C2088.1,89.21 2098.57,84.38 2112.25,79" style="fill:none;stroke:#999;stroke-width:3" />
<path d="M2124.68,22.24c0.71,0.39,2.02,0.43,2.74,0.39c7.56-0.43,18.31-1.91,27.54-2.25c1.19-0.04,1.9,0.18,2.5,0.38" style="fill:none;stroke:#999;stroke-width:3" />
<path d="M2139.17,10.87c0.07,0.26,1.01,1.33,1.01,2.96c0,1.83,0.29,10.29,0.29,17.88" style="fill:none;stroke:#999;stroke-width:3" />
<path d="M2119.6,33.81c1.08,0.54,3.07,0.66,4.15,0.54c13.41-1.51,24.16-2.63,36.15-3.34c1.8-0.11,2.89,0.26,3.79,0.53" style="fill:none;stroke:#999;stroke-width:3" />
<path d="M2116.19,48.14c0.58,0.38,1.72,0.4,2.31,0.36c3.84-0.25,11.61-0.39,15.72-1c0.96-0.14,2.02-0.18,2.5,0.01" style="fill:none;stroke:#999;stroke-width:3" />
<path d="M2126.63,39.5c0.84,0.5,1.51,2.23,1.51,3.25c0,3,0.02,12.5,0.02,17" style="fill:none;stroke:#999;stroke-width:3" />
<path d="M2116.84,62.75c0.54,0.53,1.62,1.27,3.23,0.58c4.49-1.93,12.58-4.9,17.07-6.83" style="fill:none;stroke:#999;stroke-width:3" />
<path d="M2141.6099999999997,47.03c0.64,0.32,1.81,0.33,2.45,0.32c5.93-0.11,14.2-2.11,20-2.21c1.06-0.02,1.7,0.15,2.23,0.31" style="fill:none;stroke:#999;stroke-width:3" />
<path d="M2152.21,38.12c0.07,0.23,1.09,1.22,1.09,2.71c0,1.67-0.22,10.92-0.22,17.88" style="fill:none;stroke:#999;stroke-width:3" />
<path d="M2139.77,60.73c0.74,0.3,2.48,0.37,3.22,0.3c6.61-0.54,16.53-1.54,23.16-1.95c1.23-0.08,1.98,0.15,2.59,0.3" style="fill:none;stroke:#999;stroke-width:3" />
<path d="M2116.77,72.4c1.21,0.37,3.42,0.41,4.62,0.37c8.4-0.27,30.45-3.76,41.92-3.76c2.01,0,3.22,0.18,4.22,0.36" style="fill:none;stroke:#999;stroke-width:3" />
<path d="M2130.8,75c0.05,0.55,0.1,1.42-0.1,2.22c-1.38,5.46-7.94,15.03-18.53,21.2" style="fill:none;stroke:#999;stroke-width:3" />
<path d="M2144.09,73.41c0.55,1.14,1.02,2.49,1.02,4.25c0,2.36-0.02,3.4-0.02,8.75c0,9.37,2.53,11.08,12.32,11.08c9.79,0,11.37-2.19,11.37-9.73" style="fill:none;stroke:black;stroke-width:3" />
<circle cx="2144.09" cy="73.41" r="5" stroke-width="0" fill="#FF2A00" opacity="0.7" />
</svg>