<!-- 09583 -->
<svg width="1090px" height="109px" viewBox="0 0 1090px 109px" xmlns="http://www.w3.org/2000/svg" xmlns:xlink="http://www.w3.org/1999/xlink" xml:space="preserve" version="1.1"  baseProfile="full">
<line x1="1" y1="1" x2="1089" y2="1" style="stroke:#ddd;stroke-width:2" />
<line x1="1" y1="1" x2="1" y2="108" style="stroke:#ddd;stroke-width:2" />
<line x1="1" y1="108" x2="1089" y2="108" style="stroke:#ddd;stroke-width:2" />
<line x1="1089" y1="1" x2="1089" y2="108" style="stroke:#ddd;stroke-width:2" />
<line x1="109" y1="1" x2="109" y2="108" style="stroke:#ddd;stroke-width:2" />
<line x1="218" y1="1" x2="218" y2="108" style="stroke:#ddd;stroke-width:2" />
<line x1="327" y1="1" x2="327" y2="108" style="stroke:#ddd;stroke-width:2" />
<line x1="436" y1="1" x2="436" y2="108" style="stroke:#ddd;stroke-width:2" />
<line x1="545" y1="1" x2="545" y2="108" style="stroke:#ddd;stroke-width:2" />
<line x1="654" y1="1" x2="654" y2="108" style="stroke:#ddd;stroke-width:2" />
<line x1="763" y1="1" x2="763" y2="108" style="stroke:#ddd;stroke-width:2" />
<line x1="872" y1="1" x2="872" y2="108" style="stroke:#ddd;stroke-width:2" />
<line x1="981" y1="1" x2="981" y2="108" style="stroke:#ddd;stroke-width:2" />
<line x1="1" y1="54" x2="1089" y2="54" style="stroke:#ddd;stroke-width:2;stroke-dasharray:3 3" />
<line x1="55" y1="1" x2="55" y2="108" style="stroke:#ddd;stroke-width:2;stroke-dasharray:3 3" />
<line x1="164" y1="1" x2="164" y2="108" style="stroke:#ddd;stroke-width:2;stroke-dasharray:3 3" />
<line x1="273" y1="1" x2="273" y2="108" style="stroke:#ddd;stroke-width:2;stroke-dasharray:3 3" />
<line x1="382" y1="1" x2="382" y2="108" style="stroke:#ddd;stroke-width:2;stroke-dasharray:3 3" />
<line x1="491" y1="1" x2="491" y2="108" style="stroke:#ddd;stroke-width:2;stroke-dasharray:3 3" />
<line x1="600" y1="1" x2="600" y2="108" style="stroke:#ddd;stroke-width:2;stroke-dasharray:3 3" />
<line x1="709" y1="1" x2="709" y2="108" style="stroke:#ddd;stroke-width:2;stroke-dasharray:3 3" />
<line x1="818" y1="1" x2="818" y2="108" style="stroke:#ddd;stroke-width:2;stroke-dasharray:3 3" />
<line x1="927" y1="1" x2="927" y2="108" style="stroke:#ddd;stroke-width:2;stroke-dasharray:3 3" />
<line x1="1036" y1="1" x2="1036" y2="108" style="stroke:#ddd;stroke-width:2;stroke-dasharray:3 3" />
<path d="M17.14,17.29c0.91,0.91,1.18,2.2,1.18,3.4c0,0.74,0,41.95,0.01,62.31c0,5.38,0,9.3,0,10.63" style="fill:none;stroke:black;stroke-width:3" />
<circle cx="17.14" cy="17.29" r="5" stroke-width="0" fill="#FF2A00" opacity="0.7" />
<path d="M126.14,17.29c0.91,0.91,1.18,2.2,1.18,3.4c0,0.74,0,41.95,0.01,62.31c0,5.38,0,9.3,0,10.63" style="fill:none;stroke:#999;stroke-width:3" />
<path d="M128.27,18.49c3.7-0.56,16.02-2.21,20.1-2.61c3.12-0.31,4.14,1.12,3.93,3.88c-0.31,4.13-0.74,9.95-1.03,14.49c-0.15,2.22-0.26,4.13-0.32,5.39" style="fill:none;stroke:black;stroke-width:3" />
<circle cx="128.27" cy="18.49" r="5" stroke-width="0" fill="#FF2A00" opacity="0.7" />
<path d="M235.14,17.29c0.91,0.91,1.18,2.2,1.18,3.4c0,0.74,0,41.95,0.01,62.31c0,5.38,0,9.3,0,10.63" style="fill:none;stroke:#999;stroke-width:3" />
<path d="M237.27,18.49c3.7-0.56,16.02-2.21,20.1-2.61c3.12-0.31,4.14,1.12,3.93,3.88c-0.31,4.13-0.74,9.95-1.03,14.49c-0.15,2.22-0.26,4.13-0.32,5.39" style="fill:none;stroke:#999;stroke-width:3" />
<path d="M237.47,29.38c6.23-0.57,15.15-1.63,22.3-2.15" style="fill:none;stroke:black;stroke-width:3" />
<circle cx="237.47" cy="29.38" r="5" stroke-width="0" fill="#FF2A00" opacity="0.7" />
<path d="M344.14,17.29c0.91,0.91,1.18,2.2,1.18,3.4c0,0.74,0,41.95,0.01,62.31c0,5.38,0,9.3,0,10.63" style="fill:none;stroke:#999;stroke-width:3" />
<path d="M346.27,18.49c3.7-0.56,16.02-2.21,20.1-2.61c3.12-0.31,4.14,1.12,3.93,3.88c-0.31,4.13-0.74,9.95-1.03,14.49c-0.15,2.22-0.26,4.13-0.32,5.39" style="fill:none;stroke:#999;stroke-width:3" />
<path d="M346.47,29.38c6.23-0.57,15.15-1.63,22.3-2.15" style="fill:none;stroke:#999;stroke-width:3" />
<path d="M346.52,39.98c8.44-1.11,13.98-1.45,21.45-1.96" style="fill:none;stroke:black;stroke-width:3" />
<circle cx="346.52" cy="39.98" r="5" stroke-width="0" fill="#FF2A00" opacity="0.7" />
<path d="M453.14,17.29c0.91,0.91,1.18,2.2,1.18,3.4c0,0.74,0,41.95,0.01,62.31c0,5.38,0,9.3,0,10.63" style="fill:none;stroke:#999;stroke-width:3" />
<path d="M455.27,18.49c3.7-0.56,16.02-2.21,20.1-2.61c3.12-0.31,4.14,1.12,3.93,3.88c-0.31,4.13-0.74,9.95-1.03,14.49c-0.15,2.22-0.26,4.13-0.32,5.39" style="fill:none;stroke:#999;stroke-width:3" />
<path d="M455.47,29.38c6.23-0.57,15.15-1.63,22.3-2.15" style="fill:none;stroke:#999;stroke-width:3" />
<path d="M455.52,39.98c8.44-1.11,13.98-1.45,21.45-1.96" style="fill:none;stroke:#999;stroke-width:3" />
<path d="M501.69,14.01c0.78,0.77,0.88,1.49,0.88,2.48c0,0.5-0.02,10.36-0.03,16.76c-0.01,3.04-0.01,5.3-0.01,5.42" style="fill:none;stroke:black;stroke-width:3" />
<circle cx="501.69" cy="14.01" r="5" stroke-width="0" fill="#FF2A00" opacity="0.7" />
<path d="M562.14,17.29c0.91,0.91,1.18,2.2,1.18,3.4c0,0.74,0,41.95,0.01,62.31c0,5.38,0,9.3,0,10.63" style="fill:none;stroke:#999;stroke-width:3" />
<path d="M564.27,18.49c3.7-0.56,16.02-2.21,20.1-2.61c3.12-0.31,4.14,1.12,3.93,3.88c-0.31,4.13-0.74,9.95-1.03,14.49c-0.15,2.22-0.26,4.13-0.32,5.39" style="fill:none;stroke:#999;stroke-width:3" />
<path d="M564.47,29.38c6.23-0.57,15.15-1.63,22.3-2.15" style="fill:none;stroke:#999;stroke-width:3" />
<path d="M564.52,39.98c8.44-1.11,13.98-1.45,21.45-1.96" style="fill:none;stroke:#999;stroke-width:3" />
<path d="M610.69,14.01c0.78,0.77,0.88,1.49,0.88,2.48c0,0.5-0.02,10.36-0.03,16.76c-0.01,3.04-0.01,5.3-0.01,5.42" style="fill:none;stroke:#999;stroke-width:3" />
<path d="M612.3,15.41c2.13-0.09,14.87-2.07,19.92-2.72c3.37-0.43,4.72,0.76,4.72,4.06c0,20.13-0.17,60.65-0.19,74.19c-0.01,9.06-8.7,0.66-10.15-0.64" style="fill:none;stroke:black;stroke-width:3" />
<circle cx="612.3" cy="15.41" r="5" stroke-width="0" fill="#FF2A00" opacity="0.7" />
<path d="M671.14,17.29c0.91,0.91,1.18,2.2,1.18,3.4c0,0.74,0,41.95,0.01,62.31c0,5.38,0,9.3,0,10.63" style="fill:none;stroke:#999;stroke-width:3" />
<path d="M673.27,18.49c3.7-0.56,16.02-2.21,20.1-2.61c3.12-0.31,4.14,1.12,3.93,3.88c-0.31,4.13-0.74,9.95-1.03,14.49c-0.15,2.22-0.26,4.13-0.32,5.39" style="fill:none;stroke:#999;stroke-width:3" />
<path d="M673.47,29.38c6.23-0.57,15.15-1.63,22.3-2.15" style="fill:none;stroke:#999;stroke-width:3" />
<path d="M673.52,39.98c8.44-1.11,13.98-1.45,21.45-1.96" style="fill:none;stroke:#999;stroke-width:3" />
<path d="M719.69,14.01c0.78,0.77,0.88,1.49,0.88,2.48c0,0.5-0.02,10.36-0.03,16.76c-0.01,3.04-0.01,5.3-0.01,5.42" style="fill:none;stroke:#999;stroke-width:3" />
<path d="M721.3,15.41c2.13-0.09,14.87-2.07,19.92-2.72c3.37-0.43,4.72,0.76,4.72,4.06c0,20.13-0.17,60.65-0.19,74.19c-0.01,9.06-8.7,0.66-10.15-0.64" style="fill:none;stroke:#999;stroke-width:3" />
<path d="M721.49,24.72c4.01-0.34,19.34-1.74,23.15-1.74" style="fill:none;stroke:black;stroke-width:3" />
<circle cx="721.49" cy="24.72" r="5" stroke-width="0" fill="#FF2A00" opacity="0.7" />
<path d="M780.14,17.29c0.91,0.91,1.18,2.2,1.18,3.4c0,0.74,0,41.95,0.01,62.31c0,5.38,0,9.3,0,10.63" style="fill:none;stroke:#999;stroke-width:3" />
<path d="M782.27,18.49c3.7-0.56,16.02-2.21,20.1-2.61c3.12-0.31,4.14,1.12,3.93,3.88c-0.31,4.13-0.74,9.95-1.03,14.49c-0.15,2.22-0.26,4.13-0.32,5.39" style="fill:none;stroke:#999;stroke-width:3" />
<path d="M782.47,29.38c6.23-0.57,15.15-1.63,22.3-2.15" style="fill:none;stroke:#999;stroke-width:3" />
<path d="M782.52,39.98c8.44-1.11,13.98-1.45,21.45-1.96" style="fill:none;stroke:#999;stroke-width:3" />
<path d="M828.69,14.01c0.78,0.77,0.88,1.49,0.88,2.48c0,0.5-0.02,10.36-0.03,16.76c-0.01,3.04-0.01,5.3-0.01,5.42" style="fill:none;stroke:#999;stroke-width:3" />
<path d="M830.3,15.41c2.13-0.09,14.87-2.07,19.92-2.72c3.37-0.43,4.72,0.76,4.72,4.06c0,20.13-0.17,60.65-0.19,74.19c-0.01,9.06-8.7,0.66-10.15-0.64" style="fill:none;stroke:#999;stroke-width:3" />
<path d="M830.49,24.72c4.01-0.34,19.34-1.74,23.15-1.74" style="fill:none;stroke:#999;stroke-width:3" />
<path d="M830.8,35.26c5.7-0.26,16.34-1.31,22.8-1.31" style="fill:none;stroke:black;stroke-width:3" />
<circle cx="830.8" cy="35.26" r="5" stroke-width="0" fill="#FF2A00" opacity="0.7" />
<path d="M889.14,17.29c0.91,0.91,1.18,2.2,1.18,3.4c0,0.74,0,41.95,0.01,62.31c0,5.38,0,9.3,0,10.63" style="fill:none;stroke:#999;stroke-width:3" />
<path d="M891.27,18.49c3.7-0.56,16.02-2.21,20.1-2.61c3.12-0.31,4.14,1.12,3.93,3.88c-0.31,4.13-0.74,9.95-1.03,14.49c-0.15,2.22-0.26,4.13-0.32,5.39" style="fill:none;stroke:#999;stroke-width:3" />
<path d="M891.47,29.38c6.23-0.57,15.15-1.63,22.3-2.15" style="fill:none;stroke:#999;stroke-width:3" />
<path d="M891.52,39.98c8.44-1.11,13.98-1.45,21.45-1.96" style="fill:none;stroke:#999;stroke-width:3" />
<path d="M937.69,14.01c0.78,0.77,0.88,1.49,0.88,2.48c0,0.5-0.02,10.36-0.03,16.76c-0.01,3.04-0.01,5.3-0.01,5.42" style="fill:none;stroke:#999;stroke-width:3" />
<path d="M939.3,15.41c2.13-0.09,14.87-2.07,19.92-2.72c3.37-0.43,4.72,0.76,4.72,4.06c0,20.13-0.17,60.65-0.19,74.19c-0.01,9.06-8.7,0.66-10.15-0.64" style="fill:none;stroke:#999;stroke-width:3" />
<path d="M939.49,24.72c4.01-0.34,19.34-1.74,23.15-1.74" style="fill:none;stroke:#999;stroke-width:3" />
<path d="M939.8,35.26c5.7-0.26,16.34-1.31,22.8-1.31" style="fill:none;stroke:#999;stroke-width:3" />
<path d="M927.3,42c0,1.38-0.23,2.58-0.64,3.96C923.88,55.5 916.5,72.5 902.72,83.38" style="fill:none;stroke:black;stroke-width:3" />
<circle cx="927.3" cy="42.0" r="5" stroke-width="0" fill="#FF2A00" opacity="0.7" />
<path d="M998.14,17.29c0.91,0.91,1.18,2.2,1.18,3.4c0,0.74,0,41.95,0.01,62.31c0,5.38,0,9.3,0,10.63" style="fill:none;stroke:#999;stroke-width:3" />
<path d="M1000.27,18.49c3.7-0.56,16.02-2.21,20.1-2.61c3.12-0.31,4.14,1.12,3.93,3.88c-0.31,4.13-0.74,9.95-1.03,14.49c-0.15,2.22-0.26,4.13-0.32,5.39" style="fill:none;stroke:#999;stroke-width:3" />
<path d="M1000.47,29.38c6.23-0.57,15.15-1.63,22.3-2.15" style="fill:none;stroke:#999;stroke-width:3" />
<path d="M1000.52,39.98c8.44-1.11,13.98-1.45,21.45-1.96" style="fill:none;stroke:#999;stroke-width:3" />
<path d="M1046.69,14.01c0.78,0.77,0.88,1.49,0.88,2.48c0,0.5-0.02,10.36-0.03,16.76c-0.01,3.04-0.01,5.3-0.01,5.42" style="fill:none;stroke:#999;stroke-width:3" />
<path d="M1048.3,15.41c2.13-0.09,14.87-2.07,19.92-2.72c3.37-0.43,4.72,0.76,4.72,4.06c0,20.13-0.17,60.65-0.19,74.19c-0.01,9.06-8.7,0.66-10.15-0.64" style="fill:none;stroke:#999;stroke-width:3" />
<path d="M1048.49,24.72c4.01-0.34,19.34-1.74,23.15-1.74" style="fill:none;stroke:#999;stroke-width:3" />
<path d="M1048.8,35.26c5.7-0.26,16.34-1.31,22.8-1.31" style="fill:none;stroke:#999;stroke-width:3" />
<path d="M1036.3,42c0,1.38-0.23,2.58-0.64,3.96C1032.88,55.5 1025.5,72.5 1011.72,83.38" style="fill:none;stroke:#999;stroke-width:3" />
<path d="M1034.25,55.5c3.26,3.8,13.25,14.25,19.81,19.82c2.6,2.21,5.32,4.43,8.23,5.68" style="fill:none;stroke:black;stroke-width:3" />
<circle cx="1034.25" cy="55.5" r="5" stroke-width="0" fill="#FF2A00" opacity="0.7" />
</svg>