<!-- 0965d -->
<svg width="1090px" height="109px" viewBox="0 0 1090px 109px" xmlns="http://www.w3.org/2000/svg" xmlns:xlink="http://www.w3.org/1999/xlink" xml:space="preserve" version="1.1"  baseProfile="full">
<line x1="1" y1="1" x2="1089" y2="1" style="stroke:#ddd;stroke-width:2" />
<line x1="1" y1="1" x2="1" y2="108" style="stroke:#ddd;stroke-width:2" />
<line x1="1" y1="108" x2="1089" y2="108" style="stroke:#ddd;stroke-width:2" />
<line x1="1089" y1="1" x2="1089" y2="108" style="stroke:#ddd;stroke-width:2" />
<line x1="109" y1="1" x2="109" y2="108" style="stroke:#ddd;stroke-width:2" />
<line x1="218" y1="1" x2="218" y2="108" style="stroke:#ddd;stroke-width:2" />
<line x1="327" y1="1" x2="327" y2="108" style="stroke:#ddd;stroke-width:2" />
<line x1="436" y1="1" x2="436" y2="108" style="stroke:#ddd;stroke-width:2" />
<line x1="545" y1="1" x2="545" y2="108" style="stroke:#ddd;stroke-width:2" />
<line x1="654" y1="1" x2="654" y2="108" style="stroke:#ddd;stroke-width:2" />
<line x1="763" y1="1" x2="763" y2="108" style="stroke:#ddd;stroke-width:2" />
<line x1="872" y1="1" x2="872" y2="108" style="stroke:#ddd;stroke-width:2" />
<line x1="981" y1="1" x2="981" y2="108" style="stroke:#ddd;stroke-width:2" />
<line x1="1" y1="54" x2="1089" y2="54" style="stroke:#ddd;stroke-width:2;stroke-dasharray:3 3" />
<line x1="55" y1="1" x2="55" y2="108" style="stroke:#ddd;stroke-width:2;stroke-dasharray:3 3" />
<line x1="164" y1="1" x2="164" y2="108" style="stroke:#ddd;stroke-width:2;stroke-dasharray:3 3" />
<line x1="273" y1="1" x2="273" y2="108" style="stroke:#ddd;stroke-width:2;stroke-dasharray:3 3" />
<line x1="382" y1="1" x2="382" y2="108" style="stroke:#ddd;stroke-width:2;stroke-dasharray:3 3" />
<line x1="491" y1="1" x2="491" y2="108" style="stroke:#ddd;stroke-width:2;stroke-dasharray:3 3" />
<line x1="600" y1="1" x2="600" y2="108" style="stroke:#ddd;stroke-width:2;stroke-dasharray:3 3" />
<line x1="709" y1="1" x2="709" y2="108" style="stroke:#ddd;stroke-width:2;stroke-dasharray:3 3" />
<line x1="818" y1="1" x2="818" y2="108" style="stroke:#ddd;stroke-width:2;stroke-dasharray:3 3" />
<line x1="927" y1="1" x2="927" y2="108" style="stroke:#ddd;stroke-width:2;stroke-dasharray:3 3" />
<line x1="1036" y1="1" x2="1036" y2="108" style="stroke:#ddd;stroke-width:2;stroke-dasharray:3 3" />
<path d="M14.75,17c0.71,0.61,1.65,1.03,2.74,1.08C21.0,18.25 28.75,17 32.64,16.21c3.2-0.65,5.12,1.15,3.76,3.83c-1.36,2.68-7.63,15.71-10.01,19.55" style="fill:none;stroke:black;stroke-width:3" />
<circle cx="14.75" cy="17.0" r="5" stroke-width="0" fill="#FF2A00" opacity="0.7" />
<path d="M123.75,17c0.71,0.61,1.65,1.03,2.74,1.08C130.0,18.25 137.75,17 141.64,16.21c3.2-0.65,5.12,1.15,3.76,3.83c-1.36,2.68-7.63,15.71-10.01,19.55" style="fill:none;stroke:#999;stroke-width:3" />
<path d="M135.38,39.59C149.25,52.5 145.0,80 136.57999999999998,71.93" style="fill:none;stroke:black;stroke-width:3" />
<circle cx="135.38" cy="39.59" r="5" stroke-width="0" fill="#FF2A00" opacity="0.7" />
<path d="M232.75,17c0.71,0.61,1.65,1.03,2.74,1.08C239.0,18.25 246.75,17 250.64,16.21c3.2-0.65,5.12,1.15,3.76,3.83c-1.36,2.68-7.63,15.71-10.01,19.55" style="fill:none;stroke:#999;stroke-width:3" />
<path d="M244.38,39.59C258.25,52.5 254.0,80 245.57999999999998,71.93" style="fill:none;stroke:#999;stroke-width:3" />
<path d="M234.54,18.53c0,1.72-0.22,2.59,0,3.74c0.22,1.15,0,68.3-0.22,75.49" style="fill:none;stroke:black;stroke-width:3" />
<circle cx="234.54" cy="18.53" r="5" stroke-width="0" fill="#FF2A00" opacity="0.7" />
<path d="M341.75,17c0.71,0.61,1.65,1.03,2.74,1.08C348.0,18.25 355.75,17 359.64,16.21c3.2-0.65,5.12,1.15,3.76,3.83c-1.36,2.68-7.63,15.71-10.01,19.55" style="fill:none;stroke:#999;stroke-width:3" />
<path d="M353.38,39.59C367.25,52.5 363.0,80 354.58,71.93" style="fill:none;stroke:#999;stroke-width:3" />
<path d="M343.53999999999996,18.53c0,1.72-0.22,2.59,0,3.74c0.22,1.15,0,68.3-0.22,75.49" style="fill:none;stroke:#999;stroke-width:3" />
<path d="M366.38,30.13c0.95,0.36,3.49,0.77,5.51,0.62c13.67-1.06,31.63-3.19,43.9-3.7c2.11-0.09,3.81-0.04,5.71,0.23" style="fill:none;stroke:black;stroke-width:3" />
<circle cx="366.38" cy="30.13" r="5" stroke-width="0" fill="#FF2A00" opacity="0.7" />
<path d="M450.75,17c0.71,0.61,1.65,1.03,2.74,1.08C457.0,18.25 464.75,17 468.64,16.21c3.2-0.65,5.12,1.15,3.76,3.83c-1.36,2.68-7.63,15.71-10.01,19.55" style="fill:none;stroke:#999;stroke-width:3" />
<path d="M462.38,39.59C476.25,52.5 472.0,80 463.58,71.93" style="fill:none;stroke:#999;stroke-width:3" />
<path d="M452.53999999999996,18.53c0,1.72-0.22,2.59,0,3.74c0.22,1.15,0,68.3-0.22,75.49" style="fill:none;stroke:#999;stroke-width:3" />
<path d="M475.38,30.13c0.95,0.36,3.49,0.77,5.51,0.62c13.67-1.06,31.63-3.19,43.9-3.7c2.11-0.09,3.81-0.04,5.71,0.23" style="fill:none;stroke:#999;stroke-width:3" />
<path d="M485.61,51.47C483.92,56.5 479.52,63.63 476.0,66.48" style="fill:none;stroke:black;stroke-width:3" />
<circle cx="485.61" cy="51.47" r="5" stroke-width="0" fill="#FF2A00" opacity="0.7" />
<path d="M559.75,17c0.71,0.61,1.65,1.03,2.74,1.08C566.0,18.25 573.75,17 577.64,16.21c3.2-0.65,5.12,1.15,3.76,3.83c-1.36,2.68-7.63,15.71-10.01,19.55" style="fill:none;stroke:#999;stroke-width:3" />
<path d="M571.38,39.59C585.25,52.5 581.0,80 572.5799999999999,71.93" style="fill:none;stroke:#999;stroke-width:3" />
<path d="M561.54,18.53c0,1.72-0.22,2.59,0,3.74c0.22,1.15,0,68.3-0.22,75.49" style="fill:none;stroke:#999;stroke-width:3" />
<path d="M584.38,30.13c0.95,0.36,3.49,0.77,5.51,0.62c13.67-1.06,31.63-3.19,43.9-3.7c2.11-0.09,3.81-0.04,5.71,0.23" style="fill:none;stroke:#999;stroke-width:3" />
<path d="M594.61,51.47C592.9200000000001,56.5 588.52,63.63 585.0,66.48" style="fill:none;stroke:#999;stroke-width:3" />
<path d="M588.83,40.49c0.5,0,0.98,0.59,1.18,1.09c2.91,7.45,7.31,15.73,12.01,20.92c0.47,0.52,0.8,0.84,1.24,1" style="fill:none;stroke:black;stroke-width:3" />
<circle cx="588.83" cy="40.49" r="5" stroke-width="0" fill="#FF2A00" opacity="0.7" />
<path d="M668.75,17c0.71,0.61,1.65,1.03,2.74,1.08C675.0,18.25 682.75,17 686.64,16.21c3.2-0.65,5.12,1.15,3.76,3.83c-1.36,2.68-7.63,15.71-10.01,19.55" style="fill:none;stroke:#999;stroke-width:3" />
<path d="M680.38,39.59C694.25,52.5 690.0,80 681.5799999999999,71.93" style="fill:none;stroke:#999;stroke-width:3" />
<path d="M670.54,18.53c0,1.72-0.22,2.59,0,3.74c0.22,1.15,0,68.3-0.22,75.49" style="fill:none;stroke:#999;stroke-width:3" />
<path d="M693.38,30.13c0.95,0.36,3.49,0.77,5.51,0.62c13.67-1.06,31.63-3.19,43.9-3.7c2.11-0.09,3.81-0.04,5.71,0.23" style="fill:none;stroke:#999;stroke-width:3" />
<path d="M703.61,51.47C701.9200000000001,56.5 697.52,63.63 694.0,66.48" style="fill:none;stroke:#999;stroke-width:3" />
<path d="M697.83,40.49c0.5,0,0.98,0.59,1.18,1.09c2.91,7.45,7.31,15.73,12.01,20.92c0.47,0.52,0.8,0.84,1.24,1" style="fill:none;stroke:#999;stroke-width:3" />
<path d="M737.61,47.97C736.09,52.25 732.15,58.3 729.0,60.73" style="fill:none;stroke:black;stroke-width:3" />
<circle cx="737.61" cy="47.97" r="5" stroke-width="0" fill="#FF2A00" opacity="0.7" />
<path d="M777.75,17c0.71,0.61,1.65,1.03,2.74,1.08C784.0,18.25 791.75,17 795.64,16.21c3.2-0.65,5.12,1.15,3.76,3.83c-1.36,2.68-7.63,15.71-10.01,19.55" style="fill:none;stroke:#999;stroke-width:3" />
<path d="M789.38,39.59C803.25,52.5 799.0,80 790.5799999999999,71.93" style="fill:none;stroke:#999;stroke-width:3" />
<path d="M779.54,18.53c0,1.72-0.22,2.59,0,3.74c0.22,1.15,0,68.3-0.22,75.49" style="fill:none;stroke:#999;stroke-width:3" />
<path d="M802.38,30.13c0.95,0.36,3.49,0.77,5.51,0.62c13.67-1.06,31.63-3.19,43.9-3.7c2.11-0.09,3.81-0.04,5.71,0.23" style="fill:none;stroke:#999;stroke-width:3" />
<path d="M812.61,51.47C810.9200000000001,56.5 806.52,63.63 803.0,66.48" style="fill:none;stroke:#999;stroke-width:3" />
<path d="M806.83,40.49c0.5,0,0.98,0.59,1.18,1.09c2.91,7.45,7.31,15.73,12.01,20.92c0.47,0.52,0.8,0.84,1.24,1" style="fill:none;stroke:#999;stroke-width:3" />
<path d="M846.61,47.97C845.09,52.25 841.15,58.3 838.0,60.73" style="fill:none;stroke:#999;stroke-width:3" />
<path d="M841.08,38.99c0.62,0,1.22,0.63,1.46,1.16c3.62,7.93,9.08,16.76,14.92,22.28c0.59,0.56,1,0.89,1.54,1.07" style="fill:none;stroke:black;stroke-width:3" />
<circle cx="841.08" cy="38.99" r="5" stroke-width="0" fill="#FF2A00" opacity="0.7" />
<path d="M886.75,17c0.71,0.61,1.65,1.03,2.74,1.08C893.0,18.25 900.75,17 904.64,16.21c3.2-0.65,5.12,1.15,3.76,3.83c-1.36,2.68-7.63,15.71-10.01,19.55" style="fill:none;stroke:#999;stroke-width:3" />
<path d="M898.38,39.59C912.25,52.5 908.0,80 899.5799999999999,71.93" style="fill:none;stroke:#999;stroke-width:3" />
<path d="M888.54,18.53c0,1.72-0.22,2.59,0,3.74c0.22,1.15,0,68.3-0.22,75.49" style="fill:none;stroke:#999;stroke-width:3" />
<path d="M911.38,30.13c0.95,0.36,3.49,0.77,5.51,0.62c13.67-1.06,31.63-3.19,43.9-3.7c2.11-0.09,3.81-0.04,5.71,0.23" style="fill:none;stroke:#999;stroke-width:3" />
<path d="M921.61,51.47C919.9200000000001,56.5 915.52,63.63 912.0,66.48" style="fill:none;stroke:#999;stroke-width:3" />
<path d="M915.83,40.49c0.5,0,0.98,0.59,1.18,1.09c2.91,7.45,7.31,15.73,12.01,20.92c0.47,0.52,0.8,0.84,1.24,1" style="fill:none;stroke:#999;stroke-width:3" />
<path d="M955.61,47.97C954.09,52.25 950.15,58.3 947.0,60.73" style="fill:none;stroke:#999;stroke-width:3" />
<path d="M950.08,38.99c0.62,0,1.22,0.63,1.46,1.16c3.62,7.93,9.08,16.76,14.92,22.28c0.59,0.56,1,0.89,1.54,1.07" style="fill:none;stroke:#999;stroke-width:3" />
<path d="M937.0,13.25c0.46,1.18,0.68,2.55,0.68,5.11c0,45.64-3.18,64.39-29.18,81.32" style="fill:none;stroke:black;stroke-width:3" />
<circle cx="937.0" cy="13.25" r="5" stroke-width="0" fill="#FF2A00" opacity="0.7" />
<path d="M995.75,17c0.71,0.61,1.65,1.03,2.74,1.08C1002.0,18.25 1009.75,17 1013.64,16.21c3.2-0.65,5.12,1.15,3.76,3.83c-1.36,2.68-7.63,15.71-10.01,19.55" style="fill:none;stroke:#999;stroke-width:3" />
<path d="M1007.38,39.59C1021.25,52.5 1017.0,80 1008.5799999999999,71.93" style="fill:none;stroke:#999;stroke-width:3" />
<path d="M997.54,18.53c0,1.72-0.22,2.59,0,3.74c0.22,1.15,0,68.3-0.22,75.49" style="fill:none;stroke:#999;stroke-width:3" />
<path d="M1020.38,30.13c0.95,0.36,3.49,0.77,5.51,0.62c13.67-1.06,31.63-3.19,43.9-3.7c2.11-0.09,3.81-0.04,5.71,0.23" style="fill:none;stroke:#999;stroke-width:3" />
<path d="M1030.6100000000001,51.47C1028.92,56.5 1024.52,63.63 1021.0,66.48" style="fill:none;stroke:#999;stroke-width:3" />
<path d="M1024.83,40.49c0.5,0,0.98,0.59,1.18,1.09c2.91,7.45,7.31,15.73,12.01,20.92c0.47,0.52,0.8,0.84,1.24,1" style="fill:none;stroke:#999;stroke-width:3" />
<path d="M1064.6100000000001,47.97C1063.0900000000001,52.25 1059.15,58.3 1056.0,60.73" style="fill:none;stroke:#999;stroke-width:3" />
<path d="M1059.08,38.99c0.62,0,1.22,0.63,1.46,1.16c3.62,7.93,9.08,16.76,14.92,22.28c0.59,0.56,1,0.89,1.54,1.07" style="fill:none;stroke:#999;stroke-width:3" />
<path d="M1046.0,13.25c0.46,1.18,0.68,2.55,0.68,5.11c0,45.64-3.18,64.39-29.18,81.32" style="fill:none;stroke:#999;stroke-width:3" />
<path d="M1045.53,53.26C1050.5,64.25 1060.5,83.75 1071.41,94.37C1073.49,96.4 1074.09,96.8 1075.0,97" style="fill:none;stroke:black;stroke-width:3" />
<circle cx="1045.53" cy="53.26" r="5" stroke-width="0" fill="#FF2A00" opacity="0.7" />
</svg>