<!-- 0969b -->
<svg width="1526px" height="109px" viewBox="0 0 1526px 109px" xmlns="http://www.w3.org/2000/svg" xmlns:xlink="http://www.w3.org/1999/xlink" xml:space="preserve" version="1.1"  baseProfile="full">
<line x1="1" y1="1" x2="1525" y2="1" style="stroke:#ddd;stroke-width:2" />
<line x1="1" y1="1" x2="1" y2="108" style="stroke:#ddd;stroke-width:2" />
<line x1="1" y1="108" x2="1525" y2="108" style="stroke:#ddd;stroke-width:2" />
<line x1="1525" y1="1" x2="1525" y2="108" style="stroke:#ddd;stroke-width:2" />
<line x1="109" y1="1" x2="109" y2="108" style="stroke:#ddd;stroke-width:2" />
<line x1="218" y1="1" x2="218" y2="108" style="stroke:#ddd;stroke-width:2" />
<line x1="327" y1="1" x2="327" y2="108" style="stroke:#ddd;stroke-width:2" />
<line x1="436" y1="1" x2="436" y2="108" style="stroke:#ddd;stroke-width:2" />
<line x1="545" y1="1" x2="545" y2="108" style="stroke:#ddd;stroke-width:2" />
<line x1="654" y1="1" x2="654" y2="108" style="stroke:#ddd;stroke-width:2" />
<line x1="763" y1="1" x2="763" y2="108" style="stroke:#ddd;stroke-width:2" />
<line x1="872" y1="1" x2="872" y2="108" style="stroke:#ddd;stroke-width:2" />
<line x1="981" y1="1" x2="981" y2="108" style="stroke:#ddd;stroke-width:2" />
<line x1="1090" y1="1" x2="1090" y2="108" style="stroke:#ddd;stroke-width:2" />
<line x1="1199" y1="1" x2="1199" y2="108" style="stroke:#ddd;stroke-width:2" />
<line x1="1308" y1="1" x2="1308" y2="108" style="stroke:#ddd;stroke-width:2" />
<line x1="1417" y1="1" x2="1417" y2="108" style="stroke:#ddd;stroke-width:2" />
<line x1="1" y1="54" x2="1525" y2="54" style="stroke:#ddd;stroke-width:2;stroke-dasharray:3 3" />
<line x1="55" y1="1" x2="55" y2="108" style="stroke:#ddd;stroke-width:2;stroke-dasharray:3 3" />
<line x1="164" y1="1" x2="164" y2="108" style="stroke:#ddd;stroke-width:2;stroke-dasharray:3 3" />
<line x1="273" y1="1" x2="273" y2="108" style="stroke:#ddd;stroke-width:2;stroke-dasharray:3 3" />
<line x1="382" y1="1" x2="382" y2="108" style="stroke:#ddd;stroke-width:2;stroke-dasharray:3 3" />
<line x1="491" y1="1" x2="491" y2="108" style="stroke:#ddd;stroke-width:2;stroke-dasharray:3 3" />
<line x1="600" y1="1" x2="600" y2="108" style="stroke:#ddd;stroke-width:2;stroke-dasharray:3 3" />
<line x1="709" y1="1" x2="709" y2="108" style="stroke:#ddd;stroke-width:2;stroke-dasharray:3 3" />
<line x1="818" y1="1" x2="818" y2="108" style="stroke:#ddd;stroke-width:2;stroke-dasharray:3 3" />
<line x1="927" y1="1" x2="927" y2="108" style="stroke:#ddd;stroke-width:2;stroke-dasharray:3 3" />
<line x1="1036" y1="1" x2="1036" y2="108" style="stroke:#ddd;stroke-width:2;stroke-dasharray:3 3" />
<line x1="1145" y1="1" x2="1145" y2="108" style="stroke:#ddd;stroke-width:2;stroke-dasharray:3 3" />
<line x1="1254" y1="1" x2="1254" y2="108" style="stroke:#ddd;stroke-width:2;stroke-dasharray:3 3" />
<line x1="1363" y1="1" x2="1363" y2="108" style="stroke:#ddd;stroke-width:2;stroke-dasharray:3 3" />
<line x1="1472" y1="1" x2="1472" y2="108" style="stroke:#ddd;stroke-width:2;stroke-dasharray:3 3" />
<path d="M 13.17,17.17 c 1.08,0.33 2.39,0.38 3.6,0.19 5.26,-0.81 10.21,-2.13 12.65,-2.94 3,-1 4.53,1.14 3.42,3.58 -1.58,3.5 -6.5,13.17 -8.83,16.5" style="fill:none;stroke:black;stroke-width:3" />
<circle cx="13.17" cy="17.17" r="5" stroke-width="0" fill="#FF2A00" opacity="0.7" />
<path d="M 122.17,17.17 c 1.08,0.33 2.39,0.38 3.6,0.19 5.26,-0.81 10.21,-2.13 12.65,-2.94 3,-1 4.53,1.14 3.42,3.58 -1.58,3.5 -6.5,13.17 -8.83,16.5" style="fill:none;stroke:#999;stroke-width:3" />
<path d="M 133.0,34.5 c 11.75,10.5 9,32.75 -1.83,24" style="fill:none;stroke:black;stroke-width:3" />
<circle cx="133.0" cy="34.5" r="5" stroke-width="0" fill="#FF2A00" opacity="0.7" />
<path d="M 231.17000000000002,17.17 c 1.08,0.33 2.39,0.38 3.6,0.19 5.26,-0.81 10.21,-2.13 12.65,-2.94 3,-1 4.53,1.14 3.42,3.58 -1.58,3.5 -6.5,13.17 -8.83,16.5" style="fill:none;stroke:#999;stroke-width:3" />
<path d="M 242.0,34.5 c 11.75,10.5 9,32.75 -1.83,24" style="fill:none;stroke:#999;stroke-width:3" />
<path d="M 232.12,17.75 c 0.75,0.75 1.21,1.75 1.21,3 0,0.87 -0.12,48.62 -0.12,67.25 0,3.26 -0.06,5.57 -0.1,6.5" style="fill:none;stroke:black;stroke-width:3" />
<circle cx="232.12" cy="17.75" r="5" stroke-width="0" fill="#FF2A00" opacity="0.7" />
<path d="M 340.17,17.17 c 1.08,0.33 2.39,0.38 3.6,0.19 5.26,-0.81 10.21,-2.13 12.65,-2.94 3,-1 4.53,1.14 3.42,3.58 -1.58,3.5 -6.5,13.17 -8.83,16.5" style="fill:none;stroke:#999;stroke-width:3" />
<path d="M 351.0,34.5 c 11.75,10.5 9,32.75 -1.83,24" style="fill:none;stroke:#999;stroke-width:3" />
<path d="M 341.12,17.75 c 0.75,0.75 1.21,1.75 1.21,3 0,0.87 -0.12,48.62 -0.12,67.25 0,3.26 -0.06,5.57 -0.1,6.5" style="fill:none;stroke:#999;stroke-width:3" />
<path d="M 373.15,13.25 c 0.47,1.25 0.21,2.75 -0.36,4 -2.52,5.5 -7.79,12.12 -10.54,15" style="fill:none;stroke:black;stroke-width:3" />
<circle cx="373.15" cy="13.25" r="5" stroke-width="0" fill="#FF2A00" opacity="0.7" />
<path d="M 449.17,17.17 c 1.08,0.33 2.39,0.38 3.6,0.19 5.26,-0.81 10.21,-2.13 12.65,-2.94 3,-1 4.53,1.14 3.42,3.58 -1.58,3.5 -6.5,13.17 -8.83,16.5" style="fill:none;stroke:#999;stroke-width:3" />
<path d="M 460.0,34.5 c 11.75,10.5 9,32.75 -1.83,24" style="fill:none;stroke:#999;stroke-width:3" />
<path d="M 450.12,17.75 c 0.75,0.75 1.21,1.75 1.21,3 0,0.87 -0.12,48.62 -0.12,67.25 0,3.26 -0.06,5.57 -0.1,6.5" style="fill:none;stroke:#999;stroke-width:3" />
<path d="M 482.15,13.25 c 0.47,1.25 0.21,2.75 -0.36,4 -2.52,5.5 -7.79,12.12 -10.54,15" style="fill:none;stroke:#999;stroke-width:3" />
<path d="M 485.26,16.1 c 2.75,-0.35 8.05,-1.71 10.04,-2.1 2.52,-0.5 3.71,1.09 2.97,3.5 -3.52,11.38 -13.02,25.25 -24.05,32.75" style="fill:none;stroke:black;stroke-width:3" />
<circle cx="485.26" cy="16.1" r="5" stroke-width="0" fill="#FF2A00" opacity="0.7" />
<path d="M 558.1700000000001,17.17 c 1.08,0.33 2.39,0.38 3.6,0.19 5.26,-0.81 10.21,-2.13 12.65,-2.94 3,-1 4.53,1.14 3.42,3.58 -1.58,3.5 -6.5,13.17 -8.83,16.5" style="fill:none;stroke:#999;stroke-width:3" />
<path d="M 569.0,34.5 c 11.75,10.5 9,32.75 -1.83,24" style="fill:none;stroke:#999;stroke-width:3" />
<path d="M 559.12,17.75 c 0.75,0.75 1.21,1.75 1.21,3 0,0.87 -0.12,48.62 -0.12,67.25 0,3.26 -0.06,5.57 -0.1,6.5" style="fill:none;stroke:#999;stroke-width:3" />
<path d="M 591.15,13.25 c 0.47,1.25 0.21,2.75 -0.36,4 -2.52,5.5 -7.79,12.12 -10.54,15" style="fill:none;stroke:#999;stroke-width:3" />
<path d="M 594.26,16.1 c 2.75,-0.35 8.05,-1.71 10.04,-2.1 2.52,-0.5 3.71,1.09 2.97,3.5 -3.52,11.38 -13.02,25.25 -24.05,32.75" style="fill:none;stroke:#999;stroke-width:3" />
<path d="M 591.38,23.88 c 1,0.43 4.99,3.03 6.99,5.62" style="fill:none;stroke:black;stroke-width:3" />
<circle cx="591.38" cy="23.88" r="5" stroke-width="0" fill="#FF2A00" opacity="0.7" />
<path d="M 667.1700000000001,17.17 c 1.08,0.33 2.39,0.38 3.6,0.19 5.26,-0.81 10.21,-2.13 12.65,-2.94 3,-1 4.53,1.14 3.42,3.58 -1.58,3.5 -6.5,13.17 -8.83,16.5" style="fill:none;stroke:#999;stroke-width:3" />
<path d="M 678.0,34.5 c 11.75,10.5 9,32.75 -1.83,24" style="fill:none;stroke:#999;stroke-width:3" />
<path d="M 668.12,17.75 c 0.75,0.75 1.21,1.75 1.21,3 0,0.87 -0.12,48.62 -0.12,67.25 0,3.26 -0.06,5.57 -0.1,6.5" style="fill:none;stroke:#999;stroke-width:3" />
<path d="M 700.15,13.25 c 0.47,1.25 0.21,2.75 -0.36,4 -2.52,5.5 -7.79,12.12 -10.54,15" style="fill:none;stroke:#999;stroke-width:3" />
<path d="M 703.26,16.1 c 2.75,-0.35 8.05,-1.71 10.04,-2.1 2.52,-0.5 3.71,1.09 2.97,3.5 -3.52,11.38 -13.02,25.25 -24.05,32.75" style="fill:none;stroke:#999;stroke-width:3" />
<path d="M 700.38,23.88 c 1,0.43 4.99,3.03 6.99,5.62" style="fill:none;stroke:#999;stroke-width:3" />
<path d="M 693.25,32.12 c 1.46,0.95 5.85,4.99 7.07,7.12" style="fill:none;stroke:black;stroke-width:3" />
<circle cx="693.25" cy="32.12" r="5" stroke-width="0" fill="#FF2A00" opacity="0.7" />
<path d="M 776.1700000000001,17.17 c 1.08,0.33 2.39,0.38 3.6,0.19 5.26,-0.81 10.21,-2.13 12.65,-2.94 3,-1 4.53,1.14 3.42,3.58 -1.58,3.5 -6.5,13.17 -8.83,16.5" style="fill:none;stroke:#999;stroke-width:3" />
<path d="M 787.0,34.5 c 11.75,10.5 9,32.75 -1.83,24" style="fill:none;stroke:#999;stroke-width:3" />
<path d="M 777.12,17.75 c 0.75,0.75 1.21,1.75 1.21,3 0,0.87 -0.12,48.62 -0.12,67.25 0,3.26 -0.06,5.57 -0.1,6.5" style="fill:none;stroke:#999;stroke-width:3" />
<path d="M 809.15,13.25 c 0.47,1.25 0.21,2.75 -0.36,4 -2.52,5.5 -7.79,12.12 -10.54,15" style="fill:none;stroke:#999;stroke-width:3" />
<path d="M 812.26,16.1 c 2.75,-0.35 8.05,-1.71 10.04,-2.1 2.52,-0.5 3.71,1.09 2.97,3.5 -3.52,11.38 -13.02,25.25 -24.05,32.75" style="fill:none;stroke:#999;stroke-width:3" />
<path d="M 809.38,23.88 c 1,0.43 4.99,3.03 6.99,5.62" style="fill:none;stroke:#999;stroke-width:3" />
<path d="M 802.25,32.12 c 1.46,0.95 5.85,4.99 7.07,7.12" style="fill:none;stroke:#999;stroke-width:3" />
<path d="M 833.59,17 c 1.41,0.38 2.79,0.27 4.02,0 2.88,-0.62 8.000654,-1.102904 11.130654,-1.722904 3.05,-0.61 5.21,1.05 3.75,3.75 -3.25,6 -9.102249,13.490798 -14.86773,18.35225" style="fill:none;stroke:black;stroke-width:3" />
<circle cx="833.59" cy="17.0" r="5" stroke-width="0" fill="#FF2A00" opacity="0.7" />
<path d="M 885.1700000000001,17.17 c 1.08,0.33 2.39,0.38 3.6,0.19 5.26,-0.81 10.21,-2.13 12.65,-2.94 3,-1 4.53,1.14 3.42,3.58 -1.58,3.5 -6.5,13.17 -8.83,16.5" style="fill:none;stroke:#999;stroke-width:3" />
<path d="M 896.0,34.5 c 11.75,10.5 9,32.75 -1.83,24" style="fill:none;stroke:#999;stroke-width:3" />
<path d="M 886.12,17.75 c 0.75,0.75 1.21,1.75 1.21,3 0,0.87 -0.12,48.62 -0.12,67.25 0,3.26 -0.06,5.57 -0.1,6.5" style="fill:none;stroke:#999;stroke-width:3" />
<path d="M 918.15,13.25 c 0.47,1.25 0.21,2.75 -0.36,4 -2.52,5.5 -7.79,12.12 -10.54,15" style="fill:none;stroke:#999;stroke-width:3" />
<path d="M 921.26,16.1 c 2.75,-0.35 8.05,-1.71 10.04,-2.1 2.52,-0.5 3.71,1.09 2.97,3.5 -3.52,11.38 -13.02,25.25 -24.05,32.75" style="fill:none;stroke:#999;stroke-width:3" />
<path d="M 918.38,23.88 c 1,0.43 4.99,3.03 6.99,5.62" style="fill:none;stroke:#999;stroke-width:3" />
<path d="M 911.25,32.12 c 1.46,0.95 5.85,4.99 7.07,7.12" style="fill:none;stroke:#999;stroke-width:3" />
<path d="M 942.59,17 c 1.41,0.38 2.79,0.27 4.02,0 2.88,-0.62 8.000654,-1.102904 11.130654,-1.722904 3.05,-0.61 5.21,1.05 3.75,3.75 -3.25,6 -9.102249,13.490798 -14.86773,18.35225" style="fill:none;stroke:#999;stroke-width:3" />
<path d="M 936.25,25.5 c 2.92,-0.26 20.17,17.28 21.93,18.83 1.75,1.55 5.07,3.92 8.07,5.42" style="fill:none;stroke:black;stroke-width:3" />
<circle cx="936.25" cy="25.5" r="5" stroke-width="0" fill="#FF2A00" opacity="0.7" />
<path d="M 994.1700000000001,17.17 c 1.08,0.33 2.39,0.38 3.6,0.19 5.26,-0.81 10.21,-2.13 12.65,-2.94 3,-1 4.53,1.14 3.42,3.58 -1.58,3.5 -6.5,13.17 -8.83,16.5" style="fill:none;stroke:#999;stroke-width:3" />
<path d="M 1005.0,34.5 c 11.75,10.5 9,32.75 -1.83,24" style="fill:none;stroke:#999;stroke-width:3" />
<path d="M 995.12,17.75 c 0.75,0.75 1.21,1.75 1.21,3 0,0.87 -0.12,48.62 -0.12,67.25 0,3.26 -0.06,5.57 -0.1,6.5" style="fill:none;stroke:#999;stroke-width:3" />
<path d="M 1027.15,13.25 c 0.47,1.25 0.21,2.75 -0.36,4 -2.52,5.5 -7.79,12.12 -10.54,15" style="fill:none;stroke:#999;stroke-width:3" />
<path d="M 1030.26,16.1 c 2.75,-0.35 8.05,-1.71 10.04,-2.1 2.52,-0.5 3.71,1.09 2.97,3.5 -3.52,11.38 -13.02,25.25 -24.05,32.75" style="fill:none;stroke:#999;stroke-width:3" />
<path d="M 1027.38,23.88 c 1,0.43 4.99,3.03 6.99,5.62" style="fill:none;stroke:#999;stroke-width:3" />
<path d="M 1020.25,32.12 c 1.46,0.95 5.85,4.99 7.07,7.12" style="fill:none;stroke:#999;stroke-width:3" />
<path d="M 1051.5900000000001,17 c 1.41,0.38 2.79,0.27 4.02,0 2.88,-0.62 8.000654,-1.102904 11.130654,-1.722904 3.05,-0.61 5.21,1.05 3.75,3.75 -3.25,6 -9.102249,13.490798 -14.86773,18.35225" style="fill:none;stroke:#999;stroke-width:3" />
<path d="M 1045.25,25.5 c 2.92,-0.26 20.17,17.28 21.93,18.83 1.75,1.55 5.07,3.92 8.07,5.42" style="fill:none;stroke:#999;stroke-width:3" />
<path d="M 1031.26,49.623701 c 1.16,0.44 2.94,0.5 4.12,0.47 5.11,-0.1 11.84,-1.18 16.38,-1.47 1.35,-0.09 2.65,-0.17 3.97,0.13" style="fill:none;stroke:black;stroke-width:3" />
<circle cx="1031.26" cy="49.623701" r="5" stroke-width="0" fill="#FF2A00" opacity="0.7" />
<path d="M 1103.17,17.17 c 1.08,0.33 2.39,0.38 3.6,0.19 5.26,-0.81 10.21,-2.13 12.65,-2.94 3,-1 4.53,1.14 3.42,3.58 -1.58,3.5 -6.5,13.17 -8.83,16.5" style="fill:none;stroke:#999;stroke-width:3" />
<path d="M 1114.0,34.5 c 11.75,10.5 9,32.75 -1.83,24" style="fill:none;stroke:#999;stroke-width:3" />
<path d="M 1104.12,17.75 c 0.75,0.75 1.21,1.75 1.21,3 0,0.87 -0.12,48.62 -0.12,67.25 0,3.26 -0.06,5.57 -0.1,6.5" style="fill:none;stroke:#999;stroke-width:3" />
<path d="M 1136.15,13.25 c 0.47,1.25 0.21,2.75 -0.36,4 -2.52,5.5 -7.79,12.12 -10.54,15" style="fill:none;stroke:#999;stroke-width:3" />
<path d="M 1139.26,16.1 c 2.75,-0.35 8.05,-1.71 10.04,-2.1 2.52,-0.5 3.71,1.09 2.97,3.5 -3.52,11.38 -13.02,25.25 -24.05,32.75" style="fill:none;stroke:#999;stroke-width:3" />
<path d="M 1136.38,23.88 c 1,0.43 4.99,3.03 6.99,5.62" style="fill:none;stroke:#999;stroke-width:3" />
<path d="M 1129.25,32.12 c 1.46,0.95 5.85,4.99 7.07,7.12" style="fill:none;stroke:#999;stroke-width:3" />
<path d="M 1160.5900000000001,17 c 1.41,0.38 2.79,0.27 4.02,0 2.88,-0.62 8.000654,-1.102904 11.130654,-1.722904 3.05,-0.61 5.21,1.05 3.75,3.75 -3.25,6 -9.102249,13.490798 -14.86773,18.35225" style="fill:none;stroke:#999;stroke-width:3" />
<path d="M 1154.25,25.5 c 2.92,-0.26 20.17,17.28 21.93,18.83 1.75,1.55 5.07,3.92 8.07,5.42" style="fill:none;stroke:#999;stroke-width:3" />
<path d="M 1140.26,49.623701 c 1.16,0.44 2.94,0.5 4.12,0.47 5.11,-0.1 11.84,-1.18 16.38,-1.47 1.35,-0.09 2.65,-0.17 3.97,0.13" style="fill:none;stroke:#999;stroke-width:3" />
<path d="M 1129.71,63.453701 c 3.16,0.51 5.45,0.07 7.79,-0.13 8.63,-0.75 21.85,-2.13 30.07,-2.63 2.37,-0.14 4.93,-0.23 7.41,0.23" style="fill:none;stroke:black;stroke-width:3" />
<circle cx="1129.71" cy="63.453701" r="5" stroke-width="0" fill="#FF2A00" opacity="0.7" />
<path d="M 1212.17,17.17 c 1.08,0.33 2.39,0.38 3.6,0.19 5.26,-0.81 10.21,-2.13 12.65,-2.94 3,-1 4.53,1.14 3.42,3.58 -1.58,3.5 -6.5,13.17 -8.83,16.5" style="fill:none;stroke:#999;stroke-width:3" />
<path d="M 1223.0,34.5 c 11.75,10.5 9,32.75 -1.83,24" style="fill:none;stroke:#999;stroke-width:3" />
<path d="M 1213.12,17.75 c 0.75,0.75 1.21,1.75 1.21,3 0,0.87 -0.12,48.62 -0.12,67.25 0,3.26 -0.06,5.57 -0.1,6.5" style="fill:none;stroke:#999;stroke-width:3" />
<path d="M 1245.15,13.25 c 0.47,1.25 0.21,2.75 -0.36,4 -2.52,5.5 -7.79,12.12 -10.54,15" style="fill:none;stroke:#999;stroke-width:3" />
<path d="M 1248.26,16.1 c 2.75,-0.35 8.05,-1.71 10.04,-2.1 2.52,-0.5 3.71,1.09 2.97,3.5 -3.52,11.38 -13.02,25.25 -24.05,32.75" style="fill:none;stroke:#999;stroke-width:3" />
<path d="M 1245.38,23.88 c 1,0.43 4.99,3.03 6.99,5.62" style="fill:none;stroke:#999;stroke-width:3" />
<path d="M 1238.25,32.12 c 1.46,0.95 5.85,4.99 7.07,7.12" style="fill:none;stroke:#999;stroke-width:3" />
<path d="M 1269.5900000000001,17 c 1.41,0.38 2.79,0.27 4.02,0 2.88,-0.62 8.000654,-1.102904 11.130654,-1.722904 3.05,-0.61 5.21,1.05 3.75,3.75 -3.25,6 -9.102249,13.490798 -14.86773,18.35225" style="fill:none;stroke:#999;stroke-width:3" />
<path d="M 1263.25,25.5 c 2.92,-0.26 20.17,17.28 21.93,18.83 1.75,1.55 5.07,3.92 8.07,5.42" style="fill:none;stroke:#999;stroke-width:3" />
<path d="M 1249.26,49.623701 c 1.16,0.44 2.94,0.5 4.12,0.47 5.11,-0.1 11.84,-1.18 16.38,-1.47 1.35,-0.09 2.65,-0.17 3.97,0.13" style="fill:none;stroke:#999;stroke-width:3" />
<path d="M 1238.71,63.453701 c 3.16,0.51 5.45,0.07 7.79,-0.13 8.63,-0.75 21.85,-2.13 30.07,-2.63 2.37,-0.14 4.93,-0.23 7.41,0.23" style="fill:none;stroke:#999;stroke-width:3" />
<path d="M 1261.16,64.453701 c 0.74,0.74 1.09,2.14 1.09,3.73 0,12.49 0.08,18.301779 0.08,22.551779 0,9.15 -6.05,1.04 -7.05,-0.04" style="fill:none;stroke:black;stroke-width:3" />
<circle cx="1261.16" cy="64.453701" r="5" stroke-width="0" fill="#FF2A00" opacity="0.7" />
<path d="M 1321.17,17.17 c 1.08,0.33 2.39,0.38 3.6,0.19 5.26,-0.81 10.21,-2.13 12.65,-2.94 3,-1 4.53,1.14 3.42,3.58 -1.58,3.5 -6.5,13.17 -8.83,16.5" style="fill:none;stroke:#999;stroke-width:3" />
<path d="M 1332.0,34.5 c 11.75,10.5 9,32.75 -1.83,24" style="fill:none;stroke:#999;stroke-width:3" />
<path d="M 1322.12,17.75 c 0.75,0.75 1.21,1.75 1.21,3 0,0.87 -0.12,48.62 -0.12,67.25 0,3.26 -0.06,5.57 -0.1,6.5" style="fill:none;stroke:#999;stroke-width:3" />
<path d="M 1354.15,13.25 c 0.47,1.25 0.21,2.75 -0.36,4 -2.52,5.5 -7.79,12.12 -10.54,15" style="fill:none;stroke:#999;stroke-width:3" />
<path d="M 1357.26,16.1 c 2.75,-0.35 8.05,-1.71 10.04,-2.1 2.52,-0.5 3.71,1.09 2.97,3.5 -3.52,11.38 -13.02,25.25 -24.05,32.75" style="fill:none;stroke:#999;stroke-width:3" />
<path d="M 1354.38,23.88 c 1,0.43 4.99,3.03 6.99,5.62" style="fill:none;stroke:#999;stroke-width:3" />
<path d="M 1347.25,32.12 c 1.46,0.95 5.85,4.99 7.07,7.12" style="fill:none;stroke:#999;stroke-width:3" />
<path d="M 1378.5900000000001,17 c 1.41,0.38 2.79,0.27 4.02,0 2.88,-0.62 8.000654,-1.102904 11.130654,-1.722904 3.05,-0.61 5.21,1.05 3.75,3.75 -3.25,6 -9.102249,13.490798 -14.86773,18.35225" style="fill:none;stroke:#999;stroke-width:3" />
<path d="M 1372.25,25.5 c 2.92,-0.26 20.17,17.28 21.93,18.83 1.75,1.55 5.07,3.92 8.07,5.42" style="fill:none;stroke:#999;stroke-width:3" />
<path d="M 1358.26,49.623701 c 1.16,0.44 2.94,0.5 4.12,0.47 5.11,-0.1 11.84,-1.18 16.38,-1.47 1.35,-0.09 2.65,-0.17 3.97,0.13" style="fill:none;stroke:#999;stroke-width:3" />
<path d="M 1347.71,63.453701 c 3.16,0.51 5.45,0.07 7.79,-0.13 8.63,-0.75 21.85,-2.13 30.07,-2.63 2.37,-0.14 4.93,-0.23 7.41,0.23" style="fill:none;stroke:#999;stroke-width:3" />
<path d="M 1370.16,64.453701 c 0.74,0.74 1.09,2.14 1.09,3.73 0,12.49 0.08,18.301779 0.08,22.551779 0,9.15 -6.05,1.04 -7.05,-0.04" style="fill:none;stroke:#999;stroke-width:3" />
<path d="M 1353.0,72.833701 c 0.04,0.42 0.08,1.09 -0.07,1.69 -0.89,3.56 -8.211616,11.300164 -15.191616,16.090164" style="fill:none;stroke:black;stroke-width:3" />
<circle cx="1353.0" cy="72.833701" r="5" stroke-width="0" fill="#FF2A00" opacity="0.7" />
<path d="M 1430.17,17.17 c 1.08,0.33 2.39,0.38 3.6,0.19 5.26,-0.81 10.21,-2.13 12.65,-2.94 3,-1 4.53,1.14 3.42,3.58 -1.58,3.5 -6.5,13.17 -8.83,16.5" style="fill:none;stroke:#999;stroke-width:3" />
<path d="M 1441.0,34.5 c 11.75,10.5 9,32.75 -1.83,24" style="fill:none;stroke:#999;stroke-width:3" />
<path d="M 1431.12,17.75 c 0.75,0.75 1.21,1.75 1.21,3 0,0.87 -0.12,48.62 -0.12,67.25 0,3.26 -0.06,5.57 -0.1,6.5" style="fill:none;stroke:#999;stroke-width:3" />
<path d="M 1463.15,13.25 c 0.47,1.25 0.21,2.75 -0.36,4 -2.52,5.5 -7.79,12.12 -10.54,15" style="fill:none;stroke:#999;stroke-width:3" />
<path d="M 1466.26,16.1 c 2.75,-0.35 8.05,-1.71 10.04,-2.1 2.52,-0.5 3.71,1.09 2.97,3.5 -3.52,11.38 -13.02,25.25 -24.05,32.75" style="fill:none;stroke:#999;stroke-width:3" />
<path d="M 1463.38,23.88 c 1,0.43 4.99,3.03 6.99,5.62" style="fill:none;stroke:#999;stroke-width:3" />
<path d="M 1456.25,32.12 c 1.46,0.95 5.85,4.99 7.07,7.12" style="fill:none;stroke:#999;stroke-width:3" />
<path d="M 1487.5900000000001,17 c 1.41,0.38 2.79,0.27 4.02,0 2.88,-0.62 8.000654,-1.102904 11.130654,-1.722904 3.05,-0.61 5.21,1.05 3.75,3.75 -3.25,6 -9.102249,13.490798 -14.86773,18.35225" style="fill:none;stroke:#999;stroke-width:3" />
<path d="M 1481.25,25.5 c 2.92,-0.26 20.17,17.28 21.93,18.83 1.75,1.55 5.07,3.92 8.07,5.42" style="fill:none;stroke:#999;stroke-width:3" />
<path d="M 1467.26,49.623701 c 1.16,0.44 2.94,0.5 4.12,0.47 5.11,-0.1 11.84,-1.18 16.38,-1.47 1.35,-0.09 2.65,-0.17 3.97,0.13" style="fill:none;stroke:#999;stroke-width:3" />
<path d="M 1456.71,63.453701 c 3.16,0.51 5.45,0.07 7.79,-0.13 8.63,-0.75 21.85,-2.13 30.07,-2.63 2.37,-0.14 4.93,-0.23 7.41,0.23" style="fill:none;stroke:#999;stroke-width:3" />
<path d="M 1479.16,64.453701 c 0.74,0.74 1.09,2.14 1.09,3.73 0,12.49 0.08,18.301779 0.08,22.551779 0,9.15 -6.05,1.04 -7.05,-0.04" style="fill:none;stroke:#999;stroke-width:3" />
<path d="M 1462.0,72.833701 c 0.04,0.42 0.08,1.09 -0.07,1.69 -0.89,3.56 -8.211616,11.300164 -15.191616,16.090164" style="fill:none;stroke:#999;stroke-width:3" />
<path d="M 1494.38,72.963701 c 5.25,3.5 12.114519,11.014683 14.634519,16.444683" style="fill:none;stroke:black;stroke-width:3" />
<circle cx="1494.38" cy="72.963701" r="5" stroke-width="0" fill="#FF2A00" opacity="0.7" />
</svg>