<!-- 0969c -->
<svg width="1526px" height="109px" viewBox="0 0 1526px 109px" xmlns="http://www.w3.org/2000/svg" xmlns:xlink="http://www.w3.org/1999/xlink" xml:space="preserve" version="1.1"  baseProfile="full">
<line x1="1" y1="1" x2="1525" y2="1" style="stroke:#ddd;stroke-width:2" />
<line x1="1" y1="1" x2="1" y2="108" style="stroke:#ddd;stroke-width:2" />
<line x1="1" y1="108" x2="1525" y2="108" style="stroke:#ddd;stroke-width:2" />
<line x1="1525" y1="1" x2="1525" y2="108" style="stroke:#ddd;stroke-width:2" />
<line x1="109" y1="1" x2="109" y2="108" style="stroke:#ddd;stroke-width:2" />
<line x1="218" y1="1" x2="218" y2="108" style="stroke:#ddd;stroke-width:2" />
<line x1="327" y1="1" x2="327" y2="108" style="stroke:#ddd;stroke-width:2" />
<line x1="436" y1="1" x2="436" y2="108" style="stroke:#ddd;stroke-width:2" />
<line x1="545" y1="1" x2="545" y2="108" style="stroke:#ddd;stroke-width:2" />
<line x1="654" y1="1" x2="654" y2="108" style="stroke:#ddd;stroke-width:2" />
<line x1="763" y1="1" x2="763" y2="108" style="stroke:#ddd;stroke-width:2" />
<line x1="872" y1="1" x2="872" y2="108" style="stroke:#ddd;stroke-width:2" />
<line x1="981" y1="1" x2="981" y2="108" style="stroke:#ddd;stroke-width:2" />
<line x1="1090" y1="1" x2="1090" y2="108" style="stroke:#ddd;stroke-width:2" />
<line x1="1199" y1="1" x2="1199" y2="108" style="stroke:#ddd;stroke-width:2" />
<line x1="1308" y1="1" x2="1308" y2="108" style="stroke:#ddd;stroke-width:2" />
<line x1="1417" y1="1" x2="1417" y2="108" style="stroke:#ddd;stroke-width:2" />
<line x1="1" y1="54" x2="1525" y2="54" style="stroke:#ddd;stroke-width:2;stroke-dasharray:3 3" />
<line x1="55" y1="1" x2="55" y2="108" style="stroke:#ddd;stroke-width:2;stroke-dasharray:3 3" />
<line x1="164" y1="1" x2="164" y2="108" style="stroke:#ddd;stroke-width:2;stroke-dasharray:3 3" />
<line x1="273" y1="1" x2="273" y2="108" style="stroke:#ddd;stroke-width:2;stroke-dasharray:3 3" />
<line x1="382" y1="1" x2="382" y2="108" style="stroke:#ddd;stroke-width:2;stroke-dasharray:3 3" />
<line x1="491" y1="1" x2="491" y2="108" style="stroke:#ddd;stroke-width:2;stroke-dasharray:3 3" />
<line x1="600" y1="1" x2="600" y2="108" style="stroke:#ddd;stroke-width:2;stroke-dasharray:3 3" />
<line x1="709" y1="1" x2="709" y2="108" style="stroke:#ddd;stroke-width:2;stroke-dasharray:3 3" />
<line x1="818" y1="1" x2="818" y2="108" style="stroke:#ddd;stroke-width:2;stroke-dasharray:3 3" />
<line x1="927" y1="1" x2="927" y2="108" style="stroke:#ddd;stroke-width:2;stroke-dasharray:3 3" />
<line x1="1036" y1="1" x2="1036" y2="108" style="stroke:#ddd;stroke-width:2;stroke-dasharray:3 3" />
<line x1="1145" y1="1" x2="1145" y2="108" style="stroke:#ddd;stroke-width:2;stroke-dasharray:3 3" />
<line x1="1254" y1="1" x2="1254" y2="108" style="stroke:#ddd;stroke-width:2;stroke-dasharray:3 3" />
<line x1="1363" y1="1" x2="1363" y2="108" style="stroke:#ddd;stroke-width:2;stroke-dasharray:3 3" />
<line x1="1472" y1="1" x2="1472" y2="108" style="stroke:#ddd;stroke-width:2;stroke-dasharray:3 3" />
<path d="M15.42,20.17c1.08,0.33,2.47,0.4,3.6,0.15c5.49-1.19,11.25-2.85,13.65-3.65c3-1,5,1.5,3.67,3.83C35.0,22.83 30.25,33 27.5,38.25" style="fill:none;stroke:black;stroke-width:3" />
<circle cx="15.42" cy="20.17" r="5" stroke-width="0" fill="#FF2A00" opacity="0.7" />
<path d="M124.42,20.17c1.08,0.33,2.47,0.4,3.6,0.15c5.49-1.19,11.25-2.85,13.65-3.65c3-1,5,1.5,3.67,3.83C144.0,22.83 139.25,33 136.5,38.25" style="fill:none;stroke:#999;stroke-width:3" />
<path d="M136.5,38.25c13.33,8.33,9.5,36.25-0.83,27.5" style="fill:none;stroke:black;stroke-width:3" />
<circle cx="136.5" cy="38.25" r="5" stroke-width="0" fill="#FF2A00" opacity="0.7" />
<path d="M233.42000000000002,20.17c1.08,0.33,2.47,0.4,3.6,0.15c5.49-1.19,11.25-2.85,13.65-3.65c3-1,5,1.5,3.67,3.83C253.0,22.83 248.25,33 245.5,38.25" style="fill:none;stroke:#999;stroke-width:3" />
<path d="M245.5,38.25c13.33,8.33,9.5,36.25-0.83,27.5" style="fill:none;stroke:#999;stroke-width:3" />
<path d="M234.62,20.75c0.75,0.75,1.21,1.98,1.21,3c0,5.25-0.12,50-0.12,64.5c0,2.97-0.06,5.09-0.09,6" style="fill:none;stroke:black;stroke-width:3" />
<circle cx="234.62" cy="20.75" r="5" stroke-width="0" fill="#FF2A00" opacity="0.7" />
<path d="M342.42,20.17c1.08,0.33,2.47,0.4,3.6,0.15c5.49-1.19,11.25-2.85,13.65-3.65c3-1,5,1.5,3.67,3.83C362.0,22.83 357.25,33 354.5,38.25" style="fill:none;stroke:#999;stroke-width:3" />
<path d="M354.5,38.25c13.33,8.33,9.5,36.25-0.83,27.5" style="fill:none;stroke:#999;stroke-width:3" />
<path d="M343.62,20.75c0.75,0.75,1.21,1.98,1.21,3c0,5.25-0.12,50-0.12,64.5c0,2.97-0.06,5.09-0.09,6" style="fill:none;stroke:#999;stroke-width:3" />
<path d="M391.25,10.5c0.75,0.75,1.21,2.02,1.21,3.57s0,1.51,0,6.06" style="fill:none;stroke:black;stroke-width:3" />
<circle cx="391.25" cy="10.5" r="5" stroke-width="0" fill="#FF2A00" opacity="0.7" />
<path d="M451.42,20.17c1.08,0.33,2.47,0.4,3.6,0.15c5.49-1.19,11.25-2.85,13.65-3.65c3-1,5,1.5,3.67,3.83C471.0,22.83 466.25,33 463.5,38.25" style="fill:none;stroke:#999;stroke-width:3" />
<path d="M463.5,38.25c13.33,8.33,9.5,36.25-0.83,27.5" style="fill:none;stroke:#999;stroke-width:3" />
<path d="M452.62,20.75c0.75,0.75,1.21,1.98,1.21,3c0,5.25-0.12,50-0.12,64.5c0,2.97-0.06,5.09-0.09,6" style="fill:none;stroke:#999;stroke-width:3" />
<path d="M500.25,10.5c0.75,0.75,1.21,2.02,1.21,3.57s0,1.51,0,6.06" style="fill:none;stroke:#999;stroke-width:3" />
<path d="M481.54,22.89c2.46,0.36,4.46,0.45,6.22,0.23c7.77-0.94,20.14-2.45,30.25-3.24c2.34-0.18,4.88-0.17,7.19,0.29" style="fill:none;stroke:black;stroke-width:3" />
<circle cx="481.54" cy="22.89" r="5" stroke-width="0" fill="#FF2A00" opacity="0.7" />
<path d="M560.4200000000001,20.17c1.08,0.33,2.47,0.4,3.6,0.15c5.49-1.19,11.25-2.85,13.65-3.65c3-1,5,1.5,3.67,3.83C580.0,22.83 575.25,33 572.5,38.25" style="fill:none;stroke:#999;stroke-width:3" />
<path d="M572.5,38.25c13.33,8.33,9.5,36.25-0.83,27.5" style="fill:none;stroke:#999;stroke-width:3" />
<path d="M561.62,20.75c0.75,0.75,1.21,1.98,1.21,3c0,5.25-0.12,50-0.12,64.5c0,2.97-0.06,5.09-0.09,6" style="fill:none;stroke:#999;stroke-width:3" />
<path d="M609.25,10.5c0.75,0.75,1.21,2.02,1.21,3.57s0,1.51,0,6.06" style="fill:none;stroke:#999;stroke-width:3" />
<path d="M590.54,22.89c2.46,0.36,4.46,0.45,6.22,0.23c7.77-0.94,20.14-2.45,30.25-3.24c2.34-0.18,4.88-0.17,7.19,0.29" style="fill:none;stroke:#999;stroke-width:3" />
<path d="M598.25,26.12c2.96,3.67,4.57,7.6,4.84,10.02" style="fill:none;stroke:black;stroke-width:3" />
<circle cx="598.25" cy="26.12" r="5" stroke-width="0" fill="#FF2A00" opacity="0.7" />
<path d="M669.4200000000001,20.17c1.08,0.33,2.47,0.4,3.6,0.15c5.49-1.19,11.25-2.85,13.65-3.65c3-1,5,1.5,3.67,3.83C689.0,22.83 684.25,33 681.5,38.25" style="fill:none;stroke:#999;stroke-width:3" />
<path d="M681.5,38.25c13.33,8.33,9.5,36.25-0.83,27.5" style="fill:none;stroke:#999;stroke-width:3" />
<path d="M670.62,20.75c0.75,0.75,1.21,1.98,1.21,3c0,5.25-0.12,50-0.12,64.5c0,2.97-0.06,5.09-0.09,6" style="fill:none;stroke:#999;stroke-width:3" />
<path d="M718.25,10.5c0.75,0.75,1.21,2.02,1.21,3.57s0,1.51,0,6.06" style="fill:none;stroke:#999;stroke-width:3" />
<path d="M699.54,22.89c2.46,0.36,4.46,0.45,6.22,0.23c7.77-0.94,20.14-2.45,30.25-3.24c2.34-0.18,4.88-0.17,7.19,0.29" style="fill:none;stroke:#999;stroke-width:3" />
<path d="M707.25,26.12c2.96,3.67,4.57,7.6,4.84,10.02" style="fill:none;stroke:#999;stroke-width:3" />
<path d="M731.47,23.42c0.4,0.58,0.22,1.35-0.08,2.24c-1.14,3.33-3.18,8-3.95,9.47" style="fill:none;stroke:black;stroke-width:3" />
<circle cx="731.47" cy="23.42" r="5" stroke-width="0" fill="#FF2A00" opacity="0.7" />
<path d="M778.4200000000001,20.17c1.08,0.33,2.47,0.4,3.6,0.15c5.49-1.19,11.25-2.85,13.65-3.65c3-1,5,1.5,3.67,3.83C798.0,22.83 793.25,33 790.5,38.25" style="fill:none;stroke:#999;stroke-width:3" />
<path d="M790.5,38.25c13.33,8.33,9.5,36.25-0.83,27.5" style="fill:none;stroke:#999;stroke-width:3" />
<path d="M779.62,20.75c0.75,0.75,1.21,1.98,1.21,3c0,5.25-0.12,50-0.12,64.5c0,2.97-0.06,5.09-0.09,6" style="fill:none;stroke:#999;stroke-width:3" />
<path d="M827.25,10.5c0.75,0.75,1.21,2.02,1.21,3.57s0,1.51,0,6.06" style="fill:none;stroke:#999;stroke-width:3" />
<path d="M808.54,22.89c2.46,0.36,4.46,0.45,6.22,0.23c7.77-0.94,20.14-2.45,30.25-3.24c2.34-0.18,4.88-0.17,7.19,0.29" style="fill:none;stroke:#999;stroke-width:3" />
<path d="M816.25,26.12c2.96,3.67,4.57,7.6,4.84,10.02" style="fill:none;stroke:#999;stroke-width:3" />
<path d="M840.47,23.42c0.4,0.58,0.22,1.35-0.08,2.24c-1.14,3.33-3.18,8-3.95,9.47" style="fill:none;stroke:#999;stroke-width:3" />
<path d="M801.23,40.2c3.15,0.42,5.65,0.22,8.37-0.08c10.2-1.1,28.68-3.08,41.4-3.69c2.53-0.12,5.02-0.23,7.52,0.25" style="fill:none;stroke:black;stroke-width:3" />
<circle cx="801.23" cy="40.2" r="5" stroke-width="0" fill="#FF2A00" opacity="0.7" />
<path d="M887.4200000000001,20.17c1.08,0.33,2.47,0.4,3.6,0.15c5.49-1.19,11.25-2.85,13.65-3.65c3-1,5,1.5,3.67,3.83C907.0,22.83 902.25,33 899.5,38.25" style="fill:none;stroke:#999;stroke-width:3" />
<path d="M899.5,38.25c13.33,8.33,9.5,36.25-0.83,27.5" style="fill:none;stroke:#999;stroke-width:3" />
<path d="M888.62,20.75c0.75,0.75,1.21,1.98,1.21,3c0,5.25-0.12,50-0.12,64.5c0,2.97-0.06,5.09-0.09,6" style="fill:none;stroke:#999;stroke-width:3" />
<path d="M936.25,10.5c0.75,0.75,1.21,2.02,1.21,3.57s0,1.51,0,6.06" style="fill:none;stroke:#999;stroke-width:3" />
<path d="M917.54,22.89c2.46,0.36,4.46,0.45,6.22,0.23c7.77-0.94,20.14-2.45,30.25-3.24c2.34-0.18,4.88-0.17,7.19,0.29" style="fill:none;stroke:#999;stroke-width:3" />
<path d="M925.25,26.12c2.96,3.67,4.57,7.6,4.84,10.02" style="fill:none;stroke:#999;stroke-width:3" />
<path d="M949.47,23.42c0.4,0.58,0.22,1.35-0.08,2.24c-1.14,3.33-3.18,8-3.95,9.47" style="fill:none;stroke:#999;stroke-width:3" />
<path d="M910.23,40.2c3.15,0.42,5.65,0.22,8.37-0.08c10.2-1.1,28.68-3.08,41.4-3.69c2.53-0.12,5.02-0.23,7.52,0.25" style="fill:none;stroke:#999;stroke-width:3" />
<path d="M919.84,49.08c0.79,0.79,1.62,1.76,1.92,3.06c0.86,3.73,1.92,9.61,2.93,15.83c0.22,1.32,0.42,2.53,0.6,3.53" style="fill:none;stroke:black;stroke-width:3" />
<circle cx="919.84" cy="49.08" r="5" stroke-width="0" fill="#FF2A00" opacity="0.7" />
<path d="M996.4200000000001,20.17c1.08,0.33,2.47,0.4,3.6,0.15c5.49-1.19,11.25-2.85,13.65-3.65c3-1,5,1.5,3.67,3.83C1016.0,22.83 1011.25,33 1008.5,38.25" style="fill:none;stroke:#999;stroke-width:3" />
<path d="M1008.5,38.25c13.33,8.33,9.5,36.25-0.83,27.5" style="fill:none;stroke:#999;stroke-width:3" />
<path d="M997.62,20.75c0.75,0.75,1.21,1.98,1.21,3c0,5.25-0.12,50-0.12,64.5c0,2.97-0.06,5.09-0.09,6" style="fill:none;stroke:#999;stroke-width:3" />
<path d="M1045.25,10.5c0.75,0.75,1.21,2.02,1.21,3.57s0,1.51,0,6.06" style="fill:none;stroke:#999;stroke-width:3" />
<path d="M1026.54,22.89c2.46,0.36,4.46,0.45,6.22,0.23c7.77-0.94,20.14-2.45,30.25-3.24c2.34-0.18,4.88-0.17,7.19,0.29" style="fill:none;stroke:#999;stroke-width:3" />
<path d="M1034.25,26.12c2.96,3.67,4.57,7.6,4.84,10.02" style="fill:none;stroke:#999;stroke-width:3" />
<path d="M1058.47,23.42c0.4,0.58,0.22,1.35-0.08,2.24c-1.14,3.33-3.18,8-3.95,9.47" style="fill:none;stroke:#999;stroke-width:3" />
<path d="M1019.23,40.2c3.15,0.42,5.65,0.22,8.37-0.08c10.2-1.1,28.68-3.08,41.4-3.69c2.53-0.12,5.02-0.23,7.52,0.25" style="fill:none;stroke:#999;stroke-width:3" />
<path d="M1028.8400000000001,49.08c0.79,0.79,1.62,1.76,1.92,3.06c0.86,3.73,1.92,9.61,2.93,15.83c0.22,1.32,0.42,2.53,0.6,3.53" style="fill:none;stroke:#999;stroke-width:3" />
<path d="M1030.64,50.01c6.94-1.02,25.53-3.5,31.6-4c3.32-0.27,4.37,1.07,3.93,4.39c-0.18,1.39-1.27,7.81-2.84,14.11c-0.24,0.98-0.5,1.96-0.77,2.92" style="fill:none;stroke:black;stroke-width:3" />
<circle cx="1030.64" cy="50.01" r="5" stroke-width="0" fill="#FF2A00" opacity="0.7" />
<path d="M1105.42,20.17c1.08,0.33,2.47,0.4,3.6,0.15c5.49-1.19,11.25-2.85,13.65-3.65c3-1,5,1.5,3.67,3.83C1125.0,22.83 1120.25,33 1117.5,38.25" style="fill:none;stroke:#999;stroke-width:3" />
<path d="M1117.5,38.25c13.33,8.33,9.5,36.25-0.83,27.5" style="fill:none;stroke:#999;stroke-width:3" />
<path d="M1106.62,20.75c0.75,0.75,1.21,1.98,1.21,3c0,5.25-0.12,50-0.12,64.5c0,2.97-0.06,5.09-0.09,6" style="fill:none;stroke:#999;stroke-width:3" />
<path d="M1154.25,10.5c0.75,0.75,1.21,2.02,1.21,3.57s0,1.51,0,6.06" style="fill:none;stroke:#999;stroke-width:3" />
<path d="M1135.54,22.89c2.46,0.36,4.46,0.45,6.22,0.23c7.77-0.94,20.14-2.45,30.25-3.24c2.34-0.18,4.88-0.17,7.19,0.29" style="fill:none;stroke:#999;stroke-width:3" />
<path d="M1143.25,26.12c2.96,3.67,4.57,7.6,4.84,10.02" style="fill:none;stroke:#999;stroke-width:3" />
<path d="M1167.47,23.42c0.4,0.58,0.22,1.35-0.08,2.24c-1.14,3.33-3.18,8-3.95,9.47" style="fill:none;stroke:#999;stroke-width:3" />
<path d="M1128.23,40.2c3.15,0.42,5.65,0.22,8.37-0.08c10.2-1.1,28.68-3.08,41.4-3.69c2.53-0.12,5.02-0.23,7.52,0.25" style="fill:none;stroke:#999;stroke-width:3" />
<path d="M1137.8400000000001,49.08c0.79,0.79,1.62,1.76,1.92,3.06c0.86,3.73,1.92,9.61,2.93,15.83c0.22,1.32,0.42,2.53,0.6,3.53" style="fill:none;stroke:#999;stroke-width:3" />
<path d="M1139.64,50.01c6.94-1.02,25.53-3.5,31.6-4c3.32-0.27,4.37,1.07,3.93,4.39c-0.18,1.39-1.27,7.81-2.84,14.11c-0.24,0.98-0.5,1.96-0.77,2.92" style="fill:none;stroke:#999;stroke-width:3" />
<path d="M1142.19,58.9c7.4-0.99,23.68-2.86,30.73-3.16" style="fill:none;stroke:black;stroke-width:3" />
<circle cx="1142.19" cy="58.9" r="5" stroke-width="0" fill="#FF2A00" opacity="0.7" />
<path d="M1214.42,20.17c1.08,0.33,2.47,0.4,3.6,0.15c5.49-1.19,11.25-2.85,13.65-3.65c3-1,5,1.5,3.67,3.83C1234.0,22.83 1229.25,33 1226.5,38.25" style="fill:none;stroke:#999;stroke-width:3" />
<path d="M1226.5,38.25c13.33,8.33,9.5,36.25-0.83,27.5" style="fill:none;stroke:#999;stroke-width:3" />
<path d="M1215.62,20.75c0.75,0.75,1.21,1.98,1.21,3c0,5.25-0.12,50-0.12,64.5c0,2.97-0.06,5.09-0.09,6" style="fill:none;stroke:#999;stroke-width:3" />
<path d="M1263.25,10.5c0.75,0.75,1.21,2.02,1.21,3.57s0,1.51,0,6.06" style="fill:none;stroke:#999;stroke-width:3" />
<path d="M1244.54,22.89c2.46,0.36,4.46,0.45,6.22,0.23c7.77-0.94,20.14-2.45,30.25-3.24c2.34-0.18,4.88-0.17,7.19,0.29" style="fill:none;stroke:#999;stroke-width:3" />
<path d="M1252.25,26.12c2.96,3.67,4.57,7.6,4.84,10.02" style="fill:none;stroke:#999;stroke-width:3" />
<path d="M1276.47,23.42c0.4,0.58,0.22,1.35-0.08,2.24c-1.14,3.33-3.18,8-3.95,9.47" style="fill:none;stroke:#999;stroke-width:3" />
<path d="M1237.23,40.2c3.15,0.42,5.65,0.22,8.37-0.08c10.2-1.1,28.68-3.08,41.4-3.69c2.53-0.12,5.02-0.23,7.52,0.25" style="fill:none;stroke:#999;stroke-width:3" />
<path d="M1246.8400000000001,49.08c0.79,0.79,1.62,1.76,1.92,3.06c0.86,3.73,1.92,9.61,2.93,15.83c0.22,1.32,0.42,2.53,0.6,3.53" style="fill:none;stroke:#999;stroke-width:3" />
<path d="M1248.64,50.01c6.94-1.02,25.53-3.5,31.6-4c3.32-0.27,4.37,1.07,3.93,4.39c-0.18,1.39-1.27,7.81-2.84,14.11c-0.24,0.98-0.5,1.96-0.77,2.92" style="fill:none;stroke:#999;stroke-width:3" />
<path d="M1251.19,58.9c7.4-0.99,23.68-2.86,30.73-3.16" style="fill:none;stroke:#999;stroke-width:3" />
<path d="M1253.04,68.53c7.96-1.28,22.34-2.65,26.67-2.88" style="fill:none;stroke:black;stroke-width:3" />
<circle cx="1253.04" cy="68.53" r="5" stroke-width="0" fill="#FF2A00" opacity="0.7" />
<path d="M1323.42,20.17c1.08,0.33,2.47,0.4,3.6,0.15c5.49-1.19,11.25-2.85,13.65-3.65c3-1,5,1.5,3.67,3.83C1343.0,22.83 1338.25,33 1335.5,38.25" style="fill:none;stroke:#999;stroke-width:3" />
<path d="M1335.5,38.25c13.33,8.33,9.5,36.25-0.83,27.5" style="fill:none;stroke:#999;stroke-width:3" />
<path d="M1324.62,20.75c0.75,0.75,1.21,1.98,1.21,3c0,5.25-0.12,50-0.12,64.5c0,2.97-0.06,5.09-0.09,6" style="fill:none;stroke:#999;stroke-width:3" />
<path d="M1372.25,10.5c0.75,0.75,1.21,2.02,1.21,3.57s0,1.51,0,6.06" style="fill:none;stroke:#999;stroke-width:3" />
<path d="M1353.54,22.89c2.46,0.36,4.46,0.45,6.22,0.23c7.77-0.94,20.14-2.45,30.25-3.24c2.34-0.18,4.88-0.17,7.19,0.29" style="fill:none;stroke:#999;stroke-width:3" />
<path d="M1361.25,26.12c2.96,3.67,4.57,7.6,4.84,10.02" style="fill:none;stroke:#999;stroke-width:3" />
<path d="M1385.47,23.42c0.4,0.58,0.22,1.35-0.08,2.24c-1.14,3.33-3.18,8-3.95,9.47" style="fill:none;stroke:#999;stroke-width:3" />
<path d="M1346.23,40.2c3.15,0.42,5.65,0.22,8.37-0.08c10.2-1.1,28.68-3.08,41.4-3.69c2.53-0.12,5.02-0.23,7.52,0.25" style="fill:none;stroke:#999;stroke-width:3" />
<path d="M1355.8400000000001,49.08c0.79,0.79,1.62,1.76,1.92,3.06c0.86,3.73,1.92,9.61,2.93,15.83c0.22,1.32,0.42,2.53,0.6,3.53" style="fill:none;stroke:#999;stroke-width:3" />
<path d="M1357.64,50.01c6.94-1.02,25.53-3.5,31.6-4c3.32-0.27,4.37,1.07,3.93,4.39c-0.18,1.39-1.27,7.81-2.84,14.11c-0.24,0.98-0.5,1.96-0.77,2.92" style="fill:none;stroke:#999;stroke-width:3" />
<path d="M1360.19,58.9c7.4-0.99,23.68-2.86,30.73-3.16" style="fill:none;stroke:#999;stroke-width:3" />
<path d="M1362.04,68.53c7.96-1.28,22.34-2.65,26.67-2.88" style="fill:none;stroke:#999;stroke-width:3" />
<path d="M1344.28,81.26c2.55,0.71,5.5,0.58,8.09,0.33c12.38-1.21,30.88-2.96,44.89-3.31c2.64-0.07,5.38,0.04,7.99,0.48" style="fill:none;stroke:black;stroke-width:3" />
<circle cx="1344.28" cy="81.26" r="5" stroke-width="0" fill="#FF2A00" opacity="0.7" />
<path d="M1432.42,20.17c1.08,0.33,2.47,0.4,3.6,0.15c5.49-1.19,11.25-2.85,13.65-3.65c3-1,5,1.5,3.67,3.83C1452.0,22.83 1447.25,33 1444.5,38.25" style="fill:none;stroke:#999;stroke-width:3" />
<path d="M1444.5,38.25c13.33,8.33,9.5,36.25-0.83,27.5" style="fill:none;stroke:#999;stroke-width:3" />
<path d="M1433.62,20.75c0.75,0.75,1.21,1.98,1.21,3c0,5.25-0.12,50-0.12,64.5c0,2.97-0.06,5.09-0.09,6" style="fill:none;stroke:#999;stroke-width:3" />
<path d="M1481.25,10.5c0.75,0.75,1.21,2.02,1.21,3.57s0,1.51,0,6.06" style="fill:none;stroke:#999;stroke-width:3" />
<path d="M1462.54,22.89c2.46,0.36,4.46,0.45,6.22,0.23c7.77-0.94,20.14-2.45,30.25-3.24c2.34-0.18,4.88-0.17,7.19,0.29" style="fill:none;stroke:#999;stroke-width:3" />
<path d="M1470.25,26.12c2.96,3.67,4.57,7.6,4.84,10.02" style="fill:none;stroke:#999;stroke-width:3" />
<path d="M1494.47,23.42c0.4,0.58,0.22,1.35-0.08,2.24c-1.14,3.33-3.18,8-3.95,9.47" style="fill:none;stroke:#999;stroke-width:3" />
<path d="M1455.23,40.2c3.15,0.42,5.65,0.22,8.37-0.08c10.2-1.1,28.68-3.08,41.4-3.69c2.53-0.12,5.02-0.23,7.52,0.25" style="fill:none;stroke:#999;stroke-width:3" />
<path d="M1464.8400000000001,49.08c0.79,0.79,1.62,1.76,1.92,3.06c0.86,3.73,1.92,9.61,2.93,15.83c0.22,1.32,0.42,2.53,0.6,3.53" style="fill:none;stroke:#999;stroke-width:3" />
<path d="M1466.64,50.01c6.94-1.02,25.53-3.5,31.6-4c3.32-0.27,4.37,1.07,3.93,4.39c-0.18,1.39-1.27,7.81-2.84,14.11c-0.24,0.98-0.5,1.96-0.77,2.92" style="fill:none;stroke:#999;stroke-width:3" />
<path d="M1469.19,58.9c7.4-0.99,23.68-2.86,30.73-3.16" style="fill:none;stroke:#999;stroke-width:3" />
<path d="M1471.04,68.53c7.96-1.28,22.34-2.65,26.67-2.88" style="fill:none;stroke:#999;stroke-width:3" />
<path d="M1453.28,81.26c2.55,0.71,5.5,0.58,8.09,0.33c12.38-1.21,30.88-2.96,44.89-3.31c2.64-0.07,5.38,0.04,7.99,0.48" style="fill:none;stroke:#999;stroke-width:3" />
<path d="M1482.88,69.48c0.82,0.82,1.34,2.14,1.34,3.35c0,0.54,0,11.48-0.06,19.42c-0.02,2.46-0.04,4.46-0.05,5.5" style="fill:none;stroke:black;stroke-width:3" />
<circle cx="1482.88" cy="69.48" r="5" stroke-width="0" fill="#FF2A00" opacity="0.7" />
</svg>