<!-- 096a8 -->
<svg width="1744px" height="109px" viewBox="0 0 1744px 109px" xmlns="http://www.w3.org/2000/svg" xmlns:xlink="http://www.w3.org/1999/xlink" xml:space="preserve" version="1.1"  baseProfile="full">
<line x1="1" y1="1" x2="1743" y2="1" style="stroke:#ddd;stroke-width:2" />
<line x1="1" y1="1" x2="1" y2="108" style="stroke:#ddd;stroke-width:2" />
<line x1="1" y1="108" x2="1743" y2="108" style="stroke:#ddd;stroke-width:2" />
<line x1="1743" y1="1" x2="1743" y2="108" style="stroke:#ddd;stroke-width:2" />
<line x1="109" y1="1" x2="109" y2="108" style="stroke:#ddd;stroke-width:2" />
<line x1="218" y1="1" x2="218" y2="108" style="stroke:#ddd;stroke-width:2" />
<line x1="327" y1="1" x2="327" y2="108" style="stroke:#ddd;stroke-width:2" />
<line x1="436" y1="1" x2="436" y2="108" style="stroke:#ddd;stroke-width:2" />
<line x1="545" y1="1" x2="545" y2="108" style="stroke:#ddd;stroke-width:2" />
<line x1="654" y1="1" x2="654" y2="108" style="stroke:#ddd;stroke-width:2" />
<line x1="763" y1="1" x2="763" y2="108" style="stroke:#ddd;stroke-width:2" />
<line x1="872" y1="1" x2="872" y2="108" style="stroke:#ddd;stroke-width:2" />
<line x1="981" y1="1" x2="981" y2="108" style="stroke:#ddd;stroke-width:2" />
<line x1="1090" y1="1" x2="1090" y2="108" style="stroke:#ddd;stroke-width:2" />
<line x1="1199" y1="1" x2="1199" y2="108" style="stroke:#ddd;stroke-width:2" />
<line x1="1308" y1="1" x2="1308" y2="108" style="stroke:#ddd;stroke-width:2" />
<line x1="1417" y1="1" x2="1417" y2="108" style="stroke:#ddd;stroke-width:2" />
<line x1="1526" y1="1" x2="1526" y2="108" style="stroke:#ddd;stroke-width:2" />
<line x1="1635" y1="1" x2="1635" y2="108" style="stroke:#ddd;stroke-width:2" />
<line x1="1" y1="54" x2="1743" y2="54" style="stroke:#ddd;stroke-width:2;stroke-dasharray:3 3" />
<line x1="55" y1="1" x2="55" y2="108" style="stroke:#ddd;stroke-width:2;stroke-dasharray:3 3" />
<line x1="164" y1="1" x2="164" y2="108" style="stroke:#ddd;stroke-width:2;stroke-dasharray:3 3" />
<line x1="273" y1="1" x2="273" y2="108" style="stroke:#ddd;stroke-width:2;stroke-dasharray:3 3" />
<line x1="382" y1="1" x2="382" y2="108" style="stroke:#ddd;stroke-width:2;stroke-dasharray:3 3" />
<line x1="491" y1="1" x2="491" y2="108" style="stroke:#ddd;stroke-width:2;stroke-dasharray:3 3" />
<line x1="600" y1="1" x2="600" y2="108" style="stroke:#ddd;stroke-width:2;stroke-dasharray:3 3" />
<line x1="709" y1="1" x2="709" y2="108" style="stroke:#ddd;stroke-width:2;stroke-dasharray:3 3" />
<line x1="818" y1="1" x2="818" y2="108" style="stroke:#ddd;stroke-width:2;stroke-dasharray:3 3" />
<line x1="927" y1="1" x2="927" y2="108" style="stroke:#ddd;stroke-width:2;stroke-dasharray:3 3" />
<line x1="1036" y1="1" x2="1036" y2="108" style="stroke:#ddd;stroke-width:2;stroke-dasharray:3 3" />
<line x1="1145" y1="1" x2="1145" y2="108" style="stroke:#ddd;stroke-width:2;stroke-dasharray:3 3" />
<line x1="1254" y1="1" x2="1254" y2="108" style="stroke:#ddd;stroke-width:2;stroke-dasharray:3 3" />
<line x1="1363" y1="1" x2="1363" y2="108" style="stroke:#ddd;stroke-width:2;stroke-dasharray:3 3" />
<line x1="1472" y1="1" x2="1472" y2="108" style="stroke:#ddd;stroke-width:2;stroke-dasharray:3 3" />
<line x1="1581" y1="1" x2="1581" y2="108" style="stroke:#ddd;stroke-width:2;stroke-dasharray:3 3" />
<line x1="1690" y1="1" x2="1690" y2="108" style="stroke:#ddd;stroke-width:2;stroke-dasharray:3 3" />
<path d="M14.25,16.5c1.11,0.32,2.29,0.64,3.49,0.56c4.51-0.31,7.26-0.81,11.5-1.86c2.95-0.73,5.65,1.11,4.4,3.71c-1.26,2.6-6.59,15.21-8.79,18.92" style="fill:none;stroke:black;stroke-width:3" />
<circle cx="14.25" cy="16.5" r="5" stroke-width="0" fill="#FF2A00" opacity="0.7" />
<path d="M123.25,16.5c1.11,0.32,2.29,0.64,3.49,0.56c4.51-0.31,7.26-0.81,11.5-1.86c2.95-0.73,5.65,1.11,4.4,3.71c-1.26,2.6-6.59,15.21-8.79,18.92" style="fill:none;stroke:#999;stroke-width:3" />
<path d="M133.35,39.33C145.91,48.11 144.0,80.25 133.42000000000002,68.39" style="fill:none;stroke:black;stroke-width:3" />
<circle cx="133.35" cy="39.33" r="5" stroke-width="0" fill="#FF2A00" opacity="0.7" />
<path d="M232.25,16.5c1.11,0.32,2.29,0.64,3.49,0.56c4.51-0.31,7.26-0.81,11.5-1.86c2.95-0.73,5.65,1.11,4.4,3.71c-1.26,2.6-6.59,15.21-8.79,18.92" style="fill:none;stroke:#999;stroke-width:3" />
<path d="M242.35,39.33C254.91,48.11 253.0,80.25 242.42000000000002,68.39" style="fill:none;stroke:#999;stroke-width:3" />
<path d="M233.89,16.71c0.36,1.54,0.1,3.95,0.31,5.04c0.2,1.09,0,68.44-0.2,75.25" style="fill:none;stroke:black;stroke-width:3" />
<circle cx="233.89" cy="16.71" r="5" stroke-width="0" fill="#FF2A00" opacity="0.7" />
<path d="M341.25,16.5c1.11,0.32,2.29,0.64,3.49,0.56c4.51-0.31,7.26-0.81,11.5-1.86c2.95-0.73,5.65,1.11,4.4,3.71c-1.26,2.6-6.59,15.21-8.79,18.92" style="fill:none;stroke:#999;stroke-width:3" />
<path d="M351.35,39.33C363.90999999999997,48.11 362.0,80.25 351.42,68.39" style="fill:none;stroke:#999;stroke-width:3" />
<path d="M342.89,16.71c0.36,1.54,0.1,3.95,0.31,5.04c0.2,1.09,0,68.44-0.2,75.25" style="fill:none;stroke:#999;stroke-width:3" />
<path d="M383.85,21.3c1.25,0.17,2.5,0.34,3.62,0.26c9.82-0.72,17.05-1.62,29.28-2.38c1.72-0.11,2.62-0.11,4.02,0.22" style="fill:none;stroke:black;stroke-width:3" />
<circle cx="383.85" cy="21.3" r="5" stroke-width="0" fill="#FF2A00" opacity="0.7" />
<path d="M450.25,16.5c1.11,0.32,2.29,0.64,3.49,0.56c4.51-0.31,7.26-0.81,11.5-1.86c2.95-0.73,5.65,1.11,4.4,3.71c-1.26,2.6-6.59,15.21-8.79,18.92" style="fill:none;stroke:#999;stroke-width:3" />
<path d="M460.35,39.33C472.90999999999997,48.11 471.0,80.25 460.42,68.39" style="fill:none;stroke:#999;stroke-width:3" />
<path d="M451.89,16.71c0.36,1.54,0.1,3.95,0.31,5.04c0.2,1.09,0,68.44-0.2,75.25" style="fill:none;stroke:#999;stroke-width:3" />
<path d="M492.85,21.3c1.25,0.17,2.5,0.34,3.62,0.26c9.82-0.72,17.05-1.62,29.28-2.38c1.72-0.11,2.62-0.11,4.02,0.22" style="fill:none;stroke:#999;stroke-width:3" />
<path d="M508.8,12.5c0.12,0.59,0.28,1.71-0.02,2.34C504.25,24.5 498.0,35.25 490.12,41.79" style="fill:none;stroke:black;stroke-width:3" />
<circle cx="508.8" cy="12.5" r="5" stroke-width="0" fill="#FF2A00" opacity="0.7" />
<path d="M559.25,16.5c1.11,0.32,2.29,0.64,3.49,0.56c4.51-0.31,7.26-0.81,11.5-1.86c2.95-0.73,5.65,1.11,4.4,3.71c-1.26,2.6-6.59,15.21-8.79,18.92" style="fill:none;stroke:#999;stroke-width:3" />
<path d="M569.35,39.33C581.91,48.11 580.0,80.25 569.4200000000001,68.39" style="fill:none;stroke:#999;stroke-width:3" />
<path d="M560.89,16.71c0.36,1.54,0.1,3.95,0.31,5.04c0.2,1.09,0,68.44-0.2,75.25" style="fill:none;stroke:#999;stroke-width:3" />
<path d="M601.85,21.3c1.25,0.17,2.5,0.34,3.62,0.26c9.82-0.72,17.05-1.62,29.28-2.38c1.72-0.11,2.62-0.11,4.02,0.22" style="fill:none;stroke:#999;stroke-width:3" />
<path d="M617.8,12.5c0.12,0.59,0.28,1.71-0.02,2.34C613.25,24.5 607.0,35.25 599.12,41.79" style="fill:none;stroke:#999;stroke-width:3" />
<path d="M612.5,29.76c0.41,0.2,2.37,0.24,2.79,0.21c3.12-0.25,12.21-1.04,16.82-1.67c0.63-0.09,2.13,0.04,2.66,0.21" style="fill:none;stroke:black;stroke-width:3" />
<circle cx="612.5" cy="29.76" r="5" stroke-width="0" fill="#FF2A00" opacity="0.7" />
<path d="M668.25,16.5c1.11,0.32,2.29,0.64,3.49,0.56c4.51-0.31,7.26-0.81,11.5-1.86c2.95-0.73,5.65,1.11,4.4,3.71c-1.26,2.6-6.59,15.21-8.79,18.92" style="fill:none;stroke:#999;stroke-width:3" />
<path d="M678.35,39.33C690.91,48.11 689.0,80.25 678.4200000000001,68.39" style="fill:none;stroke:#999;stroke-width:3" />
<path d="M669.89,16.71c0.36,1.54,0.1,3.95,0.31,5.04c0.2,1.09,0,68.44-0.2,75.25" style="fill:none;stroke:#999;stroke-width:3" />
<path d="M710.85,21.3c1.25,0.17,2.5,0.34,3.62,0.26c9.82-0.72,17.05-1.62,29.28-2.38c1.72-0.11,2.62-0.11,4.02,0.22" style="fill:none;stroke:#999;stroke-width:3" />
<path d="M726.8,12.5c0.12,0.59,0.28,1.71-0.02,2.34C722.25,24.5 716.0,35.25 708.12,41.79" style="fill:none;stroke:#999;stroke-width:3" />
<path d="M721.5,29.76c0.41,0.2,2.37,0.24,2.79,0.21c3.12-0.25,12.21-1.04,16.82-1.67c0.63-0.09,2.13,0.04,2.66,0.21" style="fill:none;stroke:#999;stroke-width:3" />
<path d="M730.03,29.72c0.85,0.62,1.16,1.47,1.16,1.96c0,2.35,0.03,4.9,0.03,7.36" style="fill:none;stroke:black;stroke-width:3" />
<circle cx="730.03" cy="29.72" r="5" stroke-width="0" fill="#FF2A00" opacity="0.7" />
<path d="M777.25,16.5c1.11,0.32,2.29,0.64,3.49,0.56c4.51-0.31,7.26-0.81,11.5-1.86c2.95-0.73,5.65,1.11,4.4,3.71c-1.26,2.6-6.59,15.21-8.79,18.92" style="fill:none;stroke:#999;stroke-width:3" />
<path d="M787.35,39.33C799.91,48.11 798.0,80.25 787.4200000000001,68.39" style="fill:none;stroke:#999;stroke-width:3" />
<path d="M778.89,16.71c0.36,1.54,0.1,3.95,0.31,5.04c0.2,1.09,0,68.44-0.2,75.25" style="fill:none;stroke:#999;stroke-width:3" />
<path d="M819.85,21.3c1.25,0.17,2.5,0.34,3.62,0.26c9.82-0.72,17.05-1.62,29.28-2.38c1.72-0.11,2.62-0.11,4.02,0.22" style="fill:none;stroke:#999;stroke-width:3" />
<path d="M835.8,12.5c0.12,0.59,0.28,1.71-0.02,2.34C831.25,24.5 825.0,35.25 817.12,41.79" style="fill:none;stroke:#999;stroke-width:3" />
<path d="M830.5,29.76c0.41,0.2,2.37,0.24,2.79,0.21c3.12-0.25,12.21-1.04,16.82-1.67c0.63-0.09,2.13,0.04,2.66,0.21" style="fill:none;stroke:#999;stroke-width:3" />
<path d="M839.03,29.72c0.85,0.62,1.16,1.47,1.16,1.96c0,2.35,0.03,4.9,0.03,7.36" style="fill:none;stroke:#999;stroke-width:3" />
<path d="M825.54,41.45c0.56,0.16,2.24,0.34,3.18,0.25c7.03-0.7,19.79-2.96,27.03-3.34c1.51-0.08,2.73,0.26,3.49,0.5" style="fill:none;stroke:black;stroke-width:3" />
<circle cx="825.54" cy="41.45" r="5" stroke-width="0" fill="#FF2A00" opacity="0.7" />
<path d="M886.25,16.5c1.11,0.32,2.29,0.64,3.49,0.56c4.51-0.31,7.26-0.81,11.5-1.86c2.95-0.73,5.65,1.11,4.4,3.71c-1.26,2.6-6.59,15.21-8.79,18.92" style="fill:none;stroke:#999;stroke-width:3" />
<path d="M896.35,39.33C908.91,48.11 907.0,80.25 896.4200000000001,68.39" style="fill:none;stroke:#999;stroke-width:3" />
<path d="M887.89,16.71c0.36,1.54,0.1,3.95,0.31,5.04c0.2,1.09,0,68.44-0.2,75.25" style="fill:none;stroke:#999;stroke-width:3" />
<path d="M928.85,21.3c1.25,0.17,2.5,0.34,3.62,0.26c9.82-0.72,17.05-1.62,29.28-2.38c1.72-0.11,2.62-0.11,4.02,0.22" style="fill:none;stroke:#999;stroke-width:3" />
<path d="M944.8,12.5c0.12,0.59,0.28,1.71-0.02,2.34C940.25,24.5 934.0,35.25 926.12,41.79" style="fill:none;stroke:#999;stroke-width:3" />
<path d="M939.5,29.76c0.41,0.2,2.37,0.24,2.79,0.21c3.12-0.25,12.21-1.04,16.82-1.67c0.63-0.09,2.13,0.04,2.66,0.21" style="fill:none;stroke:#999;stroke-width:3" />
<path d="M948.03,29.72c0.85,0.62,1.16,1.47,1.16,1.96c0,2.35,0.03,4.9,0.03,7.36" style="fill:none;stroke:#999;stroke-width:3" />
<path d="M934.54,41.45c0.56,0.16,2.24,0.34,3.18,0.25c7.03-0.7,19.79-2.96,27.03-3.34c1.51-0.08,2.73,0.26,3.49,0.5" style="fill:none;stroke:#999;stroke-width:3" />
<path d="M935.18,48.34c0.48,0.56,0.79,1.12,0.95,1.67c0.16,0.55,0.22,34.06,0.16,35.28" style="fill:none;stroke:black;stroke-width:3" />
<circle cx="935.18" cy="48.34" r="5" stroke-width="0" fill="#FF2A00" opacity="0.7" />
<path d="M995.25,16.5c1.11,0.32,2.29,0.64,3.49,0.56c4.51-0.31,7.26-0.81,11.5-1.86c2.95-0.73,5.65,1.11,4.4,3.71c-1.26,2.6-6.59,15.21-8.79,18.92" style="fill:none;stroke:#999;stroke-width:3" />
<path d="M1005.35,39.33C1017.91,48.11 1016.0,80.25 1005.4200000000001,68.39" style="fill:none;stroke:#999;stroke-width:3" />
<path d="M996.89,16.71c0.36,1.54,0.1,3.95,0.31,5.04c0.2,1.09,0,68.44-0.2,75.25" style="fill:none;stroke:#999;stroke-width:3" />
<path d="M1037.85,21.3c1.25,0.17,2.5,0.34,3.62,0.26c9.82-0.72,17.05-1.62,29.28-2.38c1.72-0.11,2.62-0.11,4.02,0.22" style="fill:none;stroke:#999;stroke-width:3" />
<path d="M1053.8,12.5c0.12,0.59,0.28,1.71-0.02,2.34C1049.25,24.5 1043.0,35.25 1035.12,41.79" style="fill:none;stroke:#999;stroke-width:3" />
<path d="M1048.5,29.76c0.41,0.2,2.37,0.24,2.79,0.21c3.12-0.25,12.21-1.04,16.82-1.67c0.63-0.09,2.13,0.04,2.66,0.21" style="fill:none;stroke:#999;stroke-width:3" />
<path d="M1057.03,29.72c0.85,0.62,1.16,1.47,1.16,1.96c0,2.35,0.03,4.9,0.03,7.36" style="fill:none;stroke:#999;stroke-width:3" />
<path d="M1043.54,41.45c0.56,0.16,2.24,0.34,3.18,0.25c7.03-0.7,19.79-2.96,27.03-3.34c1.51-0.08,2.73,0.26,3.49,0.5" style="fill:none;stroke:#999;stroke-width:3" />
<path d="M1044.1799999999998,48.34c0.48,0.56,0.79,1.12,0.95,1.67c0.16,0.55,0.22,34.06,0.16,35.28" style="fill:none;stroke:#999;stroke-width:3" />
<path d="M1046.09,49.52c1.9-0.05,17.86-1.95,19.27-2.04c2.54-0.15,3.49,1.92,3.17,2.72c-0.31,0.77-0.48,18.6-0.48,29.58c0,9.73-4.35,3.99-6.48,1.82" style="fill:none;stroke:black;stroke-width:3" />
<circle cx="1046.09" cy="49.52" r="5" stroke-width="0" fill="#FF2A00" opacity="0.7" />
<path d="M1104.25,16.5c1.11,0.32,2.29,0.64,3.49,0.56c4.51-0.31,7.26-0.81,11.5-1.86c2.95-0.73,5.65,1.11,4.4,3.71c-1.26,2.6-6.59,15.21-8.79,18.92" style="fill:none;stroke:#999;stroke-width:3" />
<path d="M1114.35,39.33C1126.9099999999999,48.11 1125.0,80.25 1114.42,68.39" style="fill:none;stroke:#999;stroke-width:3" />
<path d="M1105.8899999999999,16.71c0.36,1.54,0.1,3.95,0.31,5.04c0.2,1.09,0,68.44-0.2,75.25" style="fill:none;stroke:#999;stroke-width:3" />
<path d="M1146.85,21.3c1.25,0.17,2.5,0.34,3.62,0.26c9.82-0.72,17.05-1.62,29.28-2.38c1.72-0.11,2.62-0.11,4.02,0.22" style="fill:none;stroke:#999;stroke-width:3" />
<path d="M1162.8,12.5c0.12,0.59,0.28,1.71-0.02,2.34C1158.25,24.5 1152.0,35.25 1144.12,41.79" style="fill:none;stroke:#999;stroke-width:3" />
<path d="M1157.5,29.76c0.41,0.2,2.37,0.24,2.79,0.21c3.12-0.25,12.21-1.04,16.82-1.67c0.63-0.09,2.13,0.04,2.66,0.21" style="fill:none;stroke:#999;stroke-width:3" />
<path d="M1166.03,29.72c0.85,0.62,1.16,1.47,1.16,1.96c0,2.35,0.03,4.9,0.03,7.36" style="fill:none;stroke:#999;stroke-width:3" />
<path d="M1152.54,41.45c0.56,0.16,2.24,0.34,3.18,0.25c7.03-0.7,19.79-2.96,27.03-3.34c1.51-0.08,2.73,0.26,3.49,0.5" style="fill:none;stroke:#999;stroke-width:3" />
<path d="M1153.1799999999998,48.34c0.48,0.56,0.79,1.12,0.95,1.67c0.16,0.55,0.22,34.06,0.16,35.28" style="fill:none;stroke:#999;stroke-width:3" />
<path d="M1155.09,49.52c1.9-0.05,17.86-1.95,19.27-2.04c2.54-0.15,3.49,1.92,3.17,2.72c-0.31,0.77-0.48,18.6-0.48,29.58c0,9.73-4.35,3.99-6.48,1.82" style="fill:none;stroke:#999;stroke-width:3" />
<path d="M1154.59,60.18c6.5-0.51,15.63-1.66,21.33-1.81" style="fill:none;stroke:black;stroke-width:3" />
<circle cx="1154.59" cy="60.18" r="5" stroke-width="0" fill="#FF2A00" opacity="0.7" />
<path d="M1213.25,16.5c1.11,0.32,2.29,0.64,3.49,0.56c4.51-0.31,7.26-0.81,11.5-1.86c2.95-0.73,5.65,1.11,4.4,3.71c-1.26,2.6-6.59,15.21-8.79,18.92" style="fill:none;stroke:#999;stroke-width:3" />
<path d="M1223.35,39.33C1235.9099999999999,48.11 1234.0,80.25 1223.42,68.39" style="fill:none;stroke:#999;stroke-width:3" />
<path d="M1214.8899999999999,16.71c0.36,1.54,0.1,3.95,0.31,5.04c0.2,1.09,0,68.44-0.2,75.25" style="fill:none;stroke:#999;stroke-width:3" />
<path d="M1255.85,21.3c1.25,0.17,2.5,0.34,3.62,0.26c9.82-0.72,17.05-1.62,29.28-2.38c1.72-0.11,2.62-0.11,4.02,0.22" style="fill:none;stroke:#999;stroke-width:3" />
<path d="M1271.8,12.5c0.12,0.59,0.28,1.71-0.02,2.34C1267.25,24.5 1261.0,35.25 1253.12,41.79" style="fill:none;stroke:#999;stroke-width:3" />
<path d="M1266.5,29.76c0.41,0.2,2.37,0.24,2.79,0.21c3.12-0.25,12.21-1.04,16.82-1.67c0.63-0.09,2.13,0.04,2.66,0.21" style="fill:none;stroke:#999;stroke-width:3" />
<path d="M1275.03,29.72c0.85,0.62,1.16,1.47,1.16,1.96c0,2.35,0.03,4.9,0.03,7.36" style="fill:none;stroke:#999;stroke-width:3" />
<path d="M1261.54,41.45c0.56,0.16,2.24,0.34,3.18,0.25c7.03-0.7,19.79-2.96,27.03-3.34c1.51-0.08,2.73,0.26,3.49,0.5" style="fill:none;stroke:#999;stroke-width:3" />
<path d="M1262.1799999999998,48.34c0.48,0.56,0.79,1.12,0.95,1.67c0.16,0.55,0.22,34.06,0.16,35.28" style="fill:none;stroke:#999;stroke-width:3" />
<path d="M1264.09,49.52c1.9-0.05,17.86-1.95,19.27-2.04c2.54-0.15,3.49,1.92,3.17,2.72c-0.31,0.77-0.48,18.6-0.48,29.58c0,9.73-4.35,3.99-6.48,1.82" style="fill:none;stroke:#999;stroke-width:3" />
<path d="M1263.59,60.18c6.5-0.51,15.63-1.66,21.33-1.81" style="fill:none;stroke:#999;stroke-width:3" />
<path d="M1263.32,70.13c5.07-0.17,15.33-1.15,22.61-1.73" style="fill:none;stroke:black;stroke-width:3" />
<circle cx="1263.32" cy="70.13" r="5" stroke-width="0" fill="#FF2A00" opacity="0.7" />
<path d="M1322.25,16.5c1.11,0.32,2.29,0.64,3.49,0.56c4.51-0.31,7.26-0.81,11.5-1.86c2.95-0.73,5.65,1.11,4.4,3.71c-1.26,2.6-6.59,15.21-8.79,18.92" style="fill:none;stroke:#999;stroke-width:3" />
<path d="M1332.35,39.33C1344.9099999999999,48.11 1343.0,80.25 1332.42,68.39" style="fill:none;stroke:#999;stroke-width:3" />
<path d="M1323.8899999999999,16.71c0.36,1.54,0.1,3.95,0.31,5.04c0.2,1.09,0,68.44-0.2,75.25" style="fill:none;stroke:#999;stroke-width:3" />
<path d="M1364.85,21.3c1.25,0.17,2.5,0.34,3.62,0.26c9.82-0.72,17.05-1.62,29.28-2.38c1.72-0.11,2.62-0.11,4.02,0.22" style="fill:none;stroke:#999;stroke-width:3" />
<path d="M1380.8,12.5c0.12,0.59,0.28,1.71-0.02,2.34C1376.25,24.5 1370.0,35.25 1362.12,41.79" style="fill:none;stroke:#999;stroke-width:3" />
<path d="M1375.5,29.76c0.41,0.2,2.37,0.24,2.79,0.21c3.12-0.25,12.21-1.04,16.82-1.67c0.63-0.09,2.13,0.04,2.66,0.21" style="fill:none;stroke:#999;stroke-width:3" />
<path d="M1384.03,29.72c0.85,0.62,1.16,1.47,1.16,1.96c0,2.35,0.03,4.9,0.03,7.36" style="fill:none;stroke:#999;stroke-width:3" />
<path d="M1370.54,41.45c0.56,0.16,2.24,0.34,3.18,0.25c7.03-0.7,19.79-2.96,27.03-3.34c1.51-0.08,2.73,0.26,3.49,0.5" style="fill:none;stroke:#999;stroke-width:3" />
<path d="M1371.1799999999998,48.34c0.48,0.56,0.79,1.12,0.95,1.67c0.16,0.55,0.22,34.06,0.16,35.28" style="fill:none;stroke:#999;stroke-width:3" />
<path d="M1373.09,49.52c1.9-0.05,17.86-1.95,19.27-2.04c2.54-0.15,3.49,1.92,3.17,2.72c-0.31,0.77-0.48,18.6-0.48,29.58c0,9.73-4.35,3.99-6.48,1.82" style="fill:none;stroke:#999;stroke-width:3" />
<path d="M1372.59,60.18c6.5-0.51,15.63-1.66,21.33-1.81" style="fill:none;stroke:#999;stroke-width:3" />
<path d="M1372.32,70.13c5.07-0.17,15.33-1.15,22.61-1.73" style="fill:none;stroke:#999;stroke-width:3" />
<path d="M1351.6,17.75c2.49,1.28,6.43,5.27,7.06,7.27" style="fill:none;stroke:black;stroke-width:3" />
<circle cx="1351.6" cy="17.75" r="5" stroke-width="0" fill="#FF2A00" opacity="0.7" />
<path d="M1431.25,16.5c1.11,0.32,2.29,0.64,3.49,0.56c4.51-0.31,7.26-0.81,11.5-1.86c2.95-0.73,5.65,1.11,4.4,3.71c-1.26,2.6-6.59,15.21-8.79,18.92" style="fill:none;stroke:#999;stroke-width:3" />
<path d="M1441.35,39.33C1453.9099999999999,48.11 1452.0,80.25 1441.42,68.39" style="fill:none;stroke:#999;stroke-width:3" />
<path d="M1432.8899999999999,16.71c0.36,1.54,0.1,3.95,0.31,5.04c0.2,1.09,0,68.44-0.2,75.25" style="fill:none;stroke:#999;stroke-width:3" />
<path d="M1473.85,21.3c1.25,0.17,2.5,0.34,3.62,0.26c9.82-0.72,17.05-1.62,29.28-2.38c1.72-0.11,2.62-0.11,4.02,0.22" style="fill:none;stroke:#999;stroke-width:3" />
<path d="M1489.8,12.5c0.12,0.59,0.28,1.71-0.02,2.34C1485.25,24.5 1479.0,35.25 1471.12,41.79" style="fill:none;stroke:#999;stroke-width:3" />
<path d="M1484.5,29.76c0.41,0.2,2.37,0.24,2.79,0.21c3.12-0.25,12.21-1.04,16.82-1.67c0.63-0.09,2.13,0.04,2.66,0.21" style="fill:none;stroke:#999;stroke-width:3" />
<path d="M1493.03,29.72c0.85,0.62,1.16,1.47,1.16,1.96c0,2.35,0.03,4.9,0.03,7.36" style="fill:none;stroke:#999;stroke-width:3" />
<path d="M1479.54,41.45c0.56,0.16,2.24,0.34,3.18,0.25c7.03-0.7,19.79-2.96,27.03-3.34c1.51-0.08,2.73,0.26,3.49,0.5" style="fill:none;stroke:#999;stroke-width:3" />
<path d="M1480.1799999999998,48.34c0.48,0.56,0.79,1.12,0.95,1.67c0.16,0.55,0.22,34.06,0.16,35.28" style="fill:none;stroke:#999;stroke-width:3" />
<path d="M1482.09,49.52c1.9-0.05,17.86-1.95,19.27-2.04c2.54-0.15,3.49,1.92,3.17,2.72c-0.31,0.77-0.48,18.6-0.48,29.58c0,9.73-4.35,3.99-6.48,1.82" style="fill:none;stroke:#999;stroke-width:3" />
<path d="M1481.59,60.18c6.5-0.51,15.63-1.66,21.33-1.81" style="fill:none;stroke:#999;stroke-width:3" />
<path d="M1481.32,70.13c5.07-0.17,15.33-1.15,22.61-1.73" style="fill:none;stroke:#999;stroke-width:3" />
<path d="M1460.6,17.75c2.49,1.28,6.43,5.27,7.06,7.27" style="fill:none;stroke:#999;stroke-width:3" />
<path d="M1456.1,34c3.02,1.33,7.8,5.45,8.56,7.52" style="fill:none;stroke:black;stroke-width:3" />
<circle cx="1456.1" cy="34.0" r="5" stroke-width="0" fill="#FF2A00" opacity="0.7" />
<path d="M1540.25,16.5c1.11,0.32,2.29,0.64,3.49,0.56c4.51-0.31,7.26-0.81,11.5-1.86c2.95-0.73,5.65,1.11,4.4,3.71c-1.26,2.6-6.59,15.21-8.79,18.92" style="fill:none;stroke:#999;stroke-width:3" />
<path d="M1550.35,39.33C1562.9099999999999,48.11 1561.0,80.25 1550.42,68.39" style="fill:none;stroke:#999;stroke-width:3" />
<path d="M1541.8899999999999,16.71c0.36,1.54,0.1,3.95,0.31,5.04c0.2,1.09,0,68.44-0.2,75.25" style="fill:none;stroke:#999;stroke-width:3" />
<path d="M1582.85,21.3c1.25,0.17,2.5,0.34,3.62,0.26c9.82-0.72,17.05-1.62,29.28-2.38c1.72-0.11,2.62-0.11,4.02,0.22" style="fill:none;stroke:#999;stroke-width:3" />
<path d="M1598.8,12.5c0.12,0.59,0.28,1.71-0.02,2.34C1594.25,24.5 1588.0,35.25 1580.12,41.79" style="fill:none;stroke:#999;stroke-width:3" />
<path d="M1593.5,29.76c0.41,0.2,2.37,0.24,2.79,0.21c3.12-0.25,12.21-1.04,16.82-1.67c0.63-0.09,2.13,0.04,2.66,0.21" style="fill:none;stroke:#999;stroke-width:3" />
<path d="M1602.03,29.72c0.85,0.62,1.16,1.47,1.16,1.96c0,2.35,0.03,4.9,0.03,7.36" style="fill:none;stroke:#999;stroke-width:3" />
<path d="M1588.54,41.45c0.56,0.16,2.24,0.34,3.18,0.25c7.03-0.7,19.79-2.96,27.03-3.34c1.51-0.08,2.73,0.26,3.49,0.5" style="fill:none;stroke:#999;stroke-width:3" />
<path d="M1589.1799999999998,48.34c0.48,0.56,0.79,1.12,0.95,1.67c0.16,0.55,0.22,34.06,0.16,35.28" style="fill:none;stroke:#999;stroke-width:3" />
<path d="M1591.09,49.52c1.9-0.05,17.86-1.95,19.27-2.04c2.54-0.15,3.49,1.92,3.17,2.72c-0.31,0.77-0.48,18.6-0.48,29.58c0,9.73-4.35,3.99-6.48,1.82" style="fill:none;stroke:#999;stroke-width:3" />
<path d="M1590.59,60.18c6.5-0.51,15.63-1.66,21.33-1.81" style="fill:none;stroke:#999;stroke-width:3" />
<path d="M1590.32,70.13c5.07-0.17,15.33-1.15,22.61-1.73" style="fill:none;stroke:#999;stroke-width:3" />
<path d="M1569.6,17.75c2.49,1.28,6.43,5.27,7.06,7.27" style="fill:none;stroke:#999;stroke-width:3" />
<path d="M1565.1,34c3.02,1.33,7.8,5.45,8.56,7.52" style="fill:none;stroke:#999;stroke-width:3" />
<path d="M1564.5,56.39c1.58,0.86,2.62,0.43,3.33,0.21c0.7-0.21,9.1-3,10.15-3.43c1.05-0.43,2.62,1.07,1.92,2.36c-0.7,1.29-4.65,6.22-6.82,9.3c-0.69,0.97-1.35,2.5-0.3,4.01c1.05,1.5,2.93,2.72,3.45,4.01c0.52,1.29,0.52,2.36-0.52,3.43c-1.05,1.07-9.8,8.08-10.85,8.51" style="fill:none;stroke:black;stroke-width:3" />
<circle cx="1564.5" cy="56.39" r="5" stroke-width="0" fill="#FF2A00" opacity="0.7" />
<path d="M1649.25,16.5c1.11,0.32,2.29,0.64,3.49,0.56c4.51-0.31,7.26-0.81,11.5-1.86c2.95-0.73,5.65,1.11,4.4,3.71c-1.26,2.6-6.59,15.21-8.79,18.92" style="fill:none;stroke:#999;stroke-width:3" />
<path d="M1659.35,39.33C1671.9099999999999,48.11 1670.0,80.25 1659.42,68.39" style="fill:none;stroke:#999;stroke-width:3" />
<path d="M1650.8899999999999,16.71c0.36,1.54,0.1,3.95,0.31,5.04c0.2,1.09,0,68.44-0.2,75.25" style="fill:none;stroke:#999;stroke-width:3" />
<path d="M1691.85,21.3c1.25,0.17,2.5,0.34,3.62,0.26c9.82-0.72,17.05-1.62,29.28-2.38c1.72-0.11,2.62-0.11,4.02,0.22" style="fill:none;stroke:#999;stroke-width:3" />
<path d="M1707.8,12.5c0.12,0.59,0.28,1.71-0.02,2.34C1703.25,24.5 1697.0,35.25 1689.12,41.79" style="fill:none;stroke:#999;stroke-width:3" />
<path d="M1702.5,29.76c0.41,0.2,2.37,0.24,2.79,0.21c3.12-0.25,12.21-1.04,16.82-1.67c0.63-0.09,2.13,0.04,2.66,0.21" style="fill:none;stroke:#999;stroke-width:3" />
<path d="M1711.03,29.72c0.85,0.62,1.16,1.47,1.16,1.96c0,2.35,0.03,4.9,0.03,7.36" style="fill:none;stroke:#999;stroke-width:3" />
<path d="M1697.54,41.45c0.56,0.16,2.24,0.34,3.18,0.25c7.03-0.7,19.79-2.96,27.03-3.34c1.51-0.08,2.73,0.26,3.49,0.5" style="fill:none;stroke:#999;stroke-width:3" />
<path d="M1698.1799999999998,48.34c0.48,0.56,0.79,1.12,0.95,1.67c0.16,0.55,0.22,34.06,0.16,35.28" style="fill:none;stroke:#999;stroke-width:3" />
<path d="M1700.09,49.52c1.9-0.05,17.86-1.95,19.27-2.04c2.54-0.15,3.49,1.92,3.17,2.72c-0.31,0.77-0.48,18.6-0.48,29.58c0,9.73-4.35,3.99-6.48,1.82" style="fill:none;stroke:#999;stroke-width:3" />
<path d="M1699.59,60.18c6.5-0.51,15.63-1.66,21.33-1.81" style="fill:none;stroke:#999;stroke-width:3" />
<path d="M1699.32,70.13c5.07-0.17,15.33-1.15,22.61-1.73" style="fill:none;stroke:#999;stroke-width:3" />
<path d="M1678.6,17.75c2.49,1.28,6.43,5.27,7.06,7.27" style="fill:none;stroke:#999;stroke-width:3" />
<path d="M1674.1,34c3.02,1.33,7.8,5.45,8.56,7.52" style="fill:none;stroke:#999;stroke-width:3" />
<path d="M1673.5,56.39c1.58,0.86,2.62,0.43,3.33,0.21c0.7-0.21,9.1-3,10.15-3.43c1.05-0.43,2.62,1.07,1.92,2.36c-0.7,1.29-4.65,6.22-6.82,9.3c-0.69,0.97-1.35,2.5-0.3,4.01c1.05,1.5,2.93,2.72,3.45,4.01c0.52,1.29,0.52,2.36-0.52,3.43c-1.05,1.07-9.8,8.08-10.85,8.51" style="fill:none;stroke:#999;stroke-width:3" />
<path d="M1668.86,86.29c2.27-0.44,6.7-0.88,10.2-0.65c5.69,0.37,22.7,6.32,26.08,7.33c7.61,2.28,13.61,3.53,20.61,4.03" style="fill:none;stroke:black;stroke-width:3" />
<circle cx="1668.86" cy="86.29" r="5" stroke-width="0" fill="#FF2A00" opacity="0.7" />
</svg>