<!-- 09727 -->
<svg width="2071px" height="109px" viewBox="0 0 2071px 109px" xmlns="http://www.w3.org/2000/svg" xmlns:xlink="http://www.w3.org/1999/xlink" xml:space="preserve" version="1.1"  baseProfile="full">
<line x1="1" y1="1" x2="2070" y2="1" style="stroke:#ddd;stroke-width:2" />
<line x1="1" y1="1" x2="1" y2="108" style="stroke:#ddd;stroke-width:2" />
<line x1="1" y1="108" x2="2070" y2="108" style="stroke:#ddd;stroke-width:2" />
<line x1="2070" y1="1" x2="2070" y2="108" style="stroke:#ddd;stroke-width:2" />
<line x1="109" y1="1" x2="109" y2="108" style="stroke:#ddd;stroke-width:2" />
<line x1="218" y1="1" x2="218" y2="108" style="stroke:#ddd;stroke-width:2" />
<line x1="327" y1="1" x2="327" y2="108" style="stroke:#ddd;stroke-width:2" />
<line x1="436" y1="1" x2="436" y2="108" style="stroke:#ddd;stroke-width:2" />
<line x1="545" y1="1" x2="545" y2="108" style="stroke:#ddd;stroke-width:2" />
<line x1="654" y1="1" x2="654" y2="108" style="stroke:#ddd;stroke-width:2" />
<line x1="763" y1="1" x2="763" y2="108" style="stroke:#ddd;stroke-width:2" />
<line x1="872" y1="1" x2="872" y2="108" style="stroke:#ddd;stroke-width:2" />
<line x1="981" y1="1" x2="981" y2="108" style="stroke:#ddd;stroke-width:2" />
<line x1="1090" y1="1" x2="1090" y2="108" style="stroke:#ddd;stroke-width:2" />
<line x1="1199" y1="1" x2="1199" y2="108" style="stroke:#ddd;stroke-width:2" />
<line x1="1308" y1="1" x2="1308" y2="108" style="stroke:#ddd;stroke-width:2" />
<line x1="1417" y1="1" x2="1417" y2="108" style="stroke:#ddd;stroke-width:2" />
<line x1="1526" y1="1" x2="1526" y2="108" style="stroke:#ddd;stroke-width:2" />
<line x1="1635" y1="1" x2="1635" y2="108" style="stroke:#ddd;stroke-width:2" />
<line x1="1744" y1="1" x2="1744" y2="108" style="stroke:#ddd;stroke-width:2" />
<line x1="1853" y1="1" x2="1853" y2="108" style="stroke:#ddd;stroke-width:2" />
<line x1="1962" y1="1" x2="1962" y2="108" style="stroke:#ddd;stroke-width:2" />
<line x1="1" y1="54" x2="2070" y2="54" style="stroke:#ddd;stroke-width:2;stroke-dasharray:3 3" />
<line x1="55" y1="1" x2="55" y2="108" style="stroke:#ddd;stroke-width:2;stroke-dasharray:3 3" />
<line x1="164" y1="1" x2="164" y2="108" style="stroke:#ddd;stroke-width:2;stroke-dasharray:3 3" />
<line x1="273" y1="1" x2="273" y2="108" style="stroke:#ddd;stroke-width:2;stroke-dasharray:3 3" />
<line x1="382" y1="1" x2="382" y2="108" style="stroke:#ddd;stroke-width:2;stroke-dasharray:3 3" />
<line x1="491" y1="1" x2="491" y2="108" style="stroke:#ddd;stroke-width:2;stroke-dasharray:3 3" />
<line x1="600" y1="1" x2="600" y2="108" style="stroke:#ddd;stroke-width:2;stroke-dasharray:3 3" />
<line x1="709" y1="1" x2="709" y2="108" style="stroke:#ddd;stroke-width:2;stroke-dasharray:3 3" />
<line x1="818" y1="1" x2="818" y2="108" style="stroke:#ddd;stroke-width:2;stroke-dasharray:3 3" />
<line x1="927" y1="1" x2="927" y2="108" style="stroke:#ddd;stroke-width:2;stroke-dasharray:3 3" />
<line x1="1036" y1="1" x2="1036" y2="108" style="stroke:#ddd;stroke-width:2;stroke-dasharray:3 3" />
<line x1="1145" y1="1" x2="1145" y2="108" style="stroke:#ddd;stroke-width:2;stroke-dasharray:3 3" />
<line x1="1254" y1="1" x2="1254" y2="108" style="stroke:#ddd;stroke-width:2;stroke-dasharray:3 3" />
<line x1="1363" y1="1" x2="1363" y2="108" style="stroke:#ddd;stroke-width:2;stroke-dasharray:3 3" />
<line x1="1472" y1="1" x2="1472" y2="108" style="stroke:#ddd;stroke-width:2;stroke-dasharray:3 3" />
<line x1="1581" y1="1" x2="1581" y2="108" style="stroke:#ddd;stroke-width:2;stroke-dasharray:3 3" />
<line x1="1690" y1="1" x2="1690" y2="108" style="stroke:#ddd;stroke-width:2;stroke-dasharray:3 3" />
<line x1="1799" y1="1" x2="1799" y2="108" style="stroke:#ddd;stroke-width:2;stroke-dasharray:3 3" />
<line x1="1908" y1="1" x2="1908" y2="108" style="stroke:#ddd;stroke-width:2;stroke-dasharray:3 3" />
<line x1="2017" y1="1" x2="2017" y2="108" style="stroke:#ddd;stroke-width:2;stroke-dasharray:3 3" />
<path d="M34.16,12.56c2.47,0.44,5.04,0.4,7.72,0.14c7.26-0.72,20.02-2.13,26.62-2.48c2.01-0.11,4.07-0.26,6.06,0.02" style="fill:none;stroke:black;stroke-width:3" />
<circle cx="34.16" cy="12.56" r="5" stroke-width="0" fill="#FF2A00" opacity="0.7" />
<path d="M143.16,12.56c2.47,0.44,5.04,0.4,7.72,0.14c7.26-0.72,20.02-2.13,26.62-2.48c2.01-0.11,4.07-0.26,6.06,0.02" style="fill:none;stroke:#999;stroke-width:3" />
<path d="M126.93,25.17c-0.26,5.08-2.57,10.71-4.28,15.84" style="fill:none;stroke:black;stroke-width:3" />
<circle cx="126.93" cy="25.17" r="5" stroke-width="0" fill="#FF2A00" opacity="0.7" />
<path d="M252.16,12.56c2.47,0.44,5.04,0.4,7.72,0.14c7.26-0.72,20.02-2.13,26.62-2.48c2.01-0.11,4.07-0.26,6.06,0.02" style="fill:none;stroke:#999;stroke-width:3" />
<path d="M235.93,25.17c-0.26,5.08-2.57,10.71-4.28,15.84" style="fill:none;stroke:#999;stroke-width:3" />
<path d="M236.85,26.82c8.27-0.95,56.84-5.34,72.55-5.34c9.1,0,1.17,6.33-0.28,7.93" style="fill:none;stroke:black;stroke-width:3" />
<circle cx="236.85" cy="26.82" r="5" stroke-width="0" fill="#FF2A00" opacity="0.7" />
<path d="M361.15999999999997,12.56c2.47,0.44,5.04,0.4,7.72,0.14c7.26-0.72,20.02-2.13,26.62-2.48c2.01-0.11,4.07-0.26,6.06,0.02" style="fill:none;stroke:#999;stroke-width:3" />
<path d="M344.93,25.17c-0.26,5.08-2.57,10.71-4.28,15.84" style="fill:none;stroke:#999;stroke-width:3" />
<path d="M345.85,26.82c8.27-0.95,56.84-5.34,72.55-5.34c9.1,0,1.17,6.33-0.28,7.93" style="fill:none;stroke:#999;stroke-width:3" />
<path d="M380.17,15.07c0.91,1.36,1.31,2.26,1.33,3.6c0,0.23-0.01,10.96-0.02,17.71c0,3.03-0.01,5.26-0.01,5.38" style="fill:none;stroke:black;stroke-width:3" />
<circle cx="380.17" cy="15.07" r="5" stroke-width="0" fill="#FF2A00" opacity="0.7" />
<path d="M470.15999999999997,12.56c2.47,0.44,5.04,0.4,7.72,0.14c7.26-0.72,20.02-2.13,26.62-2.48c2.01-0.11,4.07-0.26,6.06,0.02" style="fill:none;stroke:#999;stroke-width:3" />
<path d="M453.93,25.17c-0.26,5.08-2.57,10.71-4.28,15.84" style="fill:none;stroke:#999;stroke-width:3" />
<path d="M454.85,26.82c8.27-0.95,56.84-5.34,72.55-5.34c9.1,0,1.17,6.33-0.28,7.93" style="fill:none;stroke:#999;stroke-width:3" />
<path d="M489.17,15.07c0.91,1.36,1.31,2.26,1.33,3.6c0,0.23-0.01,10.96-0.02,17.71c0,3.03-0.01,5.26-0.01,5.38" style="fill:none;stroke:#999;stroke-width:3" />
<path d="M472.0,30.43c2.99,0.68,7.08,2.71,8.71,3.83" style="fill:none;stroke:black;stroke-width:3" />
<circle cx="472.0" cy="30.43" r="5" stroke-width="0" fill="#FF2A00" opacity="0.7" />
<path d="M579.16,12.56c2.47,0.44,5.04,0.4,7.72,0.14c7.26-0.72,20.02-2.13,26.62-2.48c2.01-0.11,4.07-0.26,6.06,0.02" style="fill:none;stroke:#999;stroke-width:3" />
<path d="M562.9300000000001,25.17c-0.26,5.08-2.57,10.71-4.28,15.84" style="fill:none;stroke:#999;stroke-width:3" />
<path d="M563.85,26.82c8.27-0.95,56.84-5.34,72.55-5.34c9.1,0,1.17,6.33-0.28,7.93" style="fill:none;stroke:#999;stroke-width:3" />
<path d="M598.1700000000001,15.07c0.91,1.36,1.31,2.26,1.33,3.6c0,0.23-0.01,10.96-0.02,17.71c0,3.03-0.01,5.26-0.01,5.38" style="fill:none;stroke:#999;stroke-width:3" />
<path d="M581.0,30.43c2.99,0.68,7.08,2.71,8.71,3.83" style="fill:none;stroke:#999;stroke-width:3" />
<path d="M578.12,38.5c2.96,0.68,7.53,3.19,9.15,4.33" style="fill:none;stroke:black;stroke-width:3" />
<circle cx="578.12" cy="38.5" r="5" stroke-width="0" fill="#FF2A00" opacity="0.7" />
<path d="M688.16,12.56c2.47,0.44,5.04,0.4,7.72,0.14c7.26-0.72,20.02-2.13,26.62-2.48c2.01-0.11,4.07-0.26,6.06,0.02" style="fill:none;stroke:#999;stroke-width:3" />
<path d="M671.9300000000001,25.17c-0.26,5.08-2.57,10.71-4.28,15.84" style="fill:none;stroke:#999;stroke-width:3" />
<path d="M672.85,26.82c8.27-0.95,56.84-5.34,72.55-5.34c9.1,0,1.17,6.33-0.28,7.93" style="fill:none;stroke:#999;stroke-width:3" />
<path d="M707.1700000000001,15.07c0.91,1.36,1.31,2.26,1.33,3.6c0,0.23-0.01,10.96-0.02,17.71c0,3.03-0.01,5.26-0.01,5.38" style="fill:none;stroke:#999;stroke-width:3" />
<path d="M690.0,30.43c2.99,0.68,7.08,2.71,8.71,3.83" style="fill:none;stroke:#999;stroke-width:3" />
<path d="M687.12,38.5c2.96,0.68,7.53,3.19,9.15,4.33" style="fill:none;stroke:#999;stroke-width:3" />
<path d="M721.0,27.68c3.56,0.93,7.6,2.79,9.03,3.57" style="fill:none;stroke:black;stroke-width:3" />
<circle cx="721.0" cy="27.68" r="5" stroke-width="0" fill="#FF2A00" opacity="0.7" />
<path d="M797.16,12.56c2.47,0.44,5.04,0.4,7.72,0.14c7.26-0.72,20.02-2.13,26.62-2.48c2.01-0.11,4.07-0.26,6.06,0.02" style="fill:none;stroke:#999;stroke-width:3" />
<path d="M780.9300000000001,25.17c-0.26,5.08-2.57,10.71-4.28,15.84" style="fill:none;stroke:#999;stroke-width:3" />
<path d="M781.85,26.82c8.27-0.95,56.84-5.34,72.55-5.34c9.1,0,1.17,6.33-0.28,7.93" style="fill:none;stroke:#999;stroke-width:3" />
<path d="M816.1700000000001,15.07c0.91,1.36,1.31,2.26,1.33,3.6c0,0.23-0.01,10.96-0.02,17.71c0,3.03-0.01,5.26-0.01,5.38" style="fill:none;stroke:#999;stroke-width:3" />
<path d="M799.0,30.43c2.99,0.68,7.08,2.71,8.71,3.83" style="fill:none;stroke:#999;stroke-width:3" />
<path d="M796.12,38.5c2.96,0.68,7.53,3.19,9.15,4.33" style="fill:none;stroke:#999;stroke-width:3" />
<path d="M830.0,27.68c3.56,0.93,7.6,2.79,9.03,3.57" style="fill:none;stroke:#999;stroke-width:3" />
<path d="M830.54,36.23c2.91,0.79,6.87,3.15,8.45,4.46" style="fill:none;stroke:black;stroke-width:3" />
<circle cx="830.54" cy="36.23" r="5" stroke-width="0" fill="#FF2A00" opacity="0.7" />
<path d="M906.16,12.56c2.47,0.44,5.04,0.4,7.72,0.14c7.26-0.72,20.02-2.13,26.62-2.48c2.01-0.11,4.07-0.26,6.06,0.02" style="fill:none;stroke:#999;stroke-width:3" />
<path d="M889.9300000000001,25.17c-0.26,5.08-2.57,10.71-4.28,15.84" style="fill:none;stroke:#999;stroke-width:3" />
<path d="M890.85,26.82c8.27-0.95,56.84-5.34,72.55-5.34c9.1,0,1.17,6.33-0.28,7.93" style="fill:none;stroke:#999;stroke-width:3" />
<path d="M925.1700000000001,15.07c0.91,1.36,1.31,2.26,1.33,3.6c0,0.23-0.01,10.96-0.02,17.71c0,3.03-0.01,5.26-0.01,5.38" style="fill:none;stroke:#999;stroke-width:3" />
<path d="M908.0,30.43c2.99,0.68,7.08,2.71,8.71,3.83" style="fill:none;stroke:#999;stroke-width:3" />
<path d="M905.12,38.5c2.96,0.68,7.53,3.19,9.15,4.33" style="fill:none;stroke:#999;stroke-width:3" />
<path d="M939.0,27.68c3.56,0.93,7.6,2.79,9.03,3.57" style="fill:none;stroke:#999;stroke-width:3" />
<path d="M939.54,36.23c2.91,0.79,6.87,3.15,8.45,4.46" style="fill:none;stroke:#999;stroke-width:3" />
<path d="M889.39,51.44c1.99,0.78,4.21,0.52,6.25,0.2c4.98-0.79,16.82-2.97,18.69-3.22c2.22-0.3,2.73,1.51,1.4,2.48c-2.27,1.67-8.96,7.57-10.36,8.76" style="fill:none;stroke:black;stroke-width:3" />
<circle cx="889.39" cy="51.44" r="5" stroke-width="0" fill="#FF2A00" opacity="0.7" />
<path d="M1015.16,12.56c2.47,0.44,5.04,0.4,7.72,0.14c7.26-0.72,20.02-2.13,26.62-2.48c2.01-0.11,4.07-0.26,6.06,0.02" style="fill:none;stroke:#999;stroke-width:3" />
<path d="M998.9300000000001,25.17c-0.26,5.08-2.57,10.71-4.28,15.84" style="fill:none;stroke:#999;stroke-width:3" />
<path d="M999.85,26.82c8.27-0.95,56.84-5.34,72.55-5.34c9.1,0,1.17,6.33-0.28,7.93" style="fill:none;stroke:#999;stroke-width:3" />
<path d="M1034.17,15.07c0.91,1.36,1.31,2.26,1.33,3.6c0,0.23-0.01,10.96-0.02,17.71c0,3.03-0.01,5.26-0.01,5.38" style="fill:none;stroke:#999;stroke-width:3" />
<path d="M1017.0,30.43c2.99,0.68,7.08,2.71,8.71,3.83" style="fill:none;stroke:#999;stroke-width:3" />
<path d="M1014.12,38.5c2.96,0.68,7.53,3.19,9.15,4.33" style="fill:none;stroke:#999;stroke-width:3" />
<path d="M1048.0,27.68c3.56,0.93,7.6,2.79,9.03,3.57" style="fill:none;stroke:#999;stroke-width:3" />
<path d="M1048.54,36.23c2.91,0.79,6.87,3.15,8.45,4.46" style="fill:none;stroke:#999;stroke-width:3" />
<path d="M998.39,51.44c1.99,0.78,4.21,0.52,6.25,0.2c4.98-0.79,16.82-2.97,18.69-3.22c2.22-0.3,2.73,1.51,1.4,2.48c-2.27,1.67-8.96,7.57-10.36,8.76" style="fill:none;stroke:#999;stroke-width:3" />
<path d="M1007.75,56.88c2.05,0.68,7.34,3.28,8.31,5.04" style="fill:none;stroke:black;stroke-width:3" />
<circle cx="1007.75" cy="56.88" r="5" stroke-width="0" fill="#FF2A00" opacity="0.7" />
<path d="M1124.1599999999999,12.56c2.47,0.44,5.04,0.4,7.72,0.14c7.26-0.72,20.02-2.13,26.62-2.48c2.01-0.11,4.07-0.26,6.06,0.02" style="fill:none;stroke:#999;stroke-width:3" />
<path d="M1107.93,25.17c-0.26,5.08-2.57,10.71-4.28,15.84" style="fill:none;stroke:#999;stroke-width:3" />
<path d="M1108.85,26.82c8.27-0.95,56.84-5.34,72.55-5.34c9.1,0,1.17,6.33-0.28,7.93" style="fill:none;stroke:#999;stroke-width:3" />
<path d="M1143.17,15.07c0.91,1.36,1.31,2.26,1.33,3.6c0,0.23-0.01,10.96-0.02,17.71c0,3.03-0.01,5.26-0.01,5.38" style="fill:none;stroke:#999;stroke-width:3" />
<path d="M1126.0,30.43c2.99,0.68,7.08,2.71,8.71,3.83" style="fill:none;stroke:#999;stroke-width:3" />
<path d="M1123.12,38.5c2.96,0.68,7.53,3.19,9.15,4.33" style="fill:none;stroke:#999;stroke-width:3" />
<path d="M1157.0,27.68c3.56,0.93,7.6,2.79,9.03,3.57" style="fill:none;stroke:#999;stroke-width:3" />
<path d="M1157.54,36.23c2.91,0.79,6.87,3.15,8.45,4.46" style="fill:none;stroke:#999;stroke-width:3" />
<path d="M1107.3899999999999,51.44c1.99,0.78,4.21,0.52,6.25,0.2c4.98-0.79,16.82-2.97,18.69-3.22c2.22-0.3,2.73,1.51,1.4,2.48c-2.27,1.67-8.96,7.57-10.36,8.76" style="fill:none;stroke:#999;stroke-width:3" />
<path d="M1116.75,56.88c2.05,0.68,7.34,3.28,8.31,5.04" style="fill:none;stroke:#999;stroke-width:3" />
<path d="M1101.23,66.87c2.5,0.6,4.56,0.65,7.14,0.31c7.1-0.94,19.86-3.23,25.13-4.07c11.25-1.8,2,5.15-0.5,6.92" style="fill:none;stroke:black;stroke-width:3" />
<circle cx="1101.23" cy="66.87" r="5" stroke-width="0" fill="#FF2A00" opacity="0.7" />
<path d="M1233.1599999999999,12.56c2.47,0.44,5.04,0.4,7.72,0.14c7.26-0.72,20.02-2.13,26.62-2.48c2.01-0.11,4.07-0.26,6.06,0.02" style="fill:none;stroke:#999;stroke-width:3" />
<path d="M1216.93,25.17c-0.26,5.08-2.57,10.71-4.28,15.84" style="fill:none;stroke:#999;stroke-width:3" />
<path d="M1217.85,26.82c8.27-0.95,56.84-5.34,72.55-5.34c9.1,0,1.17,6.33-0.28,7.93" style="fill:none;stroke:#999;stroke-width:3" />
<path d="M1252.17,15.07c0.91,1.36,1.31,2.26,1.33,3.6c0,0.23-0.01,10.96-0.02,17.71c0,3.03-0.01,5.26-0.01,5.38" style="fill:none;stroke:#999;stroke-width:3" />
<path d="M1235.0,30.43c2.99,0.68,7.08,2.71,8.71,3.83" style="fill:none;stroke:#999;stroke-width:3" />
<path d="M1232.12,38.5c2.96,0.68,7.53,3.19,9.15,4.33" style="fill:none;stroke:#999;stroke-width:3" />
<path d="M1266.0,27.68c3.56,0.93,7.6,2.79,9.03,3.57" style="fill:none;stroke:#999;stroke-width:3" />
<path d="M1266.54,36.23c2.91,0.79,6.87,3.15,8.45,4.46" style="fill:none;stroke:#999;stroke-width:3" />
<path d="M1216.3899999999999,51.44c1.99,0.78,4.21,0.52,6.25,0.2c4.98-0.79,16.82-2.97,18.69-3.22c2.22-0.3,2.73,1.51,1.4,2.48c-2.27,1.67-8.96,7.57-10.36,8.76" style="fill:none;stroke:#999;stroke-width:3" />
<path d="M1225.75,56.88c2.05,0.68,7.34,3.28,8.31,5.04" style="fill:none;stroke:#999;stroke-width:3" />
<path d="M1210.23,66.87c2.5,0.6,4.56,0.65,7.14,0.31c7.1-0.94,19.86-3.23,25.13-4.07c11.25-1.8,2,5.15-0.5,6.92" style="fill:none;stroke:#999;stroke-width:3" />
<path d="M1231.6,66.9c1,1,1.26,2.25,1.27,3.6c0.05,6.06-0.06,13.16-0.06,23.73c0,8.91-5.05,1.11-6.66,0.56" style="fill:none;stroke:black;stroke-width:3" />
<circle cx="1231.6" cy="66.9" r="5" stroke-width="0" fill="#FF2A00" opacity="0.7" />
<path d="M1342.1599999999999,12.56c2.47,0.44,5.04,0.4,7.72,0.14c7.26-0.72,20.02-2.13,26.62-2.48c2.01-0.11,4.07-0.26,6.06,0.02" style="fill:none;stroke:#999;stroke-width:3" />
<path d="M1325.93,25.17c-0.26,5.08-2.57,10.71-4.28,15.84" style="fill:none;stroke:#999;stroke-width:3" />
<path d="M1326.85,26.82c8.27-0.95,56.84-5.34,72.55-5.34c9.1,0,1.17,6.33-0.28,7.93" style="fill:none;stroke:#999;stroke-width:3" />
<path d="M1361.17,15.07c0.91,1.36,1.31,2.26,1.33,3.6c0,0.23-0.01,10.96-0.02,17.71c0,3.03-0.01,5.26-0.01,5.38" style="fill:none;stroke:#999;stroke-width:3" />
<path d="M1344.0,30.43c2.99,0.68,7.08,2.71,8.71,3.83" style="fill:none;stroke:#999;stroke-width:3" />
<path d="M1341.12,38.5c2.96,0.68,7.53,3.19,9.15,4.33" style="fill:none;stroke:#999;stroke-width:3" />
<path d="M1375.0,27.68c3.56,0.93,7.6,2.79,9.03,3.57" style="fill:none;stroke:#999;stroke-width:3" />
<path d="M1375.54,36.23c2.91,0.79,6.87,3.15,8.45,4.46" style="fill:none;stroke:#999;stroke-width:3" />
<path d="M1325.3899999999999,51.44c1.99,0.78,4.21,0.52,6.25,0.2c4.98-0.79,16.82-2.97,18.69-3.22c2.22-0.3,2.73,1.51,1.4,2.48c-2.27,1.67-8.96,7.57-10.36,8.76" style="fill:none;stroke:#999;stroke-width:3" />
<path d="M1334.75,56.88c2.05,0.68,7.34,3.28,8.31,5.04" style="fill:none;stroke:#999;stroke-width:3" />
<path d="M1319.23,66.87c2.5,0.6,4.56,0.65,7.14,0.31c7.1-0.94,19.86-3.23,25.13-4.07c11.25-1.8,2,5.15-0.5,6.92" style="fill:none;stroke:#999;stroke-width:3" />
<path d="M1340.6,66.9c1,1,1.26,2.25,1.27,3.6c0.05,6.06-0.06,13.16-0.06,23.73c0,8.91-5.05,1.11-6.66,0.56" style="fill:none;stroke:#999;stroke-width:3" />
<path d="M1339.73,66.21c0.1,1.06-0.5,2.03-0.99,2.91c-3.59,6.46-8.64,14.09-19.99,22.59" style="fill:none;stroke:black;stroke-width:3" />
<circle cx="1339.73" cy="66.21" r="5" stroke-width="0" fill="#FF2A00" opacity="0.7" />
<path d="M1451.1599999999999,12.56c2.47,0.44,5.04,0.4,7.72,0.14c7.26-0.72,20.02-2.13,26.62-2.48c2.01-0.11,4.07-0.26,6.06,0.02" style="fill:none;stroke:#999;stroke-width:3" />
<path d="M1434.93,25.17c-0.26,5.08-2.57,10.71-4.28,15.84" style="fill:none;stroke:#999;stroke-width:3" />
<path d="M1435.85,26.82c8.27-0.95,56.84-5.34,72.55-5.34c9.1,0,1.17,6.33-0.28,7.93" style="fill:none;stroke:#999;stroke-width:3" />
<path d="M1470.17,15.07c0.91,1.36,1.31,2.26,1.33,3.6c0,0.23-0.01,10.96-0.02,17.71c0,3.03-0.01,5.26-0.01,5.38" style="fill:none;stroke:#999;stroke-width:3" />
<path d="M1453.0,30.43c2.99,0.68,7.08,2.71,8.71,3.83" style="fill:none;stroke:#999;stroke-width:3" />
<path d="M1450.12,38.5c2.96,0.68,7.53,3.19,9.15,4.33" style="fill:none;stroke:#999;stroke-width:3" />
<path d="M1484.0,27.68c3.56,0.93,7.6,2.79,9.03,3.57" style="fill:none;stroke:#999;stroke-width:3" />
<path d="M1484.54,36.23c2.91,0.79,6.87,3.15,8.45,4.46" style="fill:none;stroke:#999;stroke-width:3" />
<path d="M1434.3899999999999,51.44c1.99,0.78,4.21,0.52,6.25,0.2c4.98-0.79,16.82-2.97,18.69-3.22c2.22-0.3,2.73,1.51,1.4,2.48c-2.27,1.67-8.96,7.57-10.36,8.76" style="fill:none;stroke:#999;stroke-width:3" />
<path d="M1443.75,56.88c2.05,0.68,7.34,3.28,8.31,5.04" style="fill:none;stroke:#999;stroke-width:3" />
<path d="M1428.23,66.87c2.5,0.6,4.56,0.65,7.14,0.31c7.1-0.94,19.86-3.23,25.13-4.07c11.25-1.8,2,5.15-0.5,6.92" style="fill:none;stroke:#999;stroke-width:3" />
<path d="M1449.6,66.9c1,1,1.26,2.25,1.27,3.6c0.05,6.06-0.06,13.16-0.06,23.73c0,8.91-5.05,1.11-6.66,0.56" style="fill:none;stroke:#999;stroke-width:3" />
<path d="M1448.73,66.21c0.1,1.06-0.5,2.03-0.99,2.91c-3.59,6.46-8.64,14.09-19.99,22.59" style="fill:none;stroke:#999;stroke-width:3" />
<path d="M1478.77,44.33c0.06,0.94-0.04,1.53-0.39,2.42c-1.35,3.52-3.98,9.39-7.84,13.61" style="fill:none;stroke:black;stroke-width:3" />
<circle cx="1478.77" cy="44.33" r="5" stroke-width="0" fill="#FF2A00" opacity="0.7" />
<path d="M1560.1599999999999,12.56c2.47,0.44,5.04,0.4,7.72,0.14c7.26-0.72,20.02-2.13,26.62-2.48c2.01-0.11,4.07-0.26,6.06,0.02" style="fill:none;stroke:#999;stroke-width:3" />
<path d="M1543.93,25.17c-0.26,5.08-2.57,10.71-4.28,15.84" style="fill:none;stroke:#999;stroke-width:3" />
<path d="M1544.85,26.82c8.27-0.95,56.84-5.34,72.55-5.34c9.1,0,1.17,6.33-0.28,7.93" style="fill:none;stroke:#999;stroke-width:3" />
<path d="M1579.17,15.07c0.91,1.36,1.31,2.26,1.33,3.6c0,0.23-0.01,10.96-0.02,17.71c0,3.03-0.01,5.26-0.01,5.38" style="fill:none;stroke:#999;stroke-width:3" />
<path d="M1562.0,30.43c2.99,0.68,7.08,2.71,8.71,3.83" style="fill:none;stroke:#999;stroke-width:3" />
<path d="M1559.12,38.5c2.96,0.68,7.53,3.19,9.15,4.33" style="fill:none;stroke:#999;stroke-width:3" />
<path d="M1593.0,27.68c3.56,0.93,7.6,2.79,9.03,3.57" style="fill:none;stroke:#999;stroke-width:3" />
<path d="M1593.54,36.23c2.91,0.79,6.87,3.15,8.45,4.46" style="fill:none;stroke:#999;stroke-width:3" />
<path d="M1543.3899999999999,51.44c1.99,0.78,4.21,0.52,6.25,0.2c4.98-0.79,16.82-2.97,18.69-3.22c2.22-0.3,2.73,1.51,1.4,2.48c-2.27,1.67-8.96,7.57-10.36,8.76" style="fill:none;stroke:#999;stroke-width:3" />
<path d="M1552.75,56.88c2.05,0.68,7.34,3.28,8.31,5.04" style="fill:none;stroke:#999;stroke-width:3" />
<path d="M1537.23,66.87c2.5,0.6,4.56,0.65,7.14,0.31c7.1-0.94,19.86-3.23,25.13-4.07c11.25-1.8,2,5.15-0.5,6.92" style="fill:none;stroke:#999;stroke-width:3" />
<path d="M1558.6,66.9c1,1,1.26,2.25,1.27,3.6c0.05,6.06-0.06,13.16-0.06,23.73c0,8.91-5.05,1.11-6.66,0.56" style="fill:none;stroke:#999;stroke-width:3" />
<path d="M1557.73,66.21c0.1,1.06-0.5,2.03-0.99,2.91c-3.59,6.46-8.64,14.09-19.99,22.59" style="fill:none;stroke:#999;stroke-width:3" />
<path d="M1587.77,44.33c0.06,0.94-0.04,1.53-0.39,2.42c-1.35,3.52-3.98,9.39-7.84,13.61" style="fill:none;stroke:#999;stroke-width:3" />
<path d="M1588.63,51.15c1.5-0.03,2.81-0.18,3.66-0.3c4.06-0.61,9.91-2.31,13.85-3.18c1.12-0.25,2.44-0.45,3.6-0.18" style="fill:none;stroke:black;stroke-width:3" />
<circle cx="1588.63" cy="51.15" r="5" stroke-width="0" fill="#FF2A00" opacity="0.7" />
<path d="M1669.1599999999999,12.56c2.47,0.44,5.04,0.4,7.72,0.14c7.26-0.72,20.02-2.13,26.62-2.48c2.01-0.11,4.07-0.26,6.06,0.02" style="fill:none;stroke:#999;stroke-width:3" />
<path d="M1652.93,25.17c-0.26,5.08-2.57,10.71-4.28,15.84" style="fill:none;stroke:#999;stroke-width:3" />
<path d="M1653.85,26.82c8.27-0.95,56.84-5.34,72.55-5.34c9.1,0,1.17,6.33-0.28,7.93" style="fill:none;stroke:#999;stroke-width:3" />
<path d="M1688.17,15.07c0.91,1.36,1.31,2.26,1.33,3.6c0,0.23-0.01,10.96-0.02,17.71c0,3.03-0.01,5.26-0.01,5.38" style="fill:none;stroke:#999;stroke-width:3" />
<path d="M1671.0,30.43c2.99,0.68,7.08,2.71,8.71,3.83" style="fill:none;stroke:#999;stroke-width:3" />
<path d="M1668.12,38.5c2.96,0.68,7.53,3.19,9.15,4.33" style="fill:none;stroke:#999;stroke-width:3" />
<path d="M1702.0,27.68c3.56,0.93,7.6,2.79,9.03,3.57" style="fill:none;stroke:#999;stroke-width:3" />
<path d="M1702.54,36.23c2.91,0.79,6.87,3.15,8.45,4.46" style="fill:none;stroke:#999;stroke-width:3" />
<path d="M1652.3899999999999,51.44c1.99,0.78,4.21,0.52,6.25,0.2c4.98-0.79,16.82-2.97,18.69-3.22c2.22-0.3,2.73,1.51,1.4,2.48c-2.27,1.67-8.96,7.57-10.36,8.76" style="fill:none;stroke:#999;stroke-width:3" />
<path d="M1661.75,56.88c2.05,0.68,7.34,3.28,8.31,5.04" style="fill:none;stroke:#999;stroke-width:3" />
<path d="M1646.23,66.87c2.5,0.6,4.56,0.65,7.14,0.31c7.1-0.94,19.86-3.23,25.13-4.07c11.25-1.8,2,5.15-0.5,6.92" style="fill:none;stroke:#999;stroke-width:3" />
<path d="M1667.6,66.9c1,1,1.26,2.25,1.27,3.6c0.05,6.06-0.06,13.16-0.06,23.73c0,8.91-5.05,1.11-6.66,0.56" style="fill:none;stroke:#999;stroke-width:3" />
<path d="M1666.73,66.21c0.1,1.06-0.5,2.03-0.99,2.91c-3.59,6.46-8.64,14.09-19.99,22.59" style="fill:none;stroke:#999;stroke-width:3" />
<path d="M1696.77,44.33c0.06,0.94-0.04,1.53-0.39,2.42c-1.35,3.52-3.98,9.39-7.84,13.61" style="fill:none;stroke:#999;stroke-width:3" />
<path d="M1697.63,51.15c1.5-0.03,2.81-0.18,3.66-0.3c4.06-0.61,9.91-2.31,13.85-3.18c1.12-0.25,2.44-0.45,3.6-0.18" style="fill:none;stroke:#999;stroke-width:3" />
<path d="M1710.48,52.71c0,1.04-0.24,1.75-0.82,2.59C1705.12,61.88 1698.62,67 1686.9,72.93" style="fill:none;stroke:black;stroke-width:3" />
<circle cx="1710.48" cy="52.71" r="5" stroke-width="0" fill="#FF2A00" opacity="0.7" />
<path d="M1778.1599999999999,12.56c2.47,0.44,5.04,0.4,7.72,0.14c7.26-0.72,20.02-2.13,26.62-2.48c2.01-0.11,4.07-0.26,6.06,0.02" style="fill:none;stroke:#999;stroke-width:3" />
<path d="M1761.93,25.17c-0.26,5.08-2.57,10.71-4.28,15.84" style="fill:none;stroke:#999;stroke-width:3" />
<path d="M1762.85,26.82c8.27-0.95,56.84-5.34,72.55-5.34c9.1,0,1.17,6.33-0.28,7.93" style="fill:none;stroke:#999;stroke-width:3" />
<path d="M1797.17,15.07c0.91,1.36,1.31,2.26,1.33,3.6c0,0.23-0.01,10.96-0.02,17.71c0,3.03-0.01,5.26-0.01,5.38" style="fill:none;stroke:#999;stroke-width:3" />
<path d="M1780.0,30.43c2.99,0.68,7.08,2.71,8.71,3.83" style="fill:none;stroke:#999;stroke-width:3" />
<path d="M1777.12,38.5c2.96,0.68,7.53,3.19,9.15,4.33" style="fill:none;stroke:#999;stroke-width:3" />
<path d="M1811.0,27.68c3.56,0.93,7.6,2.79,9.03,3.57" style="fill:none;stroke:#999;stroke-width:3" />
<path d="M1811.54,36.23c2.91,0.79,6.87,3.15,8.45,4.46" style="fill:none;stroke:#999;stroke-width:3" />
<path d="M1761.3899999999999,51.44c1.99,0.78,4.21,0.52,6.25,0.2c4.98-0.79,16.82-2.97,18.69-3.22c2.22-0.3,2.73,1.51,1.4,2.48c-2.27,1.67-8.96,7.57-10.36,8.76" style="fill:none;stroke:#999;stroke-width:3" />
<path d="M1770.75,56.88c2.05,0.68,7.34,3.28,8.31,5.04" style="fill:none;stroke:#999;stroke-width:3" />
<path d="M1755.23,66.87c2.5,0.6,4.56,0.65,7.14,0.31c7.1-0.94,19.86-3.23,25.13-4.07c11.25-1.8,2,5.15-0.5,6.92" style="fill:none;stroke:#999;stroke-width:3" />
<path d="M1776.6,66.9c1,1,1.26,2.25,1.27,3.6c0.05,6.06-0.06,13.16-0.06,23.73c0,8.91-5.05,1.11-6.66,0.56" style="fill:none;stroke:#999;stroke-width:3" />
<path d="M1775.73,66.21c0.1,1.06-0.5,2.03-0.99,2.91c-3.59,6.46-8.64,14.09-19.99,22.59" style="fill:none;stroke:#999;stroke-width:3" />
<path d="M1805.77,44.33c0.06,0.94-0.04,1.53-0.39,2.42c-1.35,3.52-3.98,9.39-7.84,13.61" style="fill:none;stroke:#999;stroke-width:3" />
<path d="M1806.63,51.15c1.5-0.03,2.81-0.18,3.66-0.3c4.06-0.61,9.91-2.31,13.85-3.18c1.12-0.25,2.44-0.45,3.6-0.18" style="fill:none;stroke:#999;stroke-width:3" />
<path d="M1819.48,52.71c0,1.04-0.24,1.75-0.82,2.59C1814.12,61.88 1807.62,67 1795.9,72.93" style="fill:none;stroke:#999;stroke-width:3" />
<path d="M1803.01,57c4.7,0.62,16.91,7.77,26.15,11.56c2.5,1.03,4.99,1.65,7.59,2.35" style="fill:none;stroke:black;stroke-width:3" />
<circle cx="1803.01" cy="57.0" r="5" stroke-width="0" fill="#FF2A00" opacity="0.7" />
<path d="M1887.1599999999999,12.56c2.47,0.44,5.04,0.4,7.72,0.14c7.26-0.72,20.02-2.13,26.62-2.48c2.01-0.11,4.07-0.26,6.06,0.02" style="fill:none;stroke:#999;stroke-width:3" />
<path d="M1870.93,25.17c-0.26,5.08-2.57,10.71-4.28,15.84" style="fill:none;stroke:#999;stroke-width:3" />
<path d="M1871.85,26.82c8.27-0.95,56.84-5.34,72.55-5.34c9.1,0,1.17,6.33-0.28,7.93" style="fill:none;stroke:#999;stroke-width:3" />
<path d="M1906.17,15.07c0.91,1.36,1.31,2.26,1.33,3.6c0,0.23-0.01,10.96-0.02,17.71c0,3.03-0.01,5.26-0.01,5.38" style="fill:none;stroke:#999;stroke-width:3" />
<path d="M1889.0,30.43c2.99,0.68,7.08,2.71,8.71,3.83" style="fill:none;stroke:#999;stroke-width:3" />
<path d="M1886.12,38.5c2.96,0.68,7.53,3.19,9.15,4.33" style="fill:none;stroke:#999;stroke-width:3" />
<path d="M1920.0,27.68c3.56,0.93,7.6,2.79,9.03,3.57" style="fill:none;stroke:#999;stroke-width:3" />
<path d="M1920.54,36.23c2.91,0.79,6.87,3.15,8.45,4.46" style="fill:none;stroke:#999;stroke-width:3" />
<path d="M1870.3899999999999,51.44c1.99,0.78,4.21,0.52,6.25,0.2c4.98-0.79,16.82-2.97,18.69-3.22c2.22-0.3,2.73,1.51,1.4,2.48c-2.27,1.67-8.96,7.57-10.36,8.76" style="fill:none;stroke:#999;stroke-width:3" />
<path d="M1879.75,56.88c2.05,0.68,7.34,3.28,8.31,5.04" style="fill:none;stroke:#999;stroke-width:3" />
<path d="M1864.23,66.87c2.5,0.6,4.56,0.65,7.14,0.31c7.1-0.94,19.86-3.23,25.13-4.07c11.25-1.8,2,5.15-0.5,6.92" style="fill:none;stroke:#999;stroke-width:3" />
<path d="M1885.6,66.9c1,1,1.26,2.25,1.27,3.6c0.05,6.06-0.06,13.16-0.06,23.73c0,8.91-5.05,1.11-6.66,0.56" style="fill:none;stroke:#999;stroke-width:3" />
<path d="M1884.73,66.21c0.1,1.06-0.5,2.03-0.99,2.91c-3.59,6.46-8.64,14.09-19.99,22.59" style="fill:none;stroke:#999;stroke-width:3" />
<path d="M1914.77,44.33c0.06,0.94-0.04,1.53-0.39,2.42c-1.35,3.52-3.98,9.39-7.84,13.61" style="fill:none;stroke:#999;stroke-width:3" />
<path d="M1915.63,51.15c1.5-0.03,2.81-0.18,3.66-0.3c4.06-0.61,9.91-2.31,13.85-3.18c1.12-0.25,2.44-0.45,3.6-0.18" style="fill:none;stroke:#999;stroke-width:3" />
<path d="M1928.48,52.71c0,1.04-0.24,1.75-0.82,2.59C1923.12,61.88 1916.62,67 1904.9,72.93" style="fill:none;stroke:#999;stroke-width:3" />
<path d="M1912.01,57c4.7,0.62,16.91,7.77,26.15,11.56c2.5,1.03,4.99,1.65,7.59,2.35" style="fill:none;stroke:#999;stroke-width:3" />
<path d="M1906.55,79.89c1.49,0.55,3.92,0.44,5.44,0.22c5.73-0.82,14.98-2.36,19.25-2.88c2.81-0.35,4.74-0.12,3.96,3.2c-0.92,3.97-3.07,9.62-6.62,15c-2.34,3.54-4.55,0.13-5.36-0.29" style="fill:none;stroke:black;stroke-width:3" />
<circle cx="1906.55" cy="79.89" r="5" stroke-width="0" fill="#FF2A00" opacity="0.7" />
<path d="M1996.1599999999999,12.56c2.47,0.44,5.04,0.4,7.72,0.14c7.26-0.72,20.02-2.13,26.62-2.48c2.01-0.11,4.07-0.26,6.06,0.02" style="fill:none;stroke:#999;stroke-width:3" />
<path d="M1979.93,25.17c-0.26,5.08-2.57,10.71-4.28,15.84" style="fill:none;stroke:#999;stroke-width:3" />
<path d="M1980.85,26.82c8.27-0.95,56.84-5.34,72.55-5.34c9.1,0,1.17,6.33-0.28,7.93" style="fill:none;stroke:#999;stroke-width:3" />
<path d="M2015.17,15.07c0.91,1.36,1.31,2.26,1.33,3.6c0,0.23-0.01,10.96-0.02,17.71c0,3.03-0.01,5.26-0.01,5.38" style="fill:none;stroke:#999;stroke-width:3" />
<path d="M1998.0,30.43c2.99,0.68,7.08,2.71,8.71,3.83" style="fill:none;stroke:#999;stroke-width:3" />
<path d="M1995.12,38.5c2.96,0.68,7.53,3.19,9.15,4.33" style="fill:none;stroke:#999;stroke-width:3" />
<path d="M2029.0,27.68c3.56,0.93,7.6,2.79,9.03,3.57" style="fill:none;stroke:#999;stroke-width:3" />
<path d="M2029.54,36.23c2.91,0.79,6.87,3.15,8.45,4.46" style="fill:none;stroke:#999;stroke-width:3" />
<path d="M1979.3899999999999,51.44c1.99,0.78,4.21,0.52,6.25,0.2c4.98-0.79,16.82-2.97,18.69-3.22c2.22-0.3,2.73,1.51,1.4,2.48c-2.27,1.67-8.96,7.57-10.36,8.76" style="fill:none;stroke:#999;stroke-width:3" />
<path d="M1988.75,56.88c2.05,0.68,7.34,3.28,8.31,5.04" style="fill:none;stroke:#999;stroke-width:3" />
<path d="M1973.23,66.87c2.5,0.6,4.56,0.65,7.14,0.31c7.1-0.94,19.86-3.23,25.13-4.07c11.25-1.8,2,5.15-0.5,6.92" style="fill:none;stroke:#999;stroke-width:3" />
<path d="M1994.6,66.9c1,1,1.26,2.25,1.27,3.6c0.05,6.06-0.06,13.16-0.06,23.73c0,8.91-5.05,1.11-6.66,0.56" style="fill:none;stroke:#999;stroke-width:3" />
<path d="M1993.73,66.21c0.1,1.06-0.5,2.03-0.99,2.91c-3.59,6.46-8.64,14.09-19.99,22.59" style="fill:none;stroke:#999;stroke-width:3" />
<path d="M2023.77,44.33c0.06,0.94-0.04,1.53-0.39,2.42c-1.35,3.52-3.98,9.39-7.84,13.61" style="fill:none;stroke:#999;stroke-width:3" />
<path d="M2024.63,51.15c1.5-0.03,2.81-0.18,3.66-0.3c4.06-0.61,9.91-2.31,13.85-3.18c1.12-0.25,2.44-0.45,3.6-0.18" style="fill:none;stroke:#999;stroke-width:3" />
<path d="M2037.48,52.71c0,1.04-0.24,1.75-0.82,2.59C2032.12,61.88 2025.62,67 2013.9,72.93" style="fill:none;stroke:#999;stroke-width:3" />
<path d="M2021.01,57c4.7,0.62,16.91,7.77,26.15,11.56c2.5,1.03,4.99,1.65,7.59,2.35" style="fill:none;stroke:#999;stroke-width:3" />
<path d="M2015.55,79.89c1.49,0.55,3.92,0.44,5.44,0.22c5.73-0.82,14.98-2.36,19.25-2.88c2.81-0.35,4.74-0.12,3.96,3.2c-0.92,3.97-3.07,9.62-6.62,15c-2.34,3.54-4.55,0.13-5.36-0.29" style="fill:none;stroke:#999;stroke-width:3" />
<path d="M2030.1,69.71c0.06,0.71,0.16,1.84-0.13,2.86c-2.11,7.55-8.23,21.56-22,27.37" style="fill:none;stroke:black;stroke-width:3" />
<circle cx="2030.1" cy="69.71" r="5" stroke-width="0" fill="#FF2A00" opacity="0.7" />
</svg>