<!-- 0979c -->
<svg width="1853px" height="109px" viewBox="0 0 1853px 109px" xmlns="http://www.w3.org/2000/svg" xmlns:xlink="http://www.w3.org/1999/xlink" xml:space="preserve" version="1.1"  baseProfile="full">
<line x1="1" y1="1" x2="1852" y2="1" style="stroke:#ddd;stroke-width:2" />
<line x1="1" y1="1" x2="1" y2="108" style="stroke:#ddd;stroke-width:2" />
<line x1="1" y1="108" x2="1852" y2="108" style="stroke:#ddd;stroke-width:2" />
<line x1="1852" y1="1" x2="1852" y2="108" style="stroke:#ddd;stroke-width:2" />
<line x1="109" y1="1" x2="109" y2="108" style="stroke:#ddd;stroke-width:2" />
<line x1="218" y1="1" x2="218" y2="108" style="stroke:#ddd;stroke-width:2" />
<line x1="327" y1="1" x2="327" y2="108" style="stroke:#ddd;stroke-width:2" />
<line x1="436" y1="1" x2="436" y2="108" style="stroke:#ddd;stroke-width:2" />
<line x1="545" y1="1" x2="545" y2="108" style="stroke:#ddd;stroke-width:2" />
<line x1="654" y1="1" x2="654" y2="108" style="stroke:#ddd;stroke-width:2" />
<line x1="763" y1="1" x2="763" y2="108" style="stroke:#ddd;stroke-width:2" />
<line x1="872" y1="1" x2="872" y2="108" style="stroke:#ddd;stroke-width:2" />
<line x1="981" y1="1" x2="981" y2="108" style="stroke:#ddd;stroke-width:2" />
<line x1="1090" y1="1" x2="1090" y2="108" style="stroke:#ddd;stroke-width:2" />
<line x1="1199" y1="1" x2="1199" y2="108" style="stroke:#ddd;stroke-width:2" />
<line x1="1308" y1="1" x2="1308" y2="108" style="stroke:#ddd;stroke-width:2" />
<line x1="1417" y1="1" x2="1417" y2="108" style="stroke:#ddd;stroke-width:2" />
<line x1="1526" y1="1" x2="1526" y2="108" style="stroke:#ddd;stroke-width:2" />
<line x1="1635" y1="1" x2="1635" y2="108" style="stroke:#ddd;stroke-width:2" />
<line x1="1744" y1="1" x2="1744" y2="108" style="stroke:#ddd;stroke-width:2" />
<line x1="1" y1="54" x2="1852" y2="54" style="stroke:#ddd;stroke-width:2;stroke-dasharray:3 3" />
<line x1="55" y1="1" x2="55" y2="108" style="stroke:#ddd;stroke-width:2;stroke-dasharray:3 3" />
<line x1="164" y1="1" x2="164" y2="108" style="stroke:#ddd;stroke-width:2;stroke-dasharray:3 3" />
<line x1="273" y1="1" x2="273" y2="108" style="stroke:#ddd;stroke-width:2;stroke-dasharray:3 3" />
<line x1="382" y1="1" x2="382" y2="108" style="stroke:#ddd;stroke-width:2;stroke-dasharray:3 3" />
<line x1="491" y1="1" x2="491" y2="108" style="stroke:#ddd;stroke-width:2;stroke-dasharray:3 3" />
<line x1="600" y1="1" x2="600" y2="108" style="stroke:#ddd;stroke-width:2;stroke-dasharray:3 3" />
<line x1="709" y1="1" x2="709" y2="108" style="stroke:#ddd;stroke-width:2;stroke-dasharray:3 3" />
<line x1="818" y1="1" x2="818" y2="108" style="stroke:#ddd;stroke-width:2;stroke-dasharray:3 3" />
<line x1="927" y1="1" x2="927" y2="108" style="stroke:#ddd;stroke-width:2;stroke-dasharray:3 3" />
<line x1="1036" y1="1" x2="1036" y2="108" style="stroke:#ddd;stroke-width:2;stroke-dasharray:3 3" />
<line x1="1145" y1="1" x2="1145" y2="108" style="stroke:#ddd;stroke-width:2;stroke-dasharray:3 3" />
<line x1="1254" y1="1" x2="1254" y2="108" style="stroke:#ddd;stroke-width:2;stroke-dasharray:3 3" />
<line x1="1363" y1="1" x2="1363" y2="108" style="stroke:#ddd;stroke-width:2;stroke-dasharray:3 3" />
<line x1="1472" y1="1" x2="1472" y2="108" style="stroke:#ddd;stroke-width:2;stroke-dasharray:3 3" />
<line x1="1581" y1="1" x2="1581" y2="108" style="stroke:#ddd;stroke-width:2;stroke-dasharray:3 3" />
<line x1="1690" y1="1" x2="1690" y2="108" style="stroke:#ddd;stroke-width:2;stroke-dasharray:3 3" />
<line x1="1799" y1="1" x2="1799" y2="108" style="stroke:#ddd;stroke-width:2;stroke-dasharray:3 3" />
<path d="M11.4,23.84c0.88,0.38,2.5,0.44,3.38,0.38c4.6-0.34,21.97-2.22,30.6-2.99c1.47-0.13,2.35,0.18,3.09,0.37" style="fill:none;stroke:black;stroke-width:3" />
<circle cx="11.4" cy="23.84" r="5" stroke-width="0" fill="#FF2A00" opacity="0.7" />
<path d="M120.4,23.84c0.88,0.38,2.5,0.44,3.38,0.38c4.6-0.34,21.97-2.22,30.6-2.99c1.47-0.13,2.35,0.18,3.09,0.37" style="fill:none;stroke:#999;stroke-width:3" />
<path d="M128.35,13.46c0.47,0.33,0.75,1.48,0.84,2.14c0.81,5.9,1.73,11.44,2.23,18.9" style="fill:none;stroke:black;stroke-width:3" />
<circle cx="128.35" cy="13.46" r="5" stroke-width="0" fill="#FF2A00" opacity="0.7" />
<path d="M229.4,23.84c0.88,0.38,2.5,0.44,3.38,0.38c4.6-0.34,21.97-2.22,30.6-2.99c1.47-0.13,2.35,0.18,3.09,0.37" style="fill:none;stroke:#999;stroke-width:3" />
<path d="M237.35,13.46c0.47,0.33,0.75,1.48,0.84,2.14c0.81,5.9,1.73,11.44,2.23,18.9" style="fill:none;stroke:#999;stroke-width:3" />
<path d="M255.56,12.25c0.46,0.33,0.9,1.47,0.84,2.14c-0.65,6.86,0.17,8.42-1.07,17.63" style="fill:none;stroke:black;stroke-width:3" />
<circle cx="255.56" cy="12.25" r="5" stroke-width="0" fill="#FF2A00" opacity="0.7" />
<path d="M338.4,23.84c0.88,0.38,2.5,0.44,3.38,0.38c4.6-0.34,21.97-2.22,30.6-2.99c1.47-0.13,2.35,0.18,3.09,0.37" style="fill:none;stroke:#999;stroke-width:3" />
<path d="M346.35,13.46c0.47,0.33,0.75,1.48,0.84,2.14c0.81,5.9,1.73,11.44,2.23,18.9" style="fill:none;stroke:#999;stroke-width:3" />
<path d="M364.56,12.25c0.46,0.33,0.9,1.47,0.84,2.14c-0.65,6.86,0.17,8.42-1.07,17.63" style="fill:none;stroke:#999;stroke-width:3" />
<path d="M349.33,33.25c1.77,0,14.68-1.23,16.27-1.37" style="fill:none;stroke:black;stroke-width:3" />
<circle cx="349.33" cy="33.25" r="5" stroke-width="0" fill="#FF2A00" opacity="0.7" />
<path d="M447.4,23.84c0.88,0.38,2.5,0.44,3.38,0.38c4.6-0.34,21.97-2.22,30.6-2.99c1.47-0.13,2.35,0.18,3.09,0.37" style="fill:none;stroke:#999;stroke-width:3" />
<path d="M455.35,13.46c0.47,0.33,0.75,1.48,0.84,2.14c0.81,5.9,1.73,11.44,2.23,18.9" style="fill:none;stroke:#999;stroke-width:3" />
<path d="M473.56,12.25c0.46,0.33,0.9,1.47,0.84,2.14c-0.65,6.86,0.17,8.42-1.07,17.63" style="fill:none;stroke:#999;stroke-width:3" />
<path d="M458.33,33.25c1.77,0,14.68-1.23,16.27-1.37" style="fill:none;stroke:#999;stroke-width:3" />
<path d="M450.26,43.6c0.29,0.47,0.58,0.86,0.7,1.45c0.99,4.66,1.83,7.53,2.5,15.91" style="fill:none;stroke:black;stroke-width:3" />
<circle cx="450.26" cy="43.6" r="5" stroke-width="0" fill="#FF2A00" opacity="0.7" />
<path d="M556.4,23.84c0.88,0.38,2.5,0.44,3.38,0.38c4.6-0.34,21.97-2.22,30.6-2.99c1.47-0.13,2.35,0.18,3.09,0.37" style="fill:none;stroke:#999;stroke-width:3" />
<path d="M564.35,13.46c0.47,0.33,0.75,1.48,0.84,2.14c0.81,5.9,1.73,11.44,2.23,18.9" style="fill:none;stroke:#999;stroke-width:3" />
<path d="M582.56,12.25c0.46,0.33,0.9,1.47,0.84,2.14c-0.65,6.86,0.17,8.42-1.07,17.63" style="fill:none;stroke:#999;stroke-width:3" />
<path d="M567.3299999999999,33.25c1.77,0,14.68-1.23,16.27-1.37" style="fill:none;stroke:#999;stroke-width:3" />
<path d="M559.26,43.6c0.29,0.47,0.58,0.86,0.7,1.45c0.99,4.66,1.83,7.53,2.5,15.91" style="fill:none;stroke:#999;stroke-width:3" />
<path d="M560.48,44.71c9.52-1.21,24.92-3.03,28.52-3.69c1.32-0.24,2.43,1.45,2.2,2.85c-0.47,2.88-1.75,7.38-2.78,12.4" style="fill:none;stroke:black;stroke-width:3" />
<circle cx="560.48" cy="44.71" r="5" stroke-width="0" fill="#FF2A00" opacity="0.7" />
<path d="M665.4,23.84c0.88,0.38,2.5,0.44,3.38,0.38c4.6-0.34,21.97-2.22,30.6-2.99c1.47-0.13,2.35,0.18,3.09,0.37" style="fill:none;stroke:#999;stroke-width:3" />
<path d="M673.35,13.46c0.47,0.33,0.75,1.48,0.84,2.14c0.81,5.9,1.73,11.44,2.23,18.9" style="fill:none;stroke:#999;stroke-width:3" />
<path d="M691.56,12.25c0.46,0.33,0.9,1.47,0.84,2.14c-0.65,6.86,0.17,8.42-1.07,17.63" style="fill:none;stroke:#999;stroke-width:3" />
<path d="M676.3299999999999,33.25c1.77,0,14.68-1.23,16.27-1.37" style="fill:none;stroke:#999;stroke-width:3" />
<path d="M668.26,43.6c0.29,0.47,0.58,0.86,0.7,1.45c0.99,4.66,1.83,7.53,2.5,15.91" style="fill:none;stroke:#999;stroke-width:3" />
<path d="M669.48,44.71c9.52-1.21,24.92-3.03,28.52-3.69c1.32-0.24,2.43,1.45,2.2,2.85c-0.47,2.88-1.75,7.38-2.78,12.4" style="fill:none;stroke:#999;stroke-width:3" />
<path d="M671.25,59.38c4.23-0.75,20.5-1.88,27.48-2.38" style="fill:none;stroke:black;stroke-width:3" />
<circle cx="671.25" cy="59.38" r="5" stroke-width="0" fill="#FF2A00" opacity="0.7" />
<path d="M774.4,23.84c0.88,0.38,2.5,0.44,3.38,0.38c4.6-0.34,21.97-2.22,30.6-2.99c1.47-0.13,2.35,0.18,3.09,0.37" style="fill:none;stroke:#999;stroke-width:3" />
<path d="M782.35,13.46c0.47,0.33,0.75,1.48,0.84,2.14c0.81,5.9,1.73,11.44,2.23,18.9" style="fill:none;stroke:#999;stroke-width:3" />
<path d="M800.56,12.25c0.46,0.33,0.9,1.47,0.84,2.14c-0.65,6.86,0.17,8.42-1.07,17.63" style="fill:none;stroke:#999;stroke-width:3" />
<path d="M785.3299999999999,33.25c1.77,0,14.68-1.23,16.27-1.37" style="fill:none;stroke:#999;stroke-width:3" />
<path d="M777.26,43.6c0.29,0.47,0.58,0.86,0.7,1.45c0.99,4.66,1.83,7.53,2.5,15.91" style="fill:none;stroke:#999;stroke-width:3" />
<path d="M778.48,44.71c9.52-1.21,24.92-3.03,28.52-3.69c1.32-0.24,2.43,1.45,2.2,2.85c-0.47,2.88-1.75,7.38-2.78,12.4" style="fill:none;stroke:#999;stroke-width:3" />
<path d="M780.25,59.38c4.23-0.75,20.5-1.88,27.48-2.38" style="fill:none;stroke:#999;stroke-width:3" />
<path d="M775.25,74.7c0.86,0.54,2.43,0.63,3.29,0.54C787.75,74.25 798.0,73 807.99,72.01c1.43-0.14,2.29,0.26,3.01,0.53" style="fill:none;stroke:black;stroke-width:3" />
<circle cx="775.25" cy="74.7" r="5" stroke-width="0" fill="#FF2A00" opacity="0.7" />
<path d="M883.4,23.84c0.88,0.38,2.5,0.44,3.38,0.38c4.6-0.34,21.97-2.22,30.6-2.99c1.47-0.13,2.35,0.18,3.09,0.37" style="fill:none;stroke:#999;stroke-width:3" />
<path d="M891.35,13.46c0.47,0.33,0.75,1.48,0.84,2.14c0.81,5.9,1.73,11.44,2.23,18.9" style="fill:none;stroke:#999;stroke-width:3" />
<path d="M909.56,12.25c0.46,0.33,0.9,1.47,0.84,2.14c-0.65,6.86,0.17,8.42-1.07,17.63" style="fill:none;stroke:#999;stroke-width:3" />
<path d="M894.3299999999999,33.25c1.77,0,14.68-1.23,16.27-1.37" style="fill:none;stroke:#999;stroke-width:3" />
<path d="M886.26,43.6c0.29,0.47,0.58,0.86,0.7,1.45c0.99,4.66,1.83,7.53,2.5,15.91" style="fill:none;stroke:#999;stroke-width:3" />
<path d="M887.48,44.71c9.52-1.21,24.92-3.03,28.52-3.69c1.32-0.24,2.43,1.45,2.2,2.85c-0.47,2.88-1.75,7.38-2.78,12.4" style="fill:none;stroke:#999;stroke-width:3" />
<path d="M889.25,59.38c4.23-0.75,20.5-1.88,27.48-2.38" style="fill:none;stroke:#999;stroke-width:3" />
<path d="M884.25,74.7c0.86,0.54,2.43,0.63,3.29,0.54C896.75,74.25 907.0,73 916.99,72.01c1.43-0.14,2.29,0.26,3.01,0.53" style="fill:none;stroke:#999;stroke-width:3" />
<path d="M901.96,35.25c0.36,1,0.54,2.23,0.54,3.25c0,8.5,0,53.75-0.12,60" style="fill:none;stroke:black;stroke-width:3" />
<circle cx="901.96" cy="35.25" r="5" stroke-width="0" fill="#FF2A00" opacity="0.7" />
<path d="M992.4,23.84c0.88,0.38,2.5,0.44,3.38,0.38c4.6-0.34,21.97-2.22,30.6-2.99c1.47-0.13,2.35,0.18,3.09,0.37" style="fill:none;stroke:#999;stroke-width:3" />
<path d="M1000.35,13.46c0.47,0.33,0.75,1.48,0.84,2.14c0.81,5.9,1.73,11.44,2.23,18.9" style="fill:none;stroke:#999;stroke-width:3" />
<path d="M1018.56,12.25c0.46,0.33,0.9,1.47,0.84,2.14c-0.65,6.86,0.17,8.42-1.07,17.63" style="fill:none;stroke:#999;stroke-width:3" />
<path d="M1003.3299999999999,33.25c1.77,0,14.68-1.23,16.27-1.37" style="fill:none;stroke:#999;stroke-width:3" />
<path d="M995.26,43.6c0.29,0.47,0.58,0.86,0.7,1.45c0.99,4.66,1.83,7.53,2.5,15.91" style="fill:none;stroke:#999;stroke-width:3" />
<path d="M996.48,44.71c9.52-1.21,24.92-3.03,28.52-3.69c1.32-0.24,2.43,1.45,2.2,2.85c-0.47,2.88-1.75,7.38-2.78,12.4" style="fill:none;stroke:#999;stroke-width:3" />
<path d="M998.25,59.38c4.23-0.75,20.5-1.88,27.48-2.38" style="fill:none;stroke:#999;stroke-width:3" />
<path d="M993.25,74.7c0.86,0.54,2.43,0.63,3.29,0.54C1005.75,74.25 1016.0,73 1025.99,72.01c1.43-0.14,2.29,0.26,3.01,0.53" style="fill:none;stroke:#999;stroke-width:3" />
<path d="M1010.96,35.25c0.36,1,0.54,2.23,0.54,3.25c0,8.5,0,53.75-0.12,60" style="fill:none;stroke:#999;stroke-width:3" />
<path d="M1052.82,11.58c0.55,0.53,0.93,1.44,0.98,3.19c0.22,8.41-0.14,34.15-0.14,37.01c0,5.66-4.19,0.02-5.03-0.7" style="fill:none;stroke:black;stroke-width:3" />
<circle cx="1052.82" cy="11.58" r="5" stroke-width="0" fill="#FF2A00" opacity="0.7" />
<path d="M1101.4,23.84c0.88,0.38,2.5,0.44,3.38,0.38c4.6-0.34,21.97-2.22,30.6-2.99c1.47-0.13,2.35,0.18,3.09,0.37" style="fill:none;stroke:#999;stroke-width:3" />
<path d="M1109.35,13.46c0.47,0.33,0.75,1.48,0.84,2.14c0.81,5.9,1.73,11.44,2.23,18.9" style="fill:none;stroke:#999;stroke-width:3" />
<path d="M1127.56,12.25c0.46,0.33,0.9,1.47,0.84,2.14c-0.65,6.86,0.17,8.42-1.07,17.63" style="fill:none;stroke:#999;stroke-width:3" />
<path d="M1112.33,33.25c1.77,0,14.68-1.23,16.27-1.37" style="fill:none;stroke:#999;stroke-width:3" />
<path d="M1104.26,43.6c0.29,0.47,0.58,0.86,0.7,1.45c0.99,4.66,1.83,7.53,2.5,15.91" style="fill:none;stroke:#999;stroke-width:3" />
<path d="M1105.48,44.71c9.52-1.21,24.92-3.03,28.52-3.69c1.32-0.24,2.43,1.45,2.2,2.85c-0.47,2.88-1.75,7.38-2.78,12.4" style="fill:none;stroke:#999;stroke-width:3" />
<path d="M1107.25,59.38c4.23-0.75,20.5-1.88,27.48-2.38" style="fill:none;stroke:#999;stroke-width:3" />
<path d="M1102.25,74.7c0.86,0.54,2.43,0.63,3.29,0.54C1114.75,74.25 1125.0,73 1134.99,72.01c1.43-0.14,2.29,0.26,3.01,0.53" style="fill:none;stroke:#999;stroke-width:3" />
<path d="M1119.96,35.25c0.36,1,0.54,2.23,0.54,3.25c0,8.5,0,53.75-0.12,60" style="fill:none;stroke:#999;stroke-width:3" />
<path d="M1161.82,11.58c0.55,0.53,0.93,1.44,0.98,3.19c0.22,8.41-0.14,34.15-0.14,37.01c0,5.66-4.19,0.02-5.03-0.7" style="fill:none;stroke:#999;stroke-width:3" />
<path d="M1140.25,29.73c0.99,0.14,2.1,0.36,3.13,0.28c3.62-0.26,9.11-1.92,10.76-2.48c1.65-0.57,3.12,0.5,2.47,1.71c-3.36,6.27-7.36,12.02-12.87,16.98" style="fill:none;stroke:black;stroke-width:3" />
<circle cx="1140.25" cy="29.73" r="5" stroke-width="0" fill="#FF2A00" opacity="0.7" />
<path d="M1210.4,23.84c0.88,0.38,2.5,0.44,3.38,0.38c4.6-0.34,21.97-2.22,30.6-2.99c1.47-0.13,2.35,0.18,3.09,0.37" style="fill:none;stroke:#999;stroke-width:3" />
<path d="M1218.35,13.46c0.47,0.33,0.75,1.48,0.84,2.14c0.81,5.9,1.73,11.44,2.23,18.9" style="fill:none;stroke:#999;stroke-width:3" />
<path d="M1236.56,12.25c0.46,0.33,0.9,1.47,0.84,2.14c-0.65,6.86,0.17,8.42-1.07,17.63" style="fill:none;stroke:#999;stroke-width:3" />
<path d="M1221.33,33.25c1.77,0,14.68-1.23,16.27-1.37" style="fill:none;stroke:#999;stroke-width:3" />
<path d="M1213.26,43.6c0.29,0.47,0.58,0.86,0.7,1.45c0.99,4.66,1.83,7.53,2.5,15.91" style="fill:none;stroke:#999;stroke-width:3" />
<path d="M1214.48,44.71c9.52-1.21,24.92-3.03,28.52-3.69c1.32-0.24,2.43,1.45,2.2,2.85c-0.47,2.88-1.75,7.38-2.78,12.4" style="fill:none;stroke:#999;stroke-width:3" />
<path d="M1216.25,59.38c4.23-0.75,20.5-1.88,27.48-2.38" style="fill:none;stroke:#999;stroke-width:3" />
<path d="M1211.25,74.7c0.86,0.54,2.43,0.63,3.29,0.54C1223.75,74.25 1234.0,73 1243.99,72.01c1.43-0.14,2.29,0.26,3.01,0.53" style="fill:none;stroke:#999;stroke-width:3" />
<path d="M1228.96,35.25c0.36,1,0.54,2.23,0.54,3.25c0,8.5,0,53.75-0.12,60" style="fill:none;stroke:#999;stroke-width:3" />
<path d="M1270.82,11.58c0.55,0.53,0.93,1.44,0.98,3.19c0.22,8.41-0.14,34.15-0.14,37.01c0,5.66-4.19,0.02-5.03-0.7" style="fill:none;stroke:#999;stroke-width:3" />
<path d="M1249.25,29.73c0.99,0.14,2.1,0.36,3.13,0.28c3.62-0.26,9.11-1.92,10.76-2.48c1.65-0.57,3.12,0.5,2.47,1.71c-3.36,6.27-7.36,12.02-12.87,16.98" style="fill:none;stroke:#999;stroke-width:3" />
<path d="M1288.94,17.86c0.06,0.29-0.11,1.12-0.32,1.5c-1.99,3.55-6.22,7.92-9.82,9.77" style="fill:none;stroke:black;stroke-width:3" />
<circle cx="1288.94" cy="17.86" r="5" stroke-width="0" fill="#FF2A00" opacity="0.7" />
<path d="M1319.4,23.84c0.88,0.38,2.5,0.44,3.38,0.38c4.6-0.34,21.97-2.22,30.6-2.99c1.47-0.13,2.35,0.18,3.09,0.37" style="fill:none;stroke:#999;stroke-width:3" />
<path d="M1327.35,13.46c0.47,0.33,0.75,1.48,0.84,2.14c0.81,5.9,1.73,11.44,2.23,18.9" style="fill:none;stroke:#999;stroke-width:3" />
<path d="M1345.56,12.25c0.46,0.33,0.9,1.47,0.84,2.14c-0.65,6.86,0.17,8.42-1.07,17.63" style="fill:none;stroke:#999;stroke-width:3" />
<path d="M1330.33,33.25c1.77,0,14.68-1.23,16.27-1.37" style="fill:none;stroke:#999;stroke-width:3" />
<path d="M1322.26,43.6c0.29,0.47,0.58,0.86,0.7,1.45c0.99,4.66,1.83,7.53,2.5,15.91" style="fill:none;stroke:#999;stroke-width:3" />
<path d="M1323.48,44.71c9.52-1.21,24.92-3.03,28.52-3.69c1.32-0.24,2.43,1.45,2.2,2.85c-0.47,2.88-1.75,7.38-2.78,12.4" style="fill:none;stroke:#999;stroke-width:3" />
<path d="M1325.25,59.38c4.23-0.75,20.5-1.88,27.48-2.38" style="fill:none;stroke:#999;stroke-width:3" />
<path d="M1320.25,74.7c0.86,0.54,2.43,0.63,3.29,0.54C1332.75,74.25 1343.0,73 1352.99,72.01c1.43-0.14,2.29,0.26,3.01,0.53" style="fill:none;stroke:#999;stroke-width:3" />
<path d="M1337.96,35.25c0.36,1,0.54,2.23,0.54,3.25c0,8.5,0,53.75-0.12,60" style="fill:none;stroke:#999;stroke-width:3" />
<path d="M1379.82,11.58c0.55,0.53,0.93,1.44,0.98,3.19c0.22,8.41-0.14,34.15-0.14,37.01c0,5.66-4.19,0.02-5.03-0.7" style="fill:none;stroke:#999;stroke-width:3" />
<path d="M1358.25,29.73c0.99,0.14,2.1,0.36,3.13,0.28c3.62-0.26,9.11-1.92,10.76-2.48c1.65-0.57,3.12,0.5,2.47,1.71c-3.36,6.27-7.36,12.02-12.87,16.98" style="fill:none;stroke:#999;stroke-width:3" />
<path d="M1397.94,17.86c0.06,0.29-0.11,1.12-0.32,1.5c-1.99,3.55-6.22,7.92-9.82,9.77" style="fill:none;stroke:#999;stroke-width:3" />
<path d="M1382.16,28.12c4.66,5.92,12.48,13.92,17.69,17.33c1.1,0.72,2.14,1.08,3.15,1.33" style="fill:none;stroke:black;stroke-width:3" />
<circle cx="1382.16" cy="28.12" r="5" stroke-width="0" fill="#FF2A00" opacity="0.7" />
<path d="M1428.4,23.84c0.88,0.38,2.5,0.44,3.38,0.38c4.6-0.34,21.97-2.22,30.6-2.99c1.47-0.13,2.35,0.18,3.09,0.37" style="fill:none;stroke:#999;stroke-width:3" />
<path d="M1436.35,13.46c0.47,0.33,0.75,1.48,0.84,2.14c0.81,5.9,1.73,11.44,2.23,18.9" style="fill:none;stroke:#999;stroke-width:3" />
<path d="M1454.56,12.25c0.46,0.33,0.9,1.47,0.84,2.14c-0.65,6.86,0.17,8.42-1.07,17.63" style="fill:none;stroke:#999;stroke-width:3" />
<path d="M1439.33,33.25c1.77,0,14.68-1.23,16.27-1.37" style="fill:none;stroke:#999;stroke-width:3" />
<path d="M1431.26,43.6c0.29,0.47,0.58,0.86,0.7,1.45c0.99,4.66,1.83,7.53,2.5,15.91" style="fill:none;stroke:#999;stroke-width:3" />
<path d="M1432.48,44.71c9.52-1.21,24.92-3.03,28.52-3.69c1.32-0.24,2.43,1.45,2.2,2.85c-0.47,2.88-1.75,7.38-2.78,12.4" style="fill:none;stroke:#999;stroke-width:3" />
<path d="M1434.25,59.38c4.23-0.75,20.5-1.88,27.48-2.38" style="fill:none;stroke:#999;stroke-width:3" />
<path d="M1429.25,74.7c0.86,0.54,2.43,0.63,3.29,0.54C1441.75,74.25 1452.0,73 1461.99,72.01c1.43-0.14,2.29,0.26,3.01,0.53" style="fill:none;stroke:#999;stroke-width:3" />
<path d="M1446.96,35.25c0.36,1,0.54,2.23,0.54,3.25c0,8.5,0,53.75-0.12,60" style="fill:none;stroke:#999;stroke-width:3" />
<path d="M1488.82,11.58c0.55,0.53,0.93,1.44,0.98,3.19c0.22,8.41-0.14,34.15-0.14,37.01c0,5.66-4.19,0.02-5.03-0.7" style="fill:none;stroke:#999;stroke-width:3" />
<path d="M1467.25,29.73c0.99,0.14,2.1,0.36,3.13,0.28c3.62-0.26,9.11-1.92,10.76-2.48c1.65-0.57,3.12,0.5,2.47,1.71c-3.36,6.27-7.36,12.02-12.87,16.98" style="fill:none;stroke:#999;stroke-width:3" />
<path d="M1506.94,17.86c0.06,0.29-0.11,1.12-0.32,1.5c-1.99,3.55-6.22,7.92-9.82,9.77" style="fill:none;stroke:#999;stroke-width:3" />
<path d="M1491.16,28.12c4.66,5.92,12.48,13.92,17.69,17.33c1.1,0.72,2.14,1.08,3.15,1.33" style="fill:none;stroke:#999;stroke-width:3" />
<path d="M1472.49,63.48c0.33,0.5,0.86,2.32,0.95,2.98c0.95,7.04,1.68,20.31,2.62,30" style="fill:none;stroke:black;stroke-width:3" />
<circle cx="1472.49" cy="63.48" r="5" stroke-width="0" fill="#FF2A00" opacity="0.7" />
<path d="M1537.4,23.84c0.88,0.38,2.5,0.44,3.38,0.38c4.6-0.34,21.97-2.22,30.6-2.99c1.47-0.13,2.35,0.18,3.09,0.37" style="fill:none;stroke:#999;stroke-width:3" />
<path d="M1545.35,13.46c0.47,0.33,0.75,1.48,0.84,2.14c0.81,5.9,1.73,11.44,2.23,18.9" style="fill:none;stroke:#999;stroke-width:3" />
<path d="M1563.56,12.25c0.46,0.33,0.9,1.47,0.84,2.14c-0.65,6.86,0.17,8.42-1.07,17.63" style="fill:none;stroke:#999;stroke-width:3" />
<path d="M1548.33,33.25c1.77,0,14.68-1.23,16.27-1.37" style="fill:none;stroke:#999;stroke-width:3" />
<path d="M1540.26,43.6c0.29,0.47,0.58,0.86,0.7,1.45c0.99,4.66,1.83,7.53,2.5,15.91" style="fill:none;stroke:#999;stroke-width:3" />
<path d="M1541.48,44.71c9.52-1.21,24.92-3.03,28.52-3.69c1.32-0.24,2.43,1.45,2.2,2.85c-0.47,2.88-1.75,7.38-2.78,12.4" style="fill:none;stroke:#999;stroke-width:3" />
<path d="M1543.25,59.38c4.23-0.75,20.5-1.88,27.48-2.38" style="fill:none;stroke:#999;stroke-width:3" />
<path d="M1538.25,74.7c0.86,0.54,2.43,0.63,3.29,0.54C1550.75,74.25 1561.0,73 1570.99,72.01c1.43-0.14,2.29,0.26,3.01,0.53" style="fill:none;stroke:#999;stroke-width:3" />
<path d="M1555.96,35.25c0.36,1,0.54,2.23,0.54,3.25c0,8.5,0,53.75-0.12,60" style="fill:none;stroke:#999;stroke-width:3" />
<path d="M1597.82,11.58c0.55,0.53,0.93,1.44,0.98,3.19c0.22,8.41-0.14,34.15-0.14,37.01c0,5.66-4.19,0.02-5.03-0.7" style="fill:none;stroke:#999;stroke-width:3" />
<path d="M1576.25,29.73c0.99,0.14,2.1,0.36,3.13,0.28c3.62-0.26,9.11-1.92,10.76-2.48c1.65-0.57,3.12,0.5,2.47,1.71c-3.36,6.27-7.36,12.02-12.87,16.98" style="fill:none;stroke:#999;stroke-width:3" />
<path d="M1615.94,17.86c0.06,0.29-0.11,1.12-0.32,1.5c-1.99,3.55-6.22,7.92-9.82,9.77" style="fill:none;stroke:#999;stroke-width:3" />
<path d="M1600.16,28.12c4.66,5.92,12.48,13.92,17.69,17.33c1.1,0.72,2.14,1.08,3.15,1.33" style="fill:none;stroke:#999;stroke-width:3" />
<path d="M1581.49,63.48c0.33,0.5,0.86,2.32,0.95,2.98c0.95,7.04,1.68,20.31,2.62,30" style="fill:none;stroke:#999;stroke-width:3" />
<path d="M1583.06,64.67c12.69-1.92,21.69-2.67,30.49-3.12c3.24-0.17,4.36,2.02,4.2,3.45c-0.61,5.24-2.1,20.5-3.57,29.25" style="fill:none;stroke:black;stroke-width:3" />
<circle cx="1583.06" cy="64.67" r="5" stroke-width="0" fill="#FF2A00" opacity="0.7" />
<path d="M1646.4,23.84c0.88,0.38,2.5,0.44,3.38,0.38c4.6-0.34,21.97-2.22,30.6-2.99c1.47-0.13,2.35,0.18,3.09,0.37" style="fill:none;stroke:#999;stroke-width:3" />
<path d="M1654.35,13.46c0.47,0.33,0.75,1.48,0.84,2.14c0.81,5.9,1.73,11.44,2.23,18.9" style="fill:none;stroke:#999;stroke-width:3" />
<path d="M1672.56,12.25c0.46,0.33,0.9,1.47,0.84,2.14c-0.65,6.86,0.17,8.42-1.07,17.63" style="fill:none;stroke:#999;stroke-width:3" />
<path d="M1657.33,33.25c1.77,0,14.68-1.23,16.27-1.37" style="fill:none;stroke:#999;stroke-width:3" />
<path d="M1649.26,43.6c0.29,0.47,0.58,0.86,0.7,1.45c0.99,4.66,1.83,7.53,2.5,15.91" style="fill:none;stroke:#999;stroke-width:3" />
<path d="M1650.48,44.71c9.52-1.21,24.92-3.03,28.52-3.69c1.32-0.24,2.43,1.45,2.2,2.85c-0.47,2.88-1.75,7.38-2.78,12.4" style="fill:none;stroke:#999;stroke-width:3" />
<path d="M1652.25,59.38c4.23-0.75,20.5-1.88,27.48-2.38" style="fill:none;stroke:#999;stroke-width:3" />
<path d="M1647.25,74.7c0.86,0.54,2.43,0.63,3.29,0.54C1659.75,74.25 1670.0,73 1679.99,72.01c1.43-0.14,2.29,0.26,3.01,0.53" style="fill:none;stroke:#999;stroke-width:3" />
<path d="M1664.96,35.25c0.36,1,0.54,2.23,0.54,3.25c0,8.5,0,53.75-0.12,60" style="fill:none;stroke:#999;stroke-width:3" />
<path d="M1706.82,11.58c0.55,0.53,0.93,1.44,0.98,3.19c0.22,8.41-0.14,34.15-0.14,37.01c0,5.66-4.19,0.02-5.03-0.7" style="fill:none;stroke:#999;stroke-width:3" />
<path d="M1685.25,29.73c0.99,0.14,2.1,0.36,3.13,0.28c3.62-0.26,9.11-1.92,10.76-2.48c1.65-0.57,3.12,0.5,2.47,1.71c-3.36,6.27-7.36,12.02-12.87,16.98" style="fill:none;stroke:#999;stroke-width:3" />
<path d="M1724.94,17.86c0.06,0.29-0.11,1.12-0.32,1.5c-1.99,3.55-6.22,7.92-9.82,9.77" style="fill:none;stroke:#999;stroke-width:3" />
<path d="M1709.16,28.12c4.66,5.92,12.48,13.92,17.69,17.33c1.1,0.72,2.14,1.08,3.15,1.33" style="fill:none;stroke:#999;stroke-width:3" />
<path d="M1690.49,63.48c0.33,0.5,0.86,2.32,0.95,2.98c0.95,7.04,1.68,20.31,2.62,30" style="fill:none;stroke:#999;stroke-width:3" />
<path d="M1692.06,64.67c12.69-1.92,21.69-2.67,30.49-3.12c3.24-0.17,4.36,2.02,4.2,3.45c-0.61,5.24-2.1,20.5-3.57,29.25" style="fill:none;stroke:#999;stroke-width:3" />
<path d="M1692.91,78.11c3.82-0.51,29.63-2.26,32.78-2.47" style="fill:none;stroke:black;stroke-width:3" />
<circle cx="1692.91" cy="78.11" r="5" stroke-width="0" fill="#FF2A00" opacity="0.7" />
<path d="M1755.4,23.84c0.88,0.38,2.5,0.44,3.38,0.38c4.6-0.34,21.97-2.22,30.6-2.99c1.47-0.13,2.35,0.18,3.09,0.37" style="fill:none;stroke:#999;stroke-width:3" />
<path d="M1763.35,13.46c0.47,0.33,0.75,1.48,0.84,2.14c0.81,5.9,1.73,11.44,2.23,18.9" style="fill:none;stroke:#999;stroke-width:3" />
<path d="M1781.56,12.25c0.46,0.33,0.9,1.47,0.84,2.14c-0.65,6.86,0.17,8.42-1.07,17.63" style="fill:none;stroke:#999;stroke-width:3" />
<path d="M1766.33,33.25c1.77,0,14.68-1.23,16.27-1.37" style="fill:none;stroke:#999;stroke-width:3" />
<path d="M1758.26,43.6c0.29,0.47,0.58,0.86,0.7,1.45c0.99,4.66,1.83,7.53,2.5,15.91" style="fill:none;stroke:#999;stroke-width:3" />
<path d="M1759.48,44.71c9.52-1.21,24.92-3.03,28.52-3.69c1.32-0.24,2.43,1.45,2.2,2.85c-0.47,2.88-1.75,7.38-2.78,12.4" style="fill:none;stroke:#999;stroke-width:3" />
<path d="M1761.25,59.38c4.23-0.75,20.5-1.88,27.48-2.38" style="fill:none;stroke:#999;stroke-width:3" />
<path d="M1756.25,74.7c0.86,0.54,2.43,0.63,3.29,0.54C1768.75,74.25 1779.0,73 1788.99,72.01c1.43-0.14,2.29,0.26,3.01,0.53" style="fill:none;stroke:#999;stroke-width:3" />
<path d="M1773.96,35.25c0.36,1,0.54,2.23,0.54,3.25c0,8.5,0,53.75-0.12,60" style="fill:none;stroke:#999;stroke-width:3" />
<path d="M1815.82,11.58c0.55,0.53,0.93,1.44,0.98,3.19c0.22,8.41-0.14,34.15-0.14,37.01c0,5.66-4.19,0.02-5.03-0.7" style="fill:none;stroke:#999;stroke-width:3" />
<path d="M1794.25,29.73c0.99,0.14,2.1,0.36,3.13,0.28c3.62-0.26,9.11-1.92,10.76-2.48c1.65-0.57,3.12,0.5,2.47,1.71c-3.36,6.27-7.36,12.02-12.87,16.98" style="fill:none;stroke:#999;stroke-width:3" />
<path d="M1833.94,17.86c0.06,0.29-0.11,1.12-0.32,1.5c-1.99,3.55-6.22,7.92-9.82,9.77" style="fill:none;stroke:#999;stroke-width:3" />
<path d="M1818.16,28.12c4.66,5.92,12.48,13.92,17.69,17.33c1.1,0.72,2.14,1.08,3.15,1.33" style="fill:none;stroke:#999;stroke-width:3" />
<path d="M1799.49,63.48c0.33,0.5,0.86,2.32,0.95,2.98c0.95,7.04,1.68,20.31,2.62,30" style="fill:none;stroke:#999;stroke-width:3" />
<path d="M1801.06,64.67c12.69-1.92,21.69-2.67,30.49-3.12c3.24-0.17,4.36,2.02,4.2,3.45c-0.61,5.24-2.1,20.5-3.57,29.25" style="fill:none;stroke:#999;stroke-width:3" />
<path d="M1801.91,78.11c3.82-0.51,29.63-2.26,32.78-2.47" style="fill:none;stroke:#999;stroke-width:3" />
<path d="M1803.66,93.54c8.44-0.56,21.34-1.79,28.02-2.29" style="fill:none;stroke:black;stroke-width:3" />
<circle cx="1803.66" cy="93.54" r="5" stroke-width="0" fill="#FF2A00" opacity="0.7" />
</svg>