<!-- 0983d -->
<svg width="1744px" height="109px" viewBox="0 0 1744px 109px" xmlns="http://www.w3.org/2000/svg" xmlns:xlink="http://www.w3.org/1999/xlink" xml:space="preserve" version="1.1"  baseProfile="full">
<line x1="1" y1="1" x2="1743" y2="1" style="stroke:#ddd;stroke-width:2" />
<line x1="1" y1="1" x2="1" y2="108" style="stroke:#ddd;stroke-width:2" />
<line x1="1" y1="108" x2="1743" y2="108" style="stroke:#ddd;stroke-width:2" />
<line x1="1743" y1="1" x2="1743" y2="108" style="stroke:#ddd;stroke-width:2" />
<line x1="109" y1="1" x2="109" y2="108" style="stroke:#ddd;stroke-width:2" />
<line x1="218" y1="1" x2="218" y2="108" style="stroke:#ddd;stroke-width:2" />
<line x1="327" y1="1" x2="327" y2="108" style="stroke:#ddd;stroke-width:2" />
<line x1="436" y1="1" x2="436" y2="108" style="stroke:#ddd;stroke-width:2" />
<line x1="545" y1="1" x2="545" y2="108" style="stroke:#ddd;stroke-width:2" />
<line x1="654" y1="1" x2="654" y2="108" style="stroke:#ddd;stroke-width:2" />
<line x1="763" y1="1" x2="763" y2="108" style="stroke:#ddd;stroke-width:2" />
<line x1="872" y1="1" x2="872" y2="108" style="stroke:#ddd;stroke-width:2" />
<line x1="981" y1="1" x2="981" y2="108" style="stroke:#ddd;stroke-width:2" />
<line x1="1090" y1="1" x2="1090" y2="108" style="stroke:#ddd;stroke-width:2" />
<line x1="1199" y1="1" x2="1199" y2="108" style="stroke:#ddd;stroke-width:2" />
<line x1="1308" y1="1" x2="1308" y2="108" style="stroke:#ddd;stroke-width:2" />
<line x1="1417" y1="1" x2="1417" y2="108" style="stroke:#ddd;stroke-width:2" />
<line x1="1526" y1="1" x2="1526" y2="108" style="stroke:#ddd;stroke-width:2" />
<line x1="1635" y1="1" x2="1635" y2="108" style="stroke:#ddd;stroke-width:2" />
<line x1="1" y1="54" x2="1743" y2="54" style="stroke:#ddd;stroke-width:2;stroke-dasharray:3 3" />
<line x1="55" y1="1" x2="55" y2="108" style="stroke:#ddd;stroke-width:2;stroke-dasharray:3 3" />
<line x1="164" y1="1" x2="164" y2="108" style="stroke:#ddd;stroke-width:2;stroke-dasharray:3 3" />
<line x1="273" y1="1" x2="273" y2="108" style="stroke:#ddd;stroke-width:2;stroke-dasharray:3 3" />
<line x1="382" y1="1" x2="382" y2="108" style="stroke:#ddd;stroke-width:2;stroke-dasharray:3 3" />
<line x1="491" y1="1" x2="491" y2="108" style="stroke:#ddd;stroke-width:2;stroke-dasharray:3 3" />
<line x1="600" y1="1" x2="600" y2="108" style="stroke:#ddd;stroke-width:2;stroke-dasharray:3 3" />
<line x1="709" y1="1" x2="709" y2="108" style="stroke:#ddd;stroke-width:2;stroke-dasharray:3 3" />
<line x1="818" y1="1" x2="818" y2="108" style="stroke:#ddd;stroke-width:2;stroke-dasharray:3 3" />
<line x1="927" y1="1" x2="927" y2="108" style="stroke:#ddd;stroke-width:2;stroke-dasharray:3 3" />
<line x1="1036" y1="1" x2="1036" y2="108" style="stroke:#ddd;stroke-width:2;stroke-dasharray:3 3" />
<line x1="1145" y1="1" x2="1145" y2="108" style="stroke:#ddd;stroke-width:2;stroke-dasharray:3 3" />
<line x1="1254" y1="1" x2="1254" y2="108" style="stroke:#ddd;stroke-width:2;stroke-dasharray:3 3" />
<line x1="1363" y1="1" x2="1363" y2="108" style="stroke:#ddd;stroke-width:2;stroke-dasharray:3 3" />
<line x1="1472" y1="1" x2="1472" y2="108" style="stroke:#ddd;stroke-width:2;stroke-dasharray:3 3" />
<line x1="1581" y1="1" x2="1581" y2="108" style="stroke:#ddd;stroke-width:2;stroke-dasharray:3 3" />
<line x1="1690" y1="1" x2="1690" y2="108" style="stroke:#ddd;stroke-width:2;stroke-dasharray:3 3" />
<path d="M44.49,15.5c0.07,0.22,0.16,0.57-0.15,0.88c-1.82,1.86-12.28,5.94-26.59,8.44" style="fill:none;stroke:black;stroke-width:3" />
<circle cx="44.49" cy="15.5" r="5" stroke-width="0" fill="#FF2A00" opacity="0.7" />
<path d="M153.49,15.5c0.07,0.22,0.16,0.57-0.15,0.88c-1.82,1.86-12.28,5.94-26.59,8.44" style="fill:none;stroke:#999;stroke-width:3" />
<path d="M122.87,35.55c0.5,0.21,1.83,0.55,3.17,0.63c3.67,0.21,21.03-3.14,30.2-4.19c1.33-0.15,1.67-0.21,2.5,0" style="fill:none;stroke:black;stroke-width:3" />
<circle cx="122.87" cy="35.55" r="5" stroke-width="0" fill="#FF2A00" opacity="0.7" />
<path d="M262.49,15.5c0.07,0.22,0.16,0.57-0.15,0.88c-1.82,1.86-12.28,5.94-26.59,8.44" style="fill:none;stroke:#999;stroke-width:3" />
<path d="M231.87,35.55c0.5,0.21,1.83,0.55,3.17,0.63c3.67,0.21,21.03-3.14,30.2-4.19c1.33-0.15,1.67-0.21,2.5,0" style="fill:none;stroke:#999;stroke-width:3" />
<path d="M251.16,25.38c0.54,0.46,0.86,2.07,0.97,2.99c0.11,0.92,0,22.62-0.11,28.38" style="fill:none;stroke:black;stroke-width:3" />
<circle cx="251.16" cy="25.38" r="5" stroke-width="0" fill="#FF2A00" opacity="0.7" />
<path d="M371.49,15.5c0.07,0.22,0.16,0.57-0.15,0.88c-1.82,1.86-12.28,5.94-26.59,8.44" style="fill:none;stroke:#999;stroke-width:3" />
<path d="M340.87,35.55c0.5,0.21,1.83,0.55,3.17,0.63c3.67,0.21,21.03-3.14,30.2-4.19c1.33-0.15,1.67-0.21,2.5,0" style="fill:none;stroke:#999;stroke-width:3" />
<path d="M360.15999999999997,25.38c0.54,0.46,0.86,2.07,0.97,2.99c0.11,0.92,0,22.62-0.11,28.38" style="fill:none;stroke:#999;stroke-width:3" />
<path d="M360.93,34.12C356.69,40.88 349.61,49.21 340.0,54.74" style="fill:none;stroke:black;stroke-width:3" />
<circle cx="360.93" cy="34.12" r="5" stroke-width="0" fill="#FF2A00" opacity="0.7" />
<path d="M480.49,15.5c0.07,0.22,0.16,0.57-0.15,0.88c-1.82,1.86-12.28,5.94-26.59,8.44" style="fill:none;stroke:#999;stroke-width:3" />
<path d="M449.87,35.55c0.5,0.21,1.83,0.55,3.17,0.63c3.67,0.21,21.03-3.14,30.2-4.19c1.33-0.15,1.67-0.21,2.5,0" style="fill:none;stroke:#999;stroke-width:3" />
<path d="M469.15999999999997,25.38c0.54,0.46,0.86,2.07,0.97,2.99c0.11,0.92,0,22.62-0.11,28.38" style="fill:none;stroke:#999;stroke-width:3" />
<path d="M469.93,34.12C465.69,40.88 458.61,49.21 449.0,54.74" style="fill:none;stroke:#999;stroke-width:3" />
<path d="M474.0,41.22c5.03,2.19,9.29,6.57,12,9.38" style="fill:none;stroke:black;stroke-width:3" />
<circle cx="474.0" cy="41.22" r="5" stroke-width="0" fill="#FF2A00" opacity="0.7" />
<path d="M589.49,15.5c0.07,0.22,0.16,0.57-0.15,0.88c-1.82,1.86-12.28,5.94-26.59,8.44" style="fill:none;stroke:#999;stroke-width:3" />
<path d="M558.87,35.55c0.5,0.21,1.83,0.55,3.17,0.63c3.67,0.21,21.03-3.14,30.2-4.19c1.33-0.15,1.67-0.21,2.5,0" style="fill:none;stroke:#999;stroke-width:3" />
<path d="M578.16,25.38c0.54,0.46,0.86,2.07,0.97,2.99c0.11,0.92,0,22.62-0.11,28.38" style="fill:none;stroke:#999;stroke-width:3" />
<path d="M578.9300000000001,34.12C574.69,40.88 567.61,49.21 558.0,54.74" style="fill:none;stroke:#999;stroke-width:3" />
<path d="M583.0,41.22c5.03,2.19,9.29,6.57,12,9.38" style="fill:none;stroke:#999;stroke-width:3" />
<path d="M569.07,62.13c0.36,0.73,0.63,2.33,0.68,3.4C570.25,77.25 568.0,89.5 558.88,94.03" style="fill:none;stroke:black;stroke-width:3" />
<circle cx="569.07" cy="62.13" r="5" stroke-width="0" fill="#FF2A00" opacity="0.7" />
<path d="M698.49,15.5c0.07,0.22,0.16,0.57-0.15,0.88c-1.82,1.86-12.28,5.94-26.59,8.44" style="fill:none;stroke:#999;stroke-width:3" />
<path d="M667.87,35.55c0.5,0.21,1.83,0.55,3.17,0.63c3.67,0.21,21.03-3.14,30.2-4.19c1.33-0.15,1.67-0.21,2.5,0" style="fill:none;stroke:#999;stroke-width:3" />
<path d="M687.16,25.38c0.54,0.46,0.86,2.07,0.97,2.99c0.11,0.92,0,22.62-0.11,28.38" style="fill:none;stroke:#999;stroke-width:3" />
<path d="M687.9300000000001,34.12C683.69,40.88 676.61,49.21 667.0,54.74" style="fill:none;stroke:#999;stroke-width:3" />
<path d="M692.0,41.22c5.03,2.19,9.29,6.57,12,9.38" style="fill:none;stroke:#999;stroke-width:3" />
<path d="M678.07,62.13c0.36,0.73,0.63,2.33,0.68,3.4C679.25,77.25 677.0,89.5 667.88,94.03" style="fill:none;stroke:#999;stroke-width:3" />
<path d="M679.37,63.31c3.88-0.56,11.16-2.04,12.57-2.66c2.11-0.92,3.68,0.46,3.46,2.5c-0.65,5.84-1.15,18.59-1.15,22.59c0,5.54,1.25,4.5,3.54,2.24c2.4-2.36,5.96-6.74,8.03-9.51" style="fill:none;stroke:black;stroke-width:3" />
<circle cx="679.37" cy="63.31" r="5" stroke-width="0" fill="#FF2A00" opacity="0.7" />
<path d="M807.49,15.5c0.07,0.22,0.16,0.57-0.15,0.88c-1.82,1.86-12.28,5.94-26.59,8.44" style="fill:none;stroke:#999;stroke-width:3" />
<path d="M776.87,35.55c0.5,0.21,1.83,0.55,3.17,0.63c3.67,0.21,21.03-3.14,30.2-4.19c1.33-0.15,1.67-0.21,2.5,0" style="fill:none;stroke:#999;stroke-width:3" />
<path d="M796.16,25.38c0.54,0.46,0.86,2.07,0.97,2.99c0.11,0.92,0,22.62-0.11,28.38" style="fill:none;stroke:#999;stroke-width:3" />
<path d="M796.9300000000001,34.12C792.69,40.88 785.61,49.21 776.0,54.74" style="fill:none;stroke:#999;stroke-width:3" />
<path d="M801.0,41.22c5.03,2.19,9.29,6.57,12,9.38" style="fill:none;stroke:#999;stroke-width:3" />
<path d="M787.07,62.13c0.36,0.73,0.63,2.33,0.68,3.4C788.25,77.25 786.0,89.5 776.88,94.03" style="fill:none;stroke:#999;stroke-width:3" />
<path d="M788.37,63.31c3.88-0.56,11.16-2.04,12.57-2.66c2.11-0.92,3.68,0.46,3.46,2.5c-0.65,5.84-1.15,18.59-1.15,22.59c0,5.54,1.25,4.5,3.54,2.24c2.4-2.36,5.96-6.74,8.03-9.51" style="fill:none;stroke:#999;stroke-width:3" />
<path d="M817.45,19.85c1.26,0.5,3.58,0.57,4.84,0.5c10.44-0.58,24.57-3.08,32.69-3.32c2.1-0.06,3.37,0.24,4.42,0.49" style="fill:none;stroke:black;stroke-width:3" />
<circle cx="817.45" cy="19.85" r="5" stroke-width="0" fill="#FF2A00" opacity="0.7" />
<path d="M916.49,15.5c0.07,0.22,0.16,0.57-0.15,0.88c-1.82,1.86-12.28,5.94-26.59,8.44" style="fill:none;stroke:#999;stroke-width:3" />
<path d="M885.87,35.55c0.5,0.21,1.83,0.55,3.17,0.63c3.67,0.21,21.03-3.14,30.2-4.19c1.33-0.15,1.67-0.21,2.5,0" style="fill:none;stroke:#999;stroke-width:3" />
<path d="M905.16,25.38c0.54,0.46,0.86,2.07,0.97,2.99c0.11,0.92,0,22.62-0.11,28.38" style="fill:none;stroke:#999;stroke-width:3" />
<path d="M905.9300000000001,34.12C901.69,40.88 894.61,49.21 885.0,54.74" style="fill:none;stroke:#999;stroke-width:3" />
<path d="M910.0,41.22c5.03,2.19,9.29,6.57,12,9.38" style="fill:none;stroke:#999;stroke-width:3" />
<path d="M896.07,62.13c0.36,0.73,0.63,2.33,0.68,3.4C897.25,77.25 895.0,89.5 885.88,94.03" style="fill:none;stroke:#999;stroke-width:3" />
<path d="M897.37,63.31c3.88-0.56,11.16-2.04,12.57-2.66c2.11-0.92,3.68,0.46,3.46,2.5c-0.65,5.84-1.15,18.59-1.15,22.59c0,5.54,1.25,4.5,3.54,2.24c2.4-2.36,5.96-6.74,8.03-9.51" style="fill:none;stroke:#999;stroke-width:3" />
<path d="M926.45,19.85c1.26,0.5,3.58,0.57,4.84,0.5c10.44-0.58,24.57-3.08,32.69-3.32c2.1-0.06,3.37,0.24,4.42,0.49" style="fill:none;stroke:#999;stroke-width:3" />
<path d="M945.23,21.93c0.02,0.28,0.04,0.72-0.03,1.12c-0.39,2.37-4.29,7.56-7.38,10.74" style="fill:none;stroke:black;stroke-width:3" />
<circle cx="945.23" cy="21.93" r="5" stroke-width="0" fill="#FF2A00" opacity="0.7" />
<path d="M1025.49,15.5c0.07,0.22,0.16,0.57-0.15,0.88c-1.82,1.86-12.28,5.94-26.59,8.44" style="fill:none;stroke:#999;stroke-width:3" />
<path d="M994.87,35.55c0.5,0.21,1.83,0.55,3.17,0.63c3.67,0.21,21.03-3.14,30.2-4.19c1.33-0.15,1.67-0.21,2.5,0" style="fill:none;stroke:#999;stroke-width:3" />
<path d="M1014.16,25.38c0.54,0.46,0.86,2.07,0.97,2.99c0.11,0.92,0,22.62-0.11,28.38" style="fill:none;stroke:#999;stroke-width:3" />
<path d="M1014.9300000000001,34.12C1010.69,40.88 1003.61,49.21 994.0,54.74" style="fill:none;stroke:#999;stroke-width:3" />
<path d="M1019.0,41.22c5.03,2.19,9.29,6.57,12,9.38" style="fill:none;stroke:#999;stroke-width:3" />
<path d="M1005.07,62.13c0.36,0.73,0.63,2.33,0.68,3.4C1006.25,77.25 1004.0,89.5 994.88,94.03" style="fill:none;stroke:#999;stroke-width:3" />
<path d="M1006.37,63.31c3.88-0.56,11.16-2.04,12.57-2.66c2.11-0.92,3.68,0.46,3.46,2.5c-0.65,5.84-1.15,18.59-1.15,22.59c0,5.54,1.25,4.5,3.54,2.24c2.4-2.36,5.96-6.74,8.03-9.51" style="fill:none;stroke:#999;stroke-width:3" />
<path d="M1035.45,19.85c1.26,0.5,3.58,0.57,4.84,0.5c10.44-0.58,24.57-3.08,32.69-3.32c2.1-0.06,3.37,0.24,4.42,0.49" style="fill:none;stroke:#999;stroke-width:3" />
<path d="M1054.23,21.93c0.02,0.28,0.04,0.72-0.03,1.12c-0.39,2.37-4.29,7.56-7.38,10.74" style="fill:none;stroke:#999;stroke-width:3" />
<path d="M1040.66,34.8c0.45,1.08,1.11,1.88,1.11,3.32c0,1.44-0.3,38.41-0.3,39.13c0,0.72,0.15,0.72,0.3,2.15" style="fill:none;stroke:black;stroke-width:3" />
<circle cx="1040.66" cy="34.8" r="5" stroke-width="0" fill="#FF2A00" opacity="0.7" />
<path d="M1134.49,15.5c0.07,0.22,0.16,0.57-0.15,0.88c-1.82,1.86-12.28,5.94-26.59,8.44" style="fill:none;stroke:#999;stroke-width:3" />
<path d="M1103.87,35.55c0.5,0.21,1.83,0.55,3.17,0.63c3.67,0.21,21.03-3.14,30.2-4.19c1.33-0.15,1.67-0.21,2.5,0" style="fill:none;stroke:#999;stroke-width:3" />
<path d="M1123.1599999999999,25.38c0.54,0.46,0.86,2.07,0.97,2.99c0.11,0.92,0,22.62-0.11,28.38" style="fill:none;stroke:#999;stroke-width:3" />
<path d="M1123.93,34.12C1119.69,40.88 1112.6100000000001,49.21 1103.0,54.74" style="fill:none;stroke:#999;stroke-width:3" />
<path d="M1128.0,41.22c5.03,2.19,9.29,6.57,12,9.38" style="fill:none;stroke:#999;stroke-width:3" />
<path d="M1114.0700000000002,62.13c0.36,0.73,0.63,2.33,0.68,3.4C1115.25,77.25 1113.0,89.5 1103.88,94.03" style="fill:none;stroke:#999;stroke-width:3" />
<path d="M1115.37,63.31c3.88-0.56,11.16-2.04,12.57-2.66c2.11-0.92,3.68,0.46,3.46,2.5c-0.65,5.84-1.15,18.59-1.15,22.59c0,5.54,1.25,4.5,3.54,2.24c2.4-2.36,5.96-6.74,8.03-9.51" style="fill:none;stroke:#999;stroke-width:3" />
<path d="M1144.45,19.85c1.26,0.5,3.58,0.57,4.84,0.5c10.44-0.58,24.57-3.08,32.69-3.32c2.1-0.06,3.37,0.24,4.42,0.49" style="fill:none;stroke:#999;stroke-width:3" />
<path d="M1163.23,21.93c0.02,0.28,0.04,0.72-0.03,1.12c-0.39,2.37-4.29,7.56-7.38,10.74" style="fill:none;stroke:#999;stroke-width:3" />
<path d="M1149.66,34.8c0.45,1.08,1.11,1.88,1.11,3.32c0,1.44-0.3,38.41-0.3,39.13c0,0.72,0.15,0.72,0.3,2.15" style="fill:none;stroke:#999;stroke-width:3" />
<path d="M1151.53,36.23c2.56-0.18,23.24-2.36,25.58-2.58c1.94-0.18,3.48,1.99,3.31,3.32c-0.21,1.69-0.4,41.75-0.4,42.83" style="fill:none;stroke:black;stroke-width:3" />
<circle cx="1151.53" cy="36.23" r="5" stroke-width="0" fill="#FF2A00" opacity="0.7" />
<path d="M1243.49,15.5c0.07,0.22,0.16,0.57-0.15,0.88c-1.82,1.86-12.28,5.94-26.59,8.44" style="fill:none;stroke:#999;stroke-width:3" />
<path d="M1212.87,35.55c0.5,0.21,1.83,0.55,3.17,0.63c3.67,0.21,21.03-3.14,30.2-4.19c1.33-0.15,1.67-0.21,2.5,0" style="fill:none;stroke:#999;stroke-width:3" />
<path d="M1232.1599999999999,25.38c0.54,0.46,0.86,2.07,0.97,2.99c0.11,0.92,0,22.62-0.11,28.38" style="fill:none;stroke:#999;stroke-width:3" />
<path d="M1232.93,34.12C1228.69,40.88 1221.6100000000001,49.21 1212.0,54.74" style="fill:none;stroke:#999;stroke-width:3" />
<path d="M1237.0,41.22c5.03,2.19,9.29,6.57,12,9.38" style="fill:none;stroke:#999;stroke-width:3" />
<path d="M1223.0700000000002,62.13c0.36,0.73,0.63,2.33,0.68,3.4C1224.25,77.25 1222.0,89.5 1212.88,94.03" style="fill:none;stroke:#999;stroke-width:3" />
<path d="M1224.37,63.31c3.88-0.56,11.16-2.04,12.57-2.66c2.11-0.92,3.68,0.46,3.46,2.5c-0.65,5.84-1.15,18.59-1.15,22.59c0,5.54,1.25,4.5,3.54,2.24c2.4-2.36,5.96-6.74,8.03-9.51" style="fill:none;stroke:#999;stroke-width:3" />
<path d="M1253.45,19.85c1.26,0.5,3.58,0.57,4.84,0.5c10.44-0.58,24.57-3.08,32.69-3.32c2.1-0.06,3.37,0.24,4.42,0.49" style="fill:none;stroke:#999;stroke-width:3" />
<path d="M1272.23,21.93c0.02,0.28,0.04,0.72-0.03,1.12c-0.39,2.37-4.29,7.56-7.38,10.74" style="fill:none;stroke:#999;stroke-width:3" />
<path d="M1258.66,34.8c0.45,1.08,1.11,1.88,1.11,3.32c0,1.44-0.3,38.41-0.3,39.13c0,0.72,0.15,0.72,0.3,2.15" style="fill:none;stroke:#999;stroke-width:3" />
<path d="M1260.53,36.23c2.56-0.18,23.24-2.36,25.58-2.58c1.94-0.18,3.48,1.99,3.31,3.32c-0.21,1.69-0.4,41.75-0.4,42.83" style="fill:none;stroke:#999;stroke-width:3" />
<path d="M1260.49,48.82c3.66,0,22.15-1.42,27.64-1.81" style="fill:none;stroke:black;stroke-width:3" />
<circle cx="1260.49" cy="48.82" r="5" stroke-width="0" fill="#FF2A00" opacity="0.7" />
<path d="M1352.49,15.5c0.07,0.22,0.16,0.57-0.15,0.88c-1.82,1.86-12.28,5.94-26.59,8.44" style="fill:none;stroke:#999;stroke-width:3" />
<path d="M1321.87,35.55c0.5,0.21,1.83,0.55,3.17,0.63c3.67,0.21,21.03-3.14,30.2-4.19c1.33-0.15,1.67-0.21,2.5,0" style="fill:none;stroke:#999;stroke-width:3" />
<path d="M1341.1599999999999,25.38c0.54,0.46,0.86,2.07,0.97,2.99c0.11,0.92,0,22.62-0.11,28.38" style="fill:none;stroke:#999;stroke-width:3" />
<path d="M1341.93,34.12C1337.69,40.88 1330.6100000000001,49.21 1321.0,54.74" style="fill:none;stroke:#999;stroke-width:3" />
<path d="M1346.0,41.22c5.03,2.19,9.29,6.57,12,9.38" style="fill:none;stroke:#999;stroke-width:3" />
<path d="M1332.0700000000002,62.13c0.36,0.73,0.63,2.33,0.68,3.4C1333.25,77.25 1331.0,89.5 1321.88,94.03" style="fill:none;stroke:#999;stroke-width:3" />
<path d="M1333.37,63.31c3.88-0.56,11.16-2.04,12.57-2.66c2.11-0.92,3.68,0.46,3.46,2.5c-0.65,5.84-1.15,18.59-1.15,22.59c0,5.54,1.25,4.5,3.54,2.24c2.4-2.36,5.96-6.74,8.03-9.51" style="fill:none;stroke:#999;stroke-width:3" />
<path d="M1362.45,19.85c1.26,0.5,3.58,0.57,4.84,0.5c10.44-0.58,24.57-3.08,32.69-3.32c2.1-0.06,3.37,0.24,4.42,0.49" style="fill:none;stroke:#999;stroke-width:3" />
<path d="M1381.23,21.93c0.02,0.28,0.04,0.72-0.03,1.12c-0.39,2.37-4.29,7.56-7.38,10.74" style="fill:none;stroke:#999;stroke-width:3" />
<path d="M1367.66,34.8c0.45,1.08,1.11,1.88,1.11,3.32c0,1.44-0.3,38.41-0.3,39.13c0,0.72,0.15,0.72,0.3,2.15" style="fill:none;stroke:#999;stroke-width:3" />
<path d="M1369.53,36.23c2.56-0.18,23.24-2.36,25.58-2.58c1.94-0.18,3.48,1.99,3.31,3.32c-0.21,1.69-0.4,41.75-0.4,42.83" style="fill:none;stroke:#999;stroke-width:3" />
<path d="M1369.49,48.82c3.66,0,22.15-1.42,27.64-1.81" style="fill:none;stroke:#999;stroke-width:3" />
<path d="M1368.69,62.44c9.13-0.48,21.47-1.05,28.47-1.55" style="fill:none;stroke:black;stroke-width:3" />
<circle cx="1368.69" cy="62.44" r="5" stroke-width="0" fill="#FF2A00" opacity="0.7" />
<path d="M1461.49,15.5c0.07,0.22,0.16,0.57-0.15,0.88c-1.82,1.86-12.28,5.94-26.59,8.44" style="fill:none;stroke:#999;stroke-width:3" />
<path d="M1430.87,35.55c0.5,0.21,1.83,0.55,3.17,0.63c3.67,0.21,21.03-3.14,30.2-4.19c1.33-0.15,1.67-0.21,2.5,0" style="fill:none;stroke:#999;stroke-width:3" />
<path d="M1450.1599999999999,25.38c0.54,0.46,0.86,2.07,0.97,2.99c0.11,0.92,0,22.62-0.11,28.38" style="fill:none;stroke:#999;stroke-width:3" />
<path d="M1450.93,34.12C1446.69,40.88 1439.6100000000001,49.21 1430.0,54.74" style="fill:none;stroke:#999;stroke-width:3" />
<path d="M1455.0,41.22c5.03,2.19,9.29,6.57,12,9.38" style="fill:none;stroke:#999;stroke-width:3" />
<path d="M1441.0700000000002,62.13c0.36,0.73,0.63,2.33,0.68,3.4C1442.25,77.25 1440.0,89.5 1430.88,94.03" style="fill:none;stroke:#999;stroke-width:3" />
<path d="M1442.37,63.31c3.88-0.56,11.16-2.04,12.57-2.66c2.11-0.92,3.68,0.46,3.46,2.5c-0.65,5.84-1.15,18.59-1.15,22.59c0,5.54,1.25,4.5,3.54,2.24c2.4-2.36,5.96-6.74,8.03-9.51" style="fill:none;stroke:#999;stroke-width:3" />
<path d="M1471.45,19.85c1.26,0.5,3.58,0.57,4.84,0.5c10.44-0.58,24.57-3.08,32.69-3.32c2.1-0.06,3.37,0.24,4.42,0.49" style="fill:none;stroke:#999;stroke-width:3" />
<path d="M1490.23,21.93c0.02,0.28,0.04,0.72-0.03,1.12c-0.39,2.37-4.29,7.56-7.38,10.74" style="fill:none;stroke:#999;stroke-width:3" />
<path d="M1476.66,34.8c0.45,1.08,1.11,1.88,1.11,3.32c0,1.44-0.3,38.41-0.3,39.13c0,0.72,0.15,0.72,0.3,2.15" style="fill:none;stroke:#999;stroke-width:3" />
<path d="M1478.53,36.23c2.56-0.18,23.24-2.36,25.58-2.58c1.94-0.18,3.48,1.99,3.31,3.32c-0.21,1.69-0.4,41.75-0.4,42.83" style="fill:none;stroke:#999;stroke-width:3" />
<path d="M1478.49,48.82c3.66,0,22.15-1.42,27.64-1.81" style="fill:none;stroke:#999;stroke-width:3" />
<path d="M1477.69,62.44c9.13-0.48,21.47-1.05,28.47-1.55" style="fill:none;stroke:#999;stroke-width:3" />
<path d="M1477.36,77.79c7.39,0,22.01-0.5,29.46-1.04" style="fill:none;stroke:black;stroke-width:3" />
<circle cx="1477.36" cy="77.79" r="5" stroke-width="0" fill="#FF2A00" opacity="0.7" />
<path d="M1570.49,15.5c0.07,0.22,0.16,0.57-0.15,0.88c-1.82,1.86-12.28,5.94-26.59,8.44" style="fill:none;stroke:#999;stroke-width:3" />
<path d="M1539.87,35.55c0.5,0.21,1.83,0.55,3.17,0.63c3.67,0.21,21.03-3.14,30.2-4.19c1.33-0.15,1.67-0.21,2.5,0" style="fill:none;stroke:#999;stroke-width:3" />
<path d="M1559.1599999999999,25.38c0.54,0.46,0.86,2.07,0.97,2.99c0.11,0.92,0,22.62-0.11,28.38" style="fill:none;stroke:#999;stroke-width:3" />
<path d="M1559.93,34.12C1555.69,40.88 1548.6100000000001,49.21 1539.0,54.74" style="fill:none;stroke:#999;stroke-width:3" />
<path d="M1564.0,41.22c5.03,2.19,9.29,6.57,12,9.38" style="fill:none;stroke:#999;stroke-width:3" />
<path d="M1550.0700000000002,62.13c0.36,0.73,0.63,2.33,0.68,3.4C1551.25,77.25 1549.0,89.5 1539.88,94.03" style="fill:none;stroke:#999;stroke-width:3" />
<path d="M1551.37,63.31c3.88-0.56,11.16-2.04,12.57-2.66c2.11-0.92,3.68,0.46,3.46,2.5c-0.65,5.84-1.15,18.59-1.15,22.59c0,5.54,1.25,4.5,3.54,2.24c2.4-2.36,5.96-6.74,8.03-9.51" style="fill:none;stroke:#999;stroke-width:3" />
<path d="M1580.45,19.85c1.26,0.5,3.58,0.57,4.84,0.5c10.44-0.58,24.57-3.08,32.69-3.32c2.1-0.06,3.37,0.24,4.42,0.49" style="fill:none;stroke:#999;stroke-width:3" />
<path d="M1599.23,21.93c0.02,0.28,0.04,0.72-0.03,1.12c-0.39,2.37-4.29,7.56-7.38,10.74" style="fill:none;stroke:#999;stroke-width:3" />
<path d="M1585.66,34.8c0.45,1.08,1.11,1.88,1.11,3.32c0,1.44-0.3,38.41-0.3,39.13c0,0.72,0.15,0.72,0.3,2.15" style="fill:none;stroke:#999;stroke-width:3" />
<path d="M1587.53,36.23c2.56-0.18,23.24-2.36,25.58-2.58c1.94-0.18,3.48,1.99,3.31,3.32c-0.21,1.69-0.4,41.75-0.4,42.83" style="fill:none;stroke:#999;stroke-width:3" />
<path d="M1587.49,48.82c3.66,0,22.15-1.42,27.64-1.81" style="fill:none;stroke:#999;stroke-width:3" />
<path d="M1586.69,62.44c9.13-0.48,21.47-1.05,28.47-1.55" style="fill:none;stroke:#999;stroke-width:3" />
<path d="M1586.36,77.79c7.39,0,22.01-0.5,29.46-1.04" style="fill:none;stroke:#999;stroke-width:3" />
<path d="M1592.12,83.48c0.43,1.21-0.15,2.54-1,3.42c-2.58,2.66-8.12,7.35-15.9,11.35" style="fill:none;stroke:black;stroke-width:3" />
<circle cx="1592.12" cy="83.48" r="5" stroke-width="0" fill="#FF2A00" opacity="0.7" />
<path d="M1679.49,15.5c0.07,0.22,0.16,0.57-0.15,0.88c-1.82,1.86-12.28,5.94-26.59,8.44" style="fill:none;stroke:#999;stroke-width:3" />
<path d="M1648.87,35.55c0.5,0.21,1.83,0.55,3.17,0.63c3.67,0.21,21.03-3.14,30.2-4.19c1.33-0.15,1.67-0.21,2.5,0" style="fill:none;stroke:#999;stroke-width:3" />
<path d="M1668.1599999999999,25.38c0.54,0.46,0.86,2.07,0.97,2.99c0.11,0.92,0,22.62-0.11,28.38" style="fill:none;stroke:#999;stroke-width:3" />
<path d="M1668.93,34.12C1664.69,40.88 1657.6100000000001,49.21 1648.0,54.74" style="fill:none;stroke:#999;stroke-width:3" />
<path d="M1673.0,41.22c5.03,2.19,9.29,6.57,12,9.38" style="fill:none;stroke:#999;stroke-width:3" />
<path d="M1659.0700000000002,62.13c0.36,0.73,0.63,2.33,0.68,3.4C1660.25,77.25 1658.0,89.5 1648.88,94.03" style="fill:none;stroke:#999;stroke-width:3" />
<path d="M1660.37,63.31c3.88-0.56,11.16-2.04,12.57-2.66c2.11-0.92,3.68,0.46,3.46,2.5c-0.65,5.84-1.15,18.59-1.15,22.59c0,5.54,1.25,4.5,3.54,2.24c2.4-2.36,5.96-6.74,8.03-9.51" style="fill:none;stroke:#999;stroke-width:3" />
<path d="M1689.45,19.85c1.26,0.5,3.58,0.57,4.84,0.5c10.44-0.58,24.57-3.08,32.69-3.32c2.1-0.06,3.37,0.24,4.42,0.49" style="fill:none;stroke:#999;stroke-width:3" />
<path d="M1708.23,21.93c0.02,0.28,0.04,0.72-0.03,1.12c-0.39,2.37-4.29,7.56-7.38,10.74" style="fill:none;stroke:#999;stroke-width:3" />
<path d="M1694.66,34.8c0.45,1.08,1.11,1.88,1.11,3.32c0,1.44-0.3,38.41-0.3,39.13c0,0.72,0.15,0.72,0.3,2.15" style="fill:none;stroke:#999;stroke-width:3" />
<path d="M1696.53,36.23c2.56-0.18,23.24-2.36,25.58-2.58c1.94-0.18,3.48,1.99,3.31,3.32c-0.21,1.69-0.4,41.75-0.4,42.83" style="fill:none;stroke:#999;stroke-width:3" />
<path d="M1696.49,48.82c3.66,0,22.15-1.42,27.64-1.81" style="fill:none;stroke:#999;stroke-width:3" />
<path d="M1695.69,62.44c9.13-0.48,21.47-1.05,28.47-1.55" style="fill:none;stroke:#999;stroke-width:3" />
<path d="M1695.36,77.79c7.39,0,22.01-0.5,29.46-1.04" style="fill:none;stroke:#999;stroke-width:3" />
<path d="M1701.12,83.48c0.43,1.21-0.15,2.54-1,3.42c-2.58,2.66-8.12,7.35-15.9,11.35" style="fill:none;stroke:#999;stroke-width:3" />
<path d="M1716.32,83.62c5.8,3.78,12.65,10.65,14.23,13.96" style="fill:none;stroke:black;stroke-width:3" />
<circle cx="1716.32" cy="83.62" r="5" stroke-width="0" fill="#FF2A00" opacity="0.7" />
</svg>