<!-- 0983c -->
<svg width="1744px" height="109px" viewBox="0 0 1744px 109px" xmlns="http://www.w3.org/2000/svg" xmlns:xlink="http://www.w3.org/1999/xlink" xml:space="preserve" version="1.1"  baseProfile="full">
<line x1="1" y1="1" x2="1743" y2="1" style="stroke:#ddd;stroke-width:2" />
<line x1="1" y1="1" x2="1" y2="108" style="stroke:#ddd;stroke-width:2" />
<line x1="1" y1="108" x2="1743" y2="108" style="stroke:#ddd;stroke-width:2" />
<line x1="1743" y1="1" x2="1743" y2="108" style="stroke:#ddd;stroke-width:2" />
<line x1="109" y1="1" x2="109" y2="108" style="stroke:#ddd;stroke-width:2" />
<line x1="218" y1="1" x2="218" y2="108" style="stroke:#ddd;stroke-width:2" />
<line x1="327" y1="1" x2="327" y2="108" style="stroke:#ddd;stroke-width:2" />
<line x1="436" y1="1" x2="436" y2="108" style="stroke:#ddd;stroke-width:2" />
<line x1="545" y1="1" x2="545" y2="108" style="stroke:#ddd;stroke-width:2" />
<line x1="654" y1="1" x2="654" y2="108" style="stroke:#ddd;stroke-width:2" />
<line x1="763" y1="1" x2="763" y2="108" style="stroke:#ddd;stroke-width:2" />
<line x1="872" y1="1" x2="872" y2="108" style="stroke:#ddd;stroke-width:2" />
<line x1="981" y1="1" x2="981" y2="108" style="stroke:#ddd;stroke-width:2" />
<line x1="1090" y1="1" x2="1090" y2="108" style="stroke:#ddd;stroke-width:2" />
<line x1="1199" y1="1" x2="1199" y2="108" style="stroke:#ddd;stroke-width:2" />
<line x1="1308" y1="1" x2="1308" y2="108" style="stroke:#ddd;stroke-width:2" />
<line x1="1417" y1="1" x2="1417" y2="108" style="stroke:#ddd;stroke-width:2" />
<line x1="1526" y1="1" x2="1526" y2="108" style="stroke:#ddd;stroke-width:2" />
<line x1="1635" y1="1" x2="1635" y2="108" style="stroke:#ddd;stroke-width:2" />
<line x1="1" y1="54" x2="1743" y2="54" style="stroke:#ddd;stroke-width:2;stroke-dasharray:3 3" />
<line x1="55" y1="1" x2="55" y2="108" style="stroke:#ddd;stroke-width:2;stroke-dasharray:3 3" />
<line x1="164" y1="1" x2="164" y2="108" style="stroke:#ddd;stroke-width:2;stroke-dasharray:3 3" />
<line x1="273" y1="1" x2="273" y2="108" style="stroke:#ddd;stroke-width:2;stroke-dasharray:3 3" />
<line x1="382" y1="1" x2="382" y2="108" style="stroke:#ddd;stroke-width:2;stroke-dasharray:3 3" />
<line x1="491" y1="1" x2="491" y2="108" style="stroke:#ddd;stroke-width:2;stroke-dasharray:3 3" />
<line x1="600" y1="1" x2="600" y2="108" style="stroke:#ddd;stroke-width:2;stroke-dasharray:3 3" />
<line x1="709" y1="1" x2="709" y2="108" style="stroke:#ddd;stroke-width:2;stroke-dasharray:3 3" />
<line x1="818" y1="1" x2="818" y2="108" style="stroke:#ddd;stroke-width:2;stroke-dasharray:3 3" />
<line x1="927" y1="1" x2="927" y2="108" style="stroke:#ddd;stroke-width:2;stroke-dasharray:3 3" />
<line x1="1036" y1="1" x2="1036" y2="108" style="stroke:#ddd;stroke-width:2;stroke-dasharray:3 3" />
<line x1="1145" y1="1" x2="1145" y2="108" style="stroke:#ddd;stroke-width:2;stroke-dasharray:3 3" />
<line x1="1254" y1="1" x2="1254" y2="108" style="stroke:#ddd;stroke-width:2;stroke-dasharray:3 3" />
<line x1="1363" y1="1" x2="1363" y2="108" style="stroke:#ddd;stroke-width:2;stroke-dasharray:3 3" />
<line x1="1472" y1="1" x2="1472" y2="108" style="stroke:#ddd;stroke-width:2;stroke-dasharray:3 3" />
<line x1="1581" y1="1" x2="1581" y2="108" style="stroke:#ddd;stroke-width:2;stroke-dasharray:3 3" />
<line x1="1690" y1="1" x2="1690" y2="108" style="stroke:#ddd;stroke-width:2;stroke-dasharray:3 3" />
<path d="M15.75,25.54c1.84,0.98,4.36,0.73,6.37,0.5c5.97-0.7,16.43-1.87,21.9-2.35c1.57-0.14,3.11-0.43,4.9-0.07" style="fill:none;stroke:black;stroke-width:3" />
<circle cx="15.75" cy="25.54" r="5" stroke-width="0" fill="#FF2A00" opacity="0.7" />
<path d="M124.75,25.54c1.84,0.98,4.36,0.73,6.37,0.5c5.97-0.7,16.43-1.87,21.9-2.35c1.57-0.14,3.11-0.43,4.9-0.07" style="fill:none;stroke:#999;stroke-width:3" />
<path d="M124.67,39.9c0.5,0.57,0.8,1.24,0.9,1.99c0.44,1.73,1.44,7.17,2.12,11.1c0.36,2.08,0.63,3.73,0.68,4.2" style="fill:none;stroke:black;stroke-width:3" />
<circle cx="124.67" cy="39.9" r="5" stroke-width="0" fill="#FF2A00" opacity="0.7" />
<path d="M233.75,25.54c1.84,0.98,4.36,0.73,6.37,0.5c5.97-0.7,16.43-1.87,21.9-2.35c1.57-0.14,3.11-0.43,4.9-0.07" style="fill:none;stroke:#999;stroke-width:3" />
<path d="M233.67000000000002,39.9c0.5,0.57,0.8,1.24,0.9,1.99c0.44,1.73,1.44,7.17,2.12,11.1c0.36,2.08,0.63,3.73,0.68,4.2" style="fill:none;stroke:#999;stroke-width:3" />
<path d="M235.77,41.4c7.71-1.39,26.3-3.29,29.32-3.61c1.88-0.2,3.06,2.08,2.57,3.93c-0.9,3.35-2.36,8.73-2.7,9.97" style="fill:none;stroke:black;stroke-width:3" />
<circle cx="235.77" cy="41.4" r="5" stroke-width="0" fill="#FF2A00" opacity="0.7" />
<path d="M342.75,25.54c1.84,0.98,4.36,0.73,6.37,0.5c5.97-0.7,16.43-1.87,21.9-2.35c1.57-0.14,3.11-0.43,4.9-0.07" style="fill:none;stroke:#999;stroke-width:3" />
<path d="M342.67,39.9c0.5,0.57,0.8,1.24,0.9,1.99c0.44,1.73,1.44,7.17,2.12,11.1c0.36,2.08,0.63,3.73,0.68,4.2" style="fill:none;stroke:#999;stroke-width:3" />
<path d="M344.77,41.4c7.71-1.39,26.3-3.29,29.32-3.61c1.88-0.2,3.06,2.08,2.57,3.93c-0.9,3.35-2.36,8.73-2.7,9.97" style="fill:none;stroke:#999;stroke-width:3" />
<path d="M347.24,55.3c7.76-0.67,17.87-1.65,25.04-2.31c1.38-0.13,2.65-0.24,3.78-0.34" style="fill:none;stroke:black;stroke-width:3" />
<circle cx="347.24" cy="55.3" r="5" stroke-width="0" fill="#FF2A00" opacity="0.7" />
<path d="M451.75,25.54c1.84,0.98,4.36,0.73,6.37,0.5c5.97-0.7,16.43-1.87,21.9-2.35c1.57-0.14,3.11-0.43,4.9-0.07" style="fill:none;stroke:#999;stroke-width:3" />
<path d="M451.67,39.9c0.5,0.57,0.8,1.24,0.9,1.99c0.44,1.73,1.44,7.17,2.12,11.1c0.36,2.08,0.63,3.73,0.68,4.2" style="fill:none;stroke:#999;stroke-width:3" />
<path d="M453.77,41.4c7.71-1.39,26.3-3.29,29.32-3.61c1.88-0.2,3.06,2.08,2.57,3.93c-0.9,3.35-2.36,8.73-2.7,9.97" style="fill:none;stroke:#999;stroke-width:3" />
<path d="M456.24,55.3c7.76-0.67,17.87-1.65,25.04-2.31c1.38-0.13,2.65-0.24,3.78-0.34" style="fill:none;stroke:#999;stroke-width:3" />
<path d="M467.45,12.25c1.03,1.03,1.48,2.5,1.48,3.97c0,0.89,0.1,55.03,0.1,74.28c0,2.9-0.03,4.25-0.03,6.75" style="fill:none;stroke:black;stroke-width:3" />
<circle cx="467.45" cy="12.25" r="5" stroke-width="0" fill="#FF2A00" opacity="0.7" />
<path d="M560.75,25.54c1.84,0.98,4.36,0.73,6.37,0.5c5.97-0.7,16.43-1.87,21.9-2.35c1.57-0.14,3.11-0.43,4.9-0.07" style="fill:none;stroke:#999;stroke-width:3" />
<path d="M560.6700000000001,39.9c0.5,0.57,0.8,1.24,0.9,1.99c0.44,1.73,1.44,7.17,2.12,11.1c0.36,2.08,0.63,3.73,0.68,4.2" style="fill:none;stroke:#999;stroke-width:3" />
<path d="M562.77,41.4c7.71-1.39,26.3-3.29,29.32-3.61c1.88-0.2,3.06,2.08,2.57,3.93c-0.9,3.35-2.36,8.73-2.7,9.97" style="fill:none;stroke:#999;stroke-width:3" />
<path d="M565.24,55.3c7.76-0.67,17.87-1.65,25.04-2.31c1.38-0.13,2.65-0.24,3.78-0.34" style="fill:none;stroke:#999;stroke-width:3" />
<path d="M576.45,12.25c1.03,1.03,1.48,2.5,1.48,3.97c0,0.89,0.1,55.03,0.1,74.28c0,2.9-0.03,4.25-0.03,6.75" style="fill:none;stroke:#999;stroke-width:3" />
<path d="M577.12,55.3c0,1.33-0.84,3.4-1.69,4.94C570.53,69.08 564.0,76.62 555.02,83.29" style="fill:none;stroke:black;stroke-width:3" />
<circle cx="577.12" cy="55.3" r="5" stroke-width="0" fill="#FF2A00" opacity="0.7" />
<path d="M669.75,25.54c1.84,0.98,4.36,0.73,6.37,0.5c5.97-0.7,16.43-1.87,21.9-2.35c1.57-0.14,3.11-0.43,4.9-0.07" style="fill:none;stroke:#999;stroke-width:3" />
<path d="M669.6700000000001,39.9c0.5,0.57,0.8,1.24,0.9,1.99c0.44,1.73,1.44,7.17,2.12,11.1c0.36,2.08,0.63,3.73,0.68,4.2" style="fill:none;stroke:#999;stroke-width:3" />
<path d="M671.77,41.4c7.71-1.39,26.3-3.29,29.32-3.61c1.88-0.2,3.06,2.08,2.57,3.93c-0.9,3.35-2.36,8.73-2.7,9.97" style="fill:none;stroke:#999;stroke-width:3" />
<path d="M674.24,55.3c7.76-0.67,17.87-1.65,25.04-2.31c1.38-0.13,2.65-0.24,3.78-0.34" style="fill:none;stroke:#999;stroke-width:3" />
<path d="M685.45,12.25c1.03,1.03,1.48,2.5,1.48,3.97c0,0.89,0.1,55.03,0.1,74.28c0,2.9-0.03,4.25-0.03,6.75" style="fill:none;stroke:#999;stroke-width:3" />
<path d="M686.12,55.3c0,1.33-0.84,3.4-1.69,4.94C679.53,69.08 673.0,76.62 664.02,83.29" style="fill:none;stroke:#999;stroke-width:3" />
<path d="M690.12,61.62c5.35,2.25,9.65,6.69,12.35,11.19" style="fill:none;stroke:black;stroke-width:3" />
<circle cx="690.12" cy="61.62" r="5" stroke-width="0" fill="#FF2A00" opacity="0.7" />
<path d="M778.75,25.54c1.84,0.98,4.36,0.73,6.37,0.5c5.97-0.7,16.43-1.87,21.9-2.35c1.57-0.14,3.11-0.43,4.9-0.07" style="fill:none;stroke:#999;stroke-width:3" />
<path d="M778.6700000000001,39.9c0.5,0.57,0.8,1.24,0.9,1.99c0.44,1.73,1.44,7.17,2.12,11.1c0.36,2.08,0.63,3.73,0.68,4.2" style="fill:none;stroke:#999;stroke-width:3" />
<path d="M780.77,41.4c7.71-1.39,26.3-3.29,29.32-3.61c1.88-0.2,3.06,2.08,2.57,3.93c-0.9,3.35-2.36,8.73-2.7,9.97" style="fill:none;stroke:#999;stroke-width:3" />
<path d="M783.24,55.3c7.76-0.67,17.87-1.65,25.04-2.31c1.38-0.13,2.65-0.24,3.78-0.34" style="fill:none;stroke:#999;stroke-width:3" />
<path d="M794.45,12.25c1.03,1.03,1.48,2.5,1.48,3.97c0,0.89,0.1,55.03,0.1,74.28c0,2.9-0.03,4.25-0.03,6.75" style="fill:none;stroke:#999;stroke-width:3" />
<path d="M795.12,55.3c0,1.33-0.84,3.4-1.69,4.94C788.53,69.08 782.0,76.62 773.02,83.29" style="fill:none;stroke:#999;stroke-width:3" />
<path d="M799.12,61.62c5.35,2.25,9.65,6.69,12.35,11.19" style="fill:none;stroke:#999;stroke-width:3" />
<path d="M816.88,17.83c2.62,0.8,5.15,0.66,7.24,0.46c8.32-0.78,19.65-1.65,27.15-2.42c2.08-0.21,4.37-0.5,6.37-0.01" style="fill:none;stroke:black;stroke-width:3" />
<circle cx="816.88" cy="17.83" r="5" stroke-width="0" fill="#FF2A00" opacity="0.7" />
<path d="M887.75,25.54c1.84,0.98,4.36,0.73,6.37,0.5c5.97-0.7,16.43-1.87,21.9-2.35c1.57-0.14,3.11-0.43,4.9-0.07" style="fill:none;stroke:#999;stroke-width:3" />
<path d="M887.6700000000001,39.9c0.5,0.57,0.8,1.24,0.9,1.99c0.44,1.73,1.44,7.17,2.12,11.1c0.36,2.08,0.63,3.73,0.68,4.2" style="fill:none;stroke:#999;stroke-width:3" />
<path d="M889.77,41.4c7.71-1.39,26.3-3.29,29.32-3.61c1.88-0.2,3.06,2.08,2.57,3.93c-0.9,3.35-2.36,8.73-2.7,9.97" style="fill:none;stroke:#999;stroke-width:3" />
<path d="M892.24,55.3c7.76-0.67,17.87-1.65,25.04-2.31c1.38-0.13,2.65-0.24,3.78-0.34" style="fill:none;stroke:#999;stroke-width:3" />
<path d="M903.45,12.25c1.03,1.03,1.48,2.5,1.48,3.97c0,0.89,0.1,55.03,0.1,74.28c0,2.9-0.03,4.25-0.03,6.75" style="fill:none;stroke:#999;stroke-width:3" />
<path d="M904.12,55.3c0,1.33-0.84,3.4-1.69,4.94C897.53,69.08 891.0,76.62 882.02,83.29" style="fill:none;stroke:#999;stroke-width:3" />
<path d="M908.12,61.62c5.35,2.25,9.65,6.69,12.35,11.19" style="fill:none;stroke:#999;stroke-width:3" />
<path d="M925.88,17.83c2.62,0.8,5.15,0.66,7.24,0.46c8.32-0.78,19.65-1.65,27.15-2.42c2.08-0.21,4.37-0.5,6.37-0.01" style="fill:none;stroke:#999;stroke-width:3" />
<path d="M944.24,21.08c0.05,0.66,0.05,1.32-0.18,1.94c-1.19,3.11-2.76,6.57-4.87,9.28" style="fill:none;stroke:black;stroke-width:3" />
<circle cx="944.24" cy="21.08" r="5" stroke-width="0" fill="#FF2A00" opacity="0.7" />
<path d="M996.75,25.54c1.84,0.98,4.36,0.73,6.37,0.5c5.97-0.7,16.43-1.87,21.9-2.35c1.57-0.14,3.11-0.43,4.9-0.07" style="fill:none;stroke:#999;stroke-width:3" />
<path d="M996.6700000000001,39.9c0.5,0.57,0.8,1.24,0.9,1.99c0.44,1.73,1.44,7.17,2.12,11.1c0.36,2.08,0.63,3.73,0.68,4.2" style="fill:none;stroke:#999;stroke-width:3" />
<path d="M998.77,41.4c7.71-1.39,26.3-3.29,29.32-3.61c1.88-0.2,3.06,2.08,2.57,3.93c-0.9,3.35-2.36,8.73-2.7,9.97" style="fill:none;stroke:#999;stroke-width:3" />
<path d="M1001.24,55.3c7.76-0.67,17.87-1.65,25.04-2.31c1.38-0.13,2.65-0.24,3.78-0.34" style="fill:none;stroke:#999;stroke-width:3" />
<path d="M1012.45,12.25c1.03,1.03,1.48,2.5,1.48,3.97c0,0.89,0.1,55.03,0.1,74.28c0,2.9-0.03,4.25-0.03,6.75" style="fill:none;stroke:#999;stroke-width:3" />
<path d="M1013.12,55.3c0,1.33-0.84,3.4-1.69,4.94C1006.53,69.08 1000.0,76.62 991.02,83.29" style="fill:none;stroke:#999;stroke-width:3" />
<path d="M1017.12,61.62c5.35,2.25,9.65,6.69,12.35,11.19" style="fill:none;stroke:#999;stroke-width:3" />
<path d="M1034.88,17.83c2.62,0.8,5.15,0.66,7.24,0.46c8.32-0.78,19.65-1.65,27.15-2.42c2.08-0.21,4.37-0.5,6.37-0.01" style="fill:none;stroke:#999;stroke-width:3" />
<path d="M1053.24,21.08c0.05,0.66,0.05,1.32-0.18,1.94c-1.19,3.11-2.76,6.57-4.87,9.28" style="fill:none;stroke:#999;stroke-width:3" />
<path d="M1039.49,34.28c0.93,0.93,1.09,1.87,1.09,3.25c0,1.09,0.07,23.43-0.01,33.47c-0.02,2.69-0.13,5.29,0.01,6.68" style="fill:none;stroke:black;stroke-width:3" />
<circle cx="1039.49" cy="34.28" r="5" stroke-width="0" fill="#FF2A00" opacity="0.7" />
<path d="M1105.75,25.54c1.84,0.98,4.36,0.73,6.37,0.5c5.97-0.7,16.43-1.87,21.9-2.35c1.57-0.14,3.11-0.43,4.9-0.07" style="fill:none;stroke:#999;stroke-width:3" />
<path d="M1105.67,39.9c0.5,0.57,0.8,1.24,0.9,1.99c0.44,1.73,1.44,7.17,2.12,11.1c0.36,2.08,0.63,3.73,0.68,4.2" style="fill:none;stroke:#999;stroke-width:3" />
<path d="M1107.77,41.4c7.71-1.39,26.3-3.29,29.32-3.61c1.88-0.2,3.06,2.08,2.57,3.93c-0.9,3.35-2.36,8.73-2.7,9.97" style="fill:none;stroke:#999;stroke-width:3" />
<path d="M1110.24,55.3c7.76-0.67,17.87-1.65,25.04-2.31c1.38-0.13,2.65-0.24,3.78-0.34" style="fill:none;stroke:#999;stroke-width:3" />
<path d="M1121.45,12.25c1.03,1.03,1.48,2.5,1.48,3.97c0,0.89,0.1,55.03,0.1,74.28c0,2.9-0.03,4.25-0.03,6.75" style="fill:none;stroke:#999;stroke-width:3" />
<path d="M1122.12,55.3c0,1.33-0.84,3.4-1.69,4.94C1115.53,69.08 1109.0,76.62 1100.02,83.29" style="fill:none;stroke:#999;stroke-width:3" />
<path d="M1126.12,61.62c5.35,2.25,9.65,6.69,12.35,11.19" style="fill:none;stroke:#999;stroke-width:3" />
<path d="M1143.88,17.83c2.62,0.8,5.15,0.66,7.24,0.46c8.32-0.78,19.65-1.65,27.15-2.42c2.08-0.21,4.37-0.5,6.37-0.01" style="fill:none;stroke:#999;stroke-width:3" />
<path d="M1162.24,21.08c0.05,0.66,0.05,1.32-0.18,1.94c-1.19,3.11-2.76,6.57-4.87,9.28" style="fill:none;stroke:#999;stroke-width:3" />
<path d="M1148.49,34.28c0.93,0.93,1.09,1.87,1.09,3.25c0,1.09,0.07,23.43-0.01,33.47c-0.02,2.69-0.13,5.29,0.01,6.68" style="fill:none;stroke:#999;stroke-width:3" />
<path d="M1150.32,35.48c3.43-0.48,17.37-1.82,23.31-2.37c2.69-0.25,4.2,0.05,4.2,3.17c0,1.27,0.02,23.47,0.02,34.47c0,3.28-0.08,5.49-0.08,5.73" style="fill:none;stroke:black;stroke-width:3" />
<circle cx="1150.32" cy="35.48" r="5" stroke-width="0" fill="#FF2A00" opacity="0.7" />
<path d="M1214.75,25.54c1.84,0.98,4.36,0.73,6.37,0.5c5.97-0.7,16.43-1.87,21.9-2.35c1.57-0.14,3.11-0.43,4.9-0.07" style="fill:none;stroke:#999;stroke-width:3" />
<path d="M1214.67,39.9c0.5,0.57,0.8,1.24,0.9,1.99c0.44,1.73,1.44,7.17,2.12,11.1c0.36,2.08,0.63,3.73,0.68,4.2" style="fill:none;stroke:#999;stroke-width:3" />
<path d="M1216.77,41.4c7.71-1.39,26.3-3.29,29.32-3.61c1.88-0.2,3.06,2.08,2.57,3.93c-0.9,3.35-2.36,8.73-2.7,9.97" style="fill:none;stroke:#999;stroke-width:3" />
<path d="M1219.24,55.3c7.76-0.67,17.87-1.65,25.04-2.31c1.38-0.13,2.65-0.24,3.78-0.34" style="fill:none;stroke:#999;stroke-width:3" />
<path d="M1230.45,12.25c1.03,1.03,1.48,2.5,1.48,3.97c0,0.89,0.1,55.03,0.1,74.28c0,2.9-0.03,4.25-0.03,6.75" style="fill:none;stroke:#999;stroke-width:3" />
<path d="M1231.12,55.3c0,1.33-0.84,3.4-1.69,4.94C1224.53,69.08 1218.0,76.62 1209.02,83.29" style="fill:none;stroke:#999;stroke-width:3" />
<path d="M1235.12,61.62c5.35,2.25,9.65,6.69,12.35,11.19" style="fill:none;stroke:#999;stroke-width:3" />
<path d="M1252.88,17.83c2.62,0.8,5.15,0.66,7.24,0.46c8.32-0.78,19.65-1.65,27.15-2.42c2.08-0.21,4.37-0.5,6.37-0.01" style="fill:none;stroke:#999;stroke-width:3" />
<path d="M1271.24,21.08c0.05,0.66,0.05,1.32-0.18,1.94c-1.19,3.11-2.76,6.57-4.87,9.28" style="fill:none;stroke:#999;stroke-width:3" />
<path d="M1257.49,34.28c0.93,0.93,1.09,1.87,1.09,3.25c0,1.09,0.07,23.43-0.01,33.47c-0.02,2.69-0.13,5.29,0.01,6.68" style="fill:none;stroke:#999;stroke-width:3" />
<path d="M1259.32,35.48c3.43-0.48,17.37-1.82,23.31-2.37c2.69-0.25,4.2,0.05,4.2,3.17c0,1.27,0.02,23.47,0.02,34.47c0,3.28-0.08,5.49-0.08,5.73" style="fill:none;stroke:#999;stroke-width:3" />
<path d="M1260.02,48.94c4.36-0.55,20.31-2.32,25.67-2.43" style="fill:none;stroke:black;stroke-width:3" />
<circle cx="1260.02" cy="48.94" r="5" stroke-width="0" fill="#FF2A00" opacity="0.7" />
<path d="M1323.75,25.54c1.84,0.98,4.36,0.73,6.37,0.5c5.97-0.7,16.43-1.87,21.9-2.35c1.57-0.14,3.11-0.43,4.9-0.07" style="fill:none;stroke:#999;stroke-width:3" />
<path d="M1323.67,39.9c0.5,0.57,0.8,1.24,0.9,1.99c0.44,1.73,1.44,7.17,2.12,11.1c0.36,2.08,0.63,3.73,0.68,4.2" style="fill:none;stroke:#999;stroke-width:3" />
<path d="M1325.77,41.4c7.71-1.39,26.3-3.29,29.32-3.61c1.88-0.2,3.06,2.08,2.57,3.93c-0.9,3.35-2.36,8.73-2.7,9.97" style="fill:none;stroke:#999;stroke-width:3" />
<path d="M1328.24,55.3c7.76-0.67,17.87-1.65,25.04-2.31c1.38-0.13,2.65-0.24,3.78-0.34" style="fill:none;stroke:#999;stroke-width:3" />
<path d="M1339.45,12.25c1.03,1.03,1.48,2.5,1.48,3.97c0,0.89,0.1,55.03,0.1,74.28c0,2.9-0.03,4.25-0.03,6.75" style="fill:none;stroke:#999;stroke-width:3" />
<path d="M1340.12,55.3c0,1.33-0.84,3.4-1.69,4.94C1333.53,69.08 1327.0,76.62 1318.02,83.29" style="fill:none;stroke:#999;stroke-width:3" />
<path d="M1344.12,61.62c5.35,2.25,9.65,6.69,12.35,11.19" style="fill:none;stroke:#999;stroke-width:3" />
<path d="M1361.88,17.83c2.62,0.8,5.15,0.66,7.24,0.46c8.32-0.78,19.65-1.65,27.15-2.42c2.08-0.21,4.37-0.5,6.37-0.01" style="fill:none;stroke:#999;stroke-width:3" />
<path d="M1380.24,21.08c0.05,0.66,0.05,1.32-0.18,1.94c-1.19,3.11-2.76,6.57-4.87,9.28" style="fill:none;stroke:#999;stroke-width:3" />
<path d="M1366.49,34.28c0.93,0.93,1.09,1.87,1.09,3.25c0,1.09,0.07,23.43-0.01,33.47c-0.02,2.69-0.13,5.29,0.01,6.68" style="fill:none;stroke:#999;stroke-width:3" />
<path d="M1368.32,35.48c3.43-0.48,17.37-1.82,23.31-2.37c2.69-0.25,4.2,0.05,4.2,3.17c0,1.27,0.02,23.47,0.02,34.47c0,3.28-0.08,5.49-0.08,5.73" style="fill:none;stroke:#999;stroke-width:3" />
<path d="M1369.02,48.94c4.36-0.55,20.31-2.32,25.67-2.43" style="fill:none;stroke:#999;stroke-width:3" />
<path d="M1368.91,61.41c5.77-0.59,18.9-2.03,25.75-2.18" style="fill:none;stroke:black;stroke-width:3" />
<circle cx="1368.91" cy="61.41" r="5" stroke-width="0" fill="#FF2A00" opacity="0.7" />
<path d="M1432.75,25.54c1.84,0.98,4.36,0.73,6.37,0.5c5.97-0.7,16.43-1.87,21.9-2.35c1.57-0.14,3.11-0.43,4.9-0.07" style="fill:none;stroke:#999;stroke-width:3" />
<path d="M1432.67,39.9c0.5,0.57,0.8,1.24,0.9,1.99c0.44,1.73,1.44,7.17,2.12,11.1c0.36,2.08,0.63,3.73,0.68,4.2" style="fill:none;stroke:#999;stroke-width:3" />
<path d="M1434.77,41.4c7.71-1.39,26.3-3.29,29.32-3.61c1.88-0.2,3.06,2.08,2.57,3.93c-0.9,3.35-2.36,8.73-2.7,9.97" style="fill:none;stroke:#999;stroke-width:3" />
<path d="M1437.24,55.3c7.76-0.67,17.87-1.65,25.04-2.31c1.38-0.13,2.65-0.24,3.78-0.34" style="fill:none;stroke:#999;stroke-width:3" />
<path d="M1448.45,12.25c1.03,1.03,1.48,2.5,1.48,3.97c0,0.89,0.1,55.03,0.1,74.28c0,2.9-0.03,4.25-0.03,6.75" style="fill:none;stroke:#999;stroke-width:3" />
<path d="M1449.12,55.3c0,1.33-0.84,3.4-1.69,4.94C1442.53,69.08 1436.0,76.62 1427.02,83.29" style="fill:none;stroke:#999;stroke-width:3" />
<path d="M1453.12,61.62c5.35,2.25,9.65,6.69,12.35,11.19" style="fill:none;stroke:#999;stroke-width:3" />
<path d="M1470.88,17.83c2.62,0.8,5.15,0.66,7.24,0.46c8.32-0.78,19.65-1.65,27.15-2.42c2.08-0.21,4.37-0.5,6.37-0.01" style="fill:none;stroke:#999;stroke-width:3" />
<path d="M1489.24,21.08c0.05,0.66,0.05,1.32-0.18,1.94c-1.19,3.11-2.76,6.57-4.87,9.28" style="fill:none;stroke:#999;stroke-width:3" />
<path d="M1475.49,34.28c0.93,0.93,1.09,1.87,1.09,3.25c0,1.09,0.07,23.43-0.01,33.47c-0.02,2.69-0.13,5.29,0.01,6.68" style="fill:none;stroke:#999;stroke-width:3" />
<path d="M1477.32,35.48c3.43-0.48,17.37-1.82,23.31-2.37c2.69-0.25,4.2,0.05,4.2,3.17c0,1.27,0.02,23.47,0.02,34.47c0,3.28-0.08,5.49-0.08,5.73" style="fill:none;stroke:#999;stroke-width:3" />
<path d="M1478.02,48.94c4.36-0.55,20.31-2.32,25.67-2.43" style="fill:none;stroke:#999;stroke-width:3" />
<path d="M1477.91,61.41c5.77-0.59,18.9-2.03,25.75-2.18" style="fill:none;stroke:#999;stroke-width:3" />
<path d="M1477.83,75.16c9.17-0.66,17.67-1.41,25.75-1.9" style="fill:none;stroke:black;stroke-width:3" />
<circle cx="1477.83" cy="75.16" r="5" stroke-width="0" fill="#FF2A00" opacity="0.7" />
<path d="M1541.75,25.54c1.84,0.98,4.36,0.73,6.37,0.5c5.97-0.7,16.43-1.87,21.9-2.35c1.57-0.14,3.11-0.43,4.9-0.07" style="fill:none;stroke:#999;stroke-width:3" />
<path d="M1541.67,39.9c0.5,0.57,0.8,1.24,0.9,1.99c0.44,1.73,1.44,7.17,2.12,11.1c0.36,2.08,0.63,3.73,0.68,4.2" style="fill:none;stroke:#999;stroke-width:3" />
<path d="M1543.77,41.4c7.71-1.39,26.3-3.29,29.32-3.61c1.88-0.2,3.06,2.08,2.57,3.93c-0.9,3.35-2.36,8.73-2.7,9.97" style="fill:none;stroke:#999;stroke-width:3" />
<path d="M1546.24,55.3c7.76-0.67,17.87-1.65,25.04-2.31c1.38-0.13,2.65-0.24,3.78-0.34" style="fill:none;stroke:#999;stroke-width:3" />
<path d="M1557.45,12.25c1.03,1.03,1.48,2.5,1.48,3.97c0,0.89,0.1,55.03,0.1,74.28c0,2.9-0.03,4.25-0.03,6.75" style="fill:none;stroke:#999;stroke-width:3" />
<path d="M1558.12,55.3c0,1.33-0.84,3.4-1.69,4.94C1551.53,69.08 1545.0,76.62 1536.02,83.29" style="fill:none;stroke:#999;stroke-width:3" />
<path d="M1562.12,61.62c5.35,2.25,9.65,6.69,12.35,11.19" style="fill:none;stroke:#999;stroke-width:3" />
<path d="M1579.88,17.83c2.62,0.8,5.15,0.66,7.24,0.46c8.32-0.78,19.65-1.65,27.15-2.42c2.08-0.21,4.37-0.5,6.37-0.01" style="fill:none;stroke:#999;stroke-width:3" />
<path d="M1598.24,21.08c0.05,0.66,0.05,1.32-0.18,1.94c-1.19,3.11-2.76,6.57-4.87,9.28" style="fill:none;stroke:#999;stroke-width:3" />
<path d="M1584.49,34.28c0.93,0.93,1.09,1.87,1.09,3.25c0,1.09,0.07,23.43-0.01,33.47c-0.02,2.69-0.13,5.29,0.01,6.68" style="fill:none;stroke:#999;stroke-width:3" />
<path d="M1586.32,35.48c3.43-0.48,17.37-1.82,23.31-2.37c2.69-0.25,4.2,0.05,4.2,3.17c0,1.27,0.02,23.47,0.02,34.47c0,3.28-0.08,5.49-0.08,5.73" style="fill:none;stroke:#999;stroke-width:3" />
<path d="M1587.02,48.94c4.36-0.55,20.31-2.32,25.67-2.43" style="fill:none;stroke:#999;stroke-width:3" />
<path d="M1586.91,61.41c5.77-0.59,18.9-2.03,25.75-2.18" style="fill:none;stroke:#999;stroke-width:3" />
<path d="M1586.83,75.16c9.17-0.66,17.67-1.41,25.75-1.9" style="fill:none;stroke:#999;stroke-width:3" />
<path d="M1592.54,78.81c0.08,1.19-0.31,2.13-1.07,3.08c-2.6,3.23-6.47,7.61-12.44,12.28" style="fill:none;stroke:black;stroke-width:3" />
<circle cx="1592.54" cy="78.81" r="5" stroke-width="0" fill="#FF2A00" opacity="0.7" />
<path d="M1650.75,25.54c1.84,0.98,4.36,0.73,6.37,0.5c5.97-0.7,16.43-1.87,21.9-2.35c1.57-0.14,3.11-0.43,4.9-0.07" style="fill:none;stroke:#999;stroke-width:3" />
<path d="M1650.67,39.9c0.5,0.57,0.8,1.24,0.9,1.99c0.44,1.73,1.44,7.17,2.12,11.1c0.36,2.08,0.63,3.73,0.68,4.2" style="fill:none;stroke:#999;stroke-width:3" />
<path d="M1652.77,41.4c7.71-1.39,26.3-3.29,29.32-3.61c1.88-0.2,3.06,2.08,2.57,3.93c-0.9,3.35-2.36,8.73-2.7,9.97" style="fill:none;stroke:#999;stroke-width:3" />
<path d="M1655.24,55.3c7.76-0.67,17.87-1.65,25.04-2.31c1.38-0.13,2.65-0.24,3.78-0.34" style="fill:none;stroke:#999;stroke-width:3" />
<path d="M1666.45,12.25c1.03,1.03,1.48,2.5,1.48,3.97c0,0.89,0.1,55.03,0.1,74.28c0,2.9-0.03,4.25-0.03,6.75" style="fill:none;stroke:#999;stroke-width:3" />
<path d="M1667.12,55.3c0,1.33-0.84,3.4-1.69,4.94C1660.53,69.08 1654.0,76.62 1645.02,83.29" style="fill:none;stroke:#999;stroke-width:3" />
<path d="M1671.12,61.62c5.35,2.25,9.65,6.69,12.35,11.19" style="fill:none;stroke:#999;stroke-width:3" />
<path d="M1688.88,17.83c2.62,0.8,5.15,0.66,7.24,0.46c8.32-0.78,19.65-1.65,27.15-2.42c2.08-0.21,4.37-0.5,6.37-0.01" style="fill:none;stroke:#999;stroke-width:3" />
<path d="M1707.24,21.08c0.05,0.66,0.05,1.32-0.18,1.94c-1.19,3.11-2.76,6.57-4.87,9.28" style="fill:none;stroke:#999;stroke-width:3" />
<path d="M1693.49,34.28c0.93,0.93,1.09,1.87,1.09,3.25c0,1.09,0.07,23.43-0.01,33.47c-0.02,2.69-0.13,5.29,0.01,6.68" style="fill:none;stroke:#999;stroke-width:3" />
<path d="M1695.32,35.48c3.43-0.48,17.37-1.82,23.31-2.37c2.69-0.25,4.2,0.05,4.2,3.17c0,1.27,0.02,23.47,0.02,34.47c0,3.28-0.08,5.49-0.08,5.73" style="fill:none;stroke:#999;stroke-width:3" />
<path d="M1696.02,48.94c4.36-0.55,20.31-2.32,25.67-2.43" style="fill:none;stroke:#999;stroke-width:3" />
<path d="M1695.91,61.41c5.77-0.59,18.9-2.03,25.75-2.18" style="fill:none;stroke:#999;stroke-width:3" />
<path d="M1695.83,75.16c9.17-0.66,17.67-1.41,25.75-1.9" style="fill:none;stroke:#999;stroke-width:3" />
<path d="M1701.54,78.81c0.08,1.19-0.31,2.13-1.07,3.08c-2.6,3.23-6.47,7.61-12.44,12.28" style="fill:none;stroke:#999;stroke-width:3" />
<path d="M1716.85,82.19c4.54,3.1,10.27,9.98,11.5,12.58" style="fill:none;stroke:black;stroke-width:3" />
<circle cx="1716.85" cy="82.19" r="5" stroke-width="0" fill="#FF2A00" opacity="0.7" />
</svg>