<!-- 09867 -->
<svg width="2289px" height="109px" viewBox="0 0 2289px 109px" xmlns="http://www.w3.org/2000/svg" xmlns:xlink="http://www.w3.org/1999/xlink" xml:space="preserve" version="1.1"  baseProfile="full">
<line x1="1" y1="1" x2="2288" y2="1" style="stroke:#ddd;stroke-width:2" />
<line x1="1" y1="1" x2="1" y2="108" style="stroke:#ddd;stroke-width:2" />
<line x1="1" y1="108" x2="2288" y2="108" style="stroke:#ddd;stroke-width:2" />
<line x1="2288" y1="1" x2="2288" y2="108" style="stroke:#ddd;stroke-width:2" />
<line x1="109" y1="1" x2="109" y2="108" style="stroke:#ddd;stroke-width:2" />
<line x1="218" y1="1" x2="218" y2="108" style="stroke:#ddd;stroke-width:2" />
<line x1="327" y1="1" x2="327" y2="108" style="stroke:#ddd;stroke-width:2" />
<line x1="436" y1="1" x2="436" y2="108" style="stroke:#ddd;stroke-width:2" />
<line x1="545" y1="1" x2="545" y2="108" style="stroke:#ddd;stroke-width:2" />
<line x1="654" y1="1" x2="654" y2="108" style="stroke:#ddd;stroke-width:2" />
<line x1="763" y1="1" x2="763" y2="108" style="stroke:#ddd;stroke-width:2" />
<line x1="872" y1="1" x2="872" y2="108" style="stroke:#ddd;stroke-width:2" />
<line x1="981" y1="1" x2="981" y2="108" style="stroke:#ddd;stroke-width:2" />
<line x1="1090" y1="1" x2="1090" y2="108" style="stroke:#ddd;stroke-width:2" />
<line x1="1199" y1="1" x2="1199" y2="108" style="stroke:#ddd;stroke-width:2" />
<line x1="1308" y1="1" x2="1308" y2="108" style="stroke:#ddd;stroke-width:2" />
<line x1="1417" y1="1" x2="1417" y2="108" style="stroke:#ddd;stroke-width:2" />
<line x1="1526" y1="1" x2="1526" y2="108" style="stroke:#ddd;stroke-width:2" />
<line x1="1635" y1="1" x2="1635" y2="108" style="stroke:#ddd;stroke-width:2" />
<line x1="1744" y1="1" x2="1744" y2="108" style="stroke:#ddd;stroke-width:2" />
<line x1="1853" y1="1" x2="1853" y2="108" style="stroke:#ddd;stroke-width:2" />
<line x1="1962" y1="1" x2="1962" y2="108" style="stroke:#ddd;stroke-width:2" />
<line x1="2071" y1="1" x2="2071" y2="108" style="stroke:#ddd;stroke-width:2" />
<line x1="2180" y1="1" x2="2180" y2="108" style="stroke:#ddd;stroke-width:2" />
<line x1="1" y1="54" x2="2288" y2="54" style="stroke:#ddd;stroke-width:2;stroke-dasharray:3 3" />
<line x1="55" y1="1" x2="55" y2="108" style="stroke:#ddd;stroke-width:2;stroke-dasharray:3 3" />
<line x1="164" y1="1" x2="164" y2="108" style="stroke:#ddd;stroke-width:2;stroke-dasharray:3 3" />
<line x1="273" y1="1" x2="273" y2="108" style="stroke:#ddd;stroke-width:2;stroke-dasharray:3 3" />
<line x1="382" y1="1" x2="382" y2="108" style="stroke:#ddd;stroke-width:2;stroke-dasharray:3 3" />
<line x1="491" y1="1" x2="491" y2="108" style="stroke:#ddd;stroke-width:2;stroke-dasharray:3 3" />
<line x1="600" y1="1" x2="600" y2="108" style="stroke:#ddd;stroke-width:2;stroke-dasharray:3 3" />
<line x1="709" y1="1" x2="709" y2="108" style="stroke:#ddd;stroke-width:2;stroke-dasharray:3 3" />
<line x1="818" y1="1" x2="818" y2="108" style="stroke:#ddd;stroke-width:2;stroke-dasharray:3 3" />
<line x1="927" y1="1" x2="927" y2="108" style="stroke:#ddd;stroke-width:2;stroke-dasharray:3 3" />
<line x1="1036" y1="1" x2="1036" y2="108" style="stroke:#ddd;stroke-width:2;stroke-dasharray:3 3" />
<line x1="1145" y1="1" x2="1145" y2="108" style="stroke:#ddd;stroke-width:2;stroke-dasharray:3 3" />
<line x1="1254" y1="1" x2="1254" y2="108" style="stroke:#ddd;stroke-width:2;stroke-dasharray:3 3" />
<line x1="1363" y1="1" x2="1363" y2="108" style="stroke:#ddd;stroke-width:2;stroke-dasharray:3 3" />
<line x1="1472" y1="1" x2="1472" y2="108" style="stroke:#ddd;stroke-width:2;stroke-dasharray:3 3" />
<line x1="1581" y1="1" x2="1581" y2="108" style="stroke:#ddd;stroke-width:2;stroke-dasharray:3 3" />
<line x1="1690" y1="1" x2="1690" y2="108" style="stroke:#ddd;stroke-width:2;stroke-dasharray:3 3" />
<line x1="1799" y1="1" x2="1799" y2="108" style="stroke:#ddd;stroke-width:2;stroke-dasharray:3 3" />
<line x1="1908" y1="1" x2="1908" y2="108" style="stroke:#ddd;stroke-width:2;stroke-dasharray:3 3" />
<line x1="2017" y1="1" x2="2017" y2="108" style="stroke:#ddd;stroke-width:2;stroke-dasharray:3 3" />
<line x1="2126" y1="1" x2="2126" y2="108" style="stroke:#ddd;stroke-width:2;stroke-dasharray:3 3" />
<line x1="2235" y1="1" x2="2235" y2="108" style="stroke:#ddd;stroke-width:2;stroke-dasharray:3 3" />
<path d="M18.73,18c2.02,0.25,3.7,0.23,5.3,0.09c6.65-0.55,14.13-1.87,23.73-2.46c1.77-0.11,3.58-0.32,5.32,0.11" style="fill:none;stroke:black;stroke-width:3" />
<circle cx="18.73" cy="18.0" r="5" stroke-width="0" fill="#FF2A00" opacity="0.7" />
<path d="M127.73,18c2.02,0.25,3.7,0.23,5.3,0.09c6.65-0.55,14.13-1.87,23.73-2.46c1.77-0.11,3.58-0.32,5.32,0.11" style="fill:none;stroke:#999;stroke-width:3" />
<path d="M129.19,28.81c1.56,0.69,2.8,0.77,4.41,0.64c8.07-0.64,19.57-2.41,25.54-2.98c2.72-0.26,4.13,0.34,3.41,3.29c-0.45,1.87-1.06,3.09-1.99,6.55" style="fill:none;stroke:black;stroke-width:3" />
<circle cx="129.19" cy="28.81" r="5" stroke-width="0" fill="#FF2A00" opacity="0.7" />
<path d="M236.73000000000002,18c2.02,0.25,3.7,0.23,5.3,0.09c6.65-0.55,14.13-1.87,23.73-2.46c1.77-0.11,3.58-0.32,5.32,0.11" style="fill:none;stroke:#999;stroke-width:3" />
<path d="M238.19,28.81c1.56,0.69,2.8,0.77,4.41,0.64c8.07-0.64,19.57-2.41,25.54-2.98c2.72-0.26,4.13,0.34,3.41,3.29c-0.45,1.87-1.06,3.09-1.99,6.55" style="fill:none;stroke:#999;stroke-width:3" />
<path d="M241.62,39.75c4.84-0.46,17.14-1.68,25.62-2.62c1.66-0.18,3.16-0.35,4.4-0.48" style="fill:none;stroke:black;stroke-width:3" />
<circle cx="241.62" cy="39.75" r="5" stroke-width="0" fill="#FF2A00" opacity="0.7" />
<path d="M345.73,18c2.02,0.25,3.7,0.23,5.3,0.09c6.65-0.55,14.13-1.87,23.73-2.46c1.77-0.11,3.58-0.32,5.32,0.11" style="fill:none;stroke:#999;stroke-width:3" />
<path d="M347.19,28.81c1.56,0.69,2.8,0.77,4.41,0.64c8.07-0.64,19.57-2.41,25.54-2.98c2.72-0.26,4.13,0.34,3.41,3.29c-0.45,1.87-1.06,3.09-1.99,6.55" style="fill:none;stroke:#999;stroke-width:3" />
<path d="M350.62,39.75c4.84-0.46,17.14-1.68,25.62-2.62c1.66-0.18,3.16-0.35,4.4-0.48" style="fill:none;stroke:#999;stroke-width:3" />
<path d="M349.35,29.99c0.71,0.71,0.84,2.18,0.68,3.95C348.0,56.25 345.25,71 338.63,82.08" style="fill:none;stroke:black;stroke-width:3" />
<circle cx="349.35" cy="29.99" r="5" stroke-width="0" fill="#FF2A00" opacity="0.7" />
<path d="M454.73,18c2.02,0.25,3.7,0.23,5.3,0.09c6.65-0.55,14.13-1.87,23.73-2.46c1.77-0.11,3.58-0.32,5.32,0.11" style="fill:none;stroke:#999;stroke-width:3" />
<path d="M456.19,28.81c1.56,0.69,2.8,0.77,4.41,0.64c8.07-0.64,19.57-2.41,25.54-2.98c2.72-0.26,4.13,0.34,3.41,3.29c-0.45,1.87-1.06,3.09-1.99,6.55" style="fill:none;stroke:#999;stroke-width:3" />
<path d="M459.62,39.75c4.84-0.46,17.14-1.68,25.62-2.62c1.66-0.18,3.16-0.35,4.4-0.48" style="fill:none;stroke:#999;stroke-width:3" />
<path d="M458.35,29.99c0.71,0.71,0.84,2.18,0.68,3.95C457.0,56.25 454.25,71 447.63,82.08" style="fill:none;stroke:#999;stroke-width:3" />
<path d="M470.27,44.61c0.13,1.04-0.04,2.4-0.47,3.28c-2.75,5.67-6.24,10.46-12.55,17.36" style="fill:none;stroke:black;stroke-width:3" />
<circle cx="470.27" cy="44.61" r="5" stroke-width="0" fill="#FF2A00" opacity="0.7" />
<path d="M563.73,18c2.02,0.25,3.7,0.23,5.3,0.09c6.65-0.55,14.13-1.87,23.73-2.46c1.77-0.11,3.58-0.32,5.32,0.11" style="fill:none;stroke:#999;stroke-width:3" />
<path d="M565.19,28.81c1.56,0.69,2.8,0.77,4.41,0.64c8.07-0.64,19.57-2.41,25.54-2.98c2.72-0.26,4.13,0.34,3.41,3.29c-0.45,1.87-1.06,3.09-1.99,6.55" style="fill:none;stroke:#999;stroke-width:3" />
<path d="M568.62,39.75c4.84-0.46,17.14-1.68,25.62-2.62c1.66-0.18,3.16-0.35,4.4-0.48" style="fill:none;stroke:#999;stroke-width:3" />
<path d="M567.35,29.99c0.71,0.71,0.84,2.18,0.68,3.95C566.0,56.25 563.25,71 556.63,82.08" style="fill:none;stroke:#999;stroke-width:3" />
<path d="M579.27,44.61c0.13,1.04-0.04,2.4-0.47,3.28c-2.75,5.67-6.24,10.46-12.55,17.36" style="fill:none;stroke:#999;stroke-width:3" />
<path d="M573.39,58.71c0.7,0.7,0.87,1.54,0.87,2.53c0,6.57-0.02,19.36-0.01,28.5c0,2.16,0.01,4.12,0.02,5.75" style="fill:none;stroke:black;stroke-width:3" />
<circle cx="573.39" cy="58.71" r="5" stroke-width="0" fill="#FF2A00" opacity="0.7" />
<path d="M672.73,18c2.02,0.25,3.7,0.23,5.3,0.09c6.65-0.55,14.13-1.87,23.73-2.46c1.77-0.11,3.58-0.32,5.32,0.11" style="fill:none;stroke:#999;stroke-width:3" />
<path d="M674.19,28.81c1.56,0.69,2.8,0.77,4.41,0.64c8.07-0.64,19.57-2.41,25.54-2.98c2.72-0.26,4.13,0.34,3.41,3.29c-0.45,1.87-1.06,3.09-1.99,6.55" style="fill:none;stroke:#999;stroke-width:3" />
<path d="M677.62,39.75c4.84-0.46,17.14-1.68,25.62-2.62c1.66-0.18,3.16-0.35,4.4-0.48" style="fill:none;stroke:#999;stroke-width:3" />
<path d="M676.35,29.99c0.71,0.71,0.84,2.18,0.68,3.95C675.0,56.25 672.25,71 665.63,82.08" style="fill:none;stroke:#999;stroke-width:3" />
<path d="M688.27,44.61c0.13,1.04-0.04,2.4-0.47,3.28c-2.75,5.67-6.24,10.46-12.55,17.36" style="fill:none;stroke:#999;stroke-width:3" />
<path d="M682.39,58.71c0.7,0.7,0.87,1.54,0.87,2.53c0,6.57-0.02,19.36-0.01,28.5c0,2.16,0.01,4.12,0.02,5.75" style="fill:none;stroke:#999;stroke-width:3" />
<path d="M701.63,44.26c0.04,0.6,0.05,1.41-0.15,1.91c-1.24,3.2-2.24,5.32-4.13,8.11" style="fill:none;stroke:black;stroke-width:3" />
<circle cx="701.63" cy="44.26" r="5" stroke-width="0" fill="#FF2A00" opacity="0.7" />
<path d="M781.73,18c2.02,0.25,3.7,0.23,5.3,0.09c6.65-0.55,14.13-1.87,23.73-2.46c1.77-0.11,3.58-0.32,5.32,0.11" style="fill:none;stroke:#999;stroke-width:3" />
<path d="M783.19,28.81c1.56,0.69,2.8,0.77,4.41,0.64c8.07-0.64,19.57-2.41,25.54-2.98c2.72-0.26,4.13,0.34,3.41,3.29c-0.45,1.87-1.06,3.09-1.99,6.55" style="fill:none;stroke:#999;stroke-width:3" />
<path d="M786.62,39.75c4.84-0.46,17.14-1.68,25.62-2.62c1.66-0.18,3.16-0.35,4.4-0.48" style="fill:none;stroke:#999;stroke-width:3" />
<path d="M785.35,29.99c0.71,0.71,0.84,2.18,0.68,3.95C784.0,56.25 781.25,71 774.63,82.08" style="fill:none;stroke:#999;stroke-width:3" />
<path d="M797.27,44.61c0.13,1.04-0.04,2.4-0.47,3.28c-2.75,5.67-6.24,10.46-12.55,17.36" style="fill:none;stroke:#999;stroke-width:3" />
<path d="M791.39,58.71c0.7,0.7,0.87,1.54,0.87,2.53c0,6.57-0.02,19.36-0.01,28.5c0,2.16,0.01,4.12,0.02,5.75" style="fill:none;stroke:#999;stroke-width:3" />
<path d="M810.63,44.26c0.04,0.6,0.05,1.41-0.15,1.91c-1.24,3.2-2.24,5.32-4.13,8.11" style="fill:none;stroke:#999;stroke-width:3" />
<path d="M791.88,57.55c4.2-0.54,15.18-1.54,21.86-2.33c1.61-0.19,3.24-0.35,4.84-0.61" style="fill:none;stroke:black;stroke-width:3" />
<circle cx="791.88" cy="57.55" r="5" stroke-width="0" fill="#FF2A00" opacity="0.7" />
<path d="M890.73,18c2.02,0.25,3.7,0.23,5.3,0.09c6.65-0.55,14.13-1.87,23.73-2.46c1.77-0.11,3.58-0.32,5.32,0.11" style="fill:none;stroke:#999;stroke-width:3" />
<path d="M892.19,28.81c1.56,0.69,2.8,0.77,4.41,0.64c8.07-0.64,19.57-2.41,25.54-2.98c2.72-0.26,4.13,0.34,3.41,3.29c-0.45,1.87-1.06,3.09-1.99,6.55" style="fill:none;stroke:#999;stroke-width:3" />
<path d="M895.62,39.75c4.84-0.46,17.14-1.68,25.62-2.62c1.66-0.18,3.16-0.35,4.4-0.48" style="fill:none;stroke:#999;stroke-width:3" />
<path d="M894.35,29.99c0.71,0.71,0.84,2.18,0.68,3.95C893.0,56.25 890.25,71 883.63,82.08" style="fill:none;stroke:#999;stroke-width:3" />
<path d="M906.27,44.61c0.13,1.04-0.04,2.4-0.47,3.28c-2.75,5.67-6.24,10.46-12.55,17.36" style="fill:none;stroke:#999;stroke-width:3" />
<path d="M900.39,58.71c0.7,0.7,0.87,1.54,0.87,2.53c0,6.57-0.02,19.36-0.01,28.5c0,2.16,0.01,4.12,0.02,5.75" style="fill:none;stroke:#999;stroke-width:3" />
<path d="M919.63,44.26c0.04,0.6,0.05,1.41-0.15,1.91c-1.24,3.2-2.24,5.32-4.13,8.11" style="fill:none;stroke:#999;stroke-width:3" />
<path d="M900.88,57.55c4.2-0.54,15.18-1.54,21.86-2.33c1.61-0.19,3.24-0.35,4.84-0.61" style="fill:none;stroke:#999;stroke-width:3" />
<path d="M914.71,57.04c0.5,0.75,0.91,1.82,0.75,2.71c0,6.27,0.04,20.99,0.04,28.5" style="fill:none;stroke:black;stroke-width:3" />
<circle cx="914.71" cy="57.04" r="5" stroke-width="0" fill="#FF2A00" opacity="0.7" />
<path d="M999.73,18c2.02,0.25,3.7,0.23,5.3,0.09c6.65-0.55,14.13-1.87,23.73-2.46c1.77-0.11,3.58-0.32,5.32,0.11" style="fill:none;stroke:#999;stroke-width:3" />
<path d="M1001.19,28.81c1.56,0.69,2.8,0.77,4.41,0.64c8.07-0.64,19.57-2.41,25.54-2.98c2.72-0.26,4.13,0.34,3.41,3.29c-0.45,1.87-1.06,3.09-1.99,6.55" style="fill:none;stroke:#999;stroke-width:3" />
<path d="M1004.62,39.75c4.84-0.46,17.14-1.68,25.62-2.62c1.66-0.18,3.16-0.35,4.4-0.48" style="fill:none;stroke:#999;stroke-width:3" />
<path d="M1003.35,29.99c0.71,0.71,0.84,2.18,0.68,3.95C1002.0,56.25 999.25,71 992.63,82.08" style="fill:none;stroke:#999;stroke-width:3" />
<path d="M1015.27,44.61c0.13,1.04-0.04,2.4-0.47,3.28c-2.75,5.67-6.24,10.46-12.55,17.36" style="fill:none;stroke:#999;stroke-width:3" />
<path d="M1009.39,58.71c0.7,0.7,0.87,1.54,0.87,2.53c0,6.57-0.02,19.36-0.01,28.5c0,2.16,0.01,4.12,0.02,5.75" style="fill:none;stroke:#999;stroke-width:3" />
<path d="M1028.63,44.26c0.04,0.6,0.05,1.41-0.15,1.91c-1.24,3.2-2.24,5.32-4.13,8.11" style="fill:none;stroke:#999;stroke-width:3" />
<path d="M1009.88,57.55c4.2-0.54,15.18-1.54,21.86-2.33c1.61-0.19,3.24-0.35,4.84-0.61" style="fill:none;stroke:#999;stroke-width:3" />
<path d="M1023.71,57.04c0.5,0.75,0.91,1.82,0.75,2.71c0,6.27,0.04,20.99,0.04,28.5" style="fill:none;stroke:#999;stroke-width:3" />
<path d="M1011.65,67.79c4.16-0.46,14.5-1.61,20.65-2.26c1.82-0.19,3.16-0.34,3.69-0.42" style="fill:none;stroke:black;stroke-width:3" />
<circle cx="1011.65" cy="67.79" r="5" stroke-width="0" fill="#FF2A00" opacity="0.7" />
<path d="M1108.73,18c2.02,0.25,3.7,0.23,5.3,0.09c6.65-0.55,14.13-1.87,23.73-2.46c1.77-0.11,3.58-0.32,5.32,0.11" style="fill:none;stroke:#999;stroke-width:3" />
<path d="M1110.19,28.81c1.56,0.69,2.8,0.77,4.41,0.64c8.07-0.64,19.57-2.41,25.54-2.98c2.72-0.26,4.13,0.34,3.41,3.29c-0.45,1.87-1.06,3.09-1.99,6.55" style="fill:none;stroke:#999;stroke-width:3" />
<path d="M1113.62,39.75c4.84-0.46,17.14-1.68,25.62-2.62c1.66-0.18,3.16-0.35,4.4-0.48" style="fill:none;stroke:#999;stroke-width:3" />
<path d="M1112.35,29.99c0.71,0.71,0.84,2.18,0.68,3.95C1111.0,56.25 1108.25,71 1101.63,82.08" style="fill:none;stroke:#999;stroke-width:3" />
<path d="M1124.27,44.61c0.13,1.04-0.04,2.4-0.47,3.28c-2.75,5.67-6.24,10.46-12.55,17.36" style="fill:none;stroke:#999;stroke-width:3" />
<path d="M1118.3899999999999,58.71c0.7,0.7,0.87,1.54,0.87,2.53c0,6.57-0.02,19.36-0.01,28.5c0,2.16,0.01,4.12,0.02,5.75" style="fill:none;stroke:#999;stroke-width:3" />
<path d="M1137.63,44.26c0.04,0.6,0.05,1.41-0.15,1.91c-1.24,3.2-2.24,5.32-4.13,8.11" style="fill:none;stroke:#999;stroke-width:3" />
<path d="M1118.88,57.55c4.2-0.54,15.18-1.54,21.86-2.33c1.61-0.19,3.24-0.35,4.84-0.61" style="fill:none;stroke:#999;stroke-width:3" />
<path d="M1132.71,57.04c0.5,0.75,0.91,1.82,0.75,2.71c0,6.27,0.04,20.99,0.04,28.5" style="fill:none;stroke:#999;stroke-width:3" />
<path d="M1120.65,67.79c4.16-0.46,14.5-1.61,20.65-2.26c1.82-0.19,3.16-0.34,3.69-0.42" style="fill:none;stroke:#999;stroke-width:3" />
<path d="M1120.5,78.4c4.59-0.41,15.82-1.78,21.75-2.43c1.42-0.16,2.46-0.27,2.93-0.33" style="fill:none;stroke:black;stroke-width:3" />
<circle cx="1120.5" cy="78.4" r="5" stroke-width="0" fill="#FF2A00" opacity="0.7" />
<path d="M1217.73,18c2.02,0.25,3.7,0.23,5.3,0.09c6.65-0.55,14.13-1.87,23.73-2.46c1.77-0.11,3.58-0.32,5.32,0.11" style="fill:none;stroke:#999;stroke-width:3" />
<path d="M1219.19,28.81c1.56,0.69,2.8,0.77,4.41,0.64c8.07-0.64,19.57-2.41,25.54-2.98c2.72-0.26,4.13,0.34,3.41,3.29c-0.45,1.87-1.06,3.09-1.99,6.55" style="fill:none;stroke:#999;stroke-width:3" />
<path d="M1222.62,39.75c4.84-0.46,17.14-1.68,25.62-2.62c1.66-0.18,3.16-0.35,4.4-0.48" style="fill:none;stroke:#999;stroke-width:3" />
<path d="M1221.35,29.99c0.71,0.71,0.84,2.18,0.68,3.95C1220.0,56.25 1217.25,71 1210.63,82.08" style="fill:none;stroke:#999;stroke-width:3" />
<path d="M1233.27,44.61c0.13,1.04-0.04,2.4-0.47,3.28c-2.75,5.67-6.24,10.46-12.55,17.36" style="fill:none;stroke:#999;stroke-width:3" />
<path d="M1227.3899999999999,58.71c0.7,0.7,0.87,1.54,0.87,2.53c0,6.57-0.02,19.36-0.01,28.5c0,2.16,0.01,4.12,0.02,5.75" style="fill:none;stroke:#999;stroke-width:3" />
<path d="M1246.63,44.26c0.04,0.6,0.05,1.41-0.15,1.91c-1.24,3.2-2.24,5.32-4.13,8.11" style="fill:none;stroke:#999;stroke-width:3" />
<path d="M1227.88,57.55c4.2-0.54,15.18-1.54,21.86-2.33c1.61-0.19,3.24-0.35,4.84-0.61" style="fill:none;stroke:#999;stroke-width:3" />
<path d="M1241.71,57.04c0.5,0.75,0.91,1.82,0.75,2.71c0,6.27,0.04,20.99,0.04,28.5" style="fill:none;stroke:#999;stroke-width:3" />
<path d="M1229.65,67.79c4.16-0.46,14.5-1.61,20.65-2.26c1.82-0.19,3.16-0.34,3.69-0.42" style="fill:none;stroke:#999;stroke-width:3" />
<path d="M1229.5,78.4c4.59-0.41,15.82-1.78,21.75-2.43c1.42-0.16,2.46-0.27,2.93-0.33" style="fill:none;stroke:#999;stroke-width:3" />
<path d="M1229.49,90.44c4.42-0.56,16.3-1.31,23.03-2.02c1.97-0.21,3.41-0.37,3.96-0.46" style="fill:none;stroke:black;stroke-width:3" />
<circle cx="1229.49" cy="90.44" r="5" stroke-width="0" fill="#FF2A00" opacity="0.7" />
<path d="M1326.73,18c2.02,0.25,3.7,0.23,5.3,0.09c6.65-0.55,14.13-1.87,23.73-2.46c1.77-0.11,3.58-0.32,5.32,0.11" style="fill:none;stroke:#999;stroke-width:3" />
<path d="M1328.19,28.81c1.56,0.69,2.8,0.77,4.41,0.64c8.07-0.64,19.57-2.41,25.54-2.98c2.72-0.26,4.13,0.34,3.41,3.29c-0.45,1.87-1.06,3.09-1.99,6.55" style="fill:none;stroke:#999;stroke-width:3" />
<path d="M1331.62,39.75c4.84-0.46,17.14-1.68,25.62-2.62c1.66-0.18,3.16-0.35,4.4-0.48" style="fill:none;stroke:#999;stroke-width:3" />
<path d="M1330.35,29.99c0.71,0.71,0.84,2.18,0.68,3.95C1329.0,56.25 1326.25,71 1319.63,82.08" style="fill:none;stroke:#999;stroke-width:3" />
<path d="M1342.27,44.61c0.13,1.04-0.04,2.4-0.47,3.28c-2.75,5.67-6.24,10.46-12.55,17.36" style="fill:none;stroke:#999;stroke-width:3" />
<path d="M1336.3899999999999,58.71c0.7,0.7,0.87,1.54,0.87,2.53c0,6.57-0.02,19.36-0.01,28.5c0,2.16,0.01,4.12,0.02,5.75" style="fill:none;stroke:#999;stroke-width:3" />
<path d="M1355.63,44.26c0.04,0.6,0.05,1.41-0.15,1.91c-1.24,3.2-2.24,5.32-4.13,8.11" style="fill:none;stroke:#999;stroke-width:3" />
<path d="M1336.88,57.55c4.2-0.54,15.18-1.54,21.86-2.33c1.61-0.19,3.24-0.35,4.84-0.61" style="fill:none;stroke:#999;stroke-width:3" />
<path d="M1350.71,57.04c0.5,0.75,0.91,1.82,0.75,2.71c0,6.27,0.04,20.99,0.04,28.5" style="fill:none;stroke:#999;stroke-width:3" />
<path d="M1338.65,67.79c4.16-0.46,14.5-1.61,20.65-2.26c1.82-0.19,3.16-0.34,3.69-0.42" style="fill:none;stroke:#999;stroke-width:3" />
<path d="M1338.5,78.4c4.59-0.41,15.82-1.78,21.75-2.43c1.42-0.16,2.46-0.27,2.93-0.33" style="fill:none;stroke:#999;stroke-width:3" />
<path d="M1338.49,90.44c4.42-0.56,16.3-1.31,23.03-2.02c1.97-0.21,3.41-0.37,3.96-0.46" style="fill:none;stroke:#999;stroke-width:3" />
<path d="M1367.63,17.1c1.87,0.4,4.17,0.28,6.1,0.06c7.86-0.89,18.14-1.63,25.29-2.05c1.92-0.11,3.73-0.3,5.6,0.25" style="fill:none;stroke:black;stroke-width:3" />
<circle cx="1367.63" cy="17.1" r="5" stroke-width="0" fill="#FF2A00" opacity="0.7" />
<path d="M1435.73,18c2.02,0.25,3.7,0.23,5.3,0.09c6.65-0.55,14.13-1.87,23.73-2.46c1.77-0.11,3.58-0.32,5.32,0.11" style="fill:none;stroke:#999;stroke-width:3" />
<path d="M1437.19,28.81c1.56,0.69,2.8,0.77,4.41,0.64c8.07-0.64,19.57-2.41,25.54-2.98c2.72-0.26,4.13,0.34,3.41,3.29c-0.45,1.87-1.06,3.09-1.99,6.55" style="fill:none;stroke:#999;stroke-width:3" />
<path d="M1440.62,39.75c4.84-0.46,17.14-1.68,25.62-2.62c1.66-0.18,3.16-0.35,4.4-0.48" style="fill:none;stroke:#999;stroke-width:3" />
<path d="M1439.35,29.99c0.71,0.71,0.84,2.18,0.68,3.95C1438.0,56.25 1435.25,71 1428.63,82.08" style="fill:none;stroke:#999;stroke-width:3" />
<path d="M1451.27,44.61c0.13,1.04-0.04,2.4-0.47,3.28c-2.75,5.67-6.24,10.46-12.55,17.36" style="fill:none;stroke:#999;stroke-width:3" />
<path d="M1445.3899999999999,58.71c0.7,0.7,0.87,1.54,0.87,2.53c0,6.57-0.02,19.36-0.01,28.5c0,2.16,0.01,4.12,0.02,5.75" style="fill:none;stroke:#999;stroke-width:3" />
<path d="M1464.63,44.26c0.04,0.6,0.05,1.41-0.15,1.91c-1.24,3.2-2.24,5.32-4.13,8.11" style="fill:none;stroke:#999;stroke-width:3" />
<path d="M1445.88,57.55c4.2-0.54,15.18-1.54,21.86-2.33c1.61-0.19,3.24-0.35,4.84-0.61" style="fill:none;stroke:#999;stroke-width:3" />
<path d="M1459.71,57.04c0.5,0.75,0.91,1.82,0.75,2.71c0,6.27,0.04,20.99,0.04,28.5" style="fill:none;stroke:#999;stroke-width:3" />
<path d="M1447.65,67.79c4.16-0.46,14.5-1.61,20.65-2.26c1.82-0.19,3.16-0.34,3.69-0.42" style="fill:none;stroke:#999;stroke-width:3" />
<path d="M1447.5,78.4c4.59-0.41,15.82-1.78,21.75-2.43c1.42-0.16,2.46-0.27,2.93-0.33" style="fill:none;stroke:#999;stroke-width:3" />
<path d="M1447.49,90.44c4.42-0.56,16.3-1.31,23.03-2.02c1.97-0.21,3.41-0.37,3.96-0.46" style="fill:none;stroke:#999;stroke-width:3" />
<path d="M1476.63,17.1c1.87,0.4,4.17,0.28,6.1,0.06c7.86-0.89,18.14-1.63,25.29-2.05c1.92-0.11,3.73-0.3,5.6,0.25" style="fill:none;stroke:#999;stroke-width:3" />
<path d="M1495.23,19.1c0.05,0.66-0.02,1.31-0.22,1.95c-0.73,2.64-3.14,6.71-5.76,10.08" style="fill:none;stroke:black;stroke-width:3" />
<circle cx="1495.23" cy="19.1" r="5" stroke-width="0" fill="#FF2A00" opacity="0.7" />
<path d="M1544.73,18c2.02,0.25,3.7,0.23,5.3,0.09c6.65-0.55,14.13-1.87,23.73-2.46c1.77-0.11,3.58-0.32,5.32,0.11" style="fill:none;stroke:#999;stroke-width:3" />
<path d="M1546.19,28.81c1.56,0.69,2.8,0.77,4.41,0.64c8.07-0.64,19.57-2.41,25.54-2.98c2.72-0.26,4.13,0.34,3.41,3.29c-0.45,1.87-1.06,3.09-1.99,6.55" style="fill:none;stroke:#999;stroke-width:3" />
<path d="M1549.62,39.75c4.84-0.46,17.14-1.68,25.62-2.62c1.66-0.18,3.16-0.35,4.4-0.48" style="fill:none;stroke:#999;stroke-width:3" />
<path d="M1548.35,29.99c0.71,0.71,0.84,2.18,0.68,3.95C1547.0,56.25 1544.25,71 1537.63,82.08" style="fill:none;stroke:#999;stroke-width:3" />
<path d="M1560.27,44.61c0.13,1.04-0.04,2.4-0.47,3.28c-2.75,5.67-6.24,10.46-12.55,17.36" style="fill:none;stroke:#999;stroke-width:3" />
<path d="M1554.3899999999999,58.71c0.7,0.7,0.87,1.54,0.87,2.53c0,6.57-0.02,19.36-0.01,28.5c0,2.16,0.01,4.12,0.02,5.75" style="fill:none;stroke:#999;stroke-width:3" />
<path d="M1573.63,44.26c0.04,0.6,0.05,1.41-0.15,1.91c-1.24,3.2-2.24,5.32-4.13,8.11" style="fill:none;stroke:#999;stroke-width:3" />
<path d="M1554.88,57.55c4.2-0.54,15.18-1.54,21.86-2.33c1.61-0.19,3.24-0.35,4.84-0.61" style="fill:none;stroke:#999;stroke-width:3" />
<path d="M1568.71,57.04c0.5,0.75,0.91,1.82,0.75,2.71c0,6.27,0.04,20.99,0.04,28.5" style="fill:none;stroke:#999;stroke-width:3" />
<path d="M1556.65,67.79c4.16-0.46,14.5-1.61,20.65-2.26c1.82-0.19,3.16-0.34,3.69-0.42" style="fill:none;stroke:#999;stroke-width:3" />
<path d="M1556.5,78.4c4.59-0.41,15.82-1.78,21.75-2.43c1.42-0.16,2.46-0.27,2.93-0.33" style="fill:none;stroke:#999;stroke-width:3" />
<path d="M1556.49,90.44c4.42-0.56,16.3-1.31,23.03-2.02c1.97-0.21,3.41-0.37,3.96-0.46" style="fill:none;stroke:#999;stroke-width:3" />
<path d="M1585.63,17.1c1.87,0.4,4.17,0.28,6.1,0.06c7.86-0.89,18.14-1.63,25.29-2.05c1.92-0.11,3.73-0.3,5.6,0.25" style="fill:none;stroke:#999;stroke-width:3" />
<path d="M1604.23,19.1c0.05,0.66-0.02,1.31-0.22,1.95c-0.73,2.64-3.14,6.71-5.76,10.08" style="fill:none;stroke:#999;stroke-width:3" />
<path d="M1588.94,32.75c0.84,0.84,1.09,1.82,1.09,3.32c0,1.22,0.07,28.78-0.01,39.93c-0.02,2.58-0.02,4.28,0.01,4.57" style="fill:none;stroke:black;stroke-width:3" />
<circle cx="1588.94" cy="32.75" r="5" stroke-width="0" fill="#FF2A00" opacity="0.7" />
<path d="M1653.73,18c2.02,0.25,3.7,0.23,5.3,0.09c6.65-0.55,14.13-1.87,23.73-2.46c1.77-0.11,3.58-0.32,5.32,0.11" style="fill:none;stroke:#999;stroke-width:3" />
<path d="M1655.19,28.81c1.56,0.69,2.8,0.77,4.41,0.64c8.07-0.64,19.57-2.41,25.54-2.98c2.72-0.26,4.13,0.34,3.41,3.29c-0.45,1.87-1.06,3.09-1.99,6.55" style="fill:none;stroke:#999;stroke-width:3" />
<path d="M1658.62,39.75c4.84-0.46,17.14-1.68,25.62-2.62c1.66-0.18,3.16-0.35,4.4-0.48" style="fill:none;stroke:#999;stroke-width:3" />
<path d="M1657.35,29.99c0.71,0.71,0.84,2.18,0.68,3.95C1656.0,56.25 1653.25,71 1646.63,82.08" style="fill:none;stroke:#999;stroke-width:3" />
<path d="M1669.27,44.61c0.13,1.04-0.04,2.4-0.47,3.28c-2.75,5.67-6.24,10.46-12.55,17.36" style="fill:none;stroke:#999;stroke-width:3" />
<path d="M1663.3899999999999,58.71c0.7,0.7,0.87,1.54,0.87,2.53c0,6.57-0.02,19.36-0.01,28.5c0,2.16,0.01,4.12,0.02,5.75" style="fill:none;stroke:#999;stroke-width:3" />
<path d="M1682.63,44.26c0.04,0.6,0.05,1.41-0.15,1.91c-1.24,3.2-2.24,5.32-4.13,8.11" style="fill:none;stroke:#999;stroke-width:3" />
<path d="M1663.88,57.55c4.2-0.54,15.18-1.54,21.86-2.33c1.61-0.19,3.24-0.35,4.84-0.61" style="fill:none;stroke:#999;stroke-width:3" />
<path d="M1677.71,57.04c0.5,0.75,0.91,1.82,0.75,2.71c0,6.27,0.04,20.99,0.04,28.5" style="fill:none;stroke:#999;stroke-width:3" />
<path d="M1665.65,67.79c4.16-0.46,14.5-1.61,20.65-2.26c1.82-0.19,3.16-0.34,3.69-0.42" style="fill:none;stroke:#999;stroke-width:3" />
<path d="M1665.5,78.4c4.59-0.41,15.82-1.78,21.75-2.43c1.42-0.16,2.46-0.27,2.93-0.33" style="fill:none;stroke:#999;stroke-width:3" />
<path d="M1665.49,90.44c4.42-0.56,16.3-1.31,23.03-2.02c1.97-0.21,3.41-0.37,3.96-0.46" style="fill:none;stroke:#999;stroke-width:3" />
<path d="M1694.63,17.1c1.87,0.4,4.17,0.28,6.1,0.06c7.86-0.89,18.14-1.63,25.29-2.05c1.92-0.11,3.73-0.3,5.6,0.25" style="fill:none;stroke:#999;stroke-width:3" />
<path d="M1713.23,19.1c0.05,0.66-0.02,1.31-0.22,1.95c-0.73,2.64-3.14,6.71-5.76,10.08" style="fill:none;stroke:#999;stroke-width:3" />
<path d="M1697.94,32.75c0.84,0.84,1.09,1.82,1.09,3.32c0,1.22,0.07,28.78-0.01,39.93c-0.02,2.58-0.02,4.28,0.01,4.57" style="fill:none;stroke:#999;stroke-width:3" />
<path d="M1700.03,34.43c3.82-0.39,19.24-2.09,23.97-2.45c2.66-0.2,3.39,1.05,3.39,3.62c0,1.2,0.01,23.83,0.01,37.53c0,2.13,0,4.05,0,5.63" style="fill:none;stroke:black;stroke-width:3" />
<circle cx="1700.03" cy="34.43" r="5" stroke-width="0" fill="#FF2A00" opacity="0.7" />
<path d="M1762.73,18c2.02,0.25,3.7,0.23,5.3,0.09c6.65-0.55,14.13-1.87,23.73-2.46c1.77-0.11,3.58-0.32,5.32,0.11" style="fill:none;stroke:#999;stroke-width:3" />
<path d="M1764.19,28.81c1.56,0.69,2.8,0.77,4.41,0.64c8.07-0.64,19.57-2.41,25.54-2.98c2.72-0.26,4.13,0.34,3.41,3.29c-0.45,1.87-1.06,3.09-1.99,6.55" style="fill:none;stroke:#999;stroke-width:3" />
<path d="M1767.62,39.75c4.84-0.46,17.14-1.68,25.62-2.62c1.66-0.18,3.16-0.35,4.4-0.48" style="fill:none;stroke:#999;stroke-width:3" />
<path d="M1766.35,29.99c0.71,0.71,0.84,2.18,0.68,3.95C1765.0,56.25 1762.25,71 1755.63,82.08" style="fill:none;stroke:#999;stroke-width:3" />
<path d="M1778.27,44.61c0.13,1.04-0.04,2.4-0.47,3.28c-2.75,5.67-6.24,10.46-12.55,17.36" style="fill:none;stroke:#999;stroke-width:3" />
<path d="M1772.3899999999999,58.71c0.7,0.7,0.87,1.54,0.87,2.53c0,6.57-0.02,19.36-0.01,28.5c0,2.16,0.01,4.12,0.02,5.75" style="fill:none;stroke:#999;stroke-width:3" />
<path d="M1791.63,44.26c0.04,0.6,0.05,1.41-0.15,1.91c-1.24,3.2-2.24,5.32-4.13,8.11" style="fill:none;stroke:#999;stroke-width:3" />
<path d="M1772.88,57.55c4.2-0.54,15.18-1.54,21.86-2.33c1.61-0.19,3.24-0.35,4.84-0.61" style="fill:none;stroke:#999;stroke-width:3" />
<path d="M1786.71,57.04c0.5,0.75,0.91,1.82,0.75,2.71c0,6.27,0.04,20.99,0.04,28.5" style="fill:none;stroke:#999;stroke-width:3" />
<path d="M1774.65,67.79c4.16-0.46,14.5-1.61,20.65-2.26c1.82-0.19,3.16-0.34,3.69-0.42" style="fill:none;stroke:#999;stroke-width:3" />
<path d="M1774.5,78.4c4.59-0.41,15.82-1.78,21.75-2.43c1.42-0.16,2.46-0.27,2.93-0.33" style="fill:none;stroke:#999;stroke-width:3" />
<path d="M1774.49,90.44c4.42-0.56,16.3-1.31,23.03-2.02c1.97-0.21,3.41-0.37,3.96-0.46" style="fill:none;stroke:#999;stroke-width:3" />
<path d="M1803.63,17.1c1.87,0.4,4.17,0.28,6.1,0.06c7.86-0.89,18.14-1.63,25.29-2.05c1.92-0.11,3.73-0.3,5.6,0.25" style="fill:none;stroke:#999;stroke-width:3" />
<path d="M1822.23,19.1c0.05,0.66-0.02,1.31-0.22,1.95c-0.73,2.64-3.14,6.71-5.76,10.08" style="fill:none;stroke:#999;stroke-width:3" />
<path d="M1806.94,32.75c0.84,0.84,1.09,1.82,1.09,3.32c0,1.22,0.07,28.78-0.01,39.93c-0.02,2.58-0.02,4.28,0.01,4.57" style="fill:none;stroke:#999;stroke-width:3" />
<path d="M1809.03,34.43c3.82-0.39,19.24-2.09,23.97-2.45c2.66-0.2,3.39,1.05,3.39,3.62c0,1.2,0.01,23.83,0.01,37.53c0,2.13,0,4.05,0,5.63" style="fill:none;stroke:#999;stroke-width:3" />
<path d="M1808.98,48.3c4.38-0.47,19.77-1.92,26.28-2.33" style="fill:none;stroke:black;stroke-width:3" />
<circle cx="1808.98" cy="48.3" r="5" stroke-width="0" fill="#FF2A00" opacity="0.7" />
<path d="M1871.73,18c2.02,0.25,3.7,0.23,5.3,0.09c6.65-0.55,14.13-1.87,23.73-2.46c1.77-0.11,3.58-0.32,5.32,0.11" style="fill:none;stroke:#999;stroke-width:3" />
<path d="M1873.19,28.81c1.56,0.69,2.8,0.77,4.41,0.64c8.07-0.64,19.57-2.41,25.54-2.98c2.72-0.26,4.13,0.34,3.41,3.29c-0.45,1.87-1.06,3.09-1.99,6.55" style="fill:none;stroke:#999;stroke-width:3" />
<path d="M1876.62,39.75c4.84-0.46,17.14-1.68,25.62-2.62c1.66-0.18,3.16-0.35,4.4-0.48" style="fill:none;stroke:#999;stroke-width:3" />
<path d="M1875.35,29.99c0.71,0.71,0.84,2.18,0.68,3.95C1874.0,56.25 1871.25,71 1864.63,82.08" style="fill:none;stroke:#999;stroke-width:3" />
<path d="M1887.27,44.61c0.13,1.04-0.04,2.4-0.47,3.28c-2.75,5.67-6.24,10.46-12.55,17.36" style="fill:none;stroke:#999;stroke-width:3" />
<path d="M1881.3899999999999,58.71c0.7,0.7,0.87,1.54,0.87,2.53c0,6.57-0.02,19.36-0.01,28.5c0,2.16,0.01,4.12,0.02,5.75" style="fill:none;stroke:#999;stroke-width:3" />
<path d="M1900.63,44.26c0.04,0.6,0.05,1.41-0.15,1.91c-1.24,3.2-2.24,5.32-4.13,8.11" style="fill:none;stroke:#999;stroke-width:3" />
<path d="M1881.88,57.55c4.2-0.54,15.18-1.54,21.86-2.33c1.61-0.19,3.24-0.35,4.84-0.61" style="fill:none;stroke:#999;stroke-width:3" />
<path d="M1895.71,57.04c0.5,0.75,0.91,1.82,0.75,2.71c0,6.27,0.04,20.99,0.04,28.5" style="fill:none;stroke:#999;stroke-width:3" />
<path d="M1883.65,67.79c4.16-0.46,14.5-1.61,20.65-2.26c1.82-0.19,3.16-0.34,3.69-0.42" style="fill:none;stroke:#999;stroke-width:3" />
<path d="M1883.5,78.4c4.59-0.41,15.82-1.78,21.75-2.43c1.42-0.16,2.46-0.27,2.93-0.33" style="fill:none;stroke:#999;stroke-width:3" />
<path d="M1883.49,90.44c4.42-0.56,16.3-1.31,23.03-2.02c1.97-0.21,3.41-0.37,3.96-0.46" style="fill:none;stroke:#999;stroke-width:3" />
<path d="M1912.63,17.1c1.87,0.4,4.17,0.28,6.1,0.06c7.86-0.89,18.14-1.63,25.29-2.05c1.92-0.11,3.73-0.3,5.6,0.25" style="fill:none;stroke:#999;stroke-width:3" />
<path d="M1931.23,19.1c0.05,0.66-0.02,1.31-0.22,1.95c-0.73,2.64-3.14,6.71-5.76,10.08" style="fill:none;stroke:#999;stroke-width:3" />
<path d="M1915.94,32.75c0.84,0.84,1.09,1.82,1.09,3.32c0,1.22,0.07,28.78-0.01,39.93c-0.02,2.58-0.02,4.28,0.01,4.57" style="fill:none;stroke:#999;stroke-width:3" />
<path d="M1918.03,34.43c3.82-0.39,19.24-2.09,23.97-2.45c2.66-0.2,3.39,1.05,3.39,3.62c0,1.2,0.01,23.83,0.01,37.53c0,2.13,0,4.05,0,5.63" style="fill:none;stroke:#999;stroke-width:3" />
<path d="M1917.98,48.3c4.38-0.47,19.77-1.92,26.28-2.33" style="fill:none;stroke:#999;stroke-width:3" />
<path d="M1918.11,63.18c5.79-0.47,19.23-2.11,26.1-2.07" style="fill:none;stroke:black;stroke-width:3" />
<circle cx="1918.11" cy="63.18" r="5" stroke-width="0" fill="#FF2A00" opacity="0.7" />
<path d="M1980.73,18c2.02,0.25,3.7,0.23,5.3,0.09c6.65-0.55,14.13-1.87,23.73-2.46c1.77-0.11,3.58-0.32,5.32,0.11" style="fill:none;stroke:#999;stroke-width:3" />
<path d="M1982.19,28.81c1.56,0.69,2.8,0.77,4.41,0.64c8.07-0.64,19.57-2.41,25.54-2.98c2.72-0.26,4.13,0.34,3.41,3.29c-0.45,1.87-1.06,3.09-1.99,6.55" style="fill:none;stroke:#999;stroke-width:3" />
<path d="M1985.62,39.75c4.84-0.46,17.14-1.68,25.62-2.62c1.66-0.18,3.16-0.35,4.4-0.48" style="fill:none;stroke:#999;stroke-width:3" />
<path d="M1984.35,29.99c0.71,0.71,0.84,2.18,0.68,3.95C1983.0,56.25 1980.25,71 1973.63,82.08" style="fill:none;stroke:#999;stroke-width:3" />
<path d="M1996.27,44.61c0.13,1.04-0.04,2.4-0.47,3.28c-2.75,5.67-6.24,10.46-12.55,17.36" style="fill:none;stroke:#999;stroke-width:3" />
<path d="M1990.3899999999999,58.71c0.7,0.7,0.87,1.54,0.87,2.53c0,6.57-0.02,19.36-0.01,28.5c0,2.16,0.01,4.12,0.02,5.75" style="fill:none;stroke:#999;stroke-width:3" />
<path d="M2009.63,44.26c0.04,0.6,0.05,1.41-0.15,1.91c-1.24,3.2-2.24,5.32-4.13,8.11" style="fill:none;stroke:#999;stroke-width:3" />
<path d="M1990.88,57.55c4.2-0.54,15.18-1.54,21.86-2.33c1.61-0.19,3.24-0.35,4.84-0.61" style="fill:none;stroke:#999;stroke-width:3" />
<path d="M2004.71,57.04c0.5,0.75,0.91,1.82,0.75,2.71c0,6.27,0.04,20.99,0.04,28.5" style="fill:none;stroke:#999;stroke-width:3" />
<path d="M1992.65,67.79c4.16-0.46,14.5-1.61,20.65-2.26c1.82-0.19,3.16-0.34,3.69-0.42" style="fill:none;stroke:#999;stroke-width:3" />
<path d="M1992.5,78.4c4.59-0.41,15.82-1.78,21.75-2.43c1.42-0.16,2.46-0.27,2.93-0.33" style="fill:none;stroke:#999;stroke-width:3" />
<path d="M1992.49,90.44c4.42-0.56,16.3-1.31,23.03-2.02c1.97-0.21,3.41-0.37,3.96-0.46" style="fill:none;stroke:#999;stroke-width:3" />
<path d="M2021.63,17.1c1.87,0.4,4.17,0.28,6.1,0.06c7.86-0.89,18.14-1.63,25.29-2.05c1.92-0.11,3.73-0.3,5.6,0.25" style="fill:none;stroke:#999;stroke-width:3" />
<path d="M2040.23,19.1c0.05,0.66-0.02,1.31-0.22,1.95c-0.73,2.64-3.14,6.71-5.76,10.08" style="fill:none;stroke:#999;stroke-width:3" />
<path d="M2024.94,32.75c0.84,0.84,1.09,1.82,1.09,3.32c0,1.22,0.07,28.78-0.01,39.93c-0.02,2.58-0.02,4.28,0.01,4.57" style="fill:none;stroke:#999;stroke-width:3" />
<path d="M2027.03,34.43c3.82-0.39,19.24-2.09,23.97-2.45c2.66-0.2,3.39,1.05,3.39,3.62c0,1.2,0.01,23.83,0.01,37.53c0,2.13,0,4.05,0,5.63" style="fill:none;stroke:#999;stroke-width:3" />
<path d="M2026.98,48.3c4.38-0.47,19.77-1.92,26.28-2.33" style="fill:none;stroke:#999;stroke-width:3" />
<path d="M2027.11,63.18c5.79-0.47,19.23-2.11,26.1-2.07" style="fill:none;stroke:#999;stroke-width:3" />
<path d="M2027.04,78.37C2034.11,78 2042.62,77 2053.39,76.54" style="fill:none;stroke:black;stroke-width:3" />
<circle cx="2027.04" cy="78.37" r="5" stroke-width="0" fill="#FF2A00" opacity="0.7" />
<path d="M2089.73,18c2.02,0.25,3.7,0.23,5.3,0.09c6.65-0.55,14.13-1.87,23.73-2.46c1.77-0.11,3.58-0.32,5.32,0.11" style="fill:none;stroke:#999;stroke-width:3" />
<path d="M2091.19,28.81c1.56,0.69,2.8,0.77,4.41,0.64c8.07-0.64,19.57-2.41,25.54-2.98c2.72-0.26,4.13,0.34,3.41,3.29c-0.45,1.87-1.06,3.09-1.99,6.55" style="fill:none;stroke:#999;stroke-width:3" />
<path d="M2094.62,39.75c4.84-0.46,17.14-1.68,25.62-2.62c1.66-0.18,3.16-0.35,4.4-0.48" style="fill:none;stroke:#999;stroke-width:3" />
<path d="M2093.35,29.99c0.71,0.71,0.84,2.18,0.68,3.95C2092.0,56.25 2089.25,71 2082.63,82.08" style="fill:none;stroke:#999;stroke-width:3" />
<path d="M2105.27,44.61c0.13,1.04-0.04,2.4-0.47,3.28c-2.75,5.67-6.24,10.46-12.55,17.36" style="fill:none;stroke:#999;stroke-width:3" />
<path d="M2099.39,58.71c0.7,0.7,0.87,1.54,0.87,2.53c0,6.57-0.02,19.36-0.01,28.5c0,2.16,0.01,4.12,0.02,5.75" style="fill:none;stroke:#999;stroke-width:3" />
<path d="M2118.63,44.26c0.04,0.6,0.05,1.41-0.15,1.91c-1.24,3.2-2.24,5.32-4.13,8.11" style="fill:none;stroke:#999;stroke-width:3" />
<path d="M2099.88,57.55c4.2-0.54,15.18-1.54,21.86-2.33c1.61-0.19,3.24-0.35,4.84-0.61" style="fill:none;stroke:#999;stroke-width:3" />
<path d="M2113.71,57.04c0.5,0.75,0.91,1.82,0.75,2.71c0,6.27,0.04,20.99,0.04,28.5" style="fill:none;stroke:#999;stroke-width:3" />
<path d="M2101.65,67.79c4.16-0.46,14.5-1.61,20.65-2.26c1.82-0.19,3.16-0.34,3.69-0.42" style="fill:none;stroke:#999;stroke-width:3" />
<path d="M2101.5,78.4c4.59-0.41,15.82-1.78,21.75-2.43c1.42-0.16,2.46-0.27,2.93-0.33" style="fill:none;stroke:#999;stroke-width:3" />
<path d="M2101.49,90.44c4.42-0.56,16.3-1.31,23.03-2.02c1.97-0.21,3.41-0.37,3.96-0.46" style="fill:none;stroke:#999;stroke-width:3" />
<path d="M2130.63,17.1c1.87,0.4,4.17,0.28,6.1,0.06c7.86-0.89,18.14-1.63,25.29-2.05c1.92-0.11,3.73-0.3,5.6,0.25" style="fill:none;stroke:#999;stroke-width:3" />
<path d="M2149.23,19.1c0.05,0.66-0.02,1.31-0.22,1.95c-0.73,2.64-3.14,6.71-5.76,10.08" style="fill:none;stroke:#999;stroke-width:3" />
<path d="M2133.94,32.75c0.84,0.84,1.09,1.82,1.09,3.32c0,1.22,0.07,28.78-0.01,39.93c-0.02,2.58-0.02,4.28,0.01,4.57" style="fill:none;stroke:#999;stroke-width:3" />
<path d="M2136.0299999999997,34.43c3.82-0.39,19.24-2.09,23.97-2.45c2.66-0.2,3.39,1.05,3.39,3.62c0,1.2,0.01,23.83,0.01,37.53c0,2.13,0,4.05,0,5.63" style="fill:none;stroke:#999;stroke-width:3" />
<path d="M2135.98,48.3c4.38-0.47,19.77-1.92,26.28-2.33" style="fill:none;stroke:#999;stroke-width:3" />
<path d="M2136.1099999999997,63.18c5.79-0.47,19.23-2.11,26.1-2.07" style="fill:none;stroke:#999;stroke-width:3" />
<path d="M2136.04,78.37C2143.1099999999997,78 2151.62,77 2162.39,76.54" style="fill:none;stroke:#999;stroke-width:3" />
<path d="M2141.08,84.18c0.29,0.95-0.22,2.18-1.15,3.04c-3.56,3.29-8.31,7.04-15.59,11.29" style="fill:none;stroke:black;stroke-width:3" />
<circle cx="2141.08" cy="84.18" r="5" stroke-width="0" fill="#FF2A00" opacity="0.7" />
<path d="M2198.73,18c2.02,0.25,3.7,0.23,5.3,0.09c6.65-0.55,14.13-1.87,23.73-2.46c1.77-0.11,3.58-0.32,5.32,0.11" style="fill:none;stroke:#999;stroke-width:3" />
<path d="M2200.19,28.81c1.56,0.69,2.8,0.77,4.41,0.64c8.07-0.64,19.57-2.41,25.54-2.98c2.72-0.26,4.13,0.34,3.41,3.29c-0.45,1.87-1.06,3.09-1.99,6.55" style="fill:none;stroke:#999;stroke-width:3" />
<path d="M2203.62,39.75c4.84-0.46,17.14-1.68,25.62-2.62c1.66-0.18,3.16-0.35,4.4-0.48" style="fill:none;stroke:#999;stroke-width:3" />
<path d="M2202.35,29.99c0.71,0.71,0.84,2.18,0.68,3.95C2201.0,56.25 2198.25,71 2191.63,82.08" style="fill:none;stroke:#999;stroke-width:3" />
<path d="M2214.27,44.61c0.13,1.04-0.04,2.4-0.47,3.28c-2.75,5.67-6.24,10.46-12.55,17.36" style="fill:none;stroke:#999;stroke-width:3" />
<path d="M2208.39,58.71c0.7,0.7,0.87,1.54,0.87,2.53c0,6.57-0.02,19.36-0.01,28.5c0,2.16,0.01,4.12,0.02,5.75" style="fill:none;stroke:#999;stroke-width:3" />
<path d="M2227.63,44.26c0.04,0.6,0.05,1.41-0.15,1.91c-1.24,3.2-2.24,5.32-4.13,8.11" style="fill:none;stroke:#999;stroke-width:3" />
<path d="M2208.88,57.55c4.2-0.54,15.18-1.54,21.86-2.33c1.61-0.19,3.24-0.35,4.84-0.61" style="fill:none;stroke:#999;stroke-width:3" />
<path d="M2222.71,57.04c0.5,0.75,0.91,1.82,0.75,2.71c0,6.27,0.04,20.99,0.04,28.5" style="fill:none;stroke:#999;stroke-width:3" />
<path d="M2210.65,67.79c4.16-0.46,14.5-1.61,20.65-2.26c1.82-0.19,3.16-0.34,3.69-0.42" style="fill:none;stroke:#999;stroke-width:3" />
<path d="M2210.5,78.4c4.59-0.41,15.82-1.78,21.75-2.43c1.42-0.16,2.46-0.27,2.93-0.33" style="fill:none;stroke:#999;stroke-width:3" />
<path d="M2210.49,90.44c4.42-0.56,16.3-1.31,23.03-2.02c1.97-0.21,3.41-0.37,3.96-0.46" style="fill:none;stroke:#999;stroke-width:3" />
<path d="M2239.63,17.1c1.87,0.4,4.17,0.28,6.1,0.06c7.86-0.89,18.14-1.63,25.29-2.05c1.92-0.11,3.73-0.3,5.6,0.25" style="fill:none;stroke:#999;stroke-width:3" />
<path d="M2258.23,19.1c0.05,0.66-0.02,1.31-0.22,1.95c-0.73,2.64-3.14,6.71-5.76,10.08" style="fill:none;stroke:#999;stroke-width:3" />
<path d="M2242.94,32.75c0.84,0.84,1.09,1.82,1.09,3.32c0,1.22,0.07,28.78-0.01,39.93c-0.02,2.58-0.02,4.28,0.01,4.57" style="fill:none;stroke:#999;stroke-width:3" />
<path d="M2245.0299999999997,34.43c3.82-0.39,19.24-2.09,23.97-2.45c2.66-0.2,3.39,1.05,3.39,3.62c0,1.2,0.01,23.83,0.01,37.53c0,2.13,0,4.05,0,5.63" style="fill:none;stroke:#999;stroke-width:3" />
<path d="M2244.98,48.3c4.38-0.47,19.77-1.92,26.28-2.33" style="fill:none;stroke:#999;stroke-width:3" />
<path d="M2245.1099999999997,63.18c5.79-0.47,19.23-2.11,26.1-2.07" style="fill:none;stroke:#999;stroke-width:3" />
<path d="M2245.04,78.37C2252.1099999999997,78 2260.62,77 2271.39,76.54" style="fill:none;stroke:#999;stroke-width:3" />
<path d="M2250.08,84.18c0.29,0.95-0.22,2.18-1.15,3.04c-3.56,3.29-8.31,7.04-15.59,11.29" style="fill:none;stroke:#999;stroke-width:3" />
<path d="M2264.29,84.21c5.12,3.33,11.58,10.59,12.97,13.32" style="fill:none;stroke:black;stroke-width:3" />
<circle cx="2264.29" cy="84.21" r="5" stroke-width="0" fill="#FF2A00" opacity="0.7" />
</svg>