<!-- 09871 -->
<svg width="2725px" height="109px" viewBox="0 0 2725px 109px" xmlns="http://www.w3.org/2000/svg" xmlns:xlink="http://www.w3.org/1999/xlink" xml:space="preserve" version="1.1"  baseProfile="full">
<line x1="1" y1="1" x2="2724" y2="1" style="stroke:#ddd;stroke-width:2" />
<line x1="1" y1="1" x2="1" y2="108" style="stroke:#ddd;stroke-width:2" />
<line x1="1" y1="108" x2="2724" y2="108" style="stroke:#ddd;stroke-width:2" />
<line x1="2724" y1="1" x2="2724" y2="108" style="stroke:#ddd;stroke-width:2" />
<line x1="109" y1="1" x2="109" y2="108" style="stroke:#ddd;stroke-width:2" />
<line x1="218" y1="1" x2="218" y2="108" style="stroke:#ddd;stroke-width:2" />
<line x1="327" y1="1" x2="327" y2="108" style="stroke:#ddd;stroke-width:2" />
<line x1="436" y1="1" x2="436" y2="108" style="stroke:#ddd;stroke-width:2" />
<line x1="545" y1="1" x2="545" y2="108" style="stroke:#ddd;stroke-width:2" />
<line x1="654" y1="1" x2="654" y2="108" style="stroke:#ddd;stroke-width:2" />
<line x1="763" y1="1" x2="763" y2="108" style="stroke:#ddd;stroke-width:2" />
<line x1="872" y1="1" x2="872" y2="108" style="stroke:#ddd;stroke-width:2" />
<line x1="981" y1="1" x2="981" y2="108" style="stroke:#ddd;stroke-width:2" />
<line x1="1090" y1="1" x2="1090" y2="108" style="stroke:#ddd;stroke-width:2" />
<line x1="1199" y1="1" x2="1199" y2="108" style="stroke:#ddd;stroke-width:2" />
<line x1="1308" y1="1" x2="1308" y2="108" style="stroke:#ddd;stroke-width:2" />
<line x1="1417" y1="1" x2="1417" y2="108" style="stroke:#ddd;stroke-width:2" />
<line x1="1526" y1="1" x2="1526" y2="108" style="stroke:#ddd;stroke-width:2" />
<line x1="1635" y1="1" x2="1635" y2="108" style="stroke:#ddd;stroke-width:2" />
<line x1="1744" y1="1" x2="1744" y2="108" style="stroke:#ddd;stroke-width:2" />
<line x1="1853" y1="1" x2="1853" y2="108" style="stroke:#ddd;stroke-width:2" />
<line x1="1962" y1="1" x2="1962" y2="108" style="stroke:#ddd;stroke-width:2" />
<line x1="2071" y1="1" x2="2071" y2="108" style="stroke:#ddd;stroke-width:2" />
<line x1="2180" y1="1" x2="2180" y2="108" style="stroke:#ddd;stroke-width:2" />
<line x1="2289" y1="1" x2="2289" y2="108" style="stroke:#ddd;stroke-width:2" />
<line x1="2398" y1="1" x2="2398" y2="108" style="stroke:#ddd;stroke-width:2" />
<line x1="2507" y1="1" x2="2507" y2="108" style="stroke:#ddd;stroke-width:2" />
<line x1="2616" y1="1" x2="2616" y2="108" style="stroke:#ddd;stroke-width:2" />
<line x1="1" y1="54" x2="2724" y2="54" style="stroke:#ddd;stroke-width:2;stroke-dasharray:3 3" />
<line x1="55" y1="1" x2="55" y2="108" style="stroke:#ddd;stroke-width:2;stroke-dasharray:3 3" />
<line x1="164" y1="1" x2="164" y2="108" style="stroke:#ddd;stroke-width:2;stroke-dasharray:3 3" />
<line x1="273" y1="1" x2="273" y2="108" style="stroke:#ddd;stroke-width:2;stroke-dasharray:3 3" />
<line x1="382" y1="1" x2="382" y2="108" style="stroke:#ddd;stroke-width:2;stroke-dasharray:3 3" />
<line x1="491" y1="1" x2="491" y2="108" style="stroke:#ddd;stroke-width:2;stroke-dasharray:3 3" />
<line x1="600" y1="1" x2="600" y2="108" style="stroke:#ddd;stroke-width:2;stroke-dasharray:3 3" />
<line x1="709" y1="1" x2="709" y2="108" style="stroke:#ddd;stroke-width:2;stroke-dasharray:3 3" />
<line x1="818" y1="1" x2="818" y2="108" style="stroke:#ddd;stroke-width:2;stroke-dasharray:3 3" />
<line x1="927" y1="1" x2="927" y2="108" style="stroke:#ddd;stroke-width:2;stroke-dasharray:3 3" />
<line x1="1036" y1="1" x2="1036" y2="108" style="stroke:#ddd;stroke-width:2;stroke-dasharray:3 3" />
<line x1="1145" y1="1" x2="1145" y2="108" style="stroke:#ddd;stroke-width:2;stroke-dasharray:3 3" />
<line x1="1254" y1="1" x2="1254" y2="108" style="stroke:#ddd;stroke-width:2;stroke-dasharray:3 3" />
<line x1="1363" y1="1" x2="1363" y2="108" style="stroke:#ddd;stroke-width:2;stroke-dasharray:3 3" />
<line x1="1472" y1="1" x2="1472" y2="108" style="stroke:#ddd;stroke-width:2;stroke-dasharray:3 3" />
<line x1="1581" y1="1" x2="1581" y2="108" style="stroke:#ddd;stroke-width:2;stroke-dasharray:3 3" />
<line x1="1690" y1="1" x2="1690" y2="108" style="stroke:#ddd;stroke-width:2;stroke-dasharray:3 3" />
<line x1="1799" y1="1" x2="1799" y2="108" style="stroke:#ddd;stroke-width:2;stroke-dasharray:3 3" />
<line x1="1908" y1="1" x2="1908" y2="108" style="stroke:#ddd;stroke-width:2;stroke-dasharray:3 3" />
<line x1="2017" y1="1" x2="2017" y2="108" style="stroke:#ddd;stroke-width:2;stroke-dasharray:3 3" />
<line x1="2126" y1="1" x2="2126" y2="108" style="stroke:#ddd;stroke-width:2;stroke-dasharray:3 3" />
<line x1="2235" y1="1" x2="2235" y2="108" style="stroke:#ddd;stroke-width:2;stroke-dasharray:3 3" />
<line x1="2344" y1="1" x2="2344" y2="108" style="stroke:#ddd;stroke-width:2;stroke-dasharray:3 3" />
<line x1="2453" y1="1" x2="2453" y2="108" style="stroke:#ddd;stroke-width:2;stroke-dasharray:3 3" />
<line x1="2562" y1="1" x2="2562" y2="108" style="stroke:#ddd;stroke-width:2;stroke-dasharray:3 3" />
<line x1="2671" y1="1" x2="2671" y2="108" style="stroke:#ddd;stroke-width:2;stroke-dasharray:3 3" />
<path d="M33.94,9.58c0.65,0.88,1.15,1.92,1.15,4.85c0,5.7-0.01,6.46-0.01,11.25" style="fill:none;stroke:black;stroke-width:3" />
<circle cx="33.94" cy="9.58" r="5" stroke-width="0" fill="#FF2A00" opacity="0.7" />
<path d="M142.94,9.58c0.65,0.88,1.15,1.92,1.15,4.85c0,5.7-0.01,6.46-0.01,11.25" style="fill:none;stroke:#999;stroke-width:3" />
<path d="M145.13,16.97c4.02-0.75,9.78-1.71,13.85-2.3c1.34-0.19,2.17,0.18,2.84,0.36" style="fill:none;stroke:black;stroke-width:3" />
<circle cx="145.13" cy="16.97" r="5" stroke-width="0" fill="#FF2A00" opacity="0.7" />
<path d="M251.94,9.58c0.65,0.88,1.15,1.92,1.15,4.85c0,5.7-0.01,6.46-0.01,11.25" style="fill:none;stroke:#999;stroke-width:3" />
<path d="M254.13,16.97c4.02-0.75,9.78-1.71,13.85-2.3c1.34-0.19,2.17,0.18,2.84,0.36" style="fill:none;stroke:#999;stroke-width:3" />
<path d="M235.91,26.97c0.59,1.03,1.47,3.61,1.48,5.62C237.5,57 237.75,74 226.7,93.42" style="fill:none;stroke:black;stroke-width:3" />
<circle cx="235.91" cy="26.97" r="5" stroke-width="0" fill="#FF2A00" opacity="0.7" />
<path d="M360.94,9.58c0.65,0.88,1.15,1.92,1.15,4.85c0,5.7-0.01,6.46-0.01,11.25" style="fill:none;stroke:#999;stroke-width:3" />
<path d="M363.13,16.97c4.02-0.75,9.78-1.71,13.85-2.3c1.34-0.19,2.17,0.18,2.84,0.36" style="fill:none;stroke:#999;stroke-width:3" />
<path d="M344.90999999999997,26.97c0.59,1.03,1.47,3.61,1.48,5.62C346.5,57 346.75,74 335.7,93.42" style="fill:none;stroke:#999;stroke-width:3" />
<path d="M346.08,28.85c8.79-1.95,25.74-4.36,33.27-4.52c7.93-0.17,3.16,3.67-0.14,6.03" style="fill:none;stroke:black;stroke-width:3" />
<circle cx="346.08" cy="28.85" r="5" stroke-width="0" fill="#FF2A00" opacity="0.7" />
<path d="M469.94,9.58c0.65,0.88,1.15,1.92,1.15,4.85c0,5.7-0.01,6.46-0.01,11.25" style="fill:none;stroke:#999;stroke-width:3" />
<path d="M472.13,16.97c4.02-0.75,9.78-1.71,13.85-2.3c1.34-0.19,2.17,0.18,2.84,0.36" style="fill:none;stroke:#999;stroke-width:3" />
<path d="M453.90999999999997,26.97c0.59,1.03,1.47,3.61,1.48,5.62C455.5,57 455.75,74 444.7,93.42" style="fill:none;stroke:#999;stroke-width:3" />
<path d="M455.08,28.85c8.79-1.95,25.74-4.36,33.27-4.52c7.93-0.17,3.16,3.67-0.14,6.03" style="fill:none;stroke:#999;stroke-width:3" />
<path d="M458.59,37.73c0.57,0.35,1.97,0.41,2.55,0.35c5.71-0.54,15.42-3,21.59-3.87c0.95-0.13,1.52,0.17,2,0.35" style="fill:none;stroke:black;stroke-width:3" />
<circle cx="458.59" cy="37.73" r="5" stroke-width="0" fill="#FF2A00" opacity="0.7" />
<path d="M578.94,9.58c0.65,0.88,1.15,1.92,1.15,4.85c0,5.7-0.01,6.46-0.01,11.25" style="fill:none;stroke:#999;stroke-width:3" />
<path d="M581.13,16.97c4.02-0.75,9.78-1.71,13.85-2.3c1.34-0.19,2.17,0.18,2.84,0.36" style="fill:none;stroke:#999;stroke-width:3" />
<path d="M562.91,26.97c0.59,1.03,1.47,3.61,1.48,5.62C564.5,57 564.75,74 553.7,93.42" style="fill:none;stroke:#999;stroke-width:3" />
<path d="M564.0799999999999,28.85c8.79-1.95,25.74-4.36,33.27-4.52c7.93-0.17,3.16,3.67-0.14,6.03" style="fill:none;stroke:#999;stroke-width:3" />
<path d="M567.5899999999999,37.73c0.57,0.35,1.97,0.41,2.55,0.35c5.71-0.54,15.42-3,21.59-3.87c0.95-0.13,1.52,0.17,2,0.35" style="fill:none;stroke:#999;stroke-width:3" />
<path d="M580.18,28.75c0.36,0.4,0.84,1.96,0.84,2.52c0,4.41-0.07,4.11-0.07,6.08c0,5.86,2.01,5.42,7.19,5.42c1.93,0,6.72-0.45,8.38-1.24" style="fill:none;stroke:black;stroke-width:3" />
<circle cx="580.18" cy="28.75" r="5" stroke-width="0" fill="#FF2A00" opacity="0.7" />
<path d="M687.94,9.58c0.65,0.88,1.15,1.92,1.15,4.85c0,5.7-0.01,6.46-0.01,11.25" style="fill:none;stroke:#999;stroke-width:3" />
<path d="M690.13,16.97c4.02-0.75,9.78-1.71,13.85-2.3c1.34-0.19,2.17,0.18,2.84,0.36" style="fill:none;stroke:#999;stroke-width:3" />
<path d="M671.91,26.97c0.59,1.03,1.47,3.61,1.48,5.62C673.5,57 673.75,74 662.7,93.42" style="fill:none;stroke:#999;stroke-width:3" />
<path d="M673.0799999999999,28.85c8.79-1.95,25.74-4.36,33.27-4.52c7.93-0.17,3.16,3.67-0.14,6.03" style="fill:none;stroke:#999;stroke-width:3" />
<path d="M676.5899999999999,37.73c0.57,0.35,1.97,0.41,2.55,0.35c5.71-0.54,15.42-3,21.59-3.87c0.95-0.13,1.52,0.17,2,0.35" style="fill:none;stroke:#999;stroke-width:3" />
<path d="M689.18,28.75c0.36,0.4,0.84,1.96,0.84,2.52c0,4.41-0.07,4.11-0.07,6.08c0,5.86,2.01,5.42,7.19,5.42c1.93,0,6.72-0.45,8.38-1.24" style="fill:none;stroke:#999;stroke-width:3" />
<path d="M680.23,50.53c0.18,0.36,0.51,1.57,0.6,2.01c0.78,3.64,1.48,9.3,1.95,16.01" style="fill:none;stroke:black;stroke-width:3" />
<circle cx="680.23" cy="50.53" r="5" stroke-width="0" fill="#FF2A00" opacity="0.7" />
<path d="M796.94,9.58c0.65,0.88,1.15,1.92,1.15,4.85c0,5.7-0.01,6.46-0.01,11.25" style="fill:none;stroke:#999;stroke-width:3" />
<path d="M799.13,16.97c4.02-0.75,9.78-1.71,13.85-2.3c1.34-0.19,2.17,0.18,2.84,0.36" style="fill:none;stroke:#999;stroke-width:3" />
<path d="M780.91,26.97c0.59,1.03,1.47,3.61,1.48,5.62C782.5,57 782.75,74 771.7,93.42" style="fill:none;stroke:#999;stroke-width:3" />
<path d="M782.0799999999999,28.85c8.79-1.95,25.74-4.36,33.27-4.52c7.93-0.17,3.16,3.67-0.14,6.03" style="fill:none;stroke:#999;stroke-width:3" />
<path d="M785.5899999999999,37.73c0.57,0.35,1.97,0.41,2.55,0.35c5.71-0.54,15.42-3,21.59-3.87c0.95-0.13,1.52,0.17,2,0.35" style="fill:none;stroke:#999;stroke-width:3" />
<path d="M798.18,28.75c0.36,0.4,0.84,1.96,0.84,2.52c0,4.41-0.07,4.11-0.07,6.08c0,5.86,2.01,5.42,7.19,5.42c1.93,0,6.72-0.45,8.38-1.24" style="fill:none;stroke:#999;stroke-width:3" />
<path d="M789.23,50.53c0.18,0.36,0.51,1.57,0.6,2.01c0.78,3.64,1.48,9.3,1.95,16.01" style="fill:none;stroke:#999;stroke-width:3" />
<path d="M790.38,51.57c7.52-1.07,19.48-2.9,24.13-2.79c1.13,0.03,1.82,1.24,1.82,2.38c0,3.61-1.47,8.94-2.68,15.63" style="fill:none;stroke:black;stroke-width:3" />
<circle cx="790.38" cy="51.57" r="5" stroke-width="0" fill="#FF2A00" opacity="0.7" />
<path d="M905.94,9.58c0.65,0.88,1.15,1.92,1.15,4.85c0,5.7-0.01,6.46-0.01,11.25" style="fill:none;stroke:#999;stroke-width:3" />
<path d="M908.13,16.97c4.02-0.75,9.78-1.71,13.85-2.3c1.34-0.19,2.17,0.18,2.84,0.36" style="fill:none;stroke:#999;stroke-width:3" />
<path d="M889.91,26.97c0.59,1.03,1.47,3.61,1.48,5.62C891.5,57 891.75,74 880.7,93.42" style="fill:none;stroke:#999;stroke-width:3" />
<path d="M891.0799999999999,28.85c8.79-1.95,25.74-4.36,33.27-4.52c7.93-0.17,3.16,3.67-0.14,6.03" style="fill:none;stroke:#999;stroke-width:3" />
<path d="M894.5899999999999,37.73c0.57,0.35,1.97,0.41,2.55,0.35c5.71-0.54,15.42-3,21.59-3.87c0.95-0.13,1.52,0.17,2,0.35" style="fill:none;stroke:#999;stroke-width:3" />
<path d="M907.18,28.75c0.36,0.4,0.84,1.96,0.84,2.52c0,4.41-0.07,4.11-0.07,6.08c0,5.86,2.01,5.42,7.19,5.42c1.93,0,6.72-0.45,8.38-1.24" style="fill:none;stroke:#999;stroke-width:3" />
<path d="M898.23,50.53c0.18,0.36,0.51,1.57,0.6,2.01c0.78,3.64,1.48,9.3,1.95,16.01" style="fill:none;stroke:#999;stroke-width:3" />
<path d="M899.38,51.57c7.52-1.07,19.48-2.9,24.13-2.79c1.13,0.03,1.82,1.24,1.82,2.38c0,3.61-1.47,8.94-2.68,15.63" style="fill:none;stroke:#999;stroke-width:3" />
<path d="M910.41,51.02c0.85,0.73,1.16,1.27,1.16,1.91c-0.02,4.22,0.11,11.06,0.11,12.59" style="fill:none;stroke:black;stroke-width:3" />
<circle cx="910.41" cy="51.02" r="5" stroke-width="0" fill="#FF2A00" opacity="0.7" />
<path d="M1014.94,9.58c0.65,0.88,1.15,1.92,1.15,4.85c0,5.7-0.01,6.46-0.01,11.25" style="fill:none;stroke:#999;stroke-width:3" />
<path d="M1017.13,16.97c4.02-0.75,9.78-1.71,13.85-2.3c1.34-0.19,2.17,0.18,2.84,0.36" style="fill:none;stroke:#999;stroke-width:3" />
<path d="M998.91,26.97c0.59,1.03,1.47,3.61,1.48,5.62C1000.5,57 1000.75,74 989.7,93.42" style="fill:none;stroke:#999;stroke-width:3" />
<path d="M1000.0799999999999,28.85c8.79-1.95,25.74-4.36,33.27-4.52c7.93-0.17,3.16,3.67-0.14,6.03" style="fill:none;stroke:#999;stroke-width:3" />
<path d="M1003.5899999999999,37.73c0.57,0.35,1.97,0.41,2.55,0.35c5.71-0.54,15.42-3,21.59-3.87c0.95-0.13,1.52,0.17,2,0.35" style="fill:none;stroke:#999;stroke-width:3" />
<path d="M1016.18,28.75c0.36,0.4,0.84,1.96,0.84,2.52c0,4.41-0.07,4.11-0.07,6.08c0,5.86,2.01,5.42,7.19,5.42c1.93,0,6.72-0.45,8.38-1.24" style="fill:none;stroke:#999;stroke-width:3" />
<path d="M1007.23,50.53c0.18,0.36,0.51,1.57,0.6,2.01c0.78,3.64,1.48,9.3,1.95,16.01" style="fill:none;stroke:#999;stroke-width:3" />
<path d="M1008.38,51.57c7.52-1.07,19.48-2.9,24.13-2.79c1.13,0.03,1.82,1.24,1.82,2.38c0,3.61-1.47,8.94-2.68,15.63" style="fill:none;stroke:#999;stroke-width:3" />
<path d="M1019.41,51.02c0.85,0.73,1.16,1.27,1.16,1.91c-0.02,4.22,0.11,11.06,0.11,12.59" style="fill:none;stroke:#999;stroke-width:3" />
<path d="M1009.49,58.96c2.02-0.18,21.77-2.23,23.44-2.23" style="fill:none;stroke:black;stroke-width:3" />
<circle cx="1009.49" cy="58.96" r="5" stroke-width="0" fill="#FF2A00" opacity="0.7" />
<path d="M1123.94,9.58c0.65,0.88,1.15,1.92,1.15,4.85c0,5.7-0.01,6.46-0.01,11.25" style="fill:none;stroke:#999;stroke-width:3" />
<path d="M1126.13,16.97c4.02-0.75,9.78-1.71,13.85-2.3c1.34-0.19,2.17,0.18,2.84,0.36" style="fill:none;stroke:#999;stroke-width:3" />
<path d="M1107.9099999999999,26.97c0.59,1.03,1.47,3.61,1.48,5.62C1109.5,57 1109.75,74 1098.7,93.42" style="fill:none;stroke:#999;stroke-width:3" />
<path d="M1109.08,28.85c8.79-1.95,25.74-4.36,33.27-4.52c7.93-0.17,3.16,3.67-0.14,6.03" style="fill:none;stroke:#999;stroke-width:3" />
<path d="M1112.59,37.73c0.57,0.35,1.97,0.41,2.55,0.35c5.71-0.54,15.42-3,21.59-3.87c0.95-0.13,1.52,0.17,2,0.35" style="fill:none;stroke:#999;stroke-width:3" />
<path d="M1125.1799999999998,28.75c0.36,0.4,0.84,1.96,0.84,2.52c0,4.41-0.07,4.11-0.07,6.08c0,5.86,2.01,5.42,7.19,5.42c1.93,0,6.72-0.45,8.38-1.24" style="fill:none;stroke:#999;stroke-width:3" />
<path d="M1116.23,50.53c0.18,0.36,0.51,1.57,0.6,2.01c0.78,3.64,1.48,9.3,1.95,16.01" style="fill:none;stroke:#999;stroke-width:3" />
<path d="M1117.38,51.57c7.52-1.07,19.48-2.9,24.13-2.79c1.13,0.03,1.82,1.24,1.82,2.38c0,3.61-1.47,8.94-2.68,15.63" style="fill:none;stroke:#999;stroke-width:3" />
<path d="M1128.4099999999999,51.02c0.85,0.73,1.16,1.27,1.16,1.91c-0.02,4.22,0.11,11.06,0.11,12.59" style="fill:none;stroke:#999;stroke-width:3" />
<path d="M1118.49,58.96c2.02-0.18,21.77-2.23,23.44-2.23" style="fill:none;stroke:#999;stroke-width:3" />
<path d="M1119.1,67.12c4.47,0,15.1-1.78,21.27-1.88" style="fill:none;stroke:black;stroke-width:3" />
<circle cx="1119.1" cy="67.12" r="5" stroke-width="0" fill="#FF2A00" opacity="0.7" />
<path d="M1232.94,9.58c0.65,0.88,1.15,1.92,1.15,4.85c0,5.7-0.01,6.46-0.01,11.25" style="fill:none;stroke:#999;stroke-width:3" />
<path d="M1235.13,16.97c4.02-0.75,9.78-1.71,13.85-2.3c1.34-0.19,2.17,0.18,2.84,0.36" style="fill:none;stroke:#999;stroke-width:3" />
<path d="M1216.9099999999999,26.97c0.59,1.03,1.47,3.61,1.48,5.62C1218.5,57 1218.75,74 1207.7,93.42" style="fill:none;stroke:#999;stroke-width:3" />
<path d="M1218.08,28.85c8.79-1.95,25.74-4.36,33.27-4.52c7.93-0.17,3.16,3.67-0.14,6.03" style="fill:none;stroke:#999;stroke-width:3" />
<path d="M1221.59,37.73c0.57,0.35,1.97,0.41,2.55,0.35c5.71-0.54,15.42-3,21.59-3.87c0.95-0.13,1.52,0.17,2,0.35" style="fill:none;stroke:#999;stroke-width:3" />
<path d="M1234.1799999999998,28.75c0.36,0.4,0.84,1.96,0.84,2.52c0,4.41-0.07,4.11-0.07,6.08c0,5.86,2.01,5.42,7.19,5.42c1.93,0,6.72-0.45,8.38-1.24" style="fill:none;stroke:#999;stroke-width:3" />
<path d="M1225.23,50.53c0.18,0.36,0.51,1.57,0.6,2.01c0.78,3.64,1.48,9.3,1.95,16.01" style="fill:none;stroke:#999;stroke-width:3" />
<path d="M1226.38,51.57c7.52-1.07,19.48-2.9,24.13-2.79c1.13,0.03,1.82,1.24,1.82,2.38c0,3.61-1.47,8.94-2.68,15.63" style="fill:none;stroke:#999;stroke-width:3" />
<path d="M1237.4099999999999,51.02c0.85,0.73,1.16,1.27,1.16,1.91c-0.02,4.22,0.11,11.06,0.11,12.59" style="fill:none;stroke:#999;stroke-width:3" />
<path d="M1227.49,58.96c2.02-0.18,21.77-2.23,23.44-2.23" style="fill:none;stroke:#999;stroke-width:3" />
<path d="M1228.1,67.12c4.47,0,15.1-1.78,21.27-1.88" style="fill:none;stroke:#999;stroke-width:3" />
<path d="M1224.23,75.12c0.34,0.76,0.79,1.58,0.87,2.23c0.58,5.13,0.33,10.18,0.86,16.97" style="fill:none;stroke:black;stroke-width:3" />
<circle cx="1224.23" cy="75.12" r="5" stroke-width="0" fill="#FF2A00" opacity="0.7" />
<path d="M1341.94,9.58c0.65,0.88,1.15,1.92,1.15,4.85c0,5.7-0.01,6.46-0.01,11.25" style="fill:none;stroke:#999;stroke-width:3" />
<path d="M1344.13,16.97c4.02-0.75,9.78-1.71,13.85-2.3c1.34-0.19,2.17,0.18,2.84,0.36" style="fill:none;stroke:#999;stroke-width:3" />
<path d="M1325.9099999999999,26.97c0.59,1.03,1.47,3.61,1.48,5.62C1327.5,57 1327.75,74 1316.7,93.42" style="fill:none;stroke:#999;stroke-width:3" />
<path d="M1327.08,28.85c8.79-1.95,25.74-4.36,33.27-4.52c7.93-0.17,3.16,3.67-0.14,6.03" style="fill:none;stroke:#999;stroke-width:3" />
<path d="M1330.59,37.73c0.57,0.35,1.97,0.41,2.55,0.35c5.71-0.54,15.42-3,21.59-3.87c0.95-0.13,1.52,0.17,2,0.35" style="fill:none;stroke:#999;stroke-width:3" />
<path d="M1343.1799999999998,28.75c0.36,0.4,0.84,1.96,0.84,2.52c0,4.41-0.07,4.11-0.07,6.08c0,5.86,2.01,5.42,7.19,5.42c1.93,0,6.72-0.45,8.38-1.24" style="fill:none;stroke:#999;stroke-width:3" />
<path d="M1334.23,50.53c0.18,0.36,0.51,1.57,0.6,2.01c0.78,3.64,1.48,9.3,1.95,16.01" style="fill:none;stroke:#999;stroke-width:3" />
<path d="M1335.38,51.57c7.52-1.07,19.48-2.9,24.13-2.79c1.13,0.03,1.82,1.24,1.82,2.38c0,3.61-1.47,8.94-2.68,15.63" style="fill:none;stroke:#999;stroke-width:3" />
<path d="M1346.4099999999999,51.02c0.85,0.73,1.16,1.27,1.16,1.91c-0.02,4.22,0.11,11.06,0.11,12.59" style="fill:none;stroke:#999;stroke-width:3" />
<path d="M1336.49,58.96c2.02-0.18,21.77-2.23,23.44-2.23" style="fill:none;stroke:#999;stroke-width:3" />
<path d="M1337.1,67.12c4.47,0,15.1-1.78,21.27-1.88" style="fill:none;stroke:#999;stroke-width:3" />
<path d="M1333.23,75.12c0.34,0.76,0.79,1.58,0.87,2.23c0.58,5.13,0.33,10.18,0.86,16.97" style="fill:none;stroke:#999;stroke-width:3" />
<path d="M1334.37,76.73c6.18-1.06,23.14-4.13,25.38-3.99c0.97,0.06,1.54,0.19,1.41,2.21c-0.19,2.98-1.13,9.36-1.85,13.37" style="fill:none;stroke:black;stroke-width:3" />
<circle cx="1334.37" cy="76.73" r="5" stroke-width="0" fill="#FF2A00" opacity="0.7" />
<path d="M1450.94,9.58c0.65,0.88,1.15,1.92,1.15,4.85c0,5.7-0.01,6.46-0.01,11.25" style="fill:none;stroke:#999;stroke-width:3" />
<path d="M1453.13,16.97c4.02-0.75,9.78-1.71,13.85-2.3c1.34-0.19,2.17,0.18,2.84,0.36" style="fill:none;stroke:#999;stroke-width:3" />
<path d="M1434.9099999999999,26.97c0.59,1.03,1.47,3.61,1.48,5.62C1436.5,57 1436.75,74 1425.7,93.42" style="fill:none;stroke:#999;stroke-width:3" />
<path d="M1436.08,28.85c8.79-1.95,25.74-4.36,33.27-4.52c7.93-0.17,3.16,3.67-0.14,6.03" style="fill:none;stroke:#999;stroke-width:3" />
<path d="M1439.59,37.73c0.57,0.35,1.97,0.41,2.55,0.35c5.71-0.54,15.42-3,21.59-3.87c0.95-0.13,1.52,0.17,2,0.35" style="fill:none;stroke:#999;stroke-width:3" />
<path d="M1452.1799999999998,28.75c0.36,0.4,0.84,1.96,0.84,2.52c0,4.41-0.07,4.11-0.07,6.08c0,5.86,2.01,5.42,7.19,5.42c1.93,0,6.72-0.45,8.38-1.24" style="fill:none;stroke:#999;stroke-width:3" />
<path d="M1443.23,50.53c0.18,0.36,0.51,1.57,0.6,2.01c0.78,3.64,1.48,9.3,1.95,16.01" style="fill:none;stroke:#999;stroke-width:3" />
<path d="M1444.38,51.57c7.52-1.07,19.48-2.9,24.13-2.79c1.13,0.03,1.82,1.24,1.82,2.38c0,3.61-1.47,8.94-2.68,15.63" style="fill:none;stroke:#999;stroke-width:3" />
<path d="M1455.4099999999999,51.02c0.85,0.73,1.16,1.27,1.16,1.91c-0.02,4.22,0.11,11.06,0.11,12.59" style="fill:none;stroke:#999;stroke-width:3" />
<path d="M1445.49,58.96c2.02-0.18,21.77-2.23,23.44-2.23" style="fill:none;stroke:#999;stroke-width:3" />
<path d="M1446.1,67.12c4.47,0,15.1-1.78,21.27-1.88" style="fill:none;stroke:#999;stroke-width:3" />
<path d="M1442.23,75.12c0.34,0.76,0.79,1.58,0.87,2.23c0.58,5.13,0.33,10.18,0.86,16.97" style="fill:none;stroke:#999;stroke-width:3" />
<path d="M1443.37,76.73c6.18-1.06,23.14-4.13,25.38-3.99c0.97,0.06,1.54,0.19,1.41,2.21c-0.19,2.98-1.13,9.36-1.85,13.37" style="fill:none;stroke:#999;stroke-width:3" />
<path d="M1451.71,76.18c0.14,0.49,0.35,0.89,0.35,1.51c0,4.37,0.64,10.2,0.64,14.21" style="fill:none;stroke:black;stroke-width:3" />
<circle cx="1451.71" cy="76.18" r="5" stroke-width="0" fill="#FF2A00" opacity="0.7" />
<path d="M1559.94,9.58c0.65,0.88,1.15,1.92,1.15,4.85c0,5.7-0.01,6.46-0.01,11.25" style="fill:none;stroke:#999;stroke-width:3" />
<path d="M1562.13,16.97c4.02-0.75,9.78-1.71,13.85-2.3c1.34-0.19,2.17,0.18,2.84,0.36" style="fill:none;stroke:#999;stroke-width:3" />
<path d="M1543.9099999999999,26.97c0.59,1.03,1.47,3.61,1.48,5.62C1545.5,57 1545.75,74 1534.7,93.42" style="fill:none;stroke:#999;stroke-width:3" />
<path d="M1545.08,28.85c8.79-1.95,25.74-4.36,33.27-4.52c7.93-0.17,3.16,3.67-0.14,6.03" style="fill:none;stroke:#999;stroke-width:3" />
<path d="M1548.59,37.73c0.57,0.35,1.97,0.41,2.55,0.35c5.71-0.54,15.42-3,21.59-3.87c0.95-0.13,1.52,0.17,2,0.35" style="fill:none;stroke:#999;stroke-width:3" />
<path d="M1561.1799999999998,28.75c0.36,0.4,0.84,1.96,0.84,2.52c0,4.41-0.07,4.11-0.07,6.08c0,5.86,2.01,5.42,7.19,5.42c1.93,0,6.72-0.45,8.38-1.24" style="fill:none;stroke:#999;stroke-width:3" />
<path d="M1552.23,50.53c0.18,0.36,0.51,1.57,0.6,2.01c0.78,3.64,1.48,9.3,1.95,16.01" style="fill:none;stroke:#999;stroke-width:3" />
<path d="M1553.38,51.57c7.52-1.07,19.48-2.9,24.13-2.79c1.13,0.03,1.82,1.24,1.82,2.38c0,3.61-1.47,8.94-2.68,15.63" style="fill:none;stroke:#999;stroke-width:3" />
<path d="M1564.4099999999999,51.02c0.85,0.73,1.16,1.27,1.16,1.91c-0.02,4.22,0.11,11.06,0.11,12.59" style="fill:none;stroke:#999;stroke-width:3" />
<path d="M1554.49,58.96c2.02-0.18,21.77-2.23,23.44-2.23" style="fill:none;stroke:#999;stroke-width:3" />
<path d="M1555.1,67.12c4.47,0,15.1-1.78,21.27-1.88" style="fill:none;stroke:#999;stroke-width:3" />
<path d="M1551.23,75.12c0.34,0.76,0.79,1.58,0.87,2.23c0.58,5.13,0.33,10.18,0.86,16.97" style="fill:none;stroke:#999;stroke-width:3" />
<path d="M1552.37,76.73c6.18-1.06,23.14-4.13,25.38-3.99c0.97,0.06,1.54,0.19,1.41,2.21c-0.19,2.98-1.13,9.36-1.85,13.37" style="fill:none;stroke:#999;stroke-width:3" />
<path d="M1560.71,76.18c0.14,0.49,0.35,0.89,0.35,1.51c0,4.37,0.64,10.2,0.64,14.21" style="fill:none;stroke:#999;stroke-width:3" />
<path d="M1568.8,75.09c0.26,0.58,0.44,1.58,0.47,2.34c0.23,5.07-0.03,9-0.19,12.68" style="fill:none;stroke:black;stroke-width:3" />
<circle cx="1568.8" cy="75.09" r="5" stroke-width="0" fill="#FF2A00" opacity="0.7" />
<path d="M1668.94,9.58c0.65,0.88,1.15,1.92,1.15,4.85c0,5.7-0.01,6.46-0.01,11.25" style="fill:none;stroke:#999;stroke-width:3" />
<path d="M1671.13,16.97c4.02-0.75,9.78-1.71,13.85-2.3c1.34-0.19,2.17,0.18,2.84,0.36" style="fill:none;stroke:#999;stroke-width:3" />
<path d="M1652.9099999999999,26.97c0.59,1.03,1.47,3.61,1.48,5.62C1654.5,57 1654.75,74 1643.7,93.42" style="fill:none;stroke:#999;stroke-width:3" />
<path d="M1654.08,28.85c8.79-1.95,25.74-4.36,33.27-4.52c7.93-0.17,3.16,3.67-0.14,6.03" style="fill:none;stroke:#999;stroke-width:3" />
<path d="M1657.59,37.73c0.57,0.35,1.97,0.41,2.55,0.35c5.71-0.54,15.42-3,21.59-3.87c0.95-0.13,1.52,0.17,2,0.35" style="fill:none;stroke:#999;stroke-width:3" />
<path d="M1670.1799999999998,28.75c0.36,0.4,0.84,1.96,0.84,2.52c0,4.41-0.07,4.11-0.07,6.08c0,5.86,2.01,5.42,7.19,5.42c1.93,0,6.72-0.45,8.38-1.24" style="fill:none;stroke:#999;stroke-width:3" />
<path d="M1661.23,50.53c0.18,0.36,0.51,1.57,0.6,2.01c0.78,3.64,1.48,9.3,1.95,16.01" style="fill:none;stroke:#999;stroke-width:3" />
<path d="M1662.38,51.57c7.52-1.07,19.48-2.9,24.13-2.79c1.13,0.03,1.82,1.24,1.82,2.38c0,3.61-1.47,8.94-2.68,15.63" style="fill:none;stroke:#999;stroke-width:3" />
<path d="M1673.4099999999999,51.02c0.85,0.73,1.16,1.27,1.16,1.91c-0.02,4.22,0.11,11.06,0.11,12.59" style="fill:none;stroke:#999;stroke-width:3" />
<path d="M1663.49,58.96c2.02-0.18,21.77-2.23,23.44-2.23" style="fill:none;stroke:#999;stroke-width:3" />
<path d="M1664.1,67.12c4.47,0,15.1-1.78,21.27-1.88" style="fill:none;stroke:#999;stroke-width:3" />
<path d="M1660.23,75.12c0.34,0.76,0.79,1.58,0.87,2.23c0.58,5.13,0.33,10.18,0.86,16.97" style="fill:none;stroke:#999;stroke-width:3" />
<path d="M1661.37,76.73c6.18-1.06,23.14-4.13,25.38-3.99c0.97,0.06,1.54,0.19,1.41,2.21c-0.19,2.98-1.13,9.36-1.85,13.37" style="fill:none;stroke:#999;stroke-width:3" />
<path d="M1669.71,76.18c0.14,0.49,0.35,0.89,0.35,1.51c0,4.37,0.64,10.2,0.64,14.21" style="fill:none;stroke:#999;stroke-width:3" />
<path d="M1677.8,75.09c0.26,0.58,0.44,1.58,0.47,2.34c0.23,5.07-0.03,9-0.19,12.68" style="fill:none;stroke:#999;stroke-width:3" />
<path d="M1652.77,94.97c0.85,1.23,2.41,1.43,3.26,1.23c8.85-2.06,20.97-5.95,36.34-9.4" style="fill:none;stroke:black;stroke-width:3" />
<circle cx="1652.77" cy="94.97" r="5" stroke-width="0" fill="#FF2A00" opacity="0.7" />
<path d="M1777.94,9.58c0.65,0.88,1.15,1.92,1.15,4.85c0,5.7-0.01,6.46-0.01,11.25" style="fill:none;stroke:#999;stroke-width:3" />
<path d="M1780.13,16.97c4.02-0.75,9.78-1.71,13.85-2.3c1.34-0.19,2.17,0.18,2.84,0.36" style="fill:none;stroke:#999;stroke-width:3" />
<path d="M1761.9099999999999,26.97c0.59,1.03,1.47,3.61,1.48,5.62C1763.5,57 1763.75,74 1752.7,93.42" style="fill:none;stroke:#999;stroke-width:3" />
<path d="M1763.08,28.85c8.79-1.95,25.74-4.36,33.27-4.52c7.93-0.17,3.16,3.67-0.14,6.03" style="fill:none;stroke:#999;stroke-width:3" />
<path d="M1766.59,37.73c0.57,0.35,1.97,0.41,2.55,0.35c5.71-0.54,15.42-3,21.59-3.87c0.95-0.13,1.52,0.17,2,0.35" style="fill:none;stroke:#999;stroke-width:3" />
<path d="M1779.1799999999998,28.75c0.36,0.4,0.84,1.96,0.84,2.52c0,4.41-0.07,4.11-0.07,6.08c0,5.86,2.01,5.42,7.19,5.42c1.93,0,6.72-0.45,8.38-1.24" style="fill:none;stroke:#999;stroke-width:3" />
<path d="M1770.23,50.53c0.18,0.36,0.51,1.57,0.6,2.01c0.78,3.64,1.48,9.3,1.95,16.01" style="fill:none;stroke:#999;stroke-width:3" />
<path d="M1771.38,51.57c7.52-1.07,19.48-2.9,24.13-2.79c1.13,0.03,1.82,1.24,1.82,2.38c0,3.61-1.47,8.94-2.68,15.63" style="fill:none;stroke:#999;stroke-width:3" />
<path d="M1782.4099999999999,51.02c0.85,0.73,1.16,1.27,1.16,1.91c-0.02,4.22,0.11,11.06,0.11,12.59" style="fill:none;stroke:#999;stroke-width:3" />
<path d="M1772.49,58.96c2.02-0.18,21.77-2.23,23.44-2.23" style="fill:none;stroke:#999;stroke-width:3" />
<path d="M1773.1,67.12c4.47,0,15.1-1.78,21.27-1.88" style="fill:none;stroke:#999;stroke-width:3" />
<path d="M1769.23,75.12c0.34,0.76,0.79,1.58,0.87,2.23c0.58,5.13,0.33,10.18,0.86,16.97" style="fill:none;stroke:#999;stroke-width:3" />
<path d="M1770.37,76.73c6.18-1.06,23.14-4.13,25.38-3.99c0.97,0.06,1.54,0.19,1.41,2.21c-0.19,2.98-1.13,9.36-1.85,13.37" style="fill:none;stroke:#999;stroke-width:3" />
<path d="M1778.71,76.18c0.14,0.49,0.35,0.89,0.35,1.51c0,4.37,0.64,10.2,0.64,14.21" style="fill:none;stroke:#999;stroke-width:3" />
<path d="M1786.8,75.09c0.26,0.58,0.44,1.58,0.47,2.34c0.23,5.07-0.03,9-0.19,12.68" style="fill:none;stroke:#999;stroke-width:3" />
<path d="M1761.77,94.97c0.85,1.23,2.41,1.43,3.26,1.23c8.85-2.06,20.97-5.95,36.34-9.4" style="fill:none;stroke:#999;stroke-width:3" />
<path d="M1802.45,17.85c1,0.5,2.84,0.57,3.85,0.5c8.3-0.58,24.13-2.58,30.59-2.82c1.67-0.06,2.68,0.24,3.51,0.49" style="fill:none;stroke:black;stroke-width:3" />
<circle cx="1802.45" cy="17.85" r="5" stroke-width="0" fill="#FF2A00" opacity="0.7" />
<path d="M1886.94,9.58c0.65,0.88,1.15,1.92,1.15,4.85c0,5.7-0.01,6.46-0.01,11.25" style="fill:none;stroke:#999;stroke-width:3" />
<path d="M1889.13,16.97c4.02-0.75,9.78-1.71,13.85-2.3c1.34-0.19,2.17,0.18,2.84,0.36" style="fill:none;stroke:#999;stroke-width:3" />
<path d="M1870.9099999999999,26.97c0.59,1.03,1.47,3.61,1.48,5.62C1872.5,57 1872.75,74 1861.7,93.42" style="fill:none;stroke:#999;stroke-width:3" />
<path d="M1872.08,28.85c8.79-1.95,25.74-4.36,33.27-4.52c7.93-0.17,3.16,3.67-0.14,6.03" style="fill:none;stroke:#999;stroke-width:3" />
<path d="M1875.59,37.73c0.57,0.35,1.97,0.41,2.55,0.35c5.71-0.54,15.42-3,21.59-3.87c0.95-0.13,1.52,0.17,2,0.35" style="fill:none;stroke:#999;stroke-width:3" />
<path d="M1888.1799999999998,28.75c0.36,0.4,0.84,1.96,0.84,2.52c0,4.41-0.07,4.11-0.07,6.08c0,5.86,2.01,5.42,7.19,5.42c1.93,0,6.72-0.45,8.38-1.24" style="fill:none;stroke:#999;stroke-width:3" />
<path d="M1879.23,50.53c0.18,0.36,0.51,1.57,0.6,2.01c0.78,3.64,1.48,9.3,1.95,16.01" style="fill:none;stroke:#999;stroke-width:3" />
<path d="M1880.38,51.57c7.52-1.07,19.48-2.9,24.13-2.79c1.13,0.03,1.82,1.24,1.82,2.38c0,3.61-1.47,8.94-2.68,15.63" style="fill:none;stroke:#999;stroke-width:3" />
<path d="M1891.4099999999999,51.02c0.85,0.73,1.16,1.27,1.16,1.91c-0.02,4.22,0.11,11.06,0.11,12.59" style="fill:none;stroke:#999;stroke-width:3" />
<path d="M1881.49,58.96c2.02-0.18,21.77-2.23,23.44-2.23" style="fill:none;stroke:#999;stroke-width:3" />
<path d="M1882.1,67.12c4.47,0,15.1-1.78,21.27-1.88" style="fill:none;stroke:#999;stroke-width:3" />
<path d="M1878.23,75.12c0.34,0.76,0.79,1.58,0.87,2.23c0.58,5.13,0.33,10.18,0.86,16.97" style="fill:none;stroke:#999;stroke-width:3" />
<path d="M1879.37,76.73c6.18-1.06,23.14-4.13,25.38-3.99c0.97,0.06,1.54,0.19,1.41,2.21c-0.19,2.98-1.13,9.36-1.85,13.37" style="fill:none;stroke:#999;stroke-width:3" />
<path d="M1887.71,76.18c0.14,0.49,0.35,0.89,0.35,1.51c0,4.37,0.64,10.2,0.64,14.21" style="fill:none;stroke:#999;stroke-width:3" />
<path d="M1895.8,75.09c0.26,0.58,0.44,1.58,0.47,2.34c0.23,5.07-0.03,9-0.19,12.68" style="fill:none;stroke:#999;stroke-width:3" />
<path d="M1870.77,94.97c0.85,1.23,2.41,1.43,3.26,1.23c8.85-2.06,20.97-5.95,36.34-9.4" style="fill:none;stroke:#999;stroke-width:3" />
<path d="M1911.45,17.85c1,0.5,2.84,0.57,3.85,0.5c8.3-0.58,24.13-2.58,30.59-2.82c1.67-0.06,2.68,0.24,3.51,0.49" style="fill:none;stroke:#999;stroke-width:3" />
<path d="M1927.73,20.68c0.01,0.26,0.02,0.66-0.01,1.03c-0.21,2.17-2.27,6.93-3.9,9.84" style="fill:none;stroke:black;stroke-width:3" />
<circle cx="1927.73" cy="20.68" r="5" stroke-width="0" fill="#FF2A00" opacity="0.7" />
<path d="M1995.94,9.58c0.65,0.88,1.15,1.92,1.15,4.85c0,5.7-0.01,6.46-0.01,11.25" style="fill:none;stroke:#999;stroke-width:3" />
<path d="M1998.13,16.97c4.02-0.75,9.78-1.71,13.85-2.3c1.34-0.19,2.17,0.18,2.84,0.36" style="fill:none;stroke:#999;stroke-width:3" />
<path d="M1979.9099999999999,26.97c0.59,1.03,1.47,3.61,1.48,5.62C1981.5,57 1981.75,74 1970.7,93.42" style="fill:none;stroke:#999;stroke-width:3" />
<path d="M1981.08,28.85c8.79-1.95,25.74-4.36,33.27-4.52c7.93-0.17,3.16,3.67-0.14,6.03" style="fill:none;stroke:#999;stroke-width:3" />
<path d="M1984.59,37.73c0.57,0.35,1.97,0.41,2.55,0.35c5.71-0.54,15.42-3,21.59-3.87c0.95-0.13,1.52,0.17,2,0.35" style="fill:none;stroke:#999;stroke-width:3" />
<path d="M1997.1799999999998,28.75c0.36,0.4,0.84,1.96,0.84,2.52c0,4.41-0.07,4.11-0.07,6.08c0,5.86,2.01,5.42,7.19,5.42c1.93,0,6.72-0.45,8.38-1.24" style="fill:none;stroke:#999;stroke-width:3" />
<path d="M1988.23,50.53c0.18,0.36,0.51,1.57,0.6,2.01c0.78,3.64,1.48,9.3,1.95,16.01" style="fill:none;stroke:#999;stroke-width:3" />
<path d="M1989.38,51.57c7.52-1.07,19.48-2.9,24.13-2.79c1.13,0.03,1.82,1.24,1.82,2.38c0,3.61-1.47,8.94-2.68,15.63" style="fill:none;stroke:#999;stroke-width:3" />
<path d="M2000.4099999999999,51.02c0.85,0.73,1.16,1.27,1.16,1.91c-0.02,4.22,0.11,11.06,0.11,12.59" style="fill:none;stroke:#999;stroke-width:3" />
<path d="M1990.49,58.96c2.02-0.18,21.77-2.23,23.44-2.23" style="fill:none;stroke:#999;stroke-width:3" />
<path d="M1991.1,67.12c4.47,0,15.1-1.78,21.27-1.88" style="fill:none;stroke:#999;stroke-width:3" />
<path d="M1987.23,75.12c0.34,0.76,0.79,1.58,0.87,2.23c0.58,5.13,0.33,10.18,0.86,16.97" style="fill:none;stroke:#999;stroke-width:3" />
<path d="M1988.37,76.73c6.18-1.06,23.14-4.13,25.38-3.99c0.97,0.06,1.54,0.19,1.41,2.21c-0.19,2.98-1.13,9.36-1.85,13.37" style="fill:none;stroke:#999;stroke-width:3" />
<path d="M1996.71,76.18c0.14,0.49,0.35,0.89,0.35,1.51c0,4.37,0.64,10.2,0.64,14.21" style="fill:none;stroke:#999;stroke-width:3" />
<path d="M2004.8,75.09c0.26,0.58,0.44,1.58,0.47,2.34c0.23,5.07-0.03,9-0.19,12.68" style="fill:none;stroke:#999;stroke-width:3" />
<path d="M1979.77,94.97c0.85,1.23,2.41,1.43,3.26,1.23c8.85-2.06,20.97-5.95,36.34-9.4" style="fill:none;stroke:#999;stroke-width:3" />
<path d="M2020.45,17.85c1,0.5,2.84,0.57,3.85,0.5c8.3-0.58,24.13-2.58,30.59-2.82c1.67-0.06,2.68,0.24,3.51,0.49" style="fill:none;stroke:#999;stroke-width:3" />
<path d="M2036.73,20.68c0.01,0.26,0.02,0.66-0.01,1.03c-0.21,2.17-2.27,6.93-3.9,9.84" style="fill:none;stroke:#999;stroke-width:3" />
<path d="M2023.66,32.8c0.45,1.08,1.11,1.88,1.11,3.32c0,1.44-0.65,41.34-0.5,42.78" style="fill:none;stroke:black;stroke-width:3" />
<circle cx="2023.66" cy="32.8" r="5" stroke-width="0" fill="#FF2A00" opacity="0.7" />
<path d="M2104.94,9.58c0.65,0.88,1.15,1.92,1.15,4.85c0,5.7-0.01,6.46-0.01,11.25" style="fill:none;stroke:#999;stroke-width:3" />
<path d="M2107.13,16.97c4.02-0.75,9.78-1.71,13.85-2.3c1.34-0.19,2.17,0.18,2.84,0.36" style="fill:none;stroke:#999;stroke-width:3" />
<path d="M2088.91,26.97c0.59,1.03,1.47,3.61,1.48,5.62C2090.5,57 2090.75,74 2079.7,93.42" style="fill:none;stroke:#999;stroke-width:3" />
<path d="M2090.08,28.85c8.79-1.95,25.74-4.36,33.27-4.52c7.93-0.17,3.16,3.67-0.14,6.03" style="fill:none;stroke:#999;stroke-width:3" />
<path d="M2093.59,37.73c0.57,0.35,1.97,0.41,2.55,0.35c5.71-0.54,15.42-3,21.59-3.87c0.95-0.13,1.52,0.17,2,0.35" style="fill:none;stroke:#999;stroke-width:3" />
<path d="M2106.18,28.75c0.36,0.4,0.84,1.96,0.84,2.52c0,4.41-0.07,4.11-0.07,6.08c0,5.86,2.01,5.42,7.19,5.42c1.93,0,6.72-0.45,8.38-1.24" style="fill:none;stroke:#999;stroke-width:3" />
<path d="M2097.23,50.53c0.18,0.36,0.51,1.57,0.6,2.01c0.78,3.64,1.48,9.3,1.95,16.01" style="fill:none;stroke:#999;stroke-width:3" />
<path d="M2098.38,51.57c7.52-1.07,19.48-2.9,24.13-2.79c1.13,0.03,1.82,1.24,1.82,2.38c0,3.61-1.47,8.94-2.68,15.63" style="fill:none;stroke:#999;stroke-width:3" />
<path d="M2109.41,51.02c0.85,0.73,1.16,1.27,1.16,1.91c-0.02,4.22,0.11,11.06,0.11,12.59" style="fill:none;stroke:#999;stroke-width:3" />
<path d="M2099.49,58.96c2.02-0.18,21.77-2.23,23.44-2.23" style="fill:none;stroke:#999;stroke-width:3" />
<path d="M2100.1,67.12c4.47,0,15.1-1.78,21.27-1.88" style="fill:none;stroke:#999;stroke-width:3" />
<path d="M2096.23,75.12c0.34,0.76,0.79,1.58,0.87,2.23c0.58,5.13,0.33,10.18,0.86,16.97" style="fill:none;stroke:#999;stroke-width:3" />
<path d="M2097.37,76.73c6.18-1.06,23.14-4.13,25.38-3.99c0.97,0.06,1.54,0.19,1.41,2.21c-0.19,2.98-1.13,9.36-1.85,13.37" style="fill:none;stroke:#999;stroke-width:3" />
<path d="M2105.71,76.18c0.14,0.49,0.35,0.89,0.35,1.51c0,4.37,0.64,10.2,0.64,14.21" style="fill:none;stroke:#999;stroke-width:3" />
<path d="M2113.8,75.09c0.26,0.58,0.44,1.58,0.47,2.34c0.23,5.07-0.03,9-0.19,12.68" style="fill:none;stroke:#999;stroke-width:3" />
<path d="M2088.77,94.97c0.85,1.23,2.41,1.43,3.26,1.23c8.85-2.06,20.97-5.95,36.34-9.4" style="fill:none;stroke:#999;stroke-width:3" />
<path d="M2129.45,17.85c1,0.5,2.84,0.57,3.85,0.5c8.3-0.58,24.13-2.58,30.59-2.82c1.67-0.06,2.68,0.24,3.51,0.49" style="fill:none;stroke:#999;stroke-width:3" />
<path d="M2145.73,20.68c0.01,0.26,0.02,0.66-0.01,1.03c-0.21,2.17-2.27,6.93-3.9,9.84" style="fill:none;stroke:#999;stroke-width:3" />
<path d="M2132.66,32.8c0.45,1.08,1.11,1.88,1.11,3.32c0,1.44-0.65,41.34-0.5,42.78" style="fill:none;stroke:#999;stroke-width:3" />
<path d="M2134.53,34.23c2.56-0.18,22.74-3.36,25.08-3.58c1.94-0.18,3.48,1.99,3.31,3.32c-0.21,1.69-0.9,41.25-0.9,42.33" style="fill:none;stroke:black;stroke-width:3" />
<circle cx="2134.53" cy="34.23" r="5" stroke-width="0" fill="#FF2A00" opacity="0.7" />
<path d="M2213.94,9.58c0.65,0.88,1.15,1.92,1.15,4.85c0,5.7-0.01,6.46-0.01,11.25" style="fill:none;stroke:#999;stroke-width:3" />
<path d="M2216.13,16.97c4.02-0.75,9.78-1.71,13.85-2.3c1.34-0.19,2.17,0.18,2.84,0.36" style="fill:none;stroke:#999;stroke-width:3" />
<path d="M2197.91,26.97c0.59,1.03,1.47,3.61,1.48,5.62C2199.5,57 2199.75,74 2188.7,93.42" style="fill:none;stroke:#999;stroke-width:3" />
<path d="M2199.08,28.85c8.79-1.95,25.74-4.36,33.27-4.52c7.93-0.17,3.16,3.67-0.14,6.03" style="fill:none;stroke:#999;stroke-width:3" />
<path d="M2202.59,37.73c0.57,0.35,1.97,0.41,2.55,0.35c5.71-0.54,15.42-3,21.59-3.87c0.95-0.13,1.52,0.17,2,0.35" style="fill:none;stroke:#999;stroke-width:3" />
<path d="M2215.18,28.75c0.36,0.4,0.84,1.96,0.84,2.52c0,4.41-0.07,4.11-0.07,6.08c0,5.86,2.01,5.42,7.19,5.42c1.93,0,6.72-0.45,8.38-1.24" style="fill:none;stroke:#999;stroke-width:3" />
<path d="M2206.23,50.53c0.18,0.36,0.51,1.57,0.6,2.01c0.78,3.64,1.48,9.3,1.95,16.01" style="fill:none;stroke:#999;stroke-width:3" />
<path d="M2207.38,51.57c7.52-1.07,19.48-2.9,24.13-2.79c1.13,0.03,1.82,1.24,1.82,2.38c0,3.61-1.47,8.94-2.68,15.63" style="fill:none;stroke:#999;stroke-width:3" />
<path d="M2218.41,51.02c0.85,0.73,1.16,1.27,1.16,1.91c-0.02,4.22,0.11,11.06,0.11,12.59" style="fill:none;stroke:#999;stroke-width:3" />
<path d="M2208.49,58.96c2.02-0.18,21.77-2.23,23.44-2.23" style="fill:none;stroke:#999;stroke-width:3" />
<path d="M2209.1,67.12c4.47,0,15.1-1.78,21.27-1.88" style="fill:none;stroke:#999;stroke-width:3" />
<path d="M2205.23,75.12c0.34,0.76,0.79,1.58,0.87,2.23c0.58,5.13,0.33,10.18,0.86,16.97" style="fill:none;stroke:#999;stroke-width:3" />
<path d="M2206.37,76.73c6.18-1.06,23.14-4.13,25.38-3.99c0.97,0.06,1.54,0.19,1.41,2.21c-0.19,2.98-1.13,9.36-1.85,13.37" style="fill:none;stroke:#999;stroke-width:3" />
<path d="M2214.71,76.18c0.14,0.49,0.35,0.89,0.35,1.51c0,4.37,0.64,10.2,0.64,14.21" style="fill:none;stroke:#999;stroke-width:3" />
<path d="M2222.8,75.09c0.26,0.58,0.44,1.58,0.47,2.34c0.23,5.07-0.03,9-0.19,12.68" style="fill:none;stroke:#999;stroke-width:3" />
<path d="M2197.77,94.97c0.85,1.23,2.41,1.43,3.26,1.23c8.85-2.06,20.97-5.95,36.34-9.4" style="fill:none;stroke:#999;stroke-width:3" />
<path d="M2238.45,17.85c1,0.5,2.84,0.57,3.85,0.5c8.3-0.58,24.13-2.58,30.59-2.82c1.67-0.06,2.68,0.24,3.51,0.49" style="fill:none;stroke:#999;stroke-width:3" />
<path d="M2254.73,20.68c0.01,0.26,0.02,0.66-0.01,1.03c-0.21,2.17-2.27,6.93-3.9,9.84" style="fill:none;stroke:#999;stroke-width:3" />
<path d="M2241.66,32.8c0.45,1.08,1.11,1.88,1.11,3.32c0,1.44-0.65,41.34-0.5,42.78" style="fill:none;stroke:#999;stroke-width:3" />
<path d="M2243.53,34.23c2.56-0.18,22.74-3.36,25.08-3.58c1.94-0.18,3.48,1.99,3.31,3.32c-0.21,1.69-0.9,41.25-0.9,42.33" style="fill:none;stroke:#999;stroke-width:3" />
<path d="M2243.49,47.32c3.66,0,21.65-2.42,27.14-2.81" style="fill:none;stroke:black;stroke-width:3" />
<circle cx="2243.49" cy="47.32" r="5" stroke-width="0" fill="#FF2A00" opacity="0.7" />
<path d="M2322.94,9.58c0.65,0.88,1.15,1.92,1.15,4.85c0,5.7-0.01,6.46-0.01,11.25" style="fill:none;stroke:#999;stroke-width:3" />
<path d="M2325.13,16.97c4.02-0.75,9.78-1.71,13.85-2.3c1.34-0.19,2.17,0.18,2.84,0.36" style="fill:none;stroke:#999;stroke-width:3" />
<path d="M2306.91,26.97c0.59,1.03,1.47,3.61,1.48,5.62C2308.5,57 2308.75,74 2297.7,93.42" style="fill:none;stroke:#999;stroke-width:3" />
<path d="M2308.08,28.85c8.79-1.95,25.74-4.36,33.27-4.52c7.93-0.17,3.16,3.67-0.14,6.03" style="fill:none;stroke:#999;stroke-width:3" />
<path d="M2311.59,37.73c0.57,0.35,1.97,0.41,2.55,0.35c5.71-0.54,15.42-3,21.59-3.87c0.95-0.13,1.52,0.17,2,0.35" style="fill:none;stroke:#999;stroke-width:3" />
<path d="M2324.18,28.75c0.36,0.4,0.84,1.96,0.84,2.52c0,4.41-0.07,4.11-0.07,6.08c0,5.86,2.01,5.42,7.19,5.42c1.93,0,6.72-0.45,8.38-1.24" style="fill:none;stroke:#999;stroke-width:3" />
<path d="M2315.23,50.53c0.18,0.36,0.51,1.57,0.6,2.01c0.78,3.64,1.48,9.3,1.95,16.01" style="fill:none;stroke:#999;stroke-width:3" />
<path d="M2316.38,51.57c7.52-1.07,19.48-2.9,24.13-2.79c1.13,0.03,1.82,1.24,1.82,2.38c0,3.61-1.47,8.94-2.68,15.63" style="fill:none;stroke:#999;stroke-width:3" />
<path d="M2327.41,51.02c0.85,0.73,1.16,1.27,1.16,1.91c-0.02,4.22,0.11,11.06,0.11,12.59" style="fill:none;stroke:#999;stroke-width:3" />
<path d="M2317.49,58.96c2.02-0.18,21.77-2.23,23.44-2.23" style="fill:none;stroke:#999;stroke-width:3" />
<path d="M2318.1,67.12c4.47,0,15.1-1.78,21.27-1.88" style="fill:none;stroke:#999;stroke-width:3" />
<path d="M2314.23,75.12c0.34,0.76,0.79,1.58,0.87,2.23c0.58,5.13,0.33,10.18,0.86,16.97" style="fill:none;stroke:#999;stroke-width:3" />
<path d="M2315.37,76.73c6.18-1.06,23.14-4.13,25.38-3.99c0.97,0.06,1.54,0.19,1.41,2.21c-0.19,2.98-1.13,9.36-1.85,13.37" style="fill:none;stroke:#999;stroke-width:3" />
<path d="M2323.71,76.18c0.14,0.49,0.35,0.89,0.35,1.51c0,4.37,0.64,10.2,0.64,14.21" style="fill:none;stroke:#999;stroke-width:3" />
<path d="M2331.8,75.09c0.26,0.58,0.44,1.58,0.47,2.34c0.23,5.07-0.03,9-0.19,12.68" style="fill:none;stroke:#999;stroke-width:3" />
<path d="M2306.77,94.97c0.85,1.23,2.41,1.43,3.26,1.23c8.85-2.06,20.97-5.95,36.34-9.4" style="fill:none;stroke:#999;stroke-width:3" />
<path d="M2347.45,17.85c1,0.5,2.84,0.57,3.85,0.5c8.3-0.58,24.13-2.58,30.59-2.82c1.67-0.06,2.68,0.24,3.51,0.49" style="fill:none;stroke:#999;stroke-width:3" />
<path d="M2363.73,20.68c0.01,0.26,0.02,0.66-0.01,1.03c-0.21,2.17-2.27,6.93-3.9,9.84" style="fill:none;stroke:#999;stroke-width:3" />
<path d="M2350.66,32.8c0.45,1.08,1.11,1.88,1.11,3.32c0,1.44-0.65,41.34-0.5,42.78" style="fill:none;stroke:#999;stroke-width:3" />
<path d="M2352.53,34.23c2.56-0.18,22.74-3.36,25.08-3.58c1.94-0.18,3.48,1.99,3.31,3.32c-0.21,1.69-0.9,41.25-0.9,42.33" style="fill:none;stroke:#999;stroke-width:3" />
<path d="M2352.49,47.32c3.66,0,21.65-2.42,27.14-2.81" style="fill:none;stroke:#999;stroke-width:3" />
<path d="M2352.69,60.44c9.13-0.48,18.97-1.55,25.97-2.05" style="fill:none;stroke:black;stroke-width:3" />
<circle cx="2352.69" cy="60.44" r="5" stroke-width="0" fill="#FF2A00" opacity="0.7" />
<path d="M2431.94,9.58c0.65,0.88,1.15,1.92,1.15,4.85c0,5.7-0.01,6.46-0.01,11.25" style="fill:none;stroke:#999;stroke-width:3" />
<path d="M2434.13,16.97c4.02-0.75,9.78-1.71,13.85-2.3c1.34-0.19,2.17,0.18,2.84,0.36" style="fill:none;stroke:#999;stroke-width:3" />
<path d="M2415.91,26.97c0.59,1.03,1.47,3.61,1.48,5.62C2417.5,57 2417.75,74 2406.7,93.42" style="fill:none;stroke:#999;stroke-width:3" />
<path d="M2417.08,28.85c8.79-1.95,25.74-4.36,33.27-4.52c7.93-0.17,3.16,3.67-0.14,6.03" style="fill:none;stroke:#999;stroke-width:3" />
<path d="M2420.59,37.73c0.57,0.35,1.97,0.41,2.55,0.35c5.71-0.54,15.42-3,21.59-3.87c0.95-0.13,1.52,0.17,2,0.35" style="fill:none;stroke:#999;stroke-width:3" />
<path d="M2433.18,28.75c0.36,0.4,0.84,1.96,0.84,2.52c0,4.41-0.07,4.11-0.07,6.08c0,5.86,2.01,5.42,7.19,5.42c1.93,0,6.72-0.45,8.38-1.24" style="fill:none;stroke:#999;stroke-width:3" />
<path d="M2424.23,50.53c0.18,0.36,0.51,1.57,0.6,2.01c0.78,3.64,1.48,9.3,1.95,16.01" style="fill:none;stroke:#999;stroke-width:3" />
<path d="M2425.38,51.57c7.52-1.07,19.48-2.9,24.13-2.79c1.13,0.03,1.82,1.24,1.82,2.38c0,3.61-1.47,8.94-2.68,15.63" style="fill:none;stroke:#999;stroke-width:3" />
<path d="M2436.41,51.02c0.85,0.73,1.16,1.27,1.16,1.91c-0.02,4.22,0.11,11.06,0.11,12.59" style="fill:none;stroke:#999;stroke-width:3" />
<path d="M2426.49,58.96c2.02-0.18,21.77-2.23,23.44-2.23" style="fill:none;stroke:#999;stroke-width:3" />
<path d="M2427.1,67.12c4.47,0,15.1-1.78,21.27-1.88" style="fill:none;stroke:#999;stroke-width:3" />
<path d="M2423.23,75.12c0.34,0.76,0.79,1.58,0.87,2.23c0.58,5.13,0.33,10.18,0.86,16.97" style="fill:none;stroke:#999;stroke-width:3" />
<path d="M2424.37,76.73c6.18-1.06,23.14-4.13,25.38-3.99c0.97,0.06,1.54,0.19,1.41,2.21c-0.19,2.98-1.13,9.36-1.85,13.37" style="fill:none;stroke:#999;stroke-width:3" />
<path d="M2432.71,76.18c0.14,0.49,0.35,0.89,0.35,1.51c0,4.37,0.64,10.2,0.64,14.21" style="fill:none;stroke:#999;stroke-width:3" />
<path d="M2440.8,75.09c0.26,0.58,0.44,1.58,0.47,2.34c0.23,5.07-0.03,9-0.19,12.68" style="fill:none;stroke:#999;stroke-width:3" />
<path d="M2415.77,94.97c0.85,1.23,2.41,1.43,3.26,1.23c8.85-2.06,20.97-5.95,36.34-9.4" style="fill:none;stroke:#999;stroke-width:3" />
<path d="M2456.45,17.85c1,0.5,2.84,0.57,3.85,0.5c8.3-0.58,24.13-2.58,30.59-2.82c1.67-0.06,2.68,0.24,3.51,0.49" style="fill:none;stroke:#999;stroke-width:3" />
<path d="M2472.73,20.68c0.01,0.26,0.02,0.66-0.01,1.03c-0.21,2.17-2.27,6.93-3.9,9.84" style="fill:none;stroke:#999;stroke-width:3" />
<path d="M2459.66,32.8c0.45,1.08,1.11,1.88,1.11,3.32c0,1.44-0.65,41.34-0.5,42.78" style="fill:none;stroke:#999;stroke-width:3" />
<path d="M2461.53,34.23c2.56-0.18,22.74-3.36,25.08-3.58c1.94-0.18,3.48,1.99,3.31,3.32c-0.21,1.69-0.9,41.25-0.9,42.33" style="fill:none;stroke:#999;stroke-width:3" />
<path d="M2461.49,47.32c3.66,0,21.65-2.42,27.14-2.81" style="fill:none;stroke:#999;stroke-width:3" />
<path d="M2461.69,60.44c9.13-0.48,18.97-1.55,25.97-2.05" style="fill:none;stroke:#999;stroke-width:3" />
<path d="M2460.86,76.29c5.9-1.07,20.51-2,27.96-2.54" style="fill:none;stroke:black;stroke-width:3" />
<circle cx="2460.86" cy="76.29" r="5" stroke-width="0" fill="#FF2A00" opacity="0.7" />
<path d="M2540.94,9.58c0.65,0.88,1.15,1.92,1.15,4.85c0,5.7-0.01,6.46-0.01,11.25" style="fill:none;stroke:#999;stroke-width:3" />
<path d="M2543.13,16.97c4.02-0.75,9.78-1.71,13.85-2.3c1.34-0.19,2.17,0.18,2.84,0.36" style="fill:none;stroke:#999;stroke-width:3" />
<path d="M2524.91,26.97c0.59,1.03,1.47,3.61,1.48,5.62C2526.5,57 2526.75,74 2515.7,93.42" style="fill:none;stroke:#999;stroke-width:3" />
<path d="M2526.08,28.85c8.79-1.95,25.74-4.36,33.27-4.52c7.93-0.17,3.16,3.67-0.14,6.03" style="fill:none;stroke:#999;stroke-width:3" />
<path d="M2529.59,37.73c0.57,0.35,1.97,0.41,2.55,0.35c5.71-0.54,15.42-3,21.59-3.87c0.95-0.13,1.52,0.17,2,0.35" style="fill:none;stroke:#999;stroke-width:3" />
<path d="M2542.18,28.75c0.36,0.4,0.84,1.96,0.84,2.52c0,4.41-0.07,4.11-0.07,6.08c0,5.86,2.01,5.42,7.19,5.42c1.93,0,6.72-0.45,8.38-1.24" style="fill:none;stroke:#999;stroke-width:3" />
<path d="M2533.23,50.53c0.18,0.36,0.51,1.57,0.6,2.01c0.78,3.64,1.48,9.3,1.95,16.01" style="fill:none;stroke:#999;stroke-width:3" />
<path d="M2534.38,51.57c7.52-1.07,19.48-2.9,24.13-2.79c1.13,0.03,1.82,1.24,1.82,2.38c0,3.61-1.47,8.94-2.68,15.63" style="fill:none;stroke:#999;stroke-width:3" />
<path d="M2545.41,51.02c0.85,0.73,1.16,1.27,1.16,1.91c-0.02,4.22,0.11,11.06,0.11,12.59" style="fill:none;stroke:#999;stroke-width:3" />
<path d="M2535.49,58.96c2.02-0.18,21.77-2.23,23.44-2.23" style="fill:none;stroke:#999;stroke-width:3" />
<path d="M2536.1,67.12c4.47,0,15.1-1.78,21.27-1.88" style="fill:none;stroke:#999;stroke-width:3" />
<path d="M2532.23,75.12c0.34,0.76,0.79,1.58,0.87,2.23c0.58,5.13,0.33,10.18,0.86,16.97" style="fill:none;stroke:#999;stroke-width:3" />
<path d="M2533.37,76.73c6.18-1.06,23.14-4.13,25.38-3.99c0.97,0.06,1.54,0.19,1.41,2.21c-0.19,2.98-1.13,9.36-1.85,13.37" style="fill:none;stroke:#999;stroke-width:3" />
<path d="M2541.71,76.18c0.14,0.49,0.35,0.89,0.35,1.51c0,4.37,0.64,10.2,0.64,14.21" style="fill:none;stroke:#999;stroke-width:3" />
<path d="M2549.8,75.09c0.26,0.58,0.44,1.58,0.47,2.34c0.23,5.07-0.03,9-0.19,12.68" style="fill:none;stroke:#999;stroke-width:3" />
<path d="M2524.77,94.97c0.85,1.23,2.41,1.43,3.26,1.23c8.85-2.06,20.97-5.95,36.34-9.4" style="fill:none;stroke:#999;stroke-width:3" />
<path d="M2565.45,17.85c1,0.5,2.84,0.57,3.85,0.5c8.3-0.58,24.13-2.58,30.59-2.82c1.67-0.06,2.68,0.24,3.51,0.49" style="fill:none;stroke:#999;stroke-width:3" />
<path d="M2581.73,20.68c0.01,0.26,0.02,0.66-0.01,1.03c-0.21,2.17-2.27,6.93-3.9,9.84" style="fill:none;stroke:#999;stroke-width:3" />
<path d="M2568.66,32.8c0.45,1.08,1.11,1.88,1.11,3.32c0,1.44-0.65,41.34-0.5,42.78" style="fill:none;stroke:#999;stroke-width:3" />
<path d="M2570.53,34.23c2.56-0.18,22.74-3.36,25.08-3.58c1.94-0.18,3.48,1.99,3.31,3.32c-0.21,1.69-0.9,41.25-0.9,42.33" style="fill:none;stroke:#999;stroke-width:3" />
<path d="M2570.49,47.32c3.66,0,21.65-2.42,27.14-2.81" style="fill:none;stroke:#999;stroke-width:3" />
<path d="M2570.69,60.44c9.13-0.48,18.97-1.55,25.97-2.05" style="fill:none;stroke:#999;stroke-width:3" />
<path d="M2569.86,76.29c5.9-1.07,20.51-2,27.96-2.54" style="fill:none;stroke:#999;stroke-width:3" />
<path d="M2577.18,80.98c0.38,1.38,0.75,1.75,0,2.75c-2.29,3.02-10.39,10.45-14.96,14.02" style="fill:none;stroke:black;stroke-width:3" />
<circle cx="2577.18" cy="80.98" r="5" stroke-width="0" fill="#FF2A00" opacity="0.7" />
<path d="M2649.94,9.58c0.65,0.88,1.15,1.92,1.15,4.85c0,5.7-0.01,6.46-0.01,11.25" style="fill:none;stroke:#999;stroke-width:3" />
<path d="M2652.13,16.97c4.02-0.75,9.78-1.71,13.85-2.3c1.34-0.19,2.17,0.18,2.84,0.36" style="fill:none;stroke:#999;stroke-width:3" />
<path d="M2633.91,26.97c0.59,1.03,1.47,3.61,1.48,5.62C2635.5,57 2635.75,74 2624.7,93.42" style="fill:none;stroke:#999;stroke-width:3" />
<path d="M2635.08,28.85c8.79-1.95,25.74-4.36,33.27-4.52c7.93-0.17,3.16,3.67-0.14,6.03" style="fill:none;stroke:#999;stroke-width:3" />
<path d="M2638.59,37.73c0.57,0.35,1.97,0.41,2.55,0.35c5.71-0.54,15.42-3,21.59-3.87c0.95-0.13,1.52,0.17,2,0.35" style="fill:none;stroke:#999;stroke-width:3" />
<path d="M2651.18,28.75c0.36,0.4,0.84,1.96,0.84,2.52c0,4.41-0.07,4.11-0.07,6.08c0,5.86,2.01,5.42,7.19,5.42c1.93,0,6.72-0.45,8.38-1.24" style="fill:none;stroke:#999;stroke-width:3" />
<path d="M2642.23,50.53c0.18,0.36,0.51,1.57,0.6,2.01c0.78,3.64,1.48,9.3,1.95,16.01" style="fill:none;stroke:#999;stroke-width:3" />
<path d="M2643.38,51.57c7.52-1.07,19.48-2.9,24.13-2.79c1.13,0.03,1.82,1.24,1.82,2.38c0,3.61-1.47,8.94-2.68,15.63" style="fill:none;stroke:#999;stroke-width:3" />
<path d="M2654.41,51.02c0.85,0.73,1.16,1.27,1.16,1.91c-0.02,4.22,0.11,11.06,0.11,12.59" style="fill:none;stroke:#999;stroke-width:3" />
<path d="M2644.49,58.96c2.02-0.18,21.77-2.23,23.44-2.23" style="fill:none;stroke:#999;stroke-width:3" />
<path d="M2645.1,67.12c4.47,0,15.1-1.78,21.27-1.88" style="fill:none;stroke:#999;stroke-width:3" />
<path d="M2641.23,75.12c0.34,0.76,0.79,1.58,0.87,2.23c0.58,5.13,0.33,10.18,0.86,16.97" style="fill:none;stroke:#999;stroke-width:3" />
<path d="M2642.37,76.73c6.18-1.06,23.14-4.13,25.38-3.99c0.97,0.06,1.54,0.19,1.41,2.21c-0.19,2.98-1.13,9.36-1.85,13.37" style="fill:none;stroke:#999;stroke-width:3" />
<path d="M2650.71,76.18c0.14,0.49,0.35,0.89,0.35,1.51c0,4.37,0.64,10.2,0.64,14.21" style="fill:none;stroke:#999;stroke-width:3" />
<path d="M2658.8,75.09c0.26,0.58,0.44,1.58,0.47,2.34c0.23,5.07-0.03,9-0.19,12.68" style="fill:none;stroke:#999;stroke-width:3" />
<path d="M2633.77,94.97c0.85,1.23,2.41,1.43,3.26,1.23c8.85-2.06,20.97-5.95,36.34-9.4" style="fill:none;stroke:#999;stroke-width:3" />
<path d="M2674.45,17.85c1,0.5,2.84,0.57,3.85,0.5c8.3-0.58,24.13-2.58,30.59-2.82c1.67-0.06,2.68,0.24,3.51,0.49" style="fill:none;stroke:#999;stroke-width:3" />
<path d="M2690.73,20.68c0.01,0.26,0.02,0.66-0.01,1.03c-0.21,2.17-2.27,6.93-3.9,9.84" style="fill:none;stroke:#999;stroke-width:3" />
<path d="M2677.66,32.8c0.45,1.08,1.11,1.88,1.11,3.32c0,1.44-0.65,41.34-0.5,42.78" style="fill:none;stroke:#999;stroke-width:3" />
<path d="M2679.53,34.23c2.56-0.18,22.74-3.36,25.08-3.58c1.94-0.18,3.48,1.99,3.31,3.32c-0.21,1.69-0.9,41.25-0.9,42.33" style="fill:none;stroke:#999;stroke-width:3" />
<path d="M2679.49,47.32c3.66,0,21.65-2.42,27.14-2.81" style="fill:none;stroke:#999;stroke-width:3" />
<path d="M2679.69,60.44c9.13-0.48,18.97-1.55,25.97-2.05" style="fill:none;stroke:#999;stroke-width:3" />
<path d="M2678.86,76.29c5.9-1.07,20.51-2,27.96-2.54" style="fill:none;stroke:#999;stroke-width:3" />
<path d="M2686.18,80.98c0.38,1.38,0.75,1.75,0,2.75c-2.29,3.02-10.39,10.45-14.96,14.02" style="fill:none;stroke:#999;stroke-width:3" />
<path d="M2698.57,81.62C2704.27,85.95 2711.0,93.8 2712.55,97.58" style="fill:none;stroke:black;stroke-width:3" />
<circle cx="2698.57" cy="81.62" r="5" stroke-width="0" fill="#FF2A00" opacity="0.7" />
</svg>