<!-- 0990c -->
<svg width="1635px" height="109px" viewBox="0 0 1635px 109px" xmlns="http://www.w3.org/2000/svg" xmlns:xlink="http://www.w3.org/1999/xlink" xml:space="preserve" version="1.1"  baseProfile="full">
<line x1="1" y1="1" x2="1634" y2="1" style="stroke:#ddd;stroke-width:2" />
<line x1="1" y1="1" x2="1" y2="108" style="stroke:#ddd;stroke-width:2" />
<line x1="1" y1="108" x2="1634" y2="108" style="stroke:#ddd;stroke-width:2" />
<line x1="1634" y1="1" x2="1634" y2="108" style="stroke:#ddd;stroke-width:2" />
<line x1="109" y1="1" x2="109" y2="108" style="stroke:#ddd;stroke-width:2" />
<line x1="218" y1="1" x2="218" y2="108" style="stroke:#ddd;stroke-width:2" />
<line x1="327" y1="1" x2="327" y2="108" style="stroke:#ddd;stroke-width:2" />
<line x1="436" y1="1" x2="436" y2="108" style="stroke:#ddd;stroke-width:2" />
<line x1="545" y1="1" x2="545" y2="108" style="stroke:#ddd;stroke-width:2" />
<line x1="654" y1="1" x2="654" y2="108" style="stroke:#ddd;stroke-width:2" />
<line x1="763" y1="1" x2="763" y2="108" style="stroke:#ddd;stroke-width:2" />
<line x1="872" y1="1" x2="872" y2="108" style="stroke:#ddd;stroke-width:2" />
<line x1="981" y1="1" x2="981" y2="108" style="stroke:#ddd;stroke-width:2" />
<line x1="1090" y1="1" x2="1090" y2="108" style="stroke:#ddd;stroke-width:2" />
<line x1="1199" y1="1" x2="1199" y2="108" style="stroke:#ddd;stroke-width:2" />
<line x1="1308" y1="1" x2="1308" y2="108" style="stroke:#ddd;stroke-width:2" />
<line x1="1417" y1="1" x2="1417" y2="108" style="stroke:#ddd;stroke-width:2" />
<line x1="1526" y1="1" x2="1526" y2="108" style="stroke:#ddd;stroke-width:2" />
<line x1="1" y1="54" x2="1634" y2="54" style="stroke:#ddd;stroke-width:2;stroke-dasharray:3 3" />
<line x1="55" y1="1" x2="55" y2="108" style="stroke:#ddd;stroke-width:2;stroke-dasharray:3 3" />
<line x1="164" y1="1" x2="164" y2="108" style="stroke:#ddd;stroke-width:2;stroke-dasharray:3 3" />
<line x1="273" y1="1" x2="273" y2="108" style="stroke:#ddd;stroke-width:2;stroke-dasharray:3 3" />
<line x1="382" y1="1" x2="382" y2="108" style="stroke:#ddd;stroke-width:2;stroke-dasharray:3 3" />
<line x1="491" y1="1" x2="491" y2="108" style="stroke:#ddd;stroke-width:2;stroke-dasharray:3 3" />
<line x1="600" y1="1" x2="600" y2="108" style="stroke:#ddd;stroke-width:2;stroke-dasharray:3 3" />
<line x1="709" y1="1" x2="709" y2="108" style="stroke:#ddd;stroke-width:2;stroke-dasharray:3 3" />
<line x1="818" y1="1" x2="818" y2="108" style="stroke:#ddd;stroke-width:2;stroke-dasharray:3 3" />
<line x1="927" y1="1" x2="927" y2="108" style="stroke:#ddd;stroke-width:2;stroke-dasharray:3 3" />
<line x1="1036" y1="1" x2="1036" y2="108" style="stroke:#ddd;stroke-width:2;stroke-dasharray:3 3" />
<line x1="1145" y1="1" x2="1145" y2="108" style="stroke:#ddd;stroke-width:2;stroke-dasharray:3 3" />
<line x1="1254" y1="1" x2="1254" y2="108" style="stroke:#ddd;stroke-width:2;stroke-dasharray:3 3" />
<line x1="1363" y1="1" x2="1363" y2="108" style="stroke:#ddd;stroke-width:2;stroke-dasharray:3 3" />
<line x1="1472" y1="1" x2="1472" y2="108" style="stroke:#ddd;stroke-width:2;stroke-dasharray:3 3" />
<line x1="1581" y1="1" x2="1581" y2="108" style="stroke:#ddd;stroke-width:2;stroke-dasharray:3 3" />
<path d="M34.74,12.14c0.07,0.74,0.33,1.97-0.13,2.97c-3,6.52-11.63,19.29-23.86,28.89" style="fill:none;stroke:black;stroke-width:3" />
<circle cx="34.74" cy="12.14" r="5" stroke-width="0" fill="#FF2A00" opacity="0.7" />
<path d="M143.74,12.14c0.07,0.74,0.33,1.97-0.13,2.97c-3,6.52-11.63,19.29-23.86,28.89" style="fill:none;stroke:#999;stroke-width:3" />
<path d="M144.52,17.58c5.2,2.5,13.43,10.28,14.73,14.17" style="fill:none;stroke:black;stroke-width:3" />
<circle cx="144.52" cy="17.58" r="5" stroke-width="0" fill="#FF2A00" opacity="0.7" />
<path d="M252.74,12.14c0.07,0.74,0.33,1.97-0.13,2.97c-3,6.52-11.63,19.29-23.86,28.89" style="fill:none;stroke:#999;stroke-width:3" />
<path d="M253.52,17.58c5.2,2.5,13.43,10.28,14.73,14.17" style="fill:none;stroke:#999;stroke-width:3" />
<path d="M247.28,32.16c0.39,0.15,1.12,0.19,1.51,0.15c2.51-0.25,9.11-2.17,11.54-2c0.65,0.05,1.05,0.07,1.38,0.14" style="fill:none;stroke:black;stroke-width:3" />
<circle cx="247.28" cy="32.16" r="5" stroke-width="0" fill="#FF2A00" opacity="0.7" />
<path d="M361.74,12.14c0.07,0.74,0.33,1.97-0.13,2.97c-3,6.52-11.63,19.29-23.86,28.89" style="fill:none;stroke:#999;stroke-width:3" />
<path d="M362.52,17.58c5.2,2.5,13.43,10.28,14.73,14.17" style="fill:none;stroke:#999;stroke-width:3" />
<path d="M356.28,32.16c0.39,0.15,1.12,0.19,1.51,0.15c2.51-0.25,9.11-2.17,11.54-2c0.65,0.05,1.05,0.07,1.38,0.14" style="fill:none;stroke:#999;stroke-width:3" />
<path d="M349.77,41.44c0.4,0.78,0.81,1.66,0.81,2.7c0,1.04-0.13,54.33,0,55.37" style="fill:none;stroke:black;stroke-width:3" />
<circle cx="349.77" cy="41.44" r="5" stroke-width="0" fill="#FF2A00" opacity="0.7" />
<path d="M470.74,12.14c0.07,0.74,0.33,1.97-0.13,2.97c-3,6.52-11.63,19.29-23.86,28.89" style="fill:none;stroke:#999;stroke-width:3" />
<path d="M471.52,17.58c5.2,2.5,13.43,10.28,14.73,14.17" style="fill:none;stroke:#999;stroke-width:3" />
<path d="M465.28,32.16c0.39,0.15,1.12,0.19,1.51,0.15c2.51-0.25,9.11-2.17,11.54-2c0.65,0.05,1.05,0.07,1.38,0.14" style="fill:none;stroke:#999;stroke-width:3" />
<path d="M458.77,41.44c0.4,0.78,0.81,1.66,0.81,2.7c0,1.04-0.13,54.33,0,55.37" style="fill:none;stroke:#999;stroke-width:3" />
<path d="M459.72,43.05c2.27-0.13,18.45-2.15,20.52-2.31c1.72-0.13,2.83,1.44,2.7,2.2c-0.27,1.56-1.98,17.89-2.54,21.33" style="fill:none;stroke:black;stroke-width:3" />
<circle cx="459.72" cy="43.05" r="5" stroke-width="0" fill="#FF2A00" opacity="0.7" />
<path d="M579.74,12.14c0.07,0.74,0.33,1.97-0.13,2.97c-3,6.52-11.63,19.29-23.86,28.89" style="fill:none;stroke:#999;stroke-width:3" />
<path d="M580.52,17.58c5.2,2.5,13.43,10.28,14.73,14.17" style="fill:none;stroke:#999;stroke-width:3" />
<path d="M574.28,32.16c0.39,0.15,1.12,0.19,1.51,0.15c2.51-0.25,9.11-2.17,11.54-2c0.65,0.05,1.05,0.07,1.38,0.14" style="fill:none;stroke:#999;stroke-width:3" />
<path d="M567.77,41.44c0.4,0.78,0.81,1.66,0.81,2.7c0,1.04-0.13,54.33,0,55.37" style="fill:none;stroke:#999;stroke-width:3" />
<path d="M568.72,43.05c2.27-0.13,18.45-2.15,20.52-2.31c1.72-0.13,2.83,1.44,2.7,2.2c-0.27,1.56-1.98,17.89-2.54,21.33" style="fill:none;stroke:#999;stroke-width:3" />
<path d="M569.12,53.12c3.07,0,17.88-1.79,21.36-1.79" style="fill:none;stroke:black;stroke-width:3" />
<circle cx="569.12" cy="53.12" r="5" stroke-width="0" fill="#FF2A00" opacity="0.7" />
<path d="M688.74,12.14c0.07,0.74,0.33,1.97-0.13,2.97c-3,6.52-11.63,19.29-23.86,28.89" style="fill:none;stroke:#999;stroke-width:3" />
<path d="M689.52,17.58c5.2,2.5,13.43,10.28,14.73,14.17" style="fill:none;stroke:#999;stroke-width:3" />
<path d="M683.28,32.16c0.39,0.15,1.12,0.19,1.51,0.15c2.51-0.25,9.11-2.17,11.54-2c0.65,0.05,1.05,0.07,1.38,0.14" style="fill:none;stroke:#999;stroke-width:3" />
<path d="M676.77,41.44c0.4,0.78,0.81,1.66,0.81,2.7c0,1.04-0.13,54.33,0,55.37" style="fill:none;stroke:#999;stroke-width:3" />
<path d="M677.72,43.05c2.27-0.13,18.45-2.15,20.52-2.31c1.72-0.13,2.83,1.44,2.7,2.2c-0.27,1.56-1.98,17.89-2.54,21.33" style="fill:none;stroke:#999;stroke-width:3" />
<path d="M678.12,53.12c3.07,0,17.88-1.79,21.36-1.79" style="fill:none;stroke:#999;stroke-width:3" />
<path d="M677.98,64.36c6.26-0.56,12.71-1.54,20.51-2.02" style="fill:none;stroke:black;stroke-width:3" />
<circle cx="677.98" cy="64.36" r="5" stroke-width="0" fill="#FF2A00" opacity="0.7" />
<path d="M797.74,12.14c0.07,0.74,0.33,1.97-0.13,2.97c-3,6.52-11.63,19.29-23.86,28.89" style="fill:none;stroke:#999;stroke-width:3" />
<path d="M798.52,17.58c5.2,2.5,13.43,10.28,14.73,14.17" style="fill:none;stroke:#999;stroke-width:3" />
<path d="M792.28,32.16c0.39,0.15,1.12,0.19,1.51,0.15c2.51-0.25,9.11-2.17,11.54-2c0.65,0.05,1.05,0.07,1.38,0.14" style="fill:none;stroke:#999;stroke-width:3" />
<path d="M785.77,41.44c0.4,0.78,0.81,1.66,0.81,2.7c0,1.04-0.13,54.33,0,55.37" style="fill:none;stroke:#999;stroke-width:3" />
<path d="M786.72,43.05c2.27-0.13,18.45-2.15,20.52-2.31c1.72-0.13,2.83,1.44,2.7,2.2c-0.27,1.56-1.98,17.89-2.54,21.33" style="fill:none;stroke:#999;stroke-width:3" />
<path d="M787.12,53.12c3.07,0,17.88-1.79,21.36-1.79" style="fill:none;stroke:#999;stroke-width:3" />
<path d="M786.98,64.36c6.26-0.56,12.71-1.54,20.51-2.02" style="fill:none;stroke:#999;stroke-width:3" />
<path d="M786.92,76.75c3.85-0.25,16.49-2.64,20.22-2.47c1,0.04,1.61,0.07,2.11,0.14" style="fill:none;stroke:black;stroke-width:3" />
<circle cx="786.92" cy="76.75" r="5" stroke-width="0" fill="#FF2A00" opacity="0.7" />
<path d="M906.74,12.14c0.07,0.74,0.33,1.97-0.13,2.97c-3,6.52-11.63,19.29-23.86,28.89" style="fill:none;stroke:#999;stroke-width:3" />
<path d="M907.52,17.58c5.2,2.5,13.43,10.28,14.73,14.17" style="fill:none;stroke:#999;stroke-width:3" />
<path d="M901.28,32.16c0.39,0.15,1.12,0.19,1.51,0.15c2.51-0.25,9.11-2.17,11.54-2c0.65,0.05,1.05,0.07,1.38,0.14" style="fill:none;stroke:#999;stroke-width:3" />
<path d="M894.77,41.44c0.4,0.78,0.81,1.66,0.81,2.7c0,1.04-0.13,54.33,0,55.37" style="fill:none;stroke:#999;stroke-width:3" />
<path d="M895.72,43.05c2.27-0.13,18.45-2.15,20.52-2.31c1.72-0.13,2.83,1.44,2.7,2.2c-0.27,1.56-1.98,17.89-2.54,21.33" style="fill:none;stroke:#999;stroke-width:3" />
<path d="M896.12,53.12c3.07,0,17.88-1.79,21.36-1.79" style="fill:none;stroke:#999;stroke-width:3" />
<path d="M895.98,64.36c6.26-0.56,12.71-1.54,20.51-2.02" style="fill:none;stroke:#999;stroke-width:3" />
<path d="M895.92,76.75c3.85-0.25,16.49-2.64,20.22-2.47c1,0.04,1.61,0.07,2.11,0.14" style="fill:none;stroke:#999;stroke-width:3" />
<path d="M896.44,89.88c3.85-0.25,17-2.15,20.73-1.98c1,0.04,1.61,0.07,2.11,0.14" style="fill:none;stroke:black;stroke-width:3" />
<circle cx="896.44" cy="89.88" r="5" stroke-width="0" fill="#FF2A00" opacity="0.7" />
<path d="M1015.74,12.14c0.07,0.74,0.33,1.97-0.13,2.97c-3,6.52-11.63,19.29-23.86,28.89" style="fill:none;stroke:#999;stroke-width:3" />
<path d="M1016.52,17.58c5.2,2.5,13.43,10.28,14.73,14.17" style="fill:none;stroke:#999;stroke-width:3" />
<path d="M1010.28,32.16c0.39,0.15,1.12,0.19,1.51,0.15c2.51-0.25,9.11-2.17,11.54-2c0.65,0.05,1.05,0.07,1.38,0.14" style="fill:none;stroke:#999;stroke-width:3" />
<path d="M1003.77,41.44c0.4,0.78,0.81,1.66,0.81,2.7c0,1.04-0.13,54.33,0,55.37" style="fill:none;stroke:#999;stroke-width:3" />
<path d="M1004.72,43.05c2.27-0.13,18.45-2.15,20.52-2.31c1.72-0.13,2.83,1.44,2.7,2.2c-0.27,1.56-1.98,17.89-2.54,21.33" style="fill:none;stroke:#999;stroke-width:3" />
<path d="M1005.12,53.12c3.07,0,17.88-1.79,21.36-1.79" style="fill:none;stroke:#999;stroke-width:3" />
<path d="M1004.98,64.36c6.26-0.56,12.71-1.54,20.51-2.02" style="fill:none;stroke:#999;stroke-width:3" />
<path d="M1004.92,76.75c3.85-0.25,16.49-2.64,20.22-2.47c1,0.04,1.61,0.07,2.11,0.14" style="fill:none;stroke:#999;stroke-width:3" />
<path d="M1005.44,89.88c3.85-0.25,17-2.15,20.73-1.98c1,0.04,1.61,0.07,2.11,0.14" style="fill:none;stroke:#999;stroke-width:3" />
<path d="M1033.6,25.92c0.91,0.46,2.58,0.53,3.5,0.46c10.06-0.69,18.28-3,36.64-4.38c1.52-0.11,2.44,0.22,3.2,0.45" style="fill:none;stroke:black;stroke-width:3" />
<circle cx="1033.6" cy="25.92" r="5" stroke-width="0" fill="#FF2A00" opacity="0.7" />
<path d="M1124.74,12.14c0.07,0.74,0.33,1.97-0.13,2.97c-3,6.52-11.63,19.29-23.86,28.89" style="fill:none;stroke:#999;stroke-width:3" />
<path d="M1125.52,17.58c5.2,2.5,13.43,10.28,14.73,14.17" style="fill:none;stroke:#999;stroke-width:3" />
<path d="M1119.28,32.16c0.39,0.15,1.12,0.19,1.51,0.15c2.51-0.25,9.11-2.17,11.54-2c0.65,0.05,1.05,0.07,1.38,0.14" style="fill:none;stroke:#999;stroke-width:3" />
<path d="M1112.77,41.44c0.4,0.78,0.81,1.66,0.81,2.7c0,1.04-0.13,54.33,0,55.37" style="fill:none;stroke:#999;stroke-width:3" />
<path d="M1113.72,43.05c2.27-0.13,18.45-2.15,20.52-2.31c1.72-0.13,2.83,1.44,2.7,2.2c-0.27,1.56-1.98,17.89-2.54,21.33" style="fill:none;stroke:#999;stroke-width:3" />
<path d="M1114.12,53.12c3.07,0,17.88-1.79,21.36-1.79" style="fill:none;stroke:#999;stroke-width:3" />
<path d="M1113.98,64.36c6.26-0.56,12.71-1.54,20.51-2.02" style="fill:none;stroke:#999;stroke-width:3" />
<path d="M1113.92,76.75c3.85-0.25,16.49-2.64,20.22-2.47c1,0.04,1.61,0.07,2.11,0.14" style="fill:none;stroke:#999;stroke-width:3" />
<path d="M1114.44,89.88c3.85-0.25,17-2.15,20.73-1.98c1,0.04,1.61,0.07,2.11,0.14" style="fill:none;stroke:#999;stroke-width:3" />
<path d="M1142.6,25.92c0.91,0.46,2.58,0.53,3.5,0.46c10.06-0.69,18.28-3,36.64-4.38c1.52-0.11,2.44,0.22,3.2,0.45" style="fill:none;stroke:#999;stroke-width:3" />
<path d="M1150.1,28.93c0.79,0.52,1.22,1.89,1.22,3.29s-0.24,41.94-0.24,47" style="fill:none;stroke:black;stroke-width:3" />
<circle cx="1150.1" cy="28.93" r="5" stroke-width="0" fill="#FF2A00" opacity="0.7" />
<path d="M1233.74,12.14c0.07,0.74,0.33,1.97-0.13,2.97c-3,6.52-11.63,19.29-23.86,28.89" style="fill:none;stroke:#999;stroke-width:3" />
<path d="M1234.52,17.58c5.2,2.5,13.43,10.28,14.73,14.17" style="fill:none;stroke:#999;stroke-width:3" />
<path d="M1228.28,32.16c0.39,0.15,1.12,0.19,1.51,0.15c2.51-0.25,9.11-2.17,11.54-2c0.65,0.05,1.05,0.07,1.38,0.14" style="fill:none;stroke:#999;stroke-width:3" />
<path d="M1221.77,41.44c0.4,0.78,0.81,1.66,0.81,2.7c0,1.04-0.13,54.33,0,55.37" style="fill:none;stroke:#999;stroke-width:3" />
<path d="M1222.72,43.05c2.27-0.13,18.45-2.15,20.52-2.31c1.72-0.13,2.83,1.44,2.7,2.2c-0.27,1.56-1.98,17.89-2.54,21.33" style="fill:none;stroke:#999;stroke-width:3" />
<path d="M1223.12,53.12c3.07,0,17.88-1.79,21.36-1.79" style="fill:none;stroke:#999;stroke-width:3" />
<path d="M1222.98,64.36c6.26-0.56,12.71-1.54,20.51-2.02" style="fill:none;stroke:#999;stroke-width:3" />
<path d="M1222.92,76.75c3.85-0.25,16.49-2.64,20.22-2.47c1,0.04,1.61,0.07,2.11,0.14" style="fill:none;stroke:#999;stroke-width:3" />
<path d="M1223.44,89.88c3.85-0.25,17-2.15,20.73-1.98c1,0.04,1.61,0.07,2.11,0.14" style="fill:none;stroke:#999;stroke-width:3" />
<path d="M1251.6,25.92c0.91,0.46,2.58,0.53,3.5,0.46c10.06-0.69,18.28-3,36.64-4.38c1.52-0.11,2.44,0.22,3.2,0.45" style="fill:none;stroke:#999;stroke-width:3" />
<path d="M1259.1,28.93c0.79,0.52,1.22,1.89,1.22,3.29s-0.24,41.94-0.24,47" style="fill:none;stroke:#999;stroke-width:3" />
<path d="M1260.65,43.82c4.97-0.69,14.9-1.77,22.22-2.23" style="fill:none;stroke:black;stroke-width:3" />
<circle cx="1260.65" cy="43.82" r="5" stroke-width="0" fill="#FF2A00" opacity="0.7" />
<path d="M1342.74,12.14c0.07,0.74,0.33,1.97-0.13,2.97c-3,6.52-11.63,19.29-23.86,28.89" style="fill:none;stroke:#999;stroke-width:3" />
<path d="M1343.52,17.58c5.2,2.5,13.43,10.28,14.73,14.17" style="fill:none;stroke:#999;stroke-width:3" />
<path d="M1337.28,32.16c0.39,0.15,1.12,0.19,1.51,0.15c2.51-0.25,9.11-2.17,11.54-2c0.65,0.05,1.05,0.07,1.38,0.14" style="fill:none;stroke:#999;stroke-width:3" />
<path d="M1330.77,41.44c0.4,0.78,0.81,1.66,0.81,2.7c0,1.04-0.13,54.33,0,55.37" style="fill:none;stroke:#999;stroke-width:3" />
<path d="M1331.72,43.05c2.27-0.13,18.45-2.15,20.52-2.31c1.72-0.13,2.83,1.44,2.7,2.2c-0.27,1.56-1.98,17.89-2.54,21.33" style="fill:none;stroke:#999;stroke-width:3" />
<path d="M1332.12,53.12c3.07,0,17.88-1.79,21.36-1.79" style="fill:none;stroke:#999;stroke-width:3" />
<path d="M1331.98,64.36c6.26-0.56,12.71-1.54,20.51-2.02" style="fill:none;stroke:#999;stroke-width:3" />
<path d="M1331.92,76.75c3.85-0.25,16.49-2.64,20.22-2.47c1,0.04,1.61,0.07,2.11,0.14" style="fill:none;stroke:#999;stroke-width:3" />
<path d="M1332.44,89.88c3.85-0.25,17-2.15,20.73-1.98c1,0.04,1.61,0.07,2.11,0.14" style="fill:none;stroke:#999;stroke-width:3" />
<path d="M1360.6,25.92c0.91,0.46,2.58,0.53,3.5,0.46c10.06-0.69,18.28-3,36.64-4.38c1.52-0.11,2.44,0.22,3.2,0.45" style="fill:none;stroke:#999;stroke-width:3" />
<path d="M1368.1,28.93c0.79,0.52,1.22,1.89,1.22,3.29s-0.24,41.94-0.24,47" style="fill:none;stroke:#999;stroke-width:3" />
<path d="M1369.65,43.82c4.97-0.69,14.9-1.77,22.22-2.23" style="fill:none;stroke:#999;stroke-width:3" />
<path d="M1369.27,61.9c6.04-0.92,14.58-2.54,22.5-3" style="fill:none;stroke:black;stroke-width:3" />
<circle cx="1369.27" cy="61.9" r="5" stroke-width="0" fill="#FF2A00" opacity="0.7" />
<path d="M1451.74,12.14c0.07,0.74,0.33,1.97-0.13,2.97c-3,6.52-11.63,19.29-23.86,28.89" style="fill:none;stroke:#999;stroke-width:3" />
<path d="M1452.52,17.58c5.2,2.5,13.43,10.28,14.73,14.17" style="fill:none;stroke:#999;stroke-width:3" />
<path d="M1446.28,32.16c0.39,0.15,1.12,0.19,1.51,0.15c2.51-0.25,9.11-2.17,11.54-2c0.65,0.05,1.05,0.07,1.38,0.14" style="fill:none;stroke:#999;stroke-width:3" />
<path d="M1439.77,41.44c0.4,0.78,0.81,1.66,0.81,2.7c0,1.04-0.13,54.33,0,55.37" style="fill:none;stroke:#999;stroke-width:3" />
<path d="M1440.72,43.05c2.27-0.13,18.45-2.15,20.52-2.31c1.72-0.13,2.83,1.44,2.7,2.2c-0.27,1.56-1.98,17.89-2.54,21.33" style="fill:none;stroke:#999;stroke-width:3" />
<path d="M1441.12,53.12c3.07,0,17.88-1.79,21.36-1.79" style="fill:none;stroke:#999;stroke-width:3" />
<path d="M1440.98,64.36c6.26-0.56,12.71-1.54,20.51-2.02" style="fill:none;stroke:#999;stroke-width:3" />
<path d="M1440.92,76.75c3.85-0.25,16.49-2.64,20.22-2.47c1,0.04,1.61,0.07,2.11,0.14" style="fill:none;stroke:#999;stroke-width:3" />
<path d="M1441.44,89.88c3.85-0.25,17-2.15,20.73-1.98c1,0.04,1.61,0.07,2.11,0.14" style="fill:none;stroke:#999;stroke-width:3" />
<path d="M1469.6,25.92c0.91,0.46,2.58,0.53,3.5,0.46c10.06-0.69,18.28-3,36.64-4.38c1.52-0.11,2.44,0.22,3.2,0.45" style="fill:none;stroke:#999;stroke-width:3" />
<path d="M1477.1,28.93c0.79,0.52,1.22,1.89,1.22,3.29s-0.24,41.94-0.24,47" style="fill:none;stroke:#999;stroke-width:3" />
<path d="M1478.65,43.82c4.97-0.69,14.9-1.77,22.22-2.23" style="fill:none;stroke:#999;stroke-width:3" />
<path d="M1478.27,61.9c6.04-0.92,14.58-2.54,22.5-3" style="fill:none;stroke:#999;stroke-width:3" />
<path d="M1469.31,79.68c0.44,1.07,2.44,1.57,4.36,1.08c4.66-1.21,29.96-7.82,37.13-9.73" style="fill:none;stroke:black;stroke-width:3" />
<circle cx="1469.31" cy="79.68" r="5" stroke-width="0" fill="#FF2A00" opacity="0.7" />
<path d="M1560.74,12.14c0.07,0.74,0.33,1.97-0.13,2.97c-3,6.52-11.63,19.29-23.86,28.89" style="fill:none;stroke:#999;stroke-width:3" />
<path d="M1561.52,17.58c5.2,2.5,13.43,10.28,14.73,14.17" style="fill:none;stroke:#999;stroke-width:3" />
<path d="M1555.28,32.16c0.39,0.15,1.12,0.19,1.51,0.15c2.51-0.25,9.11-2.17,11.54-2c0.65,0.05,1.05,0.07,1.38,0.14" style="fill:none;stroke:#999;stroke-width:3" />
<path d="M1548.77,41.44c0.4,0.78,0.81,1.66,0.81,2.7c0,1.04-0.13,54.33,0,55.37" style="fill:none;stroke:#999;stroke-width:3" />
<path d="M1549.72,43.05c2.27-0.13,18.45-2.15,20.52-2.31c1.72-0.13,2.83,1.44,2.7,2.2c-0.27,1.56-1.98,17.89-2.54,21.33" style="fill:none;stroke:#999;stroke-width:3" />
<path d="M1550.12,53.12c3.07,0,17.88-1.79,21.36-1.79" style="fill:none;stroke:#999;stroke-width:3" />
<path d="M1549.98,64.36c6.26-0.56,12.71-1.54,20.51-2.02" style="fill:none;stroke:#999;stroke-width:3" />
<path d="M1549.92,76.75c3.85-0.25,16.49-2.64,20.22-2.47c1,0.04,1.61,0.07,2.11,0.14" style="fill:none;stroke:#999;stroke-width:3" />
<path d="M1550.44,89.88c3.85-0.25,17-2.15,20.73-1.98c1,0.04,1.61,0.07,2.11,0.14" style="fill:none;stroke:#999;stroke-width:3" />
<path d="M1578.6,25.92c0.91,0.46,2.58,0.53,3.5,0.46c10.06-0.69,18.28-3,36.64-4.38c1.52-0.11,2.44,0.22,3.2,0.45" style="fill:none;stroke:#999;stroke-width:3" />
<path d="M1586.1,28.93c0.79,0.52,1.22,1.89,1.22,3.29s-0.24,41.94-0.24,47" style="fill:none;stroke:#999;stroke-width:3" />
<path d="M1587.65,43.82c4.97-0.69,14.9-1.77,22.22-2.23" style="fill:none;stroke:#999;stroke-width:3" />
<path d="M1587.27,61.9c6.04-0.92,14.58-2.54,22.5-3" style="fill:none;stroke:#999;stroke-width:3" />
<path d="M1578.31,79.68c0.44,1.07,2.44,1.57,4.36,1.08c4.66-1.21,29.96-7.82,37.13-9.73" style="fill:none;stroke:#999;stroke-width:3" />
<path d="M1609.03,25.69c0.37,0.85,0.93,1.92,0.93,2.98c0,1.06,0.19,63.1,0.19,71.83" style="fill:none;stroke:black;stroke-width:3" />
<circle cx="1609.03" cy="25.69" r="5" stroke-width="0" fill="#FF2A00" opacity="0.7" />
</svg>