<!-- 09913 -->
<svg width="1635px" height="109px" viewBox="0 0 1635px 109px" xmlns="http://www.w3.org/2000/svg" xmlns:xlink="http://www.w3.org/1999/xlink" xml:space="preserve" version="1.1"  baseProfile="full">
<line x1="1" y1="1" x2="1634" y2="1" style="stroke:#ddd;stroke-width:2" />
<line x1="1" y1="1" x2="1" y2="108" style="stroke:#ddd;stroke-width:2" />
<line x1="1" y1="108" x2="1634" y2="108" style="stroke:#ddd;stroke-width:2" />
<line x1="1634" y1="1" x2="1634" y2="108" style="stroke:#ddd;stroke-width:2" />
<line x1="109" y1="1" x2="109" y2="108" style="stroke:#ddd;stroke-width:2" />
<line x1="218" y1="1" x2="218" y2="108" style="stroke:#ddd;stroke-width:2" />
<line x1="327" y1="1" x2="327" y2="108" style="stroke:#ddd;stroke-width:2" />
<line x1="436" y1="1" x2="436" y2="108" style="stroke:#ddd;stroke-width:2" />
<line x1="545" y1="1" x2="545" y2="108" style="stroke:#ddd;stroke-width:2" />
<line x1="654" y1="1" x2="654" y2="108" style="stroke:#ddd;stroke-width:2" />
<line x1="763" y1="1" x2="763" y2="108" style="stroke:#ddd;stroke-width:2" />
<line x1="872" y1="1" x2="872" y2="108" style="stroke:#ddd;stroke-width:2" />
<line x1="981" y1="1" x2="981" y2="108" style="stroke:#ddd;stroke-width:2" />
<line x1="1090" y1="1" x2="1090" y2="108" style="stroke:#ddd;stroke-width:2" />
<line x1="1199" y1="1" x2="1199" y2="108" style="stroke:#ddd;stroke-width:2" />
<line x1="1308" y1="1" x2="1308" y2="108" style="stroke:#ddd;stroke-width:2" />
<line x1="1417" y1="1" x2="1417" y2="108" style="stroke:#ddd;stroke-width:2" />
<line x1="1526" y1="1" x2="1526" y2="108" style="stroke:#ddd;stroke-width:2" />
<line x1="1" y1="54" x2="1634" y2="54" style="stroke:#ddd;stroke-width:2;stroke-dasharray:3 3" />
<line x1="55" y1="1" x2="55" y2="108" style="stroke:#ddd;stroke-width:2;stroke-dasharray:3 3" />
<line x1="164" y1="1" x2="164" y2="108" style="stroke:#ddd;stroke-width:2;stroke-dasharray:3 3" />
<line x1="273" y1="1" x2="273" y2="108" style="stroke:#ddd;stroke-width:2;stroke-dasharray:3 3" />
<line x1="382" y1="1" x2="382" y2="108" style="stroke:#ddd;stroke-width:2;stroke-dasharray:3 3" />
<line x1="491" y1="1" x2="491" y2="108" style="stroke:#ddd;stroke-width:2;stroke-dasharray:3 3" />
<line x1="600" y1="1" x2="600" y2="108" style="stroke:#ddd;stroke-width:2;stroke-dasharray:3 3" />
<line x1="709" y1="1" x2="709" y2="108" style="stroke:#ddd;stroke-width:2;stroke-dasharray:3 3" />
<line x1="818" y1="1" x2="818" y2="108" style="stroke:#ddd;stroke-width:2;stroke-dasharray:3 3" />
<line x1="927" y1="1" x2="927" y2="108" style="stroke:#ddd;stroke-width:2;stroke-dasharray:3 3" />
<line x1="1036" y1="1" x2="1036" y2="108" style="stroke:#ddd;stroke-width:2;stroke-dasharray:3 3" />
<line x1="1145" y1="1" x2="1145" y2="108" style="stroke:#ddd;stroke-width:2;stroke-dasharray:3 3" />
<line x1="1254" y1="1" x2="1254" y2="108" style="stroke:#ddd;stroke-width:2;stroke-dasharray:3 3" />
<line x1="1363" y1="1" x2="1363" y2="108" style="stroke:#ddd;stroke-width:2;stroke-dasharray:3 3" />
<line x1="1472" y1="1" x2="1472" y2="108" style="stroke:#ddd;stroke-width:2;stroke-dasharray:3 3" />
<line x1="1581" y1="1" x2="1581" y2="108" style="stroke:#ddd;stroke-width:2;stroke-dasharray:3 3" />
<path d="M31.04,12.5c0.34,1.12,0.23,1.95-0.12,2.93C28.04,23.57 19.23,35.99 10.25,43" style="fill:none;stroke:black;stroke-width:3" />
<circle cx="31.04" cy="12.5" r="5" stroke-width="0" fill="#FF2A00" opacity="0.7" />
<path d="M140.04,12.5c0.34,1.12,0.23,1.95-0.12,2.93C137.04,23.57 128.23,35.99 119.25,43" style="fill:none;stroke:#999;stroke-width:3" />
<path d="M141.62,17.5c4.43,2.25,9.62,6.5,12.12,11.25" style="fill:none;stroke:black;stroke-width:3" />
<circle cx="141.62" cy="17.5" r="5" stroke-width="0" fill="#FF2A00" opacity="0.7" />
<path d="M249.04,12.5c0.34,1.12,0.23,1.95-0.12,2.93C246.04,23.57 237.23,35.99 228.25,43" style="fill:none;stroke:#999;stroke-width:3" />
<path d="M250.62,17.5c4.43,2.25,9.62,6.5,12.12,11.25" style="fill:none;stroke:#999;stroke-width:3" />
<path d="M248.79,30.26c0.85,0.85,1.28,1.86,1.28,3.07c0,0.93-0.07,4.87-0.07,7.17" style="fill:none;stroke:black;stroke-width:3" />
<circle cx="248.79" cy="30.26" r="5" stroke-width="0" fill="#FF2A00" opacity="0.7" />
<path d="M358.03999999999996,12.5c0.34,1.12,0.23,1.95-0.12,2.93C355.03999999999996,23.57 346.23,35.99 337.25,43" style="fill:none;stroke:#999;stroke-width:3" />
<path d="M359.62,17.5c4.43,2.25,9.62,6.5,12.12,11.25" style="fill:none;stroke:#999;stroke-width:3" />
<path d="M357.78999999999996,30.26c0.85,0.85,1.28,1.86,1.28,3.07c0,0.93-0.07,4.87-0.07,7.17" style="fill:none;stroke:#999;stroke-width:3" />
<path d="M346.2,42.76c0.8,0.49,2.11,0.77,3.8,0.46c5.15-0.94,15.44-2.77,16.46-2.91c2.29-0.32,2.98,1.17,2.77,2.63c-0.81,5.62-1.63,12.56-2.44,18.31c-0.17,1.21-0.34,2.37-0.51,3.45" style="fill:none;stroke:black;stroke-width:3" />
<circle cx="346.2" cy="42.76" r="5" stroke-width="0" fill="#FF2A00" opacity="0.7" />
<path d="M467.03999999999996,12.5c0.34,1.12,0.23,1.95-0.12,2.93C464.03999999999996,23.57 455.23,35.99 446.25,43" style="fill:none;stroke:#999;stroke-width:3" />
<path d="M468.62,17.5c4.43,2.25,9.62,6.5,12.12,11.25" style="fill:none;stroke:#999;stroke-width:3" />
<path d="M466.78999999999996,30.26c0.85,0.85,1.28,1.86,1.28,3.07c0,0.93-0.07,4.87-0.07,7.17" style="fill:none;stroke:#999;stroke-width:3" />
<path d="M455.2,42.76c0.8,0.49,2.11,0.77,3.8,0.46c5.15-0.94,15.44-2.77,16.46-2.91c2.29-0.32,2.98,1.17,2.77,2.63c-0.81,5.62-1.63,12.56-2.44,18.31c-0.17,1.21-0.34,2.37-0.51,3.45" style="fill:none;stroke:#999;stroke-width:3" />
<path d="M457.46,54.53c4.92-0.66,12.92-2.41,18.53-2.91" style="fill:none;stroke:black;stroke-width:3" />
<circle cx="457.46" cy="54.53" r="5" stroke-width="0" fill="#FF2A00" opacity="0.7" />
<path d="M576.04,12.5c0.34,1.12,0.23,1.95-0.12,2.93C573.04,23.57 564.23,35.99 555.25,43" style="fill:none;stroke:#999;stroke-width:3" />
<path d="M577.62,17.5c4.43,2.25,9.62,6.5,12.12,11.25" style="fill:none;stroke:#999;stroke-width:3" />
<path d="M575.79,30.26c0.85,0.85,1.28,1.86,1.28,3.07c0,0.93-0.07,4.87-0.07,7.17" style="fill:none;stroke:#999;stroke-width:3" />
<path d="M564.2,42.76c0.8,0.49,2.11,0.77,3.8,0.46c5.15-0.94,15.44-2.77,16.46-2.91c2.29-0.32,2.98,1.17,2.77,2.63c-0.81,5.62-1.63,12.56-2.44,18.31c-0.17,1.21-0.34,2.37-0.51,3.45" style="fill:none;stroke:#999;stroke-width:3" />
<path d="M566.46,54.53c4.92-0.66,12.92-2.41,18.53-2.91" style="fill:none;stroke:#999;stroke-width:3" />
<path d="M566.37,65.85c5.76-1.23,11.13-2.23,17.21-2.97" style="fill:none;stroke:black;stroke-width:3" />
<circle cx="566.37" cy="65.85" r="5" stroke-width="0" fill="#FF2A00" opacity="0.7" />
<path d="M685.04,12.5c0.34,1.12,0.23,1.95-0.12,2.93C682.04,23.57 673.23,35.99 664.25,43" style="fill:none;stroke:#999;stroke-width:3" />
<path d="M686.62,17.5c4.43,2.25,9.62,6.5,12.12,11.25" style="fill:none;stroke:#999;stroke-width:3" />
<path d="M684.79,30.26c0.85,0.85,1.28,1.86,1.28,3.07c0,0.93-0.07,4.87-0.07,7.17" style="fill:none;stroke:#999;stroke-width:3" />
<path d="M673.2,42.76c0.8,0.49,2.11,0.77,3.8,0.46c5.15-0.94,15.44-2.77,16.46-2.91c2.29-0.32,2.98,1.17,2.77,2.63c-0.81,5.62-1.63,12.56-2.44,18.31c-0.17,1.21-0.34,2.37-0.51,3.45" style="fill:none;stroke:#999;stroke-width:3" />
<path d="M675.46,54.53c4.92-0.66,12.92-2.41,18.53-2.91" style="fill:none;stroke:#999;stroke-width:3" />
<path d="M675.37,65.85c5.76-1.23,11.13-2.23,17.21-2.97" style="fill:none;stroke:#999;stroke-width:3" />
<path d="M673.37,43.01c0.69,0.69,1.03,1.61,1.03,2.99c0,0.93-0.02,40.16-0.02,44.5c0,2.08,1.29,2.54,3.38,1c2.88-2.12,10-8,15-11.25" style="fill:none;stroke:black;stroke-width:3" />
<circle cx="673.37" cy="43.01" r="5" stroke-width="0" fill="#FF2A00" opacity="0.7" />
<path d="M794.04,12.5c0.34,1.12,0.23,1.95-0.12,2.93C791.04,23.57 782.23,35.99 773.25,43" style="fill:none;stroke:#999;stroke-width:3" />
<path d="M795.62,17.5c4.43,2.25,9.62,6.5,12.12,11.25" style="fill:none;stroke:#999;stroke-width:3" />
<path d="M793.79,30.26c0.85,0.85,1.28,1.86,1.28,3.07c0,0.93-0.07,4.87-0.07,7.17" style="fill:none;stroke:#999;stroke-width:3" />
<path d="M782.2,42.76c0.8,0.49,2.11,0.77,3.8,0.46c5.15-0.94,15.44-2.77,16.46-2.91c2.29-0.32,2.98,1.17,2.77,2.63c-0.81,5.62-1.63,12.56-2.44,18.31c-0.17,1.21-0.34,2.37-0.51,3.45" style="fill:none;stroke:#999;stroke-width:3" />
<path d="M784.46,54.53c4.92-0.66,12.92-2.41,18.53-2.91" style="fill:none;stroke:#999;stroke-width:3" />
<path d="M784.37,65.85c5.76-1.23,11.13-2.23,17.21-2.97" style="fill:none;stroke:#999;stroke-width:3" />
<path d="M782.37,43.01c0.69,0.69,1.03,1.61,1.03,2.99c0,0.93-0.02,40.16-0.02,44.5c0,2.08,1.29,2.54,3.38,1c2.88-2.12,10-8,15-11.25" style="fill:none;stroke:#999;stroke-width:3" />
<path d="M798.75,71.75c2.07,2.73,5.32,9.99,6.5,15.75" style="fill:none;stroke:black;stroke-width:3" />
<circle cx="798.75" cy="71.75" r="5" stroke-width="0" fill="#FF2A00" opacity="0.7" />
<path d="M903.04,12.5c0.34,1.12,0.23,1.95-0.12,2.93C900.04,23.57 891.23,35.99 882.25,43" style="fill:none;stroke:#999;stroke-width:3" />
<path d="M904.62,17.5c4.43,2.25,9.62,6.5,12.12,11.25" style="fill:none;stroke:#999;stroke-width:3" />
<path d="M902.79,30.26c0.85,0.85,1.28,1.86,1.28,3.07c0,0.93-0.07,4.87-0.07,7.17" style="fill:none;stroke:#999;stroke-width:3" />
<path d="M891.2,42.76c0.8,0.49,2.11,0.77,3.8,0.46c5.15-0.94,15.44-2.77,16.46-2.91c2.29-0.32,2.98,1.17,2.77,2.63c-0.81,5.62-1.63,12.56-2.44,18.31c-0.17,1.21-0.34,2.37-0.51,3.45" style="fill:none;stroke:#999;stroke-width:3" />
<path d="M893.46,54.53c4.92-0.66,12.92-2.41,18.53-2.91" style="fill:none;stroke:#999;stroke-width:3" />
<path d="M893.37,65.85c5.76-1.23,11.13-2.23,17.21-2.97" style="fill:none;stroke:#999;stroke-width:3" />
<path d="M891.37,43.01c0.69,0.69,1.03,1.61,1.03,2.99c0,0.93-0.02,40.16-0.02,44.5c0,2.08,1.29,2.54,3.38,1c2.88-2.12,10-8,15-11.25" style="fill:none;stroke:#999;stroke-width:3" />
<path d="M907.75,71.75c2.07,2.73,5.32,9.99,6.5,15.75" style="fill:none;stroke:#999;stroke-width:3" />
<path d="M936.38,18.89c0.12,0.95-0.2,1.74-0.84,2.47C932.38,25 929.0,27.38 920.5,33" style="fill:none;stroke:black;stroke-width:3" />
<circle cx="936.38" cy="18.89" r="5" stroke-width="0" fill="#FF2A00" opacity="0.7" />
<path d="M1012.04,12.5c0.34,1.12,0.23,1.95-0.12,2.93C1009.04,23.57 1000.23,35.99 991.25,43" style="fill:none;stroke:#999;stroke-width:3" />
<path d="M1013.62,17.5c4.43,2.25,9.62,6.5,12.12,11.25" style="fill:none;stroke:#999;stroke-width:3" />
<path d="M1011.79,30.26c0.85,0.85,1.28,1.86,1.28,3.07c0,0.93-0.07,4.87-0.07,7.17" style="fill:none;stroke:#999;stroke-width:3" />
<path d="M1000.2,42.76c0.8,0.49,2.11,0.77,3.8,0.46c5.15-0.94,15.44-2.77,16.46-2.91c2.29-0.32,2.98,1.17,2.77,2.63c-0.81,5.62-1.63,12.56-2.44,18.31c-0.17,1.21-0.34,2.37-0.51,3.45" style="fill:none;stroke:#999;stroke-width:3" />
<path d="M1002.46,54.53c4.92-0.66,12.92-2.41,18.53-2.91" style="fill:none;stroke:#999;stroke-width:3" />
<path d="M1002.37,65.85c5.76-1.23,11.13-2.23,17.21-2.97" style="fill:none;stroke:#999;stroke-width:3" />
<path d="M1000.37,43.01c0.69,0.69,1.03,1.61,1.03,2.99c0,0.93-0.02,40.16-0.02,44.5c0,2.08,1.29,2.54,3.38,1c2.88-2.12,10-8,15-11.25" style="fill:none;stroke:#999;stroke-width:3" />
<path d="M1016.75,71.75c2.07,2.73,5.32,9.99,6.5,15.75" style="fill:none;stroke:#999;stroke-width:3" />
<path d="M1045.38,18.89c0.12,0.95-0.2,1.74-0.84,2.47C1041.38,25 1038.0,27.38 1029.5,33" style="fill:none;stroke:#999;stroke-width:3" />
<path d="M1029.36,44.14c2.51,0.48,5.41,0.54,7.5,0.14c10.02-1.91,24.19-4.5,33.03-5.39c2-0.2,3.89-0.36,5.86,0.15" style="fill:none;stroke:black;stroke-width:3" />
<circle cx="1029.36" cy="44.14" r="5" stroke-width="0" fill="#FF2A00" opacity="0.7" />
<path d="M1121.04,12.5c0.34,1.12,0.23,1.95-0.12,2.93C1118.04,23.57 1109.23,35.99 1100.25,43" style="fill:none;stroke:#999;stroke-width:3" />
<path d="M1122.62,17.5c4.43,2.25,9.62,6.5,12.12,11.25" style="fill:none;stroke:#999;stroke-width:3" />
<path d="M1120.79,30.26c0.85,0.85,1.28,1.86,1.28,3.07c0,0.93-0.07,4.87-0.07,7.17" style="fill:none;stroke:#999;stroke-width:3" />
<path d="M1109.2,42.76c0.8,0.49,2.11,0.77,3.8,0.46c5.15-0.94,15.44-2.77,16.46-2.91c2.29-0.32,2.98,1.17,2.77,2.63c-0.81,5.62-1.63,12.56-2.44,18.31c-0.17,1.21-0.34,2.37-0.51,3.45" style="fill:none;stroke:#999;stroke-width:3" />
<path d="M1111.46,54.53c4.92-0.66,12.92-2.41,18.53-2.91" style="fill:none;stroke:#999;stroke-width:3" />
<path d="M1111.37,65.85c5.76-1.23,11.13-2.23,17.21-2.97" style="fill:none;stroke:#999;stroke-width:3" />
<path d="M1109.37,43.01c0.69,0.69,1.03,1.61,1.03,2.99c0,0.93-0.02,40.16-0.02,44.5c0,2.08,1.29,2.54,3.38,1c2.88-2.12,10-8,15-11.25" style="fill:none;stroke:#999;stroke-width:3" />
<path d="M1125.75,71.75c2.07,2.73,5.32,9.99,6.5,15.75" style="fill:none;stroke:#999;stroke-width:3" />
<path d="M1154.38,18.89c0.12,0.95-0.2,1.74-0.84,2.47C1150.38,25 1147.0,27.38 1138.5,33" style="fill:none;stroke:#999;stroke-width:3" />
<path d="M1138.36,44.14c2.51,0.48,5.41,0.54,7.5,0.14c10.02-1.91,24.19-4.5,33.03-5.39c2-0.2,3.89-0.36,5.86,0.15" style="fill:none;stroke:#999;stroke-width:3" />
<path d="M1147.99,30.33c1.02,1.02,1.5,2.67,1.5,4.27c0,14.56-0.09,47.69-0.11,52.65c-0.03,9.28-5.71,1-6.9-0.25" style="fill:none;stroke:black;stroke-width:3" />
<circle cx="1147.99" cy="30.33" r="5" stroke-width="0" fill="#FF2A00" opacity="0.7" />
<path d="M1230.04,12.5c0.34,1.12,0.23,1.95-0.12,2.93C1227.04,23.57 1218.23,35.99 1209.25,43" style="fill:none;stroke:#999;stroke-width:3" />
<path d="M1231.62,17.5c4.43,2.25,9.62,6.5,12.12,11.25" style="fill:none;stroke:#999;stroke-width:3" />
<path d="M1229.79,30.26c0.85,0.85,1.28,1.86,1.28,3.07c0,0.93-0.07,4.87-0.07,7.17" style="fill:none;stroke:#999;stroke-width:3" />
<path d="M1218.2,42.76c0.8,0.49,2.11,0.77,3.8,0.46c5.15-0.94,15.44-2.77,16.46-2.91c2.29-0.32,2.98,1.17,2.77,2.63c-0.81,5.62-1.63,12.56-2.44,18.31c-0.17,1.21-0.34,2.37-0.51,3.45" style="fill:none;stroke:#999;stroke-width:3" />
<path d="M1220.46,54.53c4.92-0.66,12.92-2.41,18.53-2.91" style="fill:none;stroke:#999;stroke-width:3" />
<path d="M1220.37,65.85c5.76-1.23,11.13-2.23,17.21-2.97" style="fill:none;stroke:#999;stroke-width:3" />
<path d="M1218.37,43.01c0.69,0.69,1.03,1.61,1.03,2.99c0,0.93-0.02,40.16-0.02,44.5c0,2.08,1.29,2.54,3.38,1c2.88-2.12,10-8,15-11.25" style="fill:none;stroke:#999;stroke-width:3" />
<path d="M1234.75,71.75c2.07,2.73,5.32,9.99,6.5,15.75" style="fill:none;stroke:#999;stroke-width:3" />
<path d="M1263.38,18.89c0.12,0.95-0.2,1.74-0.84,2.47C1259.38,25 1256.0,27.38 1247.5,33" style="fill:none;stroke:#999;stroke-width:3" />
<path d="M1247.36,44.14c2.51,0.48,5.41,0.54,7.5,0.14c10.02-1.91,24.19-4.5,33.03-5.39c2-0.2,3.89-0.36,5.86,0.15" style="fill:none;stroke:#999;stroke-width:3" />
<path d="M1256.99,30.33c1.02,1.02,1.5,2.67,1.5,4.27c0,14.56-0.09,47.69-0.11,52.65c-0.03,9.28-5.71,1-6.9-0.25" style="fill:none;stroke:#999;stroke-width:3" />
<path d="M1245.47,70.94c1.41,0.56,2.65,0.45,4-0.67c1.05-0.87,13.79-11.57,18.23-15.76" style="fill:none;stroke:black;stroke-width:3" />
<circle cx="1245.47" cy="70.94" r="5" stroke-width="0" fill="#FF2A00" opacity="0.7" />
<path d="M1339.04,12.5c0.34,1.12,0.23,1.95-0.12,2.93C1336.04,23.57 1327.23,35.99 1318.25,43" style="fill:none;stroke:#999;stroke-width:3" />
<path d="M1340.62,17.5c4.43,2.25,9.62,6.5,12.12,11.25" style="fill:none;stroke:#999;stroke-width:3" />
<path d="M1338.79,30.26c0.85,0.85,1.28,1.86,1.28,3.07c0,0.93-0.07,4.87-0.07,7.17" style="fill:none;stroke:#999;stroke-width:3" />
<path d="M1327.2,42.76c0.8,0.49,2.11,0.77,3.8,0.46c5.15-0.94,15.44-2.77,16.46-2.91c2.29-0.32,2.98,1.17,2.77,2.63c-0.81,5.62-1.63,12.56-2.44,18.31c-0.17,1.21-0.34,2.37-0.51,3.45" style="fill:none;stroke:#999;stroke-width:3" />
<path d="M1329.46,54.53c4.92-0.66,12.92-2.41,18.53-2.91" style="fill:none;stroke:#999;stroke-width:3" />
<path d="M1329.37,65.85c5.76-1.23,11.13-2.23,17.21-2.97" style="fill:none;stroke:#999;stroke-width:3" />
<path d="M1327.37,43.01c0.69,0.69,1.03,1.61,1.03,2.99c0,0.93-0.02,40.16-0.02,44.5c0,2.08,1.29,2.54,3.38,1c2.88-2.12,10-8,15-11.25" style="fill:none;stroke:#999;stroke-width:3" />
<path d="M1343.75,71.75c2.07,2.73,5.32,9.99,6.5,15.75" style="fill:none;stroke:#999;stroke-width:3" />
<path d="M1372.38,18.89c0.12,0.95-0.2,1.74-0.84,2.47C1368.38,25 1365.0,27.38 1356.5,33" style="fill:none;stroke:#999;stroke-width:3" />
<path d="M1356.36,44.14c2.51,0.48,5.41,0.54,7.5,0.14c10.02-1.91,24.19-4.5,33.03-5.39c2-0.2,3.89-0.36,5.86,0.15" style="fill:none;stroke:#999;stroke-width:3" />
<path d="M1365.99,30.33c1.02,1.02,1.5,2.67,1.5,4.27c0,14.56-0.09,47.69-0.11,52.65c-0.03,9.28-5.71,1-6.9-0.25" style="fill:none;stroke:#999;stroke-width:3" />
<path d="M1354.47,70.94c1.41,0.56,2.65,0.45,4-0.67c1.05-0.87,13.79-11.57,18.23-15.76" style="fill:none;stroke:#999;stroke-width:3" />
<path d="M1380.57,13.25c1.34,1.34,1.44,3.08,1.5,7.04C1382.62,52.75 1390.06,86 1402.97,95.92c4.45,3.42,3.65,1.54,3.1-6.59" style="fill:none;stroke:black;stroke-width:3" />
<circle cx="1380.57" cy="13.25" r="5" stroke-width="0" fill="#FF2A00" opacity="0.7" />
<path d="M1448.04,12.5c0.34,1.12,0.23,1.95-0.12,2.93C1445.04,23.57 1436.23,35.99 1427.25,43" style="fill:none;stroke:#999;stroke-width:3" />
<path d="M1449.62,17.5c4.43,2.25,9.62,6.5,12.12,11.25" style="fill:none;stroke:#999;stroke-width:3" />
<path d="M1447.79,30.26c0.85,0.85,1.28,1.86,1.28,3.07c0,0.93-0.07,4.87-0.07,7.17" style="fill:none;stroke:#999;stroke-width:3" />
<path d="M1436.2,42.76c0.8,0.49,2.11,0.77,3.8,0.46c5.15-0.94,15.44-2.77,16.46-2.91c2.29-0.32,2.98,1.17,2.77,2.63c-0.81,5.62-1.63,12.56-2.44,18.31c-0.17,1.21-0.34,2.37-0.51,3.45" style="fill:none;stroke:#999;stroke-width:3" />
<path d="M1438.46,54.53c4.92-0.66,12.92-2.41,18.53-2.91" style="fill:none;stroke:#999;stroke-width:3" />
<path d="M1438.37,65.85c5.76-1.23,11.13-2.23,17.21-2.97" style="fill:none;stroke:#999;stroke-width:3" />
<path d="M1436.37,43.01c0.69,0.69,1.03,1.61,1.03,2.99c0,0.93-0.02,40.16-0.02,44.5c0,2.08,1.29,2.54,3.38,1c2.88-2.12,10-8,15-11.25" style="fill:none;stroke:#999;stroke-width:3" />
<path d="M1452.75,71.75c2.07,2.73,5.32,9.99,6.5,15.75" style="fill:none;stroke:#999;stroke-width:3" />
<path d="M1481.38,18.89c0.12,0.95-0.2,1.74-0.84,2.47C1477.38,25 1474.0,27.38 1465.5,33" style="fill:none;stroke:#999;stroke-width:3" />
<path d="M1465.36,44.14c2.51,0.48,5.41,0.54,7.5,0.14c10.02-1.91,24.19-4.5,33.03-5.39c2-0.2,3.89-0.36,5.86,0.15" style="fill:none;stroke:#999;stroke-width:3" />
<path d="M1474.99,30.33c1.02,1.02,1.5,2.67,1.5,4.27c0,14.56-0.09,47.69-0.11,52.65c-0.03,9.28-5.71,1-6.9-0.25" style="fill:none;stroke:#999;stroke-width:3" />
<path d="M1463.47,70.94c1.41,0.56,2.65,0.45,4-0.67c1.05-0.87,13.79-11.57,18.23-15.76" style="fill:none;stroke:#999;stroke-width:3" />
<path d="M1489.57,13.25c1.34,1.34,1.44,3.08,1.5,7.04C1491.62,52.75 1499.06,86 1511.97,95.92c4.45,3.42,3.65,1.54,3.1-6.59" style="fill:none;stroke:#999;stroke-width:3" />
<path d="M1509.36,50.64c0.06,0.71-0.16,1.66-0.62,2.61c-3.12,6.37-9.87,17.87-21.74,27.5" style="fill:none;stroke:black;stroke-width:3" />
<circle cx="1509.36" cy="50.64" r="5" stroke-width="0" fill="#FF2A00" opacity="0.7" />
<path d="M1557.04,12.5c0.34,1.12,0.23,1.95-0.12,2.93C1554.04,23.57 1545.23,35.99 1536.25,43" style="fill:none;stroke:#999;stroke-width:3" />
<path d="M1558.62,17.5c4.43,2.25,9.62,6.5,12.12,11.25" style="fill:none;stroke:#999;stroke-width:3" />
<path d="M1556.79,30.26c0.85,0.85,1.28,1.86,1.28,3.07c0,0.93-0.07,4.87-0.07,7.17" style="fill:none;stroke:#999;stroke-width:3" />
<path d="M1545.2,42.76c0.8,0.49,2.11,0.77,3.8,0.46c5.15-0.94,15.44-2.77,16.46-2.91c2.29-0.32,2.98,1.17,2.77,2.63c-0.81,5.62-1.63,12.56-2.44,18.31c-0.17,1.21-0.34,2.37-0.51,3.45" style="fill:none;stroke:#999;stroke-width:3" />
<path d="M1547.46,54.53c4.92-0.66,12.92-2.41,18.53-2.91" style="fill:none;stroke:#999;stroke-width:3" />
<path d="M1547.37,65.85c5.76-1.23,11.13-2.23,17.21-2.97" style="fill:none;stroke:#999;stroke-width:3" />
<path d="M1545.37,43.01c0.69,0.69,1.03,1.61,1.03,2.99c0,0.93-0.02,40.16-0.02,44.5c0,2.08,1.29,2.54,3.38,1c2.88-2.12,10-8,15-11.25" style="fill:none;stroke:#999;stroke-width:3" />
<path d="M1561.75,71.75c2.07,2.73,5.32,9.99,6.5,15.75" style="fill:none;stroke:#999;stroke-width:3" />
<path d="M1590.38,18.89c0.12,0.95-0.2,1.74-0.84,2.47C1586.38,25 1583.0,27.38 1574.5,33" style="fill:none;stroke:#999;stroke-width:3" />
<path d="M1574.36,44.14c2.51,0.48,5.41,0.54,7.5,0.14c10.02-1.91,24.19-4.5,33.03-5.39c2-0.2,3.89-0.36,5.86,0.15" style="fill:none;stroke:#999;stroke-width:3" />
<path d="M1583.99,30.33c1.02,1.02,1.5,2.67,1.5,4.27c0,14.56-0.09,47.69-0.11,52.65c-0.03,9.28-5.71,1-6.9-0.25" style="fill:none;stroke:#999;stroke-width:3" />
<path d="M1572.47,70.94c1.41,0.56,2.65,0.45,4-0.67c1.05-0.87,13.79-11.57,18.23-15.76" style="fill:none;stroke:#999;stroke-width:3" />
<path d="M1598.57,13.25c1.34,1.34,1.44,3.08,1.5,7.04C1600.62,52.75 1608.06,86 1620.97,95.92c4.45,3.42,3.65,1.54,3.1-6.59" style="fill:none;stroke:#999;stroke-width:3" />
<path d="M1618.36,50.64c0.06,0.71-0.16,1.66-0.62,2.61c-3.12,6.37-9.87,17.87-21.74,27.5" style="fill:none;stroke:#999;stroke-width:3" />
<path d="M1609.86,19.25c2.52,1.9,6.55,6.24,7.72,9.5" style="fill:none;stroke:black;stroke-width:3" />
<circle cx="1609.86" cy="19.25" r="5" stroke-width="0" fill="#FF2A00" opacity="0.7" />
</svg>