<!-- 09a64 -->
<svg width="2943px" height="109px" viewBox="0 0 2943px 109px" xmlns="http://www.w3.org/2000/svg" xmlns:xlink="http://www.w3.org/1999/xlink" xml:space="preserve" version="1.1"  baseProfile="full">
<line x1="1" y1="1" x2="2942" y2="1" style="stroke:#ddd;stroke-width:2" />
<line x1="1" y1="1" x2="1" y2="108" style="stroke:#ddd;stroke-width:2" />
<line x1="1" y1="108" x2="2942" y2="108" style="stroke:#ddd;stroke-width:2" />
<line x1="2942" y1="1" x2="2942" y2="108" style="stroke:#ddd;stroke-width:2" />
<line x1="109" y1="1" x2="109" y2="108" style="stroke:#ddd;stroke-width:2" />
<line x1="218" y1="1" x2="218" y2="108" style="stroke:#ddd;stroke-width:2" />
<line x1="327" y1="1" x2="327" y2="108" style="stroke:#ddd;stroke-width:2" />
<line x1="436" y1="1" x2="436" y2="108" style="stroke:#ddd;stroke-width:2" />
<line x1="545" y1="1" x2="545" y2="108" style="stroke:#ddd;stroke-width:2" />
<line x1="654" y1="1" x2="654" y2="108" style="stroke:#ddd;stroke-width:2" />
<line x1="763" y1="1" x2="763" y2="108" style="stroke:#ddd;stroke-width:2" />
<line x1="872" y1="1" x2="872" y2="108" style="stroke:#ddd;stroke-width:2" />
<line x1="981" y1="1" x2="981" y2="108" style="stroke:#ddd;stroke-width:2" />
<line x1="1090" y1="1" x2="1090" y2="108" style="stroke:#ddd;stroke-width:2" />
<line x1="1199" y1="1" x2="1199" y2="108" style="stroke:#ddd;stroke-width:2" />
<line x1="1308" y1="1" x2="1308" y2="108" style="stroke:#ddd;stroke-width:2" />
<line x1="1417" y1="1" x2="1417" y2="108" style="stroke:#ddd;stroke-width:2" />
<line x1="1526" y1="1" x2="1526" y2="108" style="stroke:#ddd;stroke-width:2" />
<line x1="1635" y1="1" x2="1635" y2="108" style="stroke:#ddd;stroke-width:2" />
<line x1="1744" y1="1" x2="1744" y2="108" style="stroke:#ddd;stroke-width:2" />
<line x1="1853" y1="1" x2="1853" y2="108" style="stroke:#ddd;stroke-width:2" />
<line x1="1962" y1="1" x2="1962" y2="108" style="stroke:#ddd;stroke-width:2" />
<line x1="2071" y1="1" x2="2071" y2="108" style="stroke:#ddd;stroke-width:2" />
<line x1="2180" y1="1" x2="2180" y2="108" style="stroke:#ddd;stroke-width:2" />
<line x1="2289" y1="1" x2="2289" y2="108" style="stroke:#ddd;stroke-width:2" />
<line x1="2398" y1="1" x2="2398" y2="108" style="stroke:#ddd;stroke-width:2" />
<line x1="2507" y1="1" x2="2507" y2="108" style="stroke:#ddd;stroke-width:2" />
<line x1="2616" y1="1" x2="2616" y2="108" style="stroke:#ddd;stroke-width:2" />
<line x1="2725" y1="1" x2="2725" y2="108" style="stroke:#ddd;stroke-width:2" />
<line x1="2834" y1="1" x2="2834" y2="108" style="stroke:#ddd;stroke-width:2" />
<line x1="1" y1="54" x2="2942" y2="54" style="stroke:#ddd;stroke-width:2;stroke-dasharray:3 3" />
<line x1="55" y1="1" x2="55" y2="108" style="stroke:#ddd;stroke-width:2;stroke-dasharray:3 3" />
<line x1="164" y1="1" x2="164" y2="108" style="stroke:#ddd;stroke-width:2;stroke-dasharray:3 3" />
<line x1="273" y1="1" x2="273" y2="108" style="stroke:#ddd;stroke-width:2;stroke-dasharray:3 3" />
<line x1="382" y1="1" x2="382" y2="108" style="stroke:#ddd;stroke-width:2;stroke-dasharray:3 3" />
<line x1="491" y1="1" x2="491" y2="108" style="stroke:#ddd;stroke-width:2;stroke-dasharray:3 3" />
<line x1="600" y1="1" x2="600" y2="108" style="stroke:#ddd;stroke-width:2;stroke-dasharray:3 3" />
<line x1="709" y1="1" x2="709" y2="108" style="stroke:#ddd;stroke-width:2;stroke-dasharray:3 3" />
<line x1="818" y1="1" x2="818" y2="108" style="stroke:#ddd;stroke-width:2;stroke-dasharray:3 3" />
<line x1="927" y1="1" x2="927" y2="108" style="stroke:#ddd;stroke-width:2;stroke-dasharray:3 3" />
<line x1="1036" y1="1" x2="1036" y2="108" style="stroke:#ddd;stroke-width:2;stroke-dasharray:3 3" />
<line x1="1145" y1="1" x2="1145" y2="108" style="stroke:#ddd;stroke-width:2;stroke-dasharray:3 3" />
<line x1="1254" y1="1" x2="1254" y2="108" style="stroke:#ddd;stroke-width:2;stroke-dasharray:3 3" />
<line x1="1363" y1="1" x2="1363" y2="108" style="stroke:#ddd;stroke-width:2;stroke-dasharray:3 3" />
<line x1="1472" y1="1" x2="1472" y2="108" style="stroke:#ddd;stroke-width:2;stroke-dasharray:3 3" />
<line x1="1581" y1="1" x2="1581" y2="108" style="stroke:#ddd;stroke-width:2;stroke-dasharray:3 3" />
<line x1="1690" y1="1" x2="1690" y2="108" style="stroke:#ddd;stroke-width:2;stroke-dasharray:3 3" />
<line x1="1799" y1="1" x2="1799" y2="108" style="stroke:#ddd;stroke-width:2;stroke-dasharray:3 3" />
<line x1="1908" y1="1" x2="1908" y2="108" style="stroke:#ddd;stroke-width:2;stroke-dasharray:3 3" />
<line x1="2017" y1="1" x2="2017" y2="108" style="stroke:#ddd;stroke-width:2;stroke-dasharray:3 3" />
<line x1="2126" y1="1" x2="2126" y2="108" style="stroke:#ddd;stroke-width:2;stroke-dasharray:3 3" />
<line x1="2235" y1="1" x2="2235" y2="108" style="stroke:#ddd;stroke-width:2;stroke-dasharray:3 3" />
<line x1="2344" y1="1" x2="2344" y2="108" style="stroke:#ddd;stroke-width:2;stroke-dasharray:3 3" />
<line x1="2453" y1="1" x2="2453" y2="108" style="stroke:#ddd;stroke-width:2;stroke-dasharray:3 3" />
<line x1="2562" y1="1" x2="2562" y2="108" style="stroke:#ddd;stroke-width:2;stroke-dasharray:3 3" />
<line x1="2671" y1="1" x2="2671" y2="108" style="stroke:#ddd;stroke-width:2;stroke-dasharray:3 3" />
<line x1="2780" y1="1" x2="2780" y2="108" style="stroke:#ddd;stroke-width:2;stroke-dasharray:3 3" />
<line x1="2889" y1="1" x2="2889" y2="108" style="stroke:#ddd;stroke-width:2;stroke-dasharray:3 3" />
<path d="M14.74,17.19c0.51,0.56,0.99,2.93,0.99,4.06c-0.05,9.65-0.28,37.77-0.98,40.52" style="fill:none;stroke:black;stroke-width:3" />
<circle cx="14.74" cy="17.19" r="5" stroke-width="0" fill="#FF2A00" opacity="0.7" />
<path d="M123.74,17.19c0.51,0.56,0.99,2.93,0.99,4.06c-0.05,9.65-0.28,37.77-0.98,40.52" style="fill:none;stroke:#999;stroke-width:3" />
<path d="M126.27,18.83c7.82-0.54,20.4-2.88,22.76-3.23c0.94-0.14,2.53-0.25,3-0.03" style="fill:none;stroke:black;stroke-width:3" />
<circle cx="126.27" cy="18.83" r="5" stroke-width="0" fill="#FF2A00" opacity="0.7" />
<path d="M232.74,17.19c0.51,0.56,0.99,2.93,0.99,4.06c-0.05,9.65-0.28,37.77-0.98,40.52" style="fill:none;stroke:#999;stroke-width:3" />
<path d="M235.26999999999998,18.83c7.82-0.54,20.4-2.88,22.76-3.23c0.94-0.14,2.53-0.25,3-0.03" style="fill:none;stroke:#999;stroke-width:3" />
<path d="M246.31,18.39c0.25,0.39,0.96,0.9,0.95,1.52c-0.02,6.31-0.06,28.59-0.25,38.51" style="fill:none;stroke:black;stroke-width:3" />
<circle cx="246.31" cy="18.39" r="5" stroke-width="0" fill="#FF2A00" opacity="0.7" />
<path d="M341.74,17.19c0.51,0.56,0.99,2.93,0.99,4.06c-0.05,9.65-0.28,37.77-0.98,40.52" style="fill:none;stroke:#999;stroke-width:3" />
<path d="M344.27,18.83c7.82-0.54,20.4-2.88,22.76-3.23c0.94-0.14,2.53-0.25,3-0.03" style="fill:none;stroke:#999;stroke-width:3" />
<path d="M355.31,18.39c0.25,0.39,0.96,0.9,0.95,1.52c-0.02,6.31-0.06,28.59-0.25,38.51" style="fill:none;stroke:#999;stroke-width:3" />
<path d="M343.16,33.46c6.26-0.6,19.75-3.13,22.44-3.54c0.94-0.14,2.53-0.25,3-0.02" style="fill:none;stroke:black;stroke-width:3" />
<circle cx="343.16" cy="33.46" r="5" stroke-width="0" fill="#FF2A00" opacity="0.7" />
<path d="M450.74,17.19c0.51,0.56,0.99,2.93,0.99,4.06c-0.05,9.65-0.28,37.77-0.98,40.52" style="fill:none;stroke:#999;stroke-width:3" />
<path d="M453.27,18.83c7.82-0.54,20.4-2.88,22.76-3.23c0.94-0.14,2.53-0.25,3-0.03" style="fill:none;stroke:#999;stroke-width:3" />
<path d="M464.31,18.39c0.25,0.39,0.96,0.9,0.95,1.52c-0.02,6.31-0.06,28.59-0.25,38.51" style="fill:none;stroke:#999;stroke-width:3" />
<path d="M452.16,33.46c6.26-0.6,19.75-3.13,22.44-3.54c0.94-0.14,2.53-0.25,3-0.02" style="fill:none;stroke:#999;stroke-width:3" />
<path d="M451.76,45.79c6.26-0.6,20.25-2.15,22.94-2.55c0.94-0.14,2.53-0.25,3-0.03" style="fill:none;stroke:black;stroke-width:3" />
<circle cx="451.76" cy="45.79" r="5" stroke-width="0" fill="#FF2A00" opacity="0.7" />
<path d="M559.74,17.19c0.51,0.56,0.99,2.93,0.99,4.06c-0.05,9.65-0.28,37.77-0.98,40.52" style="fill:none;stroke:#999;stroke-width:3" />
<path d="M562.27,18.83c7.82-0.54,20.4-2.88,22.76-3.23c0.94-0.14,2.53-0.25,3-0.03" style="fill:none;stroke:#999;stroke-width:3" />
<path d="M573.31,18.39c0.25,0.39,0.96,0.9,0.95,1.52c-0.02,6.31-0.06,28.59-0.25,38.51" style="fill:none;stroke:#999;stroke-width:3" />
<path d="M561.1600000000001,33.46c6.26-0.6,19.75-3.13,22.44-3.54c0.94-0.14,2.53-0.25,3-0.02" style="fill:none;stroke:#999;stroke-width:3" />
<path d="M560.76,45.79c6.26-0.6,20.25-2.15,22.94-2.55c0.94-0.14,2.53-0.25,3-0.03" style="fill:none;stroke:#999;stroke-width:3" />
<path d="M560.49,61.15c6.17-1.44,20.04-3.63,23.43-4.24c4.33-0.78,4.19,2.87,3.95,6.6c-0.67,10.58-2.42,21.32-5.62,28.18c-2.75,5.88-5.32,0.42-6.21-0.88" style="fill:none;stroke:black;stroke-width:3" />
<circle cx="560.49" cy="61.15" r="5" stroke-width="0" fill="#FF2A00" opacity="0.7" />
<path d="M668.74,17.19c0.51,0.56,0.99,2.93,0.99,4.06c-0.05,9.65-0.28,37.77-0.98,40.52" style="fill:none;stroke:#999;stroke-width:3" />
<path d="M671.27,18.83c7.82-0.54,20.4-2.88,22.76-3.23c0.94-0.14,2.53-0.25,3-0.03" style="fill:none;stroke:#999;stroke-width:3" />
<path d="M682.31,18.39c0.25,0.39,0.96,0.9,0.95,1.52c-0.02,6.31-0.06,28.59-0.25,38.51" style="fill:none;stroke:#999;stroke-width:3" />
<path d="M670.1600000000001,33.46c6.26-0.6,19.75-3.13,22.44-3.54c0.94-0.14,2.53-0.25,3-0.02" style="fill:none;stroke:#999;stroke-width:3" />
<path d="M669.76,45.79c6.26-0.6,20.25-2.15,22.94-2.55c0.94-0.14,2.53-0.25,3-0.03" style="fill:none;stroke:#999;stroke-width:3" />
<path d="M669.49,61.15c6.17-1.44,20.04-3.63,23.43-4.24c4.33-0.78,4.19,2.87,3.95,6.6c-0.67,10.58-2.42,21.32-5.62,28.18c-2.75,5.88-5.32,0.42-6.21-0.88" style="fill:none;stroke:#999;stroke-width:3" />
<path d="M664.29,71.32c0.28,6.55-0.57,12.31-0.87,13.62" style="fill:none;stroke:black;stroke-width:3" />
<circle cx="664.29" cy="71.32" r="5" stroke-width="0" fill="#FF2A00" opacity="0.7" />
<path d="M777.74,17.19c0.51,0.56,0.99,2.93,0.99,4.06c-0.05,9.65-0.28,37.77-0.98,40.52" style="fill:none;stroke:#999;stroke-width:3" />
<path d="M780.27,18.83c7.82-0.54,20.4-2.88,22.76-3.23c0.94-0.14,2.53-0.25,3-0.03" style="fill:none;stroke:#999;stroke-width:3" />
<path d="M791.31,18.39c0.25,0.39,0.96,0.9,0.95,1.52c-0.02,6.31-0.06,28.59-0.25,38.51" style="fill:none;stroke:#999;stroke-width:3" />
<path d="M779.1600000000001,33.46c6.26-0.6,19.75-3.13,22.44-3.54c0.94-0.14,2.53-0.25,3-0.02" style="fill:none;stroke:#999;stroke-width:3" />
<path d="M778.76,45.79c6.26-0.6,20.25-2.15,22.94-2.55c0.94-0.14,2.53-0.25,3-0.03" style="fill:none;stroke:#999;stroke-width:3" />
<path d="M778.49,61.15c6.17-1.44,20.04-3.63,23.43-4.24c4.33-0.78,4.19,2.87,3.95,6.6c-0.67,10.58-2.42,21.32-5.62,28.18c-2.75,5.88-5.32,0.42-6.21-0.88" style="fill:none;stroke:#999;stroke-width:3" />
<path d="M773.29,71.32c0.28,6.55-0.57,12.31-0.87,13.62" style="fill:none;stroke:#999;stroke-width:3" />
<path d="M779.72,70.29c1.35,2.52,2.5,5.7,2.81,10.19" style="fill:none;stroke:black;stroke-width:3" />
<circle cx="779.72" cy="70.29" r="5" stroke-width="0" fill="#FF2A00" opacity="0.7" />
<path d="M886.74,17.19c0.51,0.56,0.99,2.93,0.99,4.06c-0.05,9.65-0.28,37.77-0.98,40.52" style="fill:none;stroke:#999;stroke-width:3" />
<path d="M889.27,18.83c7.82-0.54,20.4-2.88,22.76-3.23c0.94-0.14,2.53-0.25,3-0.03" style="fill:none;stroke:#999;stroke-width:3" />
<path d="M900.31,18.39c0.25,0.39,0.96,0.9,0.95,1.52c-0.02,6.31-0.06,28.59-0.25,38.51" style="fill:none;stroke:#999;stroke-width:3" />
<path d="M888.1600000000001,33.46c6.26-0.6,19.75-3.13,22.44-3.54c0.94-0.14,2.53-0.25,3-0.02" style="fill:none;stroke:#999;stroke-width:3" />
<path d="M887.76,45.79c6.26-0.6,20.25-2.15,22.94-2.55c0.94-0.14,2.53-0.25,3-0.03" style="fill:none;stroke:#999;stroke-width:3" />
<path d="M887.49,61.15c6.17-1.44,20.04-3.63,23.43-4.24c4.33-0.78,4.19,2.87,3.95,6.6c-0.67,10.58-2.42,21.32-5.62,28.18c-2.75,5.88-5.32,0.42-6.21-0.88" style="fill:none;stroke:#999;stroke-width:3" />
<path d="M882.29,71.32c0.28,6.55-0.57,12.31-0.87,13.62" style="fill:none;stroke:#999;stroke-width:3" />
<path d="M888.72,70.29c1.35,2.52,2.5,5.7,2.81,10.19" style="fill:none;stroke:#999;stroke-width:3" />
<path d="M895.59,68.42c0.7,1.18,2.91,5.08,4.01,8.95" style="fill:none;stroke:black;stroke-width:3" />
<circle cx="895.59" cy="68.42" r="5" stroke-width="0" fill="#FF2A00" opacity="0.7" />
<path d="M995.74,17.19c0.51,0.56,0.99,2.93,0.99,4.06c-0.05,9.65-0.28,37.77-0.98,40.52" style="fill:none;stroke:#999;stroke-width:3" />
<path d="M998.27,18.83c7.82-0.54,20.4-2.88,22.76-3.23c0.94-0.14,2.53-0.25,3-0.03" style="fill:none;stroke:#999;stroke-width:3" />
<path d="M1009.31,18.39c0.25,0.39,0.96,0.9,0.95,1.52c-0.02,6.31-0.06,28.59-0.25,38.51" style="fill:none;stroke:#999;stroke-width:3" />
<path d="M997.1600000000001,33.46c6.26-0.6,19.75-3.13,22.44-3.54c0.94-0.14,2.53-0.25,3-0.02" style="fill:none;stroke:#999;stroke-width:3" />
<path d="M996.76,45.79c6.26-0.6,20.25-2.15,22.94-2.55c0.94-0.14,2.53-0.25,3-0.03" style="fill:none;stroke:#999;stroke-width:3" />
<path d="M996.49,61.15c6.17-1.44,20.04-3.63,23.43-4.24c4.33-0.78,4.19,2.87,3.95,6.6c-0.67,10.58-2.42,21.32-5.62,28.18c-2.75,5.88-5.32,0.42-6.21-0.88" style="fill:none;stroke:#999;stroke-width:3" />
<path d="M991.29,71.32c0.28,6.55-0.57,12.31-0.87,13.62" style="fill:none;stroke:#999;stroke-width:3" />
<path d="M997.72,70.29c1.35,2.52,2.5,5.7,2.81,10.19" style="fill:none;stroke:#999;stroke-width:3" />
<path d="M1004.59,68.42c0.7,1.18,2.91,5.08,4.01,8.95" style="fill:none;stroke:#999;stroke-width:3" />
<path d="M1011.28,66.63c1.56,2.28,4.13,4.63,4.69,7.65" style="fill:none;stroke:black;stroke-width:3" />
<circle cx="1011.28" cy="66.63" r="5" stroke-width="0" fill="#FF2A00" opacity="0.7" />
<path d="M1104.74,17.19c0.51,0.56,0.99,2.93,0.99,4.06c-0.05,9.65-0.28,37.77-0.98,40.52" style="fill:none;stroke:#999;stroke-width:3" />
<path d="M1107.27,18.83c7.82-0.54,20.4-2.88,22.76-3.23c0.94-0.14,2.53-0.25,3-0.03" style="fill:none;stroke:#999;stroke-width:3" />
<path d="M1118.31,18.39c0.25,0.39,0.96,0.9,0.95,1.52c-0.02,6.31-0.06,28.59-0.25,38.51" style="fill:none;stroke:#999;stroke-width:3" />
<path d="M1106.16,33.46c6.26-0.6,19.75-3.13,22.44-3.54c0.94-0.14,2.53-0.25,3-0.02" style="fill:none;stroke:#999;stroke-width:3" />
<path d="M1105.76,45.79c6.26-0.6,20.25-2.15,22.94-2.55c0.94-0.14,2.53-0.25,3-0.03" style="fill:none;stroke:#999;stroke-width:3" />
<path d="M1105.49,61.15c6.17-1.44,20.04-3.63,23.43-4.24c4.33-0.78,4.19,2.87,3.95,6.6c-0.67,10.58-2.42,21.32-5.62,28.18c-2.75,5.88-5.32,0.42-6.21-0.88" style="fill:none;stroke:#999;stroke-width:3" />
<path d="M1100.29,71.32c0.28,6.55-0.57,12.31-0.87,13.62" style="fill:none;stroke:#999;stroke-width:3" />
<path d="M1106.72,70.29c1.35,2.52,2.5,5.7,2.81,10.19" style="fill:none;stroke:#999;stroke-width:3" />
<path d="M1113.5900000000001,68.42c0.7,1.18,2.91,5.08,4.01,8.95" style="fill:none;stroke:#999;stroke-width:3" />
<path d="M1120.28,66.63c1.56,2.28,4.13,4.63,4.69,7.65" style="fill:none;stroke:#999;stroke-width:3" />
<path d="M1158.05,11c0.58,0.39,1.54,1.74,1.54,2.64c0,1.48-0.08,4.76-0.08,6.38" style="fill:none;stroke:black;stroke-width:3" />
<circle cx="1158.05" cy="11.0" r="5" stroke-width="0" fill="#FF2A00" opacity="0.7" />
<path d="M1213.74,17.19c0.51,0.56,0.99,2.93,0.99,4.06c-0.05,9.65-0.28,37.77-0.98,40.52" style="fill:none;stroke:#999;stroke-width:3" />
<path d="M1216.27,18.83c7.82-0.54,20.4-2.88,22.76-3.23c0.94-0.14,2.53-0.25,3-0.03" style="fill:none;stroke:#999;stroke-width:3" />
<path d="M1227.31,18.39c0.25,0.39,0.96,0.9,0.95,1.52c-0.02,6.31-0.06,28.59-0.25,38.51" style="fill:none;stroke:#999;stroke-width:3" />
<path d="M1215.16,33.46c6.26-0.6,19.75-3.13,22.44-3.54c0.94-0.14,2.53-0.25,3-0.02" style="fill:none;stroke:#999;stroke-width:3" />
<path d="M1214.76,45.79c6.26-0.6,20.25-2.15,22.94-2.55c0.94-0.14,2.53-0.25,3-0.03" style="fill:none;stroke:#999;stroke-width:3" />
<path d="M1214.49,61.15c6.17-1.44,20.04-3.63,23.43-4.24c4.33-0.78,4.19,2.87,3.95,6.6c-0.67,10.58-2.42,21.32-5.62,28.18c-2.75,5.88-5.32,0.42-6.21-0.88" style="fill:none;stroke:#999;stroke-width:3" />
<path d="M1209.29,71.32c0.28,6.55-0.57,12.31-0.87,13.62" style="fill:none;stroke:#999;stroke-width:3" />
<path d="M1215.72,70.29c1.35,2.52,2.5,5.7,2.81,10.19" style="fill:none;stroke:#999;stroke-width:3" />
<path d="M1222.5900000000001,68.42c0.7,1.18,2.91,5.08,4.01,8.95" style="fill:none;stroke:#999;stroke-width:3" />
<path d="M1229.28,66.63c1.56,2.28,4.13,4.63,4.69,7.65" style="fill:none;stroke:#999;stroke-width:3" />
<path d="M1267.05,11c0.58,0.39,1.54,1.74,1.54,2.64c0,1.48-0.08,4.76-0.08,6.38" style="fill:none;stroke:#999;stroke-width:3" />
<path d="M1247.78,22.36c0.98,0.11,3.19,0.18,4.15,0.11c7.07-0.48,24.69-2.97,35.1-3.3c1.61-0.05,2.43,0.05,3.63,0.78" style="fill:none;stroke:black;stroke-width:3" />
<circle cx="1247.78" cy="22.36" r="5" stroke-width="0" fill="#FF2A00" opacity="0.7" />
<path d="M1322.74,17.19c0.51,0.56,0.99,2.93,0.99,4.06c-0.05,9.65-0.28,37.77-0.98,40.52" style="fill:none;stroke:#999;stroke-width:3" />
<path d="M1325.27,18.83c7.82-0.54,20.4-2.88,22.76-3.23c0.94-0.14,2.53-0.25,3-0.03" style="fill:none;stroke:#999;stroke-width:3" />
<path d="M1336.31,18.39c0.25,0.39,0.96,0.9,0.95,1.52c-0.02,6.31-0.06,28.59-0.25,38.51" style="fill:none;stroke:#999;stroke-width:3" />
<path d="M1324.16,33.46c6.26-0.6,19.75-3.13,22.44-3.54c0.94-0.14,2.53-0.25,3-0.02" style="fill:none;stroke:#999;stroke-width:3" />
<path d="M1323.76,45.79c6.26-0.6,20.25-2.15,22.94-2.55c0.94-0.14,2.53-0.25,3-0.03" style="fill:none;stroke:#999;stroke-width:3" />
<path d="M1323.49,61.15c6.17-1.44,20.04-3.63,23.43-4.24c4.33-0.78,4.19,2.87,3.95,6.6c-0.67,10.58-2.42,21.32-5.62,28.18c-2.75,5.88-5.32,0.42-6.21-0.88" style="fill:none;stroke:#999;stroke-width:3" />
<path d="M1318.29,71.32c0.28,6.55-0.57,12.31-0.87,13.62" style="fill:none;stroke:#999;stroke-width:3" />
<path d="M1324.72,70.29c1.35,2.52,2.5,5.7,2.81,10.19" style="fill:none;stroke:#999;stroke-width:3" />
<path d="M1331.5900000000001,68.42c0.7,1.18,2.91,5.08,4.01,8.95" style="fill:none;stroke:#999;stroke-width:3" />
<path d="M1338.28,66.63c1.56,2.28,4.13,4.63,4.69,7.65" style="fill:none;stroke:#999;stroke-width:3" />
<path d="M1376.05,11c0.58,0.39,1.54,1.74,1.54,2.64c0,1.48-0.08,4.76-0.08,6.38" style="fill:none;stroke:#999;stroke-width:3" />
<path d="M1356.78,22.36c0.98,0.11,3.19,0.18,4.15,0.11c7.07-0.48,24.69-2.97,35.1-3.3c1.61-0.05,2.43,0.05,3.63,0.78" style="fill:none;stroke:#999;stroke-width:3" />
<path d="M1358.6,29.87c0.23,0.21,0.5,0.38,0.57,0.66c0.77,2.79,1.39,6.93,1.95,10.73" style="fill:none;stroke:black;stroke-width:3" />
<circle cx="1358.6" cy="29.87" r="5" stroke-width="0" fill="#FF2A00" opacity="0.7" />
<path d="M1431.74,17.19c0.51,0.56,0.99,2.93,0.99,4.06c-0.05,9.65-0.28,37.77-0.98,40.52" style="fill:none;stroke:#999;stroke-width:3" />
<path d="M1434.27,18.83c7.82-0.54,20.4-2.88,22.76-3.23c0.94-0.14,2.53-0.25,3-0.03" style="fill:none;stroke:#999;stroke-width:3" />
<path d="M1445.31,18.39c0.25,0.39,0.96,0.9,0.95,1.52c-0.02,6.31-0.06,28.59-0.25,38.51" style="fill:none;stroke:#999;stroke-width:3" />
<path d="M1433.16,33.46c6.26-0.6,19.75-3.13,22.44-3.54c0.94-0.14,2.53-0.25,3-0.02" style="fill:none;stroke:#999;stroke-width:3" />
<path d="M1432.76,45.79c6.26-0.6,20.25-2.15,22.94-2.55c0.94-0.14,2.53-0.25,3-0.03" style="fill:none;stroke:#999;stroke-width:3" />
<path d="M1432.49,61.15c6.17-1.44,20.04-3.63,23.43-4.24c4.33-0.78,4.19,2.87,3.95,6.6c-0.67,10.58-2.42,21.32-5.62,28.18c-2.75,5.88-5.32,0.42-6.21-0.88" style="fill:none;stroke:#999;stroke-width:3" />
<path d="M1427.29,71.32c0.28,6.55-0.57,12.31-0.87,13.62" style="fill:none;stroke:#999;stroke-width:3" />
<path d="M1433.72,70.29c1.35,2.52,2.5,5.7,2.81,10.19" style="fill:none;stroke:#999;stroke-width:3" />
<path d="M1440.5900000000001,68.42c0.7,1.18,2.91,5.08,4.01,8.95" style="fill:none;stroke:#999;stroke-width:3" />
<path d="M1447.28,66.63c1.56,2.28,4.13,4.63,4.69,7.65" style="fill:none;stroke:#999;stroke-width:3" />
<path d="M1485.05,11c0.58,0.39,1.54,1.74,1.54,2.64c0,1.48-0.08,4.76-0.08,6.38" style="fill:none;stroke:#999;stroke-width:3" />
<path d="M1465.78,22.36c0.98,0.11,3.19,0.18,4.15,0.11c7.07-0.48,24.69-2.97,35.1-3.3c1.61-0.05,2.43,0.05,3.63,0.78" style="fill:none;stroke:#999;stroke-width:3" />
<path d="M1467.6,29.87c0.23,0.21,0.5,0.38,0.57,0.66c0.77,2.79,1.39,6.93,1.95,10.73" style="fill:none;stroke:#999;stroke-width:3" />
<path d="M1469.05,31.3c4.77-1.1,10.12-2.29,12.85-2.57c1-0.1,1.6,0.6,1.46,1.2c-0.59,2.47-0.81,4.4-1.69,7.81" style="fill:none;stroke:black;stroke-width:3" />
<circle cx="1469.05" cy="31.3" r="5" stroke-width="0" fill="#FF2A00" opacity="0.7" />
<path d="M1540.74,17.19c0.51,0.56,0.99,2.93,0.99,4.06c-0.05,9.65-0.28,37.77-0.98,40.52" style="fill:none;stroke:#999;stroke-width:3" />
<path d="M1543.27,18.83c7.82-0.54,20.4-2.88,22.76-3.23c0.94-0.14,2.53-0.25,3-0.03" style="fill:none;stroke:#999;stroke-width:3" />
<path d="M1554.31,18.39c0.25,0.39,0.96,0.9,0.95,1.52c-0.02,6.31-0.06,28.59-0.25,38.51" style="fill:none;stroke:#999;stroke-width:3" />
<path d="M1542.16,33.46c6.26-0.6,19.75-3.13,22.44-3.54c0.94-0.14,2.53-0.25,3-0.02" style="fill:none;stroke:#999;stroke-width:3" />
<path d="M1541.76,45.79c6.26-0.6,20.25-2.15,22.94-2.55c0.94-0.14,2.53-0.25,3-0.03" style="fill:none;stroke:#999;stroke-width:3" />
<path d="M1541.49,61.15c6.17-1.44,20.04-3.63,23.43-4.24c4.33-0.78,4.19,2.87,3.95,6.6c-0.67,10.58-2.42,21.32-5.62,28.18c-2.75,5.88-5.32,0.42-6.21-0.88" style="fill:none;stroke:#999;stroke-width:3" />
<path d="M1536.29,71.32c0.28,6.55-0.57,12.31-0.87,13.62" style="fill:none;stroke:#999;stroke-width:3" />
<path d="M1542.72,70.29c1.35,2.52,2.5,5.7,2.81,10.19" style="fill:none;stroke:#999;stroke-width:3" />
<path d="M1549.5900000000001,68.42c0.7,1.18,2.91,5.08,4.01,8.95" style="fill:none;stroke:#999;stroke-width:3" />
<path d="M1556.28,66.63c1.56,2.28,4.13,4.63,4.69,7.65" style="fill:none;stroke:#999;stroke-width:3" />
<path d="M1594.05,11c0.58,0.39,1.54,1.74,1.54,2.64c0,1.48-0.08,4.76-0.08,6.38" style="fill:none;stroke:#999;stroke-width:3" />
<path d="M1574.78,22.36c0.98,0.11,3.19,0.18,4.15,0.11c7.07-0.48,24.69-2.97,35.1-3.3c1.61-0.05,2.43,0.05,3.63,0.78" style="fill:none;stroke:#999;stroke-width:3" />
<path d="M1576.6,29.87c0.23,0.21,0.5,0.38,0.57,0.66c0.77,2.79,1.39,6.93,1.95,10.73" style="fill:none;stroke:#999;stroke-width:3" />
<path d="M1578.05,31.3c4.77-1.1,10.12-2.29,12.85-2.57c1-0.1,1.6,0.6,1.46,1.2c-0.59,2.47-0.81,4.4-1.69,7.81" style="fill:none;stroke:#999;stroke-width:3" />
<path d="M1579.23,39.9c3.21-0.31,8.02-1.37,12.43-1.85" style="fill:none;stroke:black;stroke-width:3" />
<circle cx="1579.23" cy="39.9" r="5" stroke-width="0" fill="#FF2A00" opacity="0.7" />
<path d="M1649.74,17.19c0.51,0.56,0.99,2.93,0.99,4.06c-0.05,9.65-0.28,37.77-0.98,40.52" style="fill:none;stroke:#999;stroke-width:3" />
<path d="M1652.27,18.83c7.82-0.54,20.4-2.88,22.76-3.23c0.94-0.14,2.53-0.25,3-0.03" style="fill:none;stroke:#999;stroke-width:3" />
<path d="M1663.31,18.39c0.25,0.39,0.96,0.9,0.95,1.52c-0.02,6.31-0.06,28.59-0.25,38.51" style="fill:none;stroke:#999;stroke-width:3" />
<path d="M1651.16,33.46c6.26-0.6,19.75-3.13,22.44-3.54c0.94-0.14,2.53-0.25,3-0.02" style="fill:none;stroke:#999;stroke-width:3" />
<path d="M1650.76,45.79c6.26-0.6,20.25-2.15,22.94-2.55c0.94-0.14,2.53-0.25,3-0.03" style="fill:none;stroke:#999;stroke-width:3" />
<path d="M1650.49,61.15c6.17-1.44,20.04-3.63,23.43-4.24c4.33-0.78,4.19,2.87,3.95,6.6c-0.67,10.58-2.42,21.32-5.62,28.18c-2.75,5.88-5.32,0.42-6.21-0.88" style="fill:none;stroke:#999;stroke-width:3" />
<path d="M1645.29,71.32c0.28,6.55-0.57,12.31-0.87,13.62" style="fill:none;stroke:#999;stroke-width:3" />
<path d="M1651.72,70.29c1.35,2.52,2.5,5.7,2.81,10.19" style="fill:none;stroke:#999;stroke-width:3" />
<path d="M1658.5900000000001,68.42c0.7,1.18,2.91,5.08,4.01,8.95" style="fill:none;stroke:#999;stroke-width:3" />
<path d="M1665.28,66.63c1.56,2.28,4.13,4.63,4.69,7.65" style="fill:none;stroke:#999;stroke-width:3" />
<path d="M1703.05,11c0.58,0.39,1.54,1.74,1.54,2.64c0,1.48-0.08,4.76-0.08,6.38" style="fill:none;stroke:#999;stroke-width:3" />
<path d="M1683.78,22.36c0.98,0.11,3.19,0.18,4.15,0.11c7.07-0.48,24.69-2.97,35.1-3.3c1.61-0.05,2.43,0.05,3.63,0.78" style="fill:none;stroke:#999;stroke-width:3" />
<path d="M1685.6,29.87c0.23,0.21,0.5,0.38,0.57,0.66c0.77,2.79,1.39,6.93,1.95,10.73" style="fill:none;stroke:#999;stroke-width:3" />
<path d="M1687.05,31.3c4.77-1.1,10.12-2.29,12.85-2.57c1-0.1,1.6,0.6,1.46,1.2c-0.59,2.47-0.81,4.4-1.69,7.81" style="fill:none;stroke:#999;stroke-width:3" />
<path d="M1688.23,39.9c3.21-0.31,8.02-1.37,12.43-1.85" style="fill:none;stroke:#999;stroke-width:3" />
<path d="M1707.5,28.64c0.25,0.21,0.51,0.39,0.62,0.66c0.87,2.11,1.49,5.92,2.08,9.7" style="fill:none;stroke:black;stroke-width:3" />
<circle cx="1707.5" cy="28.64" r="5" stroke-width="0" fill="#FF2A00" opacity="0.7" />
<path d="M1758.74,17.19c0.51,0.56,0.99,2.93,0.99,4.06c-0.05,9.65-0.28,37.77-0.98,40.52" style="fill:none;stroke:#999;stroke-width:3" />
<path d="M1761.27,18.83c7.82-0.54,20.4-2.88,22.76-3.23c0.94-0.14,2.53-0.25,3-0.03" style="fill:none;stroke:#999;stroke-width:3" />
<path d="M1772.31,18.39c0.25,0.39,0.96,0.9,0.95,1.52c-0.02,6.31-0.06,28.59-0.25,38.51" style="fill:none;stroke:#999;stroke-width:3" />
<path d="M1760.16,33.46c6.26-0.6,19.75-3.13,22.44-3.54c0.94-0.14,2.53-0.25,3-0.02" style="fill:none;stroke:#999;stroke-width:3" />
<path d="M1759.76,45.79c6.26-0.6,20.25-2.15,22.94-2.55c0.94-0.14,2.53-0.25,3-0.03" style="fill:none;stroke:#999;stroke-width:3" />
<path d="M1759.49,61.15c6.17-1.44,20.04-3.63,23.43-4.24c4.33-0.78,4.19,2.87,3.95,6.6c-0.67,10.58-2.42,21.32-5.62,28.18c-2.75,5.88-5.32,0.42-6.21-0.88" style="fill:none;stroke:#999;stroke-width:3" />
<path d="M1754.29,71.32c0.28,6.55-0.57,12.31-0.87,13.62" style="fill:none;stroke:#999;stroke-width:3" />
<path d="M1760.72,70.29c1.35,2.52,2.5,5.7,2.81,10.19" style="fill:none;stroke:#999;stroke-width:3" />
<path d="M1767.5900000000001,68.42c0.7,1.18,2.91,5.08,4.01,8.95" style="fill:none;stroke:#999;stroke-width:3" />
<path d="M1774.28,66.63c1.56,2.28,4.13,4.63,4.69,7.65" style="fill:none;stroke:#999;stroke-width:3" />
<path d="M1812.05,11c0.58,0.39,1.54,1.74,1.54,2.64c0,1.48-0.08,4.76-0.08,6.38" style="fill:none;stroke:#999;stroke-width:3" />
<path d="M1792.78,22.36c0.98,0.11,3.19,0.18,4.15,0.11c7.07-0.48,24.69-2.97,35.1-3.3c1.61-0.05,2.43,0.05,3.63,0.78" style="fill:none;stroke:#999;stroke-width:3" />
<path d="M1794.6,29.87c0.23,0.21,0.5,0.38,0.57,0.66c0.77,2.79,1.39,6.93,1.95,10.73" style="fill:none;stroke:#999;stroke-width:3" />
<path d="M1796.05,31.3c4.77-1.1,10.12-2.29,12.85-2.57c1-0.1,1.6,0.6,1.46,1.2c-0.59,2.47-0.81,4.4-1.69,7.81" style="fill:none;stroke:#999;stroke-width:3" />
<path d="M1797.23,39.9c3.21-0.31,8.02-1.37,12.43-1.85" style="fill:none;stroke:#999;stroke-width:3" />
<path d="M1816.5,28.64c0.25,0.21,0.51,0.39,0.62,0.66c0.87,2.11,1.49,5.92,2.08,9.7" style="fill:none;stroke:#999;stroke-width:3" />
<path d="M1817.56,30.07c5.11-1.1,12.48-2.31,15.41-2.59c1.07-0.1,1.71,0.6,1.56,1.19c-0.63,2.46-1.79,4.38-2.73,7.79" style="fill:none;stroke:black;stroke-width:3" />
<circle cx="1817.56" cy="30.07" r="5" stroke-width="0" fill="#FF2A00" opacity="0.7" />
<path d="M1867.74,17.19c0.51,0.56,0.99,2.93,0.99,4.06c-0.05,9.65-0.28,37.77-0.98,40.52" style="fill:none;stroke:#999;stroke-width:3" />
<path d="M1870.27,18.83c7.82-0.54,20.4-2.88,22.76-3.23c0.94-0.14,2.53-0.25,3-0.03" style="fill:none;stroke:#999;stroke-width:3" />
<path d="M1881.31,18.39c0.25,0.39,0.96,0.9,0.95,1.52c-0.02,6.31-0.06,28.59-0.25,38.51" style="fill:none;stroke:#999;stroke-width:3" />
<path d="M1869.16,33.46c6.26-0.6,19.75-3.13,22.44-3.54c0.94-0.14,2.53-0.25,3-0.02" style="fill:none;stroke:#999;stroke-width:3" />
<path d="M1868.76,45.79c6.26-0.6,20.25-2.15,22.94-2.55c0.94-0.14,2.53-0.25,3-0.03" style="fill:none;stroke:#999;stroke-width:3" />
<path d="M1868.49,61.15c6.17-1.44,20.04-3.63,23.43-4.24c4.33-0.78,4.19,2.87,3.95,6.6c-0.67,10.58-2.42,21.32-5.62,28.18c-2.75,5.88-5.32,0.42-6.21-0.88" style="fill:none;stroke:#999;stroke-width:3" />
<path d="M1863.29,71.32c0.28,6.55-0.57,12.31-0.87,13.62" style="fill:none;stroke:#999;stroke-width:3" />
<path d="M1869.72,70.29c1.35,2.52,2.5,5.7,2.81,10.19" style="fill:none;stroke:#999;stroke-width:3" />
<path d="M1876.5900000000001,68.42c0.7,1.18,2.91,5.08,4.01,8.95" style="fill:none;stroke:#999;stroke-width:3" />
<path d="M1883.28,66.63c1.56,2.28,4.13,4.63,4.69,7.65" style="fill:none;stroke:#999;stroke-width:3" />
<path d="M1921.05,11c0.58,0.39,1.54,1.74,1.54,2.64c0,1.48-0.08,4.76-0.08,6.38" style="fill:none;stroke:#999;stroke-width:3" />
<path d="M1901.78,22.36c0.98,0.11,3.19,0.18,4.15,0.11c7.07-0.48,24.69-2.97,35.1-3.3c1.61-0.05,2.43,0.05,3.63,0.78" style="fill:none;stroke:#999;stroke-width:3" />
<path d="M1903.6,29.87c0.23,0.21,0.5,0.38,0.57,0.66c0.77,2.79,1.39,6.93,1.95,10.73" style="fill:none;stroke:#999;stroke-width:3" />
<path d="M1905.05,31.3c4.77-1.1,10.12-2.29,12.85-2.57c1-0.1,1.6,0.6,1.46,1.2c-0.59,2.47-0.81,4.4-1.69,7.81" style="fill:none;stroke:#999;stroke-width:3" />
<path d="M1906.23,39.9c3.21-0.31,8.02-1.37,12.43-1.85" style="fill:none;stroke:#999;stroke-width:3" />
<path d="M1925.5,28.64c0.25,0.21,0.51,0.39,0.62,0.66c0.87,2.11,1.49,5.92,2.08,9.7" style="fill:none;stroke:#999;stroke-width:3" />
<path d="M1926.56,30.07c5.11-1.1,12.48-2.31,15.41-2.59c1.07-0.1,1.71,0.6,1.56,1.19c-0.63,2.46-1.79,4.38-2.73,7.79" style="fill:none;stroke:#999;stroke-width:3" />
<path d="M1928.32,37.65c3.44-0.31,8.65-0.9,13.38-1.39" style="fill:none;stroke:black;stroke-width:3" />
<circle cx="1928.32" cy="37.65" r="5" stroke-width="0" fill="#FF2A00" opacity="0.7" />
<path d="M1976.74,17.19c0.51,0.56,0.99,2.93,0.99,4.06c-0.05,9.65-0.28,37.77-0.98,40.52" style="fill:none;stroke:#999;stroke-width:3" />
<path d="M1979.27,18.83c7.82-0.54,20.4-2.88,22.76-3.23c0.94-0.14,2.53-0.25,3-0.03" style="fill:none;stroke:#999;stroke-width:3" />
<path d="M1990.31,18.39c0.25,0.39,0.96,0.9,0.95,1.52c-0.02,6.31-0.06,28.59-0.25,38.51" style="fill:none;stroke:#999;stroke-width:3" />
<path d="M1978.16,33.46c6.26-0.6,19.75-3.13,22.44-3.54c0.94-0.14,2.53-0.25,3-0.02" style="fill:none;stroke:#999;stroke-width:3" />
<path d="M1977.76,45.79c6.26-0.6,20.25-2.15,22.94-2.55c0.94-0.14,2.53-0.25,3-0.03" style="fill:none;stroke:#999;stroke-width:3" />
<path d="M1977.49,61.15c6.17-1.44,20.04-3.63,23.43-4.24c4.33-0.78,4.19,2.87,3.95,6.6c-0.67,10.58-2.42,21.32-5.62,28.18c-2.75,5.88-5.32,0.42-6.21-0.88" style="fill:none;stroke:#999;stroke-width:3" />
<path d="M1972.29,71.32c0.28,6.55-0.57,12.31-0.87,13.62" style="fill:none;stroke:#999;stroke-width:3" />
<path d="M1978.72,70.29c1.35,2.52,2.5,5.7,2.81,10.19" style="fill:none;stroke:#999;stroke-width:3" />
<path d="M1985.5900000000001,68.42c0.7,1.18,2.91,5.08,4.01,8.95" style="fill:none;stroke:#999;stroke-width:3" />
<path d="M1992.28,66.63c1.56,2.28,4.13,4.63,4.69,7.65" style="fill:none;stroke:#999;stroke-width:3" />
<path d="M2030.05,11c0.58,0.39,1.54,1.74,1.54,2.64c0,1.48-0.08,4.76-0.08,6.38" style="fill:none;stroke:#999;stroke-width:3" />
<path d="M2010.78,22.36c0.98,0.11,3.19,0.18,4.15,0.11c7.07-0.48,24.69-2.97,35.1-3.3c1.61-0.05,2.43,0.05,3.63,0.78" style="fill:none;stroke:#999;stroke-width:3" />
<path d="M2012.6,29.87c0.23,0.21,0.5,0.38,0.57,0.66c0.77,2.79,1.39,6.93,1.95,10.73" style="fill:none;stroke:#999;stroke-width:3" />
<path d="M2014.05,31.3c4.77-1.1,10.12-2.29,12.85-2.57c1-0.1,1.6,0.6,1.46,1.2c-0.59,2.47-0.81,4.4-1.69,7.81" style="fill:none;stroke:#999;stroke-width:3" />
<path d="M2015.23,39.9c3.21-0.31,8.02-1.37,12.43-1.85" style="fill:none;stroke:#999;stroke-width:3" />
<path d="M2034.5,28.64c0.25,0.21,0.51,0.39,0.62,0.66c0.87,2.11,1.49,5.92,2.08,9.7" style="fill:none;stroke:#999;stroke-width:3" />
<path d="M2035.56,30.07c5.11-1.1,12.48-2.31,15.41-2.59c1.07-0.1,1.71,0.6,1.56,1.19c-0.63,2.46-1.79,4.38-2.73,7.79" style="fill:none;stroke:#999;stroke-width:3" />
<path d="M2037.32,37.65c3.44-0.31,8.65-0.9,13.38-1.39" style="fill:none;stroke:#999;stroke-width:3" />
<path d="M2014.2,49.69c0.73,0.27,2.83,0.32,3.56,0.27c6.64-0.51,24.77-2.47,31.91-3.06c1.21-0.1,1.94,0.13,2.55,0.26" style="fill:none;stroke:black;stroke-width:3" />
<circle cx="2014.2" cy="49.69" r="5" stroke-width="0" fill="#FF2A00" opacity="0.7" />
<path d="M2085.74,17.19c0.51,0.56,0.99,2.93,0.99,4.06c-0.05,9.65-0.28,37.77-0.98,40.52" style="fill:none;stroke:#999;stroke-width:3" />
<path d="M2088.27,18.83c7.82-0.54,20.4-2.88,22.76-3.23c0.94-0.14,2.53-0.25,3-0.03" style="fill:none;stroke:#999;stroke-width:3" />
<path d="M2099.31,18.39c0.25,0.39,0.96,0.9,0.95,1.52c-0.02,6.31-0.06,28.59-0.25,38.51" style="fill:none;stroke:#999;stroke-width:3" />
<path d="M2087.16,33.46c6.26-0.6,19.75-3.13,22.44-3.54c0.94-0.14,2.53-0.25,3-0.02" style="fill:none;stroke:#999;stroke-width:3" />
<path d="M2086.76,45.79c6.26-0.6,20.25-2.15,22.94-2.55c0.94-0.14,2.53-0.25,3-0.03" style="fill:none;stroke:#999;stroke-width:3" />
<path d="M2086.49,61.15c6.17-1.44,20.04-3.63,23.43-4.24c4.33-0.78,4.19,2.87,3.95,6.6c-0.67,10.58-2.42,21.32-5.62,28.18c-2.75,5.88-5.32,0.42-6.21-0.88" style="fill:none;stroke:#999;stroke-width:3" />
<path d="M2081.29,71.32c0.28,6.55-0.57,12.31-0.87,13.62" style="fill:none;stroke:#999;stroke-width:3" />
<path d="M2087.7200000000003,70.29c1.35,2.52,2.5,5.7,2.81,10.19" style="fill:none;stroke:#999;stroke-width:3" />
<path d="M2094.59,68.42c0.7,1.18,2.91,5.08,4.01,8.95" style="fill:none;stroke:#999;stroke-width:3" />
<path d="M2101.2799999999997,66.63c1.56,2.28,4.13,4.63,4.69,7.65" style="fill:none;stroke:#999;stroke-width:3" />
<path d="M2139.05,11c0.58,0.39,1.54,1.74,1.54,2.64c0,1.48-0.08,4.76-0.08,6.38" style="fill:none;stroke:#999;stroke-width:3" />
<path d="M2119.7799999999997,22.36c0.98,0.11,3.19,0.18,4.15,0.11c7.07-0.48,24.69-2.97,35.1-3.3c1.61-0.05,2.43,0.05,3.63,0.78" style="fill:none;stroke:#999;stroke-width:3" />
<path d="M2121.6,29.87c0.23,0.21,0.5,0.38,0.57,0.66c0.77,2.79,1.39,6.93,1.95,10.73" style="fill:none;stroke:#999;stroke-width:3" />
<path d="M2123.05,31.3c4.77-1.1,10.12-2.29,12.85-2.57c1-0.1,1.6,0.6,1.46,1.2c-0.59,2.47-0.81,4.4-1.69,7.81" style="fill:none;stroke:#999;stroke-width:3" />
<path d="M2124.23,39.9c3.21-0.31,8.02-1.37,12.43-1.85" style="fill:none;stroke:#999;stroke-width:3" />
<path d="M2143.5,28.64c0.25,0.21,0.51,0.39,0.62,0.66c0.87,2.11,1.49,5.92,2.08,9.7" style="fill:none;stroke:#999;stroke-width:3" />
<path d="M2144.56,30.07c5.11-1.1,12.48-2.31,15.41-2.59c1.07-0.1,1.71,0.6,1.56,1.19c-0.63,2.46-1.79,4.38-2.73,7.79" style="fill:none;stroke:#999;stroke-width:3" />
<path d="M2146.3199999999997,37.65c3.44-0.31,8.65-0.9,13.38-1.39" style="fill:none;stroke:#999;stroke-width:3" />
<path d="M2123.2,49.69c0.73,0.27,2.83,0.32,3.56,0.27c6.64-0.51,24.77-2.47,31.91-3.06c1.21-0.1,1.94,0.13,2.55,0.26" style="fill:none;stroke:#999;stroke-width:3" />
<path d="M2132.02,44.44c1.11,0.46,1.62,2.5,1.62,3.46c0,3.1,0.3,12.1,0.3,19.51" style="fill:none;stroke:black;stroke-width:3" />
<circle cx="2132.02" cy="44.44" r="5" stroke-width="0" fill="#FF2A00" opacity="0.7" />
<path d="M2194.74,17.19c0.51,0.56,0.99,2.93,0.99,4.06c-0.05,9.65-0.28,37.77-0.98,40.52" style="fill:none;stroke:#999;stroke-width:3" />
<path d="M2197.27,18.83c7.82-0.54,20.4-2.88,22.76-3.23c0.94-0.14,2.53-0.25,3-0.03" style="fill:none;stroke:#999;stroke-width:3" />
<path d="M2208.31,18.39c0.25,0.39,0.96,0.9,0.95,1.52c-0.02,6.31-0.06,28.59-0.25,38.51" style="fill:none;stroke:#999;stroke-width:3" />
<path d="M2196.16,33.46c6.26-0.6,19.75-3.13,22.44-3.54c0.94-0.14,2.53-0.25,3-0.02" style="fill:none;stroke:#999;stroke-width:3" />
<path d="M2195.76,45.79c6.26-0.6,20.25-2.15,22.94-2.55c0.94-0.14,2.53-0.25,3-0.03" style="fill:none;stroke:#999;stroke-width:3" />
<path d="M2195.49,61.15c6.17-1.44,20.04-3.63,23.43-4.24c4.33-0.78,4.19,2.87,3.95,6.6c-0.67,10.58-2.42,21.32-5.62,28.18c-2.75,5.88-5.32,0.42-6.21-0.88" style="fill:none;stroke:#999;stroke-width:3" />
<path d="M2190.29,71.32c0.28,6.55-0.57,12.31-0.87,13.62" style="fill:none;stroke:#999;stroke-width:3" />
<path d="M2196.7200000000003,70.29c1.35,2.52,2.5,5.7,2.81,10.19" style="fill:none;stroke:#999;stroke-width:3" />
<path d="M2203.59,68.42c0.7,1.18,2.91,5.08,4.01,8.95" style="fill:none;stroke:#999;stroke-width:3" />
<path d="M2210.2799999999997,66.63c1.56,2.28,4.13,4.63,4.69,7.65" style="fill:none;stroke:#999;stroke-width:3" />
<path d="M2248.05,11c0.58,0.39,1.54,1.74,1.54,2.64c0,1.48-0.08,4.76-0.08,6.38" style="fill:none;stroke:#999;stroke-width:3" />
<path d="M2228.7799999999997,22.36c0.98,0.11,3.19,0.18,4.15,0.11c7.07-0.48,24.69-2.97,35.1-3.3c1.61-0.05,2.43,0.05,3.63,0.78" style="fill:none;stroke:#999;stroke-width:3" />
<path d="M2230.6,29.87c0.23,0.21,0.5,0.38,0.57,0.66c0.77,2.79,1.39,6.93,1.95,10.73" style="fill:none;stroke:#999;stroke-width:3" />
<path d="M2232.05,31.3c4.77-1.1,10.12-2.29,12.85-2.57c1-0.1,1.6,0.6,1.46,1.2c-0.59,2.47-0.81,4.4-1.69,7.81" style="fill:none;stroke:#999;stroke-width:3" />
<path d="M2233.23,39.9c3.21-0.31,8.02-1.37,12.43-1.85" style="fill:none;stroke:#999;stroke-width:3" />
<path d="M2252.5,28.64c0.25,0.21,0.51,0.39,0.62,0.66c0.87,2.11,1.49,5.92,2.08,9.7" style="fill:none;stroke:#999;stroke-width:3" />
<path d="M2253.56,30.07c5.11-1.1,12.48-2.31,15.41-2.59c1.07-0.1,1.71,0.6,1.56,1.19c-0.63,2.46-1.79,4.38-2.73,7.79" style="fill:none;stroke:#999;stroke-width:3" />
<path d="M2255.3199999999997,37.65c3.44-0.31,8.65-0.9,13.38-1.39" style="fill:none;stroke:#999;stroke-width:3" />
<path d="M2232.2,49.69c0.73,0.27,2.83,0.32,3.56,0.27c6.64-0.51,24.77-2.47,31.91-3.06c1.21-0.1,1.94,0.13,2.55,0.26" style="fill:none;stroke:#999;stroke-width:3" />
<path d="M2241.02,44.44c1.11,0.46,1.62,2.5,1.62,3.46c0,3.1,0.3,12.1,0.3,19.51" style="fill:none;stroke:#999;stroke-width:3" />
<path d="M2256.25,43.25c0.9,0.91,0.83,2,0.73,3.42c-0.39,5.58-0.58,12.33-1.12,19.46" style="fill:none;stroke:black;stroke-width:3" />
<circle cx="2256.25" cy="43.25" r="5" stroke-width="0" fill="#FF2A00" opacity="0.7" />
<path d="M2303.74,17.19c0.51,0.56,0.99,2.93,0.99,4.06c-0.05,9.65-0.28,37.77-0.98,40.52" style="fill:none;stroke:#999;stroke-width:3" />
<path d="M2306.27,18.83c7.82-0.54,20.4-2.88,22.76-3.23c0.94-0.14,2.53-0.25,3-0.03" style="fill:none;stroke:#999;stroke-width:3" />
<path d="M2317.31,18.39c0.25,0.39,0.96,0.9,0.95,1.52c-0.02,6.31-0.06,28.59-0.25,38.51" style="fill:none;stroke:#999;stroke-width:3" />
<path d="M2305.16,33.46c6.26-0.6,19.75-3.13,22.44-3.54c0.94-0.14,2.53-0.25,3-0.02" style="fill:none;stroke:#999;stroke-width:3" />
<path d="M2304.76,45.79c6.26-0.6,20.25-2.15,22.94-2.55c0.94-0.14,2.53-0.25,3-0.03" style="fill:none;stroke:#999;stroke-width:3" />
<path d="M2304.49,61.15c6.17-1.44,20.04-3.63,23.43-4.24c4.33-0.78,4.19,2.87,3.95,6.6c-0.67,10.58-2.42,21.32-5.62,28.18c-2.75,5.88-5.32,0.42-6.21-0.88" style="fill:none;stroke:#999;stroke-width:3" />
<path d="M2299.29,71.32c0.28,6.55-0.57,12.31-0.87,13.62" style="fill:none;stroke:#999;stroke-width:3" />
<path d="M2305.7200000000003,70.29c1.35,2.52,2.5,5.7,2.81,10.19" style="fill:none;stroke:#999;stroke-width:3" />
<path d="M2312.59,68.42c0.7,1.18,2.91,5.08,4.01,8.95" style="fill:none;stroke:#999;stroke-width:3" />
<path d="M2319.2799999999997,66.63c1.56,2.28,4.13,4.63,4.69,7.65" style="fill:none;stroke:#999;stroke-width:3" />
<path d="M2357.05,11c0.58,0.39,1.54,1.74,1.54,2.64c0,1.48-0.08,4.76-0.08,6.38" style="fill:none;stroke:#999;stroke-width:3" />
<path d="M2337.7799999999997,22.36c0.98,0.11,3.19,0.18,4.15,0.11c7.07-0.48,24.69-2.97,35.1-3.3c1.61-0.05,2.43,0.05,3.63,0.78" style="fill:none;stroke:#999;stroke-width:3" />
<path d="M2339.6,29.87c0.23,0.21,0.5,0.38,0.57,0.66c0.77,2.79,1.39,6.93,1.95,10.73" style="fill:none;stroke:#999;stroke-width:3" />
<path d="M2341.05,31.3c4.77-1.1,10.12-2.29,12.85-2.57c1-0.1,1.6,0.6,1.46,1.2c-0.59,2.47-0.81,4.4-1.69,7.81" style="fill:none;stroke:#999;stroke-width:3" />
<path d="M2342.23,39.9c3.21-0.31,8.02-1.37,12.43-1.85" style="fill:none;stroke:#999;stroke-width:3" />
<path d="M2361.5,28.64c0.25,0.21,0.51,0.39,0.62,0.66c0.87,2.11,1.49,5.92,2.08,9.7" style="fill:none;stroke:#999;stroke-width:3" />
<path d="M2362.56,30.07c5.11-1.1,12.48-2.31,15.41-2.59c1.07-0.1,1.71,0.6,1.56,1.19c-0.63,2.46-1.79,4.38-2.73,7.79" style="fill:none;stroke:#999;stroke-width:3" />
<path d="M2364.3199999999997,37.65c3.44-0.31,8.65-0.9,13.38-1.39" style="fill:none;stroke:#999;stroke-width:3" />
<path d="M2341.2,49.69c0.73,0.27,2.83,0.32,3.56,0.27c6.64-0.51,24.77-2.47,31.91-3.06c1.21-0.1,1.94,0.13,2.55,0.26" style="fill:none;stroke:#999;stroke-width:3" />
<path d="M2350.02,44.44c1.11,0.46,1.62,2.5,1.62,3.46c0,3.1,0.3,12.1,0.3,19.51" style="fill:none;stroke:#999;stroke-width:3" />
<path d="M2365.25,43.25c0.9,0.91,0.83,2,0.73,3.42c-0.39,5.58-0.58,12.33-1.12,19.46" style="fill:none;stroke:#999;stroke-width:3" />
<path d="M2341.82,58.55c0.84,0.36,3.27,0.44,4.12,0.36c7.68-0.7,21.13-2.02,29.38-2.83c1.4-0.14,2.24,0.17,2.95,0.35" style="fill:none;stroke:black;stroke-width:3" />
<circle cx="2341.82" cy="58.55" r="5" stroke-width="0" fill="#FF2A00" opacity="0.7" />
<path d="M2412.74,17.19c0.51,0.56,0.99,2.93,0.99,4.06c-0.05,9.65-0.28,37.77-0.98,40.52" style="fill:none;stroke:#999;stroke-width:3" />
<path d="M2415.27,18.83c7.82-0.54,20.4-2.88,22.76-3.23c0.94-0.14,2.53-0.25,3-0.03" style="fill:none;stroke:#999;stroke-width:3" />
<path d="M2426.31,18.39c0.25,0.39,0.96,0.9,0.95,1.52c-0.02,6.31-0.06,28.59-0.25,38.51" style="fill:none;stroke:#999;stroke-width:3" />
<path d="M2414.16,33.46c6.26-0.6,19.75-3.13,22.44-3.54c0.94-0.14,2.53-0.25,3-0.02" style="fill:none;stroke:#999;stroke-width:3" />
<path d="M2413.76,45.79c6.26-0.6,20.25-2.15,22.94-2.55c0.94-0.14,2.53-0.25,3-0.03" style="fill:none;stroke:#999;stroke-width:3" />
<path d="M2413.49,61.15c6.17-1.44,20.04-3.63,23.43-4.24c4.33-0.78,4.19,2.87,3.95,6.6c-0.67,10.58-2.42,21.32-5.62,28.18c-2.75,5.88-5.32,0.42-6.21-0.88" style="fill:none;stroke:#999;stroke-width:3" />
<path d="M2408.29,71.32c0.28,6.55-0.57,12.31-0.87,13.62" style="fill:none;stroke:#999;stroke-width:3" />
<path d="M2414.7200000000003,70.29c1.35,2.52,2.5,5.7,2.81,10.19" style="fill:none;stroke:#999;stroke-width:3" />
<path d="M2421.59,68.42c0.7,1.18,2.91,5.08,4.01,8.95" style="fill:none;stroke:#999;stroke-width:3" />
<path d="M2428.2799999999997,66.63c1.56,2.28,4.13,4.63,4.69,7.65" style="fill:none;stroke:#999;stroke-width:3" />
<path d="M2466.05,11c0.58,0.39,1.54,1.74,1.54,2.64c0,1.48-0.08,4.76-0.08,6.38" style="fill:none;stroke:#999;stroke-width:3" />
<path d="M2446.7799999999997,22.36c0.98,0.11,3.19,0.18,4.15,0.11c7.07-0.48,24.69-2.97,35.1-3.3c1.61-0.05,2.43,0.05,3.63,0.78" style="fill:none;stroke:#999;stroke-width:3" />
<path d="M2448.6,29.87c0.23,0.21,0.5,0.38,0.57,0.66c0.77,2.79,1.39,6.93,1.95,10.73" style="fill:none;stroke:#999;stroke-width:3" />
<path d="M2450.05,31.3c4.77-1.1,10.12-2.29,12.85-2.57c1-0.1,1.6,0.6,1.46,1.2c-0.59,2.47-0.81,4.4-1.69,7.81" style="fill:none;stroke:#999;stroke-width:3" />
<path d="M2451.23,39.9c3.21-0.31,8.02-1.37,12.43-1.85" style="fill:none;stroke:#999;stroke-width:3" />
<path d="M2470.5,28.64c0.25,0.21,0.51,0.39,0.62,0.66c0.87,2.11,1.49,5.92,2.08,9.7" style="fill:none;stroke:#999;stroke-width:3" />
<path d="M2471.56,30.07c5.11-1.1,12.48-2.31,15.41-2.59c1.07-0.1,1.71,0.6,1.56,1.19c-0.63,2.46-1.79,4.38-2.73,7.79" style="fill:none;stroke:#999;stroke-width:3" />
<path d="M2473.3199999999997,37.65c3.44-0.31,8.65-0.9,13.38-1.39" style="fill:none;stroke:#999;stroke-width:3" />
<path d="M2450.2,49.69c0.73,0.27,2.83,0.32,3.56,0.27c6.64-0.51,24.77-2.47,31.91-3.06c1.21-0.1,1.94,0.13,2.55,0.26" style="fill:none;stroke:#999;stroke-width:3" />
<path d="M2459.02,44.44c1.11,0.46,1.62,2.5,1.62,3.46c0,3.1,0.3,12.1,0.3,19.51" style="fill:none;stroke:#999;stroke-width:3" />
<path d="M2474.25,43.25c0.9,0.91,0.83,2,0.73,3.42c-0.39,5.58-0.58,12.33-1.12,19.46" style="fill:none;stroke:#999;stroke-width:3" />
<path d="M2450.82,58.55c0.84,0.36,3.27,0.44,4.12,0.36c7.68-0.7,21.13-2.02,29.38-2.83c1.4-0.14,2.24,0.17,2.95,0.35" style="fill:none;stroke:#999;stroke-width:3" />
<path d="M2445.98,69.17c1.23,0.35,3.48,0.49,4.71,0.35C2461.93,68.25 2479.0,66.25 2490.2,65.57c2.04-0.12,3.28,0.17,4.3,0.34" style="fill:none;stroke:black;stroke-width:3" />
<circle cx="2445.98" cy="69.17" r="5" stroke-width="0" fill="#FF2A00" opacity="0.7" />
<path d="M2521.74,17.19c0.51,0.56,0.99,2.93,0.99,4.06c-0.05,9.65-0.28,37.77-0.98,40.52" style="fill:none;stroke:#999;stroke-width:3" />
<path d="M2524.27,18.83c7.82-0.54,20.4-2.88,22.76-3.23c0.94-0.14,2.53-0.25,3-0.03" style="fill:none;stroke:#999;stroke-width:3" />
<path d="M2535.31,18.39c0.25,0.39,0.96,0.9,0.95,1.52c-0.02,6.31-0.06,28.59-0.25,38.51" style="fill:none;stroke:#999;stroke-width:3" />
<path d="M2523.16,33.46c6.26-0.6,19.75-3.13,22.44-3.54c0.94-0.14,2.53-0.25,3-0.02" style="fill:none;stroke:#999;stroke-width:3" />
<path d="M2522.76,45.79c6.26-0.6,20.25-2.15,22.94-2.55c0.94-0.14,2.53-0.25,3-0.03" style="fill:none;stroke:#999;stroke-width:3" />
<path d="M2522.49,61.15c6.17-1.44,20.04-3.63,23.43-4.24c4.33-0.78,4.19,2.87,3.95,6.6c-0.67,10.58-2.42,21.32-5.62,28.18c-2.75,5.88-5.32,0.42-6.21-0.88" style="fill:none;stroke:#999;stroke-width:3" />
<path d="M2517.29,71.32c0.28,6.55-0.57,12.31-0.87,13.62" style="fill:none;stroke:#999;stroke-width:3" />
<path d="M2523.7200000000003,70.29c1.35,2.52,2.5,5.7,2.81,10.19" style="fill:none;stroke:#999;stroke-width:3" />
<path d="M2530.59,68.42c0.7,1.18,2.91,5.08,4.01,8.95" style="fill:none;stroke:#999;stroke-width:3" />
<path d="M2537.2799999999997,66.63c1.56,2.28,4.13,4.63,4.69,7.65" style="fill:none;stroke:#999;stroke-width:3" />
<path d="M2575.05,11c0.58,0.39,1.54,1.74,1.54,2.64c0,1.48-0.08,4.76-0.08,6.38" style="fill:none;stroke:#999;stroke-width:3" />
<path d="M2555.7799999999997,22.36c0.98,0.11,3.19,0.18,4.15,0.11c7.07-0.48,24.69-2.97,35.1-3.3c1.61-0.05,2.43,0.05,3.63,0.78" style="fill:none;stroke:#999;stroke-width:3" />
<path d="M2557.6,29.87c0.23,0.21,0.5,0.38,0.57,0.66c0.77,2.79,1.39,6.93,1.95,10.73" style="fill:none;stroke:#999;stroke-width:3" />
<path d="M2559.05,31.3c4.77-1.1,10.12-2.29,12.85-2.57c1-0.1,1.6,0.6,1.46,1.2c-0.59,2.47-0.81,4.4-1.69,7.81" style="fill:none;stroke:#999;stroke-width:3" />
<path d="M2560.23,39.9c3.21-0.31,8.02-1.37,12.43-1.85" style="fill:none;stroke:#999;stroke-width:3" />
<path d="M2579.5,28.64c0.25,0.21,0.51,0.39,0.62,0.66c0.87,2.11,1.49,5.92,2.08,9.7" style="fill:none;stroke:#999;stroke-width:3" />
<path d="M2580.56,30.07c5.11-1.1,12.48-2.31,15.41-2.59c1.07-0.1,1.71,0.6,1.56,1.19c-0.63,2.46-1.79,4.38-2.73,7.79" style="fill:none;stroke:#999;stroke-width:3" />
<path d="M2582.3199999999997,37.65c3.44-0.31,8.65-0.9,13.38-1.39" style="fill:none;stroke:#999;stroke-width:3" />
<path d="M2559.2,49.69c0.73,0.27,2.83,0.32,3.56,0.27c6.64-0.51,24.77-2.47,31.91-3.06c1.21-0.1,1.94,0.13,2.55,0.26" style="fill:none;stroke:#999;stroke-width:3" />
<path d="M2568.02,44.44c1.11,0.46,1.62,2.5,1.62,3.46c0,3.1,0.3,12.1,0.3,19.51" style="fill:none;stroke:#999;stroke-width:3" />
<path d="M2583.25,43.25c0.9,0.91,0.83,2,0.73,3.42c-0.39,5.58-0.58,12.33-1.12,19.46" style="fill:none;stroke:#999;stroke-width:3" />
<path d="M2559.82,58.55c0.84,0.36,3.27,0.44,4.12,0.36c7.68-0.7,21.13-2.02,29.38-2.83c1.4-0.14,2.24,0.17,2.95,0.35" style="fill:none;stroke:#999;stroke-width:3" />
<path d="M2554.98,69.17c1.23,0.35,3.48,0.49,4.71,0.35C2570.93,68.25 2588.0,66.25 2599.2,65.57c2.04-0.12,3.28,0.17,4.3,0.34" style="fill:none;stroke:#999;stroke-width:3" />
<path d="M2571.58,68.89c0.05,0.42,0.2,1.11-0.1,1.68c-1.96,3.65-8.34,11.19-18.17,16.95" style="fill:none;stroke:black;stroke-width:3" />
<circle cx="2571.58" cy="68.89" r="5" stroke-width="0" fill="#FF2A00" opacity="0.7" />
<path d="M2630.74,17.19c0.51,0.56,0.99,2.93,0.99,4.06c-0.05,9.65-0.28,37.77-0.98,40.52" style="fill:none;stroke:#999;stroke-width:3" />
<path d="M2633.27,18.83c7.82-0.54,20.4-2.88,22.76-3.23c0.94-0.14,2.53-0.25,3-0.03" style="fill:none;stroke:#999;stroke-width:3" />
<path d="M2644.31,18.39c0.25,0.39,0.96,0.9,0.95,1.52c-0.02,6.31-0.06,28.59-0.25,38.51" style="fill:none;stroke:#999;stroke-width:3" />
<path d="M2632.16,33.46c6.26-0.6,19.75-3.13,22.44-3.54c0.94-0.14,2.53-0.25,3-0.02" style="fill:none;stroke:#999;stroke-width:3" />
<path d="M2631.76,45.79c6.26-0.6,20.25-2.15,22.94-2.55c0.94-0.14,2.53-0.25,3-0.03" style="fill:none;stroke:#999;stroke-width:3" />
<path d="M2631.49,61.15c6.17-1.44,20.04-3.63,23.43-4.24c4.33-0.78,4.19,2.87,3.95,6.6c-0.67,10.58-2.42,21.32-5.62,28.18c-2.75,5.88-5.32,0.42-6.21-0.88" style="fill:none;stroke:#999;stroke-width:3" />
<path d="M2626.29,71.32c0.28,6.55-0.57,12.31-0.87,13.62" style="fill:none;stroke:#999;stroke-width:3" />
<path d="M2632.7200000000003,70.29c1.35,2.52,2.5,5.7,2.81,10.19" style="fill:none;stroke:#999;stroke-width:3" />
<path d="M2639.59,68.42c0.7,1.18,2.91,5.08,4.01,8.95" style="fill:none;stroke:#999;stroke-width:3" />
<path d="M2646.2799999999997,66.63c1.56,2.28,4.13,4.63,4.69,7.65" style="fill:none;stroke:#999;stroke-width:3" />
<path d="M2684.05,11c0.58,0.39,1.54,1.74,1.54,2.64c0,1.48-0.08,4.76-0.08,6.38" style="fill:none;stroke:#999;stroke-width:3" />
<path d="M2664.7799999999997,22.36c0.98,0.11,3.19,0.18,4.15,0.11c7.07-0.48,24.69-2.97,35.1-3.3c1.61-0.05,2.43,0.05,3.63,0.78" style="fill:none;stroke:#999;stroke-width:3" />
<path d="M2666.6,29.87c0.23,0.21,0.5,0.38,0.57,0.66c0.77,2.79,1.39,6.93,1.95,10.73" style="fill:none;stroke:#999;stroke-width:3" />
<path d="M2668.05,31.3c4.77-1.1,10.12-2.29,12.85-2.57c1-0.1,1.6,0.6,1.46,1.2c-0.59,2.47-0.81,4.4-1.69,7.81" style="fill:none;stroke:#999;stroke-width:3" />
<path d="M2669.23,39.9c3.21-0.31,8.02-1.37,12.43-1.85" style="fill:none;stroke:#999;stroke-width:3" />
<path d="M2688.5,28.64c0.25,0.21,0.51,0.39,0.62,0.66c0.87,2.11,1.49,5.92,2.08,9.7" style="fill:none;stroke:#999;stroke-width:3" />
<path d="M2689.56,30.07c5.11-1.1,12.48-2.31,15.41-2.59c1.07-0.1,1.71,0.6,1.56,1.19c-0.63,2.46-1.79,4.38-2.73,7.79" style="fill:none;stroke:#999;stroke-width:3" />
<path d="M2691.3199999999997,37.65c3.44-0.31,8.65-0.9,13.38-1.39" style="fill:none;stroke:#999;stroke-width:3" />
<path d="M2668.2,49.69c0.73,0.27,2.83,0.32,3.56,0.27c6.64-0.51,24.77-2.47,31.91-3.06c1.21-0.1,1.94,0.13,2.55,0.26" style="fill:none;stroke:#999;stroke-width:3" />
<path d="M2677.02,44.44c1.11,0.46,1.62,2.5,1.62,3.46c0,3.1,0.3,12.1,0.3,19.51" style="fill:none;stroke:#999;stroke-width:3" />
<path d="M2692.25,43.25c0.9,0.91,0.83,2,0.73,3.42c-0.39,5.58-0.58,12.33-1.12,19.46" style="fill:none;stroke:#999;stroke-width:3" />
<path d="M2668.82,58.55c0.84,0.36,3.27,0.44,4.12,0.36c7.68-0.7,21.13-2.02,29.38-2.83c1.4-0.14,2.24,0.17,2.95,0.35" style="fill:none;stroke:#999;stroke-width:3" />
<path d="M2663.98,69.17c1.23,0.35,3.48,0.49,4.71,0.35C2679.93,68.25 2697.0,66.25 2708.2,65.57c2.04-0.12,3.28,0.17,4.3,0.34" style="fill:none;stroke:#999;stroke-width:3" />
<path d="M2680.58,68.89c0.05,0.42,0.2,1.11-0.1,1.68c-1.96,3.65-8.34,11.19-18.17,16.95" style="fill:none;stroke:#999;stroke-width:3" />
<path d="M2675.69,81.15c0.36,0.29,0.76,1.58,0.76,2.08c-0.02,6.4-0.75,10.93-0.75,12.02c0,1.08,0.9,1.7,2.04,0.89s8.6-7.39,11.04-9.23" style="fill:none;stroke:black;stroke-width:3" />
<circle cx="2675.69" cy="81.15" r="5" stroke-width="0" fill="#FF2A00" opacity="0.7" />
<path d="M2739.74,17.19c0.51,0.56,0.99,2.93,0.99,4.06c-0.05,9.65-0.28,37.77-0.98,40.52" style="fill:none;stroke:#999;stroke-width:3" />
<path d="M2742.27,18.83c7.82-0.54,20.4-2.88,22.76-3.23c0.94-0.14,2.53-0.25,3-0.03" style="fill:none;stroke:#999;stroke-width:3" />
<path d="M2753.31,18.39c0.25,0.39,0.96,0.9,0.95,1.52c-0.02,6.31-0.06,28.59-0.25,38.51" style="fill:none;stroke:#999;stroke-width:3" />
<path d="M2741.16,33.46c6.26-0.6,19.75-3.13,22.44-3.54c0.94-0.14,2.53-0.25,3-0.02" style="fill:none;stroke:#999;stroke-width:3" />
<path d="M2740.76,45.79c6.26-0.6,20.25-2.15,22.94-2.55c0.94-0.14,2.53-0.25,3-0.03" style="fill:none;stroke:#999;stroke-width:3" />
<path d="M2740.49,61.15c6.17-1.44,20.04-3.63,23.43-4.24c4.33-0.78,4.19,2.87,3.95,6.6c-0.67,10.58-2.42,21.32-5.62,28.18c-2.75,5.88-5.32,0.42-6.21-0.88" style="fill:none;stroke:#999;stroke-width:3" />
<path d="M2735.29,71.32c0.28,6.55-0.57,12.31-0.87,13.62" style="fill:none;stroke:#999;stroke-width:3" />
<path d="M2741.7200000000003,70.29c1.35,2.52,2.5,5.7,2.81,10.19" style="fill:none;stroke:#999;stroke-width:3" />
<path d="M2748.59,68.42c0.7,1.18,2.91,5.08,4.01,8.95" style="fill:none;stroke:#999;stroke-width:3" />
<path d="M2755.2799999999997,66.63c1.56,2.28,4.13,4.63,4.69,7.65" style="fill:none;stroke:#999;stroke-width:3" />
<path d="M2793.05,11c0.58,0.39,1.54,1.74,1.54,2.64c0,1.48-0.08,4.76-0.08,6.38" style="fill:none;stroke:#999;stroke-width:3" />
<path d="M2773.7799999999997,22.36c0.98,0.11,3.19,0.18,4.15,0.11c7.07-0.48,24.69-2.97,35.1-3.3c1.61-0.05,2.43,0.05,3.63,0.78" style="fill:none;stroke:#999;stroke-width:3" />
<path d="M2775.6,29.87c0.23,0.21,0.5,0.38,0.57,0.66c0.77,2.79,1.39,6.93,1.95,10.73" style="fill:none;stroke:#999;stroke-width:3" />
<path d="M2777.05,31.3c4.77-1.1,10.12-2.29,12.85-2.57c1-0.1,1.6,0.6,1.46,1.2c-0.59,2.47-0.81,4.4-1.69,7.81" style="fill:none;stroke:#999;stroke-width:3" />
<path d="M2778.23,39.9c3.21-0.31,8.02-1.37,12.43-1.85" style="fill:none;stroke:#999;stroke-width:3" />
<path d="M2797.5,28.64c0.25,0.21,0.51,0.39,0.62,0.66c0.87,2.11,1.49,5.92,2.08,9.7" style="fill:none;stroke:#999;stroke-width:3" />
<path d="M2798.56,30.07c5.11-1.1,12.48-2.31,15.41-2.59c1.07-0.1,1.71,0.6,1.56,1.19c-0.63,2.46-1.79,4.38-2.73,7.79" style="fill:none;stroke:#999;stroke-width:3" />
<path d="M2800.3199999999997,37.65c3.44-0.31,8.65-0.9,13.38-1.39" style="fill:none;stroke:#999;stroke-width:3" />
<path d="M2777.2,49.69c0.73,0.27,2.83,0.32,3.56,0.27c6.64-0.51,24.77-2.47,31.91-3.06c1.21-0.1,1.94,0.13,2.55,0.26" style="fill:none;stroke:#999;stroke-width:3" />
<path d="M2786.02,44.44c1.11,0.46,1.62,2.5,1.62,3.46c0,3.1,0.3,12.1,0.3,19.51" style="fill:none;stroke:#999;stroke-width:3" />
<path d="M2801.25,43.25c0.9,0.91,0.83,2,0.73,3.42c-0.39,5.58-0.58,12.33-1.12,19.46" style="fill:none;stroke:#999;stroke-width:3" />
<path d="M2777.82,58.55c0.84,0.36,3.27,0.44,4.12,0.36c7.68-0.7,21.13-2.02,29.38-2.83c1.4-0.14,2.24,0.17,2.95,0.35" style="fill:none;stroke:#999;stroke-width:3" />
<path d="M2772.98,69.17c1.23,0.35,3.48,0.49,4.71,0.35C2788.93,68.25 2806.0,66.25 2817.2,65.57c2.04-0.12,3.28,0.17,4.3,0.34" style="fill:none;stroke:#999;stroke-width:3" />
<path d="M2789.58,68.89c0.05,0.42,0.2,1.11-0.1,1.68c-1.96,3.65-8.34,11.19-18.17,16.95" style="fill:none;stroke:#999;stroke-width:3" />
<path d="M2784.69,81.15c0.36,0.29,0.76,1.58,0.76,2.08c-0.02,6.4-0.75,10.93-0.75,12.02c0,1.08,0.9,1.7,2.04,0.89s8.6-7.39,11.04-9.23" style="fill:none;stroke:#999;stroke-width:3" />
<path d="M2813.28,71.7c0.03,0.21-0.31,1.42-0.48,1.7c-1.06,1.7-3.77,3.71-9.18,7.1" style="fill:none;stroke:black;stroke-width:3" />
<circle cx="2813.28" cy="71.7" r="5" stroke-width="0" fill="#FF2A00" opacity="0.7" />
<path d="M2848.74,17.19c0.51,0.56,0.99,2.93,0.99,4.06c-0.05,9.65-0.28,37.77-0.98,40.52" style="fill:none;stroke:#999;stroke-width:3" />
<path d="M2851.27,18.83c7.82-0.54,20.4-2.88,22.76-3.23c0.94-0.14,2.53-0.25,3-0.03" style="fill:none;stroke:#999;stroke-width:3" />
<path d="M2862.31,18.39c0.25,0.39,0.96,0.9,0.95,1.52c-0.02,6.31-0.06,28.59-0.25,38.51" style="fill:none;stroke:#999;stroke-width:3" />
<path d="M2850.16,33.46c6.26-0.6,19.75-3.13,22.44-3.54c0.94-0.14,2.53-0.25,3-0.02" style="fill:none;stroke:#999;stroke-width:3" />
<path d="M2849.76,45.79c6.26-0.6,20.25-2.15,22.94-2.55c0.94-0.14,2.53-0.25,3-0.03" style="fill:none;stroke:#999;stroke-width:3" />
<path d="M2849.49,61.15c6.17-1.44,20.04-3.63,23.43-4.24c4.33-0.78,4.19,2.87,3.95,6.6c-0.67,10.58-2.42,21.32-5.62,28.18c-2.75,5.88-5.32,0.42-6.21-0.88" style="fill:none;stroke:#999;stroke-width:3" />
<path d="M2844.29,71.32c0.28,6.55-0.57,12.31-0.87,13.62" style="fill:none;stroke:#999;stroke-width:3" />
<path d="M2850.7200000000003,70.29c1.35,2.52,2.5,5.7,2.81,10.19" style="fill:none;stroke:#999;stroke-width:3" />
<path d="M2857.59,68.42c0.7,1.18,2.91,5.08,4.01,8.95" style="fill:none;stroke:#999;stroke-width:3" />
<path d="M2864.2799999999997,66.63c1.56,2.28,4.13,4.63,4.69,7.65" style="fill:none;stroke:#999;stroke-width:3" />
<path d="M2902.05,11c0.58,0.39,1.54,1.74,1.54,2.64c0,1.48-0.08,4.76-0.08,6.38" style="fill:none;stroke:#999;stroke-width:3" />
<path d="M2882.7799999999997,22.36c0.98,0.11,3.19,0.18,4.15,0.11c7.07-0.48,24.69-2.97,35.1-3.3c1.61-0.05,2.43,0.05,3.63,0.78" style="fill:none;stroke:#999;stroke-width:3" />
<path d="M2884.6,29.87c0.23,0.21,0.5,0.38,0.57,0.66c0.77,2.79,1.39,6.93,1.95,10.73" style="fill:none;stroke:#999;stroke-width:3" />
<path d="M2886.05,31.3c4.77-1.1,10.12-2.29,12.85-2.57c1-0.1,1.6,0.6,1.46,1.2c-0.59,2.47-0.81,4.4-1.69,7.81" style="fill:none;stroke:#999;stroke-width:3" />
<path d="M2887.23,39.9c3.21-0.31,8.02-1.37,12.43-1.85" style="fill:none;stroke:#999;stroke-width:3" />
<path d="M2906.5,28.64c0.25,0.21,0.51,0.39,0.62,0.66c0.87,2.11,1.49,5.92,2.08,9.7" style="fill:none;stroke:#999;stroke-width:3" />
<path d="M2907.56,30.07c5.11-1.1,12.48-2.31,15.41-2.59c1.07-0.1,1.71,0.6,1.56,1.19c-0.63,2.46-1.79,4.38-2.73,7.79" style="fill:none;stroke:#999;stroke-width:3" />
<path d="M2909.3199999999997,37.65c3.44-0.31,8.65-0.9,13.38-1.39" style="fill:none;stroke:#999;stroke-width:3" />
<path d="M2886.2,49.69c0.73,0.27,2.83,0.32,3.56,0.27c6.64-0.51,24.77-2.47,31.91-3.06c1.21-0.1,1.94,0.13,2.55,0.26" style="fill:none;stroke:#999;stroke-width:3" />
<path d="M2895.02,44.44c1.11,0.46,1.62,2.5,1.62,3.46c0,3.1,0.3,12.1,0.3,19.51" style="fill:none;stroke:#999;stroke-width:3" />
<path d="M2910.25,43.25c0.9,0.91,0.83,2,0.73,3.42c-0.39,5.58-0.58,12.33-1.12,19.46" style="fill:none;stroke:#999;stroke-width:3" />
<path d="M2886.82,58.55c0.84,0.36,3.27,0.44,4.12,0.36c7.68-0.7,21.13-2.02,29.38-2.83c1.4-0.14,2.24,0.17,2.95,0.35" style="fill:none;stroke:#999;stroke-width:3" />
<path d="M2881.98,69.17c1.23,0.35,3.48,0.49,4.71,0.35C2897.93,68.25 2915.0,66.25 2926.2,65.57c2.04-0.12,3.28,0.17,4.3,0.34" style="fill:none;stroke:#999;stroke-width:3" />
<path d="M2898.58,68.89c0.05,0.42,0.2,1.11-0.1,1.68c-1.96,3.65-8.34,11.19-18.17,16.95" style="fill:none;stroke:#999;stroke-width:3" />
<path d="M2893.69,81.15c0.36,0.29,0.76,1.58,0.76,2.08c-0.02,6.4-0.75,10.93-0.75,12.02c0,1.08,0.9,1.7,2.04,0.89s8.6-7.39,11.04-9.23" style="fill:none;stroke:#999;stroke-width:3" />
<path d="M2922.28,71.7c0.03,0.21-0.31,1.42-0.48,1.7c-1.06,1.7-3.77,3.71-9.18,7.1" style="fill:none;stroke:#999;stroke-width:3" />
<path d="M2901.83,70.91c0.96,0.57,2.59,1.87,3.5,3.08C2910.25,80.5 2918.5,88.5 2925.76,92.91c1.39,0.84,2.35,1.45,3.61,1.74" style="fill:none;stroke:black;stroke-width:3" />
<circle cx="2901.83" cy="70.91" r="5" stroke-width="0" fill="#FF2A00" opacity="0.7" />
</svg>