<!-- 09a69 -->
<svg width="2943px" height="109px" viewBox="0 0 2943px 109px" xmlns="http://www.w3.org/2000/svg" xmlns:xlink="http://www.w3.org/1999/xlink" xml:space="preserve" version="1.1"  baseProfile="full">
<line x1="1" y1="1" x2="2942" y2="1" style="stroke:#ddd;stroke-width:2" />
<line x1="1" y1="1" x2="1" y2="108" style="stroke:#ddd;stroke-width:2" />
<line x1="1" y1="108" x2="2942" y2="108" style="stroke:#ddd;stroke-width:2" />
<line x1="2942" y1="1" x2="2942" y2="108" style="stroke:#ddd;stroke-width:2" />
<line x1="109" y1="1" x2="109" y2="108" style="stroke:#ddd;stroke-width:2" />
<line x1="218" y1="1" x2="218" y2="108" style="stroke:#ddd;stroke-width:2" />
<line x1="327" y1="1" x2="327" y2="108" style="stroke:#ddd;stroke-width:2" />
<line x1="436" y1="1" x2="436" y2="108" style="stroke:#ddd;stroke-width:2" />
<line x1="545" y1="1" x2="545" y2="108" style="stroke:#ddd;stroke-width:2" />
<line x1="654" y1="1" x2="654" y2="108" style="stroke:#ddd;stroke-width:2" />
<line x1="763" y1="1" x2="763" y2="108" style="stroke:#ddd;stroke-width:2" />
<line x1="872" y1="1" x2="872" y2="108" style="stroke:#ddd;stroke-width:2" />
<line x1="981" y1="1" x2="981" y2="108" style="stroke:#ddd;stroke-width:2" />
<line x1="1090" y1="1" x2="1090" y2="108" style="stroke:#ddd;stroke-width:2" />
<line x1="1199" y1="1" x2="1199" y2="108" style="stroke:#ddd;stroke-width:2" />
<line x1="1308" y1="1" x2="1308" y2="108" style="stroke:#ddd;stroke-width:2" />
<line x1="1417" y1="1" x2="1417" y2="108" style="stroke:#ddd;stroke-width:2" />
<line x1="1526" y1="1" x2="1526" y2="108" style="stroke:#ddd;stroke-width:2" />
<line x1="1635" y1="1" x2="1635" y2="108" style="stroke:#ddd;stroke-width:2" />
<line x1="1744" y1="1" x2="1744" y2="108" style="stroke:#ddd;stroke-width:2" />
<line x1="1853" y1="1" x2="1853" y2="108" style="stroke:#ddd;stroke-width:2" />
<line x1="1962" y1="1" x2="1962" y2="108" style="stroke:#ddd;stroke-width:2" />
<line x1="2071" y1="1" x2="2071" y2="108" style="stroke:#ddd;stroke-width:2" />
<line x1="2180" y1="1" x2="2180" y2="108" style="stroke:#ddd;stroke-width:2" />
<line x1="2289" y1="1" x2="2289" y2="108" style="stroke:#ddd;stroke-width:2" />
<line x1="2398" y1="1" x2="2398" y2="108" style="stroke:#ddd;stroke-width:2" />
<line x1="2507" y1="1" x2="2507" y2="108" style="stroke:#ddd;stroke-width:2" />
<line x1="2616" y1="1" x2="2616" y2="108" style="stroke:#ddd;stroke-width:2" />
<line x1="2725" y1="1" x2="2725" y2="108" style="stroke:#ddd;stroke-width:2" />
<line x1="2834" y1="1" x2="2834" y2="108" style="stroke:#ddd;stroke-width:2" />
<line x1="1" y1="54" x2="2942" y2="54" style="stroke:#ddd;stroke-width:2;stroke-dasharray:3 3" />
<line x1="55" y1="1" x2="55" y2="108" style="stroke:#ddd;stroke-width:2;stroke-dasharray:3 3" />
<line x1="164" y1="1" x2="164" y2="108" style="stroke:#ddd;stroke-width:2;stroke-dasharray:3 3" />
<line x1="273" y1="1" x2="273" y2="108" style="stroke:#ddd;stroke-width:2;stroke-dasharray:3 3" />
<line x1="382" y1="1" x2="382" y2="108" style="stroke:#ddd;stroke-width:2;stroke-dasharray:3 3" />
<line x1="491" y1="1" x2="491" y2="108" style="stroke:#ddd;stroke-width:2;stroke-dasharray:3 3" />
<line x1="600" y1="1" x2="600" y2="108" style="stroke:#ddd;stroke-width:2;stroke-dasharray:3 3" />
<line x1="709" y1="1" x2="709" y2="108" style="stroke:#ddd;stroke-width:2;stroke-dasharray:3 3" />
<line x1="818" y1="1" x2="818" y2="108" style="stroke:#ddd;stroke-width:2;stroke-dasharray:3 3" />
<line x1="927" y1="1" x2="927" y2="108" style="stroke:#ddd;stroke-width:2;stroke-dasharray:3 3" />
<line x1="1036" y1="1" x2="1036" y2="108" style="stroke:#ddd;stroke-width:2;stroke-dasharray:3 3" />
<line x1="1145" y1="1" x2="1145" y2="108" style="stroke:#ddd;stroke-width:2;stroke-dasharray:3 3" />
<line x1="1254" y1="1" x2="1254" y2="108" style="stroke:#ddd;stroke-width:2;stroke-dasharray:3 3" />
<line x1="1363" y1="1" x2="1363" y2="108" style="stroke:#ddd;stroke-width:2;stroke-dasharray:3 3" />
<line x1="1472" y1="1" x2="1472" y2="108" style="stroke:#ddd;stroke-width:2;stroke-dasharray:3 3" />
<line x1="1581" y1="1" x2="1581" y2="108" style="stroke:#ddd;stroke-width:2;stroke-dasharray:3 3" />
<line x1="1690" y1="1" x2="1690" y2="108" style="stroke:#ddd;stroke-width:2;stroke-dasharray:3 3" />
<line x1="1799" y1="1" x2="1799" y2="108" style="stroke:#ddd;stroke-width:2;stroke-dasharray:3 3" />
<line x1="1908" y1="1" x2="1908" y2="108" style="stroke:#ddd;stroke-width:2;stroke-dasharray:3 3" />
<line x1="2017" y1="1" x2="2017" y2="108" style="stroke:#ddd;stroke-width:2;stroke-dasharray:3 3" />
<line x1="2126" y1="1" x2="2126" y2="108" style="stroke:#ddd;stroke-width:2;stroke-dasharray:3 3" />
<line x1="2235" y1="1" x2="2235" y2="108" style="stroke:#ddd;stroke-width:2;stroke-dasharray:3 3" />
<line x1="2344" y1="1" x2="2344" y2="108" style="stroke:#ddd;stroke-width:2;stroke-dasharray:3 3" />
<line x1="2453" y1="1" x2="2453" y2="108" style="stroke:#ddd;stroke-width:2;stroke-dasharray:3 3" />
<line x1="2562" y1="1" x2="2562" y2="108" style="stroke:#ddd;stroke-width:2;stroke-dasharray:3 3" />
<line x1="2671" y1="1" x2="2671" y2="108" style="stroke:#ddd;stroke-width:2;stroke-dasharray:3 3" />
<line x1="2780" y1="1" x2="2780" y2="108" style="stroke:#ddd;stroke-width:2;stroke-dasharray:3 3" />
<line x1="2889" y1="1" x2="2889" y2="108" style="stroke:#ddd;stroke-width:2;stroke-dasharray:3 3" />
<path d="M13.74,16.38c1.01,1.12,1,3.4,0.99,4.86c-0.05,10.36-0.29,39.9-0.98,42.8" style="fill:none;stroke:black;stroke-width:3" />
<circle cx="13.74" cy="16.38" r="5" stroke-width="0" fill="#FF2A00" opacity="0.7" />
<path d="M122.74,16.38c1.01,1.12,1,3.4,0.99,4.86c-0.05,10.36-0.29,39.9-0.98,42.8" style="fill:none;stroke:#999;stroke-width:3" />
<path d="M124.27,18c7.82-0.57,21.4-2.52,23.76-2.9c0.94-0.15,2.53-0.27,3-0.03" style="fill:none;stroke:black;stroke-width:3" />
<circle cx="124.27" cy="18.0" r="5" stroke-width="0" fill="#FF2A00" opacity="0.7" />
<path d="M231.74,16.38c1.01,1.12,1,3.4,0.99,4.86c-0.05,10.36-0.29,39.9-0.98,42.8" style="fill:none;stroke:#999;stroke-width:3" />
<path d="M233.26999999999998,18c7.82-0.57,21.4-2.52,23.76-2.9c0.94-0.15,2.53-0.27,3-0.03" style="fill:none;stroke:#999;stroke-width:3" />
<path d="M245.31,18.06c0.25,0.41,0.96,0.95,0.95,1.61c-0.02,6.69-0.06,30.3-0.25,40.82" style="fill:none;stroke:black;stroke-width:3" />
<circle cx="245.31" cy="18.06" r="5" stroke-width="0" fill="#FF2A00" opacity="0.7" />
<path d="M340.74,16.38c1.01,1.12,1,3.4,0.99,4.86c-0.05,10.36-0.29,39.9-0.98,42.8" style="fill:none;stroke:#999;stroke-width:3" />
<path d="M342.27,18c7.82-0.57,21.4-2.52,23.76-2.9c0.94-0.15,2.53-0.27,3-0.03" style="fill:none;stroke:#999;stroke-width:3" />
<path d="M354.31,18.06c0.25,0.41,0.96,0.95,0.95,1.61c-0.02,6.69-0.06,30.3-0.25,40.82" style="fill:none;stroke:#999;stroke-width:3" />
<path d="M342.16,32.48c6.26-0.63,18.25-2.73,20.94-3.16c0.94-0.15,2.53-0.26,3-0.03" style="fill:none;stroke:black;stroke-width:3" />
<circle cx="342.16" cy="32.48" r="5" stroke-width="0" fill="#FF2A00" opacity="0.7" />
<path d="M449.74,16.38c1.01,1.12,1,3.4,0.99,4.86c-0.05,10.36-0.29,39.9-0.98,42.8" style="fill:none;stroke:#999;stroke-width:3" />
<path d="M451.27,18c7.82-0.57,21.4-2.52,23.76-2.9c0.94-0.15,2.53-0.27,3-0.03" style="fill:none;stroke:#999;stroke-width:3" />
<path d="M463.31,18.06c0.25,0.41,0.96,0.95,0.95,1.61c-0.02,6.69-0.06,30.3-0.25,40.82" style="fill:none;stroke:#999;stroke-width:3" />
<path d="M451.16,32.48c6.26-0.63,18.25-2.73,20.94-3.16c0.94-0.15,2.53-0.26,3-0.03" style="fill:none;stroke:#999;stroke-width:3" />
<path d="M450.76,45.61c6.26-0.64,18.75-2.77,21.44-3.2c0.94-0.15,2.53-0.27,3-0.03" style="fill:none;stroke:black;stroke-width:3" />
<circle cx="450.76" cy="45.61" r="5" stroke-width="0" fill="#FF2A00" opacity="0.7" />
<path d="M558.74,16.38c1.01,1.12,1,3.4,0.99,4.86c-0.05,10.36-0.29,39.9-0.98,42.8" style="fill:none;stroke:#999;stroke-width:3" />
<path d="M560.27,18c7.82-0.57,21.4-2.52,23.76-2.9c0.94-0.15,2.53-0.27,3-0.03" style="fill:none;stroke:#999;stroke-width:3" />
<path d="M572.31,18.06c0.25,0.41,0.96,0.95,0.95,1.61c-0.02,6.69-0.06,30.3-0.25,40.82" style="fill:none;stroke:#999;stroke-width:3" />
<path d="M560.1600000000001,32.48c6.26-0.63,18.25-2.73,20.94-3.16c0.94-0.15,2.53-0.26,3-0.03" style="fill:none;stroke:#999;stroke-width:3" />
<path d="M559.76,45.61c6.26-0.64,18.75-2.77,21.44-3.2c0.94-0.15,2.53-0.27,3-0.03" style="fill:none;stroke:#999;stroke-width:3" />
<path d="M559.49,63.39c6.17-1.53,22.03-3.92,25.43-4.52c2.08-0.37,4.19,0.54,3.95,4.49C588.2,74.57 585.0,87.75 580.75,95.28c-3.35,5.93-5.32,0.44-6.21-0.93" style="fill:none;stroke:black;stroke-width:3" />
<circle cx="559.49" cy="63.39" r="5" stroke-width="0" fill="#FF2A00" opacity="0.7" />
<path d="M667.74,16.38c1.01,1.12,1,3.4,0.99,4.86c-0.05,10.36-0.29,39.9-0.98,42.8" style="fill:none;stroke:#999;stroke-width:3" />
<path d="M669.27,18c7.82-0.57,21.4-2.52,23.76-2.9c0.94-0.15,2.53-0.27,3-0.03" style="fill:none;stroke:#999;stroke-width:3" />
<path d="M681.31,18.06c0.25,0.41,0.96,0.95,0.95,1.61c-0.02,6.69-0.06,30.3-0.25,40.82" style="fill:none;stroke:#999;stroke-width:3" />
<path d="M669.1600000000001,32.48c6.26-0.63,18.25-2.73,20.94-3.16c0.94-0.15,2.53-0.26,3-0.03" style="fill:none;stroke:#999;stroke-width:3" />
<path d="M668.76,45.61c6.26-0.64,18.75-2.77,21.44-3.2c0.94-0.15,2.53-0.27,3-0.03" style="fill:none;stroke:#999;stroke-width:3" />
<path d="M668.49,63.39c6.17-1.53,22.03-3.92,25.43-4.52c2.08-0.37,4.19,0.54,3.95,4.49C697.2,74.57 694.0,87.75 689.75,95.28c-3.35,5.93-5.32,0.44-6.21-0.93" style="fill:none;stroke:#999;stroke-width:3" />
<path d="M666.49,75.65c0.42,5.86-1.36,10.52-1.81,11.69" style="fill:none;stroke:black;stroke-width:3" />
<circle cx="666.49" cy="75.65" r="5" stroke-width="0" fill="#FF2A00" opacity="0.7" />
<path d="M776.74,16.38c1.01,1.12,1,3.4,0.99,4.86c-0.05,10.36-0.29,39.9-0.98,42.8" style="fill:none;stroke:#999;stroke-width:3" />
<path d="M778.27,18c7.82-0.57,21.4-2.52,23.76-2.9c0.94-0.15,2.53-0.27,3-0.03" style="fill:none;stroke:#999;stroke-width:3" />
<path d="M790.31,18.06c0.25,0.41,0.96,0.95,0.95,1.61c-0.02,6.69-0.06,30.3-0.25,40.82" style="fill:none;stroke:#999;stroke-width:3" />
<path d="M778.1600000000001,32.48c6.26-0.63,18.25-2.73,20.94-3.16c0.94-0.15,2.53-0.26,3-0.03" style="fill:none;stroke:#999;stroke-width:3" />
<path d="M777.76,45.61c6.26-0.64,18.75-2.77,21.44-3.2c0.94-0.15,2.53-0.27,3-0.03" style="fill:none;stroke:#999;stroke-width:3" />
<path d="M777.49,63.39c6.17-1.53,22.03-3.92,25.43-4.52c2.08-0.37,4.19,0.54,3.95,4.49C806.2,74.57 803.0,87.75 798.75,95.28c-3.35,5.93-5.32,0.44-6.21-0.93" style="fill:none;stroke:#999;stroke-width:3" />
<path d="M775.49,75.65c0.42,5.86-1.36,10.52-1.81,11.69" style="fill:none;stroke:#999;stroke-width:3" />
<path d="M782.0,73.28c1.08,2.28,2,5.15,2.25,9.21" style="fill:none;stroke:black;stroke-width:3" />
<circle cx="782.0" cy="73.28" r="5" stroke-width="0" fill="#FF2A00" opacity="0.7" />
<path d="M885.74,16.38c1.01,1.12,1,3.4,0.99,4.86c-0.05,10.36-0.29,39.9-0.98,42.8" style="fill:none;stroke:#999;stroke-width:3" />
<path d="M887.27,18c7.82-0.57,21.4-2.52,23.76-2.9c0.94-0.15,2.53-0.27,3-0.03" style="fill:none;stroke:#999;stroke-width:3" />
<path d="M899.31,18.06c0.25,0.41,0.96,0.95,0.95,1.61c-0.02,6.69-0.06,30.3-0.25,40.82" style="fill:none;stroke:#999;stroke-width:3" />
<path d="M887.1600000000001,32.48c6.26-0.63,18.25-2.73,20.94-3.16c0.94-0.15,2.53-0.26,3-0.03" style="fill:none;stroke:#999;stroke-width:3" />
<path d="M886.76,45.61c6.26-0.64,18.75-2.77,21.44-3.2c0.94-0.15,2.53-0.27,3-0.03" style="fill:none;stroke:#999;stroke-width:3" />
<path d="M886.49,63.39c6.17-1.53,22.03-3.92,25.43-4.52c2.08-0.37,4.19,0.54,3.95,4.49C915.2,74.57 912.0,87.75 907.75,95.28c-3.35,5.93-5.32,0.44-6.21-0.93" style="fill:none;stroke:#999;stroke-width:3" />
<path d="M884.49,75.65c0.42,5.86-1.36,10.52-1.81,11.69" style="fill:none;stroke:#999;stroke-width:3" />
<path d="M891.0,73.28c1.08,2.28,2,5.15,2.25,9.21" style="fill:none;stroke:#999;stroke-width:3" />
<path d="M897.94,70.68c0.56,1.11,2.56,4.79,2.81,8.43" style="fill:none;stroke:black;stroke-width:3" />
<circle cx="897.94" cy="70.68" r="5" stroke-width="0" fill="#FF2A00" opacity="0.7" />
<path d="M994.74,16.38c1.01,1.12,1,3.4,0.99,4.86c-0.05,10.36-0.29,39.9-0.98,42.8" style="fill:none;stroke:#999;stroke-width:3" />
<path d="M996.27,18c7.82-0.57,21.4-2.52,23.76-2.9c0.94-0.15,2.53-0.27,3-0.03" style="fill:none;stroke:#999;stroke-width:3" />
<path d="M1008.31,18.06c0.25,0.41,0.96,0.95,0.95,1.61c-0.02,6.69-0.06,30.3-0.25,40.82" style="fill:none;stroke:#999;stroke-width:3" />
<path d="M996.1600000000001,32.48c6.26-0.63,18.25-2.73,20.94-3.16c0.94-0.15,2.53-0.26,3-0.03" style="fill:none;stroke:#999;stroke-width:3" />
<path d="M995.76,45.61c6.26-0.64,18.75-2.77,21.44-3.2c0.94-0.15,2.53-0.27,3-0.03" style="fill:none;stroke:#999;stroke-width:3" />
<path d="M995.49,63.39c6.17-1.53,22.03-3.92,25.43-4.52c2.08-0.37,4.19,0.54,3.95,4.49C1024.2,74.57 1021.0,87.75 1016.75,95.28c-3.35,5.93-5.32,0.44-6.21-0.93" style="fill:none;stroke:#999;stroke-width:3" />
<path d="M993.49,75.65c0.42,5.86-1.36,10.52-1.81,11.69" style="fill:none;stroke:#999;stroke-width:3" />
<path d="M1000.0,73.28c1.08,2.28,2,5.15,2.25,9.21" style="fill:none;stroke:#999;stroke-width:3" />
<path d="M1006.94,70.68c0.56,1.11,2.56,4.79,2.81,8.43" style="fill:none;stroke:#999;stroke-width:3" />
<path d="M1013.75,66.96c1.25,2.18,3.3,4.43,3.75,7.32" style="fill:none;stroke:black;stroke-width:3" />
<circle cx="1013.75" cy="66.96" r="5" stroke-width="0" fill="#FF2A00" opacity="0.7" />
<path d="M1103.74,16.38c1.01,1.12,1,3.4,0.99,4.86c-0.05,10.36-0.29,39.9-0.98,42.8" style="fill:none;stroke:#999;stroke-width:3" />
<path d="M1105.27,18c7.82-0.57,21.4-2.52,23.76-2.9c0.94-0.15,2.53-0.27,3-0.03" style="fill:none;stroke:#999;stroke-width:3" />
<path d="M1117.31,18.06c0.25,0.41,0.96,0.95,0.95,1.61c-0.02,6.69-0.06,30.3-0.25,40.82" style="fill:none;stroke:#999;stroke-width:3" />
<path d="M1105.16,32.48c6.26-0.63,18.25-2.73,20.94-3.16c0.94-0.15,2.53-0.26,3-0.03" style="fill:none;stroke:#999;stroke-width:3" />
<path d="M1104.76,45.61c6.26-0.64,18.75-2.77,21.44-3.2c0.94-0.15,2.53-0.27,3-0.03" style="fill:none;stroke:#999;stroke-width:3" />
<path d="M1104.49,63.39c6.17-1.53,22.03-3.92,25.43-4.52c2.08-0.37,4.19,0.54,3.95,4.49C1133.2,74.57 1130.0,87.75 1125.75,95.28c-3.35,5.93-5.32,0.44-6.21-0.93" style="fill:none;stroke:#999;stroke-width:3" />
<path d="M1102.49,75.65c0.42,5.86-1.36,10.52-1.81,11.69" style="fill:none;stroke:#999;stroke-width:3" />
<path d="M1109.0,73.28c1.08,2.28,2,5.15,2.25,9.21" style="fill:none;stroke:#999;stroke-width:3" />
<path d="M1115.94,70.68c0.56,1.11,2.56,4.79,2.81,8.43" style="fill:none;stroke:#999;stroke-width:3" />
<path d="M1122.75,66.96c1.25,2.18,3.3,4.43,3.75,7.32" style="fill:none;stroke:#999;stroke-width:3" />
<path d="M1136.13,19.62c1.35,0.55,2.91,0.66,4.26,0.55c12.37-1.01,28.63-3.86,42.9-3.93c2.24-0.01,3.59,0.26,4.71,0.54" style="fill:none;stroke:black;stroke-width:3" />
<circle cx="1136.13" cy="19.62" r="5" stroke-width="0" fill="#FF2A00" opacity="0.7" />
<path d="M1212.74,16.38c1.01,1.12,1,3.4,0.99,4.86c-0.05,10.36-0.29,39.9-0.98,42.8" style="fill:none;stroke:#999;stroke-width:3" />
<path d="M1214.27,18c7.82-0.57,21.4-2.52,23.76-2.9c0.94-0.15,2.53-0.27,3-0.03" style="fill:none;stroke:#999;stroke-width:3" />
<path d="M1226.31,18.06c0.25,0.41,0.96,0.95,0.95,1.61c-0.02,6.69-0.06,30.3-0.25,40.82" style="fill:none;stroke:#999;stroke-width:3" />
<path d="M1214.16,32.48c6.26-0.63,18.25-2.73,20.94-3.16c0.94-0.15,2.53-0.26,3-0.03" style="fill:none;stroke:#999;stroke-width:3" />
<path d="M1213.76,45.61c6.26-0.64,18.75-2.77,21.44-3.2c0.94-0.15,2.53-0.27,3-0.03" style="fill:none;stroke:#999;stroke-width:3" />
<path d="M1213.49,63.39c6.17-1.53,22.03-3.92,25.43-4.52c2.08-0.37,4.19,0.54,3.95,4.49C1242.2,74.57 1239.0,87.75 1234.75,95.28c-3.35,5.93-5.32,0.44-6.21-0.93" style="fill:none;stroke:#999;stroke-width:3" />
<path d="M1211.49,75.65c0.42,5.86-1.36,10.52-1.81,11.69" style="fill:none;stroke:#999;stroke-width:3" />
<path d="M1218.0,73.28c1.08,2.28,2,5.15,2.25,9.21" style="fill:none;stroke:#999;stroke-width:3" />
<path d="M1224.94,70.68c0.56,1.11,2.56,4.79,2.81,8.43" style="fill:none;stroke:#999;stroke-width:3" />
<path d="M1231.75,66.96c1.25,2.18,3.3,4.43,3.75,7.32" style="fill:none;stroke:#999;stroke-width:3" />
<path d="M1245.13,19.62c1.35,0.55,2.91,0.66,4.26,0.55c12.37-1.01,28.63-3.86,42.9-3.93c2.24-0.01,3.59,0.26,4.71,0.54" style="fill:none;stroke:#999;stroke-width:3" />
<path d="M1259.11,11.48c0.93,0.96,1.23,1.25,1.33,1.85c0.93,5.54,0.73,11.25,1,13.26" style="fill:none;stroke:black;stroke-width:3" />
<circle cx="1259.11" cy="11.48" r="5" stroke-width="0" fill="#FF2A00" opacity="0.7" />
<path d="M1321.74,16.38c1.01,1.12,1,3.4,0.99,4.86c-0.05,10.36-0.29,39.9-0.98,42.8" style="fill:none;stroke:#999;stroke-width:3" />
<path d="M1323.27,18c7.82-0.57,21.4-2.52,23.76-2.9c0.94-0.15,2.53-0.27,3-0.03" style="fill:none;stroke:#999;stroke-width:3" />
<path d="M1335.31,18.06c0.25,0.41,0.96,0.95,0.95,1.61c-0.02,6.69-0.06,30.3-0.25,40.82" style="fill:none;stroke:#999;stroke-width:3" />
<path d="M1323.16,32.48c6.26-0.63,18.25-2.73,20.94-3.16c0.94-0.15,2.53-0.26,3-0.03" style="fill:none;stroke:#999;stroke-width:3" />
<path d="M1322.76,45.61c6.26-0.64,18.75-2.77,21.44-3.2c0.94-0.15,2.53-0.27,3-0.03" style="fill:none;stroke:#999;stroke-width:3" />
<path d="M1322.49,63.39c6.17-1.53,22.03-3.92,25.43-4.52c2.08-0.37,4.19,0.54,3.95,4.49C1351.2,74.57 1348.0,87.75 1343.75,95.28c-3.35,5.93-5.32,0.44-6.21-0.93" style="fill:none;stroke:#999;stroke-width:3" />
<path d="M1320.49,75.65c0.42,5.86-1.36,10.52-1.81,11.69" style="fill:none;stroke:#999;stroke-width:3" />
<path d="M1327.0,73.28c1.08,2.28,2,5.15,2.25,9.21" style="fill:none;stroke:#999;stroke-width:3" />
<path d="M1333.94,70.68c0.56,1.11,2.56,4.79,2.81,8.43" style="fill:none;stroke:#999;stroke-width:3" />
<path d="M1340.75,66.96c1.25,2.18,3.3,4.43,3.75,7.32" style="fill:none;stroke:#999;stroke-width:3" />
<path d="M1354.13,19.62c1.35,0.55,2.91,0.66,4.26,0.55c12.37-1.01,28.63-3.86,42.9-3.93c2.24-0.01,3.59,0.26,4.71,0.54" style="fill:none;stroke:#999;stroke-width:3" />
<path d="M1368.11,11.48c0.93,0.96,1.23,1.25,1.33,1.85c0.93,5.54,0.73,11.25,1,13.26" style="fill:none;stroke:#999;stroke-width:3" />
<path d="M1389.26,10.28c0.16,0.81,0.38,1.41,0.2,2.41c-1.08,5.85-1.07,7.28-2.24,12.78" style="fill:none;stroke:black;stroke-width:3" />
<circle cx="1389.26" cy="10.28" r="5" stroke-width="0" fill="#FF2A00" opacity="0.7" />
<path d="M1430.74,16.38c1.01,1.12,1,3.4,0.99,4.86c-0.05,10.36-0.29,39.9-0.98,42.8" style="fill:none;stroke:#999;stroke-width:3" />
<path d="M1432.27,18c7.82-0.57,21.4-2.52,23.76-2.9c0.94-0.15,2.53-0.27,3-0.03" style="fill:none;stroke:#999;stroke-width:3" />
<path d="M1444.31,18.06c0.25,0.41,0.96,0.95,0.95,1.61c-0.02,6.69-0.06,30.3-0.25,40.82" style="fill:none;stroke:#999;stroke-width:3" />
<path d="M1432.16,32.48c6.26-0.63,18.25-2.73,20.94-3.16c0.94-0.15,2.53-0.26,3-0.03" style="fill:none;stroke:#999;stroke-width:3" />
<path d="M1431.76,45.61c6.26-0.64,18.75-2.77,21.44-3.2c0.94-0.15,2.53-0.27,3-0.03" style="fill:none;stroke:#999;stroke-width:3" />
<path d="M1431.49,63.39c6.17-1.53,22.03-3.92,25.43-4.52c2.08-0.37,4.19,0.54,3.95,4.49C1460.2,74.57 1457.0,87.75 1452.75,95.28c-3.35,5.93-5.32,0.44-6.21-0.93" style="fill:none;stroke:#999;stroke-width:3" />
<path d="M1429.49,75.65c0.42,5.86-1.36,10.52-1.81,11.69" style="fill:none;stroke:#999;stroke-width:3" />
<path d="M1436.0,73.28c1.08,2.28,2,5.15,2.25,9.21" style="fill:none;stroke:#999;stroke-width:3" />
<path d="M1442.94,70.68c0.56,1.11,2.56,4.79,2.81,8.43" style="fill:none;stroke:#999;stroke-width:3" />
<path d="M1449.75,66.96c1.25,2.18,3.3,4.43,3.75,7.32" style="fill:none;stroke:#999;stroke-width:3" />
<path d="M1463.13,19.62c1.35,0.55,2.91,0.66,4.26,0.55c12.37-1.01,28.63-3.86,42.9-3.93c2.24-0.01,3.59,0.26,4.71,0.54" style="fill:none;stroke:#999;stroke-width:3" />
<path d="M1477.11,11.48c0.93,0.96,1.23,1.25,1.33,1.85c0.93,5.54,0.73,11.25,1,13.26" style="fill:none;stroke:#999;stroke-width:3" />
<path d="M1498.26,10.28c0.16,0.81,0.38,1.41,0.2,2.41c-1.08,5.85-1.07,7.28-2.24,12.78" style="fill:none;stroke:#999;stroke-width:3" />
<path d="M1465.67,31.43c0.27,0.24,0.54,0.44,0.66,0.74c0.93,2.37,2.04,8.92,2.68,13.18" style="fill:none;stroke:black;stroke-width:3" />
<circle cx="1465.67" cy="31.43" r="5" stroke-width="0" fill="#FF2A00" opacity="0.7" />
<path d="M1539.74,16.38c1.01,1.12,1,3.4,0.99,4.86c-0.05,10.36-0.29,39.9-0.98,42.8" style="fill:none;stroke:#999;stroke-width:3" />
<path d="M1541.27,18c7.82-0.57,21.4-2.52,23.76-2.9c0.94-0.15,2.53-0.27,3-0.03" style="fill:none;stroke:#999;stroke-width:3" />
<path d="M1553.31,18.06c0.25,0.41,0.96,0.95,0.95,1.61c-0.02,6.69-0.06,30.3-0.25,40.82" style="fill:none;stroke:#999;stroke-width:3" />
<path d="M1541.16,32.48c6.26-0.63,18.25-2.73,20.94-3.16c0.94-0.15,2.53-0.26,3-0.03" style="fill:none;stroke:#999;stroke-width:3" />
<path d="M1540.76,45.61c6.26-0.64,18.75-2.77,21.44-3.2c0.94-0.15,2.53-0.27,3-0.03" style="fill:none;stroke:#999;stroke-width:3" />
<path d="M1540.49,63.39c6.17-1.53,22.03-3.92,25.43-4.52c2.08-0.37,4.19,0.54,3.95,4.49C1569.2,74.57 1566.0,87.75 1561.75,95.28c-3.35,5.93-5.32,0.44-6.21-0.93" style="fill:none;stroke:#999;stroke-width:3" />
<path d="M1538.49,75.65c0.42,5.86-1.36,10.52-1.81,11.69" style="fill:none;stroke:#999;stroke-width:3" />
<path d="M1545.0,73.28c1.08,2.28,2,5.15,2.25,9.21" style="fill:none;stroke:#999;stroke-width:3" />
<path d="M1551.94,70.68c0.56,1.11,2.56,4.79,2.81,8.43" style="fill:none;stroke:#999;stroke-width:3" />
<path d="M1558.75,66.96c1.25,2.18,3.3,4.43,3.75,7.32" style="fill:none;stroke:#999;stroke-width:3" />
<path d="M1572.13,19.62c1.35,0.55,2.91,0.66,4.26,0.55c12.37-1.01,28.63-3.86,42.9-3.93c2.24-0.01,3.59,0.26,4.71,0.54" style="fill:none;stroke:#999;stroke-width:3" />
<path d="M1586.11,11.48c0.93,0.96,1.23,1.25,1.33,1.85c0.93,5.54,0.73,11.25,1,13.26" style="fill:none;stroke:#999;stroke-width:3" />
<path d="M1607.26,10.28c0.16,0.81,0.38,1.41,0.2,2.41c-1.08,5.85-1.07,7.28-2.24,12.78" style="fill:none;stroke:#999;stroke-width:3" />
<path d="M1574.67,31.43c0.27,0.24,0.54,0.44,0.66,0.74c0.93,2.37,2.04,8.92,2.68,13.18" style="fill:none;stroke:#999;stroke-width:3" />
<path d="M1576.34,33.03c5.49-1.24,12.17-2.1,15.31-2.41c1.15-0.11,1.84,0.68,1.68,1.34c-0.68,2.77-1.48,5.61-2.49,9.45" style="fill:none;stroke:black;stroke-width:3" />
<circle cx="1576.34" cy="33.03" r="5" stroke-width="0" fill="#FF2A00" opacity="0.7" />
<path d="M1648.74,16.38c1.01,1.12,1,3.4,0.99,4.86c-0.05,10.36-0.29,39.9-0.98,42.8" style="fill:none;stroke:#999;stroke-width:3" />
<path d="M1650.27,18c7.82-0.57,21.4-2.52,23.76-2.9c0.94-0.15,2.53-0.27,3-0.03" style="fill:none;stroke:#999;stroke-width:3" />
<path d="M1662.31,18.06c0.25,0.41,0.96,0.95,0.95,1.61c-0.02,6.69-0.06,30.3-0.25,40.82" style="fill:none;stroke:#999;stroke-width:3" />
<path d="M1650.16,32.48c6.26-0.63,18.25-2.73,20.94-3.16c0.94-0.15,2.53-0.26,3-0.03" style="fill:none;stroke:#999;stroke-width:3" />
<path d="M1649.76,45.61c6.26-0.64,18.75-2.77,21.44-3.2c0.94-0.15,2.53-0.27,3-0.03" style="fill:none;stroke:#999;stroke-width:3" />
<path d="M1649.49,63.39c6.17-1.53,22.03-3.92,25.43-4.52c2.08-0.37,4.19,0.54,3.95,4.49C1678.2,74.57 1675.0,87.75 1670.75,95.28c-3.35,5.93-5.32,0.44-6.21-0.93" style="fill:none;stroke:#999;stroke-width:3" />
<path d="M1647.49,75.65c0.42,5.86-1.36,10.52-1.81,11.69" style="fill:none;stroke:#999;stroke-width:3" />
<path d="M1654.0,73.28c1.08,2.28,2,5.15,2.25,9.21" style="fill:none;stroke:#999;stroke-width:3" />
<path d="M1660.94,70.68c0.56,1.11,2.56,4.79,2.81,8.43" style="fill:none;stroke:#999;stroke-width:3" />
<path d="M1667.75,66.96c1.25,2.18,3.3,4.43,3.75,7.32" style="fill:none;stroke:#999;stroke-width:3" />
<path d="M1681.13,19.62c1.35,0.55,2.91,0.66,4.26,0.55c12.37-1.01,28.63-3.86,42.9-3.93c2.24-0.01,3.59,0.26,4.71,0.54" style="fill:none;stroke:#999;stroke-width:3" />
<path d="M1695.11,11.48c0.93,0.96,1.23,1.25,1.33,1.85c0.93,5.54,0.73,11.25,1,13.26" style="fill:none;stroke:#999;stroke-width:3" />
<path d="M1716.26,10.28c0.16,0.81,0.38,1.41,0.2,2.41c-1.08,5.85-1.07,7.28-2.24,12.78" style="fill:none;stroke:#999;stroke-width:3" />
<path d="M1683.67,31.43c0.27,0.24,0.54,0.44,0.66,0.74c0.93,2.37,2.04,8.92,2.68,13.18" style="fill:none;stroke:#999;stroke-width:3" />
<path d="M1685.34,33.03c5.49-1.24,12.17-2.1,15.31-2.41c1.15-0.11,1.84,0.68,1.68,1.34c-0.68,2.77-1.48,5.61-2.49,9.45" style="fill:none;stroke:#999;stroke-width:3" />
<path d="M1687.14,43.26c3.69-0.35,9.86-1.47,14.93-2.01" style="fill:none;stroke:black;stroke-width:3" />
<circle cx="1687.14" cy="43.26" r="5" stroke-width="0" fill="#FF2A00" opacity="0.7" />
<path d="M1757.74,16.38c1.01,1.12,1,3.4,0.99,4.86c-0.05,10.36-0.29,39.9-0.98,42.8" style="fill:none;stroke:#999;stroke-width:3" />
<path d="M1759.27,18c7.82-0.57,21.4-2.52,23.76-2.9c0.94-0.15,2.53-0.27,3-0.03" style="fill:none;stroke:#999;stroke-width:3" />
<path d="M1771.31,18.06c0.25,0.41,0.96,0.95,0.95,1.61c-0.02,6.69-0.06,30.3-0.25,40.82" style="fill:none;stroke:#999;stroke-width:3" />
<path d="M1759.16,32.48c6.26-0.63,18.25-2.73,20.94-3.16c0.94-0.15,2.53-0.26,3-0.03" style="fill:none;stroke:#999;stroke-width:3" />
<path d="M1758.76,45.61c6.26-0.64,18.75-2.77,21.44-3.2c0.94-0.15,2.53-0.27,3-0.03" style="fill:none;stroke:#999;stroke-width:3" />
<path d="M1758.49,63.39c6.17-1.53,22.03-3.92,25.43-4.52c2.08-0.37,4.19,0.54,3.95,4.49C1787.2,74.57 1784.0,87.75 1779.75,95.28c-3.35,5.93-5.32,0.44-6.21-0.93" style="fill:none;stroke:#999;stroke-width:3" />
<path d="M1756.49,75.65c0.42,5.86-1.36,10.52-1.81,11.69" style="fill:none;stroke:#999;stroke-width:3" />
<path d="M1763.0,73.28c1.08,2.28,2,5.15,2.25,9.21" style="fill:none;stroke:#999;stroke-width:3" />
<path d="M1769.94,70.68c0.56,1.11,2.56,4.79,2.81,8.43" style="fill:none;stroke:#999;stroke-width:3" />
<path d="M1776.75,66.96c1.25,2.18,3.3,4.43,3.75,7.32" style="fill:none;stroke:#999;stroke-width:3" />
<path d="M1790.13,19.62c1.35,0.55,2.91,0.66,4.26,0.55c12.37-1.01,28.63-3.86,42.9-3.93c2.24-0.01,3.59,0.26,4.71,0.54" style="fill:none;stroke:#999;stroke-width:3" />
<path d="M1804.11,11.48c0.93,0.96,1.23,1.25,1.33,1.85c0.93,5.54,0.73,11.25,1,13.26" style="fill:none;stroke:#999;stroke-width:3" />
<path d="M1825.26,10.28c0.16,0.81,0.38,1.41,0.2,2.41c-1.08,5.85-1.07,7.28-2.24,12.78" style="fill:none;stroke:#999;stroke-width:3" />
<path d="M1792.67,31.43c0.27,0.24,0.54,0.44,0.66,0.74c0.93,2.37,2.04,8.92,2.68,13.18" style="fill:none;stroke:#999;stroke-width:3" />
<path d="M1794.34,33.03c5.49-1.24,12.17-2.1,15.31-2.41c1.15-0.11,1.84,0.68,1.68,1.34c-0.68,2.77-1.48,5.61-2.49,9.45" style="fill:none;stroke:#999;stroke-width:3" />
<path d="M1796.14,43.26c3.69-0.35,9.86-1.47,14.93-2.01" style="fill:none;stroke:#999;stroke-width:3" />
<path d="M1816.75,28.22c0.26,0.26,0.53,0.48,0.65,0.8c0.91,2.57,2.01,8.6,2.63,13.22" style="fill:none;stroke:black;stroke-width:3" />
<circle cx="1816.75" cy="28.22" r="5" stroke-width="0" fill="#FF2A00" opacity="0.7" />
<path d="M1866.74,16.38c1.01,1.12,1,3.4,0.99,4.86c-0.05,10.36-0.29,39.9-0.98,42.8" style="fill:none;stroke:#999;stroke-width:3" />
<path d="M1868.27,18c7.82-0.57,21.4-2.52,23.76-2.9c0.94-0.15,2.53-0.27,3-0.03" style="fill:none;stroke:#999;stroke-width:3" />
<path d="M1880.31,18.06c0.25,0.41,0.96,0.95,0.95,1.61c-0.02,6.69-0.06,30.3-0.25,40.82" style="fill:none;stroke:#999;stroke-width:3" />
<path d="M1868.16,32.48c6.26-0.63,18.25-2.73,20.94-3.16c0.94-0.15,2.53-0.26,3-0.03" style="fill:none;stroke:#999;stroke-width:3" />
<path d="M1867.76,45.61c6.26-0.64,18.75-2.77,21.44-3.2c0.94-0.15,2.53-0.27,3-0.03" style="fill:none;stroke:#999;stroke-width:3" />
<path d="M1867.49,63.39c6.17-1.53,22.03-3.92,25.43-4.52c2.08-0.37,4.19,0.54,3.95,4.49C1896.2,74.57 1893.0,87.75 1888.75,95.28c-3.35,5.93-5.32,0.44-6.21-0.93" style="fill:none;stroke:#999;stroke-width:3" />
<path d="M1865.49,75.65c0.42,5.86-1.36,10.52-1.81,11.69" style="fill:none;stroke:#999;stroke-width:3" />
<path d="M1872.0,73.28c1.08,2.28,2,5.15,2.25,9.21" style="fill:none;stroke:#999;stroke-width:3" />
<path d="M1878.94,70.68c0.56,1.11,2.56,4.79,2.81,8.43" style="fill:none;stroke:#999;stroke-width:3" />
<path d="M1885.75,66.96c1.25,2.18,3.3,4.43,3.75,7.32" style="fill:none;stroke:#999;stroke-width:3" />
<path d="M1899.13,19.62c1.35,0.55,2.91,0.66,4.26,0.55c12.37-1.01,28.63-3.86,42.9-3.93c2.24-0.01,3.59,0.26,4.71,0.54" style="fill:none;stroke:#999;stroke-width:3" />
<path d="M1913.11,11.48c0.93,0.96,1.23,1.25,1.33,1.85c0.93,5.54,0.73,11.25,1,13.26" style="fill:none;stroke:#999;stroke-width:3" />
<path d="M1934.26,10.28c0.16,0.81,0.38,1.41,0.2,2.41c-1.08,5.85-1.07,7.28-2.24,12.78" style="fill:none;stroke:#999;stroke-width:3" />
<path d="M1901.67,31.43c0.27,0.24,0.54,0.44,0.66,0.74c0.93,2.37,2.04,8.92,2.68,13.18" style="fill:none;stroke:#999;stroke-width:3" />
<path d="M1903.34,33.03c5.49-1.24,12.17-2.1,15.31-2.41c1.15-0.11,1.84,0.68,1.68,1.34c-0.68,2.77-1.48,5.61-2.49,9.45" style="fill:none;stroke:#999;stroke-width:3" />
<path d="M1905.14,43.26c3.69-0.35,9.86-1.47,14.93-2.01" style="fill:none;stroke:#999;stroke-width:3" />
<path d="M1925.75,28.22c0.26,0.26,0.53,0.48,0.65,0.8c0.91,2.57,2.01,8.6,2.63,13.22" style="fill:none;stroke:#999;stroke-width:3" />
<path d="M1927.39,29.96c5.39-1.34,13.96-2.29,17.04-2.63c1.13-0.12,1.81,0.73,1.65,1.46c-0.67,3-1.45,5.04-2.44,9.19" style="fill:none;stroke:black;stroke-width:3" />
<circle cx="1927.39" cy="29.96" r="5" stroke-width="0" fill="#FF2A00" opacity="0.7" />
<path d="M1975.74,16.38c1.01,1.12,1,3.4,0.99,4.86c-0.05,10.36-0.29,39.9-0.98,42.8" style="fill:none;stroke:#999;stroke-width:3" />
<path d="M1977.27,18c7.82-0.57,21.4-2.52,23.76-2.9c0.94-0.15,2.53-0.27,3-0.03" style="fill:none;stroke:#999;stroke-width:3" />
<path d="M1989.31,18.06c0.25,0.41,0.96,0.95,0.95,1.61c-0.02,6.69-0.06,30.3-0.25,40.82" style="fill:none;stroke:#999;stroke-width:3" />
<path d="M1977.16,32.48c6.26-0.63,18.25-2.73,20.94-3.16c0.94-0.15,2.53-0.26,3-0.03" style="fill:none;stroke:#999;stroke-width:3" />
<path d="M1976.76,45.61c6.26-0.64,18.75-2.77,21.44-3.2c0.94-0.15,2.53-0.27,3-0.03" style="fill:none;stroke:#999;stroke-width:3" />
<path d="M1976.49,63.39c6.17-1.53,22.03-3.92,25.43-4.52c2.08-0.37,4.19,0.54,3.95,4.49C2005.2,74.57 2002.0,87.75 1997.75,95.28c-3.35,5.93-5.32,0.44-6.21-0.93" style="fill:none;stroke:#999;stroke-width:3" />
<path d="M1974.49,75.65c0.42,5.86-1.36,10.52-1.81,11.69" style="fill:none;stroke:#999;stroke-width:3" />
<path d="M1981.0,73.28c1.08,2.28,2,5.15,2.25,9.21" style="fill:none;stroke:#999;stroke-width:3" />
<path d="M1987.94,70.68c0.56,1.11,2.56,4.79,2.81,8.43" style="fill:none;stroke:#999;stroke-width:3" />
<path d="M1994.75,66.96c1.25,2.18,3.3,4.43,3.75,7.32" style="fill:none;stroke:#999;stroke-width:3" />
<path d="M2008.13,19.62c1.35,0.55,2.91,0.66,4.26,0.55c12.37-1.01,28.63-3.86,42.9-3.93c2.24-0.01,3.59,0.26,4.71,0.54" style="fill:none;stroke:#999;stroke-width:3" />
<path d="M2022.11,11.48c0.93,0.96,1.23,1.25,1.33,1.85c0.93,5.54,0.73,11.25,1,13.26" style="fill:none;stroke:#999;stroke-width:3" />
<path d="M2043.26,10.28c0.16,0.81,0.38,1.41,0.2,2.41c-1.08,5.85-1.07,7.28-2.24,12.78" style="fill:none;stroke:#999;stroke-width:3" />
<path d="M2010.67,31.43c0.27,0.24,0.54,0.44,0.66,0.74c0.93,2.37,2.04,8.92,2.68,13.18" style="fill:none;stroke:#999;stroke-width:3" />
<path d="M2012.34,33.03c5.49-1.24,12.17-2.1,15.31-2.41c1.15-0.11,1.84,0.68,1.68,1.34c-0.68,2.77-1.48,5.61-2.49,9.45" style="fill:none;stroke:#999;stroke-width:3" />
<path d="M2014.14,43.26c3.69-0.35,9.86-1.47,14.93-2.01" style="fill:none;stroke:#999;stroke-width:3" />
<path d="M2034.75,28.22c0.26,0.26,0.53,0.48,0.65,0.8c0.91,2.57,2.01,8.6,2.63,13.22" style="fill:none;stroke:#999;stroke-width:3" />
<path d="M2036.39,29.96c5.39-1.34,13.96-2.29,17.04-2.63c1.13-0.12,1.81,0.73,1.65,1.46c-0.67,3-1.45,5.04-2.44,9.19" style="fill:none;stroke:#999;stroke-width:3" />
<path d="M2038.16,39.98c3.63-0.38,11.13-1.04,16.11-1.63" style="fill:none;stroke:black;stroke-width:3" />
<circle cx="2038.16" cy="39.98" r="5" stroke-width="0" fill="#FF2A00" opacity="0.7" />
<path d="M2084.74,16.38c1.01,1.12,1,3.4,0.99,4.86c-0.05,10.36-0.29,39.9-0.98,42.8" style="fill:none;stroke:#999;stroke-width:3" />
<path d="M2086.27,18c7.82-0.57,21.4-2.52,23.76-2.9c0.94-0.15,2.53-0.27,3-0.03" style="fill:none;stroke:#999;stroke-width:3" />
<path d="M2098.31,18.06c0.25,0.41,0.96,0.95,0.95,1.61c-0.02,6.69-0.06,30.3-0.25,40.82" style="fill:none;stroke:#999;stroke-width:3" />
<path d="M2086.16,32.48c6.26-0.63,18.25-2.73,20.94-3.16c0.94-0.15,2.53-0.26,3-0.03" style="fill:none;stroke:#999;stroke-width:3" />
<path d="M2085.76,45.61c6.26-0.64,18.75-2.77,21.44-3.2c0.94-0.15,2.53-0.27,3-0.03" style="fill:none;stroke:#999;stroke-width:3" />
<path d="M2085.49,63.39c6.17-1.53,22.03-3.92,25.43-4.52c2.08-0.37,4.19,0.54,3.95,4.49C2114.2,74.57 2111.0,87.75 2106.75,95.28c-3.35,5.93-5.32,0.44-6.21-0.93" style="fill:none;stroke:#999;stroke-width:3" />
<path d="M2083.49,75.65c0.42,5.86-1.36,10.52-1.81,11.69" style="fill:none;stroke:#999;stroke-width:3" />
<path d="M2090.0,73.28c1.08,2.28,2,5.15,2.25,9.21" style="fill:none;stroke:#999;stroke-width:3" />
<path d="M2096.94,70.68c0.56,1.11,2.56,4.79,2.81,8.43" style="fill:none;stroke:#999;stroke-width:3" />
<path d="M2103.75,66.96c1.25,2.18,3.3,4.43,3.75,7.32" style="fill:none;stroke:#999;stroke-width:3" />
<path d="M2117.13,19.62c1.35,0.55,2.91,0.66,4.26,0.55c12.37-1.01,28.63-3.86,42.9-3.93c2.24-0.01,3.59,0.26,4.71,0.54" style="fill:none;stroke:#999;stroke-width:3" />
<path d="M2131.1099999999997,11.48c0.93,0.96,1.23,1.25,1.33,1.85c0.93,5.54,0.73,11.25,1,13.26" style="fill:none;stroke:#999;stroke-width:3" />
<path d="M2152.26,10.28c0.16,0.81,0.38,1.41,0.2,2.41c-1.08,5.85-1.07,7.28-2.24,12.78" style="fill:none;stroke:#999;stroke-width:3" />
<path d="M2119.67,31.43c0.27,0.24,0.54,0.44,0.66,0.74c0.93,2.37,2.04,8.92,2.68,13.18" style="fill:none;stroke:#999;stroke-width:3" />
<path d="M2121.34,33.03c5.49-1.24,12.17-2.1,15.31-2.41c1.15-0.11,1.84,0.68,1.68,1.34c-0.68,2.77-1.48,5.61-2.49,9.45" style="fill:none;stroke:#999;stroke-width:3" />
<path d="M2123.1400000000003,43.26c3.69-0.35,9.86-1.47,14.93-2.01" style="fill:none;stroke:#999;stroke-width:3" />
<path d="M2143.75,28.22c0.26,0.26,0.53,0.48,0.65,0.8c0.91,2.57,2.01,8.6,2.63,13.22" style="fill:none;stroke:#999;stroke-width:3" />
<path d="M2145.3900000000003,29.96c5.39-1.34,13.96-2.29,17.04-2.63c1.13-0.12,1.81,0.73,1.65,1.46c-0.67,3-1.45,5.04-2.44,9.19" style="fill:none;stroke:#999;stroke-width:3" />
<path d="M2147.16,39.98c3.63-0.38,11.13-1.04,16.11-1.63" style="fill:none;stroke:#999;stroke-width:3" />
<path d="M2131.77,47.3c0.13,1.12-0.04,2.6-0.44,3.56C2128.73,57 2125.44,62.2 2119.5,69.67" style="fill:none;stroke:black;stroke-width:3" />
<circle cx="2131.77" cy="47.3" r="5" stroke-width="0" fill="#FF2A00" opacity="0.7" />
<path d="M2193.74,16.38c1.01,1.12,1,3.4,0.99,4.86c-0.05,10.36-0.29,39.9-0.98,42.8" style="fill:none;stroke:#999;stroke-width:3" />
<path d="M2195.27,18c7.82-0.57,21.4-2.52,23.76-2.9c0.94-0.15,2.53-0.27,3-0.03" style="fill:none;stroke:#999;stroke-width:3" />
<path d="M2207.31,18.06c0.25,0.41,0.96,0.95,0.95,1.61c-0.02,6.69-0.06,30.3-0.25,40.82" style="fill:none;stroke:#999;stroke-width:3" />
<path d="M2195.16,32.48c6.26-0.63,18.25-2.73,20.94-3.16c0.94-0.15,2.53-0.26,3-0.03" style="fill:none;stroke:#999;stroke-width:3" />
<path d="M2194.76,45.61c6.26-0.64,18.75-2.77,21.44-3.2c0.94-0.15,2.53-0.27,3-0.03" style="fill:none;stroke:#999;stroke-width:3" />
<path d="M2194.49,63.39c6.17-1.53,22.03-3.92,25.43-4.52c2.08-0.37,4.19,0.54,3.95,4.49C2223.2,74.57 2220.0,87.75 2215.75,95.28c-3.35,5.93-5.32,0.44-6.21-0.93" style="fill:none;stroke:#999;stroke-width:3" />
<path d="M2192.49,75.65c0.42,5.86-1.36,10.52-1.81,11.69" style="fill:none;stroke:#999;stroke-width:3" />
<path d="M2199.0,73.28c1.08,2.28,2,5.15,2.25,9.21" style="fill:none;stroke:#999;stroke-width:3" />
<path d="M2205.94,70.68c0.56,1.11,2.56,4.79,2.81,8.43" style="fill:none;stroke:#999;stroke-width:3" />
<path d="M2212.75,66.96c1.25,2.18,3.3,4.43,3.75,7.32" style="fill:none;stroke:#999;stroke-width:3" />
<path d="M2226.13,19.62c1.35,0.55,2.91,0.66,4.26,0.55c12.37-1.01,28.63-3.86,42.9-3.93c2.24-0.01,3.59,0.26,4.71,0.54" style="fill:none;stroke:#999;stroke-width:3" />
<path d="M2240.1099999999997,11.48c0.93,0.96,1.23,1.25,1.33,1.85c0.93,5.54,0.73,11.25,1,13.26" style="fill:none;stroke:#999;stroke-width:3" />
<path d="M2261.26,10.28c0.16,0.81,0.38,1.41,0.2,2.41c-1.08,5.85-1.07,7.28-2.24,12.78" style="fill:none;stroke:#999;stroke-width:3" />
<path d="M2228.67,31.43c0.27,0.24,0.54,0.44,0.66,0.74c0.93,2.37,2.04,8.92,2.68,13.18" style="fill:none;stroke:#999;stroke-width:3" />
<path d="M2230.34,33.03c5.49-1.24,12.17-2.1,15.31-2.41c1.15-0.11,1.84,0.68,1.68,1.34c-0.68,2.77-1.48,5.61-2.49,9.45" style="fill:none;stroke:#999;stroke-width:3" />
<path d="M2232.1400000000003,43.26c3.69-0.35,9.86-1.47,14.93-2.01" style="fill:none;stroke:#999;stroke-width:3" />
<path d="M2252.75,28.22c0.26,0.26,0.53,0.48,0.65,0.8c0.91,2.57,2.01,8.6,2.63,13.22" style="fill:none;stroke:#999;stroke-width:3" />
<path d="M2254.3900000000003,29.96c5.39-1.34,13.96-2.29,17.04-2.63c1.13-0.12,1.81,0.73,1.65,1.46c-0.67,3-1.45,5.04-2.44,9.19" style="fill:none;stroke:#999;stroke-width:3" />
<path d="M2256.16,39.98c3.63-0.38,11.13-1.04,16.11-1.63" style="fill:none;stroke:#999;stroke-width:3" />
<path d="M2240.77,47.3c0.13,1.12-0.04,2.6-0.44,3.56C2237.73,57 2234.44,62.2 2228.5,69.67" style="fill:none;stroke:#999;stroke-width:3" />
<path d="M2235.6,59.64c0.59,0.64,1.05,2.04,1.09,3.03C2237.04,71.5 2236.2,95.41 2236.5,100" style="fill:none;stroke:black;stroke-width:3" />
<circle cx="2235.6" cy="59.64" r="5" stroke-width="0" fill="#FF2A00" opacity="0.7" />
<path d="M2302.74,16.38c1.01,1.12,1,3.4,0.99,4.86c-0.05,10.36-0.29,39.9-0.98,42.8" style="fill:none;stroke:#999;stroke-width:3" />
<path d="M2304.27,18c7.82-0.57,21.4-2.52,23.76-2.9c0.94-0.15,2.53-0.27,3-0.03" style="fill:none;stroke:#999;stroke-width:3" />
<path d="M2316.31,18.06c0.25,0.41,0.96,0.95,0.95,1.61c-0.02,6.69-0.06,30.3-0.25,40.82" style="fill:none;stroke:#999;stroke-width:3" />
<path d="M2304.16,32.48c6.26-0.63,18.25-2.73,20.94-3.16c0.94-0.15,2.53-0.26,3-0.03" style="fill:none;stroke:#999;stroke-width:3" />
<path d="M2303.76,45.61c6.26-0.64,18.75-2.77,21.44-3.2c0.94-0.15,2.53-0.27,3-0.03" style="fill:none;stroke:#999;stroke-width:3" />
<path d="M2303.49,63.39c6.17-1.53,22.03-3.92,25.43-4.52c2.08-0.37,4.19,0.54,3.95,4.49C2332.2,74.57 2329.0,87.75 2324.75,95.28c-3.35,5.93-5.32,0.44-6.21-0.93" style="fill:none;stroke:#999;stroke-width:3" />
<path d="M2301.49,75.65c0.42,5.86-1.36,10.52-1.81,11.69" style="fill:none;stroke:#999;stroke-width:3" />
<path d="M2308.0,73.28c1.08,2.28,2,5.15,2.25,9.21" style="fill:none;stroke:#999;stroke-width:3" />
<path d="M2314.94,70.68c0.56,1.11,2.56,4.79,2.81,8.43" style="fill:none;stroke:#999;stroke-width:3" />
<path d="M2321.75,66.96c1.25,2.18,3.3,4.43,3.75,7.32" style="fill:none;stroke:#999;stroke-width:3" />
<path d="M2335.13,19.62c1.35,0.55,2.91,0.66,4.26,0.55c12.37-1.01,28.63-3.86,42.9-3.93c2.24-0.01,3.59,0.26,4.71,0.54" style="fill:none;stroke:#999;stroke-width:3" />
<path d="M2349.1099999999997,11.48c0.93,0.96,1.23,1.25,1.33,1.85c0.93,5.54,0.73,11.25,1,13.26" style="fill:none;stroke:#999;stroke-width:3" />
<path d="M2370.26,10.28c0.16,0.81,0.38,1.41,0.2,2.41c-1.08,5.85-1.07,7.28-2.24,12.78" style="fill:none;stroke:#999;stroke-width:3" />
<path d="M2337.67,31.43c0.27,0.24,0.54,0.44,0.66,0.74c0.93,2.37,2.04,8.92,2.68,13.18" style="fill:none;stroke:#999;stroke-width:3" />
<path d="M2339.34,33.03c5.49-1.24,12.17-2.1,15.31-2.41c1.15-0.11,1.84,0.68,1.68,1.34c-0.68,2.77-1.48,5.61-2.49,9.45" style="fill:none;stroke:#999;stroke-width:3" />
<path d="M2341.1400000000003,43.26c3.69-0.35,9.86-1.47,14.93-2.01" style="fill:none;stroke:#999;stroke-width:3" />
<path d="M2361.75,28.22c0.26,0.26,0.53,0.48,0.65,0.8c0.91,2.57,2.01,8.6,2.63,13.22" style="fill:none;stroke:#999;stroke-width:3" />
<path d="M2363.3900000000003,29.96c5.39-1.34,13.96-2.29,17.04-2.63c1.13-0.12,1.81,0.73,1.65,1.46c-0.67,3-1.45,5.04-2.44,9.19" style="fill:none;stroke:#999;stroke-width:3" />
<path d="M2365.16,39.98c3.63-0.38,11.13-1.04,16.11-1.63" style="fill:none;stroke:#999;stroke-width:3" />
<path d="M2349.77,47.3c0.13,1.12-0.04,2.6-0.44,3.56C2346.73,57 2343.44,62.2 2337.5,69.67" style="fill:none;stroke:#999;stroke-width:3" />
<path d="M2344.6,59.64c0.59,0.64,1.05,2.04,1.09,3.03C2346.04,71.5 2345.2,95.41 2345.5,100" style="fill:none;stroke:#999;stroke-width:3" />
<path d="M2367.28,46.34c0.04,0.51-0.01,1.17-0.16,1.61c-0.94,2.77-2.14,4.91-4.3,8.28" style="fill:none;stroke:black;stroke-width:3" />
<circle cx="2367.28" cy="46.34" r="5" stroke-width="0" fill="#FF2A00" opacity="0.7" />
<path d="M2411.74,16.38c1.01,1.12,1,3.4,0.99,4.86c-0.05,10.36-0.29,39.9-0.98,42.8" style="fill:none;stroke:#999;stroke-width:3" />
<path d="M2413.27,18c7.82-0.57,21.4-2.52,23.76-2.9c0.94-0.15,2.53-0.27,3-0.03" style="fill:none;stroke:#999;stroke-width:3" />
<path d="M2425.31,18.06c0.25,0.41,0.96,0.95,0.95,1.61c-0.02,6.69-0.06,30.3-0.25,40.82" style="fill:none;stroke:#999;stroke-width:3" />
<path d="M2413.16,32.48c6.26-0.63,18.25-2.73,20.94-3.16c0.94-0.15,2.53-0.26,3-0.03" style="fill:none;stroke:#999;stroke-width:3" />
<path d="M2412.76,45.61c6.26-0.64,18.75-2.77,21.44-3.2c0.94-0.15,2.53-0.27,3-0.03" style="fill:none;stroke:#999;stroke-width:3" />
<path d="M2412.49,63.39c6.17-1.53,22.03-3.92,25.43-4.52c2.08-0.37,4.19,0.54,3.95,4.49C2441.2,74.57 2438.0,87.75 2433.75,95.28c-3.35,5.93-5.32,0.44-6.21-0.93" style="fill:none;stroke:#999;stroke-width:3" />
<path d="M2410.49,75.65c0.42,5.86-1.36,10.52-1.81,11.69" style="fill:none;stroke:#999;stroke-width:3" />
<path d="M2417.0,73.28c1.08,2.28,2,5.15,2.25,9.21" style="fill:none;stroke:#999;stroke-width:3" />
<path d="M2423.94,70.68c0.56,1.11,2.56,4.79,2.81,8.43" style="fill:none;stroke:#999;stroke-width:3" />
<path d="M2430.75,66.96c1.25,2.18,3.3,4.43,3.75,7.32" style="fill:none;stroke:#999;stroke-width:3" />
<path d="M2444.13,19.62c1.35,0.55,2.91,0.66,4.26,0.55c12.37-1.01,28.63-3.86,42.9-3.93c2.24-0.01,3.59,0.26,4.71,0.54" style="fill:none;stroke:#999;stroke-width:3" />
<path d="M2458.1099999999997,11.48c0.93,0.96,1.23,1.25,1.33,1.85c0.93,5.54,0.73,11.25,1,13.26" style="fill:none;stroke:#999;stroke-width:3" />
<path d="M2479.26,10.28c0.16,0.81,0.38,1.41,0.2,2.41c-1.08,5.85-1.07,7.28-2.24,12.78" style="fill:none;stroke:#999;stroke-width:3" />
<path d="M2446.67,31.43c0.27,0.24,0.54,0.44,0.66,0.74c0.93,2.37,2.04,8.92,2.68,13.18" style="fill:none;stroke:#999;stroke-width:3" />
<path d="M2448.34,33.03c5.49-1.24,12.17-2.1,15.31-2.41c1.15-0.11,1.84,0.68,1.68,1.34c-0.68,2.77-1.48,5.61-2.49,9.45" style="fill:none;stroke:#999;stroke-width:3" />
<path d="M2450.1400000000003,43.26c3.69-0.35,9.86-1.47,14.93-2.01" style="fill:none;stroke:#999;stroke-width:3" />
<path d="M2470.75,28.22c0.26,0.26,0.53,0.48,0.65,0.8c0.91,2.57,2.01,8.6,2.63,13.22" style="fill:none;stroke:#999;stroke-width:3" />
<path d="M2472.3900000000003,29.96c5.39-1.34,13.96-2.29,17.04-2.63c1.13-0.12,1.81,0.73,1.65,1.46c-0.67,3-1.45,5.04-2.44,9.19" style="fill:none;stroke:#999;stroke-width:3" />
<path d="M2474.16,39.98c3.63-0.38,11.13-1.04,16.11-1.63" style="fill:none;stroke:#999;stroke-width:3" />
<path d="M2458.77,47.3c0.13,1.12-0.04,2.6-0.44,3.56C2455.73,57 2452.44,62.2 2446.5,69.67" style="fill:none;stroke:#999;stroke-width:3" />
<path d="M2453.6,59.64c0.59,0.64,1.05,2.04,1.09,3.03C2455.04,71.5 2454.2,95.41 2454.5,100" style="fill:none;stroke:#999;stroke-width:3" />
<path d="M2476.28,46.34c0.04,0.51-0.01,1.17-0.16,1.61c-0.94,2.77-2.14,4.91-4.3,8.28" style="fill:none;stroke:#999;stroke-width:3" />
<path d="M2454.52,59.83C2461.4,59 2490.1,56.58 2493.06,56.13" style="fill:none;stroke:black;stroke-width:3" />
<circle cx="2454.52" cy="59.83" r="5" stroke-width="0" fill="#FF2A00" opacity="0.7" />
<path d="M2520.74,16.38c1.01,1.12,1,3.4,0.99,4.86c-0.05,10.36-0.29,39.9-0.98,42.8" style="fill:none;stroke:#999;stroke-width:3" />
<path d="M2522.27,18c7.82-0.57,21.4-2.52,23.76-2.9c0.94-0.15,2.53-0.27,3-0.03" style="fill:none;stroke:#999;stroke-width:3" />
<path d="M2534.31,18.06c0.25,0.41,0.96,0.95,0.95,1.61c-0.02,6.69-0.06,30.3-0.25,40.82" style="fill:none;stroke:#999;stroke-width:3" />
<path d="M2522.16,32.48c6.26-0.63,18.25-2.73,20.94-3.16c0.94-0.15,2.53-0.26,3-0.03" style="fill:none;stroke:#999;stroke-width:3" />
<path d="M2521.76,45.61c6.26-0.64,18.75-2.77,21.44-3.2c0.94-0.15,2.53-0.27,3-0.03" style="fill:none;stroke:#999;stroke-width:3" />
<path d="M2521.49,63.39c6.17-1.53,22.03-3.92,25.43-4.52c2.08-0.37,4.19,0.54,3.95,4.49C2550.2,74.57 2547.0,87.75 2542.75,95.28c-3.35,5.93-5.32,0.44-6.21-0.93" style="fill:none;stroke:#999;stroke-width:3" />
<path d="M2519.49,75.65c0.42,5.86-1.36,10.52-1.81,11.69" style="fill:none;stroke:#999;stroke-width:3" />
<path d="M2526.0,73.28c1.08,2.28,2,5.15,2.25,9.21" style="fill:none;stroke:#999;stroke-width:3" />
<path d="M2532.94,70.68c0.56,1.11,2.56,4.79,2.81,8.43" style="fill:none;stroke:#999;stroke-width:3" />
<path d="M2539.75,66.96c1.25,2.18,3.3,4.43,3.75,7.32" style="fill:none;stroke:#999;stroke-width:3" />
<path d="M2553.13,19.62c1.35,0.55,2.91,0.66,4.26,0.55c12.37-1.01,28.63-3.86,42.9-3.93c2.24-0.01,3.59,0.26,4.71,0.54" style="fill:none;stroke:#999;stroke-width:3" />
<path d="M2567.1099999999997,11.48c0.93,0.96,1.23,1.25,1.33,1.85c0.93,5.54,0.73,11.25,1,13.26" style="fill:none;stroke:#999;stroke-width:3" />
<path d="M2588.26,10.28c0.16,0.81,0.38,1.41,0.2,2.41c-1.08,5.85-1.07,7.28-2.24,12.78" style="fill:none;stroke:#999;stroke-width:3" />
<path d="M2555.67,31.43c0.27,0.24,0.54,0.44,0.66,0.74c0.93,2.37,2.04,8.92,2.68,13.18" style="fill:none;stroke:#999;stroke-width:3" />
<path d="M2557.34,33.03c5.49-1.24,12.17-2.1,15.31-2.41c1.15-0.11,1.84,0.68,1.68,1.34c-0.68,2.77-1.48,5.61-2.49,9.45" style="fill:none;stroke:#999;stroke-width:3" />
<path d="M2559.1400000000003,43.26c3.69-0.35,9.86-1.47,14.93-2.01" style="fill:none;stroke:#999;stroke-width:3" />
<path d="M2579.75,28.22c0.26,0.26,0.53,0.48,0.65,0.8c0.91,2.57,2.01,8.6,2.63,13.22" style="fill:none;stroke:#999;stroke-width:3" />
<path d="M2581.3900000000003,29.96c5.39-1.34,13.96-2.29,17.04-2.63c1.13-0.12,1.81,0.73,1.65,1.46c-0.67,3-1.45,5.04-2.44,9.19" style="fill:none;stroke:#999;stroke-width:3" />
<path d="M2583.16,39.98c3.63-0.38,11.13-1.04,16.11-1.63" style="fill:none;stroke:#999;stroke-width:3" />
<path d="M2567.77,47.3c0.13,1.12-0.04,2.6-0.44,3.56C2564.73,57 2561.44,62.2 2555.5,69.67" style="fill:none;stroke:#999;stroke-width:3" />
<path d="M2562.6,59.64c0.59,0.64,1.05,2.04,1.09,3.03C2564.04,71.5 2563.2,95.41 2563.5,100" style="fill:none;stroke:#999;stroke-width:3" />
<path d="M2585.28,46.34c0.04,0.51-0.01,1.17-0.16,1.61c-0.94,2.77-2.14,4.91-4.3,8.28" style="fill:none;stroke:#999;stroke-width:3" />
<path d="M2563.52,59.83C2570.4,59 2599.1,56.58 2602.06,56.13" style="fill:none;stroke:#999;stroke-width:3" />
<path d="M2580.79,58.68c0.33,0.32,0.6,0.77,0.6,1.33c0,5.73,0.04,26.21-0.16,35.23" style="fill:none;stroke:black;stroke-width:3" />
<circle cx="2580.79" cy="58.68" r="5" stroke-width="0" fill="#FF2A00" opacity="0.7" />
<path d="M2629.74,16.38c1.01,1.12,1,3.4,0.99,4.86c-0.05,10.36-0.29,39.9-0.98,42.8" style="fill:none;stroke:#999;stroke-width:3" />
<path d="M2631.27,18c7.82-0.57,21.4-2.52,23.76-2.9c0.94-0.15,2.53-0.27,3-0.03" style="fill:none;stroke:#999;stroke-width:3" />
<path d="M2643.31,18.06c0.25,0.41,0.96,0.95,0.95,1.61c-0.02,6.69-0.06,30.3-0.25,40.82" style="fill:none;stroke:#999;stroke-width:3" />
<path d="M2631.16,32.48c6.26-0.63,18.25-2.73,20.94-3.16c0.94-0.15,2.53-0.26,3-0.03" style="fill:none;stroke:#999;stroke-width:3" />
<path d="M2630.76,45.61c6.26-0.64,18.75-2.77,21.44-3.2c0.94-0.15,2.53-0.27,3-0.03" style="fill:none;stroke:#999;stroke-width:3" />
<path d="M2630.49,63.39c6.17-1.53,22.03-3.92,25.43-4.52c2.08-0.37,4.19,0.54,3.95,4.49C2659.2,74.57 2656.0,87.75 2651.75,95.28c-3.35,5.93-5.32,0.44-6.21-0.93" style="fill:none;stroke:#999;stroke-width:3" />
<path d="M2628.49,75.65c0.42,5.86-1.36,10.52-1.81,11.69" style="fill:none;stroke:#999;stroke-width:3" />
<path d="M2635.0,73.28c1.08,2.28,2,5.15,2.25,9.21" style="fill:none;stroke:#999;stroke-width:3" />
<path d="M2641.94,70.68c0.56,1.11,2.56,4.79,2.81,8.43" style="fill:none;stroke:#999;stroke-width:3" />
<path d="M2648.75,66.96c1.25,2.18,3.3,4.43,3.75,7.32" style="fill:none;stroke:#999;stroke-width:3" />
<path d="M2662.13,19.62c1.35,0.55,2.91,0.66,4.26,0.55c12.37-1.01,28.63-3.86,42.9-3.93c2.24-0.01,3.59,0.26,4.71,0.54" style="fill:none;stroke:#999;stroke-width:3" />
<path d="M2676.1099999999997,11.48c0.93,0.96,1.23,1.25,1.33,1.85c0.93,5.54,0.73,11.25,1,13.26" style="fill:none;stroke:#999;stroke-width:3" />
<path d="M2697.26,10.28c0.16,0.81,0.38,1.41,0.2,2.41c-1.08,5.85-1.07,7.28-2.24,12.78" style="fill:none;stroke:#999;stroke-width:3" />
<path d="M2664.67,31.43c0.27,0.24,0.54,0.44,0.66,0.74c0.93,2.37,2.04,8.92,2.68,13.18" style="fill:none;stroke:#999;stroke-width:3" />
<path d="M2666.34,33.03c5.49-1.24,12.17-2.1,15.31-2.41c1.15-0.11,1.84,0.68,1.68,1.34c-0.68,2.77-1.48,5.61-2.49,9.45" style="fill:none;stroke:#999;stroke-width:3" />
<path d="M2668.1400000000003,43.26c3.69-0.35,9.86-1.47,14.93-2.01" style="fill:none;stroke:#999;stroke-width:3" />
<path d="M2688.75,28.22c0.26,0.26,0.53,0.48,0.65,0.8c0.91,2.57,2.01,8.6,2.63,13.22" style="fill:none;stroke:#999;stroke-width:3" />
<path d="M2690.3900000000003,29.96c5.39-1.34,13.96-2.29,17.04-2.63c1.13-0.12,1.81,0.73,1.65,1.46c-0.67,3-1.45,5.04-2.44,9.19" style="fill:none;stroke:#999;stroke-width:3" />
<path d="M2692.16,39.98c3.63-0.38,11.13-1.04,16.11-1.63" style="fill:none;stroke:#999;stroke-width:3" />
<path d="M2676.77,47.3c0.13,1.12-0.04,2.6-0.44,3.56C2673.73,57 2670.44,62.2 2664.5,69.67" style="fill:none;stroke:#999;stroke-width:3" />
<path d="M2671.6,59.64c0.59,0.64,1.05,2.04,1.09,3.03C2673.04,71.5 2672.2,95.41 2672.5,100" style="fill:none;stroke:#999;stroke-width:3" />
<path d="M2694.28,46.34c0.04,0.51-0.01,1.17-0.16,1.61c-0.94,2.77-2.14,4.91-4.3,8.28" style="fill:none;stroke:#999;stroke-width:3" />
<path d="M2672.52,59.83C2679.4,59 2708.1,56.58 2711.06,56.13" style="fill:none;stroke:#999;stroke-width:3" />
<path d="M2689.79,58.68c0.33,0.32,0.6,0.77,0.6,1.33c0,5.73,0.04,26.21-0.16,35.23" style="fill:none;stroke:#999;stroke-width:3" />
<path d="M2673.44,70.76c6.5-0.69,31.51-3.26,34.3-3.63" style="fill:none;stroke:black;stroke-width:3" />
<circle cx="2673.44" cy="70.76" r="5" stroke-width="0" fill="#FF2A00" opacity="0.7" />
<path d="M2738.74,16.38c1.01,1.12,1,3.4,0.99,4.86c-0.05,10.36-0.29,39.9-0.98,42.8" style="fill:none;stroke:#999;stroke-width:3" />
<path d="M2740.27,18c7.82-0.57,21.4-2.52,23.76-2.9c0.94-0.15,2.53-0.27,3-0.03" style="fill:none;stroke:#999;stroke-width:3" />
<path d="M2752.31,18.06c0.25,0.41,0.96,0.95,0.95,1.61c-0.02,6.69-0.06,30.3-0.25,40.82" style="fill:none;stroke:#999;stroke-width:3" />
<path d="M2740.16,32.48c6.26-0.63,18.25-2.73,20.94-3.16c0.94-0.15,2.53-0.26,3-0.03" style="fill:none;stroke:#999;stroke-width:3" />
<path d="M2739.76,45.61c6.26-0.64,18.75-2.77,21.44-3.2c0.94-0.15,2.53-0.27,3-0.03" style="fill:none;stroke:#999;stroke-width:3" />
<path d="M2739.49,63.39c6.17-1.53,22.03-3.92,25.43-4.52c2.08-0.37,4.19,0.54,3.95,4.49C2768.2,74.57 2765.0,87.75 2760.75,95.28c-3.35,5.93-5.32,0.44-6.21-0.93" style="fill:none;stroke:#999;stroke-width:3" />
<path d="M2737.49,75.65c0.42,5.86-1.36,10.52-1.81,11.69" style="fill:none;stroke:#999;stroke-width:3" />
<path d="M2744.0,73.28c1.08,2.28,2,5.15,2.25,9.21" style="fill:none;stroke:#999;stroke-width:3" />
<path d="M2750.94,70.68c0.56,1.11,2.56,4.79,2.81,8.43" style="fill:none;stroke:#999;stroke-width:3" />
<path d="M2757.75,66.96c1.25,2.18,3.3,4.43,3.75,7.32" style="fill:none;stroke:#999;stroke-width:3" />
<path d="M2771.13,19.62c1.35,0.55,2.91,0.66,4.26,0.55c12.37-1.01,28.63-3.86,42.9-3.93c2.24-0.01,3.59,0.26,4.71,0.54" style="fill:none;stroke:#999;stroke-width:3" />
<path d="M2785.1099999999997,11.48c0.93,0.96,1.23,1.25,1.33,1.85c0.93,5.54,0.73,11.25,1,13.26" style="fill:none;stroke:#999;stroke-width:3" />
<path d="M2806.26,10.28c0.16,0.81,0.38,1.41,0.2,2.41c-1.08,5.85-1.07,7.28-2.24,12.78" style="fill:none;stroke:#999;stroke-width:3" />
<path d="M2773.67,31.43c0.27,0.24,0.54,0.44,0.66,0.74c0.93,2.37,2.04,8.92,2.68,13.18" style="fill:none;stroke:#999;stroke-width:3" />
<path d="M2775.34,33.03c5.49-1.24,12.17-2.1,15.31-2.41c1.15-0.11,1.84,0.68,1.68,1.34c-0.68,2.77-1.48,5.61-2.49,9.45" style="fill:none;stroke:#999;stroke-width:3" />
<path d="M2777.1400000000003,43.26c3.69-0.35,9.86-1.47,14.93-2.01" style="fill:none;stroke:#999;stroke-width:3" />
<path d="M2797.75,28.22c0.26,0.26,0.53,0.48,0.65,0.8c0.91,2.57,2.01,8.6,2.63,13.22" style="fill:none;stroke:#999;stroke-width:3" />
<path d="M2799.3900000000003,29.96c5.39-1.34,13.96-2.29,17.04-2.63c1.13-0.12,1.81,0.73,1.65,1.46c-0.67,3-1.45,5.04-2.44,9.19" style="fill:none;stroke:#999;stroke-width:3" />
<path d="M2801.16,39.98c3.63-0.38,11.13-1.04,16.11-1.63" style="fill:none;stroke:#999;stroke-width:3" />
<path d="M2785.77,47.3c0.13,1.12-0.04,2.6-0.44,3.56C2782.73,57 2779.44,62.2 2773.5,69.67" style="fill:none;stroke:#999;stroke-width:3" />
<path d="M2780.6,59.64c0.59,0.64,1.05,2.04,1.09,3.03C2782.04,71.5 2781.2,95.41 2781.5,100" style="fill:none;stroke:#999;stroke-width:3" />
<path d="M2803.28,46.34c0.04,0.51-0.01,1.17-0.16,1.61c-0.94,2.77-2.14,4.91-4.3,8.28" style="fill:none;stroke:#999;stroke-width:3" />
<path d="M2781.52,59.83C2788.4,59 2817.1,56.58 2820.06,56.13" style="fill:none;stroke:#999;stroke-width:3" />
<path d="M2798.79,58.68c0.33,0.32,0.6,0.77,0.6,1.33c0,5.73,0.04,26.21-0.16,35.23" style="fill:none;stroke:#999;stroke-width:3" />
<path d="M2782.44,70.76c6.5-0.69,31.51-3.26,34.3-3.63" style="fill:none;stroke:#999;stroke-width:3" />
<path d="M2782.22,83.38c6.86-0.58,32.5-2.83,35.44-3.14" style="fill:none;stroke:black;stroke-width:3" />
<circle cx="2782.22" cy="83.38" r="5" stroke-width="0" fill="#FF2A00" opacity="0.7" />
<path d="M2847.74,16.38c1.01,1.12,1,3.4,0.99,4.86c-0.05,10.36-0.29,39.9-0.98,42.8" style="fill:none;stroke:#999;stroke-width:3" />
<path d="M2849.27,18c7.82-0.57,21.4-2.52,23.76-2.9c0.94-0.15,2.53-0.27,3-0.03" style="fill:none;stroke:#999;stroke-width:3" />
<path d="M2861.31,18.06c0.25,0.41,0.96,0.95,0.95,1.61c-0.02,6.69-0.06,30.3-0.25,40.82" style="fill:none;stroke:#999;stroke-width:3" />
<path d="M2849.16,32.48c6.26-0.63,18.25-2.73,20.94-3.16c0.94-0.15,2.53-0.26,3-0.03" style="fill:none;stroke:#999;stroke-width:3" />
<path d="M2848.76,45.61c6.26-0.64,18.75-2.77,21.44-3.2c0.94-0.15,2.53-0.27,3-0.03" style="fill:none;stroke:#999;stroke-width:3" />
<path d="M2848.49,63.39c6.17-1.53,22.03-3.92,25.43-4.52c2.08-0.37,4.19,0.54,3.95,4.49C2877.2,74.57 2874.0,87.75 2869.75,95.28c-3.35,5.93-5.32,0.44-6.21-0.93" style="fill:none;stroke:#999;stroke-width:3" />
<path d="M2846.49,75.65c0.42,5.86-1.36,10.52-1.81,11.69" style="fill:none;stroke:#999;stroke-width:3" />
<path d="M2853.0,73.28c1.08,2.28,2,5.15,2.25,9.21" style="fill:none;stroke:#999;stroke-width:3" />
<path d="M2859.94,70.68c0.56,1.11,2.56,4.79,2.81,8.43" style="fill:none;stroke:#999;stroke-width:3" />
<path d="M2866.75,66.96c1.25,2.18,3.3,4.43,3.75,7.32" style="fill:none;stroke:#999;stroke-width:3" />
<path d="M2880.13,19.62c1.35,0.55,2.91,0.66,4.26,0.55c12.37-1.01,28.63-3.86,42.9-3.93c2.24-0.01,3.59,0.26,4.71,0.54" style="fill:none;stroke:#999;stroke-width:3" />
<path d="M2894.1099999999997,11.48c0.93,0.96,1.23,1.25,1.33,1.85c0.93,5.54,0.73,11.25,1,13.26" style="fill:none;stroke:#999;stroke-width:3" />
<path d="M2915.26,10.28c0.16,0.81,0.38,1.41,0.2,2.41c-1.08,5.85-1.07,7.28-2.24,12.78" style="fill:none;stroke:#999;stroke-width:3" />
<path d="M2882.67,31.43c0.27,0.24,0.54,0.44,0.66,0.74c0.93,2.37,2.04,8.92,2.68,13.18" style="fill:none;stroke:#999;stroke-width:3" />
<path d="M2884.34,33.03c5.49-1.24,12.17-2.1,15.31-2.41c1.15-0.11,1.84,0.68,1.68,1.34c-0.68,2.77-1.48,5.61-2.49,9.45" style="fill:none;stroke:#999;stroke-width:3" />
<path d="M2886.1400000000003,43.26c3.69-0.35,9.86-1.47,14.93-2.01" style="fill:none;stroke:#999;stroke-width:3" />
<path d="M2906.75,28.22c0.26,0.26,0.53,0.48,0.65,0.8c0.91,2.57,2.01,8.6,2.63,13.22" style="fill:none;stroke:#999;stroke-width:3" />
<path d="M2908.3900000000003,29.96c5.39-1.34,13.96-2.29,17.04-2.63c1.13-0.12,1.81,0.73,1.65,1.46c-0.67,3-1.45,5.04-2.44,9.19" style="fill:none;stroke:#999;stroke-width:3" />
<path d="M2910.16,39.98c3.63-0.38,11.13-1.04,16.11-1.63" style="fill:none;stroke:#999;stroke-width:3" />
<path d="M2894.77,47.3c0.13,1.12-0.04,2.6-0.44,3.56C2891.73,57 2888.44,62.2 2882.5,69.67" style="fill:none;stroke:#999;stroke-width:3" />
<path d="M2889.6,59.64c0.59,0.64,1.05,2.04,1.09,3.03C2891.04,71.5 2890.2,95.41 2890.5,100" style="fill:none;stroke:#999;stroke-width:3" />
<path d="M2912.28,46.34c0.04,0.51-0.01,1.17-0.16,1.61c-0.94,2.77-2.14,4.91-4.3,8.28" style="fill:none;stroke:#999;stroke-width:3" />
<path d="M2890.52,59.83C2897.4,59 2926.1,56.58 2929.06,56.13" style="fill:none;stroke:#999;stroke-width:3" />
<path d="M2907.79,58.68c0.33,0.32,0.6,0.77,0.6,1.33c0,5.73,0.04,26.21-0.16,35.23" style="fill:none;stroke:#999;stroke-width:3" />
<path d="M2891.44,70.76c6.5-0.69,31.51-3.26,34.3-3.63" style="fill:none;stroke:#999;stroke-width:3" />
<path d="M2891.22,83.38c6.86-0.58,32.5-2.83,35.44-3.14" style="fill:none;stroke:#999;stroke-width:3" />
<path d="M2890.65,97.16c6.89-0.83,38.38-2.55,41.34-3.01" style="fill:none;stroke:black;stroke-width:3" />
<circle cx="2890.65" cy="97.16" r="5" stroke-width="0" fill="#FF2A00" opacity="0.7" />
</svg>