<!-- 09b3c -->
<svg width="1090px" height="109px" viewBox="0 0 1090px 109px" xmlns="http://www.w3.org/2000/svg" xmlns:xlink="http://www.w3.org/1999/xlink" xml:space="preserve" version="1.1"  baseProfile="full">
<line x1="1" y1="1" x2="1089" y2="1" style="stroke:#ddd;stroke-width:2" />
<line x1="1" y1="1" x2="1" y2="108" style="stroke:#ddd;stroke-width:2" />
<line x1="1" y1="108" x2="1089" y2="108" style="stroke:#ddd;stroke-width:2" />
<line x1="1089" y1="1" x2="1089" y2="108" style="stroke:#ddd;stroke-width:2" />
<line x1="109" y1="1" x2="109" y2="108" style="stroke:#ddd;stroke-width:2" />
<line x1="218" y1="1" x2="218" y2="108" style="stroke:#ddd;stroke-width:2" />
<line x1="327" y1="1" x2="327" y2="108" style="stroke:#ddd;stroke-width:2" />
<line x1="436" y1="1" x2="436" y2="108" style="stroke:#ddd;stroke-width:2" />
<line x1="545" y1="1" x2="545" y2="108" style="stroke:#ddd;stroke-width:2" />
<line x1="654" y1="1" x2="654" y2="108" style="stroke:#ddd;stroke-width:2" />
<line x1="763" y1="1" x2="763" y2="108" style="stroke:#ddd;stroke-width:2" />
<line x1="872" y1="1" x2="872" y2="108" style="stroke:#ddd;stroke-width:2" />
<line x1="981" y1="1" x2="981" y2="108" style="stroke:#ddd;stroke-width:2" />
<line x1="1" y1="54" x2="1089" y2="54" style="stroke:#ddd;stroke-width:2;stroke-dasharray:3 3" />
<line x1="55" y1="1" x2="55" y2="108" style="stroke:#ddd;stroke-width:2;stroke-dasharray:3 3" />
<line x1="164" y1="1" x2="164" y2="108" style="stroke:#ddd;stroke-width:2;stroke-dasharray:3 3" />
<line x1="273" y1="1" x2="273" y2="108" style="stroke:#ddd;stroke-width:2;stroke-dasharray:3 3" />
<line x1="382" y1="1" x2="382" y2="108" style="stroke:#ddd;stroke-width:2;stroke-dasharray:3 3" />
<line x1="491" y1="1" x2="491" y2="108" style="stroke:#ddd;stroke-width:2;stroke-dasharray:3 3" />
<line x1="600" y1="1" x2="600" y2="108" style="stroke:#ddd;stroke-width:2;stroke-dasharray:3 3" />
<line x1="709" y1="1" x2="709" y2="108" style="stroke:#ddd;stroke-width:2;stroke-dasharray:3 3" />
<line x1="818" y1="1" x2="818" y2="108" style="stroke:#ddd;stroke-width:2;stroke-dasharray:3 3" />
<line x1="927" y1="1" x2="927" y2="108" style="stroke:#ddd;stroke-width:2;stroke-dasharray:3 3" />
<line x1="1036" y1="1" x2="1036" y2="108" style="stroke:#ddd;stroke-width:2;stroke-dasharray:3 3" />
<path d="M50.85,11.25c0.08,1.12-0.04,1.7-0.53,2.73C47.86,19.2 46.0,21.62 40.25,27.75" style="fill:none;stroke:black;stroke-width:3" />
<circle cx="50.85" cy="11.25" r="5" stroke-width="0" fill="#FF2A00" opacity="0.7" />
<path d="M159.85,11.25c0.08,1.12-0.04,1.7-0.53,2.73C156.86,19.2 155.0,21.62 149.25,27.75" style="fill:none;stroke:#999;stroke-width:3" />
<path d="M134.82999999999998,30.12c0.78,0.78,1.43,2.19,1.58,3c1.22,6.88,2.46,13.28,3.36,21.33c0.22,2,0.42,3.98,0.59,5.87" style="fill:none;stroke:black;stroke-width:3" />
<circle cx="134.82999999999998" cy="30.12" r="5" stroke-width="0" fill="#FF2A00" opacity="0.7" />
<path d="M268.85,11.25c0.08,1.12-0.04,1.7-0.53,2.73C265.86,19.2 264.0,21.62 258.25,27.75" style="fill:none;stroke:#999;stroke-width:3" />
<path d="M243.82999999999998,30.12c0.78,0.78,1.43,2.19,1.58,3c1.22,6.88,2.46,13.28,3.36,21.33c0.22,2,0.42,3.98,0.59,5.87" style="fill:none;stroke:#999;stroke-width:3" />
<path d="M246.17000000000002,31.95c12.95-1.7,31.45-4.7,42.95-5.53c3.28-0.24,4.63,1.83,4.28,4.12c-0.7,4.57-2.19,11.16-5.08,19.48c-0.51,1.47-1.07,3.01-1.69,4.61" style="fill:none;stroke:black;stroke-width:3" />
<circle cx="246.17000000000002" cy="31.95" r="5" stroke-width="0" fill="#FF2A00" opacity="0.7" />
<path d="M377.85,11.25c0.08,1.12-0.04,1.7-0.53,2.73C374.86,19.2 373.0,21.62 367.25,27.75" style="fill:none;stroke:#999;stroke-width:3" />
<path d="M352.83,30.12c0.78,0.78,1.43,2.19,1.58,3c1.22,6.88,2.46,13.28,3.36,21.33c0.22,2,0.42,3.98,0.59,5.87" style="fill:none;stroke:#999;stroke-width:3" />
<path d="M355.17,31.95c12.95-1.7,31.45-4.7,42.95-5.53c3.28-0.24,4.63,1.83,4.28,4.12c-0.7,4.57-2.19,11.16-5.08,19.48c-0.51,1.47-1.07,3.01-1.69,4.61" style="fill:none;stroke:#999;stroke-width:3" />
<path d="M376.58,30.87c0.65,0.65,1.03,1.88,1.03,3.07c0,8.31-0.05,15.87,0,19.13" style="fill:none;stroke:black;stroke-width:3" />
<circle cx="376.58" cy="30.87" r="5" stroke-width="0" fill="#FF2A00" opacity="0.7" />
<path d="M486.85,11.25c0.08,1.12-0.04,1.7-0.53,2.73C483.86,19.2 482.0,21.62 476.25,27.75" style="fill:none;stroke:#999;stroke-width:3" />
<path d="M461.83,30.12c0.78,0.78,1.43,2.19,1.58,3c1.22,6.88,2.46,13.28,3.36,21.33c0.22,2,0.42,3.98,0.59,5.87" style="fill:none;stroke:#999;stroke-width:3" />
<path d="M464.17,31.95c12.95-1.7,31.45-4.7,42.95-5.53c3.28-0.24,4.63,1.83,4.28,4.12c-0.7,4.57-2.19,11.16-5.08,19.48c-0.51,1.47-1.07,3.01-1.69,4.61" style="fill:none;stroke:#999;stroke-width:3" />
<path d="M485.58,30.87c0.65,0.65,1.03,1.88,1.03,3.07c0,8.31-0.05,15.87,0,19.13" style="fill:none;stroke:#999;stroke-width:3" />
<path d="M466.56,44.82c8.57-1.57,34.19-4.57,41.65-5.12" style="fill:none;stroke:black;stroke-width:3" />
<circle cx="466.56" cy="44.82" r="5" stroke-width="0" fill="#FF2A00" opacity="0.7" />
<path d="M595.85,11.25c0.08,1.12-0.04,1.7-0.53,2.73C592.86,19.2 591.0,21.62 585.25,27.75" style="fill:none;stroke:#999;stroke-width:3" />
<path d="M570.8299999999999,30.12c0.78,0.78,1.43,2.19,1.58,3c1.22,6.88,2.46,13.28,3.36,21.33c0.22,2,0.42,3.98,0.59,5.87" style="fill:none;stroke:#999;stroke-width:3" />
<path d="M573.1700000000001,31.95c12.95-1.7,31.45-4.7,42.95-5.53c3.28-0.24,4.63,1.83,4.28,4.12c-0.7,4.57-2.19,11.16-5.08,19.48c-0.51,1.47-1.07,3.01-1.69,4.61" style="fill:none;stroke:#999;stroke-width:3" />
<path d="M594.5799999999999,30.87c0.65,0.65,1.03,1.88,1.03,3.07c0,8.31-0.05,15.87,0,19.13" style="fill:none;stroke:#999;stroke-width:3" />
<path d="M575.56,44.82c8.57-1.57,34.19-4.57,41.65-5.12" style="fill:none;stroke:#999;stroke-width:3" />
<path d="M577.23,56.89c13.52-2.14,23.52-3.64,36.49-5.12" style="fill:none;stroke:black;stroke-width:3" />
<circle cx="577.23" cy="56.89" r="5" stroke-width="0" fill="#FF2A00" opacity="0.7" />
<path d="M704.85,11.25c0.08,1.12-0.04,1.7-0.53,2.73C701.86,19.2 700.0,21.62 694.25,27.75" style="fill:none;stroke:#999;stroke-width:3" />
<path d="M679.8299999999999,30.12c0.78,0.78,1.43,2.19,1.58,3c1.22,6.88,2.46,13.28,3.36,21.33c0.22,2,0.42,3.98,0.59,5.87" style="fill:none;stroke:#999;stroke-width:3" />
<path d="M682.1700000000001,31.95c12.95-1.7,31.45-4.7,42.95-5.53c3.28-0.24,4.63,1.83,4.28,4.12c-0.7,4.57-2.19,11.16-5.08,19.48c-0.51,1.47-1.07,3.01-1.69,4.61" style="fill:none;stroke:#999;stroke-width:3" />
<path d="M703.5799999999999,30.87c0.65,0.65,1.03,1.88,1.03,3.07c0,8.31-0.05,15.87,0,19.13" style="fill:none;stroke:#999;stroke-width:3" />
<path d="M684.56,44.82c8.57-1.57,34.19-4.57,41.65-5.12" style="fill:none;stroke:#999;stroke-width:3" />
<path d="M686.23,56.89c13.52-2.14,23.52-3.64,36.49-5.12" style="fill:none;stroke:#999;stroke-width:3" />
<path d="M694.5,60.5c0.25,0.75,0.44,1.97,0.12,3.18c-2.74,10.2-7.99,23.07-23.12,32.07" style="fill:none;stroke:black;stroke-width:3" />
<circle cx="694.5" cy="60.5" r="5" stroke-width="0" fill="#FF2A00" opacity="0.7" />
<path d="M813.85,11.25c0.08,1.12-0.04,1.7-0.53,2.73C810.86,19.2 809.0,21.62 803.25,27.75" style="fill:none;stroke:#999;stroke-width:3" />
<path d="M788.8299999999999,30.12c0.78,0.78,1.43,2.19,1.58,3c1.22,6.88,2.46,13.28,3.36,21.33c0.22,2,0.42,3.98,0.59,5.87" style="fill:none;stroke:#999;stroke-width:3" />
<path d="M791.1700000000001,31.95c12.95-1.7,31.45-4.7,42.95-5.53c3.28-0.24,4.63,1.83,4.28,4.12c-0.7,4.57-2.19,11.16-5.08,19.48c-0.51,1.47-1.07,3.01-1.69,4.61" style="fill:none;stroke:#999;stroke-width:3" />
<path d="M812.5799999999999,30.87c0.65,0.65,1.03,1.88,1.03,3.07c0,8.31-0.05,15.87,0,19.13" style="fill:none;stroke:#999;stroke-width:3" />
<path d="M793.56,44.82c8.57-1.57,34.19-4.57,41.65-5.12" style="fill:none;stroke:#999;stroke-width:3" />
<path d="M795.23,56.89c13.52-2.14,23.52-3.64,36.49-5.12" style="fill:none;stroke:#999;stroke-width:3" />
<path d="M803.5,60.5c0.25,0.75,0.44,1.97,0.12,3.18c-2.74,10.2-7.99,23.07-23.12,32.07" style="fill:none;stroke:#999;stroke-width:3" />
<path d="M815.49,57.37c1.01,1.01,1.33,2.59,1.38,4.43c0.2,8.19,0.08,19.14,0.08,24.7c0,9.5,1.81,11.53,19.97,11.53c20.47,0,21.34-1.9,21.34-9.12" style="fill:none;stroke:black;stroke-width:3" />
<circle cx="815.49" cy="57.37" r="5" stroke-width="0" fill="#FF2A00" opacity="0.7" />
<path d="M922.85,11.25c0.08,1.12-0.04,1.7-0.53,2.73C919.86,19.2 918.0,21.62 912.25,27.75" style="fill:none;stroke:#999;stroke-width:3" />
<path d="M897.8299999999999,30.12c0.78,0.78,1.43,2.19,1.58,3c1.22,6.88,2.46,13.28,3.36,21.33c0.22,2,0.42,3.98,0.59,5.87" style="fill:none;stroke:#999;stroke-width:3" />
<path d="M900.1700000000001,31.95c12.95-1.7,31.45-4.7,42.95-5.53c3.28-0.24,4.63,1.83,4.28,4.12c-0.7,4.57-2.19,11.16-5.08,19.48c-0.51,1.47-1.07,3.01-1.69,4.61" style="fill:none;stroke:#999;stroke-width:3" />
<path d="M921.5799999999999,30.87c0.65,0.65,1.03,1.88,1.03,3.07c0,8.31-0.05,15.87,0,19.13" style="fill:none;stroke:#999;stroke-width:3" />
<path d="M902.56,44.82c8.57-1.57,34.19-4.57,41.65-5.12" style="fill:none;stroke:#999;stroke-width:3" />
<path d="M904.23,56.89c13.52-2.14,23.52-3.64,36.49-5.12" style="fill:none;stroke:#999;stroke-width:3" />
<path d="M912.5,60.5c0.25,0.75,0.44,1.97,0.12,3.18c-2.74,10.2-7.99,23.07-23.12,32.07" style="fill:none;stroke:#999;stroke-width:3" />
<path d="M924.49,57.37c1.01,1.01,1.33,2.59,1.38,4.43c0.2,8.19,0.08,19.14,0.08,24.7c0,9.5,1.81,11.53,19.97,11.53c20.47,0,21.34-1.9,21.34-9.12" style="fill:none;stroke:#999;stroke-width:3" />
<path d="M941.75,60.22c0.37,0.9,0.37,1.9-0.08,3.09c-2.48,6.51-4.62,11.46-8.07,16.23c-1.09,1.51-0.29,2.53,1.25,2.01c5.39-1.8,12.89-4.8,18.13-6.69" style="fill:none;stroke:black;stroke-width:3" />
<circle cx="941.75" cy="60.22" r="5" stroke-width="0" fill="#FF2A00" opacity="0.7" />
<path d="M1031.85,11.25c0.08,1.12-0.04,1.7-0.53,2.73C1028.8600000000001,19.2 1027.0,21.62 1021.25,27.75" style="fill:none;stroke:#999;stroke-width:3" />
<path d="M1006.8299999999999,30.12c0.78,0.78,1.43,2.19,1.58,3c1.22,6.88,2.46,13.28,3.36,21.33c0.22,2,0.42,3.98,0.59,5.87" style="fill:none;stroke:#999;stroke-width:3" />
<path d="M1009.1700000000001,31.95c12.95-1.7,31.45-4.7,42.95-5.53c3.28-0.24,4.63,1.83,4.28,4.12c-0.7,4.57-2.19,11.16-5.08,19.48c-0.51,1.47-1.07,3.01-1.69,4.61" style="fill:none;stroke:#999;stroke-width:3" />
<path d="M1030.58,30.87c0.65,0.65,1.03,1.88,1.03,3.07c0,8.31-0.05,15.87,0,19.13" style="fill:none;stroke:#999;stroke-width:3" />
<path d="M1011.56,44.82c8.57-1.57,34.19-4.57,41.65-5.12" style="fill:none;stroke:#999;stroke-width:3" />
<path d="M1013.23,56.89c13.52-2.14,23.52-3.64,36.49-5.12" style="fill:none;stroke:#999;stroke-width:3" />
<path d="M1021.5,60.5c0.25,0.75,0.44,1.97,0.12,3.18c-2.74,10.2-7.99,23.07-23.12,32.07" style="fill:none;stroke:#999;stroke-width:3" />
<path d="M1033.49,57.37c1.01,1.01,1.33,2.59,1.38,4.43c0.2,8.19,0.08,19.14,0.08,24.7c0,9.5,1.81,11.53,19.97,11.53c20.47,0,21.34-1.9,21.34-9.12" style="fill:none;stroke:#999;stroke-width:3" />
<path d="M1050.75,60.22c0.37,0.9,0.37,1.9-0.08,3.09c-2.48,6.51-4.62,11.46-8.07,16.23c-1.09,1.51-0.29,2.53,1.25,2.01c5.39-1.8,12.89-4.8,18.13-6.69" style="fill:none;stroke:#999;stroke-width:3" />
<path d="M1058.79,70.43c2.44,1.77,7.79,8.78,8.4,11.54" style="fill:none;stroke:black;stroke-width:3" />
<circle cx="1058.79" cy="70.43" r="5" stroke-width="0" fill="#FF2A00" opacity="0.7" />
</svg>