<!-- 09e7f -->
<svg width="1199px" height="109px" viewBox="0 0 1199px 109px" xmlns="http://www.w3.org/2000/svg" xmlns:xlink="http://www.w3.org/1999/xlink" xml:space="preserve" version="1.1"  baseProfile="full">
<line x1="1" y1="1" x2="1198" y2="1" style="stroke:#ddd;stroke-width:2" />
<line x1="1" y1="1" x2="1" y2="108" style="stroke:#ddd;stroke-width:2" />
<line x1="1" y1="108" x2="1198" y2="108" style="stroke:#ddd;stroke-width:2" />
<line x1="1198" y1="1" x2="1198" y2="108" style="stroke:#ddd;stroke-width:2" />
<line x1="109" y1="1" x2="109" y2="108" style="stroke:#ddd;stroke-width:2" />
<line x1="218" y1="1" x2="218" y2="108" style="stroke:#ddd;stroke-width:2" />
<line x1="327" y1="1" x2="327" y2="108" style="stroke:#ddd;stroke-width:2" />
<line x1="436" y1="1" x2="436" y2="108" style="stroke:#ddd;stroke-width:2" />
<line x1="545" y1="1" x2="545" y2="108" style="stroke:#ddd;stroke-width:2" />
<line x1="654" y1="1" x2="654" y2="108" style="stroke:#ddd;stroke-width:2" />
<line x1="763" y1="1" x2="763" y2="108" style="stroke:#ddd;stroke-width:2" />
<line x1="872" y1="1" x2="872" y2="108" style="stroke:#ddd;stroke-width:2" />
<line x1="981" y1="1" x2="981" y2="108" style="stroke:#ddd;stroke-width:2" />
<line x1="1090" y1="1" x2="1090" y2="108" style="stroke:#ddd;stroke-width:2" />
<line x1="1" y1="54" x2="1198" y2="54" style="stroke:#ddd;stroke-width:2;stroke-dasharray:3 3" />
<line x1="55" y1="1" x2="55" y2="108" style="stroke:#ddd;stroke-width:2;stroke-dasharray:3 3" />
<line x1="164" y1="1" x2="164" y2="108" style="stroke:#ddd;stroke-width:2;stroke-dasharray:3 3" />
<line x1="273" y1="1" x2="273" y2="108" style="stroke:#ddd;stroke-width:2;stroke-dasharray:3 3" />
<line x1="382" y1="1" x2="382" y2="108" style="stroke:#ddd;stroke-width:2;stroke-dasharray:3 3" />
<line x1="491" y1="1" x2="491" y2="108" style="stroke:#ddd;stroke-width:2;stroke-dasharray:3 3" />
<line x1="600" y1="1" x2="600" y2="108" style="stroke:#ddd;stroke-width:2;stroke-dasharray:3 3" />
<line x1="709" y1="1" x2="709" y2="108" style="stroke:#ddd;stroke-width:2;stroke-dasharray:3 3" />
<line x1="818" y1="1" x2="818" y2="108" style="stroke:#ddd;stroke-width:2;stroke-dasharray:3 3" />
<line x1="927" y1="1" x2="927" y2="108" style="stroke:#ddd;stroke-width:2;stroke-dasharray:3 3" />
<line x1="1036" y1="1" x2="1036" y2="108" style="stroke:#ddd;stroke-width:2;stroke-dasharray:3 3" />
<line x1="1145" y1="1" x2="1145" y2="108" style="stroke:#ddd;stroke-width:2;stroke-dasharray:3 3" />
<path d="M52.81,10.63c1.22,1.22,1.51,2.62,1.51,4.15c0,1.59-0.07,2.71-0.07,7.46" style="fill:none;stroke:black;stroke-width:3" />
<circle cx="52.81" cy="10.63" r="5" stroke-width="0" fill="#FF2A00" opacity="0.7" />
<path d="M161.81,10.63c1.22,1.22,1.51,2.62,1.51,4.15c0,1.59-0.07,2.71-0.07,7.46" style="fill:none;stroke:#999;stroke-width:3" />
<path d="M130.38,25.23c3.37,0.52,6.88,0.29,10,0.01c12.46-1.12,29.03-2.76,45-3.69c3.48-0.2,6.82-0.47,10.25,0.27" style="fill:none;stroke:black;stroke-width:3" />
<circle cx="130.38" cy="25.23" r="5" stroke-width="0" fill="#FF2A00" opacity="0.7" />
<path d="M270.81,10.63c1.22,1.22,1.51,2.62,1.51,4.15c0,1.59-0.07,2.71-0.07,7.46" style="fill:none;stroke:#999;stroke-width:3" />
<path d="M239.38,25.23c3.37,0.52,6.88,0.29,10,0.01c12.46-1.12,29.03-2.76,45-3.69c3.48-0.2,6.82-0.47,10.25,0.27" style="fill:none;stroke:#999;stroke-width:3" />
<path d="M242.74,26.25c1.07,1.07,0.99,2.59,0.91,4.88C243.0,49.88 240.88,75 228.56,92.47" style="fill:none;stroke:black;stroke-width:3" />
<circle cx="242.74" cy="26.25" r="5" stroke-width="0" fill="#FF2A00" opacity="0.7" />
<path d="M379.81,10.63c1.22,1.22,1.51,2.62,1.51,4.15c0,1.59-0.07,2.71-0.07,7.46" style="fill:none;stroke:#999;stroke-width:3" />
<path d="M348.38,25.23c3.37,0.52,6.88,0.29,10,0.01c12.46-1.12,29.03-2.76,45-3.69c3.48-0.2,6.82-0.47,10.25,0.27" style="fill:none;stroke:#999;stroke-width:3" />
<path d="M351.74,26.25c1.07,1.07,0.99,2.59,0.91,4.88C352.0,49.88 349.88,75 337.56,92.47" style="fill:none;stroke:#999;stroke-width:3" />
<path d="M358.75,41.62c2.99,0.94,5.57,0.89,8.61,0.45c11.76-1.7,34.88-4.14,38.65-4.39c3-0.2,4.07,1.69,3.53,3.94c-1.01,4.15-1.42,6.25-2.65,11.58" style="fill:none;stroke:black;stroke-width:3" />
<circle cx="358.75" cy="41.62" r="5" stroke-width="0" fill="#FF2A00" opacity="0.7" />
<path d="M488.81,10.63c1.22,1.22,1.51,2.62,1.51,4.15c0,1.59-0.07,2.71-0.07,7.46" style="fill:none;stroke:#999;stroke-width:3" />
<path d="M457.38,25.23c3.37,0.52,6.88,0.29,10,0.01c12.46-1.12,29.03-2.76,45-3.69c3.48-0.2,6.82-0.47,10.25,0.27" style="fill:none;stroke:#999;stroke-width:3" />
<path d="M460.74,26.25c1.07,1.07,0.99,2.59,0.91,4.88C461.0,49.88 458.88,75 446.56,92.47" style="fill:none;stroke:#999;stroke-width:3" />
<path d="M467.75,41.62c2.99,0.94,5.57,0.89,8.61,0.45c11.76-1.7,34.88-4.14,38.65-4.39c3-0.2,4.07,1.69,3.53,3.94c-1.01,4.15-1.42,6.25-2.65,11.58" style="fill:none;stroke:#999;stroke-width:3" />
<path d="M481.74,30.87c0.88,0.88,1.25,1.59,1.33,2.95c0.42,7.56,0.8,14.68,1.17,21.93" style="fill:none;stroke:black;stroke-width:3" />
<circle cx="481.74" cy="30.87" r="5" stroke-width="0" fill="#FF2A00" opacity="0.7" />
<path d="M597.81,10.63c1.22,1.22,1.51,2.62,1.51,4.15c0,1.59-0.07,2.71-0.07,7.46" style="fill:none;stroke:#999;stroke-width:3" />
<path d="M566.38,25.23c3.37,0.52,6.88,0.29,10,0.01c12.46-1.12,29.03-2.76,45-3.69c3.48-0.2,6.82-0.47,10.25,0.27" style="fill:none;stroke:#999;stroke-width:3" />
<path d="M569.74,26.25c1.07,1.07,0.99,2.59,0.91,4.88C570.0,49.88 567.88,75 555.56,92.47" style="fill:none;stroke:#999;stroke-width:3" />
<path d="M576.75,41.62c2.99,0.94,5.57,0.89,8.61,0.45c11.76-1.7,34.88-4.14,38.65-4.39c3-0.2,4.07,1.69,3.53,3.94c-1.01,4.15-1.42,6.25-2.65,11.58" style="fill:none;stroke:#999;stroke-width:3" />
<path d="M590.74,30.87c0.88,0.88,1.25,1.59,1.33,2.95c0.42,7.56,0.8,14.68,1.17,21.93" style="fill:none;stroke:#999;stroke-width:3" />
<path d="M611.64,26.34c0.76,0.76,0.95,1.54,0.83,2.95C611.88,36.62 610.75,48.25 610.0,54" style="fill:none;stroke:black;stroke-width:3" />
<circle cx="611.64" cy="26.34" r="5" stroke-width="0" fill="#FF2A00" opacity="0.7" />
<path d="M706.81,10.63c1.22,1.22,1.51,2.62,1.51,4.15c0,1.59-0.07,2.71-0.07,7.46" style="fill:none;stroke:#999;stroke-width:3" />
<path d="M675.38,25.23c3.37,0.52,6.88,0.29,10,0.01c12.46-1.12,29.03-2.76,45-3.69c3.48-0.2,6.82-0.47,10.25,0.27" style="fill:none;stroke:#999;stroke-width:3" />
<path d="M678.74,26.25c1.07,1.07,0.99,2.59,0.91,4.88C679.0,49.88 676.88,75 664.56,92.47" style="fill:none;stroke:#999;stroke-width:3" />
<path d="M685.75,41.62c2.99,0.94,5.57,0.89,8.61,0.45c11.76-1.7,34.88-4.14,38.65-4.39c3-0.2,4.07,1.69,3.53,3.94c-1.01,4.15-1.42,6.25-2.65,11.58" style="fill:none;stroke:#999;stroke-width:3" />
<path d="M699.74,30.87c0.88,0.88,1.25,1.59,1.33,2.95c0.42,7.56,0.8,14.68,1.17,21.93" style="fill:none;stroke:#999;stroke-width:3" />
<path d="M720.64,26.34c0.76,0.76,0.95,1.54,0.83,2.95C720.88,36.62 719.75,48.25 719.0,54" style="fill:none;stroke:#999;stroke-width:3" />
<path d="M685.75,57.64c2.25,0.91,5.05,0.47,7.35,0.19c8.38-1,25.86-2.93,35.02-3.53c2.59-0.17,5.33-0.42,7.88,0.2" style="fill:none;stroke:black;stroke-width:3" />
<circle cx="685.75" cy="57.64" r="5" stroke-width="0" fill="#FF2A00" opacity="0.7" />
<path d="M815.81,10.63c1.22,1.22,1.51,2.62,1.51,4.15c0,1.59-0.07,2.71-0.07,7.46" style="fill:none;stroke:#999;stroke-width:3" />
<path d="M784.38,25.23c3.37,0.52,6.88,0.29,10,0.01c12.46-1.12,29.03-2.76,45-3.69c3.48-0.2,6.82-0.47,10.25,0.27" style="fill:none;stroke:#999;stroke-width:3" />
<path d="M787.74,26.25c1.07,1.07,0.99,2.59,0.91,4.88C788.0,49.88 785.88,75 773.56,92.47" style="fill:none;stroke:#999;stroke-width:3" />
<path d="M794.75,41.62c2.99,0.94,5.57,0.89,8.61,0.45c11.76-1.7,34.88-4.14,38.65-4.39c3-0.2,4.07,1.69,3.53,3.94c-1.01,4.15-1.42,6.25-2.65,11.58" style="fill:none;stroke:#999;stroke-width:3" />
<path d="M808.74,30.87c0.88,0.88,1.25,1.59,1.33,2.95c0.42,7.56,0.8,14.68,1.17,21.93" style="fill:none;stroke:#999;stroke-width:3" />
<path d="M829.64,26.34c0.76,0.76,0.95,1.54,0.83,2.95C829.88,36.62 828.75,48.25 828.0,54" style="fill:none;stroke:#999;stroke-width:3" />
<path d="M794.75,57.64c2.25,0.91,5.05,0.47,7.35,0.19c8.38-1,25.86-2.93,35.02-3.53c2.59-0.17,5.33-0.42,7.88,0.2" style="fill:none;stroke:#999;stroke-width:3" />
<path d="M802.11,78.04c4.05-0.49,7.25-1.17,11-1.66c1.33-0.17,2.7-0.39,4.04-0.21" style="fill:none;stroke:black;stroke-width:3" />
<circle cx="802.11" cy="78.04" r="5" stroke-width="0" fill="#FF2A00" opacity="0.7" />
<path d="M924.81,10.63c1.22,1.22,1.51,2.62,1.51,4.15c0,1.59-0.07,2.71-0.07,7.46" style="fill:none;stroke:#999;stroke-width:3" />
<path d="M893.38,25.23c3.37,0.52,6.88,0.29,10,0.01c12.46-1.12,29.03-2.76,45-3.69c3.48-0.2,6.82-0.47,10.25,0.27" style="fill:none;stroke:#999;stroke-width:3" />
<path d="M896.74,26.25c1.07,1.07,0.99,2.59,0.91,4.88C897.0,49.88 894.88,75 882.56,92.47" style="fill:none;stroke:#999;stroke-width:3" />
<path d="M903.75,41.62c2.99,0.94,5.57,0.89,8.61,0.45c11.76-1.7,34.88-4.14,38.65-4.39c3-0.2,4.07,1.69,3.53,3.94c-1.01,4.15-1.42,6.25-2.65,11.58" style="fill:none;stroke:#999;stroke-width:3" />
<path d="M917.74,30.87c0.88,0.88,1.25,1.59,1.33,2.95c0.42,7.56,0.8,14.68,1.17,21.93" style="fill:none;stroke:#999;stroke-width:3" />
<path d="M938.64,26.34c0.76,0.76,0.95,1.54,0.83,2.95C938.88,36.62 937.75,48.25 937.0,54" style="fill:none;stroke:#999;stroke-width:3" />
<path d="M903.75,57.64c2.25,0.91,5.05,0.47,7.35,0.19c8.38-1,25.86-2.93,35.02-3.53c2.59-0.17,5.33-0.42,7.88,0.2" style="fill:none;stroke:#999;stroke-width:3" />
<path d="M911.11,78.04c4.05-0.49,7.25-1.17,11-1.66c1.33-0.17,2.7-0.39,4.04-0.21" style="fill:none;stroke:#999;stroke-width:3" />
<path d="M907.5,66.95c0.9,0.9,1.17,2.05,1.17,3.55c0,1.95-0.03,17.37-0.03,22.57c0,2.74,0.48,3.91,3.1,2.97c3.27-1.17,7.14-2.79,11.35-4.09" style="fill:none;stroke:black;stroke-width:3" />
<circle cx="907.5" cy="66.95" r="5" stroke-width="0" fill="#FF2A00" opacity="0.7" />
<path d="M1033.81,10.63c1.22,1.22,1.51,2.62,1.51,4.15c0,1.59-0.07,2.71-0.07,7.46" style="fill:none;stroke:#999;stroke-width:3" />
<path d="M1002.38,25.23c3.37,0.52,6.88,0.29,10,0.01c12.46-1.12,29.03-2.76,45-3.69c3.48-0.2,6.82-0.47,10.25,0.27" style="fill:none;stroke:#999;stroke-width:3" />
<path d="M1005.74,26.25c1.07,1.07,0.99,2.59,0.91,4.88C1006.0,49.88 1003.88,75 991.56,92.47" style="fill:none;stroke:#999;stroke-width:3" />
<path d="M1012.75,41.62c2.99,0.94,5.57,0.89,8.61,0.45c11.76-1.7,34.88-4.14,38.65-4.39c3-0.2,4.07,1.69,3.53,3.94c-1.01,4.15-1.42,6.25-2.65,11.58" style="fill:none;stroke:#999;stroke-width:3" />
<path d="M1026.74,30.87c0.88,0.88,1.25,1.59,1.33,2.95c0.42,7.56,0.8,14.68,1.17,21.93" style="fill:none;stroke:#999;stroke-width:3" />
<path d="M1047.6399999999999,26.34c0.76,0.76,0.95,1.54,0.83,2.95C1047.88,36.62 1046.75,48.25 1046.0,54" style="fill:none;stroke:#999;stroke-width:3" />
<path d="M1012.75,57.64c2.25,0.91,5.05,0.47,7.35,0.19c8.38-1,25.86-2.93,35.02-3.53c2.59-0.17,5.33-0.42,7.88,0.2" style="fill:none;stroke:#999;stroke-width:3" />
<path d="M1020.11,78.04c4.05-0.49,7.25-1.17,11-1.66c1.33-0.17,2.7-0.39,4.04-0.21" style="fill:none;stroke:#999;stroke-width:3" />
<path d="M1016.5,66.95c0.9,0.9,1.17,2.05,1.17,3.55c0,1.95-0.03,17.37-0.03,22.57c0,2.74,0.48,3.91,3.1,2.97c3.27-1.17,7.14-2.79,11.35-4.09" style="fill:none;stroke:#999;stroke-width:3" />
<path d="M1067.83,67.08c0,0.8-0.26,1.74-1.05,2.39c-2.03,1.66-10.06,6.73-17.08,9.67" style="fill:none;stroke:black;stroke-width:3" />
<circle cx="1067.83" cy="67.08" r="5" stroke-width="0" fill="#FF2A00" opacity="0.7" />
<path d="M1142.81,10.63c1.22,1.22,1.51,2.62,1.51,4.15c0,1.59-0.07,2.71-0.07,7.46" style="fill:none;stroke:#999;stroke-width:3" />
<path d="M1111.38,25.23c3.37,0.52,6.88,0.29,10,0.01c12.46-1.12,29.03-2.76,45-3.69c3.48-0.2,6.82-0.47,10.25,0.27" style="fill:none;stroke:#999;stroke-width:3" />
<path d="M1114.74,26.25c1.07,1.07,0.99,2.59,0.91,4.88C1115.0,49.88 1112.88,75 1100.56,92.47" style="fill:none;stroke:#999;stroke-width:3" />
<path d="M1121.75,41.62c2.99,0.94,5.57,0.89,8.61,0.45c11.76-1.7,34.88-4.14,38.65-4.39c3-0.2,4.07,1.69,3.53,3.94c-1.01,4.15-1.42,6.25-2.65,11.58" style="fill:none;stroke:#999;stroke-width:3" />
<path d="M1135.74,30.87c0.88,0.88,1.25,1.59,1.33,2.95c0.42,7.56,0.8,14.68,1.17,21.93" style="fill:none;stroke:#999;stroke-width:3" />
<path d="M1156.6399999999999,26.34c0.76,0.76,0.95,1.54,0.83,2.95C1156.88,36.62 1155.75,48.25 1155.0,54" style="fill:none;stroke:#999;stroke-width:3" />
<path d="M1121.75,57.64c2.25,0.91,5.05,0.47,7.35,0.19c8.38-1,25.86-2.93,35.02-3.53c2.59-0.17,5.33-0.42,7.88,0.2" style="fill:none;stroke:#999;stroke-width:3" />
<path d="M1129.1100000000001,78.04c4.05-0.49,7.25-1.17,11-1.66c1.33-0.17,2.7-0.39,4.04-0.21" style="fill:none;stroke:#999;stroke-width:3" />
<path d="M1125.5,66.95c0.9,0.9,1.17,2.05,1.17,3.55c0,1.95-0.03,17.37-0.03,22.57c0,2.74,0.48,3.91,3.1,2.97c3.27-1.17,7.14-2.79,11.35-4.09" style="fill:none;stroke:#999;stroke-width:3" />
<path d="M1176.83,67.08c0,0.8-0.26,1.74-1.05,2.39c-2.03,1.66-10.06,6.73-17.08,9.67" style="fill:none;stroke:#999;stroke-width:3" />
<path d="M1154.33,62.75c0.96,0.96,0.91,2.5,0.91,3.92c0,1.87-0.11,18.45-0.11,21.08c0,7.99,1.88,9.33,14.02,9.33c11.36,0,13.39-0.83,13.39-7.72" style="fill:none;stroke:black;stroke-width:3" />
<circle cx="1154.33" cy="62.75" r="5" stroke-width="0" fill="#FF2A00" opacity="0.7" />
</svg>