<!-- 09ea9 -->
<svg width="1635px" height="109px" viewBox="0 0 1635px 109px" xmlns="http://www.w3.org/2000/svg" xmlns:xlink="http://www.w3.org/1999/xlink" xml:space="preserve" version="1.1"  baseProfile="full">
<line x1="1" y1="1" x2="1634" y2="1" style="stroke:#ddd;stroke-width:2" />
<line x1="1" y1="1" x2="1" y2="108" style="stroke:#ddd;stroke-width:2" />
<line x1="1" y1="108" x2="1634" y2="108" style="stroke:#ddd;stroke-width:2" />
<line x1="1634" y1="1" x2="1634" y2="108" style="stroke:#ddd;stroke-width:2" />
<line x1="109" y1="1" x2="109" y2="108" style="stroke:#ddd;stroke-width:2" />
<line x1="218" y1="1" x2="218" y2="108" style="stroke:#ddd;stroke-width:2" />
<line x1="327" y1="1" x2="327" y2="108" style="stroke:#ddd;stroke-width:2" />
<line x1="436" y1="1" x2="436" y2="108" style="stroke:#ddd;stroke-width:2" />
<line x1="545" y1="1" x2="545" y2="108" style="stroke:#ddd;stroke-width:2" />
<line x1="654" y1="1" x2="654" y2="108" style="stroke:#ddd;stroke-width:2" />
<line x1="763" y1="1" x2="763" y2="108" style="stroke:#ddd;stroke-width:2" />
<line x1="872" y1="1" x2="872" y2="108" style="stroke:#ddd;stroke-width:2" />
<line x1="981" y1="1" x2="981" y2="108" style="stroke:#ddd;stroke-width:2" />
<line x1="1090" y1="1" x2="1090" y2="108" style="stroke:#ddd;stroke-width:2" />
<line x1="1199" y1="1" x2="1199" y2="108" style="stroke:#ddd;stroke-width:2" />
<line x1="1308" y1="1" x2="1308" y2="108" style="stroke:#ddd;stroke-width:2" />
<line x1="1417" y1="1" x2="1417" y2="108" style="stroke:#ddd;stroke-width:2" />
<line x1="1526" y1="1" x2="1526" y2="108" style="stroke:#ddd;stroke-width:2" />
<line x1="1" y1="54" x2="1634" y2="54" style="stroke:#ddd;stroke-width:2;stroke-dasharray:3 3" />
<line x1="55" y1="1" x2="55" y2="108" style="stroke:#ddd;stroke-width:2;stroke-dasharray:3 3" />
<line x1="164" y1="1" x2="164" y2="108" style="stroke:#ddd;stroke-width:2;stroke-dasharray:3 3" />
<line x1="273" y1="1" x2="273" y2="108" style="stroke:#ddd;stroke-width:2;stroke-dasharray:3 3" />
<line x1="382" y1="1" x2="382" y2="108" style="stroke:#ddd;stroke-width:2;stroke-dasharray:3 3" />
<line x1="491" y1="1" x2="491" y2="108" style="stroke:#ddd;stroke-width:2;stroke-dasharray:3 3" />
<line x1="600" y1="1" x2="600" y2="108" style="stroke:#ddd;stroke-width:2;stroke-dasharray:3 3" />
<line x1="709" y1="1" x2="709" y2="108" style="stroke:#ddd;stroke-width:2;stroke-dasharray:3 3" />
<line x1="818" y1="1" x2="818" y2="108" style="stroke:#ddd;stroke-width:2;stroke-dasharray:3 3" />
<line x1="927" y1="1" x2="927" y2="108" style="stroke:#ddd;stroke-width:2;stroke-dasharray:3 3" />
<line x1="1036" y1="1" x2="1036" y2="108" style="stroke:#ddd;stroke-width:2;stroke-dasharray:3 3" />
<line x1="1145" y1="1" x2="1145" y2="108" style="stroke:#ddd;stroke-width:2;stroke-dasharray:3 3" />
<line x1="1254" y1="1" x2="1254" y2="108" style="stroke:#ddd;stroke-width:2;stroke-dasharray:3 3" />
<line x1="1363" y1="1" x2="1363" y2="108" style="stroke:#ddd;stroke-width:2;stroke-dasharray:3 3" />
<line x1="1472" y1="1" x2="1472" y2="108" style="stroke:#ddd;stroke-width:2;stroke-dasharray:3 3" />
<line x1="1581" y1="1" x2="1581" y2="108" style="stroke:#ddd;stroke-width:2;stroke-dasharray:3 3" />
<path d="M 14.46,25.24 c 1.31,0.4 2.8,0.43 4.31,0.4 7.98,-0.14 17.32,-1.93 28.94,-2.7 1.5,-0.1 2.44,0.07 3.94,0.35" style="fill:none;stroke:black;stroke-width:3" />
<circle cx="14.46" cy="25.24" r="5" stroke-width="0" fill="#FF2A00" opacity="0.7" />
<path d="M 123.46000000000001,25.24 c 1.31,0.4 2.8,0.43 4.31,0.4 7.98,-0.14 17.32,-1.93 28.94,-2.7 1.5,-0.1 2.44,0.07 3.94,0.35" style="fill:none;stroke:#999;stroke-width:3" />
<path d="M 131.13,29.52 c 0,0.45 0.05,0.83 -0.08,1.36 -1.19,4.92 -4.73,11.04 -9.93,16.47" style="fill:none;stroke:black;stroke-width:3" />
<circle cx="131.13" cy="29.52" r="5" stroke-width="0" fill="#FF2A00" opacity="0.7" />
<path d="M 232.46,25.24 c 1.31,0.4 2.8,0.43 4.31,0.4 7.98,-0.14 17.32,-1.93 28.94,-2.7 1.5,-0.1 2.44,0.07 3.94,0.35" style="fill:none;stroke:#999;stroke-width:3" />
<path d="M 240.13,29.52 c 0,0.45 0.05,0.83 -0.08,1.36 -1.19,4.92 -4.73,11.04 -9.93,16.47" style="fill:none;stroke:#999;stroke-width:3" />
<path d="M 239.6,38.51 c 1.78,1.02 4.06,3.74 4.93,6.31" style="fill:none;stroke:black;stroke-width:3" />
<circle cx="239.6" cy="38.51" r="5" stroke-width="0" fill="#FF2A00" opacity="0.7" />
<path d="M 341.46000000000004,25.24 c 1.31,0.4 2.8,0.43 4.31,0.4 7.98,-0.14 17.32,-1.93 28.94,-2.7 1.5,-0.1 2.44,0.07 3.94,0.35" style="fill:none;stroke:#999;stroke-width:3" />
<path d="M 349.13,29.52 c 0,0.45 0.05,0.83 -0.08,1.36 -1.19,4.92 -4.73,11.04 -9.93,16.47" style="fill:none;stroke:#999;stroke-width:3" />
<path d="M 348.6,38.51 c 1.78,1.02 4.06,3.74 4.93,6.31" style="fill:none;stroke:#999;stroke-width:3" />
<path d="M 373.29,29.11 c 0,0.38 0.06,0.7 -0.06,1.13 -1.03,3.69 -3.99,10.27 -7.5,14" style="fill:none;stroke:black;stroke-width:3" />
<circle cx="373.29" cy="29.11" r="5" stroke-width="0" fill="#FF2A00" opacity="0.7" />
<path d="M 450.46000000000004,25.24 c 1.31,0.4 2.8,0.43 4.31,0.4 7.98,-0.14 17.32,-1.93 28.94,-2.7 1.5,-0.1 2.44,0.07 3.94,0.35" style="fill:none;stroke:#999;stroke-width:3" />
<path d="M 458.13,29.52 c 0,0.45 0.05,0.83 -0.08,1.36 -1.19,4.92 -4.73,11.04 -9.93,16.47" style="fill:none;stroke:#999;stroke-width:3" />
<path d="M 457.6,38.51 c 1.78,1.02 4.06,3.74 4.93,6.31" style="fill:none;stroke:#999;stroke-width:3" />
<path d="M 482.29,29.11 c 0,0.38 0.06,0.7 -0.06,1.13 -1.03,3.69 -3.99,10.27 -7.5,14" style="fill:none;stroke:#999;stroke-width:3" />
<path d="M 481.81,36.85 c 2.67,2.19 4.72,4.94 6.32,8.27" style="fill:none;stroke:black;stroke-width:3" />
<circle cx="481.81" cy="36.85" r="5" stroke-width="0" fill="#FF2A00" opacity="0.7" />
<path d="M 559.46,25.24 c 1.31,0.4 2.8,0.43 4.31,0.4 7.98,-0.14 17.32,-1.93 28.94,-2.7 1.5,-0.1 2.44,0.07 3.94,0.35" style="fill:none;stroke:#999;stroke-width:3" />
<path d="M 567.13,29.52 c 0,0.45 0.05,0.83 -0.08,1.36 -1.19,4.92 -4.73,11.04 -9.93,16.47" style="fill:none;stroke:#999;stroke-width:3" />
<path d="M 566.6,38.51 c 1.78,1.02 4.06,3.74 4.93,6.31" style="fill:none;stroke:#999;stroke-width:3" />
<path d="M 591.29,29.11 c 0,0.38 0.06,0.7 -0.06,1.13 -1.03,3.69 -3.99,10.27 -7.5,14" style="fill:none;stroke:#999;stroke-width:3" />
<path d="M 590.81,36.85 c 2.67,2.19 4.72,4.94 6.32,8.27" style="fill:none;stroke:#999;stroke-width:3" />
<path d="M 576.94,12.25 c 1.1,0.44 1.99,1.96 1.99,2.87 0,9.27 -0.22,37.40454 -0.22,45.90454" style="fill:none;stroke:black;stroke-width:3" />
<circle cx="576.94" cy="12.25" r="5" stroke-width="0" fill="#FF2A00" opacity="0.7" />
<path d="M 668.46,25.24 c 1.31,0.4 2.8,0.43 4.31,0.4 7.98,-0.14 17.32,-1.93 28.94,-2.7 1.5,-0.1 2.44,0.07 3.94,0.35" style="fill:none;stroke:#999;stroke-width:3" />
<path d="M 676.13,29.52 c 0,0.45 0.05,0.83 -0.08,1.36 -1.19,4.92 -4.73,11.04 -9.93,16.47" style="fill:none;stroke:#999;stroke-width:3" />
<path d="M 675.6,38.51 c 1.78,1.02 4.06,3.74 4.93,6.31" style="fill:none;stroke:#999;stroke-width:3" />
<path d="M 700.29,29.11 c 0,0.38 0.06,0.7 -0.06,1.13 -1.03,3.69 -3.99,10.27 -7.5,14" style="fill:none;stroke:#999;stroke-width:3" />
<path d="M 699.81,36.85 c 2.67,2.19 4.72,4.94 6.32,8.27" style="fill:none;stroke:#999;stroke-width:3" />
<path d="M 685.94,12.25 c 1.1,0.44 1.99,1.96 1.99,2.87 0,9.27 -0.22,37.40454 -0.22,45.90454" style="fill:none;stroke:#999;stroke-width:3" />
<path d="M 685.43,48.7 C 685.25,49.75 685.2,50.14 684.76,50.9 680.41,58.5 671.03,65.59 664.0,69.56" style="fill:none;stroke:black;stroke-width:3" />
<circle cx="685.43" cy="48.7" r="5" stroke-width="0" fill="#FF2A00" opacity="0.7" />
<path d="M 777.46,25.24 c 1.31,0.4 2.8,0.43 4.31,0.4 7.98,-0.14 17.32,-1.93 28.94,-2.7 1.5,-0.1 2.44,0.07 3.94,0.35" style="fill:none;stroke:#999;stroke-width:3" />
<path d="M 785.13,29.52 c 0,0.45 0.05,0.83 -0.08,1.36 -1.19,4.92 -4.73,11.04 -9.93,16.47" style="fill:none;stroke:#999;stroke-width:3" />
<path d="M 784.6,38.51 c 1.78,1.02 4.06,3.74 4.93,6.31" style="fill:none;stroke:#999;stroke-width:3" />
<path d="M 809.29,29.11 c 0,0.38 0.06,0.7 -0.06,1.13 -1.03,3.69 -3.99,10.27 -7.5,14" style="fill:none;stroke:#999;stroke-width:3" />
<path d="M 808.81,36.85 c 2.67,2.19 4.72,4.94 6.32,8.27" style="fill:none;stroke:#999;stroke-width:3" />
<path d="M 794.94,12.25 c 1.1,0.44 1.99,1.96 1.99,2.87 0,9.27 -0.22,37.40454 -0.22,45.90454" style="fill:none;stroke:#999;stroke-width:3" />
<path d="M 794.43,48.7 C 794.25,49.75 794.2,50.14 793.76,50.9 789.41,58.5 780.03,65.59 773.0,69.56" style="fill:none;stroke:#999;stroke-width:3" />
<path d="M 797.12726,52.91 c 5.68,1.99 13.93,7.93 18.34,12.23" style="fill:none;stroke:black;stroke-width:3" />
<circle cx="797.12726" cy="52.91" r="5" stroke-width="0" fill="#FF2A00" opacity="0.7" />
<path d="M 886.46,25.24 c 1.31,0.4 2.8,0.43 4.31,0.4 7.98,-0.14 17.32,-1.93 28.94,-2.7 1.5,-0.1 2.44,0.07 3.94,0.35" style="fill:none;stroke:#999;stroke-width:3" />
<path d="M 894.13,29.52 c 0,0.45 0.05,0.83 -0.08,1.36 -1.19,4.92 -4.73,11.04 -9.93,16.47" style="fill:none;stroke:#999;stroke-width:3" />
<path d="M 893.6,38.51 c 1.78,1.02 4.06,3.74 4.93,6.31" style="fill:none;stroke:#999;stroke-width:3" />
<path d="M 918.29,29.11 c 0,0.38 0.06,0.7 -0.06,1.13 -1.03,3.69 -3.99,10.27 -7.5,14" style="fill:none;stroke:#999;stroke-width:3" />
<path d="M 917.81,36.85 c 2.67,2.19 4.72,4.94 6.32,8.27" style="fill:none;stroke:#999;stroke-width:3" />
<path d="M 903.94,12.25 c 1.1,0.44 1.99,1.96 1.99,2.87 0,9.27 -0.22,37.40454 -0.22,45.90454" style="fill:none;stroke:#999;stroke-width:3" />
<path d="M 903.43,48.7 C 903.25,49.75 903.2,50.14 902.76,50.9 898.41,58.5 889.03,65.59 882.0,69.56" style="fill:none;stroke:#999;stroke-width:3" />
<path d="M 906.12726,52.91 c 5.68,1.99 13.93,7.93 18.34,12.23" style="fill:none;stroke:#999;stroke-width:3" />
<path d="M 901.88,61 c 0.05,0.53 0.1,1.37 -0.09,2.13 -1.15,4.5 -7.25,14.88 -16.28,20.92" style="fill:none;stroke:black;stroke-width:3" />
<circle cx="901.88" cy="61.0" r="5" stroke-width="0" fill="#FF2A00" opacity="0.7" />
<path d="M 995.46,25.24 c 1.31,0.4 2.8,0.43 4.31,0.4 7.98,-0.14 17.32,-1.93 28.94,-2.7 1.5,-0.1 2.44,0.07 3.94,0.35" style="fill:none;stroke:#999;stroke-width:3" />
<path d="M 1003.13,29.52 c 0,0.45 0.05,0.83 -0.08,1.36 -1.19,4.92 -4.73,11.04 -9.93,16.47" style="fill:none;stroke:#999;stroke-width:3" />
<path d="M 1002.6,38.51 c 1.78,1.02 4.06,3.74 4.93,6.31" style="fill:none;stroke:#999;stroke-width:3" />
<path d="M 1027.29,29.11 c 0,0.38 0.06,0.7 -0.06,1.13 -1.03,3.69 -3.99,10.27 -7.5,14" style="fill:none;stroke:#999;stroke-width:3" />
<path d="M 1026.81,36.85 c 2.67,2.19 4.72,4.94 6.32,8.27" style="fill:none;stroke:#999;stroke-width:3" />
<path d="M 1012.94,12.25 c 1.1,0.44 1.99,1.96 1.99,2.87 0,9.27 -0.22,37.40454 -0.22,45.90454" style="fill:none;stroke:#999;stroke-width:3" />
<path d="M 1012.43,48.7 C 1012.25,49.75 1012.2,50.14 1011.76,50.9 1007.41,58.5 998.03,65.59 991.0,69.56" style="fill:none;stroke:#999;stroke-width:3" />
<path d="M 1015.12726,52.91 c 5.68,1.99 13.93,7.93 18.34,12.23" style="fill:none;stroke:#999;stroke-width:3" />
<path d="M 1010.88,61 c 0.05,0.53 0.1,1.37 -0.09,2.13 -1.15,4.5 -7.25,14.88 -16.28,20.92" style="fill:none;stroke:#999;stroke-width:3" />
<path d="M 1010.57,67.27 c 0.26,0.03 1.68,0.32 2.42,0.2 3.01,-0.47 6.22,-0.71 9.72,-1.62 2.4,-0.63 3.22,0.77 2.47,2.44 C 1020.5,78.75 1010.5,90.75 995.36,98" style="fill:none;stroke:black;stroke-width:3" />
<circle cx="1010.57" cy="67.27" r="5" stroke-width="0" fill="#FF2A00" opacity="0.7" />
<path d="M 1104.46,25.24 c 1.31,0.4 2.8,0.43 4.31,0.4 7.98,-0.14 17.32,-1.93 28.94,-2.7 1.5,-0.1 2.44,0.07 3.94,0.35" style="fill:none;stroke:#999;stroke-width:3" />
<path d="M 1112.13,29.52 c 0,0.45 0.05,0.83 -0.08,1.36 -1.19,4.92 -4.73,11.04 -9.93,16.47" style="fill:none;stroke:#999;stroke-width:3" />
<path d="M 1111.6,38.51 c 1.78,1.02 4.06,3.74 4.93,6.31" style="fill:none;stroke:#999;stroke-width:3" />
<path d="M 1136.29,29.11 c 0,0.38 0.06,0.7 -0.06,1.13 -1.03,3.69 -3.99,10.27 -7.5,14" style="fill:none;stroke:#999;stroke-width:3" />
<path d="M 1135.81,36.85 c 2.67,2.19 4.72,4.94 6.32,8.27" style="fill:none;stroke:#999;stroke-width:3" />
<path d="M 1121.94,12.25 c 1.1,0.44 1.99,1.96 1.99,2.87 0,9.27 -0.22,37.40454 -0.22,45.90454" style="fill:none;stroke:#999;stroke-width:3" />
<path d="M 1121.4299999999998,48.7 C 1121.25,49.75 1121.2,50.14 1120.76,50.9 1116.4099999999999,58.5 1107.03,65.59 1100.0,69.56" style="fill:none;stroke:#999;stroke-width:3" />
<path d="M 1124.12726,52.91 c 5.68,1.99 13.93,7.93 18.34,12.23" style="fill:none;stroke:#999;stroke-width:3" />
<path d="M 1119.88,61 c 0.05,0.53 0.1,1.37 -0.09,2.13 -1.15,4.5 -7.25,14.88 -16.28,20.92" style="fill:none;stroke:#999;stroke-width:3" />
<path d="M 1119.5700000000002,67.27 c 0.26,0.03 1.68,0.32 2.42,0.2 3.01,-0.47 6.22,-0.71 9.72,-1.62 2.4,-0.63 3.22,0.77 2.47,2.44 C 1129.5,78.75 1119.5,90.75 1104.3600000000001,98" style="fill:none;stroke:#999;stroke-width:3" />
<path d="M 1114.39,73.78 c 8.25,4.04 42.11,19.22 55.77,22.61 3.39,0.84 6,1.64 9.23,1.97" style="fill:none;stroke:black;stroke-width:3" />
<circle cx="1114.39" cy="73.78" r="5" stroke-width="0" fill="#FF2A00" opacity="0.7" />
<path d="M 1213.46,25.24 c 1.31,0.4 2.8,0.43 4.31,0.4 7.98,-0.14 17.32,-1.93 28.94,-2.7 1.5,-0.1 2.44,0.07 3.94,0.35" style="fill:none;stroke:#999;stroke-width:3" />
<path d="M 1221.13,29.52 c 0,0.45 0.05,0.83 -0.08,1.36 -1.19,4.92 -4.73,11.04 -9.93,16.47" style="fill:none;stroke:#999;stroke-width:3" />
<path d="M 1220.6,38.51 c 1.78,1.02 4.06,3.74 4.93,6.31" style="fill:none;stroke:#999;stroke-width:3" />
<path d="M 1245.29,29.11 c 0,0.38 0.06,0.7 -0.06,1.13 -1.03,3.69 -3.99,10.27 -7.5,14" style="fill:none;stroke:#999;stroke-width:3" />
<path d="M 1244.81,36.85 c 2.67,2.19 4.72,4.94 6.32,8.27" style="fill:none;stroke:#999;stroke-width:3" />
<path d="M 1230.94,12.25 c 1.1,0.44 1.99,1.96 1.99,2.87 0,9.27 -0.22,37.40454 -0.22,45.90454" style="fill:none;stroke:#999;stroke-width:3" />
<path d="M 1230.4299999999998,48.7 C 1230.25,49.75 1230.2,50.14 1229.76,50.9 1225.4099999999999,58.5 1216.03,65.59 1209.0,69.56" style="fill:none;stroke:#999;stroke-width:3" />
<path d="M 1233.12726,52.91 c 5.68,1.99 13.93,7.93 18.34,12.23" style="fill:none;stroke:#999;stroke-width:3" />
<path d="M 1228.88,61 c 0.05,0.53 0.1,1.37 -0.09,2.13 -1.15,4.5 -7.25,14.88 -16.28,20.92" style="fill:none;stroke:#999;stroke-width:3" />
<path d="M 1228.5700000000002,67.27 c 0.26,0.03 1.68,0.32 2.42,0.2 3.01,-0.47 6.22,-0.71 9.72,-1.62 2.4,-0.63 3.22,0.77 2.47,2.44 C 1238.5,78.75 1228.5,90.75 1213.3600000000001,98" style="fill:none;stroke:#999;stroke-width:3" />
<path d="M 1223.39,73.78 c 8.25,4.04 42.11,19.22 55.77,22.61 3.39,0.84 6,1.64 9.23,1.97" style="fill:none;stroke:#999;stroke-width:3" />
<path d="M 1258.06,31.96 c 0.87,0.16 2.45,0.18 3.32,0.16 4.7,-0.14 16.02,-2.7 24.63,-3.51 1.43,-0.13 2.31,0.08 3.04,0.15" style="fill:none;stroke:black;stroke-width:3" />
<circle cx="1258.06" cy="31.96" r="5" stroke-width="0" fill="#FF2A00" opacity="0.7" />
<path d="M 1322.46,25.24 c 1.31,0.4 2.8,0.43 4.31,0.4 7.98,-0.14 17.32,-1.93 28.94,-2.7 1.5,-0.1 2.44,0.07 3.94,0.35" style="fill:none;stroke:#999;stroke-width:3" />
<path d="M 1330.13,29.52 c 0,0.45 0.05,0.83 -0.08,1.36 -1.19,4.92 -4.73,11.04 -9.93,16.47" style="fill:none;stroke:#999;stroke-width:3" />
<path d="M 1329.6,38.51 c 1.78,1.02 4.06,3.74 4.93,6.31" style="fill:none;stroke:#999;stroke-width:3" />
<path d="M 1354.29,29.11 c 0,0.38 0.06,0.7 -0.06,1.13 -1.03,3.69 -3.99,10.27 -7.5,14" style="fill:none;stroke:#999;stroke-width:3" />
<path d="M 1353.81,36.85 c 2.67,2.19 4.72,4.94 6.32,8.27" style="fill:none;stroke:#999;stroke-width:3" />
<path d="M 1339.94,12.25 c 1.1,0.44 1.99,1.96 1.99,2.87 0,9.27 -0.22,37.40454 -0.22,45.90454" style="fill:none;stroke:#999;stroke-width:3" />
<path d="M 1339.4299999999998,48.7 C 1339.25,49.75 1339.2,50.14 1338.76,50.9 1334.4099999999999,58.5 1325.03,65.59 1318.0,69.56" style="fill:none;stroke:#999;stroke-width:3" />
<path d="M 1342.12726,52.91 c 5.68,1.99 13.93,7.93 18.34,12.23" style="fill:none;stroke:#999;stroke-width:3" />
<path d="M 1337.88,61 c 0.05,0.53 0.1,1.37 -0.09,2.13 -1.15,4.5 -7.25,14.88 -16.28,20.92" style="fill:none;stroke:#999;stroke-width:3" />
<path d="M 1337.5700000000002,67.27 c 0.26,0.03 1.68,0.32 2.42,0.2 3.01,-0.47 6.22,-0.71 9.72,-1.62 2.4,-0.63 3.22,0.77 2.47,2.44 C 1347.5,78.75 1337.5,90.75 1322.3600000000001,98" style="fill:none;stroke:#999;stroke-width:3" />
<path d="M 1332.39,73.78 c 8.25,4.04 42.11,19.22 55.77,22.61 3.39,0.84 6,1.64 9.23,1.97" style="fill:none;stroke:#999;stroke-width:3" />
<path d="M 1367.06,31.96 c 0.87,0.16 2.45,0.18 3.32,0.16 4.7,-0.14 16.02,-2.7 24.63,-3.51 1.43,-0.13 2.31,0.08 3.04,0.15" style="fill:none;stroke:#999;stroke-width:3" />
<path d="M 1362.39,51.51 c 0.99,0.18 2.81,0.24 3.8,0.18 6.5,-0.35 23.14,-3.8 33.85,-4.18 1.65,-0.06 2.64,0.09 3.47,0.18" style="fill:none;stroke:black;stroke-width:3" />
<circle cx="1362.39" cy="51.51" r="5" stroke-width="0" fill="#FF2A00" opacity="0.7" />
<path d="M 1431.46,25.24 c 1.31,0.4 2.8,0.43 4.31,0.4 7.98,-0.14 17.32,-1.93 28.94,-2.7 1.5,-0.1 2.44,0.07 3.94,0.35" style="fill:none;stroke:#999;stroke-width:3" />
<path d="M 1439.13,29.52 c 0,0.45 0.05,0.83 -0.08,1.36 -1.19,4.92 -4.73,11.04 -9.93,16.47" style="fill:none;stroke:#999;stroke-width:3" />
<path d="M 1438.6,38.51 c 1.78,1.02 4.06,3.74 4.93,6.31" style="fill:none;stroke:#999;stroke-width:3" />
<path d="M 1463.29,29.11 c 0,0.38 0.06,0.7 -0.06,1.13 -1.03,3.69 -3.99,10.27 -7.5,14" style="fill:none;stroke:#999;stroke-width:3" />
<path d="M 1462.81,36.85 c 2.67,2.19 4.72,4.94 6.32,8.27" style="fill:none;stroke:#999;stroke-width:3" />
<path d="M 1448.94,12.25 c 1.1,0.44 1.99,1.96 1.99,2.87 0,9.27 -0.22,37.40454 -0.22,45.90454" style="fill:none;stroke:#999;stroke-width:3" />
<path d="M 1448.4299999999998,48.7 C 1448.25,49.75 1448.2,50.14 1447.76,50.9 1443.4099999999999,58.5 1434.03,65.59 1427.0,69.56" style="fill:none;stroke:#999;stroke-width:3" />
<path d="M 1451.12726,52.91 c 5.68,1.99 13.93,7.93 18.34,12.23" style="fill:none;stroke:#999;stroke-width:3" />
<path d="M 1446.88,61 c 0.05,0.53 0.1,1.37 -0.09,2.13 -1.15,4.5 -7.25,14.88 -16.28,20.92" style="fill:none;stroke:#999;stroke-width:3" />
<path d="M 1446.5700000000002,67.27 c 0.26,0.03 1.68,0.32 2.42,0.2 3.01,-0.47 6.22,-0.71 9.72,-1.62 2.4,-0.63 3.22,0.77 2.47,2.44 C 1456.5,78.75 1446.5,90.75 1431.3600000000001,98" style="fill:none;stroke:#999;stroke-width:3" />
<path d="M 1441.39,73.78 c 8.25,4.04 42.11,19.22 55.77,22.61 3.39,0.84 6,1.64 9.23,1.97" style="fill:none;stroke:#999;stroke-width:3" />
<path d="M 1476.06,31.96 c 0.87,0.16 2.45,0.18 3.32,0.16 4.7,-0.14 16.02,-2.7 24.63,-3.51 1.43,-0.13 2.31,0.08 3.04,0.15" style="fill:none;stroke:#999;stroke-width:3" />
<path d="M 1471.39,51.51 c 0.99,0.18 2.81,0.24 3.8,0.18 6.5,-0.35 23.14,-3.8 33.85,-4.18 1.65,-0.06 2.64,0.09 3.47,0.18" style="fill:none;stroke:#999;stroke-width:3" />
<path d="M 1492.1,12 c 0.31,1.08 0.43,2.09 0.44,4.18 C 1492.66,54.84 1486.75,72 1473.79,82.25" style="fill:none;stroke:black;stroke-width:3" />
<circle cx="1492.1" cy="12.0" r="5" stroke-width="0" fill="#FF2A00" opacity="0.7" />
<path d="M 1540.46,25.24 c 1.31,0.4 2.8,0.43 4.31,0.4 7.98,-0.14 17.32,-1.93 28.94,-2.7 1.5,-0.1 2.44,0.07 3.94,0.35" style="fill:none;stroke:#999;stroke-width:3" />
<path d="M 1548.13,29.52 c 0,0.45 0.05,0.83 -0.08,1.36 -1.19,4.92 -4.73,11.04 -9.93,16.47" style="fill:none;stroke:#999;stroke-width:3" />
<path d="M 1547.6,38.51 c 1.78,1.02 4.06,3.74 4.93,6.31" style="fill:none;stroke:#999;stroke-width:3" />
<path d="M 1572.29,29.11 c 0,0.38 0.06,0.7 -0.06,1.13 -1.03,3.69 -3.99,10.27 -7.5,14" style="fill:none;stroke:#999;stroke-width:3" />
<path d="M 1571.81,36.85 c 2.67,2.19 4.72,4.94 6.32,8.27" style="fill:none;stroke:#999;stroke-width:3" />
<path d="M 1557.94,12.25 c 1.1,0.44 1.99,1.96 1.99,2.87 0,9.27 -0.22,37.40454 -0.22,45.90454" style="fill:none;stroke:#999;stroke-width:3" />
<path d="M 1557.4299999999998,48.7 C 1557.25,49.75 1557.2,50.14 1556.76,50.9 1552.4099999999999,58.5 1543.03,65.59 1536.0,69.56" style="fill:none;stroke:#999;stroke-width:3" />
<path d="M 1560.12726,52.91 c 5.68,1.99 13.93,7.93 18.34,12.23" style="fill:none;stroke:#999;stroke-width:3" />
<path d="M 1555.88,61 c 0.05,0.53 0.1,1.37 -0.09,2.13 -1.15,4.5 -7.25,14.88 -16.28,20.92" style="fill:none;stroke:#999;stroke-width:3" />
<path d="M 1555.5700000000002,67.27 c 0.26,0.03 1.68,0.32 2.42,0.2 3.01,-0.47 6.22,-0.71 9.72,-1.62 2.4,-0.63 3.22,0.77 2.47,2.44 C 1565.5,78.75 1555.5,90.75 1540.3600000000001,98" style="fill:none;stroke:#999;stroke-width:3" />
<path d="M 1550.39,73.78 c 8.25,4.04 42.11,19.22 55.77,22.61 3.39,0.84 6,1.64 9.23,1.97" style="fill:none;stroke:#999;stroke-width:3" />
<path d="M 1585.06,31.96 c 0.87,0.16 2.45,0.18 3.32,0.16 4.7,-0.14 16.02,-2.7 24.63,-3.51 1.43,-0.13 2.31,0.08 3.04,0.15" style="fill:none;stroke:#999;stroke-width:3" />
<path d="M 1580.39,51.51 c 0.99,0.18 2.81,0.24 3.8,0.18 6.5,-0.35 23.14,-3.8 33.85,-4.18 1.65,-0.06 2.64,0.09 3.47,0.18" style="fill:none;stroke:#999;stroke-width:3" />
<path d="M 1601.1,12 c 0.31,1.08 0.43,2.09 0.44,4.18 C 1601.66,54.84 1595.75,72 1582.79,82.25" style="fill:none;stroke:#999;stroke-width:3" />
<path d="M 1600.97,59.29 c 8.55,6.46 16.58,16.68 20.53,25.49" style="fill:none;stroke:black;stroke-width:3" />
<circle cx="1600.97" cy="59.29" r="5" stroke-width="0" fill="#FF2A00" opacity="0.7" />
</svg>