<!-- 09eaa -->
<svg width="1635px" height="109px" viewBox="0 0 1635px 109px" xmlns="http://www.w3.org/2000/svg" xmlns:xlink="http://www.w3.org/1999/xlink" xml:space="preserve" version="1.1"  baseProfile="full">
<line x1="1" y1="1" x2="1634" y2="1" style="stroke:#ddd;stroke-width:2" />
<line x1="1" y1="1" x2="1" y2="108" style="stroke:#ddd;stroke-width:2" />
<line x1="1" y1="108" x2="1634" y2="108" style="stroke:#ddd;stroke-width:2" />
<line x1="1634" y1="1" x2="1634" y2="108" style="stroke:#ddd;stroke-width:2" />
<line x1="109" y1="1" x2="109" y2="108" style="stroke:#ddd;stroke-width:2" />
<line x1="218" y1="1" x2="218" y2="108" style="stroke:#ddd;stroke-width:2" />
<line x1="327" y1="1" x2="327" y2="108" style="stroke:#ddd;stroke-width:2" />
<line x1="436" y1="1" x2="436" y2="108" style="stroke:#ddd;stroke-width:2" />
<line x1="545" y1="1" x2="545" y2="108" style="stroke:#ddd;stroke-width:2" />
<line x1="654" y1="1" x2="654" y2="108" style="stroke:#ddd;stroke-width:2" />
<line x1="763" y1="1" x2="763" y2="108" style="stroke:#ddd;stroke-width:2" />
<line x1="872" y1="1" x2="872" y2="108" style="stroke:#ddd;stroke-width:2" />
<line x1="981" y1="1" x2="981" y2="108" style="stroke:#ddd;stroke-width:2" />
<line x1="1090" y1="1" x2="1090" y2="108" style="stroke:#ddd;stroke-width:2" />
<line x1="1199" y1="1" x2="1199" y2="108" style="stroke:#ddd;stroke-width:2" />
<line x1="1308" y1="1" x2="1308" y2="108" style="stroke:#ddd;stroke-width:2" />
<line x1="1417" y1="1" x2="1417" y2="108" style="stroke:#ddd;stroke-width:2" />
<line x1="1526" y1="1" x2="1526" y2="108" style="stroke:#ddd;stroke-width:2" />
<line x1="1" y1="54" x2="1634" y2="54" style="stroke:#ddd;stroke-width:2;stroke-dasharray:3 3" />
<line x1="55" y1="1" x2="55" y2="108" style="stroke:#ddd;stroke-width:2;stroke-dasharray:3 3" />
<line x1="164" y1="1" x2="164" y2="108" style="stroke:#ddd;stroke-width:2;stroke-dasharray:3 3" />
<line x1="273" y1="1" x2="273" y2="108" style="stroke:#ddd;stroke-width:2;stroke-dasharray:3 3" />
<line x1="382" y1="1" x2="382" y2="108" style="stroke:#ddd;stroke-width:2;stroke-dasharray:3 3" />
<line x1="491" y1="1" x2="491" y2="108" style="stroke:#ddd;stroke-width:2;stroke-dasharray:3 3" />
<line x1="600" y1="1" x2="600" y2="108" style="stroke:#ddd;stroke-width:2;stroke-dasharray:3 3" />
<line x1="709" y1="1" x2="709" y2="108" style="stroke:#ddd;stroke-width:2;stroke-dasharray:3 3" />
<line x1="818" y1="1" x2="818" y2="108" style="stroke:#ddd;stroke-width:2;stroke-dasharray:3 3" />
<line x1="927" y1="1" x2="927" y2="108" style="stroke:#ddd;stroke-width:2;stroke-dasharray:3 3" />
<line x1="1036" y1="1" x2="1036" y2="108" style="stroke:#ddd;stroke-width:2;stroke-dasharray:3 3" />
<line x1="1145" y1="1" x2="1145" y2="108" style="stroke:#ddd;stroke-width:2;stroke-dasharray:3 3" />
<line x1="1254" y1="1" x2="1254" y2="108" style="stroke:#ddd;stroke-width:2;stroke-dasharray:3 3" />
<line x1="1363" y1="1" x2="1363" y2="108" style="stroke:#ddd;stroke-width:2;stroke-dasharray:3 3" />
<line x1="1472" y1="1" x2="1472" y2="108" style="stroke:#ddd;stroke-width:2;stroke-dasharray:3 3" />
<line x1="1581" y1="1" x2="1581" y2="108" style="stroke:#ddd;stroke-width:2;stroke-dasharray:3 3" />
<path d="M16.46,25.74c1.31,0.4,2.8,0.43,4.31,0.4c7.98-0.14,15.82-1.93,27.44-2.7c1.5-0.1,2.44,0.07,3.94,0.35" style="fill:none;stroke:black;stroke-width:3" />
<circle cx="16.46" cy="25.74" r="5" stroke-width="0" fill="#FF2A00" opacity="0.7" />
<path d="M125.46000000000001,25.74c1.31,0.4,2.8,0.43,4.31,0.4c7.98-0.14,15.82-1.93,27.44-2.7c1.5-0.1,2.44,0.07,3.94,0.35" style="fill:none;stroke:#999;stroke-width:3" />
<path d="M132.63,32.02c0,0.42,0.05,0.76-0.07,1.24c-1.13,4.5-4.49,10.11-9.43,15.08" style="fill:none;stroke:black;stroke-width:3" />
<circle cx="132.63" cy="32.02" r="5" stroke-width="0" fill="#FF2A00" opacity="0.7" />
<path d="M234.46,25.74c1.31,0.4,2.8,0.43,4.31,0.4c7.98-0.14,15.82-1.93,27.44-2.7c1.5-0.1,2.44,0.07,3.94,0.35" style="fill:none;stroke:#999;stroke-width:3" />
<path d="M241.63,32.02c0,0.42,0.05,0.76-0.07,1.24c-1.13,4.5-4.49,10.11-9.43,15.08" style="fill:none;stroke:#999;stroke-width:3" />
<path d="M241.35,39.76c1.87,0.98,4.27,3.59,5.18,6.06" style="fill:none;stroke:black;stroke-width:3" />
<circle cx="241.35" cy="39.76" r="5" stroke-width="0" fill="#FF2A00" opacity="0.7" />
<path d="M343.46000000000004,25.74c1.31,0.4,2.8,0.43,4.31,0.4c7.98-0.14,15.82-1.93,27.44-2.7c1.5-0.1,2.44,0.07,3.94,0.35" style="fill:none;stroke:#999;stroke-width:3" />
<path d="M350.63,32.02c0,0.42,0.05,0.76-0.07,1.24c-1.13,4.5-4.49,10.11-9.43,15.08" style="fill:none;stroke:#999;stroke-width:3" />
<path d="M350.35,39.76c1.87,0.98,4.27,3.59,5.18,6.06" style="fill:none;stroke:#999;stroke-width:3" />
<path d="M376.79,30.11c0,0.35,0.07,0.65-0.07,1.04c-1.17,3.39-4.51,9.42-8.49,12.84" style="fill:none;stroke:black;stroke-width:3" />
<circle cx="376.79" cy="30.11" r="5" stroke-width="0" fill="#FF2A00" opacity="0.7" />
<path d="M452.46000000000004,25.74c1.31,0.4,2.8,0.43,4.31,0.4c7.98-0.14,15.82-1.93,27.44-2.7c1.5-0.1,2.44,0.07,3.94,0.35" style="fill:none;stroke:#999;stroke-width:3" />
<path d="M459.63,32.02c0,0.42,0.05,0.76-0.07,1.24c-1.13,4.5-4.49,10.11-9.43,15.08" style="fill:none;stroke:#999;stroke-width:3" />
<path d="M459.35,39.76c1.87,0.98,4.27,3.59,5.18,6.06" style="fill:none;stroke:#999;stroke-width:3" />
<path d="M485.79,30.11c0,0.35,0.07,0.65-0.07,1.04c-1.17,3.39-4.51,9.42-8.49,12.84" style="fill:none;stroke:#999;stroke-width:3" />
<path d="M484.31,38.35c2.67,1.93,4.72,4.34,6.32,7.27" style="fill:none;stroke:black;stroke-width:3" />
<circle cx="484.31" cy="38.35" r="5" stroke-width="0" fill="#FF2A00" opacity="0.7" />
<path d="M561.46,25.74c1.31,0.4,2.8,0.43,4.31,0.4c7.98-0.14,15.82-1.93,27.44-2.7c1.5-0.1,2.44,0.07,3.94,0.35" style="fill:none;stroke:#999;stroke-width:3" />
<path d="M568.63,32.02c0,0.42,0.05,0.76-0.07,1.24c-1.13,4.5-4.49,10.11-9.43,15.08" style="fill:none;stroke:#999;stroke-width:3" />
<path d="M568.35,39.76c1.87,0.98,4.27,3.59,5.18,6.06" style="fill:none;stroke:#999;stroke-width:3" />
<path d="M594.79,30.11c0,0.35,0.07,0.65-0.07,1.04c-1.17,3.39-4.51,9.42-8.49,12.84" style="fill:none;stroke:#999;stroke-width:3" />
<path d="M593.31,38.35c2.67,1.93,4.72,4.34,6.32,7.27" style="fill:none;stroke:#999;stroke-width:3" />
<path d="M578.44,10.75c1.1,0.44,1.99,1.96,1.99,2.87c0,9.27-0.22,32.88-0.22,41.38" style="fill:none;stroke:black;stroke-width:3" />
<circle cx="578.44" cy="10.75" r="5" stroke-width="0" fill="#FF2A00" opacity="0.7" />
<path d="M670.46,25.74c1.31,0.4,2.8,0.43,4.31,0.4c7.98-0.14,15.82-1.93,27.44-2.7c1.5-0.1,2.44,0.07,3.94,0.35" style="fill:none;stroke:#999;stroke-width:3" />
<path d="M677.63,32.02c0,0.42,0.05,0.76-0.07,1.24c-1.13,4.5-4.49,10.11-9.43,15.08" style="fill:none;stroke:#999;stroke-width:3" />
<path d="M677.35,39.76c1.87,0.98,4.27,3.59,5.18,6.06" style="fill:none;stroke:#999;stroke-width:3" />
<path d="M703.79,30.11c0,0.35,0.07,0.65-0.07,1.04c-1.17,3.39-4.51,9.42-8.49,12.84" style="fill:none;stroke:#999;stroke-width:3" />
<path d="M702.31,38.35c2.67,1.93,4.72,4.34,6.32,7.27" style="fill:none;stroke:#999;stroke-width:3" />
<path d="M687.44,10.75c1.1,0.44,1.99,1.96,1.99,2.87c0,9.27-0.22,32.88-0.22,41.38" style="fill:none;stroke:#999;stroke-width:3" />
<path d="M688.93,44.2c-3.94,6.74-14.49,17.04-22.68,20.86" style="fill:none;stroke:black;stroke-width:3" />
<circle cx="688.93" cy="44.2" r="5" stroke-width="0" fill="#FF2A00" opacity="0.7" />
<path d="M779.46,25.74c1.31,0.4,2.8,0.43,4.31,0.4c7.98-0.14,15.82-1.93,27.44-2.7c1.5-0.1,2.44,0.07,3.94,0.35" style="fill:none;stroke:#999;stroke-width:3" />
<path d="M786.63,32.02c0,0.42,0.05,0.76-0.07,1.24c-1.13,4.5-4.49,10.11-9.43,15.08" style="fill:none;stroke:#999;stroke-width:3" />
<path d="M786.35,39.76c1.87,0.98,4.27,3.59,5.18,6.06" style="fill:none;stroke:#999;stroke-width:3" />
<path d="M812.79,30.11c0,0.35,0.07,0.65-0.07,1.04c-1.17,3.39-4.51,9.42-8.49,12.84" style="fill:none;stroke:#999;stroke-width:3" />
<path d="M811.31,38.35c2.67,1.93,4.72,4.34,6.32,7.27" style="fill:none;stroke:#999;stroke-width:3" />
<path d="M796.44,10.75c1.1,0.44,1.99,1.96,1.99,2.87c0,9.27-0.22,32.88-0.22,41.38" style="fill:none;stroke:#999;stroke-width:3" />
<path d="M797.93,44.2c-3.94,6.74-14.49,17.04-22.68,20.86" style="fill:none;stroke:#999;stroke-width:3" />
<path d="M801.32,47.66c5.68,2.09,12.43,7.59,15.59,12.98" style="fill:none;stroke:black;stroke-width:3" />
<circle cx="801.32" cy="47.66" r="5" stroke-width="0" fill="#FF2A00" opacity="0.7" />
<path d="M888.46,25.74c1.31,0.4,2.8,0.43,4.31,0.4c7.98-0.14,15.82-1.93,27.44-2.7c1.5-0.1,2.44,0.07,3.94,0.35" style="fill:none;stroke:#999;stroke-width:3" />
<path d="M895.63,32.02c0,0.42,0.05,0.76-0.07,1.24c-1.13,4.5-4.49,10.11-9.43,15.08" style="fill:none;stroke:#999;stroke-width:3" />
<path d="M895.35,39.76c1.87,0.98,4.27,3.59,5.18,6.06" style="fill:none;stroke:#999;stroke-width:3" />
<path d="M921.79,30.11c0,0.35,0.07,0.65-0.07,1.04c-1.17,3.39-4.51,9.42-8.49,12.84" style="fill:none;stroke:#999;stroke-width:3" />
<path d="M920.31,38.35c2.67,1.93,4.72,4.34,6.32,7.27" style="fill:none;stroke:#999;stroke-width:3" />
<path d="M905.44,10.75c1.1,0.44,1.99,1.96,1.99,2.87c0,9.27-0.22,32.88-0.22,41.38" style="fill:none;stroke:#999;stroke-width:3" />
<path d="M906.93,44.2c-3.94,6.74-14.49,17.04-22.68,20.86" style="fill:none;stroke:#999;stroke-width:3" />
<path d="M910.32,47.66c5.68,2.09,12.43,7.59,15.59,12.98" style="fill:none;stroke:#999;stroke-width:3" />
<path d="M904.37,58.75c0.06,0.53,0.25,1.41-0.11,2.11c-2.76,5.39-9.51,12.89-19.75,20.2" style="fill:none;stroke:black;stroke-width:3" />
<circle cx="904.37" cy="58.75" r="5" stroke-width="0" fill="#FF2A00" opacity="0.7" />
<path d="M997.46,25.74c1.31,0.4,2.8,0.43,4.31,0.4c7.98-0.14,15.82-1.93,27.44-2.7c1.5-0.1,2.44,0.07,3.94,0.35" style="fill:none;stroke:#999;stroke-width:3" />
<path d="M1004.63,32.02c0,0.42,0.05,0.76-0.07,1.24c-1.13,4.5-4.49,10.11-9.43,15.08" style="fill:none;stroke:#999;stroke-width:3" />
<path d="M1004.35,39.76c1.87,0.98,4.27,3.59,5.18,6.06" style="fill:none;stroke:#999;stroke-width:3" />
<path d="M1030.79,30.11c0,0.35,0.07,0.65-0.07,1.04c-1.17,3.39-4.51,9.42-8.49,12.84" style="fill:none;stroke:#999;stroke-width:3" />
<path d="M1029.31,38.35c2.67,1.93,4.72,4.34,6.32,7.27" style="fill:none;stroke:#999;stroke-width:3" />
<path d="M1014.44,10.75c1.1,0.44,1.99,1.96,1.99,2.87c0,9.27-0.22,32.88-0.22,41.38" style="fill:none;stroke:#999;stroke-width:3" />
<path d="M1015.93,44.2c-3.94,6.74-14.49,17.04-22.68,20.86" style="fill:none;stroke:#999;stroke-width:3" />
<path d="M1019.32,47.66c5.68,2.09,12.43,7.59,15.59,12.98" style="fill:none;stroke:#999;stroke-width:3" />
<path d="M1013.37,58.75c0.06,0.53,0.25,1.41-0.11,2.11c-2.76,5.39-9.51,12.89-19.75,20.2" style="fill:none;stroke:#999;stroke-width:3" />
<path d="M1013.07,65.77c0.26,0.03,1.67,0.29,2.42,0.2c3.34-0.36,6.22-1.21,9.72-2.12c2.4-0.63,3.08,0.72,2.47,2.44c-3.36,9.39-17.43,25.46-34.32,32.21" style="fill:none;stroke:black;stroke-width:3" />
<circle cx="1013.07" cy="65.77" r="5" stroke-width="0" fill="#FF2A00" opacity="0.7" />
<path d="M1106.46,25.74c1.31,0.4,2.8,0.43,4.31,0.4c7.98-0.14,15.82-1.93,27.44-2.7c1.5-0.1,2.44,0.07,3.94,0.35" style="fill:none;stroke:#999;stroke-width:3" />
<path d="M1113.63,32.02c0,0.42,0.05,0.76-0.07,1.24c-1.13,4.5-4.49,10.11-9.43,15.08" style="fill:none;stroke:#999;stroke-width:3" />
<path d="M1113.35,39.76c1.87,0.98,4.27,3.59,5.18,6.06" style="fill:none;stroke:#999;stroke-width:3" />
<path d="M1139.79,30.11c0,0.35,0.07,0.65-0.07,1.04c-1.17,3.39-4.51,9.42-8.49,12.84" style="fill:none;stroke:#999;stroke-width:3" />
<path d="M1138.31,38.35c2.67,1.93,4.72,4.34,6.32,7.27" style="fill:none;stroke:#999;stroke-width:3" />
<path d="M1123.44,10.75c1.1,0.44,1.99,1.96,1.99,2.87c0,9.27-0.22,32.88-0.22,41.38" style="fill:none;stroke:#999;stroke-width:3" />
<path d="M1124.9299999999998,44.2c-3.94,6.74-14.49,17.04-22.68,20.86" style="fill:none;stroke:#999;stroke-width:3" />
<path d="M1128.3200000000002,47.66c5.68,2.09,12.43,7.59,15.59,12.98" style="fill:none;stroke:#999;stroke-width:3" />
<path d="M1122.37,58.75c0.06,0.53,0.25,1.41-0.11,2.11c-2.76,5.39-9.51,12.89-19.75,20.2" style="fill:none;stroke:#999;stroke-width:3" />
<path d="M1122.0700000000002,65.77c0.26,0.03,1.67,0.29,2.42,0.2c3.34-0.36,6.22-1.21,9.72-2.12c2.4-0.63,3.08,0.72,2.47,2.44c-3.36,9.39-17.43,25.46-34.32,32.21" style="fill:none;stroke:#999;stroke-width:3" />
<path d="M1114.89,70.78c8,4.25,44.27,20.38,55.05,24.26c3.22,1.16,5.82,1.72,8.95,2.06" style="fill:none;stroke:black;stroke-width:3" />
<circle cx="1114.89" cy="70.78" r="5" stroke-width="0" fill="#FF2A00" opacity="0.7" />
<path d="M1215.46,25.74c1.31,0.4,2.8,0.43,4.31,0.4c7.98-0.14,15.82-1.93,27.44-2.7c1.5-0.1,2.44,0.07,3.94,0.35" style="fill:none;stroke:#999;stroke-width:3" />
<path d="M1222.63,32.02c0,0.42,0.05,0.76-0.07,1.24c-1.13,4.5-4.49,10.11-9.43,15.08" style="fill:none;stroke:#999;stroke-width:3" />
<path d="M1222.35,39.76c1.87,0.98,4.27,3.59,5.18,6.06" style="fill:none;stroke:#999;stroke-width:3" />
<path d="M1248.79,30.11c0,0.35,0.07,0.65-0.07,1.04c-1.17,3.39-4.51,9.42-8.49,12.84" style="fill:none;stroke:#999;stroke-width:3" />
<path d="M1247.31,38.35c2.67,1.93,4.72,4.34,6.32,7.27" style="fill:none;stroke:#999;stroke-width:3" />
<path d="M1232.44,10.75c1.1,0.44,1.99,1.96,1.99,2.87c0,9.27-0.22,32.88-0.22,41.38" style="fill:none;stroke:#999;stroke-width:3" />
<path d="M1233.9299999999998,44.2c-3.94,6.74-14.49,17.04-22.68,20.86" style="fill:none;stroke:#999;stroke-width:3" />
<path d="M1237.3200000000002,47.66c5.68,2.09,12.43,7.59,15.59,12.98" style="fill:none;stroke:#999;stroke-width:3" />
<path d="M1231.37,58.75c0.06,0.53,0.25,1.41-0.11,2.11c-2.76,5.39-9.51,12.89-19.75,20.2" style="fill:none;stroke:#999;stroke-width:3" />
<path d="M1231.0700000000002,65.77c0.26,0.03,1.67,0.29,2.42,0.2c3.34-0.36,6.22-1.21,9.72-2.12c2.4-0.63,3.08,0.72,2.47,2.44c-3.36,9.39-17.43,25.46-34.32,32.21" style="fill:none;stroke:#999;stroke-width:3" />
<path d="M1223.89,70.78c8,4.25,44.27,20.38,55.05,24.26c3.22,1.16,5.82,1.72,8.95,2.06" style="fill:none;stroke:#999;stroke-width:3" />
<path d="M1256.75,20.39c0.94,0.38,2.66,0.42,3.6,0.38c6.9-0.27,26.82-3.33,32.61-2.88c1.56,0.12,2.5,0.18,3.29,0.37" style="fill:none;stroke:black;stroke-width:3" />
<circle cx="1256.75" cy="20.39" r="5" stroke-width="0" fill="#FF2A00" opacity="0.7" />
<path d="M1324.46,25.74c1.31,0.4,2.8,0.43,4.31,0.4c7.98-0.14,15.82-1.93,27.44-2.7c1.5-0.1,2.44,0.07,3.94,0.35" style="fill:none;stroke:#999;stroke-width:3" />
<path d="M1331.63,32.02c0,0.42,0.05,0.76-0.07,1.24c-1.13,4.5-4.49,10.11-9.43,15.08" style="fill:none;stroke:#999;stroke-width:3" />
<path d="M1331.35,39.76c1.87,0.98,4.27,3.59,5.18,6.06" style="fill:none;stroke:#999;stroke-width:3" />
<path d="M1357.79,30.11c0,0.35,0.07,0.65-0.07,1.04c-1.17,3.39-4.51,9.42-8.49,12.84" style="fill:none;stroke:#999;stroke-width:3" />
<path d="M1356.31,38.35c2.67,1.93,4.72,4.34,6.32,7.27" style="fill:none;stroke:#999;stroke-width:3" />
<path d="M1341.44,10.75c1.1,0.44,1.99,1.96,1.99,2.87c0,9.27-0.22,32.88-0.22,41.38" style="fill:none;stroke:#999;stroke-width:3" />
<path d="M1342.9299999999998,44.2c-3.94,6.74-14.49,17.04-22.68,20.86" style="fill:none;stroke:#999;stroke-width:3" />
<path d="M1346.3200000000002,47.66c5.68,2.09,12.43,7.59,15.59,12.98" style="fill:none;stroke:#999;stroke-width:3" />
<path d="M1340.37,58.75c0.06,0.53,0.25,1.41-0.11,2.11c-2.76,5.39-9.51,12.89-19.75,20.2" style="fill:none;stroke:#999;stroke-width:3" />
<path d="M1340.0700000000002,65.77c0.26,0.03,1.67,0.29,2.42,0.2c3.34-0.36,6.22-1.21,9.72-2.12c2.4-0.63,3.08,0.72,2.47,2.44c-3.36,9.39-17.43,25.46-34.32,32.21" style="fill:none;stroke:#999;stroke-width:3" />
<path d="M1332.89,70.78c8,4.25,44.27,20.38,55.05,24.26c3.22,1.16,5.82,1.72,8.95,2.06" style="fill:none;stroke:#999;stroke-width:3" />
<path d="M1365.75,20.39c0.94,0.38,2.66,0.42,3.6,0.38c6.9-0.27,26.82-3.33,32.61-2.88c1.56,0.12,2.5,0.18,3.29,0.37" style="fill:none;stroke:#999;stroke-width:3" />
<path d="M1382.19,22.5c1.1,0.44,1.99,1.96,1.99,2.87c0,9.27-0.22,25.88-0.22,34.38" style="fill:none;stroke:black;stroke-width:3" />
<circle cx="1382.19" cy="22.5" r="5" stroke-width="0" fill="#FF2A00" opacity="0.7" />
<path d="M1433.46,25.74c1.31,0.4,2.8,0.43,4.31,0.4c7.98-0.14,15.82-1.93,27.44-2.7c1.5-0.1,2.44,0.07,3.94,0.35" style="fill:none;stroke:#999;stroke-width:3" />
<path d="M1440.63,32.02c0,0.42,0.05,0.76-0.07,1.24c-1.13,4.5-4.49,10.11-9.43,15.08" style="fill:none;stroke:#999;stroke-width:3" />
<path d="M1440.35,39.76c1.87,0.98,4.27,3.59,5.18,6.06" style="fill:none;stroke:#999;stroke-width:3" />
<path d="M1466.79,30.11c0,0.35,0.07,0.65-0.07,1.04c-1.17,3.39-4.51,9.42-8.49,12.84" style="fill:none;stroke:#999;stroke-width:3" />
<path d="M1465.31,38.35c2.67,1.93,4.72,4.34,6.32,7.27" style="fill:none;stroke:#999;stroke-width:3" />
<path d="M1450.44,10.75c1.1,0.44,1.99,1.96,1.99,2.87c0,9.27-0.22,32.88-0.22,41.38" style="fill:none;stroke:#999;stroke-width:3" />
<path d="M1451.9299999999998,44.2c-3.94,6.74-14.49,17.04-22.68,20.86" style="fill:none;stroke:#999;stroke-width:3" />
<path d="M1455.3200000000002,47.66c5.68,2.09,12.43,7.59,15.59,12.98" style="fill:none;stroke:#999;stroke-width:3" />
<path d="M1449.37,58.75c0.06,0.53,0.25,1.41-0.11,2.11c-2.76,5.39-9.51,12.89-19.75,20.2" style="fill:none;stroke:#999;stroke-width:3" />
<path d="M1449.0700000000002,65.77c0.26,0.03,1.67,0.29,2.42,0.2c3.34-0.36,6.22-1.21,9.72-2.12c2.4-0.63,3.08,0.72,2.47,2.44c-3.36,9.39-17.43,25.46-34.32,32.21" style="fill:none;stroke:#999;stroke-width:3" />
<path d="M1441.89,70.78c8,4.25,44.27,20.38,55.05,24.26c3.22,1.16,5.82,1.72,8.95,2.06" style="fill:none;stroke:#999;stroke-width:3" />
<path d="M1474.75,20.39c0.94,0.38,2.66,0.42,3.6,0.38c6.9-0.27,26.82-3.33,32.61-2.88c1.56,0.12,2.5,0.18,3.29,0.37" style="fill:none;stroke:#999;stroke-width:3" />
<path d="M1491.19,22.5c1.1,0.44,1.99,1.96,1.99,2.87c0,9.27-0.22,25.88-0.22,34.38" style="fill:none;stroke:#999;stroke-width:3" />
<path d="M1477.94,36.25c1.1,0.44,2.08,1.96,1.99,2.87C1479.0,48 1478.04,51.69 1477.2,60c-0.2,2-0.45,2.25,2.3,1.75s25.5-4,29.75-4" style="fill:none;stroke:black;stroke-width:3" />
<circle cx="1477.94" cy="36.25" r="5" stroke-width="0" fill="#FF2A00" opacity="0.7" />
<path d="M1542.46,25.74c1.31,0.4,2.8,0.43,4.31,0.4c7.98-0.14,15.82-1.93,27.44-2.7c1.5-0.1,2.44,0.07,3.94,0.35" style="fill:none;stroke:#999;stroke-width:3" />
<path d="M1549.63,32.02c0,0.42,0.05,0.76-0.07,1.24c-1.13,4.5-4.49,10.11-9.43,15.08" style="fill:none;stroke:#999;stroke-width:3" />
<path d="M1549.35,39.76c1.87,0.98,4.27,3.59,5.18,6.06" style="fill:none;stroke:#999;stroke-width:3" />
<path d="M1575.79,30.11c0,0.35,0.07,0.65-0.07,1.04c-1.17,3.39-4.51,9.42-8.49,12.84" style="fill:none;stroke:#999;stroke-width:3" />
<path d="M1574.31,38.35c2.67,1.93,4.72,4.34,6.32,7.27" style="fill:none;stroke:#999;stroke-width:3" />
<path d="M1559.44,10.75c1.1,0.44,1.99,1.96,1.99,2.87c0,9.27-0.22,32.88-0.22,41.38" style="fill:none;stroke:#999;stroke-width:3" />
<path d="M1560.9299999999998,44.2c-3.94,6.74-14.49,17.04-22.68,20.86" style="fill:none;stroke:#999;stroke-width:3" />
<path d="M1564.3200000000002,47.66c5.68,2.09,12.43,7.59,15.59,12.98" style="fill:none;stroke:#999;stroke-width:3" />
<path d="M1558.37,58.75c0.06,0.53,0.25,1.41-0.11,2.11c-2.76,5.39-9.51,12.89-19.75,20.2" style="fill:none;stroke:#999;stroke-width:3" />
<path d="M1558.0700000000002,65.77c0.26,0.03,1.67,0.29,2.42,0.2c3.34-0.36,6.22-1.21,9.72-2.12c2.4-0.63,3.08,0.72,2.47,2.44c-3.36,9.39-17.43,25.46-34.32,32.21" style="fill:none;stroke:#999;stroke-width:3" />
<path d="M1550.89,70.78c8,4.25,44.27,20.38,55.05,24.26c3.22,1.16,5.82,1.72,8.95,2.06" style="fill:none;stroke:#999;stroke-width:3" />
<path d="M1583.75,20.39c0.94,0.38,2.66,0.42,3.6,0.38c6.9-0.27,26.82-3.33,32.61-2.88c1.56,0.12,2.5,0.18,3.29,0.37" style="fill:none;stroke:#999;stroke-width:3" />
<path d="M1600.19,22.5c1.1,0.44,1.99,1.96,1.99,2.87c0,9.27-0.22,25.88-0.22,34.38" style="fill:none;stroke:#999;stroke-width:3" />
<path d="M1586.94,36.25c1.1,0.44,2.08,1.96,1.99,2.87C1588.0,48 1587.04,51.69 1586.2,60c-0.2,2-0.45,2.25,2.3,1.75s25.5-4,29.75-4" style="fill:none;stroke:#999;stroke-width:3" />
<path d="M1602.11,41.04c5.93-1.69,13.5-3.68,16.79-4.3c2.14-0.4,2.73,1.82,2.61,4.66c-0.31,7.48-4.43,38.02-7.74,43.11c-3.09,4.75-6.34,0.28-7.2-0.61" style="fill:none;stroke:black;stroke-width:3" />
<circle cx="1602.11" cy="41.04" r="5" stroke-width="0" fill="#FF2A00" opacity="0.7" />
</svg>