<!-- 09ec3 -->
<svg width="1308px" height="109px" viewBox="0 0 1308px 109px" xmlns="http://www.w3.org/2000/svg" xmlns:xlink="http://www.w3.org/1999/xlink" xml:space="preserve" version="1.1"  baseProfile="full">
<line x1="1" y1="1" x2="1307" y2="1" style="stroke:#ddd;stroke-width:2" />
<line x1="1" y1="1" x2="1" y2="108" style="stroke:#ddd;stroke-width:2" />
<line x1="1" y1="108" x2="1307" y2="108" style="stroke:#ddd;stroke-width:2" />
<line x1="1307" y1="1" x2="1307" y2="108" style="stroke:#ddd;stroke-width:2" />
<line x1="109" y1="1" x2="109" y2="108" style="stroke:#ddd;stroke-width:2" />
<line x1="218" y1="1" x2="218" y2="108" style="stroke:#ddd;stroke-width:2" />
<line x1="327" y1="1" x2="327" y2="108" style="stroke:#ddd;stroke-width:2" />
<line x1="436" y1="1" x2="436" y2="108" style="stroke:#ddd;stroke-width:2" />
<line x1="545" y1="1" x2="545" y2="108" style="stroke:#ddd;stroke-width:2" />
<line x1="654" y1="1" x2="654" y2="108" style="stroke:#ddd;stroke-width:2" />
<line x1="763" y1="1" x2="763" y2="108" style="stroke:#ddd;stroke-width:2" />
<line x1="872" y1="1" x2="872" y2="108" style="stroke:#ddd;stroke-width:2" />
<line x1="981" y1="1" x2="981" y2="108" style="stroke:#ddd;stroke-width:2" />
<line x1="1090" y1="1" x2="1090" y2="108" style="stroke:#ddd;stroke-width:2" />
<line x1="1199" y1="1" x2="1199" y2="108" style="stroke:#ddd;stroke-width:2" />
<line x1="1" y1="54" x2="1307" y2="54" style="stroke:#ddd;stroke-width:2;stroke-dasharray:3 3" />
<line x1="55" y1="1" x2="55" y2="108" style="stroke:#ddd;stroke-width:2;stroke-dasharray:3 3" />
<line x1="164" y1="1" x2="164" y2="108" style="stroke:#ddd;stroke-width:2;stroke-dasharray:3 3" />
<line x1="273" y1="1" x2="273" y2="108" style="stroke:#ddd;stroke-width:2;stroke-dasharray:3 3" />
<line x1="382" y1="1" x2="382" y2="108" style="stroke:#ddd;stroke-width:2;stroke-dasharray:3 3" />
<line x1="491" y1="1" x2="491" y2="108" style="stroke:#ddd;stroke-width:2;stroke-dasharray:3 3" />
<line x1="600" y1="1" x2="600" y2="108" style="stroke:#ddd;stroke-width:2;stroke-dasharray:3 3" />
<line x1="709" y1="1" x2="709" y2="108" style="stroke:#ddd;stroke-width:2;stroke-dasharray:3 3" />
<line x1="818" y1="1" x2="818" y2="108" style="stroke:#ddd;stroke-width:2;stroke-dasharray:3 3" />
<line x1="927" y1="1" x2="927" y2="108" style="stroke:#ddd;stroke-width:2;stroke-dasharray:3 3" />
<line x1="1036" y1="1" x2="1036" y2="108" style="stroke:#ddd;stroke-width:2;stroke-dasharray:3 3" />
<line x1="1145" y1="1" x2="1145" y2="108" style="stroke:#ddd;stroke-width:2;stroke-dasharray:3 3" />
<line x1="1254" y1="1" x2="1254" y2="108" style="stroke:#ddd;stroke-width:2;stroke-dasharray:3 3" />
<path d="M18.88,19.92c3.32,0.99,5.94,1.11,9.38,0.87c14.44-0.98,31.87-3.42,50.99-4.39c3.44-0.18,6.47-0.31,9.88,0.3" style="fill:none;stroke:black;stroke-width:3" />
<circle cx="18.88" cy="19.92" r="5" stroke-width="0" fill="#FF2A00" opacity="0.7" />
<path d="M127.88,19.92c3.32,0.99,5.94,1.11,9.38,0.87c14.44-0.98,31.87-3.42,50.99-4.39c3.44-0.18,6.47-0.31,9.88,0.3" style="fill:none;stroke:#999;stroke-width:3" />
<path d="M148.78,5.22c1.43,1.43,1.97,2.78,2.16,4.5c0.5,4.35,1.1,10.03,1.83,16.9c0.23,2.17,0.47,4.47,0.73,6.88" style="fill:none;stroke:black;stroke-width:3" />
<circle cx="148.78" cy="5.22" r="5" stroke-width="0" fill="#FF2A00" opacity="0.7" />
<path d="M236.88,19.92c3.32,0.99,5.94,1.11,9.38,0.87c14.44-0.98,31.87-3.42,50.99-4.39c3.44-0.18,6.47-0.31,9.88,0.3" style="fill:none;stroke:#999;stroke-width:3" />
<path d="M257.78,5.22c1.43,1.43,1.97,2.78,2.16,4.5c0.5,4.35,1.1,10.03,1.83,16.9c0.23,2.17,0.47,4.47,0.73,6.88" style="fill:none;stroke:#999;stroke-width:3" />
<path d="M284.6,4.13C285.38,5.5 285.5,7 285.24,8.88c-0.58,4.2-1.74,11.37-3.08,19.66" style="fill:none;stroke:black;stroke-width:3" />
<circle cx="284.6" cy="4.13" r="5" stroke-width="0" fill="#FF2A00" opacity="0.7" />
<path d="M345.88,19.92c3.32,0.99,5.94,1.11,9.38,0.87c14.44-0.98,31.87-3.42,50.99-4.39c3.44-0.18,6.47-0.31,9.88,0.3" style="fill:none;stroke:#999;stroke-width:3" />
<path d="M366.78,5.22c1.43,1.43,1.97,2.78,2.16,4.5c0.5,4.35,1.1,10.03,1.83,16.9c0.23,2.17,0.47,4.47,0.73,6.88" style="fill:none;stroke:#999;stroke-width:3" />
<path d="M393.6,4.13C394.38,5.5 394.5,7 394.24,8.88c-0.58,4.2-1.74,11.37-3.08,19.66" style="fill:none;stroke:#999;stroke-width:3" />
<path d="M372.23,31.27c4.45-0.63,10.75-1.26,15.53-1.57c1.96-0.13,3.66-0.2,4.87-0.2" style="fill:none;stroke:black;stroke-width:3" />
<circle cx="372.23" cy="31.27" r="5" stroke-width="0" fill="#FF2A00" opacity="0.7" />
<path d="M454.88,19.92c3.32,0.99,5.94,1.11,9.38,0.87c14.44-0.98,31.87-3.42,50.99-4.39c3.44-0.18,6.47-0.31,9.88,0.3" style="fill:none;stroke:#999;stroke-width:3" />
<path d="M475.78,5.22c1.43,1.43,1.97,2.78,2.16,4.5c0.5,4.35,1.1,10.03,1.83,16.9c0.23,2.17,0.47,4.47,0.73,6.88" style="fill:none;stroke:#999;stroke-width:3" />
<path d="M502.6,4.13C503.38,5.5 503.5,7 503.24,8.88c-0.58,4.2-1.74,11.37-3.08,19.66" style="fill:none;stroke:#999;stroke-width:3" />
<path d="M481.23,31.27c4.45-0.63,10.75-1.26,15.53-1.57c1.96-0.13,3.66-0.2,4.87-0.2" style="fill:none;stroke:#999;stroke-width:3" />
<path d="M444.88,43.27c5.12,1.85,8.95,2.07,14,1.31c17-2.58,41.89-5.29,64-5.36c4.66-0.02,8.94,0.3,13.5,1.1" style="fill:none;stroke:black;stroke-width:3" />
<circle cx="444.88" cy="43.27" r="5" stroke-width="0" fill="#FF2A00" opacity="0.7" />
<path d="M563.88,19.92c3.32,0.99,5.94,1.11,9.38,0.87c14.44-0.98,31.87-3.42,50.99-4.39c3.44-0.18,6.47-0.31,9.88,0.3" style="fill:none;stroke:#999;stroke-width:3" />
<path d="M584.78,5.22c1.43,1.43,1.97,2.78,2.16,4.5c0.5,4.35,1.1,10.03,1.83,16.9c0.23,2.17,0.47,4.47,0.73,6.88" style="fill:none;stroke:#999;stroke-width:3" />
<path d="M611.6,4.13C612.38,5.5 612.5,7 612.24,8.88c-0.58,4.2-1.74,11.37-3.08,19.66" style="fill:none;stroke:#999;stroke-width:3" />
<path d="M590.23,31.27c4.45-0.63,10.75-1.26,15.53-1.57c1.96-0.13,3.66-0.2,4.87-0.2" style="fill:none;stroke:#999;stroke-width:3" />
<path d="M553.88,43.27c5.12,1.85,8.95,2.07,14,1.31c17-2.58,41.89-5.29,64-5.36c4.66-0.02,8.94,0.3,13.5,1.1" style="fill:none;stroke:#999;stroke-width:3" />
<path d="M571.34,52.84c1.16,1.16,1.34,2.14,1.64,3.35c1.1,4.51,2.75,11.17,4.41,18.18c0.44,1.84,0.87,3.7,1.3,5.55" style="fill:none;stroke:black;stroke-width:3" />
<circle cx="571.34" cy="52.84" r="5" stroke-width="0" fill="#FF2A00" opacity="0.7" />
<path d="M672.88,19.92c3.32,0.99,5.94,1.11,9.38,0.87c14.44-0.98,31.87-3.42,50.99-4.39c3.44-0.18,6.47-0.31,9.88,0.3" style="fill:none;stroke:#999;stroke-width:3" />
<path d="M693.78,5.22c1.43,1.43,1.97,2.78,2.16,4.5c0.5,4.35,1.1,10.03,1.83,16.9c0.23,2.17,0.47,4.47,0.73,6.88" style="fill:none;stroke:#999;stroke-width:3" />
<path d="M720.6,4.13C721.38,5.5 721.5,7 721.24,8.88c-0.58,4.2-1.74,11.37-3.08,19.66" style="fill:none;stroke:#999;stroke-width:3" />
<path d="M699.23,31.27c4.45-0.63,10.75-1.26,15.53-1.57c1.96-0.13,3.66-0.2,4.87-0.2" style="fill:none;stroke:#999;stroke-width:3" />
<path d="M662.88,43.27c5.12,1.85,8.95,2.07,14,1.31c17-2.58,41.89-5.29,64-5.36c4.66-0.02,8.94,0.3,13.5,1.1" style="fill:none;stroke:#999;stroke-width:3" />
<path d="M680.34,52.84c1.16,1.16,1.34,2.14,1.64,3.35c1.1,4.51,2.75,11.17,4.41,18.18c0.44,1.84,0.87,3.7,1.3,5.55" style="fill:none;stroke:#999;stroke-width:3" />
<path d="M682.98,56.17C696.5,55 721.65,51.29 730.42,51.16c3.65-0.06,5.1,1.61,4.43,4.99c-0.7,3.55-2.34,9.66-4.12,16c-0.57,2.03-1.16,4.09-1.74,6.1" style="fill:none;stroke:black;stroke-width:3" />
<circle cx="682.98" cy="56.17" r="5" stroke-width="0" fill="#FF2A00" opacity="0.7" />
<path d="M781.88,19.92c3.32,0.99,5.94,1.11,9.38,0.87c14.44-0.98,31.87-3.42,50.99-4.39c3.44-0.18,6.47-0.31,9.88,0.3" style="fill:none;stroke:#999;stroke-width:3" />
<path d="M802.78,5.22c1.43,1.43,1.97,2.78,2.16,4.5c0.5,4.35,1.1,10.03,1.83,16.9c0.23,2.17,0.47,4.47,0.73,6.88" style="fill:none;stroke:#999;stroke-width:3" />
<path d="M829.6,4.13C830.38,5.5 830.5,7 830.24,8.88c-0.58,4.2-1.74,11.37-3.08,19.66" style="fill:none;stroke:#999;stroke-width:3" />
<path d="M808.23,31.27c4.45-0.63,10.75-1.26,15.53-1.57c1.96-0.13,3.66-0.2,4.87-0.2" style="fill:none;stroke:#999;stroke-width:3" />
<path d="M771.88,43.27c5.12,1.85,8.95,2.07,14,1.31c17-2.58,41.89-5.29,64-5.36c4.66-0.02,8.94,0.3,13.5,1.1" style="fill:none;stroke:#999;stroke-width:3" />
<path d="M789.34,52.84c1.16,1.16,1.34,2.14,1.64,3.35c1.1,4.51,2.75,11.17,4.41,18.18c0.44,1.84,0.87,3.7,1.3,5.55" style="fill:none;stroke:#999;stroke-width:3" />
<path d="M791.98,56.17C805.5,55 830.65,51.29 839.42,51.16c3.65-0.06,5.1,1.61,4.43,4.99c-0.7,3.55-2.34,9.66-4.12,16c-0.57,2.03-1.16,4.09-1.74,6.1" style="fill:none;stroke:#999;stroke-width:3" />
<path d="M815.41,44.03c1.03,1.03,1.46,2.22,1.46,3.6c0,8.19-0.07,25.18-0.07,27.37" style="fill:none;stroke:black;stroke-width:3" />
<circle cx="815.41" cy="44.03" r="5" stroke-width="0" fill="#FF2A00" opacity="0.7" />
<path d="M890.88,19.92c3.32,0.99,5.94,1.11,9.38,0.87c14.44-0.98,31.87-3.42,50.99-4.39c3.44-0.18,6.47-0.31,9.88,0.3" style="fill:none;stroke:#999;stroke-width:3" />
<path d="M911.78,5.22c1.43,1.43,1.97,2.78,2.16,4.5c0.5,4.35,1.1,10.03,1.83,16.9c0.23,2.17,0.47,4.47,0.73,6.88" style="fill:none;stroke:#999;stroke-width:3" />
<path d="M938.6,4.13C939.38,5.5 939.5,7 939.24,8.88c-0.58,4.2-1.74,11.37-3.08,19.66" style="fill:none;stroke:#999;stroke-width:3" />
<path d="M917.23,31.27c4.45-0.63,10.75-1.26,15.53-1.57c1.96-0.13,3.66-0.2,4.87-0.2" style="fill:none;stroke:#999;stroke-width:3" />
<path d="M880.88,43.27c5.12,1.85,8.95,2.07,14,1.31c17-2.58,41.89-5.29,64-5.36c4.66-0.02,8.94,0.3,13.5,1.1" style="fill:none;stroke:#999;stroke-width:3" />
<path d="M898.34,52.84c1.16,1.16,1.34,2.14,1.64,3.35c1.1,4.51,2.75,11.17,4.41,18.18c0.44,1.84,0.87,3.7,1.3,5.55" style="fill:none;stroke:#999;stroke-width:3" />
<path d="M900.98,56.17C914.5,55 939.65,51.29 948.42,51.16c3.65-0.06,5.1,1.61,4.43,4.99c-0.7,3.55-2.34,9.66-4.12,16c-0.57,2.03-1.16,4.09-1.74,6.1" style="fill:none;stroke:#999;stroke-width:3" />
<path d="M924.41,44.03c1.03,1.03,1.46,2.22,1.46,3.6c0,8.19-0.07,25.18-0.07,27.37" style="fill:none;stroke:#999;stroke-width:3" />
<path d="M903.83,66.96c11.67-2.21,36.42-4.33,46.71-4.59" style="fill:none;stroke:black;stroke-width:3" />
<circle cx="903.83" cy="66.96" r="5" stroke-width="0" fill="#FF2A00" opacity="0.7" />
<path d="M999.88,19.92c3.32,0.99,5.94,1.11,9.38,0.87c14.44-0.98,31.87-3.42,50.99-4.39c3.44-0.18,6.47-0.31,9.88,0.3" style="fill:none;stroke:#999;stroke-width:3" />
<path d="M1020.78,5.22c1.43,1.43,1.97,2.78,2.16,4.5c0.5,4.35,1.1,10.03,1.83,16.9c0.23,2.17,0.47,4.47,0.73,6.88" style="fill:none;stroke:#999;stroke-width:3" />
<path d="M1047.6,4.13C1048.38,5.5 1048.5,7 1048.24,8.88c-0.58,4.2-1.74,11.37-3.08,19.66" style="fill:none;stroke:#999;stroke-width:3" />
<path d="M1026.23,31.27c4.45-0.63,10.75-1.26,15.53-1.57c1.96-0.13,3.66-0.2,4.87-0.2" style="fill:none;stroke:#999;stroke-width:3" />
<path d="M989.88,43.27c5.12,1.85,8.95,2.07,14,1.31c17-2.58,41.89-5.29,64-5.36c4.66-0.02,8.94,0.3,13.5,1.1" style="fill:none;stroke:#999;stroke-width:3" />
<path d="M1007.34,52.84c1.16,1.16,1.34,2.14,1.64,3.35c1.1,4.51,2.75,11.17,4.41,18.18c0.44,1.84,0.87,3.7,1.3,5.55" style="fill:none;stroke:#999;stroke-width:3" />
<path d="M1009.98,56.17C1023.5,55 1048.65,51.29 1057.42,51.16c3.65-0.06,5.1,1.61,4.43,4.99c-0.7,3.55-2.34,9.66-4.12,16c-0.57,2.03-1.16,4.09-1.74,6.1" style="fill:none;stroke:#999;stroke-width:3" />
<path d="M1033.4099999999999,44.03c1.03,1.03,1.46,2.22,1.46,3.6c0,8.19-0.07,25.18-0.07,27.37" style="fill:none;stroke:#999;stroke-width:3" />
<path d="M1012.83,66.96c11.67-2.21,36.42-4.33,46.71-4.59" style="fill:none;stroke:#999;stroke-width:3" />
<path d="M1015.38,77.82c13.25-2.19,26.07-3.32,40.73-3.91" style="fill:none;stroke:black;stroke-width:3" />
<circle cx="1015.38" cy="77.82" r="5" stroke-width="0" fill="#FF2A00" opacity="0.7" />
<path d="M1108.88,19.92c3.32,0.99,5.94,1.11,9.38,0.87c14.44-0.98,31.87-3.42,50.99-4.39c3.44-0.18,6.47-0.31,9.88,0.3" style="fill:none;stroke:#999;stroke-width:3" />
<path d="M1129.78,5.22c1.43,1.43,1.97,2.78,2.16,4.5c0.5,4.35,1.1,10.03,1.83,16.9c0.23,2.17,0.47,4.47,0.73,6.88" style="fill:none;stroke:#999;stroke-width:3" />
<path d="M1156.6,4.13C1157.38,5.5 1157.5,7 1157.24,8.88c-0.58,4.2-1.74,11.37-3.08,19.66" style="fill:none;stroke:#999;stroke-width:3" />
<path d="M1135.23,31.27c4.45-0.63,10.75-1.26,15.53-1.57c1.96-0.13,3.66-0.2,4.87-0.2" style="fill:none;stroke:#999;stroke-width:3" />
<path d="M1098.88,43.27c5.12,1.85,8.95,2.07,14,1.31c17-2.58,41.89-5.29,64-5.36c4.66-0.02,8.94,0.3,13.5,1.1" style="fill:none;stroke:#999;stroke-width:3" />
<path d="M1116.3400000000001,52.84c1.16,1.16,1.34,2.14,1.64,3.35c1.1,4.51,2.75,11.17,4.41,18.18c0.44,1.84,0.87,3.7,1.3,5.55" style="fill:none;stroke:#999;stroke-width:3" />
<path d="M1118.98,56.17C1132.5,55 1157.65,51.29 1166.42,51.16c3.65-0.06,5.1,1.61,4.43,4.99c-0.7,3.55-2.34,9.66-4.12,16c-0.57,2.03-1.16,4.09-1.74,6.1" style="fill:none;stroke:#999;stroke-width:3" />
<path d="M1142.4099999999999,44.03c1.03,1.03,1.46,2.22,1.46,3.6c0,8.19-0.07,25.18-0.07,27.37" style="fill:none;stroke:#999;stroke-width:3" />
<path d="M1121.83,66.96c11.67-2.21,36.42-4.33,46.71-4.59" style="fill:none;stroke:#999;stroke-width:3" />
<path d="M1124.38,77.82c13.25-2.19,26.07-3.32,40.73-3.91" style="fill:none;stroke:#999;stroke-width:3" />
<path d="M1130.99,83.25c0,1.5-1.08,2.77-2.21,3.7c-3.77,3.13-11.82,7.32-22.04,10.55" style="fill:none;stroke:black;stroke-width:3" />
<circle cx="1130.99" cy="83.25" r="5" stroke-width="0" fill="#FF2A00" opacity="0.7" />
<path d="M1217.88,19.92c3.32,0.99,5.94,1.11,9.38,0.87c14.44-0.98,31.87-3.42,50.99-4.39c3.44-0.18,6.47-0.31,9.88,0.3" style="fill:none;stroke:#999;stroke-width:3" />
<path d="M1238.78,5.22c1.43,1.43,1.97,2.78,2.16,4.5c0.5,4.35,1.1,10.03,1.83,16.9c0.23,2.17,0.47,4.47,0.73,6.88" style="fill:none;stroke:#999;stroke-width:3" />
<path d="M1265.6,4.13C1266.38,5.5 1266.5,7 1266.24,8.88c-0.58,4.2-1.74,11.37-3.08,19.66" style="fill:none;stroke:#999;stroke-width:3" />
<path d="M1244.23,31.27c4.45-0.63,10.75-1.26,15.53-1.57c1.96-0.13,3.66-0.2,4.87-0.2" style="fill:none;stroke:#999;stroke-width:3" />
<path d="M1207.88,43.27c5.12,1.85,8.95,2.07,14,1.31c17-2.58,41.89-5.29,64-5.36c4.66-0.02,8.94,0.3,13.5,1.1" style="fill:none;stroke:#999;stroke-width:3" />
<path d="M1225.3400000000001,52.84c1.16,1.16,1.34,2.14,1.64,3.35c1.1,4.51,2.75,11.17,4.41,18.18c0.44,1.84,0.87,3.7,1.3,5.55" style="fill:none;stroke:#999;stroke-width:3" />
<path d="M1227.98,56.17C1241.5,55 1266.65,51.29 1275.42,51.16c3.65-0.06,5.1,1.61,4.43,4.99c-0.7,3.55-2.34,9.66-4.12,16c-0.57,2.03-1.16,4.09-1.74,6.1" style="fill:none;stroke:#999;stroke-width:3" />
<path d="M1251.4099999999999,44.03c1.03,1.03,1.46,2.22,1.46,3.6c0,8.19-0.07,25.18-0.07,27.37" style="fill:none;stroke:#999;stroke-width:3" />
<path d="M1230.83,66.96c11.67-2.21,36.42-4.33,46.71-4.59" style="fill:none;stroke:#999;stroke-width:3" />
<path d="M1233.38,77.82c13.25-2.19,26.07-3.32,40.73-3.91" style="fill:none;stroke:#999;stroke-width:3" />
<path d="M1239.99,83.25c0,1.5-1.08,2.77-2.21,3.7c-3.77,3.13-11.82,7.32-22.04,10.55" style="fill:none;stroke:#999;stroke-width:3" />
<path d="M1263.5,81.25c8.21,3.09,21.2,12.73,23.25,17.54" style="fill:none;stroke:black;stroke-width:3" />
<circle cx="1263.5" cy="81.25" r="5" stroke-width="0" fill="#FF2A00" opacity="0.7" />
</svg>