<!-- 09f67 -->
<svg width="2289px" height="109px" viewBox="0 0 2289px 109px" xmlns="http://www.w3.org/2000/svg" xmlns:xlink="http://www.w3.org/1999/xlink" xml:space="preserve" version="1.1"  baseProfile="full">
<line x1="1" y1="1" x2="2288" y2="1" style="stroke:#ddd;stroke-width:2" />
<line x1="1" y1="1" x2="1" y2="108" style="stroke:#ddd;stroke-width:2" />
<line x1="1" y1="108" x2="2288" y2="108" style="stroke:#ddd;stroke-width:2" />
<line x1="2288" y1="1" x2="2288" y2="108" style="stroke:#ddd;stroke-width:2" />
<line x1="109" y1="1" x2="109" y2="108" style="stroke:#ddd;stroke-width:2" />
<line x1="218" y1="1" x2="218" y2="108" style="stroke:#ddd;stroke-width:2" />
<line x1="327" y1="1" x2="327" y2="108" style="stroke:#ddd;stroke-width:2" />
<line x1="436" y1="1" x2="436" y2="108" style="stroke:#ddd;stroke-width:2" />
<line x1="545" y1="1" x2="545" y2="108" style="stroke:#ddd;stroke-width:2" />
<line x1="654" y1="1" x2="654" y2="108" style="stroke:#ddd;stroke-width:2" />
<line x1="763" y1="1" x2="763" y2="108" style="stroke:#ddd;stroke-width:2" />
<line x1="872" y1="1" x2="872" y2="108" style="stroke:#ddd;stroke-width:2" />
<line x1="981" y1="1" x2="981" y2="108" style="stroke:#ddd;stroke-width:2" />
<line x1="1090" y1="1" x2="1090" y2="108" style="stroke:#ddd;stroke-width:2" />
<line x1="1199" y1="1" x2="1199" y2="108" style="stroke:#ddd;stroke-width:2" />
<line x1="1308" y1="1" x2="1308" y2="108" style="stroke:#ddd;stroke-width:2" />
<line x1="1417" y1="1" x2="1417" y2="108" style="stroke:#ddd;stroke-width:2" />
<line x1="1526" y1="1" x2="1526" y2="108" style="stroke:#ddd;stroke-width:2" />
<line x1="1635" y1="1" x2="1635" y2="108" style="stroke:#ddd;stroke-width:2" />
<line x1="1744" y1="1" x2="1744" y2="108" style="stroke:#ddd;stroke-width:2" />
<line x1="1853" y1="1" x2="1853" y2="108" style="stroke:#ddd;stroke-width:2" />
<line x1="1962" y1="1" x2="1962" y2="108" style="stroke:#ddd;stroke-width:2" />
<line x1="2071" y1="1" x2="2071" y2="108" style="stroke:#ddd;stroke-width:2" />
<line x1="2180" y1="1" x2="2180" y2="108" style="stroke:#ddd;stroke-width:2" />
<line x1="1" y1="54" x2="2288" y2="54" style="stroke:#ddd;stroke-width:2;stroke-dasharray:3 3" />
<line x1="55" y1="1" x2="55" y2="108" style="stroke:#ddd;stroke-width:2;stroke-dasharray:3 3" />
<line x1="164" y1="1" x2="164" y2="108" style="stroke:#ddd;stroke-width:2;stroke-dasharray:3 3" />
<line x1="273" y1="1" x2="273" y2="108" style="stroke:#ddd;stroke-width:2;stroke-dasharray:3 3" />
<line x1="382" y1="1" x2="382" y2="108" style="stroke:#ddd;stroke-width:2;stroke-dasharray:3 3" />
<line x1="491" y1="1" x2="491" y2="108" style="stroke:#ddd;stroke-width:2;stroke-dasharray:3 3" />
<line x1="600" y1="1" x2="600" y2="108" style="stroke:#ddd;stroke-width:2;stroke-dasharray:3 3" />
<line x1="709" y1="1" x2="709" y2="108" style="stroke:#ddd;stroke-width:2;stroke-dasharray:3 3" />
<line x1="818" y1="1" x2="818" y2="108" style="stroke:#ddd;stroke-width:2;stroke-dasharray:3 3" />
<line x1="927" y1="1" x2="927" y2="108" style="stroke:#ddd;stroke-width:2;stroke-dasharray:3 3" />
<line x1="1036" y1="1" x2="1036" y2="108" style="stroke:#ddd;stroke-width:2;stroke-dasharray:3 3" />
<line x1="1145" y1="1" x2="1145" y2="108" style="stroke:#ddd;stroke-width:2;stroke-dasharray:3 3" />
<line x1="1254" y1="1" x2="1254" y2="108" style="stroke:#ddd;stroke-width:2;stroke-dasharray:3 3" />
<line x1="1363" y1="1" x2="1363" y2="108" style="stroke:#ddd;stroke-width:2;stroke-dasharray:3 3" />
<line x1="1472" y1="1" x2="1472" y2="108" style="stroke:#ddd;stroke-width:2;stroke-dasharray:3 3" />
<line x1="1581" y1="1" x2="1581" y2="108" style="stroke:#ddd;stroke-width:2;stroke-dasharray:3 3" />
<line x1="1690" y1="1" x2="1690" y2="108" style="stroke:#ddd;stroke-width:2;stroke-dasharray:3 3" />
<line x1="1799" y1="1" x2="1799" y2="108" style="stroke:#ddd;stroke-width:2;stroke-dasharray:3 3" />
<line x1="1908" y1="1" x2="1908" y2="108" style="stroke:#ddd;stroke-width:2;stroke-dasharray:3 3" />
<line x1="2017" y1="1" x2="2017" y2="108" style="stroke:#ddd;stroke-width:2;stroke-dasharray:3 3" />
<line x1="2126" y1="1" x2="2126" y2="108" style="stroke:#ddd;stroke-width:2;stroke-dasharray:3 3" />
<line x1="2235" y1="1" x2="2235" y2="108" style="stroke:#ddd;stroke-width:2;stroke-dasharray:3 3" />
<path d="M15.59,18.31c0.71,0.33,3.07,0.48,3.8,0.43C25.99,18.25 37.0,17 44.34,16.08c0.89-0.11,2.86-0.13,4.19,0.15" style="fill:none;stroke:black;stroke-width:3" />
<circle cx="15.59" cy="18.31" r="5" stroke-width="0" fill="#FF2A00" opacity="0.7" />
<path d="M124.59,18.31c0.71,0.33,3.07,0.48,3.8,0.43C134.99,18.25 146.0,17 153.34,16.08c0.89-0.11,2.86-0.13,4.19,0.15" style="fill:none;stroke:#999;stroke-width:3" />
<path d="M128.59,28.31c0.59,0.33,2.56,0.48,3.17,0.43c5.49-0.49,14.24-2.24,20.28-3.17c0.74-0.11,2.38-0.13,3.49,0.15" style="fill:none;stroke:black;stroke-width:3" />
<circle cx="128.59" cy="28.31" r="5" stroke-width="0" fill="#FF2A00" opacity="0.7" />
<path d="M233.59,18.31c0.71,0.33,3.07,0.48,3.8,0.43C243.99,18.25 255.0,17 262.34000000000003,16.08c0.89-0.11,2.86-0.13,4.19,0.15" style="fill:none;stroke:#999;stroke-width:3" />
<path d="M237.59,28.31c0.59,0.33,2.56,0.48,3.17,0.43c5.49-0.49,14.24-2.24,20.28-3.17c0.74-0.11,2.38-0.13,3.49,0.15" style="fill:none;stroke:#999;stroke-width:3" />
<path d="M234.0,39.7c0.8,0.55,2.41,0.84,4.82,0.12c6.69-2,18.74-5.57,25.43-7.57" style="fill:none;stroke:black;stroke-width:3" />
<circle cx="234.0" cy="39.7" r="5" stroke-width="0" fill="#FF2A00" opacity="0.7" />
<path d="M342.59000000000003,18.31c0.71,0.33,3.07,0.48,3.8,0.43C352.99,18.25 364.0,17 371.34000000000003,16.08c0.89-0.11,2.86-0.13,4.19,0.15" style="fill:none;stroke:#999;stroke-width:3" />
<path d="M346.59000000000003,28.31c0.59,0.33,2.56,0.48,3.17,0.43c5.49-0.49,14.24-2.24,20.28-3.17c0.74-0.11,2.38-0.13,3.49,0.15" style="fill:none;stroke:#999;stroke-width:3" />
<path d="M343.0,39.7c0.8,0.55,2.41,0.84,4.82,0.12c6.69-2,18.74-5.57,25.43-7.57" style="fill:none;stroke:#999;stroke-width:3" />
<path d="M357.37,10.25c1.09,0.5,1.69,2.26,1.96,3.25C360.0,16 360.0,33.5 360.5,42.5" style="fill:none;stroke:black;stroke-width:3" />
<circle cx="357.37" cy="10.25" r="5" stroke-width="0" fill="#FF2A00" opacity="0.7" />
<path d="M451.59000000000003,18.31c0.71,0.33,3.07,0.48,3.8,0.43C461.99,18.25 473.0,17 480.34000000000003,16.08c0.89-0.11,2.86-0.13,4.19,0.15" style="fill:none;stroke:#999;stroke-width:3" />
<path d="M455.59000000000003,28.31c0.59,0.33,2.56,0.48,3.17,0.43c5.49-0.49,14.24-2.24,20.28-3.17c0.74-0.11,2.38-0.13,3.49,0.15" style="fill:none;stroke:#999;stroke-width:3" />
<path d="M452.0,39.7c0.8,0.55,2.41,0.84,4.82,0.12c6.69-2,18.74-5.57,25.43-7.57" style="fill:none;stroke:#999;stroke-width:3" />
<path d="M466.37,10.25c1.09,0.5,1.69,2.26,1.96,3.25C469.0,16 469.0,33.5 469.5,42.5" style="fill:none;stroke:#999;stroke-width:3" />
<path d="M492.4,14.93c1.1,0.32,2.86,0.78,3.57,0.67c5.86-0.88,22.72-3.23,25.96-3.56c2.11-0.21,3.2,1.45,3.08,2.94c-0.31,3.91-4.85,19.39-8.12,22.05c-3.05,2.48-5.15-0.28-6.63-2.32" style="fill:none;stroke:black;stroke-width:3" />
<circle cx="492.4" cy="14.93" r="5" stroke-width="0" fill="#FF2A00" opacity="0.7" />
<path d="M560.59,18.31c0.71,0.33,3.07,0.48,3.8,0.43C570.99,18.25 582.0,17 589.34,16.08c0.89-0.11,2.86-0.13,4.19,0.15" style="fill:none;stroke:#999;stroke-width:3" />
<path d="M564.59,28.31c0.59,0.33,2.56,0.48,3.17,0.43c5.49-0.49,14.24-2.24,20.28-3.17c0.74-0.11,2.38-0.13,3.49,0.15" style="fill:none;stroke:#999;stroke-width:3" />
<path d="M561.0,39.7c0.8,0.55,2.41,0.84,4.82,0.12c6.69-2,18.74-5.57,25.43-7.57" style="fill:none;stroke:#999;stroke-width:3" />
<path d="M575.37,10.25c1.09,0.5,1.69,2.26,1.96,3.25C578.0,16 578.0,33.5 578.5,42.5" style="fill:none;stroke:#999;stroke-width:3" />
<path d="M601.4,14.93c1.1,0.32,2.86,0.78,3.57,0.67c5.86-0.88,22.72-3.23,25.96-3.56c2.11-0.21,3.2,1.45,3.08,2.94c-0.31,3.91-4.85,19.39-8.12,22.05c-3.05,2.48-5.15-0.28-6.63-2.32" style="fill:none;stroke:#999;stroke-width:3" />
<path d="M613.6,16.56c0.03,0.43,0.1,1.11-0.07,1.72C612.25,23 608.75,30 600.64,36.25" style="fill:none;stroke:black;stroke-width:3" />
<circle cx="613.6" cy="16.56" r="5" stroke-width="0" fill="#FF2A00" opacity="0.7" />
<path d="M669.59,18.31c0.71,0.33,3.07,0.48,3.8,0.43C679.99,18.25 691.0,17 698.34,16.08c0.89-0.11,2.86-0.13,4.19,0.15" style="fill:none;stroke:#999;stroke-width:3" />
<path d="M673.59,28.31c0.59,0.33,2.56,0.48,3.17,0.43c5.49-0.49,14.24-2.24,20.28-3.17c0.74-0.11,2.38-0.13,3.49,0.15" style="fill:none;stroke:#999;stroke-width:3" />
<path d="M670.0,39.7c0.8,0.55,2.41,0.84,4.82,0.12c6.69-2,18.74-5.57,25.43-7.57" style="fill:none;stroke:#999;stroke-width:3" />
<path d="M684.37,10.25c1.09,0.5,1.69,2.26,1.96,3.25C687.0,16 687.0,33.5 687.5,42.5" style="fill:none;stroke:#999;stroke-width:3" />
<path d="M710.4,14.93c1.1,0.32,2.86,0.78,3.57,0.67c5.86-0.88,22.72-3.23,25.96-3.56c2.11-0.21,3.2,1.45,3.08,2.94c-0.31,3.91-4.85,19.39-8.12,22.05c-3.05,2.48-5.15-0.28-6.63-2.32" style="fill:none;stroke:#999;stroke-width:3" />
<path d="M722.6,16.56c0.03,0.43,0.1,1.11-0.07,1.72C721.25,23 717.75,30 709.64,36.25" style="fill:none;stroke:#999;stroke-width:3" />
<path d="M706.83,41.5c1.01,0.32,1.83,1.41,1.83,2.06c0,3.32,0.27,9.51,0.27,12.68" style="fill:none;stroke:black;stroke-width:3" />
<circle cx="706.83" cy="41.5" r="5" stroke-width="0" fill="#FF2A00" opacity="0.7" />
<path d="M778.59,18.31c0.71,0.33,3.07,0.48,3.8,0.43C788.99,18.25 800.0,17 807.34,16.08c0.89-0.11,2.86-0.13,4.19,0.15" style="fill:none;stroke:#999;stroke-width:3" />
<path d="M782.59,28.31c0.59,0.33,2.56,0.48,3.17,0.43c5.49-0.49,14.24-2.24,20.28-3.17c0.74-0.11,2.38-0.13,3.49,0.15" style="fill:none;stroke:#999;stroke-width:3" />
<path d="M779.0,39.7c0.8,0.55,2.41,0.84,4.82,0.12c6.69-2,18.74-5.57,25.43-7.57" style="fill:none;stroke:#999;stroke-width:3" />
<path d="M793.37,10.25c1.09,0.5,1.69,2.26,1.96,3.25C796.0,16 796.0,33.5 796.5,42.5" style="fill:none;stroke:#999;stroke-width:3" />
<path d="M819.4,14.93c1.1,0.32,2.86,0.78,3.57,0.67c5.86-0.88,22.72-3.23,25.96-3.56c2.11-0.21,3.2,1.45,3.08,2.94c-0.31,3.91-4.85,19.39-8.12,22.05c-3.05,2.48-5.15-0.28-6.63-2.32" style="fill:none;stroke:#999;stroke-width:3" />
<path d="M831.6,16.56c0.03,0.43,0.1,1.11-0.07,1.72C830.25,23 826.75,30 818.64,36.25" style="fill:none;stroke:#999;stroke-width:3" />
<path d="M815.83,41.5c1.01,0.32,1.83,1.41,1.83,2.06c0,3.32,0.27,9.51,0.27,12.68" style="fill:none;stroke:#999;stroke-width:3" />
<path d="M818.15,48.93c6.63-0.47,12.33-1.77,19.3-2.08c1.62-0.07,2.03-0.16,3.04,0" style="fill:none;stroke:black;stroke-width:3" />
<circle cx="818.15" cy="48.93" r="5" stroke-width="0" fill="#FF2A00" opacity="0.7" />
<path d="M887.59,18.31c0.71,0.33,3.07,0.48,3.8,0.43C897.99,18.25 909.0,17 916.34,16.08c0.89-0.11,2.86-0.13,4.19,0.15" style="fill:none;stroke:#999;stroke-width:3" />
<path d="M891.59,28.31c0.59,0.33,2.56,0.48,3.17,0.43c5.49-0.49,14.24-2.24,20.28-3.17c0.74-0.11,2.38-0.13,3.49,0.15" style="fill:none;stroke:#999;stroke-width:3" />
<path d="M888.0,39.7c0.8,0.55,2.41,0.84,4.82,0.12c6.69-2,18.74-5.57,25.43-7.57" style="fill:none;stroke:#999;stroke-width:3" />
<path d="M902.37,10.25c1.09,0.5,1.69,2.26,1.96,3.25C905.0,16 905.0,33.5 905.5,42.5" style="fill:none;stroke:#999;stroke-width:3" />
<path d="M928.4,14.93c1.1,0.32,2.86,0.78,3.57,0.67c5.86-0.88,22.72-3.23,25.96-3.56c2.11-0.21,3.2,1.45,3.08,2.94c-0.31,3.91-4.85,19.39-8.12,22.05c-3.05,2.48-5.15-0.28-6.63-2.32" style="fill:none;stroke:#999;stroke-width:3" />
<path d="M940.6,16.56c0.03,0.43,0.1,1.11-0.07,1.72C939.25,23 935.75,30 927.64,36.25" style="fill:none;stroke:#999;stroke-width:3" />
<path d="M924.83,41.5c1.01,0.32,1.83,1.41,1.83,2.06c0,3.32,0.27,9.51,0.27,12.68" style="fill:none;stroke:#999;stroke-width:3" />
<path d="M927.15,48.93c6.63-0.47,12.33-1.77,19.3-2.08c1.62-0.07,2.03-0.16,3.04,0" style="fill:none;stroke:#999;stroke-width:3" />
<path d="M908.69,46.93c1.01,0.32,1.62,1.42,1.83,2.06c0.2,0.63,0,4.9-0.2,8.86" style="fill:none;stroke:black;stroke-width:3" />
<circle cx="908.69" cy="46.93" r="5" stroke-width="0" fill="#FF2A00" opacity="0.7" />
<path d="M996.59,18.31c0.71,0.33,3.07,0.48,3.8,0.43C1006.99,18.25 1018.0,17 1025.3400000000001,16.08c0.89-0.11,2.86-0.13,4.19,0.15" style="fill:none;stroke:#999;stroke-width:3" />
<path d="M1000.59,28.31c0.59,0.33,2.56,0.48,3.17,0.43c5.49-0.49,14.24-2.24,20.28-3.17c0.74-0.11,2.38-0.13,3.49,0.15" style="fill:none;stroke:#999;stroke-width:3" />
<path d="M997.0,39.7c0.8,0.55,2.41,0.84,4.82,0.12c6.69-2,18.74-5.57,25.43-7.57" style="fill:none;stroke:#999;stroke-width:3" />
<path d="M1011.37,10.25c1.09,0.5,1.69,2.26,1.96,3.25C1014.0,16 1014.0,33.5 1014.5,42.5" style="fill:none;stroke:#999;stroke-width:3" />
<path d="M1037.4,14.93c1.1,0.32,2.86,0.78,3.57,0.67c5.86-0.88,22.72-3.23,25.96-3.56c2.11-0.21,3.2,1.45,3.08,2.94c-0.31,3.91-4.85,19.39-8.12,22.05c-3.05,2.48-5.15-0.28-6.63-2.32" style="fill:none;stroke:#999;stroke-width:3" />
<path d="M1049.6,16.56c0.03,0.43,0.1,1.11-0.07,1.72C1048.25,23 1044.75,30 1036.6399999999999,36.25" style="fill:none;stroke:#999;stroke-width:3" />
<path d="M1033.83,41.5c1.01,0.32,1.83,1.41,1.83,2.06c0,3.32,0.27,9.51,0.27,12.68" style="fill:none;stroke:#999;stroke-width:3" />
<path d="M1036.15,48.93c6.63-0.47,12.33-1.77,19.3-2.08c1.62-0.07,2.03-0.16,3.04,0" style="fill:none;stroke:#999;stroke-width:3" />
<path d="M1017.69,46.93c1.01,0.32,1.62,1.42,1.83,2.06c0.2,0.63,0,4.9-0.2,8.86" style="fill:none;stroke:#999;stroke-width:3" />
<path d="M997.94,58.21c0.81,0.21,2.99,0.71,5.16,0.63c11.7-0.42,50.67-3.77,61.76-3.77c2.18,0,5.95,0.42,7.19,0.63" style="fill:none;stroke:black;stroke-width:3" />
<circle cx="997.94" cy="58.21" r="5" stroke-width="0" fill="#FF2A00" opacity="0.7" />
<path d="M1105.5900000000001,18.31c0.71,0.33,3.07,0.48,3.8,0.43C1115.99,18.25 1127.0,17 1134.3400000000001,16.08c0.89-0.11,2.86-0.13,4.19,0.15" style="fill:none;stroke:#999;stroke-width:3" />
<path d="M1109.5900000000001,28.31c0.59,0.33,2.56,0.48,3.17,0.43c5.49-0.49,14.24-2.24,20.28-3.17c0.74-0.11,2.38-0.13,3.49,0.15" style="fill:none;stroke:#999;stroke-width:3" />
<path d="M1106.0,39.7c0.8,0.55,2.41,0.84,4.82,0.12c6.69-2,18.74-5.57,25.43-7.57" style="fill:none;stroke:#999;stroke-width:3" />
<path d="M1120.37,10.25c1.09,0.5,1.69,2.26,1.96,3.25C1123.0,16 1123.0,33.5 1123.5,42.5" style="fill:none;stroke:#999;stroke-width:3" />
<path d="M1146.4,14.93c1.1,0.32,2.86,0.78,3.57,0.67c5.86-0.88,22.72-3.23,25.96-3.56c2.11-0.21,3.2,1.45,3.08,2.94c-0.31,3.91-4.85,19.39-8.12,22.05c-3.05,2.48-5.15-0.28-6.63-2.32" style="fill:none;stroke:#999;stroke-width:3" />
<path d="M1158.6,16.56c0.03,0.43,0.1,1.11-0.07,1.72C1157.25,23 1153.75,30 1145.6399999999999,36.25" style="fill:none;stroke:#999;stroke-width:3" />
<path d="M1142.83,41.5c1.01,0.32,1.83,1.41,1.83,2.06c0,3.32,0.27,9.51,0.27,12.68" style="fill:none;stroke:#999;stroke-width:3" />
<path d="M1145.15,48.93c6.63-0.47,12.33-1.77,19.3-2.08c1.62-0.07,2.03-0.16,3.04,0" style="fill:none;stroke:#999;stroke-width:3" />
<path d="M1126.69,46.93c1.01,0.32,1.62,1.42,1.83,2.06c0.2,0.63,0,4.9-0.2,8.86" style="fill:none;stroke:#999;stroke-width:3" />
<path d="M1106.94,58.21c0.81,0.21,2.99,0.71,5.16,0.63c11.7-0.42,50.67-3.77,61.76-3.77c2.18,0,5.95,0.42,7.19,0.63" style="fill:none;stroke:#999;stroke-width:3" />
<path d="M1133.38,60.73c0.17,0.14-0.09,1.47-0.22,1.79C1131.7,66 1127.9,71.7 1122.5,74.97" style="fill:none;stroke:black;stroke-width:3" />
<circle cx="1133.38" cy="60.73" r="5" stroke-width="0" fill="#FF2A00" opacity="0.7" />
<path d="M1214.5900000000001,18.31c0.71,0.33,3.07,0.48,3.8,0.43C1224.99,18.25 1236.0,17 1243.3400000000001,16.08c0.89-0.11,2.86-0.13,4.19,0.15" style="fill:none;stroke:#999;stroke-width:3" />
<path d="M1218.5900000000001,28.31c0.59,0.33,2.56,0.48,3.17,0.43c5.49-0.49,14.24-2.24,20.28-3.17c0.74-0.11,2.38-0.13,3.49,0.15" style="fill:none;stroke:#999;stroke-width:3" />
<path d="M1215.0,39.7c0.8,0.55,2.41,0.84,4.82,0.12c6.69-2,18.74-5.57,25.43-7.57" style="fill:none;stroke:#999;stroke-width:3" />
<path d="M1229.37,10.25c1.09,0.5,1.69,2.26,1.96,3.25C1232.0,16 1232.0,33.5 1232.5,42.5" style="fill:none;stroke:#999;stroke-width:3" />
<path d="M1255.4,14.93c1.1,0.32,2.86,0.78,3.57,0.67c5.86-0.88,22.72-3.23,25.96-3.56c2.11-0.21,3.2,1.45,3.08,2.94c-0.31,3.91-4.85,19.39-8.12,22.05c-3.05,2.48-5.15-0.28-6.63-2.32" style="fill:none;stroke:#999;stroke-width:3" />
<path d="M1267.6,16.56c0.03,0.43,0.1,1.11-0.07,1.72C1266.25,23 1262.75,30 1254.6399999999999,36.25" style="fill:none;stroke:#999;stroke-width:3" />
<path d="M1251.83,41.5c1.01,0.32,1.83,1.41,1.83,2.06c0,3.32,0.27,9.51,0.27,12.68" style="fill:none;stroke:#999;stroke-width:3" />
<path d="M1254.15,48.93c6.63-0.47,12.33-1.77,19.3-2.08c1.62-0.07,2.03-0.16,3.04,0" style="fill:none;stroke:#999;stroke-width:3" />
<path d="M1235.69,46.93c1.01,0.32,1.62,1.42,1.83,2.06c0.2,0.63,0,4.9-0.2,8.86" style="fill:none;stroke:#999;stroke-width:3" />
<path d="M1215.94,58.21c0.81,0.21,2.99,0.71,5.16,0.63c11.7-0.42,50.67-3.77,61.76-3.77c2.18,0,5.95,0.42,7.19,0.63" style="fill:none;stroke:#999;stroke-width:3" />
<path d="M1242.38,60.73c0.17,0.14-0.09,1.47-0.22,1.79C1240.7,66 1236.9,71.7 1231.5,74.97" style="fill:none;stroke:#999;stroke-width:3" />
<path d="M1241.25,67.04c2.91,0.98,6.64,3.59,8.05,6.06" style="fill:none;stroke:black;stroke-width:3" />
<circle cx="1241.25" cy="67.04" r="5" stroke-width="0" fill="#FF2A00" opacity="0.7" />
<path d="M1323.5900000000001,18.31c0.71,0.33,3.07,0.48,3.8,0.43C1333.99,18.25 1345.0,17 1352.3400000000001,16.08c0.89-0.11,2.86-0.13,4.19,0.15" style="fill:none;stroke:#999;stroke-width:3" />
<path d="M1327.5900000000001,28.31c0.59,0.33,2.56,0.48,3.17,0.43c5.49-0.49,14.24-2.24,20.28-3.17c0.74-0.11,2.38-0.13,3.49,0.15" style="fill:none;stroke:#999;stroke-width:3" />
<path d="M1324.0,39.7c0.8,0.55,2.41,0.84,4.82,0.12c6.69-2,18.74-5.57,25.43-7.57" style="fill:none;stroke:#999;stroke-width:3" />
<path d="M1338.37,10.25c1.09,0.5,1.69,2.26,1.96,3.25C1341.0,16 1341.0,33.5 1341.5,42.5" style="fill:none;stroke:#999;stroke-width:3" />
<path d="M1364.4,14.93c1.1,0.32,2.86,0.78,3.57,0.67c5.86-0.88,22.72-3.23,25.96-3.56c2.11-0.21,3.2,1.45,3.08,2.94c-0.31,3.91-4.85,19.39-8.12,22.05c-3.05,2.48-5.15-0.28-6.63-2.32" style="fill:none;stroke:#999;stroke-width:3" />
<path d="M1376.6,16.56c0.03,0.43,0.1,1.11-0.07,1.72C1375.25,23 1371.75,30 1363.6399999999999,36.25" style="fill:none;stroke:#999;stroke-width:3" />
<path d="M1360.83,41.5c1.01,0.32,1.83,1.41,1.83,2.06c0,3.32,0.27,9.51,0.27,12.68" style="fill:none;stroke:#999;stroke-width:3" />
<path d="M1363.15,48.93c6.63-0.47,12.33-1.77,19.3-2.08c1.62-0.07,2.03-0.16,3.04,0" style="fill:none;stroke:#999;stroke-width:3" />
<path d="M1344.69,46.93c1.01,0.32,1.62,1.42,1.83,2.06c0.2,0.63,0,4.9-0.2,8.86" style="fill:none;stroke:#999;stroke-width:3" />
<path d="M1324.94,58.21c0.81,0.21,2.99,0.71,5.16,0.63c11.7-0.42,50.67-3.77,61.76-3.77c2.18,0,5.95,0.42,7.19,0.63" style="fill:none;stroke:#999;stroke-width:3" />
<path d="M1351.38,60.73c0.17,0.14-0.09,1.47-0.22,1.79C1349.7,66 1345.9,71.7 1340.5,74.97" style="fill:none;stroke:#999;stroke-width:3" />
<path d="M1350.25,67.04c2.91,0.98,6.64,3.59,8.05,6.06" style="fill:none;stroke:#999;stroke-width:3" />
<path d="M1375.49,59.92c0.16,0.12-0.08,1.27-0.2,1.55c-1.31,3-4.72,7.92-9.57,10.74" style="fill:none;stroke:black;stroke-width:3" />
<circle cx="1375.49" cy="59.92" r="5" stroke-width="0" fill="#FF2A00" opacity="0.7" />
<path d="M1432.5900000000001,18.31c0.71,0.33,3.07,0.48,3.8,0.43C1442.99,18.25 1454.0,17 1461.3400000000001,16.08c0.89-0.11,2.86-0.13,4.19,0.15" style="fill:none;stroke:#999;stroke-width:3" />
<path d="M1436.5900000000001,28.31c0.59,0.33,2.56,0.48,3.17,0.43c5.49-0.49,14.24-2.24,20.28-3.17c0.74-0.11,2.38-0.13,3.49,0.15" style="fill:none;stroke:#999;stroke-width:3" />
<path d="M1433.0,39.7c0.8,0.55,2.41,0.84,4.82,0.12c6.69-2,18.74-5.57,25.43-7.57" style="fill:none;stroke:#999;stroke-width:3" />
<path d="M1447.37,10.25c1.09,0.5,1.69,2.26,1.96,3.25C1450.0,16 1450.0,33.5 1450.5,42.5" style="fill:none;stroke:#999;stroke-width:3" />
<path d="M1473.4,14.93c1.1,0.32,2.86,0.78,3.57,0.67c5.86-0.88,22.72-3.23,25.96-3.56c2.11-0.21,3.2,1.45,3.08,2.94c-0.31,3.91-4.85,19.39-8.12,22.05c-3.05,2.48-5.15-0.28-6.63-2.32" style="fill:none;stroke:#999;stroke-width:3" />
<path d="M1485.6,16.56c0.03,0.43,0.1,1.11-0.07,1.72C1484.25,23 1480.75,30 1472.6399999999999,36.25" style="fill:none;stroke:#999;stroke-width:3" />
<path d="M1469.83,41.5c1.01,0.32,1.83,1.41,1.83,2.06c0,3.32,0.27,9.51,0.27,12.68" style="fill:none;stroke:#999;stroke-width:3" />
<path d="M1472.15,48.93c6.63-0.47,12.33-1.77,19.3-2.08c1.62-0.07,2.03-0.16,3.04,0" style="fill:none;stroke:#999;stroke-width:3" />
<path d="M1453.69,46.93c1.01,0.32,1.62,1.42,1.83,2.06c0.2,0.63,0,4.9-0.2,8.86" style="fill:none;stroke:#999;stroke-width:3" />
<path d="M1433.94,58.21c0.81,0.21,2.99,0.71,5.16,0.63c11.7-0.42,50.67-3.77,61.76-3.77c2.18,0,5.95,0.42,7.19,0.63" style="fill:none;stroke:#999;stroke-width:3" />
<path d="M1460.38,60.73c0.17,0.14-0.09,1.47-0.22,1.79C1458.7,66 1454.9,71.7 1449.5,74.97" style="fill:none;stroke:#999;stroke-width:3" />
<path d="M1459.25,67.04c2.91,0.98,6.64,3.59,8.05,6.06" style="fill:none;stroke:#999;stroke-width:3" />
<path d="M1484.49,59.92c0.16,0.12-0.08,1.27-0.2,1.55c-1.31,3-4.72,7.92-9.57,10.74" style="fill:none;stroke:#999;stroke-width:3" />
<path d="M1483.61,64.98c3.37,1.1,7.67,4.03,9.3,6.81" style="fill:none;stroke:black;stroke-width:3" />
<circle cx="1483.61" cy="64.98" r="5" stroke-width="0" fill="#FF2A00" opacity="0.7" />
<path d="M1541.5900000000001,18.31c0.71,0.33,3.07,0.48,3.8,0.43C1551.99,18.25 1563.0,17 1570.3400000000001,16.08c0.89-0.11,2.86-0.13,4.19,0.15" style="fill:none;stroke:#999;stroke-width:3" />
<path d="M1545.5900000000001,28.31c0.59,0.33,2.56,0.48,3.17,0.43c5.49-0.49,14.24-2.24,20.28-3.17c0.74-0.11,2.38-0.13,3.49,0.15" style="fill:none;stroke:#999;stroke-width:3" />
<path d="M1542.0,39.7c0.8,0.55,2.41,0.84,4.82,0.12c6.69-2,18.74-5.57,25.43-7.57" style="fill:none;stroke:#999;stroke-width:3" />
<path d="M1556.37,10.25c1.09,0.5,1.69,2.26,1.96,3.25C1559.0,16 1559.0,33.5 1559.5,42.5" style="fill:none;stroke:#999;stroke-width:3" />
<path d="M1582.4,14.93c1.1,0.32,2.86,0.78,3.57,0.67c5.86-0.88,22.72-3.23,25.96-3.56c2.11-0.21,3.2,1.45,3.08,2.94c-0.31,3.91-4.85,19.39-8.12,22.05c-3.05,2.48-5.15-0.28-6.63-2.32" style="fill:none;stroke:#999;stroke-width:3" />
<path d="M1594.6,16.56c0.03,0.43,0.1,1.11-0.07,1.72C1593.25,23 1589.75,30 1581.6399999999999,36.25" style="fill:none;stroke:#999;stroke-width:3" />
<path d="M1578.83,41.5c1.01,0.32,1.83,1.41,1.83,2.06c0,3.32,0.27,9.51,0.27,12.68" style="fill:none;stroke:#999;stroke-width:3" />
<path d="M1581.15,48.93c6.63-0.47,12.33-1.77,19.3-2.08c1.62-0.07,2.03-0.16,3.04,0" style="fill:none;stroke:#999;stroke-width:3" />
<path d="M1562.69,46.93c1.01,0.32,1.62,1.42,1.83,2.06c0.2,0.63,0,4.9-0.2,8.86" style="fill:none;stroke:#999;stroke-width:3" />
<path d="M1542.94,58.21c0.81,0.21,2.99,0.71,5.16,0.63c11.7-0.42,50.67-3.77,61.76-3.77c2.18,0,5.95,0.42,7.19,0.63" style="fill:none;stroke:#999;stroke-width:3" />
<path d="M1569.38,60.73c0.17,0.14-0.09,1.47-0.22,1.79C1567.7,66 1563.9,71.7 1558.5,74.97" style="fill:none;stroke:#999;stroke-width:3" />
<path d="M1568.25,67.04c2.91,0.98,6.64,3.59,8.05,6.06" style="fill:none;stroke:#999;stroke-width:3" />
<path d="M1593.49,59.92c0.16,0.12-0.08,1.27-0.2,1.55c-1.31,3-4.72,7.92-9.57,10.74" style="fill:none;stroke:#999;stroke-width:3" />
<path d="M1592.61,64.98c3.37,1.1,7.67,4.03,9.3,6.81" style="fill:none;stroke:#999;stroke-width:3" />
<path d="M1552.58,78.53c3.29,0,52.39-3.06,55.45-3.06" style="fill:none;stroke:black;stroke-width:3" />
<circle cx="1552.58" cy="78.53" r="5" stroke-width="0" fill="#FF2A00" opacity="0.7" />
<path d="M1650.5900000000001,18.31c0.71,0.33,3.07,0.48,3.8,0.43C1660.99,18.25 1672.0,17 1679.3400000000001,16.08c0.89-0.11,2.86-0.13,4.19,0.15" style="fill:none;stroke:#999;stroke-width:3" />
<path d="M1654.5900000000001,28.31c0.59,0.33,2.56,0.48,3.17,0.43c5.49-0.49,14.24-2.24,20.28-3.17c0.74-0.11,2.38-0.13,3.49,0.15" style="fill:none;stroke:#999;stroke-width:3" />
<path d="M1651.0,39.7c0.8,0.55,2.41,0.84,4.82,0.12c6.69-2,18.74-5.57,25.43-7.57" style="fill:none;stroke:#999;stroke-width:3" />
<path d="M1665.37,10.25c1.09,0.5,1.69,2.26,1.96,3.25C1668.0,16 1668.0,33.5 1668.5,42.5" style="fill:none;stroke:#999;stroke-width:3" />
<path d="M1691.4,14.93c1.1,0.32,2.86,0.78,3.57,0.67c5.86-0.88,22.72-3.23,25.96-3.56c2.11-0.21,3.2,1.45,3.08,2.94c-0.31,3.91-4.85,19.39-8.12,22.05c-3.05,2.48-5.15-0.28-6.63-2.32" style="fill:none;stroke:#999;stroke-width:3" />
<path d="M1703.6,16.56c0.03,0.43,0.1,1.11-0.07,1.72C1702.25,23 1698.75,30 1690.6399999999999,36.25" style="fill:none;stroke:#999;stroke-width:3" />
<path d="M1687.83,41.5c1.01,0.32,1.83,1.41,1.83,2.06c0,3.32,0.27,9.51,0.27,12.68" style="fill:none;stroke:#999;stroke-width:3" />
<path d="M1690.15,48.93c6.63-0.47,12.33-1.77,19.3-2.08c1.62-0.07,2.03-0.16,3.04,0" style="fill:none;stroke:#999;stroke-width:3" />
<path d="M1671.69,46.93c1.01,0.32,1.62,1.42,1.83,2.06c0.2,0.63,0,4.9-0.2,8.86" style="fill:none;stroke:#999;stroke-width:3" />
<path d="M1651.94,58.21c0.81,0.21,2.99,0.71,5.16,0.63c11.7-0.42,50.67-3.77,61.76-3.77c2.18,0,5.95,0.42,7.19,0.63" style="fill:none;stroke:#999;stroke-width:3" />
<path d="M1678.38,60.73c0.17,0.14-0.09,1.47-0.22,1.79C1676.7,66 1672.9,71.7 1667.5,74.97" style="fill:none;stroke:#999;stroke-width:3" />
<path d="M1677.25,67.04c2.91,0.98,6.64,3.59,8.05,6.06" style="fill:none;stroke:#999;stroke-width:3" />
<path d="M1702.49,59.92c0.16,0.12-0.08,1.27-0.2,1.55c-1.31,3-4.72,7.92-9.57,10.74" style="fill:none;stroke:#999;stroke-width:3" />
<path d="M1701.61,64.98c3.37,1.1,7.67,4.03,9.3,6.81" style="fill:none;stroke:#999;stroke-width:3" />
<path d="M1661.58,78.53c3.29,0,52.39-3.06,55.45-3.06" style="fill:none;stroke:#999;stroke-width:3" />
<path d="M1677.88,80.71c0.18,0.12-0.09,1.27-0.23,1.54c-1.53,2.99-5.5,7.88-11.15,10.7" style="fill:none;stroke:black;stroke-width:3" />
<circle cx="1677.88" cy="80.71" r="5" stroke-width="0" fill="#FF2A00" opacity="0.7" />
<path d="M1759.5900000000001,18.31c0.71,0.33,3.07,0.48,3.8,0.43C1769.99,18.25 1781.0,17 1788.3400000000001,16.08c0.89-0.11,2.86-0.13,4.19,0.15" style="fill:none;stroke:#999;stroke-width:3" />
<path d="M1763.5900000000001,28.31c0.59,0.33,2.56,0.48,3.17,0.43c5.49-0.49,14.24-2.24,20.28-3.17c0.74-0.11,2.38-0.13,3.49,0.15" style="fill:none;stroke:#999;stroke-width:3" />
<path d="M1760.0,39.7c0.8,0.55,2.41,0.84,4.82,0.12c6.69-2,18.74-5.57,25.43-7.57" style="fill:none;stroke:#999;stroke-width:3" />
<path d="M1774.37,10.25c1.09,0.5,1.69,2.26,1.96,3.25C1777.0,16 1777.0,33.5 1777.5,42.5" style="fill:none;stroke:#999;stroke-width:3" />
<path d="M1800.4,14.93c1.1,0.32,2.86,0.78,3.57,0.67c5.86-0.88,22.72-3.23,25.96-3.56c2.11-0.21,3.2,1.45,3.08,2.94c-0.31,3.91-4.85,19.39-8.12,22.05c-3.05,2.48-5.15-0.28-6.63-2.32" style="fill:none;stroke:#999;stroke-width:3" />
<path d="M1812.6,16.56c0.03,0.43,0.1,1.11-0.07,1.72C1811.25,23 1807.75,30 1799.6399999999999,36.25" style="fill:none;stroke:#999;stroke-width:3" />
<path d="M1796.83,41.5c1.01,0.32,1.83,1.41,1.83,2.06c0,3.32,0.27,9.51,0.27,12.68" style="fill:none;stroke:#999;stroke-width:3" />
<path d="M1799.15,48.93c6.63-0.47,12.33-1.77,19.3-2.08c1.62-0.07,2.03-0.16,3.04,0" style="fill:none;stroke:#999;stroke-width:3" />
<path d="M1780.69,46.93c1.01,0.32,1.62,1.42,1.83,2.06c0.2,0.63,0,4.9-0.2,8.86" style="fill:none;stroke:#999;stroke-width:3" />
<path d="M1760.94,58.21c0.81,0.21,2.99,0.71,5.16,0.63c11.7-0.42,50.67-3.77,61.76-3.77c2.18,0,5.95,0.42,7.19,0.63" style="fill:none;stroke:#999;stroke-width:3" />
<path d="M1787.38,60.73c0.17,0.14-0.09,1.47-0.22,1.79C1785.7,66 1781.9,71.7 1776.5,74.97" style="fill:none;stroke:#999;stroke-width:3" />
<path d="M1786.25,67.04c2.91,0.98,6.64,3.59,8.05,6.06" style="fill:none;stroke:#999;stroke-width:3" />
<path d="M1811.49,59.92c0.16,0.12-0.08,1.27-0.2,1.55c-1.31,3-4.72,7.92-9.57,10.74" style="fill:none;stroke:#999;stroke-width:3" />
<path d="M1810.61,64.98c3.37,1.1,7.67,4.03,9.3,6.81" style="fill:none;stroke:#999;stroke-width:3" />
<path d="M1770.58,78.53c3.29,0,52.39-3.06,55.45-3.06" style="fill:none;stroke:#999;stroke-width:3" />
<path d="M1786.88,80.71c0.18,0.12-0.09,1.27-0.23,1.54c-1.53,2.99-5.5,7.88-11.15,10.7" style="fill:none;stroke:#999;stroke-width:3" />
<path d="M1786.75,86.21c2.94,1.01,6.69,3.71,8.11,6.27" style="fill:none;stroke:black;stroke-width:3" />
<circle cx="1786.75" cy="86.21" r="5" stroke-width="0" fill="#FF2A00" opacity="0.7" />
<path d="M1868.5900000000001,18.31c0.71,0.33,3.07,0.48,3.8,0.43C1878.99,18.25 1890.0,17 1897.3400000000001,16.08c0.89-0.11,2.86-0.13,4.19,0.15" style="fill:none;stroke:#999;stroke-width:3" />
<path d="M1872.5900000000001,28.31c0.59,0.33,2.56,0.48,3.17,0.43c5.49-0.49,14.24-2.24,20.28-3.17c0.74-0.11,2.38-0.13,3.49,0.15" style="fill:none;stroke:#999;stroke-width:3" />
<path d="M1869.0,39.7c0.8,0.55,2.41,0.84,4.82,0.12c6.69-2,18.74-5.57,25.43-7.57" style="fill:none;stroke:#999;stroke-width:3" />
<path d="M1883.37,10.25c1.09,0.5,1.69,2.26,1.96,3.25C1886.0,16 1886.0,33.5 1886.5,42.5" style="fill:none;stroke:#999;stroke-width:3" />
<path d="M1909.4,14.93c1.1,0.32,2.86,0.78,3.57,0.67c5.86-0.88,22.72-3.23,25.96-3.56c2.11-0.21,3.2,1.45,3.08,2.94c-0.31,3.91-4.85,19.39-8.12,22.05c-3.05,2.48-5.15-0.28-6.63-2.32" style="fill:none;stroke:#999;stroke-width:3" />
<path d="M1921.6,16.56c0.03,0.43,0.1,1.11-0.07,1.72C1920.25,23 1916.75,30 1908.6399999999999,36.25" style="fill:none;stroke:#999;stroke-width:3" />
<path d="M1905.83,41.5c1.01,0.32,1.83,1.41,1.83,2.06c0,3.32,0.27,9.51,0.27,12.68" style="fill:none;stroke:#999;stroke-width:3" />
<path d="M1908.15,48.93c6.63-0.47,12.33-1.77,19.3-2.08c1.62-0.07,2.03-0.16,3.04,0" style="fill:none;stroke:#999;stroke-width:3" />
<path d="M1889.69,46.93c1.01,0.32,1.62,1.42,1.83,2.06c0.2,0.63,0,4.9-0.2,8.86" style="fill:none;stroke:#999;stroke-width:3" />
<path d="M1869.94,58.21c0.81,0.21,2.99,0.71,5.16,0.63c11.7-0.42,50.67-3.77,61.76-3.77c2.18,0,5.95,0.42,7.19,0.63" style="fill:none;stroke:#999;stroke-width:3" />
<path d="M1896.38,60.73c0.17,0.14-0.09,1.47-0.22,1.79C1894.7,66 1890.9,71.7 1885.5,74.97" style="fill:none;stroke:#999;stroke-width:3" />
<path d="M1895.25,67.04c2.91,0.98,6.64,3.59,8.05,6.06" style="fill:none;stroke:#999;stroke-width:3" />
<path d="M1920.49,59.92c0.16,0.12-0.08,1.27-0.2,1.55c-1.31,3-4.72,7.92-9.57,10.74" style="fill:none;stroke:#999;stroke-width:3" />
<path d="M1919.61,64.98c3.37,1.1,7.67,4.03,9.3,6.81" style="fill:none;stroke:#999;stroke-width:3" />
<path d="M1879.58,78.53c3.29,0,52.39-3.06,55.45-3.06" style="fill:none;stroke:#999;stroke-width:3" />
<path d="M1895.88,80.71c0.18,0.12-0.09,1.27-0.23,1.54c-1.53,2.99-5.5,7.88-11.15,10.7" style="fill:none;stroke:#999;stroke-width:3" />
<path d="M1895.75,86.21c2.94,1.01,6.69,3.71,8.11,6.27" style="fill:none;stroke:#999;stroke-width:3" />
<path d="M1921.59,79.95c0.14,0.12-0.07,1.21-0.18,1.47c-1.21,2.84-4.35,7.5-8.83,10.18" style="fill:none;stroke:black;stroke-width:3" />
<circle cx="1921.59" cy="79.95" r="5" stroke-width="0" fill="#FF2A00" opacity="0.7" />
<path d="M1977.5900000000001,18.31c0.71,0.33,3.07,0.48,3.8,0.43C1987.99,18.25 1999.0,17 2006.3400000000001,16.08c0.89-0.11,2.86-0.13,4.19,0.15" style="fill:none;stroke:#999;stroke-width:3" />
<path d="M1981.5900000000001,28.31c0.59,0.33,2.56,0.48,3.17,0.43c5.49-0.49,14.24-2.24,20.28-3.17c0.74-0.11,2.38-0.13,3.49,0.15" style="fill:none;stroke:#999;stroke-width:3" />
<path d="M1978.0,39.7c0.8,0.55,2.41,0.84,4.82,0.12c6.69-2,18.74-5.57,25.43-7.57" style="fill:none;stroke:#999;stroke-width:3" />
<path d="M1992.37,10.25c1.09,0.5,1.69,2.26,1.96,3.25C1995.0,16 1995.0,33.5 1995.5,42.5" style="fill:none;stroke:#999;stroke-width:3" />
<path d="M2018.4,14.93c1.1,0.32,2.86,0.78,3.57,0.67c5.86-0.88,22.72-3.23,25.96-3.56c2.11-0.21,3.2,1.45,3.08,2.94c-0.31,3.91-4.85,19.39-8.12,22.05c-3.05,2.48-5.15-0.28-6.63-2.32" style="fill:none;stroke:#999;stroke-width:3" />
<path d="M2030.6,16.56c0.03,0.43,0.1,1.11-0.07,1.72C2029.25,23 2025.75,30 2017.6399999999999,36.25" style="fill:none;stroke:#999;stroke-width:3" />
<path d="M2014.83,41.5c1.01,0.32,1.83,1.41,1.83,2.06c0,3.32,0.27,9.51,0.27,12.68" style="fill:none;stroke:#999;stroke-width:3" />
<path d="M2017.15,48.93c6.63-0.47,12.33-1.77,19.3-2.08c1.62-0.07,2.03-0.16,3.04,0" style="fill:none;stroke:#999;stroke-width:3" />
<path d="M1998.69,46.93c1.01,0.32,1.62,1.42,1.83,2.06c0.2,0.63,0,4.9-0.2,8.86" style="fill:none;stroke:#999;stroke-width:3" />
<path d="M1978.94,58.21c0.81,0.21,2.99,0.71,5.16,0.63c11.7-0.42,50.67-3.77,61.76-3.77c2.18,0,5.95,0.42,7.19,0.63" style="fill:none;stroke:#999;stroke-width:3" />
<path d="M2005.38,60.73c0.17,0.14-0.09,1.47-0.22,1.79C2003.7,66 1999.9,71.7 1994.5,74.97" style="fill:none;stroke:#999;stroke-width:3" />
<path d="M2004.25,67.04c2.91,0.98,6.64,3.59,8.05,6.06" style="fill:none;stroke:#999;stroke-width:3" />
<path d="M2029.49,59.92c0.16,0.12-0.08,1.27-0.2,1.55c-1.31,3-4.72,7.92-9.57,10.74" style="fill:none;stroke:#999;stroke-width:3" />
<path d="M2028.61,64.98c3.37,1.1,7.67,4.03,9.3,6.81" style="fill:none;stroke:#999;stroke-width:3" />
<path d="M1988.58,78.53c3.29,0,52.39-3.06,55.45-3.06" style="fill:none;stroke:#999;stroke-width:3" />
<path d="M2004.88,80.71c0.18,0.12-0.09,1.27-0.23,1.54c-1.53,2.99-5.5,7.88-11.15,10.7" style="fill:none;stroke:#999;stroke-width:3" />
<path d="M2004.75,86.21c2.94,1.01,6.69,3.71,8.11,6.27" style="fill:none;stroke:#999;stroke-width:3" />
<path d="M2030.59,79.95c0.14,0.12-0.07,1.21-0.18,1.47c-1.21,2.84-4.35,7.5-8.83,10.18" style="fill:none;stroke:#999;stroke-width:3" />
<path d="M2028.91,84.6c3.44,1.03,7.84,3.76,9.51,6.35" style="fill:none;stroke:black;stroke-width:3" />
<circle cx="2028.91" cy="84.6" r="5" stroke-width="0" fill="#FF2A00" opacity="0.7" />
<path d="M2086.59,18.31c0.71,0.33,3.07,0.48,3.8,0.43C2096.99,18.25 2108.0,17 2115.34,16.08c0.89-0.11,2.86-0.13,4.19,0.15" style="fill:none;stroke:#999;stroke-width:3" />
<path d="M2090.59,28.31c0.59,0.33,2.56,0.48,3.17,0.43c5.49-0.49,14.24-2.24,20.28-3.17c0.74-0.11,2.38-0.13,3.49,0.15" style="fill:none;stroke:#999;stroke-width:3" />
<path d="M2087.0,39.7c0.8,0.55,2.41,0.84,4.82,0.12c6.69-2,18.74-5.57,25.43-7.57" style="fill:none;stroke:#999;stroke-width:3" />
<path d="M2101.37,10.25c1.09,0.5,1.69,2.26,1.96,3.25C2104.0,16 2104.0,33.5 2104.5,42.5" style="fill:none;stroke:#999;stroke-width:3" />
<path d="M2127.4,14.93c1.1,0.32,2.86,0.78,3.57,0.67c5.86-0.88,22.72-3.23,25.96-3.56c2.11-0.21,3.2,1.45,3.08,2.94c-0.31,3.91-4.85,19.39-8.12,22.05c-3.05,2.48-5.15-0.28-6.63-2.32" style="fill:none;stroke:#999;stroke-width:3" />
<path d="M2139.6,16.56c0.03,0.43,0.1,1.11-0.07,1.72C2138.25,23 2134.75,30 2126.64,36.25" style="fill:none;stroke:#999;stroke-width:3" />
<path d="M2123.83,41.5c1.01,0.32,1.83,1.41,1.83,2.06c0,3.32,0.27,9.51,0.27,12.68" style="fill:none;stroke:#999;stroke-width:3" />
<path d="M2126.15,48.93c6.63-0.47,12.33-1.77,19.3-2.08c1.62-0.07,2.03-0.16,3.04,0" style="fill:none;stroke:#999;stroke-width:3" />
<path d="M2107.69,46.93c1.01,0.32,1.62,1.42,1.83,2.06c0.2,0.63,0,4.9-0.2,8.86" style="fill:none;stroke:#999;stroke-width:3" />
<path d="M2087.94,58.21c0.81,0.21,2.99,0.71,5.16,0.63c11.7-0.42,50.67-3.77,61.76-3.77c2.18,0,5.95,0.42,7.19,0.63" style="fill:none;stroke:#999;stroke-width:3" />
<path d="M2114.38,60.73c0.17,0.14-0.09,1.47-0.22,1.79C2112.7,66 2108.9,71.7 2103.5,74.97" style="fill:none;stroke:#999;stroke-width:3" />
<path d="M2113.25,67.04c2.91,0.98,6.64,3.59,8.05,6.06" style="fill:none;stroke:#999;stroke-width:3" />
<path d="M2138.49,59.92c0.16,0.12-0.08,1.27-0.2,1.55c-1.31,3-4.72,7.92-9.57,10.74" style="fill:none;stroke:#999;stroke-width:3" />
<path d="M2137.6099999999997,64.98c3.37,1.1,7.67,4.03,9.3,6.81" style="fill:none;stroke:#999;stroke-width:3" />
<path d="M2097.58,78.53c3.29,0,52.39-3.06,55.45-3.06" style="fill:none;stroke:#999;stroke-width:3" />
<path d="M2113.88,80.71c0.18,0.12-0.09,1.27-0.23,1.54c-1.53,2.99-5.5,7.88-11.15,10.7" style="fill:none;stroke:#999;stroke-width:3" />
<path d="M2113.75,86.21c2.94,1.01,6.69,3.71,8.11,6.27" style="fill:none;stroke:#999;stroke-width:3" />
<path d="M2139.59,79.95c0.14,0.12-0.07,1.21-0.18,1.47c-1.21,2.84-4.35,7.5-8.83,10.18" style="fill:none;stroke:#999;stroke-width:3" />
<path d="M2137.91,84.6c3.44,1.03,7.84,3.76,9.51,6.35" style="fill:none;stroke:#999;stroke-width:3" />
<path d="M2095.56,64.67c0.71,0.28,2.06,2.18,1.89,3.69c-0.06,0.57-0.4,26.6-0.47,27.47c-0.07,0.87,0.61,1.59,2.02,1.51c15.31-0.81,40.18-2.44,54.53-2.75" style="fill:none;stroke:black;stroke-width:3" />
<circle cx="2095.56" cy="64.67" r="5" stroke-width="0" fill="#FF2A00" opacity="0.7" />
<path d="M2195.59,18.31c0.71,0.33,3.07,0.48,3.8,0.43C2205.99,18.25 2217.0,17 2224.34,16.08c0.89-0.11,2.86-0.13,4.19,0.15" style="fill:none;stroke:#999;stroke-width:3" />
<path d="M2199.59,28.31c0.59,0.33,2.56,0.48,3.17,0.43c5.49-0.49,14.24-2.24,20.28-3.17c0.74-0.11,2.38-0.13,3.49,0.15" style="fill:none;stroke:#999;stroke-width:3" />
<path d="M2196.0,39.7c0.8,0.55,2.41,0.84,4.82,0.12c6.69-2,18.74-5.57,25.43-7.57" style="fill:none;stroke:#999;stroke-width:3" />
<path d="M2210.37,10.25c1.09,0.5,1.69,2.26,1.96,3.25C2213.0,16 2213.0,33.5 2213.5,42.5" style="fill:none;stroke:#999;stroke-width:3" />
<path d="M2236.4,14.93c1.1,0.32,2.86,0.78,3.57,0.67c5.86-0.88,22.72-3.23,25.96-3.56c2.11-0.21,3.2,1.45,3.08,2.94c-0.31,3.91-4.85,19.39-8.12,22.05c-3.05,2.48-5.15-0.28-6.63-2.32" style="fill:none;stroke:#999;stroke-width:3" />
<path d="M2248.6,16.56c0.03,0.43,0.1,1.11-0.07,1.72C2247.25,23 2243.75,30 2235.64,36.25" style="fill:none;stroke:#999;stroke-width:3" />
<path d="M2232.83,41.5c1.01,0.32,1.83,1.41,1.83,2.06c0,3.32,0.27,9.51,0.27,12.68" style="fill:none;stroke:#999;stroke-width:3" />
<path d="M2235.15,48.93c6.63-0.47,12.33-1.77,19.3-2.08c1.62-0.07,2.03-0.16,3.04,0" style="fill:none;stroke:#999;stroke-width:3" />
<path d="M2216.69,46.93c1.01,0.32,1.62,1.42,1.83,2.06c0.2,0.63,0,4.9-0.2,8.86" style="fill:none;stroke:#999;stroke-width:3" />
<path d="M2196.94,58.21c0.81,0.21,2.99,0.71,5.16,0.63c11.7-0.42,50.67-3.77,61.76-3.77c2.18,0,5.95,0.42,7.19,0.63" style="fill:none;stroke:#999;stroke-width:3" />
<path d="M2223.38,60.73c0.17,0.14-0.09,1.47-0.22,1.79C2221.7,66 2217.9,71.7 2212.5,74.97" style="fill:none;stroke:#999;stroke-width:3" />
<path d="M2222.25,67.04c2.91,0.98,6.64,3.59,8.05,6.06" style="fill:none;stroke:#999;stroke-width:3" />
<path d="M2247.49,59.92c0.16,0.12-0.08,1.27-0.2,1.55c-1.31,3-4.72,7.92-9.57,10.74" style="fill:none;stroke:#999;stroke-width:3" />
<path d="M2246.6099999999997,64.98c3.37,1.1,7.67,4.03,9.3,6.81" style="fill:none;stroke:#999;stroke-width:3" />
<path d="M2206.58,78.53c3.29,0,52.39-3.06,55.45-3.06" style="fill:none;stroke:#999;stroke-width:3" />
<path d="M2222.88,80.71c0.18,0.12-0.09,1.27-0.23,1.54c-1.53,2.99-5.5,7.88-11.15,10.7" style="fill:none;stroke:#999;stroke-width:3" />
<path d="M2222.75,86.21c2.94,1.01,6.69,3.71,8.11,6.27" style="fill:none;stroke:#999;stroke-width:3" />
<path d="M2248.59,79.95c0.14,0.12-0.07,1.21-0.18,1.47c-1.21,2.84-4.35,7.5-8.83,10.18" style="fill:none;stroke:#999;stroke-width:3" />
<path d="M2246.91,84.6c3.44,1.03,7.84,3.76,9.51,6.35" style="fill:none;stroke:#999;stroke-width:3" />
<path d="M2204.56,64.67c0.71,0.28,2.06,2.18,1.89,3.69c-0.06,0.57-0.4,26.6-0.47,27.47c-0.07,0.87,0.61,1.59,2.02,1.51c15.31-0.81,40.18-2.44,54.53-2.75" style="fill:none;stroke:#999;stroke-width:3" />
<path d="M2261.1,60.82c0.45,0.28,1.39,2.12,1.48,2.69c0.09,0.57-0.19,20.16-0.15,33.37" style="fill:none;stroke:black;stroke-width:3" />
<circle cx="2261.1" cy="60.82" r="5" stroke-width="0" fill="#FF2A00" opacity="0.7" />
</svg>