<!-- 0ff49 -->
<svg width="218px" height="109px" viewBox="0 0 218px 109px" xmlns="http://www.w3.org/2000/svg" xmlns:xlink="http://www.w3.org/1999/xlink" xml:space="preserve" version="1.1"  baseProfile="full">
<line x1="1" y1="1" x2="217" y2="1" style="stroke:#ddd;stroke-width:2" />
<line x1="1" y1="1" x2="1" y2="108" style="stroke:#ddd;stroke-width:2" />
<line x1="1" y1="108" x2="217" y2="108" style="stroke:#ddd;stroke-width:2" />
<line x1="217" y1="1" x2="217" y2="108" style="stroke:#ddd;stroke-width:2" />
<line x1="109" y1="1" x2="109" y2="108" style="stroke:#ddd;stroke-width:2" />
<line x1="1" y1="54" x2="217" y2="54" style="stroke:#ddd;stroke-width:2;stroke-dasharray:3 3" />
<line x1="55" y1="1" x2="55" y2="108" style="stroke:#ddd;stroke-width:2;stroke-dasharray:3 3" />
<line x1="164" y1="1" x2="164" y2="108" style="stroke:#ddd;stroke-width:2;stroke-dasharray:3 3" />
<path d="M54.5,34.93c0,5.35,0,50.54,0,57.91" style="fill:none;stroke:black;stroke-width:3" />
<circle cx="54.5" cy="34.93" r="5" stroke-width="0" fill="#FF2A00" opacity="0.7" />
<path d="M163.5,34.93c0,5.35,0,50.54,0,57.91" style="fill:none;stroke:#999;stroke-width:3" />
<path d="M163.5,15 c -0.83,0 -1.5,0.67 -1.5,1.5 0,0.83 0.67,1.5 1.5,1.5 0.83,0 1.5,-0.67 1.5,-1.5 0,-0.83 -0.67,-1.5 -1.5,-1.5" style="fill:none;stroke:black;stroke-width:3" />
<circle cx="163.5" cy="15.0" r="5" stroke-width="0" fill="#FF2A00" opacity="0.7" />
</svg>