<!-- 20b9f -->
<svg width="545px" height="109px" viewBox="0 0 545px 109px" xmlns="http://www.w3.org/2000/svg" xmlns:xlink="http://www.w3.org/1999/xlink" xml:space="preserve" version="1.1"  baseProfile="full">
<line x1="1" y1="1" x2="544" y2="1" style="stroke:#ddd;stroke-width:2" />
<line x1="1" y1="1" x2="1" y2="108" style="stroke:#ddd;stroke-width:2" />
<line x1="1" y1="108" x2="544" y2="108" style="stroke:#ddd;stroke-width:2" />
<line x1="544" y1="1" x2="544" y2="108" style="stroke:#ddd;stroke-width:2" />
<line x1="109" y1="1" x2="109" y2="108" style="stroke:#ddd;stroke-width:2" />
<line x1="218" y1="1" x2="218" y2="108" style="stroke:#ddd;stroke-width:2" />
<line x1="327" y1="1" x2="327" y2="108" style="stroke:#ddd;stroke-width:2" />
<line x1="436" y1="1" x2="436" y2="108" style="stroke:#ddd;stroke-width:2" />
<line x1="1" y1="54" x2="544" y2="54" style="stroke:#ddd;stroke-width:2;stroke-dasharray:3 3" />
<line x1="55" y1="1" x2="55" y2="108" style="stroke:#ddd;stroke-width:2;stroke-dasharray:3 3" />
<line x1="164" y1="1" x2="164" y2="108" style="stroke:#ddd;stroke-width:2;stroke-dasharray:3 3" />
<line x1="273" y1="1" x2="273" y2="108" style="stroke:#ddd;stroke-width:2;stroke-dasharray:3 3" />
<line x1="382" y1="1" x2="382" y2="108" style="stroke:#ddd;stroke-width:2;stroke-dasharray:3 3" />
<line x1="491" y1="1" x2="491" y2="108" style="stroke:#ddd;stroke-width:2;stroke-dasharray:3 3" />
<path d="M 14.75,38.79 c 0.92,0.92 1.1,1.79 1.23,2.85 0.97,5.21 1.92,12.07 2.82,19.13 0.29,2.24 0.57,4.5 0.85,6.74" style="fill:none;stroke:black;stroke-width:3" />
<circle cx="14.75" cy="38.79" r="5" stroke-width="0" fill="#FF2A00" opacity="0.7" />
<path d="M 123.75,38.79 c 0.92,0.92 1.1,1.79 1.23,2.85 0.97,5.21 1.92,12.07 2.82,19.13 0.29,2.24 0.57,4.5 0.85,6.74" style="fill:none;stroke:#999;stroke-width:3" />
<path d="M 125.08,40.22 c 8.84,-1.95 15.7,-3.23 20.2,-3.96 2.28,-0.37 4.33,0.78 3.91,3.5 -0.85,5.36 -2.16,12.15 -3.57,20.35" style="fill:none;stroke:black;stroke-width:3" />
<circle cx="125.08" cy="40.22" r="5" stroke-width="0" fill="#FF2A00" opacity="0.7" />
<path d="M 232.75,38.79 c 0.92,0.92 1.1,1.79 1.23,2.85 0.97,5.21 1.92,12.07 2.82,19.13 0.29,2.24 0.57,4.5 0.85,6.74" style="fill:none;stroke:#999;stroke-width:3" />
<path d="M 234.07999999999998,40.22 c 8.84,-1.95 15.7,-3.23 20.2,-3.96 2.28,-0.37 4.33,0.78 3.91,3.5 -0.85,5.36 -2.16,12.15 -3.57,20.35" style="fill:none;stroke:#999;stroke-width:3" />
<path d="M 237.82,63.3 c 4.04,-0.59 8.86,-1.21 14.67,-2.01 1.58,-0.22 3.24,-0.45 4.97,-0.7" style="fill:none;stroke:black;stroke-width:3" />
<circle cx="237.82" cy="63.3" r="5" stroke-width="0" fill="#FF2A00" opacity="0.7" />
<path d="M 341.75,38.79 c 0.92,0.92 1.1,1.79 1.23,2.85 0.97,5.21 1.92,12.07 2.82,19.13 0.29,2.24 0.57,4.5 0.85,6.74" style="fill:none;stroke:#999;stroke-width:3" />
<path d="M 343.08,40.22 c 8.84,-1.95 15.7,-3.23 20.2,-3.96 2.28,-0.37 4.33,0.78 3.91,3.5 -0.85,5.36 -2.16,12.15 -3.57,20.35" style="fill:none;stroke:#999;stroke-width:3" />
<path d="M 346.82,63.3 c 4.04,-0.59 8.86,-1.21 14.67,-2.01 1.58,-0.22 3.24,-0.45 4.97,-0.7" style="fill:none;stroke:#999;stroke-width:3" />
<path d="M 370.310675,48.910552 C 389.2921,46.474323 418.96968200000003,34.210287 424.628221,30.638119" style="fill:none;stroke:black;stroke-width:3" />
<circle cx="370.310675" cy="48.910552" r="5" stroke-width="0" fill="#FF2A00" opacity="0.7" />
<path d="M 450.75,38.79 c 0.92,0.92 1.1,1.79 1.23,2.85 0.97,5.21 1.92,12.07 2.82,19.13 0.29,2.24 0.57,4.5 0.85,6.74" style="fill:none;stroke:#999;stroke-width:3" />
<path d="M 452.08,40.22 c 8.84,-1.95 15.7,-3.23 20.2,-3.96 2.28,-0.37 4.33,0.78 3.91,3.5 -0.85,5.36 -2.16,12.15 -3.57,20.35" style="fill:none;stroke:#999;stroke-width:3" />
<path d="M 455.82,63.3 c 4.04,-0.59 8.86,-1.21 14.67,-2.01 1.58,-0.22 3.24,-0.45 4.97,-0.7" style="fill:none;stroke:#999;stroke-width:3" />
<path d="M 479.310675,48.910552 C 498.2921,46.474323 527.969682,34.210287 533.6282209999999,30.638119" style="fill:none;stroke:#999;stroke-width:3" />
<path d="M 493.95501,14.13 c 1.25,1.25 1.26,3.12 1.26,4.72 0,2.12 -0.17,54.56 -0.12,61.13 0.1,13.52 5.144683,14.74 17.01499,14.74 16.55,0 19.68,-2.8 19.68,-14.52" style="fill:none;stroke:black;stroke-width:3" />
<circle cx="493.95501" cy="14.13" r="5" stroke-width="0" fill="#FF2A00" opacity="0.7" />
</svg>